{
    "header": {
        "PPQ": 240,
        "timeSignature": [
            4,
            4
        ],
        "bpm": 120,
        "name": ""
    },
    "startTime": 0,
    "duration": 302.56666666666484,
    "tracks": [
        {
            "startTime": 0,
            "duration": 302.56666666666484,
            "length": 4231,
            "notes": [
                {
                    "name": "D#5",
                    "midi": 75,
                    "time": 0,
                    "velocity": 0.2677165354330709,
                    "duration": 0.17291666666666666
                },
                {
                    "name": "B4",
                    "midi": 71,
                    "time": 0.0125,
                    "velocity": 0.25196850393700787,
                    "duration": 0.10625
                },
                {
                    "name": "E4",
                    "midi": 64,
                    "time": 0.018750000000000003,
                    "velocity": 0.25984251968503935,
                    "duration": 0.075
                },
                {
                    "name": "G#5",
                    "midi": 80,
                    "time": 0.22708333333333333,
                    "velocity": 0.28346456692913385,
                    "duration": 0.07291666666666666
                },
                {
                    "name": "G#4",
                    "midi": 68,
                    "time": 0.4270833333333333,
                    "velocity": 0.2047244094488189,
                    "duration": 0.07291666666666669
                },
                {
                    "name": "D#6",
                    "midi": 87,
                    "time": 0.42916666666666664,
                    "velocity": 0.3228346456692913,
                    "duration": 0.1375
                },
                {
                    "name": "E5",
                    "midi": 76,
                    "time": 0.4395833333333333,
                    "velocity": 0.25196850393700787,
                    "duration": 0.06874999999999998
                },
                {
                    "name": "F#6",
                    "midi": 90,
                    "time": 0.6375,
                    "velocity": 0.3779527559055118,
                    "duration": 0.1708333333333334
                },
                {
                    "name": "B5",
                    "midi": 83,
                    "time": 0.8333333333333334,
                    "velocity": 0.5275590551181102,
                    "duration": 0.05208333333333326
                },
                {
                    "name": "E5",
                    "midi": 76,
                    "time": 0.8395833333333333,
                    "velocity": 0.30708661417322836,
                    "duration": 0.05833333333333324
                },
                {
                    "name": "D#6",
                    "midi": 87,
                    "time": 0.8395833333333333,
                    "velocity": 0.3858267716535433,
                    "duration": 0.1645833333333333
                },
                {
                    "name": "G#5",
                    "midi": 80,
                    "time": 1.0354166666666667,
                    "velocity": 0.4409448818897638,
                    "duration": 0.08958333333333335
                },
                {
                    "name": "E5",
                    "midi": 76,
                    "time": 1.2208333333333334,
                    "velocity": 0.3543307086614173,
                    "duration": 0.054166666666666696
                },
                {
                    "name": "C#5",
                    "midi": 73,
                    "time": 1.2437500000000001,
                    "velocity": 0.3779527559055118,
                    "duration": 0.07291666666666674
                },
                {
                    "name": "A4",
                    "midi": 69,
                    "time": 1.2479166666666668,
                    "velocity": 0.2204724409448819,
                    "duration": 0.06666666666666665
                },
                {
                    "name": "G#5",
                    "midi": 80,
                    "time": 1.3375000000000001,
                    "velocity": 0.4409448818897638,
                    "duration": 0.07291666666666674
                },
                {
                    "name": "C#6",
                    "midi": 85,
                    "time": 1.4375000000000002,
                    "velocity": 0.4251968503937008,
                    "duration": 0.16249999999999987
                },
                {
                    "name": "E6",
                    "midi": 88,
                    "time": 1.5270833333333336,
                    "velocity": 0.4330708661417323,
                    "duration": 0.06041666666666656
                },
                {
                    "name": "D#5",
                    "midi": 75,
                    "time": 1.6479166666666667,
                    "velocity": 0.4251968503937008,
                    "duration": 0.18541666666666679
                },
                {
                    "name": "B4",
                    "midi": 71,
                    "time": 1.6500000000000001,
                    "velocity": 0.33858267716535434,
                    "duration": 0.15208333333333335
                },
                {
                    "name": "E4",
                    "midi": 64,
                    "time": 1.6729166666666668,
                    "velocity": 0.2677165354330709,
                    "duration": 0.12291666666666656
                },
                {
                    "name": "G#5",
                    "midi": 80,
                    "time": 1.8687500000000001,
                    "velocity": 0.4330708661417323,
                    "duration": 0.12083333333333335
                },
                {
                    "name": "G#4",
                    "midi": 68,
                    "time": 2.060416666666667,
                    "velocity": 0.2677165354330709,
                    "duration": 0.10208333333333286
                },
                {
                    "name": "E5",
                    "midi": 76,
                    "time": 2.0625,
                    "velocity": 0.29133858267716534,
                    "duration": 0.10208333333333286
                },
                {
                    "name": "D#6",
                    "midi": 87,
                    "time": 2.0729166666666665,
                    "velocity": 0.30708661417322836,
                    "duration": 0.21249999999999947
                },
                {
                    "name": "F#6",
                    "midi": 90,
                    "time": 2.2833333333333328,
                    "velocity": 0.3700787401574803,
                    "duration": 0.20833333333333304
                },
                {
                    "name": "B5",
                    "midi": 83,
                    "time": 2.4520833333333325,
                    "velocity": 0.5905511811023622,
                    "duration": 0.060416666666666785
                },
                {
                    "name": "E5",
                    "midi": 76,
                    "time": 2.4708333333333323,
                    "velocity": 0.2440944881889764,
                    "duration": 0.06666666666666687
                },
                {
                    "name": "D#6",
                    "midi": 87,
                    "time": 2.474999999999999,
                    "velocity": 0.4015748031496063,
                    "duration": 0.15625
                },
                {
                    "name": "G#5",
                    "midi": 80,
                    "time": 2.656249999999999,
                    "velocity": 0.41732283464566927,
                    "duration": 0.06666666666666687
                },
                {
                    "name": "E5",
                    "midi": 76,
                    "time": 2.829166666666666,
                    "velocity": 0.3779527559055118,
                    "duration": 0.05208333333333348
                },
                {
                    "name": "C#5",
                    "midi": 73,
                    "time": 2.8354166666666663,
                    "velocity": 0.4094488188976378,
                    "duration": 0.07291666666666652
                },
                {
                    "name": "A4",
                    "midi": 69,
                    "time": 2.8416666666666663,
                    "velocity": 0.23622047244094488,
                    "duration": 0.06874999999999964
                },
                {
                    "name": "G#5",
                    "midi": 80,
                    "time": 2.929166666666666,
                    "velocity": 0.44881889763779526,
                    "duration": 0.06875000000000009
                },
                {
                    "name": "C#6",
                    "midi": 85,
                    "time": 3.0166666666666657,
                    "velocity": 0.47244094488188976,
                    "duration": 0.17291666666666616
                },
                {
                    "name": "E6",
                    "midi": 88,
                    "time": 3.112499999999999,
                    "velocity": 0.5354330708661418,
                    "duration": 0.09583333333333277
                },
                {
                    "name": "D#5",
                    "midi": 75,
                    "time": 3.2249999999999983,
                    "velocity": 0.5354330708661418,
                    "duration": 0.12708333333333366
                },
                {
                    "name": "B4",
                    "midi": 71,
                    "time": 3.229166666666665,
                    "velocity": 0.3464566929133858,
                    "duration": 0.1395833333333334
                },
                {
                    "name": "E4",
                    "midi": 64,
                    "time": 3.2416666666666654,
                    "velocity": 0.2755905511811024,
                    "duration": 0.10833333333333339
                },
                {
                    "name": "G#5",
                    "midi": 80,
                    "time": 3.4187499999999984,
                    "velocity": 0.49606299212598426,
                    "duration": 0.1395833333333334
                },
                {
                    "name": "D#6",
                    "midi": 87,
                    "time": 3.6104166666666653,
                    "velocity": 0.4409448818897638,
                    "duration": 0.21250000000000036
                },
                {
                    "name": "G#4",
                    "midi": 68,
                    "time": 3.6166666666666654,
                    "velocity": 0.33070866141732286,
                    "duration": 0.08333333333333348
                },
                {
                    "name": "E5",
                    "midi": 76,
                    "time": 3.6187499999999986,
                    "velocity": 0.3464566929133858,
                    "duration": 0.06875000000000009
                },
                {
                    "name": "F#6",
                    "midi": 90,
                    "time": 3.8187499999999988,
                    "velocity": 0.4015748031496063,
                    "duration": 0.08750000000000036
                },
                {
                    "name": "G#5",
                    "midi": 80,
                    "time": 3.999999999999999,
                    "velocity": 0.4015748031496063,
                    "duration": 0.20000000000000018
                },
                {
                    "name": "E5",
                    "midi": 76,
                    "time": 4.012499999999999,
                    "velocity": 0.2440944881889764,
                    "duration": 0.1416666666666666
                },
                {
                    "name": "B4",
                    "midi": 71,
                    "time": 4.029166666666666,
                    "velocity": 0.25984251968503935,
                    "duration": 0.18541666666666679
                },
                {
                    "name": "D#6",
                    "midi": 87,
                    "time": 4.208333333333333,
                    "velocity": 0.3228346456692913,
                    "duration": 0.10208333333333286
                },
                {
                    "name": "G#6",
                    "midi": 92,
                    "time": 4.402083333333333,
                    "velocity": 0.3228346456692913,
                    "duration": 0.09791666666666732
                },
                {
                    "name": "B5",
                    "midi": 83,
                    "time": 4.414583333333333,
                    "velocity": 0.5433070866141733,
                    "duration": 0.0958333333333341
                },
                {
                    "name": "E5",
                    "midi": 76,
                    "time": 4.441666666666666,
                    "velocity": 0.28346456692913385,
                    "duration": 0.07708333333333428
                },
                {
                    "name": "B6",
                    "midi": 95,
                    "time": 4.61875,
                    "velocity": 0.2992125984251969,
                    "duration": 0.0625
                },
                {
                    "name": "G#5",
                    "midi": 80,
                    "time": 4.825,
                    "velocity": 0.41732283464566927,
                    "duration": 0.15208333333333357
                },
                {
                    "name": "E5",
                    "midi": 76,
                    "time": 4.841666666666667,
                    "velocity": 0.25984251968503935,
                    "duration": 0.11666666666666714
                },
                {
                    "name": "A4",
                    "midi": 69,
                    "time": 4.841666666666667,
                    "velocity": 0.23622047244094488,
                    "duration": 0.07708333333333339
                },
                {
                    "name": "C#6",
                    "midi": 85,
                    "time": 5.035416666666667,
                    "velocity": 0.41732283464566927,
                    "duration": 0.060416666666666785
                },
                {
                    "name": "A5",
                    "midi": 81,
                    "time": 5.229166666666668,
                    "velocity": 0.3228346456692913,
                    "duration": 0.07500000000000018
                },
                {
                    "name": "C#5",
                    "midi": 73,
                    "time": 5.2354166666666675,
                    "velocity": 0.29133858267716534,
                    "duration": 0.060416666666666785
                },
                {
                    "name": "G#6",
                    "midi": 92,
                    "time": 5.237500000000001,
                    "velocity": 0.25984251968503935,
                    "duration": 0.10416666666666696
                },
                {
                    "name": "C#7",
                    "midi": 97,
                    "time": 5.429166666666668,
                    "velocity": 0.4645669291338583,
                    "duration": 0.060416666666666785
                },
                {
                    "name": "E6",
                    "midi": 88,
                    "time": 5.593750000000002,
                    "velocity": 0.4094488188976378,
                    "duration": 0.049999999999998934
                },
                {
                    "name": "A5",
                    "midi": 81,
                    "time": 5.600000000000001,
                    "velocity": 0.44881889763779526,
                    "duration": 0.05624999999999947
                },
                {
                    "name": "G#6",
                    "midi": 92,
                    "time": 5.6208333333333345,
                    "velocity": 0.4330708661417323,
                    "duration": 0.14583333333333304
                },
                {
                    "name": "C#6",
                    "midi": 85,
                    "time": 5.812500000000001,
                    "velocity": 0.4094488188976378,
                    "duration": 0.056250000000000355
                },
                {
                    "name": "F#4",
                    "midi": 66,
                    "time": 5.962500000000001,
                    "velocity": 0.30708661417322836,
                    "duration": 0.10416666666666696
                },
                {
                    "name": "D4",
                    "midi": 62,
                    "time": 5.977083333333335,
                    "velocity": 0.2283464566929134,
                    "duration": 0.06458333333333321
                },
                {
                    "name": "F#5",
                    "midi": 78,
                    "time": 6.0270833333333345,
                    "velocity": 0.41732283464566927,
                    "duration": 0.10625000000000018
                },
                {
                    "name": "C5",
                    "midi": 72,
                    "time": 6.035416666666668,
                    "velocity": 0.3543307086614173,
                    "duration": 0.060416666666666785
                },
                {
                    "name": "C6",
                    "midi": 84,
                    "time": 6.114583333333335,
                    "velocity": 0.4566929133858268,
                    "duration": 0.06874999999999964
                },
                {
                    "name": "E6",
                    "midi": 88,
                    "time": 6.206250000000001,
                    "velocity": 0.5118110236220472,
                    "duration": 0.12708333333333321
                },
                {
                    "name": "G#6",
                    "midi": 92,
                    "time": 6.2875000000000005,
                    "velocity": 0.41732283464566927,
                    "duration": 0.17499999999999982
                },
                {
                    "name": "G#5",
                    "midi": 80,
                    "time": 6.385416666666667,
                    "velocity": 0.5511811023622047,
                    "duration": 0.1416666666666666
                },
                {
                    "name": "E5",
                    "midi": 76,
                    "time": 6.3875,
                    "velocity": 0.3700787401574803,
                    "duration": 0.19166666666666643
                },
                {
                    "name": "A4",
                    "midi": 69,
                    "time": 6.395833333333334,
                    "velocity": 0.25196850393700787,
                    "duration": 0.1416666666666666
                },
                {
                    "name": "C#6",
                    "midi": 85,
                    "time": 6.575,
                    "velocity": 0.5590551181102362,
                    "duration": 0.14374999999999982
                },
                {
                    "name": "C#5",
                    "midi": 73,
                    "time": 6.758333333333334,
                    "velocity": 0.3464566929133858,
                    "duration": 0.052083333333333925
                },
                {
                    "name": "A5",
                    "midi": 81,
                    "time": 6.768750000000001,
                    "velocity": 0.2992125984251969,
                    "duration": 0.06666666666666732
                },
                {
                    "name": "G#6",
                    "midi": 92,
                    "time": 6.768750000000001,
                    "velocity": 0.4330708661417323,
                    "duration": 0.15000000000000036
                },
                {
                    "name": "C#7",
                    "midi": 97,
                    "time": 6.9541666666666675,
                    "velocity": 0.4881889763779528,
                    "duration": 0.11249999999999982
                },
                {
                    "name": "E6",
                    "midi": 88,
                    "time": 7.127083333333334,
                    "velocity": 0.5354330708661418,
                    "duration": 0.04374999999999929
                },
                {
                    "name": "A5",
                    "midi": 81,
                    "time": 7.15,
                    "velocity": 0.41732283464566927,
                    "duration": 0.04583333333333339
                },
                {
                    "name": "G#6",
                    "midi": 92,
                    "time": 7.152083333333334,
                    "velocity": 0.4566929133858268,
                    "duration": 0.16041666666666643
                },
                {
                    "name": "C#6",
                    "midi": 85,
                    "time": 7.327083333333333,
                    "velocity": 0.4251968503937008,
                    "duration": 0.07291666666666696
                },
                {
                    "name": "D4",
                    "midi": 62,
                    "time": 7.441666666666667,
                    "velocity": 0.2440944881889764,
                    "duration": 0.08333333333333393
                },
                {
                    "name": "F#4",
                    "midi": 66,
                    "time": 7.481250000000001,
                    "velocity": 0.3779527559055118,
                    "duration": 0.0625
                },
                {
                    "name": "F#5",
                    "midi": 78,
                    "time": 7.500000000000001,
                    "velocity": 0.5118110236220472,
                    "duration": 0.12291666666666679
                },
                {
                    "name": "C5",
                    "midi": 72,
                    "time": 7.5270833333333345,
                    "velocity": 0.3779527559055118,
                    "duration": 0.0625
                },
                {
                    "name": "C6",
                    "midi": 84,
                    "time": 7.595833333333334,
                    "velocity": 0.5196850393700787,
                    "duration": 0.09791666666666643
                },
                {
                    "name": "E6",
                    "midi": 88,
                    "time": 7.689583333333334,
                    "velocity": 0.5196850393700787,
                    "duration": 0.10208333333333286
                },
                {
                    "name": "G#6",
                    "midi": 92,
                    "time": 7.7625,
                    "velocity": 0.4409448818897638,
                    "duration": 0.19375000000000053
                },
                {
                    "name": "G#5",
                    "midi": 80,
                    "time": 7.893750000000001,
                    "velocity": 0.5826771653543307,
                    "duration": 0.19791666666666607
                },
                {
                    "name": "E5",
                    "midi": 76,
                    "time": 7.895833333333334,
                    "velocity": 0.3543307086614173,
                    "duration": 0.30416666666666536
                },
                {
                    "name": "A4",
                    "midi": 69,
                    "time": 7.895833333333334,
                    "velocity": 0.2283464566929134,
                    "duration": 0.26874999999999893
                },
                {
                    "name": "C#6",
                    "midi": 85,
                    "time": 8.104166666666666,
                    "velocity": 0.5433070866141733,
                    "duration": 0.14166666666666572
                },
                {
                    "name": "A5",
                    "midi": 81,
                    "time": 8.283333333333331,
                    "velocity": 0.3858267716535433,
                    "duration": 0.05208333333333215
                },
                {
                    "name": "C#5",
                    "midi": 73,
                    "time": 8.291666666666664,
                    "velocity": 0.3464566929133858,
                    "duration": 0.060416666666666785
                },
                {
                    "name": "G#6",
                    "midi": 92,
                    "time": 8.293749999999998,
                    "velocity": 0.4330708661417323,
                    "duration": 0.07500000000000107
                },
                {
                    "name": "C#7",
                    "midi": 97,
                    "time": 8.48125,
                    "velocity": 0.5511811023622047,
                    "duration": 0.037499999999999645
                },
                {
                    "name": "F#4",
                    "midi": 66,
                    "time": 8.677083333333332,
                    "velocity": 0.25984251968503935,
                    "duration": 0.05833333333333357
                },
                {
                    "name": "C5",
                    "midi": 72,
                    "time": 8.677083333333332,
                    "velocity": 0.28346456692913385,
                    "duration": 0.05833333333333357
                },
                {
                    "name": "F#5",
                    "midi": 78,
                    "time": 8.679166666666665,
                    "velocity": 0.5118110236220472,
                    "duration": 0.24583333333333357
                },
                {
                    "name": "C6",
                    "midi": 84,
                    "time": 8.889583333333333,
                    "velocity": 0.5118110236220472,
                    "duration": 0.15000000000000036
                },
                {
                    "name": "A4",
                    "midi": 69,
                    "time": 9.045833333333333,
                    "velocity": 0.31496062992125984,
                    "duration": 0.07708333333333428
                },
                {
                    "name": "E6",
                    "midi": 88,
                    "time": 9.054166666666665,
                    "velocity": 0.3858267716535433,
                    "duration": 0.09791666666666643
                },
                {
                    "name": "D4",
                    "midi": 62,
                    "time": 9.075,
                    "velocity": 0.2440944881889764,
                    "duration": 0.0625
                },
                {
                    "name": "G#6",
                    "midi": 92,
                    "time": 9.206249999999999,
                    "velocity": 0.5196850393700787,
                    "duration": 0.05000000000000071
                },
                {
                    "name": "G#4",
                    "midi": 68,
                    "time": 9.410416666666666,
                    "velocity": 0.3228346456692913,
                    "duration": 0.154166666666665
                },
                {
                    "name": "A#3",
                    "midi": 58,
                    "time": 9.431249999999999,
                    "velocity": 0.2992125984251969,
                    "duration": 0.08541666666666714
                },
                {
                    "name": "D5",
                    "midi": 74,
                    "time": 9.452083333333333,
                    "velocity": 0.5275590551181102,
                    "duration": 0.11041666666666572
                },
                {
                    "name": "G#5",
                    "midi": 80,
                    "time": 9.533333333333333,
                    "velocity": 0.4566929133858268,
                    "duration": 0.15833333333333144
                },
                {
                    "name": "C6",
                    "midi": 84,
                    "time": 9.635416666666664,
                    "velocity": 0.5590551181102362,
                    "duration": 0.12916666666666643
                },
                {
                    "name": "E6",
                    "midi": 88,
                    "time": 9.724999999999998,
                    "velocity": 0.5039370078740157,
                    "duration": 0.125
                },
                {
                    "name": "F4",
                    "midi": 65,
                    "time": 9.822916666666664,
                    "velocity": 0.4251968503937008,
                    "duration": 0.09999999999999964
                },
                {
                    "name": "C#6",
                    "midi": 85,
                    "time": 9.822916666666664,
                    "velocity": 0.5748031496062992,
                    "duration": 0.14374999999999893
                },
                {
                    "name": "G3",
                    "midi": 55,
                    "time": 9.849999999999998,
                    "velocity": 0.28346456692913385,
                    "duration": 0.154166666666665
                },
                {
                    "name": "A5",
                    "midi": 81,
                    "time": 9.92083333333333,
                    "velocity": 0.4409448818897638,
                    "duration": 0.054166666666665364
                },
                {
                    "name": "F5",
                    "midi": 77,
                    "time": 9.999999999999996,
                    "velocity": 0.49606299212598426,
                    "duration": 0.041666666666666075
                },
                {
                    "name": "B4",
                    "midi": 71,
                    "time": 10.116666666666662,
                    "velocity": 0.5905511811023622,
                    "duration": 0.045833333333332504
                },
                {
                    "name": "E3",
                    "midi": 52,
                    "time": 10.154166666666661,
                    "velocity": 0.33858267716535434,
                    "duration": 0.34583333333332966
                },
                {
                    "name": "D4",
                    "midi": 62,
                    "time": 10.239583333333327,
                    "velocity": 0.3779527559055118,
                    "duration": 0.21874999999999822
                },
                {
                    "name": "G#4",
                    "midi": 68,
                    "time": 10.25416666666666,
                    "velocity": 0.5196850393700787,
                    "duration": 0.1208333333333318
                },
                {
                    "name": "D5",
                    "midi": 74,
                    "time": 10.360416666666659,
                    "velocity": 0.5433070866141733,
                    "duration": 0.14374999999999893
                },
                {
                    "name": "F#5",
                    "midi": 78,
                    "time": 10.470833333333324,
                    "velocity": 0.5039370078740157,
                    "duration": 0.13124999999999787
                },
                {
                    "name": "A#5",
                    "midi": 82,
                    "time": 10.545833333333324,
                    "velocity": 0.5039370078740157,
                    "duration": 0.045833333333332504
                },
                {
                    "name": "C#3",
                    "midi": 49,
                    "time": 10.683333333333323,
                    "velocity": 0.29133858267716534,
                    "duration": 0.2979166666666675
                },
                {
                    "name": "B3",
                    "midi": 59,
                    "time": 10.683333333333323,
                    "velocity": 0.3464566929133858,
                    "duration": 0.21250000000000213
                },
                {
                    "name": "G5",
                    "midi": 79,
                    "time": 10.708333333333323,
                    "velocity": 0.5905511811023622,
                    "duration": 0.13541666666666785
                },
                {
                    "name": "D5",
                    "midi": 74,
                    "time": 10.82499999999999,
                    "velocity": 0.5669291338582677,
                    "duration": 0.09375
                },
                {
                    "name": "B4",
                    "midi": 71,
                    "time": 10.966666666666658,
                    "velocity": 0.1732283464566929,
                    "duration": 0.0625
                },
                {
                    "name": "F4",
                    "midi": 65,
                    "time": 11.029166666666658,
                    "velocity": 0.4330708661417323,
                    "duration": 0.047916666666667496
                },
                {
                    "name": "A#2",
                    "midi": 46,
                    "time": 11.114583333333325,
                    "velocity": 0.23622047244094488,
                    "duration": 0.25
                },
                {
                    "name": "G#3",
                    "midi": 56,
                    "time": 11.193749999999993,
                    "velocity": 0.30708661417322836,
                    "duration": 0.18124999999999858
                },
                {
                    "name": "D4",
                    "midi": 62,
                    "time": 11.199999999999992,
                    "velocity": 0.44881889763779526,
                    "duration": 0.1708333333333325
                },
                {
                    "name": "G#4",
                    "midi": 68,
                    "time": 11.422916666666657,
                    "velocity": 0.33858267716535434,
                    "duration": 0.07499999999999929
                },
                {
                    "name": "C5",
                    "midi": 72,
                    "time": 11.652083333333323,
                    "velocity": 0.3228346456692913,
                    "duration": 0.08125000000000071
                },
                {
                    "name": "G#4",
                    "midi": 68,
                    "time": 11.66874999999999,
                    "velocity": 0.3700787401574803,
                    "duration": 0.2062500000000007
                },
                {
                    "name": "A#3",
                    "midi": 58,
                    "time": 11.695833333333324,
                    "velocity": 0.1968503937007874,
                    "duration": 0.3541666666666661
                },
                {
                    "name": "E5",
                    "midi": 76,
                    "time": 11.885416666666657,
                    "velocity": 0.4094488188976378,
                    "duration": 0.125
                },
                {
                    "name": "C5",
                    "midi": 72,
                    "time": 12.077083333333324,
                    "velocity": 0.4251968503937008,
                    "duration": 0.1750000000000007
                },
                {
                    "name": "G#4",
                    "midi": 68,
                    "time": 12.252083333333324,
                    "velocity": 0.4409448818897638,
                    "duration": 0.05416666666666714
                },
                {
                    "name": "C#3",
                    "midi": 49,
                    "time": 12.441666666666658,
                    "velocity": 0.25984251968503935,
                    "duration": 0.22916666666666785
                },
                {
                    "name": "B3",
                    "midi": 59,
                    "time": 12.445833333333324,
                    "velocity": 0.33070866141732286,
                    "duration": 0.15000000000000036
                },
                {
                    "name": "G4",
                    "midi": 67,
                    "time": 12.470833333333324,
                    "velocity": 0.3228346456692913,
                    "duration": 0.08541666666666714
                },
                {
                    "name": "F4",
                    "midi": 65,
                    "time": 12.47499999999999,
                    "velocity": 0.3700787401574803,
                    "duration": 0.08125000000000071
                },
                {
                    "name": "B4",
                    "midi": 71,
                    "time": 12.554166666666658,
                    "velocity": 0.5039370078740157,
                    "duration": 0.06874999999999964
                },
                {
                    "name": "D5",
                    "midi": 74,
                    "time": 12.641666666666659,
                    "velocity": 0.5354330708661418,
                    "duration": 0.12291666666666679
                },
                {
                    "name": "G5",
                    "midi": 79,
                    "time": 12.718749999999993,
                    "velocity": 0.47244094488188976,
                    "duration": 0.049999999999998934
                },
                {
                    "name": "A#2",
                    "midi": 46,
                    "time": 12.831249999999992,
                    "velocity": 0.25984251968503935,
                    "duration": 0.18958333333333321
                },
                {
                    "name": "G#3",
                    "midi": 56,
                    "time": 12.84791666666666,
                    "velocity": 0.3700787401574803,
                    "duration": 0.16041666666666643
                },
                {
                    "name": "D4",
                    "midi": 62,
                    "time": 12.87291666666666,
                    "velocity": 0.5196850393700787,
                    "duration": 0.17916666666666536
                },
                {
                    "name": "G#4",
                    "midi": 68,
                    "time": 13.070833333333326,
                    "velocity": 0.4409448818897638,
                    "duration": 0.125
                },
                {
                    "name": "G#4",
                    "midi": 68,
                    "time": 13.270833333333325,
                    "velocity": 0.5039370078740157,
                    "duration": 0.20624999999999893
                },
                {
                    "name": "A#3",
                    "midi": 58,
                    "time": 13.293749999999992,
                    "velocity": 0.30708661417322836,
                    "duration": 0.404166666666665
                },
                {
                    "name": "C5",
                    "midi": 72,
                    "time": 13.293749999999992,
                    "velocity": 0.3700787401574803,
                    "duration": 0.07499999999999929
                },
                {
                    "name": "E5",
                    "midi": 76,
                    "time": 13.491666666666656,
                    "velocity": 0.5039370078740157,
                    "duration": 0.18125000000000036
                },
                {
                    "name": "C5",
                    "midi": 72,
                    "time": 13.697916666666657,
                    "velocity": 0.47244094488188976,
                    "duration": 0.11666666666666714
                },
                {
                    "name": "G#4",
                    "midi": 68,
                    "time": 13.879166666666658,
                    "velocity": 0.3700787401574803,
                    "duration": 0.05416666666666714
                },
                {
                    "name": "C#3",
                    "midi": 49,
                    "time": 14.070833333333324,
                    "velocity": 0.25984251968503935,
                    "duration": 0.22499999999999964
                },
                {
                    "name": "B3",
                    "midi": 59,
                    "time": 14.079166666666657,
                    "velocity": 0.23622047244094488,
                    "duration": 0.13333333333333464
                },
                {
                    "name": "G4",
                    "midi": 67,
                    "time": 14.102083333333324,
                    "velocity": 0.2125984251968504,
                    "duration": 0.10416666666666785
                },
                {
                    "name": "F4",
                    "midi": 65,
                    "time": 14.108333333333324,
                    "velocity": 0.33858267716535434,
                    "duration": 0.08125000000000071
                },
                {
                    "name": "B4",
                    "midi": 71,
                    "time": 14.189583333333324,
                    "velocity": 0.47244094488188976,
                    "duration": 0.07291666666666607
                },
                {
                    "name": "D5",
                    "midi": 74,
                    "time": 14.29999999999999,
                    "velocity": 0.44881889763779526,
                    "duration": 0.15625
                },
                {
                    "name": "G5",
                    "midi": 79,
                    "time": 14.410416666666658,
                    "velocity": 0.4251968503937008,
                    "duration": 0.05208333333333215
                },
                {
                    "name": "A#2",
                    "midi": 46,
                    "time": 14.54999999999999,
                    "velocity": 0.25196850393700787,
                    "duration": 0.22083333333333321
                },
                {
                    "name": "G#3",
                    "midi": 56,
                    "time": 14.585416666666656,
                    "velocity": 0.30708661417322836,
                    "duration": 0.18541666666666679
                },
                {
                    "name": "D4",
                    "midi": 62,
                    "time": 14.60624999999999,
                    "velocity": 0.4015748031496063,
                    "duration": 0.16249999999999964
                },
                {
                    "name": "G#4",
                    "midi": 68,
                    "time": 14.816666666666656,
                    "velocity": 0.36220472440944884,
                    "duration": 0.10208333333333286
                },
                {
                    "name": "C5",
                    "midi": 72,
                    "time": 15.047916666666655,
                    "velocity": 0.2992125984251969,
                    "duration": 0.12291666666666679
                },
                {
                    "name": "G#4",
                    "midi": 68,
                    "time": 15.070833333333322,
                    "velocity": 0.41732283464566927,
                    "duration": 0.11875000000000036
                },
                {
                    "name": "A#3",
                    "midi": 58,
                    "time": 15.099999999999989,
                    "velocity": 0.1732283464566929,
                    "duration": 0.2541666666666682
                },
                {
                    "name": "E5",
                    "midi": 76,
                    "time": 15.272916666666656,
                    "velocity": 0.4251968503937008,
                    "duration": 0.17916666666666714
                },
                {
                    "name": "C5",
                    "midi": 72,
                    "time": 15.485416666666657,
                    "velocity": 0.4015748031496063,
                    "duration": 0.16249999999999964
                },
                {
                    "name": "G#4",
                    "midi": 68,
                    "time": 15.67499999999999,
                    "velocity": 0.4094488188976378,
                    "duration": 0.06458333333333321
                },
                {
                    "name": "D4",
                    "midi": 62,
                    "time": 15.895833333333323,
                    "velocity": 0.2677165354330709,
                    "duration": 0.06458333333333321
                },
                {
                    "name": "G#4",
                    "midi": 68,
                    "time": 15.910416666666656,
                    "velocity": 0.5669291338582677,
                    "duration": 0.5750000000000064
                },
                {
                    "name": "A#3",
                    "midi": 58,
                    "time": 15.93749999999999,
                    "velocity": 0.2204724409448819,
                    "duration": 0.7916666666666714
                },
                {
                    "name": "E4",
                    "midi": 64,
                    "time": 16.091666666666658,
                    "velocity": 0.4251968503937008,
                    "duration": 0.07083333333333286
                },
                {
                    "name": "D4",
                    "midi": 62,
                    "time": 16.279166666666658,
                    "velocity": 0.4251968503937008,
                    "duration": 0.0625
                },
                {
                    "name": "C4",
                    "midi": 60,
                    "time": 16.374999999999993,
                    "velocity": 0.5118110236220472,
                    "duration": 0.10000000000000142
                },
                {
                    "name": "D4",
                    "midi": 62,
                    "time": 16.48958333333333,
                    "velocity": 0.4330708661417323,
                    "duration": 0.11666666666666714
                },
                {
                    "name": "E4",
                    "midi": 64,
                    "time": 16.585416666666664,
                    "velocity": 0.5433070866141733,
                    "duration": 0.0416666666666643
                },
                {
                    "name": "F#4",
                    "midi": 66,
                    "time": 16.735416666666662,
                    "velocity": 0.3937007874015748,
                    "duration": 0.31666666666667354
                },
                {
                    "name": "C4",
                    "midi": 60,
                    "time": 16.77708333333333,
                    "velocity": 0.2755905511811024,
                    "duration": 0.25208333333333854
                },
                {
                    "name": "G#3",
                    "midi": 56,
                    "time": 16.779166666666665,
                    "velocity": 0.25196850393700787,
                    "duration": 0.30000000000000426
                },
                {
                    "name": "G#4",
                    "midi": 68,
                    "time": 16.89375,
                    "velocity": 0.3700787401574803,
                    "duration": 0.09375
                },
                {
                    "name": "A#4",
                    "midi": 70,
                    "time": 16.96875,
                    "velocity": 0.4881889763779528,
                    "duration": 0.1479166666666707
                },
                {
                    "name": "C5",
                    "midi": 72,
                    "time": 17.081250000000004,
                    "velocity": 0.4330708661417323,
                    "duration": 0.04791666666666572
                },
                {
                    "name": "D5",
                    "midi": 74,
                    "time": 17.193750000000005,
                    "velocity": 0.4094488188976378,
                    "duration": 0.06041666666666501
                },
                {
                    "name": "E4",
                    "midi": 64,
                    "time": 17.216666666666672,
                    "velocity": 0.3700787401574803,
                    "duration": 0.2291666666666643
                },
                {
                    "name": "A#3",
                    "midi": 58,
                    "time": 17.22083333333334,
                    "velocity": 0.2125984251968504,
                    "duration": 0.26874999999999716
                },
                {
                    "name": "F#3",
                    "midi": 54,
                    "time": 17.22916666666667,
                    "velocity": 0.25196850393700787,
                    "duration": 0.2291666666666643
                },
                {
                    "name": "E5",
                    "midi": 76,
                    "time": 17.29166666666667,
                    "velocity": 0.36220472440944884,
                    "duration": 0.05416666666666714
                },
                {
                    "name": "F#5",
                    "midi": 78,
                    "time": 17.343750000000004,
                    "velocity": 0.4094488188976378,
                    "duration": 0.07083333333333286
                },
                {
                    "name": "G#5",
                    "midi": 80,
                    "time": 17.420833333333338,
                    "velocity": 0.3779527559055118,
                    "duration": 0.12916666666666288
                },
                {
                    "name": "G5",
                    "midi": 79,
                    "time": 17.51875,
                    "velocity": 0.4881889763779528,
                    "duration": 0.12291666666666856
                },
                {
                    "name": "B5",
                    "midi": 83,
                    "time": 17.53125,
                    "velocity": 0.5275590551181102,
                    "duration": 0.07291666666666785
                },
                {
                    "name": "B4",
                    "midi": 71,
                    "time": 17.639583333333334,
                    "velocity": 0.4094488188976378,
                    "duration": 0.10416666666666785
                },
                {
                    "name": "D#4",
                    "midi": 63,
                    "time": 17.6625,
                    "velocity": 0.30708661417322836,
                    "duration": 0.17083333333333428
                },
                {
                    "name": "A3",
                    "midi": 57,
                    "time": 17.683333333333334,
                    "velocity": 0.1968503937007874,
                    "duration": 0.16875000000000284
                },
                {
                    "name": "C#5",
                    "midi": 73,
                    "time": 17.71666666666667,
                    "velocity": 0.4251968503937008,
                    "duration": 0.12291666666666856
                },
                {
                    "name": "F3",
                    "midi": 53,
                    "time": 17.727083333333336,
                    "velocity": 0.33070866141732286,
                    "duration": 0.13541666666666785
                },
                {
                    "name": "D#5",
                    "midi": 75,
                    "time": 17.81041666666667,
                    "velocity": 0.5354330708661418,
                    "duration": 0.11875000000000213
                },
                {
                    "name": "F5",
                    "midi": 77,
                    "time": 17.914583333333336,
                    "velocity": 0.3700787401574803,
                    "duration": 0.04791666666666927
                },
                {
                    "name": "G5",
                    "midi": 79,
                    "time": 18.00833333333334,
                    "velocity": 0.4881889763779528,
                    "duration": 0.06041666666666501
                },
                {
                    "name": "A5",
                    "midi": 81,
                    "time": 18.087500000000006,
                    "velocity": 0.4566929133858268,
                    "duration": 0.05208333333333215
                },
                {
                    "name": "E2",
                    "midi": 40,
                    "time": 18.15208333333334,
                    "velocity": 0.30708661417322836,
                    "duration": 0.16041666666666998
                },
                {
                    "name": "B5",
                    "midi": 83,
                    "time": 18.175000000000008,
                    "velocity": 0.5275590551181102,
                    "duration": 0.06666666666666998
                },
                {
                    "name": "C#6",
                    "midi": 85,
                    "time": 18.239583333333343,
                    "velocity": 0.4566929133858268,
                    "duration": 0.10833333333333428
                },
                {
                    "name": "B2",
                    "midi": 47,
                    "time": 18.308333333333344,
                    "velocity": 0.2047244094488189,
                    "duration": 0.16041666666666288
                },
                {
                    "name": "D#6",
                    "midi": 87,
                    "time": 18.372916666666676,
                    "velocity": 0.2755905511811024,
                    "duration": 0.11666666666666359
                },
                {
                    "name": "G#5",
                    "midi": 80,
                    "time": 18.385416666666675,
                    "velocity": 0.25984251968503935,
                    "duration": 0.06666666666666643
                },
                {
                    "name": "G#3",
                    "midi": 56,
                    "time": 18.468750000000007,
                    "velocity": 0.29133858267716534,
                    "duration": 0.07499999999999929
                },
                {
                    "name": "D#5",
                    "midi": 75,
                    "time": 18.49583333333334,
                    "velocity": 0.3858267716535433,
                    "duration": 0.2312499999999993
                },
                {
                    "name": "G#5",
                    "midi": 80,
                    "time": 18.72708333333334,
                    "velocity": 0.3858267716535433,
                    "duration": 0.08125000000000071
                },
                {
                    "name": "D#6",
                    "midi": 87,
                    "time": 18.925000000000008,
                    "velocity": 0.2992125984251969,
                    "duration": 0.20625000000000426
                },
                {
                    "name": "B4",
                    "midi": 71,
                    "time": 18.935416666666676,
                    "velocity": 0.29133858267716534,
                    "duration": 0.09583333333333499
                },
                {
                    "name": "E4",
                    "midi": 64,
                    "time": 18.96250000000001,
                    "velocity": 0.18110236220472442,
                    "duration": 0.07291666666666785
                },
                {
                    "name": "F#6",
                    "midi": 90,
                    "time": 19.14375000000001,
                    "velocity": 0.31496062992125984,
                    "duration": 0.19791666666666785
                },
                {
                    "name": "D#5",
                    "midi": 75,
                    "time": 19.33125000000001,
                    "velocity": 0.25984251968503935,
                    "duration": 0.07291666666666785
                },
                {
                    "name": "D#6",
                    "midi": 87,
                    "time": 19.350000000000012,
                    "velocity": 0.3700787401574803,
                    "duration": 0.154166666666665
                },
                {
                    "name": "G#4",
                    "midi": 68,
                    "time": 19.356250000000014,
                    "velocity": 0.1968503937007874,
                    "duration": 0.07083333333333286
                },
                {
                    "name": "D#4",
                    "midi": 63,
                    "time": 19.383333333333347,
                    "velocity": 0.12598425196850394,
                    "duration": 0.06874999999999787
                },
                {
                    "name": "G#5",
                    "midi": 80,
                    "time": 19.552083333333343,
                    "velocity": 0.33858267716535434,
                    "duration": 0.11874999999999858
                },
                {
                    "name": "A3",
                    "midi": 57,
                    "time": 19.72708333333334,
                    "velocity": 0.2755905511811024,
                    "duration": 0.09166666666666501
                },
                {
                    "name": "E4",
                    "midi": 64,
                    "time": 19.747916666666672,
                    "velocity": 0.2992125984251969,
                    "duration": 0.05416666666666714
                },
                {
                    "name": "C#5",
                    "midi": 73,
                    "time": 19.750000000000007,
                    "velocity": 0.33070866141732286,
                    "duration": 0.09583333333333144
                },
                {
                    "name": "G#5",
                    "midi": 80,
                    "time": 19.84583333333334,
                    "velocity": 0.36220472440944884,
                    "duration": 0.07291666666666785
                },
                {
                    "name": "C#6",
                    "midi": 85,
                    "time": 19.93958333333334,
                    "velocity": 0.4015748031496063,
                    "duration": 0.16458333333333286
                },
                {
                    "name": "E3",
                    "midi": 52,
                    "time": 20.016666666666673,
                    "velocity": 0.5039370078740157,
                    "duration": 0.05624999999999858
                },
                {
                    "name": "E6",
                    "midi": 88,
                    "time": 20.045833333333338,
                    "velocity": 0.4251968503937008,
                    "duration": 0.07708333333333428
                },
                {
                    "name": "D#5",
                    "midi": 75,
                    "time": 20.187500000000007,
                    "velocity": 0.4645669291338583,
                    "duration": 0.26041666666666785
                },
                {
                    "name": "B3",
                    "midi": 59,
                    "time": 20.197916666666675,
                    "velocity": 0.4015748031496063,
                    "duration": 0.12083333333333357
                },
                {
                    "name": "G#4",
                    "midi": 68,
                    "time": 20.216666666666676,
                    "velocity": 0.3543307086614173,
                    "duration": 0.1875
                },
                {
                    "name": "G#5",
                    "midi": 80,
                    "time": 20.40208333333334,
                    "velocity": 0.5039370078740157,
                    "duration": 0.16666666666666785
                },
                {
                    "name": "D#6",
                    "midi": 87,
                    "time": 20.60000000000001,
                    "velocity": 0.4330708661417323,
                    "duration": 0.22500000000000142
                },
                {
                    "name": "B4",
                    "midi": 71,
                    "time": 20.614583333333343,
                    "velocity": 0.4645669291338583,
                    "duration": 0.3312500000000007
                },
                {
                    "name": "E4",
                    "midi": 64,
                    "time": 20.629166666666677,
                    "velocity": 0.3228346456692913,
                    "duration": 0.08125000000000071
                },
                {
                    "name": "F#6",
                    "midi": 90,
                    "time": 20.802083333333343,
                    "velocity": 0.5118110236220472,
                    "duration": 0.15208333333333357
                },
                {
                    "name": "D#5",
                    "midi": 75,
                    "time": 20.98125000000001,
                    "velocity": 0.3700787401574803,
                    "duration": 0.05416666666666359
                },
                {
                    "name": "D#6",
                    "midi": 87,
                    "time": 20.99375000000001,
                    "velocity": 0.41732283464566927,
                    "duration": 0.19166666666666288
                },
                {
                    "name": "G#4",
                    "midi": 68,
                    "time": 21.00625000000001,
                    "velocity": 0.25196850393700787,
                    "duration": 0.05833333333333002
                },
                {
                    "name": "D#4",
                    "midi": 63,
                    "time": 21.00625000000001,
                    "velocity": 0.33858267716535434,
                    "duration": 0.05833333333333002
                },
                {
                    "name": "G#5",
                    "midi": 80,
                    "time": 21.19583333333334,
                    "velocity": 0.48031496062992124,
                    "duration": 0.11874999999999858
                },
                {
                    "name": "A3",
                    "midi": 57,
                    "time": 21.368750000000002,
                    "velocity": 0.29133858267716534,
                    "duration": 0.08750000000000213
                },
                {
                    "name": "E4",
                    "midi": 64,
                    "time": 21.370833333333337,
                    "velocity": 0.4094488188976378,
                    "duration": 0.05000000000000071
                },
                {
                    "name": "C#5",
                    "midi": 73,
                    "time": 21.381250000000005,
                    "velocity": 0.41732283464566927,
                    "duration": 0.10833333333333428
                },
                {
                    "name": "G#5",
                    "midi": 80,
                    "time": 21.472916666666674,
                    "velocity": 0.47244094488188976,
                    "duration": 0.10833333333333073
                },
                {
                    "name": "C#6",
                    "midi": 85,
                    "time": 21.56458333333334,
                    "velocity": 0.4881889763779528,
                    "duration": 0.17708333333333215
                },
                {
                    "name": "E3",
                    "midi": 52,
                    "time": 21.639583333333338,
                    "velocity": 0.5275590551181102,
                    "duration": 0.0625
                },
                {
                    "name": "E6",
                    "midi": 88,
                    "time": 21.662500000000005,
                    "velocity": 0.4881889763779528,
                    "duration": 0.09791666666666643
                },
                {
                    "name": "D#5",
                    "midi": 75,
                    "time": 21.78333333333334,
                    "velocity": 0.5275590551181102,
                    "duration": 0.1458333333333286
                },
                {
                    "name": "B3",
                    "midi": 59,
                    "time": 21.812500000000004,
                    "velocity": 0.3858267716535433,
                    "duration": 0.06666666666666643
                },
                {
                    "name": "G#4",
                    "midi": 68,
                    "time": 21.827083333333338,
                    "velocity": 0.3464566929133858,
                    "duration": 0.08124999999999716
                },
                {
                    "name": "G#5",
                    "midi": 80,
                    "time": 21.983333333333334,
                    "velocity": 0.5905511811023622,
                    "duration": 0.185416666666665
                },
                {
                    "name": "D#6",
                    "midi": 87,
                    "time": 22.175,
                    "velocity": 0.5275590551181102,
                    "duration": 0.23958333333333215
                },
                {
                    "name": "B4",
                    "midi": 71,
                    "time": 22.20625,
                    "velocity": 0.47244094488188976,
                    "duration": 0.0729166666666643
                },
                {
                    "name": "E4",
                    "midi": 64,
                    "time": 22.227083333333333,
                    "velocity": 0.2047244094488189,
                    "duration": 0.07499999999999929
                },
                {
                    "name": "F#6",
                    "midi": 90,
                    "time": 22.372916666666665,
                    "velocity": 0.5826771653543307,
                    "duration": 0.18333333333333357
                },
                {
                    "name": "G#5",
                    "midi": 80,
                    "time": 22.566666666666666,
                    "velocity": 0.6062992125984252,
                    "duration": 0.14583333333333215
                },
                {
                    "name": "D#5",
                    "midi": 75,
                    "time": 22.570833333333333,
                    "velocity": 0.28346456692913385,
                    "duration": 0.07708333333333073
                },
                {
                    "name": "D#4",
                    "midi": 63,
                    "time": 22.579166666666666,
                    "velocity": 0.2440944881889764,
                    "duration": 0.06041666666666501
                },
                {
                    "name": "G#4",
                    "midi": 68,
                    "time": 22.604166666666664,
                    "velocity": 0.2283464566929134,
                    "duration": 0.0625
                },
                {
                    "name": "D#6",
                    "midi": 87,
                    "time": 22.777083333333334,
                    "velocity": 0.4566929133858268,
                    "duration": 0.17916666666666714
                },
                {
                    "name": "G#6",
                    "midi": 92,
                    "time": 22.98125,
                    "velocity": 0.3700787401574803,
                    "duration": 0.25
                },
                {
                    "name": "B5",
                    "midi": 83,
                    "time": 23.004166666666666,
                    "velocity": 0.41732283464566927,
                    "duration": 0.10624999999999929
                },
                {
                    "name": "B4",
                    "midi": 71,
                    "time": 23.014583333333334,
                    "velocity": 0.23622047244094488,
                    "duration": 0.1374999999999993
                },
                {
                    "name": "E5",
                    "midi": 76,
                    "time": 23.014583333333334,
                    "velocity": 0.2204724409448819,
                    "duration": 0.07083333333333286
                },
                {
                    "name": "B6",
                    "midi": 95,
                    "time": 23.210416666666667,
                    "velocity": 0.4251968503937008,
                    "duration": 0.04999999999999716
                },
                {
                    "name": "E6",
                    "midi": 88,
                    "time": 23.472916666666663,
                    "velocity": 0.4330708661417323,
                    "duration": 0.1958333333333364
                },
                {
                    "name": "G#5",
                    "midi": 80,
                    "time": 23.50208333333333,
                    "velocity": 0.28346456692913385,
                    "duration": 0.10208333333333286
                },
                {
                    "name": "C#5",
                    "midi": 73,
                    "time": 23.51458333333333,
                    "velocity": 0.2047244094488189,
                    "duration": 0.09375
                },
                {
                    "name": "B5",
                    "midi": 83,
                    "time": 23.685416666666665,
                    "velocity": 0.5433070866141733,
                    "duration": 0.04791666666666572
                },
                {
                    "name": "C#6",
                    "midi": 85,
                    "time": 23.866666666666664,
                    "velocity": 0.3700787401574803,
                    "duration": 0.0520833333333357
                },
                {
                    "name": "G#5",
                    "midi": 80,
                    "time": 23.885416666666664,
                    "velocity": 0.3228346456692913,
                    "duration": 0.08750000000000213
                },
                {
                    "name": "E5",
                    "midi": 76,
                    "time": 23.895833333333332,
                    "velocity": 0.25196850393700787,
                    "duration": 0.06041666666666856
                },
                {
                    "name": "B4",
                    "midi": 71,
                    "time": 24.06875,
                    "velocity": 0.4645669291338583,
                    "duration": 0.06458333333333499
                },
                {
                    "name": "C#5",
                    "midi": 73,
                    "time": 24.260416666666668,
                    "velocity": 0.33070866141732286,
                    "duration": 0.15625
                },
                {
                    "name": "A5",
                    "midi": 81,
                    "time": 24.262500000000003,
                    "velocity": 0.4645669291338583,
                    "duration": 0.1666666666666643
                },
                {
                    "name": "F#4",
                    "midi": 66,
                    "time": 24.308333333333337,
                    "velocity": 0.1968503937007874,
                    "duration": 0.1791666666666636
                },
                {
                    "name": "E5",
                    "midi": 76,
                    "time": 24.477083333333333,
                    "velocity": 0.4251968503937008,
                    "duration": 0.04583333333333428
                },
                {
                    "name": "A4",
                    "midi": 69,
                    "time": 24.65416666666667,
                    "velocity": 0.33070866141732286,
                    "duration": 0.06250000000000355
                },
                {
                    "name": "F#5",
                    "midi": 78,
                    "time": 24.677083333333336,
                    "velocity": 0.3543307086614173,
                    "duration": 0.06875000000000142
                },
                {
                    "name": "C#5",
                    "midi": 73,
                    "time": 24.67916666666667,
                    "velocity": 0.14173228346456693,
                    "duration": 0.09583333333333499
                },
                {
                    "name": "E4",
                    "midi": 64,
                    "time": 24.756250000000005,
                    "velocity": 0.4645669291338583,
                    "duration": 0.05625000000000213
                },
                {
                    "name": "A4",
                    "midi": 69,
                    "time": 24.866666666666674,
                    "velocity": 0.1968503937007874,
                    "duration": 0.06875000000000142
                },
                {
                    "name": "E5",
                    "midi": 76,
                    "time": 24.954166666666676,
                    "velocity": 0.31496062992125984,
                    "duration": 0.05624999999999858
                },
                {
                    "name": "G#5",
                    "midi": 80,
                    "time": 25.160416666666674,
                    "velocity": 0.41732283464566927,
                    "duration": 0.19791666666666785
                },
                {
                    "name": "E6",
                    "midi": 88,
                    "time": 25.185416666666672,
                    "velocity": 0.3937007874015748,
                    "duration": 0.2062500000000007
                },
                {
                    "name": "C#5",
                    "midi": 73,
                    "time": 25.191666666666674,
                    "velocity": 0.2283464566929134,
                    "duration": 0.09791666666666643
                },
                {
                    "name": "B5",
                    "midi": 83,
                    "time": 25.379166666666674,
                    "velocity": 0.6850393700787402,
                    "duration": 0.0416666666666643
                },
                {
                    "name": "C#6",
                    "midi": 85,
                    "time": 25.562500000000004,
                    "velocity": 0.44881889763779526,
                    "duration": 0.05624999999999858
                },
                {
                    "name": "E5",
                    "midi": 76,
                    "time": 25.583333333333336,
                    "velocity": 0.33858267716535434,
                    "duration": 0.0625
                },
                {
                    "name": "G#5",
                    "midi": 80,
                    "time": 25.583333333333336,
                    "velocity": 0.3858267716535433,
                    "duration": 0.06458333333333499
                },
                {
                    "name": "B4",
                    "midi": 71,
                    "time": 25.76041666666667,
                    "velocity": 0.5590551181102362,
                    "duration": 0.06041666666666501
                },
                {
                    "name": "A5",
                    "midi": 81,
                    "time": 25.952083333333338,
                    "velocity": 0.5196850393700787,
                    "duration": 0.17291666666666572
                },
                {
                    "name": "C#5",
                    "midi": 73,
                    "time": 25.968750000000004,
                    "velocity": 0.3228346456692913,
                    "duration": 0.16041666666666643
                },
                {
                    "name": "F#4",
                    "midi": 66,
                    "time": 25.99791666666667,
                    "velocity": 0.2047244094488189,
                    "duration": 0.12083333333333357
                },
                {
                    "name": "E5",
                    "midi": 76,
                    "time": 26.158333333333335,
                    "velocity": 0.5196850393700787,
                    "duration": 0.04166666666666785
                },
                {
                    "name": "A4",
                    "midi": 69,
                    "time": 26.352083333333336,
                    "velocity": 0.3543307086614173,
                    "duration": 0.05833333333333357
                },
                {
                    "name": "F#5",
                    "midi": 78,
                    "time": 26.36666666666667,
                    "velocity": 0.31496062992125984,
                    "duration": 0.06875000000000142
                },
                {
                    "name": "C#5",
                    "midi": 73,
                    "time": 26.370833333333337,
                    "velocity": 0.31496062992125984,
                    "duration": 0.0625
                },
                {
                    "name": "E4",
                    "midi": 64,
                    "time": 26.44791666666667,
                    "velocity": 0.47244094488188976,
                    "duration": 0.06041666666666501
                },
                {
                    "name": "A4",
                    "midi": 69,
                    "time": 26.56041666666667,
                    "velocity": 0.2283464566929134,
                    "duration": 0.06875000000000142
                },
                {
                    "name": "E5",
                    "midi": 76,
                    "time": 26.645833333333336,
                    "velocity": 0.4330708661417323,
                    "duration": 0.04374999999999929
                },
                {
                    "name": "E6",
                    "midi": 88,
                    "time": 26.839583333333337,
                    "velocity": 0.5196850393700787,
                    "duration": 0.21875
                },
                {
                    "name": "G#5",
                    "midi": 80,
                    "time": 26.84791666666667,
                    "velocity": 0.3464566929133858,
                    "duration": 0.18333333333333357
                },
                {
                    "name": "C#5",
                    "midi": 73,
                    "time": 26.86041666666667,
                    "velocity": 0.25196850393700787,
                    "duration": 0.11250000000000071
                },
                {
                    "name": "B5",
                    "midi": 83,
                    "time": 27.056250000000002,
                    "velocity": 0.5984251968503937,
                    "duration": 0.04375000000000284
                },
                {
                    "name": "C#6",
                    "midi": 85,
                    "time": 27.245833333333337,
                    "velocity": 0.44881889763779526,
                    "duration": 0.05624999999999858
                },
                {
                    "name": "G#5",
                    "midi": 80,
                    "time": 27.26666666666667,
                    "velocity": 0.36220472440944884,
                    "duration": 0.08125000000000071
                },
                {
                    "name": "E5",
                    "midi": 76,
                    "time": 27.26666666666667,
                    "velocity": 0.3543307086614173,
                    "duration": 0.06666666666666643
                },
                {
                    "name": "B4",
                    "midi": 71,
                    "time": 27.443750000000005,
                    "velocity": 0.5354330708661418,
                    "duration": 0.06666666666666643
                },
                {
                    "name": "C#5",
                    "midi": 73,
                    "time": 27.64166666666667,
                    "velocity": 0.44881889763779526,
                    "duration": 0.15208333333333357
                },
                {
                    "name": "A5",
                    "midi": 81,
                    "time": 27.643750000000004,
                    "velocity": 0.5196850393700787,
                    "duration": 0.1875
                },
                {
                    "name": "F#4",
                    "midi": 66,
                    "time": 27.670833333333338,
                    "velocity": 0.2440944881889764,
                    "duration": 0.17916666666666714
                },
                {
                    "name": "E5",
                    "midi": 76,
                    "time": 27.84791666666667,
                    "velocity": 0.48031496062992124,
                    "duration": 0.04583333333333428
                },
                {
                    "name": "F#5",
                    "midi": 78,
                    "time": 28.02291666666667,
                    "velocity": 0.4251968503937008,
                    "duration": 0.05000000000000426
                },
                {
                    "name": "A4",
                    "midi": 69,
                    "time": 28.03333333333334,
                    "velocity": 0.36220472440944884,
                    "duration": 0.20625000000000426
                },
                {
                    "name": "C#5",
                    "midi": 73,
                    "time": 28.03958333333334,
                    "velocity": 0.33070866141732286,
                    "duration": 0.06041666666666856
                },
                {
                    "name": "E4",
                    "midi": 64,
                    "time": 28.22500000000001,
                    "velocity": 0.4015748031496063,
                    "duration": 0.04791666666666927
                },
                {
                    "name": "D#4",
                    "midi": 63,
                    "time": 28.42500000000001,
                    "velocity": 0.3858267716535433,
                    "duration": 0.1333333333333364
                },
                {
                    "name": "F#4",
                    "midi": 66,
                    "time": 28.427083333333346,
                    "velocity": 0.4330708661417323,
                    "duration": 0.15416666666666856
                },
                {
                    "name": "A3",
                    "midi": 57,
                    "time": 28.427083333333346,
                    "velocity": 0.3464566929133858,
                    "duration": 0.19166666666666998
                },
                {
                    "name": "G#4",
                    "midi": 68,
                    "time": 28.59583333333335,
                    "velocity": 0.48031496062992124,
                    "duration": 0.14583333333333215
                },
                {
                    "name": "A4",
                    "midi": 69,
                    "time": 28.808333333333348,
                    "velocity": 0.4409448818897638,
                    "duration": 0.537500000000005
                },
                {
                    "name": "C#5",
                    "midi": 73,
                    "time": 28.808333333333348,
                    "velocity": 0.4330708661417323,
                    "duration": 0.1875
                },
                {
                    "name": "D#4",
                    "midi": 63,
                    "time": 28.818750000000016,
                    "velocity": 0.4645669291338583,
                    "duration": 0.6041666666666714
                },
                {
                    "name": "F#5",
                    "midi": 78,
                    "time": 29.010416666666682,
                    "velocity": 0.4645669291338583,
                    "duration": 0.283333333333335
                },
                {
                    "name": "G#4",
                    "midi": 68,
                    "time": 29.204166666666683,
                    "velocity": 0.3937007874015748,
                    "duration": 0.09166666666666856
                },
                {
                    "name": "C#5",
                    "midi": 73,
                    "time": 29.408333333333353,
                    "velocity": 0.44881889763779526,
                    "duration": 0.05833333333333357
                },
                {
                    "name": "F#5",
                    "midi": 78,
                    "time": 29.64375000000002,
                    "velocity": 0.3543307086614173,
                    "duration": 0.23541666666666927
                },
                {
                    "name": "D#5",
                    "midi": 75,
                    "time": 29.64375000000002,
                    "velocity": 0.2755905511811024,
                    "duration": 0.10416666666666785
                },
                {
                    "name": "D#4",
                    "midi": 63,
                    "time": 29.65000000000002,
                    "velocity": 0.14173228346456693,
                    "duration": 0.21041666666666714
                },
                {
                    "name": "F#4",
                    "midi": 66,
                    "time": 29.677083333333353,
                    "velocity": 0.2440944881889764,
                    "duration": 0.14791666666666714
                },
                {
                    "name": "C#6",
                    "midi": 85,
                    "time": 29.881250000000023,
                    "velocity": 0.2755905511811024,
                    "duration": 0.22291666666666643
                },
                {
                    "name": "G#3",
                    "midi": 56,
                    "time": 30.118750000000023,
                    "velocity": 0.2992125984251969,
                    "duration": 0.14166666666667282
                },
                {
                    "name": "C#3",
                    "midi": 49,
                    "time": 30.12083333333336,
                    "velocity": 0.30708661417322836,
                    "duration": 0.14375000000000426
                },
                {
                    "name": "C#5",
                    "midi": 73,
                    "time": 30.325000000000028,
                    "velocity": 0.31496062992125984,
                    "duration": 0.05625000000000213
                },
                {
                    "name": "G#5",
                    "midi": 80,
                    "time": 30.339583333333362,
                    "velocity": 0.3779527559055118,
                    "duration": 0.04791666666666927
                },
                {
                    "name": "G#6",
                    "midi": 92,
                    "time": 30.545833333333366,
                    "velocity": 0.4094488188976378,
                    "duration": 0.0520833333333357
                },
                {
                    "name": "C#6",
                    "midi": 85,
                    "time": 30.5479166666667,
                    "velocity": 0.3937007874015748,
                    "duration": 0.05000000000000071
                },
                {
                    "name": "G#4",
                    "midi": 68,
                    "time": 30.556250000000034,
                    "velocity": 0.30708661417322836,
                    "duration": 0.09166666666666501
                },
                {
                    "name": "C#4",
                    "midi": 61,
                    "time": 30.5604166666667,
                    "velocity": 0.3228346456692913,
                    "duration": 0.0625
                },
                {
                    "name": "G#5",
                    "midi": 80,
                    "time": 30.7541666666667,
                    "velocity": 0.4409448818897638,
                    "duration": 0.04791666666666927
                },
                {
                    "name": "C#5",
                    "midi": 73,
                    "time": 30.756250000000033,
                    "velocity": 0.3700787401574803,
                    "duration": 0.05416666666666714
                },
                {
                    "name": "G#4",
                    "midi": 68,
                    "time": 30.958333333333368,
                    "velocity": 0.3543307086614173,
                    "duration": 0.17291666666667282
                },
                {
                    "name": "C#4",
                    "midi": 61,
                    "time": 30.968750000000036,
                    "velocity": 0.2992125984251969,
                    "duration": 0.11041666666666927
                },
                {
                    "name": "C#6",
                    "midi": 85,
                    "time": 31.04583333333337,
                    "velocity": 0.3937007874015748,
                    "duration": 0.06458333333333499
                },
                {
                    "name": "G#6",
                    "midi": 92,
                    "time": 31.129166666666706,
                    "velocity": 0.4251968503937008,
                    "duration": 0.05625000000000213
                },
                {
                    "name": "C#7",
                    "midi": 97,
                    "time": 31.24375000000004,
                    "velocity": 0.2755905511811024,
                    "duration": 0.05208333333333215
                },
                {
                    "name": "G#5",
                    "midi": 80,
                    "time": 31.327083333333373,
                    "velocity": 0.44881889763779526,
                    "duration": 0.1687500000000064
                },
                {
                    "name": "G#7",
                    "midi": 104,
                    "time": 31.333333333333375,
                    "velocity": 0.30708661417322836,
                    "duration": 0.06458333333333499
                },
                {
                    "name": "C#5",
                    "midi": 73,
                    "time": 31.343750000000043,
                    "velocity": 0.2677165354330709,
                    "duration": 0.3395833333333371
                },
                {
                    "name": "C#7",
                    "midi": 97,
                    "time": 31.431250000000045,
                    "velocity": 0.25984251968503935,
                    "duration": 0.13125000000000142
                },
                {
                    "name": "G#6",
                    "midi": 92,
                    "time": 31.516666666666712,
                    "velocity": 0.3543307086614173,
                    "duration": 0.08750000000000213
                },
                {
                    "name": "C#6",
                    "midi": 85,
                    "time": 31.597916666666713,
                    "velocity": 0.5039370078740157,
                    "duration": 0.04583333333333428
                },
                {
                    "name": "D5",
                    "midi": 74,
                    "time": 31.737500000000047,
                    "velocity": 0.49606299212598426,
                    "duration": 0.23125000000000284
                },
                {
                    "name": "A4",
                    "midi": 69,
                    "time": 31.74375000000005,
                    "velocity": 0.31496062992125984,
                    "duration": 0.5062500000000085
                },
                {
                    "name": "F#5",
                    "midi": 78,
                    "time": 31.90000000000005,
                    "velocity": 0.4881889763779528,
                    "duration": 0.08750000000000213
                },
                {
                    "name": "G#5",
                    "midi": 80,
                    "time": 32.01875000000005,
                    "velocity": 0.5748031496062992,
                    "duration": 0.05833333333333002
                },
                {
                    "name": "A5",
                    "midi": 81,
                    "time": 32.14375000000005,
                    "velocity": 0.4251968503937008,
                    "duration": 0.15416666666666856
                },
                {
                    "name": "D5",
                    "midi": 74,
                    "time": 32.14791666666672,
                    "velocity": 0.4251968503937008,
                    "duration": 0.125
                },
                {
                    "name": "C#6",
                    "midi": 85,
                    "time": 32.15208333333339,
                    "velocity": 0.5118110236220472,
                    "duration": 0.11874999999999858
                },
                {
                    "name": "F#6",
                    "midi": 90,
                    "time": 32.26041666666672,
                    "velocity": 0.5433070866141733,
                    "duration": 0.10208333333332575
                },
                {
                    "name": "C#6",
                    "midi": 85,
                    "time": 32.36875000000005,
                    "velocity": 0.36220472440944884,
                    "duration": 0.08541666666666714
                },
                {
                    "name": "A5",
                    "midi": 81,
                    "time": 32.489583333333385,
                    "velocity": 0.5118110236220472,
                    "duration": 0.13333333333333286
                },
                {
                    "name": "D5",
                    "midi": 74,
                    "time": 32.50416666666672,
                    "velocity": 0.3700787401574803,
                    "duration": 0.5145833333333414
                },
                {
                    "name": "G#5",
                    "midi": 80,
                    "time": 32.50416666666672,
                    "velocity": 0.6220472440944882,
                    "duration": 0.07083333333333286
                },
                {
                    "name": "C#6",
                    "midi": 85,
                    "time": 32.60208333333338,
                    "velocity": 0.5433070866141733,
                    "duration": 0.05000000000000426
                },
                {
                    "name": "G#5",
                    "midi": 80,
                    "time": 32.681250000000055,
                    "velocity": 0.47244094488188976,
                    "duration": 0.04999999999999716
                },
                {
                    "name": "C#6",
                    "midi": 85,
                    "time": 32.75416666666672,
                    "velocity": 0.5118110236220472,
                    "duration": 0.03541666666666998
                },
                {
                    "name": "F#5",
                    "midi": 78,
                    "time": 32.86041666666672,
                    "velocity": 0.4409448818897638,
                    "duration": 0.17291666666667282
                },
                {
                    "name": "D6",
                    "midi": 86,
                    "time": 32.868750000000055,
                    "velocity": 0.33070866141732286,
                    "duration": 0.07083333333333286
                },
                {
                    "name": "F#6",
                    "midi": 90,
                    "time": 32.89166666666672,
                    "velocity": 0.5196850393700787,
                    "duration": 0.0520833333333357
                },
                {
                    "name": "C#7",
                    "midi": 97,
                    "time": 32.966666666666725,
                    "velocity": 0.49606299212598426,
                    "duration": 0.04375000000000284
                },
                {
                    "name": "F#6",
                    "midi": 90,
                    "time": 33.08333333333339,
                    "velocity": 0.31496062992125984,
                    "duration": 0.08124999999999716
                },
                {
                    "name": "C#7",
                    "midi": 97,
                    "time": 33.13750000000006,
                    "velocity": 0.4330708661417323,
                    "duration": 0.03958333333333286
                },
                {
                    "name": "G#4",
                    "midi": 68,
                    "time": 33.33125000000006,
                    "velocity": 0.3543307086614173,
                    "duration": 0.24583333333333002
                },
                {
                    "name": "C#4",
                    "midi": 61,
                    "time": 33.34791666666673,
                    "velocity": 0.33070866141732286,
                    "duration": 0.20624999999999716
                },
                {
                    "name": "C#5",
                    "midi": 73,
                    "time": 33.50416666666673,
                    "velocity": 0.4015748031496063,
                    "duration": 0.04999999999999716
                },
                {
                    "name": "G#5",
                    "midi": 80,
                    "time": 33.50625000000006,
                    "velocity": 0.5039370078740157,
                    "duration": 0.06041666666666856
                },
                {
                    "name": "C#5",
                    "midi": 73,
                    "time": 33.72083333333339,
                    "velocity": 0.3937007874015748,
                    "duration": 0.07708333333334139
                },
                {
                    "name": "G#6",
                    "midi": 92,
                    "time": 33.72083333333339,
                    "velocity": 0.6062992125984252,
                    "duration": 0.041666666666671404
                },
                {
                    "name": "G#4",
                    "midi": 68,
                    "time": 33.741666666666724,
                    "velocity": 0.3700787401574803,
                    "duration": 0.08125000000000426
                },
                {
                    "name": "C#5",
                    "midi": 73,
                    "time": 33.94791666666673,
                    "velocity": 0.4094488188976378,
                    "duration": 0.04999999999999716
                },
                {
                    "name": "G#5",
                    "midi": 80,
                    "time": 33.94791666666673,
                    "velocity": 0.4330708661417323,
                    "duration": 0.04791666666666572
                },
                {
                    "name": "G#5",
                    "midi": 80,
                    "time": 34.10208333333339,
                    "velocity": 0.5433070866141733,
                    "duration": 0.1979166666666714
                },
                {
                    "name": "C#5",
                    "midi": 73,
                    "time": 34.118750000000055,
                    "velocity": 0.2755905511811024,
                    "duration": 0.125
                },
                {
                    "name": "D5",
                    "midi": 74,
                    "time": 34.19375000000006,
                    "velocity": 0.5905511811023622,
                    "duration": 0.06458333333333144
                },
                {
                    "name": "A5",
                    "midi": 81,
                    "time": 34.29375000000006,
                    "velocity": 0.5511811023622047,
                    "duration": 0.05416666666666714
                },
                {
                    "name": "D6",
                    "midi": 86,
                    "time": 34.36875000000006,
                    "velocity": 0.6220472440944882,
                    "duration": 0.0520833333333357
                },
                {
                    "name": "F#5",
                    "midi": 78,
                    "time": 34.46250000000006,
                    "velocity": 0.5433070866141733,
                    "duration": 0.12916666666665577
                },
                {
                    "name": "A6",
                    "midi": 93,
                    "time": 34.46250000000006,
                    "velocity": 0.5433070866141733,
                    "duration": 0.04999999999999716
                },
                {
                    "name": "B4",
                    "midi": 71,
                    "time": 34.49375000000006,
                    "velocity": 0.3858267716535433,
                    "duration": 0.12291666666665435
                },
                {
                    "name": "D6",
                    "midi": 86,
                    "time": 34.56250000000006,
                    "velocity": 0.5748031496062992,
                    "duration": 0.12916666666666288
                },
                {
                    "name": "E6",
                    "midi": 88,
                    "time": 34.57291666666672,
                    "velocity": 0.25196850393700787,
                    "duration": 0.06666666666666288
                },
                {
                    "name": "A5",
                    "midi": 81,
                    "time": 34.65416666666672,
                    "velocity": 0.6220472440944882,
                    "duration": 0.12708333333333144
                },
                {
                    "name": "D5",
                    "midi": 74,
                    "time": 34.76250000000005,
                    "velocity": 0.30708661417322836,
                    "duration": 0.0625
                },
                {
                    "name": "E5",
                    "midi": 76,
                    "time": 34.770833333333385,
                    "velocity": 0.23622047244094488,
                    "duration": 0.06458333333333144
                },
                {
                    "name": "G#4",
                    "midi": 68,
                    "time": 34.84166666666672,
                    "velocity": 0.6062992125984252,
                    "duration": 0.17916666666667425
                },
                {
                    "name": "C#4",
                    "midi": 61,
                    "time": 34.86666666666672,
                    "velocity": 0.41732283464566927,
                    "duration": 0.2562500000000085
                },
                {
                    "name": "G#5",
                    "midi": 80,
                    "time": 35.01250000000005,
                    "velocity": 0.4881889763779528,
                    "duration": 0.045833333333341386
                },
                {
                    "name": "C#6",
                    "midi": 85,
                    "time": 35.01666666666672,
                    "velocity": 0.5511811023622047,
                    "duration": 0.039583333333339965
                },
                {
                    "name": "C#7",
                    "midi": 97,
                    "time": 35.20416666666672,
                    "velocity": 0.6614173228346457,
                    "duration": 0.03541666666666288
                },
                {
                    "name": "C#5",
                    "midi": 73,
                    "time": 35.21458333333339,
                    "velocity": 0.48031496062992124,
                    "duration": 0.06666666666666998
                },
                {
                    "name": "G#6",
                    "midi": 92,
                    "time": 35.22083333333339,
                    "velocity": 0.4409448818897638,
                    "duration": 0.04791666666666572
                },
                {
                    "name": "G#4",
                    "midi": 68,
                    "time": 35.22083333333339,
                    "velocity": 0.47244094488188976,
                    "duration": 0.04791666666666572
                },
                {
                    "name": "C#6",
                    "midi": 85,
                    "time": 35.40833333333339,
                    "velocity": 0.5748031496062992,
                    "duration": 0.04791666666666572
                },
                {
                    "name": "G#5",
                    "midi": 80,
                    "time": 35.41458333333339,
                    "velocity": 0.5039370078740157,
                    "duration": 0.04374999999999574
                },
                {
                    "name": "C#6",
                    "midi": 85,
                    "time": 35.58541666666672,
                    "velocity": 0.7165354330708661,
                    "duration": 0.17916666666666714
                },
                {
                    "name": "G#5",
                    "midi": 80,
                    "time": 35.59166666666672,
                    "velocity": 0.5275590551181102,
                    "duration": 0.17291666666666572
                },
                {
                    "name": "A5",
                    "midi": 81,
                    "time": 35.677083333333385,
                    "velocity": 0.6141732283464567,
                    "duration": 0.11041666666666572
                },
                {
                    "name": "D6",
                    "midi": 86,
                    "time": 35.770833333333385,
                    "velocity": 0.5905511811023622,
                    "duration": 0.0625
                },
                {
                    "name": "A6",
                    "midi": 93,
                    "time": 35.84375000000005,
                    "velocity": 0.6929133858267716,
                    "duration": 0.09166666666666856
                },
                {
                    "name": "D7",
                    "midi": 98,
                    "time": 35.922916666666715,
                    "velocity": 0.7952755905511811,
                    "duration": 0.10208333333333286
                },
                {
                    "name": "B5",
                    "midi": 83,
                    "time": 35.94375000000005,
                    "velocity": 0.7637795275590551,
                    "duration": 0.12083333333333002
                },
                {
                    "name": "F#5",
                    "midi": 78,
                    "time": 35.94583333333338,
                    "velocity": 0.5196850393700787,
                    "duration": 0.16874999999999574
                },
                {
                    "name": "A6",
                    "midi": 93,
                    "time": 36.00625000000005,
                    "velocity": 0.7165354330708661,
                    "duration": 0.12708333333332433
                },
                {
                    "name": "D6",
                    "midi": 86,
                    "time": 36.11250000000005,
                    "velocity": 0.7165354330708661,
                    "duration": 0.10000000000000142
                },
                {
                    "name": "F#6",
                    "midi": 90,
                    "time": 36.15416666666671,
                    "velocity": 0.11023622047244094,
                    "duration": 0.05416666666666714
                },
                {
                    "name": "A5",
                    "midi": 81,
                    "time": 36.18541666666671,
                    "velocity": 0.6771653543307087,
                    "duration": 0.041666666666671404
                },
                {
                    "name": "G#5",
                    "midi": 80,
                    "time": 36.28125000000005,
                    "velocity": 0.7007874015748031,
                    "duration": 0.20208333333332718
                },
                {
                    "name": "C#5",
                    "midi": 73,
                    "time": 36.30625000000005,
                    "velocity": 0.5196850393700787,
                    "duration": 0.22291666666666288
                },
                {
                    "name": "G#6",
                    "midi": 92,
                    "time": 36.475000000000044,
                    "velocity": 0.5826771653543307,
                    "duration": 0.03958333333333286
                },
                {
                    "name": "C#6",
                    "midi": 85,
                    "time": 36.475000000000044,
                    "velocity": 0.5118110236220472,
                    "duration": 0.0416666666666643
                },
                {
                    "name": "G#7",
                    "midi": 104,
                    "time": 36.664583333333375,
                    "velocity": 0.6535433070866141,
                    "duration": 0.039583333333325754
                },
                {
                    "name": "C#6",
                    "midi": 85,
                    "time": 36.67500000000004,
                    "velocity": 0.6220472440944882,
                    "duration": 0.04791666666666572
                },
                {
                    "name": "G#5",
                    "midi": 80,
                    "time": 36.67708333333337,
                    "velocity": 0.5984251968503937,
                    "duration": 0.03958333333333286
                },
                {
                    "name": "G#6",
                    "midi": 92,
                    "time": 36.85833333333337,
                    "velocity": 0.5511811023622047,
                    "duration": 0.04999999999999716
                },
                {
                    "name": "C#6",
                    "midi": 85,
                    "time": 36.8604166666667,
                    "velocity": 0.5748031496062992,
                    "duration": 0.0416666666666643
                },
                {
                    "name": "G#6",
                    "midi": 92,
                    "time": 37.03750000000004,
                    "velocity": 0.8188976377952756,
                    "duration": 0.1458333333333286
                },
                {
                    "name": "C#6",
                    "midi": 85,
                    "time": 37.04583333333337,
                    "velocity": 0.7165354330708661,
                    "duration": 0.0416666666666643
                },
                {
                    "name": "D6",
                    "midi": 86,
                    "time": 37.1291666666667,
                    "velocity": 0.6456692913385826,
                    "duration": 0.125
                },
                {
                    "name": "A6",
                    "midi": 93,
                    "time": 37.2354166666667,
                    "velocity": 0.5590551181102362,
                    "duration": 0.06666666666666288
                },
                {
                    "name": "D7",
                    "midi": 98,
                    "time": 37.308333333333366,
                    "velocity": 0.7165354330708661,
                    "duration": 0.04999999999999716
                },
                {
                    "name": "A7",
                    "midi": 105,
                    "time": 37.4041666666667,
                    "velocity": 0.6929133858267716,
                    "duration": 0.04375000000000284
                },
                {
                    "name": "F#6",
                    "midi": 90,
                    "time": 37.41250000000003,
                    "velocity": 0.6771653543307087,
                    "duration": 0.08541666666666714
                },
                {
                    "name": "B5",
                    "midi": 83,
                    "time": 37.433333333333366,
                    "velocity": 0.7086614173228346,
                    "duration": 0.04583333333333428
                },
                {
                    "name": "D7",
                    "midi": 98,
                    "time": 37.495833333333366,
                    "velocity": 0.7401574803149606,
                    "duration": 0.11874999999999858
                },
                {
                    "name": "E7",
                    "midi": 100,
                    "time": 37.495833333333366,
                    "velocity": 0.33858267716535434,
                    "duration": 0.04583333333333428
                },
                {
                    "name": "A6",
                    "midi": 93,
                    "time": 37.57500000000003,
                    "velocity": 0.6614173228346457,
                    "duration": 0.1041666666666643
                },
                {
                    "name": "D6",
                    "midi": 86,
                    "time": 37.66875000000003,
                    "velocity": 0.3228346456692913,
                    "duration": 0.07083333333333286
                },
                {
                    "name": "C#6",
                    "midi": 85,
                    "time": 37.75625000000003,
                    "velocity": 0.7322834645669292,
                    "duration": 0.1145833333333357
                },
                {
                    "name": "G#5",
                    "midi": 80,
                    "time": 37.76875000000003,
                    "velocity": 0.5669291338582677,
                    "duration": 0.0520833333333357
                },
                {
                    "name": "A5",
                    "midi": 81,
                    "time": 37.8479166666667,
                    "velocity": 0.6377952755905512,
                    "duration": 0.06875000000000142
                },
                {
                    "name": "D6",
                    "midi": 86,
                    "time": 37.9416666666667,
                    "velocity": 0.6141732283464567,
                    "duration": 0.05833333333333002
                },
                {
                    "name": "A6",
                    "midi": 93,
                    "time": 38.02500000000003,
                    "velocity": 0.6377952755905512,
                    "duration": 0.06041666666666856
                },
                {
                    "name": "D7",
                    "midi": 98,
                    "time": 38.114583333333364,
                    "velocity": 0.6377952755905512,
                    "duration": 0.04583333333333428
                },
                {
                    "name": "B5",
                    "midi": 83,
                    "time": 38.118750000000034,
                    "velocity": 0.8110236220472441,
                    "duration": 0.05833333333333002
                },
                {
                    "name": "F#5",
                    "midi": 78,
                    "time": 38.1354166666667,
                    "velocity": 0.5118110236220472,
                    "duration": 0.06666666666666288
                },
                {
                    "name": "A6",
                    "midi": 93,
                    "time": 38.179166666666696,
                    "velocity": 0.4881889763779528,
                    "duration": 0.1145833333333357
                },
                {
                    "name": "D6",
                    "midi": 86,
                    "time": 38.28125000000003,
                    "velocity": 0.5275590551181102,
                    "duration": 0.08125000000000426
                },
                {
                    "name": "F#6",
                    "midi": 90,
                    "time": 38.28125000000003,
                    "velocity": 0.23622047244094488,
                    "duration": 0.0729166666666714
                },
                {
                    "name": "A5",
                    "midi": 81,
                    "time": 38.36250000000003,
                    "velocity": 0.5039370078740157,
                    "duration": 0.04375000000000284
                },
                {
                    "name": "G#5",
                    "midi": 80,
                    "time": 38.4854166666667,
                    "velocity": 0.7244094488188977,
                    "duration": 0.11249999999999716
                },
                {
                    "name": "C#5",
                    "midi": 73,
                    "time": 38.4916666666667,
                    "velocity": 0.5669291338582677,
                    "duration": 0.05416666666666714
                },
                {
                    "name": "D5",
                    "midi": 74,
                    "time": 38.57083333333337,
                    "velocity": 0.5905511811023622,
                    "duration": 0.05624999999999858
                },
                {
                    "name": "A5",
                    "midi": 81,
                    "time": 38.6666666666667,
                    "velocity": 0.5905511811023622,
                    "duration": 0.04999999999999716
                },
                {
                    "name": "D6",
                    "midi": 86,
                    "time": 38.75625000000003,
                    "velocity": 0.6299212598425197,
                    "duration": 0.0520833333333357
                },
                {
                    "name": "F#5",
                    "midi": 78,
                    "time": 38.8416666666667,
                    "velocity": 0.5748031496062992,
                    "duration": 0.07708333333333428
                },
                {
                    "name": "A6",
                    "midi": 93,
                    "time": 38.8416666666667,
                    "velocity": 0.6850393700787402,
                    "duration": 0.0520833333333357
                },
                {
                    "name": "B4",
                    "midi": 71,
                    "time": 38.85625000000003,
                    "velocity": 0.48031496062992124,
                    "duration": 0.05416666666666714
                },
                {
                    "name": "D6",
                    "midi": 86,
                    "time": 38.931250000000034,
                    "velocity": 0.5590551181102362,
                    "duration": 0.12291666666666856
                },
                {
                    "name": "A5",
                    "midi": 81,
                    "time": 39.025000000000034,
                    "velocity": 0.5984251968503937,
                    "duration": 0.04583333333333428
                },
                {
                    "name": "D5",
                    "midi": 74,
                    "time": 39.1291666666667,
                    "velocity": 0.29133858267716534,
                    "duration": 0.0625
                },
                {
                    "name": "C#5",
                    "midi": 73,
                    "time": 39.20208333333336,
                    "velocity": 0.6141732283464567,
                    "duration": 0.1875000000000071
                },
                {
                    "name": "G#4",
                    "midi": 68,
                    "time": 39.208333333333364,
                    "velocity": 0.5354330708661418,
                    "duration": 0.11666666666666714
                },
                {
                    "name": "A4",
                    "midi": 69,
                    "time": 39.30000000000003,
                    "velocity": 0.4330708661417323,
                    "duration": 0.04791666666666572
                },
                {
                    "name": "D5",
                    "midi": 74,
                    "time": 39.3854166666667,
                    "velocity": 0.6220472440944882,
                    "duration": 0.047916666666672825
                },
                {
                    "name": "A5",
                    "midi": 81,
                    "time": 39.48541666666671,
                    "velocity": 0.5433070866141733,
                    "duration": 0.0625
                },
                {
                    "name": "D6",
                    "midi": 86,
                    "time": 39.570833333333375,
                    "velocity": 0.6692913385826772,
                    "duration": 0.0833333333333286
                },
                {
                    "name": "B4",
                    "midi": 71,
                    "time": 39.57291666666671,
                    "velocity": 0.6220472440944882,
                    "duration": 0.04791666666666572
                },
                {
                    "name": "F#4",
                    "midi": 66,
                    "time": 39.595833333333374,
                    "velocity": 0.2992125984251969,
                    "duration": 0.052083333333328596
                },
                {
                    "name": "A5",
                    "midi": 81,
                    "time": 39.67083333333337,
                    "velocity": 0.5590551181102362,
                    "duration": 0.12916666666666288
                },
                {
                    "name": "D5",
                    "midi": 74,
                    "time": 39.7916666666667,
                    "velocity": 0.5354330708661418,
                    "duration": 0.14374999999999716
                },
                {
                    "name": "A4",
                    "midi": 69,
                    "time": 39.88125000000003,
                    "velocity": 0.41732283464566927,
                    "duration": 0.08958333333333712
                },
                {
                    "name": "G#2",
                    "midi": 44,
                    "time": 40.04583333333337,
                    "velocity": 0.7244094488188977,
                    "duration": 0.19375000000000853
                },
                {
                    "name": "C#2",
                    "midi": 37,
                    "time": 40.05000000000004,
                    "velocity": 0.7244094488188977,
                    "duration": 0.19375000000000853
                },
                {
                    "name": "G#4",
                    "midi": 68,
                    "time": 40.21875000000004,
                    "velocity": 0.4881889763779528,
                    "duration": 0.0833333333333357
                },
                {
                    "name": "C#5",
                    "midi": 73,
                    "time": 40.23958333333338,
                    "velocity": 0.33070866141732286,
                    "duration": 0.10833333333333428
                },
                {
                    "name": "G#5",
                    "midi": 80,
                    "time": 40.356250000000045,
                    "velocity": 0.5275590551181102,
                    "duration": 0.16041666666666998
                },
                {
                    "name": "B4",
                    "midi": 71,
                    "time": 40.49583333333338,
                    "velocity": 0.8110236220472441,
                    "duration": 0.07500000000000284
                },
                {
                    "name": "G#4",
                    "midi": 68,
                    "time": 40.62916666666671,
                    "velocity": 0.48031496062992124,
                    "duration": 0.08958333333333002
                },
                {
                    "name": "C#5",
                    "midi": 73,
                    "time": 40.65416666666671,
                    "velocity": 0.31496062992125984,
                    "duration": 0.11666666666666714
                },
                {
                    "name": "G#5",
                    "midi": 80,
                    "time": 40.77500000000005,
                    "velocity": 0.5039370078740157,
                    "duration": 0.16458333333333286
                },
                {
                    "name": "G#4",
                    "midi": 68,
                    "time": 40.88125000000005,
                    "velocity": 0.7637795275590551,
                    "duration": 0.07083333333333286
                },
                {
                    "name": "C#5",
                    "midi": 73,
                    "time": 41.02916666666672,
                    "velocity": 0.3779527559055118,
                    "duration": 0.12916666666666288
                },
                {
                    "name": "G#4",
                    "midi": 68,
                    "time": 41.03125000000005,
                    "velocity": 0.3858267716535433,
                    "duration": 0.07083333333333286
                },
                {
                    "name": "G#5",
                    "midi": 80,
                    "time": 41.14375000000005,
                    "velocity": 0.5354330708661418,
                    "duration": 0.14374999999999716
                },
                {
                    "name": "F#4",
                    "midi": 66,
                    "time": 41.26875000000005,
                    "velocity": 0.7086614173228346,
                    "duration": 0.03958333333333286
                },
                {
                    "name": "G#4",
                    "midi": 68,
                    "time": 41.40416666666671,
                    "velocity": 0.36220472440944884,
                    "duration": 0.07083333333333286
                },
                {
                    "name": "C#5",
                    "midi": 73,
                    "time": 41.42083333333338,
                    "velocity": 0.3700787401574803,
                    "duration": 0.15208333333333712
                },
                {
                    "name": "G#5",
                    "midi": 80,
                    "time": 41.537500000000044,
                    "velocity": 0.49606299212598426,
                    "duration": 0.15833333333333854
                },
                {
                    "name": "G#4",
                    "midi": 68,
                    "time": 41.64791666666672,
                    "velocity": 0.7480314960629921,
                    "duration": 0.0520833333333357
                },
                {
                    "name": "G#4",
                    "midi": 68,
                    "time": 41.77291666666672,
                    "velocity": 0.4409448818897638,
                    "duration": 0.0833333333333286
                },
                {
                    "name": "C#5",
                    "midi": 73,
                    "time": 41.791666666666714,
                    "velocity": 0.4015748031496063,
                    "duration": 0.16041666666666288
                },
                {
                    "name": "G#5",
                    "midi": 80,
                    "time": 41.91041666666671,
                    "velocity": 0.48031496062992124,
                    "duration": 0.12708333333333144
                },
                {
                    "name": "B4",
                    "midi": 71,
                    "time": 42.02291666666671,
                    "velocity": 0.8188976377952756,
                    "duration": 0.0833333333333357
                },
                {
                    "name": "G#4",
                    "midi": 68,
                    "time": 42.162500000000044,
                    "velocity": 0.4015748031496063,
                    "duration": 0.05624999999999858
                },
                {
                    "name": "C#5",
                    "midi": 73,
                    "time": 42.17083333333338,
                    "velocity": 0.3700787401574803,
                    "duration": 0.15416666666666856
                },
                {
                    "name": "G#5",
                    "midi": 80,
                    "time": 42.28125000000004,
                    "velocity": 0.48031496062992124,
                    "duration": 0.13958333333333428
                },
                {
                    "name": "G#4",
                    "midi": 68,
                    "time": 42.39375000000005,
                    "velocity": 0.7244094488188977,
                    "duration": 0.08749999999999858
                },
                {
                    "name": "G#4",
                    "midi": 68,
                    "time": 42.539583333333375,
                    "velocity": 0.11811023622047244,
                    "duration": 0.0833333333333357
                },
                {
                    "name": "C#5",
                    "midi": 73,
                    "time": 42.539583333333375,
                    "velocity": 0.3937007874015748,
                    "duration": 0.12083333333333712
                },
                {
                    "name": "G#5",
                    "midi": 80,
                    "time": 42.64583333333338,
                    "velocity": 0.4645669291338583,
                    "duration": 0.16458333333333286
                },
                {
                    "name": "F#4",
                    "midi": 66,
                    "time": 42.760416666666714,
                    "velocity": 0.6535433070866141,
                    "duration": 0.03958333333333286
                },
                {
                    "name": "G#4",
                    "midi": 68,
                    "time": 42.87708333333338,
                    "velocity": 0.3543307086614173,
                    "duration": 0.07916666666666572
                },
                {
                    "name": "C#5",
                    "midi": 73,
                    "time": 42.887500000000045,
                    "velocity": 0.33070866141732286,
                    "duration": 0.10625000000000284
                },
                {
                    "name": "G#5",
                    "midi": 80,
                    "time": 42.99166666666672,
                    "velocity": 0.48031496062992124,
                    "duration": 0.04583333333333428
                },
                {
                    "name": "C#4",
                    "midi": 61,
                    "time": 43.15625000000005,
                    "velocity": 0.6535433070866141,
                    "duration": 0.05624999999999858
                },
                {
                    "name": "C#4",
                    "midi": 61,
                    "time": 43.262500000000045,
                    "velocity": 0.23622047244094488,
                    "duration": 0.05833333333333002
                },
                {
                    "name": "G#4",
                    "midi": 68,
                    "time": 43.36250000000004,
                    "velocity": 0.3464566929133858,
                    "duration": 0.0729166666666643
                },
                {
                    "name": "C#5",
                    "midi": 73,
                    "time": 43.46458333333337,
                    "velocity": 0.3779527559055118,
                    "duration": 0.06458333333333144
                },
                {
                    "name": "B3",
                    "midi": 59,
                    "time": 43.57291666666671,
                    "velocity": 0.5905511811023622,
                    "duration": 0.2749999999999986
                },
                {
                    "name": "E4",
                    "midi": 64,
                    "time": 43.57500000000004,
                    "velocity": 0.49606299212598426,
                    "duration": 0.0729166666666643
                },
                {
                    "name": "G#5",
                    "midi": 80,
                    "time": 43.5854166666667,
                    "velocity": 0.5826771653543307,
                    "duration": 0.04999999999999716
                },
                {
                    "name": "C#5",
                    "midi": 73,
                    "time": 43.685416666666704,
                    "velocity": 0.3700787401574803,
                    "duration": 0.11666666666666714
                },
                {
                    "name": "G#4",
                    "midi": 68,
                    "time": 43.76875000000004,
                    "velocity": 0.3543307086614173,
                    "duration": 0.1354166666666643
                },
                {
                    "name": "C#4",
                    "midi": 61,
                    "time": 43.845833333333374,
                    "velocity": 0.5275590551181102,
                    "duration": 0.08124999999999716
                },
                {
                    "name": "G#3",
                    "midi": 56,
                    "time": 43.94375000000004,
                    "velocity": 0.5511811023622047,
                    "duration": 0.21458333333333002
                },
                {
                    "name": "E4",
                    "midi": 64,
                    "time": 43.95000000000004,
                    "velocity": 0.5196850393700787,
                    "duration": 0.12916666666666288
                },
                {
                    "name": "C#4",
                    "midi": 61,
                    "time": 44.0229166666667,
                    "velocity": 0.4645669291338583,
                    "duration": 0.05416666666666714
                },
                {
                    "name": "G#4",
                    "midi": 68,
                    "time": 44.125000000000036,
                    "velocity": 0.2992125984251969,
                    "duration": 0.07708333333333428
                },
                {
                    "name": "C#5",
                    "midi": 73,
                    "time": 44.212500000000034,
                    "velocity": 0.3779527559055118,
                    "duration": 0.06458333333333144
                },
                {
                    "name": "G#5",
                    "midi": 80,
                    "time": 44.306250000000034,
                    "velocity": 0.5196850393700787,
                    "duration": 0.03750000000000142
                },
                {
                    "name": "F#3",
                    "midi": 54,
                    "time": 44.32083333333337,
                    "velocity": 0.5984251968503937,
                    "duration": 0.21041666666667425
                },
                {
                    "name": "E4",
                    "midi": 64,
                    "time": 44.3354166666667,
                    "velocity": 0.47244094488188976,
                    "duration": 0.09166666666666856
                },
                {
                    "name": "C#5",
                    "midi": 73,
                    "time": 44.404166666666704,
                    "velocity": 0.48031496062992124,
                    "duration": 0.11041666666667282
                },
                {
                    "name": "G#4",
                    "midi": 68,
                    "time": 44.49375000000004,
                    "velocity": 0.4094488188976378,
                    "duration": 0.0833333333333357
                },
                {
                    "name": "C#4",
                    "midi": 61,
                    "time": 44.57291666666671,
                    "velocity": 0.48031496062992124,
                    "duration": 0.0729166666666714
                },
                {
                    "name": "G#3",
                    "midi": 56,
                    "time": 44.68958333333338,
                    "velocity": 0.5433070866141733,
                    "duration": 0.24374999999999858
                },
                {
                    "name": "E4",
                    "midi": 64,
                    "time": 44.700000000000045,
                    "velocity": 0.5196850393700787,
                    "duration": 0.09166666666666146
                },
                {
                    "name": "C#4",
                    "midi": 61,
                    "time": 44.78125000000004,
                    "velocity": 0.4881889763779528,
                    "duration": 0.07083333333333286
                },
                {
                    "name": "G#4",
                    "midi": 68,
                    "time": 44.86666666666671,
                    "velocity": 0.4015748031496063,
                    "duration": 0.06666666666666998
                },
                {
                    "name": "C#5",
                    "midi": 73,
                    "time": 44.96250000000005,
                    "velocity": 0.48031496062992124,
                    "duration": 0.06041666666666856
                },
                {
                    "name": "G#5",
                    "midi": 80,
                    "time": 45.07083333333338,
                    "velocity": 0.5511811023622047,
                    "duration": 0.04791666666666572
                },
                {
                    "name": "B3",
                    "midi": 59,
                    "time": 45.083333333333385,
                    "velocity": 0.4330708661417323,
                    "duration": 0.3645833333333215
                },
                {
                    "name": "E4",
                    "midi": 64,
                    "time": 45.08541666666672,
                    "velocity": 0.4330708661417323,
                    "duration": 0.14374999999999716
                },
                {
                    "name": "C#5",
                    "midi": 73,
                    "time": 45.172916666666715,
                    "velocity": 0.4330708661417323,
                    "duration": 0.06666666666666288
                },
                {
                    "name": "G#4",
                    "midi": 68,
                    "time": 45.27291666666671,
                    "velocity": 0.36220472440944884,
                    "duration": 0.07500000000000284
                },
                {
                    "name": "C#4",
                    "midi": 61,
                    "time": 45.350000000000044,
                    "velocity": 0.4881889763779528,
                    "duration": 0.07083333333333286
                },
                {
                    "name": "G#3",
                    "midi": 56,
                    "time": 45.47500000000004,
                    "velocity": 0.4881889763779528,
                    "duration": 0.29374999999999574
                },
                {
                    "name": "E4",
                    "midi": 64,
                    "time": 45.493750000000034,
                    "velocity": 0.3543307086614173,
                    "duration": 0.10833333333333428
                },
                {
                    "name": "C#4",
                    "midi": 61,
                    "time": 45.5416666666667,
                    "velocity": 0.3700787401574803,
                    "duration": 0.06666666666666998
                },
                {
                    "name": "G#4",
                    "midi": 68,
                    "time": 45.650000000000034,
                    "velocity": 0.31496062992125984,
                    "duration": 0.0625
                },
                {
                    "name": "C#5",
                    "midi": 73,
                    "time": 45.7416666666667,
                    "velocity": 0.3779527559055118,
                    "duration": 0.06458333333333144
                },
                {
                    "name": "G#5",
                    "midi": 80,
                    "time": 45.85208333333337,
                    "velocity": 0.4409448818897638,
                    "duration": 0.04999999999999716
                },
                {
                    "name": "E4",
                    "midi": 64,
                    "time": 45.875000000000036,
                    "velocity": 0.3779527559055118,
                    "duration": 0.07499999999999574
                },
                {
                    "name": "F#3",
                    "midi": 54,
                    "time": 45.88333333333337,
                    "velocity": 0.44881889763779526,
                    "duration": 0.21249999999999858
                },
                {
                    "name": "C#5",
                    "midi": 73,
                    "time": 45.97083333333337,
                    "velocity": 0.2992125984251969,
                    "duration": 0.09583333333333144
                },
                {
                    "name": "G#4",
                    "midi": 68,
                    "time": 46.0729166666667,
                    "velocity": 0.31496062992125984,
                    "duration": 0.06041666666666856
                },
                {
                    "name": "C#4",
                    "midi": 61,
                    "time": 46.1416666666667,
                    "velocity": 0.4645669291338583,
                    "duration": 0.05833333333333002
                },
                {
                    "name": "C#3",
                    "midi": 49,
                    "time": 46.35208333333336,
                    "velocity": 0.49606299212598426,
                    "duration": 0.23541666666666572
                },
                {
                    "name": "G#3",
                    "midi": 56,
                    "time": 46.62708333333336,
                    "velocity": 0.36220472440944884,
                    "duration": 0.10000000000000142
                },
                {
                    "name": "C#4",
                    "midi": 61,
                    "time": 46.710416666666696,
                    "velocity": 0.4251968503937008,
                    "duration": 0.0520833333333357
                },
                {
                    "name": "G#3",
                    "midi": 56,
                    "time": 46.833333333333364,
                    "velocity": 0.5511811023622047,
                    "duration": 0.04375000000000284
                },
                {
                    "name": "G#3",
                    "midi": 56,
                    "time": 46.95000000000003,
                    "velocity": 0.4330708661417323,
                    "duration": 0.07500000000000284
                },
                {
                    "name": "C#4",
                    "midi": 61,
                    "time": 47.03958333333337,
                    "velocity": 0.44881889763779526,
                    "duration": 0.0833333333333357
                },
                {
                    "name": "G#4",
                    "midi": 68,
                    "time": 47.13333333333337,
                    "velocity": 0.3937007874015748,
                    "duration": 0.04999999999999716
                },
                {
                    "name": "C#4",
                    "midi": 61,
                    "time": 47.2229166666667,
                    "velocity": 0.6614173228346457,
                    "duration": 0.03541666666666998
                },
                {
                    "name": "C#4",
                    "midi": 61,
                    "time": 47.31458333333337,
                    "velocity": 0.5039370078740157,
                    "duration": 0.11041666666667282
                },
                {
                    "name": "G#4",
                    "midi": 68,
                    "time": 47.42083333333337,
                    "velocity": 0.3937007874015748,
                    "duration": 0.08958333333333712
                },
                {
                    "name": "C#5",
                    "midi": 73,
                    "time": 47.504166666666706,
                    "velocity": 0.41732283464566927,
                    "duration": 0.04583333333333428
                },
                {
                    "name": "G#4",
                    "midi": 68,
                    "time": 47.58750000000004,
                    "velocity": 0.6850393700787402,
                    "duration": 0.03125
                },
                {
                    "name": "G#4",
                    "midi": 68,
                    "time": 47.67291666666671,
                    "velocity": 0.5196850393700787,
                    "duration": 0.1354166666666643
                },
                {
                    "name": "C#5",
                    "midi": 73,
                    "time": 47.79166666666671,
                    "velocity": 0.3937007874015748,
                    "duration": 0.06458333333333144
                },
                {
                    "name": "G#5",
                    "midi": 80,
                    "time": 47.85833333333337,
                    "velocity": 0.5275590551181102,
                    "duration": 0.06875000000000142
                },
                {
                    "name": "C#5",
                    "midi": 73,
                    "time": 47.970833333333374,
                    "velocity": 0.6771653543307087,
                    "duration": 0.03333333333333144
                },
                {
                    "name": "C#5",
                    "midi": 73,
                    "time": 48.05833333333337,
                    "velocity": 0.49606299212598426,
                    "duration": 0.15208333333333002
                },
                {
                    "name": "G#5",
                    "midi": 80,
                    "time": 48.185416666666704,
                    "velocity": 0.48031496062992124,
                    "duration": 0.10833333333332718
                },
                {
                    "name": "C#6",
                    "midi": 85,
                    "time": 48.2604166666667,
                    "velocity": 0.49606299212598426,
                    "duration": 0.11666666666666714
                },
                {
                    "name": "C#5",
                    "midi": 73,
                    "time": 48.364583333333364,
                    "velocity": 0.6929133858267716,
                    "duration": 0.033333333333338544
                },
                {
                    "name": "C#5",
                    "midi": 73,
                    "time": 48.45000000000004,
                    "velocity": 0.5354330708661418,
                    "duration": 0.125
                },
                {
                    "name": "G#5",
                    "midi": 80,
                    "time": 48.57291666666671,
                    "velocity": 0.4409448818897638,
                    "duration": 0.09166666666666146
                },
                {
                    "name": "C#6",
                    "midi": 85,
                    "time": 48.656250000000036,
                    "velocity": 0.4409448818897638,
                    "duration": 0.0729166666666643
                },
                {
                    "name": "C#5",
                    "midi": 73,
                    "time": 48.7604166666667,
                    "velocity": 0.6377952755905512,
                    "duration": 0.03125
                },
                {
                    "name": "C#5",
                    "midi": 73,
                    "time": 48.843750000000036,
                    "velocity": 0.49606299212598426,
                    "duration": 0.13124999999999432
                },
                {
                    "name": "G#5",
                    "midi": 80,
                    "time": 48.964583333333366,
                    "velocity": 0.41732283464566927,
                    "duration": 0.0729166666666643
                },
                {
                    "name": "C#6",
                    "midi": 85,
                    "time": 49.047916666666694,
                    "velocity": 0.4094488188976378,
                    "duration": 0.06875000000000142
                },
                {
                    "name": "C#5",
                    "midi": 73,
                    "time": 49.147916666666696,
                    "velocity": 0.4881889763779528,
                    "duration": 0.04583333333333428
                },
                {
                    "name": "C#5",
                    "midi": 73,
                    "time": 49.26250000000003,
                    "velocity": 0.4330708661417323,
                    "duration": 0.05833333333333002
                },
                {
                    "name": "G#5",
                    "midi": 80,
                    "time": 49.35625000000003,
                    "velocity": 0.3543307086614173,
                    "duration": 0.06458333333333144
                },
                {
                    "name": "C#6",
                    "midi": 85,
                    "time": 49.43125000000003,
                    "velocity": 0.3700787401574803,
                    "duration": 0.1979166666666643
                },
                {
                    "name": "C#5",
                    "midi": 73,
                    "time": 49.543750000000024,
                    "velocity": 0.5511811023622047,
                    "duration": 0.03958333333333286
                },
                {
                    "name": "C#5",
                    "midi": 73,
                    "time": 49.643750000000026,
                    "velocity": 0.4566929133858268,
                    "duration": 0.08541666666666714
                },
                {
                    "name": "G#5",
                    "midi": 80,
                    "time": 49.75833333333336,
                    "velocity": 0.3464566929133858,
                    "duration": 0.07083333333333286
                },
                {
                    "name": "C#6",
                    "midi": 85,
                    "time": 49.860416666666694,
                    "velocity": 0.2677165354330709,
                    "duration": 0.06875000000000142
                },
                {
                    "name": "C#5",
                    "midi": 73,
                    "time": 49.927083333333364,
                    "velocity": 0.48031496062992124,
                    "duration": 0.04374999999999574
                },
                {
                    "name": "C#5",
                    "midi": 73,
                    "time": 50.03750000000003,
                    "velocity": 0.4094488188976378,
                    "duration": 0.05833333333333002
                },
                {
                    "name": "G#5",
                    "midi": 80,
                    "time": 50.13958333333336,
                    "velocity": 0.2992125984251969,
                    "duration": 0.06458333333333144
                },
                {
                    "name": "C#6",
                    "midi": 85,
                    "time": 50.22708333333336,
                    "velocity": 0.31496062992125984,
                    "duration": 0.06041666666666856
                },
                {
                    "name": "C#5",
                    "midi": 73,
                    "time": 50.33750000000003,
                    "velocity": 0.48031496062992124,
                    "duration": 0.04375000000000284
                },
                {
                    "name": "C#5",
                    "midi": 73,
                    "time": 50.4479166666667,
                    "velocity": 0.4094488188976378,
                    "duration": 0.05833333333333002
                },
                {
                    "name": "G#5",
                    "midi": 80,
                    "time": 50.552083333333364,
                    "velocity": 0.30708661417322836,
                    "duration": 0.06458333333333144
                },
                {
                    "name": "C#6",
                    "midi": 85,
                    "time": 50.6229166666667,
                    "velocity": 0.30708661417322836,
                    "duration": 0.0625
                },
                {
                    "name": "C#5",
                    "midi": 73,
                    "time": 50.76458333333336,
                    "velocity": 0.48031496062992124,
                    "duration": 0.04375000000000284
                },
                {
                    "name": "C#5",
                    "midi": 73,
                    "time": 50.875000000000036,
                    "velocity": 0.4094488188976378,
                    "duration": 0.05833333333333002
                },
                {
                    "name": "G#5",
                    "midi": 80,
                    "time": 50.993750000000034,
                    "velocity": 0.28346456692913385,
                    "duration": 0.08749999999999858
                },
                {
                    "name": "C#6",
                    "midi": 85,
                    "time": 51.0729166666667,
                    "velocity": 0.29133858267716534,
                    "duration": 0.06041666666666856
                },
                {
                    "name": "B3",
                    "midi": 59,
                    "time": 51.18958333333337,
                    "velocity": 0.23622047244094488,
                    "duration": 0.21666666666666146
                },
                {
                    "name": "C#4",
                    "midi": 61,
                    "time": 51.239583333333364,
                    "velocity": 0.25984251968503935,
                    "duration": 0.2083333333333286
                },
                {
                    "name": "E4",
                    "midi": 64,
                    "time": 51.35208333333336,
                    "velocity": 0.2125984251968504,
                    "duration": 0.09375
                },
                {
                    "name": "F#4",
                    "midi": 66,
                    "time": 51.40208333333336,
                    "velocity": 0.23622047244094488,
                    "duration": 0.06458333333333144
                },
                {
                    "name": "B4",
                    "midi": 71,
                    "time": 51.43125000000003,
                    "velocity": 0.07086614173228346,
                    "duration": 0.13958333333332718
                },
                {
                    "name": "A4",
                    "midi": 69,
                    "time": 51.43958333333336,
                    "velocity": 0.10236220472440945,
                    "duration": 0.0833333333333286
                },
                {
                    "name": "E5",
                    "midi": 76,
                    "time": 51.54791666666669,
                    "velocity": 0.2125984251968504,
                    "duration": 0.08541666666666714
                },
                {
                    "name": "F#5",
                    "midi": 78,
                    "time": 51.55416666666669,
                    "velocity": 0.28346456692913385,
                    "duration": 0.20208333333333428
                },
                {
                    "name": "A5",
                    "midi": 81,
                    "time": 51.68541666666669,
                    "velocity": 0.2204724409448819,
                    "duration": 0.07708333333333428
                },
                {
                    "name": "B5",
                    "midi": 83,
                    "time": 51.727083333333354,
                    "velocity": 0.2047244094488189,
                    "duration": 0.09791666666666998
                },
                {
                    "name": "C#6",
                    "midi": 85,
                    "time": 51.762500000000024,
                    "velocity": 0.5354330708661418,
                    "duration": 0.11041666666666572
                },
                {
                    "name": "C#5",
                    "midi": 73,
                    "time": 51.797916666666694,
                    "velocity": 0.25984251968503935,
                    "duration": 0.06666666666666288
                },
                {
                    "name": "F#5",
                    "midi": 78,
                    "time": 51.89583333333336,
                    "velocity": 0.31496062992125984,
                    "duration": 0.06458333333333144
                },
                {
                    "name": "E5",
                    "midi": 76,
                    "time": 51.96250000000002,
                    "velocity": 0.1889763779527559,
                    "duration": 0.08541666666666714
                },
                {
                    "name": "A4",
                    "midi": 69,
                    "time": 52.08958333333335,
                    "velocity": 0.29133858267716534,
                    "duration": 0.07499999999999574
                },
                {
                    "name": "B4",
                    "midi": 71,
                    "time": 52.09166666666668,
                    "velocity": 0.2755905511811024,
                    "duration": 0.07916666666666572
                },
                {
                    "name": "D#6",
                    "midi": 87,
                    "time": 52.23958333333335,
                    "velocity": 0.5669291338582677,
                    "duration": 0.13124999999999432
                },
                {
                    "name": "B4",
                    "midi": 71,
                    "time": 52.254166666666684,
                    "velocity": 0.2125984251968504,
                    "duration": 0.13749999999999574
                },
                {
                    "name": "D#5",
                    "midi": 75,
                    "time": 52.26666666666669,
                    "velocity": 0.3543307086614173,
                    "duration": 0.07708333333332718
                },
                {
                    "name": "A4",
                    "midi": 69,
                    "time": 52.26875000000002,
                    "velocity": 0.2204724409448819,
                    "duration": 0.0729166666666643
                },
                {
                    "name": "F#5",
                    "midi": 78,
                    "time": 52.40416666666668,
                    "velocity": 0.33858267716535434,
                    "duration": 0.08124999999999716
                },
                {
                    "name": "E5",
                    "midi": 76,
                    "time": 52.42083333333335,
                    "velocity": 0.13385826771653545,
                    "duration": 0.0833333333333286
                },
                {
                    "name": "B5",
                    "midi": 83,
                    "time": 52.529166666666676,
                    "velocity": 0.5669291338582677,
                    "duration": 0.05000000000000426
                },
                {
                    "name": "A5",
                    "midi": 81,
                    "time": 52.54166666666668,
                    "velocity": 0.3228346456692913,
                    "duration": 0.05416666666666714
                },
                {
                    "name": "C#6",
                    "midi": 85,
                    "time": 52.67708333333334,
                    "velocity": 0.6062992125984252,
                    "duration": 0.09166666666666856
                },
                {
                    "name": "B5",
                    "midi": 83,
                    "time": 52.683333333333344,
                    "velocity": 0.44881889763779526,
                    "duration": 0.125
                },
                {
                    "name": "A5",
                    "midi": 81,
                    "time": 52.69166666666668,
                    "velocity": 0.2204724409448819,
                    "duration": 0.13750000000000284
                },
                {
                    "name": "C#5",
                    "midi": 73,
                    "time": 52.69791666666668,
                    "velocity": 0.3858267716535433,
                    "duration": 0.05416666666666714
                },
                {
                    "name": "F#5",
                    "midi": 78,
                    "time": 52.82916666666668,
                    "velocity": 0.18110236220472442,
                    "duration": 0.06874999999999432
                },
                {
                    "name": "E5",
                    "midi": 76,
                    "time": 52.84791666666668,
                    "velocity": 0.3228346456692913,
                    "duration": 0.07499999999999574
                },
                {
                    "name": "A4",
                    "midi": 69,
                    "time": 52.997916666666676,
                    "velocity": 0.23622047244094488,
                    "duration": 0.07083333333333286
                },
                {
                    "name": "B4",
                    "midi": 71,
                    "time": 52.997916666666676,
                    "velocity": 0.33858267716535434,
                    "duration": 0.07083333333333286
                },
                {
                    "name": "F#6",
                    "midi": 90,
                    "time": 53.16250000000001,
                    "velocity": 0.5118110236220472,
                    "duration": 0.0729166666666643
                },
                {
                    "name": "B4",
                    "midi": 71,
                    "time": 53.16250000000001,
                    "velocity": 0.23622047244094488,
                    "duration": 0.10000000000000142
                },
                {
                    "name": "A4",
                    "midi": 69,
                    "time": 53.16875000000001,
                    "velocity": 0.1968503937007874,
                    "duration": 0.08958333333333002
                },
                {
                    "name": "F#5",
                    "midi": 78,
                    "time": 53.17708333333334,
                    "velocity": 0.3937007874015748,
                    "duration": 0.0729166666666643
                },
                {
                    "name": "F#5",
                    "midi": 78,
                    "time": 53.33125000000001,
                    "velocity": 0.31496062992125984,
                    "duration": 0.0833333333333286
                },
                {
                    "name": "E5",
                    "midi": 76,
                    "time": 53.35625000000001,
                    "velocity": 0.25196850393700787,
                    "duration": 0.06666666666666288
                },
                {
                    "name": "D#6",
                    "midi": 87,
                    "time": 53.42083333333334,
                    "velocity": 0.5196850393700787,
                    "duration": 0.0833333333333357
                },
                {
                    "name": "D#5",
                    "midi": 75,
                    "time": 53.43750000000001,
                    "velocity": 0.4330708661417323,
                    "duration": 0.0625
                },
                {
                    "name": "B5",
                    "midi": 83,
                    "time": 53.50000000000001,
                    "velocity": 0.48031496062992124,
                    "duration": 0.056250000000005684
                },
                {
                    "name": "A5",
                    "midi": 81,
                    "time": 53.51250000000001,
                    "velocity": 0.30708661417322836,
                    "duration": 0.05416666666666714
                },
                {
                    "name": "C#6",
                    "midi": 85,
                    "time": 53.67083333333334,
                    "velocity": 0.5669291338582677,
                    "duration": 0.15625
                },
                {
                    "name": "B5",
                    "midi": 83,
                    "time": 53.679166666666674,
                    "velocity": 0.36220472440944884,
                    "duration": 0.11666666666666714
                },
                {
                    "name": "C#5",
                    "midi": 73,
                    "time": 53.68750000000001,
                    "velocity": 0.44881889763779526,
                    "duration": 0.2666666666666657
                },
                {
                    "name": "A5",
                    "midi": 81,
                    "time": 53.70000000000001,
                    "velocity": 0.11811023622047244,
                    "duration": 0.08749999999999858
                },
                {
                    "name": "E5",
                    "midi": 76,
                    "time": 53.85625000000001,
                    "velocity": 0.2125984251968504,
                    "duration": 0.0729166666666643
                },
                {
                    "name": "B4",
                    "midi": 71,
                    "time": 53.98333333333334,
                    "velocity": 0.33858267716535434,
                    "duration": 0.0625
                },
                {
                    "name": "A4",
                    "midi": 69,
                    "time": 53.98333333333334,
                    "velocity": 0.23622047244094488,
                    "duration": 0.06875000000000142
                },
                {
                    "name": "B4",
                    "midi": 71,
                    "time": 54.12916666666668,
                    "velocity": 0.3464566929133858,
                    "duration": 0.1458333333333286
                },
                {
                    "name": "A4",
                    "midi": 69,
                    "time": 54.14166666666668,
                    "velocity": 0.18110236220472442,
                    "duration": 0.07499999999999574
                },
                {
                    "name": "G#5",
                    "midi": 80,
                    "time": 54.16041666666668,
                    "velocity": 0.4015748031496063,
                    "duration": 0.11874999999999858
                },
                {
                    "name": "G#4",
                    "midi": 68,
                    "time": 54.17708333333334,
                    "velocity": 0.2992125984251969,
                    "duration": 0.19583333333333286
                },
                {
                    "name": "F#5",
                    "midi": 78,
                    "time": 54.335416666666674,
                    "velocity": 0.15748031496062992,
                    "duration": 0.08958333333333002
                },
                {
                    "name": "E5",
                    "midi": 76,
                    "time": 54.34375000000001,
                    "velocity": 0.08661417322834646,
                    "duration": 0.07916666666666572
                },
                {
                    "name": "B5",
                    "midi": 83,
                    "time": 54.45,
                    "velocity": 0.5511811023622047,
                    "duration": 0.05624999999999858
                },
                {
                    "name": "A5",
                    "midi": 81,
                    "time": 54.47291666666667,
                    "velocity": 0.33070866141732286,
                    "duration": 0.05416666666666714
                },
                {
                    "name": "G#5",
                    "midi": 80,
                    "time": 54.63125,
                    "velocity": 0.5669291338582677,
                    "duration": 0.16874999999999574
                },
                {
                    "name": "G#4",
                    "midi": 68,
                    "time": 54.65625,
                    "velocity": 0.30708661417322836,
                    "duration": 0.33958333333333
                },
                {
                    "name": "B5",
                    "midi": 83,
                    "time": 54.672916666666666,
                    "velocity": 0.4094488188976378,
                    "duration": 0.10833333333333428
                },
                {
                    "name": "A5",
                    "midi": 81,
                    "time": 54.677083333333336,
                    "velocity": 0.14960629921259844,
                    "duration": 0.13749999999999574
                },
                {
                    "name": "F#5",
                    "midi": 78,
                    "time": 54.824999999999996,
                    "velocity": 0.2204724409448819,
                    "duration": 0.09583333333333854
                },
                {
                    "name": "E5",
                    "midi": 76,
                    "time": 54.856249999999996,
                    "velocity": 0.2440944881889764,
                    "duration": 0.06041666666666856
                },
                {
                    "name": "A4",
                    "midi": 69,
                    "time": 54.985416666666666,
                    "velocity": 0.25984251968503935,
                    "duration": 0.07083333333333286
                },
                {
                    "name": "B4",
                    "midi": 71,
                    "time": 54.9875,
                    "velocity": 0.30708661417322836,
                    "duration": 0.0625
                },
                {
                    "name": "F#5",
                    "midi": 78,
                    "time": 55.13125,
                    "velocity": 0.3700787401574803,
                    "duration": 0.05416666666666714
                },
                {
                    "name": "B4",
                    "midi": 71,
                    "time": 55.1375,
                    "velocity": 0.30708661417322836,
                    "duration": 0.11041666666666572
                },
                {
                    "name": "A4",
                    "midi": 69,
                    "time": 55.139583333333334,
                    "velocity": 0.2204724409448819,
                    "duration": 0.09583333333333144
                },
                {
                    "name": "F#4",
                    "midi": 66,
                    "time": 55.14791666666667,
                    "velocity": 0.2755905511811024,
                    "duration": 0.06458333333333144
                },
                {
                    "name": "F#5",
                    "midi": 78,
                    "time": 55.28333333333334,
                    "velocity": 0.1968503937007874,
                    "duration": 0.2187499999999929
                },
                {
                    "name": "E5",
                    "midi": 76,
                    "time": 55.30833333333334,
                    "velocity": 0.2440944881889764,
                    "duration": 0.0729166666666643
                },
                {
                    "name": "B5",
                    "midi": 83,
                    "time": 55.452083333333334,
                    "velocity": 0.3937007874015748,
                    "duration": 0.060416666666661456
                },
                {
                    "name": "B3",
                    "midi": 59,
                    "time": 55.454166666666666,
                    "velocity": 0.47244094488188976,
                    "duration": 0.04791666666666572
                },
                {
                    "name": "A5",
                    "midi": 81,
                    "time": 55.46875,
                    "velocity": 0.1889763779527559,
                    "duration": 0.06666666666666288
                },
                {
                    "name": "B5",
                    "midi": 83,
                    "time": 55.60208333333333,
                    "velocity": 0.5196850393700787,
                    "duration": 0.16250000000000142
                },
                {
                    "name": "C#5",
                    "midi": 73,
                    "time": 55.604166666666664,
                    "velocity": 0.5039370078740157,
                    "duration": 0.14166666666667282
                },
                {
                    "name": "A5",
                    "midi": 81,
                    "time": 55.61458333333333,
                    "velocity": 0.4015748031496063,
                    "duration": 0.16875000000000284
                },
                {
                    "name": "C#4",
                    "midi": 61,
                    "time": 55.635416666666664,
                    "velocity": 0.44881889763779526,
                    "duration": 0.07500000000000284
                },
                {
                    "name": "F#5",
                    "midi": 78,
                    "time": 55.78333333333333,
                    "velocity": 0.3228346456692913,
                    "duration": 0.0729166666666714
                },
                {
                    "name": "E5",
                    "midi": 76,
                    "time": 55.7875,
                    "velocity": 0.2992125984251969,
                    "duration": 0.06458333333333144
                },
                {
                    "name": "A4",
                    "midi": 69,
                    "time": 55.925000000000004,
                    "velocity": 0.23622047244094488,
                    "duration": 0.07708333333333428
                },
                {
                    "name": "B4",
                    "midi": 71,
                    "time": 55.93750000000001,
                    "velocity": 0.33858267716535434,
                    "duration": 0.0625
                },
                {
                    "name": "D#5",
                    "midi": 75,
                    "time": 56.06458333333334,
                    "velocity": 0.5511811023622047,
                    "duration": 0.1250000000000071
                },
                {
                    "name": "A4",
                    "midi": 69,
                    "time": 56.07291666666667,
                    "velocity": 0.33070866141732286,
                    "duration": 0.10208333333333997
                },
                {
                    "name": "D#4",
                    "midi": 63,
                    "time": 56.07708333333334,
                    "velocity": 0.5196850393700787,
                    "duration": 0.09583333333333854
                },
                {
                    "name": "B4",
                    "midi": 71,
                    "time": 56.08125000000001,
                    "velocity": 0.3700787401574803,
                    "duration": 0.06666666666666998
                },
                {
                    "name": "F#5",
                    "midi": 78,
                    "time": 56.252083333333346,
                    "velocity": 0.31496062992125984,
                    "duration": 0.07708333333333428
                },
                {
                    "name": "E5",
                    "midi": 76,
                    "time": 56.25416666666668,
                    "velocity": 0.2677165354330709,
                    "duration": 0.0625
                },
                {
                    "name": "A5",
                    "midi": 81,
                    "time": 56.38541666666668,
                    "velocity": 0.4094488188976378,
                    "duration": 0.0520833333333357
                },
                {
                    "name": "B5",
                    "midi": 83,
                    "time": 56.39375000000001,
                    "velocity": 0.5275590551181102,
                    "duration": 0.05000000000000426
                },
                {
                    "name": "B5",
                    "midi": 83,
                    "time": 56.541666666666686,
                    "velocity": 0.44881889763779526,
                    "duration": 0.13749999999999574
                },
                {
                    "name": "C#5",
                    "midi": 73,
                    "time": 56.55208333333335,
                    "velocity": 0.44881889763779526,
                    "duration": 0.18958333333332433
                },
                {
                    "name": "C#4",
                    "midi": 61,
                    "time": 56.56041666666668,
                    "velocity": 0.41732283464566927,
                    "duration": 0.17083333333332718
                },
                {
                    "name": "A5",
                    "midi": 81,
                    "time": 56.566666666666684,
                    "velocity": 0.12598425196850394,
                    "duration": 0.12291666666666146
                },
                {
                    "name": "E5",
                    "midi": 76,
                    "time": 56.72916666666668,
                    "velocity": 0.33070866141732286,
                    "duration": 0.05624999999999858
                },
                {
                    "name": "F#5",
                    "midi": 78,
                    "time": 56.73958333333334,
                    "velocity": 0.1732283464566929,
                    "duration": 0.0833333333333357
                },
                {
                    "name": "A4",
                    "midi": 69,
                    "time": 56.872916666666676,
                    "velocity": 0.29133858267716534,
                    "duration": 0.06666666666666998
                },
                {
                    "name": "B4",
                    "midi": 71,
                    "time": 56.877083333333346,
                    "velocity": 0.2992125984251969,
                    "duration": 0.0625
                },
                {
                    "name": "A4",
                    "midi": 69,
                    "time": 57.027083333333344,
                    "velocity": 0.25196850393700787,
                    "duration": 0.14374999999999716
                },
                {
                    "name": "F#5",
                    "midi": 78,
                    "time": 57.03750000000001,
                    "velocity": 0.4881889763779528,
                    "duration": 0.05624999999999858
                },
                {
                    "name": "F#4",
                    "midi": 66,
                    "time": 57.056250000000006,
                    "velocity": 0.2992125984251969,
                    "duration": 0.08125000000000426
                },
                {
                    "name": "E5",
                    "midi": 76,
                    "time": 57.22916666666667,
                    "velocity": 0.28346456692913385,
                    "duration": 0.06458333333333854
                },
                {
                    "name": "F#5",
                    "midi": 78,
                    "time": 57.23333333333334,
                    "velocity": 0.3228346456692913,
                    "duration": 0.1395833333333414
                },
                {
                    "name": "D#5",
                    "midi": 75,
                    "time": 57.30000000000001,
                    "velocity": 0.4566929133858268,
                    "duration": 0.08125000000000426
                },
                {
                    "name": "D#4",
                    "midi": 63,
                    "time": 57.312500000000014,
                    "velocity": 0.4251968503937008,
                    "duration": 0.06875000000000142
                },
                {
                    "name": "B5",
                    "midi": 83,
                    "time": 57.381250000000016,
                    "velocity": 0.4409448818897638,
                    "duration": 0.05416666666666714
                },
                {
                    "name": "A5",
                    "midi": 81,
                    "time": 57.39375000000002,
                    "velocity": 0.25196850393700787,
                    "duration": 0.0625
                },
                {
                    "name": "B5",
                    "midi": 83,
                    "time": 57.55208333333335,
                    "velocity": 0.33858267716535434,
                    "duration": 0.1458333333333357
                },
                {
                    "name": "A5",
                    "midi": 81,
                    "time": 57.55416666666668,
                    "velocity": 0.1732283464566929,
                    "duration": 0.16458333333333997
                },
                {
                    "name": "C#5",
                    "midi": 73,
                    "time": 57.568750000000016,
                    "velocity": 0.41732283464566927,
                    "duration": 0.15000000000000568
                },
                {
                    "name": "C#4",
                    "midi": 61,
                    "time": 57.58333333333335,
                    "velocity": 0.3937007874015748,
                    "duration": 0.28125
                },
                {
                    "name": "E5",
                    "midi": 76,
                    "time": 57.74583333333335,
                    "velocity": 0.2440944881889764,
                    "duration": 0.12291666666666856
                },
                {
                    "name": "F#5",
                    "midi": 78,
                    "time": 57.76666666666669,
                    "velocity": 0.08661417322834646,
                    "duration": 0.0729166666666643
                },
                {
                    "name": "A4",
                    "midi": 69,
                    "time": 57.879166666666684,
                    "velocity": 0.2204724409448819,
                    "duration": 0.07500000000000284
                },
                {
                    "name": "B4",
                    "midi": 71,
                    "time": 57.885416666666686,
                    "velocity": 0.2677165354330709,
                    "duration": 0.07083333333333286
                },
                {
                    "name": "G#4",
                    "midi": 68,
                    "time": 58.02500000000002,
                    "velocity": 0.4015748031496063,
                    "duration": 0.14166666666666572
                },
                {
                    "name": "B4",
                    "midi": 71,
                    "time": 58.03750000000002,
                    "velocity": 0.3464566929133858,
                    "duration": 0.07916666666666572
                },
                {
                    "name": "A4",
                    "midi": 69,
                    "time": 58.03750000000002,
                    "velocity": 0.3228346456692913,
                    "duration": 0.07916666666666572
                },
                {
                    "name": "G#3",
                    "midi": 56,
                    "time": 58.04791666666669,
                    "velocity": 0.28346456692913385,
                    "duration": 0.1458333333333286
                },
                {
                    "name": "E5",
                    "midi": 76,
                    "time": 58.20000000000002,
                    "velocity": 0.23622047244094488,
                    "duration": 0.06666666666666998
                },
                {
                    "name": "F#5",
                    "midi": 78,
                    "time": 58.20416666666669,
                    "velocity": 0.3543307086614173,
                    "duration": 0.07500000000000284
                },
                {
                    "name": "A5",
                    "midi": 81,
                    "time": 58.35416666666669,
                    "velocity": 0.30708661417322836,
                    "duration": 0.05624999999999858
                },
                {
                    "name": "B5",
                    "midi": 83,
                    "time": 58.37083333333336,
                    "velocity": 0.23622047244094488,
                    "duration": 0.0625
                },
                {
                    "name": "G#4",
                    "midi": 68,
                    "time": 58.49583333333336,
                    "velocity": 0.3858267716535433,
                    "duration": 0.32499999999999574
                },
                {
                    "name": "A5",
                    "midi": 81,
                    "time": 58.50833333333336,
                    "velocity": 0.1968503937007874,
                    "duration": 0.12916666666666288
                },
                {
                    "name": "B5",
                    "midi": 83,
                    "time": 58.518750000000026,
                    "velocity": 0.5984251968503937,
                    "duration": 0.0729166666666643
                },
                {
                    "name": "G#3",
                    "midi": 56,
                    "time": 58.52083333333336,
                    "velocity": 0.2283464566929134,
                    "duration": 0.3541666666666643
                },
                {
                    "name": "F#5",
                    "midi": 78,
                    "time": 58.66250000000002,
                    "velocity": 0.07086614173228346,
                    "duration": 0.06875000000000142
                },
                {
                    "name": "E5",
                    "midi": 76,
                    "time": 58.702083333333356,
                    "velocity": 0.2204724409448819,
                    "duration": 0.10833333333333428
                },
                {
                    "name": "B4",
                    "midi": 71,
                    "time": 58.80416666666669,
                    "velocity": 0.29133858267716534,
                    "duration": 0.07083333333333286
                },
                {
                    "name": "A4",
                    "midi": 69,
                    "time": 58.80625000000002,
                    "velocity": 0.29133858267716534,
                    "duration": 0.06666666666666998
                },
                {
                    "name": "B4",
                    "midi": 71,
                    "time": 58.96458333333335,
                    "velocity": 0.2992125984251969,
                    "duration": 0.18333333333333002
                },
                {
                    "name": "A4",
                    "midi": 69,
                    "time": 58.972916666666684,
                    "velocity": 0.2677165354330709,
                    "duration": 0.12916666666666288
                },
                {
                    "name": "F#4",
                    "midi": 66,
                    "time": 58.99166666666668,
                    "velocity": 0.2283464566929134,
                    "duration": 0.07916666666666572
                },
                {
                    "name": "F#3",
                    "midi": 54,
                    "time": 59.01875000000001,
                    "velocity": 0.23622047244094488,
                    "duration": 0.09583333333333854
                },
                {
                    "name": "E5",
                    "midi": 76,
                    "time": 59.14583333333335,
                    "velocity": 0.25196850393700787,
                    "duration": 0.0625
                },
                {
                    "name": "F#5",
                    "midi": 78,
                    "time": 59.18541666666668,
                    "velocity": 0.13385826771653545,
                    "duration": 0.09791666666666998
                },
                {
                    "name": "B5",
                    "midi": 83,
                    "time": 59.320833333333354,
                    "velocity": 0.4251968503937008,
                    "duration": 0.05416666666666714
                },
                {
                    "name": "A5",
                    "midi": 81,
                    "time": 59.33125000000002,
                    "velocity": 0.28346456692913385,
                    "duration": 0.05833333333333712
                },
                {
                    "name": "C#6",
                    "midi": 85,
                    "time": 59.56875000000002,
                    "velocity": 0.5433070866141733,
                    "duration": 0.38750000000000284
                },
                {
                    "name": "C#5",
                    "midi": 73,
                    "time": 59.577083333333356,
                    "velocity": 0.3543307086614173,
                    "duration": 0.32500000000000284
                },
                {
                    "name": "F#5",
                    "midi": 78,
                    "time": 59.58333333333336,
                    "velocity": 0.2204724409448819,
                    "duration": 0.2979166666666657
                },
                {
                    "name": "B2",
                    "midi": 47,
                    "time": 59.58750000000003,
                    "velocity": 0.25196850393700787,
                    "duration": 0.2749999999999986
                },
                {
                    "name": "C#3",
                    "midi": 49,
                    "time": 59.710416666666696,
                    "velocity": 0.28346456692913385,
                    "duration": 0.1979166666666643
                },
                {
                    "name": "E3",
                    "midi": 52,
                    "time": 59.829166666666694,
                    "velocity": 0.2047244094488189,
                    "duration": 0.06666666666666288
                },
                {
                    "name": "A3",
                    "midi": 57,
                    "time": 59.91041666666669,
                    "velocity": 0.31496062992125984,
                    "duration": 0.06458333333333144
                },
                {
                    "name": "D#6",
                    "midi": 87,
                    "time": 60.04166666666669,
                    "velocity": 0.5748031496062992,
                    "duration": 0.2958333333333343
                },
                {
                    "name": "D#5",
                    "midi": 75,
                    "time": 60.06041666666669,
                    "velocity": 0.36220472440944884,
                    "duration": 0.31041666666666856
                },
                {
                    "name": "B3",
                    "midi": 59,
                    "time": 60.06666666666669,
                    "velocity": 0.30708661417322836,
                    "duration": 0.13333333333333286
                },
                {
                    "name": "G#5",
                    "midi": 80,
                    "time": 60.09791666666669,
                    "velocity": 0.1889763779527559,
                    "duration": 0.11874999999999858
                },
                {
                    "name": "C#4",
                    "midi": 61,
                    "time": 60.18541666666669,
                    "velocity": 0.3779527559055118,
                    "duration": 0.08541666666666714
                },
                {
                    "name": "E4",
                    "midi": 64,
                    "time": 60.30208333333336,
                    "velocity": 0.28346456692913385,
                    "duration": 0.06666666666666998
                },
                {
                    "name": "A4",
                    "midi": 69,
                    "time": 60.38541666666669,
                    "velocity": 0.3228346456692913,
                    "duration": 0.07083333333333286
                },
                {
                    "name": "C#6",
                    "midi": 85,
                    "time": 60.487500000000026,
                    "velocity": 0.6614173228346457,
                    "duration": 0.23333333333332718
                },
                {
                    "name": "C#5",
                    "midi": 73,
                    "time": 60.49791666666669,
                    "velocity": 0.5354330708661418,
                    "duration": 0.14791666666666003
                },
                {
                    "name": "B3",
                    "midi": 59,
                    "time": 60.50000000000002,
                    "velocity": 0.4094488188976378,
                    "duration": 0.11666666666666003
                },
                {
                    "name": "F#5",
                    "midi": 78,
                    "time": 60.510416666666686,
                    "velocity": 0.41732283464566927,
                    "duration": 0.12916666666666288
                },
                {
                    "name": "C#4",
                    "midi": 61,
                    "time": 60.597916666666684,
                    "velocity": 0.31496062992125984,
                    "duration": 0.1145833333333357
                },
                {
                    "name": "E4",
                    "midi": 64,
                    "time": 60.70625000000002,
                    "velocity": 0.3700787401574803,
                    "duration": 0.05416666666666714
                },
                {
                    "name": "A4",
                    "midi": 69,
                    "time": 60.820833333333354,
                    "velocity": 0.3543307086614173,
                    "duration": 0.06041666666666856
                },
                {
                    "name": "E5",
                    "midi": 76,
                    "time": 60.93750000000002,
                    "velocity": 0.4094488188976378,
                    "duration": 0.04999999999999716
                },
                {
                    "name": "F#6",
                    "midi": 90,
                    "time": 60.94375000000002,
                    "velocity": 0.5905511811023622,
                    "duration": 0.1145833333333286
                },
                {
                    "name": "F#5",
                    "midi": 78,
                    "time": 60.952083333333356,
                    "velocity": 0.4645669291338583,
                    "duration": 0.09999999999999432
                },
                {
                    "name": "B5",
                    "midi": 83,
                    "time": 60.96250000000002,
                    "velocity": 0.6299212598425197,
                    "duration": 0.0416666666666643
                },
                {
                    "name": "A4",
                    "midi": 69,
                    "time": 61.07708333333335,
                    "velocity": 0.4015748031496063,
                    "duration": 0.05833333333333002
                },
                {
                    "name": "D#6",
                    "midi": 87,
                    "time": 61.16875000000001,
                    "velocity": 0.5433070866141733,
                    "duration": 0.1145833333333357
                },
                {
                    "name": "D#5",
                    "midi": 75,
                    "time": 61.17083333333334,
                    "velocity": 0.5275590551181102,
                    "duration": 0.06666666666666998
                },
                {
                    "name": "G#5",
                    "midi": 80,
                    "time": 61.19166666666668,
                    "velocity": 0.3700787401574803,
                    "duration": 0.05624999999999858
                },
                {
                    "name": "E4",
                    "midi": 64,
                    "time": 61.220833333333346,
                    "velocity": 0.3228346456692913,
                    "duration": 0.05624999999999858
                },
                {
                    "name": "C#4",
                    "midi": 61,
                    "time": 61.26041666666668,
                    "velocity": 0.4094488188976378,
                    "duration": 0.08124999999999716
                },
                {
                    "name": "C#6",
                    "midi": 85,
                    "time": 61.402083333333344,
                    "velocity": 0.6771653543307087,
                    "duration": 0.2395833333333215
                },
                {
                    "name": "C#5",
                    "midi": 73,
                    "time": 61.404166666666676,
                    "velocity": 0.5433070866141733,
                    "duration": 0.29583333333332007
                },
                {
                    "name": "F#5",
                    "midi": 78,
                    "time": 61.41250000000001,
                    "velocity": 0.5039370078740157,
                    "duration": 0.25416666666665577
                },
                {
                    "name": "B3",
                    "midi": 59,
                    "time": 61.45208333333334,
                    "velocity": 0.1889763779527559,
                    "duration": 0.0729166666666643
                },
                {
                    "name": "C#4",
                    "midi": 61,
                    "time": 61.53333333333334,
                    "velocity": 0.2992125984251969,
                    "duration": 0.08124999999999716
                },
                {
                    "name": "E4",
                    "midi": 64,
                    "time": 61.63333333333333,
                    "velocity": 0.2283464566929134,
                    "duration": 0.06458333333333144
                },
                {
                    "name": "A4",
                    "midi": 69,
                    "time": 61.71874999999999,
                    "velocity": 0.28346456692913385,
                    "duration": 0.07083333333333286
                },
                {
                    "name": "G#5",
                    "midi": 80,
                    "time": 61.82916666666666,
                    "velocity": 0.6377952755905512,
                    "duration": 0.17291666666666572
                },
                {
                    "name": "G#4",
                    "midi": 68,
                    "time": 61.84374999999999,
                    "velocity": 0.4645669291338583,
                    "duration": 0.10833333333333428
                },
                {
                    "name": "C#5",
                    "midi": 73,
                    "time": 61.85833333333333,
                    "velocity": 0.33858267716535434,
                    "duration": 0.06875000000000142
                },
                {
                    "name": "B3",
                    "midi": 59,
                    "time": 61.86041666666666,
                    "velocity": 0.3858267716535433,
                    "duration": 0.08125000000000426
                },
                {
                    "name": "C#4",
                    "midi": 61,
                    "time": 61.96874999999999,
                    "velocity": 0.4015748031496063,
                    "duration": 0.16458333333333286
                },
                {
                    "name": "E4",
                    "midi": 64,
                    "time": 62.097916666666656,
                    "velocity": 0.30708661417322836,
                    "duration": 0.06041666666666856
                },
                {
                    "name": "A4",
                    "midi": 69,
                    "time": 62.164583333333326,
                    "velocity": 0.2755905511811024,
                    "duration": 0.06875000000000142
                },
                {
                    "name": "G#5",
                    "midi": 80,
                    "time": 62.256249999999994,
                    "velocity": 0.6535433070866141,
                    "duration": 0.31458333333333144
                },
                {
                    "name": "G#4",
                    "midi": 68,
                    "time": 62.258333333333326,
                    "velocity": 0.4881889763779528,
                    "duration": 0.33958333333333
                },
                {
                    "name": "C#5",
                    "midi": 73,
                    "time": 62.27083333333333,
                    "velocity": 0.4094488188976378,
                    "duration": 0.26874999999999716
                },
                {
                    "name": "B3",
                    "midi": 59,
                    "time": 62.30416666666666,
                    "velocity": 0.3464566929133858,
                    "duration": 0.07708333333333428
                },
                {
                    "name": "C#4",
                    "midi": 61,
                    "time": 62.39583333333333,
                    "velocity": 0.33070866141732286,
                    "duration": 0.21458333333333002
                },
                {
                    "name": "E4",
                    "midi": 64,
                    "time": 62.51458333333333,
                    "velocity": 0.3228346456692913,
                    "duration": 0.06666666666666288
                },
                {
                    "name": "A4",
                    "midi": 69,
                    "time": 62.62291666666666,
                    "velocity": 0.1889763779527559,
                    "duration": 0.07500000000000284
                },
                {
                    "name": "F#5",
                    "midi": 78,
                    "time": 62.71875,
                    "velocity": 0.5748031496062992,
                    "duration": 0.20208333333333428
                },
                {
                    "name": "F#4",
                    "midi": 66,
                    "time": 62.72708333333333,
                    "velocity": 0.4094488188976378,
                    "duration": 0.12291666666666856
                },
                {
                    "name": "B4",
                    "midi": 71,
                    "time": 62.74583333333333,
                    "velocity": 0.4330708661417323,
                    "duration": 0.07708333333333428
                },
                {
                    "name": "B3",
                    "midi": 59,
                    "time": 62.75416666666666,
                    "velocity": 0.41732283464566927,
                    "duration": 0.08125000000000426
                },
                {
                    "name": "C#4",
                    "midi": 61,
                    "time": 62.84166666666667,
                    "velocity": 0.4094488188976378,
                    "duration": 0.0833333333333357
                },
                {
                    "name": "D#4",
                    "midi": 63,
                    "time": 62.929166666666674,
                    "velocity": 0.4251968503937008,
                    "duration": 0.1354166666666643
                },
                {
                    "name": "A4",
                    "midi": 69,
                    "time": 63.06458333333334,
                    "velocity": 0.14173228346456693,
                    "duration": 0.06458333333333144
                },
                {
                    "name": "E5",
                    "midi": 76,
                    "time": 63.25833333333334,
                    "velocity": 0.5905511811023622,
                    "duration": 0.33124999999999005
                },
                {
                    "name": "E4",
                    "midi": 64,
                    "time": 63.28541666666667,
                    "velocity": 0.3543307086614173,
                    "duration": 0.20208333333332718
                },
                {
                    "name": "G#3",
                    "midi": 56,
                    "time": 63.28541666666667,
                    "velocity": 0.5748031496062992,
                    "duration": 0.33541666666666003
                },
                {
                    "name": "A4",
                    "midi": 69,
                    "time": 63.29791666666667,
                    "velocity": 0.08661417322834646,
                    "duration": 0.25208333333332433
                },
                {
                    "name": "A3",
                    "midi": 57,
                    "time": 63.4875,
                    "velocity": 0.28346456692913385,
                    "duration": 0.10000000000000142
                },
                {
                    "name": "C#4",
                    "midi": 61,
                    "time": 63.55625,
                    "velocity": 0.30708661417322836,
                    "duration": 0.08541666666666714
                },
                {
                    "name": "E4",
                    "midi": 64,
                    "time": 63.66458333333333,
                    "velocity": 0.2125984251968504,
                    "duration": 0.06458333333333144
                },
                {
                    "name": "F#5",
                    "midi": 78,
                    "time": 63.72083333333333,
                    "velocity": 0.5826771653543307,
                    "duration": 0.14374999999999716
                },
                {
                    "name": "F#4",
                    "midi": 66,
                    "time": 63.729166666666664,
                    "velocity": 0.4645669291338583,
                    "duration": 0.0833333333333357
                },
                {
                    "name": "C#5",
                    "midi": 73,
                    "time": 63.75,
                    "velocity": 0.2440944881889764,
                    "duration": 0.06458333333333144
                },
                {
                    "name": "F#3",
                    "midi": 54,
                    "time": 63.78958333333333,
                    "velocity": 0.49606299212598426,
                    "duration": 0.2708333333333215
                },
                {
                    "name": "A3",
                    "midi": 57,
                    "time": 63.92916666666666,
                    "velocity": 0.30708661417322836,
                    "duration": 0.0833333333333286
                },
                {
                    "name": "E5",
                    "midi": 76,
                    "time": 63.96666666666666,
                    "velocity": 0.5748031496062992,
                    "duration": 0.06666666666665577
                },
                {
                    "name": "E4",
                    "midi": 64,
                    "time": 63.97291666666666,
                    "velocity": 0.5511811023622047,
                    "duration": 0.04166666666665719
                },
                {
                    "name": "A4",
                    "midi": 69,
                    "time": 64.00625,
                    "velocity": 0.18110236220472442,
                    "duration": 0.08124999999999716
                },
                {
                    "name": "C#4",
                    "midi": 61,
                    "time": 64.03124999999999,
                    "velocity": 0.2047244094488189,
                    "duration": 0.08333333333334281
                },
                {
                    "name": "E4",
                    "midi": 64,
                    "time": 64.11874999999999,
                    "velocity": 0.23622047244094488,
                    "duration": 0.07500000000000284
                },
                {
                    "name": "C#4",
                    "midi": 61,
                    "time": 64.26041666666666,
                    "velocity": 0.5826771653543307,
                    "duration": 0.21041666666666003
                },
                {
                    "name": "C#5",
                    "midi": 73,
                    "time": 64.26249999999999,
                    "velocity": 0.5433070866141733,
                    "duration": 0.9416666666666629
                },
                {
                    "name": "E3",
                    "midi": 52,
                    "time": 64.28541666666665,
                    "velocity": 0.5039370078740157,
                    "duration": 0.3270833333333343
                },
                {
                    "name": "F#4",
                    "midi": 66,
                    "time": 64.31249999999999,
                    "velocity": 0.13385826771653545,
                    "duration": 0.27291666666666003
                },
                {
                    "name": "F#3",
                    "midi": 54,
                    "time": 64.44583333333331,
                    "velocity": 0.4409448818897638,
                    "duration": 0.15625
                },
                {
                    "name": "A3",
                    "midi": 57,
                    "time": 64.56458333333332,
                    "velocity": 0.2283464566929134,
                    "duration": 0.07708333333333428
                },
                {
                    "name": "C#4",
                    "midi": 61,
                    "time": 64.62291666666665,
                    "velocity": 0.3858267716535433,
                    "duration": 0.08958333333333712
                },
                {
                    "name": "E4",
                    "midi": 64,
                    "time": 64.76041666666666,
                    "velocity": 0.3858267716535433,
                    "duration": 0.09375
                },
                {
                    "name": "C#4",
                    "midi": 61,
                    "time": 64.87499999999999,
                    "velocity": 0.44881889763779526,
                    "duration": 0.17291666666666572
                },
                {
                    "name": "A3",
                    "midi": 57,
                    "time": 65.01249999999999,
                    "velocity": 0.08661417322834646,
                    "duration": 0.07916666666666572
                },
                {
                    "name": "E5",
                    "midi": 76,
                    "time": 65.18541666666665,
                    "velocity": 0.5354330708661418,
                    "duration": 0.34166666666666856
                },
                {
                    "name": "E4",
                    "midi": 64,
                    "time": 65.18749999999999,
                    "velocity": 0.5354330708661418,
                    "duration": 0.2916666666666714
                },
                {
                    "name": "A4",
                    "midi": 69,
                    "time": 65.20624999999998,
                    "velocity": 0.2992125984251969,
                    "duration": 0.28958333333333997
                },
                {
                    "name": "C#3",
                    "midi": 49,
                    "time": 65.21041666666665,
                    "velocity": 0.4645669291338583,
                    "duration": 0.26666666666667993
                },
                {
                    "name": "E3",
                    "midi": 52,
                    "time": 65.37499999999999,
                    "velocity": 0.36220472440944884,
                    "duration": 0.09375
                },
                {
                    "name": "F#3",
                    "midi": 54,
                    "time": 65.46666666666665,
                    "velocity": 0.31496062992125984,
                    "duration": 0.06458333333333144
                },
                {
                    "name": "A3",
                    "midi": 57,
                    "time": 65.54999999999998,
                    "velocity": 0.23622047244094488,
                    "duration": 0.07708333333333428
                },
                {
                    "name": "C#4",
                    "midi": 61,
                    "time": 65.65624999999999,
                    "velocity": 0.3937007874015748,
                    "duration": 0.09374999999998579
                },
                {
                    "name": "F#5",
                    "midi": 78,
                    "time": 65.67708333333331,
                    "velocity": 0.5905511811023622,
                    "duration": 0.10416666666665719
                },
                {
                    "name": "F#4",
                    "midi": 66,
                    "time": 65.67916666666665,
                    "velocity": 0.48031496062992124,
                    "duration": 0.07708333333332007
                },
                {
                    "name": "C#5",
                    "midi": 73,
                    "time": 65.71666666666664,
                    "velocity": 0.1889763779527559,
                    "duration": 0.08749999999999147
                },
                {
                    "name": "A3",
                    "midi": 57,
                    "time": 65.80624999999996,
                    "velocity": 0.33858267716535434,
                    "duration": 0.0833333333333286
                },
                {
                    "name": "F#3",
                    "midi": 54,
                    "time": 65.89583333333329,
                    "velocity": 0.3700787401574803,
                    "duration": 0.13749999999998863
                },
                {
                    "name": "E5",
                    "midi": 76,
                    "time": 65.90833333333329,
                    "velocity": 0.5984251968503937,
                    "duration": 0.04375000000000284
                },
                {
                    "name": "E4",
                    "midi": 64,
                    "time": 65.91041666666662,
                    "velocity": 0.6535433070866141,
                    "duration": 0.04375000000000284
                },
                {
                    "name": "A4",
                    "midi": 69,
                    "time": 65.93749999999996,
                    "velocity": 0.25984251968503935,
                    "duration": 0.06874999999999432
                },
                {
                    "name": "E3",
                    "midi": 52,
                    "time": 65.97708333333328,
                    "velocity": 0.3464566929133858,
                    "duration": 0.04999999999999716
                },
                {
                    "name": "C#5",
                    "midi": 73,
                    "time": 66.13124999999994,
                    "velocity": 0.5905511811023622,
                    "duration": 0.12916666666666288
                },
                {
                    "name": "C#4",
                    "midi": 61,
                    "time": 66.13958333333328,
                    "velocity": 0.5905511811023622,
                    "duration": 0.12083333333332291
                },
                {
                    "name": "B2",
                    "midi": 47,
                    "time": 66.15416666666661,
                    "velocity": 0.4645669291338583,
                    "duration": 0.6062500000000028
                },
                {
                    "name": "F#4",
                    "midi": 66,
                    "time": 66.15624999999994,
                    "velocity": 0.31496062992125984,
                    "duration": 0.06874999999999432
                },
                {
                    "name": "C#3",
                    "midi": 49,
                    "time": 66.33124999999994,
                    "velocity": 0.4409448818897638,
                    "duration": 0.16458333333333997
                },
                {
                    "name": "B3",
                    "midi": 59,
                    "time": 66.3666666666666,
                    "velocity": 0.6299212598425197,
                    "duration": 0.07083333333333997
                },
                {
                    "name": "B4",
                    "midi": 71,
                    "time": 66.36874999999993,
                    "velocity": 0.6771653543307087,
                    "duration": 0.12708333333334565
                },
                {
                    "name": "E3",
                    "midi": 52,
                    "time": 66.4104166666666,
                    "velocity": 0.23622047244094488,
                    "duration": 0.07708333333333428
                },
                {
                    "name": "E4",
                    "midi": 64,
                    "time": 66.41249999999994,
                    "velocity": 0.29133858267716534,
                    "duration": 0.056250000000005684
                },
                {
                    "name": "F#3",
                    "midi": 54,
                    "time": 66.48333333333328,
                    "velocity": 0.5354330708661418,
                    "duration": 0.13750000000000284
                },
                {
                    "name": "C#4",
                    "midi": 61,
                    "time": 66.61458333333329,
                    "velocity": 0.5590551181102362,
                    "duration": 0.12708333333333144
                },
                {
                    "name": "C#5",
                    "midi": 73,
                    "time": 66.61458333333329,
                    "velocity": 0.5196850393700787,
                    "duration": 0.1833333333333229
                },
                {
                    "name": "A3",
                    "midi": 57,
                    "time": 66.64583333333329,
                    "velocity": 0.3937007874015748,
                    "duration": 0.09583333333333144
                },
                {
                    "name": "F#4",
                    "midi": 66,
                    "time": 66.65208333333328,
                    "velocity": 0.2755905511811024,
                    "duration": 0.07083333333333997
                },
                {
                    "name": "F#3",
                    "midi": 54,
                    "time": 66.73958333333329,
                    "velocity": 0.4409448818897638,
                    "duration": 0.1874999999999858
                },
                {
                    "name": "E3",
                    "midi": 52,
                    "time": 66.89374999999994,
                    "velocity": 0.23622047244094488,
                    "duration": 0.07708333333333428
                },
                {
                    "name": "C#3",
                    "midi": 49,
                    "time": 66.90833333333327,
                    "velocity": 0.4881889763779528,
                    "duration": 0.12916666666666288
                },
                {
                    "name": "A2",
                    "midi": 45,
                    "time": 67.02916666666661,
                    "velocity": 0.49606299212598426,
                    "duration": 0.23333333333332007
                },
                {
                    "name": "E5",
                    "midi": 76,
                    "time": 67.03333333333327,
                    "velocity": 0.5669291338582677,
                    "duration": 0.24374999999999147
                },
                {
                    "name": "E4",
                    "midi": 64,
                    "time": 67.03333333333327,
                    "velocity": 0.6220472440944882,
                    "duration": 0.22708333333332575
                },
                {
                    "name": "A4",
                    "midi": 69,
                    "time": 67.0604166666666,
                    "velocity": 0.28346456692913385,
                    "duration": 0.23333333333333428
                },
                {
                    "name": "C#3",
                    "midi": 49,
                    "time": 67.18333333333327,
                    "velocity": 0.4330708661417323,
                    "duration": 0.17499999999999716
                },
                {
                    "name": "E3",
                    "midi": 52,
                    "time": 67.26874999999993,
                    "velocity": 0.3779527559055118,
                    "duration": 0.07500000000000284
                },
                {
                    "name": "F#3",
                    "midi": 54,
                    "time": 67.32708333333326,
                    "velocity": 0.48031496062992124,
                    "duration": 0.08958333333333712
                },
                {
                    "name": "F#5",
                    "midi": 78,
                    "time": 67.44583333333327,
                    "velocity": 0.6220472440944882,
                    "duration": 0.17499999999999716
                },
                {
                    "name": "F#4",
                    "midi": 66,
                    "time": 67.4479166666666,
                    "velocity": 0.48031496062992124,
                    "duration": 0.18958333333333144
                },
                {
                    "name": "A3",
                    "midi": 57,
                    "time": 67.45624999999994,
                    "velocity": 0.3858267716535433,
                    "duration": 0.11249999999999716
                },
                {
                    "name": "C#5",
                    "midi": 73,
                    "time": 67.46666666666661,
                    "velocity": 0.3700787401574803,
                    "duration": 0.14791666666666003
                },
                {
                    "name": "F#3",
                    "midi": 54,
                    "time": 67.5666666666666,
                    "velocity": 0.5275590551181102,
                    "duration": 0.17083333333333428
                },
                {
                    "name": "E3",
                    "midi": 52,
                    "time": 67.6791666666666,
                    "velocity": 0.31496062992125984,
                    "duration": 0.054166666666674246
                },
                {
                    "name": "C#3",
                    "midi": 49,
                    "time": 67.71874999999994,
                    "velocity": 0.47244094488188976,
                    "duration": 0.08124999999999716
                },
                {
                    "name": "E5",
                    "midi": 76,
                    "time": 67.86874999999993,
                    "velocity": 0.5984251968503937,
                    "duration": 0.14999999999997726
                },
                {
                    "name": "E4",
                    "midi": 64,
                    "time": 67.87499999999993,
                    "velocity": 0.5748031496062992,
                    "duration": 0.22083333333331723
                },
                {
                    "name": "G#2",
                    "midi": 44,
                    "time": 67.87708333333326,
                    "velocity": 0.7322834645669292,
                    "duration": 0.12708333333331723
                },
                {
                    "name": "A4",
                    "midi": 69,
                    "time": 67.89791666666659,
                    "velocity": 0.28346456692913385,
                    "duration": 0.08541666666666003
                },
                {
                    "name": "C#3",
                    "midi": 49,
                    "time": 68.11666666666657,
                    "velocity": 0.2047244094488189,
                    "duration": 0.10625000000000284
                },
                {
                    "name": "E3",
                    "midi": 52,
                    "time": 68.17499999999991,
                    "velocity": 0.44881889763779526,
                    "duration": 0.0729166666666714
                },
                {
                    "name": "F#3",
                    "midi": 54,
                    "time": 68.27708333333325,
                    "velocity": 0.14173228346456693,
                    "duration": 0.0625
                },
                {
                    "name": "C#5",
                    "midi": 73,
                    "time": 68.31249999999991,
                    "velocity": 0.5905511811023622,
                    "duration": 0.1770833333333428
                },
                {
                    "name": "C#4",
                    "midi": 61,
                    "time": 68.31666666666658,
                    "velocity": 0.5826771653543307,
                    "duration": 0.17500000000001137
                },
                {
                    "name": "A3",
                    "midi": 57,
                    "time": 68.32916666666658,
                    "velocity": 0.4015748031496063,
                    "duration": 0.08958333333333712
                },
                {
                    "name": "F#4",
                    "midi": 66,
                    "time": 68.33124999999991,
                    "velocity": 0.3937007874015748,
                    "duration": 0.15000000000000568
                },
                {
                    "name": "F#3",
                    "midi": 54,
                    "time": 68.42499999999991,
                    "velocity": 0.41732283464566927,
                    "duration": 0.18958333333334565
                },
                {
                    "name": "C#3",
                    "midi": 49,
                    "time": 68.61666666666659,
                    "velocity": 0.31496062992125984,
                    "duration": 0.056250000000005684
                },
                {
                    "name": "B4",
                    "midi": 71,
                    "time": 68.7791666666666,
                    "velocity": 0.6850393700787402,
                    "duration": 0.5
                },
                {
                    "name": "B3",
                    "midi": 59,
                    "time": 68.78333333333326,
                    "velocity": 0.5354330708661418,
                    "duration": 0.4437500000000085
                },
                {
                    "name": "F#2",
                    "midi": 42,
                    "time": 68.79583333333326,
                    "velocity": 0.5669291338582677,
                    "duration": 0.23125000000000284
                },
                {
                    "name": "E4",
                    "midi": 64,
                    "time": 68.79999999999993,
                    "velocity": 0.49606299212598426,
                    "duration": 0.4437500000000085
                },
                {
                    "name": "A2",
                    "midi": 45,
                    "time": 68.9229166666666,
                    "velocity": 0.30708661417322836,
                    "duration": 0.08125000000001137
                },
                {
                    "name": "C#3",
                    "midi": 49,
                    "time": 68.99374999999993,
                    "velocity": 0.4251968503937008,
                    "duration": 0.0625
                },
                {
                    "name": "E3",
                    "midi": 52,
                    "time": 69.1104166666666,
                    "velocity": 0.3858267716535433,
                    "duration": 0.06041666666666856
                },
                {
                    "name": "F#3",
                    "midi": 54,
                    "time": 69.21249999999993,
                    "velocity": 0.5433070866141733,
                    "duration": 0.052083333333328596
                },
                {
                    "name": "E3",
                    "midi": 52,
                    "time": 69.35208333333327,
                    "velocity": 0.44881889763779526,
                    "duration": 0.10000000000000853
                },
                {
                    "name": "C#3",
                    "midi": 49,
                    "time": 69.4416666666666,
                    "velocity": 0.44881889763779526,
                    "duration": 0.10208333333333997
                },
                {
                    "name": "A2",
                    "midi": 45,
                    "time": 69.54166666666661,
                    "velocity": 0.36220472440944884,
                    "duration": 0.0729166666666714
                },
                {
                    "name": "C#4",
                    "midi": 61,
                    "time": 69.67083333333329,
                    "velocity": 0.5669291338582677,
                    "duration": 0.768749999999983
                },
                {
                    "name": "E2",
                    "midi": 40,
                    "time": 69.67083333333329,
                    "velocity": 0.5984251968503937,
                    "duration": 0.23125000000000284
                },
                {
                    "name": "C#5",
                    "midi": 73,
                    "time": 69.67916666666663,
                    "velocity": 0.5039370078740157,
                    "duration": 0.6833333333333087
                },
                {
                    "name": "F#4",
                    "midi": 66,
                    "time": 69.70416666666662,
                    "velocity": 0.2755905511811024,
                    "duration": 0.5208333333333286
                },
                {
                    "name": "A2",
                    "midi": 45,
                    "time": 69.84166666666663,
                    "velocity": 0.3464566929133858,
                    "duration": 0.07708333333333428
                },
                {
                    "name": "C#3",
                    "midi": 49,
                    "time": 69.92499999999995,
                    "velocity": 0.4645669291338583,
                    "duration": 0.05833333333333712
                },
                {
                    "name": "E3",
                    "midi": 52,
                    "time": 70.04374999999996,
                    "velocity": 0.4251968503937008,
                    "duration": 0.07500000000000284
                },
                {
                    "name": "F#3",
                    "midi": 54,
                    "time": 70.14166666666662,
                    "velocity": 0.5118110236220472,
                    "duration": 0.06041666666666856
                },
                {
                    "name": "E3",
                    "midi": 52,
                    "time": 70.31041666666661,
                    "velocity": 0.3858267716535433,
                    "duration": 0.07083333333332575
                },
                {
                    "name": "C#3",
                    "midi": 49,
                    "time": 70.41458333333327,
                    "velocity": 0.30708661417322836,
                    "duration": 0.08333333333334281
                },
                {
                    "name": "A2",
                    "midi": 45,
                    "time": 70.53749999999995,
                    "velocity": 0.33858267716535434,
                    "duration": 0.1145833333333286
                },
                {
                    "name": "C#5",
                    "midi": 73,
                    "time": 70.80624999999995,
                    "velocity": 0.3464566929133858,
                    "duration": 0.39791666666666003
                },
                {
                    "name": "D#2",
                    "midi": 39,
                    "time": 70.81249999999994,
                    "velocity": 0.29133858267716534,
                    "duration": 0.18124999999999147
                },
                {
                    "name": "C#4",
                    "midi": 61,
                    "time": 70.81458333333327,
                    "velocity": 0.31496062992125984,
                    "duration": 0.2541666666666629
                },
                {
                    "name": "A#2",
                    "midi": 46,
                    "time": 70.82083333333327,
                    "velocity": 0.2440944881889764,
                    "duration": 0.18333333333333712
                },
                {
                    "name": "G4",
                    "midi": 67,
                    "time": 70.8416666666666,
                    "velocity": 0.28346456692913385,
                    "duration": 0.5520833333333428
                },
                {
                    "name": "D#3",
                    "midi": 51,
                    "time": 71.01874999999994,
                    "velocity": 0.2992125984251969,
                    "duration": 0.0625
                },
                {
                    "name": "F3",
                    "midi": 53,
                    "time": 71.17708333333327,
                    "velocity": 0.4015748031496063,
                    "duration": 0.0625
                },
                {
                    "name": "G3",
                    "midi": 55,
                    "time": 71.28333333333327,
                    "velocity": 0.31496062992125984,
                    "duration": 0.06874999999999432
                },
                {
                    "name": "C#4",
                    "midi": 61,
                    "time": 71.40416666666661,
                    "velocity": 0.4409448818897638,
                    "duration": 0.09999999999999432
                },
                {
                    "name": "D#5",
                    "midi": 75,
                    "time": 71.40833333333327,
                    "velocity": 0.4645669291338583,
                    "duration": 0.3187500000000085
                },
                {
                    "name": "D#4",
                    "midi": 63,
                    "time": 71.41249999999994,
                    "velocity": 0.36220472440944884,
                    "duration": 0.21250000000000568
                },
                {
                    "name": "A#4",
                    "midi": 70,
                    "time": 71.41249999999994,
                    "velocity": 0.31496062992125984,
                    "duration": 0.3333333333333428
                },
                {
                    "name": "G3",
                    "midi": 55,
                    "time": 71.53333333333327,
                    "velocity": 0.41732283464566927,
                    "duration": 0.07708333333333428
                },
                {
                    "name": "F3",
                    "midi": 53,
                    "time": 71.6291666666666,
                    "velocity": 0.4330708661417323,
                    "duration": 0.056250000000005684
                },
                {
                    "name": "D#3",
                    "midi": 51,
                    "time": 71.65624999999994,
                    "velocity": 0.3700787401574803,
                    "duration": 0.056250000000005684
                },
                {
                    "name": "G2",
                    "midi": 43,
                    "time": 71.79374999999995,
                    "velocity": 0.5354330708661418,
                    "duration": 0.08958333333332291
                },
                {
                    "name": "D3",
                    "midi": 50,
                    "time": 71.81874999999995,
                    "velocity": 0.49606299212598426,
                    "duration": 0.07916666666665151
                },
                {
                    "name": "E5",
                    "midi": 76,
                    "time": 71.82291666666661,
                    "velocity": 0.5196850393700787,
                    "duration": 0.16666666666664298
                },
                {
                    "name": "E4",
                    "midi": 64,
                    "time": 71.82708333333328,
                    "velocity": 0.44881889763779526,
                    "duration": 0.09791666666666288
                },
                {
                    "name": "B4",
                    "midi": 71,
                    "time": 71.82916666666661,
                    "velocity": 0.44881889763779526,
                    "duration": 0.10208333333332575
                },
                {
                    "name": "F3",
                    "midi": 53,
                    "time": 71.92291666666661,
                    "velocity": 0.6692913385826772,
                    "duration": 0.04791666666665151
                },
                {
                    "name": "A3",
                    "midi": 57,
                    "time": 72.03541666666659,
                    "velocity": 0.5039370078740157,
                    "duration": 0.054166666666660035
                },
                {
                    "name": "B3",
                    "midi": 59,
                    "time": 72.10208333333325,
                    "velocity": 0.5354330708661418,
                    "duration": 0.05833333333333712
                },
                {
                    "name": "A5",
                    "midi": 81,
                    "time": 72.21874999999993,
                    "velocity": 0.6692913385826772,
                    "duration": 0.052083333333328596
                },
                {
                    "name": "F4",
                    "midi": 65,
                    "time": 72.22083333333326,
                    "velocity": 0.4645669291338583,
                    "duration": 0.04999999999999716
                },
                {
                    "name": "A4",
                    "midi": 69,
                    "time": 72.22083333333326,
                    "velocity": 0.5354330708661418,
                    "duration": 0.12916666666666288
                },
                {
                    "name": "D5",
                    "midi": 74,
                    "time": 72.23749999999993,
                    "velocity": 0.49606299212598426,
                    "duration": 0.041666666666671404
                },
                {
                    "name": "B3",
                    "midi": 59,
                    "time": 72.31666666666659,
                    "velocity": 0.49606299212598426,
                    "duration": 0.056249999999991473
                },
                {
                    "name": "A3",
                    "midi": 57,
                    "time": 72.38958333333325,
                    "velocity": 0.4094488188976378,
                    "duration": 0.056250000000005684
                },
                {
                    "name": "F3",
                    "midi": 53,
                    "time": 72.48958333333326,
                    "velocity": 0.7795275590551181,
                    "duration": 0.03541666666666288
                },
                {
                    "name": "A#2",
                    "midi": 46,
                    "time": 72.60416666666659,
                    "velocity": 0.5354330708661418,
                    "duration": 0.1416666666666515
                },
                {
                    "name": "C#5",
                    "midi": 73,
                    "time": 72.61874999999992,
                    "velocity": 0.5511811023622047,
                    "duration": 0.12291666666665435
                },
                {
                    "name": "C#4",
                    "midi": 61,
                    "time": 72.62083333333325,
                    "velocity": 0.5984251968503937,
                    "duration": 0.08541666666666003
                },
                {
                    "name": "D#2",
                    "midi": 39,
                    "time": 72.62499999999991,
                    "velocity": 0.5354330708661418,
                    "duration": 0.11874999999999147
                },
                {
                    "name": "G4",
                    "midi": 67,
                    "time": 72.63958333333325,
                    "velocity": 0.5118110236220472,
                    "duration": 0.24374999999996305
                },
                {
                    "name": "D#3",
                    "midi": 51,
                    "time": 72.74166666666657,
                    "velocity": 0.5984251968503937,
                    "duration": 0.04583333333332007
                },
                {
                    "name": "D#5",
                    "midi": 75,
                    "time": 72.80833333333322,
                    "velocity": 0.6141732283464567,
                    "duration": 0.11666666666666003
                },
                {
                    "name": "D#4",
                    "midi": 63,
                    "time": 72.81458333333322,
                    "velocity": 0.5748031496062992,
                    "duration": 0.10208333333332575
                },
                {
                    "name": "A#4",
                    "midi": 70,
                    "time": 72.82708333333322,
                    "velocity": 0.4015748031496063,
                    "duration": 0.13333333333333997
                },
                {
                    "name": "F3",
                    "midi": 53,
                    "time": 72.84999999999988,
                    "velocity": 0.7480314960629921,
                    "duration": 0.10000000000000853
                },
                {
                    "name": "G3",
                    "midi": 55,
                    "time": 72.95208333333322,
                    "velocity": 0.3543307086614173,
                    "duration": 0.06041666666668277
                },
                {
                    "name": "G4",
                    "midi": 67,
                    "time": 73.00416666666656,
                    "velocity": 0.5748031496062992,
                    "duration": 0.10000000000000853
                },
                {
                    "name": "C#5",
                    "midi": 73,
                    "time": 73.00416666666656,
                    "velocity": 0.5905511811023622,
                    "duration": 0.1979166666666714
                },
                {
                    "name": "C#4",
                    "midi": 61,
                    "time": 73.0187499999999,
                    "velocity": 0.6535433070866141,
                    "duration": 0.06041666666666856
                },
                {
                    "name": "G3",
                    "midi": 55,
                    "time": 73.0874999999999,
                    "velocity": 0.4330708661417323,
                    "duration": 0.11666666666666003
                },
                {
                    "name": "D#5",
                    "midi": 75,
                    "time": 73.17708333333324,
                    "velocity": 0.6377952755905512,
                    "duration": 0.1312499999999801
                },
                {
                    "name": "D#4",
                    "midi": 63,
                    "time": 73.17916666666657,
                    "velocity": 0.6141732283464567,
                    "duration": 0.11249999999998295
                },
                {
                    "name": "A#4",
                    "midi": 70,
                    "time": 73.18541666666657,
                    "velocity": 0.47244094488188976,
                    "duration": 0.14374999999998295
                },
                {
                    "name": "F3",
                    "midi": 53,
                    "time": 73.19791666666657,
                    "velocity": 0.44881889763779526,
                    "duration": 0.056249999999991473
                },
                {
                    "name": "D#3",
                    "midi": 51,
                    "time": 73.2062499999999,
                    "velocity": 0.5511811023622047,
                    "duration": 0.04583333333333428
                },
                {
                    "name": "G2",
                    "midi": 43,
                    "time": 73.33124999999988,
                    "velocity": 0.6141732283464567,
                    "duration": 0.09583333333333144
                },
                {
                    "name": "D3",
                    "midi": 50,
                    "time": 73.35833333333322,
                    "velocity": 0.6535433070866141,
                    "duration": 0.08749999999999147
                },
                {
                    "name": "E5",
                    "midi": 76,
                    "time": 73.37083333333322,
                    "velocity": 0.6850393700787402,
                    "duration": 0.15208333333333712
                },
                {
                    "name": "B4",
                    "midi": 71,
                    "time": 73.37083333333322,
                    "velocity": 0.5826771653543307,
                    "duration": 0.09999999999999432
                },
                {
                    "name": "E4",
                    "midi": 64,
                    "time": 73.37708333333322,
                    "velocity": 0.6220472440944882,
                    "duration": 0.09166666666666856
                },
                {
                    "name": "F3",
                    "midi": 53,
                    "time": 73.45624999999988,
                    "velocity": 0.6614173228346457,
                    "duration": 0.041666666666671404
                },
                {
                    "name": "A3",
                    "midi": 57,
                    "time": 73.57916666666657,
                    "velocity": 0.5669291338582677,
                    "duration": 0.052083333333328596
                },
                {
                    "name": "B3",
                    "midi": 59,
                    "time": 73.63333333333323,
                    "velocity": 0.5984251968503937,
                    "duration": 0.07500000000000284
                },
                {
                    "name": "A5",
                    "midi": 81,
                    "time": 73.73958333333323,
                    "velocity": 0.6535433070866141,
                    "duration": 0.125
                },
                {
                    "name": "A4",
                    "midi": 69,
                    "time": 73.74166666666656,
                    "velocity": 0.5669291338582677,
                    "duration": 0.04791666666666572
                },
                {
                    "name": "F4",
                    "midi": 65,
                    "time": 73.74166666666656,
                    "velocity": 0.6141732283464567,
                    "duration": 0.11666666666667425
                },
                {
                    "name": "D5",
                    "midi": 74,
                    "time": 73.74166666666656,
                    "velocity": 0.6614173228346457,
                    "duration": 0.056250000000005684
                },
                {
                    "name": "B3",
                    "midi": 59,
                    "time": 73.83958333333324,
                    "velocity": 0.5590551181102362,
                    "duration": 0.12708333333331723
                },
                {
                    "name": "A3",
                    "midi": 57,
                    "time": 73.89999999999989,
                    "velocity": 0.5748031496062992,
                    "duration": 0.09999999999999432
                },
                {
                    "name": "F3",
                    "midi": 53,
                    "time": 73.99374999999989,
                    "velocity": 0.5275590551181102,
                    "duration": 0.052083333333328596
                },
                {
                    "name": "D#3",
                    "midi": 51,
                    "time": 74.11249999999988,
                    "velocity": 0.5905511811023622,
                    "duration": 0.11875000000000568
                },
                {
                    "name": "A#3",
                    "midi": 58,
                    "time": 74.12083333333322,
                    "velocity": 0.48031496062992124,
                    "duration": 0.125
                },
                {
                    "name": "C#6",
                    "midi": 85,
                    "time": 74.12499999999989,
                    "velocity": 0.6141732283464567,
                    "duration": 0.22083333333333144
                },
                {
                    "name": "C#5",
                    "midi": 73,
                    "time": 74.13541666666656,
                    "velocity": 0.4881889763779528,
                    "duration": 0.1458333333333286
                },
                {
                    "name": "G5",
                    "midi": 79,
                    "time": 74.14166666666655,
                    "velocity": 0.5669291338582677,
                    "duration": 0.3499999999999801
                },
                {
                    "name": "D#4",
                    "midi": 63,
                    "time": 74.21874999999989,
                    "velocity": 0.6220472440944882,
                    "duration": 0.041666666666671404
                },
                {
                    "name": "F4",
                    "midi": 65,
                    "time": 74.32291666666656,
                    "velocity": 0.5511811023622047,
                    "duration": 0.1416666666666515
                },
                {
                    "name": "G4",
                    "midi": 67,
                    "time": 74.39583333333321,
                    "velocity": 0.49606299212598426,
                    "duration": 0.06874999999999432
                },
                {
                    "name": "D#6",
                    "midi": 87,
                    "time": 74.48541666666654,
                    "velocity": 0.6771653543307087,
                    "duration": 0.26458333333332007
                },
                {
                    "name": "D#5",
                    "midi": 75,
                    "time": 74.4895833333332,
                    "velocity": 0.6377952755905512,
                    "duration": 0.21041666666666003
                },
                {
                    "name": "A#5",
                    "midi": 82,
                    "time": 74.49374999999986,
                    "velocity": 0.5669291338582677,
                    "duration": 0.3062499999999915
                },
                {
                    "name": "C#5",
                    "midi": 73,
                    "time": 74.4958333333332,
                    "velocity": 0.6377952755905512,
                    "duration": 0.07083333333333997
                },
                {
                    "name": "G4",
                    "midi": 67,
                    "time": 74.57916666666654,
                    "velocity": 0.4566929133858268,
                    "duration": 0.11874999999999147
                },
                {
                    "name": "F4",
                    "midi": 65,
                    "time": 74.66041666666653,
                    "velocity": 0.41732283464566927,
                    "duration": 0.06666666666666288
                },
                {
                    "name": "D#4",
                    "midi": 63,
                    "time": 74.73333333333319,
                    "velocity": 0.5748031496062992,
                    "duration": 0.039583333333325754
                },
                {
                    "name": "B5",
                    "midi": 83,
                    "time": 74.8395833333332,
                    "velocity": 0.8582677165354331,
                    "duration": 0.056249999999991473
                },
                {
                    "name": "G3",
                    "midi": 55,
                    "time": 74.8395833333332,
                    "velocity": 0.7480314960629921,
                    "duration": 0.09583333333331723
                },
                {
                    "name": "D4",
                    "midi": 62,
                    "time": 74.84374999999986,
                    "velocity": 0.7007874015748031,
                    "duration": 0.10208333333331154
                },
                {
                    "name": "E5",
                    "midi": 76,
                    "time": 74.84374999999986,
                    "velocity": 0.6850393700787402,
                    "duration": 0.039583333333325754
                },
                {
                    "name": "E6",
                    "midi": 88,
                    "time": 74.84583333333319,
                    "velocity": 0.7401574803149606,
                    "duration": 0.09583333333331723
                },
                {
                    "name": "F4",
                    "midi": 65,
                    "time": 74.95624999999984,
                    "velocity": 0.4409448818897638,
                    "duration": 0.04583333333333428
                },
                {
                    "name": "A4",
                    "midi": 69,
                    "time": 75.0541666666665,
                    "velocity": 0.5748031496062992,
                    "duration": 0.06458333333333144
                },
                {
                    "name": "B4",
                    "midi": 71,
                    "time": 75.12708333333318,
                    "velocity": 0.6377952755905512,
                    "duration": 0.06458333333333144
                },
                {
                    "name": "A6",
                    "midi": 93,
                    "time": 75.20208333333318,
                    "velocity": 0.7322834645669292,
                    "duration": 0.13125000000000853
                },
                {
                    "name": "A5",
                    "midi": 81,
                    "time": 75.21041666666652,
                    "velocity": 0.6535433070866141,
                    "duration": 0.056249999999991473
                },
                {
                    "name": "D6",
                    "midi": 86,
                    "time": 75.21666666666651,
                    "velocity": 0.6377952755905512,
                    "duration": 0.052083333333328596
                },
                {
                    "name": "F5",
                    "midi": 77,
                    "time": 75.22083333333318,
                    "velocity": 0.6692913385826772,
                    "duration": 0.1041666666666714
                },
                {
                    "name": "B4",
                    "midi": 71,
                    "time": 75.33541666666652,
                    "velocity": 0.6692913385826772,
                    "duration": 0.1041666666666714
                },
                {
                    "name": "A4",
                    "midi": 69,
                    "time": 75.37708333333319,
                    "velocity": 0.5669291338582677,
                    "duration": 0.09583333333333144
                },
                {
                    "name": "D#4",
                    "midi": 63,
                    "time": 75.55833333333318,
                    "velocity": 0.6535433070866141,
                    "duration": 0.08749999999999147
                },
                {
                    "name": "A#4",
                    "midi": 70,
                    "time": 75.56458333333318,
                    "velocity": 0.6141732283464567,
                    "duration": 0.11041666666665151
                },
                {
                    "name": "C#7",
                    "midi": 97,
                    "time": 75.57916666666651,
                    "velocity": 0.6299212598425197,
                    "duration": 0.1416666666666515
                },
                {
                    "name": "C#6",
                    "midi": 85,
                    "time": 75.58333333333317,
                    "velocity": 0.6614173228346457,
                    "duration": 0.10416666666664298
                },
                {
                    "name": "G6",
                    "midi": 91,
                    "time": 75.59583333333318,
                    "velocity": 0.5826771653543307,
                    "duration": 0.10624999999997442
                },
                {
                    "name": "D#5",
                    "midi": 75,
                    "time": 75.66874999999983,
                    "velocity": 0.5826771653543307,
                    "duration": 0.04374999999998863
                },
                {
                    "name": "D#6",
                    "midi": 87,
                    "time": 75.76458333333316,
                    "velocity": 0.5275590551181102,
                    "duration": 0.12708333333331723
                },
                {
                    "name": "D#7",
                    "midi": 99,
                    "time": 75.7666666666665,
                    "velocity": 0.6614173228346457,
                    "duration": 0.11666666666666003
                },
                {
                    "name": "F5",
                    "midi": 77,
                    "time": 75.77083333333316,
                    "velocity": 0.6377952755905512,
                    "duration": 0.11874999999999147
                },
                {
                    "name": "A#6",
                    "midi": 94,
                    "time": 75.78958333333316,
                    "velocity": 0.4566929133858268,
                    "duration": 0.12708333333333144
                },
                {
                    "name": "G5",
                    "midi": 79,
                    "time": 75.84999999999982,
                    "velocity": 0.6220472440944882,
                    "duration": 0.06666666666666288
                },
                {
                    "name": "C#6",
                    "midi": 85,
                    "time": 75.92916666666649,
                    "velocity": 0.7086614173228346,
                    "duration": 0.07708333333332007
                },
                {
                    "name": "G6",
                    "midi": 91,
                    "time": 75.93541666666648,
                    "velocity": 0.7244094488188977,
                    "duration": 0.09791666666666288
                },
                {
                    "name": "C#7",
                    "midi": 97,
                    "time": 75.93749999999982,
                    "velocity": 0.6850393700787402,
                    "duration": 0.11874999999999147
                },
                {
                    "name": "G5",
                    "midi": 79,
                    "time": 76.03124999999982,
                    "velocity": 0.5511811023622047,
                    "duration": 0.14374999999998295
                },
                {
                    "name": "D#6",
                    "midi": 87,
                    "time": 76.11041666666647,
                    "velocity": 0.6535433070866141,
                    "duration": 0.10833333333332007
                },
                {
                    "name": "D#7",
                    "midi": 99,
                    "time": 76.11666666666646,
                    "velocity": 0.6929133858267716,
                    "duration": 0.12291666666665435
                },
                {
                    "name": "F5",
                    "midi": 77,
                    "time": 76.11666666666646,
                    "velocity": 0.5433070866141733,
                    "duration": 0.04375000000000284
                },
                {
                    "name": "A#6",
                    "midi": 94,
                    "time": 76.1312499999998,
                    "velocity": 0.4881889763779528,
                    "duration": 0.14374999999998295
                },
                {
                    "name": "D#5",
                    "midi": 75,
                    "time": 76.15833333333313,
                    "velocity": 0.5511811023622047,
                    "duration": 0.037499999999994316
                },
                {
                    "name": "D5",
                    "midi": 74,
                    "time": 76.29374999999978,
                    "velocity": 0.7716535433070866,
                    "duration": 0.08958333333332291
                },
                {
                    "name": "G4",
                    "midi": 67,
                    "time": 76.2958333333331,
                    "velocity": 0.6535433070866141,
                    "duration": 0.04999999999999716
                },
                {
                    "name": "E7",
                    "midi": 100,
                    "time": 76.29791666666644,
                    "velocity": 0.7637795275590551,
                    "duration": 0.12291666666665435
                },
                {
                    "name": "E6",
                    "midi": 88,
                    "time": 76.29999999999977,
                    "velocity": 0.6692913385826772,
                    "duration": 0.06458333333333144
                },
                {
                    "name": "B6",
                    "midi": 95,
                    "time": 76.31249999999977,
                    "velocity": 0.4251968503937008,
                    "duration": 0.05833333333332291
                },
                {
                    "name": "F5",
                    "midi": 77,
                    "time": 76.37916666666644,
                    "velocity": 0.6377952755905512,
                    "duration": 0.04791666666665151
                },
                {
                    "name": "A5",
                    "midi": 81,
                    "time": 76.50416666666642,
                    "velocity": 0.6141732283464567,
                    "duration": 0.052083333333328596
                },
                {
                    "name": "B5",
                    "midi": 83,
                    "time": 76.56874999999975,
                    "velocity": 0.7637795275590551,
                    "duration": 0.054166666666660035
                },
                {
                    "name": "F6",
                    "midi": 89,
                    "time": 76.68958333333308,
                    "velocity": 0.6929133858267716,
                    "duration": 0.11249999999999716
                },
                {
                    "name": "A7",
                    "midi": 105,
                    "time": 76.68958333333308,
                    "velocity": 0.8267716535433071,
                    "duration": 0.12083333333332291
                },
                {
                    "name": "A6",
                    "midi": 93,
                    "time": 76.6916666666664,
                    "velocity": 0.7637795275590551,
                    "duration": 0.16458333333332575
                },
                {
                    "name": "D7",
                    "midi": 98,
                    "time": 76.6916666666664,
                    "velocity": 0.8110236220472441,
                    "duration": 0.11249999999999716
                },
                {
                    "name": "B5",
                    "midi": 83,
                    "time": 76.80833333333307,
                    "velocity": 0.7716535433070866,
                    "duration": 0.14791666666666003
                },
                {
                    "name": "A5",
                    "midi": 81,
                    "time": 76.88958333333306,
                    "velocity": 0.6062992125984252,
                    "duration": 0.09791666666666288
                },
                {
                    "name": "F5",
                    "midi": 77,
                    "time": 76.97291666666639,
                    "velocity": 0.5590551181102362,
                    "duration": 0.03541666666666288
                },
                {
                    "name": "G5",
                    "midi": 79,
                    "time": 77.17083333333305,
                    "velocity": 0.7874015748031497,
                    "duration": 0.09791666666666288
                },
                {
                    "name": "D6",
                    "midi": 86,
                    "time": 77.17291666666638,
                    "velocity": 0.7007874015748031,
                    "duration": 0.1416666666666515
                },
                {
                    "name": "A#4",
                    "midi": 70,
                    "time": 77.18749999999972,
                    "velocity": 0.7007874015748031,
                    "duration": 0.2562499999999943
                },
                {
                    "name": "D#5",
                    "midi": 75,
                    "time": 77.18749999999972,
                    "velocity": 0.7637795275590551,
                    "duration": 0.26874999999999716
                },
                {
                    "name": "D#4",
                    "midi": 63,
                    "time": 77.18958333333305,
                    "velocity": 0.7322834645669292,
                    "duration": 0.2145833333333229
                },
                {
                    "name": "D#6",
                    "midi": 87,
                    "time": 77.27083333333304,
                    "velocity": 0.4409448818897638,
                    "duration": 0.09583333333331723
                },
                {
                    "name": "G6",
                    "midi": 91,
                    "time": 77.27708333333304,
                    "velocity": 0.6141732283464567,
                    "duration": 0.11249999999999716
                },
                {
                    "name": "G5",
                    "midi": 79,
                    "time": 77.3687499999997,
                    "velocity": 0.6062992125984252,
                    "duration": 0.09791666666667709
                },
                {
                    "name": "D6",
                    "midi": 86,
                    "time": 77.3687499999997,
                    "velocity": 0.6614173228346457,
                    "duration": 0.11250000000001137
                },
                {
                    "name": "G6",
                    "midi": 91,
                    "time": 77.46249999999971,
                    "velocity": 0.5354330708661418,
                    "duration": 0.07291666666665719
                },
                {
                    "name": "D#6",
                    "midi": 87,
                    "time": 77.46249999999971,
                    "velocity": 0.4881889763779528,
                    "duration": 0.12708333333333144
                },
                {
                    "name": "D6",
                    "midi": 86,
                    "time": 77.5437499999997,
                    "velocity": 0.6141732283464567,
                    "duration": 0.09375
                },
                {
                    "name": "G5",
                    "midi": 79,
                    "time": 77.54583333333304,
                    "velocity": 0.5748031496062992,
                    "duration": 0.09375
                },
                {
                    "name": "G6",
                    "midi": 91,
                    "time": 77.6437499999997,
                    "velocity": 0.5511811023622047,
                    "duration": 0.09375
                },
                {
                    "name": "D#6",
                    "midi": 87,
                    "time": 77.6562499999997,
                    "velocity": 0.47244094488188976,
                    "duration": 0.08124999999999716
                },
                {
                    "name": "A#6",
                    "midi": 94,
                    "time": 77.65833333333303,
                    "velocity": 0.7637795275590551,
                    "duration": 0.04999999999999716
                },
                {
                    "name": "G5",
                    "midi": 79,
                    "time": 77.71666666666637,
                    "velocity": 0.5511811023622047,
                    "duration": 0.09375
                },
                {
                    "name": "D6",
                    "midi": 86,
                    "time": 77.72291666666636,
                    "velocity": 0.5039370078740157,
                    "duration": 0.09791666666667709
                },
                {
                    "name": "G6",
                    "midi": 91,
                    "time": 77.82083333333304,
                    "velocity": 0.5511811023622047,
                    "duration": 0.07083333333333997
                },
                {
                    "name": "D#6",
                    "midi": 87,
                    "time": 77.82916666666638,
                    "velocity": 0.3779527559055118,
                    "duration": 0.08124999999999716
                },
                {
                    "name": "G5",
                    "midi": 79,
                    "time": 77.89791666666638,
                    "velocity": 0.44881889763779526,
                    "duration": 0.07500000000000284
                },
                {
                    "name": "D6",
                    "midi": 86,
                    "time": 77.89999999999971,
                    "velocity": 0.49606299212598426,
                    "duration": 0.08333333333334281
                },
                {
                    "name": "G6",
                    "midi": 91,
                    "time": 77.99583333333305,
                    "velocity": 0.5511811023622047,
                    "duration": 0.07291666666665719
                },
                {
                    "name": "D#6",
                    "midi": 87,
                    "time": 78.01666666666638,
                    "velocity": 0.2677165354330709,
                    "duration": 0.06666666666666288
                },
                {
                    "name": "D6",
                    "midi": 86,
                    "time": 78.08124999999971,
                    "velocity": 0.4409448818897638,
                    "duration": 0.056249999999991473
                },
                {
                    "name": "G5",
                    "midi": 79,
                    "time": 78.08333333333304,
                    "velocity": 0.36220472440944884,
                    "duration": 0.06041666666665435
                },
                {
                    "name": "G6",
                    "midi": 91,
                    "time": 78.1749999999997,
                    "velocity": 0.44881889763779526,
                    "duration": 0.05833333333333712
                },
                {
                    "name": "D#6",
                    "midi": 87,
                    "time": 78.17708333333303,
                    "velocity": 0.31496062992125984,
                    "duration": 0.08125000000001137
                },
                {
                    "name": "G5",
                    "midi": 79,
                    "time": 78.26041666666637,
                    "velocity": 0.2755905511811024,
                    "duration": 0.0625
                },
                {
                    "name": "D6",
                    "midi": 86,
                    "time": 78.26041666666637,
                    "velocity": 0.33858267716535434,
                    "duration": 0.06041666666666856
                },
                {
                    "name": "G6",
                    "midi": 91,
                    "time": 78.33124999999971,
                    "velocity": 0.4566929133858268,
                    "duration": 0.06458333333333144
                },
                {
                    "name": "D#6",
                    "midi": 87,
                    "time": 78.34374999999972,
                    "velocity": 0.36220472440944884,
                    "duration": 0.06458333333333144
                },
                {
                    "name": "D6",
                    "midi": 86,
                    "time": 78.41041666666638,
                    "velocity": 0.2204724409448819,
                    "duration": 0.07291666666665719
                },
                {
                    "name": "G5",
                    "midi": 79,
                    "time": 78.41666666666637,
                    "velocity": 0.28346456692913385,
                    "duration": 0.06458333333333144
                },
                {
                    "name": "G6",
                    "midi": 91,
                    "time": 78.49791666666637,
                    "velocity": 0.4251968503937008,
                    "duration": 0.06874999999999432
                },
                {
                    "name": "D#6",
                    "midi": 87,
                    "time": 78.51458333333304,
                    "velocity": 0.28346456692913385,
                    "duration": 0.06666666666666288
                },
                {
                    "name": "G5",
                    "midi": 79,
                    "time": 78.56458333333303,
                    "velocity": 0.4251968503937008,
                    "duration": 0.07083333333332575
                },
                {
                    "name": "D6",
                    "midi": 86,
                    "time": 78.5687499999997,
                    "velocity": 0.4015748031496063,
                    "duration": 0.07708333333333428
                },
                {
                    "name": "G6",
                    "midi": 91,
                    "time": 78.66458333333303,
                    "velocity": 0.48031496062992124,
                    "duration": 0.1041666666666714
                },
                {
                    "name": "D#6",
                    "midi": 87,
                    "time": 78.68541666666636,
                    "velocity": 0.2125984251968504,
                    "duration": 0.07500000000000284
                },
                {
                    "name": "A#5",
                    "midi": 82,
                    "time": 78.6937499999997,
                    "velocity": 0.8031496062992126,
                    "duration": 0.08541666666667425
                },
                {
                    "name": "D#5",
                    "midi": 75,
                    "time": 78.69999999999969,
                    "velocity": 0.7007874015748031,
                    "duration": 0.04375000000000284
                },
                {
                    "name": "D6",
                    "midi": 86,
                    "time": 78.7437499999997,
                    "velocity": 0.47244094488188976,
                    "duration": 0.125
                },
                {
                    "name": "G5",
                    "midi": 79,
                    "time": 78.74583333333302,
                    "velocity": 0.48031496062992124,
                    "duration": 0.08750000000000568
                },
                {
                    "name": "G6",
                    "midi": 91,
                    "time": 78.8374999999997,
                    "velocity": 0.5826771653543307,
                    "duration": 0.08749999999999147
                },
                {
                    "name": "D#6",
                    "midi": 87,
                    "time": 78.84166666666636,
                    "velocity": 0.4094488188976378,
                    "duration": 0.1145833333333286
                },
                {
                    "name": "G5",
                    "midi": 79,
                    "time": 78.92291666666635,
                    "velocity": 0.4094488188976378,
                    "duration": 0.10416666666665719
                },
                {
                    "name": "D6",
                    "midi": 86,
                    "time": 78.93333333333302,
                    "velocity": 0.5433070866141733,
                    "duration": 0.07499999999998863
                },
                {
                    "name": "G6",
                    "midi": 91,
                    "time": 79.03124999999967,
                    "velocity": 0.5196850393700787,
                    "duration": 0.10833333333334849
                },
                {
                    "name": "D#6",
                    "midi": 87,
                    "time": 79.03958333333301,
                    "velocity": 0.31496062992125984,
                    "duration": 0.11250000000001137
                },
                {
                    "name": "A#6",
                    "midi": 94,
                    "time": 79.11041666666635,
                    "velocity": 0.7874015748031497,
                    "duration": 0.10624999999998863
                },
                {
                    "name": "G5",
                    "midi": 79,
                    "time": 79.12083333333302,
                    "velocity": 0.4409448818897638,
                    "duration": 0.08958333333332291
                },
                {
                    "name": "D6",
                    "midi": 86,
                    "time": 79.13749999999969,
                    "velocity": 0.5354330708661418,
                    "duration": 0.052083333333328596
                },
                {
                    "name": "G6",
                    "midi": 91,
                    "time": 79.22499999999968,
                    "velocity": 0.49606299212598426,
                    "duration": 0.06874999999999432
                },
                {
                    "name": "D#6",
                    "midi": 87,
                    "time": 79.22499999999968,
                    "velocity": 0.4645669291338583,
                    "duration": 0.12291666666666856
                },
                {
                    "name": "G5",
                    "midi": 79,
                    "time": 79.32083333333301,
                    "velocity": 0.3464566929133858,
                    "duration": 0.06250000000001421
                },
                {
                    "name": "D6",
                    "midi": 86,
                    "time": 79.32083333333301,
                    "velocity": 0.5354330708661418,
                    "duration": 0.054166666666674246
                },
                {
                    "name": "G6",
                    "midi": 91,
                    "time": 79.40833333333303,
                    "velocity": 0.5275590551181102,
                    "duration": 0.07083333333332575
                },
                {
                    "name": "D#6",
                    "midi": 87,
                    "time": 79.41458333333303,
                    "velocity": 0.4330708661417323,
                    "duration": 0.08749999999999147
                },
                {
                    "name": "D6",
                    "midi": 86,
                    "time": 79.50208333333302,
                    "velocity": 0.4645669291338583,
                    "duration": 0.05208333333334281
                },
                {
                    "name": "G5",
                    "midi": 79,
                    "time": 79.51249999999969,
                    "velocity": 0.2440944881889764,
                    "duration": 0.06875000000000853
                },
                {
                    "name": "G6",
                    "midi": 91,
                    "time": 79.58541666666636,
                    "velocity": 0.49606299212598426,
                    "duration": 0.0625
                },
                {
                    "name": "D#6",
                    "midi": 87,
                    "time": 79.5874999999997,
                    "velocity": 0.3464566929133858,
                    "duration": 0.07083333333332575
                },
                {
                    "name": "G5",
                    "midi": 79,
                    "time": 79.65208333333302,
                    "velocity": 0.47244094488188976,
                    "duration": 0.07708333333332007
                },
                {
                    "name": "D6",
                    "midi": 86,
                    "time": 79.65833333333302,
                    "velocity": 0.33858267716535434,
                    "duration": 0.06666666666666288
                },
                {
                    "name": "G6",
                    "midi": 91,
                    "time": 79.74374999999968,
                    "velocity": 0.4251968503937008,
                    "duration": 0.06458333333334565
                },
                {
                    "name": "D#6",
                    "midi": 87,
                    "time": 79.75208333333302,
                    "velocity": 0.3228346456692913,
                    "duration": 0.07083333333333997
                },
                {
                    "name": "D6",
                    "midi": 86,
                    "time": 79.80833333333302,
                    "velocity": 0.4015748031496063,
                    "duration": 0.09583333333333144
                },
                {
                    "name": "G5",
                    "midi": 79,
                    "time": 79.81458333333302,
                    "velocity": 0.4330708661417323,
                    "duration": 0.07083333333333997
                },
                {
                    "name": "G6",
                    "midi": 91,
                    "time": 79.90416666666636,
                    "velocity": 0.4409448818897638,
                    "duration": 0.06041666666666856
                },
                {
                    "name": "D#6",
                    "midi": 87,
                    "time": 79.9124999999997,
                    "velocity": 0.3700787401574803,
                    "duration": 0.06458333333333144
                },
                {
                    "name": "G5",
                    "midi": 79,
                    "time": 79.97708333333303,
                    "velocity": 0.33070866141732286,
                    "duration": 0.08541666666666003
                },
                {
                    "name": "D6",
                    "midi": 86,
                    "time": 79.97916666666636,
                    "velocity": 0.44881889763779526,
                    "duration": 0.07916666666666572
                },
                {
                    "name": "G6",
                    "midi": 91,
                    "time": 80.07083333333303,
                    "velocity": 0.49606299212598426,
                    "duration": 0.10416666666665719
                },
                {
                    "name": "D#6",
                    "midi": 87,
                    "time": 80.07291666666636,
                    "velocity": 0.4330708661417323,
                    "duration": 0.07083333333333997
                },
                {
                    "name": "A#5",
                    "midi": 82,
                    "time": 80.16666666666636,
                    "velocity": 0.7480314960629921,
                    "duration": 0.04166666666665719
                },
                {
                    "name": "D#5",
                    "midi": 75,
                    "time": 80.17291666666635,
                    "velocity": 0.6535433070866141,
                    "duration": 0.03541666666666288
                },
                {
                    "name": "G5",
                    "midi": 79,
                    "time": 80.27916666666636,
                    "velocity": 0.6929133858267716,
                    "duration": 0.1666666666666714
                },
                {
                    "name": "D6",
                    "midi": 86,
                    "time": 80.39791666666636,
                    "velocity": 0.6141732283464567,
                    "duration": 0.14791666666667425
                },
                {
                    "name": "G6",
                    "midi": 91,
                    "time": 80.48958333333303,
                    "velocity": 0.5511811023622047,
                    "duration": 0.07916666666666572
                },
                {
                    "name": "A#6",
                    "midi": 94,
                    "time": 80.57708333333304,
                    "velocity": 0.7165354330708661,
                    "duration": 0.03333333333333144
                },
                {
                    "name": "D#6",
                    "midi": 87,
                    "time": 80.61874999999971,
                    "velocity": 0.11811023622047244,
                    "duration": 0.06458333333333144
                },
                {
                    "name": "G6",
                    "midi": 91,
                    "time": 80.6687499999997,
                    "velocity": 0.49606299212598426,
                    "duration": 0.17916666666666003
                },
                {
                    "name": "D6",
                    "midi": 86,
                    "time": 80.78333333333303,
                    "velocity": 0.5748031496062992,
                    "duration": 0.09999999999999432
                },
                {
                    "name": "G5",
                    "midi": 79,
                    "time": 80.89166666666637,
                    "velocity": 0.4409448818897638,
                    "duration": 0.052083333333328596
                },
                {
                    "name": "A#5",
                    "midi": 82,
                    "time": 80.95208333333304,
                    "velocity": 0.6220472440944882,
                    "duration": 0.037499999999994316
                },
                {
                    "name": "D#5",
                    "midi": 75,
                    "time": 80.96666666666637,
                    "velocity": 0.5354330708661418,
                    "duration": 0.04166666666665719
                },
                {
                    "name": "G5",
                    "midi": 79,
                    "time": 81.06666666666636,
                    "velocity": 0.4330708661417323,
                    "duration": 0.13125000000000853
                },
                {
                    "name": "D5",
                    "midi": 74,
                    "time": 81.17291666666637,
                    "velocity": 0.4251968503937008,
                    "duration": 0.04791666666666572
                },
                {
                    "name": "G4",
                    "midi": 67,
                    "time": 81.2624999999997,
                    "velocity": 0.4645669291338583,
                    "duration": 0.054166666666660035
                },
                {
                    "name": "A#4",
                    "midi": 70,
                    "time": 81.33958333333302,
                    "velocity": 0.4251968503937008,
                    "duration": 0.04999999999999716
                },
                {
                    "name": "D#4",
                    "midi": 63,
                    "time": 81.35624999999969,
                    "velocity": 0.3779527559055118,
                    "duration": 0.052083333333328596
                },
                {
                    "name": "G4",
                    "midi": 67,
                    "time": 81.42916666666635,
                    "velocity": 0.30708661417322836,
                    "duration": 0.08750000000000568
                },
                {
                    "name": "D4",
                    "midi": 62,
                    "time": 81.52083333333302,
                    "velocity": 0.3937007874015748,
                    "duration": 0.05833333333333712
                },
                {
                    "name": "G3",
                    "midi": 55,
                    "time": 81.60624999999969,
                    "velocity": 0.5196850393700787,
                    "duration": 0.07916666666666572
                },
                {
                    "name": "A#3",
                    "midi": 58,
                    "time": 81.70833333333302,
                    "velocity": 0.5039370078740157,
                    "duration": 0.04583333333333428
                },
                {
                    "name": "D#3",
                    "midi": 51,
                    "time": 81.71041666666635,
                    "velocity": 0.5354330708661418,
                    "duration": 0.04375000000000284
                },
                {
                    "name": "G3",
                    "midi": 55,
                    "time": 81.80833333333301,
                    "velocity": 0.25196850393700787,
                    "duration": 0.0625
                },
                {
                    "name": "D4",
                    "midi": 62,
                    "time": 81.88958333333301,
                    "velocity": 0.4881889763779528,
                    "duration": 0.10625000000000284
                },
                {
                    "name": "G4",
                    "midi": 67,
                    "time": 81.98541666666634,
                    "velocity": 0.3937007874015748,
                    "duration": 0.05833333333333712
                },
                {
                    "name": "A#4",
                    "midi": 70,
                    "time": 82.08124999999967,
                    "velocity": 0.6220472440944882,
                    "duration": 0.041666666666671404
                },
                {
                    "name": "D#4",
                    "midi": 63,
                    "time": 82.08958333333301,
                    "velocity": 0.6220472440944882,
                    "duration": 0.039583333333325754
                },
                {
                    "name": "G4",
                    "midi": 67,
                    "time": 82.227083333333,
                    "velocity": 0.2047244094488189,
                    "duration": 0.07916666666666572
                },
                {
                    "name": "A4",
                    "midi": 69,
                    "time": 82.24374999999966,
                    "velocity": 0.2047244094488189,
                    "duration": 0.0833333333333286
                },
                {
                    "name": "D#5",
                    "midi": 75,
                    "time": 82.28749999999967,
                    "velocity": 0.5511811023622047,
                    "duration": 0.039583333333325754
                },
                {
                    "name": "D5",
                    "midi": 74,
                    "time": 82.370833333333,
                    "velocity": 0.2677165354330709,
                    "duration": 0.06666666666666288
                },
                {
                    "name": "G5",
                    "midi": 79,
                    "time": 82.402083333333,
                    "velocity": 0.5118110236220472,
                    "duration": 0.04999999999999716
                },
                {
                    "name": "A#5",
                    "midi": 82,
                    "time": 82.477083333333,
                    "velocity": 0.6929133858267716,
                    "duration": 0.041666666666671404
                },
                {
                    "name": "D#5",
                    "midi": 75,
                    "time": 82.489583333333,
                    "velocity": 0.5984251968503937,
                    "duration": 0.041666666666671404
                },
                {
                    "name": "G5",
                    "midi": 79,
                    "time": 82.564583333333,
                    "velocity": 0.47244094488188976,
                    "duration": 0.1145833333333286
                },
                {
                    "name": "D6",
                    "midi": 86,
                    "time": 82.677083333333,
                    "velocity": 0.5826771653543307,
                    "duration": 0.12708333333333144
                },
                {
                    "name": "G6",
                    "midi": 91,
                    "time": 82.75624999999967,
                    "velocity": 0.5433070866141733,
                    "duration": 0.0625
                },
                {
                    "name": "A#6",
                    "midi": 94,
                    "time": 82.84999999999967,
                    "velocity": 0.6929133858267716,
                    "duration": 0.03333333333334565
                },
                {
                    "name": "D#6",
                    "midi": 87,
                    "time": 82.85833333333301,
                    "velocity": 0.5748031496062992,
                    "duration": 0.04791666666666572
                },
                {
                    "name": "G6",
                    "midi": 91,
                    "time": 82.95416666666634,
                    "velocity": 0.5669291338582677,
                    "duration": 0.13750000000000284
                },
                {
                    "name": "D6",
                    "midi": 86,
                    "time": 83.03541666666634,
                    "velocity": 0.5039370078740157,
                    "duration": 0.14166666666666572
                },
                {
                    "name": "G5",
                    "midi": 79,
                    "time": 83.11874999999968,
                    "velocity": 0.6220472440944882,
                    "duration": 0.052083333333328596
                },
                {
                    "name": "A#5",
                    "midi": 82,
                    "time": 83.208333333333,
                    "velocity": 0.6771653543307087,
                    "duration": 0.037500000000008527
                },
                {
                    "name": "D#5",
                    "midi": 75,
                    "time": 83.21874999999967,
                    "velocity": 0.5826771653543307,
                    "duration": 0.039583333333339965
                },
                {
                    "name": "G5",
                    "midi": 79,
                    "time": 83.30624999999968,
                    "velocity": 0.5905511811023622,
                    "duration": 0.09375
                },
                {
                    "name": "D6",
                    "midi": 86,
                    "time": 83.39166666666634,
                    "velocity": 0.47244094488188976,
                    "duration": 0.1291666666666771
                },
                {
                    "name": "G6",
                    "midi": 91,
                    "time": 83.49166666666635,
                    "velocity": 0.4645669291338583,
                    "duration": 0.0625
                },
                {
                    "name": "A#6",
                    "midi": 94,
                    "time": 83.58333333333302,
                    "velocity": 0.5905511811023622,
                    "duration": 0.04374999999998863
                },
                {
                    "name": "D#6",
                    "midi": 87,
                    "time": 83.60624999999968,
                    "velocity": 0.4094488188976378,
                    "duration": 0.07708333333333428
                },
                {
                    "name": "G6",
                    "midi": 91,
                    "time": 83.69999999999968,
                    "velocity": 0.3937007874015748,
                    "duration": 0.06666666666666288
                },
                {
                    "name": "D6",
                    "midi": 86,
                    "time": 83.78124999999967,
                    "velocity": 0.36220472440944884,
                    "duration": 0.15625
                },
                {
                    "name": "G5",
                    "midi": 79,
                    "time": 83.85624999999968,
                    "velocity": 0.4409448818897638,
                    "duration": 0.06041666666666856
                },
                {
                    "name": "D#5",
                    "midi": 75,
                    "time": 83.96458333333301,
                    "velocity": 0.5748031496062992,
                    "duration": 0.039583333333325754
                },
                {
                    "name": "A#5",
                    "midi": 82,
                    "time": 83.96666666666634,
                    "velocity": 0.5669291338582677,
                    "duration": 0.052083333333328596
                },
                {
                    "name": "G5",
                    "midi": 79,
                    "time": 84.07291666666633,
                    "velocity": 0.4645669291338583,
                    "duration": 0.07083333333333997
                },
                {
                    "name": "D6",
                    "midi": 86,
                    "time": 84.16666666666633,
                    "velocity": 0.3779527559055118,
                    "duration": 0.12291666666666856
                },
                {
                    "name": "G6",
                    "midi": 91,
                    "time": 84.23749999999967,
                    "velocity": 0.4015748031496063,
                    "duration": 0.0625
                },
                {
                    "name": "A#6",
                    "midi": 94,
                    "time": 84.33749999999966,
                    "velocity": 0.4881889763779528,
                    "duration": 0.04791666666666572
                },
                {
                    "name": "D#6",
                    "midi": 87,
                    "time": 84.36041666666632,
                    "velocity": 0.33070866141732286,
                    "duration": 0.08333333333334281
                },
                {
                    "name": "G6",
                    "midi": 91,
                    "time": 84.44166666666634,
                    "velocity": 0.3858267716535433,
                    "duration": 0.11458333333334281
                },
                {
                    "name": "D6",
                    "midi": 86,
                    "time": 84.54583333333301,
                    "velocity": 0.3700787401574803,
                    "duration": 0.14791666666666003
                },
                {
                    "name": "G5",
                    "midi": 79,
                    "time": 84.63958333333301,
                    "velocity": 0.4094488188976378,
                    "duration": 0.0625
                },
                {
                    "name": "A#5",
                    "midi": 82,
                    "time": 84.76041666666634,
                    "velocity": 0.4015748031496063,
                    "duration": 0.10000000000000853
                },
                {
                    "name": "D#5",
                    "midi": 75,
                    "time": 84.77083333333302,
                    "velocity": 0.36220472440944884,
                    "duration": 0.05833333333333712
                },
                {
                    "name": "G5",
                    "midi": 79,
                    "time": 84.87499999999969,
                    "velocity": 0.4251968503937008,
                    "duration": 0.07708333333333428
                },
                {
                    "name": "D6",
                    "midi": 86,
                    "time": 84.97708333333303,
                    "velocity": 0.3543307086614173,
                    "duration": 0.13958333333333428
                },
                {
                    "name": "G6",
                    "midi": 91,
                    "time": 85.07291666666636,
                    "velocity": 0.33858267716535434,
                    "duration": 0.08541666666667425
                },
                {
                    "name": "A#6",
                    "midi": 94,
                    "time": 85.1812499999997,
                    "velocity": 0.3858267716535433,
                    "duration": 0.06041666666666856
                },
                {
                    "name": "D#6",
                    "midi": 87,
                    "time": 85.20833333333303,
                    "velocity": 0.2677165354330709,
                    "duration": 0.0625
                },
                {
                    "name": "D6",
                    "midi": 86,
                    "time": 85.43541666666637,
                    "velocity": 0.31496062992125984,
                    "duration": 0.1145833333333286
                },
                {
                    "name": "A#5",
                    "midi": 82,
                    "time": 85.67083333333304,
                    "velocity": 0.2440944881889764,
                    "duration": 0.2020833333333485
                },
                {
                    "name": "D5",
                    "midi": 74,
                    "time": 85.67916666666638,
                    "velocity": 0.28346456692913385,
                    "duration": 0.17291666666667993
                },
                {
                    "name": "G5",
                    "midi": 79,
                    "time": 85.94374999999972,
                    "velocity": 0.2283464566929134,
                    "duration": 0.11249999999999716
                },
                {
                    "name": "D6",
                    "midi": 86,
                    "time": 85.94583333333306,
                    "velocity": 0.25196850393700787,
                    "duration": 0.2291666666666714
                },
                {
                    "name": "A#6",
                    "midi": 94,
                    "time": 86.26874999999973,
                    "velocity": 0.1968503937007874,
                    "duration": 0.16458333333332575
                },
                {
                    "name": "G6",
                    "midi": 91,
                    "time": 86.27499999999972,
                    "velocity": 0.2125984251968504,
                    "duration": 0.08958333333332291
                },
                {
                    "name": "D#6",
                    "midi": 87,
                    "time": 86.28124999999972,
                    "velocity": 0.18110236220472442,
                    "duration": 0.09166666666666856
                },
                {
                    "name": "D6",
                    "midi": 86,
                    "time": 86.63749999999972,
                    "velocity": 0.2677165354330709,
                    "duration": 0.06458333333334565
                },
                {
                    "name": "G5",
                    "midi": 79,
                    "time": 86.66249999999972,
                    "velocity": 0.11811023622047244,
                    "duration": 0.08333333333334281
                },
                {
                    "name": "F#5",
                    "midi": 78,
                    "time": 86.87499999999973,
                    "velocity": 0.33070866141732286,
                    "duration": 0.056250000000005684
                },
                {
                    "name": "C#5",
                    "midi": 73,
                    "time": 87.27708333333307,
                    "velocity": 0.25196850393700787,
                    "duration": 0.39791666666666003
                },
                {
                    "name": "G#5",
                    "midi": 80,
                    "time": 87.2854166666664,
                    "velocity": 0.30708661417322836,
                    "duration": 0.31041666666665435
                },
                {
                    "name": "D#6",
                    "midi": 87,
                    "time": 87.28749999999974,
                    "velocity": 0.1889763779527559,
                    "duration": 0.4395833333333172
                },
                {
                    "name": "B5",
                    "midi": 83,
                    "time": 87.31874999999974,
                    "velocity": 0.4015748031496063,
                    "duration": 0.3437499999999858
                },
                {
                    "name": "A#5",
                    "midi": 82,
                    "time": 87.59374999999973,
                    "velocity": 0.14173228346456693,
                    "duration": 0.08124999999999716
                },
                {
                    "name": "F5",
                    "midi": 77,
                    "time": 87.63958333333306,
                    "velocity": 0.05511811023622047,
                    "duration": 0.06458333333333144
                },
                {
                    "name": "A#5",
                    "midi": 82,
                    "time": 87.81041666666638,
                    "velocity": 0.1732283464566929,
                    "duration": 0.21041666666667425
                },
                {
                    "name": "F5",
                    "midi": 77,
                    "time": 87.81249999999972,
                    "velocity": 0.18110236220472442,
                    "duration": 0.09166666666668277
                },
                {
                    "name": "F6",
                    "midi": 89,
                    "time": 87.82083333333306,
                    "velocity": 0.49606299212598426,
                    "duration": 0.21875
                },
                {
                    "name": "C#6",
                    "midi": 85,
                    "time": 87.84583333333306,
                    "velocity": 0.31496062992125984,
                    "duration": 0.19166666666666288
                },
                {
                    "name": "G#5",
                    "midi": 80,
                    "time": 88.04583333333305,
                    "velocity": 0.31496062992125984,
                    "duration": 0.05833333333333712
                },
                {
                    "name": "C#5",
                    "midi": 73,
                    "time": 88.06458333333305,
                    "velocity": 0.14173228346456693,
                    "duration": 0.07916666666667993
                },
                {
                    "name": "C#6",
                    "midi": 85,
                    "time": 88.27083333333306,
                    "velocity": 0.41732283464566927,
                    "duration": 0.33541666666668846
                },
                {
                    "name": "F#5",
                    "midi": 78,
                    "time": 88.27499999999972,
                    "velocity": 0.31496062992125984,
                    "duration": 0.08541666666667425
                },
                {
                    "name": "B4",
                    "midi": 71,
                    "time": 88.28541666666639,
                    "velocity": 0.33858267716535434,
                    "duration": 0.09375
                },
                {
                    "name": "A5",
                    "midi": 81,
                    "time": 88.2979166666664,
                    "velocity": 0.25196850393700787,
                    "duration": 0.22708333333333997
                },
                {
                    "name": "G#5",
                    "midi": 80,
                    "time": 88.50208333333306,
                    "velocity": 0.3228346456692913,
                    "duration": 0.06250000000001421
                },
                {
                    "name": "D#5",
                    "midi": 75,
                    "time": 88.51249999999973,
                    "velocity": 0.2992125984251969,
                    "duration": 0.06250000000001421
                },
                {
                    "name": "G#6",
                    "midi": 92,
                    "time": 88.72916666666642,
                    "velocity": 0.4094488188976378,
                    "duration": 0.11250000000002558
                },
                {
                    "name": "G#5",
                    "midi": 80,
                    "time": 88.73958333333309,
                    "velocity": 0.3464566929133858,
                    "duration": 0.07500000000001705
                },
                {
                    "name": "D#6",
                    "midi": 87,
                    "time": 88.74999999999976,
                    "velocity": 0.30708661417322836,
                    "duration": 0.06875000000000853
                },
                {
                    "name": "D#5",
                    "midi": 75,
                    "time": 88.7583333333331,
                    "velocity": 0.1968503937007874,
                    "duration": 0.06875000000000853
                },
                {
                    "name": "C#6",
                    "midi": 85,
                    "time": 88.94791666666644,
                    "velocity": 0.49606299212598426,
                    "duration": 0.12291666666666856
                },
                {
                    "name": "B4",
                    "midi": 71,
                    "time": 88.96041666666645,
                    "velocity": 0.3937007874015748,
                    "duration": 0.05833333333333712
                },
                {
                    "name": "F#5",
                    "midi": 78,
                    "time": 88.96041666666645,
                    "velocity": 0.36220472440944884,
                    "duration": 0.06041666666666856
                },
                {
                    "name": "A5",
                    "midi": 81,
                    "time": 88.96874999999979,
                    "velocity": 0.3779527559055118,
                    "duration": 0.04791666666666572
                },
                {
                    "name": "D#6",
                    "midi": 87,
                    "time": 89.18333333333311,
                    "velocity": 0.49606299212598426,
                    "duration": 0.21875
                },
                {
                    "name": "C#5",
                    "midi": 73,
                    "time": 89.19166666666644,
                    "velocity": 0.2992125984251969,
                    "duration": 0.13333333333332575
                },
                {
                    "name": "B5",
                    "midi": 83,
                    "time": 89.19791666666643,
                    "velocity": 0.6535433070866141,
                    "duration": 0.1458333333333428
                },
                {
                    "name": "G#5",
                    "midi": 80,
                    "time": 89.2145833333331,
                    "velocity": 0.2047244094488189,
                    "duration": 0.08541666666666003
                },
                {
                    "name": "A#5",
                    "midi": 82,
                    "time": 89.40624999999977,
                    "velocity": 0.28346456692913385,
                    "duration": 0.0729166666666714
                },
                {
                    "name": "F5",
                    "midi": 77,
                    "time": 89.43333333333311,
                    "velocity": 0.2440944881889764,
                    "duration": 0.06041666666666856
                },
                {
                    "name": "F6",
                    "midi": 89,
                    "time": 89.62708333333312,
                    "velocity": 0.5984251968503937,
                    "duration": 0.16249999999999432
                },
                {
                    "name": "A#5",
                    "midi": 82,
                    "time": 89.64999999999978,
                    "velocity": 0.2755905511811024,
                    "duration": 0.07500000000000284
                },
                {
                    "name": "C#6",
                    "midi": 85,
                    "time": 89.64999999999978,
                    "velocity": 0.3937007874015748,
                    "duration": 0.11041666666666572
                },
                {
                    "name": "F5",
                    "midi": 77,
                    "time": 89.64999999999978,
                    "velocity": 0.14173228346456693,
                    "duration": 0.0729166666666714
                },
                {
                    "name": "C#5",
                    "midi": 73,
                    "time": 89.84999999999978,
                    "velocity": 0.2992125984251969,
                    "duration": 0.056249999999991473
                },
                {
                    "name": "G#5",
                    "midi": 80,
                    "time": 89.85208333333311,
                    "velocity": 0.2992125984251969,
                    "duration": 0.07083333333332575
                },
                {
                    "name": "C#6",
                    "midi": 85,
                    "time": 90.0708333333331,
                    "velocity": 0.4330708661417323,
                    "duration": 0.2812499999999858
                },
                {
                    "name": "F#5",
                    "midi": 78,
                    "time": 90.07291666666643,
                    "velocity": 0.33070866141732286,
                    "duration": 0.08958333333332291
                },
                {
                    "name": "B4",
                    "midi": 71,
                    "time": 90.07291666666643,
                    "velocity": 0.41732283464566927,
                    "duration": 0.0833333333333286
                },
                {
                    "name": "A5",
                    "midi": 81,
                    "time": 90.11874999999976,
                    "velocity": 0.2047244094488189,
                    "duration": 0.21249999999999147
                },
                {
                    "name": "G#5",
                    "midi": 80,
                    "time": 90.29374999999975,
                    "velocity": 0.31496062992125984,
                    "duration": 0.06458333333333144
                },
                {
                    "name": "D#5",
                    "midi": 75,
                    "time": 90.30416666666642,
                    "velocity": 0.3228346456692913,
                    "duration": 0.06041666666665435
                },
                {
                    "name": "G#6",
                    "midi": 92,
                    "time": 90.51458333333308,
                    "velocity": 0.3937007874015748,
                    "duration": 0.12708333333334565
                },
                {
                    "name": "G#5",
                    "midi": 80,
                    "time": 90.52708333333308,
                    "velocity": 0.3464566929133858,
                    "duration": 0.07083333333333997
                },
                {
                    "name": "D#6",
                    "midi": 87,
                    "time": 90.52916666666641,
                    "velocity": 0.2992125984251969,
                    "duration": 0.06666666666667709
                },
                {
                    "name": "D#5",
                    "midi": 75,
                    "time": 90.53749999999975,
                    "velocity": 0.28346456692913385,
                    "duration": 0.05833333333333712
                },
                {
                    "name": "C#6",
                    "midi": 85,
                    "time": 90.72708333333308,
                    "velocity": 0.44881889763779526,
                    "duration": 0.08124999999998295
                },
                {
                    "name": "F#5",
                    "midi": 78,
                    "time": 90.73958333333309,
                    "velocity": 0.2992125984251969,
                    "duration": 0.06249999999998579
                },
                {
                    "name": "A5",
                    "midi": 81,
                    "time": 90.74583333333308,
                    "velocity": 0.33858267716535434,
                    "duration": 0.054166666666660035
                },
                {
                    "name": "B4",
                    "midi": 71,
                    "time": 90.74999999999974,
                    "velocity": 0.1732283464566929,
                    "duration": 0.05833333333332291
                },
                {
                    "name": "C#5",
                    "midi": 73,
                    "time": 90.96874999999973,
                    "velocity": 0.3228346456692913,
                    "duration": 0.12708333333333144
                },
                {
                    "name": "D#6",
                    "midi": 87,
                    "time": 90.97291666666639,
                    "velocity": 0.4251968503937008,
                    "duration": 0.1875
                },
                {
                    "name": "B5",
                    "midi": 83,
                    "time": 90.97708333333306,
                    "velocity": 0.6141732283464567,
                    "duration": 0.10000000000000853
                },
                {
                    "name": "G#5",
                    "midi": 80,
                    "time": 90.9854166666664,
                    "velocity": 0.25984251968503935,
                    "duration": 0.08124999999999716
                },
                {
                    "name": "A#5",
                    "midi": 82,
                    "time": 91.18124999999972,
                    "velocity": 0.29133858267716534,
                    "duration": 0.06666666666666288
                },
                {
                    "name": "F5",
                    "midi": 77,
                    "time": 91.20416666666638,
                    "velocity": 0.2440944881889764,
                    "duration": 0.0625
                },
                {
                    "name": "F6",
                    "midi": 89,
                    "time": 91.41458333333304,
                    "velocity": 0.5669291338582677,
                    "duration": 0.11458333333334281
                },
                {
                    "name": "A#5",
                    "midi": 82,
                    "time": 91.42083333333304,
                    "velocity": 0.25196850393700787,
                    "duration": 0.10000000000000853
                },
                {
                    "name": "C#6",
                    "midi": 85,
                    "time": 91.43124999999971,
                    "velocity": 0.4015748031496063,
                    "duration": 0.05833333333333712
                },
                {
                    "name": "F5",
                    "midi": 77,
                    "time": 91.44374999999971,
                    "velocity": 0.12598425196850394,
                    "duration": 0.07083333333333997
                },
                {
                    "name": "G#5",
                    "midi": 80,
                    "time": 91.63958333333305,
                    "velocity": 0.31496062992125984,
                    "duration": 0.05833333333333712
                },
                {
                    "name": "C#5",
                    "midi": 73,
                    "time": 91.63958333333305,
                    "velocity": 0.23622047244094488,
                    "duration": 0.06666666666667709
                },
                {
                    "name": "C#6",
                    "midi": 85,
                    "time": 91.84999999999972,
                    "velocity": 0.44881889763779526,
                    "duration": 0.14166666666666572
                },
                {
                    "name": "F#5",
                    "midi": 78,
                    "time": 91.86249999999973,
                    "velocity": 0.3464566929133858,
                    "duration": 0.09375
                },
                {
                    "name": "B4",
                    "midi": 71,
                    "time": 91.86249999999973,
                    "velocity": 0.3937007874015748,
                    "duration": 0.07500000000000284
                },
                {
                    "name": "A5",
                    "midi": 81,
                    "time": 91.8916666666664,
                    "velocity": 0.31496062992125984,
                    "duration": 0.05833333333333712
                },
                {
                    "name": "D#5",
                    "midi": 75,
                    "time": 92.08333333333306,
                    "velocity": 0.33070866141732286,
                    "duration": 0.0625
                },
                {
                    "name": "G#5",
                    "midi": 80,
                    "time": 92.08541666666639,
                    "velocity": 0.31496062992125984,
                    "duration": 0.05833333333333712
                },
                {
                    "name": "D#6",
                    "midi": 87,
                    "time": 92.28333333333306,
                    "velocity": 0.47244094488188976,
                    "duration": 0.12291666666665435
                },
                {
                    "name": "B5",
                    "midi": 83,
                    "time": 92.30624999999972,
                    "velocity": 0.6299212598425197,
                    "duration": 0.04791666666666572
                },
                {
                    "name": "G#5",
                    "midi": 80,
                    "time": 92.30833333333305,
                    "velocity": 0.33858267716535434,
                    "duration": 0.06874999999999432
                },
                {
                    "name": "D#5",
                    "midi": 75,
                    "time": 92.31249999999972,
                    "velocity": 0.30708661417322836,
                    "duration": 0.0625
                },
                {
                    "name": "F#5",
                    "midi": 78,
                    "time": 92.50208333333305,
                    "velocity": 0.3779527559055118,
                    "duration": 0.05833333333333712
                },
                {
                    "name": "B4",
                    "midi": 71,
                    "time": 92.52916666666638,
                    "velocity": 0.2755905511811024,
                    "duration": 0.0729166666666714
                },
                {
                    "name": "A4",
                    "midi": 69,
                    "time": 92.74166666666639,
                    "velocity": 0.31496062992125984,
                    "duration": 0.10208333333333997
                },
                {
                    "name": "B5",
                    "midi": 83,
                    "time": 92.74166666666639,
                    "velocity": 0.6377952755905512,
                    "duration": 0.14791666666667425
                },
                {
                    "name": "E5",
                    "midi": 76,
                    "time": 92.75208333333306,
                    "velocity": 0.29133858267716534,
                    "duration": 0.16041666666666288
                },
                {
                    "name": "G5",
                    "midi": 79,
                    "time": 92.76249999999973,
                    "velocity": 0.3937007874015748,
                    "duration": 0.06666666666666288
                },
                {
                    "name": "F#5",
                    "midi": 78,
                    "time": 92.96874999999973,
                    "velocity": 0.3228346456692913,
                    "duration": 0.06041666666666856
                },
                {
                    "name": "C#5",
                    "midi": 73,
                    "time": 92.97708333333307,
                    "velocity": 0.2677165354330709,
                    "duration": 0.06666666666666288
                },
                {
                    "name": "C#6",
                    "midi": 85,
                    "time": 93.1979166666664,
                    "velocity": 0.49606299212598426,
                    "duration": 0.13958333333333428
                },
                {
                    "name": "C#5",
                    "midi": 73,
                    "time": 93.19999999999973,
                    "velocity": 0.25984251968503935,
                    "duration": 0.06875000000000853
                },
                {
                    "name": "F#5",
                    "midi": 78,
                    "time": 93.19999999999973,
                    "velocity": 0.33858267716535434,
                    "duration": 0.1458333333333428
                },
                {
                    "name": "A5",
                    "midi": 81,
                    "time": 93.22708333333307,
                    "velocity": 0.33858267716535434,
                    "duration": 0.06458333333333144
                },
                {
                    "name": "A4",
                    "midi": 69,
                    "time": 93.4291666666664,
                    "velocity": 0.2204724409448819,
                    "duration": 0.07916666666666572
                },
                {
                    "name": "E5",
                    "midi": 76,
                    "time": 93.43124999999974,
                    "velocity": 0.25196850393700787,
                    "duration": 0.06458333333333144
                },
                {
                    "name": "A#5",
                    "midi": 82,
                    "time": 93.68333333333307,
                    "velocity": 0.33070866141732286,
                    "duration": 0.2604166666666714
                },
                {
                    "name": "G#4",
                    "midi": 68,
                    "time": 93.68749999999973,
                    "velocity": 0.28346456692913385,
                    "duration": 0.2562500000000085
                },
                {
                    "name": "D#5",
                    "midi": 75,
                    "time": 93.69583333333307,
                    "velocity": 0.31496062992125984,
                    "duration": 0.2708333333333286
                },
                {
                    "name": "F#5",
                    "midi": 78,
                    "time": 93.70624999999974,
                    "velocity": 0.2677165354330709,
                    "duration": 0.20000000000000284
                },
                {
                    "name": "F5",
                    "midi": 77,
                    "time": 93.9666666666664,
                    "velocity": 0.1968503937007874,
                    "duration": 0.07291666666665719
                },
                {
                    "name": "C5",
                    "midi": 72,
                    "time": 93.9854166666664,
                    "velocity": 0.10236220472440945,
                    "duration": 0.08958333333332291
                },
                {
                    "name": "G#5",
                    "midi": 80,
                    "time": 94.23749999999971,
                    "velocity": 0.2677165354330709,
                    "duration": 0.14999999999999147
                },
                {
                    "name": "C6",
                    "midi": 84,
                    "time": 94.23958333333304,
                    "velocity": 0.4251968503937008,
                    "duration": 0.12291666666665435
                },
                {
                    "name": "C5",
                    "midi": 72,
                    "time": 94.24583333333304,
                    "velocity": 0.06299212598425197,
                    "duration": 0.18541666666666856
                },
                {
                    "name": "F5",
                    "midi": 77,
                    "time": 94.25208333333303,
                    "velocity": 0.2440944881889764,
                    "duration": 0.25208333333334565
                },
                {
                    "name": "G#4",
                    "midi": 68,
                    "time": 94.50416666666638,
                    "velocity": 0.2440944881889764,
                    "duration": 0.07083333333333997
                },
                {
                    "name": "D#5",
                    "midi": 75,
                    "time": 94.51249999999972,
                    "velocity": 0.31496062992125984,
                    "duration": 0.07500000000000284
                },
                {
                    "name": "A#5",
                    "midi": 82,
                    "time": 94.84583333333306,
                    "velocity": 0.5196850393700787,
                    "duration": 0.19583333333331154
                },
                {
                    "name": "C5",
                    "midi": 72,
                    "time": 94.88124999999972,
                    "velocity": 0.25984251968503935,
                    "duration": 0.09166666666665435
                },
                {
                    "name": "D#4",
                    "midi": 63,
                    "time": 94.88333333333306,
                    "velocity": 0.28346456692913385,
                    "duration": 0.15416666666665435
                },
                {
                    "name": "G#3",
                    "midi": 56,
                    "time": 94.88749999999972,
                    "velocity": 0.16535433070866143,
                    "duration": 0.14791666666666003
                },
                {
                    "name": "F#4",
                    "midi": 66,
                    "time": 94.89166666666638,
                    "velocity": 0.11811023622047244,
                    "duration": 0.15416666666665435
                },
                {
                    "name": "F#5",
                    "midi": 78,
                    "time": 94.89791666666638,
                    "velocity": 0.18110236220472442,
                    "duration": 0.08750000000000568
                },
                {
                    "name": "A#4",
                    "midi": 70,
                    "time": 95.16458333333304,
                    "velocity": 0.2204724409448819,
                    "duration": 0.07500000000000284
                },
                {
                    "name": "C6",
                    "midi": 84,
                    "time": 95.36458333333304,
                    "velocity": 0.6771653543307087,
                    "duration": 0.039583333333339965
                },
                {
                    "name": "F#5",
                    "midi": 78,
                    "time": 95.37708333333305,
                    "velocity": 0.44881889763779526,
                    "duration": 0.3125
                },
                {
                    "name": "G#5",
                    "midi": 80,
                    "time": 95.39583333333304,
                    "velocity": 0.31496062992125984,
                    "duration": 0.054166666666674246
                },
                {
                    "name": "A#4",
                    "midi": 70,
                    "time": 95.40624999999972,
                    "velocity": 0.14960629921259844,
                    "duration": 0.07708333333333428
                },
                {
                    "name": "C5",
                    "midi": 72,
                    "time": 95.43124999999972,
                    "velocity": 0.09448818897637795,
                    "duration": 0.11249999999999716
                },
                {
                    "name": "G#4",
                    "midi": 68,
                    "time": 95.60624999999972,
                    "velocity": 0.36220472440944884,
                    "duration": 0.07708333333333428
                },
                {
                    "name": "G#5",
                    "midi": 80,
                    "time": 95.84791666666638,
                    "velocity": 0.5984251968503937,
                    "duration": 0.2229166666666771
                },
                {
                    "name": "A#4",
                    "midi": 70,
                    "time": 95.86041666666638,
                    "velocity": 0.36220472440944884,
                    "duration": 0.20625000000001137
                },
                {
                    "name": "E4",
                    "midi": 64,
                    "time": 95.86874999999972,
                    "velocity": 0.3228346456692913,
                    "duration": 0.1458333333333428
                },
                {
                    "name": "F#3",
                    "midi": 54,
                    "time": 95.87708333333306,
                    "velocity": 0.30708661417322836,
                    "duration": 0.13750000000000284
                },
                {
                    "name": "E5",
                    "midi": 76,
                    "time": 95.88124999999972,
                    "velocity": 0.23622047244094488,
                    "duration": 0.25208333333333144
                },
                {
                    "name": "C#4",
                    "midi": 61,
                    "time": 95.88333333333306,
                    "velocity": 0.25984251968503935,
                    "duration": 0.12291666666666856
                },
                {
                    "name": "G#4",
                    "midi": 68,
                    "time": 96.09374999999972,
                    "velocity": 0.2992125984251969,
                    "duration": 0.06875000000000853
                },
                {
                    "name": "G#5",
                    "midi": 80,
                    "time": 96.35833333333306,
                    "velocity": 0.4015748031496063,
                    "duration": 0.06875000000000853
                },
                {
                    "name": "D#6",
                    "midi": 87,
                    "time": 96.35833333333306,
                    "velocity": 0.5196850393700787,
                    "duration": 0.04375000000000284
                },
                {
                    "name": "A#5",
                    "midi": 82,
                    "time": 96.38333333333307,
                    "velocity": 0.2992125984251969,
                    "duration": 0.06041666666666856
                },
                {
                    "name": "E5",
                    "midi": 76,
                    "time": 96.43749999999974,
                    "velocity": 0.05511811023622047,
                    "duration": 0.11249999999999716
                },
                {
                    "name": "F#5",
                    "midi": 78,
                    "time": 96.61874999999974,
                    "velocity": 0.2992125984251969,
                    "duration": 0.0625
                },
                {
                    "name": "A#5",
                    "midi": 82,
                    "time": 96.83124999999973,
                    "velocity": 0.5118110236220472,
                    "duration": 0.13541666666664298
                },
                {
                    "name": "C5",
                    "midi": 72,
                    "time": 96.84791666666639,
                    "velocity": 0.3937007874015748,
                    "duration": 0.0687499999999801
                },
                {
                    "name": "F#4",
                    "midi": 66,
                    "time": 96.85208333333306,
                    "velocity": 0.2755905511811024,
                    "duration": 0.14999999999999147
                },
                {
                    "name": "F#5",
                    "midi": 78,
                    "time": 96.85833333333305,
                    "velocity": 0.31496062992125984,
                    "duration": 0.13333333333332575
                },
                {
                    "name": "G#3",
                    "midi": 56,
                    "time": 96.87916666666638,
                    "velocity": 0.2992125984251969,
                    "duration": 0.14166666666666572
                },
                {
                    "name": "D#4",
                    "midi": 63,
                    "time": 96.87916666666638,
                    "velocity": 0.31496062992125984,
                    "duration": 0.14791666666666003
                },
                {
                    "name": "A#4",
                    "midi": 70,
                    "time": 97.09999999999971,
                    "velocity": 0.23622047244094488,
                    "duration": 0.0729166666666714
                },
                {
                    "name": "F#5",
                    "midi": 78,
                    "time": 97.31249999999972,
                    "velocity": 0.4330708661417323,
                    "duration": 0.29999999999998295
                },
                {
                    "name": "G#5",
                    "midi": 80,
                    "time": 97.33541666666638,
                    "velocity": 0.2204724409448819,
                    "duration": 0.06874999999999432
                },
                {
                    "name": "C6",
                    "midi": 84,
                    "time": 97.34166666666637,
                    "velocity": 0.12598425196850394,
                    "duration": 0.05833333333333712
                },
                {
                    "name": "A#4",
                    "midi": 70,
                    "time": 97.3562499999997,
                    "velocity": 0.2283464566929134,
                    "duration": 0.06874999999999432
                },
                {
                    "name": "C5",
                    "midi": 72,
                    "time": 97.35833333333304,
                    "velocity": 0.1732283464566929,
                    "duration": 0.08124999999999716
                },
                {
                    "name": "G#4",
                    "midi": 68,
                    "time": 97.5249999999997,
                    "velocity": 0.3779527559055118,
                    "duration": 0.0729166666666714
                },
                {
                    "name": "G#5",
                    "midi": 80,
                    "time": 97.7624999999997,
                    "velocity": 0.5039370078740157,
                    "duration": 0.22083333333333144
                },
                {
                    "name": "A#4",
                    "midi": 70,
                    "time": 97.77708333333304,
                    "velocity": 0.3228346456692913,
                    "duration": 0.20416666666666572
                },
                {
                    "name": "F#3",
                    "midi": 54,
                    "time": 97.77916666666637,
                    "velocity": 0.3937007874015748,
                    "duration": 0.15416666666666856
                },
                {
                    "name": "C#4",
                    "midi": 61,
                    "time": 97.78541666666636,
                    "velocity": 0.2992125984251969,
                    "duration": 0.15833333333334565
                },
                {
                    "name": "E4",
                    "midi": 64,
                    "time": 97.79791666666637,
                    "velocity": 0.29133858267716534,
                    "duration": 0.13750000000000284
                },
                {
                    "name": "E5",
                    "midi": 76,
                    "time": 97.80624999999971,
                    "velocity": 0.1732283464566929,
                    "duration": 0.21875
                },
                {
                    "name": "G#4",
                    "midi": 68,
                    "time": 97.97916666666637,
                    "velocity": 0.33070866141732286,
                    "duration": 0.06458333333333144
                },
                {
                    "name": "G#5",
                    "midi": 80,
                    "time": 98.21458333333304,
                    "velocity": 0.36220472440944884,
                    "duration": 0.05833333333332291
                },
                {
                    "name": "D#6",
                    "midi": 87,
                    "time": 98.21666666666637,
                    "velocity": 0.4409448818897638,
                    "duration": 0.04583333333333428
                },
                {
                    "name": "G#4",
                    "midi": 68,
                    "time": 98.2187499999997,
                    "velocity": 0.2283464566929134,
                    "duration": 0.07083333333332575
                },
                {
                    "name": "A#5",
                    "midi": 82,
                    "time": 98.2374999999997,
                    "velocity": 0.23622047244094488,
                    "duration": 0.06458333333333144
                },
                {
                    "name": "E5",
                    "midi": 76,
                    "time": 98.26666666666637,
                    "velocity": 0.08661417322834646,
                    "duration": 0.22083333333333144
                },
                {
                    "name": "F#4",
                    "midi": 66,
                    "time": 98.44166666666636,
                    "velocity": 0.2204724409448819,
                    "duration": 0.07916666666666572
                },
                {
                    "name": "F#5",
                    "midi": 78,
                    "time": 98.46041666666636,
                    "velocity": 0.31496062992125984,
                    "duration": 0.05833333333333712
                },
                {
                    "name": "A#5",
                    "midi": 82,
                    "time": 98.64166666666637,
                    "velocity": 0.5826771653543307,
                    "duration": 0.1458333333333286
                },
                {
                    "name": "F#4",
                    "midi": 66,
                    "time": 98.65208333333304,
                    "velocity": 0.2204724409448819,
                    "duration": 0.12291666666665435
                },
                {
                    "name": "C5",
                    "midi": 72,
                    "time": 98.65208333333304,
                    "velocity": 0.49606299212598426,
                    "duration": 0.054166666666674246
                },
                {
                    "name": "G#3",
                    "midi": 56,
                    "time": 98.66666666666637,
                    "velocity": 0.3937007874015748,
                    "duration": 0.08541666666666003
                },
                {
                    "name": "F#5",
                    "midi": 78,
                    "time": 98.67499999999971,
                    "velocity": 0.28346456692913385,
                    "duration": 0.06458333333333144
                },
                {
                    "name": "D#4",
                    "midi": 63,
                    "time": 98.68333333333305,
                    "velocity": 0.2992125984251969,
                    "duration": 0.07291666666664298
                },
                {
                    "name": "A#4",
                    "midi": 70,
                    "time": 98.8812499999997,
                    "velocity": 0.31496062992125984,
                    "duration": 0.07083333333333997
                },
                {
                    "name": "C6",
                    "midi": 84,
                    "time": 99.07291666666637,
                    "velocity": 0.6299212598425197,
                    "duration": 0.03541666666666288
                },
                {
                    "name": "F#5",
                    "midi": 78,
                    "time": 99.08124999999971,
                    "velocity": 0.48031496062992124,
                    "duration": 0.30624999999997726
                },
                {
                    "name": "A#4",
                    "midi": 70,
                    "time": 99.08333333333304,
                    "velocity": 0.33070866141732286,
                    "duration": 0.06874999999999432
                },
                {
                    "name": "G#5",
                    "midi": 80,
                    "time": 99.08958333333304,
                    "velocity": 0.3779527559055118,
                    "duration": 0.054166666666660035
                },
                {
                    "name": "C5",
                    "midi": 72,
                    "time": 99.12083333333304,
                    "velocity": 0.2440944881889764,
                    "duration": 0.06874999999999432
                },
                {
                    "name": "G#4",
                    "midi": 68,
                    "time": 99.28333333333303,
                    "velocity": 0.4566929133858268,
                    "duration": 0.08541666666666003
                },
                {
                    "name": "G#5",
                    "midi": 80,
                    "time": 99.51041666666636,
                    "velocity": 0.6220472440944882,
                    "duration": 0.1291666666666771
                },
                {
                    "name": "E4",
                    "midi": 64,
                    "time": 99.52291666666636,
                    "velocity": 0.4251968503937008,
                    "duration": 0.11458333333334281
                },
                {
                    "name": "A#4",
                    "midi": 70,
                    "time": 99.52291666666636,
                    "velocity": 0.3937007874015748,
                    "duration": 0.1979166666666714
                },
                {
                    "name": "F#3",
                    "midi": 54,
                    "time": 99.5249999999997,
                    "velocity": 0.4251968503937008,
                    "duration": 0.12083333333333712
                },
                {
                    "name": "C#4",
                    "midi": 61,
                    "time": 99.53333333333303,
                    "velocity": 0.3228346456692913,
                    "duration": 0.125
                },
                {
                    "name": "E5",
                    "midi": 76,
                    "time": 99.53541666666636,
                    "velocity": 0.33070866141732286,
                    "duration": 0.16458333333333997
                },
                {
                    "name": "G#4",
                    "midi": 68,
                    "time": 99.72083333333303,
                    "velocity": 0.3937007874015748,
                    "duration": 0.056250000000005684
                },
                {
                    "name": "A#5",
                    "midi": 82,
                    "time": 99.93333333333304,
                    "velocity": 0.5196850393700787,
                    "duration": 0.04374999999998863
                },
                {
                    "name": "F#5",
                    "midi": 78,
                    "time": 99.95208333333304,
                    "velocity": 0.36220472440944884,
                    "duration": 0.056249999999991473
                },
                {
                    "name": "E5",
                    "midi": 76,
                    "time": 99.95208333333304,
                    "velocity": 0.2992125984251969,
                    "duration": 0.08958333333332291
                },
                {
                    "name": "G#4",
                    "midi": 68,
                    "time": 99.95833333333303,
                    "velocity": 0.1889763779527559,
                    "duration": 0.0833333333333286
                },
                {
                    "name": "F#4",
                    "midi": 66,
                    "time": 100.13958333333302,
                    "velocity": 0.2677165354330709,
                    "duration": 0.06041666666666856
                },
                {
                    "name": "F#5",
                    "midi": 78,
                    "time": 100.33958333333302,
                    "velocity": 0.4881889763779528,
                    "duration": 0.13333333333333997
                },
                {
                    "name": "G#4",
                    "midi": 68,
                    "time": 100.35833333333302,
                    "velocity": 0.3543307086614173,
                    "duration": 0.14375000000001137
                },
                {
                    "name": "E3",
                    "midi": 52,
                    "time": 100.37083333333302,
                    "velocity": 0.44881889763779526,
                    "duration": 0.054166666666674246
                },
                {
                    "name": "D4",
                    "midi": 62,
                    "time": 100.37291666666636,
                    "velocity": 0.30708661417322836,
                    "duration": 0.06458333333334565
                },
                {
                    "name": "B3",
                    "midi": 59,
                    "time": 100.3812499999997,
                    "velocity": 0.25196850393700787,
                    "duration": 0.05833333333333712
                },
                {
                    "name": "D5",
                    "midi": 74,
                    "time": 100.3812499999997,
                    "velocity": 0.29133858267716534,
                    "duration": 0.07500000000000284
                },
                {
                    "name": "F#4",
                    "midi": 66,
                    "time": 100.54583333333304,
                    "velocity": 0.23622047244094488,
                    "duration": 0.0625
                },
                {
                    "name": "G#5",
                    "midi": 80,
                    "time": 100.7812499999997,
                    "velocity": 0.4251968503937008,
                    "duration": 0.054166666666660035
                },
                {
                    "name": "F#4",
                    "midi": 66,
                    "time": 100.78333333333303,
                    "velocity": 0.25984251968503935,
                    "duration": 0.08124999999999716
                },
                {
                    "name": "G#4",
                    "midi": 68,
                    "time": 100.7874999999997,
                    "velocity": 0.1732283464566929,
                    "duration": 0.08124999999999716
                },
                {
                    "name": "D5",
                    "midi": 74,
                    "time": 100.79791666666637,
                    "velocity": 0.2440944881889764,
                    "duration": 0.06458333333333144
                },
                {
                    "name": "E4",
                    "midi": 64,
                    "time": 100.96041666666636,
                    "velocity": 0.2204724409448819,
                    "duration": 0.06666666666666288
                },
                {
                    "name": "F5",
                    "midi": 77,
                    "time": 101.20416666666635,
                    "velocity": 0.3858267716535433,
                    "duration": 0.1458333333333286
                },
                {
                    "name": "A#3",
                    "midi": 58,
                    "time": 101.20624999999968,
                    "velocity": 0.23622047244094488,
                    "duration": 0.28958333333333997
                },
                {
                    "name": "A#4",
                    "midi": 70,
                    "time": 101.21041666666635,
                    "velocity": 0.23622047244094488,
                    "duration": 0.20625000000001137
                },
                {
                    "name": "D5",
                    "midi": 74,
                    "time": 101.22083333333302,
                    "velocity": 0.25984251968503935,
                    "duration": 0.09791666666666288
                },
                {
                    "name": "A#2",
                    "midi": 46,
                    "time": 101.22499999999968,
                    "velocity": 0.2125984251968504,
                    "duration": 0.2854166666666771
                },
                {
                    "name": "F3",
                    "midi": 53,
                    "time": 101.23124999999968,
                    "velocity": 0.4094488188976378,
                    "duration": 0.2333333333333485
                },
                {
                    "name": "F4",
                    "midi": 65,
                    "time": 101.40833333333302,
                    "velocity": 0.25984251968503935,
                    "duration": 0.056250000000005684
                },
                {
                    "name": "A#4",
                    "midi": 70,
                    "time": 101.61041666666635,
                    "velocity": 0.2755905511811024,
                    "duration": 0.08750000000000568
                },
                {
                    "name": "D4",
                    "midi": 62,
                    "time": 101.62083333333302,
                    "velocity": 0.25984251968503935,
                    "duration": 0.07500000000000284
                },
                {
                    "name": "F4",
                    "midi": 65,
                    "time": 101.8062499999997,
                    "velocity": 0.3228346456692913,
                    "duration": 0.05833333333333712
                },
                {
                    "name": "G#4",
                    "midi": 68,
                    "time": 102.0999999999997,
                    "velocity": 0.36220472440944884,
                    "duration": 0.1041666666666714
                },
                {
                    "name": "F#5",
                    "midi": 78,
                    "time": 102.0999999999997,
                    "velocity": 0.5118110236220472,
                    "duration": 0.11875000000000568
                },
                {
                    "name": "D5",
                    "midi": 74,
                    "time": 102.11458333333303,
                    "velocity": 0.3937007874015748,
                    "duration": 0.13750000000000284
                },
                {
                    "name": "E3",
                    "midi": 52,
                    "time": 102.1187499999997,
                    "velocity": 0.3858267716535433,
                    "duration": 0.0729166666666714
                },
                {
                    "name": "D4",
                    "midi": 62,
                    "time": 102.12083333333302,
                    "velocity": 0.2677165354330709,
                    "duration": 0.08958333333333712
                },
                {
                    "name": "B3",
                    "midi": 59,
                    "time": 102.13333333333303,
                    "velocity": 0.2677165354330709,
                    "duration": 0.07708333333333428
                },
                {
                    "name": "F#4",
                    "midi": 66,
                    "time": 102.32291666666637,
                    "velocity": 0.23622047244094488,
                    "duration": 0.06458333333333144
                },
                {
                    "name": "G#5",
                    "midi": 80,
                    "time": 102.56458333333303,
                    "velocity": 0.5511811023622047,
                    "duration": 0.08125000000001137
                },
                {
                    "name": "D5",
                    "midi": 74,
                    "time": 102.57916666666637,
                    "velocity": 0.28346456692913385,
                    "duration": 0.056250000000005684
                },
                {
                    "name": "G#4",
                    "midi": 68,
                    "time": 102.58749999999971,
                    "velocity": 0.05511811023622047,
                    "duration": 0.07500000000000284
                },
                {
                    "name": "F#4",
                    "midi": 66,
                    "time": 102.58749999999971,
                    "velocity": 0.13385826771653545,
                    "duration": 0.08124999999999716
                },
                {
                    "name": "E5",
                    "midi": 76,
                    "time": 102.60833333333304,
                    "velocity": 0.25984251968503935,
                    "duration": 0.056250000000005684
                },
                {
                    "name": "E4",
                    "midi": 64,
                    "time": 102.7499999999997,
                    "velocity": 0.30708661417322836,
                    "duration": 0.056250000000005684
                },
                {
                    "name": "F5",
                    "midi": 77,
                    "time": 102.99374999999971,
                    "velocity": 0.4015748031496063,
                    "duration": 0.1833333333333229
                },
                {
                    "name": "A#3",
                    "midi": 58,
                    "time": 102.9999999999997,
                    "velocity": 0.2125984251968504,
                    "duration": 0.2562499999999943
                },
                {
                    "name": "A#4",
                    "midi": 70,
                    "time": 103.0062499999997,
                    "velocity": 0.2440944881889764,
                    "duration": 0.22083333333333144
                },
                {
                    "name": "F3",
                    "midi": 53,
                    "time": 103.01041666666636,
                    "velocity": 0.4881889763779528,
                    "duration": 0.18333333333333712
                },
                {
                    "name": "D5",
                    "midi": 74,
                    "time": 103.01458333333302,
                    "velocity": 0.28346456692913385,
                    "duration": 0.08750000000000568
                },
                {
                    "name": "A#2",
                    "midi": 46,
                    "time": 103.02291666666636,
                    "velocity": 0.2440944881889764,
                    "duration": 0.3166666666666629
                },
                {
                    "name": "F4",
                    "midi": 65,
                    "time": 103.22708333333303,
                    "velocity": 0.1968503937007874,
                    "duration": 0.06666666666666288
                },
                {
                    "name": "A#4",
                    "midi": 70,
                    "time": 103.39791666666636,
                    "velocity": 0.3228346456692913,
                    "duration": 0.12708333333333144
                },
                {
                    "name": "D4",
                    "midi": 62,
                    "time": 103.4249999999997,
                    "velocity": 0.2992125984251969,
                    "duration": 0.06874999999999432
                },
                {
                    "name": "F4",
                    "midi": 65,
                    "time": 103.59583333333303,
                    "velocity": 0.3779527559055118,
                    "duration": 0.052083333333328596
                },
                {
                    "name": "F#5",
                    "midi": 78,
                    "time": 103.89791666666636,
                    "velocity": 0.5433070866141733,
                    "duration": 0.1875
                },
                {
                    "name": "D5",
                    "midi": 74,
                    "time": 103.8999999999997,
                    "velocity": 0.30708661417322836,
                    "duration": 0.1875
                },
                {
                    "name": "G#4",
                    "midi": 68,
                    "time": 103.8999999999997,
                    "velocity": 0.3700787401574803,
                    "duration": 0.2916666666666714
                },
                {
                    "name": "D4",
                    "midi": 62,
                    "time": 103.90416666666636,
                    "velocity": 0.29133858267716534,
                    "duration": 0.14791666666667425
                },
                {
                    "name": "B3",
                    "midi": 59,
                    "time": 103.9124999999997,
                    "velocity": 0.25196850393700787,
                    "duration": 0.12291666666666856
                },
                {
                    "name": "E3",
                    "midi": 52,
                    "time": 103.91666666666636,
                    "velocity": 0.33858267716535434,
                    "duration": 0.13333333333333997
                },
                {
                    "name": "F#4",
                    "midi": 66,
                    "time": 104.16666666666636,
                    "velocity": 0.2440944881889764,
                    "duration": 0.06041666666666856
                },
                {
                    "name": "F#4",
                    "midi": 66,
                    "time": 104.4937499999997,
                    "velocity": 0.06299212598425197,
                    "duration": 0.12708333333331723
                },
                {
                    "name": "G#5",
                    "midi": 80,
                    "time": 104.49791666666636,
                    "velocity": 0.41732283464566927,
                    "duration": 0.09166666666665435
                },
                {
                    "name": "D5",
                    "midi": 74,
                    "time": 104.49791666666636,
                    "velocity": 0.3464566929133858,
                    "duration": 0.06874999999999432
                },
                {
                    "name": "G#4",
                    "midi": 68,
                    "time": 104.51249999999969,
                    "velocity": 0.031496062992125984,
                    "duration": 0.08749999999999147
                },
                {
                    "name": "E4",
                    "midi": 64,
                    "time": 104.689583333333,
                    "velocity": 0.2125984251968504,
                    "duration": 0.06874999999999432
                },
                {
                    "name": "F5",
                    "midi": 77,
                    "time": 104.952083333333,
                    "velocity": 0.3779527559055118,
                    "duration": 0.18333333333335133
                },
                {
                    "name": "A#4",
                    "midi": 70,
                    "time": 104.96041666666633,
                    "velocity": 0.2204724409448819,
                    "duration": 0.24583333333333712
                },
                {
                    "name": "D5",
                    "midi": 74,
                    "time": 104.97499999999967,
                    "velocity": 0.2677165354330709,
                    "duration": 0.10000000000000853
                },
                {
                    "name": "A#2",
                    "midi": 46,
                    "time": 104.97916666666633,
                    "velocity": 0.1968503937007874,
                    "duration": 0.3916666666666657
                },
                {
                    "name": "A#3",
                    "midi": 58,
                    "time": 104.989583333333,
                    "velocity": 0.10236220472440945,
                    "duration": 0.22083333333333144
                },
                {
                    "name": "F3",
                    "midi": 53,
                    "time": 105.01458333333301,
                    "velocity": 0.3464566929133858,
                    "duration": 0.15833333333333144
                },
                {
                    "name": "F4",
                    "midi": 65,
                    "time": 105.16874999999968,
                    "velocity": 0.30708661417322836,
                    "duration": 0.05833333333332291
                },
                {
                    "name": "A#4",
                    "midi": 70,
                    "time": 105.364583333333,
                    "velocity": 0.33070866141732286,
                    "duration": 0.09999999999999432
                },
                {
                    "name": "F4",
                    "midi": 65,
                    "time": 105.56874999999967,
                    "velocity": 0.2283464566929134,
                    "duration": 0.0729166666666714
                },
                {
                    "name": "F#4",
                    "midi": 66,
                    "time": 105.833333333333,
                    "velocity": 0.3937007874015748,
                    "duration": 0.2229166666666771
                },
                {
                    "name": "E3",
                    "midi": 52,
                    "time": 105.84166666666634,
                    "velocity": 0.30708661417322836,
                    "duration": 0.21041666666667425
                },
                {
                    "name": "B2",
                    "midi": 47,
                    "time": 105.86041666666635,
                    "velocity": 0.1732283464566929,
                    "duration": 0.17916666666666003
                },
                {
                    "name": "B3",
                    "midi": 59,
                    "time": 105.86666666666635,
                    "velocity": 0.14960629921259844,
                    "duration": 0.42500000000001137
                },
                {
                    "name": "D4",
                    "midi": 62,
                    "time": 105.87291666666634,
                    "velocity": 0.15748031496062992,
                    "duration": 0.09375
                },
                {
                    "name": "G#3",
                    "midi": 56,
                    "time": 105.88541666666634,
                    "velocity": 0.2755905511811024,
                    "duration": 0.13124999999999432
                },
                {
                    "name": "G#4",
                    "midi": 68,
                    "time": 106.07916666666634,
                    "velocity": 0.2992125984251969,
                    "duration": 0.05833333333333712
                },
                {
                    "name": "B4",
                    "midi": 71,
                    "time": 106.26458333333301,
                    "velocity": 0.5118110236220472,
                    "duration": 0.10000000000002274
                },
                {
                    "name": "F#4",
                    "midi": 66,
                    "time": 106.27291666666635,
                    "velocity": 0.3464566929133858,
                    "duration": 0.12291666666668277
                },
                {
                    "name": "C#4",
                    "midi": 61,
                    "time": 106.28124999999969,
                    "velocity": 0.5669291338582677,
                    "duration": 0.3375000000000199
                },
                {
                    "name": "E4",
                    "midi": 64,
                    "time": 106.38541666666636,
                    "velocity": 0.1968503937007874,
                    "duration": 0.06250000000001421
                },
                {
                    "name": "G#4",
                    "midi": 68,
                    "time": 106.4124999999997,
                    "velocity": 0.4330708661417323,
                    "duration": 0.04791666666667993
                },
                {
                    "name": "D5",
                    "midi": 74,
                    "time": 106.43958333333303,
                    "velocity": 0.5984251968503937,
                    "duration": 0.037500000000008527
                },
                {
                    "name": "F#5",
                    "midi": 78,
                    "time": 106.63333333333304,
                    "velocity": 0.5984251968503937,
                    "duration": 0.24791666666666856
                },
                {
                    "name": "G#4",
                    "midi": 68,
                    "time": 106.64374999999971,
                    "velocity": 0.4881889763779528,
                    "duration": 0.14791666666667425
                },
                {
                    "name": "E4",
                    "midi": 64,
                    "time": 106.64374999999971,
                    "velocity": 0.44881889763779526,
                    "duration": 0.16250000000000853
                },
                {
                    "name": "B3",
                    "midi": 59,
                    "time": 106.65624999999972,
                    "velocity": 0.3228346456692913,
                    "duration": 0.13333333333333997
                },
                {
                    "name": "B4",
                    "midi": 71,
                    "time": 106.65833333333305,
                    "velocity": 0.5826771653543307,
                    "duration": 0.3916666666666515
                },
                {
                    "name": "D5",
                    "midi": 74,
                    "time": 106.67708333333304,
                    "velocity": 0.33070866141732286,
                    "duration": 0.07083333333333997
                },
                {
                    "name": "G#5",
                    "midi": 80,
                    "time": 106.82708333333305,
                    "velocity": 0.5669291338582677,
                    "duration": 0.07083333333332575
                },
                {
                    "name": "E5",
                    "midi": 76,
                    "time": 106.84374999999972,
                    "velocity": 0.3543307086614173,
                    "duration": 0.052083333333328596
                },
                {
                    "name": "B5",
                    "midi": 83,
                    "time": 107.01874999999971,
                    "velocity": 0.8267716535433071,
                    "duration": 0.12291666666665435
                },
                {
                    "name": "C#5",
                    "midi": 73,
                    "time": 107.02291666666638,
                    "velocity": 0.5984251968503937,
                    "duration": 0.3645833333333144
                },
                {
                    "name": "F#5",
                    "midi": 78,
                    "time": 107.02916666666637,
                    "velocity": 0.5354330708661418,
                    "duration": 0.056249999999991473
                },
                {
                    "name": "E5",
                    "midi": 76,
                    "time": 107.0937499999997,
                    "velocity": 0.4330708661417323,
                    "duration": 0.11249999999999716
                },
                {
                    "name": "G#5",
                    "midi": 80,
                    "time": 107.1624999999997,
                    "velocity": 0.5905511811023622,
                    "duration": 0.039583333333339965
                },
                {
                    "name": "D6",
                    "midi": 86,
                    "time": 107.19166666666636,
                    "velocity": 0.6141732283464567,
                    "duration": 0.04583333333333428
                },
                {
                    "name": "E5",
                    "midi": 76,
                    "time": 107.38541666666636,
                    "velocity": 0.4251968503937008,
                    "duration": 0.14166666666666572
                },
                {
                    "name": "B4",
                    "midi": 71,
                    "time": 107.39791666666636,
                    "velocity": 0.4251968503937008,
                    "duration": 0.15416666666665435
                },
                {
                    "name": "F#6",
                    "midi": 90,
                    "time": 107.39791666666636,
                    "velocity": 0.5984251968503937,
                    "duration": 0.24374999999997726
                },
                {
                    "name": "B5",
                    "midi": 83,
                    "time": 107.41458333333303,
                    "velocity": 0.6377952755905512,
                    "duration": 0.32083333333331154
                },
                {
                    "name": "G#5",
                    "midi": 80,
                    "time": 107.41666666666636,
                    "velocity": 0.5590551181102362,
                    "duration": 0.13749999999998863
                },
                {
                    "name": "D6",
                    "midi": 86,
                    "time": 107.43749999999969,
                    "velocity": 0.33070866141732286,
                    "duration": 0.08958333333333712
                },
                {
                    "name": "G#6",
                    "midi": 92,
                    "time": 107.59166666666634,
                    "velocity": 0.5433070866141733,
                    "duration": 0.10416666666665719
                },
                {
                    "name": "E6",
                    "midi": 88,
                    "time": 107.614583333333,
                    "velocity": 0.3858267716535433,
                    "duration": 0.04999999999999716
                },
                {
                    "name": "C#6",
                    "midi": 85,
                    "time": 107.81041666666634,
                    "velocity": 0.4094488188976378,
                    "duration": 0.26875000000001137
                },
                {
                    "name": "F#6",
                    "midi": 90,
                    "time": 107.81666666666634,
                    "velocity": 0.3464566929133858,
                    "duration": 0.1562500000000142
                },
                {
                    "name": "B6",
                    "midi": 95,
                    "time": 107.82499999999968,
                    "velocity": 0.2677165354330709,
                    "duration": 0.22708333333333997
                },
                {
                    "name": "D6",
                    "midi": 86,
                    "time": 107.91666666666634,
                    "velocity": 0.5039370078740157,
                    "duration": 0.11250000000001137
                },
                {
                    "name": "D7",
                    "midi": 98,
                    "time": 108.04583333333302,
                    "velocity": 0.5826771653543307,
                    "duration": 0.041666666666671404
                },
                {
                    "name": "G#6",
                    "midi": 92,
                    "time": 108.04999999999968,
                    "velocity": 0.31496062992125984,
                    "duration": 0.06458333333334565
                },
                {
                    "name": "B5",
                    "midi": 83,
                    "time": 108.06874999999968,
                    "velocity": 0.6062992125984252,
                    "duration": 0.05416666666668846
                },
                {
                    "name": "A#4",
                    "midi": 70,
                    "time": 108.31666666666636,
                    "velocity": 0.2992125984251969,
                    "duration": 0.13750000000001705
                },
                {
                    "name": "F7",
                    "midi": 101,
                    "time": 108.34166666666637,
                    "velocity": 0.5354330708661418,
                    "duration": 0.11666666666667425
                },
                {
                    "name": "D7",
                    "midi": 98,
                    "time": 108.42916666666638,
                    "velocity": 0.5669291338582677,
                    "duration": 0.10208333333332575
                },
                {
                    "name": "A#6",
                    "midi": 94,
                    "time": 108.49791666666637,
                    "velocity": 0.4094488188976378,
                    "duration": 0.056249999999991473
                },
                {
                    "name": "F6",
                    "midi": 89,
                    "time": 108.58333333333303,
                    "velocity": 0.30708661417322836,
                    "duration": 0.06875000000000853
                },
                {
                    "name": "D6",
                    "midi": 86,
                    "time": 108.59791666666636,
                    "velocity": 0.4881889763779528,
                    "duration": 0.04791666666667993
                },
                {
                    "name": "A#5",
                    "midi": 82,
                    "time": 108.60833333333304,
                    "velocity": 0.33858267716535434,
                    "duration": 0.05833333333333712
                },
                {
                    "name": "F5",
                    "midi": 77,
                    "time": 108.63541666666637,
                    "velocity": 0.4015748031496063,
                    "duration": 0.04791666666666572
                },
                {
                    "name": "D6",
                    "midi": 86,
                    "time": 108.69374999999971,
                    "velocity": 0.3700787401574803,
                    "duration": 0.054166666666674246
                },
                {
                    "name": "A#5",
                    "midi": 82,
                    "time": 108.73333333333305,
                    "velocity": 0.3937007874015748,
                    "duration": 0.0729166666666714
                },
                {
                    "name": "F5",
                    "midi": 77,
                    "time": 108.84583333333306,
                    "velocity": 0.4566929133858268,
                    "duration": 0.04583333333333428
                },
                {
                    "name": "A#5",
                    "midi": 82,
                    "time": 108.9041666666664,
                    "velocity": 0.3937007874015748,
                    "duration": 0.04999999999999716
                },
                {
                    "name": "D6",
                    "midi": 86,
                    "time": 108.98958333333306,
                    "velocity": 0.5354330708661418,
                    "duration": 0.041666666666671404
                },
                {
                    "name": "D6",
                    "midi": 86,
                    "time": 109.0916666666664,
                    "velocity": 0.5039370078740157,
                    "duration": 0.05833333333333712
                },
                {
                    "name": "F6",
                    "midi": 89,
                    "time": 109.11249999999973,
                    "velocity": 0.4881889763779528,
                    "duration": 0.05833333333333712
                },
                {
                    "name": "A#5",
                    "midi": 82,
                    "time": 109.12499999999973,
                    "velocity": 0.2677165354330709,
                    "duration": 0.054166666666674246
                },
                {
                    "name": "F5",
                    "midi": 77,
                    "time": 109.13749999999973,
                    "velocity": 0.14960629921259844,
                    "duration": 0.0625
                },
                {
                    "name": "A#6",
                    "midi": 94,
                    "time": 109.1979166666664,
                    "velocity": 0.3228346456692913,
                    "duration": 0.06666666666666288
                },
                {
                    "name": "D7",
                    "midi": 98,
                    "time": 109.28333333333306,
                    "velocity": 0.3937007874015748,
                    "duration": 0.15000000000000568
                },
                {
                    "name": "G#4",
                    "midi": 68,
                    "time": 109.41874999999973,
                    "velocity": 0.49606299212598426,
                    "duration": 0.14166666666666572
                },
                {
                    "name": "F#7",
                    "midi": 102,
                    "time": 109.45208333333306,
                    "velocity": 0.41732283464566927,
                    "duration": 0.22083333333333144
                },
                {
                    "name": "D7",
                    "midi": 98,
                    "time": 109.6041666666664,
                    "velocity": 0.5433070866141733,
                    "duration": 0.15833333333331723
                },
                {
                    "name": "B6",
                    "midi": 95,
                    "time": 109.73749999999973,
                    "velocity": 0.41732283464566927,
                    "duration": 0.10625000000000284
                },
                {
                    "name": "B5",
                    "midi": 83,
                    "time": 109.75208333333306,
                    "velocity": 0.5984251968503937,
                    "duration": 0.07916666666666572
                },
                {
                    "name": "F#5",
                    "midi": 78,
                    "time": 109.75624999999972,
                    "velocity": 0.25984251968503935,
                    "duration": 0.12083333333333712
                },
                {
                    "name": "D5",
                    "midi": 74,
                    "time": 109.78749999999972,
                    "velocity": 0.28346456692913385,
                    "duration": 0.06666666666667709
                },
                {
                    "name": "G#7",
                    "midi": 104,
                    "time": 109.96874999999973,
                    "velocity": 0.5433070866141733,
                    "duration": 0.10208333333333997
                },
                {
                    "name": "D7",
                    "midi": 98,
                    "time": 110.1041666666664,
                    "velocity": 0.4566929133858268,
                    "duration": 0.0625
                },
                {
                    "name": "B5",
                    "midi": 83,
                    "time": 110.19583333333307,
                    "velocity": 0.5196850393700787,
                    "duration": 0.052083333333328596
                },
                {
                    "name": "F#5",
                    "midi": 78,
                    "time": 110.20208333333306,
                    "velocity": 0.3543307086614173,
                    "duration": 0.054166666666674246
                },
                {
                    "name": "B6",
                    "midi": 95,
                    "time": 110.21458333333307,
                    "velocity": 0.36220472440944884,
                    "duration": 0.11875000000000568
                },
                {
                    "name": "D5",
                    "midi": 74,
                    "time": 110.21874999999973,
                    "velocity": 0.2047244094488189,
                    "duration": 0.06875000000000853
                },
                {
                    "name": "G#6",
                    "midi": 92,
                    "time": 110.30624999999974,
                    "velocity": 0.3700787401574803,
                    "duration": 0.12083333333333712
                },
                {
                    "name": "A#3",
                    "midi": 58,
                    "time": 110.51458333333306,
                    "velocity": 0.2755905511811024,
                    "duration": 0.08749999999999147
                },
                {
                    "name": "F7",
                    "midi": 101,
                    "time": 110.51874999999973,
                    "velocity": 0.4409448818897638,
                    "duration": 0.1624999999999801
                },
                {
                    "name": "D7",
                    "midi": 98,
                    "time": 110.65833333333305,
                    "velocity": 0.4094488188976378,
                    "duration": 0.07291666666665719
                },
                {
                    "name": "A#6",
                    "midi": 94,
                    "time": 110.73958333333304,
                    "velocity": 0.2755905511811024,
                    "duration": 0.06041666666666856
                },
                {
                    "name": "F6",
                    "midi": 89,
                    "time": 110.82916666666638,
                    "velocity": 0.36220472440944884,
                    "duration": 0.054166666666660035
                },
                {
                    "name": "A#4",
                    "midi": 70,
                    "time": 110.84791666666638,
                    "velocity": 0.2283464566929134,
                    "duration": 0.07916666666665151
                },
                {
                    "name": "D5",
                    "midi": 74,
                    "time": 110.84999999999971,
                    "velocity": 0.2992125984251969,
                    "duration": 0.07083333333332575
                },
                {
                    "name": "F4",
                    "midi": 65,
                    "time": 110.9437499999997,
                    "velocity": 0.031496062992125984,
                    "duration": 0.07083333333333997
                },
                {
                    "name": "D6",
                    "midi": 86,
                    "time": 110.95208333333304,
                    "velocity": 0.4251968503937008,
                    "duration": 0.07708333333333428
                },
                {
                    "name": "A#5",
                    "midi": 82,
                    "time": 111.0437499999997,
                    "velocity": 0.3779527559055118,
                    "duration": 0.05833333333333712
                },
                {
                    "name": "F5",
                    "midi": 77,
                    "time": 111.13541666666637,
                    "velocity": 0.25196850393700787,
                    "duration": 0.06874999999999432
                },
                {
                    "name": "D5",
                    "midi": 74,
                    "time": 111.2312499999997,
                    "velocity": 0.6141732283464567,
                    "duration": 0.09583333333333144
                },
                {
                    "name": "A#4",
                    "midi": 70,
                    "time": 111.34166666666637,
                    "velocity": 0.3779527559055118,
                    "duration": 0.04999999999999716
                },
                {
                    "name": "D4",
                    "midi": 62,
                    "time": 111.37708333333303,
                    "velocity": 0.18110236220472442,
                    "duration": 0.08750000000000568
                },
                {
                    "name": "A#3",
                    "midi": 58,
                    "time": 111.37916666666636,
                    "velocity": 0.1732283464566929,
                    "duration": 0.16250000000000853
                },
                {
                    "name": "A#4",
                    "midi": 70,
                    "time": 111.48333333333304,
                    "velocity": 0.2283464566929134,
                    "duration": 0.09583333333334565
                },
                {
                    "name": "D5",
                    "midi": 74,
                    "time": 111.56874999999971,
                    "velocity": 0.2992125984251969,
                    "duration": 0.0625
                },
                {
                    "name": "G#3",
                    "midi": 56,
                    "time": 111.63333333333304,
                    "velocity": 0.4015748031496063,
                    "duration": 0.4791666666666572
                },
                {
                    "name": "F#5",
                    "midi": 78,
                    "time": 111.6874999999997,
                    "velocity": 0.5748031496062992,
                    "duration": 0.2916666666666714
                },
                {
                    "name": "D5",
                    "midi": 74,
                    "time": 111.79166666666637,
                    "velocity": 0.3543307086614173,
                    "duration": 0.0833333333333286
                },
                {
                    "name": "B4",
                    "midi": 71,
                    "time": 111.88333333333304,
                    "velocity": 0.3779527559055118,
                    "duration": 0.0625
                },
                {
                    "name": "C#4",
                    "midi": 61,
                    "time": 111.92499999999971,
                    "velocity": 0.4881889763779528,
                    "duration": 0.4333333333333229
                },
                {
                    "name": "F#4",
                    "midi": 66,
                    "time": 111.94166666666638,
                    "velocity": 0.3228346456692913,
                    "duration": 0.06041666666665435
                },
                {
                    "name": "D4",
                    "midi": 62,
                    "time": 111.95833333333304,
                    "velocity": 0.3937007874015748,
                    "duration": 0.42916666666666003
                },
                {
                    "name": "G#5",
                    "midi": 80,
                    "time": 112.1374999999997,
                    "velocity": 0.5354330708661418,
                    "duration": 0.16249999999999432
                },
                {
                    "name": "D5",
                    "midi": 74,
                    "time": 112.27708333333304,
                    "velocity": 0.33070866141732286,
                    "duration": 0.07083333333332575
                },
                {
                    "name": "B3",
                    "midi": 59,
                    "time": 112.35833333333304,
                    "velocity": 0.4409448818897638,
                    "duration": 0.04583333333333428
                },
                {
                    "name": "B4",
                    "midi": 71,
                    "time": 112.38333333333304,
                    "velocity": 0.3228346456692913,
                    "duration": 0.06666666666664867
                },
                {
                    "name": "G#4",
                    "midi": 68,
                    "time": 112.42708333333303,
                    "velocity": 0.2992125984251969,
                    "duration": 0.09791666666666288
                },
                {
                    "name": "A#2",
                    "midi": 46,
                    "time": 112.56666666666636,
                    "velocity": 0.3700787401574803,
                    "duration": 0.12916666666666288
                },
                {
                    "name": "F5",
                    "midi": 77,
                    "time": 112.59374999999969,
                    "velocity": 0.5118110236220472,
                    "duration": 0.16458333333333997
                },
                {
                    "name": "D5",
                    "midi": 74,
                    "time": 112.71874999999969,
                    "velocity": 0.36220472440944884,
                    "duration": 0.0625
                },
                {
                    "name": "A#4",
                    "midi": 70,
                    "time": 112.78958333333303,
                    "velocity": 0.33070866141732286,
                    "duration": 0.06874999999999432
                },
                {
                    "name": "A#3",
                    "midi": 58,
                    "time": 112.85208333333303,
                    "velocity": 0.2677165354330709,
                    "duration": 0.07708333333332007
                },
                {
                    "name": "D4",
                    "midi": 62,
                    "time": 112.85416666666636,
                    "velocity": 0.3543307086614173,
                    "duration": 0.056249999999991473
                },
                {
                    "name": "F4",
                    "midi": 65,
                    "time": 112.89583333333302,
                    "velocity": 0.33070866141732286,
                    "duration": 0.054166666666660035
                },
                {
                    "name": "F3",
                    "midi": 53,
                    "time": 112.93333333333301,
                    "velocity": 0.2283464566929134,
                    "duration": 0.06458333333333144
                },
                {
                    "name": "D4",
                    "midi": 62,
                    "time": 113.01041666666634,
                    "velocity": 0.33858267716535434,
                    "duration": 0.09791666666666288
                },
                {
                    "name": "A#3",
                    "midi": 58,
                    "time": 113.11874999999968,
                    "velocity": 0.4094488188976378,
                    "duration": 0.05833333333333712
                },
                {
                    "name": "F3",
                    "midi": 53,
                    "time": 113.19374999999968,
                    "velocity": 0.6220472440944882,
                    "duration": 0.1041666666666714
                },
                {
                    "name": "A#2",
                    "midi": 46,
                    "time": 113.30833333333302,
                    "velocity": 0.4251968503937008,
                    "duration": 0.08124999999999716
                },
                {
                    "name": "B3",
                    "midi": 59,
                    "time": 113.4624999999997,
                    "velocity": 0.5433070866141733,
                    "duration": 0.2812500000000284
                },
                {
                    "name": "G#2",
                    "midi": 44,
                    "time": 113.47291666666636,
                    "velocity": 0.6535433070866141,
                    "duration": 0.29791666666669414
                },
                {
                    "name": "F#3",
                    "midi": 54,
                    "time": 113.48333333333304,
                    "velocity": 0.5196850393700787,
                    "duration": 0.21666666666666856
                },
                {
                    "name": "D3",
                    "midi": 50,
                    "time": 113.4874999999997,
                    "velocity": 0.3543307086614173,
                    "duration": 0.125
                },
                {
                    "name": "C#4",
                    "midi": 61,
                    "time": 113.71874999999972,
                    "velocity": 0.5905511811023622,
                    "duration": 0.04375000000000284
                },
                {
                    "name": "D4",
                    "midi": 62,
                    "time": 113.97291666666639,
                    "velocity": 0.5275590551181102,
                    "duration": 0.20208333333333428
                },
                {
                    "name": "B3",
                    "midi": 59,
                    "time": 113.9854166666664,
                    "velocity": 0.4330708661417323,
                    "duration": 0.13958333333333428
                },
                {
                    "name": "A#3",
                    "midi": 58,
                    "time": 113.98749999999973,
                    "velocity": 0.44881889763779526,
                    "duration": 0.08958333333333712
                },
                {
                    "name": "F#3",
                    "midi": 54,
                    "time": 114.08124999999973,
                    "velocity": 0.5275590551181102,
                    "duration": 0.07708333333333428
                },
                {
                    "name": "F#4",
                    "midi": 66,
                    "time": 114.15833333333306,
                    "velocity": 0.5196850393700787,
                    "duration": 0.0833333333333286
                },
                {
                    "name": "B4",
                    "midi": 71,
                    "time": 114.37499999999973,
                    "velocity": 0.7322834645669292,
                    "duration": 0.12916666666664867
                },
                {
                    "name": "G#3",
                    "midi": 56,
                    "time": 114.37708333333306,
                    "velocity": 0.49606299212598426,
                    "duration": 0.1979166666666572
                },
                {
                    "name": "F#4",
                    "midi": 66,
                    "time": 114.38124999999972,
                    "velocity": 0.44881889763779526,
                    "duration": 0.04999999999999716
                },
                {
                    "name": "D4",
                    "midi": 62,
                    "time": 114.38749999999972,
                    "velocity": 0.4645669291338583,
                    "duration": 0.04999999999999716
                },
                {
                    "name": "C#5",
                    "midi": 73,
                    "time": 114.58124999999971,
                    "velocity": 0.6377952755905512,
                    "duration": 0.13958333333333428
                },
                {
                    "name": "A#4",
                    "midi": 70,
                    "time": 114.76458333333305,
                    "velocity": 0.6299212598425197,
                    "duration": 0.31458333333334565
                },
                {
                    "name": "D5",
                    "midi": 74,
                    "time": 114.76666666666638,
                    "velocity": 0.5984251968503937,
                    "duration": 0.2187500000000142
                },
                {
                    "name": "B4",
                    "midi": 71,
                    "time": 114.77916666666638,
                    "velocity": 0.4881889763779528,
                    "duration": 0.056250000000005684
                },
                {
                    "name": "F#4",
                    "midi": 66,
                    "time": 114.87708333333306,
                    "velocity": 0.5275590551181102,
                    "duration": 0.12708333333333144
                },
                {
                    "name": "F#5",
                    "midi": 78,
                    "time": 114.95624999999973,
                    "velocity": 0.6220472440944882,
                    "duration": 0.09583333333333144
                },
                {
                    "name": "G#4",
                    "midi": 68,
                    "time": 115.1666666666664,
                    "velocity": 0.5433070866141733,
                    "duration": 0.17291666666666572
                },
                {
                    "name": "B5",
                    "midi": 83,
                    "time": 115.17499999999974,
                    "velocity": 0.8818897637795275,
                    "duration": 0.13333333333332575
                },
                {
                    "name": "D5",
                    "midi": 74,
                    "time": 115.19374999999974,
                    "velocity": 0.5354330708661418,
                    "duration": 0.041666666666671404
                },
                {
                    "name": "F#5",
                    "midi": 78,
                    "time": 115.21874999999974,
                    "velocity": 0.1732283464566929,
                    "duration": 0.06666666666666288
                },
                {
                    "name": "C#6",
                    "midi": 85,
                    "time": 115.3854166666664,
                    "velocity": 0.7086614173228346,
                    "duration": 0.17916666666666003
                },
                {
                    "name": "A#4",
                    "midi": 70,
                    "time": 115.57083333333306,
                    "velocity": 0.5511811023622047,
                    "duration": 0.13333333333332575
                },
                {
                    "name": "A#5",
                    "midi": 82,
                    "time": 115.57083333333306,
                    "velocity": 0.5590551181102362,
                    "duration": 0.04791666666666572
                },
                {
                    "name": "D6",
                    "midi": 86,
                    "time": 115.58124999999973,
                    "velocity": 0.5275590551181102,
                    "duration": 0.2354166666666515
                },
                {
                    "name": "B5",
                    "midi": 83,
                    "time": 115.58333333333306,
                    "velocity": 0.6929133858267716,
                    "duration": 0.1354166666666572
                },
                {
                    "name": "F#5",
                    "midi": 78,
                    "time": 115.70416666666638,
                    "velocity": 0.5354330708661418,
                    "duration": 0.12083333333333712
                },
                {
                    "name": "F#6",
                    "midi": 90,
                    "time": 115.78749999999971,
                    "velocity": 0.5118110236220472,
                    "duration": 0.04791666666667993
                },
                {
                    "name": "G#5",
                    "midi": 80,
                    "time": 115.81249999999972,
                    "velocity": 0.5984251968503937,
                    "duration": 0.11875000000000568
                },
                {
                    "name": "G#4",
                    "midi": 68,
                    "time": 115.82499999999972,
                    "velocity": 0.5511811023622047,
                    "duration": 0.13750000000000284
                },
                {
                    "name": "D7",
                    "midi": 98,
                    "time": 116.06666666666638,
                    "velocity": 0.7086614173228346,
                    "duration": 0.1666666666666714
                },
                {
                    "name": "G4",
                    "midi": 67,
                    "time": 116.07291666666637,
                    "velocity": 0.6062992125984252,
                    "duration": 0.12291666666666856
                },
                {
                    "name": "B6",
                    "midi": 95,
                    "time": 116.16458333333304,
                    "velocity": 0.5511811023622047,
                    "duration": 0.1250000000000142
                },
                {
                    "name": "G6",
                    "midi": 91,
                    "time": 116.24374999999972,
                    "velocity": 0.4645669291338583,
                    "duration": 0.04791666666666572
                },
                {
                    "name": "D6",
                    "midi": 86,
                    "time": 116.30624999999972,
                    "velocity": 0.5118110236220472,
                    "duration": 0.04375000000000284
                },
                {
                    "name": "G5",
                    "midi": 79,
                    "time": 116.33124999999973,
                    "velocity": 0.6299212598425197,
                    "duration": 0.04166666666665719
                },
                {
                    "name": "D5",
                    "midi": 74,
                    "time": 116.34791666666639,
                    "velocity": 0.5039370078740157,
                    "duration": 0.06041666666665435
                },
                {
                    "name": "B5",
                    "midi": 83,
                    "time": 116.42083333333305,
                    "velocity": 0.7637795275590551,
                    "duration": 0.18958333333333144
                },
                {
                    "name": "G5",
                    "midi": 79,
                    "time": 116.47499999999971,
                    "velocity": 0.29133858267716534,
                    "duration": 0.05833333333333712
                },
                {
                    "name": "D5",
                    "midi": 74,
                    "time": 116.55416666666638,
                    "velocity": 0.7007874015748031,
                    "duration": 0.07708333333333428
                },
                {
                    "name": "G5",
                    "midi": 79,
                    "time": 116.64583333333304,
                    "velocity": 0.5039370078740157,
                    "duration": 0.0625
                },
                {
                    "name": "B5",
                    "midi": 83,
                    "time": 116.71874999999972,
                    "velocity": 0.6929133858267716,
                    "duration": 0.037499999999994316
                },
                {
                    "name": "G5",
                    "midi": 79,
                    "time": 116.78749999999971,
                    "velocity": 0.5118110236220472,
                    "duration": 0.054166666666674246
                },
                {
                    "name": "D5",
                    "midi": 74,
                    "time": 116.80416666666638,
                    "velocity": 0.4330708661417323,
                    "duration": 0.05208333333334281
                },
                {
                    "name": "D6",
                    "midi": 86,
                    "time": 116.83124999999971,
                    "velocity": 0.6692913385826772,
                    "duration": 0.08541666666667425
                },
                {
                    "name": "G6",
                    "midi": 91,
                    "time": 116.91458333333306,
                    "velocity": 0.6456692913385826,
                    "duration": 0.10000000000000853
                },
                {
                    "name": "B6",
                    "midi": 95,
                    "time": 117.00624999999972,
                    "velocity": 0.5354330708661418,
                    "duration": 0.15000000000000568
                },
                {
                    "name": "C4",
                    "midi": 60,
                    "time": 117.13749999999973,
                    "velocity": 0.5039370078740157,
                    "duration": 0.12708333333333144
                },
                {
                    "name": "D#7",
                    "midi": 99,
                    "time": 117.14374999999973,
                    "velocity": 0.6220472440944882,
                    "duration": 0.18125000000000568
                },
                {
                    "name": "A#6",
                    "midi": 94,
                    "time": 117.2979166666664,
                    "velocity": 0.4566929133858268,
                    "duration": 0.09166666666666856
                },
                {
                    "name": "D#5",
                    "midi": 75,
                    "time": 117.41874999999973,
                    "velocity": 0.4094488188976378,
                    "duration": 0.07916666666665151
                },
                {
                    "name": "F#6",
                    "midi": 90,
                    "time": 117.4229166666664,
                    "velocity": 0.4566929133858268,
                    "duration": 0.07083333333332575
                },
                {
                    "name": "A#4",
                    "midi": 70,
                    "time": 117.44374999999972,
                    "velocity": 0.29133858267716534,
                    "duration": 0.07499999999998863
                },
                {
                    "name": "F#4",
                    "midi": 66,
                    "time": 117.44583333333306,
                    "velocity": 0.2047244094488189,
                    "duration": 0.08124999999998295
                },
                {
                    "name": "D#6",
                    "midi": 87,
                    "time": 117.52499999999971,
                    "velocity": 0.4645669291338583,
                    "duration": 0.04583333333333428
                },
                {
                    "name": "F7",
                    "midi": 101,
                    "time": 117.68124999999971,
                    "velocity": 0.5196850393700787,
                    "duration": 0.06874999999999432
                },
                {
                    "name": "A#6",
                    "midi": 94,
                    "time": 117.79583333333304,
                    "velocity": 0.4566929133858268,
                    "duration": 0.09166666666666856
                },
                {
                    "name": "D#5",
                    "midi": 75,
                    "time": 117.89791666666638,
                    "velocity": 0.30708661417322836,
                    "duration": 0.05833333333332291
                },
                {
                    "name": "F#4",
                    "midi": 66,
                    "time": 117.90208333333304,
                    "velocity": 0.25196850393700787,
                    "duration": 0.06458333333333144
                },
                {
                    "name": "A#4",
                    "midi": 70,
                    "time": 117.90208333333304,
                    "velocity": 0.2125984251968504,
                    "duration": 0.07708333333333428
                },
                {
                    "name": "F#6",
                    "midi": 90,
                    "time": 117.9249999999997,
                    "velocity": 0.3700787401574803,
                    "duration": 0.09791666666667709
                },
                {
                    "name": "F6",
                    "midi": 89,
                    "time": 118.04166666666637,
                    "velocity": 0.3464566929133858,
                    "duration": 0.0729166666666714
                },
                {
                    "name": "D7",
                    "midi": 98,
                    "time": 118.19999999999972,
                    "velocity": 0.5905511811023622,
                    "duration": 0.12499999999998579
                },
                {
                    "name": "G3",
                    "midi": 55,
                    "time": 118.22291666666638,
                    "velocity": 0.44881889763779526,
                    "duration": 0.06458333333333144
                },
                {
                    "name": "B6",
                    "midi": 95,
                    "time": 118.3249999999997,
                    "velocity": 0.2755905511811024,
                    "duration": 0.06875000000000853
                },
                {
                    "name": "G6",
                    "midi": 91,
                    "time": 118.38541666666637,
                    "velocity": 0.3858267716535433,
                    "duration": 0.0625
                },
                {
                    "name": "D6",
                    "midi": 86,
                    "time": 118.49166666666638,
                    "velocity": 0.3543307086614173,
                    "duration": 0.054166666666674246
                },
                {
                    "name": "D4",
                    "midi": 62,
                    "time": 118.51666666666638,
                    "velocity": 0.2755905511811024,
                    "duration": 0.2708333333333428
                },
                {
                    "name": "G4",
                    "midi": 67,
                    "time": 118.51874999999971,
                    "velocity": 0.13385826771653545,
                    "duration": 0.16250000000000853
                },
                {
                    "name": "B4",
                    "midi": 71,
                    "time": 118.52083333333304,
                    "velocity": 0.3937007874015748,
                    "duration": 0.1770833333333428
                },
                {
                    "name": "B5",
                    "midi": 83,
                    "time": 118.61666666666639,
                    "velocity": 0.6141732283464567,
                    "duration": 0.09791666666666288
                },
                {
                    "name": "G5",
                    "midi": 79,
                    "time": 118.72499999999972,
                    "velocity": 0.44881889763779526,
                    "duration": 0.04999999999999716
                },
                {
                    "name": "D5",
                    "midi": 74,
                    "time": 118.80208333333306,
                    "velocity": 0.5275590551181102,
                    "duration": 0.041666666666671404
                },
                {
                    "name": "B4",
                    "midi": 71,
                    "time": 118.92083333333306,
                    "velocity": 0.5354330708661418,
                    "duration": 0.06041666666666856
                },
                {
                    "name": "G4",
                    "midi": 67,
                    "time": 118.9979166666664,
                    "velocity": 0.3464566929133858,
                    "duration": 0.05833333333333712
                },
                {
                    "name": "D4",
                    "midi": 62,
                    "time": 119.08333333333307,
                    "velocity": 0.48031496062992124,
                    "duration": 0.06874999999999432
                },
                {
                    "name": "G4",
                    "midi": 67,
                    "time": 119.16874999999973,
                    "velocity": 0.2677165354330709,
                    "duration": 0.07708333333333428
                },
                {
                    "name": "B4",
                    "midi": 71,
                    "time": 119.24999999999973,
                    "velocity": 0.5433070866141733,
                    "duration": 0.04999999999999716
                },
                {
                    "name": "C3",
                    "midi": 48,
                    "time": 119.34583333333306,
                    "velocity": 0.4645669291338583,
                    "duration": 0.33541666666666003
                },
                {
                    "name": "D#5",
                    "midi": 75,
                    "time": 119.35208333333306,
                    "velocity": 0.5669291338582677,
                    "duration": 0.19166666666666288
                },
                {
                    "name": "A#4",
                    "midi": 70,
                    "time": 119.48333333333305,
                    "velocity": 0.3464566929133858,
                    "duration": 0.13333333333333997
                },
                {
                    "name": "F#4",
                    "midi": 66,
                    "time": 119.57291666666639,
                    "velocity": 0.3700787401574803,
                    "duration": 0.06666666666666288
                },
                {
                    "name": "A#3",
                    "midi": 58,
                    "time": 119.60833333333305,
                    "velocity": 0.29133858267716534,
                    "duration": 0.4437500000000085
                },
                {
                    "name": "F3",
                    "midi": 53,
                    "time": 119.61666666666639,
                    "velocity": 0.7480314960629921,
                    "duration": 0.42499999999999716
                },
                {
                    "name": "D#4",
                    "midi": 63,
                    "time": 119.64999999999972,
                    "velocity": 0.44881889763779526,
                    "duration": 0.041666666666671404
                },
                {
                    "name": "F5",
                    "midi": 77,
                    "time": 119.80833333333305,
                    "velocity": 0.6141732283464567,
                    "duration": 0.11666666666667425
                },
                {
                    "name": "A#4",
                    "midi": 70,
                    "time": 119.91666666666639,
                    "velocity": 0.4251968503937008,
                    "duration": 0.17083333333333428
                },
                {
                    "name": "F#4",
                    "midi": 66,
                    "time": 120.01874999999973,
                    "velocity": 0.3779527559055118,
                    "duration": 0.15416666666665435
                },
                {
                    "name": "D#3",
                    "midi": 51,
                    "time": 120.01874999999973,
                    "velocity": 0.5039370078740157,
                    "duration": 0.04791666666666572
                },
                {
                    "name": "F4",
                    "midi": 65,
                    "time": 120.11874999999972,
                    "velocity": 0.2992125984251969,
                    "duration": 0.0833333333333286
                },
                {
                    "name": "G2",
                    "midi": 43,
                    "time": 120.23124999999972,
                    "velocity": 0.4566929133858268,
                    "duration": 0.16875000000000284
                },
                {
                    "name": "D5",
                    "midi": 74,
                    "time": 120.2666666666664,
                    "velocity": 0.5511811023622047,
                    "duration": 0.1520833333333229
                },
                {
                    "name": "B4",
                    "midi": 71,
                    "time": 120.36666666666639,
                    "velocity": 0.5196850393700787,
                    "duration": 0.10208333333332575
                },
                {
                    "name": "G4",
                    "midi": 67,
                    "time": 120.46874999999972,
                    "velocity": 0.36220472440944884,
                    "duration": 0.056250000000005684
                },
                {
                    "name": "B3",
                    "midi": 59,
                    "time": 120.53958333333306,
                    "velocity": 0.3700787401574803,
                    "duration": 0.05208333333334281
                },
                {
                    "name": "D4",
                    "midi": 62,
                    "time": 120.5479166666664,
                    "velocity": 0.4094488188976378,
                    "duration": 0.05208333333334281
                },
                {
                    "name": "G3",
                    "midi": 55,
                    "time": 120.5479166666664,
                    "velocity": 0.33070866141732286,
                    "duration": 0.05833333333333712
                },
                {
                    "name": "D3",
                    "midi": 50,
                    "time": 120.56249999999973,
                    "velocity": 0.3858267716535433,
                    "duration": 0.07708333333333428
                },
                {
                    "name": "B3",
                    "midi": 59,
                    "time": 120.66458333333307,
                    "velocity": 0.4015748031496063,
                    "duration": 0.11249999999999716
                },
                {
                    "name": "G3",
                    "midi": 55,
                    "time": 120.78749999999974,
                    "velocity": 0.47244094488188976,
                    "duration": 0.07083333333333997
                },
                {
                    "name": "D3",
                    "midi": 50,
                    "time": 120.88333333333308,
                    "velocity": 0.4881889763779528,
                    "duration": 0.08958333333333712
                },
                {
                    "name": "G3",
                    "midi": 55,
                    "time": 120.99583333333308,
                    "velocity": 0.3464566929133858,
                    "duration": 0.0833333333333286
                },
                {
                    "name": "B3",
                    "midi": 59,
                    "time": 121.0854166666664,
                    "velocity": 0.25196850393700787,
                    "duration": 0.05833333333333712
                },
                {
                    "name": "D4",
                    "midi": 62,
                    "time": 121.10208333333307,
                    "velocity": 0.5118110236220472,
                    "duration": 0.04375000000000284
                },
                {
                    "name": "A#3",
                    "midi": 58,
                    "time": 121.2104166666664,
                    "velocity": 0.4251968503937008,
                    "duration": 0.11666666666667425
                },
                {
                    "name": "B3",
                    "midi": 59,
                    "time": 121.29791666666641,
                    "velocity": 0.4094488188976378,
                    "duration": 0.04583333333333428
                },
                {
                    "name": "C#4",
                    "midi": 61,
                    "time": 121.37499999999974,
                    "velocity": 0.5039370078740157,
                    "duration": 0.04583333333333428
                },
                {
                    "name": "D4",
                    "midi": 62,
                    "time": 121.44374999999974,
                    "velocity": 0.5669291338582677,
                    "duration": 0.039583333333339965
                },
                {
                    "name": "F#4",
                    "midi": 66,
                    "time": 121.53958333333308,
                    "velocity": 0.36220472440944884,
                    "duration": 0.14374999999999716
                },
                {
                    "name": "G4",
                    "midi": 67,
                    "time": 121.60624999999975,
                    "velocity": 0.5511811023622047,
                    "duration": 0.05833333333333712
                },
                {
                    "name": "A#4",
                    "midi": 70,
                    "time": 121.69791666666642,
                    "velocity": 0.4881889763779528,
                    "duration": 0.07916666666666572
                },
                {
                    "name": "B4",
                    "midi": 71,
                    "time": 121.77291666666642,
                    "velocity": 0.5748031496062992,
                    "duration": 0.04583333333333428
                },
                {
                    "name": "C#5",
                    "midi": 73,
                    "time": 121.85416666666642,
                    "velocity": 0.5039370078740157,
                    "duration": 0.16875000000000284
                },
                {
                    "name": "D5",
                    "midi": 74,
                    "time": 121.92708333333309,
                    "velocity": 0.5433070866141733,
                    "duration": 0.06041666666666856
                },
                {
                    "name": "F#5",
                    "midi": 78,
                    "time": 122.01874999999976,
                    "velocity": 0.5196850393700787,
                    "duration": 0.04791666666666572
                },
                {
                    "name": "G5",
                    "midi": 79,
                    "time": 122.08541666666642,
                    "velocity": 0.6535433070866141,
                    "duration": 0.039583333333339965
                },
                {
                    "name": "A#5",
                    "midi": 82,
                    "time": 122.17291666666642,
                    "velocity": 0.5669291338582677,
                    "duration": 0.16249999999999432
                },
                {
                    "name": "B5",
                    "midi": 83,
                    "time": 122.29166666666642,
                    "velocity": 0.6456692913385826,
                    "duration": 0.04583333333333428
                },
                {
                    "name": "C#6",
                    "midi": 85,
                    "time": 122.37916666666642,
                    "velocity": 0.44881889763779526,
                    "duration": 0.2145833333333229
                },
                {
                    "name": "D6",
                    "midi": 86,
                    "time": 122.51041666666642,
                    "velocity": 0.5669291338582677,
                    "duration": 0.13333333333332575
                },
                {
                    "name": "C#4",
                    "midi": 61,
                    "time": 122.79791666666641,
                    "velocity": 0.16535433070866143,
                    "duration": 1.5333333333333172
                },
                {
                    "name": "D6",
                    "midi": 86,
                    "time": 122.82499999999975,
                    "velocity": 0.2677165354330709,
                    "duration": 0.5166666666666657
                },
                {
                    "name": "G5",
                    "midi": 79,
                    "time": 123.00416666666642,
                    "velocity": 0.2440944881889764,
                    "duration": 0.09166666666666856
                },
                {
                    "name": "F5",
                    "midi": 77,
                    "time": 123.12499999999976,
                    "velocity": 0.29133858267716534,
                    "duration": 0.14791666666666003
                },
                {
                    "name": "D5",
                    "midi": 74,
                    "time": 123.26874999999976,
                    "velocity": 0.2047244094488189,
                    "duration": 0.08958333333332291
                },
                {
                    "name": "F4",
                    "midi": 65,
                    "time": 123.31249999999974,
                    "velocity": 0.13385826771653545,
                    "duration": 0.3375000000000057
                },
                {
                    "name": "C#6",
                    "midi": 85,
                    "time": 123.54583333333308,
                    "velocity": 0.41732283464566927,
                    "duration": 0.16875000000000284
                },
                {
                    "name": "B4",
                    "midi": 71,
                    "time": 123.62291666666641,
                    "velocity": 0.2677165354330709,
                    "duration": 0.36666666666666003
                },
                {
                    "name": "G5",
                    "midi": 79,
                    "time": 123.66041666666642,
                    "velocity": 0.2440944881889764,
                    "duration": 0.09166666666665435
                },
                {
                    "name": "F5",
                    "midi": 77,
                    "time": 123.76458333333308,
                    "velocity": 0.29133858267716534,
                    "duration": 0.054166666666660035
                },
                {
                    "name": "C#5",
                    "midi": 73,
                    "time": 123.82916666666641,
                    "velocity": 0.2440944881889764,
                    "duration": 0.054166666666660035
                },
                {
                    "name": "C#5",
                    "midi": 73,
                    "time": 123.97083333333308,
                    "velocity": 0.1889763779527559,
                    "duration": 0.09166666666665435
                },
                {
                    "name": "G5",
                    "midi": 79,
                    "time": 123.99583333333307,
                    "velocity": 0.5511811023622047,
                    "duration": 0.20000000000000284
                },
                {
                    "name": "F5",
                    "midi": 77,
                    "time": 124.12083333333307,
                    "velocity": 0.2283464566929134,
                    "duration": 0.16041666666666288
                },
                {
                    "name": "B4",
                    "midi": 71,
                    "time": 124.26458333333306,
                    "velocity": 0.3228346456692913,
                    "duration": 0.11249999999999716
                },
                {
                    "name": "F4",
                    "midi": 65,
                    "time": 124.4166666666664,
                    "velocity": 0.07874015748031496,
                    "duration": 0.10208333333333997
                },
                {
                    "name": "G#5",
                    "midi": 80,
                    "time": 124.42499999999974,
                    "velocity": 0.4881889763779528,
                    "duration": 0.14166666666666572
                },
                {
                    "name": "F5",
                    "midi": 77,
                    "time": 124.5041666666664,
                    "velocity": 0.25984251968503935,
                    "duration": 0.16041666666666288
                },
                {
                    "name": "B4",
                    "midi": 71,
                    "time": 124.58749999999974,
                    "velocity": 0.3228346456692913,
                    "duration": 0.07500000000000284
                },
                {
                    "name": "G#4",
                    "midi": 68,
                    "time": 124.65833333333308,
                    "velocity": 0.1968503937007874,
                    "duration": 0.07083333333332575
                },
                {
                    "name": "C#4",
                    "midi": 61,
                    "time": 124.83749999999974,
                    "velocity": 0.16535433070866143,
                    "duration": 0.4645833333333087
                },
                {
                    "name": "B5",
                    "midi": 83,
                    "time": 124.85833333333306,
                    "velocity": 0.5590551181102362,
                    "duration": 0.6083333333333059
                },
                {
                    "name": "G5",
                    "midi": 79,
                    "time": 124.95833333333306,
                    "velocity": 0.3543307086614173,
                    "duration": 0.1145833333333286
                },
                {
                    "name": "E5",
                    "midi": 76,
                    "time": 125.05208333333306,
                    "velocity": 0.23622047244094488,
                    "duration": 0.0625
                },
                {
                    "name": "E4",
                    "midi": 64,
                    "time": 125.08958333333305,
                    "velocity": 0.2440944881889764,
                    "duration": 0.24791666666665435
                },
                {
                    "name": "B4",
                    "midi": 71,
                    "time": 125.13124999999972,
                    "velocity": 0.3228346456692913,
                    "duration": 0.07499999999998863
                },
                {
                    "name": "D#5",
                    "midi": 75,
                    "time": 125.22291666666638,
                    "velocity": 0.4094488188976378,
                    "duration": 0.052083333333328596
                },
                {
                    "name": "G4",
                    "midi": 67,
                    "time": 125.26041666666637,
                    "velocity": 0.2992125984251969,
                    "duration": 0.3020833333333428
                },
                {
                    "name": "E5",
                    "midi": 76,
                    "time": 125.35208333333304,
                    "velocity": 0.2677165354330709,
                    "duration": 0.0625
                },
                {
                    "name": "F5",
                    "midi": 77,
                    "time": 125.40208333333304,
                    "velocity": 0.5275590551181102,
                    "duration": 0.08541666666666003
                },
                {
                    "name": "B4",
                    "midi": 71,
                    "time": 125.4187499999997,
                    "velocity": 0.49606299212598426,
                    "duration": 0.12083333333333712
                },
                {
                    "name": "F#5",
                    "midi": 78,
                    "time": 125.49791666666637,
                    "velocity": 0.44881889763779526,
                    "duration": 0.05208333333334281
                },
                {
                    "name": "G5",
                    "midi": 79,
                    "time": 125.59791666666638,
                    "velocity": 0.5826771653543307,
                    "duration": 0.07083333333332575
                },
                {
                    "name": "E5",
                    "midi": 76,
                    "time": 125.63124999999971,
                    "velocity": 0.4330708661417323,
                    "duration": 0.09999999999999432
                },
                {
                    "name": "G#5",
                    "midi": 80,
                    "time": 125.6874999999997,
                    "velocity": 0.49606299212598426,
                    "duration": 0.11666666666667425
                },
                {
                    "name": "A5",
                    "midi": 81,
                    "time": 125.77291666666638,
                    "velocity": 0.49606299212598426,
                    "duration": 0.12291666666666856
                },
                {
                    "name": "A#5",
                    "midi": 82,
                    "time": 125.86041666666638,
                    "velocity": 0.41732283464566927,
                    "duration": 0.04791666666666572
                },
                {
                    "name": "B5",
                    "midi": 83,
                    "time": 125.95208333333305,
                    "velocity": 0.7165354330708661,
                    "duration": 0.04375000000000284
                },
                {
                    "name": "B4",
                    "midi": 71,
                    "time": 125.96249999999972,
                    "velocity": 0.4251968503937008,
                    "duration": 0.07083333333332575
                },
                {
                    "name": "E6",
                    "midi": 88,
                    "time": 126.05624999999971,
                    "velocity": 0.4881889763779528,
                    "duration": 0.1520833333333229
                },
                {
                    "name": "D#6",
                    "midi": 87,
                    "time": 126.14166666666637,
                    "velocity": 0.4645669291338583,
                    "duration": 0.1458333333333428
                },
                {
                    "name": "D6",
                    "midi": 86,
                    "time": 126.24791666666637,
                    "velocity": 0.5590551181102362,
                    "duration": 0.041666666666671404
                },
                {
                    "name": "C#4",
                    "midi": 61,
                    "time": 126.4374999999997,
                    "velocity": 0.2204724409448819,
                    "duration": 0.5604166666666828
                },
                {
                    "name": "D6",
                    "midi": 86,
                    "time": 126.50833333333304,
                    "velocity": 0.6377952755905512,
                    "duration": 0.3020833333333428
                },
                {
                    "name": "G5",
                    "midi": 79,
                    "time": 126.67499999999971,
                    "velocity": 0.3464566929133858,
                    "duration": 0.21666666666668277
                },
                {
                    "name": "F5",
                    "midi": 77,
                    "time": 126.76041666666637,
                    "velocity": 0.36220472440944884,
                    "duration": 0.14583333333335702
                },
                {
                    "name": "F4",
                    "midi": 65,
                    "time": 126.86666666666639,
                    "velocity": 0.11811023622047244,
                    "duration": 0.2916666666666572
                },
                {
                    "name": "D5",
                    "midi": 74,
                    "time": 126.87499999999973,
                    "velocity": 0.4251968503937008,
                    "duration": 0.054166666666660035
                },
                {
                    "name": "C#6",
                    "midi": 85,
                    "time": 126.98333333333305,
                    "velocity": 0.5433070866141733,
                    "duration": 0.20416666666666572
                },
                {
                    "name": "B4",
                    "midi": 71,
                    "time": 127.12291666666638,
                    "velocity": 0.3543307086614173,
                    "duration": 0.09166666666666856
                },
                {
                    "name": "G5",
                    "midi": 79,
                    "time": 127.12291666666638,
                    "velocity": 0.33070866141732286,
                    "duration": 0.06666666666666288
                },
                {
                    "name": "F5",
                    "midi": 77,
                    "time": 127.17499999999971,
                    "velocity": 0.3700787401574803,
                    "duration": 0.05000000000001137
                },
                {
                    "name": "C#5",
                    "midi": 73,
                    "time": 127.22916666666639,
                    "velocity": 0.3779527559055118,
                    "duration": 0.15208333333333712
                },
                {
                    "name": "G5",
                    "midi": 79,
                    "time": 127.36874999999972,
                    "velocity": 0.5669291338582677,
                    "duration": 0.15208333333333712
                },
                {
                    "name": "F5",
                    "midi": 77,
                    "time": 127.44166666666639,
                    "velocity": 0.29133858267716534,
                    "duration": 0.13750000000000284
                },
                {
                    "name": "B4",
                    "midi": 71,
                    "time": 127.56249999999973,
                    "velocity": 0.31496062992125984,
                    "duration": 0.11041666666666572
                },
                {
                    "name": "G4",
                    "midi": 67,
                    "time": 127.62916666666639,
                    "velocity": 0.3464566929133858,
                    "duration": 0.056250000000005684
                },
                {
                    "name": "F4",
                    "midi": 65,
                    "time": 127.70208333333306,
                    "velocity": 0.33070866141732286,
                    "duration": 0.06874999999999432
                },
                {
                    "name": "G#5",
                    "midi": 80,
                    "time": 127.75416666666639,
                    "velocity": 0.5748031496062992,
                    "duration": 0.14791666666666003
                },
                {
                    "name": "F5",
                    "midi": 77,
                    "time": 127.84791666666639,
                    "velocity": 0.4566929133858268,
                    "duration": 0.12708333333333144
                },
                {
                    "name": "B4",
                    "midi": 71,
                    "time": 127.93333333333305,
                    "velocity": 0.31496062992125984,
                    "duration": 0.06875000000002274
                },
                {
                    "name": "G#4",
                    "midi": 68,
                    "time": 127.98333333333306,
                    "velocity": 0.3464566929133858,
                    "duration": 0.056250000000005684
                },
                {
                    "name": "C#4",
                    "midi": 61,
                    "time": 128.10624999999973,
                    "velocity": 0.29133858267716534,
                    "duration": 0.36041666666670835
                },
                {
                    "name": "B5",
                    "midi": 83,
                    "time": 128.1416666666664,
                    "velocity": 0.6850393700787402,
                    "duration": 0.5166666666667368
                },
                {
                    "name": "G5",
                    "midi": 79,
                    "time": 128.24166666666642,
                    "velocity": 0.3464566929133858,
                    "duration": 0.20416666666667993
                },
                {
                    "name": "E5",
                    "midi": 76,
                    "time": 128.3104166666664,
                    "velocity": 0.33070866141732286,
                    "duration": 0.05208333333334281
                },
                {
                    "name": "E4",
                    "midi": 64,
                    "time": 128.33958333333308,
                    "velocity": 0.28346456692913385,
                    "duration": 0.22083333333335986
                },
                {
                    "name": "B4",
                    "midi": 71,
                    "time": 128.36249999999976,
                    "velocity": 0.4645669291338583,
                    "duration": 0.056250000000005684
                },
                {
                    "name": "G4",
                    "midi": 67,
                    "time": 128.46874999999977,
                    "velocity": 0.33070866141732286,
                    "duration": 0.25625000000002274
                },
                {
                    "name": "D#5",
                    "midi": 75,
                    "time": 128.47291666666644,
                    "velocity": 0.5039370078740157,
                    "duration": 0.04791666666667993
                },
                {
                    "name": "E5",
                    "midi": 76,
                    "time": 128.58541666666645,
                    "velocity": 0.3464566929133858,
                    "duration": 0.056250000000005684
                },
                {
                    "name": "B4",
                    "midi": 71,
                    "time": 128.62291666666644,
                    "velocity": 0.4645669291338583,
                    "duration": 0.18958333333335986
                },
                {
                    "name": "F5",
                    "midi": 77,
                    "time": 128.64166666666645,
                    "velocity": 0.4645669291338583,
                    "duration": 0.09583333333333144
                },
                {
                    "name": "F#5",
                    "midi": 78,
                    "time": 128.74374999999978,
                    "velocity": 0.4094488188976378,
                    "duration": 0.05000000000001137
                },
                {
                    "name": "G5",
                    "midi": 79,
                    "time": 128.8374999999998,
                    "velocity": 0.5669291338582677,
                    "duration": 0.06041666666664014
                },
                {
                    "name": "E5",
                    "midi": 76,
                    "time": 128.85208333333313,
                    "velocity": 0.4409448818897638,
                    "duration": 0.08333333333334281
                },
                {
                    "name": "G#5",
                    "midi": 80,
                    "time": 128.91666666666646,
                    "velocity": 0.5354330708661418,
                    "duration": 0.12708333333335986
                },
                {
                    "name": "A5",
                    "midi": 81,
                    "time": 128.99583333333314,
                    "velocity": 0.48031496062992124,
                    "duration": 0.13333333333332575
                },
                {
                    "name": "A#5",
                    "midi": 82,
                    "time": 129.0874999999998,
                    "velocity": 0.4881889763779528,
                    "duration": 0.05624999999997726
                },
                {
                    "name": "B5",
                    "midi": 83,
                    "time": 129.20208333333312,
                    "velocity": 0.6614173228346457,
                    "duration": 0.05000000000001137
                },
                {
                    "name": "B4",
                    "midi": 71,
                    "time": 129.22708333333313,
                    "velocity": 0.44881889763779526,
                    "duration": 0.06041666666666856
                },
                {
                    "name": "G4",
                    "midi": 67,
                    "time": 129.23541666666645,
                    "velocity": 0.023622047244094488,
                    "duration": 0.10833333333332007
                },
                {
                    "name": "E6",
                    "midi": 88,
                    "time": 129.30208333333312,
                    "velocity": 0.47244094488188976,
                    "duration": 0.11249999999998295
                },
                {
                    "name": "D#6",
                    "midi": 87,
                    "time": 129.40624999999977,
                    "velocity": 0.4409448818897638,
                    "duration": 0.13333333333332575
                },
                {
                    "name": "D6",
                    "midi": 86,
                    "time": 129.50624999999977,
                    "velocity": 0.4645669291338583,
                    "duration": 0.04791666666665151
                },
                {
                    "name": "D6",
                    "midi": 86,
                    "time": 129.68333333333308,
                    "velocity": 0.5039370078740157,
                    "duration": 0.2020833333333485
                },
                {
                    "name": "C#3",
                    "midi": 49,
                    "time": 129.71249999999975,
                    "velocity": 0.3543307086614173,
                    "duration": 0.18541666666666856
                },
                {
                    "name": "B5",
                    "midi": 83,
                    "time": 129.81249999999977,
                    "velocity": 0.5669291338582677,
                    "duration": 0.06666666666666288
                },
                {
                    "name": "F5",
                    "midi": 77,
                    "time": 129.8895833333331,
                    "velocity": 0.44881889763779526,
                    "duration": 0.06666666666666288
                },
                {
                    "name": "D5",
                    "midi": 74,
                    "time": 129.9833333333331,
                    "velocity": 0.3700787401574803,
                    "duration": 0.056250000000005684
                },
                {
                    "name": "C#6",
                    "midi": 85,
                    "time": 130.06249999999977,
                    "velocity": 0.6692913385826772,
                    "duration": 0.1979166666666572
                },
                {
                    "name": "B5",
                    "midi": 83,
                    "time": 130.2020833333331,
                    "velocity": 0.5905511811023622,
                    "duration": 0.11458333333331439
                },
                {
                    "name": "B4",
                    "midi": 71,
                    "time": 130.2333333333331,
                    "velocity": 0.44881889763779526,
                    "duration": 0.06041666666666856
                },
                {
                    "name": "F5",
                    "midi": 77,
                    "time": 130.23541666666642,
                    "velocity": 0.3228346456692913,
                    "duration": 0.07291666666665719
                },
                {
                    "name": "C#4",
                    "midi": 61,
                    "time": 130.23541666666642,
                    "velocity": 0.4015748031496063,
                    "duration": 0.3624999999999545
                },
                {
                    "name": "F4",
                    "midi": 65,
                    "time": 130.26666666666642,
                    "velocity": 0.2440944881889764,
                    "duration": 0.06874999999999432
                },
                {
                    "name": "C#5",
                    "midi": 73,
                    "time": 130.29166666666643,
                    "velocity": 0.4094488188976378,
                    "duration": 0.04999999999998295
                },
                {
                    "name": "E6",
                    "midi": 88,
                    "time": 130.4520833333331,
                    "velocity": 0.6614173228346457,
                    "duration": 0.11249999999995453
                },
                {
                    "name": "E4",
                    "midi": 64,
                    "time": 130.46458333333308,
                    "velocity": 0.5039370078740157,
                    "duration": 0.0999999999999659
                },
                {
                    "name": "B4",
                    "midi": 71,
                    "time": 130.4729166666664,
                    "velocity": 0.4566929133858268,
                    "duration": 0.08124999999998295
                },
                {
                    "name": "B5",
                    "midi": 83,
                    "time": 130.5479166666664,
                    "velocity": 0.5433070866141733,
                    "duration": 0.18124999999994884
                },
                {
                    "name": "F5",
                    "midi": 77,
                    "time": 130.62499999999972,
                    "velocity": 0.41732283464566927,
                    "duration": 0.07708333333332007
                },
                {
                    "name": "E5",
                    "midi": 76,
                    "time": 130.71666666666636,
                    "velocity": 0.33070866141732286,
                    "duration": 0.054166666666645824
                },
                {
                    "name": "D6",
                    "midi": 86,
                    "time": 130.82291666666634,
                    "velocity": 0.7244094488188977,
                    "duration": 0.17083333333332007
                },
                {
                    "name": "B4",
                    "midi": 71,
                    "time": 130.83124999999967,
                    "velocity": 0.49606299212598426,
                    "duration": 0.04999999999998295
                },
                {
                    "name": "D4",
                    "midi": 62,
                    "time": 130.845833333333,
                    "velocity": 0.49606299212598426,
                    "duration": 0.11666666666667425
                },
                {
                    "name": "F4",
                    "midi": 65,
                    "time": 130.84791666666632,
                    "velocity": 0.33858267716535434,
                    "duration": 0.06666666666666288
                },
                {
                    "name": "B5",
                    "midi": 83,
                    "time": 130.90624999999966,
                    "velocity": 0.6535433070866141,
                    "duration": 0.20416666666667993
                },
                {
                    "name": "F5",
                    "midi": 77,
                    "time": 130.99166666666633,
                    "velocity": 0.48031496062992124,
                    "duration": 0.12083333333333712
                },
                {
                    "name": "D5",
                    "midi": 74,
                    "time": 131.083333333333,
                    "velocity": 0.4881889763779528,
                    "duration": 0.054166666666674246
                },
                {
                    "name": "D6",
                    "midi": 86,
                    "time": 131.18958333333302,
                    "velocity": 0.7480314960629921,
                    "duration": 0.1666666666666572
                },
                {
                    "name": "C#3",
                    "midi": 49,
                    "time": 131.19791666666634,
                    "velocity": 0.48031496062992124,
                    "duration": 0.14791666666667425
                },
                {
                    "name": "B5",
                    "midi": 83,
                    "time": 131.289583333333,
                    "velocity": 0.6614173228346457,
                    "duration": 0.1354166666666572
                },
                {
                    "name": "F5",
                    "midi": 77,
                    "time": 131.41874999999968,
                    "velocity": 0.2677165354330709,
                    "duration": 0.052083333333314386
                },
                {
                    "name": "D5",
                    "midi": 74,
                    "time": 131.46041666666633,
                    "velocity": 0.48031496062992124,
                    "duration": 0.04791666666665151
                },
                {
                    "name": "C#6",
                    "midi": 85,
                    "time": 131.55624999999966,
                    "velocity": 0.6929133858267716,
                    "duration": 0.21041666666667425
                },
                {
                    "name": "C#4",
                    "midi": 61,
                    "time": 131.56249999999966,
                    "velocity": 0.5275590551181102,
                    "duration": 0.125
                },
                {
                    "name": "B4",
                    "midi": 71,
                    "time": 131.564583333333,
                    "velocity": 0.3700787401574803,
                    "duration": 0.06874999999999432
                },
                {
                    "name": "F4",
                    "midi": 65,
                    "time": 131.59791666666632,
                    "velocity": 0.2755905511811024,
                    "duration": 0.06666666666666288
                },
                {
                    "name": "B5",
                    "midi": 83,
                    "time": 131.69374999999965,
                    "velocity": 0.6062992125984252,
                    "duration": 0.12708333333335986
                },
                {
                    "name": "F5",
                    "midi": 77,
                    "time": 131.745833333333,
                    "velocity": 0.3858267716535433,
                    "duration": 0.08541666666667425
                },
                {
                    "name": "D#5",
                    "midi": 75,
                    "time": 131.82499999999968,
                    "velocity": 0.15748031496062992,
                    "duration": 0.07083333333332575
                },
                {
                    "name": "D6",
                    "midi": 86,
                    "time": 131.902083333333,
                    "velocity": 0.7086614173228346,
                    "duration": 0.1687499999999602
                },
                {
                    "name": "D4",
                    "midi": 62,
                    "time": 131.90624999999966,
                    "velocity": 0.5039370078740157,
                    "duration": 0.28541666666660603
                },
                {
                    "name": "B4",
                    "midi": 71,
                    "time": 131.91041666666632,
                    "velocity": 0.44881889763779526,
                    "duration": 0.07708333333332007
                },
                {
                    "name": "F4",
                    "midi": 65,
                    "time": 131.94374999999965,
                    "velocity": 0.2992125984251969,
                    "duration": 0.0895833333333087
                },
                {
                    "name": "B5",
                    "midi": 83,
                    "time": 131.99999999999963,
                    "velocity": 0.5433070866141733,
                    "duration": 0.1354166666666572
                },
                {
                    "name": "F5",
                    "midi": 77,
                    "time": 132.06249999999963,
                    "velocity": 0.47244094488188976,
                    "duration": 0.11874999999997726
                },
                {
                    "name": "D5",
                    "midi": 74,
                    "time": 132.13749999999962,
                    "velocity": 0.15748031496062992,
                    "duration": 0.06458333333330302
                },
                {
                    "name": "B4",
                    "midi": 71,
                    "time": 132.28333333333293,
                    "velocity": 0.4251968503937008,
                    "duration": 0.08750000000000568
                },
                {
                    "name": "E6",
                    "midi": 88,
                    "time": 132.28958333333293,
                    "velocity": 0.6377952755905512,
                    "duration": 0.11250000000001137
                },
                {
                    "name": "E4",
                    "midi": 64,
                    "time": 132.3062499999996,
                    "velocity": 0.3779527559055118,
                    "duration": 0.08750000000000568
                },
                {
                    "name": "F4",
                    "midi": 65,
                    "time": 132.3374999999996,
                    "velocity": 0.07086614173228346,
                    "duration": 0.08125000000001137
                },
                {
                    "name": "B5",
                    "midi": 83,
                    "time": 132.3687499999996,
                    "velocity": 0.5511811023622047,
                    "duration": 0.19999999999998863
                },
                {
                    "name": "F5",
                    "midi": 77,
                    "time": 132.46041666666628,
                    "velocity": 0.3464566929133858,
                    "duration": 0.07083333333332575
                },
                {
                    "name": "E5",
                    "midi": 76,
                    "time": 132.53541666666626,
                    "velocity": 0.25984251968503935,
                    "duration": 0.06458333333333144
                },
                {
                    "name": "F#3",
                    "midi": 54,
                    "time": 132.70833333333292,
                    "velocity": 0.4094488188976378,
                    "duration": 0.34166666666666856
                },
                {
                    "name": "G6",
                    "midi": 91,
                    "time": 132.7937499999996,
                    "velocity": 0.5669291338582677,
                    "duration": 0.22499999999999432
                },
                {
                    "name": "C6",
                    "midi": 84,
                    "time": 132.97291666666626,
                    "velocity": 0.2677165354330709,
                    "duration": 0.14374999999998295
                },
                {
                    "name": "C#4",
                    "midi": 61,
                    "time": 133.03541666666626,
                    "velocity": 0.31496062992125984,
                    "duration": 0.18124999999994884
                },
                {
                    "name": "A#5",
                    "midi": 82,
                    "time": 133.04791666666625,
                    "velocity": 0.2125984251968504,
                    "duration": 0.07083333333332575
                },
                {
                    "name": "G5",
                    "midi": 79,
                    "time": 133.09374999999957,
                    "velocity": 0.4645669291338583,
                    "duration": 0.0625
                },
                {
                    "name": "F#6",
                    "midi": 90,
                    "time": 133.2020833333329,
                    "velocity": 0.5748031496062992,
                    "duration": 0.18541666666666856
                },
                {
                    "name": "E4",
                    "midi": 64,
                    "time": 133.22499999999954,
                    "velocity": 0.44881889763779526,
                    "duration": 0.08541666666667425
                },
                {
                    "name": "C6",
                    "midi": 84,
                    "time": 133.30416666666622,
                    "velocity": 0.3464566929133858,
                    "duration": 0.11875000000000568
                },
                {
                    "name": "A#5",
                    "midi": 82,
                    "time": 133.37083333333288,
                    "velocity": 0.36220472440944884,
                    "duration": 0.06666666666666288
                },
                {
                    "name": "A#4",
                    "midi": 70,
                    "time": 133.40624999999957,
                    "velocity": 0.3228346456692913,
                    "duration": 0.06041666666664014
                },
                {
                    "name": "F#5",
                    "midi": 78,
                    "time": 133.4208333333329,
                    "velocity": 0.4881889763779528,
                    "duration": 0.04583333333332007
                },
                {
                    "name": "E5",
                    "midi": 76,
                    "time": 133.55624999999955,
                    "velocity": 0.4330708661417323,
                    "duration": 0.04791666666665151
                },
                {
                    "name": "C6",
                    "midi": 84,
                    "time": 133.55833333333288,
                    "velocity": 0.6929133858267716,
                    "duration": 0.1416666666666515
                },
                {
                    "name": "A#5",
                    "midi": 82,
                    "time": 133.6416666666662,
                    "velocity": 0.5039370078740157,
                    "duration": 0.16041666666666288
                },
                {
                    "name": "E5",
                    "midi": 76,
                    "time": 133.77708333333285,
                    "velocity": 0.09448818897637795,
                    "duration": 0.07916666666667993
                },
                {
                    "name": "C5",
                    "midi": 72,
                    "time": 133.79583333333287,
                    "velocity": 0.41732283464566927,
                    "duration": 0.054166666666674246
                },
                {
                    "name": "C#6",
                    "midi": 85,
                    "time": 133.91249999999954,
                    "velocity": 0.6535433070866141,
                    "duration": 0.17499999999998295
                },
                {
                    "name": "A#4",
                    "midi": 70,
                    "time": 133.91249999999954,
                    "velocity": 0.3543307086614173,
                    "duration": 0.05833333333333712
                },
                {
                    "name": "A#5",
                    "midi": 82,
                    "time": 133.9979166666662,
                    "velocity": 0.3228346456692913,
                    "duration": 0.12708333333330302
                },
                {
                    "name": "E5",
                    "midi": 76,
                    "time": 134.0729166666662,
                    "velocity": 0.23622047244094488,
                    "duration": 0.0583333333333087
                },
                {
                    "name": "C#5",
                    "midi": 73,
                    "time": 134.11249999999953,
                    "velocity": 0.4094488188976378,
                    "duration": 0.04791666666665151
                },
                {
                    "name": "F#3",
                    "midi": 54,
                    "time": 134.19791666666617,
                    "velocity": 0.4330708661417323,
                    "duration": 0.22499999999999432
                },
                {
                    "name": "E6",
                    "midi": 88,
                    "time": 134.27291666666616,
                    "velocity": 0.5748031496062992,
                    "duration": 0.17916666666667425
                },
                {
                    "name": "C6",
                    "midi": 84,
                    "time": 134.35416666666617,
                    "velocity": 0.44881889763779526,
                    "duration": 0.13124999999999432
                },
                {
                    "name": "C4",
                    "midi": 60,
                    "time": 134.4124999999995,
                    "velocity": 0.36220472440944884,
                    "duration": 0.0895833333333087
                },
                {
                    "name": "A5",
                    "midi": 81,
                    "time": 134.4437499999995,
                    "velocity": 0.4881889763779528,
                    "duration": 0.054166666666645824
                },
                {
                    "name": "E4",
                    "midi": 64,
                    "time": 134.51249999999948,
                    "velocity": 0.4015748031496063,
                    "duration": 0.06041666666666856
                },
                {
                    "name": "E5",
                    "midi": 76,
                    "time": 134.51874999999947,
                    "velocity": 0.4251968503937008,
                    "duration": 0.0625
                },
                {
                    "name": "A4",
                    "midi": 69,
                    "time": 134.61666666666613,
                    "velocity": 0.3779527559055118,
                    "duration": 0.05833333333333712
                },
                {
                    "name": "G#5",
                    "midi": 80,
                    "time": 134.62499999999946,
                    "velocity": 0.5511811023622047,
                    "duration": 0.13750000000001705
                },
                {
                    "name": "A5",
                    "midi": 81,
                    "time": 134.69374999999948,
                    "velocity": 0.4566929133858268,
                    "duration": 0.09375
                },
                {
                    "name": "C5",
                    "midi": 72,
                    "time": 134.76249999999948,
                    "velocity": 0.4094488188976378,
                    "duration": 0.06041666666666856
                },
                {
                    "name": "A#5",
                    "midi": 82,
                    "time": 134.76249999999948,
                    "velocity": 0.5039370078740157,
                    "duration": 0.04791666666667993
                },
                {
                    "name": "E5",
                    "midi": 76,
                    "time": 134.87083333333283,
                    "velocity": 0.3779527559055118,
                    "duration": 0.0666666666666913
                },
                {
                    "name": "B5",
                    "midi": 83,
                    "time": 134.8874999999995,
                    "velocity": 0.4645669291338583,
                    "duration": 0.054166666666674246
                },
                {
                    "name": "C6",
                    "midi": 84,
                    "time": 134.91041666666618,
                    "velocity": 0.1889763779527559,
                    "duration": 0.11458333333331439
                },
                {
                    "name": "D6",
                    "midi": 86,
                    "time": 134.9437499999995,
                    "velocity": 0.6220472440944882,
                    "duration": 0.25208333333333144
                },
                {
                    "name": "A5",
                    "midi": 81,
                    "time": 134.9812499999995,
                    "velocity": 0.5669291338582677,
                    "duration": 0.054166666666645824
                },
                {
                    "name": "E5",
                    "midi": 76,
                    "time": 135.08958333333283,
                    "velocity": 0.23622047244094488,
                    "duration": 0.07083333333332575
                },
                {
                    "name": "C5",
                    "midi": 72,
                    "time": 135.17916666666616,
                    "velocity": 0.5354330708661418,
                    "duration": 0.039583333333325754
                },
                {
                    "name": "D#6",
                    "midi": 87,
                    "time": 135.2062499999995,
                    "velocity": 0.4881889763779528,
                    "duration": 0.04166666666665719
                },
                {
                    "name": "E6",
                    "midi": 88,
                    "time": 135.3062499999995,
                    "velocity": 0.5748031496062992,
                    "duration": 0.05000000000001137
                },
                {
                    "name": "A4",
                    "midi": 69,
                    "time": 135.30833333333283,
                    "velocity": 0.4094488188976378,
                    "duration": 0.05833333333333712
                },
                {
                    "name": "A6",
                    "midi": 93,
                    "time": 135.39166666666617,
                    "velocity": 0.5748031496062992,
                    "duration": 0.1416666666666515
                },
                {
                    "name": "E4",
                    "midi": 64,
                    "time": 135.4312499999995,
                    "velocity": 0.4015748031496063,
                    "duration": 0.056250000000005684
                },
                {
                    "name": "G#6",
                    "midi": 92,
                    "time": 135.48541666666617,
                    "velocity": 0.5196850393700787,
                    "duration": 0.13333333333332575
                },
                {
                    "name": "C4",
                    "midi": 60,
                    "time": 135.5312499999995,
                    "velocity": 0.44881889763779526,
                    "duration": 0.05208333333334281
                },
                {
                    "name": "G6",
                    "midi": 91,
                    "time": 135.5812499999995,
                    "velocity": 0.5748031496062992,
                    "duration": 0.039583333333325754
                },
                {
                    "name": "G6",
                    "midi": 91,
                    "time": 135.7062499999995,
                    "velocity": 0.33070866141732286,
                    "duration": 0.24374999999997726
                },
                {
                    "name": "F#3",
                    "midi": 54,
                    "time": 135.74166666666616,
                    "velocity": 0.5196850393700787,
                    "duration": 0.19583333333332575
                },
                {
                    "name": "E6",
                    "midi": 88,
                    "time": 135.83333333333283,
                    "velocity": 0.4330708661417323,
                    "duration": 0.28958333333332575
                },
                {
                    "name": "A#5",
                    "midi": 82,
                    "time": 135.91874999999948,
                    "velocity": 0.4330708661417323,
                    "duration": 0.14375000000001137
                },
                {
                    "name": "G5",
                    "midi": 79,
                    "time": 136.0083333333328,
                    "velocity": 0.49606299212598426,
                    "duration": 0.08541666666667425
                },
                {
                    "name": "F#6",
                    "midi": 90,
                    "time": 136.13958333333284,
                    "velocity": 0.6062992125984252,
                    "duration": 0.18958333333330302
                },
                {
                    "name": "E6",
                    "midi": 88,
                    "time": 136.25833333333284,
                    "velocity": 0.2440944881889764,
                    "duration": 0.19166666666660603
                },
                {
                    "name": "E5",
                    "midi": 76,
                    "time": 136.29791666666617,
                    "velocity": 0.25196850393700787,
                    "duration": 0.07708333333329165
                },
                {
                    "name": "F#4",
                    "midi": 66,
                    "time": 136.3062499999995,
                    "velocity": 0.18110236220472442,
                    "duration": 0.32291666666660035
                },
                {
                    "name": "A#4",
                    "midi": 70,
                    "time": 136.3062499999995,
                    "velocity": 0.28346456692913385,
                    "duration": 0.09583333333330302
                },
                {
                    "name": "A#5",
                    "midi": 82,
                    "time": 136.3208333333328,
                    "velocity": 0.4015748031496063,
                    "duration": 0.1312499999999659
                },
                {
                    "name": "F#5",
                    "midi": 78,
                    "time": 136.39999999999947,
                    "velocity": 0.4645669291338583,
                    "duration": 0.04374999999998863
                },
                {
                    "name": "A6",
                    "midi": 93,
                    "time": 136.58124999999944,
                    "velocity": 0.6220472440944882,
                    "duration": 0.125
                },
                {
                    "name": "A4",
                    "midi": 69,
                    "time": 136.58124999999944,
                    "velocity": 0.4015748031496063,
                    "duration": 0.3166666666666629
                },
                {
                    "name": "E5",
                    "midi": 76,
                    "time": 136.58333333333277,
                    "velocity": 0.4566929133858268,
                    "duration": 0.08541666666664582
                },
                {
                    "name": "E6",
                    "midi": 88,
                    "time": 136.68749999999943,
                    "velocity": 0.4566929133858268,
                    "duration": 0.16041666666666288
                },
                {
                    "name": "A#5",
                    "midi": 82,
                    "time": 136.77708333333277,
                    "velocity": 0.3700787401574803,
                    "duration": 0.10208333333332575
                },
                {
                    "name": "A5",
                    "midi": 81,
                    "time": 136.87708333333276,
                    "velocity": 0.15748031496062992,
                    "duration": 0.07083333333335418
                },
                {
                    "name": "G6",
                    "midi": 91,
                    "time": 136.9541666666661,
                    "velocity": 0.7007874015748031,
                    "duration": 0.1729166666666231
                },
                {
                    "name": "E5",
                    "midi": 76,
                    "time": 136.96458333333277,
                    "velocity": 0.4409448818897638,
                    "duration": 0.04791666666665151
                },
                {
                    "name": "G4",
                    "midi": 67,
                    "time": 136.9791666666661,
                    "velocity": 0.41732283464566927,
                    "duration": 0.13333333333332575
                },
                {
                    "name": "A#4",
                    "midi": 70,
                    "time": 137.01249999999942,
                    "velocity": 0.1968503937007874,
                    "duration": 0.07083333333332575
                },
                {
                    "name": "E6",
                    "midi": 88,
                    "time": 137.02708333333274,
                    "velocity": 0.30708661417322836,
                    "duration": 0.1875
                },
                {
                    "name": "A#5",
                    "midi": 82,
                    "time": 137.1249999999994,
                    "velocity": 0.4409448818897638,
                    "duration": 0.1354166666666572
                },
                {
                    "name": "G5",
                    "midi": 79,
                    "time": 137.20833333333275,
                    "velocity": 0.5275590551181102,
                    "duration": 0.06249999999997158
                },
                {
                    "name": "F#3",
                    "midi": 54,
                    "time": 137.32291666666606,
                    "velocity": 0.5196850393700787,
                    "duration": 0.10833333333334849
                },
                {
                    "name": "G6",
                    "midi": 91,
                    "time": 137.33958333333274,
                    "velocity": 0.6692913385826772,
                    "duration": 0.15000000000000568
                },
                {
                    "name": "E6",
                    "midi": 88,
                    "time": 137.4312499999994,
                    "velocity": 0.5275590551181102,
                    "duration": 0.25
                },
                {
                    "name": "A#5",
                    "midi": 82,
                    "time": 137.51249999999942,
                    "velocity": 0.4645669291338583,
                    "duration": 0.1354166666666572
                },
                {
                    "name": "G5",
                    "midi": 79,
                    "time": 137.5874999999994,
                    "velocity": 0.5275590551181102,
                    "duration": 0.06666666666666288
                },
                {
                    "name": "F#6",
                    "midi": 90,
                    "time": 137.68333333333274,
                    "velocity": 0.6299212598425197,
                    "duration": 0.21666666666666856
                },
                {
                    "name": "F#4",
                    "midi": 66,
                    "time": 137.68958333333273,
                    "velocity": 0.4645669291338583,
                    "duration": 0.2583333333333542
                },
                {
                    "name": "E5",
                    "midi": 76,
                    "time": 137.6937499999994,
                    "velocity": 0.4881889763779528,
                    "duration": 0.04791666666667993
                },
                {
                    "name": "A#4",
                    "midi": 70,
                    "time": 137.7249999999994,
                    "velocity": 0.2125984251968504,
                    "duration": 0.07916666666667993
                },
                {
                    "name": "E6",
                    "midi": 88,
                    "time": 137.77708333333274,
                    "velocity": 0.36220472440944884,
                    "duration": 0.18333333333333712
                },
                {
                    "name": "A#5",
                    "midi": 82,
                    "time": 137.86666666666608,
                    "velocity": 0.3937007874015748,
                    "duration": 0.10833333333332007
                },
                {
                    "name": "F#5",
                    "midi": 78,
                    "time": 137.9166666666661,
                    "velocity": 0.5433070866141733,
                    "duration": 0.039583333333325754
                },
                {
                    "name": "G6",
                    "midi": 91,
                    "time": 138.0437499999994,
                    "velocity": 0.7637795275590551,
                    "duration": 0.16041666666663446
                },
                {
                    "name": "G4",
                    "midi": 67,
                    "time": 138.05208333333272,
                    "velocity": 0.5275590551181102,
                    "duration": 0.12916666666663446
                },
                {
                    "name": "E5",
                    "midi": 76,
                    "time": 138.06666666666604,
                    "velocity": 0.30708661417322836,
                    "duration": 0.06458333333333144
                },
                {
                    "name": "E6",
                    "midi": 88,
                    "time": 138.13541666666603,
                    "velocity": 0.4330708661417323,
                    "duration": 0.14791666666667425
                },
                {
                    "name": "A#5",
                    "midi": 82,
                    "time": 138.19791666666603,
                    "velocity": 0.4645669291338583,
                    "duration": 0.11666666666667425
                },
                {
                    "name": "G5",
                    "midi": 79,
                    "time": 138.2645833333327,
                    "velocity": 0.4251968503937008,
                    "duration": 0.056250000000005684
                },
                {
                    "name": "E5",
                    "midi": 76,
                    "time": 138.36874999999938,
                    "velocity": 0.3700787401574803,
                    "duration": 0.054166666666674246
                },
                {
                    "name": "A4",
                    "midi": 69,
                    "time": 138.38541666666606,
                    "velocity": 0.31496062992125984,
                    "duration": 0.05833333333333712
                },
                {
                    "name": "A6",
                    "midi": 93,
                    "time": 138.38541666666606,
                    "velocity": 0.6535433070866141,
                    "duration": 0.11249999999998295
                },
                {
                    "name": "A#4",
                    "midi": 70,
                    "time": 138.3874999999994,
                    "velocity": 0.3228346456692913,
                    "duration": 0.06458333333333144
                },
                {
                    "name": "E6",
                    "midi": 88,
                    "time": 138.4249999999994,
                    "velocity": 0.06299212598425197,
                    "duration": 0.21249999999997726
                },
                {
                    "name": "A#5",
                    "midi": 82,
                    "time": 138.53541666666604,
                    "velocity": 0.47244094488188976,
                    "duration": 0.11875000000000568
                },
                {
                    "name": "A5",
                    "midi": 81,
                    "time": 138.61041666666603,
                    "velocity": 0.33858267716535434,
                    "duration": 0.056250000000005684
                },
                {
                    "name": "G3",
                    "midi": 55,
                    "time": 138.76249999999936,
                    "velocity": 0.4251968503937008,
                    "duration": 0.22499999999999432
                },
                {
                    "name": "C7",
                    "midi": 96,
                    "time": 138.80624999999935,
                    "velocity": 0.7244094488188977,
                    "duration": 0.14375000000001137
                },
                {
                    "name": "F6",
                    "midi": 89,
                    "time": 138.97291666666604,
                    "velocity": 0.36220472440944884,
                    "duration": 0.13541666666662877
                },
                {
                    "name": "C#4",
                    "midi": 61,
                    "time": 139.02916666666601,
                    "velocity": 0.36220472440944884,
                    "duration": 0.17083333333332007
                },
                {
                    "name": "C6",
                    "midi": 84,
                    "time": 139.097916666666,
                    "velocity": 0.4015748031496063,
                    "duration": 0.07916666666665151
                },
                {
                    "name": "F4",
                    "midi": 65,
                    "time": 139.19583333333267,
                    "velocity": 0.3228346456692913,
                    "duration": 0.11249999999998295
                },
                {
                    "name": "A#6",
                    "midi": 94,
                    "time": 139.21249999999932,
                    "velocity": 0.5354330708661418,
                    "duration": 0.15208333333333712
                },
                {
                    "name": "F6",
                    "midi": 89,
                    "time": 139.29999999999933,
                    "velocity": 0.3228346456692913,
                    "duration": 0.1208333333333087
                },
                {
                    "name": "C#6",
                    "midi": 85,
                    "time": 139.37083333333266,
                    "velocity": 0.4094488188976378,
                    "duration": 0.054166666666645824
                },
                {
                    "name": "A#4",
                    "midi": 70,
                    "time": 139.372916666666,
                    "velocity": 0.33858267716535434,
                    "duration": 0.08333333333331439
                },
                {
                    "name": "A#5",
                    "midi": 82,
                    "time": 139.41458333333264,
                    "velocity": 0.44881889763779526,
                    "duration": 0.052083333333314386
                },
                {
                    "name": "D#6",
                    "midi": 87,
                    "time": 139.55416666666596,
                    "velocity": 0.5275590551181102,
                    "duration": 0.15624999999997158
                },
                {
                    "name": "A#3",
                    "midi": 58,
                    "time": 139.56874999999928,
                    "velocity": 0.3228346456692913,
                    "duration": 0.1999999999999602
                },
                {
                    "name": "C#6",
                    "midi": 85,
                    "time": 139.64791666666594,
                    "velocity": 0.4094488188976378,
                    "duration": 0.1479166666666174
                },
                {
                    "name": "G#5",
                    "midi": 80,
                    "time": 139.72499999999926,
                    "velocity": 0.3700787401574803,
                    "duration": 0.06041666666664014
                },
                {
                    "name": "D#5",
                    "midi": 75,
                    "time": 139.7791666666659,
                    "velocity": 0.3543307086614173,
                    "duration": 0.04791666666665151
                },
                {
                    "name": "E4",
                    "midi": 64,
                    "time": 139.8687499999992,
                    "velocity": 0.18110236220472442,
                    "duration": 0.0666666666666913
                },
                {
                    "name": "G#4",
                    "midi": 68,
                    "time": 139.88958333333255,
                    "velocity": 0.29133858267716534,
                    "duration": 0.06458333333335986
                },
                {
                    "name": "E6",
                    "midi": 88,
                    "time": 139.8999999999992,
                    "velocity": 0.5748031496062992,
                    "duration": 0.14791666666670267
                },
                {
                    "name": "C#5",
                    "midi": 73,
                    "time": 139.9166666666659,
                    "velocity": 0.28346456692913385,
                    "duration": 0.07083333333335418
                },
                {
                    "name": "C#6",
                    "midi": 85,
                    "time": 139.9604166666659,
                    "velocity": 0.3779527559055118,
                    "duration": 0.15208333333333712
                },
                {
                    "name": "G#5",
                    "midi": 80,
                    "time": 140.02499999999924,
                    "velocity": 0.47244094488188976,
                    "duration": 0.0625
                },
                {
                    "name": "E5",
                    "midi": 76,
                    "time": 140.0791666666659,
                    "velocity": 0.3464566929133858,
                    "duration": 0.054166666666674246
                },
                {
                    "name": "C#4",
                    "midi": 61,
                    "time": 140.21249999999924,
                    "velocity": 0.3779527559055118,
                    "duration": 0.12916666666666288
                },
                {
                    "name": "G6",
                    "midi": 91,
                    "time": 140.21458333333257,
                    "velocity": 0.7401574803149606,
                    "duration": 0.12291666666666856
                },
                {
                    "name": "E6",
                    "midi": 88,
                    "time": 140.2791666666659,
                    "velocity": 0.49606299212598426,
                    "duration": 0.12291666666666856
                },
                {
                    "name": "G4",
                    "midi": 67,
                    "time": 140.33124999999924,
                    "velocity": 0.3779527559055118,
                    "duration": 0.08750000000000568
                },
                {
                    "name": "B5",
                    "midi": 83,
                    "time": 140.36249999999924,
                    "velocity": 0.7086614173228346,
                    "duration": 0.05833333333333712
                },
                {
                    "name": "B4",
                    "midi": 71,
                    "time": 140.43749999999926,
                    "velocity": 0.3464566929133858,
                    "duration": 0.05833333333333712
                },
                {
                    "name": "G5",
                    "midi": 79,
                    "time": 140.45624999999927,
                    "velocity": 0.5669291338582677,
                    "duration": 0.054166666666645824
                },
                {
                    "name": "E5",
                    "midi": 76,
                    "time": 140.51041666666592,
                    "velocity": 0.3543307086614173,
                    "duration": 0.04999999999998295
                },
                {
                    "name": "G#5",
                    "midi": 80,
                    "time": 140.55208333333258,
                    "velocity": 0.5511811023622047,
                    "duration": 0.1208333333333087
                },
                {
                    "name": "A5",
                    "midi": 81,
                    "time": 140.63333333333256,
                    "velocity": 0.5905511811023622,
                    "duration": 0.11041666666665151
                },
                {
                    "name": "A#5",
                    "midi": 82,
                    "time": 140.6979166666659,
                    "velocity": 0.5590551181102362,
                    "duration": 0.04583333333332007
                },
                {
                    "name": "B5",
                    "midi": 83,
                    "time": 140.78333333333254,
                    "velocity": 0.7795275590551181,
                    "duration": 0.07499999999996021
                },
                {
                    "name": "B4",
                    "midi": 71,
                    "time": 140.82708333333252,
                    "velocity": 0.48031496062992124,
                    "duration": 0.0687499999999659
                },
                {
                    "name": "C#4",
                    "midi": 61,
                    "time": 140.8395833333325,
                    "velocity": 0.33858267716535434,
                    "duration": 0.10833333333329165
                },
                {
                    "name": "G4",
                    "midi": 67,
                    "time": 140.84791666666584,
                    "velocity": 0.29133858267716534,
                    "duration": 0.06249999999997158
                },
                {
                    "name": "C6",
                    "midi": 84,
                    "time": 140.86666666666582,
                    "velocity": 0.6220472440944882,
                    "duration": 0.11874999999997726
                },
                {
                    "name": "C#6",
                    "midi": 85,
                    "time": 140.93749999999915,
                    "velocity": 0.6220472440944882,
                    "duration": 0.07291666666665719
                },
                {
                    "name": "D6",
                    "midi": 86,
                    "time": 141.0166666666658,
                    "velocity": 0.6220472440944882,
                    "duration": 0.07291666666665719
                },
                {
                    "name": "D#6",
                    "midi": 87,
                    "time": 141.11249999999913,
                    "velocity": 0.6141732283464567,
                    "duration": 0.04583333333332007
                },
                {
                    "name": "G#4",
                    "midi": 68,
                    "time": 141.15624999999912,
                    "velocity": 0.3779527559055118,
                    "duration": 0.07291666666662877
                },
                {
                    "name": "E4",
                    "midi": 64,
                    "time": 141.16458333333244,
                    "velocity": 0.3779527559055118,
                    "duration": 0.04999999999998295
                },
                {
                    "name": "A#3",
                    "midi": 58,
                    "time": 141.17916666666576,
                    "velocity": 0.2440944881889764,
                    "duration": 0.06458333333330302
                },
                {
                    "name": "E6",
                    "midi": 88,
                    "time": 141.20833333333243,
                    "velocity": 0.6062992125984252,
                    "duration": 0.2104166666666174
                },
                {
                    "name": "F6",
                    "midi": 89,
                    "time": 141.28749999999906,
                    "velocity": 0.5748031496062992,
                    "duration": 0.14791666666664582
                },
                {
                    "name": "F#6",
                    "midi": 90,
                    "time": 141.3520833333324,
                    "velocity": 0.5039370078740157,
                    "duration": 0.16458333333329733
                },
                {
                    "name": "G6",
                    "midi": 91,
                    "time": 141.43333333333237,
                    "velocity": 0.5511811023622047,
                    "duration": 0.1312499999999659
                },
                {
                    "name": "G3",
                    "midi": 55,
                    "time": 141.48958333333235,
                    "velocity": 0.4330708661417323,
                    "duration": 0.15833333333330302
                },
                {
                    "name": "C7",
                    "midi": 96,
                    "time": 141.52291666666568,
                    "velocity": 0.6771653543307087,
                    "duration": 0.11041666666665151
                },
                {
                    "name": "C#4",
                    "midi": 61,
                    "time": 141.56041666666567,
                    "velocity": 0.33858267716535434,
                    "duration": 0.12916666666663446
                },
                {
                    "name": "F6",
                    "midi": 89,
                    "time": 141.61041666666566,
                    "velocity": 0.5669291338582677,
                    "duration": 0.1666666666666572
                },
                {
                    "name": "F4",
                    "midi": 65,
                    "time": 141.6833333333323,
                    "velocity": 0.4409448818897638,
                    "duration": 0.04374999999998863
                },
                {
                    "name": "C#6",
                    "midi": 85,
                    "time": 141.70416666666563,
                    "velocity": 0.6141732283464567,
                    "duration": 0.11458333333337123
                },
                {
                    "name": "C6",
                    "midi": 84,
                    "time": 141.793749999999,
                    "velocity": 0.3937007874015748,
                    "duration": 0.07500000000001705
                },
                {
                    "name": "G4",
                    "midi": 67,
                    "time": 141.824999999999,
                    "velocity": 0.4566929133858268,
                    "duration": 0.08541666666667425
                },
                {
                    "name": "A#6",
                    "midi": 94,
                    "time": 141.85208333333233,
                    "velocity": 0.6141732283464567,
                    "duration": 0.16250000000002274
                },
                {
                    "name": "F6",
                    "midi": 89,
                    "time": 141.937499999999,
                    "velocity": 0.4645669291338583,
                    "duration": 0.13125000000002274
                },
                {
                    "name": "C#5",
                    "midi": 73,
                    "time": 141.962499999999,
                    "velocity": 0.36220472440944884,
                    "duration": 0.06041666666666856
                },
                {
                    "name": "C#6",
                    "midi": 85,
                    "time": 141.993749999999,
                    "velocity": 0.4330708661417323,
                    "duration": 0.07291666666668561
                },
                {
                    "name": "A#5",
                    "midi": 82,
                    "time": 142.0416666666657,
                    "velocity": 0.47244094488188976,
                    "duration": 0.04999999999998295
                },
                {
                    "name": "F5",
                    "midi": 77,
                    "time": 142.08124999999902,
                    "velocity": 0.49606299212598426,
                    "duration": 0.06041666666666856
                },
                {
                    "name": "C#7",
                    "midi": 97,
                    "time": 142.17708333333235,
                    "velocity": 0.6377952755905512,
                    "duration": 0.1687499999999602
                },
                {
                    "name": "A#4",
                    "midi": 70,
                    "time": 142.22083333333234,
                    "velocity": 0.3700787401574803,
                    "duration": 0.16458333333329733
                },
                {
                    "name": "G#6",
                    "midi": 92,
                    "time": 142.26666666666566,
                    "velocity": 0.4566929133858268,
                    "duration": 0.13958333333329165
                },
                {
                    "name": "E6",
                    "midi": 88,
                    "time": 142.34791666666564,
                    "velocity": 0.4330708661417323,
                    "duration": 0.07499999999998863
                },
                {
                    "name": "C#6",
                    "midi": 85,
                    "time": 142.38541666666563,
                    "velocity": 0.5039370078740157,
                    "duration": 0.04166666666665719
                },
                {
                    "name": "E5",
                    "midi": 76,
                    "time": 142.3958333333323,
                    "velocity": 0.33070866141732286,
                    "duration": 0.07499999999998863
                },
                {
                    "name": "C7",
                    "midi": 96,
                    "time": 142.51874999999896,
                    "velocity": 0.5826771653543307,
                    "duration": 0.07916666666665151
                },
                {
                    "name": "G#5",
                    "midi": 80,
                    "time": 142.51874999999896,
                    "velocity": 0.33858267716535434,
                    "duration": 0.06458333333333144
                },
                {
                    "name": "G#6",
                    "midi": 92,
                    "time": 142.56874999999897,
                    "velocity": 0.33070866141732286,
                    "duration": 0.13541666666660035
                },
                {
                    "name": "E6",
                    "midi": 88,
                    "time": 142.64374999999893,
                    "velocity": 0.2992125984251969,
                    "duration": 0.08333333333331439
                },
                {
                    "name": "C#6",
                    "midi": 85,
                    "time": 142.65833333333225,
                    "velocity": 0.4015748031496063,
                    "duration": 0.04374999999998863
                },
                {
                    "name": "C6",
                    "midi": 84,
                    "time": 142.68958333333225,
                    "velocity": 0.6692913385826772,
                    "duration": 0.056250000000005684
                },
                {
                    "name": "C7",
                    "midi": 96,
                    "time": 142.82291666666558,
                    "velocity": 0.7165354330708661,
                    "duration": 0.125
                },
                {
                    "name": "G4",
                    "midi": 67,
                    "time": 142.84583333333225,
                    "velocity": 0.4409448818897638,
                    "duration": 0.18958333333335986
                },
                {
                    "name": "F6",
                    "midi": 89,
                    "time": 142.91458333333225,
                    "velocity": 0.6377952755905512,
                    "duration": 0.13750000000004547
                },
                {
                    "name": "C#6",
                    "midi": 85,
                    "time": 143.01458333333227,
                    "velocity": 0.5511811023622047,
                    "duration": 0.07291666666668561
                },
                {
                    "name": "C#5",
                    "midi": 73,
                    "time": 143.01874999999893,
                    "velocity": 0.36220472440944884,
                    "duration": 0.09166666666669698
                },
                {
                    "name": "C6",
                    "midi": 84,
                    "time": 143.0666666666656,
                    "velocity": 0.3858267716535433,
                    "duration": 0.054166666666674246
                },
                {
                    "name": "A#6",
                    "midi": 94,
                    "time": 143.14791666666562,
                    "velocity": 0.6141732283464567,
                    "duration": 0.14999999999997726
                },
                {
                    "name": "F5",
                    "midi": 77,
                    "time": 143.18958333333228,
                    "velocity": 0.4409448818897638,
                    "duration": 0.0895833333333087
                },
                {
                    "name": "F6",
                    "midi": 89,
                    "time": 143.2041666666656,
                    "velocity": 0.4251968503937008,
                    "duration": 0.13333333333332575
                },
                {
                    "name": "C#6",
                    "midi": 85,
                    "time": 143.2791666666656,
                    "velocity": 0.3858267716535433,
                    "duration": 0.056250000000005684
                },
                {
                    "name": "A#5",
                    "midi": 82,
                    "time": 143.30624999999893,
                    "velocity": 0.5511811023622047,
                    "duration": 0.05208333333334281
                },
                {
                    "name": "A#4",
                    "midi": 70,
                    "time": 143.41874999999894,
                    "velocity": 0.3858267716535433,
                    "duration": 0.34166666666664014
                },
                {
                    "name": "C7",
                    "midi": 96,
                    "time": 143.4604166666656,
                    "velocity": 0.7244094488188977,
                    "duration": 0.04375000000001705
                },
                {
                    "name": "E6",
                    "midi": 88,
                    "time": 143.5666666666656,
                    "velocity": 0.4881889763779528,
                    "duration": 0.07291666666665719
                },
                {
                    "name": "C#6",
                    "midi": 85,
                    "time": 143.61874999999893,
                    "velocity": 0.5354330708661418,
                    "duration": 0.039583333333325754
                },
                {
                    "name": "E5",
                    "midi": 76,
                    "time": 143.64999999999893,
                    "velocity": 0.31496062992125984,
                    "duration": 0.11041666666665151
                },
                {
                    "name": "C6",
                    "midi": 84,
                    "time": 143.65624999999892,
                    "velocity": 0.5748031496062992,
                    "duration": 0.04374999999998863
                },
                {
                    "name": "G#5",
                    "midi": 80,
                    "time": 143.78124999999892,
                    "velocity": 0.3700787401574803,
                    "duration": 0.09375
                },
                {
                    "name": "C#7",
                    "midi": 97,
                    "time": 143.78124999999892,
                    "velocity": 0.6377952755905512,
                    "duration": 0.16041666666666288
                },
                {
                    "name": "G#6",
                    "midi": 92,
                    "time": 143.8604166666656,
                    "velocity": 0.3858267716535433,
                    "duration": 0.08749999999997726
                },
                {
                    "name": "A#5",
                    "midi": 82,
                    "time": 143.93124999999893,
                    "velocity": 0.4409448818897638,
                    "duration": 0.04374999999998863
                },
                {
                    "name": "E6",
                    "midi": 88,
                    "time": 143.93749999999892,
                    "velocity": 0.25984251968503935,
                    "duration": 0.06874999999999432
                },
                {
                    "name": "C#6",
                    "midi": 85,
                    "time": 143.94166666666558,
                    "velocity": 0.5354330708661418,
                    "duration": 0.05000000000001137
                },
                {
                    "name": "F6",
                    "midi": 89,
                    "time": 143.97083333333225,
                    "velocity": 0.2125984251968504,
                    "duration": 0.07291666666665719
                },
                {
                    "name": "A4",
                    "midi": 69,
                    "time": 144.08333333333223,
                    "velocity": 0.4251968503937008,
                    "duration": 0.20208333333332007
                },
                {
                    "name": "D7",
                    "midi": 98,
                    "time": 144.08958333333223,
                    "velocity": 0.7637795275590551,
                    "duration": 0.08958333333333712
                },
                {
                    "name": "G#6",
                    "midi": 92,
                    "time": 144.11041666666557,
                    "velocity": 0.3228346456692913,
                    "duration": 0.06041666666666856
                },
                {
                    "name": "G6",
                    "midi": 91,
                    "time": 144.16666666666558,
                    "velocity": 0.5039370078740157,
                    "duration": 0.13958333333332007
                },
                {
                    "name": "D#6",
                    "midi": 87,
                    "time": 144.2374999999989,
                    "velocity": 0.4409448818897638,
                    "duration": 0.12291666666666856
                },
                {
                    "name": "D#5",
                    "midi": 75,
                    "time": 144.26666666666557,
                    "velocity": 0.4094488188976378,
                    "duration": 0.09999999999999432
                },
                {
                    "name": "D6",
                    "midi": 86,
                    "time": 144.27291666666557,
                    "velocity": 0.49606299212598426,
                    "duration": 0.06874999999999432
                },
                {
                    "name": "C7",
                    "midi": 96,
                    "time": 144.3874999999989,
                    "velocity": 0.7322834645669292,
                    "duration": 0.10416666666665719
                },
                {
                    "name": "G6",
                    "midi": 91,
                    "time": 144.42291666666557,
                    "velocity": 0.33858267716535434,
                    "duration": 0.13541666666662877
                },
                {
                    "name": "G5",
                    "midi": 79,
                    "time": 144.4624999999989,
                    "velocity": 0.4645669291338583,
                    "duration": 0.15208333333328028
                },
                {
                    "name": "D#6",
                    "midi": 87,
                    "time": 144.4999999999989,
                    "velocity": 0.4330708661417323,
                    "duration": 0.04583333333332007
                },
                {
                    "name": "C6",
                    "midi": 84,
                    "time": 144.5312499999989,
                    "velocity": 0.5905511811023622,
                    "duration": 0.03958333333329733
                },
                {
                    "name": "C5",
                    "midi": 72,
                    "time": 144.6645833333322,
                    "velocity": 0.5433070866141733,
                    "duration": 0.1354166666666572
                },
                {
                    "name": "D#7",
                    "midi": 99,
                    "time": 144.67499999999885,
                    "velocity": 0.6929133858267716,
                    "duration": 0.1354166666666572
                },
                {
                    "name": "A#6",
                    "midi": 94,
                    "time": 144.73958333333218,
                    "velocity": 0.4409448818897638,
                    "duration": 0.14999999999997726
                },
                {
                    "name": "F#6",
                    "midi": 90,
                    "time": 144.78749999999886,
                    "velocity": 0.41732283464566927,
                    "duration": 0.0999999999999659
                },
                {
                    "name": "F#5",
                    "midi": 78,
                    "time": 144.8104166666655,
                    "velocity": 0.4566929133858268,
                    "duration": 0.11249999999998295
                },
                {
                    "name": "D#6",
                    "midi": 87,
                    "time": 144.8229166666655,
                    "velocity": 0.3858267716535433,
                    "duration": 0.05000000000001137
                },
                {
                    "name": "D7",
                    "midi": 98,
                    "time": 144.94583333333216,
                    "velocity": 0.7165354330708661,
                    "duration": 0.11458333333331439
                },
                {
                    "name": "A#5",
                    "midi": 82,
                    "time": 144.9541666666655,
                    "velocity": 0.4566929133858268,
                    "duration": 0.05833333333333712
                },
                {
                    "name": "A#6",
                    "midi": 94,
                    "time": 144.9854166666655,
                    "velocity": 0.30708661417322836,
                    "duration": 0.1520833333333087
                },
                {
                    "name": "F#6",
                    "midi": 90,
                    "time": 145.0479166666655,
                    "velocity": 0.4881889763779528,
                    "duration": 0.12291666666664014
                },
                {
                    "name": "D#6",
                    "midi": 87,
                    "time": 145.0874999999988,
                    "velocity": 0.41732283464566927,
                    "duration": 0.04166666666665719
                },
                {
                    "name": "D6",
                    "midi": 86,
                    "time": 145.09791666666547,
                    "velocity": 0.5669291338582677,
                    "duration": 0.07499999999998863
                },
                {
                    "name": "D7",
                    "midi": 98,
                    "time": 145.22708333333213,
                    "velocity": 0.7952755905511811,
                    "duration": 0.11249999999998295
                },
                {
                    "name": "A4",
                    "midi": 69,
                    "time": 145.26041666666546,
                    "velocity": 0.5118110236220472,
                    "duration": 0.15833333333333144
                },
                {
                    "name": "G6",
                    "midi": 91,
                    "time": 145.30208333333212,
                    "velocity": 0.5984251968503937,
                    "duration": 0.15208333333333712
                },
                {
                    "name": "D#6",
                    "midi": 87,
                    "time": 145.39583333333212,
                    "velocity": 0.3464566929133858,
                    "duration": 0.11458333333334281
                },
                {
                    "name": "D6",
                    "midi": 86,
                    "time": 145.42083333333213,
                    "velocity": 0.4251968503937008,
                    "duration": 0.0625
                },
                {
                    "name": "D#5",
                    "midi": 75,
                    "time": 145.42083333333213,
                    "velocity": 0.4566929133858268,
                    "duration": 0.08750000000000568
                },
                {
                    "name": "C7",
                    "midi": 96,
                    "time": 145.52916666666547,
                    "velocity": 0.5826771653543307,
                    "duration": 0.11666666666667425
                },
                {
                    "name": "G6",
                    "midi": 91,
                    "time": 145.57291666666546,
                    "velocity": 0.4094488188976378,
                    "duration": 0.1187500000000341
                },
                {
                    "name": "G5",
                    "midi": 79,
                    "time": 145.5749999999988,
                    "velocity": 0.5826771653543307,
                    "duration": 0.1291666666666913
                },
                {
                    "name": "D#6",
                    "midi": 87,
                    "time": 145.6249999999988,
                    "velocity": 0.5275590551181102,
                    "duration": 0.07083333333335418
                },
                {
                    "name": "C6",
                    "midi": 84,
                    "time": 145.66874999999882,
                    "velocity": 0.4881889763779528,
                    "duration": 0.04999999999998295
                },
                {
                    "name": "C5",
                    "midi": 72,
                    "time": 145.79166666666546,
                    "velocity": 0.5039370078740157,
                    "duration": 0.13124999999999432
                },
                {
                    "name": "D7",
                    "midi": 98,
                    "time": 145.7937499999988,
                    "velocity": 0.8267716535433071,
                    "duration": 0.12708333333333144
                },
                {
                    "name": "A#6",
                    "midi": 94,
                    "time": 145.8812499999988,
                    "velocity": 0.5039370078740157,
                    "duration": 0.11875000000000568
                },
                {
                    "name": "F#5",
                    "midi": 78,
                    "time": 145.91041666666547,
                    "velocity": 0.48031496062992124,
                    "duration": 0.15208333333333712
                },
                {
                    "name": "D6",
                    "midi": 86,
                    "time": 145.91666666666546,
                    "velocity": 0.5039370078740157,
                    "duration": 0.05208333333334281
                },
                {
                    "name": "F#6",
                    "midi": 90,
                    "time": 145.95208333333213,
                    "velocity": 0.2283464566929134,
                    "duration": 0.07500000000001705
                },
                {
                    "name": "A#5",
                    "midi": 82,
                    "time": 146.03541666666547,
                    "velocity": 0.3464566929133858,
                    "duration": 0.16874999999998863
                },
                {
                    "name": "D#7",
                    "midi": 99,
                    "time": 146.07291666666546,
                    "velocity": 0.6771653543307087,
                    "duration": 0.14374999999998295
                },
                {
                    "name": "C6",
                    "midi": 84,
                    "time": 146.14166666666546,
                    "velocity": 0.5196850393700787,
                    "duration": 0.08124999999998295
                },
                {
                    "name": "A#6",
                    "midi": 94,
                    "time": 146.14791666666545,
                    "velocity": 0.5039370078740157,
                    "duration": 0.11875000000000568
                },
                {
                    "name": "D#6",
                    "midi": 87,
                    "time": 146.2062499999988,
                    "velocity": 0.4330708661417323,
                    "duration": 0.039583333333325754
                },
                {
                    "name": "F#6",
                    "midi": 90,
                    "time": 146.2270833333321,
                    "velocity": 0.29133858267716534,
                    "duration": 0.0666666666666913
                },
                {
                    "name": "C#5",
                    "midi": 73,
                    "time": 146.30208333333212,
                    "velocity": 0.47244094488188976,
                    "duration": 0.17499999999998295
                },
                {
                    "name": "F7",
                    "midi": 101,
                    "time": 146.34374999999878,
                    "velocity": 0.6614173228346457,
                    "duration": 0.06041666666666856
                },
                {
                    "name": "A#6",
                    "midi": 94,
                    "time": 146.43333333333211,
                    "velocity": 0.3937007874015748,
                    "duration": 0.13333333333335418
                },
                {
                    "name": "F#5",
                    "midi": 78,
                    "time": 146.43541666666545,
                    "velocity": 0.4330708661417323,
                    "duration": 0.08750000000000568
                },
                {
                    "name": "F6",
                    "midi": 89,
                    "time": 146.48124999999877,
                    "velocity": 0.3464566929133858,
                    "duration": 0.06250000000002842
                },
                {
                    "name": "A#5",
                    "midi": 82,
                    "time": 146.49999999999878,
                    "velocity": 0.5354330708661418,
                    "duration": 0.08541666666667425
                },
                {
                    "name": "D#7",
                    "midi": 99,
                    "time": 146.5812499999988,
                    "velocity": 0.6141732283464567,
                    "duration": 0.13541666666668561
                },
                {
                    "name": "C#5",
                    "midi": 73,
                    "time": 146.6124999999988,
                    "velocity": 0.5669291338582677,
                    "duration": 0.11250000000001137
                },
                {
                    "name": "D#6",
                    "midi": 87,
                    "time": 146.67916666666545,
                    "velocity": 0.4251968503937008,
                    "duration": 0.04791666666667993
                },
                {
                    "name": "B6",
                    "midi": 95,
                    "time": 146.69583333333213,
                    "velocity": 0.33070866141732286,
                    "duration": 0.054166666666645824
                },
                {
                    "name": "G5",
                    "midi": 79,
                    "time": 146.69583333333213,
                    "velocity": 0.3779527559055118,
                    "duration": 0.05624999999997726
                },
                {
                    "name": "B5",
                    "midi": 83,
                    "time": 146.74166666666545,
                    "velocity": 0.7480314960629921,
                    "duration": 0.05624999999997726
                },
                {
                    "name": "F#7",
                    "midi": 102,
                    "time": 146.83541666666542,
                    "velocity": 0.6220472440944882,
                    "duration": 0.12291666666664014
                },
                {
                    "name": "C7",
                    "midi": 96,
                    "time": 146.84999999999874,
                    "velocity": 0.4645669291338583,
                    "duration": 0.06874999999999432
                },
                {
                    "name": "D5",
                    "midi": 74,
                    "time": 146.88333333333208,
                    "velocity": 0.4409448818897638,
                    "duration": 0.06041666666666856
                },
                {
                    "name": "G#5",
                    "midi": 80,
                    "time": 146.91249999999874,
                    "velocity": 0.4330708661417323,
                    "duration": 0.07708333333329165
                },
                {
                    "name": "F#6",
                    "midi": 90,
                    "time": 146.9416666666654,
                    "velocity": 0.4409448818897638,
                    "duration": 0.052083333333285964
                },
                {
                    "name": "C6",
                    "midi": 84,
                    "time": 146.96874999999872,
                    "velocity": 0.48031496062992124,
                    "duration": 0.04999999999998295
                },
                {
                    "name": "A6",
                    "midi": 93,
                    "time": 146.9812499999987,
                    "velocity": 0.07874015748031496,
                    "duration": 0.0625
                },
                {
                    "name": "D#5",
                    "midi": 75,
                    "time": 147.06666666666538,
                    "velocity": 0.33858267716535434,
                    "duration": 0.12291666666666856
                },
                {
                    "name": "F7",
                    "midi": 101,
                    "time": 147.07708333333204,
                    "velocity": 0.5669291338582677,
                    "duration": 0.12083333333333712
                },
                {
                    "name": "C#7",
                    "midi": 97,
                    "time": 147.10833333333204,
                    "velocity": 0.4094488188976378,
                    "duration": 0.11666666666667425
                },
                {
                    "name": "A5",
                    "midi": 81,
                    "time": 147.12708333333205,
                    "velocity": 0.3543307086614173,
                    "duration": 0.05208333333334281
                },
                {
                    "name": "A6",
                    "midi": 93,
                    "time": 147.14374999999873,
                    "velocity": 0.3858267716535433,
                    "duration": 0.08124999999998295
                },
                {
                    "name": "C#6",
                    "midi": 85,
                    "time": 147.1729166666654,
                    "velocity": 0.5511811023622047,
                    "duration": 0.0583333333333087
                },
                {
                    "name": "F6",
                    "midi": 89,
                    "time": 147.19791666666538,
                    "velocity": 0.44881889763779526,
                    "duration": 0.054166666666674246
                },
                {
                    "name": "F7",
                    "midi": 101,
                    "time": 147.31666666666538,
                    "velocity": 0.5748031496062992,
                    "duration": 0.07291666666665719
                },
                {
                    "name": "C5",
                    "midi": 72,
                    "time": 147.31666666666538,
                    "velocity": 0.6062992125984252,
                    "duration": 0.11874999999997726
                },
                {
                    "name": "A#6",
                    "midi": 94,
                    "time": 147.38124999999872,
                    "velocity": 0.4566929133858268,
                    "duration": 0.12291666666664014
                },
                {
                    "name": "F#5",
                    "midi": 78,
                    "time": 147.42291666666537,
                    "velocity": 0.3779527559055118,
                    "duration": 0.07083333333332575
                },
                {
                    "name": "A#5",
                    "midi": 82,
                    "time": 147.45833333333204,
                    "velocity": 0.44881889763779526,
                    "duration": 0.0583333333333087
                },
                {
                    "name": "D#7",
                    "midi": 99,
                    "time": 147.558333333332,
                    "velocity": 0.6377952755905512,
                    "duration": 0.11666666666664582
                },
                {
                    "name": "C#5",
                    "midi": 73,
                    "time": 147.56666666666533,
                    "velocity": 0.4881889763779528,
                    "duration": 0.12916666666666288
                },
                {
                    "name": "B6",
                    "midi": 95,
                    "time": 147.63124999999866,
                    "velocity": 0.41732283464566927,
                    "duration": 0.07916666666665151
                },
                {
                    "name": "G5",
                    "midi": 79,
                    "time": 147.64583333333198,
                    "velocity": 0.4645669291338583,
                    "duration": 0.06458333333333144
                },
                {
                    "name": "D#6",
                    "midi": 87,
                    "time": 147.6541666666653,
                    "velocity": 0.5196850393700787,
                    "duration": 0.041666666666685614
                },
                {
                    "name": "B5",
                    "midi": 83,
                    "time": 147.71249999999864,
                    "velocity": 0.6535433070866141,
                    "duration": 0.08750000000000568
                },
                {
                    "name": "F#7",
                    "midi": 102,
                    "time": 147.79999999999865,
                    "velocity": 0.6377952755905512,
                    "duration": 0.09791666666666288
                },
                {
                    "name": "D5",
                    "midi": 74,
                    "time": 147.80208333333198,
                    "velocity": 0.5275590551181102,
                    "duration": 0.11666666666664582
                },
                {
                    "name": "C7",
                    "midi": 96,
                    "time": 147.83124999999865,
                    "velocity": 0.49606299212598426,
                    "duration": 0.1312499999999659
                },
                {
                    "name": "G#6",
                    "midi": 92,
                    "time": 147.89999999999864,
                    "velocity": 0.4645669291338583,
                    "duration": 0.12499999999997158
                },
                {
                    "name": "G#5",
                    "midi": 80,
                    "time": 147.9041666666653,
                    "velocity": 0.4881889763779528,
                    "duration": 0.06249999999997158
                },
                {
                    "name": "F#6",
                    "midi": 90,
                    "time": 147.93749999999864,
                    "velocity": 0.3937007874015748,
                    "duration": 0.06041666666664014
                },
                {
                    "name": "C6",
                    "midi": 84,
                    "time": 147.95208333333196,
                    "velocity": 0.48031496062992124,
                    "duration": 0.04999999999998295
                },
                {
                    "name": "F7",
                    "midi": 101,
                    "time": 148.0374999999986,
                    "velocity": 0.6614173228346457,
                    "duration": 0.11666666666664582
                },
                {
                    "name": "D#5",
                    "midi": 75,
                    "time": 148.04791666666526,
                    "velocity": 0.41732283464566927,
                    "duration": 0.06666666666666288
                },
                {
                    "name": "C#7",
                    "midi": 97,
                    "time": 148.0812499999986,
                    "velocity": 0.4094488188976378,
                    "duration": 0.11874999999997726
                },
                {
                    "name": "A5",
                    "midi": 81,
                    "time": 148.09374999999858,
                    "velocity": 0.3937007874015748,
                    "duration": 0.054166666666674246
                },
                {
                    "name": "A6",
                    "midi": 93,
                    "time": 148.12083333333192,
                    "velocity": 0.5511811023622047,
                    "duration": 0.07291666666665719
                },
                {
                    "name": "C#6",
                    "midi": 85,
                    "time": 148.15416666666525,
                    "velocity": 0.5590551181102362,
                    "duration": 0.052083333333314386
                },
                {
                    "name": "F6",
                    "midi": 89,
                    "time": 148.1645833333319,
                    "velocity": 0.5118110236220472,
                    "duration": 0.04999999999998295
                },
                {
                    "name": "C5",
                    "midi": 72,
                    "time": 148.27916666666522,
                    "velocity": 0.5905511811023622,
                    "duration": 0.08124999999998295
                },
                {
                    "name": "F7",
                    "midi": 101,
                    "time": 148.28124999999855,
                    "velocity": 0.6141732283464567,
                    "duration": 0.04583333333332007
                },
                {
                    "name": "A#6",
                    "midi": 94,
                    "time": 148.3479166666652,
                    "velocity": 0.4881889763779528,
                    "duration": 0.10416666666662877
                },
                {
                    "name": "F#5",
                    "midi": 78,
                    "time": 148.3729166666652,
                    "velocity": 0.36220472440944884,
                    "duration": 0.09374999999997158
                },
                {
                    "name": "F#6",
                    "midi": 90,
                    "time": 148.41041666666518,
                    "velocity": 0.4645669291338583,
                    "duration": 0.07083333333329733
                },
                {
                    "name": "A#5",
                    "midi": 82,
                    "time": 148.41041666666518,
                    "velocity": 0.5433070866141733,
                    "duration": 0.06458333333330302
                },
                {
                    "name": "D#7",
                    "midi": 99,
                    "time": 148.50416666666516,
                    "velocity": 0.7086614173228346,
                    "duration": 0.12291666666666856
                },
                {
                    "name": "C#5",
                    "midi": 73,
                    "time": 148.51249999999848,
                    "velocity": 0.5118110236220472,
                    "duration": 0.12083333333333712
                },
                {
                    "name": "G6",
                    "midi": 91,
                    "time": 148.57916666666515,
                    "velocity": 0.08661417322834646,
                    "duration": 0.06666666666666288
                },
                {
                    "name": "B6",
                    "midi": 95,
                    "time": 148.58124999999848,
                    "velocity": 0.4094488188976378,
                    "duration": 0.0625
                },
                {
                    "name": "G5",
                    "midi": 79,
                    "time": 148.58541666666514,
                    "velocity": 0.5511811023622047,
                    "duration": 0.09583333333333144
                },
                {
                    "name": "D#6",
                    "midi": 87,
                    "time": 148.61041666666515,
                    "velocity": 0.5433070866141733,
                    "duration": 0.037499999999994316
                },
                {
                    "name": "B5",
                    "midi": 83,
                    "time": 148.65416666666513,
                    "velocity": 0.7165354330708661,
                    "duration": 0.10624999999998863
                },
                {
                    "name": "C#7",
                    "midi": 97,
                    "time": 148.73541666666515,
                    "velocity": 0.5275590551181102,
                    "duration": 0.04166666666665719
                },
                {
                    "name": "D5",
                    "midi": 74,
                    "time": 148.7395833333318,
                    "velocity": 0.5275590551181102,
                    "duration": 0.11666666666664582
                },
                {
                    "name": "F#7",
                    "midi": 102,
                    "time": 148.7458333333318,
                    "velocity": 0.6535433070866141,
                    "duration": 0.09999999999999432
                },
                {
                    "name": "C7",
                    "midi": 96,
                    "time": 148.78749999999846,
                    "velocity": 0.5433070866141733,
                    "duration": 0.06874999999999432
                },
                {
                    "name": "G#6",
                    "midi": 92,
                    "time": 148.8395833333318,
                    "velocity": 0.44881889763779526,
                    "duration": 0.13749999999998863
                },
                {
                    "name": "G#5",
                    "midi": 80,
                    "time": 148.84791666666513,
                    "velocity": 0.5118110236220472,
                    "duration": 0.054166666666645824
                },
                {
                    "name": "C6",
                    "midi": 84,
                    "time": 148.8833333333318,
                    "velocity": 0.5826771653543307,
                    "duration": 0.06666666666666288
                },
                {
                    "name": "F#6",
                    "midi": 90,
                    "time": 148.89374999999845,
                    "velocity": 0.2755905511811024,
                    "duration": 0.07708333333334849
                },
                {
                    "name": "D#5",
                    "midi": 75,
                    "time": 148.98333333333179,
                    "velocity": 0.5118110236220472,
                    "duration": 0.08958333333333712
                },
                {
                    "name": "F7",
                    "midi": 101,
                    "time": 148.98749999999845,
                    "velocity": 0.6299212598425197,
                    "duration": 0.125
                },
                {
                    "name": "C#7",
                    "midi": 97,
                    "time": 149.00416666666513,
                    "velocity": 0.44881889763779526,
                    "duration": 0.125
                },
                {
                    "name": "A5",
                    "midi": 81,
                    "time": 149.0395833333318,
                    "velocity": 0.3543307086614173,
                    "duration": 0.05208333333334281
                },
                {
                    "name": "A6",
                    "midi": 93,
                    "time": 149.0645833333318,
                    "velocity": 0.4566929133858268,
                    "duration": 0.06458333333333144
                },
                {
                    "name": "C#6",
                    "midi": 85,
                    "time": 149.0895833333318,
                    "velocity": 0.5905511811023622,
                    "duration": 0.04999999999998295
                },
                {
                    "name": "F6",
                    "midi": 89,
                    "time": 149.10416666666512,
                    "velocity": 0.5118110236220472,
                    "duration": 0.056250000000005684
                },
                {
                    "name": "F7",
                    "midi": 101,
                    "time": 149.21666666666513,
                    "velocity": 0.5748031496062992,
                    "duration": 0.04791666666667993
                },
                {
                    "name": "C5",
                    "midi": 72,
                    "time": 149.21666666666513,
                    "velocity": 0.6220472440944882,
                    "duration": 0.12708333333335986
                },
                {
                    "name": "A#6",
                    "midi": 94,
                    "time": 149.26874999999848,
                    "velocity": 0.4409448818897638,
                    "duration": 0.10833333333334849
                },
                {
                    "name": "F#5",
                    "midi": 78,
                    "time": 149.3187499999985,
                    "velocity": 0.4409448818897638,
                    "duration": 0.09166666666666856
                },
                {
                    "name": "F#6",
                    "midi": 90,
                    "time": 149.34583333333183,
                    "velocity": 0.48031496062992124,
                    "duration": 0.056250000000005684
                },
                {
                    "name": "A#5",
                    "midi": 82,
                    "time": 149.36458333333184,
                    "velocity": 0.49606299212598426,
                    "duration": 0.05624999999997726
                },
                {
                    "name": "D#7",
                    "midi": 99,
                    "time": 149.4437499999985,
                    "velocity": 0.7007874015748031,
                    "duration": 0.12916666666666288
                },
                {
                    "name": "C#5",
                    "midi": 73,
                    "time": 149.45416666666515,
                    "velocity": 0.5275590551181102,
                    "duration": 0.15208333333333712
                },
                {
                    "name": "G6",
                    "midi": 91,
                    "time": 149.49374999999847,
                    "velocity": 0.05511811023622047,
                    "duration": 0.10000000000002274
                },
                {
                    "name": "B6",
                    "midi": 95,
                    "time": 149.51041666666515,
                    "velocity": 0.4881889763779528,
                    "duration": 0.08541666666667425
                },
                {
                    "name": "G5",
                    "midi": 79,
                    "time": 149.53958333333182,
                    "velocity": 0.5354330708661418,
                    "duration": 0.08333333333331439
                },
                {
                    "name": "D#6",
                    "midi": 87,
                    "time": 149.54999999999848,
                    "velocity": 0.5905511811023622,
                    "duration": 0.05833333333333712
                },
                {
                    "name": "B5",
                    "midi": 83,
                    "time": 149.6083333333318,
                    "velocity": 0.6456692913385826,
                    "duration": 0.10208333333329733
                },
                {
                    "name": "F7",
                    "midi": 101,
                    "time": 149.69791666666512,
                    "velocity": 0.6220472440944882,
                    "duration": 0.11041666666665151
                },
                {
                    "name": "D5",
                    "midi": 74,
                    "time": 149.69791666666512,
                    "velocity": 0.5590551181102362,
                    "duration": 0.11874999999997726
                },
                {
                    "name": "C7",
                    "midi": 96,
                    "time": 149.7166666666651,
                    "velocity": 0.4015748031496063,
                    "duration": 0.12916666666663446
                },
                {
                    "name": "G#5",
                    "midi": 80,
                    "time": 149.80833333333177,
                    "velocity": 0.4881889763779528,
                    "duration": 0.10208333333329733
                },
                {
                    "name": "G#6",
                    "midi": 92,
                    "time": 149.8166666666651,
                    "velocity": 0.3228346456692913,
                    "duration": 0.10208333333329733
                },
                {
                    "name": "F6",
                    "midi": 89,
                    "time": 149.83124999999842,
                    "velocity": 0.5196850393700787,
                    "duration": 0.04791666666665151
                },
                {
                    "name": "C6",
                    "midi": 84,
                    "time": 149.86041666666506,
                    "velocity": 0.5511811023622047,
                    "duration": 0.06041666666666856
                },
                {
                    "name": "F#7",
                    "midi": 102,
                    "time": 149.96041666666505,
                    "velocity": 0.7244094488188977,
                    "duration": 0.11249999999998295
                },
                {
                    "name": "D#5",
                    "midi": 75,
                    "time": 149.97499999999837,
                    "velocity": 0.5118110236220472,
                    "duration": 0.10833333333332007
                },
                {
                    "name": "C#7",
                    "midi": 97,
                    "time": 150.0208333333317,
                    "velocity": 0.30708661417322836,
                    "duration": 0.08541666666664582
                },
                {
                    "name": "A5",
                    "midi": 81,
                    "time": 150.0458333333317,
                    "velocity": 0.3858267716535433,
                    "duration": 0.06249999999997158
                },
                {
                    "name": "A6",
                    "midi": 93,
                    "time": 150.04791666666503,
                    "velocity": 0.44881889763779526,
                    "duration": 0.04999999999998295
                },
                {
                    "name": "F#6",
                    "midi": 90,
                    "time": 150.0770833333317,
                    "velocity": 0.4330708661417323,
                    "duration": 0.054166666666645824
                },
                {
                    "name": "C#6",
                    "midi": 85,
                    "time": 150.141666666665,
                    "velocity": 0.3858267716535433,
                    "duration": 0.054166666666674246
                },
                {
                    "name": "A#7",
                    "midi": 106,
                    "time": 150.39374999999833,
                    "velocity": 0.6535433070866141,
                    "duration": 0.1999999999999602
                },
                {
                    "name": "A#6",
                    "midi": 94,
                    "time": 150.40624999999832,
                    "velocity": 0.5984251968503937,
                    "duration": 0.22916666666662877
                },
                {
                    "name": "G#3",
                    "midi": 56,
                    "time": 150.41666666666498,
                    "velocity": 0.7086614173228346,
                    "duration": 0.2312499999999602
                },
                {
                    "name": "D#7",
                    "midi": 99,
                    "time": 150.4187499999983,
                    "velocity": 0.5118110236220472,
                    "duration": 0.17083333333332007
                },
                {
                    "name": "A#3",
                    "midi": 58,
                    "time": 150.60833333333161,
                    "velocity": 0.4566929133858268,
                    "duration": 0.15416666666664014
                },
                {
                    "name": "C#4",
                    "midi": 61,
                    "time": 150.71874999999827,
                    "velocity": 0.4881889763779528,
                    "duration": 0.13124999999999432
                },
                {
                    "name": "D#4",
                    "midi": 63,
                    "time": 150.82499999999825,
                    "velocity": 0.4881889763779528,
                    "duration": 0.0625
                },
                {
                    "name": "F#4",
                    "midi": 66,
                    "time": 150.87916666666493,
                    "velocity": 0.3858267716535433,
                    "duration": 0.05624999999997726
                },
                {
                    "name": "G#4",
                    "midi": 68,
                    "time": 150.9291666666649,
                    "velocity": 0.5275590551181102,
                    "duration": 0.09999999999999432
                },
                {
                    "name": "A#4",
                    "midi": 70,
                    "time": 151.01249999999823,
                    "velocity": 0.41732283464566927,
                    "duration": 0.07083333333335418
                },
                {
                    "name": "C#5",
                    "midi": 73,
                    "time": 151.05833333333157,
                    "velocity": 0.4881889763779528,
                    "duration": 0.14791666666667425
                },
                {
                    "name": "D#5",
                    "midi": 75,
                    "time": 151.11874999999824,
                    "velocity": 0.4330708661417323,
                    "duration": 0.08958333333333712
                },
                {
                    "name": "F#5",
                    "midi": 78,
                    "time": 151.1708333333316,
                    "velocity": 0.4645669291338583,
                    "duration": 0.04374999999998863
                },
                {
                    "name": "G#4",
                    "midi": 68,
                    "time": 151.25208333333157,
                    "velocity": 0.5669291338582677,
                    "duration": 0.13749999999998863
                },
                {
                    "name": "A#4",
                    "midi": 70,
                    "time": 151.3229166666649,
                    "velocity": 0.5275590551181102,
                    "duration": 0.13124999999999432
                },
                {
                    "name": "C#5",
                    "midi": 73,
                    "time": 151.37499999999824,
                    "velocity": 0.5039370078740157,
                    "duration": 0.1416666666666515
                },
                {
                    "name": "D#5",
                    "midi": 75,
                    "time": 151.44583333333156,
                    "velocity": 0.5511811023622047,
                    "duration": 0.1416666666666515
                },
                {
                    "name": "F#5",
                    "midi": 78,
                    "time": 151.52708333333155,
                    "velocity": 0.5905511811023622,
                    "duration": 0.10416666666665719
                },
                {
                    "name": "G#5",
                    "midi": 80,
                    "time": 151.55624999999822,
                    "velocity": 0.5826771653543307,
                    "duration": 0.1354166666666572
                },
                {
                    "name": "A#5",
                    "midi": 82,
                    "time": 151.63333333333154,
                    "velocity": 0.5354330708661418,
                    "duration": 0.12083333333333712
                },
                {
                    "name": "C#6",
                    "midi": 85,
                    "time": 151.68333333333155,
                    "velocity": 0.6062992125984252,
                    "duration": 0.16249999999999432
                },
                {
                    "name": "D#6",
                    "midi": 87,
                    "time": 151.74583333333155,
                    "velocity": 0.48031496062992124,
                    "duration": 0.11041666666665151
                },
                {
                    "name": "F6",
                    "midi": 89,
                    "time": 151.82291666666487,
                    "velocity": 0.4094488188976378,
                    "duration": 0.054166666666674246
                },
                {
                    "name": "G#5",
                    "midi": 80,
                    "time": 151.89166666666486,
                    "velocity": 0.5196850393700787,
                    "duration": 0.11041666666667993
                },
                {
                    "name": "C#6",
                    "midi": 85,
                    "time": 151.8999999999982,
                    "velocity": 0.6929133858267716,
                    "duration": 0.03750000000002274
                },
                {
                    "name": "A#5",
                    "midi": 82,
                    "time": 151.91666666666487,
                    "velocity": 0.4330708661417323,
                    "duration": 0.04791666666667993
                },
                {
                    "name": "D#6",
                    "midi": 87,
                    "time": 151.9999999999982,
                    "velocity": 0.5905511811023622,
                    "duration": 0.04374999999998863
                },
                {
                    "name": "A#6",
                    "midi": 94,
                    "time": 152.01666666666486,
                    "velocity": 0.3937007874015748,
                    "duration": 0.06666666666666288
                },
                {
                    "name": "G#6",
                    "midi": 92,
                    "time": 152.02083333333152,
                    "velocity": 0.36220472440944884,
                    "duration": 0.06041666666666856
                },
                {
                    "name": "F#6",
                    "midi": 90,
                    "time": 152.02291666666486,
                    "velocity": 0.3464566929133858,
                    "duration": 0.056250000000005684
                },
                {
                    "name": "C#6",
                    "midi": 85,
                    "time": 152.1187499999982,
                    "velocity": 0.5984251968503937,
                    "duration": 0.10833333333332007
                },
                {
                    "name": "A#5",
                    "midi": 82,
                    "time": 152.12499999999818,
                    "velocity": 0.4409448818897638,
                    "duration": 0.0625
                },
                {
                    "name": "G#5",
                    "midi": 80,
                    "time": 152.13124999999818,
                    "velocity": 0.41732283464566927,
                    "duration": 0.05833333333333712
                },
                {
                    "name": "G#6",
                    "midi": 92,
                    "time": 152.21874999999818,
                    "velocity": 0.47244094488188976,
                    "duration": 0.05624999999997726
                },
                {
                    "name": "D#6",
                    "midi": 87,
                    "time": 152.2208333333315,
                    "velocity": 0.5748031496062992,
                    "duration": 0.054166666666645824
                },
                {
                    "name": "A#6",
                    "midi": 94,
                    "time": 152.2208333333315,
                    "velocity": 0.48031496062992124,
                    "duration": 0.052083333333314386
                },
                {
                    "name": "F#6",
                    "midi": 90,
                    "time": 152.2333333333315,
                    "velocity": 0.41732283464566927,
                    "duration": 0.04791666666665151
                },
                {
                    "name": "C#6",
                    "midi": 85,
                    "time": 152.31874999999815,
                    "velocity": 0.5118110236220472,
                    "duration": 0.09583333333330302
                },
                {
                    "name": "A#5",
                    "midi": 82,
                    "time": 152.33124999999814,
                    "velocity": 0.4566929133858268,
                    "duration": 0.04791666666665151
                },
                {
                    "name": "G#5",
                    "midi": 80,
                    "time": 152.33749999999813,
                    "velocity": 0.5511811023622047,
                    "duration": 0.04166666666665719
                },
                {
                    "name": "D#6",
                    "midi": 87,
                    "time": 152.4104166666648,
                    "velocity": 0.6220472440944882,
                    "duration": 0.04583333333332007
                },
                {
                    "name": "G#6",
                    "midi": 92,
                    "time": 152.4187499999981,
                    "velocity": 0.44881889763779526,
                    "duration": 0.04791666666665151
                },
                {
                    "name": "A#6",
                    "midi": 94,
                    "time": 152.42083333333144,
                    "velocity": 0.4251968503937008,
                    "duration": 0.04583333333332007
                },
                {
                    "name": "F#6",
                    "midi": 90,
                    "time": 152.4499999999981,
                    "velocity": 0.25984251968503935,
                    "duration": 0.07708333333332007
                },
                {
                    "name": "C#6",
                    "midi": 85,
                    "time": 152.48541666666478,
                    "velocity": 0.5984251968503937,
                    "duration": 0.08750000000000568
                },
                {
                    "name": "G#5",
                    "midi": 80,
                    "time": 152.4937499999981,
                    "velocity": 0.4330708661417323,
                    "duration": 0.0625
                },
                {
                    "name": "A#5",
                    "midi": 82,
                    "time": 152.50416666666476,
                    "velocity": 0.4094488188976378,
                    "duration": 0.041666666666685614
                },
                {
                    "name": "F#6",
                    "midi": 90,
                    "time": 152.5812499999981,
                    "velocity": 0.5039370078740157,
                    "duration": 0.04791666666665151
                },
                {
                    "name": "D#6",
                    "midi": 87,
                    "time": 152.58541666666477,
                    "velocity": 0.5196850393700787,
                    "duration": 0.04166666666665719
                },
                {
                    "name": "G#6",
                    "midi": 92,
                    "time": 152.58958333333143,
                    "velocity": 0.25196850393700787,
                    "duration": 0.052083333333314386
                },
                {
                    "name": "A#6",
                    "midi": 94,
                    "time": 152.59166666666476,
                    "velocity": 0.30708661417322836,
                    "duration": 0.04791666666665151
                },
                {
                    "name": "G#5",
                    "midi": 80,
                    "time": 152.64374999999808,
                    "velocity": 0.5511811023622047,
                    "duration": 0.06666666666663446
                },
                {
                    "name": "C#6",
                    "midi": 85,
                    "time": 152.64374999999808,
                    "velocity": 0.6141732283464567,
                    "duration": 0.08333333333331439
                },
                {
                    "name": "A#5",
                    "midi": 82,
                    "time": 152.6520833333314,
                    "velocity": 0.29133858267716534,
                    "duration": 0.04583333333332007
                },
                {
                    "name": "D#6",
                    "midi": 87,
                    "time": 152.72916666666472,
                    "velocity": 0.4566929133858268,
                    "duration": 0.056250000000005684
                },
                {
                    "name": "G#6",
                    "midi": 92,
                    "time": 152.72916666666472,
                    "velocity": 0.3779527559055118,
                    "duration": 0.056250000000005684
                },
                {
                    "name": "A#6",
                    "midi": 94,
                    "time": 152.72916666666472,
                    "velocity": 0.3700787401574803,
                    "duration": 0.05833333333333712
                },
                {
                    "name": "F#6",
                    "midi": 90,
                    "time": 152.7333333333314,
                    "velocity": 0.29133858267716534,
                    "duration": 0.05000000000001137
                },
                {
                    "name": "C#6",
                    "midi": 85,
                    "time": 152.7958333333314,
                    "velocity": 0.6141732283464567,
                    "duration": 0.09791666666663446
                },
                {
                    "name": "G#5",
                    "midi": 80,
                    "time": 152.7958333333314,
                    "velocity": 0.5275590551181102,
                    "duration": 0.07083333333329733
                },
                {
                    "name": "A#5",
                    "midi": 82,
                    "time": 152.80624999999804,
                    "velocity": 0.3464566929133858,
                    "duration": 0.04583333333332007
                },
                {
                    "name": "D#6",
                    "midi": 87,
                    "time": 152.8854166666647,
                    "velocity": 0.5511811023622047,
                    "duration": 0.056250000000005684
                },
                {
                    "name": "F#6",
                    "midi": 90,
                    "time": 152.89374999999802,
                    "velocity": 0.2992125984251969,
                    "duration": 0.04791666666667993
                },
                {
                    "name": "A#6",
                    "midi": 94,
                    "time": 152.89374999999802,
                    "velocity": 0.44881889763779526,
                    "duration": 0.054166666666674246
                },
                {
                    "name": "G#6",
                    "midi": 92,
                    "time": 152.89374999999802,
                    "velocity": 0.41732283464566927,
                    "duration": 0.04791666666667993
                },
                {
                    "name": "C#6",
                    "midi": 85,
                    "time": 152.95208333333136,
                    "velocity": 0.6377952755905512,
                    "duration": 0.06666666666663446
                },
                {
                    "name": "G#5",
                    "midi": 80,
                    "time": 152.95208333333136,
                    "velocity": 0.5118110236220472,
                    "duration": 0.06458333333330302
                },
                {
                    "name": "A#5",
                    "midi": 82,
                    "time": 152.96249999999802,
                    "velocity": 0.4094488188976378,
                    "duration": 0.04374999999998863
                },
                {
                    "name": "D#6",
                    "midi": 87,
                    "time": 153.037499999998,
                    "velocity": 0.5905511811023622,
                    "duration": 0.0687499999999659
                },
                {
                    "name": "A#6",
                    "midi": 94,
                    "time": 153.043749999998,
                    "velocity": 0.4409448818897638,
                    "duration": 0.05624999999997726
                },
                {
                    "name": "G#6",
                    "midi": 92,
                    "time": 153.049999999998,
                    "velocity": 0.28346456692913385,
                    "duration": 0.04791666666665151
                },
                {
                    "name": "F#6",
                    "midi": 90,
                    "time": 153.05208333333132,
                    "velocity": 0.2440944881889764,
                    "duration": 0.054166666666645824
                },
                {
                    "name": "C#6",
                    "midi": 85,
                    "time": 153.1083333333313,
                    "velocity": 0.5984251968503937,
                    "duration": 0.07708333333334849
                },
                {
                    "name": "G#5",
                    "midi": 80,
                    "time": 153.11249999999797,
                    "velocity": 0.4881889763779528,
                    "duration": 0.054166666666674246
                },
                {
                    "name": "A#5",
                    "midi": 82,
                    "time": 153.11249999999797,
                    "velocity": 0.41732283464566927,
                    "duration": 0.05208333333334281
                },
                {
                    "name": "D#6",
                    "midi": 87,
                    "time": 153.19791666666464,
                    "velocity": 0.5669291338582677,
                    "duration": 0.039583333333325754
                },
                {
                    "name": "A#6",
                    "midi": 94,
                    "time": 153.19999999999797,
                    "velocity": 0.5118110236220472,
                    "duration": 0.11041666666665151
                },
                {
                    "name": "G#6",
                    "midi": 92,
                    "time": 153.20416666666463,
                    "velocity": 0.30708661417322836,
                    "duration": 0.06458333333333144
                },
                {
                    "name": "F#6",
                    "midi": 90,
                    "time": 153.2083333333313,
                    "velocity": 0.25196850393700787,
                    "duration": 0.05000000000001137
                },
                {
                    "name": "A#7",
                    "midi": 106,
                    "time": 153.43541666666462,
                    "velocity": 0.6929133858267716,
                    "duration": 0.10833333333332007
                },
                {
                    "name": "G#7",
                    "midi": 104,
                    "time": 153.4833333333313,
                    "velocity": 0.5590551181102362,
                    "duration": 0.08749999999997726
                },
                {
                    "name": "F#7",
                    "midi": 102,
                    "time": 153.52916666666462,
                    "velocity": 0.48031496062992124,
                    "duration": 0.11041666666665151
                },
                {
                    "name": "D#7",
                    "midi": 99,
                    "time": 153.5854166666646,
                    "velocity": 0.6771653543307087,
                    "duration": 0.10416666666668561
                },
                {
                    "name": "C#7",
                    "midi": 97,
                    "time": 153.6416666666646,
                    "velocity": 0.4881889763779528,
                    "duration": 0.09375
                },
                {
                    "name": "A#6",
                    "midi": 94,
                    "time": 153.7041666666646,
                    "velocity": 0.6220472440944882,
                    "duration": 0.08958333333333712
                },
                {
                    "name": "G#6",
                    "midi": 92,
                    "time": 153.75833333333128,
                    "velocity": 0.4094488188976378,
                    "duration": 0.11250000000001137
                },
                {
                    "name": "F#6",
                    "midi": 90,
                    "time": 153.79583333333127,
                    "velocity": 0.4881889763779528,
                    "duration": 0.08333333333334281
                },
                {
                    "name": "D#6",
                    "midi": 87,
                    "time": 153.85208333333128,
                    "velocity": 0.6141732283464567,
                    "duration": 0.10625000000001705
                },
                {
                    "name": "C#6",
                    "midi": 85,
                    "time": 153.8958333333313,
                    "velocity": 0.4330708661417323,
                    "duration": 0.09166666666666856
                },
                {
                    "name": "A#5",
                    "midi": 82,
                    "time": 153.9458333333313,
                    "velocity": 0.6377952755905512,
                    "duration": 0.07916666666665151
                },
                {
                    "name": "G#5",
                    "midi": 80,
                    "time": 153.97916666666464,
                    "velocity": 0.5354330708661418,
                    "duration": 0.09166666666664014
                },
                {
                    "name": "F#5",
                    "midi": 78,
                    "time": 154.0145833333313,
                    "velocity": 0.6377952755905512,
                    "duration": 0.11458333333331439
                },
                {
                    "name": "D#5",
                    "midi": 75,
                    "time": 154.07083333333128,
                    "velocity": 0.6220472440944882,
                    "duration": 0.09791666666666288
                },
                {
                    "name": "C#5",
                    "midi": 73,
                    "time": 154.1104166666646,
                    "velocity": 0.48031496062992124,
                    "duration": 0.11458333333334281
                },
                {
                    "name": "A#4",
                    "midi": 70,
                    "time": 154.1666666666646,
                    "velocity": 0.6141732283464567,
                    "duration": 0.10416666666668561
                },
                {
                    "name": "G#4",
                    "midi": 68,
                    "time": 154.20208333333127,
                    "velocity": 0.5354330708661418,
                    "duration": 0.0979166666666913
                },
                {
                    "name": "F#4",
                    "midi": 66,
                    "time": 154.2458333333313,
                    "velocity": 0.48031496062992124,
                    "duration": 0.11041666666667993
                },
                {
                    "name": "D#4",
                    "midi": 63,
                    "time": 154.29791666666463,
                    "velocity": 0.6614173228346457,
                    "duration": 0.09583333333333144
                },
                {
                    "name": "C#4",
                    "midi": 61,
                    "time": 154.3333333333313,
                    "velocity": 0.5433070866141733,
                    "duration": 0.11666666666667425
                },
                {
                    "name": "A#3",
                    "midi": 58,
                    "time": 154.3895833333313,
                    "velocity": 0.5984251968503937,
                    "duration": 0.10416666666668561
                },
                {
                    "name": "G#3",
                    "midi": 56,
                    "time": 154.42499999999797,
                    "velocity": 0.5354330708661418,
                    "duration": 0.10625000000001705
                },
                {
                    "name": "F#3",
                    "midi": 54,
                    "time": 154.46666666666465,
                    "velocity": 0.5748031496062992,
                    "duration": 0.11250000000001137
                },
                {
                    "name": "D#3",
                    "midi": 51,
                    "time": 154.524999999998,
                    "velocity": 0.6377952755905512,
                    "duration": 0.10625000000001705
                },
                {
                    "name": "C#3",
                    "midi": 49,
                    "time": 154.58333333333132,
                    "velocity": 0.4251968503937008,
                    "duration": 0.09375
                },
                {
                    "name": "G#2",
                    "midi": 44,
                    "time": 154.631249999998,
                    "velocity": 0.8188976377952756,
                    "duration": 0.16249999999999432
                },
                {
                    "name": "C#3",
                    "midi": 49,
                    "time": 154.774999999998,
                    "velocity": 0.3543307086614173,
                    "duration": 0.11250000000001137
                },
                {
                    "name": "D#3",
                    "midi": 51,
                    "time": 154.86458333333132,
                    "velocity": 0.4566929133858268,
                    "duration": 0.14583333333331439
                },
                {
                    "name": "F#3",
                    "midi": 54,
                    "time": 154.96041666666466,
                    "velocity": 0.4881889763779528,
                    "duration": 0.10624999999998863
                },
                {
                    "name": "G#1",
                    "midi": 32,
                    "time": 155.0020833333313,
                    "velocity": 0.7559055118110236,
                    "duration": 0.11666666666667425
                },
                {
                    "name": "A#3",
                    "midi": 58,
                    "time": 155.04374999999797,
                    "velocity": 0.4409448818897638,
                    "duration": 0.18125000000000568
                },
                {
                    "name": "F#3",
                    "midi": 54,
                    "time": 155.149999999998,
                    "velocity": 0.5275590551181102,
                    "duration": 0.3812499999999659
                },
                {
                    "name": "D#3",
                    "midi": 51,
                    "time": 155.25624999999798,
                    "velocity": 0.36220472440944884,
                    "duration": 0.1729166666666515
                },
                {
                    "name": "C#3",
                    "midi": 49,
                    "time": 155.32916666666463,
                    "velocity": 0.4094488188976378,
                    "duration": 0.16249999999999432
                },
                {
                    "name": "A0",
                    "midi": 21,
                    "time": 155.46874999999795,
                    "velocity": 0.8267716535433071,
                    "duration": 0.28750000000002274
                },
                {
                    "name": "C#3",
                    "midi": 49,
                    "time": 155.64374999999797,
                    "velocity": 0.31496062992125984,
                    "duration": 0.09583333333333144
                },
                {
                    "name": "D#3",
                    "midi": 51,
                    "time": 155.72916666666464,
                    "velocity": 0.33070866141732286,
                    "duration": 0.09583333333333144
                },
                {
                    "name": "F#3",
                    "midi": 54,
                    "time": 155.8020833333313,
                    "velocity": 0.4330708661417323,
                    "duration": 0.07916666666667993
                },
                {
                    "name": "A#3",
                    "midi": 58,
                    "time": 155.89791666666466,
                    "velocity": 0.33070866141732286,
                    "duration": 0.18958333333335986
                },
                {
                    "name": "F#3",
                    "midi": 54,
                    "time": 155.97916666666467,
                    "velocity": 0.4094488188976378,
                    "duration": 0.1770833333333428
                },
                {
                    "name": "D#3",
                    "midi": 51,
                    "time": 156.06458333333134,
                    "velocity": 0.36220472440944884,
                    "duration": 0.08958333333333712
                },
                {
                    "name": "C#3",
                    "midi": 49,
                    "time": 156.12291666666468,
                    "velocity": 0.33070866141732286,
                    "duration": 0.06041666666666856
                },
                {
                    "name": "G#2",
                    "midi": 44,
                    "time": 156.21666666666468,
                    "velocity": 0.5354330708661418,
                    "duration": 0.1458333333333428
                },
                {
                    "name": "C#3",
                    "midi": 49,
                    "time": 156.34166666666468,
                    "velocity": 0.33858267716535434,
                    "duration": 0.07500000000001705
                },
                {
                    "name": "D#3",
                    "midi": 51,
                    "time": 156.4354166666647,
                    "velocity": 0.11811023622047244,
                    "duration": 0.08125000000001137
                },
                {
                    "name": "F#3",
                    "midi": 54,
                    "time": 156.46874999999804,
                    "velocity": 0.4094488188976378,
                    "duration": 0.06458333333335986
                },
                {
                    "name": "A#3",
                    "midi": 58,
                    "time": 156.5458333333314,
                    "velocity": 0.28346456692913385,
                    "duration": 0.1354166666666572
                },
                {
                    "name": "F#3",
                    "midi": 54,
                    "time": 156.65208333333138,
                    "velocity": 0.3543307086614173,
                    "duration": 0.10208333333335418
                },
                {
                    "name": "D#3",
                    "midi": 51,
                    "time": 156.73124999999806,
                    "velocity": 0.25196850393700787,
                    "duration": 0.15833333333333144
                },
                {
                    "name": "C#3",
                    "midi": 49,
                    "time": 156.81041666666474,
                    "velocity": 0.3228346456692913,
                    "duration": 0.06874999999999432
                },
                {
                    "name": "G#2",
                    "midi": 44,
                    "time": 156.91041666666473,
                    "velocity": 0.4566929133858268,
                    "duration": 0.12291666666666856
                },
                {
                    "name": "C#3",
                    "midi": 49,
                    "time": 157.0520833333314,
                    "velocity": 0.13385826771653545,
                    "duration": 0.08333333333334281
                },
                {
                    "name": "D#3",
                    "midi": 51,
                    "time": 157.08541666666474,
                    "velocity": 0.3543307086614173,
                    "duration": 0.07916666666667993
                },
                {
                    "name": "F#3",
                    "midi": 54,
                    "time": 157.16666666666475,
                    "velocity": 0.2992125984251969,
                    "duration": 0.07083333333332575
                },
                {
                    "name": "A#3",
                    "midi": 58,
                    "time": 157.26041666666475,
                    "velocity": 0.18110236220472442,
                    "duration": 0.12708333333333144
                },
                {
                    "name": "F#3",
                    "midi": 54,
                    "time": 157.37916666666476,
                    "velocity": 0.1968503937007874,
                    "duration": 0.07083333333332575
                },
                {
                    "name": "D#3",
                    "midi": 51,
                    "time": 157.43958333333143,
                    "velocity": 0.3464566929133858,
                    "duration": 0.12916666666666288
                },
                {
                    "name": "C#3",
                    "midi": 49,
                    "time": 157.53333333333143,
                    "velocity": 0.2047244094488189,
                    "duration": 0.06874999999999432
                },
                {
                    "name": "G#2",
                    "midi": 44,
                    "time": 157.6187499999981,
                    "velocity": 0.3779527559055118,
                    "duration": 0.08958333333333712
                },
                {
                    "name": "C#3",
                    "midi": 49,
                    "time": 157.7187499999981,
                    "velocity": 0.08661417322834646,
                    "duration": 0.08125000000001137
                },
                {
                    "name": "D#3",
                    "midi": 51,
                    "time": 157.7749999999981,
                    "velocity": 0.3700787401574803,
                    "duration": 0.12083333333333712
                },
                {
                    "name": "F#3",
                    "midi": 54,
                    "time": 157.88958333333144,
                    "velocity": 0.4015748031496063,
                    "duration": 0.0625
                },
                {
                    "name": "A#3",
                    "midi": 58,
                    "time": 157.97708333333145,
                    "velocity": 0.25196850393700787,
                    "duration": 0.11875000000000568
                },
                {
                    "name": "F#3",
                    "midi": 54,
                    "time": 158.10208333333145,
                    "velocity": 0.2677165354330709,
                    "duration": 0.0625
                },
                {
                    "name": "D#3",
                    "midi": 51,
                    "time": 158.16666666666478,
                    "velocity": 0.3779527559055118,
                    "duration": 0.08125000000001137
                },
                {
                    "name": "C#3",
                    "midi": 49,
                    "time": 158.27708333333146,
                    "velocity": 0.11811023622047244,
                    "duration": 0.07499999999998863
                },
                {
                    "name": "G#2",
                    "midi": 44,
                    "time": 158.3416666666648,
                    "velocity": 0.3858267716535433,
                    "duration": 0.07916666666665151
                },
                {
                    "name": "C#3",
                    "midi": 49,
                    "time": 158.4499999999981,
                    "velocity": 0.16535433070866143,
                    "duration": 0.08125000000001137
                },
                {
                    "name": "D#3",
                    "midi": 51,
                    "time": 158.53333333333146,
                    "velocity": 0.2283464566929134,
                    "duration": 0.08750000000000568
                },
                {
                    "name": "F#3",
                    "midi": 54,
                    "time": 158.63958333333147,
                    "velocity": 0.2677165354330709,
                    "duration": 0.07083333333332575
                },
                {
                    "name": "A#3",
                    "midi": 58,
                    "time": 158.75833333333148,
                    "velocity": 0.1968503937007874,
                    "duration": 0.11041666666667993
                },
                {
                    "name": "F#3",
                    "midi": 54,
                    "time": 158.91666666666484,
                    "velocity": 0.18110236220472442,
                    "duration": 0.07916666666665151
                },
                {
                    "name": "D#3",
                    "midi": 51,
                    "time": 158.98541666666483,
                    "velocity": 0.2440944881889764,
                    "duration": 0.10208333333332575
                },
                {
                    "name": "C#3",
                    "midi": 49,
                    "time": 159.11249999999816,
                    "velocity": 0.15748031496062992,
                    "duration": 0.08750000000000568
                },
                {
                    "name": "D#4",
                    "midi": 63,
                    "time": 159.2270833333315,
                    "velocity": 0.5433070866141733,
                    "duration": 0.6125000000000398
                },
                {
                    "name": "A#3",
                    "midi": 58,
                    "time": 159.24791666666485,
                    "velocity": 0.2125984251968504,
                    "duration": 0.11666666666667425
                },
                {
                    "name": "G#2",
                    "midi": 44,
                    "time": 159.27916666666485,
                    "velocity": 0.2440944881889764,
                    "duration": 0.7104166666667027
                },
                {
                    "name": "C#3",
                    "midi": 49,
                    "time": 159.40624999999818,
                    "velocity": 0.2440944881889764,
                    "duration": 0.12083333333333712
                },
                {
                    "name": "F#3",
                    "midi": 54,
                    "time": 159.51041666666484,
                    "velocity": 0.31496062992125984,
                    "duration": 0.0979166666666913
                },
                {
                    "name": "A#3",
                    "midi": 58,
                    "time": 159.60833333333153,
                    "velocity": 0.30708661417322836,
                    "duration": 0.1770833333333428
                },
                {
                    "name": "F4",
                    "midi": 65,
                    "time": 159.73333333333153,
                    "velocity": 0.5905511811023622,
                    "duration": 0.4875000000000398
                },
                {
                    "name": "C4",
                    "midi": 60,
                    "time": 159.76458333333153,
                    "velocity": 0.3858267716535433,
                    "duration": 0.20625000000001137
                },
                {
                    "name": "A3",
                    "midi": 57,
                    "time": 159.7812499999982,
                    "velocity": 0.3228346456692913,
                    "duration": 0.15000000000000568
                },
                {
                    "name": "F#3",
                    "midi": 54,
                    "time": 159.94166666666487,
                    "velocity": 0.3464566929133858,
                    "duration": 0.06875000000002274
                },
                {
                    "name": "D3",
                    "midi": 50,
                    "time": 160.03124999999824,
                    "velocity": 0.28346456692913385,
                    "duration": 0.07083333333332575
                },
                {
                    "name": "G#2",
                    "midi": 44,
                    "time": 160.13124999999823,
                    "velocity": 0.3228346456692913,
                    "duration": 0.11666666666667425
                },
                {
                    "name": "D4",
                    "midi": 62,
                    "time": 160.1541666666649,
                    "velocity": 0.6614173228346457,
                    "duration": 0.41875000000001705
                },
                {
                    "name": "A3",
                    "midi": 57,
                    "time": 160.17708333333158,
                    "velocity": 0.3228346456692913,
                    "duration": 0.07291666666665719
                },
                {
                    "name": "D3",
                    "midi": 50,
                    "time": 160.29791666666492,
                    "velocity": 0.13385826771653545,
                    "duration": 0.07708333333332007
                },
                {
                    "name": "F#3",
                    "midi": 54,
                    "time": 160.33333333333158,
                    "velocity": 0.5118110236220472,
                    "duration": 0.07291666666665719
                },
                {
                    "name": "A3",
                    "midi": 57,
                    "time": 160.43958333333157,
                    "velocity": 0.29133858267716534,
                    "duration": 0.06874999999999432
                },
                {
                    "name": "A4",
                    "midi": 69,
                    "time": 160.55624999999824,
                    "velocity": 0.4881889763779528,
                    "duration": 0.15208333333333712
                },
                {
                    "name": "C4",
                    "midi": 60,
                    "time": 160.55624999999824,
                    "velocity": 0.3464566929133858,
                    "duration": 0.06666666666666288
                },
                {
                    "name": "F#4",
                    "midi": 66,
                    "time": 160.58124999999825,
                    "velocity": 0.3700787401574803,
                    "duration": 0.21458333333333712
                },
                {
                    "name": "A3",
                    "midi": 57,
                    "time": 160.6791666666649,
                    "velocity": 0.2677165354330709,
                    "duration": 0.07291666666665719
                },
                {
                    "name": "F#3",
                    "midi": 54,
                    "time": 160.7604166666649,
                    "velocity": 0.4881889763779528,
                    "duration": 0.05416666666670267
                },
                {
                    "name": "D4",
                    "midi": 62,
                    "time": 160.77708333333157,
                    "velocity": 0.6299212598425197,
                    "duration": 0.2687500000000398
                },
                {
                    "name": "D3",
                    "midi": 50,
                    "time": 160.86249999999828,
                    "velocity": 0.3464566929133858,
                    "duration": 0.08125000000001137
                },
                {
                    "name": "D#4",
                    "midi": 63,
                    "time": 161.01249999999828,
                    "velocity": 0.5984251968503937,
                    "duration": 0.5333333333333314
                },
                {
                    "name": "A#3",
                    "midi": 58,
                    "time": 161.01666666666495,
                    "velocity": 0.3543307086614173,
                    "duration": 0.17916666666667425
                },
                {
                    "name": "G#2",
                    "midi": 44,
                    "time": 161.03333333333163,
                    "velocity": 0.3464566929133858,
                    "duration": 0.7354166666666231
                },
                {
                    "name": "C#3",
                    "midi": 49,
                    "time": 161.17083333333161,
                    "velocity": 0.28346456692913385,
                    "duration": 0.10625000000001705
                },
                {
                    "name": "F#3",
                    "midi": 54,
                    "time": 161.2749999999983,
                    "velocity": 0.30708661417322836,
                    "duration": 0.07291666666665719
                },
                {
                    "name": "A#3",
                    "midi": 58,
                    "time": 161.36041666666495,
                    "velocity": 0.33858267716535434,
                    "duration": 0.2291666666666572
                },
                {
                    "name": "F4",
                    "midi": 65,
                    "time": 161.47291666666496,
                    "velocity": 0.4566929133858268,
                    "duration": 0.5374999999999375
                },
                {
                    "name": "C4",
                    "midi": 60,
                    "time": 161.50833333333162,
                    "velocity": 0.2677165354330709,
                    "duration": 0.535416666666606
                },
                {
                    "name": "A3",
                    "midi": 57,
                    "time": 161.59999999999826,
                    "velocity": 0.29133858267716534,
                    "duration": 0.10833333333332007
                },
                {
                    "name": "F#3",
                    "midi": 54,
                    "time": 161.7104166666649,
                    "velocity": 0.3464566929133858,
                    "duration": 0.07500000000001705
                },
                {
                    "name": "D3",
                    "midi": 50,
                    "time": 161.8270833333316,
                    "velocity": 0.18110236220472442,
                    "duration": 0.08333333333334281
                },
                {
                    "name": "G#2",
                    "midi": 44,
                    "time": 161.95416666666492,
                    "velocity": 0.2992125984251969,
                    "duration": 0.17499999999998295
                },
                {
                    "name": "D4",
                    "midi": 62,
                    "time": 161.99999999999824,
                    "velocity": 0.41732283464566927,
                    "duration": 0.33541666666667425
                },
                {
                    "name": "A3",
                    "midi": 57,
                    "time": 162.00624999999823,
                    "velocity": 0.2440944881889764,
                    "duration": 0.09375
                },
                {
                    "name": "D3",
                    "midi": 50,
                    "time": 162.11874999999824,
                    "velocity": 0.2677165354330709,
                    "duration": 0.08958333333333712
                },
                {
                    "name": "F#3",
                    "midi": 54,
                    "time": 162.21874999999824,
                    "velocity": 0.4330708661417323,
                    "duration": 0.06041666666666856
                },
                {
                    "name": "A3",
                    "midi": 57,
                    "time": 162.33333333333158,
                    "velocity": 0.25196850393700787,
                    "duration": 0.06458333333333144
                },
                {
                    "name": "C4",
                    "midi": 60,
                    "time": 162.43749999999824,
                    "velocity": 0.28346456692913385,
                    "duration": 0.07708333333332007
                },
                {
                    "name": "A3",
                    "midi": 57,
                    "time": 162.55208333333155,
                    "velocity": 0.14960629921259844,
                    "duration": 0.07916666666667993
                },
                {
                    "name": "F#3",
                    "midi": 54,
                    "time": 162.64374999999822,
                    "velocity": 0.4094488188976378,
                    "duration": 0.06874999999999432
                },
                {
                    "name": "D3",
                    "midi": 50,
                    "time": 162.73749999999822,
                    "velocity": 0.41732283464566927,
                    "duration": 0.056250000000005684
                },
                {
                    "name": "D#5",
                    "midi": 75,
                    "time": 162.8729166666649,
                    "velocity": 0.5984251968503937,
                    "duration": 0.32291666666662877
                },
                {
                    "name": "D#4",
                    "midi": 63,
                    "time": 162.8791666666649,
                    "velocity": 0.5196850393700787,
                    "duration": 0.252083333333303
                },
                {
                    "name": "G#2",
                    "midi": 44,
                    "time": 162.8916666666649,
                    "velocity": 0.3779527559055118,
                    "duration": 0.1354166666666572
                },
                {
                    "name": "A#4",
                    "midi": 70,
                    "time": 162.90416666666488,
                    "velocity": 0.2992125984251969,
                    "duration": 0.4229166666666231
                },
                {
                    "name": "C#3",
                    "midi": 49,
                    "time": 163.02916666666488,
                    "velocity": 0.3228346456692913,
                    "duration": 0.07916666666665151
                },
                {
                    "name": "F#3",
                    "midi": 54,
                    "time": 163.13333333333154,
                    "velocity": 0.2992125984251969,
                    "duration": 0.06041666666666856
                },
                {
                    "name": "A#3",
                    "midi": 58,
                    "time": 163.1937499999982,
                    "velocity": 0.3937007874015748,
                    "duration": 0.07083333333332575
                },
                {
                    "name": "F5",
                    "midi": 77,
                    "time": 163.28541666666487,
                    "velocity": 0.7165354330708661,
                    "duration": 0.2312499999999602
                },
                {
                    "name": "F4",
                    "midi": 65,
                    "time": 163.29791666666486,
                    "velocity": 0.5118110236220472,
                    "duration": 0.28958333333329733
                },
                {
                    "name": "C5",
                    "midi": 72,
                    "time": 163.31041666666485,
                    "velocity": 0.3779527559055118,
                    "duration": 0.23749999999998295
                },
                {
                    "name": "C4",
                    "midi": 60,
                    "time": 163.3145833333315,
                    "velocity": 0.47244094488188976,
                    "duration": 0.052083333333314386
                },
                {
                    "name": "A3",
                    "midi": 57,
                    "time": 163.42499999999816,
                    "velocity": 0.4251968503937008,
                    "duration": 0.07499999999998863
                },
                {
                    "name": "F#3",
                    "midi": 54,
                    "time": 163.53124999999815,
                    "velocity": 0.47244094488188976,
                    "duration": 0.05833333333333712
                },
                {
                    "name": "D3",
                    "midi": 50,
                    "time": 163.61666666666483,
                    "velocity": 0.2992125984251969,
                    "duration": 0.07708333333332007
                },
                {
                    "name": "G#2",
                    "midi": 44,
                    "time": 163.72083333333148,
                    "velocity": 0.4881889763779528,
                    "duration": 0.14999999999997726
                },
                {
                    "name": "D5",
                    "midi": 74,
                    "time": 163.72083333333148,
                    "velocity": 0.7007874015748031,
                    "duration": 0.19166666666663446
                },
                {
                    "name": "D4",
                    "midi": 62,
                    "time": 163.7354166666648,
                    "velocity": 0.5118110236220472,
                    "duration": 0.10416666666665719
                },
                {
                    "name": "A4",
                    "midi": 69,
                    "time": 163.73749999999814,
                    "velocity": 0.3700787401574803,
                    "duration": 0.1354166666666572
                },
                {
                    "name": "D3",
                    "midi": 50,
                    "time": 163.88124999999812,
                    "velocity": 0.3464566929133858,
                    "duration": 0.07708333333332007
                },
                {
                    "name": "F#3",
                    "midi": 54,
                    "time": 163.94583333333145,
                    "velocity": 0.4881889763779528,
                    "duration": 0.07916666666665151
                },
                {
                    "name": "A3",
                    "midi": 57,
                    "time": 164.0562499999981,
                    "velocity": 0.30708661417322836,
                    "duration": 0.07499999999998863
                },
                {
                    "name": "A5",
                    "midi": 81,
                    "time": 164.1624999999981,
                    "velocity": 0.5984251968503937,
                    "duration": 0.1208333333333087
                },
                {
                    "name": "F#5",
                    "midi": 78,
                    "time": 164.17291666666475,
                    "velocity": 0.44881889763779526,
                    "duration": 0.05624999999997726
                },
                {
                    "name": "C4",
                    "midi": 60,
                    "time": 164.18749999999807,
                    "velocity": 0.25984251968503935,
                    "duration": 0.07708333333332007
                },
                {
                    "name": "A3",
                    "midi": 57,
                    "time": 164.29374999999806,
                    "velocity": 0.3858267716535433,
                    "duration": 0.08125000000001137
                },
                {
                    "name": "A4",
                    "midi": 69,
                    "time": 164.38749999999806,
                    "velocity": 0.4094488188976378,
                    "duration": 0.06041666666666856
                },
                {
                    "name": "D5",
                    "midi": 74,
                    "time": 164.3895833333314,
                    "velocity": 0.5984251968503937,
                    "duration": 0.04166666666665719
                },
                {
                    "name": "F#3",
                    "midi": 54,
                    "time": 164.3979166666647,
                    "velocity": 0.4330708661417323,
                    "duration": 0.0666666666666913
                },
                {
                    "name": "D3",
                    "midi": 50,
                    "time": 164.5020833333314,
                    "velocity": 0.1889763779527559,
                    "duration": 0.07708333333332007
                },
                {
                    "name": "D#5",
                    "midi": 75,
                    "time": 164.6270833333314,
                    "velocity": 0.5669291338582677,
                    "duration": 0.32916666666667993
                },
                {
                    "name": "G#2",
                    "midi": 44,
                    "time": 164.6270833333314,
                    "velocity": 0.3858267716535433,
                    "duration": 0.13749999999998863
                },
                {
                    "name": "D#4",
                    "midi": 63,
                    "time": 164.6395833333314,
                    "velocity": 0.4881889763779528,
                    "duration": 0.2395833333333428
                },
                {
                    "name": "A#4",
                    "midi": 70,
                    "time": 164.64166666666472,
                    "velocity": 0.2992125984251969,
                    "duration": 0.43958333333333144
                },
                {
                    "name": "C#3",
                    "midi": 49,
                    "time": 164.7520833333314,
                    "velocity": 0.36220472440944884,
                    "duration": 0.09375
                },
                {
                    "name": "F#3",
                    "midi": 54,
                    "time": 164.8770833333314,
                    "velocity": 0.3228346456692913,
                    "duration": 0.0625
                },
                {
                    "name": "A#3",
                    "midi": 58,
                    "time": 164.96041666666474,
                    "velocity": 0.28346456692913385,
                    "duration": 0.07916666666667993
                },
                {
                    "name": "F5",
                    "midi": 77,
                    "time": 165.05416666666474,
                    "velocity": 0.5984251968503937,
                    "duration": 0.20208333333329165
                },
                {
                    "name": "F4",
                    "midi": 65,
                    "time": 165.06666666666473,
                    "velocity": 0.4094488188976378,
                    "duration": 0.29583333333332007
                },
                {
                    "name": "C5",
                    "midi": 72,
                    "time": 165.07499999999806,
                    "velocity": 0.33070866141732286,
                    "duration": 0.1979166666666572
                },
                {
                    "name": "C4",
                    "midi": 60,
                    "time": 165.0916666666647,
                    "velocity": 0.33070866141732286,
                    "duration": 0.0625
                },
                {
                    "name": "A3",
                    "midi": 57,
                    "time": 165.21874999999804,
                    "velocity": 0.3228346456692913,
                    "duration": 0.12083333333333712
                },
                {
                    "name": "F#3",
                    "midi": 54,
                    "time": 165.33958333333138,
                    "velocity": 0.3937007874015748,
                    "duration": 0.09166666666666856
                },
                {
                    "name": "D3",
                    "midi": 50,
                    "time": 165.44791666666472,
                    "velocity": 0.2677165354330709,
                    "duration": 0.07291666666665719
                },
                {
                    "name": "D5",
                    "midi": 74,
                    "time": 165.58124999999805,
                    "velocity": 0.5196850393700787,
                    "duration": 0.408333333333303
                },
                {
                    "name": "G#2",
                    "midi": 44,
                    "time": 165.6020833333314,
                    "velocity": 0.3464566929133858,
                    "duration": 0.22083333333333144
                },
                {
                    "name": "D4",
                    "midi": 62,
                    "time": 165.61041666666472,
                    "velocity": 0.1732283464566929,
                    "duration": 0.2770833333333371
                },
                {
                    "name": "A4",
                    "midi": 69,
                    "time": 165.61249999999805,
                    "velocity": 0.18110236220472442,
                    "duration": 0.2874999999999943
                },
                {
                    "name": "D3",
                    "midi": 50,
                    "time": 165.77499999999804,
                    "velocity": 0.28346456692913385,
                    "duration": 0.09375
                },
                {
                    "name": "F#3",
                    "midi": 54,
                    "time": 165.87083333333138,
                    "velocity": 0.36220472440944884,
                    "duration": 0.06874999999999432
                },
                {
                    "name": "A3",
                    "midi": 57,
                    "time": 165.98333333333136,
                    "velocity": 0.25196850393700787,
                    "duration": 0.07083333333332575
                },
                {
                    "name": "C4",
                    "midi": 60,
                    "time": 166.09583333333134,
                    "velocity": 0.36220472440944884,
                    "duration": 0.06041666666666856
                },
                {
                    "name": "A4",
                    "midi": 69,
                    "time": 166.16458333333134,
                    "velocity": 0.31496062992125984,
                    "duration": 0.2750000000000057
                },
                {
                    "name": "D4",
                    "midi": 62,
                    "time": 166.18124999999802,
                    "velocity": 0.1732283464566929,
                    "duration": 0.09791666666666288
                },
                {
                    "name": "A3",
                    "midi": 57,
                    "time": 166.224999999998,
                    "velocity": 0.3543307086614173,
                    "duration": 0.07708333333334849
                },
                {
                    "name": "F#3",
                    "midi": 54,
                    "time": 166.343749999998,
                    "velocity": 0.3779527559055118,
                    "duration": 0.056250000000005684
                },
                {
                    "name": "D3",
                    "midi": 50,
                    "time": 166.43124999999802,
                    "velocity": 0.3543307086614173,
                    "duration": 0.07083333333332575
                },
                {
                    "name": "G#2",
                    "midi": 44,
                    "time": 166.54791666666466,
                    "velocity": 0.4645669291338583,
                    "duration": 0.0625
                },
                {
                    "name": "D3",
                    "midi": 50,
                    "time": 166.68333333333132,
                    "velocity": 0.29133858267716534,
                    "duration": 0.06458333333333144
                },
                {
                    "name": "F#3",
                    "midi": 54,
                    "time": 166.73958333333132,
                    "velocity": 0.44881889763779526,
                    "duration": 0.06041666666666856
                },
                {
                    "name": "A3",
                    "midi": 57,
                    "time": 166.83958333333132,
                    "velocity": 0.2677165354330709,
                    "duration": 0.06458333333333144
                },
                {
                    "name": "C4",
                    "midi": 60,
                    "time": 166.9395833333313,
                    "velocity": 0.4330708661417323,
                    "duration": 0.05833333333333712
                },
                {
                    "name": "A3",
                    "midi": 57,
                    "time": 167.04583333333133,
                    "velocity": 0.33858267716535434,
                    "duration": 0.06458333333333144
                },
                {
                    "name": "F#3",
                    "midi": 54,
                    "time": 167.18749999999798,
                    "velocity": 0.23622047244094488,
                    "duration": 0.07499999999998863
                },
                {
                    "name": "D3",
                    "midi": 50,
                    "time": 167.2520833333313,
                    "velocity": 0.4015748031496063,
                    "duration": 0.06041666666666856
                },
                {
                    "name": "C3",
                    "midi": 48,
                    "time": 167.34791666666464,
                    "velocity": 0.6456692913385826,
                    "duration": 0.33958333333336554
                },
                {
                    "name": "G#2",
                    "midi": 44,
                    "time": 167.40624999999798,
                    "velocity": 0.4094488188976378,
                    "duration": 0.08750000000000568
                },
                {
                    "name": "D3",
                    "midi": 50,
                    "time": 167.54166666666467,
                    "velocity": 0.16535433070866143,
                    "duration": 0.08125000000001137
                },
                {
                    "name": "F#3",
                    "midi": 54,
                    "time": 167.631249999998,
                    "velocity": 0.3543307086614173,
                    "duration": 0.056250000000005684
                },
                {
                    "name": "A3",
                    "midi": 57,
                    "time": 167.75416666666467,
                    "velocity": 0.11023622047244094,
                    "duration": 0.06666666666666288
                },
                {
                    "name": "C4",
                    "midi": 60,
                    "time": 167.874999999998,
                    "velocity": 0.18110236220472442,
                    "duration": 0.06875000000002274
                },
                {
                    "name": "A2",
                    "midi": 45,
                    "time": 167.89374999999802,
                    "velocity": 0.5433070866141733,
                    "duration": 0.1604166666666913
                },
                {
                    "name": "A3",
                    "midi": 57,
                    "time": 168.0041666666647,
                    "velocity": 0.33858267716535434,
                    "duration": 0.06458333333333144
                },
                {
                    "name": "F#3",
                    "midi": 54,
                    "time": 168.1041666666647,
                    "velocity": 0.5039370078740157,
                    "duration": 0.06666666666666288
                },
                {
                    "name": "D3",
                    "midi": 50,
                    "time": 168.24583333333135,
                    "velocity": 0.2440944881889764,
                    "duration": 0.07291666666665719
                },
                {
                    "name": "G#2",
                    "midi": 44,
                    "time": 168.31666666666467,
                    "velocity": 0.48031496062992124,
                    "duration": 0.07916666666665151
                },
                {
                    "name": "D3",
                    "midi": 50,
                    "time": 168.41458333333134,
                    "velocity": 0.2440944881889764,
                    "duration": 0.08958333333333712
                },
                {
                    "name": "F#3",
                    "midi": 54,
                    "time": 168.51666666666466,
                    "velocity": 0.3858267716535433,
                    "duration": 0.054166666666674246
                },
                {
                    "name": "A3",
                    "midi": 57,
                    "time": 168.62083333333135,
                    "velocity": 0.29133858267716534,
                    "duration": 0.06874999999999432
                },
                {
                    "name": "C4",
                    "midi": 60,
                    "time": 168.72083333333134,
                    "velocity": 0.47244094488188976,
                    "duration": 0.05208333333334281
                },
                {
                    "name": "A3",
                    "midi": 57,
                    "time": 168.85208333333136,
                    "velocity": 0.2047244094488189,
                    "duration": 0.06874999999999432
                },
                {
                    "name": "F#3",
                    "midi": 54,
                    "time": 168.93124999999802,
                    "velocity": 0.5039370078740157,
                    "duration": 0.06666666666666288
                },
                {
                    "name": "D3",
                    "midi": 50,
                    "time": 169.02916666666468,
                    "velocity": 0.2755905511811024,
                    "duration": 0.07291666666665719
                },
                {
                    "name": "G#2",
                    "midi": 44,
                    "time": 169.12291666666468,
                    "velocity": 0.5196850393700787,
                    "duration": 0.15625
                },
                {
                    "name": "C4",
                    "midi": 60,
                    "time": 169.12291666666468,
                    "velocity": 0.7322834645669292,
                    "duration": 0.125
                },
                {
                    "name": "D3",
                    "midi": 50,
                    "time": 169.27708333333135,
                    "velocity": 0.23622047244094488,
                    "duration": 0.09791666666666288
                },
                {
                    "name": "F#3",
                    "midi": 54,
                    "time": 169.36666666666468,
                    "velocity": 0.3700787401574803,
                    "duration": 0.12916666666666288
                },
                {
                    "name": "A3",
                    "midi": 57,
                    "time": 169.52291666666468,
                    "velocity": 0.6456692913385826,
                    "duration": 0.08333333333334281
                },
                {
                    "name": "D4",
                    "midi": 62,
                    "time": 169.66249999999803,
                    "velocity": 0.13385826771653545,
                    "duration": 0.09166666666666856
                },
                {
                    "name": "F#4",
                    "midi": 66,
                    "time": 169.73124999999803,
                    "velocity": 0.4566929133858268,
                    "duration": 0.07916666666667993
                },
                {
                    "name": "A4",
                    "midi": 69,
                    "time": 169.8041666666647,
                    "velocity": 0.41732283464566927,
                    "duration": 0.07708333333332007
                },
                {
                    "name": "D5",
                    "midi": 74,
                    "time": 169.88124999999803,
                    "velocity": 0.49606299212598426,
                    "duration": 0.04374999999998863
                },
                {
                    "name": "C5",
                    "midi": 72,
                    "time": 170.07708333333136,
                    "velocity": 0.6850393700787402,
                    "duration": 0.20833333333331439
                },
                {
                    "name": "G#4",
                    "midi": 68,
                    "time": 170.0791666666647,
                    "velocity": 0.1732283464566929,
                    "duration": 0.06874999999999432
                },
                {
                    "name": "C4",
                    "midi": 60,
                    "time": 170.10624999999803,
                    "velocity": 0.3779527559055118,
                    "duration": 0.18958333333330302
                },
                {
                    "name": "D#5",
                    "midi": 75,
                    "time": 170.14999999999802,
                    "velocity": 0.5039370078740157,
                    "duration": 0.16249999999999432
                },
                {
                    "name": "F#5",
                    "midi": 78,
                    "time": 170.256249999998,
                    "velocity": 0.3858267716535433,
                    "duration": 0.10416666666665719
                },
                {
                    "name": "G#5",
                    "midi": 80,
                    "time": 170.31458333333134,
                    "velocity": 0.4566929133858268,
                    "duration": 0.04791666666665151
                },
                {
                    "name": "A4",
                    "midi": 69,
                    "time": 170.456249999998,
                    "velocity": 0.5905511811023622,
                    "duration": 0.04583333333332007
                },
                {
                    "name": "D5",
                    "midi": 74,
                    "time": 170.4708333333313,
                    "velocity": 0.4094488188976378,
                    "duration": 0.11874999999997726
                },
                {
                    "name": "A3",
                    "midi": 57,
                    "time": 170.4708333333313,
                    "velocity": 0.4251968503937008,
                    "duration": 0.05624999999997726
                },
                {
                    "name": "C5",
                    "midi": 72,
                    "time": 170.4770833333313,
                    "velocity": 0.5354330708661418,
                    "duration": 0.04791666666665151
                },
                {
                    "name": "A#5",
                    "midi": 82,
                    "time": 170.5145833333313,
                    "velocity": 0.11811023622047244,
                    "duration": 0.09166666666666856
                },
                {
                    "name": "F#5",
                    "midi": 78,
                    "time": 170.54999999999797,
                    "velocity": 0.5196850393700787,
                    "duration": 0.11041666666667993
                },
                {
                    "name": "A5",
                    "midi": 81,
                    "time": 170.62499999999798,
                    "velocity": 0.5433070866141733,
                    "duration": 0.10208333333332575
                },
                {
                    "name": "D6",
                    "midi": 86,
                    "time": 170.712499999998,
                    "velocity": 0.3937007874015748,
                    "duration": 0.05624999999997726
                },
                {
                    "name": "G#5",
                    "midi": 80,
                    "time": 170.8833333333313,
                    "velocity": 0.7244094488188977,
                    "duration": 0.18333333333336554
                },
                {
                    "name": "C6",
                    "midi": 84,
                    "time": 170.88749999999797,
                    "velocity": 0.8188976377952756,
                    "duration": 0.13125000000002274
                },
                {
                    "name": "C5",
                    "midi": 72,
                    "time": 170.90624999999798,
                    "velocity": 0.6062992125984252,
                    "duration": 0.04791666666667993
                },
                {
                    "name": "B5",
                    "midi": 83,
                    "time": 170.92916666666466,
                    "velocity": 0.3937007874015748,
                    "duration": 0.06458333333333144
                },
                {
                    "name": "D#6",
                    "midi": 87,
                    "time": 170.97916666666467,
                    "velocity": 0.5669291338582677,
                    "duration": 0.17916666666667425
                },
                {
                    "name": "F#6",
                    "midi": 90,
                    "time": 171.07708333333133,
                    "velocity": 0.48031496062992124,
                    "duration": 0.11666666666667425
                },
                {
                    "name": "G#6",
                    "midi": 92,
                    "time": 171.12916666666467,
                    "velocity": 0.5433070866141733,
                    "duration": 0.08958333333333712
                },
                {
                    "name": "A5",
                    "midi": 81,
                    "time": 171.25416666666467,
                    "velocity": 0.6614173228346457,
                    "duration": 0.0625
                },
                {
                    "name": "D6",
                    "midi": 86,
                    "time": 171.262499999998,
                    "velocity": 0.4881889763779528,
                    "duration": 0.15416666666666856
                },
                {
                    "name": "A4",
                    "midi": 69,
                    "time": 171.26458333333133,
                    "velocity": 0.3779527559055118,
                    "duration": 0.06041666666666856
                },
                {
                    "name": "C6",
                    "midi": 84,
                    "time": 171.268749999998,
                    "velocity": 0.6141732283464567,
                    "duration": 0.11458333333334281
                },
                {
                    "name": "F#6",
                    "midi": 90,
                    "time": 171.324999999998,
                    "velocity": 0.5905511811023622,
                    "duration": 0.1770833333333428
                },
                {
                    "name": "A6",
                    "midi": 93,
                    "time": 171.41458333333134,
                    "velocity": 0.5748031496062992,
                    "duration": 0.13750000000001705
                },
                {
                    "name": "D7",
                    "midi": 98,
                    "time": 171.51874999999802,
                    "velocity": 0.4645669291338583,
                    "duration": 0.054166666666674246
                },
                {
                    "name": "C7",
                    "midi": 96,
                    "time": 171.53333333333134,
                    "velocity": 0.4094488188976378,
                    "duration": 0.05000000000001137
                },
                {
                    "name": "C#6",
                    "midi": 85,
                    "time": 171.60833333333136,
                    "velocity": 0.7716535433070866,
                    "duration": 0.09583333333330302
                },
                {
                    "name": "F#5",
                    "midi": 78,
                    "time": 171.62291666666468,
                    "velocity": 0.5669291338582677,
                    "duration": 0.10624999999998863
                },
                {
                    "name": "A6",
                    "midi": 93,
                    "time": 171.693749999998,
                    "velocity": 0.6850393700787402,
                    "duration": 0.04583333333332007
                },
                {
                    "name": "C6",
                    "midi": 84,
                    "time": 171.69583333333134,
                    "velocity": 0.7244094488188977,
                    "duration": 0.04583333333332007
                },
                {
                    "name": "D6",
                    "midi": 86,
                    "time": 171.69583333333134,
                    "velocity": 0.6692913385826772,
                    "duration": 0.04374999999998863
                },
                {
                    "name": "A5",
                    "midi": 81,
                    "time": 171.80208333333132,
                    "velocity": 0.5433070866141733,
                    "duration": 0.04166666666665719
                },
                {
                    "name": "C6",
                    "midi": 84,
                    "time": 171.86041666666466,
                    "velocity": 0.5984251968503937,
                    "duration": 0.04583333333332007
                },
                {
                    "name": "D6",
                    "midi": 86,
                    "time": 171.862499999998,
                    "velocity": 0.4566929133858268,
                    "duration": 0.04583333333332007
                },
                {
                    "name": "A6",
                    "midi": 93,
                    "time": 171.86666666666466,
                    "velocity": 0.4566929133858268,
                    "duration": 0.05624999999997726
                },
                {
                    "name": "C#5",
                    "midi": 73,
                    "time": 171.9770833333313,
                    "velocity": 0.6850393700787402,
                    "duration": 0.039583333333354176
                },
                {
                    "name": "F#4",
                    "midi": 66,
                    "time": 171.993749999998,
                    "velocity": 0.5039370078740157,
                    "duration": 0.056250000000005684
                },
                {
                    "name": "D5",
                    "midi": 74,
                    "time": 172.05208333333132,
                    "velocity": 0.6929133858267716,
                    "duration": 0.039583333333325754
                },
                {
                    "name": "C5",
                    "midi": 72,
                    "time": 172.05208333333132,
                    "velocity": 0.6456692913385826,
                    "duration": 0.04583333333332007
                },
                {
                    "name": "A5",
                    "midi": 81,
                    "time": 172.056249999998,
                    "velocity": 0.5748031496062992,
                    "duration": 0.04374999999998863
                },
                {
                    "name": "A4",
                    "midi": 69,
                    "time": 172.14791666666466,
                    "velocity": 0.5669291338582677,
                    "duration": 0.039583333333325754
                },
                {
                    "name": "C5",
                    "midi": 72,
                    "time": 172.19374999999798,
                    "velocity": 0.48031496062992124,
                    "duration": 0.06041666666664014
                },
                {
                    "name": "A5",
                    "midi": 81,
                    "time": 172.19999999999797,
                    "velocity": 0.2992125984251969,
                    "duration": 0.0583333333333087
                },
                {
                    "name": "D5",
                    "midi": 74,
                    "time": 172.20416666666463,
                    "velocity": 0.4330708661417323,
                    "duration": 0.039583333333325754
                },
                {
                    "name": "G#3",
                    "midi": 56,
                    "time": 172.33749999999796,
                    "velocity": 0.6614173228346457,
                    "duration": 0.1520833333333087
                },
                {
                    "name": "F#3",
                    "midi": 54,
                    "time": 172.38124999999795,
                    "velocity": 0.28346456692913385,
                    "duration": 0.07499999999998863
                },
                {
                    "name": "D4",
                    "midi": 62,
                    "time": 172.40833333333129,
                    "velocity": 0.6692913385826772,
                    "duration": 0.0895833333333087
                },
                {
                    "name": "F#4",
                    "midi": 66,
                    "time": 172.4229166666646,
                    "velocity": 0.5669291338582677,
                    "duration": 0.14791666666667425
                },
                {
                    "name": "C#4",
                    "midi": 61,
                    "time": 172.51458333333127,
                    "velocity": 0.6456692913385826,
                    "duration": 0.11458333333331439
                },
                {
                    "name": "C4",
                    "midi": 60,
                    "time": 172.6166666666646,
                    "velocity": 0.6220472440944882,
                    "duration": 0.10833333333329165
                },
                {
                    "name": "B3",
                    "midi": 59,
                    "time": 172.70416666666458,
                    "velocity": 0.7322834645669292,
                    "duration": 0.12499999999997158
                },
                {
                    "name": "G#2",
                    "midi": 44,
                    "time": 172.7124999999979,
                    "velocity": 0.6614173228346457,
                    "duration": 0.17083333333332007
                },
                {
                    "name": "A#3",
                    "midi": 58,
                    "time": 172.78958333333122,
                    "velocity": 0.6141732283464567,
                    "duration": 0.09583333333333144
                },
                {
                    "name": "A3",
                    "midi": 57,
                    "time": 172.86666666666454,
                    "velocity": 0.5905511811023622,
                    "duration": 0.11666666666667425
                },
                {
                    "name": "G#3",
                    "midi": 56,
                    "time": 172.9583333333312,
                    "velocity": 0.6929133858267716,
                    "duration": 0.05000000000001137
                },
                {
                    "name": "G#1",
                    "midi": 32,
                    "time": 173.05833333333123,
                    "velocity": 0.7086614173228346,
                    "duration": 0.15625
                },
                {
                    "name": "D3",
                    "midi": 50,
                    "time": 173.14166666666458,
                    "velocity": 0.5984251968503937,
                    "duration": 0.08749999999997726
                },
                {
                    "name": "A3",
                    "midi": 57,
                    "time": 173.14166666666458,
                    "velocity": 0.49606299212598426,
                    "duration": 0.0625
                },
                {
                    "name": "F#3",
                    "midi": 54,
                    "time": 173.1499999999979,
                    "velocity": 0.6220472440944882,
                    "duration": 0.16249999999999432
                },
                {
                    "name": "C#3",
                    "midi": 49,
                    "time": 173.2499999999979,
                    "velocity": 0.5984251968503937,
                    "duration": 0.10833333333332007
                },
                {
                    "name": "C3",
                    "midi": 48,
                    "time": 173.34583333333123,
                    "velocity": 0.5511811023622047,
                    "duration": 0.13333333333332575
                },
                {
                    "name": "A0",
                    "midi": 21,
                    "time": 173.42916666666454,
                    "velocity": 0.7716535433070866,
                    "duration": 0.10624999999998863
                },
                {
                    "name": "B2",
                    "midi": 47,
                    "time": 173.42916666666454,
                    "velocity": 0.6929133858267716,
                    "duration": 0.14999999999997726
                },
                {
                    "name": "A#2",
                    "midi": 46,
                    "time": 173.52291666666454,
                    "velocity": 0.6535433070866141,
                    "duration": 0.1208333333333087
                },
                {
                    "name": "A2",
                    "midi": 45,
                    "time": 173.61874999999785,
                    "velocity": 0.5590551181102362,
                    "duration": 0.11458333333334281
                },
                {
                    "name": "G#2",
                    "midi": 44,
                    "time": 173.71458333333118,
                    "velocity": 0.7322834645669292,
                    "duration": 0.04375000000001705
                },
                {
                    "name": "F4",
                    "midi": 65,
                    "time": 174.0708333333312,
                    "velocity": 0.6377952755905512,
                    "duration": 0.5854166666666458
                },
                {
                    "name": "G#2",
                    "midi": 44,
                    "time": 174.07499999999786,
                    "velocity": 0.4645669291338583,
                    "duration": 0.12083333333333712
                },
                {
                    "name": "C4",
                    "midi": 60,
                    "time": 174.07916666666452,
                    "velocity": 0.47244094488188976,
                    "duration": 0.31458333333333144
                },
                {
                    "name": "F3",
                    "midi": 53,
                    "time": 174.2520833333312,
                    "velocity": 0.6220472440944882,
                    "duration": 0.13333333333332575
                },
                {
                    "name": "G#3",
                    "midi": 56,
                    "time": 174.34791666666453,
                    "velocity": 0.4094488188976378,
                    "duration": 0.16458333333332575
                },
                {
                    "name": "C4",
                    "midi": 60,
                    "time": 174.45833333333118,
                    "velocity": 0.18110236220472442,
                    "duration": 0.08958333333333712
                },
                {
                    "name": "G4",
                    "midi": 67,
                    "time": 174.5708333333312,
                    "velocity": 0.6929133858267716,
                    "duration": 0.470833333333303
                },
                {
                    "name": "D4",
                    "midi": 62,
                    "time": 174.58124999999785,
                    "velocity": 0.4409448818897638,
                    "duration": 0.1875
                },
                {
                    "name": "B3",
                    "midi": 59,
                    "time": 174.71249999999785,
                    "velocity": 0.3858267716535433,
                    "duration": 0.06458333333333144
                },
                {
                    "name": "G#3",
                    "midi": 56,
                    "time": 174.7854166666645,
                    "velocity": 0.4094488188976378,
                    "duration": 0.06666666666666288
                },
                {
                    "name": "E3",
                    "midi": 52,
                    "time": 174.87708333333117,
                    "velocity": 0.4409448818897638,
                    "duration": 0.05208333333334281
                },
                {
                    "name": "E4",
                    "midi": 64,
                    "time": 174.97499999999783,
                    "velocity": 0.7007874015748031,
                    "duration": 0.39374999999998295
                },
                {
                    "name": "G#2",
                    "midi": 44,
                    "time": 174.98124999999783,
                    "velocity": 0.4881889763779528,
                    "duration": 0.13124999999999432
                },
                {
                    "name": "B3",
                    "midi": 59,
                    "time": 174.98749999999782,
                    "velocity": 0.4094488188976378,
                    "duration": 0.09791666666666288
                },
                {
                    "name": "E3",
                    "midi": 52,
                    "time": 175.1041666666645,
                    "velocity": 0.4409448818897638,
                    "duration": 0.10624999999998863
                },
                {
                    "name": "G#3",
                    "midi": 56,
                    "time": 175.2041666666645,
                    "velocity": 0.4251968503937008,
                    "duration": 0.056250000000005684
                },
                {
                    "name": "B3",
                    "midi": 59,
                    "time": 175.27291666666449,
                    "velocity": 0.4645669291338583,
                    "duration": 0.05833333333333712
                },
                {
                    "name": "B4",
                    "midi": 71,
                    "time": 175.37083333333115,
                    "velocity": 0.6456692913385826,
                    "duration": 0.26249999999998863
                },
                {
                    "name": "G#4",
                    "midi": 68,
                    "time": 175.3812499999978,
                    "velocity": 0.4251968503937008,
                    "duration": 0.22499999999999432
                },
                {
                    "name": "D4",
                    "midi": 62,
                    "time": 175.38541666666447,
                    "velocity": 0.49606299212598426,
                    "duration": 0.04791666666667993
                },
                {
                    "name": "B3",
                    "midi": 59,
                    "time": 175.49166666666449,
                    "velocity": 0.49606299212598426,
                    "duration": 0.04583333333332007
                },
                {
                    "name": "E4",
                    "midi": 64,
                    "time": 175.59583333333114,
                    "velocity": 0.6535433070866141,
                    "duration": 0.06041666666664014
                },
                {
                    "name": "G#3",
                    "midi": 56,
                    "time": 175.59791666666447,
                    "velocity": 0.4409448818897638,
                    "duration": 0.054166666666645824
                },
                {
                    "name": "B3",
                    "midi": 59,
                    "time": 175.5999999999978,
                    "velocity": 0.5669291338582677,
                    "duration": 0.04583333333332007
                },
                {
                    "name": "E3",
                    "midi": 52,
                    "time": 175.68749999999778,
                    "velocity": 0.4645669291338583,
                    "duration": 0.05208333333334281
                },
                {
                    "name": "G#2",
                    "midi": 44,
                    "time": 175.8520833333311,
                    "velocity": 0.33070866141732286,
                    "duration": 0.12916666666663446
                },
                {
                    "name": "F5",
                    "midi": 77,
                    "time": 175.86249999999777,
                    "velocity": 0.7007874015748031,
                    "duration": 0.38541666666662877
                },
                {
                    "name": "C5",
                    "midi": 72,
                    "time": 175.8770833333311,
                    "velocity": 0.49606299212598426,
                    "duration": 0.4874999999999545
                },
                {
                    "name": "F4",
                    "midi": 65,
                    "time": 175.88333333333108,
                    "velocity": 0.3937007874015748,
                    "duration": 0.32499999999998863
                },
                {
                    "name": "F3",
                    "midi": 53,
                    "time": 176.00416666666442,
                    "velocity": 0.5905511811023622,
                    "duration": 0.11458333333334281
                },
                {
                    "name": "G#3",
                    "midi": 56,
                    "time": 176.1208333333311,
                    "velocity": 0.33858267716535434,
                    "duration": 0.07708333333332007
                },
                {
                    "name": "C4",
                    "midi": 60,
                    "time": 176.21458333333106,
                    "velocity": 0.3937007874015748,
                    "duration": 0.08333333333334281
                },
                {
                    "name": "G5",
                    "midi": 79,
                    "time": 176.3416666666644,
                    "velocity": 0.7401574803149606,
                    "duration": 0.2666666666666231
                },
                {
                    "name": "D4",
                    "midi": 62,
                    "time": 176.3479166666644,
                    "velocity": 0.48031496062992124,
                    "duration": 0.04791666666665151
                },
                {
                    "name": "G4",
                    "midi": 67,
                    "time": 176.35833333333105,
                    "velocity": 0.4645669291338583,
                    "duration": 0.32708333333332007
                },
                {
                    "name": "D5",
                    "midi": 74,
                    "time": 176.3624999999977,
                    "velocity": 0.3858267716535433,
                    "duration": 0.22499999999999432
                },
                {
                    "name": "B3",
                    "midi": 59,
                    "time": 176.4937499999977,
                    "velocity": 0.2677165354330709,
                    "duration": 0.07708333333332007
                },
                {
                    "name": "G#3",
                    "midi": 56,
                    "time": 176.5937499999977,
                    "velocity": 0.4094488188976378,
                    "duration": 0.06666666666666288
                },
                {
                    "name": "E3",
                    "midi": 52,
                    "time": 176.70833333333104,
                    "velocity": 0.4094488188976378,
                    "duration": 0.054166666666674246
                },
                {
                    "name": "G#2",
                    "midi": 44,
                    "time": 176.82708333333105,
                    "velocity": 0.4015748031496063,
                    "duration": 0.15416666666666856
                },
                {
                    "name": "E5",
                    "midi": 76,
                    "time": 176.8437499999977,
                    "velocity": 0.5433070866141733,
                    "duration": 0.5291666666666686
                },
                {
                    "name": "E4",
                    "midi": 64,
                    "time": 176.86666666666437,
                    "velocity": 0.30708661417322836,
                    "duration": 0.33124999999998295
                },
                {
                    "name": "B4",
                    "midi": 71,
                    "time": 176.86666666666437,
                    "velocity": 0.2677165354330709,
                    "duration": 0.26458333333332007
                },
                {
                    "name": "E3",
                    "midi": 52,
                    "time": 176.9937499999977,
                    "velocity": 0.4566929133858268,
                    "duration": 0.08958333333333712
                },
                {
                    "name": "G#3",
                    "midi": 56,
                    "time": 177.1249999999977,
                    "velocity": 0.3700787401574803,
                    "duration": 0.05833333333333712
                },
                {
                    "name": "B3",
                    "midi": 59,
                    "time": 177.22291666666436,
                    "velocity": 0.3228346456692913,
                    "duration": 0.06041666666666856
                },
                {
                    "name": "D4",
                    "midi": 62,
                    "time": 177.34583333333103,
                    "velocity": 0.2992125984251969,
                    "duration": 0.06666666666666288
                },
                {
                    "name": "E4",
                    "midi": 64,
                    "time": 177.40416666666437,
                    "velocity": 0.11811023622047244,
                    "duration": 0.15000000000000568
                },
                {
                    "name": "B4",
                    "midi": 71,
                    "time": 177.40416666666437,
                    "velocity": 0.44881889763779526,
                    "duration": 0.26250000000001705
                },
                {
                    "name": "B3",
                    "midi": 59,
                    "time": 177.4624999999977,
                    "velocity": 0.30708661417322836,
                    "duration": 0.06666666666666288
                },
                {
                    "name": "G#3",
                    "midi": 56,
                    "time": 177.57916666666438,
                    "velocity": 0.2755905511811024,
                    "duration": 0.06458333333333144
                },
                {
                    "name": "E3",
                    "midi": 52,
                    "time": 177.66666666666438,
                    "velocity": 0.4251968503937008,
                    "duration": 0.05208333333334281
                },
                {
                    "name": "G#2",
                    "midi": 44,
                    "time": 177.79583333333105,
                    "velocity": 0.4094488188976378,
                    "duration": 0.05833333333333712
                },
                {
                    "name": "E3",
                    "midi": 52,
                    "time": 177.9041666666644,
                    "velocity": 0.5118110236220472,
                    "duration": 0.054166666666674246
                },
                {
                    "name": "G#3",
                    "midi": 56,
                    "time": 178.00624999999775,
                    "velocity": 0.2755905511811024,
                    "duration": 0.0625
                },
                {
                    "name": "B3",
                    "midi": 59,
                    "time": 178.0895833333311,
                    "velocity": 0.44881889763779526,
                    "duration": 0.05000000000001137
                },
                {
                    "name": "D4",
                    "midi": 62,
                    "time": 178.18958333333111,
                    "velocity": 0.4015748031496063,
                    "duration": 0.056250000000005684
                },
                {
                    "name": "B3",
                    "midi": 59,
                    "time": 178.2999999999978,
                    "velocity": 0.4094488188976378,
                    "duration": 0.05208333333334281
                },
                {
                    "name": "G#3",
                    "midi": 56,
                    "time": 178.3937499999978,
                    "velocity": 0.36220472440944884,
                    "duration": 0.05833333333333712
                },
                {
                    "name": "E3",
                    "midi": 52,
                    "time": 178.4812499999978,
                    "velocity": 0.3543307086614173,
                    "duration": 0.06458333333333144
                },
                {
                    "name": "D3",
                    "midi": 50,
                    "time": 178.5874999999978,
                    "velocity": 0.7401574803149606,
                    "duration": 0.16875000000001705
                },
                {
                    "name": "G#2",
                    "midi": 44,
                    "time": 178.60833333333113,
                    "velocity": 0.4645669291338583,
                    "duration": 0.09375
                },
                {
                    "name": "E3",
                    "midi": 52,
                    "time": 178.77499999999782,
                    "velocity": 0.41732283464566927,
                    "duration": 0.15833333333333144
                },
                {
                    "name": "G#3",
                    "midi": 56,
                    "time": 178.8749999999978,
                    "velocity": 0.3779527559055118,
                    "duration": 0.10625000000001705
                },
                {
                    "name": "B3",
                    "midi": 59,
                    "time": 179.01249999999783,
                    "velocity": 0.36220472440944884,
                    "duration": 0.09999999999999432
                },
                {
                    "name": "B2",
                    "midi": 47,
                    "time": 179.1291666666645,
                    "velocity": 0.5984251968503937,
                    "duration": 0.04374999999998863
                },
                {
                    "name": "E4",
                    "midi": 64,
                    "time": 179.1479166666645,
                    "velocity": 0.14173228346456693,
                    "duration": 0.08749999999997726
                },
                {
                    "name": "D4",
                    "midi": 62,
                    "time": 179.15833333333117,
                    "velocity": 0.3543307086614173,
                    "duration": 0.0625
                },
                {
                    "name": "G#4",
                    "midi": 68,
                    "time": 179.2229166666645,
                    "velocity": 0.3464566929133858,
                    "duration": 0.054166666666645824
                },
                {
                    "name": "B4",
                    "midi": 71,
                    "time": 179.28333333333114,
                    "velocity": 0.5039370078740157,
                    "duration": 0.10208333333332575
                },
                {
                    "name": "E5",
                    "midi": 76,
                    "time": 179.37708333333114,
                    "velocity": 0.4330708661417323,
                    "duration": 0.04791666666665151
                },
                {
                    "name": "G#4",
                    "midi": 68,
                    "time": 179.56249999999778,
                    "velocity": 0.5748031496062992,
                    "duration": 0.11041666666665151
                },
                {
                    "name": "D5",
                    "midi": 74,
                    "time": 179.56874999999778,
                    "velocity": 0.7165354330708661,
                    "duration": 0.09166666666666856
                },
                {
                    "name": "D4",
                    "midi": 62,
                    "time": 179.6020833333311,
                    "velocity": 0.3464566929133858,
                    "duration": 0.05833333333333712
                },
                {
                    "name": "D#5",
                    "midi": 75,
                    "time": 179.65208333333112,
                    "velocity": 0.4881889763779528,
                    "duration": 0.14791666666664582
                },
                {
                    "name": "G#5",
                    "midi": 80,
                    "time": 179.7583333333311,
                    "velocity": 0.4645669291338583,
                    "duration": 0.1416666666666231
                },
                {
                    "name": "B5",
                    "midi": 83,
                    "time": 179.8458333333311,
                    "velocity": 0.5905511811023622,
                    "duration": 0.04374999999998863
                },
                {
                    "name": "B4",
                    "midi": 71,
                    "time": 179.96874999999773,
                    "velocity": 0.6456692913385826,
                    "duration": 0.04166666666665719
                },
                {
                    "name": "E5",
                    "midi": 76,
                    "time": 179.9854166666644,
                    "velocity": 0.4251968503937008,
                    "duration": 0.07083333333332575
                },
                {
                    "name": "D5",
                    "midi": 74,
                    "time": 179.98749999999774,
                    "velocity": 0.5275590551181102,
                    "duration": 0.052083333333314386
                },
                {
                    "name": "B3",
                    "midi": 59,
                    "time": 179.9979166666644,
                    "velocity": 0.2440944881889764,
                    "duration": 0.07083333333332575
                },
                {
                    "name": "G#5",
                    "midi": 80,
                    "time": 180.05624999999773,
                    "velocity": 0.5433070866141733,
                    "duration": 0.12708333333333144
                },
                {
                    "name": "B5",
                    "midi": 83,
                    "time": 180.1479166666644,
                    "velocity": 0.7244094488188977,
                    "duration": 0.10833333333332007
                },
                {
                    "name": "E6",
                    "midi": 88,
                    "time": 180.21249999999773,
                    "velocity": 0.5039370078740157,
                    "duration": 0.04374999999998863
                },
                {
                    "name": "D6",
                    "midi": 86,
                    "time": 180.38333333333105,
                    "velocity": 0.8031496062992126,
                    "duration": 0.03541666666666288
                },
                {
                    "name": "G#5",
                    "midi": 80,
                    "time": 180.38958333333105,
                    "velocity": 0.7480314960629921,
                    "duration": 0.13749999999998863
                },
                {
                    "name": "D5",
                    "midi": 74,
                    "time": 180.39583333333104,
                    "velocity": 0.7165354330708661,
                    "duration": 0.03541666666666288
                },
                {
                    "name": "D#6",
                    "midi": 87,
                    "time": 180.47291666666436,
                    "velocity": 0.5433070866141733,
                    "duration": 0.1770833333333428
                },
                {
                    "name": "G#6",
                    "midi": 92,
                    "time": 180.57083333333102,
                    "velocity": 0.48031496062992124,
                    "duration": 0.10625000000001705
                },
                {
                    "name": "B6",
                    "midi": 95,
                    "time": 180.6499999999977,
                    "velocity": 0.3228346456692913,
                    "duration": 0.05833333333333712
                },
                {
                    "name": "B5",
                    "midi": 83,
                    "time": 180.77083333333104,
                    "velocity": 0.7007874015748031,
                    "duration": 0.04374999999998863
                },
                {
                    "name": "B4",
                    "midi": 71,
                    "time": 180.77083333333104,
                    "velocity": 0.49606299212598426,
                    "duration": 0.052083333333314386
                },
                {
                    "name": "E6",
                    "midi": 88,
                    "time": 180.7749999999977,
                    "velocity": 0.48031496062992124,
                    "duration": 0.14999999999994884
                },
                {
                    "name": "D6",
                    "midi": 86,
                    "time": 180.77708333333103,
                    "velocity": 0.6299212598425197,
                    "duration": 0.11249999999995453
                },
                {
                    "name": "A5",
                    "midi": 81,
                    "time": 180.78541666666436,
                    "velocity": 0.31496062992125984,
                    "duration": 0.06249999999997158
                },
                {
                    "name": "G#6",
                    "midi": 92,
                    "time": 180.83749999999768,
                    "velocity": 0.5354330708661418,
                    "duration": 0.15624999999997158
                },
                {
                    "name": "B6",
                    "midi": 95,
                    "time": 180.92291666666432,
                    "velocity": 0.5748031496062992,
                    "duration": 0.09999999999999432
                },
                {
                    "name": "E7",
                    "midi": 100,
                    "time": 180.99583333333098,
                    "velocity": 0.5984251968503937,
                    "duration": 0.03541666666666288
                },
                {
                    "name": "D#6",
                    "midi": 87,
                    "time": 181.1041666666643,
                    "velocity": 0.7007874015748031,
                    "duration": 0.09374999999997158
                },
                {
                    "name": "G#5",
                    "midi": 80,
                    "time": 181.10624999999763,
                    "velocity": 0.6377952755905512,
                    "duration": 0.22916666666662877
                },
                {
                    "name": "D6",
                    "midi": 86,
                    "time": 181.18124999999762,
                    "velocity": 0.7165354330708661,
                    "duration": 0.04791666666665151
                },
                {
                    "name": "E6",
                    "midi": 88,
                    "time": 181.18333333333095,
                    "velocity": 0.7007874015748031,
                    "duration": 0.03541666666666288
                },
                {
                    "name": "B6",
                    "midi": 95,
                    "time": 181.18541666666428,
                    "velocity": 0.6299212598425197,
                    "duration": 0.039583333333325754
                },
                {
                    "name": "B5",
                    "midi": 83,
                    "time": 181.27708333333092,
                    "velocity": 0.7795275590551181,
                    "duration": 0.039583333333325754
                },
                {
                    "name": "D6",
                    "midi": 86,
                    "time": 181.3374999999976,
                    "velocity": 0.5826771653543307,
                    "duration": 0.04166666666665719
                },
                {
                    "name": "E6",
                    "midi": 88,
                    "time": 181.34791666666425,
                    "velocity": 0.41732283464566927,
                    "duration": 0.04583333333332007
                },
                {
                    "name": "B6",
                    "midi": 95,
                    "time": 181.36249999999757,
                    "velocity": 0.14173228346456693,
                    "duration": 0.06458333333333144
                },
                {
                    "name": "D#5",
                    "midi": 75,
                    "time": 181.4520833333309,
                    "velocity": 0.6771653543307087,
                    "duration": 0.04583333333334849
                },
                {
                    "name": "G#4",
                    "midi": 68,
                    "time": 181.47499999999758,
                    "velocity": 0.5354330708661418,
                    "duration": 0.05208333333334281
                },
                {
                    "name": "D5",
                    "midi": 74,
                    "time": 181.52916666666425,
                    "velocity": 0.6850393700787402,
                    "duration": 0.039583333333325754
                },
                {
                    "name": "E5",
                    "midi": 76,
                    "time": 181.52916666666425,
                    "velocity": 0.5984251968503937,
                    "duration": 0.04166666666665719
                },
                {
                    "name": "B5",
                    "midi": 83,
                    "time": 181.53541666666425,
                    "velocity": 0.7165354330708661,
                    "duration": 0.039583333333325754
                },
                {
                    "name": "B4",
                    "midi": 71,
                    "time": 181.63541666666424,
                    "velocity": 0.6692913385826772,
                    "duration": 0.037499999999994316
                },
                {
                    "name": "D5",
                    "midi": 74,
                    "time": 181.6833333333309,
                    "velocity": 0.5826771653543307,
                    "duration": 0.0583333333333087
                },
                {
                    "name": "E5",
                    "midi": 76,
                    "time": 181.68541666666422,
                    "velocity": 0.4330708661417323,
                    "duration": 0.04374999999998863
                },
                {
                    "name": "G#3",
                    "midi": 56,
                    "time": 181.85624999999754,
                    "velocity": 0.5748031496062992,
                    "duration": 0.07083333333332575
                },
                {
                    "name": "A#3",
                    "midi": 58,
                    "time": 181.85833333333088,
                    "velocity": 0.31496062992125984,
                    "duration": 0.056250000000005684
                },
                {
                    "name": "E4",
                    "midi": 64,
                    "time": 181.91249999999755,
                    "velocity": 0.6850393700787402,
                    "duration": 0.09583333333330302
                },
                {
                    "name": "G#4",
                    "midi": 68,
                    "time": 181.92499999999754,
                    "velocity": 0.5905511811023622,
                    "duration": 0.14791666666664582
                },
                {
                    "name": "B4",
                    "midi": 71,
                    "time": 181.92708333333087,
                    "velocity": 0.2992125984251969,
                    "duration": 0.07499999999998863
                },
                {
                    "name": "D#4",
                    "midi": 63,
                    "time": 182.0187499999975,
                    "velocity": 0.6299212598425197,
                    "duration": 0.09999999999999432
                },
                {
                    "name": "D4",
                    "midi": 62,
                    "time": 182.1124999999975,
                    "velocity": 0.6299212598425197,
                    "duration": 0.06458333333333144
                },
                {
                    "name": "G#2",
                    "midi": 44,
                    "time": 182.21041666666417,
                    "velocity": 0.7086614173228346,
                    "duration": 0.15416666666664014
                },
                {
                    "name": "C#4",
                    "midi": 61,
                    "time": 182.2187499999975,
                    "velocity": 0.6141732283464567,
                    "duration": 0.11458333333331439
                },
                {
                    "name": "C4",
                    "midi": 60,
                    "time": 182.28958333333082,
                    "velocity": 0.6220472440944882,
                    "duration": 0.1354166666666572
                },
                {
                    "name": "B3",
                    "midi": 59,
                    "time": 182.3874999999975,
                    "velocity": 0.5826771653543307,
                    "duration": 0.12708333333333144
                },
                {
                    "name": "A#3",
                    "midi": 58,
                    "time": 182.4749999999975,
                    "velocity": 0.5905511811023622,
                    "duration": 0.056250000000005684
                },
                {
                    "name": "G#1",
                    "midi": 32,
                    "time": 182.57291666666416,
                    "velocity": 0.7322834645669292,
                    "duration": 0.15208333333333712
                },
                {
                    "name": "B3",
                    "midi": 59,
                    "time": 182.6624999999975,
                    "velocity": 0.5826771653543307,
                    "duration": 0.10416666666665719
                },
                {
                    "name": "E3",
                    "midi": 52,
                    "time": 182.6624999999975,
                    "velocity": 0.7007874015748031,
                    "duration": 0.07291666666665719
                },
                {
                    "name": "G#3",
                    "midi": 56,
                    "time": 182.68541666666417,
                    "velocity": 0.5748031496062992,
                    "duration": 0.16458333333329733
                },
                {
                    "name": "D#3",
                    "midi": 51,
                    "time": 182.77499999999748,
                    "velocity": 0.6377952755905512,
                    "duration": 0.11249999999998295
                },
                {
                    "name": "D3",
                    "midi": 50,
                    "time": 182.86249999999745,
                    "velocity": 0.6614173228346457,
                    "duration": 0.12708333333335986
                },
                {
                    "name": "A0",
                    "midi": 21,
                    "time": 182.94374999999746,
                    "velocity": 0.7637795275590551,
                    "duration": 0.11875000000000568
                },
                {
                    "name": "C#3",
                    "midi": 49,
                    "time": 182.96874999999747,
                    "velocity": 0.6614173228346457,
                    "duration": 0.1354166666666572
                },
                {
                    "name": "C3",
                    "midi": 48,
                    "time": 183.06041666666414,
                    "velocity": 0.5669291338582677,
                    "duration": 0.15624999999997158
                },
                {
                    "name": "B2",
                    "midi": 47,
                    "time": 183.14791666666412,
                    "velocity": 0.6141732283464567,
                    "duration": 0.12708333333333144
                },
                {
                    "name": "A#2",
                    "midi": 46,
                    "time": 183.25208333333077,
                    "velocity": 0.5433070866141733,
                    "duration": 0.04791666666667993
                },
                {
                    "name": "G#2",
                    "midi": 44,
                    "time": 183.54374999999746,
                    "velocity": 0.41732283464566927,
                    "duration": 0.20624999999998295
                },
                {
                    "name": "C#4",
                    "midi": 61,
                    "time": 183.56874999999746,
                    "velocity": 0.5275590551181102,
                    "duration": 0.4999999999999716
                },
                {
                    "name": "F#4",
                    "midi": 66,
                    "time": 183.56874999999746,
                    "velocity": 0.5275590551181102,
                    "duration": 0.5541666666666458
                },
                {
                    "name": "C#3",
                    "midi": 49,
                    "time": 183.70624999999745,
                    "velocity": 0.30708661417322836,
                    "duration": 0.14999999999997726
                },
                {
                    "name": "F#3",
                    "midi": 54,
                    "time": 183.83333333333076,
                    "velocity": 0.3858267716535433,
                    "duration": 0.12291666666666856
                },
                {
                    "name": "A#3",
                    "midi": 58,
                    "time": 183.91458333333077,
                    "velocity": 0.33070866141732286,
                    "duration": 0.10208333333332575
                },
                {
                    "name": "G#4",
                    "midi": 68,
                    "time": 184.03749999999744,
                    "velocity": 0.6062992125984252,
                    "duration": 0.4541666666666515
                },
                {
                    "name": "D#4",
                    "midi": 63,
                    "time": 184.05208333333076,
                    "velocity": 0.49606299212598426,
                    "duration": 0.22083333333335986
                },
                {
                    "name": "C4",
                    "midi": 60,
                    "time": 184.1291666666641,
                    "velocity": 0.36220472440944884,
                    "duration": 0.11458333333334281
                },
                {
                    "name": "G#3",
                    "midi": 56,
                    "time": 184.21874999999744,
                    "velocity": 0.47244094488188976,
                    "duration": 0.12083333333333712
                },
                {
                    "name": "D#3",
                    "midi": 51,
                    "time": 184.30208333333078,
                    "velocity": 0.4015748031496063,
                    "duration": 0.0625
                },
                {
                    "name": "G#2",
                    "midi": 44,
                    "time": 184.42708333333078,
                    "velocity": 0.5669291338582677,
                    "duration": 0.07083333333329733
                },
                {
                    "name": "F4",
                    "midi": 65,
                    "time": 184.4416666666641,
                    "velocity": 0.6850393700787402,
                    "duration": 0.2833333333332746
                },
                {
                    "name": "C4",
                    "midi": 60,
                    "time": 184.45624999999742,
                    "velocity": 0.5354330708661418,
                    "duration": 0.17916666666664582
                },
                {
                    "name": "F3",
                    "midi": 53,
                    "time": 184.5124999999974,
                    "velocity": 0.7322834645669292,
                    "duration": 0.12708333333333144
                },
                {
                    "name": "A#3",
                    "midi": 58,
                    "time": 184.6499999999974,
                    "velocity": 0.33070866141732286,
                    "duration": 0.14583333333331439
                },
                {
                    "name": "D4",
                    "midi": 62,
                    "time": 184.71874999999739,
                    "velocity": 0.5826771653543307,
                    "duration": 0.052083333333314386
                },
                {
                    "name": "G#3",
                    "midi": 56,
                    "time": 184.83124999999737,
                    "velocity": 0.4645669291338583,
                    "duration": 0.15416666666666856
                },
                {
                    "name": "C5",
                    "midi": 72,
                    "time": 184.8520833333307,
                    "velocity": 0.6220472440944882,
                    "duration": 0.1354166666666572
                },
                {
                    "name": "D#3",
                    "midi": 51,
                    "time": 184.85624999999737,
                    "velocity": 0.4094488188976378,
                    "duration": 0.13749999999998863
                },
                {
                    "name": "F4",
                    "midi": 65,
                    "time": 184.86874999999736,
                    "velocity": 0.49606299212598426,
                    "duration": 0.05000000000001137
                },
                {
                    "name": "C4",
                    "midi": 60,
                    "time": 184.95416666666404,
                    "velocity": 0.5275590551181102,
                    "duration": 0.13958333333332007
                },
                {
                    "name": "F4",
                    "midi": 65,
                    "time": 185.0458333333307,
                    "velocity": 0.5511811023622047,
                    "duration": 0.04583333333332007
                },
                {
                    "name": "F3",
                    "midi": 53,
                    "time": 185.05624999999736,
                    "velocity": 0.6377952755905512,
                    "duration": 0.07291666666665719
                },
                {
                    "name": "A#3",
                    "midi": 58,
                    "time": 185.0770833333307,
                    "velocity": 0.36220472440944884,
                    "duration": 0.11249999999995453
                },
                {
                    "name": "D4",
                    "midi": 62,
                    "time": 185.17499999999734,
                    "velocity": 0.4645669291338583,
                    "duration": 0.052083333333314386
                },
                {
                    "name": "G3",
                    "midi": 55,
                    "time": 185.28333333333063,
                    "velocity": 0.5039370078740157,
                    "duration": 0.18749999999997158
                },
                {
                    "name": "C4",
                    "midi": 60,
                    "time": 185.32083333333063,
                    "velocity": 0.3228346456692913,
                    "duration": 0.12499999999997158
                },
                {
                    "name": "E4",
                    "midi": 64,
                    "time": 185.36041666666395,
                    "velocity": 0.5039370078740157,
                    "duration": 0.04583333333332007
                },
                {
                    "name": "C6",
                    "midi": 84,
                    "time": 185.36874999999728,
                    "velocity": 0.7401574803149606,
                    "duration": 0.3604166666666515
                },
                {
                    "name": "G5",
                    "midi": 79,
                    "time": 185.52499999999728,
                    "velocity": 0.44881889763779526,
                    "duration": 0.22291666666663446
                },
                {
                    "name": "E5",
                    "midi": 76,
                    "time": 185.63958333333062,
                    "velocity": 0.29133858267716534,
                    "duration": 0.13541666666662877
                },
                {
                    "name": "G#2",
                    "midi": 44,
                    "time": 185.66666666666396,
                    "velocity": 0.5039370078740157,
                    "duration": 0.04791666666665151
                },
                {
                    "name": "G#1",
                    "midi": 32,
                    "time": 185.66666666666396,
                    "velocity": 0.5433070866141733,
                    "duration": 0.04166666666665719
                },
                {
                    "name": "C5",
                    "midi": 72,
                    "time": 185.74374999999725,
                    "velocity": 0.41732283464566927,
                    "duration": 0.054166666666674246
                },
                {
                    "name": "D6",
                    "midi": 86,
                    "time": 185.87916666666393,
                    "velocity": 0.7401574803149606,
                    "duration": 0.29791666666667993
                },
                {
                    "name": "A5",
                    "midi": 81,
                    "time": 186.05208333333061,
                    "velocity": 0.3700787401574803,
                    "duration": 0.15208333333333712
                },
                {
                    "name": "F#4",
                    "midi": 66,
                    "time": 186.11249999999728,
                    "velocity": 0.4881889763779528,
                    "duration": 0.24791666666664014
                },
                {
                    "name": "F#5",
                    "midi": 78,
                    "time": 186.13541666666396,
                    "velocity": 0.48031496062992124,
                    "duration": 0.12291666666664014
                },
                {
                    "name": "A3",
                    "midi": 57,
                    "time": 186.14166666666395,
                    "velocity": 0.25984251968503935,
                    "duration": 0.31666666666663446
                },
                {
                    "name": "D4",
                    "midi": 62,
                    "time": 186.14583333333061,
                    "velocity": 0.4094488188976378,
                    "duration": 0.05833333333333712
                },
                {
                    "name": "D5",
                    "midi": 74,
                    "time": 186.2458333333306,
                    "velocity": 0.41732283464566927,
                    "duration": 0.04791666666665151
                },
                {
                    "name": "B5",
                    "midi": 83,
                    "time": 186.34791666666393,
                    "velocity": 0.889763779527559,
                    "duration": 0.22916666666662877
                },
                {
                    "name": "F#5",
                    "midi": 78,
                    "time": 186.49583333333058,
                    "velocity": 0.3937007874015748,
                    "duration": 0.14999999999997726
                },
                {
                    "name": "G#4",
                    "midi": 68,
                    "time": 186.5666666666639,
                    "velocity": 0.5118110236220472,
                    "duration": 0.14374999999998295
                },
                {
                    "name": "D5",
                    "midi": 74,
                    "time": 186.5979166666639,
                    "velocity": 0.41732283464566927,
                    "duration": 0.06874999999999432
                },
                {
                    "name": "B3",
                    "midi": 59,
                    "time": 186.61249999999723,
                    "velocity": 0.3464566929133858,
                    "duration": 0.09791666666666288
                },
                {
                    "name": "E4",
                    "midi": 64,
                    "time": 186.61249999999723,
                    "velocity": 0.4409448818897638,
                    "duration": 0.07708333333334849
                },
                {
                    "name": "B4",
                    "midi": 71,
                    "time": 186.6979166666639,
                    "velocity": 0.4094488188976378,
                    "duration": 0.06041666666666856
                },
                {
                    "name": "F#4",
                    "midi": 66,
                    "time": 186.78333333333057,
                    "velocity": 0.5669291338582677,
                    "duration": 0.14374999999995453
                },
                {
                    "name": "A3",
                    "midi": 57,
                    "time": 186.7979166666639,
                    "velocity": 0.4566929133858268,
                    "duration": 0.10833333333332007
                },
                {
                    "name": "F#5",
                    "midi": 78,
                    "time": 186.7979166666639,
                    "velocity": 0.5669291338582677,
                    "duration": 0.18749999999994316
                },
                {
                    "name": "D4",
                    "midi": 62,
                    "time": 186.81041666666388,
                    "velocity": 0.5039370078740157,
                    "duration": 0.1312499999999659
                },
                {
                    "name": "D5",
                    "midi": 74,
                    "time": 186.92083333333053,
                    "velocity": 0.3779527559055118,
                    "duration": 0.11041666666665151
                },
                {
                    "name": "G#4",
                    "midi": 68,
                    "time": 187.00624999999718,
                    "velocity": 0.6062992125984252,
                    "duration": 0.14166666666667993
                },
                {
                    "name": "C#5",
                    "midi": 73,
                    "time": 187.01249999999717,
                    "velocity": 0.4015748031496063,
                    "duration": 0.04583333333332007
                },
                {
                    "name": "E4",
                    "midi": 64,
                    "time": 187.0458333333305,
                    "velocity": 0.3858267716535433,
                    "duration": 0.0625
                },
                {
                    "name": "B3",
                    "midi": 59,
                    "time": 187.04791666666384,
                    "velocity": 0.36220472440944884,
                    "duration": 0.08333333333334281
                },
                {
                    "name": "B4",
                    "midi": 71,
                    "time": 187.05416666666383,
                    "velocity": 0.4094488188976378,
                    "duration": 0.06041666666666856
                },
                {
                    "name": "G#3",
                    "midi": 56,
                    "time": 187.2124999999972,
                    "velocity": 0.48031496062992124,
                    "duration": 0.19166666666666288
                },
                {
                    "name": "C#6",
                    "midi": 85,
                    "time": 187.22499999999718,
                    "velocity": 0.7165354330708661,
                    "duration": 0.5479166666666515
                },
                {
                    "name": "F#5",
                    "midi": 78,
                    "time": 187.2270833333305,
                    "velocity": 0.6535433070866141,
                    "duration": 0.5124999999999886
                },
                {
                    "name": "C#4",
                    "midi": 61,
                    "time": 187.37916666666385,
                    "velocity": 0.4881889763779528,
                    "duration": 0.17500000000001137
                },
                {
                    "name": "F#4",
                    "midi": 66,
                    "time": 187.4624999999972,
                    "velocity": 0.33070866141732286,
                    "duration": 0.16458333333332575
                },
                {
                    "name": "A#4",
                    "midi": 70,
                    "time": 187.54791666666387,
                    "velocity": 0.44881889763779526,
                    "duration": 0.1354166666666572
                },
                {
                    "name": "D#6",
                    "midi": 87,
                    "time": 187.69166666666385,
                    "velocity": 0.6771653543307087,
                    "duration": 0.27916666666666856
                },
                {
                    "name": "G#5",
                    "midi": 80,
                    "time": 187.7020833333305,
                    "velocity": 0.6220472440944882,
                    "duration": 0.35833333333332007
                },
                {
                    "name": "C5",
                    "midi": 72,
                    "time": 187.80416666666383,
                    "velocity": 0.4094488188976378,
                    "duration": 0.13333333333335418
                },
                {
                    "name": "G#4",
                    "midi": 68,
                    "time": 187.91666666666384,
                    "velocity": 0.4409448818897638,
                    "duration": 0.13333333333332575
                },
                {
                    "name": "D#4",
                    "midi": 63,
                    "time": 188.01041666666384,
                    "velocity": 0.3858267716535433,
                    "duration": 0.06249999999997158
                },
                {
                    "name": "G#5",
                    "midi": 80,
                    "time": 188.1541666666638,
                    "velocity": 0.4251968503937008,
                    "duration": 0.7166666666666117
                },
                {
                    "name": "G5",
                    "midi": 79,
                    "time": 188.1604166666638,
                    "velocity": 0.7165354330708661,
                    "duration": 0.4541666666666231
                },
                {
                    "name": "C6",
                    "midi": 84,
                    "time": 188.16249999999712,
                    "velocity": 0.7244094488188977,
                    "duration": 0.9979166666665833
                },
                {
                    "name": "G#3",
                    "midi": 56,
                    "time": 188.17708333333044,
                    "velocity": 0.5039370078740157,
                    "duration": 0.07083333333332575
                },
                {
                    "name": "F4",
                    "midi": 65,
                    "time": 188.30624999999708,
                    "velocity": 0.28346456692913385,
                    "duration": 0.12708333333333144
                },
                {
                    "name": "A#4",
                    "midi": 70,
                    "time": 188.43124999999708,
                    "velocity": 0.3228346456692913,
                    "duration": 0.09999999999999432
                },
                {
                    "name": "D5",
                    "midi": 74,
                    "time": 188.54166666666373,
                    "velocity": 0.4330708661417323,
                    "duration": 0.056250000000005684
                },
                {
                    "name": "G#4",
                    "midi": 68,
                    "time": 188.7208333333304,
                    "velocity": 0.3858267716535433,
                    "duration": 0.15625
                },
                {
                    "name": "F5",
                    "midi": 77,
                    "time": 188.7270833333304,
                    "velocity": 0.6377952755905512,
                    "duration": 0.11041666666667993
                },
                {
                    "name": "D#4",
                    "midi": 63,
                    "time": 188.7583333333304,
                    "velocity": 0.3228346456692913,
                    "duration": 0.09583333333335986
                },
                {
                    "name": "C5",
                    "midi": 72,
                    "time": 188.86458333333042,
                    "velocity": 0.2677165354330709,
                    "duration": 0.07291666666665719
                },
                {
                    "name": "A#4",
                    "midi": 70,
                    "time": 188.96041666666375,
                    "velocity": 0.2283464566929134,
                    "duration": 0.09375
                },
                {
                    "name": "C5",
                    "midi": 72,
                    "time": 188.99374999999708,
                    "velocity": 0.6850393700787402,
                    "duration": 0.10624999999998863
                },
                {
                    "name": "F4",
                    "midi": 65,
                    "time": 189.01458333333042,
                    "velocity": 0.1889763779527559,
                    "duration": 0.07708333333332007
                },
                {
                    "name": "D5",
                    "midi": 74,
                    "time": 189.1145833333304,
                    "velocity": 0.3779527559055118,
                    "duration": 0.052083333333314386
                },
                {
                    "name": "C#4",
                    "midi": 61,
                    "time": 189.2479166666637,
                    "velocity": 0.3779527559055118,
                    "duration": 0.3395833333333371
                },
                {
                    "name": "F#4",
                    "midi": 66,
                    "time": 189.2708333333304,
                    "velocity": 0.2047244094488189,
                    "duration": 0.28125
                },
                {
                    "name": "A#4",
                    "midi": 70,
                    "time": 189.38541666666373,
                    "velocity": 0.41732283464566927,
                    "duration": 0.11666666666664582
                },
                {
                    "name": "F#6",
                    "midi": 90,
                    "time": 189.41874999999706,
                    "velocity": 0.6614173228346457,
                    "duration": 0.6083333333333201
                },
                {
                    "name": "C#6",
                    "midi": 85,
                    "time": 189.6604166666637,
                    "velocity": 0.4251968503937008,
                    "duration": 0.23124999999998863
                },
                {
                    "name": "A#5",
                    "midi": 82,
                    "time": 189.8166666666637,
                    "velocity": 0.4094488188976378,
                    "duration": 0.21666666666666856
                },
                {
                    "name": "G#1",
                    "midi": 32,
                    "time": 189.82708333333036,
                    "velocity": 0.36220472440944884,
                    "duration": 0.07083333333332575
                },
                {
                    "name": "G#2",
                    "midi": 44,
                    "time": 189.83333333333036,
                    "velocity": 0.28346456692913385,
                    "duration": 0.11666666666667425
                },
                {
                    "name": "F#5",
                    "midi": 78,
                    "time": 189.9729166666637,
                    "velocity": 0.4566929133858268,
                    "duration": 0.06041666666666856
                },
                {
                    "name": "G#6",
                    "midi": 92,
                    "time": 190.1458333333304,
                    "velocity": 0.5748031496062992,
                    "duration": 0.6666666666666288
                },
                {
                    "name": "D#6",
                    "midi": 87,
                    "time": 190.34374999999704,
                    "velocity": 0.29133858267716534,
                    "duration": 0.1979166666666572
                },
                {
                    "name": "C5",
                    "midi": 72,
                    "time": 190.51874999999706,
                    "velocity": 0.33070866141732286,
                    "duration": 0.35208333333329733
                },
                {
                    "name": "C6",
                    "midi": 84,
                    "time": 190.52291666666372,
                    "velocity": 0.4645669291338583,
                    "duration": 0.19166666666663446
                },
                {
                    "name": "D#4",
                    "midi": 63,
                    "time": 190.52708333333038,
                    "velocity": 0.2992125984251969,
                    "duration": 0.3333333333333144
                },
                {
                    "name": "G#4",
                    "midi": 68,
                    "time": 190.5291666666637,
                    "velocity": 0.2047244094488189,
                    "duration": 0.345833333333303
                },
                {
                    "name": "G#5",
                    "midi": 80,
                    "time": 190.70624999999703,
                    "velocity": 0.3858267716535433,
                    "duration": 0.06041666666666856
                },
                {
                    "name": "A6",
                    "midi": 93,
                    "time": 190.92708333333036,
                    "velocity": 0.4015748031496063,
                    "duration": 0.5687499999999943
                },
                {
                    "name": "E6",
                    "midi": 88,
                    "time": 191.15416666666368,
                    "velocity": 0.29133858267716534,
                    "duration": 0.34375
                },
                {
                    "name": "C#6",
                    "midi": 85,
                    "time": 191.35833333333036,
                    "velocity": 0.30708661417322836,
                    "duration": 0.2041666666666515
                },
                {
                    "name": "C#5",
                    "midi": 73,
                    "time": 191.37291666666368,
                    "velocity": 0.2204724409448819,
                    "duration": 0.7354166666666799
                },
                {
                    "name": "A4",
                    "midi": 69,
                    "time": 191.40208333333035,
                    "velocity": 0.11811023622047244,
                    "duration": 0.6791666666666742
                },
                {
                    "name": "E4",
                    "midi": 64,
                    "time": 191.412499999997,
                    "velocity": 0.18110236220472442,
                    "duration": 0.6666666666666856
                },
                {
                    "name": "A5",
                    "midi": 81,
                    "time": 191.63541666666367,
                    "velocity": 0.023622047244094488,
                    "duration": 0.08541666666667425
                },
                {
                    "name": "G5",
                    "midi": 79,
                    "time": 191.637499999997,
                    "velocity": 0.15748031496062992,
                    "duration": 0.08333333333334281
                },
                {
                    "name": "B6",
                    "midi": 95,
                    "time": 191.93541666666368,
                    "velocity": 0.3464566929133858,
                    "duration": 0.3270833333333485
                },
                {
                    "name": "F#6",
                    "midi": 90,
                    "time": 191.95833333333036,
                    "velocity": 0.2204724409448819,
                    "duration": 0.10416666666665719
                },
                {
                    "name": "D#5",
                    "midi": 75,
                    "time": 192.60624999999703,
                    "velocity": 0.18110236220472442,
                    "duration": 0.22083333333333144
                },
                {
                    "name": "B5",
                    "midi": 83,
                    "time": 192.60624999999703,
                    "velocity": 0.3464566929133858,
                    "duration": 0.2666666666666515
                },
                {
                    "name": "A5",
                    "midi": 81,
                    "time": 192.60833333333036,
                    "velocity": 0.2204724409448819,
                    "duration": 0.39374999999998295
                },
                {
                    "name": "F#4",
                    "midi": 66,
                    "time": 192.6166666666637,
                    "velocity": 0.12598425196850394,
                    "duration": 0.32499999999998863
                },
                {
                    "name": "B4",
                    "midi": 71,
                    "time": 192.6416666666637,
                    "velocity": 0.18110236220472442,
                    "duration": 0.1770833333333428
                },
                {
                    "name": "G#2",
                    "midi": 44,
                    "time": 193.77916666666368,
                    "velocity": 0.1889763779527559,
                    "duration": 0.21875
                },
                {
                    "name": "D#5",
                    "midi": 75,
                    "time": 193.78958333333034,
                    "velocity": 0.25196850393700787,
                    "duration": 0.34375
                },
                {
                    "name": "G#5",
                    "midi": 80,
                    "time": 194.131249999997,
                    "velocity": 0.2204724409448819,
                    "duration": 0.18541666666666856
                },
                {
                    "name": "D#6",
                    "midi": 87,
                    "time": 194.412499999997,
                    "velocity": 0.14173228346456693,
                    "duration": 0.24166666666670267
                },
                {
                    "name": "B4",
                    "midi": 71,
                    "time": 194.43541666666368,
                    "velocity": 0.2047244094488189,
                    "duration": 0.1291666666666913
                },
                {
                    "name": "E4",
                    "midi": 64,
                    "time": 194.43541666666368,
                    "velocity": 0.18110236220472442,
                    "duration": 0.07916666666667993
                },
                {
                    "name": "F#6",
                    "midi": 90,
                    "time": 194.67291666666372,
                    "velocity": 0.23622047244094488,
                    "duration": 0.2541666666666913
                },
                {
                    "name": "D#6",
                    "midi": 87,
                    "time": 194.9083333333304,
                    "velocity": 0.2992125984251969,
                    "duration": 0.21666666666666856
                },
                {
                    "name": "E5",
                    "midi": 76,
                    "time": 194.92499999999708,
                    "velocity": 0.2440944881889764,
                    "duration": 0.07291666666665719
                },
                {
                    "name": "B5",
                    "midi": 83,
                    "time": 194.92499999999708,
                    "velocity": 0.4566929133858268,
                    "duration": 0.09375
                },
                {
                    "name": "G#5",
                    "midi": 80,
                    "time": 195.16041666666374,
                    "velocity": 0.25984251968503935,
                    "duration": 0.07708333333332007
                },
                {
                    "name": "C#5",
                    "midi": 73,
                    "time": 195.3645833333304,
                    "velocity": 0.3464566929133858,
                    "duration": 0.07708333333332007
                },
                {
                    "name": "E5",
                    "midi": 76,
                    "time": 195.3645833333304,
                    "velocity": 0.18110236220472442,
                    "duration": 0.06874999999999432
                },
                {
                    "name": "A4",
                    "midi": 69,
                    "time": 195.36874999999705,
                    "velocity": 0.14960629921259844,
                    "duration": 0.11249999999998295
                },
                {
                    "name": "G#5",
                    "midi": 80,
                    "time": 195.4791666666637,
                    "velocity": 0.3937007874015748,
                    "duration": 0.07083333333332575
                },
                {
                    "name": "C#6",
                    "midi": 85,
                    "time": 195.5854166666637,
                    "velocity": 0.3779527559055118,
                    "duration": 0.15208333333333712
                },
                {
                    "name": "E6",
                    "midi": 88,
                    "time": 195.69999999999703,
                    "velocity": 0.41732283464566927,
                    "duration": 0.08958333333333712
                },
                {
                    "name": "D#5",
                    "midi": 75,
                    "time": 195.84374999999704,
                    "velocity": 0.3937007874015748,
                    "duration": 0.18541666666666856
                },
                {
                    "name": "G#2",
                    "midi": 44,
                    "time": 195.8541666666637,
                    "velocity": 0.3937007874015748,
                    "duration": 0.08750000000000568
                },
                {
                    "name": "G#5",
                    "midi": 80,
                    "time": 196.08541666666372,
                    "velocity": 0.36220472440944884,
                    "duration": 0.16249999999999432
                },
                {
                    "name": "D#6",
                    "midi": 87,
                    "time": 196.29791666666372,
                    "velocity": 0.31496062992125984,
                    "duration": 0.22083333333335986
                },
                {
                    "name": "B4",
                    "midi": 71,
                    "time": 196.31874999999707,
                    "velocity": 0.31496062992125984,
                    "duration": 0.0625
                },
                {
                    "name": "E4",
                    "midi": 64,
                    "time": 196.33749999999708,
                    "velocity": 0.2283464566929134,
                    "duration": 0.0625
                },
                {
                    "name": "F#6",
                    "midi": 90,
                    "time": 196.51666666666375,
                    "velocity": 0.4330708661417323,
                    "duration": 0.23124999999998863
                },
                {
                    "name": "D#6",
                    "midi": 87,
                    "time": 196.73541666666375,
                    "velocity": 0.4251968503937008,
                    "duration": 0.22708333333329733
                },
                {
                    "name": "B5",
                    "midi": 83,
                    "time": 196.73958333333042,
                    "velocity": 0.5433070866141733,
                    "duration": 0.07083333333332575
                },
                {
                    "name": "E5",
                    "midi": 76,
                    "time": 196.76249999999706,
                    "velocity": 0.30708661417322836,
                    "duration": 0.06041666666666856
                },
                {
                    "name": "G#5",
                    "midi": 80,
                    "time": 196.97499999999704,
                    "velocity": 0.3937007874015748,
                    "duration": 0.09583333333333144
                },
                {
                    "name": "C#5",
                    "midi": 73,
                    "time": 197.16458333333037,
                    "velocity": 0.4251968503937008,
                    "duration": 0.08541666666667425
                },
                {
                    "name": "E5",
                    "midi": 76,
                    "time": 197.17083333333036,
                    "velocity": 0.33070866141732286,
                    "duration": 0.054166666666674246
                },
                {
                    "name": "A4",
                    "midi": 69,
                    "time": 197.17708333333036,
                    "velocity": 0.2125984251968504,
                    "duration": 0.0666666666666913
                },
                {
                    "name": "G#5",
                    "midi": 80,
                    "time": 197.26874999999706,
                    "velocity": 0.3858267716535433,
                    "duration": 0.07083333333332575
                },
                {
                    "name": "C#6",
                    "midi": 85,
                    "time": 197.35208333333037,
                    "velocity": 0.4566929133858268,
                    "duration": 0.1458333333333428
                },
                {
                    "name": "E6",
                    "midi": 88,
                    "time": 197.46874999999704,
                    "velocity": 0.4251968503937008,
                    "duration": 0.10208333333332575
                },
                {
                    "name": "D#5",
                    "midi": 75,
                    "time": 197.57708333333036,
                    "velocity": 0.5118110236220472,
                    "duration": 0.23125000000001705
                },
                {
                    "name": "G#2",
                    "midi": 44,
                    "time": 197.57708333333036,
                    "velocity": 0.5118110236220472,
                    "duration": 0.05000000000001137
                },
                {
                    "name": "G#5",
                    "midi": 80,
                    "time": 197.7916666666637,
                    "velocity": 0.5039370078740157,
                    "duration": 0.17500000000001137
                },
                {
                    "name": "B4",
                    "midi": 71,
                    "time": 197.9979166666637,
                    "velocity": 0.4094488188976378,
                    "duration": 0.05624999999997726
                },
                {
                    "name": "D#6",
                    "midi": 87,
                    "time": 197.9979166666637,
                    "velocity": 0.4251968503937008,
                    "duration": 0.21249999999994884
                },
                {
                    "name": "E4",
                    "midi": 64,
                    "time": 198.01249999999703,
                    "velocity": 0.33070866141732286,
                    "duration": 0.08749999999997726
                },
                {
                    "name": "F#6",
                    "midi": 90,
                    "time": 198.20208333333034,
                    "velocity": 0.4409448818897638,
                    "duration": 0.19583333333332575
                },
                {
                    "name": "G#5",
                    "midi": 80,
                    "time": 198.406249999997,
                    "velocity": 0.5039370078740157,
                    "duration": 0.1416666666666515
                },
                {
                    "name": "E5",
                    "midi": 76,
                    "time": 198.4145833333303,
                    "velocity": 0.3779527559055118,
                    "duration": 0.06874999999999432
                },
                {
                    "name": "B4",
                    "midi": 71,
                    "time": 198.42499999999697,
                    "velocity": 0.3937007874015748,
                    "duration": 0.054166666666674246
                },
                {
                    "name": "D#6",
                    "midi": 87,
                    "time": 198.6208333333303,
                    "velocity": 0.4330708661417323,
                    "duration": 0.19583333333332575
                },
                {
                    "name": "G#6",
                    "midi": 92,
                    "time": 198.85416666666362,
                    "velocity": 0.3228346456692913,
                    "duration": 0.37291666666664014
                },
                {
                    "name": "B5",
                    "midi": 83,
                    "time": 198.85624999999695,
                    "velocity": 0.5669291338582677,
                    "duration": 0.04374999999998863
                },
                {
                    "name": "E5",
                    "midi": 76,
                    "time": 198.87083333333027,
                    "velocity": 0.23622047244094488,
                    "duration": 0.0625
                },
                {
                    "name": "B6",
                    "midi": 95,
                    "time": 199.13124999999692,
                    "velocity": 0.4015748031496063,
                    "duration": 0.056250000000005684
                },
                {
                    "name": "G#2",
                    "midi": 44,
                    "time": 199.39374999999694,
                    "velocity": 0.41732283464566927,
                    "duration": 0.07916666666667993
                },
                {
                    "name": "G#5",
                    "midi": 80,
                    "time": 199.39583333333027,
                    "velocity": 0.4881889763779528,
                    "duration": 0.23541666666667993
                },
                {
                    "name": "G#1",
                    "midi": 32,
                    "time": 199.39999999999694,
                    "velocity": 0.3228346456692913,
                    "duration": 0.05208333333334281
                },
                {
                    "name": "C#6",
                    "midi": 85,
                    "time": 199.66874999999695,
                    "velocity": 0.44881889763779526,
                    "duration": 0.15000000000000568
                },
                {
                    "name": "G#6",
                    "midi": 92,
                    "time": 199.8770833333303,
                    "velocity": 0.4015748031496063,
                    "duration": 0.1875
                },
                {
                    "name": "A4",
                    "midi": 69,
                    "time": 199.8958333333303,
                    "velocity": 0.25984251968503935,
                    "duration": 0.06666666666666288
                },
                {
                    "name": "E5",
                    "midi": 76,
                    "time": 199.90416666666363,
                    "velocity": 0.25196850393700787,
                    "duration": 0.05833333333333712
                },
                {
                    "name": "C#7",
                    "midi": 97,
                    "time": 200.0791666666636,
                    "velocity": 0.4251968503937008,
                    "duration": 0.1458333333333428
                },
                {
                    "name": "E6",
                    "midi": 88,
                    "time": 200.27291666666363,
                    "velocity": 0.5275590551181102,
                    "duration": 0.04166666666665719
                },
                {
                    "name": "G#6",
                    "midi": 92,
                    "time": 200.27291666666363,
                    "velocity": 0.4409448818897638,
                    "duration": 0.20416666666667993
                },
                {
                    "name": "A5",
                    "midi": 81,
                    "time": 200.28749999999695,
                    "velocity": 0.48031496062992124,
                    "duration": 0.04583333333334849
                },
                {
                    "name": "C#6",
                    "midi": 85,
                    "time": 200.4770833333303,
                    "velocity": 0.5039370078740157,
                    "duration": 0.11250000000001137
                },
                {
                    "name": "D4",
                    "midi": 62,
                    "time": 200.643749999997,
                    "velocity": 0.2992125984251969,
                    "duration": 0.12916666666666288
                },
                {
                    "name": "F#4",
                    "midi": 66,
                    "time": 200.668749999997,
                    "velocity": 0.36220472440944884,
                    "duration": 0.15625
                },
                {
                    "name": "C5",
                    "midi": 72,
                    "time": 200.69791666666367,
                    "velocity": 0.48031496062992124,
                    "duration": 0.04374999999998863
                },
                {
                    "name": "F#5",
                    "midi": 78,
                    "time": 200.70416666666367,
                    "velocity": 0.5433070866141733,
                    "duration": 0.12083333333333712
                },
                {
                    "name": "C6",
                    "midi": 84,
                    "time": 200.80416666666366,
                    "velocity": 0.5354330708661418,
                    "duration": 0.13541666666668561
                },
                {
                    "name": "E6",
                    "midi": 88,
                    "time": 200.90624999999702,
                    "velocity": 0.5275590551181102,
                    "duration": 0.1354166666666572
                },
                {
                    "name": "G#6",
                    "midi": 92,
                    "time": 200.99791666666368,
                    "velocity": 0.3937007874015748,
                    "duration": 0.21666666666664014
                },
                {
                    "name": "G#2",
                    "midi": 44,
                    "time": 201.10833333333034,
                    "velocity": 0.5354330708661418,
                    "duration": 0.10416666666665719
                },
                {
                    "name": "G#5",
                    "midi": 80,
                    "time": 201.112499999997,
                    "velocity": 0.6771653543307087,
                    "duration": 0.2541666666666629
                },
                {
                    "name": "G#1",
                    "midi": 32,
                    "time": 201.11666666666366,
                    "velocity": 0.4881889763779528,
                    "duration": 0.05208333333334281
                },
                {
                    "name": "C#6",
                    "midi": 85,
                    "time": 201.37291666666366,
                    "velocity": 0.5748031496062992,
                    "duration": 0.19999999999998863
                },
                {
                    "name": "G#6",
                    "midi": 92,
                    "time": 201.57499999999698,
                    "velocity": 0.47244094488188976,
                    "duration": 0.21666666666664014
                },
                {
                    "name": "E5",
                    "midi": 76,
                    "time": 201.58749999999696,
                    "velocity": 0.4251968503937008,
                    "duration": 0.04583333333332007
                },
                {
                    "name": "A4",
                    "midi": 69,
                    "time": 201.58749999999696,
                    "velocity": 0.30708661417322836,
                    "duration": 0.06041666666664014
                },
                {
                    "name": "C#7",
                    "midi": 97,
                    "time": 201.77083333333027,
                    "velocity": 0.5354330708661418,
                    "duration": 0.13541666666668561
                },
                {
                    "name": "G#6",
                    "midi": 92,
                    "time": 201.94583333333028,
                    "velocity": 0.5275590551181102,
                    "duration": 0.23750000000001137
                },
                {
                    "name": "E6",
                    "midi": 88,
                    "time": 201.94791666666362,
                    "velocity": 0.5354330708661418,
                    "duration": 0.04375000000001705
                },
                {
                    "name": "A5",
                    "midi": 81,
                    "time": 201.97291666666362,
                    "velocity": 0.4330708661417323,
                    "duration": 0.05000000000001137
                },
                {
                    "name": "C#6",
                    "midi": 85,
                    "time": 202.1458333333303,
                    "velocity": 0.5748031496062992,
                    "duration": 0.12916666666666288
                },
                {
                    "name": "D4",
                    "midi": 62,
                    "time": 202.32083333333028,
                    "velocity": 0.30708661417322836,
                    "duration": 0.20625000000001137
                },
                {
                    "name": "F#4",
                    "midi": 66,
                    "time": 202.3395833333303,
                    "velocity": 0.36220472440944884,
                    "duration": 0.18541666666666856
                },
                {
                    "name": "C5",
                    "midi": 72,
                    "time": 202.39374999999697,
                    "velocity": 0.4251968503937008,
                    "duration": 0.04791666666665151
                },
                {
                    "name": "F#5",
                    "midi": 78,
                    "time": 202.39999999999696,
                    "velocity": 0.5275590551181102,
                    "duration": 0.125
                },
                {
                    "name": "C6",
                    "midi": 84,
                    "time": 202.50416666666362,
                    "velocity": 0.5590551181102362,
                    "duration": 0.13125000000002274
                },
                {
                    "name": "E6",
                    "midi": 88,
                    "time": 202.6083333333303,
                    "velocity": 0.5196850393700787,
                    "duration": 0.125
                },
                {
                    "name": "G#6",
                    "midi": 92,
                    "time": 202.6958333333303,
                    "velocity": 0.4330708661417323,
                    "duration": 0.18125000000000568
                },
                {
                    "name": "G#2",
                    "midi": 44,
                    "time": 202.81874999999698,
                    "velocity": 0.48031496062992124,
                    "duration": 0.09999999999999432
                },
                {
                    "name": "G#1",
                    "midi": 32,
                    "time": 202.82291666666364,
                    "velocity": 0.4566929133858268,
                    "duration": 0.06041666666666856
                },
                {
                    "name": "G#5",
                    "midi": 80,
                    "time": 202.96666666666366,
                    "velocity": 0.5669291338582677,
                    "duration": 0.11666666666667425
                },
                {
                    "name": "C#6",
                    "midi": 85,
                    "time": 203.10416666666367,
                    "velocity": 0.5511811023622047,
                    "duration": 0.08333333333334281
                },
                {
                    "name": "G#6",
                    "midi": 92,
                    "time": 203.23749999999703,
                    "velocity": 0.4645669291338583,
                    "duration": 0.14374999999998295
                },
                {
                    "name": "C#7",
                    "midi": 97,
                    "time": 203.36458333333036,
                    "velocity": 0.5590551181102362,
                    "duration": 0.10208333333332575
                },
                {
                    "name": "E6",
                    "midi": 88,
                    "time": 203.37916666666368,
                    "velocity": 0.5039370078740157,
                    "duration": 0.056250000000005684
                },
                {
                    "name": "A5",
                    "midi": 81,
                    "time": 203.40624999999702,
                    "velocity": 0.36220472440944884,
                    "duration": 0.06458333333333144
                },
                {
                    "name": "G#6",
                    "midi": 92,
                    "time": 203.4541666666637,
                    "velocity": 0.3858267716535433,
                    "duration": 0.16458333333332575
                },
                {
                    "name": "C#6",
                    "midi": 85,
                    "time": 203.58749999999702,
                    "velocity": 0.4094488188976378,
                    "duration": 0.0625
                },
                {
                    "name": "G#5",
                    "midi": 80,
                    "time": 203.66041666666368,
                    "velocity": 0.4645669291338583,
                    "duration": 0.054166666666674246
                },
                {
                    "name": "E5",
                    "midi": 76,
                    "time": 203.77708333333035,
                    "velocity": 0.44881889763779526,
                    "duration": 0.05833333333333712
                },
                {
                    "name": "A4",
                    "midi": 69,
                    "time": 203.78333333333035,
                    "velocity": 0.31496062992125984,
                    "duration": 0.09166666666666856
                },
                {
                    "name": "C#5",
                    "midi": 73,
                    "time": 203.87083333333035,
                    "velocity": 0.5196850393700787,
                    "duration": 0.08750000000000568
                },
                {
                    "name": "G#5",
                    "midi": 80,
                    "time": 203.96458333333035,
                    "velocity": 0.4330708661417323,
                    "duration": 0.0625
                },
                {
                    "name": "C#6",
                    "midi": 85,
                    "time": 204.06666666666368,
                    "velocity": 0.47244094488188976,
                    "duration": 0.05000000000001137
                },
                {
                    "name": "A5",
                    "midi": 81,
                    "time": 204.16041666666368,
                    "velocity": 0.4645669291338583,
                    "duration": 0.04999999999998295
                },
                {
                    "name": "G#6",
                    "midi": 92,
                    "time": 204.168749999997,
                    "velocity": 0.5275590551181102,
                    "duration": 0.04374999999998863
                },
                {
                    "name": "E5",
                    "midi": 76,
                    "time": 204.174999999997,
                    "velocity": 0.30708661417322836,
                    "duration": 0.04999999999998295
                },
                {
                    "name": "C#6",
                    "midi": 85,
                    "time": 204.274999999997,
                    "velocity": 0.3858267716535433,
                    "duration": 0.08125000000001137
                },
                {
                    "name": "G#5",
                    "midi": 80,
                    "time": 204.356249999997,
                    "velocity": 0.4566929133858268,
                    "duration": 0.05833333333333712
                },
                {
                    "name": "C#5",
                    "midi": 73,
                    "time": 204.42916666666366,
                    "velocity": 0.4566929133858268,
                    "duration": 0.054166666666674246
                },
                {
                    "name": "A4",
                    "midi": 69,
                    "time": 204.54583333333034,
                    "velocity": 0.3937007874015748,
                    "duration": 0.06458333333333144
                },
                {
                    "name": "E4",
                    "midi": 64,
                    "time": 204.556249999997,
                    "velocity": 0.4094488188976378,
                    "duration": 0.25625000000005116
                },
                {
                    "name": "G#4",
                    "midi": 68,
                    "time": 204.631249999997,
                    "velocity": 0.47244094488188976,
                    "duration": 0.054166666666674246
                },
                {
                    "name": "C#5",
                    "midi": 73,
                    "time": 204.7104166666637,
                    "velocity": 0.44881889763779526,
                    "duration": 0.05208333333334281
                },
                {
                    "name": "G#5",
                    "midi": 80,
                    "time": 204.81458333333038,
                    "velocity": 0.4330708661417323,
                    "duration": 0.05833333333333712
                },
                {
                    "name": "E5",
                    "midi": 76,
                    "time": 204.89791666666372,
                    "velocity": 0.4094488188976378,
                    "duration": 0.04583333333332007
                },
                {
                    "name": "A4",
                    "midi": 69,
                    "time": 204.89791666666372,
                    "velocity": 0.4015748031496063,
                    "duration": 0.07083333333332575
                },
                {
                    "name": "C#6",
                    "midi": 85,
                    "time": 204.90833333333038,
                    "velocity": 0.5433070866141733,
                    "duration": 0.06666666666666288
                },
                {
                    "name": "G#5",
                    "midi": 80,
                    "time": 204.99374999999705,
                    "velocity": 0.3937007874015748,
                    "duration": 0.11875000000000568
                },
                {
                    "name": "C#5",
                    "midi": 73,
                    "time": 205.08749999999705,
                    "velocity": 0.3464566929133858,
                    "duration": 0.0625
                },
                {
                    "name": "G#4",
                    "midi": 68,
                    "time": 205.14999999999705,
                    "velocity": 0.47244094488188976,
                    "duration": 0.054166666666674246
                },
                {
                    "name": "A3",
                    "midi": 57,
                    "time": 205.26666666666372,
                    "velocity": 0.4015748031496063,
                    "duration": 0.2333333333333485
                },
                {
                    "name": "E4",
                    "midi": 64,
                    "time": 205.26874999999706,
                    "velocity": 0.5039370078740157,
                    "duration": 0.05000000000001137
                },
                {
                    "name": "C#4",
                    "midi": 61,
                    "time": 205.36249999999706,
                    "velocity": 0.5039370078740157,
                    "duration": 0.05208333333334281
                },
                {
                    "name": "G#4",
                    "midi": 68,
                    "time": 205.43124999999708,
                    "velocity": 0.47244094488188976,
                    "duration": 0.07708333333332007
                },
                {
                    "name": "C#5",
                    "midi": 73,
                    "time": 205.5520833333304,
                    "velocity": 0.36220472440944884,
                    "duration": 0.054166666666674246
                },
                {
                    "name": "E4",
                    "midi": 64,
                    "time": 205.64166666666372,
                    "velocity": 0.4251968503937008,
                    "duration": 0.09375
                },
                {
                    "name": "A4",
                    "midi": 69,
                    "time": 205.6458333333304,
                    "velocity": 0.3779527559055118,
                    "duration": 0.06874999999999432
                },
                {
                    "name": "G#5",
                    "midi": 80,
                    "time": 205.6458333333304,
                    "velocity": 0.5984251968503937,
                    "duration": 0.03541666666666288
                },
                {
                    "name": "C#5",
                    "midi": 73,
                    "time": 205.7333333333304,
                    "velocity": 0.3464566929133858,
                    "duration": 0.06458333333333144
                },
                {
                    "name": "G#4",
                    "midi": 68,
                    "time": 205.79791666666372,
                    "velocity": 0.47244094488188976,
                    "duration": 0.05208333333334281
                },
                {
                    "name": "C#4",
                    "midi": 61,
                    "time": 205.89374999999706,
                    "velocity": 0.5039370078740157,
                    "duration": 0.05208333333334281
                },
                {
                    "name": "A3",
                    "midi": 57,
                    "time": 206.04374999999706,
                    "velocity": 0.3228346456692913,
                    "duration": 0.21666666666666856
                },
                {
                    "name": "E3",
                    "midi": 52,
                    "time": 206.0458333333304,
                    "velocity": 0.5590551181102362,
                    "duration": 0.24583333333333712
                },
                {
                    "name": "G#3",
                    "midi": 56,
                    "time": 206.17291666666372,
                    "velocity": 0.5039370078740157,
                    "duration": 0.07916666666667993
                },
                {
                    "name": "C#4",
                    "midi": 61,
                    "time": 206.2583333333304,
                    "velocity": 0.4645669291338583,
                    "duration": 0.07083333333332575
                },
                {
                    "name": "G#4",
                    "midi": 68,
                    "time": 206.3729166666637,
                    "velocity": 0.3228346456692913,
                    "duration": 0.07499999999998863
                },
                {
                    "name": "C#5",
                    "midi": 73,
                    "time": 206.47499999999704,
                    "velocity": 0.4409448818897638,
                    "duration": 0.05833333333333712
                },
                {
                    "name": "A3",
                    "midi": 57,
                    "time": 206.49583333333038,
                    "velocity": 0.33858267716535434,
                    "duration": 0.12916666666666288
                },
                {
                    "name": "E3",
                    "midi": 52,
                    "time": 206.51874999999706,
                    "velocity": 0.44881889763779526,
                    "duration": 0.06666666666666288
                },
                {
                    "name": "G#4",
                    "midi": 68,
                    "time": 206.55833333333038,
                    "velocity": 0.33858267716535434,
                    "duration": 0.12291666666666856
                },
                {
                    "name": "C#4",
                    "midi": 61,
                    "time": 206.66249999999704,
                    "velocity": 0.3937007874015748,
                    "duration": 0.09583333333335986
                },
                {
                    "name": "G#3",
                    "midi": 56,
                    "time": 206.73124999999706,
                    "velocity": 0.4881889763779528,
                    "duration": 0.08125000000001137
                },
                {
                    "name": "E3",
                    "midi": 52,
                    "time": 206.8458333333304,
                    "velocity": 0.49606299212598426,
                    "duration": 0.12291666666664014
                },
                {
                    "name": "A3",
                    "midi": 57,
                    "time": 206.86041666666372,
                    "velocity": 0.28346456692913385,
                    "duration": 0.07708333333332007
                },
                {
                    "name": "G#3",
                    "midi": 56,
                    "time": 206.90208333333038,
                    "velocity": 0.4015748031496063,
                    "duration": 0.07499999999998863
                },
                {
                    "name": "C#4",
                    "midi": 61,
                    "time": 207.01458333333036,
                    "velocity": 0.4566929133858268,
                    "duration": 0.0625
                },
                {
                    "name": "G#4",
                    "midi": 68,
                    "time": 207.1041666666637,
                    "velocity": 0.3858267716535433,
                    "duration": 0.10624999999998863
                },
                {
                    "name": "C#5",
                    "midi": 73,
                    "time": 207.22083333333035,
                    "velocity": 0.4409448818897638,
                    "duration": 0.054166666666645824
                },
                {
                    "name": "A3",
                    "midi": 57,
                    "time": 207.25833333333034,
                    "velocity": 0.2992125984251969,
                    "duration": 0.10208333333332575
                },
                {
                    "name": "E3",
                    "midi": 52,
                    "time": 207.27291666666366,
                    "velocity": 0.2755905511811024,
                    "duration": 0.07916666666667993
                },
                {
                    "name": "G#4",
                    "midi": 68,
                    "time": 207.29791666666367,
                    "velocity": 0.3779527559055118,
                    "duration": 0.14375000000001137
                },
                {
                    "name": "C#4",
                    "midi": 61,
                    "time": 207.44166666666368,
                    "velocity": 0.3700787401574803,
                    "duration": 0.09166666666666856
                },
                {
                    "name": "G#3",
                    "midi": 56,
                    "time": 207.50416666666368,
                    "velocity": 0.41732283464566927,
                    "duration": 0.07499999999998863
                },
                {
                    "name": "G#2",
                    "midi": 44,
                    "time": 207.58958333333032,
                    "velocity": 0.5905511811023622,
                    "duration": 2.0937500000000284
                },
                {
                    "name": "A3",
                    "midi": 57,
                    "time": 207.67291666666367,
                    "velocity": 0.07086614173228346,
                    "duration": 0.06874999999999432
                },
                {
                    "name": "G#3",
                    "midi": 56,
                    "time": 207.687499999997,
                    "velocity": 0.33070866141732286,
                    "duration": 0.09791666666666288
                },
                {
                    "name": "C#4",
                    "midi": 61,
                    "time": 207.79999999999697,
                    "velocity": 0.4645669291338583,
                    "duration": 0.056250000000005684
                },
                {
                    "name": "G#4",
                    "midi": 68,
                    "time": 207.89999999999696,
                    "velocity": 0.3700787401574803,
                    "duration": 0.10208333333332575
                },
                {
                    "name": "A3",
                    "midi": 57,
                    "time": 208.01458333333028,
                    "velocity": 0.29133858267716534,
                    "duration": 0.12708333333333144
                },
                {
                    "name": "C#5",
                    "midi": 73,
                    "time": 208.03124999999696,
                    "velocity": 0.3779527559055118,
                    "duration": 0.06666666666666288
                },
                {
                    "name": "E3",
                    "midi": 52,
                    "time": 208.0333333333303,
                    "velocity": 0.3228346456692913,
                    "duration": 0.06666666666666288
                },
                {
                    "name": "G#4",
                    "midi": 68,
                    "time": 208.1541666666636,
                    "velocity": 0.33858267716535434,
                    "duration": 0.08541666666667425
                },
                {
                    "name": "C#4",
                    "midi": 61,
                    "time": 208.2729166666636,
                    "velocity": 0.28346456692913385,
                    "duration": 0.08333333333334281
                },
                {
                    "name": "G#3",
                    "midi": 56,
                    "time": 208.35624999999695,
                    "velocity": 0.3937007874015748,
                    "duration": 0.07916666666667993
                },
                {
                    "name": "A3",
                    "midi": 57,
                    "time": 208.44583333333028,
                    "velocity": 0.25984251968503935,
                    "duration": 0.15833333333335986
                },
                {
                    "name": "E3",
                    "midi": 52,
                    "time": 208.46666666666363,
                    "velocity": 0.36220472440944884,
                    "duration": 0.08333333333334281
                },
                {
                    "name": "G#3",
                    "midi": 56,
                    "time": 208.5520833333303,
                    "velocity": 0.2677165354330709,
                    "duration": 0.08125000000001137
                },
                {
                    "name": "C#4",
                    "midi": 61,
                    "time": 208.6770833333303,
                    "velocity": 0.3464566929133858,
                    "duration": 0.06666666666666288
                },
                {
                    "name": "G#4",
                    "midi": 68,
                    "time": 208.80416666666363,
                    "velocity": 0.2283464566929134,
                    "duration": 0.12708333333333144
                },
                {
                    "name": "C#5",
                    "midi": 73,
                    "time": 208.95416666666364,
                    "velocity": 0.29133858267716534,
                    "duration": 0.10625000000001705
                },
                {
                    "name": "A3",
                    "midi": 57,
                    "time": 208.97083333333032,
                    "velocity": 0.1968503937007874,
                    "duration": 0.16249999999999432
                },
                {
                    "name": "E3",
                    "midi": 52,
                    "time": 209.00416666666365,
                    "velocity": 0.2755905511811024,
                    "duration": 0.1770833333333428
                },
                {
                    "name": "G#4",
                    "midi": 68,
                    "time": 209.09999999999698,
                    "velocity": 0.30708661417322836,
                    "duration": 0.15000000000000568
                },
                {
                    "name": "C#4",
                    "midi": 61,
                    "time": 209.27708333333032,
                    "velocity": 0.3228346456692913,
                    "duration": 0.18333333333333712
                },
                {
                    "name": "G#3",
                    "midi": 56,
                    "time": 209.418749999997,
                    "velocity": 0.33070866141732286,
                    "duration": 0.12916666666666288
                },
                {
                    "name": "F#2",
                    "midi": 42,
                    "time": 209.65833333333035,
                    "velocity": 0.4645669291338583,
                    "duration": 0.34583333333333144
                },
                {
                    "name": "G#3",
                    "midi": 56,
                    "time": 209.65833333333035,
                    "velocity": 0.16535433070866143,
                    "duration": 0.16458333333332575
                },
                {
                    "name": "D#3",
                    "midi": 51,
                    "time": 209.693749999997,
                    "velocity": 0.2992125984251969,
                    "duration": 0.09583333333333144
                },
                {
                    "name": "D#3",
                    "midi": 51,
                    "time": 209.9291666666637,
                    "velocity": 0.015748031496062992,
                    "duration": 0.12291666666666856
                },
                {
                    "name": "E3",
                    "midi": 52,
                    "time": 209.93958333333035,
                    "velocity": 0.25196850393700787,
                    "duration": 0.08958333333333712
                },
                {
                    "name": "A3",
                    "midi": 57,
                    "time": 210.0479166666637,
                    "velocity": 0.2755905511811024,
                    "duration": 0.09583333333333144
                },
                {
                    "name": "C4",
                    "midi": 60,
                    "time": 210.1666666666637,
                    "velocity": 0.33070866141732286,
                    "duration": 0.20000000000001705
                },
                {
                    "name": "E4",
                    "midi": 64,
                    "time": 210.3104166666637,
                    "velocity": 0.33070866141732286,
                    "duration": 0.06874999999999432
                },
                {
                    "name": "G#4",
                    "midi": 68,
                    "time": 210.48124999999703,
                    "velocity": 0.25196850393700787,
                    "duration": 0.13124999999999432
                },
                {
                    "name": "F#3",
                    "midi": 54,
                    "time": 210.51874999999703,
                    "velocity": 0.2677165354330709,
                    "duration": 0.11875000000000568
                },
                {
                    "name": "D#4",
                    "midi": 63,
                    "time": 210.52499999999702,
                    "velocity": 0.23622047244094488,
                    "duration": 0.11458333333334281
                },
                {
                    "name": "E4",
                    "midi": 64,
                    "time": 210.67499999999703,
                    "velocity": 0.33070866141732286,
                    "duration": 0.06458333333333144
                },
                {
                    "name": "A4",
                    "midi": 69,
                    "time": 210.77916666666368,
                    "velocity": 0.23622047244094488,
                    "duration": 0.09375
                },
                {
                    "name": "C5",
                    "midi": 72,
                    "time": 210.85833333333036,
                    "velocity": 0.33070866141732286,
                    "duration": 0.16041666666666288
                },
                {
                    "name": "E5",
                    "midi": 76,
                    "time": 210.96249999999702,
                    "velocity": 0.3858267716535433,
                    "duration": 0.04791666666667993
                },
                {
                    "name": "G#5",
                    "midi": 80,
                    "time": 211.0541666666637,
                    "velocity": 0.3858267716535433,
                    "duration": 0.08333333333334281
                },
                {
                    "name": "D#5",
                    "midi": 75,
                    "time": 211.06458333333035,
                    "velocity": 0.2992125984251969,
                    "duration": 0.08333333333334281
                },
                {
                    "name": "F#4",
                    "midi": 66,
                    "time": 211.0854166666637,
                    "velocity": 0.13385826771653545,
                    "duration": 0.07499999999998863
                },
                {
                    "name": "E5",
                    "midi": 76,
                    "time": 211.17708333333036,
                    "velocity": 0.47244094488188976,
                    "duration": 0.06458333333333144
                },
                {
                    "name": "A5",
                    "midi": 81,
                    "time": 211.28958333333037,
                    "velocity": 0.48031496062992124,
                    "duration": 0.06666666666666288
                },
                {
                    "name": "C6",
                    "midi": 84,
                    "time": 211.3541666666637,
                    "velocity": 0.5275590551181102,
                    "duration": 0.14375000000001137
                },
                {
                    "name": "E6",
                    "midi": 88,
                    "time": 211.44583333333037,
                    "velocity": 0.4881889763779528,
                    "duration": 0.04791666666667993
                },
                {
                    "name": "G#6",
                    "midi": 92,
                    "time": 211.56458333333038,
                    "velocity": 0.4645669291338583,
                    "duration": 0.10833333333332007
                },
                {
                    "name": "D#6",
                    "midi": 87,
                    "time": 211.56458333333038,
                    "velocity": 0.3228346456692913,
                    "duration": 0.11666666666664582
                },
                {
                    "name": "F#5",
                    "midi": 78,
                    "time": 211.5666666666637,
                    "velocity": 0.3779527559055118,
                    "duration": 0.09999999999999432
                },
                {
                    "name": "E6",
                    "midi": 88,
                    "time": 211.7041666666637,
                    "velocity": 0.10236220472440945,
                    "duration": 0.09791666666666288
                },
                {
                    "name": "A6",
                    "midi": 93,
                    "time": 211.7729166666637,
                    "velocity": 0.16535433070866143,
                    "duration": 0.07083333333332575
                },
                {
                    "name": "D7",
                    "midi": 98,
                    "time": 211.84166666666368,
                    "velocity": 0.41732283464566927,
                    "duration": 0.17291666666667993
                },
                {
                    "name": "F7",
                    "midi": 101,
                    "time": 211.92499999999703,
                    "velocity": 0.44881889763779526,
                    "duration": 0.16249999999999432
                },
                {
                    "name": "F#6",
                    "midi": 90,
                    "time": 212.08333333333036,
                    "velocity": 0.3228346456692913,
                    "duration": 0.3437499999999716
                },
                {
                    "name": "G#6",
                    "midi": 92,
                    "time": 212.18333333333035,
                    "velocity": 0.31496062992125984,
                    "duration": 0.25833333333329733
                },
                {
                    "name": "D#7",
                    "midi": 99,
                    "time": 212.27708333333035,
                    "velocity": 0.4566929133858268,
                    "duration": 0.11874999999997726
                },
                {
                    "name": "A6",
                    "midi": 93,
                    "time": 212.37916666666368,
                    "velocity": 0.3937007874015748,
                    "duration": 0.0895833333333087
                },
                {
                    "name": "C7",
                    "midi": 96,
                    "time": 212.46458333333032,
                    "velocity": 0.3543307086614173,
                    "duration": 0.06874999999999432
                },
                {
                    "name": "E7",
                    "midi": 100,
                    "time": 212.55208333333033,
                    "velocity": 0.4094488188976378,
                    "duration": 0.07916666666667993
                },
                {
                    "name": "A7",
                    "midi": 105,
                    "time": 212.65208333333035,
                    "velocity": 0.3464566929133858,
                    "duration": 0.06041666666666856
                },
                {
                    "name": "F#6",
                    "midi": 90,
                    "time": 212.7104166666637,
                    "velocity": 0.3464566929133858,
                    "duration": 0.07291666666665719
                },
                {
                    "name": "A#6",
                    "midi": 94,
                    "time": 212.78958333333034,
                    "velocity": 0.2755905511811024,
                    "duration": 0.06666666666666288
                },
                {
                    "name": "D7",
                    "midi": 98,
                    "time": 212.849999999997,
                    "velocity": 0.47244094488188976,
                    "duration": 0.056250000000005684
                },
                {
                    "name": "B6",
                    "midi": 95,
                    "time": 212.94583333333034,
                    "velocity": 0.3779527559055118,
                    "duration": 0.10416666666665719
                },
                {
                    "name": "D7",
                    "midi": 98,
                    "time": 213.012499999997,
                    "velocity": 0.4330708661417323,
                    "duration": 0.08541666666667425
                },
                {
                    "name": "F#7",
                    "midi": 102,
                    "time": 213.09791666666368,
                    "velocity": 0.48031496062992124,
                    "duration": 0.10625000000001705
                },
                {
                    "name": "B7",
                    "midi": 107,
                    "time": 213.18333333333035,
                    "velocity": 0.3228346456692913,
                    "duration": 0.05833333333333712
                },
                {
                    "name": "E6",
                    "midi": 88,
                    "time": 213.2416666666637,
                    "velocity": 0.33070866141732286,
                    "duration": 0.054166666666674246
                },
                {
                    "name": "F#6",
                    "midi": 90,
                    "time": 213.29999999999703,
                    "velocity": 0.36220472440944884,
                    "duration": 0.06666666666666288
                },
                {
                    "name": "C#7",
                    "midi": 97,
                    "time": 213.34166666666368,
                    "velocity": 0.3779527559055118,
                    "duration": 0.06458333333333144
                },
                {
                    "name": "G6",
                    "midi": 91,
                    "time": 213.45208333333034,
                    "velocity": 0.4251968503937008,
                    "duration": 0.07916666666667993
                },
                {
                    "name": "A#6",
                    "midi": 94,
                    "time": 213.50416666666368,
                    "velocity": 0.44881889763779526,
                    "duration": 0.09791666666666288
                },
                {
                    "name": "D7",
                    "midi": 98,
                    "time": 213.58749999999702,
                    "velocity": 0.49606299212598426,
                    "duration": 0.05624999999997726
                },
                {
                    "name": "G7",
                    "midi": 103,
                    "time": 213.64166666666367,
                    "velocity": 0.3858267716535433,
                    "duration": 0.05208333333334281
                },
                {
                    "name": "E6",
                    "midi": 88,
                    "time": 213.70833333333033,
                    "velocity": 0.3700787401574803,
                    "duration": 0.06041666666666856
                },
                {
                    "name": "G#6",
                    "midi": 92,
                    "time": 213.768749999997,
                    "velocity": 0.2440944881889764,
                    "duration": 0.07916666666667993
                },
                {
                    "name": "C7",
                    "midi": 96,
                    "time": 213.82291666666367,
                    "velocity": 0.3858267716535433,
                    "duration": 0.04791666666667993
                },
                {
                    "name": "A6",
                    "midi": 93,
                    "time": 213.87083333333035,
                    "velocity": 0.4251968503937008,
                    "duration": 0.11875000000000568
                },
                {
                    "name": "C#7",
                    "midi": 97,
                    "time": 213.93749999999702,
                    "velocity": 0.4330708661417323,
                    "duration": 0.12500000000002842
                },
                {
                    "name": "E7",
                    "midi": 100,
                    "time": 214.00833333333037,
                    "velocity": 0.4251968503937008,
                    "duration": 0.07083333333335418
                },
                {
                    "name": "A7",
                    "midi": 105,
                    "time": 214.08124999999706,
                    "velocity": 0.3700787401574803,
                    "duration": 0.05208333333334281
                },
                {
                    "name": "D6",
                    "midi": 86,
                    "time": 214.1583333333304,
                    "velocity": 0.2677165354330709,
                    "duration": 0.06875000000002274
                },
                {
                    "name": "E6",
                    "midi": 88,
                    "time": 214.21041666666375,
                    "velocity": 0.2677165354330709,
                    "duration": 0.06874999999999432
                },
                {
                    "name": "B6",
                    "midi": 95,
                    "time": 214.24166666666375,
                    "velocity": 0.44881889763779526,
                    "duration": 0.04999999999998295
                },
                {
                    "name": "F6",
                    "midi": 89,
                    "time": 214.3083333333304,
                    "velocity": 0.3464566929133858,
                    "duration": 0.09791666666666288
                },
                {
                    "name": "G#6",
                    "midi": 92,
                    "time": 214.36041666666375,
                    "velocity": 0.4645669291338583,
                    "duration": 0.11249999999998295
                },
                {
                    "name": "C7",
                    "midi": 96,
                    "time": 214.44166666666374,
                    "velocity": 0.4566929133858268,
                    "duration": 0.07500000000001705
                },
                {
                    "name": "F7",
                    "midi": 101,
                    "time": 214.49999999999707,
                    "velocity": 0.4015748031496063,
                    "duration": 0.05208333333334281
                },
                {
                    "name": "D6",
                    "midi": 86,
                    "time": 214.5645833333304,
                    "velocity": 0.3779527559055118,
                    "duration": 0.08541666666667425
                },
                {
                    "name": "F#6",
                    "midi": 90,
                    "time": 214.63124999999707,
                    "velocity": 0.29133858267716534,
                    "duration": 0.07500000000001705
                },
                {
                    "name": "A#6",
                    "midi": 94,
                    "time": 214.6833333333304,
                    "velocity": 0.3858267716535433,
                    "duration": 0.05208333333334281
                },
                {
                    "name": "G6",
                    "midi": 91,
                    "time": 214.7145833333304,
                    "velocity": 0.4330708661417323,
                    "duration": 0.06041666666666856
                },
                {
                    "name": "B6",
                    "midi": 95,
                    "time": 214.76874999999708,
                    "velocity": 0.44881889763779526,
                    "duration": 0.06666666666666288
                },
                {
                    "name": "D7",
                    "midi": 98,
                    "time": 214.83333333333042,
                    "velocity": 0.6062992125984252,
                    "duration": 0.08125000000001137
                },
                {
                    "name": "G7",
                    "midi": 103,
                    "time": 214.89791666666375,
                    "velocity": 0.3858267716535433,
                    "duration": 0.05208333333334281
                },
                {
                    "name": "C6",
                    "midi": 84,
                    "time": 214.9687499999971,
                    "velocity": 0.3779527559055118,
                    "duration": 0.11874999999997726
                },
                {
                    "name": "D6",
                    "midi": 86,
                    "time": 215.0062499999971,
                    "velocity": 0.3858267716535433,
                    "duration": 0.1520833333333087
                },
                {
                    "name": "A6",
                    "midi": 93,
                    "time": 215.04791666666375,
                    "velocity": 0.48031496062992124,
                    "duration": 0.04999999999998295
                },
                {
                    "name": "D#6",
                    "midi": 87,
                    "time": 215.10624999999706,
                    "velocity": 0.5118110236220472,
                    "duration": 0.08958333333333712
                },
                {
                    "name": "F#6",
                    "midi": 90,
                    "time": 215.17291666666372,
                    "velocity": 0.44881889763779526,
                    "duration": 0.08958333333333712
                },
                {
                    "name": "A#6",
                    "midi": 94,
                    "time": 215.24791666666374,
                    "velocity": 0.4015748031496063,
                    "duration": 0.07291666666665719
                },
                {
                    "name": "D#7",
                    "midi": 99,
                    "time": 215.3020833333304,
                    "velocity": 0.44881889763779526,
                    "duration": 0.054166666666674246
                },
                {
                    "name": "C6",
                    "midi": 84,
                    "time": 215.35624999999706,
                    "velocity": 0.4566929133858268,
                    "duration": 0.1770833333333428
                },
                {
                    "name": "E6",
                    "midi": 88,
                    "time": 215.41041666666374,
                    "velocity": 0.3937007874015748,
                    "duration": 0.07499999999998863
                },
                {
                    "name": "G#6",
                    "midi": 92,
                    "time": 215.4708333333304,
                    "velocity": 0.5118110236220472,
                    "duration": 0.0625
                },
                {
                    "name": "F6",
                    "midi": 89,
                    "time": 215.53541666666374,
                    "velocity": 0.5275590551181102,
                    "duration": 0.06666666666666288
                },
                {
                    "name": "A6",
                    "midi": 93,
                    "time": 215.59166666666374,
                    "velocity": 0.48031496062992124,
                    "duration": 0.06666666666666288
                },
                {
                    "name": "C7",
                    "midi": 96,
                    "time": 215.6583333333304,
                    "velocity": 0.5826771653543307,
                    "duration": 0.08958333333333712
                },
                {
                    "name": "F7",
                    "midi": 101,
                    "time": 215.71666666666374,
                    "velocity": 0.4015748031496063,
                    "duration": 0.04791666666665151
                },
                {
                    "name": "A5",
                    "midi": 81,
                    "time": 215.76249999999706,
                    "velocity": 0.4645669291338583,
                    "duration": 0.23124999999998863
                },
                {
                    "name": "B5",
                    "midi": 83,
                    "time": 215.84791666666374,
                    "velocity": 0.5669291338582677,
                    "duration": 0.11666666666664582
                },
                {
                    "name": "F#6",
                    "midi": 90,
                    "time": 215.91041666666374,
                    "velocity": 0.47244094488188976,
                    "duration": 0.06249999999997158
                },
                {
                    "name": "C6",
                    "midi": 84,
                    "time": 215.95416666666372,
                    "velocity": 0.47244094488188976,
                    "duration": 0.12291666666664014
                },
                {
                    "name": "D#6",
                    "midi": 87,
                    "time": 216.0354166666637,
                    "velocity": 0.3464566929133858,
                    "duration": 0.10208333333332575
                },
                {
                    "name": "G6",
                    "midi": 91,
                    "time": 216.09999999999704,
                    "velocity": 0.5433070866141733,
                    "duration": 0.14999999999997726
                },
                {
                    "name": "C7",
                    "midi": 96,
                    "time": 216.2104166666637,
                    "velocity": 0.36220472440944884,
                    "duration": 0.04999999999998295
                },
                {
                    "name": "F#5",
                    "midi": 78,
                    "time": 216.2416666666637,
                    "velocity": 0.3937007874015748,
                    "duration": 0.06666666666663446
                },
                {
                    "name": "G#5",
                    "midi": 80,
                    "time": 216.306249999997,
                    "velocity": 0.3779527559055118,
                    "duration": 0.10833333333332007
                },
                {
                    "name": "D#6",
                    "midi": 87,
                    "time": 216.374999999997,
                    "velocity": 0.4881889763779528,
                    "duration": 0.04999999999998295
                },
                {
                    "name": "A5",
                    "midi": 81,
                    "time": 216.42916666666363,
                    "velocity": 0.4094488188976378,
                    "duration": 0.06041666666666856
                },
                {
                    "name": "C6",
                    "midi": 84,
                    "time": 216.48541666666364,
                    "velocity": 0.5433070866141733,
                    "duration": 0.09999999999999432
                },
                {
                    "name": "E6",
                    "midi": 88,
                    "time": 216.54791666666364,
                    "velocity": 0.49606299212598426,
                    "duration": 0.0895833333333087
                },
                {
                    "name": "A6",
                    "midi": 93,
                    "time": 216.59791666666362,
                    "velocity": 0.4409448818897638,
                    "duration": 0.052083333333314386
                },
                {
                    "name": "D#5",
                    "midi": 75,
                    "time": 216.66666666666362,
                    "velocity": 0.41732283464566927,
                    "duration": 0.15833333333335986
                },
                {
                    "name": "F5",
                    "midi": 77,
                    "time": 216.7145833333303,
                    "velocity": 0.4251968503937008,
                    "duration": 0.13750000000001705
                },
                {
                    "name": "C6",
                    "midi": 84,
                    "time": 216.76249999999698,
                    "velocity": 0.5275590551181102,
                    "duration": 0.04166666666665719
                },
                {
                    "name": "F#5",
                    "midi": 78,
                    "time": 216.83541666666363,
                    "velocity": 0.5196850393700787,
                    "duration": 0.06041666666666856
                },
                {
                    "name": "A#5",
                    "midi": 82,
                    "time": 216.88749999999698,
                    "velocity": 0.4881889763779528,
                    "duration": 0.09791666666663446
                },
                {
                    "name": "C#6",
                    "midi": 85,
                    "time": 216.9395833333303,
                    "velocity": 0.48031496062992124,
                    "duration": 0.11875000000000568
                },
                {
                    "name": "F#6",
                    "midi": 90,
                    "time": 217.00416666666362,
                    "velocity": 0.4094488188976378,
                    "duration": 0.054166666666674246
                },
                {
                    "name": "C5",
                    "midi": 72,
                    "time": 217.0583333333303,
                    "velocity": 0.36220472440944884,
                    "duration": 0.15208333333336554
                },
                {
                    "name": "D5",
                    "midi": 74,
                    "time": 217.0833333333303,
                    "velocity": 0.4645669291338583,
                    "duration": 0.054166666666674246
                },
                {
                    "name": "A5",
                    "midi": 81,
                    "time": 217.14374999999697,
                    "velocity": 0.4094488188976378,
                    "duration": 0.05000000000001137
                },
                {
                    "name": "D#5",
                    "midi": 75,
                    "time": 217.1770833333303,
                    "velocity": 0.5039370078740157,
                    "duration": 0.056250000000034106
                },
                {
                    "name": "F#5",
                    "midi": 78,
                    "time": 217.231249999997,
                    "velocity": 0.44881889763779526,
                    "duration": 0.14999999999997726
                },
                {
                    "name": "A#5",
                    "midi": 82,
                    "time": 217.299999999997,
                    "velocity": 0.4094488188976378,
                    "duration": 0.08541666666664582
                },
                {
                    "name": "D#6",
                    "midi": 87,
                    "time": 217.33958333333032,
                    "velocity": 0.3937007874015748,
                    "duration": 0.052083333333314386
                },
                {
                    "name": "A4",
                    "midi": 69,
                    "time": 217.41249999999698,
                    "velocity": 0.3543307086614173,
                    "duration": 0.125
                },
                {
                    "name": "B4",
                    "midi": 71,
                    "time": 217.46041666666366,
                    "velocity": 0.4251968503937008,
                    "duration": 0.06458333333333144
                },
                {
                    "name": "F#5",
                    "midi": 78,
                    "time": 217.50416666666365,
                    "velocity": 0.3779527559055118,
                    "duration": 0.04999999999998295
                },
                {
                    "name": "C5",
                    "midi": 72,
                    "time": 217.5520833333303,
                    "velocity": 0.4409448818897638,
                    "duration": 0.125
                },
                {
                    "name": "D#5",
                    "midi": 75,
                    "time": 217.60416666666364,
                    "velocity": 0.5039370078740157,
                    "duration": 0.1416666666666515
                },
                {
                    "name": "G5",
                    "midi": 79,
                    "time": 217.6770833333303,
                    "velocity": 0.5275590551181102,
                    "duration": 0.1354166666666572
                },
                {
                    "name": "C6",
                    "midi": 84,
                    "time": 217.7458333333303,
                    "velocity": 0.5118110236220472,
                    "duration": 0.04999999999998295
                },
                {
                    "name": "F#4",
                    "midi": 66,
                    "time": 217.78749999999695,
                    "velocity": 0.3858267716535433,
                    "duration": 0.24999999999997158
                },
                {
                    "name": "G#4",
                    "midi": 68,
                    "time": 217.84791666666362,
                    "velocity": 0.33858267716535434,
                    "duration": 0.10833333333332007
                },
                {
                    "name": "D#5",
                    "midi": 75,
                    "time": 217.9020833333303,
                    "velocity": 0.4645669291338583,
                    "duration": 0.06249999999997158
                },
                {
                    "name": "A4",
                    "midi": 69,
                    "time": 217.91666666666362,
                    "velocity": 0.4330708661417323,
                    "duration": 0.07708333333332007
                },
                {
                    "name": "C5",
                    "midi": 72,
                    "time": 217.9729166666636,
                    "velocity": 0.47244094488188976,
                    "duration": 0.10624999999998863
                },
                {
                    "name": "E5",
                    "midi": 76,
                    "time": 218.04583333333025,
                    "velocity": 0.5511811023622047,
                    "duration": 0.12499999999997158
                },
                {
                    "name": "A5",
                    "midi": 81,
                    "time": 218.08958333333024,
                    "velocity": 0.5196850393700787,
                    "duration": 0.04374999999998863
                },
                {
                    "name": "D#4",
                    "midi": 63,
                    "time": 218.17291666666355,
                    "velocity": 0.5511811023622047,
                    "duration": 0.16458333333332575
                },
                {
                    "name": "F4",
                    "midi": 65,
                    "time": 218.23958333333022,
                    "velocity": 0.3858267716535433,
                    "duration": 0.14791666666664582
                },
                {
                    "name": "C5",
                    "midi": 72,
                    "time": 218.28124999999687,
                    "velocity": 0.3543307086614173,
                    "duration": 0.056250000000005684
                },
                {
                    "name": "F#4",
                    "midi": 66,
                    "time": 218.31041666666354,
                    "velocity": 0.5196850393700787,
                    "duration": 0.12916666666666288
                },
                {
                    "name": "A#4",
                    "midi": 70,
                    "time": 218.3770833333302,
                    "velocity": 0.4330708661417323,
                    "duration": 0.13541666666668561
                },
                {
                    "name": "C#5",
                    "midi": 73,
                    "time": 218.4395833333302,
                    "velocity": 0.4881889763779528,
                    "duration": 0.1187500000000341
                },
                {
                    "name": "F#5",
                    "midi": 78,
                    "time": 218.49374999999688,
                    "velocity": 0.5196850393700787,
                    "duration": 0.04791666666667993
                },
                {
                    "name": "C4",
                    "midi": 60,
                    "time": 218.54166666666356,
                    "velocity": 0.4409448818897638,
                    "duration": 0.26875000000001137
                },
                {
                    "name": "D4",
                    "midi": 62,
                    "time": 218.5812499999969,
                    "velocity": 0.5354330708661418,
                    "duration": 0.15625
                },
                {
                    "name": "A4",
                    "midi": 69,
                    "time": 218.6604166666636,
                    "velocity": 0.31496062992125984,
                    "duration": 0.06458333333333144
                },
                {
                    "name": "D#4",
                    "midi": 63,
                    "time": 218.6749999999969,
                    "velocity": 0.5905511811023622,
                    "duration": 0.10833333333332007
                },
                {
                    "name": "F#4",
                    "midi": 66,
                    "time": 218.74791666666357,
                    "velocity": 0.36220472440944884,
                    "duration": 0.12708333333333144
                },
                {
                    "name": "A#4",
                    "midi": 70,
                    "time": 218.8124999999969,
                    "velocity": 0.48031496062992124,
                    "duration": 0.13958333333332007
                },
                {
                    "name": "D#5",
                    "midi": 75,
                    "time": 218.85416666666356,
                    "velocity": 0.5511811023622047,
                    "duration": 0.08333333333334281
                },
                {
                    "name": "F#3",
                    "midi": 54,
                    "time": 218.94583333333023,
                    "velocity": 0.7401574803149606,
                    "duration": 0.5875000000000341
                },
                {
                    "name": "C5",
                    "midi": 72,
                    "time": 219.14166666666355,
                    "velocity": 0.47244094488188976,
                    "duration": 0.11875000000000568
                },
                {
                    "name": "G4",
                    "midi": 67,
                    "time": 219.15833333333023,
                    "velocity": 0.33070866141732286,
                    "duration": 0.07291666666665719
                },
                {
                    "name": "E4",
                    "midi": 64,
                    "time": 219.16666666666356,
                    "velocity": 0.4251968503937008,
                    "duration": 0.14791666666667425
                },
                {
                    "name": "A#4",
                    "midi": 70,
                    "time": 219.2187499999969,
                    "velocity": 0.4330708661417323,
                    "duration": 0.06041666666666856
                },
                {
                    "name": "F#4",
                    "midi": 66,
                    "time": 219.3312499999969,
                    "velocity": 0.5748031496062992,
                    "duration": 0.12291666666666856
                },
                {
                    "name": "G4",
                    "midi": 67,
                    "time": 219.54583333333025,
                    "velocity": 0.33858267716535434,
                    "duration": 0.06041666666664014
                },
                {
                    "name": "E4",
                    "midi": 64,
                    "time": 219.55416666666358,
                    "velocity": 0.3228346456692913,
                    "duration": 0.11874999999997726
                },
                {
                    "name": "G#4",
                    "midi": 68,
                    "time": 219.5624999999969,
                    "velocity": 0.08661417322834646,
                    "duration": 0.05624999999997726
                },
                {
                    "name": "C4",
                    "midi": 60,
                    "time": 219.57083333333023,
                    "velocity": 0.14960629921259844,
                    "duration": 0.11458333333331439
                },
                {
                    "name": "A#3",
                    "midi": 58,
                    "time": 219.6208333333302,
                    "velocity": 0.5196850393700787,
                    "duration": 0.07083333333332575
                },
                {
                    "name": "F#3",
                    "midi": 54,
                    "time": 219.7208333333302,
                    "velocity": 0.6377952755905512,
                    "duration": 0.21666666666664014
                },
                {
                    "name": "E4",
                    "midi": 64,
                    "time": 219.92291666666353,
                    "velocity": 0.3779527559055118,
                    "duration": 0.07083333333332575
                },
                {
                    "name": "G3",
                    "midi": 55,
                    "time": 219.93124999999685,
                    "velocity": 0.5275590551181102,
                    "duration": 0.11874999999997726
                },
                {
                    "name": "C4",
                    "midi": 60,
                    "time": 219.94583333333017,
                    "velocity": 0.4094488188976378,
                    "duration": 0.08541666666667425
                },
                {
                    "name": "A#3",
                    "midi": 58,
                    "time": 219.96458333333018,
                    "velocity": 0.4094488188976378,
                    "duration": 0.07499999999998863
                },
                {
                    "name": "F#4",
                    "midi": 66,
                    "time": 220.06874999999684,
                    "velocity": 0.6220472440944882,
                    "duration": 0.11250000000001137
                },
                {
                    "name": "C4",
                    "midi": 60,
                    "time": 220.27708333333018,
                    "velocity": 0.49606299212598426,
                    "duration": 0.13124999999999432
                },
                {
                    "name": "E3",
                    "midi": 52,
                    "time": 220.31458333333018,
                    "velocity": 0.4645669291338583,
                    "duration": 0.12291666666666856
                },
                {
                    "name": "G3",
                    "midi": 55,
                    "time": 220.32083333333017,
                    "velocity": 0.2992125984251969,
                    "duration": 0.07083333333332575
                },
                {
                    "name": "A#3",
                    "midi": 58,
                    "time": 220.36458333333016,
                    "velocity": 0.33858267716535434,
                    "duration": 0.11250000000001137
                },
                {
                    "name": "F#2",
                    "midi": 42,
                    "time": 220.43958333333018,
                    "velocity": 0.6377952755905512,
                    "duration": 0.24374999999997726
                },
                {
                    "name": "C4",
                    "midi": 60,
                    "time": 220.62083333333015,
                    "velocity": 0.49606299212598426,
                    "duration": 0.07708333333332007
                },
                {
                    "name": "E3",
                    "midi": 52,
                    "time": 220.65416666666349,
                    "velocity": 0.49606299212598426,
                    "duration": 0.08333333333331439
                },
                {
                    "name": "A#3",
                    "midi": 58,
                    "time": 220.68124999999682,
                    "velocity": 0.4094488188976378,
                    "duration": 0.0583333333333087
                },
                {
                    "name": "F#3",
                    "midi": 54,
                    "time": 220.78541666666345,
                    "velocity": 0.6377952755905512,
                    "duration": 0.11666666666667425
                },
                {
                    "name": "G3",
                    "midi": 55,
                    "time": 220.9812499999968,
                    "velocity": 0.5196850393700787,
                    "duration": 0.10833333333334849
                },
                {
                    "name": "C3",
                    "midi": 48,
                    "time": 221.02083333333013,
                    "velocity": 0.29133858267716534,
                    "duration": 0.09583333333335986
                },
                {
                    "name": "E3",
                    "midi": 52,
                    "time": 221.04166666666347,
                    "velocity": 0.1968503937007874,
                    "duration": 0.05833333333333712
                },
                {
                    "name": "A#2",
                    "midi": 46,
                    "time": 221.0687499999968,
                    "velocity": 0.5511811023622047,
                    "duration": 0.10625000000001705
                },
                {
                    "name": "F#2",
                    "midi": 42,
                    "time": 221.15416666666349,
                    "velocity": 0.5905511811023622,
                    "duration": 0.14791666666667425
                },
                {
                    "name": "E3",
                    "midi": 52,
                    "time": 221.34166666666349,
                    "velocity": 0.41732283464566927,
                    "duration": 0.056250000000005684
                },
                {
                    "name": "C3",
                    "midi": 48,
                    "time": 221.34791666666348,
                    "velocity": 0.3858267716535433,
                    "duration": 0.11666666666667425
                },
                {
                    "name": "G2",
                    "midi": 43,
                    "time": 221.37499999999682,
                    "velocity": 0.3779527559055118,
                    "duration": 0.09791666666666288
                },
                {
                    "name": "A#2",
                    "midi": 46,
                    "time": 221.39583333333016,
                    "velocity": 0.28346456692913385,
                    "duration": 0.10208333333332575
                },
                {
                    "name": "F#3",
                    "midi": 54,
                    "time": 221.51458333333017,
                    "velocity": 0.5984251968503937,
                    "duration": 0.06666666666666288
                },
                {
                    "name": "C3",
                    "midi": 48,
                    "time": 221.67708333333016,
                    "velocity": 0.4645669291338583,
                    "duration": 0.16249999999999432
                },
                {
                    "name": "A#2",
                    "midi": 46,
                    "time": 221.75833333333017,
                    "velocity": 0.4015748031496063,
                    "duration": 0.17708333333331439
                },
                {
                    "name": "E2",
                    "midi": 40,
                    "time": 221.77083333333016,
                    "velocity": 0.44881889763779526,
                    "duration": 0.08541666666667425
                },
                {
                    "name": "G2",
                    "midi": 43,
                    "time": 221.7729166666635,
                    "velocity": 0.1732283464566929,
                    "duration": 0.10625000000001705
                },
                {
                    "name": "F#1",
                    "midi": 30,
                    "time": 221.8916666666635,
                    "velocity": 0.6456692913385826,
                    "duration": 0.22083333333333144
                },
                {
                    "name": "C3",
                    "midi": 48,
                    "time": 222.09374999999682,
                    "velocity": 0.3779527559055118,
                    "duration": 0.11041666666665151
                },
                {
                    "name": "A#2",
                    "midi": 46,
                    "time": 222.15833333333015,
                    "velocity": 0.3858267716535433,
                    "duration": 0.07708333333332007
                },
                {
                    "name": "E2",
                    "midi": 40,
                    "time": 222.17083333333014,
                    "velocity": 0.3228346456692913,
                    "duration": 0.07708333333332007
                },
                {
                    "name": "F#2",
                    "midi": 42,
                    "time": 222.33333333333013,
                    "velocity": 0.5275590551181102,
                    "duration": 0.08541666666667425
                },
                {
                    "name": "G2",
                    "midi": 43,
                    "time": 222.55208333333013,
                    "velocity": 0.4251968503937008,
                    "duration": 0.16875000000001705
                },
                {
                    "name": "C2",
                    "midi": 36,
                    "time": 222.57916666666347,
                    "velocity": 0.33070866141732286,
                    "duration": 0.16458333333335418
                },
                {
                    "name": "E2",
                    "midi": 40,
                    "time": 222.6187499999968,
                    "velocity": 0.2283464566929134,
                    "duration": 0.07916666666667993
                },
                {
                    "name": "A#1",
                    "midi": 34,
                    "time": 222.67291666666347,
                    "velocity": 0.4251968503937008,
                    "duration": 0.04791666666667993
                },
                {
                    "name": "F#1",
                    "midi": 30,
                    "time": 222.75208333333015,
                    "velocity": 0.49606299212598426,
                    "duration": 0.12083333333333712
                },
                {
                    "name": "C2",
                    "midi": 36,
                    "time": 222.95624999999683,
                    "velocity": 0.31496062992125984,
                    "duration": 0.12916666666666288
                },
                {
                    "name": "G2",
                    "midi": 43,
                    "time": 222.96249999999682,
                    "velocity": 0.29133858267716534,
                    "duration": 0.09166666666666856
                },
                {
                    "name": "E2",
                    "midi": 40,
                    "time": 222.9791666666635,
                    "velocity": 0.3779527559055118,
                    "duration": 0.07291666666665719
                },
                {
                    "name": "A#1",
                    "midi": 34,
                    "time": 223.02499999999682,
                    "velocity": 0.3543307086614173,
                    "duration": 0.04791666666667993
                },
                {
                    "name": "F#2",
                    "midi": 42,
                    "time": 223.13333333333017,
                    "velocity": 0.48031496062992124,
                    "duration": 0.054166666666674246
                },
                {
                    "name": "G2",
                    "midi": 43,
                    "time": 223.30624999999685,
                    "velocity": 0.28346456692913385,
                    "duration": 0.12708333333333144
                },
                {
                    "name": "C2",
                    "midi": 36,
                    "time": 223.31249999999685,
                    "velocity": 0.3700787401574803,
                    "duration": 0.15833333333333144
                },
                {
                    "name": "E2",
                    "midi": 40,
                    "time": 223.3333333333302,
                    "velocity": 0.33858267716535434,
                    "duration": 0.07499999999998863
                },
                {
                    "name": "A#1",
                    "midi": 34,
                    "time": 223.3958333333302,
                    "velocity": 0.2992125984251969,
                    "duration": 0.056250000000005684
                },
                {
                    "name": "F#1",
                    "midi": 30,
                    "time": 223.46249999999685,
                    "velocity": 0.4881889763779528,
                    "duration": 0.09791666666666288
                },
                {
                    "name": "G2",
                    "midi": 43,
                    "time": 223.6291666666635,
                    "velocity": 0.28346456692913385,
                    "duration": 0.12291666666664014
                },
                {
                    "name": "C2",
                    "midi": 36,
                    "time": 223.6666666666635,
                    "velocity": 0.2755905511811024,
                    "duration": 0.12291666666664014
                },
                {
                    "name": "E2",
                    "midi": 40,
                    "time": 223.67083333333017,
                    "velocity": 0.36220472440944884,
                    "duration": 0.07916666666665151
                },
                {
                    "name": "A#1",
                    "midi": 34,
                    "time": 223.7041666666635,
                    "velocity": 0.3937007874015748,
                    "duration": 0.04583333333332007
                },
                {
                    "name": "F#2",
                    "midi": 42,
                    "time": 223.83333333333013,
                    "velocity": 0.4251968503937008,
                    "duration": 0.054166666666674246
                },
                {
                    "name": "G2",
                    "midi": 43,
                    "time": 224.0187499999968,
                    "velocity": 0.2992125984251969,
                    "duration": 0.14791666666667425
                },
                {
                    "name": "C2",
                    "midi": 36,
                    "time": 224.0437499999968,
                    "velocity": 0.2992125984251969,
                    "duration": 0.15625
                },
                {
                    "name": "E2",
                    "midi": 40,
                    "time": 224.0812499999968,
                    "velocity": 0.1968503937007874,
                    "duration": 0.08541666666667425
                },
                {
                    "name": "A#1",
                    "midi": 34,
                    "time": 224.1062499999968,
                    "velocity": 0.3543307086614173,
                    "duration": 0.04791666666667993
                },
                {
                    "name": "F#1",
                    "midi": 30,
                    "time": 224.18749999999682,
                    "velocity": 0.4251968503937008,
                    "duration": 0.11874999999997726
                },
                {
                    "name": "C2",
                    "midi": 36,
                    "time": 224.44374999999678,
                    "velocity": 0.2283464566929134,
                    "duration": 0.17500000000001137
                },
                {
                    "name": "G2",
                    "midi": 43,
                    "time": 224.4458333333301,
                    "velocity": 0.2204724409448819,
                    "duration": 0.13750000000001705
                },
                {
                    "name": "E2",
                    "midi": 40,
                    "time": 224.46458333333013,
                    "velocity": 0.33858267716535434,
                    "duration": 0.15416666666666856
                },
                {
                    "name": "A#1",
                    "midi": 34,
                    "time": 224.5249999999968,
                    "velocity": 0.3228346456692913,
                    "duration": 0.056250000000005684
                },
                {
                    "name": "F#2",
                    "midi": 42,
                    "time": 224.65833333333012,
                    "velocity": 0.29133858267716534,
                    "duration": 0.06666666666666288
                },
                {
                    "name": "C2",
                    "midi": 36,
                    "time": 224.98541666666344,
                    "velocity": 0.2125984251968504,
                    "duration": 0.22083333333333144
                },
                {
                    "name": "E2",
                    "midi": 40,
                    "time": 225.00208333333012,
                    "velocity": 0.1889763779527559,
                    "duration": 0.1979166666666572
                },
                {
                    "name": "G2",
                    "midi": 43,
                    "time": 225.00624999999678,
                    "velocity": 0.10236220472440945,
                    "duration": 0.19166666666666288
                },
                {
                    "name": "A#1",
                    "midi": 34,
                    "time": 225.0770833333301,
                    "velocity": 0.29133858267716534,
                    "duration": 0.08125000000001137
                },
                {
                    "name": "F#1",
                    "midi": 30,
                    "time": 225.29791666666344,
                    "velocity": 0.3937007874015748,
                    "duration": 0.16041666666666288
                },
                {
                    "name": "A#1",
                    "midi": 34,
                    "time": 225.49999999999676,
                    "velocity": 0.3228346456692913,
                    "duration": 0.07291666666665719
                },
                {
                    "name": "C#2",
                    "midi": 37,
                    "time": 225.59374999999676,
                    "velocity": 0.3228346456692913,
                    "duration": 0.05208333333334281
                },
                {
                    "name": "C2",
                    "midi": 36,
                    "time": 225.67291666666344,
                    "velocity": 0.3464566929133858,
                    "duration": 0.08125000000001137
                },
                {
                    "name": "E2",
                    "midi": 40,
                    "time": 225.77291666666346,
                    "velocity": 0.5433070866141733,
                    "duration": 0.056250000000005684
                },
                {
                    "name": "G2",
                    "midi": 43,
                    "time": 225.88541666666347,
                    "velocity": 0.3464566929133858,
                    "duration": 0.11249999999998295
                },
                {
                    "name": "C3",
                    "midi": 48,
                    "time": 225.9624999999968,
                    "velocity": 0.4409448818897638,
                    "duration": 0.054166666666674246
                },
                {
                    "name": "F#2",
                    "midi": 42,
                    "time": 226.0499999999968,
                    "velocity": 0.4094488188976378,
                    "duration": 0.12083333333333712
                },
                {
                    "name": "A#2",
                    "midi": 46,
                    "time": 226.14791666666346,
                    "velocity": 0.31496062992125984,
                    "duration": 0.08958333333333712
                },
                {
                    "name": "C#3",
                    "midi": 49,
                    "time": 226.20208333333014,
                    "velocity": 0.47244094488188976,
                    "duration": 0.06666666666666288
                },
                {
                    "name": "C3",
                    "midi": 48,
                    "time": 226.26041666666347,
                    "velocity": 0.4094488188976378,
                    "duration": 0.10833333333332007
                },
                {
                    "name": "E3",
                    "midi": 52,
                    "time": 226.34583333333012,
                    "velocity": 0.5590551181102362,
                    "duration": 0.09375
                },
                {
                    "name": "G3",
                    "midi": 55,
                    "time": 226.42708333333013,
                    "velocity": 0.49606299212598426,
                    "duration": 0.09166666666664014
                },
                {
                    "name": "C4",
                    "midi": 60,
                    "time": 226.48541666666344,
                    "velocity": 0.4094488188976378,
                    "duration": 0.05000000000001137
                },
                {
                    "name": "F#3",
                    "midi": 54,
                    "time": 226.51666666666344,
                    "velocity": 0.5905511811023622,
                    "duration": 0.13124999999999432
                },
                {
                    "name": "A#3",
                    "midi": 58,
                    "time": 226.6020833333301,
                    "velocity": 0.4881889763779528,
                    "duration": 0.12291666666664014
                },
                {
                    "name": "C#4",
                    "midi": 61,
                    "time": 226.66041666666342,
                    "velocity": 0.5905511811023622,
                    "duration": 0.05000000000001137
                },
                {
                    "name": "C4",
                    "midi": 60,
                    "time": 226.71249999999677,
                    "velocity": 0.36220472440944884,
                    "duration": 0.06041666666664014
                },
                {
                    "name": "D4",
                    "midi": 62,
                    "time": 226.73749999999674,
                    "velocity": 0.33858267716535434,
                    "duration": 0.06041666666666856
                },
                {
                    "name": "E4",
                    "midi": 64,
                    "time": 226.7729166666634,
                    "velocity": 0.5590551181102362,
                    "duration": 0.07083333333332575
                },
                {
                    "name": "G4",
                    "midi": 67,
                    "time": 226.81249999999673,
                    "velocity": 0.6220472440944882,
                    "duration": 0.11041666666667993
                },
                {
                    "name": "C5",
                    "midi": 72,
                    "time": 226.87708333333006,
                    "velocity": 0.44881889763779526,
                    "duration": 0.04375000000001705
                },
                {
                    "name": "F#4",
                    "midi": 66,
                    "time": 226.89999999999674,
                    "velocity": 0.6299212598425197,
                    "duration": 0.13333333333332575
                },
                {
                    "name": "A#4",
                    "midi": 70,
                    "time": 226.94999999999675,
                    "velocity": 0.4645669291338583,
                    "duration": 0.0999999999999659
                },
                {
                    "name": "C#5",
                    "midi": 73,
                    "time": 226.98958333333007,
                    "velocity": 0.6614173228346457,
                    "duration": 0.08749999999997726
                },
                {
                    "name": "C5",
                    "midi": 72,
                    "time": 227.0354166666634,
                    "velocity": 0.3779527559055118,
                    "duration": 0.04791666666665151
                },
                {
                    "name": "D5",
                    "midi": 74,
                    "time": 227.04583333333005,
                    "velocity": 0.4251968503937008,
                    "duration": 0.04374999999998863
                },
                {
                    "name": "F5",
                    "midi": 77,
                    "time": 227.0999999999967,
                    "velocity": 0.47244094488188976,
                    "duration": 0.09999999999999432
                },
                {
                    "name": "E5",
                    "midi": 76,
                    "time": 227.1062499999967,
                    "velocity": 0.5354330708661418,
                    "duration": 0.04166666666665719
                },
                {
                    "name": "G5",
                    "midi": 79,
                    "time": 227.14791666666335,
                    "velocity": 0.6299212598425197,
                    "duration": 0.054166666666674246
                },
                {
                    "name": "A5",
                    "midi": 81,
                    "time": 227.14999999999668,
                    "velocity": 0.5669291338582677,
                    "duration": 0.08541666666667425
                },
                {
                    "name": "D6",
                    "midi": 86,
                    "time": 227.20833333333002,
                    "velocity": 0.5039370078740157,
                    "duration": 0.04583333333334849
                },
                {
                    "name": "F#5",
                    "midi": 78,
                    "time": 227.2312499999967,
                    "velocity": 0.6220472440944882,
                    "duration": 0.11875000000000568
                },
                {
                    "name": "A#5",
                    "midi": 82,
                    "time": 227.23541666666335,
                    "velocity": 0.5196850393700787,
                    "duration": 0.15000000000000568
                },
                {
                    "name": "C#6",
                    "midi": 85,
                    "time": 227.2937499999967,
                    "velocity": 0.6771653543307087,
                    "duration": 0.10416666666665719
                },
                {
                    "name": "C6",
                    "midi": 84,
                    "time": 227.33333333333002,
                    "velocity": 0.7559055118110236,
                    "duration": 0.12083333333333712
                },
                {
                    "name": "E6",
                    "midi": 88,
                    "time": 227.39999999999668,
                    "velocity": 0.7007874015748031,
                    "duration": 0.12708333333333144
                },
                {
                    "name": "G6",
                    "midi": 91,
                    "time": 227.46458333333,
                    "velocity": 0.7244094488188977,
                    "duration": 0.14583333333331439
                },
                {
                    "name": "C7",
                    "midi": 96,
                    "time": 227.52708333333,
                    "velocity": 0.6377952755905512,
                    "duration": 0.039583333333325754
                },
                {
                    "name": "C#7",
                    "midi": 97,
                    "time": 227.56874999999667,
                    "velocity": 0.8740157480314961,
                    "duration": 0.07708333333332007
                },
                {
                    "name": "A#6",
                    "midi": 94,
                    "time": 227.58124999999666,
                    "velocity": 0.6220472440944882,
                    "duration": 0.11875000000000568
                },
                {
                    "name": "F#6",
                    "midi": 90,
                    "time": 227.58124999999666,
                    "velocity": 0.6456692913385826,
                    "duration": 0.03541666666666288
                },
                {
                    "name": "C7",
                    "midi": 96,
                    "time": 227.64791666666332,
                    "velocity": 0.5511811023622047,
                    "duration": 0.16666666666668561
                },
                {
                    "name": "G6",
                    "midi": 91,
                    "time": 227.69791666666333,
                    "velocity": 0.5905511811023622,
                    "duration": 0.15208333333333712
                },
                {
                    "name": "E6",
                    "midi": 88,
                    "time": 227.77916666666334,
                    "velocity": 0.6535433070866141,
                    "duration": 0.07916666666665151
                },
                {
                    "name": "C6",
                    "midi": 84,
                    "time": 227.84166666666334,
                    "velocity": 0.6377952755905512,
                    "duration": 0.037499999999965894
                },
                {
                    "name": "C#6",
                    "midi": 85,
                    "time": 227.86458333333,
                    "velocity": 0.7401574803149606,
                    "duration": 0.02916666666664014
                },
                {
                    "name": "A#5",
                    "midi": 82,
                    "time": 227.87499999999665,
                    "velocity": 0.5354330708661418,
                    "duration": 0.04166666666665719
                },
                {
                    "name": "F#5",
                    "midi": 78,
                    "time": 227.88333333332997,
                    "velocity": 0.5354330708661418,
                    "duration": 0.05000000000001137
                },
                {
                    "name": "C6",
                    "midi": 84,
                    "time": 227.95833333333,
                    "velocity": 0.4094488188976378,
                    "duration": 0.08750000000000568
                },
                {
                    "name": "B5",
                    "midi": 83,
                    "time": 227.97916666666333,
                    "velocity": 0.7401574803149606,
                    "duration": 0.11458333333334281
                },
                {
                    "name": "G5",
                    "midi": 79,
                    "time": 228.01041666666333,
                    "velocity": 0.6220472440944882,
                    "duration": 0.0625
                },
                {
                    "name": "E5",
                    "midi": 76,
                    "time": 228.07499999999666,
                    "velocity": 0.48031496062992124,
                    "duration": 0.04583333333332007
                },
                {
                    "name": "C5",
                    "midi": 72,
                    "time": 228.10833333333,
                    "velocity": 0.5984251968503937,
                    "duration": 0.05624999999997726
                },
                {
                    "name": "C#5",
                    "midi": 73,
                    "time": 228.1729166666633,
                    "velocity": 0.6614173228346457,
                    "duration": 0.04999999999998295
                },
                {
                    "name": "A#4",
                    "midi": 70,
                    "time": 228.1791666666633,
                    "velocity": 0.5748031496062992,
                    "duration": 0.06249999999997158
                },
                {
                    "name": "F#4",
                    "midi": 66,
                    "time": 228.18333333332995,
                    "velocity": 0.5669291338582677,
                    "duration": 0.04791666666665151
                },
                {
                    "name": "C5",
                    "midi": 72,
                    "time": 228.2374999999966,
                    "velocity": 0.5826771653543307,
                    "duration": 0.08958333333333712
                },
                {
                    "name": "E5",
                    "midi": 76,
                    "time": 228.2999999999966,
                    "velocity": 0.5748031496062992,
                    "duration": 0.11875000000000568
                },
                {
                    "name": "G5",
                    "midi": 79,
                    "time": 228.36458333332993,
                    "velocity": 0.6535433070866141,
                    "duration": 0.10833333333332007
                },
                {
                    "name": "C6",
                    "midi": 84,
                    "time": 228.4187499999966,
                    "velocity": 0.5826771653543307,
                    "duration": 0.039583333333325754
                },
                {
                    "name": "C#6",
                    "midi": 85,
                    "time": 228.47291666666325,
                    "velocity": 0.7716535433070866,
                    "duration": 0.12291666666664014
                },
                {
                    "name": "A#5",
                    "midi": 82,
                    "time": 228.4833333333299,
                    "velocity": 0.5039370078740157,
                    "duration": 0.08749999999997726
                },
                {
                    "name": "F#5",
                    "midi": 78,
                    "time": 228.48541666666324,
                    "velocity": 0.5748031496062992,
                    "duration": 0.07499999999998863
                },
                {
                    "name": "C6",
                    "midi": 84,
                    "time": 228.52291666666324,
                    "velocity": 0.6062992125984252,
                    "duration": 0.09166666666664014
                },
                {
                    "name": "E6",
                    "midi": 88,
                    "time": 228.6020833333299,
                    "velocity": 0.7244094488188977,
                    "duration": 0.12083333333333712
                },
                {
                    "name": "G6",
                    "midi": 91,
                    "time": 228.67083333332988,
                    "velocity": 0.6771653543307087,
                    "duration": 0.14374999999998295
                },
                {
                    "name": "C7",
                    "midi": 96,
                    "time": 228.7354166666632,
                    "velocity": 0.6771653543307087,
                    "duration": 0.06458333333333144
                },
                {
                    "name": "C#7",
                    "midi": 97,
                    "time": 228.80833333332987,
                    "velocity": 0.8267716535433071,
                    "duration": 0.10416666666665719
                },
                {
                    "name": "A#6",
                    "midi": 94,
                    "time": 228.81874999999653,
                    "velocity": 0.5984251968503937,
                    "duration": 0.08541666666667425
                },
                {
                    "name": "F#6",
                    "midi": 90,
                    "time": 228.82083333332986,
                    "velocity": 0.5984251968503937,
                    "duration": 0.09999999999999432
                },
                {
                    "name": "C7",
                    "midi": 96,
                    "time": 228.87708333332986,
                    "velocity": 0.7086614173228346,
                    "duration": 0.17499999999998295
                },
                {
                    "name": "G6",
                    "midi": 91,
                    "time": 228.95208333332985,
                    "velocity": 0.5905511811023622,
                    "duration": 0.12291666666666856
                },
                {
                    "name": "E6",
                    "midi": 88,
                    "time": 229.00833333332986,
                    "velocity": 0.6299212598425197,
                    "duration": 0.08124999999998295
                },
                {
                    "name": "C6",
                    "midi": 84,
                    "time": 229.07708333332985,
                    "velocity": 0.6456692913385826,
                    "duration": 0.039583333333325754
                },
                {
                    "name": "C#6",
                    "midi": 85,
                    "time": 229.12916666666317,
                    "velocity": 0.6692913385826772,
                    "duration": 0.03125
                },
                {
                    "name": "A#5",
                    "midi": 82,
                    "time": 229.13333333332983,
                    "velocity": 0.6220472440944882,
                    "duration": 0.037499999999994316
                },
                {
                    "name": "F#5",
                    "midi": 78,
                    "time": 229.15833333332984,
                    "velocity": 0.36220472440944884,
                    "duration": 0.052083333333314386
                },
                {
                    "name": "C6",
                    "midi": 84,
                    "time": 229.22291666666314,
                    "velocity": 0.3937007874015748,
                    "duration": 0.11041666666665151
                },
                {
                    "name": "G5",
                    "midi": 79,
                    "time": 229.28749999999647,
                    "velocity": 0.5433070866141733,
                    "duration": 0.06041666666664014
                },
                {
                    "name": "E5",
                    "midi": 76,
                    "time": 229.33958333332978,
                    "velocity": 0.3937007874015748,
                    "duration": 0.056250000000005684
                },
                {
                    "name": "C5",
                    "midi": 72,
                    "time": 229.3958333333298,
                    "velocity": 0.44881889763779526,
                    "duration": 0.04791666666667993
                },
                {
                    "name": "A#4",
                    "midi": 70,
                    "time": 229.4708333333298,
                    "velocity": 0.5039370078740157,
                    "duration": 0.13124999999999432
                },
                {
                    "name": "C#5",
                    "midi": 73,
                    "time": 229.4708333333298,
                    "velocity": 0.5354330708661418,
                    "duration": 0.06041666666666856
                },
                {
                    "name": "F#4",
                    "midi": 66,
                    "time": 229.48124999999646,
                    "velocity": 0.4094488188976378,
                    "duration": 0.08125000000001137
                },
                {
                    "name": "C5",
                    "midi": 72,
                    "time": 229.5645833333298,
                    "velocity": 0.30708661417322836,
                    "duration": 0.06666666666666288
                },
                {
                    "name": "E5",
                    "midi": 76,
                    "time": 229.6208333333298,
                    "velocity": 0.48031496062992124,
                    "duration": 0.09791666666666288
                },
                {
                    "name": "G5",
                    "midi": 79,
                    "time": 229.69374999999647,
                    "velocity": 0.6220472440944882,
                    "duration": 0.13333333333332575
                },
                {
                    "name": "C6",
                    "midi": 84,
                    "time": 229.7645833333298,
                    "velocity": 0.5039370078740157,
                    "duration": 0.056250000000005684
                },
                {
                    "name": "C#6",
                    "midi": 85,
                    "time": 229.84791666666314,
                    "velocity": 0.6614173228346457,
                    "duration": 0.08750000000000568
                },
                {
                    "name": "A#5",
                    "midi": 82,
                    "time": 229.85624999999646,
                    "velocity": 0.4566929133858268,
                    "duration": 0.12291666666666856
                },
                {
                    "name": "F#5",
                    "midi": 78,
                    "time": 229.87291666666314,
                    "velocity": 0.4251968503937008,
                    "duration": 0.1354166666666572
                },
                {
                    "name": "C6",
                    "midi": 84,
                    "time": 229.9333333333298,
                    "velocity": 0.44881889763779526,
                    "duration": 0.14374999999998295
                },
                {
                    "name": "G5",
                    "midi": 79,
                    "time": 230.0020833333298,
                    "velocity": 0.3700787401574803,
                    "duration": 0.07708333333332007
                },
                {
                    "name": "G#5",
                    "midi": 80,
                    "time": 230.0083333333298,
                    "velocity": 0.30708661417322836,
                    "duration": 0.054166666666674246
                },
                {
                    "name": "E5",
                    "midi": 76,
                    "time": 230.0645833333298,
                    "velocity": 0.3858267716535433,
                    "duration": 0.0583333333333087
                },
                {
                    "name": "C5",
                    "midi": 72,
                    "time": 230.11041666666313,
                    "velocity": 0.4881889763779528,
                    "duration": 0.052083333333314386
                },
                {
                    "name": "F#4",
                    "midi": 66,
                    "time": 230.19999999999644,
                    "velocity": 0.5039370078740157,
                    "duration": 0.12291666666666856
                },
                {
                    "name": "C#5",
                    "midi": 73,
                    "time": 230.19999999999644,
                    "velocity": 0.5039370078740157,
                    "duration": 0.09999999999999432
                },
                {
                    "name": "A#4",
                    "midi": 70,
                    "time": 230.19999999999644,
                    "velocity": 0.41732283464566927,
                    "duration": 0.11875000000000568
                },
                {
                    "name": "C5",
                    "midi": 72,
                    "time": 230.28958333332977,
                    "velocity": 0.4094488188976378,
                    "duration": 0.08125000000001137
                },
                {
                    "name": "E5",
                    "midi": 76,
                    "time": 230.34374999999645,
                    "velocity": 0.49606299212598426,
                    "duration": 0.1395833333333485
                },
                {
                    "name": "G5",
                    "midi": 79,
                    "time": 230.42499999999646,
                    "velocity": 0.6377952755905512,
                    "duration": 0.12499999999997158
                },
                {
                    "name": "C6",
                    "midi": 84,
                    "time": 230.47499999999647,
                    "velocity": 0.5905511811023622,
                    "duration": 0.04791666666665151
                },
                {
                    "name": "C#6",
                    "midi": 85,
                    "time": 230.51666666666313,
                    "velocity": 0.6929133858267716,
                    "duration": 0.10208333333329733
                },
                {
                    "name": "A#5",
                    "midi": 82,
                    "time": 230.53124999999645,
                    "velocity": 0.44881889763779526,
                    "duration": 0.06874999999999432
                },
                {
                    "name": "F#5",
                    "midi": 78,
                    "time": 230.5354166666631,
                    "velocity": 0.4881889763779528,
                    "duration": 0.12083333333333712
                },
                {
                    "name": "C6",
                    "midi": 84,
                    "time": 230.61249999999643,
                    "velocity": 0.5511811023622047,
                    "duration": 0.10208333333335418
                },
                {
                    "name": "G5",
                    "midi": 79,
                    "time": 230.63749999999644,
                    "velocity": 0.5275590551181102,
                    "duration": 0.15833333333333144
                },
                {
                    "name": "E5",
                    "midi": 76,
                    "time": 230.70624999999646,
                    "velocity": 0.4015748031496063,
                    "duration": 0.06041666666664014
                },
                {
                    "name": "C5",
                    "midi": 72,
                    "time": 230.75208333332978,
                    "velocity": 0.5275590551181102,
                    "duration": 0.04999999999998295
                },
                {
                    "name": "C#5",
                    "midi": 73,
                    "time": 230.81666666666308,
                    "velocity": 0.5590551181102362,
                    "duration": 0.04999999999998295
                },
                {
                    "name": "A#4",
                    "midi": 70,
                    "time": 230.8187499999964,
                    "velocity": 0.5118110236220472,
                    "duration": 0.08333333333331439
                },
                {
                    "name": "F#4",
                    "midi": 66,
                    "time": 230.8312499999964,
                    "velocity": 0.44881889763779526,
                    "duration": 0.052083333333314386
                },
                {
                    "name": "C5",
                    "midi": 72,
                    "time": 230.88124999999638,
                    "velocity": 0.44881889763779526,
                    "duration": 0.11250000000001137
                },
                {
                    "name": "E5",
                    "midi": 76,
                    "time": 230.9374999999964,
                    "velocity": 0.5118110236220472,
                    "duration": 0.1208333333333087
                },
                {
                    "name": "G5",
                    "midi": 79,
                    "time": 231.00624999999638,
                    "velocity": 0.6299212598425197,
                    "duration": 0.1312499999999659
                },
                {
                    "name": "C6",
                    "midi": 84,
                    "time": 231.04374999999638,
                    "velocity": 0.6377952755905512,
                    "duration": 0.04583333333332007
                },
                {
                    "name": "C#6",
                    "midi": 85,
                    "time": 231.09374999999636,
                    "velocity": 0.6929133858267716,
                    "duration": 0.04999999999998295
                },
                {
                    "name": "A#5",
                    "midi": 82,
                    "time": 231.10833333332968,
                    "velocity": 0.4645669291338583,
                    "duration": 0.05833333333333712
                },
                {
                    "name": "F#5",
                    "midi": 78,
                    "time": 231.11249999999634,
                    "velocity": 0.4881889763779528,
                    "duration": 0.13750000000001705
                },
                {
                    "name": "C6",
                    "midi": 84,
                    "time": 231.1645833333297,
                    "velocity": 0.6299212598425197,
                    "duration": 0.11458333333334281
                },
                {
                    "name": "G5",
                    "midi": 79,
                    "time": 231.19999999999635,
                    "velocity": 0.6692913385826772,
                    "duration": 0.17708333333337123
                },
                {
                    "name": "E5",
                    "midi": 76,
                    "time": 231.26041666666302,
                    "velocity": 0.3779527559055118,
                    "duration": 0.06458333333335986
                },
                {
                    "name": "C5",
                    "midi": 72,
                    "time": 231.30416666666304,
                    "velocity": 0.5905511811023622,
                    "duration": 0.04791666666667993
                },
                {
                    "name": "C#5",
                    "midi": 73,
                    "time": 231.3749999999964,
                    "velocity": 0.6535433070866141,
                    "duration": 0.09583333333330302
                },
                {
                    "name": "A#4",
                    "midi": 70,
                    "time": 231.38541666666305,
                    "velocity": 0.48031496062992124,
                    "duration": 0.07083333333332575
                },
                {
                    "name": "F#4",
                    "midi": 66,
                    "time": 231.38749999999638,
                    "velocity": 0.5511811023622047,
                    "duration": 0.06458333333333144
                },
                {
                    "name": "C5",
                    "midi": 72,
                    "time": 231.44374999999638,
                    "velocity": 0.3937007874015748,
                    "duration": 0.10833333333332007
                },
                {
                    "name": "E5",
                    "midi": 76,
                    "time": 231.4958333333297,
                    "velocity": 0.5118110236220472,
                    "duration": 0.12291666666669698
                },
                {
                    "name": "G5",
                    "midi": 79,
                    "time": 231.57499999999638,
                    "velocity": 0.5748031496062992,
                    "duration": 0.08958333333336554
                },
                {
                    "name": "C6",
                    "midi": 84,
                    "time": 231.59791666666305,
                    "velocity": 0.6535433070866141,
                    "duration": 0.04583333333334849
                },
                {
                    "name": "C#6",
                    "midi": 85,
                    "time": 231.66666666666308,
                    "velocity": 0.6929133858267716,
                    "duration": 0.08749999999997726
                },
                {
                    "name": "A#5",
                    "midi": 82,
                    "time": 231.68333333332976,
                    "velocity": 0.4645669291338583,
                    "duration": 0.07499999999996021
                },
                {
                    "name": "F#5",
                    "midi": 78,
                    "time": 231.69583333332974,
                    "velocity": 0.4330708661417323,
                    "duration": 0.10624999999996021
                },
                {
                    "name": "C6",
                    "midi": 84,
                    "time": 231.7249999999964,
                    "velocity": 0.5196850393700787,
                    "duration": 0.13541666666662877
                },
                {
                    "name": "G5",
                    "midi": 79,
                    "time": 231.73958333332973,
                    "velocity": 0.6850393700787402,
                    "duration": 0.14791666666664582
                },
                {
                    "name": "E5",
                    "midi": 76,
                    "time": 231.83124999999637,
                    "velocity": 0.4251968503937008,
                    "duration": 0.054166666666674246
                },
                {
                    "name": "C5",
                    "midi": 72,
                    "time": 231.87916666666305,
                    "velocity": 0.5433070866141733,
                    "duration": 0.04791666666665151
                },
                {
                    "name": "C#5",
                    "midi": 73,
                    "time": 231.96666666666303,
                    "velocity": 0.6929133858267716,
                    "duration": 0.05833333333333712
                },
                {
                    "name": "A#4",
                    "midi": 70,
                    "time": 231.96874999999636,
                    "velocity": 0.5905511811023622,
                    "duration": 0.05833333333333712
                },
                {
                    "name": "F#4",
                    "midi": 66,
                    "time": 231.99791666666303,
                    "velocity": 0.2204724409448819,
                    "duration": 0.07083333333332575
                },
                {
                    "name": "G4",
                    "midi": 67,
                    "time": 232.079166666663,
                    "velocity": 0.6062992125984252,
                    "duration": 0.125
                },
                {
                    "name": "C5",
                    "midi": 72,
                    "time": 232.11249999999634,
                    "velocity": 0.30708661417322836,
                    "duration": 0.15000000000000568
                },
                {
                    "name": "E5",
                    "midi": 76,
                    "time": 232.204166666663,
                    "velocity": 0.4566929133858268,
                    "duration": 0.07916666666665151
                },
                {
                    "name": "G5",
                    "midi": 79,
                    "time": 232.23124999999635,
                    "velocity": 0.6220472440944882,
                    "duration": 0.04583333333332007
                },
                {
                    "name": "A#5",
                    "midi": 82,
                    "time": 232.29374999999632,
                    "velocity": 0.6614173228346457,
                    "duration": 0.11666666666664582
                },
                {
                    "name": "F#5",
                    "midi": 78,
                    "time": 232.30416666666298,
                    "velocity": 0.5905511811023622,
                    "duration": 0.09583333333333144
                },
                {
                    "name": "G5",
                    "midi": 79,
                    "time": 232.38749999999632,
                    "velocity": 0.49606299212598426,
                    "duration": 0.12499999999997158
                },
                {
                    "name": "E5",
                    "midi": 76,
                    "time": 232.41666666666296,
                    "velocity": 0.2992125984251969,
                    "duration": 0.1354166666666572
                },
                {
                    "name": "C5",
                    "midi": 72,
                    "time": 232.45416666666296,
                    "velocity": 0.4645669291338583,
                    "duration": 0.09999999999999432
                },
                {
                    "name": "G4",
                    "midi": 67,
                    "time": 232.5270833333296,
                    "velocity": 0.4566929133858268,
                    "duration": 0.0625
                },
                {
                    "name": "C#5",
                    "midi": 73,
                    "time": 232.58749999999628,
                    "velocity": 0.6141732283464567,
                    "duration": 0.12708333333333144
                },
                {
                    "name": "A#4",
                    "midi": 70,
                    "time": 232.60416666666293,
                    "velocity": 0.3464566929133858,
                    "duration": 0.10208333333335418
                },
                {
                    "name": "F#4",
                    "midi": 66,
                    "time": 232.60624999999627,
                    "velocity": 0.3858267716535433,
                    "duration": 0.07708333333334849
                },
                {
                    "name": "G4",
                    "midi": 67,
                    "time": 232.66249999999627,
                    "velocity": 0.5196850393700787,
                    "duration": 0.06874999999999432
                },
                {
                    "name": "C5",
                    "midi": 72,
                    "time": 232.72291666666294,
                    "velocity": 0.4881889763779528,
                    "duration": 0.13333333333332575
                },
                {
                    "name": "E5",
                    "midi": 76,
                    "time": 232.79166666666293,
                    "velocity": 0.4015748031496063,
                    "duration": 0.06458333333333144
                },
                {
                    "name": "G5",
                    "midi": 79,
                    "time": 232.81874999999627,
                    "velocity": 0.5196850393700787,
                    "duration": 0.052083333333314386
                },
                {
                    "name": "A#5",
                    "midi": 82,
                    "time": 232.88124999999624,
                    "velocity": 0.6535433070866141,
                    "duration": 0.10416666666665719
                },
                {
                    "name": "F#5",
                    "midi": 78,
                    "time": 232.8916666666629,
                    "velocity": 0.5669291338582677,
                    "duration": 0.11041666666667993
                },
                {
                    "name": "G5",
                    "midi": 79,
                    "time": 232.94999999999624,
                    "velocity": 0.49606299212598426,
                    "duration": 0.125
                },
                {
                    "name": "E5",
                    "midi": 76,
                    "time": 232.97499999999624,
                    "velocity": 0.3858267716535433,
                    "duration": 0.2604166666666572
                },
                {
                    "name": "C5",
                    "midi": 72,
                    "time": 233.03958333332957,
                    "velocity": 0.41732283464566927,
                    "duration": 0.09166666666664014
                },
                {
                    "name": "G4",
                    "midi": 67,
                    "time": 233.08958333332956,
                    "velocity": 0.5826771653543307,
                    "duration": 0.06041666666666856
                },
                {
                    "name": "C#5",
                    "midi": 73,
                    "time": 233.16874999999624,
                    "velocity": 0.5826771653543307,
                    "duration": 0.12291666666666856
                },
                {
                    "name": "A#4",
                    "midi": 70,
                    "time": 233.18124999999623,
                    "velocity": 0.3937007874015748,
                    "duration": 0.12083333333333712
                },
                {
                    "name": "G4",
                    "midi": 67,
                    "time": 233.26874999999623,
                    "velocity": 0.23622047244094488,
                    "duration": 0.08124999999998295
                },
                {
                    "name": "C5",
                    "midi": 72,
                    "time": 233.3041666666629,
                    "velocity": 0.47244094488188976,
                    "duration": 0.08333333333331439
                },
                {
                    "name": "E5",
                    "midi": 76,
                    "time": 233.33749999999623,
                    "velocity": 0.23622047244094488,
                    "duration": 0.125
                },
                {
                    "name": "G5",
                    "midi": 79,
                    "time": 233.3874999999962,
                    "velocity": 0.5826771653543307,
                    "duration": 0.05208333333334281
                },
                {
                    "name": "A#5",
                    "midi": 82,
                    "time": 233.4604166666629,
                    "velocity": 0.6220472440944882,
                    "duration": 0.10624999999996021
                },
                {
                    "name": "F#5",
                    "midi": 78,
                    "time": 233.47708333332955,
                    "velocity": 0.48031496062992124,
                    "duration": 0.08749999999997726
                },
                {
                    "name": "G5",
                    "midi": 79,
                    "time": 233.5437499999962,
                    "velocity": 0.44881889763779526,
                    "duration": 0.10624999999996021
                },
                {
                    "name": "E5",
                    "midi": 76,
                    "time": 233.55208333332953,
                    "velocity": 0.3228346456692913,
                    "duration": 0.17916666666664582
                },
                {
                    "name": "C5",
                    "midi": 72,
                    "time": 233.63541666666285,
                    "velocity": 0.3700787401574803,
                    "duration": 0.06874999999999432
                },
                {
                    "name": "G4",
                    "midi": 67,
                    "time": 233.68124999999617,
                    "velocity": 0.4645669291338583,
                    "duration": 0.05833333333333712
                },
                {
                    "name": "C#5",
                    "midi": 73,
                    "time": 233.7708333333295,
                    "velocity": 0.2047244094488189,
                    "duration": 0.07708333333332007
                },
                {
                    "name": "F#4",
                    "midi": 66,
                    "time": 233.7770833333295,
                    "velocity": 0.2204724409448819,
                    "duration": 0.07083333333332575
                },
                {
                    "name": "A#4",
                    "midi": 70,
                    "time": 233.7833333333295,
                    "velocity": 0.2204724409448819,
                    "duration": 0.07291666666665719
                },
                {
                    "name": "G4",
                    "midi": 67,
                    "time": 233.82708333332948,
                    "velocity": 0.31496062992125984,
                    "duration": 0.0625
                },
                {
                    "name": "C5",
                    "midi": 72,
                    "time": 233.88541666666282,
                    "velocity": 0.3937007874015748,
                    "duration": 0.11874999999997726
                },
                {
                    "name": "E5",
                    "midi": 76,
                    "time": 233.93124999999614,
                    "velocity": 0.33070866141732286,
                    "duration": 0.08541666666664582
                },
                {
                    "name": "G5",
                    "midi": 79,
                    "time": 233.96874999999613,
                    "velocity": 0.4881889763779528,
                    "duration": 0.04999999999998295
                },
                {
                    "name": "A#5",
                    "midi": 82,
                    "time": 234.03749999999613,
                    "velocity": 0.5590551181102362,
                    "duration": 0.11875000000000568
                },
                {
                    "name": "F#5",
                    "midi": 78,
                    "time": 234.05833333332947,
                    "velocity": 0.4330708661417323,
                    "duration": 0.08333333333334281
                },
                {
                    "name": "G5",
                    "midi": 79,
                    "time": 234.11458333332948,
                    "velocity": 0.36220472440944884,
                    "duration": 0.12499999999997158
                },
                {
                    "name": "E5",
                    "midi": 76,
                    "time": 234.13124999999616,
                    "velocity": 0.33070866141732286,
                    "duration": 0.2874999999999659
                },
                {
                    "name": "C5",
                    "midi": 72,
                    "time": 234.20208333332945,
                    "velocity": 0.3700787401574803,
                    "duration": 0.08124999999998295
                },
                {
                    "name": "G4",
                    "midi": 67,
                    "time": 234.2749999999961,
                    "velocity": 0.3464566929133858,
                    "duration": 0.07083333333332575
                },
                {
                    "name": "A#4",
                    "midi": 70,
                    "time": 234.34166666666277,
                    "velocity": 0.4881889763779528,
                    "duration": 0.1395833333333485
                },
                {
                    "name": "F#4",
                    "midi": 66,
                    "time": 234.36249999999612,
                    "velocity": 0.33858267716535434,
                    "duration": 0.08125000000001137
                },
                {
                    "name": "G4",
                    "midi": 67,
                    "time": 234.4166666666628,
                    "velocity": 0.44881889763779526,
                    "duration": 0.07083333333332575
                },
                {
                    "name": "C5",
                    "midi": 72,
                    "time": 234.4666666666628,
                    "velocity": 0.3858267716535433,
                    "duration": 0.12291666666664014
                },
                {
                    "name": "E5",
                    "midi": 76,
                    "time": 234.52083333332945,
                    "velocity": 0.2440944881889764,
                    "duration": 0.1208333333333087
                },
                {
                    "name": "G5",
                    "midi": 79,
                    "time": 234.57499999999612,
                    "velocity": 0.4881889763779528,
                    "duration": 0.052083333333314386
                },
                {
                    "name": "F#5",
                    "midi": 78,
                    "time": 234.6624999999961,
                    "velocity": 0.5669291338582677,
                    "duration": 0.10208333333332575
                },
                {
                    "name": "C#5",
                    "midi": 73,
                    "time": 234.67708333332942,
                    "velocity": 0.3858267716535433,
                    "duration": 0.08750000000000568
                },
                {
                    "name": "G5",
                    "midi": 79,
                    "time": 234.70416666666276,
                    "velocity": 0.49606299212598426,
                    "duration": 0.12916666666666288
                },
                {
                    "name": "E5",
                    "midi": 76,
                    "time": 234.73541666666276,
                    "velocity": 0.2992125984251969,
                    "duration": 0.22291666666666288
                },
                {
                    "name": "C5",
                    "midi": 72,
                    "time": 234.82083333332943,
                    "velocity": 0.36220472440944884,
                    "duration": 0.06041666666666856
                },
                {
                    "name": "G4",
                    "midi": 67,
                    "time": 234.8812499999961,
                    "velocity": 0.2992125984251969,
                    "duration": 0.08333333333331439
                },
                {
                    "name": "A#4",
                    "midi": 70,
                    "time": 234.94166666666277,
                    "velocity": 0.33858267716535434,
                    "duration": 0.12916666666663446
                },
                {
                    "name": "F#4",
                    "midi": 66,
                    "time": 234.9437499999961,
                    "velocity": 0.33070866141732286,
                    "duration": 0.08333333333331439
                },
                {
                    "name": "G4",
                    "midi": 67,
                    "time": 235.03124999999608,
                    "velocity": 0.36220472440944884,
                    "duration": 0.06041666666666856
                },
                {
                    "name": "C5",
                    "midi": 72,
                    "time": 235.06874999999607,
                    "velocity": 0.3464566929133858,
                    "duration": 0.12500000000002842
                },
                {
                    "name": "E5",
                    "midi": 76,
                    "time": 235.13958333332943,
                    "velocity": 0.4251968503937008,
                    "duration": 0.0625
                },
                {
                    "name": "G5",
                    "midi": 79,
                    "time": 235.16666666666276,
                    "velocity": 0.5511811023622047,
                    "duration": 0.04999999999998295
                },
                {
                    "name": "F#5",
                    "midi": 78,
                    "time": 235.23333333332943,
                    "velocity": 0.5196850393700787,
                    "duration": 0.09166666666664014
                },
                {
                    "name": "C#5",
                    "midi": 73,
                    "time": 235.24791666666275,
                    "velocity": 0.4094488188976378,
                    "duration": 0.09791666666666288
                },
                {
                    "name": "G5",
                    "midi": 79,
                    "time": 235.31041666666275,
                    "velocity": 0.3464566929133858,
                    "duration": 0.12291666666666856
                },
                {
                    "name": "E5",
                    "midi": 76,
                    "time": 235.34791666666274,
                    "velocity": 0.2677165354330709,
                    "duration": 0.22499999999999432
                },
                {
                    "name": "C5",
                    "midi": 72,
                    "time": 235.4083333333294,
                    "velocity": 0.3700787401574803,
                    "duration": 0.056250000000005684
                },
                {
                    "name": "G4",
                    "midi": 67,
                    "time": 235.4562499999961,
                    "velocity": 0.4330708661417323,
                    "duration": 0.06041666666666856
                },
                {
                    "name": "A#4",
                    "midi": 70,
                    "time": 235.52708333332941,
                    "velocity": 0.3779527559055118,
                    "duration": 0.09375
                },
                {
                    "name": "F#4",
                    "midi": 66,
                    "time": 235.5333333333294,
                    "velocity": 0.31496062992125984,
                    "duration": 0.08541666666667425
                },
                {
                    "name": "G4",
                    "midi": 67,
                    "time": 235.5958333333294,
                    "velocity": 0.3937007874015748,
                    "duration": 0.07083333333335418
                },
                {
                    "name": "C5",
                    "midi": 72,
                    "time": 235.6437499999961,
                    "velocity": 0.3858267716535433,
                    "duration": 0.125
                },
                {
                    "name": "E5",
                    "midi": 76,
                    "time": 235.7249999999961,
                    "velocity": 0.33070866141732286,
                    "duration": 0.07499999999998863
                },
                {
                    "name": "G5",
                    "midi": 79,
                    "time": 235.77291666666275,
                    "velocity": 0.5039370078740157,
                    "duration": 0.05000000000001137
                },
                {
                    "name": "F#5",
                    "midi": 78,
                    "time": 235.8249999999961,
                    "velocity": 0.4881889763779528,
                    "duration": 0.10416666666668561
                },
                {
                    "name": "C#5",
                    "midi": 73,
                    "time": 235.84583333332944,
                    "velocity": 0.3779527559055118,
                    "duration": 0.07291666666668561
                },
                {
                    "name": "G5",
                    "midi": 79,
                    "time": 235.90208333332944,
                    "velocity": 0.47244094488188976,
                    "duration": 0.13333333333332575
                },
                {
                    "name": "E5",
                    "midi": 76,
                    "time": 235.95208333332945,
                    "velocity": 0.3543307086614173,
                    "duration": 0.1791666666666174
                },
                {
                    "name": "C5",
                    "midi": 72,
                    "time": 236.0249999999961,
                    "velocity": 0.3464566929133858,
                    "duration": 0.06041666666664014
                },
                {
                    "name": "G4",
                    "midi": 67,
                    "time": 236.07916666666276,
                    "velocity": 0.33070866141732286,
                    "duration": 0.07916666666665151
                },
                {
                    "name": "F#4",
                    "midi": 66,
                    "time": 236.1333333333294,
                    "velocity": 0.31496062992125984,
                    "duration": 0.09166666666666856
                },
                {
                    "name": "A#4",
                    "midi": 70,
                    "time": 236.13749999999607,
                    "velocity": 0.29133858267716534,
                    "duration": 0.08125000000001137
                },
                {
                    "name": "G4",
                    "midi": 67,
                    "time": 236.2270833333294,
                    "velocity": 0.28346456692913385,
                    "duration": 0.07291666666665719
                },
                {
                    "name": "C5",
                    "midi": 72,
                    "time": 236.3020833333294,
                    "velocity": 0.2440944881889764,
                    "duration": 0.07708333333334849
                },
                {
                    "name": "E5",
                    "midi": 76,
                    "time": 236.32916666666273,
                    "velocity": 0.2992125984251969,
                    "duration": 0.09791666666666288
                },
                {
                    "name": "G5",
                    "midi": 79,
                    "time": 236.36249999999606,
                    "velocity": 0.5039370078740157,
                    "duration": 0.05208333333334281
                },
                {
                    "name": "F#5",
                    "midi": 78,
                    "time": 236.45416666666273,
                    "velocity": 0.4251968503937008,
                    "duration": 0.08333333333334281
                },
                {
                    "name": "C#5",
                    "midi": 73,
                    "time": 236.47499999999607,
                    "velocity": 0.28346456692913385,
                    "duration": 0.06458333333333144
                },
                {
                    "name": "G5",
                    "midi": 79,
                    "time": 236.51874999999606,
                    "velocity": 0.30708661417322836,
                    "duration": 0.09375000000002842
                },
                {
                    "name": "E5",
                    "midi": 76,
                    "time": 236.55833333332941,
                    "velocity": 0.2677165354330709,
                    "duration": 0.13125000000002274
                },
                {
                    "name": "C5",
                    "midi": 72,
                    "time": 236.64166666666276,
                    "velocity": 0.4015748031496063,
                    "duration": 0.07083333333335418
                },
                {
                    "name": "G4",
                    "midi": 67,
                    "time": 236.71041666666278,
                    "velocity": 0.2755905511811024,
                    "duration": 0.07499999999998863
                },
                {
                    "name": "F#4",
                    "midi": 66,
                    "time": 236.77083333332945,
                    "velocity": 0.3464566929133858,
                    "duration": 0.1416666666666515
                },
                {
                    "name": "A#4",
                    "midi": 70,
                    "time": 236.78958333332943,
                    "velocity": 0.2125984251968504,
                    "duration": 0.09583333333333144
                },
                {
                    "name": "G4",
                    "midi": 67,
                    "time": 236.86041666666276,
                    "velocity": 0.41732283464566927,
                    "duration": 0.0625
                },
                {
                    "name": "C5",
                    "midi": 72,
                    "time": 236.95208333332943,
                    "velocity": 0.36220472440944884,
                    "duration": 0.08750000000000568
                },
                {
                    "name": "E5",
                    "midi": 76,
                    "time": 237.04583333332943,
                    "velocity": 0.25984251968503935,
                    "duration": 0.06041666666666856
                },
                {
                    "name": "F#5",
                    "midi": 78,
                    "time": 237.11666666666275,
                    "velocity": 0.4015748031496063,
                    "duration": 0.09999999999999432
                },
                {
                    "name": "C#5",
                    "midi": 73,
                    "time": 237.1437499999961,
                    "velocity": 0.2755905511811024,
                    "duration": 0.07291666666665719
                },
                {
                    "name": "E5",
                    "midi": 76,
                    "time": 237.18124999999608,
                    "velocity": 0.4251968503937008,
                    "duration": 0.08124999999998295
                },
                {
                    "name": "C5",
                    "midi": 72,
                    "time": 237.3020833333294,
                    "velocity": 0.28346456692913385,
                    "duration": 0.08541666666667425
                },
                {
                    "name": "G4",
                    "midi": 67,
                    "time": 237.38541666666273,
                    "velocity": 0.2992125984251969,
                    "duration": 0.07291666666665719
                },
                {
                    "name": "F#4",
                    "midi": 66,
                    "time": 237.45624999999606,
                    "velocity": 0.2677165354330709,
                    "duration": 0.15833333333330302
                },
                {
                    "name": "A#4",
                    "midi": 70,
                    "time": 237.49374999999606,
                    "velocity": 0.1889763779527559,
                    "duration": 0.08124999999998295
                },
                {
                    "name": "G4",
                    "midi": 67,
                    "time": 237.56041666666272,
                    "velocity": 0.2755905511811024,
                    "duration": 0.07499999999998863
                },
                {
                    "name": "C5",
                    "midi": 72,
                    "time": 237.65624999999605,
                    "velocity": 0.31496062992125984,
                    "duration": 0.09375
                },
                {
                    "name": "E5",
                    "midi": 76,
                    "time": 237.75624999999604,
                    "velocity": 0.23622047244094488,
                    "duration": 0.06458333333333144
                },
                {
                    "name": "F#5",
                    "midi": 78,
                    "time": 237.82499999999604,
                    "velocity": 0.33070866141732286,
                    "duration": 0.12291666666666856
                },
                {
                    "name": "C#5",
                    "midi": 73,
                    "time": 237.84999999999604,
                    "velocity": 0.30708661417322836,
                    "duration": 0.12083333333333712
                },
                {
                    "name": "E5",
                    "midi": 76,
                    "time": 237.91458333332938,
                    "velocity": 0.2755905511811024,
                    "duration": 0.08750000000000568
                },
                {
                    "name": "C5",
                    "midi": 72,
                    "time": 238.05416666666272,
                    "velocity": 0.1889763779527559,
                    "duration": 0.08333333333331439
                },
                {
                    "name": "G4",
                    "midi": 67,
                    "time": 238.12708333332938,
                    "velocity": 0.2992125984251969,
                    "duration": 0.08958333333333712
                },
                {
                    "name": "F#4",
                    "midi": 66,
                    "time": 238.2291666666627,
                    "velocity": 0.25984251968503935,
                    "duration": 0.1708333333333485
                },
                {
                    "name": "A#4",
                    "midi": 70,
                    "time": 238.24999999999605,
                    "velocity": 0.16535433070866143,
                    "duration": 0.09166666666666856
                },
                {
                    "name": "G4",
                    "midi": 67,
                    "time": 238.33124999999606,
                    "velocity": 0.29133858267716534,
                    "duration": 0.09166666666666856
                },
                {
                    "name": "C5",
                    "midi": 72,
                    "time": 238.4645833333294,
                    "velocity": 0.25196850393700787,
                    "duration": 0.12916666666666288
                },
                {
                    "name": "E5",
                    "midi": 76,
                    "time": 238.56458333332938,
                    "velocity": 0.25196850393700787,
                    "duration": 0.06666666666666288
                },
                {
                    "name": "F#5",
                    "midi": 78,
                    "time": 238.67499999999603,
                    "velocity": 0.2755905511811024,
                    "duration": 0.0979166666666913
                },
                {
                    "name": "C#5",
                    "midi": 73,
                    "time": 238.69374999999604,
                    "velocity": 0.2677165354330709,
                    "duration": 0.10000000000002274
                },
                {
                    "name": "E5",
                    "midi": 76,
                    "time": 238.81249999999608,
                    "velocity": 0.14960629921259844,
                    "duration": 0.09375
                },
                {
                    "name": "C5",
                    "midi": 72,
                    "time": 238.9249999999961,
                    "velocity": 0.2440944881889764,
                    "duration": 0.11250000000001137
                },
                {
                    "name": "G4",
                    "midi": 67,
                    "time": 239.08333333332942,
                    "velocity": 0.2440944881889764,
                    "duration": 0.09375
                },
                {
                    "name": "F#4",
                    "midi": 66,
                    "time": 239.1999999999961,
                    "velocity": 0.14960629921259844,
                    "duration": 0.45416666666667993
                },
                {
                    "name": "A#4",
                    "midi": 70,
                    "time": 239.22708333332943,
                    "velocity": 0.2125984251968504,
                    "duration": 0.10624999999998863
                },
                {
                    "name": "G4",
                    "midi": 67,
                    "time": 239.39166666666276,
                    "velocity": 0.11811023622047244,
                    "duration": 0.11875000000000568
                },
                {
                    "name": "C5",
                    "midi": 72,
                    "time": 239.5624999999961,
                    "velocity": 0.15748031496062992,
                    "duration": 0.11041666666667993
                },
                {
                    "name": "E5",
                    "midi": 76,
                    "time": 239.7354166666628,
                    "velocity": 0.23622047244094488,
                    "duration": 0.08125000000001137
                },
                {
                    "name": "F#5",
                    "midi": 78,
                    "time": 239.9041666666628,
                    "velocity": 0.1968503937007874,
                    "duration": 0.18125000000000568
                },
                {
                    "name": "C#5",
                    "midi": 73,
                    "time": 239.95416666666281,
                    "velocity": 0.16535433070866143,
                    "duration": 0.10208333333332575
                },
                {
                    "name": "E5",
                    "midi": 76,
                    "time": 240.1479166666628,
                    "velocity": 0.1889763779527559,
                    "duration": 0.22291666666666288
                },
                {
                    "name": "C5",
                    "midi": 72,
                    "time": 240.40624999999613,
                    "velocity": 0.14960629921259844,
                    "duration": 0.16249999999999432
                },
                {
                    "name": "G4",
                    "midi": 67,
                    "time": 240.69374999999613,
                    "velocity": 0.25196850393700787,
                    "duration": 0.09375
                },
                {
                    "name": "G5",
                    "midi": 79,
                    "time": 241.1229166666628,
                    "velocity": 0.36220472440944884,
                    "duration": 0.3854166666666856
                },
                {
                    "name": "C5",
                    "midi": 72,
                    "time": 241.12499999999613,
                    "velocity": 0.14960629921259844,
                    "duration": 0.3208333333333542
                },
                {
                    "name": "F4",
                    "midi": 65,
                    "time": 241.12708333332947,
                    "velocity": 0.08661417322834646,
                    "duration": 0.30416666666670267
                },
                {
                    "name": "D#5",
                    "midi": 75,
                    "time": 241.15208333332947,
                    "velocity": 0.2204724409448819,
                    "duration": 0.3395833333333371
                },
                {
                    "name": "A4",
                    "midi": 69,
                    "time": 241.45833333332948,
                    "velocity": 0.11811023622047244,
                    "duration": 0.0979166666666913
                },
                {
                    "name": "D5",
                    "midi": 74,
                    "time": 241.48333333332948,
                    "velocity": 0.047244094488188976,
                    "duration": 0.054166666666674246
                },
                {
                    "name": "A4",
                    "midi": 69,
                    "time": 241.71249999999617,
                    "velocity": 0.16535433070866143,
                    "duration": 0.09166666666666856
                },
                {
                    "name": "D5",
                    "midi": 74,
                    "time": 241.71249999999617,
                    "velocity": 0.25196850393700787,
                    "duration": 0.22499999999999432
                },
                {
                    "name": "A5",
                    "midi": 81,
                    "time": 241.7145833333295,
                    "velocity": 0.44881889763779526,
                    "duration": 0.26249999999998863
                },
                {
                    "name": "F5",
                    "midi": 77,
                    "time": 241.74166666666284,
                    "velocity": 0.30708661417322836,
                    "duration": 0.07708333333332007
                },
                {
                    "name": "C5",
                    "midi": 72,
                    "time": 241.97291666666283,
                    "velocity": 0.3228346456692913,
                    "duration": 0.0583333333333087
                },
                {
                    "name": "F4",
                    "midi": 65,
                    "time": 241.9916666666628,
                    "velocity": 0.2125984251968504,
                    "duration": 0.07291666666665719
                },
                {
                    "name": "C#5",
                    "midi": 73,
                    "time": 242.2291666666628,
                    "velocity": 0.2677165354330709,
                    "duration": 0.3645833333333428
                },
                {
                    "name": "D#4",
                    "midi": 63,
                    "time": 242.24999999999613,
                    "velocity": 0.33858267716535434,
                    "duration": 0.2562499999999943
                },
                {
                    "name": "A#4",
                    "midi": 70,
                    "time": 242.24999999999613,
                    "velocity": 0.2204724409448819,
                    "duration": 0.3125
                },
                {
                    "name": "F5",
                    "midi": 77,
                    "time": 242.25208333332947,
                    "velocity": 0.33070866141732286,
                    "duration": 0.3395833333333371
                },
                {
                    "name": "C5",
                    "midi": 72,
                    "time": 242.51458333332945,
                    "velocity": 0.3543307086614173,
                    "duration": 0.07083333333335418
                },
                {
                    "name": "G4",
                    "midi": 67,
                    "time": 242.53124999999613,
                    "velocity": 0.25984251968503935,
                    "duration": 0.07916666666667993
                },
                {
                    "name": "C6",
                    "midi": 84,
                    "time": 242.73958333332948,
                    "velocity": 0.5905511811023622,
                    "duration": 0.10208333333332575
                },
                {
                    "name": "G5",
                    "midi": 79,
                    "time": 242.78124999999613,
                    "velocity": 0.36220472440944884,
                    "duration": 0.08750000000000568
                },
                {
                    "name": "C5",
                    "midi": 72,
                    "time": 242.78333333332947,
                    "velocity": 0.2047244094488189,
                    "duration": 0.08750000000000568
                },
                {
                    "name": "G4",
                    "midi": 67,
                    "time": 242.8166666666628,
                    "velocity": 0.10236220472440945,
                    "duration": 0.11250000000001137
                },
                {
                    "name": "A#4",
                    "midi": 70,
                    "time": 243.0083333333295,
                    "velocity": 0.3228346456692913,
                    "duration": 0.07083333333329733
                },
                {
                    "name": "D#4",
                    "midi": 63,
                    "time": 243.0083333333295,
                    "velocity": 0.3464566929133858,
                    "duration": 0.06249999999997158
                },
                {
                    "name": "F5",
                    "midi": 77,
                    "time": 243.01249999999615,
                    "velocity": 0.5118110236220472,
                    "duration": 0.11249999999995453
                },
                {
                    "name": "C#5",
                    "midi": 73,
                    "time": 243.02708333332947,
                    "velocity": 0.2204724409448819,
                    "duration": 0.06249999999997158
                },
                {
                    "name": "G5",
                    "midi": 79,
                    "time": 243.26458333332943,
                    "velocity": 0.5590551181102362,
                    "duration": 0.24166666666664582
                },
                {
                    "name": "C5",
                    "midi": 72,
                    "time": 243.27499999999608,
                    "velocity": 0.31496062992125984,
                    "duration": 0.23958333333331439
                },
                {
                    "name": "D#5",
                    "midi": 75,
                    "time": 243.28541666666274,
                    "velocity": 0.28346456692913385,
                    "duration": 0.24999999999997158
                },
                {
                    "name": "F4",
                    "midi": 65,
                    "time": 243.29166666666273,
                    "velocity": 0.2125984251968504,
                    "duration": 0.2291666666666572
                },
                {
                    "name": "A4",
                    "midi": 69,
                    "time": 243.5270833333294,
                    "velocity": 0.2440944881889764,
                    "duration": 0.08124999999998295
                },
                {
                    "name": "D5",
                    "midi": 74,
                    "time": 243.53333333332938,
                    "velocity": 0.3228346456692913,
                    "duration": 0.06041666666666856
                },
                {
                    "name": "D5",
                    "midi": 74,
                    "time": 243.78958333332938,
                    "velocity": 0.33070866141732286,
                    "duration": 0.14375000000001137
                },
                {
                    "name": "A4",
                    "midi": 69,
                    "time": 243.79374999999604,
                    "velocity": 0.2125984251968504,
                    "duration": 0.08958333333333712
                },
                {
                    "name": "A5",
                    "midi": 81,
                    "time": 243.8229166666627,
                    "velocity": 0.47244094488188976,
                    "duration": 0.08750000000000568
                },
                {
                    "name": "F5",
                    "midi": 77,
                    "time": 243.8395833333294,
                    "velocity": 0.2283464566929134,
                    "duration": 0.06874999999999432
                },
                {
                    "name": "C5",
                    "midi": 72,
                    "time": 244.0666666666627,
                    "velocity": 0.25196850393700787,
                    "duration": 0.06666666666666288
                },
                {
                    "name": "F4",
                    "midi": 65,
                    "time": 244.07499999999604,
                    "velocity": 0.23622047244094488,
                    "duration": 0.06666666666666288
                },
                {
                    "name": "D#4",
                    "midi": 63,
                    "time": 244.34583333332938,
                    "velocity": 0.29133858267716534,
                    "duration": 0.2604166666666572
                },
                {
                    "name": "F5",
                    "midi": 77,
                    "time": 244.35833333332937,
                    "velocity": 0.3228346456692913,
                    "duration": 0.29375000000001705
                },
                {
                    "name": "A#4",
                    "midi": 70,
                    "time": 244.35833333332937,
                    "velocity": 0.2047244094488189,
                    "duration": 0.2958333333333485
                },
                {
                    "name": "C#5",
                    "midi": 73,
                    "time": 244.3854166666627,
                    "velocity": 0.16535433070866143,
                    "duration": 0.3166666666666913
                },
                {
                    "name": "C5",
                    "midi": 72,
                    "time": 244.62291666666272,
                    "velocity": 0.25984251968503935,
                    "duration": 0.08125000000001137
                },
                {
                    "name": "G4",
                    "midi": 67,
                    "time": 244.62291666666272,
                    "velocity": 0.2125984251968504,
                    "duration": 0.08958333333333712
                },
                {
                    "name": "C6",
                    "midi": 84,
                    "time": 244.84374999999605,
                    "velocity": 0.5039370078740157,
                    "duration": 0.09375
                },
                {
                    "name": "G5",
                    "midi": 79,
                    "time": 244.87708333332938,
                    "velocity": 0.3779527559055118,
                    "duration": 0.09791666666666288
                },
                {
                    "name": "C5",
                    "midi": 72,
                    "time": 244.8791666666627,
                    "velocity": 0.31496062992125984,
                    "duration": 0.08333333333334281
                },
                {
                    "name": "G4",
                    "midi": 67,
                    "time": 244.89791666666272,
                    "velocity": 0.25196850393700787,
                    "duration": 0.07916666666665151
                },
                {
                    "name": "F5",
                    "midi": 77,
                    "time": 245.10833333332937,
                    "velocity": 0.5433070866141733,
                    "duration": 0.14374999999998295
                },
                {
                    "name": "A#4",
                    "midi": 70,
                    "time": 245.1104166666627,
                    "velocity": 0.36220472440944884,
                    "duration": 0.07916666666665151
                },
                {
                    "name": "D#4",
                    "midi": 63,
                    "time": 245.11249999999603,
                    "velocity": 0.3779527559055118,
                    "duration": 0.0625
                },
                {
                    "name": "C#5",
                    "midi": 73,
                    "time": 245.1291666666627,
                    "velocity": 0.2125984251968504,
                    "duration": 0.06041666666664014
                },
                {
                    "name": "G5",
                    "midi": 79,
                    "time": 245.3666666666627,
                    "velocity": 0.6062992125984252,
                    "duration": 0.21041666666667425
                },
                {
                    "name": "C5",
                    "midi": 72,
                    "time": 245.36874999999603,
                    "velocity": 0.3937007874015748,
                    "duration": 0.20416666666667993
                },
                {
                    "name": "F4",
                    "midi": 65,
                    "time": 245.37708333332935,
                    "velocity": 0.3228346456692913,
                    "duration": 0.1291666666666913
                },
                {
                    "name": "D#5",
                    "midi": 75,
                    "time": 245.3979166666627,
                    "velocity": 0.31496062992125984,
                    "duration": 0.20416666666667993
                },
                {
                    "name": "D5",
                    "midi": 74,
                    "time": 245.61458333332936,
                    "velocity": 0.4409448818897638,
                    "duration": 0.0625
                },
                {
                    "name": "A4",
                    "midi": 69,
                    "time": 245.6354166666627,
                    "velocity": 0.23622047244094488,
                    "duration": 0.07708333333332007
                },
                {
                    "name": "D5",
                    "midi": 74,
                    "time": 245.87708333332935,
                    "velocity": 0.36220472440944884,
                    "duration": 0.14999999999997726
                },
                {
                    "name": "A4",
                    "midi": 69,
                    "time": 245.88124999999602,
                    "velocity": 0.29133858267716534,
                    "duration": 0.08124999999998295
                },
                {
                    "name": "A5",
                    "midi": 81,
                    "time": 245.88124999999602,
                    "velocity": 0.5275590551181102,
                    "duration": 0.11458333333331439
                },
                {
                    "name": "F5",
                    "midi": 77,
                    "time": 245.918749999996,
                    "velocity": 0.33070866141732286,
                    "duration": 0.05624999999997726
                },
                {
                    "name": "C5",
                    "midi": 72,
                    "time": 246.13333333332932,
                    "velocity": 0.33070866141732286,
                    "duration": 0.05833333333333712
                },
                {
                    "name": "F4",
                    "midi": 65,
                    "time": 246.13541666666265,
                    "velocity": 0.3464566929133858,
                    "duration": 0.056250000000005684
                },
                {
                    "name": "F5",
                    "midi": 77,
                    "time": 246.38749999999598,
                    "velocity": 0.44881889763779526,
                    "duration": 0.21041666666664582
                },
                {
                    "name": "D#4",
                    "midi": 63,
                    "time": 246.39791666666264,
                    "velocity": 0.33858267716535434,
                    "duration": 0.2041666666666515
                },
                {
                    "name": "A#4",
                    "midi": 70,
                    "time": 246.40624999999596,
                    "velocity": 0.2204724409448819,
                    "duration": 0.28541666666663446
                },
                {
                    "name": "C#5",
                    "midi": 73,
                    "time": 246.4145833333293,
                    "velocity": 0.23622047244094488,
                    "duration": 0.18958333333333144
                },
                {
                    "name": "C5",
                    "midi": 72,
                    "time": 246.66874999999595,
                    "velocity": 0.29133858267716534,
                    "duration": 0.0687499999999659
                },
                {
                    "name": "G4",
                    "midi": 67,
                    "time": 246.67708333332928,
                    "velocity": 0.25196850393700787,
                    "duration": 0.07291666666662877
                },
                {
                    "name": "G5",
                    "midi": 79,
                    "time": 246.91666666666256,
                    "velocity": 0.5275590551181102,
                    "duration": 0.12708333333330302
                },
                {
                    "name": "C5",
                    "midi": 72,
                    "time": 246.92708333332922,
                    "velocity": 0.3228346456692913,
                    "duration": 0.08124999999998295
                },
                {
                    "name": "D#5",
                    "midi": 75,
                    "time": 246.9395833333292,
                    "velocity": 0.31496062992125984,
                    "duration": 0.10416666666665719
                },
                {
                    "name": "G4",
                    "midi": 67,
                    "time": 246.9520833333292,
                    "velocity": 0.13385826771653545,
                    "duration": 0.10833333333334849
                },
                {
                    "name": "A#4",
                    "midi": 70,
                    "time": 247.15208333332922,
                    "velocity": 0.3228346456692913,
                    "duration": 0.0625
                },
                {
                    "name": "D#4",
                    "midi": 63,
                    "time": 247.17083333332923,
                    "velocity": 0.2755905511811024,
                    "duration": 0.06666666666666288
                },
                {
                    "name": "D#5",
                    "midi": 75,
                    "time": 247.43333333332922,
                    "velocity": 0.36220472440944884,
                    "duration": 0.24791666666669698
                },
                {
                    "name": "G#4",
                    "midi": 68,
                    "time": 247.4499999999959,
                    "velocity": 0.2204724409448819,
                    "duration": 0.2958333333333485
                },
                {
                    "name": "C#4",
                    "midi": 61,
                    "time": 247.45208333332923,
                    "velocity": 0.2047244094488189,
                    "duration": 0.3083333333333371
                },
                {
                    "name": "B4",
                    "midi": 71,
                    "time": 247.45833333332922,
                    "velocity": 0.33070866141732286,
                    "duration": 0.17500000000001137
                },
                {
                    "name": "A#4",
                    "midi": 70,
                    "time": 247.71041666666258,
                    "velocity": 0.2204724409448819,
                    "duration": 0.07916666666665151
                },
                {
                    "name": "F4",
                    "midi": 65,
                    "time": 247.73333333332926,
                    "velocity": 0.1732283464566929,
                    "duration": 0.07499999999998863
                },
                {
                    "name": "A#4",
                    "midi": 70,
                    "time": 247.9999999999959,
                    "velocity": 0.2283464566929134,
                    "duration": 0.21875
                },
                {
                    "name": "F5",
                    "midi": 77,
                    "time": 248.0166666666626,
                    "velocity": 0.36220472440944884,
                    "duration": 0.12708333333333144
                },
                {
                    "name": "C#5",
                    "midi": 73,
                    "time": 248.0249999999959,
                    "velocity": 0.25196850393700787,
                    "duration": 0.15833333333333144
                },
                {
                    "name": "F4",
                    "midi": 65,
                    "time": 248.0249999999959,
                    "velocity": 0.10236220472440945,
                    "duration": 0.09375
                },
                {
                    "name": "G#4",
                    "midi": 68,
                    "time": 248.29999999999592,
                    "velocity": 0.2283464566929134,
                    "duration": 0.07708333333332007
                },
                {
                    "name": "C#4",
                    "midi": 61,
                    "time": 248.30416666666258,
                    "velocity": 0.1968503937007874,
                    "duration": 0.09166666666666856
                },
                {
                    "name": "F#4",
                    "midi": 66,
                    "time": 248.65208333332924,
                    "velocity": 0.16535433070866143,
                    "duration": 0.38541666666662877
                },
                {
                    "name": "B3",
                    "midi": 59,
                    "time": 248.66041666666257,
                    "velocity": 0.15748031496062992,
                    "duration": 0.27916666666666856
                },
                {
                    "name": "C#5",
                    "midi": 73,
                    "time": 248.66458333332923,
                    "velocity": 0.1968503937007874,
                    "duration": 0.35624999999998863
                },
                {
                    "name": "A4",
                    "midi": 69,
                    "time": 248.7062499999959,
                    "velocity": 0.11023622047244094,
                    "duration": 0.2770833333333371
                },
                {
                    "name": "G#4",
                    "midi": 68,
                    "time": 249.02291666666255,
                    "velocity": 0.1889763779527559,
                    "duration": 0.1937499999999659
                },
                {
                    "name": "D#4",
                    "midi": 63,
                    "time": 249.04999999999586,
                    "velocity": 0.15748031496062992,
                    "duration": 0.09375
                },
                {
                    "name": "G#4",
                    "midi": 68,
                    "time": 249.54791666666253,
                    "velocity": 0.2047244094488189,
                    "duration": 0.6958333333333258
                },
                {
                    "name": "D#5",
                    "midi": 75,
                    "time": 249.56041666666252,
                    "velocity": 0.11811023622047244,
                    "duration": 1.2854166666666913
                },
                {
                    "name": "D#4",
                    "midi": 63,
                    "time": 249.56249999999585,
                    "velocity": 0.15748031496062992,
                    "duration": 0.7104166666666742
                },
                {
                    "name": "B4",
                    "midi": 71,
                    "time": 249.5833333333292,
                    "velocity": 0.2125984251968504,
                    "duration": 1.2145833333333371
                },
                {
                    "name": "F#4",
                    "midi": 66,
                    "time": 250.2020833333292,
                    "velocity": 0.15748031496062992,
                    "duration": 1.0458333333333485
                },
                {
                    "name": "B3",
                    "midi": 59,
                    "time": 250.2333333333292,
                    "velocity": 0.15748031496062992,
                    "duration": 0.7291666666666856
                },
                {
                    "name": "C#5",
                    "midi": 73,
                    "time": 252.19999999999587,
                    "velocity": 0.4330708661417323,
                    "duration": 0.560416666666697
                },
                {
                    "name": "C#4",
                    "midi": 61,
                    "time": 252.23749999999586,
                    "velocity": 0.1889763779527559,
                    "duration": 0.16458333333335418
                },
                {
                    "name": "A3",
                    "midi": 57,
                    "time": 252.25624999999587,
                    "velocity": 0.12598425196850394,
                    "duration": 0.24375000000000568
                },
                {
                    "name": "B2",
                    "midi": 47,
                    "time": 252.2645833333292,
                    "velocity": 0.14960629921259844,
                    "duration": 0.2333333333333485
                },
                {
                    "name": "F#3",
                    "midi": 54,
                    "time": 252.2645833333292,
                    "velocity": 0.15748031496062992,
                    "duration": 0.26875000000001137
                },
                {
                    "name": "F#4",
                    "midi": 66,
                    "time": 252.2833333333292,
                    "velocity": 0.031496062992125984,
                    "duration": 0.32083333333332575
                },
                {
                    "name": "D#4",
                    "midi": 63,
                    "time": 252.62499999999588,
                    "velocity": 0.1968503937007874,
                    "duration": 0.08541666666667425
                },
                {
                    "name": "G#4",
                    "midi": 68,
                    "time": 252.65624999999588,
                    "velocity": 0.15748031496062992,
                    "duration": 0.10833333333334849
                },
                {
                    "name": "D#5",
                    "midi": 75,
                    "time": 252.93333333332922,
                    "velocity": 0.5748031496062992,
                    "duration": 0.1312499999999659
                },
                {
                    "name": "D#4",
                    "midi": 63,
                    "time": 252.9458333333292,
                    "velocity": 0.30708661417322836,
                    "duration": 0.14374999999998295
                },
                {
                    "name": "G#4",
                    "midi": 68,
                    "time": 252.9895833333292,
                    "velocity": 0.14173228346456693,
                    "duration": 0.4520833333333485
                },
                {
                    "name": "E3",
                    "midi": 52,
                    "time": 252.99999999999585,
                    "velocity": 0.18110236220472442,
                    "duration": 0.17291666666667993
                },
                {
                    "name": "B3",
                    "midi": 59,
                    "time": 253.02499999999586,
                    "velocity": 0.08661417322834646,
                    "duration": 0.08125000000001137
                },
                {
                    "name": "C#4",
                    "midi": 61,
                    "time": 253.2458333333292,
                    "velocity": 0.2992125984251969,
                    "duration": 0.11250000000001137
                },
                {
                    "name": "F#4",
                    "midi": 66,
                    "time": 253.26874999999586,
                    "velocity": 0.14960629921259844,
                    "duration": 0.08958333333333712
                },
                {
                    "name": "B4",
                    "midi": 71,
                    "time": 253.53749999999587,
                    "velocity": 0.6614173228346457,
                    "duration": 0.3958333333333144
                },
                {
                    "name": "G3",
                    "midi": 55,
                    "time": 253.57916666666253,
                    "velocity": 0.23622047244094488,
                    "duration": 0.20208333333332007
                },
                {
                    "name": "A2",
                    "midi": 45,
                    "time": 253.57916666666253,
                    "velocity": 0.15748031496062992,
                    "duration": 0.17916666666667425
                },
                {
                    "name": "E4",
                    "midi": 64,
                    "time": 253.59166666666252,
                    "velocity": 0.2283464566929134,
                    "duration": 0.2083333333333428
                },
                {
                    "name": "E3",
                    "midi": 52,
                    "time": 253.61041666666253,
                    "velocity": 0.1732283464566929,
                    "duration": 0.15833333333333144
                },
                {
                    "name": "C#4",
                    "midi": 61,
                    "time": 253.84166666666252,
                    "velocity": 0.2992125984251969,
                    "duration": 0.0625
                },
                {
                    "name": "F#4",
                    "midi": 66,
                    "time": 253.85208333332918,
                    "velocity": 0.28346456692913385,
                    "duration": 0.07916666666667993
                },
                {
                    "name": "F#5",
                    "midi": 78,
                    "time": 254.14166666666253,
                    "velocity": 0.5984251968503937,
                    "duration": 0.21666666666666856
                },
                {
                    "name": "C#4",
                    "midi": 61,
                    "time": 254.15624999999585,
                    "velocity": 0.23622047244094488,
                    "duration": 0.15416666666666856
                },
                {
                    "name": "C#5",
                    "midi": 73,
                    "time": 254.16874999999584,
                    "velocity": 0.28346456692913385,
                    "duration": 0.09166666666666856
                },
                {
                    "name": "F#4",
                    "midi": 66,
                    "time": 254.17083333332917,
                    "velocity": 0.12598425196850394,
                    "duration": 0.08750000000000568
                },
                {
                    "name": "A3",
                    "midi": 57,
                    "time": 254.1854166666625,
                    "velocity": 0.18110236220472442,
                    "duration": 0.09583333333335986
                },
                {
                    "name": "D3",
                    "midi": 50,
                    "time": 254.2041666666625,
                    "velocity": 0.1732283464566929,
                    "duration": 0.0979166666666913
                },
                {
                    "name": "D5",
                    "midi": 74,
                    "time": 254.45416666666253,
                    "velocity": 0.6377952755905512,
                    "duration": 0.07500000000001705
                },
                {
                    "name": "A4",
                    "midi": 69,
                    "time": 254.47291666666254,
                    "velocity": 0.2992125984251969,
                    "duration": 0.07083333333332575
                },
                {
                    "name": "B2",
                    "midi": 47,
                    "time": 254.66041666666254,
                    "velocity": 0.25984251968503935,
                    "duration": 0.2916666666666572
                },
                {
                    "name": "F#3",
                    "midi": 54,
                    "time": 254.70624999999586,
                    "velocity": 0.2440944881889764,
                    "duration": 0.2916666666666856
                },
                {
                    "name": "A3",
                    "midi": 57,
                    "time": 254.76041666666254,
                    "velocity": 0.31496062992125984,
                    "duration": 0.2395833333333428
                },
                {
                    "name": "C#5",
                    "midi": 73,
                    "time": 254.7645833333292,
                    "velocity": 0.5669291338582677,
                    "duration": 0.435416666666697
                },
                {
                    "name": "C#4",
                    "midi": 61,
                    "time": 254.77916666666252,
                    "velocity": 0.4645669291338583,
                    "duration": 0.11666666666667425
                },
                {
                    "name": "F#4",
                    "midi": 66,
                    "time": 254.80624999999586,
                    "velocity": 0.18110236220472442,
                    "duration": 0.11250000000001137
                },
                {
                    "name": "D#4",
                    "midi": 63,
                    "time": 255.0812499999959,
                    "velocity": 0.3700787401574803,
                    "duration": 0.06041666666666856
                },
                {
                    "name": "G#4",
                    "midi": 68,
                    "time": 255.08749999999588,
                    "velocity": 0.31496062992125984,
                    "duration": 0.09375
                },
                {
                    "name": "D#5",
                    "midi": 75,
                    "time": 255.3562499999959,
                    "velocity": 0.5905511811023622,
                    "duration": 0.1374999999999602
                },
                {
                    "name": "D#4",
                    "midi": 63,
                    "time": 255.37083333332922,
                    "velocity": 0.3228346456692913,
                    "duration": 0.1208333333333087
                },
                {
                    "name": "E3",
                    "midi": 52,
                    "time": 255.39791666666255,
                    "velocity": 0.2755905511811024,
                    "duration": 0.09374999999997158
                },
                {
                    "name": "B3",
                    "midi": 59,
                    "time": 255.40624999999588,
                    "velocity": 0.2125984251968504,
                    "duration": 0.08749999999997726
                },
                {
                    "name": "G#4",
                    "midi": 68,
                    "time": 255.41666666666254,
                    "velocity": 0.18110236220472442,
                    "duration": 0.45624999999998295
                },
                {
                    "name": "C#4",
                    "midi": 61,
                    "time": 255.6604166666625,
                    "velocity": 0.36220472440944884,
                    "duration": 0.08541666666667425
                },
                {
                    "name": "F#4",
                    "midi": 66,
                    "time": 255.66249999999584,
                    "velocity": 0.2677165354330709,
                    "duration": 0.08541666666667425
                },
                {
                    "name": "B4",
                    "midi": 71,
                    "time": 255.97708333332918,
                    "velocity": 0.5275590551181102,
                    "duration": 0.4583333333334281
                },
                {
                    "name": "B3",
                    "midi": 59,
                    "time": 255.99791666666252,
                    "velocity": 0.2440944881889764,
                    "duration": 0.12083333333336554
                },
                {
                    "name": "G3",
                    "midi": 55,
                    "time": 256.0041666666625,
                    "velocity": 0.1968503937007874,
                    "duration": 0.25833333333343944
                },
                {
                    "name": "A2",
                    "midi": 45,
                    "time": 256.0166666666625,
                    "velocity": 0.11023622047244094,
                    "duration": 0.22708333333343944
                },
                {
                    "name": "E4",
                    "midi": 64,
                    "time": 256.01874999999586,
                    "velocity": 0.2677165354330709,
                    "duration": 0.22291666666671972
                },
                {
                    "name": "E3",
                    "midi": 52,
                    "time": 256.01874999999586,
                    "velocity": 0.1968503937007874,
                    "duration": 0.18958333333335986
                },
                {
                    "name": "C#4",
                    "midi": 61,
                    "time": 256.31874999999593,
                    "velocity": 0.2283464566929134,
                    "duration": 0.07291666666668561
                },
                {
                    "name": "F#4",
                    "midi": 66,
                    "time": 256.32708333332926,
                    "velocity": 0.1889763779527559,
                    "duration": 0.11458333333337123
                },
                {
                    "name": "F#5",
                    "midi": 78,
                    "time": 256.662499999996,
                    "velocity": 0.4881889763779528,
                    "duration": 0.2333333333333485
                },
                {
                    "name": "F#4",
                    "midi": 66,
                    "time": 256.67916666666264,
                    "velocity": 0.2047244094488189,
                    "duration": 0.13333333333332575
                },
                {
                    "name": "C#4",
                    "midi": 61,
                    "time": 256.69791666666265,
                    "velocity": 0.18110236220472442,
                    "duration": 0.16041666666666288
                },
                {
                    "name": "D3",
                    "midi": 50,
                    "time": 256.71666666666266,
                    "velocity": 0.2047244094488189,
                    "duration": 0.15208333333333712
                },
                {
                    "name": "A3",
                    "midi": 57,
                    "time": 256.72708333332935,
                    "velocity": 0.12598425196850394,
                    "duration": 0.12291666666664014
                },
                {
                    "name": "C#5",
                    "midi": 73,
                    "time": 256.7520833333293,
                    "velocity": 0.031496062992125984,
                    "duration": 0.11250000000001137
                },
                {
                    "name": "D5",
                    "midi": 74,
                    "time": 257.0166666666627,
                    "velocity": 0.49606299212598426,
                    "duration": 0.11250000000001137
                },
                {
                    "name": "A4",
                    "midi": 69,
                    "time": 257.043749999996,
                    "velocity": 0.2125984251968504,
                    "duration": 0.08125000000001137
                },
                {
                    "name": "B2",
                    "midi": 47,
                    "time": 257.356249999996,
                    "velocity": 0.15748031496062992,
                    "duration": 0.22083333333335986
                },
                {
                    "name": "F#3",
                    "midi": 54,
                    "time": 257.356249999996,
                    "velocity": 0.2047244094488189,
                    "duration": 0.25000000000005684
                },
                {
                    "name": "C#5",
                    "midi": 73,
                    "time": 257.35833333332937,
                    "velocity": 0.44881889763779526,
                    "duration": 0.4625000000000341
                },
                {
                    "name": "C#4",
                    "midi": 61,
                    "time": 257.3666666666627,
                    "velocity": 0.4251968503937008,
                    "duration": 0.1875
                },
                {
                    "name": "A3",
                    "midi": 57,
                    "time": 257.36874999999606,
                    "velocity": 0.2204724409448819,
                    "duration": 0.22916666666668561
                },
                {
                    "name": "F#4",
                    "midi": 66,
                    "time": 257.39999999999606,
                    "velocity": 0.16535433070866143,
                    "duration": 0.27083333333337123
                },
                {
                    "name": "D#4",
                    "midi": 63,
                    "time": 257.6958333333294,
                    "velocity": 0.30708661417322836,
                    "duration": 0.06666666666666288
                },
                {
                    "name": "G#4",
                    "midi": 68,
                    "time": 257.7062499999961,
                    "velocity": 0.28346456692913385,
                    "duration": 0.12291666666664014
                },
                {
                    "name": "D#4",
                    "midi": 63,
                    "time": 257.9791666666627,
                    "velocity": 0.33070866141732286,
                    "duration": 0.11458333333337123
                },
                {
                    "name": "D#5",
                    "midi": 75,
                    "time": 257.98333333332937,
                    "velocity": 0.5275590551181102,
                    "duration": 0.12083333333339397
                },
                {
                    "name": "E3",
                    "midi": 52,
                    "time": 258.01458333332937,
                    "velocity": 0.30708661417322836,
                    "duration": 0.08333333333337123
                },
                {
                    "name": "G#4",
                    "midi": 68,
                    "time": 258.02499999999606,
                    "velocity": 0.1732283464566929,
                    "duration": 0.4500000000000455
                },
                {
                    "name": "B3",
                    "midi": 59,
                    "time": 258.0270833333294,
                    "velocity": 0.2125984251968504,
                    "duration": 0.08125000000001137
                },
                {
                    "name": "C#4",
                    "midi": 61,
                    "time": 258.29374999999607,
                    "velocity": 0.4251968503937008,
                    "duration": 0.12708333333335986
                },
                {
                    "name": "F#4",
                    "midi": 66,
                    "time": 258.3208333333294,
                    "velocity": 0.23622047244094488,
                    "duration": 0.06666666666666288
                },
                {
                    "name": "B4",
                    "midi": 71,
                    "time": 258.5770833333294,
                    "velocity": 0.6299212598425197,
                    "duration": 0.42916666666678793
                },
                {
                    "name": "B3",
                    "midi": 59,
                    "time": 258.5916666666628,
                    "velocity": 0.3779527559055118,
                    "duration": 0.11041666666670835
                },
                {
                    "name": "G3",
                    "midi": 55,
                    "time": 258.5979166666628,
                    "velocity": 0.28346456692913385,
                    "duration": 0.2270833333333826
                },
                {
                    "name": "A2",
                    "midi": 45,
                    "time": 258.5979166666628,
                    "velocity": 0.2204724409448819,
                    "duration": 0.21666666666669698
                },
                {
                    "name": "E4",
                    "midi": 64,
                    "time": 258.6187499999961,
                    "velocity": 0.28346456692913385,
                    "duration": 0.1791666666667311
                },
                {
                    "name": "E3",
                    "midi": 52,
                    "time": 258.62499999999613,
                    "velocity": 0.28346456692913385,
                    "duration": 0.18958333333335986
                },
                {
                    "name": "C#4",
                    "midi": 61,
                    "time": 258.8937499999962,
                    "velocity": 0.2992125984251969,
                    "duration": 0.06875000000002274
                },
                {
                    "name": "F#4",
                    "midi": 66,
                    "time": 258.89791666666287,
                    "velocity": 0.2283464566929134,
                    "duration": 0.10000000000002274
                },
                {
                    "name": "C#5",
                    "midi": 73,
                    "time": 259.1854166666629,
                    "velocity": 0.5354330708661418,
                    "duration": 0.12708333333335986
                },
                {
                    "name": "C#4",
                    "midi": 61,
                    "time": 259.1958333333296,
                    "velocity": 0.31496062992125984,
                    "duration": 0.15625000000005684
                },
                {
                    "name": "F#4",
                    "midi": 66,
                    "time": 259.2124999999962,
                    "velocity": 0.31496062992125984,
                    "duration": 0.2541666666667197
                },
                {
                    "name": "D3",
                    "midi": 50,
                    "time": 259.2374999999962,
                    "velocity": 0.2125984251968504,
                    "duration": 0.10833333333340533
                },
                {
                    "name": "A3",
                    "midi": 57,
                    "time": 259.2437499999962,
                    "velocity": 0.2125984251968504,
                    "duration": 0.07500000000004547
                },
                {
                    "name": "B3",
                    "midi": 59,
                    "time": 259.51666666666296,
                    "velocity": 0.33858267716535434,
                    "duration": 0.10000000000002274
                },
                {
                    "name": "E4",
                    "midi": 64,
                    "time": 259.5187499999963,
                    "velocity": 0.15748031496062992,
                    "duration": 0.07708333333334849
                },
                {
                    "name": "A4",
                    "midi": 69,
                    "time": 259.85624999999635,
                    "velocity": 0.4251968503937008,
                    "duration": 0.48124999999998863
                },
                {
                    "name": "A3",
                    "midi": 57,
                    "time": 259.87708333332967,
                    "velocity": 0.3228346456692913,
                    "duration": 0.18958333333335986
                },
                {
                    "name": "G2",
                    "midi": 43,
                    "time": 259.88749999999635,
                    "velocity": 0.2125984251968504,
                    "duration": 0.2770833333333371
                },
                {
                    "name": "D4",
                    "midi": 62,
                    "time": 259.891666666663,
                    "velocity": 0.2992125984251969,
                    "duration": 0.32083333333332575
                },
                {
                    "name": "F3",
                    "midi": 53,
                    "time": 259.891666666663,
                    "velocity": 0.4015748031496063,
                    "duration": 0.22708333333332575
                },
                {
                    "name": "D3",
                    "midi": 50,
                    "time": 259.904166666663,
                    "velocity": 0.18110236220472442,
                    "duration": 0.21041666666667425
                },
                {
                    "name": "B3",
                    "midi": 59,
                    "time": 260.229166666663,
                    "velocity": 0.2755905511811024,
                    "duration": 0.07291666666668561
                },
                {
                    "name": "E4",
                    "midi": 64,
                    "time": 260.229166666663,
                    "velocity": 0.33858267716535434,
                    "duration": 0.17708333333337123
                },
                {
                    "name": "B4",
                    "midi": 71,
                    "time": 260.566666666663,
                    "velocity": 0.5039370078740157,
                    "duration": 0.44583333333332575
                },
                {
                    "name": "E4",
                    "midi": 64,
                    "time": 260.59374999999636,
                    "velocity": 0.3228346456692913,
                    "duration": 0.466666666666697
                },
                {
                    "name": "C3",
                    "midi": 48,
                    "time": 260.60416666666305,
                    "velocity": 0.14173228346456693,
                    "duration": 0.3791666666666629
                },
                {
                    "name": "B3",
                    "midi": 59,
                    "time": 260.6062499999964,
                    "velocity": 0.18110236220472442,
                    "duration": 0.3083333333333371
                },
                {
                    "name": "G3",
                    "midi": 55,
                    "time": 260.6562499999964,
                    "velocity": 0.2125984251968504,
                    "duration": 0.2874999999999659
                },
                {
                    "name": "C4",
                    "midi": 60,
                    "time": 261.02291666666304,
                    "velocity": 0.25196850393700787,
                    "duration": 0.09583333333335986
                },
                {
                    "name": "G#4",
                    "midi": 68,
                    "time": 261.72916666666305,
                    "velocity": 0.29133858267716534,
                    "duration": 1.6124999999999545
                },
                {
                    "name": "C4",
                    "midi": 60,
                    "time": 261.74166666666304,
                    "velocity": 0.3543307086614173,
                    "duration": 2.691666666666606
                },
                {
                    "name": "E4",
                    "midi": 64,
                    "time": 261.76249999999635,
                    "velocity": 0.30708661417322836,
                    "duration": 1.6145833333333144
                },
                {
                    "name": "A#3",
                    "midi": 58,
                    "time": 261.77291666666304,
                    "velocity": 0.09448818897637795,
                    "duration": 1.629166666666606
                },
                {
                    "name": "F#2",
                    "midi": 42,
                    "time": 261.78124999999636,
                    "velocity": 0.16535433070866143,
                    "duration": 1.3291666666666515
                },
                {
                    "name": "C#3",
                    "midi": 49,
                    "time": 261.785416666663,
                    "velocity": 0.14173228346456693,
                    "duration": 1.1645833333333258
                },
                {
                    "name": "B1",
                    "midi": 35,
                    "time": 264.4749999999963,
                    "velocity": 0.2125984251968504,
                    "duration": 0.08125000000001137
                },
                {
                    "name": "B2",
                    "midi": 47,
                    "time": 264.4770833333297,
                    "velocity": 0.14173228346456693,
                    "duration": 0.15625
                },
                {
                    "name": "B3",
                    "midi": 59,
                    "time": 264.7083333333297,
                    "velocity": 0.18110236220472442,
                    "duration": 0.13125000000002274
                },
                {
                    "name": "A3",
                    "midi": 57,
                    "time": 264.7145833333297,
                    "velocity": 0.15748031496062992,
                    "duration": 0.06875000000002274
                },
                {
                    "name": "E4",
                    "midi": 64,
                    "time": 264.86666666666304,
                    "velocity": 0.23622047244094488,
                    "duration": 0.07083333333332575
                },
                {
                    "name": "F#4",
                    "midi": 66,
                    "time": 264.910416666663,
                    "velocity": 0.2677165354330709,
                    "duration": 0.07708333333334849
                },
                {
                    "name": "B4",
                    "midi": 71,
                    "time": 265.004166666663,
                    "velocity": 0.33070866141732286,
                    "duration": 0.15833333333335986
                },
                {
                    "name": "C#4",
                    "midi": 61,
                    "time": 265.0187499999964,
                    "velocity": 0.28346456692913385,
                    "duration": 0.24374999999997726
                },
                {
                    "name": "E5",
                    "midi": 76,
                    "time": 265.191666666663,
                    "velocity": 0.4645669291338583,
                    "duration": 0.04791666666665151
                },
                {
                    "name": "C#5",
                    "midi": 73,
                    "time": 265.25208333332967,
                    "velocity": 0.41732283464566927,
                    "duration": 0.06666666666671972
                },
                {
                    "name": "A5",
                    "midi": 81,
                    "time": 265.2645833333297,
                    "velocity": 0.3779527559055118,
                    "duration": 0.052083333333314386
                },
                {
                    "name": "B5",
                    "midi": 83,
                    "time": 265.2687499999964,
                    "velocity": 0.5748031496062992,
                    "duration": 0.04374999999998863
                },
                {
                    "name": "B5",
                    "midi": 83,
                    "time": 265.37499999999636,
                    "velocity": 0.6929133858267716,
                    "duration": 0.05833333333333712
                },
                {
                    "name": "E6",
                    "midi": 88,
                    "time": 265.44791666666305,
                    "velocity": 0.25984251968503935,
                    "duration": 0.07708333333334849
                },
                {
                    "name": "A6",
                    "midi": 93,
                    "time": 265.4958333333297,
                    "velocity": 0.4881889763779528,
                    "duration": 0.13958333333340533
                },
                {
                    "name": "C#6",
                    "midi": 85,
                    "time": 265.51041666666305,
                    "velocity": 0.6771653543307087,
                    "duration": 0.06666666666666288
                },
                {
                    "name": "B6",
                    "midi": 95,
                    "time": 265.5249999999964,
                    "velocity": 0.2992125984251969,
                    "duration": 0.06875000000002274
                },
                {
                    "name": "C#5",
                    "midi": 73,
                    "time": 265.5249999999964,
                    "velocity": 0.44881889763779526,
                    "duration": 0.052083333333314386
                },
                {
                    "name": "F#6",
                    "midi": 90,
                    "time": 265.58333333332973,
                    "velocity": 0.15748031496062992,
                    "duration": 0.07500000000004547
                },
                {
                    "name": "E6",
                    "midi": 88,
                    "time": 265.5958333333298,
                    "velocity": 0.44881889763779526,
                    "duration": 0.0625
                },
                {
                    "name": "B5",
                    "midi": 83,
                    "time": 265.66041666666314,
                    "velocity": 0.7401574803149606,
                    "duration": 0.041666666666685614
                },
                {
                    "name": "A5",
                    "midi": 81,
                    "time": 265.66041666666314,
                    "velocity": 0.4015748031496063,
                    "duration": 0.1187500000000341
                },
                {
                    "name": "B5",
                    "midi": 83,
                    "time": 265.7770833333298,
                    "velocity": 0.4330708661417323,
                    "duration": 0.0708333333333826
                },
                {
                    "name": "A5",
                    "midi": 81,
                    "time": 265.7979166666632,
                    "velocity": 0.4015748031496063,
                    "duration": 0.1187500000000341
                },
                {
                    "name": "B4",
                    "midi": 71,
                    "time": 265.9520833333299,
                    "velocity": 0.47244094488188976,
                    "duration": 0.052083333333314386
                },
                {
                    "name": "D#6",
                    "midi": 87,
                    "time": 266.0979166666632,
                    "velocity": 0.6535433070866141,
                    "duration": 0.08541666666667425
                },
                {
                    "name": "A4",
                    "midi": 69,
                    "time": 266.1062499999965,
                    "velocity": 0.33070866141732286,
                    "duration": 0.07291666666668561
                },
                {
                    "name": "D#5",
                    "midi": 75,
                    "time": 266.1166666666632,
                    "velocity": 0.4409448818897638,
                    "duration": 0.11666666666667425
                },
                {
                    "name": "B4",
                    "midi": 71,
                    "time": 266.12083333332987,
                    "velocity": 0.2755905511811024,
                    "duration": 0.06458333333335986
                },
                {
                    "name": "E5",
                    "midi": 76,
                    "time": 266.18541666666323,
                    "velocity": 0.3543307086614173,
                    "duration": 0.054166666666674246
                },
                {
                    "name": "F#5",
                    "midi": 78,
                    "time": 266.24791666666323,
                    "velocity": 0.2755905511811024,
                    "duration": 0.0625
                },
                {
                    "name": "B5",
                    "midi": 83,
                    "time": 266.29791666666324,
                    "velocity": 0.3464566929133858,
                    "duration": 0.07083333333332575
                },
                {
                    "name": "A5",
                    "midi": 81,
                    "time": 266.3020833333299,
                    "velocity": 0.4015748031496063,
                    "duration": 0.11874999999997726
                },
                {
                    "name": "A5",
                    "midi": 81,
                    "time": 266.40416666666323,
                    "velocity": 0.1968503937007874,
                    "duration": 0.09375000000005684
                },
                {
                    "name": "B5",
                    "midi": 83,
                    "time": 266.4270833333299,
                    "velocity": 0.3937007874015748,
                    "duration": 0.06458333333335986
                },
                {
                    "name": "F#6",
                    "midi": 90,
                    "time": 266.4937499999966,
                    "velocity": 0.25196850393700787,
                    "duration": 0.0625
                },
                {
                    "name": "E6",
                    "midi": 88,
                    "time": 266.50208333332995,
                    "velocity": 0.3779527559055118,
                    "duration": 0.06041666666669698
                },
                {
                    "name": "A6",
                    "midi": 93,
                    "time": 266.5666666666633,
                    "velocity": 0.29133858267716534,
                    "duration": 0.0687499999999659
                },
                {
                    "name": "B6",
                    "midi": 95,
                    "time": 266.5874999999966,
                    "velocity": 0.2204724409448819,
                    "duration": 0.18333333333328028
                },
                {
                    "name": "C#6",
                    "midi": 85,
                    "time": 266.67083333332994,
                    "velocity": 0.6535433070866141,
                    "duration": 0.11041666666665151
                },
                {
                    "name": "C#5",
                    "midi": 73,
                    "time": 266.69166666666325,
                    "velocity": 0.4409448818897638,
                    "duration": 0.07916666666665151
                },
                {
                    "name": "A6",
                    "midi": 93,
                    "time": 266.6979166666633,
                    "velocity": 0.44881889763779526,
                    "duration": 0.06041666666664014
                },
                {
                    "name": "F#6",
                    "midi": 90,
                    "time": 266.7624999999966,
                    "velocity": 0.25196850393700787,
                    "duration": 0.0625
                },
                {
                    "name": "E6",
                    "midi": 88,
                    "time": 266.77291666666326,
                    "velocity": 0.3228346456692913,
                    "duration": 0.06041666666669698
                },
                {
                    "name": "B5",
                    "midi": 83,
                    "time": 266.82708333332994,
                    "velocity": 0.5984251968503937,
                    "duration": 0.043750000000045475
                },
                {
                    "name": "A5",
                    "midi": 81,
                    "time": 266.83333333332996,
                    "velocity": 0.4645669291338583,
                    "duration": 0.04583333333334849
                },
                {
                    "name": "A5",
                    "midi": 81,
                    "time": 266.93958333332995,
                    "velocity": 0.47244094488188976,
                    "duration": 0.09166666666669698
                },
                {
                    "name": "B5",
                    "midi": 83,
                    "time": 266.94999999999663,
                    "velocity": 0.5984251968503937,
                    "duration": 0.04374999999998863
                },
                {
                    "name": "E5",
                    "midi": 76,
                    "time": 267.08333333332996,
                    "velocity": 0.09448818897637795,
                    "duration": 0.08333333333337123
                },
                {
                    "name": "A4",
                    "midi": 69,
                    "time": 267.1291666666633,
                    "velocity": 0.3779527559055118,
                    "duration": 0.06458333333335986
                },
                {
                    "name": "B4",
                    "midi": 71,
                    "time": 267.13333333333,
                    "velocity": 0.2755905511811024,
                    "duration": 0.06041666666669698
                },
                {
                    "name": "F#6",
                    "midi": 90,
                    "time": 267.23541666666335,
                    "velocity": 0.6692913385826772,
                    "duration": 0.12291666666669698
                },
                {
                    "name": "B4",
                    "midi": 71,
                    "time": 267.25833333333003,
                    "velocity": 0.3464566929133858,
                    "duration": 0.0875000000000341
                },
                {
                    "name": "F#5",
                    "midi": 78,
                    "time": 267.2624999999967,
                    "velocity": 0.36220472440944884,
                    "duration": 0.07499999999998863
                },
                {
                    "name": "A4",
                    "midi": 69,
                    "time": 267.27083333333,
                    "velocity": 0.29133858267716534,
                    "duration": 0.06041666666664014
                },
                {
                    "name": "E5",
                    "midi": 76,
                    "time": 267.33958333333004,
                    "velocity": 0.3858267716535433,
                    "duration": 0.056250000000034106
                },
                {
                    "name": "B5",
                    "midi": 83,
                    "time": 267.4354166666634,
                    "velocity": 0.5511811023622047,
                    "duration": 0.04791666666665151
                },
                {
                    "name": "D#6",
                    "midi": 87,
                    "time": 267.5416666666634,
                    "velocity": 0.4645669291338583,
                    "duration": 0.14583333333337123
                },
                {
                    "name": "B5",
                    "midi": 83,
                    "time": 267.5499999999967,
                    "velocity": 0.6456692913385826,
                    "duration": 0.1187500000000341
                },
                {
                    "name": "D#5",
                    "midi": 75,
                    "time": 267.55624999999674,
                    "velocity": 0.4409448818897638,
                    "duration": 0.16250000000002274
                },
                {
                    "name": "E6",
                    "midi": 88,
                    "time": 267.65833333333006,
                    "velocity": 0.4094488188976378,
                    "duration": 0.054166666666674246
                },
                {
                    "name": "F#6",
                    "midi": 90,
                    "time": 267.6604166666634,
                    "velocity": 0.25196850393700787,
                    "duration": 0.0625
                },
                {
                    "name": "B6",
                    "midi": 95,
                    "time": 267.7145833333301,
                    "velocity": 0.3779527559055118,
                    "duration": 0.05000000000001137
                },
                {
                    "name": "A6",
                    "midi": 93,
                    "time": 267.72916666666345,
                    "velocity": 0.1968503937007874,
                    "duration": 0.19791666666668561
                },
                {
                    "name": "B6",
                    "midi": 95,
                    "time": 267.83124999999677,
                    "velocity": 0.48031496062992124,
                    "duration": 0.06041666666669698
                },
                {
                    "name": "C#6",
                    "midi": 85,
                    "time": 267.8374999999968,
                    "velocity": 0.5905511811023622,
                    "duration": 0.12291666666669698
                },
                {
                    "name": "C#5",
                    "midi": 73,
                    "time": 267.8687499999968,
                    "velocity": 0.4015748031496063,
                    "duration": 0.38958333333340533
                },
                {
                    "name": "F#6",
                    "midi": 90,
                    "time": 267.90208333333015,
                    "velocity": 0.2047244094488189,
                    "duration": 0.07083333333332575
                },
                {
                    "name": "E6",
                    "midi": 88,
                    "time": 267.9291666666635,
                    "velocity": 0.28346456692913385,
                    "duration": 0.05833333333333712
                },
                {
                    "name": "B5",
                    "midi": 83,
                    "time": 267.9895833333302,
                    "velocity": 0.4881889763779528,
                    "duration": 0.05000000000001137
                },
                {
                    "name": "A5",
                    "midi": 81,
                    "time": 267.9958333333302,
                    "velocity": 0.4645669291338583,
                    "duration": 0.04791666666665151
                },
                {
                    "name": "A5",
                    "midi": 81,
                    "time": 268.1041666666635,
                    "velocity": 0.4881889763779528,
                    "duration": 0.11458333333337123
                },
                {
                    "name": "B5",
                    "midi": 83,
                    "time": 268.11874999999685,
                    "velocity": 0.4881889763779528,
                    "duration": 0.05000000000001137
                },
                {
                    "name": "B4",
                    "midi": 71,
                    "time": 268.28749999999684,
                    "velocity": 0.23622047244094488,
                    "duration": 0.07500000000004547
                },
                {
                    "name": "A4",
                    "midi": 69,
                    "time": 268.2979166666635,
                    "velocity": 0.3464566929133858,
                    "duration": 0.06666666666671972
                },
                {
                    "name": "G#5",
                    "midi": 80,
                    "time": 268.4208333333302,
                    "velocity": 0.5354330708661418,
                    "duration": 0.2375000000000682
                },
                {
                    "name": "G#4",
                    "midi": 68,
                    "time": 268.4458333333302,
                    "velocity": 0.2992125984251969,
                    "duration": 0.41458333333343944
                },
                {
                    "name": "A4",
                    "midi": 69,
                    "time": 268.44791666666356,
                    "velocity": 0.2440944881889764,
                    "duration": 0.07499999999998863
                },
                {
                    "name": "B4",
                    "midi": 71,
                    "time": 268.4541666666636,
                    "velocity": 0.2677165354330709,
                    "duration": 0.0687499999999659
                },
                {
                    "name": "E5",
                    "midi": 76,
                    "time": 268.51041666666356,
                    "velocity": 0.44881889763779526,
                    "duration": 0.05000000000001137
                },
                {
                    "name": "F#5",
                    "midi": 78,
                    "time": 268.58333333333024,
                    "velocity": 0.2440944881889764,
                    "duration": 0.07291666666668561
                },
                {
                    "name": "B5",
                    "midi": 83,
                    "time": 268.6166666666636,
                    "velocity": 0.44881889763779526,
                    "duration": 0.056250000000034106
                },
                {
                    "name": "B5",
                    "midi": 83,
                    "time": 268.75624999999695,
                    "velocity": 0.13385826771653545,
                    "duration": 0.07291666666668561
                },
                {
                    "name": "A5",
                    "midi": 81,
                    "time": 268.7604166666636,
                    "velocity": 0.25984251968503935,
                    "duration": 0.06875000000002274
                },
                {
                    "name": "F#6",
                    "midi": 90,
                    "time": 268.81249999999693,
                    "velocity": 0.2204724409448819,
                    "duration": 0.07291666666674246
                },
                {
                    "name": "E6",
                    "midi": 88,
                    "time": 268.8145833333303,
                    "velocity": 0.3779527559055118,
                    "duration": 0.06458333333335986
                },
                {
                    "name": "A6",
                    "midi": 93,
                    "time": 268.8770833333303,
                    "velocity": 0.3464566929133858,
                    "duration": 0.06041666666675383
                },
                {
                    "name": "B6",
                    "midi": 95,
                    "time": 268.88749999999703,
                    "velocity": 0.36220472440944884,
                    "duration": 0.054166666666674246
                },
                {
                    "name": "A6",
                    "midi": 93,
                    "time": 268.99999999999704,
                    "velocity": 0.48031496062992124,
                    "duration": 0.08958333333333712
                },
                {
                    "name": "G#5",
                    "midi": 80,
                    "time": 269.0041666666637,
                    "velocity": 0.5590551181102362,
                    "duration": 0.12083333333333712
                },
                {
                    "name": "G#4",
                    "midi": 68,
                    "time": 269.0166666666637,
                    "velocity": 0.4094488188976378,
                    "duration": 0.5479166666666515
                },
                {
                    "name": "F#6",
                    "midi": 90,
                    "time": 269.04999999999706,
                    "velocity": 0.25196850393700787,
                    "duration": 0.0687499999999659
                },
                {
                    "name": "E6",
                    "midi": 88,
                    "time": 269.0895833333304,
                    "velocity": 0.3858267716535433,
                    "duration": 0.052083333333314386
                },
                {
                    "name": "A5",
                    "midi": 81,
                    "time": 269.15624999999704,
                    "velocity": 0.3937007874015748,
                    "duration": 0.054166666666674246
                },
                {
                    "name": "B5",
                    "midi": 83,
                    "time": 269.15624999999704,
                    "velocity": 0.44881889763779526,
                    "duration": 0.06875000000002274
                },
                {
                    "name": "B5",
                    "midi": 83,
                    "time": 269.2729166666637,
                    "velocity": 0.44881889763779526,
                    "duration": 0.06875000000002274
                },
                {
                    "name": "A5",
                    "midi": 81,
                    "time": 269.2833333333304,
                    "velocity": 0.49606299212598426,
                    "duration": 0.07083333333332575
                },
                {
                    "name": "E5",
                    "midi": 76,
                    "time": 269.38333333333037,
                    "velocity": 0.23622047244094488,
                    "duration": 0.10833333333329165
                },
                {
                    "name": "A4",
                    "midi": 69,
                    "time": 269.462499999997,
                    "velocity": 0.16535433070866143,
                    "duration": 0.07083333333332575
                },
                {
                    "name": "F#5",
                    "midi": 78,
                    "time": 269.57499999999703,
                    "velocity": 0.47244094488188976,
                    "duration": 0.08958333333333712
                },
                {
                    "name": "F#4",
                    "midi": 66,
                    "time": 269.61458333333036,
                    "velocity": 0.14173228346456693,
                    "duration": 0.07708333333334849
                },
                {
                    "name": "A4",
                    "midi": 69,
                    "time": 269.6166666666637,
                    "velocity": 0.15748031496062992,
                    "duration": 0.07708333333334849
                },
                {
                    "name": "B4",
                    "midi": 71,
                    "time": 269.6416666666637,
                    "velocity": 0.11811023622047244,
                    "duration": 0.06666666666671972
                },
                {
                    "name": "E5",
                    "midi": 76,
                    "time": 269.67499999999706,
                    "velocity": 0.3464566929133858,
                    "duration": 0.0625
                },
                {
                    "name": "F#5",
                    "midi": 78,
                    "time": 269.7729166666637,
                    "velocity": 0.14960629921259844,
                    "duration": 0.06666666666671972
                },
                {
                    "name": "B5",
                    "midi": 83,
                    "time": 269.8062499999971,
                    "velocity": 0.4094488188976378,
                    "duration": 0.06041666666669698
                },
                {
                    "name": "A5",
                    "midi": 81,
                    "time": 269.8124999999971,
                    "velocity": 0.4409448818897638,
                    "duration": 0.052083333333314386
                },
                {
                    "name": "B5",
                    "midi": 83,
                    "time": 269.92083333333045,
                    "velocity": 0.5275590551181102,
                    "duration": 0.05208333333337123
                },
                {
                    "name": "A5",
                    "midi": 81,
                    "time": 269.9270833333305,
                    "velocity": 0.4409448818897638,
                    "duration": 0.05208333333337123
                },
                {
                    "name": "E6",
                    "midi": 88,
                    "time": 269.99166666666383,
                    "velocity": 0.4645669291338583,
                    "duration": 0.0625
                },
                {
                    "name": "F#6",
                    "midi": 90,
                    "time": 269.99999999999716,
                    "velocity": 0.2204724409448819,
                    "duration": 0.07291666666668561
                },
                {
                    "name": "B6",
                    "midi": 95,
                    "time": 270.07291666666384,
                    "velocity": 0.3779527559055118,
                    "duration": 0.052083333333314386
                },
                {
                    "name": "A6",
                    "midi": 93,
                    "time": 270.0749999999972,
                    "velocity": 0.3228346456692913,
                    "duration": 0.06041666666664014
                },
                {
                    "name": "B3",
                    "midi": 59,
                    "time": 270.0999999999972,
                    "velocity": 0.2283464566929134,
                    "duration": 0.06666666666666288
                },
                {
                    "name": "C#4",
                    "midi": 61,
                    "time": 270.1937499999972,
                    "velocity": 0.4645669291338583,
                    "duration": 0.5500000000000682
                },
                {
                    "name": "C#5",
                    "midi": 73,
                    "time": 270.1937499999972,
                    "velocity": 0.4251968503937008,
                    "duration": 0.4354166666667538
                },
                {
                    "name": "A6",
                    "midi": 93,
                    "time": 270.20416666666387,
                    "velocity": 0.5196850393700787,
                    "duration": 0.0625
                },
                {
                    "name": "B6",
                    "midi": 95,
                    "time": 270.21666666666385,
                    "velocity": 0.08661417322834646,
                    "duration": 0.06458333333335986
                },
                {
                    "name": "F#6",
                    "midi": 90,
                    "time": 270.24791666666385,
                    "velocity": 0.2204724409448819,
                    "duration": 0.07291666666668561
                },
                {
                    "name": "E6",
                    "midi": 88,
                    "time": 270.27708333333055,
                    "velocity": 0.4409448818897638,
                    "duration": 0.05000000000001137
                },
                {
                    "name": "B5",
                    "midi": 83,
                    "time": 270.3541666666639,
                    "velocity": 0.5275590551181102,
                    "duration": 0.05208333333337123
                },
                {
                    "name": "A5",
                    "midi": 81,
                    "time": 270.3604166666639,
                    "velocity": 0.4409448818897638,
                    "duration": 0.05208333333337123
                },
                {
                    "name": "A5",
                    "midi": 81,
                    "time": 270.4812499999973,
                    "velocity": 0.3779527559055118,
                    "duration": 0.1729166666666515
                },
                {
                    "name": "B5",
                    "midi": 83,
                    "time": 270.48958333333064,
                    "velocity": 0.5275590551181102,
                    "duration": 0.052083333333314386
                },
                {
                    "name": "F#5",
                    "midi": 78,
                    "time": 270.59791666666393,
                    "velocity": 0.06299212598425197,
                    "duration": 0.09166666666669698
                },
                {
                    "name": "E5",
                    "midi": 76,
                    "time": 270.6229166666639,
                    "velocity": 0.13385826771653545,
                    "duration": 0.09166666666669698
                },
                {
                    "name": "B4",
                    "midi": 71,
                    "time": 270.64791666666395,
                    "velocity": 0.47244094488188976,
                    "duration": 0.07499999999998863
                },
                {
                    "name": "D#5",
                    "midi": 75,
                    "time": 270.7791666666639,
                    "velocity": 0.4566929133858268,
                    "duration": 0.4104166666666629
                },
                {
                    "name": "A4",
                    "midi": 69,
                    "time": 270.8020833333306,
                    "velocity": 0.4566929133858268,
                    "duration": 0.08749999999997726
                },
                {
                    "name": "D#4",
                    "midi": 63,
                    "time": 270.80624999999725,
                    "velocity": 0.36220472440944884,
                    "duration": 0.5270833333333371
                },
                {
                    "name": "B4",
                    "midi": 71,
                    "time": 270.8145833333306,
                    "velocity": 0.33858267716535434,
                    "duration": 0.0625
                },
                {
                    "name": "E5",
                    "midi": 76,
                    "time": 270.8958333333306,
                    "velocity": 0.36220472440944884,
                    "duration": 0.054166666666674246
                },
                {
                    "name": "F#5",
                    "midi": 78,
                    "time": 270.9479166666639,
                    "velocity": 0.3700787401574803,
                    "duration": 0.05000000000001137
                },
                {
                    "name": "B5",
                    "midi": 83,
                    "time": 270.98124999999726,
                    "velocity": 0.5905511811023622,
                    "duration": 0.04374999999998863
                },
                {
                    "name": "A5",
                    "midi": 81,
                    "time": 270.99999999999727,
                    "velocity": 0.2755905511811024,
                    "duration": 0.06666666666666288
                },
                {
                    "name": "B5",
                    "midi": 83,
                    "time": 271.0958333333306,
                    "velocity": 0.4409448818897638,
                    "duration": 0.08541666666667425
                },
                {
                    "name": "A5",
                    "midi": 81,
                    "time": 271.1041666666639,
                    "velocity": 0.30708661417322836,
                    "duration": 0.08125000000001137
                },
                {
                    "name": "E6",
                    "midi": 88,
                    "time": 271.1791666666639,
                    "velocity": 0.4251968503937008,
                    "duration": 0.05833333333333712
                },
                {
                    "name": "F#6",
                    "midi": 90,
                    "time": 271.1791666666639,
                    "velocity": 0.2204724409448819,
                    "duration": 0.07291666666668561
                },
                {
                    "name": "B6",
                    "midi": 95,
                    "time": 271.2416666666639,
                    "velocity": 0.3779527559055118,
                    "duration": 0.054166666666674246
                },
                {
                    "name": "A6",
                    "midi": 93,
                    "time": 271.24583333333055,
                    "velocity": 0.3228346456692913,
                    "duration": 0.06041666666669698
                },
                {
                    "name": "C#5",
                    "midi": 73,
                    "time": 271.34791666666393,
                    "velocity": 0.48031496062992124,
                    "duration": 0.3875000000001023
                },
                {
                    "name": "C#4",
                    "midi": 61,
                    "time": 271.3604166666639,
                    "velocity": 0.4566929133858268,
                    "duration": 0.36666666666678793
                },
                {
                    "name": "A6",
                    "midi": 93,
                    "time": 271.37499999999727,
                    "velocity": 0.5196850393700787,
                    "duration": 0.0625
                },
                {
                    "name": "B6",
                    "midi": 95,
                    "time": 271.38749999999726,
                    "velocity": 0.08661417322834646,
                    "duration": 0.06458333333335986
                },
                {
                    "name": "F#6",
                    "midi": 90,
                    "time": 271.44166666666393,
                    "velocity": 0.36220472440944884,
                    "duration": 0.06041666666669698
                },
                {
                    "name": "E6",
                    "midi": 88,
                    "time": 271.44999999999726,
                    "velocity": 0.3464566929133858,
                    "duration": 0.058333333333393966
                },
                {
                    "name": "B5",
                    "midi": 83,
                    "time": 271.510416666664,
                    "velocity": 0.5433070866141733,
                    "duration": 0.05000000000001137
                },
                {
                    "name": "A5",
                    "midi": 81,
                    "time": 271.510416666664,
                    "velocity": 0.48031496062992124,
                    "duration": 0.04583333333334849
                },
                {
                    "name": "A5",
                    "midi": 81,
                    "time": 271.62916666666405,
                    "velocity": 0.3543307086614173,
                    "duration": 0.10624999999998863
                },
                {
                    "name": "B5",
                    "midi": 83,
                    "time": 271.64791666666406,
                    "velocity": 0.5433070866141733,
                    "duration": 0.05000000000001137
                },
                {
                    "name": "F#5",
                    "midi": 78,
                    "time": 271.747916666664,
                    "velocity": 0.15748031496062992,
                    "duration": 0.07499999999998863
                },
                {
                    "name": "E5",
                    "midi": 76,
                    "time": 271.76874999999734,
                    "velocity": 0.2440944881889764,
                    "duration": 0.06041666666669698
                },
                {
                    "name": "A4",
                    "midi": 69,
                    "time": 271.82083333333065,
                    "velocity": 0.28346456692913385,
                    "duration": 0.19375000000002274
                },
                {
                    "name": "B4",
                    "midi": 71,
                    "time": 271.8270833333307,
                    "velocity": 0.23622047244094488,
                    "duration": 0.21875
                },
                {
                    "name": "F#5",
                    "midi": 78,
                    "time": 271.9270833333307,
                    "velocity": 0.4566929133858268,
                    "duration": 0.22291666666671972
                },
                {
                    "name": "F#4",
                    "midi": 66,
                    "time": 271.95624999999734,
                    "velocity": 0.36220472440944884,
                    "duration": 0.12291666666669698
                },
                {
                    "name": "E5",
                    "midi": 76,
                    "time": 272.02499999999736,
                    "velocity": 0.36220472440944884,
                    "duration": 0.06041666666669698
                },
                {
                    "name": "A5",
                    "midi": 81,
                    "time": 272.14791666666406,
                    "velocity": 0.2755905511811024,
                    "duration": 0.19583333333343944
                },
                {
                    "name": "B5",
                    "midi": 83,
                    "time": 272.1499999999974,
                    "velocity": 0.33070866141732286,
                    "duration": 0.07291666666668561
                },
                {
                    "name": "D#5",
                    "midi": 75,
                    "time": 272.20833333333076,
                    "velocity": 0.5275590551181102,
                    "duration": 0.20833333333348492
                },
                {
                    "name": "D#4",
                    "midi": 63,
                    "time": 272.22499999999746,
                    "velocity": 0.4645669291338583,
                    "duration": 0.20833333333348492
                },
                {
                    "name": "B5",
                    "midi": 83,
                    "time": 272.2749999999975,
                    "velocity": 0.18110236220472442,
                    "duration": 0.0708333333333826
                },
                {
                    "name": "F#6",
                    "midi": 90,
                    "time": 272.3333333333308,
                    "velocity": 0.2204724409448819,
                    "duration": 0.07291666666674246
                },
                {
                    "name": "E6",
                    "midi": 88,
                    "time": 272.3374999999975,
                    "velocity": 0.4251968503937008,
                    "duration": 0.06250000000005684
                },
                {
                    "name": "B6",
                    "midi": 95,
                    "time": 272.4312499999976,
                    "velocity": 0.3779527559055118,
                    "duration": 0.05416666666673109
                },
                {
                    "name": "A6",
                    "midi": 93,
                    "time": 272.4354166666643,
                    "velocity": 0.3228346456692913,
                    "duration": 0.06041666666669698
                },
                {
                    "name": "C#5",
                    "midi": 73,
                    "time": 272.52916666666437,
                    "velocity": 0.5118110236220472,
                    "duration": 0.23958333333331439
                },
                {
                    "name": "C#4",
                    "midi": 61,
                    "time": 272.55208333333104,
                    "velocity": 0.4409448818897638,
                    "duration": 0.6020833333333258
                },
                {
                    "name": "A6",
                    "midi": 93,
                    "time": 272.56458333333103,
                    "velocity": 0.5196850393700787,
                    "duration": 0.0625
                },
                {
                    "name": "B6",
                    "midi": 95,
                    "time": 272.577083333331,
                    "velocity": 0.08661417322834646,
                    "duration": 0.06458333333335986
                },
                {
                    "name": "E6",
                    "midi": 88,
                    "time": 272.60416666666436,
                    "velocity": 0.3543307086614173,
                    "duration": 0.056250000000034106
                },
                {
                    "name": "F#6",
                    "midi": 90,
                    "time": 272.608333333331,
                    "velocity": 0.11023622047244094,
                    "duration": 0.06666666666671972
                },
                {
                    "name": "A5",
                    "midi": 81,
                    "time": 272.6874999999977,
                    "velocity": 0.49606299212598426,
                    "duration": 0.04374999999998863
                },
                {
                    "name": "B5",
                    "midi": 83,
                    "time": 272.6874999999977,
                    "velocity": 0.44881889763779526,
                    "duration": 0.0687499999999659
                },
                {
                    "name": "A5",
                    "midi": 81,
                    "time": 272.80208333333104,
                    "velocity": 0.3700787401574803,
                    "duration": 0.1166666666666174
                },
                {
                    "name": "B5",
                    "midi": 83,
                    "time": 272.8187499999977,
                    "velocity": 0.5826771653543307,
                    "duration": 0.04791666666665151
                },
                {
                    "name": "E5",
                    "midi": 76,
                    "time": 272.920833333331,
                    "velocity": 0.28346456692913385,
                    "duration": 0.10833333333334849
                },
                {
                    "name": "F#5",
                    "midi": 78,
                    "time": 272.9229166666644,
                    "velocity": 0.18110236220472442,
                    "duration": 0.0687499999999659
                },
                {
                    "name": "A4",
                    "midi": 69,
                    "time": 272.983333333331,
                    "velocity": 0.41732283464566927,
                    "duration": 0.05833333333333712
                },
                {
                    "name": "B4",
                    "midi": 71,
                    "time": 272.9874999999977,
                    "velocity": 0.2992125984251969,
                    "duration": 0.06041666666669698
                },
                {
                    "name": "G#4",
                    "midi": 68,
                    "time": 273.1104166666644,
                    "velocity": 0.5433070866141733,
                    "duration": 0.5208333333334849
                },
                {
                    "name": "B4",
                    "midi": 71,
                    "time": 273.12291666666437,
                    "velocity": 0.41732283464566927,
                    "duration": 0.0708333333333826
                },
                {
                    "name": "A4",
                    "midi": 69,
                    "time": 273.1249999999977,
                    "velocity": 0.4566929133858268,
                    "duration": 0.06041666666664014
                },
                {
                    "name": "G#3",
                    "midi": 56,
                    "time": 273.13333333333105,
                    "velocity": 0.4251968503937008,
                    "duration": 0.5312500000001137
                },
                {
                    "name": "E5",
                    "midi": 76,
                    "time": 273.1916666666644,
                    "velocity": 0.4566929133858268,
                    "duration": 0.06458333333335986
                },
                {
                    "name": "F#5",
                    "midi": 78,
                    "time": 273.26666666666443,
                    "velocity": 0.2992125984251969,
                    "duration": 0.05624999999997726
                },
                {
                    "name": "B5",
                    "midi": 83,
                    "time": 273.2958333333311,
                    "velocity": 0.5590551181102362,
                    "duration": 0.04583333333334849
                },
                {
                    "name": "A5",
                    "midi": 81,
                    "time": 273.2958333333311,
                    "velocity": 0.4409448818897638,
                    "duration": 0.05208333333337123
                },
                {
                    "name": "B5",
                    "midi": 83,
                    "time": 273.4020833333311,
                    "velocity": 0.7165354330708661,
                    "duration": 0.10208333333332575
                },
                {
                    "name": "A5",
                    "midi": 81,
                    "time": 273.4249999999978,
                    "velocity": 0.4015748031496063,
                    "duration": 0.052083333333314386
                },
                {
                    "name": "E6",
                    "midi": 88,
                    "time": 273.5124999999978,
                    "velocity": 0.4015748031496063,
                    "duration": 0.06875000000002274
                },
                {
                    "name": "F#6",
                    "midi": 90,
                    "time": 273.51458333333113,
                    "velocity": 0.1889763779527559,
                    "duration": 0.07291666666668561
                },
                {
                    "name": "B6",
                    "midi": 95,
                    "time": 273.5895833333312,
                    "velocity": 0.3937007874015748,
                    "duration": 0.054166666666674246
                },
                {
                    "name": "A6",
                    "midi": 93,
                    "time": 273.5979166666645,
                    "velocity": 0.2125984251968504,
                    "duration": 0.08541666666667425
                },
                {
                    "name": "A6",
                    "midi": 93,
                    "time": 273.7291666666645,
                    "velocity": 0.36220472440944884,
                    "duration": 0.08958333333328028
                },
                {
                    "name": "B6",
                    "midi": 95,
                    "time": 273.7291666666645,
                    "velocity": 0.23622047244094488,
                    "duration": 0.07291666666662877
                },
                {
                    "name": "G#4",
                    "midi": 68,
                    "time": 273.7520833333312,
                    "velocity": 0.5275590551181102,
                    "duration": 0.44583333333332575
                },
                {
                    "name": "G#3",
                    "midi": 56,
                    "time": 273.7604166666645,
                    "velocity": 0.30708661417322836,
                    "duration": 0.5687500000000796
                },
                {
                    "name": "F#6",
                    "midi": 90,
                    "time": 273.7854166666645,
                    "velocity": 0.1889763779527559,
                    "duration": 0.07291666666662877
                },
                {
                    "name": "E6",
                    "midi": 88,
                    "time": 273.8104166666645,
                    "velocity": 0.2755905511811024,
                    "duration": 0.06041666666664014
                },
                {
                    "name": "A5",
                    "midi": 81,
                    "time": 273.87916666666445,
                    "velocity": 0.5354330708661418,
                    "duration": 0.04374999999998863
                },
                {
                    "name": "B5",
                    "midi": 83,
                    "time": 273.87916666666445,
                    "velocity": 0.5433070866141733,
                    "duration": 0.05000000000001137
                },
                {
                    "name": "B5",
                    "midi": 83,
                    "time": 274.00208333333114,
                    "velocity": 0.6141732283464567,
                    "duration": 0.06041666666669698
                },
                {
                    "name": "A5",
                    "midi": 81,
                    "time": 274.01249999999783,
                    "velocity": 0.1889763779527559,
                    "duration": 0.12708333333335986
                },
                {
                    "name": "E5",
                    "midi": 76,
                    "time": 274.1458333333312,
                    "velocity": 0.28346456692913385,
                    "duration": 0.07916666666670835
                },
                {
                    "name": "F#5",
                    "midi": 78,
                    "time": 274.15416666666454,
                    "velocity": 0.07086614173228346,
                    "duration": 0.06041666666669698
                },
                {
                    "name": "B4",
                    "midi": 71,
                    "time": 274.1979166666645,
                    "velocity": 0.2677165354330709,
                    "duration": 0.06666666666671972
                },
                {
                    "name": "A4",
                    "midi": 69,
                    "time": 274.20416666666455,
                    "velocity": 0.41732283464566927,
                    "duration": 0.056250000000034106
                },
                {
                    "name": "B4",
                    "midi": 71,
                    "time": 274.3416666666646,
                    "velocity": 0.3779527559055118,
                    "duration": 0.08333333333331439
                },
                {
                    "name": "A4",
                    "midi": 69,
                    "time": 274.34583333333126,
                    "velocity": 0.28346456692913385,
                    "duration": 0.09166666666664014
                },
                {
                    "name": "F#4",
                    "midi": 66,
                    "time": 274.3499999999979,
                    "velocity": 0.4094488188976378,
                    "duration": 0.1791666666666174
                },
                {
                    "name": "F#3",
                    "midi": 54,
                    "time": 274.3854166666646,
                    "velocity": 0.33858267716535434,
                    "duration": 0.18124999999997726
                },
                {
                    "name": "E5",
                    "midi": 76,
                    "time": 274.46458333333123,
                    "velocity": 0.3779527559055118,
                    "duration": 0.06041666666664014
                },
                {
                    "name": "F#5",
                    "midi": 78,
                    "time": 274.56666666666456,
                    "velocity": 0.15748031496062992,
                    "duration": 0.07291666666662877
                },
                {
                    "name": "B5",
                    "midi": 83,
                    "time": 274.59166666666454,
                    "velocity": 0.5826771653543307,
                    "duration": 0.04374999999998863
                },
                {
                    "name": "B5",
                    "midi": 83,
                    "time": 274.71874999999784,
                    "velocity": 0.2755905511811024,
                    "duration": 0.5458333333333485
                },
                {
                    "name": "A5",
                    "midi": 81,
                    "time": 274.7333333333312,
                    "velocity": 0.3937007874015748,
                    "duration": 0.1875
                },
                {
                    "name": "A2",
                    "midi": 45,
                    "time": 274.8270833333312,
                    "velocity": 0.4251968503937008,
                    "duration": 0.19375000000002274
                },
                {
                    "name": "E3",
                    "midi": 52,
                    "time": 274.86041666666455,
                    "velocity": 0.3464566929133858,
                    "duration": 0.09375
                },
                {
                    "name": "E6",
                    "midi": 88,
                    "time": 274.9083333333312,
                    "velocity": 0.1732283464566929,
                    "duration": 0.09375
                },
                {
                    "name": "B6",
                    "midi": 95,
                    "time": 275.00624999999786,
                    "velocity": 0.3543307086614173,
                    "duration": 0.08958333333333712
                },
                {
                    "name": "F#6",
                    "midi": 90,
                    "time": 275.0249999999979,
                    "velocity": 0.03937007874015748,
                    "duration": 0.05833333333333712
                },
                {
                    "name": "A6",
                    "midi": 93,
                    "time": 275.23749999999785,
                    "velocity": 0.4645669291338583,
                    "duration": 0.15625000000005684
                },
                {
                    "name": "E4",
                    "midi": 64,
                    "time": 275.2749999999979,
                    "velocity": 0.6614173228346457,
                    "duration": 0.5291666666667538
                },
                {
                    "name": "A3",
                    "midi": 57,
                    "time": 275.31041666666454,
                    "velocity": 0.2047244094488189,
                    "duration": 0.11666666666673109
                },
                {
                    "name": "G#3",
                    "midi": 56,
                    "time": 275.3124999999979,
                    "velocity": 0.3228346456692913,
                    "duration": 1.170833333333519
                },
                {
                    "name": "C#4",
                    "midi": 61,
                    "time": 275.3249999999979,
                    "velocity": 0.25196850393700787,
                    "duration": 1.1500000000001478
                },
                {
                    "name": "F#6",
                    "midi": 90,
                    "time": 275.3833333333312,
                    "velocity": 0.33070866141732286,
                    "duration": 0.11250000000006821
                },
                {
                    "name": "C#6",
                    "midi": 85,
                    "time": 275.57499999999794,
                    "velocity": 0.2755905511811024,
                    "duration": 0.05833333333333712
                },
                {
                    "name": "A3",
                    "midi": 57,
                    "time": 275.63541666666464,
                    "velocity": 0.015748031496062992,
                    "duration": 0.7666666666667084
                },
                {
                    "name": "A5",
                    "midi": 81,
                    "time": 275.63541666666464,
                    "velocity": 0.4881889763779528,
                    "duration": 0.04583333333334849
                },
                {
                    "name": "F#5",
                    "midi": 78,
                    "time": 275.7520833333313,
                    "velocity": 0.36220472440944884,
                    "duration": 0.13333333333332575
                },
                {
                    "name": "E5",
                    "midi": 76,
                    "time": 275.8354166666646,
                    "velocity": 0.28346456692913385,
                    "duration": 0.09166666666669698
                },
                {
                    "name": "A4",
                    "midi": 69,
                    "time": 275.99791666666465,
                    "velocity": 0.3228346456692913,
                    "duration": 0.08541666666667425
                },
                {
                    "name": "F#4",
                    "midi": 66,
                    "time": 275.999999999998,
                    "velocity": 0.5748031496062992,
                    "duration": 0.26875000000001137
                },
                {
                    "name": "C#5",
                    "midi": 73,
                    "time": 276.087499999998,
                    "velocity": 0.41732283464566927,
                    "duration": 0.12291666666664014
                },
                {
                    "name": "E5",
                    "midi": 76,
                    "time": 276.212499999998,
                    "velocity": 0.25196850393700787,
                    "duration": 0.058333333333393966
                },
                {
                    "name": "F#5",
                    "midi": 78,
                    "time": 276.262499999998,
                    "velocity": 0.41732283464566927,
                    "duration": 0.05208333333337123
                },
                {
                    "name": "E4",
                    "midi": 64,
                    "time": 276.36874999999804,
                    "velocity": 0.6692913385826772,
                    "duration": 0.4166666666667993
                },
                {
                    "name": "A5",
                    "midi": 81,
                    "time": 276.3729166666647,
                    "velocity": 0.3464566929133858,
                    "duration": 0.15833333333335986
                },
                {
                    "name": "C#6",
                    "midi": 85,
                    "time": 276.48124999999806,
                    "velocity": 0.3779527559055118,
                    "duration": 0.14166666666670835
                },
                {
                    "name": "E6",
                    "midi": 88,
                    "time": 276.58541666666474,
                    "velocity": 0.31496062992125984,
                    "duration": 0.15416666666669698
                },
                {
                    "name": "F#6",
                    "midi": 90,
                    "time": 276.6583333333314,
                    "velocity": 0.2677165354330709,
                    "duration": 0.07083333333332575
                },
                {
                    "name": "A6",
                    "midi": 93,
                    "time": 276.7374999999981,
                    "velocity": 0.47244094488188976,
                    "duration": 0.15625000000005684
                },
                {
                    "name": "C#4",
                    "midi": 61,
                    "time": 276.7416666666648,
                    "velocity": 0.6850393700787402,
                    "duration": 0.47083333333335986
                },
                {
                    "name": "A3",
                    "midi": 57,
                    "time": 276.7791666666648,
                    "velocity": 0.31496062992125984,
                    "duration": 0.4249999999999545
                },
                {
                    "name": "F#3",
                    "midi": 54,
                    "time": 276.79374999999817,
                    "velocity": 0.2677165354330709,
                    "duration": 0.4520833333333485
                },
                {
                    "name": "F#6",
                    "midi": 90,
                    "time": 276.8416666666648,
                    "velocity": 0.2440944881889764,
                    "duration": 0.1416666666666515
                },
                {
                    "name": "E6",
                    "midi": 88,
                    "time": 276.9666666666648,
                    "velocity": 0.14173228346456693,
                    "duration": 0.07083333333326891
                },
                {
                    "name": "C#6",
                    "midi": 85,
                    "time": 277.0124999999981,
                    "velocity": 0.3937007874015748,
                    "duration": 0.052083333333314386
                },
                {
                    "name": "A5",
                    "midi": 81,
                    "time": 277.0958333333314,
                    "velocity": 0.47244094488188976,
                    "duration": 0.04583333333334849
                },
                {
                    "name": "F#5",
                    "midi": 78,
                    "time": 277.2104166666648,
                    "velocity": 0.3779527559055118,
                    "duration": 0.1187500000000341
                },
                {
                    "name": "E5",
                    "midi": 76,
                    "time": 277.29791666666483,
                    "velocity": 0.3700787401574803,
                    "duration": 0.1395833333333485
                },
                {
                    "name": "C#5",
                    "midi": 73,
                    "time": 277.39166666666483,
                    "velocity": 0.2677165354330709,
                    "duration": 0.05833333333333712
                },
                {
                    "name": "A2",
                    "midi": 45,
                    "time": 277.48124999999817,
                    "velocity": 0.2992125984251969,
                    "duration": 0.310416666666697
                },
                {
                    "name": "A4",
                    "midi": 69,
                    "time": 277.4874999999982,
                    "velocity": 0.2755905511811024,
                    "duration": 0.08541666666667425
                },
                {
                    "name": "E3",
                    "midi": 52,
                    "time": 277.4979166666649,
                    "velocity": 0.2755905511811024,
                    "duration": 0.252083333333303
                },
                {
                    "name": "C#5",
                    "midi": 73,
                    "time": 277.57291666666487,
                    "velocity": 0.2440944881889764,
                    "duration": 0.11874999999997726
                },
                {
                    "name": "E5",
                    "midi": 76,
                    "time": 277.70416666666483,
                    "velocity": 0.2440944881889764,
                    "duration": 0.06250000000005684
                },
                {
                    "name": "F#5",
                    "midi": 78,
                    "time": 277.76041666666487,
                    "velocity": 0.47244094488188976,
                    "duration": 0.041666666666685614
                },
                {
                    "name": "A5",
                    "midi": 81,
                    "time": 277.88958333333153,
                    "velocity": 0.25984251968503935,
                    "duration": 0.08541666666667425
                },
                {
                    "name": "C#6",
                    "midi": 85,
                    "time": 277.9874999999982,
                    "velocity": 0.3858267716535433,
                    "duration": 0.07916666666665151
                },
                {
                    "name": "E6",
                    "midi": 88,
                    "time": 278.0999999999982,
                    "velocity": 0.28346456692913385,
                    "duration": 0.09583333333330302
                },
                {
                    "name": "F#6",
                    "midi": 90,
                    "time": 278.1833333333315,
                    "velocity": 0.31496062992125984,
                    "duration": 0.10416666666662877
                },
                {
                    "name": "E4",
                    "midi": 64,
                    "time": 278.2895833333315,
                    "velocity": 0.6377952755905512,
                    "duration": 0.5666666666666629
                },
                {
                    "name": "A6",
                    "midi": 93,
                    "time": 278.2895833333315,
                    "velocity": 0.4094488188976378,
                    "duration": 0.12916666666666288
                },
                {
                    "name": "G#3",
                    "midi": 56,
                    "time": 278.3208333333315,
                    "velocity": 0.28346456692913385,
                    "duration": 1.2208333333333599
                },
                {
                    "name": "C#4",
                    "midi": 61,
                    "time": 278.32916666666483,
                    "velocity": 0.3464566929133858,
                    "duration": 1.1750000000000114
                },
                {
                    "name": "A3",
                    "midi": 57,
                    "time": 278.3624999999982,
                    "velocity": 0.10236220472440945,
                    "duration": 1.2145833333333371
                },
                {
                    "name": "F#6",
                    "midi": 90,
                    "time": 278.3833333333315,
                    "velocity": 0.25196850393700787,
                    "duration": 0.12708333333330302
                },
                {
                    "name": "E6",
                    "midi": 88,
                    "time": 278.51249999999817,
                    "velocity": 0.14960629921259844,
                    "duration": 0.07291666666668561
                },
                {
                    "name": "C#6",
                    "midi": 85,
                    "time": 278.5624999999982,
                    "velocity": 0.3858267716535433,
                    "duration": 0.052083333333314386
                },
                {
                    "name": "A5",
                    "midi": 81,
                    "time": 278.66041666666484,
                    "velocity": 0.33070866141732286,
                    "duration": 0.054166666666674246
                },
                {
                    "name": "F#5",
                    "midi": 78,
                    "time": 278.7812499999982,
                    "velocity": 0.31496062992125984,
                    "duration": 0.125
                },
                {
                    "name": "E5",
                    "midi": 76,
                    "time": 278.8624999999982,
                    "velocity": 0.3228346456692913,
                    "duration": 0.0687499999999659
                },
                {
                    "name": "C#5",
                    "midi": 73,
                    "time": 278.9395833333315,
                    "velocity": 0.28346456692913385,
                    "duration": 0.0625
                },
                {
                    "name": "F#4",
                    "midi": 66,
                    "time": 279.0229166666648,
                    "velocity": 0.5433070866141733,
                    "duration": 0.2604166666666856
                },
                {
                    "name": "A4",
                    "midi": 69,
                    "time": 279.05208333333144,
                    "velocity": 0.25984251968503935,
                    "duration": 0.08125000000001137
                },
                {
                    "name": "C#5",
                    "midi": 73,
                    "time": 279.14374999999814,
                    "velocity": 0.25984251968503935,
                    "duration": 0.07291666666668561
                },
                {
                    "name": "E5",
                    "midi": 76,
                    "time": 279.2520833333315,
                    "velocity": 0.2283464566929134,
                    "duration": 0.06041666666669698
                },
                {
                    "name": "F#5",
                    "midi": 78,
                    "time": 279.30624999999816,
                    "velocity": 0.41732283464566927,
                    "duration": 0.05000000000001137
                },
                {
                    "name": "E4",
                    "midi": 64,
                    "time": 279.39791666666486,
                    "velocity": 0.6141732283464567,
                    "duration": 0.3083333333333371
                },
                {
                    "name": "A5",
                    "midi": 81,
                    "time": 279.41041666666484,
                    "velocity": 0.3464566929133858,
                    "duration": 0.10000000000002274
                },
                {
                    "name": "C#6",
                    "midi": 85,
                    "time": 279.52083333333155,
                    "velocity": 0.3464566929133858,
                    "duration": 0.07291666666662877
                },
                {
                    "name": "E6",
                    "midi": 88,
                    "time": 279.6229166666648,
                    "velocity": 0.2677165354330709,
                    "duration": 0.09583333333335986
                },
                {
                    "name": "F#6",
                    "midi": 90,
                    "time": 279.67291666666483,
                    "velocity": 0.3543307086614173,
                    "duration": 0.06875000000002274
                },
                {
                    "name": "C#4",
                    "midi": 61,
                    "time": 279.7583333333315,
                    "velocity": 0.5354330708661418,
                    "duration": 0.33958333333339397
                },
                {
                    "name": "A3",
                    "midi": 57,
                    "time": 279.76666666666483,
                    "velocity": 0.3543307086614173,
                    "duration": 0.4604166666667311
                },
                {
                    "name": "A6",
                    "midi": 93,
                    "time": 279.76666666666483,
                    "velocity": 0.3543307086614173,
                    "duration": 0.11250000000001137
                },
                {
                    "name": "F#3",
                    "midi": 54,
                    "time": 279.80624999999816,
                    "velocity": 0.23622047244094488,
                    "duration": 0.6812500000000341
                },
                {
                    "name": "F#6",
                    "midi": 90,
                    "time": 279.84791666666484,
                    "velocity": 0.1968503937007874,
                    "duration": 0.12291666666669698
                },
                {
                    "name": "E6",
                    "midi": 88,
                    "time": 279.9374999999982,
                    "velocity": 0.2283464566929134,
                    "duration": 0.0708333333333826
                },
                {
                    "name": "C#6",
                    "midi": 85,
                    "time": 279.9937499999982,
                    "velocity": 0.3858267716535433,
                    "duration": 0.05208333333337123
                },
                {
                    "name": "A5",
                    "midi": 81,
                    "time": 280.08124999999825,
                    "velocity": 0.31496062992125984,
                    "duration": 0.05624999999997726
                },
                {
                    "name": "B3",
                    "midi": 59,
                    "time": 280.08124999999825,
                    "velocity": 0.5354330708661418,
                    "duration": 0.22708333333332575
                },
                {
                    "name": "F#5",
                    "midi": 78,
                    "time": 280.18958333333154,
                    "velocity": 0.3937007874015748,
                    "duration": 0.12708333333335986
                },
                {
                    "name": "E5",
                    "midi": 76,
                    "time": 280.27083333333155,
                    "velocity": 0.25984251968503935,
                    "duration": 0.07916666666665151
                },
                {
                    "name": "C#5",
                    "midi": 73,
                    "time": 280.3374999999982,
                    "velocity": 0.33070866141732286,
                    "duration": 0.054166666666674246
                },
                {
                    "name": "C#4",
                    "midi": 61,
                    "time": 280.4124999999982,
                    "velocity": 0.5826771653543307,
                    "duration": 0.09583333333335986
                },
                {
                    "name": "A4",
                    "midi": 69,
                    "time": 280.4333333333315,
                    "velocity": 0.25196850393700787,
                    "duration": 0.08541666666673109
                },
                {
                    "name": "C#5",
                    "midi": 73,
                    "time": 280.50208333333154,
                    "velocity": 0.2204724409448819,
                    "duration": 0.13541666666674246
                },
                {
                    "name": "E5",
                    "midi": 76,
                    "time": 280.6145833333316,
                    "velocity": 0.28346456692913385,
                    "duration": 0.056250000000034106
                },
                {
                    "name": "F#5",
                    "midi": 78,
                    "time": 280.68333333333163,
                    "velocity": 0.3228346456692913,
                    "duration": 0.06458333333330302
                },
                {
                    "name": "A2",
                    "midi": 45,
                    "time": 280.7437499999983,
                    "velocity": 0.6062992125984252,
                    "duration": 0.05833333333333712
                },
                {
                    "name": "C#6",
                    "midi": 85,
                    "time": 280.89374999999825,
                    "velocity": 0.3228346456692913,
                    "duration": 0.07291666666668561
                },
                {
                    "name": "E6",
                    "midi": 88,
                    "time": 281.0083333333316,
                    "velocity": 0.2047244094488189,
                    "duration": 0.07708333333334849
                },
                {
                    "name": "F#6",
                    "midi": 90,
                    "time": 281.0395833333316,
                    "velocity": 0.3700787401574803,
                    "duration": 0.0625
                },
                {
                    "name": "E4",
                    "midi": 64,
                    "time": 281.104166666665,
                    "velocity": 0.7322834645669292,
                    "duration": 0.4874999999999545
                },
                {
                    "name": "A6",
                    "midi": 93,
                    "time": 281.12083333333163,
                    "velocity": 0.4251968503937008,
                    "duration": 0.10833333333340533
                },
                {
                    "name": "C#4",
                    "midi": 61,
                    "time": 281.12708333333165,
                    "velocity": 0.4566929133858268,
                    "duration": 1.4166666666666288
                },
                {
                    "name": "G#3",
                    "midi": 56,
                    "time": 281.13749999999834,
                    "velocity": 0.33070866141732286,
                    "duration": 1.2624999999999886
                },
                {
                    "name": "A3",
                    "midi": 57,
                    "time": 281.147916666665,
                    "velocity": 0.25984251968503935,
                    "duration": 1.160416666666606
                },
                {
                    "name": "F#6",
                    "midi": 90,
                    "time": 281.2145833333317,
                    "velocity": 0.2677165354330709,
                    "duration": 0.08749999999997726
                },
                {
                    "name": "E6",
                    "midi": 88,
                    "time": 281.272916666665,
                    "velocity": 0.25984251968503935,
                    "duration": 0.08958333333328028
                },
                {
                    "name": "C#6",
                    "midi": 85,
                    "time": 281.3624999999983,
                    "velocity": 0.31496062992125984,
                    "duration": 0.054166666666674246
                },
                {
                    "name": "A5",
                    "midi": 81,
                    "time": 281.43333333333163,
                    "velocity": 0.3779527559055118,
                    "duration": 0.052083333333314386
                },
                {
                    "name": "F#5",
                    "midi": 78,
                    "time": 281.5333333333316,
                    "velocity": 0.47244094488188976,
                    "duration": 0.13125000000002274
                },
                {
                    "name": "E5",
                    "midi": 76,
                    "time": 281.6249999999983,
                    "velocity": 0.31496062992125984,
                    "duration": 0.1395833333333485
                },
                {
                    "name": "C#5",
                    "midi": 73,
                    "time": 281.697916666665,
                    "velocity": 0.36220472440944884,
                    "duration": 0.054166666666674246
                },
                {
                    "name": "A4",
                    "midi": 69,
                    "time": 281.80416666666497,
                    "velocity": 0.28346456692913385,
                    "duration": 0.08749999999997726
                },
                {
                    "name": "F#4",
                    "midi": 66,
                    "time": 281.81666666666496,
                    "velocity": 0.5984251968503937,
                    "duration": 0.5583333333333371
                },
                {
                    "name": "C#5",
                    "midi": 73,
                    "time": 281.9062499999983,
                    "velocity": 0.2992125984251969,
                    "duration": 0.07916666666665151
                },
                {
                    "name": "E5",
                    "midi": 76,
                    "time": 282.01666666666495,
                    "velocity": 0.2755905511811024,
                    "duration": 0.0625
                },
                {
                    "name": "F#5",
                    "midi": 78,
                    "time": 282.08958333333163,
                    "velocity": 0.44881889763779526,
                    "duration": 0.04791666666665151
                },
                {
                    "name": "A5",
                    "midi": 81,
                    "time": 282.2187499999983,
                    "velocity": 0.16535433070866143,
                    "duration": 0.08541666666667425
                },
                {
                    "name": "C#6",
                    "midi": 85,
                    "time": 282.32708333333164,
                    "velocity": 0.33070866141732286,
                    "duration": 0.0625
                },
                {
                    "name": "E6",
                    "midi": 88,
                    "time": 282.4249999999983,
                    "velocity": 0.3228346456692913,
                    "duration": 0.06666666666666288
                },
                {
                    "name": "F#6",
                    "midi": 90,
                    "time": 282.5083333333316,
                    "velocity": 0.3937007874015748,
                    "duration": 0.13333333333332575
                },
                {
                    "name": "E4",
                    "midi": 64,
                    "time": 282.5187499999983,
                    "velocity": 0.6299212598425197,
                    "duration": 0.756249999999909
                },
                {
                    "name": "F#3",
                    "midi": 54,
                    "time": 282.5645833333316,
                    "velocity": 0.2755905511811024,
                    "duration": 0.9770833333332689
                },
                {
                    "name": "A3",
                    "midi": 57,
                    "time": 282.5854166666649,
                    "velocity": 0.1732283464566929,
                    "duration": 0.9187499999999318
                },
                {
                    "name": "E6",
                    "midi": 88,
                    "time": 282.59999999999826,
                    "velocity": 0.2283464566929134,
                    "duration": 0.08958333333333712
                },
                {
                    "name": "C#6",
                    "midi": 85,
                    "time": 282.6895833333316,
                    "velocity": 0.29133858267716534,
                    "duration": 0.05833333333333712
                },
                {
                    "name": "A5",
                    "midi": 81,
                    "time": 282.75624999999826,
                    "velocity": 0.4015748031496063,
                    "duration": 0.04791666666665151
                },
                {
                    "name": "F#5",
                    "midi": 78,
                    "time": 282.8687499999983,
                    "velocity": 0.4094488188976378,
                    "duration": 0.125
                },
                {
                    "name": "E5",
                    "midi": 76,
                    "time": 282.9479166666649,
                    "velocity": 0.29133858267716534,
                    "duration": 0.07083333333332575
                },
                {
                    "name": "C#5",
                    "midi": 73,
                    "time": 283.0354166666649,
                    "velocity": 0.3228346456692913,
                    "duration": 0.05624999999997726
                },
                {
                    "name": "A4",
                    "midi": 69,
                    "time": 283.1062499999982,
                    "velocity": 0.2677165354330709,
                    "duration": 0.08541666666667425
                },
                {
                    "name": "C#4",
                    "midi": 61,
                    "time": 283.24999999999824,
                    "velocity": 0.5984251968503937,
                    "duration": 0.28124999999994316
                },
                {
                    "name": "A4",
                    "midi": 69,
                    "time": 283.34583333333154,
                    "velocity": 0.28346456692913385,
                    "duration": 0.09166666666664014
                },
                {
                    "name": "C#5",
                    "midi": 73,
                    "time": 283.4645833333315,
                    "velocity": 0.3228346456692913,
                    "duration": 0.09375
                },
                {
                    "name": "E5",
                    "midi": 76,
                    "time": 283.5708333333315,
                    "velocity": 0.3779527559055118,
                    "duration": 0.06458333333335986
                },
                {
                    "name": "F#5",
                    "midi": 78,
                    "time": 283.6645833333315,
                    "velocity": 0.4251968503937008,
                    "duration": 0.05000000000001137
                },
                {
                    "name": "A5",
                    "midi": 81,
                    "time": 283.77499999999816,
                    "velocity": 0.2992125984251969,
                    "duration": 0.0687499999999659
                },
                {
                    "name": "G#2",
                    "midi": 44,
                    "time": 283.79999999999814,
                    "velocity": 0.4015748031496063,
                    "duration": 1.1229166666666401
                },
                {
                    "name": "C#6",
                    "midi": 85,
                    "time": 283.87083333333146,
                    "velocity": 0.3464566929133858,
                    "duration": 0.0625
                },
                {
                    "name": "E6",
                    "midi": 88,
                    "time": 283.9708333333315,
                    "velocity": 0.44881889763779526,
                    "duration": 0.08125000000001137
                },
                {
                    "name": "E3",
                    "midi": 52,
                    "time": 283.98124999999817,
                    "velocity": 0.1889763779527559,
                    "duration": 0.8958333333332575
                },
                {
                    "name": "B3",
                    "midi": 59,
                    "time": 284.0208333333315,
                    "velocity": 0.5354330708661418,
                    "duration": 0.7916666666665719
                },
                {
                    "name": "C#6",
                    "midi": 85,
                    "time": 284.0958333333315,
                    "velocity": 0.3543307086614173,
                    "duration": 0.052083333333314386
                },
                {
                    "name": "A5",
                    "midi": 81,
                    "time": 284.1812499999981,
                    "velocity": 0.36220472440944884,
                    "duration": 0.054166666666674246
                },
                {
                    "name": "F#5",
                    "midi": 78,
                    "time": 284.2812499999981,
                    "velocity": 0.4409448818897638,
                    "duration": 0.12708333333330302
                },
                {
                    "name": "E5",
                    "midi": 76,
                    "time": 284.39583333333144,
                    "velocity": 0.31496062992125984,
                    "duration": 0.06458333333330302
                },
                {
                    "name": "C#5",
                    "midi": 73,
                    "time": 284.4833333333314,
                    "velocity": 0.31496062992125984,
                    "duration": 0.05624999999997726
                },
                {
                    "name": "A4",
                    "midi": 69,
                    "time": 284.5583333333314,
                    "velocity": 0.2440944881889764,
                    "duration": 0.07916666666665151
                },
                {
                    "name": "F#4",
                    "midi": 66,
                    "time": 284.6854166666647,
                    "velocity": 0.16535433070866143,
                    "duration": 0.08125000000001137
                },
                {
                    "name": "E4",
                    "midi": 64,
                    "time": 284.80416666666474,
                    "velocity": 0.2125984251968504,
                    "duration": 0.06666666666666288
                },
                {
                    "name": "F#4",
                    "midi": 66,
                    "time": 284.8645833333314,
                    "velocity": 0.25984251968503935,
                    "duration": 0.05416666666673109
                },
                {
                    "name": "A4",
                    "midi": 69,
                    "time": 285.0229166666648,
                    "velocity": 0.08661417322834646,
                    "duration": 0.08125000000001137
                },
                {
                    "name": "C#5",
                    "midi": 73,
                    "time": 285.1145833333315,
                    "velocity": 0.28346456692913385,
                    "duration": 0.08749999999997726
                },
                {
                    "name": "F#2",
                    "midi": 42,
                    "time": 285.21249999999816,
                    "velocity": 0.2677165354330709,
                    "duration": 0.054166666666674246
                },
                {
                    "name": "E5",
                    "midi": 76,
                    "time": 285.2145833333315,
                    "velocity": 0.25196850393700787,
                    "duration": 0.07291666666662877
                },
                {
                    "name": "F#5",
                    "midi": 78,
                    "time": 285.3145833333315,
                    "velocity": 0.4409448818897638,
                    "duration": 0.04374999999998863
                },
                {
                    "name": "A5",
                    "midi": 81,
                    "time": 285.46249999999816,
                    "velocity": 0.14960629921259844,
                    "duration": 0.06666666666666288
                },
                {
                    "name": "C#4",
                    "midi": 61,
                    "time": 285.5458333333315,
                    "velocity": 0.4251968503937008,
                    "duration": 0.48124999999998863
                },
                {
                    "name": "A3",
                    "midi": 57,
                    "time": 285.5666666666648,
                    "velocity": 0.2755905511811024,
                    "duration": 1.029166666666697
                },
                {
                    "name": "E3",
                    "midi": 52,
                    "time": 285.5937499999981,
                    "velocity": 0.2755905511811024,
                    "duration": 1.0125000000000455
                },
                {
                    "name": "A5",
                    "midi": 81,
                    "time": 285.66458333333145,
                    "velocity": 0.2677165354330709,
                    "duration": 0.1020833333333826
                },
                {
                    "name": "F#5",
                    "midi": 78,
                    "time": 285.78749999999815,
                    "velocity": 0.33858267716535434,
                    "duration": 0.11458333333331439
                },
                {
                    "name": "E5",
                    "midi": 76,
                    "time": 285.90208333333146,
                    "velocity": 0.30708661417322836,
                    "duration": 0.0625
                },
                {
                    "name": "C#5",
                    "midi": 73,
                    "time": 285.98749999999814,
                    "velocity": 0.31496062992125984,
                    "duration": 0.05624999999997726
                },
                {
                    "name": "A4",
                    "midi": 69,
                    "time": 286.0666666666648,
                    "velocity": 0.36220472440944884,
                    "duration": 0.0625
                },
                {
                    "name": "F#4",
                    "midi": 66,
                    "time": 286.20624999999814,
                    "velocity": 0.2440944881889764,
                    "duration": 0.08541666666667425
                },
                {
                    "name": "E4",
                    "midi": 64,
                    "time": 286.28749999999815,
                    "velocity": 0.4251968503937008,
                    "duration": 0.06458333333330302
                },
                {
                    "name": "C#4",
                    "midi": 61,
                    "time": 286.4104166666648,
                    "velocity": 0.3700787401574803,
                    "duration": 0.08333333333331439
                },
                {
                    "name": "E4",
                    "midi": 64,
                    "time": 286.5166666666648,
                    "velocity": 0.33858267716535434,
                    "duration": 0.06875000000002274
                },
                {
                    "name": "F#4",
                    "midi": 66,
                    "time": 286.61666666666486,
                    "velocity": 0.3543307086614173,
                    "duration": 0.05833333333333712
                },
                {
                    "name": "A4",
                    "midi": 69,
                    "time": 286.7583333333315,
                    "velocity": 0.14960629921259844,
                    "duration": 0.09583333333335986
                },
                {
                    "name": "C#5",
                    "midi": 73,
                    "time": 286.8624999999982,
                    "velocity": 0.25196850393700787,
                    "duration": 0.14375000000001137
                },
                {
                    "name": "E5",
                    "midi": 76,
                    "time": 286.9958333333315,
                    "velocity": 0.2204724409448819,
                    "duration": 0.08333333333342807
                },
                {
                    "name": "E2",
                    "midi": 40,
                    "time": 286.9999999999982,
                    "velocity": 0.4566929133858268,
                    "duration": 0.1562500000001137
                },
                {
                    "name": "B2",
                    "midi": 47,
                    "time": 287.00833333333156,
                    "velocity": 0.18110236220472442,
                    "duration": 0.1750000000000682
                },
                {
                    "name": "F#5",
                    "midi": 78,
                    "time": 287.1124999999983,
                    "velocity": 0.30708661417322836,
                    "duration": 0.15833333333330302
                },
                {
                    "name": "A5",
                    "midi": 81,
                    "time": 287.23541666666495,
                    "velocity": 0.4015748031496063,
                    "duration": 0.05000000000001137
                },
                {
                    "name": "B5",
                    "midi": 83,
                    "time": 287.4083333333316,
                    "velocity": 0.5905511811023622,
                    "duration": 0.125
                },
                {
                    "name": "C#5",
                    "midi": 73,
                    "time": 287.4312499999983,
                    "velocity": 0.5826771653543307,
                    "duration": 0.052083333333314386
                },
                {
                    "name": "C#4",
                    "midi": 61,
                    "time": 287.4583333333316,
                    "velocity": 0.3700787401574803,
                    "duration": 0.10624999999998863
                },
                {
                    "name": "G#5",
                    "midi": 80,
                    "time": 287.5333333333316,
                    "velocity": 0.4094488188976378,
                    "duration": 0.13750000000004547
                },
                {
                    "name": "E5",
                    "midi": 76,
                    "time": 287.6687499999983,
                    "velocity": 0.23622047244094488,
                    "duration": 0.06458333333335986
                },
                {
                    "name": "C#5",
                    "midi": 73,
                    "time": 287.74374999999833,
                    "velocity": 0.3464566929133858,
                    "duration": 0.05624999999997726
                },
                {
                    "name": "B4",
                    "midi": 71,
                    "time": 287.83958333333163,
                    "velocity": 0.33858267716535434,
                    "duration": 0.06666666666666288
                },
                {
                    "name": "G#4",
                    "midi": 68,
                    "time": 287.95416666666495,
                    "velocity": 0.33070866141732286,
                    "duration": 0.11041666666665151
                },
                {
                    "name": "E4",
                    "midi": 64,
                    "time": 288.0729166666649,
                    "velocity": 0.2677165354330709,
                    "duration": 0.09791666666666288
                },
                {
                    "name": "C#4",
                    "midi": 61,
                    "time": 288.1499999999983,
                    "velocity": 0.2440944881889764,
                    "duration": 0.07083333333332575
                },
                {
                    "name": "D#5",
                    "midi": 75,
                    "time": 288.2583333333316,
                    "velocity": 0.5275590551181102,
                    "duration": 0.06875000000002274
                },
                {
                    "name": "D#4",
                    "midi": 63,
                    "time": 288.2583333333316,
                    "velocity": 0.5905511811023622,
                    "duration": 0.17500000000001137
                },
                {
                    "name": "C#4",
                    "midi": 61,
                    "time": 288.30833333333163,
                    "velocity": 0.23622047244094488,
                    "duration": 0.06666666666666288
                },
                {
                    "name": "E4",
                    "midi": 64,
                    "time": 288.3937499999983,
                    "velocity": 0.3779527559055118,
                    "duration": 0.05624999999997726
                },
                {
                    "name": "G#4",
                    "midi": 68,
                    "time": 288.4937499999983,
                    "velocity": 0.4094488188976378,
                    "duration": 0.04791666666665151
                },
                {
                    "name": "B4",
                    "midi": 71,
                    "time": 288.63333333333156,
                    "velocity": 0.2204724409448819,
                    "duration": 0.07291666666668561
                },
                {
                    "name": "C#5",
                    "midi": 73,
                    "time": 288.69583333333156,
                    "velocity": 0.3700787401574803,
                    "duration": 0.06666666666666288
                },
                {
                    "name": "E5",
                    "midi": 76,
                    "time": 288.81458333333154,
                    "velocity": 0.12598425196850394,
                    "duration": 0.08749999999997726
                },
                {
                    "name": "G#5",
                    "midi": 80,
                    "time": 288.8729166666649,
                    "velocity": 0.3228346456692913,
                    "duration": 0.0541666666666174
                },
                {
                    "name": "B5",
                    "midi": 83,
                    "time": 288.94166666666484,
                    "velocity": 0.5826771653543307,
                    "duration": 0.09166666666669698
                },
                {
                    "name": "G#4",
                    "midi": 68,
                    "time": 288.9437499999982,
                    "velocity": 0.5433070866141733,
                    "duration": 0.1395833333333485
                },
                {
                    "name": "G#3",
                    "midi": 56,
                    "time": 288.9624999999982,
                    "velocity": 0.41732283464566927,
                    "duration": 0.09375
                },
                {
                    "name": "G#5",
                    "midi": 80,
                    "time": 289.03333333333154,
                    "velocity": 0.2047244094488189,
                    "duration": 0.09166666666669698
                },
                {
                    "name": "E5",
                    "midi": 76,
                    "time": 289.1395833333316,
                    "velocity": 0.25196850393700787,
                    "duration": 0.06041666666664014
                },
                {
                    "name": "C#5",
                    "midi": 73,
                    "time": 289.2104166666649,
                    "velocity": 0.3464566929133858,
                    "duration": 0.05624999999997726
                },
                {
                    "name": "G#4",
                    "midi": 68,
                    "time": 289.4187499999982,
                    "velocity": 0.3228346456692913,
                    "duration": 0.06666666666666288
                },
                {
                    "name": "E4",
                    "midi": 64,
                    "time": 289.5249999999982,
                    "velocity": 0.25984251968503935,
                    "duration": 0.10624999999998863
                },
                {
                    "name": "C#4",
                    "midi": 61,
                    "time": 289.56458333333154,
                    "velocity": 0.3779527559055118,
                    "duration": 0.06666666666666288
                },
                {
                    "name": "B3",
                    "midi": 59,
                    "time": 289.6729166666649,
                    "velocity": 0.36220472440944884,
                    "duration": 0.06041666666664014
                },
                {
                    "name": "B4",
                    "midi": 71,
                    "time": 289.6729166666649,
                    "velocity": 0.5511811023622047,
                    "duration": 0.052083333333314386
                },
                {
                    "name": "C#4",
                    "midi": 61,
                    "time": 289.74166666666486,
                    "velocity": 0.2440944881889764,
                    "duration": 0.06666666666666288
                },
                {
                    "name": "E4",
                    "midi": 64,
                    "time": 289.83749999999816,
                    "velocity": 0.2440944881889764,
                    "duration": 0.06041666666664014
                },
                {
                    "name": "G#4",
                    "midi": 68,
                    "time": 289.8979166666648,
                    "velocity": 0.4094488188976378,
                    "duration": 0.04791666666665151
                },
                {
                    "name": "B4",
                    "midi": 71,
                    "time": 290.01874999999814,
                    "velocity": 0.3543307086614173,
                    "duration": 0.07916666666670835
                },
                {
                    "name": "C#5",
                    "midi": 73,
                    "time": 290.0958333333315,
                    "velocity": 0.4251968503937008,
                    "duration": 0.07708333333334849
                },
                {
                    "name": "E5",
                    "midi": 76,
                    "time": 290.1854166666648,
                    "velocity": 0.3700787401574803,
                    "duration": 0.14791666666667425
                },
                {
                    "name": "G#5",
                    "midi": 80,
                    "time": 290.2833333333315,
                    "velocity": 0.4330708661417323,
                    "duration": 0.056250000000034106
                },
                {
                    "name": "C#5",
                    "midi": 73,
                    "time": 290.34583333333154,
                    "velocity": 0.5669291338582677,
                    "duration": 0.0875000000000341
                },
                {
                    "name": "B5",
                    "midi": 83,
                    "time": 290.3562499999982,
                    "velocity": 0.5511811023622047,
                    "duration": 0.0875000000000341
                },
                {
                    "name": "C#4",
                    "midi": 61,
                    "time": 290.3687499999982,
                    "velocity": 0.3937007874015748,
                    "duration": 0.06458333333335986
                },
                {
                    "name": "G#5",
                    "midi": 80,
                    "time": 290.4458333333316,
                    "velocity": 0.23622047244094488,
                    "duration": 0.08124999999995453
                },
                {
                    "name": "E5",
                    "midi": 76,
                    "time": 290.50624999999826,
                    "velocity": 0.3464566929133858,
                    "duration": 0.11250000000001137
                },
                {
                    "name": "C#5",
                    "midi": 73,
                    "time": 290.6041666666649,
                    "velocity": 0.28346456692913385,
                    "duration": 0.056250000000034106
                },
                {
                    "name": "B4",
                    "midi": 71,
                    "time": 290.67083333333164,
                    "velocity": 0.4094488188976378,
                    "duration": 0.05833333333333712
                },
                {
                    "name": "G#4",
                    "midi": 68,
                    "time": 290.7895833333316,
                    "velocity": 0.33070866141732286,
                    "duration": 0.07916666666665151
                },
                {
                    "name": "E4",
                    "midi": 64,
                    "time": 290.87916666666496,
                    "velocity": 0.36220472440944884,
                    "duration": 0.11458333333331439
                },
                {
                    "name": "C#4",
                    "midi": 61,
                    "time": 290.92291666666495,
                    "velocity": 0.47244094488188976,
                    "duration": 0.09583333333330302
                },
                {
                    "name": "D#5",
                    "midi": 75,
                    "time": 291.03958333333156,
                    "velocity": 0.5196850393700787,
                    "duration": 0.06041666666669698
                },
                {
                    "name": "B3",
                    "midi": 59,
                    "time": 291.03958333333156,
                    "velocity": 0.3700787401574803,
                    "duration": 0.05208333333337123
                },
                {
                    "name": "D#4",
                    "midi": 63,
                    "time": 291.0541666666649,
                    "velocity": 0.4645669291338583,
                    "duration": 0.13749999999998863
                },
                {
                    "name": "C#4",
                    "midi": 61,
                    "time": 291.09999999999826,
                    "velocity": 0.3779527559055118,
                    "duration": 0.06041666666664014
                },
                {
                    "name": "E4",
                    "midi": 64,
                    "time": 291.17708333333155,
                    "velocity": 0.3937007874015748,
                    "duration": 0.054166666666674246
                },
                {
                    "name": "G#4",
                    "midi": 68,
                    "time": 291.2624999999982,
                    "velocity": 0.4251968503937008,
                    "duration": 0.04583333333334849
                },
                {
                    "name": "B4",
                    "midi": 71,
                    "time": 291.39583333333155,
                    "velocity": 0.3228346456692913,
                    "duration": 0.07708333333334849
                },
                {
                    "name": "C#5",
                    "midi": 73,
                    "time": 291.4645833333316,
                    "velocity": 0.4330708661417323,
                    "duration": 0.1166666666666174
                },
                {
                    "name": "E5",
                    "midi": 76,
                    "time": 291.56458333333154,
                    "velocity": 0.33070866141732286,
                    "duration": 0.1312499999999659
                },
                {
                    "name": "G#5",
                    "midi": 80,
                    "time": 291.6333333333315,
                    "velocity": 0.3779527559055118,
                    "duration": 0.06458333333335986
                },
                {
                    "name": "B5",
                    "midi": 83,
                    "time": 291.71041666666486,
                    "velocity": 0.5511811023622047,
                    "duration": 0.08333333333331439
                },
                {
                    "name": "G#4",
                    "midi": 68,
                    "time": 291.7145833333315,
                    "velocity": 0.4566929133858268,
                    "duration": 0.0999999999999659
                },
                {
                    "name": "G#3",
                    "midi": 56,
                    "time": 291.7270833333315,
                    "velocity": 0.3937007874015748,
                    "duration": 0.08333333333331439
                },
                {
                    "name": "G#5",
                    "midi": 80,
                    "time": 291.81666666666484,
                    "velocity": 0.2755905511811024,
                    "duration": 0.05833333333333712
                },
                {
                    "name": "E5",
                    "midi": 76,
                    "time": 291.8645833333315,
                    "velocity": 0.3543307086614173,
                    "duration": 0.09583333333335986
                },
                {
                    "name": "C#5",
                    "midi": 73,
                    "time": 291.96041666666486,
                    "velocity": 0.3937007874015748,
                    "duration": 0.05000000000001137
                },
                {
                    "name": "B4",
                    "midi": 71,
                    "time": 292.04166666666487,
                    "velocity": 0.3228346456692913,
                    "duration": 0.07708333333334849
                },
                {
                    "name": "G#4",
                    "midi": 68,
                    "time": 292.15833333333154,
                    "velocity": 0.3464566929133858,
                    "duration": 0.06875000000002274
                },
                {
                    "name": "E4",
                    "midi": 64,
                    "time": 292.2458333333316,
                    "velocity": 0.3228346456692913,
                    "duration": 0.10416666666668561
                },
                {
                    "name": "C#4",
                    "midi": 61,
                    "time": 292.2916666666649,
                    "velocity": 0.36220472440944884,
                    "duration": 0.06666666666666288
                },
                {
                    "name": "B3",
                    "midi": 59,
                    "time": 292.39374999999825,
                    "velocity": 0.41732283464566927,
                    "duration": 0.07916666666670835
                },
                {
                    "name": "B4",
                    "midi": 71,
                    "time": 292.4083333333316,
                    "velocity": 0.4881889763779528,
                    "duration": 0.05000000000001137
                },
                {
                    "name": "C#4",
                    "midi": 61,
                    "time": 292.4749999999983,
                    "velocity": 0.2677165354330709,
                    "duration": 0.06875000000002274
                },
                {
                    "name": "E4",
                    "midi": 64,
                    "time": 292.566666666665,
                    "velocity": 0.3228346456692913,
                    "duration": 0.10416666666668561
                },
                {
                    "name": "G#4",
                    "midi": 68,
                    "time": 292.63541666666504,
                    "velocity": 0.3543307086614173,
                    "duration": 0.054166666666674246
                },
                {
                    "name": "B4",
                    "midi": 71,
                    "time": 292.78124999999835,
                    "velocity": 0.2047244094488189,
                    "duration": 0.07499999999998863
                },
                {
                    "name": "C#5",
                    "midi": 73,
                    "time": 292.84374999999835,
                    "velocity": 0.3700787401574803,
                    "duration": 0.07499999999998863
                },
                {
                    "name": "E5",
                    "midi": 76,
                    "time": 292.9458333333317,
                    "velocity": 0.28346456692913385,
                    "duration": 0.09583333333330302
                },
                {
                    "name": "G#5",
                    "midi": 80,
                    "time": 293.029166666665,
                    "velocity": 0.28346456692913385,
                    "duration": 0.05624999999997726
                },
                {
                    "name": "C#5",
                    "midi": 73,
                    "time": 293.0937499999983,
                    "velocity": 0.44881889763779526,
                    "duration": 0.10000000000002274
                },
                {
                    "name": "B5",
                    "midi": 83,
                    "time": 293.1020833333316,
                    "velocity": 0.4330708661417323,
                    "duration": 0.07083333333332575
                },
                {
                    "name": "C#4",
                    "midi": 61,
                    "time": 293.1187499999983,
                    "velocity": 0.29133858267716534,
                    "duration": 0.06875000000002274
                },
                {
                    "name": "G#5",
                    "midi": 80,
                    "time": 293.1749999999983,
                    "velocity": 0.1889763779527559,
                    "duration": 0.08958333333339397
                },
                {
                    "name": "E5",
                    "midi": 76,
                    "time": 293.2583333333317,
                    "velocity": 0.2677165354330709,
                    "duration": 0.06875000000002274
                },
                {
                    "name": "B4",
                    "midi": 71,
                    "time": 293.410416666665,
                    "velocity": 0.3779527559055118,
                    "duration": 0.06458333333335986
                },
                {
                    "name": "G#4",
                    "midi": 68,
                    "time": 293.53124999999835,
                    "velocity": 0.2992125984251969,
                    "duration": 0.07291666666668561
                },
                {
                    "name": "E4",
                    "midi": 64,
                    "time": 293.616666666665,
                    "velocity": 0.28346456692913385,
                    "duration": 0.09375
                },
                {
                    "name": "C#4",
                    "midi": 61,
                    "time": 293.679166666665,
                    "velocity": 0.3937007874015748,
                    "duration": 0.06041666666664014
                },
                {
                    "name": "B3",
                    "midi": 59,
                    "time": 293.78124999999835,
                    "velocity": 0.3543307086614173,
                    "duration": 0.06041666666669698
                },
                {
                    "name": "D#5",
                    "midi": 75,
                    "time": 293.7833333333317,
                    "velocity": 0.4566929133858268,
                    "duration": 0.05833333333333712
                },
                {
                    "name": "D#4",
                    "midi": 63,
                    "time": 293.79999999999836,
                    "velocity": 0.3937007874015748,
                    "duration": 0.08333333333331439
                },
                {
                    "name": "C#4",
                    "midi": 61,
                    "time": 293.8583333333317,
                    "velocity": 0.1732283464566929,
                    "duration": 0.07708333333329165
                },
                {
                    "name": "E4",
                    "midi": 64,
                    "time": 293.941666666665,
                    "velocity": 0.3228346456692913,
                    "duration": 0.10416666666662877
                },
                {
                    "name": "G#4",
                    "midi": 68,
                    "time": 293.997916666665,
                    "velocity": 0.3464566929133858,
                    "duration": 0.05624999999997726
                },
                {
                    "name": "B4",
                    "midi": 71,
                    "time": 294.1437499999983,
                    "velocity": 0.2125984251968504,
                    "duration": 0.07291666666668561
                },
                {
                    "name": "C#5",
                    "midi": 73,
                    "time": 294.22083333333165,
                    "velocity": 0.29133858267716534,
                    "duration": 0.06041666666664014
                },
                {
                    "name": "E5",
                    "midi": 76,
                    "time": 294.28333333333165,
                    "velocity": 0.33070866141732286,
                    "duration": 0.125
                },
                {
                    "name": "G#5",
                    "midi": 80,
                    "time": 294.37083333333163,
                    "velocity": 0.3779527559055118,
                    "duration": 0.07916666666670835
                },
                {
                    "name": "G#4",
                    "midi": 68,
                    "time": 294.4645833333317,
                    "velocity": 0.3779527559055118,
                    "duration": 0.09166666666664014
                },
                {
                    "name": "B5",
                    "midi": 83,
                    "time": 294.46874999999835,
                    "velocity": 0.47244094488188976,
                    "duration": 0.06458333333330302
                },
                {
                    "name": "G#3",
                    "midi": 56,
                    "time": 294.4770833333317,
                    "velocity": 0.31496062992125984,
                    "duration": 0.07499999999998863
                },
                {
                    "name": "G#5",
                    "midi": 80,
                    "time": 294.54374999999834,
                    "velocity": 0.25984251968503935,
                    "duration": 0.07499999999998863
                },
                {
                    "name": "E5",
                    "midi": 76,
                    "time": 294.6208333333317,
                    "velocity": 0.30708661417322836,
                    "duration": 0.08541666666667425
                },
                {
                    "name": "C#5",
                    "midi": 73,
                    "time": 294.7270833333317,
                    "velocity": 0.2677165354330709,
                    "duration": 0.06041666666664014
                },
                {
                    "name": "B4",
                    "midi": 71,
                    "time": 294.80416666666497,
                    "velocity": 0.29133858267716534,
                    "duration": 0.07499999999998863
                },
                {
                    "name": "G#4",
                    "midi": 68,
                    "time": 294.9499999999983,
                    "velocity": 0.2283464566929134,
                    "duration": 0.06041666666664014
                },
                {
                    "name": "E4",
                    "midi": 64,
                    "time": 295.01874999999825,
                    "velocity": 0.2677165354330709,
                    "duration": 0.09375
                },
                {
                    "name": "C#4",
                    "midi": 61,
                    "time": 295.0770833333316,
                    "velocity": 0.30708661417322836,
                    "duration": 0.06041666666664014
                },
                {
                    "name": "B4",
                    "midi": 71,
                    "time": 295.20833333333155,
                    "velocity": 0.33858267716535434,
                    "duration": 0.05624999999997726
                },
                {
                    "name": "C#4",
                    "midi": 61,
                    "time": 295.23333333333153,
                    "velocity": 0.2204724409448819,
                    "duration": 0.07291666666668561
                },
                {
                    "name": "G#4",
                    "midi": 68,
                    "time": 295.4041666666649,
                    "velocity": 0.3858267716535433,
                    "duration": 0.04791666666665151
                },
                {
                    "name": "C#5",
                    "midi": 73,
                    "time": 295.62916666666484,
                    "velocity": 0.33070866141732286,
                    "duration": 0.06458333333335986
                },
                {
                    "name": "E5",
                    "midi": 76,
                    "time": 295.72291666666484,
                    "velocity": 0.2204724409448819,
                    "duration": 0.07708333333329165
                },
                {
                    "name": "G#5",
                    "midi": 80,
                    "time": 295.77499999999816,
                    "velocity": 0.3700787401574803,
                    "duration": 0.06041666666664014
                },
                {
                    "name": "B5",
                    "midi": 83,
                    "time": 295.8479166666648,
                    "velocity": 0.5039370078740157,
                    "duration": 0.07499999999998863
                },
                {
                    "name": "C#5",
                    "midi": 73,
                    "time": 295.84999999999815,
                    "velocity": 0.3937007874015748,
                    "duration": 0.06041666666664014
                },
                {
                    "name": "C#4",
                    "midi": 61,
                    "time": 295.88124999999815,
                    "velocity": 0.15748031496062992,
                    "duration": 0.07499999999998863
                },
                {
                    "name": "G#5",
                    "midi": 80,
                    "time": 295.9374999999981,
                    "velocity": 0.2047244094488189,
                    "duration": 0.0625
                },
                {
                    "name": "E5",
                    "midi": 76,
                    "time": 296.0166666666648,
                    "velocity": 0.2992125984251969,
                    "duration": 0.07708333333334849
                },
                {
                    "name": "C#5",
                    "midi": 73,
                    "time": 296.0874999999981,
                    "velocity": 0.30708661417322836,
                    "duration": 0.0625
                },
                {
                    "name": "B4",
                    "midi": 71,
                    "time": 296.18333333333146,
                    "velocity": 0.2677165354330709,
                    "duration": 0.07499999999998863
                },
                {
                    "name": "G#4",
                    "midi": 68,
                    "time": 296.30833333333146,
                    "velocity": 0.2677165354330709,
                    "duration": 0.05833333333333712
                },
                {
                    "name": "E4",
                    "midi": 64,
                    "time": 296.4041666666648,
                    "velocity": 0.15748031496062992,
                    "duration": 0.11041666666665151
                },
                {
                    "name": "C#4",
                    "midi": 61,
                    "time": 296.44374999999815,
                    "velocity": 0.3779527559055118,
                    "duration": 0.06666666666666288
                },
                {
                    "name": "D#5",
                    "midi": 75,
                    "time": 296.54999999999814,
                    "velocity": 0.3543307086614173,
                    "duration": 0.0625
                },
                {
                    "name": "B3",
                    "midi": 59,
                    "time": 296.5604166666648,
                    "velocity": 0.28346456692913385,
                    "duration": 0.0625
                },
                {
                    "name": "D#4",
                    "midi": 63,
                    "time": 296.5729166666648,
                    "velocity": 0.25196850393700787,
                    "duration": 0.07708333333334849
                },
                {
                    "name": "C#4",
                    "midi": 61,
                    "time": 296.64999999999816,
                    "velocity": 0.16535433070866143,
                    "duration": 0.07083333333332575
                },
                {
                    "name": "E4",
                    "midi": 64,
                    "time": 296.7291666666648,
                    "velocity": 0.15748031496062992,
                    "duration": 0.11041666666665151
                },
                {
                    "name": "G#4",
                    "midi": 68,
                    "time": 296.80833333333146,
                    "velocity": 0.3228346456692913,
                    "duration": 0.05624999999997726
                },
                {
                    "name": "B4",
                    "midi": 71,
                    "time": 296.91666666666475,
                    "velocity": 0.2283464566929134,
                    "duration": 0.07291666666668561
                },
                {
                    "name": "C#5",
                    "midi": 73,
                    "time": 297.0062499999981,
                    "velocity": 0.31496062992125984,
                    "duration": 0.07291666666668561
                },
                {
                    "name": "E5",
                    "midi": 76,
                    "time": 297.1062499999981,
                    "velocity": 0.25196850393700787,
                    "duration": 0.12916666666666288
                },
                {
                    "name": "G#5",
                    "midi": 80,
                    "time": 297.1874999999981,
                    "velocity": 0.36220472440944884,
                    "duration": 0.06041666666664014
                },
                {
                    "name": "B5",
                    "midi": 83,
                    "time": 297.2687499999981,
                    "velocity": 0.4645669291338583,
                    "duration": 0.08333333333331439
                },
                {
                    "name": "G#4",
                    "midi": 68,
                    "time": 297.2833333333314,
                    "velocity": 0.28346456692913385,
                    "duration": 0.10208333333332575
                },
                {
                    "name": "G#3",
                    "midi": 56,
                    "time": 297.31249999999807,
                    "velocity": 0.16535433070866143,
                    "duration": 0.07083333333332575
                },
                {
                    "name": "G#5",
                    "midi": 80,
                    "time": 297.37499999999807,
                    "velocity": 0.2125984251968504,
                    "duration": 0.06041666666669698
                },
                {
                    "name": "E5",
                    "midi": 76,
                    "time": 297.44791666666475,
                    "velocity": 0.2283464566929134,
                    "duration": 0.08541666666667425
                },
                {
                    "name": "C#5",
                    "midi": 73,
                    "time": 297.5479166666648,
                    "velocity": 0.25196850393700787,
                    "duration": 0.0625
                },
                {
                    "name": "B4",
                    "midi": 71,
                    "time": 297.64583333333144,
                    "velocity": 0.2440944881889764,
                    "duration": 0.06875000000002274
                },
                {
                    "name": "G#4",
                    "midi": 68,
                    "time": 297.78749999999815,
                    "velocity": 0.11023622047244094,
                    "duration": 0.06041666666664014
                },
                {
                    "name": "E4",
                    "midi": 64,
                    "time": 297.8916666666648,
                    "velocity": 0.07874015748031496,
                    "duration": 0.12499999999994316
                },
                {
                    "name": "C#4",
                    "midi": 61,
                    "time": 297.91666666666475,
                    "velocity": 0.3228346456692913,
                    "duration": 0.07499999999998863
                },
                {
                    "name": "B3",
                    "midi": 59,
                    "time": 298.04583333333136,
                    "velocity": 0.29133858267716534,
                    "duration": 0.06458333333330302
                },
                {
                    "name": "B4",
                    "midi": 71,
                    "time": 298.081249999998,
                    "velocity": 0.2283464566929134,
                    "duration": 0.07499999999998863
                },
                {
                    "name": "C#4",
                    "midi": 61,
                    "time": 298.14166666666466,
                    "velocity": 0.2283464566929134,
                    "duration": 0.06875000000002274
                },
                {
                    "name": "E4",
                    "midi": 64,
                    "time": 298.2416666666647,
                    "velocity": 0.2283464566929134,
                    "duration": 0.06458333333335986
                },
                {
                    "name": "G#4",
                    "midi": 68,
                    "time": 298.3645833333314,
                    "velocity": 0.11023622047244094,
                    "duration": 0.06041666666664014
                },
                {
                    "name": "B4",
                    "midi": 71,
                    "time": 298.45416666666466,
                    "velocity": 0.2047244094488189,
                    "duration": 0.08958333333333712
                },
                {
                    "name": "D#5",
                    "midi": 75,
                    "time": 298.6145833333313,
                    "velocity": 0.3543307086614173,
                    "duration": 0.06041666666664014
                },
                {
                    "name": "E5",
                    "midi": 76,
                    "time": 298.71874999999795,
                    "velocity": 0.06299212598425197,
                    "duration": 0.11250000000001137
                },
                {
                    "name": "G#5",
                    "midi": 80,
                    "time": 298.79166666666464,
                    "velocity": 0.3779527559055118,
                    "duration": 0.11250000000001137
                },
                {
                    "name": "B5",
                    "midi": 83,
                    "time": 298.92499999999797,
                    "velocity": 0.4330708661417323,
                    "duration": 0.1187500000000341
                },
                {
                    "name": "B2",
                    "midi": 47,
                    "time": 299.0145833333313,
                    "velocity": 0.2204724409448819,
                    "duration": 0.22916666666668561
                },
                {
                    "name": "E2",
                    "midi": 40,
                    "time": 299.01666666666466,
                    "velocity": 0.36220472440944884,
                    "duration": 0.27499999999997726
                },
                {
                    "name": "G#5",
                    "midi": 80,
                    "time": 299.04583333333136,
                    "velocity": 0.2755905511811024,
                    "duration": 0.08125000000001137
                },
                {
                    "name": "E5",
                    "midi": 76,
                    "time": 299.143749999998,
                    "velocity": 0.2677165354330709,
                    "duration": 0.07916666666665151
                },
                {
                    "name": "C#5",
                    "midi": 73,
                    "time": 299.24791666666465,
                    "velocity": 0.2755905511811024,
                    "duration": 0.0625
                },
                {
                    "name": "B4",
                    "midi": 71,
                    "time": 299.349999999998,
                    "velocity": 0.3779527559055118,
                    "duration": 0.054166666666674246
                },
                {
                    "name": "G#4",
                    "midi": 68,
                    "time": 299.4645833333313,
                    "velocity": 0.33070866141732286,
                    "duration": 0.08125000000001137
                },
                {
                    "name": "E4",
                    "midi": 64,
                    "time": 299.5895833333313,
                    "velocity": 0.25196850393700787,
                    "duration": 0.0708333333333826
                },
                {
                    "name": "C#4",
                    "midi": 61,
                    "time": 299.6583333333313,
                    "velocity": 0.3700787401574803,
                    "duration": 0.08541666666667425
                },
                {
                    "name": "B2",
                    "midi": 47,
                    "time": 299.7520833333313,
                    "velocity": 0.2204724409448819,
                    "duration": 0.06666666666666288
                },
                {
                    "name": "C#3",
                    "midi": 49,
                    "time": 299.818749999998,
                    "velocity": 0.29133858267716534,
                    "duration": 0.06458333333335986
                },
                {
                    "name": "E3",
                    "midi": 52,
                    "time": 299.943749999998,
                    "velocity": 0.2755905511811024,
                    "duration": 0.05833333333333712
                },
                {
                    "name": "G#3",
                    "midi": 56,
                    "time": 299.9958333333313,
                    "velocity": 0.2047244094488189,
                    "duration": 0.06875000000002274
                },
                {
                    "name": "B3",
                    "midi": 59,
                    "time": 300.09166666666465,
                    "velocity": 0.25196850393700787,
                    "duration": 0.07083333333332575
                },
                {
                    "name": "C#4",
                    "midi": 61,
                    "time": 300.15416666666465,
                    "velocity": 0.3700787401574803,
                    "duration": 0.11250000000001137
                },
                {
                    "name": "E4",
                    "midi": 64,
                    "time": 300.27708333333135,
                    "velocity": 0.25196850393700787,
                    "duration": 0.0687499999999659
                },
                {
                    "name": "G#4",
                    "midi": 68,
                    "time": 300.3333333333313,
                    "velocity": 0.25196850393700787,
                    "duration": 0.07499999999998863
                },
                {
                    "name": "B3",
                    "midi": 59,
                    "time": 300.46666666666465,
                    "velocity": 0.2125984251968504,
                    "duration": 0.06458333333335986
                },
                {
                    "name": "C#4",
                    "midi": 61,
                    "time": 300.55833333333135,
                    "velocity": 0.18110236220472442,
                    "duration": 0.07708333333334849
                },
                {
                    "name": "E4",
                    "midi": 64,
                    "time": 300.6604166666647,
                    "velocity": 0.23622047244094488,
                    "duration": 0.05833333333333712
                },
                {
                    "name": "G#4",
                    "midi": 68,
                    "time": 300.71666666666465,
                    "velocity": 0.28346456692913385,
                    "duration": 0.0708333333333826
                },
                {
                    "name": "B4",
                    "midi": 71,
                    "time": 300.8416666666647,
                    "velocity": 0.25196850393700787,
                    "duration": 0.07916666666665151
                },
                {
                    "name": "C#5",
                    "midi": 73,
                    "time": 300.91249999999803,
                    "velocity": 0.2755905511811024,
                    "duration": 0.08333333333331439
                },
                {
                    "name": "E5",
                    "midi": 76,
                    "time": 301.0229166666647,
                    "velocity": 0.2204724409448819,
                    "duration": 0.08125000000001137
                },
                {
                    "name": "G#5",
                    "midi": 80,
                    "time": 301.09583333333137,
                    "velocity": 0.3779527559055118,
                    "duration": 0.07083333333332575
                },
                {
                    "name": "B4",
                    "midi": 71,
                    "time": 301.2166666666647,
                    "velocity": 0.25196850393700787,
                    "duration": 0.08125000000001137
                },
                {
                    "name": "C#5",
                    "midi": 73,
                    "time": 301.3312499999981,
                    "velocity": 0.14960629921259844,
                    "duration": 0.28958333333332575
                },
                {
                    "name": "E5",
                    "midi": 76,
                    "time": 301.43541666666476,
                    "velocity": 0.14173228346456693,
                    "duration": 0.09791666666666288
                },
                {
                    "name": "G#5",
                    "midi": 80,
                    "time": 301.4958333333314,
                    "velocity": 0.3228346456692913,
                    "duration": 0.054166666666674246
                },
                {
                    "name": "E6",
                    "midi": 88,
                    "time": 301.6583333333314,
                    "velocity": 0.1732283464566929,
                    "duration": 0.08125000000001137
                },
                {
                    "name": "G#6",
                    "midi": 92,
                    "time": 301.7624999999981,
                    "velocity": 0.2440944881889764,
                    "duration": 0.10833333333334849
                },
                {
                    "name": "B6",
                    "midi": 95,
                    "time": 301.9416666666648,
                    "velocity": 0.15748031496062992,
                    "duration": 0.09166666666664014
                },
                {
                    "name": "C#7",
                    "midi": 97,
                    "time": 302.07291666666475,
                    "velocity": 0.12598425196850394,
                    "duration": 0.2854166666667197
                },
                {
                    "name": "D#6",
                    "midi": 87,
                    "time": 302.34791666666473,
                    "velocity": 0.15748031496062992,
                    "duration": 0.17500000000012506
                },
                {
                    "name": "B2",
                    "midi": 47,
                    "time": 302.3499999999981,
                    "velocity": 0.1732283464566929,
                    "duration": 0.20208333333340533
                },
                {
                    "name": "D#7",
                    "midi": 99,
                    "time": 302.35208333333145,
                    "velocity": 0.2204724409448819,
                    "duration": 0.42291666666670835
                },
                {
                    "name": "E2",
                    "midi": 40,
                    "time": 302.36041666666483,
                    "velocity": 0.2125984251968504,
                    "duration": 0.1708333333333485
                },
                {
                    "name": "G#6",
                    "midi": 92,
                    "time": 302.36041666666483,
                    "velocity": 0.11811023622047244,
                    "duration": 0.20625000000001137
                }
            ],
            "controlChanges": {
                "64": [
                    {
                        "number": 64,
                        "time": 0.10625,
                        "value": 1
                    },
                    {
                        "number": 64,
                        "time": 1.625,
                        "value": 0
                    },
                    {
                        "number": 64,
                        "time": 1.81875,
                        "value": 1
                    },
                    {
                        "number": 64,
                        "time": 3.1624999999999988,
                        "value": 0
                    },
                    {
                        "number": 64,
                        "time": 3.354166666666665,
                        "value": 1
                    },
                    {
                        "number": 64,
                        "time": 4.074999999999999,
                        "value": 0
                    },
                    {
                        "number": 64,
                        "time": 4.218749999999999,
                        "value": 1
                    },
                    {
                        "number": 64,
                        "time": 4.810416666666667,
                        "value": 0
                    },
                    {
                        "number": 64,
                        "time": 4.970833333333334,
                        "value": 1
                    },
                    {
                        "number": 64,
                        "time": 6.395833333333334,
                        "value": 0
                    },
                    {
                        "number": 64,
                        "time": 6.541666666666667,
                        "value": 1
                    },
                    {
                        "number": 64,
                        "time": 7.914583333333334,
                        "value": 0
                    },
                    {
                        "number": 64,
                        "time": 8.091666666666667,
                        "value": 1
                    },
                    {
                        "number": 64,
                        "time": 9.41875,
                        "value": 0
                    },
                    {
                        "number": 64,
                        "time": 9.547916666666666,
                        "value": 1
                    },
                    {
                        "number": 64,
                        "time": 10.331249999999992,
                        "value": 0
                    },
                    {
                        "number": 64,
                        "time": 10.472916666666658,
                        "value": 1
                    },
                    {
                        "number": 64,
                        "time": 10.827083333333324,
                        "value": 0
                    },
                    {
                        "number": 64,
                        "time": 10.908333333333324,
                        "value": 1
                    },
                    {
                        "number": 64,
                        "time": 11.164583333333326,
                        "value": 0
                    },
                    {
                        "number": 64,
                        "time": 11.389583333333324,
                        "value": 1
                    },
                    {
                        "number": 64,
                        "time": 12.829166666666659,
                        "value": 0
                    },
                    {
                        "number": 64,
                        "time": 13.035416666666658,
                        "value": 1
                    },
                    {
                        "number": 64,
                        "time": 14.077083333333324,
                        "value": 0
                    },
                    {
                        "number": 64,
                        "time": 14.220833333333324,
                        "value": 1
                    },
                    {
                        "number": 64,
                        "time": 14.589583333333323,
                        "value": 0
                    },
                    {
                        "number": 64,
                        "time": 14.78124999999999,
                        "value": 1
                    },
                    {
                        "number": 64,
                        "time": 16.797916666666666,
                        "value": 0
                    },
                    {
                        "number": 64,
                        "time": 16.989583333333336,
                        "value": 1
                    },
                    {
                        "number": 64,
                        "time": 17.214583333333337,
                        "value": 0
                    },
                    {
                        "number": 64,
                        "time": 17.389583333333338,
                        "value": 1
                    },
                    {
                        "number": 64,
                        "time": 17.645833333333336,
                        "value": 0
                    },
                    {
                        "number": 64,
                        "time": 17.822916666666668,
                        "value": 1
                    },
                    {
                        "number": 64,
                        "time": 18.141666666666673,
                        "value": 0
                    },
                    {
                        "number": 64,
                        "time": 18.302083333333343,
                        "value": 1
                    },
                    {
                        "number": 64,
                        "time": 19.710416666666674,
                        "value": 0
                    },
                    {
                        "number": 64,
                        "time": 19.83333333333334,
                        "value": 1
                    },
                    {
                        "number": 64,
                        "time": 21.343750000000004,
                        "value": 0
                    },
                    {
                        "number": 64,
                        "time": 21.47083333333334,
                        "value": 1
                    },
                    {
                        "number": 64,
                        "time": 21.600000000000005,
                        "value": 0
                    },
                    {
                        "number": 64,
                        "time": 21.727083333333336,
                        "value": 1
                    },
                    {
                        "number": 64,
                        "time": 23.487499999999997,
                        "value": 0
                    },
                    {
                        "number": 64,
                        "time": 23.631249999999998,
                        "value": 1
                    },
                    {
                        "number": 64,
                        "time": 24.25625,
                        "value": 0
                    },
                    {
                        "number": 64,
                        "time": 24.400000000000002,
                        "value": 1
                    },
                    {
                        "number": 64,
                        "time": 25.12083333333334,
                        "value": 0
                    },
                    {
                        "number": 64,
                        "time": 25.312500000000007,
                        "value": 1
                    },
                    {
                        "number": 64,
                        "time": 25.920833333333338,
                        "value": 0
                    },
                    {
                        "number": 64,
                        "time": 26.09791666666667,
                        "value": 1
                    },
                    {
                        "number": 64,
                        "time": 26.802083333333336,
                        "value": 0
                    },
                    {
                        "number": 64,
                        "time": 26.993750000000002,
                        "value": 1
                    },
                    {
                        "number": 64,
                        "time": 27.602083333333336,
                        "value": 0
                    },
                    {
                        "number": 64,
                        "time": 27.777083333333337,
                        "value": 1
                    },
                    {
                        "number": 64,
                        "time": 28.450000000000014,
                        "value": 0
                    },
                    {
                        "number": 64,
                        "time": 28.610416666666683,
                        "value": 1
                    },
                    {
                        "number": 64,
                        "time": 29.154166666666683,
                        "value": 0
                    },
                    {
                        "number": 64,
                        "time": 29.33125000000002,
                        "value": 1
                    },
                    {
                        "number": 64,
                        "time": 29.635416666666686,
                        "value": 0
                    },
                    {
                        "number": 64,
                        "time": 29.779166666666686,
                        "value": 1
                    },
                    {
                        "number": 64,
                        "time": 30.131250000000026,
                        "value": 0
                    },
                    {
                        "number": 64,
                        "time": 30.25833333333336,
                        "value": 1
                    },
                    {
                        "number": 64,
                        "time": 31.810416666666715,
                        "value": 0
                    },
                    {
                        "number": 64,
                        "time": 32.00208333333338,
                        "value": 1
                    },
                    {
                        "number": 64,
                        "time": 33.36250000000006,
                        "value": 0
                    },
                    {
                        "number": 64,
                        "time": 33.522916666666724,
                        "value": 1
                    },
                    {
                        "number": 64,
                        "time": 34.85208333333338,
                        "value": 0
                    },
                    {
                        "number": 64,
                        "time": 35.04375000000006,
                        "value": 1
                    },
                    {
                        "number": 64,
                        "time": 36.30833333333338,
                        "value": 0
                    },
                    {
                        "number": 64,
                        "time": 36.50000000000004,
                        "value": 1
                    },
                    {
                        "number": 64,
                        "time": 40.05416666666671,
                        "value": 0
                    },
                    {
                        "number": 64,
                        "time": 40.24375000000005,
                        "value": 1
                    },
                    {
                        "number": 64,
                        "time": 43.95833333333337,
                        "value": 0
                    },
                    {
                        "number": 64,
                        "time": 44.1354166666667,
                        "value": 1
                    },
                    {
                        "number": 64,
                        "time": 44.71041666666671,
                        "value": 0
                    },
                    {
                        "number": 64,
                        "time": 44.887500000000045,
                        "value": 1
                    },
                    {
                        "number": 64,
                        "time": 45.495833333333366,
                        "value": 0
                    },
                    {
                        "number": 64,
                        "time": 45.656250000000036,
                        "value": 1
                    },
                    {
                        "number": 64,
                        "time": 46.34375000000003,
                        "value": 0
                    },
                    {
                        "number": 64,
                        "time": 46.50416666666669,
                        "value": 1
                    },
                    {
                        "number": 64,
                        "time": 49.512500000000024,
                        "value": 0
                    },
                    {
                        "number": 64,
                        "time": 49.65833333333336,
                        "value": 1
                    },
                    {
                        "number": 64,
                        "time": 51.25625000000003,
                        "value": 0
                    },
                    {
                        "number": 64,
                        "time": 51.37083333333336,
                        "value": 1
                    },
                    {
                        "number": 64,
                        "time": 59.612500000000026,
                        "value": 0
                    },
                    {
                        "number": 64,
                        "time": 59.82083333333336,
                        "value": 1
                    },
                    {
                        "number": 64,
                        "time": 63.325,
                        "value": 0
                    },
                    {
                        "number": 64,
                        "time": 63.46875,
                        "value": 1
                    },
                    {
                        "number": 64,
                        "time": 64.33333333333331,
                        "value": 0
                    },
                    {
                        "number": 64,
                        "time": 64.49374999999998,
                        "value": 1
                    },
                    {
                        "number": 64,
                        "time": 67.03958333333327,
                        "value": 0
                    },
                    {
                        "number": 64,
                        "time": 67.21458333333327,
                        "value": 1
                    },
                    {
                        "number": 64,
                        "time": 68.78333333333326,
                        "value": 0
                    },
                    {
                        "number": 64,
                        "time": 69.00624999999994,
                        "value": 1
                    },
                    {
                        "number": 64,
                        "time": 69.68124999999996,
                        "value": 0
                    },
                    {
                        "number": 64,
                        "time": 69.88749999999996,
                        "value": 1
                    },
                    {
                        "number": 64,
                        "time": 70.76666666666661,
                        "value": 0
                    },
                    {
                        "number": 64,
                        "time": 70.9916666666666,
                        "value": 1
                    },
                    {
                        "number": 64,
                        "time": 71.79166666666661,
                        "value": 0
                    },
                    {
                        "number": 64,
                        "time": 71.9354166666666,
                        "value": 1
                    },
                    {
                        "number": 64,
                        "time": 72.60833333333325,
                        "value": 0
                    },
                    {
                        "number": 64,
                        "time": 72.75208333333323,
                        "value": 1
                    },
                    {
                        "number": 64,
                        "time": 73.32916666666655,
                        "value": 0
                    },
                    {
                        "number": 64,
                        "time": 73.45624999999988,
                        "value": 1
                    },
                    {
                        "number": 64,
                        "time": 74.09791666666655,
                        "value": 0
                    },
                    {
                        "number": 64,
                        "time": 74.25833333333323,
                        "value": 1
                    },
                    {
                        "number": 64,
                        "time": 74.78541666666652,
                        "value": 0
                    },
                    {
                        "number": 64,
                        "time": 74.92916666666652,
                        "value": 1
                    },
                    {
                        "number": 64,
                        "time": 75.53749999999985,
                        "value": 0
                    },
                    {
                        "number": 64,
                        "time": 75.68124999999982,
                        "value": 1
                    },
                    {
                        "number": 64,
                        "time": 76.25833333333311,
                        "value": 0
                    },
                    {
                        "number": 64,
                        "time": 76.38541666666643,
                        "value": 1
                    },
                    {
                        "number": 64,
                        "time": 77.20208333333305,
                        "value": 0
                    },
                    {
                        "number": 64,
                        "time": 77.37916666666636,
                        "value": 1
                    },
                    {
                        "number": 64,
                        "time": 85.6687499999997,
                        "value": 0
                    },
                    {
                        "number": 64,
                        "time": 85.81249999999972,
                        "value": 1
                    },
                    {
                        "number": 64,
                        "time": 87.3979166666664,
                        "value": 0
                    },
                    {
                        "number": 64,
                        "time": 87.55833333333307,
                        "value": 1
                    },
                    {
                        "number": 64,
                        "time": 88.32499999999973,
                        "value": 0
                    },
                    {
                        "number": 64,
                        "time": 88.43749999999973,
                        "value": 1
                    },
                    {
                        "number": 64,
                        "time": 89.1895833333331,
                        "value": 0
                    },
                    {
                        "number": 64,
                        "time": 89.3333333333331,
                        "value": 1
                    },
                    {
                        "number": 64,
                        "time": 90.13541666666643,
                        "value": 0
                    },
                    {
                        "number": 64,
                        "time": 90.26249999999975,
                        "value": 1
                    },
                    {
                        "number": 64,
                        "time": 90.94999999999973,
                        "value": 0
                    },
                    {
                        "number": 64,
                        "time": 91.1104166666664,
                        "value": 1
                    },
                    {
                        "number": 64,
                        "time": 92.74166666666639,
                        "value": 0
                    },
                    {
                        "number": 64,
                        "time": 92.87083333333307,
                        "value": 1
                    },
                    {
                        "number": 64,
                        "time": 93.67083333333306,
                        "value": 0
                    },
                    {
                        "number": 64,
                        "time": 93.8479166666664,
                        "value": 1
                    },
                    {
                        "number": 64,
                        "time": 95.81666666666638,
                        "value": 0
                    },
                    {
                        "number": 64,
                        "time": 95.97499999999972,
                        "value": 1
                    },
                    {
                        "number": 64,
                        "time": 96.82499999999973,
                        "value": 0
                    },
                    {
                        "number": 64,
                        "time": 96.95208333333304,
                        "value": 1
                    },
                    {
                        "number": 64,
                        "time": 97.75208333333303,
                        "value": 0
                    },
                    {
                        "number": 64,
                        "time": 97.89583333333304,
                        "value": 1
                    },
                    {
                        "number": 64,
                        "time": 98.61666666666636,
                        "value": 0
                    },
                    {
                        "number": 64,
                        "time": 98.74583333333304,
                        "value": 1
                    },
                    {
                        "number": 64,
                        "time": 99.48124999999969,
                        "value": 0
                    },
                    {
                        "number": 64,
                        "time": 99.6249999999997,
                        "value": 1
                    },
                    {
                        "number": 64,
                        "time": 100.31249999999969,
                        "value": 0
                    },
                    {
                        "number": 64,
                        "time": 100.4562499999997,
                        "value": 1
                    },
                    {
                        "number": 64,
                        "time": 101.22499999999968,
                        "value": 0
                    },
                    {
                        "number": 64,
                        "time": 101.36874999999968,
                        "value": 1
                    },
                    {
                        "number": 64,
                        "time": 102.08958333333302,
                        "value": 0
                    },
                    {
                        "number": 64,
                        "time": 102.23333333333304,
                        "value": 1
                    },
                    {
                        "number": 64,
                        "time": 103.03541666666636,
                        "value": 0
                    },
                    {
                        "number": 64,
                        "time": 103.17916666666636,
                        "value": 1
                    },
                    {
                        "number": 64,
                        "time": 103.8999999999997,
                        "value": 0
                    },
                    {
                        "number": 64,
                        "time": 104.07291666666636,
                        "value": 1
                    },
                    {
                        "number": 64,
                        "time": 104.970833333333,
                        "value": 0
                    },
                    {
                        "number": 64,
                        "time": 105.11458333333302,
                        "value": 1
                    },
                    {
                        "number": 64,
                        "time": 105.84999999999968,
                        "value": 0
                    },
                    {
                        "number": 64,
                        "time": 106.02708333333301,
                        "value": 1
                    },
                    {
                        "number": 64,
                        "time": 107.43541666666636,
                        "value": 0
                    },
                    {
                        "number": 64,
                        "time": 107.53333333333302,
                        "value": 1
                    },
                    {
                        "number": 64,
                        "time": 108.31666666666636,
                        "value": 0
                    },
                    {
                        "number": 64,
                        "time": 108.46041666666638,
                        "value": 1
                    },
                    {
                        "number": 64,
                        "time": 109.38958333333306,
                        "value": 0
                    },
                    {
                        "number": 64,
                        "time": 109.5166666666664,
                        "value": 1
                    },
                    {
                        "number": 64,
                        "time": 110.50833333333307,
                        "value": 0
                    },
                    {
                        "number": 64,
                        "time": 110.63749999999972,
                        "value": 1
                    },
                    {
                        "number": 64,
                        "time": 112.57291666666636,
                        "value": 0
                    },
                    {
                        "number": 64,
                        "time": 112.69999999999969,
                        "value": 1
                    },
                    {
                        "number": 64,
                        "time": 113.53333333333303,
                        "value": 0
                    },
                    {
                        "number": 64,
                        "time": 113.71041666666638,
                        "value": 1
                    },
                    {
                        "number": 64,
                        "time": 116.02916666666638,
                        "value": 0
                    },
                    {
                        "number": 64,
                        "time": 116.20624999999971,
                        "value": 1
                    },
                    {
                        "number": 64,
                        "time": 117.08749999999974,
                        "value": 0
                    },
                    {
                        "number": 64,
                        "time": 117.23124999999973,
                        "value": 1
                    },
                    {
                        "number": 64,
                        "time": 118.19166666666638,
                        "value": 0
                    },
                    {
                        "number": 64,
                        "time": 118.28749999999971,
                        "value": 1
                    },
                    {
                        "number": 64,
                        "time": 119.82291666666639,
                        "value": 0
                    },
                    {
                        "number": 64,
                        "time": 119.9354166666664,
                        "value": 1
                    },
                    {
                        "number": 64,
                        "time": 120.25624999999972,
                        "value": 0
                    },
                    {
                        "number": 64,
                        "time": 120.39999999999972,
                        "value": 1
                    },
                    {
                        "number": 64,
                        "time": 121.58333333333309,
                        "value": 0
                    },
                    {
                        "number": 64,
                        "time": 121.71249999999975,
                        "value": 1
                    },
                    {
                        "number": 64,
                        "time": 122.19374999999975,
                        "value": 0
                    },
                    {
                        "number": 64,
                        "time": 122.33541666666642,
                        "value": 1
                    },
                    {
                        "number": 64,
                        "time": 122.91249999999975,
                        "value": 0
                    },
                    {
                        "number": 64,
                        "time": 123.29583333333308,
                        "value": 1
                    },
                    {
                        "number": 64,
                        "time": 125.07291666666639,
                        "value": 0
                    },
                    {
                        "number": 64,
                        "time": 125.16874999999972,
                        "value": 1
                    },
                    {
                        "number": 64,
                        "time": 126.65833333333305,
                        "value": 0
                    },
                    {
                        "number": 64,
                        "time": 126.80208333333304,
                        "value": 1
                    },
                    {
                        "number": 64,
                        "time": 128.16249999999974,
                        "value": 0
                    },
                    {
                        "number": 64,
                        "time": 128.3229166666664,
                        "value": 1
                    },
                    {
                        "number": 64,
                        "time": 129.73124999999976,
                        "value": 0
                    },
                    {
                        "number": 64,
                        "time": 129.8583333333331,
                        "value": 1
                    },
                    {
                        "number": 64,
                        "time": 131.170833333333,
                        "value": 0
                    },
                    {
                        "number": 64,
                        "time": 131.28333333333302,
                        "value": 1
                    },
                    {
                        "number": 64,
                        "time": 132.82083333333293,
                        "value": 0
                    },
                    {
                        "number": 64,
                        "time": 132.96458333333294,
                        "value": 1
                    },
                    {
                        "number": 64,
                        "time": 134.2437499999995,
                        "value": 0
                    },
                    {
                        "number": 64,
                        "time": 134.40416666666619,
                        "value": 1
                    },
                    {
                        "number": 64,
                        "time": 135.7499999999995,
                        "value": 0
                    },
                    {
                        "number": 64,
                        "time": 135.90833333333282,
                        "value": 1
                    },
                    {
                        "number": 64,
                        "time": 138.74166666666602,
                        "value": 0
                    },
                    {
                        "number": 64,
                        "time": 138.88541666666603,
                        "value": 1
                    },
                    {
                        "number": 64,
                        "time": 139.57499999999928,
                        "value": 0
                    },
                    {
                        "number": 64,
                        "time": 139.71874999999926,
                        "value": 1
                    },
                    {
                        "number": 64,
                        "time": 140.19791666666592,
                        "value": 0
                    },
                    {
                        "number": 64,
                        "time": 140.35833333333258,
                        "value": 1
                    },
                    {
                        "number": 64,
                        "time": 141.4791666666657,
                        "value": 0
                    },
                    {
                        "number": 64,
                        "time": 141.606249999999,
                        "value": 1
                    },
                    {
                        "number": 64,
                        "time": 142.1666666666657,
                        "value": 0
                    },
                    {
                        "number": 64,
                        "time": 142.31041666666565,
                        "value": 1
                    },
                    {
                        "number": 64,
                        "time": 142.87083333333226,
                        "value": 0
                    },
                    {
                        "number": 64,
                        "time": 142.9666666666656,
                        "value": 1
                    },
                    {
                        "number": 64,
                        "time": 143.4791666666656,
                        "value": 0
                    },
                    {
                        "number": 64,
                        "time": 143.60833333333227,
                        "value": 1
                    },
                    {
                        "number": 64,
                        "time": 144.0874999999989,
                        "value": 0
                    },
                    {
                        "number": 64,
                        "time": 144.21666666666556,
                        "value": 1
                    },
                    {
                        "number": 64,
                        "time": 144.71249999999884,
                        "value": 0
                    },
                    {
                        "number": 64,
                        "time": 144.79166666666552,
                        "value": 1
                    },
                    {
                        "number": 64,
                        "time": 150.4249999999983,
                        "value": 0
                    },
                    {
                        "number": 64,
                        "time": 150.55416666666497,
                        "value": 1
                    },
                    {
                        "number": 64,
                        "time": 159.78958333333154,
                        "value": 0
                    },
                    {
                        "number": 64,
                        "time": 159.93124999999822,
                        "value": 1
                    },
                    {
                        "number": 64,
                        "time": 161.10208333333162,
                        "value": 0
                    },
                    {
                        "number": 64,
                        "time": 161.27708333333163,
                        "value": 1
                    },
                    {
                        "number": 64,
                        "time": 161.53333333333163,
                        "value": 0
                    },
                    {
                        "number": 64,
                        "time": 161.7104166666649,
                        "value": 1
                    },
                    {
                        "number": 64,
                        "time": 162.92708333333155,
                        "value": 0
                    },
                    {
                        "number": 64,
                        "time": 163.07083333333154,
                        "value": 1
                    },
                    {
                        "number": 64,
                        "time": 163.72708333333148,
                        "value": 0
                    },
                    {
                        "number": 64,
                        "time": 163.83749999999813,
                        "value": 1
                    },
                    {
                        "number": 64,
                        "time": 164.6395833333314,
                        "value": 0
                    },
                    {
                        "number": 64,
                        "time": 164.79791666666472,
                        "value": 1
                    },
                    {
                        "number": 64,
                        "time": 165.6166666666647,
                        "value": 0
                    },
                    {
                        "number": 64,
                        "time": 165.80624999999804,
                        "value": 1
                    },
                    {
                        "number": 64,
                        "time": 171.61666666666468,
                        "value": 0
                    },
                    {
                        "number": 64,
                        "time": 171.77708333333132,
                        "value": 1
                    },
                    {
                        "number": 64,
                        "time": 174.0333333333312,
                        "value": 0
                    },
                    {
                        "number": 64,
                        "time": 174.2583333333312,
                        "value": 1
                    },
                    {
                        "number": 64,
                        "time": 174.96249999999785,
                        "value": 0
                    },
                    {
                        "number": 64,
                        "time": 175.13749999999783,
                        "value": 1
                    },
                    {
                        "number": 64,
                        "time": 175.84166666666445,
                        "value": 0
                    },
                    {
                        "number": 64,
                        "time": 176.06666666666442,
                        "value": 1
                    },
                    {
                        "number": 64,
                        "time": 176.83333333333104,
                        "value": 0
                    },
                    {
                        "number": 64,
                        "time": 177.02708333333103,
                        "value": 1
                    },
                    {
                        "number": 64,
                        "time": 181.10624999999763,
                        "value": 0
                    },
                    {
                        "number": 64,
                        "time": 181.2687499999976,
                        "value": 1
                    },
                    {
                        "number": 64,
                        "time": 183.49374999999745,
                        "value": 0
                    },
                    {
                        "number": 64,
                        "time": 183.79583333333076,
                        "value": 1
                    },
                    {
                        "number": 64,
                        "time": 184.4208333333308,
                        "value": 0
                    },
                    {
                        "number": 64,
                        "time": 184.56458333333075,
                        "value": 1
                    },
                    {
                        "number": 64,
                        "time": 185.2687499999973,
                        "value": 0
                    },
                    {
                        "number": 64,
                        "time": 185.4458333333306,
                        "value": 1
                    },
                    {
                        "number": 64,
                        "time": 187.2062499999972,
                        "value": 0
                    },
                    {
                        "number": 64,
                        "time": 187.39791666666386,
                        "value": 1
                    },
                    {
                        "number": 64,
                        "time": 188.14999999999714,
                        "value": 0
                    },
                    {
                        "number": 64,
                        "time": 188.2937499999971,
                        "value": 1
                    },
                    {
                        "number": 64,
                        "time": 189.31874999999707,
                        "value": 0
                    },
                    {
                        "number": 64,
                        "time": 189.49374999999705,
                        "value": 1
                    },
                    {
                        "number": 64,
                        "time": 193.799999999997,
                        "value": 0
                    },
                    {
                        "number": 64,
                        "time": 193.974999999997,
                        "value": 1
                    },
                    {
                        "number": 64,
                        "time": 197.5291666666637,
                        "value": 0
                    },
                    {
                        "number": 64,
                        "time": 197.65624999999704,
                        "value": 1
                    },
                    {
                        "number": 64,
                        "time": 199.36874999999694,
                        "value": 0
                    },
                    {
                        "number": 64,
                        "time": 199.49791666666363,
                        "value": 1
                    },
                    {
                        "number": 64,
                        "time": 201.09791666666368,
                        "value": 0
                    },
                    {
                        "number": 64,
                        "time": 201.22499999999698,
                        "value": 1
                    },
                    {
                        "number": 64,
                        "time": 202.7958333333303,
                        "value": 0
                    },
                    {
                        "number": 64,
                        "time": 202.937499999997,
                        "value": 1
                    },
                    {
                        "number": 64,
                        "time": 207.612499999997,
                        "value": 0
                    },
                    {
                        "number": 64,
                        "time": 207.7895833333303,
                        "value": 1
                    },
                    {
                        "number": 64,
                        "time": 209.693749999997,
                        "value": 0
                    },
                    {
                        "number": 64,
                        "time": 209.90208333333035,
                        "value": 1
                    },
                    {
                        "number": 64,
                        "time": 212.18958333333035,
                        "value": 0
                    },
                    {
                        "number": 64,
                        "time": 212.38333333333034,
                        "value": 1
                    },
                    {
                        "number": 64,
                        "time": 220.54583333333017,
                        "value": 0
                    },
                    {
                        "number": 64,
                        "time": 220.6729166666635,
                        "value": 1
                    },
                    {
                        "number": 64,
                        "time": 221.96874999999682,
                        "value": 0
                    },
                    {
                        "number": 64,
                        "time": 222.08124999999683,
                        "value": 1
                    },
                    {
                        "number": 64,
                        "time": 241.20624999999615,
                        "value": 0
                    },
                    {
                        "number": 64,
                        "time": 241.3833333333295,
                        "value": 1
                    },
                    {
                        "number": 64,
                        "time": 242.32708333332945,
                        "value": 0
                    },
                    {
                        "number": 64,
                        "time": 242.43958333332947,
                        "value": 1
                    },
                    {
                        "number": 64,
                        "time": 243.3520833333294,
                        "value": 0
                    },
                    {
                        "number": 64,
                        "time": 243.49583333332941,
                        "value": 1
                    },
                    {
                        "number": 64,
                        "time": 245.4166666666627,
                        "value": 0
                    },
                    {
                        "number": 64,
                        "time": 245.56041666666272,
                        "value": 1
                    },
                    {
                        "number": 64,
                        "time": 246.39374999999598,
                        "value": 0
                    },
                    {
                        "number": 64,
                        "time": 246.53749999999596,
                        "value": 1
                    },
                    {
                        "number": 64,
                        "time": 247.4499999999959,
                        "value": 0
                    },
                    {
                        "number": 64,
                        "time": 247.60833333332923,
                        "value": 1
                    },
                    {
                        "number": 64,
                        "time": 248.66666666666256,
                        "value": 0
                    },
                    {
                        "number": 64,
                        "time": 248.88958333332923,
                        "value": 1
                    },
                    {
                        "number": 64,
                        "time": 250.39374999999586,
                        "value": 0
                    },
                    {
                        "number": 64,
                        "time": 250.6520833333292,
                        "value": 1
                    },
                    {
                        "number": 64,
                        "time": 251.94791666666254,
                        "value": 0
                    },
                    {
                        "number": 64,
                        "time": 252.2833333333292,
                        "value": 1
                    },
                    {
                        "number": 64,
                        "time": 253.54791666666253,
                        "value": 0
                    },
                    {
                        "number": 64,
                        "time": 253.72291666666254,
                        "value": 1
                    },
                    {
                        "number": 64,
                        "time": 254.77916666666252,
                        "value": 0
                    },
                    {
                        "number": 64,
                        "time": 254.97291666666254,
                        "value": 1
                    },
                    {
                        "number": 64,
                        "time": 255.9645833333292,
                        "value": 0
                    },
                    {
                        "number": 64,
                        "time": 256.17291666666256,
                        "value": 1
                    },
                    {
                        "number": 64,
                        "time": 257.356249999996,
                        "value": 0
                    },
                    {
                        "number": 64,
                        "time": 257.5833333333294,
                        "value": 1
                    },
                    {
                        "number": 64,
                        "time": 258.5562499999961,
                        "value": 0
                    },
                    {
                        "number": 64,
                        "time": 258.76666666666284,
                        "value": 1
                    },
                    {
                        "number": 64,
                        "time": 259.854166666663,
                        "value": 0
                    },
                    {
                        "number": 64,
                        "time": 260.09374999999636,
                        "value": 1
                    },
                    {
                        "number": 64,
                        "time": 260.60416666666305,
                        "value": 0
                    },
                    {
                        "number": 64,
                        "time": 260.83124999999643,
                        "value": 1
                    },
                    {
                        "number": 64,
                        "time": 262.3833333333297,
                        "value": 0
                    },
                    {
                        "number": 64,
                        "time": 262.7020833333297,
                        "value": 1
                    },
                    {
                        "number": 64,
                        "time": 263.8062499999963,
                        "value": 0
                    },
                    {
                        "number": 64,
                        "time": 264.2395833333296,
                        "value": 1
                    },
                    {
                        "number": 64,
                        "time": 274.8333333333312,
                        "value": 0
                    },
                    {
                        "number": 64,
                        "time": 275.02708333333123,
                        "value": 1
                    },
                    {
                        "number": 64,
                        "time": 276.9791666666648,
                        "value": 0
                    },
                    {
                        "number": 64,
                        "time": 277.0749999999981,
                        "value": 1
                    },
                    {
                        "number": 64,
                        "time": 284.00624999999815,
                        "value": 0
                    },
                    {
                        "number": 64,
                        "time": 284.16458333333145,
                        "value": 1
                    },
                    {
                        "number": 64,
                        "time": 285.6666666666648,
                        "value": 0
                    },
                    {
                        "number": 64,
                        "time": 285.76666666666483,
                        "value": 1
                    },
                    {
                        "number": 64,
                        "time": 287.0145833333316,
                        "value": 0
                    },
                    {
                        "number": 64,
                        "time": 287.15833333333165,
                        "value": 1
                    },
                    {
                        "number": 64,
                        "time": 305.9333333333315,
                        "value": 0
                    },
                    {
                        "number": 64,
                        "time": 307.9999999999982,
                        "value": 0
                    }
                ]
            },
            "id": 0,
            "channelNumber": 0,
            "isPercussion": false
        }
    ]
}