{
    "header": {
        "PPQ": 120,
        "timeSignature": [
            3,
            4
        ],
        "bpm": 250,
        "name": "4. Tanz aus Butschum."
    },
    "startTime": 0,
    "duration": 13.643999999999993,
    "tracks": [
        {
            "startTime": 0,
            "duration": 0,
            "length": 0,
            "notes": [],
            "controlChanges": {},
            "id": 0,
            "name": "4. Tanz aus Butschum."
        },
        {
            "startTime": 2.1599999999999997,
            "duration": 13.620000000000008,
            "length": 94,
            "notes": [
                {
                    "name": "E5",
                    "midi": 76,
                    "time": 2.1599999999999997,
                    "velocity": 0.8267716535433071,
                    "duration": 0.48
                },
                {
                    "name": "E5",
                    "midi": 76,
                    "time": 2.6399999999999997,
                    "velocity": 0.8267716535433071,
                    "duration": 0.2400000000000002
                },
                {
                    "name": "G5",
                    "midi": 79,
                    "time": 2.88,
                    "velocity": 0.5354330708661418,
                    "duration": 0.08000000000000007
                },
                {
                    "name": "F5",
                    "midi": 77,
                    "time": 2.96,
                    "velocity": 0.5196850393700787,
                    "duration": 0.08000000000000007
                },
                {
                    "name": "E5",
                    "midi": 76,
                    "time": 3.04,
                    "velocity": 0.49606299212598426,
                    "duration": 0.08000000000000007
                },
                {
                    "name": "D5",
                    "midi": 74,
                    "time": 3.12,
                    "velocity": 0.6614173228346457,
                    "duration": 0.18000000000000016
                },
                {
                    "name": "C#5",
                    "midi": 73,
                    "time": 3.3000000000000003,
                    "velocity": 0.47244094488188976,
                    "duration": 0.06000000000000005
                },
                {
                    "name": "D5",
                    "midi": 74,
                    "time": 3.3600000000000003,
                    "velocity": 0.49606299212598426,
                    "duration": 0.18000000000000016
                },
                {
                    "name": "E5",
                    "midi": 76,
                    "time": 3.5400000000000005,
                    "velocity": 0.5669291338582677,
                    "duration": 0.06000000000000005
                },
                {
                    "name": "F5",
                    "midi": 77,
                    "time": 3.6000000000000005,
                    "velocity": 0.5905511811023622,
                    "duration": 0.08000000000000007
                },
                {
                    "name": "E5",
                    "midi": 76,
                    "time": 3.6800000000000006,
                    "velocity": 0.5905511811023622,
                    "duration": 0.08000000000000007
                },
                {
                    "name": "D5",
                    "midi": 74,
                    "time": 3.7600000000000007,
                    "velocity": 0.5905511811023622,
                    "duration": 0.08000000000000007
                },
                {
                    "name": "C#5",
                    "midi": 73,
                    "time": 3.8400000000000007,
                    "velocity": 0.6614173228346457,
                    "duration": 0.17999999999999972
                },
                {
                    "name": "A4",
                    "midi": 69,
                    "time": 4.0200000000000005,
                    "velocity": 0.47244094488188976,
                    "duration": 0.05999999999999961
                },
                {
                    "name": "A#4",
                    "midi": 70,
                    "time": 4.08,
                    "velocity": 0.49606299212598426,
                    "duration": 0.17999999999999972
                },
                {
                    "name": "D5",
                    "midi": 74,
                    "time": 4.26,
                    "velocity": 0.5669291338582677,
                    "duration": 0.05799999999999983
                },
                {
                    "name": "C#5",
                    "midi": 73,
                    "time": 4.319999999999999,
                    "velocity": 0.8267716535433071,
                    "duration": 0.05999999999999961
                },
                {
                    "name": "A4",
                    "midi": 69,
                    "time": 4.379999999999999,
                    "velocity": 0.5905511811023622,
                    "duration": 0.05799999999999983
                },
                {
                    "name": "A#4",
                    "midi": 70,
                    "time": 4.439999999999999,
                    "velocity": 0.5905511811023622,
                    "duration": 0.05999999999999961
                },
                {
                    "name": "D5",
                    "midi": 74,
                    "time": 4.499999999999998,
                    "velocity": 0.5905511811023622,
                    "duration": 0.05799999999999983
                },
                {
                    "name": "A4",
                    "midi": 69,
                    "time": 4.559999999999998,
                    "velocity": 0.8267716535433071,
                    "duration": 0.41999999999999993
                },
                {
                    "name": "E5",
                    "midi": 76,
                    "time": 5.039999999999997,
                    "velocity": 0.8267716535433071,
                    "duration": 0.4800000000000004
                },
                {
                    "name": "E5",
                    "midi": 76,
                    "time": 5.519999999999998,
                    "velocity": 0.8267716535433071,
                    "duration": 0.2400000000000002
                },
                {
                    "name": "G5",
                    "midi": 79,
                    "time": 5.759999999999998,
                    "velocity": 0.5354330708661418,
                    "duration": 0.08000000000000007
                },
                {
                    "name": "F5",
                    "midi": 77,
                    "time": 5.839999999999998,
                    "velocity": 0.5196850393700787,
                    "duration": 0.08000000000000007
                },
                {
                    "name": "E5",
                    "midi": 76,
                    "time": 5.919999999999998,
                    "velocity": 0.49606299212598426,
                    "duration": 0.08000000000000007
                },
                {
                    "name": "D5",
                    "midi": 74,
                    "time": 5.999999999999998,
                    "velocity": 0.6614173228346457,
                    "duration": 0.17999999999999972
                },
                {
                    "name": "C#5",
                    "midi": 73,
                    "time": 6.179999999999998,
                    "velocity": 0.47244094488188976,
                    "duration": 0.05999999999999961
                },
                {
                    "name": "D5",
                    "midi": 74,
                    "time": 6.2399999999999975,
                    "velocity": 0.49606299212598426,
                    "duration": 0.17999999999999972
                },
                {
                    "name": "E5",
                    "midi": 76,
                    "time": 6.419999999999997,
                    "velocity": 0.5669291338582677,
                    "duration": 0.05999999999999961
                },
                {
                    "name": "F5",
                    "midi": 77,
                    "time": 6.479999999999997,
                    "velocity": 0.5905511811023622,
                    "duration": 0.08000000000000007
                },
                {
                    "name": "E5",
                    "midi": 76,
                    "time": 6.559999999999997,
                    "velocity": 0.5905511811023622,
                    "duration": 0.08000000000000007
                },
                {
                    "name": "D5",
                    "midi": 74,
                    "time": 6.639999999999997,
                    "velocity": 0.5905511811023622,
                    "duration": 0.08000000000000007
                },
                {
                    "name": "C#5",
                    "midi": 73,
                    "time": 6.719999999999997,
                    "velocity": 0.6614173228346457,
                    "duration": 0.17999999999999972
                },
                {
                    "name": "A4",
                    "midi": 69,
                    "time": 6.899999999999997,
                    "velocity": 0.47244094488188976,
                    "duration": 0.05999999999999961
                },
                {
                    "name": "A#4",
                    "midi": 70,
                    "time": 6.959999999999996,
                    "velocity": 0.49606299212598426,
                    "duration": 0.17999999999999972
                },
                {
                    "name": "D5",
                    "midi": 74,
                    "time": 7.139999999999996,
                    "velocity": 0.5669291338582677,
                    "duration": 0.05799999999999983
                },
                {
                    "name": "C#5",
                    "midi": 73,
                    "time": 7.199999999999996,
                    "velocity": 0.8267716535433071,
                    "duration": 0.05999999999999961
                },
                {
                    "name": "A4",
                    "midi": 69,
                    "time": 7.259999999999995,
                    "velocity": 0.5905511811023622,
                    "duration": 0.05799999999999983
                },
                {
                    "name": "A#4",
                    "midi": 70,
                    "time": 7.319999999999995,
                    "velocity": 0.5905511811023622,
                    "duration": 0.05999999999999961
                },
                {
                    "name": "D5",
                    "midi": 74,
                    "time": 7.379999999999995,
                    "velocity": 0.5905511811023622,
                    "duration": 0.05799999999999983
                },
                {
                    "name": "A4",
                    "midi": 69,
                    "time": 7.439999999999994,
                    "velocity": 0.8267716535433071,
                    "duration": 0.41999999999999993
                },
                {
                    "name": "G5",
                    "midi": 79,
                    "time": 7.919999999999994,
                    "velocity": 1,
                    "duration": 0.05999999999999961
                },
                {
                    "name": "E5",
                    "midi": 76,
                    "time": 7.979999999999993,
                    "velocity": 0.7244094488188977,
                    "duration": 0.05799999999999983
                },
                {
                    "name": "F5",
                    "midi": 77,
                    "time": 8.039999999999994,
                    "velocity": 0.7244094488188977,
                    "duration": 0.0600000000000005
                },
                {
                    "name": "D5",
                    "midi": 74,
                    "time": 8.099999999999994,
                    "velocity": 0.7244094488188977,
                    "duration": 0.05799999999999983
                },
                {
                    "name": "E5",
                    "midi": 76,
                    "time": 8.159999999999995,
                    "velocity": 0.8267716535433071,
                    "duration": 0.17999999999999972
                },
                {
                    "name": "D5",
                    "midi": 74,
                    "time": 8.339999999999995,
                    "velocity": 0.5905511811023622,
                    "duration": 0.0600000000000005
                },
                {
                    "name": "C5",
                    "midi": 72,
                    "time": 8.399999999999995,
                    "velocity": 0.5905511811023622,
                    "duration": 0.29800000000000004
                },
                {
                    "name": "A4",
                    "midi": 69,
                    "time": 8.699999999999996,
                    "velocity": 0.5984251968503937,
                    "duration": 0.0600000000000005
                },
                {
                    "name": "A#4",
                    "midi": 70,
                    "time": 8.759999999999996,
                    "velocity": 0.6062992125984252,
                    "duration": 0.0600000000000005
                },
                {
                    "name": "C5",
                    "midi": 72,
                    "time": 8.819999999999997,
                    "velocity": 0.6141732283464567,
                    "duration": 0.0600000000000005
                },
                {
                    "name": "D5",
                    "midi": 74,
                    "time": 8.879999999999997,
                    "velocity": 0.8661417322834646,
                    "duration": 0.17999999999999972
                },
                {
                    "name": "C#5",
                    "midi": 73,
                    "time": 9.059999999999997,
                    "velocity": 0.6535433070866141,
                    "duration": 0.0600000000000005
                },
                {
                    "name": "D5",
                    "midi": 74,
                    "time": 9.119999999999997,
                    "velocity": 0.6614173228346457,
                    "duration": 0.17999999999999972
                },
                {
                    "name": "E5",
                    "midi": 76,
                    "time": 9.299999999999997,
                    "velocity": 0.7086614173228346,
                    "duration": 0.05799999999999983
                },
                {
                    "name": "F5",
                    "midi": 77,
                    "time": 9.359999999999998,
                    "velocity": 1,
                    "duration": 0.08000000000000007
                },
                {
                    "name": "E5",
                    "midi": 76,
                    "time": 9.439999999999998,
                    "velocity": 0.7244094488188977,
                    "duration": 0.08000000000000007
                },
                {
                    "name": "D5",
                    "midi": 74,
                    "time": 9.519999999999998,
                    "velocity": 0.7244094488188977,
                    "duration": 0.08000000000000007
                },
                {
                    "name": "C#5",
                    "midi": 73,
                    "time": 9.599999999999998,
                    "velocity": 1,
                    "duration": 0.17999999999999972
                },
                {
                    "name": "A4",
                    "midi": 69,
                    "time": 9.779999999999998,
                    "velocity": 0.7244094488188977,
                    "duration": 0.0600000000000005
                },
                {
                    "name": "A#4",
                    "midi": 70,
                    "time": 9.839999999999998,
                    "velocity": 0.7165354330708661,
                    "duration": 0.17999999999999972
                },
                {
                    "name": "D5",
                    "midi": 74,
                    "time": 10.019999999999998,
                    "velocity": 0.6929133858267716,
                    "duration": 0.05799999999999983
                },
                {
                    "name": "C#5",
                    "midi": 73,
                    "time": 10.079999999999998,
                    "velocity": 0.952755905511811,
                    "duration": 0.0600000000000005
                },
                {
                    "name": "A4",
                    "midi": 69,
                    "time": 10.139999999999999,
                    "velocity": 0.6771653543307087,
                    "duration": 0.05799999999999983
                },
                {
                    "name": "A#4",
                    "midi": 70,
                    "time": 10.2,
                    "velocity": 0.6692913385826772,
                    "duration": 0.0600000000000005
                },
                {
                    "name": "D5",
                    "midi": 74,
                    "time": 10.26,
                    "velocity": 0.6614173228346457,
                    "duration": 0.05799999999999983
                },
                {
                    "name": "A4",
                    "midi": 69,
                    "time": 10.32,
                    "velocity": 0.9133858267716536,
                    "duration": 0.41999999999999993
                },
                {
                    "name": "G5",
                    "midi": 79,
                    "time": 10.8,
                    "velocity": 0.5905511811023622,
                    "duration": 0.0600000000000005
                },
                {
                    "name": "E5",
                    "midi": 76,
                    "time": 10.860000000000001,
                    "velocity": 0.5669291338582677,
                    "duration": 0.05799999999999983
                },
                {
                    "name": "F5",
                    "midi": 77,
                    "time": 10.920000000000002,
                    "velocity": 0.5354330708661418,
                    "duration": 0.0600000000000005
                },
                {
                    "name": "D5",
                    "midi": 74,
                    "time": 10.980000000000002,
                    "velocity": 0.5039370078740157,
                    "duration": 0.05799999999999983
                },
                {
                    "name": "E5",
                    "midi": 76,
                    "time": 11.040000000000003,
                    "velocity": 0.6614173228346457,
                    "duration": 0.17999999999999972
                },
                {
                    "name": "D5",
                    "midi": 74,
                    "time": 11.220000000000002,
                    "velocity": 0.47244094488188976,
                    "duration": 0.0600000000000005
                },
                {
                    "name": "C5",
                    "midi": 72,
                    "time": 11.280000000000003,
                    "velocity": 0.47244094488188976,
                    "duration": 0.29800000000000004
                },
                {
                    "name": "A4",
                    "midi": 69,
                    "time": 11.580000000000004,
                    "velocity": 0.47244094488188976,
                    "duration": 0.0600000000000005
                },
                {
                    "name": "A#4",
                    "midi": 70,
                    "time": 11.640000000000004,
                    "velocity": 0.47244094488188976,
                    "duration": 0.0600000000000005
                },
                {
                    "name": "C5",
                    "midi": 72,
                    "time": 11.700000000000005,
                    "velocity": 0.47244094488188976,
                    "duration": 0.0600000000000005
                },
                {
                    "name": "D5",
                    "midi": 74,
                    "time": 11.760000000000005,
                    "velocity": 0.6614173228346457,
                    "duration": 0.17999999999999972
                },
                {
                    "name": "C#5",
                    "midi": 73,
                    "time": 11.940000000000005,
                    "velocity": 0.47244094488188976,
                    "duration": 0.0600000000000005
                },
                {
                    "name": "D5",
                    "midi": 74,
                    "time": 12.000000000000005,
                    "velocity": 0.47244094488188976,
                    "duration": 0.17999999999999972
                },
                {
                    "name": "E5",
                    "midi": 76,
                    "time": 12.180000000000005,
                    "velocity": 0.47244094488188976,
                    "duration": 0.05799999999999983
                },
                {
                    "name": "F5",
                    "midi": 77,
                    "time": 12.240000000000006,
                    "velocity": 0.47244094488188976,
                    "duration": 0.08000000000000007
                },
                {
                    "name": "E5",
                    "midi": 76,
                    "time": 12.320000000000006,
                    "velocity": 0.47244094488188976,
                    "duration": 0.08000000000000007
                },
                {
                    "name": "D5",
                    "midi": 74,
                    "time": 12.400000000000006,
                    "velocity": 0.47244094488188976,
                    "duration": 0.08000000000000007
                },
                {
                    "name": "C#5",
                    "midi": 73,
                    "time": 12.480000000000006,
                    "velocity": 0.47244094488188976,
                    "duration": 0.17999999999999972
                },
                {
                    "name": "A4",
                    "midi": 69,
                    "time": 12.660000000000005,
                    "velocity": 0.47244094488188976,
                    "duration": 0.0600000000000005
                },
                {
                    "name": "A#4",
                    "midi": 70,
                    "time": 12.720000000000006,
                    "velocity": 0.47244094488188976,
                    "duration": 0.17999999999999972
                },
                {
                    "name": "D5",
                    "midi": 74,
                    "time": 12.900000000000006,
                    "velocity": 0.47244094488188976,
                    "duration": 0.05799999999999983
                },
                {
                    "name": "C#5",
                    "midi": 73,
                    "time": 12.960000000000006,
                    "velocity": 0.41732283464566927,
                    "duration": 0.0600000000000005
                },
                {
                    "name": "A4",
                    "midi": 69,
                    "time": 13.020000000000007,
                    "velocity": 0.41732283464566927,
                    "duration": 0.05799999999999983
                },
                {
                    "name": "A#4",
                    "midi": 70,
                    "time": 13.080000000000007,
                    "velocity": 0.41732283464566927,
                    "duration": 0.0600000000000005
                },
                {
                    "name": "D5",
                    "midi": 74,
                    "time": 13.140000000000008,
                    "velocity": 0.41732283464566927,
                    "duration": 0.05799999999999983
                },
                {
                    "name": "A4",
                    "midi": 69,
                    "time": 13.200000000000008,
                    "velocity": 0.41732283464566927,
                    "duration": 0.41999999999999993
                }
            ],
            "controlChanges": {
                "7": [
                    {
                        "number": 7,
                        "time": 0,
                        "value": 1
                    }
                ],
                "10": [
                    {
                        "number": 10,
                        "time": 0,
                        "value": 0.7559055118110236
                    }
                ],
                "64": [
                    {
                        "number": 64,
                        "time": 2.1599999999999997,
                        "value": 1
                    },
                    {
                        "number": 64,
                        "time": 3.12,
                        "value": 0
                    },
                    {
                        "number": 64,
                        "time": 3.3000000000000003,
                        "value": 1
                    },
                    {
                        "number": 64,
                        "time": 3.6000000000000005,
                        "value": 0
                    },
                    {
                        "number": 64,
                        "time": 3.8400000000000007,
                        "value": 1
                    },
                    {
                        "number": 64,
                        "time": 4.08,
                        "value": 0
                    },
                    {
                        "number": 64,
                        "time": 4.26,
                        "value": 1
                    },
                    {
                        "number": 64,
                        "time": 4.559999999999998,
                        "value": 0
                    },
                    {
                        "number": 64,
                        "time": 5.759999999999998,
                        "value": 1
                    },
                    {
                        "number": 64,
                        "time": 5.999999999999998,
                        "value": 0
                    },
                    {
                        "number": 64,
                        "time": 6.179999999999998,
                        "value": 1
                    },
                    {
                        "number": 64,
                        "time": 6.479999999999997,
                        "value": 0
                    },
                    {
                        "number": 64,
                        "time": 6.719999999999997,
                        "value": 1
                    },
                    {
                        "number": 64,
                        "time": 6.959999999999996,
                        "value": 0
                    },
                    {
                        "number": 64,
                        "time": 7.139999999999996,
                        "value": 1
                    },
                    {
                        "number": 64,
                        "time": 7.439999999999994,
                        "value": 0
                    },
                    {
                        "number": 64,
                        "time": 8.039999999999994,
                        "value": 1
                    },
                    {
                        "number": 64,
                        "time": 8.399999999999995,
                        "value": 0
                    },
                    {
                        "number": 64,
                        "time": 8.639999999999995,
                        "value": 1
                    },
                    {
                        "number": 64,
                        "time": 9.119999999999997,
                        "value": 0
                    },
                    {
                        "number": 64,
                        "time": 9.359999999999998,
                        "value": 1
                    },
                    {
                        "number": 64,
                        "time": 9.779999999999998,
                        "value": 0
                    },
                    {
                        "number": 64,
                        "time": 10.920000000000002,
                        "value": 1
                    },
                    {
                        "number": 64,
                        "time": 11.520000000000003,
                        "value": 0
                    },
                    {
                        "number": 64,
                        "time": 11.640000000000004,
                        "value": 1
                    },
                    {
                        "number": 64,
                        "time": 12.240000000000006,
                        "value": 0
                    },
                    {
                        "number": 64,
                        "time": 12.480000000000006,
                        "value": 1
                    },
                    {
                        "number": 64,
                        "time": 12.960000000000006,
                        "value": 0
                    }
                ],
                "91": [
                    {
                        "number": 91,
                        "time": 0.24,
                        "value": 0.3779527559055118
                    }
                ],
                "93": [
                    {
                        "number": 93,
                        "time": 0.36,
                        "value": 0
                    }
                ],
                "121": [
                    {
                        "number": 121,
                        "time": 0,
                        "value": 0
                    },
                    {
                        "number": 121,
                        "time": 14.400000000000007,
                        "value": 0
                    }
                ]
            },
            "id": 1,
            "name": "Right Hand",
            "instrumentNumber": 0,
            "instrument": "acoustic grand piano",
            "instrumentFamily": "piano",
            "channelNumber": 0,
            "isPercussion": false
        },
        {
            "startTime": 0.724,
            "duration": 13.643999999999993,
            "length": 79,
            "notes": [
                {
                    "name": "E4",
                    "midi": 64,
                    "time": 0.724,
                    "velocity": 0.47244094488188976,
                    "duration": 0.19999999999999996
                },
                {
                    "name": "C#5",
                    "midi": 73,
                    "time": 0.724,
                    "velocity": 0.47244094488188976,
                    "duration": 0.19999999999999996
                },
                {
                    "name": "A3",
                    "midi": 57,
                    "time": 0.964,
                    "velocity": 0.47244094488188976,
                    "duration": 0.24
                },
                {
                    "name": "E4",
                    "midi": 64,
                    "time": 1.204,
                    "velocity": 0.47244094488188976,
                    "duration": 0.48
                },
                {
                    "name": "C#5",
                    "midi": 73,
                    "time": 1.204,
                    "velocity": 0.47244094488188976,
                    "duration": 0.48
                },
                {
                    "name": "A3",
                    "midi": 57,
                    "time": 1.684,
                    "velocity": 0.47244094488188976,
                    "duration": 0.24
                },
                {
                    "name": "E4",
                    "midi": 64,
                    "time": 1.924,
                    "velocity": 0.47244094488188976,
                    "duration": 0.43999999999999995
                },
                {
                    "name": "C#5",
                    "midi": 73,
                    "time": 1.924,
                    "velocity": 0.47244094488188976,
                    "duration": 0.43999999999999995
                },
                {
                    "name": "A3",
                    "midi": 57,
                    "time": 2.404,
                    "velocity": 0.47244094488188976,
                    "duration": 0.2400000000000002
                },
                {
                    "name": "E4",
                    "midi": 64,
                    "time": 2.644,
                    "velocity": 0.47244094488188976,
                    "duration": 0.2400000000000002
                },
                {
                    "name": "C#5",
                    "midi": 73,
                    "time": 2.644,
                    "velocity": 0.47244094488188976,
                    "duration": 0.2400000000000002
                },
                {
                    "name": "A3",
                    "midi": 57,
                    "time": 2.8840000000000003,
                    "velocity": 0.47244094488188976,
                    "duration": 0.2400000000000002
                },
                {
                    "name": "D4",
                    "midi": 62,
                    "time": 3.1240000000000006,
                    "velocity": 0.6614173228346457,
                    "duration": 0.2400000000000002
                },
                {
                    "name": "B4",
                    "midi": 71,
                    "time": 3.1240000000000006,
                    "velocity": 0.6614173228346457,
                    "duration": 0.2400000000000002
                },
                {
                    "name": "A3",
                    "midi": 57,
                    "time": 3.3640000000000008,
                    "velocity": 0.47244094488188976,
                    "duration": 0.2400000000000002
                },
                {
                    "name": "D4",
                    "midi": 62,
                    "time": 3.604000000000001,
                    "velocity": 0.47244094488188976,
                    "duration": 0.2400000000000002
                },
                {
                    "name": "A#4",
                    "midi": 70,
                    "time": 3.604000000000001,
                    "velocity": 0.47244094488188976,
                    "duration": 0.2400000000000002
                },
                {
                    "name": "A3",
                    "midi": 57,
                    "time": 3.844000000000001,
                    "velocity": 0.6614173228346457,
                    "duration": 0.2400000000000002
                },
                {
                    "name": "D4",
                    "midi": 62,
                    "time": 4.084000000000001,
                    "velocity": 0.47244094488188976,
                    "duration": 0.2400000000000002
                },
                {
                    "name": "F4",
                    "midi": 65,
                    "time": 4.084000000000001,
                    "velocity": 0.47244094488188976,
                    "duration": 0.2400000000000002
                },
                {
                    "name": "A3",
                    "midi": 57,
                    "time": 4.324000000000002,
                    "velocity": 0.47244094488188976,
                    "duration": 0.2400000000000002
                },
                {
                    "name": "C#4",
                    "midi": 61,
                    "time": 4.564000000000002,
                    "velocity": 0.47244094488188976,
                    "duration": 0.2400000000000002
                },
                {
                    "name": "E4",
                    "midi": 64,
                    "time": 4.564000000000002,
                    "velocity": 0.47244094488188976,
                    "duration": 0.2400000000000002
                },
                {
                    "name": "A3",
                    "midi": 57,
                    "time": 4.804000000000002,
                    "velocity": 0.47244094488188976,
                    "duration": 0.20000000000000018
                },
                {
                    "name": "G4",
                    "midi": 67,
                    "time": 5.044000000000002,
                    "velocity": 0.47244094488188976,
                    "duration": 0.2400000000000002
                },
                {
                    "name": "C5",
                    "midi": 72,
                    "time": 5.044000000000002,
                    "velocity": 0.47244094488188976,
                    "duration": 0.2400000000000002
                },
                {
                    "name": "A3",
                    "midi": 57,
                    "time": 5.2840000000000025,
                    "velocity": 0.47244094488188976,
                    "duration": 0.2400000000000002
                },
                {
                    "name": "F#4",
                    "midi": 66,
                    "time": 5.524000000000003,
                    "velocity": 0.47244094488188976,
                    "duration": 0.2400000000000002
                },
                {
                    "name": "C5",
                    "midi": 72,
                    "time": 5.524000000000003,
                    "velocity": 0.47244094488188976,
                    "duration": 0.2400000000000002
                },
                {
                    "name": "A3",
                    "midi": 57,
                    "time": 5.764000000000003,
                    "velocity": 0.47244094488188976,
                    "duration": 0.2400000000000002
                },
                {
                    "name": "F4",
                    "midi": 65,
                    "time": 6.004000000000003,
                    "velocity": 0.47244094488188976,
                    "duration": 0.2400000000000002
                },
                {
                    "name": "A#4",
                    "midi": 70,
                    "time": 6.004000000000003,
                    "velocity": 0.47244094488188976,
                    "duration": 0.2400000000000002
                },
                {
                    "name": "A3",
                    "midi": 57,
                    "time": 6.244000000000003,
                    "velocity": 0.47244094488188976,
                    "duration": 0.2400000000000002
                },
                {
                    "name": "E4",
                    "midi": 64,
                    "time": 6.4840000000000035,
                    "velocity": 0.47244094488188976,
                    "duration": 0.2400000000000002
                },
                {
                    "name": "A4",
                    "midi": 69,
                    "time": 6.4840000000000035,
                    "velocity": 0.47244094488188976,
                    "duration": 0.2400000000000002
                },
                {
                    "name": "A3",
                    "midi": 57,
                    "time": 6.724000000000004,
                    "velocity": 0.47244094488188976,
                    "duration": 0.2400000000000002
                },
                {
                    "name": "D4",
                    "midi": 62,
                    "time": 6.964000000000004,
                    "velocity": 0.47244094488188976,
                    "duration": 0.2400000000000002
                },
                {
                    "name": "G4",
                    "midi": 67,
                    "time": 6.964000000000004,
                    "velocity": 0.47244094488188976,
                    "duration": 0.2400000000000002
                },
                {
                    "name": "A3",
                    "midi": 57,
                    "time": 7.204000000000004,
                    "velocity": 0.47244094488188976,
                    "duration": 0.2400000000000002
                },
                {
                    "name": "C4",
                    "midi": 60,
                    "time": 7.444000000000004,
                    "velocity": 0.47244094488188976,
                    "duration": 0.2400000000000002
                },
                {
                    "name": "F4",
                    "midi": 65,
                    "time": 7.444000000000004,
                    "velocity": 0.47244094488188976,
                    "duration": 0.2400000000000002
                },
                {
                    "name": "A3",
                    "midi": 57,
                    "time": 7.684000000000005,
                    "velocity": 0.47244094488188976,
                    "duration": 0.20000000000000018
                },
                {
                    "name": "A#2",
                    "midi": 46,
                    "time": 7.924000000000005,
                    "velocity": 0.5905511811023622,
                    "duration": 0.1999999999999993
                },
                {
                    "name": "A#3",
                    "midi": 58,
                    "time": 8.164000000000003,
                    "velocity": 0.5905511811023622,
                    "duration": 0.41999999999999993
                },
                {
                    "name": "F4",
                    "midi": 65,
                    "time": 8.164000000000003,
                    "velocity": 0.5905511811023622,
                    "duration": 0.2400000000000002
                },
                {
                    "name": "E4",
                    "midi": 64,
                    "time": 8.404000000000003,
                    "velocity": 0.5905511811023622,
                    "duration": 0.4399999999999995
                },
                {
                    "name": "G4",
                    "midi": 67,
                    "time": 8.404000000000003,
                    "velocity": 0.5905511811023622,
                    "duration": 0.4399999999999995
                },
                {
                    "name": "A#2",
                    "midi": 46,
                    "time": 8.644000000000004,
                    "velocity": 0.5905511811023622,
                    "duration": 0.1999999999999993
                },
                {
                    "name": "A#3",
                    "midi": 58,
                    "time": 8.884000000000002,
                    "velocity": 0.5905511811023622,
                    "duration": 0.41999999999999993
                },
                {
                    "name": "E4",
                    "midi": 64,
                    "time": 8.884000000000002,
                    "velocity": 0.5905511811023622,
                    "duration": 0.2400000000000002
                },
                {
                    "name": "G4",
                    "midi": 67,
                    "time": 8.884000000000002,
                    "velocity": 0.5905511811023622,
                    "duration": 0.2400000000000002
                },
                {
                    "name": "F4",
                    "midi": 65,
                    "time": 9.124000000000002,
                    "velocity": 0.5905511811023622,
                    "duration": 0.4399999999999995
                },
                {
                    "name": "A4",
                    "midi": 69,
                    "time": 9.124000000000002,
                    "velocity": 0.5905511811023622,
                    "duration": 0.4399999999999995
                },
                {
                    "name": "A#2",
                    "midi": 46,
                    "time": 9.364000000000003,
                    "velocity": 0.5905511811023622,
                    "duration": 0.1999999999999993
                },
                {
                    "name": "G3",
                    "midi": 55,
                    "time": 9.604000000000001,
                    "velocity": 0.5905511811023622,
                    "duration": 0.4399999999999995
                },
                {
                    "name": "E4",
                    "midi": 64,
                    "time": 9.604000000000001,
                    "velocity": 0.5905511811023622,
                    "duration": 0.2400000000000002
                },
                {
                    "name": "F4",
                    "midi": 65,
                    "time": 9.604000000000001,
                    "velocity": 0.5905511811023622,
                    "duration": 0.4399999999999995
                },
                {
                    "name": "D4",
                    "midi": 62,
                    "time": 9.844000000000001,
                    "velocity": 0.5905511811023622,
                    "duration": 0.1999999999999993
                },
                {
                    "name": "E3",
                    "midi": 52,
                    "time": 10.084,
                    "velocity": 0.5905511811023622,
                    "duration": 0.2400000000000002
                },
                {
                    "name": "D4",
                    "midi": 62,
                    "time": 10.084,
                    "velocity": 0.5905511811023622,
                    "duration": 0.4800000000000004
                },
                {
                    "name": "E4",
                    "midi": 64,
                    "time": 10.084,
                    "velocity": 0.5905511811023622,
                    "duration": 0.6799999999999997
                },
                {
                    "name": "A3",
                    "midi": 57,
                    "time": 10.324,
                    "velocity": 0.5905511811023622,
                    "duration": 0.4399999999999995
                },
                {
                    "name": "C#4",
                    "midi": 61,
                    "time": 10.564,
                    "velocity": 0.5905511811023622,
                    "duration": 0.1999999999999993
                },
                {
                    "name": "A#2",
                    "midi": 46,
                    "time": 10.803999999999998,
                    "velocity": 0.41732283464566927,
                    "duration": 0.1999999999999993
                },
                {
                    "name": "D4",
                    "midi": 62,
                    "time": 11.043999999999997,
                    "velocity": 0.41732283464566927,
                    "duration": 0.2400000000000002
                },
                {
                    "name": "G#4",
                    "midi": 68,
                    "time": 11.043999999999997,
                    "velocity": 0.41732283464566927,
                    "duration": 0.2400000000000002
                },
                {
                    "name": "A#3",
                    "midi": 58,
                    "time": 11.283999999999997,
                    "velocity": 0.4094488188976378,
                    "duration": 0.2400000000000002
                },
                {
                    "name": "A#2",
                    "midi": 46,
                    "time": 11.523999999999997,
                    "velocity": 0.4015748031496063,
                    "duration": 0.1999999999999993
                },
                {
                    "name": "D4",
                    "midi": 62,
                    "time": 11.763999999999996,
                    "velocity": 0.3937007874015748,
                    "duration": 0.2400000000000002
                },
                {
                    "name": "G#4",
                    "midi": 68,
                    "time": 11.763999999999996,
                    "velocity": 0.3937007874015748,
                    "duration": 0.2400000000000002
                },
                {
                    "name": "A#3",
                    "midi": 58,
                    "time": 12.003999999999996,
                    "velocity": 0.3858267716535433,
                    "duration": 0.2400000000000002
                },
                {
                    "name": "F#2",
                    "midi": 42,
                    "time": 12.243999999999996,
                    "velocity": 0.3779527559055118,
                    "duration": 0.1999999999999993
                },
                {
                    "name": "E4",
                    "midi": 64,
                    "time": 12.483999999999995,
                    "velocity": 0.3700787401574803,
                    "duration": 0.6799999999999997
                },
                {
                    "name": "G#4",
                    "midi": 68,
                    "time": 12.483999999999995,
                    "velocity": 0.3700787401574803,
                    "duration": 0.6799999999999997
                },
                {
                    "name": "F#3",
                    "midi": 54,
                    "time": 12.723999999999995,
                    "velocity": 0.36220472440944884,
                    "duration": 0.4399999999999995
                },
                {
                    "name": "A3",
                    "midi": 57,
                    "time": 13.203999999999994,
                    "velocity": 0.3543307086614173,
                    "duration": 0.2400000000000002
                },
                {
                    "name": "C#4",
                    "midi": 61,
                    "time": 13.203999999999994,
                    "velocity": 0.3543307086614173,
                    "duration": 0.2400000000000002
                },
                {
                    "name": "E4",
                    "midi": 64,
                    "time": 13.203999999999994,
                    "velocity": 0.3543307086614173,
                    "duration": 0.2400000000000002
                },
                {
                    "name": "A2",
                    "midi": 45,
                    "time": 13.443999999999994,
                    "velocity": 0.3543307086614173,
                    "duration": 0.1999999999999993
                }
            ],
            "controlChanges": {
                "7": [
                    {
                        "number": 7,
                        "time": 0,
                        "value": 1
                    }
                ],
                "10": [
                    {
                        "number": 10,
                        "time": 0,
                        "value": 0.25196850393700787
                    }
                ],
                "64": [
                    {
                        "number": 64,
                        "time": 0.724,
                        "value": 1
                    },
                    {
                        "number": 64,
                        "time": 3.1240000000000006,
                        "value": 0
                    },
                    {
                        "number": 64,
                        "time": 3.3640000000000008,
                        "value": 1
                    },
                    {
                        "number": 64,
                        "time": 3.604000000000001,
                        "value": 0
                    },
                    {
                        "number": 64,
                        "time": 3.844000000000001,
                        "value": 1
                    },
                    {
                        "number": 64,
                        "time": 4.084000000000001,
                        "value": 0
                    },
                    {
                        "number": 64,
                        "time": 4.324000000000002,
                        "value": 1
                    },
                    {
                        "number": 64,
                        "time": 4.564000000000002,
                        "value": 0
                    },
                    {
                        "number": 64,
                        "time": 4.804000000000002,
                        "value": 1
                    },
                    {
                        "number": 64,
                        "time": 5.044000000000002,
                        "value": 0
                    },
                    {
                        "number": 64,
                        "time": 5.2840000000000025,
                        "value": 1
                    },
                    {
                        "number": 64,
                        "time": 5.524000000000003,
                        "value": 0
                    },
                    {
                        "number": 64,
                        "time": 5.764000000000003,
                        "value": 1
                    },
                    {
                        "number": 64,
                        "time": 6.004000000000003,
                        "value": 0
                    },
                    {
                        "number": 64,
                        "time": 6.244000000000003,
                        "value": 1
                    },
                    {
                        "number": 64,
                        "time": 6.4840000000000035,
                        "value": 0
                    },
                    {
                        "number": 64,
                        "time": 6.724000000000004,
                        "value": 1
                    },
                    {
                        "number": 64,
                        "time": 6.964000000000004,
                        "value": 0
                    },
                    {
                        "number": 64,
                        "time": 7.204000000000004,
                        "value": 1
                    },
                    {
                        "number": 64,
                        "time": 7.444000000000004,
                        "value": 0
                    },
                    {
                        "number": 64,
                        "time": 7.684000000000005,
                        "value": 1
                    },
                    {
                        "number": 64,
                        "time": 7.924000000000005,
                        "value": 0
                    },
                    {
                        "number": 64,
                        "time": 8.164000000000003,
                        "value": 1
                    },
                    {
                        "number": 64,
                        "time": 8.404000000000003,
                        "value": 0
                    },
                    {
                        "number": 64,
                        "time": 8.644000000000004,
                        "value": 1
                    },
                    {
                        "number": 64,
                        "time": 9.124000000000002,
                        "value": 0
                    },
                    {
                        "number": 64,
                        "time": 9.364000000000003,
                        "value": 1
                    },
                    {
                        "number": 64,
                        "time": 9.844000000000001,
                        "value": 0
                    },
                    {
                        "number": 64,
                        "time": 11.043999999999997,
                        "value": 1
                    },
                    {
                        "number": 64,
                        "time": 11.523999999999997,
                        "value": 0
                    },
                    {
                        "number": 64,
                        "time": 11.763999999999996,
                        "value": 1
                    },
                    {
                        "number": 64,
                        "time": 12.243999999999996,
                        "value": 0
                    },
                    {
                        "number": 64,
                        "time": 12.483999999999995,
                        "value": 1
                    },
                    {
                        "number": 64,
                        "time": 12.963999999999995,
                        "value": 0
                    },
                    {
                        "number": 64,
                        "time": 13.443999999999994,
                        "value": 1
                    },
                    {
                        "number": 64,
                        "time": 13.683999999999992,
                        "value": 0
                    }
                ],
                "91": [
                    {
                        "number": 91,
                        "time": 0.244,
                        "value": 0.3779527559055118
                    }
                ],
                "93": [
                    {
                        "number": 93,
                        "time": 0.364,
                        "value": 0
                    }
                ],
                "121": [
                    {
                        "number": 121,
                        "time": 0.004,
                        "value": 0
                    },
                    {
                        "number": 121,
                        "time": 14.403999999999993,
                        "value": 0
                    }
                ]
            },
            "id": 2,
            "name": "Left Hand",
            "instrumentNumber": 0,
            "instrument": "acoustic grand piano",
            "instrumentFamily": "piano",
            "channelNumber": 1,
            "isPercussion": false
        },
        {
            "startTime": 0,
            "duration": 0,
            "length": 0,
            "notes": [],
            "controlChanges": {},
            "id": 3,
            "name": "Roumanian Folk Dances (1918)"
        },
        {
            "startTime": 0,
            "duration": 0,
            "length": 0,
            "notes": [],
            "controlChanges": {},
            "id": 4,
            "name": "4. Tanz aus Butschum."
        },
        {
            "startTime": 0,
            "duration": 0,
            "length": 0,
            "notes": [],
            "controlChanges": {},
            "id": 5,
            "name": "Bela Bartok (1881-1945)"
        },
        {
            "startTime": 0,
            "duration": 0,
            "length": 0,
            "notes": [],
            "controlChanges": {},
            "id": 6,
            "name": "seq (c) 1998 by Ramon Pajares Box"
        },
        {
            "startTime": 0,
            "duration": 0,
            "length": 0,
            "notes": [],
            "controlChanges": {},
            "id": 7,
            "name": "rpajares@nilsl.net"
        },
        {
            "startTime": 0,
            "duration": 0,
            "length": 0,
            "notes": [],
            "controlChanges": {},
            "id": 8
        }
    ]
}