{
    "header": {
        "PPQ": 120,
        "timeSignature": [
            2,
            4
        ],
        "bpm": 250,
        "name": "1. Der Tanz mit dem Stabe."
    },
    "startTime": 0,
    "duration": 24.00599999999996,
    "tracks": [
        {
            "startTime": 0,
            "duration": 0,
            "length": 0,
            "notes": [],
            "controlChanges": {},
            "id": 0,
            "name": "1. Der Tanz mit dem Stabe."
        },
        {
            "startTime": 0.84,
            "duration": 23.939999999999888,
            "length": 183,
            "notes": [
                {
                    "name": "C5",
                    "midi": 72,
                    "time": 0.84,
                    "velocity": 0.7244094488188977,
                    "duration": 0.12
                },
                {
                    "name": "B4",
                    "midi": 71,
                    "time": 0.96,
                    "velocity": 0.7244094488188977,
                    "duration": 0.040000000000000036
                },
                {
                    "name": "C5",
                    "midi": 72,
                    "time": 1.02,
                    "velocity": 0.7244094488188977,
                    "duration": 0.040000000000000036
                },
                {
                    "name": "D5",
                    "midi": 74,
                    "time": 1.08,
                    "velocity": 0.7244094488188977,
                    "duration": 0.24
                },
                {
                    "name": "C5",
                    "midi": 72,
                    "time": 1.32,
                    "velocity": 0.7559055118110236,
                    "duration": 0.1180000000000001
                },
                {
                    "name": "D5",
                    "midi": 74,
                    "time": 1.4400000000000002,
                    "velocity": 0.7716535433070866,
                    "duration": 0.06000000000000005
                },
                {
                    "name": "E5",
                    "midi": 76,
                    "time": 1.5000000000000002,
                    "velocity": 0.7795275590551181,
                    "duration": 0.05800000000000005
                },
                {
                    "name": "E5",
                    "midi": 76,
                    "time": 1.5600000000000003,
                    "velocity": 0.7874015748031497,
                    "duration": 0.24
                },
                {
                    "name": "F#5",
                    "midi": 78,
                    "time": 1.8000000000000003,
                    "velocity": 0.8188976377952756,
                    "duration": 0.11799999999999988
                },
                {
                    "name": "F#5",
                    "midi": 78,
                    "time": 1.9200000000000002,
                    "velocity": 0.8346456692913385,
                    "duration": 0.06000000000000005
                },
                {
                    "name": "G5",
                    "midi": 79,
                    "time": 1.9800000000000002,
                    "velocity": 0.84251968503937,
                    "duration": 0.05800000000000005
                },
                {
                    "name": "G5",
                    "midi": 79,
                    "time": 2.04,
                    "velocity": 0.8503937007874016,
                    "duration": 0.2400000000000002
                },
                {
                    "name": "F5",
                    "midi": 77,
                    "time": 2.2800000000000002,
                    "velocity": 0.7244094488188977,
                    "duration": 0.06000000000000005
                },
                {
                    "name": "E5",
                    "midi": 76,
                    "time": 2.3400000000000003,
                    "velocity": 0.7244094488188977,
                    "duration": 0.05799999999999983
                },
                {
                    "name": "E5",
                    "midi": 76,
                    "time": 2.4,
                    "velocity": 0.6456692913385826,
                    "duration": 0.06000000000000005
                },
                {
                    "name": "D5",
                    "midi": 74,
                    "time": 2.46,
                    "velocity": 0.5590551181102362,
                    "duration": 0.05799999999999983
                },
                {
                    "name": "C5",
                    "midi": 72,
                    "time": 2.5199999999999996,
                    "velocity": 0.47244094488188976,
                    "duration": 0.040000000000000036
                },
                {
                    "name": "C5",
                    "midi": 72,
                    "time": 2.6399999999999997,
                    "velocity": 0.5905511811023622,
                    "duration": 0.040000000000000036
                },
                {
                    "name": "B4",
                    "midi": 71,
                    "time": 2.88,
                    "velocity": 0.5905511811023622,
                    "duration": 0.040000000000000036
                },
                {
                    "name": "C5",
                    "midi": 72,
                    "time": 2.94,
                    "velocity": 0.5905511811023622,
                    "duration": 0.040000000000000036
                },
                {
                    "name": "D5",
                    "midi": 74,
                    "time": 3,
                    "velocity": 0.5905511811023622,
                    "duration": 0.29800000000000004
                },
                {
                    "name": "B4",
                    "midi": 71,
                    "time": 3.3,
                    "velocity": 0.5905511811023622,
                    "duration": 0.029999999999999805
                },
                {
                    "name": "D5",
                    "midi": 74,
                    "time": 3.3299999999999996,
                    "velocity": 0.5905511811023622,
                    "duration": 0.029999999999999805
                },
                {
                    "name": "C5",
                    "midi": 72,
                    "time": 3.3599999999999994,
                    "velocity": 0.5905511811023622,
                    "duration": 0.20999999999999996
                },
                {
                    "name": "A4",
                    "midi": 69,
                    "time": 3.5699999999999994,
                    "velocity": 0.7007874015748031,
                    "duration": 0.029999999999999805
                },
                {
                    "name": "B4",
                    "midi": 71,
                    "time": 3.599999999999999,
                    "velocity": 0.7165354330708661,
                    "duration": 0.11799999999999988
                },
                {
                    "name": "G4",
                    "midi": 67,
                    "time": 3.719999999999999,
                    "velocity": 0.7795275590551181,
                    "duration": 0.040000000000000036
                },
                {
                    "name": "A4",
                    "midi": 69,
                    "time": 3.839999999999999,
                    "velocity": 1,
                    "duration": 0.41999999999999993
                },
                {
                    "name": "A3",
                    "midi": 57,
                    "time": 4.3199999999999985,
                    "velocity": 1,
                    "duration": 0.3799999999999999
                },
                {
                    "name": "C5",
                    "midi": 72,
                    "time": 4.739999999999998,
                    "velocity": 0.5905511811023622,
                    "duration": 0.040000000000000036
                },
                {
                    "name": "B4",
                    "midi": 71,
                    "time": 4.799999999999998,
                    "velocity": 0.5905511811023622,
                    "duration": 0.040000000000000036
                },
                {
                    "name": "C5",
                    "midi": 72,
                    "time": 4.859999999999998,
                    "velocity": 0.6062992125984252,
                    "duration": 0.040000000000000036
                },
                {
                    "name": "D5",
                    "midi": 74,
                    "time": 4.919999999999997,
                    "velocity": 0.6220472440944882,
                    "duration": 0.2400000000000002
                },
                {
                    "name": "C5",
                    "midi": 72,
                    "time": 5.1599999999999975,
                    "velocity": 0.7165354330708661,
                    "duration": 0.11800000000000033
                },
                {
                    "name": "D5",
                    "midi": 74,
                    "time": 5.279999999999998,
                    "velocity": 0.7637795275590551,
                    "duration": 0.05999999999999961
                },
                {
                    "name": "E5",
                    "midi": 76,
                    "time": 5.339999999999997,
                    "velocity": 0.7874015748031497,
                    "duration": 0.05799999999999983
                },
                {
                    "name": "E5",
                    "midi": 76,
                    "time": 5.399999999999997,
                    "velocity": 0.8110236220472441,
                    "duration": 0.2400000000000002
                },
                {
                    "name": "F#5",
                    "midi": 78,
                    "time": 5.639999999999997,
                    "velocity": 0.905511811023622,
                    "duration": 0.11800000000000033
                },
                {
                    "name": "F#5",
                    "midi": 78,
                    "time": 5.759999999999997,
                    "velocity": 0.952755905511811,
                    "duration": 0.05999999999999961
                },
                {
                    "name": "G5",
                    "midi": 79,
                    "time": 5.819999999999997,
                    "velocity": 0.9763779527559056,
                    "duration": 0.05799999999999983
                },
                {
                    "name": "G5",
                    "midi": 79,
                    "time": 5.879999999999996,
                    "velocity": 1,
                    "duration": 0.2400000000000002
                },
                {
                    "name": "F5",
                    "midi": 77,
                    "time": 6.1199999999999966,
                    "velocity": 0.7244094488188977,
                    "duration": 0.05999999999999961
                },
                {
                    "name": "E5",
                    "midi": 76,
                    "time": 6.179999999999996,
                    "velocity": 0.7244094488188977,
                    "duration": 0.05799999999999983
                },
                {
                    "name": "E5",
                    "midi": 76,
                    "time": 6.239999999999996,
                    "velocity": 0.7007874015748031,
                    "duration": 0.05999999999999961
                },
                {
                    "name": "D5",
                    "midi": 74,
                    "time": 6.299999999999995,
                    "velocity": 0.6771653543307087,
                    "duration": 0.05799999999999983
                },
                {
                    "name": "C5",
                    "midi": 72,
                    "time": 6.359999999999995,
                    "velocity": 0.6535433070866141,
                    "duration": 0.040000000000000036
                },
                {
                    "name": "C5",
                    "midi": 72,
                    "time": 6.479999999999995,
                    "velocity": 0.5905511811023622,
                    "duration": 0.040000000000000036
                },
                {
                    "name": "B4",
                    "midi": 71,
                    "time": 6.719999999999995,
                    "velocity": 0.5905511811023622,
                    "duration": 0.040000000000000036
                },
                {
                    "name": "C5",
                    "midi": 72,
                    "time": 6.779999999999995,
                    "velocity": 0.5905511811023622,
                    "duration": 0.040000000000000036
                },
                {
                    "name": "D5",
                    "midi": 74,
                    "time": 6.8399999999999945,
                    "velocity": 0.5905511811023622,
                    "duration": 0.040000000000000036
                },
                {
                    "name": "D5",
                    "midi": 74,
                    "time": 6.959999999999995,
                    "velocity": 0.6220472440944882,
                    "duration": 0.040000000000000036
                },
                {
                    "name": "B4",
                    "midi": 71,
                    "time": 7.079999999999995,
                    "velocity": 0.6535433070866141,
                    "duration": 0.05999999999999961
                },
                {
                    "name": "D5",
                    "midi": 74,
                    "time": 7.169999999999995,
                    "velocity": 0.6771653543307087,
                    "duration": 0.03000000000000025
                },
                {
                    "name": "C5",
                    "midi": 72,
                    "time": 7.199999999999995,
                    "velocity": 0.6850393700787402,
                    "duration": 0.040000000000000036
                },
                {
                    "name": "A4",
                    "midi": 69,
                    "time": 7.319999999999995,
                    "velocity": 0.7244094488188977,
                    "duration": 0.05999999999999961
                },
                {
                    "name": "C5",
                    "midi": 72,
                    "time": 7.409999999999995,
                    "velocity": 0.7559055118110236,
                    "duration": 0.03000000000000025
                },
                {
                    "name": "B4",
                    "midi": 71,
                    "time": 7.439999999999995,
                    "velocity": 0.7637795275590551,
                    "duration": 0.040000000000000036
                },
                {
                    "name": "G4",
                    "midi": 67,
                    "time": 7.559999999999995,
                    "velocity": 0.8031496062992126,
                    "duration": 0.040000000000000036
                },
                {
                    "name": "A4",
                    "midi": 69,
                    "time": 7.679999999999995,
                    "velocity": 1,
                    "duration": 0.4200000000000008
                },
                {
                    "name": "A3",
                    "midi": 57,
                    "time": 8.159999999999997,
                    "velocity": 1,
                    "duration": 0.3800000000000008
                },
                {
                    "name": "G4",
                    "midi": 67,
                    "time": 8.579999999999997,
                    "velocity": 0.47244094488188976,
                    "duration": 0.05799999999999983
                },
                {
                    "name": "A4",
                    "midi": 69,
                    "time": 8.639999999999997,
                    "velocity": 0.47244094488188976,
                    "duration": 0.35999999999999943
                },
                {
                    "name": "C5",
                    "midi": 72,
                    "time": 8.999999999999996,
                    "velocity": 0.47244094488188976,
                    "duration": 0.03999999999999915
                },
                {
                    "name": "B4",
                    "midi": 71,
                    "time": 9.039999999999996,
                    "velocity": 0.47244094488188976,
                    "duration": 0.03999999999999915
                },
                {
                    "name": "C5",
                    "midi": 72,
                    "time": 9.079999999999995,
                    "velocity": 0.47244094488188976,
                    "duration": 0.03999999999999915
                },
                {
                    "name": "D5",
                    "midi": 74,
                    "time": 9.119999999999994,
                    "velocity": 0.47244094488188976,
                    "duration": 0.17999999999999972
                },
                {
                    "name": "A4",
                    "midi": 69,
                    "time": 9.299999999999994,
                    "velocity": 0.47244094488188976,
                    "duration": 0.0600000000000005
                },
                {
                    "name": "D5",
                    "midi": 74,
                    "time": 9.359999999999994,
                    "velocity": 0.47244094488188976,
                    "duration": 0.03999999999999915
                },
                {
                    "name": "B4",
                    "midi": 71,
                    "time": 9.479999999999993,
                    "velocity": 0.47244094488188976,
                    "duration": 0.03999999999999915
                },
                {
                    "name": "C5",
                    "midi": 72,
                    "time": 9.599999999999993,
                    "velocity": 0.47244094488188976,
                    "duration": 0.35999999999999943
                },
                {
                    "name": "B4",
                    "midi": 71,
                    "time": 9.959999999999992,
                    "velocity": 0.5669291338582677,
                    "duration": 0.11999999999999922
                },
                {
                    "name": "C5",
                    "midi": 72,
                    "time": 10.079999999999991,
                    "velocity": 0.5984251968503937,
                    "duration": 0.11800000000000033
                },
                {
                    "name": "E5",
                    "midi": 76,
                    "time": 10.259999999999991,
                    "velocity": 0.6456692913385826,
                    "duration": 0.0600000000000005
                },
                {
                    "name": "A5",
                    "midi": 81,
                    "time": 10.319999999999991,
                    "velocity": 0.6614173228346457,
                    "duration": 0.03999999999999915
                },
                {
                    "name": "B5",
                    "midi": 83,
                    "time": 10.43999999999999,
                    "velocity": 0.6929133858267716,
                    "duration": 0.03999999999999915
                },
                {
                    "name": "C6",
                    "midi": 84,
                    "time": 10.55999999999999,
                    "velocity": 0.7244094488188977,
                    "duration": 0.11999999999999922
                },
                {
                    "name": "B5",
                    "midi": 83,
                    "time": 10.73999999999999,
                    "velocity": 0.7244094488188977,
                    "duration": 0.0600000000000005
                },
                {
                    "name": "A5",
                    "midi": 81,
                    "time": 10.79999999999999,
                    "velocity": 0.7165354330708661,
                    "duration": 0.03999999999999915
                },
                {
                    "name": "G5",
                    "midi": 79,
                    "time": 10.91999999999999,
                    "velocity": 0.7007874015748031,
                    "duration": 0.03999999999999915
                },
                {
                    "name": "F5",
                    "midi": 77,
                    "time": 11.039999999999988,
                    "velocity": 0.6850393700787402,
                    "duration": 0.11999999999999922
                },
                {
                    "name": "E5",
                    "midi": 76,
                    "time": 11.219999999999988,
                    "velocity": 0.6535433070866141,
                    "duration": 0.0600000000000005
                },
                {
                    "name": "D5",
                    "midi": 74,
                    "time": 11.279999999999989,
                    "velocity": 0.6456692913385826,
                    "duration": 0.03999999999999915
                },
                {
                    "name": "B4",
                    "midi": 71,
                    "time": 11.399999999999988,
                    "velocity": 0.6220472440944882,
                    "duration": 0.03999999999999915
                },
                {
                    "name": "D5",
                    "midi": 74,
                    "time": 11.519999999999987,
                    "velocity": 0.5905511811023622,
                    "duration": 0.0600000000000005
                },
                {
                    "name": "C5",
                    "midi": 72,
                    "time": 11.579999999999988,
                    "velocity": 0.5905511811023622,
                    "duration": 0.05799999999999983
                },
                {
                    "name": "C5",
                    "midi": 72,
                    "time": 11.639999999999988,
                    "velocity": 0.5905511811023622,
                    "duration": 0.2400000000000002
                },
                {
                    "name": "B4",
                    "midi": 71,
                    "time": 11.879999999999988,
                    "velocity": 0.5905511811023622,
                    "duration": 0.11800000000000033
                },
                {
                    "name": "C5",
                    "midi": 72,
                    "time": 11.99999999999999,
                    "velocity": 0.5905511811023622,
                    "duration": 0.17999999999999972
                },
                {
                    "name": "B4",
                    "midi": 71,
                    "time": 12.179999999999989,
                    "velocity": 0.5905511811023622,
                    "duration": 0.0600000000000005
                },
                {
                    "name": "C5",
                    "midi": 72,
                    "time": 12.23999999999999,
                    "velocity": 0.5669291338582677,
                    "duration": 0.03999999999999915
                },
                {
                    "name": "G4",
                    "midi": 67,
                    "time": 12.359999999999989,
                    "velocity": 0.5196850393700787,
                    "duration": 0.03999999999999915
                },
                {
                    "name": "A4",
                    "midi": 69,
                    "time": 12.479999999999988,
                    "velocity": 0.47244094488188976,
                    "duration": 0.3200000000000003
                },
                {
                    "name": "C5",
                    "midi": 72,
                    "time": 12.839999999999987,
                    "velocity": 0.47244094488188976,
                    "duration": 0.03999999999999915
                },
                {
                    "name": "B4",
                    "midi": 71,
                    "time": 12.879999999999987,
                    "velocity": 0.47244094488188976,
                    "duration": 0.03999999999999915
                },
                {
                    "name": "C5",
                    "midi": 72,
                    "time": 12.919999999999986,
                    "velocity": 0.47244094488188976,
                    "duration": 0.03999999999999915
                },
                {
                    "name": "D5",
                    "midi": 74,
                    "time": 12.959999999999985,
                    "velocity": 0.5905511811023622,
                    "duration": 0.17999999999999972
                },
                {
                    "name": "A4",
                    "midi": 69,
                    "time": 13.139999999999985,
                    "velocity": 0.5905511811023622,
                    "duration": 0.0600000000000005
                },
                {
                    "name": "D5",
                    "midi": 74,
                    "time": 13.199999999999985,
                    "velocity": 0.5905511811023622,
                    "duration": 0.03999999999999915
                },
                {
                    "name": "B4",
                    "midi": 71,
                    "time": 13.319999999999984,
                    "velocity": 0.5905511811023622,
                    "duration": 0.03999999999999915
                },
                {
                    "name": "D5",
                    "midi": 74,
                    "time": 13.439999999999984,
                    "velocity": 0.47244094488188976,
                    "duration": 0.0600000000000005
                },
                {
                    "name": "C5",
                    "midi": 72,
                    "time": 13.499999999999984,
                    "velocity": 0.47244094488188976,
                    "duration": 0.05799999999999983
                },
                {
                    "name": "C5",
                    "midi": 72,
                    "time": 13.559999999999985,
                    "velocity": 0.47244094488188976,
                    "duration": 0.2400000000000002
                },
                {
                    "name": "D5",
                    "midi": 74,
                    "time": 13.799999999999985,
                    "velocity": 0.5905511811023622,
                    "duration": 0.03999999999999915
                },
                {
                    "name": "C5",
                    "midi": 72,
                    "time": 13.839999999999984,
                    "velocity": 0.5905511811023622,
                    "duration": 0.03999999999999915
                },
                {
                    "name": "D5",
                    "midi": 74,
                    "time": 13.879999999999983,
                    "velocity": 0.5905511811023622,
                    "duration": 0.03999999999999915
                },
                {
                    "name": "E5",
                    "midi": 76,
                    "time": 13.919999999999982,
                    "velocity": 0.6614173228346457,
                    "duration": 0.17999999999999972
                },
                {
                    "name": "C5",
                    "midi": 72,
                    "time": 14.099999999999982,
                    "velocity": 0.47244094488188976,
                    "duration": 0.0600000000000005
                },
                {
                    "name": "G4",
                    "midi": 67,
                    "time": 14.159999999999982,
                    "velocity": 0.47244094488188976,
                    "duration": 0.11800000000000033
                },
                {
                    "name": "A4",
                    "midi": 69,
                    "time": 14.399999999999983,
                    "velocity": 0.5905511811023622,
                    "duration": 0.03999999999999915
                },
                {
                    "name": "E5",
                    "midi": 76,
                    "time": 14.519999999999982,
                    "velocity": 0.5905511811023622,
                    "duration": 0.03999999999999915
                },
                {
                    "name": "A4",
                    "midi": 69,
                    "time": 14.639999999999981,
                    "velocity": 0.5905511811023622,
                    "duration": 0.03999999999999915
                },
                {
                    "name": "E5",
                    "midi": 76,
                    "time": 14.75999999999998,
                    "velocity": 0.5905511811023622,
                    "duration": 0.03999999999999915
                },
                {
                    "name": "A4",
                    "midi": 69,
                    "time": 14.87999999999998,
                    "velocity": 0.7244094488188977,
                    "duration": 0.03999999999999915
                },
                {
                    "name": "E5",
                    "midi": 76,
                    "time": 14.999999999999979,
                    "velocity": 0.7244094488188977,
                    "duration": 0.03999999999999915
                },
                {
                    "name": "A4",
                    "midi": 69,
                    "time": 15.119999999999978,
                    "velocity": 0.8503937007874016,
                    "duration": 0.03999999999999915
                },
                {
                    "name": "E5",
                    "midi": 76,
                    "time": 15.239999999999977,
                    "velocity": 0.8503937007874016,
                    "duration": 0.03999999999999915
                },
                {
                    "name": "A4",
                    "midi": 69,
                    "time": 15.359999999999976,
                    "velocity": 1,
                    "duration": 0.3800000000000008
                },
                {
                    "name": "G#3",
                    "midi": 56,
                    "time": 15.779999999999976,
                    "velocity": 0.8503937007874016,
                    "duration": 0.0600000000000005
                },
                {
                    "name": "A3",
                    "midi": 57,
                    "time": 15.839999999999977,
                    "velocity": 1,
                    "duration": 0.3800000000000008
                },
                {
                    "name": "G4",
                    "midi": 67,
                    "time": 16.259999999999977,
                    "velocity": 0.47244094488188976,
                    "duration": 0.05799999999999983
                },
                {
                    "name": "A4",
                    "midi": 69,
                    "time": 16.319999999999975,
                    "velocity": 0.47244094488188976,
                    "duration": 0.3200000000000003
                },
                {
                    "name": "C5",
                    "midi": 72,
                    "time": 16.679999999999975,
                    "velocity": 0.5354330708661418,
                    "duration": 0.03999999999999915
                },
                {
                    "name": "B4",
                    "midi": 71,
                    "time": 16.719999999999974,
                    "velocity": 0.5354330708661418,
                    "duration": 0.03999999999999915
                },
                {
                    "name": "C5",
                    "midi": 72,
                    "time": 16.759999999999973,
                    "velocity": 0.5354330708661418,
                    "duration": 0.03999999999999915
                },
                {
                    "name": "D5",
                    "midi": 74,
                    "time": 16.799999999999972,
                    "velocity": 0.5354330708661418,
                    "duration": 0.17999999999999972
                },
                {
                    "name": "A4",
                    "midi": 69,
                    "time": 16.979999999999972,
                    "velocity": 0.5669291338582677,
                    "duration": 0.05999999999999872
                },
                {
                    "name": "G4",
                    "midi": 67,
                    "time": 17.03999999999997,
                    "velocity": 0.5748031496062992,
                    "duration": 0.19999999999999574
                },
                {
                    "name": "D5",
                    "midi": 74,
                    "time": 17.03999999999997,
                    "velocity": 0.5748031496062992,
                    "duration": 0.03999999999999915
                },
                {
                    "name": "B4",
                    "midi": 71,
                    "time": 17.159999999999968,
                    "velocity": 0.5984251968503937,
                    "duration": 0.03999999999999915
                },
                {
                    "name": "F4",
                    "midi": 65,
                    "time": 17.279999999999966,
                    "velocity": 0.6220472440944882,
                    "duration": 0.4199999999999946
                },
                {
                    "name": "D5",
                    "midi": 74,
                    "time": 17.279999999999966,
                    "velocity": 0.6220472440944882,
                    "duration": 0.05999999999999872
                },
                {
                    "name": "C5",
                    "midi": 72,
                    "time": 17.339999999999964,
                    "velocity": 0.6299212598425197,
                    "duration": 0.05799999999999983
                },
                {
                    "name": "C5",
                    "midi": 72,
                    "time": 17.399999999999963,
                    "velocity": 0.6377952755905512,
                    "duration": 0.23999999999999844
                },
                {
                    "name": "B4",
                    "midi": 71,
                    "time": 17.63999999999996,
                    "velocity": 0.6929133858267716,
                    "duration": 0.11999999999999744
                },
                {
                    "name": "C5",
                    "midi": 72,
                    "time": 17.75999999999996,
                    "velocity": 0.7244094488188977,
                    "duration": 0.11799999999999855
                },
                {
                    "name": "E5",
                    "midi": 76,
                    "time": 17.93999999999996,
                    "velocity": 0.7244094488188977,
                    "duration": 0.05999999999999872
                },
                {
                    "name": "A5",
                    "midi": 81,
                    "time": 17.999999999999957,
                    "velocity": 0.7244094488188977,
                    "duration": 0.03999999999999915
                },
                {
                    "name": "B5",
                    "midi": 83,
                    "time": 18.119999999999955,
                    "velocity": 0.7244094488188977,
                    "duration": 0.03999999999999915
                },
                {
                    "name": "C6",
                    "midi": 84,
                    "time": 18.239999999999952,
                    "velocity": 0.7244094488188977,
                    "duration": 0.120000000000001
                },
                {
                    "name": "B5",
                    "midi": 83,
                    "time": 18.419999999999952,
                    "velocity": 0.7244094488188977,
                    "duration": 0.05999999999999872
                },
                {
                    "name": "A5",
                    "midi": 81,
                    "time": 18.47999999999995,
                    "velocity": 0.7244094488188977,
                    "duration": 0.03999999999999915
                },
                {
                    "name": "G5",
                    "midi": 79,
                    "time": 18.599999999999948,
                    "velocity": 0.7244094488188977,
                    "duration": 0.03999999999999915
                },
                {
                    "name": "F5",
                    "midi": 77,
                    "time": 18.719999999999946,
                    "velocity": 0.7244094488188977,
                    "duration": 0.120000000000001
                },
                {
                    "name": "E5",
                    "midi": 76,
                    "time": 18.899999999999945,
                    "velocity": 0.7244094488188977,
                    "duration": 0.05999999999999872
                },
                {
                    "name": "D5",
                    "midi": 74,
                    "time": 18.959999999999944,
                    "velocity": 0.7244094488188977,
                    "duration": 0.03999999999999915
                },
                {
                    "name": "B4",
                    "midi": 71,
                    "time": 19.07999999999994,
                    "velocity": 0.7244094488188977,
                    "duration": 0.03999999999999915
                },
                {
                    "name": "D5",
                    "midi": 74,
                    "time": 19.19999999999994,
                    "velocity": 0.7244094488188977,
                    "duration": 0.05999999999999872
                },
                {
                    "name": "C5",
                    "midi": 72,
                    "time": 19.259999999999938,
                    "velocity": 0.7244094488188977,
                    "duration": 0.05799999999999983
                },
                {
                    "name": "C5",
                    "midi": 72,
                    "time": 19.319999999999936,
                    "velocity": 0.7244094488188977,
                    "duration": 0.23999999999999844
                },
                {
                    "name": "B4",
                    "midi": 71,
                    "time": 19.559999999999935,
                    "velocity": 0.7244094488188977,
                    "duration": 0.08800000000000097
                },
                {
                    "name": "D5",
                    "midi": 74,
                    "time": 19.649999999999935,
                    "velocity": 0.7244094488188977,
                    "duration": 0.030000000000001137
                },
                {
                    "name": "C5",
                    "midi": 72,
                    "time": 19.679999999999936,
                    "velocity": 0.7244094488188977,
                    "duration": 0.17999999999999972
                },
                {
                    "name": "B4",
                    "midi": 71,
                    "time": 19.859999999999935,
                    "velocity": 0.7244094488188977,
                    "duration": 0.05999999999999872
                },
                {
                    "name": "C5",
                    "midi": 72,
                    "time": 19.919999999999934,
                    "velocity": 0.6771653543307087,
                    "duration": 0.03999999999999915
                },
                {
                    "name": "G4",
                    "midi": 67,
                    "time": 20.03999999999993,
                    "velocity": 0.5748031496062992,
                    "duration": 0.03999999999999915
                },
                {
                    "name": "A4",
                    "midi": 69,
                    "time": 20.15999999999993,
                    "velocity": 0.47244094488188976,
                    "duration": 0.3200000000000003
                },
                {
                    "name": "C5",
                    "midi": 72,
                    "time": 20.51999999999993,
                    "velocity": 0.47244094488188976,
                    "duration": 0.03999999999999915
                },
                {
                    "name": "B4",
                    "midi": 71,
                    "time": 20.559999999999928,
                    "velocity": 0.47244094488188976,
                    "duration": 0.03999999999999915
                },
                {
                    "name": "C5",
                    "midi": 72,
                    "time": 20.599999999999927,
                    "velocity": 0.47244094488188976,
                    "duration": 0.03999999999999915
                },
                {
                    "name": "D5",
                    "midi": 74,
                    "time": 20.639999999999926,
                    "velocity": 0.5905511811023622,
                    "duration": 0.17999999999999972
                },
                {
                    "name": "A4",
                    "midi": 69,
                    "time": 20.819999999999926,
                    "velocity": 0.5905511811023622,
                    "duration": 0.05999999999999872
                },
                {
                    "name": "D5",
                    "midi": 74,
                    "time": 20.879999999999924,
                    "velocity": 0.5905511811023622,
                    "duration": 0.03999999999999915
                },
                {
                    "name": "B4",
                    "midi": 71,
                    "time": 20.999999999999922,
                    "velocity": 0.5905511811023622,
                    "duration": 0.03999999999999915
                },
                {
                    "name": "D5",
                    "midi": 74,
                    "time": 21.11999999999992,
                    "velocity": 0.47244094488188976,
                    "duration": 0.05999999999999872
                },
                {
                    "name": "C5",
                    "midi": 72,
                    "time": 21.179999999999918,
                    "velocity": 0.47244094488188976,
                    "duration": 0.05799999999999983
                },
                {
                    "name": "C5",
                    "midi": 72,
                    "time": 21.239999999999917,
                    "velocity": 0.47244094488188976,
                    "duration": 0.23999999999999844
                },
                {
                    "name": "D5",
                    "midi": 74,
                    "time": 21.479999999999915,
                    "velocity": 0.5905511811023622,
                    "duration": 0.03999999999999915
                },
                {
                    "name": "C5",
                    "midi": 72,
                    "time": 21.519999999999914,
                    "velocity": 0.5905511811023622,
                    "duration": 0.03999999999999915
                },
                {
                    "name": "D5",
                    "midi": 74,
                    "time": 21.559999999999913,
                    "velocity": 0.5905511811023622,
                    "duration": 0.03999999999999915
                },
                {
                    "name": "E5",
                    "midi": 76,
                    "time": 21.599999999999913,
                    "velocity": 0.6614173228346457,
                    "duration": 0.17999999999999972
                },
                {
                    "name": "C5",
                    "midi": 72,
                    "time": 21.779999999999912,
                    "velocity": 0.47244094488188976,
                    "duration": 0.05999999999999872
                },
                {
                    "name": "G4",
                    "midi": 67,
                    "time": 21.83999999999991,
                    "velocity": 0.47244094488188976,
                    "duration": 0.11799999999999855
                },
                {
                    "name": "A4",
                    "midi": 69,
                    "time": 22.07999999999991,
                    "velocity": 0.5905511811023622,
                    "duration": 0.03999999999999915
                },
                {
                    "name": "E5",
                    "midi": 76,
                    "time": 22.199999999999907,
                    "velocity": 0.5905511811023622,
                    "duration": 0.03999999999999915
                },
                {
                    "name": "A4",
                    "midi": 69,
                    "time": 22.319999999999904,
                    "velocity": 0.5905511811023622,
                    "duration": 0.03999999999999915
                },
                {
                    "name": "E5",
                    "midi": 76,
                    "time": 22.439999999999902,
                    "velocity": 0.6535433070866141,
                    "duration": 0.03999999999999915
                },
                {
                    "name": "A4",
                    "midi": 69,
                    "time": 22.5599999999999,
                    "velocity": 0.7165354330708661,
                    "duration": 0.03999999999999915
                },
                {
                    "name": "E5",
                    "midi": 76,
                    "time": 22.679999999999897,
                    "velocity": 0.7874015748031497,
                    "duration": 0.03999999999999915
                },
                {
                    "name": "A4",
                    "midi": 69,
                    "time": 22.799999999999894,
                    "velocity": 0.8582677165354331,
                    "duration": 0.03999999999999915
                },
                {
                    "name": "E5",
                    "midi": 76,
                    "time": 22.91999999999989,
                    "velocity": 0.9291338582677166,
                    "duration": 0.03999999999999915
                },
                {
                    "name": "A4",
                    "midi": 69,
                    "time": 23.03999999999989,
                    "velocity": 1,
                    "duration": 0.379999999999999
                },
                {
                    "name": "G#3",
                    "midi": 56,
                    "time": 23.459999999999887,
                    "velocity": 0.8503937007874016,
                    "duration": 0.05999999999999872
                },
                {
                    "name": "A3",
                    "midi": 57,
                    "time": 23.519999999999886,
                    "velocity": 1,
                    "duration": 0.4200000000000017
                }
            ],
            "controlChanges": {
                "7": [
                    {
                        "number": 7,
                        "time": 0,
                        "value": 1
                    }
                ],
                "10": [
                    {
                        "number": 10,
                        "time": 0,
                        "value": 0.7559055118110236
                    }
                ],
                "64": [
                    {
                        "number": 64,
                        "time": 1.02,
                        "value": 1
                    },
                    {
                        "number": 64,
                        "time": 1.32,
                        "value": 0
                    },
                    {
                        "number": 64,
                        "time": 1.5000000000000002,
                        "value": 1
                    },
                    {
                        "number": 64,
                        "time": 1.8000000000000003,
                        "value": 0
                    },
                    {
                        "number": 64,
                        "time": 1.9800000000000002,
                        "value": 1
                    },
                    {
                        "number": 64,
                        "time": 2.2800000000000002,
                        "value": 0
                    },
                    {
                        "number": 64,
                        "time": 2.6399999999999997,
                        "value": 1
                    },
                    {
                        "number": 64,
                        "time": 2.76,
                        "value": 0
                    },
                    {
                        "number": 64,
                        "time": 3,
                        "value": 1
                    },
                    {
                        "number": 64,
                        "time": 3.5699999999999994,
                        "value": 0
                    },
                    {
                        "number": 64,
                        "time": 4.3199999999999985,
                        "value": 1
                    },
                    {
                        "number": 64,
                        "time": 4.739999999999998,
                        "value": 0
                    },
                    {
                        "number": 64,
                        "time": 4.919999999999997,
                        "value": 1
                    },
                    {
                        "number": 64,
                        "time": 5.279999999999998,
                        "value": 0
                    },
                    {
                        "number": 64,
                        "time": 5.399999999999997,
                        "value": 1
                    },
                    {
                        "number": 64,
                        "time": 5.759999999999997,
                        "value": 0
                    },
                    {
                        "number": 64,
                        "time": 6.8399999999999945,
                        "value": 1
                    },
                    {
                        "number": 64,
                        "time": 7.319999999999995,
                        "value": 0
                    },
                    {
                        "number": 64,
                        "time": 9.959999999999992,
                        "value": 1
                    },
                    {
                        "number": 64,
                        "time": 10.079999999999991,
                        "value": 0
                    },
                    {
                        "number": 64,
                        "time": 10.259999999999991,
                        "value": 1
                    },
                    {
                        "number": 64,
                        "time": 10.55999999999999,
                        "value": 0
                    },
                    {
                        "number": 64,
                        "time": 10.73999999999999,
                        "value": 1
                    },
                    {
                        "number": 64,
                        "time": 11.039999999999988,
                        "value": 0
                    },
                    {
                        "number": 64,
                        "time": 11.219999999999988,
                        "value": 1
                    },
                    {
                        "number": 64,
                        "time": 11.519999999999987,
                        "value": 0
                    },
                    {
                        "number": 64,
                        "time": 11.639999999999988,
                        "value": 1
                    },
                    {
                        "number": 64,
                        "time": 11.99999999999999,
                        "value": 0
                    },
                    {
                        "number": 64,
                        "time": 12.179999999999989,
                        "value": 1
                    },
                    {
                        "number": 64,
                        "time": 12.479999999999988,
                        "value": 0
                    },
                    {
                        "number": 64,
                        "time": 12.839999999999987,
                        "value": 1
                    },
                    {
                        "number": 64,
                        "time": 13.139999999999985,
                        "value": 0
                    },
                    {
                        "number": 64,
                        "time": 13.199999999999985,
                        "value": 1
                    },
                    {
                        "number": 64,
                        "time": 13.439999999999984,
                        "value": 0
                    },
                    {
                        "number": 64,
                        "time": 13.559999999999985,
                        "value": 1
                    },
                    {
                        "number": 64,
                        "time": 14.279999999999983,
                        "value": 0
                    },
                    {
                        "number": 64,
                        "time": 14.75999999999998,
                        "value": 1
                    },
                    {
                        "number": 64,
                        "time": 15.119999999999978,
                        "value": 0
                    },
                    {
                        "number": 64,
                        "time": 15.239999999999977,
                        "value": 1
                    },
                    {
                        "number": 64,
                        "time": 15.359999999999976,
                        "value": 0
                    },
                    {
                        "number": 64,
                        "time": 15.779999999999976,
                        "value": 1
                    },
                    {
                        "number": 64,
                        "time": 16.259999999999977,
                        "value": 0
                    },
                    {
                        "number": 64,
                        "time": 16.679999999999975,
                        "value": 1
                    },
                    {
                        "number": 64,
                        "time": 16.799999999999972,
                        "value": 0
                    },
                    {
                        "number": 64,
                        "time": 17.159999999999968,
                        "value": 1
                    },
                    {
                        "number": 64,
                        "time": 17.279999999999966,
                        "value": 0
                    },
                    {
                        "number": 64,
                        "time": 17.399999999999963,
                        "value": 1
                    },
                    {
                        "number": 64,
                        "time": 17.93999999999996,
                        "value": 0
                    },
                    {
                        "number": 64,
                        "time": 18.119999999999955,
                        "value": 1
                    },
                    {
                        "number": 64,
                        "time": 18.239999999999952,
                        "value": 0
                    },
                    {
                        "number": 64,
                        "time": 18.419999999999952,
                        "value": 1
                    },
                    {
                        "number": 64,
                        "time": 18.719999999999946,
                        "value": 0
                    },
                    {
                        "number": 64,
                        "time": 19.319999999999936,
                        "value": 1
                    },
                    {
                        "number": 64,
                        "time": 19.649999999999935,
                        "value": 0
                    },
                    {
                        "number": 64,
                        "time": 19.859999999999935,
                        "value": 1
                    },
                    {
                        "number": 64,
                        "time": 20.15999999999993,
                        "value": 0
                    },
                    {
                        "number": 64,
                        "time": 20.51999999999993,
                        "value": 1
                    },
                    {
                        "number": 64,
                        "time": 21.11999999999992,
                        "value": 0
                    },
                    {
                        "number": 64,
                        "time": 21.239999999999917,
                        "value": 1
                    },
                    {
                        "number": 64,
                        "time": 21.95999999999991,
                        "value": 0
                    },
                    {
                        "number": 64,
                        "time": 22.439999999999902,
                        "value": 1
                    },
                    {
                        "number": 64,
                        "time": 22.679999999999897,
                        "value": 0
                    },
                    {
                        "number": 64,
                        "time": 22.91999999999989,
                        "value": 1
                    },
                    {
                        "number": 64,
                        "time": 23.03999999999989,
                        "value": 0
                    }
                ],
                "91": [
                    {
                        "number": 91,
                        "time": 0.24,
                        "value": 0.3779527559055118
                    }
                ],
                "93": [
                    {
                        "number": 93,
                        "time": 0.36,
                        "value": 0
                    }
                ],
                "121": [
                    {
                        "number": 121,
                        "time": 0,
                        "value": 0
                    },
                    {
                        "number": 121,
                        "time": 24.479999999999887,
                        "value": 0
                    }
                ]
            },
            "id": 1,
            "name": "Right Hand",
            "instrumentNumber": 0,
            "instrument": "acoustic grand piano",
            "instrumentFamily": "piano",
            "channelNumber": 0,
            "isPercussion": false
        },
        {
            "startTime": 0.966,
            "duration": 24.00599999999996,
            "length": 190,
            "notes": [
                {
                    "name": "A2",
                    "midi": 45,
                    "time": 0.966,
                    "velocity": 0.5905511811023622,
                    "duration": 0.24
                },
                {
                    "name": "A3",
                    "midi": 57,
                    "time": 1.206,
                    "velocity": 0.5905511811023622,
                    "duration": 0.24
                },
                {
                    "name": "C4",
                    "midi": 60,
                    "time": 1.206,
                    "velocity": 0.5905511811023622,
                    "duration": 0.24
                },
                {
                    "name": "E4",
                    "midi": 64,
                    "time": 1.206,
                    "velocity": 0.5905511811023622,
                    "duration": 0.24
                },
                {
                    "name": "D2",
                    "midi": 38,
                    "time": 1.446,
                    "velocity": 0.5905511811023622,
                    "duration": 0.24
                },
                {
                    "name": "A3",
                    "midi": 57,
                    "time": 1.686,
                    "velocity": 0.5905511811023622,
                    "duration": 0.24
                },
                {
                    "name": "C4",
                    "midi": 60,
                    "time": 1.686,
                    "velocity": 0.5905511811023622,
                    "duration": 0.24
                },
                {
                    "name": "D4",
                    "midi": 62,
                    "time": 1.686,
                    "velocity": 0.5905511811023622,
                    "duration": 0.24
                },
                {
                    "name": "G2",
                    "midi": 43,
                    "time": 1.926,
                    "velocity": 0.5905511811023622,
                    "duration": 0.24
                },
                {
                    "name": "C4",
                    "midi": 60,
                    "time": 2.166,
                    "velocity": 0.5905511811023622,
                    "duration": 0.1200000000000001
                },
                {
                    "name": "D4",
                    "midi": 62,
                    "time": 2.166,
                    "velocity": 0.5905511811023622,
                    "duration": 0.20000000000000018
                },
                {
                    "name": "B3",
                    "midi": 59,
                    "time": 2.286,
                    "velocity": 0.5905511811023622,
                    "duration": 0.11799999999999988
                },
                {
                    "name": "B3",
                    "midi": 59,
                    "time": 2.4059999999999997,
                    "velocity": 0.5905511811023622,
                    "duration": 0.17799999999999994
                },
                {
                    "name": "C4",
                    "midi": 60,
                    "time": 2.4059999999999997,
                    "velocity": 0.5905511811023622,
                    "duration": 0.17799999999999994
                },
                {
                    "name": "A2",
                    "midi": 45,
                    "time": 2.5859999999999994,
                    "velocity": 0.5905511811023622,
                    "duration": 0.029999999999999805
                },
                {
                    "name": "E3",
                    "midi": 52,
                    "time": 2.615999999999999,
                    "velocity": 0.5905511811023622,
                    "duration": 0.029999999999999805
                },
                {
                    "name": "A3",
                    "midi": 57,
                    "time": 2.645999999999999,
                    "velocity": 0.5905511811023622,
                    "duration": 0.040000000000000036
                },
                {
                    "name": "E2",
                    "midi": 40,
                    "time": 2.8859999999999992,
                    "velocity": 0.5905511811023622,
                    "duration": 0.2400000000000002
                },
                {
                    "name": "E3",
                    "midi": 52,
                    "time": 3.1259999999999994,
                    "velocity": 0.5905511811023622,
                    "duration": 0.6600000000000006
                },
                {
                    "name": "G3",
                    "midi": 55,
                    "time": 3.1259999999999994,
                    "velocity": 0.5905511811023622,
                    "duration": 0.2400000000000002
                },
                {
                    "name": "B3",
                    "midi": 59,
                    "time": 3.1259999999999994,
                    "velocity": 0.5905511811023622,
                    "duration": 0.2400000000000002
                },
                {
                    "name": "A3",
                    "midi": 57,
                    "time": 3.3659999999999997,
                    "velocity": 0.5905511811023622,
                    "duration": 0.2400000000000002
                },
                {
                    "name": "C4",
                    "midi": 60,
                    "time": 3.3659999999999997,
                    "velocity": 0.5905511811023622,
                    "duration": 0.2400000000000002
                },
                {
                    "name": "B3",
                    "midi": 59,
                    "time": 3.606,
                    "velocity": 0.5905511811023622,
                    "duration": 0.2400000000000002
                },
                {
                    "name": "D4",
                    "midi": 62,
                    "time": 3.606,
                    "velocity": 0.5905511811023622,
                    "duration": 0.2400000000000002
                },
                {
                    "name": "A3",
                    "midi": 57,
                    "time": 3.846,
                    "velocity": 0.5905511811023622,
                    "duration": 0.20000000000000018
                },
                {
                    "name": "C#4",
                    "midi": 61,
                    "time": 3.846,
                    "velocity": 0.5905511811023622,
                    "duration": 0.20000000000000018
                },
                {
                    "name": "E4",
                    "midi": 64,
                    "time": 3.846,
                    "velocity": 0.5905511811023622,
                    "duration": 0.20000000000000018
                },
                {
                    "name": "A2",
                    "midi": 45,
                    "time": 4.086,
                    "velocity": 0.5905511811023622,
                    "duration": 0.2400000000000002
                },
                {
                    "name": "C#4",
                    "midi": 61,
                    "time": 4.3260000000000005,
                    "velocity": 0.5905511811023622,
                    "duration": 0.2400000000000002
                },
                {
                    "name": "E4",
                    "midi": 64,
                    "time": 4.3260000000000005,
                    "velocity": 0.5905511811023622,
                    "duration": 0.2400000000000002
                },
                {
                    "name": "A1",
                    "midi": 33,
                    "time": 4.566000000000001,
                    "velocity": 0.5905511811023622,
                    "duration": 0.2400000000000002
                },
                {
                    "name": "A3",
                    "midi": 57,
                    "time": 4.806000000000001,
                    "velocity": 0.5905511811023622,
                    "duration": 0.2400000000000002
                },
                {
                    "name": "D4",
                    "midi": 62,
                    "time": 4.806000000000001,
                    "velocity": 0.5905511811023622,
                    "duration": 0.2400000000000002
                },
                {
                    "name": "F#4",
                    "midi": 66,
                    "time": 4.806000000000001,
                    "velocity": 0.5905511811023622,
                    "duration": 0.2400000000000002
                },
                {
                    "name": "A2",
                    "midi": 45,
                    "time": 5.046000000000001,
                    "velocity": 0.5905511811023622,
                    "duration": 0.2400000000000002
                },
                {
                    "name": "A3",
                    "midi": 57,
                    "time": 5.286000000000001,
                    "velocity": 0.5905511811023622,
                    "duration": 0.17799999999999994
                },
                {
                    "name": "C4",
                    "midi": 60,
                    "time": 5.286000000000001,
                    "velocity": 0.5905511811023622,
                    "duration": 0.17799999999999994
                },
                {
                    "name": "E4",
                    "midi": 64,
                    "time": 5.286000000000001,
                    "velocity": 0.5905511811023622,
                    "duration": 0.17799999999999994
                },
                {
                    "name": "D3",
                    "midi": 50,
                    "time": 5.466000000000001,
                    "velocity": 0.5905511811023622,
                    "duration": 0.03000000000000025
                },
                {
                    "name": "A3",
                    "midi": 57,
                    "time": 5.496000000000001,
                    "velocity": 0.5905511811023622,
                    "duration": 0.03000000000000025
                },
                {
                    "name": "D4",
                    "midi": 62,
                    "time": 5.526000000000002,
                    "velocity": 0.5905511811023622,
                    "duration": 0.2400000000000002
                },
                {
                    "name": "C4",
                    "midi": 60,
                    "time": 5.766000000000002,
                    "velocity": 0.5905511811023622,
                    "duration": 0.17999999999999972
                },
                {
                    "name": "D4",
                    "midi": 62,
                    "time": 5.766000000000002,
                    "velocity": 0.5905511811023622,
                    "duration": 0.17999999999999972
                },
                {
                    "name": "G2",
                    "midi": 43,
                    "time": 5.9460000000000015,
                    "velocity": 0.5905511811023622,
                    "duration": 0.03000000000000025
                },
                {
                    "name": "D3",
                    "midi": 50,
                    "time": 5.976000000000002,
                    "velocity": 0.5905511811023622,
                    "duration": 0.03000000000000025
                },
                {
                    "name": "B3",
                    "midi": 59,
                    "time": 6.006000000000002,
                    "velocity": 0.5905511811023622,
                    "duration": 0.2400000000000002
                },
                {
                    "name": "G3",
                    "midi": 55,
                    "time": 6.246000000000002,
                    "velocity": 0.5905511811023622,
                    "duration": 0.11999999999999922
                },
                {
                    "name": "A3",
                    "midi": 57,
                    "time": 6.246000000000002,
                    "velocity": 0.5905511811023622,
                    "duration": 0.05999999999999961
                },
                {
                    "name": "E4",
                    "midi": 64,
                    "time": 6.246000000000002,
                    "velocity": 0.5905511811023622,
                    "duration": 0.15999999999999925
                },
                {
                    "name": "B3",
                    "midi": 59,
                    "time": 6.306000000000002,
                    "velocity": 0.5905511811023622,
                    "duration": 0.05999999999999961
                },
                {
                    "name": "C4",
                    "midi": 60,
                    "time": 6.366000000000001,
                    "velocity": 0.5905511811023622,
                    "duration": 0.040000000000000036
                },
                {
                    "name": "C2",
                    "midi": 36,
                    "time": 6.4860000000000015,
                    "velocity": 0.5905511811023622,
                    "duration": 0.040000000000000036
                },
                {
                    "name": "D2",
                    "midi": 38,
                    "time": 6.606000000000002,
                    "velocity": 0.5905511811023622,
                    "duration": 0.040000000000000036
                },
                {
                    "name": "E2",
                    "midi": 40,
                    "time": 6.726000000000002,
                    "velocity": 0.5905511811023622,
                    "duration": 0.2400000000000002
                },
                {
                    "name": "E3",
                    "midi": 52,
                    "time": 6.966000000000002,
                    "velocity": 0.5905511811023622,
                    "duration": 0.6600000000000001
                },
                {
                    "name": "G3",
                    "midi": 55,
                    "time": 6.966000000000002,
                    "velocity": 0.5905511811023622,
                    "duration": 0.2400000000000002
                },
                {
                    "name": "B3",
                    "midi": 59,
                    "time": 6.966000000000002,
                    "velocity": 0.5905511811023622,
                    "duration": 0.2400000000000002
                },
                {
                    "name": "A3",
                    "midi": 57,
                    "time": 7.206000000000002,
                    "velocity": 0.5905511811023622,
                    "duration": 0.2400000000000002
                },
                {
                    "name": "C4",
                    "midi": 60,
                    "time": 7.206000000000002,
                    "velocity": 0.5905511811023622,
                    "duration": 0.2400000000000002
                },
                {
                    "name": "B3",
                    "midi": 59,
                    "time": 7.446000000000002,
                    "velocity": 0.5905511811023622,
                    "duration": 0.23999999999999932
                },
                {
                    "name": "D4",
                    "midi": 62,
                    "time": 7.446000000000002,
                    "velocity": 0.5905511811023622,
                    "duration": 0.23999999999999932
                },
                {
                    "name": "A3",
                    "midi": 57,
                    "time": 7.686000000000002,
                    "velocity": 0.5905511811023622,
                    "duration": 0.2400000000000002
                },
                {
                    "name": "C#4",
                    "midi": 61,
                    "time": 7.686000000000002,
                    "velocity": 0.5905511811023622,
                    "duration": 0.2400000000000002
                },
                {
                    "name": "E4",
                    "midi": 64,
                    "time": 7.686000000000002,
                    "velocity": 0.5905511811023622,
                    "duration": 0.2400000000000002
                },
                {
                    "name": "A2",
                    "midi": 45,
                    "time": 7.926000000000002,
                    "velocity": 0.5905511811023622,
                    "duration": 0.2400000000000002
                },
                {
                    "name": "C#4",
                    "midi": 61,
                    "time": 8.166000000000002,
                    "velocity": 0.5905511811023622,
                    "duration": 0.2400000000000002
                },
                {
                    "name": "E4",
                    "midi": 64,
                    "time": 8.166000000000002,
                    "velocity": 0.5905511811023622,
                    "duration": 0.2400000000000002
                },
                {
                    "name": "A1",
                    "midi": 33,
                    "time": 8.406000000000002,
                    "velocity": 0.5905511811023622,
                    "duration": 0.2400000000000002
                },
                {
                    "name": "A3",
                    "midi": 57,
                    "time": 8.886000000000003,
                    "velocity": 0.47244094488188976,
                    "duration": 0.2400000000000002
                },
                {
                    "name": "D4",
                    "midi": 62,
                    "time": 8.886000000000003,
                    "velocity": 0.47244094488188976,
                    "duration": 0.2400000000000002
                },
                {
                    "name": "F#4",
                    "midi": 66,
                    "time": 8.886000000000003,
                    "velocity": 0.47244094488188976,
                    "duration": 0.2400000000000002
                },
                {
                    "name": "G3",
                    "midi": 55,
                    "time": 9.126000000000003,
                    "velocity": 0.47244094488188976,
                    "duration": 0.2400000000000002
                },
                {
                    "name": "C4",
                    "midi": 60,
                    "time": 9.126000000000003,
                    "velocity": 0.47244094488188976,
                    "duration": 0.2400000000000002
                },
                {
                    "name": "E4",
                    "midi": 64,
                    "time": 9.126000000000003,
                    "velocity": 0.47244094488188976,
                    "duration": 0.2400000000000002
                },
                {
                    "name": "F#3",
                    "midi": 54,
                    "time": 9.366000000000003,
                    "velocity": 0.47244094488188976,
                    "duration": 0.2400000000000002
                },
                {
                    "name": "B3",
                    "midi": 59,
                    "time": 9.366000000000003,
                    "velocity": 0.47244094488188976,
                    "duration": 0.2400000000000002
                },
                {
                    "name": "D4",
                    "midi": 62,
                    "time": 9.366000000000003,
                    "velocity": 0.47244094488188976,
                    "duration": 0.2400000000000002
                },
                {
                    "name": "E3",
                    "midi": 52,
                    "time": 9.606000000000003,
                    "velocity": 0.47244094488188976,
                    "duration": 0.2400000000000002
                },
                {
                    "name": "B3",
                    "midi": 59,
                    "time": 9.606000000000003,
                    "velocity": 0.47244094488188976,
                    "duration": 0.2400000000000002
                },
                {
                    "name": "C4",
                    "midi": 60,
                    "time": 9.606000000000003,
                    "velocity": 0.47244094488188976,
                    "duration": 0.2400000000000002
                },
                {
                    "name": "A1",
                    "midi": 33,
                    "time": 9.846000000000004,
                    "velocity": 0.47244094488188976,
                    "duration": 0.2400000000000002
                },
                {
                    "name": "E3",
                    "midi": 52,
                    "time": 10.086000000000004,
                    "velocity": 0.47244094488188976,
                    "duration": 0.2400000000000002
                },
                {
                    "name": "A3",
                    "midi": 57,
                    "time": 10.086000000000004,
                    "velocity": 0.47244094488188976,
                    "duration": 0.2400000000000002
                },
                {
                    "name": "C4",
                    "midi": 60,
                    "time": 10.086000000000004,
                    "velocity": 0.47244094488188976,
                    "duration": 0.2400000000000002
                },
                {
                    "name": "A2",
                    "midi": 45,
                    "time": 10.326000000000004,
                    "velocity": 0.47244094488188976,
                    "duration": 0.2400000000000002
                },
                {
                    "name": "G3",
                    "midi": 55,
                    "time": 10.326000000000004,
                    "velocity": 0.47244094488188976,
                    "duration": 0.2400000000000002
                },
                {
                    "name": "F3",
                    "midi": 53,
                    "time": 10.566000000000004,
                    "velocity": 0.47244094488188976,
                    "duration": 0.2400000000000002
                },
                {
                    "name": "A3",
                    "midi": 57,
                    "time": 10.566000000000004,
                    "velocity": 0.47244094488188976,
                    "duration": 0.2400000000000002
                },
                {
                    "name": "E4",
                    "midi": 64,
                    "time": 10.566000000000004,
                    "velocity": 0.47244094488188976,
                    "duration": 0.2400000000000002
                },
                {
                    "name": "D2",
                    "midi": 38,
                    "time": 10.806000000000004,
                    "velocity": 0.47244094488188976,
                    "duration": 0.2400000000000002
                },
                {
                    "name": "G3",
                    "midi": 55,
                    "time": 11.046000000000005,
                    "velocity": 0.47244094488188976,
                    "duration": 0.2400000000000002
                },
                {
                    "name": "B3",
                    "midi": 59,
                    "time": 11.046000000000005,
                    "velocity": 0.47244094488188976,
                    "duration": 0.2400000000000002
                },
                {
                    "name": "D4",
                    "midi": 62,
                    "time": 11.046000000000005,
                    "velocity": 0.47244094488188976,
                    "duration": 0.2400000000000002
                },
                {
                    "name": "E2",
                    "midi": 40,
                    "time": 11.286000000000005,
                    "velocity": 0.47244094488188976,
                    "duration": 0.2400000000000002
                },
                {
                    "name": "E3",
                    "midi": 52,
                    "time": 11.526000000000005,
                    "velocity": 0.47244094488188976,
                    "duration": 0.2400000000000002
                },
                {
                    "name": "B3",
                    "midi": 59,
                    "time": 11.526000000000005,
                    "velocity": 0.47244094488188976,
                    "duration": 0.2400000000000002
                },
                {
                    "name": "C4",
                    "midi": 60,
                    "time": 11.526000000000005,
                    "velocity": 0.47244094488188976,
                    "duration": 0.2400000000000002
                },
                {
                    "name": "A2",
                    "midi": 45,
                    "time": 11.766000000000005,
                    "velocity": 0.47244094488188976,
                    "duration": 0.2400000000000002
                },
                {
                    "name": "E3",
                    "midi": 52,
                    "time": 12.006000000000006,
                    "velocity": 0.47244094488188976,
                    "duration": 0.2400000000000002
                },
                {
                    "name": "A3",
                    "midi": 57,
                    "time": 12.006000000000006,
                    "velocity": 0.47244094488188976,
                    "duration": 0.2400000000000002
                },
                {
                    "name": "C4",
                    "midi": 60,
                    "time": 12.006000000000006,
                    "velocity": 0.47244094488188976,
                    "duration": 0.2400000000000002
                },
                {
                    "name": "G2",
                    "midi": 43,
                    "time": 12.246000000000006,
                    "velocity": 0.47244094488188976,
                    "duration": 0.2400000000000002
                },
                {
                    "name": "F2",
                    "midi": 41,
                    "time": 12.486000000000006,
                    "velocity": 0.47244094488188976,
                    "duration": 0.2400000000000002
                },
                {
                    "name": "A3",
                    "midi": 57,
                    "time": 12.726000000000006,
                    "velocity": 0.47244094488188976,
                    "duration": 0.41999999999999993
                },
                {
                    "name": "D#4",
                    "midi": 63,
                    "time": 12.726000000000006,
                    "velocity": 0.47244094488188976,
                    "duration": 0.41999999999999993
                },
                {
                    "name": "E3",
                    "midi": 52,
                    "time": 13.146000000000006,
                    "velocity": 0.47244094488188976,
                    "duration": 0.0600000000000005
                },
                {
                    "name": "A3",
                    "midi": 57,
                    "time": 13.146000000000006,
                    "velocity": 0.47244094488188976,
                    "duration": 0.0600000000000005
                },
                {
                    "name": "E4",
                    "midi": 64,
                    "time": 13.206000000000007,
                    "velocity": 0.47244094488188976,
                    "duration": 0.1999999999999993
                },
                {
                    "name": "D2",
                    "midi": 38,
                    "time": 13.446000000000005,
                    "velocity": 0.47244094488188976,
                    "duration": 0.2400000000000002
                },
                {
                    "name": "A3",
                    "midi": 57,
                    "time": 13.686000000000005,
                    "velocity": 0.47244094488188976,
                    "duration": 0.6600000000000001
                },
                {
                    "name": "C4",
                    "midi": 60,
                    "time": 13.686000000000005,
                    "velocity": 0.47244094488188976,
                    "duration": 0.6600000000000001
                },
                {
                    "name": "F#4",
                    "midi": 66,
                    "time": 13.686000000000005,
                    "velocity": 0.47244094488188976,
                    "duration": 0.6600000000000001
                },
                {
                    "name": "D3",
                    "midi": 50,
                    "time": 14.646000000000006,
                    "velocity": 0.5905511811023622,
                    "duration": 0.2400000000000002
                },
                {
                    "name": "F#3",
                    "midi": 54,
                    "time": 14.646000000000006,
                    "velocity": 0.5905511811023622,
                    "duration": 0.2400000000000002
                },
                {
                    "name": "C4",
                    "midi": 60,
                    "time": 14.646000000000006,
                    "velocity": 0.5905511811023622,
                    "duration": 0.2400000000000002
                },
                {
                    "name": "A3",
                    "midi": 57,
                    "time": 14.886000000000006,
                    "velocity": 0.5905511811023622,
                    "duration": 0.1999999999999993
                },
                {
                    "name": "C4",
                    "midi": 60,
                    "time": 14.886000000000006,
                    "velocity": 0.5905511811023622,
                    "duration": 0.1999999999999993
                },
                {
                    "name": "F#4",
                    "midi": 66,
                    "time": 14.886000000000006,
                    "velocity": 0.5905511811023622,
                    "duration": 0.1999999999999993
                },
                {
                    "name": "E3",
                    "midi": 52,
                    "time": 15.126000000000005,
                    "velocity": 0.7244094488188977,
                    "duration": 0.2400000000000002
                },
                {
                    "name": "G#3",
                    "midi": 56,
                    "time": 15.126000000000005,
                    "velocity": 0.7244094488188977,
                    "duration": 0.2400000000000002
                },
                {
                    "name": "D4",
                    "midi": 62,
                    "time": 15.126000000000005,
                    "velocity": 0.7244094488188977,
                    "duration": 0.2400000000000002
                },
                {
                    "name": "E3",
                    "midi": 52,
                    "time": 15.366000000000005,
                    "velocity": 0.7244094488188977,
                    "duration": 0.2400000000000002
                },
                {
                    "name": "A3",
                    "midi": 57,
                    "time": 15.366000000000005,
                    "velocity": 0.7244094488188977,
                    "duration": 0.2400000000000002
                },
                {
                    "name": "C#4",
                    "midi": 61,
                    "time": 15.366000000000005,
                    "velocity": 0.7244094488188977,
                    "duration": 0.2400000000000002
                },
                {
                    "name": "A2",
                    "midi": 45,
                    "time": 15.606000000000005,
                    "velocity": 0.7244094488188977,
                    "duration": 0.2400000000000002
                },
                {
                    "name": "C#4",
                    "midi": 61,
                    "time": 15.846000000000005,
                    "velocity": 0.7244094488188977,
                    "duration": 0.2400000000000002
                },
                {
                    "name": "E4",
                    "midi": 64,
                    "time": 15.846000000000005,
                    "velocity": 0.7244094488188977,
                    "duration": 0.2400000000000002
                },
                {
                    "name": "A1",
                    "midi": 33,
                    "time": 16.086000000000006,
                    "velocity": 0.7244094488188977,
                    "duration": 0.23999999999999844
                },
                {
                    "name": "F3",
                    "midi": 53,
                    "time": 16.326000000000004,
                    "velocity": 0.47244094488188976,
                    "duration": 0.23999999999999844
                },
                {
                    "name": "C4",
                    "midi": 60,
                    "time": 16.326000000000004,
                    "velocity": 0.47244094488188976,
                    "duration": 0.23999999999999844
                },
                {
                    "name": "E4",
                    "midi": 64,
                    "time": 16.326000000000004,
                    "velocity": 0.47244094488188976,
                    "duration": 0.23999999999999844
                },
                {
                    "name": "F2",
                    "midi": 41,
                    "time": 16.566000000000003,
                    "velocity": 0.47244094488188976,
                    "duration": 0.23999999999999844
                },
                {
                    "name": "E3",
                    "midi": 52,
                    "time": 17.046,
                    "velocity": 0.47244094488188976,
                    "duration": 0.23999999999999844
                },
                {
                    "name": "B3",
                    "midi": 59,
                    "time": 17.046,
                    "velocity": 0.47244094488188976,
                    "duration": 0.23999999999999844
                },
                {
                    "name": "D3",
                    "midi": 50,
                    "time": 17.285999999999998,
                    "velocity": 0.48031496062992124,
                    "duration": 0.23999999999999844
                },
                {
                    "name": "A3",
                    "midi": 57,
                    "time": 17.285999999999998,
                    "velocity": 0.48031496062992124,
                    "duration": 0.23999999999999844
                },
                {
                    "name": "D2",
                    "midi": 38,
                    "time": 17.525999999999996,
                    "velocity": 0.4881889763779528,
                    "duration": 0.23999999999999844
                },
                {
                    "name": "C3",
                    "midi": 48,
                    "time": 18.005999999999993,
                    "velocity": 0.5039370078740157,
                    "duration": 0.23999999999999844
                },
                {
                    "name": "D3",
                    "midi": 50,
                    "time": 18.005999999999993,
                    "velocity": 0.5039370078740157,
                    "duration": 0.23999999999999844
                },
                {
                    "name": "F3",
                    "midi": 53,
                    "time": 18.005999999999993,
                    "velocity": 0.5039370078740157,
                    "duration": 0.23999999999999844
                },
                {
                    "name": "B2",
                    "midi": 47,
                    "time": 18.24599999999999,
                    "velocity": 0.5118110236220472,
                    "duration": 0.23999999999999844
                },
                {
                    "name": "E3",
                    "midi": 52,
                    "time": 18.24599999999999,
                    "velocity": 0.5118110236220472,
                    "duration": 0.23999999999999844
                },
                {
                    "name": "G3",
                    "midi": 55,
                    "time": 18.24599999999999,
                    "velocity": 0.5118110236220472,
                    "duration": 0.23999999999999844
                },
                {
                    "name": "B3",
                    "midi": 59,
                    "time": 18.48599999999999,
                    "velocity": 0.5196850393700787,
                    "duration": 0.23999999999999844
                },
                {
                    "name": "C4",
                    "midi": 60,
                    "time": 18.48599999999999,
                    "velocity": 0.5196850393700787,
                    "duration": 0.23999999999999844
                },
                {
                    "name": "E4",
                    "midi": 64,
                    "time": 18.48599999999999,
                    "velocity": 0.5196850393700787,
                    "duration": 0.23999999999999844
                },
                {
                    "name": "A3",
                    "midi": 57,
                    "time": 18.72599999999999,
                    "velocity": 0.5275590551181102,
                    "duration": 0.23999999999999844
                },
                {
                    "name": "C4",
                    "midi": 60,
                    "time": 18.72599999999999,
                    "velocity": 0.5275590551181102,
                    "duration": 0.23999999999999844
                },
                {
                    "name": "D4",
                    "midi": 62,
                    "time": 18.72599999999999,
                    "velocity": 0.5275590551181102,
                    "duration": 0.23999999999999844
                },
                {
                    "name": "F4",
                    "midi": 65,
                    "time": 18.72599999999999,
                    "velocity": 0.5275590551181102,
                    "duration": 0.23999999999999844
                },
                {
                    "name": "G#3",
                    "midi": 56,
                    "time": 18.965999999999987,
                    "velocity": 0.5354330708661418,
                    "duration": 0.23999999999999844
                },
                {
                    "name": "C4",
                    "midi": 60,
                    "time": 18.965999999999987,
                    "velocity": 0.5354330708661418,
                    "duration": 0.23999999999999844
                },
                {
                    "name": "D4",
                    "midi": 62,
                    "time": 18.965999999999987,
                    "velocity": 0.5354330708661418,
                    "duration": 0.23999999999999844
                },
                {
                    "name": "F4",
                    "midi": 65,
                    "time": 18.965999999999987,
                    "velocity": 0.5354330708661418,
                    "duration": 0.23999999999999844
                },
                {
                    "name": "G3",
                    "midi": 55,
                    "time": 19.205999999999985,
                    "velocity": 0.5433070866141733,
                    "duration": 0.23999999999999844
                },
                {
                    "name": "C4",
                    "midi": 60,
                    "time": 19.205999999999985,
                    "velocity": 0.5433070866141733,
                    "duration": 0.23999999999999844
                },
                {
                    "name": "F4",
                    "midi": 65,
                    "time": 19.205999999999985,
                    "velocity": 0.5433070866141733,
                    "duration": 0.23999999999999844
                },
                {
                    "name": "G2",
                    "midi": 43,
                    "time": 19.445999999999984,
                    "velocity": 0.5590551181102362,
                    "duration": 0.23999999999999844
                },
                {
                    "name": "G3",
                    "midi": 55,
                    "time": 19.685999999999982,
                    "velocity": 0.5748031496062992,
                    "duration": 0.23999999999999844
                },
                {
                    "name": "C4",
                    "midi": 60,
                    "time": 19.685999999999982,
                    "velocity": 0.5748031496062992,
                    "duration": 0.23999999999999844
                },
                {
                    "name": "E4",
                    "midi": 64,
                    "time": 19.685999999999982,
                    "velocity": 0.5748031496062992,
                    "duration": 0.23999999999999844
                },
                {
                    "name": "F#2",
                    "midi": 42,
                    "time": 19.92599999999998,
                    "velocity": 0.5905511811023622,
                    "duration": 0.23999999999999844
                },
                {
                    "name": "F2",
                    "midi": 41,
                    "time": 20.16599999999998,
                    "velocity": 0.47244094488188976,
                    "duration": 0.23999999999999844
                },
                {
                    "name": "A3",
                    "midi": 57,
                    "time": 20.405999999999977,
                    "velocity": 0.47244094488188976,
                    "duration": 0.4800000000000004
                },
                {
                    "name": "D#4",
                    "midi": 63,
                    "time": 20.405999999999977,
                    "velocity": 0.47244094488188976,
                    "duration": 0.4800000000000004
                },
                {
                    "name": "A3",
                    "midi": 57,
                    "time": 20.885999999999978,
                    "velocity": 0.47244094488188976,
                    "duration": 0.1999999999999993
                },
                {
                    "name": "D#4",
                    "midi": 63,
                    "time": 20.885999999999978,
                    "velocity": 0.47244094488188976,
                    "duration": 0.1999999999999993
                },
                {
                    "name": "E2",
                    "midi": 40,
                    "time": 21.125999999999976,
                    "velocity": 0.47244094488188976,
                    "duration": 0.23999999999999844
                },
                {
                    "name": "A3",
                    "midi": 57,
                    "time": 21.365999999999975,
                    "velocity": 0.47244094488188976,
                    "duration": 0.6600000000000001
                },
                {
                    "name": "E4",
                    "midi": 64,
                    "time": 21.365999999999975,
                    "velocity": 0.47244094488188976,
                    "duration": 0.6600000000000001
                },
                {
                    "name": "D#3",
                    "midi": 51,
                    "time": 22.085999999999974,
                    "velocity": 0.47244094488188976,
                    "duration": 0.23999999999999844
                },
                {
                    "name": "G3",
                    "midi": 55,
                    "time": 22.085999999999974,
                    "velocity": 0.47244094488188976,
                    "duration": 0.23999999999999844
                },
                {
                    "name": "C4",
                    "midi": 60,
                    "time": 22.085999999999974,
                    "velocity": 0.47244094488188976,
                    "duration": 0.23999999999999844
                },
                {
                    "name": "D3",
                    "midi": 50,
                    "time": 22.325999999999972,
                    "velocity": 0.5905511811023622,
                    "duration": 0.23999999999999844
                },
                {
                    "name": "F#3",
                    "midi": 54,
                    "time": 22.325999999999972,
                    "velocity": 0.5905511811023622,
                    "duration": 0.23999999999999844
                },
                {
                    "name": "C4",
                    "midi": 60,
                    "time": 22.325999999999972,
                    "velocity": 0.5905511811023622,
                    "duration": 0.23999999999999844
                },
                {
                    "name": "A3",
                    "midi": 57,
                    "time": 22.56599999999997,
                    "velocity": 0.7244094488188977,
                    "duration": 0.1999999999999993
                },
                {
                    "name": "C4",
                    "midi": 60,
                    "time": 22.56599999999997,
                    "velocity": 0.7244094488188977,
                    "duration": 0.1999999999999993
                },
                {
                    "name": "F#4",
                    "midi": 66,
                    "time": 22.56599999999997,
                    "velocity": 0.7244094488188977,
                    "duration": 0.1999999999999993
                },
                {
                    "name": "E3",
                    "midi": 52,
                    "time": 22.80599999999997,
                    "velocity": 0.8503937007874016,
                    "duration": 0.23999999999999844
                },
                {
                    "name": "G#3",
                    "midi": 56,
                    "time": 22.80599999999997,
                    "velocity": 0.8503937007874016,
                    "duration": 0.23999999999999844
                },
                {
                    "name": "D4",
                    "midi": 62,
                    "time": 22.80599999999997,
                    "velocity": 0.8503937007874016,
                    "duration": 0.23999999999999844
                },
                {
                    "name": "E3",
                    "midi": 52,
                    "time": 23.045999999999967,
                    "velocity": 0.8503937007874016,
                    "duration": 0.23999999999999844
                },
                {
                    "name": "A3",
                    "midi": 57,
                    "time": 23.045999999999967,
                    "velocity": 0.8503937007874016,
                    "duration": 0.23999999999999844
                },
                {
                    "name": "D4",
                    "midi": 62,
                    "time": 23.045999999999967,
                    "velocity": 0.8503937007874016,
                    "duration": 0.23999999999999844
                },
                {
                    "name": "A2",
                    "midi": 45,
                    "time": 23.285999999999966,
                    "velocity": 0.8503937007874016,
                    "duration": 0.23999999999999844
                },
                {
                    "name": "C#4",
                    "midi": 61,
                    "time": 23.525999999999964,
                    "velocity": 0.8503937007874016,
                    "duration": 0.1999999999999993
                },
                {
                    "name": "E4",
                    "midi": 64,
                    "time": 23.525999999999964,
                    "velocity": 0.8503937007874016,
                    "duration": 0.1999999999999993
                },
                {
                    "name": "A1",
                    "midi": 33,
                    "time": 23.765999999999963,
                    "velocity": 0.8503937007874016,
                    "duration": 0.23999999999999844
                }
            ],
            "controlChanges": {
                "7": [
                    {
                        "number": 7,
                        "time": 0,
                        "value": 1
                    }
                ],
                "10": [
                    {
                        "number": 10,
                        "time": 0,
                        "value": 0.25196850393700787
                    }
                ],
                "64": [
                    {
                        "number": 64,
                        "time": 1.206,
                        "value": 1
                    },
                    {
                        "number": 64,
                        "time": 1.446,
                        "value": 0
                    },
                    {
                        "number": 64,
                        "time": 1.686,
                        "value": 1
                    },
                    {
                        "number": 64,
                        "time": 1.926,
                        "value": 0
                    },
                    {
                        "number": 64,
                        "time": 2.166,
                        "value": 1
                    },
                    {
                        "number": 64,
                        "time": 2.286,
                        "value": 0
                    },
                    {
                        "number": 64,
                        "time": 2.615999999999999,
                        "value": 1
                    },
                    {
                        "number": 64,
                        "time": 2.765999999999999,
                        "value": 0
                    },
                    {
                        "number": 64,
                        "time": 3.1259999999999994,
                        "value": 1
                    },
                    {
                        "number": 64,
                        "time": 3.606,
                        "value": 0
                    },
                    {
                        "number": 64,
                        "time": 4.086,
                        "value": 1
                    },
                    {
                        "number": 64,
                        "time": 4.806000000000001,
                        "value": 0
                    },
                    {
                        "number": 64,
                        "time": 5.046000000000001,
                        "value": 1
                    },
                    {
                        "number": 64,
                        "time": 5.286000000000001,
                        "value": 0
                    },
                    {
                        "number": 64,
                        "time": 5.466000000000001,
                        "value": 1
                    },
                    {
                        "number": 64,
                        "time": 5.766000000000002,
                        "value": 0
                    },
                    {
                        "number": 64,
                        "time": 5.9460000000000015,
                        "value": 1
                    },
                    {
                        "number": 64,
                        "time": 6.246000000000002,
                        "value": 0
                    },
                    {
                        "number": 64,
                        "time": 6.966000000000002,
                        "value": 1
                    },
                    {
                        "number": 64,
                        "time": 7.446000000000002,
                        "value": 0
                    },
                    {
                        "number": 64,
                        "time": 7.926000000000002,
                        "value": 1
                    },
                    {
                        "number": 64,
                        "time": 8.646000000000003,
                        "value": 0
                    },
                    {
                        "number": 64,
                        "time": 9.846000000000004,
                        "value": 1
                    },
                    {
                        "number": 64,
                        "time": 10.086000000000004,
                        "value": 0
                    },
                    {
                        "number": 64,
                        "time": 10.326000000000004,
                        "value": 1
                    },
                    {
                        "number": 64,
                        "time": 10.566000000000004,
                        "value": 0
                    },
                    {
                        "number": 64,
                        "time": 10.806000000000004,
                        "value": 1
                    },
                    {
                        "number": 64,
                        "time": 11.046000000000005,
                        "value": 0
                    },
                    {
                        "number": 64,
                        "time": 11.286000000000005,
                        "value": 1
                    },
                    {
                        "number": 64,
                        "time": 11.526000000000005,
                        "value": 0
                    },
                    {
                        "number": 64,
                        "time": 11.766000000000005,
                        "value": 1
                    },
                    {
                        "number": 64,
                        "time": 12.006000000000006,
                        "value": 0
                    },
                    {
                        "number": 64,
                        "time": 12.246000000000006,
                        "value": 1
                    },
                    {
                        "number": 64,
                        "time": 12.486000000000006,
                        "value": 0
                    },
                    {
                        "number": 64,
                        "time": 12.726000000000006,
                        "value": 1
                    },
                    {
                        "number": 64,
                        "time": 13.146000000000006,
                        "value": 0
                    },
                    {
                        "number": 64,
                        "time": 13.206000000000007,
                        "value": 1
                    },
                    {
                        "number": 64,
                        "time": 13.686000000000005,
                        "value": 1
                    },
                    {
                        "number": 64,
                        "time": 14.406000000000006,
                        "value": 0
                    },
                    {
                        "number": 64,
                        "time": 14.886000000000006,
                        "value": 1
                    },
                    {
                        "number": 64,
                        "time": 15.126000000000005,
                        "value": 0
                    },
                    {
                        "number": 64,
                        "time": 15.606000000000005,
                        "value": 1
                    },
                    {
                        "number": 64,
                        "time": 16.326000000000004,
                        "value": 0
                    },
                    {
                        "number": 64,
                        "time": 16.566000000000003,
                        "value": 1
                    },
                    {
                        "number": 64,
                        "time": 16.806,
                        "value": 0
                    },
                    {
                        "number": 64,
                        "time": 17.525999999999996,
                        "value": 1
                    },
                    {
                        "number": 64,
                        "time": 18.005999999999993,
                        "value": 0
                    },
                    {
                        "number": 64,
                        "time": 18.48599999999999,
                        "value": 1
                    },
                    {
                        "number": 64,
                        "time": 18.72599999999999,
                        "value": 0
                    },
                    {
                        "number": 64,
                        "time": 19.445999999999984,
                        "value": 1
                    },
                    {
                        "number": 64,
                        "time": 19.685999999999982,
                        "value": 0
                    },
                    {
                        "number": 64,
                        "time": 19.92599999999998,
                        "value": 1
                    },
                    {
                        "number": 64,
                        "time": 20.16599999999998,
                        "value": 0
                    },
                    {
                        "number": 64,
                        "time": 20.405999999999977,
                        "value": 1
                    },
                    {
                        "number": 64,
                        "time": 21.125999999999976,
                        "value": 0
                    },
                    {
                        "number": 64,
                        "time": 21.365999999999975,
                        "value": 1
                    },
                    {
                        "number": 64,
                        "time": 22.085999999999974,
                        "value": 0
                    },
                    {
                        "number": 64,
                        "time": 22.56599999999997,
                        "value": 1
                    },
                    {
                        "number": 64,
                        "time": 22.80599999999997,
                        "value": 0
                    },
                    {
                        "number": 64,
                        "time": 23.285999999999966,
                        "value": 1
                    },
                    {
                        "number": 64,
                        "time": 23.525999999999964,
                        "value": 0
                    },
                    {
                        "number": 64,
                        "time": 23.765999999999963,
                        "value": 1
                    },
                    {
                        "number": 64,
                        "time": 24.00599999999996,
                        "value": 0
                    }
                ],
                "91": [
                    {
                        "number": 91,
                        "time": 0.246,
                        "value": 0.3779527559055118
                    }
                ],
                "93": [
                    {
                        "number": 93,
                        "time": 0.366,
                        "value": 0
                    }
                ],
                "121": [
                    {
                        "number": 121,
                        "time": 0.006,
                        "value": 0
                    },
                    {
                        "number": 121,
                        "time": 24.48599999999996,
                        "value": 0
                    }
                ]
            },
            "id": 2,
            "name": "Left Hand",
            "instrumentNumber": 0,
            "instrument": "acoustic grand piano",
            "instrumentFamily": "piano",
            "channelNumber": 1,
            "isPercussion": false
        },
        {
            "startTime": 0,
            "duration": 0,
            "length": 0,
            "notes": [],
            "controlChanges": {},
            "id": 3,
            "name": "Roumanian Folk Dances (1918)"
        },
        {
            "startTime": 0,
            "duration": 0,
            "length": 0,
            "notes": [],
            "controlChanges": {},
            "id": 4,
            "name": "1. Der Tanz mit dem Stabe"
        },
        {
            "startTime": 0,
            "duration": 0,
            "length": 0,
            "notes": [],
            "controlChanges": {},
            "id": 5,
            "name": "Bela Bartok (1881-1945)"
        },
        {
            "startTime": 0,
            "duration": 0,
            "length": 0,
            "notes": [],
            "controlChanges": {},
            "id": 6,
            "name": "seq (c) 1998 by Ramon Pajares Box"
        },
        {
            "startTime": 0,
            "duration": 0,
            "length": 0,
            "notes": [],
            "controlChanges": {},
            "id": 7,
            "name": "rpajares@nilsl.net"
        },
        {
            "startTime": 0,
            "duration": 0,
            "length": 0,
            "notes": [],
            "controlChanges": {},
            "id": 8
        }
    ]
}