{
    "header": {
        "PPQ": 120,
        "timeSignature": [
            2,
            4
        ],
        "bpm": 250,
        "name": "2. Braul."
    },
    "startTime": 0,
    "duration": 16.265999999999995,
    "tracks": [
        {
            "startTime": 0,
            "duration": 0,
            "length": 0,
            "notes": [],
            "controlChanges": {},
            "id": 0,
            "name": "2. Braul."
        },
        {
            "startTime": 0.48,
            "duration": 16.25999999999998,
            "length": 108,
            "notes": [
                {
                    "name": "D4",
                    "midi": 62,
                    "time": 0.48,
                    "velocity": 0.47244094488188976,
                    "duration": 0.040000000000000036
                },
                {
                    "name": "E4",
                    "midi": 64,
                    "time": 0.6,
                    "velocity": 0.47244094488188976,
                    "duration": 0.040000000000000036
                },
                {
                    "name": "F4",
                    "midi": 65,
                    "time": 0.72,
                    "velocity": 0.47244094488188976,
                    "duration": 0.040000000000000036
                },
                {
                    "name": "G4",
                    "midi": 67,
                    "time": 0.84,
                    "velocity": 0.47244094488188976,
                    "duration": 0.040000000000000036
                },
                {
                    "name": "A4",
                    "midi": 69,
                    "time": 0.96,
                    "velocity": 0.47244094488188976,
                    "duration": 0.040000000000000036
                },
                {
                    "name": "G4",
                    "midi": 67,
                    "time": 1.08,
                    "velocity": 0.47244094488188976,
                    "duration": 0.040000000000000036
                },
                {
                    "name": "D4",
                    "midi": 62,
                    "time": 1.2000000000000002,
                    "velocity": 0.47244094488188976,
                    "duration": 0.040000000000000036
                },
                {
                    "name": "G4",
                    "midi": 67,
                    "time": 1.3200000000000003,
                    "velocity": 0.47244094488188976,
                    "duration": 0.040000000000000036
                },
                {
                    "name": "A4",
                    "midi": 69,
                    "time": 1.4400000000000004,
                    "velocity": 0.47244094488188976,
                    "duration": 0.06000000000000005
                },
                {
                    "name": "A4",
                    "midi": 69,
                    "time": 1.6800000000000004,
                    "velocity": 0.47244094488188976,
                    "duration": 0.040000000000000036
                },
                {
                    "name": "B4",
                    "midi": 71,
                    "time": 1.8600000000000003,
                    "velocity": 0.47244094488188976,
                    "duration": 0.06000000000000005
                },
                {
                    "name": "A4",
                    "midi": 69,
                    "time": 1.9200000000000004,
                    "velocity": 0.47244094488188976,
                    "duration": 0.41999999999999993
                },
                {
                    "name": "G4",
                    "midi": 67,
                    "time": 2.4000000000000004,
                    "velocity": 0.47244094488188976,
                    "duration": 0.040000000000000036
                },
                {
                    "name": "A4",
                    "midi": 69,
                    "time": 2.5200000000000005,
                    "velocity": 0.5354330708661418,
                    "duration": 0.040000000000000036
                },
                {
                    "name": "B4",
                    "midi": 71,
                    "time": 2.6400000000000006,
                    "velocity": 0.5984251968503937,
                    "duration": 0.040000000000000036
                },
                {
                    "name": "G4",
                    "midi": 67,
                    "time": 2.7600000000000007,
                    "velocity": 0.6614173228346457,
                    "duration": 0.040000000000000036
                },
                {
                    "name": "C5",
                    "midi": 72,
                    "time": 2.880000000000001,
                    "velocity": 0.7244094488188977,
                    "duration": 0.2400000000000002
                },
                {
                    "name": "C5",
                    "midi": 72,
                    "time": 3.120000000000001,
                    "velocity": 0.7244094488188977,
                    "duration": 0.06000000000000005
                },
                {
                    "name": "B4",
                    "midi": 71,
                    "time": 3.180000000000001,
                    "velocity": 0.7086614173228346,
                    "duration": 0.06000000000000005
                },
                {
                    "name": "A4",
                    "midi": 69,
                    "time": 3.240000000000001,
                    "velocity": 0.6929133858267716,
                    "duration": 0.040000000000000036
                },
                {
                    "name": "G4",
                    "midi": 67,
                    "time": 3.280000000000001,
                    "velocity": 0.6850393700787402,
                    "duration": 0.040000000000000036
                },
                {
                    "name": "F4",
                    "midi": 65,
                    "time": 3.320000000000001,
                    "velocity": 0.6771653543307087,
                    "duration": 0.040000000000000036
                },
                {
                    "name": "G4",
                    "midi": 67,
                    "time": 3.360000000000001,
                    "velocity": 0.6692913385826772,
                    "duration": 0.06000000000000005
                },
                {
                    "name": "G4",
                    "midi": 67,
                    "time": 3.6000000000000014,
                    "velocity": 0.5905511811023622,
                    "duration": 0.040000000000000036
                },
                {
                    "name": "A4",
                    "midi": 69,
                    "time": 3.7800000000000016,
                    "velocity": 0.5905511811023622,
                    "duration": 0.06000000000000005
                },
                {
                    "name": "G4",
                    "midi": 67,
                    "time": 3.8400000000000016,
                    "velocity": 0.5905511811023622,
                    "duration": 0.41999999999999993
                },
                {
                    "name": "G4",
                    "midi": 67,
                    "time": 4.320000000000001,
                    "velocity": 0.5905511811023622,
                    "duration": 0.040000000000000036
                },
                {
                    "name": "A4",
                    "midi": 69,
                    "time": 4.440000000000001,
                    "velocity": 0.6141732283464567,
                    "duration": 0.040000000000000036
                },
                {
                    "name": "B4",
                    "midi": 71,
                    "time": 4.560000000000001,
                    "velocity": 0.6377952755905512,
                    "duration": 0.040000000000000036
                },
                {
                    "name": "G4",
                    "midi": 67,
                    "time": 4.6800000000000015,
                    "velocity": 0.6614173228346457,
                    "duration": 0.040000000000000036
                },
                {
                    "name": "C5",
                    "midi": 72,
                    "time": 4.800000000000002,
                    "velocity": 0.6850393700787402,
                    "duration": 0.2400000000000002
                },
                {
                    "name": "C5",
                    "midi": 72,
                    "time": 5.040000000000002,
                    "velocity": 0.7401574803149606,
                    "duration": 0.05999999999999961
                },
                {
                    "name": "B4",
                    "midi": 71,
                    "time": 5.100000000000001,
                    "velocity": 0.7480314960629921,
                    "duration": 0.05999999999999961
                },
                {
                    "name": "A4",
                    "midi": 69,
                    "time": 5.160000000000001,
                    "velocity": 0.7559055118110236,
                    "duration": 0.05999999999999961
                },
                {
                    "name": "G4",
                    "midi": 67,
                    "time": 5.220000000000001,
                    "velocity": 0.7716535433070866,
                    "duration": 0.05999999999999961
                },
                {
                    "name": "F4",
                    "midi": 65,
                    "time": 5.28,
                    "velocity": 1,
                    "duration": 0.1200000000000001
                },
                {
                    "name": "E4",
                    "midi": 64,
                    "time": 5.4,
                    "velocity": 0.8188976377952756,
                    "duration": 0.11800000000000033
                },
                {
                    "name": "F4",
                    "midi": 65,
                    "time": 5.5200000000000005,
                    "velocity": 0.8503937007874016,
                    "duration": 0.040000000000000036
                },
                {
                    "name": "G4",
                    "midi": 67,
                    "time": 5.640000000000001,
                    "velocity": 0.8503937007874016,
                    "duration": 0.040000000000000036
                },
                {
                    "name": "F4",
                    "midi": 65,
                    "time": 5.760000000000001,
                    "velocity": 0.8503937007874016,
                    "duration": 0.040000000000000036
                },
                {
                    "name": "E4",
                    "midi": 64,
                    "time": 5.880000000000001,
                    "velocity": 0.7874015748031497,
                    "duration": 0.040000000000000036
                },
                {
                    "name": "D4",
                    "midi": 62,
                    "time": 6.000000000000001,
                    "velocity": 0.7244094488188977,
                    "duration": 0.2400000000000002
                },
                {
                    "name": "D4",
                    "midi": 62,
                    "time": 6.240000000000001,
                    "velocity": 0.5905511811023622,
                    "duration": 0.040000000000000036
                },
                {
                    "name": "E4",
                    "midi": 64,
                    "time": 6.360000000000001,
                    "velocity": 0.5905511811023622,
                    "duration": 0.040000000000000036
                },
                {
                    "name": "F4",
                    "midi": 65,
                    "time": 6.480000000000001,
                    "velocity": 0.5905511811023622,
                    "duration": 0.040000000000000036
                },
                {
                    "name": "A4",
                    "midi": 69,
                    "time": 6.600000000000001,
                    "velocity": 0.5905511811023622,
                    "duration": 0.040000000000000036
                },
                {
                    "name": "G4",
                    "midi": 67,
                    "time": 6.7200000000000015,
                    "velocity": 0.5905511811023622,
                    "duration": 0.040000000000000036
                },
                {
                    "name": "F4",
                    "midi": 65,
                    "time": 6.840000000000002,
                    "velocity": 0.5905511811023622,
                    "duration": 0.040000000000000036
                },
                {
                    "name": "E4",
                    "midi": 64,
                    "time": 6.960000000000002,
                    "velocity": 0.5905511811023622,
                    "duration": 0.040000000000000036
                },
                {
                    "name": "F4",
                    "midi": 65,
                    "time": 7.080000000000002,
                    "velocity": 0.5905511811023622,
                    "duration": 0.040000000000000036
                },
                {
                    "name": "D4",
                    "midi": 62,
                    "time": 7.200000000000002,
                    "velocity": 0.5905511811023622,
                    "duration": 0.05999999999999961
                },
                {
                    "name": "D4",
                    "midi": 62,
                    "time": 7.440000000000001,
                    "velocity": 0.5905511811023622,
                    "duration": 0.040000000000000036
                },
                {
                    "name": "A3",
                    "midi": 57,
                    "time": 7.620000000000001,
                    "velocity": 0.5905511811023622,
                    "duration": 0.05999999999999961
                },
                {
                    "name": "D4",
                    "midi": 62,
                    "time": 7.680000000000001,
                    "velocity": 0.5905511811023622,
                    "duration": 0.4200000000000008
                },
                {
                    "name": "D4",
                    "midi": 62,
                    "time": 8.639999999999999,
                    "velocity": 0.47244094488188976,
                    "duration": 0.03999999999999915
                },
                {
                    "name": "E4",
                    "midi": 64,
                    "time": 8.759999999999998,
                    "velocity": 0.47244094488188976,
                    "duration": 0.03999999999999915
                },
                {
                    "name": "F4",
                    "midi": 65,
                    "time": 8.879999999999997,
                    "velocity": 0.47244094488188976,
                    "duration": 0.03999999999999915
                },
                {
                    "name": "G4",
                    "midi": 67,
                    "time": 8.999999999999996,
                    "velocity": 0.47244094488188976,
                    "duration": 0.03999999999999915
                },
                {
                    "name": "A4",
                    "midi": 69,
                    "time": 9.119999999999996,
                    "velocity": 0.47244094488188976,
                    "duration": 0.03999999999999915
                },
                {
                    "name": "G4",
                    "midi": 67,
                    "time": 9.239999999999995,
                    "velocity": 0.47244094488188976,
                    "duration": 0.03999999999999915
                },
                {
                    "name": "D4",
                    "midi": 62,
                    "time": 9.359999999999994,
                    "velocity": 0.47244094488188976,
                    "duration": 0.03999999999999915
                },
                {
                    "name": "G4",
                    "midi": 67,
                    "time": 9.479999999999993,
                    "velocity": 0.47244094488188976,
                    "duration": 0.03999999999999915
                },
                {
                    "name": "A4",
                    "midi": 69,
                    "time": 9.599999999999993,
                    "velocity": 0.47244094488188976,
                    "duration": 0.0600000000000005
                },
                {
                    "name": "A4",
                    "midi": 69,
                    "time": 9.839999999999993,
                    "velocity": 0.47244094488188976,
                    "duration": 0.03999999999999915
                },
                {
                    "name": "B4",
                    "midi": 71,
                    "time": 10.019999999999992,
                    "velocity": 0.47244094488188976,
                    "duration": 0.0600000000000005
                },
                {
                    "name": "A4",
                    "midi": 69,
                    "time": 10.079999999999993,
                    "velocity": 0.47244094488188976,
                    "duration": 0.41999999999999993
                },
                {
                    "name": "G4",
                    "midi": 67,
                    "time": 10.559999999999993,
                    "velocity": 0.47244094488188976,
                    "duration": 0.03999999999999915
                },
                {
                    "name": "A4",
                    "midi": 69,
                    "time": 10.679999999999993,
                    "velocity": 0.5354330708661418,
                    "duration": 0.03999999999999915
                },
                {
                    "name": "B4",
                    "midi": 71,
                    "time": 10.799999999999992,
                    "velocity": 0.5984251968503937,
                    "duration": 0.03999999999999915
                },
                {
                    "name": "G4",
                    "midi": 67,
                    "time": 10.919999999999991,
                    "velocity": 0.6614173228346457,
                    "duration": 0.03999999999999915
                },
                {
                    "name": "C5",
                    "midi": 72,
                    "time": 11.03999999999999,
                    "velocity": 0.7244094488188977,
                    "duration": 0.2400000000000002
                },
                {
                    "name": "C5",
                    "midi": 72,
                    "time": 11.27999999999999,
                    "velocity": 0.7244094488188977,
                    "duration": 0.0600000000000005
                },
                {
                    "name": "B4",
                    "midi": 71,
                    "time": 11.339999999999991,
                    "velocity": 0.7086614173228346,
                    "duration": 0.0600000000000005
                },
                {
                    "name": "A4",
                    "midi": 69,
                    "time": 11.399999999999991,
                    "velocity": 0.6929133858267716,
                    "duration": 0.03999999999999915
                },
                {
                    "name": "G4",
                    "midi": 67,
                    "time": 11.43999999999999,
                    "velocity": 0.6850393700787402,
                    "duration": 0.03999999999999915
                },
                {
                    "name": "F4",
                    "midi": 65,
                    "time": 11.47999999999999,
                    "velocity": 0.6771653543307087,
                    "duration": 0.03999999999999915
                },
                {
                    "name": "G4",
                    "midi": 67,
                    "time": 11.519999999999989,
                    "velocity": 0.6692913385826772,
                    "duration": 0.0600000000000005
                },
                {
                    "name": "G4",
                    "midi": 67,
                    "time": 11.75999999999999,
                    "velocity": 0.5905511811023622,
                    "duration": 0.03999999999999915
                },
                {
                    "name": "A4",
                    "midi": 69,
                    "time": 11.939999999999989,
                    "velocity": 0.5905511811023622,
                    "duration": 0.0600000000000005
                },
                {
                    "name": "G4",
                    "midi": 67,
                    "time": 11.99999999999999,
                    "velocity": 0.5905511811023622,
                    "duration": 0.41999999999999993
                },
                {
                    "name": "G4",
                    "midi": 67,
                    "time": 12.47999999999999,
                    "velocity": 0.5905511811023622,
                    "duration": 0.03999999999999915
                },
                {
                    "name": "A4",
                    "midi": 69,
                    "time": 12.599999999999989,
                    "velocity": 0.6141732283464567,
                    "duration": 0.03999999999999915
                },
                {
                    "name": "B4",
                    "midi": 71,
                    "time": 12.719999999999988,
                    "velocity": 0.6377952755905512,
                    "duration": 0.03999999999999915
                },
                {
                    "name": "G4",
                    "midi": 67,
                    "time": 12.839999999999987,
                    "velocity": 0.6614173228346457,
                    "duration": 0.03999999999999915
                },
                {
                    "name": "C5",
                    "midi": 72,
                    "time": 12.959999999999987,
                    "velocity": 0.6850393700787402,
                    "duration": 0.2400000000000002
                },
                {
                    "name": "C5",
                    "midi": 72,
                    "time": 13.199999999999987,
                    "velocity": 0.7401574803149606,
                    "duration": 0.0600000000000005
                },
                {
                    "name": "B4",
                    "midi": 71,
                    "time": 13.259999999999987,
                    "velocity": 0.7480314960629921,
                    "duration": 0.0600000000000005
                },
                {
                    "name": "A4",
                    "midi": 69,
                    "time": 13.319999999999988,
                    "velocity": 0.7559055118110236,
                    "duration": 0.0600000000000005
                },
                {
                    "name": "G4",
                    "midi": 67,
                    "time": 13.379999999999988,
                    "velocity": 0.7716535433070866,
                    "duration": 0.0600000000000005
                },
                {
                    "name": "F4",
                    "midi": 65,
                    "time": 13.439999999999989,
                    "velocity": 1,
                    "duration": 0.11999999999999922
                },
                {
                    "name": "E4",
                    "midi": 64,
                    "time": 13.559999999999988,
                    "velocity": 0.8188976377952756,
                    "duration": 0.11800000000000033
                },
                {
                    "name": "F4",
                    "midi": 65,
                    "time": 13.679999999999989,
                    "velocity": 0.8503937007874016,
                    "duration": 0.03999999999999915
                },
                {
                    "name": "G4",
                    "midi": 67,
                    "time": 13.799999999999988,
                    "velocity": 0.8503937007874016,
                    "duration": 0.03999999999999915
                },
                {
                    "name": "F4",
                    "midi": 65,
                    "time": 13.919999999999987,
                    "velocity": 0.8503937007874016,
                    "duration": 0.03999999999999915
                },
                {
                    "name": "E4",
                    "midi": 64,
                    "time": 14.039999999999987,
                    "velocity": 0.7874015748031497,
                    "duration": 0.03999999999999915
                },
                {
                    "name": "D4",
                    "midi": 62,
                    "time": 14.159999999999986,
                    "velocity": 0.7244094488188977,
                    "duration": 0.2400000000000002
                },
                {
                    "name": "D4",
                    "midi": 62,
                    "time": 14.399999999999986,
                    "velocity": 0.5905511811023622,
                    "duration": 0.03999999999999915
                },
                {
                    "name": "E4",
                    "midi": 64,
                    "time": 14.519999999999985,
                    "velocity": 0.5905511811023622,
                    "duration": 0.03999999999999915
                },
                {
                    "name": "F4",
                    "midi": 65,
                    "time": 14.639999999999985,
                    "velocity": 0.5905511811023622,
                    "duration": 0.03999999999999915
                },
                {
                    "name": "A4",
                    "midi": 69,
                    "time": 14.759999999999984,
                    "velocity": 0.5905511811023622,
                    "duration": 0.03999999999999915
                },
                {
                    "name": "G4",
                    "midi": 67,
                    "time": 14.879999999999983,
                    "velocity": 0.5905511811023622,
                    "duration": 0.03999999999999915
                },
                {
                    "name": "F4",
                    "midi": 65,
                    "time": 14.999999999999982,
                    "velocity": 0.5905511811023622,
                    "duration": 0.03999999999999915
                },
                {
                    "name": "E4",
                    "midi": 64,
                    "time": 15.119999999999981,
                    "velocity": 0.5905511811023622,
                    "duration": 0.03999999999999915
                },
                {
                    "name": "F4",
                    "midi": 65,
                    "time": 15.23999999999998,
                    "velocity": 0.5905511811023622,
                    "duration": 0.03999999999999915
                },
                {
                    "name": "D4",
                    "midi": 62,
                    "time": 15.35999999999998,
                    "velocity": 0.5905511811023622,
                    "duration": 0.0600000000000005
                },
                {
                    "name": "D4",
                    "midi": 62,
                    "time": 15.59999999999998,
                    "velocity": 0.5905511811023622,
                    "duration": 0.03999999999999915
                },
                {
                    "name": "A3",
                    "midi": 57,
                    "time": 15.77999999999998,
                    "velocity": 0.5905511811023622,
                    "duration": 0.0600000000000005
                },
                {
                    "name": "D4",
                    "midi": 62,
                    "time": 15.83999999999998,
                    "velocity": 0.5905511811023622,
                    "duration": 0.41999999999999993
                }
            ],
            "controlChanges": {
                "7": [
                    {
                        "number": 7,
                        "time": 0,
                        "value": 1
                    },
                    {
                        "number": 7,
                        "time": 8.160000000000002,
                        "value": 0
                    },
                    {
                        "number": 7,
                        "time": 8.4,
                        "value": 0
                    },
                    {
                        "number": 7,
                        "time": 8.52,
                        "value": 1
                    }
                ],
                "10": [
                    {
                        "number": 10,
                        "time": 0,
                        "value": 0.7559055118110236
                    }
                ],
                "64": [
                    {
                        "number": 64,
                        "time": 0.6,
                        "value": 1
                    },
                    {
                        "number": 64,
                        "time": 0.96,
                        "value": 0
                    },
                    {
                        "number": 64,
                        "time": 1.08,
                        "value": 1
                    },
                    {
                        "number": 64,
                        "time": 1.4400000000000004,
                        "value": 0
                    },
                    {
                        "number": 64,
                        "time": 1.6800000000000004,
                        "value": 1
                    },
                    {
                        "number": 64,
                        "time": 2.4000000000000004,
                        "value": 0
                    },
                    {
                        "number": 64,
                        "time": 2.5200000000000005,
                        "value": 1
                    },
                    {
                        "number": 64,
                        "time": 2.880000000000001,
                        "value": 0
                    },
                    {
                        "number": 64,
                        "time": 3.120000000000001,
                        "value": 1
                    },
                    {
                        "number": 64,
                        "time": 3.360000000000001,
                        "value": 0
                    },
                    {
                        "number": 64,
                        "time": 3.6000000000000014,
                        "value": 1
                    },
                    {
                        "number": 64,
                        "time": 4.320000000000001,
                        "value": 0
                    },
                    {
                        "number": 64,
                        "time": 4.440000000000001,
                        "value": 1
                    },
                    {
                        "number": 64,
                        "time": 4.800000000000002,
                        "value": 0
                    },
                    {
                        "number": 64,
                        "time": 5.040000000000002,
                        "value": 1
                    },
                    {
                        "number": 64,
                        "time": 5.28,
                        "value": 0
                    },
                    {
                        "number": 64,
                        "time": 6.360000000000001,
                        "value": 1
                    },
                    {
                        "number": 64,
                        "time": 6.7200000000000015,
                        "value": 0
                    },
                    {
                        "number": 64,
                        "time": 6.840000000000002,
                        "value": 1
                    },
                    {
                        "number": 64,
                        "time": 7.200000000000002,
                        "value": 0
                    },
                    {
                        "number": 64,
                        "time": 7.440000000000001,
                        "value": 1
                    },
                    {
                        "number": 64,
                        "time": 8.160000000000002,
                        "value": 0
                    },
                    {
                        "number": 64,
                        "time": 8.759999999999998,
                        "value": 1
                    },
                    {
                        "number": 64,
                        "time": 9.119999999999996,
                        "value": 0
                    },
                    {
                        "number": 64,
                        "time": 9.239999999999995,
                        "value": 1
                    },
                    {
                        "number": 64,
                        "time": 9.599999999999993,
                        "value": 0
                    },
                    {
                        "number": 64,
                        "time": 9.839999999999993,
                        "value": 1
                    },
                    {
                        "number": 64,
                        "time": 10.559999999999993,
                        "value": 0
                    },
                    {
                        "number": 64,
                        "time": 10.679999999999993,
                        "value": 1
                    },
                    {
                        "number": 64,
                        "time": 11.03999999999999,
                        "value": 0
                    },
                    {
                        "number": 64,
                        "time": 11.27999999999999,
                        "value": 1
                    },
                    {
                        "number": 64,
                        "time": 11.519999999999989,
                        "value": 0
                    },
                    {
                        "number": 64,
                        "time": 11.75999999999999,
                        "value": 1
                    },
                    {
                        "number": 64,
                        "time": 12.47999999999999,
                        "value": 0
                    },
                    {
                        "number": 64,
                        "time": 12.599999999999989,
                        "value": 1
                    },
                    {
                        "number": 64,
                        "time": 12.959999999999987,
                        "value": 0
                    },
                    {
                        "number": 64,
                        "time": 13.199999999999987,
                        "value": 1
                    },
                    {
                        "number": 64,
                        "time": 13.439999999999989,
                        "value": 0
                    },
                    {
                        "number": 64,
                        "time": 14.519999999999985,
                        "value": 1
                    },
                    {
                        "number": 64,
                        "time": 14.879999999999983,
                        "value": 0
                    },
                    {
                        "number": 64,
                        "time": 14.999999999999982,
                        "value": 1
                    },
                    {
                        "number": 64,
                        "time": 15.35999999999998,
                        "value": 0
                    },
                    {
                        "number": 64,
                        "time": 15.59999999999998,
                        "value": 1
                    },
                    {
                        "number": 64,
                        "time": 16.31999999999998,
                        "value": 0
                    }
                ],
                "91": [
                    {
                        "number": 91,
                        "time": 0.24,
                        "value": 0.3779527559055118
                    }
                ],
                "93": [
                    {
                        "number": 93,
                        "time": 0.36,
                        "value": 0
                    }
                ],
                "121": [
                    {
                        "number": 121,
                        "time": 0,
                        "value": 0
                    },
                    {
                        "number": 121,
                        "time": 16.31999999999998,
                        "value": 0
                    }
                ]
            },
            "id": 1,
            "name": "Right Hand",
            "instrumentNumber": 0,
            "instrument": "acoustic grand piano",
            "instrumentFamily": "piano",
            "channelNumber": 0,
            "isPercussion": false
        },
        {
            "startTime": 0.486,
            "duration": 16.265999999999995,
            "length": 104,
            "notes": [
                {
                    "name": "D2",
                    "midi": 38,
                    "time": 0.486,
                    "velocity": 0.47244094488188976,
                    "duration": 0.06000000000000005
                },
                {
                    "name": "F3",
                    "midi": 53,
                    "time": 0.726,
                    "velocity": 0.47244094488188976,
                    "duration": 0.06000000000000005
                },
                {
                    "name": "A3",
                    "midi": 57,
                    "time": 0.726,
                    "velocity": 0.47244094488188976,
                    "duration": 0.06000000000000005
                },
                {
                    "name": "D2",
                    "midi": 38,
                    "time": 0.966,
                    "velocity": 0.47244094488188976,
                    "duration": 0.06000000000000005
                },
                {
                    "name": "G3",
                    "midi": 55,
                    "time": 1.206,
                    "velocity": 0.47244094488188976,
                    "duration": 0.06000000000000005
                },
                {
                    "name": "B3",
                    "midi": 59,
                    "time": 1.206,
                    "velocity": 0.47244094488188976,
                    "duration": 0.06000000000000005
                },
                {
                    "name": "D2",
                    "midi": 38,
                    "time": 1.446,
                    "velocity": 0.47244094488188976,
                    "duration": 0.06000000000000005
                },
                {
                    "name": "A3",
                    "midi": 57,
                    "time": 1.686,
                    "velocity": 0.47244094488188976,
                    "duration": 0.06000000000000005
                },
                {
                    "name": "D4",
                    "midi": 62,
                    "time": 1.686,
                    "velocity": 0.47244094488188976,
                    "duration": 0.06000000000000005
                },
                {
                    "name": "F4",
                    "midi": 65,
                    "time": 1.686,
                    "velocity": 0.47244094488188976,
                    "duration": 0.06000000000000005
                },
                {
                    "name": "A3",
                    "midi": 57,
                    "time": 1.926,
                    "velocity": 0.47244094488188976,
                    "duration": 0.42000000000000015
                },
                {
                    "name": "D4",
                    "midi": 62,
                    "time": 1.926,
                    "velocity": 0.47244094488188976,
                    "duration": 0.42000000000000015
                },
                {
                    "name": "F4",
                    "midi": 65,
                    "time": 1.926,
                    "velocity": 0.47244094488188976,
                    "duration": 0.42000000000000015
                },
                {
                    "name": "G2",
                    "midi": 43,
                    "time": 2.406,
                    "velocity": 0.47244094488188976,
                    "duration": 0.06000000000000005
                },
                {
                    "name": "D4",
                    "midi": 62,
                    "time": 2.6460000000000004,
                    "velocity": 0.7244094488188977,
                    "duration": 0.06000000000000005
                },
                {
                    "name": "F4",
                    "midi": 65,
                    "time": 2.6460000000000004,
                    "velocity": 0.7244094488188977,
                    "duration": 0.06000000000000005
                },
                {
                    "name": "A2",
                    "midi": 45,
                    "time": 2.8860000000000006,
                    "velocity": 0.7244094488188977,
                    "duration": 0.06000000000000005
                },
                {
                    "name": "C4",
                    "midi": 60,
                    "time": 3.126000000000001,
                    "velocity": 0.7244094488188977,
                    "duration": 0.06000000000000005
                },
                {
                    "name": "F4",
                    "midi": 65,
                    "time": 3.126000000000001,
                    "velocity": 0.7244094488188977,
                    "duration": 0.06000000000000005
                },
                {
                    "name": "G2",
                    "midi": 43,
                    "time": 3.366000000000001,
                    "velocity": 0.5905511811023622,
                    "duration": 0.06000000000000005
                },
                {
                    "name": "C4",
                    "midi": 60,
                    "time": 3.606000000000001,
                    "velocity": 0.47244094488188976,
                    "duration": 0.06000000000000005
                },
                {
                    "name": "D4",
                    "midi": 62,
                    "time": 3.606000000000001,
                    "velocity": 0.47244094488188976,
                    "duration": 0.06000000000000005
                },
                {
                    "name": "B3",
                    "midi": 59,
                    "time": 3.8460000000000014,
                    "velocity": 0.47244094488188976,
                    "duration": 0.4200000000000004
                },
                {
                    "name": "D4",
                    "midi": 62,
                    "time": 3.8460000000000014,
                    "velocity": 0.47244094488188976,
                    "duration": 0.4200000000000004
                },
                {
                    "name": "F2",
                    "midi": 41,
                    "time": 4.326000000000001,
                    "velocity": 0.47244094488188976,
                    "duration": 0.05999999999999961
                },
                {
                    "name": "G3",
                    "midi": 55,
                    "time": 4.566000000000001,
                    "velocity": 0.47244094488188976,
                    "duration": 0.05999999999999961
                },
                {
                    "name": "D4",
                    "midi": 62,
                    "time": 4.566000000000001,
                    "velocity": 0.47244094488188976,
                    "duration": 0.05999999999999961
                },
                {
                    "name": "E2",
                    "midi": 40,
                    "time": 4.806,
                    "velocity": 0.7244094488188977,
                    "duration": 0.05999999999999961
                },
                {
                    "name": "B3",
                    "midi": 59,
                    "time": 5.045999999999999,
                    "velocity": 0.7244094488188977,
                    "duration": 0.05999999999999961
                },
                {
                    "name": "C4",
                    "midi": 60,
                    "time": 5.045999999999999,
                    "velocity": 0.7244094488188977,
                    "duration": 0.05999999999999961
                },
                {
                    "name": "F3",
                    "midi": 53,
                    "time": 5.285999999999999,
                    "velocity": 0.7244094488188977,
                    "duration": 0.05999999999999961
                },
                {
                    "name": "A3",
                    "midi": 57,
                    "time": 5.285999999999999,
                    "velocity": 0.7244094488188977,
                    "duration": 0.05999999999999961
                },
                {
                    "name": "C4",
                    "midi": 60,
                    "time": 5.285999999999999,
                    "velocity": 0.7244094488188977,
                    "duration": 0.05999999999999961
                },
                {
                    "name": "A3",
                    "midi": 57,
                    "time": 5.525999999999998,
                    "velocity": 0.7244094488188977,
                    "duration": 0.05999999999999961
                },
                {
                    "name": "C#4",
                    "midi": 61,
                    "time": 5.525999999999998,
                    "velocity": 0.7244094488188977,
                    "duration": 0.05999999999999961
                },
                {
                    "name": "A#3",
                    "midi": 58,
                    "time": 5.765999999999997,
                    "velocity": 0.7244094488188977,
                    "duration": 0.05999999999999961
                },
                {
                    "name": "D4",
                    "midi": 62,
                    "time": 5.765999999999997,
                    "velocity": 0.7244094488188977,
                    "duration": 0.05999999999999961
                },
                {
                    "name": "A#2",
                    "midi": 46,
                    "time": 6.005999999999997,
                    "velocity": 0.5905511811023622,
                    "duration": 0.05999999999999961
                },
                {
                    "name": "F3",
                    "midi": 53,
                    "time": 6.005999999999997,
                    "velocity": 0.5905511811023622,
                    "duration": 0.05999999999999961
                },
                {
                    "name": "G2",
                    "midi": 43,
                    "time": 6.245999999999996,
                    "velocity": 0.47244094488188976,
                    "duration": 0.05999999999999961
                },
                {
                    "name": "D3",
                    "midi": 50,
                    "time": 6.485999999999995,
                    "velocity": 0.47244094488188976,
                    "duration": 0.05999999999999961
                },
                {
                    "name": "B3",
                    "midi": 59,
                    "time": 6.485999999999995,
                    "velocity": 0.47244094488188976,
                    "duration": 0.05999999999999961
                },
                {
                    "name": "A2",
                    "midi": 45,
                    "time": 6.725999999999995,
                    "velocity": 0.47244094488188976,
                    "duration": 0.05999999999999961
                },
                {
                    "name": "G3",
                    "midi": 55,
                    "time": 6.965999999999994,
                    "velocity": 0.47244094488188976,
                    "duration": 0.05999999999999961
                },
                {
                    "name": "C#4",
                    "midi": 61,
                    "time": 6.965999999999994,
                    "velocity": 0.47244094488188976,
                    "duration": 0.05999999999999961
                },
                {
                    "name": "D2",
                    "midi": 38,
                    "time": 7.205999999999993,
                    "velocity": 0.47244094488188976,
                    "duration": 0.05999999999999961
                },
                {
                    "name": "D3",
                    "midi": 50,
                    "time": 7.445999999999993,
                    "velocity": 0.47244094488188976,
                    "duration": 0.05999999999999961
                },
                {
                    "name": "F3",
                    "midi": 53,
                    "time": 7.445999999999993,
                    "velocity": 0.47244094488188976,
                    "duration": 0.05999999999999961
                },
                {
                    "name": "A3",
                    "midi": 57,
                    "time": 7.445999999999993,
                    "velocity": 0.47244094488188976,
                    "duration": 0.05999999999999961
                },
                {
                    "name": "D3",
                    "midi": 50,
                    "time": 7.685999999999992,
                    "velocity": 0.47244094488188976,
                    "duration": 0.1200000000000001
                },
                {
                    "name": "F3",
                    "midi": 53,
                    "time": 7.685999999999992,
                    "velocity": 0.47244094488188976,
                    "duration": 0.1200000000000001
                },
                {
                    "name": "A3",
                    "midi": 57,
                    "time": 7.685999999999992,
                    "velocity": 0.47244094488188976,
                    "duration": 0.1200000000000001
                },
                {
                    "name": "D2",
                    "midi": 38,
                    "time": 8.645999999999988,
                    "velocity": 0.47244094488188976,
                    "duration": 0.0600000000000005
                },
                {
                    "name": "F3",
                    "midi": 53,
                    "time": 8.885999999999989,
                    "velocity": 0.47244094488188976,
                    "duration": 0.0600000000000005
                },
                {
                    "name": "A3",
                    "midi": 57,
                    "time": 8.885999999999989,
                    "velocity": 0.47244094488188976,
                    "duration": 0.0600000000000005
                },
                {
                    "name": "D2",
                    "midi": 38,
                    "time": 9.125999999999989,
                    "velocity": 0.47244094488188976,
                    "duration": 0.0600000000000005
                },
                {
                    "name": "G3",
                    "midi": 55,
                    "time": 9.365999999999989,
                    "velocity": 0.47244094488188976,
                    "duration": 0.0600000000000005
                },
                {
                    "name": "B3",
                    "midi": 59,
                    "time": 9.365999999999989,
                    "velocity": 0.47244094488188976,
                    "duration": 0.0600000000000005
                },
                {
                    "name": "D2",
                    "midi": 38,
                    "time": 9.60599999999999,
                    "velocity": 0.47244094488188976,
                    "duration": 0.0600000000000005
                },
                {
                    "name": "A3",
                    "midi": 57,
                    "time": 9.84599999999999,
                    "velocity": 0.47244094488188976,
                    "duration": 0.0600000000000005
                },
                {
                    "name": "D4",
                    "midi": 62,
                    "time": 9.84599999999999,
                    "velocity": 0.47244094488188976,
                    "duration": 0.0600000000000005
                },
                {
                    "name": "F4",
                    "midi": 65,
                    "time": 9.84599999999999,
                    "velocity": 0.47244094488188976,
                    "duration": 0.0600000000000005
                },
                {
                    "name": "A3",
                    "midi": 57,
                    "time": 10.08599999999999,
                    "velocity": 0.47244094488188976,
                    "duration": 0.41999999999999993
                },
                {
                    "name": "D4",
                    "midi": 62,
                    "time": 10.08599999999999,
                    "velocity": 0.47244094488188976,
                    "duration": 0.41999999999999993
                },
                {
                    "name": "F4",
                    "midi": 65,
                    "time": 10.08599999999999,
                    "velocity": 0.47244094488188976,
                    "duration": 0.41999999999999993
                },
                {
                    "name": "G2",
                    "midi": 43,
                    "time": 10.56599999999999,
                    "velocity": 0.47244094488188976,
                    "duration": 0.0600000000000005
                },
                {
                    "name": "D4",
                    "midi": 62,
                    "time": 10.80599999999999,
                    "velocity": 0.7244094488188977,
                    "duration": 0.0600000000000005
                },
                {
                    "name": "F4",
                    "midi": 65,
                    "time": 10.80599999999999,
                    "velocity": 0.7244094488188977,
                    "duration": 0.0600000000000005
                },
                {
                    "name": "A2",
                    "midi": 45,
                    "time": 11.04599999999999,
                    "velocity": 0.7244094488188977,
                    "duration": 0.0600000000000005
                },
                {
                    "name": "C4",
                    "midi": 60,
                    "time": 11.28599999999999,
                    "velocity": 0.7244094488188977,
                    "duration": 0.0600000000000005
                },
                {
                    "name": "F4",
                    "midi": 65,
                    "time": 11.28599999999999,
                    "velocity": 0.7244094488188977,
                    "duration": 0.0600000000000005
                },
                {
                    "name": "G2",
                    "midi": 43,
                    "time": 11.525999999999991,
                    "velocity": 0.5905511811023622,
                    "duration": 0.0600000000000005
                },
                {
                    "name": "C4",
                    "midi": 60,
                    "time": 11.765999999999991,
                    "velocity": 0.47244094488188976,
                    "duration": 0.0600000000000005
                },
                {
                    "name": "D4",
                    "midi": 62,
                    "time": 11.765999999999991,
                    "velocity": 0.47244094488188976,
                    "duration": 0.0600000000000005
                },
                {
                    "name": "B3",
                    "midi": 59,
                    "time": 12.005999999999991,
                    "velocity": 0.47244094488188976,
                    "duration": 0.41999999999999993
                },
                {
                    "name": "D4",
                    "midi": 62,
                    "time": 12.005999999999991,
                    "velocity": 0.47244094488188976,
                    "duration": 0.41999999999999993
                },
                {
                    "name": "F2",
                    "midi": 41,
                    "time": 12.485999999999992,
                    "velocity": 0.47244094488188976,
                    "duration": 0.0600000000000005
                },
                {
                    "name": "G3",
                    "midi": 55,
                    "time": 12.725999999999992,
                    "velocity": 0.47244094488188976,
                    "duration": 0.0600000000000005
                },
                {
                    "name": "D4",
                    "midi": 62,
                    "time": 12.725999999999992,
                    "velocity": 0.47244094488188976,
                    "duration": 0.0600000000000005
                },
                {
                    "name": "E2",
                    "midi": 40,
                    "time": 12.965999999999992,
                    "velocity": 0.7244094488188977,
                    "duration": 0.0600000000000005
                },
                {
                    "name": "B3",
                    "midi": 59,
                    "time": 13.205999999999992,
                    "velocity": 0.7244094488188977,
                    "duration": 0.0600000000000005
                },
                {
                    "name": "C4",
                    "midi": 60,
                    "time": 13.205999999999992,
                    "velocity": 0.7244094488188977,
                    "duration": 0.0600000000000005
                },
                {
                    "name": "F3",
                    "midi": 53,
                    "time": 13.445999999999993,
                    "velocity": 0.7244094488188977,
                    "duration": 0.0600000000000005
                },
                {
                    "name": "A3",
                    "midi": 57,
                    "time": 13.445999999999993,
                    "velocity": 0.7244094488188977,
                    "duration": 0.0600000000000005
                },
                {
                    "name": "C4",
                    "midi": 60,
                    "time": 13.445999999999993,
                    "velocity": 0.7244094488188977,
                    "duration": 0.0600000000000005
                },
                {
                    "name": "A3",
                    "midi": 57,
                    "time": 13.685999999999993,
                    "velocity": 0.7244094488188977,
                    "duration": 0.0600000000000005
                },
                {
                    "name": "C#4",
                    "midi": 61,
                    "time": 13.685999999999993,
                    "velocity": 0.7244094488188977,
                    "duration": 0.0600000000000005
                },
                {
                    "name": "A#3",
                    "midi": 58,
                    "time": 13.925999999999993,
                    "velocity": 0.7244094488188977,
                    "duration": 0.0600000000000005
                },
                {
                    "name": "D4",
                    "midi": 62,
                    "time": 13.925999999999993,
                    "velocity": 0.7244094488188977,
                    "duration": 0.0600000000000005
                },
                {
                    "name": "A#2",
                    "midi": 46,
                    "time": 14.165999999999993,
                    "velocity": 0.5905511811023622,
                    "duration": 0.0600000000000005
                },
                {
                    "name": "F3",
                    "midi": 53,
                    "time": 14.165999999999993,
                    "velocity": 0.5905511811023622,
                    "duration": 0.0600000000000005
                },
                {
                    "name": "G2",
                    "midi": 43,
                    "time": 14.405999999999993,
                    "velocity": 0.47244094488188976,
                    "duration": 0.0600000000000005
                },
                {
                    "name": "D3",
                    "midi": 50,
                    "time": 14.645999999999994,
                    "velocity": 0.47244094488188976,
                    "duration": 0.0600000000000005
                },
                {
                    "name": "B3",
                    "midi": 59,
                    "time": 14.645999999999994,
                    "velocity": 0.47244094488188976,
                    "duration": 0.0600000000000005
                },
                {
                    "name": "A2",
                    "midi": 45,
                    "time": 14.885999999999994,
                    "velocity": 0.47244094488188976,
                    "duration": 0.0600000000000005
                },
                {
                    "name": "G3",
                    "midi": 55,
                    "time": 15.125999999999994,
                    "velocity": 0.47244094488188976,
                    "duration": 0.0600000000000005
                },
                {
                    "name": "C#4",
                    "midi": 61,
                    "time": 15.125999999999994,
                    "velocity": 0.47244094488188976,
                    "duration": 0.0600000000000005
                },
                {
                    "name": "D2",
                    "midi": 38,
                    "time": 15.365999999999994,
                    "velocity": 0.47244094488188976,
                    "duration": 0.0600000000000005
                },
                {
                    "name": "D3",
                    "midi": 50,
                    "time": 15.605999999999995,
                    "velocity": 0.47244094488188976,
                    "duration": 0.0600000000000005
                },
                {
                    "name": "F3",
                    "midi": 53,
                    "time": 15.605999999999995,
                    "velocity": 0.47244094488188976,
                    "duration": 0.0600000000000005
                },
                {
                    "name": "A3",
                    "midi": 57,
                    "time": 15.605999999999995,
                    "velocity": 0.47244094488188976,
                    "duration": 0.0600000000000005
                },
                {
                    "name": "D3",
                    "midi": 50,
                    "time": 15.845999999999995,
                    "velocity": 0.47244094488188976,
                    "duration": 0.41999999999999993
                },
                {
                    "name": "F3",
                    "midi": 53,
                    "time": 15.845999999999995,
                    "velocity": 0.47244094488188976,
                    "duration": 0.41999999999999993
                },
                {
                    "name": "A3",
                    "midi": 57,
                    "time": 15.845999999999995,
                    "velocity": 0.47244094488188976,
                    "duration": 0.41999999999999993
                }
            ],
            "controlChanges": {
                "7": [
                    {
                        "number": 7,
                        "time": 0,
                        "value": 1
                    },
                    {
                        "number": 7,
                        "time": 8.165999999999991,
                        "value": 0
                    },
                    {
                        "number": 7,
                        "time": 8.40599999999999,
                        "value": 0
                    },
                    {
                        "number": 7,
                        "time": 8.52599999999999,
                        "value": 1
                    }
                ],
                "10": [
                    {
                        "number": 10,
                        "time": 0,
                        "value": 0.25196850393700787
                    }
                ],
                "64": [
                    {
                        "number": 64,
                        "time": 0.726,
                        "value": 1
                    },
                    {
                        "number": 64,
                        "time": 0.966,
                        "value": 0
                    },
                    {
                        "number": 64,
                        "time": 1.206,
                        "value": 1
                    },
                    {
                        "number": 64,
                        "time": 1.446,
                        "value": 0
                    },
                    {
                        "number": 64,
                        "time": 1.686,
                        "value": 1
                    },
                    {
                        "number": 64,
                        "time": 2.406,
                        "value": 0
                    },
                    {
                        "number": 64,
                        "time": 2.6460000000000004,
                        "value": 1
                    },
                    {
                        "number": 64,
                        "time": 2.8860000000000006,
                        "value": 0
                    },
                    {
                        "number": 64,
                        "time": 3.126000000000001,
                        "value": 1
                    },
                    {
                        "number": 64,
                        "time": 3.366000000000001,
                        "value": 0
                    },
                    {
                        "number": 64,
                        "time": 3.606000000000001,
                        "value": 1
                    },
                    {
                        "number": 64,
                        "time": 4.326000000000001,
                        "value": 0
                    },
                    {
                        "number": 64,
                        "time": 4.566000000000001,
                        "value": 1
                    },
                    {
                        "number": 64,
                        "time": 4.806,
                        "value": 0
                    },
                    {
                        "number": 64,
                        "time": 5.045999999999999,
                        "value": 1
                    },
                    {
                        "number": 64,
                        "time": 5.285999999999999,
                        "value": 0
                    },
                    {
                        "number": 64,
                        "time": 6.485999999999995,
                        "value": 1
                    },
                    {
                        "number": 64,
                        "time": 6.725999999999995,
                        "value": 0
                    },
                    {
                        "number": 64,
                        "time": 6.965999999999994,
                        "value": 1
                    },
                    {
                        "number": 64,
                        "time": 7.205999999999993,
                        "value": 0
                    },
                    {
                        "number": 64,
                        "time": 7.445999999999993,
                        "value": 1
                    },
                    {
                        "number": 64,
                        "time": 8.165999999999991,
                        "value": 0
                    },
                    {
                        "number": 64,
                        "time": 8.885999999999989,
                        "value": 1
                    },
                    {
                        "number": 64,
                        "time": 9.125999999999989,
                        "value": 0
                    },
                    {
                        "number": 64,
                        "time": 9.365999999999989,
                        "value": 1
                    },
                    {
                        "number": 64,
                        "time": 9.60599999999999,
                        "value": 0
                    },
                    {
                        "number": 64,
                        "time": 9.84599999999999,
                        "value": 1
                    },
                    {
                        "number": 64,
                        "time": 10.56599999999999,
                        "value": 0
                    },
                    {
                        "number": 64,
                        "time": 10.80599999999999,
                        "value": 1
                    },
                    {
                        "number": 64,
                        "time": 11.04599999999999,
                        "value": 0
                    },
                    {
                        "number": 64,
                        "time": 11.28599999999999,
                        "value": 1
                    },
                    {
                        "number": 64,
                        "time": 11.525999999999991,
                        "value": 0
                    },
                    {
                        "number": 64,
                        "time": 11.765999999999991,
                        "value": 1
                    },
                    {
                        "number": 64,
                        "time": 12.485999999999992,
                        "value": 0
                    },
                    {
                        "number": 64,
                        "time": 12.725999999999992,
                        "value": 1
                    },
                    {
                        "number": 64,
                        "time": 12.965999999999992,
                        "value": 0
                    },
                    {
                        "number": 64,
                        "time": 13.205999999999992,
                        "value": 1
                    },
                    {
                        "number": 64,
                        "time": 13.445999999999993,
                        "value": 0
                    },
                    {
                        "number": 64,
                        "time": 14.645999999999994,
                        "value": 1
                    },
                    {
                        "number": 64,
                        "time": 14.885999999999994,
                        "value": 0
                    },
                    {
                        "number": 64,
                        "time": 15.125999999999994,
                        "value": 1
                    },
                    {
                        "number": 64,
                        "time": 15.365999999999994,
                        "value": 0
                    },
                    {
                        "number": 64,
                        "time": 15.605999999999995,
                        "value": 1
                    },
                    {
                        "number": 64,
                        "time": 16.325999999999993,
                        "value": 0
                    }
                ],
                "91": [
                    {
                        "number": 91,
                        "time": 0.246,
                        "value": 0.3779527559055118
                    }
                ],
                "93": [
                    {
                        "number": 93,
                        "time": 0.366,
                        "value": 0
                    }
                ],
                "121": [
                    {
                        "number": 121,
                        "time": 0.006,
                        "value": 0
                    },
                    {
                        "number": 121,
                        "time": 16.325999999999993,
                        "value": 0
                    }
                ]
            },
            "id": 2,
            "name": "Left Hand",
            "instrumentNumber": 0,
            "instrument": "acoustic grand piano",
            "instrumentFamily": "piano",
            "channelNumber": 1,
            "isPercussion": false
        },
        {
            "startTime": 0,
            "duration": 0,
            "length": 0,
            "notes": [],
            "controlChanges": {},
            "id": 3,
            "name": "Roumanian Folk Dances (1918)"
        },
        {
            "startTime": 0,
            "duration": 0,
            "length": 0,
            "notes": [],
            "controlChanges": {},
            "id": 4,
            "name": "2. Braul"
        },
        {
            "startTime": 0,
            "duration": 0,
            "length": 0,
            "notes": [],
            "controlChanges": {},
            "id": 5,
            "name": "Bela Bartok (1881-1945)"
        },
        {
            "startTime": 0,
            "duration": 0,
            "length": 0,
            "notes": [],
            "controlChanges": {},
            "id": 6,
            "name": "seq (c) 1998 by Ramon Pajares Box"
        },
        {
            "startTime": 0,
            "duration": 0,
            "length": 0,
            "notes": [],
            "controlChanges": {},
            "id": 7,
            "name": "rpajares@nilsl.net"
        },
        {
            "startTime": 0,
            "duration": 0,
            "length": 0,
            "notes": [],
            "controlChanges": {},
            "id": 8
        }
    ]
}