{
    "header": {
        "PPQ": 480,
        "bpm": 120,
        "timeSignature": [
            2,
            4
        ],
        "name": "untitled"
    },
    "startTime": 0,
    "duration": 62.172916666666666,
    "tracks": [
        {
            "startTime": 0,
            "duration": 0,
            "length": 0,
            "notes": [],
            "controlChanges": {},
            "id": 0
        },
        {
            "startTime": 0,
            "duration": 0,
            "length": 0,
            "notes": [],
            "controlChanges": {},
            "id": 1,
            "name": "untitled"
        },
        {
            "startTime": 1.7406249999999999,
            "duration": 62.17291666666665,
            "length": 319,
            "notes": [
                {
                    "name": "C#5",
                    "midi": 73,
                    "time": 1.7406249999999999,
                    "velocity": 0.6299212598425197,
                    "duration": 0.09062499999999996
                },
                {
                    "name": "C#5",
                    "midi": 73,
                    "time": 1.8697916666666665,
                    "velocity": 0.6299212598425197,
                    "duration": 0.0864583333333333
                },
                {
                    "name": "C#5",
                    "midi": 73,
                    "time": 1.9947916666666665,
                    "velocity": 0.6299212598425197,
                    "duration": 0.703125
                },
                {
                    "name": "C#5",
                    "midi": 73,
                    "time": 2.7479166666666663,
                    "velocity": 0.6299212598425197,
                    "duration": 0.08333333333333348
                },
                {
                    "name": "C#5",
                    "midi": 73,
                    "time": 2.8833333333333333,
                    "velocity": 0.6299212598425197,
                    "duration": 0.07291666666666652
                },
                {
                    "name": "C#5",
                    "midi": 73,
                    "time": 3.0041666666666664,
                    "velocity": 0.6299212598425197,
                    "duration": 0.6937500000000001
                },
                {
                    "name": "F#4",
                    "midi": 66,
                    "time": 3.755208333333333,
                    "velocity": 0.6299212598425197,
                    "duration": 0.109375
                },
                {
                    "name": "G#4",
                    "midi": 68,
                    "time": 3.883333333333333,
                    "velocity": 0.6299212598425197,
                    "duration": 0.10625000000000018
                },
                {
                    "name": "A4",
                    "midi": 69,
                    "time": 3.9979166666666663,
                    "velocity": 0.6299212598425197,
                    "duration": 0.17500000000000027
                },
                {
                    "name": "B4",
                    "midi": 71,
                    "time": 4.247916666666667,
                    "velocity": 0.6299212598425197,
                    "duration": 0.17499999999999982
                },
                {
                    "name": "C#5",
                    "midi": 73,
                    "time": 4.508333333333333,
                    "velocity": 0.6299212598425197,
                    "duration": 0.16458333333333375
                },
                {
                    "name": "D5",
                    "midi": 74,
                    "time": 4.745833333333334,
                    "velocity": 0.6299212598425197,
                    "duration": 0.17708333333333304
                },
                {
                    "name": "E5",
                    "midi": 76,
                    "time": 4.997916666666667,
                    "velocity": 0.6299212598425197,
                    "duration": 0.36666666666666625
                },
                {
                    "name": "D5",
                    "midi": 74,
                    "time": 5.376041666666667,
                    "velocity": 0.6299212598425197,
                    "duration": 0.11354166666666643
                },
                {
                    "name": "E5",
                    "midi": 76,
                    "time": 5.496874999999999,
                    "velocity": 0.6299212598425197,
                    "duration": 0.36770833333333375
                },
                {
                    "name": "D5",
                    "midi": 74,
                    "time": 5.880208333333333,
                    "velocity": 0.6299212598425197,
                    "duration": 0.109375
                },
                {
                    "name": "E5",
                    "midi": 76,
                    "time": 6.005208333333333,
                    "velocity": 0.6299212598425197,
                    "duration": 0.109375
                },
                {
                    "name": "D5",
                    "midi": 74,
                    "time": 6.130208333333333,
                    "velocity": 0.6299212598425197,
                    "duration": 0.109375
                },
                {
                    "name": "C#5",
                    "midi": 73,
                    "time": 6.255208333333333,
                    "velocity": 0.6299212598425197,
                    "duration": 0.33854166666666696
                },
                {
                    "name": "D5",
                    "midi": 74,
                    "time": 6.616666666666666,
                    "velocity": 0.6299212598425197,
                    "duration": 0.12291666666666679
                },
                {
                    "name": "C#5",
                    "midi": 73,
                    "time": 6.7437499999999995,
                    "velocity": 0.6299212598425197,
                    "duration": 0.12083333333333357
                },
                {
                    "name": "D5",
                    "midi": 74,
                    "time": 6.869791666666666,
                    "velocity": 0.6299212598425197,
                    "duration": 0.11979166666666696
                },
                {
                    "name": "E5",
                    "midi": 76,
                    "time": 7.004166666666666,
                    "velocity": 0.6299212598425197,
                    "duration": 0.3604166666666666
                },
                {
                    "name": "D5",
                    "midi": 74,
                    "time": 7.3843749999999995,
                    "velocity": 0.6299212598425197,
                    "duration": 0.10520833333333357
                },
                {
                    "name": "E5",
                    "midi": 76,
                    "time": 7.496874999999999,
                    "velocity": 0.6299212598425197,
                    "duration": 0.36770833333333375
                },
                {
                    "name": "D5",
                    "midi": 74,
                    "time": 7.875,
                    "velocity": 0.6299212598425197,
                    "duration": 0.11458333333333304
                },
                {
                    "name": "E5",
                    "midi": 76,
                    "time": 7.991666666666666,
                    "velocity": 0.6299212598425197,
                    "duration": 0.1229166666666659
                },
                {
                    "name": "D5",
                    "midi": 74,
                    "time": 8.134374999999999,
                    "velocity": 0.6299212598425197,
                    "duration": 0.10520833333333357
                },
                {
                    "name": "C#5",
                    "midi": 73,
                    "time": 8.243749999999999,
                    "velocity": 0.6299212598425197,
                    "duration": 0.34999999999999964
                },
                {
                    "name": "D5",
                    "midi": 74,
                    "time": 8.624999999999998,
                    "velocity": 0.6299212598425197,
                    "duration": 0.11458333333333393
                },
                {
                    "name": "C#5",
                    "midi": 73,
                    "time": 8.753124999999999,
                    "velocity": 0.6299212598425197,
                    "duration": 0.11145833333333321
                },
                {
                    "name": "D5",
                    "midi": 74,
                    "time": 8.873958333333333,
                    "velocity": 0.6299212598425197,
                    "duration": 0.11562499999999964
                },
                {
                    "name": "E5",
                    "midi": 76,
                    "time": 9.004166666666665,
                    "velocity": 0.6220472440944882,
                    "duration": 0.3604166666666675
                },
                {
                    "name": "F5",
                    "midi": 77,
                    "time": 9.365625,
                    "velocity": 0.6535433070866141,
                    "duration": 0.10312500000000036
                },
                {
                    "name": "F5",
                    "midi": 77,
                    "time": 9.490625,
                    "velocity": 0.6692913385826772,
                    "duration": 0.1239583333333325
                },
                {
                    "name": "E5",
                    "midi": 76,
                    "time": 9.615625,
                    "velocity": 0.6850393700787402,
                    "duration": 0.10312500000000036
                },
                {
                    "name": "E5",
                    "midi": 76,
                    "time": 9.739583333333334,
                    "velocity": 0.6929133858267716,
                    "duration": 0.125
                },
                {
                    "name": "D5",
                    "midi": 74,
                    "time": 9.871875000000001,
                    "velocity": 0.7086614173228346,
                    "duration": 0.09687500000000071
                },
                {
                    "name": "D5",
                    "midi": 74,
                    "time": 9.995833333333335,
                    "velocity": 0.7165354330708661,
                    "duration": 0.11875000000000036
                },
                {
                    "name": "D#5",
                    "midi": 75,
                    "time": 10.129166666666668,
                    "velocity": 0.7322834645669292,
                    "duration": 0.08958333333333357
                },
                {
                    "name": "D#5",
                    "midi": 75,
                    "time": 10.241666666666669,
                    "velocity": 0.7480314960629921,
                    "duration": 0.12291666666666679
                },
                {
                    "name": "E5",
                    "midi": 76,
                    "time": 10.372916666666669,
                    "velocity": 0.7559055118110236,
                    "duration": 0.09583333333333321
                },
                {
                    "name": "E5",
                    "midi": 76,
                    "time": 10.490625000000001,
                    "velocity": 0.7795275590551181,
                    "duration": 0.1239583333333325
                },
                {
                    "name": "D#5",
                    "midi": 75,
                    "time": 10.629166666666666,
                    "velocity": 0.7795275590551181,
                    "duration": 0.08958333333333357
                },
                {
                    "name": "D#5",
                    "midi": 75,
                    "time": 10.755208333333334,
                    "velocity": 0.7795275590551181,
                    "duration": 0.109375
                },
                {
                    "name": "D5",
                    "midi": 74,
                    "time": 10.86875,
                    "velocity": 0.7795275590551181,
                    "duration": 0.09999999999999964
                },
                {
                    "name": "D5",
                    "midi": 74,
                    "time": 11.004166666666666,
                    "velocity": 0.7795275590551181,
                    "duration": 0.1104166666666675
                },
                {
                    "name": "C#5",
                    "midi": 73,
                    "time": 11.127083333333333,
                    "velocity": 0.7795275590551181,
                    "duration": 0.11250000000000071
                },
                {
                    "name": "B4",
                    "midi": 71,
                    "time": 11.253125,
                    "velocity": 0.7795275590551181,
                    "duration": 0.3614583333333332
                },
                {
                    "name": "A4",
                    "midi": 69,
                    "time": 11.626041666666667,
                    "velocity": 0.7716535433070866,
                    "duration": 0.11354166666666643
                },
                {
                    "name": "B4",
                    "midi": 71,
                    "time": 11.741666666666667,
                    "velocity": 0.7559055118110236,
                    "duration": 0.12291666666666679
                },
                {
                    "name": "C#5",
                    "midi": 73,
                    "time": 11.876041666666667,
                    "velocity": 0.7480314960629921,
                    "duration": 0.11354166666666643
                },
                {
                    "name": "B4",
                    "midi": 71,
                    "time": 11.990625000000001,
                    "velocity": 0.7322834645669292,
                    "duration": 0.1239583333333325
                },
                {
                    "name": "A4",
                    "midi": 69,
                    "time": 12.135416666666668,
                    "velocity": 0.7244094488188977,
                    "duration": 0.10416666666666607
                },
                {
                    "name": "B4",
                    "midi": 71,
                    "time": 12.248958333333334,
                    "velocity": 0.7086614173228346,
                    "duration": 0.11562499999999964
                },
                {
                    "name": "C#5",
                    "midi": 73,
                    "time": 12.385416666666668,
                    "velocity": 0.7007874015748031,
                    "duration": 0.10416666666666607
                },
                {
                    "name": "B4",
                    "midi": 71,
                    "time": 12.505208333333334,
                    "velocity": 0.6850393700787402,
                    "duration": 0.109375
                },
                {
                    "name": "A4",
                    "midi": 69,
                    "time": 12.626041666666667,
                    "velocity": 0.6771653543307087,
                    "duration": 0.11354166666666643
                },
                {
                    "name": "B4",
                    "midi": 71,
                    "time": 12.754166666666666,
                    "velocity": 0.6614173228346457,
                    "duration": 0.1104166666666675
                },
                {
                    "name": "C#5",
                    "midi": 73,
                    "time": 12.879166666666666,
                    "velocity": 0.6535433070866141,
                    "duration": 0.1104166666666675
                },
                {
                    "name": "B4",
                    "midi": 71,
                    "time": 12.996875000000001,
                    "velocity": 0.6377952755905512,
                    "duration": 0.7010416666666668
                },
                {
                    "name": "D4",
                    "midi": 62,
                    "time": 13.747916666666669,
                    "velocity": 0.6299212598425197,
                    "duration": 0.11666666666666714
                },
                {
                    "name": "E4",
                    "midi": 64,
                    "time": 13.865625000000003,
                    "velocity": 0.6299212598425197,
                    "duration": 0.1239583333333325
                },
                {
                    "name": "F#4",
                    "midi": 66,
                    "time": 14.007291666666669,
                    "velocity": 0.6299212598425197,
                    "duration": 0.19895833333333357
                },
                {
                    "name": "F#4",
                    "midi": 66,
                    "time": 14.242708333333336,
                    "velocity": 0.6299212598425197,
                    "duration": 0.12187499999999929
                },
                {
                    "name": "G#4",
                    "midi": 68,
                    "time": 14.365625000000003,
                    "velocity": 0.6299212598425197,
                    "duration": 0.1239583333333325
                },
                {
                    "name": "A4",
                    "midi": 69,
                    "time": 14.495833333333335,
                    "velocity": 0.6299212598425197,
                    "duration": 0.21041666666666714
                },
                {
                    "name": "A4",
                    "midi": 69,
                    "time": 14.756250000000003,
                    "velocity": 0.6299212598425197,
                    "duration": 0.1083333333333325
                },
                {
                    "name": "B4",
                    "midi": 71,
                    "time": 14.868750000000002,
                    "velocity": 0.6299212598425197,
                    "duration": 0.12083333333333357
                },
                {
                    "name": "C5",
                    "midi": 72,
                    "time": 14.995833333333335,
                    "velocity": 0.6299212598425197,
                    "duration": 0.7020833333333325
                },
                {
                    "name": "C#5",
                    "midi": 73,
                    "time": 15.750000000000002,
                    "velocity": 0.6299212598425197,
                    "duration": 0.08125000000000071
                },
                {
                    "name": "C#5",
                    "midi": 73,
                    "time": 15.864583333333336,
                    "velocity": 0.6299212598425197,
                    "duration": 0.09166666666666679
                },
                {
                    "name": "C#5",
                    "midi": 73,
                    "time": 15.998958333333336,
                    "velocity": 0.6299212598425197,
                    "duration": 0.6989583333333318
                },
                {
                    "name": "C#5",
                    "midi": 73,
                    "time": 16.75,
                    "velocity": 0.6299212598425197,
                    "duration": 0.08125000000000071
                },
                {
                    "name": "C#5",
                    "midi": 73,
                    "time": 16.877083333333335,
                    "velocity": 0.6299212598425197,
                    "duration": 0.07916666666666572
                },
                {
                    "name": "C#5",
                    "midi": 73,
                    "time": 17.005208333333336,
                    "velocity": 0.5984251968503937,
                    "duration": 0.6927083333333321
                },
                {
                    "name": "C#5",
                    "midi": 73,
                    "time": 17.74791666666667,
                    "velocity": 0.5669291338582677,
                    "duration": 0.08333333333333215
                },
                {
                    "name": "C#5",
                    "midi": 73,
                    "time": 17.871875,
                    "velocity": 0.5590551181102362,
                    "duration": 0.08437500000000142
                },
                {
                    "name": "F#5",
                    "midi": 78,
                    "time": 18.007291666666667,
                    "velocity": 0.5275590551181102,
                    "duration": 0.16562499999999858
                },
                {
                    "name": "C#5",
                    "midi": 73,
                    "time": 18.259375,
                    "velocity": 0.5275590551181102,
                    "duration": 0.16354166666666714
                },
                {
                    "name": "C6",
                    "midi": 84,
                    "time": 18.461458333333333,
                    "velocity": 0.5275590551181102,
                    "duration": 0.02812499999999929
                },
                {
                    "name": "C#6",
                    "midi": 85,
                    "time": 18.510416666666664,
                    "velocity": 0.5275590551181102,
                    "duration": 0.16250000000000142
                },
                {
                    "name": "C#5",
                    "midi": 73,
                    "time": 18.740624999999998,
                    "velocity": 0.5275590551181102,
                    "duration": 0.18229166666666785
                },
                {
                    "name": "G#5",
                    "midi": 80,
                    "time": 18.959374999999998,
                    "velocity": 0.5275590551181102,
                    "duration": 0.03020833333333428
                },
                {
                    "name": "A5",
                    "midi": 81,
                    "time": 19.008333333333333,
                    "velocity": 0.5275590551181102,
                    "duration": 0.16458333333333286
                },
                {
                    "name": "C#5",
                    "midi": 73,
                    "time": 19.247916666666665,
                    "velocity": 0.5275590551181102,
                    "duration": 0.1750000000000007
                },
                {
                    "name": "A#5",
                    "midi": 82,
                    "time": 19.495833333333334,
                    "velocity": 0.5275590551181102,
                    "duration": 0.11874999999999858
                },
                {
                    "name": "A5",
                    "midi": 81,
                    "time": 19.619791666666664,
                    "velocity": 0.5275590551181102,
                    "duration": 0.09895833333333215
                },
                {
                    "name": "A5",
                    "midi": 81,
                    "time": 19.73958333333333,
                    "velocity": 0.5275590551181102,
                    "duration": 0.125
                },
                {
                    "name": "G#5",
                    "midi": 80,
                    "time": 19.877083333333328,
                    "velocity": 0.5275590551181102,
                    "duration": 0.09166666666666501
                },
                {
                    "name": "G#5",
                    "midi": 80,
                    "time": 19.997916666666658,
                    "velocity": 0.5275590551181102,
                    "duration": 0.1750000000000007
                },
                {
                    "name": "C#5",
                    "midi": 73,
                    "time": 20.239583333333325,
                    "velocity": 0.5275590551181102,
                    "duration": 0.18333333333333357
                },
                {
                    "name": "C#6",
                    "midi": 85,
                    "time": 20.447916666666657,
                    "velocity": 0.5275590551181102,
                    "duration": 0.04166666666666785
                },
                {
                    "name": "D6",
                    "midi": 86,
                    "time": 20.498958333333324,
                    "velocity": 0.5275590551181102,
                    "duration": 0.173958333333335
                },
                {
                    "name": "C#5",
                    "midi": 73,
                    "time": 20.758333333333326,
                    "velocity": 0.5275590551181102,
                    "duration": 0.16458333333333286
                },
                {
                    "name": "A#5",
                    "midi": 82,
                    "time": 20.967708333333324,
                    "velocity": 0.5275590551181102,
                    "duration": 0.02187500000000142
                },
                {
                    "name": "B5",
                    "midi": 83,
                    "time": 20.997916666666658,
                    "velocity": 0.5275590551181102,
                    "duration": 0.1750000000000007
                },
                {
                    "name": "C#5",
                    "midi": 73,
                    "time": 21.255208333333325,
                    "velocity": 0.5275590551181102,
                    "duration": 0.16770833333333357
                },
                {
                    "name": "C#6",
                    "midi": 85,
                    "time": 21.502083333333324,
                    "velocity": 0.5275590551181102,
                    "duration": 0.11250000000000071
                },
                {
                    "name": "B5",
                    "midi": 83,
                    "time": 21.63124999999999,
                    "velocity": 0.5275590551181102,
                    "duration": 0.08749999999999858
                },
                {
                    "name": "B5",
                    "midi": 83,
                    "time": 21.758333333333322,
                    "velocity": 0.5275590551181102,
                    "duration": 0.10624999999999929
                },
                {
                    "name": "A#5",
                    "midi": 82,
                    "time": 21.87708333333332,
                    "velocity": 0.5275590551181102,
                    "duration": 0.09166666666666501
                },
                {
                    "name": "A#5",
                    "midi": 82,
                    "time": 22.00208333333332,
                    "velocity": 0.5275590551181102,
                    "duration": 0.3625000000000007
                },
                {
                    "name": "A5",
                    "midi": 81,
                    "time": 22.365624999999987,
                    "velocity": 0.5748031496062992,
                    "duration": 0.12395833333333428
                },
                {
                    "name": "A5",
                    "midi": 81,
                    "time": 22.506249999999987,
                    "velocity": 0.5590551181102362,
                    "duration": 0.10833333333333428
                },
                {
                    "name": "G#5",
                    "midi": 80,
                    "time": 22.62395833333332,
                    "velocity": 0.5433070866141733,
                    "duration": 0.09479166666666572
                },
                {
                    "name": "G#5",
                    "midi": 80,
                    "time": 22.75208333333332,
                    "velocity": 0.5590551181102362,
                    "duration": 0.11250000000000071
                },
                {
                    "name": "A5",
                    "midi": 81,
                    "time": 22.87708333333332,
                    "velocity": 0.5748031496062992,
                    "duration": 0.09166666666666501
                },
                {
                    "name": "A5",
                    "midi": 81,
                    "time": 23.00104166666665,
                    "velocity": 0.5826771653543307,
                    "duration": 0.11354166666666643
                },
                {
                    "name": "G#5",
                    "midi": 80,
                    "time": 23.132291666666653,
                    "velocity": 0.5905511811023622,
                    "duration": 0.08645833333333286
                },
                {
                    "name": "G#5",
                    "midi": 80,
                    "time": 23.254166666666652,
                    "velocity": 0.5905511811023622,
                    "duration": 0.11041666666666572
                },
                {
                    "name": "G5",
                    "midi": 79,
                    "time": 23.371874999999985,
                    "velocity": 0.5905511811023622,
                    "duration": 0.09687500000000071
                },
                {
                    "name": "G5",
                    "midi": 79,
                    "time": 23.489583333333318,
                    "velocity": 0.5905511811023622,
                    "duration": 0.125
                },
                {
                    "name": "F#5",
                    "midi": 78,
                    "time": 23.61979166666665,
                    "velocity": 0.5905511811023622,
                    "duration": 0.09895833333333215
                },
                {
                    "name": "F#5",
                    "midi": 78,
                    "time": 23.74687499999998,
                    "velocity": 0.5905511811023622,
                    "duration": 0.11770833333333286
                },
                {
                    "name": "G5",
                    "midi": 79,
                    "time": 23.86874999999998,
                    "velocity": 0.5905511811023622,
                    "duration": 0.10000000000000142
                },
                {
                    "name": "G5",
                    "midi": 79,
                    "time": 24.006249999999984,
                    "velocity": 0.5905511811023622,
                    "duration": 0.3583333333333343
                },
                {
                    "name": "F#5",
                    "midi": 78,
                    "time": 24.371874999999985,
                    "velocity": 0.5905511811023622,
                    "duration": 0.11770833333333286
                },
                {
                    "name": "G5",
                    "midi": 79,
                    "time": 24.50833333333332,
                    "velocity": 0.5905511811023622,
                    "duration": 0.3562499999999993
                },
                {
                    "name": "F#5",
                    "midi": 78,
                    "time": 24.866666666666653,
                    "velocity": 0.5905511811023622,
                    "duration": 0.10208333333333286
                },
                {
                    "name": "F5",
                    "midi": 77,
                    "time": 25.005208333333318,
                    "velocity": 0.5905511811023622,
                    "duration": 0.109375
                },
                {
                    "name": "E5",
                    "midi": 76,
                    "time": 25.128124999999983,
                    "velocity": 0.5984251968503937,
                    "duration": 0.09062499999999929
                },
                {
                    "name": "E5",
                    "midi": 76,
                    "time": 25.258333333333315,
                    "velocity": 0.6141732283464567,
                    "duration": 0.10624999999999929
                },
                {
                    "name": "D#5",
                    "midi": 75,
                    "time": 25.367708333333315,
                    "velocity": 0.6299212598425197,
                    "duration": 0.10104166666666714
                },
                {
                    "name": "D#5",
                    "midi": 75,
                    "time": 25.501041666666648,
                    "velocity": 0.6377952755905512,
                    "duration": 0.11354166666666643
                },
                {
                    "name": "E5",
                    "midi": 76,
                    "time": 25.633333333333315,
                    "velocity": 0.6456692913385826,
                    "duration": 0.08541666666666714
                },
                {
                    "name": "E5",
                    "midi": 76,
                    "time": 25.756249999999984,
                    "velocity": 0.6535433070866141,
                    "duration": 0.10833333333333428
                },
                {
                    "name": "D#5",
                    "midi": 75,
                    "time": 25.88541666666665,
                    "velocity": 0.6692913385826772,
                    "duration": 0.08333333333333215
                },
                {
                    "name": "D#5",
                    "midi": 75,
                    "time": 25.99374999999998,
                    "velocity": 0.6929133858267716,
                    "duration": 0.12083333333333357
                },
                {
                    "name": "D5",
                    "midi": 74,
                    "time": 26.133333333333315,
                    "velocity": 0.6929133858267716,
                    "duration": 0.08541666666666714
                },
                {
                    "name": "D5",
                    "midi": 74,
                    "time": 26.256249999999984,
                    "velocity": 0.6929133858267716,
                    "duration": 0.10833333333333428
                },
                {
                    "name": "A4",
                    "midi": 69,
                    "time": 26.38541666666665,
                    "velocity": 0.6929133858267716,
                    "duration": 0.08333333333333215
                },
                {
                    "name": "D5",
                    "midi": 74,
                    "time": 26.50729166666665,
                    "velocity": 0.6929133858267716,
                    "duration": 0.357291666666665
                },
                {
                    "name": "D#5",
                    "midi": 75,
                    "time": 26.883333333333315,
                    "velocity": 0.6929133858267716,
                    "duration": 0.08541666666666714
                },
                {
                    "name": "D#5",
                    "midi": 75,
                    "time": 27.003124999999983,
                    "velocity": 0.6929133858267716,
                    "duration": 0.11145833333333499
                },
                {
                    "name": "D5",
                    "midi": 74,
                    "time": 27.11770833333332,
                    "velocity": 0.6771653543307087,
                    "duration": 0.10104166666666714
                },
                {
                    "name": "D5",
                    "midi": 74,
                    "time": 27.25208333333332,
                    "velocity": 0.6692913385826772,
                    "duration": 0.11250000000000071
                },
                {
                    "name": "A4",
                    "midi": 69,
                    "time": 27.369791666666654,
                    "velocity": 0.6535433070866141,
                    "duration": 0.09895833333333215
                },
                {
                    "name": "D5",
                    "midi": 74,
                    "time": 27.494791666666654,
                    "velocity": 0.6456692913385826,
                    "duration": 0.36979166666666785
                },
                {
                    "name": "D#5",
                    "midi": 75,
                    "time": 27.88020833333332,
                    "velocity": 0.6141732283464567,
                    "duration": 0.109375
                },
                {
                    "name": "F5",
                    "midi": 77,
                    "time": 28.006249999999987,
                    "velocity": 0.5984251968503937,
                    "duration": 0.16666666666666785
                },
                {
                    "name": "D5",
                    "midi": 74,
                    "time": 28.242708333333322,
                    "velocity": 0.5905511811023622,
                    "duration": 0.18020833333333286
                },
                {
                    "name": "D6",
                    "midi": 86,
                    "time": 28.462499999999988,
                    "velocity": 0.5905511811023622,
                    "duration": 0.02708333333333357
                },
                {
                    "name": "D#6",
                    "midi": 87,
                    "time": 28.49999999999999,
                    "velocity": 0.5905511811023622,
                    "duration": 0.17291666666666572
                },
                {
                    "name": "D5",
                    "midi": 74,
                    "time": 28.740624999999987,
                    "velocity": 0.5905511811023622,
                    "duration": 0.18229166666666785
                },
                {
                    "name": "A#5",
                    "midi": 82,
                    "time": 28.964583333333323,
                    "velocity": 0.5905511811023622,
                    "duration": 0.02499999999999858
                },
                {
                    "name": "B5",
                    "midi": 83,
                    "time": 29.007291666666656,
                    "velocity": 0.5905511811023622,
                    "duration": 0.16562499999999858
                },
                {
                    "name": "D5",
                    "midi": 74,
                    "time": 29.241666666666656,
                    "velocity": 0.5905511811023622,
                    "duration": 0.18124999999999858
                },
                {
                    "name": "B5",
                    "midi": 83,
                    "time": 29.454166666666655,
                    "velocity": 0.5905511811023622,
                    "duration": 0.03541666666666643
                },
                {
                    "name": "C6",
                    "midi": 84,
                    "time": 29.50208333333332,
                    "velocity": 0.5905511811023622,
                    "duration": 0.17083333333333428
                },
                {
                    "name": "C5",
                    "midi": 72,
                    "time": 29.74895833333332,
                    "velocity": 0.5905511811023622,
                    "duration": 0.173958333333335
                },
                {
                    "name": "G#5",
                    "midi": 80,
                    "time": 29.964583333333323,
                    "velocity": 0.5905511811023622,
                    "duration": 0.02499999999999858
                },
                {
                    "name": "A5",
                    "midi": 81,
                    "time": 29.993749999999988,
                    "velocity": 0.5905511811023622,
                    "duration": 0.17916666666666714
                },
                {
                    "name": "C5",
                    "midi": 72,
                    "time": 30.25520833333332,
                    "velocity": 0.5905511811023622,
                    "duration": 0.16770833333333357
                },
                {
                    "name": "B5",
                    "midi": 83,
                    "time": 30.46874999999999,
                    "velocity": 0.5905511811023622,
                    "duration": 0.02083333333333215
                },
                {
                    "name": "C6",
                    "midi": 84,
                    "time": 30.48958333333332,
                    "velocity": 0.5905511811023622,
                    "duration": 0.18333333333333357
                },
                {
                    "name": "C5",
                    "midi": 72,
                    "time": 30.75312499999999,
                    "velocity": 0.5905511811023622,
                    "duration": 0.169791666666665
                },
                {
                    "name": "C6",
                    "midi": 84,
                    "time": 31.004166666666656,
                    "velocity": 0.5905511811023622,
                    "duration": 0.11041666666666572
                },
                {
                    "name": "B5",
                    "midi": 83,
                    "time": 31.117708333333322,
                    "velocity": 0.5905511811023622,
                    "duration": 0.10104166666666714
                },
                {
                    "name": "B5",
                    "midi": 83,
                    "time": 31.24062499999999,
                    "velocity": 0.5905511811023622,
                    "duration": 0.12395833333333428
                },
                {
                    "name": "A5",
                    "midi": 81,
                    "time": 31.369791666666657,
                    "velocity": 0.5905511811023622,
                    "duration": 0.09895833333333215
                },
                {
                    "name": "A5",
                    "midi": 81,
                    "time": 31.504166666666656,
                    "velocity": 0.5905511811023622,
                    "duration": 0.11041666666666572
                },
                {
                    "name": "G#5",
                    "midi": 80,
                    "time": 31.632291666666656,
                    "velocity": 0.5905511811023622,
                    "duration": 0.08645833333333286
                },
                {
                    "name": "G#5",
                    "midi": 80,
                    "time": 31.751041666666655,
                    "velocity": 0.5905511811023622,
                    "duration": 0.11354166666666643
                },
                {
                    "name": "A5",
                    "midi": 81,
                    "time": 31.87187499999999,
                    "velocity": 0.5905511811023622,
                    "duration": 0.09687500000000071
                },
                {
                    "name": "A5",
                    "midi": 81,
                    "time": 32.00624999999999,
                    "velocity": 0.5905511811023622,
                    "duration": 0.10833333333333428
                },
                {
                    "name": "F#5",
                    "midi": 78,
                    "time": 32.11874999999999,
                    "velocity": 0.5905511811023622,
                    "duration": 0.10000000000000142
                },
                {
                    "name": "F#5",
                    "midi": 78,
                    "time": 32.25312499999999,
                    "velocity": 0.5905511811023622,
                    "duration": 0.11145833333333144
                },
                {
                    "name": "C#5",
                    "midi": 73,
                    "time": 32.36874999999999,
                    "velocity": 0.5905511811023622,
                    "duration": 0.10000000000000142
                },
                {
                    "name": "F#5",
                    "midi": 78,
                    "time": 32.49374999999999,
                    "velocity": 0.5905511811023622,
                    "duration": 0.37083333333333
                },
                {
                    "name": "G#5",
                    "midi": 80,
                    "time": 32.88541666666666,
                    "velocity": 0.5905511811023622,
                    "duration": 0.0833333333333357
                },
                {
                    "name": "A5",
                    "midi": 81,
                    "time": 32.99479166666666,
                    "velocity": 0.5905511811023622,
                    "duration": 0.1197916666666643
                },
                {
                    "name": "F#5",
                    "midi": 78,
                    "time": 33.11458333333332,
                    "velocity": 0.5905511811023622,
                    "duration": 0.1041666666666643
                },
                {
                    "name": "F#5",
                    "midi": 78,
                    "time": 33.25624999999999,
                    "velocity": 0.5905511811023622,
                    "duration": 0.10833333333333428
                },
                {
                    "name": "C#5",
                    "midi": 73,
                    "time": 33.36770833333332,
                    "velocity": 0.5590551181102362,
                    "duration": 0.10104166666666714
                },
                {
                    "name": "F#5",
                    "midi": 78,
                    "time": 33.48958333333332,
                    "velocity": 0.5590551181102362,
                    "duration": 0.375
                },
                {
                    "name": "G#5",
                    "midi": 80,
                    "time": 33.86458333333332,
                    "velocity": 0.5275590551181102,
                    "duration": 0.125
                },
                {
                    "name": "A5",
                    "midi": 81,
                    "time": 33.99687499999999,
                    "velocity": 0.5275590551181102,
                    "duration": 0.11770833333333286
                },
                {
                    "name": "G#5",
                    "midi": 80,
                    "time": 34.12812499999999,
                    "velocity": 0.5196850393700787,
                    "duration": 0.11145833333333144
                },
                {
                    "name": "F#5",
                    "midi": 78,
                    "time": 34.24687499999999,
                    "velocity": 0.5196850393700787,
                    "duration": 0.11770833333333286
                },
                {
                    "name": "C#5",
                    "midi": 73,
                    "time": 34.372916666666654,
                    "velocity": 0.5118110236220472,
                    "duration": 0.11666666666666714
                },
                {
                    "name": "F#5",
                    "midi": 78,
                    "time": 34.497916666666654,
                    "velocity": 0.5118110236220472,
                    "duration": 0.11666666666666714
                },
                {
                    "name": "G#5",
                    "midi": 80,
                    "time": 34.61562499999999,
                    "velocity": 0.5039370078740157,
                    "duration": 0.12395833333333428
                },
                {
                    "name": "A5",
                    "midi": 81,
                    "time": 34.75104166666665,
                    "velocity": 0.5039370078740157,
                    "duration": 0.11354166666666998
                },
                {
                    "name": "C#6",
                    "midi": 85,
                    "time": 34.879166666666656,
                    "velocity": 0.5039370078740157,
                    "duration": 0.11041666666666572
                },
                {
                    "name": "F#6",
                    "midi": 90,
                    "time": 34.99687499999999,
                    "velocity": 0.49606299212598426,
                    "duration": 0.7010416666666686
                },
                {
                    "name": "F#5",
                    "midi": 78,
                    "time": 35.75312499999999,
                    "velocity": 0.5433070866141733,
                    "duration": 0.078125
                },
                {
                    "name": "F#5",
                    "midi": 78,
                    "time": 35.883333333333326,
                    "velocity": 0.5433070866141733,
                    "duration": 0.0729166666666643
                },
                {
                    "name": "F#5",
                    "midi": 78,
                    "time": 36.00104166666666,
                    "velocity": 0.5433070866141733,
                    "duration": 0.6968749999999986
                },
                {
                    "name": "F#5",
                    "midi": 78,
                    "time": 36.75104166666666,
                    "velocity": 0.5433070866141733,
                    "duration": 0.08020833333333144
                },
                {
                    "name": "F#5",
                    "midi": 78,
                    "time": 36.86562499999999,
                    "velocity": 0.5433070866141733,
                    "duration": 0.09062500000000284
                },
                {
                    "name": "G5",
                    "midi": 79,
                    "time": 36.99895833333332,
                    "velocity": 0.5433070866141733,
                    "duration": 0.17395833333333144
                },
                {
                    "name": "F#5",
                    "midi": 78,
                    "time": 37.24479166666665,
                    "velocity": 0.5433070866141733,
                    "duration": 0.46145833333333286
                },
                {
                    "name": "F5",
                    "midi": 77,
                    "time": 37.74791666666665,
                    "velocity": 0.5433070866141733,
                    "duration": 0.4583333333333357
                },
                {
                    "name": "E5",
                    "midi": 76,
                    "time": 38.25833333333332,
                    "velocity": 0.5433070866141733,
                    "duration": 0.4479166666666643
                },
                {
                    "name": "D#5",
                    "midi": 75,
                    "time": 38.749999999999986,
                    "velocity": 0.5433070866141733,
                    "duration": 0.3645833333333357
                },
                {
                    "name": "D5",
                    "midi": 74,
                    "time": 39.11562499999999,
                    "velocity": 0.5433070866141733,
                    "duration": 0.12395833333333428
                },
                {
                    "name": "B4",
                    "midi": 71,
                    "time": 39.25104166666665,
                    "velocity": 0.5433070866141733,
                    "duration": 0.11354166666666998
                },
                {
                    "name": "D5",
                    "midi": 74,
                    "time": 39.379166666666656,
                    "velocity": 0.5433070866141733,
                    "duration": 0.11041666666666572
                },
                {
                    "name": "D#5",
                    "midi": 75,
                    "time": 39.50624999999999,
                    "velocity": 0.5433070866141733,
                    "duration": 0.10833333333333428
                },
                {
                    "name": "D5",
                    "midi": 74,
                    "time": 39.63333333333332,
                    "velocity": 0.5433070866141733,
                    "duration": 0.10625000000000284
                },
                {
                    "name": "B4",
                    "midi": 71,
                    "time": 39.75729166666665,
                    "velocity": 0.5433070866141733,
                    "duration": 0.10729166666666856
                },
                {
                    "name": "D5",
                    "midi": 74,
                    "time": 39.87083333333332,
                    "velocity": 0.5433070866141733,
                    "duration": 0.11874999999999858
                },
                {
                    "name": "D#5",
                    "midi": 75,
                    "time": 40.00833333333332,
                    "velocity": 0.5433070866141733,
                    "duration": 0.10625000000000284
                },
                {
                    "name": "D5",
                    "midi": 74,
                    "time": 40.12812499999999,
                    "velocity": 0.5433070866141733,
                    "duration": 0.11145833333333144
                },
                {
                    "name": "B4",
                    "midi": 71,
                    "time": 40.25520833333332,
                    "velocity": 0.5433070866141733,
                    "duration": 0.109375
                },
                {
                    "name": "D5",
                    "midi": 74,
                    "time": 40.38229166666665,
                    "velocity": 0.5433070866141733,
                    "duration": 0.10729166666666856
                },
                {
                    "name": "D#5",
                    "midi": 75,
                    "time": 40.50624999999999,
                    "velocity": 0.5433070866141733,
                    "duration": 0.10833333333333428
                },
                {
                    "name": "D5",
                    "midi": 74,
                    "time": 40.63333333333332,
                    "velocity": 0.5748031496062992,
                    "duration": 0.10625000000000284
                },
                {
                    "name": "B4",
                    "midi": 71,
                    "time": 40.75937499999999,
                    "velocity": 0.5984251968503937,
                    "duration": 0.10520833333333002
                },
                {
                    "name": "C#5",
                    "midi": 73,
                    "time": 40.88437499999999,
                    "velocity": 0.6141732283464567,
                    "duration": 0.10520833333333002
                },
                {
                    "name": "D5",
                    "midi": 74,
                    "time": 40.999999999999986,
                    "velocity": 0.6299212598425197,
                    "duration": 0.1145833333333357
                },
                {
                    "name": "C#5",
                    "midi": 73,
                    "time": 41.12395833333332,
                    "velocity": 0.6456692913385826,
                    "duration": 0.11562500000000142
                },
                {
                    "name": "B4",
                    "midi": 71,
                    "time": 41.24166666666665,
                    "velocity": 0.6456692913385826,
                    "duration": 0.12291666666666856
                },
                {
                    "name": "A4",
                    "midi": 69,
                    "time": 41.37187499999999,
                    "velocity": 0.6456692913385826,
                    "duration": 0.11770833333333286
                },
                {
                    "name": "G4",
                    "midi": 67,
                    "time": 41.50729166666665,
                    "velocity": 0.6456692913385826,
                    "duration": 0.32395833333333
                },
                {
                    "name": "D#5",
                    "midi": 75,
                    "time": 41.87291666666665,
                    "velocity": 0.6456692913385826,
                    "duration": 0.11666666666666714
                },
                {
                    "name": "D5",
                    "midi": 74,
                    "time": 41.99270833333331,
                    "velocity": 0.6456692913385826,
                    "duration": 0.12187500000000284
                },
                {
                    "name": "C#5",
                    "midi": 73,
                    "time": 42.114583333333314,
                    "velocity": 0.6456692913385826,
                    "duration": 0.125
                },
                {
                    "name": "B4",
                    "midi": 71,
                    "time": 42.25312499999998,
                    "velocity": 0.6456692913385826,
                    "duration": 0.11145833333333144
                },
                {
                    "name": "A4",
                    "midi": 69,
                    "time": 42.38124999999998,
                    "velocity": 0.6456692913385826,
                    "duration": 0.10833333333333428
                },
                {
                    "name": "G4",
                    "midi": 67,
                    "time": 42.49062499999998,
                    "velocity": 0.6456692913385826,
                    "duration": 0.46562500000000284
                },
                {
                    "name": "F#4",
                    "midi": 66,
                    "time": 43.24062499999998,
                    "velocity": 0.6456692913385826,
                    "duration": 0.12395833333333428
                },
                {
                    "name": "G4",
                    "midi": 67,
                    "time": 43.37291666666665,
                    "velocity": 0.6456692913385826,
                    "duration": 0.11666666666666714
                },
                {
                    "name": "A4",
                    "midi": 69,
                    "time": 43.50416666666665,
                    "velocity": 0.6377952755905512,
                    "duration": 0.20208333333333428
                },
                {
                    "name": "A4",
                    "midi": 69,
                    "time": 43.75624999999998,
                    "velocity": 0.6220472440944882,
                    "duration": 0.10833333333333428
                },
                {
                    "name": "B4",
                    "midi": 71,
                    "time": 43.86770833333331,
                    "velocity": 0.6220472440944882,
                    "duration": 0.12187500000000284
                },
                {
                    "name": "C#5",
                    "midi": 73,
                    "time": 43.99270833333331,
                    "velocity": 0.6141732283464567,
                    "duration": 0.2135416666666643
                },
                {
                    "name": "A4",
                    "midi": 69,
                    "time": 44.24062499999997,
                    "velocity": 0.5984251968503937,
                    "duration": 0.12395833333333428
                },
                {
                    "name": "B4",
                    "midi": 71,
                    "time": 44.371874999999974,
                    "velocity": 0.5984251968503937,
                    "duration": 0.11770833333333286
                },
                {
                    "name": "C#5",
                    "midi": 73,
                    "time": 44.48958333333331,
                    "velocity": 0.5905511811023622,
                    "duration": 0.21666666666666856
                },
                {
                    "name": "C#5",
                    "midi": 73,
                    "time": 44.76041666666664,
                    "velocity": 0.5748031496062992,
                    "duration": 0.1041666666666643
                },
                {
                    "name": "D5",
                    "midi": 74,
                    "time": 44.878124999999976,
                    "velocity": 0.5748031496062992,
                    "duration": 0.11145833333333144
                },
                {
                    "name": "E5",
                    "midi": 76,
                    "time": 44.99062499999997,
                    "velocity": 0.5433070866141733,
                    "duration": 0.3739583333333343
                },
                {
                    "name": "D5",
                    "midi": 74,
                    "time": 45.38437499999998,
                    "velocity": 0.5433070866141733,
                    "duration": 0.08437500000000142
                },
                {
                    "name": "E5",
                    "midi": 76,
                    "time": 45.503124999999976,
                    "velocity": 0.5433070866141733,
                    "duration": 0.36145833333333144
                },
                {
                    "name": "D5",
                    "midi": 74,
                    "time": 45.873958333333306,
                    "velocity": 0.5433070866141733,
                    "duration": 0.09479166666666572
                },
                {
                    "name": "E5",
                    "midi": 76,
                    "time": 45.98958333333331,
                    "velocity": 0.5433070866141733,
                    "duration": 0.125
                },
                {
                    "name": "D5",
                    "midi": 74,
                    "time": 46.11979166666664,
                    "velocity": 0.5433070866141733,
                    "duration": 0.1197916666666643
                },
                {
                    "name": "C#5",
                    "midi": 73,
                    "time": 46.24791666666664,
                    "velocity": 0.5433070866141733,
                    "duration": 0.3333333333333357
                },
                {
                    "name": "D5",
                    "midi": 74,
                    "time": 46.628124999999976,
                    "velocity": 0.5433070866141733,
                    "duration": 0.11145833333333144
                },
                {
                    "name": "C#5",
                    "midi": 73,
                    "time": 46.75624999999997,
                    "velocity": 0.5433070866141733,
                    "duration": 0.10833333333333428
                },
                {
                    "name": "D5",
                    "midi": 74,
                    "time": 46.86458333333331,
                    "velocity": 0.5433070866141733,
                    "duration": 0.125
                },
                {
                    "name": "E5",
                    "midi": 76,
                    "time": 47.00729166666664,
                    "velocity": 0.5433070866141733,
                    "duration": 0.35729166666666856
                },
                {
                    "name": "D5",
                    "midi": 74,
                    "time": 47.36666666666664,
                    "velocity": 0.5433070866141733,
                    "duration": 0.10208333333333286
                },
                {
                    "name": "E5",
                    "midi": 76,
                    "time": 47.50312499999997,
                    "velocity": 0.5433070866141733,
                    "duration": 0.36145833333333144
                },
                {
                    "name": "D5",
                    "midi": 74,
                    "time": 47.87604166666663,
                    "velocity": 0.5433070866141733,
                    "duration": 0.09270833333333428
                },
                {
                    "name": "E5",
                    "midi": 76,
                    "time": 48.01041666666663,
                    "velocity": 0.5433070866141733,
                    "duration": 0.1041666666666643
                },
                {
                    "name": "D5",
                    "midi": 74,
                    "time": 48.12395833333329,
                    "velocity": 0.5433070866141733,
                    "duration": 0.11562500000000142
                },
                {
                    "name": "C#5",
                    "midi": 73,
                    "time": 48.24374999999996,
                    "velocity": 0.5433070866141733,
                    "duration": 0.3374999999999986
                },
                {
                    "name": "D5",
                    "midi": 74,
                    "time": 48.620833333333294,
                    "velocity": 0.5433070866141733,
                    "duration": 0.11874999999999858
                },
                {
                    "name": "C#5",
                    "midi": 73,
                    "time": 48.75624999999996,
                    "velocity": 0.5433070866141733,
                    "duration": 0.10833333333333428
                },
                {
                    "name": "D5",
                    "midi": 74,
                    "time": 48.87187499999996,
                    "velocity": 0.5433070866141733,
                    "duration": 0.11770833333333286
                },
                {
                    "name": "E5",
                    "midi": 76,
                    "time": 48.99999999999996,
                    "velocity": 0.5984251968503937,
                    "duration": 0.3645833333333357
                },
                {
                    "name": "F5",
                    "midi": 77,
                    "time": 49.377083333333296,
                    "velocity": 0.6062992125984252,
                    "duration": 0.09166666666666856
                },
                {
                    "name": "F5",
                    "midi": 77,
                    "time": 49.49166666666663,
                    "velocity": 0.6062992125984252,
                    "duration": 0.12291666666666856
                },
                {
                    "name": "E5",
                    "midi": 76,
                    "time": 49.635416666666636,
                    "velocity": 0.6062992125984252,
                    "duration": 0.0833333333333357
                },
                {
                    "name": "E5",
                    "midi": 76,
                    "time": 49.75520833333331,
                    "velocity": 0.6141732283464567,
                    "duration": 0.109375
                },
                {
                    "name": "D#5",
                    "midi": 75,
                    "time": 49.867708333333304,
                    "velocity": 0.6141732283464567,
                    "duration": 0.10104166666666714
                },
                {
                    "name": "D#5",
                    "midi": 75,
                    "time": 49.998958333333306,
                    "velocity": 0.6220472440944882,
                    "duration": 0.11562500000000142
                },
                {
                    "name": "E5",
                    "midi": 76,
                    "time": 50.12916666666664,
                    "velocity": 0.6220472440944882,
                    "duration": 0.08958333333333002
                },
                {
                    "name": "E5",
                    "midi": 76,
                    "time": 50.260416666666636,
                    "velocity": 0.6220472440944882,
                    "duration": 0.1041666666666643
                },
                {
                    "name": "D#5",
                    "midi": 75,
                    "time": 50.381249999999966,
                    "velocity": 0.6299212598425197,
                    "duration": 0.08749999999999858
                },
                {
                    "name": "D#5",
                    "midi": 75,
                    "time": 50.50312499999996,
                    "velocity": 0.6299212598425197,
                    "duration": 0.11145833333333144
                },
                {
                    "name": "D5",
                    "midi": 74,
                    "time": 50.62812499999996,
                    "velocity": 0.6299212598425197,
                    "duration": 0.09062500000000284
                },
                {
                    "name": "D5",
                    "midi": 74,
                    "time": 50.75937499999996,
                    "velocity": 0.6377952755905512,
                    "duration": 0.10520833333333002
                },
                {
                    "name": "A4",
                    "midi": 69,
                    "time": 50.87916666666663,
                    "velocity": 0.6377952755905512,
                    "duration": 0.08958333333333002
                },
                {
                    "name": "D#5",
                    "midi": 75,
                    "time": 50.99583333333329,
                    "velocity": 0.6377952755905512,
                    "duration": 0.3687499999999986
                },
                {
                    "name": "D5",
                    "midi": 74,
                    "time": 51.376041666666616,
                    "velocity": 0.6456692913385826,
                    "duration": 0.09270833333333428
                },
                {
                    "name": "D5",
                    "midi": 74,
                    "time": 51.49583333333328,
                    "velocity": 0.6456692913385826,
                    "duration": 0.11874999999999858
                },
                {
                    "name": "A4",
                    "midi": 69,
                    "time": 51.62604166666661,
                    "velocity": 0.6456692913385826,
                    "duration": 0.11354166666666998
                },
                {
                    "name": "D#5",
                    "midi": 75,
                    "time": 52.25416666666661,
                    "velocity": 0.6456692913385826,
                    "duration": 0.3604166666666657
                },
                {
                    "name": "D5",
                    "midi": 74,
                    "time": 52.619791666666615,
                    "velocity": 0.6456692913385826,
                    "duration": 0.0989583333333357
                },
                {
                    "name": "D5",
                    "midi": 74,
                    "time": 52.751041666666616,
                    "velocity": 0.6456692913385826,
                    "duration": 0.11354166666666998
                },
                {
                    "name": "A4",
                    "midi": 69,
                    "time": 52.87499999999995,
                    "velocity": 0.6456692913385826,
                    "duration": 0.09375
                },
                {
                    "name": "D#5",
                    "midi": 75,
                    "time": 53.00937499999995,
                    "velocity": 0.6456692913385826,
                    "duration": 0.10520833333333002
                },
                {
                    "name": "D5",
                    "midi": 74,
                    "time": 53.12916666666661,
                    "velocity": 0.6456692913385826,
                    "duration": 0.08958333333333002
                },
                {
                    "name": "D5",
                    "midi": 74,
                    "time": 53.256249999999945,
                    "velocity": 0.6456692913385826,
                    "duration": 0.10833333333333428
                },
                {
                    "name": "A4",
                    "midi": 69,
                    "time": 53.37812499999995,
                    "velocity": 0.6456692913385826,
                    "duration": 0.09062500000000284
                },
                {
                    "name": "C#4",
                    "midi": 61,
                    "time": 54.748958333333285,
                    "velocity": 0.5433070866141733,
                    "duration": 0.08229166666666998
                },
                {
                    "name": "C#4",
                    "midi": 61,
                    "time": 54.88124999999995,
                    "velocity": 0.5433070866141733,
                    "duration": 0.07500000000000284
                },
                {
                    "name": "F#4",
                    "midi": 66,
                    "time": 55.005208333333286,
                    "velocity": 0.5433070866141733,
                    "duration": 0.16770833333333002
                },
                {
                    "name": "C#4",
                    "midi": 61,
                    "time": 55.260416666666615,
                    "velocity": 0.5433070866141733,
                    "duration": 0.16250000000000142
                },
                {
                    "name": "C5",
                    "midi": 72,
                    "time": 55.452083333333285,
                    "velocity": 0.5433070866141733,
                    "duration": 0.03750000000000142
                },
                {
                    "name": "C#5",
                    "midi": 73,
                    "time": 55.503124999999955,
                    "velocity": 0.5433070866141733,
                    "duration": 0.16979166666666856
                },
                {
                    "name": "C#4",
                    "midi": 61,
                    "time": 55.759374999999956,
                    "velocity": 0.5433070866141733,
                    "duration": 0.16354166666666714
                },
                {
                    "name": "G#4",
                    "midi": 68,
                    "time": 55.960416666666625,
                    "velocity": 0.5433070866141733,
                    "duration": 0.02916666666666856
                },
                {
                    "name": "A4",
                    "midi": 69,
                    "time": 56.00937499999996,
                    "velocity": 0.5433070866141733,
                    "duration": 0.16354166666666714
                },
                {
                    "name": "C#4",
                    "midi": 61,
                    "time": 56.249999999999964,
                    "velocity": 0.5433070866141733,
                    "duration": 0.17291666666666572
                },
                {
                    "name": "A#4",
                    "midi": 70,
                    "time": 56.499999999999964,
                    "velocity": 0.5433070866141733,
                    "duration": 0.1145833333333357
                },
                {
                    "name": "A4",
                    "midi": 69,
                    "time": 56.6239583333333,
                    "velocity": 0.5433070866141733,
                    "duration": 0.09479166666666572
                },
                {
                    "name": "A#4",
                    "midi": 70,
                    "time": 56.7583333333333,
                    "velocity": 0.5433070866141733,
                    "duration": 0.10625000000000284
                },
                {
                    "name": "A4",
                    "midi": 69,
                    "time": 56.88437499999997,
                    "velocity": 0.5433070866141733,
                    "duration": 0.08437500000000142
                },
                {
                    "name": "F#4",
                    "midi": 66,
                    "time": 56.992708333333304,
                    "velocity": 0.5433070866141733,
                    "duration": 0.18020833333333286
                },
                {
                    "name": "C#4",
                    "midi": 61,
                    "time": 57.244791666666636,
                    "velocity": 0.5433070866141733,
                    "duration": 0.17812500000000142
                },
                {
                    "name": "C5",
                    "midi": 72,
                    "time": 57.452083333333306,
                    "velocity": 0.5433070866141733,
                    "duration": 0.03750000000000142
                },
                {
                    "name": "C#5",
                    "midi": 73,
                    "time": 57.50520833333331,
                    "velocity": 0.5433070866141733,
                    "duration": 0.16770833333333002
                },
                {
                    "name": "C#4",
                    "midi": 61,
                    "time": 57.75937499999997,
                    "velocity": 0.5433070866141733,
                    "duration": 0.16354166666666714
                },
                {
                    "name": "G#4",
                    "midi": 68,
                    "time": 57.961458333333304,
                    "velocity": 0.5433070866141733,
                    "duration": 0.028125000000002842
                },
                {
                    "name": "A4",
                    "midi": 69,
                    "time": 57.98958333333331,
                    "velocity": 0.5433070866141733,
                    "duration": 0.18333333333333002
                },
                {
                    "name": "C#4",
                    "midi": 61,
                    "time": 58.25312499999997,
                    "velocity": 0.5433070866141733,
                    "duration": 0.16979166666666856
                },
                {
                    "name": "A#4",
                    "midi": 70,
                    "time": 58.48958333333331,
                    "velocity": 0.5433070866141733,
                    "duration": 0.125
                },
                {
                    "name": "A4",
                    "midi": 69,
                    "time": 58.62604166666664,
                    "velocity": 0.5433070866141733,
                    "duration": 0.09270833333333428
                },
                {
                    "name": "A#4",
                    "midi": 70,
                    "time": 58.75104166666664,
                    "velocity": 0.5433070866141733,
                    "duration": 0.11354166666666998
                },
                {
                    "name": "A4",
                    "midi": 69,
                    "time": 58.873958333333306,
                    "velocity": 0.5433070866141733,
                    "duration": 0.09479166666666572
                },
                {
                    "name": "A#4",
                    "midi": 70,
                    "time": 59.49062499999997,
                    "velocity": 0.5433070866141733,
                    "duration": 0.12395833333333428
                },
                {
                    "name": "A4",
                    "midi": 69,
                    "time": 59.63541666666664,
                    "velocity": 0.5433070866141733,
                    "duration": 0.0833333333333357
                },
                {
                    "name": "A#4",
                    "midi": 70,
                    "time": 59.741666666666646,
                    "velocity": 0.5433070866141733,
                    "duration": 0.12291666666666856
                },
                {
                    "name": "A4",
                    "midi": 69,
                    "time": 59.87708333333332,
                    "velocity": 0.5433070866141733,
                    "duration": 0.09166666666666856
                },
                {
                    "name": "A#4",
                    "midi": 70,
                    "time": 60.49062499999999,
                    "velocity": 0.5433070866141733,
                    "duration": 0.12395833333333428
                },
                {
                    "name": "A4",
                    "midi": 69,
                    "time": 60.61770833333332,
                    "velocity": 0.5433070866141733,
                    "duration": 0.10104166666666714
                },
                {
                    "name": "A#4",
                    "midi": 70,
                    "time": 60.75312499999998,
                    "velocity": 0.5433070866141733,
                    "duration": 0.11145833333333144
                },
                {
                    "name": "A4",
                    "midi": 69,
                    "time": 60.870833333333316,
                    "velocity": 0.5433070866141733,
                    "duration": 0.09791666666666998
                },
                {
                    "name": "C#4",
                    "midi": 61,
                    "time": 61.245833333333316,
                    "velocity": 0.5433070866141733,
                    "duration": 0.11874999999999858
                },
                {
                    "name": "D4",
                    "midi": 62,
                    "time": 61.37812499999998,
                    "velocity": 0.5433070866141733,
                    "duration": 0.11145833333333144
                },
                {
                    "name": "E4",
                    "midi": 64,
                    "time": 61.49791666666665,
                    "velocity": 0.5433070866141733,
                    "duration": 0.17499999999999716
                },
                {
                    "name": "D4",
                    "midi": 62,
                    "time": 61.74791666666665,
                    "velocity": 0.5433070866141733,
                    "duration": 0.11666666666666714
                },
                {
                    "name": "E4",
                    "midi": 64,
                    "time": 61.868749999999984,
                    "velocity": 0.5433070866141733,
                    "duration": 0.12083333333333002
                },
                {
                    "name": "F#4",
                    "midi": 66,
                    "time": 62.00416666666665,
                    "velocity": 0.5433070866141733,
                    "duration": 0.16875000000000284
                }
            ],
            "controlChanges": {
                "7": [
                    {
                        "number": 7,
                        "time": 0,
                        "value": 1
                    }
                ],
                "10": [
                    {
                        "number": 10,
                        "time": 0,
                        "value": 0.5354330708661418
                    }
                ],
                "91": [
                    {
                        "number": 91,
                        "time": 0.0010416666666666667,
                        "value": 0.47244094488188976
                    },
                    {
                        "number": 91,
                        "time": 62.99687499999998,
                        "value": 0
                    }
                ],
                "93": [
                    {
                        "number": 93,
                        "time": 0.0010416666666666667,
                        "value": 0.12598425196850394
                    },
                    {
                        "number": 93,
                        "time": 62.99687499999998,
                        "value": 0
                    }
                ],
                "121": [
                    {
                        "number": 121,
                        "time": 0,
                        "value": 0
                    },
                    {
                        "number": 121,
                        "time": 62.99791666666665,
                        "value": 0
                    }
                ]
            },
            "id": 2,
            "name": "RH",
            "instrumentNumber": 0,
            "instrument": "acoustic grand piano",
            "instrumentFamily": "piano",
            "channelNumber": 0,
            "isPercussion": false
        },
        {
            "startTime": 0,
            "duration": 62.172916666666666,
            "length": 237,
            "notes": [
                {
                    "name": "F#3",
                    "midi": 54,
                    "time": 0,
                    "velocity": 0.5590551181102362,
                    "duration": 0.17291666666666666
                },
                {
                    "name": "A3",
                    "midi": 57,
                    "time": 0.25,
                    "velocity": 0.5590551181102362,
                    "duration": 0.17291666666666666
                },
                {
                    "name": "F#3",
                    "midi": 54,
                    "time": 0.5,
                    "velocity": 0.5590551181102362,
                    "duration": 0.1729166666666666
                },
                {
                    "name": "A3",
                    "midi": 57,
                    "time": 0.75625,
                    "velocity": 0.5590551181102362,
                    "duration": 0.16666666666666663
                },
                {
                    "name": "F#3",
                    "midi": 54,
                    "time": 0.9989583333333333,
                    "velocity": 0.5590551181102362,
                    "duration": 0.17395833333333333
                },
                {
                    "name": "A3",
                    "midi": 57,
                    "time": 1.2395833333333333,
                    "velocity": 0.5590551181102362,
                    "duration": 0.18333333333333335
                },
                {
                    "name": "F#3",
                    "midi": 54,
                    "time": 1.496875,
                    "velocity": 0.5590551181102362,
                    "duration": 0.17604166666666665
                },
                {
                    "name": "A3",
                    "midi": 57,
                    "time": 1.746875,
                    "velocity": 0.5590551181102362,
                    "duration": 0.17604166666666665
                },
                {
                    "name": "F#3",
                    "midi": 54,
                    "time": 1.9916666666666667,
                    "velocity": 0.5590551181102362,
                    "duration": 0.1812499999999999
                },
                {
                    "name": "A3",
                    "midi": 57,
                    "time": 2.2572916666666667,
                    "velocity": 0.5590551181102362,
                    "duration": 0.1656249999999999
                },
                {
                    "name": "F#3",
                    "midi": 54,
                    "time": 2.5052083333333335,
                    "velocity": 0.5590551181102362,
                    "duration": 0.16770833333333313
                },
                {
                    "name": "A3",
                    "midi": 57,
                    "time": 2.7583333333333333,
                    "velocity": 0.5590551181102362,
                    "duration": 0.1645833333333333
                },
                {
                    "name": "F#3",
                    "midi": 54,
                    "time": 3.003125,
                    "velocity": 0.5590551181102362,
                    "duration": 0.16979166666666679
                },
                {
                    "name": "A3",
                    "midi": 57,
                    "time": 3.253125,
                    "velocity": 0.5590551181102362,
                    "duration": 0.16979166666666679
                },
                {
                    "name": "F#3",
                    "midi": 54,
                    "time": 3.5,
                    "velocity": 0.5590551181102362,
                    "duration": 0.1729166666666666
                },
                {
                    "name": "A3",
                    "midi": 57,
                    "time": 3.7552083333333335,
                    "velocity": 0.5590551181102362,
                    "duration": 0.16770833333333313
                },
                {
                    "name": "F#3",
                    "midi": 54,
                    "time": 4.005208333333333,
                    "velocity": 0.5590551181102362,
                    "duration": 0.16770833333333357
                },
                {
                    "name": "A3",
                    "midi": 57,
                    "time": 4.260416666666667,
                    "velocity": 0.5590551181102362,
                    "duration": 0.16249999999999964
                },
                {
                    "name": "F#3",
                    "midi": 54,
                    "time": 4.498958333333333,
                    "velocity": 0.5590551181102362,
                    "duration": 0.17395833333333321
                },
                {
                    "name": "A3",
                    "midi": 57,
                    "time": 4.746875,
                    "velocity": 0.5590551181102362,
                    "duration": 0.17604166666666643
                },
                {
                    "name": "F#3",
                    "midi": 54,
                    "time": 4.991666666666666,
                    "velocity": 0.5590551181102362,
                    "duration": 0.18125000000000036
                },
                {
                    "name": "G#3",
                    "midi": 56,
                    "time": 5.258333333333333,
                    "velocity": 0.5590551181102362,
                    "duration": 0.16458333333333375
                },
                {
                    "name": "F#3",
                    "midi": 54,
                    "time": 5.507291666666666,
                    "velocity": 0.5590551181102362,
                    "duration": 0.16562500000000036
                },
                {
                    "name": "C#3",
                    "midi": 49,
                    "time": 5.748958333333333,
                    "velocity": 0.5590551181102362,
                    "duration": 0.17395833333333321
                },
                {
                    "name": "F#3",
                    "midi": 54,
                    "time": 5.991666666666666,
                    "velocity": 0.5590551181102362,
                    "duration": 0.18125000000000036
                },
                {
                    "name": "G#3",
                    "midi": 56,
                    "time": 6.258333333333333,
                    "velocity": 0.5590551181102362,
                    "duration": 0.16458333333333375
                },
                {
                    "name": "F#3",
                    "midi": 54,
                    "time": 6.505208333333333,
                    "velocity": 0.5590551181102362,
                    "duration": 0.16770833333333357
                },
                {
                    "name": "C#3",
                    "midi": 49,
                    "time": 6.739583333333333,
                    "velocity": 0.5590551181102362,
                    "duration": 0.18333333333333357
                },
                {
                    "name": "F#3",
                    "midi": 54,
                    "time": 6.997916666666667,
                    "velocity": 0.5590551181102362,
                    "duration": 0.17499999999999982
                },
                {
                    "name": "G#3",
                    "midi": 56,
                    "time": 7.259375,
                    "velocity": 0.5590551181102362,
                    "duration": 0.16354166666666625
                },
                {
                    "name": "F#3",
                    "midi": 54,
                    "time": 7.490625,
                    "velocity": 0.5590551181102362,
                    "duration": 0.18229166666666696
                },
                {
                    "name": "C#3",
                    "midi": 49,
                    "time": 7.742708333333333,
                    "velocity": 0.5590551181102362,
                    "duration": 0.18020833333333375
                },
                {
                    "name": "F#3",
                    "midi": 54,
                    "time": 7.99375,
                    "velocity": 0.5590551181102362,
                    "duration": 0.17916666666666714
                },
                {
                    "name": "G#3",
                    "midi": 56,
                    "time": 8.241666666666667,
                    "velocity": 0.5590551181102362,
                    "duration": 0.18125000000000036
                },
                {
                    "name": "F#3",
                    "midi": 54,
                    "time": 8.502083333333335,
                    "velocity": 0.5590551181102362,
                    "duration": 0.1708333333333325
                },
                {
                    "name": "C#3",
                    "midi": 49,
                    "time": 8.741666666666667,
                    "velocity": 0.5590551181102362,
                    "duration": 0.18125000000000036
                },
                {
                    "name": "F#3",
                    "midi": 54,
                    "time": 9.002083333333335,
                    "velocity": 0.5511811023622047,
                    "duration": 0.1708333333333325
                },
                {
                    "name": "G#3",
                    "midi": 56,
                    "time": 9.252083333333335,
                    "velocity": 0.5748031496062992,
                    "duration": 0.1708333333333325
                },
                {
                    "name": "F#3",
                    "midi": 54,
                    "time": 9.504166666666668,
                    "velocity": 0.5984251968503937,
                    "duration": 0.1687499999999993
                },
                {
                    "name": "C#3",
                    "midi": 49,
                    "time": 9.755208333333334,
                    "velocity": 0.6141732283464567,
                    "duration": 0.16770833333333357
                },
                {
                    "name": "F#3",
                    "midi": 54,
                    "time": 10.009375,
                    "velocity": 0.6377952755905512,
                    "duration": 0.16354166666666714
                },
                {
                    "name": "G#3",
                    "midi": 56,
                    "time": 10.254166666666668,
                    "velocity": 0.6692913385826772,
                    "duration": 0.1687499999999993
                },
                {
                    "name": "F#3",
                    "midi": 54,
                    "time": 10.495833333333334,
                    "velocity": 0.7007874015748031,
                    "duration": 0.17708333333333393
                },
                {
                    "name": "C#3",
                    "midi": 49,
                    "time": 10.756250000000001,
                    "velocity": 0.7007874015748031,
                    "duration": 0.16666666666666607
                },
                {
                    "name": "F#3",
                    "midi": 54,
                    "time": 10.996875000000001,
                    "velocity": 0.7007874015748031,
                    "duration": 0.17604166666666643
                },
                {
                    "name": "G#3",
                    "midi": 56,
                    "time": 11.260416666666668,
                    "velocity": 0.7007874015748031,
                    "duration": 0.16249999999999964
                },
                {
                    "name": "F#3",
                    "midi": 54,
                    "time": 11.506250000000001,
                    "velocity": 0.7007874015748031,
                    "duration": 0.16666666666666607
                },
                {
                    "name": "C#3",
                    "midi": 49,
                    "time": 11.74375,
                    "velocity": 0.6771653543307087,
                    "duration": 0.17916666666666714
                },
                {
                    "name": "F#3",
                    "midi": 54,
                    "time": 11.992708333333335,
                    "velocity": 0.6535433070866141,
                    "duration": 0.18020833333333286
                },
                {
                    "name": "G#3",
                    "midi": 56,
                    "time": 12.247916666666667,
                    "velocity": 0.6299212598425197,
                    "duration": 0.1750000000000007
                },
                {
                    "name": "F#3",
                    "midi": 54,
                    "time": 12.492708333333335,
                    "velocity": 0.6141732283464567,
                    "duration": 0.18020833333333286
                },
                {
                    "name": "C#3",
                    "midi": 49,
                    "time": 12.752083333333335,
                    "velocity": 0.5905511811023622,
                    "duration": 0.1708333333333325
                },
                {
                    "name": "E3",
                    "midi": 52,
                    "time": 12.99375,
                    "velocity": 0.5669291338582677,
                    "duration": 0.17916666666666714
                },
                {
                    "name": "G#3",
                    "midi": 56,
                    "time": 13.260416666666668,
                    "velocity": 0.5590551181102362,
                    "duration": 0.16249999999999964
                },
                {
                    "name": "E3",
                    "midi": 52,
                    "time": 13.492708333333335,
                    "velocity": 0.5590551181102362,
                    "duration": 0.18020833333333286
                },
                {
                    "name": "B2",
                    "midi": 47,
                    "time": 13.747916666666667,
                    "velocity": 0.5590551181102362,
                    "duration": 0.1750000000000007
                },
                {
                    "name": "E3",
                    "midi": 52,
                    "time": 13.995833333333334,
                    "velocity": 0.5590551181102362,
                    "duration": 0.17708333333333393
                },
                {
                    "name": "G#3",
                    "midi": 56,
                    "time": 14.241666666666667,
                    "velocity": 0.5590551181102362,
                    "duration": 0.18125000000000036
                },
                {
                    "name": "E3",
                    "midi": 52,
                    "time": 14.49375,
                    "velocity": 0.5590551181102362,
                    "duration": 0.17916666666666714
                },
                {
                    "name": "B2",
                    "midi": 47,
                    "time": 14.739583333333334,
                    "velocity": 0.5590551181102362,
                    "duration": 0.18333333333333357
                },
                {
                    "name": "F#3",
                    "midi": 54,
                    "time": 15.006250000000001,
                    "velocity": 0.5590551181102362,
                    "duration": 0.16666666666666607
                },
                {
                    "name": "A3",
                    "midi": 57,
                    "time": 15.255208333333334,
                    "velocity": 0.5590551181102362,
                    "duration": 0.16770833333333357
                },
                {
                    "name": "F#3",
                    "midi": 54,
                    "time": 15.508333333333335,
                    "velocity": 0.5590551181102362,
                    "duration": 0.16458333333333286
                },
                {
                    "name": "A3",
                    "midi": 57,
                    "time": 15.739583333333334,
                    "velocity": 0.5590551181102362,
                    "duration": 0.18333333333333357
                },
                {
                    "name": "F#3",
                    "midi": 54,
                    "time": 15.998958333333334,
                    "velocity": 0.5590551181102362,
                    "duration": 0.173958333333335
                },
                {
                    "name": "A3",
                    "midi": 57,
                    "time": 16.24791666666667,
                    "velocity": 0.5590551181102362,
                    "duration": 0.1750000000000007
                },
                {
                    "name": "F#3",
                    "midi": 54,
                    "time": 16.50625,
                    "velocity": 0.5590551181102362,
                    "duration": 0.16666666666666785
                },
                {
                    "name": "A3",
                    "midi": 57,
                    "time": 16.748958333333334,
                    "velocity": 0.5590551181102362,
                    "duration": 0.173958333333335
                },
                {
                    "name": "F#3",
                    "midi": 54,
                    "time": 17.000000000000004,
                    "velocity": 0.5275590551181102,
                    "duration": 0.17291666666666572
                },
                {
                    "name": "A3",
                    "midi": 57,
                    "time": 17.255208333333336,
                    "velocity": 0.5196850393700787,
                    "duration": 0.16770833333333357
                },
                {
                    "name": "F#3",
                    "midi": 54,
                    "time": 17.494791666666668,
                    "velocity": 0.5039370078740157,
                    "duration": 0.17812500000000142
                },
                {
                    "name": "A3",
                    "midi": 57,
                    "time": 17.75104166666667,
                    "velocity": 0.49606299212598426,
                    "duration": 0.171875
                },
                {
                    "name": "F#3",
                    "midi": 54,
                    "time": 17.990625,
                    "velocity": 0.4881889763779528,
                    "duration": 0.18229166666666785
                },
                {
                    "name": "A3",
                    "midi": 57,
                    "time": 18.259375000000002,
                    "velocity": 0.4645669291338583,
                    "duration": 0.16354166666666714
                },
                {
                    "name": "C#3",
                    "midi": 49,
                    "time": 18.508333333333336,
                    "velocity": 0.4645669291338583,
                    "duration": 0.16458333333333286
                },
                {
                    "name": "A3",
                    "midi": 57,
                    "time": 18.75729166666667,
                    "velocity": 0.4645669291338583,
                    "duration": 0.16562499999999858
                },
                {
                    "name": "F#3",
                    "midi": 54,
                    "time": 18.990625,
                    "velocity": 0.4645669291338583,
                    "duration": 0.18229166666666785
                },
                {
                    "name": "A3",
                    "midi": 57,
                    "time": 19.250000000000004,
                    "velocity": 0.4645669291338583,
                    "duration": 0.17291666666666572
                },
                {
                    "name": "C#3",
                    "midi": 49,
                    "time": 19.503125000000004,
                    "velocity": 0.4645669291338583,
                    "duration": 0.169791666666665
                },
                {
                    "name": "A3",
                    "midi": 57,
                    "time": 19.755208333333336,
                    "velocity": 0.4645669291338583,
                    "duration": 0.16770833333333357
                },
                {
                    "name": "G#3",
                    "midi": 56,
                    "time": 20.005208333333336,
                    "velocity": 0.4645669291338583,
                    "duration": 0.16770833333333357
                },
                {
                    "name": "A3",
                    "midi": 57,
                    "time": 20.244791666666668,
                    "velocity": 0.4645669291338583,
                    "duration": 0.17812500000000142
                },
                {
                    "name": "C#3",
                    "midi": 49,
                    "time": 20.509375000000002,
                    "velocity": 0.4645669291338583,
                    "duration": 0.16354166666666714
                },
                {
                    "name": "A3",
                    "midi": 57,
                    "time": 20.75625,
                    "velocity": 0.4645669291338583,
                    "duration": 0.16666666666666785
                },
                {
                    "name": "G#3",
                    "midi": 56,
                    "time": 20.993750000000002,
                    "velocity": 0.4645669291338583,
                    "duration": 0.17916666666666714
                },
                {
                    "name": "A3",
                    "midi": 57,
                    "time": 21.25104166666667,
                    "velocity": 0.4645669291338583,
                    "duration": 0.171875
                },
                {
                    "name": "C#3",
                    "midi": 49,
                    "time": 21.490625,
                    "velocity": 0.4645669291338583,
                    "duration": 0.18229166666666785
                },
                {
                    "name": "A3",
                    "midi": 57,
                    "time": 21.750000000000004,
                    "velocity": 0.4645669291338583,
                    "duration": 0.17291666666666572
                },
                {
                    "name": "F#3",
                    "midi": 54,
                    "time": 22.00625,
                    "velocity": 0.4645669291338583,
                    "duration": 0.16666666666666785
                },
                {
                    "name": "A3",
                    "midi": 57,
                    "time": 22.25416666666667,
                    "velocity": 0.4881889763779528,
                    "duration": 0.1687499999999993
                },
                {
                    "name": "B3",
                    "midi": 59,
                    "time": 22.489583333333336,
                    "velocity": 0.5511811023622047,
                    "duration": 0.18333333333333357
                },
                {
                    "name": "C#4",
                    "midi": 61,
                    "time": 22.755208333333336,
                    "velocity": 0.5669291338582677,
                    "duration": 0.16770833333333357
                },
                {
                    "name": "D4",
                    "midi": 62,
                    "time": 23.00104166666667,
                    "velocity": 0.5905511811023622,
                    "duration": 0.171875
                },
                {
                    "name": "E4",
                    "midi": 64,
                    "time": 23.259375000000002,
                    "velocity": 0.5984251968503937,
                    "duration": 0.16354166666666714
                },
                {
                    "name": "F#4",
                    "midi": 66,
                    "time": 23.508333333333336,
                    "velocity": 0.5984251968503937,
                    "duration": 0.16458333333333286
                },
                {
                    "name": "G#4",
                    "midi": 68,
                    "time": 23.75625,
                    "velocity": 0.5984251968503937,
                    "duration": 0.16666666666666785
                },
                {
                    "name": "A4",
                    "midi": 69,
                    "time": 23.995833333333337,
                    "velocity": 0.5984251968503937,
                    "duration": 0.17708333333333215
                },
                {
                    "name": "A#4",
                    "midi": 70,
                    "time": 24.24791666666667,
                    "velocity": 0.5984251968503937,
                    "duration": 0.49166666666666714
                },
                {
                    "name": "A4",
                    "midi": 69,
                    "time": 24.750000000000004,
                    "velocity": 0.5984251968503937,
                    "duration": 0.48958333333333215
                },
                {
                    "name": "G#4",
                    "midi": 68,
                    "time": 25.240625,
                    "velocity": 0.6220472440944882,
                    "duration": 0.4989583333333343
                },
                {
                    "name": "A4",
                    "midi": 69,
                    "time": 25.753125,
                    "velocity": 0.6692913385826772,
                    "duration": 0.4656249999999993
                },
                {
                    "name": "G#4",
                    "midi": 68,
                    "time": 26.239583333333332,
                    "velocity": 0.7086614173228346,
                    "duration": 0.5
                },
                {
                    "name": "G4",
                    "midi": 67,
                    "time": 26.756249999999998,
                    "velocity": 0.7086614173228346,
                    "duration": 0.4833333333333343
                },
                {
                    "name": "D4",
                    "midi": 62,
                    "time": 27.255208333333332,
                    "velocity": 0.6850393700787402,
                    "duration": 0.484375
                },
                {
                    "name": "C#4",
                    "midi": 61,
                    "time": 27.74375,
                    "velocity": 0.6299212598425197,
                    "duration": 0.49583333333333357
                },
                {
                    "name": "B3",
                    "midi": 59,
                    "time": 28.242708333333333,
                    "velocity": 0.5984251968503937,
                    "duration": 0.47604166666666714
                },
                {
                    "name": "F#3",
                    "midi": 54,
                    "time": 28.740625,
                    "velocity": 0.5984251968503937,
                    "duration": 0.12395833333333428
                },
                {
                    "name": "G#3",
                    "midi": 56,
                    "time": 28.87916666666667,
                    "velocity": 0.5984251968503937,
                    "duration": 0.11041666666666572
                },
                {
                    "name": "A3",
                    "midi": 57,
                    "time": 28.989583333333336,
                    "velocity": 0.5984251968503937,
                    "duration": 0.18333333333333357
                },
                {
                    "name": "D4",
                    "midi": 62,
                    "time": 29.246875000000003,
                    "velocity": 0.5984251968503937,
                    "duration": 0.17604166666666643
                },
                {
                    "name": "G#3",
                    "midi": 56,
                    "time": 29.50416666666667,
                    "velocity": 0.5984251968503937,
                    "duration": 0.1687499999999993
                },
                {
                    "name": "A3",
                    "midi": 57,
                    "time": 29.75625,
                    "velocity": 0.5984251968503937,
                    "duration": 0.10833333333333428
                },
                {
                    "name": "B3",
                    "midi": 59,
                    "time": 29.873958333333334,
                    "velocity": 0.5984251968503937,
                    "duration": 0.11562500000000142
                },
                {
                    "name": "C4",
                    "midi": 60,
                    "time": 30.010416666666668,
                    "velocity": 0.5984251968503937,
                    "duration": 0.16250000000000142
                },
                {
                    "name": "D4",
                    "midi": 62,
                    "time": 30.253125000000004,
                    "velocity": 0.5984251968503937,
                    "duration": 0.169791666666665
                },
                {
                    "name": "E4",
                    "midi": 64,
                    "time": 30.495833333333337,
                    "velocity": 0.5984251968503937,
                    "duration": 0.17708333333333215
                },
                {
                    "name": "F4",
                    "midi": 65,
                    "time": 30.750000000000004,
                    "velocity": 0.5984251968503937,
                    "duration": 0.17291666666666572
                },
                {
                    "name": "D4",
                    "midi": 62,
                    "time": 31.008333333333336,
                    "velocity": 0.5984251968503937,
                    "duration": 0.689583333333335
                },
                {
                    "name": "A3",
                    "midi": 57,
                    "time": 31.740625000000005,
                    "velocity": 0.5984251968503937,
                    "duration": 0.18229166666666785
                },
                {
                    "name": "D4",
                    "midi": 62,
                    "time": 31.991666666666674,
                    "velocity": 0.5984251968503937,
                    "duration": 0.7062499999999972
                },
                {
                    "name": "A3",
                    "midi": 57,
                    "time": 32.74270833333334,
                    "velocity": 0.5984251968503937,
                    "duration": 0.18020833333333286
                },
                {
                    "name": "D4",
                    "midi": 62,
                    "time": 32.99270833333334,
                    "velocity": 0.5984251968503937,
                    "duration": 0.7052083333333314
                },
                {
                    "name": "A3",
                    "midi": 57,
                    "time": 33.759375000000006,
                    "velocity": 0.5590551181102362,
                    "duration": 0.16354166666666714
                },
                {
                    "name": "D4",
                    "midi": 62,
                    "time": 33.99583333333334,
                    "velocity": 0.5511811023622047,
                    "duration": 0.1770833333333357
                },
                {
                    "name": "C#4",
                    "midi": 61,
                    "time": 34.246875,
                    "velocity": 0.5433070866141733,
                    "duration": 0.17604166666666998
                },
                {
                    "name": "C4",
                    "midi": 60,
                    "time": 34.507291666666674,
                    "velocity": 0.5354330708661418,
                    "duration": 0.16562499999999858
                },
                {
                    "name": "F#3",
                    "midi": 54,
                    "time": 34.73958333333334,
                    "velocity": 0.5275590551181102,
                    "duration": 0.18333333333333002
                },
                {
                    "name": "B2",
                    "midi": 47,
                    "time": 35.007291666666674,
                    "velocity": 0.5118110236220472,
                    "duration": 0.16562499999999858
                },
                {
                    "name": "D#4",
                    "midi": 63,
                    "time": 35.24479166666667,
                    "velocity": 0.5118110236220472,
                    "duration": 0.17812500000000142
                },
                {
                    "name": "B2",
                    "midi": 47,
                    "time": 35.50833333333334,
                    "velocity": 0.48031496062992124,
                    "duration": 0.16458333333333286
                },
                {
                    "name": "D#4",
                    "midi": 63,
                    "time": 35.74479166666667,
                    "velocity": 0.48031496062992124,
                    "duration": 0.17812500000000142
                },
                {
                    "name": "B2",
                    "midi": 47,
                    "time": 35.99479166666667,
                    "velocity": 0.48031496062992124,
                    "duration": 0.17812500000000142
                },
                {
                    "name": "D#4",
                    "midi": 63,
                    "time": 36.243750000000006,
                    "velocity": 0.48031496062992124,
                    "duration": 0.17916666666666714
                },
                {
                    "name": "B2",
                    "midi": 47,
                    "time": 36.493750000000006,
                    "velocity": 0.48031496062992124,
                    "duration": 0.17916666666666714
                },
                {
                    "name": "D#4",
                    "midi": 63,
                    "time": 36.757291666666674,
                    "velocity": 0.48031496062992124,
                    "duration": 0.16562499999999858
                },
                {
                    "name": "B2",
                    "midi": 47,
                    "time": 37.00833333333334,
                    "velocity": 0.48031496062992124,
                    "duration": 0.16458333333333286
                },
                {
                    "name": "D#4",
                    "midi": 63,
                    "time": 37.25833333333334,
                    "velocity": 0.48031496062992124,
                    "duration": 0.16458333333333286
                },
                {
                    "name": "B2",
                    "midi": 47,
                    "time": 37.507291666666674,
                    "velocity": 0.49606299212598426,
                    "duration": 0.16562499999999858
                },
                {
                    "name": "B2",
                    "midi": 47,
                    "time": 37.75208333333334,
                    "velocity": 0.49606299212598426,
                    "duration": 0.11249999999999716
                },
                {
                    "name": "C#3",
                    "midi": 49,
                    "time": 37.864583333333336,
                    "velocity": 0.49606299212598426,
                    "duration": 0.125
                },
                {
                    "name": "D3",
                    "midi": 50,
                    "time": 37.99270833333333,
                    "velocity": 0.49606299212598426,
                    "duration": 0.18020833333333286
                },
                {
                    "name": "E3",
                    "midi": 52,
                    "time": 38.24270833333333,
                    "velocity": 0.49606299212598426,
                    "duration": 0.18020833333333286
                },
                {
                    "name": "F#3",
                    "midi": 54,
                    "time": 38.496874999999996,
                    "velocity": 0.49606299212598426,
                    "duration": 0.17604166666666998
                },
                {
                    "name": "G#3",
                    "midi": 56,
                    "time": 38.748958333333334,
                    "velocity": 0.49606299212598426,
                    "duration": 0.11562500000000142
                },
                {
                    "name": "A3",
                    "midi": 57,
                    "time": 38.86770833333333,
                    "velocity": 0.49606299212598426,
                    "duration": 0.12187500000000284
                },
                {
                    "name": "B3",
                    "midi": 59,
                    "time": 39.00833333333333,
                    "velocity": 0.49606299212598426,
                    "duration": 0.16458333333333286
                },
                {
                    "name": "C#4",
                    "midi": 61,
                    "time": 39.253125,
                    "velocity": 0.49606299212598426,
                    "duration": 0.16979166666666856
                },
                {
                    "name": "D4",
                    "midi": 62,
                    "time": 39.501041666666666,
                    "velocity": 0.49606299212598426,
                    "duration": 0.171875
                },
                {
                    "name": "D#4",
                    "midi": 63,
                    "time": 39.759375,
                    "velocity": 0.49606299212598426,
                    "duration": 0.16354166666666714
                },
                {
                    "name": "D4",
                    "midi": 62,
                    "time": 40,
                    "velocity": 0.49606299212598426,
                    "duration": 0.17291666666666572
                },
                {
                    "name": "D#4",
                    "midi": 63,
                    "time": 40.255208333333336,
                    "velocity": 0.48031496062992124,
                    "duration": 0.16770833333333002
                },
                {
                    "name": "D4",
                    "midi": 62,
                    "time": 40.510416666666664,
                    "velocity": 0.48031496062992124,
                    "duration": 0.16250000000000142
                },
                {
                    "name": "D#4",
                    "midi": 63,
                    "time": 40.760416666666664,
                    "velocity": 0.5118110236220472,
                    "duration": 0.16250000000000142
                },
                {
                    "name": "E4",
                    "midi": 64,
                    "time": 41.00833333333333,
                    "velocity": 0.5433070866141733,
                    "duration": 0.16458333333333286
                },
                {
                    "name": "C#4",
                    "midi": 61,
                    "time": 41.25729166666667,
                    "velocity": 0.5590551181102362,
                    "duration": 0.16562499999999858
                },
                {
                    "name": "E4",
                    "midi": 64,
                    "time": 41.49270833333333,
                    "velocity": 0.5590551181102362,
                    "duration": 0.18020833333333286
                },
                {
                    "name": "C#4",
                    "midi": 61,
                    "time": 41.746874999999996,
                    "velocity": 0.5590551181102362,
                    "duration": 0.17604166666666998
                },
                {
                    "name": "E4",
                    "midi": 64,
                    "time": 41.994791666666664,
                    "velocity": 0.5590551181102362,
                    "duration": 0.17812500000000142
                },
                {
                    "name": "C#4",
                    "midi": 61,
                    "time": 42.24270833333333,
                    "velocity": 0.5590551181102362,
                    "duration": 0.18020833333333286
                },
                {
                    "name": "E4",
                    "midi": 64,
                    "time": 42.510416666666664,
                    "velocity": 0.5590551181102362,
                    "duration": 0.16250000000000142
                },
                {
                    "name": "C#4",
                    "midi": 61,
                    "time": 42.755208333333336,
                    "velocity": 0.5590551181102362,
                    "duration": 0.16770833333333002
                },
                {
                    "name": "E4",
                    "midi": 64,
                    "time": 43.005208333333336,
                    "velocity": 0.5590551181102362,
                    "duration": 0.16770833333333002
                },
                {
                    "name": "C#4",
                    "midi": 61,
                    "time": 43.239583333333336,
                    "velocity": 0.5590551181102362,
                    "duration": 0.18333333333333002
                },
                {
                    "name": "E4",
                    "midi": 64,
                    "time": 43.503125,
                    "velocity": 0.5511811023622047,
                    "duration": 0.16979166666666856
                },
                {
                    "name": "C#4",
                    "midi": 61,
                    "time": 43.75729166666667,
                    "velocity": 0.5354330708661418,
                    "duration": 0.16562499999999858
                },
                {
                    "name": "E4",
                    "midi": 64,
                    "time": 44.005208333333336,
                    "velocity": 0.5275590551181102,
                    "duration": 0.16770833333333002
                },
                {
                    "name": "C#4",
                    "midi": 61,
                    "time": 44.25729166666667,
                    "velocity": 0.5118110236220472,
                    "duration": 0.16562499999999858
                },
                {
                    "name": "A3",
                    "midi": 57,
                    "time": 44.49166666666667,
                    "velocity": 0.5039370078740157,
                    "duration": 0.18124999999999858
                },
                {
                    "name": "G3",
                    "midi": 55,
                    "time": 44.755208333333336,
                    "velocity": 0.4881889763779528,
                    "duration": 0.16770833333333002
                },
                {
                    "name": "F#3",
                    "midi": 54,
                    "time": 44.996874999999996,
                    "velocity": 0.48031496062992124,
                    "duration": 0.17604166666666998
                },
                {
                    "name": "G3",
                    "midi": 55,
                    "time": 45.253125,
                    "velocity": 0.48031496062992124,
                    "duration": 0.16979166666666856
                },
                {
                    "name": "F#3",
                    "midi": 54,
                    "time": 45.509375,
                    "velocity": 0.48031496062992124,
                    "duration": 0.16354166666666714
                },
                {
                    "name": "C#3",
                    "midi": 49,
                    "time": 45.75833333333333,
                    "velocity": 0.48031496062992124,
                    "duration": 0.16458333333333286
                },
                {
                    "name": "F#3",
                    "midi": 54,
                    "time": 45.989583333333336,
                    "velocity": 0.48031496062992124,
                    "duration": 0.18333333333333002
                },
                {
                    "name": "G3",
                    "midi": 55,
                    "time": 46.25625,
                    "velocity": 0.48031496062992124,
                    "duration": 0.1666666666666643
                },
                {
                    "name": "F#3",
                    "midi": 54,
                    "time": 46.498958333333334,
                    "velocity": 0.48031496062992124,
                    "duration": 0.17395833333333144
                },
                {
                    "name": "C#3",
                    "midi": 49,
                    "time": 46.739583333333336,
                    "velocity": 0.48031496062992124,
                    "duration": 0.18333333333333002
                },
                {
                    "name": "F#3",
                    "midi": 54,
                    "time": 46.99375,
                    "velocity": 0.48031496062992124,
                    "duration": 0.17916666666666714
                },
                {
                    "name": "G3",
                    "midi": 55,
                    "time": 47.24791666666667,
                    "velocity": 0.48031496062992124,
                    "duration": 0.17499999999999716
                },
                {
                    "name": "F#3",
                    "midi": 54,
                    "time": 47.49270833333333,
                    "velocity": 0.48031496062992124,
                    "duration": 0.18020833333333286
                },
                {
                    "name": "C#3",
                    "midi": 49,
                    "time": 47.759375,
                    "velocity": 0.48031496062992124,
                    "duration": 0.16354166666666714
                },
                {
                    "name": "F#3",
                    "midi": 54,
                    "time": 48,
                    "velocity": 0.48031496062992124,
                    "duration": 0.17291666666666572
                },
                {
                    "name": "G3",
                    "midi": 55,
                    "time": 48.244791666666664,
                    "velocity": 0.48031496062992124,
                    "duration": 0.17812500000000142
                },
                {
                    "name": "F#3",
                    "midi": 54,
                    "time": 48.505208333333336,
                    "velocity": 0.48031496062992124,
                    "duration": 0.16770833333333002
                },
                {
                    "name": "C#3",
                    "midi": 49,
                    "time": 48.759375,
                    "velocity": 0.48031496062992124,
                    "duration": 0.16354166666666714
                },
                {
                    "name": "F#3",
                    "midi": 54,
                    "time": 48.99375,
                    "velocity": 0.5118110236220472,
                    "duration": 0.17916666666666714
                },
                {
                    "name": "G3",
                    "midi": 55,
                    "time": 49.239583333333336,
                    "velocity": 0.5118110236220472,
                    "duration": 0.18333333333333002
                },
                {
                    "name": "F#3",
                    "midi": 54,
                    "time": 49.50625,
                    "velocity": 0.5196850393700787,
                    "duration": 0.1666666666666643
                },
                {
                    "name": "C#3",
                    "midi": 49,
                    "time": 49.74375,
                    "velocity": 0.5275590551181102,
                    "duration": 0.17916666666666714
                },
                {
                    "name": "F#3",
                    "midi": 54,
                    "time": 50.001041666666666,
                    "velocity": 0.5354330708661418,
                    "duration": 0.171875
                },
                {
                    "name": "G3",
                    "midi": 55,
                    "time": 50.25625,
                    "velocity": 0.5354330708661418,
                    "duration": 0.1666666666666643
                },
                {
                    "name": "F#3",
                    "midi": 54,
                    "time": 50.50729166666667,
                    "velocity": 0.5433070866141733,
                    "duration": 0.16562499999999858
                },
                {
                    "name": "C#3",
                    "midi": 49,
                    "time": 50.74583333333333,
                    "velocity": 0.5511811023622047,
                    "duration": 0.1770833333333357
                },
                {
                    "name": "F#3",
                    "midi": 54,
                    "time": 51.001041666666666,
                    "velocity": 0.5511811023622047,
                    "duration": 0.171875
                },
                {
                    "name": "A3",
                    "midi": 57,
                    "time": 51.260416666666664,
                    "velocity": 0.5590551181102362,
                    "duration": 0.16250000000000142
                },
                {
                    "name": "A#3",
                    "midi": 58,
                    "time": 51.50833333333333,
                    "velocity": 0.5590551181102362,
                    "duration": 0.16458333333333286
                },
                {
                    "name": "A3",
                    "midi": 57,
                    "time": 51.753125,
                    "velocity": 0.5590551181102362,
                    "duration": 0.16979166666666856
                },
                {
                    "name": "F#3",
                    "midi": 54,
                    "time": 51.99375,
                    "velocity": 0.5590551181102362,
                    "duration": 0.17916666666666714
                },
                {
                    "name": "A3",
                    "midi": 57,
                    "time": 52.25729166666667,
                    "velocity": 0.5590551181102362,
                    "duration": 0.16562499999999858
                },
                {
                    "name": "A#3",
                    "midi": 58,
                    "time": 52.496874999999996,
                    "velocity": 0.5590551181102362,
                    "duration": 0.17604166666666998
                },
                {
                    "name": "A3",
                    "midi": 57,
                    "time": 52.746874999999996,
                    "velocity": 0.5590551181102362,
                    "duration": 0.17604166666666998
                },
                {
                    "name": "F#3",
                    "midi": 54,
                    "time": 52.989583333333336,
                    "velocity": 0.5590551181102362,
                    "duration": 0.18333333333333002
                },
                {
                    "name": "A3",
                    "midi": 57,
                    "time": 53.251041666666666,
                    "velocity": 0.5590551181102362,
                    "duration": 0.171875
                },
                {
                    "name": "A#3",
                    "midi": 58,
                    "time": 53.49791666666667,
                    "velocity": 0.5590551181102362,
                    "duration": 0.17499999999999716
                },
                {
                    "name": "A3",
                    "midi": 57,
                    "time": 53.74166666666667,
                    "velocity": 0.5433070866141733,
                    "duration": 0.18124999999999858
                },
                {
                    "name": "A#3",
                    "midi": 58,
                    "time": 53.99583333333333,
                    "velocity": 0.5196850393700787,
                    "duration": 0.1770833333333357
                },
                {
                    "name": "A3",
                    "midi": 57,
                    "time": 54.25833333333333,
                    "velocity": 0.5039370078740157,
                    "duration": 0.16458333333333286
                },
                {
                    "name": "A#3",
                    "midi": 58,
                    "time": 54.49375,
                    "velocity": 0.48031496062992124,
                    "duration": 0.17916666666666714
                },
                {
                    "name": "A3",
                    "midi": 57,
                    "time": 54.759375,
                    "velocity": 0.48031496062992124,
                    "duration": 0.16354166666666714
                },
                {
                    "name": "A#3",
                    "midi": 58,
                    "time": 54.99166666666667,
                    "velocity": 0.48031496062992124,
                    "duration": 0.18124999999999858
                },
                {
                    "name": "A3",
                    "midi": 57,
                    "time": 55.25729166666667,
                    "velocity": 0.48031496062992124,
                    "duration": 0.16562499999999858
                },
                {
                    "name": "C#3",
                    "midi": 49,
                    "time": 55.50833333333333,
                    "velocity": 0.48031496062992124,
                    "duration": 0.16458333333333286
                },
                {
                    "name": "F#2",
                    "midi": 42,
                    "time": 55.748958333333334,
                    "velocity": 0.48031496062992124,
                    "duration": 0.17395833333333144
                },
                {
                    "name": "A#3",
                    "midi": 58,
                    "time": 55.99375,
                    "velocity": 0.48031496062992124,
                    "duration": 0.17916666666666714
                },
                {
                    "name": "A3",
                    "midi": 57,
                    "time": 56.253125,
                    "velocity": 0.48031496062992124,
                    "duration": 0.16979166666666856
                },
                {
                    "name": "C#3",
                    "midi": 49,
                    "time": 56.501041666666666,
                    "velocity": 0.48031496062992124,
                    "duration": 0.171875
                },
                {
                    "name": "F#2",
                    "midi": 42,
                    "time": 56.753125,
                    "velocity": 0.48031496062992124,
                    "duration": 0.16979166666666856
                },
                {
                    "name": "A#3",
                    "midi": 58,
                    "time": 56.99791666666667,
                    "velocity": 0.48031496062992124,
                    "duration": 0.17499999999999716
                },
                {
                    "name": "A3",
                    "midi": 57,
                    "time": 57.239583333333336,
                    "velocity": 0.48031496062992124,
                    "duration": 0.18333333333333002
                },
                {
                    "name": "C#3",
                    "midi": 49,
                    "time": 57.50833333333333,
                    "velocity": 0.48031496062992124,
                    "duration": 0.16458333333333286
                },
                {
                    "name": "F#2",
                    "midi": 42,
                    "time": 57.74166666666667,
                    "velocity": 0.48031496062992124,
                    "duration": 0.18124999999999858
                },
                {
                    "name": "A#3",
                    "midi": 58,
                    "time": 57.994791666666664,
                    "velocity": 0.48031496062992124,
                    "duration": 0.17812500000000142
                },
                {
                    "name": "A3",
                    "midi": 57,
                    "time": 58.24583333333333,
                    "velocity": 0.48031496062992124,
                    "duration": 0.1770833333333357
                },
                {
                    "name": "C#3",
                    "midi": 49,
                    "time": 58.50416666666666,
                    "velocity": 0.48031496062992124,
                    "duration": 0.16875000000000284
                },
                {
                    "name": "F#2",
                    "midi": 42,
                    "time": 58.751041666666666,
                    "velocity": 0.4881889763779528,
                    "duration": 0.171875
                },
                {
                    "name": "A#3",
                    "midi": 58,
                    "time": 59.010416666666664,
                    "velocity": 0.48031496062992124,
                    "duration": 0.16250000000000142
                },
                {
                    "name": "A3",
                    "midi": 57,
                    "time": 59.25208333333333,
                    "velocity": 0.48031496062992124,
                    "duration": 0.17083333333333428
                },
                {
                    "name": "B2",
                    "midi": 47,
                    "time": 59.50625,
                    "velocity": 0.5354330708661418,
                    "duration": 0.1666666666666643
                },
                {
                    "name": "E2",
                    "midi": 40,
                    "time": 59.74791666666667,
                    "velocity": 0.5039370078740157,
                    "duration": 0.17499999999999716
                },
                {
                    "name": "A#3",
                    "midi": 58,
                    "time": 60.00729166666667,
                    "velocity": 0.48031496062992124,
                    "duration": 0.16562499999999858
                },
                {
                    "name": "A3",
                    "midi": 57,
                    "time": 60.255208333333336,
                    "velocity": 0.48031496062992124,
                    "duration": 0.16770833333333002
                },
                {
                    "name": "A2",
                    "midi": 45,
                    "time": 60.49166666666667,
                    "velocity": 0.5669291338582677,
                    "duration": 0.18124999999999858
                },
                {
                    "name": "D2",
                    "midi": 38,
                    "time": 60.75,
                    "velocity": 0.5354330708661418,
                    "duration": 0.17291666666666572
                },
                {
                    "name": "G#3",
                    "midi": 56,
                    "time": 60.989583333333336,
                    "velocity": 0.48031496062992124,
                    "duration": 0.25
                },
                {
                    "name": "G3",
                    "midi": 55,
                    "time": 61.239583333333336,
                    "velocity": 0.48031496062992124,
                    "duration": 0.25
                },
                {
                    "name": "C#2",
                    "midi": 37,
                    "time": 61.755208333333336,
                    "velocity": 0.5039370078740157,
                    "duration": 0.16770833333333002
                },
                {
                    "name": "F#1",
                    "midi": 30,
                    "time": 61.996874999999996,
                    "velocity": 0.48031496062992124,
                    "duration": 0.17604166666666998
                }
            ],
            "controlChanges": {
                "7": [
                    {
                        "number": 7,
                        "time": 0,
                        "value": 1
                    }
                ],
                "10": [
                    {
                        "number": 10,
                        "time": 0,
                        "value": 0.47244094488188976
                    }
                ],
                "91": [
                    {
                        "number": 91,
                        "time": 0.0010416666666666667,
                        "value": 0.47244094488188976
                    },
                    {
                        "number": 91,
                        "time": 62.996874999999996,
                        "value": 0
                    }
                ],
                "93": [
                    {
                        "number": 93,
                        "time": 0.0010416666666666667,
                        "value": 0.12598425196850394
                    },
                    {
                        "number": 93,
                        "time": 62.996874999999996,
                        "value": 0
                    }
                ],
                "121": [
                    {
                        "number": 121,
                        "time": 0,
                        "value": 0
                    },
                    {
                        "number": 121,
                        "time": 62.99791666666666,
                        "value": 0
                    }
                ]
            },
            "id": 3,
            "name": "LH",
            "instrumentNumber": 0,
            "instrument": "acoustic grand piano",
            "instrumentFamily": "piano",
            "channelNumber": 1,
            "isPercussion": false
        },
        {
            "startTime": 0,
            "duration": 0,
            "length": 0,
            "notes": [],
            "controlChanges": {},
            "id": 4,
            "name": "================"
        },
        {
            "startTime": 0,
            "duration": 0,
            "length": 0,
            "notes": [],
            "controlChanges": {},
            "id": 5,
            "name": "D. SHOSTAKOVICH"
        },
        {
            "startTime": 0,
            "duration": 0,
            "length": 0,
            "notes": [],
            "controlChanges": {},
            "id": 6,
            "name": "Prelude in F# minor"
        },
        {
            "startTime": 0,
            "duration": 0,
            "length": 0,
            "notes": [],
            "controlChanges": {},
            "id": 7,
            "name": "opus 87 no. 8"
        },
        {
            "startTime": 0,
            "duration": 0,
            "length": 0,
            "notes": [],
            "controlChanges": {},
            "id": 8,
            "name": "Seq. by J. Marques"
        },
        {
            "startTime": 0,
            "duration": 0,
            "length": 0,
            "notes": [],
            "controlChanges": {},
            "id": 9,
            "name": "jmarques@super.zippo.com"
        },
        {
            "startTime": 0,
            "duration": 0,
            "length": 0,
            "notes": [],
            "controlChanges": {},
            "id": 10,
            "name": "================"
        },
        {
            "startTime": 0,
            "duration": 0,
            "length": 0,
            "notes": [],
            "controlChanges": {},
            "id": 11
        }
    ]
}