{
    "header": {
        "PPQ": 480,
        "bpm": 180.00018000018,
        "timeSignature": [
            4,
            4
        ],
        "name": "nameless"
    },
    "startTime": 0,
    "duration": 110.12350098749822,
    "tracks": [
        {
            "startTime": 0,
            "duration": 0,
            "length": 0,
            "notes": [],
            "controlChanges": {},
            "id": 0,
            "name": "nameless"
        },
        {
            "startTime": 1.3333320000000002,
            "duration": 110.12350098749822,
            "length": 1578,
            "notes": [
                {
                    "name": "E4",
                    "midi": 64,
                    "time": 1.3333320000000002,
                    "velocity": 0.8818897637795275,
                    "duration": 0.3319441125000002
                },
                {
                    "name": "C4",
                    "midi": 60,
                    "time": 1.3333320000000002,
                    "velocity": 0.6062992125984252,
                    "duration": 0.061111050000000056
                },
                {
                    "name": "E3",
                    "midi": 52,
                    "time": 1.3333320000000002,
                    "velocity": 0.6535433070866141,
                    "duration": 0.3319441125000002
                },
                {
                    "name": "A2",
                    "midi": 45,
                    "time": 1.3333320000000002,
                    "velocity": 0.7401574803149606,
                    "duration": 0.3319441125000002
                },
                {
                    "name": "A3",
                    "midi": 57,
                    "time": 1.4999985000000002,
                    "velocity": 0.4330708661417323,
                    "duration": 0.061111050000000056
                },
                {
                    "name": "C4",
                    "midi": 60,
                    "time": 1.6666650000000005,
                    "velocity": 0.5511811023622047,
                    "duration": 0.061111050000000056
                },
                {
                    "name": "A4",
                    "midi": 69,
                    "time": 1.8333315000000006,
                    "velocity": 0.84251968503937,
                    "duration": 0.16527761249999995
                },
                {
                    "name": "A3",
                    "midi": 57,
                    "time": 1.8333315000000006,
                    "velocity": 0.3543307086614173,
                    "duration": 0.061111050000000056
                },
                {
                    "name": "F4",
                    "midi": 65,
                    "time": 1.9999980000000006,
                    "velocity": 0.8582677165354331,
                    "duration": 0.14861096250000028
                },
                {
                    "name": "D#4",
                    "midi": 63,
                    "time": 1.9999980000000006,
                    "velocity": 0.5984251968503937,
                    "duration": 0.061111050000000056
                },
                {
                    "name": "B3",
                    "midi": 59,
                    "time": 1.9999980000000006,
                    "velocity": 0.5354330708661418,
                    "duration": 0.061111050000000056
                },
                {
                    "name": "A3",
                    "midi": 57,
                    "time": 2.166664500000001,
                    "velocity": 0.5118110236220472,
                    "duration": 0.061111050000000056
                },
                {
                    "name": "D4",
                    "midi": 62,
                    "time": 2.333331000000001,
                    "velocity": 0.8818897637795275,
                    "duration": 0.061111050000000056
                },
                {
                    "name": "D4",
                    "midi": 62,
                    "time": 2.333331000000001,
                    "velocity": 0.6929133858267716,
                    "duration": 0.3319441125
                },
                {
                    "name": "E2",
                    "midi": 40,
                    "time": 2.333331000000001,
                    "velocity": 0.7244094488188977,
                    "duration": 0.3319441125
                },
                {
                    "name": "E3",
                    "midi": 52,
                    "time": 2.333331000000001,
                    "velocity": 0.6535433070866141,
                    "duration": 0.3319441125
                },
                {
                    "name": "A3",
                    "midi": 57,
                    "time": 2.499997500000001,
                    "velocity": 0.48031496062992124,
                    "duration": 0.061111050000000056
                },
                {
                    "name": "E4",
                    "midi": 64,
                    "time": 2.6666640000000013,
                    "velocity": 0.8582677165354331,
                    "duration": 0.33194411250000044
                },
                {
                    "name": "C4",
                    "midi": 60,
                    "time": 2.6666640000000013,
                    "velocity": 0.6299212598425197,
                    "duration": 0.061111050000000056
                },
                {
                    "name": "E3",
                    "midi": 52,
                    "time": 2.6666640000000013,
                    "velocity": 0.6220472440944882,
                    "duration": 0.33194411250000044
                },
                {
                    "name": "A2",
                    "midi": 45,
                    "time": 2.6666640000000013,
                    "velocity": 0.6535433070866141,
                    "duration": 0.33194411250000044
                },
                {
                    "name": "A3",
                    "midi": 57,
                    "time": 2.8333305000000015,
                    "velocity": 0.4094488188976378,
                    "duration": 0.061111050000000056
                },
                {
                    "name": "C4",
                    "midi": 60,
                    "time": 2.999997000000002,
                    "velocity": 0.5748031496062992,
                    "duration": 0.061111050000000056
                },
                {
                    "name": "A4",
                    "midi": 69,
                    "time": 3.166663500000002,
                    "velocity": 0.84251968503937,
                    "duration": 0.16527761250000017
                },
                {
                    "name": "A3",
                    "midi": 57,
                    "time": 3.166663500000002,
                    "velocity": 0.41732283464566927,
                    "duration": 0.061111050000000056
                },
                {
                    "name": "F4",
                    "midi": 65,
                    "time": 3.3333300000000023,
                    "velocity": 0.9133858267716536,
                    "duration": 0.14861096249999983
                },
                {
                    "name": "D#4",
                    "midi": 63,
                    "time": 3.3333300000000023,
                    "velocity": 0.6771653543307087,
                    "duration": 0.061111050000000056
                },
                {
                    "name": "B3",
                    "midi": 59,
                    "time": 3.3333300000000023,
                    "velocity": 0.5748031496062992,
                    "duration": 0.061111050000000056
                },
                {
                    "name": "A3",
                    "midi": 57,
                    "time": 3.499996500000002,
                    "velocity": 0.4330708661417323,
                    "duration": 0.061111050000000056
                },
                {
                    "name": "D4",
                    "midi": 62,
                    "time": 3.6666630000000024,
                    "velocity": 0.7716535433070866,
                    "duration": 0.061111050000000056
                },
                {
                    "name": "D4",
                    "midi": 62,
                    "time": 3.6666630000000024,
                    "velocity": 0.6535433070866141,
                    "duration": 0.3319441125
                },
                {
                    "name": "E3",
                    "midi": 52,
                    "time": 3.6666630000000024,
                    "velocity": 0.5984251968503937,
                    "duration": 0.3319441125
                },
                {
                    "name": "E2",
                    "midi": 40,
                    "time": 3.6666630000000024,
                    "velocity": 0.6062992125984252,
                    "duration": 0.3319441125
                },
                {
                    "name": "A3",
                    "midi": 57,
                    "time": 3.8333295000000023,
                    "velocity": 0.4409448818897638,
                    "duration": 0.061111050000000056
                },
                {
                    "name": "E4",
                    "midi": 64,
                    "time": 3.9999960000000025,
                    "velocity": 0.84251968503937,
                    "duration": 0.06111104999999961
                },
                {
                    "name": "C4",
                    "midi": 60,
                    "time": 3.9999960000000025,
                    "velocity": 0.6771653543307087,
                    "duration": 0.06111104999999961
                },
                {
                    "name": "E4",
                    "midi": 64,
                    "time": 3.9999960000000025,
                    "velocity": 0.6456692913385826,
                    "duration": 0.3319441124999991
                },
                {
                    "name": "E3",
                    "midi": 52,
                    "time": 3.9999960000000025,
                    "velocity": 0.5984251968503937,
                    "duration": 0.3319441124999991
                },
                {
                    "name": "A2",
                    "midi": 45,
                    "time": 3.9999960000000025,
                    "velocity": 0.6771653543307087,
                    "duration": 0.3319441124999991
                },
                {
                    "name": "A3",
                    "midi": 57,
                    "time": 4.166662500000002,
                    "velocity": 0.5196850393700787,
                    "duration": 0.061111050000000056
                },
                {
                    "name": "F4",
                    "midi": 65,
                    "time": 4.166662500000002,
                    "velocity": 0.6692913385826772,
                    "duration": 0.061111050000000056
                },
                {
                    "name": "F#4",
                    "midi": 66,
                    "time": 4.333329000000002,
                    "velocity": 0.5590551181102362,
                    "duration": 0.061111050000000056
                },
                {
                    "name": "D#4",
                    "midi": 63,
                    "time": 4.333329000000002,
                    "velocity": 0.47244094488188976,
                    "duration": 0.061111050000000056
                },
                {
                    "name": "E5",
                    "midi": 76,
                    "time": 4.499995500000002,
                    "velocity": 0.7716535433070866,
                    "duration": 0.16527761249999973
                },
                {
                    "name": "C4",
                    "midi": 60,
                    "time": 4.499995500000002,
                    "velocity": 0.6377952755905512,
                    "duration": 0.061111050000000056
                },
                {
                    "name": "G4",
                    "midi": 67,
                    "time": 4.499995500000002,
                    "velocity": 0.7165354330708661,
                    "duration": 0.061111050000000056
                },
                {
                    "name": "C5",
                    "midi": 72,
                    "time": 4.666662000000001,
                    "velocity": 0.7401574803149606,
                    "duration": 0.33194411249999956
                },
                {
                    "name": "E5",
                    "midi": 76,
                    "time": 4.666662000000001,
                    "velocity": 0.8188976377952756,
                    "duration": 0.33194411249999956
                },
                {
                    "name": "G#4",
                    "midi": 68,
                    "time": 4.666662000000001,
                    "velocity": 0.6771653543307087,
                    "duration": 0.061111050000000056
                },
                {
                    "name": "E4",
                    "midi": 64,
                    "time": 4.666662000000001,
                    "velocity": 0.6456692913385826,
                    "duration": 0.061111050000000056
                },
                {
                    "name": "C4",
                    "midi": 60,
                    "time": 4.833328500000001,
                    "velocity": 0.6377952755905512,
                    "duration": 0.061111050000000056
                },
                {
                    "name": "G4",
                    "midi": 67,
                    "time": 4.833328500000001,
                    "velocity": 0.7007874015748031,
                    "duration": 0.061111050000000056
                },
                {
                    "name": "D#4",
                    "midi": 63,
                    "time": 4.999995000000001,
                    "velocity": 0.5669291338582677,
                    "duration": 0.061111050000000056
                },
                {
                    "name": "F#4",
                    "midi": 66,
                    "time": 4.999995000000001,
                    "velocity": 0.6456692913385826,
                    "duration": 0.061111050000000056
                },
                {
                    "name": "F4",
                    "midi": 65,
                    "time": 5.166661500000001,
                    "velocity": 0.6850393700787402,
                    "duration": 0.061111050000000056
                },
                {
                    "name": "C4",
                    "midi": 60,
                    "time": 5.166661500000001,
                    "velocity": 0.6456692913385826,
                    "duration": 0.061111050000000056
                },
                {
                    "name": "A2",
                    "midi": 45,
                    "time": 5.166661500000001,
                    "velocity": 0.7007874015748031,
                    "duration": 0.16527761249999973
                },
                {
                    "name": "E4",
                    "midi": 64,
                    "time": 5.333328000000001,
                    "velocity": 0.8582677165354331,
                    "duration": 0.33194411249999956
                },
                {
                    "name": "D#4",
                    "midi": 63,
                    "time": 5.333328000000001,
                    "velocity": 0.5511811023622047,
                    "duration": 0.061111050000000056
                },
                {
                    "name": "E3",
                    "midi": 52,
                    "time": 5.333328000000001,
                    "velocity": 0.5984251968503937,
                    "duration": 0.33194411249999956
                },
                {
                    "name": "E2",
                    "midi": 40,
                    "time": 5.333328000000001,
                    "velocity": 0.6062992125984252,
                    "duration": 0.33194411249999956
                },
                {
                    "name": "F4",
                    "midi": 65,
                    "time": 5.499994500000001,
                    "velocity": 0.6062992125984252,
                    "duration": 0.061111050000000056
                },
                {
                    "name": "C4",
                    "midi": 60,
                    "time": 5.499994500000001,
                    "velocity": 0.6141732283464567,
                    "duration": 0.061111050000000056
                },
                {
                    "name": "F#4",
                    "midi": 66,
                    "time": 5.666661,
                    "velocity": 0.6377952755905512,
                    "duration": 0.061111050000000056
                },
                {
                    "name": "D4",
                    "midi": 62,
                    "time": 5.666661,
                    "velocity": 0.6535433070866141,
                    "duration": 0.061111050000000056
                },
                {
                    "name": "E5",
                    "midi": 76,
                    "time": 5.8333275,
                    "velocity": 0.84251968503937,
                    "duration": 0.16527761249999973
                },
                {
                    "name": "B5",
                    "midi": 83,
                    "time": 5.8333275,
                    "velocity": 0.84251968503937,
                    "duration": 0.16527761249999973
                },
                {
                    "name": "G4",
                    "midi": 67,
                    "time": 5.8333275,
                    "velocity": 0.6299212598425197,
                    "duration": 0.061111050000000056
                },
                {
                    "name": "B3",
                    "midi": 59,
                    "time": 5.8333275,
                    "velocity": 0.6141732283464567,
                    "duration": 0.061111050000000056
                },
                {
                    "name": "B4",
                    "midi": 71,
                    "time": 5.999994,
                    "velocity": 0.7007874015748031,
                    "duration": 0.33194411249999956
                },
                {
                    "name": "E5",
                    "midi": 76,
                    "time": 5.999994,
                    "velocity": 0.7952755905511811,
                    "duration": 0.33194411249999956
                },
                {
                    "name": "C#4",
                    "midi": 61,
                    "time": 5.999994,
                    "velocity": 0.6535433070866141,
                    "duration": 0.061111050000000056
                },
                {
                    "name": "G#4",
                    "midi": 68,
                    "time": 5.999994,
                    "velocity": 0.6929133858267716,
                    "duration": 0.061111050000000056
                },
                {
                    "name": "A#3",
                    "midi": 58,
                    "time": 6.1666605,
                    "velocity": 0.6535433070866141,
                    "duration": 0.061111050000000056
                },
                {
                    "name": "G4",
                    "midi": 67,
                    "time": 6.1666605,
                    "velocity": 0.7007874015748031,
                    "duration": 0.061111050000000056
                },
                {
                    "name": "D4",
                    "midi": 62,
                    "time": 6.333327,
                    "velocity": 0.6377952755905512,
                    "duration": 0.061111050000000056
                },
                {
                    "name": "F#4",
                    "midi": 66,
                    "time": 6.333327,
                    "velocity": 0.6929133858267716,
                    "duration": 0.061111050000000056
                },
                {
                    "name": "F4",
                    "midi": 65,
                    "time": 6.4999934999999995,
                    "velocity": 0.6929133858267716,
                    "duration": 0.061111050000000056
                },
                {
                    "name": "B3",
                    "midi": 59,
                    "time": 6.4999934999999995,
                    "velocity": 0.6692913385826772,
                    "duration": 0.061111050000000056
                },
                {
                    "name": "E3",
                    "midi": 52,
                    "time": 6.666659999999999,
                    "velocity": 0.4330708661417323,
                    "duration": 0.33194411249999956
                },
                {
                    "name": "A2",
                    "midi": 45,
                    "time": 6.666659999999999,
                    "velocity": 0.47244094488188976,
                    "duration": 0.33194411249999956
                },
                {
                    "name": "D4",
                    "midi": 62,
                    "time": 6.666659999999999,
                    "velocity": 0.5354330708661418,
                    "duration": 0.061111050000000056
                },
                {
                    "name": "E4",
                    "midi": 64,
                    "time": 6.666659999999999,
                    "velocity": 0.5826771653543307,
                    "duration": 0.33194411249999956
                },
                {
                    "name": "A3",
                    "midi": 57,
                    "time": 6.833326499999999,
                    "velocity": 0.4881889763779528,
                    "duration": 0.061111050000000056
                },
                {
                    "name": "C#4",
                    "midi": 61,
                    "time": 6.999992999999999,
                    "velocity": 0.48031496062992124,
                    "duration": 0.061111050000000056
                },
                {
                    "name": "A3",
                    "midi": 57,
                    "time": 7.166659499999999,
                    "velocity": 0.4881889763779528,
                    "duration": 0.061111050000000056
                },
                {
                    "name": "A4",
                    "midi": 69,
                    "time": 7.166659499999999,
                    "velocity": 0.5669291338582677,
                    "duration": 0.16527761249999973
                },
                {
                    "name": "C4",
                    "midi": 60,
                    "time": 7.333325999999999,
                    "velocity": 0.4566929133858268,
                    "duration": 0.061111050000000056
                },
                {
                    "name": "D#4",
                    "midi": 63,
                    "time": 7.333325999999999,
                    "velocity": 0.44881889763779526,
                    "duration": 0.061111050000000056
                },
                {
                    "name": "F4",
                    "midi": 65,
                    "time": 7.333325999999999,
                    "velocity": 0.5590551181102362,
                    "duration": 0.14861096250000028
                },
                {
                    "name": "A3",
                    "midi": 57,
                    "time": 7.499992499999999,
                    "velocity": 0.5196850393700787,
                    "duration": 0.061111050000000056
                },
                {
                    "name": "E2",
                    "midi": 40,
                    "time": 7.666658999999999,
                    "velocity": 0.5196850393700787,
                    "duration": 0.33194411249999956
                },
                {
                    "name": "E3",
                    "midi": 52,
                    "time": 7.666658999999999,
                    "velocity": 0.5118110236220472,
                    "duration": 0.33194411249999956
                },
                {
                    "name": "B3",
                    "midi": 59,
                    "time": 7.666658999999999,
                    "velocity": 0.48031496062992124,
                    "duration": 0.061111050000000056
                },
                {
                    "name": "D4",
                    "midi": 62,
                    "time": 7.666658999999999,
                    "velocity": 0.6377952755905512,
                    "duration": 0.33194411249999956
                },
                {
                    "name": "A3",
                    "midi": 57,
                    "time": 7.833325499999999,
                    "velocity": 0.4566929133858268,
                    "duration": 0.061111050000000056
                },
                {
                    "name": "A2",
                    "midi": 45,
                    "time": 7.999991999999999,
                    "velocity": 0.4566929133858268,
                    "duration": 0.33194411249999867
                },
                {
                    "name": "E3",
                    "midi": 52,
                    "time": 7.999991999999999,
                    "velocity": 0.4566929133858268,
                    "duration": 0.33194411249999867
                },
                {
                    "name": "D4",
                    "midi": 62,
                    "time": 7.999991999999999,
                    "velocity": 0.5826771653543307,
                    "duration": 0.06111104999999917
                },
                {
                    "name": "E4",
                    "midi": 64,
                    "time": 7.999991999999999,
                    "velocity": 0.6062992125984252,
                    "duration": 0.33194411249999867
                },
                {
                    "name": "A3",
                    "midi": 57,
                    "time": 8.166658499999999,
                    "velocity": 0.49606299212598426,
                    "duration": 0.06111104999999917
                },
                {
                    "name": "C#4",
                    "midi": 61,
                    "time": 8.333324999999997,
                    "velocity": 0.29133858267716534,
                    "duration": 0.06111104999999917
                },
                {
                    "name": "A3",
                    "midi": 57,
                    "time": 8.499991499999997,
                    "velocity": 0.5118110236220472,
                    "duration": 0.06111104999999917
                },
                {
                    "name": "A4",
                    "midi": 69,
                    "time": 8.499991499999997,
                    "velocity": 0.6062992125984252,
                    "duration": 0.16527761249999884
                },
                {
                    "name": "C4",
                    "midi": 60,
                    "time": 8.666657999999995,
                    "velocity": 0.48031496062992124,
                    "duration": 0.06111104999999917
                },
                {
                    "name": "D#4",
                    "midi": 63,
                    "time": 8.666657999999995,
                    "velocity": 0.48031496062992124,
                    "duration": 0.06111104999999917
                },
                {
                    "name": "F4",
                    "midi": 65,
                    "time": 8.666657999999995,
                    "velocity": 0.6377952755905512,
                    "duration": 0.1486109624999994
                },
                {
                    "name": "A3",
                    "midi": 57,
                    "time": 8.833324499999994,
                    "velocity": 0.4566929133858268,
                    "duration": 0.06111104999999917
                },
                {
                    "name": "E3",
                    "midi": 52,
                    "time": 8.999990999999994,
                    "velocity": 0.5275590551181102,
                    "duration": 0.33194411249999867
                },
                {
                    "name": "E2",
                    "midi": 40,
                    "time": 8.999990999999994,
                    "velocity": 0.5275590551181102,
                    "duration": 0.33194411249999867
                },
                {
                    "name": "B3",
                    "midi": 59,
                    "time": 8.999990999999994,
                    "velocity": 0.5118110236220472,
                    "duration": 0.06111104999999917
                },
                {
                    "name": "D4",
                    "midi": 62,
                    "time": 8.999990999999994,
                    "velocity": 0.5984251968503937,
                    "duration": 0.33194411249999867
                },
                {
                    "name": "A3",
                    "midi": 57,
                    "time": 9.166657499999994,
                    "velocity": 0.4094488188976378,
                    "duration": 0.06111104999999917
                },
                {
                    "name": "E3",
                    "midi": 52,
                    "time": 9.333323999999992,
                    "velocity": 0.4881889763779528,
                    "duration": 0.33194411249999867
                },
                {
                    "name": "A2",
                    "midi": 45,
                    "time": 9.333323999999992,
                    "velocity": 0.5118110236220472,
                    "duration": 0.33194411249999867
                },
                {
                    "name": "C4",
                    "midi": 60,
                    "time": 9.333323999999992,
                    "velocity": 0.5669291338582677,
                    "duration": 0.06111104999999917
                },
                {
                    "name": "E4",
                    "midi": 64,
                    "time": 9.333323999999992,
                    "velocity": 0.6771653543307087,
                    "duration": 0.12361098749999933
                },
                {
                    "name": "F4",
                    "midi": 65,
                    "time": 9.499990499999992,
                    "velocity": 0.5196850393700787,
                    "duration": 0.06111104999999917
                },
                {
                    "name": "A3",
                    "midi": 57,
                    "time": 9.499990499999992,
                    "velocity": 0.4094488188976378,
                    "duration": 0.06111104999999917
                },
                {
                    "name": "F#4",
                    "midi": 66,
                    "time": 9.66665699999999,
                    "velocity": 0.5196850393700787,
                    "duration": 0.06111104999999917
                },
                {
                    "name": "D#4",
                    "midi": 63,
                    "time": 9.66665699999999,
                    "velocity": 0.49606299212598426,
                    "duration": 0.06111104999999917
                },
                {
                    "name": "G4",
                    "midi": 67,
                    "time": 9.83332349999999,
                    "velocity": 0.5118110236220472,
                    "duration": 0.06111104999999917
                },
                {
                    "name": "C4",
                    "midi": 60,
                    "time": 9.83332349999999,
                    "velocity": 0.47244094488188976,
                    "duration": 0.06111104999999917
                },
                {
                    "name": "E5",
                    "midi": 76,
                    "time": 9.83332349999999,
                    "velocity": 0.5984251968503937,
                    "duration": 0.16527761249999884
                },
                {
                    "name": "G#4",
                    "midi": 68,
                    "time": 9.999989999999988,
                    "velocity": 0.47244094488188976,
                    "duration": 0.06111104999999917
                },
                {
                    "name": "E4",
                    "midi": 64,
                    "time": 9.999989999999988,
                    "velocity": 0.5354330708661418,
                    "duration": 0.06111104999999917
                },
                {
                    "name": "C5",
                    "midi": 72,
                    "time": 9.999989999999988,
                    "velocity": 0.5669291338582677,
                    "duration": 0.33194411249999867
                },
                {
                    "name": "E5",
                    "midi": 76,
                    "time": 9.999989999999988,
                    "velocity": 0.5984251968503937,
                    "duration": 0.33194411249999867
                },
                {
                    "name": "F4",
                    "midi": 65,
                    "time": 10.166656499999988,
                    "velocity": 0.5196850393700787,
                    "duration": 0.06111104999999917
                },
                {
                    "name": "C4",
                    "midi": 60,
                    "time": 10.166656499999988,
                    "velocity": 0.48031496062992124,
                    "duration": 0.06111104999999917
                },
                {
                    "name": "E4",
                    "midi": 64,
                    "time": 10.333322999999986,
                    "velocity": 0.4881889763779528,
                    "duration": 0.06111104999999917
                },
                {
                    "name": "G4",
                    "midi": 67,
                    "time": 10.333322999999986,
                    "velocity": 0.49606299212598426,
                    "duration": 0.06111104999999917
                },
                {
                    "name": "A2",
                    "midi": 45,
                    "time": 10.499989499999986,
                    "velocity": 0.6062992125984252,
                    "duration": 0.16527761249999884
                },
                {
                    "name": "C#4",
                    "midi": 61,
                    "time": 10.499989499999986,
                    "velocity": 0.4094488188976378,
                    "duration": 0.06111104999999917
                },
                {
                    "name": "G#4",
                    "midi": 68,
                    "time": 10.499989499999986,
                    "velocity": 0.5275590551181102,
                    "duration": 0.06111104999999917
                },
                {
                    "name": "D2",
                    "midi": 38,
                    "time": 10.666655999999984,
                    "velocity": 0.5511811023622047,
                    "duration": 0.3319441124999969
                },
                {
                    "name": "D3",
                    "midi": 50,
                    "time": 10.666655999999984,
                    "velocity": 0.5511811023622047,
                    "duration": 0.3319441124999969
                },
                {
                    "name": "E4",
                    "midi": 64,
                    "time": 10.666655999999984,
                    "velocity": 0.5511811023622047,
                    "duration": 0.06111104999999917
                },
                {
                    "name": "C4",
                    "midi": 60,
                    "time": 10.666655999999984,
                    "velocity": 0.5511811023622047,
                    "duration": 0.06111104999999917
                },
                {
                    "name": "A4",
                    "midi": 69,
                    "time": 10.666655999999984,
                    "velocity": 0.5511811023622047,
                    "duration": 0.16527761249999884
                },
                {
                    "name": "G#4",
                    "midi": 68,
                    "time": 10.833322499999982,
                    "velocity": 0.5826771653543307,
                    "duration": 0.16527761249999884
                },
                {
                    "name": "F4",
                    "midi": 65,
                    "time": 10.833322499999982,
                    "velocity": 0.5826771653543307,
                    "duration": 0.06111104999999917
                },
                {
                    "name": "A4",
                    "midi": 69,
                    "time": 10.99998899999998,
                    "velocity": 0.6377952755905512,
                    "duration": 0.06111104999999917
                },
                {
                    "name": "F#4",
                    "midi": 66,
                    "time": 10.99998899999998,
                    "velocity": 0.6377952755905512,
                    "duration": 0.06111104999999917
                },
                {
                    "name": "G4",
                    "midi": 67,
                    "time": 11.16665549999998,
                    "velocity": 0.6377952755905512,
                    "duration": 0.06111104999999917
                },
                {
                    "name": "B4",
                    "midi": 71,
                    "time": 11.16665549999998,
                    "velocity": 0.6377952755905512,
                    "duration": 0.06111104999999917
                },
                {
                    "name": "B5",
                    "midi": 83,
                    "time": 11.16665549999998,
                    "velocity": 0.6377952755905512,
                    "duration": 0.16527761249999884
                },
                {
                    "name": "C5",
                    "midi": 72,
                    "time": 11.333321999999978,
                    "velocity": 0.6692913385826772,
                    "duration": 0.06111104999999917
                },
                {
                    "name": "A4",
                    "midi": 69,
                    "time": 11.333321999999978,
                    "velocity": 0.6692913385826772,
                    "duration": 0.06111104999999917
                },
                {
                    "name": "G5",
                    "midi": 79,
                    "time": 11.333321999999978,
                    "velocity": 0.6692913385826772,
                    "duration": 0.33194411249999867
                },
                {
                    "name": "B5",
                    "midi": 83,
                    "time": 11.333321999999978,
                    "velocity": 0.6692913385826772,
                    "duration": 0.33194411249999867
                },
                {
                    "name": "B4",
                    "midi": 71,
                    "time": 11.499988499999978,
                    "velocity": 0.6692913385826772,
                    "duration": 0.06111104999999917
                },
                {
                    "name": "D5",
                    "midi": 74,
                    "time": 11.499988499999978,
                    "velocity": 0.6692913385826772,
                    "duration": 0.06111104999999917
                },
                {
                    "name": "E5",
                    "midi": 76,
                    "time": 11.666654999999976,
                    "velocity": 0.5590551181102362,
                    "duration": 0.06111104999999917
                },
                {
                    "name": "C5",
                    "midi": 72,
                    "time": 11.666654999999976,
                    "velocity": 0.5275590551181102,
                    "duration": 0.06111104999999917
                },
                {
                    "name": "D5",
                    "midi": 74,
                    "time": 11.833321499999975,
                    "velocity": 0.5748031496062992,
                    "duration": 0.06111104999999917
                },
                {
                    "name": "F#5",
                    "midi": 78,
                    "time": 11.833321499999975,
                    "velocity": 0.5590551181102362,
                    "duration": 0.06111104999999917
                },
                {
                    "name": "G4",
                    "midi": 67,
                    "time": 11.999987999999975,
                    "velocity": 0.8582677165354331,
                    "duration": 0.33194411249999867
                },
                {
                    "name": "G5",
                    "midi": 79,
                    "time": 11.999987999999975,
                    "velocity": 0.7322834645669292,
                    "duration": 0.06111104999999917
                },
                {
                    "name": "F#5",
                    "midi": 78,
                    "time": 11.999987999999975,
                    "velocity": 0.6456692913385826,
                    "duration": 0.06111104999999917
                },
                {
                    "name": "D5",
                    "midi": 74,
                    "time": 11.999987999999975,
                    "velocity": 0.6692913385826772,
                    "duration": 0.06111104999999917
                },
                {
                    "name": "E5",
                    "midi": 76,
                    "time": 12.166654499999975,
                    "velocity": 0.6377952755905512,
                    "duration": 0.06111104999999917
                },
                {
                    "name": "C5",
                    "midi": 72,
                    "time": 12.166654499999975,
                    "velocity": 0.6692913385826772,
                    "duration": 0.06111104999999917
                },
                {
                    "name": "G5",
                    "midi": 79,
                    "time": 12.166654499999975,
                    "velocity": 0.6929133858267716,
                    "duration": 0.06111104999999917
                },
                {
                    "name": "B4",
                    "midi": 71,
                    "time": 12.333320999999973,
                    "velocity": 0.6771653543307087,
                    "duration": 0.06111104999999917
                },
                {
                    "name": "G5",
                    "midi": 79,
                    "time": 12.333320999999973,
                    "velocity": 0.7244094488188977,
                    "duration": 0.06111104999999917
                },
                {
                    "name": "D5",
                    "midi": 74,
                    "time": 12.333320999999973,
                    "velocity": 0.6535433070866141,
                    "duration": 0.06111104999999917
                },
                {
                    "name": "D6",
                    "midi": 86,
                    "time": 12.499987499999973,
                    "velocity": 0.8110236220472441,
                    "duration": 0.16527761249999884
                },
                {
                    "name": "C5",
                    "midi": 72,
                    "time": 12.499987499999973,
                    "velocity": 0.7401574803149606,
                    "duration": 0.06111104999999917
                },
                {
                    "name": "A4",
                    "midi": 69,
                    "time": 12.499987499999973,
                    "velocity": 0.7244094488188977,
                    "duration": 0.06111104999999917
                },
                {
                    "name": "G5",
                    "midi": 79,
                    "time": 12.499987499999973,
                    "velocity": 0.7795275590551181,
                    "duration": 0.06111104999999917
                },
                {
                    "name": "G6",
                    "midi": 91,
                    "time": 12.666653999999971,
                    "velocity": 0.8818897637795275,
                    "duration": 0.33194411249999867
                },
                {
                    "name": "G5",
                    "midi": 79,
                    "time": 12.666653999999971,
                    "velocity": 0.7165354330708661,
                    "duration": 0.06111104999999917
                },
                {
                    "name": "B4",
                    "midi": 71,
                    "time": 12.666653999999971,
                    "velocity": 0.6062992125984252,
                    "duration": 0.06111104999999917
                },
                {
                    "name": "G4",
                    "midi": 67,
                    "time": 12.666653999999971,
                    "velocity": 0.6141732283464567,
                    "duration": 0.06111104999999917
                },
                {
                    "name": "F#5",
                    "midi": 78,
                    "time": 12.83332049999997,
                    "velocity": 0.6929133858267716,
                    "duration": 0.06111104999999917
                },
                {
                    "name": "B4",
                    "midi": 71,
                    "time": 12.83332049999997,
                    "velocity": 0.4409448818897638,
                    "duration": 0.06111104999999917
                },
                {
                    "name": "G4",
                    "midi": 67,
                    "time": 12.83332049999997,
                    "velocity": 0.4881889763779528,
                    "duration": 0.06111104999999917
                },
                {
                    "name": "A#4",
                    "midi": 70,
                    "time": 12.999986999999969,
                    "velocity": 0.5039370078740157,
                    "duration": 0.06111104999999917
                },
                {
                    "name": "E5",
                    "midi": 76,
                    "time": 12.999986999999969,
                    "velocity": 0.7165354330708661,
                    "duration": 0.06111104999999917
                },
                {
                    "name": "A4",
                    "midi": 69,
                    "time": 12.999986999999969,
                    "velocity": 0.6692913385826772,
                    "duration": 0.06111104999999917
                },
                {
                    "name": "G4",
                    "midi": 67,
                    "time": 13.166653499999969,
                    "velocity": 0.8976377952755905,
                    "duration": 0.16527761249999884
                },
                {
                    "name": "D5",
                    "midi": 74,
                    "time": 13.166653499999969,
                    "velocity": 0.7244094488188977,
                    "duration": 0.06111104999999917
                },
                {
                    "name": "A#4",
                    "midi": 70,
                    "time": 13.166653499999969,
                    "velocity": 0.5118110236220472,
                    "duration": 0.06111104999999917
                },
                {
                    "name": "A4",
                    "midi": 69,
                    "time": 13.166653499999969,
                    "velocity": 0.6692913385826772,
                    "duration": 0.06111104999999917
                },
                {
                    "name": "D4",
                    "midi": 62,
                    "time": 13.333319999999967,
                    "velocity": 0.9212598425196851,
                    "duration": 0.33194411249999867
                },
                {
                    "name": "D5",
                    "midi": 74,
                    "time": 13.333319999999967,
                    "velocity": 0.7086614173228346,
                    "duration": 0.06111104999999917
                },
                {
                    "name": "G#4",
                    "midi": 68,
                    "time": 13.333319999999967,
                    "velocity": 0.5669291338582677,
                    "duration": 0.06111104999999917
                },
                {
                    "name": "C5",
                    "midi": 72,
                    "time": 13.333319999999967,
                    "velocity": 0.5905511811023622,
                    "duration": 0.06111104999999917
                },
                {
                    "name": "B4",
                    "midi": 71,
                    "time": 13.499986499999967,
                    "velocity": 0.6141732283464567,
                    "duration": 0.06111104999999917
                },
                {
                    "name": "D5",
                    "midi": 74,
                    "time": 13.499986499999967,
                    "velocity": 0.6850393700787402,
                    "duration": 0.06111104999999917
                },
                {
                    "name": "G4",
                    "midi": 67,
                    "time": 13.499986499999967,
                    "velocity": 0.6535433070866141,
                    "duration": 0.06111104999999917
                },
                {
                    "name": "D5",
                    "midi": 74,
                    "time": 13.666652999999965,
                    "velocity": 0.7244094488188977,
                    "duration": 0.06111104999999917
                },
                {
                    "name": "A4",
                    "midi": 69,
                    "time": 13.666652999999965,
                    "velocity": 0.49606299212598426,
                    "duration": 0.06111104999999917
                },
                {
                    "name": "F#4",
                    "midi": 66,
                    "time": 13.666652999999965,
                    "velocity": 0.6535433070866141,
                    "duration": 0.06111104999999917
                },
                {
                    "name": "D6",
                    "midi": 86,
                    "time": 13.833319499999964,
                    "velocity": 0.984251968503937,
                    "duration": 0.16527761249999884
                },
                {
                    "name": "D5",
                    "midi": 74,
                    "time": 13.833319499999964,
                    "velocity": 0.7401574803149606,
                    "duration": 0.06111104999999917
                },
                {
                    "name": "G4",
                    "midi": 67,
                    "time": 13.833319499999964,
                    "velocity": 0.6535433070866141,
                    "duration": 0.06111104999999917
                },
                {
                    "name": "E4",
                    "midi": 64,
                    "time": 13.833319499999964,
                    "velocity": 0.6062992125984252,
                    "duration": 0.06111104999999917
                },
                {
                    "name": "A5",
                    "midi": 81,
                    "time": 13.999985999999963,
                    "velocity": 0.9212598425196851,
                    "duration": 0.33194411249999867
                },
                {
                    "name": "D5",
                    "midi": 74,
                    "time": 13.999985999999963,
                    "velocity": 0.7322834645669292,
                    "duration": 0.06111104999999917
                },
                {
                    "name": "F#4",
                    "midi": 66,
                    "time": 13.999985999999963,
                    "velocity": 0.5118110236220472,
                    "duration": 0.06111104999999917
                },
                {
                    "name": "D4",
                    "midi": 62,
                    "time": 13.999985999999963,
                    "velocity": 0.6456692913385826,
                    "duration": 0.06111104999999917
                },
                {
                    "name": "C5",
                    "midi": 72,
                    "time": 14.166652499999962,
                    "velocity": 0.7086614173228346,
                    "duration": 0.06111104999999917
                },
                {
                    "name": "D#4",
                    "midi": 63,
                    "time": 14.166652499999962,
                    "velocity": 0.6062992125984252,
                    "duration": 0.06111104999999917
                },
                {
                    "name": "D4",
                    "midi": 62,
                    "time": 14.166652499999962,
                    "velocity": 0.6692913385826772,
                    "duration": 0.06111104999999917
                },
                {
                    "name": "B4",
                    "midi": 71,
                    "time": 14.33331899999996,
                    "velocity": 0.7401574803149606,
                    "duration": 0.06111104999999917
                },
                {
                    "name": "D4",
                    "midi": 62,
                    "time": 14.33331899999996,
                    "velocity": 0.6929133858267716,
                    "duration": 0.06111104999999917
                },
                {
                    "name": "E4",
                    "midi": 64,
                    "time": 14.33331899999996,
                    "velocity": 0.6771653543307087,
                    "duration": 0.06111104999999917
                },
                {
                    "name": "D3",
                    "midi": 50,
                    "time": 14.49998549999996,
                    "velocity": 0.8582677165354331,
                    "duration": 0.16527761249999884
                },
                {
                    "name": "A4",
                    "midi": 69,
                    "time": 14.49998549999996,
                    "velocity": 0.6771653543307087,
                    "duration": 0.06111104999999917
                },
                {
                    "name": "F4",
                    "midi": 65,
                    "time": 14.49998549999996,
                    "velocity": 0.6535433070866141,
                    "duration": 0.06111104999999917
                },
                {
                    "name": "D4",
                    "midi": 62,
                    "time": 14.49998549999996,
                    "velocity": 0.5984251968503937,
                    "duration": 0.06111104999999917
                },
                {
                    "name": "G3",
                    "midi": 55,
                    "time": 14.666651999999958,
                    "velocity": 0.6535433070866141,
                    "duration": 0.33194411249999867
                },
                {
                    "name": "F#4",
                    "midi": 66,
                    "time": 14.666651999999958,
                    "velocity": 0.44881889763779526,
                    "duration": 0.06111104999999917
                },
                {
                    "name": "D4",
                    "midi": 62,
                    "time": 14.666651999999958,
                    "velocity": 0.5354330708661418,
                    "duration": 0.06111104999999917
                },
                {
                    "name": "G4",
                    "midi": 67,
                    "time": 14.666651999999958,
                    "velocity": 0.5669291338582677,
                    "duration": 0.06111104999999917
                },
                {
                    "name": "E4",
                    "midi": 64,
                    "time": 14.833318499999958,
                    "velocity": 0.5118110236220472,
                    "duration": 0.06111104999999917
                },
                {
                    "name": "G4",
                    "midi": 67,
                    "time": 14.833318499999958,
                    "velocity": 0.5354330708661418,
                    "duration": 0.06111104999999917
                },
                {
                    "name": "C4",
                    "midi": 60,
                    "time": 14.833318499999958,
                    "velocity": 0.5354330708661418,
                    "duration": 0.06111104999999917
                },
                {
                    "name": "D4",
                    "midi": 62,
                    "time": 14.999984999999956,
                    "velocity": 0.5669291338582677,
                    "duration": 0.06111104999999917
                },
                {
                    "name": "G4",
                    "midi": 67,
                    "time": 14.999984999999956,
                    "velocity": 0.4881889763779528,
                    "duration": 0.06111104999999917
                },
                {
                    "name": "B3",
                    "midi": 59,
                    "time": 14.999984999999956,
                    "velocity": 0.5275590551181102,
                    "duration": 0.06111104999999917
                },
                {
                    "name": "D5",
                    "midi": 74,
                    "time": 15.166651499999956,
                    "velocity": 0.7401574803149606,
                    "duration": 0.16527761249999884
                },
                {
                    "name": "A3",
                    "midi": 57,
                    "time": 15.166651499999956,
                    "velocity": 0.49606299212598426,
                    "duration": 0.06111104999999917
                },
                {
                    "name": "C4",
                    "midi": 60,
                    "time": 15.166651499999956,
                    "velocity": 0.5196850393700787,
                    "duration": 0.06111104999999917
                },
                {
                    "name": "G4",
                    "midi": 67,
                    "time": 15.166651499999956,
                    "velocity": 0.5118110236220472,
                    "duration": 0.06111104999999917
                },
                {
                    "name": "G5",
                    "midi": 79,
                    "time": 15.333317999999954,
                    "velocity": 0.7952755905511811,
                    "duration": 0.33194411249999867
                },
                {
                    "name": "B3",
                    "midi": 59,
                    "time": 15.333317999999954,
                    "velocity": 0.4409448818897638,
                    "duration": 0.06111104999999917
                },
                {
                    "name": "G4",
                    "midi": 67,
                    "time": 15.333317999999954,
                    "velocity": 0.6062992125984252,
                    "duration": 0.06111104999999917
                },
                {
                    "name": "G3",
                    "midi": 55,
                    "time": 15.333317999999954,
                    "velocity": 0.47244094488188976,
                    "duration": 0.06111104999999917
                },
                {
                    "name": "F#4",
                    "midi": 66,
                    "time": 15.499984499999954,
                    "velocity": 0.5118110236220472,
                    "duration": 0.06111104999999917
                },
                {
                    "name": "B3",
                    "midi": 59,
                    "time": 15.499984499999954,
                    "velocity": 0.29133858267716534,
                    "duration": 0.06111104999999917
                },
                {
                    "name": "G3",
                    "midi": 55,
                    "time": 15.499984499999954,
                    "velocity": 0.3543307086614173,
                    "duration": 0.06111104999999917
                },
                {
                    "name": "B3",
                    "midi": 59,
                    "time": 15.666650999999952,
                    "velocity": 0.4409448818897638,
                    "duration": 0.06111104999999917
                },
                {
                    "name": "E4",
                    "midi": 64,
                    "time": 15.666650999999952,
                    "velocity": 0.5590551181102362,
                    "duration": 0.06111104999999917
                },
                {
                    "name": "G#3",
                    "midi": 56,
                    "time": 15.666650999999952,
                    "velocity": 0.4015748031496063,
                    "duration": 0.06111104999999917
                },
                {
                    "name": "G3",
                    "midi": 55,
                    "time": 15.833317499999952,
                    "velocity": 0.7007874015748031,
                    "duration": 0.16527761249999884
                },
                {
                    "name": "D4",
                    "midi": 62,
                    "time": 15.833317499999952,
                    "velocity": 0.5275590551181102,
                    "duration": 0.06111104999999917
                },
                {
                    "name": "A#3",
                    "midi": 58,
                    "time": 15.833317499999952,
                    "velocity": 0.41732283464566927,
                    "duration": 0.06111104999999917
                },
                {
                    "name": "A3",
                    "midi": 57,
                    "time": 15.833317499999952,
                    "velocity": 0.4094488188976378,
                    "duration": 0.06111104999999917
                },
                {
                    "name": "D3",
                    "midi": 50,
                    "time": 15.99998399999995,
                    "velocity": 0.7401574803149606,
                    "duration": 0.3319441125000022
                },
                {
                    "name": "G#3",
                    "midi": 56,
                    "time": 15.99998399999995,
                    "velocity": 0.5118110236220472,
                    "duration": 0.06111104999999917
                },
                {
                    "name": "D4",
                    "midi": 62,
                    "time": 15.99998399999995,
                    "velocity": 0.5984251968503937,
                    "duration": 0.06111104999999917
                },
                {
                    "name": "C4",
                    "midi": 60,
                    "time": 15.99998399999995,
                    "velocity": 0.5196850393700787,
                    "duration": 0.06111104999999917
                },
                {
                    "name": "D4",
                    "midi": 62,
                    "time": 16.16665049999995,
                    "velocity": 0.5511811023622047,
                    "duration": 0.061111050000000944
                },
                {
                    "name": "B3",
                    "midi": 59,
                    "time": 16.16665049999995,
                    "velocity": 0.4566929133858268,
                    "duration": 0.061111050000000944
                },
                {
                    "name": "G3",
                    "midi": 55,
                    "time": 16.16665049999995,
                    "velocity": 0.41732283464566927,
                    "duration": 0.061111050000000944
                },
                {
                    "name": "D4",
                    "midi": 62,
                    "time": 16.33331699999995,
                    "velocity": 0.5511811023622047,
                    "duration": 0.061111050000000944
                },
                {
                    "name": "A3",
                    "midi": 57,
                    "time": 16.33331699999995,
                    "velocity": 0.5275590551181102,
                    "duration": 0.061111050000000944
                },
                {
                    "name": "F#3",
                    "midi": 54,
                    "time": 16.33331699999995,
                    "velocity": 0.3779527559055118,
                    "duration": 0.061111050000000944
                },
                {
                    "name": "D5",
                    "midi": 74,
                    "time": 16.499983499999953,
                    "velocity": 0.7401574803149606,
                    "duration": 0.1652776125000024
                },
                {
                    "name": "D4",
                    "midi": 62,
                    "time": 16.499983499999953,
                    "velocity": 0.5669291338582677,
                    "duration": 0.061111050000000944
                },
                {
                    "name": "G3",
                    "midi": 55,
                    "time": 16.499983499999953,
                    "velocity": 0.5118110236220472,
                    "duration": 0.061111050000000944
                },
                {
                    "name": "E3",
                    "midi": 52,
                    "time": 16.499983499999953,
                    "velocity": 0.4330708661417323,
                    "duration": 0.061111050000000944
                },
                {
                    "name": "A4",
                    "midi": 69,
                    "time": 16.666649999999954,
                    "velocity": 0.7401574803149606,
                    "duration": 0.331944112500004
                },
                {
                    "name": "F#3",
                    "midi": 54,
                    "time": 16.666649999999954,
                    "velocity": 0.4881889763779528,
                    "duration": 0.061111050000000944
                },
                {
                    "name": "D4",
                    "midi": 62,
                    "time": 16.666649999999954,
                    "velocity": 0.5826771653543307,
                    "duration": 0.061111050000000944
                },
                {
                    "name": "D3",
                    "midi": 50,
                    "time": 16.666649999999954,
                    "velocity": 0.49606299212598426,
                    "duration": 0.061111050000000944
                },
                {
                    "name": "D#3",
                    "midi": 51,
                    "time": 16.833316499999956,
                    "velocity": 0.4015748031496063,
                    "duration": 0.061111050000000944
                },
                {
                    "name": "C4",
                    "midi": 60,
                    "time": 16.833316499999956,
                    "velocity": 0.5196850393700787,
                    "duration": 0.061111050000000944
                },
                {
                    "name": "B3",
                    "midi": 59,
                    "time": 16.999982999999958,
                    "velocity": 0.5354330708661418,
                    "duration": 0.061111050000000944
                },
                {
                    "name": "E3",
                    "midi": 52,
                    "time": 16.999982999999958,
                    "velocity": 0.5118110236220472,
                    "duration": 0.061111050000000944
                },
                {
                    "name": "D3",
                    "midi": 50,
                    "time": 16.999982999999958,
                    "velocity": 0.44881889763779526,
                    "duration": 0.061111050000000944
                },
                {
                    "name": "F3",
                    "midi": 53,
                    "time": 17.16664949999996,
                    "velocity": 0.4881889763779528,
                    "duration": 0.061111050000000944
                },
                {
                    "name": "A3",
                    "midi": 57,
                    "time": 17.16664949999996,
                    "velocity": 0.5275590551181102,
                    "duration": 0.061111050000000944
                },
                {
                    "name": "D3",
                    "midi": 50,
                    "time": 17.16664949999996,
                    "velocity": 0.2992125984251969,
                    "duration": 0.061111050000000944
                },
                {
                    "name": "E4",
                    "midi": 64,
                    "time": 17.33331599999996,
                    "velocity": 0.5984251968503937,
                    "duration": 0.33194411250000044
                },
                {
                    "name": "E3",
                    "midi": 52,
                    "time": 17.33331599999996,
                    "velocity": 0.5826771653543307,
                    "duration": 0.33194411250000044
                },
                {
                    "name": "G#3",
                    "midi": 56,
                    "time": 17.33331599999996,
                    "velocity": 0.5748031496062992,
                    "duration": 0.33194411250000044
                },
                {
                    "name": "B4",
                    "midi": 71,
                    "time": 17.66664899999996,
                    "velocity": 0.5196850393700787,
                    "duration": 0.061111050000000944
                },
                {
                    "name": "D#5",
                    "midi": 75,
                    "time": 17.66664899999996,
                    "velocity": 0.44881889763779526,
                    "duration": 0.061111050000000944
                },
                {
                    "name": "E5",
                    "midi": 76,
                    "time": 17.66664899999996,
                    "velocity": 0.5196850393700787,
                    "duration": 0.061111050000000944
                },
                {
                    "name": "B5",
                    "midi": 83,
                    "time": 17.833315499999962,
                    "velocity": 0.5984251968503937,
                    "duration": 0.05416661250000132
                },
                {
                    "name": "C#5",
                    "midi": 73,
                    "time": 17.833315499999962,
                    "velocity": 0.5511811023622047,
                    "duration": 0.061111050000000944
                },
                {
                    "name": "E5",
                    "midi": 76,
                    "time": 17.833315499999962,
                    "velocity": 0.5275590551181102,
                    "duration": 0.061111050000000944
                },
                {
                    "name": "A4",
                    "midi": 69,
                    "time": 17.833315499999962,
                    "velocity": 0.5275590551181102,
                    "duration": 0.061111050000000944
                },
                {
                    "name": "C#6",
                    "midi": 85,
                    "time": 17.888870999999963,
                    "velocity": 0.5748031496062992,
                    "duration": 0.05416661250000132
                },
                {
                    "name": "D#6",
                    "midi": 87,
                    "time": 17.944426499999963,
                    "velocity": 0.6535433070866141,
                    "duration": 0.05416661250000132
                },
                {
                    "name": "E6",
                    "midi": 88,
                    "time": 17.999981999999964,
                    "velocity": 0.7401574803149606,
                    "duration": 0.10972211250000186
                },
                {
                    "name": "G#4",
                    "midi": 68,
                    "time": 17.999981999999964,
                    "velocity": 0.4409448818897638,
                    "duration": 0.061111050000000944
                },
                {
                    "name": "E5",
                    "midi": 76,
                    "time": 17.999981999999964,
                    "velocity": 0.5118110236220472,
                    "duration": 0.061111050000000944
                },
                {
                    "name": "E4",
                    "midi": 64,
                    "time": 17.999981999999964,
                    "velocity": 0.5118110236220472,
                    "duration": 0.061111050000000944
                },
                {
                    "name": "E3",
                    "midi": 52,
                    "time": 18.166648499999965,
                    "velocity": 0.7244094488188977,
                    "duration": 0.061111050000000944
                },
                {
                    "name": "G#4",
                    "midi": 68,
                    "time": 18.166648499999965,
                    "velocity": 0.36220472440944884,
                    "duration": 0.061111050000000944
                },
                {
                    "name": "D#5",
                    "midi": 75,
                    "time": 18.166648499999965,
                    "velocity": 0.5275590551181102,
                    "duration": 0.061111050000000944
                },
                {
                    "name": "E4",
                    "midi": 64,
                    "time": 18.166648499999965,
                    "velocity": 0.28346456692913385,
                    "duration": 0.061111050000000944
                },
                {
                    "name": "G#3",
                    "midi": 56,
                    "time": 18.333314999999967,
                    "velocity": 0.7322834645669292,
                    "duration": 0.061111050000000944
                },
                {
                    "name": "C#5",
                    "midi": 73,
                    "time": 18.333314999999967,
                    "velocity": 0.5354330708661418,
                    "duration": 0.061111050000000944
                },
                {
                    "name": "G#4",
                    "midi": 68,
                    "time": 18.333314999999967,
                    "velocity": 0.31496062992125984,
                    "duration": 0.061111050000000944
                },
                {
                    "name": "F4",
                    "midi": 65,
                    "time": 18.333314999999967,
                    "velocity": 0.3700787401574803,
                    "duration": 0.061111050000000944
                },
                {
                    "name": "E3",
                    "midi": 52,
                    "time": 18.49998149999997,
                    "velocity": 0.6929133858267716,
                    "duration": 0.061111050000000944
                },
                {
                    "name": "B4",
                    "midi": 71,
                    "time": 18.49998149999997,
                    "velocity": 0.5354330708661418,
                    "duration": 0.061111050000000944
                },
                {
                    "name": "G#4",
                    "midi": 68,
                    "time": 18.49998149999997,
                    "velocity": 0.29133858267716534,
                    "duration": 0.061111050000000944
                },
                {
                    "name": "F4",
                    "midi": 65,
                    "time": 18.49998149999997,
                    "velocity": 0.4409448818897638,
                    "duration": 0.061111050000000944
                },
                {
                    "name": "B3",
                    "midi": 59,
                    "time": 18.66664799999997,
                    "velocity": 0.8818897637795275,
                    "duration": 0.061111050000000944
                },
                {
                    "name": "A4",
                    "midi": 69,
                    "time": 18.66664799999997,
                    "velocity": 0.5275590551181102,
                    "duration": 0.061111050000000944
                },
                {
                    "name": "B4",
                    "midi": 71,
                    "time": 18.66664799999997,
                    "velocity": 0.5354330708661418,
                    "duration": 0.061111050000000944
                },
                {
                    "name": "F4",
                    "midi": 65,
                    "time": 18.66664799999997,
                    "velocity": 0.49606299212598426,
                    "duration": 0.061111050000000944
                },
                {
                    "name": "B4",
                    "midi": 71,
                    "time": 18.83331449999997,
                    "velocity": 0.48031496062992124,
                    "duration": 0.061111050000000944
                },
                {
                    "name": "E4",
                    "midi": 64,
                    "time": 18.83331449999997,
                    "velocity": 0.5196850393700787,
                    "duration": 0.061111050000000944
                },
                {
                    "name": "G#4",
                    "midi": 68,
                    "time": 18.83331449999997,
                    "velocity": 0.5511811023622047,
                    "duration": 0.061111050000000944
                },
                {
                    "name": "A#4",
                    "midi": 70,
                    "time": 18.999980999999973,
                    "velocity": 0.7007874015748031,
                    "duration": 0.08194436249999981
                },
                {
                    "name": "B4",
                    "midi": 71,
                    "time": 18.999980999999973,
                    "velocity": 0.5826771653543307,
                    "duration": 0.061111050000000944
                },
                {
                    "name": "F#4",
                    "midi": 66,
                    "time": 18.999980999999973,
                    "velocity": 0.4566929133858268,
                    "duration": 0.061111050000000944
                },
                {
                    "name": "D#4",
                    "midi": 63,
                    "time": 18.999980999999973,
                    "velocity": 0.4094488188976378,
                    "duration": 0.061111050000000944
                },
                {
                    "name": "B4",
                    "midi": 71,
                    "time": 19.16664749999997,
                    "velocity": 0.5748031496062992,
                    "duration": 0.061111050000000944
                },
                {
                    "name": "E4",
                    "midi": 64,
                    "time": 19.16664749999997,
                    "velocity": 0.36220472440944884,
                    "duration": 0.061111050000000944
                },
                {
                    "name": "C#4",
                    "midi": 61,
                    "time": 19.16664749999997,
                    "velocity": 0.3937007874015748,
                    "duration": 0.061111050000000944
                },
                {
                    "name": "B5",
                    "midi": 83,
                    "time": 19.333313999999973,
                    "velocity": 0.7952755905511811,
                    "duration": 0.1652776125000024
                },
                {
                    "name": "D#4",
                    "midi": 63,
                    "time": 19.333313999999973,
                    "velocity": 0.3779527559055118,
                    "duration": 0.061111050000000944
                },
                {
                    "name": "B4",
                    "midi": 71,
                    "time": 19.333313999999973,
                    "velocity": 0.5984251968503937,
                    "duration": 0.061111050000000944
                },
                {
                    "name": "B3",
                    "midi": 59,
                    "time": 19.333313999999973,
                    "velocity": 0.29133858267716534,
                    "duration": 0.061111050000000944
                },
                {
                    "name": "F#4",
                    "midi": 66,
                    "time": 19.499980499999975,
                    "velocity": 0.7244094488188977,
                    "duration": 0.08194436249999981
                },
                {
                    "name": "A4",
                    "midi": 69,
                    "time": 19.499980499999975,
                    "velocity": 0.5826771653543307,
                    "duration": 0.061111050000000944
                },
                {
                    "name": "C4",
                    "midi": 60,
                    "time": 19.499980499999975,
                    "velocity": 0.4566929133858268,
                    "duration": 0.061111050000000944
                },
                {
                    "name": "B3",
                    "midi": 59,
                    "time": 19.499980499999975,
                    "velocity": 0.3700787401574803,
                    "duration": 0.061111050000000944
                },
                {
                    "name": "F#3",
                    "midi": 54,
                    "time": 19.666646999999973,
                    "velocity": 0.5984251968503937,
                    "duration": 0.08194436249999981
                },
                {
                    "name": "G#4",
                    "midi": 68,
                    "time": 19.666646999999973,
                    "velocity": 0.5354330708661418,
                    "duration": 0.061111050000000944
                },
                {
                    "name": "C#4",
                    "midi": 61,
                    "time": 19.666646999999973,
                    "velocity": 0.4330708661417323,
                    "duration": 0.061111050000000944
                },
                {
                    "name": "B3",
                    "midi": 59,
                    "time": 19.666646999999973,
                    "velocity": 0.4566929133858268,
                    "duration": 0.061111050000000944
                },
                {
                    "name": "B2",
                    "midi": 47,
                    "time": 19.83331349999997,
                    "velocity": 0.6535433070866141,
                    "duration": 0.08194436249999981
                },
                {
                    "name": "F#4",
                    "midi": 66,
                    "time": 19.83331349999997,
                    "velocity": 0.5669291338582677,
                    "duration": 0.061111050000000944
                },
                {
                    "name": "D4",
                    "midi": 62,
                    "time": 19.83331349999997,
                    "velocity": 0.3937007874015748,
                    "duration": 0.061111050000000944
                },
                {
                    "name": "B3",
                    "midi": 59,
                    "time": 19.83331349999997,
                    "velocity": 0.4566929133858268,
                    "duration": 0.061111050000000944
                },
                {
                    "name": "E3",
                    "midi": 52,
                    "time": 19.99997999999997,
                    "velocity": 0.7244094488188977,
                    "duration": 0.1652776125000024
                },
                {
                    "name": "D#4",
                    "midi": 63,
                    "time": 19.99997999999997,
                    "velocity": 0.3779527559055118,
                    "duration": 0.061111050000000944
                },
                {
                    "name": "E4",
                    "midi": 64,
                    "time": 19.99997999999997,
                    "velocity": 0.5511811023622047,
                    "duration": 0.061111050000000944
                },
                {
                    "name": "B3",
                    "midi": 59,
                    "time": 19.99997999999997,
                    "velocity": 0.5275590551181102,
                    "duration": 0.061111050000000944
                },
                {
                    "name": "E4",
                    "midi": 64,
                    "time": 20.16664649999997,
                    "velocity": 0.5118110236220472,
                    "duration": 0.061111050000000944
                },
                {
                    "name": "A3",
                    "midi": 57,
                    "time": 20.16664649999997,
                    "velocity": 0.4094488188976378,
                    "duration": 0.061111050000000944
                },
                {
                    "name": "C#4",
                    "midi": 61,
                    "time": 20.16664649999997,
                    "velocity": 0.4330708661417323,
                    "duration": 0.061111050000000944
                },
                {
                    "name": "B4",
                    "midi": 71,
                    "time": 20.333312999999972,
                    "velocity": 0.6141732283464567,
                    "duration": 0.1652776125000024
                },
                {
                    "name": "E5",
                    "midi": 76,
                    "time": 20.333312999999972,
                    "velocity": 0.6220472440944882,
                    "duration": 0.1652776125000024
                },
                {
                    "name": "E4",
                    "midi": 64,
                    "time": 20.333312999999972,
                    "velocity": 0.5748031496062992,
                    "duration": 0.061111050000000944
                },
                {
                    "name": "B3",
                    "midi": 59,
                    "time": 20.333312999999972,
                    "velocity": 0.4094488188976378,
                    "duration": 0.061111050000000944
                },
                {
                    "name": "G#3",
                    "midi": 56,
                    "time": 20.333312999999972,
                    "velocity": 0.49606299212598426,
                    "duration": 0.061111050000000944
                },
                {
                    "name": "A3",
                    "midi": 57,
                    "time": 20.499979499999974,
                    "velocity": 0.41732283464566927,
                    "duration": 0.061111050000000944
                },
                {
                    "name": "E4",
                    "midi": 64,
                    "time": 20.499979499999974,
                    "velocity": 0.5275590551181102,
                    "duration": 0.061111050000000944
                },
                {
                    "name": "F#3",
                    "midi": 54,
                    "time": 20.499979499999974,
                    "velocity": 0.5118110236220472,
                    "duration": 0.061111050000000944
                },
                {
                    "name": "B4",
                    "midi": 71,
                    "time": 20.583312749999976,
                    "velocity": 0.7007874015748031,
                    "duration": 0.08194436249999981
                },
                {
                    "name": "E5",
                    "midi": 76,
                    "time": 20.583312749999976,
                    "velocity": 0.7007874015748031,
                    "duration": 0.08194436249999981
                },
                {
                    "name": "E5",
                    "midi": 76,
                    "time": 20.666645999999975,
                    "velocity": 0.6535433070866141,
                    "duration": 0.1652776125000024
                },
                {
                    "name": "B4",
                    "midi": 71,
                    "time": 20.666645999999975,
                    "velocity": 0.6141732283464567,
                    "duration": 0.1652776125000024
                },
                {
                    "name": "E3",
                    "midi": 52,
                    "time": 20.666645999999975,
                    "velocity": 0.3937007874015748,
                    "duration": 0.061111050000000944
                },
                {
                    "name": "G#3",
                    "midi": 56,
                    "time": 20.666645999999975,
                    "velocity": 0.3464566929133858,
                    "duration": 0.061111050000000944
                },
                {
                    "name": "E4",
                    "midi": 64,
                    "time": 20.666645999999975,
                    "velocity": 0.5748031496062992,
                    "duration": 0.061111050000000944
                },
                {
                    "name": "E2",
                    "midi": 40,
                    "time": 20.833312499999977,
                    "velocity": 0.7007874015748031,
                    "duration": 0.08194436249999981
                },
                {
                    "name": "D#4",
                    "midi": 63,
                    "time": 20.833312499999977,
                    "velocity": 0.5511811023622047,
                    "duration": 0.061111050000000944
                },
                {
                    "name": "G#3",
                    "midi": 56,
                    "time": 20.833312499999977,
                    "velocity": 0.36220472440944884,
                    "duration": 0.061111050000000944
                },
                {
                    "name": "E3",
                    "midi": 52,
                    "time": 20.833312499999977,
                    "velocity": 0.3464566929133858,
                    "duration": 0.061111050000000944
                },
                {
                    "name": "G#2",
                    "midi": 44,
                    "time": 20.999978999999975,
                    "velocity": 0.7244094488188977,
                    "duration": 0.08194436249999981
                },
                {
                    "name": "A3",
                    "midi": 57,
                    "time": 20.999978999999975,
                    "velocity": 0.4409448818897638,
                    "duration": 0.061111050000000944
                },
                {
                    "name": "C#4",
                    "midi": 61,
                    "time": 20.999978999999975,
                    "velocity": 0.5590551181102362,
                    "duration": 0.061111050000000944
                },
                {
                    "name": "G3",
                    "midi": 55,
                    "time": 20.999978999999975,
                    "velocity": 0.5118110236220472,
                    "duration": 0.061111050000000944
                },
                {
                    "name": "E2",
                    "midi": 40,
                    "time": 21.166645499999973,
                    "velocity": 0.6535433070866141,
                    "duration": 0.08194436249999981
                },
                {
                    "name": "B3",
                    "midi": 59,
                    "time": 21.166645499999973,
                    "velocity": 0.5748031496062992,
                    "duration": 0.061111050000000944
                },
                {
                    "name": "G3",
                    "midi": 55,
                    "time": 21.166645499999973,
                    "velocity": 0.5196850393700787,
                    "duration": 0.061111050000000944
                },
                {
                    "name": "A3",
                    "midi": 57,
                    "time": 21.166645499999973,
                    "velocity": 0.41732283464566927,
                    "duration": 0.061111050000000944
                },
                {
                    "name": "B2",
                    "midi": 47,
                    "time": 21.33331199999997,
                    "velocity": 0.7637795275590551,
                    "duration": 0.08194436249999981
                },
                {
                    "name": "A3",
                    "midi": 57,
                    "time": 21.33331199999997,
                    "velocity": 0.5196850393700787,
                    "duration": 0.061111050000000944
                },
                {
                    "name": "B3",
                    "midi": 59,
                    "time": 21.33331199999997,
                    "velocity": 0.5275590551181102,
                    "duration": 0.061111050000000944
                },
                {
                    "name": "F3",
                    "midi": 53,
                    "time": 21.33331199999997,
                    "velocity": 0.5984251968503937,
                    "duration": 0.061111050000000944
                },
                {
                    "name": "B3",
                    "midi": 59,
                    "time": 21.49997849999997,
                    "velocity": 0.5669291338582677,
                    "duration": 0.061111050000000944
                },
                {
                    "name": "G#3",
                    "midi": 56,
                    "time": 21.49997849999997,
                    "velocity": 0.4409448818897638,
                    "duration": 0.061111050000000944
                },
                {
                    "name": "E3",
                    "midi": 52,
                    "time": 21.49997849999997,
                    "velocity": 0.33070866141732286,
                    "duration": 0.061111050000000944
                },
                {
                    "name": "A#3",
                    "midi": 58,
                    "time": 21.66664499999997,
                    "velocity": 0.6535433070866141,
                    "duration": 0.08194436249999981
                },
                {
                    "name": "F#3",
                    "midi": 54,
                    "time": 21.66664499999997,
                    "velocity": 0.4094488188976378,
                    "duration": 0.061111050000000944
                },
                {
                    "name": "B3",
                    "midi": 59,
                    "time": 21.66664499999997,
                    "velocity": 0.5748031496062992,
                    "duration": 0.061111050000000944
                },
                {
                    "name": "D#3",
                    "midi": 51,
                    "time": 21.66664499999997,
                    "velocity": 0.3937007874015748,
                    "duration": 0.061111050000000944
                },
                {
                    "name": "B3",
                    "midi": 59,
                    "time": 21.83331149999997,
                    "velocity": 0.5669291338582677,
                    "duration": 0.061111050000000944
                },
                {
                    "name": "E3",
                    "midi": 52,
                    "time": 21.83331149999997,
                    "velocity": 0.5275590551181102,
                    "duration": 0.061111050000000944
                },
                {
                    "name": "C#3",
                    "midi": 49,
                    "time": 21.83331149999997,
                    "velocity": 0.47244094488188976,
                    "duration": 0.061111050000000944
                },
                {
                    "name": "B4",
                    "midi": 71,
                    "time": 21.99997799999997,
                    "velocity": 0.7244094488188977,
                    "duration": 0.08194436249999981
                },
                {
                    "name": "B3",
                    "midi": 59,
                    "time": 21.99997799999997,
                    "velocity": 0.5511811023622047,
                    "duration": 0.061111050000000944
                },
                {
                    "name": "D#3",
                    "midi": 51,
                    "time": 21.99997799999997,
                    "velocity": 0.4094488188976378,
                    "duration": 0.061111050000000944
                },
                {
                    "name": "B2",
                    "midi": 47,
                    "time": 21.99997799999997,
                    "velocity": 0.4566929133858268,
                    "duration": 0.061111050000000944
                },
                {
                    "name": "D3",
                    "midi": 50,
                    "time": 22.16664449999997,
                    "velocity": 0.6220472440944882,
                    "duration": 0.08194436249999981
                },
                {
                    "name": "D2",
                    "midi": 38,
                    "time": 22.16664449999997,
                    "velocity": 0.7244094488188977,
                    "duration": 0.08194436249999981
                },
                {
                    "name": "G#3",
                    "midi": 56,
                    "time": 22.16664449999997,
                    "velocity": 0.6299212598425197,
                    "duration": 0.061111050000000944
                },
                {
                    "name": "F3",
                    "midi": 53,
                    "time": 22.16664449999997,
                    "velocity": 0.7244094488188977,
                    "duration": 0.061111050000000944
                },
                {
                    "name": "B3",
                    "midi": 59,
                    "time": 22.16664449999997,
                    "velocity": 0.7165354330708661,
                    "duration": 0.061111050000000944
                },
                {
                    "name": "E4",
                    "midi": 64,
                    "time": 22.16664449999997,
                    "velocity": 0.7559055118110236,
                    "duration": 0.061111050000000944
                },
                {
                    "name": "C2",
                    "midi": 36,
                    "time": 22.333310999999966,
                    "velocity": 0.6771653543307087,
                    "duration": 0.08194436249999981
                },
                {
                    "name": "C3",
                    "midi": 48,
                    "time": 22.333310999999966,
                    "velocity": 0.7244094488188977,
                    "duration": 0.08194436249999981
                },
                {
                    "name": "G#3",
                    "midi": 56,
                    "time": 22.333310999999966,
                    "velocity": 0.6299212598425197,
                    "duration": 0.061111050000000944
                },
                {
                    "name": "C4",
                    "midi": 60,
                    "time": 22.333310999999966,
                    "velocity": 0.7322834645669292,
                    "duration": 0.061111050000000944
                },
                {
                    "name": "F3",
                    "midi": 53,
                    "time": 22.333310999999966,
                    "velocity": 0.6535433070866141,
                    "duration": 0.061111050000000944
                },
                {
                    "name": "E4",
                    "midi": 64,
                    "time": 22.333310999999966,
                    "velocity": 0.7322834645669292,
                    "duration": 0.061111050000000944
                },
                {
                    "name": "B2",
                    "midi": 47,
                    "time": 22.499977499999964,
                    "velocity": 0.6062992125984252,
                    "duration": 0.08194436249999981
                },
                {
                    "name": "B1",
                    "midi": 35,
                    "time": 22.499977499999964,
                    "velocity": 0.6771653543307087,
                    "duration": 0.08194436249999981
                },
                {
                    "name": "G#3",
                    "midi": 56,
                    "time": 22.499977499999964,
                    "velocity": 0.6377952755905512,
                    "duration": 0.061111050000000944
                },
                {
                    "name": "E4",
                    "midi": 64,
                    "time": 22.499977499999964,
                    "velocity": 0.7007874015748031,
                    "duration": 0.061111050000000944
                },
                {
                    "name": "F3",
                    "midi": 53,
                    "time": 22.499977499999964,
                    "velocity": 0.6535433070866141,
                    "duration": 0.061111050000000944
                },
                {
                    "name": "D4",
                    "midi": 62,
                    "time": 22.499977499999964,
                    "velocity": 0.7401574803149606,
                    "duration": 0.061111050000000944
                },
                {
                    "name": "D4",
                    "midi": 62,
                    "time": 22.666643999999962,
                    "velocity": 0.5826771653543307,
                    "duration": 0.08194436249999981
                },
                {
                    "name": "A2",
                    "midi": 45,
                    "time": 22.666643999999962,
                    "velocity": 0.7244094488188977,
                    "duration": 0.3319441124999969
                },
                {
                    "name": "A1",
                    "midi": 33,
                    "time": 22.666643999999962,
                    "velocity": 0.7007874015748031,
                    "duration": 0.3319441124999969
                },
                {
                    "name": "E4",
                    "midi": 64,
                    "time": 22.666643999999962,
                    "velocity": 0.7637795275590551,
                    "duration": 0.3319441124999969
                },
                {
                    "name": "D4",
                    "midi": 62,
                    "time": 22.83331049999996,
                    "velocity": 0.5275590551181102,
                    "duration": 0.08194436249999981
                },
                {
                    "name": "A3",
                    "midi": 57,
                    "time": 22.83331049999996,
                    "velocity": 0.48031496062992124,
                    "duration": 0.08194436249999981
                },
                {
                    "name": "E4",
                    "midi": 64,
                    "time": 22.99997699999996,
                    "velocity": 0.5354330708661418,
                    "duration": 0.08194436249999981
                },
                {
                    "name": "C#4",
                    "midi": 61,
                    "time": 22.99997699999996,
                    "velocity": 0.5118110236220472,
                    "duration": 0.08194436249999981
                },
                {
                    "name": "C#4",
                    "midi": 61,
                    "time": 23.166643499999957,
                    "velocity": 0.5118110236220472,
                    "duration": 0.08194436249999981
                },
                {
                    "name": "A3",
                    "midi": 57,
                    "time": 23.166643499999957,
                    "velocity": 0.47244094488188976,
                    "duration": 0.08194436249999981
                },
                {
                    "name": "A4",
                    "midi": 69,
                    "time": 23.166643499999957,
                    "velocity": 0.7401574803149606,
                    "duration": 0.16527761249999884
                },
                {
                    "name": "D#4",
                    "midi": 63,
                    "time": 23.333309999999955,
                    "velocity": 0.4881889763779528,
                    "duration": 0.08194436249999981
                },
                {
                    "name": "C4",
                    "midi": 60,
                    "time": 23.333309999999955,
                    "velocity": 0.44881889763779526,
                    "duration": 0.08194436249999981
                },
                {
                    "name": "F4",
                    "midi": 65,
                    "time": 23.333309999999955,
                    "velocity": 0.7637795275590551,
                    "duration": 0.1236109875000011
                },
                {
                    "name": "A3",
                    "midi": 57,
                    "time": 23.499976499999956,
                    "velocity": 0.4881889763779528,
                    "duration": 0.08194436249999981
                },
                {
                    "name": "C4",
                    "midi": 60,
                    "time": 23.499976499999956,
                    "velocity": 0.48031496062992124,
                    "duration": 0.08194436249999981
                },
                {
                    "name": "B3",
                    "midi": 59,
                    "time": 23.666642999999954,
                    "velocity": 0.5354330708661418,
                    "duration": 0.08194436249999981
                },
                {
                    "name": "E3",
                    "midi": 52,
                    "time": 23.666642999999954,
                    "velocity": 0.5826771653543307,
                    "duration": 0.33194411250000044
                },
                {
                    "name": "E2",
                    "midi": 40,
                    "time": 23.666642999999954,
                    "velocity": 0.7244094488188977,
                    "duration": 0.33194411250000044
                },
                {
                    "name": "D4",
                    "midi": 62,
                    "time": 23.666642999999954,
                    "velocity": 0.7086614173228346,
                    "duration": 0.1236109875000011
                },
                {
                    "name": "B3",
                    "midi": 59,
                    "time": 23.833309499999956,
                    "velocity": 0.4330708661417323,
                    "duration": 0.08194436249999981
                },
                {
                    "name": "A3",
                    "midi": 57,
                    "time": 23.833309499999956,
                    "velocity": 0.4330708661417323,
                    "duration": 0.08194436249999981
                },
                {
                    "name": "E4",
                    "midi": 64,
                    "time": 23.999975999999954,
                    "velocity": 0.7637795275590551,
                    "duration": 0.3319441124999969
                },
                {
                    "name": "D4",
                    "midi": 62,
                    "time": 23.999975999999954,
                    "velocity": 0.5826771653543307,
                    "duration": 0.08194436249999981
                },
                {
                    "name": "A2",
                    "midi": 45,
                    "time": 23.999975999999954,
                    "velocity": 0.7244094488188977,
                    "duration": 0.3319441124999969
                },
                {
                    "name": "A1",
                    "midi": 33,
                    "time": 23.999975999999954,
                    "velocity": 0.7007874015748031,
                    "duration": 0.3319441124999969
                },
                {
                    "name": "A3",
                    "midi": 57,
                    "time": 24.166642499999952,
                    "velocity": 0.48031496062992124,
                    "duration": 0.08194436249999981
                },
                {
                    "name": "D4",
                    "midi": 62,
                    "time": 24.166642499999952,
                    "velocity": 0.5275590551181102,
                    "duration": 0.08194436249999981
                },
                {
                    "name": "C#4",
                    "midi": 61,
                    "time": 24.33330899999995,
                    "velocity": 0.5118110236220472,
                    "duration": 0.08194436249999981
                },
                {
                    "name": "E4",
                    "midi": 64,
                    "time": 24.33330899999995,
                    "velocity": 0.5354330708661418,
                    "duration": 0.08194436249999981
                },
                {
                    "name": "A4",
                    "midi": 69,
                    "time": 24.499975499999948,
                    "velocity": 0.7401574803149606,
                    "duration": 0.16527761249999884
                },
                {
                    "name": "A3",
                    "midi": 57,
                    "time": 24.499975499999948,
                    "velocity": 0.47244094488188976,
                    "duration": 0.08194436249999981
                },
                {
                    "name": "C#4",
                    "midi": 61,
                    "time": 24.499975499999948,
                    "velocity": 0.5118110236220472,
                    "duration": 0.08194436249999981
                },
                {
                    "name": "F4",
                    "midi": 65,
                    "time": 24.666641999999946,
                    "velocity": 0.7637795275590551,
                    "duration": 0.1236109875000011
                },
                {
                    "name": "C4",
                    "midi": 60,
                    "time": 24.666641999999946,
                    "velocity": 0.44881889763779526,
                    "duration": 0.08194436249999981
                },
                {
                    "name": "D#4",
                    "midi": 63,
                    "time": 24.666641999999946,
                    "velocity": 0.4881889763779528,
                    "duration": 0.08194436249999981
                },
                {
                    "name": "C4",
                    "midi": 60,
                    "time": 24.833308499999948,
                    "velocity": 0.48031496062992124,
                    "duration": 0.08194436249999981
                },
                {
                    "name": "A3",
                    "midi": 57,
                    "time": 24.833308499999948,
                    "velocity": 0.4881889763779528,
                    "duration": 0.08194436249999981
                },
                {
                    "name": "D4",
                    "midi": 62,
                    "time": 24.999974999999946,
                    "velocity": 0.7086614173228346,
                    "duration": 0.1236109875000011
                },
                {
                    "name": "E3",
                    "midi": 52,
                    "time": 24.999974999999946,
                    "velocity": 0.5826771653543307,
                    "duration": 0.33194411250000044
                },
                {
                    "name": "B3",
                    "midi": 59,
                    "time": 24.999974999999946,
                    "velocity": 0.5354330708661418,
                    "duration": 0.08194436249999981
                },
                {
                    "name": "E3",
                    "midi": 52,
                    "time": 24.999974999999946,
                    "velocity": 0.5826771653543307,
                    "duration": 0.33194411250000044
                },
                {
                    "name": "E2",
                    "midi": 40,
                    "time": 24.999974999999946,
                    "velocity": 0.7244094488188977,
                    "duration": 0.33194411250000044
                },
                {
                    "name": "A3",
                    "midi": 57,
                    "time": 25.166641499999947,
                    "velocity": 0.4330708661417323,
                    "duration": 0.08194436249999981
                },
                {
                    "name": "B3",
                    "midi": 59,
                    "time": 25.166641499999947,
                    "velocity": 0.4330708661417323,
                    "duration": 0.08194436249999981
                },
                {
                    "name": "A2",
                    "midi": 45,
                    "time": 25.333307999999946,
                    "velocity": 0.6771653543307087,
                    "duration": 0.331944112500004
                },
                {
                    "name": "E3",
                    "midi": 52,
                    "time": 25.333307999999946,
                    "velocity": 0.5984251968503937,
                    "duration": 0.331944112500004
                },
                {
                    "name": "E4",
                    "midi": 64,
                    "time": 25.333307999999946,
                    "velocity": 0.6456692913385826,
                    "duration": 0.061111050000000944
                },
                {
                    "name": "C4",
                    "midi": 60,
                    "time": 25.333307999999946,
                    "velocity": 0.6771653543307087,
                    "duration": 0.061111050000000944
                },
                {
                    "name": "E4",
                    "midi": 64,
                    "time": 25.333307999999946,
                    "velocity": 0.84251968503937,
                    "duration": 0.331944112500004
                },
                {
                    "name": "F4",
                    "midi": 65,
                    "time": 25.499974499999947,
                    "velocity": 0.6692913385826772,
                    "duration": 0.061111050000000944
                },
                {
                    "name": "A3",
                    "midi": 57,
                    "time": 25.499974499999947,
                    "velocity": 0.5196850393700787,
                    "duration": 0.061111050000000944
                },
                {
                    "name": "D#4",
                    "midi": 63,
                    "time": 25.66664099999995,
                    "velocity": 0.47244094488188976,
                    "duration": 0.061111050000000944
                },
                {
                    "name": "F#4",
                    "midi": 66,
                    "time": 25.66664099999995,
                    "velocity": 0.5590551181102362,
                    "duration": 0.061111050000000944
                },
                {
                    "name": "G4",
                    "midi": 67,
                    "time": 25.83330749999995,
                    "velocity": 0.7165354330708661,
                    "duration": 0.061111050000000944
                },
                {
                    "name": "C4",
                    "midi": 60,
                    "time": 25.83330749999995,
                    "velocity": 0.6377952755905512,
                    "duration": 0.061111050000000944
                },
                {
                    "name": "E5",
                    "midi": 76,
                    "time": 25.83330749999995,
                    "velocity": 0.7716535433070866,
                    "duration": 0.1652776125000024
                },
                {
                    "name": "E4",
                    "midi": 64,
                    "time": 25.999973999999952,
                    "velocity": 0.6456692913385826,
                    "duration": 0.061111050000000944
                },
                {
                    "name": "G#4",
                    "midi": 68,
                    "time": 25.999973999999952,
                    "velocity": 0.6771653543307087,
                    "duration": 0.061111050000000944
                },
                {
                    "name": "E5",
                    "midi": 76,
                    "time": 25.999973999999952,
                    "velocity": 0.8188976377952756,
                    "duration": 0.331944112500004
                },
                {
                    "name": "C5",
                    "midi": 72,
                    "time": 25.999973999999952,
                    "velocity": 0.7401574803149606,
                    "duration": 0.331944112500004
                },
                {
                    "name": "G4",
                    "midi": 67,
                    "time": 26.166640499999954,
                    "velocity": 0.7007874015748031,
                    "duration": 0.061111050000000944
                },
                {
                    "name": "C4",
                    "midi": 60,
                    "time": 26.166640499999954,
                    "velocity": 0.6377952755905512,
                    "duration": 0.061111050000000944
                },
                {
                    "name": "F#4",
                    "midi": 66,
                    "time": 26.333306999999955,
                    "velocity": 0.6456692913385826,
                    "duration": 0.061111050000000944
                },
                {
                    "name": "D#4",
                    "midi": 63,
                    "time": 26.333306999999955,
                    "velocity": 0.5669291338582677,
                    "duration": 0.061111050000000944
                },
                {
                    "name": "A2",
                    "midi": 45,
                    "time": 26.499973499999957,
                    "velocity": 0.7007874015748031,
                    "duration": 0.1652776125000024
                },
                {
                    "name": "C4",
                    "midi": 60,
                    "time": 26.499973499999957,
                    "velocity": 0.6456692913385826,
                    "duration": 0.061111050000000944
                },
                {
                    "name": "F4",
                    "midi": 65,
                    "time": 26.499973499999957,
                    "velocity": 0.6850393700787402,
                    "duration": 0.061111050000000944
                },
                {
                    "name": "E2",
                    "midi": 40,
                    "time": 26.66663999999996,
                    "velocity": 0.6062992125984252,
                    "duration": 0.331944112500004
                },
                {
                    "name": "E3",
                    "midi": 52,
                    "time": 26.66663999999996,
                    "velocity": 0.5984251968503937,
                    "duration": 0.331944112500004
                },
                {
                    "name": "D#4",
                    "midi": 63,
                    "time": 26.66663999999996,
                    "velocity": 0.5511811023622047,
                    "duration": 0.061111050000000944
                },
                {
                    "name": "E4",
                    "midi": 64,
                    "time": 26.66663999999996,
                    "velocity": 0.8582677165354331,
                    "duration": 0.331944112500004
                },
                {
                    "name": "C4",
                    "midi": 60,
                    "time": 26.83330649999996,
                    "velocity": 0.6141732283464567,
                    "duration": 0.061111050000000944
                },
                {
                    "name": "F4",
                    "midi": 65,
                    "time": 26.83330649999996,
                    "velocity": 0.6062992125984252,
                    "duration": 0.061111050000000944
                },
                {
                    "name": "D4",
                    "midi": 62,
                    "time": 26.99997299999996,
                    "velocity": 0.6535433070866141,
                    "duration": 0.061111050000000944
                },
                {
                    "name": "F#4",
                    "midi": 66,
                    "time": 26.99997299999996,
                    "velocity": 0.6377952755905512,
                    "duration": 0.061111050000000944
                },
                {
                    "name": "B3",
                    "midi": 59,
                    "time": 27.166639499999963,
                    "velocity": 0.6141732283464567,
                    "duration": 0.061111050000000944
                },
                {
                    "name": "G4",
                    "midi": 67,
                    "time": 27.166639499999963,
                    "velocity": 0.6299212598425197,
                    "duration": 0.061111050000000944
                },
                {
                    "name": "B5",
                    "midi": 83,
                    "time": 27.166639499999963,
                    "velocity": 0.84251968503937,
                    "duration": 0.1652776125000024
                },
                {
                    "name": "E5",
                    "midi": 76,
                    "time": 27.166639499999963,
                    "velocity": 0.84251968503937,
                    "duration": 0.1652776125000024
                },
                {
                    "name": "G#4",
                    "midi": 68,
                    "time": 27.333305999999965,
                    "velocity": 0.6929133858267716,
                    "duration": 0.061111050000000944
                },
                {
                    "name": "C#4",
                    "midi": 61,
                    "time": 27.333305999999965,
                    "velocity": 0.6535433070866141,
                    "duration": 0.061111050000000944
                },
                {
                    "name": "E5",
                    "midi": 76,
                    "time": 27.333305999999965,
                    "velocity": 0.7952755905511811,
                    "duration": 0.331944112500004
                },
                {
                    "name": "B4",
                    "midi": 71,
                    "time": 27.333305999999965,
                    "velocity": 0.7007874015748031,
                    "duration": 0.331944112500004
                },
                {
                    "name": "G4",
                    "midi": 67,
                    "time": 27.499972499999966,
                    "velocity": 0.7007874015748031,
                    "duration": 0.061111050000000944
                },
                {
                    "name": "A#3",
                    "midi": 58,
                    "time": 27.499972499999966,
                    "velocity": 0.6535433070866141,
                    "duration": 0.061111050000000944
                },
                {
                    "name": "F#4",
                    "midi": 66,
                    "time": 27.666638999999968,
                    "velocity": 0.6929133858267716,
                    "duration": 0.061111050000000944
                },
                {
                    "name": "D4",
                    "midi": 62,
                    "time": 27.666638999999968,
                    "velocity": 0.6377952755905512,
                    "duration": 0.061111050000000944
                },
                {
                    "name": "B3",
                    "midi": 59,
                    "time": 27.83330549999997,
                    "velocity": 0.6692913385826772,
                    "duration": 0.061111050000000944
                },
                {
                    "name": "F4",
                    "midi": 65,
                    "time": 27.83330549999997,
                    "velocity": 0.6929133858267716,
                    "duration": 0.061111050000000944
                },
                {
                    "name": "A1",
                    "midi": 33,
                    "time": 27.99997199999997,
                    "velocity": 0.5905511811023622,
                    "duration": 0.331944112500004
                },
                {
                    "name": "E2",
                    "midi": 40,
                    "time": 27.99997199999997,
                    "velocity": 0.5511811023622047,
                    "duration": 0.331944112500004
                },
                {
                    "name": "E4",
                    "midi": 64,
                    "time": 27.99997199999997,
                    "velocity": 0.5826771653543307,
                    "duration": 0.331944112500004
                },
                {
                    "name": "D4",
                    "midi": 62,
                    "time": 27.99997199999997,
                    "velocity": 0.5354330708661418,
                    "duration": 0.061111050000000944
                },
                {
                    "name": "A3",
                    "midi": 57,
                    "time": 28.166638499999973,
                    "velocity": 0.4881889763779528,
                    "duration": 0.061111050000000944
                },
                {
                    "name": "C#4",
                    "midi": 61,
                    "time": 28.333304999999974,
                    "velocity": 0.48031496062992124,
                    "duration": 0.061111050000000944
                },
                {
                    "name": "A4",
                    "midi": 69,
                    "time": 28.499971499999976,
                    "velocity": 0.5669291338582677,
                    "duration": 0.1652776125000024
                },
                {
                    "name": "A3",
                    "midi": 57,
                    "time": 28.499971499999976,
                    "velocity": 0.4881889763779528,
                    "duration": 0.061111050000000944
                },
                {
                    "name": "F4",
                    "midi": 65,
                    "time": 28.666637999999978,
                    "velocity": 0.5590551181102362,
                    "duration": 0.331944112500004
                },
                {
                    "name": "D#4",
                    "midi": 63,
                    "time": 28.666637999999978,
                    "velocity": 0.44881889763779526,
                    "duration": 0.061111050000000944
                },
                {
                    "name": "C4",
                    "midi": 60,
                    "time": 28.666637999999978,
                    "velocity": 0.4566929133858268,
                    "duration": 0.061111050000000944
                },
                {
                    "name": "A3",
                    "midi": 57,
                    "time": 28.83330449999998,
                    "velocity": 0.5196850393700787,
                    "duration": 0.061111050000000944
                },
                {
                    "name": "E2",
                    "midi": 40,
                    "time": 28.99997099999998,
                    "velocity": 0.6299212598425197,
                    "duration": 0.331944112500004
                },
                {
                    "name": "E1",
                    "midi": 28,
                    "time": 28.99997099999998,
                    "velocity": 0.6377952755905512,
                    "duration": 0.331944112500004
                },
                {
                    "name": "D4",
                    "midi": 62,
                    "time": 28.99997099999998,
                    "velocity": 0.6377952755905512,
                    "duration": 0.331944112500004
                },
                {
                    "name": "B3",
                    "midi": 59,
                    "time": 28.99997099999998,
                    "velocity": 0.48031496062992124,
                    "duration": 0.061111050000000944
                },
                {
                    "name": "A3",
                    "midi": 57,
                    "time": 29.166637499999982,
                    "velocity": 0.4566929133858268,
                    "duration": 0.061111050000000944
                },
                {
                    "name": "E2",
                    "midi": 40,
                    "time": 29.333303999999984,
                    "velocity": 0.5748031496062992,
                    "duration": 0.331944112500004
                },
                {
                    "name": "A1",
                    "midi": 33,
                    "time": 29.333303999999984,
                    "velocity": 0.5748031496062992,
                    "duration": 0.331944112500004
                },
                {
                    "name": "E4",
                    "midi": 64,
                    "time": 29.333303999999984,
                    "velocity": 0.6062992125984252,
                    "duration": 0.331944112500004
                },
                {
                    "name": "D4",
                    "midi": 62,
                    "time": 29.333303999999984,
                    "velocity": 0.5826771653543307,
                    "duration": 0.061111050000000944
                },
                {
                    "name": "A3",
                    "midi": 57,
                    "time": 29.499970499999986,
                    "velocity": 0.49606299212598426,
                    "duration": 0.061111050000000944
                },
                {
                    "name": "C#4",
                    "midi": 61,
                    "time": 29.666636999999987,
                    "velocity": 0.29133858267716534,
                    "duration": 0.061111050000000944
                },
                {
                    "name": "A4",
                    "midi": 69,
                    "time": 29.83330349999999,
                    "velocity": 0.6062992125984252,
                    "duration": 0.1652776125000024
                },
                {
                    "name": "A3",
                    "midi": 57,
                    "time": 29.83330349999999,
                    "velocity": 0.5118110236220472,
                    "duration": 0.061111050000000944
                },
                {
                    "name": "F4",
                    "midi": 65,
                    "time": 29.99996999999999,
                    "velocity": 0.6377952755905512,
                    "duration": 0.331944112500004
                },
                {
                    "name": "D#4",
                    "midi": 63,
                    "time": 29.99996999999999,
                    "velocity": 0.48031496062992124,
                    "duration": 0.061111050000000944
                },
                {
                    "name": "C4",
                    "midi": 60,
                    "time": 29.99996999999999,
                    "velocity": 0.48031496062992124,
                    "duration": 0.061111050000000944
                },
                {
                    "name": "A3",
                    "midi": 57,
                    "time": 30.166636499999992,
                    "velocity": 0.4566929133858268,
                    "duration": 0.061111050000000944
                },
                {
                    "name": "E1",
                    "midi": 28,
                    "time": 30.333302999999994,
                    "velocity": 0.6456692913385826,
                    "duration": 0.331944112500004
                },
                {
                    "name": "E2",
                    "midi": 40,
                    "time": 30.333302999999994,
                    "velocity": 0.6456692913385826,
                    "duration": 0.331944112500004
                },
                {
                    "name": "D4",
                    "midi": 62,
                    "time": 30.333302999999994,
                    "velocity": 0.5984251968503937,
                    "duration": 0.331944112500004
                },
                {
                    "name": "B3",
                    "midi": 59,
                    "time": 30.333302999999994,
                    "velocity": 0.5118110236220472,
                    "duration": 0.061111050000000944
                },
                {
                    "name": "A3",
                    "midi": 57,
                    "time": 30.499969499999995,
                    "velocity": 0.4094488188976378,
                    "duration": 0.061111050000000944
                },
                {
                    "name": "C4",
                    "midi": 60,
                    "time": 30.666635999999997,
                    "velocity": 0.5748031496062992,
                    "duration": 0.061111050000000944
                },
                {
                    "name": "E4",
                    "midi": 64,
                    "time": 30.666635999999997,
                    "velocity": 0.7401574803149606,
                    "duration": 0.061111050000000944
                },
                {
                    "name": "E2",
                    "midi": 40,
                    "time": 30.666635999999997,
                    "velocity": 0.5748031496062992,
                    "duration": 0.331944112500004
                },
                {
                    "name": "A1",
                    "midi": 33,
                    "time": 30.666635999999997,
                    "velocity": 0.5748031496062992,
                    "duration": 0.331944112500004
                },
                {
                    "name": "F4",
                    "midi": 65,
                    "time": 30.8333025,
                    "velocity": 0.5354330708661418,
                    "duration": 0.061111050000000944
                },
                {
                    "name": "A3",
                    "midi": 57,
                    "time": 30.8333025,
                    "velocity": 0.5590551181102362,
                    "duration": 0.1652776125000024
                },
                {
                    "name": "F#4",
                    "midi": 66,
                    "time": 30.999969,
                    "velocity": 0.49606299212598426,
                    "duration": 0.061111050000000944
                },
                {
                    "name": "D4",
                    "midi": 62,
                    "time": 30.999969,
                    "velocity": 0.5354330708661418,
                    "duration": 0.061111050000000944
                },
                {
                    "name": "B3",
                    "midi": 59,
                    "time": 31.1666355,
                    "velocity": 0.4881889763779528,
                    "duration": 0.061111050000000944
                },
                {
                    "name": "G4",
                    "midi": 67,
                    "time": 31.1666355,
                    "velocity": 0.5354330708661418,
                    "duration": 0.061111050000000944
                },
                {
                    "name": "F3",
                    "midi": 53,
                    "time": 31.333302000000003,
                    "velocity": 0.6062992125984252,
                    "duration": 0.6652771125000072
                },
                {
                    "name": "F2",
                    "midi": 41,
                    "time": 31.333302000000003,
                    "velocity": 0.6062992125984252,
                    "duration": 0.6652771125000072
                },
                {
                    "name": "G#4",
                    "midi": 68,
                    "time": 31.333302000000003,
                    "velocity": 0.5196850393700787,
                    "duration": 0.061111050000000944
                },
                {
                    "name": "E4",
                    "midi": 64,
                    "time": 31.333302000000003,
                    "velocity": 0.4881889763779528,
                    "duration": 0.061111050000000944
                },
                {
                    "name": "C4",
                    "midi": 60,
                    "time": 31.499968500000005,
                    "velocity": 0.5118110236220472,
                    "duration": 0.061111050000000944
                },
                {
                    "name": "A4",
                    "midi": 69,
                    "time": 31.499968500000005,
                    "velocity": 0.5826771653543307,
                    "duration": 0.061111050000000944
                },
                {
                    "name": "A#4",
                    "midi": 70,
                    "time": 31.666635000000007,
                    "velocity": 0.6456692913385826,
                    "duration": 0.061111050000000944
                },
                {
                    "name": "F4",
                    "midi": 65,
                    "time": 31.666635000000007,
                    "velocity": 0.6614173228346457,
                    "duration": 0.061111050000000944
                },
                {
                    "name": "D4",
                    "midi": 62,
                    "time": 31.833301500000008,
                    "velocity": 0.6220472440944882,
                    "duration": 0.061111050000000944
                },
                {
                    "name": "B4",
                    "midi": 71,
                    "time": 31.833301500000008,
                    "velocity": 0.6220472440944882,
                    "duration": 0.061111050000000944
                },
                {
                    "name": "D2",
                    "midi": 38,
                    "time": 31.99996800000001,
                    "velocity": 0.7559055118110236,
                    "duration": 0.665277112499993
                },
                {
                    "name": "D3",
                    "midi": 50,
                    "time": 31.99996800000001,
                    "velocity": 0.6850393700787402,
                    "duration": 0.665277112499993
                },
                {
                    "name": "G#4",
                    "midi": 68,
                    "time": 31.99996800000001,
                    "velocity": 0.6771653543307087,
                    "duration": 0.061111050000000944
                },
                {
                    "name": "C5",
                    "midi": 72,
                    "time": 31.99996800000001,
                    "velocity": 0.7322834645669292,
                    "duration": 0.061111050000000944
                },
                {
                    "name": "C#5",
                    "midi": 73,
                    "time": 32.16663450000001,
                    "velocity": 0.6929133858267716,
                    "duration": 0.061111050000000944
                },
                {
                    "name": "E4",
                    "midi": 64,
                    "time": 32.16663450000001,
                    "velocity": 0.49606299212598426,
                    "duration": 0.061111050000000944
                },
                {
                    "name": "A#4",
                    "midi": 70,
                    "time": 32.333301000000006,
                    "velocity": 0.6692913385826772,
                    "duration": 0.061111050000000944
                },
                {
                    "name": "D5",
                    "midi": 74,
                    "time": 32.333301000000006,
                    "velocity": 0.7322834645669292,
                    "duration": 0.061111050000000944
                },
                {
                    "name": "D#5",
                    "midi": 75,
                    "time": 32.499967500000004,
                    "velocity": 0.7795275590551181,
                    "duration": 0.061111050000000944
                },
                {
                    "name": "F4",
                    "midi": 65,
                    "time": 32.499967500000004,
                    "velocity": 0.7322834645669292,
                    "duration": 0.061111050000000944
                },
                {
                    "name": "A#2",
                    "midi": 46,
                    "time": 32.666634,
                    "velocity": 0.7559055118110236,
                    "duration": 0.3319441124999969
                },
                {
                    "name": "A#1",
                    "midi": 34,
                    "time": 32.666634,
                    "velocity": 0.7637795275590551,
                    "duration": 0.3319441124999969
                },
                {
                    "name": "E5",
                    "midi": 76,
                    "time": 32.666634,
                    "velocity": 0.84251968503937,
                    "duration": 0.061111050000000944
                },
                {
                    "name": "C5",
                    "midi": 72,
                    "time": 32.666634,
                    "velocity": 0.7637795275590551,
                    "duration": 0.061111050000000944
                },
                {
                    "name": "G4",
                    "midi": 67,
                    "time": 32.8333005,
                    "velocity": 0.7952755905511811,
                    "duration": 0.061111050000000944
                },
                {
                    "name": "F5",
                    "midi": 77,
                    "time": 32.8333005,
                    "velocity": 0.8267716535433071,
                    "duration": 0.061111050000000944
                },
                {
                    "name": "E3",
                    "midi": 52,
                    "time": 32.999967,
                    "velocity": 0.7716535433070866,
                    "duration": 0.3319441124999969
                },
                {
                    "name": "E2",
                    "midi": 40,
                    "time": 32.999967,
                    "velocity": 0.7952755905511811,
                    "duration": 0.3319441124999969
                },
                {
                    "name": "C#5",
                    "midi": 73,
                    "time": 32.999967,
                    "velocity": 0.84251968503937,
                    "duration": 0.061111050000000944
                },
                {
                    "name": "F5",
                    "midi": 77,
                    "time": 32.999967,
                    "velocity": 0.952755905511811,
                    "duration": 0.061111050000000944
                },
                {
                    "name": "G#4",
                    "midi": 68,
                    "time": 33.166633499999996,
                    "velocity": 0.7480314960629921,
                    "duration": 0.061111050000000944
                },
                {
                    "name": "E5",
                    "midi": 76,
                    "time": 33.166633499999996,
                    "velocity": 0.7874015748031497,
                    "duration": 0.061111050000000944
                },
                {
                    "name": "A2",
                    "midi": 45,
                    "time": 33.333299999999994,
                    "velocity": 0.8031496062992126,
                    "duration": 0.3319441124999969
                },
                {
                    "name": "A1",
                    "midi": 33,
                    "time": 33.333299999999994,
                    "velocity": 0.9133858267716536,
                    "duration": 0.3319441124999969
                },
                {
                    "name": "E5",
                    "midi": 76,
                    "time": 33.333299999999994,
                    "velocity": 0.7716535433070866,
                    "duration": 0.061111050000000944
                },
                {
                    "name": "A5",
                    "midi": 81,
                    "time": 33.333299999999994,
                    "velocity": 0.84251968503937,
                    "duration": 0.061111050000000944
                },
                {
                    "name": "C5",
                    "midi": 72,
                    "time": 33.333299999999994,
                    "velocity": 0.7637795275590551,
                    "duration": 0.061111050000000944
                },
                {
                    "name": "C5",
                    "midi": 72,
                    "time": 33.49996649999999,
                    "velocity": 0.7401574803149606,
                    "duration": 0.061111050000000944
                },
                {
                    "name": "A5",
                    "midi": 81,
                    "time": 33.49996649999999,
                    "velocity": 0.7874015748031497,
                    "duration": 0.061111050000000944
                },
                {
                    "name": "A#4",
                    "midi": 70,
                    "time": 33.49996649999999,
                    "velocity": 0.7165354330708661,
                    "duration": 0.061111050000000944
                },
                {
                    "name": "C5",
                    "midi": 72,
                    "time": 33.66663299999999,
                    "velocity": 0.7007874015748031,
                    "duration": 0.061111050000000944
                },
                {
                    "name": "B4",
                    "midi": 71,
                    "time": 33.66663299999999,
                    "velocity": 0.7244094488188977,
                    "duration": 0.061111050000000944
                },
                {
                    "name": "A5",
                    "midi": 81,
                    "time": 33.66663299999999,
                    "velocity": 0.8110236220472441,
                    "duration": 0.061111050000000944
                },
                {
                    "name": "E4",
                    "midi": 64,
                    "time": 33.83329949999999,
                    "velocity": 0.8661417322834646,
                    "duration": 0.05416661249999777
                },
                {
                    "name": "A5",
                    "midi": 81,
                    "time": 33.83329949999999,
                    "velocity": 0.7952755905511811,
                    "duration": 0.06111104999999384
                },
                {
                    "name": "C5",
                    "midi": 72,
                    "time": 33.83329949999999,
                    "velocity": 0.7716535433070866,
                    "duration": 0.06111104999999384
                },
                {
                    "name": "F#4",
                    "midi": 66,
                    "time": 33.888854999999985,
                    "velocity": 0.7716535433070866,
                    "duration": 0.05416661249999777
                },
                {
                    "name": "G#4",
                    "midi": 68,
                    "time": 33.94441049999998,
                    "velocity": 0.84251968503937,
                    "duration": 0.05416661249999777
                },
                {
                    "name": "A4",
                    "midi": 69,
                    "time": 33.99996599999998,
                    "velocity": 0.952755905511811,
                    "duration": 0.16527761249999884
                },
                {
                    "name": "C#5",
                    "midi": 73,
                    "time": 33.99996599999998,
                    "velocity": 0.6614173228346457,
                    "duration": 0.061111050000000944
                },
                {
                    "name": "C5",
                    "midi": 72,
                    "time": 33.99996599999998,
                    "velocity": 0.7637795275590551,
                    "duration": 0.061111050000000944
                },
                {
                    "name": "A5",
                    "midi": 81,
                    "time": 33.99996599999998,
                    "velocity": 0.7716535433070866,
                    "duration": 0.061111050000000944
                },
                {
                    "name": "D5",
                    "midi": 74,
                    "time": 34.16663249999998,
                    "velocity": 0.7874015748031497,
                    "duration": 0.061111050000000944
                },
                {
                    "name": "A5",
                    "midi": 81,
                    "time": 34.16663249999998,
                    "velocity": 0.7716535433070866,
                    "duration": 0.061111050000000944
                },
                {
                    "name": "C5",
                    "midi": 72,
                    "time": 34.16663249999998,
                    "velocity": 0.7559055118110236,
                    "duration": 0.061111050000000944
                },
                {
                    "name": "D#5",
                    "midi": 75,
                    "time": 34.333298999999975,
                    "velocity": 0.7480314960629921,
                    "duration": 0.061111050000000944
                },
                {
                    "name": "A5",
                    "midi": 81,
                    "time": 34.333298999999975,
                    "velocity": 0.7716535433070866,
                    "duration": 0.061111050000000944
                },
                {
                    "name": "C5",
                    "midi": 72,
                    "time": 34.333298999999975,
                    "velocity": 0.7559055118110236,
                    "duration": 0.061111050000000944
                },
                {
                    "name": "A2",
                    "midi": 45,
                    "time": 34.49996549999997,
                    "velocity": 0.8031496062992126,
                    "duration": 0.16527761249999884
                },
                {
                    "name": "A3",
                    "midi": 57,
                    "time": 34.49996549999997,
                    "velocity": 0.8267716535433071,
                    "duration": 0.16527761249999884
                },
                {
                    "name": "E5",
                    "midi": 76,
                    "time": 34.49996549999997,
                    "velocity": 0.7086614173228346,
                    "duration": 0.061111050000000944
                },
                {
                    "name": "C5",
                    "midi": 72,
                    "time": 34.49996549999997,
                    "velocity": 0.7401574803149606,
                    "duration": 0.061111050000000944
                },
                {
                    "name": "A5",
                    "midi": 81,
                    "time": 34.49996549999997,
                    "velocity": 0.8031496062992126,
                    "duration": 0.061111050000000944
                },
                {
                    "name": "A2",
                    "midi": 45,
                    "time": 34.66663199999997,
                    "velocity": 0.84251968503937,
                    "duration": 0.3319441124999969
                },
                {
                    "name": "A3",
                    "midi": 57,
                    "time": 34.66663199999997,
                    "velocity": 0.7244094488188977,
                    "duration": 0.3319441124999969
                },
                {
                    "name": "C5",
                    "midi": 72,
                    "time": 34.66663199999997,
                    "velocity": 0.7637795275590551,
                    "duration": 0.061111050000000944
                },
                {
                    "name": "A5",
                    "midi": 81,
                    "time": 34.66663199999997,
                    "velocity": 0.7874015748031497,
                    "duration": 0.061111050000000944
                },
                {
                    "name": "F5",
                    "midi": 77,
                    "time": 34.66663199999997,
                    "velocity": 0.7637795275590551,
                    "duration": 0.061111050000000944
                },
                {
                    "name": "C5",
                    "midi": 72,
                    "time": 34.83329849999997,
                    "velocity": 0.7086614173228346,
                    "duration": 0.061111050000000944
                },
                {
                    "name": "A5",
                    "midi": 81,
                    "time": 34.83329849999997,
                    "velocity": 0.8031496062992126,
                    "duration": 0.061111050000000944
                },
                {
                    "name": "F#5",
                    "midi": 78,
                    "time": 34.83329849999997,
                    "velocity": 0.7716535433070866,
                    "duration": 0.061111050000000944
                },
                {
                    "name": "C5",
                    "midi": 72,
                    "time": 34.99996499999997,
                    "velocity": 0.7559055118110236,
                    "duration": 0.061111050000000944
                },
                {
                    "name": "A5",
                    "midi": 81,
                    "time": 34.99996499999997,
                    "velocity": 0.7874015748031497,
                    "duration": 0.061111050000000944
                },
                {
                    "name": "G5",
                    "midi": 79,
                    "time": 34.99996499999997,
                    "velocity": 0.7716535433070866,
                    "duration": 0.061111050000000944
                },
                {
                    "name": "E2",
                    "midi": 40,
                    "time": 35.166631499999966,
                    "velocity": 0.8267716535433071,
                    "duration": 0.16527761249999884
                },
                {
                    "name": "C5",
                    "midi": 72,
                    "time": 35.166631499999966,
                    "velocity": 0.7559055118110236,
                    "duration": 0.061111050000000944
                },
                {
                    "name": "A5",
                    "midi": 81,
                    "time": 35.166631499999966,
                    "velocity": 0.8661417322834646,
                    "duration": 0.061111050000000944
                },
                {
                    "name": "G#5",
                    "midi": 80,
                    "time": 35.166631499999966,
                    "velocity": 0.8031496062992126,
                    "duration": 0.061111050000000944
                },
                {
                    "name": "A3",
                    "midi": 57,
                    "time": 35.333297999999964,
                    "velocity": 0.8503937007874016,
                    "duration": 0.16527761249999884
                },
                {
                    "name": "A2",
                    "midi": 45,
                    "time": 35.333297999999964,
                    "velocity": 0.905511811023622,
                    "duration": 0.16527761249999884
                },
                {
                    "name": "C5",
                    "midi": 72,
                    "time": 35.333297999999964,
                    "velocity": 0.8818897637795275,
                    "duration": 0.1236109875000011
                },
                {
                    "name": "A5",
                    "midi": 81,
                    "time": 35.333297999999964,
                    "velocity": 0.937007874015748,
                    "duration": 0.1236109875000011
                },
                {
                    "name": "A6",
                    "midi": 93,
                    "time": 35.66663099999996,
                    "velocity": 0.8582677165354331,
                    "duration": 0.16527761249999884
                },
                {
                    "name": "A5",
                    "midi": 81,
                    "time": 35.83329749999996,
                    "velocity": 0.7480314960629921,
                    "duration": 0.16527761249999884
                },
                {
                    "name": "A#5",
                    "midi": 82,
                    "time": 35.999963999999956,
                    "velocity": 0.7952755905511811,
                    "duration": 0.3319441124999969
                },
                {
                    "name": "A5",
                    "midi": 81,
                    "time": 36.33329699999995,
                    "velocity": 0.8346456692913385,
                    "duration": 0.16527761249999884
                },
                {
                    "name": "A4",
                    "midi": 69,
                    "time": 36.49996349999995,
                    "velocity": 0.7716535433070866,
                    "duration": 0.16527761249999884
                },
                {
                    "name": "E5",
                    "midi": 76,
                    "time": 36.66662999999995,
                    "velocity": 0.7086614173228346,
                    "duration": 0.3319441124999969
                },
                {
                    "name": "A6",
                    "midi": 93,
                    "time": 36.999962999999944,
                    "velocity": 0.8346456692913385,
                    "duration": 0.16527761249999884
                },
                {
                    "name": "A5",
                    "midi": 81,
                    "time": 37.16662949999994,
                    "velocity": 0.7165354330708661,
                    "duration": 0.16527761249999884
                },
                {
                    "name": "A#5",
                    "midi": 82,
                    "time": 37.33329599999994,
                    "velocity": 0.7952755905511811,
                    "duration": 0.3319441124999969
                },
                {
                    "name": "A5",
                    "midi": 81,
                    "time": 37.666628999999936,
                    "velocity": 0.7322834645669292,
                    "duration": 0.16527761249999884
                },
                {
                    "name": "A4",
                    "midi": 69,
                    "time": 37.833295499999934,
                    "velocity": 0.7322834645669292,
                    "duration": 0.16527761249999884
                },
                {
                    "name": "E5",
                    "midi": 76,
                    "time": 37.99996199999993,
                    "velocity": 0.7952755905511811,
                    "duration": 0.3319441124999969
                },
                {
                    "name": "A5",
                    "midi": 81,
                    "time": 38.33329499999993,
                    "velocity": 0.7480314960629921,
                    "duration": 0.16527761249999884
                },
                {
                    "name": "A4",
                    "midi": 69,
                    "time": 38.49996149999993,
                    "velocity": 0.7322834645669292,
                    "duration": 0.16527761249999884
                },
                {
                    "name": "B4",
                    "midi": 71,
                    "time": 38.666627999999925,
                    "velocity": 0.7086614173228346,
                    "duration": 0.3319441124999969
                },
                {
                    "name": "A5",
                    "midi": 81,
                    "time": 38.99996099999992,
                    "velocity": 0.7007874015748031,
                    "duration": 0.16527761249999884
                },
                {
                    "name": "A4",
                    "midi": 69,
                    "time": 39.16662749999992,
                    "velocity": 0.5748031496062992,
                    "duration": 0.16527761249999884
                },
                {
                    "name": "G#4",
                    "midi": 68,
                    "time": 39.33329399999992,
                    "velocity": 0.6771653543307087,
                    "duration": 0.3319441124999969
                },
                {
                    "name": "A5",
                    "midi": 81,
                    "time": 39.66662699999991,
                    "velocity": 0.7007874015748031,
                    "duration": 0.16527761249999884
                },
                {
                    "name": "A4",
                    "midi": 69,
                    "time": 39.83329349999991,
                    "velocity": 0.6535433070866141,
                    "duration": 0.16527761249999884
                },
                {
                    "name": "A#4",
                    "midi": 70,
                    "time": 39.99995999999991,
                    "velocity": 0.6220472440944882,
                    "duration": 0.3319441124999969
                },
                {
                    "name": "A5",
                    "midi": 81,
                    "time": 40.333292999999905,
                    "velocity": 0.6929133858267716,
                    "duration": 0.16527761249999884
                },
                {
                    "name": "A4",
                    "midi": 69,
                    "time": 40.4999594999999,
                    "velocity": 0.7086614173228346,
                    "duration": 0.16527761249999884
                },
                {
                    "name": "G#4",
                    "midi": 68,
                    "time": 40.6666259999999,
                    "velocity": 0.6535433070866141,
                    "duration": 0.3319441124999969
                },
                {
                    "name": "A2",
                    "midi": 45,
                    "time": 40.9999589999999,
                    "velocity": 0.5669291338582677,
                    "duration": 0.3319441124999969
                },
                {
                    "name": "A5",
                    "midi": 81,
                    "time": 40.9999589999999,
                    "velocity": 0.6771653543307087,
                    "duration": 0.16527761249999884
                },
                {
                    "name": "A4",
                    "midi": 69,
                    "time": 41.166625499999896,
                    "velocity": 0.5669291338582677,
                    "duration": 0.16527761249999884
                },
                {
                    "name": "D2",
                    "midi": 38,
                    "time": 41.333291999999894,
                    "velocity": 0.5905511811023622,
                    "duration": 0.14861096250000116
                },
                {
                    "name": "G#4",
                    "midi": 68,
                    "time": 41.333291999999894,
                    "velocity": 0.5669291338582677,
                    "duration": 0.16527761249999884
                },
                {
                    "name": "B4",
                    "midi": 71,
                    "time": 41.333291999999894,
                    "velocity": 0.7165354330708661,
                    "duration": 0.16527761249999884
                },
                {
                    "name": "A3",
                    "midi": 57,
                    "time": 41.66662499999989,
                    "velocity": 0.5354330708661418,
                    "duration": 0.3319441124999969
                },
                {
                    "name": "A5",
                    "midi": 81,
                    "time": 41.66662499999989,
                    "velocity": 0.7086614173228346,
                    "duration": 0.16527761249999884
                },
                {
                    "name": "A4",
                    "midi": 69,
                    "time": 41.83329149999989,
                    "velocity": 0.6771653543307087,
                    "duration": 0.16527761249999884
                },
                {
                    "name": "A2",
                    "midi": 45,
                    "time": 41.999957999999886,
                    "velocity": 0.6141732283464567,
                    "duration": 0.14861096250000116
                },
                {
                    "name": "B4",
                    "midi": 71,
                    "time": 41.999957999999886,
                    "velocity": 0.7007874015748031,
                    "duration": 0.16527761249999884
                },
                {
                    "name": "G4",
                    "midi": 67,
                    "time": 41.999957999999886,
                    "velocity": 0.6614173228346457,
                    "duration": 0.16527761249999884
                },
                {
                    "name": "A2",
                    "midi": 45,
                    "time": 42.33329099999988,
                    "velocity": 0.5669291338582677,
                    "duration": 0.3319441124999969
                },
                {
                    "name": "A5",
                    "midi": 81,
                    "time": 42.33329099999988,
                    "velocity": 0.7007874015748031,
                    "duration": 0.16527761249999884
                },
                {
                    "name": "A4",
                    "midi": 69,
                    "time": 42.49995749999988,
                    "velocity": 0.7165354330708661,
                    "duration": 0.16527761249999884
                },
                {
                    "name": "D2",
                    "midi": 38,
                    "time": 42.66662399999988,
                    "velocity": 0.6062992125984252,
                    "duration": 0.14861096250000116
                },
                {
                    "name": "G#4",
                    "midi": 68,
                    "time": 42.66662399999988,
                    "velocity": 0.5433070866141733,
                    "duration": 0.16527761249999884
                },
                {
                    "name": "C#5",
                    "midi": 73,
                    "time": 42.66662399999988,
                    "velocity": 0.6692913385826772,
                    "duration": 0.16527761249999884
                },
                {
                    "name": "A3",
                    "midi": 57,
                    "time": 42.999956999999874,
                    "velocity": 0.6062992125984252,
                    "duration": 0.3319441124999969
                },
                {
                    "name": "A5",
                    "midi": 81,
                    "time": 42.999956999999874,
                    "velocity": 0.7007874015748031,
                    "duration": 0.16527761249999884
                },
                {
                    "name": "A4",
                    "midi": 69,
                    "time": 43.16662349999987,
                    "velocity": 0.6377952755905512,
                    "duration": 0.16527761249999884
                },
                {
                    "name": "A2",
                    "midi": 45,
                    "time": 43.33328999999987,
                    "velocity": 0.6062992125984252,
                    "duration": 0.14861096250000116
                },
                {
                    "name": "C#5",
                    "midi": 73,
                    "time": 43.33328999999987,
                    "velocity": 0.6220472440944882,
                    "duration": 0.16527761249999884
                },
                {
                    "name": "G4",
                    "midi": 67,
                    "time": 43.33328999999987,
                    "velocity": 0.6692913385826772,
                    "duration": 0.16527761249999884
                },
                {
                    "name": "A2",
                    "midi": 45,
                    "time": 43.666622999999866,
                    "velocity": 0.5826771653543307,
                    "duration": 0.3319441124999969
                },
                {
                    "name": "A5",
                    "midi": 81,
                    "time": 43.666622999999866,
                    "velocity": 0.7244094488188977,
                    "duration": 0.16527761249999884
                },
                {
                    "name": "A4",
                    "midi": 69,
                    "time": 43.833289499999864,
                    "velocity": 0.6692913385826772,
                    "duration": 0.16527761249999884
                },
                {
                    "name": "D2",
                    "midi": 38,
                    "time": 43.99995599999986,
                    "velocity": 0.5748031496062992,
                    "duration": 0.14861096250000116
                },
                {
                    "name": "B4",
                    "midi": 71,
                    "time": 43.99995599999986,
                    "velocity": 0.7165354330708661,
                    "duration": 0.16527761249999884
                },
                {
                    "name": "G#4",
                    "midi": 68,
                    "time": 43.99995599999986,
                    "velocity": 0.6456692913385826,
                    "duration": 0.16527761249999884
                },
                {
                    "name": "D5",
                    "midi": 74,
                    "time": 43.99995599999986,
                    "velocity": 0.5118110236220472,
                    "duration": 0.16527761249999884
                },
                {
                    "name": "A3",
                    "midi": 57,
                    "time": 44.33328899999986,
                    "velocity": 0.5433070866141733,
                    "duration": 0.3319441124999969
                },
                {
                    "name": "A5",
                    "midi": 81,
                    "time": 44.33328899999986,
                    "velocity": 0.7007874015748031,
                    "duration": 0.16527761249999884
                },
                {
                    "name": "A4",
                    "midi": 69,
                    "time": 44.49995549999986,
                    "velocity": 0.6299212598425197,
                    "duration": 0.16527761249999884
                },
                {
                    "name": "A2",
                    "midi": 45,
                    "time": 44.666621999999855,
                    "velocity": 0.5826771653543307,
                    "duration": 0.14861096250000116
                },
                {
                    "name": "A#4",
                    "midi": 70,
                    "time": 44.666621999999855,
                    "velocity": 0.5354330708661418,
                    "duration": 0.16527761249999884
                },
                {
                    "name": "E5",
                    "midi": 76,
                    "time": 44.666621999999855,
                    "velocity": 0.6614173228346457,
                    "duration": 0.16527761249999884
                },
                {
                    "name": "G4",
                    "midi": 67,
                    "time": 44.666621999999855,
                    "velocity": 0.6692913385826772,
                    "duration": 0.16527761249999884
                },
                {
                    "name": "A2",
                    "midi": 45,
                    "time": 44.99995499999985,
                    "velocity": 0.5354330708661418,
                    "duration": 0.3319441124999969
                },
                {
                    "name": "A5",
                    "midi": 81,
                    "time": 44.99995499999985,
                    "velocity": 0.7480314960629921,
                    "duration": 0.16527761249999884
                },
                {
                    "name": "A4",
                    "midi": 69,
                    "time": 45.16662149999985,
                    "velocity": 0.7007874015748031,
                    "duration": 0.16527761249999884
                },
                {
                    "name": "D2",
                    "midi": 38,
                    "time": 45.33328799999985,
                    "velocity": 0.6062992125984252,
                    "duration": 0.14861096250000116
                },
                {
                    "name": "F5",
                    "midi": 77,
                    "time": 45.33328799999985,
                    "velocity": 0.7559055118110236,
                    "duration": 0.16527761249999884
                },
                {
                    "name": "B4",
                    "midi": 71,
                    "time": 45.33328799999985,
                    "velocity": 0.6456692913385826,
                    "duration": 0.16527761249999884
                },
                {
                    "name": "G#4",
                    "midi": 68,
                    "time": 45.33328799999985,
                    "velocity": 0.6456692913385826,
                    "duration": 0.16527761249999884
                },
                {
                    "name": "A3",
                    "midi": 57,
                    "time": 45.66662099999984,
                    "velocity": 0.4881889763779528,
                    "duration": 0.3319441124999969
                },
                {
                    "name": "A5",
                    "midi": 81,
                    "time": 45.66662099999984,
                    "velocity": 0.7559055118110236,
                    "duration": 0.16527761249999884
                },
                {
                    "name": "A4",
                    "midi": 69,
                    "time": 45.83328749999984,
                    "velocity": 0.7244094488188977,
                    "duration": 0.16527761249999884
                },
                {
                    "name": "A2",
                    "midi": 45,
                    "time": 45.99995399999984,
                    "velocity": 0.5511811023622047,
                    "duration": 0.14861096250000116
                },
                {
                    "name": "B4",
                    "midi": 71,
                    "time": 45.99995399999984,
                    "velocity": 0.5984251968503937,
                    "duration": 0.16527761249999884
                },
                {
                    "name": "G4",
                    "midi": 67,
                    "time": 45.99995399999984,
                    "velocity": 0.6377952755905512,
                    "duration": 0.16527761249999884
                },
                {
                    "name": "D5",
                    "midi": 74,
                    "time": 45.99995399999984,
                    "velocity": 0.44881889763779526,
                    "duration": 0.16527761249999884
                },
                {
                    "name": "A2",
                    "midi": 45,
                    "time": 46.333286999999835,
                    "velocity": 0.5511811023622047,
                    "duration": 0.3319441124999969
                },
                {
                    "name": "A5",
                    "midi": 81,
                    "time": 46.333286999999835,
                    "velocity": 0.6850393700787402,
                    "duration": 0.16527761249999884
                },
                {
                    "name": "A4",
                    "midi": 69,
                    "time": 46.49995349999983,
                    "velocity": 0.6299212598425197,
                    "duration": 0.16527761249999884
                },
                {
                    "name": "G5",
                    "midi": 79,
                    "time": 46.66661999999983,
                    "velocity": 0.5354330708661418,
                    "duration": 0.16527761249999884
                },
                {
                    "name": "D5",
                    "midi": 74,
                    "time": 46.66661999999983,
                    "velocity": 0.6771653543307087,
                    "duration": 0.16527761249999884
                },
                {
                    "name": "B4",
                    "midi": 71,
                    "time": 46.66661999999983,
                    "velocity": 0.6692913385826772,
                    "duration": 0.16527761249999884
                },
                {
                    "name": "D2",
                    "midi": 38,
                    "time": 46.66661999999983,
                    "velocity": 0.5905511811023622,
                    "duration": 0.14861096250000116
                },
                {
                    "name": "A3",
                    "midi": 57,
                    "time": 46.99995299999983,
                    "velocity": 0.4881889763779528,
                    "duration": 0.3319441124999969
                },
                {
                    "name": "A5",
                    "midi": 81,
                    "time": 46.99995299999983,
                    "velocity": 0.7480314960629921,
                    "duration": 0.16527761249999884
                },
                {
                    "name": "A4",
                    "midi": 69,
                    "time": 47.166619499999825,
                    "velocity": 0.6299212598425197,
                    "duration": 0.16527761249999884
                },
                {
                    "name": "A2",
                    "midi": 45,
                    "time": 47.33328599999982,
                    "velocity": 0.5511811023622047,
                    "duration": 0.14861096250000116
                },
                {
                    "name": "B4",
                    "midi": 71,
                    "time": 47.33328599999982,
                    "velocity": 0.6456692913385826,
                    "duration": 0.16527761249999884
                },
                {
                    "name": "D5",
                    "midi": 74,
                    "time": 47.33328599999982,
                    "velocity": 0.5275590551181102,
                    "duration": 0.16527761249999884
                },
                {
                    "name": "G4",
                    "midi": 67,
                    "time": 47.33328599999982,
                    "velocity": 0.6456692913385826,
                    "duration": 0.16527761249999884
                },
                {
                    "name": "A2",
                    "midi": 45,
                    "time": 47.66661899999982,
                    "velocity": 0.5511811023622047,
                    "duration": 0.3319441124999969
                },
                {
                    "name": "A5",
                    "midi": 81,
                    "time": 47.66661899999982,
                    "velocity": 0.7716535433070866,
                    "duration": 0.16527761249999884
                },
                {
                    "name": "A4",
                    "midi": 69,
                    "time": 47.83328549999982,
                    "velocity": 0.6377952755905512,
                    "duration": 0.16527761249999884
                },
                {
                    "name": "D2",
                    "midi": 38,
                    "time": 47.999951999999816,
                    "velocity": 0.5905511811023622,
                    "duration": 0.14861096250000116
                },
                {
                    "name": "A#4",
                    "midi": 70,
                    "time": 47.999951999999816,
                    "velocity": 0.4645669291338583,
                    "duration": 0.16527761249999884
                },
                {
                    "name": "D5",
                    "midi": 74,
                    "time": 47.999951999999816,
                    "velocity": 0.6377952755905512,
                    "duration": 0.16527761249999884
                },
                {
                    "name": "G5",
                    "midi": 79,
                    "time": 47.999951999999816,
                    "velocity": 0.4566929133858268,
                    "duration": 0.16527761249999884
                },
                {
                    "name": "A3",
                    "midi": 57,
                    "time": 48.33328499999981,
                    "velocity": 0.4881889763779528,
                    "duration": 0.3319441124999969
                },
                {
                    "name": "A5",
                    "midi": 81,
                    "time": 48.33328499999981,
                    "velocity": 0.6377952755905512,
                    "duration": 0.16527761249999884
                },
                {
                    "name": "A4",
                    "midi": 69,
                    "time": 48.49995149999981,
                    "velocity": 0.4330708661417323,
                    "duration": 0.16527761249999884
                },
                {
                    "name": "A2",
                    "midi": 45,
                    "time": 48.66661799999981,
                    "velocity": 0.5511811023622047,
                    "duration": 0.14861096250000116
                },
                {
                    "name": "A#4",
                    "midi": 70,
                    "time": 48.66661799999981,
                    "velocity": 0.5275590551181102,
                    "duration": 0.16527761249999884
                },
                {
                    "name": "D5",
                    "midi": 74,
                    "time": 48.66661799999981,
                    "velocity": 0.6456692913385826,
                    "duration": 0.16527761249999884
                },
                {
                    "name": "G4",
                    "midi": 67,
                    "time": 48.66661799999981,
                    "velocity": 0.5590551181102362,
                    "duration": 0.16527761249999884
                },
                {
                    "name": "A2",
                    "midi": 45,
                    "time": 48.999950999999804,
                    "velocity": 0.5511811023622047,
                    "duration": 0.3319441124999969
                },
                {
                    "name": "A5",
                    "midi": 81,
                    "time": 48.999950999999804,
                    "velocity": 0.6771653543307087,
                    "duration": 0.16527761249999884
                },
                {
                    "name": "A4",
                    "midi": 69,
                    "time": 49.1666174999998,
                    "velocity": 0.5433070866141733,
                    "duration": 0.16527761249999884
                },
                {
                    "name": "D2",
                    "midi": 38,
                    "time": 49.3332839999998,
                    "velocity": 0.5905511811023622,
                    "duration": 0.14861096250000116
                },
                {
                    "name": "A#4",
                    "midi": 70,
                    "time": 49.3332839999998,
                    "velocity": 0.4330708661417323,
                    "duration": 0.16527761249999884
                },
                {
                    "name": "F#5",
                    "midi": 78,
                    "time": 49.3332839999998,
                    "velocity": 0.5354330708661418,
                    "duration": 0.16527761249999884
                },
                {
                    "name": "C#5",
                    "midi": 73,
                    "time": 49.3332839999998,
                    "velocity": 0.6456692913385826,
                    "duration": 0.16527761249999884
                },
                {
                    "name": "A3",
                    "midi": 57,
                    "time": 49.666616999999796,
                    "velocity": 0.4881889763779528,
                    "duration": 0.3319441124999969
                },
                {
                    "name": "A5",
                    "midi": 81,
                    "time": 49.666616999999796,
                    "velocity": 0.6850393700787402,
                    "duration": 0.16527761249999884
                },
                {
                    "name": "A4",
                    "midi": 69,
                    "time": 49.833283499999794,
                    "velocity": 0.47244094488188976,
                    "duration": 0.16527761249999884
                },
                {
                    "name": "A2",
                    "midi": 45,
                    "time": 49.99994999999979,
                    "velocity": 0.5511811023622047,
                    "duration": 0.14861096250000116
                },
                {
                    "name": "E5",
                    "midi": 76,
                    "time": 49.99994999999979,
                    "velocity": 0.5984251968503937,
                    "duration": 0.16527761249999884
                },
                {
                    "name": "A#4",
                    "midi": 70,
                    "time": 49.99994999999979,
                    "velocity": 0.48031496062992124,
                    "duration": 0.16527761249999884
                },
                {
                    "name": "F#4",
                    "midi": 66,
                    "time": 49.99994999999979,
                    "velocity": 0.5511811023622047,
                    "duration": 0.16527761249999884
                },
                {
                    "name": "A2",
                    "midi": 45,
                    "time": 50.33328299999979,
                    "velocity": 0.5511811023622047,
                    "duration": 0.3319441124999969
                },
                {
                    "name": "A5",
                    "midi": 81,
                    "time": 50.33328299999979,
                    "velocity": 0.7007874015748031,
                    "duration": 0.16527761249999884
                },
                {
                    "name": "A4",
                    "midi": 69,
                    "time": 50.499949499999786,
                    "velocity": 0.6850393700787402,
                    "duration": 0.16527761249999884
                },
                {
                    "name": "D2",
                    "midi": 38,
                    "time": 50.666615999999784,
                    "velocity": 0.5905511811023622,
                    "duration": 0.14861096250000116
                },
                {
                    "name": "A#5",
                    "midi": 82,
                    "time": 50.666615999999784,
                    "velocity": 0.5511811023622047,
                    "duration": 0.9986101125000033
                },
                {
                    "name": "A#4",
                    "midi": 70,
                    "time": 50.666615999999784,
                    "velocity": 0.6062992125984252,
                    "duration": 0.9986101125000033
                },
                {
                    "name": "E5",
                    "midi": 76,
                    "time": 50.666615999999784,
                    "velocity": 0.7165354330708661,
                    "duration": 0.9986101125000033
                },
                {
                    "name": "A5",
                    "midi": 81,
                    "time": 50.99994899999979,
                    "velocity": 0.7007874015748031,
                    "duration": 0.16527761249999884
                },
                {
                    "name": "A3",
                    "midi": 57,
                    "time": 50.99994899999979,
                    "velocity": 0.4881889763779528,
                    "duration": 0.3319441124999969
                },
                {
                    "name": "A4",
                    "midi": 69,
                    "time": 51.166615499999786,
                    "velocity": 0.6062992125984252,
                    "duration": 0.16527761249999884
                },
                {
                    "name": "A2",
                    "midi": 45,
                    "time": 51.333281999999784,
                    "velocity": 0.5511811023622047,
                    "duration": 0.14861096250000116
                },
                {
                    "name": "A5",
                    "midi": 81,
                    "time": 51.66661499999979,
                    "velocity": 0.6456692913385826,
                    "duration": 0.16527761249999884
                },
                {
                    "name": "A2",
                    "midi": 45,
                    "time": 51.66661499999979,
                    "velocity": 0.5511811023622047,
                    "duration": 0.3319441124999969
                },
                {
                    "name": "A4",
                    "midi": 69,
                    "time": 51.833281499999785,
                    "velocity": 0.5196850393700787,
                    "duration": 0.16527761249999884
                },
                {
                    "name": "A#5",
                    "midi": 82,
                    "time": 51.99994799999978,
                    "velocity": 0.5511811023622047,
                    "duration": 0.331944112500004
                },
                {
                    "name": "A#4",
                    "midi": 70,
                    "time": 51.99994799999978,
                    "velocity": 0.5826771653543307,
                    "duration": 0.331944112500004
                },
                {
                    "name": "E5",
                    "midi": 76,
                    "time": 51.99994799999978,
                    "velocity": 0.7244094488188977,
                    "duration": 0.331944112500004
                },
                {
                    "name": "D2",
                    "midi": 38,
                    "time": 51.99994799999978,
                    "velocity": 0.5905511811023622,
                    "duration": 0.14861096250000116
                },
                {
                    "name": "A3",
                    "midi": 57,
                    "time": 52.333280999999786,
                    "velocity": 0.4881889763779528,
                    "duration": 0.3319441124999969
                },
                {
                    "name": "A5",
                    "midi": 81,
                    "time": 52.333280999999786,
                    "velocity": 0.6771653543307087,
                    "duration": 0.3319441124999969
                },
                {
                    "name": "A4",
                    "midi": 69,
                    "time": 52.499947499999784,
                    "velocity": 0.47244094488188976,
                    "duration": 0.16527761249999884
                },
                {
                    "name": "G2",
                    "midi": 43,
                    "time": 52.66661399999978,
                    "velocity": 0.5511811023622047,
                    "duration": 0.14861096250000116
                },
                {
                    "name": "G#2",
                    "midi": 44,
                    "time": 52.999946999999786,
                    "velocity": 0.5511811023622047,
                    "duration": 0.3319441124999969
                },
                {
                    "name": "G#5",
                    "midi": 80,
                    "time": 52.999946999999786,
                    "velocity": 0.7007874015748031,
                    "duration": 0.3319441124999969
                },
                {
                    "name": "G#4",
                    "midi": 68,
                    "time": 53.166613499999784,
                    "velocity": 0.5275590551181102,
                    "duration": 0.16527761249999884
                },
                {
                    "name": "G4",
                    "midi": 67,
                    "time": 53.33327999999978,
                    "velocity": 0.5905511811023622,
                    "duration": 0.16527761249999884
                },
                {
                    "name": "A#4",
                    "midi": 70,
                    "time": 53.33327999999978,
                    "velocity": 0.6220472440944882,
                    "duration": 0.16527761249999884
                },
                {
                    "name": "C#2",
                    "midi": 37,
                    "time": 53.33327999999978,
                    "velocity": 0.5905511811023622,
                    "duration": 0.14861096250000116
                },
                {
                    "name": "G#3",
                    "midi": 56,
                    "time": 53.66661299999978,
                    "velocity": 0.5354330708661418,
                    "duration": 0.3319441124999969
                },
                {
                    "name": "G#5",
                    "midi": 80,
                    "time": 53.66661299999978,
                    "velocity": 0.7244094488188977,
                    "duration": 0.16527761249999884
                },
                {
                    "name": "G#4",
                    "midi": 68,
                    "time": 53.833279499999776,
                    "velocity": 0.7086614173228346,
                    "duration": 0.16527761249999884
                },
                {
                    "name": "G#2",
                    "midi": 44,
                    "time": 53.999945999999774,
                    "velocity": 0.47244094488188976,
                    "duration": 0.14861096250000116
                },
                {
                    "name": "F#4",
                    "midi": 66,
                    "time": 53.999945999999774,
                    "velocity": 0.6299212598425197,
                    "duration": 0.16527761249999884
                },
                {
                    "name": "A#4",
                    "midi": 70,
                    "time": 53.999945999999774,
                    "velocity": 0.5354330708661418,
                    "duration": 0.16527761249999884
                },
                {
                    "name": "G#2",
                    "midi": 44,
                    "time": 54.33327899999977,
                    "velocity": 0.5039370078740157,
                    "duration": 0.3319441124999969
                },
                {
                    "name": "G#5",
                    "midi": 80,
                    "time": 54.33327899999977,
                    "velocity": 0.6771653543307087,
                    "duration": 0.16527761249999884
                },
                {
                    "name": "G#4",
                    "midi": 68,
                    "time": 54.49994549999977,
                    "velocity": 0.7007874015748031,
                    "duration": 0.16527761249999884
                },
                {
                    "name": "C#2",
                    "midi": 37,
                    "time": 54.666611999999766,
                    "velocity": 0.5905511811023622,
                    "duration": 0.14861096250000116
                },
                {
                    "name": "C5",
                    "midi": 72,
                    "time": 54.666611999999766,
                    "velocity": 0.6771653543307087,
                    "duration": 0.16527761249999884
                },
                {
                    "name": "G4",
                    "midi": 67,
                    "time": 54.666611999999766,
                    "velocity": 0.6062992125984252,
                    "duration": 0.16527761249999884
                },
                {
                    "name": "G#3",
                    "midi": 56,
                    "time": 54.99994499999976,
                    "velocity": 0.5354330708661418,
                    "duration": 0.3319441124999969
                },
                {
                    "name": "G#5",
                    "midi": 80,
                    "time": 54.99994499999976,
                    "velocity": 0.7007874015748031,
                    "duration": 0.16527761249999884
                },
                {
                    "name": "G#4",
                    "midi": 68,
                    "time": 55.16661149999976,
                    "velocity": 0.6220472440944882,
                    "duration": 0.16527761249999884
                },
                {
                    "name": "G#2",
                    "midi": 44,
                    "time": 55.33327799999976,
                    "velocity": 0.47244094488188976,
                    "duration": 0.14861096250000116
                },
                {
                    "name": "F#4",
                    "midi": 66,
                    "time": 55.33327799999976,
                    "velocity": 0.5669291338582677,
                    "duration": 0.16527761249999884
                },
                {
                    "name": "C5",
                    "midi": 72,
                    "time": 55.33327799999976,
                    "velocity": 0.7165354330708661,
                    "duration": 0.16527761249999884
                },
                {
                    "name": "G#2",
                    "midi": 44,
                    "time": 55.666610999999754,
                    "velocity": 0.5039370078740157,
                    "duration": 0.3319441124999969
                },
                {
                    "name": "G#5",
                    "midi": 80,
                    "time": 55.666610999999754,
                    "velocity": 0.7244094488188977,
                    "duration": 0.16527761249999884
                },
                {
                    "name": "G#4",
                    "midi": 68,
                    "time": 55.83327749999975,
                    "velocity": 0.6614173228346457,
                    "duration": 0.16527761249999884
                },
                {
                    "name": "C#2",
                    "midi": 37,
                    "time": 55.99994399999975,
                    "velocity": 0.5905511811023622,
                    "duration": 0.14861096250000116
                },
                {
                    "name": "C#5",
                    "midi": 73,
                    "time": 55.99994399999975,
                    "velocity": 0.6220472440944882,
                    "duration": 0.16527761249999884
                },
                {
                    "name": "G4",
                    "midi": 67,
                    "time": 55.99994399999975,
                    "velocity": 0.6692913385826772,
                    "duration": 0.16527761249999884
                },
                {
                    "name": "A#4",
                    "midi": 70,
                    "time": 55.99994399999975,
                    "velocity": 0.5590551181102362,
                    "duration": 0.16527761249999884
                },
                {
                    "name": "G#3",
                    "midi": 56,
                    "time": 56.33327699999975,
                    "velocity": 0.5354330708661418,
                    "duration": 0.3319441124999969
                },
                {
                    "name": "G#5",
                    "midi": 80,
                    "time": 56.33327699999975,
                    "velocity": 0.7007874015748031,
                    "duration": 0.16527761249999884
                },
                {
                    "name": "G#4",
                    "midi": 68,
                    "time": 56.499943499999745,
                    "velocity": 0.5354330708661418,
                    "duration": 0.16527761249999884
                },
                {
                    "name": "G#2",
                    "midi": 44,
                    "time": 56.66660999999974,
                    "velocity": 0.47244094488188976,
                    "duration": 0.14861096250000116
                },
                {
                    "name": "D#5",
                    "midi": 75,
                    "time": 56.66660999999974,
                    "velocity": 0.4566929133858268,
                    "duration": 0.16527761249999884
                },
                {
                    "name": "A4",
                    "midi": 69,
                    "time": 56.66660999999974,
                    "velocity": 0.6220472440944882,
                    "duration": 0.16527761249999884
                },
                {
                    "name": "F#4",
                    "midi": 66,
                    "time": 56.66660999999974,
                    "velocity": 0.5590551181102362,
                    "duration": 0.16527761249999884
                },
                {
                    "name": "G#2",
                    "midi": 44,
                    "time": 56.99994299999974,
                    "velocity": 0.5039370078740157,
                    "duration": 0.3319441124999969
                },
                {
                    "name": "G#5",
                    "midi": 80,
                    "time": 56.99994299999974,
                    "velocity": 0.6850393700787402,
                    "duration": 0.16527761249999884
                },
                {
                    "name": "G#4",
                    "midi": 68,
                    "time": 57.16660949999974,
                    "velocity": 0.4645669291338583,
                    "duration": 0.16527761249999884
                },
                {
                    "name": "C#2",
                    "midi": 37,
                    "time": 57.333275999999735,
                    "velocity": 0.5905511811023622,
                    "duration": 0.14861096250000116
                },
                {
                    "name": "E5",
                    "midi": 76,
                    "time": 57.333275999999735,
                    "velocity": 0.6299212598425197,
                    "duration": 0.16527761249999884
                },
                {
                    "name": "A#4",
                    "midi": 70,
                    "time": 57.333275999999735,
                    "velocity": 0.7007874015748031,
                    "duration": 0.16527761249999884
                },
                {
                    "name": "G4",
                    "midi": 67,
                    "time": 57.333275999999735,
                    "velocity": 0.6062992125984252,
                    "duration": 0.16527761249999884
                },
                {
                    "name": "G#3",
                    "midi": 56,
                    "time": 57.66660899999973,
                    "velocity": 0.5354330708661418,
                    "duration": 0.3319441124999969
                },
                {
                    "name": "G#5",
                    "midi": 80,
                    "time": 57.66660899999973,
                    "velocity": 0.6692913385826772,
                    "duration": 0.16527761249999884
                },
                {
                    "name": "G#4",
                    "midi": 68,
                    "time": 57.83327549999973,
                    "velocity": 0.5275590551181102,
                    "duration": 0.16527761249999884
                },
                {
                    "name": "G#2",
                    "midi": 44,
                    "time": 57.99994199999973,
                    "velocity": 0.47244094488188976,
                    "duration": 0.14861096250000116
                },
                {
                    "name": "C#5",
                    "midi": 73,
                    "time": 57.99994199999973,
                    "velocity": 0.6692913385826772,
                    "duration": 0.16527761249999884
                },
                {
                    "name": "A#4",
                    "midi": 70,
                    "time": 57.99994199999973,
                    "velocity": 0.6299212598425197,
                    "duration": 0.16527761249999884
                },
                {
                    "name": "F#4",
                    "midi": 66,
                    "time": 57.99994199999973,
                    "velocity": 0.6299212598425197,
                    "duration": 0.16527761249999884
                },
                {
                    "name": "G#2",
                    "midi": 44,
                    "time": 58.33327499999972,
                    "velocity": 0.5039370078740157,
                    "duration": 0.3319441124999969
                },
                {
                    "name": "G#5",
                    "midi": 80,
                    "time": 58.33327499999972,
                    "velocity": 0.6692913385826772,
                    "duration": 0.16527761249999884
                },
                {
                    "name": "G#4",
                    "midi": 68,
                    "time": 58.49994149999972,
                    "velocity": 0.5984251968503937,
                    "duration": 0.16527761249999884
                },
                {
                    "name": "C#2",
                    "midi": 37,
                    "time": 58.66660799999972,
                    "velocity": 0.5905511811023622,
                    "duration": 0.14861096250000116
                },
                {
                    "name": "C#5",
                    "midi": 73,
                    "time": 58.66660799999972,
                    "velocity": 0.6456692913385826,
                    "duration": 0.16527761249999884
                },
                {
                    "name": "A#4",
                    "midi": 70,
                    "time": 58.66660799999972,
                    "velocity": 0.5118110236220472,
                    "duration": 0.16527761249999884
                },
                {
                    "name": "F#5",
                    "midi": 78,
                    "time": 58.66660799999972,
                    "velocity": 0.5669291338582677,
                    "duration": 0.16527761249999884
                },
                {
                    "name": "G#3",
                    "midi": 56,
                    "time": 58.999940999999716,
                    "velocity": 0.5354330708661418,
                    "duration": 0.3319441124999969
                },
                {
                    "name": "G#5",
                    "midi": 80,
                    "time": 58.999940999999716,
                    "velocity": 0.7086614173228346,
                    "duration": 0.16527761249999884
                },
                {
                    "name": "G#4",
                    "midi": 68,
                    "time": 59.166607499999714,
                    "velocity": 0.6614173228346457,
                    "duration": 0.16527761249999884
                },
                {
                    "name": "G#2",
                    "midi": 44,
                    "time": 59.33327399999971,
                    "velocity": 0.47244094488188976,
                    "duration": 0.14861096250000116
                },
                {
                    "name": "A#4",
                    "midi": 70,
                    "time": 59.33327399999971,
                    "velocity": 0.5196850393700787,
                    "duration": 0.16527761249999884
                },
                {
                    "name": "F#4",
                    "midi": 66,
                    "time": 59.33327399999971,
                    "velocity": 0.6614173228346457,
                    "duration": 0.16527761249999884
                },
                {
                    "name": "C#5",
                    "midi": 73,
                    "time": 59.33327399999971,
                    "velocity": 0.6220472440944882,
                    "duration": 0.16527761249999884
                },
                {
                    "name": "G#2",
                    "midi": 44,
                    "time": 59.66660699999971,
                    "velocity": 0.5039370078740157,
                    "duration": 0.3319441124999969
                },
                {
                    "name": "G#5",
                    "midi": 80,
                    "time": 59.66660699999971,
                    "velocity": 0.7244094488188977,
                    "duration": 0.16527761249999884
                },
                {
                    "name": "G#4",
                    "midi": 68,
                    "time": 59.833273499999706,
                    "velocity": 0.6062992125984252,
                    "duration": 0.16527761249999884
                },
                {
                    "name": "C#2",
                    "midi": 37,
                    "time": 59.999939999999704,
                    "velocity": 0.5905511811023622,
                    "duration": 0.14861096250000116
                },
                {
                    "name": "C#5",
                    "midi": 73,
                    "time": 59.999939999999704,
                    "velocity": 0.6377952755905512,
                    "duration": 0.16527761249999884
                },
                {
                    "name": "A4",
                    "midi": 69,
                    "time": 59.999939999999704,
                    "velocity": 0.5275590551181102,
                    "duration": 0.16527761249999884
                },
                {
                    "name": "F#5",
                    "midi": 78,
                    "time": 59.999939999999704,
                    "velocity": 0.6062992125984252,
                    "duration": 0.16527761249999884
                },
                {
                    "name": "G#3",
                    "midi": 56,
                    "time": 60.3332729999997,
                    "velocity": 0.5354330708661418,
                    "duration": 0.3319441124999969
                },
                {
                    "name": "G#5",
                    "midi": 80,
                    "time": 60.3332729999997,
                    "velocity": 0.7007874015748031,
                    "duration": 0.16527761249999884
                },
                {
                    "name": "G#4",
                    "midi": 68,
                    "time": 60.4999394999997,
                    "velocity": 0.6377952755905512,
                    "duration": 0.16527761249999884
                },
                {
                    "name": "G#2",
                    "midi": 44,
                    "time": 60.666605999999696,
                    "velocity": 0.47244094488188976,
                    "duration": 0.14861096250000116
                },
                {
                    "name": "A4",
                    "midi": 69,
                    "time": 60.666605999999696,
                    "velocity": 0.5590551181102362,
                    "duration": 0.16527761249999884
                },
                {
                    "name": "C#5",
                    "midi": 73,
                    "time": 60.666605999999696,
                    "velocity": 0.6456692913385826,
                    "duration": 0.16527761249999884
                },
                {
                    "name": "F#4",
                    "midi": 66,
                    "time": 60.666605999999696,
                    "velocity": 0.5905511811023622,
                    "duration": 0.16527761249999884
                },
                {
                    "name": "G#2",
                    "midi": 44,
                    "time": 60.99993899999969,
                    "velocity": 0.5039370078740157,
                    "duration": 0.3319441124999969
                },
                {
                    "name": "G#5",
                    "midi": 80,
                    "time": 60.99993899999969,
                    "velocity": 0.7244094488188977,
                    "duration": 0.16527761249999884
                },
                {
                    "name": "G#4",
                    "midi": 68,
                    "time": 61.16660549999969,
                    "velocity": 0.5039370078740157,
                    "duration": 0.16527761249999884
                },
                {
                    "name": "C#2",
                    "midi": 37,
                    "time": 61.33327199999969,
                    "velocity": 0.5905511811023622,
                    "duration": 0.14861096250000116
                },
                {
                    "name": "F#3",
                    "midi": 54,
                    "time": 61.499938499999686,
                    "velocity": 0.5354330708661418,
                    "duration": 0.16527761249999884
                },
                {
                    "name": "G#3",
                    "midi": 56,
                    "time": 61.666604999999684,
                    "velocity": 0.5354330708661418,
                    "duration": 0.3319441124999969
                },
                {
                    "name": "C#4",
                    "midi": 61,
                    "time": 61.666604999999684,
                    "velocity": 0.7007874015748031,
                    "duration": 0.665277112499993
                },
                {
                    "name": "G#2",
                    "midi": 44,
                    "time": 61.99993799999968,
                    "velocity": 0.47244094488188976,
                    "duration": 0.14861096250000116
                },
                {
                    "name": "F4",
                    "midi": 65,
                    "time": 62.16660449999968,
                    "velocity": 0.6220472440944882,
                    "duration": 0.16527761249999884
                },
                {
                    "name": "G#2",
                    "midi": 44,
                    "time": 62.33327099999968,
                    "velocity": 0.5039370078740157,
                    "duration": 0.3319441124999969
                },
                {
                    "name": "F#4",
                    "midi": 66,
                    "time": 62.33327099999968,
                    "velocity": 0.7007874015748031,
                    "duration": 0.49861061249999494
                },
                {
                    "name": "C4",
                    "midi": 60,
                    "time": 62.33327099999968,
                    "velocity": 0.7244094488188977,
                    "duration": 0.665277112499993
                },
                {
                    "name": "C#2",
                    "midi": 37,
                    "time": 62.66660399999967,
                    "velocity": 0.5905511811023622,
                    "duration": 0.14861096250000116
                },
                {
                    "name": "F#4",
                    "midi": 66,
                    "time": 62.83327049999967,
                    "velocity": 0.7086614173228346,
                    "duration": 0.16527761249999884
                },
                {
                    "name": "G#3",
                    "midi": 56,
                    "time": 62.99993699999967,
                    "velocity": 0.5354330708661418,
                    "duration": 0.3319441124999969
                },
                {
                    "name": "C#5",
                    "midi": 73,
                    "time": 62.99993699999967,
                    "velocity": 0.7716535433070866,
                    "duration": 0.3319441124999969
                },
                {
                    "name": "B3",
                    "midi": 59,
                    "time": 62.99993699999967,
                    "velocity": 0.6062992125984252,
                    "duration": 0.3319441124999969
                },
                {
                    "name": "G#2",
                    "midi": 44,
                    "time": 63.333269999999665,
                    "velocity": 0.47244094488188976,
                    "duration": 0.14861096250000116
                },
                {
                    "name": "C#6",
                    "midi": 85,
                    "time": 63.333269999999665,
                    "velocity": 0.7559055118110236,
                    "duration": 0.331944112500004
                },
                {
                    "name": "E6",
                    "midi": 88,
                    "time": 63.583269749999666,
                    "velocity": 0.6220472440944882,
                    "duration": 0.41527736249999947
                },
                {
                    "name": "E2",
                    "midi": 40,
                    "time": 63.66660299999967,
                    "velocity": 0.5039370078740157,
                    "duration": 0.3319441124999969
                },
                {
                    "name": "E5",
                    "midi": 76,
                    "time": 63.66660299999967,
                    "velocity": 0.6456692913385826,
                    "duration": 0.16527761249999884
                },
                {
                    "name": "E4",
                    "midi": 64,
                    "time": 63.833269499999666,
                    "velocity": 0.5984251968503937,
                    "duration": 0.16527761249999884
                },
                {
                    "name": "D#4",
                    "midi": 63,
                    "time": 63.999935999999664,
                    "velocity": 0.48031496062992124,
                    "duration": 0.16527761250000594
                },
                {
                    "name": "F#4",
                    "midi": 66,
                    "time": 63.999935999999664,
                    "velocity": 0.6220472440944882,
                    "duration": 0.16527761250000594
                },
                {
                    "name": "A1",
                    "midi": 33,
                    "time": 63.999935999999664,
                    "velocity": 0.5905511811023622,
                    "duration": 0.14861096250000116
                },
                {
                    "name": "E5",
                    "midi": 76,
                    "time": 64.33326899999967,
                    "velocity": 0.7165354330708661,
                    "duration": 0.16527761250000594
                },
                {
                    "name": "E3",
                    "midi": 52,
                    "time": 64.33326899999967,
                    "velocity": 0.5354330708661418,
                    "duration": 0.3319441125000111
                },
                {
                    "name": "E4",
                    "midi": 64,
                    "time": 64.49993549999968,
                    "velocity": 0.6771653543307087,
                    "duration": 0.16527761250000594
                },
                {
                    "name": "D4",
                    "midi": 62,
                    "time": 64.66660199999968,
                    "velocity": 0.7086614173228346,
                    "duration": 0.16527761250000594
                },
                {
                    "name": "F#4",
                    "midi": 66,
                    "time": 64.66660199999968,
                    "velocity": 0.6771653543307087,
                    "duration": 0.16527761250000594
                },
                {
                    "name": "E2",
                    "midi": 40,
                    "time": 64.66660199999968,
                    "velocity": 0.47244094488188976,
                    "duration": 0.14861096250000116
                },
                {
                    "name": "E6",
                    "midi": 88,
                    "time": 64.9999349999997,
                    "velocity": 0.7874015748031497,
                    "duration": 0.16527761250000594
                },
                {
                    "name": "E2",
                    "midi": 40,
                    "time": 64.9999349999997,
                    "velocity": 0.5039370078740157,
                    "duration": 0.3319441125000111
                },
                {
                    "name": "E5",
                    "midi": 76,
                    "time": 65.1666014999997,
                    "velocity": 0.6614173228346457,
                    "duration": 0.16527761250000594
                },
                {
                    "name": "A1",
                    "midi": 33,
                    "time": 65.3332679999997,
                    "velocity": 0.5905511811023622,
                    "duration": 0.14861096250000116
                },
                {
                    "name": "D#4",
                    "midi": 63,
                    "time": 65.3332679999997,
                    "velocity": 0.6456692913385826,
                    "duration": 0.16527761250000594
                },
                {
                    "name": "G#4",
                    "midi": 68,
                    "time": 65.3332679999997,
                    "velocity": 0.6771653543307087,
                    "duration": 0.16527761250000594
                },
                {
                    "name": "E3",
                    "midi": 52,
                    "time": 65.66660099999972,
                    "velocity": 0.5354330708661418,
                    "duration": 0.3319441125000111
                },
                {
                    "name": "E5",
                    "midi": 76,
                    "time": 65.66660099999972,
                    "velocity": 0.7244094488188977,
                    "duration": 0.16527761250000594
                },
                {
                    "name": "E4",
                    "midi": 64,
                    "time": 65.83326749999972,
                    "velocity": 0.7007874015748031,
                    "duration": 0.16527761250000594
                },
                {
                    "name": "E2",
                    "midi": 40,
                    "time": 65.99993399999973,
                    "velocity": 0.47244094488188976,
                    "duration": 0.14861096250000116
                },
                {
                    "name": "D4",
                    "midi": 62,
                    "time": 65.99993399999973,
                    "velocity": 0.7086614173228346,
                    "duration": 0.16527761250000594
                },
                {
                    "name": "G#4",
                    "midi": 68,
                    "time": 65.99993399999973,
                    "velocity": 0.6220472440944882,
                    "duration": 0.16527761250000594
                },
                {
                    "name": "E2",
                    "midi": 40,
                    "time": 66.33326699999974,
                    "velocity": 0.5039370078740157,
                    "duration": 0.3319441125000111
                },
                {
                    "name": "E6",
                    "midi": 88,
                    "time": 66.33326699999974,
                    "velocity": 0.7559055118110236,
                    "duration": 0.16527761250000594
                },
                {
                    "name": "E5",
                    "midi": 76,
                    "time": 66.49993349999974,
                    "velocity": 0.7480314960629921,
                    "duration": 0.16527761250000594
                },
                {
                    "name": "A1",
                    "midi": 33,
                    "time": 66.66659999999975,
                    "velocity": 0.5905511811023622,
                    "duration": 0.14861096250000116
                },
                {
                    "name": "A4",
                    "midi": 69,
                    "time": 66.66659999999975,
                    "velocity": 0.6299212598425197,
                    "duration": 0.16527761250000594
                },
                {
                    "name": "D#4",
                    "midi": 63,
                    "time": 66.66659999999975,
                    "velocity": 0.5984251968503937,
                    "duration": 0.16527761250000594
                },
                {
                    "name": "F#4",
                    "midi": 66,
                    "time": 66.66659999999975,
                    "velocity": 0.6771653543307087,
                    "duration": 0.16527761250000594
                },
                {
                    "name": "E3",
                    "midi": 52,
                    "time": 66.99993299999976,
                    "velocity": 0.5354330708661418,
                    "duration": 0.3319441125000111
                },
                {
                    "name": "E5",
                    "midi": 76,
                    "time": 66.99993299999976,
                    "velocity": 0.6771653543307087,
                    "duration": 0.16527761250000594
                },
                {
                    "name": "E4",
                    "midi": 64,
                    "time": 67.16659949999976,
                    "velocity": 0.7244094488188977,
                    "duration": 0.16527761250000594
                },
                {
                    "name": "E2",
                    "midi": 40,
                    "time": 67.33326599999977,
                    "velocity": 0.47244094488188976,
                    "duration": 0.14861096250000116
                },
                {
                    "name": "F#4",
                    "midi": 66,
                    "time": 67.33326599999977,
                    "velocity": 0.6377952755905512,
                    "duration": 0.16527761250000594
                },
                {
                    "name": "B4",
                    "midi": 71,
                    "time": 67.33326599999977,
                    "velocity": 0.6614173228346457,
                    "duration": 0.16527761250000594
                },
                {
                    "name": "D4",
                    "midi": 62,
                    "time": 67.33326599999977,
                    "velocity": 0.5433070866141733,
                    "duration": 0.16527761250000594
                },
                {
                    "name": "E2",
                    "midi": 40,
                    "time": 67.66659899999978,
                    "velocity": 0.5039370078740157,
                    "duration": 0.3319441125000111
                },
                {
                    "name": "E6",
                    "midi": 88,
                    "time": 67.66659899999978,
                    "velocity": 0.7086614173228346,
                    "duration": 0.16527761250000594
                },
                {
                    "name": "E5",
                    "midi": 76,
                    "time": 67.83326549999978,
                    "velocity": 0.6220472440944882,
                    "duration": 0.16527761250000594
                },
                {
                    "name": "A1",
                    "midi": 33,
                    "time": 67.99993199999979,
                    "velocity": 0.5905511811023622,
                    "duration": 0.14861096250000116
                },
                {
                    "name": "C5",
                    "midi": 72,
                    "time": 67.99993199999979,
                    "velocity": 0.7086614173228346,
                    "duration": 0.16527761250000594
                },
                {
                    "name": "F#4",
                    "midi": 66,
                    "time": 67.99993199999979,
                    "velocity": 0.5905511811023622,
                    "duration": 0.16527761250000594
                },
                {
                    "name": "D#4",
                    "midi": 63,
                    "time": 67.99993199999979,
                    "velocity": 0.4015748031496063,
                    "duration": 0.16527761250000594
                },
                {
                    "name": "E3",
                    "midi": 52,
                    "time": 68.3332649999998,
                    "velocity": 0.5354330708661418,
                    "duration": 0.3319441125000111
                },
                {
                    "name": "E5",
                    "midi": 76,
                    "time": 68.3332649999998,
                    "velocity": 0.7007874015748031,
                    "duration": 0.16527761250000594
                },
                {
                    "name": "E4",
                    "midi": 64,
                    "time": 68.4999314999998,
                    "velocity": 0.6377952755905512,
                    "duration": 0.16527761250000594
                },
                {
                    "name": "E2",
                    "midi": 40,
                    "time": 68.66659799999981,
                    "velocity": 0.47244094488188976,
                    "duration": 0.14861096250000116
                },
                {
                    "name": "A4",
                    "midi": 69,
                    "time": 68.66659799999981,
                    "velocity": 0.5354330708661418,
                    "duration": 0.16527761250000594
                },
                {
                    "name": "F#4",
                    "midi": 66,
                    "time": 68.66659799999981,
                    "velocity": 0.5984251968503937,
                    "duration": 0.16527761250000594
                },
                {
                    "name": "D4",
                    "midi": 62,
                    "time": 68.66659799999981,
                    "velocity": 0.5039370078740157,
                    "duration": 0.16527761250000594
                },
                {
                    "name": "E2",
                    "midi": 40,
                    "time": 68.99993099999982,
                    "velocity": 0.5039370078740157,
                    "duration": 0.3319441125000111
                },
                {
                    "name": "E6",
                    "midi": 88,
                    "time": 68.99993099999982,
                    "velocity": 0.7637795275590551,
                    "duration": 0.16527761250000594
                },
                {
                    "name": "E5",
                    "midi": 76,
                    "time": 69.16659749999982,
                    "velocity": 0.5826771653543307,
                    "duration": 0.16527761250000594
                },
                {
                    "name": "A1",
                    "midi": 33,
                    "time": 69.33326399999983,
                    "velocity": 0.5905511811023622,
                    "duration": 0.14861096250000116
                },
                {
                    "name": "A4",
                    "midi": 69,
                    "time": 69.33326399999983,
                    "velocity": 0.6692913385826772,
                    "duration": 0.16527761250000594
                },
                {
                    "name": "D5",
                    "midi": 74,
                    "time": 69.33326399999983,
                    "velocity": 0.7086614173228346,
                    "duration": 0.16527761250000594
                },
                {
                    "name": "F#4",
                    "midi": 66,
                    "time": 69.33326399999983,
                    "velocity": 0.5511811023622047,
                    "duration": 0.16527761250000594
                },
                {
                    "name": "E3",
                    "midi": 52,
                    "time": 69.66659699999984,
                    "velocity": 0.5354330708661418,
                    "duration": 0.3319441125000111
                },
                {
                    "name": "E5",
                    "midi": 76,
                    "time": 69.66659699999984,
                    "velocity": 0.6692913385826772,
                    "duration": 0.16527761250000594
                },
                {
                    "name": "E4",
                    "midi": 64,
                    "time": 69.83326349999984,
                    "velocity": 0.5826771653543307,
                    "duration": 0.16527761250000594
                },
                {
                    "name": "E2",
                    "midi": 40,
                    "time": 69.99992999999985,
                    "velocity": 0.47244094488188976,
                    "duration": 0.14861096250000116
                },
                {
                    "name": "A4",
                    "midi": 69,
                    "time": 69.99992999999985,
                    "velocity": 0.5275590551181102,
                    "duration": 0.16527761250000594
                },
                {
                    "name": "D4",
                    "midi": 62,
                    "time": 69.99992999999985,
                    "velocity": 0.5826771653543307,
                    "duration": 0.16527761250000594
                },
                {
                    "name": "F#4",
                    "midi": 66,
                    "time": 69.99992999999985,
                    "velocity": 0.5905511811023622,
                    "duration": 0.16527761250000594
                },
                {
                    "name": "E2",
                    "midi": 40,
                    "time": 70.33326299999986,
                    "velocity": 0.5039370078740157,
                    "duration": 0.3319441125000111
                },
                {
                    "name": "E6",
                    "midi": 88,
                    "time": 70.33326299999986,
                    "velocity": 0.7244094488188977,
                    "duration": 0.16527761250000594
                },
                {
                    "name": "E5",
                    "midi": 76,
                    "time": 70.49992949999987,
                    "velocity": 0.6377952755905512,
                    "duration": 0.16527761250000594
                },
                {
                    "name": "A1",
                    "midi": 33,
                    "time": 70.66659599999987,
                    "velocity": 0.5905511811023622,
                    "duration": 0.14861096250000116
                },
                {
                    "name": "A4",
                    "midi": 69,
                    "time": 70.66659599999987,
                    "velocity": 0.6771653543307087,
                    "duration": 0.16527761250000594
                },
                {
                    "name": "F4",
                    "midi": 65,
                    "time": 70.66659599999987,
                    "velocity": 0.5826771653543307,
                    "duration": 0.16527761250000594
                },
                {
                    "name": "D5",
                    "midi": 74,
                    "time": 70.66659599999987,
                    "velocity": 0.6850393700787402,
                    "duration": 0.16527761250000594
                },
                {
                    "name": "E3",
                    "midi": 52,
                    "time": 70.99992899999988,
                    "velocity": 0.5354330708661418,
                    "duration": 0.3319441125000111
                },
                {
                    "name": "E5",
                    "midi": 76,
                    "time": 70.99992899999988,
                    "velocity": 0.7086614173228346,
                    "duration": 0.16527761250000594
                },
                {
                    "name": "E4",
                    "midi": 64,
                    "time": 71.16659549999989,
                    "velocity": 0.6377952755905512,
                    "duration": 0.16527761250000594
                },
                {
                    "name": "E2",
                    "midi": 40,
                    "time": 71.33326199999989,
                    "velocity": 0.47244094488188976,
                    "duration": 0.14861096250000116
                },
                {
                    "name": "F4",
                    "midi": 65,
                    "time": 71.33326199999989,
                    "velocity": 0.5826771653543307,
                    "duration": 0.16527761250000594
                },
                {
                    "name": "A4",
                    "midi": 69,
                    "time": 71.33326199999989,
                    "velocity": 0.6062992125984252,
                    "duration": 0.16527761250000594
                },
                {
                    "name": "D4",
                    "midi": 62,
                    "time": 71.33326199999989,
                    "velocity": 0.5354330708661418,
                    "duration": 0.16527761250000594
                },
                {
                    "name": "E2",
                    "midi": 40,
                    "time": 71.6665949999999,
                    "velocity": 0.5039370078740157,
                    "duration": 0.3319441125000111
                },
                {
                    "name": "E6",
                    "midi": 88,
                    "time": 71.6665949999999,
                    "velocity": 0.7559055118110236,
                    "duration": 0.16527761250000594
                },
                {
                    "name": "E5",
                    "midi": 76,
                    "time": 71.8332614999999,
                    "velocity": 0.6377952755905512,
                    "duration": 0.16527761250000594
                },
                {
                    "name": "A1",
                    "midi": 33,
                    "time": 71.99992799999991,
                    "velocity": 0.5905511811023622,
                    "duration": 0.14861096250000116
                },
                {
                    "name": "F5",
                    "midi": 77,
                    "time": 71.99992799999991,
                    "velocity": 0.5905511811023622,
                    "duration": 0.9986101125000175
                },
                {
                    "name": "B4",
                    "midi": 71,
                    "time": 71.99992799999991,
                    "velocity": 0.7165354330708661,
                    "duration": 0.9986101125000175
                },
                {
                    "name": "F4",
                    "midi": 65,
                    "time": 71.99992799999991,
                    "velocity": 0.6456692913385826,
                    "duration": 0.9986101125000175
                },
                {
                    "name": "E3",
                    "midi": 52,
                    "time": 72.33326099999991,
                    "velocity": 0.5354330708661418,
                    "duration": 0.3319441125000111
                },
                {
                    "name": "E6",
                    "midi": 88,
                    "time": 72.33326099999991,
                    "velocity": 0.7559055118110236,
                    "duration": 0.16527761250000594
                },
                {
                    "name": "E5",
                    "midi": 76,
                    "time": 72.49992749999991,
                    "velocity": 0.6692913385826772,
                    "duration": 0.16527761250000594
                },
                {
                    "name": "E2",
                    "midi": 40,
                    "time": 72.66659399999992,
                    "velocity": 0.47244094488188976,
                    "duration": 0.14861096250000116
                },
                {
                    "name": "E2",
                    "midi": 40,
                    "time": 72.99992699999993,
                    "velocity": 0.5039370078740157,
                    "duration": 0.3319441125000111
                },
                {
                    "name": "E5",
                    "midi": 76,
                    "time": 72.99992699999993,
                    "velocity": 0.7244094488188977,
                    "duration": 0.3333330000000103
                },
                {
                    "name": "E4",
                    "midi": 64,
                    "time": 73.16659349999993,
                    "velocity": 0.5905511811023622,
                    "duration": 0.16527761250000594
                },
                {
                    "name": "A1",
                    "midi": 33,
                    "time": 73.33325999999994,
                    "velocity": 0.5905511811023622,
                    "duration": 0.14861096250000116
                },
                {
                    "name": "F3",
                    "midi": 53,
                    "time": 73.33325999999994,
                    "velocity": 0.5511811023622047,
                    "duration": 0.9986101125000175
                },
                {
                    "name": "B3",
                    "midi": 59,
                    "time": 73.33325999999994,
                    "velocity": 0.7165354330708661,
                    "duration": 0.9986101125000175
                },
                {
                    "name": "F4",
                    "midi": 65,
                    "time": 73.33325999999994,
                    "velocity": 0.5905511811023622,
                    "duration": 0.9986101125000175
                },
                {
                    "name": "E3",
                    "midi": 52,
                    "time": 73.66659299999993,
                    "velocity": 0.5354330708661418,
                    "duration": 0.3319441125000111
                },
                {
                    "name": "E5",
                    "midi": 76,
                    "time": 73.66659299999993,
                    "velocity": 0.7559055118110236,
                    "duration": 0.16527761250000594
                },
                {
                    "name": "E4",
                    "midi": 64,
                    "time": 73.83325949999994,
                    "velocity": 0.6692913385826772,
                    "duration": 0.16527761250000594
                },
                {
                    "name": "E2",
                    "midi": 40,
                    "time": 73.99992599999995,
                    "velocity": 0.47244094488188976,
                    "duration": 0.14861096250000116
                },
                {
                    "name": "E2",
                    "midi": 40,
                    "time": 74.33325899999996,
                    "velocity": 0.5039370078740157,
                    "duration": 0.3319441125000111
                },
                {
                    "name": "E4",
                    "midi": 64,
                    "time": 74.33325899999996,
                    "velocity": 0.7244094488188977,
                    "duration": 0.3333330000000103
                },
                {
                    "name": "E3",
                    "midi": 52,
                    "time": 74.49992549999996,
                    "velocity": 0.49606299212598426,
                    "duration": 0.16527761250000594
                },
                {
                    "name": "A1",
                    "midi": 33,
                    "time": 74.66659199999997,
                    "velocity": 0.5905511811023622,
                    "duration": 0.14861096250000116
                },
                {
                    "name": "F3",
                    "midi": 53,
                    "time": 74.66659199999997,
                    "velocity": 0.5511811023622047,
                    "duration": 0.9986101125000175
                },
                {
                    "name": "B3",
                    "midi": 59,
                    "time": 74.66659199999997,
                    "velocity": 0.7165354330708661,
                    "duration": 0.9986101125000175
                },
                {
                    "name": "F4",
                    "midi": 65,
                    "time": 74.66659199999997,
                    "velocity": 0.5905511811023622,
                    "duration": 0.9986101125000175
                },
                {
                    "name": "E3",
                    "midi": 52,
                    "time": 74.99992499999996,
                    "velocity": 0.5354330708661418,
                    "duration": 0.3319441125000111
                },
                {
                    "name": "E5",
                    "midi": 76,
                    "time": 74.99992499999996,
                    "velocity": 0.7559055118110236,
                    "duration": 0.16527761250000594
                },
                {
                    "name": "E4",
                    "midi": 64,
                    "time": 75.16659149999997,
                    "velocity": 0.6692913385826772,
                    "duration": 0.16527761250000594
                },
                {
                    "name": "E2",
                    "midi": 40,
                    "time": 75.33325799999997,
                    "velocity": 0.47244094488188976,
                    "duration": 0.14861096250000116
                },
                {
                    "name": "E2",
                    "midi": 40,
                    "time": 75.66659099999998,
                    "velocity": 0.5039370078740157,
                    "duration": 0.3319441125000111
                },
                {
                    "name": "E4",
                    "midi": 64,
                    "time": 75.66659099999998,
                    "velocity": 0.7244094488188977,
                    "duration": 0.3333330000000103
                },
                {
                    "name": "E3",
                    "midi": 52,
                    "time": 75.83325749999999,
                    "velocity": 0.49606299212598426,
                    "duration": 0.16527761250000594
                },
                {
                    "name": "A1",
                    "midi": 33,
                    "time": 75.999924,
                    "velocity": 0.6220472440944882,
                    "duration": 0.3319441124999827
                },
                {
                    "name": "E2",
                    "midi": 40,
                    "time": 75.999924,
                    "velocity": 0.5354330708661418,
                    "duration": 0.3319441124999827
                },
                {
                    "name": "C3",
                    "midi": 48,
                    "time": 75.999924,
                    "velocity": 0.4881889763779528,
                    "duration": 0.06111104999999384
                },
                {
                    "name": "E3",
                    "midi": 52,
                    "time": 75.999924,
                    "velocity": 0.7637795275590551,
                    "duration": 0.3319441124999827
                },
                {
                    "name": "A2",
                    "midi": 45,
                    "time": 76.16659049999998,
                    "velocity": 0.31496062992125984,
                    "duration": 0.06111104999999384
                },
                {
                    "name": "C3",
                    "midi": 48,
                    "time": 76.33325699999997,
                    "velocity": 0.4330708661417323,
                    "duration": 0.06111104999999384
                },
                {
                    "name": "A2",
                    "midi": 45,
                    "time": 76.49992349999997,
                    "velocity": 0.23622047244094488,
                    "duration": 0.06111104999999384
                },
                {
                    "name": "A3",
                    "midi": 57,
                    "time": 76.49992349999997,
                    "velocity": 0.7244094488188977,
                    "duration": 0.16527761249999173
                },
                {
                    "name": "B2",
                    "midi": 47,
                    "time": 76.66658999999996,
                    "velocity": 0.41732283464566927,
                    "duration": 0.06111104999999384
                },
                {
                    "name": "D#3",
                    "midi": 51,
                    "time": 76.66658999999996,
                    "velocity": 0.48031496062992124,
                    "duration": 0.06111104999999384
                },
                {
                    "name": "F3",
                    "midi": 53,
                    "time": 76.66658999999996,
                    "velocity": 0.7401574803149606,
                    "duration": 0.14861096249998695
                },
                {
                    "name": "A2",
                    "midi": 45,
                    "time": 76.83325649999995,
                    "velocity": 0.3937007874015748,
                    "duration": 0.06111104999999384
                },
                {
                    "name": "E2",
                    "midi": 40,
                    "time": 76.99992299999994,
                    "velocity": 0.5354330708661418,
                    "duration": 0.3319441124999827
                },
                {
                    "name": "E1",
                    "midi": 28,
                    "time": 76.99992299999994,
                    "velocity": 0.6062992125984252,
                    "duration": 0.3319441124999827
                },
                {
                    "name": "D3",
                    "midi": 50,
                    "time": 76.99992299999994,
                    "velocity": 0.5748031496062992,
                    "duration": 0.06111104999999384
                },
                {
                    "name": "D3",
                    "midi": 50,
                    "time": 76.99992299999994,
                    "velocity": 0.7637795275590551,
                    "duration": 0.3319441124999827
                },
                {
                    "name": "A2",
                    "midi": 45,
                    "time": 77.16658949999993,
                    "velocity": 0.36220472440944884,
                    "duration": 0.06111104999999384
                },
                {
                    "name": "A1",
                    "midi": 33,
                    "time": 77.33325599999992,
                    "velocity": 0.5354330708661418,
                    "duration": 0.3319441124999827
                },
                {
                    "name": "E2",
                    "midi": 40,
                    "time": 77.33325599999992,
                    "velocity": 0.5039370078740157,
                    "duration": 0.3319441124999827
                },
                {
                    "name": "C3",
                    "midi": 48,
                    "time": 77.33325599999992,
                    "velocity": 0.5118110236220472,
                    "duration": 0.06111104999999384
                },
                {
                    "name": "E3",
                    "midi": 52,
                    "time": 77.33325599999992,
                    "velocity": 0.7401574803149606,
                    "duration": 0.3319441124999827
                },
                {
                    "name": "A2",
                    "midi": 45,
                    "time": 77.49992249999991,
                    "velocity": 0.29133858267716534,
                    "duration": 0.06111104999999384
                },
                {
                    "name": "C3",
                    "midi": 48,
                    "time": 77.6665889999999,
                    "velocity": 0.4566929133858268,
                    "duration": 0.06111104999999384
                },
                {
                    "name": "A2",
                    "midi": 45,
                    "time": 77.8332554999999,
                    "velocity": 0.2992125984251969,
                    "duration": 0.06111104999999384
                },
                {
                    "name": "A3",
                    "midi": 57,
                    "time": 77.8332554999999,
                    "velocity": 0.7244094488188977,
                    "duration": 0.16527761249999173
                },
                {
                    "name": "B2",
                    "midi": 47,
                    "time": 77.99992199999988,
                    "velocity": 0.4566929133858268,
                    "duration": 0.06111104999999384
                },
                {
                    "name": "D#3",
                    "midi": 51,
                    "time": 77.99992199999988,
                    "velocity": 0.5590551181102362,
                    "duration": 0.06111104999999384
                },
                {
                    "name": "F3",
                    "midi": 53,
                    "time": 77.99992199999988,
                    "velocity": 0.7952755905511811,
                    "duration": 0.14861096249998695
                },
                {
                    "name": "A2",
                    "midi": 45,
                    "time": 78.16658849999988,
                    "velocity": 0.31496062992125984,
                    "duration": 0.06111104999999384
                },
                {
                    "name": "E1",
                    "midi": 28,
                    "time": 78.33325499999987,
                    "velocity": 0.4881889763779528,
                    "duration": 0.3319441124999827
                },
                {
                    "name": "E2",
                    "midi": 40,
                    "time": 78.33325499999987,
                    "velocity": 0.48031496062992124,
                    "duration": 0.3319441124999827
                },
                {
                    "name": "D3",
                    "midi": 50,
                    "time": 78.33325499999987,
                    "velocity": 0.5354330708661418,
                    "duration": 0.06111104999999384
                },
                {
                    "name": "D3",
                    "midi": 50,
                    "time": 78.33325499999987,
                    "velocity": 0.6535433070866141,
                    "duration": 0.3319441124999827
                },
                {
                    "name": "A2",
                    "midi": 45,
                    "time": 78.49992149999986,
                    "velocity": 0.3228346456692913,
                    "duration": 0.06111104999999384
                },
                {
                    "name": "A1",
                    "midi": 33,
                    "time": 78.66658799999985,
                    "velocity": 0.5590551181102362,
                    "duration": 0.3319441124999827
                },
                {
                    "name": "E2",
                    "midi": 40,
                    "time": 78.66658799999985,
                    "velocity": 0.48031496062992124,
                    "duration": 0.3319441124999827
                },
                {
                    "name": "E3",
                    "midi": 52,
                    "time": 78.66658799999985,
                    "velocity": 0.5275590551181102,
                    "duration": 0.06111104999999384
                },
                {
                    "name": "C3",
                    "midi": 48,
                    "time": 78.66658799999985,
                    "velocity": 0.5590551181102362,
                    "duration": 0.06111104999999384
                },
                {
                    "name": "E3",
                    "midi": 52,
                    "time": 78.66658799999985,
                    "velocity": 0.7244094488188977,
                    "duration": 0.3319441124999827
                },
                {
                    "name": "F3",
                    "midi": 53,
                    "time": 78.83325449999984,
                    "velocity": 0.5511811023622047,
                    "duration": 0.06111104999999384
                },
                {
                    "name": "A2",
                    "midi": 45,
                    "time": 78.83325449999984,
                    "velocity": 0.4015748031496063,
                    "duration": 0.06111104999999384
                },
                {
                    "name": "D#3",
                    "midi": 51,
                    "time": 78.99992099999983,
                    "velocity": 0.3543307086614173,
                    "duration": 0.06111104999999384
                },
                {
                    "name": "F#3",
                    "midi": 54,
                    "time": 78.99992099999983,
                    "velocity": 0.4409448818897638,
                    "duration": 0.06111104999999384
                },
                {
                    "name": "G3",
                    "midi": 55,
                    "time": 79.16658749999982,
                    "velocity": 0.5984251968503937,
                    "duration": 0.06111104999999384
                },
                {
                    "name": "C3",
                    "midi": 48,
                    "time": 79.16658749999982,
                    "velocity": 0.5196850393700787,
                    "duration": 0.06111104999999384
                },
                {
                    "name": "E4",
                    "midi": 64,
                    "time": 79.16658749999982,
                    "velocity": 0.6535433070866141,
                    "duration": 0.16527761249999173
                },
                {
                    "name": "E3",
                    "midi": 52,
                    "time": 79.33325399999981,
                    "velocity": 0.5275590551181102,
                    "duration": 0.06111104999999384
                },
                {
                    "name": "G#3",
                    "midi": 56,
                    "time": 79.33325399999981,
                    "velocity": 0.5590551181102362,
                    "duration": 0.06111104999999384
                },
                {
                    "name": "E4",
                    "midi": 64,
                    "time": 79.33325399999981,
                    "velocity": 0.7007874015748031,
                    "duration": 0.3319441124999827
                },
                {
                    "name": "C4",
                    "midi": 60,
                    "time": 79.33325399999981,
                    "velocity": 0.6220472440944882,
                    "duration": 0.3319441124999827
                },
                {
                    "name": "G3",
                    "midi": 55,
                    "time": 79.4999204999998,
                    "velocity": 0.5826771653543307,
                    "duration": 0.06111104999999384
                },
                {
                    "name": "C3",
                    "midi": 48,
                    "time": 79.4999204999998,
                    "velocity": 0.5196850393700787,
                    "duration": 0.06111104999999384
                },
                {
                    "name": "F#3",
                    "midi": 54,
                    "time": 79.6665869999998,
                    "velocity": 0.5275590551181102,
                    "duration": 0.06111104999999384
                },
                {
                    "name": "D#3",
                    "midi": 51,
                    "time": 79.6665869999998,
                    "velocity": 0.44881889763779526,
                    "duration": 0.06111104999999384
                },
                {
                    "name": "A1",
                    "midi": 33,
                    "time": 79.83325349999978,
                    "velocity": 0.5826771653543307,
                    "duration": 0.16527761249999173
                },
                {
                    "name": "C3",
                    "midi": 48,
                    "time": 79.83325349999978,
                    "velocity": 0.5275590551181102,
                    "duration": 0.06111104999999384
                },
                {
                    "name": "F3",
                    "midi": 53,
                    "time": 79.83325349999978,
                    "velocity": 0.5669291338582677,
                    "duration": 0.06111104999999384
                },
                {
                    "name": "E1",
                    "midi": 28,
                    "time": 79.99991999999978,
                    "velocity": 0.4881889763779528,
                    "duration": 0.3319441124999827
                },
                {
                    "name": "E2",
                    "midi": 40,
                    "time": 79.99991999999978,
                    "velocity": 0.48031496062992124,
                    "duration": 0.3319441124999827
                },
                {
                    "name": "D#3",
                    "midi": 51,
                    "time": 79.99991999999978,
                    "velocity": 0.4330708661417323,
                    "duration": 0.06111104999999384
                },
                {
                    "name": "E3",
                    "midi": 52,
                    "time": 79.99991999999978,
                    "velocity": 0.7401574803149606,
                    "duration": 0.3319441124999827
                },
                {
                    "name": "C3",
                    "midi": 48,
                    "time": 80.16658649999977,
                    "velocity": 0.49606299212598426,
                    "duration": 0.06111104999999384
                },
                {
                    "name": "F3",
                    "midi": 53,
                    "time": 80.16658649999977,
                    "velocity": 0.4881889763779528,
                    "duration": 0.06111104999999384
                },
                {
                    "name": "D3",
                    "midi": 50,
                    "time": 80.33325299999976,
                    "velocity": 0.5354330708661418,
                    "duration": 0.06111104999999384
                },
                {
                    "name": "F#3",
                    "midi": 54,
                    "time": 80.33325299999976,
                    "velocity": 0.5196850393700787,
                    "duration": 0.06111104999999384
                },
                {
                    "name": "B2",
                    "midi": 47,
                    "time": 80.49991949999975,
                    "velocity": 0.49606299212598426,
                    "duration": 0.06111104999999384
                },
                {
                    "name": "G3",
                    "midi": 55,
                    "time": 80.49991949999975,
                    "velocity": 0.5118110236220472,
                    "duration": 0.06111104999999384
                },
                {
                    "name": "B4",
                    "midi": 71,
                    "time": 80.49991949999975,
                    "velocity": 0.7244094488188977,
                    "duration": 0.16527761249999173
                },
                {
                    "name": "E4",
                    "midi": 64,
                    "time": 80.49991949999975,
                    "velocity": 0.7244094488188977,
                    "duration": 0.16527761249999173
                },
                {
                    "name": "G#3",
                    "midi": 56,
                    "time": 80.66658599999974,
                    "velocity": 0.5748031496062992,
                    "duration": 0.06111104999999384
                },
                {
                    "name": "C#3",
                    "midi": 49,
                    "time": 80.66658599999974,
                    "velocity": 0.5354330708661418,
                    "duration": 0.06111104999999384
                },
                {
                    "name": "E4",
                    "midi": 64,
                    "time": 80.66658599999974,
                    "velocity": 0.6771653543307087,
                    "duration": 0.3319441124999827
                },
                {
                    "name": "B3",
                    "midi": 59,
                    "time": 80.66658599999974,
                    "velocity": 0.5826771653543307,
                    "duration": 0.3319441124999827
                },
                {
                    "name": "G3",
                    "midi": 55,
                    "time": 80.83325249999973,
                    "velocity": 0.5826771653543307,
                    "duration": 0.06111104999999384
                },
                {
                    "name": "A#2",
                    "midi": 46,
                    "time": 80.83325249999973,
                    "velocity": 0.5354330708661418,
                    "duration": 0.06111104999999384
                },
                {
                    "name": "F#3",
                    "midi": 54,
                    "time": 80.99991899999972,
                    "velocity": 0.5748031496062992,
                    "duration": 0.06111104999999384
                },
                {
                    "name": "D3",
                    "midi": 50,
                    "time": 80.99991899999972,
                    "velocity": 0.5196850393700787,
                    "duration": 0.06111104999999384
                },
                {
                    "name": "B2",
                    "midi": 47,
                    "time": 81.16658549999971,
                    "velocity": 0.5511811023622047,
                    "duration": 0.06111104999999384
                },
                {
                    "name": "F3",
                    "midi": 53,
                    "time": 81.16658549999971,
                    "velocity": 0.5748031496062992,
                    "duration": 0.06111104999999384
                },
                {
                    "name": "A2",
                    "midi": 45,
                    "time": 81.3332519999997,
                    "velocity": 0.4566929133858268,
                    "duration": 0.3319441124999827
                },
                {
                    "name": "E3",
                    "midi": 52,
                    "time": 81.3332519999997,
                    "velocity": 0.4566929133858268,
                    "duration": 0.3319441124999827
                },
                {
                    "name": "D4",
                    "midi": 62,
                    "time": 81.3332519999997,
                    "velocity": 0.5826771653543307,
                    "duration": 0.06111104999999384
                },
                {
                    "name": "E4",
                    "midi": 64,
                    "time": 81.3332519999997,
                    "velocity": 0.6062992125984252,
                    "duration": 0.3319441124999827
                },
                {
                    "name": "A3",
                    "midi": 57,
                    "time": 81.4999184999997,
                    "velocity": 0.49606299212598426,
                    "duration": 0.06111104999999384
                },
                {
                    "name": "C#4",
                    "midi": 61,
                    "time": 81.66658499999969,
                    "velocity": 0.29133858267716534,
                    "duration": 0.06111104999999384
                },
                {
                    "name": "A3",
                    "midi": 57,
                    "time": 81.83325149999968,
                    "velocity": 0.5118110236220472,
                    "duration": 0.06111104999999384
                },
                {
                    "name": "A4",
                    "midi": 69,
                    "time": 81.83325149999968,
                    "velocity": 0.6062992125984252,
                    "duration": 0.16527761249999173
                },
                {
                    "name": "C4",
                    "midi": 60,
                    "time": 81.99991799999967,
                    "velocity": 0.48031496062992124,
                    "duration": 0.06111104999999384
                },
                {
                    "name": "D#4",
                    "midi": 63,
                    "time": 81.99991799999967,
                    "velocity": 0.48031496062992124,
                    "duration": 0.06111104999999384
                },
                {
                    "name": "F4",
                    "midi": 65,
                    "time": 81.99991799999967,
                    "velocity": 0.6377952755905512,
                    "duration": 0.14861096249998695
                },
                {
                    "name": "A3",
                    "midi": 57,
                    "time": 82.16658449999966,
                    "velocity": 0.4566929133858268,
                    "duration": 0.06111104999999384
                },
                {
                    "name": "E3",
                    "midi": 52,
                    "time": 82.33325099999965,
                    "velocity": 0.5275590551181102,
                    "duration": 0.3319441124999827
                },
                {
                    "name": "E2",
                    "midi": 40,
                    "time": 82.33325099999965,
                    "velocity": 0.5275590551181102,
                    "duration": 0.3319441124999827
                },
                {
                    "name": "B3",
                    "midi": 59,
                    "time": 82.33325099999965,
                    "velocity": 0.5118110236220472,
                    "duration": 0.06111104999999384
                },
                {
                    "name": "D4",
                    "midi": 62,
                    "time": 82.33325099999965,
                    "velocity": 0.5984251968503937,
                    "duration": 0.3319441124999827
                },
                {
                    "name": "A3",
                    "midi": 57,
                    "time": 82.49991749999964,
                    "velocity": 0.4094488188976378,
                    "duration": 0.06111104999999384
                },
                {
                    "name": "E4",
                    "midi": 64,
                    "time": 82.66658399999963,
                    "velocity": 0.6062992125984252,
                    "duration": 0.3319441124999827
                },
                {
                    "name": "D4",
                    "midi": 62,
                    "time": 82.66658399999963,
                    "velocity": 0.5826771653543307,
                    "duration": 0.06111104999999384
                },
                {
                    "name": "E3",
                    "midi": 52,
                    "time": 82.66658399999963,
                    "velocity": 0.4566929133858268,
                    "duration": 0.3319441124999827
                },
                {
                    "name": "A2",
                    "midi": 45,
                    "time": 82.66658399999963,
                    "velocity": 0.4566929133858268,
                    "duration": 0.3319441124999827
                },
                {
                    "name": "A3",
                    "midi": 57,
                    "time": 82.83325049999962,
                    "velocity": 0.49606299212598426,
                    "duration": 0.06111104999999384
                },
                {
                    "name": "C#4",
                    "midi": 61,
                    "time": 82.99991699999961,
                    "velocity": 0.29133858267716534,
                    "duration": 0.06111104999999384
                },
                {
                    "name": "A4",
                    "midi": 69,
                    "time": 83.1665834999996,
                    "velocity": 0.6062992125984252,
                    "duration": 0.16527761249999173
                },
                {
                    "name": "A3",
                    "midi": 57,
                    "time": 83.1665834999996,
                    "velocity": 0.5118110236220472,
                    "duration": 0.06111104999999384
                },
                {
                    "name": "F4",
                    "midi": 65,
                    "time": 83.3332499999996,
                    "velocity": 0.6377952755905512,
                    "duration": 0.14861096249998695
                },
                {
                    "name": "D#4",
                    "midi": 63,
                    "time": 83.3332499999996,
                    "velocity": 0.48031496062992124,
                    "duration": 0.06111104999999384
                },
                {
                    "name": "C4",
                    "midi": 60,
                    "time": 83.3332499999996,
                    "velocity": 0.48031496062992124,
                    "duration": 0.06111104999999384
                },
                {
                    "name": "A3",
                    "midi": 57,
                    "time": 83.49991649999959,
                    "velocity": 0.4566929133858268,
                    "duration": 0.06111104999999384
                },
                {
                    "name": "D4",
                    "midi": 62,
                    "time": 83.66658299999958,
                    "velocity": 0.5984251968503937,
                    "duration": 0.3319441124999827
                },
                {
                    "name": "B3",
                    "midi": 59,
                    "time": 83.66658299999958,
                    "velocity": 0.5118110236220472,
                    "duration": 0.06111104999999384
                },
                {
                    "name": "E2",
                    "midi": 40,
                    "time": 83.66658299999958,
                    "velocity": 0.5275590551181102,
                    "duration": 0.3319441124999827
                },
                {
                    "name": "E3",
                    "midi": 52,
                    "time": 83.66658299999958,
                    "velocity": 0.5275590551181102,
                    "duration": 0.3319441124999827
                },
                {
                    "name": "A3",
                    "midi": 57,
                    "time": 83.83324949999957,
                    "velocity": 0.4094488188976378,
                    "duration": 0.06111104999999384
                },
                {
                    "name": "E4",
                    "midi": 64,
                    "time": 83.99991599999956,
                    "velocity": 0.6771653543307087,
                    "duration": 0.12361098749998689
                },
                {
                    "name": "C4",
                    "midi": 60,
                    "time": 83.99991599999956,
                    "velocity": 0.5669291338582677,
                    "duration": 0.06111104999999384
                },
                {
                    "name": "A2",
                    "midi": 45,
                    "time": 83.99991599999956,
                    "velocity": 0.5118110236220472,
                    "duration": 0.3319441124999827
                },
                {
                    "name": "E3",
                    "midi": 52,
                    "time": 83.99991599999956,
                    "velocity": 0.4881889763779528,
                    "duration": 0.3319441124999827
                },
                {
                    "name": "A3",
                    "midi": 57,
                    "time": 84.16658249999955,
                    "velocity": 0.4094488188976378,
                    "duration": 0.06111104999999384
                },
                {
                    "name": "F4",
                    "midi": 65,
                    "time": 84.16658249999955,
                    "velocity": 0.5196850393700787,
                    "duration": 0.06111104999999384
                },
                {
                    "name": "D#4",
                    "midi": 63,
                    "time": 84.33324899999954,
                    "velocity": 0.49606299212598426,
                    "duration": 0.06111104999999384
                },
                {
                    "name": "F#4",
                    "midi": 66,
                    "time": 84.33324899999954,
                    "velocity": 0.5196850393700787,
                    "duration": 0.06111104999999384
                },
                {
                    "name": "E5",
                    "midi": 76,
                    "time": 84.49991549999953,
                    "velocity": 0.5984251968503937,
                    "duration": 0.16527761249999173
                },
                {
                    "name": "C4",
                    "midi": 60,
                    "time": 84.49991549999953,
                    "velocity": 0.47244094488188976,
                    "duration": 0.06111104999999384
                },
                {
                    "name": "G4",
                    "midi": 67,
                    "time": 84.49991549999953,
                    "velocity": 0.5118110236220472,
                    "duration": 0.06111104999999384
                },
                {
                    "name": "E5",
                    "midi": 76,
                    "time": 84.66658199999952,
                    "velocity": 0.5984251968503937,
                    "duration": 0.3319441124999827
                },
                {
                    "name": "C5",
                    "midi": 72,
                    "time": 84.66658199999952,
                    "velocity": 0.5669291338582677,
                    "duration": 0.3319441124999827
                },
                {
                    "name": "E4",
                    "midi": 64,
                    "time": 84.66658199999952,
                    "velocity": 0.5354330708661418,
                    "duration": 0.06111104999999384
                },
                {
                    "name": "G#4",
                    "midi": 68,
                    "time": 84.66658199999952,
                    "velocity": 0.47244094488188976,
                    "duration": 0.06111104999999384
                },
                {
                    "name": "C4",
                    "midi": 60,
                    "time": 84.83324849999951,
                    "velocity": 0.48031496062992124,
                    "duration": 0.06111104999999384
                },
                {
                    "name": "F4",
                    "midi": 65,
                    "time": 84.83324849999951,
                    "velocity": 0.5196850393700787,
                    "duration": 0.06111104999999384
                },
                {
                    "name": "G4",
                    "midi": 67,
                    "time": 84.9999149999995,
                    "velocity": 0.49606299212598426,
                    "duration": 0.06111104999999384
                },
                {
                    "name": "E4",
                    "midi": 64,
                    "time": 84.9999149999995,
                    "velocity": 0.4881889763779528,
                    "duration": 0.06111104999999384
                },
                {
                    "name": "G#4",
                    "midi": 68,
                    "time": 85.1665814999995,
                    "velocity": 0.5275590551181102,
                    "duration": 0.06111104999999384
                },
                {
                    "name": "C#4",
                    "midi": 61,
                    "time": 85.1665814999995,
                    "velocity": 0.4094488188976378,
                    "duration": 0.06111104999999384
                },
                {
                    "name": "A2",
                    "midi": 45,
                    "time": 85.1665814999995,
                    "velocity": 0.6062992125984252,
                    "duration": 0.16527761249999173
                },
                {
                    "name": "A4",
                    "midi": 69,
                    "time": 85.33324799999949,
                    "velocity": 0.5511811023622047,
                    "duration": 0.16527761249999173
                },
                {
                    "name": "C4",
                    "midi": 60,
                    "time": 85.33324799999949,
                    "velocity": 0.5511811023622047,
                    "duration": 0.06111104999999384
                },
                {
                    "name": "E4",
                    "midi": 64,
                    "time": 85.33324799999949,
                    "velocity": 0.5511811023622047,
                    "duration": 0.06111104999999384
                },
                {
                    "name": "D3",
                    "midi": 50,
                    "time": 85.33324799999949,
                    "velocity": 0.5511811023622047,
                    "duration": 0.3319441124999827
                },
                {
                    "name": "D2",
                    "midi": 38,
                    "time": 85.33324799999949,
                    "velocity": 0.5511811023622047,
                    "duration": 0.3319441124999827
                },
                {
                    "name": "F4",
                    "midi": 65,
                    "time": 85.49991449999948,
                    "velocity": 0.5826771653543307,
                    "duration": 0.06111104999999384
                },
                {
                    "name": "G#4",
                    "midi": 68,
                    "time": 85.49991449999948,
                    "velocity": 0.5826771653543307,
                    "duration": 0.16527761249999173
                },
                {
                    "name": "F#4",
                    "midi": 66,
                    "time": 85.66658099999947,
                    "velocity": 0.6377952755905512,
                    "duration": 0.06111104999999384
                },
                {
                    "name": "A4",
                    "midi": 69,
                    "time": 85.66658099999947,
                    "velocity": 0.6377952755905512,
                    "duration": 0.06111104999999384
                },
                {
                    "name": "B5",
                    "midi": 83,
                    "time": 85.83324749999946,
                    "velocity": 0.6377952755905512,
                    "duration": 0.16527761249999173
                },
                {
                    "name": "B4",
                    "midi": 71,
                    "time": 85.83324749999946,
                    "velocity": 0.6377952755905512,
                    "duration": 0.06111104999999384
                },
                {
                    "name": "G4",
                    "midi": 67,
                    "time": 85.83324749999946,
                    "velocity": 0.6377952755905512,
                    "duration": 0.06111104999999384
                },
                {
                    "name": "B5",
                    "midi": 83,
                    "time": 85.99991399999945,
                    "velocity": 0.6692913385826772,
                    "duration": 0.3319441124999827
                },
                {
                    "name": "G5",
                    "midi": 79,
                    "time": 85.99991399999945,
                    "velocity": 0.6692913385826772,
                    "duration": 0.3319441124999827
                },
                {
                    "name": "A4",
                    "midi": 69,
                    "time": 85.99991399999945,
                    "velocity": 0.6692913385826772,
                    "duration": 0.06111104999999384
                },
                {
                    "name": "C5",
                    "midi": 72,
                    "time": 85.99991399999945,
                    "velocity": 0.6692913385826772,
                    "duration": 0.06111104999999384
                },
                {
                    "name": "D5",
                    "midi": 74,
                    "time": 86.16658049999944,
                    "velocity": 0.6692913385826772,
                    "duration": 0.06111104999999384
                },
                {
                    "name": "B4",
                    "midi": 71,
                    "time": 86.16658049999944,
                    "velocity": 0.6692913385826772,
                    "duration": 0.06111104999999384
                },
                {
                    "name": "C5",
                    "midi": 72,
                    "time": 86.33324699999943,
                    "velocity": 0.5275590551181102,
                    "duration": 0.06111104999999384
                },
                {
                    "name": "E5",
                    "midi": 76,
                    "time": 86.33324699999943,
                    "velocity": 0.5590551181102362,
                    "duration": 0.06111104999999384
                },
                {
                    "name": "F#5",
                    "midi": 78,
                    "time": 86.49991349999942,
                    "velocity": 0.5590551181102362,
                    "duration": 0.06111104999999384
                },
                {
                    "name": "D5",
                    "midi": 74,
                    "time": 86.49991349999942,
                    "velocity": 0.5748031496062992,
                    "duration": 0.06111104999999384
                },
                {
                    "name": "D5",
                    "midi": 74,
                    "time": 86.66657999999941,
                    "velocity": 0.6692913385826772,
                    "duration": 0.06111104999999384
                },
                {
                    "name": "F#5",
                    "midi": 78,
                    "time": 86.66657999999941,
                    "velocity": 0.6456692913385826,
                    "duration": 0.06111104999999384
                },
                {
                    "name": "G5",
                    "midi": 79,
                    "time": 86.66657999999941,
                    "velocity": 0.7322834645669292,
                    "duration": 0.06111104999999384
                },
                {
                    "name": "G4",
                    "midi": 67,
                    "time": 86.66657999999941,
                    "velocity": 0.8582677165354331,
                    "duration": 0.3319441124999827
                },
                {
                    "name": "G5",
                    "midi": 79,
                    "time": 86.8332464999994,
                    "velocity": 0.6929133858267716,
                    "duration": 0.06111104999999384
                },
                {
                    "name": "C5",
                    "midi": 72,
                    "time": 86.8332464999994,
                    "velocity": 0.6692913385826772,
                    "duration": 0.06111104999999384
                },
                {
                    "name": "E5",
                    "midi": 76,
                    "time": 86.8332464999994,
                    "velocity": 0.6377952755905512,
                    "duration": 0.06111104999999384
                },
                {
                    "name": "D5",
                    "midi": 74,
                    "time": 86.9999129999994,
                    "velocity": 0.6535433070866141,
                    "duration": 0.06111104999999384
                },
                {
                    "name": "G5",
                    "midi": 79,
                    "time": 86.9999129999994,
                    "velocity": 0.7244094488188977,
                    "duration": 0.06111104999999384
                },
                {
                    "name": "B4",
                    "midi": 71,
                    "time": 86.9999129999994,
                    "velocity": 0.6771653543307087,
                    "duration": 0.06111104999999384
                },
                {
                    "name": "G5",
                    "midi": 79,
                    "time": 87.16657949999939,
                    "velocity": 0.7795275590551181,
                    "duration": 0.06111104999999384
                },
                {
                    "name": "A4",
                    "midi": 69,
                    "time": 87.16657949999939,
                    "velocity": 0.7244094488188977,
                    "duration": 0.06111104999999384
                },
                {
                    "name": "C5",
                    "midi": 72,
                    "time": 87.16657949999939,
                    "velocity": 0.7401574803149606,
                    "duration": 0.06111104999999384
                },
                {
                    "name": "D6",
                    "midi": 86,
                    "time": 87.16657949999939,
                    "velocity": 0.8110236220472441,
                    "duration": 0.16527761249999173
                },
                {
                    "name": "G4",
                    "midi": 67,
                    "time": 87.33324599999938,
                    "velocity": 0.6141732283464567,
                    "duration": 0.06111104999999384
                },
                {
                    "name": "B4",
                    "midi": 71,
                    "time": 87.33324599999938,
                    "velocity": 0.6062992125984252,
                    "duration": 0.06111104999999384
                },
                {
                    "name": "G5",
                    "midi": 79,
                    "time": 87.33324599999938,
                    "velocity": 0.7165354330708661,
                    "duration": 0.06111104999999384
                },
                {
                    "name": "G6",
                    "midi": 91,
                    "time": 87.33324599999938,
                    "velocity": 0.8818897637795275,
                    "duration": 0.3319441124999827
                },
                {
                    "name": "G4",
                    "midi": 67,
                    "time": 87.49991249999937,
                    "velocity": 0.4881889763779528,
                    "duration": 0.06111104999999384
                },
                {
                    "name": "B4",
                    "midi": 71,
                    "time": 87.49991249999937,
                    "velocity": 0.4409448818897638,
                    "duration": 0.06111104999999384
                },
                {
                    "name": "F#5",
                    "midi": 78,
                    "time": 87.49991249999937,
                    "velocity": 0.6929133858267716,
                    "duration": 0.06111104999999384
                },
                {
                    "name": "A4",
                    "midi": 69,
                    "time": 87.66657899999936,
                    "velocity": 0.6692913385826772,
                    "duration": 0.06111104999999384
                },
                {
                    "name": "E5",
                    "midi": 76,
                    "time": 87.66657899999936,
                    "velocity": 0.7165354330708661,
                    "duration": 0.06111104999999384
                },
                {
                    "name": "A#4",
                    "midi": 70,
                    "time": 87.66657899999936,
                    "velocity": 0.5039370078740157,
                    "duration": 0.06111104999999384
                },
                {
                    "name": "A4",
                    "midi": 69,
                    "time": 87.83324549999935,
                    "velocity": 0.6692913385826772,
                    "duration": 0.06111104999999384
                },
                {
                    "name": "A#4",
                    "midi": 70,
                    "time": 87.83324549999935,
                    "velocity": 0.5118110236220472,
                    "duration": 0.06111104999999384
                },
                {
                    "name": "D5",
                    "midi": 74,
                    "time": 87.83324549999935,
                    "velocity": 0.7244094488188977,
                    "duration": 0.06111104999999384
                },
                {
                    "name": "G4",
                    "midi": 67,
                    "time": 87.83324549999935,
                    "velocity": 0.8976377952755905,
                    "duration": 0.16527761249999173
                },
                {
                    "name": "C5",
                    "midi": 72,
                    "time": 87.99991199999934,
                    "velocity": 0.5905511811023622,
                    "duration": 0.06111104999999384
                },
                {
                    "name": "G#4",
                    "midi": 68,
                    "time": 87.99991199999934,
                    "velocity": 0.5669291338582677,
                    "duration": 0.06111104999999384
                },
                {
                    "name": "D5",
                    "midi": 74,
                    "time": 87.99991199999934,
                    "velocity": 0.7086614173228346,
                    "duration": 0.06111104999999384
                },
                {
                    "name": "D4",
                    "midi": 62,
                    "time": 87.99991199999934,
                    "velocity": 0.9212598425196851,
                    "duration": 0.3319441124999827
                },
                {
                    "name": "G4",
                    "midi": 67,
                    "time": 88.16657849999933,
                    "velocity": 0.6535433070866141,
                    "duration": 0.06111104999999384
                },
                {
                    "name": "D5",
                    "midi": 74,
                    "time": 88.16657849999933,
                    "velocity": 0.6850393700787402,
                    "duration": 0.06111104999999384
                },
                {
                    "name": "B4",
                    "midi": 71,
                    "time": 88.16657849999933,
                    "velocity": 0.6141732283464567,
                    "duration": 0.06111104999999384
                },
                {
                    "name": "F#4",
                    "midi": 66,
                    "time": 88.33324499999932,
                    "velocity": 0.6535433070866141,
                    "duration": 0.06111104999999384
                },
                {
                    "name": "A4",
                    "midi": 69,
                    "time": 88.33324499999932,
                    "velocity": 0.49606299212598426,
                    "duration": 0.06111104999999384
                },
                {
                    "name": "D5",
                    "midi": 74,
                    "time": 88.33324499999932,
                    "velocity": 0.7244094488188977,
                    "duration": 0.06111104999999384
                },
                {
                    "name": "E4",
                    "midi": 64,
                    "time": 88.49991149999931,
                    "velocity": 0.6062992125984252,
                    "duration": 0.06111104999999384
                },
                {
                    "name": "G4",
                    "midi": 67,
                    "time": 88.49991149999931,
                    "velocity": 0.6535433070866141,
                    "duration": 0.06111104999999384
                },
                {
                    "name": "D5",
                    "midi": 74,
                    "time": 88.49991149999931,
                    "velocity": 0.7401574803149606,
                    "duration": 0.06111104999999384
                },
                {
                    "name": "D6",
                    "midi": 86,
                    "time": 88.49991149999931,
                    "velocity": 0.984251968503937,
                    "duration": 0.16527761249999173
                },
                {
                    "name": "D4",
                    "midi": 62,
                    "time": 88.6665779999993,
                    "velocity": 0.6456692913385826,
                    "duration": 0.06111104999999384
                },
                {
                    "name": "F#4",
                    "midi": 66,
                    "time": 88.6665779999993,
                    "velocity": 0.5118110236220472,
                    "duration": 0.06111104999999384
                },
                {
                    "name": "D5",
                    "midi": 74,
                    "time": 88.6665779999993,
                    "velocity": 0.7322834645669292,
                    "duration": 0.06111104999999384
                },
                {
                    "name": "A5",
                    "midi": 81,
                    "time": 88.6665779999993,
                    "velocity": 0.9212598425196851,
                    "duration": 0.3319441124999827
                },
                {
                    "name": "D4",
                    "midi": 62,
                    "time": 88.8332444999993,
                    "velocity": 0.6692913385826772,
                    "duration": 0.06111104999999384
                },
                {
                    "name": "D#4",
                    "midi": 63,
                    "time": 88.8332444999993,
                    "velocity": 0.6062992125984252,
                    "duration": 0.06111104999999384
                },
                {
                    "name": "C5",
                    "midi": 72,
                    "time": 88.8332444999993,
                    "velocity": 0.7086614173228346,
                    "duration": 0.06111104999999384
                },
                {
                    "name": "E4",
                    "midi": 64,
                    "time": 88.99991099999929,
                    "velocity": 0.6771653543307087,
                    "duration": 0.06111104999999384
                },
                {
                    "name": "D4",
                    "midi": 62,
                    "time": 88.99991099999929,
                    "velocity": 0.6929133858267716,
                    "duration": 0.06111104999999384
                },
                {
                    "name": "B4",
                    "midi": 71,
                    "time": 88.99991099999929,
                    "velocity": 0.7401574803149606,
                    "duration": 0.06111104999999384
                },
                {
                    "name": "D4",
                    "midi": 62,
                    "time": 89.16657749999928,
                    "velocity": 0.5984251968503937,
                    "duration": 0.06111104999999384
                },
                {
                    "name": "F4",
                    "midi": 65,
                    "time": 89.16657749999928,
                    "velocity": 0.6535433070866141,
                    "duration": 0.06111104999999384
                },
                {
                    "name": "A4",
                    "midi": 69,
                    "time": 89.16657749999928,
                    "velocity": 0.6771653543307087,
                    "duration": 0.06111104999999384
                },
                {
                    "name": "D3",
                    "midi": 50,
                    "time": 89.16657749999928,
                    "velocity": 0.8582677165354331,
                    "duration": 0.16527761249999173
                },
                {
                    "name": "G4",
                    "midi": 67,
                    "time": 89.33324399999927,
                    "velocity": 0.5669291338582677,
                    "duration": 0.06111104999999384
                },
                {
                    "name": "D4",
                    "midi": 62,
                    "time": 89.33324399999927,
                    "velocity": 0.5354330708661418,
                    "duration": 0.06111104999999384
                },
                {
                    "name": "F#4",
                    "midi": 66,
                    "time": 89.33324399999927,
                    "velocity": 0.44881889763779526,
                    "duration": 0.06111104999999384
                },
                {
                    "name": "G3",
                    "midi": 55,
                    "time": 89.33324399999927,
                    "velocity": 0.6535433070866141,
                    "duration": 0.3319441124999827
                },
                {
                    "name": "C4",
                    "midi": 60,
                    "time": 89.49991049999926,
                    "velocity": 0.5354330708661418,
                    "duration": 0.06111104999999384
                },
                {
                    "name": "G4",
                    "midi": 67,
                    "time": 89.49991049999926,
                    "velocity": 0.5354330708661418,
                    "duration": 0.06111104999999384
                },
                {
                    "name": "E4",
                    "midi": 64,
                    "time": 89.49991049999926,
                    "velocity": 0.5118110236220472,
                    "duration": 0.06111104999999384
                },
                {
                    "name": "B3",
                    "midi": 59,
                    "time": 89.66657699999925,
                    "velocity": 0.5275590551181102,
                    "duration": 0.06111104999999384
                },
                {
                    "name": "G4",
                    "midi": 67,
                    "time": 89.66657699999925,
                    "velocity": 0.4881889763779528,
                    "duration": 0.06111104999999384
                },
                {
                    "name": "D4",
                    "midi": 62,
                    "time": 89.66657699999925,
                    "velocity": 0.5669291338582677,
                    "duration": 0.06111104999999384
                },
                {
                    "name": "G4",
                    "midi": 67,
                    "time": 89.83324349999924,
                    "velocity": 0.5118110236220472,
                    "duration": 0.06111104999999384
                },
                {
                    "name": "C4",
                    "midi": 60,
                    "time": 89.83324349999924,
                    "velocity": 0.5196850393700787,
                    "duration": 0.06111104999999384
                },
                {
                    "name": "A3",
                    "midi": 57,
                    "time": 89.83324349999924,
                    "velocity": 0.49606299212598426,
                    "duration": 0.06111104999999384
                },
                {
                    "name": "D5",
                    "midi": 74,
                    "time": 89.83324349999924,
                    "velocity": 0.7401574803149606,
                    "duration": 0.16527761249999173
                },
                {
                    "name": "G3",
                    "midi": 55,
                    "time": 89.99990999999923,
                    "velocity": 0.47244094488188976,
                    "duration": 0.06111104999999384
                },
                {
                    "name": "G4",
                    "midi": 67,
                    "time": 89.99990999999923,
                    "velocity": 0.6062992125984252,
                    "duration": 0.06111104999999384
                },
                {
                    "name": "B3",
                    "midi": 59,
                    "time": 89.99990999999923,
                    "velocity": 0.4409448818897638,
                    "duration": 0.06111104999999384
                },
                {
                    "name": "G5",
                    "midi": 79,
                    "time": 89.99990999999923,
                    "velocity": 0.7952755905511811,
                    "duration": 0.3319441124999827
                },
                {
                    "name": "G3",
                    "midi": 55,
                    "time": 90.16657649999922,
                    "velocity": 0.3543307086614173,
                    "duration": 0.06111104999999384
                },
                {
                    "name": "B3",
                    "midi": 59,
                    "time": 90.16657649999922,
                    "velocity": 0.29133858267716534,
                    "duration": 0.06111104999999384
                },
                {
                    "name": "F#4",
                    "midi": 66,
                    "time": 90.16657649999922,
                    "velocity": 0.5118110236220472,
                    "duration": 0.06111104999999384
                },
                {
                    "name": "G#3",
                    "midi": 56,
                    "time": 90.33324299999921,
                    "velocity": 0.4015748031496063,
                    "duration": 0.06111104999999384
                },
                {
                    "name": "E4",
                    "midi": 64,
                    "time": 90.33324299999921,
                    "velocity": 0.5590551181102362,
                    "duration": 0.06111104999999384
                },
                {
                    "name": "B3",
                    "midi": 59,
                    "time": 90.33324299999921,
                    "velocity": 0.4409448818897638,
                    "duration": 0.06111104999999384
                },
                {
                    "name": "A3",
                    "midi": 57,
                    "time": 90.4999094999992,
                    "velocity": 0.4094488188976378,
                    "duration": 0.06111104999999384
                },
                {
                    "name": "A#3",
                    "midi": 58,
                    "time": 90.4999094999992,
                    "velocity": 0.41732283464566927,
                    "duration": 0.06111104999999384
                },
                {
                    "name": "D4",
                    "midi": 62,
                    "time": 90.4999094999992,
                    "velocity": 0.5275590551181102,
                    "duration": 0.06111104999999384
                },
                {
                    "name": "G3",
                    "midi": 55,
                    "time": 90.4999094999992,
                    "velocity": 0.7007874015748031,
                    "duration": 0.16527761249999173
                },
                {
                    "name": "C4",
                    "midi": 60,
                    "time": 90.6665759999992,
                    "velocity": 0.5196850393700787,
                    "duration": 0.06111104999999384
                },
                {
                    "name": "D4",
                    "midi": 62,
                    "time": 90.6665759999992,
                    "velocity": 0.5984251968503937,
                    "duration": 0.06111104999999384
                },
                {
                    "name": "G#3",
                    "midi": 56,
                    "time": 90.6665759999992,
                    "velocity": 0.5118110236220472,
                    "duration": 0.06111104999999384
                },
                {
                    "name": "D3",
                    "midi": 50,
                    "time": 90.6665759999992,
                    "velocity": 0.7401574803149606,
                    "duration": 0.3319441124999827
                },
                {
                    "name": "G3",
                    "midi": 55,
                    "time": 90.83324249999919,
                    "velocity": 0.41732283464566927,
                    "duration": 0.06111104999999384
                },
                {
                    "name": "B3",
                    "midi": 59,
                    "time": 90.83324249999919,
                    "velocity": 0.4566929133858268,
                    "duration": 0.06111104999999384
                },
                {
                    "name": "D4",
                    "midi": 62,
                    "time": 90.83324249999919,
                    "velocity": 0.5511811023622047,
                    "duration": 0.06111104999999384
                },
                {
                    "name": "F#3",
                    "midi": 54,
                    "time": 90.99990899999918,
                    "velocity": 0.3779527559055118,
                    "duration": 0.06111104999999384
                },
                {
                    "name": "A3",
                    "midi": 57,
                    "time": 90.99990899999918,
                    "velocity": 0.5275590551181102,
                    "duration": 0.06111104999999384
                },
                {
                    "name": "D4",
                    "midi": 62,
                    "time": 90.99990899999918,
                    "velocity": 0.5511811023622047,
                    "duration": 0.06111104999999384
                },
                {
                    "name": "E3",
                    "midi": 52,
                    "time": 91.16657549999917,
                    "velocity": 0.4330708661417323,
                    "duration": 0.06111104999999384
                },
                {
                    "name": "G3",
                    "midi": 55,
                    "time": 91.16657549999917,
                    "velocity": 0.5118110236220472,
                    "duration": 0.06111104999999384
                },
                {
                    "name": "D4",
                    "midi": 62,
                    "time": 91.16657549999917,
                    "velocity": 0.5669291338582677,
                    "duration": 0.06111104999999384
                },
                {
                    "name": "D5",
                    "midi": 74,
                    "time": 91.16657549999917,
                    "velocity": 0.7401574803149606,
                    "duration": 0.16527761249999173
                },
                {
                    "name": "D3",
                    "midi": 50,
                    "time": 91.33324199999916,
                    "velocity": 0.49606299212598426,
                    "duration": 0.06111104999999384
                },
                {
                    "name": "D4",
                    "midi": 62,
                    "time": 91.33324199999916,
                    "velocity": 0.5826771653543307,
                    "duration": 0.06111104999999384
                },
                {
                    "name": "F#3",
                    "midi": 54,
                    "time": 91.33324199999916,
                    "velocity": 0.4881889763779528,
                    "duration": 0.06111104999999384
                },
                {
                    "name": "A4",
                    "midi": 69,
                    "time": 91.33324199999916,
                    "velocity": 0.7401574803149606,
                    "duration": 0.3319441124999827
                },
                {
                    "name": "C4",
                    "midi": 60,
                    "time": 91.49990849999915,
                    "velocity": 0.5196850393700787,
                    "duration": 0.06111104999999384
                },
                {
                    "name": "D#3",
                    "midi": 51,
                    "time": 91.49990849999915,
                    "velocity": 0.4015748031496063,
                    "duration": 0.06111104999999384
                },
                {
                    "name": "D3",
                    "midi": 50,
                    "time": 91.66657499999914,
                    "velocity": 0.44881889763779526,
                    "duration": 0.06111104999999384
                },
                {
                    "name": "E3",
                    "midi": 52,
                    "time": 91.66657499999914,
                    "velocity": 0.5118110236220472,
                    "duration": 0.06111104999999384
                },
                {
                    "name": "B3",
                    "midi": 59,
                    "time": 91.66657499999914,
                    "velocity": 0.5354330708661418,
                    "duration": 0.06111104999999384
                },
                {
                    "name": "D3",
                    "midi": 50,
                    "time": 91.83324149999913,
                    "velocity": 0.2992125984251969,
                    "duration": 0.06111104999999384
                },
                {
                    "name": "A3",
                    "midi": 57,
                    "time": 91.83324149999913,
                    "velocity": 0.5275590551181102,
                    "duration": 0.06111104999999384
                },
                {
                    "name": "F3",
                    "midi": 53,
                    "time": 91.83324149999913,
                    "velocity": 0.4881889763779528,
                    "duration": 0.06111104999999384
                },
                {
                    "name": "G#3",
                    "midi": 56,
                    "time": 91.99990799999912,
                    "velocity": 0.5748031496062992,
                    "duration": 0.3319441124999969
                },
                {
                    "name": "E3",
                    "midi": 52,
                    "time": 91.99990799999912,
                    "velocity": 0.5826771653543307,
                    "duration": 0.3319441124999969
                },
                {
                    "name": "E4",
                    "midi": 64,
                    "time": 91.99990799999912,
                    "velocity": 0.5984251968503937,
                    "duration": 0.3319441124999969
                },
                {
                    "name": "E5",
                    "midi": 76,
                    "time": 92.33324099999912,
                    "velocity": 0.5196850393700787,
                    "duration": 0.06111104999999384
                },
                {
                    "name": "D#5",
                    "midi": 75,
                    "time": 92.33324099999912,
                    "velocity": 0.44881889763779526,
                    "duration": 0.06111104999999384
                },
                {
                    "name": "B4",
                    "midi": 71,
                    "time": 92.33324099999912,
                    "velocity": 0.5196850393700787,
                    "duration": 0.06111104999999384
                },
                {
                    "name": "A4",
                    "midi": 69,
                    "time": 92.49990749999911,
                    "velocity": 0.5275590551181102,
                    "duration": 0.06111104999999384
                },
                {
                    "name": "E5",
                    "midi": 76,
                    "time": 92.49990749999911,
                    "velocity": 0.5275590551181102,
                    "duration": 0.06111104999999384
                },
                {
                    "name": "C#5",
                    "midi": 73,
                    "time": 92.49990749999911,
                    "velocity": 0.5511811023622047,
                    "duration": 0.06111104999999384
                },
                {
                    "name": "B5",
                    "midi": 83,
                    "time": 92.49990749999911,
                    "velocity": 0.5984251968503937,
                    "duration": 0.05416661249999777
                },
                {
                    "name": "C#6",
                    "midi": 85,
                    "time": 92.55546299999911,
                    "velocity": 0.5748031496062992,
                    "duration": 0.05416661249999777
                },
                {
                    "name": "D#6",
                    "midi": 87,
                    "time": 92.6110184999991,
                    "velocity": 0.6535433070866141,
                    "duration": 0.05416661249999777
                },
                {
                    "name": "E4",
                    "midi": 64,
                    "time": 92.6665739999991,
                    "velocity": 0.5118110236220472,
                    "duration": 0.06111104999999384
                },
                {
                    "name": "E5",
                    "midi": 76,
                    "time": 92.6665739999991,
                    "velocity": 0.5118110236220472,
                    "duration": 0.06111104999999384
                },
                {
                    "name": "G#4",
                    "midi": 68,
                    "time": 92.6665739999991,
                    "velocity": 0.4409448818897638,
                    "duration": 0.06111104999999384
                },
                {
                    "name": "E6",
                    "midi": 88,
                    "time": 92.6665739999991,
                    "velocity": 0.7401574803149606,
                    "duration": 0.10972211249999475
                },
                {
                    "name": "E4",
                    "midi": 64,
                    "time": 92.83324049999909,
                    "velocity": 0.28346456692913385,
                    "duration": 0.06111104999999384
                },
                {
                    "name": "D#5",
                    "midi": 75,
                    "time": 92.83324049999909,
                    "velocity": 0.5275590551181102,
                    "duration": 0.06111104999999384
                },
                {
                    "name": "G#4",
                    "midi": 68,
                    "time": 92.83324049999909,
                    "velocity": 0.36220472440944884,
                    "duration": 0.06111104999999384
                },
                {
                    "name": "E3",
                    "midi": 52,
                    "time": 92.83324049999909,
                    "velocity": 0.7244094488188977,
                    "duration": 0.06111104999999384
                },
                {
                    "name": "F4",
                    "midi": 65,
                    "time": 92.99990699999908,
                    "velocity": 0.3700787401574803,
                    "duration": 0.06111104999999384
                },
                {
                    "name": "G#4",
                    "midi": 68,
                    "time": 92.99990699999908,
                    "velocity": 0.31496062992125984,
                    "duration": 0.06111104999999384
                },
                {
                    "name": "C#5",
                    "midi": 73,
                    "time": 92.99990699999908,
                    "velocity": 0.5354330708661418,
                    "duration": 0.06111104999999384
                },
                {
                    "name": "G#3",
                    "midi": 56,
                    "time": 92.99990699999908,
                    "velocity": 0.7322834645669292,
                    "duration": 0.06111104999999384
                },
                {
                    "name": "F4",
                    "midi": 65,
                    "time": 93.16657349999907,
                    "velocity": 0.4409448818897638,
                    "duration": 0.06111104999999384
                },
                {
                    "name": "G#4",
                    "midi": 68,
                    "time": 93.16657349999907,
                    "velocity": 0.29133858267716534,
                    "duration": 0.06111104999999384
                },
                {
                    "name": "B4",
                    "midi": 71,
                    "time": 93.16657349999907,
                    "velocity": 0.5354330708661418,
                    "duration": 0.06111104999999384
                },
                {
                    "name": "E3",
                    "midi": 52,
                    "time": 93.16657349999907,
                    "velocity": 0.6929133858267716,
                    "duration": 0.06111104999999384
                },
                {
                    "name": "F4",
                    "midi": 65,
                    "time": 93.33323999999907,
                    "velocity": 0.49606299212598426,
                    "duration": 0.06111104999999384
                },
                {
                    "name": "B4",
                    "midi": 71,
                    "time": 93.33323999999907,
                    "velocity": 0.5354330708661418,
                    "duration": 0.06111104999999384
                },
                {
                    "name": "A4",
                    "midi": 69,
                    "time": 93.33323999999907,
                    "velocity": 0.5275590551181102,
                    "duration": 0.06111104999999384
                },
                {
                    "name": "B3",
                    "midi": 59,
                    "time": 93.33323999999907,
                    "velocity": 0.8818897637795275,
                    "duration": 0.06111104999999384
                },
                {
                    "name": "G#4",
                    "midi": 68,
                    "time": 93.49990649999906,
                    "velocity": 0.5511811023622047,
                    "duration": 0.06111104999999384
                },
                {
                    "name": "E4",
                    "midi": 64,
                    "time": 93.49990649999906,
                    "velocity": 0.5196850393700787,
                    "duration": 0.06111104999999384
                },
                {
                    "name": "B4",
                    "midi": 71,
                    "time": 93.49990649999906,
                    "velocity": 0.48031496062992124,
                    "duration": 0.06111104999999384
                },
                {
                    "name": "D#4",
                    "midi": 63,
                    "time": 93.66657299999905,
                    "velocity": 0.4094488188976378,
                    "duration": 0.06111104999999384
                },
                {
                    "name": "F#4",
                    "midi": 66,
                    "time": 93.66657299999905,
                    "velocity": 0.4566929133858268,
                    "duration": 0.06111104999999384
                },
                {
                    "name": "B4",
                    "midi": 71,
                    "time": 93.66657299999905,
                    "velocity": 0.5826771653543307,
                    "duration": 0.06111104999999384
                },
                {
                    "name": "A#4",
                    "midi": 70,
                    "time": 93.66657299999905,
                    "velocity": 0.7007874015748031,
                    "duration": 0.08194436249999626
                },
                {
                    "name": "C#4",
                    "midi": 61,
                    "time": 93.83323949999904,
                    "velocity": 0.3937007874015748,
                    "duration": 0.06111104999999384
                },
                {
                    "name": "E4",
                    "midi": 64,
                    "time": 93.83323949999904,
                    "velocity": 0.36220472440944884,
                    "duration": 0.06111104999999384
                },
                {
                    "name": "B4",
                    "midi": 71,
                    "time": 93.83323949999904,
                    "velocity": 0.5748031496062992,
                    "duration": 0.06111104999999384
                },
                {
                    "name": "B3",
                    "midi": 59,
                    "time": 93.99990599999903,
                    "velocity": 0.29133858267716534,
                    "duration": 0.06111104999999384
                },
                {
                    "name": "B4",
                    "midi": 71,
                    "time": 93.99990599999903,
                    "velocity": 0.5984251968503937,
                    "duration": 0.06111104999999384
                },
                {
                    "name": "D#4",
                    "midi": 63,
                    "time": 93.99990599999903,
                    "velocity": 0.3779527559055118,
                    "duration": 0.06111104999999384
                },
                {
                    "name": "B5",
                    "midi": 83,
                    "time": 93.99990599999903,
                    "velocity": 0.7952755905511811,
                    "duration": 0.16527761249999173
                },
                {
                    "name": "B3",
                    "midi": 59,
                    "time": 94.16657249999902,
                    "velocity": 0.3700787401574803,
                    "duration": 0.06111104999999384
                },
                {
                    "name": "C4",
                    "midi": 60,
                    "time": 94.16657249999902,
                    "velocity": 0.4566929133858268,
                    "duration": 0.06111104999999384
                },
                {
                    "name": "A4",
                    "midi": 69,
                    "time": 94.16657249999902,
                    "velocity": 0.5826771653543307,
                    "duration": 0.06111104999999384
                },
                {
                    "name": "F#4",
                    "midi": 66,
                    "time": 94.16657249999902,
                    "velocity": 0.7244094488188977,
                    "duration": 0.08194436249999626
                },
                {
                    "name": "B3",
                    "midi": 59,
                    "time": 94.33323899999901,
                    "velocity": 0.4566929133858268,
                    "duration": 0.06111104999999384
                },
                {
                    "name": "C#4",
                    "midi": 61,
                    "time": 94.33323899999901,
                    "velocity": 0.4330708661417323,
                    "duration": 0.06111104999999384
                },
                {
                    "name": "G#4",
                    "midi": 68,
                    "time": 94.33323899999901,
                    "velocity": 0.5354330708661418,
                    "duration": 0.06111104999999384
                },
                {
                    "name": "F#3",
                    "midi": 54,
                    "time": 94.33323899999901,
                    "velocity": 0.5984251968503937,
                    "duration": 0.08194436249999626
                },
                {
                    "name": "B3",
                    "midi": 59,
                    "time": 94.499905499999,
                    "velocity": 0.4566929133858268,
                    "duration": 0.06111104999999384
                },
                {
                    "name": "D4",
                    "midi": 62,
                    "time": 94.499905499999,
                    "velocity": 0.3937007874015748,
                    "duration": 0.06111104999999384
                },
                {
                    "name": "F#4",
                    "midi": 66,
                    "time": 94.499905499999,
                    "velocity": 0.5669291338582677,
                    "duration": 0.06111104999999384
                },
                {
                    "name": "B2",
                    "midi": 47,
                    "time": 94.499905499999,
                    "velocity": 0.6535433070866141,
                    "duration": 0.08194436249999626
                },
                {
                    "name": "B3",
                    "midi": 59,
                    "time": 94.666571999999,
                    "velocity": 0.5275590551181102,
                    "duration": 0.06111104999999384
                },
                {
                    "name": "E4",
                    "midi": 64,
                    "time": 94.666571999999,
                    "velocity": 0.5511811023622047,
                    "duration": 0.06111104999999384
                },
                {
                    "name": "D#4",
                    "midi": 63,
                    "time": 94.666571999999,
                    "velocity": 0.3779527559055118,
                    "duration": 0.06111104999999384
                },
                {
                    "name": "E3",
                    "midi": 52,
                    "time": 94.666571999999,
                    "velocity": 0.7244094488188977,
                    "duration": 0.16527761249999173
                },
                {
                    "name": "C#4",
                    "midi": 61,
                    "time": 94.83323849999898,
                    "velocity": 0.4330708661417323,
                    "duration": 0.06111104999999384
                },
                {
                    "name": "A3",
                    "midi": 57,
                    "time": 94.83323849999898,
                    "velocity": 0.4094488188976378,
                    "duration": 0.06111104999999384
                },
                {
                    "name": "E4",
                    "midi": 64,
                    "time": 94.83323849999898,
                    "velocity": 0.5118110236220472,
                    "duration": 0.06111104999999384
                },
                {
                    "name": "G#3",
                    "midi": 56,
                    "time": 94.99990499999898,
                    "velocity": 0.49606299212598426,
                    "duration": 0.06111104999999384
                },
                {
                    "name": "B3",
                    "midi": 59,
                    "time": 94.99990499999898,
                    "velocity": 0.4094488188976378,
                    "duration": 0.06111104999999384
                },
                {
                    "name": "E4",
                    "midi": 64,
                    "time": 94.99990499999898,
                    "velocity": 0.5748031496062992,
                    "duration": 0.06111104999999384
                },
                {
                    "name": "E5",
                    "midi": 76,
                    "time": 94.99990499999898,
                    "velocity": 0.6220472440944882,
                    "duration": 0.16527761249999173
                },
                {
                    "name": "B4",
                    "midi": 71,
                    "time": 94.99990499999898,
                    "velocity": 0.6141732283464567,
                    "duration": 0.16527761249999173
                },
                {
                    "name": "F#3",
                    "midi": 54,
                    "time": 95.16657149999897,
                    "velocity": 0.5118110236220472,
                    "duration": 0.06111104999999384
                },
                {
                    "name": "E4",
                    "midi": 64,
                    "time": 95.16657149999897,
                    "velocity": 0.5275590551181102,
                    "duration": 0.06111104999999384
                },
                {
                    "name": "A3",
                    "midi": 57,
                    "time": 95.16657149999897,
                    "velocity": 0.41732283464566927,
                    "duration": 0.06111104999999384
                },
                {
                    "name": "E5",
                    "midi": 76,
                    "time": 95.24990474999896,
                    "velocity": 0.7007874015748031,
                    "duration": 0.08194436249999626
                },
                {
                    "name": "B4",
                    "midi": 71,
                    "time": 95.24990474999896,
                    "velocity": 0.7007874015748031,
                    "duration": 0.08194436249999626
                },
                {
                    "name": "E4",
                    "midi": 64,
                    "time": 95.33323799999896,
                    "velocity": 0.5748031496062992,
                    "duration": 0.06111104999999384
                },
                {
                    "name": "G#3",
                    "midi": 56,
                    "time": 95.33323799999896,
                    "velocity": 0.3464566929133858,
                    "duration": 0.06111104999999384
                },
                {
                    "name": "E3",
                    "midi": 52,
                    "time": 95.33323799999896,
                    "velocity": 0.3937007874015748,
                    "duration": 0.06111104999999384
                },
                {
                    "name": "B4",
                    "midi": 71,
                    "time": 95.33323799999896,
                    "velocity": 0.6141732283464567,
                    "duration": 0.16527761249999173
                },
                {
                    "name": "E5",
                    "midi": 76,
                    "time": 95.33323799999896,
                    "velocity": 0.6535433070866141,
                    "duration": 0.16527761249999173
                },
                {
                    "name": "E3",
                    "midi": 52,
                    "time": 95.49990449999895,
                    "velocity": 0.3464566929133858,
                    "duration": 0.06111104999999384
                },
                {
                    "name": "G#3",
                    "midi": 56,
                    "time": 95.49990449999895,
                    "velocity": 0.36220472440944884,
                    "duration": 0.06111104999999384
                },
                {
                    "name": "D#4",
                    "midi": 63,
                    "time": 95.49990449999895,
                    "velocity": 0.5511811023622047,
                    "duration": 0.06111104999999384
                },
                {
                    "name": "E2",
                    "midi": 40,
                    "time": 95.49990449999895,
                    "velocity": 0.7007874015748031,
                    "duration": 0.08194436249999626
                },
                {
                    "name": "G3",
                    "midi": 55,
                    "time": 95.66657099999894,
                    "velocity": 0.5118110236220472,
                    "duration": 0.06111104999999384
                },
                {
                    "name": "C#4",
                    "midi": 61,
                    "time": 95.66657099999894,
                    "velocity": 0.5590551181102362,
                    "duration": 0.06111104999999384
                },
                {
                    "name": "A3",
                    "midi": 57,
                    "time": 95.66657099999894,
                    "velocity": 0.4409448818897638,
                    "duration": 0.06111104999999384
                },
                {
                    "name": "G#2",
                    "midi": 44,
                    "time": 95.66657099999894,
                    "velocity": 0.7244094488188977,
                    "duration": 0.08194436249999626
                },
                {
                    "name": "A3",
                    "midi": 57,
                    "time": 95.83323749999893,
                    "velocity": 0.41732283464566927,
                    "duration": 0.06111104999999384
                },
                {
                    "name": "G3",
                    "midi": 55,
                    "time": 95.83323749999893,
                    "velocity": 0.5196850393700787,
                    "duration": 0.06111104999999384
                },
                {
                    "name": "B3",
                    "midi": 59,
                    "time": 95.83323749999893,
                    "velocity": 0.5748031496062992,
                    "duration": 0.06111104999999384
                },
                {
                    "name": "E2",
                    "midi": 40,
                    "time": 95.83323749999893,
                    "velocity": 0.6535433070866141,
                    "duration": 0.08194436249999626
                },
                {
                    "name": "F3",
                    "midi": 53,
                    "time": 95.99990399999892,
                    "velocity": 0.5984251968503937,
                    "duration": 0.06111104999999384
                },
                {
                    "name": "B3",
                    "midi": 59,
                    "time": 95.99990399999892,
                    "velocity": 0.5275590551181102,
                    "duration": 0.06111104999999384
                },
                {
                    "name": "A3",
                    "midi": 57,
                    "time": 95.99990399999892,
                    "velocity": 0.5196850393700787,
                    "duration": 0.06111104999999384
                },
                {
                    "name": "B2",
                    "midi": 47,
                    "time": 95.99990399999892,
                    "velocity": 0.7637795275590551,
                    "duration": 0.08194436249999626
                },
                {
                    "name": "E3",
                    "midi": 52,
                    "time": 96.16657049999891,
                    "velocity": 0.33070866141732286,
                    "duration": 0.06111104999999384
                },
                {
                    "name": "G#3",
                    "midi": 56,
                    "time": 96.16657049999891,
                    "velocity": 0.4409448818897638,
                    "duration": 0.06111104999999384
                },
                {
                    "name": "B3",
                    "midi": 59,
                    "time": 96.16657049999891,
                    "velocity": 0.5669291338582677,
                    "duration": 0.06111104999999384
                },
                {
                    "name": "D#3",
                    "midi": 51,
                    "time": 96.3332369999989,
                    "velocity": 0.3937007874015748,
                    "duration": 0.06111104999999384
                },
                {
                    "name": "B3",
                    "midi": 59,
                    "time": 96.3332369999989,
                    "velocity": 0.5748031496062992,
                    "duration": 0.06111104999999384
                },
                {
                    "name": "F#3",
                    "midi": 54,
                    "time": 96.3332369999989,
                    "velocity": 0.4094488188976378,
                    "duration": 0.06111104999999384
                },
                {
                    "name": "A#3",
                    "midi": 58,
                    "time": 96.3332369999989,
                    "velocity": 0.6535433070866141,
                    "duration": 0.08194436249999626
                },
                {
                    "name": "C#3",
                    "midi": 49,
                    "time": 96.4999034999989,
                    "velocity": 0.47244094488188976,
                    "duration": 0.06111104999999384
                },
                {
                    "name": "E3",
                    "midi": 52,
                    "time": 96.4999034999989,
                    "velocity": 0.5275590551181102,
                    "duration": 0.06111104999999384
                },
                {
                    "name": "B3",
                    "midi": 59,
                    "time": 96.4999034999989,
                    "velocity": 0.5669291338582677,
                    "duration": 0.06111104999999384
                },
                {
                    "name": "B2",
                    "midi": 47,
                    "time": 96.66656999999888,
                    "velocity": 0.4566929133858268,
                    "duration": 0.06111104999999384
                },
                {
                    "name": "D#3",
                    "midi": 51,
                    "time": 96.66656999999888,
                    "velocity": 0.4094488188976378,
                    "duration": 0.06111104999999384
                },
                {
                    "name": "B3",
                    "midi": 59,
                    "time": 96.66656999999888,
                    "velocity": 0.5511811023622047,
                    "duration": 0.06111104999999384
                },
                {
                    "name": "B4",
                    "midi": 71,
                    "time": 96.66656999999888,
                    "velocity": 0.7244094488188977,
                    "duration": 0.08194436249999626
                },
                {
                    "name": "E4",
                    "midi": 64,
                    "time": 96.83323649999888,
                    "velocity": 0.7559055118110236,
                    "duration": 0.06111104999999384
                },
                {
                    "name": "B3",
                    "midi": 59,
                    "time": 96.83323649999888,
                    "velocity": 0.7165354330708661,
                    "duration": 0.06111104999999384
                },
                {
                    "name": "F3",
                    "midi": 53,
                    "time": 96.83323649999888,
                    "velocity": 0.7244094488188977,
                    "duration": 0.06111104999999384
                },
                {
                    "name": "G#3",
                    "midi": 56,
                    "time": 96.83323649999888,
                    "velocity": 0.6299212598425197,
                    "duration": 0.06111104999999384
                },
                {
                    "name": "D2",
                    "midi": 38,
                    "time": 96.83323649999888,
                    "velocity": 0.7244094488188977,
                    "duration": 0.08194436249999626
                },
                {
                    "name": "D3",
                    "midi": 50,
                    "time": 96.83323649999888,
                    "velocity": 0.6220472440944882,
                    "duration": 0.08194436249999626
                },
                {
                    "name": "E4",
                    "midi": 64,
                    "time": 96.99990299999887,
                    "velocity": 0.7322834645669292,
                    "duration": 0.06111104999999384
                },
                {
                    "name": "F3",
                    "midi": 53,
                    "time": 96.99990299999887,
                    "velocity": 0.6535433070866141,
                    "duration": 0.06111104999999384
                },
                {
                    "name": "C4",
                    "midi": 60,
                    "time": 96.99990299999887,
                    "velocity": 0.7322834645669292,
                    "duration": 0.06111104999999384
                },
                {
                    "name": "G#3",
                    "midi": 56,
                    "time": 96.99990299999887,
                    "velocity": 0.6299212598425197,
                    "duration": 0.06111104999999384
                },
                {
                    "name": "C3",
                    "midi": 48,
                    "time": 96.99990299999887,
                    "velocity": 0.7244094488188977,
                    "duration": 0.08194436249999626
                },
                {
                    "name": "C2",
                    "midi": 36,
                    "time": 96.99990299999887,
                    "velocity": 0.6771653543307087,
                    "duration": 0.08194436249999626
                },
                {
                    "name": "D4",
                    "midi": 62,
                    "time": 97.16656949999886,
                    "velocity": 0.7401574803149606,
                    "duration": 0.06111104999999384
                },
                {
                    "name": "F3",
                    "midi": 53,
                    "time": 97.16656949999886,
                    "velocity": 0.6535433070866141,
                    "duration": 0.06111104999999384
                },
                {
                    "name": "E4",
                    "midi": 64,
                    "time": 97.16656949999886,
                    "velocity": 0.7007874015748031,
                    "duration": 0.06111104999999384
                },
                {
                    "name": "G#3",
                    "midi": 56,
                    "time": 97.16656949999886,
                    "velocity": 0.6377952755905512,
                    "duration": 0.06111104999999384
                },
                {
                    "name": "B1",
                    "midi": 35,
                    "time": 97.16656949999886,
                    "velocity": 0.6771653543307087,
                    "duration": 0.08194436249999626
                },
                {
                    "name": "B2",
                    "midi": 47,
                    "time": 97.16656949999886,
                    "velocity": 0.6062992125984252,
                    "duration": 0.08194436249999626
                },
                {
                    "name": "E4",
                    "midi": 64,
                    "time": 97.33323599999885,
                    "velocity": 0.7637795275590551,
                    "duration": 0.3319441124999827
                },
                {
                    "name": "A1",
                    "midi": 33,
                    "time": 97.33323599999885,
                    "velocity": 0.7007874015748031,
                    "duration": 0.3319441124999827
                },
                {
                    "name": "A2",
                    "midi": 45,
                    "time": 97.33323599999885,
                    "velocity": 0.7244094488188977,
                    "duration": 0.3319441124999827
                },
                {
                    "name": "D4",
                    "midi": 62,
                    "time": 97.33323599999885,
                    "velocity": 0.5826771653543307,
                    "duration": 0.08194436249999626
                },
                {
                    "name": "A3",
                    "midi": 57,
                    "time": 97.49990249999884,
                    "velocity": 0.48031496062992124,
                    "duration": 0.08194436249999626
                },
                {
                    "name": "D4",
                    "midi": 62,
                    "time": 97.49990249999884,
                    "velocity": 0.5275590551181102,
                    "duration": 0.08194436249999626
                },
                {
                    "name": "C#4",
                    "midi": 61,
                    "time": 97.66656899999883,
                    "velocity": 0.5118110236220472,
                    "duration": 0.08194436249999626
                },
                {
                    "name": "E4",
                    "midi": 64,
                    "time": 97.66656899999883,
                    "velocity": 0.5354330708661418,
                    "duration": 0.08194436249999626
                },
                {
                    "name": "A4",
                    "midi": 69,
                    "time": 97.83323549999882,
                    "velocity": 0.7401574803149606,
                    "duration": 0.16527761249999173
                },
                {
                    "name": "A3",
                    "midi": 57,
                    "time": 97.83323549999882,
                    "velocity": 0.47244094488188976,
                    "duration": 0.08194436249999626
                },
                {
                    "name": "C#4",
                    "midi": 61,
                    "time": 97.83323549999882,
                    "velocity": 0.5118110236220472,
                    "duration": 0.08194436249999626
                },
                {
                    "name": "F4",
                    "midi": 65,
                    "time": 97.99990199999881,
                    "velocity": 0.7637795275590551,
                    "duration": 0.1236109875000011
                },
                {
                    "name": "C4",
                    "midi": 60,
                    "time": 97.99990199999881,
                    "velocity": 0.44881889763779526,
                    "duration": 0.08194436249999626
                },
                {
                    "name": "D#4",
                    "midi": 63,
                    "time": 97.99990199999881,
                    "velocity": 0.4881889763779528,
                    "duration": 0.08194436249999626
                },
                {
                    "name": "C4",
                    "midi": 60,
                    "time": 98.16656849999882,
                    "velocity": 0.48031496062992124,
                    "duration": 0.08194436249999626
                },
                {
                    "name": "A3",
                    "midi": 57,
                    "time": 98.16656849999882,
                    "velocity": 0.4881889763779528,
                    "duration": 0.08194436249999626
                },
                {
                    "name": "D4",
                    "midi": 62,
                    "time": 98.33323499999881,
                    "velocity": 0.7086614173228346,
                    "duration": 0.1236109875000011
                },
                {
                    "name": "E2",
                    "midi": 40,
                    "time": 98.33323499999881,
                    "velocity": 0.7244094488188977,
                    "duration": 0.3319441124999969
                },
                {
                    "name": "E3",
                    "midi": 52,
                    "time": 98.33323499999881,
                    "velocity": 0.5826771653543307,
                    "duration": 0.3319441124999969
                },
                {
                    "name": "B3",
                    "midi": 59,
                    "time": 98.33323499999881,
                    "velocity": 0.5354330708661418,
                    "duration": 0.08194436249999626
                },
                {
                    "name": "A3",
                    "midi": 57,
                    "time": 98.49990149999881,
                    "velocity": 0.4330708661417323,
                    "duration": 0.08194436249999626
                },
                {
                    "name": "B3",
                    "midi": 59,
                    "time": 98.49990149999881,
                    "velocity": 0.4330708661417323,
                    "duration": 0.08194436249999626
                },
                {
                    "name": "A1",
                    "midi": 33,
                    "time": 98.6665679999988,
                    "velocity": 0.7007874015748031,
                    "duration": 0.3319441124999827
                },
                {
                    "name": "A2",
                    "midi": 45,
                    "time": 98.6665679999988,
                    "velocity": 0.7244094488188977,
                    "duration": 0.3319441124999827
                },
                {
                    "name": "D4",
                    "midi": 62,
                    "time": 98.6665679999988,
                    "velocity": 0.5826771653543307,
                    "duration": 0.08194436249999626
                },
                {
                    "name": "E4",
                    "midi": 64,
                    "time": 98.6665679999988,
                    "velocity": 0.7637795275590551,
                    "duration": 0.3319441124999827
                },
                {
                    "name": "D4",
                    "midi": 62,
                    "time": 98.8332344999988,
                    "velocity": 0.5275590551181102,
                    "duration": 0.08194436249999626
                },
                {
                    "name": "A3",
                    "midi": 57,
                    "time": 98.8332344999988,
                    "velocity": 0.48031496062992124,
                    "duration": 0.08194436249999626
                },
                {
                    "name": "E4",
                    "midi": 64,
                    "time": 98.99990099999879,
                    "velocity": 0.5354330708661418,
                    "duration": 0.08194436249999626
                },
                {
                    "name": "C#4",
                    "midi": 61,
                    "time": 98.99990099999879,
                    "velocity": 0.5118110236220472,
                    "duration": 0.08194436249999626
                },
                {
                    "name": "C#4",
                    "midi": 61,
                    "time": 99.16656749999878,
                    "velocity": 0.5118110236220472,
                    "duration": 0.08194436249999626
                },
                {
                    "name": "A3",
                    "midi": 57,
                    "time": 99.16656749999878,
                    "velocity": 0.47244094488188976,
                    "duration": 0.08194436249999626
                },
                {
                    "name": "A4",
                    "midi": 69,
                    "time": 99.16656749999878,
                    "velocity": 0.7401574803149606,
                    "duration": 0.16527761249999173
                },
                {
                    "name": "D#4",
                    "midi": 63,
                    "time": 99.33323399999877,
                    "velocity": 0.4881889763779528,
                    "duration": 0.08194436249999626
                },
                {
                    "name": "C4",
                    "midi": 60,
                    "time": 99.33323399999877,
                    "velocity": 0.44881889763779526,
                    "duration": 0.08194436249999626
                },
                {
                    "name": "F4",
                    "midi": 65,
                    "time": 99.33323399999877,
                    "velocity": 0.7637795275590551,
                    "duration": 0.1236109875000011
                },
                {
                    "name": "A3",
                    "midi": 57,
                    "time": 99.49990049999877,
                    "velocity": 0.4881889763779528,
                    "duration": 0.08194436249999626
                },
                {
                    "name": "C4",
                    "midi": 60,
                    "time": 99.49990049999877,
                    "velocity": 0.48031496062992124,
                    "duration": 0.08194436249999626
                },
                {
                    "name": "E2",
                    "midi": 40,
                    "time": 99.66656699999876,
                    "velocity": 0.7244094488188977,
                    "duration": 0.3319441124999969
                },
                {
                    "name": "E3",
                    "midi": 52,
                    "time": 99.66656699999876,
                    "velocity": 0.5826771653543307,
                    "duration": 0.3319441124999969
                },
                {
                    "name": "B3",
                    "midi": 59,
                    "time": 99.66656699999876,
                    "velocity": 0.5354330708661418,
                    "duration": 0.08194436249999626
                },
                {
                    "name": "E3",
                    "midi": 52,
                    "time": 99.66656699999876,
                    "velocity": 0.5826771653543307,
                    "duration": 0.3319441124999969
                },
                {
                    "name": "D4",
                    "midi": 62,
                    "time": 99.66656699999876,
                    "velocity": 0.7086614173228346,
                    "duration": 0.1236109875000011
                },
                {
                    "name": "B3",
                    "midi": 59,
                    "time": 99.83323349999877,
                    "velocity": 0.4330708661417323,
                    "duration": 0.08194436249999626
                },
                {
                    "name": "A3",
                    "midi": 57,
                    "time": 99.83323349999877,
                    "velocity": 0.4330708661417323,
                    "duration": 0.08194436249999626
                },
                {
                    "name": "E4",
                    "midi": 64,
                    "time": 99.99989999999876,
                    "velocity": 0.84251968503937,
                    "duration": 0.06111104999999384
                },
                {
                    "name": "C4",
                    "midi": 60,
                    "time": 99.99989999999876,
                    "velocity": 0.6771653543307087,
                    "duration": 0.06111104999999384
                },
                {
                    "name": "E4",
                    "midi": 64,
                    "time": 99.99989999999876,
                    "velocity": 0.6456692913385826,
                    "duration": 0.3319441124999827
                },
                {
                    "name": "E3",
                    "midi": 52,
                    "time": 99.99989999999876,
                    "velocity": 0.5984251968503937,
                    "duration": 0.3319441124999827
                },
                {
                    "name": "A2",
                    "midi": 45,
                    "time": 99.99989999999876,
                    "velocity": 0.6771653543307087,
                    "duration": 0.3319441124999827
                },
                {
                    "name": "A3",
                    "midi": 57,
                    "time": 100.16656649999875,
                    "velocity": 0.5196850393700787,
                    "duration": 0.06111104999999384
                },
                {
                    "name": "F4",
                    "midi": 65,
                    "time": 100.16656649999875,
                    "velocity": 0.6692913385826772,
                    "duration": 0.06111104999999384
                },
                {
                    "name": "F#4",
                    "midi": 66,
                    "time": 100.33323299999874,
                    "velocity": 0.5590551181102362,
                    "duration": 0.06111104999999384
                },
                {
                    "name": "D#4",
                    "midi": 63,
                    "time": 100.33323299999874,
                    "velocity": 0.47244094488188976,
                    "duration": 0.06111104999999384
                },
                {
                    "name": "E5",
                    "midi": 76,
                    "time": 100.49989949999873,
                    "velocity": 0.7716535433070866,
                    "duration": 0.16527761249999173
                },
                {
                    "name": "C4",
                    "midi": 60,
                    "time": 100.49989949999873,
                    "velocity": 0.6377952755905512,
                    "duration": 0.06111104999999384
                },
                {
                    "name": "G4",
                    "midi": 67,
                    "time": 100.49989949999873,
                    "velocity": 0.7165354330708661,
                    "duration": 0.06111104999999384
                },
                {
                    "name": "C5",
                    "midi": 72,
                    "time": 100.66656599999872,
                    "velocity": 0.7401574803149606,
                    "duration": 0.3319441124999827
                },
                {
                    "name": "E5",
                    "midi": 76,
                    "time": 100.66656599999872,
                    "velocity": 0.8188976377952756,
                    "duration": 0.3319441124999827
                },
                {
                    "name": "G#4",
                    "midi": 68,
                    "time": 100.66656599999872,
                    "velocity": 0.6771653543307087,
                    "duration": 0.06111104999999384
                },
                {
                    "name": "E4",
                    "midi": 64,
                    "time": 100.66656599999872,
                    "velocity": 0.6456692913385826,
                    "duration": 0.06111104999999384
                },
                {
                    "name": "C4",
                    "midi": 60,
                    "time": 100.83323249999872,
                    "velocity": 0.6377952755905512,
                    "duration": 0.06111104999999384
                },
                {
                    "name": "G4",
                    "midi": 67,
                    "time": 100.83323249999872,
                    "velocity": 0.7007874015748031,
                    "duration": 0.06111104999999384
                },
                {
                    "name": "D#4",
                    "midi": 63,
                    "time": 100.9998989999987,
                    "velocity": 0.5669291338582677,
                    "duration": 0.06111104999999384
                },
                {
                    "name": "F#4",
                    "midi": 66,
                    "time": 100.9998989999987,
                    "velocity": 0.6456692913385826,
                    "duration": 0.06111104999999384
                },
                {
                    "name": "F4",
                    "midi": 65,
                    "time": 101.1665654999987,
                    "velocity": 0.6850393700787402,
                    "duration": 0.06111104999999384
                },
                {
                    "name": "C4",
                    "midi": 60,
                    "time": 101.1665654999987,
                    "velocity": 0.6456692913385826,
                    "duration": 0.06111104999999384
                },
                {
                    "name": "A2",
                    "midi": 45,
                    "time": 101.1665654999987,
                    "velocity": 0.7007874015748031,
                    "duration": 0.16527761249999173
                },
                {
                    "name": "E4",
                    "midi": 64,
                    "time": 101.33323199999869,
                    "velocity": 0.8582677165354331,
                    "duration": 0.3319441124999827
                },
                {
                    "name": "D#4",
                    "midi": 63,
                    "time": 101.33323199999869,
                    "velocity": 0.5511811023622047,
                    "duration": 0.06111104999999384
                },
                {
                    "name": "E3",
                    "midi": 52,
                    "time": 101.33323199999869,
                    "velocity": 0.5984251968503937,
                    "duration": 0.3319441124999827
                },
                {
                    "name": "E2",
                    "midi": 40,
                    "time": 101.33323199999869,
                    "velocity": 0.6062992125984252,
                    "duration": 0.3319441124999827
                },
                {
                    "name": "F4",
                    "midi": 65,
                    "time": 101.49989849999868,
                    "velocity": 0.6062992125984252,
                    "duration": 0.06111104999999384
                },
                {
                    "name": "C4",
                    "midi": 60,
                    "time": 101.49989849999868,
                    "velocity": 0.6141732283464567,
                    "duration": 0.06111104999999384
                },
                {
                    "name": "F#4",
                    "midi": 66,
                    "time": 101.66656499999867,
                    "velocity": 0.6377952755905512,
                    "duration": 0.06111104999999384
                },
                {
                    "name": "D4",
                    "midi": 62,
                    "time": 101.66656499999867,
                    "velocity": 0.6535433070866141,
                    "duration": 0.06111104999999384
                },
                {
                    "name": "E5",
                    "midi": 76,
                    "time": 101.83323149999866,
                    "velocity": 0.84251968503937,
                    "duration": 0.16527761249999173
                },
                {
                    "name": "B5",
                    "midi": 83,
                    "time": 101.83323149999866,
                    "velocity": 0.84251968503937,
                    "duration": 0.16527761249999173
                },
                {
                    "name": "G4",
                    "midi": 67,
                    "time": 101.83323149999866,
                    "velocity": 0.6299212598425197,
                    "duration": 0.06111104999999384
                },
                {
                    "name": "B3",
                    "midi": 59,
                    "time": 101.83323149999866,
                    "velocity": 0.6141732283464567,
                    "duration": 0.06111104999999384
                },
                {
                    "name": "B4",
                    "midi": 71,
                    "time": 101.99989799999865,
                    "velocity": 0.7007874015748031,
                    "duration": 0.3319441124999827
                },
                {
                    "name": "E5",
                    "midi": 76,
                    "time": 101.99989799999865,
                    "velocity": 0.7952755905511811,
                    "duration": 0.3319441124999827
                },
                {
                    "name": "C#4",
                    "midi": 61,
                    "time": 101.99989799999865,
                    "velocity": 0.6535433070866141,
                    "duration": 0.06111104999999384
                },
                {
                    "name": "G#4",
                    "midi": 68,
                    "time": 101.99989799999865,
                    "velocity": 0.6929133858267716,
                    "duration": 0.06111104999999384
                },
                {
                    "name": "A#3",
                    "midi": 58,
                    "time": 102.16656449999864,
                    "velocity": 0.6535433070866141,
                    "duration": 0.06111104999999384
                },
                {
                    "name": "G4",
                    "midi": 67,
                    "time": 102.16656449999864,
                    "velocity": 0.7007874015748031,
                    "duration": 0.06111104999999384
                },
                {
                    "name": "D4",
                    "midi": 62,
                    "time": 102.33323099999863,
                    "velocity": 0.6377952755905512,
                    "duration": 0.06111104999999384
                },
                {
                    "name": "F#4",
                    "midi": 66,
                    "time": 102.33323099999863,
                    "velocity": 0.6929133858267716,
                    "duration": 0.06111104999999384
                },
                {
                    "name": "F4",
                    "midi": 65,
                    "time": 102.49989749999862,
                    "velocity": 0.6929133858267716,
                    "duration": 0.06111104999999384
                },
                {
                    "name": "B3",
                    "midi": 59,
                    "time": 102.49989749999862,
                    "velocity": 0.6692913385826772,
                    "duration": 0.06111104999999384
                },
                {
                    "name": "D4",
                    "midi": 62,
                    "time": 102.66656399999862,
                    "velocity": 0.6535433070866141,
                    "duration": 0.06111104999999384
                },
                {
                    "name": "E4",
                    "midi": 64,
                    "time": 102.66656399999862,
                    "velocity": 0.7007874015748031,
                    "duration": 0.3319441124999827
                },
                {
                    "name": "E2",
                    "midi": 40,
                    "time": 102.66656399999862,
                    "velocity": 0.6692913385826772,
                    "duration": 0.3319441124999827
                },
                {
                    "name": "A1",
                    "midi": 33,
                    "time": 102.66656399999862,
                    "velocity": 0.7086614173228346,
                    "duration": 0.3319441124999827
                },
                {
                    "name": "A3",
                    "midi": 57,
                    "time": 102.8332304999986,
                    "velocity": 0.6062992125984252,
                    "duration": 0.06111104999999384
                },
                {
                    "name": "C#4",
                    "midi": 61,
                    "time": 102.9998969999986,
                    "velocity": 0.5984251968503937,
                    "duration": 0.06111104999999384
                },
                {
                    "name": "A3",
                    "midi": 57,
                    "time": 103.16656349999859,
                    "velocity": 0.6062992125984252,
                    "duration": 0.06111104999999384
                },
                {
                    "name": "A4",
                    "midi": 69,
                    "time": 103.16656349999859,
                    "velocity": 0.6850393700787402,
                    "duration": 0.16527761249999173
                },
                {
                    "name": "C4",
                    "midi": 60,
                    "time": 103.33322999999858,
                    "velocity": 0.5748031496062992,
                    "duration": 0.06111104999999384
                },
                {
                    "name": "D#4",
                    "midi": 63,
                    "time": 103.33322999999858,
                    "velocity": 0.5669291338582677,
                    "duration": 0.06111104999999384
                },
                {
                    "name": "F4",
                    "midi": 65,
                    "time": 103.33322999999858,
                    "velocity": 0.6771653543307087,
                    "duration": 0.3319441124999827
                },
                {
                    "name": "A3",
                    "midi": 57,
                    "time": 103.49989649999857,
                    "velocity": 0.6377952755905512,
                    "duration": 0.06111104999999384
                },
                {
                    "name": "B3",
                    "midi": 59,
                    "time": 103.66656299999856,
                    "velocity": 0.5984251968503937,
                    "duration": 0.06111104999999384
                },
                {
                    "name": "D4",
                    "midi": 62,
                    "time": 103.66656299999856,
                    "velocity": 0.7559055118110236,
                    "duration": 0.3319441124999827
                },
                {
                    "name": "E1",
                    "midi": 28,
                    "time": 103.66656299999856,
                    "velocity": 0.7559055118110236,
                    "duration": 0.3319441124999827
                },
                {
                    "name": "E2",
                    "midi": 40,
                    "time": 103.66656299999856,
                    "velocity": 0.7480314960629921,
                    "duration": 0.3319441124999827
                },
                {
                    "name": "A3",
                    "midi": 57,
                    "time": 103.83322949999855,
                    "velocity": 0.5748031496062992,
                    "duration": 0.06111104999999384
                },
                {
                    "name": "D4",
                    "midi": 62,
                    "time": 103.99989599999854,
                    "velocity": 0.7007874015748031,
                    "duration": 0.06111104999999384
                },
                {
                    "name": "E4",
                    "midi": 64,
                    "time": 103.99989599999854,
                    "velocity": 0.7244094488188977,
                    "duration": 0.3319441124999827
                },
                {
                    "name": "A1",
                    "midi": 33,
                    "time": 103.99989599999854,
                    "velocity": 0.6929133858267716,
                    "duration": 0.3319441124999827
                },
                {
                    "name": "E2",
                    "midi": 40,
                    "time": 103.99989599999854,
                    "velocity": 0.6929133858267716,
                    "duration": 0.3319441124999827
                },
                {
                    "name": "A3",
                    "midi": 57,
                    "time": 104.16656249999853,
                    "velocity": 0.6141732283464567,
                    "duration": 0.06111104999999384
                },
                {
                    "name": "C#4",
                    "midi": 61,
                    "time": 104.33322899999852,
                    "velocity": 0.4094488188976378,
                    "duration": 0.06111104999999384
                },
                {
                    "name": "A3",
                    "midi": 57,
                    "time": 104.49989549999852,
                    "velocity": 0.6299212598425197,
                    "duration": 0.06111104999999384
                },
                {
                    "name": "A4",
                    "midi": 69,
                    "time": 104.49989549999852,
                    "velocity": 0.7244094488188977,
                    "duration": 0.16527761249999173
                },
                {
                    "name": "C4",
                    "midi": 60,
                    "time": 104.6665619999985,
                    "velocity": 0.5984251968503937,
                    "duration": 0.06111104999999384
                },
                {
                    "name": "D#4",
                    "midi": 63,
                    "time": 104.6665619999985,
                    "velocity": 0.5984251968503937,
                    "duration": 0.06111104999999384
                },
                {
                    "name": "F4",
                    "midi": 65,
                    "time": 104.6665619999985,
                    "velocity": 0.7559055118110236,
                    "duration": 0.3319441124999827
                },
                {
                    "name": "A3",
                    "midi": 57,
                    "time": 104.8332284999985,
                    "velocity": 0.5748031496062992,
                    "duration": 0.06111104999999384
                },
                {
                    "name": "B3",
                    "midi": 59,
                    "time": 104.99989499999849,
                    "velocity": 0.6299212598425197,
                    "duration": 0.06111104999999384
                },
                {
                    "name": "D4",
                    "midi": 62,
                    "time": 104.99989499999849,
                    "velocity": 0.7165354330708661,
                    "duration": 0.3319441124999827
                },
                {
                    "name": "E2",
                    "midi": 40,
                    "time": 104.99989499999849,
                    "velocity": 0.7637795275590551,
                    "duration": 0.3319441124999827
                },
                {
                    "name": "E1",
                    "midi": 28,
                    "time": 104.99989499999849,
                    "velocity": 0.7637795275590551,
                    "duration": 0.3319441124999827
                },
                {
                    "name": "A3",
                    "midi": 57,
                    "time": 105.16656149999848,
                    "velocity": 0.5275590551181102,
                    "duration": 0.06111104999999384
                },
                {
                    "name": "A1",
                    "midi": 33,
                    "time": 105.33322799999847,
                    "velocity": 0.5748031496062992,
                    "duration": 0.3319441124999827
                },
                {
                    "name": "E2",
                    "midi": 40,
                    "time": 105.33322799999847,
                    "velocity": 0.5748031496062992,
                    "duration": 0.3319441124999827
                },
                {
                    "name": "E4",
                    "midi": 64,
                    "time": 105.33322799999847,
                    "velocity": 0.7401574803149606,
                    "duration": 0.06111104999999384
                },
                {
                    "name": "C4",
                    "midi": 60,
                    "time": 105.33322799999847,
                    "velocity": 0.5748031496062992,
                    "duration": 0.06111104999999384
                },
                {
                    "name": "A3",
                    "midi": 57,
                    "time": 105.49989449999846,
                    "velocity": 0.5590551181102362,
                    "duration": 0.16527761249999173
                },
                {
                    "name": "F4",
                    "midi": 65,
                    "time": 105.49989449999846,
                    "velocity": 0.5354330708661418,
                    "duration": 0.06111104999999384
                },
                {
                    "name": "D4",
                    "midi": 62,
                    "time": 105.66656099999845,
                    "velocity": 0.5354330708661418,
                    "duration": 0.06111104999999384
                },
                {
                    "name": "F#4",
                    "midi": 66,
                    "time": 105.66656099999845,
                    "velocity": 0.49606299212598426,
                    "duration": 0.06111104999999384
                },
                {
                    "name": "G4",
                    "midi": 67,
                    "time": 105.83322749999844,
                    "velocity": 0.5354330708661418,
                    "duration": 0.06111104999999384
                },
                {
                    "name": "B3",
                    "midi": 59,
                    "time": 105.83322749999844,
                    "velocity": 0.4881889763779528,
                    "duration": 0.06111104999999384
                },
                {
                    "name": "E4",
                    "midi": 64,
                    "time": 105.99989399999843,
                    "velocity": 0.4881889763779528,
                    "duration": 0.06111104999999384
                },
                {
                    "name": "G#4",
                    "midi": 68,
                    "time": 105.99989399999843,
                    "velocity": 0.5196850393700787,
                    "duration": 0.06111104999999384
                },
                {
                    "name": "F2",
                    "midi": 41,
                    "time": 105.99989399999843,
                    "velocity": 0.6062992125984252,
                    "duration": 0.6652771124999646
                },
                {
                    "name": "F3",
                    "midi": 53,
                    "time": 105.99989399999843,
                    "velocity": 0.6062992125984252,
                    "duration": 0.6652771124999646
                },
                {
                    "name": "A4",
                    "midi": 69,
                    "time": 106.16656049999843,
                    "velocity": 0.5826771653543307,
                    "duration": 0.06111104999999384
                },
                {
                    "name": "C4",
                    "midi": 60,
                    "time": 106.16656049999843,
                    "velocity": 0.5118110236220472,
                    "duration": 0.06111104999999384
                },
                {
                    "name": "F4",
                    "midi": 65,
                    "time": 106.33322699999842,
                    "velocity": 0.6614173228346457,
                    "duration": 0.06111104999999384
                },
                {
                    "name": "A#4",
                    "midi": 70,
                    "time": 106.33322699999842,
                    "velocity": 0.6456692913385826,
                    "duration": 0.06111104999999384
                },
                {
                    "name": "B4",
                    "midi": 71,
                    "time": 106.49989349999841,
                    "velocity": 0.6220472440944882,
                    "duration": 0.06111104999999384
                },
                {
                    "name": "D4",
                    "midi": 62,
                    "time": 106.49989349999841,
                    "velocity": 0.6220472440944882,
                    "duration": 0.06111104999999384
                },
                {
                    "name": "C5",
                    "midi": 72,
                    "time": 106.6665599999984,
                    "velocity": 0.7322834645669292,
                    "duration": 0.06111104999999384
                },
                {
                    "name": "G#4",
                    "midi": 68,
                    "time": 106.6665599999984,
                    "velocity": 0.6771653543307087,
                    "duration": 0.06111104999999384
                },
                {
                    "name": "D3",
                    "midi": 50,
                    "time": 106.6665599999984,
                    "velocity": 0.6850393700787402,
                    "duration": 0.6652771124999646
                },
                {
                    "name": "D2",
                    "midi": 38,
                    "time": 106.6665599999984,
                    "velocity": 0.7559055118110236,
                    "duration": 0.6652771124999646
                },
                {
                    "name": "E4",
                    "midi": 64,
                    "time": 106.83322649999839,
                    "velocity": 0.49606299212598426,
                    "duration": 0.06111104999999384
                },
                {
                    "name": "C#5",
                    "midi": 73,
                    "time": 106.83322649999839,
                    "velocity": 0.6929133858267716,
                    "duration": 0.06111104999999384
                },
                {
                    "name": "D5",
                    "midi": 74,
                    "time": 106.99989299999838,
                    "velocity": 0.7322834645669292,
                    "duration": 0.06111104999999384
                },
                {
                    "name": "A#4",
                    "midi": 70,
                    "time": 106.99989299999838,
                    "velocity": 0.6692913385826772,
                    "duration": 0.06111104999999384
                },
                {
                    "name": "F4",
                    "midi": 65,
                    "time": 107.16655949999837,
                    "velocity": 0.7322834645669292,
                    "duration": 0.06111104999999384
                },
                {
                    "name": "D#5",
                    "midi": 75,
                    "time": 107.16655949999837,
                    "velocity": 0.7795275590551181,
                    "duration": 0.06111104999999384
                },
                {
                    "name": "C5",
                    "midi": 72,
                    "time": 107.33322599999836,
                    "velocity": 0.7637795275590551,
                    "duration": 0.06111104999999384
                },
                {
                    "name": "E5",
                    "midi": 76,
                    "time": 107.33322599999836,
                    "velocity": 0.84251968503937,
                    "duration": 0.06111104999999384
                },
                {
                    "name": "A#1",
                    "midi": 34,
                    "time": 107.33322599999836,
                    "velocity": 0.7637795275590551,
                    "duration": 0.3319441124999827
                },
                {
                    "name": "A#2",
                    "midi": 46,
                    "time": 107.33322599999836,
                    "velocity": 0.7559055118110236,
                    "duration": 0.3319441124999827
                },
                {
                    "name": "F5",
                    "midi": 77,
                    "time": 107.49989249999835,
                    "velocity": 0.8267716535433071,
                    "duration": 0.06111104999999384
                },
                {
                    "name": "G4",
                    "midi": 67,
                    "time": 107.49989249999835,
                    "velocity": 0.7952755905511811,
                    "duration": 0.06111104999999384
                },
                {
                    "name": "F5",
                    "midi": 77,
                    "time": 107.66655899999834,
                    "velocity": 0.952755905511811,
                    "duration": 0.06111104999999384
                },
                {
                    "name": "C#5",
                    "midi": 73,
                    "time": 107.66655899999834,
                    "velocity": 0.84251968503937,
                    "duration": 0.06111104999999384
                },
                {
                    "name": "E2",
                    "midi": 40,
                    "time": 107.66655899999834,
                    "velocity": 0.7952755905511811,
                    "duration": 0.3319441124999827
                },
                {
                    "name": "E3",
                    "midi": 52,
                    "time": 107.66655899999834,
                    "velocity": 0.7716535433070866,
                    "duration": 0.3319441124999827
                },
                {
                    "name": "E5",
                    "midi": 76,
                    "time": 107.83322549999833,
                    "velocity": 0.7874015748031497,
                    "duration": 0.06111104999999384
                },
                {
                    "name": "G#4",
                    "midi": 68,
                    "time": 107.83322549999833,
                    "velocity": 0.7480314960629921,
                    "duration": 0.06111104999999384
                },
                {
                    "name": "C5",
                    "midi": 72,
                    "time": 107.99989199999833,
                    "velocity": 0.7637795275590551,
                    "duration": 0.06111104999999384
                },
                {
                    "name": "A5",
                    "midi": 81,
                    "time": 107.99989199999833,
                    "velocity": 0.84251968503937,
                    "duration": 0.06111104999999384
                },
                {
                    "name": "E5",
                    "midi": 76,
                    "time": 107.99989199999833,
                    "velocity": 0.7716535433070866,
                    "duration": 0.06111104999999384
                },
                {
                    "name": "A1",
                    "midi": 33,
                    "time": 107.99989199999833,
                    "velocity": 0.9133858267716536,
                    "duration": 0.3319441124999827
                },
                {
                    "name": "A2",
                    "midi": 45,
                    "time": 107.99989199999833,
                    "velocity": 0.8031496062992126,
                    "duration": 0.3319441124999827
                },
                {
                    "name": "A#4",
                    "midi": 70,
                    "time": 108.16655849999832,
                    "velocity": 0.7165354330708661,
                    "duration": 0.06111104999999384
                },
                {
                    "name": "A5",
                    "midi": 81,
                    "time": 108.16655849999832,
                    "velocity": 0.7874015748031497,
                    "duration": 0.06111104999999384
                },
                {
                    "name": "C5",
                    "midi": 72,
                    "time": 108.16655849999832,
                    "velocity": 0.7401574803149606,
                    "duration": 0.06111104999999384
                },
                {
                    "name": "A5",
                    "midi": 81,
                    "time": 108.33322499999831,
                    "velocity": 0.8110236220472441,
                    "duration": 0.06111104999999384
                },
                {
                    "name": "B4",
                    "midi": 71,
                    "time": 108.33322499999831,
                    "velocity": 0.7244094488188977,
                    "duration": 0.06111104999999384
                },
                {
                    "name": "C5",
                    "midi": 72,
                    "time": 108.33322499999831,
                    "velocity": 0.7007874015748031,
                    "duration": 0.06111104999999384
                },
                {
                    "name": "C5",
                    "midi": 72,
                    "time": 108.4998914999983,
                    "velocity": 0.7716535433070866,
                    "duration": 0.06111104999999384
                },
                {
                    "name": "A5",
                    "midi": 81,
                    "time": 108.4998914999983,
                    "velocity": 0.7952755905511811,
                    "duration": 0.06111104999999384
                },
                {
                    "name": "E4",
                    "midi": 64,
                    "time": 108.4998914999983,
                    "velocity": 0.8661417322834646,
                    "duration": 0.05416661249999777
                },
                {
                    "name": "F#4",
                    "midi": 66,
                    "time": 108.5554469999983,
                    "velocity": 0.7716535433070866,
                    "duration": 0.05416661249999777
                },
                {
                    "name": "G#4",
                    "midi": 68,
                    "time": 108.61100249999829,
                    "velocity": 0.84251968503937,
                    "duration": 0.05416661249999777
                },
                {
                    "name": "A5",
                    "midi": 81,
                    "time": 108.66655799999829,
                    "velocity": 0.7716535433070866,
                    "duration": 0.06111104999999384
                },
                {
                    "name": "C5",
                    "midi": 72,
                    "time": 108.66655799999829,
                    "velocity": 0.7637795275590551,
                    "duration": 0.06111104999999384
                },
                {
                    "name": "C#5",
                    "midi": 73,
                    "time": 108.66655799999829,
                    "velocity": 0.6614173228346457,
                    "duration": 0.06111104999999384
                },
                {
                    "name": "A4",
                    "midi": 69,
                    "time": 108.66655799999829,
                    "velocity": 0.952755905511811,
                    "duration": 0.16527761249999173
                },
                {
                    "name": "C5",
                    "midi": 72,
                    "time": 108.83322449999828,
                    "velocity": 0.7559055118110236,
                    "duration": 0.06111104999999384
                },
                {
                    "name": "A5",
                    "midi": 81,
                    "time": 108.83322449999828,
                    "velocity": 0.7716535433070866,
                    "duration": 0.06111104999999384
                },
                {
                    "name": "D5",
                    "midi": 74,
                    "time": 108.83322449999828,
                    "velocity": 0.7874015748031497,
                    "duration": 0.06111104999999384
                },
                {
                    "name": "C5",
                    "midi": 72,
                    "time": 108.99989099999827,
                    "velocity": 0.7559055118110236,
                    "duration": 0.06111104999999384
                },
                {
                    "name": "A5",
                    "midi": 81,
                    "time": 108.99989099999827,
                    "velocity": 0.7716535433070866,
                    "duration": 0.06111104999999384
                },
                {
                    "name": "D#5",
                    "midi": 75,
                    "time": 108.99989099999827,
                    "velocity": 0.7480314960629921,
                    "duration": 0.06111104999999384
                },
                {
                    "name": "A5",
                    "midi": 81,
                    "time": 109.16655749999826,
                    "velocity": 0.8031496062992126,
                    "duration": 0.06111104999999384
                },
                {
                    "name": "C5",
                    "midi": 72,
                    "time": 109.16655749999826,
                    "velocity": 0.7401574803149606,
                    "duration": 0.06111104999999384
                },
                {
                    "name": "E5",
                    "midi": 76,
                    "time": 109.16655749999826,
                    "velocity": 0.7086614173228346,
                    "duration": 0.06111104999999384
                },
                {
                    "name": "A3",
                    "midi": 57,
                    "time": 109.16655749999826,
                    "velocity": 0.8267716535433071,
                    "duration": 0.16527761249999173
                },
                {
                    "name": "A2",
                    "midi": 45,
                    "time": 109.16655749999826,
                    "velocity": 0.8031496062992126,
                    "duration": 0.16527761249999173
                },
                {
                    "name": "F5",
                    "midi": 77,
                    "time": 109.33322399999825,
                    "velocity": 0.7637795275590551,
                    "duration": 0.06111104999999384
                },
                {
                    "name": "A5",
                    "midi": 81,
                    "time": 109.33322399999825,
                    "velocity": 0.7874015748031497,
                    "duration": 0.06111104999999384
                },
                {
                    "name": "C5",
                    "midi": 72,
                    "time": 109.33322399999825,
                    "velocity": 0.7637795275590551,
                    "duration": 0.06111104999999384
                },
                {
                    "name": "A3",
                    "midi": 57,
                    "time": 109.33322399999825,
                    "velocity": 0.7244094488188977,
                    "duration": 0.3319441124999827
                },
                {
                    "name": "A2",
                    "midi": 45,
                    "time": 109.33322399999825,
                    "velocity": 0.84251968503937,
                    "duration": 0.3319441124999827
                },
                {
                    "name": "F#5",
                    "midi": 78,
                    "time": 109.49989049999824,
                    "velocity": 0.7716535433070866,
                    "duration": 0.06111104999999384
                },
                {
                    "name": "A5",
                    "midi": 81,
                    "time": 109.49989049999824,
                    "velocity": 0.8031496062992126,
                    "duration": 0.06111104999999384
                },
                {
                    "name": "C5",
                    "midi": 72,
                    "time": 109.49989049999824,
                    "velocity": 0.7086614173228346,
                    "duration": 0.06111104999999384
                },
                {
                    "name": "G5",
                    "midi": 79,
                    "time": 109.66655699999824,
                    "velocity": 0.7716535433070866,
                    "duration": 0.06111104999999384
                },
                {
                    "name": "A5",
                    "midi": 81,
                    "time": 109.66655699999824,
                    "velocity": 0.7874015748031497,
                    "duration": 0.06111104999999384
                },
                {
                    "name": "C5",
                    "midi": 72,
                    "time": 109.66655699999824,
                    "velocity": 0.7559055118110236,
                    "duration": 0.06111104999999384
                },
                {
                    "name": "G#5",
                    "midi": 80,
                    "time": 109.83322349999823,
                    "velocity": 0.8031496062992126,
                    "duration": 0.06111104999999384
                },
                {
                    "name": "A5",
                    "midi": 81,
                    "time": 109.83322349999823,
                    "velocity": 0.8661417322834646,
                    "duration": 0.06111104999999384
                },
                {
                    "name": "C5",
                    "midi": 72,
                    "time": 109.83322349999823,
                    "velocity": 0.7559055118110236,
                    "duration": 0.06111104999999384
                },
                {
                    "name": "E2",
                    "midi": 40,
                    "time": 109.83322349999823,
                    "velocity": 0.8267716535433071,
                    "duration": 0.16527761249999173
                },
                {
                    "name": "A1",
                    "midi": 33,
                    "time": 109.99988999999822,
                    "velocity": 0.905511811023622,
                    "duration": 0.16527761250000594
                },
                {
                    "name": "A2",
                    "midi": 45,
                    "time": 109.99988999999822,
                    "velocity": 0.8503937007874016,
                    "duration": 0.16527761250000594
                },
                {
                    "name": "A5",
                    "midi": 81,
                    "time": 109.99988999999822,
                    "velocity": 0.937007874015748,
                    "duration": 0.1236109875000011
                },
                {
                    "name": "C5",
                    "midi": 72,
                    "time": 109.99988999999822,
                    "velocity": 0.8818897637795275,
                    "duration": 0.1236109875000011
                }
            ],
            "controlChanges": {
                "5": [
                    {
                        "number": 5,
                        "time": 0.024305531249999995,
                        "value": 0
                    }
                ],
                "6": [
                    {
                        "number": 6,
                        "time": 0.6736104375000002,
                        "value": 0.015748031496062992
                    }
                ],
                "7": [
                    {
                        "number": 7,
                        "time": 0.006944437499999999,
                        "value": 1
                    }
                ],
                "10": [
                    {
                        "number": 10,
                        "time": 0,
                        "value": 0.5039370078740157
                    },
                    {
                        "number": 10,
                        "time": 0.01041665625,
                        "value": 0.5039370078740157
                    }
                ],
                "11": [
                    {
                        "number": 11,
                        "time": 0.027777749999999993,
                        "value": 1
                    }
                ],
                "64": [
                    {
                        "number": 64,
                        "time": 72.03881684999992,
                        "value": 1
                    },
                    {
                        "number": 64,
                        "time": 72.98326034999992,
                        "value": 0
                    },
                    {
                        "number": 64,
                        "time": 73.06451026874993,
                        "value": 1
                    },
                    {
                        "number": 64,
                        "time": 73.29784336874994,
                        "value": 0
                    },
                    {
                        "number": 64,
                        "time": 73.37214884999995,
                        "value": 1
                    },
                    {
                        "number": 64,
                        "time": 74.31659234999995,
                        "value": 0
                    },
                    {
                        "number": 64,
                        "time": 74.39784226874995,
                        "value": 1
                    },
                    {
                        "number": 64,
                        "time": 74.63117536874996,
                        "value": 0
                    },
                    {
                        "number": 64,
                        "time": 74.70548084999997,
                        "value": 1
                    },
                    {
                        "number": 64,
                        "time": 75.64992434999998,
                        "value": 0
                    },
                    {
                        "number": 64,
                        "time": 75.73117426874998,
                        "value": 1
                    },
                    {
                        "number": 64,
                        "time": 75.96450736874999,
                        "value": 0
                    }
                ],
                "91": [
                    {
                        "number": 91,
                        "time": 0.013888874999999998,
                        "value": 0.5905511811023622
                    }
                ],
                "93": [
                    {
                        "number": 93,
                        "time": 0.017361093749999997,
                        "value": 0
                    }
                ],
                "94": [
                    {
                        "number": 94,
                        "time": 0.020833312499999996,
                        "value": 0
                    }
                ],
                "100": [
                    {
                        "number": 100,
                        "time": 0.6701382187500001,
                        "value": 0
                    },
                    {
                        "number": 100,
                        "time": 0.6805548750000002,
                        "value": 1
                    }
                ],
                "101": [
                    {
                        "number": 101,
                        "time": 0.6666660000000001,
                        "value": 0
                    },
                    {
                        "number": 101,
                        "time": 0.6770826562500002,
                        "value": 1
                    }
                ]
            },
            "id": 1,
            "name": "Grand piano",
            "instrumentNumber": 0,
            "instrument": "acoustic grand piano",
            "instrumentFamily": "piano",
            "channelNumber": 0,
            "isPercussion": false
        },
        {
            "startTime": 0,
            "duration": 0,
            "length": 0,
            "notes": [],
            "controlChanges": {},
            "id": 2,
            "name": "Piano sonata no.2 ,Op.14"
        },
        {
            "startTime": 0,
            "duration": 0,
            "length": 0,
            "notes": [],
            "controlChanges": {},
            "id": 3,
            "name": "by Serge Prokofiev(1912)"
        },
        {
            "startTime": 0,
            "duration": 0,
            "length": 0,
            "notes": [],
            "controlChanges": {},
            "id": 4,
            "name": "2. Scherzo(Allegro marcato)"
        },
        {
            "startTime": 0,
            "duration": 0,
            "length": 0,
            "notes": [],
            "controlChanges": {},
            "id": 5,
            "name": "sequenced by R.Ungar"
        },
        {
            "startTime": 0,
            "duration": 0,
            "length": 0,
            "notes": [],
            "controlChanges": {},
            "id": 6,
            "name": "2002"
        },
        {
            "startTime": 0,
            "duration": 0,
            "length": 0,
            "notes": [],
            "controlChanges": {},
            "id": 7
        }
    ]
}