{
    "header": {
        "PPQ": 480,
        "bpm": 120,
        "timeSignature": [
            2,
            4
        ],
        "name": "nameless"
    },
    "startTime": 0,
    "duration": 368.99791666667073,
    "tracks": [
        {
            "startTime": 0,
            "duration": 0,
            "length": 0,
            "notes": [],
            "controlChanges": {},
            "id": 0,
            "name": "nameless"
        },
        {
            "startTime": 2.875,
            "duration": 368.99791666667073,
            "length": 3345,
            "notes": [
                {
                    "name": "A4",
                    "midi": 69,
                    "time": 2.875,
                    "velocity": 0.6535433070866141,
                    "duration": 0.12291666666666679
                },
                {
                    "name": "D3",
                    "midi": 50,
                    "time": 3,
                    "velocity": 0.5118110236220472,
                    "duration": 0.1645833333333333
                },
                {
                    "name": "A3",
                    "midi": 57,
                    "time": 3,
                    "velocity": 0.6377952755905512,
                    "duration": 0.49791666666666634
                },
                {
                    "name": "F3",
                    "midi": 53,
                    "time": 3.1666666666666665,
                    "velocity": 0.5590551181102362,
                    "duration": 0.1645833333333333
                },
                {
                    "name": "D4",
                    "midi": 62,
                    "time": 3.25,
                    "velocity": 0.7401574803149606,
                    "duration": 0.24791666666666634
                },
                {
                    "name": "A3",
                    "midi": 57,
                    "time": 3.333333333333333,
                    "velocity": 0.47244094488188976,
                    "duration": 0.1645833333333333
                },
                {
                    "name": "F3",
                    "midi": 53,
                    "time": 3.4999999999999996,
                    "velocity": 0.49606299212598426,
                    "duration": 0.1645833333333333
                },
                {
                    "name": "F4",
                    "midi": 65,
                    "time": 3.4999999999999996,
                    "velocity": 0.7401574803149606,
                    "duration": 0.7479166666666655
                },
                {
                    "name": "A3",
                    "midi": 57,
                    "time": 3.666666666666666,
                    "velocity": 0.5275590551181102,
                    "duration": 0.1645833333333333
                },
                {
                    "name": "F3",
                    "midi": 53,
                    "time": 3.8333333333333326,
                    "velocity": 0.5669291338582677,
                    "duration": 0.1645833333333333
                },
                {
                    "name": "C3",
                    "midi": 48,
                    "time": 3.999999999999999,
                    "velocity": 0.5275590551181102,
                    "duration": 0.16458333333333286
                },
                {
                    "name": "E3",
                    "midi": 52,
                    "time": 4.166666666666665,
                    "velocity": 0.5590551181102362,
                    "duration": 0.16458333333333286
                },
                {
                    "name": "E4",
                    "midi": 64,
                    "time": 4.249999999999998,
                    "velocity": 0.7165354330708661,
                    "duration": 0.24791666666666679
                },
                {
                    "name": "A3",
                    "midi": 57,
                    "time": 4.333333333333331,
                    "velocity": 0.47244094488188976,
                    "duration": 0.16458333333333375
                },
                {
                    "name": "E3",
                    "midi": 52,
                    "time": 4.499999999999998,
                    "velocity": 0.5275590551181102,
                    "duration": 0.16458333333333375
                },
                {
                    "name": "G4",
                    "midi": 67,
                    "time": 4.499999999999998,
                    "velocity": 0.7559055118110236,
                    "duration": 0.7479166666666659
                },
                {
                    "name": "A3",
                    "midi": 57,
                    "time": 4.666666666666665,
                    "velocity": 0.5196850393700787,
                    "duration": 0.16458333333333286
                },
                {
                    "name": "F4",
                    "midi": 65,
                    "time": 4.749999999999998,
                    "velocity": 0.7401574803149606,
                    "duration": 0.24791666666666679
                },
                {
                    "name": "E3",
                    "midi": 52,
                    "time": 4.833333333333331,
                    "velocity": 0.5590551181102362,
                    "duration": 0.16458333333333375
                },
                {
                    "name": "B2",
                    "midi": 47,
                    "time": 4.999999999999998,
                    "velocity": 0.6299212598425197,
                    "duration": 0.16458333333333286
                },
                {
                    "name": "E4",
                    "midi": 64,
                    "time": 4.999999999999998,
                    "velocity": 0.7874015748031497,
                    "duration": 0.2479166666666659
                },
                {
                    "name": "F3",
                    "midi": 53,
                    "time": 5.166666666666664,
                    "velocity": 0.44881889763779526,
                    "duration": 0.16458333333333286
                },
                {
                    "name": "F4",
                    "midi": 65,
                    "time": 5.249999999999997,
                    "velocity": 0.8110236220472441,
                    "duration": 0.24791666666666679
                },
                {
                    "name": "C#4",
                    "midi": 61,
                    "time": 5.249999999999997,
                    "velocity": 0.6377952755905512,
                    "duration": 0.24791666666666679
                },
                {
                    "name": "A3",
                    "midi": 57,
                    "time": 5.33333333333333,
                    "velocity": 0.6062992125984252,
                    "duration": 0.16458333333333375
                },
                {
                    "name": "F3",
                    "midi": 53,
                    "time": 5.499999999999997,
                    "velocity": 0.5511811023622047,
                    "duration": 0.16458333333333375
                },
                {
                    "name": "A4",
                    "midi": 69,
                    "time": 5.499999999999997,
                    "velocity": 0.8110236220472441,
                    "duration": 0.9979166666666659
                },
                {
                    "name": "D4",
                    "midi": 62,
                    "time": 5.499999999999997,
                    "velocity": 0.7007874015748031,
                    "duration": 0.24791666666666679
                },
                {
                    "name": "A3",
                    "midi": 57,
                    "time": 5.666666666666664,
                    "velocity": 0.5905511811023622,
                    "duration": 0.16458333333333286
                },
                {
                    "name": "F4",
                    "midi": 65,
                    "time": 5.749999999999997,
                    "velocity": 0.7244094488188977,
                    "duration": 0.24791666666666679
                },
                {
                    "name": "F3",
                    "midi": 53,
                    "time": 5.83333333333333,
                    "velocity": 0.6062992125984252,
                    "duration": 0.16458333333333375
                },
                {
                    "name": "A#2",
                    "midi": 46,
                    "time": 5.999999999999997,
                    "velocity": 0.5984251968503937,
                    "duration": 0.16458333333333286
                },
                {
                    "name": "G4",
                    "midi": 67,
                    "time": 5.999999999999997,
                    "velocity": 0.8188976377952756,
                    "duration": 0.4979166666666659
                },
                {
                    "name": "E3",
                    "midi": 52,
                    "time": 6.166666666666663,
                    "velocity": 0.5748031496062992,
                    "duration": 0.16458333333333286
                },
                {
                    "name": "G4",
                    "midi": 67,
                    "time": 6.2499999999999964,
                    "velocity": 0.8188976377952756,
                    "duration": 0.24791666666666679
                },
                {
                    "name": "G3",
                    "midi": 55,
                    "time": 6.3333333333333295,
                    "velocity": 0.5748031496062992,
                    "duration": 0.16458333333333375
                },
                {
                    "name": "E3",
                    "midi": 52,
                    "time": 6.4999999999999964,
                    "velocity": 0.5984251968503937,
                    "duration": 0.16458333333333375
                },
                {
                    "name": "A#4",
                    "midi": 70,
                    "time": 6.4999999999999964,
                    "velocity": 0.8188976377952756,
                    "duration": 0.7479166666666668
                },
                {
                    "name": "F#4",
                    "midi": 66,
                    "time": 6.4999999999999964,
                    "velocity": 0.6692913385826772,
                    "duration": 0.5000000000000009
                },
                {
                    "name": "G3",
                    "midi": 55,
                    "time": 6.666666666666663,
                    "velocity": 0.5905511811023622,
                    "duration": 0.16458333333333375
                },
                {
                    "name": "E3",
                    "midi": 52,
                    "time": 6.83333333333333,
                    "velocity": 0.48031496062992124,
                    "duration": 0.16458333333333375
                },
                {
                    "name": "A2",
                    "midi": 45,
                    "time": 6.999999999999997,
                    "velocity": 0.7559055118110236,
                    "duration": 0.16458333333333286
                },
                {
                    "name": "F4",
                    "midi": 65,
                    "time": 6.999999999999997,
                    "velocity": 0.7795275590551181,
                    "duration": 0.4979166666666659
                },
                {
                    "name": "C3",
                    "midi": 48,
                    "time": 7.166666666666663,
                    "velocity": 0.7559055118110236,
                    "duration": 0.16458333333333286
                },
                {
                    "name": "A4",
                    "midi": 69,
                    "time": 7.2499999999999964,
                    "velocity": 0.8661417322834646,
                    "duration": 0.24791666666666679
                },
                {
                    "name": "A3",
                    "midi": 57,
                    "time": 7.3333333333333295,
                    "velocity": 0.7086614173228346,
                    "duration": 0.16458333333333375
                },
                {
                    "name": "C3",
                    "midi": 48,
                    "time": 7.4999999999999964,
                    "velocity": 0.7322834645669292,
                    "duration": 0.16458333333333375
                },
                {
                    "name": "E4",
                    "midi": 64,
                    "time": 7.4999999999999964,
                    "velocity": 0.7637795275590551,
                    "duration": 0.4979166666666677
                },
                {
                    "name": "C5",
                    "midi": 72,
                    "time": 7.4999999999999964,
                    "velocity": 0.8976377952755905,
                    "duration": 0.7479166666666686
                },
                {
                    "name": "A3",
                    "midi": 57,
                    "time": 7.666666666666663,
                    "velocity": 0.5669291338582677,
                    "duration": 0.16458333333333375
                },
                {
                    "name": "C3",
                    "midi": 48,
                    "time": 7.83333333333333,
                    "velocity": 0.7637795275590551,
                    "duration": 0.16458333333333375
                },
                {
                    "name": "G2",
                    "midi": 43,
                    "time": 7.999999999999997,
                    "velocity": 0.7322834645669292,
                    "duration": 0.16458333333333375
                },
                {
                    "name": "D#4",
                    "midi": 63,
                    "time": 7.999999999999997,
                    "velocity": 0.7086614173228346,
                    "duration": 0.4979166666666677
                },
                {
                    "name": "D3",
                    "midi": 50,
                    "time": 8.166666666666664,
                    "velocity": 0.7637795275590551,
                    "duration": 0.16458333333333464
                },
                {
                    "name": "A#4",
                    "midi": 70,
                    "time": 8.249999999999998,
                    "velocity": 0.952755905511811,
                    "duration": 0.24791666666666679
                },
                {
                    "name": "A#3",
                    "midi": 58,
                    "time": 8.333333333333332,
                    "velocity": 0.6535433070866141,
                    "duration": 0.16458333333333286
                },
                {
                    "name": "D3",
                    "midi": 50,
                    "time": 8.499999999999998,
                    "velocity": 0.6535433070866141,
                    "duration": 0.16458333333333286
                },
                {
                    "name": "D4",
                    "midi": 62,
                    "time": 8.499999999999998,
                    "velocity": 0.7795275590551181,
                    "duration": 0.24791666666666679
                },
                {
                    "name": "D5",
                    "midi": 74,
                    "time": 8.499999999999998,
                    "velocity": 0.9921259842519685,
                    "duration": 0.7479166666666668
                },
                {
                    "name": "A#3",
                    "midi": 58,
                    "time": 8.666666666666664,
                    "velocity": 0.6850393700787402,
                    "duration": 0.16458333333333464
                },
                {
                    "name": "F4",
                    "midi": 65,
                    "time": 8.749999999999998,
                    "velocity": 0.7637795275590551,
                    "duration": 0.24791666666666679
                },
                {
                    "name": "D3",
                    "midi": 50,
                    "time": 8.833333333333332,
                    "velocity": 0.6692913385826772,
                    "duration": 0.16458333333333286
                },
                {
                    "name": "F2",
                    "midi": 41,
                    "time": 8.999999999999998,
                    "velocity": 0.7795275590551181,
                    "duration": 0.24791666666666679
                },
                {
                    "name": "A#4",
                    "midi": 70,
                    "time": 8.999999999999998,
                    "velocity": 0.7165354330708661,
                    "duration": 0.24791666666666679
                },
                {
                    "name": "G2",
                    "midi": 43,
                    "time": 9.249999999999998,
                    "velocity": 0.7637795275590551,
                    "duration": 0.09166666666666679
                },
                {
                    "name": "E2",
                    "midi": 40,
                    "time": 9.249999999999998,
                    "velocity": 0.7244094488188977,
                    "duration": 0.09166666666666679
                },
                {
                    "name": "C5",
                    "midi": 72,
                    "time": 9.249999999999998,
                    "velocity": 0.7637795275590551,
                    "duration": 0.24791666666666679
                },
                {
                    "name": "E5",
                    "midi": 76,
                    "time": 9.249999999999998,
                    "velocity": 0.9921259842519685,
                    "duration": 0.24791666666666679
                },
                {
                    "name": "D2",
                    "midi": 38,
                    "time": 9.499999999999998,
                    "velocity": 0.8110236220472441,
                    "duration": 0.09166666666666679
                },
                {
                    "name": "F2",
                    "midi": 41,
                    "time": 9.499999999999998,
                    "velocity": 0.7480314960629921,
                    "duration": 0.09166666666666679
                },
                {
                    "name": "D5",
                    "midi": 74,
                    "time": 9.499999999999998,
                    "velocity": 0.8740157480314961,
                    "duration": 0.24791666666666679
                },
                {
                    "name": "F5",
                    "midi": 77,
                    "time": 9.499999999999998,
                    "velocity": 1,
                    "duration": 0.24791666666666679
                },
                {
                    "name": "E2",
                    "midi": 40,
                    "time": 9.749999999999998,
                    "velocity": 0.8346456692913385,
                    "duration": 0.09166666666666679
                },
                {
                    "name": "C2",
                    "midi": 36,
                    "time": 9.749999999999998,
                    "velocity": 0.8740157480314961,
                    "duration": 0.09166666666666679
                },
                {
                    "name": "D6",
                    "midi": 86,
                    "time": 9.874999999999998,
                    "velocity": 1,
                    "duration": 0.12291666666666679
                },
                {
                    "name": "D5",
                    "midi": 74,
                    "time": 9.874999999999998,
                    "velocity": 0.952755905511811,
                    "duration": 0.12291666666666679
                },
                {
                    "name": "D#2",
                    "midi": 39,
                    "time": 9.999999999999998,
                    "velocity": 0.7637795275590551,
                    "duration": 0.09166666666666679
                },
                {
                    "name": "B1",
                    "midi": 35,
                    "time": 9.999999999999998,
                    "velocity": 0.7795275590551181,
                    "duration": 0.09166666666666679
                },
                {
                    "name": "A4",
                    "midi": 69,
                    "time": 9.999999999999998,
                    "velocity": 1,
                    "duration": 0.24791666666666679
                },
                {
                    "name": "D#5",
                    "midi": 75,
                    "time": 9.999999999999998,
                    "velocity": 0.889763779527559,
                    "duration": 0.24791666666666679
                },
                {
                    "name": "C#5",
                    "midi": 73,
                    "time": 9.999999999999998,
                    "velocity": 0.8976377952755905,
                    "duration": 0.24791666666666679
                },
                {
                    "name": "A5",
                    "midi": 81,
                    "time": 9.999999999999998,
                    "velocity": 1,
                    "duration": 0.24791666666666679
                },
                {
                    "name": "D#4",
                    "midi": 63,
                    "time": 10.249999999999998,
                    "velocity": 0.6850393700787402,
                    "duration": 0.5812499999999989
                },
                {
                    "name": "C#4",
                    "midi": 61,
                    "time": 10.249999999999998,
                    "velocity": 0.6456692913385826,
                    "duration": 0.5812499999999989
                },
                {
                    "name": "C4",
                    "midi": 60,
                    "time": 10.499999999999998,
                    "velocity": 0.9212598425196851,
                    "duration": 0.497916666666665
                },
                {
                    "name": "C#4",
                    "midi": 61,
                    "time": 10.666666666666664,
                    "velocity": 0.5354330708661418,
                    "duration": 0.33124999999999893
                },
                {
                    "name": "D#4",
                    "midi": 63,
                    "time": 10.666666666666664,
                    "velocity": 0.6299212598425197,
                    "duration": 0.33124999999999893
                },
                {
                    "name": "D#4",
                    "midi": 63,
                    "time": 10.83333333333333,
                    "velocity": 0.6929133858267716,
                    "duration": 0.41458333333333286
                },
                {
                    "name": "C#4",
                    "midi": 61,
                    "time": 10.83333333333333,
                    "velocity": 0.5511811023622047,
                    "duration": 0.41458333333333286
                },
                {
                    "name": "B3",
                    "midi": 59,
                    "time": 10.999999999999996,
                    "velocity": 0.8976377952755905,
                    "duration": 0.4979166666666668
                },
                {
                    "name": "C#4",
                    "midi": 61,
                    "time": 11.249999999999996,
                    "velocity": 0.5590551181102362,
                    "duration": 0.41458333333333286
                },
                {
                    "name": "D#4",
                    "midi": 63,
                    "time": 11.249999999999996,
                    "velocity": 0.6929133858267716,
                    "duration": 0.41458333333333286
                },
                {
                    "name": "D#4",
                    "midi": 63,
                    "time": 11.499999999999996,
                    "velocity": 0.6377952755905512,
                    "duration": 0.24791666666666679
                },
                {
                    "name": "C#4",
                    "midi": 61,
                    "time": 11.499999999999996,
                    "velocity": 0.5118110236220472,
                    "duration": 0.24791666666666679
                },
                {
                    "name": "C4",
                    "midi": 60,
                    "time": 11.499999999999996,
                    "velocity": 0.8976377952755905,
                    "duration": 0.4979166666666668
                },
                {
                    "name": "D#4",
                    "midi": 63,
                    "time": 11.666666666666663,
                    "velocity": 0.6456692913385826,
                    "duration": 0.16458333333333464
                },
                {
                    "name": "C#4",
                    "midi": 61,
                    "time": 11.666666666666663,
                    "velocity": 0.5511811023622047,
                    "duration": 0.16458333333333464
                },
                {
                    "name": "D#4",
                    "midi": 63,
                    "time": 11.83333333333333,
                    "velocity": 0.6062992125984252,
                    "duration": 0.41458333333333286
                },
                {
                    "name": "C#4",
                    "midi": 61,
                    "time": 11.83333333333333,
                    "velocity": 0.5039370078740157,
                    "duration": 0.41458333333333286
                },
                {
                    "name": "F3",
                    "midi": 53,
                    "time": 11.999999999999996,
                    "velocity": 0.8503937007874016,
                    "duration": 0.4979166666666668
                },
                {
                    "name": "D#4",
                    "midi": 63,
                    "time": 12.249999999999996,
                    "velocity": 0.6535433070866141,
                    "duration": 0.5812499999999989
                },
                {
                    "name": "C#4",
                    "midi": 61,
                    "time": 12.249999999999996,
                    "velocity": 0.6062992125984252,
                    "duration": 0.5812499999999989
                },
                {
                    "name": "C4",
                    "midi": 60,
                    "time": 12.499999999999996,
                    "velocity": 0.8110236220472441,
                    "duration": 0.497916666666665
                },
                {
                    "name": "C#4",
                    "midi": 61,
                    "time": 12.666666666666663,
                    "velocity": 0.48031496062992124,
                    "duration": 0.33124999999999893
                },
                {
                    "name": "D#4",
                    "midi": 63,
                    "time": 12.666666666666663,
                    "velocity": 0.6141732283464567,
                    "duration": 0.33124999999999893
                },
                {
                    "name": "C#4",
                    "midi": 61,
                    "time": 12.833333333333329,
                    "velocity": 0.5433070866141733,
                    "duration": 0.41458333333333286
                },
                {
                    "name": "D#4",
                    "midi": 63,
                    "time": 12.833333333333329,
                    "velocity": 0.6456692913385826,
                    "duration": 0.41458333333333286
                },
                {
                    "name": "B3",
                    "midi": 59,
                    "time": 12.999999999999995,
                    "velocity": 0.8740157480314961,
                    "duration": 0.4979166666666668
                },
                {
                    "name": "C#4",
                    "midi": 61,
                    "time": 13.249999999999995,
                    "velocity": 0.5433070866141733,
                    "duration": 0.5812499999999989
                },
                {
                    "name": "D#4",
                    "midi": 63,
                    "time": 13.249999999999995,
                    "velocity": 0.6929133858267716,
                    "duration": 0.5812499999999989
                },
                {
                    "name": "C4",
                    "midi": 60,
                    "time": 13.499999999999995,
                    "velocity": 0.8740157480314961,
                    "duration": 0.497916666666665
                },
                {
                    "name": "C#4",
                    "midi": 61,
                    "time": 13.66666666666666,
                    "velocity": 0.5354330708661418,
                    "duration": 0.33124999999999893
                },
                {
                    "name": "D#4",
                    "midi": 63,
                    "time": 13.66666666666666,
                    "velocity": 0.6377952755905512,
                    "duration": 0.33124999999999893
                },
                {
                    "name": "C#4",
                    "midi": 61,
                    "time": 13.833333333333327,
                    "velocity": 0.4566929133858268,
                    "duration": 0.16458333333333286
                },
                {
                    "name": "D#4",
                    "midi": 63,
                    "time": 13.833333333333327,
                    "velocity": 0.6377952755905512,
                    "duration": 0.16458333333333286
                },
                {
                    "name": "D#2",
                    "midi": 39,
                    "time": 13.999999999999993,
                    "velocity": 0.8031496062992126,
                    "duration": 1.1229166666666668
                },
                {
                    "name": "D#1",
                    "midi": 27,
                    "time": 13.999999999999993,
                    "velocity": 0.9606299212598425,
                    "duration": 1.1229166666666668
                },
                {
                    "name": "F#3",
                    "midi": 54,
                    "time": 13.999999999999993,
                    "velocity": 0.8110236220472441,
                    "duration": 0.4979166666666668
                },
                {
                    "name": "D#4",
                    "midi": 63,
                    "time": 14.249999999999993,
                    "velocity": 0.6929133858267716,
                    "duration": 0.41458333333333286
                },
                {
                    "name": "C#4",
                    "midi": 61,
                    "time": 14.249999999999993,
                    "velocity": 0.5590551181102362,
                    "duration": 0.41458333333333286
                },
                {
                    "name": "C#4",
                    "midi": 61,
                    "time": 14.499999999999993,
                    "velocity": 0.5118110236220472,
                    "duration": 0.24791666666666679
                },
                {
                    "name": "D#4",
                    "midi": 63,
                    "time": 14.499999999999993,
                    "velocity": 0.6377952755905512,
                    "duration": 0.24791666666666679
                },
                {
                    "name": "C4",
                    "midi": 60,
                    "time": 14.499999999999993,
                    "velocity": 0.7952755905511811,
                    "duration": 0.4979166666666668
                },
                {
                    "name": "C#4",
                    "midi": 61,
                    "time": 14.666666666666659,
                    "velocity": 0.5511811023622047,
                    "duration": 0.16458333333333464
                },
                {
                    "name": "D#4",
                    "midi": 63,
                    "time": 14.666666666666659,
                    "velocity": 0.6456692913385826,
                    "duration": 0.16458333333333464
                },
                {
                    "name": "C#4",
                    "midi": 61,
                    "time": 14.833333333333327,
                    "velocity": 0.5039370078740157,
                    "duration": 0.41458333333333286
                },
                {
                    "name": "D#4",
                    "midi": 63,
                    "time": 14.833333333333327,
                    "velocity": 0.6062992125984252,
                    "duration": 0.41458333333333286
                },
                {
                    "name": "B3",
                    "midi": 59,
                    "time": 14.999999999999993,
                    "velocity": 0.8346456692913385,
                    "duration": 0.4979166666666668
                },
                {
                    "name": "F#2",
                    "midi": 42,
                    "time": 15.124999999999993,
                    "velocity": 0.8740157480314961,
                    "duration": 0.12291666666666679
                },
                {
                    "name": "A2",
                    "midi": 45,
                    "time": 15.249999999999993,
                    "velocity": 0.7952755905511811,
                    "duration": 0.12291666666666679
                },
                {
                    "name": "C#4",
                    "midi": 61,
                    "time": 15.249999999999993,
                    "velocity": 0.6062992125984252,
                    "duration": 0.5812499999999989
                },
                {
                    "name": "D#4",
                    "midi": 63,
                    "time": 15.249999999999993,
                    "velocity": 0.6535433070866141,
                    "duration": 0.5812499999999989
                },
                {
                    "name": "B2",
                    "midi": 47,
                    "time": 15.374999999999993,
                    "velocity": 0.8740157480314961,
                    "duration": 0.12291666666666679
                },
                {
                    "name": "E3",
                    "midi": 52,
                    "time": 15.499999999999993,
                    "velocity": 0.9921259842519685,
                    "duration": 0.12291666666666679
                },
                {
                    "name": "C4",
                    "midi": 60,
                    "time": 15.499999999999993,
                    "velocity": 0.8031496062992126,
                    "duration": 0.497916666666665
                },
                {
                    "name": "D#4",
                    "midi": 63,
                    "time": 15.666666666666659,
                    "velocity": 0.6141732283464567,
                    "duration": 0.33124999999999893
                },
                {
                    "name": "C#4",
                    "midi": 61,
                    "time": 15.666666666666659,
                    "velocity": 0.48031496062992124,
                    "duration": 0.33124999999999893
                },
                {
                    "name": "D#4",
                    "midi": 63,
                    "time": 15.833333333333325,
                    "velocity": 0.6456692913385826,
                    "duration": 0.41458333333333286
                },
                {
                    "name": "C#4",
                    "midi": 61,
                    "time": 15.833333333333325,
                    "velocity": 0.5433070866141733,
                    "duration": 0.41458333333333286
                },
                {
                    "name": "D#3",
                    "midi": 51,
                    "time": 15.999999999999991,
                    "velocity": 0.9212598425196851,
                    "duration": 1.997916666666674
                },
                {
                    "name": "A3",
                    "midi": 57,
                    "time": 15.999999999999991,
                    "velocity": 0.8031496062992126,
                    "duration": 0.4979166666666668
                },
                {
                    "name": "D#4",
                    "midi": 63,
                    "time": 16.249999999999993,
                    "velocity": 0.6929133858267716,
                    "duration": 0.5812500000000007
                },
                {
                    "name": "C#4",
                    "midi": 61,
                    "time": 16.249999999999993,
                    "velocity": 0.5433070866141733,
                    "duration": 0.5812500000000007
                },
                {
                    "name": "C4",
                    "midi": 60,
                    "time": 16.499999999999993,
                    "velocity": 0.8346456692913385,
                    "duration": 0.49791666666666856
                },
                {
                    "name": "D#4",
                    "midi": 63,
                    "time": 16.66666666666666,
                    "velocity": 0.7244094488188977,
                    "duration": 0.3312500000000007
                },
                {
                    "name": "C#4",
                    "midi": 61,
                    "time": 16.66666666666666,
                    "velocity": 0.6377952755905512,
                    "duration": 0.3312500000000007
                },
                {
                    "name": "C#4",
                    "midi": 61,
                    "time": 16.83333333333333,
                    "velocity": 0.6062992125984252,
                    "duration": 0.16458333333333286
                },
                {
                    "name": "D#4",
                    "midi": 63,
                    "time": 16.83333333333333,
                    "velocity": 0.7165354330708661,
                    "duration": 0.16458333333333286
                },
                {
                    "name": "B3",
                    "midi": 59,
                    "time": 16.999999999999996,
                    "velocity": 0.6771653543307087,
                    "duration": 0.497916666666665
                },
                {
                    "name": "D#4",
                    "midi": 63,
                    "time": 17.249999999999996,
                    "velocity": 0.5354330708661418,
                    "duration": 0.41458333333333286
                },
                {
                    "name": "C#4",
                    "midi": 61,
                    "time": 17.249999999999996,
                    "velocity": 0.4015748031496063,
                    "duration": 0.41458333333333286
                },
                {
                    "name": "C#4",
                    "midi": 61,
                    "time": 17.499999999999996,
                    "velocity": 0.3543307086614173,
                    "duration": 0.24791666666666856
                },
                {
                    "name": "D#4",
                    "midi": 63,
                    "time": 17.499999999999996,
                    "velocity": 0.48031496062992124,
                    "duration": 0.24791666666666856
                },
                {
                    "name": "C4",
                    "midi": 60,
                    "time": 17.499999999999996,
                    "velocity": 0.6220472440944882,
                    "duration": 0.49791666666666856
                },
                {
                    "name": "C#4",
                    "midi": 61,
                    "time": 17.666666666666664,
                    "velocity": 0.3937007874015748,
                    "duration": 0.16458333333333286
                },
                {
                    "name": "D#4",
                    "midi": 63,
                    "time": 17.666666666666664,
                    "velocity": 0.4881889763779528,
                    "duration": 0.16458333333333286
                },
                {
                    "name": "C#4",
                    "midi": 61,
                    "time": 17.833333333333332,
                    "velocity": 0.3464566929133858,
                    "duration": 0.41458333333333286
                },
                {
                    "name": "D#4",
                    "midi": 63,
                    "time": 17.833333333333332,
                    "velocity": 0.44881889763779526,
                    "duration": 0.41458333333333286
                },
                {
                    "name": "B1",
                    "midi": 35,
                    "time": 18,
                    "velocity": 0.7874015748031497,
                    "duration": 3.9979166666666757
                },
                {
                    "name": "B2",
                    "midi": 47,
                    "time": 18,
                    "velocity": 0.7401574803149606,
                    "duration": 3.9979166666666757
                },
                {
                    "name": "G#3",
                    "midi": 56,
                    "time": 18,
                    "velocity": 0.7716535433070866,
                    "duration": 0.497916666666665
                },
                {
                    "name": "C#4",
                    "midi": 61,
                    "time": 18.25,
                    "velocity": 0.5433070866141733,
                    "duration": 0.5812500000000007
                },
                {
                    "name": "D#4",
                    "midi": 63,
                    "time": 18.25,
                    "velocity": 0.5905511811023622,
                    "duration": 0.5812500000000007
                },
                {
                    "name": "B3",
                    "midi": 59,
                    "time": 18.5,
                    "velocity": 0.7165354330708661,
                    "duration": 0.49791666666666856
                },
                {
                    "name": "D#4",
                    "midi": 63,
                    "time": 18.666666666666668,
                    "velocity": 0.5511811023622047,
                    "duration": 0.3312500000000007
                },
                {
                    "name": "C#4",
                    "midi": 61,
                    "time": 18.666666666666668,
                    "velocity": 0.41732283464566927,
                    "duration": 0.3312500000000007
                },
                {
                    "name": "D#4",
                    "midi": 63,
                    "time": 18.833333333333336,
                    "velocity": 0.5826771653543307,
                    "duration": 0.41458333333333286
                },
                {
                    "name": "C#4",
                    "midi": 61,
                    "time": 18.833333333333336,
                    "velocity": 0.48031496062992124,
                    "duration": 0.41458333333333286
                },
                {
                    "name": "A#3",
                    "midi": 58,
                    "time": 19.000000000000004,
                    "velocity": 0.6614173228346457,
                    "duration": 0.497916666666665
                },
                {
                    "name": "E4",
                    "midi": 64,
                    "time": 19.250000000000004,
                    "velocity": 0.5354330708661418,
                    "duration": 0.5812500000000007
                },
                {
                    "name": "C#4",
                    "midi": 61,
                    "time": 19.250000000000004,
                    "velocity": 0.3858267716535433,
                    "duration": 0.5812500000000007
                },
                {
                    "name": "B3",
                    "midi": 59,
                    "time": 19.500000000000004,
                    "velocity": 0.6456692913385826,
                    "duration": 0.49791666666666856
                },
                {
                    "name": "E4",
                    "midi": 64,
                    "time": 19.66666666666667,
                    "velocity": 0.5511811023622047,
                    "duration": 0.3312500000000007
                },
                {
                    "name": "C#4",
                    "midi": 61,
                    "time": 19.66666666666667,
                    "velocity": 0.4881889763779528,
                    "duration": 0.3312500000000007
                },
                {
                    "name": "E4",
                    "midi": 64,
                    "time": 19.83333333333334,
                    "velocity": 0.5354330708661418,
                    "duration": 0.16458333333333286
                },
                {
                    "name": "C#4",
                    "midi": 61,
                    "time": 19.83333333333334,
                    "velocity": 0.4566929133858268,
                    "duration": 0.16458333333333286
                },
                {
                    "name": "A3",
                    "midi": 57,
                    "time": 20.000000000000007,
                    "velocity": 0.6535433070866141,
                    "duration": 0.497916666666665
                },
                {
                    "name": "F4",
                    "midi": 65,
                    "time": 20.250000000000007,
                    "velocity": 0.6141732283464567,
                    "duration": 0.49791666666666856
                },
                {
                    "name": "C#4",
                    "midi": 61,
                    "time": 20.250000000000007,
                    "velocity": 0.48031496062992124,
                    "duration": 0.49791666666666856
                },
                {
                    "name": "C4",
                    "midi": 60,
                    "time": 20.500000000000007,
                    "velocity": 0.6141732283464567,
                    "duration": 0.49791666666666856
                },
                {
                    "name": "F#4",
                    "midi": 66,
                    "time": 20.666666666666675,
                    "velocity": 0.5669291338582677,
                    "duration": 0.16458333333333286
                },
                {
                    "name": "E4",
                    "midi": 64,
                    "time": 20.666666666666675,
                    "velocity": 0.47244094488188976,
                    "duration": 0.16458333333333286
                },
                {
                    "name": "E4",
                    "midi": 64,
                    "time": 20.833333333333343,
                    "velocity": 0.4251968503937008,
                    "duration": 0.16666666666666785
                },
                {
                    "name": "F#4",
                    "midi": 66,
                    "time": 20.833333333333343,
                    "velocity": 0.5275590551181102,
                    "duration": 0.16666666666666785
                },
                {
                    "name": "C#4",
                    "midi": 61,
                    "time": 21.00000000000001,
                    "velocity": 0.4251968503937008,
                    "duration": 0.247916666666665
                },
                {
                    "name": "D#4",
                    "midi": 63,
                    "time": 21.00000000000001,
                    "velocity": 0.5275590551181102,
                    "duration": 0.247916666666665
                },
                {
                    "name": "B3",
                    "midi": 59,
                    "time": 21.00000000000001,
                    "velocity": 0.6456692913385826,
                    "duration": 0.497916666666665
                },
                {
                    "name": "F#4",
                    "midi": 66,
                    "time": 21.25000000000001,
                    "velocity": 0.5275590551181102,
                    "duration": 0.747916666666665
                },
                {
                    "name": "G#4",
                    "midi": 68,
                    "time": 21.25000000000001,
                    "velocity": 0.5748031496062992,
                    "duration": 0.747916666666665
                },
                {
                    "name": "C4",
                    "midi": 60,
                    "time": 21.50000000000001,
                    "velocity": 0.5590551181102362,
                    "duration": 0.497916666666665
                },
                {
                    "name": "A4",
                    "midi": 69,
                    "time": 21.87500000000001,
                    "velocity": 0.6771653543307087,
                    "duration": 0.12291666666666501
                },
                {
                    "name": "D3",
                    "midi": 50,
                    "time": 22.00000000000001,
                    "velocity": 0.6377952755905512,
                    "duration": 0.16458333333333286
                },
                {
                    "name": "D2",
                    "midi": 38,
                    "time": 22.00000000000001,
                    "velocity": 0.5905511811023622,
                    "duration": 0.16458333333333286
                },
                {
                    "name": "A3",
                    "midi": 57,
                    "time": 22.00000000000001,
                    "velocity": 0.6299212598425197,
                    "duration": 0.49791666666666856
                },
                {
                    "name": "F3",
                    "midi": 53,
                    "time": 22.16666666666668,
                    "velocity": 0.5748031496062992,
                    "duration": 0.16458333333333286
                },
                {
                    "name": "D4",
                    "midi": 62,
                    "time": 22.25000000000001,
                    "velocity": 0.6692913385826772,
                    "duration": 0.24791666666666856
                },
                {
                    "name": "A3",
                    "midi": 57,
                    "time": 22.333333333333346,
                    "velocity": 0.5590551181102362,
                    "duration": 0.16458333333333286
                },
                {
                    "name": "F3",
                    "midi": 53,
                    "time": 22.500000000000014,
                    "velocity": 0.6299212598425197,
                    "duration": 0.16458333333333286
                },
                {
                    "name": "F4",
                    "midi": 65,
                    "time": 22.500000000000014,
                    "velocity": 0.7952755905511811,
                    "duration": 0.7479166666666721
                },
                {
                    "name": "A3",
                    "midi": 57,
                    "time": 22.666666666666682,
                    "velocity": 0.5984251968503937,
                    "duration": 0.16458333333333286
                },
                {
                    "name": "C5",
                    "midi": 72,
                    "time": 22.750000000000014,
                    "velocity": 0.6299212598425197,
                    "duration": 0.12291666666666856
                },
                {
                    "name": "F3",
                    "midi": 53,
                    "time": 22.83333333333335,
                    "velocity": 0.6062992125984252,
                    "duration": 0.16458333333333286
                },
                {
                    "name": "C2",
                    "midi": 36,
                    "time": 23.000000000000018,
                    "velocity": 0.7007874015748031,
                    "duration": 0.16458333333333286
                },
                {
                    "name": "C3",
                    "midi": 48,
                    "time": 23.000000000000018,
                    "velocity": 0.6062992125984252,
                    "duration": 0.16458333333333286
                },
                {
                    "name": "C4",
                    "midi": 60,
                    "time": 23.000000000000018,
                    "velocity": 0.6062992125984252,
                    "duration": 0.4979166666666721
                },
                {
                    "name": "E3",
                    "midi": 52,
                    "time": 23.166666666666686,
                    "velocity": 0.6456692913385826,
                    "duration": 0.1645833333333364
                },
                {
                    "name": "E4",
                    "midi": 64,
                    "time": 23.25000000000002,
                    "velocity": 0.7322834645669292,
                    "duration": 0.24791666666666856
                },
                {
                    "name": "A3",
                    "midi": 57,
                    "time": 23.333333333333357,
                    "velocity": 0.5590551181102362,
                    "duration": 0.16458333333333286
                },
                {
                    "name": "E3",
                    "midi": 52,
                    "time": 23.500000000000025,
                    "velocity": 0.6377952755905512,
                    "duration": 0.16458333333333286
                },
                {
                    "name": "G4",
                    "midi": 67,
                    "time": 23.500000000000025,
                    "velocity": 0.7874015748031497,
                    "duration": 0.7479166666666721
                },
                {
                    "name": "A3",
                    "midi": 57,
                    "time": 23.666666666666693,
                    "velocity": 0.5669291338582677,
                    "duration": 0.16458333333333286
                },
                {
                    "name": "F4",
                    "midi": 65,
                    "time": 23.750000000000025,
                    "velocity": 0.7637795275590551,
                    "duration": 0.24791666666666856
                },
                {
                    "name": "E3",
                    "midi": 52,
                    "time": 23.83333333333336,
                    "velocity": 0.5511811023622047,
                    "duration": 0.16458333333333286
                },
                {
                    "name": "B2",
                    "midi": 47,
                    "time": 24.00000000000003,
                    "velocity": 0.7874015748031497,
                    "duration": 0.16458333333333286
                },
                {
                    "name": "B1",
                    "midi": 35,
                    "time": 24.00000000000003,
                    "velocity": 0.7559055118110236,
                    "duration": 0.16458333333333286
                },
                {
                    "name": "E4",
                    "midi": 64,
                    "time": 24.00000000000003,
                    "velocity": 0.6692913385826772,
                    "duration": 0.24791666666666856
                },
                {
                    "name": "F3",
                    "midi": 53,
                    "time": 24.166666666666696,
                    "velocity": 0.6456692913385826,
                    "duration": 0.1645833333333364
                },
                {
                    "name": "C#4",
                    "midi": 61,
                    "time": 24.250000000000032,
                    "velocity": 0.5275590551181102,
                    "duration": 0.24791666666666856
                },
                {
                    "name": "F4",
                    "midi": 65,
                    "time": 24.250000000000032,
                    "velocity": 0.7165354330708661,
                    "duration": 0.24791666666666856
                },
                {
                    "name": "A3",
                    "midi": 57,
                    "time": 24.333333333333368,
                    "velocity": 0.49606299212598426,
                    "duration": 0.16458333333333286
                },
                {
                    "name": "F3",
                    "midi": 53,
                    "time": 24.500000000000036,
                    "velocity": 0.6692913385826772,
                    "duration": 0.16458333333333286
                },
                {
                    "name": "D4",
                    "midi": 62,
                    "time": 24.500000000000036,
                    "velocity": 0.6535433070866141,
                    "duration": 0.24791666666666856
                },
                {
                    "name": "A4",
                    "midi": 69,
                    "time": 24.500000000000036,
                    "velocity": 0.8346456692913385,
                    "duration": 0.7479166666666757
                },
                {
                    "name": "A3",
                    "midi": 57,
                    "time": 24.666666666666703,
                    "velocity": 0.6141732283464567,
                    "duration": 0.1645833333333364
                },
                {
                    "name": "F4",
                    "midi": 65,
                    "time": 24.75000000000004,
                    "velocity": 0.5905511811023622,
                    "duration": 0.24791666666666856
                },
                {
                    "name": "F3",
                    "midi": 53,
                    "time": 24.833333333333375,
                    "velocity": 0.6141732283464567,
                    "duration": 0.16458333333333286
                },
                {
                    "name": "A#2",
                    "midi": 46,
                    "time": 25.000000000000043,
                    "velocity": 0.7874015748031497,
                    "duration": 0.16458333333333286
                },
                {
                    "name": "A#1",
                    "midi": 34,
                    "time": 25.000000000000043,
                    "velocity": 0.6929133858267716,
                    "duration": 0.16458333333333286
                },
                {
                    "name": "G4",
                    "midi": 67,
                    "time": 25.000000000000043,
                    "velocity": 0.6141732283464567,
                    "duration": 0.24791666666666856
                },
                {
                    "name": "E3",
                    "midi": 52,
                    "time": 25.16666666666671,
                    "velocity": 0.6141732283464567,
                    "duration": 0.1645833333333364
                },
                {
                    "name": "G4",
                    "midi": 67,
                    "time": 25.250000000000046,
                    "velocity": 0.7795275590551181,
                    "duration": 0.24791666666666856
                },
                {
                    "name": "G3",
                    "midi": 55,
                    "time": 25.333333333333382,
                    "velocity": 0.6062992125984252,
                    "duration": 0.16458333333333286
                },
                {
                    "name": "E3",
                    "midi": 52,
                    "time": 25.50000000000005,
                    "velocity": 0.6771653543307087,
                    "duration": 0.16458333333333286
                },
                {
                    "name": "F#5",
                    "midi": 78,
                    "time": 25.50000000000005,
                    "velocity": 0.7244094488188977,
                    "duration": 0.49791666666666856
                },
                {
                    "name": "A#4",
                    "midi": 70,
                    "time": 25.50000000000005,
                    "velocity": 0.8188976377952756,
                    "duration": 0.7479166666666721
                },
                {
                    "name": "G3",
                    "midi": 55,
                    "time": 25.666666666666718,
                    "velocity": 0.5748031496062992,
                    "duration": 0.16458333333333286
                },
                {
                    "name": "E3",
                    "midi": 52,
                    "time": 25.833333333333385,
                    "velocity": 0.5511811023622047,
                    "duration": 0.16458333333333286
                },
                {
                    "name": "A2",
                    "midi": 45,
                    "time": 26.000000000000053,
                    "velocity": 0.7874015748031497,
                    "duration": 0.16458333333333286
                },
                {
                    "name": "A1",
                    "midi": 33,
                    "time": 26.000000000000053,
                    "velocity": 0.7637795275590551,
                    "duration": 0.16458333333333286
                },
                {
                    "name": "F5",
                    "midi": 77,
                    "time": 26.000000000000053,
                    "velocity": 0.6850393700787402,
                    "duration": 0.4979166666666721
                },
                {
                    "name": "C3",
                    "midi": 48,
                    "time": 26.16666666666672,
                    "velocity": 0.6535433070866141,
                    "duration": 0.1645833333333364
                },
                {
                    "name": "A4",
                    "midi": 69,
                    "time": 26.250000000000057,
                    "velocity": 0.8582677165354331,
                    "duration": 0.24791666666666856
                },
                {
                    "name": "A3",
                    "midi": 57,
                    "time": 26.333333333333393,
                    "velocity": 0.6062992125984252,
                    "duration": 0.16458333333333286
                },
                {
                    "name": "C3",
                    "midi": 48,
                    "time": 26.50000000000006,
                    "velocity": 0.6692913385826772,
                    "duration": 0.16458333333333286
                },
                {
                    "name": "E5",
                    "midi": 76,
                    "time": 26.50000000000006,
                    "velocity": 0.6692913385826772,
                    "duration": 0.49791666666666856
                },
                {
                    "name": "C5",
                    "midi": 72,
                    "time": 26.50000000000006,
                    "velocity": 0.8267716535433071,
                    "duration": 0.7479166666666721
                },
                {
                    "name": "A3",
                    "midi": 57,
                    "time": 26.66666666666673,
                    "velocity": 0.5590551181102362,
                    "duration": 0.16458333333333286
                },
                {
                    "name": "C3",
                    "midi": 48,
                    "time": 26.833333333333396,
                    "velocity": 0.6299212598425197,
                    "duration": 0.16458333333333286
                },
                {
                    "name": "G2",
                    "midi": 43,
                    "time": 27.000000000000064,
                    "velocity": 0.7480314960629921,
                    "duration": 0.16458333333333286
                },
                {
                    "name": "G1",
                    "midi": 31,
                    "time": 27.000000000000064,
                    "velocity": 0.7716535433070866,
                    "duration": 0.16458333333333286
                },
                {
                    "name": "D#5",
                    "midi": 75,
                    "time": 27.000000000000064,
                    "velocity": 0.7795275590551181,
                    "duration": 0.24791666666666856
                },
                {
                    "name": "D3",
                    "midi": 50,
                    "time": 27.166666666666732,
                    "velocity": 0.6692913385826772,
                    "duration": 0.1645833333333364
                },
                {
                    "name": "A#4",
                    "midi": 70,
                    "time": 27.250000000000068,
                    "velocity": 0.7952755905511811,
                    "duration": 0.24791666666666856
                },
                {
                    "name": "A#3",
                    "midi": 58,
                    "time": 27.333333333333403,
                    "velocity": 0.6220472440944882,
                    "duration": 0.16458333333333286
                },
                {
                    "name": "D3",
                    "midi": 50,
                    "time": 27.50000000000007,
                    "velocity": 0.7401574803149606,
                    "duration": 0.16458333333333286
                },
                {
                    "name": "D5",
                    "midi": 74,
                    "time": 27.50000000000007,
                    "velocity": 0.889763779527559,
                    "duration": 0.7479166666666686
                },
                {
                    "name": "A#3",
                    "midi": 58,
                    "time": 27.66666666666674,
                    "velocity": 0.6614173228346457,
                    "duration": 0.16458333333333286
                },
                {
                    "name": "C5",
                    "midi": 72,
                    "time": 27.75000000000007,
                    "velocity": 0.7480314960629921,
                    "duration": 0.24791666666666856
                },
                {
                    "name": "D3",
                    "midi": 50,
                    "time": 27.833333333333407,
                    "velocity": 0.7322834645669292,
                    "duration": 0.16458333333333286
                },
                {
                    "name": "F2",
                    "midi": 41,
                    "time": 28.000000000000075,
                    "velocity": 0.7952755905511811,
                    "duration": 0.09166666666666501
                },
                {
                    "name": "A#4",
                    "midi": 70,
                    "time": 28.000000000000075,
                    "velocity": 0.6535433070866141,
                    "duration": 0.247916666666665
                },
                {
                    "name": "G2",
                    "midi": 43,
                    "time": 28.250000000000075,
                    "velocity": 0.7244094488188977,
                    "duration": 0.09166666666666501
                },
                {
                    "name": "E2",
                    "midi": 40,
                    "time": 28.250000000000075,
                    "velocity": 0.7637795275590551,
                    "duration": 0.09166666666666501
                },
                {
                    "name": "E5",
                    "midi": 76,
                    "time": 28.250000000000075,
                    "velocity": 0.8661417322834646,
                    "duration": 0.247916666666665
                },
                {
                    "name": "C5",
                    "midi": 72,
                    "time": 28.250000000000075,
                    "velocity": 0.889763779527559,
                    "duration": 0.247916666666665
                },
                {
                    "name": "F2",
                    "midi": 41,
                    "time": 28.500000000000075,
                    "velocity": 0.7795275590551181,
                    "duration": 0.09166666666666501
                },
                {
                    "name": "D2",
                    "midi": 38,
                    "time": 28.500000000000075,
                    "velocity": 0.7480314960629921,
                    "duration": 0.09166666666666501
                },
                {
                    "name": "D5",
                    "midi": 74,
                    "time": 28.500000000000075,
                    "velocity": 0.8346456692913385,
                    "duration": 0.247916666666665
                },
                {
                    "name": "F5",
                    "midi": 77,
                    "time": 28.500000000000075,
                    "velocity": 0.8661417322834646,
                    "duration": 0.247916666666665
                },
                {
                    "name": "E2",
                    "midi": 40,
                    "time": 28.750000000000075,
                    "velocity": 0.7952755905511811,
                    "duration": 0.09166666666666501
                },
                {
                    "name": "C2",
                    "midi": 36,
                    "time": 28.750000000000075,
                    "velocity": 0.8188976377952756,
                    "duration": 0.09166666666666501
                },
                {
                    "name": "D6",
                    "midi": 86,
                    "time": 28.875000000000075,
                    "velocity": 0.937007874015748,
                    "duration": 0.12291666666666501
                },
                {
                    "name": "D5",
                    "midi": 74,
                    "time": 28.875000000000075,
                    "velocity": 0.9133858267716536,
                    "duration": 0.12291666666666501
                },
                {
                    "name": "D#3",
                    "midi": 51,
                    "time": 29.000000000000075,
                    "velocity": 0.7874015748031497,
                    "duration": 0.497916666666665
                },
                {
                    "name": "B2",
                    "midi": 47,
                    "time": 29.000000000000075,
                    "velocity": 0.8188976377952756,
                    "duration": 0.497916666666665
                },
                {
                    "name": "C#5",
                    "midi": 73,
                    "time": 29.000000000000075,
                    "velocity": 0.8110236220472441,
                    "duration": 0.497916666666665
                },
                {
                    "name": "A5",
                    "midi": 81,
                    "time": 29.000000000000075,
                    "velocity": 0.952755905511811,
                    "duration": 0.497916666666665
                },
                {
                    "name": "A4",
                    "midi": 69,
                    "time": 29.000000000000075,
                    "velocity": 0.8267716535433071,
                    "duration": 0.497916666666665
                },
                {
                    "name": "D#5",
                    "midi": 75,
                    "time": 29.000000000000075,
                    "velocity": 0.7322834645669292,
                    "duration": 0.497916666666665
                },
                {
                    "name": "A6",
                    "midi": 93,
                    "time": 29.500000000000075,
                    "velocity": 1,
                    "duration": 0.497916666666665
                },
                {
                    "name": "A5",
                    "midi": 81,
                    "time": 29.500000000000075,
                    "velocity": 0.9133858267716536,
                    "duration": 0.497916666666665
                },
                {
                    "name": "C#2",
                    "midi": 37,
                    "time": 30.000000000000075,
                    "velocity": 0.7874015748031497,
                    "duration": 0.497916666666665
                },
                {
                    "name": "A1",
                    "midi": 33,
                    "time": 30.000000000000075,
                    "velocity": 0.7952755905511811,
                    "duration": 0.497916666666665
                },
                {
                    "name": "C#5",
                    "midi": 73,
                    "time": 30.000000000000075,
                    "velocity": 0.7716535433070866,
                    "duration": 0.247916666666665
                },
                {
                    "name": "A5",
                    "midi": 81,
                    "time": 30.000000000000075,
                    "velocity": 0.952755905511811,
                    "duration": 0.247916666666665
                },
                {
                    "name": "A4",
                    "midi": 69,
                    "time": 30.000000000000075,
                    "velocity": 0.7874015748031497,
                    "duration": 0.247916666666665
                },
                {
                    "name": "E5",
                    "midi": 76,
                    "time": 30.000000000000075,
                    "velocity": 0.7637795275590551,
                    "duration": 0.247916666666665
                },
                {
                    "name": "A4",
                    "midi": 69,
                    "time": 30.250000000000075,
                    "velocity": 0.889763779527559,
                    "duration": 0.12291666666666501
                },
                {
                    "name": "A3",
                    "midi": 57,
                    "time": 30.500000000000075,
                    "velocity": 0.952755905511811,
                    "duration": 0.747916666666665
                },
                {
                    "name": "D3",
                    "midi": 50,
                    "time": 30.750000000000075,
                    "velocity": 0.8661417322834646,
                    "duration": 0.09166666666666501
                },
                {
                    "name": "F3",
                    "midi": 53,
                    "time": 30.750000000000075,
                    "velocity": 0.8110236220472441,
                    "duration": 0.09166666666666501
                },
                {
                    "name": "E3",
                    "midi": 52,
                    "time": 31.000000000000075,
                    "velocity": 0.8110236220472441,
                    "duration": 0.747916666666665
                },
                {
                    "name": "A2",
                    "midi": 45,
                    "time": 31.000000000000075,
                    "velocity": 0.937007874015748,
                    "duration": 0.747916666666665
                },
                {
                    "name": "A4",
                    "midi": 69,
                    "time": 31.250000000000075,
                    "velocity": 0.8661417322834646,
                    "duration": 0.12291666666666501
                },
                {
                    "name": "B3",
                    "midi": 59,
                    "time": 31.500000000000075,
                    "velocity": 0.889763779527559,
                    "duration": 0.747916666666665
                },
                {
                    "name": "A3",
                    "midi": 57,
                    "time": 31.500000000000075,
                    "velocity": 0.7952755905511811,
                    "duration": 0.747916666666665
                },
                {
                    "name": "D3",
                    "midi": 50,
                    "time": 31.750000000000075,
                    "velocity": 0.937007874015748,
                    "duration": 0.09166666666666501
                },
                {
                    "name": "F3",
                    "midi": 53,
                    "time": 31.750000000000075,
                    "velocity": 0.8267716535433071,
                    "duration": 0.09166666666666501
                },
                {
                    "name": "E3",
                    "midi": 52,
                    "time": 32.00000000000007,
                    "velocity": 0.8110236220472441,
                    "duration": 0.7479166666666686
                },
                {
                    "name": "A2",
                    "midi": 45,
                    "time": 32.00000000000007,
                    "velocity": 0.937007874015748,
                    "duration": 0.7479166666666686
                },
                {
                    "name": "A4",
                    "midi": 69,
                    "time": 32.25000000000007,
                    "velocity": 0.952755905511811,
                    "duration": 0.12291666666666856
                },
                {
                    "name": "A3",
                    "midi": 57,
                    "time": 32.50000000000007,
                    "velocity": 0.8503937007874016,
                    "duration": 0.49791666666666856
                },
                {
                    "name": "C#4",
                    "midi": 61,
                    "time": 32.50000000000007,
                    "velocity": 0.889763779527559,
                    "duration": 0.49791666666666856
                },
                {
                    "name": "D2",
                    "midi": 38,
                    "time": 33.00000000000007,
                    "velocity": 0.889763779527559,
                    "duration": 1.9979166666666686
                },
                {
                    "name": "A#1",
                    "midi": 34,
                    "time": 33.00000000000007,
                    "velocity": 0.8503937007874016,
                    "duration": 1.9979166666666686
                },
                {
                    "name": "G1",
                    "midi": 31,
                    "time": 33.00000000000007,
                    "velocity": 0.952755905511811,
                    "duration": 1.9979166666666686
                },
                {
                    "name": "A#4",
                    "midi": 70,
                    "time": 35.00000000000007,
                    "velocity": 0.4881889763779528,
                    "duration": 0.49791666666666856
                },
                {
                    "name": "G4",
                    "midi": 67,
                    "time": 35.00000000000007,
                    "velocity": 0.5039370078740157,
                    "duration": 0.49791666666666856
                },
                {
                    "name": "D6",
                    "midi": 86,
                    "time": 35.00000000000007,
                    "velocity": 0.7086614173228346,
                    "duration": 0.24791666666666856
                },
                {
                    "name": "D5",
                    "midi": 74,
                    "time": 35.25000000000007,
                    "velocity": 0.5511811023622047,
                    "duration": 0.24791666666666856
                },
                {
                    "name": "A4",
                    "midi": 69,
                    "time": 35.50000000000007,
                    "velocity": 0.6062992125984252,
                    "duration": 0.49791666666666856
                },
                {
                    "name": "D4",
                    "midi": 62,
                    "time": 35.50000000000007,
                    "velocity": 0.47244094488188976,
                    "duration": 0.49791666666666856
                },
                {
                    "name": "C#5",
                    "midi": 73,
                    "time": 35.50000000000007,
                    "velocity": 0.6377952755905512,
                    "duration": 0.24791666666666856
                },
                {
                    "name": "D5",
                    "midi": 74,
                    "time": 35.75000000000007,
                    "velocity": 0.6535433070866141,
                    "duration": 0.24791666666666856
                },
                {
                    "name": "G4",
                    "midi": 67,
                    "time": 36.00000000000007,
                    "velocity": 0.5984251968503937,
                    "duration": 0.49791666666666856
                },
                {
                    "name": "A#4",
                    "midi": 70,
                    "time": 36.00000000000007,
                    "velocity": 0.6062992125984252,
                    "duration": 0.49791666666666856
                },
                {
                    "name": "D6",
                    "midi": 86,
                    "time": 36.00000000000007,
                    "velocity": 0.7322834645669292,
                    "duration": 0.24791666666666856
                },
                {
                    "name": "D5",
                    "midi": 74,
                    "time": 36.25000000000007,
                    "velocity": 0.5669291338582677,
                    "duration": 0.24791666666666856
                },
                {
                    "name": "A4",
                    "midi": 69,
                    "time": 36.50000000000007,
                    "velocity": 0.5196850393700787,
                    "duration": 0.49791666666666856
                },
                {
                    "name": "D4",
                    "midi": 62,
                    "time": 36.50000000000007,
                    "velocity": 0.49606299212598426,
                    "duration": 0.49791666666666856
                },
                {
                    "name": "C#5",
                    "midi": 73,
                    "time": 36.50000000000007,
                    "velocity": 0.5669291338582677,
                    "duration": 0.24791666666666856
                },
                {
                    "name": "D5",
                    "midi": 74,
                    "time": 36.75000000000007,
                    "velocity": 0.5984251968503937,
                    "duration": 0.24791666666666856
                },
                {
                    "name": "G4",
                    "midi": 67,
                    "time": 37.00000000000007,
                    "velocity": 0.5748031496062992,
                    "duration": 0.49791666666666146
                },
                {
                    "name": "A#4",
                    "midi": 70,
                    "time": 37.00000000000007,
                    "velocity": 0.5748031496062992,
                    "duration": 0.49791666666666146
                },
                {
                    "name": "D6",
                    "midi": 86,
                    "time": 37.00000000000007,
                    "velocity": 0.7401574803149606,
                    "duration": 0.24791666666666856
                },
                {
                    "name": "D5",
                    "midi": 74,
                    "time": 37.25000000000007,
                    "velocity": 0.6692913385826772,
                    "duration": 0.24791666666666146
                },
                {
                    "name": "A4",
                    "midi": 69,
                    "time": 37.500000000000064,
                    "velocity": 0.6141732283464567,
                    "duration": 0.49791666666666856
                },
                {
                    "name": "D4",
                    "midi": 62,
                    "time": 37.500000000000064,
                    "velocity": 0.5039370078740157,
                    "duration": 0.49791666666666856
                },
                {
                    "name": "E5",
                    "midi": 76,
                    "time": 37.500000000000064,
                    "velocity": 0.4566929133858268,
                    "duration": 0.24791666666666856
                },
                {
                    "name": "C#5",
                    "midi": 73,
                    "time": 37.500000000000064,
                    "velocity": 0.5984251968503937,
                    "duration": 0.24791666666666856
                },
                {
                    "name": "F#5",
                    "midi": 78,
                    "time": 37.750000000000064,
                    "velocity": 0.6929133858267716,
                    "duration": 0.24791666666666856
                },
                {
                    "name": "D5",
                    "midi": 74,
                    "time": 37.750000000000064,
                    "velocity": 0.4566929133858268,
                    "duration": 0.24791666666666856
                },
                {
                    "name": "A#4",
                    "midi": 70,
                    "time": 38.000000000000064,
                    "velocity": 0.5984251968503937,
                    "duration": 0.49791666666666856
                },
                {
                    "name": "G4",
                    "midi": 67,
                    "time": 38.000000000000064,
                    "velocity": 0.5275590551181102,
                    "duration": 0.49791666666666856
                },
                {
                    "name": "G5",
                    "midi": 79,
                    "time": 38.000000000000064,
                    "velocity": 0.6692913385826772,
                    "duration": 0.24791666666666856
                },
                {
                    "name": "D6",
                    "midi": 86,
                    "time": 38.000000000000064,
                    "velocity": 0.5275590551181102,
                    "duration": 0.24791666666666856
                },
                {
                    "name": "A5",
                    "midi": 81,
                    "time": 38.250000000000064,
                    "velocity": 0.7244094488188977,
                    "duration": 0.24791666666666856
                },
                {
                    "name": "D5",
                    "midi": 74,
                    "time": 38.250000000000064,
                    "velocity": 0.6771653543307087,
                    "duration": 0.24791666666666856
                },
                {
                    "name": "A4",
                    "midi": 69,
                    "time": 38.500000000000064,
                    "velocity": 0.6141732283464567,
                    "duration": 0.49791666666666856
                },
                {
                    "name": "D4",
                    "midi": 62,
                    "time": 38.500000000000064,
                    "velocity": 0.4330708661417323,
                    "duration": 0.49791666666666856
                },
                {
                    "name": "A#5",
                    "midi": 82,
                    "time": 38.500000000000064,
                    "velocity": 0.6377952755905512,
                    "duration": 0.24791666666666856
                },
                {
                    "name": "C#5",
                    "midi": 73,
                    "time": 38.500000000000064,
                    "velocity": 0.4645669291338583,
                    "duration": 0.24791666666666856
                },
                {
                    "name": "B5",
                    "midi": 83,
                    "time": 38.750000000000064,
                    "velocity": 0.7401574803149606,
                    "duration": 0.24791666666666856
                },
                {
                    "name": "D5",
                    "midi": 74,
                    "time": 38.750000000000064,
                    "velocity": 0.5354330708661418,
                    "duration": 0.24791666666666856
                },
                {
                    "name": "G#4",
                    "midi": 68,
                    "time": 39.000000000000064,
                    "velocity": 0.5039370078740157,
                    "duration": 0.49791666666666856
                },
                {
                    "name": "F4",
                    "midi": 65,
                    "time": 39.000000000000064,
                    "velocity": 0.5118110236220472,
                    "duration": 0.49791666666666856
                },
                {
                    "name": "D#5",
                    "midi": 75,
                    "time": 39.000000000000064,
                    "velocity": 0.4566929133858268,
                    "duration": 0.49791666666666856
                },
                {
                    "name": "C6",
                    "midi": 84,
                    "time": 39.000000000000064,
                    "velocity": 0.6692913385826772,
                    "duration": 0.24791666666666856
                },
                {
                    "name": "C5",
                    "midi": 72,
                    "time": 39.250000000000064,
                    "velocity": 0.6299212598425197,
                    "duration": 0.24791666666666856
                },
                {
                    "name": "G4",
                    "midi": 67,
                    "time": 39.500000000000064,
                    "velocity": 0.6535433070866141,
                    "duration": 0.49791666666666856
                },
                {
                    "name": "C4",
                    "midi": 60,
                    "time": 39.500000000000064,
                    "velocity": 0.3858267716535433,
                    "duration": 0.49791666666666856
                },
                {
                    "name": "E5",
                    "midi": 76,
                    "time": 39.500000000000064,
                    "velocity": 0.6771653543307087,
                    "duration": 0.49791666666666856
                },
                {
                    "name": "B4",
                    "midi": 71,
                    "time": 39.500000000000064,
                    "velocity": 0.5748031496062992,
                    "duration": 0.24791666666666856
                },
                {
                    "name": "C5",
                    "midi": 72,
                    "time": 39.750000000000064,
                    "velocity": 0.5196850393700787,
                    "duration": 0.24791666666666856
                },
                {
                    "name": "G#4",
                    "midi": 68,
                    "time": 40.000000000000064,
                    "velocity": 0.5039370078740157,
                    "duration": 0.49791666666666856
                },
                {
                    "name": "F4",
                    "midi": 65,
                    "time": 40.000000000000064,
                    "velocity": 0.4881889763779528,
                    "duration": 0.49791666666666856
                },
                {
                    "name": "F5",
                    "midi": 77,
                    "time": 40.000000000000064,
                    "velocity": 0.48031496062992124,
                    "duration": 0.49791666666666856
                },
                {
                    "name": "C6",
                    "midi": 84,
                    "time": 40.000000000000064,
                    "velocity": 0.7244094488188977,
                    "duration": 0.24791666666666856
                },
                {
                    "name": "C5",
                    "midi": 72,
                    "time": 40.250000000000064,
                    "velocity": 0.6692913385826772,
                    "duration": 0.24791666666666856
                },
                {
                    "name": "G4",
                    "midi": 67,
                    "time": 40.500000000000064,
                    "velocity": 0.5118110236220472,
                    "duration": 0.49791666666666856
                },
                {
                    "name": "C4",
                    "midi": 60,
                    "time": 40.500000000000064,
                    "velocity": 0.4566929133858268,
                    "duration": 0.49791666666666856
                },
                {
                    "name": "G5",
                    "midi": 79,
                    "time": 40.500000000000064,
                    "velocity": 0.7165354330708661,
                    "duration": 0.49791666666666856
                },
                {
                    "name": "B4",
                    "midi": 71,
                    "time": 40.500000000000064,
                    "velocity": 0.6299212598425197,
                    "duration": 0.24791666666666856
                },
                {
                    "name": "C5",
                    "midi": 72,
                    "time": 40.750000000000064,
                    "velocity": 0.6692913385826772,
                    "duration": 0.24791666666666856
                },
                {
                    "name": "F4",
                    "midi": 65,
                    "time": 41.000000000000064,
                    "velocity": 0.5905511811023622,
                    "duration": 0.49791666666666856
                },
                {
                    "name": "G#4",
                    "midi": 68,
                    "time": 41.000000000000064,
                    "velocity": 0.6062992125984252,
                    "duration": 0.49791666666666856
                },
                {
                    "name": "G#5",
                    "midi": 80,
                    "time": 41.000000000000064,
                    "velocity": 0.5984251968503937,
                    "duration": 0.24791666666666856
                },
                {
                    "name": "C6",
                    "midi": 84,
                    "time": 41.000000000000064,
                    "velocity": 0.6377952755905512,
                    "duration": 0.24791666666666856
                },
                {
                    "name": "D5",
                    "midi": 74,
                    "time": 41.250000000000064,
                    "velocity": 0.5669291338582677,
                    "duration": 0.24791666666666856
                },
                {
                    "name": "C5",
                    "midi": 72,
                    "time": 41.250000000000064,
                    "velocity": 0.6535433070866141,
                    "duration": 0.24791666666666856
                },
                {
                    "name": "G4",
                    "midi": 67,
                    "time": 41.500000000000064,
                    "velocity": 0.6141732283464567,
                    "duration": 0.49791666666666856
                },
                {
                    "name": "C4",
                    "midi": 60,
                    "time": 41.500000000000064,
                    "velocity": 0.4566929133858268,
                    "duration": 0.49791666666666856
                },
                {
                    "name": "B4",
                    "midi": 71,
                    "time": 41.500000000000064,
                    "velocity": 0.4566929133858268,
                    "duration": 0.24791666666666856
                },
                {
                    "name": "F5",
                    "midi": 77,
                    "time": 41.500000000000064,
                    "velocity": 0.6850393700787402,
                    "duration": 0.24791666666666856
                },
                {
                    "name": "C5",
                    "midi": 72,
                    "time": 41.750000000000064,
                    "velocity": 0.44881889763779526,
                    "duration": 0.24791666666666856
                },
                {
                    "name": "E5",
                    "midi": 76,
                    "time": 41.750000000000064,
                    "velocity": 0.6692913385826772,
                    "duration": 0.24791666666666856
                },
                {
                    "name": "F4",
                    "midi": 65,
                    "time": 42.000000000000064,
                    "velocity": 0.5905511811023622,
                    "duration": 0.49791666666666856
                },
                {
                    "name": "G#4",
                    "midi": 68,
                    "time": 42.000000000000064,
                    "velocity": 0.5748031496062992,
                    "duration": 0.49791666666666856
                },
                {
                    "name": "C6",
                    "midi": 84,
                    "time": 42.000000000000064,
                    "velocity": 0.6771653543307087,
                    "duration": 0.24791666666666856
                },
                {
                    "name": "G5",
                    "midi": 79,
                    "time": 42.000000000000064,
                    "velocity": 0.5984251968503937,
                    "duration": 0.24791666666666856
                },
                {
                    "name": "F5",
                    "midi": 77,
                    "time": 42.250000000000064,
                    "velocity": 0.6535433070866141,
                    "duration": 0.24791666666666856
                },
                {
                    "name": "C5",
                    "midi": 72,
                    "time": 42.250000000000064,
                    "velocity": 0.5748031496062992,
                    "duration": 0.24791666666666856
                },
                {
                    "name": "G4",
                    "midi": 67,
                    "time": 42.500000000000064,
                    "velocity": 0.5669291338582677,
                    "duration": 0.49791666666666856
                },
                {
                    "name": "C4",
                    "midi": 60,
                    "time": 42.500000000000064,
                    "velocity": 0.4330708661417323,
                    "duration": 0.49791666666666856
                },
                {
                    "name": "B4",
                    "midi": 71,
                    "time": 42.500000000000064,
                    "velocity": 0.5354330708661418,
                    "duration": 0.24791666666666856
                },
                {
                    "name": "G#5",
                    "midi": 80,
                    "time": 42.500000000000064,
                    "velocity": 0.6535433070866141,
                    "duration": 0.24791666666666856
                },
                {
                    "name": "C5",
                    "midi": 72,
                    "time": 42.750000000000064,
                    "velocity": 0.5984251968503937,
                    "duration": 0.24791666666666856
                },
                {
                    "name": "G5",
                    "midi": 79,
                    "time": 42.750000000000064,
                    "velocity": 0.6535433070866141,
                    "duration": 0.24791666666666856
                },
                {
                    "name": "D#4",
                    "midi": 63,
                    "time": 43.000000000000064,
                    "velocity": 0.4566929133858268,
                    "duration": 0.49791666666666856
                },
                {
                    "name": "F#4",
                    "midi": 66,
                    "time": 43.000000000000064,
                    "velocity": 0.5905511811023622,
                    "duration": 0.49791666666666856
                },
                {
                    "name": "A#5",
                    "midi": 82,
                    "time": 43.000000000000064,
                    "velocity": 0.6141732283464567,
                    "duration": 0.24791666666666856
                },
                {
                    "name": "A#4",
                    "midi": 70,
                    "time": 43.250000000000064,
                    "velocity": 0.47244094488188976,
                    "duration": 0.24791666666666856
                },
                {
                    "name": "F4",
                    "midi": 65,
                    "time": 43.500000000000064,
                    "velocity": 0.5039370078740157,
                    "duration": 0.49791666666666856
                },
                {
                    "name": "A#3",
                    "midi": 58,
                    "time": 43.500000000000064,
                    "velocity": 0.41732283464566927,
                    "duration": 0.49791666666666856
                },
                {
                    "name": "A4",
                    "midi": 69,
                    "time": 43.500000000000064,
                    "velocity": 0.49606299212598426,
                    "duration": 0.24791666666666856
                },
                {
                    "name": "A#4",
                    "midi": 70,
                    "time": 43.750000000000064,
                    "velocity": 0.6062992125984252,
                    "duration": 0.24791666666666856
                },
                {
                    "name": "D#4",
                    "midi": 63,
                    "time": 44.000000000000064,
                    "velocity": 0.5590551181102362,
                    "duration": 0.49791666666666856
                },
                {
                    "name": "F#4",
                    "midi": 66,
                    "time": 44.000000000000064,
                    "velocity": 0.5748031496062992,
                    "duration": 0.49791666666666856
                },
                {
                    "name": "A#5",
                    "midi": 82,
                    "time": 44.000000000000064,
                    "velocity": 0.6692913385826772,
                    "duration": 0.24791666666666856
                },
                {
                    "name": "A#4",
                    "midi": 70,
                    "time": 44.250000000000064,
                    "velocity": 0.5118110236220472,
                    "duration": 0.24791666666666856
                },
                {
                    "name": "F4",
                    "midi": 65,
                    "time": 44.500000000000064,
                    "velocity": 0.6141732283464567,
                    "duration": 0.49791666666666856
                },
                {
                    "name": "A#3",
                    "midi": 58,
                    "time": 44.500000000000064,
                    "velocity": 0.4566929133858268,
                    "duration": 0.49791666666666856
                },
                {
                    "name": "A4",
                    "midi": 69,
                    "time": 44.500000000000064,
                    "velocity": 0.5984251968503937,
                    "duration": 0.24791666666666856
                },
                {
                    "name": "A#4",
                    "midi": 70,
                    "time": 44.750000000000064,
                    "velocity": 0.5669291338582677,
                    "duration": 0.24791666666666856
                },
                {
                    "name": "D#4",
                    "midi": 63,
                    "time": 45.000000000000064,
                    "velocity": 0.5118110236220472,
                    "duration": 0.49791666666666856
                },
                {
                    "name": "F#4",
                    "midi": 66,
                    "time": 45.000000000000064,
                    "velocity": 0.5511811023622047,
                    "duration": 0.49791666666666856
                },
                {
                    "name": "A#5",
                    "midi": 82,
                    "time": 45.000000000000064,
                    "velocity": 0.6850393700787402,
                    "duration": 0.24791666666666856
                },
                {
                    "name": "A#4",
                    "midi": 70,
                    "time": 45.250000000000064,
                    "velocity": 0.5984251968503937,
                    "duration": 0.24791666666666856
                },
                {
                    "name": "A#3",
                    "midi": 58,
                    "time": 45.500000000000064,
                    "velocity": 0.44881889763779526,
                    "duration": 0.49791666666666856
                },
                {
                    "name": "F4",
                    "midi": 65,
                    "time": 45.500000000000064,
                    "velocity": 0.48031496062992124,
                    "duration": 0.49791666666666856
                },
                {
                    "name": "C5",
                    "midi": 72,
                    "time": 45.500000000000064,
                    "velocity": 0.6771653543307087,
                    "duration": 0.24791666666666856
                },
                {
                    "name": "A4",
                    "midi": 69,
                    "time": 45.500000000000064,
                    "velocity": 0.5039370078740157,
                    "duration": 0.24791666666666856
                },
                {
                    "name": "D5",
                    "midi": 74,
                    "time": 45.750000000000064,
                    "velocity": 0.7244094488188977,
                    "duration": 0.24791666666666856
                },
                {
                    "name": "A#4",
                    "midi": 70,
                    "time": 45.750000000000064,
                    "velocity": 0.6141732283464567,
                    "duration": 0.24791666666666856
                },
                {
                    "name": "D#4",
                    "midi": 63,
                    "time": 46.000000000000064,
                    "velocity": 0.4566929133858268,
                    "duration": 0.49791666666666856
                },
                {
                    "name": "F#4",
                    "midi": 66,
                    "time": 46.000000000000064,
                    "velocity": 0.47244094488188976,
                    "duration": 0.49791666666666856
                },
                {
                    "name": "A#5",
                    "midi": 82,
                    "time": 46.000000000000064,
                    "velocity": 0.6692913385826772,
                    "duration": 0.24791666666666856
                },
                {
                    "name": "D#5",
                    "midi": 75,
                    "time": 46.000000000000064,
                    "velocity": 0.6377952755905512,
                    "duration": 0.24791666666666856
                },
                {
                    "name": "A#4",
                    "midi": 70,
                    "time": 46.250000000000064,
                    "velocity": 0.6377952755905512,
                    "duration": 0.24791666666666856
                },
                {
                    "name": "F5",
                    "midi": 77,
                    "time": 46.250000000000064,
                    "velocity": 0.7086614173228346,
                    "duration": 0.24791666666666856
                },
                {
                    "name": "F4",
                    "midi": 65,
                    "time": 46.500000000000064,
                    "velocity": 0.5669291338582677,
                    "duration": 0.49791666666666856
                },
                {
                    "name": "A#3",
                    "midi": 58,
                    "time": 46.500000000000064,
                    "velocity": 0.5196850393700787,
                    "duration": 0.49791666666666856
                },
                {
                    "name": "F#5",
                    "midi": 78,
                    "time": 46.500000000000064,
                    "velocity": 0.6692913385826772,
                    "duration": 0.24791666666666856
                },
                {
                    "name": "A4",
                    "midi": 69,
                    "time": 46.500000000000064,
                    "velocity": 0.5905511811023622,
                    "duration": 0.24791666666666856
                },
                {
                    "name": "A#4",
                    "midi": 70,
                    "time": 46.750000000000064,
                    "velocity": 0.5669291338582677,
                    "duration": 0.24791666666666856
                },
                {
                    "name": "G5",
                    "midi": 79,
                    "time": 46.750000000000064,
                    "velocity": 0.7322834645669292,
                    "duration": 0.24791666666666856
                },
                {
                    "name": "C#4",
                    "midi": 61,
                    "time": 47.000000000000064,
                    "velocity": 0.4409448818897638,
                    "duration": 0.49791666666666856
                },
                {
                    "name": "E4",
                    "midi": 64,
                    "time": 47.000000000000064,
                    "velocity": 0.5590551181102362,
                    "duration": 0.49791666666666856
                },
                {
                    "name": "B4",
                    "midi": 71,
                    "time": 47.000000000000064,
                    "velocity": 0.5984251968503937,
                    "duration": 0.49791666666666856
                },
                {
                    "name": "G#5",
                    "midi": 80,
                    "time": 47.000000000000064,
                    "velocity": 0.6771653543307087,
                    "duration": 0.24791666666666856
                },
                {
                    "name": "G#4",
                    "midi": 68,
                    "time": 47.250000000000064,
                    "velocity": 0.6456692913385826,
                    "duration": 0.24791666666666856
                },
                {
                    "name": "D#4",
                    "midi": 63,
                    "time": 47.500000000000064,
                    "velocity": 0.3858267716535433,
                    "duration": 0.49791666666666856
                },
                {
                    "name": "G#3",
                    "midi": 56,
                    "time": 47.500000000000064,
                    "velocity": 0.3937007874015748,
                    "duration": 0.49791666666666856
                },
                {
                    "name": "C5",
                    "midi": 72,
                    "time": 47.500000000000064,
                    "velocity": 0.6850393700787402,
                    "duration": 0.49791666666666856
                },
                {
                    "name": "G4",
                    "midi": 67,
                    "time": 47.500000000000064,
                    "velocity": 0.7165354330708661,
                    "duration": 0.24791666666666856
                },
                {
                    "name": "G#4",
                    "midi": 68,
                    "time": 47.750000000000064,
                    "velocity": 0.6141732283464567,
                    "duration": 0.24791666666666856
                },
                {
                    "name": "E4",
                    "midi": 64,
                    "time": 48.000000000000064,
                    "velocity": 0.5118110236220472,
                    "duration": 0.49791666666666856
                },
                {
                    "name": "C#4",
                    "midi": 61,
                    "time": 48.000000000000064,
                    "velocity": 0.4566929133858268,
                    "duration": 0.49791666666666856
                },
                {
                    "name": "C#5",
                    "midi": 73,
                    "time": 48.000000000000064,
                    "velocity": 0.6456692913385826,
                    "duration": 0.49791666666666856
                },
                {
                    "name": "G#5",
                    "midi": 80,
                    "time": 48.000000000000064,
                    "velocity": 0.6535433070866141,
                    "duration": 0.24791666666666856
                },
                {
                    "name": "G#4",
                    "midi": 68,
                    "time": 48.250000000000064,
                    "velocity": 0.5196850393700787,
                    "duration": 0.24791666666666856
                },
                {
                    "name": "D#4",
                    "midi": 63,
                    "time": 48.500000000000064,
                    "velocity": 0.4566929133858268,
                    "duration": 0.49791666666666856
                },
                {
                    "name": "G#3",
                    "midi": 56,
                    "time": 48.500000000000064,
                    "velocity": 0.4645669291338583,
                    "duration": 0.49791666666666856
                },
                {
                    "name": "D#5",
                    "midi": 75,
                    "time": 48.500000000000064,
                    "velocity": 0.5905511811023622,
                    "duration": 0.24791666666666856
                },
                {
                    "name": "G4",
                    "midi": 67,
                    "time": 48.500000000000064,
                    "velocity": 0.5590551181102362,
                    "duration": 0.24791666666666856
                },
                {
                    "name": "G#4",
                    "midi": 68,
                    "time": 48.750000000000064,
                    "velocity": 0.5905511811023622,
                    "duration": 0.24791666666666856
                },
                {
                    "name": "E4",
                    "midi": 64,
                    "time": 49.000000000000064,
                    "velocity": 0.5669291338582677,
                    "duration": 0.49791666666666146
                },
                {
                    "name": "C#4",
                    "midi": 61,
                    "time": 49.000000000000064,
                    "velocity": 0.5039370078740157,
                    "duration": 0.49791666666666146
                },
                {
                    "name": "E5",
                    "midi": 76,
                    "time": 49.000000000000064,
                    "velocity": 0.5984251968503937,
                    "duration": 0.24791666666666146
                },
                {
                    "name": "G#5",
                    "midi": 80,
                    "time": 49.000000000000064,
                    "velocity": 0.6062992125984252,
                    "duration": 0.24791666666666146
                },
                {
                    "name": "C#5",
                    "midi": 73,
                    "time": 49.25000000000006,
                    "velocity": 0.6377952755905512,
                    "duration": 0.24791666666666856
                },
                {
                    "name": "G#4",
                    "midi": 68,
                    "time": 49.50000000000006,
                    "velocity": 0.5905511811023622,
                    "duration": 0.24791666666666856
                },
                {
                    "name": "E4",
                    "midi": 64,
                    "time": 49.75000000000006,
                    "velocity": 0.4015748031496063,
                    "duration": 0.24791666666666856
                },
                {
                    "name": "C#4",
                    "midi": 61,
                    "time": 50.00000000000006,
                    "velocity": 0.5905511811023622,
                    "duration": 0.24791666666666856
                },
                {
                    "name": "E4",
                    "midi": 64,
                    "time": 50.00000000000006,
                    "velocity": 0.5905511811023622,
                    "duration": 0.24791666666666856
                },
                {
                    "name": "B3",
                    "midi": 59,
                    "time": 50.25000000000006,
                    "velocity": 0.4881889763779528,
                    "duration": 0.24791666666666856
                },
                {
                    "name": "G#4",
                    "midi": 68,
                    "time": 50.25000000000006,
                    "velocity": 0.6141732283464567,
                    "duration": 0.24791666666666856
                },
                {
                    "name": "G#3",
                    "midi": 56,
                    "time": 50.50000000000006,
                    "velocity": 0.6141732283464567,
                    "duration": 0.24791666666666856
                },
                {
                    "name": "C5",
                    "midi": 72,
                    "time": 50.50000000000006,
                    "velocity": 0.6456692913385826,
                    "duration": 0.24791666666666856
                },
                {
                    "name": "F#3",
                    "midi": 54,
                    "time": 50.75000000000006,
                    "velocity": 0.5905511811023622,
                    "duration": 0.24791666666666856
                },
                {
                    "name": "D#5",
                    "midi": 75,
                    "time": 50.75000000000006,
                    "velocity": 0.6141732283464567,
                    "duration": 0.24791666666666856
                },
                {
                    "name": "F3",
                    "midi": 53,
                    "time": 51.00000000000006,
                    "velocity": 0.6062992125984252,
                    "duration": 0.24791666666666146
                },
                {
                    "name": "E5",
                    "midi": 76,
                    "time": 51.00000000000006,
                    "velocity": 0.7637795275590551,
                    "duration": 0.24791666666666146
                },
                {
                    "name": "E4",
                    "midi": 64,
                    "time": 51.00000000000006,
                    "velocity": 0.8110236220472441,
                    "duration": 0.7479166666666615
                },
                {
                    "name": "A3",
                    "midi": 57,
                    "time": 51.25000000000005,
                    "velocity": 0.6456692913385826,
                    "duration": 0.24791666666666856
                },
                {
                    "name": "A4",
                    "midi": 69,
                    "time": 51.25000000000005,
                    "velocity": 0.5669291338582677,
                    "duration": 0.24791666666666856
                },
                {
                    "name": "C4",
                    "midi": 60,
                    "time": 51.50000000000005,
                    "velocity": 0.5590551181102362,
                    "duration": 0.24791666666666856
                },
                {
                    "name": "E4",
                    "midi": 64,
                    "time": 51.50000000000005,
                    "velocity": 0.47244094488188976,
                    "duration": 0.5
                },
                {
                    "name": "A3",
                    "midi": 57,
                    "time": 51.75000000000005,
                    "velocity": 0.5669291338582677,
                    "duration": 0.24791666666666856
                },
                {
                    "name": "A4",
                    "midi": 69,
                    "time": 51.75000000000005,
                    "velocity": 0.4251968503937008,
                    "duration": 0.24791666666666856
                },
                {
                    "name": "C3",
                    "midi": 48,
                    "time": 52.00000000000005,
                    "velocity": 0.5748031496062992,
                    "duration": 0.24791666666666146
                },
                {
                    "name": "D#4",
                    "midi": 63,
                    "time": 52.00000000000005,
                    "velocity": 0.8110236220472441,
                    "duration": 0.7479166666666615
                },
                {
                    "name": "D#5",
                    "midi": 75,
                    "time": 52.00000000000005,
                    "velocity": 0.7007874015748031,
                    "duration": 0.24791666666666146
                },
                {
                    "name": "A#3",
                    "midi": 58,
                    "time": 52.25000000000004,
                    "velocity": 0.5905511811023622,
                    "duration": 0.24791666666666856
                },
                {
                    "name": "G#4",
                    "midi": 68,
                    "time": 52.25000000000004,
                    "velocity": 0.5669291338582677,
                    "duration": 0.24791666666666856
                },
                {
                    "name": "C4",
                    "midi": 60,
                    "time": 52.50000000000004,
                    "velocity": 0.5984251968503937,
                    "duration": 0.24791666666666856
                },
                {
                    "name": "D#4",
                    "midi": 63,
                    "time": 52.50000000000004,
                    "velocity": 0.44881889763779526,
                    "duration": 0.49791666666666856
                },
                {
                    "name": "A#3",
                    "midi": 58,
                    "time": 52.75000000000004,
                    "velocity": 0.4566929133858268,
                    "duration": 0.24791666666666856
                },
                {
                    "name": "G#4",
                    "midi": 68,
                    "time": 52.75000000000004,
                    "velocity": 0.4409448818897638,
                    "duration": 0.24791666666666856
                },
                {
                    "name": "F3",
                    "midi": 53,
                    "time": 53.00000000000004,
                    "velocity": 0.5984251968503937,
                    "duration": 0.24791666666666146
                },
                {
                    "name": "E4",
                    "midi": 64,
                    "time": 53.00000000000004,
                    "velocity": 0.6535433070866141,
                    "duration": 0.7479166666666615
                },
                {
                    "name": "E5",
                    "midi": 76,
                    "time": 53.00000000000004,
                    "velocity": 0.7086614173228346,
                    "duration": 0.24791666666666146
                },
                {
                    "name": "A3",
                    "midi": 57,
                    "time": 53.250000000000036,
                    "velocity": 0.6771653543307087,
                    "duration": 0.24791666666666856
                },
                {
                    "name": "A4",
                    "midi": 69,
                    "time": 53.250000000000036,
                    "velocity": 0.5669291338582677,
                    "duration": 0.24791666666666856
                },
                {
                    "name": "C4",
                    "midi": 60,
                    "time": 53.500000000000036,
                    "velocity": 0.5511811023622047,
                    "duration": 0.24791666666666856
                },
                {
                    "name": "E4",
                    "midi": 64,
                    "time": 53.500000000000036,
                    "velocity": 0.6062992125984252,
                    "duration": 0.5
                },
                {
                    "name": "A3",
                    "midi": 57,
                    "time": 53.750000000000036,
                    "velocity": 0.6929133858267716,
                    "duration": 0.24791666666666856
                },
                {
                    "name": "A4",
                    "midi": 69,
                    "time": 53.750000000000036,
                    "velocity": 0.5984251968503937,
                    "duration": 0.24791666666666856
                },
                {
                    "name": "C3",
                    "midi": 48,
                    "time": 54.000000000000036,
                    "velocity": 0.6377952755905512,
                    "duration": 0.24791666666666146
                },
                {
                    "name": "D#5",
                    "midi": 75,
                    "time": 54.000000000000036,
                    "velocity": 0.7086614173228346,
                    "duration": 0.24791666666666146
                },
                {
                    "name": "D#4",
                    "midi": 63,
                    "time": 54.000000000000036,
                    "velocity": 0.6535433070866141,
                    "duration": 0.7479166666666615
                },
                {
                    "name": "A#3",
                    "midi": 58,
                    "time": 54.25000000000003,
                    "velocity": 0.6377952755905512,
                    "duration": 0.24791666666666856
                },
                {
                    "name": "G#4",
                    "midi": 68,
                    "time": 54.25000000000003,
                    "velocity": 0.5590551181102362,
                    "duration": 0.24791666666666856
                },
                {
                    "name": "C4",
                    "midi": 60,
                    "time": 54.50000000000003,
                    "velocity": 0.4330708661417323,
                    "duration": 0.24791666666666856
                },
                {
                    "name": "D#4",
                    "midi": 63,
                    "time": 54.50000000000003,
                    "velocity": 0.5984251968503937,
                    "duration": 0.49791666666666856
                },
                {
                    "name": "A#3",
                    "midi": 58,
                    "time": 54.75000000000003,
                    "velocity": 0.5905511811023622,
                    "duration": 0.24791666666666856
                },
                {
                    "name": "G#4",
                    "midi": 68,
                    "time": 54.75000000000003,
                    "velocity": 0.5748031496062992,
                    "duration": 0.24791666666666856
                },
                {
                    "name": "F3",
                    "midi": 53,
                    "time": 55.00000000000003,
                    "velocity": 0.5905511811023622,
                    "duration": 0.24791666666666146
                },
                {
                    "name": "E5",
                    "midi": 76,
                    "time": 55.00000000000003,
                    "velocity": 0.7795275590551181,
                    "duration": 0.16458333333333286
                },
                {
                    "name": "E4",
                    "midi": 64,
                    "time": 55.00000000000003,
                    "velocity": 0.6929133858267716,
                    "duration": 0.16458333333333286
                },
                {
                    "name": "F4",
                    "midi": 65,
                    "time": 55.16666666666669,
                    "velocity": 0.6692913385826772,
                    "duration": 0.16458333333332575
                },
                {
                    "name": "A3",
                    "midi": 57,
                    "time": 55.25000000000002,
                    "velocity": 0.5905511811023622,
                    "duration": 0.24791666666666146
                },
                {
                    "name": "G4",
                    "midi": 67,
                    "time": 55.33333333333335,
                    "velocity": 0.6535433070866141,
                    "duration": 0.16458333333333286
                },
                {
                    "name": "C4",
                    "midi": 60,
                    "time": 55.500000000000014,
                    "velocity": 0.5590551181102362,
                    "duration": 0.24791666666666856
                },
                {
                    "name": "A4",
                    "midi": 69,
                    "time": 55.500000000000014,
                    "velocity": 0.6456692913385826,
                    "duration": 0.12291666666666856
                },
                {
                    "name": "B4",
                    "midi": 71,
                    "time": 55.625000000000014,
                    "velocity": 0.6692913385826772,
                    "duration": 0.12291666666666856
                },
                {
                    "name": "A3",
                    "midi": 57,
                    "time": 55.750000000000014,
                    "velocity": 0.5984251968503937,
                    "duration": 0.24791666666666856
                },
                {
                    "name": "C5",
                    "midi": 72,
                    "time": 55.750000000000014,
                    "velocity": 0.6377952755905512,
                    "duration": 0.12291666666666856
                },
                {
                    "name": "D5",
                    "midi": 74,
                    "time": 55.875000000000014,
                    "velocity": 0.6456692913385826,
                    "duration": 0.12291666666666856
                },
                {
                    "name": "C3",
                    "midi": 48,
                    "time": 56.000000000000014,
                    "velocity": 0.6692913385826772,
                    "duration": 0.24791666666666146
                },
                {
                    "name": "D#4",
                    "midi": 63,
                    "time": 56.000000000000014,
                    "velocity": 0.6141732283464567,
                    "duration": 0.12291666666666146
                },
                {
                    "name": "D#5",
                    "midi": 75,
                    "time": 56.000000000000014,
                    "velocity": 0.6771653543307087,
                    "duration": 0.12291666666666146
                },
                {
                    "name": "E5",
                    "midi": 76,
                    "time": 56.12500000000001,
                    "velocity": 0.6771653543307087,
                    "duration": 0.12291666666666856
                },
                {
                    "name": "A#3",
                    "midi": 58,
                    "time": 56.25000000000001,
                    "velocity": 0.5905511811023622,
                    "duration": 0.24791666666666856
                },
                {
                    "name": "F5",
                    "midi": 77,
                    "time": 56.25000000000001,
                    "velocity": 0.6299212598425197,
                    "duration": 0.12291666666666856
                },
                {
                    "name": "G5",
                    "midi": 79,
                    "time": 56.37500000000001,
                    "velocity": 0.6850393700787402,
                    "duration": 0.12291666666666856
                },
                {
                    "name": "C4",
                    "midi": 60,
                    "time": 56.50000000000001,
                    "velocity": 0.4251968503937008,
                    "duration": 0.24791666666666856
                },
                {
                    "name": "A5",
                    "midi": 81,
                    "time": 56.50000000000001,
                    "velocity": 0.6771653543307087,
                    "duration": 0.12291666666666856
                },
                {
                    "name": "A#5",
                    "midi": 82,
                    "time": 56.62500000000001,
                    "velocity": 0.6535433070866141,
                    "duration": 0.12291666666666856
                },
                {
                    "name": "A#3",
                    "midi": 58,
                    "time": 56.75000000000001,
                    "velocity": 0.4566929133858268,
                    "duration": 0.24791666666666856
                },
                {
                    "name": "C6",
                    "midi": 84,
                    "time": 56.75000000000001,
                    "velocity": 0.6456692913385826,
                    "duration": 0.12291666666666856
                },
                {
                    "name": "D6",
                    "midi": 86,
                    "time": 56.87500000000001,
                    "velocity": 0.7401574803149606,
                    "duration": 0.12291666666666856
                },
                {
                    "name": "F3",
                    "midi": 53,
                    "time": 57.00000000000001,
                    "velocity": 0.6062992125984252,
                    "duration": 0.24791666666666146
                },
                {
                    "name": "E6",
                    "midi": 88,
                    "time": 57.00000000000001,
                    "velocity": 0.7322834645669292,
                    "duration": 0.24791666666666146
                },
                {
                    "name": "E5",
                    "midi": 76,
                    "time": 57.00000000000001,
                    "velocity": 0.44881889763779526,
                    "duration": 0.7479166666666615
                },
                {
                    "name": "A3",
                    "midi": 57,
                    "time": 57.25,
                    "velocity": 0.5275590551181102,
                    "duration": 0.24791666666666856
                },
                {
                    "name": "A5",
                    "midi": 81,
                    "time": 57.25,
                    "velocity": 0.5669291338582677,
                    "duration": 0.24791666666666856
                },
                {
                    "name": "C4",
                    "midi": 60,
                    "time": 57.5,
                    "velocity": 0.5748031496062992,
                    "duration": 0.24791666666666856
                },
                {
                    "name": "E5",
                    "midi": 76,
                    "time": 57.5,
                    "velocity": 0.6850393700787402,
                    "duration": 0.5
                },
                {
                    "name": "A3",
                    "midi": 57,
                    "time": 57.75,
                    "velocity": 0.5669291338582677,
                    "duration": 0.24791666666666856
                },
                {
                    "name": "A5",
                    "midi": 81,
                    "time": 57.75,
                    "velocity": 0.6062992125984252,
                    "duration": 0.24791666666666856
                },
                {
                    "name": "C3",
                    "midi": 48,
                    "time": 58,
                    "velocity": 0.6456692913385826,
                    "duration": 0.24791666666666146
                },
                {
                    "name": "D#6",
                    "midi": 87,
                    "time": 58,
                    "velocity": 0.6771653543307087,
                    "duration": 0.24791666666666146
                },
                {
                    "name": "D#5",
                    "midi": 75,
                    "time": 58,
                    "velocity": 0.44881889763779526,
                    "duration": 0.7479166666666615
                },
                {
                    "name": "A#3",
                    "midi": 58,
                    "time": 58.24999999999999,
                    "velocity": 0.5984251968503937,
                    "duration": 0.24791666666666856
                },
                {
                    "name": "G#5",
                    "midi": 80,
                    "time": 58.24999999999999,
                    "velocity": 0.5511811023622047,
                    "duration": 0.24791666666666856
                },
                {
                    "name": "C4",
                    "midi": 60,
                    "time": 58.49999999999999,
                    "velocity": 0.4251968503937008,
                    "duration": 0.24791666666666856
                },
                {
                    "name": "D#5",
                    "midi": 75,
                    "time": 58.49999999999999,
                    "velocity": 0.5118110236220472,
                    "duration": 0.49791666666666856
                },
                {
                    "name": "A#3",
                    "midi": 58,
                    "time": 58.74999999999999,
                    "velocity": 0.5196850393700787,
                    "duration": 0.24791666666666856
                },
                {
                    "name": "G#5",
                    "midi": 80,
                    "time": 58.74999999999999,
                    "velocity": 0.5984251968503937,
                    "duration": 0.24791666666666856
                },
                {
                    "name": "F4",
                    "midi": 65,
                    "time": 58.99999999999999,
                    "velocity": 0.6535433070866141,
                    "duration": 0.24791666666666146
                },
                {
                    "name": "E5",
                    "midi": 76,
                    "time": 58.99999999999999,
                    "velocity": 0.5748031496062992,
                    "duration": 0.16458333333333286
                },
                {
                    "name": "E6",
                    "midi": 88,
                    "time": 58.99999999999999,
                    "velocity": 0.6850393700787402,
                    "duration": 0.16458333333333286
                },
                {
                    "name": "F5",
                    "midi": 77,
                    "time": 59.16666666666666,
                    "velocity": 0.6692913385826772,
                    "duration": 0.16458333333332575
                },
                {
                    "name": "A4",
                    "midi": 69,
                    "time": 59.249999999999986,
                    "velocity": 0.6299212598425197,
                    "duration": 0.24791666666666146
                },
                {
                    "name": "G5",
                    "midi": 79,
                    "time": 59.333333333333314,
                    "velocity": 0.5905511811023622,
                    "duration": 0.16458333333333286
                },
                {
                    "name": "C5",
                    "midi": 72,
                    "time": 59.49999999999998,
                    "velocity": 0.6692913385826772,
                    "duration": 0.24791666666666856
                },
                {
                    "name": "A5",
                    "midi": 81,
                    "time": 59.49999999999998,
                    "velocity": 0.6692913385826772,
                    "duration": 0.12291666666666856
                },
                {
                    "name": "B5",
                    "midi": 83,
                    "time": 59.62499999999998,
                    "velocity": 0.7086614173228346,
                    "duration": 0.12291666666666856
                },
                {
                    "name": "A4",
                    "midi": 69,
                    "time": 59.74999999999998,
                    "velocity": 0.5511811023622047,
                    "duration": 0.24791666666666856
                },
                {
                    "name": "C6",
                    "midi": 84,
                    "time": 59.74999999999998,
                    "velocity": 0.6456692913385826,
                    "duration": 0.12291666666666856
                },
                {
                    "name": "D6",
                    "midi": 86,
                    "time": 59.87499999999998,
                    "velocity": 0.7165354330708661,
                    "duration": 0.12291666666666856
                },
                {
                    "name": "C4",
                    "midi": 60,
                    "time": 59.99999999999998,
                    "velocity": 0.6062992125984252,
                    "duration": 0.24791666666666146
                },
                {
                    "name": "D#6",
                    "midi": 87,
                    "time": 59.99999999999998,
                    "velocity": 0.7165354330708661,
                    "duration": 0.24791666666666146
                },
                {
                    "name": "D#5",
                    "midi": 75,
                    "time": 59.99999999999998,
                    "velocity": 0.6771653543307087,
                    "duration": 0.7479166666666615
                },
                {
                    "name": "A#4",
                    "midi": 70,
                    "time": 60.24999999999997,
                    "velocity": 0.6141732283464567,
                    "duration": 0.24791666666666856
                },
                {
                    "name": "G#5",
                    "midi": 80,
                    "time": 60.24999999999997,
                    "velocity": 0.6850393700787402,
                    "duration": 0.24791666666666856
                },
                {
                    "name": "C5",
                    "midi": 72,
                    "time": 60.49999999999997,
                    "velocity": 0.6141732283464567,
                    "duration": 0.24791666666666856
                },
                {
                    "name": "D#5",
                    "midi": 75,
                    "time": 60.49999999999997,
                    "velocity": 0.6771653543307087,
                    "duration": 0.49791666666666856
                },
                {
                    "name": "A#4",
                    "midi": 70,
                    "time": 60.74999999999997,
                    "velocity": 0.49606299212598426,
                    "duration": 0.24791666666666856
                },
                {
                    "name": "G#5",
                    "midi": 80,
                    "time": 60.74999999999997,
                    "velocity": 0.7559055118110236,
                    "duration": 0.24791666666666856
                },
                {
                    "name": "F4",
                    "midi": 65,
                    "time": 60.99999999999997,
                    "velocity": 0.6535433070866141,
                    "duration": 0.24791666666666146
                },
                {
                    "name": "E6",
                    "midi": 88,
                    "time": 60.99999999999997,
                    "velocity": 0.6850393700787402,
                    "duration": 0.16458333333333286
                },
                {
                    "name": "E5",
                    "midi": 76,
                    "time": 60.99999999999997,
                    "velocity": 0.5748031496062992,
                    "duration": 0.16458333333333286
                },
                {
                    "name": "F5",
                    "midi": 77,
                    "time": 61.166666666666636,
                    "velocity": 0.6692913385826772,
                    "duration": 0.16458333333332575
                },
                {
                    "name": "A4",
                    "midi": 69,
                    "time": 61.249999999999964,
                    "velocity": 0.5039370078740157,
                    "duration": 0.24791666666666146
                },
                {
                    "name": "G5",
                    "midi": 79,
                    "time": 61.33333333333329,
                    "velocity": 0.5905511811023622,
                    "duration": 0.16458333333333286
                },
                {
                    "name": "C5",
                    "midi": 72,
                    "time": 61.49999999999996,
                    "velocity": 0.5669291338582677,
                    "duration": 0.24791666666666856
                },
                {
                    "name": "A5",
                    "midi": 81,
                    "time": 61.49999999999996,
                    "velocity": 0.6692913385826772,
                    "duration": 0.12291666666666856
                },
                {
                    "name": "B5",
                    "midi": 83,
                    "time": 61.62499999999996,
                    "velocity": 0.7086614173228346,
                    "duration": 0.12291666666666856
                },
                {
                    "name": "A4",
                    "midi": 69,
                    "time": 61.74999999999996,
                    "velocity": 0.5275590551181102,
                    "duration": 0.24791666666666856
                },
                {
                    "name": "C6",
                    "midi": 84,
                    "time": 61.74999999999996,
                    "velocity": 0.6456692913385826,
                    "duration": 0.12291666666666856
                },
                {
                    "name": "D6",
                    "midi": 86,
                    "time": 61.87499999999996,
                    "velocity": 0.7165354330708661,
                    "duration": 0.12291666666666856
                },
                {
                    "name": "C4",
                    "midi": 60,
                    "time": 61.99999999999996,
                    "velocity": 0.5669291338582677,
                    "duration": 0.24791666666666146
                },
                {
                    "name": "D#5",
                    "midi": 75,
                    "time": 61.99999999999996,
                    "velocity": 0.6771653543307087,
                    "duration": 0.7479166666666615
                },
                {
                    "name": "D#6",
                    "midi": 87,
                    "time": 61.99999999999996,
                    "velocity": 0.7165354330708661,
                    "duration": 0.24791666666666146
                },
                {
                    "name": "A#4",
                    "midi": 70,
                    "time": 62.24999999999995,
                    "velocity": 0.5905511811023622,
                    "duration": 0.24791666666666856
                },
                {
                    "name": "G#5",
                    "midi": 80,
                    "time": 62.24999999999995,
                    "velocity": 0.6850393700787402,
                    "duration": 0.24791666666666856
                },
                {
                    "name": "C5",
                    "midi": 72,
                    "time": 62.49999999999995,
                    "velocity": 0.5984251968503937,
                    "duration": 0.24791666666666856
                },
                {
                    "name": "D#5",
                    "midi": 75,
                    "time": 62.49999999999995,
                    "velocity": 0.6771653543307087,
                    "duration": 0.49791666666666856
                },
                {
                    "name": "A#4",
                    "midi": 70,
                    "time": 62.74999999999995,
                    "velocity": 0.3543307086614173,
                    "duration": 0.24791666666666856
                },
                {
                    "name": "G#5",
                    "midi": 80,
                    "time": 62.74999999999995,
                    "velocity": 0.7559055118110236,
                    "duration": 0.24791666666666856
                },
                {
                    "name": "F4",
                    "midi": 65,
                    "time": 62.99999999999995,
                    "velocity": 0.5984251968503937,
                    "duration": 0.24791666666666146
                },
                {
                    "name": "E6",
                    "midi": 88,
                    "time": 62.99999999999995,
                    "velocity": 0.7244094488188977,
                    "duration": 0.24791666666666146
                },
                {
                    "name": "E5",
                    "midi": 76,
                    "time": 62.99999999999995,
                    "velocity": 0.7401574803149606,
                    "duration": 0.7479166666666615
                },
                {
                    "name": "A4",
                    "midi": 69,
                    "time": 63.24999999999994,
                    "velocity": 0.5354330708661418,
                    "duration": 0.24791666666666856
                },
                {
                    "name": "A5",
                    "midi": 81,
                    "time": 63.24999999999994,
                    "velocity": 0.7401574803149606,
                    "duration": 0.24791666666666856
                },
                {
                    "name": "C5",
                    "midi": 72,
                    "time": 63.49999999999994,
                    "velocity": 0.7952755905511811,
                    "duration": 0.9979166666666686
                },
                {
                    "name": "E5",
                    "midi": 76,
                    "time": 63.49999999999994,
                    "velocity": 0.4881889763779528,
                    "duration": 0.49791666666666856
                },
                {
                    "name": "A4",
                    "midi": 69,
                    "time": 63.74999999999994,
                    "velocity": 0.5669291338582677,
                    "duration": 0.24791666666666856
                },
                {
                    "name": "A5",
                    "midi": 81,
                    "time": 63.74999999999994,
                    "velocity": 0.5905511811023622,
                    "duration": 0.24791666666666856
                },
                {
                    "name": "F4",
                    "midi": 65,
                    "time": 63.99999999999994,
                    "velocity": 0.6456692913385826,
                    "duration": 0.24791666666666856
                },
                {
                    "name": "E5",
                    "midi": 76,
                    "time": 63.99999999999994,
                    "velocity": 0.7401574803149606,
                    "duration": 0.7479166666666686
                },
                {
                    "name": "E6",
                    "midi": 88,
                    "time": 63.99999999999994,
                    "velocity": 0.6377952755905512,
                    "duration": 0.24791666666666856
                },
                {
                    "name": "A4",
                    "midi": 69,
                    "time": 64.24999999999994,
                    "velocity": 0.5905511811023622,
                    "duration": 0.24791666666666856
                },
                {
                    "name": "A#5",
                    "midi": 82,
                    "time": 64.24999999999994,
                    "velocity": 0.7322834645669292,
                    "duration": 0.24791666666666856
                },
                {
                    "name": "C#5",
                    "midi": 73,
                    "time": 64.49999999999994,
                    "velocity": 0.7716535433070866,
                    "duration": 0.5
                },
                {
                    "name": "E5",
                    "midi": 76,
                    "time": 64.49999999999994,
                    "velocity": 0.5354330708661418,
                    "duration": 0.49791666666666856
                },
                {
                    "name": "A4",
                    "midi": 69,
                    "time": 64.74999999999994,
                    "velocity": 0.48031496062992124,
                    "duration": 0.24791666666666856
                },
                {
                    "name": "A#5",
                    "midi": 82,
                    "time": 64.74999999999994,
                    "velocity": 0.6062992125984252,
                    "duration": 0.24791666666666856
                },
                {
                    "name": "C#5",
                    "midi": 73,
                    "time": 64.99999999999994,
                    "velocity": 0.6535433070866141,
                    "duration": 0.49791666666666856
                },
                {
                    "name": "F4",
                    "midi": 65,
                    "time": 64.99999999999994,
                    "velocity": 0.5039370078740157,
                    "duration": 0.24791666666666856
                },
                {
                    "name": "E5",
                    "midi": 76,
                    "time": 64.99999999999994,
                    "velocity": 0.7401574803149606,
                    "duration": 0.7479166666666686
                },
                {
                    "name": "E6",
                    "midi": 88,
                    "time": 64.99999999999994,
                    "velocity": 0.5748031496062992,
                    "duration": 0.24791666666666856
                },
                {
                    "name": "A4",
                    "midi": 69,
                    "time": 65.24999999999994,
                    "velocity": 0.5669291338582677,
                    "duration": 0.24791666666666856
                },
                {
                    "name": "B5",
                    "midi": 83,
                    "time": 65.24999999999994,
                    "velocity": 0.7401574803149606,
                    "duration": 0.24791666666666856
                },
                {
                    "name": "D5",
                    "midi": 74,
                    "time": 65.49999999999994,
                    "velocity": 0.7716535433070866,
                    "duration": 0.9979166666666686
                },
                {
                    "name": "E5",
                    "midi": 76,
                    "time": 65.49999999999994,
                    "velocity": 0.5984251968503937,
                    "duration": 0.49791666666666856
                },
                {
                    "name": "A4",
                    "midi": 69,
                    "time": 65.74999999999994,
                    "velocity": 0.4566929133858268,
                    "duration": 0.24791666666666856
                },
                {
                    "name": "B5",
                    "midi": 83,
                    "time": 65.74999999999994,
                    "velocity": 0.5905511811023622,
                    "duration": 0.24791666666666856
                },
                {
                    "name": "F4",
                    "midi": 65,
                    "time": 65.99999999999994,
                    "velocity": 0.6141732283464567,
                    "duration": 0.24791666666666856
                },
                {
                    "name": "E5",
                    "midi": 76,
                    "time": 65.99999999999994,
                    "velocity": 0.7401574803149606,
                    "duration": 0.7479166666666686
                },
                {
                    "name": "E6",
                    "midi": 88,
                    "time": 65.99999999999994,
                    "velocity": 0.6141732283464567,
                    "duration": 0.24791666666666856
                },
                {
                    "name": "A4",
                    "midi": 69,
                    "time": 66.24999999999994,
                    "velocity": 0.6141732283464567,
                    "duration": 0.24791666666666856
                },
                {
                    "name": "C6",
                    "midi": 84,
                    "time": 66.24999999999994,
                    "velocity": 0.7244094488188977,
                    "duration": 0.24791666666666856
                },
                {
                    "name": "D#5",
                    "midi": 75,
                    "time": 66.49999999999994,
                    "velocity": 0.6141732283464567,
                    "duration": 0.49791666666666856
                },
                {
                    "name": "E5",
                    "midi": 76,
                    "time": 66.49999999999994,
                    "velocity": 0.5039370078740157,
                    "duration": 0.49791666666666856
                },
                {
                    "name": "A4",
                    "midi": 69,
                    "time": 66.74999999999994,
                    "velocity": 0.4566929133858268,
                    "duration": 0.24791666666666856
                },
                {
                    "name": "C6",
                    "midi": 84,
                    "time": 66.74999999999994,
                    "velocity": 0.6299212598425197,
                    "duration": 0.24791666666666856
                },
                {
                    "name": "B3",
                    "midi": 59,
                    "time": 66.99999999999994,
                    "velocity": 0.4566929133858268,
                    "duration": 0.7479166666666686
                },
                {
                    "name": "E3",
                    "midi": 52,
                    "time": 66.99999999999994,
                    "velocity": 0.5354330708661418,
                    "duration": 0.7479166666666686
                },
                {
                    "name": "E5",
                    "midi": 76,
                    "time": 66.99999999999994,
                    "velocity": 0.6929133858267716,
                    "duration": 0.9979166666666686
                },
                {
                    "name": "E6",
                    "midi": 88,
                    "time": 66.99999999999994,
                    "velocity": 0.7716535433070866,
                    "duration": 0.9979166666666686
                },
                {
                    "name": "E4",
                    "midi": 64,
                    "time": 67.24999999999994,
                    "velocity": 0.5669291338582677,
                    "duration": 0.24791666666666856
                },
                {
                    "name": "G4",
                    "midi": 67,
                    "time": 67.49999999999994,
                    "velocity": 0.5275590551181102,
                    "duration": 0.24791666666666856
                },
                {
                    "name": "A#4",
                    "midi": 70,
                    "time": 67.74999999999994,
                    "velocity": 0.48031496062992124,
                    "duration": 0.24791666666666856
                },
                {
                    "name": "G4",
                    "midi": 67,
                    "time": 67.99999999999994,
                    "velocity": 0.5905511811023622,
                    "duration": 0.24791666666666856
                },
                {
                    "name": "D#6",
                    "midi": 87,
                    "time": 67.99999999999994,
                    "velocity": 0.6692913385826772,
                    "duration": 0.49791666666666856
                },
                {
                    "name": "D#5",
                    "midi": 75,
                    "time": 67.99999999999994,
                    "velocity": 0.6299212598425197,
                    "duration": 0.49791666666666856
                },
                {
                    "name": "E4",
                    "midi": 64,
                    "time": 68.24999999999994,
                    "velocity": 0.4409448818897638,
                    "duration": 0.24791666666666856
                },
                {
                    "name": "A3",
                    "midi": 57,
                    "time": 68.49999999999994,
                    "velocity": 0.4566929133858268,
                    "duration": 0.7479166666666686
                },
                {
                    "name": "F3",
                    "midi": 53,
                    "time": 68.49999999999994,
                    "velocity": 0.5196850393700787,
                    "duration": 0.7479166666666686
                },
                {
                    "name": "C6",
                    "midi": 84,
                    "time": 68.49999999999994,
                    "velocity": 0.6692913385826772,
                    "duration": 0.9979166666666686
                },
                {
                    "name": "C5",
                    "midi": 72,
                    "time": 68.49999999999994,
                    "velocity": 0.6692913385826772,
                    "duration": 0.9979166666666686
                },
                {
                    "name": "C4",
                    "midi": 60,
                    "time": 68.74999999999994,
                    "velocity": 0.49606299212598426,
                    "duration": 0.24791666666666856
                },
                {
                    "name": "F4",
                    "midi": 65,
                    "time": 68.99999999999994,
                    "velocity": 0.5669291338582677,
                    "duration": 0.24791666666666856
                },
                {
                    "name": "A4",
                    "midi": 69,
                    "time": 69.24999999999994,
                    "velocity": 0.5511811023622047,
                    "duration": 0.24791666666666856
                },
                {
                    "name": "F4",
                    "midi": 65,
                    "time": 69.49999999999994,
                    "velocity": 0.5984251968503937,
                    "duration": 0.24791666666666856
                },
                {
                    "name": "D6",
                    "midi": 86,
                    "time": 69.49999999999994,
                    "velocity": 0.6929133858267716,
                    "duration": 0.49791666666666856
                },
                {
                    "name": "D5",
                    "midi": 74,
                    "time": 69.49999999999994,
                    "velocity": 0.6614173228346457,
                    "duration": 0.49791666666666856
                },
                {
                    "name": "C4",
                    "midi": 60,
                    "time": 69.74999999999994,
                    "velocity": 0.4881889763779528,
                    "duration": 0.24791666666666856
                },
                {
                    "name": "E3",
                    "midi": 52,
                    "time": 69.99999999999994,
                    "velocity": 0.4566929133858268,
                    "duration": 0.7479166666666686
                },
                {
                    "name": "C3",
                    "midi": 48,
                    "time": 69.99999999999994,
                    "velocity": 0.48031496062992124,
                    "duration": 0.7479166666666686
                },
                {
                    "name": "B5",
                    "midi": 83,
                    "time": 69.99999999999994,
                    "velocity": 0.5354330708661418,
                    "duration": 0.49791666666666856
                },
                {
                    "name": "B4",
                    "midi": 71,
                    "time": 69.99999999999994,
                    "velocity": 0.5511811023622047,
                    "duration": 0.49791666666666856
                },
                {
                    "name": "G3",
                    "midi": 55,
                    "time": 70.24999999999994,
                    "velocity": 0.4881889763779528,
                    "duration": 0.24791666666666856
                },
                {
                    "name": "C4",
                    "midi": 60,
                    "time": 70.49999999999994,
                    "velocity": 0.6062992125984252,
                    "duration": 0.24791666666666856
                },
                {
                    "name": "C5",
                    "midi": 72,
                    "time": 70.49999999999994,
                    "velocity": 0.5275590551181102,
                    "duration": 0.24791666666666856
                },
                {
                    "name": "C6",
                    "midi": 84,
                    "time": 70.49999999999994,
                    "velocity": 0.6535433070866141,
                    "duration": 0.24791666666666856
                },
                {
                    "name": "E4",
                    "midi": 64,
                    "time": 70.74999999999994,
                    "velocity": 0.5275590551181102,
                    "duration": 0.24791666666666856
                },
                {
                    "name": "B5",
                    "midi": 83,
                    "time": 70.74999999999994,
                    "velocity": 0.7559055118110236,
                    "duration": 0.24791666666666856
                },
                {
                    "name": "B4",
                    "midi": 71,
                    "time": 70.74999999999994,
                    "velocity": 0.7086614173228346,
                    "duration": 0.24791666666666856
                },
                {
                    "name": "C4",
                    "midi": 60,
                    "time": 70.99999999999994,
                    "velocity": 0.5354330708661418,
                    "duration": 0.24791666666666856
                },
                {
                    "name": "A4",
                    "midi": 69,
                    "time": 70.99999999999994,
                    "velocity": 0.6062992125984252,
                    "duration": 0.24791666666666856
                },
                {
                    "name": "A5",
                    "midi": 81,
                    "time": 70.99999999999994,
                    "velocity": 0.7952755905511811,
                    "duration": 0.24791666666666856
                },
                {
                    "name": "G3",
                    "midi": 55,
                    "time": 71.24999999999994,
                    "velocity": 0.44881889763779526,
                    "duration": 0.24791666666666856
                },
                {
                    "name": "G5",
                    "midi": 79,
                    "time": 71.24999999999994,
                    "velocity": 0.7716535433070866,
                    "duration": 0.24791666666666856
                },
                {
                    "name": "G4",
                    "midi": 67,
                    "time": 71.24999999999994,
                    "velocity": 0.7244094488188977,
                    "duration": 0.24791666666666856
                },
                {
                    "name": "A3",
                    "midi": 57,
                    "time": 71.49999999999994,
                    "velocity": 0.47244094488188976,
                    "duration": 0.7479166666666686
                },
                {
                    "name": "D3",
                    "midi": 50,
                    "time": 71.49999999999994,
                    "velocity": 0.5511811023622047,
                    "duration": 0.7479166666666686
                },
                {
                    "name": "F4",
                    "midi": 65,
                    "time": 71.49999999999994,
                    "velocity": 0.7480314960629921,
                    "duration": 0.7479166666666686
                },
                {
                    "name": "F5",
                    "midi": 77,
                    "time": 71.49999999999994,
                    "velocity": 0.7480314960629921,
                    "duration": 0.9979166666666686
                },
                {
                    "name": "D4",
                    "midi": 62,
                    "time": 71.74999999999994,
                    "velocity": 0.5748031496062992,
                    "duration": 0.24791666666666856
                },
                {
                    "name": "F4",
                    "midi": 65,
                    "time": 71.99999999999994,
                    "velocity": 0.4881889763779528,
                    "duration": 0.49791666666666856
                },
                {
                    "name": "D4",
                    "midi": 62,
                    "time": 72.24999999999994,
                    "velocity": 0.4566929133858268,
                    "duration": 0.24791666666666856
                },
                {
                    "name": "A3",
                    "midi": 57,
                    "time": 72.49999999999994,
                    "velocity": 0.5118110236220472,
                    "duration": 0.24791666666666856
                },
                {
                    "name": "G5",
                    "midi": 79,
                    "time": 72.49999999999994,
                    "velocity": 0.6614173228346457,
                    "duration": 0.49791666666666856
                },
                {
                    "name": "G4",
                    "midi": 67,
                    "time": 72.49999999999994,
                    "velocity": 0.5511811023622047,
                    "duration": 0.49791666666666856
                },
                {
                    "name": "D3",
                    "midi": 50,
                    "time": 72.74999999999994,
                    "velocity": 0.4881889763779528,
                    "duration": 0.24791666666666856
                },
                {
                    "name": "A2",
                    "midi": 45,
                    "time": 72.99999999999994,
                    "velocity": 0.49606299212598426,
                    "duration": 0.7479166666666686
                },
                {
                    "name": "E3",
                    "midi": 52,
                    "time": 72.99999999999994,
                    "velocity": 0.4645669291338583,
                    "duration": 0.7479166666666686
                },
                {
                    "name": "A5",
                    "midi": 81,
                    "time": 72.99999999999994,
                    "velocity": 0.6929133858267716,
                    "duration": 0.9979166666666686
                },
                {
                    "name": "A4",
                    "midi": 69,
                    "time": 72.99999999999994,
                    "velocity": 0.6377952755905512,
                    "duration": 0.9979166666666686
                },
                {
                    "name": "A3",
                    "midi": 57,
                    "time": 73.24999999999994,
                    "velocity": 0.47244094488188976,
                    "duration": 0.24791666666666856
                },
                {
                    "name": "C4",
                    "midi": 60,
                    "time": 73.49999999999994,
                    "velocity": 0.4330708661417323,
                    "duration": 0.24791666666666856
                },
                {
                    "name": "E4",
                    "midi": 64,
                    "time": 73.74999999999994,
                    "velocity": 0.41732283464566927,
                    "duration": 0.24791666666666856
                },
                {
                    "name": "C4",
                    "midi": 60,
                    "time": 73.99999999999994,
                    "velocity": 0.4251968503937008,
                    "duration": 0.24791666666666856
                },
                {
                    "name": "G#5",
                    "midi": 80,
                    "time": 73.99999999999994,
                    "velocity": 0.6299212598425197,
                    "duration": 0.49791666666666856
                },
                {
                    "name": "G#4",
                    "midi": 68,
                    "time": 73.99999999999994,
                    "velocity": 0.47244094488188976,
                    "duration": 0.49791666666666856
                },
                {
                    "name": "A3",
                    "midi": 57,
                    "time": 74.24999999999994,
                    "velocity": 0.4015748031496063,
                    "duration": 0.24791666666666856
                },
                {
                    "name": "D3",
                    "midi": 50,
                    "time": 74.49999999999994,
                    "velocity": 0.5039370078740157,
                    "duration": 0.7479166666666686
                },
                {
                    "name": "A#2",
                    "midi": 46,
                    "time": 74.49999999999994,
                    "velocity": 0.4015748031496063,
                    "duration": 0.7479166666666686
                },
                {
                    "name": "F5",
                    "midi": 77,
                    "time": 74.49999999999994,
                    "velocity": 0.6850393700787402,
                    "duration": 0.9979166666666686
                },
                {
                    "name": "F4",
                    "midi": 65,
                    "time": 74.49999999999994,
                    "velocity": 0.6377952755905512,
                    "duration": 0.9979166666666686
                },
                {
                    "name": "F3",
                    "midi": 53,
                    "time": 74.74999999999994,
                    "velocity": 0.3464566929133858,
                    "duration": 0.24791666666666856
                },
                {
                    "name": "A#3",
                    "midi": 58,
                    "time": 74.99999999999994,
                    "velocity": 0.41732283464566927,
                    "duration": 0.24791666666666856
                },
                {
                    "name": "D4",
                    "midi": 62,
                    "time": 75.24999999999994,
                    "velocity": 0.4566929133858268,
                    "duration": 0.24791666666666856
                },
                {
                    "name": "A#3",
                    "midi": 58,
                    "time": 75.49999999999994,
                    "velocity": 0.3858267716535433,
                    "duration": 0.24791666666666856
                },
                {
                    "name": "G5",
                    "midi": 79,
                    "time": 75.49999999999994,
                    "velocity": 0.4881889763779528,
                    "duration": 0.49791666666666856
                },
                {
                    "name": "G4",
                    "midi": 67,
                    "time": 75.49999999999994,
                    "velocity": 0.4881889763779528,
                    "duration": 0.49791666666666856
                },
                {
                    "name": "F3",
                    "midi": 53,
                    "time": 75.74999999999994,
                    "velocity": 0.41732283464566927,
                    "duration": 0.24791666666666856
                },
                {
                    "name": "A2",
                    "midi": 45,
                    "time": 75.99999999999994,
                    "velocity": 0.4645669291338583,
                    "duration": 0.7479166666666686
                },
                {
                    "name": "F2",
                    "midi": 41,
                    "time": 75.99999999999994,
                    "velocity": 0.36220472440944884,
                    "duration": 0.7479166666666686
                },
                {
                    "name": "E5",
                    "midi": 76,
                    "time": 75.99999999999994,
                    "velocity": 0.5275590551181102,
                    "duration": 0.49791666666666856
                },
                {
                    "name": "E4",
                    "midi": 64,
                    "time": 75.99999999999994,
                    "velocity": 0.5984251968503937,
                    "duration": 0.49791666666666856
                },
                {
                    "name": "C3",
                    "midi": 48,
                    "time": 76.24999999999994,
                    "velocity": 0.4015748031496063,
                    "duration": 0.24791666666666856
                },
                {
                    "name": "F3",
                    "midi": 53,
                    "time": 76.49999999999994,
                    "velocity": 0.4881889763779528,
                    "duration": 0.24791666666666856
                },
                {
                    "name": "D6",
                    "midi": 86,
                    "time": 76.49999999999994,
                    "velocity": 0.7716535433070866,
                    "duration": 0.24791666666666856
                },
                {
                    "name": "D5",
                    "midi": 74,
                    "time": 76.49999999999994,
                    "velocity": 0.6692913385826772,
                    "duration": 0.24791666666666856
                },
                {
                    "name": "A3",
                    "midi": 57,
                    "time": 76.74999999999994,
                    "velocity": 0.47244094488188976,
                    "duration": 0.24791666666666856
                },
                {
                    "name": "C6",
                    "midi": 84,
                    "time": 76.74999999999994,
                    "velocity": 0.7401574803149606,
                    "duration": 0.24791666666666856
                },
                {
                    "name": "C5",
                    "midi": 72,
                    "time": 76.74999999999994,
                    "velocity": 0.6614173228346457,
                    "duration": 0.24791666666666856
                },
                {
                    "name": "F3",
                    "midi": 53,
                    "time": 76.99999999999994,
                    "velocity": 0.4409448818897638,
                    "duration": 0.24791666666666856
                },
                {
                    "name": "B4",
                    "midi": 71,
                    "time": 76.99999999999994,
                    "velocity": 0.6850393700787402,
                    "duration": 0.24791666666666856
                },
                {
                    "name": "B5",
                    "midi": 83,
                    "time": 76.99999999999994,
                    "velocity": 0.7480314960629921,
                    "duration": 0.24791666666666856
                },
                {
                    "name": "C3",
                    "midi": 48,
                    "time": 77.24999999999994,
                    "velocity": 0.6141732283464567,
                    "duration": 0.24791666666666856
                },
                {
                    "name": "A#5",
                    "midi": 82,
                    "time": 77.24999999999994,
                    "velocity": 0.7401574803149606,
                    "duration": 0.24791666666666856
                },
                {
                    "name": "A#4",
                    "midi": 70,
                    "time": 77.24999999999994,
                    "velocity": 0.5196850393700787,
                    "duration": 0.24791666666666856
                },
                {
                    "name": "A#2",
                    "midi": 46,
                    "time": 77.49999999999994,
                    "velocity": 0.3937007874015748,
                    "duration": 0.9979166666666686
                },
                {
                    "name": "F2",
                    "midi": 41,
                    "time": 77.49999999999994,
                    "velocity": 0.5905511811023622,
                    "duration": 0.9979166666666686
                },
                {
                    "name": "E5",
                    "midi": 76,
                    "time": 77.49999999999994,
                    "velocity": 0.6456692913385826,
                    "duration": 0.9979166666666686
                },
                {
                    "name": "E6",
                    "midi": 88,
                    "time": 77.49999999999994,
                    "velocity": 0.6692913385826772,
                    "duration": 0.9979166666666686
                },
                {
                    "name": "D3",
                    "midi": 50,
                    "time": 77.74999999999994,
                    "velocity": 0.5984251968503937,
                    "duration": 0.24791666666666856
                },
                {
                    "name": "G3",
                    "midi": 55,
                    "time": 77.99999999999994,
                    "velocity": 0.5905511811023622,
                    "duration": 0.24791666666666856
                },
                {
                    "name": "D4",
                    "midi": 62,
                    "time": 78.24999999999994,
                    "velocity": 0.5275590551181102,
                    "duration": 0.24791666666666856
                },
                {
                    "name": "C4",
                    "midi": 60,
                    "time": 78.49999999999994,
                    "velocity": 0.5905511811023622,
                    "duration": 0.24791666666666856
                },
                {
                    "name": "D#6",
                    "midi": 87,
                    "time": 78.49999999999994,
                    "velocity": 0.6299212598425197,
                    "duration": 0.49791666666666856
                },
                {
                    "name": "D#5",
                    "midi": 75,
                    "time": 78.49999999999994,
                    "velocity": 0.6141732283464567,
                    "duration": 0.49791666666666856
                },
                {
                    "name": "A#3",
                    "midi": 58,
                    "time": 78.74999999999994,
                    "velocity": 0.4881889763779528,
                    "duration": 0.24791666666666856
                },
                {
                    "name": "E6",
                    "midi": 88,
                    "time": 78.99999999999994,
                    "velocity": 0.5669291338582677,
                    "duration": 0.24791666666666856
                },
                {
                    "name": "E5",
                    "midi": 76,
                    "time": 78.99999999999994,
                    "velocity": 0.8661417322834646,
                    "duration": 0.9979166666666686
                },
                {
                    "name": "E2",
                    "midi": 40,
                    "time": 78.99999999999994,
                    "velocity": 0.6141732283464567,
                    "duration": 0.7479166666666686
                },
                {
                    "name": "B2",
                    "midi": 47,
                    "time": 78.99999999999994,
                    "velocity": 0.5354330708661418,
                    "duration": 0.7479166666666686
                },
                {
                    "name": "D#6",
                    "midi": 87,
                    "time": 79.24999999999994,
                    "velocity": 0.6456692913385826,
                    "duration": 0.24791666666666856
                },
                {
                    "name": "E3",
                    "midi": 52,
                    "time": 79.24999999999994,
                    "velocity": 0.6456692913385826,
                    "duration": 0.24791666666666856
                },
                {
                    "name": "D6",
                    "midi": 86,
                    "time": 79.49999999999994,
                    "velocity": 0.6535433070866141,
                    "duration": 0.24791666666666856
                },
                {
                    "name": "G3",
                    "midi": 55,
                    "time": 79.49999999999994,
                    "velocity": 0.6062992125984252,
                    "duration": 0.24791666666666856
                },
                {
                    "name": "C#6",
                    "midi": 85,
                    "time": 79.74999999999994,
                    "velocity": 0.6141732283464567,
                    "duration": 0.24791666666666856
                },
                {
                    "name": "A#3",
                    "midi": 58,
                    "time": 79.74999999999994,
                    "velocity": 0.5590551181102362,
                    "duration": 0.24791666666666856
                },
                {
                    "name": "C6",
                    "midi": 84,
                    "time": 79.99999999999994,
                    "velocity": 0.6220472440944882,
                    "duration": 0.24791666666666856
                },
                {
                    "name": "D#5",
                    "midi": 75,
                    "time": 79.99999999999994,
                    "velocity": 0.8031496062992126,
                    "duration": 0.49791666666666856
                },
                {
                    "name": "G3",
                    "midi": 55,
                    "time": 79.99999999999994,
                    "velocity": 0.6692913385826772,
                    "duration": 0.24791666666666856
                },
                {
                    "name": "B5",
                    "midi": 83,
                    "time": 80.24999999999994,
                    "velocity": 0.6062992125984252,
                    "duration": 0.24791666666666856
                },
                {
                    "name": "E3",
                    "midi": 52,
                    "time": 80.24999999999994,
                    "velocity": 0.5196850393700787,
                    "duration": 0.24791666666666856
                },
                {
                    "name": "A#5",
                    "midi": 82,
                    "time": 80.49999999999994,
                    "velocity": 0.6456692913385826,
                    "duration": 0.24791666666666856
                },
                {
                    "name": "C5",
                    "midi": 72,
                    "time": 80.49999999999994,
                    "velocity": 0.84251968503937,
                    "duration": 0.9979166666666686
                },
                {
                    "name": "F3",
                    "midi": 53,
                    "time": 80.49999999999994,
                    "velocity": 0.5984251968503937,
                    "duration": 0.7479166666666686
                },
                {
                    "name": "A3",
                    "midi": 57,
                    "time": 80.49999999999994,
                    "velocity": 0.5354330708661418,
                    "duration": 0.7479166666666686
                },
                {
                    "name": "A5",
                    "midi": 81,
                    "time": 80.74999999999994,
                    "velocity": 0.6220472440944882,
                    "duration": 0.24791666666666856
                },
                {
                    "name": "C4",
                    "midi": 60,
                    "time": 80.74999999999994,
                    "velocity": 0.5748031496062992,
                    "duration": 0.24791666666666856
                },
                {
                    "name": "B5",
                    "midi": 83,
                    "time": 80.99999999999994,
                    "velocity": 0.6614173228346457,
                    "duration": 0.24791666666666856
                },
                {
                    "name": "F4",
                    "midi": 65,
                    "time": 80.99999999999994,
                    "velocity": 0.6456692913385826,
                    "duration": 0.24791666666666856
                },
                {
                    "name": "C6",
                    "midi": 84,
                    "time": 81.24999999999994,
                    "velocity": 0.5905511811023622,
                    "duration": 0.24791666666666856
                },
                {
                    "name": "A4",
                    "midi": 69,
                    "time": 81.24999999999994,
                    "velocity": 0.6299212598425197,
                    "duration": 0.24791666666666856
                },
                {
                    "name": "B5",
                    "midi": 83,
                    "time": 81.49999999999994,
                    "velocity": 0.48031496062992124,
                    "duration": 0.24791666666666856
                },
                {
                    "name": "D5",
                    "midi": 74,
                    "time": 81.49999999999994,
                    "velocity": 0.8346456692913385,
                    "duration": 0.49791666666666856
                },
                {
                    "name": "F4",
                    "midi": 65,
                    "time": 81.49999999999994,
                    "velocity": 0.6771653543307087,
                    "duration": 0.24791666666666856
                },
                {
                    "name": "A5",
                    "midi": 81,
                    "time": 81.74999999999994,
                    "velocity": 0.5433070866141733,
                    "duration": 0.24791666666666856
                },
                {
                    "name": "C4",
                    "midi": 60,
                    "time": 81.74999999999994,
                    "velocity": 0.5669291338582677,
                    "duration": 0.24791666666666856
                },
                {
                    "name": "G5",
                    "midi": 79,
                    "time": 81.99999999999994,
                    "velocity": 0.5511811023622047,
                    "duration": 0.24791666666666856
                },
                {
                    "name": "B4",
                    "midi": 71,
                    "time": 81.99999999999994,
                    "velocity": 0.6299212598425197,
                    "duration": 0.49791666666666856
                },
                {
                    "name": "C3",
                    "midi": 48,
                    "time": 81.99999999999994,
                    "velocity": 0.5590551181102362,
                    "duration": 0.7479166666666686
                },
                {
                    "name": "E3",
                    "midi": 52,
                    "time": 81.99999999999994,
                    "velocity": 0.5354330708661418,
                    "duration": 0.7479166666666686
                },
                {
                    "name": "E5",
                    "midi": 76,
                    "time": 82.24999999999994,
                    "velocity": 0.3779527559055118,
                    "duration": 0.24791666666666856
                },
                {
                    "name": "G3",
                    "midi": 55,
                    "time": 82.24999999999994,
                    "velocity": 0.5669291338582677,
                    "duration": 0.24791666666666856
                },
                {
                    "name": "A5",
                    "midi": 81,
                    "time": 82.49999999999994,
                    "velocity": 0.49606299212598426,
                    "duration": 0.24791666666666856
                },
                {
                    "name": "C5",
                    "midi": 72,
                    "time": 82.49999999999994,
                    "velocity": 0.6062992125984252,
                    "duration": 0.24791666666666856
                },
                {
                    "name": "C4",
                    "midi": 60,
                    "time": 82.49999999999994,
                    "velocity": 0.6850393700787402,
                    "duration": 0.24791666666666856
                },
                {
                    "name": "G5",
                    "midi": 79,
                    "time": 82.74999999999994,
                    "velocity": 0.5984251968503937,
                    "duration": 0.24791666666666856
                },
                {
                    "name": "B4",
                    "midi": 71,
                    "time": 82.74999999999994,
                    "velocity": 0.7874015748031497,
                    "duration": 0.24791666666666856
                },
                {
                    "name": "E4",
                    "midi": 64,
                    "time": 82.74999999999994,
                    "velocity": 0.6062992125984252,
                    "duration": 0.24791666666666856
                },
                {
                    "name": "F5",
                    "midi": 77,
                    "time": 82.99999999999994,
                    "velocity": 0.5590551181102362,
                    "duration": 0.24791666666666856
                },
                {
                    "name": "A4",
                    "midi": 69,
                    "time": 82.99999999999994,
                    "velocity": 0.6850393700787402,
                    "duration": 0.24791666666666856
                },
                {
                    "name": "C4",
                    "midi": 60,
                    "time": 82.99999999999994,
                    "velocity": 0.6141732283464567,
                    "duration": 0.24791666666666856
                },
                {
                    "name": "E5",
                    "midi": 76,
                    "time": 83.24999999999994,
                    "velocity": 0.5275590551181102,
                    "duration": 0.24791666666666856
                },
                {
                    "name": "G4",
                    "midi": 67,
                    "time": 83.24999999999994,
                    "velocity": 0.8031496062992126,
                    "duration": 0.24791666666666856
                },
                {
                    "name": "G3",
                    "midi": 55,
                    "time": 83.24999999999994,
                    "velocity": 0.5275590551181102,
                    "duration": 0.24791666666666856
                },
                {
                    "name": "D5",
                    "midi": 74,
                    "time": 83.49999999999994,
                    "velocity": 0.5669291338582677,
                    "duration": 0.24791666666666856
                },
                {
                    "name": "F4",
                    "midi": 65,
                    "time": 83.49999999999994,
                    "velocity": 0.8267716535433071,
                    "duration": 0.7479166666666686
                },
                {
                    "name": "D3",
                    "midi": 50,
                    "time": 83.49999999999994,
                    "velocity": 0.6299212598425197,
                    "duration": 0.7479166666666686
                },
                {
                    "name": "A3",
                    "midi": 57,
                    "time": 83.49999999999994,
                    "velocity": 0.5511811023622047,
                    "duration": 0.7479166666666686
                },
                {
                    "name": "A4",
                    "midi": 69,
                    "time": 83.74999999999994,
                    "velocity": 0.47244094488188976,
                    "duration": 0.24791666666666856
                },
                {
                    "name": "D4",
                    "midi": 62,
                    "time": 83.74999999999994,
                    "velocity": 0.6535433070866141,
                    "duration": 0.24791666666666856
                },
                {
                    "name": "B4",
                    "midi": 71,
                    "time": 83.99999999999994,
                    "velocity": 0.4409448818897638,
                    "duration": 0.24791666666666856
                },
                {
                    "name": "F4",
                    "midi": 65,
                    "time": 83.99999999999994,
                    "velocity": 0.5669291338582677,
                    "duration": 0.49791666666666856
                },
                {
                    "name": "C5",
                    "midi": 72,
                    "time": 84.24999999999994,
                    "velocity": 0.47244094488188976,
                    "duration": 0.24791666666666856
                },
                {
                    "name": "D4",
                    "midi": 62,
                    "time": 84.24999999999994,
                    "velocity": 0.5354330708661418,
                    "duration": 0.24791666666666856
                },
                {
                    "name": "B4",
                    "midi": 71,
                    "time": 84.49999999999994,
                    "velocity": 0.5275590551181102,
                    "duration": 0.24791666666666856
                },
                {
                    "name": "G4",
                    "midi": 67,
                    "time": 84.49999999999994,
                    "velocity": 0.6299212598425197,
                    "duration": 0.49791666666666856
                },
                {
                    "name": "A3",
                    "midi": 57,
                    "time": 84.49999999999994,
                    "velocity": 0.5905511811023622,
                    "duration": 0.24791666666666856
                },
                {
                    "name": "F5",
                    "midi": 77,
                    "time": 84.74999999999994,
                    "velocity": 0.5196850393700787,
                    "duration": 0.24791666666666856
                },
                {
                    "name": "D3",
                    "midi": 50,
                    "time": 84.74999999999994,
                    "velocity": 0.5669291338582677,
                    "duration": 0.24791666666666856
                },
                {
                    "name": "C5",
                    "midi": 72,
                    "time": 84.99999999999994,
                    "velocity": 0.5511811023622047,
                    "duration": 0.24791666666666856
                },
                {
                    "name": "A4",
                    "midi": 69,
                    "time": 84.99999999999994,
                    "velocity": 0.7165354330708661,
                    "duration": 0.9979166666666686
                },
                {
                    "name": "E3",
                    "midi": 52,
                    "time": 84.99999999999994,
                    "velocity": 0.5433070866141733,
                    "duration": 0.7479166666666686
                },
                {
                    "name": "A2",
                    "midi": 45,
                    "time": 84.99999999999994,
                    "velocity": 0.5748031496062992,
                    "duration": 0.7479166666666686
                },
                {
                    "name": "A5",
                    "midi": 81,
                    "time": 85.24999999999994,
                    "velocity": 0.5590551181102362,
                    "duration": 0.24791666666666856
                },
                {
                    "name": "A3",
                    "midi": 57,
                    "time": 85.24999999999994,
                    "velocity": 0.5511811023622047,
                    "duration": 0.24791666666666856
                },
                {
                    "name": "G#5",
                    "midi": 80,
                    "time": 85.49999999999994,
                    "velocity": 0.5669291338582677,
                    "duration": 0.24791666666666856
                },
                {
                    "name": "C4",
                    "midi": 60,
                    "time": 85.49999999999994,
                    "velocity": 0.5118110236220472,
                    "duration": 0.24791666666666856
                },
                {
                    "name": "G5",
                    "midi": 79,
                    "time": 85.74999999999994,
                    "velocity": 0.5354330708661418,
                    "duration": 0.24791666666666856
                },
                {
                    "name": "E4",
                    "midi": 64,
                    "time": 85.74999999999994,
                    "velocity": 0.49606299212598426,
                    "duration": 0.24791666666666856
                },
                {
                    "name": "F5",
                    "midi": 77,
                    "time": 85.99999999999994,
                    "velocity": 0.5275590551181102,
                    "duration": 0.24791666666666856
                },
                {
                    "name": "G#4",
                    "midi": 68,
                    "time": 85.99999999999994,
                    "velocity": 0.5511811023622047,
                    "duration": 0.49791666666666856
                },
                {
                    "name": "C4",
                    "midi": 60,
                    "time": 85.99999999999994,
                    "velocity": 0.5039370078740157,
                    "duration": 0.24791666666666856
                },
                {
                    "name": "E5",
                    "midi": 76,
                    "time": 86.24999999999994,
                    "velocity": 0.44881889763779526,
                    "duration": 0.24791666666666856
                },
                {
                    "name": "A3",
                    "midi": 57,
                    "time": 86.24999999999994,
                    "velocity": 0.48031496062992124,
                    "duration": 0.24791666666666856
                },
                {
                    "name": "D#5",
                    "midi": 75,
                    "time": 86.49999999999994,
                    "velocity": 0.30708661417322836,
                    "duration": 0.24791666666666856
                },
                {
                    "name": "F4",
                    "midi": 65,
                    "time": 86.49999999999994,
                    "velocity": 0.7165354330708661,
                    "duration": 0.9979166666666686
                },
                {
                    "name": "A#2",
                    "midi": 46,
                    "time": 86.49999999999994,
                    "velocity": 0.48031496062992124,
                    "duration": 0.7479166666666686
                },
                {
                    "name": "D3",
                    "midi": 50,
                    "time": 86.49999999999994,
                    "velocity": 0.5826771653543307,
                    "duration": 0.7479166666666686
                },
                {
                    "name": "D5",
                    "midi": 74,
                    "time": 86.74999999999994,
                    "velocity": 0.5275590551181102,
                    "duration": 0.24791666666666856
                },
                {
                    "name": "F3",
                    "midi": 53,
                    "time": 86.74999999999994,
                    "velocity": 0.4251968503937008,
                    "duration": 0.24791666666666856
                },
                {
                    "name": "E5",
                    "midi": 76,
                    "time": 86.99999999999994,
                    "velocity": 0.5511811023622047,
                    "duration": 0.24791666666666856
                },
                {
                    "name": "A#3",
                    "midi": 58,
                    "time": 86.99999999999994,
                    "velocity": 0.49606299212598426,
                    "duration": 0.24791666666666856
                },
                {
                    "name": "F5",
                    "midi": 77,
                    "time": 87.24999999999994,
                    "velocity": 0.5511811023622047,
                    "duration": 0.24791666666666856
                },
                {
                    "name": "D4",
                    "midi": 62,
                    "time": 87.24999999999994,
                    "velocity": 0.5354330708661418,
                    "duration": 0.24791666666666856
                },
                {
                    "name": "E5",
                    "midi": 76,
                    "time": 87.49999999999994,
                    "velocity": 0.5354330708661418,
                    "duration": 0.24791666666666856
                },
                {
                    "name": "G4",
                    "midi": 67,
                    "time": 87.49999999999994,
                    "velocity": 0.5669291338582677,
                    "duration": 0.49791666666666856
                },
                {
                    "name": "A#3",
                    "midi": 58,
                    "time": 87.49999999999994,
                    "velocity": 0.4645669291338583,
                    "duration": 0.24791666666666856
                },
                {
                    "name": "D5",
                    "midi": 74,
                    "time": 87.74999999999994,
                    "velocity": 0.49606299212598426,
                    "duration": 0.24791666666666856
                },
                {
                    "name": "F3",
                    "midi": 53,
                    "time": 87.74999999999994,
                    "velocity": 0.49606299212598426,
                    "duration": 0.24791666666666856
                },
                {
                    "name": "C3",
                    "midi": 48,
                    "time": 87.99999999999994,
                    "velocity": 0.5433070866141733,
                    "duration": 0.7479166666666686
                },
                {
                    "name": "E4",
                    "midi": 64,
                    "time": 87.99999999999994,
                    "velocity": 0.6220472440944882,
                    "duration": 0.9979166666666686
                },
                {
                    "name": "C5",
                    "midi": 72,
                    "time": 87.99999999999994,
                    "velocity": 0.48031496062992124,
                    "duration": 0.24791666666666856
                },
                {
                    "name": "F2",
                    "midi": 41,
                    "time": 87.99999999999994,
                    "velocity": 0.4409448818897638,
                    "duration": 0.7479166666666686
                },
                {
                    "name": "F3",
                    "midi": 53,
                    "time": 88.24999999999994,
                    "velocity": 0.48031496062992124,
                    "duration": 0.24791666666666856
                },
                {
                    "name": "E5",
                    "midi": 76,
                    "time": 88.24999999999994,
                    "velocity": 0.4881889763779528,
                    "duration": 0.24791666666666856
                },
                {
                    "name": "A3",
                    "midi": 57,
                    "time": 88.49999999999994,
                    "velocity": 0.5669291338582677,
                    "duration": 0.24791666666666856
                },
                {
                    "name": "D5",
                    "midi": 74,
                    "time": 88.49999999999994,
                    "velocity": 0.5275590551181102,
                    "duration": 0.24791666666666856
                },
                {
                    "name": "C4",
                    "midi": 60,
                    "time": 88.74999999999994,
                    "velocity": 0.5511811023622047,
                    "duration": 0.24791666666666856
                },
                {
                    "name": "C5",
                    "midi": 72,
                    "time": 88.74999999999994,
                    "velocity": 0.5275590551181102,
                    "duration": 0.24791666666666856
                },
                {
                    "name": "A3",
                    "midi": 57,
                    "time": 88.99999999999994,
                    "velocity": 0.5196850393700787,
                    "duration": 0.24791666666666856
                },
                {
                    "name": "D#4",
                    "midi": 63,
                    "time": 88.99999999999994,
                    "velocity": 0.6141732283464567,
                    "duration": 0.49791666666666856
                },
                {
                    "name": "B4",
                    "midi": 71,
                    "time": 88.99999999999994,
                    "velocity": 0.5275590551181102,
                    "duration": 0.24791666666666856
                },
                {
                    "name": "F3",
                    "midi": 53,
                    "time": 89.24999999999994,
                    "velocity": 0.6929133858267716,
                    "duration": 0.24791666666666856
                },
                {
                    "name": "A4",
                    "midi": 69,
                    "time": 89.24999999999994,
                    "velocity": 0.47244094488188976,
                    "duration": 0.24791666666666856
                },
                {
                    "name": "B2",
                    "midi": 47,
                    "time": 89.49999999999994,
                    "velocity": 0.47244094488188976,
                    "duration": 0.9979166666666686
                },
                {
                    "name": "B4",
                    "midi": 71,
                    "time": 89.49999999999994,
                    "velocity": 0.5511811023622047,
                    "duration": 0.24791666666666856
                },
                {
                    "name": "D4",
                    "midi": 62,
                    "time": 89.49999999999994,
                    "velocity": 0.7244094488188977,
                    "duration": 0.9979166666666686
                },
                {
                    "name": "F2",
                    "midi": 41,
                    "time": 89.49999999999994,
                    "velocity": 0.6692913385826772,
                    "duration": 0.9979166666666686
                },
                {
                    "name": "D5",
                    "midi": 74,
                    "time": 89.74999999999994,
                    "velocity": 0.5590551181102362,
                    "duration": 0.24791666666666856
                },
                {
                    "name": "D3",
                    "midi": 50,
                    "time": 89.74999999999994,
                    "velocity": 0.6771653543307087,
                    "duration": 0.24791666666666856
                },
                {
                    "name": "C5",
                    "midi": 72,
                    "time": 89.99999999999994,
                    "velocity": 0.5511811023622047,
                    "duration": 0.24791666666666856
                },
                {
                    "name": "G3",
                    "midi": 55,
                    "time": 89.99999999999994,
                    "velocity": 0.6692913385826772,
                    "duration": 0.24791666666666856
                },
                {
                    "name": "B3",
                    "midi": 59,
                    "time": 90.24999999999994,
                    "velocity": 0.6062992125984252,
                    "duration": 0.24791666666666856
                },
                {
                    "name": "B4",
                    "midi": 71,
                    "time": 90.24999999999994,
                    "velocity": 0.44881889763779526,
                    "duration": 0.24791666666666856
                },
                {
                    "name": "G3",
                    "midi": 55,
                    "time": 90.49999999999994,
                    "velocity": 0.6692913385826772,
                    "duration": 0.24791666666666856
                },
                {
                    "name": "A4",
                    "midi": 69,
                    "time": 90.49999999999994,
                    "velocity": 0.5905511811023622,
                    "duration": 0.24791666666666856
                },
                {
                    "name": "C#4",
                    "midi": 61,
                    "time": 90.49999999999994,
                    "velocity": 0.6929133858267716,
                    "duration": 0.49791666666666856
                },
                {
                    "name": "D3",
                    "midi": 50,
                    "time": 90.74999999999994,
                    "velocity": 0.5669291338582677,
                    "duration": 0.24791666666666856
                },
                {
                    "name": "G4",
                    "midi": 67,
                    "time": 90.74999999999994,
                    "velocity": 0.4881889763779528,
                    "duration": 0.24791666666666856
                },
                {
                    "name": "A2",
                    "midi": 45,
                    "time": 90.99999999999994,
                    "velocity": 0.5118110236220472,
                    "duration": 0.24791666666666856
                },
                {
                    "name": "F2",
                    "midi": 41,
                    "time": 90.99999999999994,
                    "velocity": 0.5196850393700787,
                    "duration": 0.24791666666666856
                },
                {
                    "name": "C4",
                    "midi": 60,
                    "time": 90.99999999999994,
                    "velocity": 0.6377952755905512,
                    "duration": 0.9979166666666686
                },
                {
                    "name": "A4",
                    "midi": 69,
                    "time": 90.99999999999994,
                    "velocity": 0.5905511811023622,
                    "duration": 0.24791666666666856
                },
                {
                    "name": "C3",
                    "midi": 48,
                    "time": 91.24999999999994,
                    "velocity": 0.5354330708661418,
                    "duration": 0.24791666666666856
                },
                {
                    "name": "C5",
                    "midi": 72,
                    "time": 91.24999999999994,
                    "velocity": 0.49606299212598426,
                    "duration": 0.24791666666666856
                },
                {
                    "name": "F3",
                    "midi": 53,
                    "time": 91.49999999999994,
                    "velocity": 0.5511811023622047,
                    "duration": 0.24791666666666856
                },
                {
                    "name": "B4",
                    "midi": 71,
                    "time": 91.49999999999994,
                    "velocity": 0.5354330708661418,
                    "duration": 0.24791666666666856
                },
                {
                    "name": "A3",
                    "midi": 57,
                    "time": 91.74999999999994,
                    "velocity": 0.49606299212598426,
                    "duration": 0.24791666666666856
                },
                {
                    "name": "A4",
                    "midi": 69,
                    "time": 91.74999999999994,
                    "velocity": 0.3937007874015748,
                    "duration": 0.24791666666666856
                },
                {
                    "name": "F3",
                    "midi": 53,
                    "time": 91.99999999999994,
                    "velocity": 0.5354330708661418,
                    "duration": 0.24791666666666856
                },
                {
                    "name": "B3",
                    "midi": 59,
                    "time": 91.99999999999994,
                    "velocity": 0.7795275590551181,
                    "duration": 0.49791666666666856
                },
                {
                    "name": "G4",
                    "midi": 67,
                    "time": 91.99999999999994,
                    "velocity": 0.49606299212598426,
                    "duration": 0.24791666666666856
                },
                {
                    "name": "C3",
                    "midi": 48,
                    "time": 92.24999999999994,
                    "velocity": 0.48031496062992124,
                    "duration": 0.24791666666666856
                },
                {
                    "name": "F4",
                    "midi": 65,
                    "time": 92.24999999999994,
                    "velocity": 0.48031496062992124,
                    "duration": 0.24791666666666856
                },
                {
                    "name": "C#3",
                    "midi": 49,
                    "time": 92.49999999999994,
                    "velocity": 0.47244094488188976,
                    "duration": 0.24791666666666856
                },
                {
                    "name": "A#3",
                    "midi": 58,
                    "time": 92.49999999999994,
                    "velocity": 0.7637795275590551,
                    "duration": 1.4979166666666686
                },
                {
                    "name": "G4",
                    "midi": 67,
                    "time": 92.49999999999994,
                    "velocity": 0.5590551181102362,
                    "duration": 0.24791666666666856
                },
                {
                    "name": "C#2",
                    "midi": 37,
                    "time": 92.74999999999994,
                    "velocity": 0.47244094488188976,
                    "duration": 0.24791666666666856
                },
                {
                    "name": "A#4",
                    "midi": 70,
                    "time": 92.74999999999994,
                    "velocity": 0.5511811023622047,
                    "duration": 0.24791666666666856
                },
                {
                    "name": "C3",
                    "midi": 48,
                    "time": 92.99999999999994,
                    "velocity": 0.5275590551181102,
                    "duration": 0.24791666666666856
                },
                {
                    "name": "A4",
                    "midi": 69,
                    "time": 92.99999999999994,
                    "velocity": 0.5196850393700787,
                    "duration": 0.24791666666666856
                },
                {
                    "name": "C2",
                    "midi": 36,
                    "time": 93.24999999999994,
                    "velocity": 0.4881889763779528,
                    "duration": 0.24791666666666856
                },
                {
                    "name": "G4",
                    "midi": 67,
                    "time": 93.24999999999994,
                    "velocity": 0.5669291338582677,
                    "duration": 0.24791666666666856
                },
                {
                    "name": "A3",
                    "midi": 57,
                    "time": 93.49999999999994,
                    "velocity": 0.4566929133858268,
                    "duration": 0.24791666666666856
                },
                {
                    "name": "F4",
                    "midi": 65,
                    "time": 93.49999999999994,
                    "velocity": 0.5748031496062992,
                    "duration": 0.24791666666666856
                },
                {
                    "name": "G#3",
                    "midi": 56,
                    "time": 93.74999999999994,
                    "velocity": 0.47244094488188976,
                    "duration": 0.24791666666666856
                },
                {
                    "name": "E4",
                    "midi": 64,
                    "time": 93.74999999999994,
                    "velocity": 0.48031496062992124,
                    "duration": 0.24791666666666856
                },
                {
                    "name": "A#1",
                    "midi": 34,
                    "time": 94.49999999999994,
                    "velocity": 0.5275590551181102,
                    "duration": 0.24791666666666856
                },
                {
                    "name": "F5",
                    "midi": 77,
                    "time": 94.74999999999994,
                    "velocity": 0.5511811023622047,
                    "duration": 0.24791666666666856
                },
                {
                    "name": "A2",
                    "midi": 45,
                    "time": 94.74999999999994,
                    "velocity": 0.6220472440944882,
                    "duration": 0.24791666666666856
                },
                {
                    "name": "F4",
                    "midi": 65,
                    "time": 94.74999999999994,
                    "velocity": 0.8110236220472441,
                    "duration": 0.7479166666666686
                },
                {
                    "name": "E5",
                    "midi": 76,
                    "time": 94.99999999999994,
                    "velocity": 0.5275590551181102,
                    "duration": 0.24791666666666856
                },
                {
                    "name": "C3",
                    "midi": 48,
                    "time": 94.99999999999994,
                    "velocity": 0.6062992125984252,
                    "duration": 0.24791666666666856
                },
                {
                    "name": "D5",
                    "midi": 74,
                    "time": 95.24999999999994,
                    "velocity": 0.5275590551181102,
                    "duration": 0.24791666666666856
                },
                {
                    "name": "F3",
                    "midi": 53,
                    "time": 95.24999999999994,
                    "velocity": 0.5905511811023622,
                    "duration": 0.24791666666666856
                },
                {
                    "name": "C#5",
                    "midi": 73,
                    "time": 95.49999999999994,
                    "velocity": 0.5275590551181102,
                    "duration": 0.24791666666666856
                },
                {
                    "name": "A3",
                    "midi": 57,
                    "time": 95.49999999999994,
                    "velocity": 0.5669291338582677,
                    "duration": 0.24791666666666856
                },
                {
                    "name": "E4",
                    "midi": 64,
                    "time": 95.49999999999994,
                    "velocity": 0.7716535433070866,
                    "duration": 0.49791666666666856
                },
                {
                    "name": "C5",
                    "midi": 72,
                    "time": 95.74999999999994,
                    "velocity": 0.5354330708661418,
                    "duration": 0.24791666666666856
                },
                {
                    "name": "C4",
                    "midi": 60,
                    "time": 95.74999999999994,
                    "velocity": 0.5590551181102362,
                    "duration": 0.24791666666666856
                },
                {
                    "name": "B4",
                    "midi": 71,
                    "time": 95.99999999999994,
                    "velocity": 0.36220472440944884,
                    "duration": 0.24791666666666856
                },
                {
                    "name": "F3",
                    "midi": 53,
                    "time": 95.99999999999994,
                    "velocity": 0.6141732283464567,
                    "duration": 0.24791666666666856
                },
                {
                    "name": "C#4",
                    "midi": 61,
                    "time": 95.99999999999994,
                    "velocity": 0.7480314960629921,
                    "duration": 0.9979166666666686
                },
                {
                    "name": "A#4",
                    "midi": 70,
                    "time": 96.24999999999994,
                    "velocity": 0.44881889763779526,
                    "duration": 0.24791666666666856
                },
                {
                    "name": "A#3",
                    "midi": 58,
                    "time": 96.24999999999994,
                    "velocity": 0.5196850393700787,
                    "duration": 0.24791666666666856
                },
                {
                    "name": "C5",
                    "midi": 72,
                    "time": 96.49999999999994,
                    "velocity": 0.5590551181102362,
                    "duration": 0.24791666666666856
                },
                {
                    "name": "A3",
                    "midi": 57,
                    "time": 96.49999999999994,
                    "velocity": 0.5196850393700787,
                    "duration": 0.24791666666666856
                },
                {
                    "name": "C#5",
                    "midi": 73,
                    "time": 96.74999999999994,
                    "velocity": 0.5275590551181102,
                    "duration": 0.24791666666666856
                },
                {
                    "name": "G#3",
                    "midi": 56,
                    "time": 96.74999999999994,
                    "velocity": 0.5511811023622047,
                    "duration": 0.24791666666666856
                },
                {
                    "name": "C5",
                    "midi": 72,
                    "time": 96.99999999999994,
                    "velocity": 0.5354330708661418,
                    "duration": 0.24791666666666856
                },
                {
                    "name": "G3",
                    "midi": 55,
                    "time": 96.99999999999994,
                    "velocity": 0.49606299212598426,
                    "duration": 0.24791666666666856
                },
                {
                    "name": "D#4",
                    "midi": 63,
                    "time": 96.99999999999994,
                    "velocity": 0.7322834645669292,
                    "duration": 0.49791666666666856
                },
                {
                    "name": "A#4",
                    "midi": 70,
                    "time": 97.24999999999994,
                    "velocity": 0.49606299212598426,
                    "duration": 0.24791666666666856
                },
                {
                    "name": "F#3",
                    "midi": 54,
                    "time": 97.24999999999994,
                    "velocity": 0.5275590551181102,
                    "duration": 0.24791666666666856
                },
                {
                    "name": "A4",
                    "midi": 69,
                    "time": 97.49999999999994,
                    "velocity": 0.44881889763779526,
                    "duration": 0.24791666666666856
                },
                {
                    "name": "A#1",
                    "midi": 34,
                    "time": 97.49999999999994,
                    "velocity": 0.6062992125984252,
                    "duration": 0.24791666666666856
                },
                {
                    "name": "C4",
                    "midi": 60,
                    "time": 97.49999999999994,
                    "velocity": 0.7952755905511811,
                    "duration": 0.49791666666666856
                },
                {
                    "name": "F#4",
                    "midi": 66,
                    "time": 97.74999999999994,
                    "velocity": 0.48031496062992124,
                    "duration": 0.24791666666666856
                },
                {
                    "name": "A#2",
                    "midi": 46,
                    "time": 97.74999999999994,
                    "velocity": 0.5354330708661418,
                    "duration": 0.24791666666666856
                },
                {
                    "name": "G4",
                    "midi": 67,
                    "time": 97.99999999999994,
                    "velocity": 0.5275590551181102,
                    "duration": 0.24791666666666856
                },
                {
                    "name": "B2",
                    "midi": 47,
                    "time": 97.99999999999994,
                    "velocity": 0.5275590551181102,
                    "duration": 0.24791666666666856
                },
                {
                    "name": "B3",
                    "midi": 59,
                    "time": 97.99999999999994,
                    "velocity": 0.7952755905511811,
                    "duration": 0.49791666666666856
                },
                {
                    "name": "E4",
                    "midi": 64,
                    "time": 98.24999999999994,
                    "velocity": 0.44881889763779526,
                    "duration": 0.24791666666666856
                },
                {
                    "name": "C3",
                    "midi": 48,
                    "time": 98.24999999999994,
                    "velocity": 0.5354330708661418,
                    "duration": 0.24791666666666856
                },
                {
                    "name": "F4",
                    "midi": 65,
                    "time": 98.49999999999994,
                    "velocity": 0.5354330708661418,
                    "duration": 0.24791666666666856
                },
                {
                    "name": "C#3",
                    "midi": 49,
                    "time": 98.49999999999994,
                    "velocity": 0.5669291338582677,
                    "duration": 0.24791666666666856
                },
                {
                    "name": "A3",
                    "midi": 57,
                    "time": 98.49999999999994,
                    "velocity": 0.7716535433070866,
                    "duration": 0.49791666666666856
                },
                {
                    "name": "B3",
                    "midi": 59,
                    "time": 98.74999999999994,
                    "velocity": 0.4566929133858268,
                    "duration": 0.24791666666666856
                },
                {
                    "name": "D3",
                    "midi": 50,
                    "time": 98.74999999999994,
                    "velocity": 0.5748031496062992,
                    "duration": 0.24791666666666856
                },
                {
                    "name": "E2",
                    "midi": 40,
                    "time": 98.99999999999994,
                    "velocity": 0.5511811023622047,
                    "duration": 0.49791666666666856
                },
                {
                    "name": "D#3",
                    "midi": 51,
                    "time": 98.99999999999994,
                    "velocity": 0.44881889763779526,
                    "duration": 0.49791666666666856
                },
                {
                    "name": "G3",
                    "midi": 55,
                    "time": 99.49999999999994,
                    "velocity": 0.5354330708661418,
                    "duration": 0.9979166666666686
                },
                {
                    "name": "B3",
                    "midi": 59,
                    "time": 99.49999999999994,
                    "velocity": 0.5511811023622047,
                    "duration": 0.9979166666666686
                },
                {
                    "name": "E4",
                    "midi": 64,
                    "time": 99.49999999999994,
                    "velocity": 0.4330708661417323,
                    "duration": 0.9979166666666686
                },
                {
                    "name": "D3",
                    "midi": 50,
                    "time": 100.49999999999994,
                    "velocity": 0.6062992125984252,
                    "duration": 0.9979166666666686
                },
                {
                    "name": "E2",
                    "midi": 40,
                    "time": 100.49999999999994,
                    "velocity": 0.6141732283464567,
                    "duration": 0.9979166666666686
                },
                {
                    "name": "E4",
                    "midi": 64,
                    "time": 101.49999999999994,
                    "velocity": 0.5511811023622047,
                    "duration": 0.49791666666666856
                },
                {
                    "name": "B3",
                    "midi": 59,
                    "time": 101.49999999999994,
                    "velocity": 0.6377952755905512,
                    "duration": 0.49791666666666856
                },
                {
                    "name": "G3",
                    "midi": 55,
                    "time": 101.49999999999994,
                    "velocity": 0.6062992125984252,
                    "duration": 0.49791666666666856
                },
                {
                    "name": "E2",
                    "midi": 40,
                    "time": 101.99999999999994,
                    "velocity": 0.7322834645669292,
                    "duration": 0.49791666666666856
                },
                {
                    "name": "C3",
                    "midi": 48,
                    "time": 101.99999999999994,
                    "velocity": 0.7322834645669292,
                    "duration": 0.49791666666666856
                },
                {
                    "name": "E4",
                    "midi": 64,
                    "time": 102.49999999999994,
                    "velocity": 0.6141732283464567,
                    "duration": 0.49791666666666856
                },
                {
                    "name": "B3",
                    "midi": 59,
                    "time": 102.49999999999994,
                    "velocity": 0.7716535433070866,
                    "duration": 0.49791666666666856
                },
                {
                    "name": "G3",
                    "midi": 55,
                    "time": 102.49999999999994,
                    "velocity": 0.7716535433070866,
                    "duration": 0.49791666666666856
                },
                {
                    "name": "E5",
                    "midi": 76,
                    "time": 102.99999999999994,
                    "velocity": 0.7559055118110236,
                    "duration": 0.12291666666666856
                },
                {
                    "name": "E4",
                    "midi": 64,
                    "time": 103.12499999999994,
                    "velocity": 0.6850393700787402,
                    "duration": 0.12291666666666856
                },
                {
                    "name": "D#4",
                    "midi": 63,
                    "time": 103.24999999999994,
                    "velocity": 0.5905511811023622,
                    "duration": 0.12291666666666856
                },
                {
                    "name": "E4",
                    "midi": 64,
                    "time": 103.37499999999994,
                    "velocity": 0.6692913385826772,
                    "duration": 0.12291666666666856
                },
                {
                    "name": "C#2",
                    "midi": 37,
                    "time": 103.49999999999994,
                    "velocity": 0.7716535433070866,
                    "duration": 0.49791666666666856
                },
                {
                    "name": "C#3",
                    "midi": 49,
                    "time": 103.49999999999994,
                    "velocity": 0.6850393700787402,
                    "duration": 0.49791666666666856
                },
                {
                    "name": "C#4",
                    "midi": 61,
                    "time": 103.49999999999994,
                    "velocity": 0.6850393700787402,
                    "duration": 0.49791666666666856
                },
                {
                    "name": "F4",
                    "midi": 65,
                    "time": 103.49999999999994,
                    "velocity": 0.7559055118110236,
                    "duration": 0.49791666666666856
                },
                {
                    "name": "G#3",
                    "midi": 56,
                    "time": 103.49999999999994,
                    "velocity": 0.6771653543307087,
                    "duration": 0.49791666666666856
                },
                {
                    "name": "C#4",
                    "midi": 61,
                    "time": 103.99999999999994,
                    "velocity": 0.7322834645669292,
                    "duration": 1.4979166666666686
                },
                {
                    "name": "F4",
                    "midi": 65,
                    "time": 103.99999999999994,
                    "velocity": 0.7401574803149606,
                    "duration": 1.4979166666666686
                },
                {
                    "name": "G#3",
                    "midi": 56,
                    "time": 103.99999999999994,
                    "velocity": 0.7559055118110236,
                    "duration": 1.4979166666666686
                },
                {
                    "name": "F6",
                    "midi": 89,
                    "time": 103.99999999999994,
                    "velocity": 0.9291338582677166,
                    "duration": 0.12291666666666856
                },
                {
                    "name": "F5",
                    "midi": 77,
                    "time": 104.12499999999994,
                    "velocity": 0.6141732283464567,
                    "duration": 0.12291666666666856
                },
                {
                    "name": "A#4",
                    "midi": 70,
                    "time": 104.24999999999994,
                    "velocity": 0.8267716535433071,
                    "duration": 0.12291666666666856
                },
                {
                    "name": "B4",
                    "midi": 71,
                    "time": 104.37499999999994,
                    "velocity": 0.8031496062992126,
                    "duration": 0.12291666666666856
                },
                {
                    "name": "C5",
                    "midi": 72,
                    "time": 104.49999999999994,
                    "velocity": 0.8818897637795275,
                    "duration": 0.49791666666666856
                },
                {
                    "name": "F#3",
                    "midi": 54,
                    "time": 104.99999999999994,
                    "velocity": 0.5984251968503937,
                    "duration": 0.9979166666666686
                },
                {
                    "name": "C#4",
                    "midi": 61,
                    "time": 105.49999999999994,
                    "velocity": 0.4094488188976378,
                    "duration": 0.49791666666666856
                },
                {
                    "name": "A3",
                    "midi": 57,
                    "time": 105.49999999999994,
                    "velocity": 0.4409448818897638,
                    "duration": 0.49791666666666856
                },
                {
                    "name": "E4",
                    "midi": 64,
                    "time": 105.49999999999994,
                    "velocity": 0.4566929133858268,
                    "duration": 0.49791666666666856
                },
                {
                    "name": "D#4",
                    "midi": 63,
                    "time": 105.99999999999994,
                    "velocity": 0.44881889763779526,
                    "duration": 0.49791666666666856
                },
                {
                    "name": "F#4",
                    "midi": 66,
                    "time": 105.99999999999994,
                    "velocity": 0.5748031496062992,
                    "duration": 0.49791666666666856
                },
                {
                    "name": "A#3",
                    "midi": 58,
                    "time": 105.99999999999994,
                    "velocity": 0.48031496062992124,
                    "duration": 0.49791666666666856
                },
                {
                    "name": "C#4",
                    "midi": 61,
                    "time": 105.99999999999994,
                    "velocity": 0.48031496062992124,
                    "duration": 0.49791666666666856
                },
                {
                    "name": "E3",
                    "midi": 52,
                    "time": 106.49999999999994,
                    "velocity": 0.5748031496062992,
                    "duration": 0.49791666666666856
                },
                {
                    "name": "B3",
                    "midi": 59,
                    "time": 106.99999999999994,
                    "velocity": 0.5196850393700787,
                    "duration": 0.9979166666666686
                },
                {
                    "name": "E4",
                    "midi": 64,
                    "time": 106.99999999999994,
                    "velocity": 0.5511811023622047,
                    "duration": 0.9979166666666686
                },
                {
                    "name": "G3",
                    "midi": 55,
                    "time": 106.99999999999994,
                    "velocity": 0.5118110236220472,
                    "duration": 0.9979166666666686
                },
                {
                    "name": "D#3",
                    "midi": 51,
                    "time": 107.99999999999994,
                    "velocity": 0.6299212598425197,
                    "duration": 0.9979166666666686
                },
                {
                    "name": "E2",
                    "midi": 40,
                    "time": 107.99999999999994,
                    "velocity": 0.7559055118110236,
                    "duration": 0.9979166666666686
                },
                {
                    "name": "B3",
                    "midi": 59,
                    "time": 108.99999999999994,
                    "velocity": 0.5984251968503937,
                    "duration": 0.49791666666666856
                },
                {
                    "name": "G3",
                    "midi": 55,
                    "time": 108.99999999999994,
                    "velocity": 0.6299212598425197,
                    "duration": 0.49791666666666856
                },
                {
                    "name": "E4",
                    "midi": 64,
                    "time": 108.99999999999994,
                    "velocity": 0.6850393700787402,
                    "duration": 0.49791666666666856
                },
                {
                    "name": "E2",
                    "midi": 40,
                    "time": 109.49999999999994,
                    "velocity": 0.6456692913385826,
                    "duration": 0.49791666666666856
                },
                {
                    "name": "D3",
                    "midi": 50,
                    "time": 109.49999999999994,
                    "velocity": 0.6850393700787402,
                    "duration": 0.49791666666666856
                },
                {
                    "name": "E4",
                    "midi": 64,
                    "time": 109.99999999999994,
                    "velocity": 0.7086614173228346,
                    "duration": 0.49791666666666856
                },
                {
                    "name": "B3",
                    "midi": 59,
                    "time": 109.99999999999994,
                    "velocity": 0.7086614173228346,
                    "duration": 0.49791666666666856
                },
                {
                    "name": "G3",
                    "midi": 55,
                    "time": 109.99999999999994,
                    "velocity": 0.7244094488188977,
                    "duration": 0.49791666666666856
                },
                {
                    "name": "E5",
                    "midi": 76,
                    "time": 110.49999999999994,
                    "velocity": 0.8976377952755905,
                    "duration": 0.12291666666666856
                },
                {
                    "name": "E4",
                    "midi": 64,
                    "time": 110.62499999999994,
                    "velocity": 0.7952755905511811,
                    "duration": 0.12291666666666856
                },
                {
                    "name": "D#4",
                    "midi": 63,
                    "time": 110.74999999999994,
                    "velocity": 0.8031496062992126,
                    "duration": 0.12291666666666856
                },
                {
                    "name": "E4",
                    "midi": 64,
                    "time": 110.87499999999994,
                    "velocity": 0.7795275590551181,
                    "duration": 0.12291666666666856
                },
                {
                    "name": "C#3",
                    "midi": 49,
                    "time": 110.99999999999994,
                    "velocity": 0.7559055118110236,
                    "duration": 0.49791666666666856
                },
                {
                    "name": "C#4",
                    "midi": 61,
                    "time": 110.99999999999994,
                    "velocity": 0.7716535433070866,
                    "duration": 0.49791666666666856
                },
                {
                    "name": "F4",
                    "midi": 65,
                    "time": 110.99999999999994,
                    "velocity": 0.8110236220472441,
                    "duration": 0.49791666666666856
                },
                {
                    "name": "C#2",
                    "midi": 37,
                    "time": 110.99999999999994,
                    "velocity": 0.7559055118110236,
                    "duration": 0.49791666666666856
                },
                {
                    "name": "G#3",
                    "midi": 56,
                    "time": 110.99999999999994,
                    "velocity": 0.7165354330708661,
                    "duration": 0.49791666666666856
                },
                {
                    "name": "C#4",
                    "midi": 61,
                    "time": 111.49999999999994,
                    "velocity": 0.8031496062992126,
                    "duration": 1.4979166666666686
                },
                {
                    "name": "F4",
                    "midi": 65,
                    "time": 111.49999999999994,
                    "velocity": 0.7559055118110236,
                    "duration": 1.4979166666666686
                },
                {
                    "name": "G#3",
                    "midi": 56,
                    "time": 111.49999999999994,
                    "velocity": 0.7952755905511811,
                    "duration": 1.4979166666666686
                },
                {
                    "name": "F6",
                    "midi": 89,
                    "time": 111.49999999999994,
                    "velocity": 0.9212598425196851,
                    "duration": 0.12291666666666856
                },
                {
                    "name": "F5",
                    "midi": 77,
                    "time": 111.62499999999994,
                    "velocity": 0.8031496062992126,
                    "duration": 0.12291666666666856
                },
                {
                    "name": "A#4",
                    "midi": 70,
                    "time": 111.74999999999994,
                    "velocity": 0.7165354330708661,
                    "duration": 0.12291666666666856
                },
                {
                    "name": "B4",
                    "midi": 71,
                    "time": 111.87499999999994,
                    "velocity": 0.7480314960629921,
                    "duration": 0.12291666666666856
                },
                {
                    "name": "C5",
                    "midi": 72,
                    "time": 111.99999999999994,
                    "velocity": 0.8346456692913385,
                    "duration": 0.49791666666666856
                },
                {
                    "name": "F#3",
                    "midi": 54,
                    "time": 112.49999999999994,
                    "velocity": 0.5905511811023622,
                    "duration": 0.9979166666666686
                },
                {
                    "name": "C#4",
                    "midi": 61,
                    "time": 112.99999999999994,
                    "velocity": 0.49606299212598426,
                    "duration": 0.49791666666666856
                },
                {
                    "name": "A3",
                    "midi": 57,
                    "time": 112.99999999999994,
                    "velocity": 0.4881889763779528,
                    "duration": 0.49791666666666856
                },
                {
                    "name": "E4",
                    "midi": 64,
                    "time": 112.99999999999994,
                    "velocity": 0.5354330708661418,
                    "duration": 0.49791666666666856
                },
                {
                    "name": "F#4",
                    "midi": 66,
                    "time": 113.49999999999994,
                    "velocity": 0.5511811023622047,
                    "duration": 0.49791666666666856
                },
                {
                    "name": "A#3",
                    "midi": 58,
                    "time": 113.49999999999994,
                    "velocity": 0.44881889763779526,
                    "duration": 0.49791666666666856
                },
                {
                    "name": "C#4",
                    "midi": 61,
                    "time": 113.49999999999994,
                    "velocity": 0.5275590551181102,
                    "duration": 0.49791666666666856
                },
                {
                    "name": "D#4",
                    "midi": 63,
                    "time": 113.49999999999994,
                    "velocity": 0.3779527559055118,
                    "duration": 0.49791666666666856
                },
                {
                    "name": "E3",
                    "midi": 52,
                    "time": 113.99999999999994,
                    "velocity": 0.5196850393700787,
                    "duration": 0.49791666666666856
                },
                {
                    "name": "E3",
                    "midi": 52,
                    "time": 113.99999999999994,
                    "velocity": 0.6377952755905512,
                    "duration": 0.49791666666666856
                },
                {
                    "name": "B3",
                    "midi": 59,
                    "time": 114.49999999999994,
                    "velocity": 0.47244094488188976,
                    "duration": 0.49791666666666856
                },
                {
                    "name": "E4",
                    "midi": 64,
                    "time": 114.49999999999994,
                    "velocity": 0.5748031496062992,
                    "duration": 0.49791666666666856
                },
                {
                    "name": "G3",
                    "midi": 55,
                    "time": 114.49999999999994,
                    "velocity": 0.5196850393700787,
                    "duration": 0.49791666666666856
                },
                {
                    "name": "E5",
                    "midi": 76,
                    "time": 114.99999999999994,
                    "velocity": 0.7086614173228346,
                    "duration": 0.12291666666666856
                },
                {
                    "name": "B3",
                    "midi": 59,
                    "time": 114.99999999999994,
                    "velocity": 0.6299212598425197,
                    "duration": 0.12291666666666856
                },
                {
                    "name": "B2",
                    "midi": 47,
                    "time": 115.12499999999994,
                    "velocity": 0.7086614173228346,
                    "duration": 0.12291666666666856
                },
                {
                    "name": "E4",
                    "midi": 64,
                    "time": 115.12499999999994,
                    "velocity": 0.6929133858267716,
                    "duration": 0.12291666666666856
                },
                {
                    "name": "A#2",
                    "midi": 46,
                    "time": 115.24999999999994,
                    "velocity": 0.5905511811023622,
                    "duration": 0.12291666666666856
                },
                {
                    "name": "D#4",
                    "midi": 63,
                    "time": 115.24999999999994,
                    "velocity": 0.6850393700787402,
                    "duration": 0.12291666666666856
                },
                {
                    "name": "E4",
                    "midi": 64,
                    "time": 115.37499999999994,
                    "velocity": 0.6692913385826772,
                    "duration": 0.12291666666666856
                },
                {
                    "name": "B2",
                    "midi": 47,
                    "time": 115.37499999999994,
                    "velocity": 0.6692913385826772,
                    "duration": 0.12291666666666856
                },
                {
                    "name": "F#3",
                    "midi": 54,
                    "time": 115.49999999999994,
                    "velocity": 0.7559055118110236,
                    "duration": 0.24791666666666856
                },
                {
                    "name": "C#2",
                    "midi": 37,
                    "time": 115.49999999999994,
                    "velocity": 0.6929133858267716,
                    "duration": 0.24791666666666856
                },
                {
                    "name": "G3",
                    "midi": 55,
                    "time": 116.24999999999994,
                    "velocity": 0.5905511811023622,
                    "duration": 1.7479166666666686
                },
                {
                    "name": "E4",
                    "midi": 64,
                    "time": 116.24999999999994,
                    "velocity": 0.6141732283464567,
                    "duration": 1.7479166666666686
                },
                {
                    "name": "B3",
                    "midi": 59,
                    "time": 116.24999999999994,
                    "velocity": 0.5275590551181102,
                    "duration": 1.7479166666666686
                },
                {
                    "name": "B3",
                    "midi": 59,
                    "time": 117.99999999999994,
                    "velocity": 0.5275590551181102,
                    "duration": 0.12291666666666856
                },
                {
                    "name": "E5",
                    "midi": 76,
                    "time": 117.99999999999994,
                    "velocity": 0.5748031496062992,
                    "duration": 0.12291666666666856
                },
                {
                    "name": "B2",
                    "midi": 47,
                    "time": 118.12499999999994,
                    "velocity": 0.5354330708661418,
                    "duration": 0.12291666666666856
                },
                {
                    "name": "E4",
                    "midi": 64,
                    "time": 118.12499999999994,
                    "velocity": 0.4881889763779528,
                    "duration": 0.12291666666666856
                },
                {
                    "name": "D#4",
                    "midi": 63,
                    "time": 118.24999999999994,
                    "velocity": 0.48031496062992124,
                    "duration": 0.12291666666666856
                },
                {
                    "name": "A#2",
                    "midi": 46,
                    "time": 118.24999999999994,
                    "velocity": 0.47244094488188976,
                    "duration": 0.12291666666666856
                },
                {
                    "name": "E4",
                    "midi": 64,
                    "time": 118.37499999999994,
                    "velocity": 0.5905511811023622,
                    "duration": 0.12291666666666856
                },
                {
                    "name": "B2",
                    "midi": 47,
                    "time": 118.37499999999994,
                    "velocity": 0.5275590551181102,
                    "duration": 0.12291666666666856
                },
                {
                    "name": "F#3",
                    "midi": 54,
                    "time": 118.49999999999994,
                    "velocity": 0.5984251968503937,
                    "duration": 0.24791666666666856
                },
                {
                    "name": "C#2",
                    "midi": 37,
                    "time": 118.49999999999994,
                    "velocity": 0.5275590551181102,
                    "duration": 0.24791666666666856
                },
                {
                    "name": "E4",
                    "midi": 64,
                    "time": 119.24999999999994,
                    "velocity": 0.6141732283464567,
                    "duration": 3.7479166666666686
                },
                {
                    "name": "G3",
                    "midi": 55,
                    "time": 119.24999999999994,
                    "velocity": 0.5196850393700787,
                    "duration": 3.7479166666666686
                },
                {
                    "name": "B3",
                    "midi": 59,
                    "time": 119.24999999999994,
                    "velocity": 0.48031496062992124,
                    "duration": 3.7479166666666686
                },
                {
                    "name": "C#3",
                    "midi": 49,
                    "time": 121.49999999999994,
                    "velocity": 0.5354330708661418,
                    "duration": 0.24791666666666856
                },
                {
                    "name": "C#2",
                    "midi": 37,
                    "time": 121.49999999999994,
                    "velocity": 0.5984251968503937,
                    "duration": 0.24791666666666856
                },
                {
                    "name": "F#2",
                    "midi": 42,
                    "time": 121.99999999999994,
                    "velocity": 0.5354330708661418,
                    "duration": 0.24791666666666856
                },
                {
                    "name": "F#1",
                    "midi": 30,
                    "time": 121.99999999999994,
                    "velocity": 0.5354330708661418,
                    "duration": 0.24791666666666856
                },
                {
                    "name": "E4",
                    "midi": 64,
                    "time": 122.99999999999994,
                    "velocity": 0.5590551181102362,
                    "duration": 1.4979166666666686
                },
                {
                    "name": "B3",
                    "midi": 59,
                    "time": 122.99999999999994,
                    "velocity": 0.49606299212598426,
                    "duration": 1.4979166666666686
                },
                {
                    "name": "G3",
                    "midi": 55,
                    "time": 122.99999999999994,
                    "velocity": 0.5354330708661418,
                    "duration": 1.4979166666666686
                },
                {
                    "name": "C#3",
                    "midi": 49,
                    "time": 123.99999999999994,
                    "velocity": 0.5511811023622047,
                    "duration": 0.12291666666666856
                },
                {
                    "name": "C#2",
                    "midi": 37,
                    "time": 124.12499999999994,
                    "velocity": 0.33858267716535434,
                    "duration": 0.12291666666666856
                },
                {
                    "name": "F#2",
                    "midi": 42,
                    "time": 124.24999999999994,
                    "velocity": 0.4645669291338583,
                    "duration": 0.12291666666666856
                },
                {
                    "name": "F#1",
                    "midi": 30,
                    "time": 124.37499999999994,
                    "velocity": 0.4645669291338583,
                    "duration": 0.12291666666666856
                },
                {
                    "name": "G2",
                    "midi": 43,
                    "time": 124.49999999999994,
                    "velocity": 0.4566929133858268,
                    "duration": 0.9979166666666686
                },
                {
                    "name": "E3",
                    "midi": 52,
                    "time": 124.49999999999994,
                    "velocity": 0.3858267716535433,
                    "duration": 0.9979166666666686
                },
                {
                    "name": "E1",
                    "midi": 28,
                    "time": 124.49999999999994,
                    "velocity": 0.4645669291338583,
                    "duration": 0.9979166666666686
                },
                {
                    "name": "B1",
                    "midi": 35,
                    "time": 124.49999999999994,
                    "velocity": 0.2283464566929134,
                    "duration": 0.9979166666666686
                },
                {
                    "name": "A#3",
                    "midi": 58,
                    "time": 125.99999999999994,
                    "velocity": 0.4645669291338583,
                    "duration": 0.24791666666666856
                },
                {
                    "name": "E4",
                    "midi": 64,
                    "time": 125.99999999999994,
                    "velocity": 0.3700787401574803,
                    "duration": 0.24791666666666856
                },
                {
                    "name": "G#4",
                    "midi": 68,
                    "time": 125.99999999999994,
                    "velocity": 0.44881889763779526,
                    "duration": 0.24791666666666856
                },
                {
                    "name": "E5",
                    "midi": 76,
                    "time": 125.99999999999994,
                    "velocity": 0.7795275590551181,
                    "duration": 0.9979166666666686
                },
                {
                    "name": "E4",
                    "midi": 64,
                    "time": 126.24999999999994,
                    "velocity": 0.36220472440944884,
                    "duration": 0.24791666666666856
                },
                {
                    "name": "C4",
                    "midi": 60,
                    "time": 126.24999999999994,
                    "velocity": 0.41732283464566927,
                    "duration": 0.24791666666666856
                },
                {
                    "name": "A#4",
                    "midi": 70,
                    "time": 126.24999999999994,
                    "velocity": 0.6771653543307087,
                    "duration": 0.24791666666666856
                },
                {
                    "name": "C4",
                    "midi": 60,
                    "time": 126.49999999999994,
                    "velocity": 0.4566929133858268,
                    "duration": 0.24791666666666856
                },
                {
                    "name": "E4",
                    "midi": 64,
                    "time": 126.49999999999994,
                    "velocity": 0.3464566929133858,
                    "duration": 0.24791666666666856
                },
                {
                    "name": "A#4",
                    "midi": 70,
                    "time": 126.49999999999994,
                    "velocity": 0.6141732283464567,
                    "duration": 0.24791666666666856
                },
                {
                    "name": "C4",
                    "midi": 60,
                    "time": 126.74999999999994,
                    "velocity": 0.4094488188976378,
                    "duration": 0.24791666666666856
                },
                {
                    "name": "E4",
                    "midi": 64,
                    "time": 126.74999999999994,
                    "velocity": 0.3543307086614173,
                    "duration": 0.24791666666666856
                },
                {
                    "name": "A#4",
                    "midi": 70,
                    "time": 126.74999999999994,
                    "velocity": 0.5826771653543307,
                    "duration": 0.24791666666666856
                },
                {
                    "name": "D#5",
                    "midi": 75,
                    "time": 126.99999999999994,
                    "velocity": 0.7086614173228346,
                    "duration": 0.49791666666666856
                },
                {
                    "name": "C4",
                    "midi": 60,
                    "time": 126.99999999999994,
                    "velocity": 0.4251968503937008,
                    "duration": 0.24791666666666856
                },
                {
                    "name": "E4",
                    "midi": 64,
                    "time": 126.99999999999994,
                    "velocity": 0.3543307086614173,
                    "duration": 0.24791666666666856
                },
                {
                    "name": "A#4",
                    "midi": 70,
                    "time": 126.99999999999994,
                    "velocity": 0.5590551181102362,
                    "duration": 0.24791666666666856
                },
                {
                    "name": "E4",
                    "midi": 64,
                    "time": 127.24999999999994,
                    "velocity": 0.36220472440944884,
                    "duration": 0.24791666666666856
                },
                {
                    "name": "C4",
                    "midi": 60,
                    "time": 127.24999999999994,
                    "velocity": 0.4094488188976378,
                    "duration": 0.24791666666666856
                },
                {
                    "name": "A#4",
                    "midi": 70,
                    "time": 127.24999999999994,
                    "velocity": 0.5826771653543307,
                    "duration": 0.24791666666666856
                },
                {
                    "name": "C5",
                    "midi": 72,
                    "time": 127.49999999999994,
                    "velocity": 0.7086614173228346,
                    "duration": 0.9979166666666686
                },
                {
                    "name": "C4",
                    "midi": 60,
                    "time": 127.49999999999994,
                    "velocity": 0.44881889763779526,
                    "duration": 0.24791666666666856
                },
                {
                    "name": "A4",
                    "midi": 69,
                    "time": 127.49999999999994,
                    "velocity": 0.3543307086614173,
                    "duration": 0.24791666666666856
                },
                {
                    "name": "D#4",
                    "midi": 63,
                    "time": 127.49999999999994,
                    "velocity": 0.36220472440944884,
                    "duration": 0.24791666666666856
                },
                {
                    "name": "A4",
                    "midi": 69,
                    "time": 127.74999999999994,
                    "velocity": 0.3543307086614173,
                    "duration": 0.24791666666666856
                },
                {
                    "name": "C4",
                    "midi": 60,
                    "time": 127.74999999999994,
                    "velocity": 0.3700787401574803,
                    "duration": 0.24791666666666856
                },
                {
                    "name": "D#4",
                    "midi": 63,
                    "time": 127.74999999999994,
                    "velocity": 0.3858267716535433,
                    "duration": 0.24791666666666856
                },
                {
                    "name": "A4",
                    "midi": 69,
                    "time": 127.99999999999994,
                    "velocity": 0.3543307086614173,
                    "duration": 0.24791666666666856
                },
                {
                    "name": "C4",
                    "midi": 60,
                    "time": 127.99999999999994,
                    "velocity": 0.33070866141732286,
                    "duration": 0.24791666666666856
                },
                {
                    "name": "D#4",
                    "midi": 63,
                    "time": 127.99999999999994,
                    "velocity": 0.4645669291338583,
                    "duration": 0.24791666666666856
                },
                {
                    "name": "A4",
                    "midi": 69,
                    "time": 128.24999999999994,
                    "velocity": 0.33858267716535434,
                    "duration": 0.24791666666666856
                },
                {
                    "name": "C4",
                    "midi": 60,
                    "time": 128.24999999999994,
                    "velocity": 0.3779527559055118,
                    "duration": 0.24791666666666856
                },
                {
                    "name": "D#4",
                    "midi": 63,
                    "time": 128.24999999999994,
                    "velocity": 0.3937007874015748,
                    "duration": 0.24791666666666856
                },
                {
                    "name": "D5",
                    "midi": 74,
                    "time": 128.49999999999994,
                    "velocity": 0.6377952755905512,
                    "duration": 0.49791666666666856
                },
                {
                    "name": "A4",
                    "midi": 69,
                    "time": 128.49999999999994,
                    "velocity": 0.33070866141732286,
                    "duration": 0.24791666666666856
                },
                {
                    "name": "D#4",
                    "midi": 63,
                    "time": 128.49999999999994,
                    "velocity": 0.44881889763779526,
                    "duration": 0.24791666666666856
                },
                {
                    "name": "C4",
                    "midi": 60,
                    "time": 128.49999999999994,
                    "velocity": 0.4330708661417323,
                    "duration": 0.24791666666666856
                },
                {
                    "name": "A4",
                    "midi": 69,
                    "time": 128.74999999999994,
                    "velocity": 0.36220472440944884,
                    "duration": 0.24791666666666856
                },
                {
                    "name": "C4",
                    "midi": 60,
                    "time": 128.74999999999994,
                    "velocity": 0.4566929133858268,
                    "duration": 0.24791666666666856
                },
                {
                    "name": "D#4",
                    "midi": 63,
                    "time": 128.74999999999994,
                    "velocity": 0.5118110236220472,
                    "duration": 0.24791666666666856
                },
                {
                    "name": "B4",
                    "midi": 71,
                    "time": 128.99999999999994,
                    "velocity": 0.7401574803149606,
                    "duration": 0.7479166666666686
                },
                {
                    "name": "C4",
                    "midi": 60,
                    "time": 128.99999999999994,
                    "velocity": 0.44881889763779526,
                    "duration": 0.24791666666666856
                },
                {
                    "name": "G#4",
                    "midi": 68,
                    "time": 128.99999999999994,
                    "velocity": 0.4330708661417323,
                    "duration": 0.24791666666666856
                },
                {
                    "name": "D4",
                    "midi": 62,
                    "time": 128.99999999999994,
                    "velocity": 0.3700787401574803,
                    "duration": 0.24791666666666856
                },
                {
                    "name": "C4",
                    "midi": 60,
                    "time": 129.24999999999994,
                    "velocity": 0.41732283464566927,
                    "duration": 0.24791666666666856
                },
                {
                    "name": "D4",
                    "midi": 62,
                    "time": 129.24999999999994,
                    "velocity": 0.3700787401574803,
                    "duration": 0.24791666666666856
                },
                {
                    "name": "G#4",
                    "midi": 68,
                    "time": 129.24999999999994,
                    "velocity": 0.5590551181102362,
                    "duration": 0.24791666666666856
                },
                {
                    "name": "D4",
                    "midi": 62,
                    "time": 129.49999999999994,
                    "velocity": 0.3858267716535433,
                    "duration": 0.24791666666666856
                },
                {
                    "name": "C4",
                    "midi": 60,
                    "time": 129.49999999999994,
                    "velocity": 0.4409448818897638,
                    "duration": 0.24791666666666856
                },
                {
                    "name": "G#4",
                    "midi": 68,
                    "time": 129.49999999999994,
                    "velocity": 0.5354330708661418,
                    "duration": 0.24791666666666856
                },
                {
                    "name": "C5",
                    "midi": 72,
                    "time": 129.74999999999994,
                    "velocity": 0.5196850393700787,
                    "duration": 0.24791666666666856
                },
                {
                    "name": "C4",
                    "midi": 60,
                    "time": 129.74999999999994,
                    "velocity": 0.4015748031496063,
                    "duration": 0.24791666666666856
                },
                {
                    "name": "D4",
                    "midi": 62,
                    "time": 129.74999999999994,
                    "velocity": 0.3543307086614173,
                    "duration": 0.24791666666666856
                },
                {
                    "name": "G#4",
                    "midi": 68,
                    "time": 129.74999999999994,
                    "velocity": 0.4251968503937008,
                    "duration": 0.24791666666666856
                },
                {
                    "name": "B4",
                    "midi": 71,
                    "time": 129.99999999999994,
                    "velocity": 0.6535433070866141,
                    "duration": 0.24791666666666856
                },
                {
                    "name": "D4",
                    "midi": 62,
                    "time": 129.99999999999994,
                    "velocity": 0.3937007874015748,
                    "duration": 0.24791666666666856
                },
                {
                    "name": "C4",
                    "midi": 60,
                    "time": 129.99999999999994,
                    "velocity": 0.47244094488188976,
                    "duration": 0.24791666666666856
                },
                {
                    "name": "G#4",
                    "midi": 68,
                    "time": 129.99999999999994,
                    "velocity": 0.5433070866141733,
                    "duration": 0.24791666666666856
                },
                {
                    "name": "C5",
                    "midi": 72,
                    "time": 130.24999999999994,
                    "velocity": 0.7322834645669292,
                    "duration": 0.24791666666666856
                },
                {
                    "name": "D4",
                    "midi": 62,
                    "time": 130.24999999999994,
                    "velocity": 0.3937007874015748,
                    "duration": 0.24791666666666856
                },
                {
                    "name": "C4",
                    "midi": 60,
                    "time": 130.24999999999994,
                    "velocity": 0.4566929133858268,
                    "duration": 0.24791666666666856
                },
                {
                    "name": "G#4",
                    "midi": 68,
                    "time": 130.24999999999994,
                    "velocity": 0.5433070866141733,
                    "duration": 0.24791666666666856
                },
                {
                    "name": "D4",
                    "midi": 62,
                    "time": 130.49999999999994,
                    "velocity": 0.3937007874015748,
                    "duration": 0.24791666666666856
                },
                {
                    "name": "C4",
                    "midi": 60,
                    "time": 130.49999999999994,
                    "velocity": 0.4566929133858268,
                    "duration": 0.24791666666666856
                },
                {
                    "name": "G#4",
                    "midi": 68,
                    "time": 130.49999999999994,
                    "velocity": 0.5748031496062992,
                    "duration": 0.24791666666666856
                },
                {
                    "name": "B4",
                    "midi": 71,
                    "time": 130.49999999999994,
                    "velocity": 0.6220472440944882,
                    "duration": 0.7479166666666686
                },
                {
                    "name": "C4",
                    "midi": 60,
                    "time": 130.74999999999994,
                    "velocity": 0.41732283464566927,
                    "duration": 0.24791666666666856
                },
                {
                    "name": "D4",
                    "midi": 62,
                    "time": 130.74999999999994,
                    "velocity": 0.3543307086614173,
                    "duration": 0.24791666666666856
                },
                {
                    "name": "G#4",
                    "midi": 68,
                    "time": 130.74999999999994,
                    "velocity": 0.5196850393700787,
                    "duration": 0.24791666666666856
                },
                {
                    "name": "C5",
                    "midi": 72,
                    "time": 130.74999999999994,
                    "velocity": 0.5433070866141733,
                    "duration": 0.24791666666666856
                },
                {
                    "name": "D4",
                    "midi": 62,
                    "time": 130.99999999999994,
                    "velocity": 0.3858267716535433,
                    "duration": 0.24791666666666856
                },
                {
                    "name": "C4",
                    "midi": 60,
                    "time": 130.99999999999994,
                    "velocity": 0.44881889763779526,
                    "duration": 0.24791666666666856
                },
                {
                    "name": "G#4",
                    "midi": 68,
                    "time": 130.99999999999994,
                    "velocity": 0.5196850393700787,
                    "duration": 0.24791666666666856
                },
                {
                    "name": "D5",
                    "midi": 74,
                    "time": 130.99999999999994,
                    "velocity": 0.6614173228346457,
                    "duration": 0.24791666666666856
                },
                {
                    "name": "D4",
                    "midi": 62,
                    "time": 131.24999999999994,
                    "velocity": 0.36220472440944884,
                    "duration": 0.24791666666666856
                },
                {
                    "name": "C4",
                    "midi": 60,
                    "time": 131.24999999999994,
                    "velocity": 0.3858267716535433,
                    "duration": 0.24791666666666856
                },
                {
                    "name": "G#4",
                    "midi": 68,
                    "time": 131.24999999999994,
                    "velocity": 0.4409448818897638,
                    "duration": 0.24791666666666856
                },
                {
                    "name": "C5",
                    "midi": 72,
                    "time": 131.24999999999994,
                    "velocity": 0.6141732283464567,
                    "duration": 0.24791666666666856
                },
                {
                    "name": "E5",
                    "midi": 76,
                    "time": 131.24999999999994,
                    "velocity": 0.5196850393700787,
                    "duration": 0.24791666666666856
                },
                {
                    "name": "D4",
                    "midi": 62,
                    "time": 131.49999999999994,
                    "velocity": 0.3543307086614173,
                    "duration": 0.24791666666666856
                },
                {
                    "name": "C4",
                    "midi": 60,
                    "time": 131.49999999999994,
                    "velocity": 0.3858267716535433,
                    "duration": 0.24791666666666856
                },
                {
                    "name": "G#4",
                    "midi": 68,
                    "time": 131.49999999999994,
                    "velocity": 0.4015748031496063,
                    "duration": 0.24791666666666856
                },
                {
                    "name": "B4",
                    "midi": 71,
                    "time": 131.49999999999994,
                    "velocity": 0.6141732283464567,
                    "duration": 0.24791666666666856
                },
                {
                    "name": "F5",
                    "midi": 77,
                    "time": 131.49999999999994,
                    "velocity": 0.6299212598425197,
                    "duration": 0.24791666666666856
                },
                {
                    "name": "D4",
                    "midi": 62,
                    "time": 131.74999999999994,
                    "velocity": 0.3543307086614173,
                    "duration": 0.24791666666666856
                },
                {
                    "name": "C4",
                    "midi": 60,
                    "time": 131.74999999999994,
                    "velocity": 0.3937007874015748,
                    "duration": 0.24791666666666856
                },
                {
                    "name": "G#4",
                    "midi": 68,
                    "time": 131.74999999999994,
                    "velocity": 0.4015748031496063,
                    "duration": 0.24791666666666856
                },
                {
                    "name": "C5",
                    "midi": 72,
                    "time": 131.74999999999994,
                    "velocity": 0.5748031496062992,
                    "duration": 0.24791666666666856
                },
                {
                    "name": "G5",
                    "midi": 79,
                    "time": 131.74999999999994,
                    "velocity": 0.6535433070866141,
                    "duration": 0.24791666666666856
                },
                {
                    "name": "D4",
                    "midi": 62,
                    "time": 131.99999999999994,
                    "velocity": 0.3543307086614173,
                    "duration": 0.24791666666666856
                },
                {
                    "name": "C4",
                    "midi": 60,
                    "time": 131.99999999999994,
                    "velocity": 0.3858267716535433,
                    "duration": 0.24791666666666856
                },
                {
                    "name": "G#4",
                    "midi": 68,
                    "time": 131.99999999999994,
                    "velocity": 0.4015748031496063,
                    "duration": 0.24791666666666856
                },
                {
                    "name": "B4",
                    "midi": 71,
                    "time": 131.99999999999994,
                    "velocity": 0.6377952755905512,
                    "duration": 0.7479166666666686
                },
                {
                    "name": "G#5",
                    "midi": 80,
                    "time": 131.99999999999994,
                    "velocity": 0.5118110236220472,
                    "duration": 0.24791666666666856
                },
                {
                    "name": "D4",
                    "midi": 62,
                    "time": 132.24999999999994,
                    "velocity": 0.3464566929133858,
                    "duration": 0.24791666666666856
                },
                {
                    "name": "C4",
                    "midi": 60,
                    "time": 132.24999999999994,
                    "velocity": 0.3700787401574803,
                    "duration": 0.24791666666666856
                },
                {
                    "name": "G#4",
                    "midi": 68,
                    "time": 132.24999999999994,
                    "velocity": 0.4409448818897638,
                    "duration": 0.24791666666666856
                },
                {
                    "name": "G5",
                    "midi": 79,
                    "time": 132.24999999999994,
                    "velocity": 0.5511811023622047,
                    "duration": 0.24791666666666856
                },
                {
                    "name": "D4",
                    "midi": 62,
                    "time": 132.49999999999994,
                    "velocity": 0.3543307086614173,
                    "duration": 0.24791666666666856
                },
                {
                    "name": "C4",
                    "midi": 60,
                    "time": 132.49999999999994,
                    "velocity": 0.3858267716535433,
                    "duration": 0.24791666666666856
                },
                {
                    "name": "G#4",
                    "midi": 68,
                    "time": 132.49999999999994,
                    "velocity": 0.44881889763779526,
                    "duration": 0.24791666666666856
                },
                {
                    "name": "E5",
                    "midi": 76,
                    "time": 132.49999999999994,
                    "velocity": 0.4566929133858268,
                    "duration": 0.24791666666666856
                },
                {
                    "name": "D4",
                    "midi": 62,
                    "time": 132.74999999999994,
                    "velocity": 0.3464566929133858,
                    "duration": 0.24791666666666856
                },
                {
                    "name": "C4",
                    "midi": 60,
                    "time": 132.74999999999994,
                    "velocity": 0.3779527559055118,
                    "duration": 0.24791666666666856
                },
                {
                    "name": "G#4",
                    "midi": 68,
                    "time": 132.74999999999994,
                    "velocity": 0.3937007874015748,
                    "duration": 0.24791666666666856
                },
                {
                    "name": "C5",
                    "midi": 72,
                    "time": 132.74999999999994,
                    "velocity": 0.6141732283464567,
                    "duration": 0.24791666666666856
                },
                {
                    "name": "F5",
                    "midi": 77,
                    "time": 132.74999999999994,
                    "velocity": 0.5905511811023622,
                    "duration": 0.24791666666666856
                },
                {
                    "name": "G#4",
                    "midi": 68,
                    "time": 132.99999999999994,
                    "velocity": 0.5118110236220472,
                    "duration": 0.24791666666666856
                },
                {
                    "name": "D4",
                    "midi": 62,
                    "time": 132.99999999999994,
                    "velocity": 0.33858267716535434,
                    "duration": 0.24791666666666856
                },
                {
                    "name": "C4",
                    "midi": 60,
                    "time": 132.99999999999994,
                    "velocity": 0.3700787401574803,
                    "duration": 0.24791666666666856
                },
                {
                    "name": "D5",
                    "midi": 74,
                    "time": 132.99999999999994,
                    "velocity": 0.6141732283464567,
                    "duration": 0.24791666666666856
                },
                {
                    "name": "G5",
                    "midi": 79,
                    "time": 132.99999999999994,
                    "velocity": 0.5118110236220472,
                    "duration": 0.24791666666666856
                },
                {
                    "name": "B4",
                    "midi": 71,
                    "time": 132.99999999999994,
                    "velocity": 0.6141732283464567,
                    "duration": 0.24791666666666856
                },
                {
                    "name": "C4",
                    "midi": 60,
                    "time": 133.24999999999994,
                    "velocity": 0.3700787401574803,
                    "duration": 0.24791666666666856
                },
                {
                    "name": "D4",
                    "midi": 62,
                    "time": 133.24999999999994,
                    "velocity": 0.33858267716535434,
                    "duration": 0.24791666666666856
                },
                {
                    "name": "G#4",
                    "midi": 68,
                    "time": 133.24999999999994,
                    "velocity": 0.48031496062992124,
                    "duration": 0.24791666666666856
                },
                {
                    "name": "D#5",
                    "midi": 75,
                    "time": 133.24999999999994,
                    "velocity": 0.6141732283464567,
                    "duration": 0.24791666666666856
                },
                {
                    "name": "G#5",
                    "midi": 80,
                    "time": 133.24999999999994,
                    "velocity": 0.5826771653543307,
                    "duration": 0.24791666666666856
                },
                {
                    "name": "C5",
                    "midi": 72,
                    "time": 133.24999999999994,
                    "velocity": 0.6141732283464567,
                    "duration": 0.24791666666666856
                },
                {
                    "name": "C4",
                    "midi": 60,
                    "time": 133.49999999999994,
                    "velocity": 0.3543307086614173,
                    "duration": 0.24791666666666856
                },
                {
                    "name": "D4",
                    "midi": 62,
                    "time": 133.49999999999994,
                    "velocity": 0.30708661417322836,
                    "duration": 0.24791666666666856
                },
                {
                    "name": "G4",
                    "midi": 67,
                    "time": 133.49999999999994,
                    "velocity": 0.5826771653543307,
                    "duration": 0.24791666666666856
                },
                {
                    "name": "A5",
                    "midi": 81,
                    "time": 133.49999999999994,
                    "velocity": 0.6377952755905512,
                    "duration": 0.24791666666666856
                },
                {
                    "name": "B4",
                    "midi": 71,
                    "time": 133.49999999999994,
                    "velocity": 0.5984251968503937,
                    "duration": 0.7479166666666686
                },
                {
                    "name": "C4",
                    "midi": 60,
                    "time": 133.74999999999994,
                    "velocity": 0.3779527559055118,
                    "duration": 0.24791666666666856
                },
                {
                    "name": "D4",
                    "midi": 62,
                    "time": 133.74999999999994,
                    "velocity": 0.3228346456692913,
                    "duration": 0.24791666666666856
                },
                {
                    "name": "G4",
                    "midi": 67,
                    "time": 133.74999999999994,
                    "velocity": 0.6141732283464567,
                    "duration": 0.24791666666666856
                },
                {
                    "name": "G5",
                    "midi": 79,
                    "time": 133.74999999999994,
                    "velocity": 0.5826771653543307,
                    "duration": 0.24791666666666856
                },
                {
                    "name": "D4",
                    "midi": 62,
                    "time": 133.99999999999994,
                    "velocity": 0.33858267716535434,
                    "duration": 0.24791666666666856
                },
                {
                    "name": "C4",
                    "midi": 60,
                    "time": 133.99999999999994,
                    "velocity": 0.3700787401574803,
                    "duration": 0.24791666666666856
                },
                {
                    "name": "G4",
                    "midi": 67,
                    "time": 133.99999999999994,
                    "velocity": 0.5196850393700787,
                    "duration": 0.24791666666666856
                },
                {
                    "name": "F5",
                    "midi": 77,
                    "time": 133.99999999999994,
                    "velocity": 0.5590551181102362,
                    "duration": 0.24791666666666856
                },
                {
                    "name": "D4",
                    "midi": 62,
                    "time": 134.24999999999994,
                    "velocity": 0.33858267716535434,
                    "duration": 0.24791666666666856
                },
                {
                    "name": "C4",
                    "midi": 60,
                    "time": 134.24999999999994,
                    "velocity": 0.3543307086614173,
                    "duration": 0.24791666666666856
                },
                {
                    "name": "G4",
                    "midi": 67,
                    "time": 134.24999999999994,
                    "velocity": 0.5590551181102362,
                    "duration": 0.24791666666666856
                },
                {
                    "name": "C5",
                    "midi": 72,
                    "time": 134.24999999999994,
                    "velocity": 0.5196850393700787,
                    "duration": 0.24791666666666856
                },
                {
                    "name": "E5",
                    "midi": 76,
                    "time": 134.24999999999994,
                    "velocity": 0.5984251968503937,
                    "duration": 0.24791666666666856
                },
                {
                    "name": "C4",
                    "midi": 60,
                    "time": 134.49999999999994,
                    "velocity": 0.48031496062992124,
                    "duration": 0.24791666666666856
                },
                {
                    "name": "D4",
                    "midi": 62,
                    "time": 134.49999999999994,
                    "velocity": 0.3858267716535433,
                    "duration": 0.24791666666666856
                },
                {
                    "name": "A4",
                    "midi": 69,
                    "time": 134.49999999999994,
                    "velocity": 0.6692913385826772,
                    "duration": 0.24791666666666856
                },
                {
                    "name": "D5",
                    "midi": 74,
                    "time": 134.49999999999994,
                    "velocity": 0.47244094488188976,
                    "duration": 0.24791666666666856
                },
                {
                    "name": "F5",
                    "midi": 77,
                    "time": 134.49999999999994,
                    "velocity": 0.5511811023622047,
                    "duration": 0.24791666666666856
                },
                {
                    "name": "C4",
                    "midi": 60,
                    "time": 134.74999999999994,
                    "velocity": 0.4330708661417323,
                    "duration": 0.24791666666666856
                },
                {
                    "name": "D#4",
                    "midi": 63,
                    "time": 134.74999999999994,
                    "velocity": 0.4015748031496063,
                    "duration": 0.24791666666666856
                },
                {
                    "name": "A4",
                    "midi": 69,
                    "time": 134.74999999999994,
                    "velocity": 0.6299212598425197,
                    "duration": 0.24791666666666856
                },
                {
                    "name": "D#5",
                    "midi": 75,
                    "time": 134.74999999999994,
                    "velocity": 0.5354330708661418,
                    "duration": 0.24791666666666856
                },
                {
                    "name": "G5",
                    "midi": 79,
                    "time": 134.74999999999994,
                    "velocity": 0.5826771653543307,
                    "duration": 0.24791666666666856
                },
                {
                    "name": "C4",
                    "midi": 60,
                    "time": 134.99999999999994,
                    "velocity": 0.4251968503937008,
                    "duration": 0.24791666666666856
                },
                {
                    "name": "E4",
                    "midi": 64,
                    "time": 134.99999999999994,
                    "velocity": 0.3858267716535433,
                    "duration": 0.24791666666666856
                },
                {
                    "name": "A#4",
                    "midi": 70,
                    "time": 134.99999999999994,
                    "velocity": 0.5590551181102362,
                    "duration": 0.24791666666666856
                },
                {
                    "name": "E5",
                    "midi": 76,
                    "time": 134.99999999999994,
                    "velocity": 0.7086614173228346,
                    "duration": 0.997916666666697
                },
                {
                    "name": "E4",
                    "midi": 64,
                    "time": 135.24999999999994,
                    "velocity": 0.36220472440944884,
                    "duration": 0.24791666666669698
                },
                {
                    "name": "C4",
                    "midi": 60,
                    "time": 135.24999999999994,
                    "velocity": 0.4094488188976378,
                    "duration": 0.24791666666669698
                },
                {
                    "name": "A#4",
                    "midi": 70,
                    "time": 135.24999999999994,
                    "velocity": 0.5118110236220472,
                    "duration": 0.24791666666669698
                },
                {
                    "name": "G5",
                    "midi": 79,
                    "time": 135.3333333333333,
                    "velocity": 0.5039370078740157,
                    "duration": 0.08125000000001137
                },
                {
                    "name": "A#5",
                    "midi": 82,
                    "time": 135.41666666666663,
                    "velocity": 0.44881889763779526,
                    "duration": 0.08125000000001137
                },
                {
                    "name": "E4",
                    "midi": 64,
                    "time": 135.49999999999997,
                    "velocity": 0.36220472440944884,
                    "duration": 0.24791666666666856
                },
                {
                    "name": "C4",
                    "midi": 60,
                    "time": 135.49999999999997,
                    "velocity": 0.3937007874015748,
                    "duration": 0.24791666666666856
                },
                {
                    "name": "A#4",
                    "midi": 70,
                    "time": 135.49999999999997,
                    "velocity": 0.5196850393700787,
                    "duration": 0.24791666666666856
                },
                {
                    "name": "E6",
                    "midi": 88,
                    "time": 135.49999999999997,
                    "velocity": 0.6692913385826772,
                    "duration": 0.41458333333332575
                },
                {
                    "name": "E4",
                    "midi": 64,
                    "time": 135.74999999999997,
                    "velocity": 0.36220472440944884,
                    "duration": 0.24791666666666856
                },
                {
                    "name": "C4",
                    "midi": 60,
                    "time": 135.74999999999997,
                    "velocity": 0.3700787401574803,
                    "duration": 0.24791666666666856
                },
                {
                    "name": "A#4",
                    "midi": 70,
                    "time": 135.74999999999997,
                    "velocity": 0.5354330708661418,
                    "duration": 0.24791666666666856
                },
                {
                    "name": "C4",
                    "midi": 60,
                    "time": 135.99999999999997,
                    "velocity": 0.3858267716535433,
                    "duration": 0.24791666666666856
                },
                {
                    "name": "E4",
                    "midi": 64,
                    "time": 135.99999999999997,
                    "velocity": 0.3464566929133858,
                    "duration": 0.24791666666666856
                },
                {
                    "name": "A#4",
                    "midi": 70,
                    "time": 135.99999999999997,
                    "velocity": 0.5354330708661418,
                    "duration": 0.24791666666666856
                },
                {
                    "name": "D#5",
                    "midi": 75,
                    "time": 135.99999999999997,
                    "velocity": 0.6141732283464567,
                    "duration": 0.49791666666666856
                },
                {
                    "name": "C4",
                    "midi": 60,
                    "time": 136.24999999999997,
                    "velocity": 0.3937007874015748,
                    "duration": 0.24791666666666856
                },
                {
                    "name": "E4",
                    "midi": 64,
                    "time": 136.24999999999997,
                    "velocity": 0.33858267716535434,
                    "duration": 0.24791666666666856
                },
                {
                    "name": "A#4",
                    "midi": 70,
                    "time": 136.24999999999997,
                    "velocity": 0.47244094488188976,
                    "duration": 0.24791666666666856
                },
                {
                    "name": "C4",
                    "midi": 60,
                    "time": 136.49999999999997,
                    "velocity": 0.3937007874015748,
                    "duration": 0.24791666666666856
                },
                {
                    "name": "D#4",
                    "midi": 63,
                    "time": 136.49999999999997,
                    "velocity": 0.3937007874015748,
                    "duration": 0.24791666666666856
                },
                {
                    "name": "A4",
                    "midi": 69,
                    "time": 136.49999999999997,
                    "velocity": 0.6141732283464567,
                    "duration": 0.24791666666666856
                },
                {
                    "name": "C5",
                    "midi": 72,
                    "time": 136.49999999999997,
                    "velocity": 0.6377952755905512,
                    "duration": 0.997916666666697
                },
                {
                    "name": "C4",
                    "midi": 60,
                    "time": 136.74999999999997,
                    "velocity": 0.3700787401574803,
                    "duration": 0.24791666666669698
                },
                {
                    "name": "D#4",
                    "midi": 63,
                    "time": 136.74999999999997,
                    "velocity": 0.3464566929133858,
                    "duration": 0.24791666666669698
                },
                {
                    "name": "A4",
                    "midi": 69,
                    "time": 136.74999999999997,
                    "velocity": 0.4409448818897638,
                    "duration": 0.24791666666669698
                },
                {
                    "name": "D#5",
                    "midi": 75,
                    "time": 136.83333333333331,
                    "velocity": 0.5039370078740157,
                    "duration": 0.08125000000001137
                },
                {
                    "name": "F#5",
                    "midi": 78,
                    "time": 136.91666666666666,
                    "velocity": 0.44881889763779526,
                    "duration": 0.08125000000001137
                },
                {
                    "name": "A4",
                    "midi": 69,
                    "time": 137,
                    "velocity": 0.4330708661417323,
                    "duration": 0.24791666666666856
                },
                {
                    "name": "C4",
                    "midi": 60,
                    "time": 137,
                    "velocity": 0.4015748031496063,
                    "duration": 0.24791666666666856
                },
                {
                    "name": "D#4",
                    "midi": 63,
                    "time": 137,
                    "velocity": 0.36220472440944884,
                    "duration": 0.24791666666666856
                },
                {
                    "name": "C6",
                    "midi": 84,
                    "time": 137,
                    "velocity": 0.6692913385826772,
                    "duration": 0.41458333333332575
                },
                {
                    "name": "C4",
                    "midi": 60,
                    "time": 137.25,
                    "velocity": 0.4251968503937008,
                    "duration": 0.24791666666666856
                },
                {
                    "name": "D#4",
                    "midi": 63,
                    "time": 137.25,
                    "velocity": 0.3543307086614173,
                    "duration": 0.24791666666666856
                },
                {
                    "name": "A4",
                    "midi": 69,
                    "time": 137.25,
                    "velocity": 0.5118110236220472,
                    "duration": 0.24791666666666856
                },
                {
                    "name": "D#4",
                    "midi": 63,
                    "time": 137.5,
                    "velocity": 0.3700787401574803,
                    "duration": 0.24791666666666856
                },
                {
                    "name": "C4",
                    "midi": 60,
                    "time": 137.5,
                    "velocity": 0.3700787401574803,
                    "duration": 0.24791666666666856
                },
                {
                    "name": "A4",
                    "midi": 69,
                    "time": 137.5,
                    "velocity": 0.5118110236220472,
                    "duration": 0.24791666666666856
                },
                {
                    "name": "D5",
                    "midi": 74,
                    "time": 137.5,
                    "velocity": 0.6377952755905512,
                    "duration": 0.49791666666666856
                },
                {
                    "name": "C4",
                    "midi": 60,
                    "time": 137.75,
                    "velocity": 0.3464566929133858,
                    "duration": 0.24791666666666856
                },
                {
                    "name": "D#4",
                    "midi": 63,
                    "time": 137.75,
                    "velocity": 0.2992125984251969,
                    "duration": 0.24791666666666856
                },
                {
                    "name": "A4",
                    "midi": 69,
                    "time": 137.75,
                    "velocity": 0.5511811023622047,
                    "duration": 0.24791666666666856
                },
                {
                    "name": "D4",
                    "midi": 62,
                    "time": 138,
                    "velocity": 0.4566929133858268,
                    "duration": 0.24791666666666856
                },
                {
                    "name": "G#4",
                    "midi": 68,
                    "time": 138,
                    "velocity": 0.5196850393700787,
                    "duration": 0.24791666666666856
                },
                {
                    "name": "C4",
                    "midi": 60,
                    "time": 138,
                    "velocity": 0.3700787401574803,
                    "duration": 0.24791666666666856
                },
                {
                    "name": "B4",
                    "midi": 71,
                    "time": 138,
                    "velocity": 0.7007874015748031,
                    "duration": 0.747916666666697
                },
                {
                    "name": "D4",
                    "midi": 62,
                    "time": 138.25,
                    "velocity": 0.3858267716535433,
                    "duration": 0.24791666666669698
                },
                {
                    "name": "C4",
                    "midi": 60,
                    "time": 138.25,
                    "velocity": 0.31496062992125984,
                    "duration": 0.24791666666669698
                },
                {
                    "name": "G#4",
                    "midi": 68,
                    "time": 138.25,
                    "velocity": 0.48031496062992124,
                    "duration": 0.24791666666669698
                },
                {
                    "name": "D5",
                    "midi": 74,
                    "time": 138.33333333333334,
                    "velocity": 0.5039370078740157,
                    "duration": 0.08125000000001137
                },
                {
                    "name": "F5",
                    "midi": 77,
                    "time": 138.41666666666669,
                    "velocity": 0.44881889763779526,
                    "duration": 0.08125000000001137
                },
                {
                    "name": "D4",
                    "midi": 62,
                    "time": 138.50000000000003,
                    "velocity": 0.3858267716535433,
                    "duration": 0.24791666666666856
                },
                {
                    "name": "C4",
                    "midi": 60,
                    "time": 138.50000000000003,
                    "velocity": 0.30708661417322836,
                    "duration": 0.24791666666666856
                },
                {
                    "name": "G#4",
                    "midi": 68,
                    "time": 138.50000000000003,
                    "velocity": 0.5511811023622047,
                    "duration": 0.24791666666666856
                },
                {
                    "name": "B5",
                    "midi": 83,
                    "time": 138.50000000000003,
                    "velocity": 0.6692913385826772,
                    "duration": 0.41458333333332575
                },
                {
                    "name": "D4",
                    "midi": 62,
                    "time": 138.75000000000003,
                    "velocity": 0.33070866141732286,
                    "duration": 0.24791666666666856
                },
                {
                    "name": "C4",
                    "midi": 60,
                    "time": 138.75000000000003,
                    "velocity": 0.30708661417322836,
                    "duration": 0.24791666666666856
                },
                {
                    "name": "G#4",
                    "midi": 68,
                    "time": 138.75000000000003,
                    "velocity": 0.48031496062992124,
                    "duration": 0.24791666666666856
                },
                {
                    "name": "C5",
                    "midi": 72,
                    "time": 138.75000000000003,
                    "velocity": 0.6141732283464567,
                    "duration": 0.24791666666666856
                },
                {
                    "name": "D4",
                    "midi": 62,
                    "time": 139.00000000000003,
                    "velocity": 0.31496062992125984,
                    "duration": 0.24791666666666856
                },
                {
                    "name": "C4",
                    "midi": 60,
                    "time": 139.00000000000003,
                    "velocity": 0.29133858267716534,
                    "duration": 0.24791666666666856
                },
                {
                    "name": "G#4",
                    "midi": 68,
                    "time": 139.00000000000003,
                    "velocity": 0.36220472440944884,
                    "duration": 0.24791666666666856
                },
                {
                    "name": "B4",
                    "midi": 71,
                    "time": 139.00000000000003,
                    "velocity": 0.6299212598425197,
                    "duration": 0.24791666666666856
                },
                {
                    "name": "D4",
                    "midi": 62,
                    "time": 139.25000000000003,
                    "velocity": 0.3543307086614173,
                    "duration": 0.24791666666666856
                },
                {
                    "name": "C4",
                    "midi": 60,
                    "time": 139.25000000000003,
                    "velocity": 0.31496062992125984,
                    "duration": 0.24791666666666856
                },
                {
                    "name": "G#4",
                    "midi": 68,
                    "time": 139.25000000000003,
                    "velocity": 0.3858267716535433,
                    "duration": 0.24791666666666856
                },
                {
                    "name": "C5",
                    "midi": 72,
                    "time": 139.25000000000003,
                    "velocity": 0.6141732283464567,
                    "duration": 0.24791666666666856
                },
                {
                    "name": "D4",
                    "midi": 62,
                    "time": 139.50000000000003,
                    "velocity": 0.48031496062992124,
                    "duration": 0.24791666666666856
                },
                {
                    "name": "C4",
                    "midi": 60,
                    "time": 139.50000000000003,
                    "velocity": 0.36220472440944884,
                    "duration": 0.24791666666666856
                },
                {
                    "name": "G#4",
                    "midi": 68,
                    "time": 139.50000000000003,
                    "velocity": 0.5433070866141733,
                    "duration": 0.24791666666666856
                },
                {
                    "name": "B4",
                    "midi": 71,
                    "time": 139.50000000000003,
                    "velocity": 0.6614173228346457,
                    "duration": 0.747916666666697
                },
                {
                    "name": "D4",
                    "midi": 62,
                    "time": 139.75000000000003,
                    "velocity": 0.4330708661417323,
                    "duration": 0.24791666666669698
                },
                {
                    "name": "C4",
                    "midi": 60,
                    "time": 139.75000000000003,
                    "velocity": 0.3543307086614173,
                    "duration": 0.24791666666669698
                },
                {
                    "name": "G#4",
                    "midi": 68,
                    "time": 139.75000000000003,
                    "velocity": 0.5748031496062992,
                    "duration": 0.24791666666669698
                },
                {
                    "name": "C5",
                    "midi": 72,
                    "time": 139.75000000000003,
                    "velocity": 0.6141732283464567,
                    "duration": 0.24791666666669698
                },
                {
                    "name": "D5",
                    "midi": 74,
                    "time": 139.83333333333337,
                    "velocity": 0.5039370078740157,
                    "duration": 0.08125000000001137
                },
                {
                    "name": "F5",
                    "midi": 77,
                    "time": 139.9166666666667,
                    "velocity": 0.44881889763779526,
                    "duration": 0.08125000000001137
                },
                {
                    "name": "D4",
                    "midi": 62,
                    "time": 140.00000000000006,
                    "velocity": 0.47244094488188976,
                    "duration": 0.24791666666666856
                },
                {
                    "name": "C4",
                    "midi": 60,
                    "time": 140.00000000000006,
                    "velocity": 0.3937007874015748,
                    "duration": 0.24791666666666856
                },
                {
                    "name": "G#4",
                    "midi": 68,
                    "time": 140.00000000000006,
                    "velocity": 0.5905511811023622,
                    "duration": 0.24791666666666856
                },
                {
                    "name": "B5",
                    "midi": 83,
                    "time": 140.00000000000006,
                    "velocity": 0.6692913385826772,
                    "duration": 0.41458333333332575
                },
                {
                    "name": "D4",
                    "midi": 62,
                    "time": 140.25000000000006,
                    "velocity": 0.5118110236220472,
                    "duration": 0.24791666666666856
                },
                {
                    "name": "C4",
                    "midi": 60,
                    "time": 140.25000000000006,
                    "velocity": 0.3937007874015748,
                    "duration": 0.24791666666666856
                },
                {
                    "name": "G#4",
                    "midi": 68,
                    "time": 140.25000000000006,
                    "velocity": 0.6377952755905512,
                    "duration": 0.24791666666666856
                },
                {
                    "name": "C5",
                    "midi": 72,
                    "time": 140.25000000000006,
                    "velocity": 0.6377952755905512,
                    "duration": 0.24791666666666856
                },
                {
                    "name": "C4",
                    "midi": 60,
                    "time": 140.50000000000006,
                    "velocity": 0.4094488188976378,
                    "duration": 0.24791666666666856
                },
                {
                    "name": "D4",
                    "midi": 62,
                    "time": 140.50000000000006,
                    "velocity": 0.49606299212598426,
                    "duration": 0.24791666666666856
                },
                {
                    "name": "G#4",
                    "midi": 68,
                    "time": 140.50000000000006,
                    "velocity": 0.6299212598425197,
                    "duration": 0.24791666666666856
                },
                {
                    "name": "B4",
                    "midi": 71,
                    "time": 140.50000000000006,
                    "velocity": 0.6535433070866141,
                    "duration": 0.24791666666666856
                },
                {
                    "name": "C4",
                    "midi": 60,
                    "time": 140.75000000000006,
                    "velocity": 0.4094488188976378,
                    "duration": 0.24791666666666856
                },
                {
                    "name": "D4",
                    "midi": 62,
                    "time": 140.75000000000006,
                    "velocity": 0.44881889763779526,
                    "duration": 0.24791666666666856
                },
                {
                    "name": "G#4",
                    "midi": 68,
                    "time": 140.75000000000006,
                    "velocity": 0.5984251968503937,
                    "duration": 0.24791666666666856
                },
                {
                    "name": "C5",
                    "midi": 72,
                    "time": 140.75000000000006,
                    "velocity": 0.6377952755905512,
                    "duration": 0.24791666666666856
                },
                {
                    "name": "C4",
                    "midi": 60,
                    "time": 141.00000000000006,
                    "velocity": 0.4015748031496063,
                    "duration": 0.24791666666666856
                },
                {
                    "name": "D4",
                    "midi": 62,
                    "time": 141.00000000000006,
                    "velocity": 0.4645669291338583,
                    "duration": 0.24791666666666856
                },
                {
                    "name": "G#4",
                    "midi": 68,
                    "time": 141.00000000000006,
                    "velocity": 0.6299212598425197,
                    "duration": 0.24791666666666856
                },
                {
                    "name": "B4",
                    "midi": 71,
                    "time": 141.00000000000006,
                    "velocity": 0.7165354330708661,
                    "duration": 0.7479166666666686
                },
                {
                    "name": "G#5",
                    "midi": 80,
                    "time": 141.00000000000006,
                    "velocity": 0.5826771653543307,
                    "duration": 0.24791666666666856
                },
                {
                    "name": "C4",
                    "midi": 60,
                    "time": 141.25000000000006,
                    "velocity": 0.4015748031496063,
                    "duration": 0.24791666666666856
                },
                {
                    "name": "D4",
                    "midi": 62,
                    "time": 141.25000000000006,
                    "velocity": 0.4566929133858268,
                    "duration": 0.24791666666666856
                },
                {
                    "name": "G#4",
                    "midi": 68,
                    "time": 141.25000000000006,
                    "velocity": 0.6220472440944882,
                    "duration": 0.24791666666666856
                },
                {
                    "name": "G5",
                    "midi": 79,
                    "time": 141.25000000000006,
                    "velocity": 0.5118110236220472,
                    "duration": 0.24791666666666856
                },
                {
                    "name": "C4",
                    "midi": 60,
                    "time": 141.50000000000006,
                    "velocity": 0.4409448818897638,
                    "duration": 0.24791666666666856
                },
                {
                    "name": "D4",
                    "midi": 62,
                    "time": 141.50000000000006,
                    "velocity": 0.5511811023622047,
                    "duration": 0.24791666666666856
                },
                {
                    "name": "G#4",
                    "midi": 68,
                    "time": 141.50000000000006,
                    "velocity": 0.6850393700787402,
                    "duration": 0.24791666666666856
                },
                {
                    "name": "E5",
                    "midi": 76,
                    "time": 141.50000000000006,
                    "velocity": 0.5826771653543307,
                    "duration": 0.24791666666666856
                },
                {
                    "name": "C4",
                    "midi": 60,
                    "time": 141.75000000000006,
                    "velocity": 0.4409448818897638,
                    "duration": 0.24791666666666856
                },
                {
                    "name": "D4",
                    "midi": 62,
                    "time": 141.75000000000006,
                    "velocity": 0.5118110236220472,
                    "duration": 0.24791666666666856
                },
                {
                    "name": "G#4",
                    "midi": 68,
                    "time": 141.75000000000006,
                    "velocity": 0.6299212598425197,
                    "duration": 0.24791666666666856
                },
                {
                    "name": "C5",
                    "midi": 72,
                    "time": 141.75000000000006,
                    "velocity": 0.6141732283464567,
                    "duration": 0.24791666666666856
                },
                {
                    "name": "F5",
                    "midi": 77,
                    "time": 141.75000000000006,
                    "velocity": 0.6299212598425197,
                    "duration": 0.24791666666666856
                },
                {
                    "name": "C4",
                    "midi": 60,
                    "time": 142.00000000000006,
                    "velocity": 0.4094488188976378,
                    "duration": 0.24791666666666856
                },
                {
                    "name": "D4",
                    "midi": 62,
                    "time": 142.00000000000006,
                    "velocity": 0.4409448818897638,
                    "duration": 0.24791666666666856
                },
                {
                    "name": "G#4",
                    "midi": 68,
                    "time": 142.00000000000006,
                    "velocity": 0.6377952755905512,
                    "duration": 0.24791666666666856
                },
                {
                    "name": "B4",
                    "midi": 71,
                    "time": 142.00000000000006,
                    "velocity": 0.5905511811023622,
                    "duration": 0.24791666666666856
                },
                {
                    "name": "G5",
                    "midi": 79,
                    "time": 142.00000000000006,
                    "velocity": 0.6299212598425197,
                    "duration": 0.24791666666666856
                },
                {
                    "name": "C4",
                    "midi": 60,
                    "time": 142.25000000000006,
                    "velocity": 0.3858267716535433,
                    "duration": 0.24791666666666856
                },
                {
                    "name": "D4",
                    "midi": 62,
                    "time": 142.25000000000006,
                    "velocity": 0.4251968503937008,
                    "duration": 0.24791666666666856
                },
                {
                    "name": "G#4",
                    "midi": 68,
                    "time": 142.25000000000006,
                    "velocity": 0.6299212598425197,
                    "duration": 0.24791666666666856
                },
                {
                    "name": "C5",
                    "midi": 72,
                    "time": 142.25000000000006,
                    "velocity": 0.6141732283464567,
                    "duration": 0.24791666666666856
                },
                {
                    "name": "G#5",
                    "midi": 80,
                    "time": 142.25000000000006,
                    "velocity": 0.6299212598425197,
                    "duration": 0.24791666666666856
                },
                {
                    "name": "C4",
                    "midi": 60,
                    "time": 142.50000000000006,
                    "velocity": 0.36220472440944884,
                    "duration": 0.24791666666666856
                },
                {
                    "name": "D4",
                    "midi": 62,
                    "time": 142.50000000000006,
                    "velocity": 0.3858267716535433,
                    "duration": 0.24791666666666856
                },
                {
                    "name": "G4",
                    "midi": 67,
                    "time": 142.50000000000006,
                    "velocity": 0.6377952755905512,
                    "duration": 0.24791666666666856
                },
                {
                    "name": "B4",
                    "midi": 71,
                    "time": 142.50000000000006,
                    "velocity": 0.6614173228346457,
                    "duration": 0.7479166666666686
                },
                {
                    "name": "A5",
                    "midi": 81,
                    "time": 142.50000000000006,
                    "velocity": 0.6614173228346457,
                    "duration": 0.24791666666666856
                },
                {
                    "name": "D4",
                    "midi": 62,
                    "time": 142.75000000000006,
                    "velocity": 0.3937007874015748,
                    "duration": 0.24791666666666856
                },
                {
                    "name": "C4",
                    "midi": 60,
                    "time": 142.75000000000006,
                    "velocity": 0.3700787401574803,
                    "duration": 0.24791666666666856
                },
                {
                    "name": "G4",
                    "midi": 67,
                    "time": 142.75000000000006,
                    "velocity": 0.5354330708661418,
                    "duration": 0.24791666666666856
                },
                {
                    "name": "G5",
                    "midi": 79,
                    "time": 142.75000000000006,
                    "velocity": 0.6141732283464567,
                    "duration": 0.24791666666666856
                },
                {
                    "name": "G4",
                    "midi": 67,
                    "time": 143.00000000000006,
                    "velocity": 0.6141732283464567,
                    "duration": 0.24791666666666856
                },
                {
                    "name": "C4",
                    "midi": 60,
                    "time": 143.00000000000006,
                    "velocity": 0.3700787401574803,
                    "duration": 0.24791666666666856
                },
                {
                    "name": "D4",
                    "midi": 62,
                    "time": 143.00000000000006,
                    "velocity": 0.3937007874015748,
                    "duration": 0.24791666666666856
                },
                {
                    "name": "F5",
                    "midi": 77,
                    "time": 143.00000000000006,
                    "velocity": 0.6141732283464567,
                    "duration": 0.24791666666666856
                },
                {
                    "name": "C4",
                    "midi": 60,
                    "time": 143.25000000000006,
                    "velocity": 0.3700787401574803,
                    "duration": 0.24791666666666856
                },
                {
                    "name": "D4",
                    "midi": 62,
                    "time": 143.25000000000006,
                    "velocity": 0.4094488188976378,
                    "duration": 0.24791666666666856
                },
                {
                    "name": "G4",
                    "midi": 67,
                    "time": 143.25000000000006,
                    "velocity": 0.6141732283464567,
                    "duration": 0.24791666666666856
                },
                {
                    "name": "C5",
                    "midi": 72,
                    "time": 143.25000000000006,
                    "velocity": 0.5826771653543307,
                    "duration": 0.24791666666666856
                },
                {
                    "name": "E5",
                    "midi": 76,
                    "time": 143.25000000000006,
                    "velocity": 0.6141732283464567,
                    "duration": 0.24791666666666856
                },
                {
                    "name": "C4",
                    "midi": 60,
                    "time": 143.50000000000006,
                    "velocity": 0.4330708661417323,
                    "duration": 0.24791666666666856
                },
                {
                    "name": "D4",
                    "midi": 62,
                    "time": 143.50000000000006,
                    "velocity": 0.4645669291338583,
                    "duration": 0.24791666666666856
                },
                {
                    "name": "A4",
                    "midi": 69,
                    "time": 143.50000000000006,
                    "velocity": 0.6141732283464567,
                    "duration": 0.24791666666666856
                },
                {
                    "name": "D5",
                    "midi": 74,
                    "time": 143.50000000000006,
                    "velocity": 0.6141732283464567,
                    "duration": 0.24791666666666856
                },
                {
                    "name": "F5",
                    "midi": 77,
                    "time": 143.50000000000006,
                    "velocity": 0.6535433070866141,
                    "duration": 0.24791666666666856
                },
                {
                    "name": "C4",
                    "midi": 60,
                    "time": 143.75000000000006,
                    "velocity": 0.4330708661417323,
                    "duration": 0.24791666666666856
                },
                {
                    "name": "D#4",
                    "midi": 63,
                    "time": 143.75000000000006,
                    "velocity": 0.4645669291338583,
                    "duration": 0.24791666666666856
                },
                {
                    "name": "A4",
                    "midi": 69,
                    "time": 143.75000000000006,
                    "velocity": 0.6614173228346457,
                    "duration": 0.24791666666666856
                },
                {
                    "name": "D#5",
                    "midi": 75,
                    "time": 143.75000000000006,
                    "velocity": 0.6220472440944882,
                    "duration": 0.24791666666666856
                },
                {
                    "name": "G5",
                    "midi": 79,
                    "time": 143.75000000000006,
                    "velocity": 0.6850393700787402,
                    "duration": 0.24791666666666856
                },
                {
                    "name": "E6",
                    "midi": 88,
                    "time": 144.00000000000006,
                    "velocity": 0.7559055118110236,
                    "duration": 0.12291666666666856
                },
                {
                    "name": "A#4",
                    "midi": 70,
                    "time": 144.00000000000006,
                    "velocity": 0.44881889763779526,
                    "duration": 0.24791666666666856
                },
                {
                    "name": "C4",
                    "midi": 60,
                    "time": 144.00000000000006,
                    "velocity": 0.6692913385826772,
                    "duration": 0.24791666666666856
                },
                {
                    "name": "E4",
                    "midi": 64,
                    "time": 144.00000000000006,
                    "velocity": 0.6692913385826772,
                    "duration": 0.24791666666666856
                },
                {
                    "name": "E5",
                    "midi": 76,
                    "time": 144.12500000000006,
                    "velocity": 0.6456692913385826,
                    "duration": 0.12291666666666856
                },
                {
                    "name": "D#5",
                    "midi": 75,
                    "time": 144.25000000000006,
                    "velocity": 0.6456692913385826,
                    "duration": 0.12291666666666856
                },
                {
                    "name": "A#4",
                    "midi": 70,
                    "time": 144.25000000000006,
                    "velocity": 0.5275590551181102,
                    "duration": 0.49791666666666856
                },
                {
                    "name": "E4",
                    "midi": 64,
                    "time": 144.25000000000006,
                    "velocity": 0.6062992125984252,
                    "duration": 0.49791666666666856
                },
                {
                    "name": "C4",
                    "midi": 60,
                    "time": 144.25000000000006,
                    "velocity": 0.6062992125984252,
                    "duration": 0.49791666666666856
                },
                {
                    "name": "E5",
                    "midi": 76,
                    "time": 144.37500000000006,
                    "velocity": 0.5590551181102362,
                    "duration": 0.12291666666666856
                },
                {
                    "name": "E4",
                    "midi": 64,
                    "time": 144.50000000000006,
                    "velocity": 0.7322834645669292,
                    "duration": 0.49791666666666856
                },
                {
                    "name": "A#4",
                    "midi": 70,
                    "time": 144.75000000000006,
                    "velocity": 0.5118110236220472,
                    "duration": 0.25
                },
                {
                    "name": "C4",
                    "midi": 60,
                    "time": 144.75000000000006,
                    "velocity": 0.6535433070866141,
                    "duration": 0.25
                },
                {
                    "name": "E4",
                    "midi": 64,
                    "time": 144.75000000000006,
                    "velocity": 0.6771653543307087,
                    "duration": 0.25
                },
                {
                    "name": "D6",
                    "midi": 86,
                    "time": 145.00000000000006,
                    "velocity": 0.7559055118110236,
                    "duration": 0.12291666666666856
                },
                {
                    "name": "A#4",
                    "midi": 70,
                    "time": 145.00000000000006,
                    "velocity": 0.5118110236220472,
                    "duration": 0.24791666666666856
                },
                {
                    "name": "C4",
                    "midi": 60,
                    "time": 145.00000000000006,
                    "velocity": 0.5669291338582677,
                    "duration": 0.24791666666666856
                },
                {
                    "name": "F4",
                    "midi": 65,
                    "time": 145.00000000000006,
                    "velocity": 0.6929133858267716,
                    "duration": 0.24791666666666856
                },
                {
                    "name": "D5",
                    "midi": 74,
                    "time": 145.12500000000006,
                    "velocity": 0.7401574803149606,
                    "duration": 0.12291666666666856
                },
                {
                    "name": "C#5",
                    "midi": 73,
                    "time": 145.25000000000006,
                    "velocity": 0.7322834645669292,
                    "duration": 0.12291666666666856
                },
                {
                    "name": "A#4",
                    "midi": 70,
                    "time": 145.25000000000006,
                    "velocity": 0.5196850393700787,
                    "duration": 0.7479166666666686
                },
                {
                    "name": "C4",
                    "midi": 60,
                    "time": 145.25000000000006,
                    "velocity": 0.5905511811023622,
                    "duration": 0.7479166666666686
                },
                {
                    "name": "F4",
                    "midi": 65,
                    "time": 145.25000000000006,
                    "velocity": 0.6692913385826772,
                    "duration": 0.49791666666666856
                },
                {
                    "name": "D5",
                    "midi": 74,
                    "time": 145.37500000000006,
                    "velocity": 0.7401574803149606,
                    "duration": 0.12291666666666856
                },
                {
                    "name": "D4",
                    "midi": 62,
                    "time": 145.50000000000006,
                    "velocity": 0.7716535433070866,
                    "duration": 0.49791666666666856
                },
                {
                    "name": "A#4",
                    "midi": 70,
                    "time": 145.75000000000006,
                    "velocity": 0.6141732283464567,
                    "duration": 0.24791666666666856
                },
                {
                    "name": "C4",
                    "midi": 60,
                    "time": 145.75000000000006,
                    "velocity": 0.5590551181102362,
                    "duration": 0.24791666666666856
                },
                {
                    "name": "F4",
                    "midi": 65,
                    "time": 145.75000000000006,
                    "velocity": 0.4409448818897638,
                    "duration": 0.24791666666666856
                },
                {
                    "name": "C6",
                    "midi": 84,
                    "time": 146.00000000000006,
                    "velocity": 0.7559055118110236,
                    "duration": 0.12291666666666856
                },
                {
                    "name": "A#4",
                    "midi": 70,
                    "time": 146.00000000000006,
                    "velocity": 0.5354330708661418,
                    "duration": 0.24791666666666856
                },
                {
                    "name": "F#4",
                    "midi": 66,
                    "time": 146.00000000000006,
                    "velocity": 0.5590551181102362,
                    "duration": 0.24791666666666856
                },
                {
                    "name": "C4",
                    "midi": 60,
                    "time": 146.00000000000006,
                    "velocity": 0.5196850393700787,
                    "duration": 0.24791666666666856
                },
                {
                    "name": "C5",
                    "midi": 72,
                    "time": 146.12500000000006,
                    "velocity": 0.7165354330708661,
                    "duration": 0.12291666666666856
                },
                {
                    "name": "B4",
                    "midi": 71,
                    "time": 146.25000000000006,
                    "velocity": 0.6692913385826772,
                    "duration": 0.12291666666666856
                },
                {
                    "name": "A#4",
                    "midi": 70,
                    "time": 146.25000000000006,
                    "velocity": 0.5039370078740157,
                    "duration": 0.49791666666666856
                },
                {
                    "name": "C4",
                    "midi": 60,
                    "time": 146.25000000000006,
                    "velocity": 0.5118110236220472,
                    "duration": 0.49791666666666856
                },
                {
                    "name": "F#4",
                    "midi": 66,
                    "time": 146.25000000000006,
                    "velocity": 0.5984251968503937,
                    "duration": 0.49791666666666856
                },
                {
                    "name": "C5",
                    "midi": 72,
                    "time": 146.37500000000006,
                    "velocity": 0.7165354330708661,
                    "duration": 0.12291666666666856
                },
                {
                    "name": "C4",
                    "midi": 60,
                    "time": 146.50000000000006,
                    "velocity": 0.6771653543307087,
                    "duration": 0.49791666666666856
                },
                {
                    "name": "A#4",
                    "midi": 70,
                    "time": 146.75000000000006,
                    "velocity": 0.4645669291338583,
                    "duration": 0.24791666666666856
                },
                {
                    "name": "F#4",
                    "midi": 66,
                    "time": 146.75000000000006,
                    "velocity": 0.5511811023622047,
                    "duration": 0.24791666666666856
                },
                {
                    "name": "C4",
                    "midi": 60,
                    "time": 146.75000000000006,
                    "velocity": 0.5354330708661418,
                    "duration": 0.24791666666666856
                },
                {
                    "name": "G#3",
                    "midi": 56,
                    "time": 147.00000000000006,
                    "velocity": 0.6062992125984252,
                    "duration": 0.24791666666666856
                },
                {
                    "name": "C4",
                    "midi": 60,
                    "time": 147.00000000000006,
                    "velocity": 0.5984251968503937,
                    "duration": 0.24791666666666856
                },
                {
                    "name": "E4",
                    "midi": 64,
                    "time": 147.25000000000006,
                    "velocity": 0.7795275590551181,
                    "duration": 0.24791666666666856
                },
                {
                    "name": "A#3",
                    "midi": 58,
                    "time": 147.25000000000006,
                    "velocity": 0.6456692913385826,
                    "duration": 0.24791666666666856
                },
                {
                    "name": "G3",
                    "midi": 55,
                    "time": 147.25000000000006,
                    "velocity": 0.7322834645669292,
                    "duration": 0.24791666666666856
                },
                {
                    "name": "F4",
                    "midi": 65,
                    "time": 147.50000000000006,
                    "velocity": 0.6929133858267716,
                    "duration": 0.24791666666666856
                },
                {
                    "name": "G#4",
                    "midi": 68,
                    "time": 147.50000000000006,
                    "velocity": 0.6850393700787402,
                    "duration": 0.24791666666666856
                },
                {
                    "name": "F3",
                    "midi": 53,
                    "time": 147.50000000000006,
                    "velocity": 0.7401574803149606,
                    "duration": 0.24791666666666856
                },
                {
                    "name": "G#3",
                    "midi": 56,
                    "time": 147.50000000000006,
                    "velocity": 0.7244094488188977,
                    "duration": 0.24791666666666856
                },
                {
                    "name": "G4",
                    "midi": 67,
                    "time": 147.75000000000006,
                    "velocity": 0.7322834645669292,
                    "duration": 0.24791666666666856
                },
                {
                    "name": "A#4",
                    "midi": 70,
                    "time": 147.75000000000006,
                    "velocity": 0.8346456692913385,
                    "duration": 0.24791666666666856
                },
                {
                    "name": "G3",
                    "midi": 55,
                    "time": 147.75000000000006,
                    "velocity": 0.7244094488188977,
                    "duration": 0.24791666666666856
                },
                {
                    "name": "D#3",
                    "midi": 51,
                    "time": 147.75000000000006,
                    "velocity": 0.6850393700787402,
                    "duration": 0.24791666666666856
                },
                {
                    "name": "G#4",
                    "midi": 68,
                    "time": 148.00000000000006,
                    "velocity": 0.7795275590551181,
                    "duration": 0.24791666666666856
                },
                {
                    "name": "C5",
                    "midi": 72,
                    "time": 148.00000000000006,
                    "velocity": 0.8582677165354331,
                    "duration": 0.24791666666666856
                },
                {
                    "name": "F3",
                    "midi": 53,
                    "time": 148.00000000000006,
                    "velocity": 0.7401574803149606,
                    "duration": 0.24791666666666856
                },
                {
                    "name": "C#3",
                    "midi": 49,
                    "time": 148.00000000000006,
                    "velocity": 0.7322834645669292,
                    "duration": 0.24791666666666856
                },
                {
                    "name": "C5",
                    "midi": 72,
                    "time": 148.37500000000006,
                    "velocity": 0.7401574803149606,
                    "duration": 0.12291666666666856
                },
                {
                    "name": "C6",
                    "midi": 84,
                    "time": 148.37500000000006,
                    "velocity": 0.8818897637795275,
                    "duration": 0.12291666666666856
                },
                {
                    "name": "C#2",
                    "midi": 37,
                    "time": 148.37500000000006,
                    "velocity": 0.7559055118110236,
                    "duration": 0.12291666666666856
                },
                {
                    "name": "C#3",
                    "midi": 49,
                    "time": 148.37500000000006,
                    "velocity": 0.6535433070866141,
                    "duration": 0.12291666666666856
                },
                {
                    "name": "D5",
                    "midi": 74,
                    "time": 148.50000000000006,
                    "velocity": 0.7716535433070866,
                    "duration": 0.49791666666666856
                },
                {
                    "name": "G5",
                    "midi": 79,
                    "time": 148.50000000000006,
                    "velocity": 0.8346456692913385,
                    "duration": 0.49791666666666856
                },
                {
                    "name": "C5",
                    "midi": 72,
                    "time": 148.50000000000006,
                    "velocity": 0.7244094488188977,
                    "duration": 0.49791666666666856
                },
                {
                    "name": "G4",
                    "midi": 67,
                    "time": 148.50000000000006,
                    "velocity": 0.7716535433070866,
                    "duration": 0.49791666666666856
                },
                {
                    "name": "G2",
                    "midi": 43,
                    "time": 148.50000000000006,
                    "velocity": 0.7244094488188977,
                    "duration": 0.49791666666666856
                },
                {
                    "name": "G3",
                    "midi": 55,
                    "time": 148.50000000000006,
                    "velocity": 0.6771653543307087,
                    "duration": 0.49791666666666856
                },
                {
                    "name": "B5",
                    "midi": 83,
                    "time": 149.00000000000006,
                    "velocity": 0.6771653543307087,
                    "duration": 0.24791666666666856
                },
                {
                    "name": "C4",
                    "midi": 60,
                    "time": 149.00000000000006,
                    "velocity": 0.6771653543307087,
                    "duration": 0.49791666666666856
                },
                {
                    "name": "D#4",
                    "midi": 63,
                    "time": 149.00000000000006,
                    "velocity": 0.5905511811023622,
                    "duration": 0.49791666666666856
                },
                {
                    "name": "B4",
                    "midi": 71,
                    "time": 149.25000000000006,
                    "velocity": 0.6692913385826772,
                    "duration": 0.24791666666666856
                },
                {
                    "name": "A#4",
                    "midi": 70,
                    "time": 149.50000000000006,
                    "velocity": 0.6456692913385826,
                    "duration": 0.24791666666666856
                },
                {
                    "name": "G3",
                    "midi": 55,
                    "time": 149.50000000000006,
                    "velocity": 0.6692913385826772,
                    "duration": 0.49791666666666856
                },
                {
                    "name": "D4",
                    "midi": 62,
                    "time": 149.50000000000006,
                    "velocity": 0.6535433070866141,
                    "duration": 0.49791666666666856
                },
                {
                    "name": "B4",
                    "midi": 71,
                    "time": 149.75000000000006,
                    "velocity": 0.6771653543307087,
                    "duration": 0.24791666666666856
                },
                {
                    "name": "B5",
                    "midi": 83,
                    "time": 150.00000000000006,
                    "velocity": 0.6929133858267716,
                    "duration": 0.24791666666666856
                },
                {
                    "name": "D#4",
                    "midi": 63,
                    "time": 150.00000000000006,
                    "velocity": 0.5984251968503937,
                    "duration": 0.49791666666666856
                },
                {
                    "name": "C4",
                    "midi": 60,
                    "time": 150.00000000000006,
                    "velocity": 0.6929133858267716,
                    "duration": 0.49791666666666856
                },
                {
                    "name": "B4",
                    "midi": 71,
                    "time": 150.25000000000006,
                    "velocity": 0.6141732283464567,
                    "duration": 0.24791666666666856
                },
                {
                    "name": "A#4",
                    "midi": 70,
                    "time": 150.50000000000006,
                    "velocity": 0.7086614173228346,
                    "duration": 0.24791666666666856
                },
                {
                    "name": "D4",
                    "midi": 62,
                    "time": 150.50000000000006,
                    "velocity": 0.6929133858267716,
                    "duration": 0.49791666666666856
                },
                {
                    "name": "G3",
                    "midi": 55,
                    "time": 150.50000000000006,
                    "velocity": 0.7244094488188977,
                    "duration": 0.49791666666666856
                },
                {
                    "name": "B4",
                    "midi": 71,
                    "time": 150.75000000000006,
                    "velocity": 0.7401574803149606,
                    "duration": 0.24791666666666856
                },
                {
                    "name": "B5",
                    "midi": 83,
                    "time": 151.00000000000006,
                    "velocity": 0.7401574803149606,
                    "duration": 0.12291666666666856
                },
                {
                    "name": "C4",
                    "midi": 60,
                    "time": 151.00000000000006,
                    "velocity": 0.6929133858267716,
                    "duration": 0.49791666666666856
                },
                {
                    "name": "D#4",
                    "midi": 63,
                    "time": 151.00000000000006,
                    "velocity": 0.6062992125984252,
                    "duration": 0.49791666666666856
                },
                {
                    "name": "B4",
                    "midi": 71,
                    "time": 151.12500000000006,
                    "velocity": 0.7086614173228346,
                    "duration": 0.12291666666666856
                },
                {
                    "name": "A#4",
                    "midi": 70,
                    "time": 151.25000000000006,
                    "velocity": 0.6850393700787402,
                    "duration": 0.12291666666666856
                },
                {
                    "name": "B4",
                    "midi": 71,
                    "time": 151.37500000000006,
                    "velocity": 0.7401574803149606,
                    "duration": 0.12291666666666856
                },
                {
                    "name": "G3",
                    "midi": 55,
                    "time": 151.50000000000006,
                    "velocity": 0.8110236220472441,
                    "duration": 0.49791666666666856
                },
                {
                    "name": "D4",
                    "midi": 62,
                    "time": 151.50000000000006,
                    "velocity": 0.6456692913385826,
                    "duration": 0.49791666666666856
                },
                {
                    "name": "G3",
                    "midi": 55,
                    "time": 151.50000000000006,
                    "velocity": 0.6771653543307087,
                    "duration": 0.49791666666666856
                },
                {
                    "name": "D5",
                    "midi": 74,
                    "time": 152.00000000000006,
                    "velocity": 0.7559055118110236,
                    "duration": 0.12291666666666856
                },
                {
                    "name": "D4",
                    "midi": 62,
                    "time": 152.12500000000006,
                    "velocity": 0.6850393700787402,
                    "duration": 0.12291666666666856
                },
                {
                    "name": "G3",
                    "midi": 55,
                    "time": 152.25000000000006,
                    "velocity": 0.7559055118110236,
                    "duration": 0.12291666666666856
                },
                {
                    "name": "G#3",
                    "midi": 56,
                    "time": 152.37500000000006,
                    "velocity": 0.6771653543307087,
                    "duration": 0.12291666666666856
                },
                {
                    "name": "A3",
                    "midi": 57,
                    "time": 152.50000000000006,
                    "velocity": 0.7401574803149606,
                    "duration": 0.49791666666666856
                },
                {
                    "name": "G2",
                    "midi": 43,
                    "time": 152.50000000000006,
                    "velocity": 0.6377952755905512,
                    "duration": 0.49791666666666856
                },
                {
                    "name": "G1",
                    "midi": 31,
                    "time": 152.50000000000006,
                    "velocity": 0.7086614173228346,
                    "duration": 0.49791666666666856
                },
                {
                    "name": "A#6",
                    "midi": 94,
                    "time": 153.00000000000006,
                    "velocity": 0.7401574803149606,
                    "duration": 0.12291666666666856
                },
                {
                    "name": "F#2",
                    "midi": 42,
                    "time": 153.00000000000006,
                    "velocity": 0.6377952755905512,
                    "duration": 0.49791666666666856
                },
                {
                    "name": "F#1",
                    "midi": 30,
                    "time": 153.00000000000006,
                    "velocity": 0.7086614173228346,
                    "duration": 0.49791666666666856
                },
                {
                    "name": "A#5",
                    "midi": 82,
                    "time": 153.12500000000006,
                    "velocity": 0.7244094488188977,
                    "duration": 0.12291666666666856
                },
                {
                    "name": "A5",
                    "midi": 81,
                    "time": 153.25000000000006,
                    "velocity": 0.6929133858267716,
                    "duration": 0.12291666666666856
                },
                {
                    "name": "A#3",
                    "midi": 58,
                    "time": 153.25000000000006,
                    "velocity": 0.5590551181102362,
                    "duration": 0.49791666666666856
                },
                {
                    "name": "F#3",
                    "midi": 54,
                    "time": 153.25000000000006,
                    "velocity": 0.5748031496062992,
                    "duration": 0.49791666666666856
                },
                {
                    "name": "E4",
                    "midi": 64,
                    "time": 153.25000000000006,
                    "velocity": 0.44881889763779526,
                    "duration": 0.49791666666666856
                },
                {
                    "name": "A#5",
                    "midi": 82,
                    "time": 153.37500000000006,
                    "velocity": 0.6535433070866141,
                    "duration": 0.12291666666666856
                },
                {
                    "name": "A#4",
                    "midi": 70,
                    "time": 153.50000000000006,
                    "velocity": 0.6850393700787402,
                    "duration": 0.49791666666666856
                },
                {
                    "name": "A#3",
                    "midi": 58,
                    "time": 153.75000000000006,
                    "velocity": 0.5669291338582677,
                    "duration": 0.24791666666666856
                },
                {
                    "name": "F#3",
                    "midi": 54,
                    "time": 153.75000000000006,
                    "velocity": 0.5590551181102362,
                    "duration": 0.24791666666666856
                },
                {
                    "name": "E4",
                    "midi": 64,
                    "time": 153.75000000000006,
                    "velocity": 0.4409448818897638,
                    "duration": 0.24791666666666856
                },
                {
                    "name": "G#6",
                    "midi": 92,
                    "time": 154.00000000000006,
                    "velocity": 0.7401574803149606,
                    "duration": 0.12291666666666856
                },
                {
                    "name": "B3",
                    "midi": 59,
                    "time": 154.00000000000006,
                    "velocity": 0.4881889763779528,
                    "duration": 0.24791666666666856
                },
                {
                    "name": "E4",
                    "midi": 64,
                    "time": 154.00000000000006,
                    "velocity": 0.5748031496062992,
                    "duration": 0.24791666666666856
                },
                {
                    "name": "F#3",
                    "midi": 54,
                    "time": 154.00000000000006,
                    "velocity": 0.5669291338582677,
                    "duration": 0.24791666666666856
                },
                {
                    "name": "G#5",
                    "midi": 80,
                    "time": 154.12500000000006,
                    "velocity": 0.6929133858267716,
                    "duration": 0.12291666666666856
                },
                {
                    "name": "G5",
                    "midi": 79,
                    "time": 154.25000000000006,
                    "velocity": 0.6850393700787402,
                    "duration": 0.12291666666666856
                },
                {
                    "name": "B3",
                    "midi": 59,
                    "time": 154.25000000000006,
                    "velocity": 0.6141732283464567,
                    "duration": 0.49791666666666856
                },
                {
                    "name": "E4",
                    "midi": 64,
                    "time": 154.25000000000006,
                    "velocity": 0.5984251968503937,
                    "duration": 0.49791666666666856
                },
                {
                    "name": "F#3",
                    "midi": 54,
                    "time": 154.25000000000006,
                    "velocity": 0.6062992125984252,
                    "duration": 0.49791666666666856
                },
                {
                    "name": "G#5",
                    "midi": 80,
                    "time": 154.37500000000006,
                    "velocity": 0.6692913385826772,
                    "duration": 0.12291666666666856
                },
                {
                    "name": "G#4",
                    "midi": 68,
                    "time": 154.50000000000006,
                    "velocity": 0.6850393700787402,
                    "duration": 0.49791666666666856
                },
                {
                    "name": "B3",
                    "midi": 59,
                    "time": 154.75000000000006,
                    "velocity": 0.6141732283464567,
                    "duration": 0.24791666666666856
                },
                {
                    "name": "E4",
                    "midi": 64,
                    "time": 154.75000000000006,
                    "velocity": 0.5748031496062992,
                    "duration": 0.24791666666666856
                },
                {
                    "name": "F#3",
                    "midi": 54,
                    "time": 154.75000000000006,
                    "velocity": 0.6299212598425197,
                    "duration": 0.24791666666666856
                },
                {
                    "name": "F#6",
                    "midi": 90,
                    "time": 155.00000000000006,
                    "velocity": 0.7401574803149606,
                    "duration": 0.12291666666666856
                },
                {
                    "name": "C4",
                    "midi": 60,
                    "time": 155.00000000000006,
                    "velocity": 0.6377952755905512,
                    "duration": 0.24791666666666856
                },
                {
                    "name": "E4",
                    "midi": 64,
                    "time": 155.00000000000006,
                    "velocity": 0.5511811023622047,
                    "duration": 0.24791666666666856
                },
                {
                    "name": "F#3",
                    "midi": 54,
                    "time": 155.00000000000006,
                    "velocity": 0.4645669291338583,
                    "duration": 0.24791666666666856
                },
                {
                    "name": "F#5",
                    "midi": 78,
                    "time": 155.12500000000006,
                    "velocity": 0.6692913385826772,
                    "duration": 0.12291666666666856
                },
                {
                    "name": "F5",
                    "midi": 77,
                    "time": 155.25000000000006,
                    "velocity": 0.5984251968503937,
                    "duration": 0.12291666666666856
                },
                {
                    "name": "F#3",
                    "midi": 54,
                    "time": 155.25000000000006,
                    "velocity": 0.5511811023622047,
                    "duration": 0.49791666666666856
                },
                {
                    "name": "C4",
                    "midi": 60,
                    "time": 155.25000000000006,
                    "velocity": 0.6535433070866141,
                    "duration": 0.49791666666666856
                },
                {
                    "name": "E4",
                    "midi": 64,
                    "time": 155.25000000000006,
                    "velocity": 0.5196850393700787,
                    "duration": 0.49791666666666856
                },
                {
                    "name": "F#5",
                    "midi": 78,
                    "time": 155.37500000000006,
                    "velocity": 0.5984251968503937,
                    "duration": 0.12291666666666856
                },
                {
                    "name": "F#4",
                    "midi": 66,
                    "time": 155.50000000000006,
                    "velocity": 0.6692913385826772,
                    "duration": 0.49791666666666856
                },
                {
                    "name": "F#3",
                    "midi": 54,
                    "time": 155.75000000000006,
                    "velocity": 0.5039370078740157,
                    "duration": 0.24791666666666856
                },
                {
                    "name": "C4",
                    "midi": 60,
                    "time": 155.75000000000006,
                    "velocity": 0.6850393700787402,
                    "duration": 0.24791666666666856
                },
                {
                    "name": "E4",
                    "midi": 64,
                    "time": 155.75000000000006,
                    "velocity": 0.5039370078740157,
                    "duration": 0.24791666666666856
                },
                {
                    "name": "G#3",
                    "midi": 56,
                    "time": 156.00000000000006,
                    "velocity": 0.6771653543307087,
                    "duration": 0.24791666666666856
                },
                {
                    "name": "E3",
                    "midi": 52,
                    "time": 156.00000000000006,
                    "velocity": 0.5984251968503937,
                    "duration": 0.24791666666666856
                },
                {
                    "name": "C5",
                    "midi": 72,
                    "time": 156.25000000000006,
                    "velocity": 0.7086614173228346,
                    "duration": 0.24791666666666856
                },
                {
                    "name": "C4",
                    "midi": 60,
                    "time": 156.25000000000006,
                    "velocity": 0.6929133858267716,
                    "duration": 0.24791666666666856
                },
                {
                    "name": "F#3",
                    "midi": 54,
                    "time": 156.25000000000006,
                    "velocity": 0.7401574803149606,
                    "duration": 0.24791666666666856
                },
                {
                    "name": "D#3",
                    "midi": 51,
                    "time": 156.25000000000006,
                    "velocity": 0.6771653543307087,
                    "duration": 0.24791666666666856
                },
                {
                    "name": "E5",
                    "midi": 76,
                    "time": 156.50000000000006,
                    "velocity": 0.7401574803149606,
                    "duration": 0.24791666666666856
                },
                {
                    "name": "E4",
                    "midi": 64,
                    "time": 156.50000000000006,
                    "velocity": 0.7322834645669292,
                    "duration": 0.24791666666666856
                },
                {
                    "name": "C#5",
                    "midi": 73,
                    "time": 156.50000000000006,
                    "velocity": 0.7401574803149606,
                    "duration": 0.24791666666666856
                },
                {
                    "name": "E3",
                    "midi": 52,
                    "time": 156.50000000000006,
                    "velocity": 0.7795275590551181,
                    "duration": 0.24791666666666856
                },
                {
                    "name": "C#3",
                    "midi": 49,
                    "time": 156.50000000000006,
                    "velocity": 0.7322834645669292,
                    "duration": 0.24791666666666856
                },
                {
                    "name": "F#5",
                    "midi": 78,
                    "time": 156.75000000000006,
                    "velocity": 0.8110236220472441,
                    "duration": 0.24791666666666856
                },
                {
                    "name": "D#5",
                    "midi": 75,
                    "time": 156.75000000000006,
                    "velocity": 0.7322834645669292,
                    "duration": 0.24791666666666856
                },
                {
                    "name": "F#4",
                    "midi": 66,
                    "time": 156.75000000000006,
                    "velocity": 0.7401574803149606,
                    "duration": 0.24791666666666856
                },
                {
                    "name": "D#3",
                    "midi": 51,
                    "time": 156.75000000000006,
                    "velocity": 0.7637795275590551,
                    "duration": 0.24791666666666856
                },
                {
                    "name": "B2",
                    "midi": 47,
                    "time": 156.75000000000006,
                    "velocity": 0.7795275590551181,
                    "duration": 0.24791666666666856
                },
                {
                    "name": "G#5",
                    "midi": 80,
                    "time": 157.00000000000006,
                    "velocity": 0.7637795275590551,
                    "duration": 0.24791666666666856
                },
                {
                    "name": "E5",
                    "midi": 76,
                    "time": 157.00000000000006,
                    "velocity": 0.7401574803149606,
                    "duration": 0.24791666666666856
                },
                {
                    "name": "G#4",
                    "midi": 68,
                    "time": 157.00000000000006,
                    "velocity": 0.7637795275590551,
                    "duration": 0.24791666666666856
                },
                {
                    "name": "C#3",
                    "midi": 49,
                    "time": 157.00000000000006,
                    "velocity": 0.7559055118110236,
                    "duration": 0.24791666666666856
                },
                {
                    "name": "A2",
                    "midi": 45,
                    "time": 157.00000000000006,
                    "velocity": 0.7637795275590551,
                    "duration": 0.24791666666666856
                },
                {
                    "name": "G#6",
                    "midi": 92,
                    "time": 157.37500000000006,
                    "velocity": 0.7637795275590551,
                    "duration": 0.12291666666666856
                },
                {
                    "name": "G#5",
                    "midi": 80,
                    "time": 157.37500000000006,
                    "velocity": 0.7322834645669292,
                    "duration": 0.12291666666666856
                },
                {
                    "name": "A1",
                    "midi": 33,
                    "time": 157.37500000000006,
                    "velocity": 0.7795275590551181,
                    "duration": 0.12291666666666856
                },
                {
                    "name": "A2",
                    "midi": 45,
                    "time": 157.37500000000006,
                    "velocity": 0.7716535433070866,
                    "duration": 0.12291666666666856
                },
                {
                    "name": "D#5",
                    "midi": 75,
                    "time": 157.50000000000006,
                    "velocity": 0.7559055118110236,
                    "duration": 0.49791666666666856
                },
                {
                    "name": "A#5",
                    "midi": 82,
                    "time": 157.50000000000006,
                    "velocity": 0.7716535433070866,
                    "duration": 0.49791666666666856
                },
                {
                    "name": "D#6",
                    "midi": 87,
                    "time": 157.50000000000006,
                    "velocity": 0.7401574803149606,
                    "duration": 0.49791666666666856
                },
                {
                    "name": "G#5",
                    "midi": 80,
                    "time": 157.50000000000006,
                    "velocity": 0.7086614173228346,
                    "duration": 0.49791666666666856
                },
                {
                    "name": "D#3",
                    "midi": 51,
                    "time": 157.50000000000006,
                    "velocity": 0.6929133858267716,
                    "duration": 0.49791666666666856
                },
                {
                    "name": "D#2",
                    "midi": 39,
                    "time": 157.50000000000006,
                    "velocity": 0.8818897637795275,
                    "duration": 0.49791666666666856
                },
                {
                    "name": "G5",
                    "midi": 79,
                    "time": 158.00000000000006,
                    "velocity": 0.7401574803149606,
                    "duration": 0.24791666666666856
                },
                {
                    "name": "B3",
                    "midi": 59,
                    "time": 158.00000000000006,
                    "velocity": 0.7322834645669292,
                    "duration": 0.49791666666666856
                },
                {
                    "name": "G#3",
                    "midi": 56,
                    "time": 158.00000000000006,
                    "velocity": 0.6850393700787402,
                    "duration": 0.49791666666666856
                },
                {
                    "name": "G4",
                    "midi": 67,
                    "time": 158.25000000000006,
                    "velocity": 0.6850393700787402,
                    "duration": 0.24791666666666856
                },
                {
                    "name": "F#4",
                    "midi": 66,
                    "time": 158.50000000000006,
                    "velocity": 0.5669291338582677,
                    "duration": 0.24791666666666856
                },
                {
                    "name": "A#3",
                    "midi": 58,
                    "time": 158.50000000000006,
                    "velocity": 0.7559055118110236,
                    "duration": 0.49791666666666856
                },
                {
                    "name": "D#3",
                    "midi": 51,
                    "time": 158.50000000000006,
                    "velocity": 0.7637795275590551,
                    "duration": 0.49791666666666856
                },
                {
                    "name": "G4",
                    "midi": 67,
                    "time": 158.75000000000006,
                    "velocity": 0.6535433070866141,
                    "duration": 0.24791666666666856
                },
                {
                    "name": "G5",
                    "midi": 79,
                    "time": 159.00000000000006,
                    "velocity": 0.7559055118110236,
                    "duration": 0.24791666666666856
                },
                {
                    "name": "B3",
                    "midi": 59,
                    "time": 159.00000000000006,
                    "velocity": 0.7086614173228346,
                    "duration": 0.49791666666666856
                },
                {
                    "name": "G#3",
                    "midi": 56,
                    "time": 159.00000000000006,
                    "velocity": 0.7165354330708661,
                    "duration": 0.49791666666666856
                },
                {
                    "name": "G4",
                    "midi": 67,
                    "time": 159.25000000000006,
                    "velocity": 0.6850393700787402,
                    "duration": 0.24791666666666856
                },
                {
                    "name": "F#4",
                    "midi": 66,
                    "time": 159.50000000000006,
                    "velocity": 0.6141732283464567,
                    "duration": 0.24791666666666856
                },
                {
                    "name": "A#3",
                    "midi": 58,
                    "time": 159.50000000000006,
                    "velocity": 0.6456692913385826,
                    "duration": 0.49791666666666856
                },
                {
                    "name": "D#3",
                    "midi": 51,
                    "time": 159.50000000000006,
                    "velocity": 0.6850393700787402,
                    "duration": 0.49791666666666856
                },
                {
                    "name": "G4",
                    "midi": 67,
                    "time": 159.75000000000006,
                    "velocity": 0.6456692913385826,
                    "duration": 0.24791666666666856
                },
                {
                    "name": "G5",
                    "midi": 79,
                    "time": 160.00000000000006,
                    "velocity": 0.7716535433070866,
                    "duration": 0.12291666666666856
                },
                {
                    "name": "B3",
                    "midi": 59,
                    "time": 160.00000000000006,
                    "velocity": 0.6929133858267716,
                    "duration": 0.49791666666666856
                },
                {
                    "name": "G#3",
                    "midi": 56,
                    "time": 160.00000000000006,
                    "velocity": 0.7165354330708661,
                    "duration": 0.49791666666666856
                },
                {
                    "name": "G4",
                    "midi": 67,
                    "time": 160.12500000000006,
                    "velocity": 0.6850393700787402,
                    "duration": 0.12291666666666856
                },
                {
                    "name": "F#4",
                    "midi": 66,
                    "time": 160.25000000000006,
                    "velocity": 0.7401574803149606,
                    "duration": 0.12291666666666856
                },
                {
                    "name": "G4",
                    "midi": 67,
                    "time": 160.37500000000006,
                    "velocity": 0.8818897637795275,
                    "duration": 0.12291666666666856
                },
                {
                    "name": "G2",
                    "midi": 43,
                    "time": 160.50000000000006,
                    "velocity": 0.8582677165354331,
                    "duration": 0.49791666666666856
                },
                {
                    "name": "A#3",
                    "midi": 58,
                    "time": 160.50000000000006,
                    "velocity": 0.6535433070866141,
                    "duration": 0.49791666666666856
                },
                {
                    "name": "D#3",
                    "midi": 51,
                    "time": 160.50000000000006,
                    "velocity": 0.6929133858267716,
                    "duration": 0.49791666666666856
                },
                {
                    "name": "G4",
                    "midi": 67,
                    "time": 161.00000000000006,
                    "velocity": 0.7401574803149606,
                    "duration": 0.12291666666666856
                },
                {
                    "name": "A#1",
                    "midi": 34,
                    "time": 161.00000000000006,
                    "velocity": 0.7559055118110236,
                    "duration": 0.49791666666666856
                },
                {
                    "name": "A#2",
                    "midi": 46,
                    "time": 161.00000000000006,
                    "velocity": 0.7559055118110236,
                    "duration": 0.49791666666666856
                },
                {
                    "name": "G3",
                    "midi": 55,
                    "time": 161.12500000000006,
                    "velocity": 0.6771653543307087,
                    "duration": 0.12291666666666856
                },
                {
                    "name": "C3",
                    "midi": 48,
                    "time": 161.25000000000006,
                    "velocity": 0.7086614173228346,
                    "duration": 0.12291666666666856
                },
                {
                    "name": "C#3",
                    "midi": 49,
                    "time": 161.37500000000006,
                    "velocity": 0.7401574803149606,
                    "duration": 0.12291666666666856
                },
                {
                    "name": "D3",
                    "midi": 50,
                    "time": 161.50000000000006,
                    "velocity": 0.7716535433070866,
                    "duration": 0.49791666666666856
                },
                {
                    "name": "D#2",
                    "midi": 39,
                    "time": 161.50000000000006,
                    "velocity": 0.8110236220472441,
                    "duration": 0.49791666666666856
                },
                {
                    "name": "D#1",
                    "midi": 27,
                    "time": 161.50000000000006,
                    "velocity": 0.7716535433070866,
                    "duration": 0.49791666666666856
                },
                {
                    "name": "A#3",
                    "midi": 58,
                    "time": 162.00000000000006,
                    "velocity": 0.5905511811023622,
                    "duration": 0.49791666666666856
                },
                {
                    "name": "D4",
                    "midi": 62,
                    "time": 162.00000000000006,
                    "velocity": 0.5590551181102362,
                    "duration": 0.49791666666666856
                },
                {
                    "name": "D4",
                    "midi": 62,
                    "time": 162.00000000000006,
                    "velocity": 0.7559055118110236,
                    "duration": 0.9979166666666686
                },
                {
                    "name": "D#3",
                    "midi": 51,
                    "time": 162.00000000000006,
                    "velocity": 0.6929133858267716,
                    "duration": 0.24791666666666856
                },
                {
                    "name": "A#2",
                    "midi": 46,
                    "time": 162.25000000000006,
                    "velocity": 0.6456692913385826,
                    "duration": 0.24791666666666856
                },
                {
                    "name": "G3",
                    "midi": 55,
                    "time": 162.50000000000006,
                    "velocity": 0.5039370078740157,
                    "duration": 0.49791666666666856
                },
                {
                    "name": "C#4",
                    "midi": 61,
                    "time": 162.50000000000006,
                    "velocity": 0.6062992125984252,
                    "duration": 0.49791666666666856
                },
                {
                    "name": "A2",
                    "midi": 45,
                    "time": 162.50000000000006,
                    "velocity": 0.7401574803149606,
                    "duration": 0.24791666666666856
                },
                {
                    "name": "A#2",
                    "midi": 46,
                    "time": 162.75000000000006,
                    "velocity": 0.6535433070866141,
                    "duration": 0.24791666666666856
                },
                {
                    "name": "A#3",
                    "midi": 58,
                    "time": 163.00000000000006,
                    "velocity": 0.6299212598425197,
                    "duration": 0.49791666666666856
                },
                {
                    "name": "D4",
                    "midi": 62,
                    "time": 163.00000000000006,
                    "velocity": 0.6771653543307087,
                    "duration": 0.49791666666666856
                },
                {
                    "name": "D#4",
                    "midi": 63,
                    "time": 163.00000000000006,
                    "velocity": 0.7401574803149606,
                    "duration": 0.9979166666666686
                },
                {
                    "name": "D#3",
                    "midi": 51,
                    "time": 163.00000000000006,
                    "velocity": 0.7086614173228346,
                    "duration": 0.24791666666666856
                },
                {
                    "name": "D#2",
                    "midi": 39,
                    "time": 163.25000000000006,
                    "velocity": 0.6456692913385826,
                    "duration": 0.24791666666666856
                },
                {
                    "name": "C#4",
                    "midi": 61,
                    "time": 163.50000000000006,
                    "velocity": 0.6141732283464567,
                    "duration": 0.49791666666666856
                },
                {
                    "name": "G3",
                    "midi": 55,
                    "time": 163.50000000000006,
                    "velocity": 0.47244094488188976,
                    "duration": 0.49791666666666856
                },
                {
                    "name": "D2",
                    "midi": 38,
                    "time": 163.50000000000006,
                    "velocity": 0.6850393700787402,
                    "duration": 0.24791666666666856
                },
                {
                    "name": "D#2",
                    "midi": 39,
                    "time": 163.75000000000006,
                    "velocity": 0.5275590551181102,
                    "duration": 0.24791666666666856
                },
                {
                    "name": "D4",
                    "midi": 62,
                    "time": 164.00000000000006,
                    "velocity": 0.5354330708661418,
                    "duration": 0.49791666666666856
                },
                {
                    "name": "A#3",
                    "midi": 58,
                    "time": 164.00000000000006,
                    "velocity": 0.5590551181102362,
                    "duration": 0.49791666666666856
                },
                {
                    "name": "E4",
                    "midi": 64,
                    "time": 164.00000000000006,
                    "velocity": 0.7637795275590551,
                    "duration": 0.9979166666666686
                },
                {
                    "name": "D#3",
                    "midi": 51,
                    "time": 164.00000000000006,
                    "velocity": 0.6141732283464567,
                    "duration": 0.24791666666666856
                },
                {
                    "name": "A#2",
                    "midi": 46,
                    "time": 164.25000000000006,
                    "velocity": 0.6850393700787402,
                    "duration": 0.24791666666666856
                },
                {
                    "name": "C#4",
                    "midi": 61,
                    "time": 164.50000000000006,
                    "velocity": 0.6062992125984252,
                    "duration": 0.49791666666666856
                },
                {
                    "name": "G3",
                    "midi": 55,
                    "time": 164.50000000000006,
                    "velocity": 0.49606299212598426,
                    "duration": 0.49791666666666856
                },
                {
                    "name": "A2",
                    "midi": 45,
                    "time": 164.50000000000006,
                    "velocity": 0.6850393700787402,
                    "duration": 0.24791666666666856
                },
                {
                    "name": "A#2",
                    "midi": 46,
                    "time": 164.75000000000006,
                    "velocity": 0.6141732283464567,
                    "duration": 0.24791666666666856
                },
                {
                    "name": "D4",
                    "midi": 62,
                    "time": 165.00000000000006,
                    "velocity": 0.6456692913385826,
                    "duration": 0.49791666666666856
                },
                {
                    "name": "A#3",
                    "midi": 58,
                    "time": 165.00000000000006,
                    "velocity": 0.5905511811023622,
                    "duration": 0.49791666666666856
                },
                {
                    "name": "F4",
                    "midi": 65,
                    "time": 165.00000000000006,
                    "velocity": 0.6850393700787402,
                    "duration": 0.49791666666666856
                },
                {
                    "name": "D#3",
                    "midi": 51,
                    "time": 165.00000000000006,
                    "velocity": 0.6377952755905512,
                    "duration": 0.24791666666666856
                },
                {
                    "name": "D#2",
                    "midi": 39,
                    "time": 165.25000000000006,
                    "velocity": 0.6141732283464567,
                    "duration": 0.24791666666666856
                },
                {
                    "name": "F6",
                    "midi": 89,
                    "time": 165.50000000000006,
                    "velocity": 0.7637795275590551,
                    "duration": 0.12291666666666856
                },
                {
                    "name": "D2",
                    "midi": 38,
                    "time": 165.50000000000006,
                    "velocity": 0.6535433070866141,
                    "duration": 0.24791666666666856
                },
                {
                    "name": "F5",
                    "midi": 77,
                    "time": 165.62500000000006,
                    "velocity": 0.7086614173228346,
                    "duration": 0.12291666666666856
                },
                {
                    "name": "E5",
                    "midi": 76,
                    "time": 165.75000000000006,
                    "velocity": 0.6929133858267716,
                    "duration": 0.12291666666666856
                },
                {
                    "name": "D#2",
                    "midi": 39,
                    "time": 165.75000000000006,
                    "velocity": 0.6062992125984252,
                    "duration": 0.24791666666666856
                },
                {
                    "name": "F5",
                    "midi": 77,
                    "time": 165.87500000000006,
                    "velocity": 0.7322834645669292,
                    "duration": 0.12291666666666856
                },
                {
                    "name": "F4",
                    "midi": 65,
                    "time": 166.00000000000006,
                    "velocity": 0.6850393700787402,
                    "duration": 0.24791666666666856
                },
                {
                    "name": "D#3",
                    "midi": 51,
                    "time": 166.00000000000006,
                    "velocity": 0.6535433070866141,
                    "duration": 0.24791666666666856
                },
                {
                    "name": "A#2",
                    "midi": 46,
                    "time": 166.25000000000006,
                    "velocity": 0.6456692913385826,
                    "duration": 0.24791666666666856
                },
                {
                    "name": "E4",
                    "midi": 64,
                    "time": 166.37500000000006,
                    "velocity": 0.5984251968503937,
                    "duration": 0.12291666666666856
                },
                {
                    "name": "G3",
                    "midi": 55,
                    "time": 166.50000000000006,
                    "velocity": 0.5984251968503937,
                    "duration": 0.49791666666666856
                },
                {
                    "name": "C#4",
                    "midi": 61,
                    "time": 166.50000000000006,
                    "velocity": 0.6377952755905512,
                    "duration": 0.49791666666666856
                },
                {
                    "name": "E4",
                    "midi": 64,
                    "time": 166.50000000000006,
                    "velocity": 0.6929133858267716,
                    "duration": 0.8729166666666686
                },
                {
                    "name": "A2",
                    "midi": 45,
                    "time": 166.50000000000006,
                    "velocity": 0.6535433070866141,
                    "duration": 0.24791666666666856
                },
                {
                    "name": "A#2",
                    "midi": 46,
                    "time": 166.75000000000006,
                    "velocity": 0.5748031496062992,
                    "duration": 0.24791666666666856
                },
                {
                    "name": "D4",
                    "midi": 62,
                    "time": 167.00000000000006,
                    "velocity": 0.6929133858267716,
                    "duration": 0.49791666666666856
                },
                {
                    "name": "A#3",
                    "midi": 58,
                    "time": 167.00000000000006,
                    "velocity": 0.5984251968503937,
                    "duration": 0.49791666666666856
                },
                {
                    "name": "D#3",
                    "midi": 51,
                    "time": 167.00000000000006,
                    "velocity": 0.6299212598425197,
                    "duration": 0.24791666666666856
                },
                {
                    "name": "D#2",
                    "midi": 39,
                    "time": 167.25000000000006,
                    "velocity": 0.6692913385826772,
                    "duration": 0.24791666666666856
                },
                {
                    "name": "F4",
                    "midi": 65,
                    "time": 167.37500000000006,
                    "velocity": 0.5984251968503937,
                    "duration": 0.12291666666666856
                },
                {
                    "name": "C#4",
                    "midi": 61,
                    "time": 167.50000000000006,
                    "velocity": 0.5984251968503937,
                    "duration": 0.49791666666666856
                },
                {
                    "name": "G3",
                    "midi": 55,
                    "time": 167.50000000000006,
                    "velocity": 0.47244094488188976,
                    "duration": 0.49791666666666856
                },
                {
                    "name": "F4",
                    "midi": 65,
                    "time": 167.50000000000006,
                    "velocity": 0.6771653543307087,
                    "duration": 0.8729166666666686
                },
                {
                    "name": "D2",
                    "midi": 38,
                    "time": 167.50000000000006,
                    "velocity": 0.6929133858267716,
                    "duration": 0.24791666666666856
                },
                {
                    "name": "D#2",
                    "midi": 39,
                    "time": 167.75000000000006,
                    "velocity": 0.6456692913385826,
                    "duration": 0.24791666666666856
                },
                {
                    "name": "D#3",
                    "midi": 51,
                    "time": 168.00000000000006,
                    "velocity": 0.6929133858267716,
                    "duration": 0.24791666666666856
                },
                {
                    "name": "D4",
                    "midi": 62,
                    "time": 168.00000000000006,
                    "velocity": 0.5984251968503937,
                    "duration": 0.49791666666666856
                },
                {
                    "name": "A#3",
                    "midi": 58,
                    "time": 168.00000000000006,
                    "velocity": 0.6062992125984252,
                    "duration": 0.49791666666666856
                },
                {
                    "name": "A#2",
                    "midi": 46,
                    "time": 168.25000000000006,
                    "velocity": 0.6456692913385826,
                    "duration": 0.24791666666666856
                },
                {
                    "name": "F#4",
                    "midi": 66,
                    "time": 168.37500000000006,
                    "velocity": 0.6456692913385826,
                    "duration": 0.12291666666666856
                },
                {
                    "name": "A2",
                    "midi": 45,
                    "time": 168.50000000000006,
                    "velocity": 0.7401574803149606,
                    "duration": 0.24791666666666856
                },
                {
                    "name": "F#4",
                    "midi": 66,
                    "time": 168.50000000000006,
                    "velocity": 0.6692913385826772,
                    "duration": 0.8729166666666686
                },
                {
                    "name": "C#4",
                    "midi": 61,
                    "time": 168.50000000000006,
                    "velocity": 0.44881889763779526,
                    "duration": 0.49791666666666856
                },
                {
                    "name": "G3",
                    "midi": 55,
                    "time": 168.50000000000006,
                    "velocity": 0.5984251968503937,
                    "duration": 0.49791666666666856
                },
                {
                    "name": "A#2",
                    "midi": 46,
                    "time": 168.75000000000006,
                    "velocity": 0.6535433070866141,
                    "duration": 0.24791666666666856
                },
                {
                    "name": "D#3",
                    "midi": 51,
                    "time": 169.00000000000006,
                    "velocity": 0.7086614173228346,
                    "duration": 0.24791666666666856
                },
                {
                    "name": "A#3",
                    "midi": 58,
                    "time": 169.00000000000006,
                    "velocity": 0.5984251968503937,
                    "duration": 0.49791666666666856
                },
                {
                    "name": "D4",
                    "midi": 62,
                    "time": 169.00000000000006,
                    "velocity": 0.5669291338582677,
                    "duration": 0.49791666666666856
                },
                {
                    "name": "D#2",
                    "midi": 39,
                    "time": 169.25000000000006,
                    "velocity": 0.6456692913385826,
                    "duration": 0.24791666666666856
                },
                {
                    "name": "G4",
                    "midi": 67,
                    "time": 169.37500000000006,
                    "velocity": 0.6377952755905512,
                    "duration": 0.12291666666666856
                },
                {
                    "name": "D2",
                    "midi": 38,
                    "time": 169.50000000000006,
                    "velocity": 0.6850393700787402,
                    "duration": 0.24791666666666856
                },
                {
                    "name": "G4",
                    "midi": 67,
                    "time": 169.50000000000006,
                    "velocity": 0.6692913385826772,
                    "duration": 0.49791666666666856
                },
                {
                    "name": "C#4",
                    "midi": 61,
                    "time": 169.50000000000006,
                    "velocity": 0.7559055118110236,
                    "duration": 0.49791666666666856
                },
                {
                    "name": "G3",
                    "midi": 55,
                    "time": 169.50000000000006,
                    "velocity": 0.5118110236220472,
                    "duration": 0.49791666666666856
                },
                {
                    "name": "E4",
                    "midi": 64,
                    "time": 169.50000000000006,
                    "velocity": 0.5748031496062992,
                    "duration": 0.49791666666666856
                },
                {
                    "name": "D#2",
                    "midi": 39,
                    "time": 169.75000000000006,
                    "velocity": 0.5275590551181102,
                    "duration": 0.24791666666666856
                },
                {
                    "name": "D#3",
                    "midi": 51,
                    "time": 170.00000000000006,
                    "velocity": 0.6141732283464567,
                    "duration": 0.24791666666666856
                },
                {
                    "name": "G4",
                    "midi": 67,
                    "time": 170.00000000000006,
                    "velocity": 0.7559055118110236,
                    "duration": 0.9979166666666686
                },
                {
                    "name": "C#4",
                    "midi": 61,
                    "time": 170.00000000000006,
                    "velocity": 0.6377952755905512,
                    "duration": 0.49791666666666856
                },
                {
                    "name": "F4",
                    "midi": 65,
                    "time": 170.00000000000006,
                    "velocity": 0.5748031496062992,
                    "duration": 0.49791666666666856
                },
                {
                    "name": "A#2",
                    "midi": 46,
                    "time": 170.25000000000006,
                    "velocity": 0.6850393700787402,
                    "duration": 0.24791666666666856
                },
                {
                    "name": "A2",
                    "midi": 45,
                    "time": 170.50000000000006,
                    "velocity": 0.6850393700787402,
                    "duration": 0.24791666666666856
                },
                {
                    "name": "G3",
                    "midi": 55,
                    "time": 170.50000000000006,
                    "velocity": 0.5905511811023622,
                    "duration": 0.49791666666666856
                },
                {
                    "name": "E4",
                    "midi": 64,
                    "time": 170.50000000000006,
                    "velocity": 0.48031496062992124,
                    "duration": 0.49791666666666856
                },
                {
                    "name": "A#2",
                    "midi": 46,
                    "time": 170.75000000000006,
                    "velocity": 0.6141732283464567,
                    "duration": 0.24791666666666856
                },
                {
                    "name": "D#3",
                    "midi": 51,
                    "time": 171.00000000000006,
                    "velocity": 0.6377952755905512,
                    "duration": 0.24791666666666856
                },
                {
                    "name": "G#4",
                    "midi": 68,
                    "time": 171.00000000000006,
                    "velocity": 0.7244094488188977,
                    "duration": 0.9979166666666686
                },
                {
                    "name": "C#4",
                    "midi": 61,
                    "time": 171.00000000000006,
                    "velocity": 0.5118110236220472,
                    "duration": 0.49791666666666856
                },
                {
                    "name": "F4",
                    "midi": 65,
                    "time": 171.00000000000006,
                    "velocity": 0.5275590551181102,
                    "duration": 0.49791666666666856
                },
                {
                    "name": "D#2",
                    "midi": 39,
                    "time": 171.25000000000006,
                    "velocity": 0.6141732283464567,
                    "duration": 0.24791666666666856
                },
                {
                    "name": "D2",
                    "midi": 38,
                    "time": 171.50000000000006,
                    "velocity": 0.6535433070866141,
                    "duration": 0.24791666666666856
                },
                {
                    "name": "G3",
                    "midi": 55,
                    "time": 171.50000000000006,
                    "velocity": 0.5905511811023622,
                    "duration": 0.49791666666666856
                },
                {
                    "name": "E4",
                    "midi": 64,
                    "time": 171.50000000000006,
                    "velocity": 0.4251968503937008,
                    "duration": 0.49791666666666856
                },
                {
                    "name": "D#2",
                    "midi": 39,
                    "time": 171.75000000000006,
                    "velocity": 0.6062992125984252,
                    "duration": 0.24791666666666856
                },
                {
                    "name": "D#3",
                    "midi": 51,
                    "time": 172.00000000000006,
                    "velocity": 0.6929133858267716,
                    "duration": 0.24791666666666856
                },
                {
                    "name": "A4",
                    "midi": 69,
                    "time": 172.00000000000006,
                    "velocity": 0.7401574803149606,
                    "duration": 0.9979166666666686
                },
                {
                    "name": "F4",
                    "midi": 65,
                    "time": 172.00000000000006,
                    "velocity": 0.6535433070866141,
                    "duration": 0.49791666666666856
                },
                {
                    "name": "C#4",
                    "midi": 61,
                    "time": 172.00000000000006,
                    "velocity": 0.5669291338582677,
                    "duration": 0.49791666666666856
                },
                {
                    "name": "A#2",
                    "midi": 46,
                    "time": 172.25000000000006,
                    "velocity": 0.6456692913385826,
                    "duration": 0.24791666666666856
                },
                {
                    "name": "A2",
                    "midi": 45,
                    "time": 172.50000000000006,
                    "velocity": 0.7401574803149606,
                    "duration": 0.24791666666666856
                },
                {
                    "name": "G3",
                    "midi": 55,
                    "time": 172.50000000000006,
                    "velocity": 0.6692913385826772,
                    "duration": 0.49791666666666856
                },
                {
                    "name": "E4",
                    "midi": 64,
                    "time": 172.50000000000006,
                    "velocity": 0.6692913385826772,
                    "duration": 0.49791666666666856
                },
                {
                    "name": "A#2",
                    "midi": 46,
                    "time": 172.75000000000006,
                    "velocity": 0.6535433070866141,
                    "duration": 0.24791666666666856
                },
                {
                    "name": "D#3",
                    "midi": 51,
                    "time": 173.00000000000006,
                    "velocity": 0.7086614173228346,
                    "duration": 0.24791666666666856
                },
                {
                    "name": "A#4",
                    "midi": 70,
                    "time": 173.00000000000006,
                    "velocity": 0.8110236220472441,
                    "duration": 0.49791666666666856
                },
                {
                    "name": "F4",
                    "midi": 65,
                    "time": 173.00000000000006,
                    "velocity": 0.49606299212598426,
                    "duration": 0.49791666666666856
                },
                {
                    "name": "C#4",
                    "midi": 61,
                    "time": 173.00000000000006,
                    "velocity": 0.5669291338582677,
                    "duration": 0.49791666666666856
                },
                {
                    "name": "D#2",
                    "midi": 39,
                    "time": 173.25000000000006,
                    "velocity": 0.6456692913385826,
                    "duration": 0.24791666666666856
                },
                {
                    "name": "D2",
                    "midi": 38,
                    "time": 173.50000000000006,
                    "velocity": 0.6850393700787402,
                    "duration": 0.24791666666666856
                },
                {
                    "name": "F#6",
                    "midi": 90,
                    "time": 173.50000000000006,
                    "velocity": 0.7401574803149606,
                    "duration": 0.12291666666666856
                },
                {
                    "name": "F#5",
                    "midi": 78,
                    "time": 173.62500000000006,
                    "velocity": 0.6062992125984252,
                    "duration": 0.12291666666666856
                },
                {
                    "name": "D#2",
                    "midi": 39,
                    "time": 173.75000000000006,
                    "velocity": 0.5275590551181102,
                    "duration": 0.24791666666666856
                },
                {
                    "name": "F5",
                    "midi": 77,
                    "time": 173.75000000000006,
                    "velocity": 0.6929133858267716,
                    "duration": 0.12291666666666856
                },
                {
                    "name": "F#5",
                    "midi": 78,
                    "time": 173.87500000000006,
                    "velocity": 0.7086614173228346,
                    "duration": 0.12291666666666856
                },
                {
                    "name": "A#4",
                    "midi": 70,
                    "time": 174.00000000000006,
                    "velocity": 0.7716535433070866,
                    "duration": 0.24791666666666856
                },
                {
                    "name": "D#3",
                    "midi": 51,
                    "time": 174.00000000000006,
                    "velocity": 0.6141732283464567,
                    "duration": 0.24791666666666856
                },
                {
                    "name": "A#2",
                    "midi": 46,
                    "time": 174.25000000000006,
                    "velocity": 0.6850393700787402,
                    "duration": 0.24791666666666856
                },
                {
                    "name": "A4",
                    "midi": 69,
                    "time": 174.37500000000006,
                    "velocity": 0.7559055118110236,
                    "duration": 0.12291666666666856
                },
                {
                    "name": "G3",
                    "midi": 55,
                    "time": 174.50000000000006,
                    "velocity": 0.6535433070866141,
                    "duration": 0.49791666666666856
                },
                {
                    "name": "E4",
                    "midi": 64,
                    "time": 174.50000000000006,
                    "velocity": 0.6771653543307087,
                    "duration": 0.49791666666666856
                },
                {
                    "name": "A4",
                    "midi": 69,
                    "time": 174.50000000000006,
                    "velocity": 0.8818897637795275,
                    "duration": 0.8729166666666686
                },
                {
                    "name": "A2",
                    "midi": 45,
                    "time": 174.50000000000006,
                    "velocity": 0.6850393700787402,
                    "duration": 0.24791666666666856
                },
                {
                    "name": "A#2",
                    "midi": 46,
                    "time": 174.75000000000006,
                    "velocity": 0.6141732283464567,
                    "duration": 0.24791666666666856
                },
                {
                    "name": "C#4",
                    "midi": 61,
                    "time": 175.00000000000006,
                    "velocity": 0.6456692913385826,
                    "duration": 0.49791666666666856
                },
                {
                    "name": "F4",
                    "midi": 65,
                    "time": 175.00000000000006,
                    "velocity": 0.6850393700787402,
                    "duration": 0.49791666666666856
                },
                {
                    "name": "D#3",
                    "midi": 51,
                    "time": 175.00000000000006,
                    "velocity": 0.6377952755905512,
                    "duration": 0.24791666666666856
                },
                {
                    "name": "D#2",
                    "midi": 39,
                    "time": 175.25000000000006,
                    "velocity": 0.6141732283464567,
                    "duration": 0.24791666666666856
                },
                {
                    "name": "A#4",
                    "midi": 70,
                    "time": 175.37500000000006,
                    "velocity": 0.7559055118110236,
                    "duration": 0.12291666666666856
                },
                {
                    "name": "E4",
                    "midi": 64,
                    "time": 175.50000000000006,
                    "velocity": 0.6692913385826772,
                    "duration": 0.49791666666666856
                },
                {
                    "name": "A#3",
                    "midi": 58,
                    "time": 175.50000000000006,
                    "velocity": 0.5905511811023622,
                    "duration": 0.49791666666666856
                },
                {
                    "name": "A#4",
                    "midi": 70,
                    "time": 175.50000000000006,
                    "velocity": 0.7559055118110236,
                    "duration": 0.8729166666666686
                },
                {
                    "name": "D2",
                    "midi": 38,
                    "time": 175.50000000000006,
                    "velocity": 0.6535433070866141,
                    "duration": 0.24791666666666856
                },
                {
                    "name": "D#2",
                    "midi": 39,
                    "time": 175.75000000000006,
                    "velocity": 0.6062992125984252,
                    "duration": 0.24791666666666856
                },
                {
                    "name": "D#3",
                    "midi": 51,
                    "time": 176.00000000000006,
                    "velocity": 0.6141732283464567,
                    "duration": 0.24791666666666856
                },
                {
                    "name": "F4",
                    "midi": 65,
                    "time": 176.00000000000006,
                    "velocity": 0.7165354330708661,
                    "duration": 0.49791666666666856
                },
                {
                    "name": "C#4",
                    "midi": 61,
                    "time": 176.00000000000006,
                    "velocity": 0.6456692913385826,
                    "duration": 0.49791666666666856
                },
                {
                    "name": "A#2",
                    "midi": 46,
                    "time": 176.25000000000006,
                    "velocity": 0.6850393700787402,
                    "duration": 0.24791666666666856
                },
                {
                    "name": "B4",
                    "midi": 71,
                    "time": 176.37500000000006,
                    "velocity": 0.7165354330708661,
                    "duration": 0.12291666666666856
                },
                {
                    "name": "A2",
                    "midi": 45,
                    "time": 176.50000000000006,
                    "velocity": 0.6850393700787402,
                    "duration": 0.24791666666666856
                },
                {
                    "name": "F#4",
                    "midi": 66,
                    "time": 176.50000000000006,
                    "velocity": 0.5905511811023622,
                    "duration": 0.49791666666666856
                },
                {
                    "name": "D4",
                    "midi": 62,
                    "time": 176.50000000000006,
                    "velocity": 0.6456692913385826,
                    "duration": 0.49791666666666856
                },
                {
                    "name": "B4",
                    "midi": 71,
                    "time": 176.50000000000006,
                    "velocity": 0.8582677165354331,
                    "duration": 0.8729166666666686
                },
                {
                    "name": "A#2",
                    "midi": 46,
                    "time": 176.75000000000006,
                    "velocity": 0.6141732283464567,
                    "duration": 0.24791666666666856
                },
                {
                    "name": "D#3",
                    "midi": 51,
                    "time": 177.00000000000006,
                    "velocity": 0.6377952755905512,
                    "duration": 0.24791666666666856
                },
                {
                    "name": "F4",
                    "midi": 65,
                    "time": 177.00000000000006,
                    "velocity": 0.6850393700787402,
                    "duration": 0.49791666666666856
                },
                {
                    "name": "C#4",
                    "midi": 61,
                    "time": 177.00000000000006,
                    "velocity": 0.6377952755905512,
                    "duration": 0.49791666666666856
                },
                {
                    "name": "D#2",
                    "midi": 39,
                    "time": 177.25000000000006,
                    "velocity": 0.6141732283464567,
                    "duration": 0.24791666666666856
                },
                {
                    "name": "C5",
                    "midi": 72,
                    "time": 177.37500000000006,
                    "velocity": 0.7401574803149606,
                    "duration": 0.12291666666666856
                },
                {
                    "name": "D2",
                    "midi": 38,
                    "time": 177.50000000000006,
                    "velocity": 0.6535433070866141,
                    "duration": 0.24791666666666856
                },
                {
                    "name": "F#4",
                    "midi": 66,
                    "time": 177.50000000000006,
                    "velocity": 0.6456692913385826,
                    "duration": 0.49791666666666856
                },
                {
                    "name": "C4",
                    "midi": 60,
                    "time": 177.50000000000006,
                    "velocity": 0.6062992125984252,
                    "duration": 0.49791666666666856
                },
                {
                    "name": "C5",
                    "midi": 72,
                    "time": 177.50000000000006,
                    "velocity": 0.8110236220472441,
                    "duration": 0.49791666666666856
                },
                {
                    "name": "D#2",
                    "midi": 39,
                    "time": 177.75000000000006,
                    "velocity": 0.6062992125984252,
                    "duration": 0.24791666666666856
                },
                {
                    "name": "F5",
                    "midi": 77,
                    "time": 178.00000000000006,
                    "velocity": 0.8346456692913385,
                    "duration": 2.9979166666666686
                },
                {
                    "name": "D3",
                    "midi": 50,
                    "time": 178.00000000000006,
                    "velocity": 0.7559055118110236,
                    "duration": 0.24791666666666856
                },
                {
                    "name": "D2",
                    "midi": 38,
                    "time": 178.25000000000006,
                    "velocity": 0.7401574803149606,
                    "duration": 0.24791666666666856
                },
                {
                    "name": "A#4",
                    "midi": 70,
                    "time": 178.50000000000006,
                    "velocity": 0.6456692913385826,
                    "duration": 0.9979166666666686
                },
                {
                    "name": "G#4",
                    "midi": 68,
                    "time": 178.50000000000006,
                    "velocity": 0.6062992125984252,
                    "duration": 0.9979166666666686
                },
                {
                    "name": "F4",
                    "midi": 65,
                    "time": 178.50000000000006,
                    "velocity": 0.7637795275590551,
                    "duration": 0.49791666666666856
                },
                {
                    "name": "C#2",
                    "midi": 37,
                    "time": 178.50000000000006,
                    "velocity": 0.6692913385826772,
                    "duration": 0.24791666666666856
                },
                {
                    "name": "D2",
                    "midi": 38,
                    "time": 178.75000000000006,
                    "velocity": 0.7401574803149606,
                    "duration": 0.24791666666666856
                },
                {
                    "name": "E4",
                    "midi": 64,
                    "time": 179.00000000000006,
                    "velocity": 0.7716535433070866,
                    "duration": 0.49791666666666856
                },
                {
                    "name": "D3",
                    "midi": 50,
                    "time": 179.00000000000006,
                    "velocity": 0.7322834645669292,
                    "duration": 0.24791666666666856
                },
                {
                    "name": "D2",
                    "midi": 38,
                    "time": 179.25000000000006,
                    "velocity": 0.7165354330708661,
                    "duration": 0.24791666666666856
                },
                {
                    "name": "A#4",
                    "midi": 70,
                    "time": 179.50000000000006,
                    "velocity": 0.6850393700787402,
                    "duration": 0.9979166666666686
                },
                {
                    "name": "G#4",
                    "midi": 68,
                    "time": 179.50000000000006,
                    "velocity": 0.5984251968503937,
                    "duration": 0.9979166666666686
                },
                {
                    "name": "F4",
                    "midi": 65,
                    "time": 179.50000000000006,
                    "velocity": 0.7244094488188977,
                    "duration": 0.49791666666666856
                },
                {
                    "name": "C#2",
                    "midi": 37,
                    "time": 179.50000000000006,
                    "velocity": 0.6929133858267716,
                    "duration": 0.24791666666666856
                },
                {
                    "name": "D2",
                    "midi": 38,
                    "time": 179.75000000000006,
                    "velocity": 0.7244094488188977,
                    "duration": 0.24791666666666856
                },
                {
                    "name": "G#3",
                    "midi": 56,
                    "time": 180.00000000000006,
                    "velocity": 0.8110236220472441,
                    "duration": 0.49791666666666856
                },
                {
                    "name": "D3",
                    "midi": 50,
                    "time": 180.00000000000006,
                    "velocity": 0.7244094488188977,
                    "duration": 0.24791666666666856
                },
                {
                    "name": "D2",
                    "midi": 38,
                    "time": 180.25000000000006,
                    "velocity": 0.6141732283464567,
                    "duration": 0.24791666666666856
                },
                {
                    "name": "A#4",
                    "midi": 70,
                    "time": 180.50000000000006,
                    "velocity": 0.6771653543307087,
                    "duration": 0.9979166666666686
                },
                {
                    "name": "G#4",
                    "midi": 68,
                    "time": 180.50000000000006,
                    "velocity": 0.5984251968503937,
                    "duration": 0.9979166666666686
                },
                {
                    "name": "F4",
                    "midi": 65,
                    "time": 180.50000000000006,
                    "velocity": 0.7559055118110236,
                    "duration": 0.49791666666666856
                },
                {
                    "name": "C#2",
                    "midi": 37,
                    "time": 180.50000000000006,
                    "velocity": 0.6456692913385826,
                    "duration": 0.24791666666666856
                },
                {
                    "name": "D2",
                    "midi": 38,
                    "time": 180.75000000000006,
                    "velocity": 0.7086614173228346,
                    "duration": 0.24791666666666856
                },
                {
                    "name": "E4",
                    "midi": 64,
                    "time": 181.00000000000006,
                    "velocity": 0.7716535433070866,
                    "duration": 0.49791666666666856
                },
                {
                    "name": "E5",
                    "midi": 76,
                    "time": 181.00000000000006,
                    "velocity": 0.7795275590551181,
                    "duration": 0.9979166666666686
                },
                {
                    "name": "D3",
                    "midi": 50,
                    "time": 181.00000000000006,
                    "velocity": 0.7559055118110236,
                    "duration": 0.24791666666666856
                },
                {
                    "name": "D2",
                    "midi": 38,
                    "time": 181.25000000000006,
                    "velocity": 0.7401574803149606,
                    "duration": 0.24791666666666856
                },
                {
                    "name": "A#4",
                    "midi": 70,
                    "time": 181.50000000000006,
                    "velocity": 0.5984251968503937,
                    "duration": 0.49791666666666856
                },
                {
                    "name": "G#4",
                    "midi": 68,
                    "time": 181.50000000000006,
                    "velocity": 0.6062992125984252,
                    "duration": 0.49791666666666856
                },
                {
                    "name": "F4",
                    "midi": 65,
                    "time": 181.50000000000006,
                    "velocity": 0.7244094488188977,
                    "duration": 0.49791666666666856
                },
                {
                    "name": "C#2",
                    "midi": 37,
                    "time": 181.50000000000006,
                    "velocity": 0.6692913385826772,
                    "duration": 0.24791666666666856
                },
                {
                    "name": "D2",
                    "midi": 38,
                    "time": 181.75000000000006,
                    "velocity": 0.7401574803149606,
                    "duration": 0.24791666666666856
                },
                {
                    "name": "C#5",
                    "midi": 73,
                    "time": 182.00000000000006,
                    "velocity": 0.7401574803149606,
                    "duration": 2.9979166666666686
                },
                {
                    "name": "D3",
                    "midi": 50,
                    "time": 182.00000000000006,
                    "velocity": 0.7322834645669292,
                    "duration": 0.24791666666666856
                },
                {
                    "name": "D2",
                    "midi": 38,
                    "time": 182.25000000000006,
                    "velocity": 0.7165354330708661,
                    "duration": 0.24791666666666856
                },
                {
                    "name": "G4",
                    "midi": 67,
                    "time": 182.50000000000006,
                    "velocity": 0.6771653543307087,
                    "duration": 0.9979166666666686
                },
                {
                    "name": "A#4",
                    "midi": 70,
                    "time": 182.50000000000006,
                    "velocity": 0.6377952755905512,
                    "duration": 0.9979166666666686
                },
                {
                    "name": "E4",
                    "midi": 64,
                    "time": 182.50000000000006,
                    "velocity": 0.7637795275590551,
                    "duration": 0.49791666666666856
                },
                {
                    "name": "C#2",
                    "midi": 37,
                    "time": 182.50000000000006,
                    "velocity": 0.6929133858267716,
                    "duration": 0.24791666666666856
                },
                {
                    "name": "D2",
                    "midi": 38,
                    "time": 182.75000000000006,
                    "velocity": 0.7244094488188977,
                    "duration": 0.24791666666666856
                },
                {
                    "name": "D#4",
                    "midi": 63,
                    "time": 183.00000000000006,
                    "velocity": 0.7165354330708661,
                    "duration": 0.49791666666666856
                },
                {
                    "name": "D3",
                    "midi": 50,
                    "time": 183.00000000000006,
                    "velocity": 0.7244094488188977,
                    "duration": 0.24791666666666856
                },
                {
                    "name": "D2",
                    "midi": 38,
                    "time": 183.25000000000006,
                    "velocity": 0.6141732283464567,
                    "duration": 0.24791666666666856
                },
                {
                    "name": "G4",
                    "midi": 67,
                    "time": 183.50000000000006,
                    "velocity": 0.6456692913385826,
                    "duration": 0.9979166666666686
                },
                {
                    "name": "A#4",
                    "midi": 70,
                    "time": 183.50000000000006,
                    "velocity": 0.6535433070866141,
                    "duration": 0.9979166666666686
                },
                {
                    "name": "E4",
                    "midi": 64,
                    "time": 183.50000000000006,
                    "velocity": 0.7401574803149606,
                    "duration": 0.49791666666666856
                },
                {
                    "name": "C#2",
                    "midi": 37,
                    "time": 183.50000000000006,
                    "velocity": 0.6456692913385826,
                    "duration": 0.24791666666666856
                },
                {
                    "name": "D2",
                    "midi": 38,
                    "time": 183.75000000000006,
                    "velocity": 0.7086614173228346,
                    "duration": 0.24791666666666856
                },
                {
                    "name": "G3",
                    "midi": 55,
                    "time": 184.00000000000006,
                    "velocity": 0.7637795275590551,
                    "duration": 0.49791666666666856
                },
                {
                    "name": "D3",
                    "midi": 50,
                    "time": 184.00000000000006,
                    "velocity": 0.7559055118110236,
                    "duration": 0.24791666666666856
                },
                {
                    "name": "D2",
                    "midi": 38,
                    "time": 184.25000000000006,
                    "velocity": 0.7401574803149606,
                    "duration": 0.24791666666666856
                },
                {
                    "name": "A#4",
                    "midi": 70,
                    "time": 184.50000000000006,
                    "velocity": 0.6141732283464567,
                    "duration": 0.9979166666666686
                },
                {
                    "name": "G4",
                    "midi": 67,
                    "time": 184.50000000000006,
                    "velocity": 0.6850393700787402,
                    "duration": 0.9979166666666686
                },
                {
                    "name": "E4",
                    "midi": 64,
                    "time": 184.50000000000006,
                    "velocity": 0.7401574803149606,
                    "duration": 0.49791666666666856
                },
                {
                    "name": "C#2",
                    "midi": 37,
                    "time": 184.50000000000006,
                    "velocity": 0.6692913385826772,
                    "duration": 0.24791666666666856
                },
                {
                    "name": "D2",
                    "midi": 38,
                    "time": 184.75000000000006,
                    "velocity": 0.7401574803149606,
                    "duration": 0.24791666666666856
                },
                {
                    "name": "D#4",
                    "midi": 63,
                    "time": 185.00000000000006,
                    "velocity": 0.7165354330708661,
                    "duration": 0.49791666666666856
                },
                {
                    "name": "D5",
                    "midi": 74,
                    "time": 185.00000000000006,
                    "velocity": 0.8346456692913385,
                    "duration": 0.9979166666666686
                },
                {
                    "name": "D3",
                    "midi": 50,
                    "time": 185.00000000000006,
                    "velocity": 0.7322834645669292,
                    "duration": 0.24791666666666856
                },
                {
                    "name": "D2",
                    "midi": 38,
                    "time": 185.25000000000006,
                    "velocity": 0.7165354330708661,
                    "duration": 0.24791666666666856
                },
                {
                    "name": "A#4",
                    "midi": 70,
                    "time": 185.50000000000006,
                    "velocity": 0.5669291338582677,
                    "duration": 0.49791666666666856
                },
                {
                    "name": "G4",
                    "midi": 67,
                    "time": 185.50000000000006,
                    "velocity": 0.5905511811023622,
                    "duration": 0.49791666666666856
                },
                {
                    "name": "E4",
                    "midi": 64,
                    "time": 185.50000000000006,
                    "velocity": 0.7322834645669292,
                    "duration": 0.49791666666666856
                },
                {
                    "name": "C#2",
                    "midi": 37,
                    "time": 185.50000000000006,
                    "velocity": 0.6929133858267716,
                    "duration": 0.24791666666666856
                },
                {
                    "name": "D2",
                    "midi": 38,
                    "time": 185.75000000000006,
                    "velocity": 0.7244094488188977,
                    "duration": 0.24791666666666856
                },
                {
                    "name": "B4",
                    "midi": 71,
                    "time": 186.00000000000006,
                    "velocity": 0.8110236220472441,
                    "duration": 2.4979166666666686
                },
                {
                    "name": "D3",
                    "midi": 50,
                    "time": 186.00000000000006,
                    "velocity": 0.7244094488188977,
                    "duration": 0.24791666666666856
                },
                {
                    "name": "D2",
                    "midi": 38,
                    "time": 186.25000000000006,
                    "velocity": 0.6141732283464567,
                    "duration": 0.24791666666666856
                },
                {
                    "name": "F4",
                    "midi": 65,
                    "time": 186.50000000000006,
                    "velocity": 0.6377952755905512,
                    "duration": 0.9979166666666686
                },
                {
                    "name": "G#4",
                    "midi": 68,
                    "time": 186.50000000000006,
                    "velocity": 0.5905511811023622,
                    "duration": 0.9979166666666686
                },
                {
                    "name": "D4",
                    "midi": 62,
                    "time": 186.50000000000006,
                    "velocity": 0.7637795275590551,
                    "duration": 0.49791666666666856
                },
                {
                    "name": "C#2",
                    "midi": 37,
                    "time": 186.50000000000006,
                    "velocity": 0.6456692913385826,
                    "duration": 0.24791666666666856
                },
                {
                    "name": "D2",
                    "midi": 38,
                    "time": 186.75000000000006,
                    "velocity": 0.7086614173228346,
                    "duration": 0.24791666666666856
                },
                {
                    "name": "C#4",
                    "midi": 61,
                    "time": 187.00000000000006,
                    "velocity": 0.6692913385826772,
                    "duration": 0.49791666666666856
                },
                {
                    "name": "D3",
                    "midi": 50,
                    "time": 187.00000000000006,
                    "velocity": 0.7559055118110236,
                    "duration": 0.24791666666666856
                },
                {
                    "name": "D2",
                    "midi": 38,
                    "time": 187.25000000000006,
                    "velocity": 0.7401574803149606,
                    "duration": 0.24791666666666856
                },
                {
                    "name": "F4",
                    "midi": 65,
                    "time": 187.50000000000006,
                    "velocity": 0.6692913385826772,
                    "duration": 0.9979166666666686
                },
                {
                    "name": "G#4",
                    "midi": 68,
                    "time": 187.50000000000006,
                    "velocity": 0.5905511811023622,
                    "duration": 0.9979166666666686
                },
                {
                    "name": "D4",
                    "midi": 62,
                    "time": 187.50000000000006,
                    "velocity": 0.7559055118110236,
                    "duration": 0.49791666666666856
                },
                {
                    "name": "C#2",
                    "midi": 37,
                    "time": 187.50000000000006,
                    "velocity": 0.6692913385826772,
                    "duration": 0.24791666666666856
                },
                {
                    "name": "D2",
                    "midi": 38,
                    "time": 187.75000000000006,
                    "velocity": 0.7401574803149606,
                    "duration": 0.24791666666666856
                },
                {
                    "name": "F3",
                    "midi": 53,
                    "time": 188.00000000000006,
                    "velocity": 0.7401574803149606,
                    "duration": 0.49791666666666856
                },
                {
                    "name": "D3",
                    "midi": 50,
                    "time": 188.00000000000006,
                    "velocity": 0.7322834645669292,
                    "duration": 0.24791666666666856
                },
                {
                    "name": "D2",
                    "midi": 38,
                    "time": 188.25000000000006,
                    "velocity": 0.7165354330708661,
                    "duration": 0.24791666666666856
                },
                {
                    "name": "G#4",
                    "midi": 68,
                    "time": 188.50000000000006,
                    "velocity": 0.6299212598425197,
                    "duration": 0.9979166666666686
                },
                {
                    "name": "F4",
                    "midi": 65,
                    "time": 188.50000000000006,
                    "velocity": 0.6456692913385826,
                    "duration": 0.9979166666666686
                },
                {
                    "name": "D4",
                    "midi": 62,
                    "time": 188.50000000000006,
                    "velocity": 0.7401574803149606,
                    "duration": 0.49791666666666856
                },
                {
                    "name": "C5",
                    "midi": 72,
                    "time": 188.50000000000006,
                    "velocity": 0.8582677165354331,
                    "duration": 0.49791666666666856
                },
                {
                    "name": "C#2",
                    "midi": 37,
                    "time": 188.50000000000006,
                    "velocity": 0.6929133858267716,
                    "duration": 0.24791666666666856
                },
                {
                    "name": "D2",
                    "midi": 38,
                    "time": 188.75000000000006,
                    "velocity": 0.7244094488188977,
                    "duration": 0.24791666666666856
                },
                {
                    "name": "C#4",
                    "midi": 61,
                    "time": 189.00000000000006,
                    "velocity": 0.7244094488188977,
                    "duration": 0.49791666666666856
                },
                {
                    "name": "B4",
                    "midi": 71,
                    "time": 189.00000000000006,
                    "velocity": 0.9212598425196851,
                    "duration": 0.49791666666666856
                },
                {
                    "name": "D3",
                    "midi": 50,
                    "time": 189.00000000000006,
                    "velocity": 0.7244094488188977,
                    "duration": 0.24791666666666856
                },
                {
                    "name": "D2",
                    "midi": 38,
                    "time": 189.25000000000006,
                    "velocity": 0.6141732283464567,
                    "duration": 0.24791666666666856
                },
                {
                    "name": "G#4",
                    "midi": 68,
                    "time": 189.50000000000006,
                    "velocity": 0.5748031496062992,
                    "duration": 0.9979166666666686
                },
                {
                    "name": "F4",
                    "midi": 65,
                    "time": 189.50000000000006,
                    "velocity": 0.5590551181102362,
                    "duration": 0.9979166666666686
                },
                {
                    "name": "D4",
                    "midi": 62,
                    "time": 189.50000000000006,
                    "velocity": 0.7401574803149606,
                    "duration": 0.49791666666666856
                },
                {
                    "name": "C5",
                    "midi": 72,
                    "time": 189.50000000000006,
                    "velocity": 0.8346456692913385,
                    "duration": 0.49791666666666856
                },
                {
                    "name": "C#2",
                    "midi": 37,
                    "time": 189.50000000000006,
                    "velocity": 0.6456692913385826,
                    "duration": 0.24791666666666856
                },
                {
                    "name": "D2",
                    "midi": 38,
                    "time": 189.75000000000006,
                    "velocity": 0.7086614173228346,
                    "duration": 0.24791666666666856
                },
                {
                    "name": "B4",
                    "midi": 71,
                    "time": 190.00000000000006,
                    "velocity": 0.7716535433070866,
                    "duration": 2.4979166666666686
                },
                {
                    "name": "D3",
                    "midi": 50,
                    "time": 190.00000000000006,
                    "velocity": 0.7559055118110236,
                    "duration": 0.24791666666666856
                },
                {
                    "name": "D2",
                    "midi": 38,
                    "time": 190.25000000000006,
                    "velocity": 0.7401574803149606,
                    "duration": 0.24791666666666856
                },
                {
                    "name": "F4",
                    "midi": 65,
                    "time": 190.50000000000006,
                    "velocity": 0.5511811023622047,
                    "duration": 0.9979166666666686
                },
                {
                    "name": "G#4",
                    "midi": 68,
                    "time": 190.50000000000006,
                    "velocity": 0.5511811023622047,
                    "duration": 0.9979166666666686
                },
                {
                    "name": "D4",
                    "midi": 62,
                    "time": 190.50000000000006,
                    "velocity": 0.7401574803149606,
                    "duration": 0.49791666666666856
                },
                {
                    "name": "C#2",
                    "midi": 37,
                    "time": 190.50000000000006,
                    "velocity": 0.6692913385826772,
                    "duration": 0.24791666666666856
                },
                {
                    "name": "D2",
                    "midi": 38,
                    "time": 190.75000000000006,
                    "velocity": 0.7401574803149606,
                    "duration": 0.24791666666666856
                },
                {
                    "name": "C#4",
                    "midi": 61,
                    "time": 191.00000000000006,
                    "velocity": 0.6692913385826772,
                    "duration": 0.49791666666666856
                },
                {
                    "name": "D3",
                    "midi": 50,
                    "time": 191.00000000000006,
                    "velocity": 0.7322834645669292,
                    "duration": 0.24791666666666856
                },
                {
                    "name": "D2",
                    "midi": 38,
                    "time": 191.25000000000006,
                    "velocity": 0.7165354330708661,
                    "duration": 0.24791666666666856
                },
                {
                    "name": "F4",
                    "midi": 65,
                    "time": 191.50000000000006,
                    "velocity": 0.5669291338582677,
                    "duration": 0.9979166666666686
                },
                {
                    "name": "G#4",
                    "midi": 68,
                    "time": 191.50000000000006,
                    "velocity": 0.5748031496062992,
                    "duration": 0.9979166666666686
                },
                {
                    "name": "D4",
                    "midi": 62,
                    "time": 191.50000000000006,
                    "velocity": 0.7716535433070866,
                    "duration": 0.49791666666666856
                },
                {
                    "name": "C#2",
                    "midi": 37,
                    "time": 191.50000000000006,
                    "velocity": 0.6929133858267716,
                    "duration": 0.24791666666666856
                },
                {
                    "name": "D2",
                    "midi": 38,
                    "time": 191.75000000000006,
                    "velocity": 0.7244094488188977,
                    "duration": 0.24791666666666856
                },
                {
                    "name": "F3",
                    "midi": 53,
                    "time": 192.00000000000006,
                    "velocity": 0.7716535433070866,
                    "duration": 0.49791666666666856
                },
                {
                    "name": "D3",
                    "midi": 50,
                    "time": 192.00000000000006,
                    "velocity": 0.7244094488188977,
                    "duration": 0.24791666666666856
                },
                {
                    "name": "D2",
                    "midi": 38,
                    "time": 192.25000000000006,
                    "velocity": 0.6141732283464567,
                    "duration": 0.24791666666666856
                },
                {
                    "name": "G#4",
                    "midi": 68,
                    "time": 192.50000000000006,
                    "velocity": 0.5669291338582677,
                    "duration": 0.49791666666666856
                },
                {
                    "name": "F4",
                    "midi": 65,
                    "time": 192.50000000000006,
                    "velocity": 0.5984251968503937,
                    "duration": 0.49791666666666856
                },
                {
                    "name": "F4",
                    "midi": 65,
                    "time": 192.50000000000006,
                    "velocity": 0.47244094488188976,
                    "duration": 0.9979166666666686
                },
                {
                    "name": "G#4",
                    "midi": 68,
                    "time": 192.50000000000006,
                    "velocity": 0.5039370078740157,
                    "duration": 0.9979166666666686
                },
                {
                    "name": "D4",
                    "midi": 62,
                    "time": 192.50000000000006,
                    "velocity": 0.7716535433070866,
                    "duration": 0.49791666666666856
                },
                {
                    "name": "C5",
                    "midi": 72,
                    "time": 192.50000000000006,
                    "velocity": 0.7952755905511811,
                    "duration": 0.49791666666666856
                },
                {
                    "name": "C#2",
                    "midi": 37,
                    "time": 192.50000000000006,
                    "velocity": 0.6456692913385826,
                    "duration": 0.24791666666666856
                },
                {
                    "name": "D2",
                    "midi": 38,
                    "time": 192.75000000000006,
                    "velocity": 0.7086614173228346,
                    "duration": 0.24791666666666856
                },
                {
                    "name": "C#4",
                    "midi": 61,
                    "time": 193.00000000000006,
                    "velocity": 0.7244094488188977,
                    "duration": 0.49791666666666856
                },
                {
                    "name": "B4",
                    "midi": 71,
                    "time": 193.00000000000006,
                    "velocity": 0.7559055118110236,
                    "duration": 0.49791666666666856
                },
                {
                    "name": "D3",
                    "midi": 50,
                    "time": 193.00000000000006,
                    "velocity": 0.7244094488188977,
                    "duration": 0.24791666666666856
                },
                {
                    "name": "D2",
                    "midi": 38,
                    "time": 193.25000000000006,
                    "velocity": 0.6929133858267716,
                    "duration": 0.24791666666666856
                },
                {
                    "name": "G#4",
                    "midi": 68,
                    "time": 193.50000000000006,
                    "velocity": 0.5669291338582677,
                    "duration": 0.49791666666666856
                },
                {
                    "name": "F4",
                    "midi": 65,
                    "time": 193.50000000000006,
                    "velocity": 0.5039370078740157,
                    "duration": 0.49791666666666856
                },
                {
                    "name": "D4",
                    "midi": 62,
                    "time": 193.50000000000006,
                    "velocity": 0.7637795275590551,
                    "duration": 0.49791666666666856
                },
                {
                    "name": "C5",
                    "midi": 72,
                    "time": 193.50000000000006,
                    "velocity": 0.8110236220472441,
                    "duration": 0.49791666666666856
                },
                {
                    "name": "C#2",
                    "midi": 37,
                    "time": 193.50000000000006,
                    "velocity": 0.6850393700787402,
                    "duration": 0.24791666666666856
                },
                {
                    "name": "D2",
                    "midi": 38,
                    "time": 193.75000000000006,
                    "velocity": 0.7244094488188977,
                    "duration": 0.24791666666666856
                },
                {
                    "name": "E3",
                    "midi": 52,
                    "time": 194.00000000000006,
                    "velocity": 0.6929133858267716,
                    "duration": 0.24791666666666856
                },
                {
                    "name": "G5",
                    "midi": 79,
                    "time": 194.00000000000006,
                    "velocity": 0.8346456692913385,
                    "duration": 2.9979166666666686
                },
                {
                    "name": "E2",
                    "midi": 40,
                    "time": 194.25000000000006,
                    "velocity": 0.6377952755905512,
                    "duration": 0.24791666666666856
                },
                {
                    "name": "D#2",
                    "midi": 39,
                    "time": 194.50000000000006,
                    "velocity": 0.5905511811023622,
                    "duration": 0.24791666666666856
                },
                {
                    "name": "G4",
                    "midi": 67,
                    "time": 194.50000000000006,
                    "velocity": 0.7637795275590551,
                    "duration": 0.49791666666666856
                },
                {
                    "name": "A#4",
                    "midi": 70,
                    "time": 194.6666666666667,
                    "velocity": 0.49606299212598426,
                    "duration": 0.16458333333335418
                },
                {
                    "name": "C#5",
                    "midi": 73,
                    "time": 194.6666666666667,
                    "velocity": 0.6141732283464567,
                    "duration": 0.16458333333335418
                },
                {
                    "name": "E2",
                    "midi": 40,
                    "time": 194.75000000000006,
                    "velocity": 0.6929133858267716,
                    "duration": 0.24791666666666856
                },
                {
                    "name": "A#4",
                    "midi": 70,
                    "time": 194.8333333333334,
                    "velocity": 0.48031496062992124,
                    "duration": 0.33124999999998295
                },
                {
                    "name": "C#5",
                    "midi": 73,
                    "time": 194.8333333333334,
                    "velocity": 0.5196850393700787,
                    "duration": 0.33124999999998295
                },
                {
                    "name": "E3",
                    "midi": 52,
                    "time": 195.00000000000006,
                    "velocity": 0.6692913385826772,
                    "duration": 0.24791666666666856
                },
                {
                    "name": "F#4",
                    "midi": 66,
                    "time": 195.00000000000006,
                    "velocity": 0.7165354330708661,
                    "duration": 0.49791666666666856
                },
                {
                    "name": "A#4",
                    "midi": 70,
                    "time": 195.25000000000006,
                    "velocity": 0.44881889763779526,
                    "duration": 0.24791666666666856
                },
                {
                    "name": "C#5",
                    "midi": 73,
                    "time": 195.25000000000006,
                    "velocity": 0.6299212598425197,
                    "duration": 0.24791666666666856
                },
                {
                    "name": "E2",
                    "midi": 40,
                    "time": 195.25000000000006,
                    "velocity": 0.6929133858267716,
                    "duration": 0.24791666666666856
                },
                {
                    "name": "D#2",
                    "midi": 39,
                    "time": 195.50000000000006,
                    "velocity": 0.6456692913385826,
                    "duration": 0.24791666666666856
                },
                {
                    "name": "G4",
                    "midi": 67,
                    "time": 195.50000000000006,
                    "velocity": 0.7401574803149606,
                    "duration": 0.49791666666666856
                },
                {
                    "name": "A#4",
                    "midi": 70,
                    "time": 195.6666666666667,
                    "velocity": 0.5275590551181102,
                    "duration": 0.16458333333335418
                },
                {
                    "name": "C#5",
                    "midi": 73,
                    "time": 195.6666666666667,
                    "velocity": 0.6299212598425197,
                    "duration": 0.16458333333335418
                },
                {
                    "name": "E2",
                    "midi": 40,
                    "time": 195.75000000000006,
                    "velocity": 0.5748031496062992,
                    "duration": 0.24791666666666856
                },
                {
                    "name": "C#5",
                    "midi": 73,
                    "time": 195.8333333333334,
                    "velocity": 0.5511811023622047,
                    "duration": 0.33124999999998295
                },
                {
                    "name": "A#4",
                    "midi": 70,
                    "time": 195.8333333333334,
                    "velocity": 0.5275590551181102,
                    "duration": 0.33124999999998295
                },
                {
                    "name": "A2",
                    "midi": 45,
                    "time": 196.00000000000006,
                    "velocity": 0.7165354330708661,
                    "duration": 0.24791666666666856
                },
                {
                    "name": "A#3",
                    "midi": 58,
                    "time": 196.00000000000006,
                    "velocity": 0.7401574803149606,
                    "duration": 0.49791666666666856
                },
                {
                    "name": "A#4",
                    "midi": 70,
                    "time": 196.25000000000006,
                    "velocity": 0.5275590551181102,
                    "duration": 0.49791666666666856
                },
                {
                    "name": "C#5",
                    "midi": 73,
                    "time": 196.25000000000006,
                    "velocity": 0.5984251968503937,
                    "duration": 0.49791666666666856
                },
                {
                    "name": "A1",
                    "midi": 33,
                    "time": 196.25000000000006,
                    "velocity": 0.7086614173228346,
                    "duration": 0.24791666666666856
                },
                {
                    "name": "G#1",
                    "midi": 32,
                    "time": 196.50000000000006,
                    "velocity": 0.6850393700787402,
                    "duration": 0.24791666666666856
                },
                {
                    "name": "G4",
                    "midi": 67,
                    "time": 196.50000000000006,
                    "velocity": 0.7401574803149606,
                    "duration": 0.49791666666666856
                },
                {
                    "name": "A#4",
                    "midi": 70,
                    "time": 196.6666666666667,
                    "velocity": 0.4881889763779528,
                    "duration": 0.16458333333335418
                },
                {
                    "name": "C#5",
                    "midi": 73,
                    "time": 196.6666666666667,
                    "velocity": 0.5275590551181102,
                    "duration": 0.16458333333335418
                },
                {
                    "name": "A1",
                    "midi": 33,
                    "time": 196.75000000000006,
                    "velocity": 0.6692913385826772,
                    "duration": 0.24791666666666856
                },
                {
                    "name": "A#4",
                    "midi": 70,
                    "time": 196.8333333333334,
                    "velocity": 0.5039370078740157,
                    "duration": 0.16458333333332575
                },
                {
                    "name": "C#5",
                    "midi": 73,
                    "time": 196.8333333333334,
                    "velocity": 0.48031496062992124,
                    "duration": 0.16458333333332575
                },
                {
                    "name": "A2",
                    "midi": 45,
                    "time": 197.00000000000006,
                    "velocity": 0.6692913385826772,
                    "duration": 0.24791666666666856
                },
                {
                    "name": "F#4",
                    "midi": 66,
                    "time": 197.00000000000006,
                    "velocity": 0.6535433070866141,
                    "duration": 0.49791666666666856
                },
                {
                    "name": "F#5",
                    "midi": 78,
                    "time": 197.00000000000006,
                    "velocity": 0.7716535433070866,
                    "duration": 0.9979166666666686
                },
                {
                    "name": "C#5",
                    "midi": 73,
                    "time": 197.25000000000006,
                    "velocity": 0.6456692913385826,
                    "duration": 0.49791666666666856
                },
                {
                    "name": "A#4",
                    "midi": 70,
                    "time": 197.25000000000006,
                    "velocity": 0.5748031496062992,
                    "duration": 0.49791666666666856
                },
                {
                    "name": "A1",
                    "midi": 33,
                    "time": 197.25000000000006,
                    "velocity": 0.6771653543307087,
                    "duration": 0.24791666666666856
                },
                {
                    "name": "G#1",
                    "midi": 32,
                    "time": 197.50000000000006,
                    "velocity": 0.6141732283464567,
                    "duration": 0.24791666666666856
                },
                {
                    "name": "G4",
                    "midi": 67,
                    "time": 197.50000000000006,
                    "velocity": 0.7401574803149606,
                    "duration": 0.49791666666666856
                },
                {
                    "name": "A#4",
                    "midi": 70,
                    "time": 197.6666666666667,
                    "velocity": 0.5511811023622047,
                    "duration": 0.16458333333335418
                },
                {
                    "name": "C#5",
                    "midi": 73,
                    "time": 197.6666666666667,
                    "velocity": 0.5748031496062992,
                    "duration": 0.16458333333335418
                },
                {
                    "name": "A1",
                    "midi": 33,
                    "time": 197.75000000000006,
                    "velocity": 0.6692913385826772,
                    "duration": 0.24791666666666856
                },
                {
                    "name": "A#4",
                    "midi": 70,
                    "time": 197.8333333333334,
                    "velocity": 0.5275590551181102,
                    "duration": 0.16458333333332575
                },
                {
                    "name": "C#5",
                    "midi": 73,
                    "time": 197.8333333333334,
                    "velocity": 0.5275590551181102,
                    "duration": 0.16458333333332575
                },
                {
                    "name": "E3",
                    "midi": 52,
                    "time": 198.00000000000006,
                    "velocity": 0.6692913385826772,
                    "duration": 0.24791666666666856
                },
                {
                    "name": "D#5",
                    "midi": 75,
                    "time": 198.00000000000006,
                    "velocity": 0.7244094488188977,
                    "duration": 2.9979166666666686
                },
                {
                    "name": "E2",
                    "midi": 40,
                    "time": 198.25000000000006,
                    "velocity": 0.6850393700787402,
                    "duration": 0.24791666666666856
                },
                {
                    "name": "D#2",
                    "midi": 39,
                    "time": 198.50000000000006,
                    "velocity": 0.6377952755905512,
                    "duration": 0.24791666666666856
                },
                {
                    "name": "F#4",
                    "midi": 66,
                    "time": 198.50000000000006,
                    "velocity": 0.7637795275590551,
                    "duration": 0.49791666666666856
                },
                {
                    "name": "A4",
                    "midi": 69,
                    "time": 198.6666666666667,
                    "velocity": 0.4881889763779528,
                    "duration": 0.16458333333335418
                },
                {
                    "name": "C5",
                    "midi": 72,
                    "time": 198.6666666666667,
                    "velocity": 0.6062992125984252,
                    "duration": 0.16458333333335418
                },
                {
                    "name": "E2",
                    "midi": 40,
                    "time": 198.75000000000006,
                    "velocity": 0.7401574803149606,
                    "duration": 0.24791666666666856
                },
                {
                    "name": "A4",
                    "midi": 69,
                    "time": 198.8333333333334,
                    "velocity": 0.6456692913385826,
                    "duration": 0.33124999999998295
                },
                {
                    "name": "C5",
                    "midi": 72,
                    "time": 198.8333333333334,
                    "velocity": 0.6535433070866141,
                    "duration": 0.33124999999998295
                },
                {
                    "name": "E3",
                    "midi": 52,
                    "time": 199.00000000000006,
                    "velocity": 0.6850393700787402,
                    "duration": 0.24791666666666856
                },
                {
                    "name": "F4",
                    "midi": 65,
                    "time": 199.00000000000006,
                    "velocity": 0.6929133858267716,
                    "duration": 0.49791666666666856
                },
                {
                    "name": "A4",
                    "midi": 69,
                    "time": 199.25000000000006,
                    "velocity": 0.5196850393700787,
                    "duration": 0.24791666666666856
                },
                {
                    "name": "C5",
                    "midi": 72,
                    "time": 199.25000000000006,
                    "velocity": 0.5669291338582677,
                    "duration": 0.24791666666666856
                },
                {
                    "name": "E2",
                    "midi": 40,
                    "time": 199.25000000000006,
                    "velocity": 0.7165354330708661,
                    "duration": 0.24791666666666856
                },
                {
                    "name": "D#2",
                    "midi": 39,
                    "time": 199.50000000000006,
                    "velocity": 0.6377952755905512,
                    "duration": 0.24791666666666856
                },
                {
                    "name": "F#4",
                    "midi": 66,
                    "time": 199.50000000000006,
                    "velocity": 0.7401574803149606,
                    "duration": 0.49791666666666856
                },
                {
                    "name": "A4",
                    "midi": 69,
                    "time": 199.6666666666667,
                    "velocity": 0.5118110236220472,
                    "duration": 0.16458333333335418
                },
                {
                    "name": "C5",
                    "midi": 72,
                    "time": 199.6666666666667,
                    "velocity": 0.5905511811023622,
                    "duration": 0.16458333333335418
                },
                {
                    "name": "E2",
                    "midi": 40,
                    "time": 199.75000000000006,
                    "velocity": 0.7322834645669292,
                    "duration": 0.24791666666666856
                },
                {
                    "name": "C5",
                    "midi": 72,
                    "time": 199.8333333333334,
                    "velocity": 0.5984251968503937,
                    "duration": 0.33124999999998295
                },
                {
                    "name": "A4",
                    "midi": 69,
                    "time": 199.8333333333334,
                    "velocity": 0.5590551181102362,
                    "duration": 0.33124999999998295
                },
                {
                    "name": "A2",
                    "midi": 45,
                    "time": 200.00000000000006,
                    "velocity": 0.5984251968503937,
                    "duration": 0.24791666666666856
                },
                {
                    "name": "A3",
                    "midi": 57,
                    "time": 200.00000000000006,
                    "velocity": 0.7244094488188977,
                    "duration": 0.49791666666666856
                },
                {
                    "name": "A4",
                    "midi": 69,
                    "time": 200.25000000000006,
                    "velocity": 0.5118110236220472,
                    "duration": 0.24791666666666856
                },
                {
                    "name": "C5",
                    "midi": 72,
                    "time": 200.25000000000006,
                    "velocity": 0.6062992125984252,
                    "duration": 0.24791666666666856
                },
                {
                    "name": "A1",
                    "midi": 33,
                    "time": 200.25000000000006,
                    "velocity": 0.6062992125984252,
                    "duration": 0.24791666666666856
                },
                {
                    "name": "G#1",
                    "midi": 32,
                    "time": 200.50000000000006,
                    "velocity": 0.6535433070866141,
                    "duration": 0.24791666666666856
                },
                {
                    "name": "F#4",
                    "midi": 66,
                    "time": 200.50000000000006,
                    "velocity": 0.7244094488188977,
                    "duration": 0.49791666666666856
                },
                {
                    "name": "A4",
                    "midi": 69,
                    "time": 200.6666666666667,
                    "velocity": 0.5590551181102362,
                    "duration": 0.16458333333335418
                },
                {
                    "name": "C5",
                    "midi": 72,
                    "time": 200.6666666666667,
                    "velocity": 0.5984251968503937,
                    "duration": 0.16458333333335418
                },
                {
                    "name": "A1",
                    "midi": 33,
                    "time": 200.75000000000006,
                    "velocity": 0.6850393700787402,
                    "duration": 0.24791666666666856
                },
                {
                    "name": "A4",
                    "midi": 69,
                    "time": 200.8333333333334,
                    "velocity": 0.5354330708661418,
                    "duration": 0.16458333333332575
                },
                {
                    "name": "C5",
                    "midi": 72,
                    "time": 200.8333333333334,
                    "velocity": 0.5275590551181102,
                    "duration": 0.16458333333332575
                },
                {
                    "name": "A2",
                    "midi": 45,
                    "time": 201.00000000000006,
                    "velocity": 0.6692913385826772,
                    "duration": 0.24791666666666856
                },
                {
                    "name": "F4",
                    "midi": 65,
                    "time": 201.00000000000006,
                    "velocity": 0.7401574803149606,
                    "duration": 0.49791666666666856
                },
                {
                    "name": "E5",
                    "midi": 76,
                    "time": 201.00000000000006,
                    "velocity": 0.7401574803149606,
                    "duration": 0.9979166666666686
                },
                {
                    "name": "A4",
                    "midi": 69,
                    "time": 201.25000000000006,
                    "velocity": 0.5511811023622047,
                    "duration": 0.24791666666666856
                },
                {
                    "name": "C5",
                    "midi": 72,
                    "time": 201.25000000000006,
                    "velocity": 0.5590551181102362,
                    "duration": 0.24791666666666856
                },
                {
                    "name": "A1",
                    "midi": 33,
                    "time": 201.25000000000006,
                    "velocity": 0.6692913385826772,
                    "duration": 0.24791666666666856
                },
                {
                    "name": "G#1",
                    "midi": 32,
                    "time": 201.50000000000006,
                    "velocity": 0.6456692913385826,
                    "duration": 0.24791666666666856
                },
                {
                    "name": "F#4",
                    "midi": 66,
                    "time": 201.50000000000006,
                    "velocity": 0.7637795275590551,
                    "duration": 0.49791666666666856
                },
                {
                    "name": "C5",
                    "midi": 72,
                    "time": 201.6666666666667,
                    "velocity": 0.5275590551181102,
                    "duration": 0.16458333333335418
                },
                {
                    "name": "A4",
                    "midi": 69,
                    "time": 201.6666666666667,
                    "velocity": 0.5118110236220472,
                    "duration": 0.16458333333335418
                },
                {
                    "name": "A1",
                    "midi": 33,
                    "time": 201.75000000000006,
                    "velocity": 0.7637795275590551,
                    "duration": 0.24791666666666856
                },
                {
                    "name": "A4",
                    "midi": 69,
                    "time": 201.8333333333334,
                    "velocity": 0.6299212598425197,
                    "duration": 0.16458333333332575
                },
                {
                    "name": "C5",
                    "midi": 72,
                    "time": 201.8333333333334,
                    "velocity": 0.6062992125984252,
                    "duration": 0.16458333333332575
                },
                {
                    "name": "E3",
                    "midi": 52,
                    "time": 202.00000000000006,
                    "velocity": 0.6850393700787402,
                    "duration": 0.24791666666666856
                },
                {
                    "name": "C#5",
                    "midi": 73,
                    "time": 202.00000000000006,
                    "velocity": 0.8582677165354331,
                    "duration": 2.4979166666666686
                },
                {
                    "name": "E2",
                    "midi": 40,
                    "time": 202.25000000000006,
                    "velocity": 0.7401574803149606,
                    "duration": 0.24791666666666856
                },
                {
                    "name": "D#2",
                    "midi": 39,
                    "time": 202.50000000000006,
                    "velocity": 0.6062992125984252,
                    "duration": 0.24791666666666856
                },
                {
                    "name": "E4",
                    "midi": 64,
                    "time": 202.50000000000006,
                    "velocity": 0.7637795275590551,
                    "duration": 0.49791666666666856
                },
                {
                    "name": "A#4",
                    "midi": 70,
                    "time": 202.6666666666667,
                    "velocity": 0.5669291338582677,
                    "duration": 0.16458333333335418
                },
                {
                    "name": "G4",
                    "midi": 67,
                    "time": 202.6666666666667,
                    "velocity": 0.5196850393700787,
                    "duration": 0.16458333333335418
                },
                {
                    "name": "E2",
                    "midi": 40,
                    "time": 202.75000000000006,
                    "velocity": 0.7401574803149606,
                    "duration": 0.24791666666666856
                },
                {
                    "name": "A#4",
                    "midi": 70,
                    "time": 202.8333333333334,
                    "velocity": 0.6299212598425197,
                    "duration": 0.33124999999998295
                },
                {
                    "name": "G4",
                    "midi": 67,
                    "time": 202.8333333333334,
                    "velocity": 0.6535433070866141,
                    "duration": 0.33124999999998295
                },
                {
                    "name": "E3",
                    "midi": 52,
                    "time": 203.00000000000006,
                    "velocity": 0.7244094488188977,
                    "duration": 0.24791666666666856
                },
                {
                    "name": "D#4",
                    "midi": 63,
                    "time": 203.00000000000006,
                    "velocity": 0.6377952755905512,
                    "duration": 0.49791666666666856
                },
                {
                    "name": "A#4",
                    "midi": 70,
                    "time": 203.25000000000006,
                    "velocity": 0.5669291338582677,
                    "duration": 0.24791666666666856
                },
                {
                    "name": "G4",
                    "midi": 67,
                    "time": 203.25000000000006,
                    "velocity": 0.5354330708661418,
                    "duration": 0.24791666666666856
                },
                {
                    "name": "E2",
                    "midi": 40,
                    "time": 203.25000000000006,
                    "velocity": 0.7322834645669292,
                    "duration": 0.24791666666666856
                },
                {
                    "name": "D#2",
                    "midi": 39,
                    "time": 203.50000000000006,
                    "velocity": 0.6692913385826772,
                    "duration": 0.24791666666666856
                },
                {
                    "name": "E4",
                    "midi": 64,
                    "time": 203.50000000000006,
                    "velocity": 0.6929133858267716,
                    "duration": 0.49791666666666856
                },
                {
                    "name": "A#4",
                    "midi": 70,
                    "time": 203.6666666666667,
                    "velocity": 0.5039370078740157,
                    "duration": 0.16458333333335418
                },
                {
                    "name": "G4",
                    "midi": 67,
                    "time": 203.6666666666667,
                    "velocity": 0.5905511811023622,
                    "duration": 0.16458333333335418
                },
                {
                    "name": "E2",
                    "midi": 40,
                    "time": 203.75000000000006,
                    "velocity": 0.7401574803149606,
                    "duration": 0.24791666666666856
                },
                {
                    "name": "A#4",
                    "midi": 70,
                    "time": 203.8333333333334,
                    "velocity": 0.6299212598425197,
                    "duration": 0.33124999999998295
                },
                {
                    "name": "G4",
                    "midi": 67,
                    "time": 203.8333333333334,
                    "velocity": 0.6377952755905512,
                    "duration": 0.33124999999998295
                },
                {
                    "name": "A2",
                    "midi": 45,
                    "time": 204.00000000000006,
                    "velocity": 0.6850393700787402,
                    "duration": 0.24791666666666856
                },
                {
                    "name": "G3",
                    "midi": 55,
                    "time": 204.00000000000006,
                    "velocity": 0.7322834645669292,
                    "duration": 0.49791666666666856
                },
                {
                    "name": "A#4",
                    "midi": 70,
                    "time": 204.25000000000006,
                    "velocity": 0.5984251968503937,
                    "duration": 0.24791666666666856
                },
                {
                    "name": "G4",
                    "midi": 67,
                    "time": 204.25000000000006,
                    "velocity": 0.5748031496062992,
                    "duration": 0.24791666666666856
                },
                {
                    "name": "A1",
                    "midi": 33,
                    "time": 204.25000000000006,
                    "velocity": 0.6456692913385826,
                    "duration": 0.24791666666666856
                },
                {
                    "name": "G#1",
                    "midi": 32,
                    "time": 204.50000000000006,
                    "velocity": 0.6456692913385826,
                    "duration": 0.24791666666666856
                },
                {
                    "name": "E4",
                    "midi": 64,
                    "time": 204.50000000000006,
                    "velocity": 0.6850393700787402,
                    "duration": 0.49791666666666856
                },
                {
                    "name": "D5",
                    "midi": 74,
                    "time": 204.50000000000006,
                    "velocity": 0.7637795275590551,
                    "duration": 0.49791666666666856
                },
                {
                    "name": "A#4",
                    "midi": 70,
                    "time": 204.6666666666667,
                    "velocity": 0.5511811023622047,
                    "duration": 0.16458333333335418
                },
                {
                    "name": "G4",
                    "midi": 67,
                    "time": 204.6666666666667,
                    "velocity": 0.5039370078740157,
                    "duration": 0.16458333333335418
                },
                {
                    "name": "A1",
                    "midi": 33,
                    "time": 204.75000000000006,
                    "velocity": 0.6692913385826772,
                    "duration": 0.24791666666666856
                },
                {
                    "name": "G4",
                    "midi": 67,
                    "time": 204.8333333333334,
                    "velocity": 0.6299212598425197,
                    "duration": 0.33124999999998295
                },
                {
                    "name": "A#4",
                    "midi": 70,
                    "time": 204.8333333333334,
                    "velocity": 0.6062992125984252,
                    "duration": 0.33124999999998295
                },
                {
                    "name": "A2",
                    "midi": 45,
                    "time": 205.00000000000006,
                    "velocity": 0.6535433070866141,
                    "duration": 0.24791666666666856
                },
                {
                    "name": "D#4",
                    "midi": 63,
                    "time": 205.00000000000006,
                    "velocity": 0.6141732283464567,
                    "duration": 0.49791666666666856
                },
                {
                    "name": "C#5",
                    "midi": 73,
                    "time": 205.00000000000006,
                    "velocity": 0.6692913385826772,
                    "duration": 0.49791666666666856
                },
                {
                    "name": "A#4",
                    "midi": 70,
                    "time": 205.25000000000006,
                    "velocity": 0.5039370078740157,
                    "duration": 0.49791666666666856
                },
                {
                    "name": "G4",
                    "midi": 67,
                    "time": 205.25000000000006,
                    "velocity": 0.5984251968503937,
                    "duration": 0.49791666666666856
                },
                {
                    "name": "A1",
                    "midi": 33,
                    "time": 205.25000000000006,
                    "velocity": 0.6771653543307087,
                    "duration": 0.24791666666666856
                },
                {
                    "name": "G#1",
                    "midi": 32,
                    "time": 205.50000000000006,
                    "velocity": 0.6692913385826772,
                    "duration": 0.24791666666666856
                },
                {
                    "name": "E4",
                    "midi": 64,
                    "time": 205.50000000000006,
                    "velocity": 0.6929133858267716,
                    "duration": 0.49791666666666856
                },
                {
                    "name": "D5",
                    "midi": 74,
                    "time": 205.50000000000006,
                    "velocity": 0.7716535433070866,
                    "duration": 0.49791666666666856
                },
                {
                    "name": "A#4",
                    "midi": 70,
                    "time": 205.6666666666667,
                    "velocity": 0.5511811023622047,
                    "duration": 0.16458333333335418
                },
                {
                    "name": "G4",
                    "midi": 67,
                    "time": 205.6666666666667,
                    "velocity": 0.4566929133858268,
                    "duration": 0.16458333333335418
                },
                {
                    "name": "A1",
                    "midi": 33,
                    "time": 205.75000000000006,
                    "velocity": 0.6929133858267716,
                    "duration": 0.24791666666666856
                },
                {
                    "name": "A#4",
                    "midi": 70,
                    "time": 205.8333333333334,
                    "velocity": 0.5669291338582677,
                    "duration": 0.16458333333332575
                },
                {
                    "name": "G4",
                    "midi": 67,
                    "time": 205.8333333333334,
                    "velocity": 0.6535433070866141,
                    "duration": 0.16458333333332575
                },
                {
                    "name": "E3",
                    "midi": 52,
                    "time": 206.00000000000006,
                    "velocity": 0.6456692913385826,
                    "duration": 0.24791666666666856
                },
                {
                    "name": "C#5",
                    "midi": 73,
                    "time": 206.00000000000006,
                    "velocity": 0.6850393700787402,
                    "duration": 2.4979166666666686
                },
                {
                    "name": "E2",
                    "midi": 40,
                    "time": 206.25000000000006,
                    "velocity": 0.6850393700787402,
                    "duration": 0.24791666666666856
                },
                {
                    "name": "D#2",
                    "midi": 39,
                    "time": 206.50000000000006,
                    "velocity": 0.6692913385826772,
                    "duration": 0.24791666666666856
                },
                {
                    "name": "E4",
                    "midi": 64,
                    "time": 206.50000000000006,
                    "velocity": 0.6929133858267716,
                    "duration": 0.49791666666666856
                },
                {
                    "name": "A#4",
                    "midi": 70,
                    "time": 206.6666666666667,
                    "velocity": 0.49606299212598426,
                    "duration": 0.16458333333335418
                },
                {
                    "name": "G4",
                    "midi": 67,
                    "time": 206.6666666666667,
                    "velocity": 0.5748031496062992,
                    "duration": 0.16458333333335418
                },
                {
                    "name": "E2",
                    "midi": 40,
                    "time": 206.75000000000006,
                    "velocity": 0.7716535433070866,
                    "duration": 0.24791666666666856
                },
                {
                    "name": "A#4",
                    "midi": 70,
                    "time": 206.8333333333334,
                    "velocity": 0.6456692913385826,
                    "duration": 0.33124999999998295
                },
                {
                    "name": "G4",
                    "midi": 67,
                    "time": 206.8333333333334,
                    "velocity": 0.6141732283464567,
                    "duration": 0.33124999999998295
                },
                {
                    "name": "E3",
                    "midi": 52,
                    "time": 207.00000000000006,
                    "velocity": 0.7401574803149606,
                    "duration": 0.24791666666666856
                },
                {
                    "name": "D#4",
                    "midi": 63,
                    "time": 207.00000000000006,
                    "velocity": 0.6062992125984252,
                    "duration": 0.49791666666666856
                },
                {
                    "name": "G4",
                    "midi": 67,
                    "time": 207.25000000000006,
                    "velocity": 0.5748031496062992,
                    "duration": 0.49791666666666856
                },
                {
                    "name": "A#4",
                    "midi": 70,
                    "time": 207.25000000000006,
                    "velocity": 0.5511811023622047,
                    "duration": 0.49791666666666856
                },
                {
                    "name": "E2",
                    "midi": 40,
                    "time": 207.25000000000006,
                    "velocity": 0.7401574803149606,
                    "duration": 0.24791666666666856
                },
                {
                    "name": "D#2",
                    "midi": 39,
                    "time": 207.50000000000006,
                    "velocity": 0.5905511811023622,
                    "duration": 0.24791666666666856
                },
                {
                    "name": "E4",
                    "midi": 64,
                    "time": 207.50000000000006,
                    "velocity": 0.6929133858267716,
                    "duration": 0.49791666666666856
                },
                {
                    "name": "A#4",
                    "midi": 70,
                    "time": 207.6666666666667,
                    "velocity": 0.4881889763779528,
                    "duration": 0.16458333333335418
                },
                {
                    "name": "G4",
                    "midi": 67,
                    "time": 207.6666666666667,
                    "velocity": 0.4251968503937008,
                    "duration": 0.16458333333335418
                },
                {
                    "name": "E2",
                    "midi": 40,
                    "time": 207.75000000000006,
                    "velocity": 0.7244094488188977,
                    "duration": 0.24791666666666856
                },
                {
                    "name": "G4",
                    "midi": 67,
                    "time": 207.8333333333334,
                    "velocity": 0.6456692913385826,
                    "duration": 0.33124999999998295
                },
                {
                    "name": "A#4",
                    "midi": 70,
                    "time": 207.8333333333334,
                    "velocity": 0.6535433070866141,
                    "duration": 0.33124999999998295
                },
                {
                    "name": "A2",
                    "midi": 45,
                    "time": 208.00000000000006,
                    "velocity": 0.7244094488188977,
                    "duration": 0.24791666666666856
                },
                {
                    "name": "G3",
                    "midi": 55,
                    "time": 208.00000000000006,
                    "velocity": 0.7165354330708661,
                    "duration": 0.49791666666666856
                },
                {
                    "name": "A#4",
                    "midi": 70,
                    "time": 208.25000000000006,
                    "velocity": 0.5905511811023622,
                    "duration": 0.49791666666666856
                },
                {
                    "name": "G4",
                    "midi": 67,
                    "time": 208.25000000000006,
                    "velocity": 0.5748031496062992,
                    "duration": 0.49791666666666856
                },
                {
                    "name": "A1",
                    "midi": 33,
                    "time": 208.25000000000006,
                    "velocity": 0.6929133858267716,
                    "duration": 0.24791666666666856
                },
                {
                    "name": "G#1",
                    "midi": 32,
                    "time": 208.50000000000006,
                    "velocity": 0.6062992125984252,
                    "duration": 0.24791666666666856
                },
                {
                    "name": "E4",
                    "midi": 64,
                    "time": 208.50000000000006,
                    "velocity": 0.7165354330708661,
                    "duration": 0.49791666666666856
                },
                {
                    "name": "D5",
                    "midi": 74,
                    "time": 208.50000000000006,
                    "velocity": 0.7637795275590551,
                    "duration": 0.49791666666666856
                },
                {
                    "name": "A#4",
                    "midi": 70,
                    "time": 208.6666666666667,
                    "velocity": 0.4881889763779528,
                    "duration": 0.16458333333335418
                },
                {
                    "name": "G4",
                    "midi": 67,
                    "time": 208.6666666666667,
                    "velocity": 0.4409448818897638,
                    "duration": 0.16458333333335418
                },
                {
                    "name": "A1",
                    "midi": 33,
                    "time": 208.75000000000006,
                    "velocity": 0.6692913385826772,
                    "duration": 0.24791666666666856
                },
                {
                    "name": "G4",
                    "midi": 67,
                    "time": 208.8333333333334,
                    "velocity": 0.5905511811023622,
                    "duration": 0.33124999999998295
                },
                {
                    "name": "A#4",
                    "midi": 70,
                    "time": 208.8333333333334,
                    "velocity": 0.6141732283464567,
                    "duration": 0.33124999999998295
                },
                {
                    "name": "A2",
                    "midi": 45,
                    "time": 209.00000000000006,
                    "velocity": 0.6535433070866141,
                    "duration": 0.24791666666666856
                },
                {
                    "name": "D#4",
                    "midi": 63,
                    "time": 209.00000000000006,
                    "velocity": 0.6456692913385826,
                    "duration": 0.49791666666666856
                },
                {
                    "name": "C#5",
                    "midi": 73,
                    "time": 209.00000000000006,
                    "velocity": 0.6771653543307087,
                    "duration": 0.49791666666666856
                },
                {
                    "name": "A#4",
                    "midi": 70,
                    "time": 209.25000000000006,
                    "velocity": 0.5905511811023622,
                    "duration": 0.49791666666666856
                },
                {
                    "name": "G4",
                    "midi": 67,
                    "time": 209.25000000000006,
                    "velocity": 0.6141732283464567,
                    "duration": 0.49791666666666856
                },
                {
                    "name": "A1",
                    "midi": 33,
                    "time": 209.25000000000006,
                    "velocity": 0.6850393700787402,
                    "duration": 0.24791666666666856
                },
                {
                    "name": "G#1",
                    "midi": 32,
                    "time": 209.50000000000006,
                    "velocity": 0.6929133858267716,
                    "duration": 0.24791666666666856
                },
                {
                    "name": "E4",
                    "midi": 64,
                    "time": 209.50000000000006,
                    "velocity": 0.7165354330708661,
                    "duration": 0.49791666666666856
                },
                {
                    "name": "D5",
                    "midi": 74,
                    "time": 209.50000000000006,
                    "velocity": 0.7716535433070866,
                    "duration": 0.49791666666666856
                },
                {
                    "name": "G4",
                    "midi": 67,
                    "time": 209.6666666666667,
                    "velocity": 0.5196850393700787,
                    "duration": 0.16458333333335418
                },
                {
                    "name": "A#4",
                    "midi": 70,
                    "time": 209.6666666666667,
                    "velocity": 0.5275590551181102,
                    "duration": 0.16458333333335418
                },
                {
                    "name": "A1",
                    "midi": 33,
                    "time": 209.75000000000006,
                    "velocity": 0.6929133858267716,
                    "duration": 0.24791666666666856
                },
                {
                    "name": "G4",
                    "midi": 67,
                    "time": 209.8333333333334,
                    "velocity": 0.6456692913385826,
                    "duration": 0.16458333333332575
                },
                {
                    "name": "A#4",
                    "midi": 70,
                    "time": 209.8333333333334,
                    "velocity": 0.6535433070866141,
                    "duration": 0.16458333333332575
                },
                {
                    "name": "A5",
                    "midi": 81,
                    "time": 210.00000000000006,
                    "velocity": 0.9133858267716536,
                    "duration": 1.4979166666666686
                },
                {
                    "name": "F3",
                    "midi": 53,
                    "time": 210.00000000000006,
                    "velocity": 0.8503937007874016,
                    "duration": 0.24791666666666856
                },
                {
                    "name": "D#5",
                    "midi": 75,
                    "time": 210.25000000000006,
                    "velocity": 0.8031496062992126,
                    "duration": 0.49791666666666856
                },
                {
                    "name": "C5",
                    "midi": 72,
                    "time": 210.25000000000006,
                    "velocity": 0.7716535433070866,
                    "duration": 0.49791666666666856
                },
                {
                    "name": "F2",
                    "midi": 41,
                    "time": 210.25000000000006,
                    "velocity": 0.7874015748031497,
                    "duration": 0.24791666666666856
                },
                {
                    "name": "A4",
                    "midi": 69,
                    "time": 210.50000000000006,
                    "velocity": 0.8110236220472441,
                    "duration": 0.49791666666666856
                },
                {
                    "name": "E2",
                    "midi": 40,
                    "time": 210.50000000000006,
                    "velocity": 0.7637795275590551,
                    "duration": 0.24791666666666856
                },
                {
                    "name": "D#5",
                    "midi": 75,
                    "time": 210.6666666666667,
                    "velocity": 0.6299212598425197,
                    "duration": 0.16458333333335418
                },
                {
                    "name": "C5",
                    "midi": 72,
                    "time": 210.6666666666667,
                    "velocity": 0.6771653543307087,
                    "duration": 0.16458333333335418
                },
                {
                    "name": "F2",
                    "midi": 41,
                    "time": 210.75000000000006,
                    "velocity": 0.7637795275590551,
                    "duration": 0.24791666666666856
                },
                {
                    "name": "C5",
                    "midi": 72,
                    "time": 210.8333333333334,
                    "velocity": 0.7874015748031497,
                    "duration": 0.33124999999998295
                },
                {
                    "name": "D#5",
                    "midi": 75,
                    "time": 210.8333333333334,
                    "velocity": 0.7244094488188977,
                    "duration": 0.33124999999998295
                },
                {
                    "name": "G#4",
                    "midi": 68,
                    "time": 211.00000000000006,
                    "velocity": 0.7874015748031497,
                    "duration": 0.49791666666666856
                },
                {
                    "name": "C3",
                    "midi": 48,
                    "time": 211.00000000000006,
                    "velocity": 0.7716535433070866,
                    "duration": 0.24791666666666856
                },
                {
                    "name": "D#5",
                    "midi": 75,
                    "time": 211.25000000000006,
                    "velocity": 0.7637795275590551,
                    "duration": 0.49791666666666856
                },
                {
                    "name": "C5",
                    "midi": 72,
                    "time": 211.25000000000006,
                    "velocity": 0.7716535433070866,
                    "duration": 0.49791666666666856
                },
                {
                    "name": "C2",
                    "midi": 36,
                    "time": 211.25000000000006,
                    "velocity": 0.8110236220472441,
                    "duration": 0.24791666666666856
                },
                {
                    "name": "G4",
                    "midi": 67,
                    "time": 211.3333333333334,
                    "velocity": 0.8031496062992126,
                    "duration": 0.6645833333333258
                },
                {
                    "name": "A#5",
                    "midi": 82,
                    "time": 211.50000000000006,
                    "velocity": 0.84251968503937,
                    "duration": 0.49791666666666856
                },
                {
                    "name": "B1",
                    "midi": 35,
                    "time": 211.50000000000006,
                    "velocity": 0.7952755905511811,
                    "duration": 0.24791666666666856
                },
                {
                    "name": "C5",
                    "midi": 72,
                    "time": 211.6666666666667,
                    "velocity": 0.6692913385826772,
                    "duration": 0.16458333333335418
                },
                {
                    "name": "D#5",
                    "midi": 75,
                    "time": 211.6666666666667,
                    "velocity": 0.7244094488188977,
                    "duration": 0.16458333333335418
                },
                {
                    "name": "C2",
                    "midi": 36,
                    "time": 211.75000000000006,
                    "velocity": 0.8110236220472441,
                    "duration": 0.24791666666666856
                },
                {
                    "name": "C5",
                    "midi": 72,
                    "time": 211.8333333333334,
                    "velocity": 0.7165354330708661,
                    "duration": 0.16458333333332575
                },
                {
                    "name": "D#5",
                    "midi": 75,
                    "time": 211.8333333333334,
                    "velocity": 0.6929133858267716,
                    "duration": 0.16458333333332575
                },
                {
                    "name": "G5",
                    "midi": 79,
                    "time": 212.00000000000006,
                    "velocity": 0.8740157480314961,
                    "duration": 0.9979166666666686
                },
                {
                    "name": "F3",
                    "midi": 53,
                    "time": 212.00000000000006,
                    "velocity": 0.7244094488188977,
                    "duration": 0.24791666666666856
                },
                {
                    "name": "D#5",
                    "midi": 75,
                    "time": 212.25000000000006,
                    "velocity": 0.7165354330708661,
                    "duration": 0.49791666666666856
                },
                {
                    "name": "C5",
                    "midi": 72,
                    "time": 212.25000000000006,
                    "velocity": 0.7322834645669292,
                    "duration": 0.49791666666666856
                },
                {
                    "name": "F2",
                    "midi": 41,
                    "time": 212.25000000000006,
                    "velocity": 0.7637795275590551,
                    "duration": 0.24791666666666856
                },
                {
                    "name": "A4",
                    "midi": 69,
                    "time": 212.50000000000006,
                    "velocity": 0.7637795275590551,
                    "duration": 0.49791666666666856
                },
                {
                    "name": "E2",
                    "midi": 40,
                    "time": 212.50000000000006,
                    "velocity": 0.7874015748031497,
                    "duration": 0.24791666666666856
                },
                {
                    "name": "D#5",
                    "midi": 75,
                    "time": 212.6666666666667,
                    "velocity": 0.6220472440944882,
                    "duration": 0.16458333333335418
                },
                {
                    "name": "C5",
                    "midi": 72,
                    "time": 212.6666666666667,
                    "velocity": 0.6220472440944882,
                    "duration": 0.16458333333335418
                },
                {
                    "name": "F2",
                    "midi": 41,
                    "time": 212.75000000000006,
                    "velocity": 0.8031496062992126,
                    "duration": 0.24791666666666856
                },
                {
                    "name": "D#5",
                    "midi": 75,
                    "time": 212.8333333333334,
                    "velocity": 0.7322834645669292,
                    "duration": 0.33124999999998295
                },
                {
                    "name": "C5",
                    "midi": 72,
                    "time": 212.8333333333334,
                    "velocity": 0.6929133858267716,
                    "duration": 0.33124999999998295
                },
                {
                    "name": "G4",
                    "midi": 67,
                    "time": 213.00000000000006,
                    "velocity": 0.7874015748031497,
                    "duration": 0.49791666666666856
                },
                {
                    "name": "A5",
                    "midi": 81,
                    "time": 213.00000000000006,
                    "velocity": 0.8818897637795275,
                    "duration": 0.24791666666666856
                },
                {
                    "name": "C3",
                    "midi": 48,
                    "time": 213.00000000000006,
                    "velocity": 0.7716535433070866,
                    "duration": 0.24791666666666856
                },
                {
                    "name": "D#5",
                    "midi": 75,
                    "time": 213.25000000000006,
                    "velocity": 0.6692913385826772,
                    "duration": 0.49791666666666856
                },
                {
                    "name": "C5",
                    "midi": 72,
                    "time": 213.25000000000006,
                    "velocity": 0.6771653543307087,
                    "duration": 0.49791666666666856
                },
                {
                    "name": "G5",
                    "midi": 79,
                    "time": 213.25000000000006,
                    "velocity": 0.8110236220472441,
                    "duration": 0.24791666666666856
                },
                {
                    "name": "C2",
                    "midi": 36,
                    "time": 213.25000000000006,
                    "velocity": 0.8110236220472441,
                    "duration": 0.24791666666666856
                },
                {
                    "name": "F#4",
                    "midi": 66,
                    "time": 213.50000000000006,
                    "velocity": 0.7637795275590551,
                    "duration": 0.49791666666666856
                },
                {
                    "name": "F5",
                    "midi": 77,
                    "time": 213.50000000000006,
                    "velocity": 0.8267716535433071,
                    "duration": 0.24791666666666856
                },
                {
                    "name": "B1",
                    "midi": 35,
                    "time": 213.50000000000006,
                    "velocity": 0.7952755905511811,
                    "duration": 0.24791666666666856
                },
                {
                    "name": "A#4",
                    "midi": 70,
                    "time": 213.75000000000006,
                    "velocity": 0.6299212598425197,
                    "duration": 0.24791666666666856
                },
                {
                    "name": "G4",
                    "midi": 67,
                    "time": 213.75000000000006,
                    "velocity": 0.6771653543307087,
                    "duration": 0.24791666666666856
                },
                {
                    "name": "D#5",
                    "midi": 75,
                    "time": 213.75000000000006,
                    "velocity": 0.8503937007874016,
                    "duration": 0.24791666666666856
                },
                {
                    "name": "C2",
                    "midi": 36,
                    "time": 213.75000000000006,
                    "velocity": 0.8110236220472441,
                    "duration": 0.24791666666666856
                },
                {
                    "name": "D5",
                    "midi": 74,
                    "time": 214.00000000000006,
                    "velocity": 0.8818897637795275,
                    "duration": 1.4979166666666686
                },
                {
                    "name": "F3",
                    "midi": 53,
                    "time": 214.00000000000006,
                    "velocity": 0.8503937007874016,
                    "duration": 0.24791666666666856
                },
                {
                    "name": "F4",
                    "midi": 65,
                    "time": 214.25000000000006,
                    "velocity": 0.7322834645669292,
                    "duration": 0.49791666666666856
                },
                {
                    "name": "A4",
                    "midi": 69,
                    "time": 214.25000000000006,
                    "velocity": 0.7716535433070866,
                    "duration": 0.49791666666666856
                },
                {
                    "name": "F2",
                    "midi": 41,
                    "time": 214.25000000000006,
                    "velocity": 0.7874015748031497,
                    "duration": 0.24791666666666856
                },
                {
                    "name": "F4",
                    "midi": 65,
                    "time": 214.50000000000006,
                    "velocity": 0.8582677165354331,
                    "duration": 0.33125000000001137
                },
                {
                    "name": "E2",
                    "midi": 40,
                    "time": 214.50000000000006,
                    "velocity": 0.7637795275590551,
                    "duration": 0.24791666666666856
                },
                {
                    "name": "A4",
                    "midi": 69,
                    "time": 214.6666666666667,
                    "velocity": 0.6929133858267716,
                    "duration": 0.16458333333335418
                },
                {
                    "name": "F4",
                    "midi": 65,
                    "time": 214.6666666666667,
                    "velocity": 0.6141732283464567,
                    "duration": 0.33125000000001137
                },
                {
                    "name": "F2",
                    "midi": 41,
                    "time": 214.75000000000006,
                    "velocity": 0.7637795275590551,
                    "duration": 0.24791666666666856
                },
                {
                    "name": "F4",
                    "midi": 65,
                    "time": 214.8333333333334,
                    "velocity": 0.6692913385826772,
                    "duration": 0.33124999999998295
                },
                {
                    "name": "A4",
                    "midi": 69,
                    "time": 214.8333333333334,
                    "velocity": 0.7086614173228346,
                    "duration": 0.33124999999998295
                },
                {
                    "name": "E4",
                    "midi": 64,
                    "time": 215.00000000000006,
                    "velocity": 0.8503937007874016,
                    "duration": 0.49791666666666856
                },
                {
                    "name": "C3",
                    "midi": 48,
                    "time": 215.00000000000006,
                    "velocity": 0.7716535433070866,
                    "duration": 0.24791666666666856
                },
                {
                    "name": "A#4",
                    "midi": 70,
                    "time": 215.25000000000006,
                    "velocity": 0.6220472440944882,
                    "duration": 0.24791666666666856
                },
                {
                    "name": "G4",
                    "midi": 67,
                    "time": 215.25000000000006,
                    "velocity": 0.6062992125984252,
                    "duration": 0.24791666666666856
                },
                {
                    "name": "C2",
                    "midi": 36,
                    "time": 215.25000000000006,
                    "velocity": 0.8110236220472441,
                    "duration": 0.24791666666666856
                },
                {
                    "name": "D#4",
                    "midi": 63,
                    "time": 215.50000000000006,
                    "velocity": 0.7874015748031497,
                    "duration": 0.49791666666666856
                },
                {
                    "name": "D#5",
                    "midi": 75,
                    "time": 215.50000000000006,
                    "velocity": 0.8582677165354331,
                    "duration": 0.49791666666666856
                },
                {
                    "name": "B1",
                    "midi": 35,
                    "time": 215.50000000000006,
                    "velocity": 0.7952755905511811,
                    "duration": 0.24791666666666856
                },
                {
                    "name": "A#4",
                    "midi": 70,
                    "time": 215.6666666666667,
                    "velocity": 0.6377952755905512,
                    "duration": 0.16458333333335418
                },
                {
                    "name": "G4",
                    "midi": 67,
                    "time": 215.6666666666667,
                    "velocity": 0.5826771653543307,
                    "duration": 0.16458333333335418
                },
                {
                    "name": "C2",
                    "midi": 36,
                    "time": 215.75000000000006,
                    "velocity": 0.8110236220472441,
                    "duration": 0.24791666666666856
                },
                {
                    "name": "G4",
                    "midi": 67,
                    "time": 215.8333333333334,
                    "velocity": 0.7165354330708661,
                    "duration": 0.33124999999998295
                },
                {
                    "name": "A#4",
                    "midi": 70,
                    "time": 215.8333333333334,
                    "velocity": 0.7165354330708661,
                    "duration": 0.33124999999998295
                },
                {
                    "name": "C5",
                    "midi": 72,
                    "time": 216.00000000000006,
                    "velocity": 0.8582677165354331,
                    "duration": 0.9979166666666686
                },
                {
                    "name": "F3",
                    "midi": 53,
                    "time": 216.00000000000006,
                    "velocity": 0.7244094488188977,
                    "duration": 0.24791666666666856
                },
                {
                    "name": "A4",
                    "midi": 69,
                    "time": 216.25000000000006,
                    "velocity": 0.6929133858267716,
                    "duration": 0.24791666666666856
                },
                {
                    "name": "F4",
                    "midi": 65,
                    "time": 216.25000000000006,
                    "velocity": 0.6062992125984252,
                    "duration": 0.24791666666666856
                },
                {
                    "name": "F2",
                    "midi": 41,
                    "time": 216.25000000000006,
                    "velocity": 0.7637795275590551,
                    "duration": 0.24791666666666856
                },
                {
                    "name": "D#4",
                    "midi": 63,
                    "time": 216.50000000000006,
                    "velocity": 0.8110236220472441,
                    "duration": 0.49791666666666856
                },
                {
                    "name": "E2",
                    "midi": 40,
                    "time": 216.50000000000006,
                    "velocity": 0.7874015748031497,
                    "duration": 0.24791666666666856
                },
                {
                    "name": "A4",
                    "midi": 69,
                    "time": 216.6666666666667,
                    "velocity": 0.5984251968503937,
                    "duration": 0.16458333333335418
                },
                {
                    "name": "F4",
                    "midi": 65,
                    "time": 216.6666666666667,
                    "velocity": 0.6299212598425197,
                    "duration": 0.16458333333335418
                },
                {
                    "name": "F2",
                    "midi": 41,
                    "time": 216.75000000000006,
                    "velocity": 0.8031496062992126,
                    "duration": 0.24791666666666856
                },
                {
                    "name": "A4",
                    "midi": 69,
                    "time": 216.8333333333334,
                    "velocity": 0.6929133858267716,
                    "duration": 0.33124999999998295
                },
                {
                    "name": "F4",
                    "midi": 65,
                    "time": 216.8333333333334,
                    "velocity": 0.7086614173228346,
                    "duration": 0.33124999999998295
                },
                {
                    "name": "D4",
                    "midi": 62,
                    "time": 217.00000000000006,
                    "velocity": 0.7952755905511811,
                    "duration": 0.49791666666666856
                },
                {
                    "name": "D5",
                    "midi": 74,
                    "time": 217.00000000000006,
                    "velocity": 0.8740157480314961,
                    "duration": 0.24791666666666856
                },
                {
                    "name": "C3",
                    "midi": 48,
                    "time": 217.00000000000006,
                    "velocity": 0.7716535433070866,
                    "duration": 0.24791666666666856
                },
                {
                    "name": "G4",
                    "midi": 67,
                    "time": 217.25000000000006,
                    "velocity": 0.7165354330708661,
                    "duration": 0.49791666666666856
                },
                {
                    "name": "D#4",
                    "midi": 63,
                    "time": 217.25000000000006,
                    "velocity": 0.7086614173228346,
                    "duration": 0.49791666666666856
                },
                {
                    "name": "C5",
                    "midi": 72,
                    "time": 217.25000000000006,
                    "velocity": 0.8582677165354331,
                    "duration": 0.24791666666666856
                },
                {
                    "name": "C2",
                    "midi": 36,
                    "time": 217.25000000000006,
                    "velocity": 0.8110236220472441,
                    "duration": 0.24791666666666856
                },
                {
                    "name": "C4",
                    "midi": 60,
                    "time": 217.50000000000006,
                    "velocity": 0.8031496062992126,
                    "duration": 0.49791666666666856
                },
                {
                    "name": "A#4",
                    "midi": 70,
                    "time": 217.50000000000006,
                    "velocity": 0.8031496062992126,
                    "duration": 0.24791666666666856
                },
                {
                    "name": "B1",
                    "midi": 35,
                    "time": 217.50000000000006,
                    "velocity": 0.7952755905511811,
                    "duration": 0.24791666666666856
                },
                {
                    "name": "D#4",
                    "midi": 63,
                    "time": 217.75000000000006,
                    "velocity": 0.5984251968503937,
                    "duration": 0.24791666666666856
                },
                {
                    "name": "G4",
                    "midi": 67,
                    "time": 217.75000000000006,
                    "velocity": 0.6377952755905512,
                    "duration": 0.24791666666666856
                },
                {
                    "name": "A4",
                    "midi": 69,
                    "time": 217.75000000000006,
                    "velocity": 0.84251968503937,
                    "duration": 0.24791666666666856
                },
                {
                    "name": "C2",
                    "midi": 36,
                    "time": 217.75000000000006,
                    "velocity": 0.8110236220472441,
                    "duration": 0.24791666666666856
                },
                {
                    "name": "A4",
                    "midi": 69,
                    "time": 218.00000000000006,
                    "velocity": 0.8740157480314961,
                    "duration": 1.4979166666666686
                },
                {
                    "name": "F3",
                    "midi": 53,
                    "time": 218.00000000000006,
                    "velocity": 0.8503937007874016,
                    "duration": 0.24791666666666856
                },
                {
                    "name": "C4",
                    "midi": 60,
                    "time": 218.25000000000006,
                    "velocity": 0.6377952755905512,
                    "duration": 0.49791666666666856
                },
                {
                    "name": "D#4",
                    "midi": 63,
                    "time": 218.25000000000006,
                    "velocity": 0.5984251968503937,
                    "duration": 0.49791666666666856
                },
                {
                    "name": "F2",
                    "midi": 41,
                    "time": 218.25000000000006,
                    "velocity": 0.7874015748031497,
                    "duration": 0.24791666666666856
                },
                {
                    "name": "A3",
                    "midi": 57,
                    "time": 218.50000000000006,
                    "velocity": 0.84251968503937,
                    "duration": 0.49791666666666856
                },
                {
                    "name": "E2",
                    "midi": 40,
                    "time": 218.50000000000006,
                    "velocity": 0.7637795275590551,
                    "duration": 0.24791666666666856
                },
                {
                    "name": "D#4",
                    "midi": 63,
                    "time": 218.6666666666667,
                    "velocity": 0.5826771653543307,
                    "duration": 0.16458333333335418
                },
                {
                    "name": "C4",
                    "midi": 60,
                    "time": 218.6666666666667,
                    "velocity": 0.5511811023622047,
                    "duration": 0.16458333333335418
                },
                {
                    "name": "F2",
                    "midi": 41,
                    "time": 218.75000000000006,
                    "velocity": 0.7637795275590551,
                    "duration": 0.24791666666666856
                },
                {
                    "name": "C4",
                    "midi": 60,
                    "time": 218.8333333333334,
                    "velocity": 0.7952755905511811,
                    "duration": 0.16458333333332575
                },
                {
                    "name": "D#4",
                    "midi": 63,
                    "time": 218.8333333333334,
                    "velocity": 0.7637795275590551,
                    "duration": 0.16458333333332575
                },
                {
                    "name": "G#3",
                    "midi": 56,
                    "time": 219.00000000000006,
                    "velocity": 0.8740157480314961,
                    "duration": 0.49791666666666856
                },
                {
                    "name": "C3",
                    "midi": 48,
                    "time": 219.00000000000006,
                    "velocity": 0.7716535433070866,
                    "duration": 0.24791666666666856
                },
                {
                    "name": "C4",
                    "midi": 60,
                    "time": 219.25000000000006,
                    "velocity": 0.6929133858267716,
                    "duration": 0.24791666666666856
                },
                {
                    "name": "D#4",
                    "midi": 63,
                    "time": 219.25000000000006,
                    "velocity": 0.7086614173228346,
                    "duration": 0.24791666666666856
                },
                {
                    "name": "C2",
                    "midi": 36,
                    "time": 219.25000000000006,
                    "velocity": 0.8110236220472441,
                    "duration": 0.24791666666666856
                },
                {
                    "name": "G3",
                    "midi": 55,
                    "time": 219.3333333333334,
                    "velocity": 0.8031496062992126,
                    "duration": 0.6645833333333258
                },
                {
                    "name": "A#4",
                    "midi": 70,
                    "time": 219.50000000000006,
                    "velocity": 0.8031496062992126,
                    "duration": 0.49791666666666856
                },
                {
                    "name": "B1",
                    "midi": 35,
                    "time": 219.50000000000006,
                    "velocity": 0.7952755905511811,
                    "duration": 0.24791666666666856
                },
                {
                    "name": "D#4",
                    "midi": 63,
                    "time": 219.6666666666667,
                    "velocity": 0.6062992125984252,
                    "duration": 0.16458333333335418
                },
                {
                    "name": "C4",
                    "midi": 60,
                    "time": 219.6666666666667,
                    "velocity": 0.6220472440944882,
                    "duration": 0.16458333333335418
                },
                {
                    "name": "C2",
                    "midi": 36,
                    "time": 219.75000000000006,
                    "velocity": 0.8110236220472441,
                    "duration": 0.24791666666666856
                },
                {
                    "name": "C4",
                    "midi": 60,
                    "time": 219.8333333333334,
                    "velocity": 0.7086614173228346,
                    "duration": 0.33124999999998295
                },
                {
                    "name": "D#4",
                    "midi": 63,
                    "time": 219.8333333333334,
                    "velocity": 0.6456692913385826,
                    "duration": 0.33124999999998295
                },
                {
                    "name": "G4",
                    "midi": 67,
                    "time": 220.00000000000006,
                    "velocity": 0.8582677165354331,
                    "duration": 0.9979166666666686
                },
                {
                    "name": "F3",
                    "midi": 53,
                    "time": 220.00000000000006,
                    "velocity": 0.7244094488188977,
                    "duration": 0.24791666666666856
                },
                {
                    "name": "D#4",
                    "midi": 63,
                    "time": 220.25000000000006,
                    "velocity": 0.6456692913385826,
                    "duration": 0.49791666666666856
                },
                {
                    "name": "C4",
                    "midi": 60,
                    "time": 220.25000000000006,
                    "velocity": 0.7559055118110236,
                    "duration": 0.49791666666666856
                },
                {
                    "name": "F2",
                    "midi": 41,
                    "time": 220.25000000000006,
                    "velocity": 0.7637795275590551,
                    "duration": 0.24791666666666856
                },
                {
                    "name": "A3",
                    "midi": 57,
                    "time": 220.50000000000006,
                    "velocity": 0.7480314960629921,
                    "duration": 0.49791666666666856
                },
                {
                    "name": "E2",
                    "midi": 40,
                    "time": 220.50000000000006,
                    "velocity": 0.7874015748031497,
                    "duration": 0.24791666666666856
                },
                {
                    "name": "C4",
                    "midi": 60,
                    "time": 220.6666666666667,
                    "velocity": 0.5669291338582677,
                    "duration": 0.16458333333335418
                },
                {
                    "name": "D#4",
                    "midi": 63,
                    "time": 220.6666666666667,
                    "velocity": 0.5748031496062992,
                    "duration": 0.16458333333335418
                },
                {
                    "name": "F2",
                    "midi": 41,
                    "time": 220.75000000000006,
                    "velocity": 0.8031496062992126,
                    "duration": 0.24791666666666856
                },
                {
                    "name": "C4",
                    "midi": 60,
                    "time": 220.8333333333334,
                    "velocity": 0.7244094488188977,
                    "duration": 0.33124999999998295
                },
                {
                    "name": "D#4",
                    "midi": 63,
                    "time": 220.8333333333334,
                    "velocity": 0.6771653543307087,
                    "duration": 0.33124999999998295
                },
                {
                    "name": "G3",
                    "midi": 55,
                    "time": 221.00000000000006,
                    "velocity": 0.7874015748031497,
                    "duration": 0.49791666666666856
                },
                {
                    "name": "A4",
                    "midi": 69,
                    "time": 221.00000000000006,
                    "velocity": 0.8582677165354331,
                    "duration": 0.24791666666666856
                },
                {
                    "name": "C3",
                    "midi": 48,
                    "time": 221.00000000000006,
                    "velocity": 0.7716535433070866,
                    "duration": 0.24791666666666856
                },
                {
                    "name": "C4",
                    "midi": 60,
                    "time": 221.25000000000006,
                    "velocity": 0.7322834645669292,
                    "duration": 0.49791666666666856
                },
                {
                    "name": "D#4",
                    "midi": 63,
                    "time": 221.25000000000006,
                    "velocity": 0.7480314960629921,
                    "duration": 0.49791666666666856
                },
                {
                    "name": "G4",
                    "midi": 67,
                    "time": 221.25000000000006,
                    "velocity": 0.8267716535433071,
                    "duration": 0.24791666666666856
                },
                {
                    "name": "C2",
                    "midi": 36,
                    "time": 221.25000000000006,
                    "velocity": 0.8110236220472441,
                    "duration": 0.24791666666666856
                },
                {
                    "name": "F#3",
                    "midi": 54,
                    "time": 221.50000000000006,
                    "velocity": 0.7874015748031497,
                    "duration": 0.49791666666666856
                },
                {
                    "name": "F4",
                    "midi": 65,
                    "time": 221.50000000000006,
                    "velocity": 0.8110236220472441,
                    "duration": 0.24791666666666856
                },
                {
                    "name": "B1",
                    "midi": 35,
                    "time": 221.50000000000006,
                    "velocity": 0.7952755905511811,
                    "duration": 0.24791666666666856
                },
                {
                    "name": "A#3",
                    "midi": 58,
                    "time": 221.75000000000006,
                    "velocity": 0.6456692913385826,
                    "duration": 0.24791666666666856
                },
                {
                    "name": "G3",
                    "midi": 55,
                    "time": 221.75000000000006,
                    "velocity": 0.5590551181102362,
                    "duration": 0.24791666666666856
                },
                {
                    "name": "D#4",
                    "midi": 63,
                    "time": 221.75000000000006,
                    "velocity": 0.84251968503937,
                    "duration": 0.24791666666666856
                },
                {
                    "name": "C2",
                    "midi": 36,
                    "time": 221.75000000000006,
                    "velocity": 0.8110236220472441,
                    "duration": 0.24791666666666856
                },
                {
                    "name": "G#3",
                    "midi": 56,
                    "time": 222.00000000000006,
                    "velocity": 0.7322834645669292,
                    "duration": 0.49791666666666856
                },
                {
                    "name": "C#4",
                    "midi": 61,
                    "time": 222.00000000000006,
                    "velocity": 0.8582677165354331,
                    "duration": 0.49791666666666856
                },
                {
                    "name": "E3",
                    "midi": 52,
                    "time": 222.00000000000006,
                    "velocity": 0.7559055118110236,
                    "duration": 0.49791666666666856
                },
                {
                    "name": "C#2",
                    "midi": 37,
                    "time": 222.00000000000006,
                    "velocity": 0.984251968503937,
                    "duration": 1.2479166666666686
                },
                {
                    "name": "G#2",
                    "midi": 44,
                    "time": 222.00000000000006,
                    "velocity": 0.9212598425196851,
                    "duration": 1.2479166666666686
                },
                {
                    "name": "E4",
                    "midi": 64,
                    "time": 222.50000000000006,
                    "velocity": 0.8110236220472441,
                    "duration": 0.49791666666666856
                },
                {
                    "name": "F3",
                    "midi": 53,
                    "time": 223.00000000000006,
                    "velocity": 0.8582677165354331,
                    "duration": 1.4979166666666686
                },
                {
                    "name": "A2",
                    "midi": 45,
                    "time": 223.25000000000006,
                    "velocity": 0.8110236220472441,
                    "duration": 0.24791666666666856
                },
                {
                    "name": "C3",
                    "midi": 48,
                    "time": 223.25000000000006,
                    "velocity": 0.7559055118110236,
                    "duration": 0.24791666666666856
                },
                {
                    "name": "G#2",
                    "midi": 44,
                    "time": 223.50000000000006,
                    "velocity": 0.7401574803149606,
                    "duration": 0.24791666666666856
                },
                {
                    "name": "C#2",
                    "midi": 37,
                    "time": 223.50000000000006,
                    "velocity": 0.8346456692913385,
                    "duration": 0.24791666666666856
                },
                {
                    "name": "A2",
                    "midi": 45,
                    "time": 223.75000000000006,
                    "velocity": 0.7952755905511811,
                    "duration": 0.24791666666666856
                },
                {
                    "name": "C3",
                    "midi": 48,
                    "time": 223.75000000000006,
                    "velocity": 0.7559055118110236,
                    "duration": 0.24791666666666856
                },
                {
                    "name": "C#2",
                    "midi": 37,
                    "time": 224.00000000000006,
                    "velocity": 0.8110236220472441,
                    "duration": 1.2479166666666686
                },
                {
                    "name": "G#2",
                    "midi": 44,
                    "time": 224.00000000000006,
                    "velocity": 0.7401574803149606,
                    "duration": 1.2479166666666686
                },
                {
                    "name": "E4",
                    "midi": 64,
                    "time": 224.50000000000006,
                    "velocity": 0.8582677165354331,
                    "duration": 0.49791666666666856
                },
                {
                    "name": "F#3",
                    "midi": 54,
                    "time": 225.00000000000006,
                    "velocity": 0.7401574803149606,
                    "duration": 1.4979166666666686
                },
                {
                    "name": "E3",
                    "midi": 52,
                    "time": 225.00000000000006,
                    "velocity": 0.7559055118110236,
                    "duration": 1.4979166666666686
                },
                {
                    "name": "C3",
                    "midi": 48,
                    "time": 225.25000000000006,
                    "velocity": 0.7322834645669292,
                    "duration": 0.24791666666666856
                },
                {
                    "name": "A2",
                    "midi": 45,
                    "time": 225.25000000000006,
                    "velocity": 0.7716535433070866,
                    "duration": 0.24791666666666856
                },
                {
                    "name": "G#2",
                    "midi": 44,
                    "time": 225.50000000000006,
                    "velocity": 0.6377952755905512,
                    "duration": 0.24791666666666856
                },
                {
                    "name": "C#2",
                    "midi": 37,
                    "time": 225.50000000000006,
                    "velocity": 0.6771653543307087,
                    "duration": 0.24791666666666856
                },
                {
                    "name": "C3",
                    "midi": 48,
                    "time": 225.75000000000006,
                    "velocity": 0.7559055118110236,
                    "duration": 0.24791666666666856
                },
                {
                    "name": "A2",
                    "midi": 45,
                    "time": 225.75000000000006,
                    "velocity": 0.7716535433070866,
                    "duration": 0.24791666666666856
                },
                {
                    "name": "C#2",
                    "midi": 37,
                    "time": 226.00000000000006,
                    "velocity": 0.8110236220472441,
                    "duration": 1.4979166666666686
                },
                {
                    "name": "G#2",
                    "midi": 44,
                    "time": 226.00000000000006,
                    "velocity": 0.7559055118110236,
                    "duration": 1.4979166666666686
                },
                {
                    "name": "E4",
                    "midi": 64,
                    "time": 226.50000000000006,
                    "velocity": 0.7716535433070866,
                    "duration": 0.49791666666666856
                },
                {
                    "name": "G3",
                    "midi": 55,
                    "time": 227.00000000000006,
                    "velocity": 0.7716535433070866,
                    "duration": 0.9979166666666686
                },
                {
                    "name": "E3",
                    "midi": 52,
                    "time": 227.00000000000006,
                    "velocity": 0.7795275590551181,
                    "duration": 0.9979166666666686
                },
                {
                    "name": "C#2",
                    "midi": 37,
                    "time": 227.50000000000006,
                    "velocity": 0.7795275590551181,
                    "duration": 2.4979166666666686
                },
                {
                    "name": "G#3",
                    "midi": 56,
                    "time": 228.00000000000006,
                    "velocity": 0.7952755905511811,
                    "duration": 1.9979166666666686
                },
                {
                    "name": "G3",
                    "midi": 55,
                    "time": 228.00000000000006,
                    "velocity": 0.8582677165354331,
                    "duration": 1.9979166666666686
                },
                {
                    "name": "E3",
                    "midi": 52,
                    "time": 228.00000000000006,
                    "velocity": 0.8740157480314961,
                    "duration": 1.9979166666666686
                },
                {
                    "name": "A#2",
                    "midi": 46,
                    "time": 228.00000000000006,
                    "velocity": 0.8582677165354331,
                    "duration": 1.9979166666666686
                },
                {
                    "name": "G#4",
                    "midi": 68,
                    "time": 230.00000000000006,
                    "velocity": 0.6850393700787402,
                    "duration": 0.9979166666666686
                },
                {
                    "name": "G4",
                    "midi": 67,
                    "time": 230.00000000000006,
                    "velocity": 0.7559055118110236,
                    "duration": 0.9979166666666686
                },
                {
                    "name": "E4",
                    "midi": 64,
                    "time": 230.00000000000006,
                    "velocity": 0.7401574803149606,
                    "duration": 0.9979166666666686
                },
                {
                    "name": "C4",
                    "midi": 60,
                    "time": 230.00000000000006,
                    "velocity": 0.7559055118110236,
                    "duration": 0.9979166666666686
                },
                {
                    "name": "C#3",
                    "midi": 49,
                    "time": 230.00000000000006,
                    "velocity": 0.8110236220472441,
                    "duration": 0.9979166666666686
                },
                {
                    "name": "E5",
                    "midi": 76,
                    "time": 231.00000000000006,
                    "velocity": 0.47244094488188976,
                    "duration": 0.9979166666666686
                },
                {
                    "name": "G#5",
                    "midi": 80,
                    "time": 231.00000000000006,
                    "velocity": 0.5984251968503937,
                    "duration": 0.9979166666666686
                },
                {
                    "name": "G5",
                    "midi": 79,
                    "time": 231.00000000000006,
                    "velocity": 0.6141732283464567,
                    "duration": 0.9979166666666686
                },
                {
                    "name": "A#4",
                    "midi": 70,
                    "time": 231.00000000000006,
                    "velocity": 0.6850393700787402,
                    "duration": 0.9979166666666686
                },
                {
                    "name": "C#4",
                    "midi": 61,
                    "time": 231.00000000000006,
                    "velocity": 0.6771653543307087,
                    "duration": 0.9979166666666686
                },
                {
                    "name": "G#2",
                    "midi": 44,
                    "time": 232.00000000000006,
                    "velocity": 0.7559055118110236,
                    "duration": 0.24791666666666856
                },
                {
                    "name": "G#1",
                    "midi": 32,
                    "time": 232.25000000000006,
                    "velocity": 0.5669291338582677,
                    "duration": 0.24791666666666856
                },
                {
                    "name": "G#3",
                    "midi": 56,
                    "time": 232.50000000000006,
                    "velocity": 0.6771653543307087,
                    "duration": 0.49791666666666856
                },
                {
                    "name": "G1",
                    "midi": 31,
                    "time": 232.50000000000006,
                    "velocity": 0.5905511811023622,
                    "duration": 0.24791666666666856
                },
                {
                    "name": "G#1",
                    "midi": 32,
                    "time": 232.75000000000006,
                    "velocity": 0.5748031496062992,
                    "duration": 0.24791666666666856
                },
                {
                    "name": "G3",
                    "midi": 55,
                    "time": 233.00000000000006,
                    "velocity": 0.6850393700787402,
                    "duration": 0.49791666666666856
                },
                {
                    "name": "A2",
                    "midi": 45,
                    "time": 233.00000000000006,
                    "velocity": 0.6535433070866141,
                    "duration": 0.24791666666666856
                },
                {
                    "name": "A1",
                    "midi": 33,
                    "time": 233.25000000000006,
                    "velocity": 0.6535433070866141,
                    "duration": 0.24791666666666856
                },
                {
                    "name": "G#3",
                    "midi": 56,
                    "time": 233.50000000000006,
                    "velocity": 0.6456692913385826,
                    "duration": 0.49791666666666856
                },
                {
                    "name": "G#1",
                    "midi": 32,
                    "time": 233.50000000000006,
                    "velocity": 0.5905511811023622,
                    "duration": 0.24791666666666856
                },
                {
                    "name": "A1",
                    "midi": 33,
                    "time": 233.75000000000006,
                    "velocity": 0.5669291338582677,
                    "duration": 0.24791666666666856
                },
                {
                    "name": "G#4",
                    "midi": 68,
                    "time": 234.00000000000006,
                    "velocity": 0.6929133858267716,
                    "duration": 0.49791666666666856
                },
                {
                    "name": "A#2",
                    "midi": 46,
                    "time": 234.00000000000006,
                    "velocity": 0.6929133858267716,
                    "duration": 0.24791666666666856
                },
                {
                    "name": "A#1",
                    "midi": 34,
                    "time": 234.25000000000006,
                    "velocity": 0.5905511811023622,
                    "duration": 0.24791666666666856
                },
                {
                    "name": "G#3",
                    "midi": 56,
                    "time": 234.50000000000006,
                    "velocity": 0.6771653543307087,
                    "duration": 0.49791666666666856
                },
                {
                    "name": "A1",
                    "midi": 33,
                    "time": 234.50000000000006,
                    "velocity": 0.6456692913385826,
                    "duration": 0.24791666666666856
                },
                {
                    "name": "A#1",
                    "midi": 34,
                    "time": 234.75000000000006,
                    "velocity": 0.5984251968503937,
                    "duration": 0.24791666666666856
                },
                {
                    "name": "G3",
                    "midi": 55,
                    "time": 235.00000000000006,
                    "velocity": 0.6692913385826772,
                    "duration": 0.49791666666666856
                },
                {
                    "name": "B2",
                    "midi": 47,
                    "time": 235.00000000000006,
                    "velocity": 0.6692913385826772,
                    "duration": 0.24791666666666856
                },
                {
                    "name": "B1",
                    "midi": 35,
                    "time": 235.25000000000006,
                    "velocity": 0.6377952755905512,
                    "duration": 0.24791666666666856
                },
                {
                    "name": "G#3",
                    "midi": 56,
                    "time": 235.50000000000006,
                    "velocity": 0.6692913385826772,
                    "duration": 0.9979166666666686
                },
                {
                    "name": "A#1",
                    "midi": 34,
                    "time": 235.50000000000006,
                    "velocity": 0.5354330708661418,
                    "duration": 0.24791666666666856
                },
                {
                    "name": "B1",
                    "midi": 35,
                    "time": 235.75000000000006,
                    "velocity": 0.6692913385826772,
                    "duration": 0.24791666666666856
                },
                {
                    "name": "C3",
                    "midi": 48,
                    "time": 236.00000000000006,
                    "velocity": 0.7401574803149606,
                    "duration": 0.24791666666666856
                },
                {
                    "name": "C2",
                    "midi": 36,
                    "time": 236.25000000000006,
                    "velocity": 0.6692913385826772,
                    "duration": 0.24791666666666856
                },
                {
                    "name": "G#3",
                    "midi": 56,
                    "time": 236.50000000000006,
                    "velocity": 0.6456692913385826,
                    "duration": 0.49791666666666856
                },
                {
                    "name": "B1",
                    "midi": 35,
                    "time": 236.50000000000006,
                    "velocity": 0.6692913385826772,
                    "duration": 0.24791666666666856
                },
                {
                    "name": "C2",
                    "midi": 36,
                    "time": 236.75000000000006,
                    "velocity": 0.6692913385826772,
                    "duration": 0.24791666666666856
                },
                {
                    "name": "G3",
                    "midi": 55,
                    "time": 237.00000000000006,
                    "velocity": 0.6535433070866141,
                    "duration": 0.49791666666666856
                },
                {
                    "name": "C#3",
                    "midi": 49,
                    "time": 237.00000000000006,
                    "velocity": 0.6692913385826772,
                    "duration": 0.24791666666666856
                },
                {
                    "name": "C#2",
                    "midi": 37,
                    "time": 237.25000000000006,
                    "velocity": 0.6535433070866141,
                    "duration": 0.24791666666666856
                },
                {
                    "name": "G#3",
                    "midi": 56,
                    "time": 237.50000000000006,
                    "velocity": 0.5905511811023622,
                    "duration": 0.49791666666666856
                },
                {
                    "name": "C2",
                    "midi": 36,
                    "time": 237.50000000000006,
                    "velocity": 0.6456692913385826,
                    "duration": 0.24791666666666856
                },
                {
                    "name": "C#2",
                    "midi": 37,
                    "time": 237.75000000000006,
                    "velocity": 0.5748031496062992,
                    "duration": 0.24791666666666856
                },
                {
                    "name": "G#4",
                    "midi": 68,
                    "time": 238.00000000000006,
                    "velocity": 0.6062992125984252,
                    "duration": 0.49791666666666856
                },
                {
                    "name": "D3",
                    "midi": 50,
                    "time": 238.00000000000006,
                    "velocity": 0.7401574803149606,
                    "duration": 0.24791666666666856
                },
                {
                    "name": "D2",
                    "midi": 38,
                    "time": 238.25000000000006,
                    "velocity": 0.6535433070866141,
                    "duration": 0.24791666666666856
                },
                {
                    "name": "G#3",
                    "midi": 56,
                    "time": 238.50000000000006,
                    "velocity": 0.6692913385826772,
                    "duration": 1.2479166666666686
                },
                {
                    "name": "C#2",
                    "midi": 37,
                    "time": 238.50000000000006,
                    "velocity": 0.6141732283464567,
                    "duration": 0.24791666666666856
                },
                {
                    "name": "D2",
                    "midi": 38,
                    "time": 238.75000000000006,
                    "velocity": 0.6929133858267716,
                    "duration": 0.24791666666666856
                },
                {
                    "name": "D#2",
                    "midi": 39,
                    "time": 239.00000000000006,
                    "velocity": 0.5905511811023622,
                    "duration": 0.24791666666666856
                },
                {
                    "name": "G#2",
                    "midi": 44,
                    "time": 239.25000000000006,
                    "velocity": 0.6692913385826772,
                    "duration": 0.49791666666666856
                },
                {
                    "name": "A3",
                    "midi": 57,
                    "time": 239.87500000000006,
                    "velocity": 0.8740157480314961,
                    "duration": 0.12291666666666856
                },
                {
                    "name": "D2",
                    "midi": 38,
                    "time": 240.00000000000006,
                    "velocity": 0.5196850393700787,
                    "duration": 0.49791666666666856
                },
                {
                    "name": "A2",
                    "midi": 45,
                    "time": 240.00000000000006,
                    "velocity": 0.8503937007874016,
                    "duration": 0.24791666666666856
                },
                {
                    "name": "F4",
                    "midi": 65,
                    "time": 240.12500000000006,
                    "velocity": 0.5511811023622047,
                    "duration": 0.12291666666666856
                },
                {
                    "name": "A4",
                    "midi": 69,
                    "time": 240.25000000000006,
                    "velocity": 0.6456692913385826,
                    "duration": 0.12291666666666856
                },
                {
                    "name": "D3",
                    "midi": 50,
                    "time": 240.25000000000006,
                    "velocity": 0.7322834645669292,
                    "duration": 0.24791666666666856
                },
                {
                    "name": "F4",
                    "midi": 65,
                    "time": 240.37500000000006,
                    "velocity": 0.5511811023622047,
                    "duration": 0.12291666666666856
                },
                {
                    "name": "A4",
                    "midi": 69,
                    "time": 240.50000000000006,
                    "velocity": 0.5905511811023622,
                    "duration": 0.12291666666666856
                },
                {
                    "name": "F3",
                    "midi": 53,
                    "time": 240.50000000000006,
                    "velocity": 0.8661417322834646,
                    "duration": 0.7479166666666686
                },
                {
                    "name": "F4",
                    "midi": 65,
                    "time": 240.62500000000006,
                    "velocity": 0.5039370078740157,
                    "duration": 0.12291666666666856
                },
                {
                    "name": "A4",
                    "midi": 69,
                    "time": 240.75000000000006,
                    "velocity": 0.5590551181102362,
                    "duration": 0.12291666666666856
                },
                {
                    "name": "F4",
                    "midi": 65,
                    "time": 240.87500000000006,
                    "velocity": 0.5590551181102362,
                    "duration": 0.12291666666666856
                },
                {
                    "name": "C2",
                    "midi": 36,
                    "time": 241.00000000000006,
                    "velocity": 0.6850393700787402,
                    "duration": 0.49791666666666856
                },
                {
                    "name": "E4",
                    "midi": 64,
                    "time": 241.12500000000006,
                    "velocity": 0.5118110236220472,
                    "duration": 0.12291666666666856
                },
                {
                    "name": "A4",
                    "midi": 69,
                    "time": 241.25000000000006,
                    "velocity": 0.5669291338582677,
                    "duration": 0.12291666666666856
                },
                {
                    "name": "E3",
                    "midi": 52,
                    "time": 241.25000000000006,
                    "velocity": 0.8267716535433071,
                    "duration": 0.24791666666666856
                },
                {
                    "name": "E4",
                    "midi": 64,
                    "time": 241.37500000000006,
                    "velocity": 0.5669291338582677,
                    "duration": 0.12291666666666856
                },
                {
                    "name": "A4",
                    "midi": 69,
                    "time": 241.50000000000006,
                    "velocity": 0.5511811023622047,
                    "duration": 0.12291666666666856
                },
                {
                    "name": "G3",
                    "midi": 55,
                    "time": 241.50000000000006,
                    "velocity": 0.8346456692913385,
                    "duration": 0.7479166666666686
                },
                {
                    "name": "E4",
                    "midi": 64,
                    "time": 241.62500000000006,
                    "velocity": 0.5590551181102362,
                    "duration": 0.12291666666666856
                },
                {
                    "name": "F3",
                    "midi": 53,
                    "time": 241.75000000000006,
                    "velocity": 0.5275590551181102,
                    "duration": 0.24791666666666856
                },
                {
                    "name": "A4",
                    "midi": 69,
                    "time": 241.75000000000006,
                    "velocity": 0.5905511811023622,
                    "duration": 0.12291666666666856
                },
                {
                    "name": "E4",
                    "midi": 64,
                    "time": 241.87500000000006,
                    "velocity": 0.49606299212598426,
                    "duration": 0.12291666666666856
                },
                {
                    "name": "E3",
                    "midi": 52,
                    "time": 242.00000000000006,
                    "velocity": 0.5590551181102362,
                    "duration": 0.24791666666666856
                },
                {
                    "name": "B1",
                    "midi": 35,
                    "time": 242.00000000000006,
                    "velocity": 0.6456692913385826,
                    "duration": 0.49791666666666856
                },
                {
                    "name": "F4",
                    "midi": 65,
                    "time": 242.12500000000006,
                    "velocity": 0.6141732283464567,
                    "duration": 0.12291666666666856
                },
                {
                    "name": "C#3",
                    "midi": 49,
                    "time": 242.25000000000006,
                    "velocity": 0.5748031496062992,
                    "duration": 0.24791666666666856
                },
                {
                    "name": "A4",
                    "midi": 69,
                    "time": 242.25000000000006,
                    "velocity": 0.6062992125984252,
                    "duration": 0.12291666666666856
                },
                {
                    "name": "F3",
                    "midi": 53,
                    "time": 242.25000000000006,
                    "velocity": 0.8031496062992126,
                    "duration": 0.24791666666666856
                },
                {
                    "name": "F4",
                    "midi": 65,
                    "time": 242.37500000000006,
                    "velocity": 0.5118110236220472,
                    "duration": 0.12291666666666856
                },
                {
                    "name": "D3",
                    "midi": 50,
                    "time": 242.50000000000006,
                    "velocity": 0.6456692913385826,
                    "duration": 0.24791666666666856
                },
                {
                    "name": "A4",
                    "midi": 69,
                    "time": 242.50000000000006,
                    "velocity": 0.5511811023622047,
                    "duration": 0.12291666666666856
                },
                {
                    "name": "A3",
                    "midi": 57,
                    "time": 242.50000000000006,
                    "velocity": 0.8346456692913385,
                    "duration": 0.7479166666666686
                },
                {
                    "name": "F4",
                    "midi": 65,
                    "time": 242.62500000000006,
                    "velocity": 0.44881889763779526,
                    "duration": 0.12291666666666856
                },
                {
                    "name": "F3",
                    "midi": 53,
                    "time": 242.75000000000006,
                    "velocity": 0.5590551181102362,
                    "duration": 0.24791666666666856
                },
                {
                    "name": "A4",
                    "midi": 69,
                    "time": 242.75000000000006,
                    "velocity": 0.5511811023622047,
                    "duration": 0.12291666666666856
                },
                {
                    "name": "F4",
                    "midi": 65,
                    "time": 242.87500000000006,
                    "velocity": 0.48031496062992124,
                    "duration": 0.12291666666666856
                },
                {
                    "name": "G3",
                    "midi": 55,
                    "time": 243.00000000000006,
                    "velocity": 0.5748031496062992,
                    "duration": 0.49791666666666856
                },
                {
                    "name": "A#1",
                    "midi": 34,
                    "time": 243.00000000000006,
                    "velocity": 0.6299212598425197,
                    "duration": 0.49791666666666856
                },
                {
                    "name": "E4",
                    "midi": 64,
                    "time": 243.12500000000006,
                    "velocity": 0.5118110236220472,
                    "duration": 0.12291666666666856
                },
                {
                    "name": "G4",
                    "midi": 67,
                    "time": 243.25000000000006,
                    "velocity": 0.5275590551181102,
                    "duration": 0.12291666666666856
                },
                {
                    "name": "G3",
                    "midi": 55,
                    "time": 243.25000000000006,
                    "velocity": 0.8346456692913385,
                    "duration": 0.24791666666666856
                },
                {
                    "name": "E4",
                    "midi": 64,
                    "time": 243.37500000000006,
                    "velocity": 0.49606299212598426,
                    "duration": 0.12291666666666856
                },
                {
                    "name": "F#3",
                    "midi": 54,
                    "time": 243.50000000000006,
                    "velocity": 0.5905511811023622,
                    "duration": 0.49791666666666856
                },
                {
                    "name": "G4",
                    "midi": 67,
                    "time": 243.50000000000006,
                    "velocity": 0.6062992125984252,
                    "duration": 0.12291666666666856
                },
                {
                    "name": "A#3",
                    "midi": 58,
                    "time": 243.50000000000006,
                    "velocity": 0.7716535433070866,
                    "duration": 0.7479166666666686
                },
                {
                    "name": "E4",
                    "midi": 64,
                    "time": 243.62500000000006,
                    "velocity": 0.5354330708661418,
                    "duration": 0.12291666666666856
                },
                {
                    "name": "G4",
                    "midi": 67,
                    "time": 243.75000000000006,
                    "velocity": 0.6299212598425197,
                    "duration": 0.12291666666666856
                },
                {
                    "name": "E4",
                    "midi": 64,
                    "time": 243.87500000000006,
                    "velocity": 0.5196850393700787,
                    "duration": 0.12291666666666856
                },
                {
                    "name": "F3",
                    "midi": 53,
                    "time": 244.00000000000006,
                    "velocity": 0.5669291338582677,
                    "duration": 0.49791666666666856
                },
                {
                    "name": "A1",
                    "midi": 33,
                    "time": 244.00000000000006,
                    "velocity": 0.6850393700787402,
                    "duration": 0.49791666666666856
                },
                {
                    "name": "C4",
                    "midi": 60,
                    "time": 244.12500000000006,
                    "velocity": 0.6456692913385826,
                    "duration": 0.12291666666666856
                },
                {
                    "name": "A4",
                    "midi": 69,
                    "time": 244.25000000000006,
                    "velocity": 0.5354330708661418,
                    "duration": 0.12291666666666856
                },
                {
                    "name": "A3",
                    "midi": 57,
                    "time": 244.25000000000006,
                    "velocity": 0.8188976377952756,
                    "duration": 0.24791666666666856
                },
                {
                    "name": "C4",
                    "midi": 60,
                    "time": 244.37500000000006,
                    "velocity": 0.5984251968503937,
                    "duration": 0.12291666666666856
                },
                {
                    "name": "E3",
                    "midi": 52,
                    "time": 244.50000000000006,
                    "velocity": 0.5511811023622047,
                    "duration": 0.49791666666666856
                },
                {
                    "name": "A4",
                    "midi": 69,
                    "time": 244.50000000000006,
                    "velocity": 0.5039370078740157,
                    "duration": 0.12291666666666856
                },
                {
                    "name": "C4",
                    "midi": 60,
                    "time": 244.50000000000006,
                    "velocity": 0.8346456692913385,
                    "duration": 0.24791666666666856
                },
                {
                    "name": "C4",
                    "midi": 60,
                    "time": 244.62500000000006,
                    "velocity": 0.5748031496062992,
                    "duration": 0.37291666666666856
                },
                {
                    "name": "A4",
                    "midi": 69,
                    "time": 244.75000000000006,
                    "velocity": 0.5354330708661418,
                    "duration": 0.12291666666666856
                },
                {
                    "name": "C4",
                    "midi": 60,
                    "time": 244.87500000000006,
                    "velocity": 0.5275590551181102,
                    "duration": 0.37291666666666856
                },
                {
                    "name": "D#3",
                    "midi": 51,
                    "time": 245.00000000000006,
                    "velocity": 0.49606299212598426,
                    "duration": 0.49791666666666856
                },
                {
                    "name": "G1",
                    "midi": 31,
                    "time": 245.00000000000006,
                    "velocity": 0.5984251968503937,
                    "duration": 0.49791666666666856
                },
                {
                    "name": "D4",
                    "midi": 62,
                    "time": 245.12500000000006,
                    "velocity": 0.4645669291338583,
                    "duration": 0.12291666666666856
                },
                {
                    "name": "A#4",
                    "midi": 70,
                    "time": 245.25000000000006,
                    "velocity": 0.4881889763779528,
                    "duration": 0.12291666666666856
                },
                {
                    "name": "A#3",
                    "midi": 58,
                    "time": 245.25000000000006,
                    "velocity": 0.8346456692913385,
                    "duration": 0.24791666666666856
                },
                {
                    "name": "D4",
                    "midi": 62,
                    "time": 245.37500000000006,
                    "velocity": 0.5354330708661418,
                    "duration": 0.12291666666666856
                },
                {
                    "name": "A#4",
                    "midi": 70,
                    "time": 245.50000000000006,
                    "velocity": 0.6141732283464567,
                    "duration": 0.12291666666666856
                },
                {
                    "name": "D3",
                    "midi": 50,
                    "time": 245.50000000000006,
                    "velocity": 0.7401574803149606,
                    "duration": 0.24791666666666856
                },
                {
                    "name": "D4",
                    "midi": 62,
                    "time": 245.50000000000006,
                    "velocity": 0.905511811023622,
                    "duration": 0.24791666666666856
                },
                {
                    "name": "D4",
                    "midi": 62,
                    "time": 245.62500000000006,
                    "velocity": 0.6062992125984252,
                    "duration": 0.6229166666666686
                },
                {
                    "name": "A#4",
                    "midi": 70,
                    "time": 245.75000000000006,
                    "velocity": 0.6062992125984252,
                    "duration": 0.12291666666666856
                },
                {
                    "name": "F3",
                    "midi": 53,
                    "time": 245.75000000000006,
                    "velocity": 0.7165354330708661,
                    "duration": 0.24791666666666856
                },
                {
                    "name": "D4",
                    "midi": 62,
                    "time": 245.87500000000006,
                    "velocity": 0.5905511811023622,
                    "duration": 0.37291666666666856
                },
                {
                    "name": "A#3",
                    "midi": 58,
                    "time": 246.00000000000006,
                    "velocity": 0.7086614173228346,
                    "duration": 0.24791666666666856
                },
                {
                    "name": "F2",
                    "midi": 41,
                    "time": 246.00000000000006,
                    "velocity": 0.6535433070866141,
                    "duration": 0.12291666666666856
                },
                {
                    "name": "C4",
                    "midi": 60,
                    "time": 246.25000000000006,
                    "velocity": 0.7165354330708661,
                    "duration": 0.24791666666666856
                },
                {
                    "name": "E2",
                    "midi": 40,
                    "time": 246.25000000000006,
                    "velocity": 0.7322834645669292,
                    "duration": 0.12291666666666856
                },
                {
                    "name": "G2",
                    "midi": 43,
                    "time": 246.25000000000006,
                    "velocity": 0.7401574803149606,
                    "duration": 0.12291666666666856
                },
                {
                    "name": "E4",
                    "midi": 64,
                    "time": 246.25000000000006,
                    "velocity": 0.7795275590551181,
                    "duration": 0.24791666666666856
                },
                {
                    "name": "D4",
                    "midi": 62,
                    "time": 246.50000000000006,
                    "velocity": 0.6929133858267716,
                    "duration": 0.24791666666666856
                },
                {
                    "name": "F2",
                    "midi": 41,
                    "time": 246.50000000000006,
                    "velocity": 0.6929133858267716,
                    "duration": 0.12291666666666856
                },
                {
                    "name": "D2",
                    "midi": 38,
                    "time": 246.50000000000006,
                    "velocity": 0.7244094488188977,
                    "duration": 0.12291666666666856
                },
                {
                    "name": "F4",
                    "midi": 65,
                    "time": 246.50000000000006,
                    "velocity": 0.8818897637795275,
                    "duration": 0.24791666666666856
                },
                {
                    "name": "E2",
                    "midi": 40,
                    "time": 246.75000000000006,
                    "velocity": 0.6771653543307087,
                    "duration": 0.12291666666666856
                },
                {
                    "name": "C2",
                    "midi": 36,
                    "time": 246.75000000000006,
                    "velocity": 0.6850393700787402,
                    "duration": 0.12291666666666856
                },
                {
                    "name": "D4",
                    "midi": 62,
                    "time": 246.87500000000006,
                    "velocity": 0.7401574803149606,
                    "duration": 0.12291666666666856
                },
                {
                    "name": "D5",
                    "midi": 74,
                    "time": 246.87500000000006,
                    "velocity": 0.8582677165354331,
                    "duration": 0.12291666666666856
                },
                {
                    "name": "D#2",
                    "midi": 39,
                    "time": 247.00000000000006,
                    "velocity": 0.6771653543307087,
                    "duration": 0.12291666666666856
                },
                {
                    "name": "B1",
                    "midi": 35,
                    "time": 247.00000000000006,
                    "velocity": 0.7322834645669292,
                    "duration": 0.12291666666666856
                },
                {
                    "name": "C#4",
                    "midi": 61,
                    "time": 247.00000000000006,
                    "velocity": 0.7322834645669292,
                    "duration": 0.24791666666666856
                },
                {
                    "name": "A4",
                    "midi": 69,
                    "time": 247.00000000000006,
                    "velocity": 0.8582677165354331,
                    "duration": 0.24791666666666856
                },
                {
                    "name": "A3",
                    "midi": 57,
                    "time": 247.00000000000006,
                    "velocity": 0.7086614173228346,
                    "duration": 0.24791666666666856
                },
                {
                    "name": "D#4",
                    "midi": 63,
                    "time": 247.00000000000006,
                    "velocity": 0.7086614173228346,
                    "duration": 0.24791666666666856
                },
                {
                    "name": "A3",
                    "midi": 57,
                    "time": 247.25000000000006,
                    "velocity": 0.6929133858267716,
                    "duration": 0.24791666666666856
                },
                {
                    "name": "D2",
                    "midi": 38,
                    "time": 247.50000000000006,
                    "velocity": 0.7952755905511811,
                    "duration": 0.49791666666666856
                },
                {
                    "name": "A#1",
                    "midi": 34,
                    "time": 247.50000000000006,
                    "velocity": 0.7401574803149606,
                    "duration": 0.49791666666666856
                },
                {
                    "name": "A6",
                    "midi": 93,
                    "time": 247.50000000000006,
                    "velocity": 0.7952755905511811,
                    "duration": 0.49791666666666856
                },
                {
                    "name": "A5",
                    "midi": 81,
                    "time": 247.50000000000006,
                    "velocity": 0.7952755905511811,
                    "duration": 0.49791666666666856
                },
                {
                    "name": "C#2",
                    "midi": 37,
                    "time": 248.00000000000006,
                    "velocity": 0.7559055118110236,
                    "duration": 0.49791666666666856
                },
                {
                    "name": "A1",
                    "midi": 33,
                    "time": 248.00000000000006,
                    "velocity": 0.7559055118110236,
                    "duration": 0.49791666666666856
                },
                {
                    "name": "C#5",
                    "midi": 73,
                    "time": 248.00000000000006,
                    "velocity": 0.7244094488188977,
                    "duration": 0.24791666666666856
                },
                {
                    "name": "A4",
                    "midi": 69,
                    "time": 248.00000000000006,
                    "velocity": 0.7322834645669292,
                    "duration": 0.24791666666666856
                },
                {
                    "name": "A5",
                    "midi": 81,
                    "time": 248.00000000000006,
                    "velocity": 0.8110236220472441,
                    "duration": 0.24791666666666856
                },
                {
                    "name": "E5",
                    "midi": 76,
                    "time": 248.00000000000006,
                    "velocity": 0.7637795275590551,
                    "duration": 0.24791666666666856
                },
                {
                    "name": "C#5",
                    "midi": 73,
                    "time": 248.25000000000006,
                    "velocity": 0.6692913385826772,
                    "duration": 0.12291666666666856
                },
                {
                    "name": "A4",
                    "midi": 69,
                    "time": 248.25000000000006,
                    "velocity": 0.6850393700787402,
                    "duration": 0.12291666666666856
                },
                {
                    "name": "A5",
                    "midi": 81,
                    "time": 248.25000000000006,
                    "velocity": 0.8110236220472441,
                    "duration": 0.12291666666666856
                },
                {
                    "name": "E5",
                    "midi": 76,
                    "time": 248.25000000000006,
                    "velocity": 0.7637795275590551,
                    "duration": 0.12291666666666856
                },
                {
                    "name": "A3",
                    "midi": 57,
                    "time": 248.50000000000006,
                    "velocity": 0.8110236220472441,
                    "duration": 0.7479166666666686
                },
                {
                    "name": "D3",
                    "midi": 50,
                    "time": 248.75000000000006,
                    "velocity": 0.8582677165354331,
                    "duration": 0.09166666666666856
                },
                {
                    "name": "F3",
                    "midi": 53,
                    "time": 248.75000000000006,
                    "velocity": 0.7637795275590551,
                    "duration": 0.09166666666666856
                },
                {
                    "name": "E3",
                    "midi": 52,
                    "time": 249.00000000000006,
                    "velocity": 0.7322834645669292,
                    "duration": 0.7479166666666686
                },
                {
                    "name": "A2",
                    "midi": 45,
                    "time": 249.00000000000006,
                    "velocity": 0.7637795275590551,
                    "duration": 0.7479166666666686
                },
                {
                    "name": "A5",
                    "midi": 81,
                    "time": 249.25000000000006,
                    "velocity": 0.8110236220472441,
                    "duration": 0.12291666666666856
                },
                {
                    "name": "A4",
                    "midi": 69,
                    "time": 249.25000000000006,
                    "velocity": 0.7716535433070866,
                    "duration": 0.12291666666666856
                },
                {
                    "name": "B3",
                    "midi": 59,
                    "time": 249.50000000000006,
                    "velocity": 0.7637795275590551,
                    "duration": 0.7479166666666686
                },
                {
                    "name": "A3",
                    "midi": 57,
                    "time": 249.50000000000006,
                    "velocity": 0.7322834645669292,
                    "duration": 0.7479166666666686
                },
                {
                    "name": "F3",
                    "midi": 53,
                    "time": 249.75000000000006,
                    "velocity": 0.7401574803149606,
                    "duration": 0.09166666666666856
                },
                {
                    "name": "D3",
                    "midi": 50,
                    "time": 249.75000000000006,
                    "velocity": 0.7637795275590551,
                    "duration": 0.09166666666666856
                },
                {
                    "name": "A2",
                    "midi": 45,
                    "time": 250.00000000000006,
                    "velocity": 0.7401574803149606,
                    "duration": 0.7479166666666686
                },
                {
                    "name": "E3",
                    "midi": 52,
                    "time": 250.00000000000006,
                    "velocity": 0.6771653543307087,
                    "duration": 0.7479166666666686
                },
                {
                    "name": "A5",
                    "midi": 81,
                    "time": 250.25000000000006,
                    "velocity": 0.8818897637795275,
                    "duration": 0.12291666666666856
                },
                {
                    "name": "A4",
                    "midi": 69,
                    "time": 250.25000000000006,
                    "velocity": 0.7795275590551181,
                    "duration": 0.12291666666666856
                },
                {
                    "name": "A3",
                    "midi": 57,
                    "time": 250.50000000000006,
                    "velocity": 0.7559055118110236,
                    "duration": 0.49791666666666856
                },
                {
                    "name": "C#4",
                    "midi": 61,
                    "time": 250.50000000000006,
                    "velocity": 0.7322834645669292,
                    "duration": 0.49791666666666856
                },
                {
                    "name": "G1",
                    "midi": 31,
                    "time": 251.00000000000006,
                    "velocity": 0.9133858267716536,
                    "duration": 1
                },
                {
                    "name": "A#1",
                    "midi": 34,
                    "time": 251.00000000000006,
                    "velocity": 0.8110236220472441,
                    "duration": 1
                },
                {
                    "name": "D2",
                    "midi": 38,
                    "time": 251.00000000000006,
                    "velocity": 0.8503937007874016,
                    "duration": 1
                },
                {
                    "name": "D6",
                    "midi": 86,
                    "time": 252.25000000000006,
                    "velocity": 0.9133858267716536,
                    "duration": 0.24791666666666856
                },
                {
                    "name": "D5",
                    "midi": 74,
                    "time": 252.25000000000006,
                    "velocity": 0.8582677165354331,
                    "duration": 0.24791666666666856
                },
                {
                    "name": "D4",
                    "midi": 62,
                    "time": 252.50000000000006,
                    "velocity": 0.8818897637795275,
                    "duration": 0.7479166666666686
                },
                {
                    "name": "G3",
                    "midi": 55,
                    "time": 252.75000000000006,
                    "velocity": 0.8582677165354331,
                    "duration": 0.09166666666666856
                },
                {
                    "name": "A#3",
                    "midi": 58,
                    "time": 252.75000000000006,
                    "velocity": 0.7952755905511811,
                    "duration": 0.09166666666666856
                },
                {
                    "name": "D3",
                    "midi": 50,
                    "time": 253.00000000000006,
                    "velocity": 0.889763779527559,
                    "duration": 0.7479166666666686
                },
                {
                    "name": "A3",
                    "midi": 57,
                    "time": 253.00000000000006,
                    "velocity": 0.7559055118110236,
                    "duration": 0.7479166666666686
                },
                {
                    "name": "D6",
                    "midi": 86,
                    "time": 253.25000000000006,
                    "velocity": 0.8740157480314961,
                    "duration": 0.12291666666666856
                },
                {
                    "name": "D5",
                    "midi": 74,
                    "time": 253.25000000000006,
                    "velocity": 0.7086614173228346,
                    "duration": 0.12291666666666856
                },
                {
                    "name": "E4",
                    "midi": 64,
                    "time": 253.50000000000006,
                    "velocity": 0.8740157480314961,
                    "duration": 0.7479166666666686
                },
                {
                    "name": "D4",
                    "midi": 62,
                    "time": 253.50000000000006,
                    "velocity": 0.889763779527559,
                    "duration": 0.7479166666666686
                },
                {
                    "name": "A#3",
                    "midi": 58,
                    "time": 253.75000000000006,
                    "velocity": 0.7952755905511811,
                    "duration": 0.09166666666666856
                },
                {
                    "name": "G3",
                    "midi": 55,
                    "time": 253.75000000000006,
                    "velocity": 0.8346456692913385,
                    "duration": 0.09166666666666856
                },
                {
                    "name": "A3",
                    "midi": 57,
                    "time": 254.00000000000006,
                    "velocity": 0.6141732283464567,
                    "duration": 0.7479166666666686
                },
                {
                    "name": "D3",
                    "midi": 50,
                    "time": 254.00000000000006,
                    "velocity": 0.7322834645669292,
                    "duration": 0.7479166666666686
                },
                {
                    "name": "D6",
                    "midi": 86,
                    "time": 254.25000000000006,
                    "velocity": 0.9763779527559056,
                    "duration": 0.12291666666666856
                },
                {
                    "name": "D5",
                    "midi": 74,
                    "time": 254.25000000000006,
                    "velocity": 0.889763779527559,
                    "duration": 0.12291666666666856
                },
                {
                    "name": "D4",
                    "midi": 62,
                    "time": 254.50000000000006,
                    "velocity": 0.889763779527559,
                    "duration": 0.49791666666666856
                },
                {
                    "name": "F#4",
                    "midi": 66,
                    "time": 254.50000000000006,
                    "velocity": 0.8503937007874016,
                    "duration": 0.49791666666666856
                },
                {
                    "name": "C2",
                    "midi": 36,
                    "time": 255.00000000000006,
                    "velocity": 0.889763779527559,
                    "duration": 2.49791666666664
                },
                {
                    "name": "G2",
                    "midi": 43,
                    "time": 255.00000000000006,
                    "velocity": 0.8740157480314961,
                    "duration": 2.49791666666664
                },
                {
                    "name": "G3",
                    "midi": 55,
                    "time": 255.00000000000006,
                    "velocity": 0.8740157480314961,
                    "duration": 2.49791666666664
                },
                {
                    "name": "D#3",
                    "midi": 51,
                    "time": 255.00000000000006,
                    "velocity": 0.8818897637795275,
                    "duration": 2.49791666666664
                },
                {
                    "name": "C2",
                    "midi": 36,
                    "time": 257.50000000000006,
                    "velocity": 0.6692913385826772,
                    "duration": 0.49791666666664014
                },
                {
                    "name": "F#2",
                    "midi": 42,
                    "time": 257.50000000000006,
                    "velocity": 0.6535433070866141,
                    "duration": 0.49791666666664014
                },
                {
                    "name": "D#3",
                    "midi": 51,
                    "time": 257.50000000000006,
                    "velocity": 0.6850393700787402,
                    "duration": 0.49791666666664014
                },
                {
                    "name": "G#3",
                    "midi": 56,
                    "time": 257.50000000000006,
                    "velocity": 0.6062992125984252,
                    "duration": 0.49791666666664014
                },
                {
                    "name": "E6",
                    "midi": 88,
                    "time": 258.00000000000006,
                    "velocity": 0.7086614173228346,
                    "duration": 0.24791666666664014
                },
                {
                    "name": "A4",
                    "midi": 69,
                    "time": 258.00000000000006,
                    "velocity": 0.5039370078740157,
                    "duration": 0.49791666666664014
                },
                {
                    "name": "C5",
                    "midi": 72,
                    "time": 258.00000000000006,
                    "velocity": 0.4881889763779528,
                    "duration": 0.49791666666664014
                },
                {
                    "name": "A1",
                    "midi": 33,
                    "time": 258.00000000000006,
                    "velocity": 0.6377952755905512,
                    "duration": 1.9979166666666401
                },
                {
                    "name": "E2",
                    "midi": 40,
                    "time": 258.00000000000006,
                    "velocity": 0.5669291338582677,
                    "duration": 1.9979166666666401
                },
                {
                    "name": "E5",
                    "midi": 76,
                    "time": 258.25000000000006,
                    "velocity": 0.5511811023622047,
                    "duration": 0.24791666666664014
                },
                {
                    "name": "D#5",
                    "midi": 75,
                    "time": 258.50000000000006,
                    "velocity": 0.6377952755905512,
                    "duration": 0.24791666666664014
                },
                {
                    "name": "E4",
                    "midi": 64,
                    "time": 258.50000000000006,
                    "velocity": 0.47244094488188976,
                    "duration": 0.49791666666664014
                },
                {
                    "name": "B4",
                    "midi": 71,
                    "time": 258.50000000000006,
                    "velocity": 0.6062992125984252,
                    "duration": 0.49791666666664014
                },
                {
                    "name": "E5",
                    "midi": 76,
                    "time": 258.75000000000006,
                    "velocity": 0.6535433070866141,
                    "duration": 0.24791666666664014
                },
                {
                    "name": "G#3",
                    "midi": 56,
                    "time": 259.00000000000006,
                    "velocity": 0.12598425196850394,
                    "duration": 0.12291666666664014
                },
                {
                    "name": "E6",
                    "midi": 88,
                    "time": 259.00000000000006,
                    "velocity": 0.7322834645669292,
                    "duration": 0.24791666666664014
                },
                {
                    "name": "C5",
                    "midi": 72,
                    "time": 259.00000000000006,
                    "velocity": 0.6062992125984252,
                    "duration": 0.49791666666664014
                },
                {
                    "name": "A4",
                    "midi": 69,
                    "time": 259.00000000000006,
                    "velocity": 0.5984251968503937,
                    "duration": 0.49791666666664014
                },
                {
                    "name": "E5",
                    "midi": 76,
                    "time": 259.25000000000006,
                    "velocity": 0.5669291338582677,
                    "duration": 0.24791666666664014
                },
                {
                    "name": "D#5",
                    "midi": 75,
                    "time": 259.50000000000006,
                    "velocity": 0.5669291338582677,
                    "duration": 0.24791666666664014
                },
                {
                    "name": "E4",
                    "midi": 64,
                    "time": 259.50000000000006,
                    "velocity": 0.49606299212598426,
                    "duration": 0.49791666666664014
                },
                {
                    "name": "B4",
                    "midi": 71,
                    "time": 259.50000000000006,
                    "velocity": 0.5196850393700787,
                    "duration": 0.49791666666664014
                },
                {
                    "name": "E5",
                    "midi": 76,
                    "time": 259.75000000000006,
                    "velocity": 0.5984251968503937,
                    "duration": 0.24791666666664014
                },
                {
                    "name": "E6",
                    "midi": 88,
                    "time": 260.00000000000006,
                    "velocity": 0.7401574803149606,
                    "duration": 0.24791666666664014
                },
                {
                    "name": "C5",
                    "midi": 72,
                    "time": 260.00000000000006,
                    "velocity": 0.5748031496062992,
                    "duration": 0.497916666666697
                },
                {
                    "name": "A4",
                    "midi": 69,
                    "time": 260.00000000000006,
                    "velocity": 0.5748031496062992,
                    "duration": 0.497916666666697
                },
                {
                    "name": "E5",
                    "midi": 76,
                    "time": 260.25000000000006,
                    "velocity": 0.6692913385826772,
                    "duration": 0.24791666666669698
                },
                {
                    "name": "D#5",
                    "midi": 75,
                    "time": 260.5000000000001,
                    "velocity": 0.5984251968503937,
                    "duration": 0.24791666666664014
                },
                {
                    "name": "F#5",
                    "midi": 78,
                    "time": 260.5000000000001,
                    "velocity": 0.4566929133858268,
                    "duration": 0.24791666666664014
                },
                {
                    "name": "E4",
                    "midi": 64,
                    "time": 260.5000000000001,
                    "velocity": 0.5039370078740157,
                    "duration": 0.49791666666664014
                },
                {
                    "name": "B4",
                    "midi": 71,
                    "time": 260.5000000000001,
                    "velocity": 0.6141732283464567,
                    "duration": 0.49791666666664014
                },
                {
                    "name": "E5",
                    "midi": 76,
                    "time": 260.7500000000001,
                    "velocity": 0.4566929133858268,
                    "duration": 0.24791666666664014
                },
                {
                    "name": "G#5",
                    "midi": 80,
                    "time": 260.7500000000001,
                    "velocity": 0.6929133858267716,
                    "duration": 0.24791666666664014
                },
                {
                    "name": "E6",
                    "midi": 88,
                    "time": 261.0000000000001,
                    "velocity": 0.5275590551181102,
                    "duration": 0.24791666666664014
                },
                {
                    "name": "A5",
                    "midi": 81,
                    "time": 261.0000000000001,
                    "velocity": 0.6692913385826772,
                    "duration": 0.24791666666664014
                },
                {
                    "name": "A4",
                    "midi": 69,
                    "time": 261.0000000000001,
                    "velocity": 0.5275590551181102,
                    "duration": 0.49791666666664014
                },
                {
                    "name": "C5",
                    "midi": 72,
                    "time": 261.0000000000001,
                    "velocity": 0.5984251968503937,
                    "duration": 0.49791666666664014
                },
                {
                    "name": "E5",
                    "midi": 76,
                    "time": 261.2500000000001,
                    "velocity": 0.6771653543307087,
                    "duration": 0.24791666666664014
                },
                {
                    "name": "B5",
                    "midi": 83,
                    "time": 261.2500000000001,
                    "velocity": 0.7244094488188977,
                    "duration": 0.24791666666664014
                },
                {
                    "name": "D#5",
                    "midi": 75,
                    "time": 261.5000000000001,
                    "velocity": 0.4645669291338583,
                    "duration": 0.24791666666664014
                },
                {
                    "name": "C6",
                    "midi": 84,
                    "time": 261.5000000000001,
                    "velocity": 0.6377952755905512,
                    "duration": 0.24791666666664014
                },
                {
                    "name": "E4",
                    "midi": 64,
                    "time": 261.5000000000001,
                    "velocity": 0.4330708661417323,
                    "duration": 0.49791666666664014
                },
                {
                    "name": "B4",
                    "midi": 71,
                    "time": 261.5000000000001,
                    "velocity": 0.6141732283464567,
                    "duration": 0.49791666666664014
                },
                {
                    "name": "E5",
                    "midi": 76,
                    "time": 261.7500000000001,
                    "velocity": 0.5354330708661418,
                    "duration": 0.24791666666664014
                },
                {
                    "name": "C#6",
                    "midi": 85,
                    "time": 261.7500000000001,
                    "velocity": 0.7401574803149606,
                    "duration": 0.24791666666664014
                },
                {
                    "name": "D6",
                    "midi": 86,
                    "time": 262.0000000000001,
                    "velocity": 0.6692913385826772,
                    "duration": 0.24791666666664014
                },
                {
                    "name": "F5",
                    "midi": 77,
                    "time": 262.0000000000001,
                    "velocity": 0.4566929133858268,
                    "duration": 0.49791666666664014
                },
                {
                    "name": "G4",
                    "midi": 67,
                    "time": 262.0000000000001,
                    "velocity": 0.5118110236220472,
                    "duration": 0.49791666666664014
                },
                {
                    "name": "A#4",
                    "midi": 70,
                    "time": 262.0000000000001,
                    "velocity": 0.5039370078740157,
                    "duration": 0.49791666666664014
                },
                {
                    "name": "D5",
                    "midi": 74,
                    "time": 262.2500000000001,
                    "velocity": 0.6299212598425197,
                    "duration": 0.24791666666664014
                },
                {
                    "name": "C#5",
                    "midi": 73,
                    "time": 262.5000000000001,
                    "velocity": 0.5748031496062992,
                    "duration": 0.24791666666664014
                },
                {
                    "name": "F#5",
                    "midi": 78,
                    "time": 262.5000000000001,
                    "velocity": 0.6771653543307087,
                    "duration": 0.49791666666664014
                },
                {
                    "name": "D4",
                    "midi": 62,
                    "time": 262.5000000000001,
                    "velocity": 0.3858267716535433,
                    "duration": 0.49791666666664014
                },
                {
                    "name": "A4",
                    "midi": 69,
                    "time": 262.5000000000001,
                    "velocity": 0.6535433070866141,
                    "duration": 0.49791666666664014
                },
                {
                    "name": "D5",
                    "midi": 74,
                    "time": 262.7500000000001,
                    "velocity": 0.5196850393700787,
                    "duration": 0.24791666666664014
                },
                {
                    "name": "D6",
                    "midi": 86,
                    "time": 263.0000000000001,
                    "velocity": 0.7244094488188977,
                    "duration": 0.24791666666664014
                },
                {
                    "name": "G5",
                    "midi": 79,
                    "time": 263.0000000000001,
                    "velocity": 0.48031496062992124,
                    "duration": 0.49791666666664014
                },
                {
                    "name": "G4",
                    "midi": 67,
                    "time": 263.0000000000001,
                    "velocity": 0.4881889763779528,
                    "duration": 0.49791666666664014
                },
                {
                    "name": "A#4",
                    "midi": 70,
                    "time": 263.0000000000001,
                    "velocity": 0.5039370078740157,
                    "duration": 0.49791666666664014
                },
                {
                    "name": "D5",
                    "midi": 74,
                    "time": 263.2500000000001,
                    "velocity": 0.6692913385826772,
                    "duration": 0.24791666666664014
                },
                {
                    "name": "C#5",
                    "midi": 73,
                    "time": 263.5000000000001,
                    "velocity": 0.6299212598425197,
                    "duration": 0.24791666666664014
                },
                {
                    "name": "A5",
                    "midi": 81,
                    "time": 263.5000000000001,
                    "velocity": 0.7165354330708661,
                    "duration": 0.49791666666664014
                },
                {
                    "name": "D4",
                    "midi": 62,
                    "time": 263.5000000000001,
                    "velocity": 0.4566929133858268,
                    "duration": 0.49791666666664014
                },
                {
                    "name": "A4",
                    "midi": 69,
                    "time": 263.5000000000001,
                    "velocity": 0.5118110236220472,
                    "duration": 0.49791666666664014
                },
                {
                    "name": "D5",
                    "midi": 74,
                    "time": 263.7500000000001,
                    "velocity": 0.6692913385826772,
                    "duration": 0.24791666666664014
                },
                {
                    "name": "D6",
                    "midi": 86,
                    "time": 264.0000000000001,
                    "velocity": 0.6377952755905512,
                    "duration": 0.24791666666664014
                },
                {
                    "name": "A#5",
                    "midi": 82,
                    "time": 264.0000000000001,
                    "velocity": 0.5984251968503937,
                    "duration": 0.24791666666664014
                },
                {
                    "name": "A#4",
                    "midi": 70,
                    "time": 264.0000000000001,
                    "velocity": 0.6062992125984252,
                    "duration": 0.49791666666664014
                },
                {
                    "name": "G4",
                    "midi": 67,
                    "time": 264.0000000000001,
                    "velocity": 0.5905511811023622,
                    "duration": 0.49791666666664014
                },
                {
                    "name": "D5",
                    "midi": 74,
                    "time": 264.2500000000001,
                    "velocity": 0.6535433070866141,
                    "duration": 0.24791666666664014
                },
                {
                    "name": "E5",
                    "midi": 76,
                    "time": 264.2500000000001,
                    "velocity": 0.5669291338582677,
                    "duration": 0.24791666666664014
                },
                {
                    "name": "G5",
                    "midi": 79,
                    "time": 264.5000000000001,
                    "velocity": 0.6850393700787402,
                    "duration": 0.24791666666664014
                },
                {
                    "name": "C#5",
                    "midi": 73,
                    "time": 264.5000000000001,
                    "velocity": 0.4566929133858268,
                    "duration": 0.24791666666664014
                },
                {
                    "name": "D4",
                    "midi": 62,
                    "time": 264.5000000000001,
                    "velocity": 0.4566929133858268,
                    "duration": 0.49791666666664014
                },
                {
                    "name": "A4",
                    "midi": 69,
                    "time": 264.5000000000001,
                    "velocity": 0.6141732283464567,
                    "duration": 0.49791666666664014
                },
                {
                    "name": "F#5",
                    "midi": 78,
                    "time": 264.7500000000001,
                    "velocity": 0.6692913385826772,
                    "duration": 0.24791666666664014
                },
                {
                    "name": "D5",
                    "midi": 74,
                    "time": 264.7500000000001,
                    "velocity": 0.44881889763779526,
                    "duration": 0.24791666666664014
                },
                {
                    "name": "A5",
                    "midi": 81,
                    "time": 265.0000000000001,
                    "velocity": 0.5984251968503937,
                    "duration": 0.24791666666664014
                },
                {
                    "name": "D6",
                    "midi": 86,
                    "time": 265.0000000000001,
                    "velocity": 0.6771653543307087,
                    "duration": 0.24791666666664014
                },
                {
                    "name": "A#4",
                    "midi": 70,
                    "time": 265.0000000000001,
                    "velocity": 0.5748031496062992,
                    "duration": 0.49791666666664014
                },
                {
                    "name": "G4",
                    "midi": 67,
                    "time": 265.0000000000001,
                    "velocity": 0.5905511811023622,
                    "duration": 0.49791666666664014
                },
                {
                    "name": "D5",
                    "midi": 74,
                    "time": 265.2500000000001,
                    "velocity": 0.5748031496062992,
                    "duration": 0.24791666666664014
                },
                {
                    "name": "G5",
                    "midi": 79,
                    "time": 265.2500000000001,
                    "velocity": 0.6535433070866141,
                    "duration": 0.24791666666664014
                },
                {
                    "name": "A#5",
                    "midi": 82,
                    "time": 265.5000000000001,
                    "velocity": 0.6535433070866141,
                    "duration": 0.24791666666664014
                },
                {
                    "name": "C#5",
                    "midi": 73,
                    "time": 265.5000000000001,
                    "velocity": 0.5354330708661418,
                    "duration": 0.24791666666664014
                },
                {
                    "name": "D4",
                    "midi": 62,
                    "time": 265.5000000000001,
                    "velocity": 0.4330708661417323,
                    "duration": 0.49791666666664014
                },
                {
                    "name": "A4",
                    "midi": 69,
                    "time": 265.5000000000001,
                    "velocity": 0.5669291338582677,
                    "duration": 0.49791666666664014
                },
                {
                    "name": "A5",
                    "midi": 81,
                    "time": 265.7500000000001,
                    "velocity": 0.6535433070866141,
                    "duration": 0.24791666666664014
                },
                {
                    "name": "D5",
                    "midi": 74,
                    "time": 265.7500000000001,
                    "velocity": 0.5984251968503937,
                    "duration": 0.24791666666664014
                },
                {
                    "name": "C6",
                    "midi": 84,
                    "time": 266.0000000000001,
                    "velocity": 0.6141732283464567,
                    "duration": 0.24791666666664014
                },
                {
                    "name": "G#4",
                    "midi": 68,
                    "time": 266.0000000000001,
                    "velocity": 0.5905511811023622,
                    "duration": 0.49791666666664014
                },
                {
                    "name": "F4",
                    "midi": 65,
                    "time": 266.0000000000001,
                    "velocity": 0.4566929133858268,
                    "duration": 0.49791666666664014
                },
                {
                    "name": "C5",
                    "midi": 72,
                    "time": 266.2500000000001,
                    "velocity": 0.47244094488188976,
                    "duration": 0.24791666666664014
                },
                {
                    "name": "B4",
                    "midi": 71,
                    "time": 266.5000000000001,
                    "velocity": 0.49606299212598426,
                    "duration": 0.24791666666664014
                },
                {
                    "name": "C4",
                    "midi": 60,
                    "time": 266.5000000000001,
                    "velocity": 0.41732283464566927,
                    "duration": 0.49791666666664014
                },
                {
                    "name": "G4",
                    "midi": 67,
                    "time": 266.5000000000001,
                    "velocity": 0.5039370078740157,
                    "duration": 0.49791666666664014
                },
                {
                    "name": "C5",
                    "midi": 72,
                    "time": 266.7500000000001,
                    "velocity": 0.6062992125984252,
                    "duration": 0.24791666666664014
                },
                {
                    "name": "C6",
                    "midi": 84,
                    "time": 267.0000000000001,
                    "velocity": 0.6692913385826772,
                    "duration": 0.24791666666664014
                },
                {
                    "name": "G#4",
                    "midi": 68,
                    "time": 267.0000000000001,
                    "velocity": 0.5748031496062992,
                    "duration": 0.49791666666664014
                },
                {
                    "name": "F4",
                    "midi": 65,
                    "time": 267.0000000000001,
                    "velocity": 0.5590551181102362,
                    "duration": 0.49791666666664014
                },
                {
                    "name": "C5",
                    "midi": 72,
                    "time": 267.2500000000001,
                    "velocity": 0.5118110236220472,
                    "duration": 0.24791666666664014
                },
                {
                    "name": "B4",
                    "midi": 71,
                    "time": 267.5000000000001,
                    "velocity": 0.5984251968503937,
                    "duration": 0.24791666666664014
                },
                {
                    "name": "C4",
                    "midi": 60,
                    "time": 267.5000000000001,
                    "velocity": 0.4566929133858268,
                    "duration": 0.49791666666664014
                },
                {
                    "name": "G4",
                    "midi": 67,
                    "time": 267.5000000000001,
                    "velocity": 0.6141732283464567,
                    "duration": 0.49791666666664014
                },
                {
                    "name": "C5",
                    "midi": 72,
                    "time": 267.7500000000001,
                    "velocity": 0.5669291338582677,
                    "duration": 0.24791666666664014
                },
                {
                    "name": "C6",
                    "midi": 84,
                    "time": 268.0000000000001,
                    "velocity": 0.6850393700787402,
                    "duration": 0.24791666666664014
                },
                {
                    "name": "G#4",
                    "midi": 68,
                    "time": 268.0000000000001,
                    "velocity": 0.5511811023622047,
                    "duration": 0.49791666666664014
                },
                {
                    "name": "F4",
                    "midi": 65,
                    "time": 268.0000000000001,
                    "velocity": 0.5118110236220472,
                    "duration": 0.49791666666664014
                },
                {
                    "name": "C5",
                    "midi": 72,
                    "time": 268.2500000000001,
                    "velocity": 0.5984251968503937,
                    "duration": 0.24791666666664014
                },
                {
                    "name": "B4",
                    "midi": 71,
                    "time": 268.5000000000001,
                    "velocity": 0.5039370078740157,
                    "duration": 0.24791666666664014
                },
                {
                    "name": "D5",
                    "midi": 74,
                    "time": 268.5000000000001,
                    "velocity": 0.6771653543307087,
                    "duration": 0.24791666666664014
                },
                {
                    "name": "G4",
                    "midi": 67,
                    "time": 268.5000000000001,
                    "velocity": 0.48031496062992124,
                    "duration": 0.49791666666664014
                },
                {
                    "name": "C4",
                    "midi": 60,
                    "time": 268.5000000000001,
                    "velocity": 0.44881889763779526,
                    "duration": 0.49791666666664014
                },
                {
                    "name": "C5",
                    "midi": 72,
                    "time": 268.7500000000001,
                    "velocity": 0.6141732283464567,
                    "duration": 0.24791666666664014
                },
                {
                    "name": "E5",
                    "midi": 76,
                    "time": 268.7500000000001,
                    "velocity": 0.7244094488188977,
                    "duration": 0.24791666666664014
                },
                {
                    "name": "F5",
                    "midi": 77,
                    "time": 269.0000000000001,
                    "velocity": 0.6377952755905512,
                    "duration": 0.24791666666664014
                },
                {
                    "name": "C6",
                    "midi": 84,
                    "time": 269.0000000000001,
                    "velocity": 0.6692913385826772,
                    "duration": 0.24791666666664014
                },
                {
                    "name": "G#4",
                    "midi": 68,
                    "time": 269.0000000000001,
                    "velocity": 0.47244094488188976,
                    "duration": 0.49791666666664014
                },
                {
                    "name": "F4",
                    "midi": 65,
                    "time": 269.0000000000001,
                    "velocity": 0.4566929133858268,
                    "duration": 0.49791666666664014
                },
                {
                    "name": "G5",
                    "midi": 79,
                    "time": 269.2500000000001,
                    "velocity": 0.7086614173228346,
                    "duration": 0.24791666666664014
                },
                {
                    "name": "C5",
                    "midi": 72,
                    "time": 269.2500000000001,
                    "velocity": 0.6377952755905512,
                    "duration": 0.24791666666664014
                },
                {
                    "name": "B4",
                    "midi": 71,
                    "time": 269.5000000000001,
                    "velocity": 0.5905511811023622,
                    "duration": 0.24791666666664014
                },
                {
                    "name": "G#5",
                    "midi": 80,
                    "time": 269.5000000000001,
                    "velocity": 0.6692913385826772,
                    "duration": 0.24791666666664014
                },
                {
                    "name": "C4",
                    "midi": 60,
                    "time": 269.5000000000001,
                    "velocity": 0.5196850393700787,
                    "duration": 0.49791666666664014
                },
                {
                    "name": "G4",
                    "midi": 67,
                    "time": 269.5000000000001,
                    "velocity": 0.5669291338582677,
                    "duration": 0.49791666666664014
                },
                {
                    "name": "A5",
                    "midi": 81,
                    "time": 269.7500000000001,
                    "velocity": 0.7322834645669292,
                    "duration": 0.24791666666664014
                },
                {
                    "name": "C5",
                    "midi": 72,
                    "time": 269.7500000000001,
                    "velocity": 0.5669291338582677,
                    "duration": 0.24791666666664014
                },
                {
                    "name": "A#5",
                    "midi": 82,
                    "time": 270.0000000000001,
                    "velocity": 0.6771653543307087,
                    "duration": 0.24791666666664014
                },
                {
                    "name": "C#5",
                    "midi": 73,
                    "time": 270.0000000000001,
                    "velocity": 0.5984251968503937,
                    "duration": 0.49791666666664014
                },
                {
                    "name": "F#4",
                    "midi": 66,
                    "time": 270.0000000000001,
                    "velocity": 0.5590551181102362,
                    "duration": 0.49791666666664014
                },
                {
                    "name": "D#4",
                    "midi": 63,
                    "time": 270.0000000000001,
                    "velocity": 0.4409448818897638,
                    "duration": 0.49791666666664014
                },
                {
                    "name": "A#4",
                    "midi": 70,
                    "time": 270.2500000000001,
                    "velocity": 0.6456692913385826,
                    "duration": 0.24791666666664014
                },
                {
                    "name": "A4",
                    "midi": 69,
                    "time": 270.5000000000001,
                    "velocity": 0.7165354330708661,
                    "duration": 0.24791666666664014
                },
                {
                    "name": "D5",
                    "midi": 74,
                    "time": 270.5000000000001,
                    "velocity": 0.6850393700787402,
                    "duration": 0.49791666666664014
                },
                {
                    "name": "A#3",
                    "midi": 58,
                    "time": 270.5000000000001,
                    "velocity": 0.3937007874015748,
                    "duration": 0.49791666666664014
                },
                {
                    "name": "F4",
                    "midi": 65,
                    "time": 270.5000000000001,
                    "velocity": 0.3858267716535433,
                    "duration": 0.49791666666664014
                },
                {
                    "name": "A#4",
                    "midi": 70,
                    "time": 270.7500000000001,
                    "velocity": 0.6141732283464567,
                    "duration": 0.24791666666664014
                },
                {
                    "name": "A#5",
                    "midi": 82,
                    "time": 271.0000000000001,
                    "velocity": 0.6535433070866141,
                    "duration": 0.24791666666664014
                },
                {
                    "name": "D#5",
                    "midi": 75,
                    "time": 271.0000000000001,
                    "velocity": 0.6456692913385826,
                    "duration": 0.49791666666664014
                },
                {
                    "name": "D#4",
                    "midi": 63,
                    "time": 271.0000000000001,
                    "velocity": 0.4566929133858268,
                    "duration": 0.49791666666664014
                },
                {
                    "name": "F#4",
                    "midi": 66,
                    "time": 271.0000000000001,
                    "velocity": 0.5118110236220472,
                    "duration": 0.49791666666664014
                },
                {
                    "name": "A#4",
                    "midi": 70,
                    "time": 271.2500000000001,
                    "velocity": 0.5196850393700787,
                    "duration": 0.24791666666664014
                },
                {
                    "name": "A4",
                    "midi": 69,
                    "time": 271.5000000000001,
                    "velocity": 0.5590551181102362,
                    "duration": 0.24791666666664014
                },
                {
                    "name": "F5",
                    "midi": 77,
                    "time": 271.5000000000001,
                    "velocity": 0.5905511811023622,
                    "duration": 0.24791666666664014
                },
                {
                    "name": "A#3",
                    "midi": 58,
                    "time": 271.5000000000001,
                    "velocity": 0.4645669291338583,
                    "duration": 0.49791666666664014
                },
                {
                    "name": "F4",
                    "midi": 65,
                    "time": 271.5000000000001,
                    "velocity": 0.4566929133858268,
                    "duration": 0.49791666666664014
                },
                {
                    "name": "A#4",
                    "midi": 70,
                    "time": 271.7500000000001,
                    "velocity": 0.5905511811023622,
                    "duration": 0.24791666666664014
                },
                {
                    "name": "A#5",
                    "midi": 82,
                    "time": 272.0000000000001,
                    "velocity": 0.6062992125984252,
                    "duration": 0.24791666666669698
                },
                {
                    "name": "F#5",
                    "midi": 78,
                    "time": 272.0000000000001,
                    "velocity": 0.5984251968503937,
                    "duration": 0.24791666666669698
                },
                {
                    "name": "D#4",
                    "midi": 63,
                    "time": 272.0000000000001,
                    "velocity": 0.5039370078740157,
                    "duration": 0.497916666666697
                },
                {
                    "name": "F#4",
                    "midi": 66,
                    "time": 272.0000000000001,
                    "velocity": 0.5669291338582677,
                    "duration": 0.497916666666697
                },
                {
                    "name": "D#5",
                    "midi": 75,
                    "time": 272.25000000000017,
                    "velocity": 0.6377952755905512,
                    "duration": 0.24791666666664014
                },
                {
                    "name": "A#4",
                    "midi": 70,
                    "time": 272.50000000000017,
                    "velocity": 0.5905511811023622,
                    "duration": 0.24791666666664014
                },
                {
                    "name": "F#4",
                    "midi": 66,
                    "time": 272.75000000000017,
                    "velocity": 0.4015748031496063,
                    "duration": 0.24791666666664014
                },
                {
                    "name": "F#4",
                    "midi": 66,
                    "time": 273.00000000000017,
                    "velocity": 0.5905511811023622,
                    "duration": 0.24791666666664014
                },
                {
                    "name": "D#4",
                    "midi": 63,
                    "time": 273.00000000000017,
                    "velocity": 0.5905511811023622,
                    "duration": 0.24791666666664014
                },
                {
                    "name": "A#3",
                    "midi": 58,
                    "time": 273.25000000000017,
                    "velocity": 0.4881889763779528,
                    "duration": 0.24791666666664014
                },
                {
                    "name": "A#4",
                    "midi": 70,
                    "time": 273.25000000000017,
                    "velocity": 0.6141732283464567,
                    "duration": 0.24791666666664014
                },
                {
                    "name": "F#3",
                    "midi": 54,
                    "time": 273.50000000000017,
                    "velocity": 0.6141732283464567,
                    "duration": 0.24791666666664014
                },
                {
                    "name": "C5",
                    "midi": 72,
                    "time": 273.50000000000017,
                    "velocity": 0.6456692913385826,
                    "duration": 0.24791666666664014
                },
                {
                    "name": "F3",
                    "midi": 53,
                    "time": 273.75000000000017,
                    "velocity": 0.5905511811023622,
                    "duration": 0.24791666666664014
                },
                {
                    "name": "C#5",
                    "midi": 73,
                    "time": 273.75000000000017,
                    "velocity": 0.6141732283464567,
                    "duration": 0.24791666666664014
                },
                {
                    "name": "D4",
                    "midi": 62,
                    "time": 274.00000000000017,
                    "velocity": 0.8110236220472441,
                    "duration": 0.747916666666697
                },
                {
                    "name": "D5",
                    "midi": 74,
                    "time": 274.00000000000017,
                    "velocity": 0.7637795275590551,
                    "duration": 0.24791666666669698
                },
                {
                    "name": "D#3",
                    "midi": 51,
                    "time": 274.00000000000017,
                    "velocity": 0.6062992125984252,
                    "duration": 0.24791666666669698
                },
                {
                    "name": "G4",
                    "midi": 67,
                    "time": 274.2500000000002,
                    "velocity": 0.5669291338582677,
                    "duration": 0.24791666666664014
                },
                {
                    "name": "G3",
                    "midi": 55,
                    "time": 274.2500000000002,
                    "velocity": 0.6456692913385826,
                    "duration": 0.24791666666664014
                },
                {
                    "name": "D4",
                    "midi": 62,
                    "time": 274.5000000000002,
                    "velocity": 0.47244094488188976,
                    "duration": 0.5
                },
                {
                    "name": "A#3",
                    "midi": 58,
                    "time": 274.5000000000002,
                    "velocity": 0.5590551181102362,
                    "duration": 0.24791666666664014
                },
                {
                    "name": "G4",
                    "midi": 67,
                    "time": 274.7500000000002,
                    "velocity": 0.4251968503937008,
                    "duration": 0.24791666666664014
                },
                {
                    "name": "G3",
                    "midi": 55,
                    "time": 274.7500000000002,
                    "velocity": 0.5669291338582677,
                    "duration": 0.24791666666664014
                },
                {
                    "name": "C#5",
                    "midi": 73,
                    "time": 275.0000000000002,
                    "velocity": 0.7007874015748031,
                    "duration": 0.24791666666669698
                },
                {
                    "name": "C#4",
                    "midi": 61,
                    "time": 275.0000000000002,
                    "velocity": 0.8110236220472441,
                    "duration": 0.747916666666697
                },
                {
                    "name": "A#2",
                    "midi": 46,
                    "time": 275.0000000000002,
                    "velocity": 0.5748031496062992,
                    "duration": 0.24791666666669698
                },
                {
                    "name": "F#4",
                    "midi": 66,
                    "time": 275.2500000000003,
                    "velocity": 0.5669291338582677,
                    "duration": 0.24791666666664014
                },
                {
                    "name": "G#3",
                    "midi": 56,
                    "time": 275.2500000000003,
                    "velocity": 0.5905511811023622,
                    "duration": 0.24791666666664014
                },
                {
                    "name": "C#4",
                    "midi": 61,
                    "time": 275.5000000000003,
                    "velocity": 0.44881889763779526,
                    "duration": 0.49791666666664014
                },
                {
                    "name": "A#3",
                    "midi": 58,
                    "time": 275.5000000000003,
                    "velocity": 0.5984251968503937,
                    "duration": 0.24791666666664014
                },
                {
                    "name": "F#4",
                    "midi": 66,
                    "time": 275.7500000000003,
                    "velocity": 0.4409448818897638,
                    "duration": 0.24791666666664014
                },
                {
                    "name": "G#3",
                    "midi": 56,
                    "time": 275.7500000000003,
                    "velocity": 0.4566929133858268,
                    "duration": 0.24791666666664014
                },
                {
                    "name": "D5",
                    "midi": 74,
                    "time": 276.0000000000003,
                    "velocity": 0.7086614173228346,
                    "duration": 0.24791666666669698
                },
                {
                    "name": "D4",
                    "midi": 62,
                    "time": 276.0000000000003,
                    "velocity": 0.6535433070866141,
                    "duration": 0.747916666666697
                },
                {
                    "name": "D#3",
                    "midi": 51,
                    "time": 276.0000000000003,
                    "velocity": 0.5984251968503937,
                    "duration": 0.24791666666669698
                },
                {
                    "name": "G4",
                    "midi": 67,
                    "time": 276.25000000000034,
                    "velocity": 0.5669291338582677,
                    "duration": 0.24791666666664014
                },
                {
                    "name": "G3",
                    "midi": 55,
                    "time": 276.25000000000034,
                    "velocity": 0.6771653543307087,
                    "duration": 0.24791666666664014
                },
                {
                    "name": "D4",
                    "midi": 62,
                    "time": 276.50000000000034,
                    "velocity": 0.6062992125984252,
                    "duration": 0.5
                },
                {
                    "name": "A#3",
                    "midi": 58,
                    "time": 276.50000000000034,
                    "velocity": 0.5511811023622047,
                    "duration": 0.24791666666664014
                },
                {
                    "name": "G4",
                    "midi": 67,
                    "time": 276.75000000000034,
                    "velocity": 0.5984251968503937,
                    "duration": 0.24791666666664014
                },
                {
                    "name": "G3",
                    "midi": 55,
                    "time": 276.75000000000034,
                    "velocity": 0.6929133858267716,
                    "duration": 0.24791666666664014
                },
                {
                    "name": "C#4",
                    "midi": 61,
                    "time": 277.00000000000034,
                    "velocity": 0.6535433070866141,
                    "duration": 0.747916666666697
                },
                {
                    "name": "C#5",
                    "midi": 73,
                    "time": 277.00000000000034,
                    "velocity": 0.7086614173228346,
                    "duration": 0.24791666666669698
                },
                {
                    "name": "A#2",
                    "midi": 46,
                    "time": 277.00000000000034,
                    "velocity": 0.6377952755905512,
                    "duration": 0.24791666666669698
                },
                {
                    "name": "F#4",
                    "midi": 66,
                    "time": 277.2500000000004,
                    "velocity": 0.5590551181102362,
                    "duration": 0.24791666666664014
                },
                {
                    "name": "G#3",
                    "midi": 56,
                    "time": 277.2500000000004,
                    "velocity": 0.6377952755905512,
                    "duration": 0.24791666666664014
                },
                {
                    "name": "C#4",
                    "midi": 61,
                    "time": 277.5000000000004,
                    "velocity": 0.5984251968503937,
                    "duration": 0.49791666666664014
                },
                {
                    "name": "A#3",
                    "midi": 58,
                    "time": 277.5000000000004,
                    "velocity": 0.4330708661417323,
                    "duration": 0.24791666666664014
                },
                {
                    "name": "F#4",
                    "midi": 66,
                    "time": 277.7500000000004,
                    "velocity": 0.5748031496062992,
                    "duration": 0.24791666666664014
                },
                {
                    "name": "G#3",
                    "midi": 56,
                    "time": 277.7500000000004,
                    "velocity": 0.5905511811023622,
                    "duration": 0.24791666666664014
                },
                {
                    "name": "D4",
                    "midi": 62,
                    "time": 278.0000000000004,
                    "velocity": 0.6929133858267716,
                    "duration": 0.16458333333332575
                },
                {
                    "name": "D5",
                    "midi": 74,
                    "time": 278.0000000000004,
                    "velocity": 0.7795275590551181,
                    "duration": 0.16458333333332575
                },
                {
                    "name": "D#3",
                    "midi": 51,
                    "time": 278.0000000000004,
                    "velocity": 0.5905511811023622,
                    "duration": 0.24791666666669698
                },
                {
                    "name": "D#4",
                    "midi": 63,
                    "time": 278.1666666666671,
                    "velocity": 0.6692913385826772,
                    "duration": 0.1645833333333826
                },
                {
                    "name": "G3",
                    "midi": 55,
                    "time": 278.25000000000045,
                    "velocity": 0.5905511811023622,
                    "duration": 0.24791666666669698
                },
                {
                    "name": "F4",
                    "midi": 65,
                    "time": 278.3333333333338,
                    "velocity": 0.6535433070866141,
                    "duration": 0.16458333333332575
                },
                {
                    "name": "G4",
                    "midi": 67,
                    "time": 278.5000000000005,
                    "velocity": 0.6456692913385826,
                    "duration": 0.12291666666664014
                },
                {
                    "name": "A#3",
                    "midi": 58,
                    "time": 278.5000000000005,
                    "velocity": 0.5590551181102362,
                    "duration": 0.24791666666664014
                },
                {
                    "name": "A4",
                    "midi": 69,
                    "time": 278.6250000000005,
                    "velocity": 0.6692913385826772,
                    "duration": 0.12291666666664014
                },
                {
                    "name": "A#4",
                    "midi": 70,
                    "time": 278.7500000000005,
                    "velocity": 0.6377952755905512,
                    "duration": 0.12291666666664014
                },
                {
                    "name": "G3",
                    "midi": 55,
                    "time": 278.7500000000005,
                    "velocity": 0.5984251968503937,
                    "duration": 0.24791666666664014
                },
                {
                    "name": "C5",
                    "midi": 72,
                    "time": 278.8750000000005,
                    "velocity": 0.6456692913385826,
                    "duration": 0.12291666666664014
                },
                {
                    "name": "C#5",
                    "midi": 73,
                    "time": 279.0000000000005,
                    "velocity": 0.6771653543307087,
                    "duration": 0.12291666666669698
                },
                {
                    "name": "C#4",
                    "midi": 61,
                    "time": 279.0000000000005,
                    "velocity": 0.6141732283464567,
                    "duration": 0.12291666666669698
                },
                {
                    "name": "A#2",
                    "midi": 46,
                    "time": 279.0000000000005,
                    "velocity": 0.6692913385826772,
                    "duration": 0.24791666666669698
                },
                {
                    "name": "D5",
                    "midi": 74,
                    "time": 279.12500000000057,
                    "velocity": 0.6771653543307087,
                    "duration": 0.12291666666664014
                },
                {
                    "name": "D#5",
                    "midi": 75,
                    "time": 279.25000000000057,
                    "velocity": 0.6299212598425197,
                    "duration": 0.12291666666664014
                },
                {
                    "name": "G#3",
                    "midi": 56,
                    "time": 279.25000000000057,
                    "velocity": 0.5905511811023622,
                    "duration": 0.24791666666664014
                },
                {
                    "name": "F5",
                    "midi": 77,
                    "time": 279.37500000000057,
                    "velocity": 0.6850393700787402,
                    "duration": 0.12291666666664014
                },
                {
                    "name": "G5",
                    "midi": 79,
                    "time": 279.50000000000057,
                    "velocity": 0.6771653543307087,
                    "duration": 0.12291666666664014
                },
                {
                    "name": "A#3",
                    "midi": 58,
                    "time": 279.50000000000057,
                    "velocity": 0.4251968503937008,
                    "duration": 0.24791666666664014
                },
                {
                    "name": "G#5",
                    "midi": 80,
                    "time": 279.62500000000057,
                    "velocity": 0.6535433070866141,
                    "duration": 0.12291666666664014
                },
                {
                    "name": "A#5",
                    "midi": 82,
                    "time": 279.75000000000057,
                    "velocity": 0.6456692913385826,
                    "duration": 0.12291666666664014
                },
                {
                    "name": "G#3",
                    "midi": 56,
                    "time": 279.75000000000057,
                    "velocity": 0.4566929133858268,
                    "duration": 0.24791666666664014
                },
                {
                    "name": "C6",
                    "midi": 84,
                    "time": 279.87500000000057,
                    "velocity": 0.7401574803149606,
                    "duration": 0.12291666666664014
                },
                {
                    "name": "D5",
                    "midi": 74,
                    "time": 280.00000000000057,
                    "velocity": 0.44881889763779526,
                    "duration": 0.747916666666697
                },
                {
                    "name": "D6",
                    "midi": 86,
                    "time": 280.00000000000057,
                    "velocity": 0.7322834645669292,
                    "duration": 0.24791666666669698
                },
                {
                    "name": "D#3",
                    "midi": 51,
                    "time": 280.00000000000057,
                    "velocity": 0.6062992125984252,
                    "duration": 0.24791666666669698
                },
                {
                    "name": "G5",
                    "midi": 79,
                    "time": 280.2500000000006,
                    "velocity": 0.5669291338582677,
                    "duration": 0.24791666666664014
                },
                {
                    "name": "G3",
                    "midi": 55,
                    "time": 280.2500000000006,
                    "velocity": 0.5275590551181102,
                    "duration": 0.24791666666664014
                },
                {
                    "name": "D5",
                    "midi": 74,
                    "time": 280.5000000000006,
                    "velocity": 0.6850393700787402,
                    "duration": 0.5
                },
                {
                    "name": "A#3",
                    "midi": 58,
                    "time": 280.5000000000006,
                    "velocity": 0.5748031496062992,
                    "duration": 0.24791666666664014
                },
                {
                    "name": "G5",
                    "midi": 79,
                    "time": 280.7500000000006,
                    "velocity": 0.6062992125984252,
                    "duration": 0.24791666666664014
                },
                {
                    "name": "G3",
                    "midi": 55,
                    "time": 280.7500000000006,
                    "velocity": 0.5669291338582677,
                    "duration": 0.24791666666664014
                },
                {
                    "name": "C#5",
                    "midi": 73,
                    "time": 281.0000000000006,
                    "velocity": 0.44881889763779526,
                    "duration": 0.747916666666697
                },
                {
                    "name": "C#6",
                    "midi": 85,
                    "time": 281.0000000000006,
                    "velocity": 0.6771653543307087,
                    "duration": 0.24791666666669698
                },
                {
                    "name": "A#2",
                    "midi": 46,
                    "time": 281.0000000000006,
                    "velocity": 0.6456692913385826,
                    "duration": 0.24791666666669698
                },
                {
                    "name": "F#5",
                    "midi": 78,
                    "time": 281.2500000000007,
                    "velocity": 0.5511811023622047,
                    "duration": 0.24791666666664014
                },
                {
                    "name": "G#3",
                    "midi": 56,
                    "time": 281.2500000000007,
                    "velocity": 0.5984251968503937,
                    "duration": 0.24791666666664014
                },
                {
                    "name": "C#5",
                    "midi": 73,
                    "time": 281.5000000000007,
                    "velocity": 0.5118110236220472,
                    "duration": 0.49791666666664014
                },
                {
                    "name": "A#3",
                    "midi": 58,
                    "time": 281.5000000000007,
                    "velocity": 0.4251968503937008,
                    "duration": 0.24791666666664014
                },
                {
                    "name": "F#5",
                    "midi": 78,
                    "time": 281.7500000000007,
                    "velocity": 0.5984251968503937,
                    "duration": 0.24791666666664014
                },
                {
                    "name": "G#3",
                    "midi": 56,
                    "time": 281.7500000000007,
                    "velocity": 0.5196850393700787,
                    "duration": 0.24791666666664014
                },
                {
                    "name": "D6",
                    "midi": 86,
                    "time": 282.0000000000007,
                    "velocity": 0.6850393700787402,
                    "duration": 0.16458333333332575
                },
                {
                    "name": "D5",
                    "midi": 74,
                    "time": 282.0000000000007,
                    "velocity": 0.5748031496062992,
                    "duration": 0.16458333333332575
                },
                {
                    "name": "D#4",
                    "midi": 63,
                    "time": 282.0000000000007,
                    "velocity": 0.6535433070866141,
                    "duration": 0.24791666666669698
                },
                {
                    "name": "D#5",
                    "midi": 75,
                    "time": 282.16666666666737,
                    "velocity": 0.6692913385826772,
                    "duration": 0.1645833333333826
                },
                {
                    "name": "G4",
                    "midi": 67,
                    "time": 282.25000000000074,
                    "velocity": 0.6299212598425197,
                    "duration": 0.24791666666669698
                },
                {
                    "name": "F5",
                    "midi": 77,
                    "time": 282.3333333333341,
                    "velocity": 0.5905511811023622,
                    "duration": 0.16458333333332575
                },
                {
                    "name": "G5",
                    "midi": 79,
                    "time": 282.5000000000008,
                    "velocity": 0.6692913385826772,
                    "duration": 0.12291666666664014
                },
                {
                    "name": "A#4",
                    "midi": 70,
                    "time": 282.5000000000008,
                    "velocity": 0.6692913385826772,
                    "duration": 0.24791666666664014
                },
                {
                    "name": "A5",
                    "midi": 81,
                    "time": 282.6250000000008,
                    "velocity": 0.7086614173228346,
                    "duration": 0.12291666666664014
                },
                {
                    "name": "A#5",
                    "midi": 82,
                    "time": 282.7500000000008,
                    "velocity": 0.6456692913385826,
                    "duration": 0.12291666666664014
                },
                {
                    "name": "G4",
                    "midi": 67,
                    "time": 282.7500000000008,
                    "velocity": 0.5511811023622047,
                    "duration": 0.24791666666664014
                },
                {
                    "name": "C6",
                    "midi": 84,
                    "time": 282.8750000000008,
                    "velocity": 0.7165354330708661,
                    "duration": 0.12291666666664014
                },
                {
                    "name": "C#5",
                    "midi": 73,
                    "time": 283.0000000000008,
                    "velocity": 0.6771653543307087,
                    "duration": 0.747916666666697
                },
                {
                    "name": "C#6",
                    "midi": 85,
                    "time": 283.0000000000008,
                    "velocity": 0.7165354330708661,
                    "duration": 0.24791666666669698
                },
                {
                    "name": "A#3",
                    "midi": 58,
                    "time": 283.0000000000008,
                    "velocity": 0.6062992125984252,
                    "duration": 0.24791666666669698
                },
                {
                    "name": "F#5",
                    "midi": 78,
                    "time": 283.25000000000085,
                    "velocity": 0.6850393700787402,
                    "duration": 0.24791666666664014
                },
                {
                    "name": "G#4",
                    "midi": 68,
                    "time": 283.25000000000085,
                    "velocity": 0.6141732283464567,
                    "duration": 0.24791666666664014
                },
                {
                    "name": "C#5",
                    "midi": 73,
                    "time": 283.50000000000085,
                    "velocity": 0.6771653543307087,
                    "duration": 0.49791666666664014
                },
                {
                    "name": "A#4",
                    "midi": 70,
                    "time": 283.50000000000085,
                    "velocity": 0.6141732283464567,
                    "duration": 0.24791666666664014
                },
                {
                    "name": "F#5",
                    "midi": 78,
                    "time": 283.75000000000085,
                    "velocity": 0.7559055118110236,
                    "duration": 0.24791666666664014
                },
                {
                    "name": "G#4",
                    "midi": 68,
                    "time": 283.75000000000085,
                    "velocity": 0.49606299212598426,
                    "duration": 0.24791666666664014
                },
                {
                    "name": "D5",
                    "midi": 74,
                    "time": 284.00000000000085,
                    "velocity": 0.5748031496062992,
                    "duration": 0.16458333333332575
                },
                {
                    "name": "D6",
                    "midi": 86,
                    "time": 284.00000000000085,
                    "velocity": 0.6850393700787402,
                    "duration": 0.16458333333332575
                },
                {
                    "name": "D#4",
                    "midi": 63,
                    "time": 284.00000000000085,
                    "velocity": 0.6535433070866141,
                    "duration": 0.24791666666669698
                },
                {
                    "name": "D#5",
                    "midi": 75,
                    "time": 284.16666666666754,
                    "velocity": 0.6692913385826772,
                    "duration": 0.1645833333333826
                },
                {
                    "name": "G4",
                    "midi": 67,
                    "time": 284.2500000000009,
                    "velocity": 0.5039370078740157,
                    "duration": 0.24791666666669698
                },
                {
                    "name": "F5",
                    "midi": 77,
                    "time": 284.3333333333343,
                    "velocity": 0.5905511811023622,
                    "duration": 0.16458333333332575
                },
                {
                    "name": "G5",
                    "midi": 79,
                    "time": 284.50000000000097,
                    "velocity": 0.6692913385826772,
                    "duration": 0.12291666666664014
                },
                {
                    "name": "A#4",
                    "midi": 70,
                    "time": 284.50000000000097,
                    "velocity": 0.5669291338582677,
                    "duration": 0.24791666666664014
                },
                {
                    "name": "A5",
                    "midi": 81,
                    "time": 284.62500000000097,
                    "velocity": 0.7086614173228346,
                    "duration": 0.12291666666664014
                },
                {
                    "name": "A#5",
                    "midi": 82,
                    "time": 284.75000000000097,
                    "velocity": 0.6456692913385826,
                    "duration": 0.12291666666664014
                },
                {
                    "name": "G4",
                    "midi": 67,
                    "time": 284.75000000000097,
                    "velocity": 0.5275590551181102,
                    "duration": 0.24791666666664014
                },
                {
                    "name": "C6",
                    "midi": 84,
                    "time": 284.87500000000097,
                    "velocity": 0.7165354330708661,
                    "duration": 0.12291666666664014
                },
                {
                    "name": "C#6",
                    "midi": 85,
                    "time": 285.00000000000097,
                    "velocity": 0.7165354330708661,
                    "duration": 0.24791666666669698
                },
                {
                    "name": "C#5",
                    "midi": 73,
                    "time": 285.00000000000097,
                    "velocity": 0.6771653543307087,
                    "duration": 0.747916666666697
                },
                {
                    "name": "A#3",
                    "midi": 58,
                    "time": 285.00000000000097,
                    "velocity": 0.5669291338582677,
                    "duration": 0.24791666666669698
                },
                {
                    "name": "F#5",
                    "midi": 78,
                    "time": 285.250000000001,
                    "velocity": 0.6850393700787402,
                    "duration": 0.24791666666664014
                },
                {
                    "name": "G#4",
                    "midi": 68,
                    "time": 285.250000000001,
                    "velocity": 0.5905511811023622,
                    "duration": 0.24791666666664014
                },
                {
                    "name": "C#5",
                    "midi": 73,
                    "time": 285.500000000001,
                    "velocity": 0.6771653543307087,
                    "duration": 0.49791666666664014
                },
                {
                    "name": "A#4",
                    "midi": 70,
                    "time": 285.500000000001,
                    "velocity": 0.5984251968503937,
                    "duration": 0.24791666666664014
                },
                {
                    "name": "F#5",
                    "midi": 78,
                    "time": 285.750000000001,
                    "velocity": 0.7559055118110236,
                    "duration": 0.24791666666664014
                },
                {
                    "name": "G#4",
                    "midi": 68,
                    "time": 285.750000000001,
                    "velocity": 0.3543307086614173,
                    "duration": 0.24791666666664014
                },
                {
                    "name": "D#4",
                    "midi": 63,
                    "time": 286.000000000001,
                    "velocity": 0.5275590551181102,
                    "duration": 0.24791666666669698
                },
                {
                    "name": "D6",
                    "midi": 86,
                    "time": 286.000000000001,
                    "velocity": 0.6771653543307087,
                    "duration": 0.24791666666669698
                },
                {
                    "name": "D5",
                    "midi": 74,
                    "time": 286.000000000001,
                    "velocity": 0.6771653543307087,
                    "duration": 0.24791666666669698
                },
                {
                    "name": "D5",
                    "midi": 74,
                    "time": 286.2500000000011,
                    "velocity": 0.5354330708661418,
                    "duration": 0.24791666666664014
                },
                {
                    "name": "A5",
                    "midi": 81,
                    "time": 286.2500000000011,
                    "velocity": 0.6535433070866141,
                    "duration": 0.24791666666664014
                },
                {
                    "name": "A#4",
                    "midi": 70,
                    "time": 286.5000000000011,
                    "velocity": 0.5511811023622047,
                    "duration": 0.24791666666664014
                },
                {
                    "name": "G5",
                    "midi": 79,
                    "time": 286.5000000000011,
                    "velocity": 0.6456692913385826,
                    "duration": 0.24791666666664014
                },
                {
                    "name": "A4",
                    "midi": 69,
                    "time": 286.7500000000011,
                    "velocity": 0.5275590551181102,
                    "duration": 0.24791666666664014
                },
                {
                    "name": "D5",
                    "midi": 74,
                    "time": 286.7500000000011,
                    "velocity": 0.6377952755905512,
                    "duration": 0.24791666666664014
                },
                {
                    "name": "D4",
                    "midi": 62,
                    "time": 287.0000000000011,
                    "velocity": 0.5590551181102362,
                    "duration": 0.24791666666669698
                },
                {
                    "name": "A4",
                    "midi": 69,
                    "time": 287.0000000000011,
                    "velocity": 0.6456692913385826,
                    "duration": 0.24791666666669698
                },
                {
                    "name": "A#3",
                    "midi": 58,
                    "time": 287.25000000000114,
                    "velocity": 0.5196850393700787,
                    "duration": 0.24791666666664014
                },
                {
                    "name": "G4",
                    "midi": 67,
                    "time": 287.25000000000114,
                    "velocity": 0.6377952755905512,
                    "duration": 0.24791666666664014
                },
                {
                    "name": "A3",
                    "midi": 57,
                    "time": 287.50000000000114,
                    "velocity": 0.5196850393700787,
                    "duration": 0.24791666666664014
                },
                {
                    "name": "A4",
                    "midi": 69,
                    "time": 287.50000000000114,
                    "velocity": 0.6456692913385826,
                    "duration": 0.24791666666664014
                },
                {
                    "name": "D#3",
                    "midi": 51,
                    "time": 287.75000000000114,
                    "velocity": 0.49606299212598426,
                    "duration": 0.24791666666664014
                },
                {
                    "name": "D4",
                    "midi": 62,
                    "time": 287.75000000000114,
                    "velocity": 0.6377952755905512,
                    "duration": 0.24791666666664014
                },
                {
                    "name": "D5",
                    "midi": 74,
                    "time": 287.75000000000114,
                    "velocity": 0.6456692913385826,
                    "duration": 0.24791666666664014
                },
                {
                    "name": "G3",
                    "midi": 55,
                    "time": 288.00000000000114,
                    "velocity": 0.5748031496062992,
                    "duration": 0.24791666666669698
                },
                {
                    "name": "D4",
                    "midi": 62,
                    "time": 288.00000000000114,
                    "velocity": 0.5905511811023622,
                    "duration": 0.24791666666669698
                },
                {
                    "name": "D5",
                    "midi": 74,
                    "time": 288.00000000000114,
                    "velocity": 0.5669291338582677,
                    "duration": 0.24791666666669698
                },
                {
                    "name": "D4",
                    "midi": 62,
                    "time": 288.2500000000012,
                    "velocity": 0.47244094488188976,
                    "duration": 0.24791666666664014
                },
                {
                    "name": "A4",
                    "midi": 69,
                    "time": 288.2500000000012,
                    "velocity": 0.6141732283464567,
                    "duration": 0.24791666666664014
                },
                {
                    "name": "A3",
                    "midi": 57,
                    "time": 288.5000000000012,
                    "velocity": 0.5511811023622047,
                    "duration": 0.24791666666664014
                },
                {
                    "name": "G4",
                    "midi": 67,
                    "time": 288.5000000000012,
                    "velocity": 0.5511811023622047,
                    "duration": 0.24791666666664014
                },
                {
                    "name": "G3",
                    "midi": 55,
                    "time": 288.7500000000012,
                    "velocity": 0.5275590551181102,
                    "duration": 0.24791666666664014
                },
                {
                    "name": "D4",
                    "midi": 62,
                    "time": 288.7500000000012,
                    "velocity": 0.6377952755905512,
                    "duration": 0.24791666666664014
                },
                {
                    "name": "D3",
                    "midi": 50,
                    "time": 289.0000000000012,
                    "velocity": 0.4409448818897638,
                    "duration": 0.24791666666669698
                },
                {
                    "name": "A3",
                    "midi": 57,
                    "time": 289.0000000000012,
                    "velocity": 0.5275590551181102,
                    "duration": 0.24791666666669698
                },
                {
                    "name": "A2",
                    "midi": 45,
                    "time": 289.25000000000125,
                    "velocity": 0.31496062992125984,
                    "duration": 0.24791666666664014
                },
                {
                    "name": "G3",
                    "midi": 55,
                    "time": 289.25000000000125,
                    "velocity": 0.4330708661417323,
                    "duration": 0.24791666666664014
                },
                {
                    "name": "G2",
                    "midi": 43,
                    "time": 289.50000000000125,
                    "velocity": 0.3937007874015748,
                    "duration": 0.24791666666664014
                },
                {
                    "name": "A3",
                    "midi": 57,
                    "time": 289.50000000000125,
                    "velocity": 0.47244094488188976,
                    "duration": 0.24791666666664014
                },
                {
                    "name": "D2",
                    "midi": 38,
                    "time": 289.75000000000125,
                    "velocity": 0.48031496062992124,
                    "duration": 0.24791666666664014
                },
                {
                    "name": "D4",
                    "midi": 62,
                    "time": 289.75000000000125,
                    "velocity": 0.4015748031496063,
                    "duration": 0.24791666666664014
                },
                {
                    "name": "D3",
                    "midi": 50,
                    "time": 289.75000000000125,
                    "velocity": 0.47244094488188976,
                    "duration": 0.24791666666664014
                },
                {
                    "name": "C2",
                    "midi": 36,
                    "time": 290.00000000000125,
                    "velocity": 0.5196850393700787,
                    "duration": 0.7479166666666401
                },
                {
                    "name": "G2",
                    "midi": 43,
                    "time": 290.00000000000125,
                    "velocity": 0.4409448818897638,
                    "duration": 0.7479166666666401
                },
                {
                    "name": "D6",
                    "midi": 86,
                    "time": 290.00000000000125,
                    "velocity": 0.7559055118110236,
                    "duration": 0.9979166666666401
                },
                {
                    "name": "D5",
                    "midi": 74,
                    "time": 290.00000000000125,
                    "velocity": 0.6771653543307087,
                    "duration": 0.9979166666666401
                },
                {
                    "name": "E3",
                    "midi": 52,
                    "time": 290.25000000000125,
                    "velocity": 0.5511811023622047,
                    "duration": 0.24791666666664014
                },
                {
                    "name": "G3",
                    "midi": 55,
                    "time": 290.50000000000125,
                    "velocity": 0.5118110236220472,
                    "duration": 0.24791666666664014
                },
                {
                    "name": "C4",
                    "midi": 60,
                    "time": 290.75000000000125,
                    "velocity": 0.4645669291338583,
                    "duration": 0.24791666666664014
                },
                {
                    "name": "E4",
                    "midi": 64,
                    "time": 291.00000000000125,
                    "velocity": 0.5748031496062992,
                    "duration": 0.24791666666664014
                },
                {
                    "name": "C#5",
                    "midi": 73,
                    "time": 291.00000000000125,
                    "velocity": 0.6141732283464567,
                    "duration": 0.49791666666664014
                },
                {
                    "name": "C#6",
                    "midi": 85,
                    "time": 291.00000000000125,
                    "velocity": 0.6535433070866141,
                    "duration": 0.49791666666664014
                },
                {
                    "name": "E3",
                    "midi": 52,
                    "time": 291.25000000000125,
                    "velocity": 0.4251968503937008,
                    "duration": 0.24791666666664014
                },
                {
                    "name": "D3",
                    "midi": 50,
                    "time": 291.50000000000125,
                    "velocity": 0.4409448818897638,
                    "duration": 0.7479166666666401
                },
                {
                    "name": "F2",
                    "midi": 41,
                    "time": 291.50000000000125,
                    "velocity": 0.5039370078740157,
                    "duration": 0.7479166666666401
                },
                {
                    "name": "A#4",
                    "midi": 70,
                    "time": 291.50000000000125,
                    "velocity": 0.6535433070866141,
                    "duration": 0.9979166666666401
                },
                {
                    "name": "A#5",
                    "midi": 82,
                    "time": 291.50000000000125,
                    "velocity": 0.6535433070866141,
                    "duration": 0.9979166666666401
                },
                {
                    "name": "F3",
                    "midi": 53,
                    "time": 291.75000000000125,
                    "velocity": 0.48031496062992124,
                    "duration": 0.24791666666664014
                },
                {
                    "name": "A#3",
                    "midi": 58,
                    "time": 292.00000000000125,
                    "velocity": 0.5511811023622047,
                    "duration": 0.24791666666664014
                },
                {
                    "name": "D4",
                    "midi": 62,
                    "time": 292.25000000000125,
                    "velocity": 0.5354330708661418,
                    "duration": 0.24791666666664014
                },
                {
                    "name": "A#3",
                    "midi": 58,
                    "time": 292.50000000000125,
                    "velocity": 0.5826771653543307,
                    "duration": 0.24791666666664014
                },
                {
                    "name": "C5",
                    "midi": 72,
                    "time": 292.50000000000125,
                    "velocity": 0.6456692913385826,
                    "duration": 0.49791666666664014
                },
                {
                    "name": "C6",
                    "midi": 84,
                    "time": 292.50000000000125,
                    "velocity": 0.6771653543307087,
                    "duration": 0.49791666666664014
                },
                {
                    "name": "F3",
                    "midi": 53,
                    "time": 292.75000000000125,
                    "velocity": 0.47244094488188976,
                    "duration": 0.24791666666664014
                },
                {
                    "name": "D#3",
                    "midi": 51,
                    "time": 293.00000000000125,
                    "velocity": 0.4409448818897638,
                    "duration": 0.7479166666666401
                },
                {
                    "name": "F#2",
                    "midi": 42,
                    "time": 293.00000000000125,
                    "velocity": 0.4645669291338583,
                    "duration": 0.7479166666666401
                },
                {
                    "name": "A4",
                    "midi": 69,
                    "time": 293.00000000000125,
                    "velocity": 0.5354330708661418,
                    "duration": 0.49791666666664014
                },
                {
                    "name": "A5",
                    "midi": 81,
                    "time": 293.00000000000125,
                    "velocity": 0.5196850393700787,
                    "duration": 0.49791666666664014
                },
                {
                    "name": "A3",
                    "midi": 57,
                    "time": 293.25000000000125,
                    "velocity": 0.47244094488188976,
                    "duration": 0.24791666666664014
                },
                {
                    "name": "C4",
                    "midi": 60,
                    "time": 293.50000000000125,
                    "velocity": 0.5905511811023622,
                    "duration": 0.24791666666664014
                },
                {
                    "name": "A#5",
                    "midi": 82,
                    "time": 293.50000000000125,
                    "velocity": 0.6377952755905512,
                    "duration": 0.24791666666664014
                },
                {
                    "name": "A#4",
                    "midi": 70,
                    "time": 293.50000000000125,
                    "velocity": 0.5118110236220472,
                    "duration": 0.24791666666664014
                },
                {
                    "name": "D#4",
                    "midi": 63,
                    "time": 293.75000000000125,
                    "velocity": 0.5118110236220472,
                    "duration": 0.24791666666664014
                },
                {
                    "name": "A4",
                    "midi": 69,
                    "time": 293.75000000000125,
                    "velocity": 0.6929133858267716,
                    "duration": 0.24791666666664014
                },
                {
                    "name": "A5",
                    "midi": 81,
                    "time": 293.75000000000125,
                    "velocity": 0.7401574803149606,
                    "duration": 0.24791666666664014
                },
                {
                    "name": "C4",
                    "midi": 60,
                    "time": 294.00000000000125,
                    "velocity": 0.5196850393700787,
                    "duration": 0.24791666666664014
                },
                {
                    "name": "G5",
                    "midi": 79,
                    "time": 294.00000000000125,
                    "velocity": 0.7795275590551181,
                    "duration": 0.24791666666664014
                },
                {
                    "name": "G4",
                    "midi": 67,
                    "time": 294.00000000000125,
                    "velocity": 0.5905511811023622,
                    "duration": 0.24791666666664014
                },
                {
                    "name": "F#4",
                    "midi": 66,
                    "time": 294.25000000000125,
                    "velocity": 0.7086614173228346,
                    "duration": 0.24791666666664014
                },
                {
                    "name": "F#5",
                    "midi": 78,
                    "time": 294.25000000000125,
                    "velocity": 0.7559055118110236,
                    "duration": 0.24791666666664014
                },
                {
                    "name": "A3",
                    "midi": 57,
                    "time": 294.25000000000125,
                    "velocity": 0.4330708661417323,
                    "duration": 0.24791666666664014
                },
                {
                    "name": "F5",
                    "midi": 77,
                    "time": 294.50000000000125,
                    "velocity": 0.6692913385826772,
                    "duration": 1.4979166666666401
                },
                {
                    "name": "F4",
                    "midi": 65,
                    "time": 294.50000000000125,
                    "velocity": 0.5433070866141733,
                    "duration": 1.4979166666666401
                },
                {
                    "name": "G2",
                    "midi": 43,
                    "time": 294.50000000000125,
                    "velocity": 0.5354330708661418,
                    "duration": 0.7479166666666401
                },
                {
                    "name": "D3",
                    "midi": 50,
                    "time": 294.50000000000125,
                    "velocity": 0.4566929133858268,
                    "duration": 0.7479166666666401
                },
                {
                    "name": "A3",
                    "midi": 57,
                    "time": 294.75000000000125,
                    "velocity": 0.5590551181102362,
                    "duration": 0.24791666666664014
                },
                {
                    "name": "C4",
                    "midi": 60,
                    "time": 295.00000000000125,
                    "velocity": 0.47244094488188976,
                    "duration": 0.24791666666664014
                },
                {
                    "name": "D4",
                    "midi": 62,
                    "time": 295.25000000000125,
                    "velocity": 0.4409448818897638,
                    "duration": 0.24791666666664014
                },
                {
                    "name": "C4",
                    "midi": 60,
                    "time": 295.50000000000125,
                    "velocity": 0.49606299212598426,
                    "duration": 0.24791666666664014
                },
                {
                    "name": "A3",
                    "midi": 57,
                    "time": 295.75000000000125,
                    "velocity": 0.47244094488188976,
                    "duration": 0.24791666666664014
                },
                {
                    "name": "C#3",
                    "midi": 49,
                    "time": 296.00000000000125,
                    "velocity": 0.44881889763779526,
                    "duration": 0.7479166666666401
                },
                {
                    "name": "G4",
                    "midi": 67,
                    "time": 296.00000000000125,
                    "velocity": 0.6220472440944882,
                    "duration": 0.9979166666666401
                },
                {
                    "name": "G5",
                    "midi": 79,
                    "time": 296.00000000000125,
                    "velocity": 0.6771653543307087,
                    "duration": 0.9979166666666401
                },
                {
                    "name": "G2",
                    "midi": 43,
                    "time": 296.00000000000125,
                    "velocity": 0.48031496062992124,
                    "duration": 0.7479166666666401
                },
                {
                    "name": "E3",
                    "midi": 52,
                    "time": 296.25000000000125,
                    "velocity": 0.4566929133858268,
                    "duration": 0.24791666666664014
                },
                {
                    "name": "C#4",
                    "midi": 61,
                    "time": 296.50000000000125,
                    "velocity": 0.41732283464566927,
                    "duration": 0.24791666666664014
                },
                {
                    "name": "A#3",
                    "midi": 58,
                    "time": 296.75000000000125,
                    "velocity": 0.4015748031496063,
                    "duration": 0.24791666666664014
                },
                {
                    "name": "E3",
                    "midi": 52,
                    "time": 297.00000000000125,
                    "velocity": 0.4094488188976378,
                    "duration": 0.24791666666664014
                },
                {
                    "name": "F#4",
                    "midi": 66,
                    "time": 297.00000000000125,
                    "velocity": 0.4566929133858268,
                    "duration": 0.49791666666664014
                },
                {
                    "name": "F#5",
                    "midi": 78,
                    "time": 297.00000000000125,
                    "velocity": 0.6141732283464567,
                    "duration": 0.49791666666664014
                },
                {
                    "name": "C#3",
                    "midi": 49,
                    "time": 297.25000000000125,
                    "velocity": 0.3858267716535433,
                    "duration": 0.24791666666664014
                },
                {
                    "name": "D#4",
                    "midi": 63,
                    "time": 297.50000000000125,
                    "velocity": 0.6220472440944882,
                    "duration": 0.9979166666666401
                },
                {
                    "name": "D#5",
                    "midi": 75,
                    "time": 297.50000000000125,
                    "velocity": 0.6692913385826772,
                    "duration": 0.9979166666666401
                },
                {
                    "name": "G#2",
                    "midi": 44,
                    "time": 297.50000000000125,
                    "velocity": 0.3858267716535433,
                    "duration": 0.7479166666666401
                },
                {
                    "name": "C3",
                    "midi": 48,
                    "time": 297.50000000000125,
                    "velocity": 0.4881889763779528,
                    "duration": 0.7479166666666401
                },
                {
                    "name": "D#3",
                    "midi": 51,
                    "time": 297.75000000000125,
                    "velocity": 0.33070866141732286,
                    "duration": 0.24791666666664014
                },
                {
                    "name": "G#3",
                    "midi": 56,
                    "time": 298.00000000000125,
                    "velocity": 0.4015748031496063,
                    "duration": 0.24791666666664014
                },
                {
                    "name": "A#3",
                    "midi": 58,
                    "time": 298.25000000000125,
                    "velocity": 0.4409448818897638,
                    "duration": 0.24791666666664014
                },
                {
                    "name": "B3",
                    "midi": 59,
                    "time": 298.50000000000125,
                    "velocity": 0.3700787401574803,
                    "duration": 0.24791666666664014
                },
                {
                    "name": "F4",
                    "midi": 65,
                    "time": 298.50000000000125,
                    "velocity": 0.47244094488188976,
                    "duration": 0.49791666666664014
                },
                {
                    "name": "F5",
                    "midi": 77,
                    "time": 298.50000000000125,
                    "velocity": 0.47244094488188976,
                    "duration": 0.49791666666664014
                },
                {
                    "name": "D#3",
                    "midi": 51,
                    "time": 298.75000000000125,
                    "velocity": 0.4015748031496063,
                    "duration": 0.24791666666664014
                },
                {
                    "name": "A#2",
                    "midi": 46,
                    "time": 299.00000000000125,
                    "velocity": 0.44881889763779526,
                    "duration": 0.7479166666666401
                },
                {
                    "name": "D4",
                    "midi": 62,
                    "time": 299.00000000000125,
                    "velocity": 0.5826771653543307,
                    "duration": 0.49791666666664014
                },
                {
                    "name": "D5",
                    "midi": 74,
                    "time": 299.00000000000125,
                    "velocity": 0.5118110236220472,
                    "duration": 0.49791666666664014
                },
                {
                    "name": "D#2",
                    "midi": 39,
                    "time": 299.00000000000125,
                    "velocity": 0.3464566929133858,
                    "duration": 0.7479166666666401
                },
                {
                    "name": "D#3",
                    "midi": 51,
                    "time": 299.25000000000125,
                    "velocity": 0.3858267716535433,
                    "duration": 0.24791666666664014
                },
                {
                    "name": "G3",
                    "midi": 55,
                    "time": 299.50000000000125,
                    "velocity": 0.47244094488188976,
                    "duration": 0.24791666666664014
                },
                {
                    "name": "C5",
                    "midi": 72,
                    "time": 299.50000000000125,
                    "velocity": 0.6535433070866141,
                    "duration": 0.24791666666664014
                },
                {
                    "name": "C6",
                    "midi": 84,
                    "time": 299.50000000000125,
                    "velocity": 0.7559055118110236,
                    "duration": 0.24791666666664014
                },
                {
                    "name": "A#3",
                    "midi": 58,
                    "time": 299.75000000000125,
                    "velocity": 0.4566929133858268,
                    "duration": 0.24791666666664014
                },
                {
                    "name": "A#4",
                    "midi": 70,
                    "time": 299.75000000000125,
                    "velocity": 0.6456692913385826,
                    "duration": 0.24791666666664014
                },
                {
                    "name": "A#5",
                    "midi": 82,
                    "time": 299.75000000000125,
                    "velocity": 0.7244094488188977,
                    "duration": 0.24791666666664014
                },
                {
                    "name": "D#4",
                    "midi": 63,
                    "time": 300.00000000000125,
                    "velocity": 0.4251968503937008,
                    "duration": 0.24791666666664014
                },
                {
                    "name": "A5",
                    "midi": 81,
                    "time": 300.00000000000125,
                    "velocity": 0.7322834645669292,
                    "duration": 0.24791666666664014
                },
                {
                    "name": "A4",
                    "midi": 69,
                    "time": 300.00000000000125,
                    "velocity": 0.6692913385826772,
                    "duration": 0.24791666666664014
                },
                {
                    "name": "A#3",
                    "midi": 58,
                    "time": 300.25000000000125,
                    "velocity": 0.5984251968503937,
                    "duration": 0.24791666666664014
                },
                {
                    "name": "G#4",
                    "midi": 68,
                    "time": 300.25000000000125,
                    "velocity": 0.5039370078740157,
                    "duration": 0.24791666666664014
                },
                {
                    "name": "G#5",
                    "midi": 80,
                    "time": 300.25000000000125,
                    "velocity": 0.7244094488188977,
                    "duration": 0.24791666666664014
                },
                {
                    "name": "D#4",
                    "midi": 63,
                    "time": 300.50000000000125,
                    "velocity": 0.5748031496062992,
                    "duration": 0.9979166666666401
                },
                {
                    "name": "D6",
                    "midi": 86,
                    "time": 300.50000000000125,
                    "velocity": 0.6535433070866141,
                    "duration": 0.9979166666666401
                },
                {
                    "name": "D5",
                    "midi": 74,
                    "time": 300.50000000000125,
                    "velocity": 0.6299212598425197,
                    "duration": 0.9979166666666401
                },
                {
                    "name": "G4",
                    "midi": 67,
                    "time": 300.75000000000125,
                    "velocity": 0.5826771653543307,
                    "duration": 0.24791666666664014
                },
                {
                    "name": "C5",
                    "midi": 72,
                    "time": 301.00000000000125,
                    "velocity": 0.5748031496062992,
                    "duration": 0.24791666666664014
                },
                {
                    "name": "A#4",
                    "midi": 70,
                    "time": 301.25000000000125,
                    "velocity": 0.5118110236220472,
                    "duration": 0.24791666666664014
                },
                {
                    "name": "A4",
                    "midi": 69,
                    "time": 301.50000000000125,
                    "velocity": 0.5748031496062992,
                    "duration": 0.24791666666664014
                },
                {
                    "name": "C#5",
                    "midi": 73,
                    "time": 301.50000000000125,
                    "velocity": 0.5984251968503937,
                    "duration": 0.49791666666664014
                },
                {
                    "name": "C#6",
                    "midi": 85,
                    "time": 301.50000000000125,
                    "velocity": 0.6141732283464567,
                    "duration": 0.49791666666664014
                },
                {
                    "name": "G4",
                    "midi": 67,
                    "time": 301.75000000000125,
                    "velocity": 0.47244094488188976,
                    "duration": 0.24791666666664014
                },
                {
                    "name": "G2",
                    "midi": 43,
                    "time": 302.00000000000125,
                    "velocity": 0.5354330708661418,
                    "duration": 0.7479166666666401
                },
                {
                    "name": "C2",
                    "midi": 36,
                    "time": 302.00000000000125,
                    "velocity": 0.6141732283464567,
                    "duration": 0.7479166666666401
                },
                {
                    "name": "D5",
                    "midi": 74,
                    "time": 302.00000000000125,
                    "velocity": 0.8661417322834646,
                    "duration": 0.9979166666666401
                },
                {
                    "name": "D6",
                    "midi": 86,
                    "time": 302.00000000000125,
                    "velocity": 0.5669291338582677,
                    "duration": 0.24791666666664014
                },
                {
                    "name": "E3",
                    "midi": 52,
                    "time": 302.25000000000125,
                    "velocity": 0.6456692913385826,
                    "duration": 0.24791666666664014
                },
                {
                    "name": "C#6",
                    "midi": 85,
                    "time": 302.25000000000125,
                    "velocity": 0.6456692913385826,
                    "duration": 0.24791666666664014
                },
                {
                    "name": "G3",
                    "midi": 55,
                    "time": 302.50000000000125,
                    "velocity": 0.6062992125984252,
                    "duration": 0.24791666666664014
                },
                {
                    "name": "C6",
                    "midi": 84,
                    "time": 302.50000000000125,
                    "velocity": 0.6535433070866141,
                    "duration": 0.24791666666664014
                },
                {
                    "name": "C4",
                    "midi": 60,
                    "time": 302.75000000000125,
                    "velocity": 0.5590551181102362,
                    "duration": 0.24791666666664014
                },
                {
                    "name": "B5",
                    "midi": 83,
                    "time": 302.75000000000125,
                    "velocity": 0.6141732283464567,
                    "duration": 0.24791666666664014
                },
                {
                    "name": "E4",
                    "midi": 64,
                    "time": 303.00000000000125,
                    "velocity": 0.6692913385826772,
                    "duration": 0.24791666666664014
                },
                {
                    "name": "C#5",
                    "midi": 73,
                    "time": 303.00000000000125,
                    "velocity": 0.8031496062992126,
                    "duration": 0.49791666666664014
                },
                {
                    "name": "A#5",
                    "midi": 82,
                    "time": 303.00000000000125,
                    "velocity": 0.6220472440944882,
                    "duration": 0.24791666666664014
                },
                {
                    "name": "E3",
                    "midi": 52,
                    "time": 303.25000000000125,
                    "velocity": 0.5196850393700787,
                    "duration": 0.24791666666664014
                },
                {
                    "name": "A5",
                    "midi": 81,
                    "time": 303.25000000000125,
                    "velocity": 0.6062992125984252,
                    "duration": 0.24791666666664014
                },
                {
                    "name": "F2",
                    "midi": 41,
                    "time": 303.50000000000125,
                    "velocity": 0.5984251968503937,
                    "duration": 0.7479166666666401
                },
                {
                    "name": "D3",
                    "midi": 50,
                    "time": 303.50000000000125,
                    "velocity": 0.5354330708661418,
                    "duration": 0.7479166666666401
                },
                {
                    "name": "A#4",
                    "midi": 70,
                    "time": 303.50000000000125,
                    "velocity": 0.84251968503937,
                    "duration": 0.9979166666666401
                },
                {
                    "name": "G#5",
                    "midi": 80,
                    "time": 303.50000000000125,
                    "velocity": 0.6456692913385826,
                    "duration": 0.24791666666664014
                },
                {
                    "name": "F3",
                    "midi": 53,
                    "time": 303.75000000000125,
                    "velocity": 0.5748031496062992,
                    "duration": 0.24791666666664014
                },
                {
                    "name": "G5",
                    "midi": 79,
                    "time": 303.75000000000125,
                    "velocity": 0.6220472440944882,
                    "duration": 0.24791666666664014
                },
                {
                    "name": "A#3",
                    "midi": 58,
                    "time": 304.00000000000125,
                    "velocity": 0.6456692913385826,
                    "duration": 0.24791666666664014
                },
                {
                    "name": "A5",
                    "midi": 81,
                    "time": 304.00000000000125,
                    "velocity": 0.6614173228346457,
                    "duration": 0.24791666666664014
                },
                {
                    "name": "D4",
                    "midi": 62,
                    "time": 304.25000000000125,
                    "velocity": 0.6299212598425197,
                    "duration": 0.24791666666664014
                },
                {
                    "name": "A#5",
                    "midi": 82,
                    "time": 304.25000000000125,
                    "velocity": 0.5905511811023622,
                    "duration": 0.24791666666664014
                },
                {
                    "name": "A#3",
                    "midi": 58,
                    "time": 304.50000000000125,
                    "velocity": 0.6771653543307087,
                    "duration": 0.24791666666664014
                },
                {
                    "name": "C5",
                    "midi": 72,
                    "time": 304.50000000000125,
                    "velocity": 0.8346456692913385,
                    "duration": 0.49791666666664014
                },
                {
                    "name": "A5",
                    "midi": 81,
                    "time": 304.50000000000125,
                    "velocity": 0.48031496062992124,
                    "duration": 0.24791666666664014
                },
                {
                    "name": "F3",
                    "midi": 53,
                    "time": 304.75000000000125,
                    "velocity": 0.5669291338582677,
                    "duration": 0.24791666666664014
                },
                {
                    "name": "G5",
                    "midi": 79,
                    "time": 304.75000000000125,
                    "velocity": 0.5433070866141733,
                    "duration": 0.24791666666664014
                },
                {
                    "name": "F5",
                    "midi": 77,
                    "time": 305.00000000000125,
                    "velocity": 0.44881889763779526,
                    "duration": 0.24791666666664014
                },
                {
                    "name": "F#2",
                    "midi": 42,
                    "time": 305.00000000000125,
                    "velocity": 0.5590551181102362,
                    "duration": 0.7479166666666401
                },
                {
                    "name": "D#3",
                    "midi": 51,
                    "time": 305.00000000000125,
                    "velocity": 0.5354330708661418,
                    "duration": 0.7479166666666401
                },
                {
                    "name": "A4",
                    "midi": 69,
                    "time": 305.00000000000125,
                    "velocity": 0.6299212598425197,
                    "duration": 0.49791666666664014
                },
                {
                    "name": "C5",
                    "midi": 72,
                    "time": 305.25000000000125,
                    "velocity": 0.5669291338582677,
                    "duration": 0.49791666666664014
                },
                {
                    "name": "A3",
                    "midi": 57,
                    "time": 305.25000000000125,
                    "velocity": 0.5669291338582677,
                    "duration": 0.24791666666664014
                },
                {
                    "name": "C4",
                    "midi": 60,
                    "time": 305.50000000000125,
                    "velocity": 0.6850393700787402,
                    "duration": 0.24791666666664014
                },
                {
                    "name": "A#4",
                    "midi": 70,
                    "time": 305.50000000000125,
                    "velocity": 0.6062992125984252,
                    "duration": 0.24791666666664014
                },
                {
                    "name": "D5",
                    "midi": 74,
                    "time": 305.75000000000125,
                    "velocity": 0.5669291338582677,
                    "duration": 0.49791666666664014
                },
                {
                    "name": "D#4",
                    "midi": 63,
                    "time": 305.75000000000125,
                    "velocity": 0.6062992125984252,
                    "duration": 0.24791666666664014
                },
                {
                    "name": "A4",
                    "midi": 69,
                    "time": 305.75000000000125,
                    "velocity": 0.7874015748031497,
                    "duration": 0.24791666666664014
                },
                {
                    "name": "C4",
                    "midi": 60,
                    "time": 306.00000000000125,
                    "velocity": 0.6141732283464567,
                    "duration": 0.24791666666664014
                },
                {
                    "name": "G4",
                    "midi": 67,
                    "time": 306.00000000000125,
                    "velocity": 0.6850393700787402,
                    "duration": 0.24791666666664014
                },
                {
                    "name": "F#4",
                    "midi": 66,
                    "time": 306.25000000000125,
                    "velocity": 0.8031496062992126,
                    "duration": 0.24791666666664014
                },
                {
                    "name": "D#5",
                    "midi": 75,
                    "time": 306.25000000000125,
                    "velocity": 0.48031496062992124,
                    "duration": 0.24791666666664014
                },
                {
                    "name": "A3",
                    "midi": 57,
                    "time": 306.25000000000125,
                    "velocity": 0.5275590551181102,
                    "duration": 0.24791666666664014
                },
                {
                    "name": "A4",
                    "midi": 69,
                    "time": 306.50000000000125,
                    "velocity": 0.5354330708661418,
                    "duration": 0.24791666666664014
                },
                {
                    "name": "F4",
                    "midi": 65,
                    "time": 306.50000000000125,
                    "velocity": 0.6771653543307087,
                    "duration": 1.4979166666666401
                },
                {
                    "name": "D3",
                    "midi": 50,
                    "time": 306.50000000000125,
                    "velocity": 0.5511811023622047,
                    "duration": 0.7479166666666401
                },
                {
                    "name": "G2",
                    "midi": 43,
                    "time": 306.50000000000125,
                    "velocity": 0.6299212598425197,
                    "duration": 0.7479166666666401
                },
                {
                    "name": "B4",
                    "midi": 71,
                    "time": 306.75000000000125,
                    "velocity": 0.5511811023622047,
                    "duration": 0.24791666666664014
                },
                {
                    "name": "A3",
                    "midi": 57,
                    "time": 306.75000000000125,
                    "velocity": 0.6535433070866141,
                    "duration": 0.24791666666664014
                },
                {
                    "name": "C5",
                    "midi": 72,
                    "time": 307.00000000000125,
                    "velocity": 0.48031496062992124,
                    "duration": 0.24791666666664014
                },
                {
                    "name": "C4",
                    "midi": 60,
                    "time": 307.00000000000125,
                    "velocity": 0.5669291338582677,
                    "duration": 0.24791666666664014
                },
                {
                    "name": "D5",
                    "midi": 74,
                    "time": 307.25000000000125,
                    "velocity": 0.5590551181102362,
                    "duration": 0.24791666666664014
                },
                {
                    "name": "A3",
                    "midi": 57,
                    "time": 307.25000000000125,
                    "velocity": 0.5354330708661418,
                    "duration": 0.24791666666664014
                },
                {
                    "name": "E5",
                    "midi": 76,
                    "time": 307.50000000000125,
                    "velocity": 0.5669291338582677,
                    "duration": 0.24791666666664014
                },
                {
                    "name": "F3",
                    "midi": 53,
                    "time": 307.50000000000125,
                    "velocity": 0.5905511811023622,
                    "duration": 0.24791666666664014
                },
                {
                    "name": "F5",
                    "midi": 77,
                    "time": 307.75000000000125,
                    "velocity": 0.6062992125984252,
                    "duration": 0.24791666666664014
                },
                {
                    "name": "D3",
                    "midi": 50,
                    "time": 307.75000000000125,
                    "velocity": 0.5669291338582677,
                    "duration": 0.24791666666664014
                },
                {
                    "name": "C#3",
                    "midi": 49,
                    "time": 308.00000000000125,
                    "velocity": 0.6062992125984252,
                    "duration": 0.24791666666664014
                },
                {
                    "name": "G2",
                    "midi": 43,
                    "time": 308.00000000000125,
                    "velocity": 0.5354330708661418,
                    "duration": 0.24791666666664014
                },
                {
                    "name": "G5",
                    "midi": 79,
                    "time": 308.00000000000125,
                    "velocity": 0.5748031496062992,
                    "duration": 0.24791666666664014
                },
                {
                    "name": "G4",
                    "midi": 67,
                    "time": 308.00000000000125,
                    "velocity": 0.7795275590551181,
                    "duration": 0.9979166666666401
                },
                {
                    "name": "E3",
                    "midi": 52,
                    "time": 308.25000000000125,
                    "velocity": 0.5669291338582677,
                    "duration": 0.24791666666664014
                },
                {
                    "name": "F#5",
                    "midi": 78,
                    "time": 308.25000000000125,
                    "velocity": 0.5669291338582677,
                    "duration": 0.24791666666664014
                },
                {
                    "name": "C#4",
                    "midi": 61,
                    "time": 308.50000000000125,
                    "velocity": 0.47244094488188976,
                    "duration": 0.24791666666664014
                },
                {
                    "name": "F5",
                    "midi": 77,
                    "time": 308.50000000000125,
                    "velocity": 0.5984251968503937,
                    "duration": 0.24791666666664014
                },
                {
                    "name": "A#3",
                    "midi": 58,
                    "time": 308.75000000000125,
                    "velocity": 0.41732283464566927,
                    "duration": 0.24791666666664014
                },
                {
                    "name": "E5",
                    "midi": 76,
                    "time": 308.75000000000125,
                    "velocity": 0.5196850393700787,
                    "duration": 0.24791666666664014
                },
                {
                    "name": "E3",
                    "midi": 52,
                    "time": 309.00000000000125,
                    "velocity": 0.5275590551181102,
                    "duration": 0.24791666666664014
                },
                {
                    "name": "D#5",
                    "midi": 75,
                    "time": 309.00000000000125,
                    "velocity": 0.47244094488188976,
                    "duration": 0.24791666666664014
                },
                {
                    "name": "F#4",
                    "midi": 66,
                    "time": 309.00000000000125,
                    "velocity": 0.6220472440944882,
                    "duration": 0.49791666666664014
                },
                {
                    "name": "C#3",
                    "midi": 49,
                    "time": 309.25000000000125,
                    "velocity": 0.5275590551181102,
                    "duration": 0.24791666666664014
                },
                {
                    "name": "D5",
                    "midi": 74,
                    "time": 309.25000000000125,
                    "velocity": 0.44881889763779526,
                    "duration": 0.24791666666664014
                },
                {
                    "name": "C3",
                    "midi": 48,
                    "time": 309.50000000000125,
                    "velocity": 0.5905511811023622,
                    "duration": 0.24791666666664014
                },
                {
                    "name": "G#2",
                    "midi": 44,
                    "time": 309.50000000000125,
                    "velocity": 0.5196850393700787,
                    "duration": 0.24791666666664014
                },
                {
                    "name": "C#5",
                    "midi": 73,
                    "time": 309.50000000000125,
                    "velocity": 0.5354330708661418,
                    "duration": 0.24791666666664014
                },
                {
                    "name": "D#4",
                    "midi": 63,
                    "time": 309.50000000000125,
                    "velocity": 0.7401574803149606,
                    "duration": 0.9979166666666401
                },
                {
                    "name": "D#3",
                    "midi": 51,
                    "time": 309.75000000000125,
                    "velocity": 0.4881889763779528,
                    "duration": 0.24791666666664014
                },
                {
                    "name": "C5",
                    "midi": 72,
                    "time": 309.75000000000125,
                    "velocity": 0.5511811023622047,
                    "duration": 0.24791666666664014
                },
                {
                    "name": "G#3",
                    "midi": 56,
                    "time": 310.00000000000125,
                    "velocity": 0.5196850393700787,
                    "duration": 0.24791666666664014
                },
                {
                    "name": "D5",
                    "midi": 74,
                    "time": 310.00000000000125,
                    "velocity": 0.6141732283464567,
                    "duration": 0.24791666666664014
                },
                {
                    "name": "C4",
                    "midi": 60,
                    "time": 310.25000000000125,
                    "velocity": 0.5196850393700787,
                    "duration": 0.24791666666664014
                },
                {
                    "name": "D#5",
                    "midi": 75,
                    "time": 310.25000000000125,
                    "velocity": 0.49606299212598426,
                    "duration": 0.24791666666664014
                },
                {
                    "name": "G#3",
                    "midi": 56,
                    "time": 310.50000000000125,
                    "velocity": 0.49606299212598426,
                    "duration": 0.24791666666664014
                },
                {
                    "name": "D5",
                    "midi": 74,
                    "time": 310.50000000000125,
                    "velocity": 0.5669291338582677,
                    "duration": 0.24791666666664014
                },
                {
                    "name": "F4",
                    "midi": 65,
                    "time": 310.50000000000125,
                    "velocity": 0.6535433070866141,
                    "duration": 0.49791666666664014
                },
                {
                    "name": "D#3",
                    "midi": 51,
                    "time": 310.75000000000125,
                    "velocity": 0.49606299212598426,
                    "duration": 0.24791666666664014
                },
                {
                    "name": "C5",
                    "midi": 72,
                    "time": 310.75000000000125,
                    "velocity": 0.47244094488188976,
                    "duration": 0.24791666666664014
                },
                {
                    "name": "D#2",
                    "midi": 39,
                    "time": 311.00000000000125,
                    "velocity": 0.48031496062992124,
                    "duration": 0.24791666666664014
                },
                {
                    "name": "A#2",
                    "midi": 46,
                    "time": 311.00000000000125,
                    "velocity": 0.5118110236220472,
                    "duration": 0.24791666666664014
                },
                {
                    "name": "A#4",
                    "midi": 70,
                    "time": 311.00000000000125,
                    "velocity": 0.5196850393700787,
                    "duration": 0.24791666666664014
                },
                {
                    "name": "D4",
                    "midi": 62,
                    "time": 311.00000000000125,
                    "velocity": 0.6535433070866141,
                    "duration": 0.9979166666666401
                },
                {
                    "name": "D#3",
                    "midi": 51,
                    "time": 311.25000000000125,
                    "velocity": 0.4409448818897638,
                    "duration": 0.24791666666664014
                },
                {
                    "name": "D5",
                    "midi": 74,
                    "time": 311.25000000000125,
                    "velocity": 0.48031496062992124,
                    "duration": 0.24791666666664014
                },
                {
                    "name": "G3",
                    "midi": 55,
                    "time": 311.50000000000125,
                    "velocity": 0.5118110236220472,
                    "duration": 0.24791666666664014
                },
                {
                    "name": "C5",
                    "midi": 72,
                    "time": 311.50000000000125,
                    "velocity": 0.5275590551181102,
                    "duration": 0.24791666666664014
                },
                {
                    "name": "A#3",
                    "midi": 58,
                    "time": 311.75000000000125,
                    "velocity": 0.49606299212598426,
                    "duration": 0.24791666666664014
                },
                {
                    "name": "A#4",
                    "midi": 70,
                    "time": 311.75000000000125,
                    "velocity": 0.5511811023622047,
                    "duration": 0.24791666666664014
                },
                {
                    "name": "G3",
                    "midi": 55,
                    "time": 312.00000000000125,
                    "velocity": 0.49606299212598426,
                    "duration": 0.24791666666664014
                },
                {
                    "name": "A4",
                    "midi": 69,
                    "time": 312.00000000000125,
                    "velocity": 0.28346456692913385,
                    "duration": 0.24791666666664014
                },
                {
                    "name": "C#4",
                    "midi": 61,
                    "time": 312.00000000000125,
                    "velocity": 0.6141732283464567,
                    "duration": 0.49791666666664014
                },
                {
                    "name": "D#3",
                    "midi": 51,
                    "time": 312.25000000000125,
                    "velocity": 0.49606299212598426,
                    "duration": 0.24791666666664014
                },
                {
                    "name": "G4",
                    "midi": 67,
                    "time": 312.25000000000125,
                    "velocity": 0.4881889763779528,
                    "duration": 0.24791666666664014
                },
                {
                    "name": "A2",
                    "midi": 45,
                    "time": 312.50000000000125,
                    "velocity": 0.49606299212598426,
                    "duration": 0.24791666666664014
                },
                {
                    "name": "D#2",
                    "midi": 39,
                    "time": 312.50000000000125,
                    "velocity": 0.48031496062992124,
                    "duration": 0.24791666666664014
                },
                {
                    "name": "A4",
                    "midi": 69,
                    "time": 312.50000000000125,
                    "velocity": 0.6220472440944882,
                    "duration": 0.24791666666664014
                },
                {
                    "name": "C4",
                    "midi": 60,
                    "time": 312.50000000000125,
                    "velocity": 0.6456692913385826,
                    "duration": 0.9979166666666401
                },
                {
                    "name": "C3",
                    "midi": 48,
                    "time": 312.75000000000125,
                    "velocity": 0.5275590551181102,
                    "duration": 0.24791666666664014
                },
                {
                    "name": "C5",
                    "midi": 72,
                    "time": 312.75000000000125,
                    "velocity": 0.5511811023622047,
                    "duration": 0.24791666666664014
                },
                {
                    "name": "F3",
                    "midi": 53,
                    "time": 313.00000000000125,
                    "velocity": 0.48031496062992124,
                    "duration": 0.24791666666664014
                },
                {
                    "name": "A#4",
                    "midi": 70,
                    "time": 313.00000000000125,
                    "velocity": 0.5669291338582677,
                    "duration": 0.24791666666664014
                },
                {
                    "name": "A3",
                    "midi": 57,
                    "time": 313.25000000000125,
                    "velocity": 0.5511811023622047,
                    "duration": 0.24791666666664014
                },
                {
                    "name": "A4",
                    "midi": 69,
                    "time": 313.25000000000125,
                    "velocity": 0.5275590551181102,
                    "duration": 0.24791666666664014
                },
                {
                    "name": "F3",
                    "midi": 53,
                    "time": 313.50000000000125,
                    "velocity": 0.4881889763779528,
                    "duration": 0.24791666666664014
                },
                {
                    "name": "G4",
                    "midi": 67,
                    "time": 313.50000000000125,
                    "velocity": 0.5275590551181102,
                    "duration": 0.24791666666664014
                },
                {
                    "name": "B3",
                    "midi": 59,
                    "time": 313.50000000000125,
                    "velocity": 0.6141732283464567,
                    "duration": 0.49791666666664014
                },
                {
                    "name": "C3",
                    "midi": 48,
                    "time": 313.75000000000125,
                    "velocity": 0.5511811023622047,
                    "duration": 0.24791666666664014
                },
                {
                    "name": "F4",
                    "midi": 65,
                    "time": 313.75000000000125,
                    "velocity": 0.5275590551181102,
                    "duration": 0.24791666666664014
                },
                {
                    "name": "G2",
                    "midi": 43,
                    "time": 314.00000000000125,
                    "velocity": 0.5354330708661418,
                    "duration": 0.24791666666664014
                },
                {
                    "name": "D#2",
                    "midi": 39,
                    "time": 314.00000000000125,
                    "velocity": 0.47244094488188976,
                    "duration": 0.24791666666664014
                },
                {
                    "name": "G4",
                    "midi": 67,
                    "time": 314.00000000000125,
                    "velocity": 0.5748031496062992,
                    "duration": 0.24791666666664014
                },
                {
                    "name": "A#3",
                    "midi": 58,
                    "time": 314.00000000000125,
                    "velocity": 0.6456692913385826,
                    "duration": 0.9979166666666401
                },
                {
                    "name": "A#2",
                    "midi": 46,
                    "time": 314.25000000000125,
                    "velocity": 0.5196850393700787,
                    "duration": 0.24791666666664014
                },
                {
                    "name": "A#4",
                    "midi": 70,
                    "time": 314.25000000000125,
                    "velocity": 0.47244094488188976,
                    "duration": 0.24791666666664014
                },
                {
                    "name": "D#3",
                    "midi": 51,
                    "time": 314.50000000000125,
                    "velocity": 0.5275590551181102,
                    "duration": 0.24791666666664014
                },
                {
                    "name": "A4",
                    "midi": 69,
                    "time": 314.50000000000125,
                    "velocity": 0.5196850393700787,
                    "duration": 0.24791666666664014
                },
                {
                    "name": "G3",
                    "midi": 55,
                    "time": 314.75000000000125,
                    "velocity": 0.5511811023622047,
                    "duration": 0.24791666666664014
                },
                {
                    "name": "G4",
                    "midi": 67,
                    "time": 314.75000000000125,
                    "velocity": 0.5511811023622047,
                    "duration": 0.24791666666664014
                },
                {
                    "name": "D#3",
                    "midi": 51,
                    "time": 315.00000000000125,
                    "velocity": 0.41732283464566927,
                    "duration": 0.24791666666664014
                },
                {
                    "name": "F4",
                    "midi": 65,
                    "time": 315.00000000000125,
                    "velocity": 0.5354330708661418,
                    "duration": 0.24791666666664014
                },
                {
                    "name": "A3",
                    "midi": 57,
                    "time": 315.00000000000125,
                    "velocity": 0.5590551181102362,
                    "duration": 0.49791666666664014
                },
                {
                    "name": "A#2",
                    "midi": 46,
                    "time": 315.25000000000125,
                    "velocity": 0.4566929133858268,
                    "duration": 0.24791666666664014
                },
                {
                    "name": "D#4",
                    "midi": 63,
                    "time": 315.25000000000125,
                    "velocity": 0.4566929133858268,
                    "duration": 0.24791666666664014
                },
                {
                    "name": "B2",
                    "midi": 47,
                    "time": 315.50000000000125,
                    "velocity": 0.5196850393700787,
                    "duration": 0.24791666666664014
                },
                {
                    "name": "F4",
                    "midi": 65,
                    "time": 315.50000000000125,
                    "velocity": 0.5748031496062992,
                    "duration": 0.24791666666664014
                },
                {
                    "name": "G#3",
                    "midi": 56,
                    "time": 315.50000000000125,
                    "velocity": 0.7165354330708661,
                    "duration": 1.4979166666666401
                },
                {
                    "name": "B1",
                    "midi": 35,
                    "time": 315.75000000000125,
                    "velocity": 0.5669291338582677,
                    "duration": 0.24791666666664014
                },
                {
                    "name": "G#4",
                    "midi": 68,
                    "time": 315.75000000000125,
                    "velocity": 0.4566929133858268,
                    "duration": 0.24791666666664014
                },
                {
                    "name": "A#2",
                    "midi": 46,
                    "time": 316.00000000000125,
                    "velocity": 0.5511811023622047,
                    "duration": 0.24791666666664014
                },
                {
                    "name": "G4",
                    "midi": 67,
                    "time": 316.00000000000125,
                    "velocity": 0.44881889763779526,
                    "duration": 0.24791666666664014
                },
                {
                    "name": "A#1",
                    "midi": 34,
                    "time": 316.25000000000125,
                    "velocity": 0.5275590551181102,
                    "duration": 0.24791666666664014
                },
                {
                    "name": "F4",
                    "midi": 65,
                    "time": 316.25000000000125,
                    "velocity": 0.4094488188976378,
                    "duration": 0.24791666666664014
                },
                {
                    "name": "G3",
                    "midi": 55,
                    "time": 316.50000000000125,
                    "velocity": 0.5275590551181102,
                    "duration": 0.24791666666664014
                },
                {
                    "name": "D#4",
                    "midi": 63,
                    "time": 316.50000000000125,
                    "velocity": 0.5196850393700787,
                    "duration": 0.24791666666664014
                },
                {
                    "name": "F#3",
                    "midi": 54,
                    "time": 316.75000000000125,
                    "velocity": 0.4881889763779528,
                    "duration": 0.24791666666664014
                },
                {
                    "name": "D4",
                    "midi": 62,
                    "time": 316.75000000000125,
                    "velocity": 0.47244094488188976,
                    "duration": 0.24791666666664014
                },
                {
                    "name": "A1",
                    "midi": 33,
                    "time": 317.50000000000125,
                    "velocity": 0.5984251968503937,
                    "duration": 0.24791666666664014
                },
                {
                    "name": "D#5",
                    "midi": 75,
                    "time": 317.75000000000125,
                    "velocity": 0.47244094488188976,
                    "duration": 0.24791666666664014
                },
                {
                    "name": "D#4",
                    "midi": 63,
                    "time": 317.75000000000125,
                    "velocity": 0.6220472440944882,
                    "duration": 0.7479166666666401
                },
                {
                    "name": "G2",
                    "midi": 43,
                    "time": 317.75000000000125,
                    "velocity": 0.6062992125984252,
                    "duration": 0.24791666666664014
                },
                {
                    "name": "D5",
                    "midi": 74,
                    "time": 318.00000000000125,
                    "velocity": 0.5590551181102362,
                    "duration": 0.24791666666664014
                },
                {
                    "name": "A#2",
                    "midi": 46,
                    "time": 318.00000000000125,
                    "velocity": 0.5669291338582677,
                    "duration": 0.24791666666664014
                },
                {
                    "name": "C5",
                    "midi": 72,
                    "time": 318.25000000000125,
                    "velocity": 0.5354330708661418,
                    "duration": 0.24791666666664014
                },
                {
                    "name": "D#3",
                    "midi": 51,
                    "time": 318.25000000000125,
                    "velocity": 0.49606299212598426,
                    "duration": 0.24791666666664014
                },
                {
                    "name": "B4",
                    "midi": 71,
                    "time": 318.50000000000125,
                    "velocity": 0.5118110236220472,
                    "duration": 0.24791666666664014
                },
                {
                    "name": "D4",
                    "midi": 62,
                    "time": 318.50000000000125,
                    "velocity": 0.5905511811023622,
                    "duration": 0.49791666666664014
                },
                {
                    "name": "G3",
                    "midi": 55,
                    "time": 318.50000000000125,
                    "velocity": 0.6141732283464567,
                    "duration": 0.24791666666664014
                },
                {
                    "name": "A#4",
                    "midi": 70,
                    "time": 318.75000000000125,
                    "velocity": 0.4015748031496063,
                    "duration": 0.24791666666664014
                },
                {
                    "name": "A#3",
                    "midi": 58,
                    "time": 318.75000000000125,
                    "velocity": 0.47244094488188976,
                    "duration": 0.24791666666664014
                },
                {
                    "name": "A4",
                    "midi": 69,
                    "time": 319.00000000000125,
                    "velocity": 0.49606299212598426,
                    "duration": 0.24791666666664014
                },
                {
                    "name": "B3",
                    "midi": 59,
                    "time": 319.00000000000125,
                    "velocity": 0.6535433070866141,
                    "duration": 0.9979166666666401
                },
                {
                    "name": "D#3",
                    "midi": 51,
                    "time": 319.00000000000125,
                    "velocity": 0.5511811023622047,
                    "duration": 0.24791666666664014
                },
                {
                    "name": "G#4",
                    "midi": 68,
                    "time": 319.25000000000125,
                    "velocity": 0.3779527559055118,
                    "duration": 0.24791666666664014
                },
                {
                    "name": "G#3",
                    "midi": 56,
                    "time": 319.25000000000125,
                    "velocity": 0.5590551181102362,
                    "duration": 0.24791666666664014
                },
                {
                    "name": "A#4",
                    "midi": 70,
                    "time": 319.50000000000125,
                    "velocity": 0.44881889763779526,
                    "duration": 0.24791666666664014
                },
                {
                    "name": "G3",
                    "midi": 55,
                    "time": 319.50000000000125,
                    "velocity": 0.47244094488188976,
                    "duration": 0.24791666666664014
                },
                {
                    "name": "B4",
                    "midi": 71,
                    "time": 319.75000000000125,
                    "velocity": 0.5748031496062992,
                    "duration": 0.24791666666664014
                },
                {
                    "name": "F#3",
                    "midi": 54,
                    "time": 319.75000000000125,
                    "velocity": 0.5511811023622047,
                    "duration": 0.24791666666664014
                },
                {
                    "name": "A#4",
                    "midi": 70,
                    "time": 320.00000000000125,
                    "velocity": 0.5118110236220472,
                    "duration": 0.24791666666664014
                },
                {
                    "name": "C#4",
                    "midi": 61,
                    "time": 320.00000000000125,
                    "velocity": 0.6220472440944882,
                    "duration": 0.49791666666664014
                },
                {
                    "name": "F3",
                    "midi": 53,
                    "time": 320.00000000000125,
                    "velocity": 0.5748031496062992,
                    "duration": 0.24791666666664014
                },
                {
                    "name": "G#4",
                    "midi": 68,
                    "time": 320.25000000000125,
                    "velocity": 0.5118110236220472,
                    "duration": 0.24791666666664014
                },
                {
                    "name": "E3",
                    "midi": 52,
                    "time": 320.25000000000125,
                    "velocity": 0.5669291338582677,
                    "duration": 0.24791666666664014
                },
                {
                    "name": "G4",
                    "midi": 67,
                    "time": 320.50000000000125,
                    "velocity": 0.47244094488188976,
                    "duration": 0.24791666666664014
                },
                {
                    "name": "A#3",
                    "midi": 58,
                    "time": 320.50000000000125,
                    "velocity": 0.6220472440944882,
                    "duration": 0.49791666666664014
                },
                {
                    "name": "A1",
                    "midi": 33,
                    "time": 320.50000000000125,
                    "velocity": 0.5511811023622047,
                    "duration": 0.24791666666664014
                },
                {
                    "name": "E4",
                    "midi": 64,
                    "time": 320.75000000000125,
                    "velocity": 0.4881889763779528,
                    "duration": 0.24791666666664014
                },
                {
                    "name": "G#2",
                    "midi": 44,
                    "time": 320.75000000000125,
                    "velocity": 0.5511811023622047,
                    "duration": 0.24791666666664014
                },
                {
                    "name": "F4",
                    "midi": 65,
                    "time": 321.00000000000125,
                    "velocity": 0.5511811023622047,
                    "duration": 0.24791666666664014
                },
                {
                    "name": "A3",
                    "midi": 57,
                    "time": 321.00000000000125,
                    "velocity": 0.6220472440944882,
                    "duration": 0.49791666666664014
                },
                {
                    "name": "A2",
                    "midi": 45,
                    "time": 321.00000000000125,
                    "velocity": 0.6062992125984252,
                    "duration": 0.24791666666664014
                },
                {
                    "name": "D4",
                    "midi": 62,
                    "time": 321.25000000000125,
                    "velocity": 0.49606299212598426,
                    "duration": 0.24791666666664014
                },
                {
                    "name": "A#2",
                    "midi": 46,
                    "time": 321.25000000000125,
                    "velocity": 0.5748031496062992,
                    "duration": 0.24791666666664014
                },
                {
                    "name": "E4",
                    "midi": 64,
                    "time": 321.50000000000125,
                    "velocity": 0.49606299212598426,
                    "duration": 0.24791666666664014
                },
                {
                    "name": "G3",
                    "midi": 55,
                    "time": 321.50000000000125,
                    "velocity": 0.6062992125984252,
                    "duration": 0.49791666666664014
                },
                {
                    "name": "B2",
                    "midi": 47,
                    "time": 321.50000000000125,
                    "velocity": 0.6062992125984252,
                    "duration": 0.24791666666664014
                },
                {
                    "name": "A3",
                    "midi": 57,
                    "time": 321.75000000000125,
                    "velocity": 0.3700787401574803,
                    "duration": 0.24791666666664014
                },
                {
                    "name": "C3",
                    "midi": 48,
                    "time": 321.75000000000125,
                    "velocity": 0.5905511811023622,
                    "duration": 0.24791666666664014
                },
                {
                    "name": "C#3",
                    "midi": 49,
                    "time": 322.00000000000125,
                    "velocity": 0.48031496062992124,
                    "duration": 0.49791666666664014
                },
                {
                    "name": "D2",
                    "midi": 38,
                    "time": 322.00000000000125,
                    "velocity": 0.6377952755905512,
                    "duration": 0.49791666666664014
                },
                {
                    "name": "A3",
                    "midi": 57,
                    "time": 322.50000000000125,
                    "velocity": 0.5748031496062992,
                    "duration": 0.9979166666666401
                },
                {
                    "name": "F3",
                    "midi": 53,
                    "time": 322.50000000000125,
                    "velocity": 0.5590551181102362,
                    "duration": 0.9979166666666401
                },
                {
                    "name": "D4",
                    "midi": 62,
                    "time": 322.50000000000125,
                    "velocity": 0.5511811023622047,
                    "duration": 0.9979166666666401
                },
                {
                    "name": "D2",
                    "midi": 38,
                    "time": 323.50000000000125,
                    "velocity": 0.7322834645669292,
                    "duration": 0.9979166666666401
                },
                {
                    "name": "C3",
                    "midi": 48,
                    "time": 323.50000000000125,
                    "velocity": 0.7086614173228346,
                    "duration": 0.9979166666666401
                },
                {
                    "name": "A3",
                    "midi": 57,
                    "time": 324.50000000000125,
                    "velocity": 0.6535433070866141,
                    "duration": 0.49791666666664014
                },
                {
                    "name": "D4",
                    "midi": 62,
                    "time": 324.50000000000125,
                    "velocity": 0.7086614173228346,
                    "duration": 0.49791666666664014
                },
                {
                    "name": "F3",
                    "midi": 53,
                    "time": 324.50000000000125,
                    "velocity": 0.6299212598425197,
                    "duration": 0.49791666666664014
                },
                {
                    "name": "A#2",
                    "midi": 46,
                    "time": 325.00000000000125,
                    "velocity": 0.6692913385826772,
                    "duration": 0.49791666666664014
                },
                {
                    "name": "D2",
                    "midi": 38,
                    "time": 325.00000000000125,
                    "velocity": 0.7086614173228346,
                    "duration": 0.49791666666664014
                },
                {
                    "name": "D4",
                    "midi": 62,
                    "time": 325.50000000000125,
                    "velocity": 0.6456692913385826,
                    "duration": 0.49791666666664014
                },
                {
                    "name": "A3",
                    "midi": 57,
                    "time": 325.50000000000125,
                    "velocity": 0.6929133858267716,
                    "duration": 0.49791666666664014
                },
                {
                    "name": "F3",
                    "midi": 53,
                    "time": 325.50000000000125,
                    "velocity": 0.7480314960629921,
                    "duration": 0.49791666666664014
                },
                {
                    "name": "D5",
                    "midi": 74,
                    "time": 326.00000000000125,
                    "velocity": 0.8188976377952756,
                    "duration": 0.12291666666664014
                },
                {
                    "name": "D4",
                    "midi": 62,
                    "time": 326.12500000000125,
                    "velocity": 0.8031496062992126,
                    "duration": 0.12291666666664014
                },
                {
                    "name": "C#4",
                    "midi": 61,
                    "time": 326.25000000000125,
                    "velocity": 0.8346456692913385,
                    "duration": 0.12291666666664014
                },
                {
                    "name": "D4",
                    "midi": 62,
                    "time": 326.37500000000125,
                    "velocity": 0.9212598425196851,
                    "duration": 0.12291666666664014
                },
                {
                    "name": "B3",
                    "midi": 59,
                    "time": 326.50000000000125,
                    "velocity": 0.8031496062992126,
                    "duration": 0.49791666666664014
                },
                {
                    "name": "D#4",
                    "midi": 63,
                    "time": 326.50000000000125,
                    "velocity": 0.8188976377952756,
                    "duration": 0.49791666666664014
                },
                {
                    "name": "F#3",
                    "midi": 54,
                    "time": 326.50000000000125,
                    "velocity": 0.7795275590551181,
                    "duration": 0.49791666666664014
                },
                {
                    "name": "B2",
                    "midi": 47,
                    "time": 326.50000000000125,
                    "velocity": 0.8188976377952756,
                    "duration": 0.49791666666664014
                },
                {
                    "name": "B1",
                    "midi": 35,
                    "time": 326.50000000000125,
                    "velocity": 0.8188976377952756,
                    "duration": 0.49791666666664014
                },
                {
                    "name": "D#6",
                    "midi": 87,
                    "time": 327.00000000000125,
                    "velocity": 0.8110236220472441,
                    "duration": 0.12291666666664014
                },
                {
                    "name": "B3",
                    "midi": 59,
                    "time": 327.00000000000125,
                    "velocity": 0.8031496062992126,
                    "duration": 1.4979166666666401
                },
                {
                    "name": "D#4",
                    "midi": 63,
                    "time": 327.00000000000125,
                    "velocity": 0.7086614173228346,
                    "duration": 1.4979166666666401
                },
                {
                    "name": "F#3",
                    "midi": 54,
                    "time": 327.00000000000125,
                    "velocity": 0.7716535433070866,
                    "duration": 1.4979166666666401
                },
                {
                    "name": "D#5",
                    "midi": 75,
                    "time": 327.12500000000125,
                    "velocity": 0.7716535433070866,
                    "duration": 0.12291666666664014
                },
                {
                    "name": "G#4",
                    "midi": 68,
                    "time": 327.25000000000125,
                    "velocity": 0.7637795275590551,
                    "duration": 0.12291666666664014
                },
                {
                    "name": "A4",
                    "midi": 69,
                    "time": 327.37500000000125,
                    "velocity": 0.7637795275590551,
                    "duration": 0.12291666666664014
                },
                {
                    "name": "A#4",
                    "midi": 70,
                    "time": 327.50000000000125,
                    "velocity": 0.7952755905511811,
                    "duration": 0.24791666666664014
                },
                {
                    "name": "E3",
                    "midi": 52,
                    "time": 328.00000000000125,
                    "velocity": 0.6535433070866141,
                    "duration": 0.9979166666666401
                },
                {
                    "name": "B3",
                    "midi": 59,
                    "time": 328.50000000000125,
                    "velocity": 0.47244094488188976,
                    "duration": 0.49791666666664014
                },
                {
                    "name": "D4",
                    "midi": 62,
                    "time": 328.50000000000125,
                    "velocity": 0.6062992125984252,
                    "duration": 0.49791666666664014
                },
                {
                    "name": "G3",
                    "midi": 55,
                    "time": 328.50000000000125,
                    "velocity": 0.5511811023622047,
                    "duration": 0.49791666666664014
                },
                {
                    "name": "E4",
                    "midi": 64,
                    "time": 329.00000000000125,
                    "velocity": 0.6535433070866141,
                    "duration": 0.49791666666664014
                },
                {
                    "name": "C#4",
                    "midi": 61,
                    "time": 329.00000000000125,
                    "velocity": 0.6141732283464567,
                    "duration": 0.49791666666664014
                },
                {
                    "name": "G#3",
                    "midi": 56,
                    "time": 329.00000000000125,
                    "velocity": 0.5354330708661418,
                    "duration": 0.49791666666664014
                },
                {
                    "name": "B3",
                    "midi": 59,
                    "time": 329.00000000000125,
                    "velocity": 0.49606299212598426,
                    "duration": 0.49791666666664014
                },
                {
                    "name": "D3",
                    "midi": 50,
                    "time": 329.50000000000125,
                    "velocity": 0.5905511811023622,
                    "duration": 0.49791666666664014
                },
                {
                    "name": "A3",
                    "midi": 57,
                    "time": 330.00000000000125,
                    "velocity": 0.6141732283464567,
                    "duration": 0.9979166666666401
                },
                {
                    "name": "D4",
                    "midi": 62,
                    "time": 330.00000000000125,
                    "velocity": 0.5905511811023622,
                    "duration": 0.9979166666666401
                },
                {
                    "name": "F3",
                    "midi": 53,
                    "time": 330.00000000000125,
                    "velocity": 0.6377952755905512,
                    "duration": 0.9979166666666401
                },
                {
                    "name": "C#3",
                    "midi": 49,
                    "time": 331.00000000000125,
                    "velocity": 0.6850393700787402,
                    "duration": 0.9979166666666401
                },
                {
                    "name": "D2",
                    "midi": 38,
                    "time": 331.00000000000125,
                    "velocity": 0.7322834645669292,
                    "duration": 0.9979166666666401
                },
                {
                    "name": "A3",
                    "midi": 57,
                    "time": 332.00000000000125,
                    "velocity": 0.7244094488188977,
                    "duration": 0.49791666666664014
                },
                {
                    "name": "D4",
                    "midi": 62,
                    "time": 332.00000000000125,
                    "velocity": 0.7795275590551181,
                    "duration": 0.49791666666664014
                },
                {
                    "name": "F3",
                    "midi": 53,
                    "time": 332.00000000000125,
                    "velocity": 0.6456692913385826,
                    "duration": 0.49791666666664014
                },
                {
                    "name": "D2",
                    "midi": 38,
                    "time": 332.50000000000125,
                    "velocity": 0.8503937007874016,
                    "duration": 0.49791666666664014
                },
                {
                    "name": "C3",
                    "midi": 48,
                    "time": 332.50000000000125,
                    "velocity": 0.7637795275590551,
                    "duration": 0.49791666666664014
                },
                {
                    "name": "D4",
                    "midi": 62,
                    "time": 333.00000000000125,
                    "velocity": 0.7716535433070866,
                    "duration": 0.49791666666664014
                },
                {
                    "name": "A3",
                    "midi": 57,
                    "time": 333.00000000000125,
                    "velocity": 0.6929133858267716,
                    "duration": 0.49791666666664014
                },
                {
                    "name": "F3",
                    "midi": 53,
                    "time": 333.00000000000125,
                    "velocity": 0.7244094488188977,
                    "duration": 0.49791666666664014
                },
                {
                    "name": "D5",
                    "midi": 74,
                    "time": 333.50000000000125,
                    "velocity": 0.8503937007874016,
                    "duration": 0.12291666666664014
                },
                {
                    "name": "D4",
                    "midi": 62,
                    "time": 333.62500000000125,
                    "velocity": 0.7795275590551181,
                    "duration": 0.12291666666664014
                },
                {
                    "name": "C#4",
                    "midi": 61,
                    "time": 333.75000000000125,
                    "velocity": 0.7952755905511811,
                    "duration": 0.12291666666664014
                },
                {
                    "name": "D4",
                    "midi": 62,
                    "time": 333.87500000000125,
                    "velocity": 0.7637795275590551,
                    "duration": 0.12291666666664014
                },
                {
                    "name": "D#4",
                    "midi": 63,
                    "time": 334.00000000000125,
                    "velocity": 0.8031496062992126,
                    "duration": 0.49791666666664014
                },
                {
                    "name": "B3",
                    "midi": 59,
                    "time": 334.00000000000125,
                    "velocity": 0.8031496062992126,
                    "duration": 0.49791666666664014
                },
                {
                    "name": "F#3",
                    "midi": 54,
                    "time": 334.00000000000125,
                    "velocity": 0.6929133858267716,
                    "duration": 0.49791666666664014
                },
                {
                    "name": "B2",
                    "midi": 47,
                    "time": 334.00000000000125,
                    "velocity": 0.8031496062992126,
                    "duration": 0.49791666666664014
                },
                {
                    "name": "B1",
                    "midi": 35,
                    "time": 334.00000000000125,
                    "velocity": 0.8110236220472441,
                    "duration": 0.49791666666664014
                },
                {
                    "name": "D#6",
                    "midi": 87,
                    "time": 334.50000000000125,
                    "velocity": 0.7795275590551181,
                    "duration": 0.12291666666664014
                },
                {
                    "name": "B3",
                    "midi": 59,
                    "time": 334.50000000000125,
                    "velocity": 0.7952755905511811,
                    "duration": 1.4979166666666401
                },
                {
                    "name": "D#4",
                    "midi": 63,
                    "time": 334.50000000000125,
                    "velocity": 0.7480314960629921,
                    "duration": 1.4979166666666401
                },
                {
                    "name": "F#3",
                    "midi": 54,
                    "time": 334.50000000000125,
                    "velocity": 0.7795275590551181,
                    "duration": 1.4979166666666401
                },
                {
                    "name": "D#5",
                    "midi": 75,
                    "time": 334.62500000000125,
                    "velocity": 0.8110236220472441,
                    "duration": 0.12291666666664014
                },
                {
                    "name": "G#4",
                    "midi": 68,
                    "time": 334.75000000000125,
                    "velocity": 0.7086614173228346,
                    "duration": 0.12291666666664014
                },
                {
                    "name": "A4",
                    "midi": 69,
                    "time": 334.87500000000125,
                    "velocity": 0.7795275590551181,
                    "duration": 0.12291666666664014
                },
                {
                    "name": "A#4",
                    "midi": 70,
                    "time": 335.00000000000125,
                    "velocity": 0.8031496062992126,
                    "duration": 0.24791666666664014
                },
                {
                    "name": "E3",
                    "midi": 52,
                    "time": 335.50000000000125,
                    "velocity": 0.6771653543307087,
                    "duration": 0.9979166666666401
                },
                {
                    "name": "B3",
                    "midi": 59,
                    "time": 336.00000000000125,
                    "velocity": 0.4566929133858268,
                    "duration": 0.49791666666664014
                },
                {
                    "name": "G3",
                    "midi": 55,
                    "time": 336.00000000000125,
                    "velocity": 0.5196850393700787,
                    "duration": 0.49791666666664014
                },
                {
                    "name": "D4",
                    "midi": 62,
                    "time": 336.00000000000125,
                    "velocity": 0.5511811023622047,
                    "duration": 0.49791666666664014
                },
                {
                    "name": "E4",
                    "midi": 64,
                    "time": 336.50000000000125,
                    "velocity": 0.7165354330708661,
                    "duration": 0.49791666666664014
                },
                {
                    "name": "G#3",
                    "midi": 56,
                    "time": 336.50000000000125,
                    "velocity": 0.28346456692913385,
                    "duration": 0.49791666666664014
                },
                {
                    "name": "B3",
                    "midi": 59,
                    "time": 336.50000000000125,
                    "velocity": 0.5669291338582677,
                    "duration": 0.49791666666664014
                },
                {
                    "name": "C#4",
                    "midi": 61,
                    "time": 336.50000000000125,
                    "velocity": 0.5354330708661418,
                    "duration": 0.49791666666664014
                },
                {
                    "name": "D3",
                    "midi": 50,
                    "time": 337.00000000000125,
                    "velocity": 0.6456692913385826,
                    "duration": 0.49791666666664014
                },
                {
                    "name": "A3",
                    "midi": 57,
                    "time": 337.50000000000125,
                    "velocity": 0.5275590551181102,
                    "duration": 0.49791666666664014
                },
                {
                    "name": "D4",
                    "midi": 62,
                    "time": 337.50000000000125,
                    "velocity": 0.4881889763779528,
                    "duration": 0.49791666666664014
                },
                {
                    "name": "F3",
                    "midi": 53,
                    "time": 337.50000000000125,
                    "velocity": 0.5748031496062992,
                    "duration": 0.49791666666664014
                },
                {
                    "name": "A3",
                    "midi": 57,
                    "time": 338.00000000000125,
                    "velocity": 0.6692913385826772,
                    "duration": 0.12291666666664014
                },
                {
                    "name": "D5",
                    "midi": 74,
                    "time": 338.00000000000125,
                    "velocity": 0.7322834645669292,
                    "duration": 0.12291666666664014
                },
                {
                    "name": "D4",
                    "midi": 62,
                    "time": 338.12500000000125,
                    "velocity": 0.6850393700787402,
                    "duration": 0.12291666666664014
                },
                {
                    "name": "A2",
                    "midi": 45,
                    "time": 338.12500000000125,
                    "velocity": 0.7401574803149606,
                    "duration": 0.12291666666664014
                },
                {
                    "name": "G#2",
                    "midi": 44,
                    "time": 338.25000000000125,
                    "velocity": 0.5669291338582677,
                    "duration": 0.12291666666664014
                },
                {
                    "name": "C#4",
                    "midi": 61,
                    "time": 338.25000000000125,
                    "velocity": 0.6456692913385826,
                    "duration": 0.12291666666664014
                },
                {
                    "name": "D4",
                    "midi": 62,
                    "time": 338.37500000000125,
                    "velocity": 0.7086614173228346,
                    "duration": 0.12291666666664014
                },
                {
                    "name": "A2",
                    "midi": 45,
                    "time": 338.37500000000125,
                    "velocity": 0.7322834645669292,
                    "duration": 0.12291666666664014
                },
                {
                    "name": "E3",
                    "midi": 52,
                    "time": 338.50000000000125,
                    "velocity": 0.7559055118110236,
                    "duration": 0.24791666666664014
                },
                {
                    "name": "B2",
                    "midi": 47,
                    "time": 338.50000000000125,
                    "velocity": 0.7086614173228346,
                    "duration": 0.24791666666664014
                },
                {
                    "name": "A3",
                    "midi": 57,
                    "time": 339.25000000000125,
                    "velocity": 0.6220472440944882,
                    "duration": 1.7479166666666401
                },
                {
                    "name": "F3",
                    "midi": 53,
                    "time": 339.25000000000125,
                    "velocity": 0.5511811023622047,
                    "duration": 1.7479166666666401
                },
                {
                    "name": "D4",
                    "midi": 62,
                    "time": 339.25000000000125,
                    "velocity": 0.5748031496062992,
                    "duration": 1.7479166666666401
                },
                {
                    "name": "D5",
                    "midi": 74,
                    "time": 341.00000000000125,
                    "velocity": 0.6141732283464567,
                    "duration": 0.12291666666664014
                },
                {
                    "name": "A3",
                    "midi": 57,
                    "time": 341.00000000000125,
                    "velocity": 0.5511811023622047,
                    "duration": 0.12291666666664014
                },
                {
                    "name": "A2",
                    "midi": 45,
                    "time": 341.12500000000125,
                    "velocity": 0.6220472440944882,
                    "duration": 0.12291666666664014
                },
                {
                    "name": "D4",
                    "midi": 62,
                    "time": 341.12500000000125,
                    "velocity": 0.5669291338582677,
                    "duration": 0.12291666666664014
                },
                {
                    "name": "C#4",
                    "midi": 61,
                    "time": 341.25000000000125,
                    "velocity": 0.5275590551181102,
                    "duration": 0.12291666666664014
                },
                {
                    "name": "G#2",
                    "midi": 44,
                    "time": 341.25000000000125,
                    "velocity": 0.44881889763779526,
                    "duration": 0.12291666666664014
                },
                {
                    "name": "A2",
                    "midi": 45,
                    "time": 341.37500000000125,
                    "velocity": 0.6141732283464567,
                    "duration": 0.12291666666664014
                },
                {
                    "name": "D4",
                    "midi": 62,
                    "time": 341.37500000000125,
                    "velocity": 0.5905511811023622,
                    "duration": 0.12291666666664014
                },
                {
                    "name": "B2",
                    "midi": 47,
                    "time": 341.50000000000125,
                    "velocity": 0.5905511811023622,
                    "duration": 0.24791666666664014
                },
                {
                    "name": "E3",
                    "midi": 52,
                    "time": 341.50000000000125,
                    "velocity": 0.6377952755905512,
                    "duration": 0.24791666666664014
                },
                {
                    "name": "F3",
                    "midi": 53,
                    "time": 342.25000000000125,
                    "velocity": 0.5984251968503937,
                    "duration": 4.24791666666664
                },
                {
                    "name": "D4",
                    "midi": 62,
                    "time": 342.25000000000125,
                    "velocity": 0.6456692913385826,
                    "duration": 4.24791666666664
                },
                {
                    "name": "A3",
                    "midi": 57,
                    "time": 342.25000000000125,
                    "velocity": 0.5669291338582677,
                    "duration": 4.24791666666664
                },
                {
                    "name": "B1",
                    "midi": 35,
                    "time": 344.50000000000125,
                    "velocity": 0.5354330708661418,
                    "duration": 0.24791666666664014
                },
                {
                    "name": "B2",
                    "midi": 47,
                    "time": 344.50000000000125,
                    "velocity": 0.5590551181102362,
                    "duration": 0.24791666666664014
                },
                {
                    "name": "E1",
                    "midi": 28,
                    "time": 345.00000000000125,
                    "velocity": 0.41732283464566927,
                    "duration": 0.24791666666664014
                },
                {
                    "name": "E2",
                    "midi": 40,
                    "time": 345.00000000000125,
                    "velocity": 0.48031496062992124,
                    "duration": 0.24791666666664014
                },
                {
                    "name": "E3",
                    "midi": 52,
                    "time": 346.6000000000012,
                    "velocity": 0.48031496062992124,
                    "duration": 0.09791666666666288
                },
                {
                    "name": "F3",
                    "midi": 53,
                    "time": 346.70000000000124,
                    "velocity": 0.5669291338582677,
                    "duration": 0.09791666666666288
                },
                {
                    "name": "A3",
                    "midi": 57,
                    "time": 346.80000000000126,
                    "velocity": 0.5354330708661418,
                    "duration": 0.09791666666666288
                },
                {
                    "name": "F3",
                    "midi": 53,
                    "time": 346.9000000000013,
                    "velocity": 0.5590551181102362,
                    "duration": 0.09791666666666288
                },
                {
                    "name": "E3",
                    "midi": 52,
                    "time": 347.0000000000013,
                    "velocity": 0.5118110236220472,
                    "duration": 0.19791666666668561
                },
                {
                    "name": "A3",
                    "midi": 57,
                    "time": 347.5000000000013,
                    "velocity": 0.5669291338582677,
                    "duration": 2.99791666666664
                },
                {
                    "name": "D4",
                    "midi": 62,
                    "time": 347.5000000000013,
                    "velocity": 0.5590551181102362,
                    "duration": 2.99791666666664
                },
                {
                    "name": "F3",
                    "midi": 53,
                    "time": 347.5000000000013,
                    "velocity": 0.5354330708661418,
                    "duration": 2.99791666666664
                },
                {
                    "name": "E3",
                    "midi": 52,
                    "time": 350.5000000000013,
                    "velocity": 0.44881889763779526,
                    "duration": 0.16458333333332575
                },
                {
                    "name": "F3",
                    "midi": 53,
                    "time": 350.666666666668,
                    "velocity": 0.5590551181102362,
                    "duration": 0.16458333333332575
                },
                {
                    "name": "A3",
                    "midi": 57,
                    "time": 350.8333333333347,
                    "velocity": 0.4881889763779528,
                    "duration": 0.16458333333332575
                },
                {
                    "name": "F3",
                    "midi": 53,
                    "time": 351.00000000000136,
                    "velocity": 0.5511811023622047,
                    "duration": 0.16458333333332575
                },
                {
                    "name": "A3",
                    "midi": 57,
                    "time": 351.16666666666805,
                    "velocity": 0.4566929133858268,
                    "duration": 0.16458333333332575
                },
                {
                    "name": "F3",
                    "midi": 53,
                    "time": 351.33333333333474,
                    "velocity": 0.41732283464566927,
                    "duration": 0.16458333333332575
                },
                {
                    "name": "E3",
                    "midi": 52,
                    "time": 351.5000000000014,
                    "velocity": 0.5669291338582677,
                    "duration": 0.16458333333332575
                },
                {
                    "name": "F3",
                    "midi": 53,
                    "time": 351.6666666666681,
                    "velocity": 0.49606299212598426,
                    "duration": 0.16458333333332575
                },
                {
                    "name": "A3",
                    "midi": 57,
                    "time": 351.8333333333348,
                    "velocity": 0.3937007874015748,
                    "duration": 0.16458333333332575
                },
                {
                    "name": "F3",
                    "midi": 53,
                    "time": 352.0000000000015,
                    "velocity": 0.49606299212598426,
                    "duration": 0.16458333333332575
                },
                {
                    "name": "A3",
                    "midi": 57,
                    "time": 352.16666666666816,
                    "velocity": 0.3700787401574803,
                    "duration": 0.16458333333332575
                },
                {
                    "name": "F3",
                    "midi": 53,
                    "time": 352.33333333333485,
                    "velocity": 0.4330708661417323,
                    "duration": 0.16458333333332575
                },
                {
                    "name": "D#3",
                    "midi": 51,
                    "time": 352.50000000000153,
                    "velocity": 0.5196850393700787,
                    "duration": 0.16458333333332575
                },
                {
                    "name": "F3",
                    "midi": 53,
                    "time": 352.6666666666682,
                    "velocity": 0.5511811023622047,
                    "duration": 0.16458333333332575
                },
                {
                    "name": "A3",
                    "midi": 57,
                    "time": 352.8333333333349,
                    "velocity": 0.4015748031496063,
                    "duration": 0.16458333333332575
                },
                {
                    "name": "F3",
                    "midi": 53,
                    "time": 353.0000000000016,
                    "velocity": 0.4409448818897638,
                    "duration": 0.16458333333332575
                },
                {
                    "name": "A3",
                    "midi": 57,
                    "time": 353.1666666666683,
                    "velocity": 0.4094488188976378,
                    "duration": 0.16458333333332575
                },
                {
                    "name": "F3",
                    "midi": 53,
                    "time": 353.33333333333496,
                    "velocity": 0.5511811023622047,
                    "duration": 0.16458333333332575
                },
                {
                    "name": "D#3",
                    "midi": 51,
                    "time": 353.50000000000165,
                    "velocity": 0.5196850393700787,
                    "duration": 0.16458333333332575
                },
                {
                    "name": "F3",
                    "midi": 53,
                    "time": 353.66666666666833,
                    "velocity": 0.5354330708661418,
                    "duration": 0.16458333333332575
                },
                {
                    "name": "A3",
                    "midi": 57,
                    "time": 353.833333333335,
                    "velocity": 0.4330708661417323,
                    "duration": 0.16458333333332575
                },
                {
                    "name": "F3",
                    "midi": 53,
                    "time": 354.0000000000017,
                    "velocity": 0.5511811023622047,
                    "duration": 0.16458333333332575
                },
                {
                    "name": "A3",
                    "midi": 57,
                    "time": 354.1666666666684,
                    "velocity": 0.44881889763779526,
                    "duration": 0.16458333333332575
                },
                {
                    "name": "F3",
                    "midi": 53,
                    "time": 354.3333333333351,
                    "velocity": 0.47244094488188976,
                    "duration": 0.16458333333332575
                },
                {
                    "name": "D3",
                    "midi": 50,
                    "time": 354.50000000000176,
                    "velocity": 0.6377952755905512,
                    "duration": 0.16458333333332575
                },
                {
                    "name": "F3",
                    "midi": 53,
                    "time": 354.66666666666845,
                    "velocity": 0.5511811023622047,
                    "duration": 0.16458333333332575
                },
                {
                    "name": "D4",
                    "midi": 62,
                    "time": 354.75000000000176,
                    "velocity": 0.6456692913385826,
                    "duration": 0.24791666666669698
                },
                {
                    "name": "A3",
                    "midi": 57,
                    "time": 354.83333333333513,
                    "velocity": 0.47244094488188976,
                    "duration": 0.16458333333332575
                },
                {
                    "name": "F4",
                    "midi": 65,
                    "time": 355.0000000000018,
                    "velocity": 0.6456692913385826,
                    "duration": 0.7479166666667538
                },
                {
                    "name": "F3",
                    "midi": 53,
                    "time": 355.0000000000018,
                    "velocity": 0.5196850393700787,
                    "duration": 0.16458333333332575
                },
                {
                    "name": "A3",
                    "midi": 57,
                    "time": 355.1666666666685,
                    "velocity": 0.33858267716535434,
                    "duration": 0.16458333333332575
                },
                {
                    "name": "F3",
                    "midi": 53,
                    "time": 355.3333333333352,
                    "velocity": 0.5196850393700787,
                    "duration": 0.16458333333332575
                },
                {
                    "name": "C3",
                    "midi": 48,
                    "time": 355.5000000000019,
                    "velocity": 0.5590551181102362,
                    "duration": 0.16458333333332575
                },
                {
                    "name": "E3",
                    "midi": 52,
                    "time": 355.66666666666856,
                    "velocity": 0.5511811023622047,
                    "duration": 0.1645833333333826
                },
                {
                    "name": "E4",
                    "midi": 64,
                    "time": 355.75000000000193,
                    "velocity": 0.6062992125984252,
                    "duration": 0.24791666666669698
                },
                {
                    "name": "A3",
                    "midi": 57,
                    "time": 355.8333333333353,
                    "velocity": 0.41732283464566927,
                    "duration": 0.16458333333332575
                },
                {
                    "name": "G4",
                    "midi": 67,
                    "time": 356.000000000002,
                    "velocity": 0.6141732283464567,
                    "duration": 0.7479166666667538
                },
                {
                    "name": "E3",
                    "midi": 52,
                    "time": 356.000000000002,
                    "velocity": 0.5354330708661418,
                    "duration": 0.16458333333332575
                },
                {
                    "name": "A3",
                    "midi": 57,
                    "time": 356.1666666666687,
                    "velocity": 0.4330708661417323,
                    "duration": 0.16458333333332575
                },
                {
                    "name": "F4",
                    "midi": 65,
                    "time": 356.250000000002,
                    "velocity": 0.5275590551181102,
                    "duration": 0.24791666666669698
                },
                {
                    "name": "E3",
                    "midi": 52,
                    "time": 356.33333333333536,
                    "velocity": 0.47244094488188976,
                    "duration": 0.16458333333332575
                },
                {
                    "name": "E4",
                    "midi": 64,
                    "time": 356.50000000000205,
                    "velocity": 0.5511811023622047,
                    "duration": 0.24791666666669698
                },
                {
                    "name": "B2",
                    "midi": 47,
                    "time": 356.50000000000205,
                    "velocity": 0.5590551181102362,
                    "duration": 0.16458333333332575
                },
                {
                    "name": "F3",
                    "midi": 53,
                    "time": 356.66666666666873,
                    "velocity": 0.5590551181102362,
                    "duration": 0.1645833333333826
                },
                {
                    "name": "C#4",
                    "midi": 61,
                    "time": 356.7500000000021,
                    "velocity": 0.49606299212598426,
                    "duration": 0.24791666666669698
                },
                {
                    "name": "F4",
                    "midi": 65,
                    "time": 356.7500000000021,
                    "velocity": 0.6062992125984252,
                    "duration": 0.24791666666669698
                },
                {
                    "name": "A3",
                    "midi": 57,
                    "time": 356.8333333333355,
                    "velocity": 0.3779527559055118,
                    "duration": 0.16458333333332575
                },
                {
                    "name": "D4",
                    "midi": 62,
                    "time": 357.00000000000216,
                    "velocity": 0.5196850393700787,
                    "duration": 0.24791666666669698
                },
                {
                    "name": "A4",
                    "midi": 69,
                    "time": 357.00000000000216,
                    "velocity": 0.6220472440944882,
                    "duration": 0.7479166666668107
                },
                {
                    "name": "F3",
                    "midi": 53,
                    "time": 357.00000000000216,
                    "velocity": 0.41732283464566927,
                    "duration": 0.16458333333332575
                },
                {
                    "name": "A3",
                    "midi": 57,
                    "time": 357.16666666666885,
                    "velocity": 0.3779527559055118,
                    "duration": 0.1645833333333826
                },
                {
                    "name": "F4",
                    "midi": 65,
                    "time": 357.2500000000022,
                    "velocity": 0.5275590551181102,
                    "duration": 0.24791666666669698
                },
                {
                    "name": "F3",
                    "midi": 53,
                    "time": 357.3333333333356,
                    "velocity": 0.3858267716535433,
                    "duration": 0.16458333333332575
                },
                {
                    "name": "G4",
                    "midi": 67,
                    "time": 357.5000000000023,
                    "velocity": 0.5590551181102362,
                    "duration": 0.4979166666667538
                },
                {
                    "name": "A#2",
                    "midi": 46,
                    "time": 357.5000000000023,
                    "velocity": 0.6377952755905512,
                    "duration": 0.16458333333332575
                },
                {
                    "name": "E3",
                    "midi": 52,
                    "time": 357.66666666666896,
                    "velocity": 0.49606299212598426,
                    "duration": 0.1645833333333826
                },
                {
                    "name": "G4",
                    "midi": 67,
                    "time": 357.75000000000233,
                    "velocity": 0.5984251968503937,
                    "duration": 0.24791666666669698
                },
                {
                    "name": "G3",
                    "midi": 55,
                    "time": 357.8333333333357,
                    "velocity": 0.47244094488188976,
                    "duration": 0.16458333333332575
                },
                {
                    "name": "F#4",
                    "midi": 66,
                    "time": 358.0000000000024,
                    "velocity": 0.5590551181102362,
                    "duration": 0.497916666666697
                },
                {
                    "name": "A#4",
                    "midi": 70,
                    "time": 358.0000000000024,
                    "velocity": 0.5984251968503937,
                    "duration": 0.7479166666667538
                },
                {
                    "name": "E3",
                    "midi": 52,
                    "time": 358.0000000000024,
                    "velocity": 0.4881889763779528,
                    "duration": 0.16458333333332575
                },
                {
                    "name": "G3",
                    "midi": 55,
                    "time": 358.1666666666691,
                    "velocity": 0.44881889763779526,
                    "duration": 0.16458333333332575
                },
                {
                    "name": "E3",
                    "midi": 52,
                    "time": 358.33333333333576,
                    "velocity": 0.29133858267716534,
                    "duration": 0.16458333333332575
                },
                {
                    "name": "F4",
                    "midi": 65,
                    "time": 358.50000000000244,
                    "velocity": 0.6062992125984252,
                    "duration": 0.4979166666667538
                },
                {
                    "name": "A2",
                    "midi": 45,
                    "time": 358.50000000000244,
                    "velocity": 0.5984251968503937,
                    "duration": 0.16458333333332575
                },
                {
                    "name": "C3",
                    "midi": 48,
                    "time": 358.66666666666913,
                    "velocity": 0.5275590551181102,
                    "duration": 0.1645833333333826
                },
                {
                    "name": "A4",
                    "midi": 69,
                    "time": 358.7500000000025,
                    "velocity": 0.6220472440944882,
                    "duration": 0.24791666666669698
                },
                {
                    "name": "A3",
                    "midi": 57,
                    "time": 358.8333333333359,
                    "velocity": 0.4015748031496063,
                    "duration": 0.16458333333332575
                },
                {
                    "name": "E4",
                    "midi": 64,
                    "time": 359.00000000000256,
                    "velocity": 0.5748031496062992,
                    "duration": 0.497916666666697
                },
                {
                    "name": "C5",
                    "midi": 72,
                    "time": 359.00000000000256,
                    "velocity": 0.6141732283464567,
                    "duration": 0.7479166666667538
                },
                {
                    "name": "C3",
                    "midi": 48,
                    "time": 359.00000000000256,
                    "velocity": 0.5275590551181102,
                    "duration": 0.16458333333332575
                },
                {
                    "name": "A3",
                    "midi": 57,
                    "time": 359.16666666666924,
                    "velocity": 0.4094488188976378,
                    "duration": 0.16458333333332575
                },
                {
                    "name": "C3",
                    "midi": 48,
                    "time": 359.33333333333593,
                    "velocity": 0.5669291338582677,
                    "duration": 0.16458333333332575
                },
                {
                    "name": "D#4",
                    "midi": 63,
                    "time": 359.5000000000026,
                    "velocity": 0.49606299212598426,
                    "duration": 0.4979166666667538
                },
                {
                    "name": "G2",
                    "midi": 43,
                    "time": 359.5000000000026,
                    "velocity": 0.6141732283464567,
                    "duration": 0.16458333333332575
                },
                {
                    "name": "D3",
                    "midi": 50,
                    "time": 359.6666666666693,
                    "velocity": 0.5905511811023622,
                    "duration": 0.1645833333333826
                },
                {
                    "name": "A#4",
                    "midi": 70,
                    "time": 359.7500000000027,
                    "velocity": 0.5905511811023622,
                    "duration": 0.24791666666669698
                },
                {
                    "name": "A#3",
                    "midi": 58,
                    "time": 359.83333333333604,
                    "velocity": 0.44881889763779526,
                    "duration": 0.16458333333332575
                },
                {
                    "name": "D4",
                    "midi": 62,
                    "time": 360.00000000000273,
                    "velocity": 0.5511811023622047,
                    "duration": 0.24791666666669698
                },
                {
                    "name": "D5",
                    "midi": 74,
                    "time": 360.00000000000273,
                    "velocity": 0.6614173228346457,
                    "duration": 0.7479166666667538
                },
                {
                    "name": "D3",
                    "midi": 50,
                    "time": 360.00000000000273,
                    "velocity": 0.47244094488188976,
                    "duration": 0.16458333333332575
                },
                {
                    "name": "A#3",
                    "midi": 58,
                    "time": 360.1666666666694,
                    "velocity": 0.44881889763779526,
                    "duration": 0.1645833333333826
                },
                {
                    "name": "F4",
                    "midi": 65,
                    "time": 360.2500000000028,
                    "velocity": 0.5984251968503937,
                    "duration": 0.24791666666669698
                },
                {
                    "name": "D3",
                    "midi": 50,
                    "time": 360.33333333333616,
                    "velocity": 0.49606299212598426,
                    "duration": 0.16458333333332575
                },
                {
                    "name": "A#4",
                    "midi": 70,
                    "time": 360.50000000000284,
                    "velocity": 0.5669291338582677,
                    "duration": 0.24791666666664014
                },
                {
                    "name": "F2",
                    "midi": 41,
                    "time": 360.50000000000284,
                    "velocity": 0.6929133858267716,
                    "duration": 0.24791666666664014
                },
                {
                    "name": "C5",
                    "midi": 72,
                    "time": 360.75000000000284,
                    "velocity": 0.6456692913385826,
                    "duration": 0.24791666666664014
                },
                {
                    "name": "E5",
                    "midi": 76,
                    "time": 360.75000000000284,
                    "velocity": 0.6456692913385826,
                    "duration": 0.24791666666664014
                },
                {
                    "name": "C5",
                    "midi": 72,
                    "time": 360.75000000000284,
                    "velocity": 0.6377952755905512,
                    "duration": 0.24791666666664014
                },
                {
                    "name": "G2",
                    "midi": 43,
                    "time": 360.75000000000284,
                    "velocity": 0.6535433070866141,
                    "duration": 0.24791666666664014
                },
                {
                    "name": "E2",
                    "midi": 40,
                    "time": 360.75000000000284,
                    "velocity": 0.6614173228346457,
                    "duration": 0.24791666666664014
                },
                {
                    "name": "D5",
                    "midi": 74,
                    "time": 361.00000000000284,
                    "velocity": 0.6535433070866141,
                    "duration": 0.24791666666664014
                },
                {
                    "name": "B4",
                    "midi": 71,
                    "time": 361.00000000000284,
                    "velocity": 0.7165354330708661,
                    "duration": 0.24791666666664014
                },
                {
                    "name": "F5",
                    "midi": 77,
                    "time": 361.00000000000284,
                    "velocity": 0.6377952755905512,
                    "duration": 0.24791666666664014
                },
                {
                    "name": "G#2",
                    "midi": 44,
                    "time": 361.00000000000284,
                    "velocity": 0.6614173228346457,
                    "duration": 0.24791666666664014
                },
                {
                    "name": "D2",
                    "midi": 38,
                    "time": 361.00000000000284,
                    "velocity": 0.6456692913385826,
                    "duration": 0.24791666666664014
                },
                {
                    "name": "F2",
                    "midi": 41,
                    "time": 361.00000000000284,
                    "velocity": 0.6220472440944882,
                    "duration": 0.24791666666664014
                },
                {
                    "name": "A5",
                    "midi": 81,
                    "time": 361.37500000000284,
                    "velocity": 0.7795275590551181,
                    "duration": 0.12291666666664014
                },
                {
                    "name": "A1",
                    "midi": 33,
                    "time": 361.37500000000284,
                    "velocity": 0.6456692913385826,
                    "duration": 0.12291666666664014
                },
                {
                    "name": "A2",
                    "midi": 45,
                    "time": 361.37500000000284,
                    "velocity": 0.6614173228346457,
                    "duration": 0.12291666666664014
                },
                {
                    "name": "A4",
                    "midi": 69,
                    "time": 361.50000000000284,
                    "velocity": 0.7401574803149606,
                    "duration": 0.24791666666669698
                },
                {
                    "name": "D2",
                    "midi": 38,
                    "time": 361.50000000000284,
                    "velocity": 0.7559055118110236,
                    "duration": 0.24791666666669698
                },
                {
                    "name": "D3",
                    "midi": 50,
                    "time": 361.50000000000284,
                    "velocity": 0.7244094488188977,
                    "duration": 0.24791666666669698
                },
                {
                    "name": "F4",
                    "midi": 65,
                    "time": 361.6666666666695,
                    "velocity": 0.6929133858267716,
                    "duration": 0.1645833333333826
                },
                {
                    "name": "D5",
                    "midi": 74,
                    "time": 361.7500000000029,
                    "velocity": 0.7716535433070866,
                    "duration": 0.24791666666669698
                },
                {
                    "name": "A4",
                    "midi": 69,
                    "time": 361.83333333333627,
                    "velocity": 0.4881889763779528,
                    "duration": 0.16458333333332575
                },
                {
                    "name": "F5",
                    "midi": 77,
                    "time": 362.00000000000296,
                    "velocity": 0.8818897637795275,
                    "duration": 0.7479166666667538
                },
                {
                    "name": "F4",
                    "midi": 65,
                    "time": 362.00000000000296,
                    "velocity": 0.6929133858267716,
                    "duration": 0.16458333333332575
                },
                {
                    "name": "A4",
                    "midi": 69,
                    "time": 362.16666666666964,
                    "velocity": 0.5905511811023622,
                    "duration": 0.16458333333332575
                },
                {
                    "name": "C6",
                    "midi": 84,
                    "time": 362.25000000000296,
                    "velocity": 0.7401574803149606,
                    "duration": 0.12291666666669698
                },
                {
                    "name": "F4",
                    "midi": 65,
                    "time": 362.3333333333363,
                    "velocity": 0.6141732283464567,
                    "duration": 0.16458333333332575
                },
                {
                    "name": "C5",
                    "midi": 72,
                    "time": 362.500000000003,
                    "velocity": 0.6692913385826772,
                    "duration": 0.4979166666667538
                },
                {
                    "name": "C4",
                    "midi": 60,
                    "time": 362.500000000003,
                    "velocity": 0.7244094488188977,
                    "duration": 0.24791666666669698
                },
                {
                    "name": "C3",
                    "midi": 48,
                    "time": 362.500000000003,
                    "velocity": 0.7401574803149606,
                    "duration": 0.24791666666669698
                },
                {
                    "name": "E4",
                    "midi": 64,
                    "time": 362.6666666666697,
                    "velocity": 0.6850393700787402,
                    "duration": 0.1645833333333826
                },
                {
                    "name": "E5",
                    "midi": 76,
                    "time": 362.75000000000307,
                    "velocity": 0.6771653543307087,
                    "duration": 0.24791666666669698
                },
                {
                    "name": "A4",
                    "midi": 69,
                    "time": 362.83333333333644,
                    "velocity": 0.7086614173228346,
                    "duration": 0.16458333333332575
                },
                {
                    "name": "G5",
                    "midi": 79,
                    "time": 363.0000000000031,
                    "velocity": 0.7716535433070866,
                    "duration": 0.7479166666667538
                },
                {
                    "name": "E4",
                    "midi": 64,
                    "time": 363.0000000000031,
                    "velocity": 0.6456692913385826,
                    "duration": 0.16458333333332575
                },
                {
                    "name": "A4",
                    "midi": 69,
                    "time": 363.1666666666698,
                    "velocity": 0.6929133858267716,
                    "duration": 0.16458333333332575
                },
                {
                    "name": "F5",
                    "midi": 77,
                    "time": 363.2500000000031,
                    "velocity": 0.7165354330708661,
                    "duration": 0.24791666666669698
                },
                {
                    "name": "E4",
                    "midi": 64,
                    "time": 363.3333333333365,
                    "velocity": 0.6456692913385826,
                    "duration": 0.16458333333332575
                },
                {
                    "name": "E5",
                    "midi": 76,
                    "time": 363.5000000000032,
                    "velocity": 0.7322834645669292,
                    "duration": 0.24791666666669698
                },
                {
                    "name": "B3",
                    "midi": 59,
                    "time": 363.5000000000032,
                    "velocity": 0.6850393700787402,
                    "duration": 0.24791666666669698
                },
                {
                    "name": "B2",
                    "midi": 47,
                    "time": 363.5000000000032,
                    "velocity": 0.7322834645669292,
                    "duration": 0.24791666666669698
                },
                {
                    "name": "F4",
                    "midi": 65,
                    "time": 363.66666666666987,
                    "velocity": 0.6692913385826772,
                    "duration": 0.1645833333333826
                },
                {
                    "name": "C#5",
                    "midi": 73,
                    "time": 363.75000000000324,
                    "velocity": 0.6456692913385826,
                    "duration": 0.24791666666669698
                },
                {
                    "name": "F5",
                    "midi": 77,
                    "time": 363.75000000000324,
                    "velocity": 0.7086614173228346,
                    "duration": 0.24791666666669698
                },
                {
                    "name": "A4",
                    "midi": 69,
                    "time": 363.8333333333366,
                    "velocity": 0.6929133858267716,
                    "duration": 0.16458333333332575
                },
                {
                    "name": "D5",
                    "midi": 74,
                    "time": 364.0000000000033,
                    "velocity": 0.7401574803149606,
                    "duration": 0.24791666666669698
                },
                {
                    "name": "A5",
                    "midi": 81,
                    "time": 364.0000000000033,
                    "velocity": 0.8110236220472441,
                    "duration": 0.7479166666668107
                },
                {
                    "name": "F4",
                    "midi": 65,
                    "time": 364.0000000000033,
                    "velocity": 0.6692913385826772,
                    "duration": 0.16458333333332575
                },
                {
                    "name": "A4",
                    "midi": 69,
                    "time": 364.16666666667,
                    "velocity": 0.6850393700787402,
                    "duration": 0.1645833333333826
                },
                {
                    "name": "F5",
                    "midi": 77,
                    "time": 364.25000000000335,
                    "velocity": 0.6929133858267716,
                    "duration": 0.24791666666669698
                },
                {
                    "name": "F4",
                    "midi": 65,
                    "time": 364.3333333333367,
                    "velocity": 0.6062992125984252,
                    "duration": 0.16458333333332575
                },
                {
                    "name": "G5",
                    "midi": 79,
                    "time": 364.5000000000034,
                    "velocity": 0.7559055118110236,
                    "duration": 0.4979166666667538
                },
                {
                    "name": "A#3",
                    "midi": 58,
                    "time": 364.5000000000034,
                    "velocity": 0.6771653543307087,
                    "duration": 0.24791666666669698
                },
                {
                    "name": "A#2",
                    "midi": 46,
                    "time": 364.5000000000034,
                    "velocity": 0.6771653543307087,
                    "duration": 0.24791666666669698
                },
                {
                    "name": "E4",
                    "midi": 64,
                    "time": 364.6666666666701,
                    "velocity": 0.6771653543307087,
                    "duration": 0.1645833333333826
                },
                {
                    "name": "G5",
                    "midi": 79,
                    "time": 364.75000000000347,
                    "velocity": 0.6929133858267716,
                    "duration": 0.24791666666669698
                },
                {
                    "name": "G4",
                    "midi": 67,
                    "time": 364.83333333333684,
                    "velocity": 0.6535433070866141,
                    "duration": 0.16458333333332575
                },
                {
                    "name": "F#5",
                    "midi": 78,
                    "time": 365.0000000000035,
                    "velocity": 0.6929133858267716,
                    "duration": 0.497916666666697
                },
                {
                    "name": "A#5",
                    "midi": 82,
                    "time": 365.0000000000035,
                    "velocity": 0.8818897637795275,
                    "duration": 0.9979166666668107
                },
                {
                    "name": "E4",
                    "midi": 64,
                    "time": 365.0000000000035,
                    "velocity": 0.6456692913385826,
                    "duration": 0.16458333333332575
                },
                {
                    "name": "G4",
                    "midi": 67,
                    "time": 365.1666666666702,
                    "velocity": 0.6456692913385826,
                    "duration": 0.16458333333332575
                },
                {
                    "name": "A6",
                    "midi": 93,
                    "time": 365.2500000000035,
                    "velocity": 0.7637795275590551,
                    "duration": 0.12291666666669698
                },
                {
                    "name": "E4",
                    "midi": 64,
                    "time": 365.3333333333369,
                    "velocity": 0.5905511811023622,
                    "duration": 0.16458333333332575
                },
                {
                    "name": "F5",
                    "midi": 77,
                    "time": 365.5000000000036,
                    "velocity": 0.7165354330708661,
                    "duration": 0.4979166666667538
                },
                {
                    "name": "A2",
                    "midi": 45,
                    "time": 365.5000000000036,
                    "velocity": 0.6850393700787402,
                    "duration": 0.24791666666669698
                },
                {
                    "name": "A3",
                    "midi": 57,
                    "time": 365.5000000000036,
                    "velocity": 0.6535433070866141,
                    "duration": 0.24791666666669698
                },
                {
                    "name": "C4",
                    "midi": 60,
                    "time": 365.66666666667027,
                    "velocity": 0.6692913385826772,
                    "duration": 0.1645833333333826
                },
                {
                    "name": "A5",
                    "midi": 81,
                    "time": 365.75000000000364,
                    "velocity": 0.7637795275590551,
                    "duration": 0.24791666666669698
                },
                {
                    "name": "A4",
                    "midi": 69,
                    "time": 365.833333333337,
                    "velocity": 0.6692913385826772,
                    "duration": 0.16458333333332575
                },
                {
                    "name": "C6",
                    "midi": 84,
                    "time": 366.0000000000037,
                    "velocity": 0.7637795275590551,
                    "duration": 0.7479166666667538
                },
                {
                    "name": "E5",
                    "midi": 76,
                    "time": 366.0000000000037,
                    "velocity": 0.7086614173228346,
                    "duration": 0.497916666666697
                },
                {
                    "name": "C4",
                    "midi": 60,
                    "time": 366.0000000000037,
                    "velocity": 0.6850393700787402,
                    "duration": 0.16458333333332575
                },
                {
                    "name": "A4",
                    "midi": 69,
                    "time": 366.1666666666704,
                    "velocity": 0.6850393700787402,
                    "duration": 0.16458333333332575
                },
                {
                    "name": "C4",
                    "midi": 60,
                    "time": 366.33333333333707,
                    "velocity": 0.6535433070866141,
                    "duration": 0.16458333333332575
                },
                {
                    "name": "D#5",
                    "midi": 75,
                    "time": 366.50000000000375,
                    "velocity": 0.7086614173228346,
                    "duration": 0.4979166666667538
                },
                {
                    "name": "G2",
                    "midi": 43,
                    "time": 366.50000000000375,
                    "velocity": 0.6929133858267716,
                    "duration": 0.24791666666669698
                },
                {
                    "name": "G3",
                    "midi": 55,
                    "time": 366.50000000000375,
                    "velocity": 0.6850393700787402,
                    "duration": 0.24791666666669698
                },
                {
                    "name": "D4",
                    "midi": 62,
                    "time": 366.66666666667044,
                    "velocity": 0.6771653543307087,
                    "duration": 0.1645833333333826
                },
                {
                    "name": "A#5",
                    "midi": 82,
                    "time": 366.7500000000038,
                    "velocity": 0.7401574803149606,
                    "duration": 0.24791666666669698
                },
                {
                    "name": "A#4",
                    "midi": 70,
                    "time": 366.8333333333372,
                    "velocity": 0.6692913385826772,
                    "duration": 0.16458333333332575
                },
                {
                    "name": "D6",
                    "midi": 86,
                    "time": 367.00000000000387,
                    "velocity": 0.8582677165354331,
                    "duration": 0.7479166666668107
                },
                {
                    "name": "D5",
                    "midi": 74,
                    "time": 367.00000000000387,
                    "velocity": 0.6771653543307087,
                    "duration": 0.24791666666669698
                },
                {
                    "name": "D4",
                    "midi": 62,
                    "time": 367.00000000000387,
                    "velocity": 0.6850393700787402,
                    "duration": 0.16458333333332575
                },
                {
                    "name": "A#4",
                    "midi": 70,
                    "time": 367.16666666667055,
                    "velocity": 0.6456692913385826,
                    "duration": 0.1645833333333826
                },
                {
                    "name": "C7",
                    "midi": 96,
                    "time": 367.2500000000039,
                    "velocity": 0.7165354330708661,
                    "duration": 0.12291666666669698
                },
                {
                    "name": "F5",
                    "midi": 77,
                    "time": 367.2500000000039,
                    "velocity": 0.7165354330708661,
                    "duration": 0.24791666666669698
                },
                {
                    "name": "D4",
                    "midi": 62,
                    "time": 367.3333333333373,
                    "velocity": 0.7244094488188977,
                    "duration": 0.16458333333332575
                },
                {
                    "name": "F4",
                    "midi": 65,
                    "time": 367.500000000004,
                    "velocity": 0.7322834645669292,
                    "duration": 0.24791666666669698
                },
                {
                    "name": "G4",
                    "midi": 67,
                    "time": 367.500000000004,
                    "velocity": 0.7559055118110236,
                    "duration": 0.24791666666669698
                },
                {
                    "name": "D4",
                    "midi": 62,
                    "time": 367.500000000004,
                    "velocity": 0.7716535433070866,
                    "duration": 0.24791666666669698
                },
                {
                    "name": "A#5",
                    "midi": 82,
                    "time": 367.75000000000404,
                    "velocity": 0.7244094488188977,
                    "duration": 0.24791666666664014
                },
                {
                    "name": "C#6",
                    "midi": 85,
                    "time": 367.75000000000404,
                    "velocity": 0.7637795275590551,
                    "duration": 0.24791666666664014
                },
                {
                    "name": "E6",
                    "midi": 88,
                    "time": 367.75000000000404,
                    "velocity": 0.7952755905511811,
                    "duration": 0.24791666666664014
                },
                {
                    "name": "C4",
                    "midi": 60,
                    "time": 367.75000000000404,
                    "velocity": 0.7559055118110236,
                    "duration": 0.24791666666664014
                },
                {
                    "name": "E4",
                    "midi": 64,
                    "time": 367.75000000000404,
                    "velocity": 0.7637795275590551,
                    "duration": 0.24791666666664014
                },
                {
                    "name": "F#4",
                    "midi": 66,
                    "time": 367.75000000000404,
                    "velocity": 0.8110236220472441,
                    "duration": 0.24791666666664014
                },
                {
                    "name": "D6",
                    "midi": 86,
                    "time": 368.00000000000404,
                    "velocity": 0.7716535433070866,
                    "duration": 0.24791666666664014
                },
                {
                    "name": "F6",
                    "midi": 89,
                    "time": 368.00000000000404,
                    "velocity": 0.7559055118110236,
                    "duration": 0.24791666666664014
                },
                {
                    "name": "B5",
                    "midi": 83,
                    "time": 368.00000000000404,
                    "velocity": 0.7716535433070866,
                    "duration": 0.24791666666664014
                },
                {
                    "name": "F4",
                    "midi": 65,
                    "time": 368.00000000000404,
                    "velocity": 0.8346456692913385,
                    "duration": 0.24791666666664014
                },
                {
                    "name": "D4",
                    "midi": 62,
                    "time": 368.00000000000404,
                    "velocity": 0.7795275590551181,
                    "duration": 0.24791666666664014
                },
                {
                    "name": "A#3",
                    "midi": 58,
                    "time": 368.00000000000404,
                    "velocity": 0.7637795275590551,
                    "duration": 0.24791666666664014
                },
                {
                    "name": "A7",
                    "midi": 105,
                    "time": 368.37500000000404,
                    "velocity": 0.9212598425196851,
                    "duration": 0.12291666666669698
                },
                {
                    "name": "A6",
                    "midi": 93,
                    "time": 368.37500000000404,
                    "velocity": 0.8346456692913385,
                    "duration": 0.12291666666669698
                },
                {
                    "name": "A2",
                    "midi": 45,
                    "time": 368.37500000000404,
                    "velocity": 0.8110236220472441,
                    "duration": 0.12291666666669698
                },
                {
                    "name": "A1",
                    "midi": 33,
                    "time": 368.37500000000404,
                    "velocity": 0.8110236220472441,
                    "duration": 0.12291666666669698
                },
                {
                    "name": "F6",
                    "midi": 89,
                    "time": 368.5000000000041,
                    "velocity": 0.7716535433070866,
                    "duration": 0.49791666666664014
                },
                {
                    "name": "D7",
                    "midi": 98,
                    "time": 368.5000000000041,
                    "velocity": 0.8582677165354331,
                    "duration": 0.49791666666664014
                },
                {
                    "name": "A6",
                    "midi": 93,
                    "time": 368.5000000000041,
                    "velocity": 0.7952755905511811,
                    "duration": 0.49791666666664014
                },
                {
                    "name": "D6",
                    "midi": 86,
                    "time": 368.5000000000041,
                    "velocity": 0.7559055118110236,
                    "duration": 0.49791666666664014
                },
                {
                    "name": "D3",
                    "midi": 50,
                    "time": 368.5000000000041,
                    "velocity": 0.8818897637795275,
                    "duration": 0.49791666666664014
                },
                {
                    "name": "F2",
                    "midi": 41,
                    "time": 368.5000000000041,
                    "velocity": 0.8346456692913385,
                    "duration": 0.49791666666664014
                },
                {
                    "name": "A2",
                    "midi": 45,
                    "time": 368.5000000000041,
                    "velocity": 0.7716535433070866,
                    "duration": 0.49791666666664014
                },
                {
                    "name": "D2",
                    "midi": 38,
                    "time": 368.5000000000041,
                    "velocity": 0.8346456692913385,
                    "duration": 0.49791666666664014
                }
            ],
            "controlChanges": {
                "5": [
                    {
                        "number": 5,
                        "time": 0.03645833333333333,
                        "value": 0
                    }
                ],
                "6": [
                    {
                        "number": 6,
                        "time": 1.0104166666666665,
                        "value": 0.015748031496062992
                    }
                ],
                "7": [
                    {
                        "number": 7,
                        "time": 0.010416666666666666,
                        "value": 1
                    }
                ],
                "10": [
                    {
                        "number": 10,
                        "time": 0,
                        "value": 0.5039370078740157
                    },
                    {
                        "number": 10,
                        "time": 0.015625,
                        "value": 0.5039370078740157
                    }
                ],
                "11": [
                    {
                        "number": 11,
                        "time": 0.041666666666666664,
                        "value": 1
                    }
                ],
                "64": [
                    {
                        "number": 64,
                        "time": 3.0229166666666667,
                        "value": 1
                    },
                    {
                        "number": 64,
                        "time": 3.9677083333333325,
                        "value": 0
                    },
                    {
                        "number": 64,
                        "time": 4.022916666666665,
                        "value": 1
                    },
                    {
                        "number": 64,
                        "time": 4.967708333333332,
                        "value": 0
                    },
                    {
                        "number": 64,
                        "time": 5.0229166666666645,
                        "value": 1
                    },
                    {
                        "number": 64,
                        "time": 5.967708333333331,
                        "value": 0
                    },
                    {
                        "number": 64,
                        "time": 6.022916666666664,
                        "value": 1
                    },
                    {
                        "number": 64,
                        "time": 6.967708333333331,
                        "value": 0
                    },
                    {
                        "number": 64,
                        "time": 7.022916666666664,
                        "value": 1
                    },
                    {
                        "number": 64,
                        "time": 7.967708333333331,
                        "value": 0
                    },
                    {
                        "number": 64,
                        "time": 8.022916666666664,
                        "value": 1
                    },
                    {
                        "number": 64,
                        "time": 8.967708333333333,
                        "value": 0
                    },
                    {
                        "number": 64,
                        "time": 22.022916666666678,
                        "value": 1
                    },
                    {
                        "number": 64,
                        "time": 22.96770833333335,
                        "value": 0
                    },
                    {
                        "number": 64,
                        "time": 23.022916666666685,
                        "value": 1
                    },
                    {
                        "number": 64,
                        "time": 23.96770833333336,
                        "value": 0
                    },
                    {
                        "number": 64,
                        "time": 24.022916666666696,
                        "value": 1
                    },
                    {
                        "number": 64,
                        "time": 24.967708333333373,
                        "value": 0
                    },
                    {
                        "number": 64,
                        "time": 25.02291666666671,
                        "value": 1
                    },
                    {
                        "number": 64,
                        "time": 25.967708333333384,
                        "value": 0
                    },
                    {
                        "number": 64,
                        "time": 26.02291666666672,
                        "value": 1
                    },
                    {
                        "number": 64,
                        "time": 26.967708333333395,
                        "value": 0
                    },
                    {
                        "number": 64,
                        "time": 27.02291666666673,
                        "value": 1
                    },
                    {
                        "number": 64,
                        "time": 27.967708333333405,
                        "value": 0
                    },
                    {
                        "number": 64,
                        "time": 33.00937500000007,
                        "value": 1
                    },
                    {
                        "number": 64,
                        "time": 37.2520833333334,
                        "value": 0
                    },
                    {
                        "number": 64,
                        "time": 49.04166666666673,
                        "value": 1
                    },
                    {
                        "number": 64,
                        "time": 49.919791666666725,
                        "value": 0
                    },
                    {
                        "number": 64,
                        "time": 51.04166666666672,
                        "value": 1
                    },
                    {
                        "number": 64,
                        "time": 51.91979166666672,
                        "value": 0
                    },
                    {
                        "number": 64,
                        "time": 52.041666666666714,
                        "value": 1
                    },
                    {
                        "number": 64,
                        "time": 52.91979166666671,
                        "value": 0
                    },
                    {
                        "number": 64,
                        "time": 53.04166666666671,
                        "value": 1
                    },
                    {
                        "number": 64,
                        "time": 53.919791666666704,
                        "value": 0
                    },
                    {
                        "number": 64,
                        "time": 54.0416666666667,
                        "value": 1
                    },
                    {
                        "number": 64,
                        "time": 54.9197916666667,
                        "value": 0
                    },
                    {
                        "number": 64,
                        "time": 55.04166666666669,
                        "value": 1
                    },
                    {
                        "number": 64,
                        "time": 55.91979166666668,
                        "value": 0
                    },
                    {
                        "number": 64,
                        "time": 56.04166666666668,
                        "value": 1
                    },
                    {
                        "number": 64,
                        "time": 56.919791666666676,
                        "value": 0
                    },
                    {
                        "number": 64,
                        "time": 57.04166666666667,
                        "value": 1
                    },
                    {
                        "number": 64,
                        "time": 57.91979166666667,
                        "value": 0
                    },
                    {
                        "number": 64,
                        "time": 58.041666666666664,
                        "value": 1
                    },
                    {
                        "number": 64,
                        "time": 58.91979166666666,
                        "value": 0
                    },
                    {
                        "number": 64,
                        "time": 59.04166666666666,
                        "value": 1
                    },
                    {
                        "number": 64,
                        "time": 59.91979166666665,
                        "value": 0
                    },
                    {
                        "number": 64,
                        "time": 60.04166666666664,
                        "value": 1
                    },
                    {
                        "number": 64,
                        "time": 60.91979166666664,
                        "value": 0
                    },
                    {
                        "number": 64,
                        "time": 61.041666666666636,
                        "value": 1
                    },
                    {
                        "number": 64,
                        "time": 61.919791666666626,
                        "value": 0
                    },
                    {
                        "number": 64,
                        "time": 62.04166666666662,
                        "value": 1
                    },
                    {
                        "number": 64,
                        "time": 62.91979166666662,
                        "value": 0
                    },
                    {
                        "number": 64,
                        "time": 63.041666666666615,
                        "value": 1
                    },
                    {
                        "number": 64,
                        "time": 63.91979166666661,
                        "value": 0
                    },
                    {
                        "number": 64,
                        "time": 64.04166666666661,
                        "value": 1
                    },
                    {
                        "number": 64,
                        "time": 64.91979166666661,
                        "value": 0
                    },
                    {
                        "number": 64,
                        "time": 65.04166666666661,
                        "value": 1
                    },
                    {
                        "number": 64,
                        "time": 65.91979166666661,
                        "value": 0
                    },
                    {
                        "number": 64,
                        "time": 66.04166666666661,
                        "value": 1
                    },
                    {
                        "number": 64,
                        "time": 66.91979166666661,
                        "value": 0
                    },
                    {
                        "number": 64,
                        "time": 67.01562499999994,
                        "value": 1
                    },
                    {
                        "number": 64,
                        "time": 67.96249999999995,
                        "value": 0
                    },
                    {
                        "number": 64,
                        "time": 68.04374999999995,
                        "value": 1
                    },
                    {
                        "number": 64,
                        "time": 68.47395833333327,
                        "value": 0
                    },
                    {
                        "number": 64,
                        "time": 68.51562499999994,
                        "value": 1
                    },
                    {
                        "number": 64,
                        "time": 69.46249999999995,
                        "value": 0
                    },
                    {
                        "number": 64,
                        "time": 69.54374999999995,
                        "value": 1
                    },
                    {
                        "number": 64,
                        "time": 69.97395833333327,
                        "value": 0
                    },
                    {
                        "number": 64,
                        "time": 70.01562499999994,
                        "value": 1
                    },
                    {
                        "number": 64,
                        "time": 70.96249999999995,
                        "value": 0
                    },
                    {
                        "number": 64,
                        "time": 71.04374999999995,
                        "value": 1
                    },
                    {
                        "number": 64,
                        "time": 71.47395833333327,
                        "value": 0
                    },
                    {
                        "number": 64,
                        "time": 71.51562499999994,
                        "value": 1
                    },
                    {
                        "number": 64,
                        "time": 72.46249999999995,
                        "value": 0
                    },
                    {
                        "number": 64,
                        "time": 72.54374999999995,
                        "value": 1
                    },
                    {
                        "number": 64,
                        "time": 72.97395833333327,
                        "value": 0
                    },
                    {
                        "number": 64,
                        "time": 73.01562499999994,
                        "value": 1
                    },
                    {
                        "number": 64,
                        "time": 73.96249999999995,
                        "value": 0
                    },
                    {
                        "number": 64,
                        "time": 74.04374999999995,
                        "value": 1
                    },
                    {
                        "number": 64,
                        "time": 74.47395833333327,
                        "value": 0
                    },
                    {
                        "number": 64,
                        "time": 74.51562499999994,
                        "value": 1
                    },
                    {
                        "number": 64,
                        "time": 75.46249999999995,
                        "value": 0
                    },
                    {
                        "number": 64,
                        "time": 75.54374999999995,
                        "value": 1
                    },
                    {
                        "number": 64,
                        "time": 75.97395833333327,
                        "value": 0
                    },
                    {
                        "number": 64,
                        "time": 76.01562499999994,
                        "value": 1
                    },
                    {
                        "number": 64,
                        "time": 76.96249999999995,
                        "value": 0
                    },
                    {
                        "number": 64,
                        "time": 77.04374999999995,
                        "value": 1
                    },
                    {
                        "number": 64,
                        "time": 77.47395833333327,
                        "value": 0
                    },
                    {
                        "number": 64,
                        "time": 77.51562499999994,
                        "value": 1
                    },
                    {
                        "number": 64,
                        "time": 78.46249999999995,
                        "value": 0
                    },
                    {
                        "number": 64,
                        "time": 78.54374999999995,
                        "value": 1
                    },
                    {
                        "number": 64,
                        "time": 78.97395833333327,
                        "value": 0
                    },
                    {
                        "number": 64,
                        "time": 79.01562499999994,
                        "value": 1
                    },
                    {
                        "number": 64,
                        "time": 79.96249999999995,
                        "value": 0
                    },
                    {
                        "number": 64,
                        "time": 80.04374999999995,
                        "value": 1
                    },
                    {
                        "number": 64,
                        "time": 80.47395833333327,
                        "value": 0
                    },
                    {
                        "number": 64,
                        "time": 80.51562499999994,
                        "value": 1
                    },
                    {
                        "number": 64,
                        "time": 81.46249999999995,
                        "value": 0
                    },
                    {
                        "number": 64,
                        "time": 81.54374999999995,
                        "value": 1
                    },
                    {
                        "number": 64,
                        "time": 81.97395833333327,
                        "value": 0
                    },
                    {
                        "number": 64,
                        "time": 82.01562499999994,
                        "value": 1
                    },
                    {
                        "number": 64,
                        "time": 82.96249999999995,
                        "value": 0
                    },
                    {
                        "number": 64,
                        "time": 83.04374999999995,
                        "value": 1
                    },
                    {
                        "number": 64,
                        "time": 83.47395833333327,
                        "value": 0
                    },
                    {
                        "number": 64,
                        "time": 83.51562499999994,
                        "value": 1
                    },
                    {
                        "number": 64,
                        "time": 84.46249999999995,
                        "value": 0
                    },
                    {
                        "number": 64,
                        "time": 84.54374999999995,
                        "value": 1
                    },
                    {
                        "number": 64,
                        "time": 84.97395833333327,
                        "value": 0
                    },
                    {
                        "number": 64,
                        "time": 85.01562499999994,
                        "value": 1
                    },
                    {
                        "number": 64,
                        "time": 85.96249999999995,
                        "value": 0
                    },
                    {
                        "number": 64,
                        "time": 86.04374999999995,
                        "value": 1
                    },
                    {
                        "number": 64,
                        "time": 86.47395833333327,
                        "value": 0
                    },
                    {
                        "number": 64,
                        "time": 86.51562499999994,
                        "value": 1
                    },
                    {
                        "number": 64,
                        "time": 87.46249999999995,
                        "value": 0
                    },
                    {
                        "number": 64,
                        "time": 87.54374999999995,
                        "value": 1
                    },
                    {
                        "number": 64,
                        "time": 87.97395833333327,
                        "value": 0
                    },
                    {
                        "number": 64,
                        "time": 88.01562499999994,
                        "value": 1
                    },
                    {
                        "number": 64,
                        "time": 88.96249999999995,
                        "value": 0
                    },
                    {
                        "number": 64,
                        "time": 89.04374999999995,
                        "value": 1
                    },
                    {
                        "number": 64,
                        "time": 89.47395833333327,
                        "value": 0
                    },
                    {
                        "number": 64,
                        "time": 89.51562499999994,
                        "value": 1
                    },
                    {
                        "number": 64,
                        "time": 90.46249999999995,
                        "value": 0
                    },
                    {
                        "number": 64,
                        "time": 90.54374999999995,
                        "value": 1
                    },
                    {
                        "number": 64,
                        "time": 90.97395833333327,
                        "value": 0
                    },
                    {
                        "number": 64,
                        "time": 96.01562499999994,
                        "value": 1
                    },
                    {
                        "number": 64,
                        "time": 96.96249999999995,
                        "value": 0
                    },
                    {
                        "number": 64,
                        "time": 97.04374999999995,
                        "value": 1
                    },
                    {
                        "number": 64,
                        "time": 97.47395833333327,
                        "value": 0
                    },
                    {
                        "number": 64,
                        "time": 97.51562499999994,
                        "value": 1
                    },
                    {
                        "number": 64,
                        "time": 98.46249999999995,
                        "value": 0
                    },
                    {
                        "number": 64,
                        "time": 98.54374999999995,
                        "value": 1
                    },
                    {
                        "number": 64,
                        "time": 98.97395833333327,
                        "value": 0
                    },
                    {
                        "number": 64,
                        "time": 126.02604166666661,
                        "value": 1
                    },
                    {
                        "number": 64,
                        "time": 127.28229166666661,
                        "value": 0
                    },
                    {
                        "number": 64,
                        "time": 127.52604166666661,
                        "value": 1
                    },
                    {
                        "number": 64,
                        "time": 128.78229166666662,
                        "value": 0
                    },
                    {
                        "number": 64,
                        "time": 129.0260416666666,
                        "value": 1
                    },
                    {
                        "number": 64,
                        "time": 130.28229166666662,
                        "value": 0
                    },
                    {
                        "number": 64,
                        "time": 130.5260416666666,
                        "value": 1
                    },
                    {
                        "number": 64,
                        "time": 131.78229166666662,
                        "value": 0
                    },
                    {
                        "number": 64,
                        "time": 132.0260416666666,
                        "value": 1
                    },
                    {
                        "number": 64,
                        "time": 133.28229166666662,
                        "value": 0
                    },
                    {
                        "number": 64,
                        "time": 133.5260416666666,
                        "value": 1
                    },
                    {
                        "number": 64,
                        "time": 134.78229166666662,
                        "value": 0
                    },
                    {
                        "number": 64,
                        "time": 135.0260416666666,
                        "value": 1
                    },
                    {
                        "number": 64,
                        "time": 136.28229166666665,
                        "value": 0
                    },
                    {
                        "number": 64,
                        "time": 136.52604166666663,
                        "value": 1
                    },
                    {
                        "number": 64,
                        "time": 137.78229166666668,
                        "value": 0
                    },
                    {
                        "number": 64,
                        "time": 138.02604166666666,
                        "value": 1
                    },
                    {
                        "number": 64,
                        "time": 138.02604166666666,
                        "value": 1
                    },
                    {
                        "number": 64,
                        "time": 139.2822916666667,
                        "value": 0
                    },
                    {
                        "number": 64,
                        "time": 139.2822916666667,
                        "value": 0
                    },
                    {
                        "number": 64,
                        "time": 139.52604166666669,
                        "value": 1
                    },
                    {
                        "number": 64,
                        "time": 140.78229166666674,
                        "value": 0
                    },
                    {
                        "number": 64,
                        "time": 141.0260416666667,
                        "value": 1
                    },
                    {
                        "number": 64,
                        "time": 142.28229166666674,
                        "value": 0
                    },
                    {
                        "number": 64,
                        "time": 142.5260416666667,
                        "value": 1
                    },
                    {
                        "number": 64,
                        "time": 143.78229166666674,
                        "value": 0
                    },
                    {
                        "number": 64,
                        "time": 240.06875000000005,
                        "value": 1
                    },
                    {
                        "number": 64,
                        "time": 240.43020833333338,
                        "value": 0
                    },
                    {
                        "number": 64,
                        "time": 241.06875000000005,
                        "value": 1
                    },
                    {
                        "number": 64,
                        "time": 241.43020833333338,
                        "value": 0
                    },
                    {
                        "number": 64,
                        "time": 242.06875000000005,
                        "value": 1
                    },
                    {
                        "number": 64,
                        "time": 242.43020833333338,
                        "value": 0
                    },
                    {
                        "number": 64,
                        "time": 243.06875000000005,
                        "value": 1
                    },
                    {
                        "number": 64,
                        "time": 243.43020833333338,
                        "value": 0
                    },
                    {
                        "number": 64,
                        "time": 244.06875000000005,
                        "value": 1
                    },
                    {
                        "number": 64,
                        "time": 244.43020833333338,
                        "value": 0
                    },
                    {
                        "number": 64,
                        "time": 245.06875000000005,
                        "value": 1
                    },
                    {
                        "number": 64,
                        "time": 245.43020833333338,
                        "value": 0
                    },
                    {
                        "number": 64,
                        "time": 260.2520833333334,
                        "value": 0
                    },
                    {
                        "number": 64,
                        "time": 272.0416666666668,
                        "value": 1
                    },
                    {
                        "number": 64,
                        "time": 272.9197916666668,
                        "value": 0
                    },
                    {
                        "number": 64,
                        "time": 274.04166666666686,
                        "value": 1
                    },
                    {
                        "number": 64,
                        "time": 274.91979166666687,
                        "value": 0
                    },
                    {
                        "number": 64,
                        "time": 275.0416666666669,
                        "value": 1
                    },
                    {
                        "number": 64,
                        "time": 275.9197916666669,
                        "value": 0
                    },
                    {
                        "number": 64,
                        "time": 276.04166666666697,
                        "value": 1
                    },
                    {
                        "number": 64,
                        "time": 276.919791666667,
                        "value": 0
                    },
                    {
                        "number": 64,
                        "time": 277.041666666667,
                        "value": 1
                    },
                    {
                        "number": 64,
                        "time": 277.91979166666704,
                        "value": 0
                    },
                    {
                        "number": 64,
                        "time": 278.0416666666671,
                        "value": 1
                    },
                    {
                        "number": 64,
                        "time": 278.91979166666715,
                        "value": 0
                    },
                    {
                        "number": 64,
                        "time": 279.0416666666672,
                        "value": 1
                    },
                    {
                        "number": 64,
                        "time": 279.9197916666672,
                        "value": 0
                    },
                    {
                        "number": 64,
                        "time": 280.04166666666725,
                        "value": 1
                    },
                    {
                        "number": 64,
                        "time": 280.91979166666727,
                        "value": 0
                    },
                    {
                        "number": 64,
                        "time": 281.0416666666673,
                        "value": 1
                    },
                    {
                        "number": 64,
                        "time": 281.9197916666673,
                        "value": 0
                    },
                    {
                        "number": 64,
                        "time": 282.04166666666737,
                        "value": 1
                    },
                    {
                        "number": 64,
                        "time": 282.91979166666744,
                        "value": 0
                    },
                    {
                        "number": 64,
                        "time": 283.0416666666675,
                        "value": 1
                    },
                    {
                        "number": 64,
                        "time": 283.9197916666675,
                        "value": 0
                    },
                    {
                        "number": 64,
                        "time": 284.04166666666754,
                        "value": 1
                    },
                    {
                        "number": 64,
                        "time": 284.9197916666676,
                        "value": 0
                    },
                    {
                        "number": 64,
                        "time": 285.04166666666765,
                        "value": 1
                    },
                    {
                        "number": 64,
                        "time": 285.91979166666766,
                        "value": 0
                    },
                    {
                        "number": 64,
                        "time": 286.0416666666677,
                        "value": 1
                    },
                    {
                        "number": 64,
                        "time": 286.9197916666677,
                        "value": 0
                    },
                    {
                        "number": 64,
                        "time": 287.04166666666777,
                        "value": 1
                    },
                    {
                        "number": 64,
                        "time": 287.9197916666678,
                        "value": 0
                    },
                    {
                        "number": 64,
                        "time": 288.0416666666678,
                        "value": 1
                    },
                    {
                        "number": 64,
                        "time": 288.91979166666783,
                        "value": 0
                    },
                    {
                        "number": 64,
                        "time": 289.0416666666679,
                        "value": 1
                    },
                    {
                        "number": 64,
                        "time": 289.9197916666679,
                        "value": 0
                    },
                    {
                        "number": 64,
                        "time": 290.01562500000125,
                        "value": 1
                    },
                    {
                        "number": 64,
                        "time": 290.9625000000012,
                        "value": 0
                    },
                    {
                        "number": 64,
                        "time": 291.04375000000124,
                        "value": 1
                    },
                    {
                        "number": 64,
                        "time": 291.47395833333456,
                        "value": 0
                    },
                    {
                        "number": 64,
                        "time": 291.51562500000125,
                        "value": 1
                    },
                    {
                        "number": 64,
                        "time": 292.4625000000012,
                        "value": 0
                    },
                    {
                        "number": 64,
                        "time": 292.54375000000124,
                        "value": 1
                    },
                    {
                        "number": 64,
                        "time": 292.97395833333456,
                        "value": 0
                    },
                    {
                        "number": 64,
                        "time": 293.01562500000125,
                        "value": 1
                    },
                    {
                        "number": 64,
                        "time": 293.9625000000012,
                        "value": 0
                    },
                    {
                        "number": 64,
                        "time": 294.04375000000124,
                        "value": 1
                    },
                    {
                        "number": 64,
                        "time": 294.47395833333456,
                        "value": 0
                    },
                    {
                        "number": 64,
                        "time": 294.51562500000125,
                        "value": 1
                    },
                    {
                        "number": 64,
                        "time": 295.4625000000012,
                        "value": 0
                    },
                    {
                        "number": 64,
                        "time": 295.54375000000124,
                        "value": 1
                    },
                    {
                        "number": 64,
                        "time": 295.97395833333456,
                        "value": 0
                    },
                    {
                        "number": 64,
                        "time": 296.01562500000125,
                        "value": 1
                    },
                    {
                        "number": 64,
                        "time": 296.9625000000012,
                        "value": 0
                    },
                    {
                        "number": 64,
                        "time": 297.04375000000124,
                        "value": 1
                    },
                    {
                        "number": 64,
                        "time": 297.47395833333456,
                        "value": 0
                    },
                    {
                        "number": 64,
                        "time": 297.51562500000125,
                        "value": 1
                    },
                    {
                        "number": 64,
                        "time": 298.4625000000012,
                        "value": 0
                    },
                    {
                        "number": 64,
                        "time": 298.54375000000124,
                        "value": 1
                    },
                    {
                        "number": 64,
                        "time": 298.97395833333456,
                        "value": 0
                    },
                    {
                        "number": 64,
                        "time": 299.01562500000125,
                        "value": 1
                    },
                    {
                        "number": 64,
                        "time": 299.9625000000012,
                        "value": 0
                    },
                    {
                        "number": 64,
                        "time": 300.04375000000124,
                        "value": 1
                    },
                    {
                        "number": 64,
                        "time": 300.47395833333456,
                        "value": 0
                    },
                    {
                        "number": 64,
                        "time": 300.51562500000125,
                        "value": 1
                    },
                    {
                        "number": 64,
                        "time": 301.4625000000012,
                        "value": 0
                    },
                    {
                        "number": 64,
                        "time": 301.54375000000124,
                        "value": 1
                    },
                    {
                        "number": 64,
                        "time": 301.97395833333456,
                        "value": 0
                    },
                    {
                        "number": 64,
                        "time": 302.01562500000125,
                        "value": 1
                    },
                    {
                        "number": 64,
                        "time": 302.9625000000012,
                        "value": 0
                    },
                    {
                        "number": 64,
                        "time": 303.04375000000124,
                        "value": 1
                    },
                    {
                        "number": 64,
                        "time": 303.47395833333456,
                        "value": 0
                    },
                    {
                        "number": 64,
                        "time": 303.51562500000125,
                        "value": 1
                    },
                    {
                        "number": 64,
                        "time": 304.4625000000012,
                        "value": 0
                    },
                    {
                        "number": 64,
                        "time": 304.54375000000124,
                        "value": 1
                    },
                    {
                        "number": 64,
                        "time": 304.97395833333456,
                        "value": 0
                    },
                    {
                        "number": 64,
                        "time": 305.01562500000125,
                        "value": 1
                    },
                    {
                        "number": 64,
                        "time": 305.9625000000012,
                        "value": 0
                    },
                    {
                        "number": 64,
                        "time": 306.04375000000124,
                        "value": 1
                    },
                    {
                        "number": 64,
                        "time": 306.47395833333456,
                        "value": 0
                    },
                    {
                        "number": 64,
                        "time": 306.51562500000125,
                        "value": 1
                    },
                    {
                        "number": 64,
                        "time": 307.4625000000012,
                        "value": 0
                    },
                    {
                        "number": 64,
                        "time": 307.54375000000124,
                        "value": 1
                    },
                    {
                        "number": 64,
                        "time": 307.97395833333456,
                        "value": 0
                    },
                    {
                        "number": 64,
                        "time": 308.01562500000125,
                        "value": 1
                    },
                    {
                        "number": 64,
                        "time": 308.9625000000012,
                        "value": 0
                    },
                    {
                        "number": 64,
                        "time": 309.04375000000124,
                        "value": 1
                    },
                    {
                        "number": 64,
                        "time": 309.47395833333456,
                        "value": 0
                    },
                    {
                        "number": 64,
                        "time": 309.51562500000125,
                        "value": 1
                    },
                    {
                        "number": 64,
                        "time": 310.4625000000012,
                        "value": 0
                    },
                    {
                        "number": 64,
                        "time": 310.54375000000124,
                        "value": 1
                    },
                    {
                        "number": 64,
                        "time": 310.97395833333456,
                        "value": 0
                    },
                    {
                        "number": 64,
                        "time": 311.01562500000125,
                        "value": 1
                    },
                    {
                        "number": 64,
                        "time": 311.9625000000012,
                        "value": 0
                    },
                    {
                        "number": 64,
                        "time": 312.04375000000124,
                        "value": 1
                    },
                    {
                        "number": 64,
                        "time": 312.47395833333456,
                        "value": 0
                    },
                    {
                        "number": 64,
                        "time": 312.51562500000125,
                        "value": 1
                    },
                    {
                        "number": 64,
                        "time": 313.4625000000012,
                        "value": 0
                    },
                    {
                        "number": 64,
                        "time": 313.54375000000124,
                        "value": 1
                    },
                    {
                        "number": 64,
                        "time": 313.97395833333456,
                        "value": 0
                    },
                    {
                        "number": 64,
                        "time": 361.5427083333362,
                        "value": 1
                    },
                    {
                        "number": 64,
                        "time": 361.95000000000294,
                        "value": 0
                    },
                    {
                        "number": 64,
                        "time": 362.06250000000296,
                        "value": 1
                    },
                    {
                        "number": 64,
                        "time": 362.4239583333363,
                        "value": 0
                    },
                    {
                        "number": 64,
                        "time": 362.54270833333635,
                        "value": 1
                    },
                    {
                        "number": 64,
                        "time": 362.9500000000031,
                        "value": 0
                    },
                    {
                        "number": 64,
                        "time": 363.0625000000031,
                        "value": 1
                    },
                    {
                        "number": 64,
                        "time": 363.4239583333365,
                        "value": 0
                    },
                    {
                        "number": 64,
                        "time": 363.5427083333365,
                        "value": 1
                    },
                    {
                        "number": 64,
                        "time": 363.9500000000033,
                        "value": 0
                    },
                    {
                        "number": 64,
                        "time": 364.0625000000033,
                        "value": 1
                    },
                    {
                        "number": 64,
                        "time": 364.4239583333367,
                        "value": 0
                    },
                    {
                        "number": 64,
                        "time": 364.54270833333675,
                        "value": 1
                    },
                    {
                        "number": 64,
                        "time": 364.9500000000035,
                        "value": 0
                    },
                    {
                        "number": 64,
                        "time": 365.0625000000035,
                        "value": 1
                    },
                    {
                        "number": 64,
                        "time": 365.4239583333369,
                        "value": 0
                    },
                    {
                        "number": 64,
                        "time": 365.5427083333369,
                        "value": 1
                    },
                    {
                        "number": 64,
                        "time": 365.9500000000037,
                        "value": 0
                    },
                    {
                        "number": 64,
                        "time": 366.0625000000037,
                        "value": 1
                    },
                    {
                        "number": 64,
                        "time": 366.42395833333705,
                        "value": 0
                    },
                    {
                        "number": 64,
                        "time": 366.5427083333371,
                        "value": 1
                    },
                    {
                        "number": 64,
                        "time": 366.95000000000385,
                        "value": 0
                    },
                    {
                        "number": 64,
                        "time": 367.06250000000387,
                        "value": 1
                    },
                    {
                        "number": 64,
                        "time": 367.4239583333373,
                        "value": 0
                    },
                    {
                        "number": 64,
                        "time": 367.5427083333373,
                        "value": 1
                    },
                    {
                        "number": 64,
                        "time": 367.950000000004,
                        "value": 0
                    },
                    {
                        "number": 64,
                        "time": 368.06250000000404,
                        "value": 1
                    },
                    {
                        "number": 64,
                        "time": 368.4239583333374,
                        "value": 0
                    },
                    {
                        "number": 64,
                        "time": 368.54270833333743,
                        "value": 1
                    },
                    {
                        "number": 64,
                        "time": 368.9500000000041,
                        "value": 0
                    },
                    {
                        "number": 64,
                        "time": 369.0625000000041,
                        "value": 1
                    },
                    {
                        "number": 64,
                        "time": 369.42395833333745,
                        "value": 0
                    }
                ],
                "91": [
                    {
                        "number": 91,
                        "time": 0.020833333333333332,
                        "value": 0.5826771653543307
                    }
                ],
                "93": [
                    {
                        "number": 93,
                        "time": 0.026041666666666664,
                        "value": 0
                    }
                ],
                "94": [
                    {
                        "number": 94,
                        "time": 0.031249999999999997,
                        "value": 0
                    }
                ],
                "100": [
                    {
                        "number": 100,
                        "time": 1.0052083333333333,
                        "value": 0
                    },
                    {
                        "number": 100,
                        "time": 1.020833333333333,
                        "value": 1
                    }
                ],
                "101": [
                    {
                        "number": 101,
                        "time": 1,
                        "value": 0
                    },
                    {
                        "number": 101,
                        "time": 1.0156249999999998,
                        "value": 1
                    }
                ]
            },
            "id": 1,
            "name": "Grand Piano",
            "instrumentNumber": 0,
            "instrument": "acoustic grand piano",
            "instrumentFamily": "piano",
            "channelNumber": 0,
            "isPercussion": false
        },
        {
            "startTime": 0,
            "duration": 0,
            "length": 0,
            "notes": [],
            "controlChanges": {},
            "id": 2,
            "name": "Piano sonata no.2, Op.14"
        },
        {
            "startTime": 0,
            "duration": 0,
            "length": 0,
            "notes": [],
            "controlChanges": {},
            "id": 3,
            "name": "by Serge Prokofiev(1912)"
        },
        {
            "startTime": 0,
            "duration": 0,
            "length": 0,
            "notes": [],
            "controlChanges": {},
            "id": 4,
            "name": "1. Allegro, ma non troppo"
        },
        {
            "startTime": 0,
            "duration": 0,
            "length": 0,
            "notes": [],
            "controlChanges": {},
            "id": 5,
            "name": "sequenced by R. Ungar"
        },
        {
            "startTime": 0,
            "duration": 0,
            "length": 0,
            "notes": [],
            "controlChanges": {},
            "id": 6,
            "name": "2002"
        },
        {
            "startTime": 0,
            "duration": 0,
            "length": 0,
            "notes": [],
            "controlChanges": {},
            "id": 7
        }
    ]
}