{
    "header": {
        "PPQ": 192,
        "bpm": 140.00014000014,
        "timeSignature": [
            4,
            4
        ],
        "name": ""
    },
    "startTime": 0,
    "duration": 193.70962771875347,
    "tracks": [
        {
            "startTime": 0,
            "duration": 0,
            "length": 0,
            "notes": [],
            "controlChanges": {},
            "id": 0
        },
        {
            "startTime": 20.571408,
            "duration": 193.70962771875347,
            "length": 3194,
            "notes": [
                {
                    "name": "A#3",
                    "midi": 58,
                    "time": 20.571408,
                    "velocity": 0.48031496062992124,
                    "duration": 0.20982121875000104
                },
                {
                    "name": "B3",
                    "midi": 59,
                    "time": 20.785693500000004,
                    "velocity": 0.48031496062992124,
                    "duration": 0.20982121875000104
                },
                {
                    "name": "C#3",
                    "midi": 49,
                    "time": 20.999979000000007,
                    "velocity": 0.48031496062992124,
                    "duration": 0.20982121875000104
                },
                {
                    "name": "C3",
                    "midi": 48,
                    "time": 21.21426450000001,
                    "velocity": 0.48031496062992124,
                    "duration": 0.20982121875000104
                },
                {
                    "name": "B3",
                    "midi": 59,
                    "time": 21.428550000000012,
                    "velocity": 0.48031496062992124,
                    "duration": 0.20982121875000104
                },
                {
                    "name": "C4",
                    "midi": 60,
                    "time": 21.642835500000015,
                    "velocity": 0.48031496062992124,
                    "duration": 0.20982121875000104
                },
                {
                    "name": "B2",
                    "midi": 47,
                    "time": 21.857121000000017,
                    "velocity": 0.48031496062992124,
                    "duration": 0.20982121875000104
                },
                {
                    "name": "C#4",
                    "midi": 61,
                    "time": 22.07140650000002,
                    "velocity": 0.48031496062992124,
                    "duration": 0.20982121875000104
                },
                {
                    "name": "D4",
                    "midi": 62,
                    "time": 22.285692000000022,
                    "velocity": 0.48031496062992124,
                    "duration": 0.20982121875000104
                },
                {
                    "name": "A#2",
                    "midi": 46,
                    "time": 22.499977500000025,
                    "velocity": 0.48031496062992124,
                    "duration": 0.20982121875000104
                },
                {
                    "name": "A2",
                    "midi": 45,
                    "time": 22.714263000000027,
                    "velocity": 0.48031496062992124,
                    "duration": 0.20982121875000104
                },
                {
                    "name": "D#4",
                    "midi": 63,
                    "time": 22.92854850000003,
                    "velocity": 0.48031496062992124,
                    "duration": 0.20982121875000104
                },
                {
                    "name": "G#2",
                    "midi": 44,
                    "time": 23.142834000000033,
                    "velocity": 0.48031496062992124,
                    "duration": 0.20982121875000104
                },
                {
                    "name": "E4",
                    "midi": 64,
                    "time": 23.357119500000035,
                    "velocity": 0.48031496062992124,
                    "duration": 0.20982121875000104
                },
                {
                    "name": "G2",
                    "midi": 43,
                    "time": 23.571405000000038,
                    "velocity": 0.48031496062992124,
                    "duration": 0.42410671875000006
                },
                {
                    "name": "D#4",
                    "midi": 63,
                    "time": 23.99997600000004,
                    "velocity": 0.48031496062992124,
                    "duration": 0.20982121875000104
                },
                {
                    "name": "E4",
                    "midi": 64,
                    "time": 24.214261500000042,
                    "velocity": 0.48031496062992124,
                    "duration": 0.20982121875000104
                },
                {
                    "name": "F#3",
                    "midi": 54,
                    "time": 24.428547000000044,
                    "velocity": 0.48031496062992124,
                    "duration": 0.20982121875000104
                },
                {
                    "name": "F3",
                    "midi": 53,
                    "time": 24.642832500000047,
                    "velocity": 0.48031496062992124,
                    "duration": 0.20982121875000104
                },
                {
                    "name": "E4",
                    "midi": 64,
                    "time": 24.85711800000005,
                    "velocity": 0.48031496062992124,
                    "duration": 0.20982121875000104
                },
                {
                    "name": "F4",
                    "midi": 65,
                    "time": 25.071403500000052,
                    "velocity": 0.48031496062992124,
                    "duration": 0.20982121875000104
                },
                {
                    "name": "E3",
                    "midi": 52,
                    "time": 25.285689000000055,
                    "velocity": 0.48031496062992124,
                    "duration": 0.20982121875000104
                },
                {
                    "name": "F#4",
                    "midi": 66,
                    "time": 25.499974500000057,
                    "velocity": 0.48031496062992124,
                    "duration": 0.20982121875000104
                },
                {
                    "name": "G4",
                    "midi": 67,
                    "time": 25.71426000000006,
                    "velocity": 0.48031496062992124,
                    "duration": 0.20982121875000104
                },
                {
                    "name": "D#3",
                    "midi": 51,
                    "time": 25.928545500000062,
                    "velocity": 0.48031496062992124,
                    "duration": 0.20982121875000104
                },
                {
                    "name": "D3",
                    "midi": 50,
                    "time": 26.142831000000065,
                    "velocity": 0.48031496062992124,
                    "duration": 0.20982121875000104
                },
                {
                    "name": "G#4",
                    "midi": 68,
                    "time": 26.357116500000068,
                    "velocity": 0.48031496062992124,
                    "duration": 0.20982121875000104
                },
                {
                    "name": "C#3",
                    "midi": 49,
                    "time": 26.57140200000007,
                    "velocity": 0.48031496062992124,
                    "duration": 0.20982121875000104
                },
                {
                    "name": "A4",
                    "midi": 69,
                    "time": 26.785687500000073,
                    "velocity": 0.48031496062992124,
                    "duration": 0.20982121875000104
                },
                {
                    "name": "C3",
                    "midi": 48,
                    "time": 26.999973000000075,
                    "velocity": 0.48031496062992124,
                    "duration": 0.42410671875000006
                },
                {
                    "name": "D#4",
                    "midi": 63,
                    "time": 27.428544000000077,
                    "velocity": 0.48031496062992124,
                    "duration": 0.20982121875000104
                },
                {
                    "name": "G2",
                    "midi": 43,
                    "time": 27.64282950000008,
                    "velocity": 0.48031496062992124,
                    "duration": 0.20982121875000104
                },
                {
                    "name": "A4",
                    "midi": 69,
                    "time": 27.857115000000082,
                    "velocity": 0.48031496062992124,
                    "duration": 0.20982121875000104
                },
                {
                    "name": "C#2",
                    "midi": 37,
                    "time": 28.071400500000085,
                    "velocity": 0.48031496062992124,
                    "duration": 0.20982121875000104
                },
                {
                    "name": "E4",
                    "midi": 64,
                    "time": 28.285686000000087,
                    "velocity": 0.48031496062992124,
                    "duration": 0.20982121875000104
                },
                {
                    "name": "G2",
                    "midi": 43,
                    "time": 28.49997150000009,
                    "velocity": 0.48031496062992124,
                    "duration": 0.20982121875000104
                },
                {
                    "name": "A4",
                    "midi": 69,
                    "time": 28.714257000000092,
                    "velocity": 0.48031496062992124,
                    "duration": 0.20982121875000104
                },
                {
                    "name": "C#2",
                    "midi": 37,
                    "time": 28.928542500000095,
                    "velocity": 0.48031496062992124,
                    "duration": 0.20982121875000104
                },
                {
                    "name": "A4",
                    "midi": 69,
                    "time": 29.142828000000097,
                    "velocity": 0.48031496062992124,
                    "duration": 0.20982121875000104
                },
                {
                    "name": "G#4",
                    "midi": 68,
                    "time": 29.142828000000097,
                    "velocity": 0.48031496062992124,
                    "duration": 0.20982121875000104
                },
                {
                    "name": "C5",
                    "midi": 72,
                    "time": 29.142828000000097,
                    "velocity": 0.48031496062992124,
                    "duration": 0.20982121875000104
                },
                {
                    "name": "G#5",
                    "midi": 80,
                    "time": 29.3571135000001,
                    "velocity": 0.48031496062992124,
                    "duration": 0.31696396874999877
                },
                {
                    "name": "G#4",
                    "midi": 68,
                    "time": 29.3571135000001,
                    "velocity": 0.48031496062992124,
                    "duration": 0.31696396874999877
                },
                {
                    "name": "E5",
                    "midi": 76,
                    "time": 29.3571135000001,
                    "velocity": 0.48031496062992124,
                    "duration": 0.31696396874999877
                },
                {
                    "name": "G#4",
                    "midi": 68,
                    "time": 29.6785417500001,
                    "velocity": 0.48031496062992124,
                    "duration": 0.10267846874999975
                },
                {
                    "name": "G5",
                    "midi": 79,
                    "time": 29.6785417500001,
                    "velocity": 0.48031496062992124,
                    "duration": 0.10267846874999975
                },
                {
                    "name": "D#5",
                    "midi": 75,
                    "time": 29.6785417500001,
                    "velocity": 0.48031496062992124,
                    "duration": 0.10267846874999975
                },
                {
                    "name": "F#5",
                    "midi": 78,
                    "time": 29.7856845000001,
                    "velocity": 0.48031496062992124,
                    "duration": 0.20982121875000104
                },
                {
                    "name": "G#4",
                    "midi": 68,
                    "time": 29.7856845000001,
                    "velocity": 0.48031496062992124,
                    "duration": 0.20982121875000104
                },
                {
                    "name": "D5",
                    "midi": 74,
                    "time": 29.7856845000001,
                    "velocity": 0.48031496062992124,
                    "duration": 0.20982121875000104
                },
                {
                    "name": "G#5",
                    "midi": 80,
                    "time": 29.999970000000104,
                    "velocity": 0.48031496062992124,
                    "duration": 0.20982121875000104
                },
                {
                    "name": "G#4",
                    "midi": 68,
                    "time": 29.999970000000104,
                    "velocity": 0.48031496062992124,
                    "duration": 0.20982121875000104
                },
                {
                    "name": "C5",
                    "midi": 72,
                    "time": 29.999970000000104,
                    "velocity": 0.48031496062992124,
                    "duration": 0.20982121875000104
                },
                {
                    "name": "A#4",
                    "midi": 70,
                    "time": 30.214255500000107,
                    "velocity": 0.48031496062992124,
                    "duration": 0.20982121875000104
                },
                {
                    "name": "E5",
                    "midi": 76,
                    "time": 30.214255500000107,
                    "velocity": 0.48031496062992124,
                    "duration": 0.20982121875000104
                },
                {
                    "name": "G#4",
                    "midi": 68,
                    "time": 30.214255500000107,
                    "velocity": 0.48031496062992124,
                    "duration": 0.20982121875000104
                },
                {
                    "name": "D#5",
                    "midi": 75,
                    "time": 30.42854100000011,
                    "velocity": 0.48031496062992124,
                    "duration": 0.20982121875000104
                },
                {
                    "name": "A#4",
                    "midi": 70,
                    "time": 30.42854100000011,
                    "velocity": 0.48031496062992124,
                    "duration": 0.20982121875000104
                },
                {
                    "name": "G#4",
                    "midi": 68,
                    "time": 30.42854100000011,
                    "velocity": 0.48031496062992124,
                    "duration": 0.20982121875000104
                },
                {
                    "name": "A#4",
                    "midi": 70,
                    "time": 30.642826500000112,
                    "velocity": 0.48031496062992124,
                    "duration": 0.20982121875000104
                },
                {
                    "name": "D5",
                    "midi": 74,
                    "time": 30.642826500000112,
                    "velocity": 0.48031496062992124,
                    "duration": 0.20982121875000104
                },
                {
                    "name": "G#4",
                    "midi": 68,
                    "time": 30.642826500000112,
                    "velocity": 0.48031496062992124,
                    "duration": 0.20982121875000104
                },
                {
                    "name": "F#4",
                    "midi": 66,
                    "time": 30.857112000000114,
                    "velocity": 0.48031496062992124,
                    "duration": 0.20982121875000104
                },
                {
                    "name": "A#2",
                    "midi": 46,
                    "time": 31.071397500000117,
                    "velocity": 0.48031496062992124,
                    "duration": 0.20982121875000104
                },
                {
                    "name": "C5",
                    "midi": 72,
                    "time": 31.28568300000012,
                    "velocity": 0.48031496062992124,
                    "duration": 0.20982121875000104
                },
                {
                    "name": "E2",
                    "midi": 40,
                    "time": 31.499968500000122,
                    "velocity": 0.48031496062992124,
                    "duration": 0.20982121875000104
                },
                {
                    "name": "G4",
                    "midi": 67,
                    "time": 31.714254000000125,
                    "velocity": 0.48031496062992124,
                    "duration": 0.20982121875000104
                },
                {
                    "name": "A#2",
                    "midi": 46,
                    "time": 31.928539500000127,
                    "velocity": 0.48031496062992124,
                    "duration": 0.20982121875000104
                },
                {
                    "name": "C5",
                    "midi": 72,
                    "time": 32.14282500000013,
                    "velocity": 0.48031496062992124,
                    "duration": 0.20982121875000104
                },
                {
                    "name": "E2",
                    "midi": 40,
                    "time": 32.35711050000013,
                    "velocity": 0.48031496062992124,
                    "duration": 0.20982121875000104
                },
                {
                    "name": "C5",
                    "midi": 72,
                    "time": 32.571396000000135,
                    "velocity": 0.48031496062992124,
                    "duration": 0.20982121875000104
                },
                {
                    "name": "D#5",
                    "midi": 75,
                    "time": 32.571396000000135,
                    "velocity": 0.48031496062992124,
                    "duration": 0.20982121875000104
                },
                {
                    "name": "B4",
                    "midi": 71,
                    "time": 32.571396000000135,
                    "velocity": 0.48031496062992124,
                    "duration": 0.20982121875000104
                },
                {
                    "name": "B5",
                    "midi": 83,
                    "time": 32.78568150000014,
                    "velocity": 0.48031496062992124,
                    "duration": 0.3169639687500023
                },
                {
                    "name": "B4",
                    "midi": 71,
                    "time": 32.78568150000014,
                    "velocity": 0.48031496062992124,
                    "duration": 0.3169639687500023
                },
                {
                    "name": "G5",
                    "midi": 79,
                    "time": 32.78568150000014,
                    "velocity": 0.48031496062992124,
                    "duration": 0.3169639687500023
                },
                {
                    "name": "A#5",
                    "midi": 82,
                    "time": 33.10710975000014,
                    "velocity": 0.48031496062992124,
                    "duration": 0.10267846874999975
                },
                {
                    "name": "F#5",
                    "midi": 78,
                    "time": 33.10710975000014,
                    "velocity": 0.48031496062992124,
                    "duration": 0.10267846874999975
                },
                {
                    "name": "B4",
                    "midi": 71,
                    "time": 33.10710975000014,
                    "velocity": 0.48031496062992124,
                    "duration": 0.10267846874999975
                },
                {
                    "name": "F5",
                    "midi": 77,
                    "time": 33.21425250000014,
                    "velocity": 0.48031496062992124,
                    "duration": 0.20982121875000104
                },
                {
                    "name": "A5",
                    "midi": 81,
                    "time": 33.21425250000014,
                    "velocity": 0.48031496062992124,
                    "duration": 0.20982121875000104
                },
                {
                    "name": "B4",
                    "midi": 71,
                    "time": 33.21425250000014,
                    "velocity": 0.48031496062992124,
                    "duration": 0.20982121875000104
                },
                {
                    "name": "B5",
                    "midi": 83,
                    "time": 33.428538000000145,
                    "velocity": 0.48031496062992124,
                    "duration": 0.20982121875000104
                },
                {
                    "name": "D#5",
                    "midi": 75,
                    "time": 33.428538000000145,
                    "velocity": 0.48031496062992124,
                    "duration": 0.20982121875000104
                },
                {
                    "name": "B4",
                    "midi": 71,
                    "time": 33.428538000000145,
                    "velocity": 0.48031496062992124,
                    "duration": 0.20982121875000104
                },
                {
                    "name": "G5",
                    "midi": 79,
                    "time": 33.64282350000015,
                    "velocity": 0.48031496062992124,
                    "duration": 0.20982121875000104
                },
                {
                    "name": "C#5",
                    "midi": 73,
                    "time": 33.64282350000015,
                    "velocity": 0.48031496062992124,
                    "duration": 0.20982121875000104
                },
                {
                    "name": "B4",
                    "midi": 71,
                    "time": 33.64282350000015,
                    "velocity": 0.48031496062992124,
                    "duration": 0.20982121875000104
                },
                {
                    "name": "C#5",
                    "midi": 73,
                    "time": 33.85710900000015,
                    "velocity": 0.48031496062992124,
                    "duration": 0.20982121875000104
                },
                {
                    "name": "F#5",
                    "midi": 78,
                    "time": 33.85710900000015,
                    "velocity": 0.48031496062992124,
                    "duration": 0.20982121875000104
                },
                {
                    "name": "B4",
                    "midi": 71,
                    "time": 33.85710900000015,
                    "velocity": 0.48031496062992124,
                    "duration": 0.20982121875000104
                },
                {
                    "name": "A#4",
                    "midi": 70,
                    "time": 34.07139450000015,
                    "velocity": 0.48031496062992124,
                    "duration": 0.20982121875000104
                },
                {
                    "name": "G5",
                    "midi": 79,
                    "time": 34.07139450000015,
                    "velocity": 0.48031496062992124,
                    "duration": 0.20982121875000104
                },
                {
                    "name": "D5",
                    "midi": 74,
                    "time": 34.07139450000015,
                    "velocity": 0.48031496062992124,
                    "duration": 0.20982121875000104
                },
                {
                    "name": "D#4",
                    "midi": 63,
                    "time": 34.285680000000156,
                    "velocity": 0.48031496062992124,
                    "duration": 0.20982121875000104
                },
                {
                    "name": "G3",
                    "midi": 55,
                    "time": 34.285680000000156,
                    "velocity": 0.48031496062992124,
                    "duration": 0.20982121875000104
                },
                {
                    "name": "F#3",
                    "midi": 54,
                    "time": 34.49996550000016,
                    "velocity": 0.48031496062992124,
                    "duration": 0.20982121875000104
                },
                {
                    "name": "E4",
                    "midi": 64,
                    "time": 34.49996550000016,
                    "velocity": 0.48031496062992124,
                    "duration": 0.20982121875000104
                },
                {
                    "name": "F#3",
                    "midi": 54,
                    "time": 34.71425100000016,
                    "velocity": 0.48031496062992124,
                    "duration": 0.20982121875000104
                },
                {
                    "name": "F#2",
                    "midi": 42,
                    "time": 34.71425100000016,
                    "velocity": 0.48031496062992124,
                    "duration": 0.20982121875000104
                },
                {
                    "name": "F2",
                    "midi": 41,
                    "time": 34.92853650000016,
                    "velocity": 0.48031496062992124,
                    "duration": 0.20982121875000104
                },
                {
                    "name": "F3",
                    "midi": 53,
                    "time": 34.92853650000016,
                    "velocity": 0.48031496062992124,
                    "duration": 0.20982121875000104
                },
                {
                    "name": "F#3",
                    "midi": 54,
                    "time": 35.142822000000166,
                    "velocity": 0.48031496062992124,
                    "duration": 0.20982121875000104
                },
                {
                    "name": "E4",
                    "midi": 64,
                    "time": 35.142822000000166,
                    "velocity": 0.48031496062992124,
                    "duration": 0.20982121875000104
                },
                {
                    "name": "F3",
                    "midi": 53,
                    "time": 35.35710750000017,
                    "velocity": 0.48031496062992124,
                    "duration": 0.20982121875000104
                },
                {
                    "name": "F4",
                    "midi": 65,
                    "time": 35.35710750000017,
                    "velocity": 0.48031496062992124,
                    "duration": 0.20982121875000104
                },
                {
                    "name": "E3",
                    "midi": 52,
                    "time": 35.57139300000017,
                    "velocity": 0.48031496062992124,
                    "duration": 0.20982121875000104
                },
                {
                    "name": "E2",
                    "midi": 40,
                    "time": 35.57139300000017,
                    "velocity": 0.48031496062992124,
                    "duration": 0.20982121875000104
                },
                {
                    "name": "F#4",
                    "midi": 66,
                    "time": 35.785678500000174,
                    "velocity": 0.48031496062992124,
                    "duration": 0.20982121875000104
                },
                {
                    "name": "C4",
                    "midi": 60,
                    "time": 35.785678500000174,
                    "velocity": 0.48031496062992124,
                    "duration": 0.20982121875000104
                },
                {
                    "name": "D#4",
                    "midi": 63,
                    "time": 35.785678500000174,
                    "velocity": 0.48031496062992124,
                    "duration": 0.20982121875000104
                },
                {
                    "name": "G4",
                    "midi": 67,
                    "time": 35.999964000000176,
                    "velocity": 0.48031496062992124,
                    "duration": 0.20982121875000104
                },
                {
                    "name": "D#4",
                    "midi": 63,
                    "time": 35.999964000000176,
                    "velocity": 0.48031496062992124,
                    "duration": 0.20982121875000104
                },
                {
                    "name": "A3",
                    "midi": 57,
                    "time": 35.999964000000176,
                    "velocity": 0.48031496062992124,
                    "duration": 0.20982121875000104
                },
                {
                    "name": "D#3",
                    "midi": 51,
                    "time": 36.21424950000018,
                    "velocity": 0.48031496062992124,
                    "duration": 0.20982121875000104
                },
                {
                    "name": "D#2",
                    "midi": 39,
                    "time": 36.21424950000018,
                    "velocity": 0.48031496062992124,
                    "duration": 0.20982121875000104
                },
                {
                    "name": "D3",
                    "midi": 50,
                    "time": 36.42853500000018,
                    "velocity": 0.48031496062992124,
                    "duration": 0.20982121875000104
                },
                {
                    "name": "D2",
                    "midi": 38,
                    "time": 36.42853500000018,
                    "velocity": 0.48031496062992124,
                    "duration": 0.20982121875000104
                },
                {
                    "name": "G#4",
                    "midi": 68,
                    "time": 36.642820500000184,
                    "velocity": 0.48031496062992124,
                    "duration": 0.20982121875000104
                },
                {
                    "name": "C4",
                    "midi": 60,
                    "time": 36.642820500000184,
                    "velocity": 0.48031496062992124,
                    "duration": 0.20982121875000104
                },
                {
                    "name": "D#4",
                    "midi": 63,
                    "time": 36.642820500000184,
                    "velocity": 0.48031496062992124,
                    "duration": 0.20982121875000104
                },
                {
                    "name": "C#2",
                    "midi": 37,
                    "time": 36.857106000000186,
                    "velocity": 0.48031496062992124,
                    "duration": 0.20982121875000104
                },
                {
                    "name": "C#3",
                    "midi": 49,
                    "time": 36.857106000000186,
                    "velocity": 0.48031496062992124,
                    "duration": 0.20982121875000104
                },
                {
                    "name": "E4",
                    "midi": 64,
                    "time": 37.07139150000019,
                    "velocity": 0.48031496062992124,
                    "duration": 0.20982121875000104
                },
                {
                    "name": "A4",
                    "midi": 69,
                    "time": 37.07139150000019,
                    "velocity": 0.48031496062992124,
                    "duration": 0.20982121875000104
                },
                {
                    "name": "C#4",
                    "midi": 61,
                    "time": 37.07139150000019,
                    "velocity": 0.48031496062992124,
                    "duration": 0.20982121875000104
                },
                {
                    "name": "C2",
                    "midi": 36,
                    "time": 37.28567700000019,
                    "velocity": 0.48031496062992124,
                    "duration": 0.4241067187499965
                },
                {
                    "name": "C3",
                    "midi": 48,
                    "time": 37.28567700000019,
                    "velocity": 0.48031496062992124,
                    "duration": 0.4241067187499965
                },
                {
                    "name": "C4",
                    "midi": 60,
                    "time": 37.71424800000019,
                    "velocity": 0.48031496062992124,
                    "duration": 0.20982121875000104
                },
                {
                    "name": "G#4",
                    "midi": 68,
                    "time": 37.71424800000019,
                    "velocity": 0.48031496062992124,
                    "duration": 0.20982121875000104
                },
                {
                    "name": "A4",
                    "midi": 69,
                    "time": 37.92853350000019,
                    "velocity": 0.48031496062992124,
                    "duration": 0.20982121875000104
                },
                {
                    "name": "B3",
                    "midi": 59,
                    "time": 37.92853350000019,
                    "velocity": 0.48031496062992124,
                    "duration": 0.20982121875000104
                },
                {
                    "name": "B3",
                    "midi": 59,
                    "time": 38.142819000000195,
                    "velocity": 0.48031496062992124,
                    "duration": 0.20982121875000104
                },
                {
                    "name": "B2",
                    "midi": 47,
                    "time": 38.142819000000195,
                    "velocity": 0.48031496062992124,
                    "duration": 0.20982121875000104
                },
                {
                    "name": "A#3",
                    "midi": 58,
                    "time": 38.3571045000002,
                    "velocity": 0.48031496062992124,
                    "duration": 0.20982121875000104
                },
                {
                    "name": "A#2",
                    "midi": 46,
                    "time": 38.3571045000002,
                    "velocity": 0.48031496062992124,
                    "duration": 0.20982121875000104
                },
                {
                    "name": "A4",
                    "midi": 69,
                    "time": 38.5713900000002,
                    "velocity": 0.48031496062992124,
                    "duration": 0.20982121875000104
                },
                {
                    "name": "B3",
                    "midi": 59,
                    "time": 38.5713900000002,
                    "velocity": 0.48031496062992124,
                    "duration": 0.20982121875000104
                },
                {
                    "name": "A#4",
                    "midi": 70,
                    "time": 38.7856755000002,
                    "velocity": 0.48031496062992124,
                    "duration": 0.20982121875000104
                },
                {
                    "name": "A#3",
                    "midi": 58,
                    "time": 38.7856755000002,
                    "velocity": 0.48031496062992124,
                    "duration": 0.20982121875000104
                },
                {
                    "name": "A3",
                    "midi": 57,
                    "time": 38.999961000000205,
                    "velocity": 0.48031496062992124,
                    "duration": 0.20982121875000104
                },
                {
                    "name": "A2",
                    "midi": 45,
                    "time": 38.999961000000205,
                    "velocity": 0.48031496062992124,
                    "duration": 0.20982121875000104
                },
                {
                    "name": "G#4",
                    "midi": 68,
                    "time": 39.21424650000021,
                    "velocity": 0.48031496062992124,
                    "duration": 0.21205335937499825
                },
                {
                    "name": "B4",
                    "midi": 71,
                    "time": 39.21424650000021,
                    "velocity": 0.48031496062992124,
                    "duration": 0.20982121875000104
                },
                {
                    "name": "F4",
                    "midi": 65,
                    "time": 39.21424650000021,
                    "velocity": 0.48031496062992124,
                    "duration": 0.20982121875000104
                },
                {
                    "name": "C5",
                    "midi": 72,
                    "time": 39.4285320000002,
                    "velocity": 0.48031496062992124,
                    "duration": 0.20982121875000104
                },
                {
                    "name": "D4",
                    "midi": 62,
                    "time": 39.4285320000002,
                    "velocity": 0.48031496062992124,
                    "duration": 0.20982121875000104
                },
                {
                    "name": "G#4",
                    "midi": 68,
                    "time": 39.4285320000002,
                    "velocity": 0.48031496062992124,
                    "duration": 0.20982121875000104
                },
                {
                    "name": "G#3",
                    "midi": 56,
                    "time": 39.642817500000206,
                    "velocity": 0.48031496062992124,
                    "duration": 0.20982121875000104
                },
                {
                    "name": "G#2",
                    "midi": 44,
                    "time": 39.642817500000206,
                    "velocity": 0.48031496062992124,
                    "duration": 0.20982121875000104
                },
                {
                    "name": "G2",
                    "midi": 43,
                    "time": 39.85710300000021,
                    "velocity": 0.48031496062992124,
                    "duration": 0.20982121875000104
                },
                {
                    "name": "G3",
                    "midi": 55,
                    "time": 39.85710300000021,
                    "velocity": 0.48031496062992124,
                    "duration": 0.20982121875000104
                },
                {
                    "name": "C#5",
                    "midi": 73,
                    "time": 40.07138850000021,
                    "velocity": 0.48031496062992124,
                    "duration": 0.20982121875000104
                },
                {
                    "name": "G#4",
                    "midi": 68,
                    "time": 40.07138850000021,
                    "velocity": 0.48031496062992124,
                    "duration": 0.20982121875000104
                },
                {
                    "name": "F4",
                    "midi": 65,
                    "time": 40.07138850000021,
                    "velocity": 0.48031496062992124,
                    "duration": 0.20982121875000104
                },
                {
                    "name": "F#3",
                    "midi": 54,
                    "time": 40.28567400000021,
                    "velocity": 0.48031496062992124,
                    "duration": 0.20982121875000104
                },
                {
                    "name": "F#2",
                    "midi": 42,
                    "time": 40.28567400000021,
                    "velocity": 0.48031496062992124,
                    "duration": 0.20982121875000104
                },
                {
                    "name": "F#4",
                    "midi": 66,
                    "time": 40.499959500000216,
                    "velocity": 0.48031496062992124,
                    "duration": 0.20982121875000104
                },
                {
                    "name": "D5",
                    "midi": 74,
                    "time": 40.499959500000216,
                    "velocity": 0.48031496062992124,
                    "duration": 0.20982121875000104
                },
                {
                    "name": "A4",
                    "midi": 69,
                    "time": 40.499959500000216,
                    "velocity": 0.48031496062992124,
                    "duration": 0.20982121875000104
                },
                {
                    "name": "F3",
                    "midi": 53,
                    "time": 40.71424500000022,
                    "velocity": 0.48031496062992124,
                    "duration": 0.20982121875000104
                },
                {
                    "name": "F2",
                    "midi": 41,
                    "time": 40.71424500000022,
                    "velocity": 0.48031496062992124,
                    "duration": 0.20982121875000104
                },
                {
                    "name": "A#3",
                    "midi": 58,
                    "time": 40.92853050000022,
                    "velocity": 0.48031496062992124,
                    "duration": 0.10267846874999975
                },
                {
                    "name": "F#4",
                    "midi": 66,
                    "time": 40.92853050000022,
                    "velocity": 0.48031496062992124,
                    "duration": 0.20982121875000104
                },
                {
                    "name": "D4",
                    "midi": 62,
                    "time": 41.03567325000022,
                    "velocity": 0.48031496062992124,
                    "duration": 0.10267846874999975
                },
                {
                    "name": "A3",
                    "midi": 57,
                    "time": 41.142816000000224,
                    "velocity": 0.48031496062992124,
                    "duration": 0.10267846874999975
                },
                {
                    "name": "E3",
                    "midi": 52,
                    "time": 41.142816000000224,
                    "velocity": 0.48031496062992124,
                    "duration": 0.10267846874999975
                },
                {
                    "name": "A#3",
                    "midi": 58,
                    "time": 41.249958750000225,
                    "velocity": 0.48031496062992124,
                    "duration": 0.10267846874999975
                },
                {
                    "name": "F4",
                    "midi": 65,
                    "time": 41.357101500000226,
                    "velocity": 0.48031496062992124,
                    "duration": 0.20982121875000104
                },
                {
                    "name": "A#3",
                    "midi": 58,
                    "time": 41.357101500000226,
                    "velocity": 0.48031496062992124,
                    "duration": 0.10267846874999975
                },
                {
                    "name": "D4",
                    "midi": 62,
                    "time": 41.46424425000023,
                    "velocity": 0.48031496062992124,
                    "duration": 0.10267846874999975
                },
                {
                    "name": "A3",
                    "midi": 57,
                    "time": 41.57138700000023,
                    "velocity": 0.48031496062992124,
                    "duration": 0.10267846874999975
                },
                {
                    "name": "E3",
                    "midi": 52,
                    "time": 41.57138700000023,
                    "velocity": 0.48031496062992124,
                    "duration": 0.10267846874999975
                },
                {
                    "name": "A#3",
                    "midi": 58,
                    "time": 41.67852975000023,
                    "velocity": 0.48031496062992124,
                    "duration": 0.10267846874999975
                },
                {
                    "name": "E4",
                    "midi": 64,
                    "time": 41.78567250000023,
                    "velocity": 0.48031496062992124,
                    "duration": 0.20982121875000104
                },
                {
                    "name": "A#3",
                    "midi": 58,
                    "time": 41.78567250000023,
                    "velocity": 0.48031496062992124,
                    "duration": 0.10267846874999975
                },
                {
                    "name": "D4",
                    "midi": 62,
                    "time": 41.89281525000023,
                    "velocity": 0.48031496062992124,
                    "duration": 0.10267846874999975
                },
                {
                    "name": "A3",
                    "midi": 57,
                    "time": 41.999958000000234,
                    "velocity": 0.48031496062992124,
                    "duration": 0.10267846874999975
                },
                {
                    "name": "E3",
                    "midi": 52,
                    "time": 41.999958000000234,
                    "velocity": 0.48031496062992124,
                    "duration": 0.10267846874999975
                },
                {
                    "name": "A#3",
                    "midi": 58,
                    "time": 42.107100750000235,
                    "velocity": 0.48031496062992124,
                    "duration": 0.10267846874999975
                },
                {
                    "name": "D#4",
                    "midi": 63,
                    "time": 42.21424350000024,
                    "velocity": 0.48031496062992124,
                    "duration": 0.20982121875000104
                },
                {
                    "name": "A#3",
                    "midi": 58,
                    "time": 42.21424350000024,
                    "velocity": 0.48031496062992124,
                    "duration": 0.10267846874999975
                },
                {
                    "name": "D4",
                    "midi": 62,
                    "time": 42.32138625000024,
                    "velocity": 0.48031496062992124,
                    "duration": 0.10267846874999975
                },
                {
                    "name": "A3",
                    "midi": 57,
                    "time": 42.42852900000024,
                    "velocity": 0.48031496062992124,
                    "duration": 0.10267846874999975
                },
                {
                    "name": "E3",
                    "midi": 52,
                    "time": 42.42852900000024,
                    "velocity": 0.48031496062992124,
                    "duration": 0.10267846874999975
                },
                {
                    "name": "A#3",
                    "midi": 58,
                    "time": 42.53567175000024,
                    "velocity": 0.48031496062992124,
                    "duration": 0.10267846874999975
                },
                {
                    "name": "G3",
                    "midi": 55,
                    "time": 42.64281450000024,
                    "velocity": 0.48031496062992124,
                    "duration": 0.20982121875000104
                },
                {
                    "name": "B3",
                    "midi": 59,
                    "time": 42.64281450000024,
                    "velocity": 0.48031496062992124,
                    "duration": 0.10267846874999975
                },
                {
                    "name": "C4",
                    "midi": 60,
                    "time": 42.74995725000024,
                    "velocity": 0.48031496062992124,
                    "duration": 0.10267846874999975
                },
                {
                    "name": "C#4",
                    "midi": 61,
                    "time": 42.857100000000244,
                    "velocity": 0.48031496062992124,
                    "duration": 0.10267846874999975
                },
                {
                    "name": "E3",
                    "midi": 52,
                    "time": 42.857100000000244,
                    "velocity": 0.48031496062992124,
                    "duration": 0.20982121875000104
                },
                {
                    "name": "C4",
                    "midi": 60,
                    "time": 42.964242750000246,
                    "velocity": 0.48031496062992124,
                    "duration": 0.10267846874999975
                },
                {
                    "name": "C#4",
                    "midi": 61,
                    "time": 43.07138550000025,
                    "velocity": 0.48031496062992124,
                    "duration": 0.10267846874999975
                },
                {
                    "name": "G3",
                    "midi": 55,
                    "time": 43.07138550000025,
                    "velocity": 0.48031496062992124,
                    "duration": 0.20982121875000104
                },
                {
                    "name": "D4",
                    "midi": 62,
                    "time": 43.17852825000025,
                    "velocity": 0.48031496062992124,
                    "duration": 0.10267846874999975
                },
                {
                    "name": "D4",
                    "midi": 62,
                    "time": 43.28567100000025,
                    "velocity": 0.48031496062992124,
                    "duration": 0.10267846874999975
                },
                {
                    "name": "E3",
                    "midi": 52,
                    "time": 43.28567100000025,
                    "velocity": 0.48031496062992124,
                    "duration": 0.20982121875000104
                },
                {
                    "name": "D#4",
                    "midi": 63,
                    "time": 43.39281375000025,
                    "velocity": 0.48031496062992124,
                    "duration": 0.10267846874999975
                },
                {
                    "name": "D#4",
                    "midi": 63,
                    "time": 43.49995650000025,
                    "velocity": 0.48031496062992124,
                    "duration": 0.10267846874999975
                },
                {
                    "name": "G3",
                    "midi": 55,
                    "time": 43.49995650000025,
                    "velocity": 0.48031496062992124,
                    "duration": 0.20982121875000104
                },
                {
                    "name": "E4",
                    "midi": 64,
                    "time": 43.60709925000025,
                    "velocity": 0.48031496062992124,
                    "duration": 0.10267846874999975
                },
                {
                    "name": "E4",
                    "midi": 64,
                    "time": 43.714242000000255,
                    "velocity": 0.48031496062992124,
                    "duration": 0.10267846874999975
                },
                {
                    "name": "E3",
                    "midi": 52,
                    "time": 43.714242000000255,
                    "velocity": 0.48031496062992124,
                    "duration": 0.20982121875000104
                },
                {
                    "name": "F4",
                    "midi": 65,
                    "time": 43.821384750000256,
                    "velocity": 0.48031496062992124,
                    "duration": 0.10267846874999975
                },
                {
                    "name": "F4",
                    "midi": 65,
                    "time": 43.92852750000026,
                    "velocity": 0.48031496062992124,
                    "duration": 0.10267846874999975
                },
                {
                    "name": "G3",
                    "midi": 55,
                    "time": 43.92852750000026,
                    "velocity": 0.48031496062992124,
                    "duration": 0.20982121875000104
                },
                {
                    "name": "F#4",
                    "midi": 66,
                    "time": 44.03567025000026,
                    "velocity": 0.48031496062992124,
                    "duration": 0.10267846874999975
                },
                {
                    "name": "B3",
                    "midi": 59,
                    "time": 44.14281300000026,
                    "velocity": 0.48031496062992124,
                    "duration": 0.20982121875000104
                },
                {
                    "name": "F#4",
                    "midi": 66,
                    "time": 44.14281300000026,
                    "velocity": 0.48031496062992124,
                    "duration": 0.10267846874999975
                },
                {
                    "name": "G4",
                    "midi": 67,
                    "time": 44.24995575000026,
                    "velocity": 0.48031496062992124,
                    "duration": 0.10267846874999975
                },
                {
                    "name": "G#4",
                    "midi": 68,
                    "time": 44.35709850000026,
                    "velocity": 0.48031496062992124,
                    "duration": 0.20982121875000104
                },
                {
                    "name": "C4",
                    "midi": 60,
                    "time": 44.35709850000026,
                    "velocity": 0.48031496062992124,
                    "duration": 0.10267846874999975
                },
                {
                    "name": "E4",
                    "midi": 64,
                    "time": 44.46424125000026,
                    "velocity": 0.48031496062992124,
                    "duration": 0.10267846874999975
                },
                {
                    "name": "F#3",
                    "midi": 54,
                    "time": 44.571384000000265,
                    "velocity": 0.48031496062992124,
                    "duration": 0.10267846874999975
                },
                {
                    "name": "B3",
                    "midi": 59,
                    "time": 44.571384000000265,
                    "velocity": 0.48031496062992124,
                    "duration": 0.10267846874999975
                },
                {
                    "name": "C4",
                    "midi": 60,
                    "time": 44.678526750000266,
                    "velocity": 0.48031496062992124,
                    "duration": 0.10267846874999975
                },
                {
                    "name": "G4",
                    "midi": 67,
                    "time": 44.78566950000027,
                    "velocity": 0.48031496062992124,
                    "duration": 0.20982121875000104
                },
                {
                    "name": "C4",
                    "midi": 60,
                    "time": 44.78566950000027,
                    "velocity": 0.48031496062992124,
                    "duration": 0.10267846874999975
                },
                {
                    "name": "E4",
                    "midi": 64,
                    "time": 44.89281225000027,
                    "velocity": 0.48031496062992124,
                    "duration": 0.10267846874999975
                },
                {
                    "name": "F#3",
                    "midi": 54,
                    "time": 44.99995500000027,
                    "velocity": 0.48031496062992124,
                    "duration": 0.10267846874999975
                },
                {
                    "name": "B3",
                    "midi": 59,
                    "time": 44.99995500000027,
                    "velocity": 0.48031496062992124,
                    "duration": 0.10267846874999975
                },
                {
                    "name": "C4",
                    "midi": 60,
                    "time": 45.10709775000027,
                    "velocity": 0.48031496062992124,
                    "duration": 0.10267846874999975
                },
                {
                    "name": "F#4",
                    "midi": 66,
                    "time": 45.21424050000027,
                    "velocity": 0.48031496062992124,
                    "duration": 0.20982121875000104
                },
                {
                    "name": "C4",
                    "midi": 60,
                    "time": 45.21424050000027,
                    "velocity": 0.48031496062992124,
                    "duration": 0.10267846874999975
                },
                {
                    "name": "E4",
                    "midi": 64,
                    "time": 45.321383250000274,
                    "velocity": 0.48031496062992124,
                    "duration": 0.10267846874999975
                },
                {
                    "name": "F#3",
                    "midi": 54,
                    "time": 45.428526000000275,
                    "velocity": 0.48031496062992124,
                    "duration": 0.10267846874999975
                },
                {
                    "name": "B3",
                    "midi": 59,
                    "time": 45.428526000000275,
                    "velocity": 0.48031496062992124,
                    "duration": 0.10267846874999975
                },
                {
                    "name": "C4",
                    "midi": 60,
                    "time": 45.535668750000276,
                    "velocity": 0.48031496062992124,
                    "duration": 0.10267846874999975
                },
                {
                    "name": "F4",
                    "midi": 65,
                    "time": 45.64281150000028,
                    "velocity": 0.48031496062992124,
                    "duration": 0.20982121875000104
                },
                {
                    "name": "C4",
                    "midi": 60,
                    "time": 45.64281150000028,
                    "velocity": 0.48031496062992124,
                    "duration": 0.10267846874999975
                },
                {
                    "name": "E4",
                    "midi": 64,
                    "time": 45.74995425000028,
                    "velocity": 0.48031496062992124,
                    "duration": 0.10267846874999975
                },
                {
                    "name": "F#3",
                    "midi": 54,
                    "time": 45.85709700000028,
                    "velocity": 0.48031496062992124,
                    "duration": 0.10267846874999975
                },
                {
                    "name": "B3",
                    "midi": 59,
                    "time": 45.85709700000028,
                    "velocity": 0.48031496062992124,
                    "duration": 0.10267846874999975
                },
                {
                    "name": "C4",
                    "midi": 60,
                    "time": 45.96423975000028,
                    "velocity": 0.48031496062992124,
                    "duration": 0.10267846874999975
                },
                {
                    "name": "C#4",
                    "midi": 61,
                    "time": 46.07138250000028,
                    "velocity": 0.48031496062992124,
                    "duration": 0.10267846874999975
                },
                {
                    "name": "A3",
                    "midi": 57,
                    "time": 46.07138250000028,
                    "velocity": 0.48031496062992124,
                    "duration": 0.20982121875000104
                },
                {
                    "name": "D4",
                    "midi": 62,
                    "time": 46.178525250000284,
                    "velocity": 0.48031496062992124,
                    "duration": 0.10267846874999975
                },
                {
                    "name": "D4",
                    "midi": 62,
                    "time": 46.285668000000285,
                    "velocity": 0.48031496062992124,
                    "duration": 0.10267846874999975
                },
                {
                    "name": "F#3",
                    "midi": 54,
                    "time": 46.285668000000285,
                    "velocity": 0.48031496062992124,
                    "duration": 0.20982121875000104
                },
                {
                    "name": "D#4",
                    "midi": 63,
                    "time": 46.39281075000029,
                    "velocity": 0.48031496062992124,
                    "duration": 0.10267846874999975
                },
                {
                    "name": "A3",
                    "midi": 57,
                    "time": 46.49995350000029,
                    "velocity": 0.48031496062992124,
                    "duration": 0.20982121875000104
                },
                {
                    "name": "D#4",
                    "midi": 63,
                    "time": 46.49995350000029,
                    "velocity": 0.48031496062992124,
                    "duration": 0.10267846874999975
                },
                {
                    "name": "E4",
                    "midi": 64,
                    "time": 46.60709625000029,
                    "velocity": 0.48031496062992124,
                    "duration": 0.10267846874999975
                },
                {
                    "name": "F#3",
                    "midi": 54,
                    "time": 46.71423900000029,
                    "velocity": 0.48031496062992124,
                    "duration": 0.20982121875000104
                },
                {
                    "name": "E4",
                    "midi": 64,
                    "time": 46.71423900000029,
                    "velocity": 0.48031496062992124,
                    "duration": 0.10267846874999975
                },
                {
                    "name": "F4",
                    "midi": 65,
                    "time": 46.82138175000029,
                    "velocity": 0.48031496062992124,
                    "duration": 0.10267846874999975
                },
                {
                    "name": "F4",
                    "midi": 65,
                    "time": 46.92852450000029,
                    "velocity": 0.48031496062992124,
                    "duration": 0.10267846874999975
                },
                {
                    "name": "A3",
                    "midi": 57,
                    "time": 46.92852450000029,
                    "velocity": 0.48031496062992124,
                    "duration": 0.20982121875000104
                },
                {
                    "name": "F#4",
                    "midi": 66,
                    "time": 47.035667250000294,
                    "velocity": 0.48031496062992124,
                    "duration": 0.10267846874999975
                },
                {
                    "name": "F#3",
                    "midi": 54,
                    "time": 47.142810000000296,
                    "velocity": 0.48031496062992124,
                    "duration": 0.20982121875000104
                },
                {
                    "name": "F#4",
                    "midi": 66,
                    "time": 47.142810000000296,
                    "velocity": 0.48031496062992124,
                    "duration": 0.10267846874999975
                },
                {
                    "name": "G4",
                    "midi": 67,
                    "time": 47.2499527500003,
                    "velocity": 0.48031496062992124,
                    "duration": 0.10267846874999975
                },
                {
                    "name": "G4",
                    "midi": 67,
                    "time": 47.3570955000003,
                    "velocity": 0.48031496062992124,
                    "duration": 0.10267846874999975
                },
                {
                    "name": "A3",
                    "midi": 57,
                    "time": 47.3570955000003,
                    "velocity": 0.48031496062992124,
                    "duration": 0.20982121875000104
                },
                {
                    "name": "G#4",
                    "midi": 68,
                    "time": 47.4642382500003,
                    "velocity": 0.48031496062992124,
                    "duration": 0.10267846874999975
                },
                {
                    "name": "G#4",
                    "midi": 68,
                    "time": 47.5713810000003,
                    "velocity": 0.48031496062992124,
                    "duration": 0.10267846874999975
                },
                {
                    "name": "C4",
                    "midi": 60,
                    "time": 47.5713810000003,
                    "velocity": 0.48031496062992124,
                    "duration": 0.20982121875000104
                },
                {
                    "name": "A4",
                    "midi": 69,
                    "time": 47.6785237500003,
                    "velocity": 0.48031496062992124,
                    "duration": 0.10267846874999975
                },
                {
                    "name": "D3",
                    "midi": 50,
                    "time": 47.7856665000003,
                    "velocity": 0.48031496062992124,
                    "duration": 0.10267846874999975
                },
                {
                    "name": "E3",
                    "midi": 52,
                    "time": 47.892809250000305,
                    "velocity": 0.48031496062992124,
                    "duration": 0.10267846874999975
                },
                {
                    "name": "D3",
                    "midi": 50,
                    "time": 47.999952000000306,
                    "velocity": 0.48031496062992124,
                    "duration": 0.10267846874999975
                },
                {
                    "name": "F3",
                    "midi": 53,
                    "time": 47.999952000000306,
                    "velocity": 0.48031496062992124,
                    "duration": 0.10267846874999975
                },
                {
                    "name": "D2",
                    "midi": 38,
                    "time": 48.10709475000031,
                    "velocity": 0.48031496062992124,
                    "duration": 0.10267846874999975
                },
                {
                    "name": "A3",
                    "midi": 57,
                    "time": 48.10709475000031,
                    "velocity": 0.48031496062992124,
                    "duration": 0.10267846874999975
                },
                {
                    "name": "F#3",
                    "midi": 54,
                    "time": 48.10709475000031,
                    "velocity": 0.48031496062992124,
                    "duration": 0.10267846874999975
                },
                {
                    "name": "A1",
                    "midi": 33,
                    "time": 48.21423750000031,
                    "velocity": 0.48031496062992124,
                    "duration": 0.10267846874999975
                },
                {
                    "name": "F#3",
                    "midi": 54,
                    "time": 48.21423750000031,
                    "velocity": 0.48031496062992124,
                    "duration": 0.10267846874999975
                },
                {
                    "name": "A2",
                    "midi": 45,
                    "time": 48.32138025000031,
                    "velocity": 0.48031496062992124,
                    "duration": 0.10267846874999975
                },
                {
                    "name": "G3",
                    "midi": 55,
                    "time": 48.32138025000031,
                    "velocity": 0.48031496062992124,
                    "duration": 0.10267846874999975
                },
                {
                    "name": "A#3",
                    "midi": 58,
                    "time": 48.32138025000031,
                    "velocity": 0.48031496062992124,
                    "duration": 0.10267846874999975
                },
                {
                    "name": "D3",
                    "midi": 50,
                    "time": 48.42852300000031,
                    "velocity": 0.48031496062992124,
                    "duration": 0.10267846874999975
                },
                {
                    "name": "G3",
                    "midi": 55,
                    "time": 48.42852300000031,
                    "velocity": 0.48031496062992124,
                    "duration": 0.10267846874999975
                },
                {
                    "name": "D2",
                    "midi": 38,
                    "time": 48.53566575000031,
                    "velocity": 0.48031496062992124,
                    "duration": 0.10267846874999975
                },
                {
                    "name": "G#3",
                    "midi": 56,
                    "time": 48.53566575000031,
                    "velocity": 0.48031496062992124,
                    "duration": 0.10267846874999975
                },
                {
                    "name": "B3",
                    "midi": 59,
                    "time": 48.53566575000031,
                    "velocity": 0.48031496062992124,
                    "duration": 0.10267846874999975
                },
                {
                    "name": "A1",
                    "midi": 33,
                    "time": 48.642808500000314,
                    "velocity": 0.48031496062992124,
                    "duration": 0.10267846874999975
                },
                {
                    "name": "G#3",
                    "midi": 56,
                    "time": 48.642808500000314,
                    "velocity": 0.48031496062992124,
                    "duration": 0.10267846874999975
                },
                {
                    "name": "A2",
                    "midi": 45,
                    "time": 48.749951250000315,
                    "velocity": 0.48031496062992124,
                    "duration": 0.10267846874999975
                },
                {
                    "name": "A3",
                    "midi": 57,
                    "time": 48.749951250000315,
                    "velocity": 0.48031496062992124,
                    "duration": 0.10267846874999975
                },
                {
                    "name": "C4",
                    "midi": 60,
                    "time": 48.749951250000315,
                    "velocity": 0.48031496062992124,
                    "duration": 0.10267846874999975
                },
                {
                    "name": "D3",
                    "midi": 50,
                    "time": 48.857094000000316,
                    "velocity": 0.48031496062992124,
                    "duration": 0.10267846874999975
                },
                {
                    "name": "A3",
                    "midi": 57,
                    "time": 48.857094000000316,
                    "velocity": 0.48031496062992124,
                    "duration": 0.10267846874999975
                },
                {
                    "name": "D2",
                    "midi": 38,
                    "time": 48.96423675000032,
                    "velocity": 0.48031496062992124,
                    "duration": 0.10267846874999975
                },
                {
                    "name": "C#4",
                    "midi": 61,
                    "time": 48.96423675000032,
                    "velocity": 0.48031496062992124,
                    "duration": 0.10267846874999975
                },
                {
                    "name": "A#3",
                    "midi": 58,
                    "time": 48.96423675000032,
                    "velocity": 0.48031496062992124,
                    "duration": 0.10267846874999975
                },
                {
                    "name": "A1",
                    "midi": 33,
                    "time": 49.07137950000032,
                    "velocity": 0.48031496062992124,
                    "duration": 0.10267846874999975
                },
                {
                    "name": "A#3",
                    "midi": 58,
                    "time": 49.07137950000032,
                    "velocity": 0.48031496062992124,
                    "duration": 0.10267846874999975
                },
                {
                    "name": "A2",
                    "midi": 45,
                    "time": 49.17852225000032,
                    "velocity": 0.48031496062992124,
                    "duration": 0.10267846874999975
                },
                {
                    "name": "B3",
                    "midi": 59,
                    "time": 49.17852225000032,
                    "velocity": 0.48031496062992124,
                    "duration": 0.10267846874999975
                },
                {
                    "name": "D4",
                    "midi": 62,
                    "time": 49.17852225000032,
                    "velocity": 0.48031496062992124,
                    "duration": 0.10267846874999975
                },
                {
                    "name": "D3",
                    "midi": 50,
                    "time": 49.28566500000032,
                    "velocity": 0.48031496062992124,
                    "duration": 0.10267846874999975
                },
                {
                    "name": "B3",
                    "midi": 59,
                    "time": 49.28566500000032,
                    "velocity": 0.48031496062992124,
                    "duration": 0.10267846874999975
                },
                {
                    "name": "D2",
                    "midi": 38,
                    "time": 49.39280775000032,
                    "velocity": 0.48031496062992124,
                    "duration": 0.10267846874999975
                },
                {
                    "name": "C4",
                    "midi": 60,
                    "time": 49.39280775000032,
                    "velocity": 0.48031496062992124,
                    "duration": 0.10267846874999975
                },
                {
                    "name": "D#4",
                    "midi": 63,
                    "time": 49.39280775000032,
                    "velocity": 0.48031496062992124,
                    "duration": 0.10267846874999975
                },
                {
                    "name": "A1",
                    "midi": 33,
                    "time": 49.499950500000324,
                    "velocity": 0.48031496062992124,
                    "duration": 0.10267846874999975
                },
                {
                    "name": "C4",
                    "midi": 60,
                    "time": 49.499950500000324,
                    "velocity": 0.48031496062992124,
                    "duration": 0.10267846874999975
                },
                {
                    "name": "A2",
                    "midi": 45,
                    "time": 49.607093250000325,
                    "velocity": 0.48031496062992124,
                    "duration": 0.10267846874999975
                },
                {
                    "name": "C#4",
                    "midi": 61,
                    "time": 49.607093250000325,
                    "velocity": 0.48031496062992124,
                    "duration": 0.10267846874999975
                },
                {
                    "name": "E4",
                    "midi": 64,
                    "time": 49.607093250000325,
                    "velocity": 0.48031496062992124,
                    "duration": 0.10267846874999975
                },
                {
                    "name": "E3",
                    "midi": 52,
                    "time": 49.71423600000033,
                    "velocity": 0.48031496062992124,
                    "duration": 0.10267846874999975
                },
                {
                    "name": "G#4",
                    "midi": 68,
                    "time": 49.71423600000033,
                    "velocity": 0.48031496062992124,
                    "duration": 0.20982121875000104
                },
                {
                    "name": "E2",
                    "midi": 40,
                    "time": 49.82137875000033,
                    "velocity": 0.48031496062992124,
                    "duration": 0.10267846874999975
                },
                {
                    "name": "G4",
                    "midi": 67,
                    "time": 49.82137875000033,
                    "velocity": 0.48031496062992124,
                    "duration": 0.10267846874999975
                },
                {
                    "name": "E4",
                    "midi": 64,
                    "time": 49.82137875000033,
                    "velocity": 0.48031496062992124,
                    "duration": 0.10267846874999975
                },
                {
                    "name": "A1",
                    "midi": 33,
                    "time": 49.92852150000033,
                    "velocity": 0.48031496062992124,
                    "duration": 0.10267846874999975
                },
                {
                    "name": "G#4",
                    "midi": 68,
                    "time": 49.92852150000033,
                    "velocity": 0.48031496062992124,
                    "duration": 0.20982121875000104
                },
                {
                    "name": "E4",
                    "midi": 64,
                    "time": 49.92852150000033,
                    "velocity": 0.48031496062992124,
                    "duration": 0.10267846874999975
                },
                {
                    "name": "G4",
                    "midi": 67,
                    "time": 49.92852150000033,
                    "velocity": 0.48031496062992124,
                    "duration": 0.10267846874999975
                },
                {
                    "name": "A2",
                    "midi": 45,
                    "time": 50.03566425000033,
                    "velocity": 0.48031496062992124,
                    "duration": 0.10267846874999975
                },
                {
                    "name": "F#4",
                    "midi": 66,
                    "time": 50.03566425000033,
                    "velocity": 0.48031496062992124,
                    "duration": 0.10267846874999975
                },
                {
                    "name": "D#4",
                    "midi": 63,
                    "time": 50.03566425000033,
                    "velocity": 0.48031496062992124,
                    "duration": 0.10267846874999975
                },
                {
                    "name": "E3",
                    "midi": 52,
                    "time": 50.14280700000033,
                    "velocity": 0.48031496062992124,
                    "duration": 0.10267846874999975
                },
                {
                    "name": "D#4",
                    "midi": 63,
                    "time": 50.14280700000033,
                    "velocity": 0.48031496062992124,
                    "duration": 0.10267846874999975
                },
                {
                    "name": "G#4",
                    "midi": 68,
                    "time": 50.14280700000033,
                    "velocity": 0.48031496062992124,
                    "duration": 0.20982121875000104
                },
                {
                    "name": "F#4",
                    "midi": 66,
                    "time": 50.14280700000033,
                    "velocity": 0.48031496062992124,
                    "duration": 0.10267846874999975
                },
                {
                    "name": "E2",
                    "midi": 40,
                    "time": 50.24994975000033,
                    "velocity": 0.48031496062992124,
                    "duration": 0.10267846874999975
                },
                {
                    "name": "D4",
                    "midi": 62,
                    "time": 50.24994975000033,
                    "velocity": 0.48031496062992124,
                    "duration": 0.10267846874999975
                },
                {
                    "name": "F4",
                    "midi": 65,
                    "time": 50.24994975000033,
                    "velocity": 0.48031496062992124,
                    "duration": 0.10267846874999975
                },
                {
                    "name": "A1",
                    "midi": 33,
                    "time": 50.357092500000334,
                    "velocity": 0.48031496062992124,
                    "duration": 0.10267846874999975
                },
                {
                    "name": "G#4",
                    "midi": 68,
                    "time": 50.357092500000334,
                    "velocity": 0.48031496062992124,
                    "duration": 0.20982121875000104
                },
                {
                    "name": "D4",
                    "midi": 62,
                    "time": 50.357092500000334,
                    "velocity": 0.48031496062992124,
                    "duration": 0.10267846874999975
                },
                {
                    "name": "F4",
                    "midi": 65,
                    "time": 50.357092500000334,
                    "velocity": 0.48031496062992124,
                    "duration": 0.10267846874999975
                },
                {
                    "name": "A2",
                    "midi": 45,
                    "time": 50.464235250000335,
                    "velocity": 0.48031496062992124,
                    "duration": 0.10267846874999975
                },
                {
                    "name": "C#4",
                    "midi": 61,
                    "time": 50.464235250000335,
                    "velocity": 0.48031496062992124,
                    "duration": 0.10267846874999975
                },
                {
                    "name": "E4",
                    "midi": 64,
                    "time": 50.464235250000335,
                    "velocity": 0.48031496062992124,
                    "duration": 0.10267846874999975
                },
                {
                    "name": "E3",
                    "midi": 52,
                    "time": 50.57137800000034,
                    "velocity": 0.48031496062992124,
                    "duration": 0.10267846874999975
                },
                {
                    "name": "C#4",
                    "midi": 61,
                    "time": 50.57137800000034,
                    "velocity": 0.48031496062992124,
                    "duration": 0.10267846874999975
                },
                {
                    "name": "E4",
                    "midi": 64,
                    "time": 50.57137800000034,
                    "velocity": 0.48031496062992124,
                    "duration": 0.10267846874999975
                },
                {
                    "name": "G#4",
                    "midi": 68,
                    "time": 50.57137800000034,
                    "velocity": 0.48031496062992124,
                    "duration": 0.20982121875000104
                },
                {
                    "name": "E2",
                    "midi": 40,
                    "time": 50.67852075000034,
                    "velocity": 0.48031496062992124,
                    "duration": 0.10267846874999975
                },
                {
                    "name": "D#4",
                    "midi": 63,
                    "time": 50.67852075000034,
                    "velocity": 0.48031496062992124,
                    "duration": 0.10267846874999975
                },
                {
                    "name": "C4",
                    "midi": 60,
                    "time": 50.67852075000034,
                    "velocity": 0.48031496062992124,
                    "duration": 0.10267846874999975
                },
                {
                    "name": "A1",
                    "midi": 33,
                    "time": 50.78566350000034,
                    "velocity": 0.48031496062992124,
                    "duration": 0.10267846874999975
                },
                {
                    "name": "G#4",
                    "midi": 68,
                    "time": 50.78566350000034,
                    "velocity": 0.48031496062992124,
                    "duration": 0.20982121875000104
                },
                {
                    "name": "D#4",
                    "midi": 63,
                    "time": 50.78566350000034,
                    "velocity": 0.48031496062992124,
                    "duration": 0.10267846874999975
                },
                {
                    "name": "C4",
                    "midi": 60,
                    "time": 50.78566350000034,
                    "velocity": 0.48031496062992124,
                    "duration": 0.10267846874999975
                },
                {
                    "name": "A2",
                    "midi": 45,
                    "time": 50.89280625000034,
                    "velocity": 0.48031496062992124,
                    "duration": 0.10267846874999975
                },
                {
                    "name": "D4",
                    "midi": 62,
                    "time": 50.89280625000034,
                    "velocity": 0.48031496062992124,
                    "duration": 0.10267846874999975
                },
                {
                    "name": "B3",
                    "midi": 59,
                    "time": 50.89280625000034,
                    "velocity": 0.48031496062992124,
                    "duration": 0.10267846874999975
                },
                {
                    "name": "E3",
                    "midi": 52,
                    "time": 50.99994900000034,
                    "velocity": 0.48031496062992124,
                    "duration": 0.10267846874999975
                },
                {
                    "name": "G#4",
                    "midi": 68,
                    "time": 50.99994900000034,
                    "velocity": 0.48031496062992124,
                    "duration": 0.20982121875000104
                },
                {
                    "name": "D4",
                    "midi": 62,
                    "time": 50.99994900000034,
                    "velocity": 0.48031496062992124,
                    "duration": 0.10267846874999975
                },
                {
                    "name": "B3",
                    "midi": 59,
                    "time": 50.99994900000034,
                    "velocity": 0.48031496062992124,
                    "duration": 0.10267846874999975
                },
                {
                    "name": "E2",
                    "midi": 40,
                    "time": 51.10709175000034,
                    "velocity": 0.48031496062992124,
                    "duration": 0.10267846874999975
                },
                {
                    "name": "A#3",
                    "midi": 58,
                    "time": 51.10709175000034,
                    "velocity": 0.48031496062992124,
                    "duration": 0.10267846874999975
                },
                {
                    "name": "C#4",
                    "midi": 61,
                    "time": 51.10709175000034,
                    "velocity": 0.48031496062992124,
                    "duration": 0.10267846874999975
                },
                {
                    "name": "A1",
                    "midi": 33,
                    "time": 51.214234500000344,
                    "velocity": 0.48031496062992124,
                    "duration": 0.10267846874999975
                },
                {
                    "name": "A#3",
                    "midi": 58,
                    "time": 51.214234500000344,
                    "velocity": 0.48031496062992124,
                    "duration": 0.10267846874999975
                },
                {
                    "name": "C#4",
                    "midi": 61,
                    "time": 51.214234500000344,
                    "velocity": 0.48031496062992124,
                    "duration": 0.10267846874999975
                },
                {
                    "name": "A4",
                    "midi": 69,
                    "time": 51.214234500000344,
                    "velocity": 0.48031496062992124,
                    "duration": 0.20982121875000104
                },
                {
                    "name": "A2",
                    "midi": 45,
                    "time": 51.321377250000346,
                    "velocity": 0.48031496062992124,
                    "duration": 0.10267846874999975
                },
                {
                    "name": "C4",
                    "midi": 60,
                    "time": 51.321377250000346,
                    "velocity": 0.48031496062992124,
                    "duration": 0.10267846874999975
                },
                {
                    "name": "A3",
                    "midi": 57,
                    "time": 51.321377250000346,
                    "velocity": 0.48031496062992124,
                    "duration": 0.10267846874999975
                },
                {
                    "name": "F3",
                    "midi": 53,
                    "time": 51.42852000000035,
                    "velocity": 0.48031496062992124,
                    "duration": 0.10267846874999975
                },
                {
                    "name": "G#3",
                    "midi": 56,
                    "time": 51.42852000000035,
                    "velocity": 0.48031496062992124,
                    "duration": 0.10267846874999975
                },
                {
                    "name": "F2",
                    "midi": 41,
                    "time": 51.53566275000035,
                    "velocity": 0.48031496062992124,
                    "duration": 0.10267846874999975
                },
                {
                    "name": "A3",
                    "midi": 57,
                    "time": 51.53566275000035,
                    "velocity": 0.48031496062992124,
                    "duration": 0.10267846874999975
                },
                {
                    "name": "C4",
                    "midi": 60,
                    "time": 51.53566275000035,
                    "velocity": 0.48031496062992124,
                    "duration": 0.10267846874999975
                },
                {
                    "name": "C2",
                    "midi": 36,
                    "time": 51.64280550000035,
                    "velocity": 0.48031496062992124,
                    "duration": 0.10267846874999975
                },
                {
                    "name": "A3",
                    "midi": 57,
                    "time": 51.64280550000035,
                    "velocity": 0.48031496062992124,
                    "duration": 0.10267846874999975
                },
                {
                    "name": "C3",
                    "midi": 48,
                    "time": 51.74994825000035,
                    "velocity": 0.48031496062992124,
                    "duration": 0.10267846874999975
                },
                {
                    "name": "A#3",
                    "midi": 58,
                    "time": 51.74994825000035,
                    "velocity": 0.48031496062992124,
                    "duration": 0.10267846874999975
                },
                {
                    "name": "C#4",
                    "midi": 61,
                    "time": 51.74994825000035,
                    "velocity": 0.48031496062992124,
                    "duration": 0.10267846874999975
                },
                {
                    "name": "F3",
                    "midi": 53,
                    "time": 51.85709100000035,
                    "velocity": 0.48031496062992124,
                    "duration": 0.10267846874999975
                },
                {
                    "name": "A#3",
                    "midi": 58,
                    "time": 51.85709100000035,
                    "velocity": 0.48031496062992124,
                    "duration": 0.10267846874999975
                },
                {
                    "name": "F2",
                    "midi": 41,
                    "time": 51.96423375000035,
                    "velocity": 0.48031496062992124,
                    "duration": 0.10267846874999975
                },
                {
                    "name": "B3",
                    "midi": 59,
                    "time": 51.96423375000035,
                    "velocity": 0.48031496062992124,
                    "duration": 0.10267846874999975
                },
                {
                    "name": "D4",
                    "midi": 62,
                    "time": 51.96423375000035,
                    "velocity": 0.48031496062992124,
                    "duration": 0.10267846874999975
                },
                {
                    "name": "C2",
                    "midi": 36,
                    "time": 52.071376500000355,
                    "velocity": 0.48031496062992124,
                    "duration": 0.10267846874999975
                },
                {
                    "name": "B3",
                    "midi": 59,
                    "time": 52.071376500000355,
                    "velocity": 0.48031496062992124,
                    "duration": 0.10267846874999975
                },
                {
                    "name": "C3",
                    "midi": 48,
                    "time": 52.178519250000356,
                    "velocity": 0.48031496062992124,
                    "duration": 0.10267846874999975
                },
                {
                    "name": "D#4",
                    "midi": 63,
                    "time": 52.178519250000356,
                    "velocity": 0.48031496062992124,
                    "duration": 0.10267846874999975
                },
                {
                    "name": "C4",
                    "midi": 60,
                    "time": 52.178519250000356,
                    "velocity": 0.48031496062992124,
                    "duration": 0.10267846874999975
                },
                {
                    "name": "F3",
                    "midi": 53,
                    "time": 52.28566200000036,
                    "velocity": 0.48031496062992124,
                    "duration": 0.10267846874999975
                },
                {
                    "name": "C4",
                    "midi": 60,
                    "time": 52.28566200000036,
                    "velocity": 0.48031496062992124,
                    "duration": 0.10267846874999975
                },
                {
                    "name": "F2",
                    "midi": 41,
                    "time": 52.39280475000036,
                    "velocity": 0.48031496062992124,
                    "duration": 0.10267846874999975
                },
                {
                    "name": "C#4",
                    "midi": 61,
                    "time": 52.39280475000036,
                    "velocity": 0.48031496062992124,
                    "duration": 0.10267846874999975
                },
                {
                    "name": "E4",
                    "midi": 64,
                    "time": 52.39280475000036,
                    "velocity": 0.48031496062992124,
                    "duration": 0.10267846874999975
                },
                {
                    "name": "C2",
                    "midi": 36,
                    "time": 52.49994750000036,
                    "velocity": 0.48031496062992124,
                    "duration": 0.10267846874999975
                },
                {
                    "name": "C#4",
                    "midi": 61,
                    "time": 52.49994750000036,
                    "velocity": 0.48031496062992124,
                    "duration": 0.10267846874999975
                },
                {
                    "name": "C3",
                    "midi": 48,
                    "time": 52.60709025000036,
                    "velocity": 0.48031496062992124,
                    "duration": 0.10267846874999975
                },
                {
                    "name": "D4",
                    "midi": 62,
                    "time": 52.60709025000036,
                    "velocity": 0.48031496062992124,
                    "duration": 0.10267846874999975
                },
                {
                    "name": "F4",
                    "midi": 65,
                    "time": 52.60709025000036,
                    "velocity": 0.48031496062992124,
                    "duration": 0.10267846874999975
                },
                {
                    "name": "F3",
                    "midi": 53,
                    "time": 52.71423300000036,
                    "velocity": 0.48031496062992124,
                    "duration": 0.10267846874999975
                },
                {
                    "name": "D4",
                    "midi": 62,
                    "time": 52.71423300000036,
                    "velocity": 0.48031496062992124,
                    "duration": 0.10267846874999975
                },
                {
                    "name": "F2",
                    "midi": 41,
                    "time": 52.821375750000364,
                    "velocity": 0.48031496062992124,
                    "duration": 0.10267846874999975
                },
                {
                    "name": "F#4",
                    "midi": 66,
                    "time": 52.821375750000364,
                    "velocity": 0.48031496062992124,
                    "duration": 0.10267846874999975
                },
                {
                    "name": "D#4",
                    "midi": 63,
                    "time": 52.821375750000364,
                    "velocity": 0.48031496062992124,
                    "duration": 0.10267846874999975
                },
                {
                    "name": "C2",
                    "midi": 36,
                    "time": 52.928518500000365,
                    "velocity": 0.48031496062992124,
                    "duration": 0.10267846874999975
                },
                {
                    "name": "D#4",
                    "midi": 63,
                    "time": 52.928518500000365,
                    "velocity": 0.48031496062992124,
                    "duration": 0.10267846874999975
                },
                {
                    "name": "C3",
                    "midi": 48,
                    "time": 53.035661250000366,
                    "velocity": 0.48031496062992124,
                    "duration": 0.10267846874999975
                },
                {
                    "name": "E4",
                    "midi": 64,
                    "time": 53.035661250000366,
                    "velocity": 0.48031496062992124,
                    "duration": 0.10267846874999975
                },
                {
                    "name": "G4",
                    "midi": 67,
                    "time": 53.035661250000366,
                    "velocity": 0.48031496062992124,
                    "duration": 0.10267846874999975
                },
                {
                    "name": "G3",
                    "midi": 55,
                    "time": 53.14280400000037,
                    "velocity": 0.48031496062992124,
                    "duration": 0.10267846874999975
                },
                {
                    "name": "B4",
                    "midi": 71,
                    "time": 53.14280400000037,
                    "velocity": 0.48031496062992124,
                    "duration": 0.20982121875000104
                },
                {
                    "name": "G2",
                    "midi": 43,
                    "time": 53.24994675000037,
                    "velocity": 0.48031496062992124,
                    "duration": 0.10267846874999975
                },
                {
                    "name": "G4",
                    "midi": 67,
                    "time": 53.24994675000037,
                    "velocity": 0.48031496062992124,
                    "duration": 0.10267846874999975
                },
                {
                    "name": "A#4",
                    "midi": 70,
                    "time": 53.24994675000037,
                    "velocity": 0.48031496062992124,
                    "duration": 0.10267846874999975
                },
                {
                    "name": "C2",
                    "midi": 36,
                    "time": 53.35708950000037,
                    "velocity": 0.48031496062992124,
                    "duration": 0.10267846874999975
                },
                {
                    "name": "G4",
                    "midi": 67,
                    "time": 53.35708950000037,
                    "velocity": 0.48031496062992124,
                    "duration": 0.10267846874999975
                },
                {
                    "name": "B4",
                    "midi": 71,
                    "time": 53.35708950000037,
                    "velocity": 0.48031496062992124,
                    "duration": 0.20982121875000104
                },
                {
                    "name": "A#4",
                    "midi": 70,
                    "time": 53.35708950000037,
                    "velocity": 0.48031496062992124,
                    "duration": 0.10267846874999975
                },
                {
                    "name": "C3",
                    "midi": 48,
                    "time": 53.46423225000037,
                    "velocity": 0.48031496062992124,
                    "duration": 0.10267846874999975
                },
                {
                    "name": "F#4",
                    "midi": 66,
                    "time": 53.46423225000037,
                    "velocity": 0.48031496062992124,
                    "duration": 0.10267846874999975
                },
                {
                    "name": "A4",
                    "midi": 69,
                    "time": 53.46423225000037,
                    "velocity": 0.48031496062992124,
                    "duration": 0.10267846874999975
                },
                {
                    "name": "G3",
                    "midi": 55,
                    "time": 53.57137500000037,
                    "velocity": 0.48031496062992124,
                    "duration": 0.10267846874999975
                },
                {
                    "name": "F#4",
                    "midi": 66,
                    "time": 53.57137500000037,
                    "velocity": 0.48031496062992124,
                    "duration": 0.10267846874999975
                },
                {
                    "name": "B4",
                    "midi": 71,
                    "time": 53.57137500000037,
                    "velocity": 0.48031496062992124,
                    "duration": 0.20982121875000104
                },
                {
                    "name": "A4",
                    "midi": 69,
                    "time": 53.57137500000037,
                    "velocity": 0.48031496062992124,
                    "duration": 0.10267846874999975
                },
                {
                    "name": "G2",
                    "midi": 43,
                    "time": 53.678517750000374,
                    "velocity": 0.48031496062992124,
                    "duration": 0.10267846874999975
                },
                {
                    "name": "G#4",
                    "midi": 68,
                    "time": 53.678517750000374,
                    "velocity": 0.48031496062992124,
                    "duration": 0.10267846874999975
                },
                {
                    "name": "F4",
                    "midi": 65,
                    "time": 53.678517750000374,
                    "velocity": 0.48031496062992124,
                    "duration": 0.10267846874999975
                },
                {
                    "name": "C2",
                    "midi": 36,
                    "time": 53.785660500000375,
                    "velocity": 0.48031496062992124,
                    "duration": 0.10267846874999975
                },
                {
                    "name": "F4",
                    "midi": 65,
                    "time": 53.785660500000375,
                    "velocity": 0.48031496062992124,
                    "duration": 0.10267846874999975
                },
                {
                    "name": "G#4",
                    "midi": 68,
                    "time": 53.785660500000375,
                    "velocity": 0.48031496062992124,
                    "duration": 0.10267846874999975
                },
                {
                    "name": "B4",
                    "midi": 71,
                    "time": 53.785660500000375,
                    "velocity": 0.48031496062992124,
                    "duration": 0.20982121875000104
                },
                {
                    "name": "C3",
                    "midi": 48,
                    "time": 53.89280325000038,
                    "velocity": 0.48031496062992124,
                    "duration": 0.10267846874999975
                },
                {
                    "name": "E4",
                    "midi": 64,
                    "time": 53.89280325000038,
                    "velocity": 0.48031496062992124,
                    "duration": 0.10267846874999975
                },
                {
                    "name": "G4",
                    "midi": 67,
                    "time": 53.89280325000038,
                    "velocity": 0.48031496062992124,
                    "duration": 0.10267846874999975
                },
                {
                    "name": "B4",
                    "midi": 71,
                    "time": 53.99994600000038,
                    "velocity": 0.48031496062992124,
                    "duration": 0.20982121875000104
                },
                {
                    "name": "G3",
                    "midi": 55,
                    "time": 53.99994600000038,
                    "velocity": 0.48031496062992124,
                    "duration": 0.10267846874999975
                },
                {
                    "name": "G4",
                    "midi": 67,
                    "time": 53.99994600000038,
                    "velocity": 0.48031496062992124,
                    "duration": 0.10267846874999975
                },
                {
                    "name": "E4",
                    "midi": 64,
                    "time": 53.99994600000038,
                    "velocity": 0.48031496062992124,
                    "duration": 0.10267846874999975
                },
                {
                    "name": "G2",
                    "midi": 43,
                    "time": 54.10708875000038,
                    "velocity": 0.48031496062992124,
                    "duration": 0.10267846874999975
                },
                {
                    "name": "D#4",
                    "midi": 63,
                    "time": 54.10708875000038,
                    "velocity": 0.48031496062992124,
                    "duration": 0.10267846874999975
                },
                {
                    "name": "F#4",
                    "midi": 66,
                    "time": 54.10708875000038,
                    "velocity": 0.48031496062992124,
                    "duration": 0.10267846874999975
                },
                {
                    "name": "C2",
                    "midi": 36,
                    "time": 54.21423150000038,
                    "velocity": 0.48031496062992124,
                    "duration": 0.10267846874999975
                },
                {
                    "name": "F#4",
                    "midi": 66,
                    "time": 54.21423150000038,
                    "velocity": 0.48031496062992124,
                    "duration": 0.10267846874999975
                },
                {
                    "name": "D#4",
                    "midi": 63,
                    "time": 54.21423150000038,
                    "velocity": 0.48031496062992124,
                    "duration": 0.10267846874999975
                },
                {
                    "name": "B4",
                    "midi": 71,
                    "time": 54.21423150000038,
                    "velocity": 0.48031496062992124,
                    "duration": 0.20982121875000104
                },
                {
                    "name": "C3",
                    "midi": 48,
                    "time": 54.32137425000038,
                    "velocity": 0.48031496062992124,
                    "duration": 0.10267846874999975
                },
                {
                    "name": "F4",
                    "midi": 65,
                    "time": 54.32137425000038,
                    "velocity": 0.48031496062992124,
                    "duration": 0.10267846874999975
                },
                {
                    "name": "D4",
                    "midi": 62,
                    "time": 54.32137425000038,
                    "velocity": 0.48031496062992124,
                    "duration": 0.10267846874999975
                },
                {
                    "name": "B4",
                    "midi": 71,
                    "time": 54.42851700000038,
                    "velocity": 0.48031496062992124,
                    "duration": 0.20982121875000104
                },
                {
                    "name": "G3",
                    "midi": 55,
                    "time": 54.42851700000038,
                    "velocity": 0.48031496062992124,
                    "duration": 0.10267846874999975
                },
                {
                    "name": "D4",
                    "midi": 62,
                    "time": 54.42851700000038,
                    "velocity": 0.48031496062992124,
                    "duration": 0.10267846874999975
                },
                {
                    "name": "F4",
                    "midi": 65,
                    "time": 54.42851700000038,
                    "velocity": 0.48031496062992124,
                    "duration": 0.10267846874999975
                },
                {
                    "name": "G2",
                    "midi": 43,
                    "time": 54.535659750000384,
                    "velocity": 0.48031496062992124,
                    "duration": 0.10267846874999975
                },
                {
                    "name": "C#4",
                    "midi": 61,
                    "time": 54.535659750000384,
                    "velocity": 0.48031496062992124,
                    "duration": 0.10267846874999975
                },
                {
                    "name": "E4",
                    "midi": 64,
                    "time": 54.535659750000384,
                    "velocity": 0.48031496062992124,
                    "duration": 0.10267846874999975
                },
                {
                    "name": "C2",
                    "midi": 36,
                    "time": 54.642802500000386,
                    "velocity": 0.48031496062992124,
                    "duration": 0.10267846874999975
                },
                {
                    "name": "C5",
                    "midi": 72,
                    "time": 54.642802500000386,
                    "velocity": 0.48031496062992124,
                    "duration": 0.20982121875000104
                },
                {
                    "name": "E4",
                    "midi": 64,
                    "time": 54.642802500000386,
                    "velocity": 0.48031496062992124,
                    "duration": 0.10267846874999975
                },
                {
                    "name": "C#4",
                    "midi": 61,
                    "time": 54.642802500000386,
                    "velocity": 0.48031496062992124,
                    "duration": 0.10267846874999975
                },
                {
                    "name": "C3",
                    "midi": 48,
                    "time": 54.74994525000039,
                    "velocity": 0.48031496062992124,
                    "duration": 0.10267846874999975
                },
                {
                    "name": "C4",
                    "midi": 60,
                    "time": 54.74994525000039,
                    "velocity": 0.48031496062992124,
                    "duration": 0.10267846874999975
                },
                {
                    "name": "D#4",
                    "midi": 63,
                    "time": 54.74994525000039,
                    "velocity": 0.48031496062992124,
                    "duration": 0.10267846874999975
                },
                {
                    "name": "C#4",
                    "midi": 61,
                    "time": 54.85708800000039,
                    "velocity": 0.48031496062992124,
                    "duration": 0.10267846874999975
                },
                {
                    "name": "E3",
                    "midi": 52,
                    "time": 54.85708800000039,
                    "velocity": 0.48031496062992124,
                    "duration": 0.10267846874999975
                },
                {
                    "name": "C#3",
                    "midi": 49,
                    "time": 54.96423075000039,
                    "velocity": 0.48031496062992124,
                    "duration": 0.10267846874999975
                },
                {
                    "name": "E4",
                    "midi": 64,
                    "time": 54.96423075000039,
                    "velocity": 0.48031496062992124,
                    "duration": 0.10267846874999975
                },
                {
                    "name": "C#2",
                    "midi": 37,
                    "time": 55.07137350000039,
                    "velocity": 0.48031496062992124,
                    "duration": 0.10267846874999975
                },
                {
                    "name": "E5",
                    "midi": 76,
                    "time": 55.07137350000039,
                    "velocity": 0.48031496062992124,
                    "duration": 0.20982121875000104
                },
                {
                    "name": "C#3",
                    "midi": 49,
                    "time": 55.17851625000039,
                    "velocity": 0.48031496062992124,
                    "duration": 0.10267846874999975
                },
                {
                    "name": "C#4",
                    "midi": 61,
                    "time": 55.28565900000039,
                    "velocity": 0.48031496062992124,
                    "duration": 0.10267846874999975
                },
                {
                    "name": "F5",
                    "midi": 77,
                    "time": 55.28565900000039,
                    "velocity": 0.48031496062992124,
                    "duration": 0.20982121875000104
                },
                {
                    "name": "C#3",
                    "midi": 49,
                    "time": 55.392801750000395,
                    "velocity": 0.48031496062992124,
                    "duration": 0.10267846874999975
                },
                {
                    "name": "C#2",
                    "midi": 37,
                    "time": 55.499944500000396,
                    "velocity": 0.48031496062992124,
                    "duration": 0.10267846874999975
                },
                {
                    "name": "F3",
                    "midi": 53,
                    "time": 55.499944500000396,
                    "velocity": 0.48031496062992124,
                    "duration": 0.20982121875000104
                },
                {
                    "name": "C#3",
                    "midi": 49,
                    "time": 55.6070872500004,
                    "velocity": 0.48031496062992124,
                    "duration": 0.10267846874999975
                },
                {
                    "name": "A#3",
                    "midi": 58,
                    "time": 55.7142300000004,
                    "velocity": 0.48031496062992124,
                    "duration": 0.10267846874999975
                },
                {
                    "name": "F3",
                    "midi": 53,
                    "time": 55.7142300000004,
                    "velocity": 0.48031496062992124,
                    "duration": 0.20982121875000104
                },
                {
                    "name": "A#2",
                    "midi": 46,
                    "time": 55.8213727500004,
                    "velocity": 0.48031496062992124,
                    "duration": 0.10267846874999975
                },
                {
                    "name": "A#1",
                    "midi": 34,
                    "time": 55.9285155000004,
                    "velocity": 0.48031496062992124,
                    "duration": 0.10267846874999265
                },
                {
                    "name": "F4",
                    "midi": 65,
                    "time": 55.9285155000004,
                    "velocity": 0.48031496062992124,
                    "duration": 0.031249968749996526
                },
                {
                    "name": "F#4",
                    "midi": 66,
                    "time": 55.9642297500004,
                    "velocity": 0.48031496062992124,
                    "duration": 0.033482109375000846
                },
                {
                    "name": "F4",
                    "midi": 65,
                    "time": 55.9999440000004,
                    "velocity": 0.48031496062992124,
                    "duration": 0.031249968749996526
                },
                {
                    "name": "A#2",
                    "midi": 46,
                    "time": 56.035658250000395,
                    "velocity": 0.48031496062992124,
                    "duration": 0.10267846874999265
                },
                {
                    "name": "F#4",
                    "midi": 66,
                    "time": 56.035658250000395,
                    "velocity": 0.48031496062992124,
                    "duration": 0.031249968749996526
                },
                {
                    "name": "F4",
                    "midi": 65,
                    "time": 56.07137250000039,
                    "velocity": 0.48031496062992124,
                    "duration": 0.033482109375000846
                },
                {
                    "name": "F#4",
                    "midi": 66,
                    "time": 56.10708675000039,
                    "velocity": 0.48031496062992124,
                    "duration": 0.031249968749996526
                },
                {
                    "name": "A3",
                    "midi": 57,
                    "time": 56.14280100000039,
                    "velocity": 0.48031496062992124,
                    "duration": 0.10267846874999975
                },
                {
                    "name": "F#5",
                    "midi": 78,
                    "time": 56.14280100000039,
                    "velocity": 0.48031496062992124,
                    "duration": 0.20982121875000104
                },
                {
                    "name": "A2",
                    "midi": 45,
                    "time": 56.24994375000039,
                    "velocity": 0.48031496062992124,
                    "duration": 0.10267846874999975
                },
                {
                    "name": "A1",
                    "midi": 33,
                    "time": 56.35708650000039,
                    "velocity": 0.48031496062992124,
                    "duration": 0.10267846874999975
                },
                {
                    "name": "F#3",
                    "midi": 54,
                    "time": 56.35708650000039,
                    "velocity": 0.48031496062992124,
                    "duration": 0.20982121875000104
                },
                {
                    "name": "A2",
                    "midi": 45,
                    "time": 56.46422925000039,
                    "velocity": 0.48031496062992124,
                    "duration": 0.10267846874999975
                },
                {
                    "name": "D#4",
                    "midi": 63,
                    "time": 56.571372000000395,
                    "velocity": 0.48031496062992124,
                    "duration": 0.10267846874999975
                },
                {
                    "name": "F#3",
                    "midi": 54,
                    "time": 56.571372000000395,
                    "velocity": 0.48031496062992124,
                    "duration": 0.10267846874999975
                },
                {
                    "name": "D#3",
                    "midi": 51,
                    "time": 56.678514750000396,
                    "velocity": 0.48031496062992124,
                    "duration": 0.10267846874999975
                },
                {
                    "name": "F#4",
                    "midi": 66,
                    "time": 56.678514750000396,
                    "velocity": 0.48031496062992124,
                    "duration": 0.10267846874999975
                },
                {
                    "name": "D#2",
                    "midi": 39,
                    "time": 56.7856575000004,
                    "velocity": 0.48031496062992124,
                    "duration": 0.10267846874999975
                },
                {
                    "name": "F#5",
                    "midi": 78,
                    "time": 56.7856575000004,
                    "velocity": 0.48031496062992124,
                    "duration": 0.10267846874999975
                },
                {
                    "name": "D#3",
                    "midi": 51,
                    "time": 56.8928002500004,
                    "velocity": 0.48031496062992124,
                    "duration": 0.10267846874999975
                },
                {
                    "name": "F#4",
                    "midi": 66,
                    "time": 56.8928002500004,
                    "velocity": 0.48031496062992124,
                    "duration": 0.10267846874999975
                },
                {
                    "name": "D#4",
                    "midi": 63,
                    "time": 56.9999430000004,
                    "velocity": 0.48031496062992124,
                    "duration": 0.10267846874999975
                },
                {
                    "name": "G5",
                    "midi": 79,
                    "time": 56.9999430000004,
                    "velocity": 0.48031496062992124,
                    "duration": 0.20982121875000104
                },
                {
                    "name": "D#3",
                    "midi": 51,
                    "time": 57.1070857500004,
                    "velocity": 0.48031496062992124,
                    "duration": 0.10267846874999975
                },
                {
                    "name": "D#2",
                    "midi": 39,
                    "time": 57.2142285000004,
                    "velocity": 0.48031496062992124,
                    "duration": 0.10267846874999975
                },
                {
                    "name": "G3",
                    "midi": 55,
                    "time": 57.2142285000004,
                    "velocity": 0.48031496062992124,
                    "duration": 0.20982121875000104
                },
                {
                    "name": "D#3",
                    "midi": 51,
                    "time": 57.321371250000404,
                    "velocity": 0.48031496062992124,
                    "duration": 0.10267846874999975
                },
                {
                    "name": "C4",
                    "midi": 60,
                    "time": 57.428514000000405,
                    "velocity": 0.48031496062992124,
                    "duration": 0.10267846874999975
                },
                {
                    "name": "G3",
                    "midi": 55,
                    "time": 57.428514000000405,
                    "velocity": 0.48031496062992124,
                    "duration": 0.20982121875000104
                },
                {
                    "name": "C3",
                    "midi": 48,
                    "time": 57.535656750000406,
                    "velocity": 0.48031496062992124,
                    "duration": 0.10267846874999975
                },
                {
                    "name": "C2",
                    "midi": 36,
                    "time": 57.64279950000041,
                    "velocity": 0.48031496062992124,
                    "duration": 0.10267846874999975
                },
                {
                    "name": "G4",
                    "midi": 67,
                    "time": 57.64279950000041,
                    "velocity": 0.48031496062992124,
                    "duration": 0.031249968749996526
                },
                {
                    "name": "C3",
                    "midi": 48,
                    "time": 57.74994225000041,
                    "velocity": 0.48031496062992124,
                    "duration": 0.10267846874999975
                },
                {
                    "name": "B3",
                    "midi": 59,
                    "time": 57.85708500000041,
                    "velocity": 0.48031496062992124,
                    "duration": 0.10267846874999975
                },
                {
                    "name": "G#5",
                    "midi": 80,
                    "time": 57.85708500000041,
                    "velocity": 0.48031496062992124,
                    "duration": 0.20982121875000104
                },
                {
                    "name": "B2",
                    "midi": 47,
                    "time": 57.96422775000041,
                    "velocity": 0.48031496062992124,
                    "duration": 0.10267846874999975
                },
                {
                    "name": "B1",
                    "midi": 35,
                    "time": 58.07137050000041,
                    "velocity": 0.48031496062992124,
                    "duration": 0.10267846874999975
                },
                {
                    "name": "G#3",
                    "midi": 56,
                    "time": 58.07137050000041,
                    "velocity": 0.48031496062992124,
                    "duration": 0.10267846874999975
                },
                {
                    "name": "B2",
                    "midi": 47,
                    "time": 58.178513250000414,
                    "velocity": 0.48031496062992124,
                    "duration": 0.10267846874999975
                },
                {
                    "name": "A3",
                    "midi": 57,
                    "time": 58.178513250000414,
                    "velocity": 0.48031496062992124,
                    "duration": 0.10267846874999975
                },
                {
                    "name": "G3",
                    "midi": 55,
                    "time": 58.285656000000415,
                    "velocity": 0.48031496062992124,
                    "duration": 0.10267846874999975
                },
                {
                    "name": "A#3",
                    "midi": 58,
                    "time": 58.285656000000415,
                    "velocity": 0.48031496062992124,
                    "duration": 0.10267846874999975
                },
                {
                    "name": "G2",
                    "midi": 43,
                    "time": 58.392798750000416,
                    "velocity": 0.48031496062992124,
                    "duration": 0.10267846874999975
                },
                {
                    "name": "D4",
                    "midi": 62,
                    "time": 58.392798750000416,
                    "velocity": 0.48031496062992124,
                    "duration": 0.10267846874999975
                },
                {
                    "name": "B3",
                    "midi": 59,
                    "time": 58.392798750000416,
                    "velocity": 0.48031496062992124,
                    "duration": 0.10267846874999975
                },
                {
                    "name": "D2",
                    "midi": 38,
                    "time": 58.49994150000042,
                    "velocity": 0.48031496062992124,
                    "duration": 0.10267846874999975
                },
                {
                    "name": "B3",
                    "midi": 59,
                    "time": 58.49994150000042,
                    "velocity": 0.48031496062992124,
                    "duration": 0.10267846874999975
                },
                {
                    "name": "D3",
                    "midi": 50,
                    "time": 58.60708425000042,
                    "velocity": 0.48031496062992124,
                    "duration": 0.10267846874999975
                },
                {
                    "name": "D#4",
                    "midi": 63,
                    "time": 58.60708425000042,
                    "velocity": 0.48031496062992124,
                    "duration": 0.10267846874999975
                },
                {
                    "name": "C4",
                    "midi": 60,
                    "time": 58.60708425000042,
                    "velocity": 0.48031496062992124,
                    "duration": 0.10267846874999975
                },
                {
                    "name": "G3",
                    "midi": 55,
                    "time": 58.71422700000042,
                    "velocity": 0.48031496062992124,
                    "duration": 0.10267846874999975
                },
                {
                    "name": "C4",
                    "midi": 60,
                    "time": 58.71422700000042,
                    "velocity": 0.48031496062992124,
                    "duration": 0.10267846874999975
                },
                {
                    "name": "G2",
                    "midi": 43,
                    "time": 58.82136975000042,
                    "velocity": 0.48031496062992124,
                    "duration": 0.10267846874999975
                },
                {
                    "name": "E4",
                    "midi": 64,
                    "time": 58.82136975000042,
                    "velocity": 0.48031496062992124,
                    "duration": 0.10267846874999975
                },
                {
                    "name": "C#4",
                    "midi": 61,
                    "time": 58.82136975000042,
                    "velocity": 0.48031496062992124,
                    "duration": 0.10267846874999975
                },
                {
                    "name": "D2",
                    "midi": 38,
                    "time": 58.92851250000042,
                    "velocity": 0.48031496062992124,
                    "duration": 0.10267846874999975
                },
                {
                    "name": "C#4",
                    "midi": 61,
                    "time": 58.92851250000042,
                    "velocity": 0.48031496062992124,
                    "duration": 0.10267846874999975
                },
                {
                    "name": "D3",
                    "midi": 50,
                    "time": 59.035655250000424,
                    "velocity": 0.48031496062992124,
                    "duration": 0.10267846874999975
                },
                {
                    "name": "D4",
                    "midi": 62,
                    "time": 59.035655250000424,
                    "velocity": 0.48031496062992124,
                    "duration": 0.10267846874999975
                },
                {
                    "name": "F4",
                    "midi": 65,
                    "time": 59.035655250000424,
                    "velocity": 0.48031496062992124,
                    "duration": 0.10267846874999975
                },
                {
                    "name": "G3",
                    "midi": 55,
                    "time": 59.142798000000425,
                    "velocity": 0.48031496062992124,
                    "duration": 0.10267846874999975
                },
                {
                    "name": "D4",
                    "midi": 62,
                    "time": 59.142798000000425,
                    "velocity": 0.48031496062992124,
                    "duration": 0.10267846874999975
                },
                {
                    "name": "G2",
                    "midi": 43,
                    "time": 59.24994075000043,
                    "velocity": 0.48031496062992124,
                    "duration": 0.10267846874999975
                },
                {
                    "name": "D#4",
                    "midi": 63,
                    "time": 59.24994075000043,
                    "velocity": 0.48031496062992124,
                    "duration": 0.10267846874999975
                },
                {
                    "name": "F#4",
                    "midi": 66,
                    "time": 59.24994075000043,
                    "velocity": 0.48031496062992124,
                    "duration": 0.10267846874999975
                },
                {
                    "name": "D2",
                    "midi": 38,
                    "time": 59.35708350000043,
                    "velocity": 0.48031496062992124,
                    "duration": 0.10267846874999975
                },
                {
                    "name": "D#4",
                    "midi": 63,
                    "time": 59.35708350000043,
                    "velocity": 0.48031496062992124,
                    "duration": 0.10267846874999975
                },
                {
                    "name": "D3",
                    "midi": 50,
                    "time": 59.46422625000043,
                    "velocity": 0.48031496062992124,
                    "duration": 0.10267846874999975
                },
                {
                    "name": "E4",
                    "midi": 64,
                    "time": 59.46422625000043,
                    "velocity": 0.48031496062992124,
                    "duration": 0.10267846874999975
                },
                {
                    "name": "G4",
                    "midi": 67,
                    "time": 59.46422625000043,
                    "velocity": 0.48031496062992124,
                    "duration": 0.10267846874999975
                },
                {
                    "name": "G3",
                    "midi": 55,
                    "time": 59.57136900000043,
                    "velocity": 0.48031496062992124,
                    "duration": 0.10267846874999975
                },
                {
                    "name": "E4",
                    "midi": 64,
                    "time": 59.57136900000043,
                    "velocity": 0.48031496062992124,
                    "duration": 0.10267846874999975
                },
                {
                    "name": "G2",
                    "midi": 43,
                    "time": 59.67851175000043,
                    "velocity": 0.48031496062992124,
                    "duration": 0.10267846874999975
                },
                {
                    "name": "F4",
                    "midi": 65,
                    "time": 59.67851175000043,
                    "velocity": 0.48031496062992124,
                    "duration": 0.10267846874999975
                },
                {
                    "name": "G#4",
                    "midi": 68,
                    "time": 59.67851175000043,
                    "velocity": 0.48031496062992124,
                    "duration": 0.10267846874999975
                },
                {
                    "name": "D2",
                    "midi": 38,
                    "time": 59.78565450000043,
                    "velocity": 0.48031496062992124,
                    "duration": 0.10267846874999975
                },
                {
                    "name": "F4",
                    "midi": 65,
                    "time": 59.78565450000043,
                    "velocity": 0.48031496062992124,
                    "duration": 0.10267846874999975
                },
                {
                    "name": "D3",
                    "midi": 50,
                    "time": 59.892797250000434,
                    "velocity": 0.48031496062992124,
                    "duration": 0.10267846874999975
                },
                {
                    "name": "F#4",
                    "midi": 66,
                    "time": 59.892797250000434,
                    "velocity": 0.48031496062992124,
                    "duration": 0.10267846874999975
                },
                {
                    "name": "A4",
                    "midi": 69,
                    "time": 59.892797250000434,
                    "velocity": 0.48031496062992124,
                    "duration": 0.10267846874999975
                },
                {
                    "name": "A3",
                    "midi": 57,
                    "time": 59.999940000000436,
                    "velocity": 0.48031496062992124,
                    "duration": 0.10267846874999975
                },
                {
                    "name": "C#5",
                    "midi": 73,
                    "time": 59.999940000000436,
                    "velocity": 0.48031496062992124,
                    "duration": 0.20982121875000104
                },
                {
                    "name": "A2",
                    "midi": 45,
                    "time": 60.10708275000044,
                    "velocity": 0.48031496062992124,
                    "duration": 0.10267846874999975
                },
                {
                    "name": "A4",
                    "midi": 69,
                    "time": 60.10708275000044,
                    "velocity": 0.48031496062992124,
                    "duration": 0.10267846874999975
                },
                {
                    "name": "C5",
                    "midi": 72,
                    "time": 60.10708275000044,
                    "velocity": 0.48031496062992124,
                    "duration": 0.10267846874999975
                },
                {
                    "name": "D2",
                    "midi": 38,
                    "time": 60.21422550000044,
                    "velocity": 0.48031496062992124,
                    "duration": 0.10267846874999975
                },
                {
                    "name": "A4",
                    "midi": 69,
                    "time": 60.21422550000044,
                    "velocity": 0.48031496062992124,
                    "duration": 0.10267846874999975
                },
                {
                    "name": "C5",
                    "midi": 72,
                    "time": 60.21422550000044,
                    "velocity": 0.48031496062992124,
                    "duration": 0.10267846874999975
                },
                {
                    "name": "C#5",
                    "midi": 73,
                    "time": 60.21422550000044,
                    "velocity": 0.48031496062992124,
                    "duration": 0.20982121875000104
                },
                {
                    "name": "D3",
                    "midi": 50,
                    "time": 60.32136825000044,
                    "velocity": 0.48031496062992124,
                    "duration": 0.10267846874999975
                },
                {
                    "name": "B4",
                    "midi": 71,
                    "time": 60.32136825000044,
                    "velocity": 0.48031496062992124,
                    "duration": 0.10267846874999975
                },
                {
                    "name": "G#4",
                    "midi": 68,
                    "time": 60.32136825000044,
                    "velocity": 0.48031496062992124,
                    "duration": 0.10267846874999975
                },
                {
                    "name": "C#5",
                    "midi": 73,
                    "time": 60.42851100000044,
                    "velocity": 0.48031496062992124,
                    "duration": 0.20982121875000104
                },
                {
                    "name": "A3",
                    "midi": 57,
                    "time": 60.42851100000044,
                    "velocity": 0.48031496062992124,
                    "duration": 0.10267846874999975
                },
                {
                    "name": "G#4",
                    "midi": 68,
                    "time": 60.42851100000044,
                    "velocity": 0.48031496062992124,
                    "duration": 0.10267846874999975
                },
                {
                    "name": "B4",
                    "midi": 71,
                    "time": 60.42851100000044,
                    "velocity": 0.48031496062992124,
                    "duration": 0.10267846874999975
                },
                {
                    "name": "A2",
                    "midi": 45,
                    "time": 60.53565375000044,
                    "velocity": 0.48031496062992124,
                    "duration": 0.10267846874999975
                },
                {
                    "name": "A#4",
                    "midi": 70,
                    "time": 60.53565375000044,
                    "velocity": 0.48031496062992124,
                    "duration": 0.10267846874999975
                },
                {
                    "name": "G4",
                    "midi": 67,
                    "time": 60.53565375000044,
                    "velocity": 0.48031496062992124,
                    "duration": 0.10267846874999975
                },
                {
                    "name": "D2",
                    "midi": 38,
                    "time": 60.64279650000044,
                    "velocity": 0.48031496062992124,
                    "duration": 0.10267846874999975
                },
                {
                    "name": "A#4",
                    "midi": 70,
                    "time": 60.64279650000044,
                    "velocity": 0.48031496062992124,
                    "duration": 0.10267846874999975
                },
                {
                    "name": "G4",
                    "midi": 67,
                    "time": 60.64279650000044,
                    "velocity": 0.48031496062992124,
                    "duration": 0.10267846874999975
                },
                {
                    "name": "C#5",
                    "midi": 73,
                    "time": 60.64279650000044,
                    "velocity": 0.48031496062992124,
                    "duration": 0.20982121875000104
                },
                {
                    "name": "D3",
                    "midi": 50,
                    "time": 60.749939250000445,
                    "velocity": 0.48031496062992124,
                    "duration": 0.10267846874999975
                },
                {
                    "name": "F#4",
                    "midi": 66,
                    "time": 60.749939250000445,
                    "velocity": 0.48031496062992124,
                    "duration": 0.10267846874999975
                },
                {
                    "name": "A4",
                    "midi": 69,
                    "time": 60.749939250000445,
                    "velocity": 0.48031496062992124,
                    "duration": 0.10267846874999975
                },
                {
                    "name": "A3",
                    "midi": 57,
                    "time": 60.857082000000446,
                    "velocity": 0.48031496062992124,
                    "duration": 0.10267846874999975
                },
                {
                    "name": "F#4",
                    "midi": 66,
                    "time": 60.857082000000446,
                    "velocity": 0.48031496062992124,
                    "duration": 0.10267846874999975
                },
                {
                    "name": "A4",
                    "midi": 69,
                    "time": 60.857082000000446,
                    "velocity": 0.48031496062992124,
                    "duration": 0.10267846874999975
                },
                {
                    "name": "C#5",
                    "midi": 73,
                    "time": 60.857082000000446,
                    "velocity": 0.48031496062992124,
                    "duration": 0.20982121875000104
                },
                {
                    "name": "A2",
                    "midi": 45,
                    "time": 60.96422475000045,
                    "velocity": 0.48031496062992124,
                    "duration": 0.10267846874999975
                },
                {
                    "name": "F4",
                    "midi": 65,
                    "time": 60.96422475000045,
                    "velocity": 0.48031496062992124,
                    "duration": 0.10267846874999975
                },
                {
                    "name": "G#4",
                    "midi": 68,
                    "time": 60.96422475000045,
                    "velocity": 0.48031496062992124,
                    "duration": 0.10267846874999975
                },
                {
                    "name": "D2",
                    "midi": 38,
                    "time": 61.07136750000045,
                    "velocity": 0.48031496062992124,
                    "duration": 0.10267846874999975
                },
                {
                    "name": "G#4",
                    "midi": 68,
                    "time": 61.07136750000045,
                    "velocity": 0.48031496062992124,
                    "duration": 0.10267846874999975
                },
                {
                    "name": "F4",
                    "midi": 65,
                    "time": 61.07136750000045,
                    "velocity": 0.48031496062992124,
                    "duration": 0.10267846874999975
                },
                {
                    "name": "C#5",
                    "midi": 73,
                    "time": 61.07136750000045,
                    "velocity": 0.48031496062992124,
                    "duration": 0.20982121875000104
                },
                {
                    "name": "E4",
                    "midi": 64,
                    "time": 61.17851025000045,
                    "velocity": 0.48031496062992124,
                    "duration": 0.10267846874999975
                },
                {
                    "name": "D3",
                    "midi": 50,
                    "time": 61.17851025000045,
                    "velocity": 0.48031496062992124,
                    "duration": 0.10267846874999975
                },
                {
                    "name": "G4",
                    "midi": 67,
                    "time": 61.17851025000045,
                    "velocity": 0.48031496062992124,
                    "duration": 0.10267846874999975
                },
                {
                    "name": "A3",
                    "midi": 57,
                    "time": 61.28565300000045,
                    "velocity": 0.48031496062992124,
                    "duration": 0.10267846874999975
                },
                {
                    "name": "E4",
                    "midi": 64,
                    "time": 61.28565300000045,
                    "velocity": 0.48031496062992124,
                    "duration": 0.10267846874999975
                },
                {
                    "name": "C#5",
                    "midi": 73,
                    "time": 61.28565300000045,
                    "velocity": 0.48031496062992124,
                    "duration": 0.20982121875000104
                },
                {
                    "name": "G4",
                    "midi": 67,
                    "time": 61.28565300000045,
                    "velocity": 0.48031496062992124,
                    "duration": 0.10267846874999975
                },
                {
                    "name": "A2",
                    "midi": 45,
                    "time": 61.39279575000045,
                    "velocity": 0.48031496062992124,
                    "duration": 0.10267846874999975
                },
                {
                    "name": "F#4",
                    "midi": 66,
                    "time": 61.39279575000045,
                    "velocity": 0.48031496062992124,
                    "duration": 0.10267846874999975
                },
                {
                    "name": "D#4",
                    "midi": 63,
                    "time": 61.39279575000045,
                    "velocity": 0.48031496062992124,
                    "duration": 0.10267846874999975
                },
                {
                    "name": "D2",
                    "midi": 38,
                    "time": 61.499938500000454,
                    "velocity": 0.48031496062992124,
                    "duration": 0.10267846874999975
                },
                {
                    "name": "F#4",
                    "midi": 66,
                    "time": 61.499938500000454,
                    "velocity": 0.48031496062992124,
                    "duration": 0.10267846874999975
                },
                {
                    "name": "D#4",
                    "midi": 63,
                    "time": 61.499938500000454,
                    "velocity": 0.48031496062992124,
                    "duration": 0.10267846874999975
                },
                {
                    "name": "D5",
                    "midi": 74,
                    "time": 61.499938500000454,
                    "velocity": 0.48031496062992124,
                    "duration": 0.20982121875000104
                },
                {
                    "name": "D3",
                    "midi": 50,
                    "time": 61.607081250000455,
                    "velocity": 0.48031496062992124,
                    "duration": 0.10267846874999975
                },
                {
                    "name": "F4",
                    "midi": 65,
                    "time": 61.607081250000455,
                    "velocity": 0.48031496062992124,
                    "duration": 0.10267846874999975
                },
                {
                    "name": "D4",
                    "midi": 62,
                    "time": 61.607081250000455,
                    "velocity": 0.48031496062992124,
                    "duration": 0.10267846874999975
                },
                {
                    "name": "A#3",
                    "midi": 58,
                    "time": 61.714224000000456,
                    "velocity": 0.48031496062992124,
                    "duration": 0.10267846874999975
                },
                {
                    "name": "C#4",
                    "midi": 61,
                    "time": 61.714224000000456,
                    "velocity": 0.48031496062992124,
                    "duration": 0.10267846874999975
                },
                {
                    "name": "A#2",
                    "midi": 46,
                    "time": 61.82136675000046,
                    "velocity": 0.48031496062992124,
                    "duration": 0.10267846874999975
                },
                {
                    "name": "D4",
                    "midi": 62,
                    "time": 61.82136675000046,
                    "velocity": 0.48031496062992124,
                    "duration": 0.10267846874999975
                },
                {
                    "name": "F4",
                    "midi": 65,
                    "time": 61.82136675000046,
                    "velocity": 0.48031496062992124,
                    "duration": 0.10267846874999975
                },
                {
                    "name": "F2",
                    "midi": 41,
                    "time": 61.92850950000046,
                    "velocity": 0.48031496062992124,
                    "duration": 0.10267846874999975
                },
                {
                    "name": "D4",
                    "midi": 62,
                    "time": 61.92850950000046,
                    "velocity": 0.48031496062992124,
                    "duration": 0.10267846874999975
                },
                {
                    "name": "F3",
                    "midi": 53,
                    "time": 62.03565225000046,
                    "velocity": 0.48031496062992124,
                    "duration": 0.10267846874999975
                },
                {
                    "name": "D#4",
                    "midi": 63,
                    "time": 62.03565225000046,
                    "velocity": 0.48031496062992124,
                    "duration": 0.10267846874999975
                },
                {
                    "name": "F#4",
                    "midi": 66,
                    "time": 62.03565225000046,
                    "velocity": 0.48031496062992124,
                    "duration": 0.10267846874999975
                },
                {
                    "name": "A#3",
                    "midi": 58,
                    "time": 62.14279500000046,
                    "velocity": 0.48031496062992124,
                    "duration": 0.10267846874999975
                },
                {
                    "name": "D#4",
                    "midi": 63,
                    "time": 62.14279500000046,
                    "velocity": 0.48031496062992124,
                    "duration": 0.10267846874999975
                },
                {
                    "name": "A#2",
                    "midi": 46,
                    "time": 62.24993775000046,
                    "velocity": 0.48031496062992124,
                    "duration": 0.10267846874999975
                },
                {
                    "name": "E4",
                    "midi": 64,
                    "time": 62.24993775000046,
                    "velocity": 0.48031496062992124,
                    "duration": 0.10267846874999975
                },
                {
                    "name": "G4",
                    "midi": 67,
                    "time": 62.24993775000046,
                    "velocity": 0.48031496062992124,
                    "duration": 0.10267846874999975
                },
                {
                    "name": "F2",
                    "midi": 41,
                    "time": 62.357080500000464,
                    "velocity": 0.48031496062992124,
                    "duration": 0.10267846874999975
                },
                {
                    "name": "E4",
                    "midi": 64,
                    "time": 62.357080500000464,
                    "velocity": 0.48031496062992124,
                    "duration": 0.10267846874999975
                },
                {
                    "name": "F3",
                    "midi": 53,
                    "time": 62.464223250000465,
                    "velocity": 0.48031496062992124,
                    "duration": 0.10267846874999975
                },
                {
                    "name": "G#4",
                    "midi": 68,
                    "time": 62.464223250000465,
                    "velocity": 0.48031496062992124,
                    "duration": 0.10267846874999975
                },
                {
                    "name": "F4",
                    "midi": 65,
                    "time": 62.464223250000465,
                    "velocity": 0.48031496062992124,
                    "duration": 0.10267846874999975
                },
                {
                    "name": "A#3",
                    "midi": 58,
                    "time": 62.57136600000047,
                    "velocity": 0.48031496062992124,
                    "duration": 0.10267846874999975
                },
                {
                    "name": "F4",
                    "midi": 65,
                    "time": 62.57136600000047,
                    "velocity": 0.48031496062992124,
                    "duration": 0.10267846874999975
                },
                {
                    "name": "A#2",
                    "midi": 46,
                    "time": 62.67850875000047,
                    "velocity": 0.48031496062992124,
                    "duration": 0.10267846874999975
                },
                {
                    "name": "F#4",
                    "midi": 66,
                    "time": 62.67850875000047,
                    "velocity": 0.48031496062992124,
                    "duration": 0.10267846874999975
                },
                {
                    "name": "A4",
                    "midi": 69,
                    "time": 62.67850875000047,
                    "velocity": 0.48031496062992124,
                    "duration": 0.10267846874999975
                },
                {
                    "name": "F2",
                    "midi": 41,
                    "time": 62.78565150000047,
                    "velocity": 0.48031496062992124,
                    "duration": 0.10267846874999975
                },
                {
                    "name": "F#4",
                    "midi": 66,
                    "time": 62.78565150000047,
                    "velocity": 0.48031496062992124,
                    "duration": 0.10267846874999975
                },
                {
                    "name": "F3",
                    "midi": 53,
                    "time": 62.89279425000047,
                    "velocity": 0.48031496062992124,
                    "duration": 0.10267846874999975
                },
                {
                    "name": "A#4",
                    "midi": 70,
                    "time": 62.89279425000047,
                    "velocity": 0.48031496062992124,
                    "duration": 0.10267846874999975
                },
                {
                    "name": "G4",
                    "midi": 67,
                    "time": 62.89279425000047,
                    "velocity": 0.48031496062992124,
                    "duration": 0.10267846874999975
                },
                {
                    "name": "A#3",
                    "midi": 58,
                    "time": 62.99993700000047,
                    "velocity": 0.48031496062992124,
                    "duration": 0.10267846874999975
                },
                {
                    "name": "G4",
                    "midi": 67,
                    "time": 62.99993700000047,
                    "velocity": 0.48031496062992124,
                    "duration": 0.10267846874999975
                },
                {
                    "name": "A#2",
                    "midi": 46,
                    "time": 63.10707975000047,
                    "velocity": 0.48031496062992124,
                    "duration": 0.10267846874999975
                },
                {
                    "name": "G#4",
                    "midi": 68,
                    "time": 63.10707975000047,
                    "velocity": 0.48031496062992124,
                    "duration": 0.10267846874999975
                },
                {
                    "name": "B4",
                    "midi": 71,
                    "time": 63.10707975000047,
                    "velocity": 0.48031496062992124,
                    "duration": 0.10267846874999975
                },
                {
                    "name": "F2",
                    "midi": 41,
                    "time": 63.214222500000474,
                    "velocity": 0.48031496062992124,
                    "duration": 0.10267846874999975
                },
                {
                    "name": "G#4",
                    "midi": 68,
                    "time": 63.214222500000474,
                    "velocity": 0.48031496062992124,
                    "duration": 0.10267846874999975
                },
                {
                    "name": "F3",
                    "midi": 53,
                    "time": 63.321365250000476,
                    "velocity": 0.48031496062992124,
                    "duration": 0.10267846874999975
                },
                {
                    "name": "A4",
                    "midi": 69,
                    "time": 63.321365250000476,
                    "velocity": 0.48031496062992124,
                    "duration": 0.10267846874999975
                },
                {
                    "name": "C5",
                    "midi": 72,
                    "time": 63.321365250000476,
                    "velocity": 0.48031496062992124,
                    "duration": 0.10267846874999975
                },
                {
                    "name": "C4",
                    "midi": 60,
                    "time": 63.42850800000048,
                    "velocity": 0.48031496062992124,
                    "duration": 0.10267846874999975
                },
                {
                    "name": "E5",
                    "midi": 76,
                    "time": 63.42850800000048,
                    "velocity": 0.48031496062992124,
                    "duration": 0.20982121875000104
                },
                {
                    "name": "C3",
                    "midi": 48,
                    "time": 63.53565075000048,
                    "velocity": 0.48031496062992124,
                    "duration": 0.10267846874999975
                },
                {
                    "name": "C5",
                    "midi": 72,
                    "time": 63.53565075000048,
                    "velocity": 0.48031496062992124,
                    "duration": 0.10267846874999975
                },
                {
                    "name": "D#5",
                    "midi": 75,
                    "time": 63.53565075000048,
                    "velocity": 0.48031496062992124,
                    "duration": 0.10267846874999975
                },
                {
                    "name": "F2",
                    "midi": 41,
                    "time": 63.64279350000048,
                    "velocity": 0.48031496062992124,
                    "duration": 0.10267846874999975
                },
                {
                    "name": "D#5",
                    "midi": 75,
                    "time": 63.64279350000048,
                    "velocity": 0.48031496062992124,
                    "duration": 0.10267846874999975
                },
                {
                    "name": "C5",
                    "midi": 72,
                    "time": 63.64279350000048,
                    "velocity": 0.48031496062992124,
                    "duration": 0.10267846874999975
                },
                {
                    "name": "E5",
                    "midi": 76,
                    "time": 63.64279350000048,
                    "velocity": 0.48031496062992124,
                    "duration": 0.20982121875000104
                },
                {
                    "name": "F3",
                    "midi": 53,
                    "time": 63.74993625000048,
                    "velocity": 0.48031496062992124,
                    "duration": 0.10267846874999975
                },
                {
                    "name": "B4",
                    "midi": 71,
                    "time": 63.74993625000048,
                    "velocity": 0.48031496062992124,
                    "duration": 0.10267846874999975
                },
                {
                    "name": "D5",
                    "midi": 74,
                    "time": 63.74993625000048,
                    "velocity": 0.48031496062992124,
                    "duration": 0.10267846874999975
                },
                {
                    "name": "C4",
                    "midi": 60,
                    "time": 63.85707900000048,
                    "velocity": 0.48031496062992124,
                    "duration": 0.10267846874999975
                },
                {
                    "name": "D5",
                    "midi": 74,
                    "time": 63.85707900000048,
                    "velocity": 0.48031496062992124,
                    "duration": 0.10267846874999975
                },
                {
                    "name": "B4",
                    "midi": 71,
                    "time": 63.85707900000048,
                    "velocity": 0.48031496062992124,
                    "duration": 0.10267846874999975
                },
                {
                    "name": "E5",
                    "midi": 76,
                    "time": 63.85707900000048,
                    "velocity": 0.48031496062992124,
                    "duration": 0.20982121875000814
                },
                {
                    "name": "C3",
                    "midi": 48,
                    "time": 63.96422175000048,
                    "velocity": 0.48031496062992124,
                    "duration": 0.10267846875000686
                },
                {
                    "name": "A#4",
                    "midi": 70,
                    "time": 63.96422175000048,
                    "velocity": 0.48031496062992124,
                    "duration": 0.10267846875000686
                },
                {
                    "name": "C#5",
                    "midi": 73,
                    "time": 63.96422175000048,
                    "velocity": 0.48031496062992124,
                    "duration": 0.10267846875000686
                },
                {
                    "name": "F2",
                    "midi": 41,
                    "time": 64.07136450000048,
                    "velocity": 0.48031496062992124,
                    "duration": 0.10267846874999975
                },
                {
                    "name": "C#5",
                    "midi": 73,
                    "time": 64.07136450000048,
                    "velocity": 0.48031496062992124,
                    "duration": 0.10267846874999975
                },
                {
                    "name": "E5",
                    "midi": 76,
                    "time": 64.07136450000048,
                    "velocity": 0.48031496062992124,
                    "duration": 0.20982121874999393
                },
                {
                    "name": "A#4",
                    "midi": 70,
                    "time": 64.07136450000048,
                    "velocity": 0.48031496062992124,
                    "duration": 0.10267846874999975
                },
                {
                    "name": "F3",
                    "midi": 53,
                    "time": 64.17850725000048,
                    "velocity": 0.48031496062992124,
                    "duration": 0.10267846874999975
                },
                {
                    "name": "A4",
                    "midi": 69,
                    "time": 64.17850725000048,
                    "velocity": 0.48031496062992124,
                    "duration": 0.10267846874999975
                },
                {
                    "name": "C5",
                    "midi": 72,
                    "time": 64.17850725000048,
                    "velocity": 0.48031496062992124,
                    "duration": 0.10267846874999975
                },
                {
                    "name": "C4",
                    "midi": 60,
                    "time": 64.28565000000047,
                    "velocity": 0.48031496062992124,
                    "duration": 0.10267846874999975
                },
                {
                    "name": "E5",
                    "midi": 76,
                    "time": 64.28565000000047,
                    "velocity": 0.48031496062992124,
                    "duration": 0.20982121874999393
                },
                {
                    "name": "A4",
                    "midi": 69,
                    "time": 64.28565000000047,
                    "velocity": 0.48031496062992124,
                    "duration": 0.10267846874999975
                },
                {
                    "name": "C5",
                    "midi": 72,
                    "time": 64.28565000000047,
                    "velocity": 0.48031496062992124,
                    "duration": 0.10267846874999975
                },
                {
                    "name": "C3",
                    "midi": 48,
                    "time": 64.39279275000047,
                    "velocity": 0.48031496062992124,
                    "duration": 0.10267846874999975
                },
                {
                    "name": "G#4",
                    "midi": 68,
                    "time": 64.39279275000047,
                    "velocity": 0.48031496062992124,
                    "duration": 0.10267846874999975
                },
                {
                    "name": "B4",
                    "midi": 71,
                    "time": 64.39279275000047,
                    "velocity": 0.48031496062992124,
                    "duration": 0.10267846874999975
                },
                {
                    "name": "F2",
                    "midi": 41,
                    "time": 64.49993550000046,
                    "velocity": 0.48031496062992124,
                    "duration": 0.10267846874999975
                },
                {
                    "name": "E5",
                    "midi": 76,
                    "time": 64.49993550000046,
                    "velocity": 0.48031496062992124,
                    "duration": 0.20982121874999393
                },
                {
                    "name": "G#4",
                    "midi": 68,
                    "time": 64.49993550000046,
                    "velocity": 0.48031496062992124,
                    "duration": 0.10267846874999975
                },
                {
                    "name": "B4",
                    "midi": 71,
                    "time": 64.49993550000046,
                    "velocity": 0.48031496062992124,
                    "duration": 0.10267846874999975
                },
                {
                    "name": "F3",
                    "midi": 53,
                    "time": 64.60707825000046,
                    "velocity": 0.48031496062992124,
                    "duration": 0.10267846874999975
                },
                {
                    "name": "A#4",
                    "midi": 70,
                    "time": 64.60707825000046,
                    "velocity": 0.48031496062992124,
                    "duration": 0.10267846874999975
                },
                {
                    "name": "G4",
                    "midi": 67,
                    "time": 64.60707825000046,
                    "velocity": 0.48031496062992124,
                    "duration": 0.10267846874999975
                },
                {
                    "name": "C4",
                    "midi": 60,
                    "time": 64.71422100000045,
                    "velocity": 0.48031496062992124,
                    "duration": 0.10267846874999975
                },
                {
                    "name": "A#4",
                    "midi": 70,
                    "time": 64.71422100000045,
                    "velocity": 0.48031496062992124,
                    "duration": 0.10267846874999975
                },
                {
                    "name": "E5",
                    "midi": 76,
                    "time": 64.71422100000045,
                    "velocity": 0.48031496062992124,
                    "duration": 0.20982121874999393
                },
                {
                    "name": "G4",
                    "midi": 67,
                    "time": 64.71422100000045,
                    "velocity": 0.48031496062992124,
                    "duration": 0.10267846874999975
                },
                {
                    "name": "C3",
                    "midi": 48,
                    "time": 64.82136375000044,
                    "velocity": 0.48031496062992124,
                    "duration": 0.10267846874999975
                },
                {
                    "name": "F#4",
                    "midi": 66,
                    "time": 64.82136375000044,
                    "velocity": 0.48031496062992124,
                    "duration": 0.10267846874999975
                },
                {
                    "name": "A4",
                    "midi": 69,
                    "time": 64.82136375000044,
                    "velocity": 0.48031496062992124,
                    "duration": 0.10267846874999975
                },
                {
                    "name": "F2",
                    "midi": 41,
                    "time": 64.92850650000044,
                    "velocity": 0.48031496062992124,
                    "duration": 0.10267846874999975
                },
                {
                    "name": "F5",
                    "midi": 77,
                    "time": 64.92850650000044,
                    "velocity": 0.48031496062992124,
                    "duration": 0.20982121874999393
                },
                {
                    "name": "F#4",
                    "midi": 66,
                    "time": 64.92850650000044,
                    "velocity": 0.48031496062992124,
                    "duration": 0.10267846874999975
                },
                {
                    "name": "A4",
                    "midi": 69,
                    "time": 64.92850650000044,
                    "velocity": 0.48031496062992124,
                    "duration": 0.10267846874999975
                },
                {
                    "name": "F3",
                    "midi": 53,
                    "time": 65.03564925000043,
                    "velocity": 0.48031496062992124,
                    "duration": 0.10267846874999975
                },
                {
                    "name": "G#4",
                    "midi": 68,
                    "time": 65.03564925000043,
                    "velocity": 0.48031496062992124,
                    "duration": 0.10267846874999975
                },
                {
                    "name": "F4",
                    "midi": 65,
                    "time": 65.03564925000043,
                    "velocity": 0.48031496062992124,
                    "duration": 0.10267846874999975
                },
                {
                    "name": "C1",
                    "midi": 24,
                    "time": 65.14279200000043,
                    "velocity": 0.48031496062992124,
                    "duration": 0.20982121874999393
                },
                {
                    "name": "G1",
                    "midi": 31,
                    "time": 65.14279200000043,
                    "velocity": 0.48031496062992124,
                    "duration": 0.10267846874999975
                },
                {
                    "name": "E7",
                    "midi": 100,
                    "time": 65.14279200000043,
                    "velocity": 0.48031496062992124,
                    "duration": 0.20982121874999393
                },
                {
                    "name": "G6",
                    "midi": 91,
                    "time": 65.14279200000043,
                    "velocity": 0.48031496062992124,
                    "duration": 0.10267846874999975
                },
                {
                    "name": "B6",
                    "midi": 95,
                    "time": 65.14279200000043,
                    "velocity": 0.48031496062992124,
                    "duration": 0.10267846874999975
                },
                {
                    "name": "G#1",
                    "midi": 32,
                    "time": 65.24993475000042,
                    "velocity": 0.48031496062992124,
                    "duration": 0.10267846874999975
                },
                {
                    "name": "F#6",
                    "midi": 90,
                    "time": 65.24993475000042,
                    "velocity": 0.48031496062992124,
                    "duration": 0.10267846874999975
                },
                {
                    "name": "A#6",
                    "midi": 94,
                    "time": 65.24993475000042,
                    "velocity": 0.48031496062992124,
                    "duration": 0.10267846874999975
                },
                {
                    "name": "A1",
                    "midi": 33,
                    "time": 65.35707750000041,
                    "velocity": 0.48031496062992124,
                    "duration": 0.10267846874999975
                },
                {
                    "name": "D1",
                    "midi": 26,
                    "time": 65.35707750000041,
                    "velocity": 0.48031496062992124,
                    "duration": 0.20982121874999393
                },
                {
                    "name": "F7",
                    "midi": 101,
                    "time": 65.35707750000041,
                    "velocity": 0.48031496062992124,
                    "duration": 0.20982121874999393
                },
                {
                    "name": "A6",
                    "midi": 93,
                    "time": 65.35707750000041,
                    "velocity": 0.48031496062992124,
                    "duration": 0.10267846874999975
                },
                {
                    "name": "F6",
                    "midi": 89,
                    "time": 65.35707750000041,
                    "velocity": 0.48031496062992124,
                    "duration": 0.10267846874999975
                },
                {
                    "name": "A#1",
                    "midi": 34,
                    "time": 65.46422025000041,
                    "velocity": 0.48031496062992124,
                    "duration": 0.10267846874999975
                },
                {
                    "name": "G#6",
                    "midi": 92,
                    "time": 65.46422025000041,
                    "velocity": 0.48031496062992124,
                    "duration": 0.10267846874999975
                },
                {
                    "name": "E6",
                    "midi": 88,
                    "time": 65.46422025000041,
                    "velocity": 0.48031496062992124,
                    "duration": 0.10267846874999975
                },
                {
                    "name": "E1",
                    "midi": 28,
                    "time": 65.5713630000004,
                    "velocity": 0.48031496062992124,
                    "duration": 0.20982121874999393
                },
                {
                    "name": "B1",
                    "midi": 35,
                    "time": 65.5713630000004,
                    "velocity": 0.48031496062992124,
                    "duration": 0.10267846874999975
                },
                {
                    "name": "D#6",
                    "midi": 87,
                    "time": 65.5713630000004,
                    "velocity": 0.48031496062992124,
                    "duration": 0.10267846874999975
                },
                {
                    "name": "G6",
                    "midi": 91,
                    "time": 65.5713630000004,
                    "velocity": 0.48031496062992124,
                    "duration": 0.10267846874999975
                },
                {
                    "name": "B6",
                    "midi": 95,
                    "time": 65.5713630000004,
                    "velocity": 0.48031496062992124,
                    "duration": 0.20982121874999393
                },
                {
                    "name": "C2",
                    "midi": 36,
                    "time": 65.6785057500004,
                    "velocity": 0.48031496062992124,
                    "duration": 0.10267846874999975
                },
                {
                    "name": "F#6",
                    "midi": 90,
                    "time": 65.6785057500004,
                    "velocity": 0.48031496062992124,
                    "duration": 0.10267846874999975
                },
                {
                    "name": "D6",
                    "midi": 86,
                    "time": 65.6785057500004,
                    "velocity": 0.48031496062992124,
                    "duration": 0.10267846874999975
                },
                {
                    "name": "F1",
                    "midi": 29,
                    "time": 65.78564850000039,
                    "velocity": 0.48031496062992124,
                    "duration": 0.20982121874999393
                },
                {
                    "name": "C#2",
                    "midi": 37,
                    "time": 65.78564850000039,
                    "velocity": 0.48031496062992124,
                    "duration": 0.10267846874999975
                },
                {
                    "name": "C#6",
                    "midi": 85,
                    "time": 65.78564850000039,
                    "velocity": 0.48031496062992124,
                    "duration": 0.10267846874999975
                },
                {
                    "name": "F6",
                    "midi": 89,
                    "time": 65.78564850000039,
                    "velocity": 0.48031496062992124,
                    "duration": 0.10267846874999975
                },
                {
                    "name": "A6",
                    "midi": 93,
                    "time": 65.78564850000039,
                    "velocity": 0.48031496062992124,
                    "duration": 0.10267846874999975
                },
                {
                    "name": "D2",
                    "midi": 38,
                    "time": 65.89279125000039,
                    "velocity": 0.48031496062992124,
                    "duration": 0.10267846874999975
                },
                {
                    "name": "B6",
                    "midi": 95,
                    "time": 65.89279125000039,
                    "velocity": 0.48031496062992124,
                    "duration": 0.10267846874999975
                },
                {
                    "name": "E6",
                    "midi": 88,
                    "time": 65.89279125000039,
                    "velocity": 0.48031496062992124,
                    "duration": 0.10267846874999975
                },
                {
                    "name": "C6",
                    "midi": 84,
                    "time": 65.89279125000039,
                    "velocity": 0.48031496062992124,
                    "duration": 0.10267846874999975
                },
                {
                    "name": "D#2",
                    "midi": 39,
                    "time": 65.99993400000038,
                    "velocity": 0.48031496062992124,
                    "duration": 0.10267846874999975
                },
                {
                    "name": "G1",
                    "midi": 31,
                    "time": 65.99993400000038,
                    "velocity": 0.48031496062992124,
                    "duration": 0.20982121874999393
                },
                {
                    "name": "A6",
                    "midi": 93,
                    "time": 65.99993400000038,
                    "velocity": 0.48031496062992124,
                    "duration": 0.20982121874999393
                },
                {
                    "name": "D#6",
                    "midi": 87,
                    "time": 65.99993400000038,
                    "velocity": 0.48031496062992124,
                    "duration": 0.10267846874999975
                },
                {
                    "name": "B5",
                    "midi": 83,
                    "time": 65.99993400000038,
                    "velocity": 0.48031496062992124,
                    "duration": 0.10267846874999975
                },
                {
                    "name": "E2",
                    "midi": 40,
                    "time": 66.10707675000037,
                    "velocity": 0.48031496062992124,
                    "duration": 0.10267846874999975
                },
                {
                    "name": "A#5",
                    "midi": 82,
                    "time": 66.10707675000037,
                    "velocity": 0.48031496062992124,
                    "duration": 0.10267846874999975
                },
                {
                    "name": "D6",
                    "midi": 86,
                    "time": 66.10707675000037,
                    "velocity": 0.48031496062992124,
                    "duration": 0.10267846874999975
                },
                {
                    "name": "F2",
                    "midi": 41,
                    "time": 66.21421950000037,
                    "velocity": 0.48031496062992124,
                    "duration": 0.10267846874999975
                },
                {
                    "name": "A1",
                    "midi": 33,
                    "time": 66.21421950000037,
                    "velocity": 0.48031496062992124,
                    "duration": 0.20982121874999393
                },
                {
                    "name": "C#6",
                    "midi": 85,
                    "time": 66.21421950000037,
                    "velocity": 0.48031496062992124,
                    "duration": 0.10267846874999975
                },
                {
                    "name": "E6",
                    "midi": 88,
                    "time": 66.21421950000037,
                    "velocity": 0.48031496062992124,
                    "duration": 0.20982121874999393
                },
                {
                    "name": "A5",
                    "midi": 81,
                    "time": 66.21421950000037,
                    "velocity": 0.48031496062992124,
                    "duration": 0.10267846874999975
                },
                {
                    "name": "F#2",
                    "midi": 42,
                    "time": 66.32136225000036,
                    "velocity": 0.48031496062992124,
                    "duration": 0.10267846874999975
                },
                {
                    "name": "G#5",
                    "midi": 80,
                    "time": 66.32136225000036,
                    "velocity": 0.48031496062992124,
                    "duration": 0.10267846874999975
                },
                {
                    "name": "C6",
                    "midi": 84,
                    "time": 66.32136225000036,
                    "velocity": 0.48031496062992124,
                    "duration": 0.10267846874999975
                },
                {
                    "name": "G2",
                    "midi": 43,
                    "time": 66.42850500000036,
                    "velocity": 0.48031496062992124,
                    "duration": 0.10267846874999975
                },
                {
                    "name": "B1",
                    "midi": 35,
                    "time": 66.42850500000036,
                    "velocity": 0.48031496062992124,
                    "duration": 0.20982121874999393
                },
                {
                    "name": "B5",
                    "midi": 83,
                    "time": 66.42850500000036,
                    "velocity": 0.48031496062992124,
                    "duration": 0.10267846874999975
                },
                {
                    "name": "E6",
                    "midi": 88,
                    "time": 66.42850500000036,
                    "velocity": 0.48031496062992124,
                    "duration": 0.20982121874999393
                },
                {
                    "name": "G5",
                    "midi": 79,
                    "time": 66.42850500000036,
                    "velocity": 0.48031496062992124,
                    "duration": 0.10267846874999975
                },
                {
                    "name": "G#2",
                    "midi": 44,
                    "time": 66.53564775000035,
                    "velocity": 0.48031496062992124,
                    "duration": 0.10267846874999975
                },
                {
                    "name": "F#5",
                    "midi": 78,
                    "time": 66.53564775000035,
                    "velocity": 0.48031496062992124,
                    "duration": 0.10267846874999975
                },
                {
                    "name": "A#5",
                    "midi": 82,
                    "time": 66.53564775000035,
                    "velocity": 0.48031496062992124,
                    "duration": 0.10267846874999975
                },
                {
                    "name": "A2",
                    "midi": 45,
                    "time": 66.64279050000034,
                    "velocity": 0.48031496062992124,
                    "duration": 0.10267846874999975
                },
                {
                    "name": "G1",
                    "midi": 31,
                    "time": 66.64279050000034,
                    "velocity": 0.48031496062992124,
                    "duration": 0.20982121874999393
                },
                {
                    "name": "A5",
                    "midi": 81,
                    "time": 66.64279050000034,
                    "velocity": 0.48031496062992124,
                    "duration": 0.10267846874999975
                },
                {
                    "name": "D6",
                    "midi": 86,
                    "time": 66.64279050000034,
                    "velocity": 0.48031496062992124,
                    "duration": 0.20982121874999393
                },
                {
                    "name": "F5",
                    "midi": 77,
                    "time": 66.64279050000034,
                    "velocity": 0.48031496062992124,
                    "duration": 0.10267846874999975
                },
                {
                    "name": "G#2",
                    "midi": 44,
                    "time": 66.74993325000034,
                    "velocity": 0.48031496062992124,
                    "duration": 0.10267846874999975
                },
                {
                    "name": "F#5",
                    "midi": 78,
                    "time": 66.74993325000034,
                    "velocity": 0.48031496062992124,
                    "duration": 0.10267846874999975
                },
                {
                    "name": "A#5",
                    "midi": 82,
                    "time": 66.74993325000034,
                    "velocity": 0.48031496062992124,
                    "duration": 0.10267846874999975
                },
                {
                    "name": "C2",
                    "midi": 36,
                    "time": 66.85707600000033,
                    "velocity": 0.48031496062992124,
                    "duration": 0.20982121874999393
                },
                {
                    "name": "G2",
                    "midi": 43,
                    "time": 66.85707600000033,
                    "velocity": 0.48031496062992124,
                    "duration": 0.10267846874999975
                },
                {
                    "name": "E6",
                    "midi": 88,
                    "time": 66.85707600000033,
                    "velocity": 0.48031496062992124,
                    "duration": 0.20982121874999393
                },
                {
                    "name": "G5",
                    "midi": 79,
                    "time": 66.85707600000033,
                    "velocity": 0.48031496062992124,
                    "duration": 0.10267846874999975
                },
                {
                    "name": "B5",
                    "midi": 83,
                    "time": 66.85707600000033,
                    "velocity": 0.48031496062992124,
                    "duration": 0.10267846874999975
                },
                {
                    "name": "G#2",
                    "midi": 44,
                    "time": 66.96421875000033,
                    "velocity": 0.48031496062992124,
                    "duration": 0.10267846874999975
                },
                {
                    "name": "F#5",
                    "midi": 78,
                    "time": 66.96421875000033,
                    "velocity": 0.48031496062992124,
                    "duration": 0.10267846874999975
                },
                {
                    "name": "A#5",
                    "midi": 82,
                    "time": 66.96421875000033,
                    "velocity": 0.48031496062992124,
                    "duration": 0.10267846874999975
                },
                {
                    "name": "A2",
                    "midi": 45,
                    "time": 67.07136150000032,
                    "velocity": 0.48031496062992124,
                    "duration": 0.10267846874999975
                },
                {
                    "name": "D2",
                    "midi": 38,
                    "time": 67.07136150000032,
                    "velocity": 0.48031496062992124,
                    "duration": 0.20982121874999393
                },
                {
                    "name": "F6",
                    "midi": 89,
                    "time": 67.07136150000032,
                    "velocity": 0.48031496062992124,
                    "duration": 0.20982121874999393
                },
                {
                    "name": "F5",
                    "midi": 77,
                    "time": 67.07136150000032,
                    "velocity": 0.48031496062992124,
                    "duration": 0.10267846874999975
                },
                {
                    "name": "A5",
                    "midi": 81,
                    "time": 67.07136150000032,
                    "velocity": 0.48031496062992124,
                    "duration": 0.10267846874999975
                },
                {
                    "name": "A#2",
                    "midi": 46,
                    "time": 67.17850425000032,
                    "velocity": 0.48031496062992124,
                    "duration": 0.10267846874999975
                },
                {
                    "name": "G#5",
                    "midi": 80,
                    "time": 67.17850425000032,
                    "velocity": 0.48031496062992124,
                    "duration": 0.10267846874999975
                },
                {
                    "name": "E5",
                    "midi": 76,
                    "time": 67.17850425000032,
                    "velocity": 0.48031496062992124,
                    "duration": 0.10267846874999975
                },
                {
                    "name": "E2",
                    "midi": 40,
                    "time": 67.28564700000031,
                    "velocity": 0.48031496062992124,
                    "duration": 0.20982121874999393
                },
                {
                    "name": "B2",
                    "midi": 47,
                    "time": 67.28564700000031,
                    "velocity": 0.48031496062992124,
                    "duration": 0.10267846874999975
                },
                {
                    "name": "D#5",
                    "midi": 75,
                    "time": 67.28564700000031,
                    "velocity": 0.48031496062992124,
                    "duration": 0.10267846874999975
                },
                {
                    "name": "G5",
                    "midi": 79,
                    "time": 67.28564700000031,
                    "velocity": 0.48031496062992124,
                    "duration": 0.10267846874999975
                },
                {
                    "name": "B5",
                    "midi": 83,
                    "time": 67.28564700000031,
                    "velocity": 0.48031496062992124,
                    "duration": 0.20982121874999393
                },
                {
                    "name": "C3",
                    "midi": 48,
                    "time": 67.3927897500003,
                    "velocity": 0.48031496062992124,
                    "duration": 0.10267846874999975
                },
                {
                    "name": "F#5",
                    "midi": 78,
                    "time": 67.3927897500003,
                    "velocity": 0.48031496062992124,
                    "duration": 0.10267846874999975
                },
                {
                    "name": "D5",
                    "midi": 74,
                    "time": 67.3927897500003,
                    "velocity": 0.48031496062992124,
                    "duration": 0.10267846874999975
                },
                {
                    "name": "C#3",
                    "midi": 49,
                    "time": 67.4999325000003,
                    "velocity": 0.48031496062992124,
                    "duration": 0.10267846874999975
                },
                {
                    "name": "F2",
                    "midi": 41,
                    "time": 67.4999325000003,
                    "velocity": 0.48031496062992124,
                    "duration": 0.20982121874999393
                },
                {
                    "name": "C#5",
                    "midi": 73,
                    "time": 67.4999325000003,
                    "velocity": 0.48031496062992124,
                    "duration": 0.10267846874999975
                },
                {
                    "name": "F5",
                    "midi": 77,
                    "time": 67.4999325000003,
                    "velocity": 0.48031496062992124,
                    "duration": 0.10267846874999975
                },
                {
                    "name": "A5",
                    "midi": 81,
                    "time": 67.4999325000003,
                    "velocity": 0.48031496062992124,
                    "duration": 0.10267846874999975
                },
                {
                    "name": "D3",
                    "midi": 50,
                    "time": 67.60707525000029,
                    "velocity": 0.48031496062992124,
                    "duration": 0.10267846874999975
                },
                {
                    "name": "B5",
                    "midi": 83,
                    "time": 67.60707525000029,
                    "velocity": 0.48031496062992124,
                    "duration": 0.10267846874999975
                },
                {
                    "name": "E5",
                    "midi": 76,
                    "time": 67.60707525000029,
                    "velocity": 0.48031496062992124,
                    "duration": 0.10267846874999975
                },
                {
                    "name": "C5",
                    "midi": 72,
                    "time": 67.60707525000029,
                    "velocity": 0.48031496062992124,
                    "duration": 0.10267846874999975
                },
                {
                    "name": "D#3",
                    "midi": 51,
                    "time": 67.71421800000029,
                    "velocity": 0.48031496062992124,
                    "duration": 0.10267846874999975
                },
                {
                    "name": "G2",
                    "midi": 43,
                    "time": 67.71421800000029,
                    "velocity": 0.48031496062992124,
                    "duration": 0.20982121874999393
                },
                {
                    "name": "D#5",
                    "midi": 75,
                    "time": 67.71421800000029,
                    "velocity": 0.48031496062992124,
                    "duration": 0.10267846874999975
                },
                {
                    "name": "A5",
                    "midi": 81,
                    "time": 67.71421800000029,
                    "velocity": 0.48031496062992124,
                    "duration": 0.20982121874999393
                },
                {
                    "name": "B4",
                    "midi": 71,
                    "time": 67.71421800000029,
                    "velocity": 0.48031496062992124,
                    "duration": 0.10267846874999975
                },
                {
                    "name": "E3",
                    "midi": 52,
                    "time": 67.82136075000028,
                    "velocity": 0.48031496062992124,
                    "duration": 0.10267846874999975
                },
                {
                    "name": "A#4",
                    "midi": 70,
                    "time": 67.82136075000028,
                    "velocity": 0.48031496062992124,
                    "duration": 0.10267846874999975
                },
                {
                    "name": "D5",
                    "midi": 74,
                    "time": 67.82136075000028,
                    "velocity": 0.48031496062992124,
                    "duration": 0.10267846874999975
                },
                {
                    "name": "F3",
                    "midi": 53,
                    "time": 67.92850350000028,
                    "velocity": 0.48031496062992124,
                    "duration": 0.10267846874999975
                },
                {
                    "name": "A2",
                    "midi": 45,
                    "time": 67.92850350000028,
                    "velocity": 0.48031496062992124,
                    "duration": 0.20982121874999393
                },
                {
                    "name": "C#5",
                    "midi": 73,
                    "time": 67.92850350000028,
                    "velocity": 0.48031496062992124,
                    "duration": 0.10267846874999975
                },
                {
                    "name": "E5",
                    "midi": 76,
                    "time": 67.92850350000028,
                    "velocity": 0.48031496062992124,
                    "duration": 0.20982121874999393
                },
                {
                    "name": "A4",
                    "midi": 69,
                    "time": 67.92850350000028,
                    "velocity": 0.48031496062992124,
                    "duration": 0.10267846874999975
                },
                {
                    "name": "F#3",
                    "midi": 54,
                    "time": 68.03564625000027,
                    "velocity": 0.48031496062992124,
                    "duration": 0.10267846874999975
                },
                {
                    "name": "G#4",
                    "midi": 68,
                    "time": 68.03564625000027,
                    "velocity": 0.48031496062992124,
                    "duration": 0.10267846874999975
                },
                {
                    "name": "C5",
                    "midi": 72,
                    "time": 68.03564625000027,
                    "velocity": 0.48031496062992124,
                    "duration": 0.10267846874999975
                },
                {
                    "name": "G3",
                    "midi": 55,
                    "time": 68.14278900000026,
                    "velocity": 0.48031496062992124,
                    "duration": 0.10267846874999975
                },
                {
                    "name": "B2",
                    "midi": 47,
                    "time": 68.14278900000026,
                    "velocity": 0.48031496062992124,
                    "duration": 0.20982121874999393
                },
                {
                    "name": "E5",
                    "midi": 76,
                    "time": 68.14278900000026,
                    "velocity": 0.48031496062992124,
                    "duration": 0.20982121874999393
                },
                {
                    "name": "B4",
                    "midi": 71,
                    "time": 68.14278900000026,
                    "velocity": 0.48031496062992124,
                    "duration": 0.10267846874999975
                },
                {
                    "name": "G4",
                    "midi": 67,
                    "time": 68.14278900000026,
                    "velocity": 0.48031496062992124,
                    "duration": 0.10267846874999975
                },
                {
                    "name": "G#3",
                    "midi": 56,
                    "time": 68.24993175000026,
                    "velocity": 0.48031496062992124,
                    "duration": 0.10267846874999975
                },
                {
                    "name": "A#4",
                    "midi": 70,
                    "time": 68.24993175000026,
                    "velocity": 0.48031496062992124,
                    "duration": 0.10267846874999975
                },
                {
                    "name": "F#4",
                    "midi": 66,
                    "time": 68.24993175000026,
                    "velocity": 0.48031496062992124,
                    "duration": 0.10267846874999975
                },
                {
                    "name": "G2",
                    "midi": 43,
                    "time": 68.35707450000025,
                    "velocity": 0.48031496062992124,
                    "duration": 0.20982121874999393
                },
                {
                    "name": "A3",
                    "midi": 57,
                    "time": 68.35707450000025,
                    "velocity": 0.48031496062992124,
                    "duration": 0.10267846874999975
                },
                {
                    "name": "F4",
                    "midi": 65,
                    "time": 68.35707450000025,
                    "velocity": 0.48031496062992124,
                    "duration": 0.10267846874999975
                },
                {
                    "name": "D5",
                    "midi": 74,
                    "time": 68.35707450000025,
                    "velocity": 0.48031496062992124,
                    "duration": 0.20982121874999393
                },
                {
                    "name": "A4",
                    "midi": 69,
                    "time": 68.35707450000025,
                    "velocity": 0.48031496062992124,
                    "duration": 0.10267846874999975
                },
                {
                    "name": "G#3",
                    "midi": 56,
                    "time": 68.46421725000025,
                    "velocity": 0.48031496062992124,
                    "duration": 0.10267846874999975
                },
                {
                    "name": "F#4",
                    "midi": 66,
                    "time": 68.46421725000025,
                    "velocity": 0.48031496062992124,
                    "duration": 0.10267846874999975
                },
                {
                    "name": "A#4",
                    "midi": 70,
                    "time": 68.46421725000025,
                    "velocity": 0.48031496062992124,
                    "duration": 0.10267846874999975
                },
                {
                    "name": "G#4",
                    "midi": 68,
                    "time": 68.57136000000024,
                    "velocity": 0.48031496062992124,
                    "duration": 0.10267846874999975
                },
                {
                    "name": "E5",
                    "midi": 76,
                    "time": 68.57136000000024,
                    "velocity": 0.48031496062992124,
                    "duration": 0.20982121874999393
                },
                {
                    "name": "C2",
                    "midi": 36,
                    "time": 68.57136000000024,
                    "velocity": 0.48031496062992124,
                    "duration": 0.10267846874999975
                },
                {
                    "name": "B4",
                    "midi": 71,
                    "time": 68.57136000000024,
                    "velocity": 0.48031496062992124,
                    "duration": 0.10267846874999975
                },
                {
                    "name": "G4",
                    "midi": 67,
                    "time": 68.67850275000023,
                    "velocity": 0.48031496062992124,
                    "duration": 0.10267846874999975
                },
                {
                    "name": "C#2",
                    "midi": 37,
                    "time": 68.67850275000023,
                    "velocity": 0.48031496062992124,
                    "duration": 0.10267846874999975
                },
                {
                    "name": "A#4",
                    "midi": 70,
                    "time": 68.67850275000023,
                    "velocity": 0.48031496062992124,
                    "duration": 0.10267846874999975
                },
                {
                    "name": "F#4",
                    "midi": 66,
                    "time": 68.78564550000023,
                    "velocity": 0.48031496062992124,
                    "duration": 0.10267846874999975
                },
                {
                    "name": "E4",
                    "midi": 64,
                    "time": 68.78564550000023,
                    "velocity": 0.48031496062992124,
                    "duration": 0.20982121874999393
                },
                {
                    "name": "D2",
                    "midi": 38,
                    "time": 68.78564550000023,
                    "velocity": 0.48031496062992124,
                    "duration": 0.10267846874999975
                },
                {
                    "name": "A4",
                    "midi": 69,
                    "time": 68.78564550000023,
                    "velocity": 0.48031496062992124,
                    "duration": 0.10267846874999975
                },
                {
                    "name": "F4",
                    "midi": 65,
                    "time": 68.89278825000022,
                    "velocity": 0.48031496062992124,
                    "duration": 0.10267846874999975
                },
                {
                    "name": "D#2",
                    "midi": 39,
                    "time": 68.89278825000022,
                    "velocity": 0.48031496062992124,
                    "duration": 0.10267846874999975
                },
                {
                    "name": "G#4",
                    "midi": 68,
                    "time": 68.89278825000022,
                    "velocity": 0.48031496062992124,
                    "duration": 0.10267846874999975
                },
                {
                    "name": "E4",
                    "midi": 64,
                    "time": 68.99993100000022,
                    "velocity": 0.48031496062992124,
                    "duration": 0.10267846874999975
                },
                {
                    "name": "E3",
                    "midi": 52,
                    "time": 68.99993100000022,
                    "velocity": 0.48031496062992124,
                    "duration": 0.20982121874999393
                },
                {
                    "name": "G4",
                    "midi": 67,
                    "time": 68.99993100000022,
                    "velocity": 0.48031496062992124,
                    "duration": 0.10267846874999975
                },
                {
                    "name": "D#3",
                    "midi": 51,
                    "time": 69.10707375000021,
                    "velocity": 0.48031496062992124,
                    "duration": 0.10267846874999975
                },
                {
                    "name": "F4",
                    "midi": 65,
                    "time": 69.10707375000021,
                    "velocity": 0.48031496062992124,
                    "duration": 0.10267846874999975
                },
                {
                    "name": "G#4",
                    "midi": 68,
                    "time": 69.10707375000021,
                    "velocity": 0.48031496062992124,
                    "duration": 0.10267846874999975
                },
                {
                    "name": "D3",
                    "midi": 50,
                    "time": 69.2142165000002,
                    "velocity": 0.48031496062992124,
                    "duration": 0.10267846874999975
                },
                {
                    "name": "F#4",
                    "midi": 66,
                    "time": 69.2142165000002,
                    "velocity": 0.48031496062992124,
                    "duration": 0.10267846874999975
                },
                {
                    "name": "E4",
                    "midi": 64,
                    "time": 69.2142165000002,
                    "velocity": 0.48031496062992124,
                    "duration": 0.20982121874999393
                },
                {
                    "name": "A4",
                    "midi": 69,
                    "time": 69.2142165000002,
                    "velocity": 0.48031496062992124,
                    "duration": 0.10267846874999975
                },
                {
                    "name": "C#3",
                    "midi": 49,
                    "time": 69.3213592500002,
                    "velocity": 0.48031496062992124,
                    "duration": 0.10267846874999975
                },
                {
                    "name": "A#4",
                    "midi": 70,
                    "time": 69.3213592500002,
                    "velocity": 0.48031496062992124,
                    "duration": 0.10267846874999975
                },
                {
                    "name": "G4",
                    "midi": 67,
                    "time": 69.3213592500002,
                    "velocity": 0.48031496062992124,
                    "duration": 0.10267846874999975
                },
                {
                    "name": "C2",
                    "midi": 36,
                    "time": 69.4285020000002,
                    "velocity": 0.48031496062992124,
                    "duration": 0.10267846874999975
                },
                {
                    "name": "E5",
                    "midi": 76,
                    "time": 69.4285020000002,
                    "velocity": 0.48031496062992124,
                    "duration": 0.20982121874999393
                },
                {
                    "name": "G#4",
                    "midi": 68,
                    "time": 69.4285020000002,
                    "velocity": 0.48031496062992124,
                    "duration": 0.10267846874999975
                },
                {
                    "name": "B4",
                    "midi": 71,
                    "time": 69.4285020000002,
                    "velocity": 0.48031496062992124,
                    "duration": 0.10267846874999975
                },
                {
                    "name": "C#2",
                    "midi": 37,
                    "time": 69.53564475000019,
                    "velocity": 0.48031496062992124,
                    "duration": 0.10267846874999975
                },
                {
                    "name": "A#4",
                    "midi": 70,
                    "time": 69.53564475000019,
                    "velocity": 0.48031496062992124,
                    "duration": 0.10267846874999975
                },
                {
                    "name": "G4",
                    "midi": 67,
                    "time": 69.53564475000019,
                    "velocity": 0.48031496062992124,
                    "duration": 0.10267846874999975
                },
                {
                    "name": "D2",
                    "midi": 38,
                    "time": 69.64278750000018,
                    "velocity": 0.48031496062992124,
                    "duration": 0.10267846874999975
                },
                {
                    "name": "E4",
                    "midi": 64,
                    "time": 69.64278750000018,
                    "velocity": 0.48031496062992124,
                    "duration": 0.20982121874999393
                },
                {
                    "name": "F#4",
                    "midi": 66,
                    "time": 69.64278750000018,
                    "velocity": 0.48031496062992124,
                    "duration": 0.10267846874999975
                },
                {
                    "name": "A4",
                    "midi": 69,
                    "time": 69.64278750000018,
                    "velocity": 0.48031496062992124,
                    "duration": 0.10267846874999975
                },
                {
                    "name": "D#2",
                    "midi": 39,
                    "time": 69.74993025000018,
                    "velocity": 0.48031496062992124,
                    "duration": 0.10267846874999975
                },
                {
                    "name": "F4",
                    "midi": 65,
                    "time": 69.74993025000018,
                    "velocity": 0.48031496062992124,
                    "duration": 0.10267846874999975
                },
                {
                    "name": "G#4",
                    "midi": 68,
                    "time": 69.74993025000018,
                    "velocity": 0.48031496062992124,
                    "duration": 0.10267846874999975
                },
                {
                    "name": "E3",
                    "midi": 52,
                    "time": 69.85707300000017,
                    "velocity": 0.48031496062992124,
                    "duration": 0.20982121874999393
                },
                {
                    "name": "E4",
                    "midi": 64,
                    "time": 69.85707300000017,
                    "velocity": 0.48031496062992124,
                    "duration": 0.10267846874999975
                },
                {
                    "name": "G4",
                    "midi": 67,
                    "time": 69.85707300000017,
                    "velocity": 0.48031496062992124,
                    "duration": 0.10267846874999975
                },
                {
                    "name": "D#3",
                    "midi": 51,
                    "time": 69.96421575000016,
                    "velocity": 0.48031496062992124,
                    "duration": 0.10267846874999975
                },
                {
                    "name": "F4",
                    "midi": 65,
                    "time": 69.96421575000016,
                    "velocity": 0.48031496062992124,
                    "duration": 0.10267846874999975
                },
                {
                    "name": "G#4",
                    "midi": 68,
                    "time": 69.96421575000016,
                    "velocity": 0.48031496062992124,
                    "duration": 0.10267846874999975
                },
                {
                    "name": "D3",
                    "midi": 50,
                    "time": 70.07135850000016,
                    "velocity": 0.48031496062992124,
                    "duration": 0.10267846874999975
                },
                {
                    "name": "A4",
                    "midi": 69,
                    "time": 70.07135850000016,
                    "velocity": 0.48031496062992124,
                    "duration": 0.10267846874999975
                },
                {
                    "name": "E4",
                    "midi": 64,
                    "time": 70.07135850000016,
                    "velocity": 0.48031496062992124,
                    "duration": 0.20982121874999393
                },
                {
                    "name": "F#4",
                    "midi": 66,
                    "time": 70.07135850000016,
                    "velocity": 0.48031496062992124,
                    "duration": 0.10267846874999975
                },
                {
                    "name": "C#3",
                    "midi": 49,
                    "time": 70.17850125000015,
                    "velocity": 0.48031496062992124,
                    "duration": 0.10267846874999975
                },
                {
                    "name": "G4",
                    "midi": 67,
                    "time": 70.17850125000015,
                    "velocity": 0.48031496062992124,
                    "duration": 0.10267846874999975
                },
                {
                    "name": "A#4",
                    "midi": 70,
                    "time": 70.17850125000015,
                    "velocity": 0.48031496062992124,
                    "duration": 0.10267846874999975
                },
                {
                    "name": "A#1",
                    "midi": 34,
                    "time": 70.28564400000015,
                    "velocity": 0.48031496062992124,
                    "duration": 0.10267846874999975
                },
                {
                    "name": "D5",
                    "midi": 74,
                    "time": 70.28564400000015,
                    "velocity": 0.48031496062992124,
                    "duration": 0.20982121874999393
                },
                {
                    "name": "F#4",
                    "midi": 66,
                    "time": 70.28564400000015,
                    "velocity": 0.48031496062992124,
                    "duration": 0.10267846874999975
                },
                {
                    "name": "A4",
                    "midi": 69,
                    "time": 70.28564400000015,
                    "velocity": 0.48031496062992124,
                    "duration": 0.10267846874999975
                },
                {
                    "name": "B1",
                    "midi": 35,
                    "time": 70.39278675000014,
                    "velocity": 0.48031496062992124,
                    "duration": 0.10267846874999975
                },
                {
                    "name": "F4",
                    "midi": 65,
                    "time": 70.39278675000014,
                    "velocity": 0.48031496062992124,
                    "duration": 0.10267846874999975
                },
                {
                    "name": "G#4",
                    "midi": 68,
                    "time": 70.39278675000014,
                    "velocity": 0.48031496062992124,
                    "duration": 0.10267846874999975
                },
                {
                    "name": "C2",
                    "midi": 36,
                    "time": 70.49992950000014,
                    "velocity": 0.48031496062992124,
                    "duration": 0.10267846874999975
                },
                {
                    "name": "D4",
                    "midi": 62,
                    "time": 70.49992950000014,
                    "velocity": 0.48031496062992124,
                    "duration": 0.20982121874999393
                },
                {
                    "name": "E4",
                    "midi": 64,
                    "time": 70.49992950000014,
                    "velocity": 0.48031496062992124,
                    "duration": 0.10267846874999975
                },
                {
                    "name": "G4",
                    "midi": 67,
                    "time": 70.49992950000014,
                    "velocity": 0.48031496062992124,
                    "duration": 0.10267846874999975
                },
                {
                    "name": "C#2",
                    "midi": 37,
                    "time": 70.60707225000013,
                    "velocity": 0.48031496062992124,
                    "duration": 0.10267846874999975
                },
                {
                    "name": "D#4",
                    "midi": 63,
                    "time": 70.60707225000013,
                    "velocity": 0.48031496062992124,
                    "duration": 0.10267846874999975
                },
                {
                    "name": "F#4",
                    "midi": 66,
                    "time": 70.60707225000013,
                    "velocity": 0.48031496062992124,
                    "duration": 0.10267846874999975
                },
                {
                    "name": "D3",
                    "midi": 50,
                    "time": 70.71421500000012,
                    "velocity": 0.48031496062992124,
                    "duration": 0.20982121874999393
                },
                {
                    "name": "D4",
                    "midi": 62,
                    "time": 70.71421500000012,
                    "velocity": 0.48031496062992124,
                    "duration": 0.10267846874999975
                },
                {
                    "name": "F4",
                    "midi": 65,
                    "time": 70.71421500000012,
                    "velocity": 0.48031496062992124,
                    "duration": 0.10267846874999975
                },
                {
                    "name": "C#3",
                    "midi": 49,
                    "time": 70.82135775000012,
                    "velocity": 0.48031496062992124,
                    "duration": 0.10267846874999975
                },
                {
                    "name": "D#4",
                    "midi": 63,
                    "time": 70.82135775000012,
                    "velocity": 0.48031496062992124,
                    "duration": 0.10267846874999975
                },
                {
                    "name": "F#4",
                    "midi": 66,
                    "time": 70.82135775000012,
                    "velocity": 0.48031496062992124,
                    "duration": 0.10267846874999975
                },
                {
                    "name": "C3",
                    "midi": 48,
                    "time": 70.92850050000011,
                    "velocity": 0.48031496062992124,
                    "duration": 0.10267846874999975
                },
                {
                    "name": "G4",
                    "midi": 67,
                    "time": 70.92850050000011,
                    "velocity": 0.48031496062992124,
                    "duration": 0.10267846874999975
                },
                {
                    "name": "D4",
                    "midi": 62,
                    "time": 70.92850050000011,
                    "velocity": 0.48031496062992124,
                    "duration": 0.20982121874999393
                },
                {
                    "name": "E4",
                    "midi": 64,
                    "time": 70.92850050000011,
                    "velocity": 0.48031496062992124,
                    "duration": 0.10267846874999975
                },
                {
                    "name": "B2",
                    "midi": 47,
                    "time": 71.0356432500001,
                    "velocity": 0.48031496062992124,
                    "duration": 0.10267846874999975
                },
                {
                    "name": "F4",
                    "midi": 65,
                    "time": 71.0356432500001,
                    "velocity": 0.48031496062992124,
                    "duration": 0.10267846874999975
                },
                {
                    "name": "G#4",
                    "midi": 68,
                    "time": 71.0356432500001,
                    "velocity": 0.48031496062992124,
                    "duration": 0.10267846874999975
                },
                {
                    "name": "A#1",
                    "midi": 34,
                    "time": 71.1427860000001,
                    "velocity": 0.48031496062992124,
                    "duration": 0.10267846874999975
                },
                {
                    "name": "D2",
                    "midi": 38,
                    "time": 71.1427860000001,
                    "velocity": 0.48031496062992124,
                    "duration": 0.10267846874999975
                },
                {
                    "name": "G#4",
                    "midi": 68,
                    "time": 71.1427860000001,
                    "velocity": 0.48031496062992124,
                    "duration": 0.10267846874999975
                },
                {
                    "name": "D4",
                    "midi": 62,
                    "time": 71.1427860000001,
                    "velocity": 0.48031496062992124,
                    "duration": 0.10267846874999975
                },
                {
                    "name": "B1",
                    "midi": 35,
                    "time": 71.2499287500001,
                    "velocity": 0.48031496062992124,
                    "duration": 0.10267846874999975
                },
                {
                    "name": "D#2",
                    "midi": 39,
                    "time": 71.2499287500001,
                    "velocity": 0.48031496062992124,
                    "duration": 0.10267846874999975
                },
                {
                    "name": "A4",
                    "midi": 69,
                    "time": 71.2499287500001,
                    "velocity": 0.48031496062992124,
                    "duration": 0.10267846874999975
                },
                {
                    "name": "C2",
                    "midi": 36,
                    "time": 71.35707150000009,
                    "velocity": 0.48031496062992124,
                    "duration": 0.10267846874999975
                },
                {
                    "name": "E2",
                    "midi": 40,
                    "time": 71.35707150000009,
                    "velocity": 0.48031496062992124,
                    "duration": 0.10267846874999975
                },
                {
                    "name": "D5",
                    "midi": 74,
                    "time": 71.35707150000009,
                    "velocity": 0.48031496062992124,
                    "duration": 0.10267846874999975
                },
                {
                    "name": "A#4",
                    "midi": 70,
                    "time": 71.35707150000009,
                    "velocity": 0.48031496062992124,
                    "duration": 0.10267846874999975
                },
                {
                    "name": "C#2",
                    "midi": 37,
                    "time": 71.46421425000008,
                    "velocity": 0.48031496062992124,
                    "duration": 0.10267846874999975
                },
                {
                    "name": "F2",
                    "midi": 41,
                    "time": 71.46421425000008,
                    "velocity": 0.48031496062992124,
                    "duration": 0.10267846874999975
                },
                {
                    "name": "A4",
                    "midi": 69,
                    "time": 71.46421425000008,
                    "velocity": 0.48031496062992124,
                    "duration": 0.10267846874999975
                },
                {
                    "name": "D2",
                    "midi": 38,
                    "time": 71.57135700000008,
                    "velocity": 0.48031496062992124,
                    "duration": 0.10267846874999975
                },
                {
                    "name": "F#2",
                    "midi": 42,
                    "time": 71.57135700000008,
                    "velocity": 0.48031496062992124,
                    "duration": 0.10267846874999975
                },
                {
                    "name": "G#5",
                    "midi": 80,
                    "time": 71.57135700000008,
                    "velocity": 0.48031496062992124,
                    "duration": 0.10267846874999975
                },
                {
                    "name": "G#4",
                    "midi": 68,
                    "time": 71.57135700000008,
                    "velocity": 0.48031496062992124,
                    "duration": 0.10267846874999975
                },
                {
                    "name": "D5",
                    "midi": 74,
                    "time": 71.57135700000008,
                    "velocity": 0.48031496062992124,
                    "duration": 0.10267846874999975
                },
                {
                    "name": "G2",
                    "midi": 43,
                    "time": 71.67849975000007,
                    "velocity": 0.48031496062992124,
                    "duration": 0.10267846874999975
                },
                {
                    "name": "D#2",
                    "midi": 39,
                    "time": 71.67849975000007,
                    "velocity": 0.48031496062992124,
                    "duration": 0.10267846874999975
                },
                {
                    "name": "A5",
                    "midi": 81,
                    "time": 71.67849975000007,
                    "velocity": 0.48031496062992124,
                    "duration": 0.10267846874999975
                },
                {
                    "name": "G#2",
                    "midi": 44,
                    "time": 71.78564250000007,
                    "velocity": 0.48031496062992124,
                    "duration": 0.10267846874999975
                },
                {
                    "name": "E2",
                    "midi": 40,
                    "time": 71.78564250000007,
                    "velocity": 0.48031496062992124,
                    "duration": 0.10267846874999975
                },
                {
                    "name": "D6",
                    "midi": 86,
                    "time": 71.78564250000007,
                    "velocity": 0.48031496062992124,
                    "duration": 0.10267846874999975
                },
                {
                    "name": "A#5",
                    "midi": 82,
                    "time": 71.78564250000007,
                    "velocity": 0.48031496062992124,
                    "duration": 0.10267846874999975
                },
                {
                    "name": "D5",
                    "midi": 74,
                    "time": 71.78564250000007,
                    "velocity": 0.48031496062992124,
                    "duration": 0.10267846874999975
                },
                {
                    "name": "F2",
                    "midi": 41,
                    "time": 71.89278525000006,
                    "velocity": 0.48031496062992124,
                    "duration": 0.10267846874999975
                },
                {
                    "name": "A2",
                    "midi": 45,
                    "time": 71.89278525000006,
                    "velocity": 0.48031496062992124,
                    "duration": 0.10267846874999975
                },
                {
                    "name": "A5",
                    "midi": 81,
                    "time": 71.89278525000006,
                    "velocity": 0.48031496062992124,
                    "duration": 0.10267846874999975
                },
                {
                    "name": "C3",
                    "midi": 48,
                    "time": 71.99992800000005,
                    "velocity": 0.48031496062992124,
                    "duration": 0.10267846874999975
                },
                {
                    "name": "C2",
                    "midi": 36,
                    "time": 71.99992800000005,
                    "velocity": 0.48031496062992124,
                    "duration": 0.10267846874999975
                },
                {
                    "name": "E6",
                    "midi": 88,
                    "time": 71.99992800000005,
                    "velocity": 0.48031496062992124,
                    "duration": 0.20982121874999393
                },
                {
                    "name": "G#5",
                    "midi": 80,
                    "time": 71.99992800000005,
                    "velocity": 0.48031496062992124,
                    "duration": 0.10267846874999975
                },
                {
                    "name": "B5",
                    "midi": 83,
                    "time": 71.99992800000005,
                    "velocity": 0.48031496062992124,
                    "duration": 0.10267846874999975
                },
                {
                    "name": "C#3",
                    "midi": 49,
                    "time": 72.10707075000005,
                    "velocity": 0.48031496062992124,
                    "duration": 0.10267846874999975
                },
                {
                    "name": "C#2",
                    "midi": 37,
                    "time": 72.10707075000005,
                    "velocity": 0.48031496062992124,
                    "duration": 0.10267846874999975
                },
                {
                    "name": "A#5",
                    "midi": 82,
                    "time": 72.10707075000005,
                    "velocity": 0.48031496062992124,
                    "duration": 0.10267846874999975
                },
                {
                    "name": "G5",
                    "midi": 79,
                    "time": 72.10707075000005,
                    "velocity": 0.48031496062992124,
                    "duration": 0.10267846874999975
                },
                {
                    "name": "D3",
                    "midi": 50,
                    "time": 72.21421350000004,
                    "velocity": 0.48031496062992124,
                    "duration": 0.10267846874999975
                },
                {
                    "name": "D2",
                    "midi": 38,
                    "time": 72.21421350000004,
                    "velocity": 0.48031496062992124,
                    "duration": 0.10267846874999975
                },
                {
                    "name": "F#5",
                    "midi": 78,
                    "time": 72.21421350000004,
                    "velocity": 0.48031496062992124,
                    "duration": 0.10267846874999975
                },
                {
                    "name": "A5",
                    "midi": 81,
                    "time": 72.21421350000004,
                    "velocity": 0.48031496062992124,
                    "duration": 0.10267846874999975
                },
                {
                    "name": "E5",
                    "midi": 76,
                    "time": 72.21421350000004,
                    "velocity": 0.48031496062992124,
                    "duration": 0.20982121874999393
                },
                {
                    "name": "D#3",
                    "midi": 51,
                    "time": 72.32135625000004,
                    "velocity": 0.48031496062992124,
                    "duration": 0.10267846874999975
                },
                {
                    "name": "D#2",
                    "midi": 39,
                    "time": 72.32135625000004,
                    "velocity": 0.48031496062992124,
                    "duration": 0.10267846874999975
                },
                {
                    "name": "F5",
                    "midi": 77,
                    "time": 72.32135625000004,
                    "velocity": 0.48031496062992124,
                    "duration": 0.10267846874999975
                },
                {
                    "name": "G#5",
                    "midi": 80,
                    "time": 72.32135625000004,
                    "velocity": 0.48031496062992124,
                    "duration": 0.10267846874999975
                },
                {
                    "name": "E4",
                    "midi": 64,
                    "time": 72.42849900000003,
                    "velocity": 0.48031496062992124,
                    "duration": 0.20982121874999393
                },
                {
                    "name": "E3",
                    "midi": 52,
                    "time": 72.42849900000003,
                    "velocity": 0.48031496062992124,
                    "duration": 0.10267846874999975
                },
                {
                    "name": "E5",
                    "midi": 76,
                    "time": 72.42849900000003,
                    "velocity": 0.48031496062992124,
                    "duration": 0.10267846874999975
                },
                {
                    "name": "G5",
                    "midi": 79,
                    "time": 72.42849900000003,
                    "velocity": 0.48031496062992124,
                    "duration": 0.10267846874999975
                },
                {
                    "name": "D#4",
                    "midi": 63,
                    "time": 72.53564175000002,
                    "velocity": 0.48031496062992124,
                    "duration": 0.10267846874999975
                },
                {
                    "name": "D#3",
                    "midi": 51,
                    "time": 72.53564175000002,
                    "velocity": 0.48031496062992124,
                    "duration": 0.10267846874999975
                },
                {
                    "name": "G#5",
                    "midi": 80,
                    "time": 72.53564175000002,
                    "velocity": 0.48031496062992124,
                    "duration": 0.10267846874999975
                },
                {
                    "name": "F5",
                    "midi": 77,
                    "time": 72.53564175000002,
                    "velocity": 0.48031496062992124,
                    "duration": 0.10267846874999975
                },
                {
                    "name": "D4",
                    "midi": 62,
                    "time": 72.64278450000002,
                    "velocity": 0.48031496062992124,
                    "duration": 0.10267846874999975
                },
                {
                    "name": "D3",
                    "midi": 50,
                    "time": 72.64278450000002,
                    "velocity": 0.48031496062992124,
                    "duration": 0.10267846874999975
                },
                {
                    "name": "A5",
                    "midi": 81,
                    "time": 72.64278450000002,
                    "velocity": 0.48031496062992124,
                    "duration": 0.10267846874999975
                },
                {
                    "name": "F#5",
                    "midi": 78,
                    "time": 72.64278450000002,
                    "velocity": 0.48031496062992124,
                    "duration": 0.10267846874999975
                },
                {
                    "name": "E5",
                    "midi": 76,
                    "time": 72.64278450000002,
                    "velocity": 0.48031496062992124,
                    "duration": 0.20982121874999393
                },
                {
                    "name": "C#4",
                    "midi": 61,
                    "time": 72.74992725000001,
                    "velocity": 0.48031496062992124,
                    "duration": 0.10267846874999975
                },
                {
                    "name": "C#3",
                    "midi": 49,
                    "time": 72.74992725000001,
                    "velocity": 0.48031496062992124,
                    "duration": 0.10267846874999975
                },
                {
                    "name": "A#5",
                    "midi": 82,
                    "time": 72.74992725000001,
                    "velocity": 0.48031496062992124,
                    "duration": 0.10267846874999975
                },
                {
                    "name": "G5",
                    "midi": 79,
                    "time": 72.74992725000001,
                    "velocity": 0.48031496062992124,
                    "duration": 0.10267846874999975
                },
                {
                    "name": "C3",
                    "midi": 48,
                    "time": 72.85707000000001,
                    "velocity": 0.48031496062992124,
                    "duration": 0.10267846874999975
                },
                {
                    "name": "C2",
                    "midi": 36,
                    "time": 72.85707000000001,
                    "velocity": 0.48031496062992124,
                    "duration": 0.10267846874999975
                },
                {
                    "name": "E6",
                    "midi": 88,
                    "time": 72.85707000000001,
                    "velocity": 0.48031496062992124,
                    "duration": 0.20982121874999393
                },
                {
                    "name": "G#5",
                    "midi": 80,
                    "time": 72.85707000000001,
                    "velocity": 0.48031496062992124,
                    "duration": 0.10267846874999975
                },
                {
                    "name": "B5",
                    "midi": 83,
                    "time": 72.85707000000001,
                    "velocity": 0.48031496062992124,
                    "duration": 0.10267846874999975
                },
                {
                    "name": "C#3",
                    "midi": 49,
                    "time": 72.96421275,
                    "velocity": 0.48031496062992124,
                    "duration": 0.10267846874999975
                },
                {
                    "name": "C#2",
                    "midi": 37,
                    "time": 72.96421275,
                    "velocity": 0.48031496062992124,
                    "duration": 0.10267846874999975
                },
                {
                    "name": "G5",
                    "midi": 79,
                    "time": 72.96421275,
                    "velocity": 0.48031496062992124,
                    "duration": 0.10267846874999975
                },
                {
                    "name": "A#5",
                    "midi": 82,
                    "time": 72.96421275,
                    "velocity": 0.48031496062992124,
                    "duration": 0.10267846874999975
                },
                {
                    "name": "D3",
                    "midi": 50,
                    "time": 73.0713555,
                    "velocity": 0.48031496062992124,
                    "duration": 0.10267846874999975
                },
                {
                    "name": "D2",
                    "midi": 38,
                    "time": 73.0713555,
                    "velocity": 0.48031496062992124,
                    "duration": 0.10267846874999975
                },
                {
                    "name": "F#5",
                    "midi": 78,
                    "time": 73.0713555,
                    "velocity": 0.48031496062992124,
                    "duration": 0.10267846874999975
                },
                {
                    "name": "E5",
                    "midi": 76,
                    "time": 73.0713555,
                    "velocity": 0.48031496062992124,
                    "duration": 0.20982121874999393
                },
                {
                    "name": "A5",
                    "midi": 81,
                    "time": 73.0713555,
                    "velocity": 0.48031496062992124,
                    "duration": 0.10267846874999975
                },
                {
                    "name": "D#3",
                    "midi": 51,
                    "time": 73.17849824999999,
                    "velocity": 0.48031496062992124,
                    "duration": 0.10267846874999975
                },
                {
                    "name": "D#2",
                    "midi": 39,
                    "time": 73.17849824999999,
                    "velocity": 0.48031496062992124,
                    "duration": 0.10267846874999975
                },
                {
                    "name": "G#5",
                    "midi": 80,
                    "time": 73.17849824999999,
                    "velocity": 0.48031496062992124,
                    "duration": 0.10267846874999975
                },
                {
                    "name": "F5",
                    "midi": 77,
                    "time": 73.17849824999999,
                    "velocity": 0.48031496062992124,
                    "duration": 0.10267846874999975
                },
                {
                    "name": "E3",
                    "midi": 52,
                    "time": 73.28564099999998,
                    "velocity": 0.48031496062992124,
                    "duration": 0.10267846874999975
                },
                {
                    "name": "E4",
                    "midi": 64,
                    "time": 73.28564099999998,
                    "velocity": 0.48031496062992124,
                    "duration": 0.20982121874999393
                },
                {
                    "name": "G5",
                    "midi": 79,
                    "time": 73.28564099999998,
                    "velocity": 0.48031496062992124,
                    "duration": 0.10267846874999975
                },
                {
                    "name": "E5",
                    "midi": 76,
                    "time": 73.28564099999998,
                    "velocity": 0.48031496062992124,
                    "duration": 0.10267846874999975
                },
                {
                    "name": "D#4",
                    "midi": 63,
                    "time": 73.39278374999998,
                    "velocity": 0.48031496062992124,
                    "duration": 0.10267846874999975
                },
                {
                    "name": "D#3",
                    "midi": 51,
                    "time": 73.39278374999998,
                    "velocity": 0.48031496062992124,
                    "duration": 0.10267846874999975
                },
                {
                    "name": "G#5",
                    "midi": 80,
                    "time": 73.39278374999998,
                    "velocity": 0.48031496062992124,
                    "duration": 0.10267846874999975
                },
                {
                    "name": "F5",
                    "midi": 77,
                    "time": 73.39278374999998,
                    "velocity": 0.48031496062992124,
                    "duration": 0.10267846874999975
                },
                {
                    "name": "D4",
                    "midi": 62,
                    "time": 73.49992649999997,
                    "velocity": 0.48031496062992124,
                    "duration": 0.10267846874999975
                },
                {
                    "name": "D3",
                    "midi": 50,
                    "time": 73.49992649999997,
                    "velocity": 0.48031496062992124,
                    "duration": 0.10267846874999975
                },
                {
                    "name": "A5",
                    "midi": 81,
                    "time": 73.49992649999997,
                    "velocity": 0.48031496062992124,
                    "duration": 0.10267846874999975
                },
                {
                    "name": "F#5",
                    "midi": 78,
                    "time": 73.49992649999997,
                    "velocity": 0.48031496062992124,
                    "duration": 0.10267846874999975
                },
                {
                    "name": "E5",
                    "midi": 76,
                    "time": 73.49992649999997,
                    "velocity": 0.48031496062992124,
                    "duration": 0.20982121874999393
                },
                {
                    "name": "C#3",
                    "midi": 49,
                    "time": 73.60706924999997,
                    "velocity": 0.48031496062992124,
                    "duration": 0.10267846874999975
                },
                {
                    "name": "C#4",
                    "midi": 61,
                    "time": 73.60706924999997,
                    "velocity": 0.48031496062992124,
                    "duration": 0.10267846874999975
                },
                {
                    "name": "A#5",
                    "midi": 82,
                    "time": 73.60706924999997,
                    "velocity": 0.48031496062992124,
                    "duration": 0.10267846874999975
                },
                {
                    "name": "G5",
                    "midi": 79,
                    "time": 73.60706924999997,
                    "velocity": 0.48031496062992124,
                    "duration": 0.10267846874999975
                },
                {
                    "name": "C6",
                    "midi": 84,
                    "time": 73.71421199999996,
                    "velocity": 0.48031496062992124,
                    "duration": 0.20982121874999393
                },
                {
                    "name": "G#1",
                    "midi": 32,
                    "time": 73.71421199999996,
                    "velocity": 0.48031496062992124,
                    "duration": 0.10267846874999975
                },
                {
                    "name": "G#2",
                    "midi": 44,
                    "time": 73.71421199999996,
                    "velocity": 0.48031496062992124,
                    "duration": 0.10267846874999975
                },
                {
                    "name": "G5",
                    "midi": 79,
                    "time": 73.71421199999996,
                    "velocity": 0.48031496062992124,
                    "duration": 0.10267846874999975
                },
                {
                    "name": "E5",
                    "midi": 76,
                    "time": 73.71421199999996,
                    "velocity": 0.48031496062992124,
                    "duration": 0.10267846874999975
                },
                {
                    "name": "A2",
                    "midi": 45,
                    "time": 73.82135474999995,
                    "velocity": 0.48031496062992124,
                    "duration": 0.10267846874999975
                },
                {
                    "name": "A1",
                    "midi": 33,
                    "time": 73.82135474999995,
                    "velocity": 0.48031496062992124,
                    "duration": 0.10267846874999975
                },
                {
                    "name": "F#5",
                    "midi": 78,
                    "time": 73.82135474999995,
                    "velocity": 0.48031496062992124,
                    "duration": 0.10267846874999975
                },
                {
                    "name": "D#5",
                    "midi": 75,
                    "time": 73.82135474999995,
                    "velocity": 0.48031496062992124,
                    "duration": 0.10267846874999975
                },
                {
                    "name": "A#1",
                    "midi": 34,
                    "time": 73.92849749999995,
                    "velocity": 0.48031496062992124,
                    "duration": 0.10267846874999975
                },
                {
                    "name": "A#2",
                    "midi": 46,
                    "time": 73.92849749999995,
                    "velocity": 0.48031496062992124,
                    "duration": 0.10267846874999975
                },
                {
                    "name": "F5",
                    "midi": 77,
                    "time": 73.92849749999995,
                    "velocity": 0.48031496062992124,
                    "duration": 0.10267846874999975
                },
                {
                    "name": "D5",
                    "midi": 74,
                    "time": 73.92849749999995,
                    "velocity": 0.48031496062992124,
                    "duration": 0.10267846874999975
                },
                {
                    "name": "C5",
                    "midi": 72,
                    "time": 73.92849749999995,
                    "velocity": 0.48031496062992124,
                    "duration": 0.20982121874999393
                },
                {
                    "name": "B2",
                    "midi": 47,
                    "time": 74.03564024999994,
                    "velocity": 0.48031496062992124,
                    "duration": 0.10267846874999975
                },
                {
                    "name": "B1",
                    "midi": 35,
                    "time": 74.03564024999994,
                    "velocity": 0.48031496062992124,
                    "duration": 0.10267846874999975
                },
                {
                    "name": "C#5",
                    "midi": 73,
                    "time": 74.03564024999994,
                    "velocity": 0.48031496062992124,
                    "duration": 0.10267846874999975
                },
                {
                    "name": "E5",
                    "midi": 76,
                    "time": 74.03564024999994,
                    "velocity": 0.48031496062992124,
                    "duration": 0.10267846874999975
                },
                {
                    "name": "C4",
                    "midi": 60,
                    "time": 74.14278299999994,
                    "velocity": 0.48031496062992124,
                    "duration": 0.20982121874999393
                },
                {
                    "name": "C3",
                    "midi": 48,
                    "time": 74.14278299999994,
                    "velocity": 0.48031496062992124,
                    "duration": 0.10267846874999975
                },
                {
                    "name": "C5",
                    "midi": 72,
                    "time": 74.14278299999994,
                    "velocity": 0.48031496062992124,
                    "duration": 0.10267846874999975
                },
                {
                    "name": "D#5",
                    "midi": 75,
                    "time": 74.14278299999994,
                    "velocity": 0.48031496062992124,
                    "duration": 0.10267846874999975
                },
                {
                    "name": "B2",
                    "midi": 47,
                    "time": 74.24992574999993,
                    "velocity": 0.48031496062992124,
                    "duration": 0.10267846874999975
                },
                {
                    "name": "B3",
                    "midi": 59,
                    "time": 74.24992574999993,
                    "velocity": 0.48031496062992124,
                    "duration": 0.10267846874999975
                },
                {
                    "name": "E5",
                    "midi": 76,
                    "time": 74.24992574999993,
                    "velocity": 0.48031496062992124,
                    "duration": 0.10267846874999975
                },
                {
                    "name": "C#5",
                    "midi": 73,
                    "time": 74.24992574999993,
                    "velocity": 0.48031496062992124,
                    "duration": 0.10267846874999975
                },
                {
                    "name": "A#2",
                    "midi": 46,
                    "time": 74.35706849999993,
                    "velocity": 0.48031496062992124,
                    "duration": 0.10267846874999975
                },
                {
                    "name": "A#3",
                    "midi": 58,
                    "time": 74.35706849999993,
                    "velocity": 0.48031496062992124,
                    "duration": 0.10267846874999975
                },
                {
                    "name": "D5",
                    "midi": 74,
                    "time": 74.35706849999993,
                    "velocity": 0.48031496062992124,
                    "duration": 0.10267846874999975
                },
                {
                    "name": "F5",
                    "midi": 77,
                    "time": 74.35706849999993,
                    "velocity": 0.48031496062992124,
                    "duration": 0.10267846874999975
                },
                {
                    "name": "C5",
                    "midi": 72,
                    "time": 74.35706849999993,
                    "velocity": 0.48031496062992124,
                    "duration": 0.20982121874999393
                },
                {
                    "name": "A3",
                    "midi": 57,
                    "time": 74.46421124999992,
                    "velocity": 0.48031496062992124,
                    "duration": 0.10267846874999975
                },
                {
                    "name": "A2",
                    "midi": 45,
                    "time": 74.46421124999992,
                    "velocity": 0.48031496062992124,
                    "duration": 0.10267846874999975
                },
                {
                    "name": "D#5",
                    "midi": 75,
                    "time": 74.46421124999992,
                    "velocity": 0.48031496062992124,
                    "duration": 0.10267846874999975
                },
                {
                    "name": "F#5",
                    "midi": 78,
                    "time": 74.46421124999992,
                    "velocity": 0.48031496062992124,
                    "duration": 0.10267846874999975
                },
                {
                    "name": "C3",
                    "midi": 48,
                    "time": 74.57135399999991,
                    "velocity": 0.48031496062992124,
                    "duration": 0.10267846874999975
                },
                {
                    "name": "G#2",
                    "midi": 44,
                    "time": 74.57135399999991,
                    "velocity": 0.48031496062992124,
                    "duration": 0.10267846874999975
                },
                {
                    "name": "F#5",
                    "midi": 78,
                    "time": 74.57135399999991,
                    "velocity": 0.48031496062992124,
                    "duration": 0.10267846874999975
                },
                {
                    "name": "C5",
                    "midi": 72,
                    "time": 74.57135399999991,
                    "velocity": 0.48031496062992124,
                    "duration": 0.10267846874999975
                },
                {
                    "name": "B2",
                    "midi": 47,
                    "time": 74.67849674999991,
                    "velocity": 0.48031496062992124,
                    "duration": 0.10267846874999975
                },
                {
                    "name": "G2",
                    "midi": 43,
                    "time": 74.67849674999991,
                    "velocity": 0.48031496062992124,
                    "duration": 0.10267846874999975
                },
                {
                    "name": "G5",
                    "midi": 79,
                    "time": 74.67849674999991,
                    "velocity": 0.48031496062992124,
                    "duration": 0.10267846874999975
                },
                {
                    "name": "F#2",
                    "midi": 42,
                    "time": 74.7856394999999,
                    "velocity": 0.48031496062992124,
                    "duration": 0.10267846874999975
                },
                {
                    "name": "A#2",
                    "midi": 46,
                    "time": 74.7856394999999,
                    "velocity": 0.48031496062992124,
                    "duration": 0.10267846874999975
                },
                {
                    "name": "G#5",
                    "midi": 80,
                    "time": 74.7856394999999,
                    "velocity": 0.48031496062992124,
                    "duration": 0.10267846874999975
                },
                {
                    "name": "C6",
                    "midi": 84,
                    "time": 74.7856394999999,
                    "velocity": 0.48031496062992124,
                    "duration": 0.10267846874999975
                },
                {
                    "name": "A2",
                    "midi": 45,
                    "time": 74.8927822499999,
                    "velocity": 0.48031496062992124,
                    "duration": 0.10267846874999975
                },
                {
                    "name": "F2",
                    "midi": 41,
                    "time": 74.8927822499999,
                    "velocity": 0.48031496062992124,
                    "duration": 0.10267846874999975
                },
                {
                    "name": "G5",
                    "midi": 79,
                    "time": 74.8927822499999,
                    "velocity": 0.48031496062992124,
                    "duration": 0.10267846874999975
                },
                {
                    "name": "G#2",
                    "midi": 44,
                    "time": 74.99992499999989,
                    "velocity": 0.48031496062992124,
                    "duration": 0.10267846874999975
                },
                {
                    "name": "E2",
                    "midi": 40,
                    "time": 74.99992499999989,
                    "velocity": 0.48031496062992124,
                    "duration": 0.10267846874999975
                },
                {
                    "name": "F#6",
                    "midi": 90,
                    "time": 74.99992499999989,
                    "velocity": 0.48031496062992124,
                    "duration": 0.10267846874999975
                },
                {
                    "name": "F#5",
                    "midi": 78,
                    "time": 74.99992499999989,
                    "velocity": 0.48031496062992124,
                    "duration": 0.10267846874999975
                },
                {
                    "name": "C6",
                    "midi": 84,
                    "time": 74.99992499999989,
                    "velocity": 0.48031496062992124,
                    "duration": 0.10267846874999975
                },
                {
                    "name": "D#2",
                    "midi": 39,
                    "time": 75.10706774999989,
                    "velocity": 0.48031496062992124,
                    "duration": 0.10267846874999975
                },
                {
                    "name": "G2",
                    "midi": 43,
                    "time": 75.10706774999989,
                    "velocity": 0.48031496062992124,
                    "duration": 0.10267846874999975
                },
                {
                    "name": "G6",
                    "midi": 91,
                    "time": 75.10706774999989,
                    "velocity": 0.48031496062992124,
                    "duration": 0.10267846874999975
                },
                {
                    "name": "F#2",
                    "midi": 42,
                    "time": 75.21421049999988,
                    "velocity": 0.48031496062992124,
                    "duration": 0.10267846874999975
                },
                {
                    "name": "D2",
                    "midi": 38,
                    "time": 75.21421049999988,
                    "velocity": 0.48031496062992124,
                    "duration": 0.10267846874999975
                },
                {
                    "name": "G#6",
                    "midi": 92,
                    "time": 75.21421049999988,
                    "velocity": 0.48031496062992124,
                    "duration": 0.10267846874999975
                },
                {
                    "name": "C6",
                    "midi": 84,
                    "time": 75.21421049999988,
                    "velocity": 0.48031496062992124,
                    "duration": 0.10267846874999975
                },
                {
                    "name": "C7",
                    "midi": 96,
                    "time": 75.21421049999988,
                    "velocity": 0.48031496062992124,
                    "duration": 0.10267846874999975
                },
                {
                    "name": "C#2",
                    "midi": 37,
                    "time": 75.32135324999987,
                    "velocity": 0.48031496062992124,
                    "duration": 0.10267846874999975
                },
                {
                    "name": "F2",
                    "midi": 41,
                    "time": 75.32135324999987,
                    "velocity": 0.48031496062992124,
                    "duration": 0.10267846874999975
                },
                {
                    "name": "G6",
                    "midi": 91,
                    "time": 75.32135324999987,
                    "velocity": 0.48031496062992124,
                    "duration": 0.10267846874999975
                },
                {
                    "name": "C2",
                    "midi": 36,
                    "time": 75.42849599999987,
                    "velocity": 0.48031496062992124,
                    "duration": 0.20982121874999393
                },
                {
                    "name": "G2",
                    "midi": 43,
                    "time": 75.42849599999987,
                    "velocity": 0.48031496062992124,
                    "duration": 0.10267846874999975
                },
                {
                    "name": "E7",
                    "midi": 100,
                    "time": 75.42849599999987,
                    "velocity": 0.48031496062992124,
                    "duration": 0.20982121874999393
                },
                {
                    "name": "G6",
                    "midi": 91,
                    "time": 75.42849599999987,
                    "velocity": 0.48031496062992124,
                    "duration": 0.10267846874999975
                },
                {
                    "name": "B6",
                    "midi": 95,
                    "time": 75.42849599999987,
                    "velocity": 0.48031496062992124,
                    "duration": 0.10267846874999975
                },
                {
                    "name": "G#2",
                    "midi": 44,
                    "time": 75.53563874999986,
                    "velocity": 0.48031496062992124,
                    "duration": 0.10267846874999975
                },
                {
                    "name": "A#6",
                    "midi": 94,
                    "time": 75.53563874999986,
                    "velocity": 0.48031496062992124,
                    "duration": 0.10267846874999975
                },
                {
                    "name": "F#6",
                    "midi": 90,
                    "time": 75.53563874999986,
                    "velocity": 0.48031496062992124,
                    "duration": 0.10267846874999975
                },
                {
                    "name": "A2",
                    "midi": 45,
                    "time": 75.64278149999986,
                    "velocity": 0.48031496062992124,
                    "duration": 0.10267846874999975
                },
                {
                    "name": "D2",
                    "midi": 38,
                    "time": 75.64278149999986,
                    "velocity": 0.48031496062992124,
                    "duration": 0.20982121874999393
                },
                {
                    "name": "F7",
                    "midi": 101,
                    "time": 75.64278149999986,
                    "velocity": 0.48031496062992124,
                    "duration": 0.20982121874999393
                },
                {
                    "name": "A6",
                    "midi": 93,
                    "time": 75.64278149999986,
                    "velocity": 0.48031496062992124,
                    "duration": 0.10267846874999975
                },
                {
                    "name": "F6",
                    "midi": 89,
                    "time": 75.64278149999986,
                    "velocity": 0.48031496062992124,
                    "duration": 0.10267846874999975
                },
                {
                    "name": "A#2",
                    "midi": 46,
                    "time": 75.74992424999985,
                    "velocity": 0.48031496062992124,
                    "duration": 0.10267846874999975
                },
                {
                    "name": "G#6",
                    "midi": 92,
                    "time": 75.74992424999985,
                    "velocity": 0.48031496062992124,
                    "duration": 0.10267846874999975
                },
                {
                    "name": "E6",
                    "midi": 88,
                    "time": 75.74992424999985,
                    "velocity": 0.48031496062992124,
                    "duration": 0.10267846874999975
                },
                {
                    "name": "B2",
                    "midi": 47,
                    "time": 75.85706699999984,
                    "velocity": 0.48031496062992124,
                    "duration": 0.10267846874999975
                },
                {
                    "name": "E2",
                    "midi": 40,
                    "time": 75.85706699999984,
                    "velocity": 0.48031496062992124,
                    "duration": 0.20982121874999393
                },
                {
                    "name": "D#6",
                    "midi": 87,
                    "time": 75.85706699999984,
                    "velocity": 0.48031496062992124,
                    "duration": 0.10267846874999975
                },
                {
                    "name": "G6",
                    "midi": 91,
                    "time": 75.85706699999984,
                    "velocity": 0.48031496062992124,
                    "duration": 0.10267846874999975
                },
                {
                    "name": "B6",
                    "midi": 95,
                    "time": 75.85706699999984,
                    "velocity": 0.48031496062992124,
                    "duration": 0.20982121874999393
                },
                {
                    "name": "C3",
                    "midi": 48,
                    "time": 75.96420974999984,
                    "velocity": 0.48031496062992124,
                    "duration": 0.10267846874999975
                },
                {
                    "name": "F#6",
                    "midi": 90,
                    "time": 75.96420974999984,
                    "velocity": 0.48031496062992124,
                    "duration": 0.10267846874999975
                },
                {
                    "name": "D6",
                    "midi": 86,
                    "time": 75.96420974999984,
                    "velocity": 0.48031496062992124,
                    "duration": 0.10267846874999975
                },
                {
                    "name": "F2",
                    "midi": 41,
                    "time": 76.07135249999983,
                    "velocity": 0.48031496062992124,
                    "duration": 0.20982121874999393
                },
                {
                    "name": "C#3",
                    "midi": 49,
                    "time": 76.07135249999983,
                    "velocity": 0.48031496062992124,
                    "duration": 0.10267846874999975
                },
                {
                    "name": "C#6",
                    "midi": 85,
                    "time": 76.07135249999983,
                    "velocity": 0.48031496062992124,
                    "duration": 0.10267846874999975
                },
                {
                    "name": "F6",
                    "midi": 89,
                    "time": 76.07135249999983,
                    "velocity": 0.48031496062992124,
                    "duration": 0.10267846874999975
                },
                {
                    "name": "A6",
                    "midi": 93,
                    "time": 76.07135249999983,
                    "velocity": 0.48031496062992124,
                    "duration": 0.10267846874999975
                },
                {
                    "name": "D3",
                    "midi": 50,
                    "time": 76.17849524999983,
                    "velocity": 0.48031496062992124,
                    "duration": 0.10267846874999975
                },
                {
                    "name": "B6",
                    "midi": 95,
                    "time": 76.17849524999983,
                    "velocity": 0.48031496062992124,
                    "duration": 0.10267846874999975
                },
                {
                    "name": "C6",
                    "midi": 84,
                    "time": 76.17849524999983,
                    "velocity": 0.48031496062992124,
                    "duration": 0.10267846874999975
                },
                {
                    "name": "E6",
                    "midi": 88,
                    "time": 76.17849524999983,
                    "velocity": 0.48031496062992124,
                    "duration": 0.10267846874999975
                },
                {
                    "name": "D#3",
                    "midi": 51,
                    "time": 76.28563799999982,
                    "velocity": 0.48031496062992124,
                    "duration": 0.10267846874999975
                },
                {
                    "name": "G2",
                    "midi": 43,
                    "time": 76.28563799999982,
                    "velocity": 0.48031496062992124,
                    "duration": 0.20982121874999393
                },
                {
                    "name": "A6",
                    "midi": 93,
                    "time": 76.28563799999982,
                    "velocity": 0.48031496062992124,
                    "duration": 0.20982121874999393
                },
                {
                    "name": "D#6",
                    "midi": 87,
                    "time": 76.28563799999982,
                    "velocity": 0.48031496062992124,
                    "duration": 0.10267846874999975
                },
                {
                    "name": "B5",
                    "midi": 83,
                    "time": 76.28563799999982,
                    "velocity": 0.48031496062992124,
                    "duration": 0.10267846874999975
                },
                {
                    "name": "E3",
                    "midi": 52,
                    "time": 76.39278074999982,
                    "velocity": 0.48031496062992124,
                    "duration": 0.10267846874999975
                },
                {
                    "name": "A#5",
                    "midi": 82,
                    "time": 76.39278074999982,
                    "velocity": 0.48031496062992124,
                    "duration": 0.10267846874999975
                },
                {
                    "name": "D6",
                    "midi": 86,
                    "time": 76.39278074999982,
                    "velocity": 0.48031496062992124,
                    "duration": 0.10267846874999975
                },
                {
                    "name": "A2",
                    "midi": 45,
                    "time": 76.49992349999981,
                    "velocity": 0.48031496062992124,
                    "duration": 0.20982121874999393
                },
                {
                    "name": "F3",
                    "midi": 53,
                    "time": 76.49992349999981,
                    "velocity": 0.48031496062992124,
                    "duration": 0.10267846874999975
                },
                {
                    "name": "E6",
                    "midi": 88,
                    "time": 76.49992349999981,
                    "velocity": 0.48031496062992124,
                    "duration": 0.20982121874999393
                },
                {
                    "name": "C#6",
                    "midi": 85,
                    "time": 76.49992349999981,
                    "velocity": 0.48031496062992124,
                    "duration": 0.10267846874999975
                },
                {
                    "name": "A5",
                    "midi": 81,
                    "time": 76.49992349999981,
                    "velocity": 0.48031496062992124,
                    "duration": 0.10267846874999975
                },
                {
                    "name": "F#3",
                    "midi": 54,
                    "time": 76.6070662499998,
                    "velocity": 0.48031496062992124,
                    "duration": 0.10267846874999975
                },
                {
                    "name": "G#5",
                    "midi": 80,
                    "time": 76.6070662499998,
                    "velocity": 0.48031496062992124,
                    "duration": 0.10267846874999975
                },
                {
                    "name": "C6",
                    "midi": 84,
                    "time": 76.6070662499998,
                    "velocity": 0.48031496062992124,
                    "duration": 0.10267846874999975
                },
                {
                    "name": "G3",
                    "midi": 55,
                    "time": 76.7142089999998,
                    "velocity": 0.48031496062992124,
                    "duration": 0.10267846874999975
                },
                {
                    "name": "B2",
                    "midi": 47,
                    "time": 76.7142089999998,
                    "velocity": 0.48031496062992124,
                    "duration": 0.20982121874999393
                },
                {
                    "name": "E6",
                    "midi": 88,
                    "time": 76.7142089999998,
                    "velocity": 0.48031496062992124,
                    "duration": 0.20982121874999393
                },
                {
                    "name": "G5",
                    "midi": 79,
                    "time": 76.7142089999998,
                    "velocity": 0.48031496062992124,
                    "duration": 0.10267846874999975
                },
                {
                    "name": "B5",
                    "midi": 83,
                    "time": 76.7142089999998,
                    "velocity": 0.48031496062992124,
                    "duration": 0.10267846874999975
                },
                {
                    "name": "G#3",
                    "midi": 56,
                    "time": 76.82135174999979,
                    "velocity": 0.48031496062992124,
                    "duration": 0.10267846874999975
                },
                {
                    "name": "A#5",
                    "midi": 82,
                    "time": 76.82135174999979,
                    "velocity": 0.48031496062992124,
                    "duration": 0.10267846874999975
                },
                {
                    "name": "F#5",
                    "midi": 78,
                    "time": 76.82135174999979,
                    "velocity": 0.48031496062992124,
                    "duration": 0.10267846874999975
                },
                {
                    "name": "G2",
                    "midi": 43,
                    "time": 76.92849449999979,
                    "velocity": 0.48031496062992124,
                    "duration": 0.20982121874999393
                },
                {
                    "name": "A3",
                    "midi": 57,
                    "time": 76.92849449999979,
                    "velocity": 0.48031496062992124,
                    "duration": 0.10267846874999975
                },
                {
                    "name": "D6",
                    "midi": 86,
                    "time": 76.92849449999979,
                    "velocity": 0.48031496062992124,
                    "duration": 0.20982121874999393
                },
                {
                    "name": "F5",
                    "midi": 77,
                    "time": 76.92849449999979,
                    "velocity": 0.48031496062992124,
                    "duration": 0.10267846874999975
                },
                {
                    "name": "A5",
                    "midi": 81,
                    "time": 76.92849449999979,
                    "velocity": 0.48031496062992124,
                    "duration": 0.10267846874999975
                },
                {
                    "name": "G#3",
                    "midi": 56,
                    "time": 77.03563724999978,
                    "velocity": 0.48031496062992124,
                    "duration": 0.10267846874999975
                },
                {
                    "name": "F#5",
                    "midi": 78,
                    "time": 77.03563724999978,
                    "velocity": 0.48031496062992124,
                    "duration": 0.10267846874999975
                },
                {
                    "name": "A#5",
                    "midi": 82,
                    "time": 77.03563724999978,
                    "velocity": 0.48031496062992124,
                    "duration": 0.10267846874999975
                },
                {
                    "name": "C2",
                    "midi": 36,
                    "time": 77.14277999999977,
                    "velocity": 0.48031496062992124,
                    "duration": 0.20982121874999393
                },
                {
                    "name": "G2",
                    "midi": 43,
                    "time": 77.14277999999977,
                    "velocity": 0.48031496062992124,
                    "duration": 0.10267846874999975
                },
                {
                    "name": "E6",
                    "midi": 88,
                    "time": 77.14277999999977,
                    "velocity": 0.48031496062992124,
                    "duration": 0.10267846874999975
                },
                {
                    "name": "B5",
                    "midi": 83,
                    "time": 77.14277999999977,
                    "velocity": 0.48031496062992124,
                    "duration": 0.10267846874999975
                },
                {
                    "name": "G5",
                    "midi": 79,
                    "time": 77.14277999999977,
                    "velocity": 0.48031496062992124,
                    "duration": 0.10267846874999975
                },
                {
                    "name": "G#2",
                    "midi": 44,
                    "time": 77.24992274999977,
                    "velocity": 0.48031496062992124,
                    "duration": 0.10267846874999975
                },
                {
                    "name": "E6",
                    "midi": 88,
                    "time": 77.24992274999977,
                    "velocity": 0.48031496062992124,
                    "duration": 0.10267846874999975
                },
                {
                    "name": "A#5",
                    "midi": 82,
                    "time": 77.24992274999977,
                    "velocity": 0.48031496062992124,
                    "duration": 0.10267846874999975
                },
                {
                    "name": "F#5",
                    "midi": 78,
                    "time": 77.24992274999977,
                    "velocity": 0.48031496062992124,
                    "duration": 0.10267846874999975
                },
                {
                    "name": "D2",
                    "midi": 38,
                    "time": 77.35706549999976,
                    "velocity": 0.48031496062992124,
                    "duration": 0.20982121874999393
                },
                {
                    "name": "A2",
                    "midi": 45,
                    "time": 77.35706549999976,
                    "velocity": 0.48031496062992124,
                    "duration": 0.10267846874999975
                },
                {
                    "name": "F6",
                    "midi": 89,
                    "time": 77.35706549999976,
                    "velocity": 0.48031496062992124,
                    "duration": 0.10267846874999975
                },
                {
                    "name": "A5",
                    "midi": 81,
                    "time": 77.35706549999976,
                    "velocity": 0.48031496062992124,
                    "duration": 0.10267846874999975
                },
                {
                    "name": "F5",
                    "midi": 77,
                    "time": 77.35706549999976,
                    "velocity": 0.48031496062992124,
                    "duration": 0.10267846874999975
                },
                {
                    "name": "A#2",
                    "midi": 46,
                    "time": 77.46420824999976,
                    "velocity": 0.48031496062992124,
                    "duration": 0.10267846874999975
                },
                {
                    "name": "G#5",
                    "midi": 80,
                    "time": 77.46420824999976,
                    "velocity": 0.48031496062992124,
                    "duration": 0.10267846874999975
                },
                {
                    "name": "F6",
                    "midi": 89,
                    "time": 77.46420824999976,
                    "velocity": 0.48031496062992124,
                    "duration": 0.10267846874999975
                },
                {
                    "name": "E5",
                    "midi": 76,
                    "time": 77.46420824999976,
                    "velocity": 0.48031496062992124,
                    "duration": 0.10267846874999975
                },
                {
                    "name": "E2",
                    "midi": 40,
                    "time": 77.57135099999975,
                    "velocity": 0.48031496062992124,
                    "duration": 0.20982121874999393
                },
                {
                    "name": "B2",
                    "midi": 47,
                    "time": 77.57135099999975,
                    "velocity": 0.48031496062992124,
                    "duration": 0.10267846874999975
                },
                {
                    "name": "D#5",
                    "midi": 75,
                    "time": 77.57135099999975,
                    "velocity": 0.48031496062992124,
                    "duration": 0.10267846874999975
                },
                {
                    "name": "G5",
                    "midi": 79,
                    "time": 77.57135099999975,
                    "velocity": 0.48031496062992124,
                    "duration": 0.10267846874999975
                },
                {
                    "name": "B5",
                    "midi": 83,
                    "time": 77.57135099999975,
                    "velocity": 0.48031496062992124,
                    "duration": 0.10267846874999975
                },
                {
                    "name": "C3",
                    "midi": 48,
                    "time": 77.67849374999975,
                    "velocity": 0.48031496062992124,
                    "duration": 0.10267846874999975
                },
                {
                    "name": "F#5",
                    "midi": 78,
                    "time": 77.67849374999975,
                    "velocity": 0.48031496062992124,
                    "duration": 0.10267846874999975
                },
                {
                    "name": "D5",
                    "midi": 74,
                    "time": 77.67849374999975,
                    "velocity": 0.48031496062992124,
                    "duration": 0.10267846874999975
                },
                {
                    "name": "B5",
                    "midi": 83,
                    "time": 77.67849374999975,
                    "velocity": 0.48031496062992124,
                    "duration": 0.10267846874999975
                },
                {
                    "name": "C#3",
                    "midi": 49,
                    "time": 77.78563649999974,
                    "velocity": 0.48031496062992124,
                    "duration": 0.10267846874999975
                },
                {
                    "name": "F2",
                    "midi": 41,
                    "time": 77.78563649999974,
                    "velocity": 0.48031496062992124,
                    "duration": 0.20982121874999393
                },
                {
                    "name": "C#5",
                    "midi": 73,
                    "time": 77.78563649999974,
                    "velocity": 0.48031496062992124,
                    "duration": 0.10267846874999975
                },
                {
                    "name": "F5",
                    "midi": 77,
                    "time": 77.78563649999974,
                    "velocity": 0.48031496062992124,
                    "duration": 0.10267846874999975
                },
                {
                    "name": "A5",
                    "midi": 81,
                    "time": 77.78563649999974,
                    "velocity": 0.48031496062992124,
                    "duration": 0.10267846874999975
                },
                {
                    "name": "D3",
                    "midi": 50,
                    "time": 77.89277924999973,
                    "velocity": 0.48031496062992124,
                    "duration": 0.10267846874999975
                },
                {
                    "name": "B5",
                    "midi": 83,
                    "time": 77.89277924999973,
                    "velocity": 0.48031496062992124,
                    "duration": 0.10267846874999975
                },
                {
                    "name": "E5",
                    "midi": 76,
                    "time": 77.89277924999973,
                    "velocity": 0.48031496062992124,
                    "duration": 0.10267846874999975
                },
                {
                    "name": "C5",
                    "midi": 72,
                    "time": 77.89277924999973,
                    "velocity": 0.48031496062992124,
                    "duration": 0.10267846874999975
                },
                {
                    "name": "G2",
                    "midi": 43,
                    "time": 77.99992199999973,
                    "velocity": 0.48031496062992124,
                    "duration": 0.20982121874999393
                },
                {
                    "name": "D#3",
                    "midi": 51,
                    "time": 77.99992199999973,
                    "velocity": 0.48031496062992124,
                    "duration": 0.10267846874999975
                },
                {
                    "name": "A5",
                    "midi": 81,
                    "time": 77.99992199999973,
                    "velocity": 0.48031496062992124,
                    "duration": 0.10267846874999975
                },
                {
                    "name": "D#5",
                    "midi": 75,
                    "time": 77.99992199999973,
                    "velocity": 0.48031496062992124,
                    "duration": 0.10267846874999975
                },
                {
                    "name": "B4",
                    "midi": 71,
                    "time": 77.99992199999973,
                    "velocity": 0.48031496062992124,
                    "duration": 0.10267846874999975
                },
                {
                    "name": "E3",
                    "midi": 52,
                    "time": 78.10706474999972,
                    "velocity": 0.48031496062992124,
                    "duration": 0.10267846874999975
                },
                {
                    "name": "A5",
                    "midi": 81,
                    "time": 78.10706474999972,
                    "velocity": 0.48031496062992124,
                    "duration": 0.10267846874999975
                },
                {
                    "name": "A#4",
                    "midi": 70,
                    "time": 78.10706474999972,
                    "velocity": 0.48031496062992124,
                    "duration": 0.10267846874999975
                },
                {
                    "name": "D5",
                    "midi": 74,
                    "time": 78.10706474999972,
                    "velocity": 0.48031496062992124,
                    "duration": 0.10267846874999975
                },
                {
                    "name": "A2",
                    "midi": 45,
                    "time": 78.21420749999972,
                    "velocity": 0.48031496062992124,
                    "duration": 0.20982121874999393
                },
                {
                    "name": "F3",
                    "midi": 53,
                    "time": 78.21420749999972,
                    "velocity": 0.48031496062992124,
                    "duration": 0.10267846874999975
                },
                {
                    "name": "E5",
                    "midi": 76,
                    "time": 78.21420749999972,
                    "velocity": 0.48031496062992124,
                    "duration": 0.10267846874999975
                },
                {
                    "name": "C#5",
                    "midi": 73,
                    "time": 78.21420749999972,
                    "velocity": 0.48031496062992124,
                    "duration": 0.10267846874999975
                },
                {
                    "name": "A4",
                    "midi": 69,
                    "time": 78.21420749999972,
                    "velocity": 0.48031496062992124,
                    "duration": 0.10267846874999975
                },
                {
                    "name": "F#3",
                    "midi": 54,
                    "time": 78.32135024999971,
                    "velocity": 0.48031496062992124,
                    "duration": 0.10267846874999975
                },
                {
                    "name": "G#4",
                    "midi": 68,
                    "time": 78.32135024999971,
                    "velocity": 0.48031496062992124,
                    "duration": 0.10267846874999975
                },
                {
                    "name": "C5",
                    "midi": 72,
                    "time": 78.32135024999971,
                    "velocity": 0.48031496062992124,
                    "duration": 0.10267846874999975
                },
                {
                    "name": "E5",
                    "midi": 76,
                    "time": 78.32135024999971,
                    "velocity": 0.48031496062992124,
                    "duration": 0.10267846874999975
                },
                {
                    "name": "G3",
                    "midi": 55,
                    "time": 78.4284929999997,
                    "velocity": 0.48031496062992124,
                    "duration": 0.10267846874999975
                },
                {
                    "name": "B2",
                    "midi": 47,
                    "time": 78.4284929999997,
                    "velocity": 0.48031496062992124,
                    "duration": 0.20982121874999393
                },
                {
                    "name": "E5",
                    "midi": 76,
                    "time": 78.4284929999997,
                    "velocity": 0.48031496062992124,
                    "duration": 0.10267846874999975
                },
                {
                    "name": "G4",
                    "midi": 67,
                    "time": 78.4284929999997,
                    "velocity": 0.48031496062992124,
                    "duration": 0.10267846874999975
                },
                {
                    "name": "B4",
                    "midi": 71,
                    "time": 78.4284929999997,
                    "velocity": 0.48031496062992124,
                    "duration": 0.10267846874999975
                },
                {
                    "name": "G#3",
                    "midi": 56,
                    "time": 78.5356357499997,
                    "velocity": 0.48031496062992124,
                    "duration": 0.10267846874999975
                },
                {
                    "name": "E5",
                    "midi": 76,
                    "time": 78.5356357499997,
                    "velocity": 0.48031496062992124,
                    "duration": 0.10267846874999975
                },
                {
                    "name": "F#4",
                    "midi": 66,
                    "time": 78.5356357499997,
                    "velocity": 0.48031496062992124,
                    "duration": 0.10267846874999975
                },
                {
                    "name": "A#4",
                    "midi": 70,
                    "time": 78.5356357499997,
                    "velocity": 0.48031496062992124,
                    "duration": 0.10267846874999975
                },
                {
                    "name": "D5",
                    "midi": 74,
                    "time": 78.6427784999997,
                    "velocity": 0.48031496062992124,
                    "duration": 0.10267846874999975
                },
                {
                    "name": "G2",
                    "midi": 43,
                    "time": 78.6427784999997,
                    "velocity": 0.48031496062992124,
                    "duration": 0.20982121874999393
                },
                {
                    "name": "A3",
                    "midi": 57,
                    "time": 78.6427784999997,
                    "velocity": 0.48031496062992124,
                    "duration": 0.10267846874999975
                },
                {
                    "name": "A4",
                    "midi": 69,
                    "time": 78.6427784999997,
                    "velocity": 0.48031496062992124,
                    "duration": 0.10267846874999975
                },
                {
                    "name": "F4",
                    "midi": 65,
                    "time": 78.6427784999997,
                    "velocity": 0.48031496062992124,
                    "duration": 0.10267846874999975
                },
                {
                    "name": "D5",
                    "midi": 74,
                    "time": 78.74992124999969,
                    "velocity": 0.48031496062992124,
                    "duration": 0.10267846874999975
                },
                {
                    "name": "G#3",
                    "midi": 56,
                    "time": 78.74992124999969,
                    "velocity": 0.48031496062992124,
                    "duration": 0.10267846874999975
                },
                {
                    "name": "F#4",
                    "midi": 66,
                    "time": 78.74992124999969,
                    "velocity": 0.48031496062992124,
                    "duration": 0.10267846874999975
                },
                {
                    "name": "A#4",
                    "midi": 70,
                    "time": 78.74992124999969,
                    "velocity": 0.48031496062992124,
                    "duration": 0.10267846874999975
                },
                {
                    "name": "C2",
                    "midi": 36,
                    "time": 78.85706399999968,
                    "velocity": 0.48031496062992124,
                    "duration": 0.20982121874999393
                },
                {
                    "name": "G2",
                    "midi": 43,
                    "time": 78.85706399999968,
                    "velocity": 0.48031496062992124,
                    "duration": 0.10267846874999975
                },
                {
                    "name": "E5",
                    "midi": 76,
                    "time": 78.85706399999968,
                    "velocity": 0.48031496062992124,
                    "duration": 0.20982121874999393
                },
                {
                    "name": "G4",
                    "midi": 67,
                    "time": 78.85706399999968,
                    "velocity": 0.48031496062992124,
                    "duration": 0.10267846874999975
                },
                {
                    "name": "B4",
                    "midi": 71,
                    "time": 78.85706399999968,
                    "velocity": 0.48031496062992124,
                    "duration": 0.10267846874999975
                },
                {
                    "name": "G#2",
                    "midi": 44,
                    "time": 78.96420674999968,
                    "velocity": 0.48031496062992124,
                    "duration": 0.10267846874999975
                },
                {
                    "name": "F#4",
                    "midi": 66,
                    "time": 78.96420674999968,
                    "velocity": 0.48031496062992124,
                    "duration": 0.10267846874999975
                },
                {
                    "name": "A#4",
                    "midi": 70,
                    "time": 78.96420674999968,
                    "velocity": 0.48031496062992124,
                    "duration": 0.10267846874999975
                },
                {
                    "name": "D2",
                    "midi": 38,
                    "time": 79.07134949999967,
                    "velocity": 0.48031496062992124,
                    "duration": 0.20982121874999393
                },
                {
                    "name": "A2",
                    "midi": 45,
                    "time": 79.07134949999967,
                    "velocity": 0.48031496062992124,
                    "duration": 0.10267846874999975
                },
                {
                    "name": "F5",
                    "midi": 77,
                    "time": 79.07134949999967,
                    "velocity": 0.48031496062992124,
                    "duration": 0.20982121874999393
                },
                {
                    "name": "A4",
                    "midi": 69,
                    "time": 79.07134949999967,
                    "velocity": 0.48031496062992124,
                    "duration": 0.10267846874999975
                },
                {
                    "name": "F4",
                    "midi": 65,
                    "time": 79.07134949999967,
                    "velocity": 0.48031496062992124,
                    "duration": 0.10267846874999975
                },
                {
                    "name": "A#2",
                    "midi": 46,
                    "time": 79.17849224999966,
                    "velocity": 0.48031496062992124,
                    "duration": 0.10267846874999975
                },
                {
                    "name": "G#4",
                    "midi": 68,
                    "time": 79.17849224999966,
                    "velocity": 0.48031496062992124,
                    "duration": 0.10267846874999975
                },
                {
                    "name": "E4",
                    "midi": 64,
                    "time": 79.17849224999966,
                    "velocity": 0.48031496062992124,
                    "duration": 0.10267846874999975
                },
                {
                    "name": "E2",
                    "midi": 40,
                    "time": 79.28563499999966,
                    "velocity": 0.48031496062992124,
                    "duration": 0.20982121874999393
                },
                {
                    "name": "B2",
                    "midi": 47,
                    "time": 79.28563499999966,
                    "velocity": 0.48031496062992124,
                    "duration": 0.10267846874999975
                },
                {
                    "name": "D#4",
                    "midi": 63,
                    "time": 79.28563499999966,
                    "velocity": 0.48031496062992124,
                    "duration": 0.10267846874999975
                },
                {
                    "name": "B4",
                    "midi": 71,
                    "time": 79.28563499999966,
                    "velocity": 0.48031496062992124,
                    "duration": 0.20982121874999393
                },
                {
                    "name": "G4",
                    "midi": 67,
                    "time": 79.28563499999966,
                    "velocity": 0.48031496062992124,
                    "duration": 0.10267846874999975
                },
                {
                    "name": "C3",
                    "midi": 48,
                    "time": 79.39277774999965,
                    "velocity": 0.48031496062992124,
                    "duration": 0.10267846874999975
                },
                {
                    "name": "F#4",
                    "midi": 66,
                    "time": 79.39277774999965,
                    "velocity": 0.48031496062992124,
                    "duration": 0.10267846874999975
                },
                {
                    "name": "D4",
                    "midi": 62,
                    "time": 79.39277774999965,
                    "velocity": 0.48031496062992124,
                    "duration": 0.10267846874999975
                },
                {
                    "name": "F2",
                    "midi": 41,
                    "time": 79.49992049999965,
                    "velocity": 0.48031496062992124,
                    "duration": 0.20982121874999393
                },
                {
                    "name": "C#3",
                    "midi": 49,
                    "time": 79.49992049999965,
                    "velocity": 0.48031496062992124,
                    "duration": 0.10267846874999975
                },
                {
                    "name": "C#4",
                    "midi": 61,
                    "time": 79.49992049999965,
                    "velocity": 0.48031496062992124,
                    "duration": 0.10267846874999975
                },
                {
                    "name": "F4",
                    "midi": 65,
                    "time": 79.49992049999965,
                    "velocity": 0.48031496062992124,
                    "duration": 0.10267846874999975
                },
                {
                    "name": "A4",
                    "midi": 69,
                    "time": 79.49992049999965,
                    "velocity": 0.48031496062992124,
                    "duration": 0.10267846874999975
                },
                {
                    "name": "D3",
                    "midi": 50,
                    "time": 79.60706324999964,
                    "velocity": 0.48031496062992124,
                    "duration": 0.10267846874999975
                },
                {
                    "name": "B4",
                    "midi": 71,
                    "time": 79.60706324999964,
                    "velocity": 0.48031496062992124,
                    "duration": 0.10267846874999975
                },
                {
                    "name": "C4",
                    "midi": 60,
                    "time": 79.60706324999964,
                    "velocity": 0.48031496062992124,
                    "duration": 0.10267846874999975
                },
                {
                    "name": "E4",
                    "midi": 64,
                    "time": 79.60706324999964,
                    "velocity": 0.48031496062992124,
                    "duration": 0.10267846874999975
                },
                {
                    "name": "G2",
                    "midi": 43,
                    "time": 79.71420599999963,
                    "velocity": 0.48031496062992124,
                    "duration": 0.20982121874999393
                },
                {
                    "name": "D#3",
                    "midi": 51,
                    "time": 79.71420599999963,
                    "velocity": 0.48031496062992124,
                    "duration": 0.10267846874999975
                },
                {
                    "name": "A4",
                    "midi": 69,
                    "time": 79.71420599999963,
                    "velocity": 0.48031496062992124,
                    "duration": 0.20982121874999393
                },
                {
                    "name": "B3",
                    "midi": 59,
                    "time": 79.71420599999963,
                    "velocity": 0.48031496062992124,
                    "duration": 0.10267846874999975
                },
                {
                    "name": "D#4",
                    "midi": 63,
                    "time": 79.71420599999963,
                    "velocity": 0.48031496062992124,
                    "duration": 0.10267846874999975
                },
                {
                    "name": "E3",
                    "midi": 52,
                    "time": 79.82134874999963,
                    "velocity": 0.48031496062992124,
                    "duration": 0.10267846874999975
                },
                {
                    "name": "A#3",
                    "midi": 58,
                    "time": 79.82134874999963,
                    "velocity": 0.48031496062992124,
                    "duration": 0.10267846874999975
                },
                {
                    "name": "D4",
                    "midi": 62,
                    "time": 79.82134874999963,
                    "velocity": 0.48031496062992124,
                    "duration": 0.10267846874999975
                },
                {
                    "name": "A2",
                    "midi": 45,
                    "time": 79.92849149999962,
                    "velocity": 0.48031496062992124,
                    "duration": 0.20982121874999393
                },
                {
                    "name": "F3",
                    "midi": 53,
                    "time": 79.92849149999962,
                    "velocity": 0.48031496062992124,
                    "duration": 0.10267846874999975
                },
                {
                    "name": "C#4",
                    "midi": 61,
                    "time": 79.92849149999962,
                    "velocity": 0.48031496062992124,
                    "duration": 0.10267846874999975
                },
                {
                    "name": "A3",
                    "midi": 57,
                    "time": 79.92849149999962,
                    "velocity": 0.48031496062992124,
                    "duration": 0.10267846874999975
                },
                {
                    "name": "E4",
                    "midi": 64,
                    "time": 79.92849149999962,
                    "velocity": 0.48031496062992124,
                    "duration": 0.20982121874999393
                },
                {
                    "name": "F#3",
                    "midi": 54,
                    "time": 80.03563424999962,
                    "velocity": 0.48031496062992124,
                    "duration": 0.10267846874999975
                },
                {
                    "name": "G#3",
                    "midi": 56,
                    "time": 80.03563424999962,
                    "velocity": 0.48031496062992124,
                    "duration": 0.10267846874999975
                },
                {
                    "name": "C4",
                    "midi": 60,
                    "time": 80.03563424999962,
                    "velocity": 0.48031496062992124,
                    "duration": 0.10267846874999975
                },
                {
                    "name": "B2",
                    "midi": 47,
                    "time": 80.14277699999961,
                    "velocity": 0.48031496062992124,
                    "duration": 0.20982121874999393
                },
                {
                    "name": "G3",
                    "midi": 55,
                    "time": 80.14277699999961,
                    "velocity": 0.48031496062992124,
                    "duration": 0.0022321406249972142
                },
                {
                    "name": "E4",
                    "midi": 64,
                    "time": 80.14277699999961,
                    "velocity": 0.48031496062992124,
                    "duration": 0.20982121874999393
                },
                {
                    "name": "G3",
                    "midi": 55,
                    "time": 80.14277699999961,
                    "velocity": 0.48031496062992124,
                    "duration": 0.0044642812499944284
                },
                {
                    "name": "B3",
                    "midi": 59,
                    "time": 80.14277699999961,
                    "velocity": 0.48031496062992124,
                    "duration": 0.10267846874999975
                },
                {
                    "name": "F#3",
                    "midi": 54,
                    "time": 80.2499197499996,
                    "velocity": 0.48031496062992124,
                    "duration": 0.0022321406249972142
                },
                {
                    "name": "F#3",
                    "midi": 54,
                    "time": 80.2499197499996,
                    "velocity": 0.48031496062992124,
                    "duration": 0.0044642812499944284
                },
                {
                    "name": "A#3",
                    "midi": 58,
                    "time": 80.2499197499996,
                    "velocity": 0.48031496062992124,
                    "duration": 0.10267846874999975
                },
                {
                    "name": "G2",
                    "midi": 43,
                    "time": 80.3570624999996,
                    "velocity": 0.48031496062992124,
                    "duration": 0.20982121874999393
                },
                {
                    "name": "F3",
                    "midi": 53,
                    "time": 80.3570624999996,
                    "velocity": 0.48031496062992124,
                    "duration": 0.10267846874999975
                },
                {
                    "name": "D4",
                    "midi": 62,
                    "time": 80.3570624999996,
                    "velocity": 0.48031496062992124,
                    "duration": 0.20982121874999393
                },
                {
                    "name": "A3",
                    "midi": 57,
                    "time": 80.3570624999996,
                    "velocity": 0.48031496062992124,
                    "duration": 0.10267846874999975
                },
                {
                    "name": "F#3",
                    "midi": 54,
                    "time": 80.4642052499996,
                    "velocity": 0.48031496062992124,
                    "duration": 0.10267846874999975
                },
                {
                    "name": "G#3",
                    "midi": 56,
                    "time": 80.4642052499996,
                    "velocity": 0.48031496062992124,
                    "duration": 0.10267846874999975
                },
                {
                    "name": "A#3",
                    "midi": 58,
                    "time": 80.4642052499996,
                    "velocity": 0.48031496062992124,
                    "duration": 0.10267846874999975
                },
                {
                    "name": "C2",
                    "midi": 36,
                    "time": 80.57134799999959,
                    "velocity": 0.48031496062992124,
                    "duration": 0.10267846874999975
                },
                {
                    "name": "G2",
                    "midi": 43,
                    "time": 80.57134799999959,
                    "velocity": 0.48031496062992124,
                    "duration": 0.10267846874999975
                },
                {
                    "name": "E4",
                    "midi": 64,
                    "time": 80.57134799999959,
                    "velocity": 0.48031496062992124,
                    "duration": 0.10267846874999975
                },
                {
                    "name": "B3",
                    "midi": 59,
                    "time": 80.57134799999959,
                    "velocity": 0.48031496062992124,
                    "duration": 0.10267846874999975
                },
                {
                    "name": "G3",
                    "midi": 55,
                    "time": 80.57134799999959,
                    "velocity": 0.48031496062992124,
                    "duration": 0.10267846874999975
                },
                {
                    "name": "G#2",
                    "midi": 44,
                    "time": 80.67849074999958,
                    "velocity": 0.48031496062992124,
                    "duration": 0.10267846874999975
                },
                {
                    "name": "F#3",
                    "midi": 54,
                    "time": 80.67849074999958,
                    "velocity": 0.48031496062992124,
                    "duration": 0.10267846874999975
                },
                {
                    "name": "A#3",
                    "midi": 58,
                    "time": 80.67849074999958,
                    "velocity": 0.48031496062992124,
                    "duration": 0.10267846874999975
                },
                {
                    "name": "C3",
                    "midi": 48,
                    "time": 80.78563349999958,
                    "velocity": 0.48031496062992124,
                    "duration": 0.10267846874999975
                },
                {
                    "name": "C#3",
                    "midi": 49,
                    "time": 80.78563349999958,
                    "velocity": 0.48031496062992124,
                    "duration": 0.10267846874999975
                },
                {
                    "name": "F3",
                    "midi": 53,
                    "time": 80.78563349999958,
                    "velocity": 0.48031496062992124,
                    "duration": 0.10267846874999975
                },
                {
                    "name": "B2",
                    "midi": 47,
                    "time": 80.89277624999957,
                    "velocity": 0.48031496062992124,
                    "duration": 0.10267846874999975
                },
                {
                    "name": "D3",
                    "midi": 50,
                    "time": 80.89277624999957,
                    "velocity": 0.48031496062992124,
                    "duration": 0.10267846874999975
                },
                {
                    "name": "F#3",
                    "midi": 54,
                    "time": 80.89277624999957,
                    "velocity": 0.48031496062992124,
                    "duration": 0.10267846874999975
                },
                {
                    "name": "F2",
                    "midi": 41,
                    "time": 80.99991899999957,
                    "velocity": 0.48031496062992124,
                    "duration": 0.10267846874999975
                },
                {
                    "name": "C2",
                    "midi": 36,
                    "time": 80.99991899999957,
                    "velocity": 0.48031496062992124,
                    "duration": 0.10267846874999975
                },
                {
                    "name": "F4",
                    "midi": 65,
                    "time": 80.99991899999957,
                    "velocity": 0.48031496062992124,
                    "duration": 0.10267846874999975
                },
                {
                    "name": "C4",
                    "midi": 60,
                    "time": 80.99991899999957,
                    "velocity": 0.48031496062992124,
                    "duration": 0.10267846874999975
                },
                {
                    "name": "A3",
                    "midi": 57,
                    "time": 80.99991899999957,
                    "velocity": 0.48031496062992124,
                    "duration": 0.10267846874999975
                },
                {
                    "name": "B2",
                    "midi": 47,
                    "time": 81.10706174999956,
                    "velocity": 0.48031496062992124,
                    "duration": 0.10267846874999975
                },
                {
                    "name": "G#3",
                    "midi": 56,
                    "time": 81.10706174999956,
                    "velocity": 0.48031496062992124,
                    "duration": 0.10267846874999975
                },
                {
                    "name": "B3",
                    "midi": 59,
                    "time": 81.10706174999956,
                    "velocity": 0.48031496062992124,
                    "duration": 0.10267846874999975
                },
                {
                    "name": "C3",
                    "midi": 48,
                    "time": 81.21420449999955,
                    "velocity": 0.48031496062992124,
                    "duration": 0.10267846874999975
                },
                {
                    "name": "C#3",
                    "midi": 49,
                    "time": 81.21420449999955,
                    "velocity": 0.48031496062992124,
                    "duration": 0.10267846874999975
                },
                {
                    "name": "F3",
                    "midi": 53,
                    "time": 81.21420449999955,
                    "velocity": 0.48031496062992124,
                    "duration": 0.10267846874999975
                },
                {
                    "name": "B2",
                    "midi": 47,
                    "time": 81.32134724999955,
                    "velocity": 0.48031496062992124,
                    "duration": 0.10267846874999975
                },
                {
                    "name": "D3",
                    "midi": 50,
                    "time": 81.32134724999955,
                    "velocity": 0.48031496062992124,
                    "duration": 0.10267846874999975
                },
                {
                    "name": "F#3",
                    "midi": 54,
                    "time": 81.32134724999955,
                    "velocity": 0.48031496062992124,
                    "duration": 0.10267846874999975
                },
                {
                    "name": "C2",
                    "midi": 36,
                    "time": 81.42848999999954,
                    "velocity": 0.48031496062992124,
                    "duration": 0.10267846874999975
                },
                {
                    "name": "G2",
                    "midi": 43,
                    "time": 81.42848999999954,
                    "velocity": 0.48031496062992124,
                    "duration": 0.10267846874999975
                },
                {
                    "name": "E4",
                    "midi": 64,
                    "time": 81.42848999999954,
                    "velocity": 0.48031496062992124,
                    "duration": 0.10267846874999975
                },
                {
                    "name": "G3",
                    "midi": 55,
                    "time": 81.42848999999954,
                    "velocity": 0.48031496062992124,
                    "duration": 0.10267846874999975
                },
                {
                    "name": "B3",
                    "midi": 59,
                    "time": 81.42848999999954,
                    "velocity": 0.48031496062992124,
                    "duration": 0.10267846874999975
                },
                {
                    "name": "G#2",
                    "midi": 44,
                    "time": 81.53563274999954,
                    "velocity": 0.48031496062992124,
                    "duration": 0.10267846874999975
                },
                {
                    "name": "A#3",
                    "midi": 58,
                    "time": 81.53563274999954,
                    "velocity": 0.48031496062992124,
                    "duration": 0.10267846874999975
                },
                {
                    "name": "F#3",
                    "midi": 54,
                    "time": 81.53563274999954,
                    "velocity": 0.48031496062992124,
                    "duration": 0.10267846874999975
                },
                {
                    "name": "C3",
                    "midi": 48,
                    "time": 81.64277549999953,
                    "velocity": 0.48031496062992124,
                    "duration": 0.10267846874999975
                },
                {
                    "name": "C#3",
                    "midi": 49,
                    "time": 81.64277549999953,
                    "velocity": 0.48031496062992124,
                    "duration": 0.10267846874999975
                },
                {
                    "name": "F3",
                    "midi": 53,
                    "time": 81.64277549999953,
                    "velocity": 0.48031496062992124,
                    "duration": 0.10267846874999975
                },
                {
                    "name": "B2",
                    "midi": 47,
                    "time": 81.74991824999952,
                    "velocity": 0.48031496062992124,
                    "duration": 0.10267846874999975
                },
                {
                    "name": "F#3",
                    "midi": 54,
                    "time": 81.74991824999952,
                    "velocity": 0.48031496062992124,
                    "duration": 0.10267846874999975
                },
                {
                    "name": "D3",
                    "midi": 50,
                    "time": 81.74991824999952,
                    "velocity": 0.48031496062992124,
                    "duration": 0.10267846874999975
                },
                {
                    "name": "C2",
                    "midi": 36,
                    "time": 81.85706099999952,
                    "velocity": 0.48031496062992124,
                    "duration": 0.10267846874999975
                },
                {
                    "name": "G2",
                    "midi": 43,
                    "time": 81.85706099999952,
                    "velocity": 0.48031496062992124,
                    "duration": 0.10267846874999975
                },
                {
                    "name": "E4",
                    "midi": 64,
                    "time": 81.85706099999952,
                    "velocity": 0.48031496062992124,
                    "duration": 0.10267846874999975
                },
                {
                    "name": "G3",
                    "midi": 55,
                    "time": 81.85706099999952,
                    "velocity": 0.48031496062992124,
                    "duration": 0.10267846874999975
                },
                {
                    "name": "B3",
                    "midi": 59,
                    "time": 81.85706099999952,
                    "velocity": 0.48031496062992124,
                    "duration": 0.10267846874999975
                },
                {
                    "name": "G#2",
                    "midi": 44,
                    "time": 81.96420374999951,
                    "velocity": 0.48031496062992124,
                    "duration": 0.10267846874999975
                },
                {
                    "name": "A#3",
                    "midi": 58,
                    "time": 81.96420374999951,
                    "velocity": 0.48031496062992124,
                    "duration": 0.10267846874999975
                },
                {
                    "name": "F#3",
                    "midi": 54,
                    "time": 81.96420374999951,
                    "velocity": 0.48031496062992124,
                    "duration": 0.10267846874999975
                },
                {
                    "name": "G2",
                    "midi": 43,
                    "time": 94.07133449999951,
                    "velocity": 0.48031496062992124,
                    "duration": 0.10267846874999975
                },
                {
                    "name": "A#2",
                    "midi": 46,
                    "time": 94.1784772499995,
                    "velocity": 0.48031496062992124,
                    "duration": 0.10267846874999975
                },
                {
                    "name": "D3",
                    "midi": 50,
                    "time": 94.2856199999995,
                    "velocity": 0.48031496062992124,
                    "duration": 0.10267846874999975
                },
                {
                    "name": "D3",
                    "midi": 50,
                    "time": 94.39276274999949,
                    "velocity": 0.48031496062992124,
                    "duration": 0.10267846874999975
                },
                {
                    "name": "A#2",
                    "midi": 46,
                    "time": 94.49990549999949,
                    "velocity": 0.48031496062992124,
                    "duration": 0.10267846874999975
                },
                {
                    "name": "D3",
                    "midi": 50,
                    "time": 94.60704824999948,
                    "velocity": 0.48031496062992124,
                    "duration": 0.10267846874999975
                },
                {
                    "name": "G2",
                    "midi": 43,
                    "time": 94.71419099999947,
                    "velocity": 0.48031496062992124,
                    "duration": 0.10267846874999975
                },
                {
                    "name": "G2",
                    "midi": 43,
                    "time": 94.82133374999947,
                    "velocity": 0.48031496062992124,
                    "duration": 0.10267846874999975
                },
                {
                    "name": "B3",
                    "midi": 59,
                    "time": 94.92847649999946,
                    "velocity": 0.48031496062992124,
                    "duration": 0.10267846874999975
                },
                {
                    "name": "D4",
                    "midi": 62,
                    "time": 95.03561924999946,
                    "velocity": 0.48031496062992124,
                    "duration": 0.10267846874999975
                },
                {
                    "name": "F#4",
                    "midi": 66,
                    "time": 95.14276199999945,
                    "velocity": 0.48031496062992124,
                    "duration": 0.10267846874999975
                },
                {
                    "name": "F#4",
                    "midi": 66,
                    "time": 95.24990474999944,
                    "velocity": 0.48031496062992124,
                    "duration": 0.10267846874999975
                },
                {
                    "name": "D4",
                    "midi": 62,
                    "time": 95.35704749999944,
                    "velocity": 0.48031496062992124,
                    "duration": 0.10267846874999975
                },
                {
                    "name": "F#4",
                    "midi": 66,
                    "time": 95.46419024999943,
                    "velocity": 0.48031496062992124,
                    "duration": 0.10267846874999975
                },
                {
                    "name": "B3",
                    "midi": 59,
                    "time": 95.57133299999943,
                    "velocity": 0.48031496062992124,
                    "duration": 0.10267846874999975
                },
                {
                    "name": "B3",
                    "midi": 59,
                    "time": 95.67847574999942,
                    "velocity": 0.48031496062992124,
                    "duration": 0.10267846874999975
                },
                {
                    "name": "G3",
                    "midi": 55,
                    "time": 95.78561849999942,
                    "velocity": 0.48031496062992124,
                    "duration": 0.10267846874999975
                },
                {
                    "name": "A#3",
                    "midi": 58,
                    "time": 95.89276124999941,
                    "velocity": 0.48031496062992124,
                    "duration": 0.10267846874999975
                },
                {
                    "name": "D4",
                    "midi": 62,
                    "time": 95.9999039999994,
                    "velocity": 0.48031496062992124,
                    "duration": 0.10267846874999975
                },
                {
                    "name": "D4",
                    "midi": 62,
                    "time": 96.1070467499994,
                    "velocity": 0.48031496062992124,
                    "duration": 0.10267846874999975
                },
                {
                    "name": "A#3",
                    "midi": 58,
                    "time": 96.21418949999939,
                    "velocity": 0.48031496062992124,
                    "duration": 0.10267846874999975
                },
                {
                    "name": "D4",
                    "midi": 62,
                    "time": 96.32133224999939,
                    "velocity": 0.48031496062992124,
                    "duration": 0.10267846874999975
                },
                {
                    "name": "G3",
                    "midi": 55,
                    "time": 96.42847499999938,
                    "velocity": 0.48031496062992124,
                    "duration": 0.10267846874999975
                },
                {
                    "name": "G3",
                    "midi": 55,
                    "time": 96.53561774999937,
                    "velocity": 0.48031496062992124,
                    "duration": 0.10267846874999975
                },
                {
                    "name": "D#3",
                    "midi": 51,
                    "time": 96.64276049999937,
                    "velocity": 0.48031496062992124,
                    "duration": 0.10267846874999975
                },
                {
                    "name": "F#3",
                    "midi": 54,
                    "time": 96.74990324999936,
                    "velocity": 0.48031496062992124,
                    "duration": 0.10267846874999975
                },
                {
                    "name": "A#3",
                    "midi": 58,
                    "time": 96.85704599999936,
                    "velocity": 0.48031496062992124,
                    "duration": 0.10267846874999975
                },
                {
                    "name": "A#3",
                    "midi": 58,
                    "time": 96.96418874999935,
                    "velocity": 0.48031496062992124,
                    "duration": 0.10267846874999975
                },
                {
                    "name": "F#3",
                    "midi": 54,
                    "time": 97.07133149999935,
                    "velocity": 0.48031496062992124,
                    "duration": 0.10267846874999975
                },
                {
                    "name": "A#3",
                    "midi": 58,
                    "time": 97.17847424999934,
                    "velocity": 0.48031496062992124,
                    "duration": 0.10267846874999975
                },
                {
                    "name": "D#3",
                    "midi": 51,
                    "time": 97.28561699999933,
                    "velocity": 0.48031496062992124,
                    "duration": 0.10267846874999975
                },
                {
                    "name": "D#3",
                    "midi": 51,
                    "time": 97.39275974999933,
                    "velocity": 0.48031496062992124,
                    "duration": 0.10267846874999975
                },
                {
                    "name": "B2",
                    "midi": 47,
                    "time": 97.49990249999932,
                    "velocity": 0.48031496062992124,
                    "duration": 0.10267846874999975
                },
                {
                    "name": "D3",
                    "midi": 50,
                    "time": 97.60704524999932,
                    "velocity": 0.48031496062992124,
                    "duration": 0.10267846874999975
                },
                {
                    "name": "F#3",
                    "midi": 54,
                    "time": 97.71418799999931,
                    "velocity": 0.48031496062992124,
                    "duration": 0.10267846874999975
                },
                {
                    "name": "F#3",
                    "midi": 54,
                    "time": 97.8213307499993,
                    "velocity": 0.48031496062992124,
                    "duration": 0.10267846874999975
                },
                {
                    "name": "D3",
                    "midi": 50,
                    "time": 97.9284734999993,
                    "velocity": 0.48031496062992124,
                    "duration": 0.10267846874999975
                },
                {
                    "name": "F#3",
                    "midi": 54,
                    "time": 98.0356162499993,
                    "velocity": 0.48031496062992124,
                    "duration": 0.10267846874999975
                },
                {
                    "name": "B2",
                    "midi": 47,
                    "time": 98.14275899999929,
                    "velocity": 0.48031496062992124,
                    "duration": 0.10267846874999975
                },
                {
                    "name": "B2",
                    "midi": 47,
                    "time": 98.24990174999928,
                    "velocity": 0.48031496062992124,
                    "duration": 0.10267846874999975
                },
                {
                    "name": "D#4",
                    "midi": 63,
                    "time": 98.35704449999928,
                    "velocity": 0.48031496062992124,
                    "duration": 0.10267846874999975
                },
                {
                    "name": "F#4",
                    "midi": 66,
                    "time": 98.46418724999927,
                    "velocity": 0.48031496062992124,
                    "duration": 0.10267846874999975
                },
                {
                    "name": "A#4",
                    "midi": 70,
                    "time": 98.57132999999926,
                    "velocity": 0.48031496062992124,
                    "duration": 0.10267846874999975
                },
                {
                    "name": "A#4",
                    "midi": 70,
                    "time": 98.67847274999926,
                    "velocity": 0.48031496062992124,
                    "duration": 0.10267846874999975
                },
                {
                    "name": "F#4",
                    "midi": 66,
                    "time": 98.78561549999925,
                    "velocity": 0.48031496062992124,
                    "duration": 0.10267846874999975
                },
                {
                    "name": "A#4",
                    "midi": 70,
                    "time": 98.89275824999925,
                    "velocity": 0.48031496062992124,
                    "duration": 0.10267846874999975
                },
                {
                    "name": "D#4",
                    "midi": 63,
                    "time": 98.99990099999924,
                    "velocity": 0.48031496062992124,
                    "duration": 0.10267846874999975
                },
                {
                    "name": "D#4",
                    "midi": 63,
                    "time": 99.10704374999924,
                    "velocity": 0.48031496062992124,
                    "duration": 0.10267846874999975
                },
                {
                    "name": "B3",
                    "midi": 59,
                    "time": 99.21418649999923,
                    "velocity": 0.48031496062992124,
                    "duration": 0.10267846874999975
                },
                {
                    "name": "D4",
                    "midi": 62,
                    "time": 99.32132924999922,
                    "velocity": 0.48031496062992124,
                    "duration": 0.10267846874999975
                },
                {
                    "name": "F#4",
                    "midi": 66,
                    "time": 99.42847199999922,
                    "velocity": 0.48031496062992124,
                    "duration": 0.10267846874999975
                },
                {
                    "name": "F#4",
                    "midi": 66,
                    "time": 99.53561474999921,
                    "velocity": 0.48031496062992124,
                    "duration": 0.10267846874999975
                },
                {
                    "name": "D4",
                    "midi": 62,
                    "time": 99.6427574999992,
                    "velocity": 0.48031496062992124,
                    "duration": 0.10267846874999975
                },
                {
                    "name": "F#4",
                    "midi": 66,
                    "time": 99.7499002499992,
                    "velocity": 0.48031496062992124,
                    "duration": 0.10267846874999975
                },
                {
                    "name": "B3",
                    "midi": 59,
                    "time": 99.8570429999992,
                    "velocity": 0.48031496062992124,
                    "duration": 0.10267846874999975
                },
                {
                    "name": "B3",
                    "midi": 59,
                    "time": 99.96418574999919,
                    "velocity": 0.48031496062992124,
                    "duration": 0.10267846874999975
                },
                {
                    "name": "G3",
                    "midi": 55,
                    "time": 100.07132849999918,
                    "velocity": 0.48031496062992124,
                    "duration": 0.10267846874999975
                },
                {
                    "name": "A#3",
                    "midi": 58,
                    "time": 100.17847124999918,
                    "velocity": 0.48031496062992124,
                    "duration": 0.10267846874999975
                },
                {
                    "name": "D4",
                    "midi": 62,
                    "time": 100.28561399999917,
                    "velocity": 0.48031496062992124,
                    "duration": 0.10267846874999975
                },
                {
                    "name": "D4",
                    "midi": 62,
                    "time": 100.39275674999917,
                    "velocity": 0.48031496062992124,
                    "duration": 0.10267846874999975
                },
                {
                    "name": "A#3",
                    "midi": 58,
                    "time": 100.49989949999916,
                    "velocity": 0.48031496062992124,
                    "duration": 0.10267846874999975
                },
                {
                    "name": "D4",
                    "midi": 62,
                    "time": 100.60704224999915,
                    "velocity": 0.48031496062992124,
                    "duration": 0.10267846874999975
                },
                {
                    "name": "G3",
                    "midi": 55,
                    "time": 100.71418499999915,
                    "velocity": 0.48031496062992124,
                    "duration": 0.10267846874999975
                },
                {
                    "name": "G3",
                    "midi": 55,
                    "time": 100.82132774999914,
                    "velocity": 0.48031496062992124,
                    "duration": 0.10267846874999975
                },
                {
                    "name": "F#4",
                    "midi": 66,
                    "time": 100.92847049999914,
                    "velocity": 0.48031496062992124,
                    "duration": 0.10267846874999975
                },
                {
                    "name": "G3",
                    "midi": 55,
                    "time": 100.92847049999914,
                    "velocity": 0.48031496062992124,
                    "duration": 0.10267846874999975
                },
                {
                    "name": "D4",
                    "midi": 62,
                    "time": 101.03561324999913,
                    "velocity": 0.48031496062992124,
                    "duration": 0.10267846874999975
                },
                {
                    "name": "F4",
                    "midi": 65,
                    "time": 101.14275599999912,
                    "velocity": 0.48031496062992124,
                    "duration": 0.10267846874999975
                },
                {
                    "name": "G3",
                    "midi": 55,
                    "time": 101.14275599999912,
                    "velocity": 0.48031496062992124,
                    "duration": 0.10267846874999975
                },
                {
                    "name": "C#4",
                    "midi": 61,
                    "time": 101.24989874999912,
                    "velocity": 0.48031496062992124,
                    "duration": 0.10267846874999975
                },
                {
                    "name": "E4",
                    "midi": 64,
                    "time": 101.35704149999911,
                    "velocity": 0.48031496062992124,
                    "duration": 0.10267846874999975
                },
                {
                    "name": "G3",
                    "midi": 55,
                    "time": 101.35704149999911,
                    "velocity": 0.48031496062992124,
                    "duration": 0.10267846874999975
                },
                {
                    "name": "C4",
                    "midi": 60,
                    "time": 101.46418424999911,
                    "velocity": 0.48031496062992124,
                    "duration": 0.10267846874999975
                },
                {
                    "name": "D#4",
                    "midi": 63,
                    "time": 101.5713269999991,
                    "velocity": 0.48031496062992124,
                    "duration": 0.10267846874999975
                },
                {
                    "name": "G3",
                    "midi": 55,
                    "time": 101.5713269999991,
                    "velocity": 0.48031496062992124,
                    "duration": 0.10267846874999975
                },
                {
                    "name": "B3",
                    "midi": 59,
                    "time": 101.6784697499991,
                    "velocity": 0.48031496062992124,
                    "duration": 0.10267846874999975
                },
                {
                    "name": "D4",
                    "midi": 62,
                    "time": 101.78561249999909,
                    "velocity": 0.48031496062992124,
                    "duration": 0.10267846874999975
                },
                {
                    "name": "G3",
                    "midi": 55,
                    "time": 101.78561249999909,
                    "velocity": 0.48031496062992124,
                    "duration": 0.10267846874999975
                },
                {
                    "name": "A#3",
                    "midi": 58,
                    "time": 101.89275524999908,
                    "velocity": 0.48031496062992124,
                    "duration": 0.10267846874999975
                },
                {
                    "name": "G3",
                    "midi": 55,
                    "time": 101.99989799999908,
                    "velocity": 0.48031496062992124,
                    "duration": 0.10267846874999975
                },
                {
                    "name": "E4",
                    "midi": 64,
                    "time": 101.99989799999908,
                    "velocity": 0.48031496062992124,
                    "duration": 0.10267846874999975
                },
                {
                    "name": "C4",
                    "midi": 60,
                    "time": 102.10704074999907,
                    "velocity": 0.48031496062992124,
                    "duration": 0.10267846874999975
                },
                {
                    "name": "D#4",
                    "midi": 63,
                    "time": 102.21418349999907,
                    "velocity": 0.48031496062992124,
                    "duration": 0.10267846874999975
                },
                {
                    "name": "G3",
                    "midi": 55,
                    "time": 102.21418349999907,
                    "velocity": 0.48031496062992124,
                    "duration": 0.10267846874999975
                },
                {
                    "name": "B3",
                    "midi": 59,
                    "time": 102.32132624999906,
                    "velocity": 0.48031496062992124,
                    "duration": 0.10267846874999975
                },
                {
                    "name": "D4",
                    "midi": 62,
                    "time": 102.42846899999905,
                    "velocity": 0.48031496062992124,
                    "duration": 0.10267846874999975
                },
                {
                    "name": "G3",
                    "midi": 55,
                    "time": 102.42846899999905,
                    "velocity": 0.48031496062992124,
                    "duration": 0.10267846874999975
                },
                {
                    "name": "A#3",
                    "midi": 58,
                    "time": 102.53561174999905,
                    "velocity": 0.48031496062992124,
                    "duration": 0.10267846874999975
                },
                {
                    "name": "C#4",
                    "midi": 61,
                    "time": 102.64275449999904,
                    "velocity": 0.48031496062992124,
                    "duration": 0.10267846874999975
                },
                {
                    "name": "G3",
                    "midi": 55,
                    "time": 102.64275449999904,
                    "velocity": 0.48031496062992124,
                    "duration": 0.10267846874999975
                },
                {
                    "name": "A3",
                    "midi": 57,
                    "time": 102.74989724999904,
                    "velocity": 0.48031496062992124,
                    "duration": 0.10267846874999975
                },
                {
                    "name": "G3",
                    "midi": 55,
                    "time": 102.85703999999903,
                    "velocity": 0.48031496062992124,
                    "duration": 0.10267846874999975
                },
                {
                    "name": "A2",
                    "midi": 45,
                    "time": 102.85703999999903,
                    "velocity": 0.48031496062992124,
                    "duration": 0.10267846874999975
                },
                {
                    "name": "A3",
                    "midi": 57,
                    "time": 102.96418274999903,
                    "velocity": 0.48031496062992124,
                    "duration": 0.10267846874999975
                },
                {
                    "name": "C#4",
                    "midi": 61,
                    "time": 103.07132549999902,
                    "velocity": 0.48031496062992124,
                    "duration": 0.10267846874999975
                },
                {
                    "name": "A3",
                    "midi": 57,
                    "time": 103.17846824999901,
                    "velocity": 0.48031496062992124,
                    "duration": 0.10267846874999975
                },
                {
                    "name": "C#3",
                    "midi": 49,
                    "time": 103.28561099999901,
                    "velocity": 0.48031496062992124,
                    "duration": 0.10267846874999975
                },
                {
                    "name": "F3",
                    "midi": 53,
                    "time": 103.28561099999901,
                    "velocity": 0.48031496062992124,
                    "duration": 0.10267846874999975
                },
                {
                    "name": "B3",
                    "midi": 59,
                    "time": 103.392753749999,
                    "velocity": 0.48031496062992124,
                    "duration": 0.10267846874999975
                },
                {
                    "name": "C4",
                    "midi": 60,
                    "time": 103.499896499999,
                    "velocity": 0.48031496062992124,
                    "duration": 0.10267846874999975
                },
                {
                    "name": "C#4",
                    "midi": 61,
                    "time": 103.60703924999899,
                    "velocity": 0.48031496062992124,
                    "duration": 0.10267846874999975
                },
                {
                    "name": "D4",
                    "midi": 62,
                    "time": 103.71418199999898,
                    "velocity": 0.48031496062992124,
                    "duration": 0.10267846874999975
                },
                {
                    "name": "D#4",
                    "midi": 63,
                    "time": 103.82132474999898,
                    "velocity": 0.48031496062992124,
                    "duration": 0.10267846874999975
                },
                {
                    "name": "E4",
                    "midi": 64,
                    "time": 103.92846749999897,
                    "velocity": 0.48031496062992124,
                    "duration": 0.10267846874999975
                },
                {
                    "name": "F4",
                    "midi": 65,
                    "time": 104.03561024999897,
                    "velocity": 0.48031496062992124,
                    "duration": 0.10267846874999975
                },
                {
                    "name": "F#4",
                    "midi": 66,
                    "time": 104.14275299999896,
                    "velocity": 0.48031496062992124,
                    "duration": 0.10267846874999975
                },
                {
                    "name": "G4",
                    "midi": 67,
                    "time": 104.24989574999896,
                    "velocity": 0.48031496062992124,
                    "duration": 0.10267846874999975
                },
                {
                    "name": "F#4",
                    "midi": 66,
                    "time": 104.57132399999895,
                    "velocity": 0.48031496062992124,
                    "duration": 0.10267846874999975
                },
                {
                    "name": "G3",
                    "midi": 55,
                    "time": 104.57132399999895,
                    "velocity": 0.48031496062992124,
                    "duration": 0.10267846874999975
                },
                {
                    "name": "D4",
                    "midi": 62,
                    "time": 104.67846674999895,
                    "velocity": 0.48031496062992124,
                    "duration": 0.10267846874999975
                },
                {
                    "name": "F4",
                    "midi": 65,
                    "time": 104.78560949999894,
                    "velocity": 0.48031496062992124,
                    "duration": 0.10267846874999975
                },
                {
                    "name": "G3",
                    "midi": 55,
                    "time": 104.78560949999894,
                    "velocity": 0.48031496062992124,
                    "duration": 0.10267846874999975
                },
                {
                    "name": "C#4",
                    "midi": 61,
                    "time": 104.89275224999894,
                    "velocity": 0.48031496062992124,
                    "duration": 0.10267846874999975
                },
                {
                    "name": "E4",
                    "midi": 64,
                    "time": 104.99989499999893,
                    "velocity": 0.48031496062992124,
                    "duration": 0.10267846874999975
                },
                {
                    "name": "G3",
                    "midi": 55,
                    "time": 104.99989499999893,
                    "velocity": 0.48031496062992124,
                    "duration": 0.10267846874999975
                },
                {
                    "name": "C4",
                    "midi": 60,
                    "time": 105.10703774999892,
                    "velocity": 0.48031496062992124,
                    "duration": 0.10267846874999975
                },
                {
                    "name": "D#4",
                    "midi": 63,
                    "time": 105.21418049999892,
                    "velocity": 0.48031496062992124,
                    "duration": 0.10267846874999975
                },
                {
                    "name": "G3",
                    "midi": 55,
                    "time": 105.21418049999892,
                    "velocity": 0.48031496062992124,
                    "duration": 0.10267846874999975
                },
                {
                    "name": "B3",
                    "midi": 59,
                    "time": 105.32132324999891,
                    "velocity": 0.48031496062992124,
                    "duration": 0.10267846874999975
                },
                {
                    "name": "D4",
                    "midi": 62,
                    "time": 105.4284659999989,
                    "velocity": 0.48031496062992124,
                    "duration": 0.10267846874999975
                },
                {
                    "name": "G3",
                    "midi": 55,
                    "time": 105.4284659999989,
                    "velocity": 0.48031496062992124,
                    "duration": 0.10267846874999975
                },
                {
                    "name": "A#3",
                    "midi": 58,
                    "time": 105.5356087499989,
                    "velocity": 0.48031496062992124,
                    "duration": 0.10267846874999975
                },
                {
                    "name": "D#4",
                    "midi": 63,
                    "time": 105.6427514999989,
                    "velocity": 0.48031496062992124,
                    "duration": 0.10267846874999975
                },
                {
                    "name": "G3",
                    "midi": 55,
                    "time": 105.6427514999989,
                    "velocity": 0.48031496062992124,
                    "duration": 0.10267846874999975
                },
                {
                    "name": "B3",
                    "midi": 59,
                    "time": 105.74989424999889,
                    "velocity": 0.48031496062992124,
                    "duration": 0.10267846874999975
                },
                {
                    "name": "G3",
                    "midi": 55,
                    "time": 105.85703699999888,
                    "velocity": 0.48031496062992124,
                    "duration": 0.10267846874999975
                },
                {
                    "name": "E4",
                    "midi": 64,
                    "time": 105.85703699999888,
                    "velocity": 0.48031496062992124,
                    "duration": 0.10267846874999975
                },
                {
                    "name": "C4",
                    "midi": 60,
                    "time": 105.96417974999888,
                    "velocity": 0.48031496062992124,
                    "duration": 0.10267846874999975
                },
                {
                    "name": "F#4",
                    "midi": 66,
                    "time": 106.07132249999887,
                    "velocity": 0.48031496062992124,
                    "duration": 0.10267846874999975
                },
                {
                    "name": "G3",
                    "midi": 55,
                    "time": 106.07132249999887,
                    "velocity": 0.48031496062992124,
                    "duration": 0.10267846874999975
                },
                {
                    "name": "D4",
                    "midi": 62,
                    "time": 106.17846524999887,
                    "velocity": 0.48031496062992124,
                    "duration": 0.10267846874999975
                },
                {
                    "name": "F4",
                    "midi": 65,
                    "time": 106.28560799999886,
                    "velocity": 0.48031496062992124,
                    "duration": 0.10267846874999975
                },
                {
                    "name": "G3",
                    "midi": 55,
                    "time": 106.28560799999886,
                    "velocity": 0.48031496062992124,
                    "duration": 0.10267846874999975
                },
                {
                    "name": "C#4",
                    "midi": 61,
                    "time": 106.39275074999885,
                    "velocity": 0.48031496062992124,
                    "duration": 0.10267846874999975
                },
                {
                    "name": "E4",
                    "midi": 64,
                    "time": 106.49989349999885,
                    "velocity": 0.48031496062992124,
                    "duration": 0.10267846874999975
                },
                {
                    "name": "G3",
                    "midi": 55,
                    "time": 106.49989349999885,
                    "velocity": 0.48031496062992124,
                    "duration": 0.10267846874999975
                },
                {
                    "name": "C4",
                    "midi": 60,
                    "time": 106.60703624999884,
                    "velocity": 0.48031496062992124,
                    "duration": 0.10267846874999975
                },
                {
                    "name": "D#4",
                    "midi": 63,
                    "time": 106.71417899999884,
                    "velocity": 0.48031496062992124,
                    "duration": 0.10267846874999975
                },
                {
                    "name": "G3",
                    "midi": 55,
                    "time": 106.71417899999884,
                    "velocity": 0.48031496062992124,
                    "duration": 0.10267846874999975
                },
                {
                    "name": "B3",
                    "midi": 59,
                    "time": 106.82132174999883,
                    "velocity": 0.48031496062992124,
                    "duration": 0.10267846874999975
                },
                {
                    "name": "G3",
                    "midi": 55,
                    "time": 106.92846449999882,
                    "velocity": 0.48031496062992124,
                    "duration": 0.10267846874999975
                },
                {
                    "name": "D4",
                    "midi": 62,
                    "time": 106.92846449999882,
                    "velocity": 0.48031496062992124,
                    "duration": 0.10267846874999975
                },
                {
                    "name": "A#3",
                    "midi": 58,
                    "time": 107.03560724999882,
                    "velocity": 0.48031496062992124,
                    "duration": 0.10267846874999975
                },
                {
                    "name": "C#4",
                    "midi": 61,
                    "time": 107.14274999999881,
                    "velocity": 0.48031496062992124,
                    "duration": 0.10267846874999975
                },
                {
                    "name": "G3",
                    "midi": 55,
                    "time": 107.14274999999881,
                    "velocity": 0.48031496062992124,
                    "duration": 0.10267846874999975
                },
                {
                    "name": "A3",
                    "midi": 57,
                    "time": 107.2498927499988,
                    "velocity": 0.48031496062992124,
                    "duration": 0.10267846874999975
                },
                {
                    "name": "G3",
                    "midi": 55,
                    "time": 107.3570354999988,
                    "velocity": 0.48031496062992124,
                    "duration": 0.10267846874999975
                },
                {
                    "name": "C4",
                    "midi": 60,
                    "time": 107.3570354999988,
                    "velocity": 0.48031496062992124,
                    "duration": 0.10267846874999975
                },
                {
                    "name": "G#3",
                    "midi": 56,
                    "time": 107.4641782499988,
                    "velocity": 0.48031496062992124,
                    "duration": 0.10267846874999975
                },
                {
                    "name": "B3",
                    "midi": 59,
                    "time": 107.57132099999879,
                    "velocity": 0.48031496062992124,
                    "duration": 0.10267846874999975
                },
                {
                    "name": "G3",
                    "midi": 55,
                    "time": 107.57132099999879,
                    "velocity": 0.48031496062992124,
                    "duration": 0.10267846874999975
                },
                {
                    "name": "A#3",
                    "midi": 58,
                    "time": 107.67846374999878,
                    "velocity": 0.48031496062992124,
                    "duration": 0.10267846874999975
                },
                {
                    "name": "F#4",
                    "midi": 66,
                    "time": 107.78560649999878,
                    "velocity": 0.48031496062992124,
                    "duration": 0.10267846874999975
                },
                {
                    "name": "G3",
                    "midi": 55,
                    "time": 107.78560649999878,
                    "velocity": 0.48031496062992124,
                    "duration": 0.10267846874999975
                },
                {
                    "name": "D4",
                    "midi": 62,
                    "time": 107.89274924999877,
                    "velocity": 0.48031496062992124,
                    "duration": 0.10267846874999975
                },
                {
                    "name": "F4",
                    "midi": 65,
                    "time": 107.99989199999877,
                    "velocity": 0.48031496062992124,
                    "duration": 0.10267846874999975
                },
                {
                    "name": "G3",
                    "midi": 55,
                    "time": 107.99989199999877,
                    "velocity": 0.48031496062992124,
                    "duration": 0.10267846874999975
                },
                {
                    "name": "C#4",
                    "midi": 61,
                    "time": 108.10703474999876,
                    "velocity": 0.48031496062992124,
                    "duration": 0.10267846874999975
                },
                {
                    "name": "E4",
                    "midi": 64,
                    "time": 108.21417749999875,
                    "velocity": 0.48031496062992124,
                    "duration": 0.10267846874999975
                },
                {
                    "name": "G3",
                    "midi": 55,
                    "time": 108.21417749999875,
                    "velocity": 0.48031496062992124,
                    "duration": 0.10267846874999975
                },
                {
                    "name": "C4",
                    "midi": 60,
                    "time": 108.32132024999875,
                    "velocity": 0.48031496062992124,
                    "duration": 0.10267846874999975
                },
                {
                    "name": "D#4",
                    "midi": 63,
                    "time": 108.42846299999874,
                    "velocity": 0.48031496062992124,
                    "duration": 0.10267846874999975
                },
                {
                    "name": "G3",
                    "midi": 55,
                    "time": 108.42846299999874,
                    "velocity": 0.48031496062992124,
                    "duration": 0.10267846874999975
                },
                {
                    "name": "B3",
                    "midi": 59,
                    "time": 108.53560574999874,
                    "velocity": 0.48031496062992124,
                    "duration": 0.10267846874999975
                },
                {
                    "name": "D4",
                    "midi": 62,
                    "time": 108.64274849999873,
                    "velocity": 0.48031496062992124,
                    "duration": 0.10267846874999975
                },
                {
                    "name": "G3",
                    "midi": 55,
                    "time": 108.64274849999873,
                    "velocity": 0.48031496062992124,
                    "duration": 0.10267846874999975
                },
                {
                    "name": "A#3",
                    "midi": 58,
                    "time": 108.74989124999873,
                    "velocity": 0.48031496062992124,
                    "duration": 0.10267846874999975
                },
                {
                    "name": "C#4",
                    "midi": 61,
                    "time": 108.85703399999872,
                    "velocity": 0.48031496062992124,
                    "duration": 0.10267846874999975
                },
                {
                    "name": "G3",
                    "midi": 55,
                    "time": 108.85703399999872,
                    "velocity": 0.48031496062992124,
                    "duration": 0.10267846874999975
                },
                {
                    "name": "A3",
                    "midi": 57,
                    "time": 108.96417674999871,
                    "velocity": 0.48031496062992124,
                    "duration": 0.10267846874999975
                },
                {
                    "name": "C4",
                    "midi": 60,
                    "time": 109.07131949999871,
                    "velocity": 0.48031496062992124,
                    "duration": 0.10267846874999975
                },
                {
                    "name": "G3",
                    "midi": 55,
                    "time": 109.07131949999871,
                    "velocity": 0.48031496062992124,
                    "duration": 0.10267846874999975
                },
                {
                    "name": "G#3",
                    "midi": 56,
                    "time": 109.1784622499987,
                    "velocity": 0.48031496062992124,
                    "duration": 0.10267846874999975
                },
                {
                    "name": "B3",
                    "midi": 59,
                    "time": 109.2856049999987,
                    "velocity": 0.48031496062992124,
                    "duration": 0.10267846874999975
                },
                {
                    "name": "G3",
                    "midi": 55,
                    "time": 109.2856049999987,
                    "velocity": 0.48031496062992124,
                    "duration": 0.10267846874999975
                },
                {
                    "name": "A#3",
                    "midi": 58,
                    "time": 109.39274774999869,
                    "velocity": 0.48031496062992124,
                    "duration": 0.10267846874999975
                },
                {
                    "name": "F#2",
                    "midi": 42,
                    "time": 109.49989049999868,
                    "velocity": 0.48031496062992124,
                    "duration": 0.20982121874999393
                },
                {
                    "name": "F#3",
                    "midi": 54,
                    "time": 109.49989049999868,
                    "velocity": 0.48031496062992124,
                    "duration": 0.20982121874999393
                },
                {
                    "name": "F#4",
                    "midi": 66,
                    "time": 109.71417599999867,
                    "velocity": 0.48031496062992124,
                    "duration": 0.20982121874999393
                },
                {
                    "name": "F4",
                    "midi": 65,
                    "time": 109.92846149999866,
                    "velocity": 0.48031496062992124,
                    "duration": 0.20982121874999393
                },
                {
                    "name": "E4",
                    "midi": 64,
                    "time": 110.14274699999865,
                    "velocity": 0.48031496062992124,
                    "duration": 0.20982121874999393
                },
                {
                    "name": "D#4",
                    "midi": 63,
                    "time": 110.35703249999864,
                    "velocity": 0.48031496062992124,
                    "duration": 0.20982121874999393
                },
                {
                    "name": "D4",
                    "midi": 62,
                    "time": 110.57131799999863,
                    "velocity": 0.48031496062992124,
                    "duration": 0.20982121874999393
                },
                {
                    "name": "C#4",
                    "midi": 61,
                    "time": 110.78560349999862,
                    "velocity": 0.48031496062992124,
                    "duration": 0.20982121874999393
                },
                {
                    "name": "C4",
                    "midi": 60,
                    "time": 110.9998889999986,
                    "velocity": 0.48031496062992124,
                    "duration": 0.20982121874999393
                },
                {
                    "name": "F#2",
                    "midi": 42,
                    "time": 111.21417449999859,
                    "velocity": 0.48031496062992124,
                    "duration": 0.10267846874999975
                },
                {
                    "name": "F#3",
                    "midi": 54,
                    "time": 111.32131724999859,
                    "velocity": 0.48031496062992124,
                    "duration": 0.10267846874999975
                },
                {
                    "name": "G4",
                    "midi": 67,
                    "time": 111.42845999999858,
                    "velocity": 0.48031496062992124,
                    "duration": 0.10267846874999975
                },
                {
                    "name": "F#4",
                    "midi": 66,
                    "time": 111.53560274999857,
                    "velocity": 0.48031496062992124,
                    "duration": 0.10267846874999975
                },
                {
                    "name": "F#4",
                    "midi": 66,
                    "time": 111.64274549999857,
                    "velocity": 0.48031496062992124,
                    "duration": 0.10267846874999975
                },
                {
                    "name": "F4",
                    "midi": 65,
                    "time": 111.74988824999856,
                    "velocity": 0.48031496062992124,
                    "duration": 0.10267846874999975
                },
                {
                    "name": "F4",
                    "midi": 65,
                    "time": 111.85703099999856,
                    "velocity": 0.48031496062992124,
                    "duration": 0.10267846874999975
                },
                {
                    "name": "E4",
                    "midi": 64,
                    "time": 111.96417374999855,
                    "velocity": 0.48031496062992124,
                    "duration": 0.10267846874999975
                },
                {
                    "name": "D#4",
                    "midi": 63,
                    "time": 112.07131649999855,
                    "velocity": 0.48031496062992124,
                    "duration": 0.10267846874999975
                },
                {
                    "name": "D4",
                    "midi": 62,
                    "time": 112.17845924999854,
                    "velocity": 0.48031496062992124,
                    "duration": 0.10267846874999975
                },
                {
                    "name": "D4",
                    "midi": 62,
                    "time": 112.28560199999853,
                    "velocity": 0.48031496062992124,
                    "duration": 0.10267846874999975
                },
                {
                    "name": "C#4",
                    "midi": 61,
                    "time": 112.39274474999853,
                    "velocity": 0.48031496062992124,
                    "duration": 0.10267846874999975
                },
                {
                    "name": "C4",
                    "midi": 60,
                    "time": 112.49988749999852,
                    "velocity": 0.48031496062992124,
                    "duration": 0.10267846874999975
                },
                {
                    "name": "B3",
                    "midi": 59,
                    "time": 112.60703024999852,
                    "velocity": 0.48031496062992124,
                    "duration": 0.10267846874999975
                },
                {
                    "name": "G#2",
                    "midi": 44,
                    "time": 112.71417299999851,
                    "velocity": 0.48031496062992124,
                    "duration": 0.20982121874999393
                },
                {
                    "name": "G#1",
                    "midi": 32,
                    "time": 112.71417299999851,
                    "velocity": 0.48031496062992124,
                    "duration": 0.20982121874999393
                },
                {
                    "name": "B2",
                    "midi": 47,
                    "time": 112.9284584999985,
                    "velocity": 0.48031496062992124,
                    "duration": 0.20982121874999393
                },
                {
                    "name": "B1",
                    "midi": 35,
                    "time": 112.9284584999985,
                    "velocity": 0.48031496062992124,
                    "duration": 0.20982121874999393
                },
                {
                    "name": "D#3",
                    "midi": 51,
                    "time": 113.14274399999849,
                    "velocity": 0.48031496062992124,
                    "duration": 0.20982121874999393
                },
                {
                    "name": "D#2",
                    "midi": 39,
                    "time": 113.14274399999849,
                    "velocity": 0.48031496062992124,
                    "duration": 0.20982121874999393
                },
                {
                    "name": "D#3",
                    "midi": 51,
                    "time": 113.35702949999848,
                    "velocity": 0.48031496062992124,
                    "duration": 0.20982121874999393
                },
                {
                    "name": "D#2",
                    "midi": 39,
                    "time": 113.35702949999848,
                    "velocity": 0.48031496062992124,
                    "duration": 0.20982121874999393
                },
                {
                    "name": "B2",
                    "midi": 47,
                    "time": 113.57131499999846,
                    "velocity": 0.48031496062992124,
                    "duration": 0.20982121874999393
                },
                {
                    "name": "B1",
                    "midi": 35,
                    "time": 113.57131499999846,
                    "velocity": 0.48031496062992124,
                    "duration": 0.20982121874999393
                },
                {
                    "name": "D#3",
                    "midi": 51,
                    "time": 113.78560049999845,
                    "velocity": 0.48031496062992124,
                    "duration": 0.20982121874999393
                },
                {
                    "name": "D#2",
                    "midi": 39,
                    "time": 113.78560049999845,
                    "velocity": 0.48031496062992124,
                    "duration": 0.20982121874999393
                },
                {
                    "name": "G#2",
                    "midi": 44,
                    "time": 113.99988599999844,
                    "velocity": 0.48031496062992124,
                    "duration": 0.20982121874999393
                },
                {
                    "name": "G#1",
                    "midi": 32,
                    "time": 113.99988599999844,
                    "velocity": 0.48031496062992124,
                    "duration": 0.20982121874999393
                },
                {
                    "name": "G#2",
                    "midi": 44,
                    "time": 114.21417149999843,
                    "velocity": 0.48031496062992124,
                    "duration": 0.20982121874999393
                },
                {
                    "name": "G#1",
                    "midi": 32,
                    "time": 114.21417149999843,
                    "velocity": 0.48031496062992124,
                    "duration": 0.20982121874999393
                },
                {
                    "name": "G#2",
                    "midi": 44,
                    "time": 114.42845699999842,
                    "velocity": 0.48031496062992124,
                    "duration": 0.20982121874999393
                },
                {
                    "name": "G#1",
                    "midi": 32,
                    "time": 114.42845699999842,
                    "velocity": 0.48031496062992124,
                    "duration": 0.20982121874999393
                },
                {
                    "name": "B2",
                    "midi": 47,
                    "time": 114.6427424999984,
                    "velocity": 0.48031496062992124,
                    "duration": 0.20982121874999393
                },
                {
                    "name": "B1",
                    "midi": 35,
                    "time": 114.6427424999984,
                    "velocity": 0.48031496062992124,
                    "duration": 0.20982121874999393
                },
                {
                    "name": "D#3",
                    "midi": 51,
                    "time": 114.8570279999984,
                    "velocity": 0.48031496062992124,
                    "duration": 0.20982121874999393
                },
                {
                    "name": "D#2",
                    "midi": 39,
                    "time": 114.8570279999984,
                    "velocity": 0.48031496062992124,
                    "duration": 0.20982121874999393
                },
                {
                    "name": "D#3",
                    "midi": 51,
                    "time": 115.07131349999838,
                    "velocity": 0.48031496062992124,
                    "duration": 0.20982121874999393
                },
                {
                    "name": "D#2",
                    "midi": 39,
                    "time": 115.07131349999838,
                    "velocity": 0.48031496062992124,
                    "duration": 0.20982121874999393
                },
                {
                    "name": "B2",
                    "midi": 47,
                    "time": 115.28559899999837,
                    "velocity": 0.48031496062992124,
                    "duration": 0.20982121874999393
                },
                {
                    "name": "B1",
                    "midi": 35,
                    "time": 115.28559899999837,
                    "velocity": 0.48031496062992124,
                    "duration": 0.20982121874999393
                },
                {
                    "name": "D#3",
                    "midi": 51,
                    "time": 115.49988449999836,
                    "velocity": 0.48031496062992124,
                    "duration": 0.20982121874999393
                },
                {
                    "name": "D#2",
                    "midi": 39,
                    "time": 115.49988449999836,
                    "velocity": 0.48031496062992124,
                    "duration": 0.20982121874999393
                },
                {
                    "name": "G#2",
                    "midi": 44,
                    "time": 115.71416999999835,
                    "velocity": 0.48031496062992124,
                    "duration": 0.20982121874999393
                },
                {
                    "name": "G#1",
                    "midi": 32,
                    "time": 115.71416999999835,
                    "velocity": 0.48031496062992124,
                    "duration": 0.20982121874999393
                },
                {
                    "name": "G#2",
                    "midi": 44,
                    "time": 115.92845549999834,
                    "velocity": 0.48031496062992124,
                    "duration": 0.20982121874999393
                },
                {
                    "name": "G#1",
                    "midi": 32,
                    "time": 115.92845549999834,
                    "velocity": 0.48031496062992124,
                    "duration": 0.20982121874999393
                },
                {
                    "name": "F1",
                    "midi": 29,
                    "time": 116.14274099999832,
                    "velocity": 0.48031496062992124,
                    "duration": 0.20982121874999393
                },
                {
                    "name": "F2",
                    "midi": 41,
                    "time": 116.14274099999832,
                    "velocity": 0.48031496062992124,
                    "duration": 0.20982121874999393
                },
                {
                    "name": "D#5",
                    "midi": 75,
                    "time": 116.35702649999831,
                    "velocity": 0.48031496062992124,
                    "duration": 0.20982121874999393
                },
                {
                    "name": "F4",
                    "midi": 65,
                    "time": 116.35702649999831,
                    "velocity": 0.48031496062992124,
                    "duration": 0.20982121874999393
                },
                {
                    "name": "F#4",
                    "midi": 66,
                    "time": 116.5713119999983,
                    "velocity": 0.48031496062992124,
                    "duration": 0.20982121874999393
                },
                {
                    "name": "C#5",
                    "midi": 73,
                    "time": 116.5713119999983,
                    "velocity": 0.48031496062992124,
                    "duration": 0.20982121874999393
                },
                {
                    "name": "D5",
                    "midi": 74,
                    "time": 116.78559749999829,
                    "velocity": 0.48031496062992124,
                    "duration": 0.20982121874999393
                },
                {
                    "name": "F4",
                    "midi": 65,
                    "time": 116.78559749999829,
                    "velocity": 0.48031496062992124,
                    "duration": 0.20982121874999393
                },
                {
                    "name": "F#4",
                    "midi": 66,
                    "time": 116.99988299999828,
                    "velocity": 0.48031496062992124,
                    "duration": 0.20982121874999393
                },
                {
                    "name": "C#5",
                    "midi": 73,
                    "time": 116.99988299999828,
                    "velocity": 0.48031496062992124,
                    "duration": 0.20982121874999393
                },
                {
                    "name": "D#5",
                    "midi": 75,
                    "time": 117.21416849999827,
                    "velocity": 0.48031496062992124,
                    "duration": 0.20982121874999393
                },
                {
                    "name": "F4",
                    "midi": 65,
                    "time": 117.21416849999827,
                    "velocity": 0.48031496062992124,
                    "duration": 0.20982121874999393
                },
                {
                    "name": "F#4",
                    "midi": 66,
                    "time": 117.42845399999825,
                    "velocity": 0.48031496062992124,
                    "duration": 0.20982121874999393
                },
                {
                    "name": "C#5",
                    "midi": 73,
                    "time": 117.42845399999825,
                    "velocity": 0.48031496062992124,
                    "duration": 0.20982121874999393
                },
                {
                    "name": "F4",
                    "midi": 65,
                    "time": 117.64273949999824,
                    "velocity": 0.48031496062992124,
                    "duration": 0.20982121874999393
                },
                {
                    "name": "D5",
                    "midi": 74,
                    "time": 117.64273949999824,
                    "velocity": 0.48031496062992124,
                    "duration": 0.20982121874999393
                },
                {
                    "name": "F#4",
                    "midi": 66,
                    "time": 117.85702499999823,
                    "velocity": 0.48031496062992124,
                    "duration": 0.20982121874999393
                },
                {
                    "name": "C#5",
                    "midi": 73,
                    "time": 117.85702499999823,
                    "velocity": 0.48031496062992124,
                    "duration": 0.20982121874999393
                },
                {
                    "name": "D#5",
                    "midi": 75,
                    "time": 118.07131049999822,
                    "velocity": 0.48031496062992124,
                    "duration": 0.20982121874999393
                },
                {
                    "name": "F4",
                    "midi": 65,
                    "time": 118.07131049999822,
                    "velocity": 0.48031496062992124,
                    "duration": 0.20982121874999393
                },
                {
                    "name": "F#4",
                    "midi": 66,
                    "time": 118.28559599999821,
                    "velocity": 0.48031496062992124,
                    "duration": 0.20982121874999393
                },
                {
                    "name": "C#5",
                    "midi": 73,
                    "time": 118.28559599999821,
                    "velocity": 0.48031496062992124,
                    "duration": 0.20982121874999393
                },
                {
                    "name": "D5",
                    "midi": 74,
                    "time": 118.4998814999982,
                    "velocity": 0.48031496062992124,
                    "duration": 0.20982121874999393
                },
                {
                    "name": "F4",
                    "midi": 65,
                    "time": 118.4998814999982,
                    "velocity": 0.48031496062992124,
                    "duration": 0.20982121874999393
                },
                {
                    "name": "F#4",
                    "midi": 66,
                    "time": 118.71416699999818,
                    "velocity": 0.48031496062992124,
                    "duration": 0.20982121874999393
                },
                {
                    "name": "C#5",
                    "midi": 73,
                    "time": 118.71416699999818,
                    "velocity": 0.48031496062992124,
                    "duration": 0.20982121874999393
                },
                {
                    "name": "F4",
                    "midi": 65,
                    "time": 118.92845249999817,
                    "velocity": 0.48031496062992124,
                    "duration": 0.20982121874999393
                },
                {
                    "name": "D#5",
                    "midi": 75,
                    "time": 118.92845249999817,
                    "velocity": 0.48031496062992124,
                    "duration": 0.20982121874999393
                },
                {
                    "name": "F#4",
                    "midi": 66,
                    "time": 119.14273799999816,
                    "velocity": 0.48031496062992124,
                    "duration": 0.20982121874999393
                },
                {
                    "name": "C#5",
                    "midi": 73,
                    "time": 119.14273799999816,
                    "velocity": 0.48031496062992124,
                    "duration": 0.20982121874999393
                },
                {
                    "name": "F4",
                    "midi": 65,
                    "time": 119.35702349999815,
                    "velocity": 0.48031496062992124,
                    "duration": 0.20982121874999393
                },
                {
                    "name": "D5",
                    "midi": 74,
                    "time": 119.35702349999815,
                    "velocity": 0.48031496062992124,
                    "duration": 0.20982121874999393
                },
                {
                    "name": "F#4",
                    "midi": 66,
                    "time": 119.57130899999814,
                    "velocity": 0.48031496062992124,
                    "duration": 0.20982121874999393
                },
                {
                    "name": "C#5",
                    "midi": 73,
                    "time": 119.57130899999814,
                    "velocity": 0.48031496062992124,
                    "duration": 0.20982121874999393
                },
                {
                    "name": "D#5",
                    "midi": 75,
                    "time": 119.78559449999813,
                    "velocity": 0.48031496062992124,
                    "duration": 0.20982121874999393
                },
                {
                    "name": "G#5",
                    "midi": 80,
                    "time": 119.99987999999811,
                    "velocity": 0.48031496062992124,
                    "duration": 0.20982121874999393
                },
                {
                    "name": "F#5",
                    "midi": 78,
                    "time": 120.2141654999981,
                    "velocity": 0.48031496062992124,
                    "duration": 0.20982121874999393
                },
                {
                    "name": "D#5",
                    "midi": 75,
                    "time": 120.42845099999809,
                    "velocity": 0.48031496062992124,
                    "duration": 0.20982121874999393
                },
                {
                    "name": "C#5",
                    "midi": 73,
                    "time": 120.64273649999808,
                    "velocity": 0.48031496062992124,
                    "duration": 0.20982121874999393
                },
                {
                    "name": "G#5",
                    "midi": 80,
                    "time": 120.85702199999807,
                    "velocity": 0.48031496062992124,
                    "duration": 0.20982121874999393
                },
                {
                    "name": "F#5",
                    "midi": 78,
                    "time": 121.07130749999806,
                    "velocity": 0.48031496062992124,
                    "duration": 0.20982121874999393
                },
                {
                    "name": "D#5",
                    "midi": 75,
                    "time": 121.28559299999804,
                    "velocity": 0.48031496062992124,
                    "duration": 0.20982121874999393
                },
                {
                    "name": "C#5",
                    "midi": 73,
                    "time": 121.49987849999803,
                    "velocity": 0.48031496062992124,
                    "duration": 0.20982121874999393
                },
                {
                    "name": "G#5",
                    "midi": 80,
                    "time": 121.71416399999802,
                    "velocity": 0.48031496062992124,
                    "duration": 0.20982121874999393
                },
                {
                    "name": "D#5",
                    "midi": 75,
                    "time": 121.92844949999801,
                    "velocity": 0.48031496062992124,
                    "duration": 0.20982121874999393
                },
                {
                    "name": "G#5",
                    "midi": 80,
                    "time": 122.142734999998,
                    "velocity": 0.48031496062992124,
                    "duration": 0.20982121874999393
                },
                {
                    "name": "D#5",
                    "midi": 75,
                    "time": 122.35702049999799,
                    "velocity": 0.48031496062992124,
                    "duration": 0.20982121874999393
                },
                {
                    "name": "G#5",
                    "midi": 80,
                    "time": 122.57130599999797,
                    "velocity": 0.48031496062992124,
                    "duration": 0.20982121874999393
                },
                {
                    "name": "D#5",
                    "midi": 75,
                    "time": 122.78559149999796,
                    "velocity": 0.48031496062992124,
                    "duration": 0.20982121874999393
                },
                {
                    "name": "G#5",
                    "midi": 80,
                    "time": 122.99987699999795,
                    "velocity": 0.48031496062992124,
                    "duration": 0.20982121874999393
                },
                {
                    "name": "D2",
                    "midi": 38,
                    "time": 123.21416249999794,
                    "velocity": 0.48031496062992124,
                    "duration": 0.10714274999999418
                },
                {
                    "name": "E2",
                    "midi": 40,
                    "time": 123.32130524999793,
                    "velocity": 0.48031496062992124,
                    "duration": 0.10714274999999418
                },
                {
                    "name": "D2",
                    "midi": 38,
                    "time": 123.42844799999793,
                    "velocity": 0.48031496062992124,
                    "duration": 0.10267846874999975
                },
                {
                    "name": "F2",
                    "midi": 41,
                    "time": 123.42844799999793,
                    "velocity": 0.48031496062992124,
                    "duration": 0.10267846874999975
                },
                {
                    "name": "D1",
                    "midi": 26,
                    "time": 123.53559074999792,
                    "velocity": 0.48031496062992124,
                    "duration": 0.10267846874999975
                },
                {
                    "name": "A2",
                    "midi": 45,
                    "time": 123.53559074999792,
                    "velocity": 0.48031496062992124,
                    "duration": 0.10267846874999975
                },
                {
                    "name": "F#2",
                    "midi": 42,
                    "time": 123.53559074999792,
                    "velocity": 0.48031496062992124,
                    "duration": 0.10267846874999975
                },
                {
                    "name": "A0",
                    "midi": 21,
                    "time": 123.64273349999792,
                    "velocity": 0.48031496062992124,
                    "duration": 0.10267846874999975
                },
                {
                    "name": "F#2",
                    "midi": 42,
                    "time": 123.64273349999792,
                    "velocity": 0.48031496062992124,
                    "duration": 0.10267846874999975
                },
                {
                    "name": "A1",
                    "midi": 33,
                    "time": 123.74987624999791,
                    "velocity": 0.48031496062992124,
                    "duration": 0.10267846874999975
                },
                {
                    "name": "G2",
                    "midi": 43,
                    "time": 123.74987624999791,
                    "velocity": 0.48031496062992124,
                    "duration": 0.10267846874999975
                },
                {
                    "name": "A#2",
                    "midi": 46,
                    "time": 123.74987624999791,
                    "velocity": 0.48031496062992124,
                    "duration": 0.10267846874999975
                },
                {
                    "name": "D2",
                    "midi": 38,
                    "time": 123.8570189999979,
                    "velocity": 0.48031496062992124,
                    "duration": 0.10267846874999975
                },
                {
                    "name": "G2",
                    "midi": 43,
                    "time": 123.8570189999979,
                    "velocity": 0.48031496062992124,
                    "duration": 0.10267846874999975
                },
                {
                    "name": "D1",
                    "midi": 26,
                    "time": 123.9641617499979,
                    "velocity": 0.48031496062992124,
                    "duration": 0.10267846874999975
                },
                {
                    "name": "G#2",
                    "midi": 44,
                    "time": 123.9641617499979,
                    "velocity": 0.48031496062992124,
                    "duration": 0.10267846874999975
                },
                {
                    "name": "B2",
                    "midi": 47,
                    "time": 123.9641617499979,
                    "velocity": 0.48031496062992124,
                    "duration": 0.10267846874999975
                },
                {
                    "name": "A0",
                    "midi": 21,
                    "time": 124.0713044999979,
                    "velocity": 0.48031496062992124,
                    "duration": 0.10267846874999975
                },
                {
                    "name": "G#2",
                    "midi": 44,
                    "time": 124.0713044999979,
                    "velocity": 0.48031496062992124,
                    "duration": 0.10267846874999975
                },
                {
                    "name": "A1",
                    "midi": 33,
                    "time": 124.17844724999789,
                    "velocity": 0.48031496062992124,
                    "duration": 0.10267846874999975
                },
                {
                    "name": "A2",
                    "midi": 45,
                    "time": 124.17844724999789,
                    "velocity": 0.48031496062992124,
                    "duration": 0.10267846874999975
                },
                {
                    "name": "C3",
                    "midi": 48,
                    "time": 124.17844724999789,
                    "velocity": 0.48031496062992124,
                    "duration": 0.10267846874999975
                },
                {
                    "name": "D2",
                    "midi": 38,
                    "time": 124.28558999999788,
                    "velocity": 0.48031496062992124,
                    "duration": 0.10267846874999975
                },
                {
                    "name": "A2",
                    "midi": 45,
                    "time": 124.28558999999788,
                    "velocity": 0.48031496062992124,
                    "duration": 0.10267846874999975
                },
                {
                    "name": "D1",
                    "midi": 26,
                    "time": 124.39273274999788,
                    "velocity": 0.48031496062992124,
                    "duration": 0.10267846874999975
                },
                {
                    "name": "C#3",
                    "midi": 49,
                    "time": 124.39273274999788,
                    "velocity": 0.48031496062992124,
                    "duration": 0.10267846874999975
                },
                {
                    "name": "A#2",
                    "midi": 46,
                    "time": 124.39273274999788,
                    "velocity": 0.48031496062992124,
                    "duration": 0.10267846874999975
                },
                {
                    "name": "A0",
                    "midi": 21,
                    "time": 124.49987549999787,
                    "velocity": 0.48031496062992124,
                    "duration": 0.10267846874999975
                },
                {
                    "name": "A#2",
                    "midi": 46,
                    "time": 124.49987549999787,
                    "velocity": 0.48031496062992124,
                    "duration": 0.10267846874999975
                },
                {
                    "name": "A1",
                    "midi": 33,
                    "time": 124.60701824999786,
                    "velocity": 0.48031496062992124,
                    "duration": 0.10267846874999975
                },
                {
                    "name": "B2",
                    "midi": 47,
                    "time": 124.60701824999786,
                    "velocity": 0.48031496062992124,
                    "duration": 0.10267846874999975
                },
                {
                    "name": "D3",
                    "midi": 50,
                    "time": 124.60701824999786,
                    "velocity": 0.48031496062992124,
                    "duration": 0.10267846874999975
                },
                {
                    "name": "D2",
                    "midi": 38,
                    "time": 124.71416099999786,
                    "velocity": 0.48031496062992124,
                    "duration": 0.10267846874999975
                },
                {
                    "name": "B2",
                    "midi": 47,
                    "time": 124.71416099999786,
                    "velocity": 0.48031496062992124,
                    "duration": 0.10267846874999975
                },
                {
                    "name": "D1",
                    "midi": 26,
                    "time": 124.82130374999785,
                    "velocity": 0.48031496062992124,
                    "duration": 0.10267846874999975
                },
                {
                    "name": "C3",
                    "midi": 48,
                    "time": 124.82130374999785,
                    "velocity": 0.48031496062992124,
                    "duration": 0.10267846874999975
                },
                {
                    "name": "D#3",
                    "midi": 51,
                    "time": 124.82130374999785,
                    "velocity": 0.48031496062992124,
                    "duration": 0.10267846874999975
                },
                {
                    "name": "A0",
                    "midi": 21,
                    "time": 124.92844649999785,
                    "velocity": 0.48031496062992124,
                    "duration": 0.10267846874999975
                },
                {
                    "name": "C3",
                    "midi": 48,
                    "time": 124.92844649999785,
                    "velocity": 0.48031496062992124,
                    "duration": 0.10267846874999975
                },
                {
                    "name": "A1",
                    "midi": 33,
                    "time": 125.03558924999784,
                    "velocity": 0.48031496062992124,
                    "duration": 0.10267846874999975
                },
                {
                    "name": "C#3",
                    "midi": 49,
                    "time": 125.03558924999784,
                    "velocity": 0.48031496062992124,
                    "duration": 0.10267846874999975
                },
                {
                    "name": "E3",
                    "midi": 52,
                    "time": 125.03558924999784,
                    "velocity": 0.48031496062992124,
                    "duration": 0.10267846874999975
                },
                {
                    "name": "E2",
                    "midi": 40,
                    "time": 125.14273199999784,
                    "velocity": 0.48031496062992124,
                    "duration": 0.10267846874999975
                },
                {
                    "name": "G#3",
                    "midi": 56,
                    "time": 125.14273199999784,
                    "velocity": 0.48031496062992124,
                    "duration": 0.20982121874999393
                },
                {
                    "name": "E1",
                    "midi": 28,
                    "time": 125.24987474999783,
                    "velocity": 0.48031496062992124,
                    "duration": 0.10267846874999975
                },
                {
                    "name": "G3",
                    "midi": 55,
                    "time": 125.24987474999783,
                    "velocity": 0.48031496062992124,
                    "duration": 0.10267846874999975
                },
                {
                    "name": "E3",
                    "midi": 52,
                    "time": 125.24987474999783,
                    "velocity": 0.48031496062992124,
                    "duration": 0.10267846874999975
                },
                {
                    "name": "A0",
                    "midi": 21,
                    "time": 125.35701749999782,
                    "velocity": 0.48031496062992124,
                    "duration": 0.10267846874999975
                },
                {
                    "name": "G#3",
                    "midi": 56,
                    "time": 125.35701749999782,
                    "velocity": 0.48031496062992124,
                    "duration": 0.20982121874999393
                },
                {
                    "name": "E3",
                    "midi": 52,
                    "time": 125.35701749999782,
                    "velocity": 0.48031496062992124,
                    "duration": 0.10267846874999975
                },
                {
                    "name": "G3",
                    "midi": 55,
                    "time": 125.35701749999782,
                    "velocity": 0.48031496062992124,
                    "duration": 0.10267846874999975
                },
                {
                    "name": "A1",
                    "midi": 33,
                    "time": 125.46416024999782,
                    "velocity": 0.48031496062992124,
                    "duration": 0.10267846874999975
                },
                {
                    "name": "F#3",
                    "midi": 54,
                    "time": 125.46416024999782,
                    "velocity": 0.48031496062992124,
                    "duration": 0.10267846874999975
                },
                {
                    "name": "D#3",
                    "midi": 51,
                    "time": 125.46416024999782,
                    "velocity": 0.48031496062992124,
                    "duration": 0.10267846874999975
                },
                {
                    "name": "E2",
                    "midi": 40,
                    "time": 125.57130299999781,
                    "velocity": 0.48031496062992124,
                    "duration": 0.10267846874999975
                },
                {
                    "name": "D#3",
                    "midi": 51,
                    "time": 125.57130299999781,
                    "velocity": 0.48031496062992124,
                    "duration": 0.10267846874999975
                },
                {
                    "name": "G#3",
                    "midi": 56,
                    "time": 125.57130299999781,
                    "velocity": 0.48031496062992124,
                    "duration": 0.20982121874999393
                },
                {
                    "name": "F#3",
                    "midi": 54,
                    "time": 125.57130299999781,
                    "velocity": 0.48031496062992124,
                    "duration": 0.10267846874999975
                },
                {
                    "name": "E1",
                    "midi": 28,
                    "time": 125.6784457499978,
                    "velocity": 0.48031496062992124,
                    "duration": 0.10267846874999975
                },
                {
                    "name": "D3",
                    "midi": 50,
                    "time": 125.6784457499978,
                    "velocity": 0.48031496062992124,
                    "duration": 0.10267846874999975
                },
                {
                    "name": "F3",
                    "midi": 53,
                    "time": 125.6784457499978,
                    "velocity": 0.48031496062992124,
                    "duration": 0.10267846874999975
                },
                {
                    "name": "A0",
                    "midi": 21,
                    "time": 125.7855884999978,
                    "velocity": 0.48031496062992124,
                    "duration": 0.10267846874999975
                },
                {
                    "name": "G#3",
                    "midi": 56,
                    "time": 125.7855884999978,
                    "velocity": 0.48031496062992124,
                    "duration": 0.20982121874999393
                },
                {
                    "name": "D3",
                    "midi": 50,
                    "time": 125.7855884999978,
                    "velocity": 0.48031496062992124,
                    "duration": 0.10267846874999975
                },
                {
                    "name": "F3",
                    "midi": 53,
                    "time": 125.7855884999978,
                    "velocity": 0.48031496062992124,
                    "duration": 0.10267846874999975
                },
                {
                    "name": "A1",
                    "midi": 33,
                    "time": 125.8927312499978,
                    "velocity": 0.48031496062992124,
                    "duration": 0.10267846874999975
                },
                {
                    "name": "C#3",
                    "midi": 49,
                    "time": 125.8927312499978,
                    "velocity": 0.48031496062992124,
                    "duration": 0.10267846874999975
                },
                {
                    "name": "E3",
                    "midi": 52,
                    "time": 125.8927312499978,
                    "velocity": 0.48031496062992124,
                    "duration": 0.10267846874999975
                },
                {
                    "name": "E2",
                    "midi": 40,
                    "time": 125.99987399999779,
                    "velocity": 0.48031496062992124,
                    "duration": 0.10267846874999975
                },
                {
                    "name": "C#3",
                    "midi": 49,
                    "time": 125.99987399999779,
                    "velocity": 0.48031496062992124,
                    "duration": 0.10267846874999975
                },
                {
                    "name": "E3",
                    "midi": 52,
                    "time": 125.99987399999779,
                    "velocity": 0.48031496062992124,
                    "duration": 0.10267846874999975
                },
                {
                    "name": "G#3",
                    "midi": 56,
                    "time": 125.99987399999779,
                    "velocity": 0.48031496062992124,
                    "duration": 0.20982121874999393
                },
                {
                    "name": "E1",
                    "midi": 28,
                    "time": 126.10701674999778,
                    "velocity": 0.48031496062992124,
                    "duration": 0.10267846874999975
                },
                {
                    "name": "D#3",
                    "midi": 51,
                    "time": 126.10701674999778,
                    "velocity": 0.48031496062992124,
                    "duration": 0.10267846874999975
                },
                {
                    "name": "C3",
                    "midi": 48,
                    "time": 126.10701674999778,
                    "velocity": 0.48031496062992124,
                    "duration": 0.10267846874999975
                },
                {
                    "name": "A0",
                    "midi": 21,
                    "time": 126.21415949999778,
                    "velocity": 0.48031496062992124,
                    "duration": 0.10267846874999975
                },
                {
                    "name": "G#3",
                    "midi": 56,
                    "time": 126.21415949999778,
                    "velocity": 0.48031496062992124,
                    "duration": 0.20982121874999393
                },
                {
                    "name": "D#3",
                    "midi": 51,
                    "time": 126.21415949999778,
                    "velocity": 0.48031496062992124,
                    "duration": 0.10267846874999975
                },
                {
                    "name": "C3",
                    "midi": 48,
                    "time": 126.21415949999778,
                    "velocity": 0.48031496062992124,
                    "duration": 0.10267846874999975
                },
                {
                    "name": "A1",
                    "midi": 33,
                    "time": 126.32130224999777,
                    "velocity": 0.48031496062992124,
                    "duration": 0.10267846874999975
                },
                {
                    "name": "D3",
                    "midi": 50,
                    "time": 126.32130224999777,
                    "velocity": 0.48031496062992124,
                    "duration": 0.10267846874999975
                },
                {
                    "name": "B2",
                    "midi": 47,
                    "time": 126.32130224999777,
                    "velocity": 0.48031496062992124,
                    "duration": 0.10267846874999975
                },
                {
                    "name": "E2",
                    "midi": 40,
                    "time": 126.42844499999777,
                    "velocity": 0.48031496062992124,
                    "duration": 0.10267846874999975
                },
                {
                    "name": "G#3",
                    "midi": 56,
                    "time": 126.42844499999777,
                    "velocity": 0.48031496062992124,
                    "duration": 0.20982121874999393
                },
                {
                    "name": "D3",
                    "midi": 50,
                    "time": 126.42844499999777,
                    "velocity": 0.48031496062992124,
                    "duration": 0.10267846874999975
                },
                {
                    "name": "B2",
                    "midi": 47,
                    "time": 126.42844499999777,
                    "velocity": 0.48031496062992124,
                    "duration": 0.10267846874999975
                },
                {
                    "name": "E1",
                    "midi": 28,
                    "time": 126.53558774999776,
                    "velocity": 0.48031496062992124,
                    "duration": 0.10267846874999975
                },
                {
                    "name": "A#2",
                    "midi": 46,
                    "time": 126.53558774999776,
                    "velocity": 0.48031496062992124,
                    "duration": 0.10267846874999975
                },
                {
                    "name": "C#3",
                    "midi": 49,
                    "time": 126.53558774999776,
                    "velocity": 0.48031496062992124,
                    "duration": 0.10267846874999975
                },
                {
                    "name": "A0",
                    "midi": 21,
                    "time": 126.64273049999775,
                    "velocity": 0.48031496062992124,
                    "duration": 0.10267846874999975
                },
                {
                    "name": "A#2",
                    "midi": 46,
                    "time": 126.64273049999775,
                    "velocity": 0.48031496062992124,
                    "duration": 0.10267846874999975
                },
                {
                    "name": "C#3",
                    "midi": 49,
                    "time": 126.64273049999775,
                    "velocity": 0.48031496062992124,
                    "duration": 0.10267846874999975
                },
                {
                    "name": "A3",
                    "midi": 57,
                    "time": 126.64273049999775,
                    "velocity": 0.48031496062992124,
                    "duration": 0.20982121874999393
                },
                {
                    "name": "A1",
                    "midi": 33,
                    "time": 126.74987324999775,
                    "velocity": 0.48031496062992124,
                    "duration": 0.10267846874999975
                },
                {
                    "name": "C3",
                    "midi": 48,
                    "time": 126.74987324999775,
                    "velocity": 0.48031496062992124,
                    "duration": 0.10267846874999975
                },
                {
                    "name": "A2",
                    "midi": 45,
                    "time": 126.74987324999775,
                    "velocity": 0.48031496062992124,
                    "duration": 0.10267846874999975
                },
                {
                    "name": "F2",
                    "midi": 41,
                    "time": 126.85701599999774,
                    "velocity": 0.48031496062992124,
                    "duration": 0.10267846874999975
                },
                {
                    "name": "G#2",
                    "midi": 44,
                    "time": 126.85701599999774,
                    "velocity": 0.48031496062992124,
                    "duration": 0.10267846874999975
                },
                {
                    "name": "F1",
                    "midi": 29,
                    "time": 126.96415874999774,
                    "velocity": 0.48031496062992124,
                    "duration": 0.10267846874999975
                },
                {
                    "name": "A2",
                    "midi": 45,
                    "time": 126.96415874999774,
                    "velocity": 0.48031496062992124,
                    "duration": 0.10267846874999975
                },
                {
                    "name": "C3",
                    "midi": 48,
                    "time": 126.96415874999774,
                    "velocity": 0.48031496062992124,
                    "duration": 0.10267846874999975
                },
                {
                    "name": "C1",
                    "midi": 24,
                    "time": 127.07130149999773,
                    "velocity": 0.48031496062992124,
                    "duration": 0.10267846874999975
                },
                {
                    "name": "A2",
                    "midi": 45,
                    "time": 127.07130149999773,
                    "velocity": 0.48031496062992124,
                    "duration": 0.10267846874999975
                },
                {
                    "name": "C2",
                    "midi": 36,
                    "time": 127.17844424999772,
                    "velocity": 0.48031496062992124,
                    "duration": 0.10267846874999975
                },
                {
                    "name": "A#2",
                    "midi": 46,
                    "time": 127.17844424999772,
                    "velocity": 0.48031496062992124,
                    "duration": 0.10267846874999975
                },
                {
                    "name": "C#3",
                    "midi": 49,
                    "time": 127.17844424999772,
                    "velocity": 0.48031496062992124,
                    "duration": 0.10267846874999975
                },
                {
                    "name": "F2",
                    "midi": 41,
                    "time": 127.28558699999772,
                    "velocity": 0.48031496062992124,
                    "duration": 0.10267846874999975
                },
                {
                    "name": "A#2",
                    "midi": 46,
                    "time": 127.28558699999772,
                    "velocity": 0.48031496062992124,
                    "duration": 0.10267846874999975
                },
                {
                    "name": "F1",
                    "midi": 29,
                    "time": 127.39272974999771,
                    "velocity": 0.48031496062992124,
                    "duration": 0.10267846874999975
                },
                {
                    "name": "B2",
                    "midi": 47,
                    "time": 127.39272974999771,
                    "velocity": 0.48031496062992124,
                    "duration": 0.10267846874999975
                },
                {
                    "name": "D3",
                    "midi": 50,
                    "time": 127.39272974999771,
                    "velocity": 0.48031496062992124,
                    "duration": 0.10267846874999975
                },
                {
                    "name": "C1",
                    "midi": 24,
                    "time": 127.49987249999771,
                    "velocity": 0.48031496062992124,
                    "duration": 0.10267846874999975
                },
                {
                    "name": "B2",
                    "midi": 47,
                    "time": 127.49987249999771,
                    "velocity": 0.48031496062992124,
                    "duration": 0.10267846874999975
                },
                {
                    "name": "C2",
                    "midi": 36,
                    "time": 127.6070152499977,
                    "velocity": 0.48031496062992124,
                    "duration": 0.10267846874999975
                },
                {
                    "name": "D#3",
                    "midi": 51,
                    "time": 127.6070152499977,
                    "velocity": 0.48031496062992124,
                    "duration": 0.10267846874999975
                },
                {
                    "name": "C3",
                    "midi": 48,
                    "time": 127.6070152499977,
                    "velocity": 0.48031496062992124,
                    "duration": 0.10267846874999975
                },
                {
                    "name": "F2",
                    "midi": 41,
                    "time": 127.7141579999977,
                    "velocity": 0.48031496062992124,
                    "duration": 0.10267846874999975
                },
                {
                    "name": "C3",
                    "midi": 48,
                    "time": 127.7141579999977,
                    "velocity": 0.48031496062992124,
                    "duration": 0.10267846874999975
                },
                {
                    "name": "F1",
                    "midi": 29,
                    "time": 127.82130074999769,
                    "velocity": 0.48031496062992124,
                    "duration": 0.10267846874999975
                },
                {
                    "name": "C#3",
                    "midi": 49,
                    "time": 127.82130074999769,
                    "velocity": 0.48031496062992124,
                    "duration": 0.10267846874999975
                },
                {
                    "name": "E3",
                    "midi": 52,
                    "time": 127.82130074999769,
                    "velocity": 0.48031496062992124,
                    "duration": 0.10267846874999975
                },
                {
                    "name": "C1",
                    "midi": 24,
                    "time": 127.92844349999768,
                    "velocity": 0.48031496062992124,
                    "duration": 0.10267846875001396
                },
                {
                    "name": "C#3",
                    "midi": 49,
                    "time": 127.92844349999768,
                    "velocity": 0.48031496062992124,
                    "duration": 0.10267846875001396
                },
                {
                    "name": "C2",
                    "midi": 36,
                    "time": 128.0355862499977,
                    "velocity": 0.48031496062992124,
                    "duration": 0.10267846875001396
                },
                {
                    "name": "D3",
                    "midi": 50,
                    "time": 128.0355862499977,
                    "velocity": 0.48031496062992124,
                    "duration": 0.10267846875001396
                },
                {
                    "name": "F3",
                    "midi": 53,
                    "time": 128.0355862499977,
                    "velocity": 0.48031496062992124,
                    "duration": 0.10267846875001396
                },
                {
                    "name": "F2",
                    "midi": 41,
                    "time": 128.1427289999977,
                    "velocity": 0.48031496062992124,
                    "duration": 0.10267846875001396
                },
                {
                    "name": "D3",
                    "midi": 50,
                    "time": 128.1427289999977,
                    "velocity": 0.48031496062992124,
                    "duration": 0.10267846875001396
                },
                {
                    "name": "F1",
                    "midi": 29,
                    "time": 128.2498717499977,
                    "velocity": 0.48031496062992124,
                    "duration": 0.10267846875001396
                },
                {
                    "name": "F#3",
                    "midi": 54,
                    "time": 128.2498717499977,
                    "velocity": 0.48031496062992124,
                    "duration": 0.10267846875001396
                },
                {
                    "name": "D#3",
                    "midi": 51,
                    "time": 128.2498717499977,
                    "velocity": 0.48031496062992124,
                    "duration": 0.10267846875001396
                },
                {
                    "name": "C1",
                    "midi": 24,
                    "time": 128.35701449999772,
                    "velocity": 0.48031496062992124,
                    "duration": 0.10267846875001396
                },
                {
                    "name": "D#3",
                    "midi": 51,
                    "time": 128.35701449999772,
                    "velocity": 0.48031496062992124,
                    "duration": 0.10267846875001396
                },
                {
                    "name": "C2",
                    "midi": 36,
                    "time": 128.46415724999773,
                    "velocity": 0.48031496062992124,
                    "duration": 0.10267846875001396
                },
                {
                    "name": "E3",
                    "midi": 52,
                    "time": 128.46415724999773,
                    "velocity": 0.48031496062992124,
                    "duration": 0.10267846875001396
                },
                {
                    "name": "G3",
                    "midi": 55,
                    "time": 128.46415724999773,
                    "velocity": 0.48031496062992124,
                    "duration": 0.10267846875001396
                },
                {
                    "name": "G2",
                    "midi": 43,
                    "time": 128.57129999999773,
                    "velocity": 0.48031496062992124,
                    "duration": 0.10267846875001396
                },
                {
                    "name": "B3",
                    "midi": 59,
                    "time": 128.57129999999773,
                    "velocity": 0.48031496062992124,
                    "duration": 0.20982121875002235
                },
                {
                    "name": "G1",
                    "midi": 31,
                    "time": 128.67844274999774,
                    "velocity": 0.48031496062992124,
                    "duration": 0.10267846875001396
                },
                {
                    "name": "G3",
                    "midi": 55,
                    "time": 128.67844274999774,
                    "velocity": 0.48031496062992124,
                    "duration": 0.10267846875001396
                },
                {
                    "name": "A#3",
                    "midi": 58,
                    "time": 128.67844274999774,
                    "velocity": 0.48031496062992124,
                    "duration": 0.10267846875001396
                },
                {
                    "name": "C1",
                    "midi": 24,
                    "time": 128.78558549999775,
                    "velocity": 0.48031496062992124,
                    "duration": 0.10267846875001396
                },
                {
                    "name": "G3",
                    "midi": 55,
                    "time": 128.78558549999775,
                    "velocity": 0.48031496062992124,
                    "duration": 0.10267846875001396
                },
                {
                    "name": "B3",
                    "midi": 59,
                    "time": 128.78558549999775,
                    "velocity": 0.48031496062992124,
                    "duration": 0.20982121875002235
                },
                {
                    "name": "A#3",
                    "midi": 58,
                    "time": 128.78558549999775,
                    "velocity": 0.48031496062992124,
                    "duration": 0.10267846875001396
                },
                {
                    "name": "C2",
                    "midi": 36,
                    "time": 128.89272824999776,
                    "velocity": 0.48031496062992124,
                    "duration": 0.10267846875001396
                },
                {
                    "name": "F#3",
                    "midi": 54,
                    "time": 128.89272824999776,
                    "velocity": 0.48031496062992124,
                    "duration": 0.10267846875001396
                },
                {
                    "name": "A3",
                    "midi": 57,
                    "time": 128.89272824999776,
                    "velocity": 0.48031496062992124,
                    "duration": 0.10267846875001396
                },
                {
                    "name": "G2",
                    "midi": 43,
                    "time": 128.99987099999777,
                    "velocity": 0.48031496062992124,
                    "duration": 0.10267846875001396
                },
                {
                    "name": "F#3",
                    "midi": 54,
                    "time": 128.99987099999777,
                    "velocity": 0.48031496062992124,
                    "duration": 0.10267846875001396
                },
                {
                    "name": "B3",
                    "midi": 59,
                    "time": 128.99987099999777,
                    "velocity": 0.48031496062992124,
                    "duration": 0.20982121875002235
                },
                {
                    "name": "A3",
                    "midi": 57,
                    "time": 128.99987099999777,
                    "velocity": 0.48031496062992124,
                    "duration": 0.10267846875001396
                },
                {
                    "name": "G1",
                    "midi": 31,
                    "time": 129.10701374999778,
                    "velocity": 0.48031496062992124,
                    "duration": 0.10267846875001396
                },
                {
                    "name": "G#3",
                    "midi": 56,
                    "time": 129.10701374999778,
                    "velocity": 0.48031496062992124,
                    "duration": 0.10267846875001396
                },
                {
                    "name": "F3",
                    "midi": 53,
                    "time": 129.10701374999778,
                    "velocity": 0.48031496062992124,
                    "duration": 0.10267846875001396
                },
                {
                    "name": "C1",
                    "midi": 24,
                    "time": 129.21415649999778,
                    "velocity": 0.48031496062992124,
                    "duration": 0.10267846875001396
                },
                {
                    "name": "F3",
                    "midi": 53,
                    "time": 129.21415649999778,
                    "velocity": 0.48031496062992124,
                    "duration": 0.10267846875001396
                },
                {
                    "name": "G#3",
                    "midi": 56,
                    "time": 129.21415649999778,
                    "velocity": 0.48031496062992124,
                    "duration": 0.10267846875001396
                },
                {
                    "name": "B3",
                    "midi": 59,
                    "time": 129.21415649999778,
                    "velocity": 0.48031496062992124,
                    "duration": 0.20982121875002235
                },
                {
                    "name": "C2",
                    "midi": 36,
                    "time": 129.3212992499978,
                    "velocity": 0.48031496062992124,
                    "duration": 0.10267846875001396
                },
                {
                    "name": "E3",
                    "midi": 52,
                    "time": 129.3212992499978,
                    "velocity": 0.48031496062992124,
                    "duration": 0.10267846875001396
                },
                {
                    "name": "G3",
                    "midi": 55,
                    "time": 129.3212992499978,
                    "velocity": 0.48031496062992124,
                    "duration": 0.10267846875001396
                },
                {
                    "name": "B3",
                    "midi": 59,
                    "time": 129.4284419999978,
                    "velocity": 0.48031496062992124,
                    "duration": 0.20982121875002235
                },
                {
                    "name": "G2",
                    "midi": 43,
                    "time": 129.4284419999978,
                    "velocity": 0.48031496062992124,
                    "duration": 0.10267846875001396
                },
                {
                    "name": "G3",
                    "midi": 55,
                    "time": 129.4284419999978,
                    "velocity": 0.48031496062992124,
                    "duration": 0.10267846875001396
                },
                {
                    "name": "E3",
                    "midi": 52,
                    "time": 129.4284419999978,
                    "velocity": 0.48031496062992124,
                    "duration": 0.10267846875001396
                },
                {
                    "name": "G1",
                    "midi": 31,
                    "time": 129.5355847499978,
                    "velocity": 0.48031496062992124,
                    "duration": 0.10267846875001396
                },
                {
                    "name": "D#3",
                    "midi": 51,
                    "time": 129.5355847499978,
                    "velocity": 0.48031496062992124,
                    "duration": 0.10267846875001396
                },
                {
                    "name": "F#3",
                    "midi": 54,
                    "time": 129.5355847499978,
                    "velocity": 0.48031496062992124,
                    "duration": 0.10267846875001396
                },
                {
                    "name": "C1",
                    "midi": 24,
                    "time": 129.64272749999782,
                    "velocity": 0.48031496062992124,
                    "duration": 0.10267846875001396
                },
                {
                    "name": "F#3",
                    "midi": 54,
                    "time": 129.64272749999782,
                    "velocity": 0.48031496062992124,
                    "duration": 0.10267846875001396
                },
                {
                    "name": "D#3",
                    "midi": 51,
                    "time": 129.64272749999782,
                    "velocity": 0.48031496062992124,
                    "duration": 0.10267846875001396
                },
                {
                    "name": "B3",
                    "midi": 59,
                    "time": 129.64272749999782,
                    "velocity": 0.48031496062992124,
                    "duration": 0.20982121875002235
                },
                {
                    "name": "C2",
                    "midi": 36,
                    "time": 129.74987024999783,
                    "velocity": 0.48031496062992124,
                    "duration": 0.10267846875001396
                },
                {
                    "name": "F3",
                    "midi": 53,
                    "time": 129.74987024999783,
                    "velocity": 0.48031496062992124,
                    "duration": 0.10267846875001396
                },
                {
                    "name": "D3",
                    "midi": 50,
                    "time": 129.74987024999783,
                    "velocity": 0.48031496062992124,
                    "duration": 0.10267846875001396
                },
                {
                    "name": "B3",
                    "midi": 59,
                    "time": 129.85701299999783,
                    "velocity": 0.48031496062992124,
                    "duration": 0.20982121875002235
                },
                {
                    "name": "G2",
                    "midi": 43,
                    "time": 129.85701299999783,
                    "velocity": 0.48031496062992124,
                    "duration": 0.10267846875001396
                },
                {
                    "name": "D3",
                    "midi": 50,
                    "time": 129.85701299999783,
                    "velocity": 0.48031496062992124,
                    "duration": 0.10267846875001396
                },
                {
                    "name": "F3",
                    "midi": 53,
                    "time": 129.85701299999783,
                    "velocity": 0.48031496062992124,
                    "duration": 0.10267846875001396
                },
                {
                    "name": "G1",
                    "midi": 31,
                    "time": 129.96415574999784,
                    "velocity": 0.48031496062992124,
                    "duration": 0.10267846875001396
                },
                {
                    "name": "C#3",
                    "midi": 49,
                    "time": 129.96415574999784,
                    "velocity": 0.48031496062992124,
                    "duration": 0.10267846875001396
                },
                {
                    "name": "E3",
                    "midi": 52,
                    "time": 129.96415574999784,
                    "velocity": 0.48031496062992124,
                    "duration": 0.10267846875001396
                },
                {
                    "name": "C1",
                    "midi": 24,
                    "time": 130.07129849999785,
                    "velocity": 0.48031496062992124,
                    "duration": 0.10267846875001396
                },
                {
                    "name": "C4",
                    "midi": 60,
                    "time": 130.07129849999785,
                    "velocity": 0.48031496062992124,
                    "duration": 0.20982121875002235
                },
                {
                    "name": "E3",
                    "midi": 52,
                    "time": 130.07129849999785,
                    "velocity": 0.48031496062992124,
                    "duration": 0.10267846875001396
                },
                {
                    "name": "C#3",
                    "midi": 49,
                    "time": 130.07129849999785,
                    "velocity": 0.48031496062992124,
                    "duration": 0.10267846875001396
                },
                {
                    "name": "C2",
                    "midi": 36,
                    "time": 130.17844124999786,
                    "velocity": 0.48031496062992124,
                    "duration": 0.10267846875001396
                },
                {
                    "name": "C3",
                    "midi": 48,
                    "time": 130.17844124999786,
                    "velocity": 0.48031496062992124,
                    "duration": 0.10267846875001396
                },
                {
                    "name": "D#3",
                    "midi": 51,
                    "time": 130.17844124999786,
                    "velocity": 0.48031496062992124,
                    "duration": 0.10267846875001396
                },
                {
                    "name": "D3",
                    "midi": 50,
                    "time": 130.28558399999787,
                    "velocity": 0.48031496062992124,
                    "duration": 0.10267846875001396
                },
                {
                    "name": "F3",
                    "midi": 53,
                    "time": 130.28558399999787,
                    "velocity": 0.48031496062992124,
                    "duration": 0.10267846875001396
                },
                {
                    "name": "D2",
                    "midi": 38,
                    "time": 130.39272674999788,
                    "velocity": 0.48031496062992124,
                    "duration": 0.10267846875001396
                },
                {
                    "name": "A3",
                    "midi": 57,
                    "time": 130.39272674999788,
                    "velocity": 0.48031496062992124,
                    "duration": 0.10267846875001396
                },
                {
                    "name": "F#3",
                    "midi": 54,
                    "time": 130.39272674999788,
                    "velocity": 0.48031496062992124,
                    "duration": 0.10267846875001396
                },
                {
                    "name": "A1",
                    "midi": 33,
                    "time": 130.49986949999789,
                    "velocity": 0.48031496062992124,
                    "duration": 0.10267846875001396
                },
                {
                    "name": "F#3",
                    "midi": 54,
                    "time": 130.49986949999789,
                    "velocity": 0.48031496062992124,
                    "duration": 0.10267846875001396
                },
                {
                    "name": "A2",
                    "midi": 45,
                    "time": 130.6070122499979,
                    "velocity": 0.48031496062992124,
                    "duration": 0.10267846875001396
                },
                {
                    "name": "G3",
                    "midi": 55,
                    "time": 130.6070122499979,
                    "velocity": 0.48031496062992124,
                    "duration": 0.10267846875001396
                },
                {
                    "name": "A#3",
                    "midi": 58,
                    "time": 130.6070122499979,
                    "velocity": 0.48031496062992124,
                    "duration": 0.10267846875001396
                },
                {
                    "name": "D3",
                    "midi": 50,
                    "time": 130.7141549999979,
                    "velocity": 0.48031496062992124,
                    "duration": 0.10267846875001396
                },
                {
                    "name": "G3",
                    "midi": 55,
                    "time": 130.7141549999979,
                    "velocity": 0.48031496062992124,
                    "duration": 0.10267846875001396
                },
                {
                    "name": "D2",
                    "midi": 38,
                    "time": 130.8212977499979,
                    "velocity": 0.48031496062992124,
                    "duration": 0.10267846875001396
                },
                {
                    "name": "G#3",
                    "midi": 56,
                    "time": 130.8212977499979,
                    "velocity": 0.48031496062992124,
                    "duration": 0.10267846875001396
                },
                {
                    "name": "B3",
                    "midi": 59,
                    "time": 130.8212977499979,
                    "velocity": 0.48031496062992124,
                    "duration": 0.10267846875001396
                },
                {
                    "name": "A1",
                    "midi": 33,
                    "time": 130.92844049999792,
                    "velocity": 0.48031496062992124,
                    "duration": 0.10267846875001396
                },
                {
                    "name": "G#3",
                    "midi": 56,
                    "time": 130.92844049999792,
                    "velocity": 0.48031496062992124,
                    "duration": 0.10267846875001396
                },
                {
                    "name": "A2",
                    "midi": 45,
                    "time": 131.03558324999793,
                    "velocity": 0.48031496062992124,
                    "duration": 0.10267846875001396
                },
                {
                    "name": "A3",
                    "midi": 57,
                    "time": 131.03558324999793,
                    "velocity": 0.48031496062992124,
                    "duration": 0.10267846875001396
                },
                {
                    "name": "C4",
                    "midi": 60,
                    "time": 131.03558324999793,
                    "velocity": 0.48031496062992124,
                    "duration": 0.10267846875001396
                },
                {
                    "name": "D3",
                    "midi": 50,
                    "time": 131.14272599999794,
                    "velocity": 0.48031496062992124,
                    "duration": 0.10267846875001396
                },
                {
                    "name": "A3",
                    "midi": 57,
                    "time": 131.14272599999794,
                    "velocity": 0.48031496062992124,
                    "duration": 0.10267846875001396
                },
                {
                    "name": "D2",
                    "midi": 38,
                    "time": 131.24986874999794,
                    "velocity": 0.48031496062992124,
                    "duration": 0.10267846875001396
                },
                {
                    "name": "C#4",
                    "midi": 61,
                    "time": 131.24986874999794,
                    "velocity": 0.48031496062992124,
                    "duration": 0.10267846875001396
                },
                {
                    "name": "A#3",
                    "midi": 58,
                    "time": 131.24986874999794,
                    "velocity": 0.48031496062992124,
                    "duration": 0.10267846875001396
                },
                {
                    "name": "A1",
                    "midi": 33,
                    "time": 131.35701149999795,
                    "velocity": 0.48031496062992124,
                    "duration": 0.10267846875001396
                },
                {
                    "name": "A#3",
                    "midi": 58,
                    "time": 131.35701149999795,
                    "velocity": 0.48031496062992124,
                    "duration": 0.10267846875001396
                },
                {
                    "name": "A2",
                    "midi": 45,
                    "time": 131.46415424999796,
                    "velocity": 0.48031496062992124,
                    "duration": 0.10267846875001396
                },
                {
                    "name": "B3",
                    "midi": 59,
                    "time": 131.46415424999796,
                    "velocity": 0.48031496062992124,
                    "duration": 0.10267846875001396
                },
                {
                    "name": "D4",
                    "midi": 62,
                    "time": 131.46415424999796,
                    "velocity": 0.48031496062992124,
                    "duration": 0.10267846875001396
                },
                {
                    "name": "D3",
                    "midi": 50,
                    "time": 131.57129699999797,
                    "velocity": 0.48031496062992124,
                    "duration": 0.10267846875001396
                },
                {
                    "name": "B3",
                    "midi": 59,
                    "time": 131.57129699999797,
                    "velocity": 0.48031496062992124,
                    "duration": 0.10267846875001396
                },
                {
                    "name": "D2",
                    "midi": 38,
                    "time": 131.67843974999798,
                    "velocity": 0.48031496062992124,
                    "duration": 0.10267846875001396
                },
                {
                    "name": "C4",
                    "midi": 60,
                    "time": 131.67843974999798,
                    "velocity": 0.48031496062992124,
                    "duration": 0.10267846875001396
                },
                {
                    "name": "D#4",
                    "midi": 63,
                    "time": 131.67843974999798,
                    "velocity": 0.48031496062992124,
                    "duration": 0.10267846875001396
                },
                {
                    "name": "A1",
                    "midi": 33,
                    "time": 131.785582499998,
                    "velocity": 0.48031496062992124,
                    "duration": 0.10267846875001396
                },
                {
                    "name": "C4",
                    "midi": 60,
                    "time": 131.785582499998,
                    "velocity": 0.48031496062992124,
                    "duration": 0.10267846875001396
                },
                {
                    "name": "A2",
                    "midi": 45,
                    "time": 131.892725249998,
                    "velocity": 0.48031496062992124,
                    "duration": 0.10267846875001396
                },
                {
                    "name": "C#4",
                    "midi": 61,
                    "time": 131.892725249998,
                    "velocity": 0.48031496062992124,
                    "duration": 0.10267846875001396
                },
                {
                    "name": "E4",
                    "midi": 64,
                    "time": 131.892725249998,
                    "velocity": 0.48031496062992124,
                    "duration": 0.10267846875001396
                },
                {
                    "name": "E3",
                    "midi": 52,
                    "time": 131.999867999998,
                    "velocity": 0.48031496062992124,
                    "duration": 0.10267846875001396
                },
                {
                    "name": "G#4",
                    "midi": 68,
                    "time": 131.999867999998,
                    "velocity": 0.48031496062992124,
                    "duration": 0.20982121875002235
                },
                {
                    "name": "E2",
                    "midi": 40,
                    "time": 132.107010749998,
                    "velocity": 0.48031496062992124,
                    "duration": 0.10267846875001396
                },
                {
                    "name": "G4",
                    "midi": 67,
                    "time": 132.107010749998,
                    "velocity": 0.48031496062992124,
                    "duration": 0.10267846875001396
                },
                {
                    "name": "E4",
                    "midi": 64,
                    "time": 132.107010749998,
                    "velocity": 0.48031496062992124,
                    "duration": 0.10267846875001396
                },
                {
                    "name": "A1",
                    "midi": 33,
                    "time": 132.21415349999802,
                    "velocity": 0.48031496062992124,
                    "duration": 0.10267846875001396
                },
                {
                    "name": "G#4",
                    "midi": 68,
                    "time": 132.21415349999802,
                    "velocity": 0.48031496062992124,
                    "duration": 0.20982121875002235
                },
                {
                    "name": "E4",
                    "midi": 64,
                    "time": 132.21415349999802,
                    "velocity": 0.48031496062992124,
                    "duration": 0.10267846875001396
                },
                {
                    "name": "G4",
                    "midi": 67,
                    "time": 132.21415349999802,
                    "velocity": 0.48031496062992124,
                    "duration": 0.10267846875001396
                },
                {
                    "name": "A2",
                    "midi": 45,
                    "time": 132.32129624999803,
                    "velocity": 0.48031496062992124,
                    "duration": 0.10267846875001396
                },
                {
                    "name": "F#4",
                    "midi": 66,
                    "time": 132.32129624999803,
                    "velocity": 0.48031496062992124,
                    "duration": 0.10267846875001396
                },
                {
                    "name": "D#4",
                    "midi": 63,
                    "time": 132.32129624999803,
                    "velocity": 0.48031496062992124,
                    "duration": 0.10267846875001396
                },
                {
                    "name": "E3",
                    "midi": 52,
                    "time": 132.42843899999804,
                    "velocity": 0.48031496062992124,
                    "duration": 0.10267846875001396
                },
                {
                    "name": "D#4",
                    "midi": 63,
                    "time": 132.42843899999804,
                    "velocity": 0.48031496062992124,
                    "duration": 0.10267846875001396
                },
                {
                    "name": "G#4",
                    "midi": 68,
                    "time": 132.42843899999804,
                    "velocity": 0.48031496062992124,
                    "duration": 0.20982121875002235
                },
                {
                    "name": "F#4",
                    "midi": 66,
                    "time": 132.42843899999804,
                    "velocity": 0.48031496062992124,
                    "duration": 0.10267846875001396
                },
                {
                    "name": "E2",
                    "midi": 40,
                    "time": 132.53558174999804,
                    "velocity": 0.48031496062992124,
                    "duration": 0.10267846875001396
                },
                {
                    "name": "D4",
                    "midi": 62,
                    "time": 132.53558174999804,
                    "velocity": 0.48031496062992124,
                    "duration": 0.10267846875001396
                },
                {
                    "name": "F4",
                    "midi": 65,
                    "time": 132.53558174999804,
                    "velocity": 0.48031496062992124,
                    "duration": 0.10267846875001396
                },
                {
                    "name": "A1",
                    "midi": 33,
                    "time": 132.64272449999805,
                    "velocity": 0.48031496062992124,
                    "duration": 0.10267846875001396
                },
                {
                    "name": "G#4",
                    "midi": 68,
                    "time": 132.64272449999805,
                    "velocity": 0.48031496062992124,
                    "duration": 0.20982121875002235
                },
                {
                    "name": "D4",
                    "midi": 62,
                    "time": 132.64272449999805,
                    "velocity": 0.48031496062992124,
                    "duration": 0.10267846875001396
                },
                {
                    "name": "F4",
                    "midi": 65,
                    "time": 132.64272449999805,
                    "velocity": 0.48031496062992124,
                    "duration": 0.10267846875001396
                },
                {
                    "name": "A2",
                    "midi": 45,
                    "time": 132.74986724999806,
                    "velocity": 0.48031496062992124,
                    "duration": 0.10267846875001396
                },
                {
                    "name": "C#4",
                    "midi": 61,
                    "time": 132.74986724999806,
                    "velocity": 0.48031496062992124,
                    "duration": 0.10267846875001396
                },
                {
                    "name": "E4",
                    "midi": 64,
                    "time": 132.74986724999806,
                    "velocity": 0.48031496062992124,
                    "duration": 0.10267846875001396
                },
                {
                    "name": "E3",
                    "midi": 52,
                    "time": 132.85700999999807,
                    "velocity": 0.48031496062992124,
                    "duration": 0.10267846875001396
                },
                {
                    "name": "C#4",
                    "midi": 61,
                    "time": 132.85700999999807,
                    "velocity": 0.48031496062992124,
                    "duration": 0.10267846875001396
                },
                {
                    "name": "E4",
                    "midi": 64,
                    "time": 132.85700999999807,
                    "velocity": 0.48031496062992124,
                    "duration": 0.10267846875001396
                },
                {
                    "name": "G#4",
                    "midi": 68,
                    "time": 132.85700999999807,
                    "velocity": 0.48031496062992124,
                    "duration": 0.20982121875002235
                },
                {
                    "name": "E2",
                    "midi": 40,
                    "time": 132.96415274999808,
                    "velocity": 0.48031496062992124,
                    "duration": 0.10267846875001396
                },
                {
                    "name": "D#4",
                    "midi": 63,
                    "time": 132.96415274999808,
                    "velocity": 0.48031496062992124,
                    "duration": 0.10267846875001396
                },
                {
                    "name": "C4",
                    "midi": 60,
                    "time": 132.96415274999808,
                    "velocity": 0.48031496062992124,
                    "duration": 0.10267846875001396
                },
                {
                    "name": "A1",
                    "midi": 33,
                    "time": 133.0712954999981,
                    "velocity": 0.48031496062992124,
                    "duration": 0.10267846875001396
                },
                {
                    "name": "G#4",
                    "midi": 68,
                    "time": 133.0712954999981,
                    "velocity": 0.48031496062992124,
                    "duration": 0.20982121875002235
                },
                {
                    "name": "D#4",
                    "midi": 63,
                    "time": 133.0712954999981,
                    "velocity": 0.48031496062992124,
                    "duration": 0.10267846875001396
                },
                {
                    "name": "C4",
                    "midi": 60,
                    "time": 133.0712954999981,
                    "velocity": 0.48031496062992124,
                    "duration": 0.10267846875001396
                },
                {
                    "name": "A2",
                    "midi": 45,
                    "time": 133.1784382499981,
                    "velocity": 0.48031496062992124,
                    "duration": 0.10267846875001396
                },
                {
                    "name": "D4",
                    "midi": 62,
                    "time": 133.1784382499981,
                    "velocity": 0.48031496062992124,
                    "duration": 0.10267846875001396
                },
                {
                    "name": "B3",
                    "midi": 59,
                    "time": 133.1784382499981,
                    "velocity": 0.48031496062992124,
                    "duration": 0.10267846875001396
                },
                {
                    "name": "E3",
                    "midi": 52,
                    "time": 133.2855809999981,
                    "velocity": 0.48031496062992124,
                    "duration": 0.10267846875001396
                },
                {
                    "name": "G#4",
                    "midi": 68,
                    "time": 133.2855809999981,
                    "velocity": 0.48031496062992124,
                    "duration": 0.20982121875002235
                },
                {
                    "name": "D4",
                    "midi": 62,
                    "time": 133.2855809999981,
                    "velocity": 0.48031496062992124,
                    "duration": 0.10267846875001396
                },
                {
                    "name": "B3",
                    "midi": 59,
                    "time": 133.2855809999981,
                    "velocity": 0.48031496062992124,
                    "duration": 0.10267846875001396
                },
                {
                    "name": "E2",
                    "midi": 40,
                    "time": 133.3927237499981,
                    "velocity": 0.48031496062992124,
                    "duration": 0.10267846875001396
                },
                {
                    "name": "A#3",
                    "midi": 58,
                    "time": 133.3927237499981,
                    "velocity": 0.48031496062992124,
                    "duration": 0.10267846875001396
                },
                {
                    "name": "C#4",
                    "midi": 61,
                    "time": 133.3927237499981,
                    "velocity": 0.48031496062992124,
                    "duration": 0.10267846875001396
                },
                {
                    "name": "A1",
                    "midi": 33,
                    "time": 133.49986649999812,
                    "velocity": 0.48031496062992124,
                    "duration": 0.10267846875001396
                },
                {
                    "name": "A#3",
                    "midi": 58,
                    "time": 133.49986649999812,
                    "velocity": 0.48031496062992124,
                    "duration": 0.10267846875001396
                },
                {
                    "name": "C#4",
                    "midi": 61,
                    "time": 133.49986649999812,
                    "velocity": 0.48031496062992124,
                    "duration": 0.10267846875001396
                },
                {
                    "name": "A4",
                    "midi": 69,
                    "time": 133.49986649999812,
                    "velocity": 0.48031496062992124,
                    "duration": 0.20982121875002235
                },
                {
                    "name": "A2",
                    "midi": 45,
                    "time": 133.60700924999813,
                    "velocity": 0.48031496062992124,
                    "duration": 0.10267846875001396
                },
                {
                    "name": "C4",
                    "midi": 60,
                    "time": 133.60700924999813,
                    "velocity": 0.48031496062992124,
                    "duration": 0.10267846875001396
                },
                {
                    "name": "A3",
                    "midi": 57,
                    "time": 133.60700924999813,
                    "velocity": 0.48031496062992124,
                    "duration": 0.10267846875001396
                },
                {
                    "name": "F3",
                    "midi": 53,
                    "time": 133.71415199999814,
                    "velocity": 0.48031496062992124,
                    "duration": 0.10267846875001396
                },
                {
                    "name": "G#3",
                    "midi": 56,
                    "time": 133.71415199999814,
                    "velocity": 0.48031496062992124,
                    "duration": 0.10267846875001396
                },
                {
                    "name": "F2",
                    "midi": 41,
                    "time": 133.82129474999815,
                    "velocity": 0.48031496062992124,
                    "duration": 0.10267846875001396
                },
                {
                    "name": "A3",
                    "midi": 57,
                    "time": 133.82129474999815,
                    "velocity": 0.48031496062992124,
                    "duration": 0.10267846875001396
                },
                {
                    "name": "C4",
                    "midi": 60,
                    "time": 133.82129474999815,
                    "velocity": 0.48031496062992124,
                    "duration": 0.10267846875001396
                },
                {
                    "name": "C2",
                    "midi": 36,
                    "time": 133.92843749999815,
                    "velocity": 0.48031496062992124,
                    "duration": 0.10267846875001396
                },
                {
                    "name": "A3",
                    "midi": 57,
                    "time": 133.92843749999815,
                    "velocity": 0.48031496062992124,
                    "duration": 0.10267846875001396
                },
                {
                    "name": "C3",
                    "midi": 48,
                    "time": 134.03558024999816,
                    "velocity": 0.48031496062992124,
                    "duration": 0.10267846875001396
                },
                {
                    "name": "A#3",
                    "midi": 58,
                    "time": 134.03558024999816,
                    "velocity": 0.48031496062992124,
                    "duration": 0.10267846875001396
                },
                {
                    "name": "C#4",
                    "midi": 61,
                    "time": 134.03558024999816,
                    "velocity": 0.48031496062992124,
                    "duration": 0.10267846875001396
                },
                {
                    "name": "F3",
                    "midi": 53,
                    "time": 134.14272299999817,
                    "velocity": 0.48031496062992124,
                    "duration": 0.10267846875001396
                },
                {
                    "name": "A#3",
                    "midi": 58,
                    "time": 134.14272299999817,
                    "velocity": 0.48031496062992124,
                    "duration": 0.10267846875001396
                },
                {
                    "name": "F2",
                    "midi": 41,
                    "time": 134.24986574999818,
                    "velocity": 0.48031496062992124,
                    "duration": 0.10267846875001396
                },
                {
                    "name": "B3",
                    "midi": 59,
                    "time": 134.24986574999818,
                    "velocity": 0.48031496062992124,
                    "duration": 0.10267846875001396
                },
                {
                    "name": "D4",
                    "midi": 62,
                    "time": 134.24986574999818,
                    "velocity": 0.48031496062992124,
                    "duration": 0.10267846875001396
                },
                {
                    "name": "C2",
                    "midi": 36,
                    "time": 134.3570084999982,
                    "velocity": 0.48031496062992124,
                    "duration": 0.10267846875001396
                },
                {
                    "name": "B3",
                    "midi": 59,
                    "time": 134.3570084999982,
                    "velocity": 0.48031496062992124,
                    "duration": 0.10267846875001396
                },
                {
                    "name": "C3",
                    "midi": 48,
                    "time": 134.4641512499982,
                    "velocity": 0.48031496062992124,
                    "duration": 0.10267846875001396
                },
                {
                    "name": "D#4",
                    "midi": 63,
                    "time": 134.4641512499982,
                    "velocity": 0.48031496062992124,
                    "duration": 0.10267846875001396
                },
                {
                    "name": "C4",
                    "midi": 60,
                    "time": 134.4641512499982,
                    "velocity": 0.48031496062992124,
                    "duration": 0.10267846875001396
                },
                {
                    "name": "F3",
                    "midi": 53,
                    "time": 134.5712939999982,
                    "velocity": 0.48031496062992124,
                    "duration": 0.10267846875001396
                },
                {
                    "name": "C4",
                    "midi": 60,
                    "time": 134.5712939999982,
                    "velocity": 0.48031496062992124,
                    "duration": 0.10267846875001396
                },
                {
                    "name": "F2",
                    "midi": 41,
                    "time": 134.6784367499982,
                    "velocity": 0.48031496062992124,
                    "duration": 0.10267846875001396
                },
                {
                    "name": "C#4",
                    "midi": 61,
                    "time": 134.6784367499982,
                    "velocity": 0.48031496062992124,
                    "duration": 0.10267846875001396
                },
                {
                    "name": "E4",
                    "midi": 64,
                    "time": 134.6784367499982,
                    "velocity": 0.48031496062992124,
                    "duration": 0.10267846875001396
                },
                {
                    "name": "C2",
                    "midi": 36,
                    "time": 134.78557949999822,
                    "velocity": 0.48031496062992124,
                    "duration": 0.10267846875001396
                },
                {
                    "name": "C#4",
                    "midi": 61,
                    "time": 134.78557949999822,
                    "velocity": 0.48031496062992124,
                    "duration": 0.10267846875001396
                },
                {
                    "name": "C3",
                    "midi": 48,
                    "time": 134.89272224999823,
                    "velocity": 0.48031496062992124,
                    "duration": 0.10267846875001396
                },
                {
                    "name": "D4",
                    "midi": 62,
                    "time": 134.89272224999823,
                    "velocity": 0.48031496062992124,
                    "duration": 0.10267846875001396
                },
                {
                    "name": "F4",
                    "midi": 65,
                    "time": 134.89272224999823,
                    "velocity": 0.48031496062992124,
                    "duration": 0.10267846875001396
                },
                {
                    "name": "F3",
                    "midi": 53,
                    "time": 134.99986499999824,
                    "velocity": 0.48031496062992124,
                    "duration": 0.10267846875001396
                },
                {
                    "name": "D4",
                    "midi": 62,
                    "time": 134.99986499999824,
                    "velocity": 0.48031496062992124,
                    "duration": 0.10267846875001396
                },
                {
                    "name": "F2",
                    "midi": 41,
                    "time": 135.10700774999825,
                    "velocity": 0.48031496062992124,
                    "duration": 0.10267846875001396
                },
                {
                    "name": "F#4",
                    "midi": 66,
                    "time": 135.10700774999825,
                    "velocity": 0.48031496062992124,
                    "duration": 0.10267846875001396
                },
                {
                    "name": "D#4",
                    "midi": 63,
                    "time": 135.10700774999825,
                    "velocity": 0.48031496062992124,
                    "duration": 0.10267846875001396
                },
                {
                    "name": "C2",
                    "midi": 36,
                    "time": 135.21415049999825,
                    "velocity": 0.48031496062992124,
                    "duration": 0.10267846875001396
                },
                {
                    "name": "D#4",
                    "midi": 63,
                    "time": 135.21415049999825,
                    "velocity": 0.48031496062992124,
                    "duration": 0.10267846875001396
                },
                {
                    "name": "C3",
                    "midi": 48,
                    "time": 135.32129324999826,
                    "velocity": 0.48031496062992124,
                    "duration": 0.10267846875001396
                },
                {
                    "name": "E4",
                    "midi": 64,
                    "time": 135.32129324999826,
                    "velocity": 0.48031496062992124,
                    "duration": 0.10267846875001396
                },
                {
                    "name": "G4",
                    "midi": 67,
                    "time": 135.32129324999826,
                    "velocity": 0.48031496062992124,
                    "duration": 0.10267846875001396
                },
                {
                    "name": "G3",
                    "midi": 55,
                    "time": 135.42843599999827,
                    "velocity": 0.48031496062992124,
                    "duration": 0.10267846875001396
                },
                {
                    "name": "B4",
                    "midi": 71,
                    "time": 135.42843599999827,
                    "velocity": 0.48031496062992124,
                    "duration": 0.20982121875002235
                },
                {
                    "name": "G2",
                    "midi": 43,
                    "time": 135.53557874999828,
                    "velocity": 0.48031496062992124,
                    "duration": 0.10267846875001396
                },
                {
                    "name": "G4",
                    "midi": 67,
                    "time": 135.53557874999828,
                    "velocity": 0.48031496062992124,
                    "duration": 0.10267846875001396
                },
                {
                    "name": "A#4",
                    "midi": 70,
                    "time": 135.53557874999828,
                    "velocity": 0.48031496062992124,
                    "duration": 0.10267846875001396
                },
                {
                    "name": "C2",
                    "midi": 36,
                    "time": 135.6427214999983,
                    "velocity": 0.48031496062992124,
                    "duration": 0.10267846875001396
                },
                {
                    "name": "G4",
                    "midi": 67,
                    "time": 135.6427214999983,
                    "velocity": 0.48031496062992124,
                    "duration": 0.10267846875001396
                },
                {
                    "name": "B4",
                    "midi": 71,
                    "time": 135.6427214999983,
                    "velocity": 0.48031496062992124,
                    "duration": 0.20982121875002235
                },
                {
                    "name": "A#4",
                    "midi": 70,
                    "time": 135.6427214999983,
                    "velocity": 0.48031496062992124,
                    "duration": 0.10267846875001396
                },
                {
                    "name": "C3",
                    "midi": 48,
                    "time": 135.7498642499983,
                    "velocity": 0.48031496062992124,
                    "duration": 0.10267846875001396
                },
                {
                    "name": "F#4",
                    "midi": 66,
                    "time": 135.7498642499983,
                    "velocity": 0.48031496062992124,
                    "duration": 0.10267846875001396
                },
                {
                    "name": "A4",
                    "midi": 69,
                    "time": 135.7498642499983,
                    "velocity": 0.48031496062992124,
                    "duration": 0.10267846875001396
                },
                {
                    "name": "G3",
                    "midi": 55,
                    "time": 135.8570069999983,
                    "velocity": 0.48031496062992124,
                    "duration": 0.10267846875001396
                },
                {
                    "name": "F#4",
                    "midi": 66,
                    "time": 135.8570069999983,
                    "velocity": 0.48031496062992124,
                    "duration": 0.10267846875001396
                },
                {
                    "name": "B4",
                    "midi": 71,
                    "time": 135.8570069999983,
                    "velocity": 0.48031496062992124,
                    "duration": 0.20982121875002235
                },
                {
                    "name": "A4",
                    "midi": 69,
                    "time": 135.8570069999983,
                    "velocity": 0.48031496062992124,
                    "duration": 0.10267846875001396
                },
                {
                    "name": "G2",
                    "midi": 43,
                    "time": 135.9641497499983,
                    "velocity": 0.48031496062992124,
                    "duration": 0.10267846875001396
                },
                {
                    "name": "G#4",
                    "midi": 68,
                    "time": 135.9641497499983,
                    "velocity": 0.48031496062992124,
                    "duration": 0.10267846875001396
                },
                {
                    "name": "F4",
                    "midi": 65,
                    "time": 135.9641497499983,
                    "velocity": 0.48031496062992124,
                    "duration": 0.10267846875001396
                },
                {
                    "name": "C2",
                    "midi": 36,
                    "time": 136.07129249999832,
                    "velocity": 0.48031496062992124,
                    "duration": 0.10267846875001396
                },
                {
                    "name": "F4",
                    "midi": 65,
                    "time": 136.07129249999832,
                    "velocity": 0.48031496062992124,
                    "duration": 0.10267846875001396
                },
                {
                    "name": "G#4",
                    "midi": 68,
                    "time": 136.07129249999832,
                    "velocity": 0.48031496062992124,
                    "duration": 0.10267846875001396
                },
                {
                    "name": "B4",
                    "midi": 71,
                    "time": 136.07129249999832,
                    "velocity": 0.48031496062992124,
                    "duration": 0.20982121875002235
                },
                {
                    "name": "C3",
                    "midi": 48,
                    "time": 136.17843524999833,
                    "velocity": 0.48031496062992124,
                    "duration": 0.10267846875001396
                },
                {
                    "name": "E4",
                    "midi": 64,
                    "time": 136.17843524999833,
                    "velocity": 0.48031496062992124,
                    "duration": 0.10267846875001396
                },
                {
                    "name": "G4",
                    "midi": 67,
                    "time": 136.17843524999833,
                    "velocity": 0.48031496062992124,
                    "duration": 0.10267846875001396
                },
                {
                    "name": "B4",
                    "midi": 71,
                    "time": 136.28557799999834,
                    "velocity": 0.48031496062992124,
                    "duration": 0.20982121875002235
                },
                {
                    "name": "G3",
                    "midi": 55,
                    "time": 136.28557799999834,
                    "velocity": 0.48031496062992124,
                    "duration": 0.10267846875001396
                },
                {
                    "name": "G4",
                    "midi": 67,
                    "time": 136.28557799999834,
                    "velocity": 0.48031496062992124,
                    "duration": 0.10267846875001396
                },
                {
                    "name": "E4",
                    "midi": 64,
                    "time": 136.28557799999834,
                    "velocity": 0.48031496062992124,
                    "duration": 0.10267846875001396
                },
                {
                    "name": "G2",
                    "midi": 43,
                    "time": 136.39272074999835,
                    "velocity": 0.48031496062992124,
                    "duration": 0.10267846875001396
                },
                {
                    "name": "D#4",
                    "midi": 63,
                    "time": 136.39272074999835,
                    "velocity": 0.48031496062992124,
                    "duration": 0.10267846875001396
                },
                {
                    "name": "F#4",
                    "midi": 66,
                    "time": 136.39272074999835,
                    "velocity": 0.48031496062992124,
                    "duration": 0.10267846875001396
                },
                {
                    "name": "C2",
                    "midi": 36,
                    "time": 136.49986349999836,
                    "velocity": 0.48031496062992124,
                    "duration": 0.10267846875001396
                },
                {
                    "name": "F#4",
                    "midi": 66,
                    "time": 136.49986349999836,
                    "velocity": 0.48031496062992124,
                    "duration": 0.10267846875001396
                },
                {
                    "name": "D#4",
                    "midi": 63,
                    "time": 136.49986349999836,
                    "velocity": 0.48031496062992124,
                    "duration": 0.10267846875001396
                },
                {
                    "name": "B4",
                    "midi": 71,
                    "time": 136.49986349999836,
                    "velocity": 0.48031496062992124,
                    "duration": 0.20982121875002235
                },
                {
                    "name": "C3",
                    "midi": 48,
                    "time": 136.60700624999836,
                    "velocity": 0.48031496062992124,
                    "duration": 0.10267846875001396
                },
                {
                    "name": "F4",
                    "midi": 65,
                    "time": 136.60700624999836,
                    "velocity": 0.48031496062992124,
                    "duration": 0.10267846875001396
                },
                {
                    "name": "D4",
                    "midi": 62,
                    "time": 136.60700624999836,
                    "velocity": 0.48031496062992124,
                    "duration": 0.10267846875001396
                },
                {
                    "name": "B4",
                    "midi": 71,
                    "time": 136.71414899999837,
                    "velocity": 0.48031496062992124,
                    "duration": 0.20982121875002235
                },
                {
                    "name": "G3",
                    "midi": 55,
                    "time": 136.71414899999837,
                    "velocity": 0.48031496062992124,
                    "duration": 0.10267846875001396
                },
                {
                    "name": "D4",
                    "midi": 62,
                    "time": 136.71414899999837,
                    "velocity": 0.48031496062992124,
                    "duration": 0.10267846875001396
                },
                {
                    "name": "F4",
                    "midi": 65,
                    "time": 136.71414899999837,
                    "velocity": 0.48031496062992124,
                    "duration": 0.10267846875001396
                },
                {
                    "name": "G2",
                    "midi": 43,
                    "time": 136.82129174999838,
                    "velocity": 0.48031496062992124,
                    "duration": 0.10267846875001396
                },
                {
                    "name": "C#4",
                    "midi": 61,
                    "time": 136.82129174999838,
                    "velocity": 0.48031496062992124,
                    "duration": 0.10267846875001396
                },
                {
                    "name": "E4",
                    "midi": 64,
                    "time": 136.82129174999838,
                    "velocity": 0.48031496062992124,
                    "duration": 0.10267846875001396
                },
                {
                    "name": "C2",
                    "midi": 36,
                    "time": 136.9284344999984,
                    "velocity": 0.48031496062992124,
                    "duration": 0.10267846875001396
                },
                {
                    "name": "C5",
                    "midi": 72,
                    "time": 136.9284344999984,
                    "velocity": 0.48031496062992124,
                    "duration": 0.20982121875002235
                },
                {
                    "name": "E4",
                    "midi": 64,
                    "time": 136.9284344999984,
                    "velocity": 0.48031496062992124,
                    "duration": 0.10267846875001396
                },
                {
                    "name": "C#4",
                    "midi": 61,
                    "time": 136.9284344999984,
                    "velocity": 0.48031496062992124,
                    "duration": 0.10267846875001396
                },
                {
                    "name": "C3",
                    "midi": 48,
                    "time": 137.0355772499984,
                    "velocity": 0.48031496062992124,
                    "duration": 0.10267846875001396
                },
                {
                    "name": "C4",
                    "midi": 60,
                    "time": 137.0355772499984,
                    "velocity": 0.48031496062992124,
                    "duration": 0.10267846875001396
                },
                {
                    "name": "D#4",
                    "midi": 63,
                    "time": 137.0355772499984,
                    "velocity": 0.48031496062992124,
                    "duration": 0.10267846875001396
                },
                {
                    "name": "E3",
                    "midi": 52,
                    "time": 137.1427199999984,
                    "velocity": 0.48031496062992124,
                    "duration": 0.10714275000000839
                },
                {
                    "name": "C#4",
                    "midi": 61,
                    "time": 137.1427199999984,
                    "velocity": 0.48031496062992124,
                    "duration": 0.10714275000000839
                },
                {
                    "name": "C#3",
                    "midi": 49,
                    "time": 137.2498627499984,
                    "velocity": 0.48031496062992124,
                    "duration": 0.10267846875001396
                },
                {
                    "name": "E4",
                    "midi": 64,
                    "time": 137.2498627499984,
                    "velocity": 0.48031496062992124,
                    "duration": 0.10267846875001396
                },
                {
                    "name": "E5",
                    "midi": 76,
                    "time": 137.35700549999842,
                    "velocity": 0.48031496062992124,
                    "duration": 0.10714275000000839
                },
                {
                    "name": "C#2",
                    "midi": 37,
                    "time": 137.35700549999842,
                    "velocity": 0.48031496062992124,
                    "duration": 0.10267846875001396
                },
                {
                    "name": "D#5",
                    "midi": 75,
                    "time": 137.46414824999843,
                    "velocity": 0.48031496062992124,
                    "duration": 0.10714275000000839
                },
                {
                    "name": "C#3",
                    "midi": 49,
                    "time": 137.46414824999843,
                    "velocity": 0.48031496062992124,
                    "duration": 0.10267846875001396
                },
                {
                    "name": "C#4",
                    "midi": 61,
                    "time": 137.57129099999844,
                    "velocity": 0.48031496062992124,
                    "duration": 0.10267846875001396
                },
                {
                    "name": "F5",
                    "midi": 77,
                    "time": 137.57129099999844,
                    "velocity": 0.48031496062992124,
                    "duration": 0.10491060937502539
                },
                {
                    "name": "C#3",
                    "midi": 49,
                    "time": 137.67843374999848,
                    "velocity": 0.48031496062992124,
                    "duration": 0.10267846875001396
                },
                {
                    "name": "F3",
                    "midi": 53,
                    "time": 137.78557649999848,
                    "velocity": 0.48031496062992124,
                    "duration": 0.20982121875002235
                },
                {
                    "name": "C#2",
                    "midi": 37,
                    "time": 137.78557649999848,
                    "velocity": 0.48031496062992124,
                    "duration": 0.10267846875001396
                },
                {
                    "name": "C#3",
                    "midi": 49,
                    "time": 137.8927192499985,
                    "velocity": 0.48031496062992124,
                    "duration": 0.10267846875001396
                },
                {
                    "name": "A#3",
                    "midi": 58,
                    "time": 137.9998619999985,
                    "velocity": 0.48031496062992124,
                    "duration": 0.10267846875001396
                },
                {
                    "name": "F3",
                    "midi": 53,
                    "time": 137.9998619999985,
                    "velocity": 0.48031496062992124,
                    "duration": 0.20982121875002235
                },
                {
                    "name": "A#2",
                    "midi": 46,
                    "time": 138.1070047499985,
                    "velocity": 0.48031496062992124,
                    "duration": 0.10267846875001396
                },
                {
                    "name": "A#1",
                    "midi": 34,
                    "time": 138.21414749999852,
                    "velocity": 0.48031496062992124,
                    "duration": 0.10267846874998554
                },
                {
                    "name": "F4",
                    "midi": 65,
                    "time": 138.21414749999852,
                    "velocity": 0.48031496062992124,
                    "duration": 0.03124996874998942
                },
                {
                    "name": "F#4",
                    "midi": 66,
                    "time": 138.2498617499985,
                    "velocity": 0.48031496062992124,
                    "duration": 0.033482109375000846
                },
                {
                    "name": "F4",
                    "midi": 65,
                    "time": 138.2855759999985,
                    "velocity": 0.48031496062992124,
                    "duration": 0.03124996874998942
                },
                {
                    "name": "A#2",
                    "midi": 46,
                    "time": 138.3212902499985,
                    "velocity": 0.48031496062992124,
                    "duration": 0.10267846874998554
                },
                {
                    "name": "F#4",
                    "midi": 66,
                    "time": 138.3212902499985,
                    "velocity": 0.48031496062992124,
                    "duration": 0.03124996874998942
                },
                {
                    "name": "F4",
                    "midi": 65,
                    "time": 138.35700449999848,
                    "velocity": 0.48031496062992124,
                    "duration": 0.033482109375000846
                },
                {
                    "name": "F#4",
                    "midi": 66,
                    "time": 138.3927187499985,
                    "velocity": 0.48031496062992124,
                    "duration": 0.03124996874998942
                },
                {
                    "name": "A3",
                    "midi": 57,
                    "time": 138.42843299999848,
                    "velocity": 0.48031496062992124,
                    "duration": 0.10267846875001396
                },
                {
                    "name": "F#5",
                    "midi": 78,
                    "time": 138.42843299999848,
                    "velocity": 0.48031496062992124,
                    "duration": 0.20982121875002235
                },
                {
                    "name": "A2",
                    "midi": 45,
                    "time": 138.5355757499985,
                    "velocity": 0.48031496062992124,
                    "duration": 0.10267846875001396
                },
                {
                    "name": "A1",
                    "midi": 33,
                    "time": 138.6427184999985,
                    "velocity": 0.48031496062992124,
                    "duration": 0.10267846875001396
                },
                {
                    "name": "F#3",
                    "midi": 54,
                    "time": 138.6427184999985,
                    "velocity": 0.48031496062992124,
                    "duration": 0.20982121875002235
                },
                {
                    "name": "A2",
                    "midi": 45,
                    "time": 138.7498612499985,
                    "velocity": 0.48031496062992124,
                    "duration": 0.10267846875001396
                },
                {
                    "name": "D#4",
                    "midi": 63,
                    "time": 138.8570039999985,
                    "velocity": 0.48031496062992124,
                    "duration": 0.10267846875001396
                },
                {
                    "name": "F#3",
                    "midi": 54,
                    "time": 138.8570039999985,
                    "velocity": 0.48031496062992124,
                    "duration": 0.10267846875001396
                },
                {
                    "name": "D#3",
                    "midi": 51,
                    "time": 138.96414674999852,
                    "velocity": 0.48031496062992124,
                    "duration": 0.10267846875001396
                },
                {
                    "name": "F#4",
                    "midi": 66,
                    "time": 138.96414674999852,
                    "velocity": 0.48031496062992124,
                    "duration": 0.10267846875001396
                },
                {
                    "name": "D#2",
                    "midi": 39,
                    "time": 139.07128949999853,
                    "velocity": 0.48031496062992124,
                    "duration": 0.10267846875001396
                },
                {
                    "name": "F#5",
                    "midi": 78,
                    "time": 139.07128949999853,
                    "velocity": 0.48031496062992124,
                    "duration": 0.10267846875001396
                },
                {
                    "name": "F5",
                    "midi": 77,
                    "time": 139.17843224999854,
                    "velocity": 0.48031496062992124,
                    "duration": 0.10267846875001396
                },
                {
                    "name": "D#3",
                    "midi": 51,
                    "time": 139.17843224999854,
                    "velocity": 0.48031496062992124,
                    "duration": 0.10267846875001396
                },
                {
                    "name": "D#4",
                    "midi": 63,
                    "time": 139.28557499999854,
                    "velocity": 0.48031496062992124,
                    "duration": 0.10267846875001396
                },
                {
                    "name": "G5",
                    "midi": 79,
                    "time": 139.28557499999854,
                    "velocity": 0.48031496062992124,
                    "duration": 0.10491060937502539
                },
                {
                    "name": "D#3",
                    "midi": 51,
                    "time": 139.39271774999858,
                    "velocity": 0.48031496062992124,
                    "duration": 0.10267846875001396
                },
                {
                    "name": "D#2",
                    "midi": 39,
                    "time": 139.4998604999986,
                    "velocity": 0.48031496062992124,
                    "duration": 0.10267846875001396
                },
                {
                    "name": "G3",
                    "midi": 55,
                    "time": 139.4998604999986,
                    "velocity": 0.48031496062992124,
                    "duration": 0.20982121875002235
                },
                {
                    "name": "D#3",
                    "midi": 51,
                    "time": 139.6070032499986,
                    "velocity": 0.48031496062992124,
                    "duration": 0.10267846875001396
                },
                {
                    "name": "C4",
                    "midi": 60,
                    "time": 139.7141459999986,
                    "velocity": 0.48031496062992124,
                    "duration": 0.10267846875001396
                },
                {
                    "name": "G3",
                    "midi": 55,
                    "time": 139.7141459999986,
                    "velocity": 0.48031496062992124,
                    "duration": 0.20982121875002235
                },
                {
                    "name": "C3",
                    "midi": 48,
                    "time": 139.82128874999862,
                    "velocity": 0.48031496062992124,
                    "duration": 0.10267846875001396
                },
                {
                    "name": "C2",
                    "midi": 36,
                    "time": 139.92843149999862,
                    "velocity": 0.48031496062992124,
                    "duration": 0.10267846875001396
                },
                {
                    "name": "G4",
                    "midi": 67,
                    "time": 139.92843149999862,
                    "velocity": 0.48031496062992124,
                    "duration": 0.033482109375000846
                },
                {
                    "name": "C3",
                    "midi": 48,
                    "time": 140.03557424999863,
                    "velocity": 0.48031496062992124,
                    "duration": 0.10267846875001396
                },
                {
                    "name": "B3",
                    "midi": 59,
                    "time": 140.14271699999864,
                    "velocity": 0.48031496062992124,
                    "duration": 0.10267846875001396
                },
                {
                    "name": "G#5",
                    "midi": 80,
                    "time": 140.14271699999864,
                    "velocity": 0.48031496062992124,
                    "duration": 0.20982121875002235
                },
                {
                    "name": "B2",
                    "midi": 47,
                    "time": 140.24985974999865,
                    "velocity": 0.48031496062992124,
                    "duration": 0.10267846875001396
                },
                {
                    "name": "B1",
                    "midi": 35,
                    "time": 140.35700249999866,
                    "velocity": 0.48031496062992124,
                    "duration": 0.10267846875001396
                },
                {
                    "name": "G#3",
                    "midi": 56,
                    "time": 140.35700249999866,
                    "velocity": 0.48031496062992124,
                    "duration": 0.10267846875001396
                },
                {
                    "name": "B2",
                    "midi": 47,
                    "time": 140.46414524999867,
                    "velocity": 0.48031496062992124,
                    "duration": 0.10267846875001396
                },
                {
                    "name": "A3",
                    "midi": 57,
                    "time": 140.46414524999867,
                    "velocity": 0.48031496062992124,
                    "duration": 0.10267846875001396
                },
                {
                    "name": "G3",
                    "midi": 55,
                    "time": 140.57128799999867,
                    "velocity": 0.48031496062992124,
                    "duration": 0.10267846875001396
                },
                {
                    "name": "A#3",
                    "midi": 58,
                    "time": 140.57128799999867,
                    "velocity": 0.48031496062992124,
                    "duration": 0.10267846875001396
                },
                {
                    "name": "G2",
                    "midi": 43,
                    "time": 140.67843074999868,
                    "velocity": 0.48031496062992124,
                    "duration": 0.10267846875001396
                },
                {
                    "name": "D4",
                    "midi": 62,
                    "time": 140.67843074999868,
                    "velocity": 0.48031496062992124,
                    "duration": 0.10267846875001396
                },
                {
                    "name": "B3",
                    "midi": 59,
                    "time": 140.67843074999868,
                    "velocity": 0.48031496062992124,
                    "duration": 0.10267846875001396
                },
                {
                    "name": "D2",
                    "midi": 38,
                    "time": 140.7855734999987,
                    "velocity": 0.48031496062992124,
                    "duration": 0.10267846875001396
                },
                {
                    "name": "B3",
                    "midi": 59,
                    "time": 140.7855734999987,
                    "velocity": 0.48031496062992124,
                    "duration": 0.10267846875001396
                },
                {
                    "name": "D3",
                    "midi": 50,
                    "time": 140.8927162499987,
                    "velocity": 0.48031496062992124,
                    "duration": 0.10267846875001396
                },
                {
                    "name": "D#4",
                    "midi": 63,
                    "time": 140.8927162499987,
                    "velocity": 0.48031496062992124,
                    "duration": 0.10267846875001396
                },
                {
                    "name": "C4",
                    "midi": 60,
                    "time": 140.8927162499987,
                    "velocity": 0.48031496062992124,
                    "duration": 0.10267846875001396
                },
                {
                    "name": "G2",
                    "midi": 43,
                    "time": 140.9998589999987,
                    "velocity": 0.48031496062992124,
                    "duration": 0.10267846875001396
                },
                {
                    "name": "C4",
                    "midi": 60,
                    "time": 140.9998589999987,
                    "velocity": 0.48031496062992124,
                    "duration": 0.10267846875001396
                },
                {
                    "name": "G1",
                    "midi": 31,
                    "time": 141.10700174999872,
                    "velocity": 0.48031496062992124,
                    "duration": 0.10267846875001396
                },
                {
                    "name": "E4",
                    "midi": 64,
                    "time": 141.10700174999872,
                    "velocity": 0.48031496062992124,
                    "duration": 0.10267846875001396
                },
                {
                    "name": "C#4",
                    "midi": 61,
                    "time": 141.10700174999872,
                    "velocity": 0.48031496062992124,
                    "duration": 0.10267846875001396
                },
                {
                    "name": "D1",
                    "midi": 26,
                    "time": 141.21414449999872,
                    "velocity": 0.48031496062992124,
                    "duration": 0.10267846875001396
                },
                {
                    "name": "C#4",
                    "midi": 61,
                    "time": 141.21414449999872,
                    "velocity": 0.48031496062992124,
                    "duration": 0.10267846875001396
                },
                {
                    "name": "D2",
                    "midi": 38,
                    "time": 141.32128724999873,
                    "velocity": 0.48031496062992124,
                    "duration": 0.10267846875001396
                },
                {
                    "name": "D4",
                    "midi": 62,
                    "time": 141.32128724999873,
                    "velocity": 0.48031496062992124,
                    "duration": 0.10267846875001396
                },
                {
                    "name": "F4",
                    "midi": 65,
                    "time": 141.32128724999873,
                    "velocity": 0.48031496062992124,
                    "duration": 0.10267846875001396
                },
                {
                    "name": "G3",
                    "midi": 55,
                    "time": 141.42842999999874,
                    "velocity": 0.48031496062992124,
                    "duration": 0.10267846875001396
                },
                {
                    "name": "B4",
                    "midi": 71,
                    "time": 141.42842999999874,
                    "velocity": 0.48031496062992124,
                    "duration": 0.20982121875002235
                },
                {
                    "name": "G2",
                    "midi": 43,
                    "time": 141.53557274999875,
                    "velocity": 0.48031496062992124,
                    "duration": 0.10267846875001396
                },
                {
                    "name": "G4",
                    "midi": 67,
                    "time": 141.53557274999875,
                    "velocity": 0.48031496062992124,
                    "duration": 0.10267846875001396
                },
                {
                    "name": "A#4",
                    "midi": 70,
                    "time": 141.53557274999875,
                    "velocity": 0.48031496062992124,
                    "duration": 0.10267846875001396
                },
                {
                    "name": "D2",
                    "midi": 38,
                    "time": 141.64271549999876,
                    "velocity": 0.48031496062992124,
                    "duration": 0.10267846875001396
                },
                {
                    "name": "G4",
                    "midi": 67,
                    "time": 141.64271549999876,
                    "velocity": 0.48031496062992124,
                    "duration": 0.10267846875001396
                },
                {
                    "name": "A#4",
                    "midi": 70,
                    "time": 141.64271549999876,
                    "velocity": 0.48031496062992124,
                    "duration": 0.10267846875001396
                },
                {
                    "name": "B4",
                    "midi": 71,
                    "time": 141.64271549999876,
                    "velocity": 0.48031496062992124,
                    "duration": 0.20982121875002235
                },
                {
                    "name": "D3",
                    "midi": 50,
                    "time": 141.74985824999877,
                    "velocity": 0.48031496062992124,
                    "duration": 0.10267846875001396
                },
                {
                    "name": "A4",
                    "midi": 69,
                    "time": 141.74985824999877,
                    "velocity": 0.48031496062992124,
                    "duration": 0.10267846875001396
                },
                {
                    "name": "F#4",
                    "midi": 66,
                    "time": 141.74985824999877,
                    "velocity": 0.48031496062992124,
                    "duration": 0.10267846875001396
                },
                {
                    "name": "G2",
                    "midi": 43,
                    "time": 141.85700099999877,
                    "velocity": 0.48031496062992124,
                    "duration": 0.10267846875001396
                },
                {
                    "name": "B4",
                    "midi": 71,
                    "time": 141.85700099999877,
                    "velocity": 0.48031496062992124,
                    "duration": 0.20982121875002235
                },
                {
                    "name": "F#4",
                    "midi": 66,
                    "time": 141.85700099999877,
                    "velocity": 0.48031496062992124,
                    "duration": 0.10267846875001396
                },
                {
                    "name": "A4",
                    "midi": 69,
                    "time": 141.85700099999877,
                    "velocity": 0.48031496062992124,
                    "duration": 0.10267846875001396
                },
                {
                    "name": "G1",
                    "midi": 31,
                    "time": 141.96414374999878,
                    "velocity": 0.48031496062992124,
                    "duration": 0.10267846875001396
                },
                {
                    "name": "G#4",
                    "midi": 68,
                    "time": 141.96414374999878,
                    "velocity": 0.48031496062992124,
                    "duration": 0.10267846875001396
                },
                {
                    "name": "F4",
                    "midi": 65,
                    "time": 141.96414374999878,
                    "velocity": 0.48031496062992124,
                    "duration": 0.10267846875001396
                },
                {
                    "name": "D1",
                    "midi": 26,
                    "time": 142.0712864999988,
                    "velocity": 0.48031496062992124,
                    "duration": 0.10267846875001396
                },
                {
                    "name": "G#4",
                    "midi": 68,
                    "time": 142.0712864999988,
                    "velocity": 0.48031496062992124,
                    "duration": 0.10267846875001396
                },
                {
                    "name": "F4",
                    "midi": 65,
                    "time": 142.0712864999988,
                    "velocity": 0.48031496062992124,
                    "duration": 0.10267846875001396
                },
                {
                    "name": "B4",
                    "midi": 71,
                    "time": 142.0712864999988,
                    "velocity": 0.48031496062992124,
                    "duration": 0.20982121875002235
                },
                {
                    "name": "F#4",
                    "midi": 66,
                    "time": 142.1784292499988,
                    "velocity": 0.48031496062992124,
                    "duration": 0.10267846875001396
                },
                {
                    "name": "D2",
                    "midi": 38,
                    "time": 142.1784292499988,
                    "velocity": 0.48031496062992124,
                    "duration": 0.10267846875001396
                },
                {
                    "name": "E4",
                    "midi": 64,
                    "time": 142.2855719999988,
                    "velocity": 0.48031496062992124,
                    "duration": 0.10267846875001396
                },
                {
                    "name": "G4",
                    "midi": 67,
                    "time": 142.2855719999988,
                    "velocity": 0.48031496062992124,
                    "duration": 0.10267846875001396
                },
                {
                    "name": "E3",
                    "midi": 52,
                    "time": 142.39271474999882,
                    "velocity": 0.48031496062992124,
                    "duration": 0.10267846875001396
                },
                {
                    "name": "B4",
                    "midi": 71,
                    "time": 142.39271474999882,
                    "velocity": 0.48031496062992124,
                    "duration": 0.10267846875001396
                },
                {
                    "name": "G#4",
                    "midi": 68,
                    "time": 142.39271474999882,
                    "velocity": 0.48031496062992124,
                    "duration": 0.10267846875001396
                },
                {
                    "name": "B2",
                    "midi": 47,
                    "time": 142.49985749999883,
                    "velocity": 0.48031496062992124,
                    "duration": 0.10267846875001396
                },
                {
                    "name": "G#4",
                    "midi": 68,
                    "time": 142.49985749999883,
                    "velocity": 0.48031496062992124,
                    "duration": 0.10267846875001396
                },
                {
                    "name": "B3",
                    "midi": 59,
                    "time": 142.60700024999883,
                    "velocity": 0.48031496062992124,
                    "duration": 0.10267846875001396
                },
                {
                    "name": "C5",
                    "midi": 72,
                    "time": 142.60700024999883,
                    "velocity": 0.48031496062992124,
                    "duration": 0.10267846875001396
                },
                {
                    "name": "A4",
                    "midi": 69,
                    "time": 142.60700024999883,
                    "velocity": 0.48031496062992124,
                    "duration": 0.10267846875001396
                },
                {
                    "name": "E3",
                    "midi": 52,
                    "time": 142.71414299999884,
                    "velocity": 0.48031496062992124,
                    "duration": 0.10267846875001396
                },
                {
                    "name": "A4",
                    "midi": 69,
                    "time": 142.71414299999884,
                    "velocity": 0.48031496062992124,
                    "duration": 0.10267846875001396
                },
                {
                    "name": "E2",
                    "midi": 40,
                    "time": 142.82128574999885,
                    "velocity": 0.48031496062992124,
                    "duration": 0.10267846875001396
                },
                {
                    "name": "C#5",
                    "midi": 73,
                    "time": 142.82128574999885,
                    "velocity": 0.48031496062992124,
                    "duration": 0.10267846875001396
                },
                {
                    "name": "A#4",
                    "midi": 70,
                    "time": 142.82128574999885,
                    "velocity": 0.48031496062992124,
                    "duration": 0.10267846875001396
                },
                {
                    "name": "C#5",
                    "midi": 73,
                    "time": 142.92842849999886,
                    "velocity": 0.48031496062992124,
                    "duration": 0.10267846875001396
                },
                {
                    "name": "B1",
                    "midi": 35,
                    "time": 142.92842849999886,
                    "velocity": 0.48031496062992124,
                    "duration": 0.10267846875001396
                },
                {
                    "name": "A#4",
                    "midi": 70,
                    "time": 142.92842849999886,
                    "velocity": 0.48031496062992124,
                    "duration": 0.10267846875001396
                },
                {
                    "name": "E5",
                    "midi": 76,
                    "time": 143.03557124999887,
                    "velocity": 0.48031496062992124,
                    "duration": 0.10267846875001396
                },
                {
                    "name": "B2",
                    "midi": 47,
                    "time": 143.03557124999887,
                    "velocity": 0.48031496062992124,
                    "duration": 0.10267846875001396
                },
                {
                    "name": "B4",
                    "midi": 71,
                    "time": 143.03557124999887,
                    "velocity": 0.48031496062992124,
                    "duration": 0.10267846875001396
                },
                {
                    "name": "D5",
                    "midi": 74,
                    "time": 143.03557124999887,
                    "velocity": 0.48031496062992124,
                    "duration": 0.10267846875001396
                },
                {
                    "name": "G#5",
                    "midi": 80,
                    "time": 143.14271399999888,
                    "velocity": 0.48031496062992124,
                    "duration": 0.10714275000000839
                },
                {
                    "name": "C#5",
                    "midi": 73,
                    "time": 143.14271399999888,
                    "velocity": 0.48031496062992124,
                    "duration": 0.10267846875001396
                },
                {
                    "name": "E5",
                    "midi": 76,
                    "time": 143.14271399999888,
                    "velocity": 0.48031496062992124,
                    "duration": 0.10267846875001396
                },
                {
                    "name": "E4",
                    "midi": 64,
                    "time": 143.14271399999888,
                    "velocity": 0.48031496062992124,
                    "duration": 0.10267846875001396
                },
                {
                    "name": "D#5",
                    "midi": 75,
                    "time": 143.24985674999888,
                    "velocity": 0.48031496062992124,
                    "duration": 0.10267846875001396
                },
                {
                    "name": "G#5",
                    "midi": 80,
                    "time": 143.24985674999888,
                    "velocity": 0.48031496062992124,
                    "duration": 0.10267846875001396
                },
                {
                    "name": "C5",
                    "midi": 72,
                    "time": 143.24985674999888,
                    "velocity": 0.48031496062992124,
                    "duration": 0.10267846875001396
                },
                {
                    "name": "E3",
                    "midi": 52,
                    "time": 143.24985674999888,
                    "velocity": 0.48031496062992124,
                    "duration": 0.10267846875001396
                },
                {
                    "name": "E5",
                    "midi": 76,
                    "time": 143.3569994999989,
                    "velocity": 0.48031496062992124,
                    "duration": 0.10714275000000839
                },
                {
                    "name": "D5",
                    "midi": 74,
                    "time": 143.3569994999989,
                    "velocity": 0.48031496062992124,
                    "duration": 0.10267846875001396
                },
                {
                    "name": "B4",
                    "midi": 71,
                    "time": 143.3569994999989,
                    "velocity": 0.48031496062992124,
                    "duration": 0.10267846875001396
                },
                {
                    "name": "B2",
                    "midi": 47,
                    "time": 143.3569994999989,
                    "velocity": 0.48031496062992124,
                    "duration": 0.10267846875001396
                },
                {
                    "name": "G#5",
                    "midi": 80,
                    "time": 143.4641422499989,
                    "velocity": 0.48031496062992124,
                    "duration": 0.10267846875001396
                },
                {
                    "name": "C#5",
                    "midi": 73,
                    "time": 143.4641422499989,
                    "velocity": 0.48031496062992124,
                    "duration": 0.10267846875001396
                },
                {
                    "name": "A#4",
                    "midi": 70,
                    "time": 143.4641422499989,
                    "velocity": 0.48031496062992124,
                    "duration": 0.10267846875001396
                },
                {
                    "name": "B3",
                    "midi": 59,
                    "time": 143.4641422499989,
                    "velocity": 0.48031496062992124,
                    "duration": 0.10267846875001396
                },
                {
                    "name": "C#5",
                    "midi": 73,
                    "time": 143.5712849999989,
                    "velocity": 0.48031496062992124,
                    "duration": 0.10714275000000839
                },
                {
                    "name": "C5",
                    "midi": 72,
                    "time": 143.5712849999989,
                    "velocity": 0.48031496062992124,
                    "duration": 0.10267846875001396
                },
                {
                    "name": "A4",
                    "midi": 69,
                    "time": 143.5712849999989,
                    "velocity": 0.48031496062992124,
                    "duration": 0.10267846875001396
                },
                {
                    "name": "E3",
                    "midi": 52,
                    "time": 143.5712849999989,
                    "velocity": 0.48031496062992124,
                    "duration": 0.10267846875001396
                },
                {
                    "name": "C#5",
                    "midi": 73,
                    "time": 143.67842774999892,
                    "velocity": 0.48031496062992124,
                    "duration": 0.10714275000000839
                },
                {
                    "name": "B4",
                    "midi": 71,
                    "time": 143.67842774999892,
                    "velocity": 0.48031496062992124,
                    "duration": 0.10267846875001396
                },
                {
                    "name": "G#4",
                    "midi": 68,
                    "time": 143.67842774999892,
                    "velocity": 0.48031496062992124,
                    "duration": 0.10267846875001396
                },
                {
                    "name": "E2",
                    "midi": 40,
                    "time": 143.67842774999892,
                    "velocity": 0.48031496062992124,
                    "duration": 0.10267846875001396
                },
                {
                    "name": "C#4",
                    "midi": 61,
                    "time": 143.78557049999893,
                    "velocity": 0.48031496062992124,
                    "duration": 0.10267846875001396
                },
                {
                    "name": "A#4",
                    "midi": 70,
                    "time": 143.78557049999893,
                    "velocity": 0.48031496062992124,
                    "duration": 0.10267846875001396
                },
                {
                    "name": "G4",
                    "midi": 67,
                    "time": 143.78557049999893,
                    "velocity": 0.48031496062992124,
                    "duration": 0.10267846875001396
                },
                {
                    "name": "B1",
                    "midi": 35,
                    "time": 143.78557049999893,
                    "velocity": 0.48031496062992124,
                    "duration": 0.10267846875001396
                },
                {
                    "name": "C#4",
                    "midi": 61,
                    "time": 143.89271324999893,
                    "velocity": 0.48031496062992124,
                    "duration": 0.10267846875001396
                },
                {
                    "name": "A4",
                    "midi": 69,
                    "time": 143.89271324999893,
                    "velocity": 0.48031496062992124,
                    "duration": 0.10267846875001396
                },
                {
                    "name": "F#4",
                    "midi": 66,
                    "time": 143.89271324999893,
                    "velocity": 0.48031496062992124,
                    "duration": 0.10267846875001396
                },
                {
                    "name": "B2",
                    "midi": 47,
                    "time": 143.89271324999893,
                    "velocity": 0.48031496062992124,
                    "duration": 0.10267846875001396
                },
                {
                    "name": "D#5",
                    "midi": 75,
                    "time": 143.99985599999894,
                    "velocity": 0.48031496062992124,
                    "duration": 0.10267846875001396
                },
                {
                    "name": "F#5",
                    "midi": 78,
                    "time": 143.99985599999894,
                    "velocity": 0.48031496062992124,
                    "duration": 0.10267846875001396
                },
                {
                    "name": "A5",
                    "midi": 81,
                    "time": 143.99985599999894,
                    "velocity": 0.48031496062992124,
                    "duration": 0.10267846875001396
                },
                {
                    "name": "D#5",
                    "midi": 75,
                    "time": 144.10699874999895,
                    "velocity": 0.48031496062992124,
                    "duration": 0.10267846875001396
                },
                {
                    "name": "A5",
                    "midi": 81,
                    "time": 144.10699874999895,
                    "velocity": 0.48031496062992124,
                    "duration": 0.10267846875001396
                },
                {
                    "name": "F#5",
                    "midi": 78,
                    "time": 144.10699874999895,
                    "velocity": 0.48031496062992124,
                    "duration": 0.10267846875001396
                },
                {
                    "name": "G#4",
                    "midi": 68,
                    "time": 144.21414149999896,
                    "velocity": 0.48031496062992124,
                    "duration": 0.10267846875001396
                },
                {
                    "name": "D#4",
                    "midi": 63,
                    "time": 144.21414149999896,
                    "velocity": 0.48031496062992124,
                    "duration": 0.10267846875001396
                },
                {
                    "name": "C4",
                    "midi": 60,
                    "time": 144.21414149999896,
                    "velocity": 0.48031496062992124,
                    "duration": 0.10267846875001396
                },
                {
                    "name": "D#5",
                    "midi": 75,
                    "time": 144.32128424999897,
                    "velocity": 0.48031496062992124,
                    "duration": 0.10267846875001396
                },
                {
                    "name": "G4",
                    "midi": 67,
                    "time": 144.32128424999897,
                    "velocity": 0.48031496062992124,
                    "duration": 0.10267846875001396
                },
                {
                    "name": "C5",
                    "midi": 72,
                    "time": 144.32128424999897,
                    "velocity": 0.48031496062992124,
                    "duration": 0.10267846875001396
                },
                {
                    "name": "D4",
                    "midi": 62,
                    "time": 144.42842699999898,
                    "velocity": 0.48031496062992124,
                    "duration": 0.10267846875001396
                },
                {
                    "name": "A3",
                    "midi": 57,
                    "time": 144.42842699999898,
                    "velocity": 0.48031496062992124,
                    "duration": 0.10267846875001396
                },
                {
                    "name": "F3",
                    "midi": 53,
                    "time": 144.42842699999898,
                    "velocity": 0.48031496062992124,
                    "duration": 0.10267846875001396
                },
                {
                    "name": "D4",
                    "midi": 62,
                    "time": 144.53556974999898,
                    "velocity": 0.48031496062992124,
                    "duration": 0.10267846875001396
                },
                {
                    "name": "F3",
                    "midi": 53,
                    "time": 144.53556974999898,
                    "velocity": 0.48031496062992124,
                    "duration": 0.10267846875001396
                },
                {
                    "name": "A3",
                    "midi": 57,
                    "time": 144.53556974999898,
                    "velocity": 0.48031496062992124,
                    "duration": 0.10267846875001396
                },
                {
                    "name": "C#5",
                    "midi": 73,
                    "time": 144.642712499999,
                    "velocity": 0.48031496062992124,
                    "duration": 0.10267846875001396
                },
                {
                    "name": "E5",
                    "midi": 76,
                    "time": 144.642712499999,
                    "velocity": 0.48031496062992124,
                    "duration": 0.10267846875001396
                },
                {
                    "name": "F5",
                    "midi": 77,
                    "time": 144.749855249999,
                    "velocity": 0.48031496062992124,
                    "duration": 0.10267846875001396
                },
                {
                    "name": "D5",
                    "midi": 74,
                    "time": 144.749855249999,
                    "velocity": 0.48031496062992124,
                    "duration": 0.10267846875001396
                },
                {
                    "name": "F#5",
                    "midi": 78,
                    "time": 144.856997999999,
                    "velocity": 0.48031496062992124,
                    "duration": 0.10267846875001396
                },
                {
                    "name": "A5",
                    "midi": 81,
                    "time": 144.856997999999,
                    "velocity": 0.48031496062992124,
                    "duration": 0.10267846875001396
                },
                {
                    "name": "D#5",
                    "midi": 75,
                    "time": 144.856997999999,
                    "velocity": 0.48031496062992124,
                    "duration": 0.10267846875001396
                },
                {
                    "name": "D#5",
                    "midi": 75,
                    "time": 144.96414074999902,
                    "velocity": 0.48031496062992124,
                    "duration": 0.10267846875001396
                },
                {
                    "name": "F#5",
                    "midi": 78,
                    "time": 144.96414074999902,
                    "velocity": 0.48031496062992124,
                    "duration": 0.10267846875001396
                },
                {
                    "name": "A5",
                    "midi": 81,
                    "time": 144.96414074999902,
                    "velocity": 0.48031496062992124,
                    "duration": 0.10267846875001396
                },
                {
                    "name": "D#4",
                    "midi": 63,
                    "time": 145.07128349999903,
                    "velocity": 0.48031496062992124,
                    "duration": 0.10267846875001396
                },
                {
                    "name": "C4",
                    "midi": 60,
                    "time": 145.07128349999903,
                    "velocity": 0.48031496062992124,
                    "duration": 0.10267846875001396
                },
                {
                    "name": "G#4",
                    "midi": 68,
                    "time": 145.07128349999903,
                    "velocity": 0.48031496062992124,
                    "duration": 0.10267846875001396
                },
                {
                    "name": "C5",
                    "midi": 72,
                    "time": 145.17842624999903,
                    "velocity": 0.48031496062992124,
                    "duration": 0.10267846875001396
                },
                {
                    "name": "G4",
                    "midi": 67,
                    "time": 145.17842624999903,
                    "velocity": 0.48031496062992124,
                    "duration": 0.10267846875001396
                },
                {
                    "name": "D#5",
                    "midi": 75,
                    "time": 145.17842624999903,
                    "velocity": 0.48031496062992124,
                    "duration": 0.10267846875001396
                },
                {
                    "name": "D6",
                    "midi": 86,
                    "time": 145.28556899999904,
                    "velocity": 0.48031496062992124,
                    "duration": 0.10267846875001396
                },
                {
                    "name": "F5",
                    "midi": 77,
                    "time": 145.28556899999904,
                    "velocity": 0.48031496062992124,
                    "duration": 0.10267846875001396
                },
                {
                    "name": "A5",
                    "midi": 81,
                    "time": 145.28556899999904,
                    "velocity": 0.48031496062992124,
                    "duration": 0.10267846875001396
                },
                {
                    "name": "F5",
                    "midi": 77,
                    "time": 145.39271174999905,
                    "velocity": 0.48031496062992124,
                    "duration": 0.10267846875001396
                },
                {
                    "name": "D6",
                    "midi": 86,
                    "time": 145.39271174999905,
                    "velocity": 0.48031496062992124,
                    "duration": 0.10267846875001396
                },
                {
                    "name": "A5",
                    "midi": 81,
                    "time": 145.39271174999905,
                    "velocity": 0.48031496062992124,
                    "duration": 0.10267846875001396
                },
                {
                    "name": "C#5",
                    "midi": 73,
                    "time": 145.49985449999906,
                    "velocity": 0.48031496062992124,
                    "duration": 0.10267846875001396
                },
                {
                    "name": "A4",
                    "midi": 69,
                    "time": 145.49985449999906,
                    "velocity": 0.48031496062992124,
                    "duration": 0.10267846875001396
                },
                {
                    "name": "D#5",
                    "midi": 75,
                    "time": 145.49985449999906,
                    "velocity": 0.48031496062992124,
                    "duration": 0.10267846875001396
                },
                {
                    "name": "C#5",
                    "midi": 73,
                    "time": 145.60699724999907,
                    "velocity": 0.48031496062992124,
                    "duration": 0.10267846875001396
                },
                {
                    "name": "E5",
                    "midi": 76,
                    "time": 145.60699724999907,
                    "velocity": 0.48031496062992124,
                    "duration": 0.10267846875001396
                },
                {
                    "name": "A4",
                    "midi": 69,
                    "time": 145.60699724999907,
                    "velocity": 0.48031496062992124,
                    "duration": 0.10267846875001396
                },
                {
                    "name": "C#5",
                    "midi": 73,
                    "time": 145.71413999999908,
                    "velocity": 0.48031496062992124,
                    "duration": 0.10267846875001396
                },
                {
                    "name": "E5",
                    "midi": 76,
                    "time": 145.71413999999908,
                    "velocity": 0.48031496062992124,
                    "duration": 0.10267846875001396
                },
                {
                    "name": "A4",
                    "midi": 69,
                    "time": 145.71413999999908,
                    "velocity": 0.48031496062992124,
                    "duration": 0.10267846875001396
                },
                {
                    "name": "F5",
                    "midi": 77,
                    "time": 145.82128274999909,
                    "velocity": 0.48031496062992124,
                    "duration": 0.10267846875001396
                },
                {
                    "name": "C#5",
                    "midi": 73,
                    "time": 145.82128274999909,
                    "velocity": 0.48031496062992124,
                    "duration": 0.10267846875001396
                },
                {
                    "name": "A4",
                    "midi": 69,
                    "time": 145.82128274999909,
                    "velocity": 0.48031496062992124,
                    "duration": 0.10267846875001396
                },
                {
                    "name": "F#5",
                    "midi": 78,
                    "time": 145.9284254999991,
                    "velocity": 0.48031496062992124,
                    "duration": 0.10267846875001396
                },
                {
                    "name": "C#5",
                    "midi": 73,
                    "time": 145.9284254999991,
                    "velocity": 0.48031496062992124,
                    "duration": 0.10267846875001396
                },
                {
                    "name": "A4",
                    "midi": 69,
                    "time": 145.9284254999991,
                    "velocity": 0.48031496062992124,
                    "duration": 0.10267846875001396
                },
                {
                    "name": "A#4",
                    "midi": 70,
                    "time": 146.0355682499991,
                    "velocity": 0.48031496062992124,
                    "duration": 0.10267846875001396
                },
                {
                    "name": "D5",
                    "midi": 74,
                    "time": 146.0355682499991,
                    "velocity": 0.48031496062992124,
                    "duration": 0.10267846875001396
                },
                {
                    "name": "G5",
                    "midi": 79,
                    "time": 146.0355682499991,
                    "velocity": 0.48031496062992124,
                    "duration": 0.10267846875001396
                },
                {
                    "name": "G#5",
                    "midi": 80,
                    "time": 146.1427109999991,
                    "velocity": 0.48031496062992124,
                    "duration": 0.10267846875001396
                },
                {
                    "name": "D#5",
                    "midi": 75,
                    "time": 146.1427109999991,
                    "velocity": 0.48031496062992124,
                    "duration": 0.10267846875001396
                },
                {
                    "name": "B4",
                    "midi": 71,
                    "time": 146.1427109999991,
                    "velocity": 0.48031496062992124,
                    "duration": 0.10267846875001396
                },
                {
                    "name": "D5",
                    "midi": 74,
                    "time": 146.24985374999912,
                    "velocity": 0.48031496062992124,
                    "duration": 0.10267846875001396
                },
                {
                    "name": "B5",
                    "midi": 83,
                    "time": 146.24985374999912,
                    "velocity": 0.48031496062992124,
                    "duration": 0.10267846875001396
                },
                {
                    "name": "G5",
                    "midi": 79,
                    "time": 146.24985374999912,
                    "velocity": 0.48031496062992124,
                    "duration": 0.10267846875001396
                },
                {
                    "name": "E6",
                    "midi": 88,
                    "time": 146.35699649999913,
                    "velocity": 0.48031496062992124,
                    "duration": 0.10267846875001396
                },
                {
                    "name": "D#6",
                    "midi": 87,
                    "time": 146.35699649999913,
                    "velocity": 0.48031496062992124,
                    "duration": 0.10267846875001396
                },
                {
                    "name": "B5",
                    "midi": 83,
                    "time": 146.35699649999913,
                    "velocity": 0.48031496062992124,
                    "duration": 0.10267846875001396
                },
                {
                    "name": "B5",
                    "midi": 83,
                    "time": 146.46413924999914,
                    "velocity": 0.48031496062992124,
                    "duration": 0.10267846875001396
                },
                {
                    "name": "F6",
                    "midi": 89,
                    "time": 146.46413924999914,
                    "velocity": 0.48031496062992124,
                    "duration": 0.10267846875001396
                },
                {
                    "name": "D#6",
                    "midi": 87,
                    "time": 146.46413924999914,
                    "velocity": 0.48031496062992124,
                    "duration": 0.10267846875001396
                },
                {
                    "name": "D#6",
                    "midi": 87,
                    "time": 146.57128199999914,
                    "velocity": 0.48031496062992124,
                    "duration": 0.10267846875001396
                },
                {
                    "name": "F#6",
                    "midi": 90,
                    "time": 146.57128199999914,
                    "velocity": 0.48031496062992124,
                    "duration": 0.10267846875001396
                },
                {
                    "name": "B5",
                    "midi": 83,
                    "time": 146.57128199999914,
                    "velocity": 0.48031496062992124,
                    "duration": 0.10267846875001396
                },
                {
                    "name": "D#6",
                    "midi": 87,
                    "time": 146.67842474999915,
                    "velocity": 0.48031496062992124,
                    "duration": 0.10267846875001396
                },
                {
                    "name": "G6",
                    "midi": 91,
                    "time": 146.67842474999915,
                    "velocity": 0.48031496062992124,
                    "duration": 0.10267846875001396
                },
                {
                    "name": "B5",
                    "midi": 83,
                    "time": 146.67842474999915,
                    "velocity": 0.48031496062992124,
                    "duration": 0.10267846875001396
                },
                {
                    "name": "G#6",
                    "midi": 92,
                    "time": 146.78556749999916,
                    "velocity": 0.48031496062992124,
                    "duration": 0.10267846875001396
                },
                {
                    "name": "D#6",
                    "midi": 87,
                    "time": 146.78556749999916,
                    "velocity": 0.48031496062992124,
                    "duration": 0.10267846875001396
                },
                {
                    "name": "B5",
                    "midi": 83,
                    "time": 146.78556749999916,
                    "velocity": 0.48031496062992124,
                    "duration": 0.10267846875001396
                },
                {
                    "name": "E6",
                    "midi": 88,
                    "time": 146.89271024999917,
                    "velocity": 0.48031496062992124,
                    "duration": 0.10267846875001396
                },
                {
                    "name": "A6",
                    "midi": 93,
                    "time": 146.89271024999917,
                    "velocity": 0.48031496062992124,
                    "duration": 0.10267846875001396
                },
                {
                    "name": "C6",
                    "midi": 84,
                    "time": 146.89271024999917,
                    "velocity": 0.48031496062992124,
                    "duration": 0.10267846875001396
                },
                {
                    "name": "C#6",
                    "midi": 85,
                    "time": 146.99985299999918,
                    "velocity": 0.48031496062992124,
                    "duration": 0.10267846875001396
                },
                {
                    "name": "A#6",
                    "midi": 94,
                    "time": 146.99985299999918,
                    "velocity": 0.48031496062992124,
                    "duration": 0.10267846875001396
                },
                {
                    "name": "F6",
                    "midi": 89,
                    "time": 146.99985299999918,
                    "velocity": 0.48031496062992124,
                    "duration": 0.10267846875001396
                },
                {
                    "name": "B6",
                    "midi": 95,
                    "time": 147.1069957499992,
                    "velocity": 0.48031496062992124,
                    "duration": 0.10267846875001396
                },
                {
                    "name": "F#6",
                    "midi": 90,
                    "time": 147.1069957499992,
                    "velocity": 0.48031496062992124,
                    "duration": 0.10267846875001396
                },
                {
                    "name": "D6",
                    "midi": 86,
                    "time": 147.1069957499992,
                    "velocity": 0.48031496062992124,
                    "duration": 0.10267846875001396
                },
                {
                    "name": "D#6",
                    "midi": 87,
                    "time": 147.2141384999992,
                    "velocity": 0.48031496062992124,
                    "duration": 0.10267846875001396
                },
                {
                    "name": "C7",
                    "midi": 96,
                    "time": 147.2141384999992,
                    "velocity": 0.48031496062992124,
                    "duration": 0.10267846875001396
                },
                {
                    "name": "G6",
                    "midi": 91,
                    "time": 147.2141384999992,
                    "velocity": 0.48031496062992124,
                    "duration": 0.10267846875001396
                },
                {
                    "name": "C#7",
                    "midi": 97,
                    "time": 147.3212812499992,
                    "velocity": 0.48031496062992124,
                    "duration": 0.10267846875001396
                },
                {
                    "name": "G#6",
                    "midi": 92,
                    "time": 147.3212812499992,
                    "velocity": 0.48031496062992124,
                    "duration": 0.10267846875001396
                },
                {
                    "name": "E6",
                    "midi": 88,
                    "time": 147.3212812499992,
                    "velocity": 0.48031496062992124,
                    "duration": 0.10267846875001396
                },
                {
                    "name": "D7",
                    "midi": 98,
                    "time": 147.4284239999992,
                    "velocity": 0.48031496062992124,
                    "duration": 0.10267846875001396
                },
                {
                    "name": "F6",
                    "midi": 89,
                    "time": 147.4284239999992,
                    "velocity": 0.48031496062992124,
                    "duration": 0.10267846875001396
                },
                {
                    "name": "A6",
                    "midi": 93,
                    "time": 147.4284239999992,
                    "velocity": 0.48031496062992124,
                    "duration": 0.10267846875001396
                },
                {
                    "name": "D#7",
                    "midi": 99,
                    "time": 147.53556674999922,
                    "velocity": 0.48031496062992124,
                    "duration": 0.10267846875001396
                },
                {
                    "name": "A#6",
                    "midi": 94,
                    "time": 147.53556674999922,
                    "velocity": 0.48031496062992124,
                    "duration": 0.10267846875001396
                },
                {
                    "name": "F#6",
                    "midi": 90,
                    "time": 147.53556674999922,
                    "velocity": 0.48031496062992124,
                    "duration": 0.10267846875001396
                },
                {
                    "name": "E7",
                    "midi": 100,
                    "time": 147.64270949999923,
                    "velocity": 0.48031496062992124,
                    "duration": 0.10267846875001396
                },
                {
                    "name": "G6",
                    "midi": 91,
                    "time": 147.64270949999923,
                    "velocity": 0.48031496062992124,
                    "duration": 0.10267846875001396
                },
                {
                    "name": "B6",
                    "midi": 95,
                    "time": 147.64270949999923,
                    "velocity": 0.48031496062992124,
                    "duration": 0.10267846875001396
                },
                {
                    "name": "F7",
                    "midi": 101,
                    "time": 147.74985224999924,
                    "velocity": 0.48031496062992124,
                    "duration": 0.10267846875001396
                },
                {
                    "name": "G#6",
                    "midi": 92,
                    "time": 147.74985224999924,
                    "velocity": 0.48031496062992124,
                    "duration": 0.10267846875001396
                },
                {
                    "name": "C7",
                    "midi": 96,
                    "time": 147.74985224999924,
                    "velocity": 0.48031496062992124,
                    "duration": 0.10267846875001396
                },
                {
                    "name": "D2",
                    "midi": 38,
                    "time": 147.85699499999924,
                    "velocity": 0.48031496062992124,
                    "duration": 0.10267846875001396
                },
                {
                    "name": "D1",
                    "midi": 26,
                    "time": 147.85699499999924,
                    "velocity": 0.48031496062992124,
                    "duration": 0.20982121875002235
                },
                {
                    "name": "F#7",
                    "midi": 102,
                    "time": 147.85699499999924,
                    "velocity": 0.48031496062992124,
                    "duration": 0.20982121875002235
                },
                {
                    "name": "A6",
                    "midi": 93,
                    "time": 147.85699499999924,
                    "velocity": 0.48031496062992124,
                    "duration": 0.10267846875001396
                },
                {
                    "name": "C#7",
                    "midi": 97,
                    "time": 147.85699499999924,
                    "velocity": 0.48031496062992124,
                    "duration": 0.10267846875001396
                },
                {
                    "name": "A#1",
                    "midi": 34,
                    "time": 147.96413774999925,
                    "velocity": 0.48031496062992124,
                    "duration": 0.10267846875001396
                },
                {
                    "name": "G#6",
                    "midi": 92,
                    "time": 147.96413774999925,
                    "velocity": 0.48031496062992124,
                    "duration": 0.10267846875001396
                },
                {
                    "name": "C7",
                    "midi": 96,
                    "time": 147.96413774999925,
                    "velocity": 0.48031496062992124,
                    "duration": 0.10267846875001396
                },
                {
                    "name": "B1",
                    "midi": 35,
                    "time": 148.07128049999926,
                    "velocity": 0.48031496062992124,
                    "duration": 0.10267846875001396
                },
                {
                    "name": "E1",
                    "midi": 28,
                    "time": 148.07128049999926,
                    "velocity": 0.48031496062992124,
                    "duration": 0.20982121875002235
                },
                {
                    "name": "G7",
                    "midi": 103,
                    "time": 148.07128049999926,
                    "velocity": 0.48031496062992124,
                    "duration": 0.20982121875002235
                },
                {
                    "name": "B6",
                    "midi": 95,
                    "time": 148.07128049999926,
                    "velocity": 0.48031496062992124,
                    "duration": 0.10267846875001396
                },
                {
                    "name": "G6",
                    "midi": 91,
                    "time": 148.07128049999926,
                    "velocity": 0.48031496062992124,
                    "duration": 0.10267846875001396
                },
                {
                    "name": "C2",
                    "midi": 36,
                    "time": 148.17842324999927,
                    "velocity": 0.48031496062992124,
                    "duration": 0.10267846875001396
                },
                {
                    "name": "A#6",
                    "midi": 94,
                    "time": 148.17842324999927,
                    "velocity": 0.48031496062992124,
                    "duration": 0.10267846875001396
                },
                {
                    "name": "F#6",
                    "midi": 90,
                    "time": 148.17842324999927,
                    "velocity": 0.48031496062992124,
                    "duration": 0.10267846875001396
                },
                {
                    "name": "F#1",
                    "midi": 30,
                    "time": 148.28556599999928,
                    "velocity": 0.48031496062992124,
                    "duration": 0.20982121875002235
                },
                {
                    "name": "C#2",
                    "midi": 37,
                    "time": 148.28556599999928,
                    "velocity": 0.48031496062992124,
                    "duration": 0.10267846875001396
                },
                {
                    "name": "F6",
                    "midi": 89,
                    "time": 148.28556599999928,
                    "velocity": 0.48031496062992124,
                    "duration": 0.10267846875001396
                },
                {
                    "name": "A6",
                    "midi": 93,
                    "time": 148.28556599999928,
                    "velocity": 0.48031496062992124,
                    "duration": 0.10267846875001396
                },
                {
                    "name": "C#7",
                    "midi": 97,
                    "time": 148.28556599999928,
                    "velocity": 0.48031496062992124,
                    "duration": 0.20982121875002235
                },
                {
                    "name": "D2",
                    "midi": 38,
                    "time": 148.3927087499993,
                    "velocity": 0.48031496062992124,
                    "duration": 0.10267846875001396
                },
                {
                    "name": "G#6",
                    "midi": 92,
                    "time": 148.3927087499993,
                    "velocity": 0.48031496062992124,
                    "duration": 0.10267846875001396
                },
                {
                    "name": "E6",
                    "midi": 88,
                    "time": 148.3927087499993,
                    "velocity": 0.48031496062992124,
                    "duration": 0.10267846875001396
                },
                {
                    "name": "G1",
                    "midi": 31,
                    "time": 148.4998514999993,
                    "velocity": 0.48031496062992124,
                    "duration": 0.20982121875002235
                },
                {
                    "name": "D#2",
                    "midi": 39,
                    "time": 148.4998514999993,
                    "velocity": 0.48031496062992124,
                    "duration": 0.10267846875001396
                },
                {
                    "name": "D#6",
                    "midi": 87,
                    "time": 148.4998514999993,
                    "velocity": 0.48031496062992124,
                    "duration": 0.10267846875001396
                },
                {
                    "name": "G6",
                    "midi": 91,
                    "time": 148.4998514999993,
                    "velocity": 0.48031496062992124,
                    "duration": 0.10267846875001396
                },
                {
                    "name": "B6",
                    "midi": 95,
                    "time": 148.4998514999993,
                    "velocity": 0.48031496062992124,
                    "duration": 0.10267846875001396
                },
                {
                    "name": "E2",
                    "midi": 40,
                    "time": 148.6069942499993,
                    "velocity": 0.48031496062992124,
                    "duration": 0.10267846875001396
                },
                {
                    "name": "C#7",
                    "midi": 97,
                    "time": 148.6069942499993,
                    "velocity": 0.48031496062992124,
                    "duration": 0.10267846875001396
                },
                {
                    "name": "F#6",
                    "midi": 90,
                    "time": 148.6069942499993,
                    "velocity": 0.48031496062992124,
                    "duration": 0.10267846875001396
                },
                {
                    "name": "D6",
                    "midi": 86,
                    "time": 148.6069942499993,
                    "velocity": 0.48031496062992124,
                    "duration": 0.10267846875001396
                },
                {
                    "name": "F2",
                    "midi": 41,
                    "time": 148.7141369999993,
                    "velocity": 0.48031496062992124,
                    "duration": 0.10267846875001396
                },
                {
                    "name": "A1",
                    "midi": 33,
                    "time": 148.7141369999993,
                    "velocity": 0.48031496062992124,
                    "duration": 0.20982121875002235
                },
                {
                    "name": "B6",
                    "midi": 95,
                    "time": 148.7141369999993,
                    "velocity": 0.48031496062992124,
                    "duration": 0.20982121875002235
                },
                {
                    "name": "F6",
                    "midi": 89,
                    "time": 148.7141369999993,
                    "velocity": 0.48031496062992124,
                    "duration": 0.10267846875001396
                },
                {
                    "name": "C#6",
                    "midi": 85,
                    "time": 148.7141369999993,
                    "velocity": 0.48031496062992124,
                    "duration": 0.10267846875001396
                },
                {
                    "name": "F#2",
                    "midi": 42,
                    "time": 148.82127974999932,
                    "velocity": 0.48031496062992124,
                    "duration": 0.10267846875001396
                },
                {
                    "name": "C6",
                    "midi": 84,
                    "time": 148.82127974999932,
                    "velocity": 0.48031496062992124,
                    "duration": 0.10267846875001396
                },
                {
                    "name": "E6",
                    "midi": 88,
                    "time": 148.82127974999932,
                    "velocity": 0.48031496062992124,
                    "duration": 0.10267846875001396
                },
                {
                    "name": "G2",
                    "midi": 43,
                    "time": 148.92842249999933,
                    "velocity": 0.48031496062992124,
                    "duration": 0.10267846875001396
                },
                {
                    "name": "B1",
                    "midi": 35,
                    "time": 148.92842249999933,
                    "velocity": 0.48031496062992124,
                    "duration": 0.20982121875002235
                },
                {
                    "name": "D#6",
                    "midi": 87,
                    "time": 148.92842249999933,
                    "velocity": 0.48031496062992124,
                    "duration": 0.10267846875001396
                },
                {
                    "name": "F#6",
                    "midi": 90,
                    "time": 148.92842249999933,
                    "velocity": 0.48031496062992124,
                    "duration": 0.20982121875002235
                },
                {
                    "name": "B5",
                    "midi": 83,
                    "time": 148.92842249999933,
                    "velocity": 0.48031496062992124,
                    "duration": 0.10267846875001396
                },
                {
                    "name": "G#2",
                    "midi": 44,
                    "time": 149.03556524999934,
                    "velocity": 0.48031496062992124,
                    "duration": 0.10267846875001396
                },
                {
                    "name": "A#5",
                    "midi": 82,
                    "time": 149.03556524999934,
                    "velocity": 0.48031496062992124,
                    "duration": 0.10267846875001396
                },
                {
                    "name": "D6",
                    "midi": 86,
                    "time": 149.03556524999934,
                    "velocity": 0.48031496062992124,
                    "duration": 0.10267846875001396
                },
                {
                    "name": "A2",
                    "midi": 45,
                    "time": 149.14270799999935,
                    "velocity": 0.48031496062992124,
                    "duration": 0.10267846875001396
                },
                {
                    "name": "C#2",
                    "midi": 37,
                    "time": 149.14270799999935,
                    "velocity": 0.48031496062992124,
                    "duration": 0.20982121875002235
                },
                {
                    "name": "C#6",
                    "midi": 85,
                    "time": 149.14270799999935,
                    "velocity": 0.48031496062992124,
                    "duration": 0.10267846875001396
                },
                {
                    "name": "F#6",
                    "midi": 90,
                    "time": 149.14270799999935,
                    "velocity": 0.48031496062992124,
                    "duration": 0.20982121875002235
                },
                {
                    "name": "A5",
                    "midi": 81,
                    "time": 149.14270799999935,
                    "velocity": 0.48031496062992124,
                    "duration": 0.10267846875001396
                },
                {
                    "name": "A#2",
                    "midi": 46,
                    "time": 149.24985074999935,
                    "velocity": 0.48031496062992124,
                    "duration": 0.10267846875001396
                },
                {
                    "name": "G#5",
                    "midi": 80,
                    "time": 149.24985074999935,
                    "velocity": 0.48031496062992124,
                    "duration": 0.10267846875001396
                },
                {
                    "name": "C6",
                    "midi": 84,
                    "time": 149.24985074999935,
                    "velocity": 0.48031496062992124,
                    "duration": 0.10267846875001396
                },
                {
                    "name": "B2",
                    "midi": 47,
                    "time": 149.35699349999936,
                    "velocity": 0.48031496062992124,
                    "duration": 0.10267846875001396
                },
                {
                    "name": "A1",
                    "midi": 33,
                    "time": 149.35699349999936,
                    "velocity": 0.48031496062992124,
                    "duration": 0.20982121875002235
                },
                {
                    "name": "B5",
                    "midi": 83,
                    "time": 149.35699349999936,
                    "velocity": 0.48031496062992124,
                    "duration": 0.10267846875001396
                },
                {
                    "name": "E6",
                    "midi": 88,
                    "time": 149.35699349999936,
                    "velocity": 0.48031496062992124,
                    "duration": 0.20982121875002235
                },
                {
                    "name": "G5",
                    "midi": 79,
                    "time": 149.35699349999936,
                    "velocity": 0.48031496062992124,
                    "duration": 0.10267846875001396
                },
                {
                    "name": "A#2",
                    "midi": 46,
                    "time": 149.46413624999937,
                    "velocity": 0.48031496062992124,
                    "duration": 0.10267846875001396
                },
                {
                    "name": "G#5",
                    "midi": 80,
                    "time": 149.46413624999937,
                    "velocity": 0.48031496062992124,
                    "duration": 0.10267846875001396
                },
                {
                    "name": "C6",
                    "midi": 84,
                    "time": 149.46413624999937,
                    "velocity": 0.48031496062992124,
                    "duration": 0.10267846875001396
                },
                {
                    "name": "D2",
                    "midi": 38,
                    "time": 149.57127899999938,
                    "velocity": 0.48031496062992124,
                    "duration": 0.20982121875002235
                },
                {
                    "name": "A2",
                    "midi": 45,
                    "time": 149.57127899999938,
                    "velocity": 0.48031496062992124,
                    "duration": 0.10267846875001396
                },
                {
                    "name": "F#6",
                    "midi": 90,
                    "time": 149.57127899999938,
                    "velocity": 0.48031496062992124,
                    "duration": 0.20982121875002235
                },
                {
                    "name": "A5",
                    "midi": 81,
                    "time": 149.57127899999938,
                    "velocity": 0.48031496062992124,
                    "duration": 0.10267846875001396
                },
                {
                    "name": "C#6",
                    "midi": 85,
                    "time": 149.57127899999938,
                    "velocity": 0.48031496062992124,
                    "duration": 0.10267846875001396
                },
                {
                    "name": "A#2",
                    "midi": 46,
                    "time": 149.6784217499994,
                    "velocity": 0.48031496062992124,
                    "duration": 0.10267846875001396
                },
                {
                    "name": "C6",
                    "midi": 84,
                    "time": 149.6784217499994,
                    "velocity": 0.48031496062992124,
                    "duration": 0.10491060937502539
                },
                {
                    "name": "G#5",
                    "midi": 80,
                    "time": 149.6784217499994,
                    "velocity": 0.48031496062992124,
                    "duration": 0.10267846875001396
                },
                {
                    "name": "E2",
                    "midi": 40,
                    "time": 149.78556449999942,
                    "velocity": 0.48031496062992124,
                    "duration": 0.2120533593750622
                },
                {
                    "name": "G6",
                    "midi": 91,
                    "time": 149.78556449999942,
                    "velocity": 0.48031496062992124,
                    "duration": 0.20982121875005078
                },
                {
                    "name": "G5",
                    "midi": 79,
                    "time": 149.78556449999942,
                    "velocity": 0.48031496062992124,
                    "duration": 0.10491060937502539
                },
                {
                    "name": "B5",
                    "midi": 83,
                    "time": 149.78556449999942,
                    "velocity": 0.48031496062992124,
                    "duration": 0.10267846875001396
                },
                {
                    "name": "B2",
                    "midi": 47,
                    "time": 149.78556449999942,
                    "velocity": 0.48031496062992124,
                    "duration": 0.10491060937502539
                },
                {
                    "name": "A#5",
                    "midi": 82,
                    "time": 149.89270724999946,
                    "velocity": 0.48031496062992124,
                    "duration": 0.10267846875001396
                },
                {
                    "name": "F#5",
                    "midi": 78,
                    "time": 149.89270724999946,
                    "velocity": 0.48031496062992124,
                    "duration": 0.10491060937502539
                },
                {
                    "name": "C3",
                    "midi": 48,
                    "time": 149.89270724999946,
                    "velocity": 0.48031496062992124,
                    "duration": 0.10491060937502539
                },
                {
                    "name": "F#2",
                    "midi": 42,
                    "time": 149.9998499999995,
                    "velocity": 0.48031496062992124,
                    "duration": 0.21205335937503378
                },
                {
                    "name": "A5",
                    "midi": 81,
                    "time": 149.9998499999995,
                    "velocity": 0.48031496062992124,
                    "duration": 0.10267846875001396
                },
                {
                    "name": "C#6",
                    "midi": 85,
                    "time": 149.9998499999995,
                    "velocity": 0.48031496062992124,
                    "duration": 0.20982121875002235
                },
                {
                    "name": "F5",
                    "midi": 77,
                    "time": 149.9998499999995,
                    "velocity": 0.48031496062992124,
                    "duration": 0.10267846875001396
                },
                {
                    "name": "C#3",
                    "midi": 49,
                    "time": 149.9998499999995,
                    "velocity": 0.48031496062992124,
                    "duration": 0.10267846875001396
                },
                {
                    "name": "D3",
                    "midi": 50,
                    "time": 150.1069927499995,
                    "velocity": 0.48031496062992124,
                    "duration": 0.10491060937502539
                },
                {
                    "name": "G#5",
                    "midi": 80,
                    "time": 150.1069927499995,
                    "velocity": 0.48031496062992124,
                    "duration": 0.10491060937502539
                },
                {
                    "name": "E5",
                    "midi": 76,
                    "time": 150.1069927499995,
                    "velocity": 0.48031496062992124,
                    "duration": 0.10267846875001396
                },
                {
                    "name": "D#3",
                    "midi": 51,
                    "time": 150.21413549999954,
                    "velocity": 0.48031496062992124,
                    "duration": 0.10267846875001396
                },
                {
                    "name": "G2",
                    "midi": 43,
                    "time": 150.21413549999954,
                    "velocity": 0.48031496062992124,
                    "duration": 0.20982121875005078
                },
                {
                    "name": "D#5",
                    "midi": 75,
                    "time": 150.21413549999954,
                    "velocity": 0.48031496062992124,
                    "duration": 0.10491060937502539
                },
                {
                    "name": "G5",
                    "midi": 79,
                    "time": 150.21413549999954,
                    "velocity": 0.48031496062992124,
                    "duration": 0.10267846875001396
                },
                {
                    "name": "B5",
                    "midi": 83,
                    "time": 150.21413549999954,
                    "velocity": 0.48031496062992124,
                    "duration": 0.10491060937502539
                },
                {
                    "name": "D5",
                    "midi": 74,
                    "time": 150.32127824999958,
                    "velocity": 0.48031496062992124,
                    "duration": 0.10267846875001396
                },
                {
                    "name": "E3",
                    "midi": 52,
                    "time": 150.32127824999958,
                    "velocity": 0.48031496062992124,
                    "duration": 0.10267846875001396
                },
                {
                    "name": "C#6",
                    "midi": 85,
                    "time": 150.32127824999958,
                    "velocity": 0.48031496062992124,
                    "duration": 0.10491060937502539
                },
                {
                    "name": "F#5",
                    "midi": 78,
                    "time": 150.32127824999958,
                    "velocity": 0.48031496062992124,
                    "duration": 0.10491060937502539
                },
                {
                    "name": "F5",
                    "midi": 77,
                    "time": 150.42842099999962,
                    "velocity": 0.48031496062992124,
                    "duration": 0.10267846875001396
                },
                {
                    "name": "B5",
                    "midi": 83,
                    "time": 150.42842099999962,
                    "velocity": 0.48031496062992124,
                    "duration": 0.20982121875002235
                },
                {
                    "name": "C#5",
                    "midi": 73,
                    "time": 150.42842099999962,
                    "velocity": 0.48031496062992124,
                    "duration": 0.10267846875001396
                },
                {
                    "name": "A2",
                    "midi": 45,
                    "time": 150.42842099999962,
                    "velocity": 0.48031496062992124,
                    "duration": 0.20982121875002235
                },
                {
                    "name": "F3",
                    "midi": 53,
                    "time": 150.42842099999962,
                    "velocity": 0.48031496062992124,
                    "duration": 0.10267846875001396
                },
                {
                    "name": "F#3",
                    "midi": 54,
                    "time": 150.53556374999962,
                    "velocity": 0.48031496062992124,
                    "duration": 0.10714275000003681
                },
                {
                    "name": "C5",
                    "midi": 72,
                    "time": 150.53556374999962,
                    "velocity": 0.48031496062992124,
                    "duration": 0.10491060937502539
                },
                {
                    "name": "E5",
                    "midi": 76,
                    "time": 150.53556374999962,
                    "velocity": 0.48031496062992124,
                    "duration": 0.10491060937502539
                },
                {
                    "name": "B2",
                    "midi": 47,
                    "time": 150.64270649999966,
                    "velocity": 0.48031496062992124,
                    "duration": 0.21205335937503378
                },
                {
                    "name": "F#5",
                    "midi": 78,
                    "time": 150.64270649999966,
                    "velocity": 0.48031496062992124,
                    "duration": 0.20982121875002235
                },
                {
                    "name": "D#5",
                    "midi": 75,
                    "time": 150.64270649999966,
                    "velocity": 0.48031496062992124,
                    "duration": 0.10267846875001396
                },
                {
                    "name": "G3",
                    "midi": 55,
                    "time": 150.64270649999966,
                    "velocity": 0.48031496062992124,
                    "duration": 0.10267846875001396
                },
                {
                    "name": "B4",
                    "midi": 71,
                    "time": 150.64270649999966,
                    "velocity": 0.48031496062992124,
                    "duration": 0.002232140625011425
                },
                {
                    "name": "B4",
                    "midi": 71,
                    "time": 150.64270649999966,
                    "velocity": 0.48031496062992124,
                    "duration": 0.10267846875001396
                },
                {
                    "name": "A#4",
                    "midi": 70,
                    "time": 150.74984924999967,
                    "velocity": 0.48031496062992124,
                    "duration": 0.10267846875001396
                },
                {
                    "name": "G#3",
                    "midi": 56,
                    "time": 150.74984924999967,
                    "velocity": 0.48031496062992124,
                    "duration": 0.10267846875001396
                },
                {
                    "name": "D5",
                    "midi": 74,
                    "time": 150.74984924999967,
                    "velocity": 0.48031496062992124,
                    "duration": 0.10491060937502539
                },
                {
                    "name": "A4",
                    "midi": 69,
                    "time": 150.74984924999967,
                    "velocity": 0.48031496062992124,
                    "duration": 0.10491060937502539
                },
                {
                    "name": "C#3",
                    "midi": 49,
                    "time": 150.8569919999997,
                    "velocity": 0.48031496062992124,
                    "duration": 0.2120533593750622
                },
                {
                    "name": "F#5",
                    "midi": 78,
                    "time": 150.8569919999997,
                    "velocity": 0.48031496062992124,
                    "duration": 0.20982121875005078
                },
                {
                    "name": "C#5",
                    "midi": 73,
                    "time": 150.8569919999997,
                    "velocity": 0.48031496062992124,
                    "duration": 0.10267846875001396
                },
                {
                    "name": "A4",
                    "midi": 69,
                    "time": 150.8569919999997,
                    "velocity": 0.48031496062992124,
                    "duration": 0.10267846875001396
                },
                {
                    "name": "A3",
                    "midi": 57,
                    "time": 150.8569919999997,
                    "velocity": 0.48031496062992124,
                    "duration": 0.10491060937502539
                },
                {
                    "name": "A#3",
                    "midi": 58,
                    "time": 150.96413474999974,
                    "velocity": 0.48031496062992124,
                    "duration": 0.10491060937502539
                },
                {
                    "name": "C5",
                    "midi": 72,
                    "time": 150.96413474999974,
                    "velocity": 0.48031496062992124,
                    "duration": 0.10491060937502539
                },
                {
                    "name": "G#4",
                    "midi": 68,
                    "time": 150.96413474999974,
                    "velocity": 0.48031496062992124,
                    "duration": 0.10491060937502539
                },
                {
                    "name": "B3",
                    "midi": 59,
                    "time": 151.07127749999978,
                    "velocity": 0.48031496062992124,
                    "duration": 0.10491060937502539
                },
                {
                    "name": "A2",
                    "midi": 45,
                    "time": 151.07127749999978,
                    "velocity": 0.48031496062992124,
                    "duration": 0.20982121875005078
                },
                {
                    "name": "E5",
                    "midi": 76,
                    "time": 151.07127749999978,
                    "velocity": 0.48031496062992124,
                    "duration": 0.20982121875005078
                },
                {
                    "name": "B4",
                    "midi": 71,
                    "time": 151.07127749999978,
                    "velocity": 0.48031496062992124,
                    "duration": 0.10267846875001396
                },
                {
                    "name": "G4",
                    "midi": 67,
                    "time": 151.07127749999978,
                    "velocity": 0.48031496062992124,
                    "duration": 0.10267846875001396
                },
                {
                    "name": "C5",
                    "midi": 72,
                    "time": 151.17842024999982,
                    "velocity": 0.48031496062992124,
                    "duration": 0.10491060937502539
                },
                {
                    "name": "G#4",
                    "midi": 68,
                    "time": 151.17842024999982,
                    "velocity": 0.48031496062992124,
                    "duration": 0.10267846875001396
                },
                {
                    "name": "A#3",
                    "midi": 58,
                    "time": 151.17842024999982,
                    "velocity": 0.48031496062992124,
                    "duration": 0.10491060937502539
                },
                {
                    "name": "D2",
                    "midi": 38,
                    "time": 151.28556299999985,
                    "velocity": 0.48031496062992124,
                    "duration": 0.10267846875001396
                },
                {
                    "name": "C#5",
                    "midi": 73,
                    "time": 151.28556299999985,
                    "velocity": 0.48031496062992124,
                    "duration": 0.10267846875001396
                },
                {
                    "name": "A#4",
                    "midi": 70,
                    "time": 151.28556299999985,
                    "velocity": 0.48031496062992124,
                    "duration": 0.10267846875001396
                },
                {
                    "name": "F#5",
                    "midi": 78,
                    "time": 151.28556299999985,
                    "velocity": 0.48031496062992124,
                    "duration": 0.21205335937503378
                },
                {
                    "name": "D#2",
                    "midi": 39,
                    "time": 151.39270574999986,
                    "velocity": 0.48031496062992124,
                    "duration": 0.10267846875001396
                },
                {
                    "name": "C5",
                    "midi": 72,
                    "time": 151.39270574999986,
                    "velocity": 0.48031496062992124,
                    "duration": 0.10267846875001396
                },
                {
                    "name": "A4",
                    "midi": 69,
                    "time": 151.39270574999986,
                    "velocity": 0.48031496062992124,
                    "duration": 0.10267846875001396
                },
                {
                    "name": "E2",
                    "midi": 40,
                    "time": 151.4998484999999,
                    "velocity": 0.48031496062992124,
                    "duration": 0.10267846875001396
                },
                {
                    "name": "F#4",
                    "midi": 66,
                    "time": 151.4998484999999,
                    "velocity": 0.48031496062992124,
                    "duration": 0.20982121875002235
                },
                {
                    "name": "B4",
                    "midi": 71,
                    "time": 151.4998484999999,
                    "velocity": 0.48031496062992124,
                    "duration": 0.10267846875001396
                },
                {
                    "name": "G4",
                    "midi": 67,
                    "time": 151.6069912499999,
                    "velocity": 0.48031496062992124,
                    "duration": 0.10267846875001396
                },
                {
                    "name": "A#4",
                    "midi": 70,
                    "time": 151.6069912499999,
                    "velocity": 0.48031496062992124,
                    "duration": 0.10267846875001396
                },
                {
                    "name": "F2",
                    "midi": 41,
                    "time": 151.6069912499999,
                    "velocity": 0.48031496062992124,
                    "duration": 0.10267846875001396
                },
                {
                    "name": "F#3",
                    "midi": 54,
                    "time": 151.71413399999992,
                    "velocity": 0.48031496062992124,
                    "duration": 0.20982121875002235
                },
                {
                    "name": "F#4",
                    "midi": 66,
                    "time": 151.71413399999992,
                    "velocity": 0.48031496062992124,
                    "duration": 0.10267846875001396
                },
                {
                    "name": "A4",
                    "midi": 69,
                    "time": 151.71413399999992,
                    "velocity": 0.48031496062992124,
                    "duration": 0.10267846875001396
                },
                {
                    "name": "F3",
                    "midi": 53,
                    "time": 151.82127674999992,
                    "velocity": 0.48031496062992124,
                    "duration": 0.10267846875001396
                },
                {
                    "name": "G4",
                    "midi": 67,
                    "time": 151.82127674999992,
                    "velocity": 0.48031496062992124,
                    "duration": 0.10267846875001396
                },
                {
                    "name": "A#4",
                    "midi": 70,
                    "time": 151.82127674999992,
                    "velocity": 0.48031496062992124,
                    "duration": 0.10267846875001396
                },
                {
                    "name": "E3",
                    "midi": 52,
                    "time": 151.92841949999993,
                    "velocity": 0.48031496062992124,
                    "duration": 0.10267846875001396
                },
                {
                    "name": "B4",
                    "midi": 71,
                    "time": 151.92841949999993,
                    "velocity": 0.48031496062992124,
                    "duration": 0.10267846875001396
                },
                {
                    "name": "F#4",
                    "midi": 66,
                    "time": 151.92841949999993,
                    "velocity": 0.48031496062992124,
                    "duration": 0.20982121875002235
                },
                {
                    "name": "G#4",
                    "midi": 68,
                    "time": 151.92841949999993,
                    "velocity": 0.48031496062992124,
                    "duration": 0.10267846875001396
                },
                {
                    "name": "D#3",
                    "midi": 51,
                    "time": 152.03556224999994,
                    "velocity": 0.48031496062992124,
                    "duration": 0.10267846875001396
                },
                {
                    "name": "A4",
                    "midi": 69,
                    "time": 152.03556224999994,
                    "velocity": 0.48031496062992124,
                    "duration": 0.10267846875001396
                },
                {
                    "name": "C5",
                    "midi": 72,
                    "time": 152.03556224999994,
                    "velocity": 0.48031496062992124,
                    "duration": 0.10267846875001396
                },
                {
                    "name": "F#5",
                    "midi": 78,
                    "time": 152.14270499999995,
                    "velocity": 0.48031496062992124,
                    "duration": 0.20982121875005078
                },
                {
                    "name": "C#5",
                    "midi": 73,
                    "time": 152.14270499999995,
                    "velocity": 0.48031496062992124,
                    "duration": 0.10491060937502539
                },
                {
                    "name": "A#4",
                    "midi": 70,
                    "time": 152.14270499999995,
                    "velocity": 0.48031496062992124,
                    "duration": 0.10267846875001396
                },
                {
                    "name": "D2",
                    "midi": 38,
                    "time": 152.14270499999995,
                    "velocity": 0.48031496062992124,
                    "duration": 0.10491060937502539
                },
                {
                    "name": "D#2",
                    "midi": 39,
                    "time": 152.24984775,
                    "velocity": 0.48031496062992124,
                    "duration": 0.10267846875001396
                },
                {
                    "name": "C5",
                    "midi": 72,
                    "time": 152.24984775,
                    "velocity": 0.48031496062992124,
                    "duration": 0.10267846875001396
                },
                {
                    "name": "A4",
                    "midi": 69,
                    "time": 152.24984775,
                    "velocity": 0.48031496062992124,
                    "duration": 0.10267846875001396
                },
                {
                    "name": "F#4",
                    "midi": 66,
                    "time": 152.3569905,
                    "velocity": 0.48031496062992124,
                    "duration": 0.20982121875002235
                },
                {
                    "name": "E2",
                    "midi": 40,
                    "time": 152.3569905,
                    "velocity": 0.48031496062992124,
                    "duration": 0.10267846875001396
                },
                {
                    "name": "G#4",
                    "midi": 68,
                    "time": 152.3569905,
                    "velocity": 0.48031496062992124,
                    "duration": 0.10267846875001396
                },
                {
                    "name": "B4",
                    "midi": 71,
                    "time": 152.3569905,
                    "velocity": 0.48031496062992124,
                    "duration": 0.10267846875001396
                },
                {
                    "name": "F2",
                    "midi": 41,
                    "time": 152.46413325,
                    "velocity": 0.48031496062992124,
                    "duration": 0.10267846875001396
                },
                {
                    "name": "G4",
                    "midi": 67,
                    "time": 152.46413325,
                    "velocity": 0.48031496062992124,
                    "duration": 0.10491060937502539
                },
                {
                    "name": "A#4",
                    "midi": 70,
                    "time": 152.46413325,
                    "velocity": 0.48031496062992124,
                    "duration": 0.10267846875001396
                },
                {
                    "name": "F#3",
                    "midi": 54,
                    "time": 152.57127600000004,
                    "velocity": 0.48031496062992124,
                    "duration": 0.2120533593750622
                },
                {
                    "name": "F#4",
                    "midi": 66,
                    "time": 152.57127600000004,
                    "velocity": 0.48031496062992124,
                    "duration": 0.10267846875001396
                },
                {
                    "name": "A4",
                    "midi": 69,
                    "time": 152.57127600000004,
                    "velocity": 0.48031496062992124,
                    "duration": 0.10491060937502539
                },
                {
                    "name": "F3",
                    "midi": 53,
                    "time": 152.67841875000008,
                    "velocity": 0.48031496062992124,
                    "duration": 0.10491060937502539
                },
                {
                    "name": "G4",
                    "midi": 67,
                    "time": 152.67841875000008,
                    "velocity": 0.48031496062992124,
                    "duration": 0.10267846875001396
                },
                {
                    "name": "A#4",
                    "midi": 70,
                    "time": 152.67841875000008,
                    "velocity": 0.48031496062992124,
                    "duration": 0.10267846875001396
                },
                {
                    "name": "F#4",
                    "midi": 66,
                    "time": 152.7855615000001,
                    "velocity": 0.48031496062992124,
                    "duration": 0.20982121875005078
                },
                {
                    "name": "E3",
                    "midi": 52,
                    "time": 152.7855615000001,
                    "velocity": 0.48031496062992124,
                    "duration": 0.10267846875001396
                },
                {
                    "name": "G#4",
                    "midi": 68,
                    "time": 152.7855615000001,
                    "velocity": 0.48031496062992124,
                    "duration": 0.10267846875001396
                },
                {
                    "name": "B4",
                    "midi": 71,
                    "time": 152.7855615000001,
                    "velocity": 0.48031496062992124,
                    "duration": 0.10491060937502539
                },
                {
                    "name": "D#3",
                    "midi": 51,
                    "time": 152.89270425000015,
                    "velocity": 0.48031496062992124,
                    "duration": 0.10491060937502539
                },
                {
                    "name": "C5",
                    "midi": 72,
                    "time": 152.89270425000015,
                    "velocity": 0.48031496062992124,
                    "duration": 0.10267846875001396
                },
                {
                    "name": "A4",
                    "midi": 69,
                    "time": 152.89270425000015,
                    "velocity": 0.48031496062992124,
                    "duration": 0.10491060937502539
                },
                {
                    "name": "C2",
                    "midi": 36,
                    "time": 152.9998470000002,
                    "velocity": 0.48031496062992124,
                    "duration": 0.10267846875001396
                },
                {
                    "name": "E5",
                    "midi": 76,
                    "time": 152.9998470000002,
                    "velocity": 0.48031496062992124,
                    "duration": 0.20982121875002235
                },
                {
                    "name": "G#4",
                    "midi": 68,
                    "time": 152.9998470000002,
                    "velocity": 0.48031496062992124,
                    "duration": 0.10267846875001396
                },
                {
                    "name": "B4",
                    "midi": 71,
                    "time": 152.9998470000002,
                    "velocity": 0.48031496062992124,
                    "duration": 0.10267846875001396
                },
                {
                    "name": "C#2",
                    "midi": 37,
                    "time": 153.1069897500002,
                    "velocity": 0.48031496062992124,
                    "duration": 0.10267846875001396
                },
                {
                    "name": "G4",
                    "midi": 67,
                    "time": 153.1069897500002,
                    "velocity": 0.48031496062992124,
                    "duration": 0.10267846875001396
                },
                {
                    "name": "A#4",
                    "midi": 70,
                    "time": 153.1069897500002,
                    "velocity": 0.48031496062992124,
                    "duration": 0.10267846875001396
                },
                {
                    "name": "D2",
                    "midi": 38,
                    "time": 153.2141325000002,
                    "velocity": 0.48031496062992124,
                    "duration": 0.10267846875001396
                },
                {
                    "name": "E4",
                    "midi": 64,
                    "time": 153.2141325000002,
                    "velocity": 0.48031496062992124,
                    "duration": 0.20982121875002235
                },
                {
                    "name": "F#4",
                    "midi": 66,
                    "time": 153.2141325000002,
                    "velocity": 0.48031496062992124,
                    "duration": 0.10267846875001396
                },
                {
                    "name": "A4",
                    "midi": 69,
                    "time": 153.2141325000002,
                    "velocity": 0.48031496062992124,
                    "duration": 0.10267846875001396
                },
                {
                    "name": "D#2",
                    "midi": 39,
                    "time": 153.3212752500002,
                    "velocity": 0.48031496062992124,
                    "duration": 0.10267846875001396
                },
                {
                    "name": "F4",
                    "midi": 65,
                    "time": 153.3212752500002,
                    "velocity": 0.48031496062992124,
                    "duration": 0.10267846875001396
                },
                {
                    "name": "G#4",
                    "midi": 68,
                    "time": 153.3212752500002,
                    "velocity": 0.48031496062992124,
                    "duration": 0.10267846875001396
                },
                {
                    "name": "E3",
                    "midi": 52,
                    "time": 153.42841800000022,
                    "velocity": 0.48031496062992124,
                    "duration": 0.20982121875002235
                },
                {
                    "name": "E4",
                    "midi": 64,
                    "time": 153.42841800000022,
                    "velocity": 0.48031496062992124,
                    "duration": 0.10267846875001396
                },
                {
                    "name": "G4",
                    "midi": 67,
                    "time": 153.42841800000022,
                    "velocity": 0.48031496062992124,
                    "duration": 0.10267846875001396
                },
                {
                    "name": "D#3",
                    "midi": 51,
                    "time": 153.53556075000023,
                    "velocity": 0.48031496062992124,
                    "duration": 0.10267846875001396
                },
                {
                    "name": "F4",
                    "midi": 65,
                    "time": 153.53556075000023,
                    "velocity": 0.48031496062992124,
                    "duration": 0.10267846875001396
                },
                {
                    "name": "G#4",
                    "midi": 68,
                    "time": 153.53556075000023,
                    "velocity": 0.48031496062992124,
                    "duration": 0.10267846875001396
                },
                {
                    "name": "D3",
                    "midi": 50,
                    "time": 153.64270350000024,
                    "velocity": 0.48031496062992124,
                    "duration": 0.10267846875001396
                },
                {
                    "name": "A4",
                    "midi": 69,
                    "time": 153.64270350000024,
                    "velocity": 0.48031496062992124,
                    "duration": 0.10267846875001396
                },
                {
                    "name": "E4",
                    "midi": 64,
                    "time": 153.64270350000024,
                    "velocity": 0.48031496062992124,
                    "duration": 0.20982121875002235
                },
                {
                    "name": "F#4",
                    "midi": 66,
                    "time": 153.64270350000024,
                    "velocity": 0.48031496062992124,
                    "duration": 0.10267846875001396
                },
                {
                    "name": "C#3",
                    "midi": 49,
                    "time": 153.74984625000025,
                    "velocity": 0.48031496062992124,
                    "duration": 0.10267846875001396
                },
                {
                    "name": "G4",
                    "midi": 67,
                    "time": 153.74984625000025,
                    "velocity": 0.48031496062992124,
                    "duration": 0.10267846875001396
                },
                {
                    "name": "A#4",
                    "midi": 70,
                    "time": 153.74984625000025,
                    "velocity": 0.48031496062992124,
                    "duration": 0.10267846875001396
                },
                {
                    "name": "C2",
                    "midi": 36,
                    "time": 153.85698900000025,
                    "velocity": 0.48031496062992124,
                    "duration": 0.10267846875001396
                },
                {
                    "name": "E2",
                    "midi": 40,
                    "time": 153.85698900000025,
                    "velocity": 0.48031496062992124,
                    "duration": 0.10267846875001396
                },
                {
                    "name": "A#4",
                    "midi": 70,
                    "time": 153.85698900000025,
                    "velocity": 0.48031496062992124,
                    "duration": 0.10267846875001396
                },
                {
                    "name": "E4",
                    "midi": 64,
                    "time": 153.85698900000025,
                    "velocity": 0.48031496062992124,
                    "duration": 0.10267846875001396
                },
                {
                    "name": "C#2",
                    "midi": 37,
                    "time": 153.96413175000026,
                    "velocity": 0.48031496062992124,
                    "duration": 0.10267846875001396
                },
                {
                    "name": "F2",
                    "midi": 41,
                    "time": 153.96413175000026,
                    "velocity": 0.48031496062992124,
                    "duration": 0.10267846875001396
                },
                {
                    "name": "B4",
                    "midi": 71,
                    "time": 153.96413175000026,
                    "velocity": 0.48031496062992124,
                    "duration": 0.10267846875001396
                },
                {
                    "name": "D2",
                    "midi": 38,
                    "time": 154.07127450000027,
                    "velocity": 0.48031496062992124,
                    "duration": 0.10267846875001396
                },
                {
                    "name": "F#2",
                    "midi": 42,
                    "time": 154.07127450000027,
                    "velocity": 0.48031496062992124,
                    "duration": 0.10267846875001396
                },
                {
                    "name": "E5",
                    "midi": 76,
                    "time": 154.07127450000027,
                    "velocity": 0.48031496062992124,
                    "duration": 0.10267846875001396
                },
                {
                    "name": "C5",
                    "midi": 72,
                    "time": 154.07127450000027,
                    "velocity": 0.48031496062992124,
                    "duration": 0.10267846875001396
                },
                {
                    "name": "D#2",
                    "midi": 39,
                    "time": 154.17841725000028,
                    "velocity": 0.48031496062992124,
                    "duration": 0.10267846875001396
                },
                {
                    "name": "G2",
                    "midi": 43,
                    "time": 154.17841725000028,
                    "velocity": 0.48031496062992124,
                    "duration": 0.10267846875001396
                },
                {
                    "name": "B4",
                    "midi": 71,
                    "time": 154.17841725000028,
                    "velocity": 0.48031496062992124,
                    "duration": 0.10267846875001396
                },
                {
                    "name": "E2",
                    "midi": 40,
                    "time": 154.2855600000003,
                    "velocity": 0.48031496062992124,
                    "duration": 0.10267846875001396
                },
                {
                    "name": "G#2",
                    "midi": 44,
                    "time": 154.2855600000003,
                    "velocity": 0.48031496062992124,
                    "duration": 0.10267846875001396
                },
                {
                    "name": "A#5",
                    "midi": 82,
                    "time": 154.2855600000003,
                    "velocity": 0.48031496062992124,
                    "duration": 0.10267846875001396
                },
                {
                    "name": "A#4",
                    "midi": 70,
                    "time": 154.2855600000003,
                    "velocity": 0.48031496062992124,
                    "duration": 0.10267846875001396
                },
                {
                    "name": "E5",
                    "midi": 76,
                    "time": 154.2855600000003,
                    "velocity": 0.48031496062992124,
                    "duration": 0.10267846875001396
                },
                {
                    "name": "A2",
                    "midi": 45,
                    "time": 154.3927027500003,
                    "velocity": 0.48031496062992124,
                    "duration": 0.10267846875001396
                },
                {
                    "name": "F2",
                    "midi": 41,
                    "time": 154.3927027500003,
                    "velocity": 0.48031496062992124,
                    "duration": 0.10267846875001396
                },
                {
                    "name": "B5",
                    "midi": 83,
                    "time": 154.3927027500003,
                    "velocity": 0.48031496062992124,
                    "duration": 0.10267846875001396
                },
                {
                    "name": "A#2",
                    "midi": 46,
                    "time": 154.4998455000003,
                    "velocity": 0.48031496062992124,
                    "duration": 0.10267846875001396
                },
                {
                    "name": "F#2",
                    "midi": 42,
                    "time": 154.4998455000003,
                    "velocity": 0.48031496062992124,
                    "duration": 0.10267846875001396
                },
                {
                    "name": "E6",
                    "midi": 88,
                    "time": 154.4998455000003,
                    "velocity": 0.48031496062992124,
                    "duration": 0.10267846875001396
                },
                {
                    "name": "C6",
                    "midi": 84,
                    "time": 154.4998455000003,
                    "velocity": 0.48031496062992124,
                    "duration": 0.10267846875001396
                },
                {
                    "name": "E5",
                    "midi": 76,
                    "time": 154.4998455000003,
                    "velocity": 0.48031496062992124,
                    "duration": 0.10267846875001396
                },
                {
                    "name": "G2",
                    "midi": 43,
                    "time": 154.6069882500003,
                    "velocity": 0.48031496062992124,
                    "duration": 0.10267846875001396
                },
                {
                    "name": "B2",
                    "midi": 47,
                    "time": 154.6069882500003,
                    "velocity": 0.48031496062992124,
                    "duration": 0.10267846875001396
                },
                {
                    "name": "B5",
                    "midi": 83,
                    "time": 154.6069882500003,
                    "velocity": 0.48031496062992124,
                    "duration": 0.10267846875001396
                },
                {
                    "name": "D3",
                    "midi": 50,
                    "time": 154.71413100000032,
                    "velocity": 0.48031496062992124,
                    "duration": 0.10267846875001396
                },
                {
                    "name": "D2",
                    "midi": 38,
                    "time": 154.71413100000032,
                    "velocity": 0.48031496062992124,
                    "duration": 0.10267846875001396
                },
                {
                    "name": "F#6",
                    "midi": 90,
                    "time": 154.71413100000032,
                    "velocity": 0.48031496062992124,
                    "duration": 0.20982121875002235
                },
                {
                    "name": "A#5",
                    "midi": 82,
                    "time": 154.71413100000032,
                    "velocity": 0.48031496062992124,
                    "duration": 0.10267846875001396
                },
                {
                    "name": "C#6",
                    "midi": 85,
                    "time": 154.71413100000032,
                    "velocity": 0.48031496062992124,
                    "duration": 0.10267846875001396
                },
                {
                    "name": "D#3",
                    "midi": 51,
                    "time": 154.82127375000033,
                    "velocity": 0.48031496062992124,
                    "duration": 0.10267846875001396
                },
                {
                    "name": "D#2",
                    "midi": 39,
                    "time": 154.82127375000033,
                    "velocity": 0.48031496062992124,
                    "duration": 0.10267846875001396
                },
                {
                    "name": "C6",
                    "midi": 84,
                    "time": 154.82127375000033,
                    "velocity": 0.48031496062992124,
                    "duration": 0.10267846875001396
                },
                {
                    "name": "A5",
                    "midi": 81,
                    "time": 154.82127375000033,
                    "velocity": 0.48031496062992124,
                    "duration": 0.10267846875001396
                },
                {
                    "name": "E3",
                    "midi": 52,
                    "time": 154.92841650000034,
                    "velocity": 0.48031496062992124,
                    "duration": 0.10267846875001396
                },
                {
                    "name": "E2",
                    "midi": 40,
                    "time": 154.92841650000034,
                    "velocity": 0.48031496062992124,
                    "duration": 0.10267846875001396
                },
                {
                    "name": "G#5",
                    "midi": 80,
                    "time": 154.92841650000034,
                    "velocity": 0.48031496062992124,
                    "duration": 0.10267846875001396
                },
                {
                    "name": "B5",
                    "midi": 83,
                    "time": 154.92841650000034,
                    "velocity": 0.48031496062992124,
                    "duration": 0.10267846875001396
                },
                {
                    "name": "F#5",
                    "midi": 78,
                    "time": 154.92841650000034,
                    "velocity": 0.48031496062992124,
                    "duration": 0.20982121875002235
                },
                {
                    "name": "F3",
                    "midi": 53,
                    "time": 155.03555925000035,
                    "velocity": 0.48031496062992124,
                    "duration": 0.10267846875001396
                },
                {
                    "name": "G5",
                    "midi": 79,
                    "time": 155.03555925000035,
                    "velocity": 0.48031496062992124,
                    "duration": 0.10267846875001396
                },
                {
                    "name": "A#5",
                    "midi": 82,
                    "time": 155.03555925000035,
                    "velocity": 0.48031496062992124,
                    "duration": 0.10267846875001396
                },
                {
                    "name": "F2",
                    "midi": 41,
                    "time": 155.03555925000035,
                    "velocity": 0.48031496062992124,
                    "duration": 0.10491060937502539
                },
                {
                    "name": "F#4",
                    "midi": 66,
                    "time": 155.14270200000038,
                    "velocity": 0.48031496062992124,
                    "duration": 0.20982121875002235
                },
                {
                    "name": "F#3",
                    "midi": 54,
                    "time": 155.14270200000038,
                    "velocity": 0.48031496062992124,
                    "duration": 0.10267846875001396
                },
                {
                    "name": "F#5",
                    "midi": 78,
                    "time": 155.14270200000038,
                    "velocity": 0.48031496062992124,
                    "duration": 0.10267846875001396
                },
                {
                    "name": "A5",
                    "midi": 81,
                    "time": 155.14270200000038,
                    "velocity": 0.48031496062992124,
                    "duration": 0.10267846875001396
                },
                {
                    "name": "F4",
                    "midi": 65,
                    "time": 155.2498447500004,
                    "velocity": 0.48031496062992124,
                    "duration": 0.10267846875001396
                },
                {
                    "name": "F3",
                    "midi": 53,
                    "time": 155.2498447500004,
                    "velocity": 0.48031496062992124,
                    "duration": 0.10267846875001396
                },
                {
                    "name": "A#5",
                    "midi": 82,
                    "time": 155.2498447500004,
                    "velocity": 0.48031496062992124,
                    "duration": 0.10267846875001396
                },
                {
                    "name": "G5",
                    "midi": 79,
                    "time": 155.2498447500004,
                    "velocity": 0.48031496062992124,
                    "duration": 0.10267846875001396
                },
                {
                    "name": "E4",
                    "midi": 64,
                    "time": 155.3569875000004,
                    "velocity": 0.48031496062992124,
                    "duration": 0.10267846875001396
                },
                {
                    "name": "E3",
                    "midi": 52,
                    "time": 155.3569875000004,
                    "velocity": 0.48031496062992124,
                    "duration": 0.10267846875001396
                },
                {
                    "name": "B5",
                    "midi": 83,
                    "time": 155.3569875000004,
                    "velocity": 0.48031496062992124,
                    "duration": 0.10267846875001396
                },
                {
                    "name": "G#5",
                    "midi": 80,
                    "time": 155.3569875000004,
                    "velocity": 0.48031496062992124,
                    "duration": 0.10267846875001396
                },
                {
                    "name": "F#5",
                    "midi": 78,
                    "time": 155.3569875000004,
                    "velocity": 0.48031496062992124,
                    "duration": 0.20982121875002235
                },
                {
                    "name": "D#4",
                    "midi": 63,
                    "time": 155.4641302500004,
                    "velocity": 0.48031496062992124,
                    "duration": 0.10267846875001396
                },
                {
                    "name": "D#3",
                    "midi": 51,
                    "time": 155.4641302500004,
                    "velocity": 0.48031496062992124,
                    "duration": 0.10267846875001396
                },
                {
                    "name": "C6",
                    "midi": 84,
                    "time": 155.4641302500004,
                    "velocity": 0.48031496062992124,
                    "duration": 0.10267846875001396
                },
                {
                    "name": "A5",
                    "midi": 81,
                    "time": 155.4641302500004,
                    "velocity": 0.48031496062992124,
                    "duration": 0.10267846875001396
                },
                {
                    "name": "D3",
                    "midi": 50,
                    "time": 155.57127300000042,
                    "velocity": 0.48031496062992124,
                    "duration": 0.10267846875001396
                },
                {
                    "name": "D2",
                    "midi": 38,
                    "time": 155.57127300000042,
                    "velocity": 0.48031496062992124,
                    "duration": 0.10267846875001396
                },
                {
                    "name": "F#6",
                    "midi": 90,
                    "time": 155.57127300000042,
                    "velocity": 0.48031496062992124,
                    "duration": 0.20982121875002235
                },
                {
                    "name": "A#5",
                    "midi": 82,
                    "time": 155.57127300000042,
                    "velocity": 0.48031496062992124,
                    "duration": 0.10267846875001396
                },
                {
                    "name": "C#6",
                    "midi": 85,
                    "time": 155.57127300000042,
                    "velocity": 0.48031496062992124,
                    "duration": 0.10267846875001396
                },
                {
                    "name": "D#3",
                    "midi": 51,
                    "time": 155.67841575000043,
                    "velocity": 0.48031496062992124,
                    "duration": 0.10267846875001396
                },
                {
                    "name": "D#2",
                    "midi": 39,
                    "time": 155.67841575000043,
                    "velocity": 0.48031496062992124,
                    "duration": 0.10267846875001396
                },
                {
                    "name": "A5",
                    "midi": 81,
                    "time": 155.67841575000043,
                    "velocity": 0.48031496062992124,
                    "duration": 0.10267846875001396
                },
                {
                    "name": "C6",
                    "midi": 84,
                    "time": 155.67841575000043,
                    "velocity": 0.48031496062992124,
                    "duration": 0.10267846875001396
                },
                {
                    "name": "E3",
                    "midi": 52,
                    "time": 155.78555850000043,
                    "velocity": 0.48031496062992124,
                    "duration": 0.10267846875001396
                },
                {
                    "name": "E2",
                    "midi": 40,
                    "time": 155.78555850000043,
                    "velocity": 0.48031496062992124,
                    "duration": 0.10267846875001396
                },
                {
                    "name": "G#5",
                    "midi": 80,
                    "time": 155.78555850000043,
                    "velocity": 0.48031496062992124,
                    "duration": 0.10267846875001396
                },
                {
                    "name": "F#5",
                    "midi": 78,
                    "time": 155.78555850000043,
                    "velocity": 0.48031496062992124,
                    "duration": 0.20982121875002235
                },
                {
                    "name": "B5",
                    "midi": 83,
                    "time": 155.78555850000043,
                    "velocity": 0.48031496062992124,
                    "duration": 0.10267846875001396
                },
                {
                    "name": "F3",
                    "midi": 53,
                    "time": 155.89270125000044,
                    "velocity": 0.48031496062992124,
                    "duration": 0.10267846875001396
                },
                {
                    "name": "F2",
                    "midi": 41,
                    "time": 155.89270125000044,
                    "velocity": 0.48031496062992124,
                    "duration": 0.10267846875001396
                },
                {
                    "name": "A#5",
                    "midi": 82,
                    "time": 155.89270125000044,
                    "velocity": 0.48031496062992124,
                    "duration": 0.10267846875001396
                },
                {
                    "name": "G5",
                    "midi": 79,
                    "time": 155.89270125000044,
                    "velocity": 0.48031496062992124,
                    "duration": 0.10267846875001396
                },
                {
                    "name": "F#3",
                    "midi": 54,
                    "time": 155.99984400000045,
                    "velocity": 0.48031496062992124,
                    "duration": 0.10267846875001396
                },
                {
                    "name": "F#4",
                    "midi": 66,
                    "time": 155.99984400000045,
                    "velocity": 0.48031496062992124,
                    "duration": 0.20982121875002235
                },
                {
                    "name": "A5",
                    "midi": 81,
                    "time": 155.99984400000045,
                    "velocity": 0.48031496062992124,
                    "duration": 0.10267846875001396
                },
                {
                    "name": "F#5",
                    "midi": 78,
                    "time": 155.99984400000045,
                    "velocity": 0.48031496062992124,
                    "duration": 0.10267846875001396
                },
                {
                    "name": "F4",
                    "midi": 65,
                    "time": 156.10698675000046,
                    "velocity": 0.48031496062992124,
                    "duration": 0.10267846875001396
                },
                {
                    "name": "F3",
                    "midi": 53,
                    "time": 156.10698675000046,
                    "velocity": 0.48031496062992124,
                    "duration": 0.10267846875001396
                },
                {
                    "name": "A#5",
                    "midi": 82,
                    "time": 156.10698675000046,
                    "velocity": 0.48031496062992124,
                    "duration": 0.10267846875001396
                },
                {
                    "name": "G5",
                    "midi": 79,
                    "time": 156.10698675000046,
                    "velocity": 0.48031496062992124,
                    "duration": 0.10267846875001396
                },
                {
                    "name": "E4",
                    "midi": 64,
                    "time": 156.21412950000047,
                    "velocity": 0.48031496062992124,
                    "duration": 0.10267846875001396
                },
                {
                    "name": "E3",
                    "midi": 52,
                    "time": 156.21412950000047,
                    "velocity": 0.48031496062992124,
                    "duration": 0.10267846875001396
                },
                {
                    "name": "B5",
                    "midi": 83,
                    "time": 156.21412950000047,
                    "velocity": 0.48031496062992124,
                    "duration": 0.10267846875001396
                },
                {
                    "name": "G#5",
                    "midi": 80,
                    "time": 156.21412950000047,
                    "velocity": 0.48031496062992124,
                    "duration": 0.10267846875001396
                },
                {
                    "name": "F#5",
                    "midi": 78,
                    "time": 156.21412950000047,
                    "velocity": 0.48031496062992124,
                    "duration": 0.20982121875002235
                },
                {
                    "name": "D#3",
                    "midi": 51,
                    "time": 156.32127225000048,
                    "velocity": 0.48031496062992124,
                    "duration": 0.10267846875001396
                },
                {
                    "name": "D#4",
                    "midi": 63,
                    "time": 156.32127225000048,
                    "velocity": 0.48031496062992124,
                    "duration": 0.10267846875001396
                },
                {
                    "name": "C6",
                    "midi": 84,
                    "time": 156.32127225000048,
                    "velocity": 0.48031496062992124,
                    "duration": 0.10267846875001396
                },
                {
                    "name": "A5",
                    "midi": 81,
                    "time": 156.32127225000048,
                    "velocity": 0.48031496062992124,
                    "duration": 0.10267846875001396
                },
                {
                    "name": "D6",
                    "midi": 86,
                    "time": 156.42841500000048,
                    "velocity": 0.48031496062992124,
                    "duration": 0.20982121875002235
                },
                {
                    "name": "A#1",
                    "midi": 34,
                    "time": 156.42841500000048,
                    "velocity": 0.48031496062992124,
                    "duration": 0.10267846875001396
                },
                {
                    "name": "A#2",
                    "midi": 46,
                    "time": 156.42841500000048,
                    "velocity": 0.48031496062992124,
                    "duration": 0.10267846875001396
                },
                {
                    "name": "A5",
                    "midi": 81,
                    "time": 156.42841500000048,
                    "velocity": 0.48031496062992124,
                    "duration": 0.10267846875001396
                },
                {
                    "name": "F#5",
                    "midi": 78,
                    "time": 156.42841500000048,
                    "velocity": 0.48031496062992124,
                    "duration": 0.10267846875001396
                },
                {
                    "name": "B2",
                    "midi": 47,
                    "time": 156.5355577500005,
                    "velocity": 0.48031496062992124,
                    "duration": 0.10267846875001396
                },
                {
                    "name": "B1",
                    "midi": 35,
                    "time": 156.5355577500005,
                    "velocity": 0.48031496062992124,
                    "duration": 0.10267846875001396
                },
                {
                    "name": "G#5",
                    "midi": 80,
                    "time": 156.5355577500005,
                    "velocity": 0.48031496062992124,
                    "duration": 0.10267846875001396
                },
                {
                    "name": "F5",
                    "midi": 77,
                    "time": 156.5355577500005,
                    "velocity": 0.48031496062992124,
                    "duration": 0.10267846875001396
                },
                {
                    "name": "C2",
                    "midi": 36,
                    "time": 156.6427005000005,
                    "velocity": 0.48031496062992124,
                    "duration": 0.10267846875001396
                },
                {
                    "name": "C3",
                    "midi": 48,
                    "time": 156.6427005000005,
                    "velocity": 0.48031496062992124,
                    "duration": 0.10267846875001396
                },
                {
                    "name": "G5",
                    "midi": 79,
                    "time": 156.6427005000005,
                    "velocity": 0.48031496062992124,
                    "duration": 0.10267846875001396
                },
                {
                    "name": "E5",
                    "midi": 76,
                    "time": 156.6427005000005,
                    "velocity": 0.48031496062992124,
                    "duration": 0.10267846875001396
                },
                {
                    "name": "D5",
                    "midi": 74,
                    "time": 156.6427005000005,
                    "velocity": 0.48031496062992124,
                    "duration": 0.20982121875002235
                },
                {
                    "name": "C#3",
                    "midi": 49,
                    "time": 156.7498432500005,
                    "velocity": 0.48031496062992124,
                    "duration": 0.10267846875001396
                },
                {
                    "name": "C#2",
                    "midi": 37,
                    "time": 156.7498432500005,
                    "velocity": 0.48031496062992124,
                    "duration": 0.10267846875001396
                },
                {
                    "name": "D#5",
                    "midi": 75,
                    "time": 156.7498432500005,
                    "velocity": 0.48031496062992124,
                    "duration": 0.10267846875001396
                },
                {
                    "name": "F#5",
                    "midi": 78,
                    "time": 156.7498432500005,
                    "velocity": 0.48031496062992124,
                    "duration": 0.10267846875001396
                },
                {
                    "name": "D4",
                    "midi": 62,
                    "time": 156.85698600000052,
                    "velocity": 0.48031496062992124,
                    "duration": 0.20982121875002235
                },
                {
                    "name": "D3",
                    "midi": 50,
                    "time": 156.85698600000052,
                    "velocity": 0.48031496062992124,
                    "duration": 0.10267846875001396
                },
                {
                    "name": "D5",
                    "midi": 74,
                    "time": 156.85698600000052,
                    "velocity": 0.48031496062992124,
                    "duration": 0.10267846875001396
                },
                {
                    "name": "F5",
                    "midi": 77,
                    "time": 156.85698600000052,
                    "velocity": 0.48031496062992124,
                    "duration": 0.10267846875001396
                },
                {
                    "name": "C#3",
                    "midi": 49,
                    "time": 156.96412875000053,
                    "velocity": 0.48031496062992124,
                    "duration": 0.10267846875001396
                },
                {
                    "name": "C#4",
                    "midi": 61,
                    "time": 156.96412875000053,
                    "velocity": 0.48031496062992124,
                    "duration": 0.10267846875001396
                },
                {
                    "name": "F#5",
                    "midi": 78,
                    "time": 156.96412875000053,
                    "velocity": 0.48031496062992124,
                    "duration": 0.10267846875001396
                },
                {
                    "name": "D#5",
                    "midi": 75,
                    "time": 156.96412875000053,
                    "velocity": 0.48031496062992124,
                    "duration": 0.10267846875001396
                },
                {
                    "name": "C3",
                    "midi": 48,
                    "time": 157.07127150000053,
                    "velocity": 0.48031496062992124,
                    "duration": 0.10267846875001396
                },
                {
                    "name": "C4",
                    "midi": 60,
                    "time": 157.07127150000053,
                    "velocity": 0.48031496062992124,
                    "duration": 0.10267846875001396
                },
                {
                    "name": "E5",
                    "midi": 76,
                    "time": 157.07127150000053,
                    "velocity": 0.48031496062992124,
                    "duration": 0.10267846875001396
                },
                {
                    "name": "G5",
                    "midi": 79,
                    "time": 157.07127150000053,
                    "velocity": 0.48031496062992124,
                    "duration": 0.10267846875001396
                },
                {
                    "name": "D5",
                    "midi": 74,
                    "time": 157.07127150000053,
                    "velocity": 0.48031496062992124,
                    "duration": 0.20982121875002235
                },
                {
                    "name": "B3",
                    "midi": 59,
                    "time": 157.17841425000054,
                    "velocity": 0.48031496062992124,
                    "duration": 0.10267846875001396
                },
                {
                    "name": "B2",
                    "midi": 47,
                    "time": 157.17841425000054,
                    "velocity": 0.48031496062992124,
                    "duration": 0.10267846875001396
                },
                {
                    "name": "F5",
                    "midi": 77,
                    "time": 157.17841425000054,
                    "velocity": 0.48031496062992124,
                    "duration": 0.10267846875001396
                },
                {
                    "name": "G#5",
                    "midi": 80,
                    "time": 157.17841425000054,
                    "velocity": 0.48031496062992124,
                    "duration": 0.10267846875001396
                },
                {
                    "name": "D3",
                    "midi": 50,
                    "time": 157.28555700000055,
                    "velocity": 0.48031496062992124,
                    "duration": 0.10267846875001396
                },
                {
                    "name": "A#2",
                    "midi": 46,
                    "time": 157.28555700000055,
                    "velocity": 0.48031496062992124,
                    "duration": 0.10267846875001396
                },
                {
                    "name": "G#5",
                    "midi": 80,
                    "time": 157.28555700000055,
                    "velocity": 0.48031496062992124,
                    "duration": 0.10267846875001396
                },
                {
                    "name": "D5",
                    "midi": 74,
                    "time": 157.28555700000055,
                    "velocity": 0.48031496062992124,
                    "duration": 0.10267846875001396
                },
                {
                    "name": "C#3",
                    "midi": 49,
                    "time": 157.39269975000056,
                    "velocity": 0.48031496062992124,
                    "duration": 0.10267846875001396
                },
                {
                    "name": "A2",
                    "midi": 45,
                    "time": 157.39269975000056,
                    "velocity": 0.48031496062992124,
                    "duration": 0.10267846875001396
                },
                {
                    "name": "A5",
                    "midi": 81,
                    "time": 157.39269975000056,
                    "velocity": 0.48031496062992124,
                    "duration": 0.10267846875001396
                },
                {
                    "name": "G#2",
                    "midi": 44,
                    "time": 157.49984250000057,
                    "velocity": 0.48031496062992124,
                    "duration": 0.10267846875001396
                },
                {
                    "name": "C3",
                    "midi": 48,
                    "time": 157.49984250000057,
                    "velocity": 0.48031496062992124,
                    "duration": 0.10267846875001396
                },
                {
                    "name": "A#5",
                    "midi": 82,
                    "time": 157.49984250000057,
                    "velocity": 0.48031496062992124,
                    "duration": 0.10267846875001396
                },
                {
                    "name": "D6",
                    "midi": 86,
                    "time": 157.49984250000057,
                    "velocity": 0.48031496062992124,
                    "duration": 0.10267846875001396
                },
                {
                    "name": "B2",
                    "midi": 47,
                    "time": 157.60698525000058,
                    "velocity": 0.48031496062992124,
                    "duration": 0.10267846875001396
                },
                {
                    "name": "G2",
                    "midi": 43,
                    "time": 157.60698525000058,
                    "velocity": 0.48031496062992124,
                    "duration": 0.10267846875001396
                },
                {
                    "name": "A5",
                    "midi": 81,
                    "time": 157.60698525000058,
                    "velocity": 0.48031496062992124,
                    "duration": 0.10267846875001396
                },
                {
                    "name": "A#2",
                    "midi": 46,
                    "time": 157.71412800000058,
                    "velocity": 0.48031496062992124,
                    "duration": 0.10267846875001396
                },
                {
                    "name": "F#2",
                    "midi": 42,
                    "time": 157.71412800000058,
                    "velocity": 0.48031496062992124,
                    "duration": 0.10267846875001396
                },
                {
                    "name": "G#6",
                    "midi": 92,
                    "time": 157.71412800000058,
                    "velocity": 0.48031496062992124,
                    "duration": 0.10267846875001396
                },
                {
                    "name": "G#5",
                    "midi": 80,
                    "time": 157.71412800000058,
                    "velocity": 0.48031496062992124,
                    "duration": 0.10267846875001396
                },
                {
                    "name": "D6",
                    "midi": 86,
                    "time": 157.71412800000058,
                    "velocity": 0.48031496062992124,
                    "duration": 0.10267846875001396
                },
                {
                    "name": "F2",
                    "midi": 41,
                    "time": 157.8212707500006,
                    "velocity": 0.48031496062992124,
                    "duration": 0.10267846875001396
                },
                {
                    "name": "A2",
                    "midi": 45,
                    "time": 157.8212707500006,
                    "velocity": 0.48031496062992124,
                    "duration": 0.10267846875001396
                },
                {
                    "name": "A6",
                    "midi": 93,
                    "time": 157.8212707500006,
                    "velocity": 0.48031496062992124,
                    "duration": 0.10267846875001396
                },
                {
                    "name": "G#2",
                    "midi": 44,
                    "time": 157.9284135000006,
                    "velocity": 0.48031496062992124,
                    "duration": 0.10267846875001396
                },
                {
                    "name": "E2",
                    "midi": 40,
                    "time": 157.9284135000006,
                    "velocity": 0.48031496062992124,
                    "duration": 0.10267846875001396
                },
                {
                    "name": "A#6",
                    "midi": 94,
                    "time": 157.9284135000006,
                    "velocity": 0.48031496062992124,
                    "duration": 0.10267846875001396
                },
                {
                    "name": "D6",
                    "midi": 86,
                    "time": 157.9284135000006,
                    "velocity": 0.48031496062992124,
                    "duration": 0.10267846875001396
                },
                {
                    "name": "D7",
                    "midi": 98,
                    "time": 157.9284135000006,
                    "velocity": 0.48031496062992124,
                    "duration": 0.10267846875001396
                },
                {
                    "name": "D#2",
                    "midi": 39,
                    "time": 158.0355562500006,
                    "velocity": 0.48031496062992124,
                    "duration": 0.10267846875001396
                },
                {
                    "name": "G2",
                    "midi": 43,
                    "time": 158.0355562500006,
                    "velocity": 0.48031496062992124,
                    "duration": 0.10267846875001396
                },
                {
                    "name": "A6",
                    "midi": 93,
                    "time": 158.0355562500006,
                    "velocity": 0.48031496062992124,
                    "duration": 0.10267846875001396
                },
                {
                    "name": "D2",
                    "midi": 38,
                    "time": 158.14269900000062,
                    "velocity": 0.48031496062992124,
                    "duration": 0.20982121875002235
                },
                {
                    "name": "A2",
                    "midi": 45,
                    "time": 158.14269900000062,
                    "velocity": 0.48031496062992124,
                    "duration": 0.10267846875001396
                },
                {
                    "name": "F#7",
                    "midi": 102,
                    "time": 158.14269900000062,
                    "velocity": 0.48031496062992124,
                    "duration": 0.20982121875002235
                },
                {
                    "name": "A6",
                    "midi": 93,
                    "time": 158.14269900000062,
                    "velocity": 0.48031496062992124,
                    "duration": 0.10267846875001396
                },
                {
                    "name": "C#7",
                    "midi": 97,
                    "time": 158.14269900000062,
                    "velocity": 0.48031496062992124,
                    "duration": 0.10267846875001396
                },
                {
                    "name": "A#2",
                    "midi": 46,
                    "time": 158.24984175000063,
                    "velocity": 0.48031496062992124,
                    "duration": 0.10267846875001396
                },
                {
                    "name": "C7",
                    "midi": 96,
                    "time": 158.24984175000063,
                    "velocity": 0.48031496062992124,
                    "duration": 0.10267846875001396
                },
                {
                    "name": "G#6",
                    "midi": 92,
                    "time": 158.24984175000063,
                    "velocity": 0.48031496062992124,
                    "duration": 0.10267846875001396
                },
                {
                    "name": "B2",
                    "midi": 47,
                    "time": 158.35698450000064,
                    "velocity": 0.48031496062992124,
                    "duration": 0.10267846875001396
                },
                {
                    "name": "E2",
                    "midi": 40,
                    "time": 158.35698450000064,
                    "velocity": 0.48031496062992124,
                    "duration": 0.20982121875002235
                },
                {
                    "name": "G7",
                    "midi": 103,
                    "time": 158.35698450000064,
                    "velocity": 0.48031496062992124,
                    "duration": 0.20982121875002235
                },
                {
                    "name": "B6",
                    "midi": 95,
                    "time": 158.35698450000064,
                    "velocity": 0.48031496062992124,
                    "duration": 0.10267846875001396
                },
                {
                    "name": "G6",
                    "midi": 91,
                    "time": 158.35698450000064,
                    "velocity": 0.48031496062992124,
                    "duration": 0.10267846875001396
                },
                {
                    "name": "C3",
                    "midi": 48,
                    "time": 158.46412725000064,
                    "velocity": 0.48031496062992124,
                    "duration": 0.10267846875001396
                },
                {
                    "name": "A#6",
                    "midi": 94,
                    "time": 158.46412725000064,
                    "velocity": 0.48031496062992124,
                    "duration": 0.10267846875001396
                },
                {
                    "name": "F#6",
                    "midi": 90,
                    "time": 158.46412725000064,
                    "velocity": 0.48031496062992124,
                    "duration": 0.10267846875001396
                },
                {
                    "name": "C#3",
                    "midi": 49,
                    "time": 158.57127000000065,
                    "velocity": 0.48031496062992124,
                    "duration": 0.10267846875001396
                },
                {
                    "name": "F#2",
                    "midi": 42,
                    "time": 158.57127000000065,
                    "velocity": 0.48031496062992124,
                    "duration": 0.20982121875002235
                },
                {
                    "name": "F6",
                    "midi": 89,
                    "time": 158.57127000000065,
                    "velocity": 0.48031496062992124,
                    "duration": 0.10267846875001396
                },
                {
                    "name": "A6",
                    "midi": 93,
                    "time": 158.57127000000065,
                    "velocity": 0.48031496062992124,
                    "duration": 0.10267846875001396
                },
                {
                    "name": "C#7",
                    "midi": 97,
                    "time": 158.57127000000065,
                    "velocity": 0.48031496062992124,
                    "duration": 0.20982121875002235
                },
                {
                    "name": "D3",
                    "midi": 50,
                    "time": 158.67841275000066,
                    "velocity": 0.48031496062992124,
                    "duration": 0.10267846875001396
                },
                {
                    "name": "G#6",
                    "midi": 92,
                    "time": 158.67841275000066,
                    "velocity": 0.48031496062992124,
                    "duration": 0.10267846875001396
                },
                {
                    "name": "E6",
                    "midi": 88,
                    "time": 158.67841275000066,
                    "velocity": 0.48031496062992124,
                    "duration": 0.10267846875001396
                },
                {
                    "name": "G2",
                    "midi": 43,
                    "time": 158.78555550000067,
                    "velocity": 0.48031496062992124,
                    "duration": 0.20982121875002235
                },
                {
                    "name": "D#3",
                    "midi": 51,
                    "time": 158.78555550000067,
                    "velocity": 0.48031496062992124,
                    "duration": 0.10267846875001396
                },
                {
                    "name": "D#6",
                    "midi": 87,
                    "time": 158.78555550000067,
                    "velocity": 0.48031496062992124,
                    "duration": 0.10267846875001396
                },
                {
                    "name": "G6",
                    "midi": 91,
                    "time": 158.78555550000067,
                    "velocity": 0.48031496062992124,
                    "duration": 0.10267846875001396
                },
                {
                    "name": "B6",
                    "midi": 95,
                    "time": 158.78555550000067,
                    "velocity": 0.48031496062992124,
                    "duration": 0.10267846875001396
                },
                {
                    "name": "E3",
                    "midi": 52,
                    "time": 158.89269825000068,
                    "velocity": 0.48031496062992124,
                    "duration": 0.10267846875001396
                },
                {
                    "name": "C#7",
                    "midi": 97,
                    "time": 158.89269825000068,
                    "velocity": 0.48031496062992124,
                    "duration": 0.10267846875001396
                },
                {
                    "name": "D6",
                    "midi": 86,
                    "time": 158.89269825000068,
                    "velocity": 0.48031496062992124,
                    "duration": 0.10267846875001396
                },
                {
                    "name": "F#6",
                    "midi": 90,
                    "time": 158.89269825000068,
                    "velocity": 0.48031496062992124,
                    "duration": 0.10267846875001396
                },
                {
                    "name": "F3",
                    "midi": 53,
                    "time": 158.99984100000069,
                    "velocity": 0.48031496062992124,
                    "duration": 0.10267846875001396
                },
                {
                    "name": "A2",
                    "midi": 45,
                    "time": 158.99984100000069,
                    "velocity": 0.48031496062992124,
                    "duration": 0.20982121875002235
                },
                {
                    "name": "B6",
                    "midi": 95,
                    "time": 158.99984100000069,
                    "velocity": 0.48031496062992124,
                    "duration": 0.20982121875002235
                },
                {
                    "name": "F6",
                    "midi": 89,
                    "time": 158.99984100000069,
                    "velocity": 0.48031496062992124,
                    "duration": 0.10267846875001396
                },
                {
                    "name": "C#6",
                    "midi": 85,
                    "time": 158.99984100000069,
                    "velocity": 0.48031496062992124,
                    "duration": 0.10267846875001396
                },
                {
                    "name": "F#3",
                    "midi": 54,
                    "time": 159.1069837500007,
                    "velocity": 0.48031496062992124,
                    "duration": 0.10267846875001396
                },
                {
                    "name": "C6",
                    "midi": 84,
                    "time": 159.1069837500007,
                    "velocity": 0.48031496062992124,
                    "duration": 0.10267846875001396
                },
                {
                    "name": "E6",
                    "midi": 88,
                    "time": 159.1069837500007,
                    "velocity": 0.48031496062992124,
                    "duration": 0.10267846875001396
                },
                {
                    "name": "B2",
                    "midi": 47,
                    "time": 159.2141265000007,
                    "velocity": 0.48031496062992124,
                    "duration": 0.20982121875002235
                },
                {
                    "name": "G3",
                    "midi": 55,
                    "time": 159.2141265000007,
                    "velocity": 0.48031496062992124,
                    "duration": 0.10267846875001396
                },
                {
                    "name": "F#6",
                    "midi": 90,
                    "time": 159.2141265000007,
                    "velocity": 0.48031496062992124,
                    "duration": 0.20982121875002235
                },
                {
                    "name": "D#6",
                    "midi": 87,
                    "time": 159.2141265000007,
                    "velocity": 0.48031496062992124,
                    "duration": 0.10267846875001396
                },
                {
                    "name": "B5",
                    "midi": 83,
                    "time": 159.2141265000007,
                    "velocity": 0.48031496062992124,
                    "duration": 0.10267846875001396
                },
                {
                    "name": "G#3",
                    "midi": 56,
                    "time": 159.3212692500007,
                    "velocity": 0.48031496062992124,
                    "duration": 0.10267846875001396
                },
                {
                    "name": "A#5",
                    "midi": 82,
                    "time": 159.3212692500007,
                    "velocity": 0.48031496062992124,
                    "duration": 0.10267846875001396
                },
                {
                    "name": "D6",
                    "midi": 86,
                    "time": 159.3212692500007,
                    "velocity": 0.48031496062992124,
                    "duration": 0.10267846875001396
                },
                {
                    "name": "A3",
                    "midi": 57,
                    "time": 159.42841200000072,
                    "velocity": 0.48031496062992124,
                    "duration": 0.10267846875001396
                },
                {
                    "name": "C#3",
                    "midi": 49,
                    "time": 159.42841200000072,
                    "velocity": 0.48031496062992124,
                    "duration": 0.20982121875002235
                },
                {
                    "name": "F#6",
                    "midi": 90,
                    "time": 159.42841200000072,
                    "velocity": 0.48031496062992124,
                    "duration": 0.20982121875002235
                },
                {
                    "name": "A5",
                    "midi": 81,
                    "time": 159.42841200000072,
                    "velocity": 0.48031496062992124,
                    "duration": 0.10267846875001396
                },
                {
                    "name": "C#6",
                    "midi": 85,
                    "time": 159.42841200000072,
                    "velocity": 0.48031496062992124,
                    "duration": 0.10267846875001396
                },
                {
                    "name": "A#3",
                    "midi": 58,
                    "time": 159.53555475000073,
                    "velocity": 0.48031496062992124,
                    "duration": 0.10267846875001396
                },
                {
                    "name": "C6",
                    "midi": 84,
                    "time": 159.53555475000073,
                    "velocity": 0.48031496062992124,
                    "duration": 0.10267846875001396
                },
                {
                    "name": "G#5",
                    "midi": 80,
                    "time": 159.53555475000073,
                    "velocity": 0.48031496062992124,
                    "duration": 0.10267846875001396
                },
                {
                    "name": "A2",
                    "midi": 45,
                    "time": 159.64269750000074,
                    "velocity": 0.48031496062992124,
                    "duration": 0.20982121875002235
                },
                {
                    "name": "B3",
                    "midi": 59,
                    "time": 159.64269750000074,
                    "velocity": 0.48031496062992124,
                    "duration": 0.10267846875001396
                },
                {
                    "name": "E6",
                    "midi": 88,
                    "time": 159.64269750000074,
                    "velocity": 0.48031496062992124,
                    "duration": 0.20982121875002235
                },
                {
                    "name": "G5",
                    "midi": 79,
                    "time": 159.64269750000074,
                    "velocity": 0.48031496062992124,
                    "duration": 0.10267846875001396
                },
                {
                    "name": "B5",
                    "midi": 83,
                    "time": 159.64269750000074,
                    "velocity": 0.48031496062992124,
                    "duration": 0.10267846875001396
                },
                {
                    "name": "A#3",
                    "midi": 58,
                    "time": 159.74984025000074,
                    "velocity": 0.48031496062992124,
                    "duration": 0.10267846875001396
                },
                {
                    "name": "G#5",
                    "midi": 80,
                    "time": 159.74984025000074,
                    "velocity": 0.48031496062992124,
                    "duration": 0.10267846875001396
                },
                {
                    "name": "C6",
                    "midi": 84,
                    "time": 159.74984025000074,
                    "velocity": 0.48031496062992124,
                    "duration": 0.10267846875001396
                },
                {
                    "name": "D2",
                    "midi": 38,
                    "time": 159.85698300000075,
                    "velocity": 0.48031496062992124,
                    "duration": 0.20982121875002235
                },
                {
                    "name": "A2",
                    "midi": 45,
                    "time": 159.85698300000075,
                    "velocity": 0.48031496062992124,
                    "duration": 0.10267846875001396
                },
                {
                    "name": "F#6",
                    "midi": 90,
                    "time": 159.85698300000075,
                    "velocity": 0.48031496062992124,
                    "duration": 0.10267846875001396
                },
                {
                    "name": "C#6",
                    "midi": 85,
                    "time": 159.85698300000075,
                    "velocity": 0.48031496062992124,
                    "duration": 0.10267846875001396
                },
                {
                    "name": "A5",
                    "midi": 81,
                    "time": 159.85698300000075,
                    "velocity": 0.48031496062992124,
                    "duration": 0.10267846875001396
                },
                {
                    "name": "A#2",
                    "midi": 46,
                    "time": 159.96412575000076,
                    "velocity": 0.48031496062992124,
                    "duration": 0.10267846875001396
                },
                {
                    "name": "F#6",
                    "midi": 90,
                    "time": 159.96412575000076,
                    "velocity": 0.48031496062992124,
                    "duration": 0.10267846875001396
                },
                {
                    "name": "C6",
                    "midi": 84,
                    "time": 159.96412575000076,
                    "velocity": 0.48031496062992124,
                    "duration": 0.10267846875001396
                },
                {
                    "name": "G#5",
                    "midi": 80,
                    "time": 159.96412575000076,
                    "velocity": 0.48031496062992124,
                    "duration": 0.10267846875001396
                },
                {
                    "name": "E2",
                    "midi": 40,
                    "time": 160.07126850000077,
                    "velocity": 0.48031496062992124,
                    "duration": 0.20982121875002235
                },
                {
                    "name": "B2",
                    "midi": 47,
                    "time": 160.07126850000077,
                    "velocity": 0.48031496062992124,
                    "duration": 0.10267846875001396
                },
                {
                    "name": "G6",
                    "midi": 91,
                    "time": 160.07126850000077,
                    "velocity": 0.48031496062992124,
                    "duration": 0.10267846875001396
                },
                {
                    "name": "B5",
                    "midi": 83,
                    "time": 160.07126850000077,
                    "velocity": 0.48031496062992124,
                    "duration": 0.10267846875001396
                },
                {
                    "name": "G5",
                    "midi": 79,
                    "time": 160.07126850000077,
                    "velocity": 0.48031496062992124,
                    "duration": 0.10267846875001396
                },
                {
                    "name": "C3",
                    "midi": 48,
                    "time": 160.17841125000078,
                    "velocity": 0.48031496062992124,
                    "duration": 0.10267846875001396
                },
                {
                    "name": "A#5",
                    "midi": 82,
                    "time": 160.17841125000078,
                    "velocity": 0.48031496062992124,
                    "duration": 0.10267846875001396
                },
                {
                    "name": "G6",
                    "midi": 91,
                    "time": 160.17841125000078,
                    "velocity": 0.48031496062992124,
                    "duration": 0.10267846875001396
                },
                {
                    "name": "F#5",
                    "midi": 78,
                    "time": 160.17841125000078,
                    "velocity": 0.48031496062992124,
                    "duration": 0.10267846875001396
                },
                {
                    "name": "F#2",
                    "midi": 42,
                    "time": 160.2855540000008,
                    "velocity": 0.48031496062992124,
                    "duration": 0.20982121875002235
                },
                {
                    "name": "C#3",
                    "midi": 49,
                    "time": 160.2855540000008,
                    "velocity": 0.48031496062992124,
                    "duration": 0.10267846875001396
                },
                {
                    "name": "F5",
                    "midi": 77,
                    "time": 160.2855540000008,
                    "velocity": 0.48031496062992124,
                    "duration": 0.10267846875001396
                },
                {
                    "name": "A5",
                    "midi": 81,
                    "time": 160.2855540000008,
                    "velocity": 0.48031496062992124,
                    "duration": 0.10267846875001396
                },
                {
                    "name": "C#6",
                    "midi": 85,
                    "time": 160.2855540000008,
                    "velocity": 0.48031496062992124,
                    "duration": 0.10267846875001396
                },
                {
                    "name": "D3",
                    "midi": 50,
                    "time": 160.3926967500008,
                    "velocity": 0.48031496062992124,
                    "duration": 0.10267846875001396
                },
                {
                    "name": "G#5",
                    "midi": 80,
                    "time": 160.3926967500008,
                    "velocity": 0.48031496062992124,
                    "duration": 0.10267846875001396
                },
                {
                    "name": "E5",
                    "midi": 76,
                    "time": 160.3926967500008,
                    "velocity": 0.48031496062992124,
                    "duration": 0.10267846875001396
                },
                {
                    "name": "C#6",
                    "midi": 85,
                    "time": 160.3926967500008,
                    "velocity": 0.48031496062992124,
                    "duration": 0.10267846875001396
                },
                {
                    "name": "D#3",
                    "midi": 51,
                    "time": 160.4998395000008,
                    "velocity": 0.48031496062992124,
                    "duration": 0.10267846875001396
                },
                {
                    "name": "G2",
                    "midi": 43,
                    "time": 160.4998395000008,
                    "velocity": 0.48031496062992124,
                    "duration": 0.20982121875002235
                },
                {
                    "name": "D#5",
                    "midi": 75,
                    "time": 160.4998395000008,
                    "velocity": 0.48031496062992124,
                    "duration": 0.10267846875001396
                },
                {
                    "name": "G5",
                    "midi": 79,
                    "time": 160.4998395000008,
                    "velocity": 0.48031496062992124,
                    "duration": 0.10267846875001396
                },
                {
                    "name": "B5",
                    "midi": 83,
                    "time": 160.4998395000008,
                    "velocity": 0.48031496062992124,
                    "duration": 0.10267846875001396
                },
                {
                    "name": "E3",
                    "midi": 52,
                    "time": 160.6069822500008,
                    "velocity": 0.48031496062992124,
                    "duration": 0.10267846875001396
                },
                {
                    "name": "C#6",
                    "midi": 85,
                    "time": 160.6069822500008,
                    "velocity": 0.48031496062992124,
                    "duration": 0.10267846875001396
                },
                {
                    "name": "F#5",
                    "midi": 78,
                    "time": 160.6069822500008,
                    "velocity": 0.48031496062992124,
                    "duration": 0.10267846875001396
                },
                {
                    "name": "D5",
                    "midi": 74,
                    "time": 160.6069822500008,
                    "velocity": 0.48031496062992124,
                    "duration": 0.10267846875001396
                },
                {
                    "name": "A2",
                    "midi": 45,
                    "time": 160.71412500000082,
                    "velocity": 0.48031496062992124,
                    "duration": 0.20982121875002235
                },
                {
                    "name": "F3",
                    "midi": 53,
                    "time": 160.71412500000082,
                    "velocity": 0.48031496062992124,
                    "duration": 0.10267846875001396
                },
                {
                    "name": "B5",
                    "midi": 83,
                    "time": 160.71412500000082,
                    "velocity": 0.48031496062992124,
                    "duration": 0.10267846875001396
                },
                {
                    "name": "F5",
                    "midi": 77,
                    "time": 160.71412500000082,
                    "velocity": 0.48031496062992124,
                    "duration": 0.10267846875001396
                },
                {
                    "name": "C#5",
                    "midi": 73,
                    "time": 160.71412500000082,
                    "velocity": 0.48031496062992124,
                    "duration": 0.10267846875001396
                },
                {
                    "name": "F#3",
                    "midi": 54,
                    "time": 160.82126775000083,
                    "velocity": 0.48031496062992124,
                    "duration": 0.10267846875001396
                },
                {
                    "name": "B5",
                    "midi": 83,
                    "time": 160.82126775000083,
                    "velocity": 0.48031496062992124,
                    "duration": 0.10267846875001396
                },
                {
                    "name": "C5",
                    "midi": 72,
                    "time": 160.82126775000083,
                    "velocity": 0.48031496062992124,
                    "duration": 0.10267846875001396
                },
                {
                    "name": "E5",
                    "midi": 76,
                    "time": 160.82126775000083,
                    "velocity": 0.48031496062992124,
                    "duration": 0.10267846875001396
                },
                {
                    "name": "B2",
                    "midi": 47,
                    "time": 160.92841050000084,
                    "velocity": 0.48031496062992124,
                    "duration": 0.20982121875002235
                },
                {
                    "name": "G3",
                    "midi": 55,
                    "time": 160.92841050000084,
                    "velocity": 0.48031496062992124,
                    "duration": 0.10267846875001396
                },
                {
                    "name": "F#5",
                    "midi": 78,
                    "time": 160.92841050000084,
                    "velocity": 0.48031496062992124,
                    "duration": 0.10267846875001396
                },
                {
                    "name": "D#5",
                    "midi": 75,
                    "time": 160.92841050000084,
                    "velocity": 0.48031496062992124,
                    "duration": 0.10267846875001396
                },
                {
                    "name": "B4",
                    "midi": 71,
                    "time": 160.92841050000084,
                    "velocity": 0.48031496062992124,
                    "duration": 0.10267846875001396
                },
                {
                    "name": "G#3",
                    "midi": 56,
                    "time": 161.03555325000085,
                    "velocity": 0.48031496062992124,
                    "duration": 0.10267846875001396
                },
                {
                    "name": "A#4",
                    "midi": 70,
                    "time": 161.03555325000085,
                    "velocity": 0.48031496062992124,
                    "duration": 0.10267846875001396
                },
                {
                    "name": "D5",
                    "midi": 74,
                    "time": 161.03555325000085,
                    "velocity": 0.48031496062992124,
                    "duration": 0.10267846875001396
                },
                {
                    "name": "F#5",
                    "midi": 78,
                    "time": 161.03555325000085,
                    "velocity": 0.48031496062992124,
                    "duration": 0.10267846875001396
                },
                {
                    "name": "A3",
                    "midi": 57,
                    "time": 161.14269600000085,
                    "velocity": 0.48031496062992124,
                    "duration": 0.10267846875001396
                },
                {
                    "name": "C#3",
                    "midi": 49,
                    "time": 161.14269600000085,
                    "velocity": 0.48031496062992124,
                    "duration": 0.20982121875002235
                },
                {
                    "name": "F#5",
                    "midi": 78,
                    "time": 161.14269600000085,
                    "velocity": 0.48031496062992124,
                    "duration": 0.10267846875001396
                },
                {
                    "name": "A4",
                    "midi": 69,
                    "time": 161.14269600000085,
                    "velocity": 0.48031496062992124,
                    "duration": 0.10267846875001396
                },
                {
                    "name": "C#5",
                    "midi": 73,
                    "time": 161.14269600000085,
                    "velocity": 0.48031496062992124,
                    "duration": 0.10267846875001396
                },
                {
                    "name": "A#3",
                    "midi": 58,
                    "time": 161.24983875000086,
                    "velocity": 0.48031496062992124,
                    "duration": 0.10267846875001396
                },
                {
                    "name": "F#5",
                    "midi": 78,
                    "time": 161.24983875000086,
                    "velocity": 0.48031496062992124,
                    "duration": 0.10267846875001396
                },
                {
                    "name": "G#4",
                    "midi": 68,
                    "time": 161.24983875000086,
                    "velocity": 0.48031496062992124,
                    "duration": 0.10267846875001396
                },
                {
                    "name": "C5",
                    "midi": 72,
                    "time": 161.24983875000086,
                    "velocity": 0.48031496062992124,
                    "duration": 0.10267846875001396
                },
                {
                    "name": "E5",
                    "midi": 76,
                    "time": 161.35698150000087,
                    "velocity": 0.48031496062992124,
                    "duration": 0.10267846875001396
                },
                {
                    "name": "A2",
                    "midi": 45,
                    "time": 161.35698150000087,
                    "velocity": 0.48031496062992124,
                    "duration": 0.20982121875002235
                },
                {
                    "name": "B3",
                    "midi": 59,
                    "time": 161.35698150000087,
                    "velocity": 0.48031496062992124,
                    "duration": 0.10267846875001396
                },
                {
                    "name": "B4",
                    "midi": 71,
                    "time": 161.35698150000087,
                    "velocity": 0.48031496062992124,
                    "duration": 0.10267846875001396
                },
                {
                    "name": "G4",
                    "midi": 67,
                    "time": 161.35698150000087,
                    "velocity": 0.48031496062992124,
                    "duration": 0.10267846875001396
                },
                {
                    "name": "E5",
                    "midi": 76,
                    "time": 161.46412425000088,
                    "velocity": 0.48031496062992124,
                    "duration": 0.10267846875001396
                },
                {
                    "name": "A#3",
                    "midi": 58,
                    "time": 161.46412425000088,
                    "velocity": 0.48031496062992124,
                    "duration": 0.10267846875001396
                },
                {
                    "name": "G#4",
                    "midi": 68,
                    "time": 161.46412425000088,
                    "velocity": 0.48031496062992124,
                    "duration": 0.10267846875001396
                },
                {
                    "name": "C5",
                    "midi": 72,
                    "time": 161.46412425000088,
                    "velocity": 0.48031496062992124,
                    "duration": 0.10267846875001396
                },
                {
                    "name": "D2",
                    "midi": 38,
                    "time": 161.5712670000009,
                    "velocity": 0.48031496062992124,
                    "duration": 0.20982121875002235
                },
                {
                    "name": "A2",
                    "midi": 45,
                    "time": 161.5712670000009,
                    "velocity": 0.48031496062992124,
                    "duration": 0.10267846875001396
                },
                {
                    "name": "F#5",
                    "midi": 78,
                    "time": 161.5712670000009,
                    "velocity": 0.48031496062992124,
                    "duration": 0.20982121875002235
                },
                {
                    "name": "A4",
                    "midi": 69,
                    "time": 161.5712670000009,
                    "velocity": 0.48031496062992124,
                    "duration": 0.10267846875001396
                },
                {
                    "name": "C#5",
                    "midi": 73,
                    "time": 161.5712670000009,
                    "velocity": 0.48031496062992124,
                    "duration": 0.10267846875001396
                },
                {
                    "name": "A#2",
                    "midi": 46,
                    "time": 161.6784097500009,
                    "velocity": 0.48031496062992124,
                    "duration": 0.10267846875001396
                },
                {
                    "name": "G#4",
                    "midi": 68,
                    "time": 161.6784097500009,
                    "velocity": 0.48031496062992124,
                    "duration": 0.10267846875001396
                },
                {
                    "name": "C5",
                    "midi": 72,
                    "time": 161.6784097500009,
                    "velocity": 0.48031496062992124,
                    "duration": 0.10267846875001396
                },
                {
                    "name": "E2",
                    "midi": 40,
                    "time": 161.7855525000009,
                    "velocity": 0.48031496062992124,
                    "duration": 0.20982121875002235
                },
                {
                    "name": "B2",
                    "midi": 47,
                    "time": 161.7855525000009,
                    "velocity": 0.48031496062992124,
                    "duration": 0.10267846875001396
                },
                {
                    "name": "G5",
                    "midi": 79,
                    "time": 161.7855525000009,
                    "velocity": 0.48031496062992124,
                    "duration": 0.20982121875002235
                },
                {
                    "name": "B4",
                    "midi": 71,
                    "time": 161.7855525000009,
                    "velocity": 0.48031496062992124,
                    "duration": 0.10267846875001396
                },
                {
                    "name": "G4",
                    "midi": 67,
                    "time": 161.7855525000009,
                    "velocity": 0.48031496062992124,
                    "duration": 0.10267846875001396
                },
                {
                    "name": "C3",
                    "midi": 48,
                    "time": 161.8926952500009,
                    "velocity": 0.48031496062992124,
                    "duration": 0.10267846875001396
                },
                {
                    "name": "A#4",
                    "midi": 70,
                    "time": 161.8926952500009,
                    "velocity": 0.48031496062992124,
                    "duration": 0.10267846875001396
                },
                {
                    "name": "F#4",
                    "midi": 66,
                    "time": 161.8926952500009,
                    "velocity": 0.48031496062992124,
                    "duration": 0.10267846875001396
                },
                {
                    "name": "F#2",
                    "midi": 42,
                    "time": 161.99983800000092,
                    "velocity": 0.48031496062992124,
                    "duration": 0.20982121875002235
                },
                {
                    "name": "C#3",
                    "midi": 49,
                    "time": 161.99983800000092,
                    "velocity": 0.48031496062992124,
                    "duration": 0.10267846875001396
                },
                {
                    "name": "F4",
                    "midi": 65,
                    "time": 161.99983800000092,
                    "velocity": 0.48031496062992124,
                    "duration": 0.10267846875001396
                },
                {
                    "name": "C#5",
                    "midi": 73,
                    "time": 161.99983800000092,
                    "velocity": 0.48031496062992124,
                    "duration": 0.20982121875002235
                },
                {
                    "name": "A4",
                    "midi": 69,
                    "time": 161.99983800000092,
                    "velocity": 0.48031496062992124,
                    "duration": 0.10267846875001396
                },
                {
                    "name": "D3",
                    "midi": 50,
                    "time": 162.10698075000093,
                    "velocity": 0.48031496062992124,
                    "duration": 0.10267846875001396
                },
                {
                    "name": "G#4",
                    "midi": 68,
                    "time": 162.10698075000093,
                    "velocity": 0.48031496062992124,
                    "duration": 0.10267846875001396
                },
                {
                    "name": "E4",
                    "midi": 64,
                    "time": 162.10698075000093,
                    "velocity": 0.48031496062992124,
                    "duration": 0.10267846875001396
                },
                {
                    "name": "G2",
                    "midi": 43,
                    "time": 162.21412350000094,
                    "velocity": 0.48031496062992124,
                    "duration": 0.20982121875002235
                },
                {
                    "name": "D#3",
                    "midi": 51,
                    "time": 162.21412350000094,
                    "velocity": 0.48031496062992124,
                    "duration": 0.10267846875001396
                },
                {
                    "name": "D#4",
                    "midi": 63,
                    "time": 162.21412350000094,
                    "velocity": 0.48031496062992124,
                    "duration": 0.10267846875001396
                },
                {
                    "name": "G4",
                    "midi": 67,
                    "time": 162.21412350000094,
                    "velocity": 0.48031496062992124,
                    "duration": 0.10267846875001396
                },
                {
                    "name": "B4",
                    "midi": 71,
                    "time": 162.21412350000094,
                    "velocity": 0.48031496062992124,
                    "duration": 0.10267846875001396
                },
                {
                    "name": "E3",
                    "midi": 52,
                    "time": 162.32126625000095,
                    "velocity": 0.48031496062992124,
                    "duration": 0.10267846875001396
                },
                {
                    "name": "C#5",
                    "midi": 73,
                    "time": 162.32126625000095,
                    "velocity": 0.48031496062992124,
                    "duration": 0.10267846875001396
                },
                {
                    "name": "D4",
                    "midi": 62,
                    "time": 162.32126625000095,
                    "velocity": 0.48031496062992124,
                    "duration": 0.10267846875001396
                },
                {
                    "name": "F#4",
                    "midi": 66,
                    "time": 162.32126625000095,
                    "velocity": 0.48031496062992124,
                    "duration": 0.10267846875001396
                },
                {
                    "name": "A2",
                    "midi": 45,
                    "time": 162.42840900000095,
                    "velocity": 0.48031496062992124,
                    "duration": 0.20982121875002235
                },
                {
                    "name": "F3",
                    "midi": 53,
                    "time": 162.42840900000095,
                    "velocity": 0.48031496062992124,
                    "duration": 0.10267846875001396
                },
                {
                    "name": "B4",
                    "midi": 71,
                    "time": 162.42840900000095,
                    "velocity": 0.48031496062992124,
                    "duration": 0.20982121875002235
                },
                {
                    "name": "F4",
                    "midi": 65,
                    "time": 162.42840900000095,
                    "velocity": 0.48031496062992124,
                    "duration": 0.10267846875001396
                },
                {
                    "name": "C#4",
                    "midi": 61,
                    "time": 162.42840900000095,
                    "velocity": 0.48031496062992124,
                    "duration": 0.10267846875001396
                },
                {
                    "name": "E4",
                    "midi": 64,
                    "time": 162.53555175000096,
                    "velocity": 0.48031496062992124,
                    "duration": 0.10267846875001396
                },
                {
                    "name": "C4",
                    "midi": 60,
                    "time": 162.53555175000096,
                    "velocity": 0.48031496062992124,
                    "duration": 0.10267846875001396
                },
                {
                    "name": "F#3",
                    "midi": 54,
                    "time": 162.53555175000096,
                    "velocity": 0.48031496062992124,
                    "duration": 0.10267846875001396
                },
                {
                    "name": "B2",
                    "midi": 47,
                    "time": 162.64269450000097,
                    "velocity": 0.48031496062992124,
                    "duration": 0.20982121875002235
                },
                {
                    "name": "G3",
                    "midi": 55,
                    "time": 162.64269450000097,
                    "velocity": 0.48031496062992124,
                    "duration": 0.10267846875001396
                },
                {
                    "name": "D#4",
                    "midi": 63,
                    "time": 162.64269450000097,
                    "velocity": 0.48031496062992124,
                    "duration": 0.10267846875001396
                },
                {
                    "name": "B3",
                    "midi": 59,
                    "time": 162.64269450000097,
                    "velocity": 0.48031496062992124,
                    "duration": 0.10267846875001396
                },
                {
                    "name": "F#4",
                    "midi": 66,
                    "time": 162.64269450000097,
                    "velocity": 0.48031496062992124,
                    "duration": 0.20982121875002235
                },
                {
                    "name": "G#3",
                    "midi": 56,
                    "time": 162.74983725000098,
                    "velocity": 0.48031496062992124,
                    "duration": 0.10267846875001396
                },
                {
                    "name": "A#3",
                    "midi": 58,
                    "time": 162.74983725000098,
                    "velocity": 0.48031496062992124,
                    "duration": 0.10267846875001396
                },
                {
                    "name": "D4",
                    "midi": 62,
                    "time": 162.74983725000098,
                    "velocity": 0.48031496062992124,
                    "duration": 0.10267846875001396
                },
                {
                    "name": "F#4",
                    "midi": 66,
                    "time": 162.856980000001,
                    "velocity": 0.48031496062992124,
                    "duration": 0.20982121875002235
                },
                {
                    "name": "A3",
                    "midi": 57,
                    "time": 162.856980000001,
                    "velocity": 0.48031496062992124,
                    "duration": 0.10267846875001396
                },
                {
                    "name": "C#4",
                    "midi": 61,
                    "time": 162.856980000001,
                    "velocity": 0.48031496062992124,
                    "duration": 0.10267846875001396
                },
                {
                    "name": "C#3",
                    "midi": 49,
                    "time": 162.856980000001,
                    "velocity": 0.48031496062992124,
                    "duration": 0.20982121875002235
                },
                {
                    "name": "A#3",
                    "midi": 58,
                    "time": 162.964122750001,
                    "velocity": 0.48031496062992124,
                    "duration": 0.10267846875001396
                },
                {
                    "name": "G#3",
                    "midi": 56,
                    "time": 162.964122750001,
                    "velocity": 0.48031496062992124,
                    "duration": 0.10267846875001396
                },
                {
                    "name": "C4",
                    "midi": 60,
                    "time": 162.964122750001,
                    "velocity": 0.48031496062992124,
                    "duration": 0.10267846875001396
                },
                {
                    "name": "A2",
                    "midi": 45,
                    "time": 163.071265500001,
                    "velocity": 0.48031496062992124,
                    "duration": 0.20982121875002235
                },
                {
                    "name": "G3",
                    "midi": 55,
                    "time": 163.071265500001,
                    "velocity": 0.48031496062992124,
                    "duration": 0.10267846875001396
                },
                {
                    "name": "E4",
                    "midi": 64,
                    "time": 163.071265500001,
                    "velocity": 0.48031496062992124,
                    "duration": 0.20982121875002235
                },
                {
                    "name": "B3",
                    "midi": 59,
                    "time": 163.071265500001,
                    "velocity": 0.48031496062992124,
                    "duration": 0.10267846875001396
                },
                {
                    "name": "C4",
                    "midi": 60,
                    "time": 163.178408250001,
                    "velocity": 0.48031496062992124,
                    "duration": 0.10267846875001396
                },
                {
                    "name": "G#3",
                    "midi": 56,
                    "time": 163.178408250001,
                    "velocity": 0.48031496062992124,
                    "duration": 0.10267846875001396
                },
                {
                    "name": "A#3",
                    "midi": 58,
                    "time": 163.178408250001,
                    "velocity": 0.48031496062992124,
                    "duration": 0.10267846875001396
                },
                {
                    "name": "D2",
                    "midi": 38,
                    "time": 163.28555100000102,
                    "velocity": 0.48031496062992124,
                    "duration": 0.10267846875001396
                },
                {
                    "name": "A2",
                    "midi": 45,
                    "time": 163.28555100000102,
                    "velocity": 0.48031496062992124,
                    "duration": 0.10267846875001396
                },
                {
                    "name": "F#4",
                    "midi": 66,
                    "time": 163.28555100000102,
                    "velocity": 0.48031496062992124,
                    "duration": 0.10267846875001396
                },
                {
                    "name": "C#4",
                    "midi": 61,
                    "time": 163.28555100000102,
                    "velocity": 0.48031496062992124,
                    "duration": 0.10267846875001396
                },
                {
                    "name": "A3",
                    "midi": 57,
                    "time": 163.28555100000102,
                    "velocity": 0.48031496062992124,
                    "duration": 0.10267846875001396
                },
                {
                    "name": "A#2",
                    "midi": 46,
                    "time": 163.39269375000103,
                    "velocity": 0.48031496062992124,
                    "duration": 0.10267846875001396
                },
                {
                    "name": "G#3",
                    "midi": 56,
                    "time": 163.39269375000103,
                    "velocity": 0.48031496062992124,
                    "duration": 0.10267846875001396
                },
                {
                    "name": "C4",
                    "midi": 60,
                    "time": 163.39269375000103,
                    "velocity": 0.48031496062992124,
                    "duration": 0.10267846875001396
                },
                {
                    "name": "D3",
                    "midi": 50,
                    "time": 163.49983650000104,
                    "velocity": 0.48031496062992124,
                    "duration": 0.10267846875001396
                },
                {
                    "name": "D#3",
                    "midi": 51,
                    "time": 163.49983650000104,
                    "velocity": 0.48031496062992124,
                    "duration": 0.10267846875001396
                },
                {
                    "name": "G3",
                    "midi": 55,
                    "time": 163.49983650000104,
                    "velocity": 0.48031496062992124,
                    "duration": 0.10267846875001396
                },
                {
                    "name": "C#3",
                    "midi": 49,
                    "time": 163.60697925000105,
                    "velocity": 0.48031496062992124,
                    "duration": 0.10267846875001396
                },
                {
                    "name": "E3",
                    "midi": 52,
                    "time": 163.60697925000105,
                    "velocity": 0.48031496062992124,
                    "duration": 0.10267846875001396
                },
                {
                    "name": "G#3",
                    "midi": 56,
                    "time": 163.60697925000105,
                    "velocity": 0.48031496062992124,
                    "duration": 0.10267846875001396
                },
                {
                    "name": "G2",
                    "midi": 43,
                    "time": 163.71412200000105,
                    "velocity": 0.48031496062992124,
                    "duration": 0.10267846875001396
                },
                {
                    "name": "D2",
                    "midi": 38,
                    "time": 163.71412200000105,
                    "velocity": 0.48031496062992124,
                    "duration": 0.10267846875001396
                },
                {
                    "name": "G4",
                    "midi": 67,
                    "time": 163.71412200000105,
                    "velocity": 0.48031496062992124,
                    "duration": 0.10267846875001396
                },
                {
                    "name": "D4",
                    "midi": 62,
                    "time": 163.71412200000105,
                    "velocity": 0.48031496062992124,
                    "duration": 0.10267846875001396
                },
                {
                    "name": "B3",
                    "midi": 59,
                    "time": 163.71412200000105,
                    "velocity": 0.48031496062992124,
                    "duration": 0.10267846875001396
                },
                {
                    "name": "C#3",
                    "midi": 49,
                    "time": 163.82126475000106,
                    "velocity": 0.48031496062992124,
                    "duration": 0.10267846875001396
                },
                {
                    "name": "A#3",
                    "midi": 58,
                    "time": 163.82126475000106,
                    "velocity": 0.48031496062992124,
                    "duration": 0.10267846875001396
                },
                {
                    "name": "C#4",
                    "midi": 61,
                    "time": 163.82126475000106,
                    "velocity": 0.48031496062992124,
                    "duration": 0.10267846875001396
                },
                {
                    "name": "D3",
                    "midi": 50,
                    "time": 163.92840750000107,
                    "velocity": 0.48031496062992124,
                    "duration": 0.10267846875001396
                },
                {
                    "name": "D#3",
                    "midi": 51,
                    "time": 163.92840750000107,
                    "velocity": 0.48031496062992124,
                    "duration": 0.10267846875001396
                },
                {
                    "name": "G3",
                    "midi": 55,
                    "time": 163.92840750000107,
                    "velocity": 0.48031496062992124,
                    "duration": 0.10267846875001396
                },
                {
                    "name": "C#3",
                    "midi": 49,
                    "time": 164.03555025000108,
                    "velocity": 0.48031496062992124,
                    "duration": 0.10267846875001396
                },
                {
                    "name": "E3",
                    "midi": 52,
                    "time": 164.03555025000108,
                    "velocity": 0.48031496062992124,
                    "duration": 0.10267846875001396
                },
                {
                    "name": "G#3",
                    "midi": 56,
                    "time": 164.03555025000108,
                    "velocity": 0.48031496062992124,
                    "duration": 0.10267846875001396
                },
                {
                    "name": "D2",
                    "midi": 38,
                    "time": 164.1426930000011,
                    "velocity": 0.48031496062992124,
                    "duration": 0.10267846875001396
                },
                {
                    "name": "A2",
                    "midi": 45,
                    "time": 164.1426930000011,
                    "velocity": 0.48031496062992124,
                    "duration": 0.10267846875001396
                },
                {
                    "name": "F#4",
                    "midi": 66,
                    "time": 164.1426930000011,
                    "velocity": 0.48031496062992124,
                    "duration": 0.10267846875001396
                },
                {
                    "name": "A3",
                    "midi": 57,
                    "time": 164.1426930000011,
                    "velocity": 0.48031496062992124,
                    "duration": 0.10267846875001396
                },
                {
                    "name": "C#4",
                    "midi": 61,
                    "time": 164.1426930000011,
                    "velocity": 0.48031496062992124,
                    "duration": 0.10267846875001396
                },
                {
                    "name": "A#2",
                    "midi": 46,
                    "time": 164.2498357500011,
                    "velocity": 0.48031496062992124,
                    "duration": 0.10267846875001396
                },
                {
                    "name": "C4",
                    "midi": 60,
                    "time": 164.2498357500011,
                    "velocity": 0.48031496062992124,
                    "duration": 0.10267846875001396
                },
                {
                    "name": "G#3",
                    "midi": 56,
                    "time": 164.2498357500011,
                    "velocity": 0.48031496062992124,
                    "duration": 0.10267846875001396
                },
                {
                    "name": "D3",
                    "midi": 50,
                    "time": 164.3569785000011,
                    "velocity": 0.48031496062992124,
                    "duration": 0.10267846875001396
                },
                {
                    "name": "D#3",
                    "midi": 51,
                    "time": 164.3569785000011,
                    "velocity": 0.48031496062992124,
                    "duration": 0.10267846875001396
                },
                {
                    "name": "G3",
                    "midi": 55,
                    "time": 164.3569785000011,
                    "velocity": 0.48031496062992124,
                    "duration": 0.10267846875001396
                },
                {
                    "name": "C#3",
                    "midi": 49,
                    "time": 164.4641212500011,
                    "velocity": 0.48031496062992124,
                    "duration": 0.10267846875001396
                },
                {
                    "name": "G#3",
                    "midi": 56,
                    "time": 164.4641212500011,
                    "velocity": 0.48031496062992124,
                    "duration": 0.10267846875001396
                },
                {
                    "name": "E3",
                    "midi": 52,
                    "time": 164.4641212500011,
                    "velocity": 0.48031496062992124,
                    "duration": 0.10267846875001396
                },
                {
                    "name": "D2",
                    "midi": 38,
                    "time": 164.57126400000112,
                    "velocity": 0.48031496062992124,
                    "duration": 0.10267846875001396
                },
                {
                    "name": "A2",
                    "midi": 45,
                    "time": 164.57126400000112,
                    "velocity": 0.48031496062992124,
                    "duration": 0.10267846875001396
                },
                {
                    "name": "F#4",
                    "midi": 66,
                    "time": 164.57126400000112,
                    "velocity": 0.48031496062992124,
                    "duration": 0.10267846875001396
                },
                {
                    "name": "A3",
                    "midi": 57,
                    "time": 164.57126400000112,
                    "velocity": 0.48031496062992124,
                    "duration": 0.10267846875001396
                },
                {
                    "name": "C#4",
                    "midi": 61,
                    "time": 164.57126400000112,
                    "velocity": 0.48031496062992124,
                    "duration": 0.10267846875001396
                },
                {
                    "name": "A#2",
                    "midi": 46,
                    "time": 164.67840675000113,
                    "velocity": 0.48031496062992124,
                    "duration": 0.10267846875001396
                },
                {
                    "name": "C4",
                    "midi": 60,
                    "time": 164.67840675000113,
                    "velocity": 0.48031496062992124,
                    "duration": 0.10267846875001396
                },
                {
                    "name": "G#3",
                    "midi": 56,
                    "time": 164.67840675000113,
                    "velocity": 0.48031496062992124,
                    "duration": 0.10267846875001396
                },
                {
                    "name": "D5",
                    "midi": 74,
                    "time": 164.78554950000114,
                    "velocity": 0.48031496062992124,
                    "duration": 0.10267846875001396
                },
                {
                    "name": "D4",
                    "midi": 62,
                    "time": 164.78554950000114,
                    "velocity": 0.48031496062992124,
                    "duration": 0.10267846875001396
                },
                {
                    "name": "D4",
                    "midi": 62,
                    "time": 164.89269225000115,
                    "velocity": 0.48031496062992124,
                    "duration": 0.10267846875001396
                },
                {
                    "name": "D3",
                    "midi": 50,
                    "time": 164.89269225000115,
                    "velocity": 0.48031496062992124,
                    "duration": 0.10267846875001396
                },
                {
                    "name": "D3",
                    "midi": 50,
                    "time": 164.99537071875116,
                    "velocity": 0.48031496062992124,
                    "duration": 0.10267846875001396
                },
                {
                    "name": "D4",
                    "midi": 62,
                    "time": 165.21412050000117,
                    "velocity": 0.48031496062992124,
                    "duration": 0.10267846875001396
                },
                {
                    "name": "D3",
                    "midi": 50,
                    "time": 165.21412050000117,
                    "velocity": 0.48031496062992124,
                    "duration": 0.10267846875001396
                },
                {
                    "name": "D3",
                    "midi": 50,
                    "time": 165.4284060000012,
                    "velocity": 0.48031496062992124,
                    "duration": 0.10267846875001396
                },
                {
                    "name": "D4",
                    "midi": 62,
                    "time": 165.6426915000012,
                    "velocity": 0.48031496062992124,
                    "duration": 0.10267846875001396
                },
                {
                    "name": "D3",
                    "midi": 50,
                    "time": 165.6426915000012,
                    "velocity": 0.48031496062992124,
                    "duration": 0.10267846875001396
                },
                {
                    "name": "D3",
                    "midi": 50,
                    "time": 165.85697700000122,
                    "velocity": 0.48031496062992124,
                    "duration": 0.10267846875001396
                },
                {
                    "name": "D3",
                    "midi": 50,
                    "time": 166.07126250000124,
                    "velocity": 0.48031496062992124,
                    "duration": 0.10267846875001396
                },
                {
                    "name": "D4",
                    "midi": 62,
                    "time": 166.07126250000124,
                    "velocity": 0.48031496062992124,
                    "duration": 0.10267846875001396
                },
                {
                    "name": "D3",
                    "midi": 50,
                    "time": 166.28554800000126,
                    "velocity": 0.48031496062992124,
                    "duration": 0.10267846875001396
                },
                {
                    "name": "D4",
                    "midi": 62,
                    "time": 166.49983350000127,
                    "velocity": 0.48031496062992124,
                    "duration": 0.10267846875001396
                },
                {
                    "name": "D3",
                    "midi": 50,
                    "time": 166.49983350000127,
                    "velocity": 0.48031496062992124,
                    "duration": 0.10267846875001396
                },
                {
                    "name": "D3",
                    "midi": 50,
                    "time": 166.7141190000013,
                    "velocity": 0.48031496062992124,
                    "duration": 0.10267846875001396
                },
                {
                    "name": "D3",
                    "midi": 50,
                    "time": 166.9284045000013,
                    "velocity": 0.48031496062992124,
                    "duration": 0.10267846875001396
                },
                {
                    "name": "D3",
                    "midi": 50,
                    "time": 167.14269000000132,
                    "velocity": 0.48031496062992124,
                    "duration": 0.10267846875001396
                },
                {
                    "name": "D3",
                    "midi": 50,
                    "time": 167.35697550000134,
                    "velocity": 0.48031496062992124,
                    "duration": 0.10267846875001396
                },
                {
                    "name": "D3",
                    "midi": 50,
                    "time": 167.57126100000136,
                    "velocity": 0.48031496062992124,
                    "duration": 0.10267846875001396
                },
                {
                    "name": "D3",
                    "midi": 50,
                    "time": 167.78554650000137,
                    "velocity": 0.48031496062992124,
                    "duration": 0.10267846875001396
                },
                {
                    "name": "D3",
                    "midi": 50,
                    "time": 167.9998320000014,
                    "velocity": 0.48031496062992124,
                    "duration": 0.10267846875001396
                },
                {
                    "name": "D#3",
                    "midi": 51,
                    "time": 168.2141175000014,
                    "velocity": 0.48031496062992124,
                    "duration": 0.10267846875001396
                },
                {
                    "name": "C#3",
                    "midi": 49,
                    "time": 168.2141175000014,
                    "velocity": 0.48031496062992124,
                    "duration": 0.10267846875001396
                },
                {
                    "name": "E3",
                    "midi": 52,
                    "time": 168.42840300000142,
                    "velocity": 0.48031496062992124,
                    "duration": 0.10267846875001396
                },
                {
                    "name": "C3",
                    "midi": 48,
                    "time": 168.42840300000142,
                    "velocity": 0.48031496062992124,
                    "duration": 0.10267846875001396
                },
                {
                    "name": "C3",
                    "midi": 48,
                    "time": 168.64268850000144,
                    "velocity": 0.48031496062992124,
                    "duration": 0.10267846875001396
                },
                {
                    "name": "E3",
                    "midi": 52,
                    "time": 168.64268850000144,
                    "velocity": 0.48031496062992124,
                    "duration": 0.10267846875001396
                },
                {
                    "name": "C3",
                    "midi": 48,
                    "time": 168.85697400000146,
                    "velocity": 0.48031496062992124,
                    "duration": 0.10267846875001396
                },
                {
                    "name": "E3",
                    "midi": 52,
                    "time": 168.85697400000146,
                    "velocity": 0.48031496062992124,
                    "duration": 0.10267846875001396
                },
                {
                    "name": "C3",
                    "midi": 48,
                    "time": 169.07125950000147,
                    "velocity": 0.48031496062992124,
                    "duration": 0.10267846875001396
                },
                {
                    "name": "E3",
                    "midi": 52,
                    "time": 169.07125950000147,
                    "velocity": 0.48031496062992124,
                    "duration": 0.10267846875001396
                },
                {
                    "name": "G3",
                    "midi": 55,
                    "time": 169.2855450000015,
                    "velocity": 0.48031496062992124,
                    "duration": 0.10267846875001396
                },
                {
                    "name": "C3",
                    "midi": 48,
                    "time": 169.2855450000015,
                    "velocity": 0.48031496062992124,
                    "duration": 0.10267846875001396
                },
                {
                    "name": "E3",
                    "midi": 52,
                    "time": 169.2855450000015,
                    "velocity": 0.48031496062992124,
                    "duration": 0.10267846875001396
                },
                {
                    "name": "G3",
                    "midi": 55,
                    "time": 169.4998305000015,
                    "velocity": 0.48031496062992124,
                    "duration": 0.10267846875001396
                },
                {
                    "name": "C3",
                    "midi": 48,
                    "time": 169.4998305000015,
                    "velocity": 0.48031496062992124,
                    "duration": 0.10267846875001396
                },
                {
                    "name": "E3",
                    "midi": 52,
                    "time": 169.4998305000015,
                    "velocity": 0.48031496062992124,
                    "duration": 0.10267846875001396
                },
                {
                    "name": "G3",
                    "midi": 55,
                    "time": 169.71411600000152,
                    "velocity": 0.48031496062992124,
                    "duration": 0.10267846875001396
                },
                {
                    "name": "C3",
                    "midi": 48,
                    "time": 169.71411600000152,
                    "velocity": 0.48031496062992124,
                    "duration": 0.10267846875001396
                },
                {
                    "name": "E3",
                    "midi": 52,
                    "time": 169.71411600000152,
                    "velocity": 0.48031496062992124,
                    "duration": 0.10267846875001396
                },
                {
                    "name": "F#3",
                    "midi": 54,
                    "time": 169.92840150000154,
                    "velocity": 0.48031496062992124,
                    "duration": 0.10267846875001396
                },
                {
                    "name": "D3",
                    "midi": 50,
                    "time": 169.92840150000154,
                    "velocity": 0.48031496062992124,
                    "duration": 0.10267846875001396
                },
                {
                    "name": "E3",
                    "midi": 52,
                    "time": 170.03554425000155,
                    "velocity": 0.48031496062992124,
                    "duration": 0.10267846875001396
                },
                {
                    "name": "D3",
                    "midi": 50,
                    "time": 170.14268700000156,
                    "velocity": 0.48031496062992124,
                    "duration": 0.10267846875001396
                },
                {
                    "name": "D3",
                    "midi": 50,
                    "time": 170.35697250000158,
                    "velocity": 0.48031496062992124,
                    "duration": 0.10267846875001396
                },
                {
                    "name": "D3",
                    "midi": 50,
                    "time": 170.5712580000016,
                    "velocity": 0.48031496062992124,
                    "duration": 0.10267846875001396
                },
                {
                    "name": "D3",
                    "midi": 50,
                    "time": 170.7855435000016,
                    "velocity": 0.48031496062992124,
                    "duration": 0.10267846875001396
                },
                {
                    "name": "D3",
                    "midi": 50,
                    "time": 170.99982900000163,
                    "velocity": 0.48031496062992124,
                    "duration": 0.10267846875001396
                },
                {
                    "name": "D3",
                    "midi": 50,
                    "time": 171.21411450000164,
                    "velocity": 0.48031496062992124,
                    "duration": 0.10267846875001396
                },
                {
                    "name": "D3",
                    "midi": 50,
                    "time": 171.42840000000166,
                    "velocity": 0.48031496062992124,
                    "duration": 0.10267846875001396
                },
                {
                    "name": "C#3",
                    "midi": 49,
                    "time": 171.64268550000168,
                    "velocity": 0.48031496062992124,
                    "duration": 0.10267846875001396
                },
                {
                    "name": "D#3",
                    "midi": 51,
                    "time": 171.64268550000168,
                    "velocity": 0.48031496062992124,
                    "duration": 0.10267846875001396
                },
                {
                    "name": "E3",
                    "midi": 52,
                    "time": 171.8569710000017,
                    "velocity": 0.48031496062992124,
                    "duration": 0.10267846875001396
                },
                {
                    "name": "C3",
                    "midi": 48,
                    "time": 171.8569710000017,
                    "velocity": 0.48031496062992124,
                    "duration": 0.10267846875001396
                },
                {
                    "name": "E3",
                    "midi": 52,
                    "time": 172.0712565000017,
                    "velocity": 0.48031496062992124,
                    "duration": 0.10267846875001396
                },
                {
                    "name": "C3",
                    "midi": 48,
                    "time": 172.0712565000017,
                    "velocity": 0.48031496062992124,
                    "duration": 0.10267846875001396
                },
                {
                    "name": "C3",
                    "midi": 48,
                    "time": 172.28554200000173,
                    "velocity": 0.48031496062992124,
                    "duration": 0.10267846875001396
                },
                {
                    "name": "E3",
                    "midi": 52,
                    "time": 172.28554200000173,
                    "velocity": 0.48031496062992124,
                    "duration": 0.10267846875001396
                },
                {
                    "name": "C3",
                    "midi": 48,
                    "time": 172.49982750000174,
                    "velocity": 0.48031496062992124,
                    "duration": 0.10267846875001396
                },
                {
                    "name": "E3",
                    "midi": 52,
                    "time": 172.49982750000174,
                    "velocity": 0.48031496062992124,
                    "duration": 0.10267846875001396
                },
                {
                    "name": "G3",
                    "midi": 55,
                    "time": 172.71411300000176,
                    "velocity": 0.48031496062992124,
                    "duration": 0.10267846875001396
                },
                {
                    "name": "C3",
                    "midi": 48,
                    "time": 172.71411300000176,
                    "velocity": 0.48031496062992124,
                    "duration": 0.10267846875001396
                },
                {
                    "name": "E3",
                    "midi": 52,
                    "time": 172.71411300000176,
                    "velocity": 0.48031496062992124,
                    "duration": 0.10267846875001396
                },
                {
                    "name": "G3",
                    "midi": 55,
                    "time": 172.92839850000178,
                    "velocity": 0.48031496062992124,
                    "duration": 0.10267846875001396
                },
                {
                    "name": "C3",
                    "midi": 48,
                    "time": 172.92839850000178,
                    "velocity": 0.48031496062992124,
                    "duration": 0.10267846875001396
                },
                {
                    "name": "E3",
                    "midi": 52,
                    "time": 172.92839850000178,
                    "velocity": 0.48031496062992124,
                    "duration": 0.10267846875001396
                },
                {
                    "name": "C3",
                    "midi": 48,
                    "time": 173.1426840000018,
                    "velocity": 0.48031496062992124,
                    "duration": 0.10267846875001396
                },
                {
                    "name": "E3",
                    "midi": 52,
                    "time": 173.1426840000018,
                    "velocity": 0.48031496062992124,
                    "duration": 0.10267846875001396
                },
                {
                    "name": "G3",
                    "midi": 55,
                    "time": 173.1426840000018,
                    "velocity": 0.48031496062992124,
                    "duration": 0.10267846875001396
                },
                {
                    "name": "F3",
                    "midi": 53,
                    "time": 173.3569695000018,
                    "velocity": 0.48031496062992124,
                    "duration": 0.10267846875001396
                },
                {
                    "name": "D3",
                    "midi": 50,
                    "time": 173.3569695000018,
                    "velocity": 0.48031496062992124,
                    "duration": 0.10267846875001396
                },
                {
                    "name": "E3",
                    "midi": 52,
                    "time": 173.46411225000182,
                    "velocity": 0.48031496062992124,
                    "duration": 0.10267846875001396
                },
                {
                    "name": "D3",
                    "midi": 50,
                    "time": 173.57125500000183,
                    "velocity": 0.48031496062992124,
                    "duration": 0.10267846875001396
                },
                {
                    "name": "D3",
                    "midi": 50,
                    "time": 173.78554050000184,
                    "velocity": 0.48031496062992124,
                    "duration": 0.10267846875001396
                },
                {
                    "name": "D3",
                    "midi": 50,
                    "time": 173.99982600000186,
                    "velocity": 0.48031496062992124,
                    "duration": 0.10267846875001396
                },
                {
                    "name": "D3",
                    "midi": 50,
                    "time": 174.21411150000188,
                    "velocity": 0.48031496062992124,
                    "duration": 0.10267846875001396
                },
                {
                    "name": "D3",
                    "midi": 50,
                    "time": 174.4283970000019,
                    "velocity": 0.48031496062992124,
                    "duration": 0.10267846875001396
                },
                {
                    "name": "D3",
                    "midi": 50,
                    "time": 174.6426825000019,
                    "velocity": 0.48031496062992124,
                    "duration": 0.10267846875001396
                },
                {
                    "name": "D3",
                    "midi": 50,
                    "time": 174.85696800000193,
                    "velocity": 0.48031496062992124,
                    "duration": 0.10267846875001396
                },
                {
                    "name": "C#3",
                    "midi": 49,
                    "time": 175.07125350000194,
                    "velocity": 0.48031496062992124,
                    "duration": 0.10267846875001396
                },
                {
                    "name": "D#3",
                    "midi": 51,
                    "time": 175.07125350000194,
                    "velocity": 0.48031496062992124,
                    "duration": 0.10267846875001396
                },
                {
                    "name": "E3",
                    "midi": 52,
                    "time": 175.28553900000196,
                    "velocity": 0.48031496062992124,
                    "duration": 0.10267846875001396
                },
                {
                    "name": "C3",
                    "midi": 48,
                    "time": 175.28553900000196,
                    "velocity": 0.48031496062992124,
                    "duration": 0.10267846875001396
                },
                {
                    "name": "E3",
                    "midi": 52,
                    "time": 175.49982450000198,
                    "velocity": 0.48031496062992124,
                    "duration": 0.10267846875001396
                },
                {
                    "name": "C3",
                    "midi": 48,
                    "time": 175.49982450000198,
                    "velocity": 0.48031496062992124,
                    "duration": 0.10267846875001396
                },
                {
                    "name": "C3",
                    "midi": 48,
                    "time": 175.714110000002,
                    "velocity": 0.48031496062992124,
                    "duration": 0.10267846875001396
                },
                {
                    "name": "E3",
                    "midi": 52,
                    "time": 175.714110000002,
                    "velocity": 0.48031496062992124,
                    "duration": 0.10267846875001396
                },
                {
                    "name": "C3",
                    "midi": 48,
                    "time": 175.928395500002,
                    "velocity": 0.48031496062992124,
                    "duration": 0.10267846875001396
                },
                {
                    "name": "E3",
                    "midi": 52,
                    "time": 175.928395500002,
                    "velocity": 0.48031496062992124,
                    "duration": 0.10267846875001396
                },
                {
                    "name": "E3",
                    "midi": 52,
                    "time": 176.14268100000203,
                    "velocity": 0.48031496062992124,
                    "duration": 0.10267846875001396
                },
                {
                    "name": "C3",
                    "midi": 48,
                    "time": 176.14268100000203,
                    "velocity": 0.48031496062992124,
                    "duration": 0.10267846875001396
                },
                {
                    "name": "C3",
                    "midi": 48,
                    "time": 176.35696650000204,
                    "velocity": 0.48031496062992124,
                    "duration": 0.10267846875001396
                },
                {
                    "name": "E3",
                    "midi": 52,
                    "time": 176.35696650000204,
                    "velocity": 0.48031496062992124,
                    "duration": 0.10267846875001396
                },
                {
                    "name": "C3",
                    "midi": 48,
                    "time": 176.57125200000206,
                    "velocity": 0.48031496062992124,
                    "duration": 0.10267846875001396
                },
                {
                    "name": "E3",
                    "midi": 52,
                    "time": 176.57125200000206,
                    "velocity": 0.48031496062992124,
                    "duration": 0.10267846875001396
                },
                {
                    "name": "B2",
                    "midi": 47,
                    "time": 176.78553750000208,
                    "velocity": 0.48031496062992124,
                    "duration": 0.10267846875001396
                },
                {
                    "name": "F3",
                    "midi": 53,
                    "time": 176.78553750000208,
                    "velocity": 0.48031496062992124,
                    "duration": 0.10267846875001396
                },
                {
                    "name": "F#3",
                    "midi": 54,
                    "time": 176.9998230000021,
                    "velocity": 0.48031496062992124,
                    "duration": 0.10267846875001396
                },
                {
                    "name": "A#2",
                    "midi": 46,
                    "time": 176.9998230000021,
                    "velocity": 0.48031496062992124,
                    "duration": 0.10267846875001396
                },
                {
                    "name": "F#3",
                    "midi": 54,
                    "time": 177.2141085000021,
                    "velocity": 0.48031496062992124,
                    "duration": 0.10267846875001396
                },
                {
                    "name": "A#2",
                    "midi": 46,
                    "time": 177.2141085000021,
                    "velocity": 0.48031496062992124,
                    "duration": 0.10267846875001396
                },
                {
                    "name": "A#2",
                    "midi": 46,
                    "time": 177.42839400000213,
                    "velocity": 0.48031496062992124,
                    "duration": 0.10267846875001396
                },
                {
                    "name": "F#3",
                    "midi": 54,
                    "time": 177.42839400000213,
                    "velocity": 0.48031496062992124,
                    "duration": 0.10267846875001396
                },
                {
                    "name": "F#3",
                    "midi": 54,
                    "time": 177.64267950000215,
                    "velocity": 0.48031496062992124,
                    "duration": 0.10267846875001396
                },
                {
                    "name": "A#2",
                    "midi": 46,
                    "time": 177.64267950000215,
                    "velocity": 0.48031496062992124,
                    "duration": 0.10267846875001396
                },
                {
                    "name": "F#3",
                    "midi": 54,
                    "time": 177.85696500000216,
                    "velocity": 0.48031496062992124,
                    "duration": 0.10267846875001396
                },
                {
                    "name": "A#2",
                    "midi": 46,
                    "time": 177.85696500000216,
                    "velocity": 0.48031496062992124,
                    "duration": 0.10267846875001396
                },
                {
                    "name": "A#2",
                    "midi": 46,
                    "time": 178.07125050000218,
                    "velocity": 0.48031496062992124,
                    "duration": 0.10267846875001396
                },
                {
                    "name": "F#3",
                    "midi": 54,
                    "time": 178.07125050000218,
                    "velocity": 0.48031496062992124,
                    "duration": 0.10267846875001396
                },
                {
                    "name": "A#2",
                    "midi": 46,
                    "time": 178.2855360000022,
                    "velocity": 0.48031496062992124,
                    "duration": 0.10267846875001396
                },
                {
                    "name": "F#3",
                    "midi": 54,
                    "time": 178.2855360000022,
                    "velocity": 0.48031496062992124,
                    "duration": 0.10267846875001396
                },
                {
                    "name": "A2",
                    "midi": 45,
                    "time": 178.4998215000022,
                    "velocity": 0.48031496062992124,
                    "duration": 0.10267846875001396
                },
                {
                    "name": "G3",
                    "midi": 55,
                    "time": 178.4998215000022,
                    "velocity": 0.48031496062992124,
                    "duration": 0.10267846875001396
                },
                {
                    "name": "G#3",
                    "midi": 56,
                    "time": 178.71410700000223,
                    "velocity": 0.48031496062992124,
                    "duration": 0.10267846875001396
                },
                {
                    "name": "G#2",
                    "midi": 44,
                    "time": 178.71410700000223,
                    "velocity": 0.48031496062992124,
                    "duration": 0.10267846875001396
                },
                {
                    "name": "G#3",
                    "midi": 56,
                    "time": 178.92839250000225,
                    "velocity": 0.48031496062992124,
                    "duration": 0.10267846875001396
                },
                {
                    "name": "G#2",
                    "midi": 44,
                    "time": 178.92839250000225,
                    "velocity": 0.48031496062992124,
                    "duration": 0.10267846875001396
                },
                {
                    "name": "G#3",
                    "midi": 56,
                    "time": 179.14267800000226,
                    "velocity": 0.48031496062992124,
                    "duration": 0.10267846875001396
                },
                {
                    "name": "G#2",
                    "midi": 44,
                    "time": 179.14267800000226,
                    "velocity": 0.48031496062992124,
                    "duration": 0.10267846875001396
                },
                {
                    "name": "G#3",
                    "midi": 56,
                    "time": 179.35696350000228,
                    "velocity": 0.48031496062992124,
                    "duration": 0.10267846875001396
                },
                {
                    "name": "G#2",
                    "midi": 44,
                    "time": 179.35696350000228,
                    "velocity": 0.48031496062992124,
                    "duration": 0.10267846875001396
                },
                {
                    "name": "G#2",
                    "midi": 44,
                    "time": 179.5712490000023,
                    "velocity": 0.48031496062992124,
                    "duration": 0.10267846875001396
                },
                {
                    "name": "G#3",
                    "midi": 56,
                    "time": 179.5712490000023,
                    "velocity": 0.48031496062992124,
                    "duration": 0.10267846875001396
                },
                {
                    "name": "G#3",
                    "midi": 56,
                    "time": 179.7855345000023,
                    "velocity": 0.48031496062992124,
                    "duration": 0.10267846875001396
                },
                {
                    "name": "G#2",
                    "midi": 44,
                    "time": 179.7855345000023,
                    "velocity": 0.48031496062992124,
                    "duration": 0.10267846875001396
                },
                {
                    "name": "G#3",
                    "midi": 56,
                    "time": 179.99982000000233,
                    "velocity": 0.48031496062992124,
                    "duration": 0.10267846875001396
                },
                {
                    "name": "G#2",
                    "midi": 44,
                    "time": 179.99982000000233,
                    "velocity": 0.48031496062992124,
                    "duration": 0.10267846875001396
                },
                {
                    "name": "G#3",
                    "midi": 56,
                    "time": 180.21410550000235,
                    "velocity": 0.48031496062992124,
                    "duration": 0.10267846875001396
                },
                {
                    "name": "G#2",
                    "midi": 44,
                    "time": 180.21410550000235,
                    "velocity": 0.48031496062992124,
                    "duration": 0.10267846875001396
                },
                {
                    "name": "D2",
                    "midi": 38,
                    "time": 180.42839100000236,
                    "velocity": 0.48031496062992124,
                    "duration": 0.10267846875001396
                },
                {
                    "name": "D2",
                    "midi": 38,
                    "time": 180.64267650000238,
                    "velocity": 0.48031496062992124,
                    "duration": 0.10267846875001396
                },
                {
                    "name": "D2",
                    "midi": 38,
                    "time": 180.8569620000024,
                    "velocity": 0.48031496062992124,
                    "duration": 0.10267846875001396
                },
                {
                    "name": "D2",
                    "midi": 38,
                    "time": 181.0712475000024,
                    "velocity": 0.48031496062992124,
                    "duration": 0.10267846875001396
                },
                {
                    "name": "D2",
                    "midi": 38,
                    "time": 181.28553300000243,
                    "velocity": 0.48031496062992124,
                    "duration": 0.10267846875001396
                },
                {
                    "name": "D2",
                    "midi": 38,
                    "time": 181.49981850000245,
                    "velocity": 0.48031496062992124,
                    "duration": 0.10267846875001396
                },
                {
                    "name": "D2",
                    "midi": 38,
                    "time": 181.71410400000246,
                    "velocity": 0.48031496062992124,
                    "duration": 0.10267846875001396
                },
                {
                    "name": "D2",
                    "midi": 38,
                    "time": 181.92838950000248,
                    "velocity": 0.48031496062992124,
                    "duration": 0.10267846875001396
                },
                {
                    "name": "D2",
                    "midi": 38,
                    "time": 182.1426750000025,
                    "velocity": 0.48031496062992124,
                    "duration": 0.10267846875001396
                },
                {
                    "name": "D2",
                    "midi": 38,
                    "time": 182.35696050000251,
                    "velocity": 0.48031496062992124,
                    "duration": 0.10267846875001396
                },
                {
                    "name": "D2",
                    "midi": 38,
                    "time": 182.57124600000253,
                    "velocity": 0.48031496062992124,
                    "duration": 0.10267846875001396
                },
                {
                    "name": "D2",
                    "midi": 38,
                    "time": 182.78553150000255,
                    "velocity": 0.48031496062992124,
                    "duration": 0.10267846875001396
                },
                {
                    "name": "E2",
                    "midi": 40,
                    "time": 182.89267425000256,
                    "velocity": 0.48031496062992124,
                    "duration": 0.10267846875001396
                },
                {
                    "name": "F2",
                    "midi": 41,
                    "time": 182.99981700000257,
                    "velocity": 0.48031496062992124,
                    "duration": 0.10267846875001396
                },
                {
                    "name": "F#2",
                    "midi": 42,
                    "time": 183.10695975000257,
                    "velocity": 0.48031496062992124,
                    "duration": 0.10267846875001396
                },
                {
                    "name": "A2",
                    "midi": 45,
                    "time": 183.10695975000257,
                    "velocity": 0.48031496062992124,
                    "duration": 0.10267846875001396
                },
                {
                    "name": "F#2",
                    "midi": 42,
                    "time": 183.21410250000258,
                    "velocity": 0.48031496062992124,
                    "duration": 0.10267846875001396
                },
                {
                    "name": "A#2",
                    "midi": 46,
                    "time": 183.3212452500026,
                    "velocity": 0.48031496062992124,
                    "duration": 0.10267846875001396
                },
                {
                    "name": "G2",
                    "midi": 43,
                    "time": 183.3212452500026,
                    "velocity": 0.48031496062992124,
                    "duration": 0.10267846875001396
                },
                {
                    "name": "G2",
                    "midi": 43,
                    "time": 183.4283880000026,
                    "velocity": 0.48031496062992124,
                    "duration": 0.10267846875001396
                },
                {
                    "name": "G#2",
                    "midi": 44,
                    "time": 183.5355307500026,
                    "velocity": 0.48031496062992124,
                    "duration": 0.10267846875001396
                },
                {
                    "name": "B2",
                    "midi": 47,
                    "time": 183.5355307500026,
                    "velocity": 0.48031496062992124,
                    "duration": 0.10267846875001396
                },
                {
                    "name": "G#2",
                    "midi": 44,
                    "time": 183.64267350000262,
                    "velocity": 0.48031496062992124,
                    "duration": 0.10267846875001396
                },
                {
                    "name": "A2",
                    "midi": 45,
                    "time": 183.74981625000262,
                    "velocity": 0.48031496062992124,
                    "duration": 0.10267846875001396
                },
                {
                    "name": "C3",
                    "midi": 48,
                    "time": 183.74981625000262,
                    "velocity": 0.48031496062992124,
                    "duration": 0.10267846875001396
                },
                {
                    "name": "A2",
                    "midi": 45,
                    "time": 183.85695900000263,
                    "velocity": 0.48031496062992124,
                    "duration": 0.10267846875001396
                },
                {
                    "name": "C#3",
                    "midi": 49,
                    "time": 183.96410175000264,
                    "velocity": 0.48031496062992124,
                    "duration": 0.10267846875001396
                },
                {
                    "name": "A#2",
                    "midi": 46,
                    "time": 183.96410175000264,
                    "velocity": 0.48031496062992124,
                    "duration": 0.10267846875001396
                },
                {
                    "name": "A#2",
                    "midi": 46,
                    "time": 184.07124450000265,
                    "velocity": 0.48031496062992124,
                    "duration": 0.10267846875001396
                },
                {
                    "name": "D3",
                    "midi": 50,
                    "time": 184.17838725000266,
                    "velocity": 0.48031496062992124,
                    "duration": 0.10267846875001396
                },
                {
                    "name": "B2",
                    "midi": 47,
                    "time": 184.17838725000266,
                    "velocity": 0.48031496062992124,
                    "duration": 0.10267846875001396
                },
                {
                    "name": "B2",
                    "midi": 47,
                    "time": 184.28553000000267,
                    "velocity": 0.48031496062992124,
                    "duration": 0.10267846875001396
                },
                {
                    "name": "D#3",
                    "midi": 51,
                    "time": 184.39267275000267,
                    "velocity": 0.48031496062992124,
                    "duration": 0.10267846875001396
                },
                {
                    "name": "C3",
                    "midi": 48,
                    "time": 184.39267275000267,
                    "velocity": 0.48031496062992124,
                    "duration": 0.10267846875001396
                },
                {
                    "name": "C3",
                    "midi": 48,
                    "time": 184.49981550000268,
                    "velocity": 0.48031496062992124,
                    "duration": 0.10267846875001396
                },
                {
                    "name": "C#3",
                    "midi": 49,
                    "time": 184.6069582500027,
                    "velocity": 0.48031496062992124,
                    "duration": 0.10267846875001396
                },
                {
                    "name": "E3",
                    "midi": 52,
                    "time": 184.6069582500027,
                    "velocity": 0.48031496062992124,
                    "duration": 0.10267846875001396
                },
                {
                    "name": "D3",
                    "midi": 50,
                    "time": 184.7141010000027,
                    "velocity": 0.48031496062992124,
                    "duration": 0.10267846875001396
                },
                {
                    "name": "D#3",
                    "midi": 51,
                    "time": 184.8212437500027,
                    "velocity": 0.48031496062992124,
                    "duration": 0.10267846875001396
                },
                {
                    "name": "F#3",
                    "midi": 54,
                    "time": 184.8212437500027,
                    "velocity": 0.48031496062992124,
                    "duration": 0.10267846875001396
                },
                {
                    "name": "E3",
                    "midi": 52,
                    "time": 184.92838650000272,
                    "velocity": 0.48031496062992124,
                    "duration": 0.10267846875001396
                },
                {
                    "name": "G#3",
                    "midi": 56,
                    "time": 185.03552925000272,
                    "velocity": 0.48031496062992124,
                    "duration": 0.10267846875001396
                },
                {
                    "name": "F3",
                    "midi": 53,
                    "time": 185.03552925000272,
                    "velocity": 0.48031496062992124,
                    "duration": 0.10267846875001396
                },
                {
                    "name": "F#3",
                    "midi": 54,
                    "time": 185.14267200000273,
                    "velocity": 0.48031496062992124,
                    "duration": 0.10267846875001396
                },
                {
                    "name": "G3",
                    "midi": 55,
                    "time": 185.24981475000274,
                    "velocity": 0.48031496062992124,
                    "duration": 0.10267846875001396
                },
                {
                    "name": "A#3",
                    "midi": 58,
                    "time": 185.24981475000274,
                    "velocity": 0.48031496062992124,
                    "duration": 0.10267846875001396
                },
                {
                    "name": "G#3",
                    "midi": 56,
                    "time": 185.35695750000275,
                    "velocity": 0.48031496062992124,
                    "duration": 0.10267846875001396
                },
                {
                    "name": "A3",
                    "midi": 57,
                    "time": 185.46410025000276,
                    "velocity": 0.48031496062992124,
                    "duration": 0.10267846875001396
                },
                {
                    "name": "C4",
                    "midi": 60,
                    "time": 185.46410025000276,
                    "velocity": 0.48031496062992124,
                    "duration": 0.10267846875001396
                },
                {
                    "name": "A#3",
                    "midi": 58,
                    "time": 185.57124300000277,
                    "velocity": 0.48031496062992124,
                    "duration": 0.10267846875001396
                },
                {
                    "name": "D4",
                    "midi": 62,
                    "time": 185.67838575000278,
                    "velocity": 0.48031496062992124,
                    "duration": 0.10267846875001396
                },
                {
                    "name": "B3",
                    "midi": 59,
                    "time": 185.67838575000278,
                    "velocity": 0.48031496062992124,
                    "duration": 0.10267846875001396
                },
                {
                    "name": "C4",
                    "midi": 60,
                    "time": 185.78552850000278,
                    "velocity": 0.48031496062992124,
                    "duration": 0.10267846875001396
                },
                {
                    "name": "C#4",
                    "midi": 61,
                    "time": 185.8926712500028,
                    "velocity": 0.48031496062992124,
                    "duration": 0.10267846875001396
                },
                {
                    "name": "E4",
                    "midi": 64,
                    "time": 185.8926712500028,
                    "velocity": 0.48031496062992124,
                    "duration": 0.10267846875001396
                },
                {
                    "name": "D4",
                    "midi": 62,
                    "time": 185.9998140000028,
                    "velocity": 0.48031496062992124,
                    "duration": 0.10267846875001396
                },
                {
                    "name": "F#4",
                    "midi": 66,
                    "time": 186.1069567500028,
                    "velocity": 0.48031496062992124,
                    "duration": 0.10267846875001396
                },
                {
                    "name": "D#4",
                    "midi": 63,
                    "time": 186.1069567500028,
                    "velocity": 0.48031496062992124,
                    "duration": 0.10267846875001396
                },
                {
                    "name": "E4",
                    "midi": 64,
                    "time": 186.21409950000282,
                    "velocity": 0.48031496062992124,
                    "duration": 0.10267846875001396
                },
                {
                    "name": "G#4",
                    "midi": 68,
                    "time": 186.32124225000283,
                    "velocity": 0.48031496062992124,
                    "duration": 0.10267846875001396
                },
                {
                    "name": "F4",
                    "midi": 65,
                    "time": 186.32124225000283,
                    "velocity": 0.48031496062992124,
                    "duration": 0.10267846875001396
                },
                {
                    "name": "F4",
                    "midi": 65,
                    "time": 186.42838500000283,
                    "velocity": 0.48031496062992124,
                    "duration": 0.10267846875001396
                },
                {
                    "name": "F#4",
                    "midi": 66,
                    "time": 186.53552775000284,
                    "velocity": 0.48031496062992124,
                    "duration": 0.10267846875001396
                },
                {
                    "name": "A4",
                    "midi": 69,
                    "time": 186.53552775000284,
                    "velocity": 0.48031496062992124,
                    "duration": 0.10267846875001396
                },
                {
                    "name": "F#4",
                    "midi": 66,
                    "time": 186.64267050000285,
                    "velocity": 0.48031496062992124,
                    "duration": 0.10267846875001396
                },
                {
                    "name": "G4",
                    "midi": 67,
                    "time": 186.74981325000286,
                    "velocity": 0.48031496062992124,
                    "duration": 0.10267846875001396
                },
                {
                    "name": "A#4",
                    "midi": 70,
                    "time": 186.74981325000286,
                    "velocity": 0.48031496062992124,
                    "duration": 0.10267846875001396
                },
                {
                    "name": "G4",
                    "midi": 67,
                    "time": 186.85695600000287,
                    "velocity": 0.48031496062992124,
                    "duration": 0.10267846875001396
                },
                {
                    "name": "G#4",
                    "midi": 68,
                    "time": 186.96409875000288,
                    "velocity": 0.48031496062992124,
                    "duration": 0.10267846875001396
                },
                {
                    "name": "B4",
                    "midi": 71,
                    "time": 186.96409875000288,
                    "velocity": 0.48031496062992124,
                    "duration": 0.10267846875001396
                },
                {
                    "name": "G#4",
                    "midi": 68,
                    "time": 187.07124150000288,
                    "velocity": 0.48031496062992124,
                    "duration": 0.10267846875001396
                },
                {
                    "name": "A4",
                    "midi": 69,
                    "time": 187.1783842500029,
                    "velocity": 0.48031496062992124,
                    "duration": 0.10267846875001396
                },
                {
                    "name": "C5",
                    "midi": 72,
                    "time": 187.1783842500029,
                    "velocity": 0.48031496062992124,
                    "duration": 0.10267846875001396
                },
                {
                    "name": "A4",
                    "midi": 69,
                    "time": 187.2855270000029,
                    "velocity": 0.48031496062992124,
                    "duration": 0.10267846875001396
                },
                {
                    "name": "A#4",
                    "midi": 70,
                    "time": 187.3926697500029,
                    "velocity": 0.48031496062992124,
                    "duration": 0.10267846875001396
                },
                {
                    "name": "C#5",
                    "midi": 73,
                    "time": 187.3926697500029,
                    "velocity": 0.48031496062992124,
                    "duration": 0.10267846875001396
                },
                {
                    "name": "A#4",
                    "midi": 70,
                    "time": 187.49981250000292,
                    "velocity": 0.48031496062992124,
                    "duration": 0.10267846875001396
                },
                {
                    "name": "D5",
                    "midi": 74,
                    "time": 187.60695525000293,
                    "velocity": 0.48031496062992124,
                    "duration": 0.10267846875001396
                },
                {
                    "name": "B4",
                    "midi": 71,
                    "time": 187.60695525000293,
                    "velocity": 0.48031496062992124,
                    "duration": 0.10267846875001396
                },
                {
                    "name": "B4",
                    "midi": 71,
                    "time": 187.71409800000293,
                    "velocity": 0.48031496062992124,
                    "duration": 0.10267846875001396
                },
                {
                    "name": "C5",
                    "midi": 72,
                    "time": 187.82124075000294,
                    "velocity": 0.48031496062992124,
                    "duration": 0.10267846875001396
                },
                {
                    "name": "D#5",
                    "midi": 75,
                    "time": 187.82124075000294,
                    "velocity": 0.48031496062992124,
                    "duration": 0.10267846875001396
                },
                {
                    "name": "C5",
                    "midi": 72,
                    "time": 187.92838350000295,
                    "velocity": 0.48031496062992124,
                    "duration": 0.10267846875001396
                },
                {
                    "name": "E5",
                    "midi": 76,
                    "time": 188.03552625000296,
                    "velocity": 0.48031496062992124,
                    "duration": 0.10267846875001396
                },
                {
                    "name": "C#5",
                    "midi": 73,
                    "time": 188.03552625000296,
                    "velocity": 0.48031496062992124,
                    "duration": 0.10267846875001396
                },
                {
                    "name": "D5",
                    "midi": 74,
                    "time": 188.14266900000297,
                    "velocity": 0.48031496062992124,
                    "duration": 0.10267846875001396
                },
                {
                    "name": "D#5",
                    "midi": 75,
                    "time": 188.24981175000298,
                    "velocity": 0.48031496062992124,
                    "duration": 0.10267846875001396
                },
                {
                    "name": "F#5",
                    "midi": 78,
                    "time": 188.24981175000298,
                    "velocity": 0.48031496062992124,
                    "duration": 0.10267846875001396
                },
                {
                    "name": "E5",
                    "midi": 76,
                    "time": 188.35695450000298,
                    "velocity": 0.48031496062992124,
                    "duration": 0.10267846875001396
                },
                {
                    "name": "G#5",
                    "midi": 80,
                    "time": 188.464097250003,
                    "velocity": 0.48031496062992124,
                    "duration": 0.10267846875001396
                },
                {
                    "name": "F5",
                    "midi": 77,
                    "time": 188.464097250003,
                    "velocity": 0.48031496062992124,
                    "duration": 0.10267846875001396
                },
                {
                    "name": "F#5",
                    "midi": 78,
                    "time": 188.571240000003,
                    "velocity": 0.48031496062992124,
                    "duration": 0.10267846875001396
                },
                {
                    "name": "A#5",
                    "midi": 82,
                    "time": 188.678382750003,
                    "velocity": 0.48031496062992124,
                    "duration": 0.10267846875001396
                },
                {
                    "name": "G5",
                    "midi": 79,
                    "time": 188.678382750003,
                    "velocity": 0.48031496062992124,
                    "duration": 0.10267846875001396
                },
                {
                    "name": "G#5",
                    "midi": 80,
                    "time": 188.78552550000302,
                    "velocity": 0.48031496062992124,
                    "duration": 0.10267846875001396
                },
                {
                    "name": "A5",
                    "midi": 81,
                    "time": 188.89266825000303,
                    "velocity": 0.48031496062992124,
                    "duration": 0.10267846875001396
                },
                {
                    "name": "C6",
                    "midi": 84,
                    "time": 188.89266825000303,
                    "velocity": 0.48031496062992124,
                    "duration": 0.10267846875001396
                },
                {
                    "name": "A#5",
                    "midi": 82,
                    "time": 188.99981100000304,
                    "velocity": 0.48031496062992124,
                    "duration": 0.10267846875001396
                },
                {
                    "name": "B5",
                    "midi": 83,
                    "time": 189.10695375000304,
                    "velocity": 0.48031496062992124,
                    "duration": 0.10267846875001396
                },
                {
                    "name": "D6",
                    "midi": 86,
                    "time": 189.10695375000304,
                    "velocity": 0.48031496062992124,
                    "duration": 0.10267846875001396
                },
                {
                    "name": "C6",
                    "midi": 84,
                    "time": 189.21409650000305,
                    "velocity": 0.48031496062992124,
                    "duration": 0.10267846875001396
                },
                {
                    "name": "C#6",
                    "midi": 85,
                    "time": 189.32123925000306,
                    "velocity": 0.48031496062992124,
                    "duration": 0.10267846875001396
                },
                {
                    "name": "E6",
                    "midi": 88,
                    "time": 189.32123925000306,
                    "velocity": 0.48031496062992124,
                    "duration": 0.10267846875001396
                },
                {
                    "name": "D6",
                    "midi": 86,
                    "time": 189.42838200000307,
                    "velocity": 0.48031496062992124,
                    "duration": 0.10267846875001396
                },
                {
                    "name": "F#6",
                    "midi": 90,
                    "time": 189.53552475000308,
                    "velocity": 0.48031496062992124,
                    "duration": 0.10267846875001396
                },
                {
                    "name": "D#6",
                    "midi": 87,
                    "time": 189.53552475000308,
                    "velocity": 0.48031496062992124,
                    "duration": 0.10267846875001396
                },
                {
                    "name": "E6",
                    "midi": 88,
                    "time": 189.64266750000309,
                    "velocity": 0.48031496062992124,
                    "duration": 0.10267846875001396
                },
                {
                    "name": "F6",
                    "midi": 89,
                    "time": 189.7498102500031,
                    "velocity": 0.48031496062992124,
                    "duration": 0.10267846875001396
                },
                {
                    "name": "G#6",
                    "midi": 92,
                    "time": 189.7498102500031,
                    "velocity": 0.48031496062992124,
                    "duration": 0.10267846875001396
                },
                {
                    "name": "D7",
                    "midi": 98,
                    "time": 189.8569530000031,
                    "velocity": 0.48031496062992124,
                    "duration": 0.10267846875001396
                },
                {
                    "name": "D6",
                    "midi": 86,
                    "time": 189.8569530000031,
                    "velocity": 0.48031496062992124,
                    "duration": 0.10267846875001396
                },
                {
                    "name": "F#7",
                    "midi": 102,
                    "time": 189.9640957500031,
                    "velocity": 0.48031496062992124,
                    "duration": 0.10267846875001396
                },
                {
                    "name": "F#6",
                    "midi": 90,
                    "time": 189.9640957500031,
                    "velocity": 0.48031496062992124,
                    "duration": 0.10267846875001396
                },
                {
                    "name": "A#7",
                    "midi": 106,
                    "time": 190.07123850000312,
                    "velocity": 0.48031496062992124,
                    "duration": 0.10267846875001396
                },
                {
                    "name": "A#6",
                    "midi": 94,
                    "time": 190.07123850000312,
                    "velocity": 0.48031496062992124,
                    "duration": 0.10267846875001396
                },
                {
                    "name": "A#7",
                    "midi": 106,
                    "time": 190.17838125000313,
                    "velocity": 0.48031496062992124,
                    "duration": 0.10267846875001396
                },
                {
                    "name": "A#6",
                    "midi": 94,
                    "time": 190.17838125000313,
                    "velocity": 0.48031496062992124,
                    "duration": 0.10267846875001396
                },
                {
                    "name": "F#7",
                    "midi": 102,
                    "time": 190.28552400000314,
                    "velocity": 0.48031496062992124,
                    "duration": 0.10267846875001396
                },
                {
                    "name": "F#6",
                    "midi": 90,
                    "time": 190.28552400000314,
                    "velocity": 0.48031496062992124,
                    "duration": 0.10267846875001396
                },
                {
                    "name": "A#7",
                    "midi": 106,
                    "time": 190.39266675000314,
                    "velocity": 0.48031496062992124,
                    "duration": 0.10267846875001396
                },
                {
                    "name": "A#6",
                    "midi": 94,
                    "time": 190.39266675000314,
                    "velocity": 0.48031496062992124,
                    "duration": 0.10267846875001396
                },
                {
                    "name": "D7",
                    "midi": 98,
                    "time": 190.49980950000315,
                    "velocity": 0.48031496062992124,
                    "duration": 0.10267846875001396
                },
                {
                    "name": "D6",
                    "midi": 86,
                    "time": 190.49980950000315,
                    "velocity": 0.48031496062992124,
                    "duration": 0.10267846875001396
                },
                {
                    "name": "D7",
                    "midi": 98,
                    "time": 190.60695225000316,
                    "velocity": 0.48031496062992124,
                    "duration": 0.10267846875001396
                },
                {
                    "name": "D6",
                    "midi": 86,
                    "time": 190.60695225000316,
                    "velocity": 0.48031496062992124,
                    "duration": 0.10267846875001396
                },
                {
                    "name": "D7",
                    "midi": 98,
                    "time": 190.71409500000317,
                    "velocity": 0.48031496062992124,
                    "duration": 0.10267846875001396
                },
                {
                    "name": "D6",
                    "midi": 86,
                    "time": 190.71409500000317,
                    "velocity": 0.48031496062992124,
                    "duration": 0.10267846875001396
                },
                {
                    "name": "F#6",
                    "midi": 90,
                    "time": 190.82123775000318,
                    "velocity": 0.48031496062992124,
                    "duration": 0.10267846875001396
                },
                {
                    "name": "F#7",
                    "midi": 102,
                    "time": 190.82123775000318,
                    "velocity": 0.48031496062992124,
                    "duration": 0.10267846875001396
                },
                {
                    "name": "A#7",
                    "midi": 106,
                    "time": 190.9283805000032,
                    "velocity": 0.48031496062992124,
                    "duration": 0.10267846875001396
                },
                {
                    "name": "A#6",
                    "midi": 94,
                    "time": 190.9283805000032,
                    "velocity": 0.48031496062992124,
                    "duration": 0.10267846875001396
                },
                {
                    "name": "A#7",
                    "midi": 106,
                    "time": 191.0355232500032,
                    "velocity": 0.48031496062992124,
                    "duration": 0.10267846875001396
                },
                {
                    "name": "A#6",
                    "midi": 94,
                    "time": 191.0355232500032,
                    "velocity": 0.48031496062992124,
                    "duration": 0.10267846875001396
                },
                {
                    "name": "F#6",
                    "midi": 90,
                    "time": 191.1426660000032,
                    "velocity": 0.48031496062992124,
                    "duration": 0.10267846875001396
                },
                {
                    "name": "F#7",
                    "midi": 102,
                    "time": 191.1426660000032,
                    "velocity": 0.48031496062992124,
                    "duration": 0.10267846875001396
                },
                {
                    "name": "A#7",
                    "midi": 106,
                    "time": 191.2498087500032,
                    "velocity": 0.48031496062992124,
                    "duration": 0.10267846875001396
                },
                {
                    "name": "A#6",
                    "midi": 94,
                    "time": 191.2498087500032,
                    "velocity": 0.48031496062992124,
                    "duration": 0.10267846875001396
                },
                {
                    "name": "D6",
                    "midi": 86,
                    "time": 191.35695150000322,
                    "velocity": 0.48031496062992124,
                    "duration": 0.10267846875001396
                },
                {
                    "name": "D7",
                    "midi": 98,
                    "time": 191.35695150000322,
                    "velocity": 0.48031496062992124,
                    "duration": 0.10267846875001396
                },
                {
                    "name": "D7",
                    "midi": 98,
                    "time": 191.46409425000323,
                    "velocity": 0.48031496062992124,
                    "duration": 0.10267846875001396
                },
                {
                    "name": "D6",
                    "midi": 86,
                    "time": 191.46409425000323,
                    "velocity": 0.48031496062992124,
                    "duration": 0.10267846875001396
                },
                {
                    "name": "D6",
                    "midi": 86,
                    "time": 191.57123700000324,
                    "velocity": 0.48031496062992124,
                    "duration": 0.10267846875001396
                },
                {
                    "name": "D7",
                    "midi": 98,
                    "time": 191.57123700000324,
                    "velocity": 0.48031496062992124,
                    "duration": 0.10267846875001396
                },
                {
                    "name": "F#6",
                    "midi": 90,
                    "time": 191.67837975000324,
                    "velocity": 0.48031496062992124,
                    "duration": 0.10267846875001396
                },
                {
                    "name": "F#7",
                    "midi": 102,
                    "time": 191.67837975000324,
                    "velocity": 0.48031496062992124,
                    "duration": 0.10267846875001396
                },
                {
                    "name": "A#7",
                    "midi": 106,
                    "time": 191.78552250000325,
                    "velocity": 0.48031496062992124,
                    "duration": 0.10267846875001396
                },
                {
                    "name": "A#6",
                    "midi": 94,
                    "time": 191.78552250000325,
                    "velocity": 0.48031496062992124,
                    "duration": 0.10267846875001396
                },
                {
                    "name": "A#7",
                    "midi": 106,
                    "time": 191.89266525000326,
                    "velocity": 0.48031496062992124,
                    "duration": 0.10267846875001396
                },
                {
                    "name": "A#6",
                    "midi": 94,
                    "time": 191.89266525000326,
                    "velocity": 0.48031496062992124,
                    "duration": 0.10267846875001396
                },
                {
                    "name": "D7",
                    "midi": 98,
                    "time": 191.99980800000327,
                    "velocity": 0.48031496062992124,
                    "duration": 0.10267846875001396
                },
                {
                    "name": "D6",
                    "midi": 86,
                    "time": 191.99980800000327,
                    "velocity": 0.48031496062992124,
                    "duration": 0.10267846875001396
                },
                {
                    "name": "F#7",
                    "midi": 102,
                    "time": 192.10695075000328,
                    "velocity": 0.48031496062992124,
                    "duration": 0.10267846875001396
                },
                {
                    "name": "F#6",
                    "midi": 90,
                    "time": 192.10695075000328,
                    "velocity": 0.48031496062992124,
                    "duration": 0.10267846875001396
                },
                {
                    "name": "A#7",
                    "midi": 106,
                    "time": 192.2140935000033,
                    "velocity": 0.48031496062992124,
                    "duration": 0.10267846875001396
                },
                {
                    "name": "A#6",
                    "midi": 94,
                    "time": 192.2140935000033,
                    "velocity": 0.48031496062992124,
                    "duration": 0.10267846875001396
                },
                {
                    "name": "A#7",
                    "midi": 106,
                    "time": 192.3212362500033,
                    "velocity": 0.48031496062992124,
                    "duration": 0.10267846875001396
                },
                {
                    "name": "A#6",
                    "midi": 94,
                    "time": 192.3212362500033,
                    "velocity": 0.48031496062992124,
                    "duration": 0.10267846875001396
                },
                {
                    "name": "D2",
                    "midi": 38,
                    "time": 192.4283790000033,
                    "velocity": 0.48031496062992124,
                    "duration": 0.10267846875001396
                },
                {
                    "name": "E2",
                    "midi": 40,
                    "time": 192.5355217500033,
                    "velocity": 0.48031496062992124,
                    "duration": 0.05133923437500698
                },
                {
                    "name": "F2",
                    "midi": 41,
                    "time": 192.58909312500333,
                    "velocity": 0.48031496062992124,
                    "duration": 0.049107093749995556
                },
                {
                    "name": "G2",
                    "midi": 43,
                    "time": 192.64266450000332,
                    "velocity": 0.48031496062992124,
                    "duration": 0.03124996874998942
                },
                {
                    "name": "A2",
                    "midi": 45,
                    "time": 192.6783787500033,
                    "velocity": 0.48031496062992124,
                    "duration": 0.033482109375000846
                },
                {
                    "name": "B2",
                    "midi": 47,
                    "time": 192.71409300000332,
                    "velocity": 0.48031496062992124,
                    "duration": 0.03124996874998942
                },
                {
                    "name": "C3",
                    "midi": 48,
                    "time": 192.7498072500033,
                    "velocity": 0.48031496062992124,
                    "duration": 0.03124996874998942
                },
                {
                    "name": "D3",
                    "midi": 50,
                    "time": 192.78552150000328,
                    "velocity": 0.48031496062992124,
                    "duration": 0.01562498437499471
                },
                {
                    "name": "E3",
                    "midi": 52,
                    "time": 192.8033786250033,
                    "velocity": 0.48031496062992124,
                    "duration": 0.01562498437499471
                },
                {
                    "name": "F3",
                    "midi": 53,
                    "time": 192.8212357500033,
                    "velocity": 0.48031496062992124,
                    "duration": 0.013392843750011707
                },
                {
                    "name": "G3",
                    "midi": 55,
                    "time": 192.8390928750033,
                    "velocity": 0.48031496062992124,
                    "duration": 0.013392843750011707
                },
                {
                    "name": "A3",
                    "midi": 57,
                    "time": 192.8569500000033,
                    "velocity": 0.48031496062992124,
                    "duration": 0.013392843750011707
                },
                {
                    "name": "B3",
                    "midi": 59,
                    "time": 192.87480712500331,
                    "velocity": 0.48031496062992124,
                    "duration": 0.013392843750011707
                },
                {
                    "name": "C4",
                    "midi": 60,
                    "time": 192.89266425000332,
                    "velocity": 0.48031496062992124,
                    "duration": 0.01562498437499471
                },
                {
                    "name": "D4",
                    "midi": 62,
                    "time": 192.91052137500333,
                    "velocity": 0.48031496062992124,
                    "duration": 0.01562498437499471
                },
                {
                    "name": "E4",
                    "midi": 64,
                    "time": 192.92837850000333,
                    "velocity": 0.48031496062992124,
                    "duration": 0.013392843750011707
                },
                {
                    "name": "F4",
                    "midi": 65,
                    "time": 192.94623562500334,
                    "velocity": 0.48031496062992124,
                    "duration": 0.013392843750011707
                },
                {
                    "name": "G4",
                    "midi": 67,
                    "time": 192.96409275000335,
                    "velocity": 0.48031496062992124,
                    "duration": 0.013392843750011707
                },
                {
                    "name": "A4",
                    "midi": 69,
                    "time": 192.98194987500335,
                    "velocity": 0.48031496062992124,
                    "duration": 0.013392843750011707
                },
                {
                    "name": "B4",
                    "midi": 71,
                    "time": 192.99980700000336,
                    "velocity": 0.48031496062992124,
                    "duration": 0.01562498437499471
                },
                {
                    "name": "C5",
                    "midi": 72,
                    "time": 193.01766412500336,
                    "velocity": 0.48031496062992124,
                    "duration": 0.01562498437499471
                },
                {
                    "name": "D5",
                    "midi": 74,
                    "time": 193.03552125000337,
                    "velocity": 0.48031496062992124,
                    "duration": 0.013392843750011707
                },
                {
                    "name": "E5",
                    "midi": 76,
                    "time": 193.05337837500338,
                    "velocity": 0.48031496062992124,
                    "duration": 0.013392843750011707
                },
                {
                    "name": "F5",
                    "midi": 77,
                    "time": 193.07123550000338,
                    "velocity": 0.48031496062992124,
                    "duration": 0.013392843750011707
                },
                {
                    "name": "G5",
                    "midi": 79,
                    "time": 193.0890926250034,
                    "velocity": 0.48031496062992124,
                    "duration": 0.013392843750011707
                },
                {
                    "name": "A5",
                    "midi": 81,
                    "time": 193.1069497500034,
                    "velocity": 0.48031496062992124,
                    "duration": 0.01562498437499471
                },
                {
                    "name": "B5",
                    "midi": 83,
                    "time": 193.1248068750034,
                    "velocity": 0.48031496062992124,
                    "duration": 0.01562498437499471
                },
                {
                    "name": "C6",
                    "midi": 84,
                    "time": 193.1426640000034,
                    "velocity": 0.48031496062992124,
                    "duration": 0.013392843750011707
                },
                {
                    "name": "D6",
                    "midi": 86,
                    "time": 193.1605211250034,
                    "velocity": 0.48031496062992124,
                    "duration": 0.013392843750011707
                },
                {
                    "name": "E6",
                    "midi": 88,
                    "time": 193.17837825000342,
                    "velocity": 0.48031496062992124,
                    "duration": 0.013392843750011707
                },
                {
                    "name": "F6",
                    "midi": 89,
                    "time": 193.19623537500343,
                    "velocity": 0.48031496062992124,
                    "duration": 0.013392843750011707
                },
                {
                    "name": "G6",
                    "midi": 91,
                    "time": 193.21409250000343,
                    "velocity": 0.48031496062992124,
                    "duration": 0.01562498437499471
                },
                {
                    "name": "A6",
                    "midi": 93,
                    "time": 193.23194962500344,
                    "velocity": 0.48031496062992124,
                    "duration": 0.01562498437499471
                },
                {
                    "name": "B6",
                    "midi": 95,
                    "time": 193.24980675000344,
                    "velocity": 0.48031496062992124,
                    "duration": 0.013392843750011707
                },
                {
                    "name": "C7",
                    "midi": 96,
                    "time": 193.26766387500345,
                    "velocity": 0.48031496062992124,
                    "duration": 0.013392843750011707
                },
                {
                    "name": "D7",
                    "midi": 98,
                    "time": 193.28552100000346,
                    "velocity": 0.48031496062992124,
                    "duration": 0.4241067187500107
                },
                {
                    "name": "D6",
                    "midi": 86,
                    "time": 193.28552100000346,
                    "velocity": 0.48031496062992124,
                    "duration": 0.4241067187500107
                }
            ],
            "controlChanges": {
                "7": [
                    {
                        "number": 7,
                        "time": 0,
                        "value": 0.7322834645669292
                    }
                ]
            },
            "id": 1,
            "instrumentNumber": 0,
            "instrument": "acoustic grand piano",
            "instrumentFamily": "piano",
            "channelNumber": 1,
            "isPercussion": false
        },
        {
            "startTime": 0,
            "duration": 193.70962771875057,
            "length": 1494,
            "notes": [
                {
                    "name": "D3",
                    "midi": 50,
                    "time": 0,
                    "velocity": 0.48031496062992124,
                    "duration": 0.10267846875000002
                },
                {
                    "name": "D2",
                    "midi": 38,
                    "time": 0.10714275000000001,
                    "velocity": 0.48031496062992124,
                    "duration": 0.10267846875000003
                },
                {
                    "name": "D3",
                    "midi": 50,
                    "time": 0.10714275000000001,
                    "velocity": 0.48031496062992124,
                    "duration": 0.10267846875000003
                },
                {
                    "name": "D3",
                    "midi": 50,
                    "time": 0.21428550000000005,
                    "velocity": 0.48031496062992124,
                    "duration": 0.10267846875
                },
                {
                    "name": "D3",
                    "midi": 50,
                    "time": 0.32142825,
                    "velocity": 0.48031496062992124,
                    "duration": 0.10267846875000003
                },
                {
                    "name": "D2",
                    "midi": 38,
                    "time": 0.32142825,
                    "velocity": 0.48031496062992124,
                    "duration": 0.10267846875000003
                },
                {
                    "name": "D3",
                    "midi": 50,
                    "time": 0.42857100000000004,
                    "velocity": 0.48031496062992124,
                    "duration": 0.10267846874999997
                },
                {
                    "name": "D2",
                    "midi": 38,
                    "time": 0.53571375,
                    "velocity": 0.48031496062992124,
                    "duration": 0.10267846874999997
                },
                {
                    "name": "D3",
                    "midi": 50,
                    "time": 0.53571375,
                    "velocity": 0.48031496062992124,
                    "duration": 0.10267846874999997
                },
                {
                    "name": "D3",
                    "midi": 50,
                    "time": 0.6428564999999999,
                    "velocity": 0.48031496062992124,
                    "duration": 0.10267846874999997
                },
                {
                    "name": "D2",
                    "midi": 38,
                    "time": 0.7499992499999999,
                    "velocity": 0.48031496062992124,
                    "duration": 0.10267846874999997
                },
                {
                    "name": "D3",
                    "midi": 50,
                    "time": 0.7499992499999999,
                    "velocity": 0.48031496062992124,
                    "duration": 0.10267846874999997
                },
                {
                    "name": "D3",
                    "midi": 50,
                    "time": 0.8571419999999998,
                    "velocity": 0.48031496062992124,
                    "duration": 0.10267846874999997
                },
                {
                    "name": "D3",
                    "midi": 50,
                    "time": 0.9642847499999998,
                    "velocity": 0.48031496062992124,
                    "duration": 0.10267846874999997
                },
                {
                    "name": "D2",
                    "midi": 38,
                    "time": 0.9642847499999998,
                    "velocity": 0.48031496062992124,
                    "duration": 0.10267846874999997
                },
                {
                    "name": "D3",
                    "midi": 50,
                    "time": 1.0714274999999998,
                    "velocity": 0.48031496062992124,
                    "duration": 0.10267846874999997
                },
                {
                    "name": "D3",
                    "midi": 50,
                    "time": 1.1785702499999997,
                    "velocity": 0.48031496062992124,
                    "duration": 0.10267846874999997
                },
                {
                    "name": "D2",
                    "midi": 38,
                    "time": 1.1785702499999997,
                    "velocity": 0.48031496062992124,
                    "duration": 0.10267846874999997
                },
                {
                    "name": "D3",
                    "midi": 50,
                    "time": 1.2857129999999997,
                    "velocity": 0.48031496062992124,
                    "duration": 0.10267846874999997
                },
                {
                    "name": "D3",
                    "midi": 50,
                    "time": 1.3928557499999996,
                    "velocity": 0.48031496062992124,
                    "duration": 0.10267846874999997
                },
                {
                    "name": "D2",
                    "midi": 38,
                    "time": 1.3928557499999996,
                    "velocity": 0.48031496062992124,
                    "duration": 0.10267846874999997
                },
                {
                    "name": "D3",
                    "midi": 50,
                    "time": 1.4999984999999996,
                    "velocity": 0.48031496062992124,
                    "duration": 0.10267846874999997
                },
                {
                    "name": "D3",
                    "midi": 50,
                    "time": 1.6071412499999995,
                    "velocity": 0.48031496062992124,
                    "duration": 0.10267846874999997
                },
                {
                    "name": "D2",
                    "midi": 38,
                    "time": 1.6071412499999995,
                    "velocity": 0.48031496062992124,
                    "duration": 0.10267846874999997
                },
                {
                    "name": "D3",
                    "midi": 50,
                    "time": 1.7142839999999995,
                    "velocity": 0.48031496062992124,
                    "duration": 0.10267846874999997
                },
                {
                    "name": "D3",
                    "midi": 50,
                    "time": 1.8214267499999994,
                    "velocity": 0.48031496062992124,
                    "duration": 0.10267846874999997
                },
                {
                    "name": "D2",
                    "midi": 38,
                    "time": 1.8214267499999994,
                    "velocity": 0.48031496062992124,
                    "duration": 0.10267846874999997
                },
                {
                    "name": "D3",
                    "midi": 50,
                    "time": 1.9285694999999994,
                    "velocity": 0.48031496062992124,
                    "duration": 0.10267846874999997
                },
                {
                    "name": "D2",
                    "midi": 38,
                    "time": 2.0357122499999996,
                    "velocity": 0.48031496062992124,
                    "duration": 0.1026784687500002
                },
                {
                    "name": "D3",
                    "midi": 50,
                    "time": 2.0357122499999996,
                    "velocity": 0.48031496062992124,
                    "duration": 0.1026784687500002
                },
                {
                    "name": "D3",
                    "midi": 50,
                    "time": 2.142855,
                    "velocity": 0.48031496062992124,
                    "duration": 0.1026784687500002
                },
                {
                    "name": "D3",
                    "midi": 50,
                    "time": 2.2499977500000004,
                    "velocity": 0.48031496062992124,
                    "duration": 0.1026784687500002
                },
                {
                    "name": "D2",
                    "midi": 38,
                    "time": 2.2499977500000004,
                    "velocity": 0.48031496062992124,
                    "duration": 0.1026784687500002
                },
                {
                    "name": "D3",
                    "midi": 50,
                    "time": 2.3571405000000007,
                    "velocity": 0.48031496062992124,
                    "duration": 0.1026784687500002
                },
                {
                    "name": "D3",
                    "midi": 50,
                    "time": 2.464283250000001,
                    "velocity": 0.48031496062992124,
                    "duration": 0.1026784687500002
                },
                {
                    "name": "D2",
                    "midi": 38,
                    "time": 2.464283250000001,
                    "velocity": 0.48031496062992124,
                    "duration": 0.1026784687500002
                },
                {
                    "name": "D3",
                    "midi": 50,
                    "time": 2.5714260000000015,
                    "velocity": 0.48031496062992124,
                    "duration": 0.1026784687500002
                },
                {
                    "name": "D3",
                    "midi": 50,
                    "time": 2.678568750000002,
                    "velocity": 0.48031496062992124,
                    "duration": 0.1026784687500002
                },
                {
                    "name": "D2",
                    "midi": 38,
                    "time": 2.678568750000002,
                    "velocity": 0.48031496062992124,
                    "duration": 0.1026784687500002
                },
                {
                    "name": "D3",
                    "midi": 50,
                    "time": 2.7857115000000023,
                    "velocity": 0.48031496062992124,
                    "duration": 0.1026784687500002
                },
                {
                    "name": "D3",
                    "midi": 50,
                    "time": 2.8928542500000027,
                    "velocity": 0.48031496062992124,
                    "duration": 0.1026784687500002
                },
                {
                    "name": "D2",
                    "midi": 38,
                    "time": 2.8928542500000027,
                    "velocity": 0.48031496062992124,
                    "duration": 0.1026784687500002
                },
                {
                    "name": "D3",
                    "midi": 50,
                    "time": 2.999997000000003,
                    "velocity": 0.48031496062992124,
                    "duration": 0.1026784687500002
                },
                {
                    "name": "D3",
                    "midi": 50,
                    "time": 3.1071397500000035,
                    "velocity": 0.48031496062992124,
                    "duration": 0.1026784687500002
                },
                {
                    "name": "D2",
                    "midi": 38,
                    "time": 3.1071397500000035,
                    "velocity": 0.48031496062992124,
                    "duration": 0.1026784687500002
                },
                {
                    "name": "D3",
                    "midi": 50,
                    "time": 3.214282500000004,
                    "velocity": 0.48031496062992124,
                    "duration": 0.1026784687500002
                },
                {
                    "name": "D2",
                    "midi": 38,
                    "time": 3.3214252500000043,
                    "velocity": 0.48031496062992124,
                    "duration": 0.1026784687500002
                },
                {
                    "name": "D3",
                    "midi": 50,
                    "time": 3.3214252500000043,
                    "velocity": 0.48031496062992124,
                    "duration": 0.1026784687500002
                },
                {
                    "name": "E3",
                    "midi": 52,
                    "time": 3.4285680000000047,
                    "velocity": 0.48031496062992124,
                    "duration": 0.1026784687500002
                },
                {
                    "name": "C3",
                    "midi": 48,
                    "time": 3.4285680000000047,
                    "velocity": 0.48031496062992124,
                    "duration": 0.1026784687500002
                },
                {
                    "name": "D3",
                    "midi": 50,
                    "time": 3.535710750000005,
                    "velocity": 0.48031496062992124,
                    "duration": 0.1026784687500002
                },
                {
                    "name": "D2",
                    "midi": 38,
                    "time": 3.535710750000005,
                    "velocity": 0.48031496062992124,
                    "duration": 0.1026784687500002
                },
                {
                    "name": "C3",
                    "midi": 48,
                    "time": 3.6428535000000055,
                    "velocity": 0.48031496062992124,
                    "duration": 0.1026784687500002
                },
                {
                    "name": "E3",
                    "midi": 52,
                    "time": 3.6428535000000055,
                    "velocity": 0.48031496062992124,
                    "duration": 0.1026784687500002
                },
                {
                    "name": "D3",
                    "midi": 50,
                    "time": 3.749996250000006,
                    "velocity": 0.48031496062992124,
                    "duration": 0.1026784687500002
                },
                {
                    "name": "D2",
                    "midi": 38,
                    "time": 3.749996250000006,
                    "velocity": 0.48031496062992124,
                    "duration": 0.1026784687500002
                },
                {
                    "name": "C3",
                    "midi": 48,
                    "time": 3.8571390000000063,
                    "velocity": 0.48031496062992124,
                    "duration": 0.1026784687500002
                },
                {
                    "name": "E3",
                    "midi": 52,
                    "time": 3.8571390000000063,
                    "velocity": 0.48031496062992124,
                    "duration": 0.1026784687500002
                },
                {
                    "name": "D2",
                    "midi": 38,
                    "time": 3.9642817500000067,
                    "velocity": 0.48031496062992124,
                    "duration": 0.10267846874999975
                },
                {
                    "name": "D3",
                    "midi": 50,
                    "time": 3.9642817500000067,
                    "velocity": 0.48031496062992124,
                    "duration": 0.10267846874999975
                },
                {
                    "name": "E3",
                    "midi": 52,
                    "time": 4.071424500000006,
                    "velocity": 0.48031496062992124,
                    "duration": 0.10267846874999975
                },
                {
                    "name": "C3",
                    "midi": 48,
                    "time": 4.071424500000006,
                    "velocity": 0.48031496062992124,
                    "duration": 0.10267846874999975
                },
                {
                    "name": "D3",
                    "midi": 50,
                    "time": 4.178567250000006,
                    "velocity": 0.48031496062992124,
                    "duration": 0.10267846874999975
                },
                {
                    "name": "D2",
                    "midi": 38,
                    "time": 4.178567250000006,
                    "velocity": 0.48031496062992124,
                    "duration": 0.10267846874999975
                },
                {
                    "name": "E3",
                    "midi": 52,
                    "time": 4.285710000000005,
                    "velocity": 0.48031496062992124,
                    "duration": 0.10267846874999975
                },
                {
                    "name": "C3",
                    "midi": 48,
                    "time": 4.285710000000005,
                    "velocity": 0.48031496062992124,
                    "duration": 0.10267846874999975
                },
                {
                    "name": "D3",
                    "midi": 50,
                    "time": 4.392852750000005,
                    "velocity": 0.48031496062992124,
                    "duration": 0.10267846874999975
                },
                {
                    "name": "D2",
                    "midi": 38,
                    "time": 4.392852750000005,
                    "velocity": 0.48031496062992124,
                    "duration": 0.10267846874999975
                },
                {
                    "name": "C3",
                    "midi": 48,
                    "time": 4.499995500000004,
                    "velocity": 0.48031496062992124,
                    "duration": 0.10267846874999975
                },
                {
                    "name": "E3",
                    "midi": 52,
                    "time": 4.499995500000004,
                    "velocity": 0.48031496062992124,
                    "duration": 0.10267846874999975
                },
                {
                    "name": "D3",
                    "midi": 50,
                    "time": 4.607138250000004,
                    "velocity": 0.48031496062992124,
                    "duration": 0.10267846874999975
                },
                {
                    "name": "D2",
                    "midi": 38,
                    "time": 4.607138250000004,
                    "velocity": 0.48031496062992124,
                    "duration": 0.10267846874999975
                },
                {
                    "name": "C3",
                    "midi": 48,
                    "time": 4.714281000000003,
                    "velocity": 0.48031496062992124,
                    "duration": 0.10267846874999975
                },
                {
                    "name": "E3",
                    "midi": 52,
                    "time": 4.714281000000003,
                    "velocity": 0.48031496062992124,
                    "duration": 0.10267846874999975
                },
                {
                    "name": "D3",
                    "midi": 50,
                    "time": 4.821423750000003,
                    "velocity": 0.48031496062992124,
                    "duration": 0.10267846874999975
                },
                {
                    "name": "D2",
                    "midi": 38,
                    "time": 4.821423750000003,
                    "velocity": 0.48031496062992124,
                    "duration": 0.10267846874999975
                },
                {
                    "name": "C3",
                    "midi": 48,
                    "time": 4.928566500000002,
                    "velocity": 0.48031496062992124,
                    "duration": 0.10267846874999975
                },
                {
                    "name": "E3",
                    "midi": 52,
                    "time": 4.928566500000002,
                    "velocity": 0.48031496062992124,
                    "duration": 0.10267846874999975
                },
                {
                    "name": "D3",
                    "midi": 50,
                    "time": 5.035709250000002,
                    "velocity": 0.48031496062992124,
                    "duration": 0.10267846874999975
                },
                {
                    "name": "D2",
                    "midi": 38,
                    "time": 5.035709250000002,
                    "velocity": 0.48031496062992124,
                    "duration": 0.10267846874999975
                },
                {
                    "name": "D3",
                    "midi": 50,
                    "time": 5.142852000000001,
                    "velocity": 0.48031496062992124,
                    "duration": 0.10267846874999975
                },
                {
                    "name": "D2",
                    "midi": 38,
                    "time": 5.249994750000001,
                    "velocity": 0.48031496062992124,
                    "duration": 0.10267846874999975
                },
                {
                    "name": "D3",
                    "midi": 50,
                    "time": 5.249994750000001,
                    "velocity": 0.48031496062992124,
                    "duration": 0.10267846874999975
                },
                {
                    "name": "D3",
                    "midi": 50,
                    "time": 5.3571375,
                    "velocity": 0.48031496062992124,
                    "duration": 0.10267846874999975
                },
                {
                    "name": "D3",
                    "midi": 50,
                    "time": 5.46428025,
                    "velocity": 0.48031496062992124,
                    "duration": 0.10267846874999975
                },
                {
                    "name": "D2",
                    "midi": 38,
                    "time": 5.46428025,
                    "velocity": 0.48031496062992124,
                    "duration": 0.10267846874999975
                },
                {
                    "name": "D3",
                    "midi": 50,
                    "time": 5.571422999999999,
                    "velocity": 0.48031496062992124,
                    "duration": 0.10267846874999975
                },
                {
                    "name": "D3",
                    "midi": 50,
                    "time": 5.678565749999999,
                    "velocity": 0.48031496062992124,
                    "duration": 0.10267846874999975
                },
                {
                    "name": "D2",
                    "midi": 38,
                    "time": 5.678565749999999,
                    "velocity": 0.48031496062992124,
                    "duration": 0.10267846874999975
                },
                {
                    "name": "D3",
                    "midi": 50,
                    "time": 5.785708499999998,
                    "velocity": 0.48031496062992124,
                    "duration": 0.10267846874999975
                },
                {
                    "name": "D3",
                    "midi": 50,
                    "time": 5.892851249999998,
                    "velocity": 0.48031496062992124,
                    "duration": 0.10267846874999975
                },
                {
                    "name": "D2",
                    "midi": 38,
                    "time": 5.892851249999998,
                    "velocity": 0.48031496062992124,
                    "duration": 0.10267846874999975
                },
                {
                    "name": "D3",
                    "midi": 50,
                    "time": 5.999993999999997,
                    "velocity": 0.48031496062992124,
                    "duration": 0.10267846874999975
                },
                {
                    "name": "D3",
                    "midi": 50,
                    "time": 6.107136749999997,
                    "velocity": 0.48031496062992124,
                    "duration": 0.10267846874999975
                },
                {
                    "name": "D2",
                    "midi": 38,
                    "time": 6.107136749999997,
                    "velocity": 0.48031496062992124,
                    "duration": 0.10267846874999975
                },
                {
                    "name": "D3",
                    "midi": 50,
                    "time": 6.214279499999996,
                    "velocity": 0.48031496062992124,
                    "duration": 0.10267846874999975
                },
                {
                    "name": "D3",
                    "midi": 50,
                    "time": 6.321422249999996,
                    "velocity": 0.48031496062992124,
                    "duration": 0.10267846874999975
                },
                {
                    "name": "D2",
                    "midi": 38,
                    "time": 6.321422249999996,
                    "velocity": 0.48031496062992124,
                    "duration": 0.10267846874999975
                },
                {
                    "name": "D3",
                    "midi": 50,
                    "time": 6.428564999999995,
                    "velocity": 0.48031496062992124,
                    "duration": 0.10267846874999975
                },
                {
                    "name": "D2",
                    "midi": 38,
                    "time": 6.535707749999995,
                    "velocity": 0.48031496062992124,
                    "duration": 0.10267846874999975
                },
                {
                    "name": "D3",
                    "midi": 50,
                    "time": 6.535707749999995,
                    "velocity": 0.48031496062992124,
                    "duration": 0.10267846874999975
                },
                {
                    "name": "D3",
                    "midi": 50,
                    "time": 6.642850499999994,
                    "velocity": 0.48031496062992124,
                    "duration": 0.10267846874999975
                },
                {
                    "name": "D2",
                    "midi": 38,
                    "time": 6.749993249999994,
                    "velocity": 0.48031496062992124,
                    "duration": 0.10267846874999975
                },
                {
                    "name": "D3",
                    "midi": 50,
                    "time": 6.749993249999994,
                    "velocity": 0.48031496062992124,
                    "duration": 0.10267846874999975
                },
                {
                    "name": "C3",
                    "midi": 48,
                    "time": 6.8571359999999935,
                    "velocity": 0.48031496062992124,
                    "duration": 0.10267846874999975
                },
                {
                    "name": "E3",
                    "midi": 52,
                    "time": 6.8571359999999935,
                    "velocity": 0.48031496062992124,
                    "duration": 0.10267846874999975
                },
                {
                    "name": "D3",
                    "midi": 50,
                    "time": 6.964278749999993,
                    "velocity": 0.48031496062992124,
                    "duration": 0.10267846874999975
                },
                {
                    "name": "D2",
                    "midi": 38,
                    "time": 6.964278749999993,
                    "velocity": 0.48031496062992124,
                    "duration": 0.10267846874999975
                },
                {
                    "name": "E3",
                    "midi": 52,
                    "time": 7.0714214999999925,
                    "velocity": 0.48031496062992124,
                    "duration": 0.10267846874999975
                },
                {
                    "name": "C3",
                    "midi": 48,
                    "time": 7.0714214999999925,
                    "velocity": 0.48031496062992124,
                    "duration": 0.10267846874999975
                },
                {
                    "name": "D3",
                    "midi": 50,
                    "time": 7.178564249999992,
                    "velocity": 0.48031496062992124,
                    "duration": 0.10267846874999975
                },
                {
                    "name": "D2",
                    "midi": 38,
                    "time": 7.178564249999992,
                    "velocity": 0.48031496062992124,
                    "duration": 0.10267846874999975
                },
                {
                    "name": "E3",
                    "midi": 52,
                    "time": 7.2857069999999915,
                    "velocity": 0.48031496062992124,
                    "duration": 0.10267846874999975
                },
                {
                    "name": "C3",
                    "midi": 48,
                    "time": 7.2857069999999915,
                    "velocity": 0.48031496062992124,
                    "duration": 0.10267846874999975
                },
                {
                    "name": "D3",
                    "midi": 50,
                    "time": 7.392849749999991,
                    "velocity": 0.48031496062992124,
                    "duration": 0.10267846874999975
                },
                {
                    "name": "D2",
                    "midi": 38,
                    "time": 7.392849749999991,
                    "velocity": 0.48031496062992124,
                    "duration": 0.10267846874999975
                },
                {
                    "name": "C3",
                    "midi": 48,
                    "time": 7.4999924999999905,
                    "velocity": 0.48031496062992124,
                    "duration": 0.10267846874999975
                },
                {
                    "name": "E3",
                    "midi": 52,
                    "time": 7.4999924999999905,
                    "velocity": 0.48031496062992124,
                    "duration": 0.10267846874999975
                },
                {
                    "name": "D3",
                    "midi": 50,
                    "time": 7.60713524999999,
                    "velocity": 0.48031496062992124,
                    "duration": 0.10267846874999975
                },
                {
                    "name": "D2",
                    "midi": 38,
                    "time": 7.60713524999999,
                    "velocity": 0.48031496062992124,
                    "duration": 0.10267846874999975
                },
                {
                    "name": "G3",
                    "midi": 55,
                    "time": 7.7142779999999895,
                    "velocity": 0.48031496062992124,
                    "duration": 0.10267846874999975
                },
                {
                    "name": "E3",
                    "midi": 52,
                    "time": 7.7142779999999895,
                    "velocity": 0.48031496062992124,
                    "duration": 0.10267846874999975
                },
                {
                    "name": "C3",
                    "midi": 48,
                    "time": 7.7142779999999895,
                    "velocity": 0.48031496062992124,
                    "duration": 0.10267846874999975
                },
                {
                    "name": "D2",
                    "midi": 38,
                    "time": 7.821420749999989,
                    "velocity": 0.48031496062992124,
                    "duration": 0.10267846874999975
                },
                {
                    "name": "D3",
                    "midi": 50,
                    "time": 7.821420749999989,
                    "velocity": 0.48031496062992124,
                    "duration": 0.10267846874999975
                },
                {
                    "name": "E3",
                    "midi": 52,
                    "time": 7.9285634999999886,
                    "velocity": 0.48031496062992124,
                    "duration": 0.10267846874999975
                },
                {
                    "name": "G3",
                    "midi": 55,
                    "time": 7.9285634999999886,
                    "velocity": 0.48031496062992124,
                    "duration": 0.10267846874999975
                },
                {
                    "name": "C3",
                    "midi": 48,
                    "time": 7.9285634999999886,
                    "velocity": 0.48031496062992124,
                    "duration": 0.10267846874999975
                },
                {
                    "name": "D2",
                    "midi": 38,
                    "time": 8.035706249999988,
                    "velocity": 0.48031496062992124,
                    "duration": 0.10267846874999975
                },
                {
                    "name": "D3",
                    "midi": 50,
                    "time": 8.035706249999988,
                    "velocity": 0.48031496062992124,
                    "duration": 0.10267846874999975
                },
                {
                    "name": "G3",
                    "midi": 55,
                    "time": 8.142848999999988,
                    "velocity": 0.48031496062992124,
                    "duration": 0.10267846874999975
                },
                {
                    "name": "E3",
                    "midi": 52,
                    "time": 8.142848999999988,
                    "velocity": 0.48031496062992124,
                    "duration": 0.10267846874999975
                },
                {
                    "name": "C3",
                    "midi": 48,
                    "time": 8.142848999999988,
                    "velocity": 0.48031496062992124,
                    "duration": 0.10267846874999975
                },
                {
                    "name": "D3",
                    "midi": 50,
                    "time": 8.249991749999987,
                    "velocity": 0.48031496062992124,
                    "duration": 0.10267846874999975
                },
                {
                    "name": "D2",
                    "midi": 38,
                    "time": 8.249991749999987,
                    "velocity": 0.48031496062992124,
                    "duration": 0.10267846874999975
                },
                {
                    "name": "D3",
                    "midi": 50,
                    "time": 8.357134499999987,
                    "velocity": 0.48031496062992124,
                    "duration": 0.10267846874999975
                },
                {
                    "name": "F3",
                    "midi": 53,
                    "time": 8.357134499999987,
                    "velocity": 0.48031496062992124,
                    "duration": 0.10267846874999975
                },
                {
                    "name": "D2",
                    "midi": 38,
                    "time": 8.464277249999986,
                    "velocity": 0.48031496062992124,
                    "duration": 0.10267846874999975
                },
                {
                    "name": "E3",
                    "midi": 52,
                    "time": 8.464277249999986,
                    "velocity": 0.48031496062992124,
                    "duration": 0.10267846874999975
                },
                {
                    "name": "D3",
                    "midi": 50,
                    "time": 8.464277249999986,
                    "velocity": 0.48031496062992124,
                    "duration": 0.10267846874999975
                },
                {
                    "name": "D3",
                    "midi": 50,
                    "time": 8.571419999999986,
                    "velocity": 0.48031496062992124,
                    "duration": 0.10267846874999975
                },
                {
                    "name": "D2",
                    "midi": 38,
                    "time": 8.678562749999985,
                    "velocity": 0.48031496062992124,
                    "duration": 0.10267846874999975
                },
                {
                    "name": "D3",
                    "midi": 50,
                    "time": 8.678562749999985,
                    "velocity": 0.48031496062992124,
                    "duration": 0.10267846874999975
                },
                {
                    "name": "D3",
                    "midi": 50,
                    "time": 8.785705499999985,
                    "velocity": 0.48031496062992124,
                    "duration": 0.10267846874999975
                },
                {
                    "name": "D2",
                    "midi": 38,
                    "time": 8.892848249999984,
                    "velocity": 0.48031496062992124,
                    "duration": 0.10267846874999975
                },
                {
                    "name": "D3",
                    "midi": 50,
                    "time": 8.892848249999984,
                    "velocity": 0.48031496062992124,
                    "duration": 0.10267846874999975
                },
                {
                    "name": "D3",
                    "midi": 50,
                    "time": 8.999990999999984,
                    "velocity": 0.48031496062992124,
                    "duration": 0.10267846874999975
                },
                {
                    "name": "D2",
                    "midi": 38,
                    "time": 9.107133749999983,
                    "velocity": 0.48031496062992124,
                    "duration": 0.10267846874999975
                },
                {
                    "name": "D3",
                    "midi": 50,
                    "time": 9.107133749999983,
                    "velocity": 0.48031496062992124,
                    "duration": 0.10267846874999975
                },
                {
                    "name": "D3",
                    "midi": 50,
                    "time": 9.214276499999983,
                    "velocity": 0.48031496062992124,
                    "duration": 0.10267846874999975
                },
                {
                    "name": "D2",
                    "midi": 38,
                    "time": 9.321419249999982,
                    "velocity": 0.48031496062992124,
                    "duration": 0.10267846874999975
                },
                {
                    "name": "D3",
                    "midi": 50,
                    "time": 9.321419249999982,
                    "velocity": 0.48031496062992124,
                    "duration": 0.10267846874999975
                },
                {
                    "name": "D3",
                    "midi": 50,
                    "time": 9.428561999999982,
                    "velocity": 0.48031496062992124,
                    "duration": 0.10267846874999975
                },
                {
                    "name": "D3",
                    "midi": 50,
                    "time": 9.535704749999981,
                    "velocity": 0.48031496062992124,
                    "duration": 0.10267846874999975
                },
                {
                    "name": "D2",
                    "midi": 38,
                    "time": 9.535704749999981,
                    "velocity": 0.48031496062992124,
                    "duration": 0.10267846874999975
                },
                {
                    "name": "D3",
                    "midi": 50,
                    "time": 9.64284749999998,
                    "velocity": 0.48031496062992124,
                    "duration": 0.10267846874999975
                },
                {
                    "name": "D3",
                    "midi": 50,
                    "time": 9.74999024999998,
                    "velocity": 0.48031496062992124,
                    "duration": 0.10267846874999975
                },
                {
                    "name": "D2",
                    "midi": 38,
                    "time": 9.74999024999998,
                    "velocity": 0.48031496062992124,
                    "duration": 0.10267846874999975
                },
                {
                    "name": "D3",
                    "midi": 50,
                    "time": 9.85713299999998,
                    "velocity": 0.48031496062992124,
                    "duration": 0.10267846874999975
                },
                {
                    "name": "D2",
                    "midi": 38,
                    "time": 9.96427574999998,
                    "velocity": 0.48031496062992124,
                    "duration": 0.10267846874999975
                },
                {
                    "name": "D3",
                    "midi": 50,
                    "time": 9.96427574999998,
                    "velocity": 0.48031496062992124,
                    "duration": 0.10267846874999975
                },
                {
                    "name": "D#4",
                    "midi": 63,
                    "time": 10.071418499999979,
                    "velocity": 0.48031496062992124,
                    "duration": 0.10267846874999975
                },
                {
                    "name": "D3",
                    "midi": 50,
                    "time": 10.178561249999978,
                    "velocity": 0.48031496062992124,
                    "duration": 0.10267846874999975
                },
                {
                    "name": "D2",
                    "midi": 38,
                    "time": 10.178561249999978,
                    "velocity": 0.48031496062992124,
                    "duration": 0.10267846874999975
                },
                {
                    "name": "D#2",
                    "midi": 39,
                    "time": 10.285703999999978,
                    "velocity": 0.48031496062992124,
                    "duration": 0.10267846874999975
                },
                {
                    "name": "D2",
                    "midi": 38,
                    "time": 10.392846749999977,
                    "velocity": 0.48031496062992124,
                    "duration": 0.10267846874999975
                },
                {
                    "name": "D#3",
                    "midi": 51,
                    "time": 10.392846749999977,
                    "velocity": 0.48031496062992124,
                    "duration": 0.10267846874999975
                },
                {
                    "name": "D3",
                    "midi": 50,
                    "time": 10.499989499999977,
                    "velocity": 0.48031496062992124,
                    "duration": 0.10267846874999975
                },
                {
                    "name": "D2",
                    "midi": 38,
                    "time": 10.607132249999976,
                    "velocity": 0.48031496062992124,
                    "duration": 0.10267846874999975
                },
                {
                    "name": "E3",
                    "midi": 52,
                    "time": 10.607132249999976,
                    "velocity": 0.48031496062992124,
                    "duration": 0.10267846874999975
                },
                {
                    "name": "D3",
                    "midi": 50,
                    "time": 10.714274999999976,
                    "velocity": 0.48031496062992124,
                    "duration": 0.10267846874999975
                },
                {
                    "name": "E3",
                    "midi": 52,
                    "time": 10.821417749999975,
                    "velocity": 0.48031496062992124,
                    "duration": 0.10267846874999975
                },
                {
                    "name": "D2",
                    "midi": 38,
                    "time": 10.821417749999975,
                    "velocity": 0.48031496062992124,
                    "duration": 0.10267846874999975
                },
                {
                    "name": "D3",
                    "midi": 50,
                    "time": 10.928560499999975,
                    "velocity": 0.48031496062992124,
                    "duration": 0.10267846874999975
                },
                {
                    "name": "E3",
                    "midi": 52,
                    "time": 11.035703249999974,
                    "velocity": 0.48031496062992124,
                    "duration": 0.10267846874999975
                },
                {
                    "name": "D2",
                    "midi": 38,
                    "time": 11.035703249999974,
                    "velocity": 0.48031496062992124,
                    "duration": 0.10267846874999975
                },
                {
                    "name": "F#3",
                    "midi": 54,
                    "time": 11.142845999999974,
                    "velocity": 0.48031496062992124,
                    "duration": 0.10267846874999975
                },
                {
                    "name": "C3",
                    "midi": 48,
                    "time": 11.142845999999974,
                    "velocity": 0.48031496062992124,
                    "duration": 0.10267846874999975
                },
                {
                    "name": "D#3",
                    "midi": 51,
                    "time": 11.142845999999974,
                    "velocity": 0.48031496062992124,
                    "duration": 0.10267846874999975
                },
                {
                    "name": "D3",
                    "midi": 50,
                    "time": 11.249988749999973,
                    "velocity": 0.48031496062992124,
                    "duration": 0.10267846874999975
                },
                {
                    "name": "D2",
                    "midi": 38,
                    "time": 11.249988749999973,
                    "velocity": 0.48031496062992124,
                    "duration": 0.10267846874999975
                },
                {
                    "name": "D3",
                    "midi": 50,
                    "time": 11.357131499999973,
                    "velocity": 0.48031496062992124,
                    "duration": 0.10267846874999975
                },
                {
                    "name": "D3",
                    "midi": 50,
                    "time": 11.464274249999972,
                    "velocity": 0.48031496062992124,
                    "duration": 0.10267846874999975
                },
                {
                    "name": "D2",
                    "midi": 38,
                    "time": 11.464274249999972,
                    "velocity": 0.48031496062992124,
                    "duration": 0.10267846874999975
                },
                {
                    "name": "D3",
                    "midi": 50,
                    "time": 11.571416999999972,
                    "velocity": 0.48031496062992124,
                    "duration": 0.10267846874999975
                },
                {
                    "name": "D2",
                    "midi": 38,
                    "time": 11.678559749999971,
                    "velocity": 0.48031496062992124,
                    "duration": 0.10267846874999975
                },
                {
                    "name": "D3",
                    "midi": 50,
                    "time": 11.678559749999971,
                    "velocity": 0.48031496062992124,
                    "duration": 0.10267846874999975
                },
                {
                    "name": "D3",
                    "midi": 50,
                    "time": 11.78570249999997,
                    "velocity": 0.48031496062992124,
                    "duration": 0.10267846874999975
                },
                {
                    "name": "D2",
                    "midi": 38,
                    "time": 11.89284524999997,
                    "velocity": 0.48031496062992124,
                    "duration": 0.10267846874999975
                },
                {
                    "name": "D3",
                    "midi": 50,
                    "time": 11.89284524999997,
                    "velocity": 0.48031496062992124,
                    "duration": 0.10267846874999975
                },
                {
                    "name": "D2",
                    "midi": 38,
                    "time": 11.99998799999997,
                    "velocity": 0.48031496062992124,
                    "duration": 0.10267846874999975
                },
                {
                    "name": "D2",
                    "midi": 38,
                    "time": 12.10713074999997,
                    "velocity": 0.48031496062992124,
                    "duration": 0.10267846874999975
                },
                {
                    "name": "D3",
                    "midi": 50,
                    "time": 12.10713074999997,
                    "velocity": 0.48031496062992124,
                    "duration": 0.10267846874999975
                },
                {
                    "name": "D2",
                    "midi": 38,
                    "time": 12.214273499999969,
                    "velocity": 0.48031496062992124,
                    "duration": 0.10267846874999975
                },
                {
                    "name": "D2",
                    "midi": 38,
                    "time": 12.321416249999968,
                    "velocity": 0.48031496062992124,
                    "duration": 0.10267846874999975
                },
                {
                    "name": "D3",
                    "midi": 50,
                    "time": 12.321416249999968,
                    "velocity": 0.48031496062992124,
                    "duration": 0.10267846874999975
                },
                {
                    "name": "D2",
                    "midi": 38,
                    "time": 12.428558999999968,
                    "velocity": 0.48031496062992124,
                    "duration": 0.10267846874999975
                },
                {
                    "name": "D3",
                    "midi": 50,
                    "time": 12.535701749999967,
                    "velocity": 0.48031496062992124,
                    "duration": 0.10267846874999975
                },
                {
                    "name": "D2",
                    "midi": 38,
                    "time": 12.535701749999967,
                    "velocity": 0.48031496062992124,
                    "duration": 0.10267846874999975
                },
                {
                    "name": "D2",
                    "midi": 38,
                    "time": 12.642844499999967,
                    "velocity": 0.48031496062992124,
                    "duration": 0.10267846874999975
                },
                {
                    "name": "D3",
                    "midi": 50,
                    "time": 12.749987249999966,
                    "velocity": 0.48031496062992124,
                    "duration": 0.10267846874999975
                },
                {
                    "name": "D2",
                    "midi": 38,
                    "time": 12.749987249999966,
                    "velocity": 0.48031496062992124,
                    "duration": 0.10267846874999975
                },
                {
                    "name": "D3",
                    "midi": 50,
                    "time": 12.857129999999966,
                    "velocity": 0.48031496062992124,
                    "duration": 0.10267846874999975
                },
                {
                    "name": "D2",
                    "midi": 38,
                    "time": 12.964272749999965,
                    "velocity": 0.48031496062992124,
                    "duration": 0.10267846874999975
                },
                {
                    "name": "D3",
                    "midi": 50,
                    "time": 12.964272749999965,
                    "velocity": 0.48031496062992124,
                    "duration": 0.10267846874999975
                },
                {
                    "name": "D3",
                    "midi": 50,
                    "time": 13.071415499999965,
                    "velocity": 0.48031496062992124,
                    "duration": 0.10267846874999975
                },
                {
                    "name": "D2",
                    "midi": 38,
                    "time": 13.178558249999965,
                    "velocity": 0.48031496062992124,
                    "duration": 0.10267846874999975
                },
                {
                    "name": "D3",
                    "midi": 50,
                    "time": 13.178558249999965,
                    "velocity": 0.48031496062992124,
                    "duration": 0.10267846874999975
                },
                {
                    "name": "D3",
                    "midi": 50,
                    "time": 13.285700999999964,
                    "velocity": 0.48031496062992124,
                    "duration": 0.10267846874999975
                },
                {
                    "name": "D2",
                    "midi": 38,
                    "time": 13.392843749999964,
                    "velocity": 0.48031496062992124,
                    "duration": 0.10267846874999975
                },
                {
                    "name": "D3",
                    "midi": 50,
                    "time": 13.392843749999964,
                    "velocity": 0.48031496062992124,
                    "duration": 0.10267846874999975
                },
                {
                    "name": "D#3",
                    "midi": 51,
                    "time": 13.499986499999963,
                    "velocity": 0.48031496062992124,
                    "duration": 0.10267846874999975
                },
                {
                    "name": "C3",
                    "midi": 48,
                    "time": 13.499986499999963,
                    "velocity": 0.48031496062992124,
                    "duration": 0.10267846874999975
                },
                {
                    "name": "D2",
                    "midi": 38,
                    "time": 13.607129249999963,
                    "velocity": 0.48031496062992124,
                    "duration": 0.10267846874999975
                },
                {
                    "name": "D3",
                    "midi": 50,
                    "time": 13.607129249999963,
                    "velocity": 0.48031496062992124,
                    "duration": 0.10267846874999975
                },
                {
                    "name": "C3",
                    "midi": 48,
                    "time": 13.714271999999962,
                    "velocity": 0.48031496062992124,
                    "duration": 0.10267846874999975
                },
                {
                    "name": "E3",
                    "midi": 52,
                    "time": 13.714271999999962,
                    "velocity": 0.48031496062992124,
                    "duration": 0.10267846874999975
                },
                {
                    "name": "D2",
                    "midi": 38,
                    "time": 13.821414749999962,
                    "velocity": 0.48031496062992124,
                    "duration": 0.10267846874999975
                },
                {
                    "name": "D3",
                    "midi": 50,
                    "time": 13.821414749999962,
                    "velocity": 0.48031496062992124,
                    "duration": 0.10267846874999975
                },
                {
                    "name": "C3",
                    "midi": 48,
                    "time": 13.928557499999961,
                    "velocity": 0.48031496062992124,
                    "duration": 0.10267846874999975
                },
                {
                    "name": "E3",
                    "midi": 52,
                    "time": 13.928557499999961,
                    "velocity": 0.48031496062992124,
                    "duration": 0.10267846874999975
                },
                {
                    "name": "D3",
                    "midi": 50,
                    "time": 14.03570024999996,
                    "velocity": 0.48031496062992124,
                    "duration": 0.10267846874999975
                },
                {
                    "name": "D2",
                    "midi": 38,
                    "time": 14.03570024999996,
                    "velocity": 0.48031496062992124,
                    "duration": 0.10267846874999975
                },
                {
                    "name": "C3",
                    "midi": 48,
                    "time": 14.14284299999996,
                    "velocity": 0.48031496062992124,
                    "duration": 0.10267846874999975
                },
                {
                    "name": "E3",
                    "midi": 52,
                    "time": 14.14284299999996,
                    "velocity": 0.48031496062992124,
                    "duration": 0.10267846874999975
                },
                {
                    "name": "D3",
                    "midi": 50,
                    "time": 14.24998574999996,
                    "velocity": 0.48031496062992124,
                    "duration": 0.10267846874999975
                },
                {
                    "name": "D2",
                    "midi": 38,
                    "time": 14.24998574999996,
                    "velocity": 0.48031496062992124,
                    "duration": 0.10267846874999975
                },
                {
                    "name": "E3",
                    "midi": 52,
                    "time": 14.357128499999959,
                    "velocity": 0.48031496062992124,
                    "duration": 0.10267846874999975
                },
                {
                    "name": "C3",
                    "midi": 48,
                    "time": 14.357128499999959,
                    "velocity": 0.48031496062992124,
                    "duration": 0.10267846874999975
                },
                {
                    "name": "D2",
                    "midi": 38,
                    "time": 14.464271249999959,
                    "velocity": 0.48031496062992124,
                    "duration": 0.10267846874999975
                },
                {
                    "name": "D3",
                    "midi": 50,
                    "time": 14.464271249999959,
                    "velocity": 0.48031496062992124,
                    "duration": 0.10267846874999975
                },
                {
                    "name": "E3",
                    "midi": 52,
                    "time": 14.571413999999958,
                    "velocity": 0.48031496062992124,
                    "duration": 0.10267846874999975
                },
                {
                    "name": "C3",
                    "midi": 48,
                    "time": 14.571413999999958,
                    "velocity": 0.48031496062992124,
                    "duration": 0.10267846874999975
                },
                {
                    "name": "D2",
                    "midi": 38,
                    "time": 14.678556749999958,
                    "velocity": 0.48031496062992124,
                    "duration": 0.10267846874999975
                },
                {
                    "name": "D3",
                    "midi": 50,
                    "time": 14.678556749999958,
                    "velocity": 0.48031496062992124,
                    "duration": 0.10267846874999975
                },
                {
                    "name": "C3",
                    "midi": 48,
                    "time": 14.785699499999957,
                    "velocity": 0.48031496062992124,
                    "duration": 0.10267846874999975
                },
                {
                    "name": "E3",
                    "midi": 52,
                    "time": 14.785699499999957,
                    "velocity": 0.48031496062992124,
                    "duration": 0.10267846874999975
                },
                {
                    "name": "D3",
                    "midi": 50,
                    "time": 14.892842249999957,
                    "velocity": 0.48031496062992124,
                    "duration": 0.10267846874999975
                },
                {
                    "name": "D2",
                    "midi": 38,
                    "time": 14.892842249999957,
                    "velocity": 0.48031496062992124,
                    "duration": 0.10267846874999975
                },
                {
                    "name": "C3",
                    "midi": 48,
                    "time": 14.999984999999956,
                    "velocity": 0.48031496062992124,
                    "duration": 0.10267846874999975
                },
                {
                    "name": "E3",
                    "midi": 52,
                    "time": 14.999984999999956,
                    "velocity": 0.48031496062992124,
                    "duration": 0.10267846874999975
                },
                {
                    "name": "D3",
                    "midi": 50,
                    "time": 15.107127749999956,
                    "velocity": 0.48031496062992124,
                    "duration": 0.10267846874999975
                },
                {
                    "name": "E3",
                    "midi": 52,
                    "time": 15.214270499999955,
                    "velocity": 0.48031496062992124,
                    "duration": 0.10267846874999975
                },
                {
                    "name": "C3",
                    "midi": 48,
                    "time": 15.214270499999955,
                    "velocity": 0.48031496062992124,
                    "duration": 0.10267846874999975
                },
                {
                    "name": "D2",
                    "midi": 38,
                    "time": 15.214270499999955,
                    "velocity": 0.48031496062992124,
                    "duration": 0.10267846874999975
                },
                {
                    "name": "D3",
                    "midi": 50,
                    "time": 15.321413249999955,
                    "velocity": 0.48031496062992124,
                    "duration": 0.10267846874999975
                },
                {
                    "name": "C3",
                    "midi": 48,
                    "time": 15.428555999999954,
                    "velocity": 0.48031496062992124,
                    "duration": 0.10267846874999975
                },
                {
                    "name": "G3",
                    "midi": 55,
                    "time": 15.428555999999954,
                    "velocity": 0.48031496062992124,
                    "duration": 0.10267846874999975
                },
                {
                    "name": "E3",
                    "midi": 52,
                    "time": 15.428555999999954,
                    "velocity": 0.48031496062992124,
                    "duration": 0.10267846874999975
                },
                {
                    "name": "D3",
                    "midi": 50,
                    "time": 15.535698749999954,
                    "velocity": 0.48031496062992124,
                    "duration": 0.10267846874999975
                },
                {
                    "name": "D2",
                    "midi": 38,
                    "time": 15.535698749999954,
                    "velocity": 0.48031496062992124,
                    "duration": 0.10267846874999975
                },
                {
                    "name": "E3",
                    "midi": 52,
                    "time": 15.642841499999953,
                    "velocity": 0.48031496062992124,
                    "duration": 0.10267846874999975
                },
                {
                    "name": "G3",
                    "midi": 55,
                    "time": 15.642841499999953,
                    "velocity": 0.48031496062992124,
                    "duration": 0.10267846874999975
                },
                {
                    "name": "C3",
                    "midi": 48,
                    "time": 15.642841499999953,
                    "velocity": 0.48031496062992124,
                    "duration": 0.10267846874999975
                },
                {
                    "name": "D3",
                    "midi": 50,
                    "time": 15.749984249999953,
                    "velocity": 0.48031496062992124,
                    "duration": 0.10267846874999975
                },
                {
                    "name": "D2",
                    "midi": 38,
                    "time": 15.749984249999953,
                    "velocity": 0.48031496062992124,
                    "duration": 0.10267846874999975
                },
                {
                    "name": "E3",
                    "midi": 52,
                    "time": 15.857126999999952,
                    "velocity": 0.48031496062992124,
                    "duration": 0.10267846874999975
                },
                {
                    "name": "G3",
                    "midi": 55,
                    "time": 15.857126999999952,
                    "velocity": 0.48031496062992124,
                    "duration": 0.10267846874999975
                },
                {
                    "name": "C3",
                    "midi": 48,
                    "time": 15.857126999999952,
                    "velocity": 0.48031496062992124,
                    "duration": 0.10267846874999975
                },
                {
                    "name": "D2",
                    "midi": 38,
                    "time": 15.964269749999952,
                    "velocity": 0.48031496062992124,
                    "duration": 0.10267846875000153
                },
                {
                    "name": "D3",
                    "midi": 50,
                    "time": 15.964269749999952,
                    "velocity": 0.48031496062992124,
                    "duration": 0.10267846875000153
                },
                {
                    "name": "G3",
                    "midi": 55,
                    "time": 16.071412499999955,
                    "velocity": 0.48031496062992124,
                    "duration": 0.10267846874999975
                },
                {
                    "name": "E3",
                    "midi": 52,
                    "time": 16.071412499999955,
                    "velocity": 0.48031496062992124,
                    "duration": 0.10267846874999975
                },
                {
                    "name": "C3",
                    "midi": 48,
                    "time": 16.071412499999955,
                    "velocity": 0.48031496062992124,
                    "duration": 0.10267846874999975
                },
                {
                    "name": "D3",
                    "midi": 50,
                    "time": 16.178555249999956,
                    "velocity": 0.48031496062992124,
                    "duration": 0.10267846874999975
                },
                {
                    "name": "D2",
                    "midi": 38,
                    "time": 16.178555249999956,
                    "velocity": 0.48031496062992124,
                    "duration": 0.10267846874999975
                },
                {
                    "name": "G3",
                    "midi": 55,
                    "time": 16.285697999999957,
                    "velocity": 0.48031496062992124,
                    "duration": 0.10267846874999975
                },
                {
                    "name": "E3",
                    "midi": 52,
                    "time": 16.285697999999957,
                    "velocity": 0.48031496062992124,
                    "duration": 0.10267846874999975
                },
                {
                    "name": "C3",
                    "midi": 48,
                    "time": 16.285697999999957,
                    "velocity": 0.48031496062992124,
                    "duration": 0.10267846874999975
                },
                {
                    "name": "D3",
                    "midi": 50,
                    "time": 16.39284074999996,
                    "velocity": 0.48031496062992124,
                    "duration": 0.10267846874999975
                },
                {
                    "name": "D2",
                    "midi": 38,
                    "time": 16.39284074999996,
                    "velocity": 0.48031496062992124,
                    "duration": 0.10267846874999975
                },
                {
                    "name": "G3",
                    "midi": 55,
                    "time": 16.49998349999996,
                    "velocity": 0.48031496062992124,
                    "duration": 0.10267846874999975
                },
                {
                    "name": "E3",
                    "midi": 52,
                    "time": 16.49998349999996,
                    "velocity": 0.48031496062992124,
                    "duration": 0.10267846874999975
                },
                {
                    "name": "C3",
                    "midi": 48,
                    "time": 16.49998349999996,
                    "velocity": 0.48031496062992124,
                    "duration": 0.10267846874999975
                },
                {
                    "name": "D2",
                    "midi": 38,
                    "time": 16.60712624999996,
                    "velocity": 0.48031496062992124,
                    "duration": 0.10267846874999975
                },
                {
                    "name": "D3",
                    "midi": 50,
                    "time": 16.60712624999996,
                    "velocity": 0.48031496062992124,
                    "duration": 0.10267846874999975
                },
                {
                    "name": "G3",
                    "midi": 55,
                    "time": 16.714268999999963,
                    "velocity": 0.48031496062992124,
                    "duration": 0.10267846874999975
                },
                {
                    "name": "E3",
                    "midi": 52,
                    "time": 16.714268999999963,
                    "velocity": 0.48031496062992124,
                    "duration": 0.10267846874999975
                },
                {
                    "name": "C3",
                    "midi": 48,
                    "time": 16.714268999999963,
                    "velocity": 0.48031496062992124,
                    "duration": 0.10267846874999975
                },
                {
                    "name": "D3",
                    "midi": 50,
                    "time": 16.821411749999964,
                    "velocity": 0.48031496062992124,
                    "duration": 0.10267846874999975
                },
                {
                    "name": "D2",
                    "midi": 38,
                    "time": 16.821411749999964,
                    "velocity": 0.48031496062992124,
                    "duration": 0.10267846874999975
                },
                {
                    "name": "D3",
                    "midi": 50,
                    "time": 16.928554499999965,
                    "velocity": 0.48031496062992124,
                    "duration": 0.10267846874999975
                },
                {
                    "name": "F3",
                    "midi": 53,
                    "time": 16.928554499999965,
                    "velocity": 0.48031496062992124,
                    "duration": 0.10267846874999975
                },
                {
                    "name": "D3",
                    "midi": 50,
                    "time": 17.035697249999966,
                    "velocity": 0.48031496062992124,
                    "duration": 0.10267846874999975
                },
                {
                    "name": "E3",
                    "midi": 52,
                    "time": 17.035697249999966,
                    "velocity": 0.48031496062992124,
                    "duration": 0.10267846874999975
                },
                {
                    "name": "D2",
                    "midi": 38,
                    "time": 17.035697249999966,
                    "velocity": 0.48031496062992124,
                    "duration": 0.10267846874999975
                },
                {
                    "name": "D3",
                    "midi": 50,
                    "time": 17.142839999999968,
                    "velocity": 0.48031496062992124,
                    "duration": 0.10267846874999975
                },
                {
                    "name": "D2",
                    "midi": 38,
                    "time": 17.24998274999997,
                    "velocity": 0.48031496062992124,
                    "duration": 0.10267846874999975
                },
                {
                    "name": "D3",
                    "midi": 50,
                    "time": 17.24998274999997,
                    "velocity": 0.48031496062992124,
                    "duration": 0.10267846874999975
                },
                {
                    "name": "D3",
                    "midi": 50,
                    "time": 17.35712549999997,
                    "velocity": 0.48031496062992124,
                    "duration": 0.10267846874999975
                },
                {
                    "name": "D2",
                    "midi": 38,
                    "time": 17.46426824999997,
                    "velocity": 0.48031496062992124,
                    "duration": 0.10267846874999975
                },
                {
                    "name": "D3",
                    "midi": 50,
                    "time": 17.46426824999997,
                    "velocity": 0.48031496062992124,
                    "duration": 0.10267846874999975
                },
                {
                    "name": "D3",
                    "midi": 50,
                    "time": 17.571410999999973,
                    "velocity": 0.48031496062992124,
                    "duration": 0.10267846874999975
                },
                {
                    "name": "D2",
                    "midi": 38,
                    "time": 17.678553749999974,
                    "velocity": 0.48031496062992124,
                    "duration": 0.10267846874999975
                },
                {
                    "name": "D3",
                    "midi": 50,
                    "time": 17.678553749999974,
                    "velocity": 0.48031496062992124,
                    "duration": 0.10267846874999975
                },
                {
                    "name": "D3",
                    "midi": 50,
                    "time": 17.785696499999975,
                    "velocity": 0.48031496062992124,
                    "duration": 0.10267846874999975
                },
                {
                    "name": "D2",
                    "midi": 38,
                    "time": 17.892839249999977,
                    "velocity": 0.48031496062992124,
                    "duration": 0.10267846874999975
                },
                {
                    "name": "D3",
                    "midi": 50,
                    "time": 17.892839249999977,
                    "velocity": 0.48031496062992124,
                    "duration": 0.10267846874999975
                },
                {
                    "name": "D3",
                    "midi": 50,
                    "time": 17.999981999999978,
                    "velocity": 0.48031496062992124,
                    "duration": 0.10267846874999975
                },
                {
                    "name": "D2",
                    "midi": 38,
                    "time": 18.10712474999998,
                    "velocity": 0.48031496062992124,
                    "duration": 0.10267846874999975
                },
                {
                    "name": "D3",
                    "midi": 50,
                    "time": 18.10712474999998,
                    "velocity": 0.48031496062992124,
                    "duration": 0.10267846874999975
                },
                {
                    "name": "D3",
                    "midi": 50,
                    "time": 18.21426749999998,
                    "velocity": 0.48031496062992124,
                    "duration": 0.10267846874999975
                },
                {
                    "name": "D2",
                    "midi": 38,
                    "time": 18.321410249999982,
                    "velocity": 0.48031496062992124,
                    "duration": 0.10267846874999975
                },
                {
                    "name": "D3",
                    "midi": 50,
                    "time": 18.321410249999982,
                    "velocity": 0.48031496062992124,
                    "duration": 0.10267846874999975
                },
                {
                    "name": "D3",
                    "midi": 50,
                    "time": 18.428552999999983,
                    "velocity": 0.48031496062992124,
                    "duration": 0.10267846874999975
                },
                {
                    "name": "D2",
                    "midi": 38,
                    "time": 18.535695749999984,
                    "velocity": 0.48031496062992124,
                    "duration": 0.10267846874999975
                },
                {
                    "name": "D3",
                    "midi": 50,
                    "time": 18.535695749999984,
                    "velocity": 0.48031496062992124,
                    "duration": 0.10267846874999975
                },
                {
                    "name": "D3",
                    "midi": 50,
                    "time": 18.642838499999986,
                    "velocity": 0.48031496062992124,
                    "duration": 0.10267846874999975
                },
                {
                    "name": "D2",
                    "midi": 38,
                    "time": 18.749981249999987,
                    "velocity": 0.48031496062992124,
                    "duration": 0.10267846874999975
                },
                {
                    "name": "D3",
                    "midi": 50,
                    "time": 18.749981249999987,
                    "velocity": 0.48031496062992124,
                    "duration": 0.10267846874999975
                },
                {
                    "name": "D3",
                    "midi": 50,
                    "time": 18.85712399999999,
                    "velocity": 0.48031496062992124,
                    "duration": 0.10267846874999975
                },
                {
                    "name": "D2",
                    "midi": 38,
                    "time": 18.96426674999999,
                    "velocity": 0.48031496062992124,
                    "duration": 0.10267846874999975
                },
                {
                    "name": "D3",
                    "midi": 50,
                    "time": 18.96426674999999,
                    "velocity": 0.48031496062992124,
                    "duration": 0.10267846874999975
                },
                {
                    "name": "D3",
                    "midi": 50,
                    "time": 19.07140949999999,
                    "velocity": 0.48031496062992124,
                    "duration": 0.10267846874999975
                },
                {
                    "name": "D3",
                    "midi": 50,
                    "time": 19.178552249999992,
                    "velocity": 0.48031496062992124,
                    "duration": 0.10267846874999975
                },
                {
                    "name": "D2",
                    "midi": 38,
                    "time": 19.178552249999992,
                    "velocity": 0.48031496062992124,
                    "duration": 0.10267846874999975
                },
                {
                    "name": "D3",
                    "midi": 50,
                    "time": 19.285694999999993,
                    "velocity": 0.48031496062992124,
                    "duration": 0.10267846874999975
                },
                {
                    "name": "D3",
                    "midi": 50,
                    "time": 19.392837749999995,
                    "velocity": 0.48031496062992124,
                    "duration": 0.10267846874999975
                },
                {
                    "name": "D2",
                    "midi": 38,
                    "time": 19.392837749999995,
                    "velocity": 0.48031496062992124,
                    "duration": 0.10267846874999975
                },
                {
                    "name": "D3",
                    "midi": 50,
                    "time": 19.499980499999996,
                    "velocity": 0.48031496062992124,
                    "duration": 0.10267846874999975
                },
                {
                    "name": "D3",
                    "midi": 50,
                    "time": 19.607123249999997,
                    "velocity": 0.48031496062992124,
                    "duration": 0.10267846874999975
                },
                {
                    "name": "D2",
                    "midi": 38,
                    "time": 19.607123249999997,
                    "velocity": 0.48031496062992124,
                    "duration": 0.10267846874999975
                },
                {
                    "name": "D3",
                    "midi": 50,
                    "time": 19.714266,
                    "velocity": 0.48031496062992124,
                    "duration": 0.10267846874999975
                },
                {
                    "name": "D2",
                    "midi": 38,
                    "time": 19.82140875,
                    "velocity": 0.48031496062992124,
                    "duration": 0.10267846874999975
                },
                {
                    "name": "D3",
                    "midi": 50,
                    "time": 19.82140875,
                    "velocity": 0.48031496062992124,
                    "duration": 0.10267846874999975
                },
                {
                    "name": "D3",
                    "midi": 50,
                    "time": 19.9285515,
                    "velocity": 0.48031496062992124,
                    "duration": 0.10267846874999975
                },
                {
                    "name": "D3",
                    "midi": 50,
                    "time": 20.035694250000002,
                    "velocity": 0.48031496062992124,
                    "duration": 0.10267846874999975
                },
                {
                    "name": "D2",
                    "midi": 38,
                    "time": 20.035694250000002,
                    "velocity": 0.48031496062992124,
                    "duration": 0.10267846874999975
                },
                {
                    "name": "D3",
                    "midi": 50,
                    "time": 20.142837000000004,
                    "velocity": 0.48031496062992124,
                    "duration": 0.10267846874999975
                },
                {
                    "name": "D3",
                    "midi": 50,
                    "time": 20.249979750000005,
                    "velocity": 0.48031496062992124,
                    "duration": 0.10267846874999975
                },
                {
                    "name": "D2",
                    "midi": 38,
                    "time": 20.249979750000005,
                    "velocity": 0.48031496062992124,
                    "duration": 0.10267846874999975
                },
                {
                    "name": "D3",
                    "midi": 50,
                    "time": 20.357122500000006,
                    "velocity": 0.48031496062992124,
                    "duration": 0.10267846874999975
                },
                {
                    "name": "F3",
                    "midi": 53,
                    "time": 20.464265250000008,
                    "velocity": 0.48031496062992124,
                    "duration": 0.10267846874999975
                },
                {
                    "name": "A3",
                    "midi": 57,
                    "time": 20.57140800000001,
                    "velocity": 0.48031496062992124,
                    "duration": 0.10267846874999975
                },
                {
                    "name": "A3",
                    "midi": 57,
                    "time": 20.67855075000001,
                    "velocity": 0.48031496062992124,
                    "duration": 0.10267846874999975
                },
                {
                    "name": "F3",
                    "midi": 53,
                    "time": 20.78569350000001,
                    "velocity": 0.48031496062992124,
                    "duration": 0.10267846874999975
                },
                {
                    "name": "A3",
                    "midi": 57,
                    "time": 20.892836250000013,
                    "velocity": 0.48031496062992124,
                    "duration": 0.10267846874999975
                },
                {
                    "name": "D3",
                    "midi": 50,
                    "time": 20.999979000000014,
                    "velocity": 0.48031496062992124,
                    "duration": 0.10267846874999975
                },
                {
                    "name": "D3",
                    "midi": 50,
                    "time": 21.107121750000015,
                    "velocity": 0.48031496062992124,
                    "duration": 0.10267846874999975
                },
                {
                    "name": "D3",
                    "midi": 50,
                    "time": 21.214264500000017,
                    "velocity": 0.48031496062992124,
                    "duration": 0.10267846874999975
                },
                {
                    "name": "F3",
                    "midi": 53,
                    "time": 21.321407250000018,
                    "velocity": 0.48031496062992124,
                    "duration": 0.10267846874999975
                },
                {
                    "name": "A3",
                    "midi": 57,
                    "time": 21.42855000000002,
                    "velocity": 0.48031496062992124,
                    "duration": 0.10267846874999975
                },
                {
                    "name": "A3",
                    "midi": 57,
                    "time": 21.53569275000002,
                    "velocity": 0.48031496062992124,
                    "duration": 0.10267846874999975
                },
                {
                    "name": "F3",
                    "midi": 53,
                    "time": 21.64283550000002,
                    "velocity": 0.48031496062992124,
                    "duration": 0.10267846874999975
                },
                {
                    "name": "A3",
                    "midi": 57,
                    "time": 21.749978250000023,
                    "velocity": 0.48031496062992124,
                    "duration": 0.10267846874999975
                },
                {
                    "name": "D3",
                    "midi": 50,
                    "time": 21.857121000000024,
                    "velocity": 0.48031496062992124,
                    "duration": 0.10267846874999975
                },
                {
                    "name": "D3",
                    "midi": 50,
                    "time": 21.964263750000026,
                    "velocity": 0.48031496062992124,
                    "duration": 0.10267846874999975
                },
                {
                    "name": "D3",
                    "midi": 50,
                    "time": 22.071406500000027,
                    "velocity": 0.48031496062992124,
                    "duration": 0.10267846874999975
                },
                {
                    "name": "F3",
                    "midi": 53,
                    "time": 22.178549250000028,
                    "velocity": 0.48031496062992124,
                    "duration": 0.10267846874999975
                },
                {
                    "name": "A3",
                    "midi": 57,
                    "time": 22.28569200000003,
                    "velocity": 0.48031496062992124,
                    "duration": 0.10267846874999975
                },
                {
                    "name": "A3",
                    "midi": 57,
                    "time": 22.39283475000003,
                    "velocity": 0.48031496062992124,
                    "duration": 0.10267846874999975
                },
                {
                    "name": "F3",
                    "midi": 53,
                    "time": 22.499977500000032,
                    "velocity": 0.48031496062992124,
                    "duration": 0.10267846874999975
                },
                {
                    "name": "A3",
                    "midi": 57,
                    "time": 22.607120250000033,
                    "velocity": 0.48031496062992124,
                    "duration": 0.10267846874999975
                },
                {
                    "name": "D3",
                    "midi": 50,
                    "time": 22.714263000000035,
                    "velocity": 0.48031496062992124,
                    "duration": 0.10267846874999975
                },
                {
                    "name": "D3",
                    "midi": 50,
                    "time": 22.821405750000036,
                    "velocity": 0.48031496062992124,
                    "duration": 0.10267846874999975
                },
                {
                    "name": "D3",
                    "midi": 50,
                    "time": 22.928548500000037,
                    "velocity": 0.48031496062992124,
                    "duration": 0.10267846874999975
                },
                {
                    "name": "F3",
                    "midi": 53,
                    "time": 23.03569125000004,
                    "velocity": 0.48031496062992124,
                    "duration": 0.10267846874999975
                },
                {
                    "name": "A3",
                    "midi": 57,
                    "time": 23.14283400000004,
                    "velocity": 0.48031496062992124,
                    "duration": 0.10267846874999975
                },
                {
                    "name": "A3",
                    "midi": 57,
                    "time": 23.24997675000004,
                    "velocity": 0.48031496062992124,
                    "duration": 0.10267846874999975
                },
                {
                    "name": "F3",
                    "midi": 53,
                    "time": 23.357119500000042,
                    "velocity": 0.48031496062992124,
                    "duration": 0.10267846874999975
                },
                {
                    "name": "A3",
                    "midi": 57,
                    "time": 23.464262250000044,
                    "velocity": 0.48031496062992124,
                    "duration": 0.10267846874999975
                },
                {
                    "name": "D3",
                    "midi": 50,
                    "time": 23.571405000000045,
                    "velocity": 0.48031496062992124,
                    "duration": 0.10267846874999975
                },
                {
                    "name": "D3",
                    "midi": 50,
                    "time": 23.678547750000046,
                    "velocity": 0.48031496062992124,
                    "duration": 0.10267846874999975
                },
                {
                    "name": "G3",
                    "midi": 55,
                    "time": 23.785690500000047,
                    "velocity": 0.48031496062992124,
                    "duration": 0.10267846874999975
                },
                {
                    "name": "A#3",
                    "midi": 58,
                    "time": 23.89283325000005,
                    "velocity": 0.48031496062992124,
                    "duration": 0.10267846874999975
                },
                {
                    "name": "D4",
                    "midi": 62,
                    "time": 23.99997600000005,
                    "velocity": 0.48031496062992124,
                    "duration": 0.10267846874999975
                },
                {
                    "name": "D4",
                    "midi": 62,
                    "time": 24.10711875000005,
                    "velocity": 0.48031496062992124,
                    "duration": 0.10267846874999975
                },
                {
                    "name": "A#3",
                    "midi": 58,
                    "time": 24.214261500000053,
                    "velocity": 0.48031496062992124,
                    "duration": 0.10267846874999975
                },
                {
                    "name": "D4",
                    "midi": 62,
                    "time": 24.321404250000054,
                    "velocity": 0.48031496062992124,
                    "duration": 0.10267846874999975
                },
                {
                    "name": "G3",
                    "midi": 55,
                    "time": 24.428547000000055,
                    "velocity": 0.48031496062992124,
                    "duration": 0.10267846874999975
                },
                {
                    "name": "G3",
                    "midi": 55,
                    "time": 24.535689750000056,
                    "velocity": 0.48031496062992124,
                    "duration": 0.10267846874999975
                },
                {
                    "name": "G3",
                    "midi": 55,
                    "time": 24.642832500000058,
                    "velocity": 0.48031496062992124,
                    "duration": 0.10267846874999975
                },
                {
                    "name": "A#3",
                    "midi": 58,
                    "time": 24.74997525000006,
                    "velocity": 0.48031496062992124,
                    "duration": 0.10267846874999975
                },
                {
                    "name": "D4",
                    "midi": 62,
                    "time": 24.85711800000006,
                    "velocity": 0.48031496062992124,
                    "duration": 0.10267846874999975
                },
                {
                    "name": "D4",
                    "midi": 62,
                    "time": 24.96426075000006,
                    "velocity": 0.48031496062992124,
                    "duration": 0.10267846874999975
                },
                {
                    "name": "A#3",
                    "midi": 58,
                    "time": 25.071403500000063,
                    "velocity": 0.48031496062992124,
                    "duration": 0.10267846874999975
                },
                {
                    "name": "D4",
                    "midi": 62,
                    "time": 25.178546250000064,
                    "velocity": 0.48031496062992124,
                    "duration": 0.10267846874999975
                },
                {
                    "name": "G3",
                    "midi": 55,
                    "time": 25.285689000000065,
                    "velocity": 0.48031496062992124,
                    "duration": 0.10267846874999975
                },
                {
                    "name": "G3",
                    "midi": 55,
                    "time": 25.392831750000067,
                    "velocity": 0.48031496062992124,
                    "duration": 0.10267846874999975
                },
                {
                    "name": "G3",
                    "midi": 55,
                    "time": 25.499974500000068,
                    "velocity": 0.48031496062992124,
                    "duration": 0.10267846874999975
                },
                {
                    "name": "A#3",
                    "midi": 58,
                    "time": 25.60711725000007,
                    "velocity": 0.48031496062992124,
                    "duration": 0.10267846874999975
                },
                {
                    "name": "D4",
                    "midi": 62,
                    "time": 25.71426000000007,
                    "velocity": 0.48031496062992124,
                    "duration": 0.10267846874999975
                },
                {
                    "name": "D4",
                    "midi": 62,
                    "time": 25.821402750000072,
                    "velocity": 0.48031496062992124,
                    "duration": 0.10267846874999975
                },
                {
                    "name": "A#3",
                    "midi": 58,
                    "time": 25.928545500000073,
                    "velocity": 0.48031496062992124,
                    "duration": 0.10267846874999975
                },
                {
                    "name": "D4",
                    "midi": 62,
                    "time": 26.035688250000074,
                    "velocity": 0.48031496062992124,
                    "duration": 0.10267846874999975
                },
                {
                    "name": "G3",
                    "midi": 55,
                    "time": 26.142831000000076,
                    "velocity": 0.48031496062992124,
                    "duration": 0.10267846874999975
                },
                {
                    "name": "G3",
                    "midi": 55,
                    "time": 26.249973750000077,
                    "velocity": 0.48031496062992124,
                    "duration": 0.10267846874999975
                },
                {
                    "name": "G3",
                    "midi": 55,
                    "time": 26.357116500000078,
                    "velocity": 0.48031496062992124,
                    "duration": 0.10267846874999975
                },
                {
                    "name": "A#3",
                    "midi": 58,
                    "time": 26.46425925000008,
                    "velocity": 0.48031496062992124,
                    "duration": 0.10267846874999975
                },
                {
                    "name": "D4",
                    "midi": 62,
                    "time": 26.57140200000008,
                    "velocity": 0.48031496062992124,
                    "duration": 0.10267846874999975
                },
                {
                    "name": "D4",
                    "midi": 62,
                    "time": 26.678544750000082,
                    "velocity": 0.48031496062992124,
                    "duration": 0.10267846874999975
                },
                {
                    "name": "A#3",
                    "midi": 58,
                    "time": 26.785687500000083,
                    "velocity": 0.48031496062992124,
                    "duration": 0.10267846874999975
                },
                {
                    "name": "D4",
                    "midi": 62,
                    "time": 26.892830250000085,
                    "velocity": 0.48031496062992124,
                    "duration": 0.10267846874999975
                },
                {
                    "name": "G3",
                    "midi": 55,
                    "time": 26.999973000000086,
                    "velocity": 0.48031496062992124,
                    "duration": 0.10267846874999975
                },
                {
                    "name": "G3",
                    "midi": 55,
                    "time": 27.107115750000087,
                    "velocity": 0.48031496062992124,
                    "duration": 0.10267846874999975
                },
                {
                    "name": "G3",
                    "midi": 55,
                    "time": 27.21425850000009,
                    "velocity": 0.48031496062992124,
                    "duration": 0.10267846874999975
                },
                {
                    "name": "G#3",
                    "midi": 56,
                    "time": 27.32140125000009,
                    "velocity": 0.48031496062992124,
                    "duration": 0.05357137500000064
                },
                {
                    "name": "A#3",
                    "midi": 58,
                    "time": 27.37497262500009,
                    "velocity": 0.48031496062992124,
                    "duration": 0.05357137500000064
                },
                {
                    "name": "A3",
                    "midi": 57,
                    "time": 27.42854400000009,
                    "velocity": 0.48031496062992124,
                    "duration": 0.10267846874999975
                },
                {
                    "name": "G#3",
                    "midi": 56,
                    "time": 27.535686750000092,
                    "velocity": 0.48031496062992124,
                    "duration": 0.10267846874999975
                },
                {
                    "name": "A3",
                    "midi": 57,
                    "time": 27.642829500000094,
                    "velocity": 0.48031496062992124,
                    "duration": 0.10267846874999975
                },
                {
                    "name": "A#3",
                    "midi": 58,
                    "time": 27.749972250000095,
                    "velocity": 0.48031496062992124,
                    "duration": 0.10267846874999975
                },
                {
                    "name": "B3",
                    "midi": 59,
                    "time": 27.857115000000096,
                    "velocity": 0.48031496062992124,
                    "duration": 0.10267846874999975
                },
                {
                    "name": "A#3",
                    "midi": 58,
                    "time": 27.964257750000098,
                    "velocity": 0.48031496062992124,
                    "duration": 0.10267846874999975
                },
                {
                    "name": "B3",
                    "midi": 59,
                    "time": 28.0714005000001,
                    "velocity": 0.48031496062992124,
                    "duration": 0.10267846874999975
                },
                {
                    "name": "C4",
                    "midi": 60,
                    "time": 28.1785432500001,
                    "velocity": 0.48031496062992124,
                    "duration": 0.05357137500000064
                },
                {
                    "name": "D4",
                    "midi": 62,
                    "time": 28.2321146250001,
                    "velocity": 0.48031496062992124,
                    "duration": 0.05357137500000064
                },
                {
                    "name": "C#4",
                    "midi": 61,
                    "time": 28.2856860000001,
                    "velocity": 0.48031496062992124,
                    "duration": 0.10267846874999975
                },
                {
                    "name": "C4",
                    "midi": 60,
                    "time": 28.392828750000103,
                    "velocity": 0.48031496062992124,
                    "duration": 0.10267846874999975
                },
                {
                    "name": "C#4",
                    "midi": 61,
                    "time": 28.499971500000104,
                    "velocity": 0.48031496062992124,
                    "duration": 0.10267846874999975
                },
                {
                    "name": "D4",
                    "midi": 62,
                    "time": 28.607114250000105,
                    "velocity": 0.48031496062992124,
                    "duration": 0.10267846874999975
                },
                {
                    "name": "D#4",
                    "midi": 63,
                    "time": 28.714257000000107,
                    "velocity": 0.48031496062992124,
                    "duration": 0.10267846874999975
                },
                {
                    "name": "E4",
                    "midi": 64,
                    "time": 28.821399750000108,
                    "velocity": 0.48031496062992124,
                    "duration": 0.10267846874999975
                },
                {
                    "name": "F4",
                    "midi": 65,
                    "time": 28.92854250000011,
                    "velocity": 0.48031496062992124,
                    "duration": 0.10267846874999975
                },
                {
                    "name": "F#4",
                    "midi": 66,
                    "time": 29.03568525000011,
                    "velocity": 0.48031496062992124,
                    "duration": 0.10267846874999975
                },
                {
                    "name": "G4",
                    "midi": 67,
                    "time": 29.14282800000011,
                    "velocity": 0.48031496062992124,
                    "duration": 0.10267846874999975
                },
                {
                    "name": "F#4",
                    "midi": 66,
                    "time": 29.249970750000113,
                    "velocity": 0.48031496062992124,
                    "duration": 0.10267846874999975
                },
                {
                    "name": "F#4",
                    "midi": 66,
                    "time": 29.357113500000114,
                    "velocity": 0.48031496062992124,
                    "duration": 0.10267846874999975
                },
                {
                    "name": "F4",
                    "midi": 65,
                    "time": 29.464256250000116,
                    "velocity": 0.48031496062992124,
                    "duration": 0.10267846874999975
                },
                {
                    "name": "F4",
                    "midi": 65,
                    "time": 29.571399000000117,
                    "velocity": 0.48031496062992124,
                    "duration": 0.10267846874999975
                },
                {
                    "name": "E4",
                    "midi": 64,
                    "time": 29.678541750000118,
                    "velocity": 0.48031496062992124,
                    "duration": 0.10267846874999975
                },
                {
                    "name": "E4",
                    "midi": 64,
                    "time": 29.78568450000012,
                    "velocity": 0.48031496062992124,
                    "duration": 0.10267846874999975
                },
                {
                    "name": "D#4",
                    "midi": 63,
                    "time": 29.89282725000012,
                    "velocity": 0.48031496062992124,
                    "duration": 0.10267846874999975
                },
                {
                    "name": "D#4",
                    "midi": 63,
                    "time": 29.999970000000122,
                    "velocity": 0.48031496062992124,
                    "duration": 0.10267846874999975
                },
                {
                    "name": "D4",
                    "midi": 62,
                    "time": 30.107112750000123,
                    "velocity": 0.48031496062992124,
                    "duration": 0.10267846874999975
                },
                {
                    "name": "D4",
                    "midi": 62,
                    "time": 30.214255500000124,
                    "velocity": 0.48031496062992124,
                    "duration": 0.10267846874999975
                },
                {
                    "name": "C#4",
                    "midi": 61,
                    "time": 30.321398250000126,
                    "velocity": 0.48031496062992124,
                    "duration": 0.10267846874999975
                },
                {
                    "name": "C#4",
                    "midi": 61,
                    "time": 30.428541000000127,
                    "velocity": 0.48031496062992124,
                    "duration": 0.10267846874999975
                },
                {
                    "name": "C4",
                    "midi": 60,
                    "time": 30.53568375000013,
                    "velocity": 0.48031496062992124,
                    "duration": 0.10267846874999975
                },
                {
                    "name": "A#3",
                    "midi": 58,
                    "time": 30.64282650000013,
                    "velocity": 0.48031496062992124,
                    "duration": 0.10267846874999975
                },
                {
                    "name": "B3",
                    "midi": 59,
                    "time": 30.74996925000013,
                    "velocity": 0.48031496062992124,
                    "duration": 0.05357137500000064
                },
                {
                    "name": "C#4",
                    "midi": 61,
                    "time": 30.80354062500013,
                    "velocity": 0.48031496062992124,
                    "duration": 0.05357137500000064
                },
                {
                    "name": "C4",
                    "midi": 60,
                    "time": 30.857112000000132,
                    "velocity": 0.48031496062992124,
                    "duration": 0.10267846874999975
                },
                {
                    "name": "B3",
                    "midi": 59,
                    "time": 30.964254750000133,
                    "velocity": 0.48031496062992124,
                    "duration": 0.10267846874999975
                },
                {
                    "name": "C4",
                    "midi": 60,
                    "time": 31.071397500000135,
                    "velocity": 0.48031496062992124,
                    "duration": 0.10267846874999975
                },
                {
                    "name": "C#4",
                    "midi": 61,
                    "time": 31.178540250000136,
                    "velocity": 0.48031496062992124,
                    "duration": 0.10267846874999975
                },
                {
                    "name": "D4",
                    "midi": 62,
                    "time": 31.285683000000137,
                    "velocity": 0.48031496062992124,
                    "duration": 0.10267846874999975
                },
                {
                    "name": "C#4",
                    "midi": 61,
                    "time": 31.39282575000014,
                    "velocity": 0.48031496062992124,
                    "duration": 0.10267846874999975
                },
                {
                    "name": "D4",
                    "midi": 62,
                    "time": 31.49996850000014,
                    "velocity": 0.48031496062992124,
                    "duration": 0.10267846874999975
                },
                {
                    "name": "D#4",
                    "midi": 63,
                    "time": 31.60711125000014,
                    "velocity": 0.48031496062992124,
                    "duration": 0.05357137500000064
                },
                {
                    "name": "F4",
                    "midi": 65,
                    "time": 31.660682625000142,
                    "velocity": 0.48031496062992124,
                    "duration": 0.05357137500000064
                },
                {
                    "name": "E4",
                    "midi": 64,
                    "time": 31.714254000000142,
                    "velocity": 0.48031496062992124,
                    "duration": 0.10267846874999975
                },
                {
                    "name": "D#4",
                    "midi": 63,
                    "time": 31.821396750000144,
                    "velocity": 0.48031496062992124,
                    "duration": 0.10267846874999975
                },
                {
                    "name": "E4",
                    "midi": 64,
                    "time": 31.928539500000145,
                    "velocity": 0.48031496062992124,
                    "duration": 0.1026784687500033
                },
                {
                    "name": "F4",
                    "midi": 65,
                    "time": 32.03568225000015,
                    "velocity": 0.48031496062992124,
                    "duration": 0.10267846874999975
                },
                {
                    "name": "F#4",
                    "midi": 66,
                    "time": 32.14282500000015,
                    "velocity": 0.48031496062992124,
                    "duration": 0.10267846874999975
                },
                {
                    "name": "G4",
                    "midi": 67,
                    "time": 32.24996775000015,
                    "velocity": 0.48031496062992124,
                    "duration": 0.10267846874999975
                },
                {
                    "name": "G#4",
                    "midi": 68,
                    "time": 32.357110500000154,
                    "velocity": 0.48031496062992124,
                    "duration": 0.10267846874999975
                },
                {
                    "name": "A4",
                    "midi": 69,
                    "time": 32.464253250000155,
                    "velocity": 0.48031496062992124,
                    "duration": 0.10267846874999975
                },
                {
                    "name": "A#4",
                    "midi": 70,
                    "time": 32.571396000000156,
                    "velocity": 0.48031496062992124,
                    "duration": 0.10267846874999975
                },
                {
                    "name": "A4",
                    "midi": 69,
                    "time": 32.67853875000016,
                    "velocity": 0.48031496062992124,
                    "duration": 0.10267846874999975
                },
                {
                    "name": "A4",
                    "midi": 69,
                    "time": 32.78568150000016,
                    "velocity": 0.48031496062992124,
                    "duration": 0.10267846874999975
                },
                {
                    "name": "G#4",
                    "midi": 68,
                    "time": 32.89282425000016,
                    "velocity": 0.48031496062992124,
                    "duration": 0.10267846874999975
                },
                {
                    "name": "G#4",
                    "midi": 68,
                    "time": 32.99996700000016,
                    "velocity": 0.48031496062992124,
                    "duration": 0.10267846874999975
                },
                {
                    "name": "G4",
                    "midi": 67,
                    "time": 33.10710975000016,
                    "velocity": 0.48031496062992124,
                    "duration": 0.10267846874999975
                },
                {
                    "name": "G4",
                    "midi": 67,
                    "time": 33.214252500000164,
                    "velocity": 0.48031496062992124,
                    "duration": 0.10267846874999975
                },
                {
                    "name": "F#4",
                    "midi": 66,
                    "time": 33.321395250000165,
                    "velocity": 0.48031496062992124,
                    "duration": 0.10267846874999975
                },
                {
                    "name": "F#4",
                    "midi": 66,
                    "time": 33.42853800000017,
                    "velocity": 0.48031496062992124,
                    "duration": 0.10267846874999975
                },
                {
                    "name": "F4",
                    "midi": 65,
                    "time": 33.53568075000017,
                    "velocity": 0.48031496062992124,
                    "duration": 0.10267846874999975
                },
                {
                    "name": "F4",
                    "midi": 65,
                    "time": 33.64282350000017,
                    "velocity": 0.48031496062992124,
                    "duration": 0.10267846874999975
                },
                {
                    "name": "E4",
                    "midi": 64,
                    "time": 33.74996625000017,
                    "velocity": 0.48031496062992124,
                    "duration": 0.10267846874999975
                },
                {
                    "name": "E4",
                    "midi": 64,
                    "time": 33.85710900000017,
                    "velocity": 0.48031496062992124,
                    "duration": 0.10267846874999975
                },
                {
                    "name": "D#4",
                    "midi": 63,
                    "time": 33.96425175000017,
                    "velocity": 0.48031496062992124,
                    "duration": 0.10267846874999975
                },
                {
                    "name": "G3",
                    "midi": 55,
                    "time": 34.071394500000174,
                    "velocity": 0.48031496062992124,
                    "duration": 0.10267846874999975
                },
                {
                    "name": "A#3",
                    "midi": 58,
                    "time": 34.178537250000176,
                    "velocity": 0.48031496062992124,
                    "duration": 0.10267846874999975
                },
                {
                    "name": "D4",
                    "midi": 62,
                    "time": 34.28568000000018,
                    "velocity": 0.48031496062992124,
                    "duration": 0.10267846874999975
                },
                {
                    "name": "D4",
                    "midi": 62,
                    "time": 34.39282275000018,
                    "velocity": 0.48031496062992124,
                    "duration": 0.10267846874999975
                },
                {
                    "name": "A#3",
                    "midi": 58,
                    "time": 34.49996550000018,
                    "velocity": 0.48031496062992124,
                    "duration": 0.10267846874999975
                },
                {
                    "name": "D4",
                    "midi": 62,
                    "time": 34.60710825000018,
                    "velocity": 0.48031496062992124,
                    "duration": 0.10267846874999975
                },
                {
                    "name": "G3",
                    "midi": 55,
                    "time": 34.71425100000018,
                    "velocity": 0.48031496062992124,
                    "duration": 0.10267846874999975
                },
                {
                    "name": "G3",
                    "midi": 55,
                    "time": 34.82139375000018,
                    "velocity": 0.48031496062992124,
                    "duration": 0.10267846874999975
                },
                {
                    "name": "G3",
                    "midi": 55,
                    "time": 34.928536500000185,
                    "velocity": 0.48031496062992124,
                    "duration": 0.10267846874999975
                },
                {
                    "name": "A#3",
                    "midi": 58,
                    "time": 35.035679250000186,
                    "velocity": 0.48031496062992124,
                    "duration": 0.10267846874999975
                },
                {
                    "name": "D4",
                    "midi": 62,
                    "time": 35.14282200000019,
                    "velocity": 0.48031496062992124,
                    "duration": 0.10267846874999975
                },
                {
                    "name": "D4",
                    "midi": 62,
                    "time": 35.24996475000019,
                    "velocity": 0.48031496062992124,
                    "duration": 0.10267846874999975
                },
                {
                    "name": "A#3",
                    "midi": 58,
                    "time": 35.35710750000019,
                    "velocity": 0.48031496062992124,
                    "duration": 0.10267846874999975
                },
                {
                    "name": "D4",
                    "midi": 62,
                    "time": 35.46425025000019,
                    "velocity": 0.48031496062992124,
                    "duration": 0.10267846874999975
                },
                {
                    "name": "G3",
                    "midi": 55,
                    "time": 35.57139300000019,
                    "velocity": 0.48031496062992124,
                    "duration": 0.10267846874999975
                },
                {
                    "name": "G3",
                    "midi": 55,
                    "time": 35.678535750000194,
                    "velocity": 0.48031496062992124,
                    "duration": 0.10267846874999975
                },
                {
                    "name": "G3",
                    "midi": 55,
                    "time": 35.785678500000195,
                    "velocity": 0.48031496062992124,
                    "duration": 0.10267846874999975
                },
                {
                    "name": "A#3",
                    "midi": 58,
                    "time": 35.892821250000196,
                    "velocity": 0.48031496062992124,
                    "duration": 0.10267846874999975
                },
                {
                    "name": "D4",
                    "midi": 62,
                    "time": 35.9999640000002,
                    "velocity": 0.48031496062992124,
                    "duration": 0.10267846874999975
                },
                {
                    "name": "D4",
                    "midi": 62,
                    "time": 36.1071067500002,
                    "velocity": 0.48031496062992124,
                    "duration": 0.10267846874999975
                },
                {
                    "name": "A#3",
                    "midi": 58,
                    "time": 36.2142495000002,
                    "velocity": 0.48031496062992124,
                    "duration": 0.10267846874999975
                },
                {
                    "name": "D4",
                    "midi": 62,
                    "time": 36.3213922500002,
                    "velocity": 0.48031496062992124,
                    "duration": 0.10267846874999975
                },
                {
                    "name": "G3",
                    "midi": 55,
                    "time": 36.4285350000002,
                    "velocity": 0.48031496062992124,
                    "duration": 0.10267846874999975
                },
                {
                    "name": "G3",
                    "midi": 55,
                    "time": 36.535677750000204,
                    "velocity": 0.48031496062992124,
                    "duration": 0.10267846874999975
                },
                {
                    "name": "G3",
                    "midi": 55,
                    "time": 36.642820500000205,
                    "velocity": 0.48031496062992124,
                    "duration": 0.10267846874999975
                },
                {
                    "name": "A#3",
                    "midi": 58,
                    "time": 36.74996325000021,
                    "velocity": 0.48031496062992124,
                    "duration": 0.10267846874999975
                },
                {
                    "name": "D4",
                    "midi": 62,
                    "time": 36.85710600000021,
                    "velocity": 0.48031496062992124,
                    "duration": 0.10267846874999975
                },
                {
                    "name": "D4",
                    "midi": 62,
                    "time": 36.96424875000021,
                    "velocity": 0.48031496062992124,
                    "duration": 0.10267846874999975
                },
                {
                    "name": "A#3",
                    "midi": 58,
                    "time": 37.07139150000021,
                    "velocity": 0.48031496062992124,
                    "duration": 0.10267846874999975
                },
                {
                    "name": "D4",
                    "midi": 62,
                    "time": 37.17853425000021,
                    "velocity": 0.48031496062992124,
                    "duration": 0.10267846874999975
                },
                {
                    "name": "G3",
                    "midi": 55,
                    "time": 37.28567700000021,
                    "velocity": 0.48031496062992124,
                    "duration": 0.10267846874999975
                },
                {
                    "name": "G3",
                    "midi": 55,
                    "time": 37.392819750000214,
                    "velocity": 0.48031496062992124,
                    "duration": 0.10267846874999975
                },
                {
                    "name": "C4",
                    "midi": 60,
                    "time": 37.499962500000215,
                    "velocity": 0.48031496062992124,
                    "duration": 0.10267846874999975
                },
                {
                    "name": "D#4",
                    "midi": 63,
                    "time": 37.60710525000022,
                    "velocity": 0.48031496062992124,
                    "duration": 0.10267846874999975
                },
                {
                    "name": "G4",
                    "midi": 67,
                    "time": 37.71424800000022,
                    "velocity": 0.48031496062992124,
                    "duration": 0.10267846874999975
                },
                {
                    "name": "G4",
                    "midi": 67,
                    "time": 37.82139075000022,
                    "velocity": 0.48031496062992124,
                    "duration": 0.10267846874999975
                },
                {
                    "name": "D#4",
                    "midi": 63,
                    "time": 37.92853350000022,
                    "velocity": 0.48031496062992124,
                    "duration": 0.10267846874999975
                },
                {
                    "name": "G4",
                    "midi": 67,
                    "time": 38.03567625000022,
                    "velocity": 0.48031496062992124,
                    "duration": 0.10267846874999975
                },
                {
                    "name": "C4",
                    "midi": 60,
                    "time": 38.14281900000022,
                    "velocity": 0.48031496062992124,
                    "duration": 0.10267846874999975
                },
                {
                    "name": "C4",
                    "midi": 60,
                    "time": 38.249961750000224,
                    "velocity": 0.48031496062992124,
                    "duration": 0.10267846874999975
                },
                {
                    "name": "C4",
                    "midi": 60,
                    "time": 38.357104500000226,
                    "velocity": 0.48031496062992124,
                    "duration": 0.10267846874999975
                },
                {
                    "name": "D#4",
                    "midi": 63,
                    "time": 38.46424725000023,
                    "velocity": 0.48031496062992124,
                    "duration": 0.10267846874999975
                },
                {
                    "name": "G4",
                    "midi": 67,
                    "time": 38.57139000000023,
                    "velocity": 0.48031496062992124,
                    "duration": 0.10267846874999975
                },
                {
                    "name": "G4",
                    "midi": 67,
                    "time": 38.67853275000023,
                    "velocity": 0.48031496062992124,
                    "duration": 0.10267846874999975
                },
                {
                    "name": "D#4",
                    "midi": 63,
                    "time": 38.78567550000023,
                    "velocity": 0.48031496062992124,
                    "duration": 0.10267846874999975
                },
                {
                    "name": "G4",
                    "midi": 67,
                    "time": 38.89281825000023,
                    "velocity": 0.48031496062992124,
                    "duration": 0.10267846874999975
                },
                {
                    "name": "C4",
                    "midi": 60,
                    "time": 38.99996100000023,
                    "velocity": 0.48031496062992124,
                    "duration": 0.10267846874999975
                },
                {
                    "name": "C4",
                    "midi": 60,
                    "time": 39.107103750000235,
                    "velocity": 0.48031496062992124,
                    "duration": 0.10267846874999975
                },
                {
                    "name": "C4",
                    "midi": 60,
                    "time": 39.214246500000236,
                    "velocity": 0.48031496062992124,
                    "duration": 0.10267846874999975
                },
                {
                    "name": "D#4",
                    "midi": 63,
                    "time": 39.32138925000024,
                    "velocity": 0.48031496062992124,
                    "duration": 0.10267846874999975
                },
                {
                    "name": "G4",
                    "midi": 67,
                    "time": 39.42853200000024,
                    "velocity": 0.48031496062992124,
                    "duration": 0.10267846874999975
                },
                {
                    "name": "G4",
                    "midi": 67,
                    "time": 39.53567475000024,
                    "velocity": 0.48031496062992124,
                    "duration": 0.10267846874999975
                },
                {
                    "name": "D#4",
                    "midi": 63,
                    "time": 39.64281750000024,
                    "velocity": 0.48031496062992124,
                    "duration": 0.10267846874999975
                },
                {
                    "name": "G4",
                    "midi": 67,
                    "time": 39.74996025000024,
                    "velocity": 0.48031496062992124,
                    "duration": 0.10267846874999975
                },
                {
                    "name": "C4",
                    "midi": 60,
                    "time": 39.857103000000244,
                    "velocity": 0.48031496062992124,
                    "duration": 0.10267846874999975
                },
                {
                    "name": "C4",
                    "midi": 60,
                    "time": 39.964245750000245,
                    "velocity": 0.48031496062992124,
                    "duration": 0.10267846874999975
                },
                {
                    "name": "C4",
                    "midi": 60,
                    "time": 40.071388500000246,
                    "velocity": 0.48031496062992124,
                    "duration": 0.10267846874999975
                },
                {
                    "name": "D#4",
                    "midi": 63,
                    "time": 40.17853125000025,
                    "velocity": 0.48031496062992124,
                    "duration": 0.10267846874999975
                },
                {
                    "name": "G4",
                    "midi": 67,
                    "time": 40.28567400000025,
                    "velocity": 0.48031496062992124,
                    "duration": 0.10267846874999975
                },
                {
                    "name": "G4",
                    "midi": 67,
                    "time": 40.39281675000025,
                    "velocity": 0.48031496062992124,
                    "duration": 0.10267846874999975
                },
                {
                    "name": "D#4",
                    "midi": 63,
                    "time": 40.49995950000025,
                    "velocity": 0.48031496062992124,
                    "duration": 0.10267846874999975
                },
                {
                    "name": "G4",
                    "midi": 67,
                    "time": 40.60710225000025,
                    "velocity": 0.48031496062992124,
                    "duration": 0.10267846874999975
                },
                {
                    "name": "C4",
                    "midi": 60,
                    "time": 40.714245000000254,
                    "velocity": 0.48031496062992124,
                    "duration": 0.10267846874999975
                },
                {
                    "name": "C4",
                    "midi": 60,
                    "time": 40.821387750000255,
                    "velocity": 0.48031496062992124,
                    "duration": 0.10267846874999975
                },
                {
                    "name": "G4",
                    "midi": 67,
                    "time": 40.92853050000026,
                    "velocity": 0.48031496062992124,
                    "duration": 0.10267846874999975
                },
                {
                    "name": "A#4",
                    "midi": 70,
                    "time": 41.03567325000026,
                    "velocity": 0.48031496062992124,
                    "duration": 0.10267846874999975
                },
                {
                    "name": "D5",
                    "midi": 74,
                    "time": 41.14281600000026,
                    "velocity": 0.48031496062992124,
                    "duration": 0.10267846874999975
                },
                {
                    "name": "D5",
                    "midi": 74,
                    "time": 41.24995875000026,
                    "velocity": 0.48031496062992124,
                    "duration": 0.10267846874999975
                },
                {
                    "name": "A#4",
                    "midi": 70,
                    "time": 41.35710150000026,
                    "velocity": 0.48031496062992124,
                    "duration": 0.10267846874999975
                },
                {
                    "name": "D5",
                    "midi": 74,
                    "time": 41.46424425000026,
                    "velocity": 0.48031496062992124,
                    "duration": 0.10267846874999975
                },
                {
                    "name": "G4",
                    "midi": 67,
                    "time": 41.571387000000264,
                    "velocity": 0.48031496062992124,
                    "duration": 0.10267846874999975
                },
                {
                    "name": "G4",
                    "midi": 67,
                    "time": 41.678529750000266,
                    "velocity": 0.48031496062992124,
                    "duration": 0.10267846874999975
                },
                {
                    "name": "G4",
                    "midi": 67,
                    "time": 41.78567250000027,
                    "velocity": 0.48031496062992124,
                    "duration": 0.10267846874999975
                },
                {
                    "name": "A#4",
                    "midi": 70,
                    "time": 41.89281525000027,
                    "velocity": 0.48031496062992124,
                    "duration": 0.10267846874999975
                },
                {
                    "name": "D5",
                    "midi": 74,
                    "time": 41.99995800000027,
                    "velocity": 0.48031496062992124,
                    "duration": 0.10267846874999975
                },
                {
                    "name": "D5",
                    "midi": 74,
                    "time": 42.10710075000027,
                    "velocity": 0.48031496062992124,
                    "duration": 0.10267846874999975
                },
                {
                    "name": "G5",
                    "midi": 79,
                    "time": 42.21424350000027,
                    "velocity": 0.48031496062992124,
                    "duration": 0.20982121875000104
                },
                {
                    "name": "C#5",
                    "midi": 73,
                    "time": 42.428529000000275,
                    "velocity": 0.48031496062992124,
                    "duration": 0.10267846874999975
                },
                {
                    "name": "A5",
                    "midi": 81,
                    "time": 42.535671750000276,
                    "velocity": 0.48031496062992124,
                    "duration": 0.10267846874999975
                },
                {
                    "name": "A5",
                    "midi": 81,
                    "time": 42.64281450000028,
                    "velocity": 0.48031496062992124,
                    "duration": 0.10267846874999975
                },
                {
                    "name": "G#5",
                    "midi": 80,
                    "time": 42.74995725000028,
                    "velocity": 0.48031496062992124,
                    "duration": 0.10267846874999975
                },
                {
                    "name": "G#5",
                    "midi": 80,
                    "time": 42.85710000000028,
                    "velocity": 0.48031496062992124,
                    "duration": 0.10267846874999975
                },
                {
                    "name": "D6",
                    "midi": 86,
                    "time": 42.96424275000028,
                    "velocity": 0.48031496062992124,
                    "duration": 0.10267846874999975
                },
                {
                    "name": "A#5",
                    "midi": 82,
                    "time": 42.96424275000028,
                    "velocity": 0.48031496062992124,
                    "duration": 0.10267846874999975
                },
                {
                    "name": "G5",
                    "midi": 79,
                    "time": 42.96424275000028,
                    "velocity": 0.48031496062992124,
                    "duration": 0.10267846874999975
                },
                {
                    "name": "A#5",
                    "midi": 82,
                    "time": 43.07138550000028,
                    "velocity": 0.48031496062992124,
                    "duration": 0.10267846874999975
                },
                {
                    "name": "G5",
                    "midi": 79,
                    "time": 43.07138550000028,
                    "velocity": 0.48031496062992124,
                    "duration": 0.10267846874999975
                },
                {
                    "name": "D6",
                    "midi": 86,
                    "time": 43.07138550000028,
                    "velocity": 0.48031496062992124,
                    "duration": 0.10267846874999975
                },
                {
                    "name": "F#5",
                    "midi": 78,
                    "time": 43.178528250000284,
                    "velocity": 0.48031496062992124,
                    "duration": 0.10267846874999975
                },
                {
                    "name": "D6",
                    "midi": 86,
                    "time": 43.178528250000284,
                    "velocity": 0.48031496062992124,
                    "duration": 0.10267846874999975
                },
                {
                    "name": "A5",
                    "midi": 81,
                    "time": 43.178528250000284,
                    "velocity": 0.48031496062992124,
                    "duration": 0.10267846874999975
                },
                {
                    "name": "F#5",
                    "midi": 78,
                    "time": 43.285671000000285,
                    "velocity": 0.48031496062992124,
                    "duration": 0.10267846874999975
                },
                {
                    "name": "A5",
                    "midi": 81,
                    "time": 43.285671000000285,
                    "velocity": 0.48031496062992124,
                    "duration": 0.10267846874999975
                },
                {
                    "name": "D6",
                    "midi": 86,
                    "time": 43.285671000000285,
                    "velocity": 0.48031496062992124,
                    "duration": 0.10267846874999975
                },
                {
                    "name": "G#5",
                    "midi": 80,
                    "time": 43.392813750000286,
                    "velocity": 0.48031496062992124,
                    "duration": 0.10267846874999975
                },
                {
                    "name": "F5",
                    "midi": 77,
                    "time": 43.392813750000286,
                    "velocity": 0.48031496062992124,
                    "duration": 0.10267846874999975
                },
                {
                    "name": "D6",
                    "midi": 86,
                    "time": 43.392813750000286,
                    "velocity": 0.48031496062992124,
                    "duration": 0.10267846874999975
                },
                {
                    "name": "G#5",
                    "midi": 80,
                    "time": 43.49995650000029,
                    "velocity": 0.48031496062992124,
                    "duration": 0.10267846874999975
                },
                {
                    "name": "D6",
                    "midi": 86,
                    "time": 43.49995650000029,
                    "velocity": 0.48031496062992124,
                    "duration": 0.10267846874999975
                },
                {
                    "name": "F5",
                    "midi": 77,
                    "time": 43.49995650000029,
                    "velocity": 0.48031496062992124,
                    "duration": 0.10267846874999975
                },
                {
                    "name": "E5",
                    "midi": 76,
                    "time": 43.60709925000029,
                    "velocity": 0.48031496062992124,
                    "duration": 0.10267846874999975
                },
                {
                    "name": "G5",
                    "midi": 79,
                    "time": 43.60709925000029,
                    "velocity": 0.48031496062992124,
                    "duration": 0.10267846874999975
                },
                {
                    "name": "D6",
                    "midi": 86,
                    "time": 43.60709925000029,
                    "velocity": 0.48031496062992124,
                    "duration": 0.10267846874999975
                },
                {
                    "name": "D6",
                    "midi": 86,
                    "time": 43.71424200000029,
                    "velocity": 0.48031496062992124,
                    "duration": 0.10267846874999975
                },
                {
                    "name": "D#5",
                    "midi": 75,
                    "time": 43.82138475000029,
                    "velocity": 0.48031496062992124,
                    "duration": 0.10267846874999975
                },
                {
                    "name": "A6",
                    "midi": 93,
                    "time": 43.92852750000029,
                    "velocity": 0.48031496062992124,
                    "duration": 0.10267846874999975
                },
                {
                    "name": "A#6",
                    "midi": 94,
                    "time": 44.035670250000294,
                    "velocity": 0.48031496062992124,
                    "duration": 0.10267846874999975
                },
                {
                    "name": "D7",
                    "midi": 98,
                    "time": 44.142813000000295,
                    "velocity": 0.48031496062992124,
                    "duration": 0.10267846874999975
                },
                {
                    "name": "D6",
                    "midi": 86,
                    "time": 44.142813000000295,
                    "velocity": 0.48031496062992124,
                    "duration": 0.10267846874999975
                },
                {
                    "name": "D#5",
                    "midi": 75,
                    "time": 44.2499557500003,
                    "velocity": 0.48031496062992124,
                    "duration": 0.10267846874999975
                },
                {
                    "name": "D#6",
                    "midi": 87,
                    "time": 44.2499557500003,
                    "velocity": 0.48031496062992124,
                    "duration": 0.10267846874999975
                },
                {
                    "name": "A4",
                    "midi": 69,
                    "time": 44.3570985000003,
                    "velocity": 0.48031496062992124,
                    "duration": 0.10267846874999975
                },
                {
                    "name": "C5",
                    "midi": 72,
                    "time": 44.4642412500003,
                    "velocity": 0.48031496062992124,
                    "duration": 0.10267846874999975
                },
                {
                    "name": "E5",
                    "midi": 76,
                    "time": 44.5713840000003,
                    "velocity": 0.48031496062992124,
                    "duration": 0.10267846874999975
                },
                {
                    "name": "E5",
                    "midi": 76,
                    "time": 44.6785267500003,
                    "velocity": 0.48031496062992124,
                    "duration": 0.10267846874999975
                },
                {
                    "name": "C5",
                    "midi": 72,
                    "time": 44.7856695000003,
                    "velocity": 0.48031496062992124,
                    "duration": 0.10267846874999975
                },
                {
                    "name": "E5",
                    "midi": 76,
                    "time": 44.892812250000304,
                    "velocity": 0.48031496062992124,
                    "duration": 0.10267846874999975
                },
                {
                    "name": "A4",
                    "midi": 69,
                    "time": 44.999955000000305,
                    "velocity": 0.48031496062992124,
                    "duration": 0.10267846874999975
                },
                {
                    "name": "A4",
                    "midi": 69,
                    "time": 45.10709775000031,
                    "velocity": 0.48031496062992124,
                    "duration": 0.10267846874999975
                },
                {
                    "name": "A4",
                    "midi": 69,
                    "time": 45.21424050000031,
                    "velocity": 0.48031496062992124,
                    "duration": 0.10267846874999975
                },
                {
                    "name": "C5",
                    "midi": 72,
                    "time": 45.32138325000031,
                    "velocity": 0.48031496062992124,
                    "duration": 0.10267846874999975
                },
                {
                    "name": "E5",
                    "midi": 76,
                    "time": 45.42852600000031,
                    "velocity": 0.48031496062992124,
                    "duration": 0.10267846874999975
                },
                {
                    "name": "E5",
                    "midi": 76,
                    "time": 45.53566875000031,
                    "velocity": 0.48031496062992124,
                    "duration": 0.10267846874999975
                },
                {
                    "name": "A5",
                    "midi": 81,
                    "time": 45.64281150000031,
                    "velocity": 0.48031496062992124,
                    "duration": 0.20982121875000104
                },
                {
                    "name": "D#5",
                    "midi": 75,
                    "time": 45.857097000000316,
                    "velocity": 0.48031496062992124,
                    "duration": 0.10267846874999975
                },
                {
                    "name": "B5",
                    "midi": 83,
                    "time": 45.96423975000032,
                    "velocity": 0.48031496062992124,
                    "duration": 0.10267846874999975
                },
                {
                    "name": "B5",
                    "midi": 83,
                    "time": 46.07138250000032,
                    "velocity": 0.48031496062992124,
                    "duration": 0.10267846874999975
                },
                {
                    "name": "A#5",
                    "midi": 82,
                    "time": 46.17852525000032,
                    "velocity": 0.48031496062992124,
                    "duration": 0.10267846874999975
                },
                {
                    "name": "A#5",
                    "midi": 82,
                    "time": 46.28566800000032,
                    "velocity": 0.48031496062992124,
                    "duration": 0.10267846874999975
                },
                {
                    "name": "C6",
                    "midi": 84,
                    "time": 46.39281075000032,
                    "velocity": 0.48031496062992124,
                    "duration": 0.10267846874999975
                },
                {
                    "name": "A5",
                    "midi": 81,
                    "time": 46.39281075000032,
                    "velocity": 0.48031496062992124,
                    "duration": 0.10267846874999975
                },
                {
                    "name": "E6",
                    "midi": 88,
                    "time": 46.39281075000032,
                    "velocity": 0.48031496062992124,
                    "duration": 0.10267846874999975
                },
                {
                    "name": "E6",
                    "midi": 88,
                    "time": 46.49995350000032,
                    "velocity": 0.48031496062992124,
                    "duration": 0.10267846874999975
                },
                {
                    "name": "C6",
                    "midi": 84,
                    "time": 46.49995350000032,
                    "velocity": 0.48031496062992124,
                    "duration": 0.10267846874999975
                },
                {
                    "name": "A5",
                    "midi": 81,
                    "time": 46.49995350000032,
                    "velocity": 0.48031496062992124,
                    "duration": 0.10267846874999975
                },
                {
                    "name": "E6",
                    "midi": 88,
                    "time": 46.607096250000325,
                    "velocity": 0.48031496062992124,
                    "duration": 0.10267846874999975
                },
                {
                    "name": "G#5",
                    "midi": 80,
                    "time": 46.607096250000325,
                    "velocity": 0.48031496062992124,
                    "duration": 0.10267846874999975
                },
                {
                    "name": "B5",
                    "midi": 83,
                    "time": 46.607096250000325,
                    "velocity": 0.48031496062992124,
                    "duration": 0.10267846874999975
                },
                {
                    "name": "E6",
                    "midi": 88,
                    "time": 46.714239000000326,
                    "velocity": 0.48031496062992124,
                    "duration": 0.10267846874999975
                },
                {
                    "name": "G#5",
                    "midi": 80,
                    "time": 46.714239000000326,
                    "velocity": 0.48031496062992124,
                    "duration": 0.10267846874999975
                },
                {
                    "name": "B5",
                    "midi": 83,
                    "time": 46.714239000000326,
                    "velocity": 0.48031496062992124,
                    "duration": 0.10267846874999975
                },
                {
                    "name": "A#5",
                    "midi": 82,
                    "time": 46.82138175000033,
                    "velocity": 0.48031496062992124,
                    "duration": 0.10267846874999975
                },
                {
                    "name": "E6",
                    "midi": 88,
                    "time": 46.82138175000033,
                    "velocity": 0.48031496062992124,
                    "duration": 0.10267846874999975
                },
                {
                    "name": "G5",
                    "midi": 79,
                    "time": 46.82138175000033,
                    "velocity": 0.48031496062992124,
                    "duration": 0.10267846874999975
                },
                {
                    "name": "E6",
                    "midi": 88,
                    "time": 46.92852450000033,
                    "velocity": 0.48031496062992124,
                    "duration": 0.10267846874999975
                },
                {
                    "name": "A#5",
                    "midi": 82,
                    "time": 46.92852450000033,
                    "velocity": 0.48031496062992124,
                    "duration": 0.10267846874999975
                },
                {
                    "name": "G5",
                    "midi": 79,
                    "time": 46.92852450000033,
                    "velocity": 0.48031496062992124,
                    "duration": 0.10267846874999975
                },
                {
                    "name": "F#5",
                    "midi": 78,
                    "time": 47.03566725000033,
                    "velocity": 0.48031496062992124,
                    "duration": 0.10267846874999975
                },
                {
                    "name": "E6",
                    "midi": 88,
                    "time": 47.03566725000033,
                    "velocity": 0.48031496062992124,
                    "duration": 0.10267846874999975
                },
                {
                    "name": "A5",
                    "midi": 81,
                    "time": 47.03566725000033,
                    "velocity": 0.48031496062992124,
                    "duration": 0.10267846874999975
                },
                {
                    "name": "E6",
                    "midi": 88,
                    "time": 47.14281000000033,
                    "velocity": 0.48031496062992124,
                    "duration": 0.10267846874999975
                },
                {
                    "name": "F5",
                    "midi": 77,
                    "time": 47.24995275000033,
                    "velocity": 0.48031496062992124,
                    "duration": 0.10267846874999975
                },
                {
                    "name": "B6",
                    "midi": 95,
                    "time": 47.357095500000334,
                    "velocity": 0.48031496062992124,
                    "duration": 0.10267846874999975
                },
                {
                    "name": "C7",
                    "midi": 96,
                    "time": 47.464238250000335,
                    "velocity": 0.48031496062992124,
                    "duration": 0.10267846874999975
                },
                {
                    "name": "E7",
                    "midi": 100,
                    "time": 47.571381000000336,
                    "velocity": 0.48031496062992124,
                    "duration": 0.10267846874999975
                },
                {
                    "name": "E6",
                    "midi": 88,
                    "time": 47.571381000000336,
                    "velocity": 0.48031496062992124,
                    "duration": 0.10267846874999975
                },
                {
                    "name": "F6",
                    "midi": 89,
                    "time": 47.67852375000034,
                    "velocity": 0.48031496062992124,
                    "duration": 0.10267846874999975
                },
                {
                    "name": "F5",
                    "midi": 77,
                    "time": 47.67852375000034,
                    "velocity": 0.48031496062992124,
                    "duration": 0.10267846874999975
                },
                {
                    "name": "G#4",
                    "midi": 68,
                    "time": 57.678513750000334,
                    "velocity": 0.48031496062992124,
                    "duration": 0.031249968749996526
                },
                {
                    "name": "G4",
                    "midi": 67,
                    "time": 57.71422800000033,
                    "velocity": 0.48031496062992124,
                    "duration": 0.031249968749996526
                },
                {
                    "name": "G#4",
                    "midi": 68,
                    "time": 57.74994225000033,
                    "velocity": 0.48031496062992124,
                    "duration": 0.031249968749996526
                },
                {
                    "name": "G4",
                    "midi": 67,
                    "time": 57.78565650000033,
                    "velocity": 0.48031496062992124,
                    "duration": 0.031249968749996526
                },
                {
                    "name": "G#4",
                    "midi": 68,
                    "time": 57.82137075000033,
                    "velocity": 0.48031496062992124,
                    "duration": 0.031249968749996526
                },
                {
                    "name": "D#4",
                    "midi": 63,
                    "time": 82.07134650000032,
                    "velocity": 0.48031496062992124,
                    "duration": 0.20982121874999393
                },
                {
                    "name": "C#3",
                    "midi": 49,
                    "time": 82.17848925000031,
                    "velocity": 0.48031496062992124,
                    "duration": 0.10267846874999975
                },
                {
                    "name": "C#2",
                    "midi": 37,
                    "time": 82.17848925000031,
                    "velocity": 0.48031496062992124,
                    "duration": 0.10267846874999975
                },
                {
                    "name": "D#2",
                    "midi": 39,
                    "time": 82.2856320000003,
                    "velocity": 0.48031496062992124,
                    "duration": 0.10267846874999975
                },
                {
                    "name": "D2",
                    "midi": 38,
                    "time": 82.3927747500003,
                    "velocity": 0.48031496062992124,
                    "duration": 0.10267846874999975
                },
                {
                    "name": "D3",
                    "midi": 50,
                    "time": 82.3927747500003,
                    "velocity": 0.48031496062992124,
                    "duration": 0.10267846874999975
                },
                {
                    "name": "D3",
                    "midi": 50,
                    "time": 82.4999175000003,
                    "velocity": 0.48031496062992124,
                    "duration": 0.10267846874999975
                },
                {
                    "name": "D3",
                    "midi": 50,
                    "time": 82.60706025000029,
                    "velocity": 0.48031496062992124,
                    "duration": 0.10267846874999975
                },
                {
                    "name": "D2",
                    "midi": 38,
                    "time": 82.60706025000029,
                    "velocity": 0.48031496062992124,
                    "duration": 0.10267846874999975
                },
                {
                    "name": "D3",
                    "midi": 50,
                    "time": 82.71420300000028,
                    "velocity": 0.48031496062992124,
                    "duration": 0.10267846874999975
                },
                {
                    "name": "D3",
                    "midi": 50,
                    "time": 82.82134575000028,
                    "velocity": 0.48031496062992124,
                    "duration": 0.10267846874999975
                },
                {
                    "name": "D2",
                    "midi": 38,
                    "time": 82.82134575000028,
                    "velocity": 0.48031496062992124,
                    "duration": 0.10267846874999975
                },
                {
                    "name": "D3",
                    "midi": 50,
                    "time": 82.92848850000027,
                    "velocity": 0.48031496062992124,
                    "duration": 0.10267846874999975
                },
                {
                    "name": "D3",
                    "midi": 50,
                    "time": 83.03563125000026,
                    "velocity": 0.48031496062992124,
                    "duration": 0.10267846874999975
                },
                {
                    "name": "D2",
                    "midi": 38,
                    "time": 83.03563125000026,
                    "velocity": 0.48031496062992124,
                    "duration": 0.10267846874999975
                },
                {
                    "name": "F#3",
                    "midi": 54,
                    "time": 83.14277400000026,
                    "velocity": 0.48031496062992124,
                    "duration": 0.10267846874999975
                },
                {
                    "name": "C3",
                    "midi": 48,
                    "time": 83.14277400000026,
                    "velocity": 0.48031496062992124,
                    "duration": 0.10267846874999975
                },
                {
                    "name": "D#3",
                    "midi": 51,
                    "time": 83.14277400000026,
                    "velocity": 0.48031496062992124,
                    "duration": 0.10267846874999975
                },
                {
                    "name": "D3",
                    "midi": 50,
                    "time": 83.24991675000025,
                    "velocity": 0.48031496062992124,
                    "duration": 0.10267846874999975
                },
                {
                    "name": "D2",
                    "midi": 38,
                    "time": 83.24991675000025,
                    "velocity": 0.48031496062992124,
                    "duration": 0.10267846874999975
                },
                {
                    "name": "D3",
                    "midi": 50,
                    "time": 83.35705950000025,
                    "velocity": 0.48031496062992124,
                    "duration": 0.10267846874999975
                },
                {
                    "name": "D3",
                    "midi": 50,
                    "time": 83.46420225000024,
                    "velocity": 0.48031496062992124,
                    "duration": 0.10267846874999975
                },
                {
                    "name": "D2",
                    "midi": 38,
                    "time": 83.46420225000024,
                    "velocity": 0.48031496062992124,
                    "duration": 0.10267846874999975
                },
                {
                    "name": "D3",
                    "midi": 50,
                    "time": 83.57134500000024,
                    "velocity": 0.48031496062992124,
                    "duration": 0.10267846874999975
                },
                {
                    "name": "D3",
                    "midi": 50,
                    "time": 83.67848775000023,
                    "velocity": 0.48031496062992124,
                    "duration": 0.10267846874999975
                },
                {
                    "name": "D2",
                    "midi": 38,
                    "time": 83.67848775000023,
                    "velocity": 0.48031496062992124,
                    "duration": 0.10267846874999975
                },
                {
                    "name": "D3",
                    "midi": 50,
                    "time": 83.78563050000022,
                    "velocity": 0.48031496062992124,
                    "duration": 0.10267846874999975
                },
                {
                    "name": "D3",
                    "midi": 50,
                    "time": 83.89277325000022,
                    "velocity": 0.48031496062992124,
                    "duration": 0.10267846874999975
                },
                {
                    "name": "D2",
                    "midi": 38,
                    "time": 83.89277325000022,
                    "velocity": 0.48031496062992124,
                    "duration": 0.10267846874999975
                },
                {
                    "name": "D2",
                    "midi": 38,
                    "time": 83.99991600000021,
                    "velocity": 0.48031496062992124,
                    "duration": 0.10267846874999975
                },
                {
                    "name": "D3",
                    "midi": 50,
                    "time": 84.1070587500002,
                    "velocity": 0.48031496062992124,
                    "duration": 0.10267846874999975
                },
                {
                    "name": "D2",
                    "midi": 38,
                    "time": 84.1070587500002,
                    "velocity": 0.48031496062992124,
                    "duration": 0.10267846874999975
                },
                {
                    "name": "D2",
                    "midi": 38,
                    "time": 84.2142015000002,
                    "velocity": 0.48031496062992124,
                    "duration": 0.10267846874999975
                },
                {
                    "name": "D3",
                    "midi": 50,
                    "time": 84.3213442500002,
                    "velocity": 0.48031496062992124,
                    "duration": 0.10267846874999975
                },
                {
                    "name": "D2",
                    "midi": 38,
                    "time": 84.3213442500002,
                    "velocity": 0.48031496062992124,
                    "duration": 0.10267846874999975
                },
                {
                    "name": "D2",
                    "midi": 38,
                    "time": 84.42848700000019,
                    "velocity": 0.48031496062992124,
                    "duration": 0.10267846874999975
                },
                {
                    "name": "D3",
                    "midi": 50,
                    "time": 84.53562975000018,
                    "velocity": 0.48031496062992124,
                    "duration": 0.10267846874999975
                },
                {
                    "name": "D2",
                    "midi": 38,
                    "time": 84.53562975000018,
                    "velocity": 0.48031496062992124,
                    "duration": 0.10267846874999975
                },
                {
                    "name": "D2",
                    "midi": 38,
                    "time": 84.64277250000018,
                    "velocity": 0.48031496062992124,
                    "duration": 0.10267846874999975
                },
                {
                    "name": "D3",
                    "midi": 50,
                    "time": 84.74991525000017,
                    "velocity": 0.48031496062992124,
                    "duration": 0.10267846874999975
                },
                {
                    "name": "D2",
                    "midi": 38,
                    "time": 84.74991525000017,
                    "velocity": 0.48031496062992124,
                    "duration": 0.10267846874999975
                },
                {
                    "name": "D3",
                    "midi": 50,
                    "time": 84.85705800000017,
                    "velocity": 0.48031496062992124,
                    "duration": 0.10267846874999975
                },
                {
                    "name": "D3",
                    "midi": 50,
                    "time": 84.96420075000016,
                    "velocity": 0.48031496062992124,
                    "duration": 0.10267846874999975
                },
                {
                    "name": "D2",
                    "midi": 38,
                    "time": 84.96420075000016,
                    "velocity": 0.48031496062992124,
                    "duration": 0.10267846874999975
                },
                {
                    "name": "D3",
                    "midi": 50,
                    "time": 85.07134350000015,
                    "velocity": 0.48031496062992124,
                    "duration": 0.10267846874999975
                },
                {
                    "name": "D2",
                    "midi": 38,
                    "time": 85.17848625000015,
                    "velocity": 0.48031496062992124,
                    "duration": 0.10267846874999975
                },
                {
                    "name": "D3",
                    "midi": 50,
                    "time": 85.17848625000015,
                    "velocity": 0.48031496062992124,
                    "duration": 0.10267846874999975
                },
                {
                    "name": "D3",
                    "midi": 50,
                    "time": 85.28562900000014,
                    "velocity": 0.48031496062992124,
                    "duration": 0.10267846874999975
                },
                {
                    "name": "D3",
                    "midi": 50,
                    "time": 85.39277175000014,
                    "velocity": 0.48031496062992124,
                    "duration": 0.10267846874999975
                },
                {
                    "name": "D2",
                    "midi": 38,
                    "time": 85.39277175000014,
                    "velocity": 0.48031496062992124,
                    "duration": 0.10267846874999975
                },
                {
                    "name": "F#3",
                    "midi": 54,
                    "time": 85.49991450000013,
                    "velocity": 0.48031496062992124,
                    "duration": 0.10267846874999975
                },
                {
                    "name": "C3",
                    "midi": 48,
                    "time": 85.49991450000013,
                    "velocity": 0.48031496062992124,
                    "duration": 0.10267846874999975
                },
                {
                    "name": "D#3",
                    "midi": 51,
                    "time": 85.49991450000013,
                    "velocity": 0.48031496062992124,
                    "duration": 0.10267846874999975
                },
                {
                    "name": "D2",
                    "midi": 38,
                    "time": 85.60705725000012,
                    "velocity": 0.48031496062992124,
                    "duration": 0.10267846874999975
                },
                {
                    "name": "D3",
                    "midi": 50,
                    "time": 85.60705725000012,
                    "velocity": 0.48031496062992124,
                    "duration": 0.10267846874999975
                },
                {
                    "name": "E3",
                    "midi": 52,
                    "time": 85.71420000000012,
                    "velocity": 0.48031496062992124,
                    "duration": 0.10267846874999975
                },
                {
                    "name": "C3",
                    "midi": 48,
                    "time": 85.71420000000012,
                    "velocity": 0.48031496062992124,
                    "duration": 0.10267846874999975
                },
                {
                    "name": "D2",
                    "midi": 38,
                    "time": 85.82134275000011,
                    "velocity": 0.48031496062992124,
                    "duration": 0.10267846874999975
                },
                {
                    "name": "D3",
                    "midi": 50,
                    "time": 85.82134275000011,
                    "velocity": 0.48031496062992124,
                    "duration": 0.10267846874999975
                },
                {
                    "name": "C3",
                    "midi": 48,
                    "time": 85.92848550000011,
                    "velocity": 0.48031496062992124,
                    "duration": 0.10267846874999975
                },
                {
                    "name": "E3",
                    "midi": 52,
                    "time": 85.92848550000011,
                    "velocity": 0.48031496062992124,
                    "duration": 0.10267846874999975
                },
                {
                    "name": "D2",
                    "midi": 38,
                    "time": 86.0356282500001,
                    "velocity": 0.48031496062992124,
                    "duration": 0.10267846874999975
                },
                {
                    "name": "D3",
                    "midi": 50,
                    "time": 86.0356282500001,
                    "velocity": 0.48031496062992124,
                    "duration": 0.10267846874999975
                },
                {
                    "name": "E3",
                    "midi": 52,
                    "time": 86.1427710000001,
                    "velocity": 0.48031496062992124,
                    "duration": 0.10267846874999975
                },
                {
                    "name": "C3",
                    "midi": 48,
                    "time": 86.1427710000001,
                    "velocity": 0.48031496062992124,
                    "duration": 0.10267846874999975
                },
                {
                    "name": "D2",
                    "midi": 38,
                    "time": 86.24991375000009,
                    "velocity": 0.48031496062992124,
                    "duration": 0.10267846874999975
                },
                {
                    "name": "D3",
                    "midi": 50,
                    "time": 86.24991375000009,
                    "velocity": 0.48031496062992124,
                    "duration": 0.10267846874999975
                },
                {
                    "name": "E3",
                    "midi": 52,
                    "time": 86.35705650000008,
                    "velocity": 0.48031496062992124,
                    "duration": 0.10267846874999975
                },
                {
                    "name": "C3",
                    "midi": 48,
                    "time": 86.35705650000008,
                    "velocity": 0.48031496062992124,
                    "duration": 0.10267846874999975
                },
                {
                    "name": "D2",
                    "midi": 38,
                    "time": 86.46419925000008,
                    "velocity": 0.48031496062992124,
                    "duration": 0.10267846874999975
                },
                {
                    "name": "D3",
                    "midi": 50,
                    "time": 86.46419925000008,
                    "velocity": 0.48031496062992124,
                    "duration": 0.10267846874999975
                },
                {
                    "name": "E3",
                    "midi": 52,
                    "time": 86.57134200000007,
                    "velocity": 0.48031496062992124,
                    "duration": 0.10267846874999975
                },
                {
                    "name": "C3",
                    "midi": 48,
                    "time": 86.57134200000007,
                    "velocity": 0.48031496062992124,
                    "duration": 0.10267846874999975
                },
                {
                    "name": "D2",
                    "midi": 38,
                    "time": 86.67848475000007,
                    "velocity": 0.48031496062992124,
                    "duration": 0.10267846874999975
                },
                {
                    "name": "D3",
                    "midi": 50,
                    "time": 86.67848475000007,
                    "velocity": 0.48031496062992124,
                    "duration": 0.10267846874999975
                },
                {
                    "name": "E3",
                    "midi": 52,
                    "time": 86.78562750000006,
                    "velocity": 0.48031496062992124,
                    "duration": 0.10267846874999975
                },
                {
                    "name": "C3",
                    "midi": 48,
                    "time": 86.78562750000006,
                    "velocity": 0.48031496062992124,
                    "duration": 0.10267846874999975
                },
                {
                    "name": "D3",
                    "midi": 50,
                    "time": 86.89277025000005,
                    "velocity": 0.48031496062992124,
                    "duration": 0.10267846874999975
                },
                {
                    "name": "D2",
                    "midi": 38,
                    "time": 86.89277025000005,
                    "velocity": 0.48031496062992124,
                    "duration": 0.10267846874999975
                },
                {
                    "name": "E3",
                    "midi": 52,
                    "time": 86.99991300000005,
                    "velocity": 0.48031496062992124,
                    "duration": 0.10267846874999975
                },
                {
                    "name": "C3",
                    "midi": 48,
                    "time": 86.99991300000005,
                    "velocity": 0.48031496062992124,
                    "duration": 0.10267846874999975
                },
                {
                    "name": "D3",
                    "midi": 50,
                    "time": 87.10705575000004,
                    "velocity": 0.48031496062992124,
                    "duration": 0.10267846874999975
                },
                {
                    "name": "D2",
                    "midi": 38,
                    "time": 87.10705575000004,
                    "velocity": 0.48031496062992124,
                    "duration": 0.10267846874999975
                },
                {
                    "name": "E3",
                    "midi": 52,
                    "time": 87.21419850000004,
                    "velocity": 0.48031496062992124,
                    "duration": 0.10267846874999975
                },
                {
                    "name": "C3",
                    "midi": 48,
                    "time": 87.21419850000004,
                    "velocity": 0.48031496062992124,
                    "duration": 0.10267846874999975
                },
                {
                    "name": "D2",
                    "midi": 38,
                    "time": 87.32134125000003,
                    "velocity": 0.48031496062992124,
                    "duration": 0.10267846874999975
                },
                {
                    "name": "D3",
                    "midi": 50,
                    "time": 87.32134125000003,
                    "velocity": 0.48031496062992124,
                    "duration": 0.10267846874999975
                },
                {
                    "name": "C3",
                    "midi": 48,
                    "time": 87.42848400000003,
                    "velocity": 0.48031496062992124,
                    "duration": 0.10267846874999975
                },
                {
                    "name": "E3",
                    "midi": 52,
                    "time": 87.42848400000003,
                    "velocity": 0.48031496062992124,
                    "duration": 0.10267846874999975
                },
                {
                    "name": "G3",
                    "midi": 55,
                    "time": 87.42848400000003,
                    "velocity": 0.48031496062992124,
                    "duration": 0.10267846874999975
                },
                {
                    "name": "D3",
                    "midi": 50,
                    "time": 87.53562675000002,
                    "velocity": 0.48031496062992124,
                    "duration": 0.10267846874999975
                },
                {
                    "name": "D2",
                    "midi": 38,
                    "time": 87.53562675000002,
                    "velocity": 0.48031496062992124,
                    "duration": 0.10267846874999975
                },
                {
                    "name": "G3",
                    "midi": 55,
                    "time": 87.64276950000001,
                    "velocity": 0.48031496062992124,
                    "duration": 0.10267846874999975
                },
                {
                    "name": "E3",
                    "midi": 52,
                    "time": 87.64276950000001,
                    "velocity": 0.48031496062992124,
                    "duration": 0.10267846874999975
                },
                {
                    "name": "C3",
                    "midi": 48,
                    "time": 87.64276950000001,
                    "velocity": 0.48031496062992124,
                    "duration": 0.10267846874999975
                },
                {
                    "name": "D3",
                    "midi": 50,
                    "time": 87.74991225000001,
                    "velocity": 0.48031496062992124,
                    "duration": 0.10267846874999975
                },
                {
                    "name": "D2",
                    "midi": 38,
                    "time": 87.74991225000001,
                    "velocity": 0.48031496062992124,
                    "duration": 0.10267846874999975
                },
                {
                    "name": "C3",
                    "midi": 48,
                    "time": 87.857055,
                    "velocity": 0.48031496062992124,
                    "duration": 0.10267846874999975
                },
                {
                    "name": "E3",
                    "midi": 52,
                    "time": 87.857055,
                    "velocity": 0.48031496062992124,
                    "duration": 0.10267846874999975
                },
                {
                    "name": "G3",
                    "midi": 55,
                    "time": 87.857055,
                    "velocity": 0.48031496062992124,
                    "duration": 0.10267846874999975
                },
                {
                    "name": "D3",
                    "midi": 50,
                    "time": 87.96419775,
                    "velocity": 0.48031496062992124,
                    "duration": 0.10267846874999975
                },
                {
                    "name": "D2",
                    "midi": 38,
                    "time": 87.96419775,
                    "velocity": 0.48031496062992124,
                    "duration": 0.10267846874999975
                },
                {
                    "name": "C3",
                    "midi": 48,
                    "time": 88.07134049999999,
                    "velocity": 0.48031496062992124,
                    "duration": 0.10267846874999975
                },
                {
                    "name": "G3",
                    "midi": 55,
                    "time": 88.07134049999999,
                    "velocity": 0.48031496062992124,
                    "duration": 0.10267846874999975
                },
                {
                    "name": "E3",
                    "midi": 52,
                    "time": 88.07134049999999,
                    "velocity": 0.48031496062992124,
                    "duration": 0.10267846874999975
                },
                {
                    "name": "D3",
                    "midi": 50,
                    "time": 88.17848324999999,
                    "velocity": 0.48031496062992124,
                    "duration": 0.10267846874999975
                },
                {
                    "name": "D2",
                    "midi": 38,
                    "time": 88.17848324999999,
                    "velocity": 0.48031496062992124,
                    "duration": 0.10267846874999975
                },
                {
                    "name": "C3",
                    "midi": 48,
                    "time": 88.28562599999998,
                    "velocity": 0.48031496062992124,
                    "duration": 0.10267846874999975
                },
                {
                    "name": "G3",
                    "midi": 55,
                    "time": 88.28562599999998,
                    "velocity": 0.48031496062992124,
                    "duration": 0.10267846874999975
                },
                {
                    "name": "E3",
                    "midi": 52,
                    "time": 88.28562599999998,
                    "velocity": 0.48031496062992124,
                    "duration": 0.10267846874999975
                },
                {
                    "name": "D3",
                    "midi": 50,
                    "time": 88.39276874999997,
                    "velocity": 0.48031496062992124,
                    "duration": 0.10267846874999975
                },
                {
                    "name": "D2",
                    "midi": 38,
                    "time": 88.39276874999997,
                    "velocity": 0.48031496062992124,
                    "duration": 0.10267846874999975
                },
                {
                    "name": "C3",
                    "midi": 48,
                    "time": 88.49991149999997,
                    "velocity": 0.48031496062992124,
                    "duration": 0.10267846874999975
                },
                {
                    "name": "G3",
                    "midi": 55,
                    "time": 88.49991149999997,
                    "velocity": 0.48031496062992124,
                    "duration": 0.10267846874999975
                },
                {
                    "name": "E3",
                    "midi": 52,
                    "time": 88.49991149999997,
                    "velocity": 0.48031496062992124,
                    "duration": 0.10267846874999975
                },
                {
                    "name": "D3",
                    "midi": 50,
                    "time": 88.60705424999996,
                    "velocity": 0.48031496062992124,
                    "duration": 0.10267846874999975
                },
                {
                    "name": "D2",
                    "midi": 38,
                    "time": 88.60705424999996,
                    "velocity": 0.48031496062992124,
                    "duration": 0.10267846874999975
                },
                {
                    "name": "C3",
                    "midi": 48,
                    "time": 88.71419699999996,
                    "velocity": 0.48031496062992124,
                    "duration": 0.10267846874999975
                },
                {
                    "name": "G3",
                    "midi": 55,
                    "time": 88.71419699999996,
                    "velocity": 0.48031496062992124,
                    "duration": 0.10267846874999975
                },
                {
                    "name": "E3",
                    "midi": 52,
                    "time": 88.71419699999996,
                    "velocity": 0.48031496062992124,
                    "duration": 0.10267846874999975
                },
                {
                    "name": "D3",
                    "midi": 50,
                    "time": 88.82133974999995,
                    "velocity": 0.48031496062992124,
                    "duration": 0.10267846874999975
                },
                {
                    "name": "D2",
                    "midi": 38,
                    "time": 88.82133974999995,
                    "velocity": 0.48031496062992124,
                    "duration": 0.10267846874999975
                },
                {
                    "name": "D3",
                    "midi": 50,
                    "time": 88.92848249999994,
                    "velocity": 0.48031496062992124,
                    "duration": 0.10267846874999975
                },
                {
                    "name": "F3",
                    "midi": 53,
                    "time": 88.92848249999994,
                    "velocity": 0.48031496062992124,
                    "duration": 0.10267846874999975
                },
                {
                    "name": "E3",
                    "midi": 52,
                    "time": 89.03562524999994,
                    "velocity": 0.48031496062992124,
                    "duration": 0.10267846874999975
                },
                {
                    "name": "D3",
                    "midi": 50,
                    "time": 89.03562524999994,
                    "velocity": 0.48031496062992124,
                    "duration": 0.10267846874999975
                },
                {
                    "name": "D2",
                    "midi": 38,
                    "time": 89.03562524999994,
                    "velocity": 0.48031496062992124,
                    "duration": 0.10267846874999975
                },
                {
                    "name": "D3",
                    "midi": 50,
                    "time": 89.14276799999993,
                    "velocity": 0.48031496062992124,
                    "duration": 0.10267846874999975
                },
                {
                    "name": "D3",
                    "midi": 50,
                    "time": 89.24991074999993,
                    "velocity": 0.48031496062992124,
                    "duration": 0.10267846874999975
                },
                {
                    "name": "D2",
                    "midi": 38,
                    "time": 89.24991074999993,
                    "velocity": 0.48031496062992124,
                    "duration": 0.10267846874999975
                },
                {
                    "name": "D3",
                    "midi": 50,
                    "time": 89.35705349999992,
                    "velocity": 0.48031496062992124,
                    "duration": 0.10267846874999975
                },
                {
                    "name": "D2",
                    "midi": 38,
                    "time": 89.46419624999992,
                    "velocity": 0.48031496062992124,
                    "duration": 0.10267846874999975
                },
                {
                    "name": "D3",
                    "midi": 50,
                    "time": 89.46419624999992,
                    "velocity": 0.48031496062992124,
                    "duration": 0.10267846874999975
                },
                {
                    "name": "D3",
                    "midi": 50,
                    "time": 89.57133899999991,
                    "velocity": 0.48031496062992124,
                    "duration": 0.10267846874999975
                },
                {
                    "name": "D2",
                    "midi": 38,
                    "time": 89.6784817499999,
                    "velocity": 0.48031496062992124,
                    "duration": 0.10267846874999975
                },
                {
                    "name": "D3",
                    "midi": 50,
                    "time": 89.6784817499999,
                    "velocity": 0.48031496062992124,
                    "duration": 0.10267846874999975
                },
                {
                    "name": "D3",
                    "midi": 50,
                    "time": 89.7856244999999,
                    "velocity": 0.48031496062992124,
                    "duration": 0.10267846874999975
                },
                {
                    "name": "D2",
                    "midi": 38,
                    "time": 89.89276724999989,
                    "velocity": 0.48031496062992124,
                    "duration": 0.10267846874999975
                },
                {
                    "name": "D3",
                    "midi": 50,
                    "time": 89.89276724999989,
                    "velocity": 0.48031496062992124,
                    "duration": 0.10267846874999975
                },
                {
                    "name": "D3",
                    "midi": 50,
                    "time": 89.99990999999989,
                    "velocity": 0.48031496062992124,
                    "duration": 0.10267846874999975
                },
                {
                    "name": "D3",
                    "midi": 50,
                    "time": 90.10705274999988,
                    "velocity": 0.48031496062992124,
                    "duration": 0.10267846874999975
                },
                {
                    "name": "D2",
                    "midi": 38,
                    "time": 90.10705274999988,
                    "velocity": 0.48031496062992124,
                    "duration": 0.10267846874999975
                },
                {
                    "name": "D3",
                    "midi": 50,
                    "time": 90.21419549999987,
                    "velocity": 0.48031496062992124,
                    "duration": 0.10267846874999975
                },
                {
                    "name": "D2",
                    "midi": 38,
                    "time": 90.32133824999987,
                    "velocity": 0.48031496062992124,
                    "duration": 0.10267846874999975
                },
                {
                    "name": "D3",
                    "midi": 50,
                    "time": 90.32133824999987,
                    "velocity": 0.48031496062992124,
                    "duration": 0.10267846874999975
                },
                {
                    "name": "D3",
                    "midi": 50,
                    "time": 90.42848099999986,
                    "velocity": 0.48031496062992124,
                    "duration": 0.10267846874999975
                },
                {
                    "name": "D2",
                    "midi": 38,
                    "time": 90.53562374999986,
                    "velocity": 0.48031496062992124,
                    "duration": 0.10267846874999975
                },
                {
                    "name": "D3",
                    "midi": 50,
                    "time": 90.53562374999986,
                    "velocity": 0.48031496062992124,
                    "duration": 0.10267846874999975
                },
                {
                    "name": "D3",
                    "midi": 50,
                    "time": 90.64276649999985,
                    "velocity": 0.48031496062992124,
                    "duration": 0.10267846874999975
                },
                {
                    "name": "D2",
                    "midi": 38,
                    "time": 90.74990924999985,
                    "velocity": 0.48031496062992124,
                    "duration": 0.10267846874999975
                },
                {
                    "name": "D3",
                    "midi": 50,
                    "time": 90.74990924999985,
                    "velocity": 0.48031496062992124,
                    "duration": 0.10267846874999975
                },
                {
                    "name": "D3",
                    "midi": 50,
                    "time": 90.85705199999984,
                    "velocity": 0.48031496062992124,
                    "duration": 0.10267846874999975
                },
                {
                    "name": "D2",
                    "midi": 38,
                    "time": 90.96419474999983,
                    "velocity": 0.48031496062992124,
                    "duration": 0.10267846874999975
                },
                {
                    "name": "D3",
                    "midi": 50,
                    "time": 90.96419474999983,
                    "velocity": 0.48031496062992124,
                    "duration": 0.10267846874999975
                },
                {
                    "name": "D3",
                    "midi": 50,
                    "time": 91.07133749999983,
                    "velocity": 0.48031496062992124,
                    "duration": 0.10267846874999975
                },
                {
                    "name": "D2",
                    "midi": 38,
                    "time": 91.17848024999982,
                    "velocity": 0.48031496062992124,
                    "duration": 0.10267846874999975
                },
                {
                    "name": "D3",
                    "midi": 50,
                    "time": 91.17848024999982,
                    "velocity": 0.48031496062992124,
                    "duration": 0.10267846874999975
                },
                {
                    "name": "D3",
                    "midi": 50,
                    "time": 91.28562299999982,
                    "velocity": 0.48031496062992124,
                    "duration": 0.10267846874999975
                },
                {
                    "name": "D2",
                    "midi": 38,
                    "time": 91.39276574999981,
                    "velocity": 0.48031496062992124,
                    "duration": 0.10267846874999975
                },
                {
                    "name": "D3",
                    "midi": 50,
                    "time": 91.39276574999981,
                    "velocity": 0.48031496062992124,
                    "duration": 0.10267846874999975
                },
                {
                    "name": "D3",
                    "midi": 50,
                    "time": 91.4999084999998,
                    "velocity": 0.48031496062992124,
                    "duration": 0.10267846874999975
                },
                {
                    "name": "D2",
                    "midi": 38,
                    "time": 91.6070512499998,
                    "velocity": 0.48031496062992124,
                    "duration": 0.10267846874999975
                },
                {
                    "name": "D3",
                    "midi": 50,
                    "time": 91.6070512499998,
                    "velocity": 0.48031496062992124,
                    "duration": 0.10267846874999975
                },
                {
                    "name": "D3",
                    "midi": 50,
                    "time": 91.7141939999998,
                    "velocity": 0.48031496062992124,
                    "duration": 0.10267846874999975
                },
                {
                    "name": "D2",
                    "midi": 38,
                    "time": 91.82133674999979,
                    "velocity": 0.48031496062992124,
                    "duration": 0.10267846874999975
                },
                {
                    "name": "D3",
                    "midi": 50,
                    "time": 91.82133674999979,
                    "velocity": 0.48031496062992124,
                    "duration": 0.10267846874999975
                },
                {
                    "name": "D3",
                    "midi": 50,
                    "time": 91.92847949999978,
                    "velocity": 0.48031496062992124,
                    "duration": 0.10267846874999975
                },
                {
                    "name": "D3",
                    "midi": 50,
                    "time": 92.03562224999978,
                    "velocity": 0.48031496062992124,
                    "duration": 0.10267846874999975
                },
                {
                    "name": "D2",
                    "midi": 38,
                    "time": 92.03562224999978,
                    "velocity": 0.48031496062992124,
                    "duration": 0.10267846874999975
                },
                {
                    "name": "D3",
                    "midi": 50,
                    "time": 92.14276499999977,
                    "velocity": 0.48031496062992124,
                    "duration": 0.10267846874999975
                },
                {
                    "name": "D3",
                    "midi": 50,
                    "time": 92.24990774999976,
                    "velocity": 0.48031496062992124,
                    "duration": 0.10267846874999975
                },
                {
                    "name": "D2",
                    "midi": 38,
                    "time": 92.24990774999976,
                    "velocity": 0.48031496062992124,
                    "duration": 0.10267846874999975
                },
                {
                    "name": "D3",
                    "midi": 50,
                    "time": 92.35705049999976,
                    "velocity": 0.48031496062992124,
                    "duration": 0.10267846874999975
                },
                {
                    "name": "D3",
                    "midi": 50,
                    "time": 92.46419324999975,
                    "velocity": 0.48031496062992124,
                    "duration": 0.10267846874999975
                },
                {
                    "name": "D2",
                    "midi": 38,
                    "time": 92.46419324999975,
                    "velocity": 0.48031496062992124,
                    "duration": 0.10267846874999975
                },
                {
                    "name": "D3",
                    "midi": 50,
                    "time": 92.57133599999975,
                    "velocity": 0.48031496062992124,
                    "duration": 0.20982121874999393
                },
                {
                    "name": "D3",
                    "midi": 50,
                    "time": 92.78562149999973,
                    "velocity": 0.48031496062992124,
                    "duration": 0.20982121874999393
                },
                {
                    "name": "D2",
                    "midi": 38,
                    "time": 92.78562149999973,
                    "velocity": 0.48031496062992124,
                    "duration": 0.20982121874999393
                },
                {
                    "name": "D3",
                    "midi": 50,
                    "time": 92.99990699999972,
                    "velocity": 0.48031496062992124,
                    "duration": 0.20982121874999393
                },
                {
                    "name": "D2",
                    "midi": 38,
                    "time": 93.21419249999971,
                    "velocity": 0.48031496062992124,
                    "duration": 0.20982121874999393
                },
                {
                    "name": "D3",
                    "midi": 50,
                    "time": 93.21419249999971,
                    "velocity": 0.48031496062992124,
                    "duration": 0.20982121874999393
                },
                {
                    "name": "D3",
                    "midi": 50,
                    "time": 93.4284779999997,
                    "velocity": 0.48031496062992124,
                    "duration": 0.20982121874999393
                },
                {
                    "name": "D2",
                    "midi": 38,
                    "time": 93.64276349999969,
                    "velocity": 0.48031496062992124,
                    "duration": 0.20982121874999393
                },
                {
                    "name": "D3",
                    "midi": 50,
                    "time": 93.64276349999969,
                    "velocity": 0.48031496062992124,
                    "duration": 0.20982121874999393
                },
                {
                    "name": "D#3",
                    "midi": 51,
                    "time": 94.49990549999968,
                    "velocity": 0.48031496062992124,
                    "duration": 0.10267846874999975
                },
                {
                    "name": "F#3",
                    "midi": 54,
                    "time": 94.60704824999968,
                    "velocity": 0.48031496062992124,
                    "duration": 0.10267846874999975
                },
                {
                    "name": "A#3",
                    "midi": 58,
                    "time": 94.71419099999967,
                    "velocity": 0.48031496062992124,
                    "duration": 0.10267846874999975
                },
                {
                    "name": "A#3",
                    "midi": 58,
                    "time": 94.82133374999967,
                    "velocity": 0.48031496062992124,
                    "duration": 0.10267846874999975
                },
                {
                    "name": "F#3",
                    "midi": 54,
                    "time": 94.92847649999966,
                    "velocity": 0.48031496062992124,
                    "duration": 0.10267846874999975
                },
                {
                    "name": "A#3",
                    "midi": 58,
                    "time": 95.03561924999966,
                    "velocity": 0.48031496062992124,
                    "duration": 0.10267846874999975
                },
                {
                    "name": "D#3",
                    "midi": 51,
                    "time": 95.14276199999965,
                    "velocity": 0.48031496062992124,
                    "duration": 0.10267846874999975
                },
                {
                    "name": "D#3",
                    "midi": 51,
                    "time": 95.24990474999964,
                    "velocity": 0.48031496062992124,
                    "duration": 0.10267846874999975
                },
                {
                    "name": "G4",
                    "midi": 67,
                    "time": 95.35704749999964,
                    "velocity": 0.48031496062992124,
                    "duration": 0.10267846874999975
                },
                {
                    "name": "A#4",
                    "midi": 70,
                    "time": 95.46419024999963,
                    "velocity": 0.48031496062992124,
                    "duration": 0.10267846874999975
                },
                {
                    "name": "D5",
                    "midi": 74,
                    "time": 95.57133299999963,
                    "velocity": 0.48031496062992124,
                    "duration": 0.10267846874999975
                },
                {
                    "name": "D5",
                    "midi": 74,
                    "time": 95.67847574999962,
                    "velocity": 0.48031496062992124,
                    "duration": 0.10267846874999975
                },
                {
                    "name": "A#4",
                    "midi": 70,
                    "time": 95.78561849999961,
                    "velocity": 0.48031496062992124,
                    "duration": 0.10267846874999975
                },
                {
                    "name": "D5",
                    "midi": 74,
                    "time": 95.89276124999961,
                    "velocity": 0.48031496062992124,
                    "duration": 0.10267846874999975
                },
                {
                    "name": "G4",
                    "midi": 67,
                    "time": 95.9999039999996,
                    "velocity": 0.48031496062992124,
                    "duration": 0.10267846874999975
                },
                {
                    "name": "G4",
                    "midi": 67,
                    "time": 96.1070467499996,
                    "velocity": 0.48031496062992124,
                    "duration": 0.10267846874999975
                },
                {
                    "name": "D#4",
                    "midi": 63,
                    "time": 96.21418949999959,
                    "velocity": 0.48031496062992124,
                    "duration": 0.10267846874999975
                },
                {
                    "name": "F#4",
                    "midi": 66,
                    "time": 96.32133224999959,
                    "velocity": 0.48031496062992124,
                    "duration": 0.10267846874999975
                },
                {
                    "name": "A#4",
                    "midi": 70,
                    "time": 96.42847499999958,
                    "velocity": 0.48031496062992124,
                    "duration": 0.10267846874999975
                },
                {
                    "name": "A#4",
                    "midi": 70,
                    "time": 96.53561774999957,
                    "velocity": 0.48031496062992124,
                    "duration": 0.10267846874999975
                },
                {
                    "name": "F#4",
                    "midi": 66,
                    "time": 96.64276049999957,
                    "velocity": 0.48031496062992124,
                    "duration": 0.10267846874999975
                },
                {
                    "name": "A#4",
                    "midi": 70,
                    "time": 96.74990324999956,
                    "velocity": 0.48031496062992124,
                    "duration": 0.10267846874999975
                },
                {
                    "name": "D#4",
                    "midi": 63,
                    "time": 96.85704599999956,
                    "velocity": 0.48031496062992124,
                    "duration": 0.10267846874999975
                },
                {
                    "name": "D#4",
                    "midi": 63,
                    "time": 96.96418874999955,
                    "velocity": 0.48031496062992124,
                    "duration": 0.10267846874999975
                },
                {
                    "name": "B3",
                    "midi": 59,
                    "time": 97.07133149999954,
                    "velocity": 0.48031496062992124,
                    "duration": 0.10267846874999975
                },
                {
                    "name": "D4",
                    "midi": 62,
                    "time": 97.17847424999954,
                    "velocity": 0.48031496062992124,
                    "duration": 0.10267846874999975
                },
                {
                    "name": "F#4",
                    "midi": 66,
                    "time": 97.28561699999953,
                    "velocity": 0.48031496062992124,
                    "duration": 0.10267846874999975
                },
                {
                    "name": "F#4",
                    "midi": 66,
                    "time": 97.39275974999953,
                    "velocity": 0.48031496062992124,
                    "duration": 0.10267846874999975
                },
                {
                    "name": "D4",
                    "midi": 62,
                    "time": 97.49990249999952,
                    "velocity": 0.48031496062992124,
                    "duration": 0.10267846874999975
                },
                {
                    "name": "F#4",
                    "midi": 66,
                    "time": 97.60704524999952,
                    "velocity": 0.48031496062992124,
                    "duration": 0.10267846874999975
                },
                {
                    "name": "B3",
                    "midi": 59,
                    "time": 97.71418799999951,
                    "velocity": 0.48031496062992124,
                    "duration": 0.10267846874999975
                },
                {
                    "name": "B3",
                    "midi": 59,
                    "time": 97.8213307499995,
                    "velocity": 0.48031496062992124,
                    "duration": 0.10267846874999975
                },
                {
                    "name": "G3",
                    "midi": 55,
                    "time": 97.9284734999995,
                    "velocity": 0.48031496062992124,
                    "duration": 0.10267846874999975
                },
                {
                    "name": "A#3",
                    "midi": 58,
                    "time": 98.03561624999949,
                    "velocity": 0.48031496062992124,
                    "duration": 0.10267846874999975
                },
                {
                    "name": "D4",
                    "midi": 62,
                    "time": 98.14275899999949,
                    "velocity": 0.48031496062992124,
                    "duration": 0.10267846874999975
                },
                {
                    "name": "D4",
                    "midi": 62,
                    "time": 98.24990174999948,
                    "velocity": 0.48031496062992124,
                    "duration": 0.10267846874999975
                },
                {
                    "name": "A#3",
                    "midi": 58,
                    "time": 98.35704449999947,
                    "velocity": 0.48031496062992124,
                    "duration": 0.10267846874999975
                },
                {
                    "name": "D4",
                    "midi": 62,
                    "time": 98.46418724999947,
                    "velocity": 0.48031496062992124,
                    "duration": 0.10267846874999975
                },
                {
                    "name": "G3",
                    "midi": 55,
                    "time": 98.57132999999946,
                    "velocity": 0.48031496062992124,
                    "duration": 0.10267846874999975
                },
                {
                    "name": "G3",
                    "midi": 55,
                    "time": 98.67847274999946,
                    "velocity": 0.48031496062992124,
                    "duration": 0.10267846874999975
                },
                {
                    "name": "B4",
                    "midi": 71,
                    "time": 98.78561549999945,
                    "velocity": 0.48031496062992124,
                    "duration": 0.10267846874999975
                },
                {
                    "name": "D5",
                    "midi": 74,
                    "time": 98.89275824999945,
                    "velocity": 0.48031496062992124,
                    "duration": 0.10267846874999975
                },
                {
                    "name": "F#5",
                    "midi": 78,
                    "time": 98.99990099999944,
                    "velocity": 0.48031496062992124,
                    "duration": 0.10267846874999975
                },
                {
                    "name": "F#5",
                    "midi": 78,
                    "time": 99.10704374999943,
                    "velocity": 0.48031496062992124,
                    "duration": 0.10267846874999975
                },
                {
                    "name": "D5",
                    "midi": 74,
                    "time": 99.21418649999943,
                    "velocity": 0.48031496062992124,
                    "duration": 0.10267846874999975
                },
                {
                    "name": "F#5",
                    "midi": 78,
                    "time": 99.32132924999942,
                    "velocity": 0.48031496062992124,
                    "duration": 0.10267846874999975
                },
                {
                    "name": "B4",
                    "midi": 71,
                    "time": 99.42847199999942,
                    "velocity": 0.48031496062992124,
                    "duration": 0.10267846874999975
                },
                {
                    "name": "B4",
                    "midi": 71,
                    "time": 99.53561474999941,
                    "velocity": 0.48031496062992124,
                    "duration": 0.10267846874999975
                },
                {
                    "name": "G4",
                    "midi": 67,
                    "time": 99.6427574999994,
                    "velocity": 0.48031496062992124,
                    "duration": 0.10267846874999975
                },
                {
                    "name": "A#4",
                    "midi": 70,
                    "time": 99.7499002499994,
                    "velocity": 0.48031496062992124,
                    "duration": 0.10267846874999975
                },
                {
                    "name": "D5",
                    "midi": 74,
                    "time": 99.8570429999994,
                    "velocity": 0.48031496062992124,
                    "duration": 0.10267846874999975
                },
                {
                    "name": "D5",
                    "midi": 74,
                    "time": 99.96418574999939,
                    "velocity": 0.48031496062992124,
                    "duration": 0.10267846874999975
                },
                {
                    "name": "A#4",
                    "midi": 70,
                    "time": 100.07132849999938,
                    "velocity": 0.48031496062992124,
                    "duration": 0.10267846874999975
                },
                {
                    "name": "D5",
                    "midi": 74,
                    "time": 100.17847124999938,
                    "velocity": 0.48031496062992124,
                    "duration": 0.10267846874999975
                },
                {
                    "name": "G4",
                    "midi": 67,
                    "time": 100.28561399999937,
                    "velocity": 0.48031496062992124,
                    "duration": 0.10267846874999975
                },
                {
                    "name": "G4",
                    "midi": 67,
                    "time": 100.39275674999936,
                    "velocity": 0.48031496062992124,
                    "duration": 0.10267846874999975
                },
                {
                    "name": "D#4",
                    "midi": 63,
                    "time": 100.49989949999936,
                    "velocity": 0.48031496062992124,
                    "duration": 0.10267846874999975
                },
                {
                    "name": "F#4",
                    "midi": 66,
                    "time": 100.60704224999935,
                    "velocity": 0.48031496062992124,
                    "duration": 0.10267846874999975
                },
                {
                    "name": "A#4",
                    "midi": 70,
                    "time": 100.71418499999935,
                    "velocity": 0.48031496062992124,
                    "duration": 0.10267846874999975
                },
                {
                    "name": "A#4",
                    "midi": 70,
                    "time": 100.82132774999934,
                    "velocity": 0.48031496062992124,
                    "duration": 0.10267846874999975
                },
                {
                    "name": "G4",
                    "midi": 67,
                    "time": 100.92847049999934,
                    "velocity": 0.48031496062992124,
                    "duration": 0.10267846874999975
                },
                {
                    "name": "A#4",
                    "midi": 70,
                    "time": 101.03561324999933,
                    "velocity": 0.48031496062992124,
                    "duration": 0.10267846874999975
                },
                {
                    "name": "D5",
                    "midi": 74,
                    "time": 101.14275599999932,
                    "velocity": 0.48031496062992124,
                    "duration": 0.10267846874999975
                },
                {
                    "name": "D5",
                    "midi": 74,
                    "time": 101.24989874999932,
                    "velocity": 0.48031496062992124,
                    "duration": 0.10267846874999975
                },
                {
                    "name": "A#4",
                    "midi": 70,
                    "time": 101.35704149999931,
                    "velocity": 0.48031496062992124,
                    "duration": 0.10267846874999975
                },
                {
                    "name": "D5",
                    "midi": 74,
                    "time": 101.4641842499993,
                    "velocity": 0.48031496062992124,
                    "duration": 0.10267846874999975
                },
                {
                    "name": "G4",
                    "midi": 67,
                    "time": 101.5713269999993,
                    "velocity": 0.48031496062992124,
                    "duration": 0.10267846874999975
                },
                {
                    "name": "G4",
                    "midi": 67,
                    "time": 101.6784697499993,
                    "velocity": 0.48031496062992124,
                    "duration": 0.10267846874999975
                },
                {
                    "name": "G4",
                    "midi": 67,
                    "time": 101.78561249999929,
                    "velocity": 0.48031496062992124,
                    "duration": 0.10267846874999975
                },
                {
                    "name": "A#4",
                    "midi": 70,
                    "time": 101.89275524999928,
                    "velocity": 0.48031496062992124,
                    "duration": 0.10267846874999975
                },
                {
                    "name": "D5",
                    "midi": 74,
                    "time": 101.99989799999928,
                    "velocity": 0.48031496062992124,
                    "duration": 0.10267846874999975
                },
                {
                    "name": "D5",
                    "midi": 74,
                    "time": 102.10704074999927,
                    "velocity": 0.48031496062992124,
                    "duration": 0.10267846874999975
                },
                {
                    "name": "A#4",
                    "midi": 70,
                    "time": 102.21418349999927,
                    "velocity": 0.48031496062992124,
                    "duration": 0.10267846874999975
                },
                {
                    "name": "D5",
                    "midi": 74,
                    "time": 102.32132624999926,
                    "velocity": 0.48031496062992124,
                    "duration": 0.10267846874999975
                },
                {
                    "name": "G4",
                    "midi": 67,
                    "time": 102.42846899999925,
                    "velocity": 0.48031496062992124,
                    "duration": 0.10267846874999975
                },
                {
                    "name": "G4",
                    "midi": 67,
                    "time": 102.53561174999925,
                    "velocity": 0.48031496062992124,
                    "duration": 0.10267846874999975
                },
                {
                    "name": "G4",
                    "midi": 67,
                    "time": 102.64275449999924,
                    "velocity": 0.48031496062992124,
                    "duration": 0.10267846874999975
                },
                {
                    "name": "A#4",
                    "midi": 70,
                    "time": 102.74989724999924,
                    "velocity": 0.48031496062992124,
                    "duration": 0.10267846874999975
                },
                {
                    "name": "D5",
                    "midi": 74,
                    "time": 102.85703999999923,
                    "velocity": 0.48031496062992124,
                    "duration": 0.10267846874999975
                },
                {
                    "name": "D5",
                    "midi": 74,
                    "time": 102.96418274999922,
                    "velocity": 0.48031496062992124,
                    "duration": 0.10267846874999975
                },
                {
                    "name": "G5",
                    "midi": 79,
                    "time": 103.07132549999922,
                    "velocity": 0.48031496062992124,
                    "duration": 0.20982121874999393
                },
                {
                    "name": "C#5",
                    "midi": 73,
                    "time": 103.28561099999921,
                    "velocity": 0.48031496062992124,
                    "duration": 0.10267846874999975
                },
                {
                    "name": "A5",
                    "midi": 81,
                    "time": 103.3927537499992,
                    "velocity": 0.48031496062992124,
                    "duration": 0.10267846874999975
                },
                {
                    "name": "A5",
                    "midi": 81,
                    "time": 103.4998964999992,
                    "velocity": 0.48031496062992124,
                    "duration": 0.10267846874999975
                },
                {
                    "name": "G#5",
                    "midi": 80,
                    "time": 103.60703924999919,
                    "velocity": 0.48031496062992124,
                    "duration": 0.10267846874999975
                },
                {
                    "name": "G#5",
                    "midi": 80,
                    "time": 103.71418199999918,
                    "velocity": 0.48031496062992124,
                    "duration": 0.10267846874999975
                },
                {
                    "name": "D6",
                    "midi": 86,
                    "time": 103.82132474999918,
                    "velocity": 0.48031496062992124,
                    "duration": 0.10267846874999975
                },
                {
                    "name": "A#5",
                    "midi": 82,
                    "time": 103.82132474999918,
                    "velocity": 0.48031496062992124,
                    "duration": 0.10267846874999975
                },
                {
                    "name": "G5",
                    "midi": 79,
                    "time": 103.82132474999918,
                    "velocity": 0.48031496062992124,
                    "duration": 0.10267846874999975
                },
                {
                    "name": "D6",
                    "midi": 86,
                    "time": 103.92846749999917,
                    "velocity": 0.48031496062992124,
                    "duration": 0.10267846874999975
                },
                {
                    "name": "A#5",
                    "midi": 82,
                    "time": 103.92846749999917,
                    "velocity": 0.48031496062992124,
                    "duration": 0.10267846874999975
                },
                {
                    "name": "G5",
                    "midi": 79,
                    "time": 103.92846749999917,
                    "velocity": 0.48031496062992124,
                    "duration": 0.10267846874999975
                },
                {
                    "name": "D6",
                    "midi": 86,
                    "time": 104.03561024999917,
                    "velocity": 0.48031496062992124,
                    "duration": 0.10267846874999975
                },
                {
                    "name": "F#5",
                    "midi": 78,
                    "time": 104.03561024999917,
                    "velocity": 0.48031496062992124,
                    "duration": 0.10267846874999975
                },
                {
                    "name": "A5",
                    "midi": 81,
                    "time": 104.03561024999917,
                    "velocity": 0.48031496062992124,
                    "duration": 0.10267846874999975
                },
                {
                    "name": "D6",
                    "midi": 86,
                    "time": 104.14275299999916,
                    "velocity": 0.48031496062992124,
                    "duration": 0.10267846874999975
                },
                {
                    "name": "F#5",
                    "midi": 78,
                    "time": 104.14275299999916,
                    "velocity": 0.48031496062992124,
                    "duration": 0.10267846874999975
                },
                {
                    "name": "A5",
                    "midi": 81,
                    "time": 104.14275299999916,
                    "velocity": 0.48031496062992124,
                    "duration": 0.10267846874999975
                },
                {
                    "name": "G#5",
                    "midi": 80,
                    "time": 104.24989574999915,
                    "velocity": 0.48031496062992124,
                    "duration": 0.10267846874999975
                },
                {
                    "name": "F5",
                    "midi": 77,
                    "time": 104.24989574999915,
                    "velocity": 0.48031496062992124,
                    "duration": 0.10267846874999975
                },
                {
                    "name": "D6",
                    "midi": 86,
                    "time": 104.24989574999915,
                    "velocity": 0.48031496062992124,
                    "duration": 0.10267846874999975
                },
                {
                    "name": "G4",
                    "midi": 67,
                    "time": 104.35703849999915,
                    "velocity": 0.48031496062992124,
                    "duration": 0.10267846874999975
                },
                {
                    "name": "G#5",
                    "midi": 80,
                    "time": 104.35703849999915,
                    "velocity": 0.48031496062992124,
                    "duration": 0.10267846874999975
                },
                {
                    "name": "D6",
                    "midi": 86,
                    "time": 104.35703849999915,
                    "velocity": 0.48031496062992124,
                    "duration": 0.10267846874999975
                },
                {
                    "name": "F5",
                    "midi": 77,
                    "time": 104.35703849999915,
                    "velocity": 0.48031496062992124,
                    "duration": 0.10267846874999975
                },
                {
                    "name": "A#4",
                    "midi": 70,
                    "time": 104.46418124999914,
                    "velocity": 0.48031496062992124,
                    "duration": 0.10267846874999975
                },
                {
                    "name": "G5",
                    "midi": 79,
                    "time": 104.46418124999914,
                    "velocity": 0.48031496062992124,
                    "duration": 0.10267846874999975
                },
                {
                    "name": "D6",
                    "midi": 86,
                    "time": 104.46418124999914,
                    "velocity": 0.48031496062992124,
                    "duration": 0.10267846874999975
                },
                {
                    "name": "E5",
                    "midi": 76,
                    "time": 104.46418124999914,
                    "velocity": 0.48031496062992124,
                    "duration": 0.10267846874999975
                },
                {
                    "name": "D6",
                    "midi": 86,
                    "time": 104.57132399999914,
                    "velocity": 0.48031496062992124,
                    "duration": 0.10267846874999975
                },
                {
                    "name": "D5",
                    "midi": 74,
                    "time": 104.57132399999914,
                    "velocity": 0.48031496062992124,
                    "duration": 0.10267846874999975
                },
                {
                    "name": "D5",
                    "midi": 74,
                    "time": 104.67846674999913,
                    "velocity": 0.48031496062992124,
                    "duration": 0.10267846874999975
                },
                {
                    "name": "A#4",
                    "midi": 70,
                    "time": 104.78560949999913,
                    "velocity": 0.48031496062992124,
                    "duration": 0.10267846874999975
                },
                {
                    "name": "D5",
                    "midi": 74,
                    "time": 104.89275224999912,
                    "velocity": 0.48031496062992124,
                    "duration": 0.10267846874999975
                },
                {
                    "name": "G4",
                    "midi": 67,
                    "time": 104.99989499999911,
                    "velocity": 0.48031496062992124,
                    "duration": 0.10267846874999975
                },
                {
                    "name": "G5",
                    "midi": 79,
                    "time": 104.99989499999911,
                    "velocity": 0.48031496062992124,
                    "duration": 0.10267846874999975
                },
                {
                    "name": "G4",
                    "midi": 67,
                    "time": 105.10703774999911,
                    "velocity": 0.48031496062992124,
                    "duration": 0.10267846874999975
                },
                {
                    "name": "G4",
                    "midi": 67,
                    "time": 105.2141804999991,
                    "velocity": 0.48031496062992124,
                    "duration": 0.10267846874999975
                },
                {
                    "name": "A#4",
                    "midi": 70,
                    "time": 105.3213232499991,
                    "velocity": 0.48031496062992124,
                    "duration": 0.10267846874999975
                },
                {
                    "name": "D5",
                    "midi": 74,
                    "time": 105.42846599999909,
                    "velocity": 0.48031496062992124,
                    "duration": 0.10267846874999975
                },
                {
                    "name": "D6",
                    "midi": 86,
                    "time": 105.42846599999909,
                    "velocity": 0.48031496062992124,
                    "duration": 0.10267846874999975
                },
                {
                    "name": "D5",
                    "midi": 74,
                    "time": 105.53560874999908,
                    "velocity": 0.48031496062992124,
                    "duration": 0.10267846874999975
                },
                {
                    "name": "A#4",
                    "midi": 70,
                    "time": 105.64275149999908,
                    "velocity": 0.48031496062992124,
                    "duration": 0.10267846874999975
                },
                {
                    "name": "D5",
                    "midi": 74,
                    "time": 105.74989424999907,
                    "velocity": 0.48031496062992124,
                    "duration": 0.10267846874999975
                },
                {
                    "name": "G5",
                    "midi": 79,
                    "time": 105.85703699999907,
                    "velocity": 0.48031496062992124,
                    "duration": 0.10267846874999975
                },
                {
                    "name": "G4",
                    "midi": 67,
                    "time": 105.85703699999907,
                    "velocity": 0.48031496062992124,
                    "duration": 0.10267846874999975
                },
                {
                    "name": "G4",
                    "midi": 67,
                    "time": 105.96417974999906,
                    "velocity": 0.48031496062992124,
                    "duration": 0.10267846874999975
                },
                {
                    "name": "G4",
                    "midi": 67,
                    "time": 106.07132249999906,
                    "velocity": 0.48031496062992124,
                    "duration": 0.10267846874999975
                },
                {
                    "name": "G#4",
                    "midi": 68,
                    "time": 106.17846524999905,
                    "velocity": 0.48031496062992124,
                    "duration": 0.05133923437500698
                },
                {
                    "name": "C#5",
                    "midi": 73,
                    "time": 106.23203662499905,
                    "velocity": 0.48031496062992124,
                    "duration": 0.049107093749995556
                },
                {
                    "name": "A4",
                    "midi": 69,
                    "time": 106.28560799999904,
                    "velocity": 0.48031496062992124,
                    "duration": 0.10267846874999975
                },
                {
                    "name": "G#4",
                    "midi": 68,
                    "time": 106.39275074999904,
                    "velocity": 0.48031496062992124,
                    "duration": 0.10267846874999975
                },
                {
                    "name": "A4",
                    "midi": 69,
                    "time": 106.49989349999903,
                    "velocity": 0.48031496062992124,
                    "duration": 0.10267846874999975
                },
                {
                    "name": "A#4",
                    "midi": 70,
                    "time": 106.60703624999903,
                    "velocity": 0.48031496062992124,
                    "duration": 0.05133923437500698
                },
                {
                    "name": "D#5",
                    "midi": 75,
                    "time": 106.66060762499903,
                    "velocity": 0.48031496062992124,
                    "duration": 0.049107093749995556
                },
                {
                    "name": "B4",
                    "midi": 71,
                    "time": 106.71417899999902,
                    "velocity": 0.48031496062992124,
                    "duration": 0.10267846874999975
                },
                {
                    "name": "A#4",
                    "midi": 70,
                    "time": 106.82132174999902,
                    "velocity": 0.48031496062992124,
                    "duration": 0.10267846874999975
                },
                {
                    "name": "B4",
                    "midi": 71,
                    "time": 106.92846449999901,
                    "velocity": 0.48031496062992124,
                    "duration": 0.10267846874999975
                },
                {
                    "name": "C5",
                    "midi": 72,
                    "time": 107.035607249999,
                    "velocity": 0.48031496062992124,
                    "duration": 0.05133923437500698
                },
                {
                    "name": "F5",
                    "midi": 77,
                    "time": 107.08917862499901,
                    "velocity": 0.48031496062992124,
                    "duration": 0.049107093749995556
                },
                {
                    "name": "C#5",
                    "midi": 73,
                    "time": 107.142749999999,
                    "velocity": 0.48031496062992124,
                    "duration": 0.10267846874999975
                },
                {
                    "name": "C5",
                    "midi": 72,
                    "time": 107.24989274999899,
                    "velocity": 0.48031496062992124,
                    "duration": 0.10267846874999975
                },
                {
                    "name": "C#5",
                    "midi": 73,
                    "time": 107.35703549999899,
                    "velocity": 0.48031496062992124,
                    "duration": 0.10267846874999975
                },
                {
                    "name": "D5",
                    "midi": 74,
                    "time": 107.46417824999898,
                    "velocity": 0.48031496062992124,
                    "duration": 0.05133923437500698
                },
                {
                    "name": "G5",
                    "midi": 79,
                    "time": 107.51774962499898,
                    "velocity": 0.48031496062992124,
                    "duration": 0.049107093749995556
                },
                {
                    "name": "D#5",
                    "midi": 75,
                    "time": 107.57132099999897,
                    "velocity": 0.48031496062992124,
                    "duration": 0.10267846874999975
                },
                {
                    "name": "D5",
                    "midi": 74,
                    "time": 107.67846374999897,
                    "velocity": 0.48031496062992124,
                    "duration": 0.10267846874999975
                },
                {
                    "name": "G5",
                    "midi": 79,
                    "time": 107.78560649999896,
                    "velocity": 0.48031496062992124,
                    "duration": 0.10267846874999975
                },
                {
                    "name": "D5",
                    "midi": 74,
                    "time": 107.78560649999896,
                    "velocity": 0.48031496062992124,
                    "duration": 0.10267846874999975
                },
                {
                    "name": "A#5",
                    "midi": 82,
                    "time": 107.89274924999896,
                    "velocity": 0.48031496062992124,
                    "duration": 0.053571375000004195
                },
                {
                    "name": "A#4",
                    "midi": 70,
                    "time": 107.89274924999896,
                    "velocity": 0.48031496062992124,
                    "duration": 0.10267846874999975
                },
                {
                    "name": "C#6",
                    "midi": 85,
                    "time": 107.94632062499896,
                    "velocity": 0.48031496062992124,
                    "duration": 0.053571374999989985
                },
                {
                    "name": "C#5",
                    "midi": 73,
                    "time": 107.99989199999895,
                    "velocity": 0.48031496062992124,
                    "duration": 0.10267846874999975
                },
                {
                    "name": "A5",
                    "midi": 81,
                    "time": 107.99989199999895,
                    "velocity": 0.48031496062992124,
                    "duration": 0.10267846874999975
                },
                {
                    "name": "G#5",
                    "midi": 80,
                    "time": 108.10703474999895,
                    "velocity": 0.48031496062992124,
                    "duration": 0.10267846874999975
                },
                {
                    "name": "A5",
                    "midi": 81,
                    "time": 108.21417749999894,
                    "velocity": 0.48031496062992124,
                    "duration": 0.10267846874999975
                },
                {
                    "name": "F5",
                    "midi": 77,
                    "time": 108.21417749999894,
                    "velocity": 0.48031496062992124,
                    "duration": 0.10267846874999975
                },
                {
                    "name": "E5",
                    "midi": 76,
                    "time": 108.32132024999893,
                    "velocity": 0.48031496062992124,
                    "duration": 0.10267846874999975
                },
                {
                    "name": "A5",
                    "midi": 81,
                    "time": 108.32132024999893,
                    "velocity": 0.48031496062992124,
                    "duration": 0.05133923437500698
                },
                {
                    "name": "D#6",
                    "midi": 87,
                    "time": 108.37489162499894,
                    "velocity": 0.48031496062992124,
                    "duration": 0.05133923437499277
                },
                {
                    "name": "B5",
                    "midi": 83,
                    "time": 108.42846299999893,
                    "velocity": 0.48031496062992124,
                    "duration": 0.10267846874999975
                },
                {
                    "name": "D#5",
                    "midi": 75,
                    "time": 108.42846299999893,
                    "velocity": 0.48031496062992124,
                    "duration": 0.10267846874999975
                },
                {
                    "name": "A#5",
                    "midi": 82,
                    "time": 108.53560574999892,
                    "velocity": 0.48031496062992124,
                    "duration": 0.10267846874999975
                },
                {
                    "name": "G5",
                    "midi": 79,
                    "time": 108.64274849999892,
                    "velocity": 0.48031496062992124,
                    "duration": 0.10267846874999975
                },
                {
                    "name": "B5",
                    "midi": 83,
                    "time": 108.64274849999892,
                    "velocity": 0.48031496062992124,
                    "duration": 0.10267846874999975
                },
                {
                    "name": "F#5",
                    "midi": 78,
                    "time": 108.74989124999891,
                    "velocity": 0.48031496062992124,
                    "duration": 0.10267846874999975
                },
                {
                    "name": "C6",
                    "midi": 84,
                    "time": 108.74989124999891,
                    "velocity": 0.48031496062992124,
                    "duration": 0.05133923437500698
                },
                {
                    "name": "F6",
                    "midi": 89,
                    "time": 108.80346262499891,
                    "velocity": 0.48031496062992124,
                    "duration": 0.05133923437499277
                },
                {
                    "name": "F5",
                    "midi": 77,
                    "time": 108.8570339999989,
                    "velocity": 0.48031496062992124,
                    "duration": 0.10267846874999975
                },
                {
                    "name": "C#6",
                    "midi": 85,
                    "time": 108.8570339999989,
                    "velocity": 0.48031496062992124,
                    "duration": 0.10267846874999975
                },
                {
                    "name": "C6",
                    "midi": 84,
                    "time": 108.9641767499989,
                    "velocity": 0.48031496062992124,
                    "duration": 0.10267846874999975
                },
                {
                    "name": "C#6",
                    "midi": 85,
                    "time": 109.07131949999889,
                    "velocity": 0.48031496062992124,
                    "duration": 0.10267846874999975
                },
                {
                    "name": "A5",
                    "midi": 81,
                    "time": 109.07131949999889,
                    "velocity": 0.48031496062992124,
                    "duration": 0.10267846874999975
                },
                {
                    "name": "G#5",
                    "midi": 80,
                    "time": 109.17846224999889,
                    "velocity": 0.48031496062992124,
                    "duration": 0.10491060937501118
                },
                {
                    "name": "D6",
                    "midi": 86,
                    "time": 109.17846224999889,
                    "velocity": 0.48031496062992124,
                    "duration": 0.05133923437500698
                },
                {
                    "name": "G6",
                    "midi": 91,
                    "time": 109.23203362499889,
                    "velocity": 0.48031496062992124,
                    "duration": 0.05133923437500698
                },
                {
                    "name": "F#5",
                    "midi": 78,
                    "time": 109.2856049999989,
                    "velocity": 0.48031496062992124,
                    "duration": 0.10267846874999975
                },
                {
                    "name": "D#6",
                    "midi": 87,
                    "time": 109.2856049999989,
                    "velocity": 0.48031496062992124,
                    "duration": 0.10267846874999975
                },
                {
                    "name": "D6",
                    "midi": 86,
                    "time": 109.39274774999889,
                    "velocity": 0.48031496062992124,
                    "duration": 0.10267846874999975
                },
                {
                    "name": "G5",
                    "midi": 79,
                    "time": 109.39274774999889,
                    "velocity": 0.48031496062992124,
                    "duration": 0.10267846874999975
                },
                {
                    "name": "G#3",
                    "midi": 56,
                    "time": 109.49989049999888,
                    "velocity": 0.48031496062992124,
                    "duration": 0.10267846874999975
                },
                {
                    "name": "B3",
                    "midi": 59,
                    "time": 109.60703324999888,
                    "velocity": 0.48031496062992124,
                    "duration": 0.10267846874999975
                },
                {
                    "name": "D#4",
                    "midi": 63,
                    "time": 109.71417599999887,
                    "velocity": 0.48031496062992124,
                    "duration": 0.10267846874999975
                },
                {
                    "name": "D#4",
                    "midi": 63,
                    "time": 109.82131874999887,
                    "velocity": 0.48031496062992124,
                    "duration": 0.10267846874999975
                },
                {
                    "name": "B3",
                    "midi": 59,
                    "time": 109.92846149999886,
                    "velocity": 0.48031496062992124,
                    "duration": 0.10267846874999975
                },
                {
                    "name": "D#4",
                    "midi": 63,
                    "time": 110.03560424999885,
                    "velocity": 0.48031496062992124,
                    "duration": 0.10267846874999975
                },
                {
                    "name": "G#3",
                    "midi": 56,
                    "time": 110.14274699999885,
                    "velocity": 0.48031496062992124,
                    "duration": 0.10267846874999975
                },
                {
                    "name": "G#3",
                    "midi": 56,
                    "time": 110.24988974999884,
                    "velocity": 0.48031496062992124,
                    "duration": 0.10267846874999975
                },
                {
                    "name": "E4",
                    "midi": 64,
                    "time": 110.35703249999884,
                    "velocity": 0.48031496062992124,
                    "duration": 0.10267846874999975
                },
                {
                    "name": "G4",
                    "midi": 67,
                    "time": 110.46417524999883,
                    "velocity": 0.48031496062992124,
                    "duration": 0.10267846874999975
                },
                {
                    "name": "B4",
                    "midi": 71,
                    "time": 110.57131799999883,
                    "velocity": 0.48031496062992124,
                    "duration": 0.10267846874999975
                },
                {
                    "name": "B4",
                    "midi": 71,
                    "time": 110.67846074999882,
                    "velocity": 0.48031496062992124,
                    "duration": 0.10267846874999975
                },
                {
                    "name": "G#4",
                    "midi": 68,
                    "time": 110.78560349999881,
                    "velocity": 0.48031496062992124,
                    "duration": 0.10267846874999975
                },
                {
                    "name": "B4",
                    "midi": 71,
                    "time": 110.89274624999881,
                    "velocity": 0.48031496062992124,
                    "duration": 0.10267846874999975
                },
                {
                    "name": "D#5",
                    "midi": 75,
                    "time": 110.9998889999988,
                    "velocity": 0.48031496062992124,
                    "duration": 0.10267846874999975
                },
                {
                    "name": "D#5",
                    "midi": 75,
                    "time": 111.1070317499988,
                    "velocity": 0.48031496062992124,
                    "duration": 0.10267846874999975
                },
                {
                    "name": "G#3",
                    "midi": 56,
                    "time": 111.21417449999879,
                    "velocity": 0.48031496062992124,
                    "duration": 0.10267846874999975
                },
                {
                    "name": "B3",
                    "midi": 59,
                    "time": 111.32131724999878,
                    "velocity": 0.48031496062992124,
                    "duration": 0.10267846874999975
                },
                {
                    "name": "D#4",
                    "midi": 63,
                    "time": 111.42845999999878,
                    "velocity": 0.48031496062992124,
                    "duration": 0.10267846874999975
                },
                {
                    "name": "D#4",
                    "midi": 63,
                    "time": 111.53560274999877,
                    "velocity": 0.48031496062992124,
                    "duration": 0.10267846874999975
                },
                {
                    "name": "B3",
                    "midi": 59,
                    "time": 111.64274549999877,
                    "velocity": 0.48031496062992124,
                    "duration": 0.10267846874999975
                },
                {
                    "name": "D#4",
                    "midi": 63,
                    "time": 111.74988824999876,
                    "velocity": 0.48031496062992124,
                    "duration": 0.10267846874999975
                },
                {
                    "name": "G#3",
                    "midi": 56,
                    "time": 111.85703099999876,
                    "velocity": 0.48031496062992124,
                    "duration": 0.10267846874999975
                },
                {
                    "name": "G#3",
                    "midi": 56,
                    "time": 111.96417374999875,
                    "velocity": 0.48031496062992124,
                    "duration": 0.10267846874999975
                },
                {
                    "name": "E4",
                    "midi": 64,
                    "time": 112.07131649999874,
                    "velocity": 0.48031496062992124,
                    "duration": 0.10267846874999975
                },
                {
                    "name": "G4",
                    "midi": 67,
                    "time": 112.17845924999874,
                    "velocity": 0.48031496062992124,
                    "duration": 0.10267846874999975
                },
                {
                    "name": "B4",
                    "midi": 71,
                    "time": 112.28560199999873,
                    "velocity": 0.48031496062992124,
                    "duration": 0.10267846874999975
                },
                {
                    "name": "B4",
                    "midi": 71,
                    "time": 112.39274474999873,
                    "velocity": 0.48031496062992124,
                    "duration": 0.10267846874999975
                },
                {
                    "name": "G#4",
                    "midi": 68,
                    "time": 112.49988749999872,
                    "velocity": 0.48031496062992124,
                    "duration": 0.10267846874999975
                },
                {
                    "name": "B4",
                    "midi": 71,
                    "time": 112.60703024999872,
                    "velocity": 0.48031496062992124,
                    "duration": 0.10267846874999975
                },
                {
                    "name": "D#5",
                    "midi": 75,
                    "time": 112.71417299999871,
                    "velocity": 0.48031496062992124,
                    "duration": 0.10267846874999975
                },
                {
                    "name": "D#5",
                    "midi": 75,
                    "time": 112.8213157499987,
                    "velocity": 0.48031496062992124,
                    "duration": 0.10267846874999975
                },
                {
                    "name": "G#4",
                    "midi": 68,
                    "time": 112.9284584999987,
                    "velocity": 0.48031496062992124,
                    "duration": 0.10267846874999975
                },
                {
                    "name": "B3",
                    "midi": 59,
                    "time": 113.03560124999869,
                    "velocity": 0.48031496062992124,
                    "duration": 0.10267846874999975
                },
                {
                    "name": "B4",
                    "midi": 71,
                    "time": 113.14274399999869,
                    "velocity": 0.48031496062992124,
                    "duration": 0.10267846874999975
                },
                {
                    "name": "D#4",
                    "midi": 63,
                    "time": 113.14274399999869,
                    "velocity": 0.48031496062992124,
                    "duration": 0.10267846874999975
                },
                {
                    "name": "D#4",
                    "midi": 63,
                    "time": 113.24988674999868,
                    "velocity": 0.48031496062992124,
                    "duration": 0.10267846874999975
                },
                {
                    "name": "B3",
                    "midi": 59,
                    "time": 113.35702949999867,
                    "velocity": 0.48031496062992124,
                    "duration": 0.10267846874999975
                },
                {
                    "name": "D#4",
                    "midi": 63,
                    "time": 113.46417224999867,
                    "velocity": 0.48031496062992124,
                    "duration": 0.10267846874999975
                },
                {
                    "name": "A#4",
                    "midi": 70,
                    "time": 113.57131499999866,
                    "velocity": 0.48031496062992124,
                    "duration": 0.10267846874999975
                },
                {
                    "name": "G#3",
                    "midi": 56,
                    "time": 113.57131499999866,
                    "velocity": 0.48031496062992124,
                    "duration": 0.10267846874999975
                },
                {
                    "name": "G#3",
                    "midi": 56,
                    "time": 113.67845774999866,
                    "velocity": 0.48031496062992124,
                    "duration": 0.10267846874999975
                },
                {
                    "name": "G#3",
                    "midi": 56,
                    "time": 113.78560049999865,
                    "velocity": 0.48031496062992124,
                    "duration": 0.10267846874999975
                },
                {
                    "name": "B3",
                    "midi": 59,
                    "time": 113.89274324999865,
                    "velocity": 0.48031496062992124,
                    "duration": 0.10267846874999975
                },
                {
                    "name": "A4",
                    "midi": 69,
                    "time": 113.99988599999864,
                    "velocity": 0.48031496062992124,
                    "duration": 0.10267846874999975
                },
                {
                    "name": "D#4",
                    "midi": 63,
                    "time": 113.99988599999864,
                    "velocity": 0.48031496062992124,
                    "duration": 0.10267846874999975
                },
                {
                    "name": "D#4",
                    "midi": 63,
                    "time": 114.10702874999863,
                    "velocity": 0.48031496062992124,
                    "duration": 0.10267846874999975
                },
                {
                    "name": "B3",
                    "midi": 59,
                    "time": 114.21417149999863,
                    "velocity": 0.48031496062992124,
                    "duration": 0.10267846874999975
                },
                {
                    "name": "D#4",
                    "midi": 63,
                    "time": 114.32131424999862,
                    "velocity": 0.48031496062992124,
                    "duration": 0.10267846874999975
                },
                {
                    "name": "G#4",
                    "midi": 68,
                    "time": 114.42845699999862,
                    "velocity": 0.48031496062992124,
                    "duration": 0.10267846874999975
                },
                {
                    "name": "G#3",
                    "midi": 56,
                    "time": 114.42845699999862,
                    "velocity": 0.48031496062992124,
                    "duration": 0.10267846874999975
                },
                {
                    "name": "G#3",
                    "midi": 56,
                    "time": 114.53559974999861,
                    "velocity": 0.48031496062992124,
                    "duration": 0.10267846874999975
                },
                {
                    "name": "F3",
                    "midi": 53,
                    "time": 114.6427424999986,
                    "velocity": 0.48031496062992124,
                    "duration": 0.10267846874999975
                },
                {
                    "name": "G#3",
                    "midi": 56,
                    "time": 114.6427424999986,
                    "velocity": 0.48031496062992124,
                    "duration": 0.10267846874999975
                },
                {
                    "name": "B3",
                    "midi": 59,
                    "time": 114.7498852499986,
                    "velocity": 0.48031496062992124,
                    "duration": 0.10267846874999975
                },
                {
                    "name": "G3",
                    "midi": 55,
                    "time": 114.7498852499986,
                    "velocity": 0.48031496062992124,
                    "duration": 0.10267846874999975
                },
                {
                    "name": "G4",
                    "midi": 67,
                    "time": 114.85702799999859,
                    "velocity": 0.48031496062992124,
                    "duration": 0.10267846874999975
                },
                {
                    "name": "D#4",
                    "midi": 63,
                    "time": 114.85702799999859,
                    "velocity": 0.48031496062992124,
                    "duration": 0.10267846874999975
                },
                {
                    "name": "C4",
                    "midi": 60,
                    "time": 114.85702799999859,
                    "velocity": 0.48031496062992124,
                    "duration": 0.10267846874999975
                },
                {
                    "name": "D#4",
                    "midi": 63,
                    "time": 114.96417074999859,
                    "velocity": 0.48031496062992124,
                    "duration": 0.10267846874999975
                },
                {
                    "name": "C4",
                    "midi": 60,
                    "time": 114.96417074999859,
                    "velocity": 0.48031496062992124,
                    "duration": 0.10267846874999975
                },
                {
                    "name": "G3",
                    "midi": 55,
                    "time": 115.07131349999858,
                    "velocity": 0.48031496062992124,
                    "duration": 0.10267846874999975
                },
                {
                    "name": "B3",
                    "midi": 59,
                    "time": 115.07131349999858,
                    "velocity": 0.48031496062992124,
                    "duration": 0.10267846874999975
                },
                {
                    "name": "D#4",
                    "midi": 63,
                    "time": 115.17845624999858,
                    "velocity": 0.48031496062992124,
                    "duration": 0.10267846874999975
                },
                {
                    "name": "C4",
                    "midi": 60,
                    "time": 115.17845624999858,
                    "velocity": 0.48031496062992124,
                    "duration": 0.10267846874999975
                },
                {
                    "name": "F#4",
                    "midi": 66,
                    "time": 115.28559899999857,
                    "velocity": 0.48031496062992124,
                    "duration": 0.10267846874999975
                },
                {
                    "name": "G#3",
                    "midi": 56,
                    "time": 115.28559899999857,
                    "velocity": 0.48031496062992124,
                    "duration": 0.10267846874999975
                },
                {
                    "name": "E3",
                    "midi": 52,
                    "time": 115.28559899999857,
                    "velocity": 0.48031496062992124,
                    "duration": 0.10267846874999975
                },
                {
                    "name": "E3",
                    "midi": 52,
                    "time": 115.39274174999856,
                    "velocity": 0.48031496062992124,
                    "duration": 0.10267846874999975
                },
                {
                    "name": "G#3",
                    "midi": 56,
                    "time": 115.39274174999856,
                    "velocity": 0.48031496062992124,
                    "duration": 0.10267846874999975
                },
                {
                    "name": "G#3",
                    "midi": 56,
                    "time": 115.49988449999856,
                    "velocity": 0.48031496062992124,
                    "duration": 0.10267846874999975
                },
                {
                    "name": "F3",
                    "midi": 53,
                    "time": 115.49988449999856,
                    "velocity": 0.48031496062992124,
                    "duration": 0.10267846874999975
                },
                {
                    "name": "G3",
                    "midi": 55,
                    "time": 115.60702724999855,
                    "velocity": 0.48031496062992124,
                    "duration": 0.10267846874999975
                },
                {
                    "name": "B3",
                    "midi": 59,
                    "time": 115.60702724999855,
                    "velocity": 0.48031496062992124,
                    "duration": 0.10267846874999975
                },
                {
                    "name": "C4",
                    "midi": 60,
                    "time": 115.71416999999855,
                    "velocity": 0.48031496062992124,
                    "duration": 0.10267846874999975
                },
                {
                    "name": "D#4",
                    "midi": 63,
                    "time": 115.71416999999855,
                    "velocity": 0.48031496062992124,
                    "duration": 0.10267846874999975
                },
                {
                    "name": "F4",
                    "midi": 65,
                    "time": 115.71416999999855,
                    "velocity": 0.48031496062992124,
                    "duration": 0.10267846874999975
                },
                {
                    "name": "C4",
                    "midi": 60,
                    "time": 115.82131274999854,
                    "velocity": 0.48031496062992124,
                    "duration": 0.10267846874999975
                },
                {
                    "name": "D#4",
                    "midi": 63,
                    "time": 115.82131274999854,
                    "velocity": 0.48031496062992124,
                    "duration": 0.10267846874999975
                },
                {
                    "name": "B3",
                    "midi": 59,
                    "time": 115.92845549999853,
                    "velocity": 0.48031496062992124,
                    "duration": 0.10267846874999975
                },
                {
                    "name": "G3",
                    "midi": 55,
                    "time": 115.92845549999853,
                    "velocity": 0.48031496062992124,
                    "duration": 0.10267846874999975
                },
                {
                    "name": "C4",
                    "midi": 60,
                    "time": 116.03559824999853,
                    "velocity": 0.48031496062992124,
                    "duration": 0.10267846874999975
                },
                {
                    "name": "D#4",
                    "midi": 63,
                    "time": 116.03559824999853,
                    "velocity": 0.48031496062992124,
                    "duration": 0.10267846874999975
                },
                {
                    "name": "E4",
                    "midi": 64,
                    "time": 116.14274099999852,
                    "velocity": 0.48031496062992124,
                    "duration": 0.10267846874999975
                },
                {
                    "name": "E3",
                    "midi": 52,
                    "time": 116.14274099999852,
                    "velocity": 0.48031496062992124,
                    "duration": 0.10267846874999975
                },
                {
                    "name": "G#3",
                    "midi": 56,
                    "time": 116.14274099999852,
                    "velocity": 0.48031496062992124,
                    "duration": 0.10267846874999975
                },
                {
                    "name": "A4",
                    "midi": 69,
                    "time": 116.35702649999853,
                    "velocity": 0.48031496062992124,
                    "duration": 0.10267846874999975
                },
                {
                    "name": "C5",
                    "midi": 72,
                    "time": 116.46416924999852,
                    "velocity": 0.48031496062992124,
                    "duration": 0.10267846874999975
                },
                {
                    "name": "E5",
                    "midi": 76,
                    "time": 116.57131199999851,
                    "velocity": 0.48031496062992124,
                    "duration": 0.10267846874999975
                },
                {
                    "name": "E5",
                    "midi": 76,
                    "time": 116.67845474999851,
                    "velocity": 0.48031496062992124,
                    "duration": 0.10267846874999975
                },
                {
                    "name": "C5",
                    "midi": 72,
                    "time": 116.7855974999985,
                    "velocity": 0.48031496062992124,
                    "duration": 0.10267846874999975
                },
                {
                    "name": "E5",
                    "midi": 76,
                    "time": 116.8927402499985,
                    "velocity": 0.48031496062992124,
                    "duration": 0.10267846874999975
                },
                {
                    "name": "A4",
                    "midi": 69,
                    "time": 116.99988299999849,
                    "velocity": 0.48031496062992124,
                    "duration": 0.10267846874999975
                },
                {
                    "name": "A4",
                    "midi": 69,
                    "time": 117.10702574999848,
                    "velocity": 0.48031496062992124,
                    "duration": 0.10267846874999975
                },
                {
                    "name": "A4",
                    "midi": 69,
                    "time": 117.21416849999848,
                    "velocity": 0.48031496062992124,
                    "duration": 0.10267846874999975
                },
                {
                    "name": "C5",
                    "midi": 72,
                    "time": 117.32131124999847,
                    "velocity": 0.48031496062992124,
                    "duration": 0.10267846874999975
                },
                {
                    "name": "E5",
                    "midi": 76,
                    "time": 117.42845399999847,
                    "velocity": 0.48031496062992124,
                    "duration": 0.10267846874999975
                },
                {
                    "name": "E5",
                    "midi": 76,
                    "time": 117.53559674999846,
                    "velocity": 0.48031496062992124,
                    "duration": 0.10267846874999975
                },
                {
                    "name": "C5",
                    "midi": 72,
                    "time": 117.64273949999846,
                    "velocity": 0.48031496062992124,
                    "duration": 0.10267846874999975
                },
                {
                    "name": "E5",
                    "midi": 76,
                    "time": 117.74988224999845,
                    "velocity": 0.48031496062992124,
                    "duration": 0.10267846874999975
                },
                {
                    "name": "A4",
                    "midi": 69,
                    "time": 117.85702499999844,
                    "velocity": 0.48031496062992124,
                    "duration": 0.10267846874999975
                },
                {
                    "name": "A4",
                    "midi": 69,
                    "time": 117.96416774999844,
                    "velocity": 0.48031496062992124,
                    "duration": 0.10267846874999975
                },
                {
                    "name": "A4",
                    "midi": 69,
                    "time": 118.07131049999843,
                    "velocity": 0.48031496062992124,
                    "duration": 0.10267846874999975
                },
                {
                    "name": "C5",
                    "midi": 72,
                    "time": 118.17845324999843,
                    "velocity": 0.48031496062992124,
                    "duration": 0.10267846874999975
                },
                {
                    "name": "E5",
                    "midi": 76,
                    "time": 118.28559599999842,
                    "velocity": 0.48031496062992124,
                    "duration": 0.10267846874999975
                },
                {
                    "name": "E5",
                    "midi": 76,
                    "time": 118.39273874999841,
                    "velocity": 0.48031496062992124,
                    "duration": 0.10267846874999975
                },
                {
                    "name": "A4",
                    "midi": 69,
                    "time": 118.49988149999841,
                    "velocity": 0.48031496062992124,
                    "duration": 0.10267846874999975
                },
                {
                    "name": "C5",
                    "midi": 72,
                    "time": 118.6070242499984,
                    "velocity": 0.48031496062992124,
                    "duration": 0.10267846874999975
                },
                {
                    "name": "E5",
                    "midi": 76,
                    "time": 118.7141669999984,
                    "velocity": 0.48031496062992124,
                    "duration": 0.10267846874999975
                },
                {
                    "name": "E5",
                    "midi": 76,
                    "time": 118.82130974999839,
                    "velocity": 0.48031496062992124,
                    "duration": 0.10267846874999975
                },
                {
                    "name": "A4",
                    "midi": 69,
                    "time": 118.92845249999839,
                    "velocity": 0.48031496062992124,
                    "duration": 0.10267846874999975
                },
                {
                    "name": "C5",
                    "midi": 72,
                    "time": 119.03559524999838,
                    "velocity": 0.48031496062992124,
                    "duration": 0.10267846874999975
                },
                {
                    "name": "E5",
                    "midi": 76,
                    "time": 119.14273799999837,
                    "velocity": 0.48031496062992124,
                    "duration": 0.10267846874999975
                },
                {
                    "name": "E5",
                    "midi": 76,
                    "time": 119.24988074999837,
                    "velocity": 0.48031496062992124,
                    "duration": 0.10267846874999975
                },
                {
                    "name": "A4",
                    "midi": 69,
                    "time": 119.35702349999836,
                    "velocity": 0.48031496062992124,
                    "duration": 0.10267846874999975
                },
                {
                    "name": "C5",
                    "midi": 72,
                    "time": 119.46416624999836,
                    "velocity": 0.48031496062992124,
                    "duration": 0.10267846874999975
                },
                {
                    "name": "E5",
                    "midi": 76,
                    "time": 119.57130899999835,
                    "velocity": 0.48031496062992124,
                    "duration": 0.10267846874999975
                },
                {
                    "name": "E5",
                    "midi": 76,
                    "time": 119.67845174999835,
                    "velocity": 0.48031496062992124,
                    "duration": 0.10267846874999975
                },
                {
                    "name": "C5",
                    "midi": 72,
                    "time": 119.78559449999834,
                    "velocity": 0.48031496062992124,
                    "duration": 0.10267846874999975
                },
                {
                    "name": "E5",
                    "midi": 76,
                    "time": 119.89273724999833,
                    "velocity": 0.48031496062992124,
                    "duration": 0.10267846874999975
                },
                {
                    "name": "G5",
                    "midi": 79,
                    "time": 119.99987999999833,
                    "velocity": 0.48031496062992124,
                    "duration": 0.10267846874999975
                },
                {
                    "name": "G5",
                    "midi": 79,
                    "time": 120.10702274999832,
                    "velocity": 0.48031496062992124,
                    "duration": 0.10267846874999975
                },
                {
                    "name": "E5",
                    "midi": 76,
                    "time": 120.21416549999832,
                    "velocity": 0.48031496062992124,
                    "duration": 0.10267846874999975
                },
                {
                    "name": "G5",
                    "midi": 79,
                    "time": 120.32130824999831,
                    "velocity": 0.48031496062992124,
                    "duration": 0.10267846874999975
                },
                {
                    "name": "C5",
                    "midi": 72,
                    "time": 120.4284509999983,
                    "velocity": 0.48031496062992124,
                    "duration": 0.10267846874999975
                },
                {
                    "name": "C5",
                    "midi": 72,
                    "time": 120.5355937499983,
                    "velocity": 0.48031496062992124,
                    "duration": 0.10267846874999975
                },
                {
                    "name": "C5",
                    "midi": 72,
                    "time": 120.64273649999829,
                    "velocity": 0.48031496062992124,
                    "duration": 0.10267846874999975
                },
                {
                    "name": "E5",
                    "midi": 76,
                    "time": 120.74987924999829,
                    "velocity": 0.48031496062992124,
                    "duration": 0.10267846874999975
                },
                {
                    "name": "G5",
                    "midi": 79,
                    "time": 120.85702199999828,
                    "velocity": 0.48031496062992124,
                    "duration": 0.10267846874999975
                },
                {
                    "name": "G5",
                    "midi": 79,
                    "time": 120.96416474999828,
                    "velocity": 0.48031496062992124,
                    "duration": 0.10267846874999975
                },
                {
                    "name": "E5",
                    "midi": 76,
                    "time": 121.07130749999827,
                    "velocity": 0.48031496062992124,
                    "duration": 0.10267846874999975
                },
                {
                    "name": "G5",
                    "midi": 79,
                    "time": 121.17845024999826,
                    "velocity": 0.48031496062992124,
                    "duration": 0.10267846874999975
                },
                {
                    "name": "C5",
                    "midi": 72,
                    "time": 121.28559299999826,
                    "velocity": 0.48031496062992124,
                    "duration": 0.10267846874999975
                },
                {
                    "name": "C5",
                    "midi": 72,
                    "time": 121.39273574999825,
                    "velocity": 0.48031496062992124,
                    "duration": 0.10267846874999975
                },
                {
                    "name": "C5",
                    "midi": 72,
                    "time": 121.49987849999825,
                    "velocity": 0.48031496062992124,
                    "duration": 0.10267846874999975
                },
                {
                    "name": "E5",
                    "midi": 76,
                    "time": 121.60702124999824,
                    "velocity": 0.48031496062992124,
                    "duration": 0.10267846874999975
                },
                {
                    "name": "G5",
                    "midi": 79,
                    "time": 121.71416399999823,
                    "velocity": 0.48031496062992124,
                    "duration": 0.10267846874999975
                },
                {
                    "name": "G5",
                    "midi": 79,
                    "time": 121.82130674999823,
                    "velocity": 0.48031496062992124,
                    "duration": 0.10267846874999975
                },
                {
                    "name": "C5",
                    "midi": 72,
                    "time": 121.92844949999822,
                    "velocity": 0.48031496062992124,
                    "duration": 0.10267846874999975
                },
                {
                    "name": "E5",
                    "midi": 76,
                    "time": 122.03559224999822,
                    "velocity": 0.48031496062992124,
                    "duration": 0.10267846874999975
                },
                {
                    "name": "G5",
                    "midi": 79,
                    "time": 122.14273499999821,
                    "velocity": 0.48031496062992124,
                    "duration": 0.10267846874999975
                },
                {
                    "name": "G5",
                    "midi": 79,
                    "time": 122.2498777499982,
                    "velocity": 0.48031496062992124,
                    "duration": 0.10267846874999975
                },
                {
                    "name": "C5",
                    "midi": 72,
                    "time": 122.3570204999982,
                    "velocity": 0.48031496062992124,
                    "duration": 0.10267846874999975
                },
                {
                    "name": "E5",
                    "midi": 76,
                    "time": 122.4641632499982,
                    "velocity": 0.48031496062992124,
                    "duration": 0.10267846874999975
                },
                {
                    "name": "G5",
                    "midi": 79,
                    "time": 122.57130599999819,
                    "velocity": 0.48031496062992124,
                    "duration": 0.10267846874999975
                },
                {
                    "name": "G5",
                    "midi": 79,
                    "time": 122.67844874999818,
                    "velocity": 0.48031496062992124,
                    "duration": 0.10267846874999975
                },
                {
                    "name": "C5",
                    "midi": 72,
                    "time": 122.78559149999818,
                    "velocity": 0.48031496062992124,
                    "duration": 0.10267846874999975
                },
                {
                    "name": "E5",
                    "midi": 76,
                    "time": 122.89273424999817,
                    "velocity": 0.48031496062992124,
                    "duration": 0.10267846874999975
                },
                {
                    "name": "G5",
                    "midi": 79,
                    "time": 122.99987699999816,
                    "velocity": 0.48031496062992124,
                    "duration": 0.10267846874999975
                },
                {
                    "name": "G5",
                    "midi": 79,
                    "time": 123.10701974999816,
                    "velocity": 0.48031496062992124,
                    "duration": 0.10267846874999975
                },
                {
                    "name": "D2",
                    "midi": 38,
                    "time": 123.21416249999815,
                    "velocity": 0.48031496062992124,
                    "duration": 0.10267846874999975
                },
                {
                    "name": "E2",
                    "midi": 40,
                    "time": 123.32130524999815,
                    "velocity": 0.48031496062992124,
                    "duration": 0.10267846874999975
                },
                {
                    "name": "C4",
                    "midi": 60,
                    "time": 137.67843374999813,
                    "velocity": 0.48031496062992124,
                    "duration": 0.02455354687501199
                },
                {
                    "name": "A#3",
                    "midi": 58,
                    "time": 137.70521943749816,
                    "velocity": 0.48031496062992124,
                    "duration": 0.02455354687501199
                },
                {
                    "name": "G#3",
                    "midi": 56,
                    "time": 137.73200512499818,
                    "velocity": 0.48031496062992124,
                    "duration": 0.02455354687501199
                },
                {
                    "name": "F#3",
                    "midi": 54,
                    "time": 137.7587908124982,
                    "velocity": 0.48031496062992124,
                    "duration": 0.02455354687501199
                },
                {
                    "name": "D4",
                    "midi": 62,
                    "time": 139.3927177499982,
                    "velocity": 0.48031496062992124,
                    "duration": 0.02455354687501199
                },
                {
                    "name": "C4",
                    "midi": 60,
                    "time": 139.41950343749824,
                    "velocity": 0.48031496062992124,
                    "duration": 0.02455354687501199
                },
                {
                    "name": "A#3",
                    "midi": 58,
                    "time": 139.44628912499826,
                    "velocity": 0.48031496062992124,
                    "duration": 0.02455354687501199
                },
                {
                    "name": "G#3",
                    "midi": 56,
                    "time": 139.47307481249828,
                    "velocity": 0.48031496062992124,
                    "duration": 0.02455354687501199
                },
                {
                    "name": "G#4",
                    "midi": 68,
                    "time": 139.9641457499983,
                    "velocity": 0.48031496062992124,
                    "duration": 0.03124996874998942
                },
                {
                    "name": "G4",
                    "midi": 67,
                    "time": 139.99985999999828,
                    "velocity": 0.48031496062992124,
                    "duration": 0.03124996874998942
                },
                {
                    "name": "G#4",
                    "midi": 68,
                    "time": 140.03557424999826,
                    "velocity": 0.48031496062992124,
                    "duration": 0.03124996874998942
                },
                {
                    "name": "G4",
                    "midi": 67,
                    "time": 140.07128849999825,
                    "velocity": 0.48031496062992124,
                    "duration": 0.033482109375000846
                },
                {
                    "name": "G#4",
                    "midi": 68,
                    "time": 140.10700274999826,
                    "velocity": 0.48031496062992124,
                    "duration": 0.03124996874998942
                },
                {
                    "name": "A#1",
                    "midi": 34,
                    "time": 143.99985599999826,
                    "velocity": 0.48031496062992124,
                    "duration": 0.20982121874999393
                },
                {
                    "name": "A#2",
                    "midi": 46,
                    "time": 143.99985599999826,
                    "velocity": 0.48031496062992124,
                    "duration": 0.20982121874999393
                },
                {
                    "name": "F2",
                    "midi": 41,
                    "time": 144.64271249999825,
                    "velocity": 0.48031496062992124,
                    "duration": 0.10267846875001396
                },
                {
                    "name": "D2",
                    "midi": 38,
                    "time": 144.74985524999826,
                    "velocity": 0.48031496062992124,
                    "duration": 0.10267846875001396
                },
                {
                    "name": "A#2",
                    "midi": 46,
                    "time": 144.85699799999827,
                    "velocity": 0.48031496062992124,
                    "duration": 0.20982121874999393
                },
                {
                    "name": "A#1",
                    "midi": 34,
                    "time": 144.85699799999827,
                    "velocity": 0.48031496062992124,
                    "duration": 0.20982121874999393
                },
                {
                    "name": "D3",
                    "midi": 50,
                    "time": 145.28556899999828,
                    "velocity": 0.48031496062992124,
                    "duration": 0.10491060937502539
                },
                {
                    "name": "F3",
                    "midi": 53,
                    "time": 145.28556899999828,
                    "velocity": 0.48031496062992124,
                    "duration": 0.10267846875001396
                },
                {
                    "name": "A3",
                    "midi": 57,
                    "time": 145.28556899999828,
                    "velocity": 0.48031496062992124,
                    "duration": 0.10267846875001396
                },
                {
                    "name": "D3",
                    "midi": 50,
                    "time": 145.3927117499983,
                    "velocity": 0.48031496062992124,
                    "duration": 0.10491060937502539
                },
                {
                    "name": "A3",
                    "midi": 57,
                    "time": 145.3927117499983,
                    "velocity": 0.48031496062992124,
                    "duration": 0.10267846875001396
                },
                {
                    "name": "F3",
                    "midi": 53,
                    "time": 145.3927117499983,
                    "velocity": 0.48031496062992124,
                    "duration": 0.10267846875001396
                },
                {
                    "name": "F#4",
                    "midi": 66,
                    "time": 145.49985449999835,
                    "velocity": 0.48031496062992124,
                    "duration": 0.10267846875001396
                },
                {
                    "name": "D4",
                    "midi": 62,
                    "time": 145.49985449999835,
                    "velocity": 0.48031496062992124,
                    "duration": 0.10267846875001396
                },
                {
                    "name": "F4",
                    "midi": 65,
                    "time": 145.60699724999836,
                    "velocity": 0.48031496062992124,
                    "duration": 0.10267846875001396
                },
                {
                    "name": "C#4",
                    "midi": 61,
                    "time": 145.60699724999836,
                    "velocity": 0.48031496062992124,
                    "duration": 0.10267846875001396
                },
                {
                    "name": "E4",
                    "midi": 64,
                    "time": 145.71413999999837,
                    "velocity": 0.48031496062992124,
                    "duration": 0.10267846875001396
                },
                {
                    "name": "C4",
                    "midi": 60,
                    "time": 145.71413999999837,
                    "velocity": 0.48031496062992124,
                    "duration": 0.10267846875001396
                },
                {
                    "name": "D#4",
                    "midi": 63,
                    "time": 145.82128274999837,
                    "velocity": 0.48031496062992124,
                    "duration": 0.10267846875001396
                },
                {
                    "name": "B3",
                    "midi": 59,
                    "time": 145.82128274999837,
                    "velocity": 0.48031496062992124,
                    "duration": 0.10267846875001396
                },
                {
                    "name": "A#3",
                    "midi": 58,
                    "time": 145.92842549999838,
                    "velocity": 0.48031496062992124,
                    "duration": 0.10267846875001396
                },
                {
                    "name": "D4",
                    "midi": 62,
                    "time": 145.92842549999838,
                    "velocity": 0.48031496062992124,
                    "duration": 0.10267846875001396
                },
                {
                    "name": "C4",
                    "midi": 60,
                    "time": 146.0355682499984,
                    "velocity": 0.48031496062992124,
                    "duration": 0.10267846875001396
                },
                {
                    "name": "A3",
                    "midi": 57,
                    "time": 146.0355682499984,
                    "velocity": 0.48031496062992124,
                    "duration": 0.10267846875001396
                },
                {
                    "name": "G#3",
                    "midi": 56,
                    "time": 146.1427109999984,
                    "velocity": 0.48031496062992124,
                    "duration": 0.10267846875001396
                },
                {
                    "name": "B3",
                    "midi": 59,
                    "time": 146.1427109999984,
                    "velocity": 0.48031496062992124,
                    "duration": 0.10267846875001396
                },
                {
                    "name": "D3",
                    "midi": 50,
                    "time": 146.2498537499984,
                    "velocity": 0.48031496062992124,
                    "duration": 0.10491060937502539
                },
                {
                    "name": "B2",
                    "midi": 47,
                    "time": 146.2498537499984,
                    "velocity": 0.48031496062992124,
                    "duration": 0.10267846875001396
                },
                {
                    "name": "G3",
                    "midi": 55,
                    "time": 146.2498537499984,
                    "velocity": 0.48031496062992124,
                    "duration": 0.10267846875001396
                },
                {
                    "name": "G#3",
                    "midi": 56,
                    "time": 146.35699649999844,
                    "velocity": 0.48031496062992124,
                    "duration": 0.10267846875001396
                },
                {
                    "name": "G#2",
                    "midi": 44,
                    "time": 146.35699649999844,
                    "velocity": 0.48031496062992124,
                    "duration": 0.10267846875001396
                },
                {
                    "name": "D#2",
                    "midi": 39,
                    "time": 146.46413924999845,
                    "velocity": 0.48031496062992124,
                    "duration": 0.10267846875001396
                },
                {
                    "name": "D#3",
                    "midi": 51,
                    "time": 146.46413924999845,
                    "velocity": 0.48031496062992124,
                    "duration": 0.10267846875001396
                },
                {
                    "name": "D3",
                    "midi": 50,
                    "time": 146.57128199999846,
                    "velocity": 0.48031496062992124,
                    "duration": 0.10267846875001396
                },
                {
                    "name": "D2",
                    "midi": 38,
                    "time": 146.57128199999846,
                    "velocity": 0.48031496062992124,
                    "duration": 0.10267846875001396
                },
                {
                    "name": "C#3",
                    "midi": 49,
                    "time": 146.67842474999847,
                    "velocity": 0.48031496062992124,
                    "duration": 0.10267846875001396
                },
                {
                    "name": "C#2",
                    "midi": 37,
                    "time": 146.67842474999847,
                    "velocity": 0.48031496062992124,
                    "duration": 0.10267846875001396
                },
                {
                    "name": "C2",
                    "midi": 36,
                    "time": 146.78556749999848,
                    "velocity": 0.48031496062992124,
                    "duration": 0.10267846875001396
                },
                {
                    "name": "C3",
                    "midi": 48,
                    "time": 146.78556749999848,
                    "velocity": 0.48031496062992124,
                    "duration": 0.10267846875001396
                },
                {
                    "name": "B2",
                    "midi": 47,
                    "time": 146.8927102499985,
                    "velocity": 0.48031496062992124,
                    "duration": 0.10267846875001396
                },
                {
                    "name": "B1",
                    "midi": 35,
                    "time": 146.8927102499985,
                    "velocity": 0.48031496062992124,
                    "duration": 0.10267846875001396
                },
                {
                    "name": "A#2",
                    "midi": 46,
                    "time": 146.9998529999985,
                    "velocity": 0.48031496062992124,
                    "duration": 0.10267846875001396
                },
                {
                    "name": "A#1",
                    "midi": 34,
                    "time": 146.9998529999985,
                    "velocity": 0.48031496062992124,
                    "duration": 0.10267846875001396
                },
                {
                    "name": "A2",
                    "midi": 45,
                    "time": 147.1069957499985,
                    "velocity": 0.48031496062992124,
                    "duration": 0.10267846875001396
                },
                {
                    "name": "A1",
                    "midi": 33,
                    "time": 147.1069957499985,
                    "velocity": 0.48031496062992124,
                    "duration": 0.10267846875001396
                },
                {
                    "name": "G#1",
                    "midi": 32,
                    "time": 147.2141384999985,
                    "velocity": 0.48031496062992124,
                    "duration": 0.10267846875001396
                },
                {
                    "name": "G#2",
                    "midi": 44,
                    "time": 147.2141384999985,
                    "velocity": 0.48031496062992124,
                    "duration": 0.10267846875001396
                },
                {
                    "name": "G2",
                    "midi": 43,
                    "time": 147.32128124999852,
                    "velocity": 0.48031496062992124,
                    "duration": 0.10267846875001396
                },
                {
                    "name": "G1",
                    "midi": 31,
                    "time": 147.32128124999852,
                    "velocity": 0.48031496062992124,
                    "duration": 0.10267846875001396
                },
                {
                    "name": "F#1",
                    "midi": 30,
                    "time": 147.42842399999853,
                    "velocity": 0.48031496062992124,
                    "duration": 0.10267846875001396
                },
                {
                    "name": "F#2",
                    "midi": 42,
                    "time": 147.42842399999853,
                    "velocity": 0.48031496062992124,
                    "duration": 0.10267846875001396
                },
                {
                    "name": "F2",
                    "midi": 41,
                    "time": 147.53556674999854,
                    "velocity": 0.48031496062992124,
                    "duration": 0.10267846875001396
                },
                {
                    "name": "F1",
                    "midi": 29,
                    "time": 147.53556674999854,
                    "velocity": 0.48031496062992124,
                    "duration": 0.10267846875001396
                },
                {
                    "name": "E1",
                    "midi": 28,
                    "time": 147.64270949999855,
                    "velocity": 0.48031496062992124,
                    "duration": 0.10267846875001396
                },
                {
                    "name": "E2",
                    "midi": 40,
                    "time": 147.64270949999855,
                    "velocity": 0.48031496062992124,
                    "duration": 0.10267846875001396
                },
                {
                    "name": "D#2",
                    "midi": 39,
                    "time": 147.74985224999855,
                    "velocity": 0.48031496062992124,
                    "duration": 0.10267846875001396
                },
                {
                    "name": "D#1",
                    "midi": 27,
                    "time": 147.74985224999855,
                    "velocity": 0.48031496062992124,
                    "duration": 0.10267846875001396
                },
                {
                    "name": "D2",
                    "midi": 38,
                    "time": 165.10697774999858,
                    "velocity": 0.48031496062992124,
                    "duration": 0.10267846875001396
                },
                {
                    "name": "D1",
                    "midi": 26,
                    "time": 165.10697774999858,
                    "velocity": 0.48031496062992124,
                    "duration": 0.10267846875001396
                },
                {
                    "name": "D3",
                    "midi": 50,
                    "time": 165.3212632499986,
                    "velocity": 0.48031496062992124,
                    "duration": 0.10267846875001396
                },
                {
                    "name": "D2",
                    "midi": 38,
                    "time": 165.3212632499986,
                    "velocity": 0.48031496062992124,
                    "duration": 0.10267846875001396
                },
                {
                    "name": "D1",
                    "midi": 26,
                    "time": 165.5355487499986,
                    "velocity": 0.48031496062992124,
                    "duration": 0.10267846875001396
                },
                {
                    "name": "D2",
                    "midi": 38,
                    "time": 165.5355487499986,
                    "velocity": 0.48031496062992124,
                    "duration": 0.10267846875001396
                },
                {
                    "name": "D3",
                    "midi": 50,
                    "time": 165.74983424999863,
                    "velocity": 0.48031496062992124,
                    "duration": 0.10267846875001396
                },
                {
                    "name": "D2",
                    "midi": 38,
                    "time": 165.74983424999863,
                    "velocity": 0.48031496062992124,
                    "duration": 0.10267846875001396
                },
                {
                    "name": "D2",
                    "midi": 38,
                    "time": 165.96411974999864,
                    "velocity": 0.48031496062992124,
                    "duration": 0.10267846875001396
                },
                {
                    "name": "D1",
                    "midi": 26,
                    "time": 165.96411974999864,
                    "velocity": 0.48031496062992124,
                    "duration": 0.10267846875001396
                },
                {
                    "name": "D3",
                    "midi": 50,
                    "time": 166.17840524999866,
                    "velocity": 0.48031496062992124,
                    "duration": 0.10267846875001396
                },
                {
                    "name": "D2",
                    "midi": 38,
                    "time": 166.17840524999866,
                    "velocity": 0.48031496062992124,
                    "duration": 0.10267846875001396
                },
                {
                    "name": "D1",
                    "midi": 26,
                    "time": 166.39269074999868,
                    "velocity": 0.48031496062992124,
                    "duration": 0.10267846875001396
                },
                {
                    "name": "D2",
                    "midi": 38,
                    "time": 166.39269074999868,
                    "velocity": 0.48031496062992124,
                    "duration": 0.10267846875001396
                },
                {
                    "name": "D3",
                    "midi": 50,
                    "time": 166.6069762499987,
                    "velocity": 0.48031496062992124,
                    "duration": 0.10267846875001396
                },
                {
                    "name": "D2",
                    "midi": 38,
                    "time": 166.6069762499987,
                    "velocity": 0.48031496062992124,
                    "duration": 0.10267846875001396
                },
                {
                    "name": "D2",
                    "midi": 38,
                    "time": 166.8212617499987,
                    "velocity": 0.48031496062992124,
                    "duration": 0.10267846875001396
                },
                {
                    "name": "D1",
                    "midi": 26,
                    "time": 166.8212617499987,
                    "velocity": 0.48031496062992124,
                    "duration": 0.10267846875001396
                },
                {
                    "name": "D3",
                    "midi": 50,
                    "time": 167.03554724999873,
                    "velocity": 0.48031496062992124,
                    "duration": 0.10267846875001396
                },
                {
                    "name": "D2",
                    "midi": 38,
                    "time": 167.03554724999873,
                    "velocity": 0.48031496062992124,
                    "duration": 0.10267846875001396
                },
                {
                    "name": "D1",
                    "midi": 26,
                    "time": 167.24983274999875,
                    "velocity": 0.48031496062992124,
                    "duration": 0.10267846875001396
                },
                {
                    "name": "D2",
                    "midi": 38,
                    "time": 167.24983274999875,
                    "velocity": 0.48031496062992124,
                    "duration": 0.10267846875001396
                },
                {
                    "name": "D3",
                    "midi": 50,
                    "time": 167.46411824999876,
                    "velocity": 0.48031496062992124,
                    "duration": 0.10267846875001396
                },
                {
                    "name": "D2",
                    "midi": 38,
                    "time": 167.46411824999876,
                    "velocity": 0.48031496062992124,
                    "duration": 0.10267846875001396
                },
                {
                    "name": "D2",
                    "midi": 38,
                    "time": 167.67840374999878,
                    "velocity": 0.48031496062992124,
                    "duration": 0.10267846875001396
                },
                {
                    "name": "D1",
                    "midi": 26,
                    "time": 167.67840374999878,
                    "velocity": 0.48031496062992124,
                    "duration": 0.10267846875001396
                },
                {
                    "name": "D3",
                    "midi": 50,
                    "time": 167.8926892499988,
                    "velocity": 0.48031496062992124,
                    "duration": 0.10267846875001396
                },
                {
                    "name": "D2",
                    "midi": 38,
                    "time": 167.8926892499988,
                    "velocity": 0.48031496062992124,
                    "duration": 0.10267846875001396
                },
                {
                    "name": "D1",
                    "midi": 26,
                    "time": 168.1069747499988,
                    "velocity": 0.48031496062992124,
                    "duration": 0.10267846875001396
                },
                {
                    "name": "D2",
                    "midi": 38,
                    "time": 168.1069747499988,
                    "velocity": 0.48031496062992124,
                    "duration": 0.10267846875001396
                },
                {
                    "name": "D3",
                    "midi": 50,
                    "time": 168.32126024999883,
                    "velocity": 0.48031496062992124,
                    "duration": 0.10267846875001396
                },
                {
                    "name": "D2",
                    "midi": 38,
                    "time": 168.32126024999883,
                    "velocity": 0.48031496062992124,
                    "duration": 0.10267846875001396
                },
                {
                    "name": "D2",
                    "midi": 38,
                    "time": 168.53554574999885,
                    "velocity": 0.48031496062992124,
                    "duration": 0.10267846875001396
                },
                {
                    "name": "D1",
                    "midi": 26,
                    "time": 168.53554574999885,
                    "velocity": 0.48031496062992124,
                    "duration": 0.10267846875001396
                },
                {
                    "name": "D3",
                    "midi": 50,
                    "time": 168.74983124999886,
                    "velocity": 0.48031496062992124,
                    "duration": 0.10267846875001396
                },
                {
                    "name": "D2",
                    "midi": 38,
                    "time": 168.74983124999886,
                    "velocity": 0.48031496062992124,
                    "duration": 0.10267846875001396
                },
                {
                    "name": "D1",
                    "midi": 26,
                    "time": 168.96411674999888,
                    "velocity": 0.48031496062992124,
                    "duration": 0.10267846875001396
                },
                {
                    "name": "D2",
                    "midi": 38,
                    "time": 168.96411674999888,
                    "velocity": 0.48031496062992124,
                    "duration": 0.10267846875001396
                },
                {
                    "name": "D3",
                    "midi": 50,
                    "time": 169.1784022499989,
                    "velocity": 0.48031496062992124,
                    "duration": 0.10267846875001396
                },
                {
                    "name": "D2",
                    "midi": 38,
                    "time": 169.1784022499989,
                    "velocity": 0.48031496062992124,
                    "duration": 0.10267846875001396
                },
                {
                    "name": "D2",
                    "midi": 38,
                    "time": 169.3926877499989,
                    "velocity": 0.48031496062992124,
                    "duration": 0.10267846875001396
                },
                {
                    "name": "D1",
                    "midi": 26,
                    "time": 169.3926877499989,
                    "velocity": 0.48031496062992124,
                    "duration": 0.10267846875001396
                },
                {
                    "name": "D3",
                    "midi": 50,
                    "time": 169.60697324999893,
                    "velocity": 0.48031496062992124,
                    "duration": 0.10267846875001396
                },
                {
                    "name": "D2",
                    "midi": 38,
                    "time": 169.60697324999893,
                    "velocity": 0.48031496062992124,
                    "duration": 0.10267846875001396
                },
                {
                    "name": "D1",
                    "midi": 26,
                    "time": 169.82125874999895,
                    "velocity": 0.48031496062992124,
                    "duration": 0.10267846875001396
                },
                {
                    "name": "D2",
                    "midi": 38,
                    "time": 169.82125874999895,
                    "velocity": 0.48031496062992124,
                    "duration": 0.10267846875001396
                },
                {
                    "name": "D3",
                    "midi": 50,
                    "time": 170.03554424999896,
                    "velocity": 0.48031496062992124,
                    "duration": 0.10267846875001396
                },
                {
                    "name": "D2",
                    "midi": 38,
                    "time": 170.03554424999896,
                    "velocity": 0.48031496062992124,
                    "duration": 0.10267846875001396
                },
                {
                    "name": "D2",
                    "midi": 38,
                    "time": 170.24982974999898,
                    "velocity": 0.48031496062992124,
                    "duration": 0.10267846875001396
                },
                {
                    "name": "D1",
                    "midi": 26,
                    "time": 170.24982974999898,
                    "velocity": 0.48031496062992124,
                    "duration": 0.10267846875001396
                },
                {
                    "name": "D3",
                    "midi": 50,
                    "time": 170.464115249999,
                    "velocity": 0.48031496062992124,
                    "duration": 0.10267846875001396
                },
                {
                    "name": "D2",
                    "midi": 38,
                    "time": 170.464115249999,
                    "velocity": 0.48031496062992124,
                    "duration": 0.10267846875001396
                },
                {
                    "name": "D1",
                    "midi": 26,
                    "time": 170.678400749999,
                    "velocity": 0.48031496062992124,
                    "duration": 0.10267846875001396
                },
                {
                    "name": "D2",
                    "midi": 38,
                    "time": 170.678400749999,
                    "velocity": 0.48031496062992124,
                    "duration": 0.10267846875001396
                },
                {
                    "name": "D3",
                    "midi": 50,
                    "time": 170.89268624999903,
                    "velocity": 0.48031496062992124,
                    "duration": 0.10267846875001396
                },
                {
                    "name": "D2",
                    "midi": 38,
                    "time": 170.89268624999903,
                    "velocity": 0.48031496062992124,
                    "duration": 0.10267846875001396
                },
                {
                    "name": "D2",
                    "midi": 38,
                    "time": 171.10697174999905,
                    "velocity": 0.48031496062992124,
                    "duration": 0.10267846875001396
                },
                {
                    "name": "D1",
                    "midi": 26,
                    "time": 171.10697174999905,
                    "velocity": 0.48031496062992124,
                    "duration": 0.10267846875001396
                },
                {
                    "name": "D3",
                    "midi": 50,
                    "time": 171.32125724999906,
                    "velocity": 0.48031496062992124,
                    "duration": 0.10267846875001396
                },
                {
                    "name": "D2",
                    "midi": 38,
                    "time": 171.32125724999906,
                    "velocity": 0.48031496062992124,
                    "duration": 0.10267846875001396
                },
                {
                    "name": "D1",
                    "midi": 26,
                    "time": 171.53554274999908,
                    "velocity": 0.48031496062992124,
                    "duration": 0.10267846875001396
                },
                {
                    "name": "D2",
                    "midi": 38,
                    "time": 171.53554274999908,
                    "velocity": 0.48031496062992124,
                    "duration": 0.10267846875001396
                },
                {
                    "name": "D3",
                    "midi": 50,
                    "time": 171.7498282499991,
                    "velocity": 0.48031496062992124,
                    "duration": 0.10267846875001396
                },
                {
                    "name": "D2",
                    "midi": 38,
                    "time": 171.7498282499991,
                    "velocity": 0.48031496062992124,
                    "duration": 0.10267846875001396
                },
                {
                    "name": "D2",
                    "midi": 38,
                    "time": 171.96411374999911,
                    "velocity": 0.48031496062992124,
                    "duration": 0.10267846875001396
                },
                {
                    "name": "D1",
                    "midi": 26,
                    "time": 171.96411374999911,
                    "velocity": 0.48031496062992124,
                    "duration": 0.10267846875001396
                },
                {
                    "name": "D3",
                    "midi": 50,
                    "time": 172.17839924999913,
                    "velocity": 0.48031496062992124,
                    "duration": 0.10267846875001396
                },
                {
                    "name": "D2",
                    "midi": 38,
                    "time": 172.17839924999913,
                    "velocity": 0.48031496062992124,
                    "duration": 0.10267846875001396
                },
                {
                    "name": "D1",
                    "midi": 26,
                    "time": 172.39268474999915,
                    "velocity": 0.48031496062992124,
                    "duration": 0.10267846875001396
                },
                {
                    "name": "D2",
                    "midi": 38,
                    "time": 172.39268474999915,
                    "velocity": 0.48031496062992124,
                    "duration": 0.10267846875001396
                },
                {
                    "name": "D3",
                    "midi": 50,
                    "time": 172.60697024999916,
                    "velocity": 0.48031496062992124,
                    "duration": 0.10267846875001396
                },
                {
                    "name": "D2",
                    "midi": 38,
                    "time": 172.60697024999916,
                    "velocity": 0.48031496062992124,
                    "duration": 0.10267846875001396
                },
                {
                    "name": "D2",
                    "midi": 38,
                    "time": 172.82125574999918,
                    "velocity": 0.48031496062992124,
                    "duration": 0.10267846875001396
                },
                {
                    "name": "D1",
                    "midi": 26,
                    "time": 172.82125574999918,
                    "velocity": 0.48031496062992124,
                    "duration": 0.10267846875001396
                },
                {
                    "name": "D3",
                    "midi": 50,
                    "time": 173.0355412499992,
                    "velocity": 0.48031496062992124,
                    "duration": 0.10267846875001396
                },
                {
                    "name": "D2",
                    "midi": 38,
                    "time": 173.0355412499992,
                    "velocity": 0.48031496062992124,
                    "duration": 0.10267846875001396
                },
                {
                    "name": "D1",
                    "midi": 26,
                    "time": 173.24982674999922,
                    "velocity": 0.48031496062992124,
                    "duration": 0.10267846875001396
                },
                {
                    "name": "D2",
                    "midi": 38,
                    "time": 173.24982674999922,
                    "velocity": 0.48031496062992124,
                    "duration": 0.10267846875001396
                },
                {
                    "name": "D3",
                    "midi": 50,
                    "time": 173.46411224999923,
                    "velocity": 0.48031496062992124,
                    "duration": 0.10267846875001396
                },
                {
                    "name": "D2",
                    "midi": 38,
                    "time": 173.46411224999923,
                    "velocity": 0.48031496062992124,
                    "duration": 0.10267846875001396
                },
                {
                    "name": "D2",
                    "midi": 38,
                    "time": 173.67839774999925,
                    "velocity": 0.48031496062992124,
                    "duration": 0.10267846875001396
                },
                {
                    "name": "D1",
                    "midi": 26,
                    "time": 173.67839774999925,
                    "velocity": 0.48031496062992124,
                    "duration": 0.10267846875001396
                },
                {
                    "name": "D3",
                    "midi": 50,
                    "time": 173.89268324999927,
                    "velocity": 0.48031496062992124,
                    "duration": 0.10267846875001396
                },
                {
                    "name": "D2",
                    "midi": 38,
                    "time": 173.89268324999927,
                    "velocity": 0.48031496062992124,
                    "duration": 0.10267846875001396
                },
                {
                    "name": "D1",
                    "midi": 26,
                    "time": 174.10696874999928,
                    "velocity": 0.48031496062992124,
                    "duration": 0.10267846875001396
                },
                {
                    "name": "D2",
                    "midi": 38,
                    "time": 174.10696874999928,
                    "velocity": 0.48031496062992124,
                    "duration": 0.10267846875001396
                },
                {
                    "name": "D3",
                    "midi": 50,
                    "time": 174.3212542499993,
                    "velocity": 0.48031496062992124,
                    "duration": 0.10267846875001396
                },
                {
                    "name": "D2",
                    "midi": 38,
                    "time": 174.3212542499993,
                    "velocity": 0.48031496062992124,
                    "duration": 0.10267846875001396
                },
                {
                    "name": "D2",
                    "midi": 38,
                    "time": 174.53553974999932,
                    "velocity": 0.48031496062992124,
                    "duration": 0.10267846875001396
                },
                {
                    "name": "D1",
                    "midi": 26,
                    "time": 174.53553974999932,
                    "velocity": 0.48031496062992124,
                    "duration": 0.10267846875001396
                },
                {
                    "name": "D3",
                    "midi": 50,
                    "time": 174.74982524999933,
                    "velocity": 0.48031496062992124,
                    "duration": 0.10267846875001396
                },
                {
                    "name": "D2",
                    "midi": 38,
                    "time": 174.74982524999933,
                    "velocity": 0.48031496062992124,
                    "duration": 0.10267846875001396
                },
                {
                    "name": "D1",
                    "midi": 26,
                    "time": 174.96411074999935,
                    "velocity": 0.48031496062992124,
                    "duration": 0.10267846875001396
                },
                {
                    "name": "D2",
                    "midi": 38,
                    "time": 174.96411074999935,
                    "velocity": 0.48031496062992124,
                    "duration": 0.10267846875001396
                },
                {
                    "name": "D3",
                    "midi": 50,
                    "time": 175.17839624999937,
                    "velocity": 0.48031496062992124,
                    "duration": 0.10267846875001396
                },
                {
                    "name": "D2",
                    "midi": 38,
                    "time": 175.17839624999937,
                    "velocity": 0.48031496062992124,
                    "duration": 0.10267846875001396
                },
                {
                    "name": "D2",
                    "midi": 38,
                    "time": 175.39268174999938,
                    "velocity": 0.48031496062992124,
                    "duration": 0.10267846875001396
                },
                {
                    "name": "D1",
                    "midi": 26,
                    "time": 175.39268174999938,
                    "velocity": 0.48031496062992124,
                    "duration": 0.10267846875001396
                },
                {
                    "name": "D3",
                    "midi": 50,
                    "time": 175.6069672499994,
                    "velocity": 0.48031496062992124,
                    "duration": 0.10267846875001396
                },
                {
                    "name": "D2",
                    "midi": 38,
                    "time": 175.6069672499994,
                    "velocity": 0.48031496062992124,
                    "duration": 0.10267846875001396
                },
                {
                    "name": "D1",
                    "midi": 26,
                    "time": 175.82125274999942,
                    "velocity": 0.48031496062992124,
                    "duration": 0.10267846875001396
                },
                {
                    "name": "D2",
                    "midi": 38,
                    "time": 175.82125274999942,
                    "velocity": 0.48031496062992124,
                    "duration": 0.10267846875001396
                },
                {
                    "name": "D3",
                    "midi": 50,
                    "time": 176.03553824999943,
                    "velocity": 0.48031496062992124,
                    "duration": 0.10267846875001396
                },
                {
                    "name": "D2",
                    "midi": 38,
                    "time": 176.03553824999943,
                    "velocity": 0.48031496062992124,
                    "duration": 0.10267846875001396
                },
                {
                    "name": "D2",
                    "midi": 38,
                    "time": 176.24982374999945,
                    "velocity": 0.48031496062992124,
                    "duration": 0.10267846875001396
                },
                {
                    "name": "D1",
                    "midi": 26,
                    "time": 176.24982374999945,
                    "velocity": 0.48031496062992124,
                    "duration": 0.10267846875001396
                },
                {
                    "name": "D3",
                    "midi": 50,
                    "time": 176.46410924999947,
                    "velocity": 0.48031496062992124,
                    "duration": 0.10267846875001396
                },
                {
                    "name": "D2",
                    "midi": 38,
                    "time": 176.46410924999947,
                    "velocity": 0.48031496062992124,
                    "duration": 0.10267846875001396
                },
                {
                    "name": "D1",
                    "midi": 26,
                    "time": 176.67839474999948,
                    "velocity": 0.48031496062992124,
                    "duration": 0.10267846875001396
                },
                {
                    "name": "D2",
                    "midi": 38,
                    "time": 176.67839474999948,
                    "velocity": 0.48031496062992124,
                    "duration": 0.10267846875001396
                },
                {
                    "name": "D3",
                    "midi": 50,
                    "time": 176.8926802499995,
                    "velocity": 0.48031496062992124,
                    "duration": 0.10267846875001396
                },
                {
                    "name": "D2",
                    "midi": 38,
                    "time": 176.8926802499995,
                    "velocity": 0.48031496062992124,
                    "duration": 0.10267846875001396
                },
                {
                    "name": "D2",
                    "midi": 38,
                    "time": 177.10696574999952,
                    "velocity": 0.48031496062992124,
                    "duration": 0.10267846875001396
                },
                {
                    "name": "D1",
                    "midi": 26,
                    "time": 177.10696574999952,
                    "velocity": 0.48031496062992124,
                    "duration": 0.10267846875001396
                },
                {
                    "name": "D3",
                    "midi": 50,
                    "time": 177.32125124999953,
                    "velocity": 0.48031496062992124,
                    "duration": 0.10267846875001396
                },
                {
                    "name": "D2",
                    "midi": 38,
                    "time": 177.32125124999953,
                    "velocity": 0.48031496062992124,
                    "duration": 0.10267846875001396
                },
                {
                    "name": "D1",
                    "midi": 26,
                    "time": 177.53553674999955,
                    "velocity": 0.48031496062992124,
                    "duration": 0.10267846875001396
                },
                {
                    "name": "D2",
                    "midi": 38,
                    "time": 177.53553674999955,
                    "velocity": 0.48031496062992124,
                    "duration": 0.10267846875001396
                },
                {
                    "name": "D3",
                    "midi": 50,
                    "time": 177.74982224999957,
                    "velocity": 0.48031496062992124,
                    "duration": 0.10267846875001396
                },
                {
                    "name": "D2",
                    "midi": 38,
                    "time": 177.74982224999957,
                    "velocity": 0.48031496062992124,
                    "duration": 0.10267846875001396
                },
                {
                    "name": "D2",
                    "midi": 38,
                    "time": 177.96410774999958,
                    "velocity": 0.48031496062992124,
                    "duration": 0.10267846875001396
                },
                {
                    "name": "D1",
                    "midi": 26,
                    "time": 177.96410774999958,
                    "velocity": 0.48031496062992124,
                    "duration": 0.10267846875001396
                },
                {
                    "name": "D3",
                    "midi": 50,
                    "time": 178.1783932499996,
                    "velocity": 0.48031496062992124,
                    "duration": 0.10267846875001396
                },
                {
                    "name": "D2",
                    "midi": 38,
                    "time": 178.1783932499996,
                    "velocity": 0.48031496062992124,
                    "duration": 0.10267846875001396
                },
                {
                    "name": "D1",
                    "midi": 26,
                    "time": 178.39267874999962,
                    "velocity": 0.48031496062992124,
                    "duration": 0.10267846875001396
                },
                {
                    "name": "D2",
                    "midi": 38,
                    "time": 178.39267874999962,
                    "velocity": 0.48031496062992124,
                    "duration": 0.10267846875001396
                },
                {
                    "name": "D3",
                    "midi": 50,
                    "time": 178.60696424999963,
                    "velocity": 0.48031496062992124,
                    "duration": 0.10267846875001396
                },
                {
                    "name": "D2",
                    "midi": 38,
                    "time": 178.60696424999963,
                    "velocity": 0.48031496062992124,
                    "duration": 0.10267846875001396
                },
                {
                    "name": "D2",
                    "midi": 38,
                    "time": 178.82124974999965,
                    "velocity": 0.48031496062992124,
                    "duration": 0.10267846875001396
                },
                {
                    "name": "D1",
                    "midi": 26,
                    "time": 178.82124974999965,
                    "velocity": 0.48031496062992124,
                    "duration": 0.10267846875001396
                },
                {
                    "name": "D3",
                    "midi": 50,
                    "time": 179.03553524999967,
                    "velocity": 0.48031496062992124,
                    "duration": 0.10267846875001396
                },
                {
                    "name": "D2",
                    "midi": 38,
                    "time": 179.03553524999967,
                    "velocity": 0.48031496062992124,
                    "duration": 0.10267846875001396
                },
                {
                    "name": "D1",
                    "midi": 26,
                    "time": 179.24982074999969,
                    "velocity": 0.48031496062992124,
                    "duration": 0.10267846875001396
                },
                {
                    "name": "D2",
                    "midi": 38,
                    "time": 179.24982074999969,
                    "velocity": 0.48031496062992124,
                    "duration": 0.10267846875001396
                },
                {
                    "name": "D3",
                    "midi": 50,
                    "time": 179.4641062499997,
                    "velocity": 0.48031496062992124,
                    "duration": 0.10267846875001396
                },
                {
                    "name": "D2",
                    "midi": 38,
                    "time": 179.4641062499997,
                    "velocity": 0.48031496062992124,
                    "duration": 0.10267846875001396
                },
                {
                    "name": "D2",
                    "midi": 38,
                    "time": 179.67839174999972,
                    "velocity": 0.48031496062992124,
                    "duration": 0.10267846875001396
                },
                {
                    "name": "D1",
                    "midi": 26,
                    "time": 179.67839174999972,
                    "velocity": 0.48031496062992124,
                    "duration": 0.10267846875001396
                },
                {
                    "name": "D3",
                    "midi": 50,
                    "time": 179.89267724999974,
                    "velocity": 0.48031496062992124,
                    "duration": 0.10267846875001396
                },
                {
                    "name": "D2",
                    "midi": 38,
                    "time": 179.89267724999974,
                    "velocity": 0.48031496062992124,
                    "duration": 0.10267846875001396
                },
                {
                    "name": "D1",
                    "midi": 26,
                    "time": 180.10696274999975,
                    "velocity": 0.48031496062992124,
                    "duration": 0.10267846875001396
                },
                {
                    "name": "D2",
                    "midi": 38,
                    "time": 180.10696274999975,
                    "velocity": 0.48031496062992124,
                    "duration": 0.10267846875001396
                },
                {
                    "name": "D3",
                    "midi": 50,
                    "time": 180.32124824999977,
                    "velocity": 0.48031496062992124,
                    "duration": 0.10267846875001396
                },
                {
                    "name": "D2",
                    "midi": 38,
                    "time": 180.32124824999977,
                    "velocity": 0.48031496062992124,
                    "duration": 0.10267846875001396
                },
                {
                    "name": "D1",
                    "midi": 26,
                    "time": 180.5355337499998,
                    "velocity": 0.48031496062992124,
                    "duration": 0.10267846875001396
                },
                {
                    "name": "D2",
                    "midi": 38,
                    "time": 180.5355337499998,
                    "velocity": 0.48031496062992124,
                    "duration": 0.10267846875001396
                },
                {
                    "name": "D2",
                    "midi": 38,
                    "time": 180.7498192499998,
                    "velocity": 0.48031496062992124,
                    "duration": 0.10267846875001396
                },
                {
                    "name": "D1",
                    "midi": 26,
                    "time": 180.7498192499998,
                    "velocity": 0.48031496062992124,
                    "duration": 0.10267846875001396
                },
                {
                    "name": "D1",
                    "midi": 26,
                    "time": 180.96410474999982,
                    "velocity": 0.48031496062992124,
                    "duration": 0.10267846875001396
                },
                {
                    "name": "D2",
                    "midi": 38,
                    "time": 180.96410474999982,
                    "velocity": 0.48031496062992124,
                    "duration": 0.10267846875001396
                },
                {
                    "name": "D1",
                    "midi": 26,
                    "time": 181.17839024999984,
                    "velocity": 0.48031496062992124,
                    "duration": 0.10267846875001396
                },
                {
                    "name": "D2",
                    "midi": 38,
                    "time": 181.17839024999984,
                    "velocity": 0.48031496062992124,
                    "duration": 0.10267846875001396
                },
                {
                    "name": "D2",
                    "midi": 38,
                    "time": 181.39267574999985,
                    "velocity": 0.48031496062992124,
                    "duration": 0.10267846875001396
                },
                {
                    "name": "D1",
                    "midi": 26,
                    "time": 181.39267574999985,
                    "velocity": 0.48031496062992124,
                    "duration": 0.10267846875001396
                },
                {
                    "name": "D2",
                    "midi": 38,
                    "time": 181.60696124999987,
                    "velocity": 0.48031496062992124,
                    "duration": 0.10267846875001396
                },
                {
                    "name": "D1",
                    "midi": 26,
                    "time": 181.60696124999987,
                    "velocity": 0.48031496062992124,
                    "duration": 0.10267846875001396
                },
                {
                    "name": "D2",
                    "midi": 38,
                    "time": 181.8212467499999,
                    "velocity": 0.48031496062992124,
                    "duration": 0.10267846875001396
                },
                {
                    "name": "D1",
                    "midi": 26,
                    "time": 181.8212467499999,
                    "velocity": 0.48031496062992124,
                    "duration": 0.10267846875001396
                },
                {
                    "name": "D1",
                    "midi": 26,
                    "time": 182.0355322499999,
                    "velocity": 0.48031496062992124,
                    "duration": 0.10267846875001396
                },
                {
                    "name": "D2",
                    "midi": 38,
                    "time": 182.0355322499999,
                    "velocity": 0.48031496062992124,
                    "duration": 0.10267846875001396
                },
                {
                    "name": "D2",
                    "midi": 38,
                    "time": 182.24981774999992,
                    "velocity": 0.48031496062992124,
                    "duration": 0.10267846875001396
                },
                {
                    "name": "D1",
                    "midi": 26,
                    "time": 182.24981774999992,
                    "velocity": 0.48031496062992124,
                    "duration": 0.10267846875001396
                },
                {
                    "name": "D2",
                    "midi": 38,
                    "time": 182.46410324999994,
                    "velocity": 0.48031496062992124,
                    "duration": 0.10267846875001396
                },
                {
                    "name": "D1",
                    "midi": 26,
                    "time": 182.46410324999994,
                    "velocity": 0.48031496062992124,
                    "duration": 0.10267846875001396
                },
                {
                    "name": "D2",
                    "midi": 38,
                    "time": 182.67838874999995,
                    "velocity": 0.48031496062992124,
                    "duration": 0.10267846875001396
                },
                {
                    "name": "D1",
                    "midi": 26,
                    "time": 182.67838874999995,
                    "velocity": 0.48031496062992124,
                    "duration": 0.10267846875001396
                },
                {
                    "name": "A1",
                    "midi": 33,
                    "time": 182.99981699999998,
                    "velocity": 0.48031496062992124,
                    "duration": 0.10267846875001396
                },
                {
                    "name": "D2",
                    "midi": 38,
                    "time": 183.10695975,
                    "velocity": 0.48031496062992124,
                    "duration": 0.10267846875001396
                },
                {
                    "name": "D1",
                    "midi": 26,
                    "time": 183.2141025,
                    "velocity": 0.48031496062992124,
                    "duration": 0.10267846875001396
                },
                {
                    "name": "D2",
                    "midi": 38,
                    "time": 183.32124525,
                    "velocity": 0.48031496062992124,
                    "duration": 0.10267846875001396
                },
                {
                    "name": "A1",
                    "midi": 33,
                    "time": 183.428388,
                    "velocity": 0.48031496062992124,
                    "duration": 0.10267846875001396
                },
                {
                    "name": "D2",
                    "midi": 38,
                    "time": 183.53553075000002,
                    "velocity": 0.48031496062992124,
                    "duration": 0.10267846875001396
                },
                {
                    "name": "D1",
                    "midi": 26,
                    "time": 183.64267350000003,
                    "velocity": 0.48031496062992124,
                    "duration": 0.10267846875001396
                },
                {
                    "name": "D2",
                    "midi": 38,
                    "time": 183.74981625000004,
                    "velocity": 0.48031496062992124,
                    "duration": 0.10267846875001396
                },
                {
                    "name": "A1",
                    "midi": 33,
                    "time": 183.85695900000005,
                    "velocity": 0.48031496062992124,
                    "duration": 0.10267846875001396
                },
                {
                    "name": "D2",
                    "midi": 38,
                    "time": 183.96410175000005,
                    "velocity": 0.48031496062992124,
                    "duration": 0.10267846875001396
                },
                {
                    "name": "D1",
                    "midi": 26,
                    "time": 184.07124450000006,
                    "velocity": 0.48031496062992124,
                    "duration": 0.10267846875001396
                },
                {
                    "name": "D2",
                    "midi": 38,
                    "time": 184.17838725000007,
                    "velocity": 0.48031496062992124,
                    "duration": 0.10267846875001396
                },
                {
                    "name": "A1",
                    "midi": 33,
                    "time": 184.28553000000008,
                    "velocity": 0.48031496062992124,
                    "duration": 0.10267846875001396
                },
                {
                    "name": "D2",
                    "midi": 38,
                    "time": 184.3926727500001,
                    "velocity": 0.48031496062992124,
                    "duration": 0.10267846875001396
                },
                {
                    "name": "D1",
                    "midi": 26,
                    "time": 184.4998155000001,
                    "velocity": 0.48031496062992124,
                    "duration": 0.10267846875001396
                },
                {
                    "name": "D2",
                    "midi": 38,
                    "time": 184.6069582500001,
                    "velocity": 0.48031496062992124,
                    "duration": 0.10267846875001396
                },
                {
                    "name": "A1",
                    "midi": 33,
                    "time": 184.7141010000001,
                    "velocity": 0.48031496062992124,
                    "duration": 0.10267846875001396
                },
                {
                    "name": "D2",
                    "midi": 38,
                    "time": 184.82124375000012,
                    "velocity": 0.48031496062992124,
                    "duration": 0.10267846875001396
                },
                {
                    "name": "D1",
                    "midi": 26,
                    "time": 184.92838650000013,
                    "velocity": 0.48031496062992124,
                    "duration": 0.10267846875001396
                },
                {
                    "name": "D2",
                    "midi": 38,
                    "time": 185.03552925000014,
                    "velocity": 0.48031496062992124,
                    "duration": 0.10267846875001396
                },
                {
                    "name": "A1",
                    "midi": 33,
                    "time": 185.14267200000015,
                    "velocity": 0.48031496062992124,
                    "duration": 0.10267846875001396
                },
                {
                    "name": "D2",
                    "midi": 38,
                    "time": 185.24981475000016,
                    "velocity": 0.48031496062992124,
                    "duration": 0.10267846875001396
                },
                {
                    "name": "D1",
                    "midi": 26,
                    "time": 185.35695750000016,
                    "velocity": 0.48031496062992124,
                    "duration": 0.10267846875001396
                },
                {
                    "name": "D2",
                    "midi": 38,
                    "time": 185.46410025000017,
                    "velocity": 0.48031496062992124,
                    "duration": 0.10267846875001396
                },
                {
                    "name": "A1",
                    "midi": 33,
                    "time": 185.57124300000018,
                    "velocity": 0.48031496062992124,
                    "duration": 0.10267846875001396
                },
                {
                    "name": "D2",
                    "midi": 38,
                    "time": 185.6783857500002,
                    "velocity": 0.48031496062992124,
                    "duration": 0.10267846875001396
                },
                {
                    "name": "D1",
                    "midi": 26,
                    "time": 185.7855285000002,
                    "velocity": 0.48031496062992124,
                    "duration": 0.10267846875001396
                },
                {
                    "name": "D2",
                    "midi": 38,
                    "time": 185.8926712500002,
                    "velocity": 0.48031496062992124,
                    "duration": 0.10267846875001396
                },
                {
                    "name": "A1",
                    "midi": 33,
                    "time": 185.9998140000002,
                    "velocity": 0.48031496062992124,
                    "duration": 0.10267846875001396
                },
                {
                    "name": "D2",
                    "midi": 38,
                    "time": 186.10695675000022,
                    "velocity": 0.48031496062992124,
                    "duration": 0.10267846875001396
                },
                {
                    "name": "D1",
                    "midi": 26,
                    "time": 186.21409950000023,
                    "velocity": 0.48031496062992124,
                    "duration": 0.10267846875001396
                },
                {
                    "name": "D2",
                    "midi": 38,
                    "time": 186.32124225000024,
                    "velocity": 0.48031496062992124,
                    "duration": 0.10267846875001396
                },
                {
                    "name": "D2",
                    "midi": 38,
                    "time": 186.42838500000025,
                    "velocity": 0.48031496062992124,
                    "duration": 0.10267846875001396
                },
                {
                    "name": "D1",
                    "midi": 26,
                    "time": 186.53552775000026,
                    "velocity": 0.48031496062992124,
                    "duration": 0.10267846875001396
                },
                {
                    "name": "A0",
                    "midi": 21,
                    "time": 186.64267050000026,
                    "velocity": 0.48031496062992124,
                    "duration": 0.10267846875001396
                },
                {
                    "name": "A1",
                    "midi": 33,
                    "time": 186.74981325000027,
                    "velocity": 0.48031496062992124,
                    "duration": 0.10267846875001396
                },
                {
                    "name": "D2",
                    "midi": 38,
                    "time": 186.85695600000028,
                    "velocity": 0.48031496062992124,
                    "duration": 0.10267846875001396
                },
                {
                    "name": "D1",
                    "midi": 26,
                    "time": 186.9640987500003,
                    "velocity": 0.48031496062992124,
                    "duration": 0.10267846875001396
                },
                {
                    "name": "A0",
                    "midi": 21,
                    "time": 187.0712415000003,
                    "velocity": 0.48031496062992124,
                    "duration": 0.10267846875001396
                },
                {
                    "name": "A1",
                    "midi": 33,
                    "time": 187.1783842500003,
                    "velocity": 0.48031496062992124,
                    "duration": 0.10267846875001396
                },
                {
                    "name": "D2",
                    "midi": 38,
                    "time": 187.28552700000031,
                    "velocity": 0.48031496062992124,
                    "duration": 0.10267846875001396
                },
                {
                    "name": "D1",
                    "midi": 26,
                    "time": 187.39266975000032,
                    "velocity": 0.48031496062992124,
                    "duration": 0.10267846875001396
                },
                {
                    "name": "A0",
                    "midi": 21,
                    "time": 187.49981250000033,
                    "velocity": 0.48031496062992124,
                    "duration": 0.10267846875001396
                },
                {
                    "name": "A1",
                    "midi": 33,
                    "time": 187.60695525000034,
                    "velocity": 0.48031496062992124,
                    "duration": 0.10267846875001396
                },
                {
                    "name": "D2",
                    "midi": 38,
                    "time": 187.71409800000035,
                    "velocity": 0.48031496062992124,
                    "duration": 0.10267846875001396
                },
                {
                    "name": "D1",
                    "midi": 26,
                    "time": 187.82124075000036,
                    "velocity": 0.48031496062992124,
                    "duration": 0.10267846875001396
                },
                {
                    "name": "A0",
                    "midi": 21,
                    "time": 187.92838350000036,
                    "velocity": 0.48031496062992124,
                    "duration": 0.10267846875001396
                },
                {
                    "name": "A1",
                    "midi": 33,
                    "time": 188.03552625000037,
                    "velocity": 0.48031496062992124,
                    "duration": 0.10267846875001396
                },
                {
                    "name": "D1",
                    "midi": 26,
                    "time": 188.14266900000038,
                    "velocity": 0.48031496062992124,
                    "duration": 0.20982121874999393
                },
                {
                    "name": "D0",
                    "midi": 14,
                    "time": 188.14266900000038,
                    "velocity": 0.48031496062992124,
                    "duration": 0.20982121874999393
                },
                {
                    "name": "A1",
                    "midi": 33,
                    "time": 188.35695450000037,
                    "velocity": 0.48031496062992124,
                    "duration": 0.20982121874999393
                },
                {
                    "name": "A0",
                    "midi": 21,
                    "time": 188.35695450000037,
                    "velocity": 0.48031496062992124,
                    "duration": 0.20982121874999393
                },
                {
                    "name": "D1",
                    "midi": 26,
                    "time": 188.57124000000036,
                    "velocity": 0.48031496062992124,
                    "duration": 0.20982121874999393
                },
                {
                    "name": "D2",
                    "midi": 38,
                    "time": 188.57124000000036,
                    "velocity": 0.48031496062992124,
                    "duration": 0.20982121874999393
                },
                {
                    "name": "A1",
                    "midi": 33,
                    "time": 188.78552550000035,
                    "velocity": 0.48031496062992124,
                    "duration": 0.20982121874999393
                },
                {
                    "name": "A0",
                    "midi": 21,
                    "time": 188.78552550000035,
                    "velocity": 0.48031496062992124,
                    "duration": 0.20982121874999393
                },
                {
                    "name": "D1",
                    "midi": 26,
                    "time": 188.99981100000034,
                    "velocity": 0.48031496062992124,
                    "duration": 0.20982121874999393
                },
                {
                    "name": "D2",
                    "midi": 38,
                    "time": 188.99981100000034,
                    "velocity": 0.48031496062992124,
                    "duration": 0.20982121874999393
                },
                {
                    "name": "A1",
                    "midi": 33,
                    "time": 189.21409650000032,
                    "velocity": 0.48031496062992124,
                    "duration": 0.20982121874999393
                },
                {
                    "name": "A0",
                    "midi": 21,
                    "time": 189.21409650000032,
                    "velocity": 0.48031496062992124,
                    "duration": 0.20982121874999393
                },
                {
                    "name": "D2",
                    "midi": 38,
                    "time": 189.4283820000003,
                    "velocity": 0.48031496062992124,
                    "duration": 0.20982121874999393
                },
                {
                    "name": "D1",
                    "midi": 26,
                    "time": 189.4283820000003,
                    "velocity": 0.48031496062992124,
                    "duration": 0.20982121874999393
                },
                {
                    "name": "A1",
                    "midi": 33,
                    "time": 189.6426675000003,
                    "velocity": 0.48031496062992124,
                    "duration": 0.20982121874999393
                },
                {
                    "name": "A0",
                    "midi": 21,
                    "time": 189.6426675000003,
                    "velocity": 0.48031496062992124,
                    "duration": 0.20982121874999393
                },
                {
                    "name": "F#2",
                    "midi": 42,
                    "time": 189.8569530000003,
                    "velocity": 0.48031496062992124,
                    "duration": 0.10267846875001396
                },
                {
                    "name": "A#2",
                    "midi": 46,
                    "time": 189.8569530000003,
                    "velocity": 0.48031496062992124,
                    "duration": 0.10267846875001396
                },
                {
                    "name": "D2",
                    "midi": 38,
                    "time": 189.9640957500003,
                    "velocity": 0.48031496062992124,
                    "duration": 0.10267846875001396
                },
                {
                    "name": "D3",
                    "midi": 50,
                    "time": 189.9640957500003,
                    "velocity": 0.48031496062992124,
                    "duration": 0.10267846875001396
                },
                {
                    "name": "A#2",
                    "midi": 46,
                    "time": 190.0712385000003,
                    "velocity": 0.48031496062992124,
                    "duration": 0.10267846875001396
                },
                {
                    "name": "F#2",
                    "midi": 42,
                    "time": 190.0712385000003,
                    "velocity": 0.48031496062992124,
                    "duration": 0.10267846875001396
                },
                {
                    "name": "D3",
                    "midi": 50,
                    "time": 190.1783812500003,
                    "velocity": 0.48031496062992124,
                    "duration": 0.10267846875001396
                },
                {
                    "name": "D2",
                    "midi": 38,
                    "time": 190.1783812500003,
                    "velocity": 0.48031496062992124,
                    "duration": 0.10267846875001396
                },
                {
                    "name": "A#2",
                    "midi": 46,
                    "time": 190.28552400000032,
                    "velocity": 0.48031496062992124,
                    "duration": 0.10267846875001396
                },
                {
                    "name": "F#2",
                    "midi": 42,
                    "time": 190.28552400000032,
                    "velocity": 0.48031496062992124,
                    "duration": 0.10267846875001396
                },
                {
                    "name": "D3",
                    "midi": 50,
                    "time": 190.39266675000033,
                    "velocity": 0.48031496062992124,
                    "duration": 0.10267846875001396
                },
                {
                    "name": "D2",
                    "midi": 38,
                    "time": 190.39266675000033,
                    "velocity": 0.48031496062992124,
                    "duration": 0.10267846875001396
                },
                {
                    "name": "A#2",
                    "midi": 46,
                    "time": 190.49980950000034,
                    "velocity": 0.48031496062992124,
                    "duration": 0.10267846875001396
                },
                {
                    "name": "F#2",
                    "midi": 42,
                    "time": 190.49980950000034,
                    "velocity": 0.48031496062992124,
                    "duration": 0.10267846875001396
                },
                {
                    "name": "D2",
                    "midi": 38,
                    "time": 190.60695225000035,
                    "velocity": 0.48031496062992124,
                    "duration": 0.10267846875001396
                },
                {
                    "name": "D3",
                    "midi": 50,
                    "time": 190.60695225000035,
                    "velocity": 0.48031496062992124,
                    "duration": 0.10267846875001396
                },
                {
                    "name": "F#2",
                    "midi": 42,
                    "time": 190.71409500000036,
                    "velocity": 0.48031496062992124,
                    "duration": 0.10267846875001396
                },
                {
                    "name": "A#2",
                    "midi": 46,
                    "time": 190.71409500000036,
                    "velocity": 0.48031496062992124,
                    "duration": 0.10267846875001396
                },
                {
                    "name": "D2",
                    "midi": 38,
                    "time": 190.82123775000036,
                    "velocity": 0.48031496062992124,
                    "duration": 0.10267846875001396
                },
                {
                    "name": "D3",
                    "midi": 50,
                    "time": 190.82123775000036,
                    "velocity": 0.48031496062992124,
                    "duration": 0.10267846875001396
                },
                {
                    "name": "A#2",
                    "midi": 46,
                    "time": 190.92838050000037,
                    "velocity": 0.48031496062992124,
                    "duration": 0.10267846875001396
                },
                {
                    "name": "F#2",
                    "midi": 42,
                    "time": 190.92838050000037,
                    "velocity": 0.48031496062992124,
                    "duration": 0.10267846875001396
                },
                {
                    "name": "D3",
                    "midi": 50,
                    "time": 191.03552325000038,
                    "velocity": 0.48031496062992124,
                    "duration": 0.10267846875001396
                },
                {
                    "name": "D2",
                    "midi": 38,
                    "time": 191.03552325000038,
                    "velocity": 0.48031496062992124,
                    "duration": 0.10267846875001396
                },
                {
                    "name": "A#2",
                    "midi": 46,
                    "time": 191.1426660000004,
                    "velocity": 0.48031496062992124,
                    "duration": 0.10267846875001396
                },
                {
                    "name": "F#2",
                    "midi": 42,
                    "time": 191.1426660000004,
                    "velocity": 0.48031496062992124,
                    "duration": 0.10267846875001396
                },
                {
                    "name": "D2",
                    "midi": 38,
                    "time": 191.2498087500004,
                    "velocity": 0.48031496062992124,
                    "duration": 0.10267846875001396
                },
                {
                    "name": "D3",
                    "midi": 50,
                    "time": 191.2498087500004,
                    "velocity": 0.48031496062992124,
                    "duration": 0.10267846875001396
                },
                {
                    "name": "F#2",
                    "midi": 42,
                    "time": 191.3569515000004,
                    "velocity": 0.48031496062992124,
                    "duration": 0.10267846875001396
                },
                {
                    "name": "A#2",
                    "midi": 46,
                    "time": 191.3569515000004,
                    "velocity": 0.48031496062992124,
                    "duration": 0.10267846875001396
                },
                {
                    "name": "D3",
                    "midi": 50,
                    "time": 191.46409425000041,
                    "velocity": 0.48031496062992124,
                    "duration": 0.10267846875001396
                },
                {
                    "name": "D2",
                    "midi": 38,
                    "time": 191.46409425000041,
                    "velocity": 0.48031496062992124,
                    "duration": 0.10267846875001396
                },
                {
                    "name": "G#2",
                    "midi": 44,
                    "time": 191.57123700000042,
                    "velocity": 0.48031496062992124,
                    "duration": 0.10267846875001396
                },
                {
                    "name": "D3",
                    "midi": 50,
                    "time": 191.67837975000043,
                    "velocity": 0.48031496062992124,
                    "duration": 0.10267846875001396
                },
                {
                    "name": "D2",
                    "midi": 38,
                    "time": 191.67837975000043,
                    "velocity": 0.48031496062992124,
                    "duration": 0.10267846875001396
                },
                {
                    "name": "G#2",
                    "midi": 44,
                    "time": 191.78552250000044,
                    "velocity": 0.48031496062992124,
                    "duration": 0.10267846875001396
                },
                {
                    "name": "D3",
                    "midi": 50,
                    "time": 191.89266525000045,
                    "velocity": 0.48031496062992124,
                    "duration": 0.10267846875001396
                },
                {
                    "name": "D2",
                    "midi": 38,
                    "time": 191.89266525000045,
                    "velocity": 0.48031496062992124,
                    "duration": 0.10267846875001396
                },
                {
                    "name": "G#2",
                    "midi": 44,
                    "time": 191.99980800000046,
                    "velocity": 0.48031496062992124,
                    "duration": 0.10267846875001396
                },
                {
                    "name": "D3",
                    "midi": 50,
                    "time": 192.10695075000046,
                    "velocity": 0.48031496062992124,
                    "duration": 0.10267846875001396
                },
                {
                    "name": "D2",
                    "midi": 38,
                    "time": 192.10695075000046,
                    "velocity": 0.48031496062992124,
                    "duration": 0.10267846875001396
                },
                {
                    "name": "G#2",
                    "midi": 44,
                    "time": 192.21409350000047,
                    "velocity": 0.48031496062992124,
                    "duration": 0.10267846875001396
                },
                {
                    "name": "D3",
                    "midi": 50,
                    "time": 192.32123625000048,
                    "velocity": 0.48031496062992124,
                    "duration": 0.10267846875001396
                },
                {
                    "name": "D2",
                    "midi": 38,
                    "time": 192.32123625000048,
                    "velocity": 0.48031496062992124,
                    "duration": 0.10267846875001396
                },
                {
                    "name": "D1",
                    "midi": 26,
                    "time": 192.5355217500005,
                    "velocity": 0.48031496062992124,
                    "duration": 0.10267846875001396
                },
                {
                    "name": "A2",
                    "midi": 45,
                    "time": 192.6426645000005,
                    "velocity": 0.48031496062992124,
                    "duration": 0.10267846875001396
                },
                {
                    "name": "D2",
                    "midi": 38,
                    "time": 192.74980725000052,
                    "velocity": 0.48031496062992124,
                    "duration": 0.10267846875001396
                },
                {
                    "name": "D2",
                    "midi": 38,
                    "time": 192.85695000000052,
                    "velocity": 0.48031496062992124,
                    "duration": 0.10267846875001396
                },
                {
                    "name": "G1",
                    "midi": 31,
                    "time": 192.96409275000053,
                    "velocity": 0.48031496062992124,
                    "duration": 0.10267846875001396
                },
                {
                    "name": "A1",
                    "midi": 33,
                    "time": 193.07123550000054,
                    "velocity": 0.48031496062992124,
                    "duration": 0.10267846875001396
                },
                {
                    "name": "G1",
                    "midi": 31,
                    "time": 193.17837825000055,
                    "velocity": 0.48031496062992124,
                    "duration": 0.10267846875001396
                },
                {
                    "name": "D1",
                    "midi": 26,
                    "time": 193.28552100000056,
                    "velocity": 0.48031496062992124,
                    "duration": 0.4241067187500107
                }
            ],
            "controlChanges": {
                "7": [
                    {
                        "number": 7,
                        "time": 0,
                        "value": 0.7480314960629921
                    }
                ]
            },
            "id": 2,
            "instrumentNumber": 0,
            "instrument": "acoustic grand piano",
            "instrumentFamily": "piano",
            "channelNumber": 0,
            "isPercussion": false
        },
        {
            "startTime": 0,
            "duration": 0,
            "length": 0,
            "notes": [],
            "controlChanges": {},
            "id": 3
        }
    ]
}