{
    "header": {
        "PPQ": 480,
        "timeSignature": [
            4,
            4
        ],
        "bpm": 63.57999900391335,
        "name": "Grave"
    },
    "startTime": 0,
    "duration": 147.216108,
    "tracks": [
        {
            "startTime": 0,
            "duration": 0,
            "length": 0,
            "notes": [],
            "controlChanges": {},
            "id": 0,
            "name": "Grave"
        },
        {
            "startTime": 0,
            "duration": 147.216108,
            "length": 711,
            "notes": [
                {
                    "name": "C#4",
                    "midi": 61,
                    "time": 0,
                    "velocity": 0.7480314960629921,
                    "duration": 1.769424375
                },
                {
                    "name": "C#5",
                    "midi": 73,
                    "time": 0.943693,
                    "velocity": 0.7716535433070866,
                    "duration": 0.943693
                },
                {
                    "name": "G#4",
                    "midi": 68,
                    "time": 0.943693,
                    "velocity": 0.6456692913385826,
                    "duration": 0.943693
                },
                {
                    "name": "D#3",
                    "midi": 51,
                    "time": 1.769424375,
                    "velocity": 0.7244094488188977,
                    "duration": 0.11796162499999996
                },
                {
                    "name": "G3",
                    "midi": 55,
                    "time": 1.887386,
                    "velocity": 0.7716535433070866,
                    "duration": 0.9436929999999999
                },
                {
                    "name": "C#5",
                    "midi": 73,
                    "time": 2.3592325,
                    "velocity": 0.5905511811023622,
                    "duration": 0.47184649999999984
                },
                {
                    "name": "B4",
                    "midi": 71,
                    "time": 2.3592325,
                    "velocity": 0.5905511811023622,
                    "duration": 0.47184649999999984
                },
                {
                    "name": "E5",
                    "midi": 76,
                    "time": 2.3592325,
                    "velocity": 0.7086614173228346,
                    "duration": 0.47184649999999984
                },
                {
                    "name": "E4",
                    "midi": 64,
                    "time": 2.3592325,
                    "velocity": 0.5905511811023622,
                    "duration": 0.47184649999999984
                },
                {
                    "name": "F#4",
                    "midi": 66,
                    "time": 3.774772,
                    "velocity": 0.7480314960629921,
                    "duration": 1.7694243750000003
                },
                {
                    "name": "F#5",
                    "midi": 78,
                    "time": 4.718465,
                    "velocity": 0.7716535433070866,
                    "duration": 0.9436930000000006
                },
                {
                    "name": "C#5",
                    "midi": 73,
                    "time": 4.718465,
                    "velocity": 0.6456692913385826,
                    "duration": 0.9436930000000006
                },
                {
                    "name": "G#3",
                    "midi": 56,
                    "time": 5.544196375,
                    "velocity": 0.7244094488188977,
                    "duration": 0.1179616250000004
                },
                {
                    "name": "C4",
                    "midi": 60,
                    "time": 5.662158000000001,
                    "velocity": 0.7716535433070866,
                    "duration": 0.9436929999999997
                },
                {
                    "name": "F#5",
                    "midi": 78,
                    "time": 6.1340045000000005,
                    "velocity": 0.5905511811023622,
                    "duration": 0.47184649999999984
                },
                {
                    "name": "E5",
                    "midi": 76,
                    "time": 6.1340045000000005,
                    "velocity": 0.5905511811023622,
                    "duration": 0.47184649999999984
                },
                {
                    "name": "A5",
                    "midi": 81,
                    "time": 6.1340045000000005,
                    "velocity": 0.7086614173228346,
                    "duration": 0.47184649999999984
                },
                {
                    "name": "A4",
                    "midi": 69,
                    "time": 6.1340045000000005,
                    "velocity": 0.5905511811023622,
                    "duration": 0.47184649999999984
                },
                {
                    "name": "E5",
                    "midi": 76,
                    "time": 7.549544,
                    "velocity": 0.7480314960629921,
                    "duration": 1.8873860000000002
                },
                {
                    "name": "G#5",
                    "midi": 80,
                    "time": 8.493237,
                    "velocity": 0.5984251968503937,
                    "duration": 0.9436929999999997
                },
                {
                    "name": "A#5",
                    "midi": 82,
                    "time": 8.493237,
                    "velocity": 0.7165354330708661,
                    "duration": 0.9436929999999997
                },
                {
                    "name": "C#5",
                    "midi": 73,
                    "time": 8.493237,
                    "velocity": 0.5984251968503937,
                    "duration": 0.9436929999999997
                },
                {
                    "name": "A#4",
                    "midi": 70,
                    "time": 8.493237,
                    "velocity": 0.5984251968503937,
                    "duration": 0.9436929999999997
                },
                {
                    "name": "D#4",
                    "midi": 63,
                    "time": 9.43693,
                    "velocity": 0.7480314960629921,
                    "duration": 1.8873859999999993
                },
                {
                    "name": "D#5",
                    "midi": 75,
                    "time": 9.43693,
                    "velocity": 0.7480314960629921,
                    "duration": 1.8873859999999993
                },
                {
                    "name": "G#5",
                    "midi": 80,
                    "time": 10.380623,
                    "velocity": 0.5984251968503937,
                    "duration": 0.9436929999999997
                },
                {
                    "name": "F#5",
                    "midi": 78,
                    "time": 10.380623,
                    "velocity": 0.5984251968503937,
                    "duration": 0.9436929999999997
                },
                {
                    "name": "C6",
                    "midi": 84,
                    "time": 10.380623,
                    "velocity": 0.7086614173228346,
                    "duration": 0.9436929999999997
                },
                {
                    "name": "C5",
                    "midi": 72,
                    "time": 10.380623,
                    "velocity": 0.5984251968503937,
                    "duration": 0.9436929999999997
                },
                {
                    "name": "C#4",
                    "midi": 61,
                    "time": 11.324316,
                    "velocity": 0.7480314960629921,
                    "duration": 1.8873859999999993
                },
                {
                    "name": "C#5",
                    "midi": 73,
                    "time": 11.324316,
                    "velocity": 0.7480314960629921,
                    "duration": 0.47184649999999984
                },
                {
                    "name": "E5",
                    "midi": 76,
                    "time": 11.7961625,
                    "velocity": 0.6299212598425197,
                    "duration": 1.4155394999999995
                },
                {
                    "name": "G#5",
                    "midi": 80,
                    "time": 11.7961625,
                    "velocity": 0.6299212598425197,
                    "duration": 1.4155394999999995
                },
                {
                    "name": "C#6",
                    "midi": 85,
                    "time": 11.7961625,
                    "velocity": 0.7559055118110236,
                    "duration": 1.4155394999999995
                },
                {
                    "name": "C#5",
                    "midi": 73,
                    "time": 11.7961625,
                    "velocity": 0.6299212598425197,
                    "duration": 1.4155394999999995
                },
                {
                    "name": "E4",
                    "midi": 64,
                    "time": 15.099087999999998,
                    "velocity": 0.6377952755905512,
                    "duration": 0.9436929999999997
                },
                {
                    "name": "E3",
                    "midi": 52,
                    "time": 15.099087999999998,
                    "velocity": 0.5433070866141733,
                    "duration": 0.9436929999999997
                },
                {
                    "name": "E4",
                    "midi": 64,
                    "time": 16.042780999999998,
                    "velocity": 0.6771653543307087,
                    "duration": 0.9436929999999997
                },
                {
                    "name": "E3",
                    "midi": 52,
                    "time": 16.042780999999998,
                    "velocity": 0.5748031496062992,
                    "duration": 0.9436929999999997
                },
                {
                    "name": "E4",
                    "midi": 64,
                    "time": 16.986473999999998,
                    "velocity": 0.6535433070866141,
                    "duration": 0.9436929999999997
                },
                {
                    "name": "E3",
                    "midi": 52,
                    "time": 16.986473999999998,
                    "velocity": 0.5590551181102362,
                    "duration": 0.9436929999999997
                },
                {
                    "name": "E4",
                    "midi": 64,
                    "time": 17.930166999999997,
                    "velocity": 0.6062992125984252,
                    "duration": 0.9436929999999997
                },
                {
                    "name": "E3",
                    "midi": 52,
                    "time": 17.930166999999997,
                    "velocity": 0.5039370078740157,
                    "duration": 0.9436929999999997
                },
                {
                    "name": "C#4",
                    "midi": 61,
                    "time": 18.873859999999997,
                    "velocity": 0.5354330708661418,
                    "duration": 1.8873860000000064
                },
                {
                    "name": "G#3",
                    "midi": 56,
                    "time": 18.873859999999997,
                    "velocity": 0.4566929133858268,
                    "duration": 1.8873860000000064
                },
                {
                    "name": "F4",
                    "midi": 65,
                    "time": 19.18842433333333,
                    "velocity": 0.3464566929133858,
                    "duration": 0.1572821666666684
                },
                {
                    "name": "A4",
                    "midi": 69,
                    "time": 19.18842433333333,
                    "velocity": 0.3464566929133858,
                    "duration": 0.1572821666666684
                },
                {
                    "name": "F5",
                    "midi": 77,
                    "time": 19.18842433333333,
                    "velocity": 0.4094488188976378,
                    "duration": 0.1572821666666684
                },
                {
                    "name": "E4",
                    "midi": 64,
                    "time": 19.3457065,
                    "velocity": 0.3464566929133858,
                    "duration": 0.7864108333333348
                },
                {
                    "name": "C#5",
                    "midi": 73,
                    "time": 19.3457065,
                    "velocity": 0.3464566929133858,
                    "duration": 0.7864108333333348
                },
                {
                    "name": "E5",
                    "midi": 76,
                    "time": 19.3457065,
                    "velocity": 0.41732283464566927,
                    "duration": 0.7864108333333348
                },
                {
                    "name": "F4",
                    "midi": 65,
                    "time": 20.132117333333333,
                    "velocity": 0.3858267716535433,
                    "duration": 0.1572821666666684
                },
                {
                    "name": "A4",
                    "midi": 69,
                    "time": 20.132117333333333,
                    "velocity": 0.3858267716535433,
                    "duration": 0.1572821666666684
                },
                {
                    "name": "F5",
                    "midi": 77,
                    "time": 20.132117333333333,
                    "velocity": 0.4566929133858268,
                    "duration": 0.1572821666666684
                },
                {
                    "name": "E4",
                    "midi": 64,
                    "time": 20.289399500000002,
                    "velocity": 0.4015748031496063,
                    "duration": 0.7864108333333348
                },
                {
                    "name": "C#5",
                    "midi": 73,
                    "time": 20.289399500000002,
                    "velocity": 0.4015748031496063,
                    "duration": 0.7864108333333348
                },
                {
                    "name": "E5",
                    "midi": 76,
                    "time": 20.289399500000002,
                    "velocity": 0.48031496062992124,
                    "duration": 0.7864108333333348
                },
                {
                    "name": "F4",
                    "midi": 65,
                    "time": 21.075810333333337,
                    "velocity": 0.4330708661417323,
                    "duration": 0.1572821666666684
                },
                {
                    "name": "A4",
                    "midi": 69,
                    "time": 21.075810333333337,
                    "velocity": 0.4330708661417323,
                    "duration": 0.1572821666666684
                },
                {
                    "name": "F5",
                    "midi": 77,
                    "time": 21.075810333333337,
                    "velocity": 0.5196850393700787,
                    "duration": 0.1572821666666684
                },
                {
                    "name": "E4",
                    "midi": 64,
                    "time": 21.233092500000005,
                    "velocity": 0.44881889763779526,
                    "duration": 0.7864108333333348
                },
                {
                    "name": "C#5",
                    "midi": 73,
                    "time": 21.233092500000005,
                    "velocity": 0.44881889763779526,
                    "duration": 0.7864108333333348
                },
                {
                    "name": "E5",
                    "midi": 76,
                    "time": 21.233092500000005,
                    "velocity": 0.5354330708661418,
                    "duration": 0.7864108333333348
                },
                {
                    "name": "F4",
                    "midi": 65,
                    "time": 22.01950333333334,
                    "velocity": 0.48031496062992124,
                    "duration": 0.1572821666666684
                },
                {
                    "name": "A4",
                    "midi": 69,
                    "time": 22.01950333333334,
                    "velocity": 0.48031496062992124,
                    "duration": 0.1572821666666684
                },
                {
                    "name": "F5",
                    "midi": 77,
                    "time": 22.01950333333334,
                    "velocity": 0.5748031496062992,
                    "duration": 0.1572821666666684
                },
                {
                    "name": "E4",
                    "midi": 64,
                    "time": 22.17678550000001,
                    "velocity": 0.49606299212598426,
                    "duration": 0.7077697500000006
                },
                {
                    "name": "C#5",
                    "midi": 73,
                    "time": 22.17678550000001,
                    "velocity": 0.49606299212598426,
                    "duration": 0.7077697500000006
                },
                {
                    "name": "E5",
                    "midi": 76,
                    "time": 22.17678550000001,
                    "velocity": 0.5905511811023622,
                    "duration": 0.7077697500000006
                },
                {
                    "name": "F4",
                    "midi": 65,
                    "time": 22.88455525000001,
                    "velocity": 0.5275590551181102,
                    "duration": 0.23592324999999903
                },
                {
                    "name": "A4",
                    "midi": 69,
                    "time": 22.88455525000001,
                    "velocity": 0.5275590551181102,
                    "duration": 0.23592324999999903
                },
                {
                    "name": "F5",
                    "midi": 77,
                    "time": 22.88455525000001,
                    "velocity": 0.6377952755905512,
                    "duration": 0.23592324999999903
                },
                {
                    "name": "E4",
                    "midi": 64,
                    "time": 23.120478500000008,
                    "velocity": 0.5354330708661418,
                    "duration": 0.23592324999999903
                },
                {
                    "name": "C#5",
                    "midi": 73,
                    "time": 23.120478500000008,
                    "velocity": 0.5354330708661418,
                    "duration": 0.23592324999999903
                },
                {
                    "name": "E5",
                    "midi": 76,
                    "time": 23.120478500000008,
                    "velocity": 0.6377952755905512,
                    "duration": 0.23592324999999903
                },
                {
                    "name": "F4",
                    "midi": 65,
                    "time": 23.356401750000007,
                    "velocity": 0.5669291338582677,
                    "duration": 0.23592324999999903
                },
                {
                    "name": "A4",
                    "midi": 69,
                    "time": 23.356401750000007,
                    "velocity": 0.5669291338582677,
                    "duration": 0.23592324999999903
                },
                {
                    "name": "F5",
                    "midi": 77,
                    "time": 23.356401750000007,
                    "velocity": 0.6614173228346457,
                    "duration": 0.23592324999999903
                },
                {
                    "name": "E4",
                    "midi": 64,
                    "time": 23.592325000000006,
                    "velocity": 0.5669291338582677,
                    "duration": 0.23592324999999903
                },
                {
                    "name": "C#5",
                    "midi": 73,
                    "time": 23.592325000000006,
                    "velocity": 0.5669291338582677,
                    "duration": 0.23592324999999903
                },
                {
                    "name": "E5",
                    "midi": 76,
                    "time": 23.592325000000006,
                    "velocity": 0.6771653543307087,
                    "duration": 0.23592324999999903
                },
                {
                    "name": "F4",
                    "midi": 65,
                    "time": 23.828248250000005,
                    "velocity": 0.5826771653543307,
                    "duration": 0.23592324999999903
                },
                {
                    "name": "A4",
                    "midi": 69,
                    "time": 23.828248250000005,
                    "velocity": 0.5826771653543307,
                    "duration": 0.23592324999999903
                },
                {
                    "name": "F5",
                    "midi": 77,
                    "time": 23.828248250000005,
                    "velocity": 0.6850393700787402,
                    "duration": 0.23592324999999903
                },
                {
                    "name": "E4",
                    "midi": 64,
                    "time": 24.064171500000004,
                    "velocity": 0.5905511811023622,
                    "duration": 0.23592324999999903
                },
                {
                    "name": "C#5",
                    "midi": 73,
                    "time": 24.064171500000004,
                    "velocity": 0.5905511811023622,
                    "duration": 0.23592324999999903
                },
                {
                    "name": "E5",
                    "midi": 76,
                    "time": 24.064171500000004,
                    "velocity": 0.7086614173228346,
                    "duration": 0.23592324999999903
                },
                {
                    "name": "F4",
                    "midi": 65,
                    "time": 24.300094750000003,
                    "velocity": 0.5984251968503937,
                    "duration": 0.23592324999999903
                },
                {
                    "name": "A4",
                    "midi": 69,
                    "time": 24.300094750000003,
                    "velocity": 0.5984251968503937,
                    "duration": 0.23592324999999903
                },
                {
                    "name": "F5",
                    "midi": 77,
                    "time": 24.300094750000003,
                    "velocity": 0.7165354330708661,
                    "duration": 0.23592324999999903
                },
                {
                    "name": "E4",
                    "midi": 64,
                    "time": 24.536018000000002,
                    "velocity": 0.6141732283464567,
                    "duration": 0.23592324999999903
                },
                {
                    "name": "C#5",
                    "midi": 73,
                    "time": 24.536018000000002,
                    "velocity": 0.6141732283464567,
                    "duration": 0.23592324999999903
                },
                {
                    "name": "E5",
                    "midi": 76,
                    "time": 24.536018000000002,
                    "velocity": 0.7244094488188977,
                    "duration": 0.23592324999999903
                },
                {
                    "name": "F4",
                    "midi": 65,
                    "time": 24.77194125,
                    "velocity": 0.6377952755905512,
                    "duration": 0.23592324999999903
                },
                {
                    "name": "A4",
                    "midi": 69,
                    "time": 24.77194125,
                    "velocity": 0.6377952755905512,
                    "duration": 0.23592324999999903
                },
                {
                    "name": "F5",
                    "midi": 77,
                    "time": 24.77194125,
                    "velocity": 0.7480314960629921,
                    "duration": 0.23592324999999903
                },
                {
                    "name": "E4",
                    "midi": 64,
                    "time": 25.0078645,
                    "velocity": 0.6377952755905512,
                    "duration": 0.23592324999999903
                },
                {
                    "name": "C#5",
                    "midi": 73,
                    "time": 25.0078645,
                    "velocity": 0.6377952755905512,
                    "duration": 0.23592324999999903
                },
                {
                    "name": "E5",
                    "midi": 76,
                    "time": 25.0078645,
                    "velocity": 0.7559055118110236,
                    "duration": 0.23592324999999903
                },
                {
                    "name": "F4",
                    "midi": 65,
                    "time": 25.24378775,
                    "velocity": 0.6535433070866141,
                    "duration": 0.23592324999999903
                },
                {
                    "name": "A4",
                    "midi": 69,
                    "time": 25.24378775,
                    "velocity": 0.6535433070866141,
                    "duration": 0.23592324999999903
                },
                {
                    "name": "F5",
                    "midi": 77,
                    "time": 25.24378775,
                    "velocity": 0.7795275590551181,
                    "duration": 0.23592324999999903
                },
                {
                    "name": "E4",
                    "midi": 64,
                    "time": 25.479710999999998,
                    "velocity": 0.7559055118110236,
                    "duration": 0.4718465000000016
                },
                {
                    "name": "C#5",
                    "midi": 73,
                    "time": 25.479710999999998,
                    "velocity": 0.7559055118110236,
                    "duration": 0.4718465000000016
                },
                {
                    "name": "E5",
                    "midi": 76,
                    "time": 25.479710999999998,
                    "velocity": 0.8976377952755905,
                    "duration": 0.4718465000000016
                },
                {
                    "name": "E4",
                    "midi": 64,
                    "time": 30.198176,
                    "velocity": 0.7480314960629921,
                    "duration": 1.6514627500000003
                },
                {
                    "name": "C#5",
                    "midi": 73,
                    "time": 31.023907375,
                    "velocity": 0.6299212598425197,
                    "duration": 0.11796162499999951
                },
                {
                    "name": "G#4",
                    "midi": 68,
                    "time": 31.023907375,
                    "velocity": 0.6299212598425197,
                    "duration": 0.11796162499999951
                },
                {
                    "name": "C#4",
                    "midi": 61,
                    "time": 31.023907375,
                    "velocity": 0.5354330708661418,
                    "duration": 0.11796162499999951
                },
                {
                    "name": "C#4",
                    "midi": 61,
                    "time": 31.141869,
                    "velocity": 0.6456692913385826,
                    "duration": 0.9436929999999961
                },
                {
                    "name": "C#5",
                    "midi": 73,
                    "time": 31.141869,
                    "velocity": 0.7716535433070866,
                    "duration": 0.9436929999999961
                },
                {
                    "name": "G#4",
                    "midi": 68,
                    "time": 31.141869,
                    "velocity": 0.6456692913385826,
                    "duration": 0.9436929999999961
                },
                {
                    "name": "F3",
                    "midi": 53,
                    "time": 31.84963875,
                    "velocity": 0.6299212598425197,
                    "duration": 0.0786410833333342
                },
                {
                    "name": "F#3",
                    "midi": 54,
                    "time": 31.928279833333335,
                    "velocity": 0.6692913385826772,
                    "duration": 0.07864108333333064
                },
                {
                    "name": "G#3",
                    "midi": 56,
                    "time": 32.006920916666665,
                    "velocity": 0.6771653543307087,
                    "duration": 0.07864108333333064
                },
                {
                    "name": "A3",
                    "midi": 57,
                    "time": 32.085561999999996,
                    "velocity": 0.7716535433070866,
                    "duration": 0.9436929999999961
                },
                {
                    "name": "A5",
                    "midi": 81,
                    "time": 32.557408499999994,
                    "velocity": 0.5905511811023622,
                    "duration": 0.47184649999999806
                },
                {
                    "name": "E5",
                    "midi": 76,
                    "time": 32.557408499999994,
                    "velocity": 0.5905511811023622,
                    "duration": 0.47184649999999806
                },
                {
                    "name": "C#6",
                    "midi": 85,
                    "time": 32.557408499999994,
                    "velocity": 0.7086614173228346,
                    "duration": 0.47184649999999806
                },
                {
                    "name": "C#5",
                    "midi": 73,
                    "time": 32.557408499999994,
                    "velocity": 0.5905511811023622,
                    "duration": 0.47184649999999806
                },
                {
                    "name": "C#4",
                    "midi": 61,
                    "time": 33.972947999999995,
                    "velocity": 0.6614173228346457,
                    "duration": 1.6514627499999932
                },
                {
                    "name": "C#5",
                    "midi": 73,
                    "time": 33.972947999999995,
                    "velocity": 0.7480314960629921,
                    "duration": 1.6514627499999932
                },
                {
                    "name": "E5",
                    "midi": 76,
                    "time": 34.79867937499999,
                    "velocity": 0.6299212598425197,
                    "duration": 0.11796162499999951
                },
                {
                    "name": "A4",
                    "midi": 69,
                    "time": 34.79867937499999,
                    "velocity": 0.6299212598425197,
                    "duration": 0.11796162499999951
                },
                {
                    "name": "E4",
                    "midi": 64,
                    "time": 34.79867937499999,
                    "velocity": 0.5354330708661418,
                    "duration": 0.11796162499999951
                },
                {
                    "name": "E4",
                    "midi": 64,
                    "time": 34.91664099999999,
                    "velocity": 0.6456692913385826,
                    "duration": 0.8650519166666584
                },
                {
                    "name": "E5",
                    "midi": 76,
                    "time": 34.91664099999999,
                    "velocity": 0.7716535433070866,
                    "duration": 0.943692999999989
                },
                {
                    "name": "A4",
                    "midi": 69,
                    "time": 34.91664099999999,
                    "velocity": 0.6456692913385826,
                    "duration": 0.943692999999989
                },
                {
                    "name": "D#4",
                    "midi": 63,
                    "time": 35.62441074999999,
                    "velocity": 0.6299212598425197,
                    "duration": 0.07864108333333064
                },
                {
                    "name": "E4",
                    "midi": 64,
                    "time": 35.70305183333332,
                    "velocity": 0.6692913385826772,
                    "duration": 0.15728216666666128
                },
                {
                    "name": "F#4",
                    "midi": 66,
                    "time": 35.78169291666665,
                    "velocity": 0.6771653543307087,
                    "duration": 0.07864108333333064
                },
                {
                    "name": "G4",
                    "midi": 67,
                    "time": 35.86033399999998,
                    "velocity": 0.7716535433070866,
                    "duration": 0.9436929999999961
                },
                {
                    "name": "C#6",
                    "midi": 85,
                    "time": 36.33218049999998,
                    "velocity": 0.5905511811023622,
                    "duration": 0.47184649999999806
                },
                {
                    "name": "B5",
                    "midi": 83,
                    "time": 36.33218049999998,
                    "velocity": 0.5905511811023622,
                    "duration": 0.47184649999999806
                },
                {
                    "name": "E6",
                    "midi": 88,
                    "time": 36.33218049999998,
                    "velocity": 0.7086614173228346,
                    "duration": 0.47184649999999806
                },
                {
                    "name": "E5",
                    "midi": 76,
                    "time": 36.33218049999998,
                    "velocity": 0.5905511811023622,
                    "duration": 0.47184649999999806
                },
                {
                    "name": "B4",
                    "midi": 71,
                    "time": 37.511796749999974,
                    "velocity": 0.6062992125984252,
                    "duration": 0.07864108333333064
                },
                {
                    "name": "E5",
                    "midi": 76,
                    "time": 37.590437833333304,
                    "velocity": 0.6220472440944882,
                    "duration": 0.07864108333333064
                },
                {
                    "name": "G5",
                    "midi": 79,
                    "time": 37.669078916666635,
                    "velocity": 0.6299212598425197,
                    "duration": 0.07864108333333064
                },
                {
                    "name": "B5",
                    "midi": 83,
                    "time": 37.747719999999966,
                    "velocity": 0.7480314960629921,
                    "duration": 1.8873860000000064
                },
                {
                    "name": "F6",
                    "midi": 89,
                    "time": 38.69141299999997,
                    "velocity": 0.7165354330708661,
                    "duration": 0.9436930000000032
                },
                {
                    "name": "D#6",
                    "midi": 87,
                    "time": 38.69141299999997,
                    "velocity": 0.5984251968503937,
                    "duration": 0.9436930000000032
                },
                {
                    "name": "G#5",
                    "midi": 80,
                    "time": 38.69141299999997,
                    "velocity": 0.5984251968503937,
                    "duration": 0.9436930000000032
                },
                {
                    "name": "F5",
                    "midi": 77,
                    "time": 38.69141299999997,
                    "velocity": 0.5984251968503937,
                    "duration": 0.9436930000000032
                },
                {
                    "name": "A#5",
                    "midi": 82,
                    "time": 39.63510599999997,
                    "velocity": 0.7480314960629921,
                    "duration": 1.8873860000000064
                },
                {
                    "name": "D#6",
                    "midi": 87,
                    "time": 40.578798999999975,
                    "velocity": 0.5984251968503937,
                    "duration": 0.9436930000000032
                },
                {
                    "name": "C#6",
                    "midi": 85,
                    "time": 40.578798999999975,
                    "velocity": 0.5984251968503937,
                    "duration": 0.9436930000000032
                },
                {
                    "name": "G6",
                    "midi": 91,
                    "time": 40.578798999999975,
                    "velocity": 0.7086614173228346,
                    "duration": 0.9436930000000032
                },
                {
                    "name": "G5",
                    "midi": 79,
                    "time": 40.578798999999975,
                    "velocity": 0.5984251968503937,
                    "duration": 0.9436930000000032
                },
                {
                    "name": "G#4",
                    "midi": 68,
                    "time": 41.52249199999998,
                    "velocity": 0.6850393700787402,
                    "duration": 2.8310789999999955
                },
                {
                    "name": "D#5",
                    "midi": 75,
                    "time": 41.52249199999998,
                    "velocity": 0.6850393700787402,
                    "duration": 2.8310789999999955
                },
                {
                    "name": "G#5",
                    "midi": 80,
                    "time": 41.52249199999998,
                    "velocity": 0.7480314960629921,
                    "duration": 0.4521862291666636
                },
                {
                    "name": "G#5",
                    "midi": 80,
                    "time": 41.99433849999998,
                    "velocity": 0.6614173228346457,
                    "duration": 2.3592324999999974
                },
                {
                    "name": "D#6",
                    "midi": 87,
                    "time": 41.99433849999998,
                    "velocity": 0.6614173228346457,
                    "duration": 2.3592324999999974
                },
                {
                    "name": "G#6",
                    "midi": 92,
                    "time": 41.99433849999998,
                    "velocity": 0.7952755905511811,
                    "duration": 2.3592324999999974
                },
                {
                    "name": "E6",
                    "midi": 88,
                    "time": 44.58949424999997,
                    "velocity": 0.6614173228346457,
                    "duration": 0.11796162499999951
                },
                {
                    "name": "D#6",
                    "midi": 87,
                    "time": 44.70745587499997,
                    "velocity": 0.5984251968503937,
                    "duration": 0.11796162499999951
                },
                {
                    "name": "C#6",
                    "midi": 85,
                    "time": 44.82541749999997,
                    "velocity": 0.6141732283464567,
                    "duration": 0.11796162499999951
                },
                {
                    "name": "B5",
                    "midi": 83,
                    "time": 44.94337912499997,
                    "velocity": 0.5905511811023622,
                    "duration": 0.11796162499999951
                },
                {
                    "name": "A#5",
                    "midi": 82,
                    "time": 45.06134074999997,
                    "velocity": 0.6377952755905512,
                    "duration": 0.11796162499999951
                },
                {
                    "name": "G#5",
                    "midi": 80,
                    "time": 45.17930237499997,
                    "velocity": 0.5748031496062992,
                    "duration": 0.11796162499999951
                },
                {
                    "name": "G5",
                    "midi": 79,
                    "time": 45.29726399999997,
                    "velocity": 0.5984251968503937,
                    "duration": 0.11796162499999951
                },
                {
                    "name": "G#5",
                    "midi": 80,
                    "time": 45.41522562499997,
                    "velocity": 0.5826771653543307,
                    "duration": 0.11796162499999951
                },
                {
                    "name": "E6",
                    "midi": 88,
                    "time": 45.53318724999997,
                    "velocity": 0.6614173228346457,
                    "duration": 0.11796162499999951
                },
                {
                    "name": "D#6",
                    "midi": 87,
                    "time": 45.65114887499997,
                    "velocity": 0.5984251968503937,
                    "duration": 0.11796162499999951
                },
                {
                    "name": "C#6",
                    "midi": 85,
                    "time": 45.76911049999997,
                    "velocity": 0.6062992125984252,
                    "duration": 0.11796162499999951
                },
                {
                    "name": "B5",
                    "midi": 83,
                    "time": 45.88707212499997,
                    "velocity": 0.5590551181102362,
                    "duration": 0.11796162499999951
                },
                {
                    "name": "A#5",
                    "midi": 82,
                    "time": 46.00503374999997,
                    "velocity": 0.6377952755905512,
                    "duration": 0.11796162499999951
                },
                {
                    "name": "G#5",
                    "midi": 80,
                    "time": 46.12299537499997,
                    "velocity": 0.6377952755905512,
                    "duration": 0.11796162499999951
                },
                {
                    "name": "F#5",
                    "midi": 78,
                    "time": 46.240956999999966,
                    "velocity": 0.6377952755905512,
                    "duration": 0.11796162499999951
                },
                {
                    "name": "E5",
                    "midi": 76,
                    "time": 46.358918624999966,
                    "velocity": 0.6220472440944882,
                    "duration": 0.11796162499999951
                },
                {
                    "name": "D#5",
                    "midi": 75,
                    "time": 46.476880249999965,
                    "velocity": 0.6141732283464567,
                    "duration": 0.11796162499999951
                },
                {
                    "name": "C#5",
                    "midi": 73,
                    "time": 46.594841874999965,
                    "velocity": 0.6062992125984252,
                    "duration": 0.11796162499999951
                },
                {
                    "name": "B4",
                    "midi": 71,
                    "time": 46.712803499999964,
                    "velocity": 0.6062992125984252,
                    "duration": 0.11796162499999951
                },
                {
                    "name": "A#4",
                    "midi": 70,
                    "time": 46.830765124999964,
                    "velocity": 0.5984251968503937,
                    "duration": 0.11796162499999951
                },
                {
                    "name": "A4",
                    "midi": 69,
                    "time": 46.94872674999996,
                    "velocity": 0.5748031496062992,
                    "duration": 0.11796162499999951
                },
                {
                    "name": "G#4",
                    "midi": 68,
                    "time": 47.06668837499996,
                    "velocity": 0.5590551181102362,
                    "duration": 0.11796162499999951
                },
                {
                    "name": "G4",
                    "midi": 67,
                    "time": 47.18464999999996,
                    "velocity": 0.5433070866141733,
                    "duration": 0.11796162499999951
                },
                {
                    "name": "G#4",
                    "midi": 68,
                    "time": 47.30261162499996,
                    "velocity": 0.5590551181102362,
                    "duration": 0.11796162499999951
                },
                {
                    "name": "E5",
                    "midi": 76,
                    "time": 47.42057324999996,
                    "velocity": 0.6535433070866141,
                    "duration": 0.11796162499999951
                },
                {
                    "name": "D#5",
                    "midi": 75,
                    "time": 47.53853487499996,
                    "velocity": 0.6299212598425197,
                    "duration": 0.11796162499999951
                },
                {
                    "name": "C#5",
                    "midi": 73,
                    "time": 47.65649649999996,
                    "velocity": 0.6141732283464567,
                    "duration": 0.11796162499999951
                },
                {
                    "name": "B4",
                    "midi": 71,
                    "time": 47.77445812499996,
                    "velocity": 0.6141732283464567,
                    "duration": 0.11796162499999951
                },
                {
                    "name": "A#4",
                    "midi": 70,
                    "time": 47.89241974999996,
                    "velocity": 0.5984251968503937,
                    "duration": 0.11796162499999951
                },
                {
                    "name": "G#4",
                    "midi": 68,
                    "time": 48.01038137499996,
                    "velocity": 0.5748031496062992,
                    "duration": 0.11796162499999951
                },
                {
                    "name": "F#4",
                    "midi": 66,
                    "time": 48.12834299999996,
                    "velocity": 0.5748031496062992,
                    "duration": 0.11796162499999951
                },
                {
                    "name": "E4",
                    "midi": 64,
                    "time": 48.24630462499996,
                    "velocity": 0.5511811023622047,
                    "duration": 0.11796162499999951
                },
                {
                    "name": "D#4",
                    "midi": 63,
                    "time": 48.36426624999996,
                    "velocity": 0.5669291338582677,
                    "duration": 0.11796162499999951
                },
                {
                    "name": "C#4",
                    "midi": 61,
                    "time": 48.48222787499996,
                    "velocity": 0.5669291338582677,
                    "duration": 0.11796162499999951
                },
                {
                    "name": "B3",
                    "midi": 59,
                    "time": 48.600189499999956,
                    "velocity": 0.5669291338582677,
                    "duration": 0.11796162499999951
                },
                {
                    "name": "A#3",
                    "midi": 58,
                    "time": 48.718151124999956,
                    "velocity": 0.5669291338582677,
                    "duration": 0.11796162499999951
                },
                {
                    "name": "A3",
                    "midi": 57,
                    "time": 48.836112749999955,
                    "velocity": 0.5590551181102362,
                    "duration": 0.11796162499999951
                },
                {
                    "name": "G#3",
                    "midi": 56,
                    "time": 48.954074374999955,
                    "velocity": 0.5511811023622047,
                    "duration": 0.11796162499999951
                },
                {
                    "name": "G3",
                    "midi": 55,
                    "time": 49.072035999999954,
                    "velocity": 0.5511811023622047,
                    "duration": 0.11796162499999951
                },
                {
                    "name": "G#3",
                    "midi": 56,
                    "time": 49.189997624999954,
                    "velocity": 0.5511811023622047,
                    "duration": 0.11796162499999951
                },
                {
                    "name": "E4",
                    "midi": 64,
                    "time": 49.30795924999995,
                    "velocity": 0.5669291338582677,
                    "duration": 0.11796162499999951
                },
                {
                    "name": "D#4",
                    "midi": 63,
                    "time": 49.42592087499995,
                    "velocity": 0.5433070866141733,
                    "duration": 0.11796162499999951
                },
                {
                    "name": "C#4",
                    "midi": 61,
                    "time": 49.54388249999995,
                    "velocity": 0.5354330708661418,
                    "duration": 0.11796162499999951
                },
                {
                    "name": "B3",
                    "midi": 59,
                    "time": 49.66184412499995,
                    "velocity": 0.5039370078740157,
                    "duration": 0.11796162499999951
                },
                {
                    "name": "F3",
                    "midi": 53,
                    "time": 49.77980574999995,
                    "velocity": 0.4881889763779528,
                    "duration": 0.11796162499999951
                },
                {
                    "name": "F#3",
                    "midi": 54,
                    "time": 49.89776737499995,
                    "velocity": 0.4881889763779528,
                    "duration": 0.11796162499999951
                },
                {
                    "name": "D4",
                    "midi": 62,
                    "time": 50.01572899999995,
                    "velocity": 0.5669291338582677,
                    "duration": 0.11796162499999951
                },
                {
                    "name": "C#4",
                    "midi": 61,
                    "time": 50.13369062499995,
                    "velocity": 0.5354330708661418,
                    "duration": 0.11796162499999951
                },
                {
                    "name": "B3",
                    "midi": 59,
                    "time": 50.25165224999995,
                    "velocity": 0.5196850393700787,
                    "duration": 0.11796162499999951
                },
                {
                    "name": "A3",
                    "midi": 57,
                    "time": 50.36961387499995,
                    "velocity": 0.49606299212598426,
                    "duration": 0.11796162499999951
                },
                {
                    "name": "E3",
                    "midi": 52,
                    "time": 50.48757549999995,
                    "velocity": 0.4881889763779528,
                    "duration": 0.11796162499999951
                },
                {
                    "name": "F#3",
                    "midi": 54,
                    "time": 50.60553712499995,
                    "velocity": 0.48031496062992124,
                    "duration": 0.11796162499999951
                },
                {
                    "name": "C#4",
                    "midi": 61,
                    "time": 50.72349874999995,
                    "velocity": 0.5590551181102362,
                    "duration": 0.11796162499999951
                },
                {
                    "name": "B3",
                    "midi": 59,
                    "time": 50.84146037499995,
                    "velocity": 0.5354330708661418,
                    "duration": 0.11796162499999951
                },
                {
                    "name": "A3",
                    "midi": 57,
                    "time": 50.95942199999995,
                    "velocity": 0.5433070866141733,
                    "duration": 0.11796162499999951
                },
                {
                    "name": "G#3",
                    "midi": 56,
                    "time": 51.077383624999946,
                    "velocity": 0.5196850393700787,
                    "duration": 0.11796162499999951
                },
                {
                    "name": "F#3",
                    "midi": 54,
                    "time": 51.195345249999946,
                    "velocity": 0.5118110236220472,
                    "duration": 0.11796162499999951
                },
                {
                    "name": "E3",
                    "midi": 52,
                    "time": 51.313306874999945,
                    "velocity": 0.49606299212598426,
                    "duration": 0.11796162499999951
                },
                {
                    "name": "D3",
                    "midi": 50,
                    "time": 51.431268499999945,
                    "velocity": 0.48031496062992124,
                    "duration": 0.11796162499999951
                },
                {
                    "name": "D#3",
                    "midi": 51,
                    "time": 51.549230124999944,
                    "velocity": 0.4645669291338583,
                    "duration": 0.11796162499999951
                },
                {
                    "name": "B3",
                    "midi": 59,
                    "time": 51.667191749999944,
                    "velocity": 0.5511811023622047,
                    "duration": 0.11796162499999951
                },
                {
                    "name": "A#3",
                    "midi": 58,
                    "time": 51.78515337499994,
                    "velocity": 0.5511811023622047,
                    "duration": 0.11796162499999951
                },
                {
                    "name": "G#3",
                    "midi": 56,
                    "time": 51.90311499999994,
                    "velocity": 0.5354330708661418,
                    "duration": 0.11796162499999951
                },
                {
                    "name": "F#3",
                    "midi": 54,
                    "time": 52.02107662499994,
                    "velocity": 0.5196850393700787,
                    "duration": 0.11796162499999951
                },
                {
                    "name": "E3",
                    "midi": 52,
                    "time": 52.13903824999994,
                    "velocity": 0.5196850393700787,
                    "duration": 0.11796162499999951
                },
                {
                    "name": "D#3",
                    "midi": 51,
                    "time": 52.25699987499994,
                    "velocity": 0.5196850393700787,
                    "duration": 0.11796162499999951
                },
                {
                    "name": "C#3",
                    "midi": 49,
                    "time": 52.37496149999994,
                    "velocity": 0.5196850393700787,
                    "duration": 0.11796162499999951
                },
                {
                    "name": "B2",
                    "midi": 47,
                    "time": 52.49292312499994,
                    "velocity": 0.5196850393700787,
                    "duration": 0.11796162499999951
                },
                {
                    "name": "A#2",
                    "midi": 46,
                    "time": 52.61088474999994,
                    "velocity": 0.5196850393700787,
                    "duration": 0.11796162499999951
                },
                {
                    "name": "A2",
                    "midi": 45,
                    "time": 52.72884637499994,
                    "velocity": 0.5196850393700787,
                    "duration": 0.11796162499999951
                },
                {
                    "name": "G#2",
                    "midi": 44,
                    "time": 52.84680799999994,
                    "velocity": 0.7480314960629921,
                    "duration": 3.7747719999999987
                },
                {
                    "name": "B4",
                    "midi": 71,
                    "time": 56.62157999999994,
                    "velocity": 0.6377952755905512,
                    "duration": 0.9436930000000032
                },
                {
                    "name": "B3",
                    "midi": 59,
                    "time": 56.62157999999994,
                    "velocity": 0.5433070866141733,
                    "duration": 0.9436930000000032
                },
                {
                    "name": "B4",
                    "midi": 71,
                    "time": 57.56527299999994,
                    "velocity": 0.6850393700787402,
                    "duration": 0.9436930000000032
                },
                {
                    "name": "B3",
                    "midi": 59,
                    "time": 57.56527299999994,
                    "velocity": 0.5905511811023622,
                    "duration": 0.9436930000000032
                },
                {
                    "name": "B4",
                    "midi": 71,
                    "time": 58.508965999999944,
                    "velocity": 0.6771653543307087,
                    "duration": 0.9436930000000032
                },
                {
                    "name": "B3",
                    "midi": 59,
                    "time": 58.508965999999944,
                    "velocity": 0.5748031496062992,
                    "duration": 0.9436930000000032
                },
                {
                    "name": "B4",
                    "midi": 71,
                    "time": 59.45265899999995,
                    "velocity": 0.6377952755905512,
                    "duration": 0.9436930000000032
                },
                {
                    "name": "B3",
                    "midi": 59,
                    "time": 59.45265899999995,
                    "velocity": 0.5354330708661418,
                    "duration": 0.9436930000000032
                },
                {
                    "name": "G#4",
                    "midi": 68,
                    "time": 60.39635199999995,
                    "velocity": 0.5748031496062992,
                    "duration": 1.8873860000000064
                },
                {
                    "name": "D#4",
                    "midi": 63,
                    "time": 60.39635199999995,
                    "velocity": 0.4881889763779528,
                    "duration": 1.8873860000000064
                },
                {
                    "name": "C5",
                    "midi": 72,
                    "time": 60.71091633333329,
                    "velocity": 0.3464566929133858,
                    "duration": 0.1572821666666684
                },
                {
                    "name": "E5",
                    "midi": 76,
                    "time": 60.71091633333329,
                    "velocity": 0.3464566929133858,
                    "duration": 0.1572821666666684
                },
                {
                    "name": "C6",
                    "midi": 84,
                    "time": 60.71091633333329,
                    "velocity": 0.4094488188976378,
                    "duration": 0.1572821666666684
                },
                {
                    "name": "B4",
                    "midi": 71,
                    "time": 60.868198499999956,
                    "velocity": 0.3464566929133858,
                    "duration": 0.7864108333333348
                },
                {
                    "name": "G#5",
                    "midi": 80,
                    "time": 60.868198499999956,
                    "velocity": 0.3464566929133858,
                    "duration": 0.7864108333333348
                },
                {
                    "name": "B5",
                    "midi": 83,
                    "time": 60.868198499999956,
                    "velocity": 0.41732283464566927,
                    "duration": 0.7864108333333348
                },
                {
                    "name": "C5",
                    "midi": 72,
                    "time": 61.65460933333329,
                    "velocity": 0.3858267716535433,
                    "duration": 0.1572821666666684
                },
                {
                    "name": "E5",
                    "midi": 76,
                    "time": 61.65460933333329,
                    "velocity": 0.3858267716535433,
                    "duration": 0.1572821666666684
                },
                {
                    "name": "C6",
                    "midi": 84,
                    "time": 61.65460933333329,
                    "velocity": 0.4566929133858268,
                    "duration": 0.1572821666666684
                },
                {
                    "name": "B4",
                    "midi": 71,
                    "time": 61.81189149999996,
                    "velocity": 0.4015748031496063,
                    "duration": 0.7864108333333348
                },
                {
                    "name": "G#5",
                    "midi": 80,
                    "time": 61.81189149999996,
                    "velocity": 0.4015748031496063,
                    "duration": 0.7864108333333348
                },
                {
                    "name": "B5",
                    "midi": 83,
                    "time": 61.81189149999996,
                    "velocity": 0.48031496062992124,
                    "duration": 0.7864108333333348
                },
                {
                    "name": "C5",
                    "midi": 72,
                    "time": 62.598302333333294,
                    "velocity": 0.4330708661417323,
                    "duration": 0.1572821666666684
                },
                {
                    "name": "E5",
                    "midi": 76,
                    "time": 62.598302333333294,
                    "velocity": 0.4330708661417323,
                    "duration": 0.1572821666666684
                },
                {
                    "name": "C6",
                    "midi": 84,
                    "time": 62.598302333333294,
                    "velocity": 0.5196850393700787,
                    "duration": 0.1572821666666684
                },
                {
                    "name": "B4",
                    "midi": 71,
                    "time": 62.75558449999996,
                    "velocity": 0.44881889763779526,
                    "duration": 0.7864108333333348
                },
                {
                    "name": "G#5",
                    "midi": 80,
                    "time": 62.75558449999996,
                    "velocity": 0.44881889763779526,
                    "duration": 0.7864108333333348
                },
                {
                    "name": "B5",
                    "midi": 83,
                    "time": 62.75558449999996,
                    "velocity": 0.5354330708661418,
                    "duration": 0.7864108333333348
                },
                {
                    "name": "C5",
                    "midi": 72,
                    "time": 63.5419953333333,
                    "velocity": 0.48031496062992124,
                    "duration": 0.1572821666666684
                },
                {
                    "name": "E5",
                    "midi": 76,
                    "time": 63.5419953333333,
                    "velocity": 0.48031496062992124,
                    "duration": 0.1572821666666684
                },
                {
                    "name": "C6",
                    "midi": 84,
                    "time": 63.5419953333333,
                    "velocity": 0.5748031496062992,
                    "duration": 0.1572821666666684
                },
                {
                    "name": "B4",
                    "midi": 71,
                    "time": 63.699277499999965,
                    "velocity": 0.49606299212598426,
                    "duration": 0.7077697499999971
                },
                {
                    "name": "G#5",
                    "midi": 80,
                    "time": 63.699277499999965,
                    "velocity": 0.49606299212598426,
                    "duration": 0.7077697499999971
                },
                {
                    "name": "B5",
                    "midi": 83,
                    "time": 63.699277499999965,
                    "velocity": 0.5905511811023622,
                    "duration": 0.7077697499999971
                },
                {
                    "name": "C5",
                    "midi": 72,
                    "time": 64.40704724999996,
                    "velocity": 0.5275590551181102,
                    "duration": 0.23592324999999903
                },
                {
                    "name": "E5",
                    "midi": 76,
                    "time": 64.40704724999996,
                    "velocity": 0.5275590551181102,
                    "duration": 0.23592324999999903
                },
                {
                    "name": "C6",
                    "midi": 84,
                    "time": 64.40704724999996,
                    "velocity": 0.6377952755905512,
                    "duration": 0.23592324999999903
                },
                {
                    "name": "B4",
                    "midi": 71,
                    "time": 64.64297049999996,
                    "velocity": 0.5354330708661418,
                    "duration": 0.23592324999999903
                },
                {
                    "name": "G#5",
                    "midi": 80,
                    "time": 64.64297049999996,
                    "velocity": 0.5354330708661418,
                    "duration": 0.23592324999999903
                },
                {
                    "name": "B5",
                    "midi": 83,
                    "time": 64.64297049999996,
                    "velocity": 0.6377952755905512,
                    "duration": 0.23592324999999903
                },
                {
                    "name": "C5",
                    "midi": 72,
                    "time": 64.87889374999996,
                    "velocity": 0.5669291338582677,
                    "duration": 0.23592324999999903
                },
                {
                    "name": "E5",
                    "midi": 76,
                    "time": 64.87889374999996,
                    "velocity": 0.5669291338582677,
                    "duration": 0.23592324999999903
                },
                {
                    "name": "C6",
                    "midi": 84,
                    "time": 64.87889374999996,
                    "velocity": 0.6614173228346457,
                    "duration": 0.23592324999999903
                },
                {
                    "name": "B4",
                    "midi": 71,
                    "time": 65.11481699999996,
                    "velocity": 0.5669291338582677,
                    "duration": 0.23592324999999903
                },
                {
                    "name": "G#5",
                    "midi": 80,
                    "time": 65.11481699999996,
                    "velocity": 0.5669291338582677,
                    "duration": 0.23592324999999903
                },
                {
                    "name": "B5",
                    "midi": 83,
                    "time": 65.11481699999996,
                    "velocity": 0.6771653543307087,
                    "duration": 0.23592324999999903
                },
                {
                    "name": "C5",
                    "midi": 72,
                    "time": 65.35074024999996,
                    "velocity": 0.5826771653543307,
                    "duration": 0.23592324999999903
                },
                {
                    "name": "E5",
                    "midi": 76,
                    "time": 65.35074024999996,
                    "velocity": 0.5826771653543307,
                    "duration": 0.23592324999999903
                },
                {
                    "name": "C6",
                    "midi": 84,
                    "time": 65.35074024999996,
                    "velocity": 0.6850393700787402,
                    "duration": 0.23592324999999903
                },
                {
                    "name": "B4",
                    "midi": 71,
                    "time": 65.58666349999996,
                    "velocity": 0.5905511811023622,
                    "duration": 0.23592324999999903
                },
                {
                    "name": "G#5",
                    "midi": 80,
                    "time": 65.58666349999996,
                    "velocity": 0.5905511811023622,
                    "duration": 0.23592324999999903
                },
                {
                    "name": "B5",
                    "midi": 83,
                    "time": 65.58666349999996,
                    "velocity": 0.7086614173228346,
                    "duration": 0.23592324999999903
                },
                {
                    "name": "C5",
                    "midi": 72,
                    "time": 65.82258674999996,
                    "velocity": 0.5984251968503937,
                    "duration": 0.23592324999999903
                },
                {
                    "name": "E5",
                    "midi": 76,
                    "time": 65.82258674999996,
                    "velocity": 0.5984251968503937,
                    "duration": 0.23592324999999903
                },
                {
                    "name": "C6",
                    "midi": 84,
                    "time": 65.82258674999996,
                    "velocity": 0.7165354330708661,
                    "duration": 0.23592324999999903
                },
                {
                    "name": "B4",
                    "midi": 71,
                    "time": 66.05850999999996,
                    "velocity": 0.6141732283464567,
                    "duration": 0.23592324999999903
                },
                {
                    "name": "G#5",
                    "midi": 80,
                    "time": 66.05850999999996,
                    "velocity": 0.6141732283464567,
                    "duration": 0.23592324999999903
                },
                {
                    "name": "B5",
                    "midi": 83,
                    "time": 66.05850999999996,
                    "velocity": 0.7244094488188977,
                    "duration": 0.23592324999999903
                },
                {
                    "name": "C5",
                    "midi": 72,
                    "time": 66.29443324999995,
                    "velocity": 0.6377952755905512,
                    "duration": 0.23592324999999903
                },
                {
                    "name": "E5",
                    "midi": 76,
                    "time": 66.29443324999995,
                    "velocity": 0.6377952755905512,
                    "duration": 0.23592324999999903
                },
                {
                    "name": "C6",
                    "midi": 84,
                    "time": 66.29443324999995,
                    "velocity": 0.7480314960629921,
                    "duration": 0.23592324999999903
                },
                {
                    "name": "B4",
                    "midi": 71,
                    "time": 66.53035649999995,
                    "velocity": 0.6377952755905512,
                    "duration": 0.23592324999999903
                },
                {
                    "name": "G#5",
                    "midi": 80,
                    "time": 66.53035649999995,
                    "velocity": 0.6377952755905512,
                    "duration": 0.23592324999999903
                },
                {
                    "name": "B5",
                    "midi": 83,
                    "time": 66.53035649999995,
                    "velocity": 0.7559055118110236,
                    "duration": 0.23592324999999903
                },
                {
                    "name": "C5",
                    "midi": 72,
                    "time": 66.76627974999995,
                    "velocity": 0.6535433070866141,
                    "duration": 0.23592324999999903
                },
                {
                    "name": "E5",
                    "midi": 76,
                    "time": 66.76627974999995,
                    "velocity": 0.6535433070866141,
                    "duration": 0.23592324999999903
                },
                {
                    "name": "C6",
                    "midi": 84,
                    "time": 66.76627974999995,
                    "velocity": 0.7795275590551181,
                    "duration": 0.23592324999999903
                },
                {
                    "name": "B4",
                    "midi": 71,
                    "time": 67.00220299999995,
                    "velocity": 0.7559055118110236,
                    "duration": 0.47184649999999806
                },
                {
                    "name": "G#5",
                    "midi": 80,
                    "time": 67.00220299999995,
                    "velocity": 0.7559055118110236,
                    "duration": 0.47184649999999806
                },
                {
                    "name": "B5",
                    "midi": 83,
                    "time": 67.00220299999995,
                    "velocity": 0.8976377952755905,
                    "duration": 0.47184649999999806
                },
                {
                    "name": "G#4",
                    "midi": 68,
                    "time": 67.94589599999995,
                    "velocity": 0.6377952755905512,
                    "duration": 0.1356558687500069
                },
                {
                    "name": "A#4",
                    "midi": 70,
                    "time": 68.08155186874995,
                    "velocity": 0.6456692913385826,
                    "duration": 0.13368984166666564
                },
                {
                    "name": "B4",
                    "midi": 71,
                    "time": 68.21524171041662,
                    "velocity": 0.6535433070866141,
                    "duration": 0.1356558687499927
                },
                {
                    "name": "C#5",
                    "midi": 73,
                    "time": 68.34893155208329,
                    "velocity": 0.6535433070866141,
                    "duration": 0.1356558687499927
                },
                {
                    "name": "D#5",
                    "midi": 75,
                    "time": 68.48458742083328,
                    "velocity": 0.6692913385826772,
                    "duration": 0.13368984166666564
                },
                {
                    "name": "F5",
                    "midi": 77,
                    "time": 68.61827726249994,
                    "velocity": 0.6850393700787402,
                    "duration": 0.1356558687500069
                },
                {
                    "name": "G5",
                    "midi": 79,
                    "time": 68.75393313124995,
                    "velocity": 0.7007874015748031,
                    "duration": 0.13368984166666564
                },
                {
                    "name": "G#5",
                    "midi": 80,
                    "time": 68.88762297291662,
                    "velocity": 0.7165354330708661,
                    "duration": 0.1356558687499927
                },
                {
                    "name": "A#5",
                    "midi": 82,
                    "time": 69.02131281458328,
                    "velocity": 0.7244094488188977,
                    "duration": 0.1356558687499927
                },
                {
                    "name": "B5",
                    "midi": 83,
                    "time": 69.15696868333328,
                    "velocity": 0.7322834645669292,
                    "duration": 0.13368984166666564
                },
                {
                    "name": "C#6",
                    "midi": 85,
                    "time": 69.29065852499994,
                    "velocity": 0.7401574803149606,
                    "duration": 0.1356558687500069
                },
                {
                    "name": "D#6",
                    "midi": 87,
                    "time": 69.42631439374995,
                    "velocity": 0.7480314960629921,
                    "duration": 0.13368984166666564
                },
                {
                    "name": "F6",
                    "midi": 89,
                    "time": 69.56000423541661,
                    "velocity": 0.7637795275590551,
                    "duration": 0.1356558687499927
                },
                {
                    "name": "G6",
                    "midi": 91,
                    "time": 69.69369407708328,
                    "velocity": 0.7795275590551181,
                    "duration": 0.139587922916661
                },
                {
                    "name": "G#6",
                    "midi": 92,
                    "time": 69.83328199999994,
                    "velocity": 0.8346456692913385,
                    "duration": 0.47184649999999806
                },
                {
                    "name": "C#6",
                    "midi": 85,
                    "time": 70.61969283333327,
                    "velocity": 0.6377952755905512,
                    "duration": 0.15728216666666128
                },
                {
                    "name": "G#5",
                    "midi": 80,
                    "time": 70.77697499999994,
                    "velocity": 0.7086614173228346,
                    "duration": 1.7694243749999998
                },
                {
                    "name": "G#5",
                    "midi": 80,
                    "time": 72.54639937499994,
                    "velocity": 0.5039370078740157,
                    "duration": 0.11796162500000662
                },
                {
                    "name": "D#5",
                    "midi": 75,
                    "time": 72.54639937499994,
                    "velocity": 0.5039370078740157,
                    "duration": 0.11796162500000662
                },
                {
                    "name": "D#6",
                    "midi": 87,
                    "time": 72.54639937499994,
                    "velocity": 0.5984251968503937,
                    "duration": 0.11796162500000662
                },
                {
                    "name": "G#5",
                    "midi": 80,
                    "time": 72.66436099999994,
                    "velocity": 0.5905511811023622,
                    "duration": 1.8873859999999922
                },
                {
                    "name": "C#6",
                    "midi": 85,
                    "time": 72.66436099999994,
                    "velocity": 0.7007874015748031,
                    "duration": 1.8873859999999922
                },
                {
                    "name": "C#5",
                    "midi": 73,
                    "time": 72.66436099999994,
                    "velocity": 0.5905511811023622,
                    "duration": 1.8873859999999922
                },
                {
                    "name": "B3",
                    "midi": 59,
                    "time": 72.97892533333328,
                    "velocity": 0.5039370078740157,
                    "duration": 0.15728216666666128
                },
                {
                    "name": "G3",
                    "midi": 55,
                    "time": 72.97892533333328,
                    "velocity": 0.4251968503937008,
                    "duration": 0.15728216666666128
                },
                {
                    "name": "G#3",
                    "midi": 56,
                    "time": 73.13620749999994,
                    "velocity": 0.4645669291338583,
                    "duration": 0.3145643333333368
                },
                {
                    "name": "A#3",
                    "midi": 58,
                    "time": 73.13620749999994,
                    "velocity": 0.5590551181102362,
                    "duration": 0.3145643333333368
                },
                {
                    "name": "B4",
                    "midi": 71,
                    "time": 73.92261833333328,
                    "velocity": 0.47244094488188976,
                    "duration": 0.15728216666666128
                },
                {
                    "name": "G4",
                    "midi": 67,
                    "time": 73.92261833333328,
                    "velocity": 0.4015748031496063,
                    "duration": 0.15728216666666128
                },
                {
                    "name": "A#4",
                    "midi": 70,
                    "time": 74.07990049999994,
                    "velocity": 0.5433070866141733,
                    "duration": 0.3145643333333368
                },
                {
                    "name": "G#4",
                    "midi": 68,
                    "time": 74.07990049999994,
                    "velocity": 0.4566929133858268,
                    "duration": 0.3145643333333368
                },
                {
                    "name": "B5",
                    "midi": 83,
                    "time": 74.86631133333327,
                    "velocity": 0.5433070866141733,
                    "duration": 0.15728216666666128
                },
                {
                    "name": "G5",
                    "midi": 79,
                    "time": 74.86631133333327,
                    "velocity": 0.4566929133858268,
                    "duration": 0.15728216666666128
                },
                {
                    "name": "G#5",
                    "midi": 80,
                    "time": 75.02359349999993,
                    "velocity": 0.49606299212598426,
                    "duration": 0.3145643333333368
                },
                {
                    "name": "A#5",
                    "midi": 82,
                    "time": 75.02359349999993,
                    "velocity": 0.5905511811023622,
                    "duration": 0.3145643333333368
                },
                {
                    "name": "G#5",
                    "midi": 80,
                    "time": 75.49543999999993,
                    "velocity": 0.8346456692913385,
                    "duration": 0.3145643333333368
                },
                {
                    "name": "C#7",
                    "midi": 97,
                    "time": 75.81000433333327,
                    "velocity": 0.6377952755905512,
                    "duration": 0.15728216666666128
                },
                {
                    "name": "G#6",
                    "midi": 92,
                    "time": 75.81000433333327,
                    "velocity": 0.5354330708661418,
                    "duration": 0.15728216666666128
                },
                {
                    "name": "C#6",
                    "midi": 85,
                    "time": 75.81000433333327,
                    "velocity": 0.5354330708661418,
                    "duration": 0.15728216666666128
                },
                {
                    "name": "G#6",
                    "midi": 92,
                    "time": 75.96728649999993,
                    "velocity": 0.7086614173228346,
                    "duration": 0.7864108333333348
                },
                {
                    "name": "C#6",
                    "midi": 85,
                    "time": 75.96728649999993,
                    "velocity": 0.5984251968503937,
                    "duration": 0.7864108333333348
                },
                {
                    "name": "G#5",
                    "midi": 80,
                    "time": 75.96728649999993,
                    "velocity": 0.5984251968503937,
                    "duration": 0.7864108333333348
                },
                {
                    "name": "G#5",
                    "midi": 80,
                    "time": 76.75369733333326,
                    "velocity": 0.6377952755905512,
                    "duration": 0.15728216666666128
                },
                {
                    "name": "C#5",
                    "midi": 73,
                    "time": 76.75369733333326,
                    "velocity": 0.5354330708661418,
                    "duration": 0.15728216666666128
                },
                {
                    "name": "C#6",
                    "midi": 85,
                    "time": 76.75369733333326,
                    "velocity": 0.6377952755905512,
                    "duration": 0.15728216666666128
                },
                {
                    "name": "G#4",
                    "midi": 68,
                    "time": 76.91097949999993,
                    "velocity": 0.5984251968503937,
                    "duration": 0.7077697499999971
                },
                {
                    "name": "C#5",
                    "midi": 73,
                    "time": 76.91097949999993,
                    "velocity": 0.5984251968503937,
                    "duration": 0.7077697499999971
                },
                {
                    "name": "G#5",
                    "midi": 80,
                    "time": 76.91097949999993,
                    "velocity": 0.7086614173228346,
                    "duration": 0.7077697499999971
                },
                {
                    "name": "D#5",
                    "midi": 75,
                    "time": 77.61874924999992,
                    "velocity": 0.47244094488188976,
                    "duration": 0.23592324999999903
                },
                {
                    "name": "G#5",
                    "midi": 80,
                    "time": 77.61874924999992,
                    "velocity": 0.47244094488188976,
                    "duration": 0.23592324999999903
                },
                {
                    "name": "D#6",
                    "midi": 87,
                    "time": 77.61874924999992,
                    "velocity": 0.5590551181102362,
                    "duration": 0.23592324999999903
                },
                {
                    "name": "D#5",
                    "midi": 75,
                    "time": 77.85467249999992,
                    "velocity": 0.4566929133858268,
                    "duration": 0.23592324999999903
                },
                {
                    "name": "G#5",
                    "midi": 80,
                    "time": 77.85467249999992,
                    "velocity": 0.4566929133858268,
                    "duration": 0.23592324999999903
                },
                {
                    "name": "D#6",
                    "midi": 87,
                    "time": 77.85467249999992,
                    "velocity": 0.5433070866141733,
                    "duration": 0.23592324999999903
                },
                {
                    "name": "C#6",
                    "midi": 85,
                    "time": 78.09059574999992,
                    "velocity": 0.6377952755905512,
                    "duration": 0.23592324999999903
                },
                {
                    "name": "G#5",
                    "midi": 80,
                    "time": 78.09059574999992,
                    "velocity": 0.5354330708661418,
                    "duration": 0.23592324999999903
                },
                {
                    "name": "C#5",
                    "midi": 73,
                    "time": 78.09059574999992,
                    "velocity": 0.5354330708661418,
                    "duration": 0.23592324999999903
                },
                {
                    "name": "G#5",
                    "midi": 80,
                    "time": 78.32651899999992,
                    "velocity": 0.5905511811023622,
                    "duration": 1.8873859999999922
                },
                {
                    "name": "C#6",
                    "midi": 85,
                    "time": 78.32651899999992,
                    "velocity": 0.7007874015748031,
                    "duration": 1.8873859999999922
                },
                {
                    "name": "C#5",
                    "midi": 73,
                    "time": 78.32651899999992,
                    "velocity": 0.5905511811023622,
                    "duration": 1.8873859999999922
                },
                {
                    "name": "B3",
                    "midi": 59,
                    "time": 78.64108333333326,
                    "velocity": 0.5039370078740157,
                    "duration": 0.15728216666666128
                },
                {
                    "name": "G3",
                    "midi": 55,
                    "time": 78.64108333333326,
                    "velocity": 0.4251968503937008,
                    "duration": 0.15728216666666128
                },
                {
                    "name": "G#3",
                    "midi": 56,
                    "time": 78.79836549999992,
                    "velocity": 0.4645669291338583,
                    "duration": 0.3145643333333368
                },
                {
                    "name": "A#3",
                    "midi": 58,
                    "time": 78.79836549999992,
                    "velocity": 0.5590551181102362,
                    "duration": 0.3145643333333368
                },
                {
                    "name": "B4",
                    "midi": 71,
                    "time": 79.58477633333325,
                    "velocity": 0.47244094488188976,
                    "duration": 0.15728216666666128
                },
                {
                    "name": "G4",
                    "midi": 67,
                    "time": 79.58477633333325,
                    "velocity": 0.4015748031496063,
                    "duration": 0.15728216666666128
                },
                {
                    "name": "A#4",
                    "midi": 70,
                    "time": 79.74205849999991,
                    "velocity": 0.5433070866141733,
                    "duration": 0.3145643333333368
                },
                {
                    "name": "G#4",
                    "midi": 68,
                    "time": 79.74205849999991,
                    "velocity": 0.4566929133858268,
                    "duration": 0.3145643333333368
                },
                {
                    "name": "B5",
                    "midi": 83,
                    "time": 80.52846933333325,
                    "velocity": 0.5433070866141733,
                    "duration": 0.15728216666666128
                },
                {
                    "name": "G5",
                    "midi": 79,
                    "time": 80.52846933333325,
                    "velocity": 0.4566929133858268,
                    "duration": 0.15728216666666128
                },
                {
                    "name": "G#5",
                    "midi": 80,
                    "time": 80.68575149999991,
                    "velocity": 0.49606299212598426,
                    "duration": 0.3145643333333368
                },
                {
                    "name": "A#5",
                    "midi": 82,
                    "time": 80.68575149999991,
                    "velocity": 0.5905511811023622,
                    "duration": 0.3145643333333368
                },
                {
                    "name": "G#5",
                    "midi": 80,
                    "time": 81.15759799999991,
                    "velocity": 0.6850393700787402,
                    "duration": 0.47184649999999806
                },
                {
                    "name": "G#5",
                    "midi": 80,
                    "time": 81.6294444999999,
                    "velocity": 0.6299212598425197,
                    "duration": 0.9436929999999961
                },
                {
                    "name": "C#6",
                    "midi": 85,
                    "time": 81.6294444999999,
                    "velocity": 0.6299212598425197,
                    "duration": 0.9436929999999961
                },
                {
                    "name": "G#6",
                    "midi": 92,
                    "time": 81.6294444999999,
                    "velocity": 0.7480314960629921,
                    "duration": 0.9436929999999961
                },
                {
                    "name": "G#5",
                    "midi": 80,
                    "time": 82.5731374999999,
                    "velocity": 0.5354330708661418,
                    "duration": 0.7077697499999971
                },
                {
                    "name": "C#6",
                    "midi": 85,
                    "time": 82.5731374999999,
                    "velocity": 0.5354330708661418,
                    "duration": 0.7077697499999971
                },
                {
                    "name": "G#6",
                    "midi": 92,
                    "time": 82.5731374999999,
                    "velocity": 0.6299212598425197,
                    "duration": 0.7077697499999971
                },
                {
                    "name": "G#5",
                    "midi": 80,
                    "time": 83.2809072499999,
                    "velocity": 0.5669291338582677,
                    "duration": 0.23592324999999903
                },
                {
                    "name": "C#6",
                    "midi": 85,
                    "time": 83.2809072499999,
                    "velocity": 0.5669291338582677,
                    "duration": 0.23592324999999903
                },
                {
                    "name": "G#6",
                    "midi": 92,
                    "time": 83.2809072499999,
                    "velocity": 0.6692913385826772,
                    "duration": 0.23592324999999903
                },
                {
                    "name": "G#5",
                    "midi": 80,
                    "time": 83.5168304999999,
                    "velocity": 0.5748031496062992,
                    "duration": 0.9436929999999961
                },
                {
                    "name": "C#6",
                    "midi": 85,
                    "time": 83.5168304999999,
                    "velocity": 0.5748031496062992,
                    "duration": 0.9436929999999961
                },
                {
                    "name": "G#6",
                    "midi": 92,
                    "time": 83.5168304999999,
                    "velocity": 0.6771653543307087,
                    "duration": 0.9436929999999961
                },
                {
                    "name": "G#5",
                    "midi": 80,
                    "time": 84.4605234999999,
                    "velocity": 0.6220472440944882,
                    "duration": 0.47184649999999806
                },
                {
                    "name": "C#6",
                    "midi": 85,
                    "time": 84.4605234999999,
                    "velocity": 0.6220472440944882,
                    "duration": 0.47184649999999806
                },
                {
                    "name": "G#6",
                    "midi": 92,
                    "time": 84.4605234999999,
                    "velocity": 0.7322834645669292,
                    "duration": 0.47184649999999806
                },
                {
                    "name": "G#5",
                    "midi": 80,
                    "time": 84.93236999999989,
                    "velocity": 0.6299212598425197,
                    "duration": 0.3145643333333368
                },
                {
                    "name": "C#6",
                    "midi": 85,
                    "time": 84.93236999999989,
                    "velocity": 0.6299212598425197,
                    "duration": 0.3145643333333368
                },
                {
                    "name": "G#6",
                    "midi": 92,
                    "time": 84.93236999999989,
                    "velocity": 0.7480314960629921,
                    "duration": 0.3145643333333368
                },
                {
                    "name": "G#5",
                    "midi": 80,
                    "time": 85.24693433333323,
                    "velocity": 0.6614173228346457,
                    "duration": 0.3145643333333368
                },
                {
                    "name": "C#6",
                    "midi": 85,
                    "time": 85.24693433333323,
                    "velocity": 0.6614173228346457,
                    "duration": 0.3145643333333368
                },
                {
                    "name": "G#6",
                    "midi": 92,
                    "time": 85.24693433333323,
                    "velocity": 0.7795275590551181,
                    "duration": 0.3145643333333368
                },
                {
                    "name": "G#5",
                    "midi": 80,
                    "time": 85.56149866666657,
                    "velocity": 0.6692913385826772,
                    "duration": 0.3145643333333368
                },
                {
                    "name": "C#6",
                    "midi": 85,
                    "time": 85.56149866666657,
                    "velocity": 0.6692913385826772,
                    "duration": 0.3145643333333368
                },
                {
                    "name": "G#6",
                    "midi": 92,
                    "time": 85.56149866666657,
                    "velocity": 0.7874015748031497,
                    "duration": 0.3145643333333368
                },
                {
                    "name": "G#5",
                    "midi": 80,
                    "time": 85.8760629999999,
                    "velocity": 0.6771653543307087,
                    "duration": 0.23592324999999903
                },
                {
                    "name": "C#6",
                    "midi": 85,
                    "time": 85.8760629999999,
                    "velocity": 0.6771653543307087,
                    "duration": 0.23592324999999903
                },
                {
                    "name": "G#6",
                    "midi": 92,
                    "time": 85.8760629999999,
                    "velocity": 0.8031496062992126,
                    "duration": 0.23592324999999903
                },
                {
                    "name": "G#5",
                    "midi": 80,
                    "time": 86.1119862499999,
                    "velocity": 0.6929133858267716,
                    "duration": 0.23592324999999903
                },
                {
                    "name": "C#6",
                    "midi": 85,
                    "time": 86.1119862499999,
                    "velocity": 0.6929133858267716,
                    "duration": 0.23592324999999903
                },
                {
                    "name": "G#6",
                    "midi": 92,
                    "time": 86.1119862499999,
                    "velocity": 0.8188976377952756,
                    "duration": 0.23592324999999903
                },
                {
                    "name": "G#5",
                    "midi": 80,
                    "time": 86.3479094999999,
                    "velocity": 0.7007874015748031,
                    "duration": 0.23592324999999903
                },
                {
                    "name": "C#6",
                    "midi": 85,
                    "time": 86.3479094999999,
                    "velocity": 0.7007874015748031,
                    "duration": 0.23592324999999903
                },
                {
                    "name": "G#6",
                    "midi": 92,
                    "time": 86.3479094999999,
                    "velocity": 0.8267716535433071,
                    "duration": 0.23592324999999903
                },
                {
                    "name": "G#6",
                    "midi": 92,
                    "time": 86.5838327499999,
                    "velocity": 0.84251968503937,
                    "duration": 0.23592324999999903
                },
                {
                    "name": "C#6",
                    "midi": 85,
                    "time": 86.5838327499999,
                    "velocity": 0.7086614173228346,
                    "duration": 0.23592324999999903
                },
                {
                    "name": "G#5",
                    "midi": 80,
                    "time": 86.5838327499999,
                    "velocity": 0.7086614173228346,
                    "duration": 0.23592324999999903
                },
                {
                    "name": "G#5",
                    "midi": 80,
                    "time": 86.8197559999999,
                    "velocity": 0.7086614173228346,
                    "duration": 0.23592324999999903
                },
                {
                    "name": "C#6",
                    "midi": 85,
                    "time": 86.8197559999999,
                    "velocity": 0.7086614173228346,
                    "duration": 0.23592324999999903
                },
                {
                    "name": "G#6",
                    "midi": 92,
                    "time": 86.8197559999999,
                    "velocity": 0.84251968503937,
                    "duration": 0.23592324999999903
                },
                {
                    "name": "D#6",
                    "midi": 87,
                    "time": 87.0556792499999,
                    "velocity": 0.7795275590551181,
                    "duration": 0.23592324999999903
                },
                {
                    "name": "G#5",
                    "midi": 80,
                    "time": 87.0556792499999,
                    "velocity": 0.6614173228346457,
                    "duration": 0.23592324999999903
                },
                {
                    "name": "D#5",
                    "midi": 75,
                    "time": 87.0556792499999,
                    "velocity": 0.6614173228346457,
                    "duration": 0.23592324999999903
                },
                {
                    "name": "D#6",
                    "midi": 87,
                    "time": 87.2916024999999,
                    "velocity": 0.7795275590551181,
                    "duration": 0.23592324999999903
                },
                {
                    "name": "G#5",
                    "midi": 80,
                    "time": 87.2916024999999,
                    "velocity": 0.6614173228346457,
                    "duration": 0.23592324999999903
                },
                {
                    "name": "D#5",
                    "midi": 75,
                    "time": 87.2916024999999,
                    "velocity": 0.6614173228346457,
                    "duration": 0.23592324999999903
                },
                {
                    "name": "C#5",
                    "midi": 73,
                    "time": 87.5275257499999,
                    "velocity": 0.6299212598425197,
                    "duration": 0.23592324999999903
                },
                {
                    "name": "G#5",
                    "midi": 80,
                    "time": 87.5275257499999,
                    "velocity": 0.6299212598425197,
                    "duration": 0.23592324999999903
                },
                {
                    "name": "C#6",
                    "midi": 85,
                    "time": 87.5275257499999,
                    "velocity": 0.7480314960629921,
                    "duration": 0.23592324999999903
                },
                {
                    "name": "C#5",
                    "midi": 73,
                    "time": 87.7634489999999,
                    "velocity": 0.7007874015748031,
                    "duration": 0.23592324999999903
                },
                {
                    "name": "G#5",
                    "midi": 80,
                    "time": 87.7634489999999,
                    "velocity": 0.7007874015748031,
                    "duration": 0.23592324999999903
                },
                {
                    "name": "C#6",
                    "midi": 85,
                    "time": 87.7634489999999,
                    "velocity": 0.8267716535433071,
                    "duration": 0.23592324999999903
                },
                {
                    "name": "G#4",
                    "midi": 68,
                    "time": 87.9993722499999,
                    "velocity": 0.6220472440944882,
                    "duration": 0.23592324999999903
                },
                {
                    "name": "D#5",
                    "midi": 75,
                    "time": 87.9993722499999,
                    "velocity": 0.6220472440944882,
                    "duration": 0.23592324999999903
                },
                {
                    "name": "G#5",
                    "midi": 80,
                    "time": 87.9993722499999,
                    "velocity": 0.7322834645669292,
                    "duration": 0.23592324999999903
                },
                {
                    "name": "G#4",
                    "midi": 68,
                    "time": 88.23529549999989,
                    "velocity": 0.6220472440944882,
                    "duration": 0.23592324999999903
                },
                {
                    "name": "D#5",
                    "midi": 75,
                    "time": 88.23529549999989,
                    "velocity": 0.6220472440944882,
                    "duration": 0.23592324999999903
                },
                {
                    "name": "G#5",
                    "midi": 80,
                    "time": 88.23529549999989,
                    "velocity": 0.7322834645669292,
                    "duration": 0.23592324999999903
                },
                {
                    "name": "D#4",
                    "midi": 63,
                    "time": 88.47121874999989,
                    "velocity": 0.6062992125984252,
                    "duration": 0.23592324999999903
                },
                {
                    "name": "G#4",
                    "midi": 68,
                    "time": 88.47121874999989,
                    "velocity": 0.6062992125984252,
                    "duration": 0.23592324999999903
                },
                {
                    "name": "D#5",
                    "midi": 75,
                    "time": 88.47121874999989,
                    "velocity": 0.7165354330708661,
                    "duration": 0.23592324999999903
                },
                {
                    "name": "D#4",
                    "midi": 63,
                    "time": 88.70714199999989,
                    "velocity": 0.6062992125984252,
                    "duration": 0.23592324999999903
                },
                {
                    "name": "G#4",
                    "midi": 68,
                    "time": 88.70714199999989,
                    "velocity": 0.6062992125984252,
                    "duration": 0.23592324999999903
                },
                {
                    "name": "D#5",
                    "midi": 75,
                    "time": 88.70714199999989,
                    "velocity": 0.7165354330708661,
                    "duration": 0.23592324999999903
                },
                {
                    "name": "C#5",
                    "midi": 73,
                    "time": 88.94306524999989,
                    "velocity": 0.6850393700787402,
                    "duration": 0.23592324999999903
                },
                {
                    "name": "G#4",
                    "midi": 68,
                    "time": 88.94306524999989,
                    "velocity": 0.5748031496062992,
                    "duration": 0.23592324999999903
                },
                {
                    "name": "C#4",
                    "midi": 61,
                    "time": 88.94306524999989,
                    "velocity": 0.5748031496062992,
                    "duration": 0.23592324999999903
                },
                {
                    "name": "C#5",
                    "midi": 73,
                    "time": 89.17898849999989,
                    "velocity": 0.6850393700787402,
                    "duration": 0.23592324999999903
                },
                {
                    "name": "G#4",
                    "midi": 68,
                    "time": 89.17898849999989,
                    "velocity": 0.5748031496062992,
                    "duration": 0.23592324999999903
                },
                {
                    "name": "C#4",
                    "midi": 61,
                    "time": 89.17898849999989,
                    "velocity": 0.5748031496062992,
                    "duration": 0.23592324999999903
                },
                {
                    "name": "G#4",
                    "midi": 68,
                    "time": 89.41491174999989,
                    "velocity": 0.6377952755905512,
                    "duration": 0.23592324999999903
                },
                {
                    "name": "C#4",
                    "midi": 61,
                    "time": 89.41491174999989,
                    "velocity": 0.5354330708661418,
                    "duration": 0.23592324999999903
                },
                {
                    "name": "G#3",
                    "midi": 56,
                    "time": 89.41491174999989,
                    "velocity": 0.5354330708661418,
                    "duration": 0.23592324999999903
                },
                {
                    "name": "G#4",
                    "midi": 68,
                    "time": 89.65083499999989,
                    "velocity": 0.6377952755905512,
                    "duration": 0.23592324999999903
                },
                {
                    "name": "C#4",
                    "midi": 61,
                    "time": 89.65083499999989,
                    "velocity": 0.5354330708661418,
                    "duration": 0.23592324999999903
                },
                {
                    "name": "G#3",
                    "midi": 56,
                    "time": 89.65083499999989,
                    "velocity": 0.5354330708661418,
                    "duration": 0.23592324999999903
                },
                {
                    "name": "D#3",
                    "midi": 51,
                    "time": 89.88675824999989,
                    "velocity": 0.5196850393700787,
                    "duration": 0.23592324999999903
                },
                {
                    "name": "G#3",
                    "midi": 56,
                    "time": 89.88675824999989,
                    "velocity": 0.5196850393700787,
                    "duration": 0.23592324999999903
                },
                {
                    "name": "D#4",
                    "midi": 63,
                    "time": 89.88675824999989,
                    "velocity": 0.6141732283464567,
                    "duration": 0.23592324999999903
                },
                {
                    "name": "D#3",
                    "midi": 51,
                    "time": 90.12268149999989,
                    "velocity": 0.5196850393700787,
                    "duration": 0.23592324999999903
                },
                {
                    "name": "G#3",
                    "midi": 56,
                    "time": 90.12268149999989,
                    "velocity": 0.5196850393700787,
                    "duration": 0.23592324999999903
                },
                {
                    "name": "D#4",
                    "midi": 63,
                    "time": 90.12268149999989,
                    "velocity": 0.6141732283464567,
                    "duration": 0.23592324999999903
                },
                {
                    "name": "C#4",
                    "midi": 61,
                    "time": 90.35860474999988,
                    "velocity": 0.5905511811023622,
                    "duration": 0.11796162500000662
                },
                {
                    "name": "G#3",
                    "midi": 56,
                    "time": 90.35860474999988,
                    "velocity": 0.49606299212598426,
                    "duration": 0.11796162500000662
                },
                {
                    "name": "C#3",
                    "midi": 49,
                    "time": 90.35860474999988,
                    "velocity": 0.49606299212598426,
                    "duration": 0.11796162500000662
                },
                {
                    "name": "C4",
                    "midi": 60,
                    "time": 90.47656637499989,
                    "velocity": 0.6141732283464567,
                    "duration": 0.11796162500000662
                },
                {
                    "name": "C3",
                    "midi": 48,
                    "time": 90.47656637499989,
                    "velocity": 0.5196850393700787,
                    "duration": 0.11796162500000662
                },
                {
                    "name": "B3",
                    "midi": 59,
                    "time": 90.5945279999999,
                    "velocity": 0.7007874015748031,
                    "duration": 2.8310789999999884
                },
                {
                    "name": "G#3",
                    "midi": 56,
                    "time": 90.5945279999999,
                    "velocity": 0.5905511811023622,
                    "duration": 2.8310789999999884
                },
                {
                    "name": "B2",
                    "midi": 47,
                    "time": 90.5945279999999,
                    "velocity": 0.5905511811023622,
                    "duration": 2.8310789999999884
                },
                {
                    "name": "A6",
                    "midi": 93,
                    "time": 91.38093883333323,
                    "velocity": 0.6377952755905512,
                    "duration": 0.15728216666666128
                },
                {
                    "name": "C6",
                    "midi": 84,
                    "time": 91.38093883333323,
                    "velocity": 0.5354330708661418,
                    "duration": 0.15728216666666128
                },
                {
                    "name": "A5",
                    "midi": 81,
                    "time": 91.38093883333323,
                    "velocity": 0.5354330708661418,
                    "duration": 0.15728216666666128
                },
                {
                    "name": "G#6",
                    "midi": 92,
                    "time": 91.5382209999999,
                    "velocity": 0.7086614173228346,
                    "duration": 0.7864108333333348
                },
                {
                    "name": "E6",
                    "midi": 88,
                    "time": 91.5382209999999,
                    "velocity": 0.5984251968503937,
                    "duration": 0.7864108333333348
                },
                {
                    "name": "G#5",
                    "midi": 80,
                    "time": 91.5382209999999,
                    "velocity": 0.5984251968503937,
                    "duration": 0.7864108333333348
                },
                {
                    "name": "C5",
                    "midi": 72,
                    "time": 92.32463183333323,
                    "velocity": 0.6377952755905512,
                    "duration": 0.15728216666666128
                },
                {
                    "name": "A4",
                    "midi": 69,
                    "time": 92.32463183333323,
                    "velocity": 0.5354330708661418,
                    "duration": 0.15728216666666128
                },
                {
                    "name": "A5",
                    "midi": 81,
                    "time": 92.32463183333323,
                    "velocity": 0.6377952755905512,
                    "duration": 0.15728216666666128
                },
                {
                    "name": "G#4",
                    "midi": 68,
                    "time": 92.48191399999989,
                    "velocity": 0.5984251968503937,
                    "duration": 0.6291286666666736
                },
                {
                    "name": "E5",
                    "midi": 76,
                    "time": 92.48191399999989,
                    "velocity": 0.5984251968503937,
                    "duration": 0.6291286666666736
                },
                {
                    "name": "G#5",
                    "midi": 80,
                    "time": 92.48191399999989,
                    "velocity": 0.7086614173228346,
                    "duration": 0.6291286666666736
                },
                {
                    "name": "A#2",
                    "midi": 46,
                    "time": 93.11104266666656,
                    "velocity": 0.4566929133858268,
                    "duration": 0.15728216666666128
                },
                {
                    "name": "A#3",
                    "midi": 58,
                    "time": 93.11104266666656,
                    "velocity": 0.5433070866141733,
                    "duration": 0.15728216666666128
                },
                {
                    "name": "A3",
                    "midi": 57,
                    "time": 93.26832483333322,
                    "velocity": 0.6377952755905512,
                    "duration": 0.15728216666666128
                },
                {
                    "name": "A2",
                    "midi": 45,
                    "time": 93.26832483333322,
                    "velocity": 0.5354330708661418,
                    "duration": 0.15728216666666128
                },
                {
                    "name": "G#2",
                    "midi": 44,
                    "time": 93.42560699999989,
                    "velocity": 0.5511811023622047,
                    "duration": 2.8310789999999884
                },
                {
                    "name": "G#3",
                    "midi": 56,
                    "time": 93.42560699999989,
                    "velocity": 0.6614173228346457,
                    "duration": 2.8310789999999884
                },
                {
                    "name": "F#3",
                    "midi": 54,
                    "time": 93.42560699999989,
                    "velocity": 0.5511811023622047,
                    "duration": 2.673796833333327
                },
                {
                    "name": "C3",
                    "midi": 48,
                    "time": 93.42560699999989,
                    "velocity": 0.5511811023622047,
                    "duration": 2.8310789999999884
                },
                {
                    "name": "A5",
                    "midi": 81,
                    "time": 94.21201783333322,
                    "velocity": 0.6377952755905512,
                    "duration": 0.15728216666666128
                },
                {
                    "name": "F#5",
                    "midi": 78,
                    "time": 94.21201783333322,
                    "velocity": 0.5354330708661418,
                    "duration": 0.15728216666666128
                },
                {
                    "name": "A4",
                    "midi": 69,
                    "time": 94.21201783333322,
                    "velocity": 0.5354330708661418,
                    "duration": 0.15728216666666128
                },
                {
                    "name": "G#5",
                    "midi": 80,
                    "time": 94.36929999999988,
                    "velocity": 0.7086614173228346,
                    "duration": 0.7864108333333348
                },
                {
                    "name": "C5",
                    "midi": 72,
                    "time": 94.36929999999988,
                    "velocity": 0.5984251968503937,
                    "duration": 0.7864108333333348
                },
                {
                    "name": "G#4",
                    "midi": 68,
                    "time": 94.36929999999988,
                    "velocity": 0.5984251968503937,
                    "duration": 0.7864108333333348
                },
                {
                    "name": "F#6",
                    "midi": 90,
                    "time": 95.15571083333322,
                    "velocity": 0.6377952755905512,
                    "duration": 0.15728216666666128
                },
                {
                    "name": "A5",
                    "midi": 81,
                    "time": 95.15571083333322,
                    "velocity": 0.5354330708661418,
                    "duration": 0.15728216666666128
                },
                {
                    "name": "A6",
                    "midi": 93,
                    "time": 95.15571083333322,
                    "velocity": 0.6377952755905512,
                    "duration": 0.15728216666666128
                },
                {
                    "name": "G#5",
                    "midi": 80,
                    "time": 95.31299299999988,
                    "velocity": 0.5984251968503937,
                    "duration": 0.6291286666666736
                },
                {
                    "name": "C6",
                    "midi": 84,
                    "time": 95.31299299999988,
                    "velocity": 0.5984251968503937,
                    "duration": 0.6291286666666736
                },
                {
                    "name": "G#6",
                    "midi": 92,
                    "time": 95.31299299999988,
                    "velocity": 0.7086614173228346,
                    "duration": 0.6291286666666736
                },
                {
                    "name": "F#2",
                    "midi": 42,
                    "time": 95.94212166666655,
                    "velocity": 0.4566929133858268,
                    "duration": 0.15728216666666128
                },
                {
                    "name": "F#3",
                    "midi": 54,
                    "time": 95.94212166666655,
                    "velocity": 0.5433070866141733,
                    "duration": 0.31456433333332257
                },
                {
                    "name": "F3",
                    "midi": 53,
                    "time": 96.09940383333321,
                    "velocity": 0.6377952755905512,
                    "duration": 0.15728216666666128
                },
                {
                    "name": "F2",
                    "midi": 41,
                    "time": 96.09940383333321,
                    "velocity": 0.5354330708661418,
                    "duration": 0.15728216666666128
                },
                {
                    "name": "E2",
                    "midi": 40,
                    "time": 96.25668599999987,
                    "velocity": 0.5433070866141733,
                    "duration": 0.9436929999999961
                },
                {
                    "name": "E3",
                    "midi": 52,
                    "time": 96.25668599999987,
                    "velocity": 0.5748031496062992,
                    "duration": 0.9436929999999961
                },
                {
                    "name": "E4",
                    "midi": 64,
                    "time": 97.20037899999987,
                    "velocity": 0.5748031496062992,
                    "duration": 1.730103833333331
                },
                {
                    "name": "D#4",
                    "midi": 63,
                    "time": 98.9304828333332,
                    "velocity": 0.5354330708661418,
                    "duration": 0.05111670416665959
                },
                {
                    "name": "C#4",
                    "midi": 61,
                    "time": 98.98159953749986,
                    "velocity": 0.5511811023622047,
                    "duration": 0.05111670416665959
                },
                {
                    "name": "B3",
                    "midi": 59,
                    "time": 99.03271624166652,
                    "velocity": 0.5669291338582677,
                    "duration": 0.055048758333327896
                },
                {
                    "name": "A#3",
                    "midi": 58,
                    "time": 99.08776499999985,
                    "velocity": 0.6141732283464567,
                    "duration": 2.8310790000000026
                },
                {
                    "name": "B2",
                    "midi": 47,
                    "time": 99.40232933333318,
                    "velocity": 0.5748031496062992,
                    "duration": 0.15728216666666128
                },
                {
                    "name": "A#2",
                    "midi": 46,
                    "time": 99.55961149999985,
                    "velocity": 0.6850393700787402,
                    "duration": 0.9436929999999961
                },
                {
                    "name": "A#1",
                    "midi": 34,
                    "time": 100.50330449999984,
                    "velocity": 0.6929133858267716,
                    "duration": 0.7864108333333348
                },
                {
                    "name": "B2",
                    "midi": 47,
                    "time": 101.28971533333318,
                    "velocity": 0.5748031496062992,
                    "duration": 0.15728216666666128
                },
                {
                    "name": "A#2",
                    "midi": 46,
                    "time": 101.44699749999984,
                    "velocity": 0.6535433070866141,
                    "duration": 0.47184650000001227
                },
                {
                    "name": "F#3",
                    "midi": 54,
                    "time": 101.76156183333318,
                    "velocity": 0.4881889763779528,
                    "duration": 0.07864108333333775
                },
                {
                    "name": "A3",
                    "midi": 57,
                    "time": 101.84020291666651,
                    "velocity": 0.5511811023622047,
                    "duration": 0.07864108333333775
                },
                {
                    "name": "A4",
                    "midi": 69,
                    "time": 101.91884399999985,
                    "velocity": 0.6377952755905512,
                    "duration": 2.673796833333327
                },
                {
                    "name": "G#4",
                    "midi": 68,
                    "time": 104.59264083333318,
                    "velocity": 0.5354330708661418,
                    "duration": 0.05111670416665959
                },
                {
                    "name": "F#4",
                    "midi": 66,
                    "time": 104.64375753749984,
                    "velocity": 0.5511811023622047,
                    "duration": 0.05111670416665959
                },
                {
                    "name": "E4",
                    "midi": 64,
                    "time": 104.6948742416665,
                    "velocity": 0.5669291338582677,
                    "duration": 0.055048758333327896
                },
                {
                    "name": "D#4",
                    "midi": 63,
                    "time": 104.74992299999982,
                    "velocity": 0.6141732283464567,
                    "duration": 2.831078999999974
                },
                {
                    "name": "E3",
                    "midi": 52,
                    "time": 105.06448733333316,
                    "velocity": 0.5748031496062992,
                    "duration": 0.15728216666666128
                },
                {
                    "name": "D#3",
                    "midi": 51,
                    "time": 105.22176949999982,
                    "velocity": 0.6850393700787402,
                    "duration": 0.7864108333333348
                },
                {
                    "name": "E2",
                    "midi": 40,
                    "time": 106.00818033333316,
                    "velocity": 0.5748031496062992,
                    "duration": 0.15728216666666128
                },
                {
                    "name": "D#2",
                    "midi": 39,
                    "time": 106.16546249999982,
                    "velocity": 0.6929133858267716,
                    "duration": 0.7864108333333348
                },
                {
                    "name": "E3",
                    "midi": 52,
                    "time": 106.95187333333315,
                    "velocity": 0.5748031496062992,
                    "duration": 0.15728216666666128
                },
                {
                    "name": "D#3",
                    "midi": 51,
                    "time": 107.10915549999982,
                    "velocity": 0.6535433070866141,
                    "duration": 0.47184649999998385
                },
                {
                    "name": "G#3",
                    "midi": 56,
                    "time": 107.40405956249981,
                    "velocity": 0.5748031496062992,
                    "duration": 0.058980812499996205
                },
                {
                    "name": "C#4",
                    "midi": 61,
                    "time": 107.4630403749998,
                    "velocity": 0.5984251968503937,
                    "duration": 0.058980812499996205
                },
                {
                    "name": "E4",
                    "midi": 64,
                    "time": 107.5220211874998,
                    "velocity": 0.6062992125984252,
                    "duration": 0.058980812499996205
                },
                {
                    "name": "E5",
                    "midi": 76,
                    "time": 107.5810019999998,
                    "velocity": 0.6456692913385826,
                    "duration": 2.673796833333327
                },
                {
                    "name": "D#5",
                    "midi": 75,
                    "time": 110.25479883333313,
                    "velocity": 0.48031496062992124,
                    "duration": 0.03145643333333226
                },
                {
                    "name": "C#5",
                    "midi": 73,
                    "time": 110.28625526666646,
                    "velocity": 0.49606299212598426,
                    "duration": 0.03145643333333226
                },
                {
                    "name": "B4",
                    "midi": 71,
                    "time": 110.31967772708312,
                    "velocity": 0.5039370078740157,
                    "duration": 0.03145643333333226
                },
                {
                    "name": "A#4",
                    "midi": 70,
                    "time": 110.35113416041645,
                    "velocity": 0.5275590551181102,
                    "duration": 0.03145643333333226
                },
                {
                    "name": "G#4",
                    "midi": 68,
                    "time": 110.38259059374978,
                    "velocity": 0.5590551181102362,
                    "duration": 0.029490406250005208
                },
                {
                    "name": "G4",
                    "midi": 67,
                    "time": 110.41208099999979,
                    "velocity": 0.6141732283464567,
                    "duration": 2.831078999999974
                },
                {
                    "name": "G#3",
                    "midi": 56,
                    "time": 110.72664533333312,
                    "velocity": 0.5748031496062992,
                    "duration": 0.15728216666666128
                },
                {
                    "name": "G3",
                    "midi": 55,
                    "time": 110.88392749999979,
                    "velocity": 0.6850393700787402,
                    "duration": 0.7864108333333348
                },
                {
                    "name": "G#2",
                    "midi": 44,
                    "time": 111.67033833333312,
                    "velocity": 0.5748031496062992,
                    "duration": 0.15728216666666128
                },
                {
                    "name": "G2",
                    "midi": 43,
                    "time": 111.82762049999978,
                    "velocity": 0.6929133858267716,
                    "duration": 0.7864108333333348
                },
                {
                    "name": "G#3",
                    "midi": 56,
                    "time": 112.61403133333312,
                    "velocity": 0.5748031496062992,
                    "duration": 0.15728216666666128
                },
                {
                    "name": "G3",
                    "midi": 55,
                    "time": 112.77131349999978,
                    "velocity": 0.6535433070866141,
                    "duration": 0.47184649999998385
                },
                {
                    "name": "B3",
                    "midi": 59,
                    "time": 113.06621756249977,
                    "velocity": 0.5748031496062992,
                    "duration": 0.058980812499996205
                },
                {
                    "name": "E4",
                    "midi": 64,
                    "time": 113.12519837499977,
                    "velocity": 0.5984251968503937,
                    "duration": 0.058980812499996205
                },
                {
                    "name": "G4",
                    "midi": 67,
                    "time": 113.18417918749977,
                    "velocity": 0.6062992125984252,
                    "duration": 0.058980812499996205
                },
                {
                    "name": "G5",
                    "midi": 79,
                    "time": 113.24315999999976,
                    "velocity": 0.7165354330708661,
                    "duration": 1.8873860000000064
                },
                {
                    "name": "F#5",
                    "midi": 78,
                    "time": 115.13054599999977,
                    "velocity": 0.7086614173228346,
                    "duration": 1.8873860000000064
                },
                {
                    "name": "F5",
                    "midi": 77,
                    "time": 117.01793199999977,
                    "velocity": 0.8188976377952756,
                    "duration": 0.8257313750000037
                },
                {
                    "name": "F#5",
                    "midi": 78,
                    "time": 117.84366337499978,
                    "velocity": 0.7244094488188977,
                    "duration": 0.11796162500000662
                },
                {
                    "name": "F5",
                    "midi": 77,
                    "time": 117.96162499999978,
                    "velocity": 0.8110236220472441,
                    "duration": 1.7694243749999998
                },
                {
                    "name": "B5",
                    "midi": 83,
                    "time": 119.69172883333312,
                    "velocity": 0.6456692913385826,
                    "duration": 0.03932054166666887
                },
                {
                    "name": "A5",
                    "midi": 81,
                    "time": 119.73104937499978,
                    "velocity": 0.6692913385826772,
                    "duration": 0.03932054166666887
                },
                {
                    "name": "G#5",
                    "midi": 80,
                    "time": 119.77036991666645,
                    "velocity": 0.6850393700787402,
                    "duration": 0.03932054166666887
                },
                {
                    "name": "F#5",
                    "midi": 78,
                    "time": 119.80969045833312,
                    "velocity": 0.7244094488188977,
                    "duration": 0.03932054166666887
                },
                {
                    "name": "F5",
                    "midi": 77,
                    "time": 119.84901099999979,
                    "velocity": 0.7401574803149606,
                    "duration": 0.8257313750000037
                },
                {
                    "name": "E5",
                    "midi": 76,
                    "time": 120.63542183333313,
                    "velocity": 0.6692913385826772,
                    "duration": 0.04915067708333254
                },
                {
                    "name": "D#5",
                    "midi": 75,
                    "time": 120.68457251041646,
                    "velocity": 0.7165354330708661,
                    "duration": 0.04915067708333254
                },
                {
                    "name": "D5",
                    "midi": 74,
                    "time": 120.73372318749979,
                    "velocity": 0.7401574803149606,
                    "duration": 0.058980812499996205
                },
                {
                    "name": "C#5",
                    "midi": 73,
                    "time": 120.79270399999979,
                    "velocity": 0.8188976377952756,
                    "duration": 0.8257313750000037
                },
                {
                    "name": "D5",
                    "midi": 74,
                    "time": 121.61843537499979,
                    "velocity": 0.7244094488188977,
                    "duration": 0.11796162500000662
                },
                {
                    "name": "C#5",
                    "midi": 73,
                    "time": 121.7363969999998,
                    "velocity": 0.8110236220472441,
                    "duration": 1.7694243749999998
                },
                {
                    "name": "G#5",
                    "midi": 80,
                    "time": 123.46650083333313,
                    "velocity": 0.6456692913385826,
                    "duration": 0.03932054166666887
                },
                {
                    "name": "F5",
                    "midi": 77,
                    "time": 123.5058213749998,
                    "velocity": 0.6692913385826772,
                    "duration": 0.03932054166666887
                },
                {
                    "name": "E5",
                    "midi": 76,
                    "time": 123.54514191666647,
                    "velocity": 0.6850393700787402,
                    "duration": 0.03932054166666887
                },
                {
                    "name": "D5",
                    "midi": 74,
                    "time": 123.58446245833314,
                    "velocity": 0.7244094488188977,
                    "duration": 0.03932054166666887
                },
                {
                    "name": "C#5",
                    "midi": 73,
                    "time": 123.6237829999998,
                    "velocity": 0.7401574803149606,
                    "duration": 0.8257313750000037
                },
                {
                    "name": "D5",
                    "midi": 74,
                    "time": 124.41019383333314,
                    "velocity": 0.6456692913385826,
                    "duration": 0.03932054166666887
                },
                {
                    "name": "C#5",
                    "midi": 73,
                    "time": 124.44951437499981,
                    "velocity": 0.6692913385826772,
                    "duration": 0.03932054166666887
                },
                {
                    "name": "C5",
                    "midi": 72,
                    "time": 124.48883491666648,
                    "velocity": 0.6850393700787402,
                    "duration": 0.03932054166666887
                },
                {
                    "name": "B4",
                    "midi": 71,
                    "time": 124.52815545833315,
                    "velocity": 0.7244094488188977,
                    "duration": 0.03932054166666887
                },
                {
                    "name": "A#4",
                    "midi": 70,
                    "time": 124.56747599999981,
                    "velocity": 0.8188976377952756,
                    "duration": 0.8257313750000037
                },
                {
                    "name": "B4",
                    "midi": 71,
                    "time": 125.39320737499982,
                    "velocity": 0.7244094488188977,
                    "duration": 0.11796162500000662
                },
                {
                    "name": "A#4",
                    "midi": 70,
                    "time": 125.51116899999982,
                    "velocity": 0.8110236220472441,
                    "duration": 1.7694243749999998
                },
                {
                    "name": "E5",
                    "midi": 76,
                    "time": 127.24127283333316,
                    "velocity": 0.6456692913385826,
                    "duration": 0.03932054166666887
                },
                {
                    "name": "D5",
                    "midi": 74,
                    "time": 127.28059337499982,
                    "velocity": 0.6692913385826772,
                    "duration": 0.03932054166666887
                },
                {
                    "name": "C#5",
                    "midi": 73,
                    "time": 127.3199139166665,
                    "velocity": 0.6850393700787402,
                    "duration": 0.03932054166666887
                },
                {
                    "name": "B4",
                    "midi": 71,
                    "time": 127.35923445833316,
                    "velocity": 0.7244094488188977,
                    "duration": 0.03932054166666887
                },
                {
                    "name": "A#4",
                    "midi": 70,
                    "time": 127.39855499999983,
                    "velocity": 0.7401574803149606,
                    "duration": 0.8257313749999895
                },
                {
                    "name": "B4",
                    "midi": 71,
                    "time": 128.18496583333317,
                    "velocity": 0.6456692913385826,
                    "duration": 0.03932054166665466
                },
                {
                    "name": "A#4",
                    "midi": 70,
                    "time": 128.22428637499982,
                    "velocity": 0.6692913385826772,
                    "duration": 0.03932054166665466
                },
                {
                    "name": "A4",
                    "midi": 69,
                    "time": 128.26360691666648,
                    "velocity": 0.6850393700787402,
                    "duration": 0.03932054166665466
                },
                {
                    "name": "G#4",
                    "midi": 68,
                    "time": 128.30292745833313,
                    "velocity": 0.7244094488188977,
                    "duration": 0.03932054166665466
                },
                {
                    "name": "G4",
                    "midi": 67,
                    "time": 128.34224799999978,
                    "velocity": 0.7401574803149606,
                    "duration": 0.8257313749999753
                },
                {
                    "name": "C#5",
                    "midi": 73,
                    "time": 129.1286588333331,
                    "velocity": 0.6456692913385826,
                    "duration": 0.03932054166665466
                },
                {
                    "name": "B4",
                    "midi": 71,
                    "time": 129.16797937499976,
                    "velocity": 0.6692913385826772,
                    "duration": 0.03932054166665466
                },
                {
                    "name": "A#4",
                    "midi": 70,
                    "time": 129.20729991666641,
                    "velocity": 0.6850393700787402,
                    "duration": 0.03932054166665466
                },
                {
                    "name": "G#4",
                    "midi": 68,
                    "time": 129.24662045833307,
                    "velocity": 0.7244094488188977,
                    "duration": 0.03932054166665466
                },
                {
                    "name": "G4",
                    "midi": 67,
                    "time": 129.28594099999972,
                    "velocity": 0.8110236220472441,
                    "duration": 1.2975778750000018
                },
                {
                    "name": "C#4",
                    "midi": 61,
                    "time": 130.54419833333307,
                    "velocity": 0.6456692913385826,
                    "duration": 0.03932054166665466
                },
                {
                    "name": "D#4",
                    "midi": 63,
                    "time": 130.58351887499973,
                    "velocity": 0.6692913385826772,
                    "duration": 0.03932054166665466
                },
                {
                    "name": "E4",
                    "midi": 64,
                    "time": 130.62283941666638,
                    "velocity": 0.6850393700787402,
                    "duration": 0.03932054166665466
                },
                {
                    "name": "F#4",
                    "midi": 66,
                    "time": 130.66215995833304,
                    "velocity": 0.7244094488188977,
                    "duration": 0.03932054166665466
                },
                {
                    "name": "G4",
                    "midi": 67,
                    "time": 130.7014804999997,
                    "velocity": 0.7874015748031497,
                    "duration": 1.258257333333347
                },
                {
                    "name": "F#4",
                    "midi": 66,
                    "time": 131.95973783333304,
                    "velocity": 0.5354330708661418,
                    "duration": 0.07864108333333775
                },
                {
                    "name": "F4",
                    "midi": 65,
                    "time": 132.03837891666637,
                    "velocity": 0.5354330708661418,
                    "duration": 0.07864108333333775
                },
                {
                    "name": "A3",
                    "midi": 57,
                    "time": 132.1170199999997,
                    "velocity": 0.5354330708661418,
                    "duration": 0.9436929999999961
                },
                {
                    "name": "C#4",
                    "midi": 61,
                    "time": 132.1170199999997,
                    "velocity": 0.5354330708661418,
                    "duration": 0.9436929999999961
                },
                {
                    "name": "E4",
                    "midi": 64,
                    "time": 132.1170199999997,
                    "velocity": 0.6299212598425197,
                    "duration": 0.9436929999999961
                },
                {
                    "name": "E4",
                    "midi": 64,
                    "time": 133.0607129999997,
                    "velocity": 0.5748031496062992,
                    "duration": 0.9436929999999961
                },
                {
                    "name": "C#4",
                    "midi": 61,
                    "time": 133.0607129999997,
                    "velocity": 0.4881889763779528,
                    "duration": 0.9436929999999961
                },
                {
                    "name": "E3",
                    "midi": 52,
                    "time": 133.0607129999997,
                    "velocity": 0.4881889763779528,
                    "duration": 0.9436929999999961
                },
                {
                    "name": "A3",
                    "midi": 57,
                    "time": 133.0607129999997,
                    "velocity": 0.4881889763779528,
                    "duration": 0.9436929999999961
                },
                {
                    "name": "E4",
                    "midi": 64,
                    "time": 134.0044059999997,
                    "velocity": 0.6220472440944882,
                    "duration": 0.9436929999999961
                },
                {
                    "name": "A3",
                    "midi": 57,
                    "time": 134.0044059999997,
                    "velocity": 0.5275590551181102,
                    "duration": 0.9436929999999961
                },
                {
                    "name": "C4",
                    "midi": 60,
                    "time": 134.0044059999997,
                    "velocity": 0.5275590551181102,
                    "duration": 0.9436929999999961
                },
                {
                    "name": "E3",
                    "midi": 52,
                    "time": 134.0044059999997,
                    "velocity": 0.5275590551181102,
                    "duration": 0.9436929999999961
                },
                {
                    "name": "E4",
                    "midi": 64,
                    "time": 134.9480989999997,
                    "velocity": 0.6299212598425197,
                    "duration": 0.9436929999999961
                },
                {
                    "name": "A3",
                    "midi": 57,
                    "time": 134.9480989999997,
                    "velocity": 0.5354330708661418,
                    "duration": 0.9436929999999961
                },
                {
                    "name": "C4",
                    "midi": 60,
                    "time": 134.9480989999997,
                    "velocity": 0.5354330708661418,
                    "duration": 0.9436929999999961
                },
                {
                    "name": "E3",
                    "midi": 52,
                    "time": 134.9480989999997,
                    "velocity": 0.5354330708661418,
                    "duration": 0.9436929999999961
                },
                {
                    "name": "F4",
                    "midi": 65,
                    "time": 136.20635633333302,
                    "velocity": 0.48031496062992124,
                    "duration": 0.1572821666666755
                },
                {
                    "name": "A4",
                    "midi": 69,
                    "time": 136.20635633333302,
                    "velocity": 0.48031496062992124,
                    "duration": 0.1572821666666755
                },
                {
                    "name": "F5",
                    "midi": 77,
                    "time": 136.20635633333302,
                    "velocity": 0.48031496062992124,
                    "duration": 0.1572821666666755
                },
                {
                    "name": "E4",
                    "midi": 64,
                    "time": 136.3636384999997,
                    "velocity": 0.5275590551181102,
                    "duration": 0.47184649999999806
                },
                {
                    "name": "C#5",
                    "midi": 73,
                    "time": 136.3636384999997,
                    "velocity": 0.5275590551181102,
                    "duration": 0.47184649999999806
                },
                {
                    "name": "E5",
                    "midi": 76,
                    "time": 136.3636384999997,
                    "velocity": 0.5275590551181102,
                    "duration": 0.47184649999999806
                },
                {
                    "name": "F5",
                    "midi": 77,
                    "time": 137.15004933333302,
                    "velocity": 0.4881889763779528,
                    "duration": 0.1572821666666755
                },
                {
                    "name": "A4",
                    "midi": 69,
                    "time": 137.15004933333302,
                    "velocity": 0.4881889763779528,
                    "duration": 0.1572821666666755
                },
                {
                    "name": "F4",
                    "midi": 65,
                    "time": 137.15004933333302,
                    "velocity": 0.4881889763779528,
                    "duration": 0.1572821666666755
                },
                {
                    "name": "E5",
                    "midi": 76,
                    "time": 137.3073314999997,
                    "velocity": 0.5433070866141733,
                    "duration": 0.47184649999999806
                },
                {
                    "name": "C#5",
                    "midi": 73,
                    "time": 137.3073314999997,
                    "velocity": 0.5433070866141733,
                    "duration": 0.47184649999999806
                },
                {
                    "name": "E4",
                    "midi": 64,
                    "time": 137.3073314999997,
                    "velocity": 0.5433070866141733,
                    "duration": 0.47184649999999806
                },
                {
                    "name": "F5",
                    "midi": 77,
                    "time": 138.093742333333,
                    "velocity": 0.5511811023622047,
                    "duration": 0.1572821666666755
                },
                {
                    "name": "A4",
                    "midi": 69,
                    "time": 138.093742333333,
                    "velocity": 0.5511811023622047,
                    "duration": 0.1572821666666755
                },
                {
                    "name": "F4",
                    "midi": 65,
                    "time": 138.093742333333,
                    "velocity": 0.5511811023622047,
                    "duration": 0.1572821666666755
                },
                {
                    "name": "E5",
                    "midi": 76,
                    "time": 138.2510244999997,
                    "velocity": 0.6062992125984252,
                    "duration": 0.47184649999999806
                },
                {
                    "name": "C#5",
                    "midi": 73,
                    "time": 138.2510244999997,
                    "velocity": 0.6062992125984252,
                    "duration": 0.47184649999999806
                },
                {
                    "name": "E4",
                    "midi": 64,
                    "time": 138.2510244999997,
                    "velocity": 0.6062992125984252,
                    "duration": 0.47184649999999806
                },
                {
                    "name": "F5",
                    "midi": 77,
                    "time": 139.037435333333,
                    "velocity": 0.5748031496062992,
                    "duration": 0.1572821666666755
                },
                {
                    "name": "A4",
                    "midi": 69,
                    "time": 139.037435333333,
                    "velocity": 0.5748031496062992,
                    "duration": 0.1572821666666755
                },
                {
                    "name": "F4",
                    "midi": 65,
                    "time": 139.037435333333,
                    "velocity": 0.5748031496062992,
                    "duration": 0.1572821666666755
                },
                {
                    "name": "E4",
                    "midi": 64,
                    "time": 139.19471749999968,
                    "velocity": 0.6771653543307087,
                    "duration": 0.47184649999999806
                },
                {
                    "name": "C#5",
                    "midi": 73,
                    "time": 139.19471749999968,
                    "velocity": 0.6771653543307087,
                    "duration": 0.47184649999999806
                },
                {
                    "name": "E5",
                    "midi": 76,
                    "time": 139.19471749999968,
                    "velocity": 0.6771653543307087,
                    "duration": 0.47184649999999806
                },
                {
                    "name": "C#4",
                    "midi": 61,
                    "time": 139.66656399999968,
                    "velocity": 0.6771653543307087,
                    "duration": 3.774772000000212
                },
                {
                    "name": "F5",
                    "midi": 77,
                    "time": 139.9024872499997,
                    "velocity": 0.5511811023622047,
                    "duration": 0.23592325000001324
                },
                {
                    "name": "C#5",
                    "midi": 73,
                    "time": 139.9024872499997,
                    "velocity": 0.4645669291338583,
                    "duration": 0.23592325000001324
                },
                {
                    "name": "A4",
                    "midi": 69,
                    "time": 139.9024872499997,
                    "velocity": 0.4645669291338583,
                    "duration": 0.23592325000001324
                },
                {
                    "name": "E5",
                    "midi": 76,
                    "time": 140.1384104999997,
                    "velocity": 0.5590551181102362,
                    "duration": 0.23592325000001324
                },
                {
                    "name": "C#5",
                    "midi": 73,
                    "time": 140.1384104999997,
                    "velocity": 0.47244094488188976,
                    "duration": 0.23592325000001324
                },
                {
                    "name": "G#4",
                    "midi": 68,
                    "time": 140.1384104999997,
                    "velocity": 0.47244094488188976,
                    "duration": 0.23592325000001324
                },
                {
                    "name": "F5",
                    "midi": 77,
                    "time": 140.37433374999972,
                    "velocity": 0.5669291338582677,
                    "duration": 0.23592325000001324
                },
                {
                    "name": "C#5",
                    "midi": 73,
                    "time": 140.37433374999972,
                    "velocity": 0.48031496062992124,
                    "duration": 0.23592325000001324
                },
                {
                    "name": "A4",
                    "midi": 69,
                    "time": 140.37433374999972,
                    "velocity": 0.48031496062992124,
                    "duration": 0.23592325000001324
                },
                {
                    "name": "E5",
                    "midi": 76,
                    "time": 140.61025699999973,
                    "velocity": 0.5669291338582677,
                    "duration": 0.23592325000001324
                },
                {
                    "name": "C#5",
                    "midi": 73,
                    "time": 140.61025699999973,
                    "velocity": 0.48031496062992124,
                    "duration": 0.23592325000001324
                },
                {
                    "name": "G#4",
                    "midi": 68,
                    "time": 140.61025699999973,
                    "velocity": 0.48031496062992124,
                    "duration": 0.23592325000001324
                },
                {
                    "name": "F5",
                    "midi": 77,
                    "time": 140.84618024999975,
                    "velocity": 0.5669291338582677,
                    "duration": 0.23592325000001324
                },
                {
                    "name": "C#5",
                    "midi": 73,
                    "time": 140.84618024999975,
                    "velocity": 0.48031496062992124,
                    "duration": 0.23592325000001324
                },
                {
                    "name": "A4",
                    "midi": 69,
                    "time": 140.84618024999975,
                    "velocity": 0.48031496062992124,
                    "duration": 0.23592325000001324
                },
                {
                    "name": "E5",
                    "midi": 76,
                    "time": 141.08210349999976,
                    "velocity": 0.5669291338582677,
                    "duration": 0.23592325000001324
                },
                {
                    "name": "C#5",
                    "midi": 73,
                    "time": 141.08210349999976,
                    "velocity": 0.48031496062992124,
                    "duration": 0.23592325000001324
                },
                {
                    "name": "G#4",
                    "midi": 68,
                    "time": 141.08210349999976,
                    "velocity": 0.48031496062992124,
                    "duration": 0.23592325000001324
                },
                {
                    "name": "F5",
                    "midi": 77,
                    "time": 141.31802674999977,
                    "velocity": 0.5669291338582677,
                    "duration": 0.23592325000001324
                },
                {
                    "name": "C#5",
                    "midi": 73,
                    "time": 141.31802674999977,
                    "velocity": 0.48031496062992124,
                    "duration": 0.23592325000001324
                },
                {
                    "name": "A4",
                    "midi": 69,
                    "time": 141.31802674999977,
                    "velocity": 0.48031496062992124,
                    "duration": 0.23592325000001324
                },
                {
                    "name": "E5",
                    "midi": 76,
                    "time": 141.5539499999998,
                    "velocity": 0.5669291338582677,
                    "duration": 0.23592325000001324
                },
                {
                    "name": "C#5",
                    "midi": 73,
                    "time": 141.5539499999998,
                    "velocity": 0.48031496062992124,
                    "duration": 0.23592325000001324
                },
                {
                    "name": "G#4",
                    "midi": 68,
                    "time": 141.5539499999998,
                    "velocity": 0.48031496062992124,
                    "duration": 0.23592325000001324
                },
                {
                    "name": "F6",
                    "midi": 89,
                    "time": 141.7898732499998,
                    "velocity": 0.5984251968503937,
                    "duration": 0.23592325000001324
                },
                {
                    "name": "F5",
                    "midi": 77,
                    "time": 141.7898732499998,
                    "velocity": 0.5039370078740157,
                    "duration": 0.23592325000001324
                },
                {
                    "name": "A5",
                    "midi": 81,
                    "time": 141.7898732499998,
                    "velocity": 0.5039370078740157,
                    "duration": 0.23592325000001324
                },
                {
                    "name": "E5",
                    "midi": 76,
                    "time": 142.0257964999998,
                    "velocity": 0.4881889763779528,
                    "duration": 0.23592325000001324
                },
                {
                    "name": "C#6",
                    "midi": 85,
                    "time": 142.0257964999998,
                    "velocity": 0.4881889763779528,
                    "duration": 0.23592325000001324
                },
                {
                    "name": "E6",
                    "midi": 88,
                    "time": 142.0257964999998,
                    "velocity": 0.5826771653543307,
                    "duration": 0.23592325000001324
                },
                {
                    "name": "A5",
                    "midi": 81,
                    "time": 142.26171974999983,
                    "velocity": 0.49606299212598426,
                    "duration": 0.23592325000001324
                },
                {
                    "name": "F5",
                    "midi": 77,
                    "time": 142.26171974999983,
                    "velocity": 0.49606299212598426,
                    "duration": 0.23592325000001324
                },
                {
                    "name": "F6",
                    "midi": 89,
                    "time": 142.26171974999983,
                    "velocity": 0.5905511811023622,
                    "duration": 0.23592325000001324
                },
                {
                    "name": "E5",
                    "midi": 76,
                    "time": 142.49764299999984,
                    "velocity": 0.5196850393700787,
                    "duration": 0.23592325000001324
                },
                {
                    "name": "C#6",
                    "midi": 85,
                    "time": 142.49764299999984,
                    "velocity": 0.5196850393700787,
                    "duration": 0.23592325000001324
                },
                {
                    "name": "E6",
                    "midi": 88,
                    "time": 142.49764299999984,
                    "velocity": 0.6141732283464567,
                    "duration": 0.23592325000001324
                },
                {
                    "name": "A5",
                    "midi": 81,
                    "time": 142.73356624999985,
                    "velocity": 0.5511811023622047,
                    "duration": 0.23592325000001324
                },
                {
                    "name": "F5",
                    "midi": 77,
                    "time": 142.73356624999985,
                    "velocity": 0.5511811023622047,
                    "duration": 0.23592325000001324
                },
                {
                    "name": "F6",
                    "midi": 89,
                    "time": 142.73356624999985,
                    "velocity": 0.6535433070866141,
                    "duration": 0.23592325000001324
                },
                {
                    "name": "E6",
                    "midi": 88,
                    "time": 142.96948949999987,
                    "velocity": 0.6614173228346457,
                    "duration": 0.23592325000001324
                },
                {
                    "name": "C#6",
                    "midi": 85,
                    "time": 142.96948949999987,
                    "velocity": 0.5590551181102362,
                    "duration": 0.23592325000001324
                },
                {
                    "name": "E5",
                    "midi": 76,
                    "time": 142.96948949999987,
                    "velocity": 0.5590551181102362,
                    "duration": 0.23592325000001324
                },
                {
                    "name": "F6",
                    "midi": 89,
                    "time": 143.20541274999988,
                    "velocity": 0.6771653543307087,
                    "duration": 0.23592325000001324
                },
                {
                    "name": "F5",
                    "midi": 77,
                    "time": 143.20541274999988,
                    "velocity": 0.5748031496062992,
                    "duration": 0.23592325000001324
                },
                {
                    "name": "A5",
                    "midi": 81,
                    "time": 143.20541274999988,
                    "velocity": 0.5748031496062992,
                    "duration": 0.23592325000001324
                },
                {
                    "name": "E5",
                    "midi": 76,
                    "time": 143.6772592499999,
                    "velocity": 0.5118110236220472,
                    "duration": 0.23592325000001324
                },
                {
                    "name": "G#5",
                    "midi": 80,
                    "time": 143.6772592499999,
                    "velocity": 0.5118110236220472,
                    "duration": 0.23592325000001324
                },
                {
                    "name": "C#6",
                    "midi": 85,
                    "time": 143.6772592499999,
                    "velocity": 0.5118110236220472,
                    "duration": 0.23592325000001324
                },
                {
                    "name": "E6",
                    "midi": 88,
                    "time": 143.6772592499999,
                    "velocity": 0.6062992125984252,
                    "duration": 0.23592325000001324
                },
                {
                    "name": "E5",
                    "midi": 76,
                    "time": 143.91318249999992,
                    "velocity": 0.5511811023622047,
                    "duration": 0.23592325000001324
                },
                {
                    "name": "G#5",
                    "midi": 80,
                    "time": 143.91318249999992,
                    "velocity": 0.5511811023622047,
                    "duration": 0.23592325000001324
                },
                {
                    "name": "C#6",
                    "midi": 85,
                    "time": 143.91318249999992,
                    "velocity": 0.5511811023622047,
                    "duration": 0.23592325000001324
                },
                {
                    "name": "E6",
                    "midi": 88,
                    "time": 143.91318249999992,
                    "velocity": 0.6456692913385826,
                    "duration": 0.23592325000001324
                },
                {
                    "name": "E6",
                    "midi": 88,
                    "time": 144.14910574999993,
                    "velocity": 0.6929133858267716,
                    "duration": 0.23592325000001324
                },
                {
                    "name": "C#6",
                    "midi": 85,
                    "time": 144.14910574999993,
                    "velocity": 0.5826771653543307,
                    "duration": 0.23592325000001324
                },
                {
                    "name": "G#5",
                    "midi": 80,
                    "time": 144.14910574999993,
                    "velocity": 0.5826771653543307,
                    "duration": 0.23592325000001324
                },
                {
                    "name": "E5",
                    "midi": 76,
                    "time": 144.14910574999993,
                    "velocity": 0.5826771653543307,
                    "duration": 0.23592325000001324
                },
                {
                    "name": "E5",
                    "midi": 76,
                    "time": 144.38502899999995,
                    "velocity": 0.6220472440944882,
                    "duration": 0.1572821666666755
                },
                {
                    "name": "G#5",
                    "midi": 80,
                    "time": 144.38502899999995,
                    "velocity": 0.6220472440944882,
                    "duration": 0.1572821666666755
                },
                {
                    "name": "C#6",
                    "midi": 85,
                    "time": 144.38502899999995,
                    "velocity": 0.6220472440944882,
                    "duration": 0.1572821666666755
                },
                {
                    "name": "E6",
                    "midi": 88,
                    "time": 144.38502899999995,
                    "velocity": 0.7322834645669292,
                    "duration": 0.1572821666666755
                },
                {
                    "name": "E5",
                    "midi": 76,
                    "time": 144.54231116666662,
                    "velocity": 0.6456692913385826,
                    "duration": 0.1572821666666755
                },
                {
                    "name": "G#5",
                    "midi": 80,
                    "time": 144.54231116666662,
                    "velocity": 0.6456692913385826,
                    "duration": 0.1572821666666755
                },
                {
                    "name": "C#6",
                    "midi": 85,
                    "time": 144.54231116666662,
                    "velocity": 0.6456692913385826,
                    "duration": 0.1572821666666755
                },
                {
                    "name": "E6",
                    "midi": 88,
                    "time": 144.54231116666662,
                    "velocity": 0.7637795275590551,
                    "duration": 0.1572821666666755
                },
                {
                    "name": "E5",
                    "midi": 76,
                    "time": 144.6995933333333,
                    "velocity": 0.6692913385826772,
                    "duration": 0.1572821666666755
                },
                {
                    "name": "G#5",
                    "midi": 80,
                    "time": 144.6995933333333,
                    "velocity": 0.6692913385826772,
                    "duration": 0.1572821666666755
                },
                {
                    "name": "C#6",
                    "midi": 85,
                    "time": 144.6995933333333,
                    "velocity": 0.6692913385826772,
                    "duration": 0.1572821666666755
                },
                {
                    "name": "E6",
                    "midi": 88,
                    "time": 144.6995933333333,
                    "velocity": 0.7952755905511811,
                    "duration": 0.1572821666666755
                },
                {
                    "name": "E5",
                    "midi": 76,
                    "time": 144.85687549999997,
                    "velocity": 0.6771653543307087,
                    "duration": 0.1572821666666755
                },
                {
                    "name": "G#5",
                    "midi": 80,
                    "time": 144.85687549999997,
                    "velocity": 0.6771653543307087,
                    "duration": 0.1572821666666755
                },
                {
                    "name": "C#6",
                    "midi": 85,
                    "time": 144.85687549999997,
                    "velocity": 0.6771653543307087,
                    "duration": 0.1572821666666755
                },
                {
                    "name": "E6",
                    "midi": 88,
                    "time": 144.85687549999997,
                    "velocity": 0.8031496062992126,
                    "duration": 0.1572821666666755
                },
                {
                    "name": "E5",
                    "midi": 76,
                    "time": 145.01415766666665,
                    "velocity": 0.7086614173228346,
                    "duration": 0.1572821666666755
                },
                {
                    "name": "G#5",
                    "midi": 80,
                    "time": 145.01415766666665,
                    "velocity": 0.7086614173228346,
                    "duration": 0.1572821666666755
                },
                {
                    "name": "C#6",
                    "midi": 85,
                    "time": 145.01415766666665,
                    "velocity": 0.7086614173228346,
                    "duration": 0.1572821666666755
                },
                {
                    "name": "E6",
                    "midi": 88,
                    "time": 145.01415766666665,
                    "velocity": 0.8346456692913385,
                    "duration": 0.1572821666666755
                },
                {
                    "name": "E5",
                    "midi": 76,
                    "time": 145.17143983333332,
                    "velocity": 0.7322834645669292,
                    "duration": 0.1572821666666755
                },
                {
                    "name": "G#5",
                    "midi": 80,
                    "time": 145.17143983333332,
                    "velocity": 0.7322834645669292,
                    "duration": 0.1572821666666755
                },
                {
                    "name": "C#6",
                    "midi": 85,
                    "time": 145.17143983333332,
                    "velocity": 0.7322834645669292,
                    "duration": 0.1572821666666755
                },
                {
                    "name": "E6",
                    "midi": 88,
                    "time": 145.17143983333332,
                    "velocity": 0.8740157480314961,
                    "duration": 0.1572821666666755
                },
                {
                    "name": "C#6",
                    "midi": 85,
                    "time": 145.328722,
                    "velocity": 0.8740157480314961,
                    "duration": 1.8873859999999922
                },
                {
                    "name": "C#7",
                    "midi": 97,
                    "time": 145.328722,
                    "velocity": 1,
                    "duration": 1.8873859999999922
                }
            ],
            "controlChanges": {},
            "id": 1,
            "name": "Piano right",
            "instrumentNumber": 0,
            "instrument": "acoustic grand piano",
            "instrumentFamily": "piano",
            "channelNumber": 0,
            "isPercussion": false
        },
        {
            "startTime": 0,
            "duration": 147.21610799999922,
            "length": 740,
            "notes": [
                {
                    "name": "C#3",
                    "midi": 49,
                    "time": 0,
                    "velocity": 0.7086614173228346,
                    "duration": 1.769424375
                },
                {
                    "name": "C#2",
                    "midi": 37,
                    "time": 0,
                    "velocity": 0.6062992125984252,
                    "duration": 1.769424375
                },
                {
                    "name": "E3",
                    "midi": 52,
                    "time": 0.9299308104166667,
                    "velocity": 0.5433070866141733,
                    "duration": 0.943693
                },
                {
                    "name": "E4",
                    "midi": 64,
                    "time": 0.93779491875,
                    "velocity": 0.6456692913385826,
                    "duration": 0.943693
                },
                {
                    "name": "G#3",
                    "midi": 56,
                    "time": 0.943693,
                    "velocity": 0.5433070866141733,
                    "duration": 0.943693
                },
                {
                    "name": "D#2",
                    "midi": 39,
                    "time": 1.769424375,
                    "velocity": 0.6220472440944882,
                    "duration": 0.11796162499999996
                },
                {
                    "name": "D#1",
                    "midi": 27,
                    "time": 1.769424375,
                    "velocity": 0.5196850393700787,
                    "duration": 0.11796162499999996
                },
                {
                    "name": "G2",
                    "midi": 43,
                    "time": 1.887386,
                    "velocity": 0.6929133858267716,
                    "duration": 0.9436929999999999
                },
                {
                    "name": "G1",
                    "midi": 31,
                    "time": 1.887386,
                    "velocity": 0.5826771653543307,
                    "duration": 0.9436929999999999
                },
                {
                    "name": "C#4",
                    "midi": 61,
                    "time": 2.3592325,
                    "velocity": 0.6614173228346457,
                    "duration": 0.47184649999999984
                },
                {
                    "name": "B3",
                    "midi": 59,
                    "time": 2.3592325,
                    "velocity": 0.5511811023622047,
                    "duration": 0.47184649999999984
                },
                {
                    "name": "E3",
                    "midi": 52,
                    "time": 2.3592325,
                    "velocity": 0.5511811023622047,
                    "duration": 0.47184649999999984
                },
                {
                    "name": "C#3",
                    "midi": 49,
                    "time": 2.3592325,
                    "velocity": 0.5511811023622047,
                    "duration": 0.47184649999999984
                },
                {
                    "name": "F#3",
                    "midi": 54,
                    "time": 3.774772,
                    "velocity": 0.7086614173228346,
                    "duration": 1.7694243750000003
                },
                {
                    "name": "F#2",
                    "midi": 42,
                    "time": 3.774772,
                    "velocity": 0.6062992125984252,
                    "duration": 1.7694243750000003
                },
                {
                    "name": "A4",
                    "midi": 69,
                    "time": 4.718465,
                    "velocity": 0.6456692913385826,
                    "duration": 0.9436930000000006
                },
                {
                    "name": "A3",
                    "midi": 57,
                    "time": 4.718465,
                    "velocity": 0.5433070866141733,
                    "duration": 0.9436930000000006
                },
                {
                    "name": "C#4",
                    "midi": 61,
                    "time": 4.718465,
                    "velocity": 0.5433070866141733,
                    "duration": 0.9436930000000006
                },
                {
                    "name": "G#2",
                    "midi": 44,
                    "time": 5.544196375,
                    "velocity": 0.6220472440944882,
                    "duration": 0.1179616250000004
                },
                {
                    "name": "G#1",
                    "midi": 32,
                    "time": 5.544196375,
                    "velocity": 0.5196850393700787,
                    "duration": 0.1179616250000004
                },
                {
                    "name": "C3",
                    "midi": 48,
                    "time": 5.662158000000001,
                    "velocity": 0.6929133858267716,
                    "duration": 0.9436929999999997
                },
                {
                    "name": "C2",
                    "midi": 36,
                    "time": 5.662158000000001,
                    "velocity": 0.5826771653543307,
                    "duration": 0.9436929999999997
                },
                {
                    "name": "F#4",
                    "midi": 66,
                    "time": 6.1340045000000005,
                    "velocity": 0.6614173228346457,
                    "duration": 0.47184649999999984
                },
                {
                    "name": "E4",
                    "midi": 64,
                    "time": 6.1340045000000005,
                    "velocity": 0.5511811023622047,
                    "duration": 0.47184649999999984
                },
                {
                    "name": "A3",
                    "midi": 57,
                    "time": 6.1340045000000005,
                    "velocity": 0.5511811023622047,
                    "duration": 0.47184649999999984
                },
                {
                    "name": "F#3",
                    "midi": 54,
                    "time": 6.1340045000000005,
                    "velocity": 0.5511811023622047,
                    "duration": 0.47184649999999984
                },
                {
                    "name": "E3",
                    "midi": 52,
                    "time": 7.549544,
                    "velocity": 0.7480314960629921,
                    "duration": 1.8873860000000002
                },
                {
                    "name": "E4",
                    "midi": 64,
                    "time": 7.549544,
                    "velocity": 0.7480314960629921,
                    "duration": 1.8873860000000002
                },
                {
                    "name": "A#3",
                    "midi": 58,
                    "time": 8.493237,
                    "velocity": 0.5275590551181102,
                    "duration": 0.9436929999999997
                },
                {
                    "name": "G#3",
                    "midi": 56,
                    "time": 8.493237,
                    "velocity": 0.5275590551181102,
                    "duration": 0.9436929999999997
                },
                {
                    "name": "C#4",
                    "midi": 61,
                    "time": 8.493237,
                    "velocity": 0.5275590551181102,
                    "duration": 0.9436929999999997
                },
                {
                    "name": "G#4",
                    "midi": 68,
                    "time": 8.493237,
                    "velocity": 0.6141732283464567,
                    "duration": 0.9436929999999997
                },
                {
                    "name": "D#2",
                    "midi": 39,
                    "time": 9.43693,
                    "velocity": 0.7480314960629921,
                    "duration": 1.8873859999999993
                },
                {
                    "name": "D#3",
                    "midi": 51,
                    "time": 9.43693,
                    "velocity": 0.7480314960629921,
                    "duration": 1.8873859999999993
                },
                {
                    "name": "C4",
                    "midi": 60,
                    "time": 10.380623,
                    "velocity": 0.5433070866141733,
                    "duration": 0.9436929999999997
                },
                {
                    "name": "G#3",
                    "midi": 56,
                    "time": 10.380623,
                    "velocity": 0.5433070866141733,
                    "duration": 0.9436929999999997
                },
                {
                    "name": "F#3",
                    "midi": 54,
                    "time": 10.380623,
                    "velocity": 0.5433070866141733,
                    "duration": 0.9436929999999997
                },
                {
                    "name": "F#4",
                    "midi": 66,
                    "time": 10.380623,
                    "velocity": 0.6456692913385826,
                    "duration": 0.9436929999999997
                },
                {
                    "name": "C#2",
                    "midi": 37,
                    "time": 11.324316,
                    "velocity": 0.7480314960629921,
                    "duration": 1.8873859999999993
                },
                {
                    "name": "C#3",
                    "midi": 49,
                    "time": 11.324316,
                    "velocity": 0.7480314960629921,
                    "duration": 1.8873859999999993
                },
                {
                    "name": "G#3",
                    "midi": 56,
                    "time": 11.7961625,
                    "velocity": 0.5669291338582677,
                    "duration": 1.4155394999999995
                },
                {
                    "name": "E3",
                    "midi": 52,
                    "time": 11.7961625,
                    "velocity": 0.5669291338582677,
                    "duration": 1.4155394999999995
                },
                {
                    "name": "C#4",
                    "midi": 61,
                    "time": 11.7961625,
                    "velocity": 0.5669291338582677,
                    "duration": 1.4155394999999995
                },
                {
                    "name": "E4",
                    "midi": 64,
                    "time": 11.7961625,
                    "velocity": 0.6771653543307087,
                    "duration": 1.4155394999999995
                },
                {
                    "name": "C#2",
                    "midi": 37,
                    "time": 13.91947175,
                    "velocity": 0.6062992125984252,
                    "duration": 0.2359232500000008
                },
                {
                    "name": "C#1",
                    "midi": 25,
                    "time": 13.91947175,
                    "velocity": 0.6062992125984252,
                    "duration": 0.2359232500000008
                },
                {
                    "name": "G#3",
                    "midi": 56,
                    "time": 14.155395,
                    "velocity": 0.6850393700787402,
                    "duration": 0.1572821666666666
                },
                {
                    "name": "G#2",
                    "midi": 44,
                    "time": 14.155395,
                    "velocity": 0.6850393700787402,
                    "duration": 0.1572821666666666
                },
                {
                    "name": "C#3",
                    "midi": 49,
                    "time": 14.312677166666667,
                    "velocity": 0.49606299212598426,
                    "duration": 0.1572821666666666
                },
                {
                    "name": "G#2",
                    "midi": 44,
                    "time": 14.469959333333334,
                    "velocity": 0.5433070866141733,
                    "duration": 0.1572821666666666
                },
                {
                    "name": "C#2",
                    "midi": 37,
                    "time": 14.6272415,
                    "velocity": 0.5433070866141733,
                    "duration": 0.1572821666666666
                },
                {
                    "name": "C#1",
                    "midi": 25,
                    "time": 14.784523666666667,
                    "velocity": 0.4881889763779528,
                    "duration": 0.1572821666666666
                },
                {
                    "name": "G#2",
                    "midi": 44,
                    "time": 14.941805833333333,
                    "velocity": 0.5433070866141733,
                    "duration": 0.1572821666666666
                },
                {
                    "name": "G#3",
                    "midi": 56,
                    "time": 15.099088,
                    "velocity": 0.6299212598425197,
                    "duration": 0.1572821666666666
                },
                {
                    "name": "C#3",
                    "midi": 49,
                    "time": 15.256370166666667,
                    "velocity": 0.49606299212598426,
                    "duration": 0.1572821666666666
                },
                {
                    "name": "G#2",
                    "midi": 44,
                    "time": 15.413652333333333,
                    "velocity": 0.5354330708661418,
                    "duration": 0.1572821666666666
                },
                {
                    "name": "C#2",
                    "midi": 37,
                    "time": 15.5709345,
                    "velocity": 0.5433070866141733,
                    "duration": 0.1572821666666666
                },
                {
                    "name": "C#1",
                    "midi": 25,
                    "time": 15.728216666666667,
                    "velocity": 0.4881889763779528,
                    "duration": 0.1572821666666666
                },
                {
                    "name": "G#2",
                    "midi": 44,
                    "time": 15.885498833333333,
                    "velocity": 0.5669291338582677,
                    "duration": 0.1572821666666684
                },
                {
                    "name": "G#3",
                    "midi": 56,
                    "time": 16.042781,
                    "velocity": 0.6692913385826772,
                    "duration": 0.1572821666666684
                },
                {
                    "name": "C#3",
                    "midi": 49,
                    "time": 16.20006316666667,
                    "velocity": 0.5275590551181102,
                    "duration": 0.1572821666666684
                },
                {
                    "name": "G#2",
                    "midi": 44,
                    "time": 16.35734533333334,
                    "velocity": 0.5826771653543307,
                    "duration": 0.1572821666666684
                },
                {
                    "name": "C#2",
                    "midi": 37,
                    "time": 16.514627500000007,
                    "velocity": 0.5905511811023622,
                    "duration": 0.1572821666666684
                },
                {
                    "name": "C#1",
                    "midi": 25,
                    "time": 16.671909666666675,
                    "velocity": 0.5196850393700787,
                    "duration": 0.1572821666666684
                },
                {
                    "name": "G#2",
                    "midi": 44,
                    "time": 16.829191833333343,
                    "velocity": 0.6062992125984252,
                    "duration": 0.1572821666666684
                },
                {
                    "name": "G#3",
                    "midi": 56,
                    "time": 16.986474000000012,
                    "velocity": 0.6535433070866141,
                    "duration": 0.1572821666666684
                },
                {
                    "name": "C#3",
                    "midi": 49,
                    "time": 17.14375616666668,
                    "velocity": 0.5039370078740157,
                    "duration": 0.1572821666666684
                },
                {
                    "name": "G#2",
                    "midi": 44,
                    "time": 17.30103833333335,
                    "velocity": 0.5275590551181102,
                    "duration": 0.1572821666666684
                },
                {
                    "name": "C#2",
                    "midi": 37,
                    "time": 17.458320500000017,
                    "velocity": 0.5354330708661418,
                    "duration": 0.1572821666666684
                },
                {
                    "name": "C#1",
                    "midi": 25,
                    "time": 17.615602666666685,
                    "velocity": 0.4566929133858268,
                    "duration": 0.1572821666666684
                },
                {
                    "name": "G#2",
                    "midi": 44,
                    "time": 17.772884833333354,
                    "velocity": 0.5118110236220472,
                    "duration": 0.1572821666666684
                },
                {
                    "name": "G#3",
                    "midi": 56,
                    "time": 17.930167000000022,
                    "velocity": 0.5984251968503937,
                    "duration": 0.1572821666666684
                },
                {
                    "name": "C#3",
                    "midi": 49,
                    "time": 18.08744916666669,
                    "velocity": 0.4566929133858268,
                    "duration": 0.1572821666666684
                },
                {
                    "name": "G#2",
                    "midi": 44,
                    "time": 18.24473133333336,
                    "velocity": 0.49606299212598426,
                    "duration": 0.1572821666666684
                },
                {
                    "name": "C#2",
                    "midi": 37,
                    "time": 18.402013500000027,
                    "velocity": 0.48031496062992124,
                    "duration": 0.1572821666666684
                },
                {
                    "name": "C#1",
                    "midi": 25,
                    "time": 18.559295666666696,
                    "velocity": 0.4251968503937008,
                    "duration": 0.1572821666666684
                },
                {
                    "name": "G#2",
                    "midi": 44,
                    "time": 18.716577833333364,
                    "velocity": 0.4645669291338583,
                    "duration": 0.1572821666666684
                },
                {
                    "name": "C#3",
                    "midi": 49,
                    "time": 18.873860000000032,
                    "velocity": 0.5354330708661418,
                    "duration": 0.9436930000000103
                },
                {
                    "name": "G#2",
                    "midi": 44,
                    "time": 19.0311421666667,
                    "velocity": 0.30708661417322836,
                    "duration": 0.1572821666666684
                },
                {
                    "name": "C#2",
                    "midi": 37,
                    "time": 19.18842433333337,
                    "velocity": 0.33858267716535434,
                    "duration": 0.1572821666666684
                },
                {
                    "name": "C#1",
                    "midi": 25,
                    "time": 19.345706500000038,
                    "velocity": 0.3464566929133858,
                    "duration": 0.1572821666666684
                },
                {
                    "name": "C#2",
                    "midi": 37,
                    "time": 19.502988666666706,
                    "velocity": 0.30708661417322836,
                    "duration": 0.1572821666666684
                },
                {
                    "name": "G#2",
                    "midi": 44,
                    "time": 19.660270833333374,
                    "velocity": 0.3543307086614173,
                    "duration": 0.1572821666666684
                },
                {
                    "name": "G#3",
                    "midi": 56,
                    "time": 19.817553000000043,
                    "velocity": 0.3937007874015748,
                    "duration": 0.1572821666666684
                },
                {
                    "name": "C#3",
                    "midi": 49,
                    "time": 19.97483516666671,
                    "velocity": 0.3464566929133858,
                    "duration": 0.1572821666666684
                },
                {
                    "name": "G#2",
                    "midi": 44,
                    "time": 20.13211733333338,
                    "velocity": 0.3779527559055118,
                    "duration": 0.1572821666666684
                },
                {
                    "name": "C#2",
                    "midi": 37,
                    "time": 20.289399500000048,
                    "velocity": 0.3858267716535433,
                    "duration": 0.1572821666666684
                },
                {
                    "name": "C#1",
                    "midi": 25,
                    "time": 20.446681666666716,
                    "velocity": 0.33858267716535434,
                    "duration": 0.1572821666666684
                },
                {
                    "name": "G#2",
                    "midi": 44,
                    "time": 20.603963833333385,
                    "velocity": 0.3937007874015748,
                    "duration": 0.1572821666666684
                },
                {
                    "name": "G#3",
                    "midi": 56,
                    "time": 20.761246000000053,
                    "velocity": 0.4330708661417323,
                    "duration": 0.1572821666666684
                },
                {
                    "name": "C#3",
                    "midi": 49,
                    "time": 20.91852816666672,
                    "velocity": 0.3700787401574803,
                    "duration": 0.1572821666666684
                },
                {
                    "name": "G#2",
                    "midi": 44,
                    "time": 21.07581033333339,
                    "velocity": 0.4094488188976378,
                    "duration": 0.1572821666666684
                },
                {
                    "name": "C#2",
                    "midi": 37,
                    "time": 21.23309250000006,
                    "velocity": 0.4094488188976378,
                    "duration": 0.1572821666666684
                },
                {
                    "name": "C#1",
                    "midi": 25,
                    "time": 21.390374666666727,
                    "velocity": 0.3700787401574803,
                    "duration": 0.1572821666666684
                },
                {
                    "name": "G#2",
                    "midi": 44,
                    "time": 21.547656833333395,
                    "velocity": 0.4330708661417323,
                    "duration": 0.1572821666666684
                },
                {
                    "name": "G#3",
                    "midi": 56,
                    "time": 21.704939000000063,
                    "velocity": 0.4566929133858268,
                    "duration": 0.1572821666666684
                },
                {
                    "name": "C#3",
                    "midi": 49,
                    "time": 21.862221166666732,
                    "velocity": 0.4015748031496063,
                    "duration": 0.1572821666666684
                },
                {
                    "name": "G#2",
                    "midi": 44,
                    "time": 22.0195033333334,
                    "velocity": 0.4330708661417323,
                    "duration": 0.1572821666666684
                },
                {
                    "name": "C#2",
                    "midi": 37,
                    "time": 22.17678550000007,
                    "velocity": 0.44881889763779526,
                    "duration": 0.1572821666666684
                },
                {
                    "name": "C#1",
                    "midi": 25,
                    "time": 22.334067666666737,
                    "velocity": 0.3937007874015748,
                    "duration": 0.1572821666666684
                },
                {
                    "name": "G#2",
                    "midi": 44,
                    "time": 22.491349833333405,
                    "velocity": 0.4566929133858268,
                    "duration": 0.1572821666666684
                },
                {
                    "name": "G#3",
                    "midi": 56,
                    "time": 22.648632000000074,
                    "velocity": 0.5039370078740157,
                    "duration": 0.1572821666666684
                },
                {
                    "name": "C#3",
                    "midi": 49,
                    "time": 22.805914166666742,
                    "velocity": 0.4251968503937008,
                    "duration": 0.1572821666666684
                },
                {
                    "name": "G#2",
                    "midi": 44,
                    "time": 22.96319633333341,
                    "velocity": 0.4645669291338583,
                    "duration": 0.1572821666666684
                },
                {
                    "name": "C#2",
                    "midi": 37,
                    "time": 23.12047850000008,
                    "velocity": 0.47244094488188976,
                    "duration": 0.1572821666666684
                },
                {
                    "name": "C#1",
                    "midi": 25,
                    "time": 23.277760666666747,
                    "velocity": 0.4251968503937008,
                    "duration": 0.1572821666666684
                },
                {
                    "name": "G#2",
                    "midi": 44,
                    "time": 23.435042833333416,
                    "velocity": 0.4881889763779528,
                    "duration": 0.1572821666666684
                },
                {
                    "name": "G#3",
                    "midi": 56,
                    "time": 23.592325000000084,
                    "velocity": 0.5118110236220472,
                    "duration": 0.1572821666666684
                },
                {
                    "name": "C#3",
                    "midi": 49,
                    "time": 23.749607166666753,
                    "velocity": 0.4566929133858268,
                    "duration": 0.1572821666666684
                },
                {
                    "name": "G#2",
                    "midi": 44,
                    "time": 23.90688933333342,
                    "velocity": 0.5039370078740157,
                    "duration": 0.1572821666666684
                },
                {
                    "name": "C#2",
                    "midi": 37,
                    "time": 24.06417150000009,
                    "velocity": 0.5039370078740157,
                    "duration": 0.1572821666666684
                },
                {
                    "name": "C#1",
                    "midi": 25,
                    "time": 24.221453666666758,
                    "velocity": 0.4566929133858268,
                    "duration": 0.1572821666666684
                },
                {
                    "name": "G#2",
                    "midi": 44,
                    "time": 24.378735833333426,
                    "velocity": 0.5118110236220472,
                    "duration": 0.1572821666666684
                },
                {
                    "name": "G#3",
                    "midi": 56,
                    "time": 24.536018000000094,
                    "velocity": 0.5511811023622047,
                    "duration": 0.1572821666666684
                },
                {
                    "name": "C#3",
                    "midi": 49,
                    "time": 24.693300166666763,
                    "velocity": 0.48031496062992124,
                    "duration": 0.1572821666666684
                },
                {
                    "name": "G#2",
                    "midi": 44,
                    "time": 24.85058233333343,
                    "velocity": 0.5275590551181102,
                    "duration": 0.1572821666666684
                },
                {
                    "name": "C#2",
                    "midi": 37,
                    "time": 25.0078645000001,
                    "velocity": 0.5354330708661418,
                    "duration": 0.1572821666666684
                },
                {
                    "name": "C#1",
                    "midi": 25,
                    "time": 25.165146666666768,
                    "velocity": 0.47244094488188976,
                    "duration": 0.1572821666666684
                },
                {
                    "name": "G#2",
                    "midi": 44,
                    "time": 25.322428833333436,
                    "velocity": 0.5354330708661418,
                    "duration": 0.1572821666666684
                },
                {
                    "name": "G#3",
                    "midi": 56,
                    "time": 25.479711000000105,
                    "velocity": 0.6692913385826772,
                    "duration": 0.4718465000000016
                },
                {
                    "name": "E3",
                    "midi": 52,
                    "time": 25.479711000000105,
                    "velocity": 0.5590551181102362,
                    "duration": 0.4718465000000016
                },
                {
                    "name": "C#3",
                    "midi": 49,
                    "time": 25.479711000000105,
                    "velocity": 0.5590551181102362,
                    "duration": 0.4718465000000016
                },
                {
                    "name": "E3",
                    "midi": 52,
                    "time": 30.198176000000107,
                    "velocity": 0.7086614173228346,
                    "duration": 1.6514627500000003
                },
                {
                    "name": "E2",
                    "midi": 40,
                    "time": 30.198176000000107,
                    "velocity": 0.6062992125984252,
                    "duration": 1.6514627500000003
                },
                {
                    "name": "G#3",
                    "midi": 56,
                    "time": 31.023907375000107,
                    "velocity": 0.49606299212598426,
                    "duration": 0.11796162499999951
                },
                {
                    "name": "C#3",
                    "midi": 49,
                    "time": 31.023907375000107,
                    "velocity": 0.41732283464566927,
                    "duration": 0.11796162499999951
                },
                {
                    "name": "G#3",
                    "midi": 56,
                    "time": 31.141869000000106,
                    "velocity": 0.6456692913385826,
                    "duration": 0.9436929999999961
                },
                {
                    "name": "F2",
                    "midi": 41,
                    "time": 31.849638750000107,
                    "velocity": 0.5354330708661418,
                    "duration": 0.0786410833333342
                },
                {
                    "name": "F#2",
                    "midi": 42,
                    "time": 31.92827983333344,
                    "velocity": 0.5669291338582677,
                    "duration": 0.07864108333333064
                },
                {
                    "name": "G#2",
                    "midi": 44,
                    "time": 32.00692091666677,
                    "velocity": 0.5984251968503937,
                    "duration": 0.07864108333333064
                },
                {
                    "name": "A2",
                    "midi": 45,
                    "time": 32.0855620000001,
                    "velocity": 0.6929133858267716,
                    "duration": 0.9436929999999961
                },
                {
                    "name": "A1",
                    "midi": 33,
                    "time": 32.0855620000001,
                    "velocity": 0.5826771653543307,
                    "duration": 0.9436929999999961
                },
                {
                    "name": "E4",
                    "midi": 64,
                    "time": 32.5574085000001,
                    "velocity": 0.6614173228346457,
                    "duration": 0.47184649999999806
                },
                {
                    "name": "C#4",
                    "midi": 61,
                    "time": 32.5574085000001,
                    "velocity": 0.5511811023622047,
                    "duration": 0.47184649999999806
                },
                {
                    "name": "A3",
                    "midi": 57,
                    "time": 32.5574085000001,
                    "velocity": 0.5511811023622047,
                    "duration": 0.47184649999999806
                },
                {
                    "name": "E3",
                    "midi": 52,
                    "time": 32.5574085000001,
                    "velocity": 0.5511811023622047,
                    "duration": 0.47184649999999806
                },
                {
                    "name": "C#3",
                    "midi": 49,
                    "time": 33.9729480000001,
                    "velocity": 0.7086614173228346,
                    "duration": 1.6514627499999932
                },
                {
                    "name": "A3",
                    "midi": 57,
                    "time": 34.7986793750001,
                    "velocity": 0.49606299212598426,
                    "duration": 0.11796162499999951
                },
                {
                    "name": "E3",
                    "midi": 52,
                    "time": 34.7986793750001,
                    "velocity": 0.41732283464566927,
                    "duration": 0.11796162499999951
                },
                {
                    "name": "E3",
                    "midi": 52,
                    "time": 34.9166410000001,
                    "velocity": 0.5433070866141733,
                    "duration": 0.8650519166666584
                },
                {
                    "name": "A3",
                    "midi": 57,
                    "time": 34.9166410000001,
                    "velocity": 0.6456692913385826,
                    "duration": 0.943692999999989
                },
                {
                    "name": "C#3",
                    "midi": 49,
                    "time": 34.9166410000001,
                    "velocity": 0.5433070866141733,
                    "duration": 0.943692999999989
                },
                {
                    "name": "D#3",
                    "midi": 51,
                    "time": 35.624410750000095,
                    "velocity": 0.5354330708661418,
                    "duration": 0.07864108333333064
                },
                {
                    "name": "E3",
                    "midi": 52,
                    "time": 35.703051833333426,
                    "velocity": 0.5669291338582677,
                    "duration": 0.15728216666666128
                },
                {
                    "name": "F#3",
                    "midi": 54,
                    "time": 35.781692916666756,
                    "velocity": 0.5984251968503937,
                    "duration": 0.07864108333333064
                },
                {
                    "name": "G3",
                    "midi": 55,
                    "time": 35.86033400000009,
                    "velocity": 0.6929133858267716,
                    "duration": 0.9436929999999961
                },
                {
                    "name": "G2",
                    "midi": 43,
                    "time": 35.86033400000009,
                    "velocity": 0.5826771653543307,
                    "duration": 0.9436929999999961
                },
                {
                    "name": "B4",
                    "midi": 71,
                    "time": 36.332180500000085,
                    "velocity": 0.6614173228346457,
                    "duration": 0.47184649999999806
                },
                {
                    "name": "E4",
                    "midi": 64,
                    "time": 36.332180500000085,
                    "velocity": 0.5511811023622047,
                    "duration": 0.47184649999999806
                },
                {
                    "name": "C#4",
                    "midi": 61,
                    "time": 36.332180500000085,
                    "velocity": 0.5511811023622047,
                    "duration": 0.47184649999999806
                },
                {
                    "name": "B2",
                    "midi": 47,
                    "time": 37.51179675000008,
                    "velocity": 0.5669291338582677,
                    "duration": 0.07864108333333064
                },
                {
                    "name": "B3",
                    "midi": 59,
                    "time": 37.51179675000008,
                    "velocity": 0.5669291338582677,
                    "duration": 0.07864108333333064
                },
                {
                    "name": "E4",
                    "midi": 64,
                    "time": 37.59043783333341,
                    "velocity": 0.6141732283464567,
                    "duration": 0.07864108333333064
                },
                {
                    "name": "G4",
                    "midi": 67,
                    "time": 37.66907891666674,
                    "velocity": 0.6299212598425197,
                    "duration": 0.07864108333333064
                },
                {
                    "name": "B3",
                    "midi": 59,
                    "time": 37.74772000000007,
                    "velocity": 0.7480314960629921,
                    "duration": 1.8873860000000064
                },
                {
                    "name": "B4",
                    "midi": 71,
                    "time": 37.74772000000007,
                    "velocity": 0.7480314960629921,
                    "duration": 1.8873860000000064
                },
                {
                    "name": "F4",
                    "midi": 65,
                    "time": 38.691413000000075,
                    "velocity": 0.5275590551181102,
                    "duration": 0.9436930000000032
                },
                {
                    "name": "D#4",
                    "midi": 63,
                    "time": 38.691413000000075,
                    "velocity": 0.5275590551181102,
                    "duration": 0.9436930000000032
                },
                {
                    "name": "G#4",
                    "midi": 68,
                    "time": 38.691413000000075,
                    "velocity": 0.5275590551181102,
                    "duration": 0.9436930000000032
                },
                {
                    "name": "D#5",
                    "midi": 75,
                    "time": 38.691413000000075,
                    "velocity": 0.6141732283464567,
                    "duration": 0.9436930000000032
                },
                {
                    "name": "A#3",
                    "midi": 58,
                    "time": 39.63510600000008,
                    "velocity": 0.7480314960629921,
                    "duration": 1.8873860000000064
                },
                {
                    "name": "A#4",
                    "midi": 70,
                    "time": 39.63510600000008,
                    "velocity": 0.7480314960629921,
                    "duration": 1.8873860000000064
                },
                {
                    "name": "C#4",
                    "midi": 61,
                    "time": 40.57879900000008,
                    "velocity": 0.5433070866141733,
                    "duration": 0.9436930000000032
                },
                {
                    "name": "G4",
                    "midi": 67,
                    "time": 40.57879900000008,
                    "velocity": 0.5433070866141733,
                    "duration": 0.9436930000000032
                },
                {
                    "name": "D#4",
                    "midi": 63,
                    "time": 40.57879900000008,
                    "velocity": 0.5433070866141733,
                    "duration": 0.9436930000000032
                },
                {
                    "name": "C#5",
                    "midi": 73,
                    "time": 40.57879900000008,
                    "velocity": 0.6456692913385826,
                    "duration": 0.9436930000000032
                },
                {
                    "name": "G#3",
                    "midi": 56,
                    "time": 41.522492000000085,
                    "velocity": 0.6850393700787402,
                    "duration": 2.8310790000000026
                },
                {
                    "name": "D#4",
                    "midi": 63,
                    "time": 41.522492000000085,
                    "velocity": 0.6850393700787402,
                    "duration": 2.8310790000000026
                },
                {
                    "name": "B4",
                    "midi": 71,
                    "time": 41.522492000000085,
                    "velocity": 0.7480314960629921,
                    "duration": 1.8873859999999993
                },
                {
                    "name": "G#4",
                    "midi": 68,
                    "time": 41.99433850000008,
                    "velocity": 0.5905511811023622,
                    "duration": 2.3592325000000045
                },
                {
                    "name": "D#5",
                    "midi": 75,
                    "time": 41.99433850000008,
                    "velocity": 0.5905511811023622,
                    "duration": 2.3592325000000045
                },
                {
                    "name": "B5",
                    "midi": 83,
                    "time": 41.99433850000008,
                    "velocity": 0.7086614173228346,
                    "duration": 2.3592325000000045
                },
                {
                    "name": "E5",
                    "midi": 76,
                    "time": 44.58949425000009,
                    "velocity": 0.5590551181102362,
                    "duration": 0.11796162499999951
                },
                {
                    "name": "D#5",
                    "midi": 75,
                    "time": 44.707455875000086,
                    "velocity": 0.5039370078740157,
                    "duration": 0.11796162499999951
                },
                {
                    "name": "C#5",
                    "midi": 73,
                    "time": 44.825417500000086,
                    "velocity": 0.5196850393700787,
                    "duration": 0.11796162499999951
                },
                {
                    "name": "B4",
                    "midi": 71,
                    "time": 44.943379125000085,
                    "velocity": 0.49606299212598426,
                    "duration": 0.11796162499999951
                },
                {
                    "name": "A#4",
                    "midi": 70,
                    "time": 45.061340750000085,
                    "velocity": 0.5354330708661418,
                    "duration": 0.11796162499999951
                },
                {
                    "name": "G#4",
                    "midi": 68,
                    "time": 45.179302375000084,
                    "velocity": 0.4881889763779528,
                    "duration": 0.11796162499999951
                },
                {
                    "name": "G4",
                    "midi": 67,
                    "time": 45.297264000000084,
                    "velocity": 0.5039370078740157,
                    "duration": 0.11796162499999951
                },
                {
                    "name": "G#4",
                    "midi": 68,
                    "time": 45.41522562500008,
                    "velocity": 0.4881889763779528,
                    "duration": 0.11796162499999951
                },
                {
                    "name": "E5",
                    "midi": 76,
                    "time": 45.53318725000008,
                    "velocity": 0.5590551181102362,
                    "duration": 0.11796162499999951
                },
                {
                    "name": "D#5",
                    "midi": 75,
                    "time": 45.65114887500008,
                    "velocity": 0.5039370078740157,
                    "duration": 0.11796162499999951
                },
                {
                    "name": "C#5",
                    "midi": 73,
                    "time": 45.76911050000008,
                    "velocity": 0.5118110236220472,
                    "duration": 0.11796162499999951
                },
                {
                    "name": "B4",
                    "midi": 71,
                    "time": 45.88707212500008,
                    "velocity": 0.47244094488188976,
                    "duration": 0.11796162499999951
                },
                {
                    "name": "A#4",
                    "midi": 70,
                    "time": 46.00503375000008,
                    "velocity": 0.5354330708661418,
                    "duration": 0.11796162499999951
                },
                {
                    "name": "G#4",
                    "midi": 68,
                    "time": 46.12299537500008,
                    "velocity": 0.5354330708661418,
                    "duration": 0.11796162499999951
                },
                {
                    "name": "F#4",
                    "midi": 66,
                    "time": 46.24095700000008,
                    "velocity": 0.5354330708661418,
                    "duration": 0.11796162499999951
                },
                {
                    "name": "E4",
                    "midi": 64,
                    "time": 46.35891862500008,
                    "velocity": 0.5275590551181102,
                    "duration": 0.11796162499999951
                },
                {
                    "name": "D#4",
                    "midi": 63,
                    "time": 46.47688025000008,
                    "velocity": 0.5196850393700787,
                    "duration": 0.11796162499999951
                },
                {
                    "name": "C#4",
                    "midi": 61,
                    "time": 46.59484187500008,
                    "velocity": 0.5118110236220472,
                    "duration": 0.11796162499999951
                },
                {
                    "name": "B3",
                    "midi": 59,
                    "time": 46.71280350000008,
                    "velocity": 0.5118110236220472,
                    "duration": 0.11796162499999951
                },
                {
                    "name": "A#3",
                    "midi": 58,
                    "time": 46.83076512500008,
                    "velocity": 0.5039370078740157,
                    "duration": 0.11796162499999951
                },
                {
                    "name": "A3",
                    "midi": 57,
                    "time": 46.94872675000008,
                    "velocity": 0.4881889763779528,
                    "duration": 0.11796162499999951
                },
                {
                    "name": "G#3",
                    "midi": 56,
                    "time": 47.066688375000076,
                    "velocity": 0.47244094488188976,
                    "duration": 0.11796162499999951
                },
                {
                    "name": "G3",
                    "midi": 55,
                    "time": 47.184650000000076,
                    "velocity": 0.4566929133858268,
                    "duration": 0.11796162499999951
                },
                {
                    "name": "G#3",
                    "midi": 56,
                    "time": 47.302611625000075,
                    "velocity": 0.47244094488188976,
                    "duration": 0.11796162499999951
                },
                {
                    "name": "E4",
                    "midi": 64,
                    "time": 47.420573250000075,
                    "velocity": 0.5511811023622047,
                    "duration": 0.11796162499999951
                },
                {
                    "name": "D#4",
                    "midi": 63,
                    "time": 47.538534875000074,
                    "velocity": 0.5354330708661418,
                    "duration": 0.11796162499999951
                },
                {
                    "name": "C#4",
                    "midi": 61,
                    "time": 47.656496500000074,
                    "velocity": 0.5196850393700787,
                    "duration": 0.11796162499999951
                },
                {
                    "name": "B3",
                    "midi": 59,
                    "time": 47.77445812500007,
                    "velocity": 0.5196850393700787,
                    "duration": 0.11796162499999951
                },
                {
                    "name": "A#3",
                    "midi": 58,
                    "time": 47.89241975000007,
                    "velocity": 0.5039370078740157,
                    "duration": 0.11796162499999951
                },
                {
                    "name": "G#3",
                    "midi": 56,
                    "time": 48.01038137500007,
                    "velocity": 0.4881889763779528,
                    "duration": 0.11796162499999951
                },
                {
                    "name": "F#3",
                    "midi": 54,
                    "time": 48.12834300000007,
                    "velocity": 0.4881889763779528,
                    "duration": 0.11796162499999951
                },
                {
                    "name": "E3",
                    "midi": 52,
                    "time": 48.24630462500007,
                    "velocity": 0.4645669291338583,
                    "duration": 0.11796162499999951
                },
                {
                    "name": "D#3",
                    "midi": 51,
                    "time": 48.36426625000007,
                    "velocity": 0.48031496062992124,
                    "duration": 0.11796162499999951
                },
                {
                    "name": "C#3",
                    "midi": 49,
                    "time": 48.48222787500007,
                    "velocity": 0.48031496062992124,
                    "duration": 0.11796162499999951
                },
                {
                    "name": "B2",
                    "midi": 47,
                    "time": 48.60018950000007,
                    "velocity": 0.48031496062992124,
                    "duration": 0.11796162499999951
                },
                {
                    "name": "A#2",
                    "midi": 46,
                    "time": 48.71815112500007,
                    "velocity": 0.48031496062992124,
                    "duration": 0.11796162499999951
                },
                {
                    "name": "A2",
                    "midi": 45,
                    "time": 48.83611275000007,
                    "velocity": 0.47244094488188976,
                    "duration": 0.11796162499999951
                },
                {
                    "name": "G#2",
                    "midi": 44,
                    "time": 48.95407437500007,
                    "velocity": 0.4645669291338583,
                    "duration": 0.11796162499999951
                },
                {
                    "name": "G2",
                    "midi": 43,
                    "time": 49.07203600000007,
                    "velocity": 0.4645669291338583,
                    "duration": 0.11796162499999951
                },
                {
                    "name": "G#2",
                    "midi": 44,
                    "time": 49.18999762500007,
                    "velocity": 0.4645669291338583,
                    "duration": 0.11796162499999951
                },
                {
                    "name": "E3",
                    "midi": 52,
                    "time": 49.30795925000007,
                    "velocity": 0.48031496062992124,
                    "duration": 0.11796162499999951
                },
                {
                    "name": "D#3",
                    "midi": 51,
                    "time": 49.42592087500007,
                    "velocity": 0.4566929133858268,
                    "duration": 0.11796162499999951
                },
                {
                    "name": "C#3",
                    "midi": 49,
                    "time": 49.543882500000066,
                    "velocity": 0.44881889763779526,
                    "duration": 0.11796162499999951
                },
                {
                    "name": "B2",
                    "midi": 47,
                    "time": 49.661844125000066,
                    "velocity": 0.4251968503937008,
                    "duration": 0.11796162499999951
                },
                {
                    "name": "F2",
                    "midi": 41,
                    "time": 49.779805750000065,
                    "velocity": 0.4094488188976378,
                    "duration": 0.11796162499999951
                },
                {
                    "name": "F#2",
                    "midi": 42,
                    "time": 49.897767375000065,
                    "velocity": 0.4094488188976378,
                    "duration": 0.11796162499999951
                },
                {
                    "name": "D3",
                    "midi": 50,
                    "time": 50.015729000000064,
                    "velocity": 0.48031496062992124,
                    "duration": 0.11796162499999951
                },
                {
                    "name": "C#3",
                    "midi": 49,
                    "time": 50.133690625000064,
                    "velocity": 0.44881889763779526,
                    "duration": 0.11796162499999951
                },
                {
                    "name": "B2",
                    "midi": 47,
                    "time": 50.25165225000006,
                    "velocity": 0.4409448818897638,
                    "duration": 0.11796162499999951
                },
                {
                    "name": "A2",
                    "midi": 45,
                    "time": 50.36961387500006,
                    "velocity": 0.41732283464566927,
                    "duration": 0.11796162499999951
                },
                {
                    "name": "E2",
                    "midi": 40,
                    "time": 50.48757550000006,
                    "velocity": 0.4094488188976378,
                    "duration": 0.11796162499999951
                },
                {
                    "name": "F#2",
                    "midi": 42,
                    "time": 50.60553712500006,
                    "velocity": 0.4015748031496063,
                    "duration": 0.11796162499999951
                },
                {
                    "name": "C#3",
                    "midi": 49,
                    "time": 50.72349875000006,
                    "velocity": 0.47244094488188976,
                    "duration": 0.11796162499999951
                },
                {
                    "name": "B2",
                    "midi": 47,
                    "time": 50.84146037500006,
                    "velocity": 0.44881889763779526,
                    "duration": 0.11796162499999951
                },
                {
                    "name": "A2",
                    "midi": 45,
                    "time": 50.95942200000006,
                    "velocity": 0.4566929133858268,
                    "duration": 0.11796162499999951
                },
                {
                    "name": "G#2",
                    "midi": 44,
                    "time": 51.07738362500006,
                    "velocity": 0.4409448818897638,
                    "duration": 0.11796162499999951
                },
                {
                    "name": "F#2",
                    "midi": 42,
                    "time": 51.19534525000006,
                    "velocity": 0.4330708661417323,
                    "duration": 0.11796162499999951
                },
                {
                    "name": "E2",
                    "midi": 40,
                    "time": 51.31330687500006,
                    "velocity": 0.41732283464566927,
                    "duration": 0.11796162499999951
                },
                {
                    "name": "D2",
                    "midi": 38,
                    "time": 51.43126850000006,
                    "velocity": 0.4015748031496063,
                    "duration": 0.11796162499999951
                },
                {
                    "name": "D#2",
                    "midi": 39,
                    "time": 51.54923012500006,
                    "velocity": 0.3937007874015748,
                    "duration": 0.11796162499999951
                },
                {
                    "name": "B2",
                    "midi": 47,
                    "time": 51.66719175000006,
                    "velocity": 0.4645669291338583,
                    "duration": 0.11796162499999951
                },
                {
                    "name": "A#2",
                    "midi": 46,
                    "time": 51.78515337500006,
                    "velocity": 0.4645669291338583,
                    "duration": 0.11796162499999951
                },
                {
                    "name": "G#2",
                    "midi": 44,
                    "time": 51.90311500000006,
                    "velocity": 0.44881889763779526,
                    "duration": 0.11796162499999951
                },
                {
                    "name": "F#2",
                    "midi": 42,
                    "time": 52.021076625000056,
                    "velocity": 0.4409448818897638,
                    "duration": 0.11796162499999951
                },
                {
                    "name": "E2",
                    "midi": 40,
                    "time": 52.139038250000056,
                    "velocity": 0.4409448818897638,
                    "duration": 0.11796162499999951
                },
                {
                    "name": "D#2",
                    "midi": 39,
                    "time": 52.256999875000055,
                    "velocity": 0.4409448818897638,
                    "duration": 0.11796162499999951
                },
                {
                    "name": "C#2",
                    "midi": 37,
                    "time": 52.374961500000055,
                    "velocity": 0.4409448818897638,
                    "duration": 0.11796162499999951
                },
                {
                    "name": "B1",
                    "midi": 35,
                    "time": 52.492923125000054,
                    "velocity": 0.4409448818897638,
                    "duration": 0.11796162499999951
                },
                {
                    "name": "A#1",
                    "midi": 34,
                    "time": 52.610884750000054,
                    "velocity": 0.4409448818897638,
                    "duration": 0.11796162499999951
                },
                {
                    "name": "A1",
                    "midi": 33,
                    "time": 52.72884637500005,
                    "velocity": 0.4409448818897638,
                    "duration": 0.11796162499999951
                },
                {
                    "name": "G#1",
                    "midi": 32,
                    "time": 52.84680800000005,
                    "velocity": 0.6299212598425197,
                    "duration": 1.730103833333338
                },
                {
                    "name": "D#3",
                    "midi": 51,
                    "time": 53.55457775000005,
                    "velocity": 0.6062992125984252,
                    "duration": 0.23592324999999903
                },
                {
                    "name": "D#4",
                    "midi": 63,
                    "time": 53.79050100000005,
                    "velocity": 0.6850393700787402,
                    "duration": 0.1572821666666684
                },
                {
                    "name": "G#3",
                    "midi": 56,
                    "time": 53.94778316666672,
                    "velocity": 0.49606299212598426,
                    "duration": 0.1572821666666684
                },
                {
                    "name": "D#3",
                    "midi": 51,
                    "time": 54.105065333333386,
                    "velocity": 0.5433070866141733,
                    "duration": 0.1572821666666684
                },
                {
                    "name": "G#2",
                    "midi": 44,
                    "time": 54.262347500000054,
                    "velocity": 0.5433070866141733,
                    "duration": 0.1572821666666684
                },
                {
                    "name": "G#1",
                    "midi": 32,
                    "time": 54.41962966666672,
                    "velocity": 0.4881889763779528,
                    "duration": 1.0872129770833467
                },
                {
                    "name": "D#3",
                    "midi": 51,
                    "time": 54.57691183333339,
                    "velocity": 0.5433070866141733,
                    "duration": 0.1572821666666684
                },
                {
                    "name": "D#4",
                    "midi": 63,
                    "time": 54.72043181041673,
                    "velocity": 0.6850393700787402,
                    "duration": 0.1572821666666684
                },
                {
                    "name": "G#3",
                    "midi": 56,
                    "time": 54.877713977083395,
                    "velocity": 0.49606299212598426,
                    "duration": 0.1572821666666684
                },
                {
                    "name": "D#3",
                    "midi": 51,
                    "time": 55.034996143750064,
                    "velocity": 0.5433070866141733,
                    "duration": 0.1572821666666684
                },
                {
                    "name": "G#2",
                    "midi": 44,
                    "time": 55.19227831041673,
                    "velocity": 0.5433070866141733,
                    "duration": 0.1572821666666684
                },
                {
                    "name": "G#1",
                    "midi": 32,
                    "time": 55.3495604770834,
                    "velocity": 0.4881889763779528,
                    "duration": 1.1147373562500107
                },
                {
                    "name": "D#3",
                    "midi": 51,
                    "time": 55.50684264375007,
                    "velocity": 0.5433070866141733,
                    "duration": 0.1572821666666684
                },
                {
                    "name": "D#4",
                    "midi": 63,
                    "time": 55.67788700000007,
                    "velocity": 0.6850393700787402,
                    "duration": 0.1572821666666684
                },
                {
                    "name": "G#3",
                    "midi": 56,
                    "time": 55.83516916666674,
                    "velocity": 0.49606299212598426,
                    "duration": 0.1572821666666684
                },
                {
                    "name": "D#3",
                    "midi": 51,
                    "time": 55.992451333333406,
                    "velocity": 0.5433070866141733,
                    "duration": 0.1572821666666684
                },
                {
                    "name": "G#2",
                    "midi": 44,
                    "time": 56.149733500000075,
                    "velocity": 0.5433070866141733,
                    "duration": 0.1572821666666684
                },
                {
                    "name": "G#1",
                    "midi": 32,
                    "time": 56.30701566666674,
                    "velocity": 0.4881889763779528,
                    "duration": 0.3145643333333368
                },
                {
                    "name": "D#3",
                    "midi": 51,
                    "time": 56.46429783333341,
                    "velocity": 0.5433070866141733,
                    "duration": 0.1572821666666684
                },
                {
                    "name": "D#4",
                    "midi": 63,
                    "time": 56.62158000000008,
                    "velocity": 0.6299212598425197,
                    "duration": 0.1572821666666684
                },
                {
                    "name": "G#3",
                    "midi": 56,
                    "time": 56.77886216666675,
                    "velocity": 0.49606299212598426,
                    "duration": 0.1572821666666684
                },
                {
                    "name": "D#3",
                    "midi": 51,
                    "time": 56.93614433333342,
                    "velocity": 0.5433070866141733,
                    "duration": 0.1572821666666684
                },
                {
                    "name": "G#2",
                    "midi": 44,
                    "time": 57.093426500000085,
                    "velocity": 0.5511811023622047,
                    "duration": 0.1572821666666684
                },
                {
                    "name": "G#1",
                    "midi": 32,
                    "time": 57.25070866666675,
                    "velocity": 0.49606299212598426,
                    "duration": 0.1572821666666684
                },
                {
                    "name": "D#3",
                    "midi": 51,
                    "time": 57.40799083333342,
                    "velocity": 0.5748031496062992,
                    "duration": 0.1572821666666684
                },
                {
                    "name": "D#4",
                    "midi": 63,
                    "time": 57.56527300000009,
                    "velocity": 0.6771653543307087,
                    "duration": 0.1572821666666684
                },
                {
                    "name": "G#3",
                    "midi": 56,
                    "time": 57.72255516666676,
                    "velocity": 0.5433070866141733,
                    "duration": 0.1572821666666684
                },
                {
                    "name": "D#3",
                    "midi": 51,
                    "time": 57.87983733333343,
                    "velocity": 0.5984251968503937,
                    "duration": 0.1572821666666684
                },
                {
                    "name": "G#2",
                    "midi": 44,
                    "time": 58.037119500000095,
                    "velocity": 0.6062992125984252,
                    "duration": 0.1572821666666684
                },
                {
                    "name": "G#1",
                    "midi": 32,
                    "time": 58.194401666666764,
                    "velocity": 0.5433070866141733,
                    "duration": 0.1572821666666684
                },
                {
                    "name": "D#3",
                    "midi": 51,
                    "time": 58.35168383333343,
                    "velocity": 0.6220472440944882,
                    "duration": 0.1572821666666684
                },
                {
                    "name": "D#4",
                    "midi": 63,
                    "time": 58.5089660000001,
                    "velocity": 0.6771653543307087,
                    "duration": 0.1572821666666684
                },
                {
                    "name": "G#3",
                    "midi": 56,
                    "time": 58.66624816666677,
                    "velocity": 0.5196850393700787,
                    "duration": 0.1572821666666684
                },
                {
                    "name": "D#3",
                    "midi": 51,
                    "time": 58.82353033333344,
                    "velocity": 0.5511811023622047,
                    "duration": 0.1572821666666684
                },
                {
                    "name": "G#2",
                    "midi": 44,
                    "time": 58.980812500000106,
                    "velocity": 0.5590551181102362,
                    "duration": 0.1572821666666684
                },
                {
                    "name": "G#1",
                    "midi": 32,
                    "time": 59.138094666666774,
                    "velocity": 0.48031496062992124,
                    "duration": 0.1572821666666684
                },
                {
                    "name": "D#3",
                    "midi": 51,
                    "time": 59.29537683333344,
                    "velocity": 0.5433070866141733,
                    "duration": 0.1572821666666684
                },
                {
                    "name": "D#4",
                    "midi": 63,
                    "time": 59.45265900000011,
                    "velocity": 0.6299212598425197,
                    "duration": 0.1572821666666684
                },
                {
                    "name": "G#3",
                    "midi": 56,
                    "time": 59.60994116666678,
                    "velocity": 0.48031496062992124,
                    "duration": 0.1572821666666684
                },
                {
                    "name": "D#3",
                    "midi": 51,
                    "time": 59.76722333333345,
                    "velocity": 0.5275590551181102,
                    "duration": 0.1572821666666684
                },
                {
                    "name": "G#2",
                    "midi": 44,
                    "time": 59.924505500000116,
                    "velocity": 0.5118110236220472,
                    "duration": 0.1572821666666684
                },
                {
                    "name": "G#1",
                    "midi": 32,
                    "time": 60.081787666666784,
                    "velocity": 0.44881889763779526,
                    "duration": 0.1572821666666684
                },
                {
                    "name": "D#3",
                    "midi": 51,
                    "time": 60.23906983333345,
                    "velocity": 0.49606299212598426,
                    "duration": 0.1572821666666684
                },
                {
                    "name": "G#3",
                    "midi": 56,
                    "time": 60.39635200000012,
                    "velocity": 0.5748031496062992,
                    "duration": 0.9436930000000103
                },
                {
                    "name": "D#3",
                    "midi": 51,
                    "time": 60.55363416666679,
                    "velocity": 0.30708661417322836,
                    "duration": 0.1572821666666684
                },
                {
                    "name": "G#2",
                    "midi": 44,
                    "time": 60.71091633333346,
                    "velocity": 0.33858267716535434,
                    "duration": 0.1572821666666684
                },
                {
                    "name": "G#1",
                    "midi": 32,
                    "time": 60.868198500000126,
                    "velocity": 0.3464566929133858,
                    "duration": 0.1572821666666684
                },
                {
                    "name": "G#2",
                    "midi": 44,
                    "time": 61.025480666666795,
                    "velocity": 0.30708661417322836,
                    "duration": 0.1572821666666684
                },
                {
                    "name": "D#3",
                    "midi": 51,
                    "time": 61.18276283333346,
                    "velocity": 0.3543307086614173,
                    "duration": 0.1572821666666684
                },
                {
                    "name": "D#4",
                    "midi": 63,
                    "time": 61.34004500000013,
                    "velocity": 0.3937007874015748,
                    "duration": 0.1572821666666684
                },
                {
                    "name": "G#3",
                    "midi": 56,
                    "time": 61.4973271666668,
                    "velocity": 0.3464566929133858,
                    "duration": 0.1572821666666684
                },
                {
                    "name": "D#3",
                    "midi": 51,
                    "time": 61.65460933333347,
                    "velocity": 0.3779527559055118,
                    "duration": 0.1572821666666684
                },
                {
                    "name": "G#2",
                    "midi": 44,
                    "time": 61.81189150000014,
                    "velocity": 0.3858267716535433,
                    "duration": 0.1572821666666684
                },
                {
                    "name": "G#1",
                    "midi": 32,
                    "time": 61.969173666666805,
                    "velocity": 0.33858267716535434,
                    "duration": 0.1572821666666684
                },
                {
                    "name": "D#3",
                    "midi": 51,
                    "time": 62.12645583333347,
                    "velocity": 0.3937007874015748,
                    "duration": 0.1572821666666684
                },
                {
                    "name": "D#4",
                    "midi": 63,
                    "time": 62.28373800000014,
                    "velocity": 0.4330708661417323,
                    "duration": 0.1572821666666684
                },
                {
                    "name": "G#3",
                    "midi": 56,
                    "time": 62.44102016666681,
                    "velocity": 0.3700787401574803,
                    "duration": 0.1572821666666684
                },
                {
                    "name": "D#3",
                    "midi": 51,
                    "time": 62.59830233333348,
                    "velocity": 0.4094488188976378,
                    "duration": 0.1572821666666684
                },
                {
                    "name": "G#2",
                    "midi": 44,
                    "time": 62.75558450000015,
                    "velocity": 0.4094488188976378,
                    "duration": 0.1572821666666684
                },
                {
                    "name": "G#1",
                    "midi": 32,
                    "time": 62.912866666666815,
                    "velocity": 0.3700787401574803,
                    "duration": 0.1572821666666684
                },
                {
                    "name": "D#3",
                    "midi": 51,
                    "time": 63.070148833333484,
                    "velocity": 0.4330708661417323,
                    "duration": 0.1572821666666684
                },
                {
                    "name": "D#4",
                    "midi": 63,
                    "time": 63.22743100000015,
                    "velocity": 0.4566929133858268,
                    "duration": 0.1572821666666684
                },
                {
                    "name": "G#3",
                    "midi": 56,
                    "time": 63.38471316666682,
                    "velocity": 0.4015748031496063,
                    "duration": 0.1572821666666684
                },
                {
                    "name": "D#3",
                    "midi": 51,
                    "time": 63.54199533333349,
                    "velocity": 0.4330708661417323,
                    "duration": 0.1572821666666684
                },
                {
                    "name": "G#2",
                    "midi": 44,
                    "time": 63.69927750000016,
                    "velocity": 0.44881889763779526,
                    "duration": 0.1572821666666684
                },
                {
                    "name": "G#1",
                    "midi": 32,
                    "time": 63.856559666666826,
                    "velocity": 0.3937007874015748,
                    "duration": 0.15728216666666128
                },
                {
                    "name": "D#3",
                    "midi": 51,
                    "time": 64.01384183333349,
                    "velocity": 0.4566929133858268,
                    "duration": 0.15728216666666128
                },
                {
                    "name": "D#4",
                    "midi": 63,
                    "time": 64.17112400000015,
                    "velocity": 0.5039370078740157,
                    "duration": 0.15728216666666128
                },
                {
                    "name": "G#3",
                    "midi": 56,
                    "time": 64.32840616666681,
                    "velocity": 0.4251968503937008,
                    "duration": 0.15728216666666128
                },
                {
                    "name": "D#3",
                    "midi": 51,
                    "time": 64.48568833333347,
                    "velocity": 0.4645669291338583,
                    "duration": 0.15728216666666128
                },
                {
                    "name": "G#2",
                    "midi": 44,
                    "time": 64.64297050000013,
                    "velocity": 0.47244094488188976,
                    "duration": 0.15728216666666128
                },
                {
                    "name": "G#1",
                    "midi": 32,
                    "time": 64.8002526666668,
                    "velocity": 0.4251968503937008,
                    "duration": 0.15728216666666128
                },
                {
                    "name": "D#3",
                    "midi": 51,
                    "time": 64.95753483333345,
                    "velocity": 0.4881889763779528,
                    "duration": 0.15728216666666128
                },
                {
                    "name": "D#4",
                    "midi": 63,
                    "time": 65.11481700000012,
                    "velocity": 0.5118110236220472,
                    "duration": 0.15728216666666128
                },
                {
                    "name": "G#3",
                    "midi": 56,
                    "time": 65.27209916666678,
                    "velocity": 0.4566929133858268,
                    "duration": 0.15728216666666128
                },
                {
                    "name": "D#3",
                    "midi": 51,
                    "time": 65.42938133333344,
                    "velocity": 0.5039370078740157,
                    "duration": 0.15728216666666128
                },
                {
                    "name": "G#2",
                    "midi": 44,
                    "time": 65.5866635000001,
                    "velocity": 0.5039370078740157,
                    "duration": 0.15728216666666128
                },
                {
                    "name": "G#1",
                    "midi": 32,
                    "time": 65.74394566666676,
                    "velocity": 0.4566929133858268,
                    "duration": 0.15728216666666128
                },
                {
                    "name": "D#3",
                    "midi": 51,
                    "time": 65.90122783333342,
                    "velocity": 0.5039370078740157,
                    "duration": 0.15728216666666128
                },
                {
                    "name": "D#4",
                    "midi": 63,
                    "time": 66.05851000000008,
                    "velocity": 0.5511811023622047,
                    "duration": 0.15728216666666128
                },
                {
                    "name": "G#3",
                    "midi": 56,
                    "time": 66.21579216666674,
                    "velocity": 0.48031496062992124,
                    "duration": 0.15728216666666128
                },
                {
                    "name": "D#3",
                    "midi": 51,
                    "time": 66.3730743333334,
                    "velocity": 0.5275590551181102,
                    "duration": 0.15728216666666128
                },
                {
                    "name": "G#2",
                    "midi": 44,
                    "time": 66.53035650000007,
                    "velocity": 0.5354330708661418,
                    "duration": 0.15728216666666128
                },
                {
                    "name": "G#1",
                    "midi": 32,
                    "time": 66.68763866666673,
                    "velocity": 0.47244094488188976,
                    "duration": 0.15728216666666128
                },
                {
                    "name": "D#3",
                    "midi": 51,
                    "time": 66.84492083333339,
                    "velocity": 0.5354330708661418,
                    "duration": 0.15728216666666128
                },
                {
                    "name": "D#4",
                    "midi": 63,
                    "time": 67.00220300000005,
                    "velocity": 0.6692913385826772,
                    "duration": 0.47184649999999806
                },
                {
                    "name": "B3",
                    "midi": 59,
                    "time": 67.00220300000005,
                    "velocity": 0.5590551181102362,
                    "duration": 0.47184649999999806
                },
                {
                    "name": "G#3",
                    "midi": 56,
                    "time": 67.00220300000005,
                    "velocity": 0.5590551181102362,
                    "duration": 0.47184649999999806
                },
                {
                    "name": "E2",
                    "midi": 40,
                    "time": 69.83328200000005,
                    "velocity": 0.6141732283464567,
                    "duration": 0.3145643333333368
                },
                {
                    "name": "A1",
                    "midi": 33,
                    "time": 69.83328200000005,
                    "velocity": 0.5196850393700787,
                    "duration": 0.3145643333333368
                },
                {
                    "name": "C#3",
                    "midi": 49,
                    "time": 70.14784633333339,
                    "velocity": 0.5590551181102362,
                    "duration": 0.15728216666666128
                },
                {
                    "name": "E2",
                    "midi": 40,
                    "time": 70.14784633333339,
                    "velocity": 0.47244094488188976,
                    "duration": 0.15728216666666128
                },
                {
                    "name": "E3",
                    "midi": 52,
                    "time": 70.30512850000005,
                    "velocity": 0.6141732283464567,
                    "duration": 0.3145643333333368
                },
                {
                    "name": "C#3",
                    "midi": 49,
                    "time": 70.61969283333339,
                    "velocity": 0.47244094488188976,
                    "duration": 0.15728216666666128
                },
                {
                    "name": "E3",
                    "midi": 52,
                    "time": 70.61969283333339,
                    "velocity": 0.5590551181102362,
                    "duration": 0.15728216666666128
                },
                {
                    "name": "C#4",
                    "midi": 61,
                    "time": 70.77697500000005,
                    "velocity": 0.6141732283464567,
                    "duration": 0.3145643333333368
                },
                {
                    "name": "E3",
                    "midi": 52,
                    "time": 71.09153933333339,
                    "velocity": 0.4645669291338583,
                    "duration": 0.15728216666666128
                },
                {
                    "name": "C#4",
                    "midi": 61,
                    "time": 71.09153933333339,
                    "velocity": 0.5511811023622047,
                    "duration": 0.15728216666666128
                },
                {
                    "name": "E4",
                    "midi": 64,
                    "time": 71.24882150000005,
                    "velocity": 0.6141732283464567,
                    "duration": 0.3145643333333368
                },
                {
                    "name": "C#4",
                    "midi": 61,
                    "time": 71.56338583333338,
                    "velocity": 0.4645669291338583,
                    "duration": 0.15728216666666128
                },
                {
                    "name": "E4",
                    "midi": 64,
                    "time": 71.56338583333338,
                    "velocity": 0.5511811023622047,
                    "duration": 0.15728216666666128
                },
                {
                    "name": "A4",
                    "midi": 69,
                    "time": 71.72066800000005,
                    "velocity": 0.6614173228346457,
                    "duration": 0.3145643333333368
                },
                {
                    "name": "E3",
                    "midi": 52,
                    "time": 72.03523233333338,
                    "velocity": 0.4566929133858268,
                    "duration": 0.15728216666666128
                },
                {
                    "name": "C#4",
                    "midi": 61,
                    "time": 72.03523233333338,
                    "velocity": 0.5433070866141733,
                    "duration": 0.15728216666666128
                },
                {
                    "name": "E4",
                    "midi": 64,
                    "time": 72.19251450000004,
                    "velocity": 0.6062992125984252,
                    "duration": 0.15728216666666128
                },
                {
                    "name": "C#4",
                    "midi": 61,
                    "time": 72.3497966666667,
                    "velocity": 0.5511811023622047,
                    "duration": 0.15728216666666128
                },
                {
                    "name": "E3",
                    "midi": 52,
                    "time": 72.50707883333337,
                    "velocity": 0.5511811023622047,
                    "duration": 2.0446681666666535
                },
                {
                    "name": "A#3",
                    "midi": 58,
                    "time": 72.66436100000003,
                    "velocity": 0.5354330708661418,
                    "duration": 1.730103833333331
                },
                {
                    "name": "C#4",
                    "midi": 61,
                    "time": 72.66436100000003,
                    "velocity": 0.5354330708661418,
                    "duration": 1.730103833333331
                },
                {
                    "name": "G#4",
                    "midi": 68,
                    "time": 72.66436100000003,
                    "velocity": 0.6299212598425197,
                    "duration": 1.8873859999999922
                },
                {
                    "name": "D3",
                    "midi": 50,
                    "time": 72.97892533333336,
                    "velocity": 0.4881889763779528,
                    "duration": 0.15728216666666128
                },
                {
                    "name": "A#2",
                    "midi": 46,
                    "time": 73.13620750000003,
                    "velocity": 0.4645669291338583,
                    "duration": 0.3145643333333368
                },
                {
                    "name": "C#3",
                    "midi": 49,
                    "time": 73.13620750000003,
                    "velocity": 0.5590551181102362,
                    "duration": 0.3145643333333368
                },
                {
                    "name": "E2",
                    "midi": 40,
                    "time": 73.45077183333336,
                    "velocity": 0.5196850393700787,
                    "duration": 0.15728216666666128
                },
                {
                    "name": "G#3",
                    "midi": 56,
                    "time": 73.60805400000002,
                    "velocity": 0.5984251968503937,
                    "duration": 0.3145643333333368
                },
                {
                    "name": "D4",
                    "midi": 62,
                    "time": 73.92261833333336,
                    "velocity": 0.4645669291338583,
                    "duration": 0.15728216666666128
                },
                {
                    "name": "A#3",
                    "midi": 58,
                    "time": 74.07990050000002,
                    "velocity": 0.4645669291338583,
                    "duration": 0.47184649999999806
                },
                {
                    "name": "C#4",
                    "midi": 61,
                    "time": 74.07990050000002,
                    "velocity": 0.5590551181102362,
                    "duration": 0.47184649999999806
                },
                {
                    "name": "E3",
                    "midi": 52,
                    "time": 74.39446483333336,
                    "velocity": 0.5354330708661418,
                    "duration": 0.15728216666666128
                },
                {
                    "name": "G#4",
                    "midi": 68,
                    "time": 74.55174700000002,
                    "velocity": 0.5984251968503937,
                    "duration": 0.3145643333333368
                },
                {
                    "name": "D5",
                    "midi": 74,
                    "time": 74.86631133333336,
                    "velocity": 0.5354330708661418,
                    "duration": 0.15728216666666128
                },
                {
                    "name": "A#4",
                    "midi": 70,
                    "time": 75.02359350000002,
                    "velocity": 0.49606299212598426,
                    "duration": 0.3145643333333368
                },
                {
                    "name": "C#5",
                    "midi": 73,
                    "time": 75.02359350000002,
                    "velocity": 0.5905511811023622,
                    "duration": 0.3145643333333368
                },
                {
                    "name": "E4",
                    "midi": 64,
                    "time": 75.33815783333336,
                    "velocity": 0.5511811023622047,
                    "duration": 0.15728216666666128
                },
                {
                    "name": "E2",
                    "midi": 40,
                    "time": 75.49544000000002,
                    "velocity": 0.6141732283464567,
                    "duration": 0.3145643333333368
                },
                {
                    "name": "A1",
                    "midi": 33,
                    "time": 75.49544000000002,
                    "velocity": 0.5196850393700787,
                    "duration": 0.3145643333333368
                },
                {
                    "name": "C#3",
                    "midi": 49,
                    "time": 75.81000433333335,
                    "velocity": 0.5590551181102362,
                    "duration": 0.15728216666666128
                },
                {
                    "name": "E2",
                    "midi": 40,
                    "time": 75.81000433333335,
                    "velocity": 0.47244094488188976,
                    "duration": 0.15728216666666128
                },
                {
                    "name": "E3",
                    "midi": 52,
                    "time": 75.96728650000001,
                    "velocity": 0.6141732283464567,
                    "duration": 0.3145643333333368
                },
                {
                    "name": "C#3",
                    "midi": 49,
                    "time": 76.28185083333335,
                    "velocity": 0.47244094488188976,
                    "duration": 0.15728216666666128
                },
                {
                    "name": "E3",
                    "midi": 52,
                    "time": 76.28185083333335,
                    "velocity": 0.5590551181102362,
                    "duration": 0.15728216666666128
                },
                {
                    "name": "C#4",
                    "midi": 61,
                    "time": 76.43913300000001,
                    "velocity": 0.6141732283464567,
                    "duration": 0.3145643333333368
                },
                {
                    "name": "E3",
                    "midi": 52,
                    "time": 76.75369733333335,
                    "velocity": 0.4645669291338583,
                    "duration": 0.15728216666666128
                },
                {
                    "name": "C#4",
                    "midi": 61,
                    "time": 76.75369733333335,
                    "velocity": 0.5511811023622047,
                    "duration": 0.15728216666666128
                },
                {
                    "name": "E4",
                    "midi": 64,
                    "time": 76.91097950000001,
                    "velocity": 0.6141732283464567,
                    "duration": 0.3145643333333368
                },
                {
                    "name": "C#4",
                    "midi": 61,
                    "time": 77.22554383333335,
                    "velocity": 0.4645669291338583,
                    "duration": 0.15728216666666128
                },
                {
                    "name": "E4",
                    "midi": 64,
                    "time": 77.22554383333335,
                    "velocity": 0.5511811023622047,
                    "duration": 0.15728216666666128
                },
                {
                    "name": "C#5",
                    "midi": 73,
                    "time": 77.38282600000001,
                    "velocity": 0.6614173228346457,
                    "duration": 0.3145643333333368
                },
                {
                    "name": "E3",
                    "midi": 52,
                    "time": 77.69739033333335,
                    "velocity": 0.3858267716535433,
                    "duration": 0.15728216666666128
                },
                {
                    "name": "C#4",
                    "midi": 61,
                    "time": 77.69739033333335,
                    "velocity": 0.4566929133858268,
                    "duration": 0.15728216666666128
                },
                {
                    "name": "E4",
                    "midi": 64,
                    "time": 77.8546725,
                    "velocity": 0.5118110236220472,
                    "duration": 0.15728216666666128
                },
                {
                    "name": "C#4",
                    "midi": 61,
                    "time": 78.01195466666667,
                    "velocity": 0.4645669291338583,
                    "duration": 0.15728216666666128
                },
                {
                    "name": "E3",
                    "midi": 52,
                    "time": 78.16923683333333,
                    "velocity": 0.4645669291338583,
                    "duration": 2.0446681666666535
                },
                {
                    "name": "A#3",
                    "midi": 58,
                    "time": 78.32651899999999,
                    "velocity": 0.5354330708661418,
                    "duration": 1.730103833333331
                },
                {
                    "name": "C#4",
                    "midi": 61,
                    "time": 78.32651899999999,
                    "velocity": 0.5354330708661418,
                    "duration": 1.730103833333331
                },
                {
                    "name": "G#4",
                    "midi": 68,
                    "time": 78.32651899999999,
                    "velocity": 0.6299212598425197,
                    "duration": 1.8873859999999922
                },
                {
                    "name": "D3",
                    "midi": 50,
                    "time": 78.64108333333333,
                    "velocity": 0.4881889763779528,
                    "duration": 0.15728216666666128
                },
                {
                    "name": "A#2",
                    "midi": 46,
                    "time": 78.79836549999999,
                    "velocity": 0.4645669291338583,
                    "duration": 0.3145643333333368
                },
                {
                    "name": "C#3",
                    "midi": 49,
                    "time": 78.79836549999999,
                    "velocity": 0.5590551181102362,
                    "duration": 0.3145643333333368
                },
                {
                    "name": "E2",
                    "midi": 40,
                    "time": 79.11292983333333,
                    "velocity": 0.5196850393700787,
                    "duration": 0.15728216666666128
                },
                {
                    "name": "G#3",
                    "midi": 56,
                    "time": 79.27021199999999,
                    "velocity": 0.5984251968503937,
                    "duration": 0.3145643333333368
                },
                {
                    "name": "D4",
                    "midi": 62,
                    "time": 79.58477633333332,
                    "velocity": 0.4645669291338583,
                    "duration": 0.15728216666666128
                },
                {
                    "name": "A#3",
                    "midi": 58,
                    "time": 79.74205849999998,
                    "velocity": 0.4645669291338583,
                    "duration": 0.47184649999999806
                },
                {
                    "name": "C#4",
                    "midi": 61,
                    "time": 79.74205849999998,
                    "velocity": 0.5590551181102362,
                    "duration": 0.47184649999999806
                },
                {
                    "name": "E3",
                    "midi": 52,
                    "time": 80.05662283333332,
                    "velocity": 0.5354330708661418,
                    "duration": 0.15728216666666128
                },
                {
                    "name": "G#4",
                    "midi": 68,
                    "time": 80.21390499999998,
                    "velocity": 0.5984251968503937,
                    "duration": 0.3145643333333368
                },
                {
                    "name": "D5",
                    "midi": 74,
                    "time": 80.52846933333332,
                    "velocity": 0.5354330708661418,
                    "duration": 0.15728216666666128
                },
                {
                    "name": "A#4",
                    "midi": 70,
                    "time": 80.68575149999998,
                    "velocity": 0.49606299212598426,
                    "duration": 0.3145643333333368
                },
                {
                    "name": "C#5",
                    "midi": 73,
                    "time": 80.68575149999998,
                    "velocity": 0.5905511811023622,
                    "duration": 0.3145643333333368
                },
                {
                    "name": "E4",
                    "midi": 64,
                    "time": 81.00031583333332,
                    "velocity": 0.5511811023622047,
                    "duration": 0.15728216666666128
                },
                {
                    "name": "E2",
                    "midi": 40,
                    "time": 81.15759799999998,
                    "velocity": 0.6141732283464567,
                    "duration": 0.3145643333333368
                },
                {
                    "name": "A1",
                    "midi": 33,
                    "time": 81.15759799999998,
                    "velocity": 0.5196850393700787,
                    "duration": 0.3145643333333368
                },
                {
                    "name": "C#3",
                    "midi": 49,
                    "time": 81.47216233333332,
                    "velocity": 0.47244094488188976,
                    "duration": 0.15728216666666128
                },
                {
                    "name": "E2",
                    "midi": 40,
                    "time": 81.47216233333332,
                    "velocity": 0.4015748031496063,
                    "duration": 0.15728216666666128
                },
                {
                    "name": "E3",
                    "midi": 52,
                    "time": 81.62944449999998,
                    "velocity": 0.5196850393700787,
                    "duration": 0.3145643333333368
                },
                {
                    "name": "C#3",
                    "midi": 49,
                    "time": 81.94400883333331,
                    "velocity": 0.4015748031496063,
                    "duration": 0.15728216666666128
                },
                {
                    "name": "E3",
                    "midi": 52,
                    "time": 81.94400883333331,
                    "velocity": 0.47244094488188976,
                    "duration": 0.15728216666666128
                },
                {
                    "name": "C#4",
                    "midi": 61,
                    "time": 82.10129099999997,
                    "velocity": 0.5196850393700787,
                    "duration": 0.3145643333333368
                },
                {
                    "name": "E3",
                    "midi": 52,
                    "time": 82.41585533333331,
                    "velocity": 0.3937007874015748,
                    "duration": 0.15728216666666128
                },
                {
                    "name": "C#4",
                    "midi": 61,
                    "time": 82.41585533333331,
                    "velocity": 0.4645669291338583,
                    "duration": 0.15728216666666128
                },
                {
                    "name": "E4",
                    "midi": 64,
                    "time": 82.57313749999997,
                    "velocity": 0.5196850393700787,
                    "duration": 0.3145643333333368
                },
                {
                    "name": "G#3",
                    "midi": 56,
                    "time": 82.88770183333331,
                    "velocity": 0.3937007874015748,
                    "duration": 0.15728216666666128
                },
                {
                    "name": "C#4",
                    "midi": 61,
                    "time": 82.88770183333331,
                    "velocity": 0.4645669291338583,
                    "duration": 0.15728216666666128
                },
                {
                    "name": "G#4",
                    "midi": 68,
                    "time": 83.04498399999997,
                    "velocity": 0.5590551181102362,
                    "duration": 0.3145643333333368
                },
                {
                    "name": "E3",
                    "midi": 52,
                    "time": 83.35954833333331,
                    "velocity": 0.3858267716535433,
                    "duration": 0.15728216666666128
                },
                {
                    "name": "C#4",
                    "midi": 61,
                    "time": 83.35954833333331,
                    "velocity": 0.4566929133858268,
                    "duration": 0.15728216666666128
                },
                {
                    "name": "E4",
                    "midi": 64,
                    "time": 83.51683049999997,
                    "velocity": 0.5118110236220472,
                    "duration": 0.3145643333333368
                },
                {
                    "name": "G#1",
                    "midi": 32,
                    "time": 83.8313948333333,
                    "velocity": 0.3937007874015748,
                    "duration": 0.15728216666666128
                },
                {
                    "name": "E2",
                    "midi": 40,
                    "time": 83.8313948333333,
                    "velocity": 0.4645669291338583,
                    "duration": 0.15728216666666128
                },
                {
                    "name": "G#2",
                    "midi": 44,
                    "time": 83.98867699999997,
                    "velocity": 0.5196850393700787,
                    "duration": 0.3145643333333368
                },
                {
                    "name": "C#3",
                    "midi": 49,
                    "time": 84.3032413333333,
                    "velocity": 0.48031496062992124,
                    "duration": 0.15728216666666128
                },
                {
                    "name": "E2",
                    "midi": 40,
                    "time": 84.3032413333333,
                    "velocity": 0.4015748031496063,
                    "duration": 0.15728216666666128
                },
                {
                    "name": "E3",
                    "midi": 52,
                    "time": 84.46052349999997,
                    "velocity": 0.5275590551181102,
                    "duration": 0.3145643333333368
                },
                {
                    "name": "C#3",
                    "midi": 49,
                    "time": 84.7750878333333,
                    "velocity": 0.41732283464566927,
                    "duration": 0.15728216666666128
                },
                {
                    "name": "E3",
                    "midi": 52,
                    "time": 84.7750878333333,
                    "velocity": 0.49606299212598426,
                    "duration": 0.15728216666666128
                },
                {
                    "name": "C#4",
                    "midi": 61,
                    "time": 84.93236999999996,
                    "velocity": 0.5433070866141733,
                    "duration": 0.3145643333333368
                },
                {
                    "name": "E3",
                    "midi": 52,
                    "time": 85.2469343333333,
                    "velocity": 0.41732283464566927,
                    "duration": 0.15728216666666128
                },
                {
                    "name": "C#4",
                    "midi": 61,
                    "time": 85.2469343333333,
                    "velocity": 0.49606299212598426,
                    "duration": 0.15728216666666128
                },
                {
                    "name": "E4",
                    "midi": 64,
                    "time": 85.40421649999996,
                    "velocity": 0.5590551181102362,
                    "duration": 0.3145643333333368
                },
                {
                    "name": "A3",
                    "midi": 57,
                    "time": 85.7187808333333,
                    "velocity": 0.4330708661417323,
                    "duration": 0.15728216666666128
                },
                {
                    "name": "C#4",
                    "midi": 61,
                    "time": 85.7187808333333,
                    "velocity": 0.5118110236220472,
                    "duration": 0.15728216666666128
                },
                {
                    "name": "A4",
                    "midi": 69,
                    "time": 85.87606299999996,
                    "velocity": 0.6220472440944882,
                    "duration": 0.3145643333333368
                },
                {
                    "name": "C#4",
                    "midi": 61,
                    "time": 86.1906273333333,
                    "velocity": 0.5354330708661418,
                    "duration": 0.15728216666666128
                },
                {
                    "name": "E3",
                    "midi": 52,
                    "time": 86.1906273333333,
                    "velocity": 0.44881889763779526,
                    "duration": 0.15728216666666128
                },
                {
                    "name": "E4",
                    "midi": 64,
                    "time": 86.34790949999996,
                    "velocity": 0.5905511811023622,
                    "duration": 0.3145643333333368
                },
                {
                    "name": "A1",
                    "midi": 33,
                    "time": 86.6624738333333,
                    "velocity": 0.4566929133858268,
                    "duration": 0.15728216666666128
                },
                {
                    "name": "E2",
                    "midi": 40,
                    "time": 86.6624738333333,
                    "velocity": 0.5433070866141733,
                    "duration": 0.15728216666666128
                },
                {
                    "name": "F#2",
                    "midi": 42,
                    "time": 86.81975599999996,
                    "velocity": 0.5196850393700787,
                    "duration": 0.3145643333333368
                },
                {
                    "name": "F#2",
                    "midi": 42,
                    "time": 87.13432033333329,
                    "velocity": 0.48031496062992124,
                    "duration": 0.15728216666666128
                },
                {
                    "name": "A#3",
                    "midi": 58,
                    "time": 87.29160249999995,
                    "velocity": 0.5275590551181102,
                    "duration": 0.3145643333333368
                },
                {
                    "name": "E3",
                    "midi": 52,
                    "time": 87.29160249999995,
                    "velocity": 0.5275590551181102,
                    "duration": 0.3145643333333368
                },
                {
                    "name": "E3",
                    "midi": 52,
                    "time": 87.60616683333329,
                    "velocity": 0.49606299212598426,
                    "duration": 0.15728216666666128
                },
                {
                    "name": "A#3",
                    "midi": 58,
                    "time": 87.76344899999995,
                    "velocity": 0.5039370078740157,
                    "duration": 0.3145643333333368
                },
                {
                    "name": "E4",
                    "midi": 64,
                    "time": 87.76344899999995,
                    "velocity": 0.5433070866141733,
                    "duration": 0.3145643333333368
                },
                {
                    "name": "A#3",
                    "midi": 58,
                    "time": 88.07801333333329,
                    "velocity": 0.49606299212598426,
                    "duration": 0.15728216666666128
                },
                {
                    "name": "E4",
                    "midi": 64,
                    "time": 88.23529549999995,
                    "velocity": 0.5275590551181102,
                    "duration": 0.3145643333333368
                },
                {
                    "name": "A#4",
                    "midi": 70,
                    "time": 88.23529549999995,
                    "velocity": 0.5590551181102362,
                    "duration": 0.3145643333333368
                },
                {
                    "name": "E3",
                    "midi": 52,
                    "time": 88.54985983333329,
                    "velocity": 0.5118110236220472,
                    "duration": 0.15728216666666128
                },
                {
                    "name": "A#3",
                    "midi": 58,
                    "time": 88.70714199999995,
                    "velocity": 0.5826771653543307,
                    "duration": 0.3145643333333368
                },
                {
                    "name": "E4",
                    "midi": 64,
                    "time": 88.70714199999995,
                    "velocity": 0.6220472440944882,
                    "duration": 0.3145643333333368
                },
                {
                    "name": "F#2",
                    "midi": 42,
                    "time": 89.02170633333328,
                    "velocity": 0.5354330708661418,
                    "duration": 0.15728216666666128
                },
                {
                    "name": "E3",
                    "midi": 52,
                    "time": 89.17898849999995,
                    "velocity": 0.5905511811023622,
                    "duration": 0.9436929999999961
                },
                {
                    "name": "A#3",
                    "midi": 58,
                    "time": 89.17898849999995,
                    "velocity": 0.5905511811023622,
                    "duration": 0.9436929999999961
                },
                {
                    "name": "F#2",
                    "midi": 42,
                    "time": 90.12268149999994,
                    "velocity": 0.5433070866141733,
                    "duration": 0.15728216666666128
                },
                {
                    "name": "E3",
                    "midi": 52,
                    "time": 90.2799636666666,
                    "velocity": 0.6220472440944882,
                    "duration": 0.3145643333333368
                },
                {
                    "name": "E1",
                    "midi": 28,
                    "time": 90.59452799999994,
                    "velocity": 0.5118110236220472,
                    "duration": 2.831078999999903
                },
                {
                    "name": "E2",
                    "midi": 40,
                    "time": 90.59452799999994,
                    "velocity": 0.5433070866141733,
                    "duration": 2.5165146666665805
                },
                {
                    "name": "B2",
                    "midi": 47,
                    "time": 90.7518101666666,
                    "velocity": 0.5669291338582677,
                    "duration": 0.15728216666666128
                },
                {
                    "name": "G#3",
                    "midi": 56,
                    "time": 90.90909233333326,
                    "velocity": 0.5905511811023622,
                    "duration": 0.15728216666666128
                },
                {
                    "name": "B3",
                    "midi": 59,
                    "time": 91.06637449999992,
                    "velocity": 0.6141732283464567,
                    "duration": 0.15728216666666128
                },
                {
                    "name": "G#3",
                    "midi": 56,
                    "time": 91.22365666666659,
                    "velocity": 0.5433070866141733,
                    "duration": 0.15728216666666128
                },
                {
                    "name": "E4",
                    "midi": 64,
                    "time": 91.38093883333325,
                    "velocity": 0.5433070866141733,
                    "duration": 0.15728216666666128
                },
                {
                    "name": "E5",
                    "midi": 76,
                    "time": 91.69550316666657,
                    "velocity": 0.5433070866141733,
                    "duration": 0.15728216666666128
                },
                {
                    "name": "G#4",
                    "midi": 68,
                    "time": 91.85278533333323,
                    "velocity": 0.5433070866141733,
                    "duration": 0.15728216666666128
                },
                {
                    "name": "B4",
                    "midi": 71,
                    "time": 92.01006749999989,
                    "velocity": 0.6141732283464567,
                    "duration": 0.15728216666666128
                },
                {
                    "name": "E4",
                    "midi": 64,
                    "time": 92.16734966666655,
                    "velocity": 0.5433070866141733,
                    "duration": 0.15728216666666128
                },
                {
                    "name": "B3",
                    "midi": 59,
                    "time": 92.32463183333321,
                    "velocity": 0.5196850393700787,
                    "duration": 0.15728216666666128
                },
                {
                    "name": "E3",
                    "midi": 52,
                    "time": 92.63919616666654,
                    "velocity": 0.5433070866141733,
                    "duration": 0.15728216666666128
                },
                {
                    "name": "B2",
                    "midi": 47,
                    "time": 92.7964783333332,
                    "velocity": 0.5433070866141733,
                    "duration": 0.15728216666666128
                },
                {
                    "name": "E2",
                    "midi": 40,
                    "time": 92.95376049999986,
                    "velocity": 0.6062992125984252,
                    "duration": 0.31456433333332257
                },
                {
                    "name": "E2",
                    "midi": 40,
                    "time": 93.11104266666652,
                    "velocity": 0.5433070866141733,
                    "duration": 0.31456433333332257
                },
                {
                    "name": "E1",
                    "midi": 28,
                    "time": 93.26832483333318,
                    "velocity": 0.5433070866141733,
                    "duration": 0.15728216666666128
                },
                {
                    "name": "D#1",
                    "midi": 27,
                    "time": 93.42560699999984,
                    "velocity": 0.5118110236220472,
                    "duration": 2.831078999999903
                },
                {
                    "name": "D#2",
                    "midi": 39,
                    "time": 93.42560699999984,
                    "velocity": 0.5433070866141733,
                    "duration": 2.831078999999903
                },
                {
                    "name": "G#2",
                    "midi": 44,
                    "time": 93.5828891666665,
                    "velocity": 0.5669291338582677,
                    "duration": 0.15728216666666128
                },
                {
                    "name": "F#3",
                    "midi": 54,
                    "time": 93.74017133333317,
                    "velocity": 0.5905511811023622,
                    "duration": 0.15728216666666128
                },
                {
                    "name": "C4",
                    "midi": 60,
                    "time": 93.89745349999983,
                    "velocity": 0.6141732283464567,
                    "duration": 0.15728216666666128
                },
                {
                    "name": "G#3",
                    "midi": 56,
                    "time": 94.05473566666649,
                    "velocity": 0.5433070866141733,
                    "duration": 0.15728216666666128
                },
                {
                    "name": "F#4",
                    "midi": 66,
                    "time": 94.21201783333315,
                    "velocity": 0.5433070866141733,
                    "duration": 0.15728216666666128
                },
                {
                    "name": "F#5",
                    "midi": 78,
                    "time": 94.52658216666647,
                    "velocity": 0.5433070866141733,
                    "duration": 0.15728216666666128
                },
                {
                    "name": "G#4",
                    "midi": 68,
                    "time": 94.68386433333313,
                    "velocity": 0.5433070866141733,
                    "duration": 0.15728216666666128
                },
                {
                    "name": "C5",
                    "midi": 72,
                    "time": 94.8411464999998,
                    "velocity": 0.6141732283464567,
                    "duration": 0.15728216666666128
                },
                {
                    "name": "F#4",
                    "midi": 66,
                    "time": 94.99842866666646,
                    "velocity": 0.5433070866141733,
                    "duration": 0.15728216666666128
                },
                {
                    "name": "G#3",
                    "midi": 56,
                    "time": 95.15571083333312,
                    "velocity": 0.5196850393700787,
                    "duration": 0.15728216666666128
                },
                {
                    "name": "F#3",
                    "midi": 54,
                    "time": 95.47027516666644,
                    "velocity": 0.5433070866141733,
                    "duration": 0.15728216666666128
                },
                {
                    "name": "G#2",
                    "midi": 44,
                    "time": 95.6275573333331,
                    "velocity": 0.5433070866141733,
                    "duration": 0.15728216666666128
                },
                {
                    "name": "G#2",
                    "midi": 44,
                    "time": 95.78483949999976,
                    "velocity": 0.6062992125984252,
                    "duration": 0.15728216666666128
                },
                {
                    "name": "G#1",
                    "midi": 32,
                    "time": 95.94212166666642,
                    "velocity": 0.5433070866141733,
                    "duration": 0.15728216666666128
                },
                {
                    "name": "C#1",
                    "midi": 25,
                    "time": 96.25668599999975,
                    "velocity": 0.5433070866141733,
                    "duration": 0.47184649999999806
                },
                {
                    "name": "C#2",
                    "midi": 37,
                    "time": 96.25668599999975,
                    "velocity": 0.5433070866141733,
                    "duration": 0.47184649999999806
                },
                {
                    "name": "C#2",
                    "midi": 37,
                    "time": 96.72853249999974,
                    "velocity": 0.5039370078740157,
                    "duration": 0.15728216666666128
                },
                {
                    "name": "G#2",
                    "midi": 44,
                    "time": 96.8858146666664,
                    "velocity": 0.5039370078740157,
                    "duration": 0.15728216666666128
                },
                {
                    "name": "C#3",
                    "midi": 49,
                    "time": 97.04309683333307,
                    "velocity": 0.5039370078740157,
                    "duration": 0.15728216666666128
                },
                {
                    "name": "G#3",
                    "midi": 56,
                    "time": 97.20037899999973,
                    "velocity": 0.5590551181102362,
                    "duration": 0.15728216666666128
                },
                {
                    "name": "C#3",
                    "midi": 49,
                    "time": 97.35766116666639,
                    "velocity": 0.49606299212598426,
                    "duration": 0.15728216666666128
                },
                {
                    "name": "G#2",
                    "midi": 44,
                    "time": 97.51494333333305,
                    "velocity": 0.49606299212598426,
                    "duration": 0.15728216666666128
                },
                {
                    "name": "C#2",
                    "midi": 37,
                    "time": 97.67222549999971,
                    "velocity": 0.4881889763779528,
                    "duration": 0.15728216666666128
                },
                {
                    "name": "C#1",
                    "midi": 25,
                    "time": 97.82950766666637,
                    "velocity": 0.4881889763779528,
                    "duration": 0.15728216666666128
                },
                {
                    "name": "G#2",
                    "midi": 44,
                    "time": 97.98678983333303,
                    "velocity": 0.4881889763779528,
                    "duration": 0.15728216666666128
                },
                {
                    "name": "G#3",
                    "midi": 56,
                    "time": 98.1440719999997,
                    "velocity": 0.5433070866141733,
                    "duration": 0.15728216666666128
                },
                {
                    "name": "C#3",
                    "midi": 49,
                    "time": 98.30135416666636,
                    "velocity": 0.4881889763779528,
                    "duration": 0.15728216666666128
                },
                {
                    "name": "G#2",
                    "midi": 44,
                    "time": 98.45863633333302,
                    "velocity": 0.4881889763779528,
                    "duration": 0.15728216666666128
                },
                {
                    "name": "C#2",
                    "midi": 37,
                    "time": 98.61591849999968,
                    "velocity": 0.5433070866141733,
                    "duration": 0.15728216666666128
                },
                {
                    "name": "C#1",
                    "midi": 25,
                    "time": 98.77320066666634,
                    "velocity": 0.4881889763779528,
                    "duration": 0.15728216666666128
                },
                {
                    "name": "G2",
                    "midi": 43,
                    "time": 98.930482833333,
                    "velocity": 0.49606299212598426,
                    "duration": 0.15728216666666128
                },
                {
                    "name": "G3",
                    "midi": 55,
                    "time": 99.08776499999966,
                    "velocity": 0.5433070866141733,
                    "duration": 0.15728216666666128
                },
                {
                    "name": "C#3",
                    "midi": 49,
                    "time": 99.24504716666632,
                    "velocity": 0.48031496062992124,
                    "duration": 0.15728216666666128
                },
                {
                    "name": "G2",
                    "midi": 43,
                    "time": 99.40232933333299,
                    "velocity": 0.48031496062992124,
                    "duration": 0.15728216666666128
                },
                {
                    "name": "C#2",
                    "midi": 37,
                    "time": 99.55961149999965,
                    "velocity": 0.5354330708661418,
                    "duration": 0.15728216666666128
                },
                {
                    "name": "C#1",
                    "midi": 25,
                    "time": 99.71689366666631,
                    "velocity": 0.4881889763779528,
                    "duration": 0.15728216666666128
                },
                {
                    "name": "G2",
                    "midi": 43,
                    "time": 99.87417583333297,
                    "velocity": 0.4645669291338583,
                    "duration": 0.15728216666666128
                },
                {
                    "name": "G3",
                    "midi": 55,
                    "time": 100.03145799999963,
                    "velocity": 0.5433070866141733,
                    "duration": 0.15728216666666128
                },
                {
                    "name": "C#3",
                    "midi": 49,
                    "time": 100.18874016666629,
                    "velocity": 0.4881889763779528,
                    "duration": 0.15728216666666128
                },
                {
                    "name": "G2",
                    "midi": 43,
                    "time": 100.34602233333295,
                    "velocity": 0.4881889763779528,
                    "duration": 0.15728216666666128
                },
                {
                    "name": "C#2",
                    "midi": 37,
                    "time": 100.50330449999962,
                    "velocity": 0.5433070866141733,
                    "duration": 0.15728216666666128
                },
                {
                    "name": "C#1",
                    "midi": 25,
                    "time": 100.66058666666628,
                    "velocity": 0.5039370078740157,
                    "duration": 0.15728216666666128
                },
                {
                    "name": "G2",
                    "midi": 43,
                    "time": 100.81786883333294,
                    "velocity": 0.5118110236220472,
                    "duration": 0.15728216666666128
                },
                {
                    "name": "G3",
                    "midi": 55,
                    "time": 100.9751509999996,
                    "velocity": 0.5433070866141733,
                    "duration": 0.15728216666666128
                },
                {
                    "name": "C#3",
                    "midi": 49,
                    "time": 101.13243316666626,
                    "velocity": 0.49606299212598426,
                    "duration": 0.15728216666666128
                },
                {
                    "name": "G2",
                    "midi": 43,
                    "time": 101.28971533333292,
                    "velocity": 0.49606299212598426,
                    "duration": 0.15728216666666128
                },
                {
                    "name": "C#2",
                    "midi": 37,
                    "time": 101.44699749999958,
                    "velocity": 0.5433070866141733,
                    "duration": 0.15728216666666128
                },
                {
                    "name": "C#1",
                    "midi": 25,
                    "time": 101.60427966666624,
                    "velocity": 0.48031496062992124,
                    "duration": 0.15728216666666128
                },
                {
                    "name": "F#2",
                    "midi": 42,
                    "time": 101.7615618333329,
                    "velocity": 0.48031496062992124,
                    "duration": 0.15728216666666128
                },
                {
                    "name": "F#3",
                    "midi": 54,
                    "time": 101.91884399999957,
                    "velocity": 0.5433070866141733,
                    "duration": 0.15728216666666128
                },
                {
                    "name": "A2",
                    "midi": 45,
                    "time": 102.07612616666623,
                    "velocity": 0.4881889763779528,
                    "duration": 0.15728216666666128
                },
                {
                    "name": "F#2",
                    "midi": 42,
                    "time": 102.23340833333289,
                    "velocity": 0.4881889763779528,
                    "duration": 0.15728216666666128
                },
                {
                    "name": "C#2",
                    "midi": 37,
                    "time": 102.39069049999955,
                    "velocity": 0.5039370078740157,
                    "duration": 0.15728216666666128
                },
                {
                    "name": "C#1",
                    "midi": 25,
                    "time": 102.54797266666621,
                    "velocity": 0.4645669291338583,
                    "duration": 0.15728216666666128
                },
                {
                    "name": "F#2",
                    "midi": 42,
                    "time": 102.70525483333287,
                    "velocity": 0.4645669291338583,
                    "duration": 0.15728216666666128
                },
                {
                    "name": "F#3",
                    "midi": 54,
                    "time": 102.86253699999953,
                    "velocity": 0.5433070866141733,
                    "duration": 0.15728216666666128
                },
                {
                    "name": "A2",
                    "midi": 45,
                    "time": 103.0198191666662,
                    "velocity": 0.4881889763779528,
                    "duration": 0.15728216666666128
                },
                {
                    "name": "F#2",
                    "midi": 42,
                    "time": 103.17710133333286,
                    "velocity": 0.4566929133858268,
                    "duration": 0.15728216666666128
                },
                {
                    "name": "C#2",
                    "midi": 37,
                    "time": 103.33438349999952,
                    "velocity": 0.5354330708661418,
                    "duration": 0.15728216666666128
                },
                {
                    "name": "C#1",
                    "midi": 25,
                    "time": 103.49166566666618,
                    "velocity": 0.4645669291338583,
                    "duration": 0.15728216666666128
                },
                {
                    "name": "F#2",
                    "midi": 42,
                    "time": 103.64894783333284,
                    "velocity": 0.4645669291338583,
                    "duration": 0.15728216666666128
                },
                {
                    "name": "F#3",
                    "midi": 54,
                    "time": 103.8062299999995,
                    "velocity": 0.5433070866141733,
                    "duration": 0.15728216666666128
                },
                {
                    "name": "A2",
                    "midi": 45,
                    "time": 103.96351216666616,
                    "velocity": 0.4645669291338583,
                    "duration": 0.15728216666666128
                },
                {
                    "name": "F#2",
                    "midi": 42,
                    "time": 104.12079433333282,
                    "velocity": 0.4645669291338583,
                    "duration": 0.15728216666666128
                },
                {
                    "name": "C#2",
                    "midi": 37,
                    "time": 104.27807649999949,
                    "velocity": 0.5118110236220472,
                    "duration": 0.15728216666666128
                },
                {
                    "name": "C#1",
                    "midi": 25,
                    "time": 104.43535866666615,
                    "velocity": 0.4645669291338583,
                    "duration": 0.15728216666666128
                },
                {
                    "name": "G2",
                    "midi": 43,
                    "time": 104.59264083333281,
                    "velocity": 0.4645669291338583,
                    "duration": 0.15728216666666128
                },
                {
                    "name": "G3",
                    "midi": 55,
                    "time": 104.74992299999947,
                    "velocity": 0.5433070866141733,
                    "duration": 0.15728216666666128
                },
                {
                    "name": "A2",
                    "midi": 45,
                    "time": 104.90720516666613,
                    "velocity": 0.4566929133858268,
                    "duration": 0.15728216666666128
                },
                {
                    "name": "G2",
                    "midi": 43,
                    "time": 105.06448733333279,
                    "velocity": 0.4566929133858268,
                    "duration": 0.15728216666666128
                },
                {
                    "name": "C#2",
                    "midi": 37,
                    "time": 105.22176949999945,
                    "velocity": 0.5118110236220472,
                    "duration": 0.15728216666666128
                },
                {
                    "name": "C#1",
                    "midi": 25,
                    "time": 105.37905166666611,
                    "velocity": 0.4409448818897638,
                    "duration": 0.15728216666666128
                },
                {
                    "name": "G2",
                    "midi": 43,
                    "time": 105.53633383333278,
                    "velocity": 0.4409448818897638,
                    "duration": 0.15728216666666128
                },
                {
                    "name": "G3",
                    "midi": 55,
                    "time": 105.69361599999944,
                    "velocity": 0.5511811023622047,
                    "duration": 0.15728216666666128
                },
                {
                    "name": "A2",
                    "midi": 45,
                    "time": 105.8508981666661,
                    "velocity": 0.4566929133858268,
                    "duration": 0.15728216666666128
                },
                {
                    "name": "G2",
                    "midi": 43,
                    "time": 106.00818033333276,
                    "velocity": 0.4330708661417323,
                    "duration": 0.15728216666666128
                },
                {
                    "name": "C#2",
                    "midi": 37,
                    "time": 106.16546249999942,
                    "velocity": 0.4881889763779528,
                    "duration": 0.15728216666666128
                },
                {
                    "name": "C#1",
                    "midi": 25,
                    "time": 106.32274466666608,
                    "velocity": 0.41732283464566927,
                    "duration": 0.15728216666666128
                },
                {
                    "name": "G2",
                    "midi": 43,
                    "time": 106.48002683333274,
                    "velocity": 0.41732283464566927,
                    "duration": 0.15728216666666128
                },
                {
                    "name": "G3",
                    "midi": 55,
                    "time": 106.6373089999994,
                    "velocity": 0.5433070866141733,
                    "duration": 0.15728216666666128
                },
                {
                    "name": "A2",
                    "midi": 45,
                    "time": 106.79459116666607,
                    "velocity": 0.44881889763779526,
                    "duration": 0.15728216666666128
                },
                {
                    "name": "G2",
                    "midi": 43,
                    "time": 106.95187333333273,
                    "velocity": 0.44881889763779526,
                    "duration": 0.15728216666666128
                },
                {
                    "name": "C#2",
                    "midi": 37,
                    "time": 107.10915549999939,
                    "velocity": 0.49606299212598426,
                    "duration": 0.15728216666666128
                },
                {
                    "name": "C#1",
                    "midi": 25,
                    "time": 107.26643766666605,
                    "velocity": 0.4330708661417323,
                    "duration": 0.15728216666666128
                },
                {
                    "name": "G#2",
                    "midi": 44,
                    "time": 107.42371983333271,
                    "velocity": 0.4330708661417323,
                    "duration": 0.15728216666666128
                },
                {
                    "name": "G#3",
                    "midi": 56,
                    "time": 107.58100199999937,
                    "velocity": 0.5433070866141733,
                    "duration": 0.15728216666666128
                },
                {
                    "name": "C#3",
                    "midi": 49,
                    "time": 107.73828416666603,
                    "velocity": 0.4566929133858268,
                    "duration": 0.15728216666666128
                },
                {
                    "name": "G#2",
                    "midi": 44,
                    "time": 107.8955663333327,
                    "velocity": 0.4566929133858268,
                    "duration": 0.15728216666666128
                },
                {
                    "name": "C#2",
                    "midi": 37,
                    "time": 108.05284849999936,
                    "velocity": 0.5118110236220472,
                    "duration": 0.15728216666666128
                },
                {
                    "name": "C#1",
                    "midi": 25,
                    "time": 108.21013066666602,
                    "velocity": 0.4409448818897638,
                    "duration": 0.15728216666666128
                },
                {
                    "name": "G#2",
                    "midi": 44,
                    "time": 108.36741283333268,
                    "velocity": 0.4409448818897638,
                    "duration": 0.15728216666666128
                },
                {
                    "name": "G#3",
                    "midi": 56,
                    "time": 108.52469499999934,
                    "velocity": 0.5433070866141733,
                    "duration": 0.15728216666666128
                },
                {
                    "name": "C#3",
                    "midi": 49,
                    "time": 108.681977166666,
                    "velocity": 0.4566929133858268,
                    "duration": 0.15728216666666128
                },
                {
                    "name": "G#2",
                    "midi": 44,
                    "time": 108.83925933333266,
                    "velocity": 0.4566929133858268,
                    "duration": 0.15728216666666128
                },
                {
                    "name": "C#2",
                    "midi": 37,
                    "time": 108.99654149999932,
                    "velocity": 0.49606299212598426,
                    "duration": 0.15728216666666128
                },
                {
                    "name": "C#1",
                    "midi": 25,
                    "time": 109.15382366666599,
                    "velocity": 0.44881889763779526,
                    "duration": 0.15728216666666128
                },
                {
                    "name": "G#2",
                    "midi": 44,
                    "time": 109.31110583333265,
                    "velocity": 0.44881889763779526,
                    "duration": 0.15728216666666128
                },
                {
                    "name": "G#3",
                    "midi": 56,
                    "time": 109.46838799999931,
                    "velocity": 0.5433070866141733,
                    "duration": 0.15728216666666128
                },
                {
                    "name": "C#3",
                    "midi": 49,
                    "time": 109.62567016666597,
                    "velocity": 0.4645669291338583,
                    "duration": 0.15728216666666128
                },
                {
                    "name": "G#2",
                    "midi": 44,
                    "time": 109.78295233333263,
                    "velocity": 0.4645669291338583,
                    "duration": 0.15728216666666128
                },
                {
                    "name": "C#2",
                    "midi": 37,
                    "time": 109.94023449999929,
                    "velocity": 0.5039370078740157,
                    "duration": 0.15728216666666128
                },
                {
                    "name": "C#1",
                    "midi": 25,
                    "time": 110.09751666666595,
                    "velocity": 0.4645669291338583,
                    "duration": 0.15728216666666128
                },
                {
                    "name": "A#2",
                    "midi": 46,
                    "time": 110.25479883333261,
                    "velocity": 0.4645669291338583,
                    "duration": 0.15728216666666128
                },
                {
                    "name": "A#3",
                    "midi": 58,
                    "time": 110.41208099999928,
                    "velocity": 0.5433070866141733,
                    "duration": 0.15728216666666128
                },
                {
                    "name": "C#3",
                    "midi": 49,
                    "time": 110.56936316666594,
                    "velocity": 0.4645669291338583,
                    "duration": 0.15728216666666128
                },
                {
                    "name": "A#2",
                    "midi": 46,
                    "time": 110.7266453333326,
                    "velocity": 0.4645669291338583,
                    "duration": 0.15728216666666128
                },
                {
                    "name": "C#2",
                    "midi": 37,
                    "time": 110.88392749999926,
                    "velocity": 0.5039370078740157,
                    "duration": 0.15728216666666128
                },
                {
                    "name": "C#1",
                    "midi": 25,
                    "time": 111.04120966666592,
                    "velocity": 0.4566929133858268,
                    "duration": 0.15728216666666128
                },
                {
                    "name": "A#2",
                    "midi": 46,
                    "time": 111.19849183333258,
                    "velocity": 0.4566929133858268,
                    "duration": 0.15728216666666128
                },
                {
                    "name": "A#3",
                    "midi": 58,
                    "time": 111.35577399999924,
                    "velocity": 0.5433070866141733,
                    "duration": 0.15728216666666128
                },
                {
                    "name": "C#3",
                    "midi": 49,
                    "time": 111.5130561666659,
                    "velocity": 0.4566929133858268,
                    "duration": 0.15728216666666128
                },
                {
                    "name": "A#2",
                    "midi": 46,
                    "time": 111.67033833333257,
                    "velocity": 0.4566929133858268,
                    "duration": 0.15728216666666128
                },
                {
                    "name": "C#2",
                    "midi": 37,
                    "time": 111.82762049999923,
                    "velocity": 0.49606299212598426,
                    "duration": 0.15728216666666128
                },
                {
                    "name": "C#1",
                    "midi": 25,
                    "time": 111.98490266666589,
                    "velocity": 0.44881889763779526,
                    "duration": 0.15728216666666128
                },
                {
                    "name": "A#2",
                    "midi": 46,
                    "time": 112.14218483333255,
                    "velocity": 0.44881889763779526,
                    "duration": 0.15728216666666128
                },
                {
                    "name": "A#3",
                    "midi": 58,
                    "time": 112.29946699999921,
                    "velocity": 0.5433070866141733,
                    "duration": 0.15728216666666128
                },
                {
                    "name": "C#3",
                    "midi": 49,
                    "time": 112.45674916666587,
                    "velocity": 0.4566929133858268,
                    "duration": 0.15728216666666128
                },
                {
                    "name": "A#2",
                    "midi": 46,
                    "time": 112.61403133333253,
                    "velocity": 0.4566929133858268,
                    "duration": 0.15728216666666128
                },
                {
                    "name": "C#2",
                    "midi": 37,
                    "time": 112.7713134999992,
                    "velocity": 0.49606299212598426,
                    "duration": 0.15728216666666128
                },
                {
                    "name": "C#1",
                    "midi": 25,
                    "time": 112.92859566666586,
                    "velocity": 0.4566929133858268,
                    "duration": 0.15728216666666128
                },
                {
                    "name": "B2",
                    "midi": 47,
                    "time": 113.08587783333252,
                    "velocity": 0.4566929133858268,
                    "duration": 0.15728216666666128
                },
                {
                    "name": "B3",
                    "midi": 59,
                    "time": 113.24315999999918,
                    "velocity": 0.5433070866141733,
                    "duration": 0.15728216666666128
                },
                {
                    "name": "E3",
                    "midi": 52,
                    "time": 113.40044216666584,
                    "velocity": 0.4881889763779528,
                    "duration": 0.15728216666666128
                },
                {
                    "name": "B2",
                    "midi": 47,
                    "time": 113.5577243333325,
                    "velocity": 0.4881889763779528,
                    "duration": 0.15728216666666128
                },
                {
                    "name": "B2",
                    "midi": 47,
                    "time": 113.71500649999916,
                    "velocity": 0.5590551181102362,
                    "duration": 0.15728216666666128
                },
                {
                    "name": "C#2",
                    "midi": 37,
                    "time": 113.87228866666582,
                    "velocity": 0.49606299212598426,
                    "duration": 0.15728216666666128
                },
                {
                    "name": "B2",
                    "midi": 47,
                    "time": 114.02957083333249,
                    "velocity": 0.5039370078740157,
                    "duration": 0.15728216666666128
                },
                {
                    "name": "B3",
                    "midi": 59,
                    "time": 114.18685299999915,
                    "velocity": 0.6141732283464567,
                    "duration": 0.15728216666666128
                },
                {
                    "name": "E3",
                    "midi": 52,
                    "time": 114.34413516666581,
                    "velocity": 0.5275590551181102,
                    "duration": 0.15728216666666128
                },
                {
                    "name": "B2",
                    "midi": 47,
                    "time": 114.50141733333247,
                    "velocity": 0.5275590551181102,
                    "duration": 0.15728216666666128
                },
                {
                    "name": "B2",
                    "midi": 47,
                    "time": 114.65869949999913,
                    "velocity": 0.5826771653543307,
                    "duration": 0.15728216666666128
                },
                {
                    "name": "C#2",
                    "midi": 37,
                    "time": 114.81598166666579,
                    "velocity": 0.5433070866141733,
                    "duration": 0.15728216666666128
                },
                {
                    "name": "C3",
                    "midi": 48,
                    "time": 114.97326383333245,
                    "velocity": 0.5433070866141733,
                    "duration": 0.15728216666666128
                },
                {
                    "name": "C4",
                    "midi": 60,
                    "time": 115.13054599999911,
                    "velocity": 0.6377952755905512,
                    "duration": 0.15728216666666128
                },
                {
                    "name": "D#3",
                    "midi": 51,
                    "time": 115.28782816666578,
                    "velocity": 0.5669291338582677,
                    "duration": 0.15728216666666128
                },
                {
                    "name": "C3",
                    "midi": 48,
                    "time": 115.44511033333244,
                    "velocity": 0.5748031496062992,
                    "duration": 0.15728216666666128
                },
                {
                    "name": "C3",
                    "midi": 48,
                    "time": 115.6023924999991,
                    "velocity": 0.6535433070866141,
                    "duration": 0.15728216666666128
                },
                {
                    "name": "C#2",
                    "midi": 37,
                    "time": 115.75967466666576,
                    "velocity": 0.5826771653543307,
                    "duration": 0.15728216666666128
                },
                {
                    "name": "C3",
                    "midi": 48,
                    "time": 115.91695683333242,
                    "velocity": 0.5826771653543307,
                    "duration": 0.15728216666666128
                },
                {
                    "name": "C4",
                    "midi": 60,
                    "time": 116.07423899999908,
                    "velocity": 0.6614173228346457,
                    "duration": 0.15728216666666128
                },
                {
                    "name": "D#3",
                    "midi": 51,
                    "time": 116.23152116666574,
                    "velocity": 0.5826771653543307,
                    "duration": 0.15728216666666128
                },
                {
                    "name": "C3",
                    "midi": 48,
                    "time": 116.3888033333324,
                    "velocity": 0.5905511811023622,
                    "duration": 0.15728216666666128
                },
                {
                    "name": "C3",
                    "midi": 48,
                    "time": 116.54608549999907,
                    "velocity": 0.6299212598425197,
                    "duration": 0.15728216666666128
                },
                {
                    "name": "C#2",
                    "midi": 37,
                    "time": 116.70336766666573,
                    "velocity": 0.5748031496062992,
                    "duration": 0.15728216666666128
                },
                {
                    "name": "B2",
                    "midi": 47,
                    "time": 116.86064983333239,
                    "velocity": 0.5748031496062992,
                    "duration": 0.15728216666666128
                },
                {
                    "name": "A4",
                    "midi": 69,
                    "time": 117.48977849999905,
                    "velocity": 0.7559055118110236,
                    "duration": 1.8873860000000064
                },
                {
                    "name": "A3",
                    "midi": 57,
                    "time": 117.48977849999905,
                    "velocity": 0.7559055118110236,
                    "duration": 1.8873860000000064
                },
                {
                    "name": "G#3",
                    "midi": 56,
                    "time": 119.37716449999905,
                    "velocity": 0.7244094488188977,
                    "duration": 0.9436929999999961
                },
                {
                    "name": "G#4",
                    "midi": 68,
                    "time": 119.37716449999905,
                    "velocity": 0.7244094488188977,
                    "duration": 0.9436929999999961
                },
                {
                    "name": "G3",
                    "midi": 55,
                    "time": 120.32085749999905,
                    "velocity": 0.7716535433070866,
                    "duration": 0.47184649999999806
                },
                {
                    "name": "G4",
                    "midi": 67,
                    "time": 120.32085749999905,
                    "velocity": 0.7716535433070866,
                    "duration": 0.47184649999999806
                },
                {
                    "name": "A3",
                    "midi": 57,
                    "time": 121.26455049999905,
                    "velocity": 0.7559055118110236,
                    "duration": 1.8873860000000064
                },
                {
                    "name": "A4",
                    "midi": 69,
                    "time": 121.26455049999905,
                    "velocity": 0.7559055118110236,
                    "duration": 1.8873860000000064
                },
                {
                    "name": "G#4",
                    "midi": 68,
                    "time": 123.15193649999905,
                    "velocity": 0.7244094488188977,
                    "duration": 0.9436929999999961
                },
                {
                    "name": "G#3",
                    "midi": 56,
                    "time": 123.15193649999905,
                    "velocity": 0.7244094488188977,
                    "duration": 0.9436929999999961
                },
                {
                    "name": "D#4",
                    "midi": 63,
                    "time": 124.09562949999905,
                    "velocity": 0.7716535433070866,
                    "duration": 0.47184649999999806
                },
                {
                    "name": "D#3",
                    "midi": 51,
                    "time": 124.09562949999905,
                    "velocity": 0.7716535433070866,
                    "duration": 0.47184649999999806
                },
                {
                    "name": "D3",
                    "midi": 50,
                    "time": 125.03932249999905,
                    "velocity": 0.7559055118110236,
                    "duration": 1.8873860000000064
                },
                {
                    "name": "D4",
                    "midi": 62,
                    "time": 125.03932249999905,
                    "velocity": 0.7559055118110236,
                    "duration": 1.8873860000000064
                },
                {
                    "name": "C#3",
                    "midi": 49,
                    "time": 126.92670849999905,
                    "velocity": 0.7244094488188977,
                    "duration": 0.9436929999999961
                },
                {
                    "name": "C#4",
                    "midi": 61,
                    "time": 126.92670849999905,
                    "velocity": 0.7244094488188977,
                    "duration": 0.9436929999999961
                },
                {
                    "name": "C3",
                    "midi": 48,
                    "time": 127.87040149999905,
                    "velocity": 0.7716535433070866,
                    "duration": 0.47184649999999806
                },
                {
                    "name": "C4",
                    "midi": 60,
                    "time": 127.87040149999905,
                    "velocity": 0.7716535433070866,
                    "duration": 0.47184649999999806
                },
                {
                    "name": "B2",
                    "midi": 47,
                    "time": 128.81409449999904,
                    "velocity": 0.7165354330708661,
                    "duration": 1.4155394999999942
                },
                {
                    "name": "B3",
                    "midi": 59,
                    "time": 128.81409449999904,
                    "velocity": 0.7559055118110236,
                    "duration": 1.4155394999999942
                },
                {
                    "name": "A#3",
                    "midi": 58,
                    "time": 130.22963399999904,
                    "velocity": 0.6614173228346457,
                    "duration": 0.9436929999999961
                },
                {
                    "name": "A3",
                    "midi": 57,
                    "time": 131.17332699999903,
                    "velocity": 0.7165354330708661,
                    "duration": 0.9436929999999961
                },
                {
                    "name": "E3",
                    "midi": 52,
                    "time": 135.89179199999904,
                    "velocity": 0.6299212598425197,
                    "duration": 0.3440547395833278
                },
                {
                    "name": "C#4",
                    "midi": 61,
                    "time": 135.89179199999904,
                    "velocity": 0.6299212598425197,
                    "duration": 0.3440547395833278
                },
                {
                    "name": "C#4",
                    "midi": 61,
                    "time": 136.59956174999903,
                    "velocity": 0.5669291338582677,
                    "duration": 0.05308273124998664
                },
                {
                    "name": "C#4",
                    "midi": 61,
                    "time": 136.71752337499902,
                    "velocity": 0.5669291338582677,
                    "duration": 0.05308273124998664
                },
                {
                    "name": "C#4",
                    "midi": 61,
                    "time": 136.835484999999,
                    "velocity": 0.6377952755905512,
                    "duration": 0.3440547395833278
                },
                {
                    "name": "C#4",
                    "midi": 61,
                    "time": 137.543254749999,
                    "velocity": 0.5984251968503937,
                    "duration": 0.05308273124998664
                },
                {
                    "name": "C#4",
                    "midi": 61,
                    "time": 137.661216374999,
                    "velocity": 0.5984251968503937,
                    "duration": 0.05308273124998664
                },
                {
                    "name": "C#4",
                    "midi": 61,
                    "time": 137.77917799999898,
                    "velocity": 0.6929133858267716,
                    "duration": 0.3440547395833278
                },
                {
                    "name": "C#4",
                    "midi": 61,
                    "time": 138.48694774999896,
                    "velocity": 0.6692913385826772,
                    "duration": 0.05308273124998664
                },
                {
                    "name": "C#4",
                    "midi": 61,
                    "time": 138.60490937499895,
                    "velocity": 0.6692913385826772,
                    "duration": 0.05308273124998664
                },
                {
                    "name": "C#4",
                    "midi": 61,
                    "time": 138.72287099999895,
                    "velocity": 0.8188976377952756,
                    "duration": 0.3440547395833278
                },
                {
                    "name": "A3",
                    "midi": 57,
                    "time": 139.90248724999893,
                    "velocity": 0.4330708661417323,
                    "duration": 0.23592325000001324
                },
                {
                    "name": "C#4",
                    "midi": 61,
                    "time": 139.90248724999893,
                    "velocity": 0.4330708661417323,
                    "duration": 0.23592325000001324
                },
                {
                    "name": "F4",
                    "midi": 65,
                    "time": 139.90248724999893,
                    "velocity": 0.5118110236220472,
                    "duration": 0.23592325000001324
                },
                {
                    "name": "E4",
                    "midi": 64,
                    "time": 140.13841049999894,
                    "velocity": 0.5118110236220472,
                    "duration": 0.23592325000001324
                },
                {
                    "name": "C#4",
                    "midi": 61,
                    "time": 140.13841049999894,
                    "velocity": 0.4330708661417323,
                    "duration": 0.23592325000001324
                },
                {
                    "name": "G#3",
                    "midi": 56,
                    "time": 140.13841049999894,
                    "velocity": 0.4330708661417323,
                    "duration": 0.23592325000001324
                },
                {
                    "name": "A3",
                    "midi": 57,
                    "time": 140.37433374999895,
                    "velocity": 0.4330708661417323,
                    "duration": 0.23592325000001324
                },
                {
                    "name": "C#4",
                    "midi": 61,
                    "time": 140.37433374999895,
                    "velocity": 0.4330708661417323,
                    "duration": 0.23592325000001324
                },
                {
                    "name": "F4",
                    "midi": 65,
                    "time": 140.37433374999895,
                    "velocity": 0.5118110236220472,
                    "duration": 0.23592325000001324
                },
                {
                    "name": "E4",
                    "midi": 64,
                    "time": 140.61025699999897,
                    "velocity": 0.5118110236220472,
                    "duration": 0.23592325000001324
                },
                {
                    "name": "C#4",
                    "midi": 61,
                    "time": 140.61025699999897,
                    "velocity": 0.4330708661417323,
                    "duration": 0.23592325000001324
                },
                {
                    "name": "G#3",
                    "midi": 56,
                    "time": 140.61025699999897,
                    "velocity": 0.4330708661417323,
                    "duration": 0.23592325000001324
                },
                {
                    "name": "F4",
                    "midi": 65,
                    "time": 140.84618024999898,
                    "velocity": 0.5118110236220472,
                    "duration": 0.23592325000001324
                },
                {
                    "name": "C#4",
                    "midi": 61,
                    "time": 140.84618024999898,
                    "velocity": 0.4330708661417323,
                    "duration": 0.23592325000001324
                },
                {
                    "name": "A3",
                    "midi": 57,
                    "time": 140.84618024999898,
                    "velocity": 0.4330708661417323,
                    "duration": 0.23592325000001324
                },
                {
                    "name": "E4",
                    "midi": 64,
                    "time": 141.082103499999,
                    "velocity": 0.5354330708661418,
                    "duration": 0.23592325000001324
                },
                {
                    "name": "C#4",
                    "midi": 61,
                    "time": 141.082103499999,
                    "velocity": 0.44881889763779526,
                    "duration": 0.23592325000001324
                },
                {
                    "name": "G#3",
                    "midi": 56,
                    "time": 141.082103499999,
                    "velocity": 0.44881889763779526,
                    "duration": 0.23592325000001324
                },
                {
                    "name": "F4",
                    "midi": 65,
                    "time": 141.318026749999,
                    "velocity": 0.5433070866141733,
                    "duration": 0.23592325000001324
                },
                {
                    "name": "C#4",
                    "midi": 61,
                    "time": 141.318026749999,
                    "velocity": 0.4566929133858268,
                    "duration": 0.23592325000001324
                },
                {
                    "name": "A3",
                    "midi": 57,
                    "time": 141.318026749999,
                    "velocity": 0.4566929133858268,
                    "duration": 0.23592325000001324
                },
                {
                    "name": "G#3",
                    "midi": 56,
                    "time": 141.55394999999902,
                    "velocity": 0.4645669291338583,
                    "duration": 0.23592325000001324
                },
                {
                    "name": "C#4",
                    "midi": 61,
                    "time": 141.55394999999902,
                    "velocity": 0.4645669291338583,
                    "duration": 0.23592325000001324
                },
                {
                    "name": "E4",
                    "midi": 64,
                    "time": 141.55394999999902,
                    "velocity": 0.5511811023622047,
                    "duration": 0.23592325000001324
                },
                {
                    "name": "A3",
                    "midi": 57,
                    "time": 141.78987324999903,
                    "velocity": 0.5826771653543307,
                    "duration": 0.23592325000001324
                },
                {
                    "name": "C#3",
                    "midi": 49,
                    "time": 141.78987324999903,
                    "velocity": 0.4881889763779528,
                    "duration": 0.23592325000001324
                },
                {
                    "name": "A2",
                    "midi": 45,
                    "time": 141.78987324999903,
                    "velocity": 0.4881889763779528,
                    "duration": 0.23592325000001324
                },
                {
                    "name": "G#3",
                    "midi": 56,
                    "time": 142.02579649999905,
                    "velocity": 0.5905511811023622,
                    "duration": 0.23592325000001324
                },
                {
                    "name": "C#3",
                    "midi": 49,
                    "time": 142.02579649999905,
                    "velocity": 0.49606299212598426,
                    "duration": 0.23592325000001324
                },
                {
                    "name": "G#2",
                    "midi": 44,
                    "time": 142.02579649999905,
                    "velocity": 0.49606299212598426,
                    "duration": 0.23592325000001324
                },
                {
                    "name": "A3",
                    "midi": 57,
                    "time": 142.26171974999906,
                    "velocity": 0.5984251968503937,
                    "duration": 0.23592325000001324
                },
                {
                    "name": "C#3",
                    "midi": 49,
                    "time": 142.26171974999906,
                    "velocity": 0.5039370078740157,
                    "duration": 0.23592325000001324
                },
                {
                    "name": "A2",
                    "midi": 45,
                    "time": 142.26171974999906,
                    "velocity": 0.5039370078740157,
                    "duration": 0.23592325000001324
                },
                {
                    "name": "G#3",
                    "midi": 56,
                    "time": 142.49764299999907,
                    "velocity": 0.6062992125984252,
                    "duration": 0.23592325000001324
                },
                {
                    "name": "C#3",
                    "midi": 49,
                    "time": 142.49764299999907,
                    "velocity": 0.5118110236220472,
                    "duration": 0.23592325000001324
                },
                {
                    "name": "G#2",
                    "midi": 44,
                    "time": 142.49764299999907,
                    "velocity": 0.5118110236220472,
                    "duration": 0.23592325000001324
                },
                {
                    "name": "A3",
                    "midi": 57,
                    "time": 142.7335662499991,
                    "velocity": 0.6062992125984252,
                    "duration": 0.23592325000001324
                },
                {
                    "name": "C#3",
                    "midi": 49,
                    "time": 142.7335662499991,
                    "velocity": 0.5118110236220472,
                    "duration": 0.23592325000001324
                },
                {
                    "name": "A2",
                    "midi": 45,
                    "time": 142.7335662499991,
                    "velocity": 0.5118110236220472,
                    "duration": 0.23592325000001324
                },
                {
                    "name": "G#3",
                    "midi": 56,
                    "time": 142.9694894999991,
                    "velocity": 0.6062992125984252,
                    "duration": 0.23592325000001324
                },
                {
                    "name": "C#3",
                    "midi": 49,
                    "time": 142.9694894999991,
                    "velocity": 0.5118110236220472,
                    "duration": 0.23592325000001324
                },
                {
                    "name": "G#2",
                    "midi": 44,
                    "time": 142.9694894999991,
                    "velocity": 0.5118110236220472,
                    "duration": 0.23592325000001324
                },
                {
                    "name": "A3",
                    "midi": 57,
                    "time": 143.2054127499991,
                    "velocity": 0.6062992125984252,
                    "duration": 0.23592325000001324
                },
                {
                    "name": "C#3",
                    "midi": 49,
                    "time": 143.2054127499991,
                    "velocity": 0.5118110236220472,
                    "duration": 0.23592325000001324
                },
                {
                    "name": "A2",
                    "midi": 45,
                    "time": 143.2054127499991,
                    "velocity": 0.5118110236220472,
                    "duration": 0.23592325000001324
                },
                {
                    "name": "C#2",
                    "midi": 37,
                    "time": 143.44133599999913,
                    "velocity": 0.8188976377952756,
                    "duration": 3.774772000000098
                },
                {
                    "name": "C#1",
                    "midi": 25,
                    "time": 143.44133599999913,
                    "velocity": 0.8188976377952756,
                    "duration": 3.774772000000098
                },
                {
                    "name": "G#2",
                    "midi": 44,
                    "time": 143.67725924999914,
                    "velocity": 0.44881889763779526,
                    "duration": 0.23592325000001324
                },
                {
                    "name": "G#3",
                    "midi": 56,
                    "time": 143.67725924999914,
                    "velocity": 0.5354330708661418,
                    "duration": 0.23592325000001324
                },
                {
                    "name": "E3",
                    "midi": 52,
                    "time": 143.67725924999914,
                    "velocity": 0.44881889763779526,
                    "duration": 0.23592325000001324
                },
                {
                    "name": "C#3",
                    "midi": 49,
                    "time": 143.67725924999914,
                    "velocity": 0.44881889763779526,
                    "duration": 0.23592325000001324
                },
                {
                    "name": "E4",
                    "midi": 64,
                    "time": 143.91318249999915,
                    "velocity": 0.5511811023622047,
                    "duration": 0.23592325000001324
                },
                {
                    "name": "C#4",
                    "midi": 61,
                    "time": 143.91318249999915,
                    "velocity": 0.4566929133858268,
                    "duration": 0.23592325000001324
                },
                {
                    "name": "G#3",
                    "midi": 56,
                    "time": 143.91318249999915,
                    "velocity": 0.4566929133858268,
                    "duration": 0.23592325000001324
                },
                {
                    "name": "E3",
                    "midi": 52,
                    "time": 143.91318249999915,
                    "velocity": 0.4566929133858268,
                    "duration": 0.23592325000001324
                },
                {
                    "name": "E3",
                    "midi": 52,
                    "time": 144.14910574999917,
                    "velocity": 0.49606299212598426,
                    "duration": 0.23592325000001324
                },
                {
                    "name": "G#3",
                    "midi": 56,
                    "time": 144.14910574999917,
                    "velocity": 0.49606299212598426,
                    "duration": 0.23592325000001324
                },
                {
                    "name": "C#4",
                    "midi": 61,
                    "time": 144.14910574999917,
                    "velocity": 0.49606299212598426,
                    "duration": 0.23592325000001324
                },
                {
                    "name": "E4",
                    "midi": 64,
                    "time": 144.14910574999917,
                    "velocity": 0.5826771653543307,
                    "duration": 0.23592325000001324
                },
                {
                    "name": "E3",
                    "midi": 52,
                    "time": 144.38502899999918,
                    "velocity": 0.5039370078740157,
                    "duration": 0.1572821666666755
                },
                {
                    "name": "G#3",
                    "midi": 56,
                    "time": 144.38502899999918,
                    "velocity": 0.5039370078740157,
                    "duration": 0.1572821666666755
                },
                {
                    "name": "C#4",
                    "midi": 61,
                    "time": 144.38502899999918,
                    "velocity": 0.5039370078740157,
                    "duration": 0.1572821666666755
                },
                {
                    "name": "E4",
                    "midi": 64,
                    "time": 144.38502899999918,
                    "velocity": 0.6062992125984252,
                    "duration": 0.1572821666666755
                },
                {
                    "name": "E3",
                    "midi": 52,
                    "time": 144.54231116666585,
                    "velocity": 0.5275590551181102,
                    "duration": 0.1572821666666755
                },
                {
                    "name": "G#3",
                    "midi": 56,
                    "time": 144.54231116666585,
                    "velocity": 0.5275590551181102,
                    "duration": 0.1572821666666755
                },
                {
                    "name": "C#4",
                    "midi": 61,
                    "time": 144.54231116666585,
                    "velocity": 0.5275590551181102,
                    "duration": 0.1572821666666755
                },
                {
                    "name": "E4",
                    "midi": 64,
                    "time": 144.54231116666585,
                    "velocity": 0.6299212598425197,
                    "duration": 0.1572821666666755
                },
                {
                    "name": "E3",
                    "midi": 52,
                    "time": 144.69959333333253,
                    "velocity": 0.5511811023622047,
                    "duration": 0.1572821666666755
                },
                {
                    "name": "G#3",
                    "midi": 56,
                    "time": 144.69959333333253,
                    "velocity": 0.5511811023622047,
                    "duration": 0.1572821666666755
                },
                {
                    "name": "C#4",
                    "midi": 61,
                    "time": 144.69959333333253,
                    "velocity": 0.5511811023622047,
                    "duration": 0.1572821666666755
                },
                {
                    "name": "E4",
                    "midi": 64,
                    "time": 144.69959333333253,
                    "velocity": 0.6456692913385826,
                    "duration": 0.1572821666666755
                },
                {
                    "name": "E3",
                    "midi": 52,
                    "time": 144.8568754999992,
                    "velocity": 0.5748031496062992,
                    "duration": 0.1572821666666755
                },
                {
                    "name": "G#3",
                    "midi": 56,
                    "time": 144.8568754999992,
                    "velocity": 0.5748031496062992,
                    "duration": 0.1572821666666755
                },
                {
                    "name": "C#4",
                    "midi": 61,
                    "time": 144.8568754999992,
                    "velocity": 0.5748031496062992,
                    "duration": 0.1572821666666755
                },
                {
                    "name": "E4",
                    "midi": 64,
                    "time": 144.8568754999992,
                    "velocity": 0.6850393700787402,
                    "duration": 0.1572821666666755
                },
                {
                    "name": "E3",
                    "midi": 52,
                    "time": 145.01415766666588,
                    "velocity": 0.6141732283464567,
                    "duration": 0.1572821666666755
                },
                {
                    "name": "G#3",
                    "midi": 56,
                    "time": 145.01415766666588,
                    "velocity": 0.6141732283464567,
                    "duration": 0.1572821666666755
                },
                {
                    "name": "C#4",
                    "midi": 61,
                    "time": 145.01415766666588,
                    "velocity": 0.6141732283464567,
                    "duration": 0.1572821666666755
                },
                {
                    "name": "E4",
                    "midi": 64,
                    "time": 145.01415766666588,
                    "velocity": 0.7244094488188977,
                    "duration": 0.1572821666666755
                },
                {
                    "name": "E3",
                    "midi": 52,
                    "time": 145.17143983333256,
                    "velocity": 0.6299212598425197,
                    "duration": 0.1572821666666755
                },
                {
                    "name": "G#3",
                    "midi": 56,
                    "time": 145.17143983333256,
                    "velocity": 0.6299212598425197,
                    "duration": 0.1572821666666755
                },
                {
                    "name": "C#4",
                    "midi": 61,
                    "time": 145.17143983333256,
                    "velocity": 0.6299212598425197,
                    "duration": 0.1572821666666755
                },
                {
                    "name": "E4",
                    "midi": 64,
                    "time": 145.17143983333256,
                    "velocity": 0.7480314960629921,
                    "duration": 0.1572821666666755
                },
                {
                    "name": "C#4",
                    "midi": 61,
                    "time": 145.32872199999923,
                    "velocity": 0.7401574803149606,
                    "duration": 1.8873859999999922
                },
                {
                    "name": "C#5",
                    "midi": 73,
                    "time": 145.32872199999923,
                    "velocity": 0.889763779527559,
                    "duration": 1.8873859999999922
                }
            ],
            "controlChanges": {},
            "id": 2,
            "name": "Piano left",
            "instrumentNumber": 0,
            "instrument": "acoustic grand piano",
            "instrumentFamily": "piano",
            "channelNumber": 0,
            "isPercussion": false
        },
        {
            "startTime": 117.017932,
            "duration": 139.5092818333336,
            "length": 149,
            "notes": [
                {
                    "name": "C#4",
                    "midi": 61,
                    "time": 117.017932,
                    "velocity": 0.6456692913385826,
                    "duration": 0.15728216666666128
                },
                {
                    "name": "F3",
                    "midi": 53,
                    "time": 117.17521416666666,
                    "velocity": 0.5354330708661418,
                    "duration": 0.15728216666666128
                },
                {
                    "name": "B2",
                    "midi": 47,
                    "time": 117.33249633333332,
                    "velocity": 0.5354330708661418,
                    "duration": 0.15728216666666128
                },
                {
                    "name": "C#2",
                    "midi": 37,
                    "time": 117.48977849999999,
                    "velocity": 0.5984251968503937,
                    "duration": 0.15728216666666128
                },
                {
                    "name": "C#1",
                    "midi": 25,
                    "time": 117.64706066666665,
                    "velocity": 0.5354330708661418,
                    "duration": 0.15728216666666128
                },
                {
                    "name": "B2",
                    "midi": 47,
                    "time": 117.80434283333331,
                    "velocity": 0.5354330708661418,
                    "duration": 0.15728216666666128
                },
                {
                    "name": "C#4",
                    "midi": 61,
                    "time": 117.96162499999997,
                    "velocity": 0.6456692913385826,
                    "duration": 0.15728216666666128
                },
                {
                    "name": "F3",
                    "midi": 53,
                    "time": 118.11890716666663,
                    "velocity": 0.5354330708661418,
                    "duration": 0.15728216666666128
                },
                {
                    "name": "B2",
                    "midi": 47,
                    "time": 118.27618933333329,
                    "velocity": 0.5354330708661418,
                    "duration": 0.15728216666666128
                },
                {
                    "name": "C#2",
                    "midi": 37,
                    "time": 118.43347149999995,
                    "velocity": 0.5984251968503937,
                    "duration": 0.15728216666666128
                },
                {
                    "name": "C#1",
                    "midi": 25,
                    "time": 118.59075366666661,
                    "velocity": 0.5354330708661418,
                    "duration": 0.15728216666666128
                },
                {
                    "name": "B2",
                    "midi": 47,
                    "time": 118.74803583333328,
                    "velocity": 0.5354330708661418,
                    "duration": 0.15728216666666128
                },
                {
                    "name": "C#4",
                    "midi": 61,
                    "time": 118.90531799999994,
                    "velocity": 0.6456692913385826,
                    "duration": 0.15728216666666128
                },
                {
                    "name": "F3",
                    "midi": 53,
                    "time": 119.0626001666666,
                    "velocity": 0.5354330708661418,
                    "duration": 0.15728216666666128
                },
                {
                    "name": "B2",
                    "midi": 47,
                    "time": 119.21988233333326,
                    "velocity": 0.5354330708661418,
                    "duration": 0.15728216666666128
                },
                {
                    "name": "C#2",
                    "midi": 37,
                    "time": 119.37716449999992,
                    "velocity": 0.5984251968503937,
                    "duration": 0.15728216666666128
                },
                {
                    "name": "C#1",
                    "midi": 25,
                    "time": 119.53444666666658,
                    "velocity": 0.5354330708661418,
                    "duration": 0.15728216666666128
                },
                {
                    "name": "B2",
                    "midi": 47,
                    "time": 119.69172883333324,
                    "velocity": 0.5354330708661418,
                    "duration": 0.15728216666666128
                },
                {
                    "name": "C#4",
                    "midi": 61,
                    "time": 119.8490109999999,
                    "velocity": 0.6456692913385826,
                    "duration": 0.15728216666666128
                },
                {
                    "name": "F3",
                    "midi": 53,
                    "time": 120.00629316666657,
                    "velocity": 0.5354330708661418,
                    "duration": 0.15728216666666128
                },
                {
                    "name": "B2",
                    "midi": 47,
                    "time": 120.16357533333323,
                    "velocity": 0.5354330708661418,
                    "duration": 0.15728216666666128
                },
                {
                    "name": "C#2",
                    "midi": 37,
                    "time": 120.32085749999989,
                    "velocity": 0.5984251968503937,
                    "duration": 0.15728216666666128
                },
                {
                    "name": "C#1",
                    "midi": 25,
                    "time": 120.47813966666655,
                    "velocity": 0.5354330708661418,
                    "duration": 0.15728216666666128
                },
                {
                    "name": "C#3",
                    "midi": 49,
                    "time": 120.63542183333321,
                    "velocity": 0.5354330708661418,
                    "duration": 0.15728216666666128
                },
                {
                    "name": "C#4",
                    "midi": 61,
                    "time": 120.79270399999987,
                    "velocity": 0.6456692913385826,
                    "duration": 0.15728216666666128
                },
                {
                    "name": "G3",
                    "midi": 55,
                    "time": 120.94998616666653,
                    "velocity": 0.5354330708661418,
                    "duration": 0.15728216666666128
                },
                {
                    "name": "A2",
                    "midi": 45,
                    "time": 121.1072683333332,
                    "velocity": 0.5354330708661418,
                    "duration": 0.15728216666666128
                },
                {
                    "name": "C#2",
                    "midi": 37,
                    "time": 121.26455049999986,
                    "velocity": 0.5984251968503937,
                    "duration": 0.15728216666666128
                },
                {
                    "name": "C#1",
                    "midi": 25,
                    "time": 121.42183266666652,
                    "velocity": 0.5354330708661418,
                    "duration": 0.15728216666666128
                },
                {
                    "name": "C#3",
                    "midi": 49,
                    "time": 121.57911483333318,
                    "velocity": 0.5354330708661418,
                    "duration": 0.15728216666666128
                },
                {
                    "name": "C#4",
                    "midi": 61,
                    "time": 121.73639699999984,
                    "velocity": 0.6456692913385826,
                    "duration": 0.15728216666666128
                },
                {
                    "name": "G3",
                    "midi": 55,
                    "time": 121.8936791666665,
                    "velocity": 0.5354330708661418,
                    "duration": 0.15728216666666128
                },
                {
                    "name": "A2",
                    "midi": 45,
                    "time": 122.05096133333316,
                    "velocity": 0.5354330708661418,
                    "duration": 0.15728216666666128
                },
                {
                    "name": "C#2",
                    "midi": 37,
                    "time": 122.20824349999982,
                    "velocity": 0.5984251968503937,
                    "duration": 0.15728216666666128
                },
                {
                    "name": "C#1",
                    "midi": 25,
                    "time": 122.36552566666649,
                    "velocity": 0.5354330708661418,
                    "duration": 0.15728216666666128
                },
                {
                    "name": "C#3",
                    "midi": 49,
                    "time": 122.52280783333315,
                    "velocity": 0.5354330708661418,
                    "duration": 0.15728216666666128
                },
                {
                    "name": "C#4",
                    "midi": 61,
                    "time": 122.68008999999981,
                    "velocity": 0.6456692913385826,
                    "duration": 0.15728216666666128
                },
                {
                    "name": "G3",
                    "midi": 55,
                    "time": 122.83737216666647,
                    "velocity": 0.5354330708661418,
                    "duration": 0.15728216666666128
                },
                {
                    "name": "A2",
                    "midi": 45,
                    "time": 122.99465433333313,
                    "velocity": 0.5354330708661418,
                    "duration": 0.15728216666666128
                },
                {
                    "name": "C#2",
                    "midi": 37,
                    "time": 123.15193649999979,
                    "velocity": 0.5984251968503937,
                    "duration": 0.15728216666666128
                },
                {
                    "name": "C#1",
                    "midi": 25,
                    "time": 123.30921866666645,
                    "velocity": 0.5354330708661418,
                    "duration": 0.15728216666666128
                },
                {
                    "name": "C#3",
                    "midi": 49,
                    "time": 123.46650083333311,
                    "velocity": 0.5354330708661418,
                    "duration": 0.15728216666666128
                },
                {
                    "name": "C#4",
                    "midi": 61,
                    "time": 123.62378299999978,
                    "velocity": 0.6456692913385826,
                    "duration": 0.15728216666666128
                },
                {
                    "name": "G3",
                    "midi": 55,
                    "time": 123.78106516666644,
                    "velocity": 0.5354330708661418,
                    "duration": 0.15728216666666128
                },
                {
                    "name": "A2",
                    "midi": 45,
                    "time": 123.9383473333331,
                    "velocity": 0.5354330708661418,
                    "duration": 0.15728216666666128
                },
                {
                    "name": "C#2",
                    "midi": 37,
                    "time": 124.09562949999976,
                    "velocity": 0.5984251968503937,
                    "duration": 0.15728216666666128
                },
                {
                    "name": "C#1",
                    "midi": 25,
                    "time": 124.25291166666642,
                    "velocity": 0.5354330708661418,
                    "duration": 0.15728216666666128
                },
                {
                    "name": "A#2",
                    "midi": 46,
                    "time": 124.41019383333308,
                    "velocity": 0.5354330708661418,
                    "duration": 0.15728216666666128
                },
                {
                    "name": "A#3",
                    "midi": 58,
                    "time": 124.56747599999974,
                    "velocity": 0.6456692913385826,
                    "duration": 0.15728216666666128
                },
                {
                    "name": "E3",
                    "midi": 52,
                    "time": 124.7247581666664,
                    "velocity": 0.5354330708661418,
                    "duration": 0.15728216666666128
                },
                {
                    "name": "F#2",
                    "midi": 42,
                    "time": 124.88204033333307,
                    "velocity": 0.5354330708661418,
                    "duration": 0.15728216666666128
                },
                {
                    "name": "C#2",
                    "midi": 37,
                    "time": 125.03932249999973,
                    "velocity": 0.5984251968503937,
                    "duration": 0.15728216666666128
                },
                {
                    "name": "C#1",
                    "midi": 25,
                    "time": 125.19660466666639,
                    "velocity": 0.5354330708661418,
                    "duration": 0.15728216666666128
                },
                {
                    "name": "A#2",
                    "midi": 46,
                    "time": 125.35388683333305,
                    "velocity": 0.5354330708661418,
                    "duration": 0.15728216666666128
                },
                {
                    "name": "A#3",
                    "midi": 58,
                    "time": 125.51116899999971,
                    "velocity": 0.6456692913385826,
                    "duration": 0.15728216666666128
                },
                {
                    "name": "E3",
                    "midi": 52,
                    "time": 125.66845116666637,
                    "velocity": 0.5354330708661418,
                    "duration": 0.15728216666666128
                },
                {
                    "name": "F#2",
                    "midi": 42,
                    "time": 125.82573333333303,
                    "velocity": 0.5354330708661418,
                    "duration": 0.15728216666666128
                },
                {
                    "name": "C#2",
                    "midi": 37,
                    "time": 125.9830154999997,
                    "velocity": 0.5984251968503937,
                    "duration": 0.15728216666666128
                },
                {
                    "name": "C#1",
                    "midi": 25,
                    "time": 126.14029766666636,
                    "velocity": 0.5354330708661418,
                    "duration": 0.15728216666666128
                },
                {
                    "name": "A#2",
                    "midi": 46,
                    "time": 126.29757983333302,
                    "velocity": 0.5354330708661418,
                    "duration": 0.15728216666666128
                },
                {
                    "name": "A#3",
                    "midi": 58,
                    "time": 126.45486199999968,
                    "velocity": 0.6456692913385826,
                    "duration": 0.15728216666666128
                },
                {
                    "name": "E3",
                    "midi": 52,
                    "time": 126.61214416666634,
                    "velocity": 0.5354330708661418,
                    "duration": 0.15728216666666128
                },
                {
                    "name": "F#2",
                    "midi": 42,
                    "time": 126.769426333333,
                    "velocity": 0.5354330708661418,
                    "duration": 0.15728216666666128
                },
                {
                    "name": "C#2",
                    "midi": 37,
                    "time": 126.92670849999966,
                    "velocity": 0.5984251968503937,
                    "duration": 0.15728216666666128
                },
                {
                    "name": "C#1",
                    "midi": 25,
                    "time": 127.08399066666632,
                    "velocity": 0.5354330708661418,
                    "duration": 0.15728216666666128
                },
                {
                    "name": "A#2",
                    "midi": 46,
                    "time": 127.24127283333299,
                    "velocity": 0.5354330708661418,
                    "duration": 0.15728216666666128
                },
                {
                    "name": "A#3",
                    "midi": 58,
                    "time": 127.39855499999965,
                    "velocity": 0.6456692913385826,
                    "duration": 0.15728216666666128
                },
                {
                    "name": "E3",
                    "midi": 52,
                    "time": 127.55583716666631,
                    "velocity": 0.5354330708661418,
                    "duration": 0.15728216666666128
                },
                {
                    "name": "F#2",
                    "midi": 42,
                    "time": 127.71311933333297,
                    "velocity": 0.5354330708661418,
                    "duration": 0.15728216666666128
                },
                {
                    "name": "C#2",
                    "midi": 37,
                    "time": 127.87040149999963,
                    "velocity": 0.5984251968503937,
                    "duration": 0.15728216666666128
                },
                {
                    "name": "C#1",
                    "midi": 25,
                    "time": 128.0276836666663,
                    "velocity": 0.5354330708661418,
                    "duration": 0.1572821666666755
                },
                {
                    "name": "G2",
                    "midi": 43,
                    "time": 128.18496583333297,
                    "velocity": 0.5354330708661418,
                    "duration": 0.1572821666666755
                },
                {
                    "name": "G3",
                    "midi": 55,
                    "time": 128.34224799999964,
                    "velocity": 0.6456692913385826,
                    "duration": 0.4718465000000265
                },
                {
                    "name": "C#3",
                    "midi": 49,
                    "time": 128.49953016666632,
                    "velocity": 0.5354330708661418,
                    "duration": 0.1572821666666755
                },
                {
                    "name": "G2",
                    "midi": 43,
                    "time": 128.656812333333,
                    "velocity": 0.5354330708661418,
                    "duration": 0.1572821666666755
                },
                {
                    "name": "C#2",
                    "midi": 37,
                    "time": 128.81409449999967,
                    "velocity": 0.5984251968503937,
                    "duration": 0.1572821666666755
                },
                {
                    "name": "C#1",
                    "midi": 25,
                    "time": 128.97137666666634,
                    "velocity": 0.5354330708661418,
                    "duration": 0.1572821666666755
                },
                {
                    "name": "G2",
                    "midi": 43,
                    "time": 129.12865883333302,
                    "velocity": 0.5354330708661418,
                    "duration": 0.1572821666666755
                },
                {
                    "name": "G3",
                    "midi": 55,
                    "time": 129.2859409999997,
                    "velocity": 0.6456692913385826,
                    "duration": 0.1572821666666755
                },
                {
                    "name": "C#3",
                    "midi": 49,
                    "time": 129.44322316666637,
                    "velocity": 0.5354330708661418,
                    "duration": 0.1572821666666755
                },
                {
                    "name": "G2",
                    "midi": 43,
                    "time": 129.60050533333305,
                    "velocity": 0.5354330708661418,
                    "duration": 0.1572821666666755
                },
                {
                    "name": "C#2",
                    "midi": 37,
                    "time": 129.75778749999972,
                    "velocity": 0.5984251968503937,
                    "duration": 0.1572821666666755
                },
                {
                    "name": "C#1",
                    "midi": 25,
                    "time": 129.9150696666664,
                    "velocity": 0.5354330708661418,
                    "duration": 0.1572821666666755
                },
                {
                    "name": "G2",
                    "midi": 43,
                    "time": 130.07235183333307,
                    "velocity": 0.5354330708661418,
                    "duration": 0.1572821666666755
                },
                {
                    "name": "A#2",
                    "midi": 46,
                    "time": 130.22963399999975,
                    "velocity": 0.5748031496062992,
                    "duration": 0.1572821666666755
                },
                {
                    "name": "G3",
                    "midi": 55,
                    "time": 130.22963399999975,
                    "velocity": 0.6456692913385826,
                    "duration": 0.1572821666666755
                },
                {
                    "name": "C#3",
                    "midi": 49,
                    "time": 130.38691616666642,
                    "velocity": 0.5354330708661418,
                    "duration": 0.1572821666666755
                },
                {
                    "name": "G2",
                    "midi": 43,
                    "time": 130.5441983333331,
                    "velocity": 0.5354330708661418,
                    "duration": 0.1572821666666755
                },
                {
                    "name": "C#2",
                    "midi": 37,
                    "time": 130.70148049999978,
                    "velocity": 0.5984251968503937,
                    "duration": 0.1572821666666755
                },
                {
                    "name": "C#1",
                    "midi": 25,
                    "time": 130.85876266666645,
                    "velocity": 0.5354330708661418,
                    "duration": 0.1572821666666755
                },
                {
                    "name": "G2",
                    "midi": 43,
                    "time": 131.01604483333313,
                    "velocity": 0.5354330708661418,
                    "duration": 0.1572821666666755
                },
                {
                    "name": "A2",
                    "midi": 45,
                    "time": 131.1733269999998,
                    "velocity": 0.5748031496062992,
                    "duration": 0.1572821666666755
                },
                {
                    "name": "G3",
                    "midi": 55,
                    "time": 131.1733269999998,
                    "velocity": 0.6456692913385826,
                    "duration": 0.1572821666666755
                },
                {
                    "name": "C#3",
                    "midi": 49,
                    "time": 131.33060916666648,
                    "velocity": 0.5354330708661418,
                    "duration": 0.1572821666666755
                },
                {
                    "name": "G2",
                    "midi": 43,
                    "time": 131.48789133333315,
                    "velocity": 0.5354330708661418,
                    "duration": 0.1572821666666755
                },
                {
                    "name": "C#2",
                    "midi": 37,
                    "time": 131.64517349999983,
                    "velocity": 0.5984251968503937,
                    "duration": 0.1572821666666755
                },
                {
                    "name": "C#1",
                    "midi": 25,
                    "time": 131.8024556666665,
                    "velocity": 0.5354330708661418,
                    "duration": 0.1572821666666755
                },
                {
                    "name": "G#3",
                    "midi": 56,
                    "time": 131.95973783333318,
                    "velocity": 0.5354330708661418,
                    "duration": 0.07864108333333775
                },
                {
                    "name": "G#2",
                    "midi": 44,
                    "time": 131.95973783333318,
                    "velocity": 0.5354330708661418,
                    "duration": 0.07864108333333775
                },
                {
                    "name": "G2",
                    "midi": 43,
                    "time": 132.03837891666652,
                    "velocity": 0.5354330708661418,
                    "duration": 0.07864108333333775
                },
                {
                    "name": "G3",
                    "midi": 55,
                    "time": 132.03837891666652,
                    "velocity": 0.5354330708661418,
                    "duration": 0.07864108333333775
                },
                {
                    "name": "F#2",
                    "midi": 42,
                    "time": 132.11701999999985,
                    "velocity": 0.6062992125984252,
                    "duration": 0.1572821666666755
                },
                {
                    "name": "F#3",
                    "midi": 54,
                    "time": 132.11701999999985,
                    "velocity": 0.6456692913385826,
                    "duration": 0.1572821666666755
                },
                {
                    "name": "C#3",
                    "midi": 49,
                    "time": 132.27430216666653,
                    "velocity": 0.5354330708661418,
                    "duration": 0.1572821666666755
                },
                {
                    "name": "F#2",
                    "midi": 42,
                    "time": 132.4315843333332,
                    "velocity": 0.5354330708661418,
                    "duration": 0.1572821666666755
                },
                {
                    "name": "C#2",
                    "midi": 37,
                    "time": 132.58886649999988,
                    "velocity": 0.5984251968503937,
                    "duration": 0.1572821666666755
                },
                {
                    "name": "C#1",
                    "midi": 25,
                    "time": 132.74614866666656,
                    "velocity": 0.5354330708661418,
                    "duration": 0.1572821666666755
                },
                {
                    "name": "F#2",
                    "midi": 42,
                    "time": 132.90343083333323,
                    "velocity": 0.5354330708661418,
                    "duration": 0.1572821666666755
                },
                {
                    "name": "F#3",
                    "midi": 54,
                    "time": 133.0607129999999,
                    "velocity": 0.6456692913385826,
                    "duration": 0.1572821666666755
                },
                {
                    "name": "C#3",
                    "midi": 49,
                    "time": 133.21799516666658,
                    "velocity": 0.5354330708661418,
                    "duration": 0.1572821666666755
                },
                {
                    "name": "F#2",
                    "midi": 42,
                    "time": 133.37527733333326,
                    "velocity": 0.5354330708661418,
                    "duration": 0.1572821666666755
                },
                {
                    "name": "C#2",
                    "midi": 37,
                    "time": 133.53255949999993,
                    "velocity": 0.5984251968503937,
                    "duration": 0.1572821666666755
                },
                {
                    "name": "C#1",
                    "midi": 25,
                    "time": 133.6898416666666,
                    "velocity": 0.5354330708661418,
                    "duration": 0.1572821666666755
                },
                {
                    "name": "G2",
                    "midi": 43,
                    "time": 133.84712383333328,
                    "velocity": 0.5354330708661418,
                    "duration": 0.1572821666666755
                },
                {
                    "name": "G3",
                    "midi": 55,
                    "time": 134.00440599999996,
                    "velocity": 0.6456692913385826,
                    "duration": 0.1572821666666755
                },
                {
                    "name": "C3",
                    "midi": 48,
                    "time": 134.16168816666664,
                    "velocity": 0.5354330708661418,
                    "duration": 0.1572821666666755
                },
                {
                    "name": "G2",
                    "midi": 43,
                    "time": 134.3189703333333,
                    "velocity": 0.5354330708661418,
                    "duration": 0.1572821666666755
                },
                {
                    "name": "C#2",
                    "midi": 37,
                    "time": 134.4762525,
                    "velocity": 0.5984251968503937,
                    "duration": 0.1572821666666755
                },
                {
                    "name": "C#1",
                    "midi": 25,
                    "time": 134.63353466666666,
                    "velocity": 0.5354330708661418,
                    "duration": 0.1572821666666755
                },
                {
                    "name": "G2",
                    "midi": 43,
                    "time": 134.79081683333334,
                    "velocity": 0.5354330708661418,
                    "duration": 0.1572821666666755
                },
                {
                    "name": "G3",
                    "midi": 55,
                    "time": 134.948099,
                    "velocity": 0.6456692913385826,
                    "duration": 0.1572821666666755
                },
                {
                    "name": "C#3",
                    "midi": 49,
                    "time": 135.1053811666667,
                    "velocity": 0.5354330708661418,
                    "duration": 0.1572821666666755
                },
                {
                    "name": "G2",
                    "midi": 43,
                    "time": 135.26266333333336,
                    "velocity": 0.5354330708661418,
                    "duration": 0.1572821666666755
                },
                {
                    "name": "C#2",
                    "midi": 37,
                    "time": 135.41994550000004,
                    "velocity": 0.5984251968503937,
                    "duration": 0.1572821666666755
                },
                {
                    "name": "C#1",
                    "midi": 25,
                    "time": 135.57722766666672,
                    "velocity": 0.5354330708661418,
                    "duration": 0.1572821666666755
                },
                {
                    "name": "G#2",
                    "midi": 44,
                    "time": 135.7345098333334,
                    "velocity": 0.5354330708661418,
                    "duration": 0.1572821666666755
                },
                {
                    "name": "G#3",
                    "midi": 56,
                    "time": 135.89179200000007,
                    "velocity": 0.5118110236220472,
                    "duration": 0.1572821666666755
                },
                {
                    "name": "C#3",
                    "midi": 49,
                    "time": 136.04907416666674,
                    "velocity": 0.4330708661417323,
                    "duration": 0.1572821666666755
                },
                {
                    "name": "G#2",
                    "midi": 44,
                    "time": 136.20635633333342,
                    "velocity": 0.4330708661417323,
                    "duration": 0.1572821666666755
                },
                {
                    "name": "C#2",
                    "midi": 37,
                    "time": 136.3636385000001,
                    "velocity": 0.49606299212598426,
                    "duration": 0.1572821666666755
                },
                {
                    "name": "C#1",
                    "midi": 25,
                    "time": 136.52092066666677,
                    "velocity": 0.44881889763779526,
                    "duration": 0.1572821666666755
                },
                {
                    "name": "G#2",
                    "midi": 44,
                    "time": 136.67820283333344,
                    "velocity": 0.4566929133858268,
                    "duration": 0.1572821666666755
                },
                {
                    "name": "G#3",
                    "midi": 56,
                    "time": 136.83548500000012,
                    "velocity": 0.5590551181102362,
                    "duration": 0.1572821666666755
                },
                {
                    "name": "C#3",
                    "midi": 49,
                    "time": 136.9927671666668,
                    "velocity": 0.4645669291338583,
                    "duration": 0.1572821666666755
                },
                {
                    "name": "G#2",
                    "midi": 44,
                    "time": 137.15004933333347,
                    "velocity": 0.48031496062992124,
                    "duration": 0.1572821666666755
                },
                {
                    "name": "C#2",
                    "midi": 37,
                    "time": 137.30733150000015,
                    "velocity": 0.5433070866141733,
                    "duration": 0.1572821666666755
                },
                {
                    "name": "C#1",
                    "midi": 25,
                    "time": 137.46461366666682,
                    "velocity": 0.4881889763779528,
                    "duration": 0.1572821666666755
                },
                {
                    "name": "G#2",
                    "midi": 44,
                    "time": 137.6218958333335,
                    "velocity": 0.49606299212598426,
                    "duration": 0.1572821666666755
                },
                {
                    "name": "G#3",
                    "midi": 56,
                    "time": 137.77917800000017,
                    "velocity": 0.6062992125984252,
                    "duration": 0.1572821666666755
                },
                {
                    "name": "C#3",
                    "midi": 49,
                    "time": 137.93646016666685,
                    "velocity": 0.5118110236220472,
                    "duration": 0.1572821666666755
                },
                {
                    "name": "G#2",
                    "midi": 44,
                    "time": 138.09374233333352,
                    "velocity": 0.5118110236220472,
                    "duration": 0.1572821666666755
                },
                {
                    "name": "C#2",
                    "midi": 37,
                    "time": 138.2510245000002,
                    "velocity": 0.5826771653543307,
                    "duration": 0.1572821666666755
                },
                {
                    "name": "C#1",
                    "midi": 25,
                    "time": 138.40830666666687,
                    "velocity": 0.5354330708661418,
                    "duration": 0.1572821666666755
                },
                {
                    "name": "G#2",
                    "midi": 44,
                    "time": 138.56558883333355,
                    "velocity": 0.5354330708661418,
                    "duration": 0.1572821666666755
                },
                {
                    "name": "G#3",
                    "midi": 56,
                    "time": 138.72287100000023,
                    "velocity": 0.6535433070866141,
                    "duration": 0.1572821666666755
                },
                {
                    "name": "C#3",
                    "midi": 49,
                    "time": 138.8801531666669,
                    "velocity": 0.5511811023622047,
                    "duration": 0.1572821666666755
                },
                {
                    "name": "G#2",
                    "midi": 44,
                    "time": 139.03743533333358,
                    "velocity": 0.5511811023622047,
                    "duration": 0.1572821666666755
                },
                {
                    "name": "C#2",
                    "midi": 37,
                    "time": 139.19471750000025,
                    "velocity": 0.6299212598425197,
                    "duration": 0.1572821666666755
                },
                {
                    "name": "C#1",
                    "midi": 25,
                    "time": 139.35199966666693,
                    "velocity": 0.5669291338582677,
                    "duration": 0.1572821666666755
                }
            ],
            "controlChanges": {},
            "id": 3,
            "name": "Piano left2",
            "channelNumber": 0,
            "isPercussion": false
        },
        {
            "startTime": 0,
            "duration": 0,
            "length": 0,
            "notes": [],
            "controlChanges": {
                "64": [
                    {
                        "number": 64,
                        "time": 0.1808744916666667,
                        "value": 1
                    },
                    {
                        "number": 64,
                        "time": 1.9227744875000001,
                        "value": 0
                    },
                    {
                        "number": 64,
                        "time": 2.1508336291666668,
                        "value": 1
                    },
                    {
                        "number": 64,
                        "time": 2.8586033791666665,
                        "value": 0
                    },
                    {
                        "number": 64,
                        "time": 3.9556464916666667,
                        "value": 1
                    },
                    {
                        "number": 64,
                        "time": 5.6975464875,
                        "value": 0
                    },
                    {
                        "number": 64,
                        "time": 5.925605629166667,
                        "value": 1
                    },
                    {
                        "number": 64,
                        "time": 6.633375379166667,
                        "value": 0
                    },
                    {
                        "number": 64,
                        "time": 7.777603141666667,
                        "value": 1
                    },
                    {
                        "number": 64,
                        "time": 9.474284514583333,
                        "value": 0
                    },
                    {
                        "number": 64,
                        "time": 9.92647074375,
                        "value": 1
                    },
                    {
                        "number": 64,
                        "time": 11.357738460416666,
                        "value": 0
                    },
                    {
                        "number": 64,
                        "time": 11.60152581875,
                        "value": 1
                    },
                    {
                        "number": 64,
                        "time": 15.099088,
                        "value": 0
                    },
                    {
                        "number": 64,
                        "time": 15.230811814583333,
                        "value": 1
                    },
                    {
                        "number": 64,
                        "time": 16.074237433333334,
                        "value": 0
                    },
                    {
                        "number": 64,
                        "time": 16.251179870833333,
                        "value": 1
                    },
                    {
                        "number": 64,
                        "time": 17.002202216666667,
                        "value": 0
                    },
                    {
                        "number": 64,
                        "time": 17.098537543750002,
                        "value": 1
                    },
                    {
                        "number": 64,
                        "time": 17.961623433333337,
                        "value": 0
                    },
                    {
                        "number": 64,
                        "time": 18.06975492291667,
                        "value": 1
                    },
                    {
                        "number": 64,
                        "time": 18.885656162500002,
                        "value": 0
                    },
                    {
                        "number": 64,
                        "time": 18.978059435416668,
                        "value": 1
                    },
                    {
                        "number": 64,
                        "time": 19.194322414583336,
                        "value": 0
                    },
                    {
                        "number": 64,
                        "time": 19.227744875000003,
                        "value": 1
                    },
                    {
                        "number": 64,
                        "time": 19.36143471666667,
                        "value": 0
                    },
                    {
                        "number": 64,
                        "time": 19.418449502083334,
                        "value": 1
                    },
                    {
                        "number": 64,
                        "time": 20.161607739583335,
                        "value": 0
                    },
                    {
                        "number": 64,
                        "time": 20.21665649791667,
                        "value": 1
                    },
                    {
                        "number": 64,
                        "time": 20.309059770833336,
                        "value": 0
                    },
                    {
                        "number": 64,
                        "time": 20.35821044791667,
                        "value": 1
                    },
                    {
                        "number": 64,
                        "time": 21.109232793750003,
                        "value": 0
                    },
                    {
                        "number": 64,
                        "time": 21.14855333541667,
                        "value": 1
                    },
                    {
                        "number": 64,
                        "time": 21.262582906250003,
                        "value": 0
                    },
                    {
                        "number": 64,
                        "time": 21.329427827083336,
                        "value": 1
                    },
                    {
                        "number": 64,
                        "time": 22.043095658333336,
                        "value": 0
                    },
                    {
                        "number": 64,
                        "time": 22.09814441666667,
                        "value": 1
                    },
                    {
                        "number": 64,
                        "time": 22.206275906250003,
                        "value": 0
                    },
                    {
                        "number": 64,
                        "time": 22.267222745833337,
                        "value": 1
                    },
                    {
                        "number": 64,
                        "time": 22.91207962916667,
                        "value": 0
                    },
                    {
                        "number": 64,
                        "time": 22.98285660416667,
                        "value": 1
                    },
                    {
                        "number": 64,
                        "time": 23.134240689583336,
                        "value": 0
                    },
                    {
                        "number": 64,
                        "time": 23.175527258333336,
                        "value": 1
                    },
                    {
                        "number": 64,
                        "time": 23.379994075000003,
                        "value": 0
                    },
                    {
                        "number": 64,
                        "time": 23.446838995833335,
                        "value": 1
                    },
                    {
                        "number": 64,
                        "time": 23.62181540625,
                        "value": 0
                    },
                    {
                        "number": 64,
                        "time": 23.676864164583336,
                        "value": 1
                    },
                    {
                        "number": 64,
                        "time": 23.851840575,
                        "value": 0
                    },
                    {
                        "number": 64,
                        "time": 23.918685495833333,
                        "value": 1
                    },
                    {
                        "number": 64,
                        "time": 24.08186574375,
                        "value": 0
                    },
                    {
                        "number": 64,
                        "time": 24.14084655625,
                        "value": 1
                    },
                    {
                        "number": 64,
                        "time": 24.313856939583335,
                        "value": 0
                    },
                    {
                        "number": 64,
                        "time": 24.376769806250003,
                        "value": 1
                    },
                    {
                        "number": 64,
                        "time": 24.56354237916667,
                        "value": 0
                    },
                    {
                        "number": 64,
                        "time": 24.606794975000003,
                        "value": 1
                    },
                    {
                        "number": 64,
                        "time": 24.79356754791667,
                        "value": 0
                    },
                    {
                        "number": 64,
                        "time": 24.848616306250005,
                        "value": 1
                    },
                    {
                        "number": 64,
                        "time": 25.03538887916667,
                        "value": 0
                    },
                    {
                        "number": 64,
                        "time": 25.092403664583337,
                        "value": 1
                    },
                    {
                        "number": 64,
                        "time": 25.267380075000002,
                        "value": 0
                    },
                    {
                        "number": 64,
                        "time": 25.320462806250003,
                        "value": 1
                    },
                    {
                        "number": 64,
                        "time": 25.497405243750002,
                        "value": 0
                    },
                    {
                        "number": 64,
                        "time": 25.57801235416667,
                        "value": 1
                    },
                    {
                        "number": 64,
                        "time": 25.847358064583336,
                        "value": 0
                    },
                    {
                        "number": 64,
                        "time": 30.379050491666668,
                        "value": 1
                    },
                    {
                        "number": 64,
                        "time": 32.120950487500004,
                        "value": 0
                    },
                    {
                        "number": 64,
                        "time": 32.34900962916667,
                        "value": 1
                    },
                    {
                        "number": 64,
                        "time": 33.05677937916667,
                        "value": 0
                    },
                    {
                        "number": 64,
                        "time": 34.15382249166667,
                        "value": 1
                    },
                    {
                        "number": 64,
                        "time": 35.89572248750001,
                        "value": 0
                    },
                    {
                        "number": 64,
                        "time": 36.12378162916668,
                        "value": 1
                    },
                    {
                        "number": 64,
                        "time": 36.84727959583334,
                        "value": 0
                    },
                    {
                        "number": 64,
                        "time": 37.97577914166668,
                        "value": 1
                    },
                    {
                        "number": 64,
                        "time": 39.67246051458334,
                        "value": 0
                    },
                    {
                        "number": 64,
                        "time": 40.124646743750006,
                        "value": 1
                    },
                    {
                        "number": 64,
                        "time": 41.55591446041667,
                        "value": 0
                    },
                    {
                        "number": 64,
                        "time": 41.79970181875001,
                        "value": 1
                    },
                    {
                        "number": 64,
                        "time": 44.408619758333344,
                        "value": 0
                    },
                    {
                        "number": 64,
                        "time": 46.20163645833335,
                        "value": 1
                    },
                    {
                        "number": 64,
                        "time": 47.444165575000014,
                        "value": 0
                    },
                    {
                        "number": 64,
                        "time": 47.53853487500001,
                        "value": 1
                    },
                    {
                        "number": 64,
                        "time": 49.31975541250001,
                        "value": 0
                    },
                    {
                        "number": 64,
                        "time": 49.370872116666675,
                        "value": 1
                    },
                    {
                        "number": 64,
                        "time": 50.031457216666674,
                        "value": 0
                    },
                    {
                        "number": 64,
                        "time": 50.10616624583334,
                        "value": 1
                    },
                    {
                        "number": 64,
                        "time": 50.73529491250001,
                        "value": 0
                    },
                    {
                        "number": 64,
                        "time": 50.80213983333334,
                        "value": 1
                    },
                    {
                        "number": 64,
                        "time": 51.700614210416674,
                        "value": 0
                    },
                    {
                        "number": 64,
                        "time": 51.779255293750005,
                        "value": 1
                    },
                    {
                        "number": 64,
                        "time": 52.846808,
                        "value": 0
                    },
                    {
                        "number": 64,
                        "time": 52.97263373333334,
                        "value": 1
                    },
                    {
                        "number": 64,
                        "time": 56.62158000000001,
                        "value": 0
                    },
                    {
                        "number": 64,
                        "time": 56.75330381458334,
                        "value": 1
                    },
                    {
                        "number": 64,
                        "time": 57.59672943333334,
                        "value": 0
                    },
                    {
                        "number": 64,
                        "time": 57.77367187083334,
                        "value": 1
                    },
                    {
                        "number": 64,
                        "time": 58.524694216666674,
                        "value": 0
                    },
                    {
                        "number": 64,
                        "time": 58.621029543750005,
                        "value": 1
                    },
                    {
                        "number": 64,
                        "time": 59.484115433333336,
                        "value": 0
                    },
                    {
                        "number": 64,
                        "time": 59.59224692291667,
                        "value": 1
                    },
                    {
                        "number": 64,
                        "time": 60.408148162500005,
                        "value": 0
                    },
                    {
                        "number": 64,
                        "time": 60.500551435416675,
                        "value": 1
                    },
                    {
                        "number": 64,
                        "time": 60.71681441458334,
                        "value": 0
                    },
                    {
                        "number": 64,
                        "time": 60.750236875000006,
                        "value": 1
                    },
                    {
                        "number": 64,
                        "time": 60.88392671666667,
                        "value": 0
                    },
                    {
                        "number": 64,
                        "time": 60.94094150208334,
                        "value": 1
                    },
                    {
                        "number": 64,
                        "time": 61.68409973958334,
                        "value": 0
                    },
                    {
                        "number": 64,
                        "time": 61.73914849791667,
                        "value": 1
                    },
                    {
                        "number": 64,
                        "time": 61.83155177083334,
                        "value": 0
                    },
                    {
                        "number": 64,
                        "time": 61.880702447916676,
                        "value": 1
                    },
                    {
                        "number": 64,
                        "time": 62.63172479375001,
                        "value": 0
                    },
                    {
                        "number": 64,
                        "time": 62.67104533541668,
                        "value": 1
                    },
                    {
                        "number": 64,
                        "time": 62.78507490625001,
                        "value": 0
                    },
                    {
                        "number": 64,
                        "time": 62.85191982708334,
                        "value": 1
                    },
                    {
                        "number": 64,
                        "time": 63.56558765833334,
                        "value": 0
                    },
                    {
                        "number": 64,
                        "time": 63.62063641666668,
                        "value": 1
                    },
                    {
                        "number": 64,
                        "time": 63.72876790625001,
                        "value": 0
                    },
                    {
                        "number": 64,
                        "time": 63.789714745833344,
                        "value": 1
                    },
                    {
                        "number": 64,
                        "time": 64.43457162916668,
                        "value": 0
                    },
                    {
                        "number": 64,
                        "time": 64.50534860416668,
                        "value": 1
                    },
                    {
                        "number": 64,
                        "time": 64.65673268958335,
                        "value": 0
                    },
                    {
                        "number": 64,
                        "time": 64.69801925833335,
                        "value": 1
                    },
                    {
                        "number": 64,
                        "time": 64.90248607500001,
                        "value": 0
                    },
                    {
                        "number": 64,
                        "time": 64.96933099583335,
                        "value": 1
                    },
                    {
                        "number": 64,
                        "time": 65.14430740625001,
                        "value": 0
                    },
                    {
                        "number": 64,
                        "time": 65.19935616458334,
                        "value": 1
                    },
                    {
                        "number": 64,
                        "time": 65.374332575,
                        "value": 0
                    },
                    {
                        "number": 64,
                        "time": 65.44117749583333,
                        "value": 1
                    },
                    {
                        "number": 64,
                        "time": 65.60435774375,
                        "value": 0
                    },
                    {
                        "number": 64,
                        "time": 65.66333855625,
                        "value": 1
                    },
                    {
                        "number": 64,
                        "time": 65.83634893958333,
                        "value": 0
                    },
                    {
                        "number": 64,
                        "time": 65.89926180625,
                        "value": 1
                    },
                    {
                        "number": 64,
                        "time": 66.08603437916666,
                        "value": 0
                    },
                    {
                        "number": 64,
                        "time": 66.129286975,
                        "value": 1
                    },
                    {
                        "number": 64,
                        "time": 66.31605954791667,
                        "value": 0
                    },
                    {
                        "number": 64,
                        "time": 66.37110830625,
                        "value": 1
                    },
                    {
                        "number": 64,
                        "time": 66.55788087916666,
                        "value": 0
                    },
                    {
                        "number": 64,
                        "time": 66.61489566458333,
                        "value": 1
                    },
                    {
                        "number": 64,
                        "time": 66.78987207499999,
                        "value": 0
                    },
                    {
                        "number": 64,
                        "time": 66.84295480624999,
                        "value": 1
                    },
                    {
                        "number": 64,
                        "time": 67.01989724375,
                        "value": 0
                    },
                    {
                        "number": 64,
                        "time": 67.10050435416666,
                        "value": 1
                    },
                    {
                        "number": 64,
                        "time": 67.36985006458333,
                        "value": 0
                    },
                    {
                        "number": 64,
                        "time": 68.00880886666667,
                        "value": 1
                    },
                    {
                        "number": 64,
                        "time": 69.833282,
                        "value": 0
                    },
                    {
                        "number": 64,
                        "time": 69.951243625,
                        "value": 1
                    },
                    {
                        "number": 64,
                        "time": 72.58178786250001,
                        "value": 0
                    },
                    {
                        "number": 64,
                        "time": 72.66436100000001,
                        "value": 1
                    },
                    {
                        "number": 64,
                        "time": 72.98875546875001,
                        "value": 0
                    },
                    {
                        "number": 64,
                        "time": 73.04773628125001,
                        "value": 1
                    },
                    {
                        "number": 64,
                        "time": 73.15390174375001,
                        "value": 0
                    },
                    {
                        "number": 64,
                        "time": 73.26596528750001,
                        "value": 1
                    },
                    {
                        "number": 64,
                        "time": 73.95604079375,
                        "value": 0
                    },
                    {
                        "number": 64,
                        "time": 74.00715749791667,
                        "value": 1
                    },
                    {
                        "number": 64,
                        "time": 74.103492825,
                        "value": 0
                    },
                    {
                        "number": 64,
                        "time": 74.22735253125,
                        "value": 1
                    },
                    {
                        "number": 64,
                        "time": 74.93512228125,
                        "value": 0
                    },
                    {
                        "number": 64,
                        "time": 75.00786528333333,
                        "value": 1
                    },
                    {
                        "number": 64,
                        "time": 75.05308390625,
                        "value": 0
                    },
                    {
                        "number": 64,
                        "time": 75.11992882708333,
                        "value": 1
                    },
                    {
                        "number": 64,
                        "time": 75.37354632083333,
                        "value": 0
                    },
                    {
                        "number": 64,
                        "time": 75.49543999999999,
                        "value": 0
                    },
                    {
                        "number": 64,
                        "time": 75.613401625,
                        "value": 1
                    },
                    {
                        "number": 64,
                        "time": 78.33241708125,
                        "value": 0
                    },
                    {
                        "number": 64,
                        "time": 78.40516008333333,
                        "value": 1
                    },
                    {
                        "number": 64,
                        "time": 78.65091346874999,
                        "value": 0
                    },
                    {
                        "number": 64,
                        "time": 78.70989428124999,
                        "value": 1
                    },
                    {
                        "number": 64,
                        "time": 78.81605974374999,
                        "value": 0
                    },
                    {
                        "number": 64,
                        "time": 78.92812328749999,
                        "value": 1
                    },
                    {
                        "number": 64,
                        "time": 79.61819879374998,
                        "value": 0
                    },
                    {
                        "number": 64,
                        "time": 79.66931549791664,
                        "value": 1
                    },
                    {
                        "number": 64,
                        "time": 79.76565082499998,
                        "value": 0
                    },
                    {
                        "number": 64,
                        "time": 79.88951053124998,
                        "value": 1
                    },
                    {
                        "number": 64,
                        "time": 80.59728028124998,
                        "value": 0
                    },
                    {
                        "number": 64,
                        "time": 80.67002328333331,
                        "value": 1
                    },
                    {
                        "number": 64,
                        "time": 80.71524190624997,
                        "value": 0
                    },
                    {
                        "number": 64,
                        "time": 80.7820868270833,
                        "value": 1
                    },
                    {
                        "number": 64,
                        "time": 81.0357043208333,
                        "value": 0
                    },
                    {
                        "number": 64,
                        "time": 81.2067486770833,
                        "value": 1
                    },
                    {
                        "number": 64,
                        "time": 86.81975599999997,
                        "value": 0
                    },
                    {
                        "number": 64,
                        "time": 86.8924990020833,
                        "value": 1
                    },
                    {
                        "number": 64,
                        "time": 88.01116841249997,
                        "value": 0
                    },
                    {
                        "number": 64,
                        "time": 88.0957075770833,
                        "value": 1
                    },
                    {
                        "number": 64,
                        "time": 88.94896333124997,
                        "value": 0
                    },
                    {
                        "number": 64,
                        "time": 89.02760441458331,
                        "value": 1
                    },
                    {
                        "number": 64,
                        "time": 89.90445249374997,
                        "value": 0
                    },
                    {
                        "number": 64,
                        "time": 89.94967111666664,
                        "value": 1
                    },
                    {
                        "number": 64,
                        "time": 90.38612912916663,
                        "value": 0
                    },
                    {
                        "number": 64,
                        "time": 90.74198003124997,
                        "value": 1
                    },
                    {
                        "number": 64,
                        "time": 91.56771140624997,
                        "value": 0
                    },
                    {
                        "number": 64,
                        "time": 91.6227601645833,
                        "value": 1
                    },
                    {
                        "number": 64,
                        "time": 92.50550632499997,
                        "value": 0
                    },
                    {
                        "number": 64,
                        "time": 92.58414740833331,
                        "value": 1
                    },
                    {
                        "number": 64,
                        "time": 93.42560699999997,
                        "value": 0
                    },
                    {
                        "number": 64,
                        "time": 93.57305903124997,
                        "value": 1
                    },
                    {
                        "number": 64,
                        "time": 94.39879040624997,
                        "value": 0
                    },
                    {
                        "number": 64,
                        "time": 94.4538391645833,
                        "value": 1
                    },
                    {
                        "number": 64,
                        "time": 95.33658532499997,
                        "value": 0
                    },
                    {
                        "number": 64,
                        "time": 95.41522640833331,
                        "value": 1
                    },
                    {
                        "number": 64,
                        "time": 96.28421037916664,
                        "value": 0
                    },
                    {
                        "number": 64,
                        "time": 96.3353270833333,
                        "value": 1
                    },
                    {
                        "number": 64,
                        "time": 98.94227899583329,
                        "value": 0
                    },
                    {
                        "number": 64,
                        "time": 99.16050800208329,
                        "value": 1
                    },
                    {
                        "number": 64,
                        "time": 99.54388328333329,
                        "value": 0
                    },
                    {
                        "number": 64,
                        "time": 99.61072820416662,
                        "value": 1
                    },
                    {
                        "number": 64,
                        "time": 101.45289558124995,
                        "value": 0
                    },
                    {
                        "number": 64,
                        "time": 101.53743474583328,
                        "value": 1
                    },
                    {
                        "number": 64,
                        "time": 101.92474208124995,
                        "value": 0
                    },
                    {
                        "number": 64,
                        "time": 102.04270370624995,
                        "value": 1
                    },
                    {
                        "number": 64,
                        "time": 104.52382988541662,
                        "value": 0
                    },
                    {
                        "number": 64,
                        "time": 104.78334546041661,
                        "value": 1
                    },
                    {
                        "number": 64,
                        "time": 105.22766758124995,
                        "value": 0
                    },
                    {
                        "number": 64,
                        "time": 105.30041058333327,
                        "value": 1
                    },
                    {
                        "number": 64,
                        "time": 106.18315674374995,
                        "value": 0
                    },
                    {
                        "number": 64,
                        "time": 106.25000166458328,
                        "value": 1
                    },
                    {
                        "number": 64,
                        "time": 107.12095166249995,
                        "value": 0
                    },
                    {
                        "number": 64,
                        "time": 107.17206836666661,
                        "value": 1
                    },
                    {
                        "number": 64,
                        "time": 107.60656035208328,
                        "value": 0
                    },
                    {
                        "number": 64,
                        "time": 107.68913348958328,
                        "value": 1
                    },
                    {
                        "number": 64,
                        "time": 110.26659499583329,
                        "value": 0
                    },
                    {
                        "number": 64,
                        "time": 110.41208099999996,
                        "value": 1
                    },
                    {
                        "number": 64,
                        "time": 110.88982558124995,
                        "value": 0
                    },
                    {
                        "number": 64,
                        "time": 110.95667050208328,
                        "value": 1
                    },
                    {
                        "number": 64,
                        "time": 111.83351858124995,
                        "value": 0
                    },
                    {
                        "number": 64,
                        "time": 111.92395582708328,
                        "value": 1
                    },
                    {
                        "number": 64,
                        "time": 112.78310966249994,
                        "value": 0
                    },
                    {
                        "number": 64,
                        "time": 112.87354690833327,
                        "value": 1
                    },
                    {
                        "number": 64,
                        "time": 113.2647862979166,
                        "value": 0
                    },
                    {
                        "number": 64,
                        "time": 113.32769916458327,
                        "value": 1
                    },
                    {
                        "number": 64,
                        "time": 115.14824024374994,
                        "value": 0
                    },
                    {
                        "number": 64,
                        "time": 115.20918708333328,
                        "value": 1
                    },
                    {
                        "number": 64,
                        "time": 117.04938843333328,
                        "value": 0
                    },
                    {
                        "number": 64,
                        "time": 117.08281089374995,
                        "value": 1
                    },
                    {
                        "number": 64,
                        "time": 117.97538718958329,
                        "value": 0
                    },
                    {
                        "number": 64,
                        "time": 118.06779046249996,
                        "value": 1
                    },
                    {
                        "number": 64,
                        "time": 118.92891032499996,
                        "value": 0
                    },
                    {
                        "number": 64,
                        "time": 118.98789113749996,
                        "value": 1
                    },
                    {
                        "number": 64,
                        "time": 119.8804674333333,
                        "value": 0
                    },
                    {
                        "number": 64,
                        "time": 119.93158413749995,
                        "value": 1
                    },
                    {
                        "number": 64,
                        "time": 120.79270399999996,
                        "value": 0
                    },
                    {
                        "number": 64,
                        "time": 120.90083548958329,
                        "value": 1
                    },
                    {
                        "number": 64,
                        "time": 121.75802329791662,
                        "value": 0
                    },
                    {
                        "number": 64,
                        "time": 121.79734383958329,
                        "value": 1
                    },
                    {
                        "number": 64,
                        "time": 122.70171629791662,
                        "value": 0
                    },
                    {
                        "number": 64,
                        "time": 122.74693492083328,
                        "value": 1
                    },
                    {
                        "number": 64,
                        "time": 123.65917148749995,
                        "value": 0
                    },
                    {
                        "number": 64,
                        "time": 123.70439011041661,
                        "value": 1
                    },
                    {
                        "number": 64,
                        "time": 124.58320421666662,
                        "value": 0
                    },
                    {
                        "number": 64,
                        "time": 124.68347159791662,
                        "value": 1
                    },
                    {
                        "number": 64,
                        "time": 125.53869337916662,
                        "value": 0
                    },
                    {
                        "number": 64,
                        "time": 125.58587802916662,
                        "value": 1
                    },
                    {
                        "number": 64,
                        "time": 126.47845432499996,
                        "value": 0
                    },
                    {
                        "number": 64,
                        "time": 126.51974089374995,
                        "value": 1
                    },
                    {
                        "number": 64,
                        "time": 127.42214732499995,
                        "value": 0
                    },
                    {
                        "number": 64,
                        "time": 127.47326402916661,
                        "value": 1
                    },
                    {
                        "number": 64,
                        "time": 128.34224799999996,
                        "value": 0
                    },
                    {
                        "number": 64,
                        "time": 128.4503794895833,
                        "value": 1
                    },
                    {
                        "number": 64,
                        "time": 129.30756729791662,
                        "value": 0
                    },
                    {
                        "number": 64,
                        "time": 129.34098975833328,
                        "value": 1
                    },
                    {
                        "number": 64,
                        "time": 130.26109043333327,
                        "value": 0
                    },
                    {
                        "number": 64,
                        "time": 130.29058083958327,
                        "value": 1
                    },
                    {
                        "number": 64,
                        "time": 130.73686898749995,
                        "value": 0
                    },
                    {
                        "number": 64,
                        "time": 130.7761895291666,
                        "value": 1
                    },
                    {
                        "number": 64,
                        "time": 131.18708918958328,
                        "value": 0
                    },
                    {
                        "number": 64,
                        "time": 131.23427383958327,
                        "value": 1
                    },
                    {
                        "number": 64,
                        "time": 132.1327482166666,
                        "value": 0
                    },
                    {
                        "number": 64,
                        "time": 132.19566108333328,
                        "value": 1
                    },
                    {
                        "number": 64,
                        "time": 133.08430532499995,
                        "value": 0
                    },
                    {
                        "number": 64,
                        "time": 133.1570483270833,
                        "value": 1
                    },
                    {
                        "number": 64,
                        "time": 134.03389640624997,
                        "value": 0
                    },
                    {
                        "number": 64,
                        "time": 134.1007413270833,
                        "value": 1
                    },
                    {
                        "number": 64,
                        "time": 134.98348748749999,
                        "value": 0
                    },
                    {
                        "number": 64,
                        "time": 135.0385362458333,
                        "value": 1
                    },
                    {
                        "number": 64,
                        "time": 135.89179199999998,
                        "value": 0
                    },
                    {
                        "number": 64,
                        "time": 135.96060294791664,
                        "value": 1
                    },
                    {
                        "number": 64,
                        "time": 136.2122544145833,
                        "value": 0
                    },
                    {
                        "number": 64,
                        "time": 136.26926919999997,
                        "value": 1
                    },
                    {
                        "number": 64,
                        "time": 136.37543466249997,
                        "value": 0
                    },
                    {
                        "number": 64,
                        "time": 136.4658719083333,
                        "value": 1
                    },
                    {
                        "number": 64,
                        "time": 137.1795397395833,
                        "value": 0
                    },
                    {
                        "number": 64,
                        "time": 137.24638466041665,
                        "value": 1
                    },
                    {
                        "number": 64,
                        "time": 138.10553849583331,
                        "value": 0
                    },
                    {
                        "number": 64,
                        "time": 138.14485903749997,
                        "value": 1
                    },
                    {
                        "number": 64,
                        "time": 138.26871874374996,
                        "value": 0
                    },
                    {
                        "number": 64,
                        "time": 138.3355636645833,
                        "value": 1
                    },
                    {
                        "number": 64,
                        "time": 139.05709560416665,
                        "value": 0
                    },
                    {
                        "number": 64,
                        "time": 139.12197449791665,
                        "value": 1
                    },
                    {
                        "number": 64,
                        "time": 139.666564,
                        "value": 0
                    },
                    {
                        "number": 64,
                        "time": 140.25047404375,
                        "value": 1
                    },
                    {
                        "number": 64,
                        "time": 140.65547562291667,
                        "value": 0
                    },
                    {
                        "number": 64,
                        "time": 140.80096162708332,
                        "value": 1
                    },
                    {
                        "number": 64,
                        "time": 141.08996760833332,
                        "value": 0
                    },
                    {
                        "number": 64,
                        "time": 141.19416704374999,
                        "value": 1
                    },
                    {
                        "number": 64,
                        "time": 141.57164424374997,
                        "value": 0
                    },
                    {
                        "number": 64,
                        "time": 141.7446546270833,
                        "value": 1
                    },
                    {
                        "number": 64,
                        "time": 142.05135485208328,
                        "value": 0
                    },
                    {
                        "number": 64,
                        "time": 142.1830786666666,
                        "value": 1
                    },
                    {
                        "number": 64,
                        "time": 142.5251673791666,
                        "value": 0
                    },
                    {
                        "number": 64,
                        "time": 142.68834762708326,
                        "value": 1
                    },
                    {
                        "number": 64,
                        "time": 142.99897990624993,
                        "value": 0
                    },
                    {
                        "number": 64,
                        "time": 143.1385678291666,
                        "value": 1
                    },
                    {
                        "number": 64,
                        "time": 143.44526805416658,
                        "value": 0
                    },
                    {
                        "number": 64,
                        "time": 143.61434638333324,
                        "value": 1
                    },
                    {
                        "number": 64,
                        "time": 149.52422379583325,
                        "value": 0
                    }
                ]
            },
            "id": 4,
            "name": "Pedale",
            "instrumentNumber": 0,
            "instrument": "acoustic grand piano",
            "instrumentFamily": "piano",
            "channelNumber": 0,
            "isPercussion": false
        },
        {
            "startTime": 0,
            "duration": 0,
            "length": 0,
            "notes": [],
            "controlChanges": {},
            "id": 5,
            "name": "Rachmaninov: Etudes-Tableux Opus 33 No. 6"
        },
        {
            "startTime": 0,
            "duration": 0,
            "length": 0,
            "notes": [],
            "controlChanges": {},
            "id": 6,
            "name": "Copyright  2013 by Bernd Krueger"
        },
        {
            "startTime": 0,
            "duration": 0,
            "length": 0,
            "notes": [],
            "controlChanges": {},
            "id": 7,
            "name": "http://www.piano-midi.de/"
        },
        {
            "startTime": 0,
            "duration": 0,
            "length": 0,
            "notes": [],
            "controlChanges": {},
            "id": 8,
            "name": "Edition: 2013-03-25"
        },
        {
            "startTime": 0,
            "duration": 0,
            "length": 0,
            "notes": [],
            "controlChanges": {},
            "id": 9,
            "name": "Spur 9"
        },
        {
            "startTime": 0,
            "duration": 0,
            "length": 0,
            "notes": [],
            "controlChanges": {},
            "id": 10,
            "name": "Spur 10"
        },
        {
            "startTime": 0,
            "duration": 0,
            "length": 0,
            "notes": [],
            "controlChanges": {},
            "id": 11,
            "name": "Spur 11"
        },
        {
            "startTime": 0,
            "duration": 0,
            "length": 0,
            "notes": [],
            "controlChanges": {},
            "id": 12,
            "name": "Spur 12"
        },
        {
            "startTime": 0,
            "duration": 0,
            "length": 0,
            "notes": [],
            "controlChanges": {},
            "id": 13,
            "name": "Spur 13"
        },
        {
            "startTime": 0,
            "duration": 0,
            "length": 0,
            "notes": [],
            "controlChanges": {},
            "id": 14,
            "name": "Spur 14"
        },
        {
            "startTime": 0,
            "duration": 0,
            "length": 0,
            "notes": [],
            "controlChanges": {},
            "id": 15,
            "name": "Spur 15"
        },
        {
            "startTime": 0,
            "duration": 0,
            "length": 0,
            "notes": [],
            "controlChanges": {},
            "id": 16,
            "name": "Spur 16"
        },
        {
            "startTime": 0,
            "duration": 0,
            "length": 0,
            "notes": [],
            "controlChanges": {},
            "id": 17,
            "name": "Spur 17"
        }
    ]
}