{
    "header": {
        "PPQ": 480,
        "timeSignature": [
            2,
            2
        ],
        "bpm": 109.07008661982712,
        "name": "Allegro con fuoco"
    },
    "startTime": 0,
    "duration": 123.22351999999914,
    "tracks": [
        {
            "startTime": 0,
            "duration": 0,
            "length": 0,
            "notes": [],
            "controlChanges": {},
            "id": 0,
            "name": "Allegro con fuoco"
        },
        {
            "startTime": 0,
            "duration": 123.2235199999983,
            "length": 1078,
            "notes": [
                {
                    "name": "D#5",
                    "midi": 75,
                    "time": 0,
                    "velocity": 0.5354330708661418,
                    "duration": 1.10021
                },
                {
                    "name": "G5",
                    "midi": 79,
                    "time": 0,
                    "velocity": 0.6299212598425197,
                    "duration": 1.10021
                },
                {
                    "name": "D#5",
                    "midi": 75,
                    "time": 1.10021,
                    "velocity": 0.5354330708661418,
                    "duration": 0.8251575
                },
                {
                    "name": "G5",
                    "midi": 79,
                    "time": 1.10021,
                    "velocity": 0.6299212598425197,
                    "duration": 0.8251575
                },
                {
                    "name": "C5",
                    "midi": 72,
                    "time": 1.9253675,
                    "velocity": 0.5669291338582677,
                    "duration": 0.2750524999999999
                },
                {
                    "name": "D#5",
                    "midi": 75,
                    "time": 2.20042,
                    "velocity": 0.5354330708661418,
                    "duration": 0.8251575
                },
                {
                    "name": "G5",
                    "midi": 79,
                    "time": 2.20042,
                    "velocity": 0.6299212598425197,
                    "duration": 0.8251575
                },
                {
                    "name": "A#4",
                    "midi": 70,
                    "time": 3.0255775,
                    "velocity": 0.5669291338582677,
                    "duration": 0.27505250000000014
                },
                {
                    "name": "D#5",
                    "midi": 75,
                    "time": 3.30063,
                    "velocity": 0.5826771653543307,
                    "duration": 0.5501049999999998
                },
                {
                    "name": "G5",
                    "midi": 79,
                    "time": 3.30063,
                    "velocity": 0.6929133858267716,
                    "duration": 0.5501049999999998
                },
                {
                    "name": "G4",
                    "midi": 67,
                    "time": 3.850735,
                    "velocity": 0.5984251968503937,
                    "duration": 0.13752625000000007
                },
                {
                    "name": "A#4",
                    "midi": 70,
                    "time": 3.98826125,
                    "velocity": 0.5354330708661418,
                    "duration": 0.13752624999999963
                },
                {
                    "name": "D5",
                    "midi": 74,
                    "time": 4.1257874999999995,
                    "velocity": 0.6377952755905512,
                    "duration": 0.13752624999999963
                },
                {
                    "name": "G5",
                    "midi": 79,
                    "time": 4.400839999999999,
                    "velocity": 0.6929133858267716,
                    "duration": 0.27505250000000014
                },
                {
                    "name": "D#5",
                    "midi": 75,
                    "time": 4.400839999999999,
                    "velocity": 0.5826771653543307,
                    "duration": 0.27505250000000014
                },
                {
                    "name": "D#4",
                    "midi": 63,
                    "time": 4.675892499999999,
                    "velocity": 0.5826771653543307,
                    "duration": 0.13752624999999963
                },
                {
                    "name": "G4",
                    "midi": 67,
                    "time": 4.8134187499999985,
                    "velocity": 0.5984251968503937,
                    "duration": 0.13752624999999963
                },
                {
                    "name": "A#4",
                    "midi": 70,
                    "time": 4.950944999999998,
                    "velocity": 0.6929133858267716,
                    "duration": 0.13752624999999963
                },
                {
                    "name": "C5",
                    "midi": 72,
                    "time": 5.225997499999997,
                    "velocity": 0.6377952755905512,
                    "duration": 0.13752624999999963
                },
                {
                    "name": "D#5",
                    "midi": 75,
                    "time": 5.501049999999997,
                    "velocity": 0.6141732283464567,
                    "duration": 0.27505250000000014
                },
                {
                    "name": "G5",
                    "midi": 79,
                    "time": 5.501049999999997,
                    "velocity": 0.7244094488188977,
                    "duration": 0.27505250000000014
                },
                {
                    "name": "C4",
                    "midi": 60,
                    "time": 5.776102499999997,
                    "velocity": 0.6850393700787402,
                    "duration": 0.13752624999999963
                },
                {
                    "name": "D#4",
                    "midi": 63,
                    "time": 5.913628749999996,
                    "velocity": 0.6929133858267716,
                    "duration": 0.13752624999999963
                },
                {
                    "name": "G4",
                    "midi": 67,
                    "time": 6.051154999999996,
                    "velocity": 0.7559055118110236,
                    "duration": 0.13752624999999963
                },
                {
                    "name": "A#4",
                    "midi": 70,
                    "time": 6.326207499999995,
                    "velocity": 0.8110236220472441,
                    "duration": 0.13752624999999963
                },
                {
                    "name": "A#3",
                    "midi": 58,
                    "time": 6.326207499999995,
                    "velocity": 0.6850393700787402,
                    "duration": 0.13752624999999963
                },
                {
                    "name": "G5",
                    "midi": 79,
                    "time": 6.601259999999995,
                    "velocity": 0.8818897637795275,
                    "duration": 0.8251574999999987
                },
                {
                    "name": "D#5",
                    "midi": 75,
                    "time": 6.601259999999995,
                    "velocity": 0.7401574803149606,
                    "duration": 0.8251574999999987
                },
                {
                    "name": "A#4",
                    "midi": 70,
                    "time": 6.601259999999995,
                    "velocity": 0.7401574803149606,
                    "duration": 0.8251574999999987
                },
                {
                    "name": "G4",
                    "midi": 67,
                    "time": 6.601259999999995,
                    "velocity": 0.7401574803149606,
                    "duration": 0.8251574999999987
                },
                {
                    "name": "G3",
                    "midi": 55,
                    "time": 6.876312499999995,
                    "velocity": 0.30708661417322836,
                    "duration": 0.13752624999999963
                },
                {
                    "name": "D#3",
                    "midi": 51,
                    "time": 6.876312499999995,
                    "velocity": 0.25984251968503935,
                    "duration": 0.13752624999999963
                },
                {
                    "name": "A#3",
                    "midi": 58,
                    "time": 7.013838749999994,
                    "velocity": 0.23622047244094488,
                    "duration": 0.13752624999999963
                },
                {
                    "name": "G3",
                    "midi": 55,
                    "time": 7.151364999999994,
                    "velocity": 0.3228346456692913,
                    "duration": 0.13752624999999963
                },
                {
                    "name": "D#3",
                    "midi": 51,
                    "time": 7.151364999999994,
                    "velocity": 0.2677165354330709,
                    "duration": 0.13752624999999963
                },
                {
                    "name": "A#3",
                    "midi": 58,
                    "time": 7.288891249999994,
                    "velocity": 0.23622047244094488,
                    "duration": 0.13752624999999963
                },
                {
                    "name": "G#3",
                    "midi": 56,
                    "time": 7.426417499999993,
                    "velocity": 0.3779527559055118,
                    "duration": 0.13752624999999963
                },
                {
                    "name": "F3",
                    "midi": 53,
                    "time": 7.426417499999993,
                    "velocity": 0.31496062992125984,
                    "duration": 0.13752624999999963
                },
                {
                    "name": "A#3",
                    "midi": 58,
                    "time": 7.563943749999993,
                    "velocity": 0.23622047244094488,
                    "duration": 0.13752624999999963
                },
                {
                    "name": "G3",
                    "midi": 55,
                    "time": 7.7014699999999925,
                    "velocity": 0.3228346456692913,
                    "duration": 0.13752624999999963
                },
                {
                    "name": "D#3",
                    "midi": 51,
                    "time": 7.7014699999999925,
                    "velocity": 0.2677165354330709,
                    "duration": 0.13752624999999963
                },
                {
                    "name": "A#3",
                    "midi": 58,
                    "time": 7.838996249999992,
                    "velocity": 0.23622047244094488,
                    "duration": 0.13752624999999963
                },
                {
                    "name": "D#3",
                    "midi": 51,
                    "time": 7.976522499999992,
                    "velocity": 0.25984251968503935,
                    "duration": 0.13752624999999963
                },
                {
                    "name": "G3",
                    "midi": 55,
                    "time": 7.976522499999992,
                    "velocity": 0.30708661417322836,
                    "duration": 0.13752624999999963
                },
                {
                    "name": "A#3",
                    "midi": 58,
                    "time": 8.114048749999991,
                    "velocity": 0.23622047244094488,
                    "duration": 0.13752625000000052
                },
                {
                    "name": "G3",
                    "midi": 55,
                    "time": 8.251574999999992,
                    "velocity": 0.31496062992125984,
                    "duration": 0.13752625000000052
                },
                {
                    "name": "D#3",
                    "midi": 51,
                    "time": 8.251574999999992,
                    "velocity": 0.2677165354330709,
                    "duration": 0.13752625000000052
                },
                {
                    "name": "A#3",
                    "midi": 58,
                    "time": 8.389101249999992,
                    "velocity": 0.23622047244094488,
                    "duration": 0.13752625000000052
                },
                {
                    "name": "F3",
                    "midi": 53,
                    "time": 8.526627499999993,
                    "velocity": 0.30708661417322836,
                    "duration": 0.13752625000000052
                },
                {
                    "name": "G#3",
                    "midi": 56,
                    "time": 8.526627499999993,
                    "velocity": 0.3700787401574803,
                    "duration": 0.13752625000000052
                },
                {
                    "name": "A#3",
                    "midi": 58,
                    "time": 8.664153749999993,
                    "velocity": 0.23622047244094488,
                    "duration": 0.13752625000000052
                },
                {
                    "name": "G3",
                    "midi": 55,
                    "time": 8.801679999999994,
                    "velocity": 0.3228346456692913,
                    "duration": 0.13752625000000052
                },
                {
                    "name": "D#3",
                    "midi": 51,
                    "time": 8.801679999999994,
                    "velocity": 0.2677165354330709,
                    "duration": 0.13752625000000052
                },
                {
                    "name": "A#3",
                    "midi": 58,
                    "time": 8.939206249999994,
                    "velocity": 0.23622047244094488,
                    "duration": 0.13752625000000052
                },
                {
                    "name": "D#3",
                    "midi": 51,
                    "time": 9.076732499999995,
                    "velocity": 0.25984251968503935,
                    "duration": 0.13752625000000052
                },
                {
                    "name": "G3",
                    "midi": 55,
                    "time": 9.076732499999995,
                    "velocity": 0.30708661417322836,
                    "duration": 0.13752625000000052
                },
                {
                    "name": "A#3",
                    "midi": 58,
                    "time": 9.214258749999996,
                    "velocity": 0.23622047244094488,
                    "duration": 0.13752625000000052
                },
                {
                    "name": "G3",
                    "midi": 55,
                    "time": 9.351784999999996,
                    "velocity": 0.31496062992125984,
                    "duration": 0.13752625000000052
                },
                {
                    "name": "D#3",
                    "midi": 51,
                    "time": 9.351784999999996,
                    "velocity": 0.2677165354330709,
                    "duration": 0.13752625000000052
                },
                {
                    "name": "A#3",
                    "midi": 58,
                    "time": 9.489311249999997,
                    "velocity": 0.23622047244094488,
                    "duration": 0.13752625000000052
                },
                {
                    "name": "F3",
                    "midi": 53,
                    "time": 9.626837499999997,
                    "velocity": 0.30708661417322836,
                    "duration": 0.13752625000000052
                },
                {
                    "name": "G#3",
                    "midi": 56,
                    "time": 9.626837499999997,
                    "velocity": 0.3700787401574803,
                    "duration": 0.13752625000000052
                },
                {
                    "name": "A#3",
                    "midi": 58,
                    "time": 9.764363749999998,
                    "velocity": 0.23622047244094488,
                    "duration": 0.13752625000000052
                },
                {
                    "name": "G3",
                    "midi": 55,
                    "time": 9.901889999999998,
                    "velocity": 0.3228346456692913,
                    "duration": 0.13752625000000052
                },
                {
                    "name": "D#3",
                    "midi": 51,
                    "time": 9.901889999999998,
                    "velocity": 0.2677165354330709,
                    "duration": 0.13752625000000052
                },
                {
                    "name": "A#3",
                    "midi": 58,
                    "time": 10.039416249999999,
                    "velocity": 0.23622047244094488,
                    "duration": 0.13752625000000052
                },
                {
                    "name": "D#3",
                    "midi": 51,
                    "time": 10.1769425,
                    "velocity": 0.25984251968503935,
                    "duration": 0.13752625000000052
                },
                {
                    "name": "G3",
                    "midi": 55,
                    "time": 10.1769425,
                    "velocity": 0.30708661417322836,
                    "duration": 0.13752625000000052
                },
                {
                    "name": "A#3",
                    "midi": 58,
                    "time": 10.31446875,
                    "velocity": 0.23622047244094488,
                    "duration": 0.13752625000000052
                },
                {
                    "name": "G3",
                    "midi": 55,
                    "time": 10.451995,
                    "velocity": 0.31496062992125984,
                    "duration": 0.13752625000000052
                },
                {
                    "name": "D#3",
                    "midi": 51,
                    "time": 10.451995,
                    "velocity": 0.2677165354330709,
                    "duration": 0.13752625000000052
                },
                {
                    "name": "A#3",
                    "midi": 58,
                    "time": 10.58952125,
                    "velocity": 0.23622047244094488,
                    "duration": 0.13752625000000052
                },
                {
                    "name": "F3",
                    "midi": 53,
                    "time": 10.727047500000001,
                    "velocity": 0.30708661417322836,
                    "duration": 0.13752625000000052
                },
                {
                    "name": "G#3",
                    "midi": 56,
                    "time": 10.727047500000001,
                    "velocity": 0.3700787401574803,
                    "duration": 0.13752625000000052
                },
                {
                    "name": "A#3",
                    "midi": 58,
                    "time": 10.864573750000002,
                    "velocity": 0.23622047244094488,
                    "duration": 0.13752625000000052
                },
                {
                    "name": "D#3",
                    "midi": 51,
                    "time": 11.002100000000002,
                    "velocity": 0.2677165354330709,
                    "duration": 0.13752625000000052
                },
                {
                    "name": "G3",
                    "midi": 55,
                    "time": 11.002100000000002,
                    "velocity": 0.3228346456692913,
                    "duration": 0.13752625000000052
                },
                {
                    "name": "A#3",
                    "midi": 58,
                    "time": 11.139626250000003,
                    "velocity": 0.25984251968503935,
                    "duration": 0.13752625000000052
                },
                {
                    "name": "G3",
                    "midi": 55,
                    "time": 11.277152500000003,
                    "velocity": 0.3464566929133858,
                    "duration": 0.13752625000000052
                },
                {
                    "name": "D#3",
                    "midi": 51,
                    "time": 11.277152500000003,
                    "velocity": 0.29133858267716534,
                    "duration": 0.13752625000000052
                },
                {
                    "name": "D#4",
                    "midi": 63,
                    "time": 11.414678750000004,
                    "velocity": 0.30708661417322836,
                    "duration": 0.13752625000000052
                },
                {
                    "name": "G#3",
                    "midi": 56,
                    "time": 11.552205000000004,
                    "velocity": 0.3543307086614173,
                    "duration": 0.13752625000000052
                },
                {
                    "name": "F3",
                    "midi": 53,
                    "time": 11.552205000000004,
                    "velocity": 0.2992125984251969,
                    "duration": 0.13752625000000052
                },
                {
                    "name": "D#4",
                    "midi": 63,
                    "time": 11.689731250000005,
                    "velocity": 0.3228346456692913,
                    "duration": 0.13752625000000052
                },
                {
                    "name": "G3",
                    "midi": 55,
                    "time": 11.827257500000005,
                    "velocity": 0.2992125984251969,
                    "duration": 0.13752625000000052
                },
                {
                    "name": "A#3",
                    "midi": 58,
                    "time": 11.827257500000005,
                    "velocity": 0.3543307086614173,
                    "duration": 0.13752625000000052
                },
                {
                    "name": "D#4",
                    "midi": 63,
                    "time": 11.964783750000006,
                    "velocity": 0.31496062992125984,
                    "duration": 0.13752625000000052
                },
                {
                    "name": "G#3",
                    "midi": 56,
                    "time": 12.102310000000006,
                    "velocity": 0.30708661417322836,
                    "duration": 0.13752625000000052
                },
                {
                    "name": "C4",
                    "midi": 60,
                    "time": 12.102310000000006,
                    "velocity": 0.36220472440944884,
                    "duration": 0.13752625000000052
                },
                {
                    "name": "D#4",
                    "midi": 63,
                    "time": 12.239836250000007,
                    "velocity": 0.33070866141732286,
                    "duration": 0.13752625000000052
                },
                {
                    "name": "A#3",
                    "midi": 58,
                    "time": 12.377362500000007,
                    "velocity": 0.31496062992125984,
                    "duration": 0.13752625000000052
                },
                {
                    "name": "D4",
                    "midi": 62,
                    "time": 12.377362500000007,
                    "velocity": 0.3858267716535433,
                    "duration": 0.13752625000000052
                },
                {
                    "name": "A#4",
                    "midi": 70,
                    "time": 12.514888750000008,
                    "velocity": 0.33858267716535434,
                    "duration": 0.13752625000000052
                },
                {
                    "name": "D#4",
                    "midi": 63,
                    "time": 12.652415000000008,
                    "velocity": 0.4094488188976378,
                    "duration": 0.13752625000000052
                },
                {
                    "name": "C4",
                    "midi": 60,
                    "time": 12.652415000000008,
                    "velocity": 0.3464566929133858,
                    "duration": 0.13752625000000052
                },
                {
                    "name": "A#4",
                    "midi": 70,
                    "time": 12.789941250000009,
                    "velocity": 0.3464566929133858,
                    "duration": 0.13752625000000052
                },
                {
                    "name": "F4",
                    "midi": 65,
                    "time": 12.92746750000001,
                    "velocity": 0.4251968503937008,
                    "duration": 0.13752625000000052
                },
                {
                    "name": "D4",
                    "midi": 62,
                    "time": 12.92746750000001,
                    "velocity": 0.3543307086614173,
                    "duration": 0.13752625000000052
                },
                {
                    "name": "A#4",
                    "midi": 70,
                    "time": 13.06499375000001,
                    "velocity": 0.3937007874015748,
                    "duration": 0.13752625000000052
                },
                {
                    "name": "G4",
                    "midi": 67,
                    "time": 13.20252000000001,
                    "velocity": 0.44881889763779526,
                    "duration": 0.13752625000000052
                },
                {
                    "name": "D#4",
                    "midi": 63,
                    "time": 13.20252000000001,
                    "velocity": 0.3700787401574803,
                    "duration": 0.13752625000000052
                },
                {
                    "name": "A#4",
                    "midi": 70,
                    "time": 13.340046250000011,
                    "velocity": 0.3937007874015748,
                    "duration": 0.13752625000000052
                },
                {
                    "name": "G4",
                    "midi": 67,
                    "time": 13.477572500000012,
                    "velocity": 0.48031496062992124,
                    "duration": 0.13752625000000052
                },
                {
                    "name": "D#4",
                    "midi": 63,
                    "time": 13.477572500000012,
                    "velocity": 0.4015748031496063,
                    "duration": 0.13752625000000052
                },
                {
                    "name": "D#5",
                    "midi": 75,
                    "time": 13.615098750000012,
                    "velocity": 0.41732283464566927,
                    "duration": 0.13752625000000052
                },
                {
                    "name": "G#4",
                    "midi": 68,
                    "time": 13.752625000000013,
                    "velocity": 0.4881889763779528,
                    "duration": 0.13752625000000052
                },
                {
                    "name": "F4",
                    "midi": 65,
                    "time": 13.752625000000013,
                    "velocity": 0.4094488188976378,
                    "duration": 0.13752625000000052
                },
                {
                    "name": "D#5",
                    "midi": 75,
                    "time": 13.890151250000013,
                    "velocity": 0.44881889763779526,
                    "duration": 0.13752625000000052
                },
                {
                    "name": "G4",
                    "midi": 67,
                    "time": 14.027677500000014,
                    "velocity": 0.41732283464566927,
                    "duration": 0.13752625000000052
                },
                {
                    "name": "A#4",
                    "midi": 70,
                    "time": 14.027677500000014,
                    "velocity": 0.49606299212598426,
                    "duration": 0.13752625000000052
                },
                {
                    "name": "D#5",
                    "midi": 75,
                    "time": 14.165203750000014,
                    "velocity": 0.44881889763779526,
                    "duration": 0.13752625000000052
                },
                {
                    "name": "C5",
                    "midi": 72,
                    "time": 14.302730000000015,
                    "velocity": 0.5039370078740157,
                    "duration": 0.13752625000000052
                },
                {
                    "name": "G#4",
                    "midi": 68,
                    "time": 14.302730000000015,
                    "velocity": 0.41732283464566927,
                    "duration": 0.13752625000000052
                },
                {
                    "name": "D#5",
                    "midi": 75,
                    "time": 14.440256250000015,
                    "velocity": 0.4645669291338583,
                    "duration": 0.13752625000000052
                },
                {
                    "name": "A#4",
                    "midi": 70,
                    "time": 14.577782500000016,
                    "velocity": 0.44881889763779526,
                    "duration": 0.13752625000000052
                },
                {
                    "name": "D5",
                    "midi": 74,
                    "time": 14.577782500000016,
                    "velocity": 0.5275590551181102,
                    "duration": 0.13752625000000052
                },
                {
                    "name": "A#5",
                    "midi": 82,
                    "time": 14.715308750000016,
                    "velocity": 0.5039370078740157,
                    "duration": 0.13752625000000052
                },
                {
                    "name": "D#5",
                    "midi": 75,
                    "time": 14.852835000000017,
                    "velocity": 0.5748031496062992,
                    "duration": 0.13752625000000052
                },
                {
                    "name": "C5",
                    "midi": 72,
                    "time": 14.852835000000017,
                    "velocity": 0.48031496062992124,
                    "duration": 0.13752625000000052
                },
                {
                    "name": "A#5",
                    "midi": 82,
                    "time": 14.990361250000017,
                    "velocity": 0.5275590551181102,
                    "duration": 0.13752625000000052
                },
                {
                    "name": "F5",
                    "midi": 77,
                    "time": 15.127887500000018,
                    "velocity": 0.5826771653543307,
                    "duration": 0.13752625000000052
                },
                {
                    "name": "D5",
                    "midi": 74,
                    "time": 15.127887500000018,
                    "velocity": 0.4881889763779528,
                    "duration": 0.13752625000000052
                },
                {
                    "name": "A#5",
                    "midi": 82,
                    "time": 15.265413750000018,
                    "velocity": 0.5354330708661418,
                    "duration": 0.13752625000000052
                },
                {
                    "name": "G5",
                    "midi": 79,
                    "time": 15.402940000000019,
                    "velocity": 0.6456692913385826,
                    "duration": 0.13752625000000052
                },
                {
                    "name": "D#5",
                    "midi": 75,
                    "time": 15.402940000000019,
                    "velocity": 0.5433070866141733,
                    "duration": 0.13752625000000052
                },
                {
                    "name": "A#5",
                    "midi": 82,
                    "time": 15.54046625000002,
                    "velocity": 0.4645669291338583,
                    "duration": 0.13752625000000052
                },
                {
                    "name": "F5",
                    "midi": 77,
                    "time": 15.67799250000002,
                    "velocity": 0.41732283464566927,
                    "duration": 0.13752625000000052
                },
                {
                    "name": "D5",
                    "midi": 74,
                    "time": 15.67799250000002,
                    "velocity": 0.2677165354330709,
                    "duration": 0.13752625000000052
                },
                {
                    "name": "A#4",
                    "midi": 70,
                    "time": 15.67799250000002,
                    "velocity": 0.2677165354330709,
                    "duration": 0.13752625000000052
                },
                {
                    "name": "F#5",
                    "midi": 78,
                    "time": 15.81551875000002,
                    "velocity": 0.33858267716535434,
                    "duration": 0.13752625000000052
                },
                {
                    "name": "C6",
                    "midi": 84,
                    "time": 15.81551875000002,
                    "velocity": 0.4015748031496063,
                    "duration": 0.13752625000000052
                },
                {
                    "name": "D#5",
                    "midi": 75,
                    "time": 15.95304500000002,
                    "velocity": 0.4409448818897638,
                    "duration": 0.13752625000000052
                },
                {
                    "name": "G5",
                    "midi": 79,
                    "time": 15.95304500000002,
                    "velocity": 0.5196850393700787,
                    "duration": 0.13752625000000052
                },
                {
                    "name": "G#5",
                    "midi": 80,
                    "time": 16.09057125000002,
                    "velocity": 0.3858267716535433,
                    "duration": 0.13752625000000052
                },
                {
                    "name": "A#5",
                    "midi": 82,
                    "time": 16.09057125000002,
                    "velocity": 0.4566929133858268,
                    "duration": 0.13752625000000052
                },
                {
                    "name": "F5",
                    "midi": 77,
                    "time": 16.228097500000022,
                    "velocity": 0.4015748031496063,
                    "duration": 0.13752625000000052
                },
                {
                    "name": "D5",
                    "midi": 74,
                    "time": 16.228097500000022,
                    "velocity": 0.2440944881889764,
                    "duration": 0.13752625000000052
                },
                {
                    "name": "A#4",
                    "midi": 70,
                    "time": 16.228097500000022,
                    "velocity": 0.2440944881889764,
                    "duration": 0.13752625000000052
                },
                {
                    "name": "F#5",
                    "midi": 78,
                    "time": 16.365623750000022,
                    "velocity": 0.31496062992125984,
                    "duration": 0.13752625000000052
                },
                {
                    "name": "C6",
                    "midi": 84,
                    "time": 16.365623750000022,
                    "velocity": 0.3779527559055118,
                    "duration": 0.13752625000000052
                },
                {
                    "name": "G5",
                    "midi": 79,
                    "time": 16.503150000000023,
                    "velocity": 0.5511811023622047,
                    "duration": 0.13752625000000052
                },
                {
                    "name": "D#5",
                    "midi": 75,
                    "time": 16.503150000000023,
                    "velocity": 0.3937007874015748,
                    "duration": 0.13752625000000052
                },
                {
                    "name": "A#5",
                    "midi": 82,
                    "time": 16.640676250000023,
                    "velocity": 0.5039370078740157,
                    "duration": 0.13752625000000052
                },
                {
                    "name": "G#5",
                    "midi": 80,
                    "time": 16.640676250000023,
                    "velocity": 0.4251968503937008,
                    "duration": 0.13752625000000052
                },
                {
                    "name": "F5",
                    "midi": 77,
                    "time": 16.778202500000024,
                    "velocity": 0.44881889763779526,
                    "duration": 0.13752625000000052
                },
                {
                    "name": "D5",
                    "midi": 74,
                    "time": 16.778202500000024,
                    "velocity": 0.3779527559055118,
                    "duration": 0.13752625000000052
                },
                {
                    "name": "A#4",
                    "midi": 70,
                    "time": 16.778202500000024,
                    "velocity": 0.3779527559055118,
                    "duration": 0.13752625000000052
                },
                {
                    "name": "F#5",
                    "midi": 78,
                    "time": 16.915728750000024,
                    "velocity": 0.3543307086614173,
                    "duration": 0.13752625000000052
                },
                {
                    "name": "C6",
                    "midi": 84,
                    "time": 16.915728750000024,
                    "velocity": 0.4330708661417323,
                    "duration": 0.13752625000000052
                },
                {
                    "name": "D#5",
                    "midi": 75,
                    "time": 17.053255000000025,
                    "velocity": 0.41732283464566927,
                    "duration": 0.13752625000000052
                },
                {
                    "name": "G5",
                    "midi": 79,
                    "time": 17.053255000000025,
                    "velocity": 0.5748031496062992,
                    "duration": 0.13752625000000052
                },
                {
                    "name": "G#5",
                    "midi": 80,
                    "time": 17.190781250000025,
                    "velocity": 0.4094488188976378,
                    "duration": 0.13752625000000052
                },
                {
                    "name": "A#5",
                    "midi": 82,
                    "time": 17.190781250000025,
                    "velocity": 0.48031496062992124,
                    "duration": 0.13752625000000052
                },
                {
                    "name": "F5",
                    "midi": 77,
                    "time": 17.328307500000026,
                    "velocity": 0.47244094488188976,
                    "duration": 0.13752625000000052
                },
                {
                    "name": "D5",
                    "midi": 74,
                    "time": 17.328307500000026,
                    "velocity": 0.4015748031496063,
                    "duration": 0.13752625000000052
                },
                {
                    "name": "A#4",
                    "midi": 70,
                    "time": 17.328307500000026,
                    "velocity": 0.4015748031496063,
                    "duration": 0.13752625000000052
                },
                {
                    "name": "F#5",
                    "midi": 78,
                    "time": 17.465833750000026,
                    "velocity": 0.4015748031496063,
                    "duration": 0.13752625000000052
                },
                {
                    "name": "C6",
                    "midi": 84,
                    "time": 17.465833750000026,
                    "velocity": 0.48031496062992124,
                    "duration": 0.13752625000000052
                },
                {
                    "name": "D#5",
                    "midi": 75,
                    "time": 17.603360000000027,
                    "velocity": 0.4566929133858268,
                    "duration": 0.27505250000000103
                },
                {
                    "name": "G5",
                    "midi": 79,
                    "time": 17.603360000000027,
                    "velocity": 0.7165354330708661,
                    "duration": 0.27505250000000103
                },
                {
                    "name": "A#5",
                    "midi": 82,
                    "time": 17.878412500000028,
                    "velocity": 0.6299212598425197,
                    "duration": 0.13752625000000052
                },
                {
                    "name": "G5",
                    "midi": 79,
                    "time": 17.878412500000028,
                    "velocity": 0.5354330708661418,
                    "duration": 0.13752625000000052
                },
                {
                    "name": "D#5",
                    "midi": 75,
                    "time": 17.878412500000028,
                    "velocity": 0.5354330708661418,
                    "duration": 0.13752625000000052
                },
                {
                    "name": "A#4",
                    "midi": 70,
                    "time": 17.878412500000028,
                    "velocity": 0.5354330708661418,
                    "duration": 0.13752625000000052
                },
                {
                    "name": "A#5",
                    "midi": 82,
                    "time": 18.15346500000003,
                    "velocity": 0.6299212598425197,
                    "duration": 0.13752625000000052
                },
                {
                    "name": "G5",
                    "midi": 79,
                    "time": 18.15346500000003,
                    "velocity": 0.5354330708661418,
                    "duration": 0.13752625000000052
                },
                {
                    "name": "D#5",
                    "midi": 75,
                    "time": 18.15346500000003,
                    "velocity": 0.5354330708661418,
                    "duration": 0.13752625000000052
                },
                {
                    "name": "A#4",
                    "midi": 70,
                    "time": 18.15346500000003,
                    "velocity": 0.5354330708661418,
                    "duration": 0.13752625000000052
                },
                {
                    "name": "A#5",
                    "midi": 82,
                    "time": 18.42851750000003,
                    "velocity": 0.6299212598425197,
                    "duration": 0.13752625000000052
                },
                {
                    "name": "G5",
                    "midi": 79,
                    "time": 18.42851750000003,
                    "velocity": 0.5354330708661418,
                    "duration": 0.13752625000000052
                },
                {
                    "name": "D#5",
                    "midi": 75,
                    "time": 18.42851750000003,
                    "velocity": 0.5354330708661418,
                    "duration": 0.13752625000000052
                },
                {
                    "name": "A#4",
                    "midi": 70,
                    "time": 18.42851750000003,
                    "velocity": 0.5354330708661418,
                    "duration": 0.13752625000000052
                },
                {
                    "name": "D#5",
                    "midi": 75,
                    "time": 18.70357000000003,
                    "velocity": 0.6062992125984252,
                    "duration": 0.27505250000000103
                },
                {
                    "name": "G5",
                    "midi": 79,
                    "time": 18.70357000000003,
                    "velocity": 0.6062992125984252,
                    "duration": 0.27505250000000103
                },
                {
                    "name": "A#5",
                    "midi": 82,
                    "time": 18.70357000000003,
                    "velocity": 0.7165354330708661,
                    "duration": 0.27505250000000103
                },
                {
                    "name": "G5",
                    "midi": 79,
                    "time": 19.253675000000033,
                    "velocity": 0.6062992125984252,
                    "duration": 0.27505250000000103
                },
                {
                    "name": "A#5",
                    "midi": 82,
                    "time": 19.253675000000033,
                    "velocity": 0.7165354330708661,
                    "duration": 0.27505250000000103
                },
                {
                    "name": "A#5",
                    "midi": 82,
                    "time": 19.803780000000035,
                    "velocity": 0.7165354330708661,
                    "duration": 2.200420000000001
                },
                {
                    "name": "G5",
                    "midi": 79,
                    "time": 22.004200000000036,
                    "velocity": 0.5354330708661418,
                    "duration": 1.1002100000000006
                },
                {
                    "name": "A#5",
                    "midi": 82,
                    "time": 22.004200000000036,
                    "velocity": 0.6299212598425197,
                    "duration": 1.1002100000000006
                },
                {
                    "name": "G5",
                    "midi": 79,
                    "time": 23.104410000000037,
                    "velocity": 0.5354330708661418,
                    "duration": 0.8251574999999995
                },
                {
                    "name": "A#5",
                    "midi": 82,
                    "time": 23.104410000000037,
                    "velocity": 0.6299212598425197,
                    "duration": 0.8251574999999995
                },
                {
                    "name": "D#5",
                    "midi": 75,
                    "time": 23.929567500000037,
                    "velocity": 0.5669291338582677,
                    "duration": 0.27505250000000103
                },
                {
                    "name": "G5",
                    "midi": 79,
                    "time": 24.204620000000038,
                    "velocity": 0.5354330708661418,
                    "duration": 0.8251574999999995
                },
                {
                    "name": "A#5",
                    "midi": 82,
                    "time": 24.204620000000038,
                    "velocity": 0.6299212598425197,
                    "duration": 0.8251574999999995
                },
                {
                    "name": "D5",
                    "midi": 74,
                    "time": 25.029777500000037,
                    "velocity": 0.5669291338582677,
                    "duration": 0.27505250000000103
                },
                {
                    "name": "G5",
                    "midi": 79,
                    "time": 25.304830000000038,
                    "velocity": 0.5826771653543307,
                    "duration": 0.5501049999999985
                },
                {
                    "name": "A#5",
                    "midi": 82,
                    "time": 25.304830000000038,
                    "velocity": 0.6929133858267716,
                    "duration": 0.5501049999999985
                },
                {
                    "name": "A#4",
                    "midi": 70,
                    "time": 25.854935000000037,
                    "velocity": 0.5984251968503937,
                    "duration": 0.13752625000000052
                },
                {
                    "name": "D5",
                    "midi": 74,
                    "time": 25.992461250000037,
                    "velocity": 0.5354330708661418,
                    "duration": 0.13752625000000052
                },
                {
                    "name": "F5",
                    "midi": 77,
                    "time": 26.129987500000038,
                    "velocity": 0.6377952755905512,
                    "duration": 0.13752625000000052
                },
                {
                    "name": "A#5",
                    "midi": 82,
                    "time": 26.40504000000004,
                    "velocity": 0.6929133858267716,
                    "duration": 0.27505250000000103
                },
                {
                    "name": "G5",
                    "midi": 79,
                    "time": 26.40504000000004,
                    "velocity": 0.5826771653543307,
                    "duration": 0.27505250000000103
                },
                {
                    "name": "G4",
                    "midi": 67,
                    "time": 26.68009250000004,
                    "velocity": 0.5826771653543307,
                    "duration": 0.13752625000000052
                },
                {
                    "name": "A#4",
                    "midi": 70,
                    "time": 26.81761875000004,
                    "velocity": 0.5984251968503937,
                    "duration": 0.13752625000000052
                },
                {
                    "name": "D5",
                    "midi": 74,
                    "time": 26.95514500000004,
                    "velocity": 0.6929133858267716,
                    "duration": 0.13752625000000052
                },
                {
                    "name": "D#5",
                    "midi": 75,
                    "time": 27.230197500000042,
                    "velocity": 0.6377952755905512,
                    "duration": 0.13752625000000052
                },
                {
                    "name": "G5",
                    "midi": 79,
                    "time": 27.505250000000043,
                    "velocity": 0.6141732283464567,
                    "duration": 0.27505250000000103
                },
                {
                    "name": "A#5",
                    "midi": 82,
                    "time": 27.505250000000043,
                    "velocity": 0.7244094488188977,
                    "duration": 0.27505250000000103
                },
                {
                    "name": "D#4",
                    "midi": 63,
                    "time": 27.780302500000044,
                    "velocity": 0.6850393700787402,
                    "duration": 0.13752625000000052
                },
                {
                    "name": "G4",
                    "midi": 67,
                    "time": 27.917828750000044,
                    "velocity": 0.6929133858267716,
                    "duration": 0.13752625000000052
                },
                {
                    "name": "A#4",
                    "midi": 70,
                    "time": 28.055355000000045,
                    "velocity": 0.7559055118110236,
                    "duration": 0.13752625000000052
                },
                {
                    "name": "D5",
                    "midi": 74,
                    "time": 28.330407500000046,
                    "velocity": 0.8110236220472441,
                    "duration": 0.13752625000000052
                },
                {
                    "name": "D4",
                    "midi": 62,
                    "time": 28.330407500000046,
                    "velocity": 0.6850393700787402,
                    "duration": 0.13752625000000052
                },
                {
                    "name": "B5",
                    "midi": 83,
                    "time": 28.605460000000047,
                    "velocity": 0.8818897637795275,
                    "duration": 0.5501049999999985
                },
                {
                    "name": "G5",
                    "midi": 79,
                    "time": 28.605460000000047,
                    "velocity": 0.7401574803149606,
                    "duration": 0.5501049999999985
                },
                {
                    "name": "D5",
                    "midi": 74,
                    "time": 28.605460000000047,
                    "velocity": 0.7401574803149606,
                    "duration": 0.5501049999999985
                },
                {
                    "name": "B4",
                    "midi": 71,
                    "time": 28.605460000000047,
                    "velocity": 0.7401574803149606,
                    "duration": 0.5501049999999985
                },
                {
                    "name": "G4",
                    "midi": 67,
                    "time": 29.980722500000045,
                    "velocity": 0.4094488188976378,
                    "duration": 0.13752625000000052
                },
                {
                    "name": "B3",
                    "midi": 59,
                    "time": 29.980722500000045,
                    "velocity": 0.3464566929133858,
                    "duration": 0.13752625000000052
                },
                {
                    "name": "B3",
                    "midi": 59,
                    "time": 30.255775000000046,
                    "velocity": 0.36220472440944884,
                    "duration": 0.13752625000000052
                },
                {
                    "name": "G4",
                    "midi": 67,
                    "time": 30.255775000000046,
                    "velocity": 0.4330708661417323,
                    "duration": 0.13752625000000052
                },
                {
                    "name": "A4",
                    "midi": 69,
                    "time": 30.530827500000047,
                    "velocity": 0.36220472440944884,
                    "duration": 0.13752625000000052
                },
                {
                    "name": "G4",
                    "midi": 67,
                    "time": 30.530827500000047,
                    "velocity": 0.30708661417322836,
                    "duration": 0.13752625000000052
                },
                {
                    "name": "E4",
                    "midi": 64,
                    "time": 30.530827500000047,
                    "velocity": 0.30708661417322836,
                    "duration": 0.13752625000000052
                },
                {
                    "name": "B4",
                    "midi": 71,
                    "time": 30.805880000000048,
                    "velocity": 0.4015748031496063,
                    "duration": 0.13752625000000052
                },
                {
                    "name": "G4",
                    "midi": 67,
                    "time": 30.805880000000048,
                    "velocity": 0.33858267716535434,
                    "duration": 0.13752625000000052
                },
                {
                    "name": "D4",
                    "midi": 62,
                    "time": 30.805880000000048,
                    "velocity": 0.33858267716535434,
                    "duration": 0.13752625000000052
                },
                {
                    "name": "E4",
                    "midi": 64,
                    "time": 31.08093250000005,
                    "velocity": 0.28346456692913385,
                    "duration": 0.13752625000000052
                },
                {
                    "name": "D4",
                    "midi": 62,
                    "time": 31.08093250000005,
                    "velocity": 0.23622047244094488,
                    "duration": 0.13752625000000052
                },
                {
                    "name": "G3",
                    "midi": 55,
                    "time": 31.08093250000005,
                    "velocity": 0.23622047244094488,
                    "duration": 0.13752625000000052
                },
                {
                    "name": "E4",
                    "midi": 64,
                    "time": 31.35598500000005,
                    "velocity": 0.28346456692913385,
                    "duration": 0.13752625000000052
                },
                {
                    "name": "D4",
                    "midi": 62,
                    "time": 31.35598500000005,
                    "velocity": 0.23622047244094488,
                    "duration": 0.13752625000000052
                },
                {
                    "name": "G3",
                    "midi": 55,
                    "time": 31.35598500000005,
                    "velocity": 0.23622047244094488,
                    "duration": 0.13752625000000052
                },
                {
                    "name": "F#4",
                    "midi": 66,
                    "time": 31.63103750000005,
                    "velocity": 0.2755905511811024,
                    "duration": 0.13752625000000052
                },
                {
                    "name": "D4",
                    "midi": 62,
                    "time": 31.63103750000005,
                    "velocity": 0.2283464566929134,
                    "duration": 0.13752625000000052
                },
                {
                    "name": "C4",
                    "midi": 60,
                    "time": 31.63103750000005,
                    "velocity": 0.2283464566929134,
                    "duration": 0.13752625000000052
                },
                {
                    "name": "B3",
                    "midi": 59,
                    "time": 31.906090000000052,
                    "velocity": 0.2440944881889764,
                    "duration": 0.2750524999999975
                },
                {
                    "name": "D4",
                    "midi": 62,
                    "time": 31.906090000000052,
                    "velocity": 0.2440944881889764,
                    "duration": 0.2750524999999975
                },
                {
                    "name": "G4",
                    "midi": 67,
                    "time": 31.906090000000052,
                    "velocity": 0.29133858267716534,
                    "duration": 0.2750524999999975
                },
                {
                    "name": "B3",
                    "midi": 59,
                    "time": 32.18114250000005,
                    "velocity": 0.30708661417322836,
                    "duration": 0.13752625000000052
                },
                {
                    "name": "G3",
                    "midi": 55,
                    "time": 32.18114250000005,
                    "velocity": 0.25984251968503935,
                    "duration": 0.13752625000000052
                },
                {
                    "name": "D4",
                    "midi": 62,
                    "time": 32.31866875000005,
                    "velocity": 0.23622047244094488,
                    "duration": 0.13752625000000052
                },
                {
                    "name": "B3",
                    "midi": 59,
                    "time": 32.45619500000005,
                    "velocity": 0.3228346456692913,
                    "duration": 0.13752625000000052
                },
                {
                    "name": "G3",
                    "midi": 55,
                    "time": 32.45619500000005,
                    "velocity": 0.2677165354330709,
                    "duration": 0.13752625000000052
                },
                {
                    "name": "D4",
                    "midi": 62,
                    "time": 32.59372125000005,
                    "velocity": 0.23622047244094488,
                    "duration": 0.13752625000000052
                },
                {
                    "name": "C4",
                    "midi": 60,
                    "time": 32.73124750000005,
                    "velocity": 0.3779527559055118,
                    "duration": 0.13752625000000052
                },
                {
                    "name": "A3",
                    "midi": 57,
                    "time": 32.73124750000005,
                    "velocity": 0.31496062992125984,
                    "duration": 0.13752625000000052
                },
                {
                    "name": "D4",
                    "midi": 62,
                    "time": 32.86877375000005,
                    "velocity": 0.23622047244094488,
                    "duration": 0.13752625000000052
                },
                {
                    "name": "B3",
                    "midi": 59,
                    "time": 33.00630000000005,
                    "velocity": 0.3228346456692913,
                    "duration": 0.13752625000000052
                },
                {
                    "name": "G3",
                    "midi": 55,
                    "time": 33.00630000000005,
                    "velocity": 0.2677165354330709,
                    "duration": 0.13752625000000052
                },
                {
                    "name": "D4",
                    "midi": 62,
                    "time": 33.14382625000005,
                    "velocity": 0.23622047244094488,
                    "duration": 0.13752625000000052
                },
                {
                    "name": "G3",
                    "midi": 55,
                    "time": 33.281352500000054,
                    "velocity": 0.25984251968503935,
                    "duration": 0.13752625000000052
                },
                {
                    "name": "B3",
                    "midi": 59,
                    "time": 33.281352500000054,
                    "velocity": 0.30708661417322836,
                    "duration": 0.13752625000000052
                },
                {
                    "name": "D4",
                    "midi": 62,
                    "time": 33.418878750000054,
                    "velocity": 0.23622047244094488,
                    "duration": 0.13752625000000052
                },
                {
                    "name": "B3",
                    "midi": 59,
                    "time": 33.556405000000055,
                    "velocity": 0.31496062992125984,
                    "duration": 0.13752625000000052
                },
                {
                    "name": "G3",
                    "midi": 55,
                    "time": 33.556405000000055,
                    "velocity": 0.2677165354330709,
                    "duration": 0.13752625000000052
                },
                {
                    "name": "D4",
                    "midi": 62,
                    "time": 33.693931250000055,
                    "velocity": 0.23622047244094488,
                    "duration": 0.13752625000000052
                },
                {
                    "name": "A3",
                    "midi": 57,
                    "time": 33.831457500000056,
                    "velocity": 0.30708661417322836,
                    "duration": 0.13752625000000052
                },
                {
                    "name": "C4",
                    "midi": 60,
                    "time": 33.831457500000056,
                    "velocity": 0.3700787401574803,
                    "duration": 0.13752625000000052
                },
                {
                    "name": "D4",
                    "midi": 62,
                    "time": 33.968983750000056,
                    "velocity": 0.23622047244094488,
                    "duration": 0.13752625000000052
                },
                {
                    "name": "B3",
                    "midi": 59,
                    "time": 34.10651000000006,
                    "velocity": 0.3228346456692913,
                    "duration": 0.13752625000000052
                },
                {
                    "name": "G3",
                    "midi": 55,
                    "time": 34.10651000000006,
                    "velocity": 0.2677165354330709,
                    "duration": 0.13752625000000052
                },
                {
                    "name": "D4",
                    "midi": 62,
                    "time": 34.24403625000006,
                    "velocity": 0.23622047244094488,
                    "duration": 0.13752625000000052
                },
                {
                    "name": "G3",
                    "midi": 55,
                    "time": 34.38156250000006,
                    "velocity": 0.25984251968503935,
                    "duration": 0.13752625000000052
                },
                {
                    "name": "B3",
                    "midi": 59,
                    "time": 34.38156250000006,
                    "velocity": 0.30708661417322836,
                    "duration": 0.13752625000000052
                },
                {
                    "name": "D4",
                    "midi": 62,
                    "time": 34.51908875000006,
                    "velocity": 0.23622047244094488,
                    "duration": 0.13752625000000052
                },
                {
                    "name": "B3",
                    "midi": 59,
                    "time": 34.65661500000006,
                    "velocity": 0.31496062992125984,
                    "duration": 0.13752625000000052
                },
                {
                    "name": "G3",
                    "midi": 55,
                    "time": 34.65661500000006,
                    "velocity": 0.2677165354330709,
                    "duration": 0.13752625000000052
                },
                {
                    "name": "D4",
                    "midi": 62,
                    "time": 34.79414125000006,
                    "velocity": 0.23622047244094488,
                    "duration": 0.13752625000000052
                },
                {
                    "name": "A3",
                    "midi": 57,
                    "time": 34.93166750000006,
                    "velocity": 0.30708661417322836,
                    "duration": 0.13752625000000052
                },
                {
                    "name": "C4",
                    "midi": 60,
                    "time": 34.93166750000006,
                    "velocity": 0.3700787401574803,
                    "duration": 0.13752625000000052
                },
                {
                    "name": "D4",
                    "midi": 62,
                    "time": 35.06919375000006,
                    "velocity": 0.23622047244094488,
                    "duration": 0.13752625000000052
                },
                {
                    "name": "B3",
                    "midi": 59,
                    "time": 35.20672000000006,
                    "velocity": 0.3228346456692913,
                    "duration": 0.13752625000000052
                },
                {
                    "name": "G3",
                    "midi": 55,
                    "time": 35.20672000000006,
                    "velocity": 0.2677165354330709,
                    "duration": 0.13752625000000052
                },
                {
                    "name": "D4",
                    "midi": 62,
                    "time": 35.34424625000006,
                    "velocity": 0.23622047244094488,
                    "duration": 0.13752625000000052
                },
                {
                    "name": "G3",
                    "midi": 55,
                    "time": 35.48177250000006,
                    "velocity": 0.25984251968503935,
                    "duration": 0.13752625000000052
                },
                {
                    "name": "B3",
                    "midi": 59,
                    "time": 35.48177250000006,
                    "velocity": 0.30708661417322836,
                    "duration": 0.13752625000000052
                },
                {
                    "name": "D4",
                    "midi": 62,
                    "time": 35.61929875000006,
                    "velocity": 0.23622047244094488,
                    "duration": 0.13752625000000052
                },
                {
                    "name": "B3",
                    "midi": 59,
                    "time": 35.75682500000006,
                    "velocity": 0.31496062992125984,
                    "duration": 0.13752625000000052
                },
                {
                    "name": "G3",
                    "midi": 55,
                    "time": 35.75682500000006,
                    "velocity": 0.2677165354330709,
                    "duration": 0.13752625000000052
                },
                {
                    "name": "D4",
                    "midi": 62,
                    "time": 35.894351250000064,
                    "velocity": 0.23622047244094488,
                    "duration": 0.13752625000000052
                },
                {
                    "name": "A3",
                    "midi": 57,
                    "time": 36.031877500000064,
                    "velocity": 0.30708661417322836,
                    "duration": 0.13752625000000052
                },
                {
                    "name": "C4",
                    "midi": 60,
                    "time": 36.031877500000064,
                    "velocity": 0.3700787401574803,
                    "duration": 0.13752625000000052
                },
                {
                    "name": "D4",
                    "midi": 62,
                    "time": 36.169403750000065,
                    "velocity": 0.23622047244094488,
                    "duration": 0.13752625000000052
                },
                {
                    "name": "G3",
                    "midi": 55,
                    "time": 36.306930000000065,
                    "velocity": 0.2677165354330709,
                    "duration": 0.13752625000000052
                },
                {
                    "name": "B3",
                    "midi": 59,
                    "time": 36.306930000000065,
                    "velocity": 0.3228346456692913,
                    "duration": 0.13752625000000052
                },
                {
                    "name": "D4",
                    "midi": 62,
                    "time": 36.444456250000066,
                    "velocity": 0.25984251968503935,
                    "duration": 0.13752625000000052
                },
                {
                    "name": "B3",
                    "midi": 59,
                    "time": 36.581982500000066,
                    "velocity": 0.3464566929133858,
                    "duration": 0.13752625000000052
                },
                {
                    "name": "G3",
                    "midi": 55,
                    "time": 36.581982500000066,
                    "velocity": 0.29133858267716534,
                    "duration": 0.13752625000000052
                },
                {
                    "name": "G4",
                    "midi": 67,
                    "time": 36.71950875000007,
                    "velocity": 0.30708661417322836,
                    "duration": 0.13752625000000052
                },
                {
                    "name": "C4",
                    "midi": 60,
                    "time": 36.85703500000007,
                    "velocity": 0.3543307086614173,
                    "duration": 0.13752625000000052
                },
                {
                    "name": "A3",
                    "midi": 57,
                    "time": 36.85703500000007,
                    "velocity": 0.2992125984251969,
                    "duration": 0.13752625000000052
                },
                {
                    "name": "G4",
                    "midi": 67,
                    "time": 36.99456125000007,
                    "velocity": 0.3228346456692913,
                    "duration": 0.13752625000000052
                },
                {
                    "name": "B3",
                    "midi": 59,
                    "time": 37.13208750000007,
                    "velocity": 0.2992125984251969,
                    "duration": 0.13752625000000052
                },
                {
                    "name": "D4",
                    "midi": 62,
                    "time": 37.13208750000007,
                    "velocity": 0.3543307086614173,
                    "duration": 0.13752625000000052
                },
                {
                    "name": "G4",
                    "midi": 67,
                    "time": 37.26961375000007,
                    "velocity": 0.31496062992125984,
                    "duration": 0.13752625000000052
                },
                {
                    "name": "C4",
                    "midi": 60,
                    "time": 37.40714000000007,
                    "velocity": 0.30708661417322836,
                    "duration": 0.13752625000000052
                },
                {
                    "name": "E4",
                    "midi": 64,
                    "time": 37.40714000000007,
                    "velocity": 0.36220472440944884,
                    "duration": 0.13752625000000052
                },
                {
                    "name": "G4",
                    "midi": 67,
                    "time": 37.54466625000007,
                    "velocity": 0.33070866141732286,
                    "duration": 0.13752625000000052
                },
                {
                    "name": "D4",
                    "midi": 62,
                    "time": 37.68219250000007,
                    "velocity": 0.31496062992125984,
                    "duration": 0.13752625000000052
                },
                {
                    "name": "F#4",
                    "midi": 66,
                    "time": 37.68219250000007,
                    "velocity": 0.3858267716535433,
                    "duration": 0.13752625000000052
                },
                {
                    "name": "D5",
                    "midi": 74,
                    "time": 37.81971875000007,
                    "velocity": 0.33858267716535434,
                    "duration": 0.13752625000000052
                },
                {
                    "name": "G4",
                    "midi": 67,
                    "time": 37.95724500000007,
                    "velocity": 0.4094488188976378,
                    "duration": 0.13752625000000052
                },
                {
                    "name": "E4",
                    "midi": 64,
                    "time": 37.95724500000007,
                    "velocity": 0.3464566929133858,
                    "duration": 0.13752625000000052
                },
                {
                    "name": "D5",
                    "midi": 74,
                    "time": 38.09477125000007,
                    "velocity": 0.3464566929133858,
                    "duration": 0.13752625000000052
                },
                {
                    "name": "A4",
                    "midi": 69,
                    "time": 38.23229750000007,
                    "velocity": 0.4251968503937008,
                    "duration": 0.13752625000000052
                },
                {
                    "name": "F#4",
                    "midi": 66,
                    "time": 38.23229750000007,
                    "velocity": 0.3543307086614173,
                    "duration": 0.13752625000000052
                },
                {
                    "name": "D5",
                    "midi": 74,
                    "time": 38.36982375000007,
                    "velocity": 0.3937007874015748,
                    "duration": 0.13752625000000052
                },
                {
                    "name": "B4",
                    "midi": 71,
                    "time": 38.50735000000007,
                    "velocity": 0.44881889763779526,
                    "duration": 0.13752625000000052
                },
                {
                    "name": "G4",
                    "midi": 67,
                    "time": 38.50735000000007,
                    "velocity": 0.3700787401574803,
                    "duration": 0.13752625000000052
                },
                {
                    "name": "D5",
                    "midi": 74,
                    "time": 38.644876250000074,
                    "velocity": 0.3937007874015748,
                    "duration": 0.13752625000000052
                },
                {
                    "name": "B4",
                    "midi": 71,
                    "time": 38.782402500000074,
                    "velocity": 0.48031496062992124,
                    "duration": 0.13752625000000052
                },
                {
                    "name": "G4",
                    "midi": 67,
                    "time": 38.782402500000074,
                    "velocity": 0.4015748031496063,
                    "duration": 0.13752625000000052
                },
                {
                    "name": "G5",
                    "midi": 79,
                    "time": 38.919928750000075,
                    "velocity": 0.41732283464566927,
                    "duration": 0.13752625000000052
                },
                {
                    "name": "C5",
                    "midi": 72,
                    "time": 39.057455000000076,
                    "velocity": 0.4881889763779528,
                    "duration": 0.13752625000000052
                },
                {
                    "name": "A4",
                    "midi": 69,
                    "time": 39.057455000000076,
                    "velocity": 0.4094488188976378,
                    "duration": 0.13752625000000052
                },
                {
                    "name": "G5",
                    "midi": 79,
                    "time": 39.194981250000076,
                    "velocity": 0.44881889763779526,
                    "duration": 0.13752625000000052
                },
                {
                    "name": "B4",
                    "midi": 71,
                    "time": 39.33250750000008,
                    "velocity": 0.41732283464566927,
                    "duration": 0.13752625000000052
                },
                {
                    "name": "D5",
                    "midi": 74,
                    "time": 39.33250750000008,
                    "velocity": 0.49606299212598426,
                    "duration": 0.13752625000000052
                },
                {
                    "name": "G5",
                    "midi": 79,
                    "time": 39.47003375000008,
                    "velocity": 0.44881889763779526,
                    "duration": 0.13752625000000052
                },
                {
                    "name": "E5",
                    "midi": 76,
                    "time": 39.60756000000008,
                    "velocity": 0.5039370078740157,
                    "duration": 0.13752625000000052
                },
                {
                    "name": "C5",
                    "midi": 72,
                    "time": 39.60756000000008,
                    "velocity": 0.41732283464566927,
                    "duration": 0.13752625000000052
                },
                {
                    "name": "G5",
                    "midi": 79,
                    "time": 39.74508625000008,
                    "velocity": 0.4645669291338583,
                    "duration": 0.13752625000000052
                },
                {
                    "name": "D5",
                    "midi": 74,
                    "time": 39.88261250000008,
                    "velocity": 0.44881889763779526,
                    "duration": 0.13752625000000052
                },
                {
                    "name": "F#5",
                    "midi": 78,
                    "time": 39.88261250000008,
                    "velocity": 0.5275590551181102,
                    "duration": 0.13752625000000052
                },
                {
                    "name": "D6",
                    "midi": 86,
                    "time": 40.02013875000008,
                    "velocity": 0.5039370078740157,
                    "duration": 0.13752625000000052
                },
                {
                    "name": "G5",
                    "midi": 79,
                    "time": 40.15766500000008,
                    "velocity": 0.5748031496062992,
                    "duration": 0.13752625000000052
                },
                {
                    "name": "E5",
                    "midi": 76,
                    "time": 40.15766500000008,
                    "velocity": 0.48031496062992124,
                    "duration": 0.13752625000000052
                },
                {
                    "name": "D6",
                    "midi": 86,
                    "time": 40.29519125000008,
                    "velocity": 0.5275590551181102,
                    "duration": 0.13752625000000052
                },
                {
                    "name": "A5",
                    "midi": 81,
                    "time": 40.43271750000008,
                    "velocity": 0.5826771653543307,
                    "duration": 0.13752625000000052
                },
                {
                    "name": "F#5",
                    "midi": 78,
                    "time": 40.43271750000008,
                    "velocity": 0.4881889763779528,
                    "duration": 0.13752625000000052
                },
                {
                    "name": "D6",
                    "midi": 86,
                    "time": 40.57024375000008,
                    "velocity": 0.5354330708661418,
                    "duration": 0.13752625000000052
                },
                {
                    "name": "B5",
                    "midi": 83,
                    "time": 40.70777000000008,
                    "velocity": 0.6456692913385826,
                    "duration": 0.13752625000000052
                },
                {
                    "name": "G5",
                    "midi": 79,
                    "time": 40.70777000000008,
                    "velocity": 0.5433070866141733,
                    "duration": 0.13752625000000052
                },
                {
                    "name": "D6",
                    "midi": 86,
                    "time": 40.84529625000008,
                    "velocity": 0.4645669291338583,
                    "duration": 0.13752625000000052
                },
                {
                    "name": "A5",
                    "midi": 81,
                    "time": 40.98282250000008,
                    "velocity": 0.41732283464566927,
                    "duration": 0.13752625000000052
                },
                {
                    "name": "F#5",
                    "midi": 78,
                    "time": 40.98282250000008,
                    "velocity": 0.2677165354330709,
                    "duration": 0.13752625000000052
                },
                {
                    "name": "D5",
                    "midi": 74,
                    "time": 40.98282250000008,
                    "velocity": 0.2677165354330709,
                    "duration": 0.13752625000000052
                },
                {
                    "name": "A#5",
                    "midi": 82,
                    "time": 41.12034875000008,
                    "velocity": 0.33858267716535434,
                    "duration": 0.13752625000000052
                },
                {
                    "name": "E6",
                    "midi": 88,
                    "time": 41.12034875000008,
                    "velocity": 0.4015748031496063,
                    "duration": 0.13752625000000052
                },
                {
                    "name": "G5",
                    "midi": 79,
                    "time": 41.257875000000084,
                    "velocity": 0.4409448818897638,
                    "duration": 0.13752625000000052
                },
                {
                    "name": "B5",
                    "midi": 83,
                    "time": 41.257875000000084,
                    "velocity": 0.5196850393700787,
                    "duration": 0.13752625000000052
                },
                {
                    "name": "C6",
                    "midi": 84,
                    "time": 41.395401250000084,
                    "velocity": 0.3858267716535433,
                    "duration": 0.13752625000000052
                },
                {
                    "name": "D6",
                    "midi": 86,
                    "time": 41.395401250000084,
                    "velocity": 0.4566929133858268,
                    "duration": 0.13752625000000052
                },
                {
                    "name": "A5",
                    "midi": 81,
                    "time": 41.532927500000085,
                    "velocity": 0.4015748031496063,
                    "duration": 0.13752625000000052
                },
                {
                    "name": "F#5",
                    "midi": 78,
                    "time": 41.532927500000085,
                    "velocity": 0.2440944881889764,
                    "duration": 0.13752625000000052
                },
                {
                    "name": "D5",
                    "midi": 74,
                    "time": 41.532927500000085,
                    "velocity": 0.2440944881889764,
                    "duration": 0.13752625000000052
                },
                {
                    "name": "A#5",
                    "midi": 82,
                    "time": 41.670453750000085,
                    "velocity": 0.31496062992125984,
                    "duration": 0.13752625000000052
                },
                {
                    "name": "E6",
                    "midi": 88,
                    "time": 41.670453750000085,
                    "velocity": 0.3779527559055118,
                    "duration": 0.13752625000000052
                },
                {
                    "name": "B5",
                    "midi": 83,
                    "time": 41.807980000000086,
                    "velocity": 0.5511811023622047,
                    "duration": 0.13752625000000052
                },
                {
                    "name": "G5",
                    "midi": 79,
                    "time": 41.807980000000086,
                    "velocity": 0.3937007874015748,
                    "duration": 0.13752625000000052
                },
                {
                    "name": "D6",
                    "midi": 86,
                    "time": 41.945506250000086,
                    "velocity": 0.5039370078740157,
                    "duration": 0.13752625000000052
                },
                {
                    "name": "C6",
                    "midi": 84,
                    "time": 41.945506250000086,
                    "velocity": 0.4251968503937008,
                    "duration": 0.13752625000000052
                },
                {
                    "name": "A5",
                    "midi": 81,
                    "time": 42.08303250000009,
                    "velocity": 0.44881889763779526,
                    "duration": 0.13752625000000052
                },
                {
                    "name": "F#5",
                    "midi": 78,
                    "time": 42.08303250000009,
                    "velocity": 0.3779527559055118,
                    "duration": 0.13752625000000052
                },
                {
                    "name": "D5",
                    "midi": 74,
                    "time": 42.08303250000009,
                    "velocity": 0.3779527559055118,
                    "duration": 0.13752625000000052
                },
                {
                    "name": "A#5",
                    "midi": 82,
                    "time": 42.22055875000009,
                    "velocity": 0.3543307086614173,
                    "duration": 0.13752625000000052
                },
                {
                    "name": "E6",
                    "midi": 88,
                    "time": 42.22055875000009,
                    "velocity": 0.4330708661417323,
                    "duration": 0.13752625000000052
                },
                {
                    "name": "G5",
                    "midi": 79,
                    "time": 42.35808500000009,
                    "velocity": 0.41732283464566927,
                    "duration": 0.13752625000000052
                },
                {
                    "name": "B5",
                    "midi": 83,
                    "time": 42.35808500000009,
                    "velocity": 0.5748031496062992,
                    "duration": 0.13752625000000052
                },
                {
                    "name": "C6",
                    "midi": 84,
                    "time": 42.49561125000009,
                    "velocity": 0.4094488188976378,
                    "duration": 0.13752625000000052
                },
                {
                    "name": "D6",
                    "midi": 86,
                    "time": 42.49561125000009,
                    "velocity": 0.48031496062992124,
                    "duration": 0.13752625000000052
                },
                {
                    "name": "A5",
                    "midi": 81,
                    "time": 42.63313750000009,
                    "velocity": 0.47244094488188976,
                    "duration": 0.13752625000000052
                },
                {
                    "name": "F#5",
                    "midi": 78,
                    "time": 42.63313750000009,
                    "velocity": 0.4015748031496063,
                    "duration": 0.13752625000000052
                },
                {
                    "name": "D5",
                    "midi": 74,
                    "time": 42.63313750000009,
                    "velocity": 0.4015748031496063,
                    "duration": 0.13752625000000052
                },
                {
                    "name": "A#5",
                    "midi": 82,
                    "time": 42.77066375000009,
                    "velocity": 0.4015748031496063,
                    "duration": 0.13752625000000052
                },
                {
                    "name": "E6",
                    "midi": 88,
                    "time": 42.77066375000009,
                    "velocity": 0.48031496062992124,
                    "duration": 0.13752625000000052
                },
                {
                    "name": "G5",
                    "midi": 79,
                    "time": 42.90819000000009,
                    "velocity": 0.4566929133858268,
                    "duration": 0.27505250000000103
                },
                {
                    "name": "B5",
                    "midi": 83,
                    "time": 42.90819000000009,
                    "velocity": 0.7165354330708661,
                    "duration": 0.27505250000000103
                },
                {
                    "name": "D6",
                    "midi": 86,
                    "time": 43.18324250000009,
                    "velocity": 0.6299212598425197,
                    "duration": 0.13752625000000052
                },
                {
                    "name": "B5",
                    "midi": 83,
                    "time": 43.18324250000009,
                    "velocity": 0.5354330708661418,
                    "duration": 0.13752625000000052
                },
                {
                    "name": "G5",
                    "midi": 79,
                    "time": 43.18324250000009,
                    "velocity": 0.5354330708661418,
                    "duration": 0.13752625000000052
                },
                {
                    "name": "D5",
                    "midi": 74,
                    "time": 43.18324250000009,
                    "velocity": 0.5354330708661418,
                    "duration": 0.13752625000000052
                },
                {
                    "name": "D6",
                    "midi": 86,
                    "time": 43.45829500000009,
                    "velocity": 0.6299212598425197,
                    "duration": 0.13752625000000052
                },
                {
                    "name": "B5",
                    "midi": 83,
                    "time": 43.45829500000009,
                    "velocity": 0.5354330708661418,
                    "duration": 0.13752625000000052
                },
                {
                    "name": "G5",
                    "midi": 79,
                    "time": 43.45829500000009,
                    "velocity": 0.5354330708661418,
                    "duration": 0.13752625000000052
                },
                {
                    "name": "D5",
                    "midi": 74,
                    "time": 43.45829500000009,
                    "velocity": 0.5354330708661418,
                    "duration": 0.13752625000000052
                },
                {
                    "name": "D6",
                    "midi": 86,
                    "time": 43.73334750000009,
                    "velocity": 0.6299212598425197,
                    "duration": 0.13752625000000052
                },
                {
                    "name": "B5",
                    "midi": 83,
                    "time": 43.73334750000009,
                    "velocity": 0.5354330708661418,
                    "duration": 0.13752625000000052
                },
                {
                    "name": "G5",
                    "midi": 79,
                    "time": 43.73334750000009,
                    "velocity": 0.5354330708661418,
                    "duration": 0.13752625000000052
                },
                {
                    "name": "D5",
                    "midi": 74,
                    "time": 43.73334750000009,
                    "velocity": 0.5354330708661418,
                    "duration": 0.13752625000000052
                },
                {
                    "name": "G5",
                    "midi": 79,
                    "time": 44.008400000000094,
                    "velocity": 0.6062992125984252,
                    "duration": 0.27505250000000103
                },
                {
                    "name": "B5",
                    "midi": 83,
                    "time": 44.008400000000094,
                    "velocity": 0.6062992125984252,
                    "duration": 0.27505250000000103
                },
                {
                    "name": "D6",
                    "midi": 86,
                    "time": 44.008400000000094,
                    "velocity": 0.7165354330708661,
                    "duration": 0.27505250000000103
                },
                {
                    "name": "B5",
                    "midi": 83,
                    "time": 44.558505000000096,
                    "velocity": 0.6062992125984252,
                    "duration": 0.27505250000000103
                },
                {
                    "name": "D6",
                    "midi": 86,
                    "time": 44.558505000000096,
                    "velocity": 0.7165354330708661,
                    "duration": 0.27505250000000103
                },
                {
                    "name": "D6",
                    "midi": 86,
                    "time": 45.1086100000001,
                    "velocity": 0.7165354330708661,
                    "duration": 1.650314999999999
                },
                {
                    "name": "G5",
                    "midi": 79,
                    "time": 46.7589250000001,
                    "velocity": 0.3543307086614173,
                    "duration": 0.13752625000000052
                },
                {
                    "name": "B5",
                    "midi": 83,
                    "time": 46.7589250000001,
                    "velocity": 0.4251968503937008,
                    "duration": 0.13752625000000052
                },
                {
                    "name": "A5",
                    "midi": 81,
                    "time": 46.8964512500001,
                    "velocity": 0.3700787401574803,
                    "duration": 0.13752625000000052
                },
                {
                    "name": "C6",
                    "midi": 84,
                    "time": 46.8964512500001,
                    "velocity": 0.4409448818897638,
                    "duration": 0.13752625000000052
                },
                {
                    "name": "A#5",
                    "midi": 82,
                    "time": 47.0339775000001,
                    "velocity": 0.4015748031496063,
                    "duration": 0.13752625000000052
                },
                {
                    "name": "C#6",
                    "midi": 85,
                    "time": 47.0339775000001,
                    "velocity": 0.47244094488188976,
                    "duration": 0.13752625000000052
                },
                {
                    "name": "B5",
                    "midi": 83,
                    "time": 47.1715037500001,
                    "velocity": 0.4094488188976378,
                    "duration": 0.13752625000000052
                },
                {
                    "name": "D6",
                    "midi": 86,
                    "time": 47.1715037500001,
                    "velocity": 0.4881889763779528,
                    "duration": 0.13752625000000052
                },
                {
                    "name": "C6",
                    "midi": 84,
                    "time": 47.3090300000001,
                    "velocity": 0.4251968503937008,
                    "duration": 0.13752625000000052
                },
                {
                    "name": "D#6",
                    "midi": 87,
                    "time": 47.3090300000001,
                    "velocity": 0.4251968503937008,
                    "duration": 0.13752625000000052
                },
                {
                    "name": "G6",
                    "midi": 91,
                    "time": 47.3090300000001,
                    "velocity": 0.5039370078740157,
                    "duration": 0.13752625000000052
                },
                {
                    "name": "D5",
                    "midi": 74,
                    "time": 47.8591350000001,
                    "velocity": 0.28346456692913385,
                    "duration": 0.13752625000000052
                },
                {
                    "name": "G5",
                    "midi": 79,
                    "time": 47.8591350000001,
                    "velocity": 0.28346456692913385,
                    "duration": 0.13752625000000052
                },
                {
                    "name": "B5",
                    "midi": 83,
                    "time": 47.8591350000001,
                    "velocity": 0.33858267716535434,
                    "duration": 0.13752625000000052
                },
                {
                    "name": "D#5",
                    "midi": 75,
                    "time": 48.4092400000001,
                    "velocity": 0.3228346456692913,
                    "duration": 0.5501050000000021
                },
                {
                    "name": "G#5",
                    "midi": 80,
                    "time": 48.4092400000001,
                    "velocity": 0.3228346456692913,
                    "duration": 1.1002100000000041
                },
                {
                    "name": "C6",
                    "midi": 84,
                    "time": 48.4092400000001,
                    "velocity": 0.3858267716535433,
                    "duration": 1.1002100000000041
                },
                {
                    "name": "D5",
                    "midi": 74,
                    "time": 48.959345000000106,
                    "velocity": 0.3464566929133858,
                    "duration": 0.13752625000000052
                },
                {
                    "name": "D#5",
                    "midi": 75,
                    "time": 49.096871250000106,
                    "velocity": 0.3779527559055118,
                    "duration": 0.13752625000000052
                },
                {
                    "name": "F5",
                    "midi": 77,
                    "time": 49.23439750000011,
                    "velocity": 0.4094488188976378,
                    "duration": 0.13752625000000052
                },
                {
                    "name": "F#5",
                    "midi": 78,
                    "time": 49.37192375000011,
                    "velocity": 0.4251968503937008,
                    "duration": 0.13752625000000052
                },
                {
                    "name": "G5",
                    "midi": 79,
                    "time": 49.50945000000011,
                    "velocity": 0.3700787401574803,
                    "duration": 0.13752625000000052
                },
                {
                    "name": "D5",
                    "midi": 74,
                    "time": 49.50945000000011,
                    "velocity": 0.3700787401574803,
                    "duration": 0.13752625000000052
                },
                {
                    "name": "A#5",
                    "midi": 82,
                    "time": 49.50945000000011,
                    "velocity": 0.4409448818897638,
                    "duration": 0.13752625000000052
                },
                {
                    "name": "A#4",
                    "midi": 70,
                    "time": 50.05955500000011,
                    "velocity": 0.33070866141732286,
                    "duration": 0.13752625000000052
                },
                {
                    "name": "D#5",
                    "midi": 75,
                    "time": 50.05955500000011,
                    "velocity": 0.33070866141732286,
                    "duration": 0.13752625000000052
                },
                {
                    "name": "G5",
                    "midi": 79,
                    "time": 50.05955500000011,
                    "velocity": 0.3937007874015748,
                    "duration": 0.13752625000000052
                },
                {
                    "name": "G4",
                    "midi": 67,
                    "time": 50.60966000000011,
                    "velocity": 0.33070866141732286,
                    "duration": 0.27505250000000103
                },
                {
                    "name": "C5",
                    "midi": 72,
                    "time": 50.60966000000011,
                    "velocity": 0.33070866141732286,
                    "duration": 0.27505250000000103
                },
                {
                    "name": "D#5",
                    "midi": 75,
                    "time": 50.60966000000011,
                    "velocity": 0.3937007874015748,
                    "duration": 0.27505250000000103
                },
                {
                    "name": "F4",
                    "midi": 65,
                    "time": 51.159765000000114,
                    "velocity": 0.33070866141732286,
                    "duration": 0.13752625000000052
                },
                {
                    "name": "G#4",
                    "midi": 68,
                    "time": 51.159765000000114,
                    "velocity": 0.3937007874015748,
                    "duration": 0.13752625000000052
                },
                {
                    "name": "C4",
                    "midi": 60,
                    "time": 51.159765000000114,
                    "velocity": 0.33070866141732286,
                    "duration": 0.13752625000000052
                },
                {
                    "name": "A#4",
                    "midi": 70,
                    "time": 51.434817500000115,
                    "velocity": 0.4409448818897638,
                    "duration": 0.13752625000000052
                },
                {
                    "name": "G4",
                    "midi": 67,
                    "time": 51.434817500000115,
                    "velocity": 0.3700787401574803,
                    "duration": 0.13752625000000052
                },
                {
                    "name": "D4",
                    "midi": 62,
                    "time": 51.434817500000115,
                    "velocity": 0.3700787401574803,
                    "duration": 0.13752625000000052
                },
                {
                    "name": "C5",
                    "midi": 72,
                    "time": 51.709870000000116,
                    "velocity": 0.49606299212598426,
                    "duration": 1.1002100000000041
                },
                {
                    "name": "G#4",
                    "midi": 68,
                    "time": 51.709870000000116,
                    "velocity": 0.41732283464566927,
                    "duration": 1.1002100000000041
                },
                {
                    "name": "D#4",
                    "midi": 63,
                    "time": 51.709870000000116,
                    "velocity": 0.41732283464566927,
                    "duration": 0.8251575000000031
                },
                {
                    "name": "D4",
                    "midi": 62,
                    "time": 52.25997500000012,
                    "velocity": 0.36220472440944884,
                    "duration": 0.13752625000000052
                },
                {
                    "name": "D#4",
                    "midi": 63,
                    "time": 52.39750125000012,
                    "velocity": 0.3700787401574803,
                    "duration": 0.41257875000000155
                },
                {
                    "name": "E4",
                    "midi": 64,
                    "time": 52.53502750000012,
                    "velocity": 0.3779527559055118,
                    "duration": 0.13752625000000052
                },
                {
                    "name": "F4",
                    "midi": 65,
                    "time": 52.67255375000012,
                    "velocity": 0.4094488188976378,
                    "duration": 0.13752625000000052
                },
                {
                    "name": "F#4",
                    "midi": 66,
                    "time": 52.81008000000012,
                    "velocity": 0.4330708661417323,
                    "duration": 0.5501050000000021
                },
                {
                    "name": "D4",
                    "midi": 62,
                    "time": 53.36018500000012,
                    "velocity": 0.33070866141732286,
                    "duration": 1.100209999999997
                },
                {
                    "name": "G4",
                    "midi": 67,
                    "time": 53.36018500000012,
                    "velocity": 0.33070866141732286,
                    "duration": 1.100209999999997
                },
                {
                    "name": "A#4",
                    "midi": 70,
                    "time": 53.36018500000012,
                    "velocity": 0.3937007874015748,
                    "duration": 1.100209999999997
                },
                {
                    "name": "G4",
                    "midi": 67,
                    "time": 54.46039500000012,
                    "velocity": 0.25984251968503935,
                    "duration": 0.13752625000000052
                },
                {
                    "name": "C#4",
                    "midi": 61,
                    "time": 54.46039500000012,
                    "velocity": 0.2204724409448819,
                    "duration": 0.13752625000000052
                },
                {
                    "name": "A#3",
                    "midi": 58,
                    "time": 54.46039500000012,
                    "velocity": 0.2204724409448819,
                    "duration": 0.13752625000000052
                },
                {
                    "name": "C5",
                    "midi": 72,
                    "time": 55.01050000000012,
                    "velocity": 0.33858267716535434,
                    "duration": 1.100209999999997
                },
                {
                    "name": "G#4",
                    "midi": 68,
                    "time": 55.01050000000012,
                    "velocity": 0.28346456692913385,
                    "duration": 1.100209999999997
                },
                {
                    "name": "D#4",
                    "midi": 63,
                    "time": 55.01050000000012,
                    "velocity": 0.28346456692913385,
                    "duration": 1.100209999999997
                },
                {
                    "name": "C4",
                    "midi": 60,
                    "time": 55.01050000000012,
                    "velocity": 0.28346456692913385,
                    "duration": 1.100209999999997
                },
                {
                    "name": "G4",
                    "midi": 67,
                    "time": 56.11071000000012,
                    "velocity": 0.25984251968503935,
                    "duration": 1.100209999999997
                },
                {
                    "name": "C4",
                    "midi": 60,
                    "time": 56.11071000000012,
                    "velocity": 0.2204724409448819,
                    "duration": 1.100209999999997
                },
                {
                    "name": "G3",
                    "midi": 55,
                    "time": 56.11071000000012,
                    "velocity": 0.2204724409448819,
                    "duration": 1.100209999999997
                },
                {
                    "name": "C5",
                    "midi": 72,
                    "time": 57.210920000000115,
                    "velocity": 0.31496062992125984,
                    "duration": 0.8251575000000031
                },
                {
                    "name": "G#4",
                    "midi": 68,
                    "time": 57.210920000000115,
                    "velocity": 0.2677165354330709,
                    "duration": 0.8251575000000031
                },
                {
                    "name": "D#4",
                    "midi": 63,
                    "time": 57.210920000000115,
                    "velocity": 0.2677165354330709,
                    "duration": 0.8251575000000031
                },
                {
                    "name": "C4",
                    "midi": 60,
                    "time": 57.210920000000115,
                    "velocity": 0.2677165354330709,
                    "duration": 0.8251575000000031
                },
                {
                    "name": "D#3",
                    "midi": 51,
                    "time": 59.136287500000115,
                    "velocity": 0.2677165354330709,
                    "duration": 0.27505250000000103
                },
                {
                    "name": "D#4",
                    "midi": 63,
                    "time": 59.136287500000115,
                    "velocity": 0.3228346456692913,
                    "duration": 0.27505250000000103
                },
                {
                    "name": "G#3",
                    "midi": 56,
                    "time": 59.136287500000115,
                    "velocity": 0.3228346456692913,
                    "duration": 0.13752625000000052
                },
                {
                    "name": "A#3",
                    "midi": 58,
                    "time": 59.273813750000116,
                    "velocity": 0.3779527559055118,
                    "duration": 0.13752625000000052
                },
                {
                    "name": "D#4",
                    "midi": 63,
                    "time": 59.411340000000116,
                    "velocity": 0.3858267716535433,
                    "duration": 0.13752625000000052
                },
                {
                    "name": "C4",
                    "midi": 60,
                    "time": 59.411340000000116,
                    "velocity": 0.3228346456692913,
                    "duration": 0.13752625000000052
                },
                {
                    "name": "D#3",
                    "midi": 51,
                    "time": 59.411340000000116,
                    "velocity": 0.3228346456692913,
                    "duration": 0.13752625000000052
                },
                {
                    "name": "G#3",
                    "midi": 56,
                    "time": 59.68639250000012,
                    "velocity": 0.2677165354330709,
                    "duration": 0.13752625000000052
                },
                {
                    "name": "G#4",
                    "midi": 68,
                    "time": 59.68639250000012,
                    "velocity": 0.3228346456692913,
                    "duration": 0.13752625000000052
                },
                {
                    "name": "F4",
                    "midi": 65,
                    "time": 59.68639250000012,
                    "velocity": 0.2677165354330709,
                    "duration": 0.13752625000000052
                },
                {
                    "name": "G#4",
                    "midi": 68,
                    "time": 59.96144500000012,
                    "velocity": 0.3543307086614173,
                    "duration": 0.13752625000000052
                },
                {
                    "name": "D#4",
                    "midi": 63,
                    "time": 59.96144500000012,
                    "velocity": 0.2992125984251969,
                    "duration": 0.13752625000000052
                },
                {
                    "name": "G#3",
                    "midi": 56,
                    "time": 59.96144500000012,
                    "velocity": 0.2992125984251969,
                    "duration": 0.13752625000000052
                },
                {
                    "name": "C4",
                    "midi": 60,
                    "time": 60.23649750000012,
                    "velocity": 0.2677165354330709,
                    "duration": 0.13752625000000052
                },
                {
                    "name": "G#4",
                    "midi": 68,
                    "time": 60.23649750000012,
                    "velocity": 0.2677165354330709,
                    "duration": 0.13752625000000052
                },
                {
                    "name": "C5",
                    "midi": 72,
                    "time": 60.23649750000012,
                    "velocity": 0.3228346456692913,
                    "duration": 0.13752625000000052
                },
                {
                    "name": "C4",
                    "midi": 60,
                    "time": 60.51155000000012,
                    "velocity": 0.33070866141732286,
                    "duration": 0.27505250000000103
                },
                {
                    "name": "G#4",
                    "midi": 68,
                    "time": 60.51155000000012,
                    "velocity": 0.33070866141732286,
                    "duration": 0.8251575000000031
                },
                {
                    "name": "C5",
                    "midi": 72,
                    "time": 60.51155000000012,
                    "velocity": 0.3937007874015748,
                    "duration": 0.8251575000000031
                },
                {
                    "name": "C4",
                    "midi": 60,
                    "time": 60.78660250000012,
                    "velocity": 0.1889763779527559,
                    "duration": 0.13752625000000052
                },
                {
                    "name": "D4",
                    "midi": 62,
                    "time": 60.78660250000012,
                    "velocity": 0.2283464566929134,
                    "duration": 0.13752625000000052
                },
                {
                    "name": "C4",
                    "midi": 60,
                    "time": 61.06165500000012,
                    "velocity": 0.1889763779527559,
                    "duration": 0.13752625000000052
                },
                {
                    "name": "D4",
                    "midi": 62,
                    "time": 61.06165500000012,
                    "velocity": 0.2283464566929134,
                    "duration": 0.13752625000000052
                },
                {
                    "name": "D#3",
                    "midi": 51,
                    "time": 61.336707500000124,
                    "velocity": 0.29133858267716534,
                    "duration": 0.27505250000000103
                },
                {
                    "name": "D#4",
                    "midi": 63,
                    "time": 61.336707500000124,
                    "velocity": 0.3543307086614173,
                    "duration": 0.27505250000000103
                },
                {
                    "name": "G#3",
                    "midi": 56,
                    "time": 61.336707500000124,
                    "velocity": 0.3543307086614173,
                    "duration": 0.13752625000000052
                },
                {
                    "name": "A#3",
                    "midi": 58,
                    "time": 61.474233750000124,
                    "velocity": 0.4094488188976378,
                    "duration": 0.13752625000000052
                },
                {
                    "name": "D#4",
                    "midi": 63,
                    "time": 61.611760000000125,
                    "velocity": 0.41732283464566927,
                    "duration": 0.13752625000000052
                },
                {
                    "name": "C4",
                    "midi": 60,
                    "time": 61.611760000000125,
                    "velocity": 0.3543307086614173,
                    "duration": 0.13752625000000052
                },
                {
                    "name": "D#3",
                    "midi": 51,
                    "time": 61.611760000000125,
                    "velocity": 0.3543307086614173,
                    "duration": 0.13752625000000052
                },
                {
                    "name": "G#3",
                    "midi": 56,
                    "time": 61.886812500000126,
                    "velocity": 0.29133858267716534,
                    "duration": 0.13752625000000052
                },
                {
                    "name": "G#4",
                    "midi": 68,
                    "time": 61.886812500000126,
                    "velocity": 0.3543307086614173,
                    "duration": 0.13752625000000052
                },
                {
                    "name": "F4",
                    "midi": 65,
                    "time": 61.886812500000126,
                    "velocity": 0.29133858267716534,
                    "duration": 0.13752625000000052
                },
                {
                    "name": "G#4",
                    "midi": 68,
                    "time": 62.16186500000013,
                    "velocity": 0.3858267716535433,
                    "duration": 0.13752625000000052
                },
                {
                    "name": "D#4",
                    "midi": 63,
                    "time": 62.16186500000013,
                    "velocity": 0.3228346456692913,
                    "duration": 0.13752625000000052
                },
                {
                    "name": "G#3",
                    "midi": 56,
                    "time": 62.16186500000013,
                    "velocity": 0.3228346456692913,
                    "duration": 0.13752625000000052
                },
                {
                    "name": "C4",
                    "midi": 60,
                    "time": 62.43691750000013,
                    "velocity": 0.29133858267716534,
                    "duration": 0.13752625000000052
                },
                {
                    "name": "G#4",
                    "midi": 68,
                    "time": 62.43691750000013,
                    "velocity": 0.29133858267716534,
                    "duration": 0.13752625000000052
                },
                {
                    "name": "C5",
                    "midi": 72,
                    "time": 62.43691750000013,
                    "velocity": 0.3543307086614173,
                    "duration": 0.13752625000000052
                },
                {
                    "name": "C4",
                    "midi": 60,
                    "time": 62.71197000000013,
                    "velocity": 0.36220472440944884,
                    "duration": 0.27505250000000103
                },
                {
                    "name": "G#4",
                    "midi": 68,
                    "time": 62.71197000000013,
                    "velocity": 0.36220472440944884,
                    "duration": 0.8251575000000031
                },
                {
                    "name": "C5",
                    "midi": 72,
                    "time": 62.71197000000013,
                    "velocity": 0.4330708661417323,
                    "duration": 0.8251575000000031
                },
                {
                    "name": "C4",
                    "midi": 60,
                    "time": 62.98702250000013,
                    "velocity": 0.2047244094488189,
                    "duration": 0.13752625000000052
                },
                {
                    "name": "D4",
                    "midi": 62,
                    "time": 62.98702250000013,
                    "velocity": 0.2440944881889764,
                    "duration": 0.13752625000000052
                },
                {
                    "name": "C4",
                    "midi": 60,
                    "time": 63.26207500000013,
                    "velocity": 0.2047244094488189,
                    "duration": 0.13752625000000052
                },
                {
                    "name": "D4",
                    "midi": 62,
                    "time": 63.26207500000013,
                    "velocity": 0.2440944881889764,
                    "duration": 0.13752625000000052
                },
                {
                    "name": "G#4",
                    "midi": 68,
                    "time": 63.53712750000013,
                    "velocity": 0.4409448818897638,
                    "duration": 0.13752625000000052
                },
                {
                    "name": "D5",
                    "midi": 74,
                    "time": 63.53712750000013,
                    "velocity": 0.4409448818897638,
                    "duration": 0.13752625000000052
                },
                {
                    "name": "A#4",
                    "midi": 70,
                    "time": 63.67465375000013,
                    "velocity": 0.4645669291338583,
                    "duration": 0.13752625000000052
                },
                {
                    "name": "D#5",
                    "midi": 75,
                    "time": 63.81218000000013,
                    "velocity": 0.4881889763779528,
                    "duration": 0.8251574999999818
                },
                {
                    "name": "C5",
                    "midi": 72,
                    "time": 63.81218000000013,
                    "velocity": 0.4881889763779528,
                    "duration": 0.8251574999999818
                },
                {
                    "name": "C6",
                    "midi": 84,
                    "time": 64.08723250000013,
                    "velocity": 0.5275590551181102,
                    "duration": 0.1375262499999934
                },
                {
                    "name": "G5",
                    "midi": 79,
                    "time": 64.22475875000012,
                    "velocity": 0.49606299212598426,
                    "duration": 0.1375262499999934
                },
                {
                    "name": "F5",
                    "midi": 77,
                    "time": 64.36228500000011,
                    "velocity": 0.5511811023622047,
                    "duration": 0.27505250000000103
                },
                {
                    "name": "G#4",
                    "midi": 68,
                    "time": 64.63733750000011,
                    "velocity": 0.4409448818897638,
                    "duration": 0.1375262499999934
                },
                {
                    "name": "D5",
                    "midi": 74,
                    "time": 64.63733750000011,
                    "velocity": 0.4409448818897638,
                    "duration": 0.2750524999999868
                },
                {
                    "name": "A#4",
                    "midi": 70,
                    "time": 64.77486375000011,
                    "velocity": 0.4645669291338583,
                    "duration": 0.1375262499999934
                },
                {
                    "name": "D#5",
                    "midi": 75,
                    "time": 64.9123900000001,
                    "velocity": 0.4881889763779528,
                    "duration": 0.8251574999999889
                },
                {
                    "name": "C5",
                    "midi": 72,
                    "time": 64.9123900000001,
                    "velocity": 0.4881889763779528,
                    "duration": 0.8251574999999889
                },
                {
                    "name": "C6",
                    "midi": 84,
                    "time": 65.1874425000001,
                    "velocity": 0.5275590551181102,
                    "duration": 0.1375262499999934
                },
                {
                    "name": "G5",
                    "midi": 79,
                    "time": 65.3249687500001,
                    "velocity": 0.49606299212598426,
                    "duration": 0.1375262499999934
                },
                {
                    "name": "F5",
                    "midi": 77,
                    "time": 65.46249500000009,
                    "velocity": 0.5511811023622047,
                    "duration": 0.27505250000000103
                },
                {
                    "name": "G#4",
                    "midi": 68,
                    "time": 65.73754750000009,
                    "velocity": 0.4409448818897638,
                    "duration": 0.1375262499999934
                },
                {
                    "name": "D5",
                    "midi": 74,
                    "time": 65.73754750000009,
                    "velocity": 0.4409448818897638,
                    "duration": 0.2750524999999868
                },
                {
                    "name": "A#4",
                    "midi": 70,
                    "time": 65.87507375000008,
                    "velocity": 0.4645669291338583,
                    "duration": 0.1375262499999934
                },
                {
                    "name": "D#5",
                    "midi": 75,
                    "time": 66.01260000000008,
                    "velocity": 0.4881889763779528,
                    "duration": 0.8251575000000031
                },
                {
                    "name": "C5",
                    "midi": 72,
                    "time": 66.01260000000008,
                    "velocity": 0.4881889763779528,
                    "duration": 0.27505250000000103
                },
                {
                    "name": "G#5",
                    "midi": 80,
                    "time": 66.28765250000008,
                    "velocity": 0.4881889763779528,
                    "duration": 0.27505250000000103
                },
                {
                    "name": "C6",
                    "midi": 84,
                    "time": 66.28765250000008,
                    "velocity": 0.4881889763779528,
                    "duration": 0.27505250000000103
                },
                {
                    "name": "C5",
                    "midi": 72,
                    "time": 66.28765250000008,
                    "velocity": 0.4881889763779528,
                    "duration": 0.27505250000000103
                },
                {
                    "name": "C5",
                    "midi": 72,
                    "time": 66.56270500000008,
                    "velocity": 0.5118110236220472,
                    "duration": 0.27505250000000103
                },
                {
                    "name": "G#5",
                    "midi": 80,
                    "time": 66.56270500000008,
                    "velocity": 0.5118110236220472,
                    "duration": 0.27505250000000103
                },
                {
                    "name": "C6",
                    "midi": 84,
                    "time": 66.56270500000008,
                    "velocity": 0.5118110236220472,
                    "duration": 0.27505250000000103
                },
                {
                    "name": "C#6",
                    "midi": 85,
                    "time": 66.83775750000008,
                    "velocity": 0.5196850393700787,
                    "duration": 0.27505250000000103
                },
                {
                    "name": "C6",
                    "midi": 84,
                    "time": 66.83775750000008,
                    "velocity": 0.5196850393700787,
                    "duration": 0.27505250000000103
                },
                {
                    "name": "G#5",
                    "midi": 80,
                    "time": 66.83775750000008,
                    "velocity": 0.5196850393700787,
                    "duration": 0.27505250000000103
                },
                {
                    "name": "C#5",
                    "midi": 73,
                    "time": 66.83775750000008,
                    "velocity": 0.5196850393700787,
                    "duration": 0.27505250000000103
                },
                {
                    "name": "C#6",
                    "midi": 85,
                    "time": 67.11281000000008,
                    "velocity": 0.5511811023622047,
                    "duration": 0.27505250000000103
                },
                {
                    "name": "C6",
                    "midi": 84,
                    "time": 67.11281000000008,
                    "velocity": 0.5511811023622047,
                    "duration": 0.27505250000000103
                },
                {
                    "name": "G#5",
                    "midi": 80,
                    "time": 67.11281000000008,
                    "velocity": 0.5511811023622047,
                    "duration": 0.27505250000000103
                },
                {
                    "name": "C#5",
                    "midi": 73,
                    "time": 67.11281000000008,
                    "velocity": 0.5511811023622047,
                    "duration": 0.27505250000000103
                },
                {
                    "name": "D6",
                    "midi": 86,
                    "time": 67.38786250000008,
                    "velocity": 0.5669291338582677,
                    "duration": 0.27505250000000103
                },
                {
                    "name": "C6",
                    "midi": 84,
                    "time": 67.38786250000008,
                    "velocity": 0.5669291338582677,
                    "duration": 0.27505250000000103
                },
                {
                    "name": "G#5",
                    "midi": 80,
                    "time": 67.38786250000008,
                    "velocity": 0.5669291338582677,
                    "duration": 0.27505250000000103
                },
                {
                    "name": "D5",
                    "midi": 74,
                    "time": 67.38786250000008,
                    "velocity": 0.5669291338582677,
                    "duration": 0.27505250000000103
                },
                {
                    "name": "D6",
                    "midi": 86,
                    "time": 67.66291500000008,
                    "velocity": 0.6062992125984252,
                    "duration": 0.27505250000000103
                },
                {
                    "name": "C6",
                    "midi": 84,
                    "time": 67.66291500000008,
                    "velocity": 0.6062992125984252,
                    "duration": 0.27505250000000103
                },
                {
                    "name": "G#5",
                    "midi": 80,
                    "time": 67.66291500000008,
                    "velocity": 0.6062992125984252,
                    "duration": 0.27505250000000103
                },
                {
                    "name": "D#6",
                    "midi": 87,
                    "time": 67.93796750000008,
                    "velocity": 0.6220472440944882,
                    "duration": 0.27505250000000103
                },
                {
                    "name": "C6",
                    "midi": 84,
                    "time": 67.93796750000008,
                    "velocity": 0.6220472440944882,
                    "duration": 0.27505250000000103
                },
                {
                    "name": "D#6",
                    "midi": 87,
                    "time": 68.21302000000009,
                    "velocity": 0.7637795275590551,
                    "duration": 0.27505250000000103
                },
                {
                    "name": "D#4",
                    "midi": 63,
                    "time": 68.76312500000009,
                    "velocity": 0.6062992125984252,
                    "duration": 0.41257874999999444
                },
                {
                    "name": "C5",
                    "midi": 72,
                    "time": 68.76312500000009,
                    "velocity": 0.6062992125984252,
                    "duration": 0.41257874999999444
                },
                {
                    "name": "G4",
                    "midi": 67,
                    "time": 68.76312500000009,
                    "velocity": 0.6062992125984252,
                    "duration": 0.41257874999999444
                },
                {
                    "name": "D#5",
                    "midi": 75,
                    "time": 68.76312500000009,
                    "velocity": 0.7086614173228346,
                    "duration": 0.41257874999999444
                },
                {
                    "name": "D#4",
                    "midi": 63,
                    "time": 69.31323000000008,
                    "velocity": 0.7637795275590551,
                    "duration": 0.5501050000000021
                },
                {
                    "name": "B3",
                    "midi": 59,
                    "time": 69.86333500000008,
                    "velocity": 0.5590551181102362,
                    "duration": 0.5501050000000021
                },
                {
                    "name": "D#4",
                    "midi": 63,
                    "time": 69.86333500000008,
                    "velocity": 0.5590551181102362,
                    "duration": 0.5501050000000021
                },
                {
                    "name": "G4",
                    "midi": 67,
                    "time": 69.86333500000008,
                    "velocity": 0.5590551181102362,
                    "duration": 0.5501050000000021
                },
                {
                    "name": "B4",
                    "midi": 71,
                    "time": 69.86333500000008,
                    "velocity": 0.6692913385826772,
                    "duration": 0.5501050000000021
                },
                {
                    "name": "D#5",
                    "midi": 75,
                    "time": 70.96354500000008,
                    "velocity": 0.5984251968503937,
                    "duration": 0.5501050000000021
                },
                {
                    "name": "C5",
                    "midi": 72,
                    "time": 70.96354500000008,
                    "velocity": 0.5039370078740157,
                    "duration": 0.5501050000000021
                },
                {
                    "name": "G4",
                    "midi": 67,
                    "time": 70.96354500000008,
                    "velocity": 0.5039370078740157,
                    "duration": 0.5501050000000021
                },
                {
                    "name": "D#4",
                    "midi": 63,
                    "time": 70.96354500000008,
                    "velocity": 0.5039370078740157,
                    "duration": 0.5501050000000021
                },
                {
                    "name": "G3",
                    "midi": 55,
                    "time": 72.33880750000009,
                    "velocity": 0.2677165354330709,
                    "duration": 0.2750524999999868
                },
                {
                    "name": "G4",
                    "midi": 67,
                    "time": 72.33880750000009,
                    "velocity": 0.3228346456692913,
                    "duration": 0.2750524999999868
                },
                {
                    "name": "C4",
                    "midi": 60,
                    "time": 72.33880750000009,
                    "velocity": 0.3228346456692913,
                    "duration": 0.1375262499999934
                },
                {
                    "name": "D4",
                    "midi": 62,
                    "time": 72.47633375000008,
                    "velocity": 0.3779527559055118,
                    "duration": 0.1375262499999934
                },
                {
                    "name": "G4",
                    "midi": 67,
                    "time": 72.61386000000007,
                    "velocity": 0.3858267716535433,
                    "duration": 0.1375262499999934
                },
                {
                    "name": "D#4",
                    "midi": 63,
                    "time": 72.61386000000007,
                    "velocity": 0.3228346456692913,
                    "duration": 0.1375262499999934
                },
                {
                    "name": "G3",
                    "midi": 55,
                    "time": 72.61386000000007,
                    "velocity": 0.3228346456692913,
                    "duration": 0.1375262499999934
                },
                {
                    "name": "C4",
                    "midi": 60,
                    "time": 72.88891250000006,
                    "velocity": 0.2677165354330709,
                    "duration": 0.1375262499999934
                },
                {
                    "name": "C5",
                    "midi": 72,
                    "time": 72.88891250000006,
                    "velocity": 0.3228346456692913,
                    "duration": 0.1375262499999934
                },
                {
                    "name": "F#4",
                    "midi": 66,
                    "time": 72.88891250000006,
                    "velocity": 0.2677165354330709,
                    "duration": 0.1375262499999934
                },
                {
                    "name": "C5",
                    "midi": 72,
                    "time": 73.16396500000005,
                    "velocity": 0.3543307086614173,
                    "duration": 0.1375262499999934
                },
                {
                    "name": "G4",
                    "midi": 67,
                    "time": 73.16396500000005,
                    "velocity": 0.2992125984251969,
                    "duration": 0.1375262499999934
                },
                {
                    "name": "C4",
                    "midi": 60,
                    "time": 73.16396500000005,
                    "velocity": 0.2992125984251969,
                    "duration": 0.1375262499999934
                },
                {
                    "name": "D#4",
                    "midi": 63,
                    "time": 73.43901750000003,
                    "velocity": 0.2677165354330709,
                    "duration": 0.1375262499999934
                },
                {
                    "name": "C5",
                    "midi": 72,
                    "time": 73.43901750000003,
                    "velocity": 0.2677165354330709,
                    "duration": 0.1375262499999934
                },
                {
                    "name": "D#5",
                    "midi": 75,
                    "time": 73.43901750000003,
                    "velocity": 0.3228346456692913,
                    "duration": 0.1375262499999934
                },
                {
                    "name": "D#4",
                    "midi": 63,
                    "time": 73.71407000000002,
                    "velocity": 0.33070866141732286,
                    "duration": 0.27505250000000103
                },
                {
                    "name": "C5",
                    "midi": 72,
                    "time": 73.71407000000002,
                    "velocity": 0.33070866141732286,
                    "duration": 0.8251574999999747
                },
                {
                    "name": "D#5",
                    "midi": 75,
                    "time": 73.71407000000002,
                    "velocity": 0.3937007874015748,
                    "duration": 0.8251574999999747
                },
                {
                    "name": "D#4",
                    "midi": 63,
                    "time": 73.98912250000002,
                    "velocity": 0.1889763779527559,
                    "duration": 0.1375262499999934
                },
                {
                    "name": "F4",
                    "midi": 65,
                    "time": 73.98912250000002,
                    "velocity": 0.2283464566929134,
                    "duration": 0.1375262499999934
                },
                {
                    "name": "D#4",
                    "midi": 63,
                    "time": 74.26417500000001,
                    "velocity": 0.1889763779527559,
                    "duration": 0.1375262499999934
                },
                {
                    "name": "F4",
                    "midi": 65,
                    "time": 74.26417500000001,
                    "velocity": 0.2283464566929134,
                    "duration": 0.1375262499999934
                },
                {
                    "name": "F#3",
                    "midi": 54,
                    "time": 74.5392275,
                    "velocity": 0.31496062992125984,
                    "duration": 0.2750524999999868
                },
                {
                    "name": "F#4",
                    "midi": 66,
                    "time": 74.5392275,
                    "velocity": 0.3858267716535433,
                    "duration": 0.2750524999999868
                },
                {
                    "name": "B3",
                    "midi": 59,
                    "time": 74.5392275,
                    "velocity": 0.3858267716535433,
                    "duration": 0.1375262499999934
                },
                {
                    "name": "C#4",
                    "midi": 61,
                    "time": 74.67675374999999,
                    "velocity": 0.44881889763779526,
                    "duration": 0.1375262499999934
                },
                {
                    "name": "F#4",
                    "midi": 66,
                    "time": 74.81427999999998,
                    "velocity": 0.4645669291338583,
                    "duration": 0.1375262499999934
                },
                {
                    "name": "D#4",
                    "midi": 63,
                    "time": 74.81427999999998,
                    "velocity": 0.3937007874015748,
                    "duration": 0.1375262499999934
                },
                {
                    "name": "F#3",
                    "midi": 54,
                    "time": 74.81427999999998,
                    "velocity": 0.3937007874015748,
                    "duration": 0.1375262499999934
                },
                {
                    "name": "B3",
                    "midi": 59,
                    "time": 75.08933249999997,
                    "velocity": 0.33070866141732286,
                    "duration": 0.1375262499999934
                },
                {
                    "name": "B4",
                    "midi": 71,
                    "time": 75.08933249999997,
                    "velocity": 0.4015748031496063,
                    "duration": 0.1375262499999934
                },
                {
                    "name": "E4",
                    "midi": 64,
                    "time": 75.08933249999997,
                    "velocity": 0.33070866141732286,
                    "duration": 0.1375262499999934
                },
                {
                    "name": "B4",
                    "midi": 71,
                    "time": 75.36438499999996,
                    "velocity": 0.44881889763779526,
                    "duration": 0.1375262499999934
                },
                {
                    "name": "F#4",
                    "midi": 66,
                    "time": 75.36438499999996,
                    "velocity": 0.3779527559055118,
                    "duration": 0.1375262499999934
                },
                {
                    "name": "B3",
                    "midi": 59,
                    "time": 75.36438499999996,
                    "velocity": 0.3779527559055118,
                    "duration": 0.1375262499999934
                },
                {
                    "name": "D#4",
                    "midi": 63,
                    "time": 75.63943749999994,
                    "velocity": 0.3464566929133858,
                    "duration": 0.1375262499999934
                },
                {
                    "name": "B4",
                    "midi": 71,
                    "time": 75.63943749999994,
                    "velocity": 0.3464566929133858,
                    "duration": 0.1375262499999934
                },
                {
                    "name": "D#5",
                    "midi": 75,
                    "time": 75.63943749999994,
                    "velocity": 0.4251968503937008,
                    "duration": 0.1375262499999934
                },
                {
                    "name": "D#4",
                    "midi": 63,
                    "time": 75.91448999999993,
                    "velocity": 0.4409448818897638,
                    "duration": 0.27505250000000103
                },
                {
                    "name": "C5",
                    "midi": 72,
                    "time": 75.91448999999993,
                    "velocity": 0.4409448818897638,
                    "duration": 0.8251574999999747
                },
                {
                    "name": "D#5",
                    "midi": 75,
                    "time": 75.91448999999993,
                    "velocity": 0.5275590551181102,
                    "duration": 0.8251574999999747
                },
                {
                    "name": "D#4",
                    "midi": 63,
                    "time": 76.18954249999993,
                    "velocity": 0.25196850393700787,
                    "duration": 0.1375262499999934
                },
                {
                    "name": "F4",
                    "midi": 65,
                    "time": 76.18954249999993,
                    "velocity": 0.30708661417322836,
                    "duration": 0.1375262499999934
                },
                {
                    "name": "D#4",
                    "midi": 63,
                    "time": 76.46459499999992,
                    "velocity": 0.25984251968503935,
                    "duration": 0.1375262499999934
                },
                {
                    "name": "F4",
                    "midi": 65,
                    "time": 76.46459499999992,
                    "velocity": 0.30708661417322836,
                    "duration": 0.1375262499999934
                },
                {
                    "name": "B4",
                    "midi": 71,
                    "time": 76.7396474999999,
                    "velocity": 0.4409448818897638,
                    "duration": 0.1375262499999934
                },
                {
                    "name": "F5",
                    "midi": 77,
                    "time": 76.7396474999999,
                    "velocity": 0.5196850393700787,
                    "duration": 0.1375262499999934
                },
                {
                    "name": "C#5",
                    "midi": 73,
                    "time": 76.8771737499999,
                    "velocity": 0.5433070866141733,
                    "duration": 0.1375262499999934
                },
                {
                    "name": "B4",
                    "midi": 71,
                    "time": 77.01469999999989,
                    "velocity": 0.4881889763779528,
                    "duration": 0.8251574999999747
                },
                {
                    "name": "F#5",
                    "midi": 78,
                    "time": 77.01469999999989,
                    "velocity": 0.5748031496062992,
                    "duration": 0.8251574999999747
                },
                {
                    "name": "D#5",
                    "midi": 75,
                    "time": 77.01469999999989,
                    "velocity": 0.4881889763779528,
                    "duration": 0.8251574999999747
                },
                {
                    "name": "D#6",
                    "midi": 87,
                    "time": 77.28975249999989,
                    "velocity": 0.6141732283464567,
                    "duration": 0.1375262499999934
                },
                {
                    "name": "A#5",
                    "midi": 82,
                    "time": 77.42727874999989,
                    "velocity": 0.5826771653543307,
                    "duration": 0.1375262499999934
                },
                {
                    "name": "D#6",
                    "midi": 87,
                    "time": 77.56480499999988,
                    "velocity": 0.6141732283464567,
                    "duration": 0.1375262499999934
                },
                {
                    "name": "G#5",
                    "midi": 80,
                    "time": 77.56480499999988,
                    "velocity": 0.5590551181102362,
                    "duration": 0.2750524999999868
                },
                {
                    "name": "B4",
                    "midi": 71,
                    "time": 77.83985749999987,
                    "velocity": 0.4645669291338583,
                    "duration": 0.1375262499999934
                },
                {
                    "name": "F5",
                    "midi": 77,
                    "time": 77.83985749999987,
                    "velocity": 0.5511811023622047,
                    "duration": 0.2750524999999868
                },
                {
                    "name": "C#5",
                    "midi": 73,
                    "time": 77.97738374999986,
                    "velocity": 0.5748031496062992,
                    "duration": 0.1375262499999934
                },
                {
                    "name": "B4",
                    "midi": 71,
                    "time": 78.11490999999985,
                    "velocity": 0.5118110236220472,
                    "duration": 0.8251574999999747
                },
                {
                    "name": "F#5",
                    "midi": 78,
                    "time": 78.11490999999985,
                    "velocity": 0.6062992125984252,
                    "duration": 0.8251574999999747
                },
                {
                    "name": "D#5",
                    "midi": 75,
                    "time": 78.11490999999985,
                    "velocity": 0.5118110236220472,
                    "duration": 0.8251574999999747
                },
                {
                    "name": "D#6",
                    "midi": 87,
                    "time": 78.38996249999985,
                    "velocity": 0.6535433070866141,
                    "duration": 0.1375262499999934
                },
                {
                    "name": "A#5",
                    "midi": 82,
                    "time": 78.52748874999985,
                    "velocity": 0.6141732283464567,
                    "duration": 0.1375262499999934
                },
                {
                    "name": "D#6",
                    "midi": 87,
                    "time": 78.66501499999984,
                    "velocity": 0.6535433070866141,
                    "duration": 0.1375262499999934
                },
                {
                    "name": "G#5",
                    "midi": 80,
                    "time": 78.66501499999984,
                    "velocity": 0.5669291338582677,
                    "duration": 0.2750524999999868
                },
                {
                    "name": "B4",
                    "midi": 71,
                    "time": 78.94006749999983,
                    "velocity": 0.5511811023622047,
                    "duration": 0.1375262499999934
                },
                {
                    "name": "F5",
                    "midi": 77,
                    "time": 78.94006749999983,
                    "velocity": 0.5511811023622047,
                    "duration": 0.2750524999999868
                },
                {
                    "name": "C#5",
                    "midi": 73,
                    "time": 79.07759374999982,
                    "velocity": 0.5748031496062992,
                    "duration": 0.1375262499999934
                },
                {
                    "name": "B4",
                    "midi": 71,
                    "time": 79.21511999999981,
                    "velocity": 0.5118110236220472,
                    "duration": 0.5501049999999879
                },
                {
                    "name": "F#5",
                    "midi": 78,
                    "time": 79.21511999999981,
                    "velocity": 0.6062992125984252,
                    "duration": 0.5501049999999879
                },
                {
                    "name": "D#5",
                    "midi": 75,
                    "time": 79.21511999999981,
                    "velocity": 0.5118110236220472,
                    "duration": 0.5501049999999879
                },
                {
                    "name": "D4",
                    "midi": 62,
                    "time": 79.49017249999982,
                    "velocity": 0.4330708661417323,
                    "duration": 0.1375262499999934
                },
                {
                    "name": "D5",
                    "midi": 74,
                    "time": 79.49017249999982,
                    "velocity": 0.5196850393700787,
                    "duration": 0.1375262499999934
                },
                {
                    "name": "D#4",
                    "midi": 63,
                    "time": 79.62769874999981,
                    "velocity": 0.4566929133858268,
                    "duration": 0.1375262499999934
                },
                {
                    "name": "D#5",
                    "midi": 75,
                    "time": 79.62769874999981,
                    "velocity": 0.5433070866141733,
                    "duration": 0.1375262499999934
                },
                {
                    "name": "F#4",
                    "midi": 66,
                    "time": 79.7652249999998,
                    "velocity": 0.48031496062992124,
                    "duration": 0.1375262499999934
                },
                {
                    "name": "F#5",
                    "midi": 78,
                    "time": 79.7652249999998,
                    "velocity": 0.5669291338582677,
                    "duration": 0.1375262499999934
                },
                {
                    "name": "G#4",
                    "midi": 68,
                    "time": 79.9027512499998,
                    "velocity": 0.48031496062992124,
                    "duration": 0.1375262499999934
                },
                {
                    "name": "G#5",
                    "midi": 80,
                    "time": 79.9027512499998,
                    "velocity": 0.5748031496062992,
                    "duration": 0.1375262499999934
                },
                {
                    "name": "B4",
                    "midi": 71,
                    "time": 80.04027749999979,
                    "velocity": 0.49606299212598426,
                    "duration": 0.1375262499999934
                },
                {
                    "name": "B5",
                    "midi": 83,
                    "time": 80.04027749999979,
                    "velocity": 0.5905511811023622,
                    "duration": 0.1375262499999934
                },
                {
                    "name": "D#5",
                    "midi": 75,
                    "time": 80.17780374999978,
                    "velocity": 0.5196850393700787,
                    "duration": 0.1375262499999934
                },
                {
                    "name": "D#6",
                    "midi": 87,
                    "time": 80.17780374999978,
                    "velocity": 0.6141732283464567,
                    "duration": 0.1375262499999934
                },
                {
                    "name": "F#5",
                    "midi": 78,
                    "time": 80.31532999999978,
                    "velocity": 0.6299212598425197,
                    "duration": 0.1375262499999934
                },
                {
                    "name": "F#6",
                    "midi": 90,
                    "time": 80.31532999999978,
                    "velocity": 0.7401574803149606,
                    "duration": 0.1375262499999934
                },
                {
                    "name": "G#3",
                    "midi": 56,
                    "time": 80.59038249999976,
                    "velocity": 0.5748031496062992,
                    "duration": 0.1375262499999934
                },
                {
                    "name": "B3",
                    "midi": 59,
                    "time": 80.72790874999976,
                    "velocity": 0.5039370078740157,
                    "duration": 0.1375262499999934
                },
                {
                    "name": "D#4",
                    "midi": 63,
                    "time": 80.86543499999975,
                    "velocity": 0.6062992125984252,
                    "duration": 0.1375262499999934
                },
                {
                    "name": "F#4",
                    "midi": 66,
                    "time": 81.14048749999974,
                    "velocity": 0.5748031496062992,
                    "duration": 0.1375262499999934
                },
                {
                    "name": "B4",
                    "midi": 71,
                    "time": 81.41553999999972,
                    "velocity": 0.5669291338582677,
                    "duration": 0.27505250000000103
                },
                {
                    "name": "D#5",
                    "midi": 75,
                    "time": 81.69059249999972,
                    "velocity": 0.6692913385826772,
                    "duration": 0.1375262499999934
                },
                {
                    "name": "D#4",
                    "midi": 63,
                    "time": 81.69059249999972,
                    "velocity": 0.5590551181102362,
                    "duration": 0.1375262499999934
                },
                {
                    "name": "G5",
                    "midi": 79,
                    "time": 81.96564499999971,
                    "velocity": 0.6299212598425197,
                    "duration": 0.8251575000000031
                },
                {
                    "name": "D#5",
                    "midi": 75,
                    "time": 81.96564499999971,
                    "velocity": 0.5275590551181102,
                    "duration": 0.8251575000000031
                },
                {
                    "name": "G4",
                    "midi": 67,
                    "time": 81.96564499999971,
                    "velocity": 0.5275590551181102,
                    "duration": 0.8251575000000031
                },
                {
                    "name": "B4",
                    "midi": 71,
                    "time": 81.96564499999971,
                    "velocity": 0.5275590551181102,
                    "duration": 0.5501050000000021
                },
                {
                    "name": "C5",
                    "midi": 72,
                    "time": 82.51574999999971,
                    "velocity": 0.6299212598425197,
                    "duration": 0.5501049999999879
                },
                {
                    "name": "G4",
                    "midi": 67,
                    "time": 82.79080249999971,
                    "velocity": 0.49606299212598426,
                    "duration": 0.1375262499999934
                },
                {
                    "name": "G5",
                    "midi": 79,
                    "time": 82.79080249999971,
                    "velocity": 0.5984251968503937,
                    "duration": 0.1375262499999934
                },
                {
                    "name": "B4",
                    "midi": 71,
                    "time": 83.0658549999997,
                    "velocity": 0.5354330708661418,
                    "duration": 0.8251575000000031
                },
                {
                    "name": "D#5",
                    "midi": 75,
                    "time": 83.0658549999997,
                    "velocity": 0.5354330708661418,
                    "duration": 0.8251575000000031
                },
                {
                    "name": "G5",
                    "midi": 79,
                    "time": 83.0658549999997,
                    "velocity": 0.5354330708661418,
                    "duration": 0.8251575000000031
                },
                {
                    "name": "B5",
                    "midi": 83,
                    "time": 83.0658549999997,
                    "velocity": 0.6377952755905512,
                    "duration": 0.8251575000000031
                },
                {
                    "name": "B5",
                    "midi": 83,
                    "time": 83.8910124999997,
                    "velocity": 0.6062992125984252,
                    "duration": 0.1375262499999934
                },
                {
                    "name": "B4",
                    "midi": 71,
                    "time": 83.8910124999997,
                    "velocity": 0.5118110236220472,
                    "duration": 0.1375262499999934
                },
                {
                    "name": "D#6",
                    "midi": 87,
                    "time": 84.16606499999969,
                    "velocity": 0.7165354330708661,
                    "duration": 0.8251575000000031
                },
                {
                    "name": "B5",
                    "midi": 83,
                    "time": 84.16606499999969,
                    "velocity": 0.6062992125984252,
                    "duration": 0.5501050000000021
                },
                {
                    "name": "D#5",
                    "midi": 75,
                    "time": 84.16606499999969,
                    "velocity": 0.6062992125984252,
                    "duration": 0.8251575000000031
                },
                {
                    "name": "G5",
                    "midi": 79,
                    "time": 84.16606499999969,
                    "velocity": 0.6062992125984252,
                    "duration": 0.8251575000000031
                },
                {
                    "name": "C6",
                    "midi": 84,
                    "time": 84.71616999999969,
                    "velocity": 0.6850393700787402,
                    "duration": 0.27505250000000103
                },
                {
                    "name": "D#6",
                    "midi": 87,
                    "time": 84.9912224999997,
                    "velocity": 0.6062992125984252,
                    "duration": 0.1375262499999934
                },
                {
                    "name": "D#5",
                    "midi": 75,
                    "time": 84.9912224999997,
                    "velocity": 0.5118110236220472,
                    "duration": 0.1375262499999934
                },
                {
                    "name": "G6",
                    "midi": 91,
                    "time": 85.26627499999968,
                    "velocity": 0.7716535433070866,
                    "duration": 0.41257874999999444
                },
                {
                    "name": "D#6",
                    "midi": 87,
                    "time": 85.26627499999968,
                    "velocity": 0.7716535433070866,
                    "duration": 0.41257874999999444
                },
                {
                    "name": "B5",
                    "midi": 83,
                    "time": 85.26627499999968,
                    "velocity": 0.6535433070866141,
                    "duration": 0.41257874999999444
                },
                {
                    "name": "G5",
                    "midi": 79,
                    "time": 85.26627499999968,
                    "velocity": 0.6535433070866141,
                    "duration": 0.41257874999999444
                },
                {
                    "name": "D#5",
                    "midi": 75,
                    "time": 85.81637999999967,
                    "velocity": 0.5748031496062992,
                    "duration": 0.27505250000000103
                },
                {
                    "name": "A#4",
                    "midi": 70,
                    "time": 85.81637999999967,
                    "velocity": 0.5748031496062992,
                    "duration": 0.27505250000000103
                },
                {
                    "name": "G5",
                    "midi": 79,
                    "time": 85.81637999999967,
                    "velocity": 0.5748031496062992,
                    "duration": 0.27505250000000103
                },
                {
                    "name": "A#5",
                    "midi": 82,
                    "time": 85.81637999999967,
                    "velocity": 0.6771653543307087,
                    "duration": 0.27505250000000103
                },
                {
                    "name": "G#5",
                    "midi": 80,
                    "time": 86.09143249999967,
                    "velocity": 0.5118110236220472,
                    "duration": 0.1375262499999934
                },
                {
                    "name": "D#5",
                    "midi": 75,
                    "time": 86.09143249999967,
                    "velocity": 0.5118110236220472,
                    "duration": 0.1375262499999934
                },
                {
                    "name": "C5",
                    "midi": 72,
                    "time": 86.09143249999967,
                    "velocity": 0.5118110236220472,
                    "duration": 0.1375262499999934
                },
                {
                    "name": "A#5",
                    "midi": 82,
                    "time": 86.22895874999966,
                    "velocity": 0.48031496062992124,
                    "duration": 0.1375262499999934
                },
                {
                    "name": "G5",
                    "midi": 79,
                    "time": 86.36648499999966,
                    "velocity": 0.5433070866141733,
                    "duration": 0.1375262499999934
                },
                {
                    "name": "D#5",
                    "midi": 75,
                    "time": 86.36648499999966,
                    "velocity": 0.5433070866141733,
                    "duration": 0.1375262499999934
                },
                {
                    "name": "A#4",
                    "midi": 70,
                    "time": 86.36648499999966,
                    "velocity": 0.5433070866141733,
                    "duration": 0.1375262499999934
                },
                {
                    "name": "A#5",
                    "midi": 82,
                    "time": 86.50401124999965,
                    "velocity": 0.47244094488188976,
                    "duration": 0.1375262499999934
                },
                {
                    "name": "D#5",
                    "midi": 75,
                    "time": 86.64153749999964,
                    "velocity": 0.5039370078740157,
                    "duration": 0.1375262499999934
                },
                {
                    "name": "F5",
                    "midi": 77,
                    "time": 86.64153749999964,
                    "velocity": 0.5039370078740157,
                    "duration": 0.1375262499999934
                },
                {
                    "name": "G#4",
                    "midi": 68,
                    "time": 86.64153749999964,
                    "velocity": 0.5039370078740157,
                    "duration": 0.1375262499999934
                },
                {
                    "name": "A#5",
                    "midi": 82,
                    "time": 86.77906374999964,
                    "velocity": 0.44881889763779526,
                    "duration": 0.1375262499999934
                },
                {
                    "name": "A#4",
                    "midi": 70,
                    "time": 86.91658999999963,
                    "velocity": 0.5511811023622047,
                    "duration": 0.1375262499999934
                },
                {
                    "name": "D#5",
                    "midi": 75,
                    "time": 86.91658999999963,
                    "velocity": 0.5511811023622047,
                    "duration": 0.1375262499999934
                },
                {
                    "name": "G5",
                    "midi": 79,
                    "time": 86.91658999999963,
                    "velocity": 0.5511811023622047,
                    "duration": 0.1375262499999934
                },
                {
                    "name": "A#5",
                    "midi": 82,
                    "time": 87.05411624999962,
                    "velocity": 0.44881889763779526,
                    "duration": 0.1375262499999934
                },
                {
                    "name": "G#5",
                    "midi": 80,
                    "time": 87.19164249999962,
                    "velocity": 0.5039370078740157,
                    "duration": 0.1375262499999934
                },
                {
                    "name": "D#5",
                    "midi": 75,
                    "time": 87.19164249999962,
                    "velocity": 0.5039370078740157,
                    "duration": 0.1375262499999934
                },
                {
                    "name": "C5",
                    "midi": 72,
                    "time": 87.19164249999962,
                    "velocity": 0.5039370078740157,
                    "duration": 0.1375262499999934
                },
                {
                    "name": "A#5",
                    "midi": 82,
                    "time": 87.32916874999961,
                    "velocity": 0.44881889763779526,
                    "duration": 0.1375262499999934
                },
                {
                    "name": "G5",
                    "midi": 79,
                    "time": 87.4666949999996,
                    "velocity": 0.4881889763779528,
                    "duration": 0.1375262499999934
                },
                {
                    "name": "D#5",
                    "midi": 75,
                    "time": 87.4666949999996,
                    "velocity": 0.4881889763779528,
                    "duration": 0.1375262499999934
                },
                {
                    "name": "A#4",
                    "midi": 70,
                    "time": 87.4666949999996,
                    "velocity": 0.4881889763779528,
                    "duration": 0.1375262499999934
                },
                {
                    "name": "A#5",
                    "midi": 82,
                    "time": 87.6042212499996,
                    "velocity": 0.4251968503937008,
                    "duration": 0.1375262499999934
                },
                {
                    "name": "D#5",
                    "midi": 75,
                    "time": 87.74174749999959,
                    "velocity": 0.49606299212598426,
                    "duration": 0.1375262499999934
                },
                {
                    "name": "F5",
                    "midi": 77,
                    "time": 87.74174749999959,
                    "velocity": 0.49606299212598426,
                    "duration": 0.1375262499999934
                },
                {
                    "name": "G#4",
                    "midi": 68,
                    "time": 87.74174749999959,
                    "velocity": 0.49606299212598426,
                    "duration": 0.1375262499999934
                },
                {
                    "name": "A#5",
                    "midi": 82,
                    "time": 87.87927374999958,
                    "velocity": 0.4330708661417323,
                    "duration": 0.1375262499999934
                },
                {
                    "name": "A#4",
                    "midi": 70,
                    "time": 88.01679999999958,
                    "velocity": 0.5511811023622047,
                    "duration": 0.1375262499999934
                },
                {
                    "name": "D#5",
                    "midi": 75,
                    "time": 88.01679999999958,
                    "velocity": 0.5511811023622047,
                    "duration": 0.1375262499999934
                },
                {
                    "name": "G5",
                    "midi": 79,
                    "time": 88.01679999999958,
                    "velocity": 0.5511811023622047,
                    "duration": 0.1375262499999934
                },
                {
                    "name": "A#5",
                    "midi": 82,
                    "time": 88.15432624999957,
                    "velocity": 0.44881889763779526,
                    "duration": 0.1375262499999934
                },
                {
                    "name": "G#5",
                    "midi": 80,
                    "time": 88.29185249999956,
                    "velocity": 0.5039370078740157,
                    "duration": 0.1375262499999934
                },
                {
                    "name": "D#5",
                    "midi": 75,
                    "time": 88.29185249999956,
                    "velocity": 0.5039370078740157,
                    "duration": 0.1375262499999934
                },
                {
                    "name": "C5",
                    "midi": 72,
                    "time": 88.29185249999956,
                    "velocity": 0.5039370078740157,
                    "duration": 0.1375262499999934
                },
                {
                    "name": "A#5",
                    "midi": 82,
                    "time": 88.42937874999956,
                    "velocity": 0.44881889763779526,
                    "duration": 0.1375262499999934
                },
                {
                    "name": "G5",
                    "midi": 79,
                    "time": 88.56690499999955,
                    "velocity": 0.4881889763779528,
                    "duration": 0.1375262499999934
                },
                {
                    "name": "D#5",
                    "midi": 75,
                    "time": 88.56690499999955,
                    "velocity": 0.4881889763779528,
                    "duration": 0.1375262499999934
                },
                {
                    "name": "A#4",
                    "midi": 70,
                    "time": 88.56690499999955,
                    "velocity": 0.4881889763779528,
                    "duration": 0.1375262499999934
                },
                {
                    "name": "A#5",
                    "midi": 82,
                    "time": 88.70443124999954,
                    "velocity": 0.4251968503937008,
                    "duration": 0.1375262499999934
                },
                {
                    "name": "D#5",
                    "midi": 75,
                    "time": 88.84195749999954,
                    "velocity": 0.49606299212598426,
                    "duration": 0.1375262499999934
                },
                {
                    "name": "F5",
                    "midi": 77,
                    "time": 88.84195749999954,
                    "velocity": 0.49606299212598426,
                    "duration": 0.1375262499999934
                },
                {
                    "name": "G#4",
                    "midi": 68,
                    "time": 88.84195749999954,
                    "velocity": 0.49606299212598426,
                    "duration": 0.1375262499999934
                },
                {
                    "name": "A#5",
                    "midi": 82,
                    "time": 88.97948374999953,
                    "velocity": 0.4330708661417323,
                    "duration": 0.1375262499999934
                },
                {
                    "name": "A#4",
                    "midi": 70,
                    "time": 89.11700999999952,
                    "velocity": 0.5511811023622047,
                    "duration": 0.1375262499999934
                },
                {
                    "name": "D#5",
                    "midi": 75,
                    "time": 89.11700999999952,
                    "velocity": 0.5511811023622047,
                    "duration": 0.1375262499999934
                },
                {
                    "name": "G5",
                    "midi": 79,
                    "time": 89.11700999999952,
                    "velocity": 0.5511811023622047,
                    "duration": 0.1375262499999934
                },
                {
                    "name": "A#5",
                    "midi": 82,
                    "time": 89.25453624999952,
                    "velocity": 0.44881889763779526,
                    "duration": 0.1375262499999934
                },
                {
                    "name": "G#5",
                    "midi": 80,
                    "time": 89.39206249999951,
                    "velocity": 0.5039370078740157,
                    "duration": 0.1375262499999934
                },
                {
                    "name": "D#5",
                    "midi": 75,
                    "time": 89.39206249999951,
                    "velocity": 0.5039370078740157,
                    "duration": 0.1375262499999934
                },
                {
                    "name": "C5",
                    "midi": 72,
                    "time": 89.39206249999951,
                    "velocity": 0.5039370078740157,
                    "duration": 0.1375262499999934
                },
                {
                    "name": "A#5",
                    "midi": 82,
                    "time": 89.5295887499995,
                    "velocity": 0.44881889763779526,
                    "duration": 0.1375262499999934
                },
                {
                    "name": "G5",
                    "midi": 79,
                    "time": 89.6671149999995,
                    "velocity": 0.4881889763779528,
                    "duration": 0.1375262499999934
                },
                {
                    "name": "D#5",
                    "midi": 75,
                    "time": 89.6671149999995,
                    "velocity": 0.4881889763779528,
                    "duration": 0.1375262499999934
                },
                {
                    "name": "A#4",
                    "midi": 70,
                    "time": 89.6671149999995,
                    "velocity": 0.4881889763779528,
                    "duration": 0.1375262499999934
                },
                {
                    "name": "A#5",
                    "midi": 82,
                    "time": 89.80464124999949,
                    "velocity": 0.4251968503937008,
                    "duration": 0.1375262499999934
                },
                {
                    "name": "D#5",
                    "midi": 75,
                    "time": 89.94216749999948,
                    "velocity": 0.49606299212598426,
                    "duration": 0.1375262499999934
                },
                {
                    "name": "F5",
                    "midi": 77,
                    "time": 89.94216749999948,
                    "velocity": 0.49606299212598426,
                    "duration": 0.1375262499999934
                },
                {
                    "name": "G#4",
                    "midi": 68,
                    "time": 89.94216749999948,
                    "velocity": 0.49606299212598426,
                    "duration": 0.1375262499999934
                },
                {
                    "name": "A#5",
                    "midi": 82,
                    "time": 90.07969374999948,
                    "velocity": 0.4330708661417323,
                    "duration": 0.1375262499999934
                },
                {
                    "name": "A#4",
                    "midi": 70,
                    "time": 90.21721999999947,
                    "velocity": 0.5511811023622047,
                    "duration": 0.27505250000000103
                },
                {
                    "name": "D#5",
                    "midi": 75,
                    "time": 90.21721999999947,
                    "velocity": 0.5511811023622047,
                    "duration": 0.27505250000000103
                },
                {
                    "name": "G5",
                    "midi": 79,
                    "time": 90.21721999999947,
                    "velocity": 0.5511811023622047,
                    "duration": 0.27505250000000103
                },
                {
                    "name": "D4",
                    "midi": 62,
                    "time": 90.49227249999947,
                    "velocity": 0.5511811023622047,
                    "duration": 0.1375262499999934
                },
                {
                    "name": "G4",
                    "midi": 67,
                    "time": 90.49227249999947,
                    "velocity": 0.5511811023622047,
                    "duration": 0.1375262499999934
                },
                {
                    "name": "D#4",
                    "midi": 63,
                    "time": 90.62979874999947,
                    "velocity": 0.5511811023622047,
                    "duration": 0.1375262499999934
                },
                {
                    "name": "F#4",
                    "midi": 66,
                    "time": 90.76732499999946,
                    "velocity": 0.5511811023622047,
                    "duration": 0.1375262499999934
                },
                {
                    "name": "A#4",
                    "midi": 70,
                    "time": 90.76732499999946,
                    "velocity": 0.5511811023622047,
                    "duration": 0.1375262499999934
                },
                {
                    "name": "G4",
                    "midi": 67,
                    "time": 90.90485124999945,
                    "velocity": 0.5511811023622047,
                    "duration": 0.1375262499999934
                },
                {
                    "name": "C5",
                    "midi": 72,
                    "time": 91.04237749999945,
                    "velocity": 0.5511811023622047,
                    "duration": 0.1375262499999934
                },
                {
                    "name": "D#5",
                    "midi": 75,
                    "time": 91.04237749999945,
                    "velocity": 0.5511811023622047,
                    "duration": 0.1375262499999934
                },
                {
                    "name": "A#4",
                    "midi": 70,
                    "time": 91.17990374999944,
                    "velocity": 0.5511811023622047,
                    "duration": 0.1375262499999934
                },
                {
                    "name": "G5",
                    "midi": 79,
                    "time": 91.31742999999943,
                    "velocity": 0.5511811023622047,
                    "duration": 0.1375262499999934
                },
                {
                    "name": "D#5",
                    "midi": 75,
                    "time": 91.31742999999943,
                    "velocity": 0.5511811023622047,
                    "duration": 0.1375262499999934
                },
                {
                    "name": "A4",
                    "midi": 69,
                    "time": 91.45495624999943,
                    "velocity": 0.5511811023622047,
                    "duration": 0.1375262499999934
                },
                {
                    "name": "F#4",
                    "midi": 66,
                    "time": 91.59248249999942,
                    "velocity": 0.5511811023622047,
                    "duration": 0.1375262499999934
                },
                {
                    "name": "A#4",
                    "midi": 70,
                    "time": 91.59248249999942,
                    "velocity": 0.5511811023622047,
                    "duration": 0.1375262499999934
                },
                {
                    "name": "G4",
                    "midi": 67,
                    "time": 91.73000874999941,
                    "velocity": 0.5511811023622047,
                    "duration": 0.1375262499999934
                },
                {
                    "name": "C5",
                    "midi": 72,
                    "time": 91.8675349999994,
                    "velocity": 0.5511811023622047,
                    "duration": 0.1375262499999934
                },
                {
                    "name": "D#5",
                    "midi": 75,
                    "time": 91.8675349999994,
                    "velocity": 0.5511811023622047,
                    "duration": 0.1375262499999934
                },
                {
                    "name": "A#4",
                    "midi": 70,
                    "time": 92.0050612499994,
                    "velocity": 0.5511811023622047,
                    "duration": 0.1375262499999934
                },
                {
                    "name": "D#5",
                    "midi": 75,
                    "time": 92.1425874999994,
                    "velocity": 0.5511811023622047,
                    "duration": 0.1375262499999934
                },
                {
                    "name": "G5",
                    "midi": 79,
                    "time": 92.1425874999994,
                    "velocity": 0.5511811023622047,
                    "duration": 0.1375262499999934
                },
                {
                    "name": "D5",
                    "midi": 74,
                    "time": 92.28011374999939,
                    "velocity": 0.5511811023622047,
                    "duration": 0.1375262499999934
                },
                {
                    "name": "A#5",
                    "midi": 82,
                    "time": 92.41763999999938,
                    "velocity": 0.5511811023622047,
                    "duration": 0.27505250000000103
                },
                {
                    "name": "G5",
                    "midi": 79,
                    "time": 92.41763999999938,
                    "velocity": 0.5511811023622047,
                    "duration": 0.27505250000000103
                },
                {
                    "name": "D#5",
                    "midi": 75,
                    "time": 92.41763999999938,
                    "velocity": 0.5511811023622047,
                    "duration": 0.27505250000000103
                },
                {
                    "name": "D5",
                    "midi": 74,
                    "time": 92.69269249999938,
                    "velocity": 0.5354330708661418,
                    "duration": 0.1375262499999934
                },
                {
                    "name": "G5",
                    "midi": 79,
                    "time": 92.69269249999938,
                    "velocity": 0.5354330708661418,
                    "duration": 0.1375262499999934
                },
                {
                    "name": "D#5",
                    "midi": 75,
                    "time": 92.83021874999937,
                    "velocity": 0.48031496062992124,
                    "duration": 0.1375262499999934
                },
                {
                    "name": "F#5",
                    "midi": 78,
                    "time": 92.96774499999937,
                    "velocity": 0.5354330708661418,
                    "duration": 0.1375262499999934
                },
                {
                    "name": "A#5",
                    "midi": 82,
                    "time": 92.96774499999937,
                    "velocity": 0.5354330708661418,
                    "duration": 0.1375262499999934
                },
                {
                    "name": "G5",
                    "midi": 79,
                    "time": 93.10527124999936,
                    "velocity": 0.47244094488188976,
                    "duration": 0.1375262499999934
                },
                {
                    "name": "D#6",
                    "midi": 87,
                    "time": 93.24279749999936,
                    "velocity": 0.5354330708661418,
                    "duration": 0.1375262499999934
                },
                {
                    "name": "C6",
                    "midi": 84,
                    "time": 93.24279749999936,
                    "velocity": 0.5354330708661418,
                    "duration": 0.1375262499999934
                },
                {
                    "name": "A#5",
                    "midi": 82,
                    "time": 93.38032374999935,
                    "velocity": 0.4881889763779528,
                    "duration": 0.1375262499999934
                },
                {
                    "name": "G6",
                    "midi": 91,
                    "time": 93.51784999999934,
                    "velocity": 0.5354330708661418,
                    "duration": 0.1375262499999934
                },
                {
                    "name": "D#6",
                    "midi": 87,
                    "time": 93.51784999999934,
                    "velocity": 0.5354330708661418,
                    "duration": 0.1375262499999934
                },
                {
                    "name": "A5",
                    "midi": 81,
                    "time": 93.65537624999934,
                    "velocity": 0.48031496062992124,
                    "duration": 0.1375262499999934
                },
                {
                    "name": "F#5",
                    "midi": 78,
                    "time": 93.79290249999933,
                    "velocity": 0.5354330708661418,
                    "duration": 0.1375262499999934
                },
                {
                    "name": "A#5",
                    "midi": 82,
                    "time": 93.79290249999933,
                    "velocity": 0.5354330708661418,
                    "duration": 0.1375262499999934
                },
                {
                    "name": "G5",
                    "midi": 79,
                    "time": 93.93042874999932,
                    "velocity": 0.4881889763779528,
                    "duration": 0.1375262499999934
                },
                {
                    "name": "D#6",
                    "midi": 87,
                    "time": 94.06795499999932,
                    "velocity": 0.5354330708661418,
                    "duration": 0.1375262499999934
                },
                {
                    "name": "C6",
                    "midi": 84,
                    "time": 94.06795499999932,
                    "velocity": 0.5354330708661418,
                    "duration": 0.1375262499999934
                },
                {
                    "name": "A#5",
                    "midi": 82,
                    "time": 94.20548124999931,
                    "velocity": 0.4566929133858268,
                    "duration": 0.1375262499999934
                },
                {
                    "name": "D#6",
                    "midi": 87,
                    "time": 94.3430074999993,
                    "velocity": 0.5905511811023622,
                    "duration": 0.1375262499999934
                },
                {
                    "name": "G6",
                    "midi": 91,
                    "time": 94.3430074999993,
                    "velocity": 0.5905511811023622,
                    "duration": 0.1375262499999934
                },
                {
                    "name": "D6",
                    "midi": 86,
                    "time": 94.4805337499993,
                    "velocity": 0.5118110236220472,
                    "duration": 0.1375262499999934
                },
                {
                    "name": "A#6",
                    "midi": 94,
                    "time": 94.61805999999929,
                    "velocity": 0.6850393700787402,
                    "duration": 0.27505250000000103
                },
                {
                    "name": "G6",
                    "midi": 91,
                    "time": 94.61805999999929,
                    "velocity": 0.5748031496062992,
                    "duration": 0.27505250000000103
                },
                {
                    "name": "D#6",
                    "midi": 87,
                    "time": 94.61805999999929,
                    "velocity": 0.5748031496062992,
                    "duration": 0.27505250000000103
                },
                {
                    "name": "G#4",
                    "midi": 68,
                    "time": 95.7182699999993,
                    "velocity": 0.6535433070866141,
                    "duration": 0.5501050000000021
                },
                {
                    "name": "A#4",
                    "midi": 70,
                    "time": 95.7182699999993,
                    "velocity": 0.6535433070866141,
                    "duration": 0.5501050000000021
                },
                {
                    "name": "D5",
                    "midi": 74,
                    "time": 95.7182699999993,
                    "velocity": 0.6535433070866141,
                    "duration": 0.5501050000000021
                },
                {
                    "name": "F5",
                    "midi": 77,
                    "time": 95.7182699999993,
                    "velocity": 0.7874015748031497,
                    "duration": 0.5501050000000021
                },
                {
                    "name": "A#5",
                    "midi": 82,
                    "time": 95.7182699999993,
                    "velocity": 0.7874015748031497,
                    "duration": 0.5501050000000021
                },
                {
                    "name": "D#6",
                    "midi": 87,
                    "time": 97.0935324999993,
                    "velocity": 0.5511811023622047,
                    "duration": 0.1375262499999934
                },
                {
                    "name": "A#5",
                    "midi": 82,
                    "time": 97.0935324999993,
                    "velocity": 0.4645669291338583,
                    "duration": 0.1375262499999934
                },
                {
                    "name": "G5",
                    "midi": 79,
                    "time": 97.0935324999993,
                    "velocity": 0.4645669291338583,
                    "duration": 0.1375262499999934
                },
                {
                    "name": "G6",
                    "midi": 91,
                    "time": 97.23105874999929,
                    "velocity": 0.49606299212598426,
                    "duration": 0.1375262499999934
                },
                {
                    "name": "D#6",
                    "midi": 87,
                    "time": 97.36858499999929,
                    "velocity": 0.5511811023622047,
                    "duration": 0.1375262499999934
                },
                {
                    "name": "A#5",
                    "midi": 82,
                    "time": 97.36858499999929,
                    "velocity": 0.4645669291338583,
                    "duration": 0.1375262499999934
                },
                {
                    "name": "G5",
                    "midi": 79,
                    "time": 97.36858499999929,
                    "velocity": 0.4645669291338583,
                    "duration": 0.1375262499999934
                },
                {
                    "name": "G6",
                    "midi": 91,
                    "time": 97.50611124999928,
                    "velocity": 0.5118110236220472,
                    "duration": 0.1375262499999934
                },
                {
                    "name": "F6",
                    "midi": 89,
                    "time": 97.64363749999927,
                    "velocity": 0.5511811023622047,
                    "duration": 0.1375262499999934
                },
                {
                    "name": "D#6",
                    "midi": 87,
                    "time": 97.64363749999927,
                    "velocity": 0.4645669291338583,
                    "duration": 0.1375262499999934
                },
                {
                    "name": "G#5",
                    "midi": 80,
                    "time": 97.64363749999927,
                    "velocity": 0.4645669291338583,
                    "duration": 0.1375262499999934
                },
                {
                    "name": "G#6",
                    "midi": 92,
                    "time": 97.78116374999927,
                    "velocity": 0.49606299212598426,
                    "duration": 0.1375262499999934
                },
                {
                    "name": "G6",
                    "midi": 91,
                    "time": 97.91868999999926,
                    "velocity": 0.5511811023622047,
                    "duration": 0.1375262499999934
                },
                {
                    "name": "D#6",
                    "midi": 87,
                    "time": 97.91868999999926,
                    "velocity": 0.4645669291338583,
                    "duration": 0.1375262499999934
                },
                {
                    "name": "A#5",
                    "midi": 82,
                    "time": 97.91868999999926,
                    "velocity": 0.4645669291338583,
                    "duration": 0.1375262499999934
                },
                {
                    "name": "A#6",
                    "midi": 94,
                    "time": 98.05621624999925,
                    "velocity": 0.5039370078740157,
                    "duration": 0.1375262499999934
                },
                {
                    "name": "D#6",
                    "midi": 87,
                    "time": 98.19374249999925,
                    "velocity": 0.5511811023622047,
                    "duration": 0.1375262499999934
                },
                {
                    "name": "A#5",
                    "midi": 82,
                    "time": 98.19374249999925,
                    "velocity": 0.4645669291338583,
                    "duration": 0.1375262499999934
                },
                {
                    "name": "G5",
                    "midi": 79,
                    "time": 98.19374249999925,
                    "velocity": 0.4645669291338583,
                    "duration": 0.1375262499999934
                },
                {
                    "name": "G6",
                    "midi": 91,
                    "time": 98.33126874999924,
                    "velocity": 0.49606299212598426,
                    "duration": 0.1375262499999934
                },
                {
                    "name": "D#6",
                    "midi": 87,
                    "time": 98.46879499999923,
                    "velocity": 0.5511811023622047,
                    "duration": 0.1375262499999934
                },
                {
                    "name": "A#5",
                    "midi": 82,
                    "time": 98.46879499999923,
                    "velocity": 0.4645669291338583,
                    "duration": 0.1375262499999934
                },
                {
                    "name": "G5",
                    "midi": 79,
                    "time": 98.46879499999923,
                    "velocity": 0.4645669291338583,
                    "duration": 0.1375262499999934
                },
                {
                    "name": "G6",
                    "midi": 91,
                    "time": 98.60632124999923,
                    "velocity": 0.5118110236220472,
                    "duration": 0.1375262499999934
                },
                {
                    "name": "F6",
                    "midi": 89,
                    "time": 98.74384749999922,
                    "velocity": 0.5511811023622047,
                    "duration": 0.1375262499999934
                },
                {
                    "name": "D#6",
                    "midi": 87,
                    "time": 98.74384749999922,
                    "velocity": 0.4645669291338583,
                    "duration": 0.1375262499999934
                },
                {
                    "name": "G#5",
                    "midi": 80,
                    "time": 98.74384749999922,
                    "velocity": 0.4645669291338583,
                    "duration": 0.1375262499999934
                },
                {
                    "name": "G#6",
                    "midi": 92,
                    "time": 98.88137374999921,
                    "velocity": 0.49606299212598426,
                    "duration": 0.1375262499999934
                },
                {
                    "name": "G6",
                    "midi": 91,
                    "time": 99.0188999999992,
                    "velocity": 0.5511811023622047,
                    "duration": 0.1375262499999934
                },
                {
                    "name": "D#6",
                    "midi": 87,
                    "time": 99.0188999999992,
                    "velocity": 0.4645669291338583,
                    "duration": 0.1375262499999934
                },
                {
                    "name": "A#5",
                    "midi": 82,
                    "time": 99.0188999999992,
                    "velocity": 0.4645669291338583,
                    "duration": 0.1375262499999934
                },
                {
                    "name": "A#6",
                    "midi": 94,
                    "time": 99.1564262499992,
                    "velocity": 0.5039370078740157,
                    "duration": 0.1375262499999934
                },
                {
                    "name": "D#6",
                    "midi": 87,
                    "time": 99.2939524999992,
                    "velocity": 0.5511811023622047,
                    "duration": 0.1375262499999934
                },
                {
                    "name": "A#5",
                    "midi": 82,
                    "time": 99.2939524999992,
                    "velocity": 0.4645669291338583,
                    "duration": 0.1375262499999934
                },
                {
                    "name": "G5",
                    "midi": 79,
                    "time": 99.2939524999992,
                    "velocity": 0.4645669291338583,
                    "duration": 0.1375262499999934
                },
                {
                    "name": "G6",
                    "midi": 91,
                    "time": 99.43147874999919,
                    "velocity": 0.49606299212598426,
                    "duration": 0.1375262499999934
                },
                {
                    "name": "D#6",
                    "midi": 87,
                    "time": 99.56900499999918,
                    "velocity": 0.5511811023622047,
                    "duration": 0.1375262499999934
                },
                {
                    "name": "A#5",
                    "midi": 82,
                    "time": 99.56900499999918,
                    "velocity": 0.4645669291338583,
                    "duration": 0.1375262499999934
                },
                {
                    "name": "G5",
                    "midi": 79,
                    "time": 99.56900499999918,
                    "velocity": 0.4645669291338583,
                    "duration": 0.1375262499999934
                },
                {
                    "name": "G6",
                    "midi": 91,
                    "time": 99.70653124999917,
                    "velocity": 0.5118110236220472,
                    "duration": 0.1375262499999934
                },
                {
                    "name": "F6",
                    "midi": 89,
                    "time": 99.84405749999917,
                    "velocity": 0.5511811023622047,
                    "duration": 0.1375262499999934
                },
                {
                    "name": "D#6",
                    "midi": 87,
                    "time": 99.84405749999917,
                    "velocity": 0.4645669291338583,
                    "duration": 0.1375262499999934
                },
                {
                    "name": "G#5",
                    "midi": 80,
                    "time": 99.84405749999917,
                    "velocity": 0.4645669291338583,
                    "duration": 0.1375262499999934
                },
                {
                    "name": "G#6",
                    "midi": 92,
                    "time": 99.98158374999916,
                    "velocity": 0.49606299212598426,
                    "duration": 0.1375262499999934
                },
                {
                    "name": "G6",
                    "midi": 91,
                    "time": 100.11910999999915,
                    "velocity": 0.5511811023622047,
                    "duration": 0.1375262499999934
                },
                {
                    "name": "D#6",
                    "midi": 87,
                    "time": 100.11910999999915,
                    "velocity": 0.4645669291338583,
                    "duration": 0.1375262499999934
                },
                {
                    "name": "A#5",
                    "midi": 82,
                    "time": 100.11910999999915,
                    "velocity": 0.4645669291338583,
                    "duration": 0.1375262499999934
                },
                {
                    "name": "A#6",
                    "midi": 94,
                    "time": 100.25663624999915,
                    "velocity": 0.5039370078740157,
                    "duration": 0.1375262499999934
                },
                {
                    "name": "D#6",
                    "midi": 87,
                    "time": 100.39416249999914,
                    "velocity": 0.5511811023622047,
                    "duration": 0.1375262499999934
                },
                {
                    "name": "A#5",
                    "midi": 82,
                    "time": 100.39416249999914,
                    "velocity": 0.4645669291338583,
                    "duration": 0.1375262499999934
                },
                {
                    "name": "G5",
                    "midi": 79,
                    "time": 100.39416249999914,
                    "velocity": 0.4645669291338583,
                    "duration": 0.1375262499999934
                },
                {
                    "name": "G6",
                    "midi": 91,
                    "time": 100.53168874999913,
                    "velocity": 0.49606299212598426,
                    "duration": 0.1375262499999934
                },
                {
                    "name": "D#6",
                    "midi": 87,
                    "time": 100.66921499999913,
                    "velocity": 0.5511811023622047,
                    "duration": 0.1375262499999934
                },
                {
                    "name": "A#5",
                    "midi": 82,
                    "time": 100.66921499999913,
                    "velocity": 0.4645669291338583,
                    "duration": 0.1375262499999934
                },
                {
                    "name": "G5",
                    "midi": 79,
                    "time": 100.66921499999913,
                    "velocity": 0.4645669291338583,
                    "duration": 0.1375262499999934
                },
                {
                    "name": "G6",
                    "midi": 91,
                    "time": 100.80674124999912,
                    "velocity": 0.5118110236220472,
                    "duration": 0.1375262499999934
                },
                {
                    "name": "F6",
                    "midi": 89,
                    "time": 100.94426749999911,
                    "velocity": 0.5511811023622047,
                    "duration": 0.1375262499999934
                },
                {
                    "name": "D#6",
                    "midi": 87,
                    "time": 100.94426749999911,
                    "velocity": 0.4645669291338583,
                    "duration": 0.1375262499999934
                },
                {
                    "name": "G#5",
                    "midi": 80,
                    "time": 100.94426749999911,
                    "velocity": 0.4645669291338583,
                    "duration": 0.1375262499999934
                },
                {
                    "name": "G#6",
                    "midi": 92,
                    "time": 101.08179374999911,
                    "velocity": 0.49606299212598426,
                    "duration": 0.1375262499999934
                },
                {
                    "name": "G6",
                    "midi": 91,
                    "time": 101.2193199999991,
                    "velocity": 0.5511811023622047,
                    "duration": 0.1375262499999934
                },
                {
                    "name": "D#6",
                    "midi": 87,
                    "time": 101.2193199999991,
                    "velocity": 0.4645669291338583,
                    "duration": 0.1375262499999934
                },
                {
                    "name": "A#5",
                    "midi": 82,
                    "time": 101.2193199999991,
                    "velocity": 0.4645669291338583,
                    "duration": 0.1375262499999934
                },
                {
                    "name": "A#6",
                    "midi": 94,
                    "time": 101.3568462499991,
                    "velocity": 0.5039370078740157,
                    "duration": 0.1375262499999934
                },
                {
                    "name": "D#6",
                    "midi": 87,
                    "time": 101.49437249999909,
                    "velocity": 0.5511811023622047,
                    "duration": 0.1375262499999934
                },
                {
                    "name": "A#5",
                    "midi": 82,
                    "time": 101.49437249999909,
                    "velocity": 0.4645669291338583,
                    "duration": 0.1375262499999934
                },
                {
                    "name": "G5",
                    "midi": 79,
                    "time": 101.49437249999909,
                    "velocity": 0.4645669291338583,
                    "duration": 0.1375262499999934
                },
                {
                    "name": "G6",
                    "midi": 91,
                    "time": 101.63189874999908,
                    "velocity": 0.49606299212598426,
                    "duration": 0.1375262499999934
                },
                {
                    "name": "D#6",
                    "midi": 87,
                    "time": 101.76942499999907,
                    "velocity": 0.5511811023622047,
                    "duration": 0.1375262499999934
                },
                {
                    "name": "A#5",
                    "midi": 82,
                    "time": 101.76942499999907,
                    "velocity": 0.4645669291338583,
                    "duration": 0.1375262499999934
                },
                {
                    "name": "G5",
                    "midi": 79,
                    "time": 101.76942499999907,
                    "velocity": 0.4645669291338583,
                    "duration": 0.1375262499999934
                },
                {
                    "name": "G6",
                    "midi": 91,
                    "time": 101.90695124999907,
                    "velocity": 0.5118110236220472,
                    "duration": 0.1375262499999934
                },
                {
                    "name": "F6",
                    "midi": 89,
                    "time": 102.04447749999906,
                    "velocity": 0.5511811023622047,
                    "duration": 0.1375262499999934
                },
                {
                    "name": "D#6",
                    "midi": 87,
                    "time": 102.04447749999906,
                    "velocity": 0.4645669291338583,
                    "duration": 0.1375262499999934
                },
                {
                    "name": "G#5",
                    "midi": 80,
                    "time": 102.04447749999906,
                    "velocity": 0.4645669291338583,
                    "duration": 0.1375262499999934
                },
                {
                    "name": "G#6",
                    "midi": 92,
                    "time": 102.18200374999905,
                    "velocity": 0.49606299212598426,
                    "duration": 0.1375262499999934
                },
                {
                    "name": "G6",
                    "midi": 91,
                    "time": 102.31952999999905,
                    "velocity": 0.5511811023622047,
                    "duration": 0.1375262499999934
                },
                {
                    "name": "D#6",
                    "midi": 87,
                    "time": 102.31952999999905,
                    "velocity": 0.4645669291338583,
                    "duration": 0.1375262499999934
                },
                {
                    "name": "A#5",
                    "midi": 82,
                    "time": 102.31952999999905,
                    "velocity": 0.4645669291338583,
                    "duration": 0.1375262499999934
                },
                {
                    "name": "A#6",
                    "midi": 94,
                    "time": 102.45705624999904,
                    "velocity": 0.5039370078740157,
                    "duration": 0.1375262499999934
                },
                {
                    "name": "D#5",
                    "midi": 75,
                    "time": 102.59458249999904,
                    "velocity": 0.5511811023622047,
                    "duration": 0.1375262499999934
                },
                {
                    "name": "A#5",
                    "midi": 82,
                    "time": 102.59458249999904,
                    "velocity": 0.5511811023622047,
                    "duration": 0.1375262499999934
                },
                {
                    "name": "D#6",
                    "midi": 87,
                    "time": 102.73210874999903,
                    "velocity": 0.48031496062992124,
                    "duration": 0.1375262499999934
                },
                {
                    "name": "A#5",
                    "midi": 82,
                    "time": 102.86963499999902,
                    "velocity": 0.5511811023622047,
                    "duration": 0.1375262499999934
                },
                {
                    "name": "D#5",
                    "midi": 75,
                    "time": 102.86963499999902,
                    "velocity": 0.5511811023622047,
                    "duration": 0.1375262499999934
                },
                {
                    "name": "D#6",
                    "midi": 87,
                    "time": 103.00716124999902,
                    "velocity": 0.49606299212598426,
                    "duration": 0.1375262499999934
                },
                {
                    "name": "D5",
                    "midi": 74,
                    "time": 103.14468749999901,
                    "velocity": 0.5511811023622047,
                    "duration": 0.1375262499999934
                },
                {
                    "name": "D#5",
                    "midi": 75,
                    "time": 103.14468749999901,
                    "velocity": 0.5511811023622047,
                    "duration": 0.1375262499999934
                },
                {
                    "name": "A#5",
                    "midi": 82,
                    "time": 103.14468749999901,
                    "velocity": 0.5511811023622047,
                    "duration": 0.1375262499999934
                },
                {
                    "name": "D6",
                    "midi": 86,
                    "time": 103.282213749999,
                    "velocity": 0.47244094488188976,
                    "duration": 0.1375262499999934
                },
                {
                    "name": "A#5",
                    "midi": 82,
                    "time": 103.419739999999,
                    "velocity": 0.5118110236220472,
                    "duration": 0.1375262499999934
                },
                {
                    "name": "D#5",
                    "midi": 75,
                    "time": 103.419739999999,
                    "velocity": 0.5118110236220472,
                    "duration": 0.1375262499999934
                },
                {
                    "name": "D5",
                    "midi": 74,
                    "time": 103.419739999999,
                    "velocity": 0.5118110236220472,
                    "duration": 0.1375262499999934
                },
                {
                    "name": "D6",
                    "midi": 86,
                    "time": 103.55726624999899,
                    "velocity": 0.4645669291338583,
                    "duration": 0.1375262499999934
                },
                {
                    "name": "G#5",
                    "midi": 80,
                    "time": 103.69479249999898,
                    "velocity": 0.49606299212598426,
                    "duration": 0.1375262499999934
                },
                {
                    "name": "D#5",
                    "midi": 75,
                    "time": 103.69479249999898,
                    "velocity": 0.49606299212598426,
                    "duration": 0.1375262499999934
                },
                {
                    "name": "C5",
                    "midi": 72,
                    "time": 103.69479249999898,
                    "velocity": 0.49606299212598426,
                    "duration": 0.1375262499999934
                },
                {
                    "name": "C6",
                    "midi": 84,
                    "time": 103.83231874999898,
                    "velocity": 0.44881889763779526,
                    "duration": 0.1375262499999934
                },
                {
                    "name": "G#5",
                    "midi": 80,
                    "time": 103.96984499999897,
                    "velocity": 0.5118110236220472,
                    "duration": 0.1375262499999934
                },
                {
                    "name": "D#5",
                    "midi": 75,
                    "time": 103.96984499999897,
                    "velocity": 0.5118110236220472,
                    "duration": 0.1375262499999934
                },
                {
                    "name": "C5",
                    "midi": 72,
                    "time": 103.96984499999897,
                    "velocity": 0.5118110236220472,
                    "duration": 0.1375262499999934
                },
                {
                    "name": "C6",
                    "midi": 84,
                    "time": 104.10737124999896,
                    "velocity": 0.44881889763779526,
                    "duration": 0.1375262499999934
                },
                {
                    "name": "G5",
                    "midi": 79,
                    "time": 104.24489749999896,
                    "velocity": 0.5039370078740157,
                    "duration": 0.1375262499999934
                },
                {
                    "name": "D#5",
                    "midi": 75,
                    "time": 104.24489749999896,
                    "velocity": 0.5039370078740157,
                    "duration": 0.1375262499999934
                },
                {
                    "name": "A#4",
                    "midi": 70,
                    "time": 104.24489749999896,
                    "velocity": 0.5039370078740157,
                    "duration": 0.1375262499999934
                },
                {
                    "name": "A#5",
                    "midi": 82,
                    "time": 104.38242374999895,
                    "velocity": 0.4409448818897638,
                    "duration": 0.1375262499999934
                },
                {
                    "name": "G5",
                    "midi": 79,
                    "time": 104.51994999999894,
                    "velocity": 0.5118110236220472,
                    "duration": 0.1375262499999934
                },
                {
                    "name": "D#5",
                    "midi": 75,
                    "time": 104.51994999999894,
                    "velocity": 0.5118110236220472,
                    "duration": 0.1375262499999934
                },
                {
                    "name": "A#4",
                    "midi": 70,
                    "time": 104.51994999999894,
                    "velocity": 0.5118110236220472,
                    "duration": 0.1375262499999934
                },
                {
                    "name": "A#5",
                    "midi": 82,
                    "time": 104.65747624999894,
                    "velocity": 0.44881889763779526,
                    "duration": 0.1375262499999934
                },
                {
                    "name": "G#4",
                    "midi": 68,
                    "time": 104.79500249999893,
                    "velocity": 0.4881889763779528,
                    "duration": 0.1375262499999934
                },
                {
                    "name": "D#5",
                    "midi": 75,
                    "time": 104.79500249999893,
                    "velocity": 0.4881889763779528,
                    "duration": 0.1375262499999934
                },
                {
                    "name": "G#5",
                    "midi": 80,
                    "time": 104.93252874999892,
                    "velocity": 0.44881889763779526,
                    "duration": 0.1375262499999934
                },
                {
                    "name": "G#4",
                    "midi": 68,
                    "time": 105.07005499999892,
                    "velocity": 0.5196850393700787,
                    "duration": 0.1375262499999934
                },
                {
                    "name": "D#5",
                    "midi": 75,
                    "time": 105.07005499999892,
                    "velocity": 0.5196850393700787,
                    "duration": 0.1375262499999934
                },
                {
                    "name": "G#5",
                    "midi": 80,
                    "time": 105.20758124999891,
                    "velocity": 0.44881889763779526,
                    "duration": 0.1375262499999934
                },
                {
                    "name": "D#5",
                    "midi": 75,
                    "time": 105.3451074999989,
                    "velocity": 0.49606299212598426,
                    "duration": 0.1375262499999934
                },
                {
                    "name": "G4",
                    "midi": 67,
                    "time": 105.3451074999989,
                    "velocity": 0.49606299212598426,
                    "duration": 0.1375262499999934
                },
                {
                    "name": "G5",
                    "midi": 79,
                    "time": 105.4826337499989,
                    "velocity": 0.4251968503937008,
                    "duration": 0.1375262499999934
                },
                {
                    "name": "A#4",
                    "midi": 70,
                    "time": 105.62015999999889,
                    "velocity": 0.49606299212598426,
                    "duration": 0.1375262499999934
                },
                {
                    "name": "F4",
                    "midi": 65,
                    "time": 105.75768624999888,
                    "velocity": 0.4330708661417323,
                    "duration": 0.1375262499999934
                },
                {
                    "name": "C5",
                    "midi": 72,
                    "time": 105.89521249999888,
                    "velocity": 0.49606299212598426,
                    "duration": 0.1375262499999934
                },
                {
                    "name": "A#4",
                    "midi": 70,
                    "time": 105.89521249999888,
                    "velocity": 0.49606299212598426,
                    "duration": 0.1375262499999934
                },
                {
                    "name": "C4",
                    "midi": 60,
                    "time": 106.03273874999887,
                    "velocity": 0.4330708661417323,
                    "duration": 0.1375262499999934
                },
                {
                    "name": "C5",
                    "midi": 72,
                    "time": 106.17026499999886,
                    "velocity": 0.4645669291338583,
                    "duration": 0.1375262499999934
                },
                {
                    "name": "A#4",
                    "midi": 70,
                    "time": 106.17026499999886,
                    "velocity": 0.4645669291338583,
                    "duration": 0.1375262499999934
                },
                {
                    "name": "C4",
                    "midi": 60,
                    "time": 106.30779124999886,
                    "velocity": 0.3937007874015748,
                    "duration": 0.1375262499999934
                },
                {
                    "name": "D5",
                    "midi": 74,
                    "time": 106.44531749999885,
                    "velocity": 0.4566929133858268,
                    "duration": 0.1375262499999934
                },
                {
                    "name": "G#4",
                    "midi": 68,
                    "time": 106.44531749999885,
                    "velocity": 0.4566929133858268,
                    "duration": 0.1375262499999934
                },
                {
                    "name": "D4",
                    "midi": 62,
                    "time": 106.58284374999884,
                    "velocity": 0.41732283464566927,
                    "duration": 0.1375262499999934
                },
                {
                    "name": "D#5",
                    "midi": 75,
                    "time": 106.72036999999884,
                    "velocity": 0.44881889763779526,
                    "duration": 0.1375262499999934
                },
                {
                    "name": "G4",
                    "midi": 67,
                    "time": 106.72036999999884,
                    "velocity": 0.44881889763779526,
                    "duration": 0.1375262499999934
                },
                {
                    "name": "D#4",
                    "midi": 63,
                    "time": 106.85789624999883,
                    "velocity": 0.3937007874015748,
                    "duration": 0.1375262499999934
                },
                {
                    "name": "D#5",
                    "midi": 75,
                    "time": 106.99542249999882,
                    "velocity": 0.44881889763779526,
                    "duration": 0.1375262499999934
                },
                {
                    "name": "A#4",
                    "midi": 70,
                    "time": 106.99542249999882,
                    "velocity": 0.44881889763779526,
                    "duration": 0.1375262499999934
                },
                {
                    "name": "D#4",
                    "midi": 63,
                    "time": 107.13294874999882,
                    "velocity": 0.3937007874015748,
                    "duration": 0.1375262499999934
                },
                {
                    "name": "D#5",
                    "midi": 75,
                    "time": 107.27047499999881,
                    "velocity": 0.4330708661417323,
                    "duration": 0.1375262499999934
                },
                {
                    "name": "A#4",
                    "midi": 70,
                    "time": 107.27047499999881,
                    "velocity": 0.4330708661417323,
                    "duration": 0.1375262499999934
                },
                {
                    "name": "D#4",
                    "midi": 63,
                    "time": 107.4080012499988,
                    "velocity": 0.3779527559055118,
                    "duration": 0.1375262499999934
                },
                {
                    "name": "F5",
                    "midi": 77,
                    "time": 107.5455274999988,
                    "velocity": 0.4409448818897638,
                    "duration": 0.1375262499999934
                },
                {
                    "name": "A#4",
                    "midi": 70,
                    "time": 107.5455274999988,
                    "velocity": 0.4409448818897638,
                    "duration": 0.1375262499999934
                },
                {
                    "name": "F4",
                    "midi": 65,
                    "time": 107.68305374999879,
                    "velocity": 0.4015748031496063,
                    "duration": 0.1375262499999934
                },
                {
                    "name": "G5",
                    "midi": 79,
                    "time": 107.82057999999878,
                    "velocity": 0.44881889763779526,
                    "duration": 0.12606572916666892
                },
                {
                    "name": "G4",
                    "midi": 67,
                    "time": 107.82057999999878,
                    "velocity": 0.44881889763779526,
                    "duration": 0.12606572916666892
                },
                {
                    "name": "G4",
                    "midi": 67,
                    "time": 107.95810624999879,
                    "velocity": 0.3858267716535433,
                    "duration": 0.12606572916666892
                },
                {
                    "name": "G4",
                    "midi": 67,
                    "time": 108.0956324999988,
                    "velocity": 0.4409448818897638,
                    "duration": 0.1375262499999934
                },
                {
                    "name": "D#4",
                    "midi": 63,
                    "time": 108.0956324999988,
                    "velocity": 0.4409448818897638,
                    "duration": 0.1375262499999934
                },
                {
                    "name": "A#3",
                    "midi": 58,
                    "time": 108.2331587499988,
                    "velocity": 0.3779527559055118,
                    "duration": 0.1375262499999934
                },
                {
                    "name": "G4",
                    "midi": 67,
                    "time": 108.37068499999879,
                    "velocity": 0.4330708661417323,
                    "duration": 0.1375262499999934
                },
                {
                    "name": "D#4",
                    "midi": 63,
                    "time": 108.37068499999879,
                    "velocity": 0.4330708661417323,
                    "duration": 0.1375262499999934
                },
                {
                    "name": "A#3",
                    "midi": 58,
                    "time": 108.50821124999878,
                    "velocity": 0.3858267716535433,
                    "duration": 0.1375262499999934
                },
                {
                    "name": "F4",
                    "midi": 65,
                    "time": 108.64573749999877,
                    "velocity": 0.44881889763779526,
                    "duration": 0.1375262499999934
                },
                {
                    "name": "G#4",
                    "midi": 68,
                    "time": 108.64573749999877,
                    "velocity": 0.44881889763779526,
                    "duration": 0.1375262499999934
                },
                {
                    "name": "C4",
                    "midi": 60,
                    "time": 108.78326374999877,
                    "velocity": 0.3858267716535433,
                    "duration": 0.1375262499999934
                },
                {
                    "name": "A#4",
                    "midi": 70,
                    "time": 108.92078999999876,
                    "velocity": 0.4645669291338583,
                    "duration": 0.1375262499999934
                },
                {
                    "name": "G4",
                    "midi": 67,
                    "time": 108.92078999999876,
                    "velocity": 0.4645669291338583,
                    "duration": 0.1375262499999934
                },
                {
                    "name": "D4",
                    "midi": 62,
                    "time": 109.05831624999875,
                    "velocity": 0.3937007874015748,
                    "duration": 0.1375262499999934
                },
                {
                    "name": "D#4",
                    "midi": 63,
                    "time": 109.19584249999875,
                    "velocity": 0.4566929133858268,
                    "duration": 0.1375262499999934
                },
                {
                    "name": "C4",
                    "midi": 60,
                    "time": 109.19584249999875,
                    "velocity": 0.4566929133858268,
                    "duration": 0.1375262499999934
                },
                {
                    "name": "G3",
                    "midi": 55,
                    "time": 109.33336874999874,
                    "velocity": 0.4015748031496063,
                    "duration": 0.1375262499999934
                },
                {
                    "name": "D#4",
                    "midi": 63,
                    "time": 109.47089499999873,
                    "velocity": 0.44881889763779526,
                    "duration": 0.1375262499999934
                },
                {
                    "name": "C4",
                    "midi": 60,
                    "time": 109.47089499999873,
                    "velocity": 0.44881889763779526,
                    "duration": 0.1375262499999934
                },
                {
                    "name": "F3",
                    "midi": 53,
                    "time": 109.60842124999873,
                    "velocity": 0.3779527559055118,
                    "duration": 0.1375262499999934
                },
                {
                    "name": "D#4",
                    "midi": 63,
                    "time": 109.74594749999872,
                    "velocity": 0.4409448818897638,
                    "duration": 0.1375262499999934
                },
                {
                    "name": "F4",
                    "midi": 65,
                    "time": 109.74594749999872,
                    "velocity": 0.4409448818897638,
                    "duration": 0.1375262499999934
                },
                {
                    "name": "C4",
                    "midi": 60,
                    "time": 109.88347374999871,
                    "velocity": 0.3779527559055118,
                    "duration": 0.1375262499999934
                },
                {
                    "name": "G4",
                    "midi": 67,
                    "time": 110.02099999999871,
                    "velocity": 0.41732283464566927,
                    "duration": 0.1375262499999934
                },
                {
                    "name": "D#4",
                    "midi": 63,
                    "time": 110.02099999999871,
                    "velocity": 0.41732283464566927,
                    "duration": 0.1375262499999934
                },
                {
                    "name": "A#3",
                    "midi": 58,
                    "time": 110.1585262499987,
                    "velocity": 0.36220472440944884,
                    "duration": 0.1375262499999934
                },
                {
                    "name": "C4",
                    "midi": 60,
                    "time": 110.2960524999987,
                    "velocity": 0.4094488188976378,
                    "duration": 0.1375262499999934
                },
                {
                    "name": "A3",
                    "midi": 57,
                    "time": 110.43357874999869,
                    "velocity": 0.3543307086614173,
                    "duration": 0.1375262499999934
                },
                {
                    "name": "C4",
                    "midi": 60,
                    "time": 110.57110499999868,
                    "velocity": 0.3858267716535433,
                    "duration": 0.1375262499999934
                },
                {
                    "name": "G#3",
                    "midi": 56,
                    "time": 110.70863124999867,
                    "velocity": 0.33070866141732286,
                    "duration": 0.1375262499999934
                },
                {
                    "name": "D4",
                    "midi": 62,
                    "time": 110.84615749999867,
                    "velocity": 0.36220472440944884,
                    "duration": 0.1375262499999934
                },
                {
                    "name": "A#3",
                    "midi": 58,
                    "time": 110.98368374999866,
                    "velocity": 0.31496062992125984,
                    "duration": 0.1375262499999934
                },
                {
                    "name": "G3",
                    "midi": 55,
                    "time": 111.12120999999865,
                    "velocity": 0.3543307086614173,
                    "duration": 0.27505250000000103
                },
                {
                    "name": "D#4",
                    "midi": 63,
                    "time": 111.12120999999865,
                    "velocity": 0.4251968503937008,
                    "duration": 0.27505250000000103
                },
                {
                    "name": "D#3",
                    "midi": 51,
                    "time": 111.39626249999866,
                    "velocity": 0.2440944881889764,
                    "duration": 0.1375262499999934
                },
                {
                    "name": "G3",
                    "midi": 55,
                    "time": 111.39626249999866,
                    "velocity": 0.29133858267716534,
                    "duration": 0.1375262499999934
                },
                {
                    "name": "A#3",
                    "midi": 58,
                    "time": 111.53378874999865,
                    "velocity": 0.2440944881889764,
                    "duration": 0.1375262499999934
                },
                {
                    "name": "D#3",
                    "midi": 51,
                    "time": 111.67131499999864,
                    "velocity": 0.2440944881889764,
                    "duration": 0.1375262499999934
                },
                {
                    "name": "G3",
                    "midi": 55,
                    "time": 111.67131499999864,
                    "velocity": 0.29133858267716534,
                    "duration": 0.1375262499999934
                },
                {
                    "name": "A#3",
                    "midi": 58,
                    "time": 111.80884124999864,
                    "velocity": 0.2440944881889764,
                    "duration": 0.1375262499999934
                },
                {
                    "name": "G#3",
                    "midi": 56,
                    "time": 111.94636749999863,
                    "velocity": 0.3228346456692913,
                    "duration": 0.1375262499999934
                },
                {
                    "name": "F3",
                    "midi": 53,
                    "time": 111.94636749999863,
                    "velocity": 0.2677165354330709,
                    "duration": 0.1375262499999934
                },
                {
                    "name": "A#3",
                    "midi": 58,
                    "time": 112.08389374999862,
                    "velocity": 0.25196850393700787,
                    "duration": 0.1375262499999934
                },
                {
                    "name": "D#3",
                    "midi": 51,
                    "time": 112.22141999999862,
                    "velocity": 0.2440944881889764,
                    "duration": 0.1375262499999934
                },
                {
                    "name": "G3",
                    "midi": 55,
                    "time": 112.22141999999862,
                    "velocity": 0.29133858267716534,
                    "duration": 0.1375262499999934
                },
                {
                    "name": "A#3",
                    "midi": 58,
                    "time": 112.35894624999861,
                    "velocity": 0.25196850393700787,
                    "duration": 0.1375262499999934
                },
                {
                    "name": "D#3",
                    "midi": 51,
                    "time": 112.4964724999986,
                    "velocity": 0.2440944881889764,
                    "duration": 0.1375262499999934
                },
                {
                    "name": "G3",
                    "midi": 55,
                    "time": 112.4964724999986,
                    "velocity": 0.29133858267716534,
                    "duration": 0.1375262499999934
                },
                {
                    "name": "A#3",
                    "midi": 58,
                    "time": 112.6339987499986,
                    "velocity": 0.25196850393700787,
                    "duration": 0.1375262499999934
                },
                {
                    "name": "D#3",
                    "midi": 51,
                    "time": 112.77152499999859,
                    "velocity": 0.2440944881889764,
                    "duration": 0.1375262499999934
                },
                {
                    "name": "G3",
                    "midi": 55,
                    "time": 112.77152499999859,
                    "velocity": 0.29133858267716534,
                    "duration": 0.1375262499999934
                },
                {
                    "name": "A#3",
                    "midi": 58,
                    "time": 112.90905124999858,
                    "velocity": 0.23622047244094488,
                    "duration": 0.1375262499999934
                },
                {
                    "name": "G#3",
                    "midi": 56,
                    "time": 113.04657749999858,
                    "velocity": 0.31496062992125984,
                    "duration": 0.1375262499999934
                },
                {
                    "name": "F3",
                    "midi": 53,
                    "time": 113.04657749999858,
                    "velocity": 0.2677165354330709,
                    "duration": 0.1375262499999934
                },
                {
                    "name": "A#3",
                    "midi": 58,
                    "time": 113.18410374999857,
                    "velocity": 0.25984251968503935,
                    "duration": 0.1375262499999934
                },
                {
                    "name": "D#3",
                    "midi": 51,
                    "time": 113.32162999999856,
                    "velocity": 0.2440944881889764,
                    "duration": 0.1375262499999934
                },
                {
                    "name": "G3",
                    "midi": 55,
                    "time": 113.32162999999856,
                    "velocity": 0.29133858267716534,
                    "duration": 0.1375262499999934
                },
                {
                    "name": "A#3",
                    "midi": 58,
                    "time": 113.45915624999856,
                    "velocity": 0.23622047244094488,
                    "duration": 0.1375262499999934
                },
                {
                    "name": "D#3",
                    "midi": 51,
                    "time": 113.59668249999855,
                    "velocity": 0.2440944881889764,
                    "duration": 0.1375262499999934
                },
                {
                    "name": "G3",
                    "midi": 55,
                    "time": 113.59668249999855,
                    "velocity": 0.29133858267716534,
                    "duration": 0.1375262499999934
                },
                {
                    "name": "A#3",
                    "midi": 58,
                    "time": 113.73420874999854,
                    "velocity": 0.25196850393700787,
                    "duration": 0.1375262499999934
                },
                {
                    "name": "D#3",
                    "midi": 51,
                    "time": 113.87173499999854,
                    "velocity": 0.2440944881889764,
                    "duration": 0.1375262499999934
                },
                {
                    "name": "G3",
                    "midi": 55,
                    "time": 113.87173499999854,
                    "velocity": 0.29133858267716534,
                    "duration": 0.1375262499999934
                },
                {
                    "name": "A#3",
                    "midi": 58,
                    "time": 114.00926124999853,
                    "velocity": 0.25984251968503935,
                    "duration": 0.1375262499999934
                },
                {
                    "name": "G#3",
                    "midi": 56,
                    "time": 114.14678749999852,
                    "velocity": 0.3228346456692913,
                    "duration": 0.1375262499999934
                },
                {
                    "name": "D3",
                    "midi": 50,
                    "time": 114.14678749999852,
                    "velocity": 0.2677165354330709,
                    "duration": 0.1375262499999934
                },
                {
                    "name": "A#3",
                    "midi": 58,
                    "time": 114.28431374999852,
                    "velocity": 0.25196850393700787,
                    "duration": 0.1375262499999934
                },
                {
                    "name": "D#3",
                    "midi": 51,
                    "time": 114.42183999999851,
                    "velocity": 0.2440944881889764,
                    "duration": 0.1375262499999934
                },
                {
                    "name": "G3",
                    "midi": 55,
                    "time": 114.42183999999851,
                    "velocity": 0.29133858267716534,
                    "duration": 0.1375262499999934
                },
                {
                    "name": "A#3",
                    "midi": 58,
                    "time": 114.5593662499985,
                    "velocity": 0.23622047244094488,
                    "duration": 0.1375262499999934
                },
                {
                    "name": "D#3",
                    "midi": 51,
                    "time": 114.6968924999985,
                    "velocity": 0.2440944881889764,
                    "duration": 0.1375262499999934
                },
                {
                    "name": "G3",
                    "midi": 55,
                    "time": 114.6968924999985,
                    "velocity": 0.29133858267716534,
                    "duration": 0.1375262499999934
                },
                {
                    "name": "A#3",
                    "midi": 58,
                    "time": 114.83441874999849,
                    "velocity": 0.25196850393700787,
                    "duration": 0.1375262499999934
                },
                {
                    "name": "D#3",
                    "midi": 51,
                    "time": 114.97194499999848,
                    "velocity": 0.2440944881889764,
                    "duration": 0.1375262499999934
                },
                {
                    "name": "G3",
                    "midi": 55,
                    "time": 114.97194499999848,
                    "velocity": 0.29133858267716534,
                    "duration": 0.1375262499999934
                },
                {
                    "name": "A#3",
                    "midi": 58,
                    "time": 115.10947124999848,
                    "velocity": 0.25196850393700787,
                    "duration": 0.1375262499999934
                },
                {
                    "name": "G#3",
                    "midi": 56,
                    "time": 115.24699749999847,
                    "velocity": 0.33070866141732286,
                    "duration": 0.1375262499999934
                },
                {
                    "name": "F3",
                    "midi": 53,
                    "time": 115.24699749999847,
                    "velocity": 0.2755905511811024,
                    "duration": 0.1375262499999934
                },
                {
                    "name": "A#3",
                    "midi": 58,
                    "time": 115.38452374999846,
                    "velocity": 0.2755905511811024,
                    "duration": 0.1375262499999934
                },
                {
                    "name": "D#3",
                    "midi": 51,
                    "time": 115.52204999999846,
                    "velocity": 0.29133858267716534,
                    "duration": 0.27505250000000103
                },
                {
                    "name": "G3",
                    "midi": 55,
                    "time": 115.52204999999846,
                    "velocity": 0.29133858267716534,
                    "duration": 0.27505250000000103
                },
                {
                    "name": "G#5",
                    "midi": 80,
                    "time": 115.79710249999846,
                    "velocity": 0.25196850393700787,
                    "duration": 0.1375262499999934
                },
                {
                    "name": "F6",
                    "midi": 89,
                    "time": 115.79710249999846,
                    "velocity": 0.2992125984251969,
                    "duration": 0.1375262499999934
                },
                {
                    "name": "G6",
                    "midi": 91,
                    "time": 115.93462874999845,
                    "velocity": 0.2677165354330709,
                    "duration": 0.1375262499999934
                },
                {
                    "name": "G5",
                    "midi": 79,
                    "time": 116.07215499999845,
                    "velocity": 0.2677165354330709,
                    "duration": 0.1375262499999934
                },
                {
                    "name": "D#6",
                    "midi": 87,
                    "time": 116.07215499999845,
                    "velocity": 0.3228346456692913,
                    "duration": 0.1375262499999934
                },
                {
                    "name": "G6",
                    "midi": 91,
                    "time": 116.20968124999844,
                    "velocity": 0.33070866141732286,
                    "duration": 0.1375262499999934
                },
                {
                    "name": "G#5",
                    "midi": 80,
                    "time": 116.34720749999843,
                    "velocity": 0.31496062992125984,
                    "duration": 0.1375262499999934
                },
                {
                    "name": "F6",
                    "midi": 89,
                    "time": 116.34720749999843,
                    "velocity": 0.3779527559055118,
                    "duration": 0.1375262499999934
                },
                {
                    "name": "G6",
                    "midi": 91,
                    "time": 116.48473374999843,
                    "velocity": 0.3543307086614173,
                    "duration": 0.1375262499999934
                },
                {
                    "name": "G5",
                    "midi": 79,
                    "time": 116.62225999999842,
                    "velocity": 0.33858267716535434,
                    "duration": 0.1375262499999934
                },
                {
                    "name": "D#6",
                    "midi": 87,
                    "time": 116.62225999999842,
                    "velocity": 0.4015748031496063,
                    "duration": 0.1375262499999934
                },
                {
                    "name": "G6",
                    "midi": 91,
                    "time": 116.75978624999841,
                    "velocity": 0.36220472440944884,
                    "duration": 0.1375262499999934
                },
                {
                    "name": "G#5",
                    "midi": 80,
                    "time": 116.8973124999984,
                    "velocity": 0.3779527559055118,
                    "duration": 0.1375262499999934
                },
                {
                    "name": "F6",
                    "midi": 89,
                    "time": 116.8973124999984,
                    "velocity": 0.44881889763779526,
                    "duration": 0.1375262499999934
                },
                {
                    "name": "G6",
                    "midi": 91,
                    "time": 117.0348387499984,
                    "velocity": 0.4251968503937008,
                    "duration": 0.1375262499999934
                },
                {
                    "name": "G5",
                    "midi": 79,
                    "time": 117.1723649999984,
                    "velocity": 0.4251968503937008,
                    "duration": 0.1375262499999934
                },
                {
                    "name": "D#6",
                    "midi": 87,
                    "time": 117.1723649999984,
                    "velocity": 0.5039370078740157,
                    "duration": 0.1375262499999934
                },
                {
                    "name": "G6",
                    "midi": 91,
                    "time": 117.30989124999839,
                    "velocity": 0.4566929133858268,
                    "duration": 0.1375262499999934
                },
                {
                    "name": "F6",
                    "midi": 89,
                    "time": 117.44741749999838,
                    "velocity": 0.5354330708661418,
                    "duration": 0.1375262499999934
                },
                {
                    "name": "G#5",
                    "midi": 80,
                    "time": 117.44741749999838,
                    "velocity": 0.4566929133858268,
                    "duration": 0.1375262499999934
                },
                {
                    "name": "G6",
                    "midi": 91,
                    "time": 117.58494374999837,
                    "velocity": 0.48031496062992124,
                    "duration": 0.1375262499999934
                },
                {
                    "name": "D#6",
                    "midi": 87,
                    "time": 117.72246999999837,
                    "velocity": 0.5984251968503937,
                    "duration": 0.1375262499999934
                },
                {
                    "name": "G5",
                    "midi": 79,
                    "time": 117.72246999999837,
                    "velocity": 0.5039370078740157,
                    "duration": 0.1375262499999934
                },
                {
                    "name": "G6",
                    "midi": 91,
                    "time": 117.85999624999836,
                    "velocity": 0.5433070866141733,
                    "duration": 0.1375262499999934
                },
                {
                    "name": "G#5",
                    "midi": 80,
                    "time": 117.99752249999835,
                    "velocity": 0.5275590551181102,
                    "duration": 0.1375262499999934
                },
                {
                    "name": "F6",
                    "midi": 89,
                    "time": 117.99752249999835,
                    "velocity": 0.6220472440944882,
                    "duration": 0.1375262499999934
                },
                {
                    "name": "G6",
                    "midi": 91,
                    "time": 118.13504874999835,
                    "velocity": 0.5511811023622047,
                    "duration": 0.1375262499999934
                },
                {
                    "name": "G5",
                    "midi": 79,
                    "time": 118.27257499999834,
                    "velocity": 0.5196850393700787,
                    "duration": 0.27505250000000103
                },
                {
                    "name": "D#6",
                    "midi": 87,
                    "time": 118.27257499999834,
                    "velocity": 0.6141732283464567,
                    "duration": 0.27505250000000103
                },
                {
                    "name": "F5",
                    "midi": 77,
                    "time": 118.54762749999834,
                    "velocity": 0.6141732283464567,
                    "duration": 0.1375262499999934
                },
                {
                    "name": "G#4",
                    "midi": 68,
                    "time": 118.54762749999834,
                    "velocity": 0.5196850393700787,
                    "duration": 0.1375262499999934
                },
                {
                    "name": "G5",
                    "midi": 79,
                    "time": 118.68515374999834,
                    "velocity": 0.5433070866141733,
                    "duration": 0.1375262499999934
                },
                {
                    "name": "D#5",
                    "midi": 75,
                    "time": 118.82267999999833,
                    "velocity": 0.6141732283464567,
                    "duration": 0.1375262499999934
                },
                {
                    "name": "G4",
                    "midi": 67,
                    "time": 118.82267999999833,
                    "velocity": 0.5196850393700787,
                    "duration": 0.1375262499999934
                },
                {
                    "name": "G5",
                    "midi": 79,
                    "time": 118.96020624999832,
                    "velocity": 0.5433070866141733,
                    "duration": 0.1375262499999934
                },
                {
                    "name": "F5",
                    "midi": 77,
                    "time": 119.09773249999832,
                    "velocity": 0.5433070866141733,
                    "duration": 0.1375262499999934
                },
                {
                    "name": "G#4",
                    "midi": 68,
                    "time": 119.09773249999832,
                    "velocity": 0.4566929133858268,
                    "duration": 0.1375262499999934
                },
                {
                    "name": "G5",
                    "midi": 79,
                    "time": 119.23525874999831,
                    "velocity": 0.48031496062992124,
                    "duration": 0.1375262499999934
                },
                {
                    "name": "G4",
                    "midi": 67,
                    "time": 119.3727849999983,
                    "velocity": 0.5354330708661418,
                    "duration": 0.27505250000000103
                },
                {
                    "name": "D#5",
                    "midi": 75,
                    "time": 119.3727849999983,
                    "velocity": 0.6377952755905512,
                    "duration": 0.27505250000000103
                },
                {
                    "name": "F4",
                    "midi": 65,
                    "time": 119.6478374999983,
                    "velocity": 0.5748031496062992,
                    "duration": 0.1375262499999934
                },
                {
                    "name": "G#3",
                    "midi": 56,
                    "time": 119.6478374999983,
                    "velocity": 0.4881889763779528,
                    "duration": 0.1375262499999934
                },
                {
                    "name": "G4",
                    "midi": 67,
                    "time": 119.7853637499983,
                    "velocity": 0.5039370078740157,
                    "duration": 0.1375262499999934
                },
                {
                    "name": "G3",
                    "midi": 55,
                    "time": 119.92288999999829,
                    "velocity": 0.5826771653543307,
                    "duration": 0.5501050000000021
                },
                {
                    "name": "D#4",
                    "midi": 63,
                    "time": 119.92288999999829,
                    "velocity": 0.7007874015748031,
                    "duration": 0.5501050000000021
                },
                {
                    "name": "D#4",
                    "midi": 63,
                    "time": 120.47299499999829,
                    "velocity": 0.6141732283464567,
                    "duration": 0.5501050000000021
                },
                {
                    "name": "G4",
                    "midi": 67,
                    "time": 120.47299499999829,
                    "velocity": 0.6141732283464567,
                    "duration": 0.5501050000000021
                },
                {
                    "name": "C5",
                    "midi": 72,
                    "time": 120.47299499999829,
                    "velocity": 0.6141732283464567,
                    "duration": 0.5501050000000021
                },
                {
                    "name": "D#5",
                    "midi": 75,
                    "time": 120.47299499999829,
                    "velocity": 0.7244094488188977,
                    "duration": 0.5501050000000021
                },
                {
                    "name": "A#4",
                    "midi": 70,
                    "time": 121.0230999999983,
                    "velocity": 0.7244094488188977,
                    "duration": 0.41257874999999444
                },
                {
                    "name": "G4",
                    "midi": 67,
                    "time": 121.0230999999983,
                    "velocity": 0.6141732283464567,
                    "duration": 0.41257874999999444
                },
                {
                    "name": "D4",
                    "midi": 62,
                    "time": 121.0230999999983,
                    "velocity": 0.6141732283464567,
                    "duration": 0.41257874999999444
                },
                {
                    "name": "A#3",
                    "midi": 58,
                    "time": 121.0230999999983,
                    "velocity": 0.6141732283464567,
                    "duration": 0.41257874999999444
                },
                {
                    "name": "A#5",
                    "midi": 82,
                    "time": 121.57320499999828,
                    "velocity": 0.7322834645669292,
                    "duration": 0.5501050000000021
                },
                {
                    "name": "F5",
                    "midi": 77,
                    "time": 121.57320499999828,
                    "velocity": 0.6220472440944882,
                    "duration": 0.5501050000000021
                },
                {
                    "name": "D5",
                    "midi": 74,
                    "time": 121.57320499999828,
                    "velocity": 0.6220472440944882,
                    "duration": 0.5501050000000021
                },
                {
                    "name": "A#4",
                    "midi": 70,
                    "time": 121.57320499999828,
                    "velocity": 0.6220472440944882,
                    "duration": 0.5501050000000021
                },
                {
                    "name": "G#4",
                    "midi": 68,
                    "time": 121.57320499999828,
                    "velocity": 0.6220472440944882,
                    "duration": 0.5501050000000021
                },
                {
                    "name": "D#4",
                    "midi": 63,
                    "time": 122.12330999999828,
                    "velocity": 0.6299212598425197,
                    "duration": 0.24754724999999667
                },
                {
                    "name": "G4",
                    "midi": 67,
                    "time": 122.12330999999828,
                    "velocity": 0.6299212598425197,
                    "duration": 0.24754724999999667
                },
                {
                    "name": "A#4",
                    "midi": 70,
                    "time": 122.12330999999828,
                    "velocity": 0.6299212598425197,
                    "duration": 0.24754724999999667
                },
                {
                    "name": "D#5",
                    "midi": 75,
                    "time": 122.12330999999828,
                    "velocity": 0.7480314960629921,
                    "duration": 0.24754724999999667
                },
                {
                    "name": "D#5",
                    "midi": 75,
                    "time": 122.39836249999829,
                    "velocity": 0.6299212598425197,
                    "duration": 0.06876312500000381
                },
                {
                    "name": "A#4",
                    "midi": 70,
                    "time": 122.39836249999829,
                    "velocity": 0.5196850393700787,
                    "duration": 0.06876312500000381
                },
                {
                    "name": "G4",
                    "midi": 67,
                    "time": 122.39836249999829,
                    "velocity": 0.5196850393700787,
                    "duration": 0.06876312500000381
                },
                {
                    "name": "D#4",
                    "midi": 63,
                    "time": 122.39836249999829,
                    "velocity": 0.5196850393700787,
                    "duration": 0.06876312500000381
                },
                {
                    "name": "D#5",
                    "midi": 75,
                    "time": 122.53588874999829,
                    "velocity": 0.6299212598425197,
                    "duration": 0.06876312500000381
                },
                {
                    "name": "A#4",
                    "midi": 70,
                    "time": 122.53588874999829,
                    "velocity": 0.5196850393700787,
                    "duration": 0.06876312500000381
                },
                {
                    "name": "G4",
                    "midi": 67,
                    "time": 122.53588874999829,
                    "velocity": 0.5196850393700787,
                    "duration": 0.06876312500000381
                },
                {
                    "name": "D#4",
                    "midi": 63,
                    "time": 122.53588874999829,
                    "velocity": 0.5196850393700787,
                    "duration": 0.06876312500000381
                },
                {
                    "name": "D#5",
                    "midi": 75,
                    "time": 122.6734149999983,
                    "velocity": 0.6771653543307087,
                    "duration": 0.5501050000000021
                },
                {
                    "name": "A#4",
                    "midi": 70,
                    "time": 122.6734149999983,
                    "velocity": 0.5669291338582677,
                    "duration": 0.5501050000000021
                },
                {
                    "name": "G4",
                    "midi": 67,
                    "time": 122.6734149999983,
                    "velocity": 0.5669291338582677,
                    "duration": 0.5501050000000021
                },
                {
                    "name": "D#4",
                    "midi": 63,
                    "time": 122.6734149999983,
                    "velocity": 0.5669291338582677,
                    "duration": 0.5501050000000021
                }
            ],
            "controlChanges": {},
            "id": 1,
            "name": "Piano right",
            "instrumentNumber": 0,
            "instrument": "acoustic grand piano",
            "instrumentFamily": "piano",
            "channelNumber": 0,
            "isPercussion": false
        },
        {
            "startTime": 0,
            "duration": 123.22351999999914,
            "length": 636,
            "notes": [
                {
                    "name": "D#4",
                    "midi": 63,
                    "time": 0,
                    "velocity": 0.4015748031496063,
                    "duration": 1.10021
                },
                {
                    "name": "G4",
                    "midi": 67,
                    "time": 0,
                    "velocity": 0.47244094488188976,
                    "duration": 1.10021
                },
                {
                    "name": "D#4",
                    "midi": 63,
                    "time": 1.10021,
                    "velocity": 0.4015748031496063,
                    "duration": 0.8251575
                },
                {
                    "name": "G4",
                    "midi": 67,
                    "time": 1.10021,
                    "velocity": 0.47244094488188976,
                    "duration": 0.8251575
                },
                {
                    "name": "C4",
                    "midi": 60,
                    "time": 1.9253675,
                    "velocity": 0.4251968503937008,
                    "duration": 0.2750524999999999
                },
                {
                    "name": "D#4",
                    "midi": 63,
                    "time": 2.20042,
                    "velocity": 0.4015748031496063,
                    "duration": 0.8251575
                },
                {
                    "name": "G4",
                    "midi": 67,
                    "time": 2.20042,
                    "velocity": 0.47244094488188976,
                    "duration": 0.8251575
                },
                {
                    "name": "A#3",
                    "midi": 58,
                    "time": 3.0255775,
                    "velocity": 0.4251968503937008,
                    "duration": 0.27505250000000014
                },
                {
                    "name": "D#4",
                    "midi": 63,
                    "time": 3.30063,
                    "velocity": 0.4409448818897638,
                    "duration": 0.5501049999999998
                },
                {
                    "name": "G4",
                    "midi": 67,
                    "time": 3.30063,
                    "velocity": 0.5196850393700787,
                    "duration": 0.5501049999999998
                },
                {
                    "name": "G3",
                    "midi": 55,
                    "time": 3.850735,
                    "velocity": 0.44881889763779526,
                    "duration": 0.13752625000000007
                },
                {
                    "name": "A#3",
                    "midi": 58,
                    "time": 3.98826125,
                    "velocity": 0.4015748031496063,
                    "duration": 0.13752624999999963
                },
                {
                    "name": "D4",
                    "midi": 62,
                    "time": 4.1257874999999995,
                    "velocity": 0.48031496062992124,
                    "duration": 0.13752624999999963
                },
                {
                    "name": "G4",
                    "midi": 67,
                    "time": 4.400839999999999,
                    "velocity": 0.5196850393700787,
                    "duration": 0.27505250000000014
                },
                {
                    "name": "D#4",
                    "midi": 63,
                    "time": 4.400839999999999,
                    "velocity": 0.4330708661417323,
                    "duration": 0.27505250000000014
                },
                {
                    "name": "D#3",
                    "midi": 51,
                    "time": 4.675892499999999,
                    "velocity": 0.4330708661417323,
                    "duration": 0.13752624999999963
                },
                {
                    "name": "G3",
                    "midi": 55,
                    "time": 4.8134187499999985,
                    "velocity": 0.4409448818897638,
                    "duration": 0.13752624999999963
                },
                {
                    "name": "A#3",
                    "midi": 58,
                    "time": 4.950944999999998,
                    "velocity": 0.5196850393700787,
                    "duration": 0.13752624999999963
                },
                {
                    "name": "C4",
                    "midi": 60,
                    "time": 5.225997499999997,
                    "velocity": 0.48031496062992124,
                    "duration": 0.13752624999999963
                },
                {
                    "name": "D#4",
                    "midi": 63,
                    "time": 5.501049999999997,
                    "velocity": 0.4566929133858268,
                    "duration": 0.27505250000000014
                },
                {
                    "name": "G4",
                    "midi": 67,
                    "time": 5.501049999999997,
                    "velocity": 0.5433070866141733,
                    "duration": 0.27505250000000014
                },
                {
                    "name": "C3",
                    "midi": 48,
                    "time": 5.776102499999997,
                    "velocity": 0.5039370078740157,
                    "duration": 0.13752624999999963
                },
                {
                    "name": "D#3",
                    "midi": 51,
                    "time": 5.913628749999996,
                    "velocity": 0.5118110236220472,
                    "duration": 0.13752624999999963
                },
                {
                    "name": "G3",
                    "midi": 55,
                    "time": 6.051154999999996,
                    "velocity": 0.5669291338582677,
                    "duration": 0.13752624999999963
                },
                {
                    "name": "D#2",
                    "midi": 39,
                    "time": 6.326207499999995,
                    "velocity": 0.6062992125984252,
                    "duration": 0.13752624999999963
                },
                {
                    "name": "D#1",
                    "midi": 27,
                    "time": 6.326207499999995,
                    "velocity": 0.5118110236220472,
                    "duration": 0.13752624999999963
                },
                {
                    "name": "A#3",
                    "midi": 58,
                    "time": 6.601259999999995,
                    "velocity": 0.6535433070866141,
                    "duration": 0.8251574999999995
                },
                {
                    "name": "G3",
                    "midi": 55,
                    "time": 6.601259999999995,
                    "velocity": 0.5511811023622047,
                    "duration": 0.8251574999999995
                },
                {
                    "name": "D#3",
                    "midi": 51,
                    "time": 6.601259999999995,
                    "velocity": 0.5511811023622047,
                    "duration": 0.8251574999999995
                },
                {
                    "name": "A#2",
                    "midi": 46,
                    "time": 6.601259999999995,
                    "velocity": 0.5511811023622047,
                    "duration": 0.8251574999999995
                },
                {
                    "name": "A#1",
                    "midi": 34,
                    "time": 7.426417499999994,
                    "velocity": 0.23622047244094488,
                    "duration": 0.13752624999999963
                },
                {
                    "name": "D#2",
                    "midi": 39,
                    "time": 7.701469999999993,
                    "velocity": 0.3228346456692913,
                    "duration": 0.8251574999999995
                },
                {
                    "name": "A#2",
                    "midi": 46,
                    "time": 7.701469999999993,
                    "velocity": 0.3228346456692913,
                    "duration": 1.1002100000000006
                },
                {
                    "name": "A#1",
                    "midi": 34,
                    "time": 8.526627499999993,
                    "velocity": 0.23622047244094488,
                    "duration": 0.13752625000000052
                },
                {
                    "name": "D#2",
                    "midi": 39,
                    "time": 8.801679999999994,
                    "velocity": 0.3228346456692913,
                    "duration": 0.5501050000000003
                },
                {
                    "name": "A#2",
                    "midi": 46,
                    "time": 8.801679999999994,
                    "velocity": 0.3228346456692913,
                    "duration": 1.1002100000000024
                },
                {
                    "name": "A#1",
                    "midi": 34,
                    "time": 9.351784999999994,
                    "velocity": 0.23622047244094488,
                    "duration": 0.13752625000000052
                },
                {
                    "name": "D2",
                    "midi": 38,
                    "time": 9.626837499999995,
                    "velocity": 0.23622047244094488,
                    "duration": 0.13752625000000052
                },
                {
                    "name": "D#2",
                    "midi": 39,
                    "time": 9.901889999999996,
                    "velocity": 0.3228346456692913,
                    "duration": 0.8251574999999995
                },
                {
                    "name": "A#2",
                    "midi": 46,
                    "time": 9.901889999999996,
                    "velocity": 0.3228346456692913,
                    "duration": 1.1002100000000006
                },
                {
                    "name": "A#1",
                    "midi": 34,
                    "time": 10.727047499999996,
                    "velocity": 0.23622047244094488,
                    "duration": 0.13752625000000052
                },
                {
                    "name": "D#1",
                    "midi": 27,
                    "time": 11.002099999999997,
                    "velocity": 0.3228346456692913,
                    "duration": 2.200420000000001
                },
                {
                    "name": "D#2",
                    "midi": 39,
                    "time": 11.002099999999997,
                    "velocity": 0.3228346456692913,
                    "duration": 0.5466668437499997
                },
                {
                    "name": "A#2",
                    "midi": 46,
                    "time": 11.277152499999996,
                    "velocity": 0.4015748031496063,
                    "duration": 0.13752625000000052
                },
                {
                    "name": "D#3",
                    "midi": 51,
                    "time": 11.552204999999997,
                    "velocity": 0.5354330708661418,
                    "duration": 0.8251574999999995
                },
                {
                    "name": "D#2",
                    "midi": 39,
                    "time": 11.552204999999997,
                    "velocity": 0.4409448818897638,
                    "duration": 0.8251574999999995
                },
                {
                    "name": "D#3",
                    "midi": 51,
                    "time": 12.377362499999997,
                    "velocity": 0.41732283464566927,
                    "duration": 0.13752625000000052
                },
                {
                    "name": "G3",
                    "midi": 55,
                    "time": 12.514888749999997,
                    "velocity": 0.4094488188976378,
                    "duration": 0.13752625000000052
                },
                {
                    "name": "A#3",
                    "midi": 58,
                    "time": 12.652414999999998,
                    "velocity": 0.6220472440944882,
                    "duration": 0.5501050000000003
                },
                {
                    "name": "A#2",
                    "midi": 46,
                    "time": 12.652414999999998,
                    "velocity": 0.5354330708661418,
                    "duration": 0.5501050000000003
                },
                {
                    "name": "D#1",
                    "midi": 27,
                    "time": 13.202519999999998,
                    "velocity": 0.3700787401574803,
                    "duration": 1.1002100000000006
                },
                {
                    "name": "D#2",
                    "midi": 39,
                    "time": 13.202519999999998,
                    "velocity": 0.3700787401574803,
                    "duration": 1.1002100000000006
                },
                {
                    "name": "A#3",
                    "midi": 58,
                    "time": 13.477572499999997,
                    "velocity": 0.4645669291338583,
                    "duration": 0.13752625000000052
                },
                {
                    "name": "D#4",
                    "midi": 63,
                    "time": 13.752624999999998,
                    "velocity": 0.6141732283464567,
                    "duration": 0.8251574999999995
                },
                {
                    "name": "D#3",
                    "midi": 51,
                    "time": 13.752624999999998,
                    "velocity": 0.49606299212598426,
                    "duration": 0.8251574999999995
                },
                {
                    "name": "D#4",
                    "midi": 63,
                    "time": 14.577782499999998,
                    "velocity": 0.47244094488188976,
                    "duration": 0.13752625000000052
                },
                {
                    "name": "G4",
                    "midi": 67,
                    "time": 14.715308749999998,
                    "velocity": 0.47244094488188976,
                    "duration": 0.13752625000000052
                },
                {
                    "name": "A#4",
                    "midi": 70,
                    "time": 14.852834999999999,
                    "velocity": 0.7086614173228346,
                    "duration": 2.7505249999999997
                },
                {
                    "name": "A#3",
                    "midi": 58,
                    "time": 14.852834999999999,
                    "velocity": 0.6141732283464567,
                    "duration": 2.7505249999999997
                },
                {
                    "name": "G4",
                    "midi": 67,
                    "time": 17.8784125,
                    "velocity": 0.5039370078740157,
                    "duration": 0.13752625000000052
                },
                {
                    "name": "A#3",
                    "midi": 58,
                    "time": 17.8784125,
                    "velocity": 0.4251968503937008,
                    "duration": 0.13752625000000052
                },
                {
                    "name": "G4",
                    "midi": 67,
                    "time": 18.153465,
                    "velocity": 0.5039370078740157,
                    "duration": 0.13752625000000052
                },
                {
                    "name": "D#4",
                    "midi": 63,
                    "time": 18.153465,
                    "velocity": 0.4251968503937008,
                    "duration": 0.13752625000000052
                },
                {
                    "name": "G4",
                    "midi": 67,
                    "time": 18.4285175,
                    "velocity": 0.5039370078740157,
                    "duration": 0.13752625000000052
                },
                {
                    "name": "A#4",
                    "midi": 70,
                    "time": 18.703570000000003,
                    "velocity": 0.5511811023622047,
                    "duration": 0.27505250000000103
                },
                {
                    "name": "D#5",
                    "midi": 75,
                    "time": 19.253675000000005,
                    "velocity": 0.5511811023622047,
                    "duration": 0.27505250000000103
                },
                {
                    "name": "G5",
                    "midi": 79,
                    "time": 19.803780000000007,
                    "velocity": 0.5984251968503937,
                    "duration": 2.200420000000001
                },
                {
                    "name": "G4",
                    "midi": 67,
                    "time": 22.004200000000008,
                    "velocity": 0.4015748031496063,
                    "duration": 1.1002100000000006
                },
                {
                    "name": "A#4",
                    "midi": 70,
                    "time": 22.004200000000008,
                    "velocity": 0.47244094488188976,
                    "duration": 1.1002100000000006
                },
                {
                    "name": "G4",
                    "midi": 67,
                    "time": 23.10441000000001,
                    "velocity": 0.4015748031496063,
                    "duration": 0.8251574999999995
                },
                {
                    "name": "A#4",
                    "midi": 70,
                    "time": 23.10441000000001,
                    "velocity": 0.47244094488188976,
                    "duration": 0.8251574999999995
                },
                {
                    "name": "D#4",
                    "midi": 63,
                    "time": 23.929567500000008,
                    "velocity": 0.4251968503937008,
                    "duration": 0.27505250000000103
                },
                {
                    "name": "G4",
                    "midi": 67,
                    "time": 24.20462000000001,
                    "velocity": 0.4015748031496063,
                    "duration": 0.8251574999999995
                },
                {
                    "name": "A#4",
                    "midi": 70,
                    "time": 24.20462000000001,
                    "velocity": 0.47244094488188976,
                    "duration": 0.8251574999999995
                },
                {
                    "name": "D4",
                    "midi": 62,
                    "time": 25.02977750000001,
                    "velocity": 0.4251968503937008,
                    "duration": 0.27505250000000103
                },
                {
                    "name": "G4",
                    "midi": 67,
                    "time": 25.30483000000001,
                    "velocity": 0.4409448818897638,
                    "duration": 0.5501049999999985
                },
                {
                    "name": "A#4",
                    "midi": 70,
                    "time": 25.30483000000001,
                    "velocity": 0.5196850393700787,
                    "duration": 0.5501049999999985
                },
                {
                    "name": "A#3",
                    "midi": 58,
                    "time": 25.854935000000008,
                    "velocity": 0.44881889763779526,
                    "duration": 0.13752625000000052
                },
                {
                    "name": "D4",
                    "midi": 62,
                    "time": 25.99246125000001,
                    "velocity": 0.4015748031496063,
                    "duration": 0.13752625000000052
                },
                {
                    "name": "F4",
                    "midi": 65,
                    "time": 26.12998750000001,
                    "velocity": 0.48031496062992124,
                    "duration": 0.13752625000000052
                },
                {
                    "name": "A#4",
                    "midi": 70,
                    "time": 26.40504000000001,
                    "velocity": 0.5196850393700787,
                    "duration": 0.27505250000000103
                },
                {
                    "name": "G4",
                    "midi": 67,
                    "time": 26.40504000000001,
                    "velocity": 0.4330708661417323,
                    "duration": 0.27505250000000103
                },
                {
                    "name": "G3",
                    "midi": 55,
                    "time": 26.68009250000001,
                    "velocity": 0.4330708661417323,
                    "duration": 0.13752625000000052
                },
                {
                    "name": "A#3",
                    "midi": 58,
                    "time": 26.817618750000012,
                    "velocity": 0.4409448818897638,
                    "duration": 0.13752625000000052
                },
                {
                    "name": "D4",
                    "midi": 62,
                    "time": 26.955145000000012,
                    "velocity": 0.5196850393700787,
                    "duration": 0.13752625000000052
                },
                {
                    "name": "D#4",
                    "midi": 63,
                    "time": 27.230197500000013,
                    "velocity": 0.48031496062992124,
                    "duration": 0.13752625000000052
                },
                {
                    "name": "G4",
                    "midi": 67,
                    "time": 27.505250000000014,
                    "velocity": 0.4566929133858268,
                    "duration": 0.27505250000000103
                },
                {
                    "name": "A#4",
                    "midi": 70,
                    "time": 27.505250000000014,
                    "velocity": 0.5433070866141733,
                    "duration": 0.27505250000000103
                },
                {
                    "name": "D#3",
                    "midi": 51,
                    "time": 27.780302500000015,
                    "velocity": 0.5039370078740157,
                    "duration": 0.13752625000000052
                },
                {
                    "name": "G3",
                    "midi": 55,
                    "time": 27.917828750000016,
                    "velocity": 0.5118110236220472,
                    "duration": 0.13752625000000052
                },
                {
                    "name": "A#3",
                    "midi": 58,
                    "time": 28.055355000000016,
                    "velocity": 0.5669291338582677,
                    "duration": 0.13752625000000052
                },
                {
                    "name": "G2",
                    "midi": 43,
                    "time": 28.330407500000018,
                    "velocity": 0.6062992125984252,
                    "duration": 0.13752625000000052
                },
                {
                    "name": "G1",
                    "midi": 31,
                    "time": 28.330407500000018,
                    "velocity": 0.5118110236220472,
                    "duration": 0.13752625000000052
                },
                {
                    "name": "D4",
                    "midi": 62,
                    "time": 28.60546000000002,
                    "velocity": 0.6535433070866141,
                    "duration": 0.5501049999999985
                },
                {
                    "name": "B3",
                    "midi": 59,
                    "time": 28.60546000000002,
                    "velocity": 0.5511811023622047,
                    "duration": 0.5501049999999985
                },
                {
                    "name": "G3",
                    "midi": 55,
                    "time": 28.60546000000002,
                    "velocity": 0.5511811023622047,
                    "duration": 0.5501049999999985
                },
                {
                    "name": "D3",
                    "midi": 50,
                    "time": 28.60546000000002,
                    "velocity": 0.5511811023622047,
                    "duration": 0.5501049999999985
                },
                {
                    "name": "D3",
                    "midi": 50,
                    "time": 29.155565000000017,
                    "velocity": 0.49606299212598426,
                    "duration": 0.5501049999999985
                },
                {
                    "name": "D2",
                    "midi": 38,
                    "time": 29.155565000000017,
                    "velocity": 0.41732283464566927,
                    "duration": 0.5501049999999985
                },
                {
                    "name": "E3",
                    "midi": 52,
                    "time": 29.705670000000016,
                    "velocity": 0.5511811023622047,
                    "duration": 0.5501049999999985
                },
                {
                    "name": "E2",
                    "midi": 40,
                    "time": 29.705670000000016,
                    "velocity": 0.4645669291338583,
                    "duration": 0.5501049999999985
                },
                {
                    "name": "D3",
                    "midi": 50,
                    "time": 30.255775000000014,
                    "velocity": 0.49606299212598426,
                    "duration": 0.13752625000000052
                },
                {
                    "name": "D2",
                    "midi": 38,
                    "time": 30.255775000000014,
                    "velocity": 0.41732283464566927,
                    "duration": 0.13752625000000052
                },
                {
                    "name": "C3",
                    "midi": 48,
                    "time": 30.530827500000015,
                    "velocity": 0.4645669291338583,
                    "duration": 0.13752625000000052
                },
                {
                    "name": "C2",
                    "midi": 36,
                    "time": 30.530827500000015,
                    "velocity": 0.3937007874015748,
                    "duration": 0.13752625000000052
                },
                {
                    "name": "B2",
                    "midi": 47,
                    "time": 30.805880000000016,
                    "velocity": 0.49606299212598426,
                    "duration": 0.27505250000000103
                },
                {
                    "name": "B1",
                    "midi": 35,
                    "time": 30.805880000000016,
                    "velocity": 0.41732283464566927,
                    "duration": 0.27505250000000103
                },
                {
                    "name": "A2",
                    "midi": 45,
                    "time": 31.355985000000018,
                    "velocity": 0.4330708661417323,
                    "duration": 0.27505250000000103
                },
                {
                    "name": "A1",
                    "midi": 33,
                    "time": 31.355985000000018,
                    "velocity": 0.36220472440944884,
                    "duration": 0.27505250000000103
                },
                {
                    "name": "G2",
                    "midi": 43,
                    "time": 31.90609000000002,
                    "velocity": 0.4645669291338583,
                    "duration": 0.8251575000000031
                },
                {
                    "name": "G1",
                    "midi": 31,
                    "time": 31.90609000000002,
                    "velocity": 0.3937007874015748,
                    "duration": 0.8251575000000031
                },
                {
                    "name": "D2",
                    "midi": 38,
                    "time": 32.73124750000002,
                    "velocity": 0.23622047244094488,
                    "duration": 0.13752625000000052
                },
                {
                    "name": "G2",
                    "midi": 43,
                    "time": 33.006300000000024,
                    "velocity": 0.3228346456692913,
                    "duration": 0.5501050000000021
                },
                {
                    "name": "D3",
                    "midi": 50,
                    "time": 33.006300000000024,
                    "velocity": 0.3228346456692913,
                    "duration": 1.1002100000000041
                },
                {
                    "name": "D2",
                    "midi": 38,
                    "time": 33.55640500000003,
                    "velocity": 0.23622047244094488,
                    "duration": 0.13752625000000052
                },
                {
                    "name": "F#2",
                    "midi": 42,
                    "time": 33.83145750000003,
                    "velocity": 0.23622047244094488,
                    "duration": 0.13752625000000052
                },
                {
                    "name": "G2",
                    "midi": 43,
                    "time": 34.10651000000003,
                    "velocity": 0.3228346456692913,
                    "duration": 0.8251575000000031
                },
                {
                    "name": "D3",
                    "midi": 50,
                    "time": 34.10651000000003,
                    "velocity": 0.3228346456692913,
                    "duration": 1.1002100000000041
                },
                {
                    "name": "D2",
                    "midi": 38,
                    "time": 34.93166750000003,
                    "velocity": 0.23622047244094488,
                    "duration": 0.13752625000000052
                },
                {
                    "name": "G2",
                    "midi": 43,
                    "time": 35.20672000000003,
                    "velocity": 0.3228346456692913,
                    "duration": 0.5501050000000021
                },
                {
                    "name": "D3",
                    "midi": 50,
                    "time": 35.20672000000003,
                    "velocity": 0.3228346456692913,
                    "duration": 1.1002100000000041
                },
                {
                    "name": "B1",
                    "midi": 35,
                    "time": 35.756825000000035,
                    "velocity": 0.3700787401574803,
                    "duration": 0.13752625000000052
                },
                {
                    "name": "D2",
                    "midi": 38,
                    "time": 35.894351250000035,
                    "velocity": 0.2992125984251969,
                    "duration": 0.13752625000000052
                },
                {
                    "name": "F#2",
                    "midi": 42,
                    "time": 36.031877500000036,
                    "velocity": 0.3779527559055118,
                    "duration": 0.13752625000000052
                },
                {
                    "name": "G1",
                    "midi": 31,
                    "time": 36.30693000000004,
                    "velocity": 0.3228346456692913,
                    "duration": 2.2004200000000083
                },
                {
                    "name": "G2",
                    "midi": 43,
                    "time": 36.30693000000004,
                    "velocity": 0.3228346456692913,
                    "duration": 0.5466668437500033
                },
                {
                    "name": "D3",
                    "midi": 50,
                    "time": 36.58198250000004,
                    "velocity": 0.4015748031496063,
                    "duration": 0.13752625000000052
                },
                {
                    "name": "G3",
                    "midi": 55,
                    "time": 36.85703500000004,
                    "velocity": 0.5354330708661418,
                    "duration": 0.8251575000000031
                },
                {
                    "name": "G2",
                    "midi": 43,
                    "time": 36.85703500000004,
                    "velocity": 0.4409448818897638,
                    "duration": 0.8251575000000031
                },
                {
                    "name": "G3",
                    "midi": 55,
                    "time": 37.68219250000004,
                    "velocity": 0.41732283464566927,
                    "duration": 0.13752625000000052
                },
                {
                    "name": "B3",
                    "midi": 59,
                    "time": 37.81971875000004,
                    "velocity": 0.4094488188976378,
                    "duration": 0.13752625000000052
                },
                {
                    "name": "D4",
                    "midi": 62,
                    "time": 37.95724500000004,
                    "velocity": 0.6220472440944882,
                    "duration": 0.5501050000000021
                },
                {
                    "name": "D3",
                    "midi": 50,
                    "time": 37.95724500000004,
                    "velocity": 0.5354330708661418,
                    "duration": 0.5501050000000021
                },
                {
                    "name": "G1",
                    "midi": 31,
                    "time": 38.507350000000045,
                    "velocity": 0.3700787401574803,
                    "duration": 1.1002100000000041
                },
                {
                    "name": "G2",
                    "midi": 43,
                    "time": 38.507350000000045,
                    "velocity": 0.3700787401574803,
                    "duration": 1.1002100000000041
                },
                {
                    "name": "D3",
                    "midi": 50,
                    "time": 38.782402500000046,
                    "velocity": 0.4015748031496063,
                    "duration": 0.13752625000000052
                },
                {
                    "name": "D4",
                    "midi": 62,
                    "time": 38.782402500000046,
                    "velocity": 0.4645669291338583,
                    "duration": 0.13752625000000052
                },
                {
                    "name": "G4",
                    "midi": 67,
                    "time": 39.05745500000005,
                    "velocity": 0.6141732283464567,
                    "duration": 0.8251575000000031
                },
                {
                    "name": "G3",
                    "midi": 55,
                    "time": 39.05745500000005,
                    "velocity": 0.49606299212598426,
                    "duration": 0.8251575000000031
                },
                {
                    "name": "G4",
                    "midi": 67,
                    "time": 39.88261250000005,
                    "velocity": 0.47244094488188976,
                    "duration": 0.13752625000000052
                },
                {
                    "name": "B4",
                    "midi": 71,
                    "time": 40.02013875000005,
                    "velocity": 0.47244094488188976,
                    "duration": 0.13752625000000052
                },
                {
                    "name": "D5",
                    "midi": 74,
                    "time": 40.15766500000005,
                    "velocity": 0.7086614173228346,
                    "duration": 2.750524999999996
                },
                {
                    "name": "D4",
                    "midi": 62,
                    "time": 40.15766500000005,
                    "velocity": 0.6141732283464567,
                    "duration": 2.750524999999996
                },
                {
                    "name": "B4",
                    "midi": 71,
                    "time": 43.18324250000005,
                    "velocity": 0.5039370078740157,
                    "duration": 0.13752625000000052
                },
                {
                    "name": "D4",
                    "midi": 62,
                    "time": 43.18324250000005,
                    "velocity": 0.4251968503937008,
                    "duration": 0.13752625000000052
                },
                {
                    "name": "B4",
                    "midi": 71,
                    "time": 43.45829500000005,
                    "velocity": 0.5039370078740157,
                    "duration": 0.13752625000000052
                },
                {
                    "name": "G4",
                    "midi": 67,
                    "time": 43.45829500000005,
                    "velocity": 0.4251968503937008,
                    "duration": 0.13752625000000052
                },
                {
                    "name": "B4",
                    "midi": 71,
                    "time": 43.73334750000005,
                    "velocity": 0.5039370078740157,
                    "duration": 0.13752625000000052
                },
                {
                    "name": "D5",
                    "midi": 74,
                    "time": 44.00840000000005,
                    "velocity": 0.5511811023622047,
                    "duration": 0.27505250000000103
                },
                {
                    "name": "G5",
                    "midi": 79,
                    "time": 44.55850500000005,
                    "velocity": 0.5511811023622047,
                    "duration": 0.27505250000000103
                },
                {
                    "name": "B5",
                    "midi": 83,
                    "time": 45.108610000000056,
                    "velocity": 0.5984251968503937,
                    "duration": 1.650314999999999
                },
                {
                    "name": "B4",
                    "midi": 71,
                    "time": 47.85913500000005,
                    "velocity": 0.30708661417322836,
                    "duration": 0.13752625000000052
                },
                {
                    "name": "G4",
                    "midi": 67,
                    "time": 47.85913500000005,
                    "velocity": 0.25984251968503935,
                    "duration": 0.13752625000000052
                },
                {
                    "name": "C5",
                    "midi": 72,
                    "time": 48.409240000000054,
                    "velocity": 0.3700787401574803,
                    "duration": 1.1002100000000041
                },
                {
                    "name": "G#4",
                    "midi": 68,
                    "time": 48.409240000000054,
                    "velocity": 0.30708661417322836,
                    "duration": 1.1002100000000041
                },
                {
                    "name": "F4",
                    "midi": 65,
                    "time": 48.409240000000054,
                    "velocity": 0.30708661417322836,
                    "duration": 0.5501050000000021
                },
                {
                    "name": "D4",
                    "midi": 62,
                    "time": 48.959345000000056,
                    "velocity": 0.30708661417322836,
                    "duration": 0.13752625000000052
                },
                {
                    "name": "D#4",
                    "midi": 63,
                    "time": 49.096871250000056,
                    "velocity": 0.31496062992125984,
                    "duration": 0.13752625000000052
                },
                {
                    "name": "F4",
                    "midi": 65,
                    "time": 49.23439750000006,
                    "velocity": 0.3228346456692913,
                    "duration": 0.13752625000000052
                },
                {
                    "name": "F#4",
                    "midi": 66,
                    "time": 49.37192375000006,
                    "velocity": 0.33070866141732286,
                    "duration": 0.13752625000000052
                },
                {
                    "name": "G4",
                    "midi": 67,
                    "time": 49.50945000000006,
                    "velocity": 0.29133858267716534,
                    "duration": 0.13752625000000052
                },
                {
                    "name": "A#4",
                    "midi": 70,
                    "time": 49.50945000000006,
                    "velocity": 0.3464566929133858,
                    "duration": 0.13752625000000052
                },
                {
                    "name": "G4",
                    "midi": 67,
                    "time": 50.05955500000006,
                    "velocity": 0.3228346456692913,
                    "duration": 0.13752625000000052
                },
                {
                    "name": "D#4",
                    "midi": 63,
                    "time": 50.05955500000006,
                    "velocity": 0.2677165354330709,
                    "duration": 0.13752625000000052
                },
                {
                    "name": "A#3",
                    "midi": 58,
                    "time": 50.05955500000006,
                    "velocity": 0.2677165354330709,
                    "duration": 0.13752625000000052
                },
                {
                    "name": "C4",
                    "midi": 60,
                    "time": 50.60966000000006,
                    "velocity": 0.2677165354330709,
                    "duration": 0.27505250000000103
                },
                {
                    "name": "D#4",
                    "midi": 63,
                    "time": 50.60966000000006,
                    "velocity": 0.3228346456692913,
                    "duration": 0.27505250000000103
                },
                {
                    "name": "G#3",
                    "midi": 56,
                    "time": 51.159765000000064,
                    "velocity": 0.33070866141732286,
                    "duration": 0.13752625000000052
                },
                {
                    "name": "G3",
                    "midi": 55,
                    "time": 51.434817500000065,
                    "velocity": 0.31496062992125984,
                    "duration": 0.13752625000000052
                },
                {
                    "name": "A#3",
                    "midi": 58,
                    "time": 51.434817500000065,
                    "velocity": 0.3779527559055118,
                    "duration": 0.13752625000000052
                },
                {
                    "name": "F3",
                    "midi": 53,
                    "time": 51.709870000000066,
                    "velocity": 0.3543307086614173,
                    "duration": 1.1002100000000041
                },
                {
                    "name": "G#3",
                    "midi": 56,
                    "time": 51.709870000000066,
                    "velocity": 0.3543307086614173,
                    "duration": 1.1002100000000041
                },
                {
                    "name": "C4",
                    "midi": 60,
                    "time": 51.709870000000066,
                    "velocity": 0.4251968503937008,
                    "duration": 1.1002100000000041
                },
                {
                    "name": "D3",
                    "midi": 50,
                    "time": 52.25997500000007,
                    "velocity": 0.25984251968503935,
                    "duration": 0.13752625000000052
                },
                {
                    "name": "D#3",
                    "midi": 51,
                    "time": 52.39750125000007,
                    "velocity": 0.29133858267716534,
                    "duration": 0.13752625000000052
                },
                {
                    "name": "E3",
                    "midi": 52,
                    "time": 52.53502750000007,
                    "velocity": 0.30708661417322836,
                    "duration": 0.13752625000000052
                },
                {
                    "name": "F3",
                    "midi": 53,
                    "time": 52.67255375000007,
                    "velocity": 0.3464566929133858,
                    "duration": 0.13752625000000052
                },
                {
                    "name": "F#3",
                    "midi": 54,
                    "time": 52.81008000000007,
                    "velocity": 0.36220472440944884,
                    "duration": 0.5501050000000021
                },
                {
                    "name": "A#3",
                    "midi": 58,
                    "time": 53.36018500000007,
                    "velocity": 0.3228346456692913,
                    "duration": 1.1002100000000041
                },
                {
                    "name": "G3",
                    "midi": 55,
                    "time": 53.36018500000007,
                    "velocity": 0.2677165354330709,
                    "duration": 0.13752625000000052
                },
                {
                    "name": "D3",
                    "midi": 50,
                    "time": 53.910290000000074,
                    "velocity": 0.25984251968503935,
                    "duration": 0.13752625000000052
                },
                {
                    "name": "G3",
                    "midi": 55,
                    "time": 54.46039500000008,
                    "velocity": 0.2440944881889764,
                    "duration": 0.13752625000000052
                },
                {
                    "name": "D#3",
                    "midi": 51,
                    "time": 54.46039500000008,
                    "velocity": 0.2047244094488189,
                    "duration": 0.13752625000000052
                },
                {
                    "name": "G#3",
                    "midi": 56,
                    "time": 55.01050000000008,
                    "velocity": 0.3228346456692913,
                    "duration": 1.100209999999997
                },
                {
                    "name": "D#3",
                    "midi": 51,
                    "time": 55.01050000000008,
                    "velocity": 0.2677165354330709,
                    "duration": 1.100209999999997
                },
                {
                    "name": "G#2",
                    "midi": 44,
                    "time": 55.01050000000008,
                    "velocity": 0.2677165354330709,
                    "duration": 1.100209999999997
                },
                {
                    "name": "E3",
                    "midi": 52,
                    "time": 56.110710000000076,
                    "velocity": 0.25196850393700787,
                    "duration": 1.100209999999997
                },
                {
                    "name": "C3",
                    "midi": 48,
                    "time": 56.110710000000076,
                    "velocity": 0.2125984251968504,
                    "duration": 1.100209999999997
                },
                {
                    "name": "E2",
                    "midi": 40,
                    "time": 56.110710000000076,
                    "velocity": 0.2125984251968504,
                    "duration": 1.100209999999997
                },
                {
                    "name": "G#3",
                    "midi": 56,
                    "time": 57.21092000000007,
                    "velocity": 0.29133858267716534,
                    "duration": 0.8251575000000031
                },
                {
                    "name": "D#3",
                    "midi": 51,
                    "time": 57.21092000000007,
                    "velocity": 0.2440944881889764,
                    "duration": 0.8251575000000031
                },
                {
                    "name": "G#2",
                    "midi": 44,
                    "time": 57.21092000000007,
                    "velocity": 0.2440944881889764,
                    "duration": 0.8251575000000031
                },
                {
                    "name": "D#2",
                    "midi": 39,
                    "time": 58.036077500000076,
                    "velocity": 0.2677165354330709,
                    "duration": 0.13752625000000052
                },
                {
                    "name": "D#3",
                    "midi": 51,
                    "time": 58.036077500000076,
                    "velocity": 0.31496062992125984,
                    "duration": 0.13752625000000052
                },
                {
                    "name": "C2",
                    "midi": 36,
                    "time": 58.173603750000076,
                    "velocity": 0.3228346456692913,
                    "duration": 0.13752625000000052
                },
                {
                    "name": "C3",
                    "midi": 48,
                    "time": 58.173603750000076,
                    "velocity": 0.3858267716535433,
                    "duration": 0.13752625000000052
                },
                {
                    "name": "G#1",
                    "midi": 32,
                    "time": 58.31113000000008,
                    "velocity": 0.2677165354330709,
                    "duration": 0.13752625000000052
                },
                {
                    "name": "G#2",
                    "midi": 44,
                    "time": 58.31113000000008,
                    "velocity": 0.31496062992125984,
                    "duration": 0.13752625000000052
                },
                {
                    "name": "G#2",
                    "midi": 44,
                    "time": 58.58618250000008,
                    "velocity": 0.33070866141732286,
                    "duration": 0.13752625000000052
                },
                {
                    "name": "G#1",
                    "midi": 32,
                    "time": 58.58618250000008,
                    "velocity": 0.2755905511811024,
                    "duration": 0.13752625000000052
                },
                {
                    "name": "G#1",
                    "midi": 32,
                    "time": 58.86123500000008,
                    "velocity": 0.2677165354330709,
                    "duration": 0.13752625000000052
                },
                {
                    "name": "G#2",
                    "midi": 44,
                    "time": 58.86123500000008,
                    "velocity": 0.3228346456692913,
                    "duration": 0.13752625000000052
                },
                {
                    "name": "F2",
                    "midi": 41,
                    "time": 59.13628750000008,
                    "velocity": 0.3228346456692913,
                    "duration": 0.13752625000000052
                },
                {
                    "name": "G2",
                    "midi": 43,
                    "time": 59.27381375000008,
                    "velocity": 0.25984251968503935,
                    "duration": 0.13752625000000052
                },
                {
                    "name": "C2",
                    "midi": 36,
                    "time": 59.41134000000008,
                    "velocity": 0.2677165354330709,
                    "duration": 0.13752625000000052
                },
                {
                    "name": "G#2",
                    "midi": 44,
                    "time": 59.41134000000008,
                    "velocity": 0.3228346456692913,
                    "duration": 0.13752625000000052
                },
                {
                    "name": "A#2",
                    "midi": 46,
                    "time": 59.68639250000008,
                    "velocity": 0.2677165354330709,
                    "duration": 0.13752625000000052
                },
                {
                    "name": "D2",
                    "midi": 38,
                    "time": 59.68639250000008,
                    "velocity": 0.2204724409448819,
                    "duration": 0.13752625000000052
                },
                {
                    "name": "D#2",
                    "midi": 39,
                    "time": 59.96144500000008,
                    "velocity": 0.2677165354330709,
                    "duration": 0.13752625000000052
                },
                {
                    "name": "C3",
                    "midi": 48,
                    "time": 59.96144500000008,
                    "velocity": 0.3228346456692913,
                    "duration": 0.13752625000000052
                },
                {
                    "name": "D3",
                    "midi": 50,
                    "time": 60.236497500000084,
                    "velocity": 0.2677165354330709,
                    "duration": 0.13752625000000052
                },
                {
                    "name": "F2",
                    "midi": 41,
                    "time": 60.236497500000084,
                    "velocity": 0.2204724409448819,
                    "duration": 0.13752625000000052
                },
                {
                    "name": "G#2",
                    "midi": 44,
                    "time": 60.511550000000085,
                    "velocity": 0.2677165354330709,
                    "duration": 0.27505250000000103
                },
                {
                    "name": "D#3",
                    "midi": 51,
                    "time": 60.511550000000085,
                    "velocity": 0.3228346456692913,
                    "duration": 0.27505250000000103
                },
                {
                    "name": "F3",
                    "midi": 53,
                    "time": 60.786602500000086,
                    "velocity": 0.2677165354330709,
                    "duration": 0.13752625000000052
                },
                {
                    "name": "C3",
                    "midi": 48,
                    "time": 60.786602500000086,
                    "velocity": 0.2204724409448819,
                    "duration": 0.13752625000000052
                },
                {
                    "name": "G3",
                    "midi": 55,
                    "time": 60.92412875000009,
                    "velocity": 0.2283464566929134,
                    "duration": 0.13752625000000052
                },
                {
                    "name": "G#3",
                    "midi": 56,
                    "time": 61.06165500000009,
                    "velocity": 0.2992125984251969,
                    "duration": 0.13752625000000052
                },
                {
                    "name": "F3",
                    "midi": 53,
                    "time": 61.06165500000009,
                    "velocity": 0.25196850393700787,
                    "duration": 0.13752625000000052
                },
                {
                    "name": "F2",
                    "midi": 41,
                    "time": 61.33670750000009,
                    "velocity": 0.3543307086614173,
                    "duration": 0.13752625000000052
                },
                {
                    "name": "G2",
                    "midi": 43,
                    "time": 61.47423375000009,
                    "velocity": 0.28346456692913385,
                    "duration": 0.13752625000000052
                },
                {
                    "name": "C2",
                    "midi": 36,
                    "time": 61.61176000000009,
                    "velocity": 0.29133858267716534,
                    "duration": 0.13752625000000052
                },
                {
                    "name": "G#2",
                    "midi": 44,
                    "time": 61.61176000000009,
                    "velocity": 0.3543307086614173,
                    "duration": 0.13752625000000052
                },
                {
                    "name": "A#2",
                    "midi": 46,
                    "time": 61.88681250000009,
                    "velocity": 0.29133858267716534,
                    "duration": 0.13752625000000052
                },
                {
                    "name": "D2",
                    "midi": 38,
                    "time": 61.88681250000009,
                    "velocity": 0.23622047244094488,
                    "duration": 0.13752625000000052
                },
                {
                    "name": "D#2",
                    "midi": 39,
                    "time": 62.16186500000009,
                    "velocity": 0.29133858267716534,
                    "duration": 0.13752625000000052
                },
                {
                    "name": "C3",
                    "midi": 48,
                    "time": 62.16186500000009,
                    "velocity": 0.3543307086614173,
                    "duration": 0.13752625000000052
                },
                {
                    "name": "D3",
                    "midi": 50,
                    "time": 62.43691750000009,
                    "velocity": 0.29133858267716534,
                    "duration": 0.13752625000000052
                },
                {
                    "name": "F2",
                    "midi": 41,
                    "time": 62.43691750000009,
                    "velocity": 0.23622047244094488,
                    "duration": 0.13752625000000052
                },
                {
                    "name": "G#2",
                    "midi": 44,
                    "time": 62.71197000000009,
                    "velocity": 0.29133858267716534,
                    "duration": 0.27505250000000103
                },
                {
                    "name": "D#3",
                    "midi": 51,
                    "time": 62.71197000000009,
                    "velocity": 0.3543307086614173,
                    "duration": 0.27505250000000103
                },
                {
                    "name": "F3",
                    "midi": 53,
                    "time": 62.987022500000094,
                    "velocity": 0.29133858267716534,
                    "duration": 0.13752625000000052
                },
                {
                    "name": "C3",
                    "midi": 48,
                    "time": 62.987022500000094,
                    "velocity": 0.23622047244094488,
                    "duration": 0.13752625000000052
                },
                {
                    "name": "G3",
                    "midi": 55,
                    "time": 63.124548750000095,
                    "velocity": 0.2440944881889764,
                    "duration": 0.13752625000000052
                },
                {
                    "name": "G#3",
                    "midi": 56,
                    "time": 63.262075000000095,
                    "velocity": 0.3228346456692913,
                    "duration": 0.13752625000000052
                },
                {
                    "name": "F3",
                    "midi": 53,
                    "time": 63.262075000000095,
                    "velocity": 0.2755905511811024,
                    "duration": 0.13752625000000052
                },
                {
                    "name": "D4",
                    "midi": 62,
                    "time": 63.537127500000096,
                    "velocity": 0.4251968503937008,
                    "duration": 0.13752625000000052
                },
                {
                    "name": "F3",
                    "midi": 53,
                    "time": 63.537127500000096,
                    "velocity": 0.4251968503937008,
                    "duration": 0.13752625000000052
                },
                {
                    "name": "G#3",
                    "midi": 56,
                    "time": 63.6746537500001,
                    "velocity": 0.3779527559055118,
                    "duration": 0.13752625000000052
                },
                {
                    "name": "D#4",
                    "midi": 63,
                    "time": 63.8121800000001,
                    "velocity": 0.44881889763779526,
                    "duration": 0.8251574999999747
                },
                {
                    "name": "C4",
                    "midi": 60,
                    "time": 63.8121800000001,
                    "velocity": 0.44881889763779526,
                    "duration": 0.8251574999999747
                },
                {
                    "name": "C5",
                    "midi": 72,
                    "time": 64.0872325000001,
                    "velocity": 0.44881889763779526,
                    "duration": 0.1375262499999934
                },
                {
                    "name": "G4",
                    "midi": 67,
                    "time": 64.22475875000009,
                    "velocity": 0.4015748031496063,
                    "duration": 0.1375262499999934
                },
                {
                    "name": "F4",
                    "midi": 65,
                    "time": 64.36228500000009,
                    "velocity": 0.44881889763779526,
                    "duration": 0.1375262499999934
                },
                {
                    "name": "D4",
                    "midi": 62,
                    "time": 64.63733750000007,
                    "velocity": 0.4094488188976378,
                    "duration": 0.2750524999999868
                },
                {
                    "name": "F3",
                    "midi": 53,
                    "time": 64.63733750000007,
                    "velocity": 0.4251968503937008,
                    "duration": 0.1375262499999934
                },
                {
                    "name": "G#3",
                    "midi": 56,
                    "time": 64.77486375000007,
                    "velocity": 0.3779527559055118,
                    "duration": 0.1375262499999934
                },
                {
                    "name": "D#4",
                    "midi": 63,
                    "time": 64.91239000000006,
                    "velocity": 0.44881889763779526,
                    "duration": 0.8251574999999747
                },
                {
                    "name": "C4",
                    "midi": 60,
                    "time": 64.91239000000006,
                    "velocity": 0.44881889763779526,
                    "duration": 0.8251574999999747
                },
                {
                    "name": "C5",
                    "midi": 72,
                    "time": 65.18744250000006,
                    "velocity": 0.44881889763779526,
                    "duration": 0.1375262499999934
                },
                {
                    "name": "G4",
                    "midi": 67,
                    "time": 65.32496875000005,
                    "velocity": 0.4015748031496063,
                    "duration": 0.1375262499999934
                },
                {
                    "name": "F4",
                    "midi": 65,
                    "time": 65.46249500000005,
                    "velocity": 0.44881889763779526,
                    "duration": 0.1375262499999934
                },
                {
                    "name": "D4",
                    "midi": 62,
                    "time": 65.73754750000003,
                    "velocity": 0.4251968503937008,
                    "duration": 0.2750524999999868
                },
                {
                    "name": "F3",
                    "midi": 53,
                    "time": 65.73754750000003,
                    "velocity": 0.4251968503937008,
                    "duration": 0.1375262499999934
                },
                {
                    "name": "G#3",
                    "midi": 56,
                    "time": 65.87507375000003,
                    "velocity": 0.3779527559055118,
                    "duration": 0.1375262499999934
                },
                {
                    "name": "D#4",
                    "midi": 63,
                    "time": 66.01260000000002,
                    "velocity": 0.44881889763779526,
                    "duration": 0.27505250000000103
                },
                {
                    "name": "C4",
                    "midi": 60,
                    "time": 66.01260000000002,
                    "velocity": 0.44881889763779526,
                    "duration": 0.27505250000000103
                },
                {
                    "name": "D#3",
                    "midi": 51,
                    "time": 66.28765250000002,
                    "velocity": 0.31496062992125984,
                    "duration": 0.1375262499999934
                },
                {
                    "name": "G#3",
                    "midi": 56,
                    "time": 66.42517875000001,
                    "velocity": 0.33070866141732286,
                    "duration": 0.1375262499999934
                },
                {
                    "name": "C4",
                    "midi": 60,
                    "time": 66.56270500000001,
                    "velocity": 0.33070866141732286,
                    "duration": 0.1375262499999934
                },
                {
                    "name": "D#4",
                    "midi": 63,
                    "time": 66.70023125,
                    "velocity": 0.33070866141732286,
                    "duration": 0.1375262499999934
                },
                {
                    "name": "F4",
                    "midi": 65,
                    "time": 66.8377575,
                    "velocity": 0.36220472440944884,
                    "duration": 0.1375262499999934
                },
                {
                    "name": "G4",
                    "midi": 67,
                    "time": 66.97528374999999,
                    "velocity": 0.3700787401574803,
                    "duration": 0.1375262499999934
                },
                {
                    "name": "G#4",
                    "midi": 68,
                    "time": 67.11280999999998,
                    "velocity": 0.4015748031496063,
                    "duration": 0.1375262499999934
                },
                {
                    "name": "A#4",
                    "midi": 70,
                    "time": 67.25033624999998,
                    "velocity": 0.4015748031496063,
                    "duration": 0.1375262499999934
                },
                {
                    "name": "C5",
                    "midi": 72,
                    "time": 67.38786249999997,
                    "velocity": 0.4251968503937008,
                    "duration": 0.1375262499999934
                },
                {
                    "name": "D#5",
                    "midi": 75,
                    "time": 67.52538874999996,
                    "velocity": 0.4330708661417323,
                    "duration": 0.1375262499999934
                },
                {
                    "name": "F5",
                    "midi": 77,
                    "time": 67.66291499999996,
                    "velocity": 0.4330708661417323,
                    "duration": 0.1375262499999934
                },
                {
                    "name": "G5",
                    "midi": 79,
                    "time": 67.80044124999995,
                    "velocity": 0.4330708661417323,
                    "duration": 0.1375262499999934
                },
                {
                    "name": "G#5",
                    "midi": 80,
                    "time": 67.93796749999994,
                    "velocity": 0.44881889763779526,
                    "duration": 0.1375262499999934
                },
                {
                    "name": "A#5",
                    "midi": 82,
                    "time": 68.07549374999994,
                    "velocity": 0.4881889763779528,
                    "duration": 0.1375262499999934
                },
                {
                    "name": "C6",
                    "midi": 84,
                    "time": 68.21301999999993,
                    "velocity": 0.5196850393700787,
                    "duration": 0.27505250000000103
                },
                {
                    "name": "C4",
                    "midi": 60,
                    "time": 68.76312499999993,
                    "velocity": 0.49606299212598426,
                    "duration": 0.41257874999999444
                },
                {
                    "name": "G3",
                    "midi": 55,
                    "time": 68.76312499999993,
                    "velocity": 0.4094488188976378,
                    "duration": 0.41257874999999444
                },
                {
                    "name": "D#3",
                    "midi": 51,
                    "time": 68.76312499999993,
                    "velocity": 0.4094488188976378,
                    "duration": 0.41257874999999444
                },
                {
                    "name": "C3",
                    "midi": 48,
                    "time": 68.76312499999993,
                    "velocity": 0.4094488188976378,
                    "duration": 0.41257874999999444
                },
                {
                    "name": "D#3",
                    "midi": 51,
                    "time": 69.31322999999992,
                    "velocity": 0.5826771653543307,
                    "duration": 0.5501050000000021
                },
                {
                    "name": "G2",
                    "midi": 43,
                    "time": 69.86333499999992,
                    "velocity": 0.4251968503937008,
                    "duration": 0.5501050000000021
                },
                {
                    "name": "B2",
                    "midi": 47,
                    "time": 69.86333499999992,
                    "velocity": 0.4251968503937008,
                    "duration": 0.5501050000000021
                },
                {
                    "name": "D#3",
                    "midi": 51,
                    "time": 69.86333499999992,
                    "velocity": 0.4251968503937008,
                    "duration": 0.5501050000000021
                },
                {
                    "name": "G3",
                    "midi": 55,
                    "time": 69.86333499999992,
                    "velocity": 0.5039370078740157,
                    "duration": 0.5501050000000021
                },
                {
                    "name": "D#3",
                    "midi": 51,
                    "time": 70.41343999999992,
                    "velocity": 0.6535433070866141,
                    "duration": 0.5501050000000021
                },
                {
                    "name": "D#2",
                    "midi": 39,
                    "time": 70.41343999999992,
                    "velocity": 0.5590551181102362,
                    "duration": 0.8251575000000031
                },
                {
                    "name": "C4",
                    "midi": 60,
                    "time": 70.96354499999993,
                    "velocity": 0.5984251968503937,
                    "duration": 0.5501049999999879
                },
                {
                    "name": "G3",
                    "midi": 55,
                    "time": 70.96354499999993,
                    "velocity": 0.5039370078740157,
                    "duration": 0.41257874999999444
                },
                {
                    "name": "D#3",
                    "midi": 51,
                    "time": 70.96354499999993,
                    "velocity": 0.5039370078740157,
                    "duration": 0.5501049999999879
                },
                {
                    "name": "C3",
                    "midi": 48,
                    "time": 70.96354499999993,
                    "velocity": 0.5039370078740157,
                    "duration": 0.5501049999999879
                },
                {
                    "name": "G2",
                    "midi": 43,
                    "time": 71.23859749999993,
                    "velocity": 0.3464566929133858,
                    "duration": 0.1375262499999934
                },
                {
                    "name": "G3",
                    "midi": 55,
                    "time": 71.23859749999993,
                    "velocity": 0.4094488188976378,
                    "duration": 0.2750524999999868
                },
                {
                    "name": "D#2",
                    "midi": 39,
                    "time": 71.37612374999992,
                    "velocity": 0.41732283464566927,
                    "duration": 0.1375262499999934
                },
                {
                    "name": "D#3",
                    "midi": 51,
                    "time": 71.37612374999992,
                    "velocity": 0.49606299212598426,
                    "duration": 0.1375262499999934
                },
                {
                    "name": "C2",
                    "midi": 36,
                    "time": 71.51364999999991,
                    "velocity": 0.3464566929133858,
                    "duration": 0.1375262499999934
                },
                {
                    "name": "C3",
                    "midi": 48,
                    "time": 71.51364999999991,
                    "velocity": 0.4094488188976378,
                    "duration": 0.1375262499999934
                },
                {
                    "name": "C3",
                    "midi": 48,
                    "time": 71.7887024999999,
                    "velocity": 0.4251968503937008,
                    "duration": 0.1375262499999934
                },
                {
                    "name": "C2",
                    "midi": 36,
                    "time": 71.7887024999999,
                    "velocity": 0.3543307086614173,
                    "duration": 0.1375262499999934
                },
                {
                    "name": "C2",
                    "midi": 36,
                    "time": 72.06375499999989,
                    "velocity": 0.3464566929133858,
                    "duration": 0.1375262499999934
                },
                {
                    "name": "C3",
                    "midi": 48,
                    "time": 72.06375499999989,
                    "velocity": 0.41732283464566927,
                    "duration": 0.1375262499999934
                },
                {
                    "name": "A2",
                    "midi": 45,
                    "time": 72.33880749999987,
                    "velocity": 0.3228346456692913,
                    "duration": 0.1375262499999934
                },
                {
                    "name": "B2",
                    "midi": 47,
                    "time": 72.47633374999987,
                    "velocity": 0.25984251968503935,
                    "duration": 0.1375262499999934
                },
                {
                    "name": "D#2",
                    "midi": 39,
                    "time": 72.61385999999986,
                    "velocity": 0.2677165354330709,
                    "duration": 0.1375262499999934
                },
                {
                    "name": "C3",
                    "midi": 48,
                    "time": 72.61385999999986,
                    "velocity": 0.3228346456692913,
                    "duration": 0.1375262499999934
                },
                {
                    "name": "D3",
                    "midi": 50,
                    "time": 72.88891249999985,
                    "velocity": 0.2677165354330709,
                    "duration": 0.1375262499999934
                },
                {
                    "name": "F2",
                    "midi": 41,
                    "time": 72.88891249999985,
                    "velocity": 0.2204724409448819,
                    "duration": 0.1375262499999934
                },
                {
                    "name": "G2",
                    "midi": 43,
                    "time": 73.16396499999983,
                    "velocity": 0.2677165354330709,
                    "duration": 0.1375262499999934
                },
                {
                    "name": "D#3",
                    "midi": 51,
                    "time": 73.16396499999983,
                    "velocity": 0.3228346456692913,
                    "duration": 0.1375262499999934
                },
                {
                    "name": "F#3",
                    "midi": 54,
                    "time": 73.43901749999982,
                    "velocity": 0.2677165354330709,
                    "duration": 0.1375262499999934
                },
                {
                    "name": "C3",
                    "midi": 48,
                    "time": 73.43901749999982,
                    "velocity": 0.2204724409448819,
                    "duration": 0.1375262499999934
                },
                {
                    "name": "C3",
                    "midi": 48,
                    "time": 73.71406999999981,
                    "velocity": 0.2677165354330709,
                    "duration": 0.27505250000000103
                },
                {
                    "name": "G3",
                    "midi": 55,
                    "time": 73.71406999999981,
                    "velocity": 0.3228346456692913,
                    "duration": 0.27505250000000103
                },
                {
                    "name": "B3",
                    "midi": 59,
                    "time": 73.98912249999981,
                    "velocity": 0.2677165354330709,
                    "duration": 0.1375262499999934
                },
                {
                    "name": "D#3",
                    "midi": 51,
                    "time": 73.98912249999981,
                    "velocity": 0.2204724409448819,
                    "duration": 0.1375262499999934
                },
                {
                    "name": "G3",
                    "midi": 55,
                    "time": 74.1266487499998,
                    "velocity": 0.2283464566929134,
                    "duration": 0.1375262499999934
                },
                {
                    "name": "B3",
                    "midi": 59,
                    "time": 74.2641749999998,
                    "velocity": 0.2992125984251969,
                    "duration": 0.1375262499999934
                },
                {
                    "name": "G#3",
                    "midi": 56,
                    "time": 74.2641749999998,
                    "velocity": 0.25196850393700787,
                    "duration": 0.1375262499999934
                },
                {
                    "name": "D#2",
                    "midi": 39,
                    "time": 74.53922749999978,
                    "velocity": 0.3543307086614173,
                    "duration": 0.2750524999999868
                },
                {
                    "name": "G#2",
                    "midi": 44,
                    "time": 74.53922749999978,
                    "velocity": 0.3858267716535433,
                    "duration": 0.1375262499999934
                },
                {
                    "name": "A#2",
                    "midi": 46,
                    "time": 74.67675374999978,
                    "velocity": 0.30708661417322836,
                    "duration": 0.1375262499999934
                },
                {
                    "name": "D#2",
                    "midi": 39,
                    "time": 74.81427999999977,
                    "velocity": 0.3228346456692913,
                    "duration": 0.1375262499999934
                },
                {
                    "name": "B2",
                    "midi": 47,
                    "time": 74.81427999999977,
                    "velocity": 0.3937007874015748,
                    "duration": 0.1375262499999934
                },
                {
                    "name": "C#3",
                    "midi": 49,
                    "time": 75.08933249999976,
                    "velocity": 0.33070866141732286,
                    "duration": 0.1375262499999934
                },
                {
                    "name": "F#2",
                    "midi": 42,
                    "time": 75.08933249999976,
                    "velocity": 0.2677165354330709,
                    "duration": 0.1375262499999934
                },
                {
                    "name": "F#2",
                    "midi": 42,
                    "time": 75.36438499999974,
                    "velocity": 0.33858267716535434,
                    "duration": 0.1375262499999934
                },
                {
                    "name": "D#3",
                    "midi": 51,
                    "time": 75.36438499999974,
                    "velocity": 0.41732283464566927,
                    "duration": 0.1375262499999934
                },
                {
                    "name": "F3",
                    "midi": 53,
                    "time": 75.63943749999973,
                    "velocity": 0.3464566929133858,
                    "duration": 0.1375262499999934
                },
                {
                    "name": "B2",
                    "midi": 47,
                    "time": 75.63943749999973,
                    "velocity": 0.28346456692913385,
                    "duration": 0.1375262499999934
                },
                {
                    "name": "B2",
                    "midi": 47,
                    "time": 75.91448999999972,
                    "velocity": 0.3543307086614173,
                    "duration": 0.27505250000000103
                },
                {
                    "name": "F#3",
                    "midi": 54,
                    "time": 75.91448999999972,
                    "velocity": 0.4330708661417323,
                    "duration": 0.27505250000000103
                },
                {
                    "name": "D#3",
                    "midi": 51,
                    "time": 76.18954249999972,
                    "velocity": 0.36220472440944884,
                    "duration": 0.1375262499999934
                },
                {
                    "name": "B3",
                    "midi": 59,
                    "time": 76.18954249999972,
                    "velocity": 0.29133858267716534,
                    "duration": 0.1375262499999934
                },
                {
                    "name": "G3",
                    "midi": 55,
                    "time": 76.32706874999971,
                    "velocity": 0.30708661417322836,
                    "duration": 0.1375262499999934
                },
                {
                    "name": "B3",
                    "midi": 59,
                    "time": 76.4645949999997,
                    "velocity": 0.4094488188976378,
                    "duration": 0.1375262499999934
                },
                {
                    "name": "G#3",
                    "midi": 56,
                    "time": 76.4645949999997,
                    "velocity": 0.3464566929133858,
                    "duration": 0.1375262499999934
                },
                {
                    "name": "F4",
                    "midi": 65,
                    "time": 76.73964749999969,
                    "velocity": 0.49606299212598426,
                    "duration": 0.1375262499999934
                },
                {
                    "name": "B3",
                    "midi": 59,
                    "time": 76.73964749999969,
                    "velocity": 0.41732283464566927,
                    "duration": 0.1375262499999934
                },
                {
                    "name": "C#4",
                    "midi": 61,
                    "time": 76.87717374999968,
                    "velocity": 0.44881889763779526,
                    "duration": 0.1375262499999934
                },
                {
                    "name": "B3",
                    "midi": 59,
                    "time": 77.01469999999968,
                    "velocity": 0.4409448818897638,
                    "duration": 0.8251574999999747
                },
                {
                    "name": "F#4",
                    "midi": 66,
                    "time": 77.01469999999968,
                    "velocity": 0.5275590551181102,
                    "duration": 0.8251574999999747
                },
                {
                    "name": "D#4",
                    "midi": 63,
                    "time": 77.01469999999968,
                    "velocity": 0.4409448818897638,
                    "duration": 0.8251574999999747
                },
                {
                    "name": "D#5",
                    "midi": 75,
                    "time": 77.28975249999968,
                    "velocity": 0.5275590551181102,
                    "duration": 0.1375262499999934
                },
                {
                    "name": "A#4",
                    "midi": 70,
                    "time": 77.42727874999967,
                    "velocity": 0.4645669291338583,
                    "duration": 0.1375262499999934
                },
                {
                    "name": "D#5",
                    "midi": 75,
                    "time": 77.56480499999967,
                    "velocity": 0.5275590551181102,
                    "duration": 0.1375262499999934
                },
                {
                    "name": "G#4",
                    "midi": 68,
                    "time": 77.56480499999967,
                    "velocity": 0.5275590551181102,
                    "duration": 0.1375262499999934
                },
                {
                    "name": "B3",
                    "midi": 59,
                    "time": 77.83985749999965,
                    "velocity": 0.4409448818897638,
                    "duration": 0.1375262499999934
                },
                {
                    "name": "F4",
                    "midi": 65,
                    "time": 77.83985749999965,
                    "velocity": 0.5275590551181102,
                    "duration": 0.2750524999999868
                },
                {
                    "name": "C#4",
                    "midi": 61,
                    "time": 77.97738374999965,
                    "velocity": 0.47244094488188976,
                    "duration": 0.1375262499999934
                },
                {
                    "name": "B3",
                    "midi": 59,
                    "time": 78.11490999999964,
                    "velocity": 0.47244094488188976,
                    "duration": 0.8251574999999747
                },
                {
                    "name": "F#4",
                    "midi": 66,
                    "time": 78.11490999999964,
                    "velocity": 0.5590551181102362,
                    "duration": 0.8251574999999747
                },
                {
                    "name": "D#4",
                    "midi": 63,
                    "time": 78.11490999999964,
                    "velocity": 0.47244094488188976,
                    "duration": 0.8251574999999747
                },
                {
                    "name": "D#5",
                    "midi": 75,
                    "time": 78.38996249999964,
                    "velocity": 0.5590551181102362,
                    "duration": 0.1375262499999934
                },
                {
                    "name": "A#4",
                    "midi": 70,
                    "time": 78.52748874999963,
                    "velocity": 0.49606299212598426,
                    "duration": 0.1375262499999934
                },
                {
                    "name": "D#5",
                    "midi": 75,
                    "time": 78.66501499999963,
                    "velocity": 0.5590551181102362,
                    "duration": 0.1375262499999934
                },
                {
                    "name": "G#4",
                    "midi": 68,
                    "time": 78.66501499999963,
                    "velocity": 0.5590551181102362,
                    "duration": 0.1375262499999934
                },
                {
                    "name": "B3",
                    "midi": 59,
                    "time": 78.94006749999961,
                    "velocity": 0.5275590551181102,
                    "duration": 0.1375262499999934
                },
                {
                    "name": "F4",
                    "midi": 65,
                    "time": 78.94006749999961,
                    "velocity": 0.5275590551181102,
                    "duration": 0.2750524999999868
                },
                {
                    "name": "C#4",
                    "midi": 61,
                    "time": 79.07759374999961,
                    "velocity": 0.47244094488188976,
                    "duration": 0.1375262499999934
                },
                {
                    "name": "B3",
                    "midi": 59,
                    "time": 79.2151199999996,
                    "velocity": 0.47244094488188976,
                    "duration": 0.5501050000000021
                },
                {
                    "name": "F#4",
                    "midi": 66,
                    "time": 79.2151199999996,
                    "velocity": 0.5590551181102362,
                    "duration": 0.5501050000000021
                },
                {
                    "name": "D#4",
                    "midi": 63,
                    "time": 79.2151199999996,
                    "velocity": 0.47244094488188976,
                    "duration": 0.5501050000000021
                },
                {
                    "name": "G#2",
                    "midi": 44,
                    "time": 80.5903824999996,
                    "velocity": 0.48031496062992124,
                    "duration": 0.1375262499999934
                },
                {
                    "name": "B2",
                    "midi": 47,
                    "time": 80.7279087499996,
                    "velocity": 0.4015748031496063,
                    "duration": 0.1375262499999934
                },
                {
                    "name": "D#3",
                    "midi": 51,
                    "time": 80.8654349999996,
                    "velocity": 0.5039370078740157,
                    "duration": 0.1375262499999934
                },
                {
                    "name": "F#3",
                    "midi": 54,
                    "time": 81.14048749999958,
                    "velocity": 0.4566929133858268,
                    "duration": 0.1375262499999934
                },
                {
                    "name": "B3",
                    "midi": 59,
                    "time": 81.41553999999957,
                    "velocity": 0.48031496062992124,
                    "duration": 0.27505250000000103
                },
                {
                    "name": "G3",
                    "midi": 55,
                    "time": 81.69059249999957,
                    "velocity": 0.5590551181102362,
                    "duration": 0.1375262499999934
                },
                {
                    "name": "G2",
                    "midi": 43,
                    "time": 81.69059249999957,
                    "velocity": 0.47244094488188976,
                    "duration": 0.1375262499999934
                },
                {
                    "name": "D#4",
                    "midi": 63,
                    "time": 81.96564499999955,
                    "velocity": 0.5275590551181102,
                    "duration": 0.5501050000000021
                },
                {
                    "name": "B3",
                    "midi": 59,
                    "time": 81.96564499999955,
                    "velocity": 0.4409448818897638,
                    "duration": 0.5501050000000021
                },
                {
                    "name": "F3",
                    "midi": 53,
                    "time": 81.96564499999955,
                    "velocity": 0.4409448818897638,
                    "duration": 0.5501050000000021
                },
                {
                    "name": "G3",
                    "midi": 55,
                    "time": 81.96564499999955,
                    "velocity": 0.4409448818897638,
                    "duration": 0.5501050000000021
                },
                {
                    "name": "C3",
                    "midi": 48,
                    "time": 82.51574999999956,
                    "velocity": 0.41732283464566927,
                    "duration": 0.27505250000000103
                },
                {
                    "name": "D#3",
                    "midi": 51,
                    "time": 82.51574999999956,
                    "velocity": 0.41732283464566927,
                    "duration": 0.27505250000000103
                },
                {
                    "name": "G3",
                    "midi": 55,
                    "time": 82.51574999999956,
                    "velocity": 0.41732283464566927,
                    "duration": 0.27505250000000103
                },
                {
                    "name": "C4",
                    "midi": 60,
                    "time": 82.51574999999956,
                    "velocity": 0.4645669291338583,
                    "duration": 0.27505250000000103
                },
                {
                    "name": "D#2",
                    "midi": 39,
                    "time": 82.79080249999956,
                    "velocity": 0.44881889763779526,
                    "duration": 0.1375262499999934
                },
                {
                    "name": "D#3",
                    "midi": 51,
                    "time": 82.79080249999956,
                    "velocity": 0.49606299212598426,
                    "duration": 0.1375262499999934
                },
                {
                    "name": "G3",
                    "midi": 55,
                    "time": 83.06585499999954,
                    "velocity": 0.44881889763779526,
                    "duration": 0.5501050000000021
                },
                {
                    "name": "C#4",
                    "midi": 61,
                    "time": 83.06585499999954,
                    "velocity": 0.44881889763779526,
                    "duration": 0.5501050000000021
                },
                {
                    "name": "G4",
                    "midi": 67,
                    "time": 83.06585499999954,
                    "velocity": 0.44881889763779526,
                    "duration": 0.5501050000000021
                },
                {
                    "name": "D#4",
                    "midi": 63,
                    "time": 83.06585499999954,
                    "velocity": 0.5354330708661418,
                    "duration": 0.5501050000000021
                },
                {
                    "name": "G#2",
                    "midi": 44,
                    "time": 83.61595999999955,
                    "velocity": 0.4409448818897638,
                    "duration": 0.27505250000000103
                },
                {
                    "name": "D#3",
                    "midi": 51,
                    "time": 83.61595999999955,
                    "velocity": 0.4409448818897638,
                    "duration": 0.27505250000000103
                },
                {
                    "name": "G#3",
                    "midi": 56,
                    "time": 83.61595999999955,
                    "velocity": 0.4409448818897638,
                    "duration": 0.27505250000000103
                },
                {
                    "name": "B3",
                    "midi": 59,
                    "time": 83.61595999999955,
                    "velocity": 0.48031496062992124,
                    "duration": 0.27505250000000103
                },
                {
                    "name": "B2",
                    "midi": 47,
                    "time": 83.89101249999955,
                    "velocity": 0.5118110236220472,
                    "duration": 0.1375262499999934
                },
                {
                    "name": "B1",
                    "midi": 35,
                    "time": 83.89101249999955,
                    "velocity": 0.4330708661417323,
                    "duration": 0.1375262499999934
                },
                {
                    "name": "G4",
                    "midi": 67,
                    "time": 84.16606499999953,
                    "velocity": 0.6062992125984252,
                    "duration": 0.5501050000000021
                },
                {
                    "name": "D#4",
                    "midi": 63,
                    "time": 84.16606499999953,
                    "velocity": 0.5118110236220472,
                    "duration": 0.5501050000000021
                },
                {
                    "name": "A3",
                    "midi": 57,
                    "time": 84.16606499999953,
                    "velocity": 0.5118110236220472,
                    "duration": 0.5501050000000021
                },
                {
                    "name": "B3",
                    "midi": 59,
                    "time": 84.16606499999953,
                    "velocity": 0.5118110236220472,
                    "duration": 0.5501050000000021
                },
                {
                    "name": "D#2",
                    "midi": 39,
                    "time": 84.71616999999954,
                    "velocity": 0.48031496062992124,
                    "duration": 0.27505250000000103
                },
                {
                    "name": "C3",
                    "midi": 48,
                    "time": 84.71616999999954,
                    "velocity": 0.48031496062992124,
                    "duration": 0.27505250000000103
                },
                {
                    "name": "G3",
                    "midi": 55,
                    "time": 84.71616999999954,
                    "velocity": 0.5275590551181102,
                    "duration": 0.27505250000000103
                },
                {
                    "name": "G2",
                    "midi": 43,
                    "time": 84.99122249999954,
                    "velocity": 0.5118110236220472,
                    "duration": 0.1375262499999934
                },
                {
                    "name": "G1",
                    "midi": 31,
                    "time": 84.99122249999954,
                    "velocity": 0.4330708661417323,
                    "duration": 0.1375262499999934
                },
                {
                    "name": "G4",
                    "midi": 67,
                    "time": 85.26627499999952,
                    "velocity": 0.6535433070866141,
                    "duration": 0.41257874999999444
                },
                {
                    "name": "D#4",
                    "midi": 63,
                    "time": 85.26627499999952,
                    "velocity": 0.6535433070866141,
                    "duration": 0.41257874999999444
                },
                {
                    "name": "B3",
                    "midi": 59,
                    "time": 85.26627499999952,
                    "velocity": 0.5511811023622047,
                    "duration": 0.41257874999999444
                },
                {
                    "name": "F3",
                    "midi": 53,
                    "time": 85.26627499999952,
                    "velocity": 0.5511811023622047,
                    "duration": 0.41257874999999444
                },
                {
                    "name": "A#1",
                    "midi": 34,
                    "time": 85.67885374999952,
                    "velocity": 0.5590551181102362,
                    "duration": 0.1375262499999934
                },
                {
                    "name": "A#2",
                    "midi": 46,
                    "time": 85.67885374999952,
                    "velocity": 0.6614173228346457,
                    "duration": 0.1375262499999934
                },
                {
                    "name": "G3",
                    "midi": 55,
                    "time": 85.81637999999951,
                    "velocity": 0.5354330708661418,
                    "duration": 0.8251575000000031
                },
                {
                    "name": "D#4",
                    "midi": 63,
                    "time": 85.81637999999951,
                    "velocity": 0.5354330708661418,
                    "duration": 0.8251575000000031
                },
                {
                    "name": "A#3",
                    "midi": 58,
                    "time": 85.81637999999951,
                    "velocity": 0.5354330708661418,
                    "duration": 0.8251575000000031
                },
                {
                    "name": "G4",
                    "midi": 67,
                    "time": 85.81637999999951,
                    "velocity": 0.6299212598425197,
                    "duration": 0.8251575000000031
                },
                {
                    "name": "F4",
                    "midi": 65,
                    "time": 86.64153749999952,
                    "velocity": 0.49606299212598426,
                    "duration": 0.1375262499999934
                },
                {
                    "name": "D#4",
                    "midi": 63,
                    "time": 86.64153749999952,
                    "velocity": 0.41732283464566927,
                    "duration": 0.1375262499999934
                },
                {
                    "name": "C4",
                    "midi": 60,
                    "time": 86.64153749999952,
                    "velocity": 0.41732283464566927,
                    "duration": 0.1375262499999934
                },
                {
                    "name": "A#3",
                    "midi": 58,
                    "time": 86.9165899999995,
                    "velocity": 0.4409448818897638,
                    "duration": 0.8251575000000031
                },
                {
                    "name": "D#4",
                    "midi": 63,
                    "time": 86.9165899999995,
                    "velocity": 0.4409448818897638,
                    "duration": 0.8251575000000031
                },
                {
                    "name": "G4",
                    "midi": 67,
                    "time": 86.9165899999995,
                    "velocity": 0.6692913385826772,
                    "duration": 0.8251575000000031
                },
                {
                    "name": "A#2",
                    "midi": 46,
                    "time": 87.1916424999995,
                    "velocity": 0.5669291338582677,
                    "duration": 0.8251574999999889
                },
                {
                    "name": "A#1",
                    "midi": 34,
                    "time": 87.1916424999995,
                    "velocity": 0.5669291338582677,
                    "duration": 0.8251574999999889
                },
                {
                    "name": "D#4",
                    "midi": 63,
                    "time": 87.7417474999995,
                    "velocity": 0.4409448818897638,
                    "duration": 0.1375262499999934
                },
                {
                    "name": "C4",
                    "midi": 60,
                    "time": 87.7417474999995,
                    "velocity": 0.3700787401574803,
                    "duration": 0.1375262499999934
                },
                {
                    "name": "G#3",
                    "midi": 56,
                    "time": 87.7417474999995,
                    "velocity": 0.3700787401574803,
                    "duration": 0.1375262499999934
                },
                {
                    "name": "A#3",
                    "midi": 58,
                    "time": 88.01679999999949,
                    "velocity": 0.4409448818897638,
                    "duration": 0.8251575000000031
                },
                {
                    "name": "D#4",
                    "midi": 63,
                    "time": 88.01679999999949,
                    "velocity": 0.4409448818897638,
                    "duration": 0.8251575000000031
                },
                {
                    "name": "G4",
                    "midi": 67,
                    "time": 88.01679999999949,
                    "velocity": 0.6692913385826772,
                    "duration": 0.8251575000000031
                },
                {
                    "name": "A#2",
                    "midi": 46,
                    "time": 88.2918524999995,
                    "velocity": 0.5669291338582677,
                    "duration": 0.8251574999999889
                },
                {
                    "name": "A#1",
                    "midi": 34,
                    "time": 88.2918524999995,
                    "velocity": 0.5669291338582677,
                    "duration": 0.8251574999999889
                },
                {
                    "name": "C4",
                    "midi": 60,
                    "time": 88.8419574999995,
                    "velocity": 0.4409448818897638,
                    "duration": 0.1375262499999934
                },
                {
                    "name": "G#3",
                    "midi": 56,
                    "time": 88.8419574999995,
                    "velocity": 0.3700787401574803,
                    "duration": 0.1375262499999934
                },
                {
                    "name": "F3",
                    "midi": 53,
                    "time": 88.8419574999995,
                    "velocity": 0.3700787401574803,
                    "duration": 0.1375262499999934
                },
                {
                    "name": "A#3",
                    "midi": 58,
                    "time": 89.11700999999948,
                    "velocity": 0.4409448818897638,
                    "duration": 0.27505250000000103
                },
                {
                    "name": "D#4",
                    "midi": 63,
                    "time": 89.11700999999948,
                    "velocity": 0.4409448818897638,
                    "duration": 0.27505250000000103
                },
                {
                    "name": "G4",
                    "midi": 67,
                    "time": 89.11700999999948,
                    "velocity": 0.6692913385826772,
                    "duration": 0.27505250000000103
                },
                {
                    "name": "D#3",
                    "midi": 51,
                    "time": 89.39206249999948,
                    "velocity": 0.5118110236220472,
                    "duration": 0.1375262499999934
                },
                {
                    "name": "G3",
                    "midi": 55,
                    "time": 89.52958874999948,
                    "velocity": 0.5590551181102362,
                    "duration": 0.1375262499999934
                },
                {
                    "name": "A#3",
                    "midi": 58,
                    "time": 89.66711499999947,
                    "velocity": 0.6299212598425197,
                    "duration": 0.1375262499999934
                },
                {
                    "name": "C4",
                    "midi": 60,
                    "time": 89.94216749999946,
                    "velocity": 0.4409448818897638,
                    "duration": 0.1375262499999934
                },
                {
                    "name": "G#3",
                    "midi": 56,
                    "time": 89.94216749999946,
                    "velocity": 0.3700787401574803,
                    "duration": 0.1375262499999934
                },
                {
                    "name": "F3",
                    "midi": 53,
                    "time": 89.94216749999946,
                    "velocity": 0.3700787401574803,
                    "duration": 0.1375262499999934
                },
                {
                    "name": "A#3",
                    "midi": 58,
                    "time": 90.21721999999944,
                    "velocity": 0.5196850393700787,
                    "duration": 0.27505250000000103
                },
                {
                    "name": "D#4",
                    "midi": 63,
                    "time": 90.21721999999944,
                    "velocity": 0.5196850393700787,
                    "duration": 0.27505250000000103
                },
                {
                    "name": "G4",
                    "midi": 67,
                    "time": 90.21721999999944,
                    "velocity": 0.5826771653543307,
                    "duration": 0.27505250000000103
                },
                {
                    "name": "A#2",
                    "midi": 46,
                    "time": 90.49227249999944,
                    "velocity": 0.4409448818897638,
                    "duration": 0.27505250000000103
                },
                {
                    "name": "A#1",
                    "midi": 34,
                    "time": 90.49227249999944,
                    "velocity": 0.3700787401574803,
                    "duration": 0.27505250000000103
                },
                {
                    "name": "G3",
                    "midi": 55,
                    "time": 90.76732499999945,
                    "velocity": 0.5511811023622047,
                    "duration": 0.8251575000000031
                },
                {
                    "name": "D#3",
                    "midi": 51,
                    "time": 90.76732499999945,
                    "velocity": 0.4645669291338583,
                    "duration": 0.8251575000000031
                },
                {
                    "name": "A#2",
                    "midi": 46,
                    "time": 90.76732499999945,
                    "velocity": 0.4645669291338583,
                    "duration": 0.8251575000000031
                },
                {
                    "name": "A#3",
                    "midi": 58,
                    "time": 91.59248249999945,
                    "velocity": 0.3779527559055118,
                    "duration": 0.27505250000000103
                },
                {
                    "name": "G3",
                    "midi": 55,
                    "time": 91.59248249999945,
                    "velocity": 0.3779527559055118,
                    "duration": 0.27505250000000103
                },
                {
                    "name": "D#3",
                    "midi": 51,
                    "time": 91.59248249999945,
                    "velocity": 0.3779527559055118,
                    "duration": 0.27505250000000103
                },
                {
                    "name": "G3",
                    "midi": 55,
                    "time": 91.86753499999945,
                    "velocity": 0.49606299212598426,
                    "duration": 0.8251575000000031
                },
                {
                    "name": "A#3",
                    "midi": 58,
                    "time": 91.86753499999945,
                    "velocity": 0.49606299212598426,
                    "duration": 0.8251575000000031
                },
                {
                    "name": "D#4",
                    "midi": 63,
                    "time": 91.86753499999945,
                    "velocity": 0.5905511811023622,
                    "duration": 0.8251575000000031
                },
                {
                    "name": "G4",
                    "midi": 67,
                    "time": 92.69269249999945,
                    "velocity": 0.44881889763779526,
                    "duration": 0.27505250000000103
                },
                {
                    "name": "D#4",
                    "midi": 63,
                    "time": 92.69269249999945,
                    "velocity": 0.3779527559055118,
                    "duration": 0.27505250000000103
                },
                {
                    "name": "A#3",
                    "midi": 58,
                    "time": 92.69269249999945,
                    "velocity": 0.3779527559055118,
                    "duration": 0.27505250000000103
                },
                {
                    "name": "G4",
                    "midi": 67,
                    "time": 92.96774499999945,
                    "velocity": 0.4566929133858268,
                    "duration": 0.27505250000000103
                },
                {
                    "name": "D#4",
                    "midi": 63,
                    "time": 92.96774499999945,
                    "velocity": 0.3858267716535433,
                    "duration": 0.27505250000000103
                },
                {
                    "name": "A#3",
                    "midi": 58,
                    "time": 92.96774499999945,
                    "velocity": 0.3858267716535433,
                    "duration": 0.27505250000000103
                },
                {
                    "name": "A#4",
                    "midi": 70,
                    "time": 93.24279749999945,
                    "velocity": 0.4566929133858268,
                    "duration": 0.27505250000000103
                },
                {
                    "name": "G4",
                    "midi": 67,
                    "time": 93.24279749999945,
                    "velocity": 0.3858267716535433,
                    "duration": 0.27505250000000103
                },
                {
                    "name": "D#4",
                    "midi": 63,
                    "time": 93.24279749999945,
                    "velocity": 0.3858267716535433,
                    "duration": 0.27505250000000103
                },
                {
                    "name": "D#4",
                    "midi": 63,
                    "time": 93.51784999999946,
                    "velocity": 0.4094488188976378,
                    "duration": 0.27505250000000103
                },
                {
                    "name": "G4",
                    "midi": 67,
                    "time": 93.51784999999946,
                    "velocity": 0.4094488188976378,
                    "duration": 0.27505250000000103
                },
                {
                    "name": "A#4",
                    "midi": 70,
                    "time": 93.51784999999946,
                    "velocity": 0.4881889763779528,
                    "duration": 0.27505250000000103
                },
                {
                    "name": "D#5",
                    "midi": 75,
                    "time": 93.79290249999946,
                    "velocity": 0.4566929133858268,
                    "duration": 0.27505250000000103
                },
                {
                    "name": "A#4",
                    "midi": 70,
                    "time": 93.79290249999946,
                    "velocity": 0.3858267716535433,
                    "duration": 0.27505250000000103
                },
                {
                    "name": "G4",
                    "midi": 67,
                    "time": 93.79290249999946,
                    "velocity": 0.3858267716535433,
                    "duration": 0.27505250000000103
                },
                {
                    "name": "D#5",
                    "midi": 75,
                    "time": 94.06795499999946,
                    "velocity": 0.4566929133858268,
                    "duration": 0.27505250000000103
                },
                {
                    "name": "A#4",
                    "midi": 70,
                    "time": 94.06795499999946,
                    "velocity": 0.3858267716535433,
                    "duration": 0.27505250000000103
                },
                {
                    "name": "G4",
                    "midi": 67,
                    "time": 94.06795499999946,
                    "velocity": 0.3858267716535433,
                    "duration": 0.27505250000000103
                },
                {
                    "name": "A#4",
                    "midi": 70,
                    "time": 94.34300749999946,
                    "velocity": 0.4330708661417323,
                    "duration": 0.27505250000000103
                },
                {
                    "name": "D#5",
                    "midi": 75,
                    "time": 94.34300749999946,
                    "velocity": 0.4330708661417323,
                    "duration": 0.27505250000000103
                },
                {
                    "name": "G5",
                    "midi": 79,
                    "time": 94.34300749999946,
                    "velocity": 0.5118110236220472,
                    "duration": 0.27505250000000103
                },
                {
                    "name": "A#5",
                    "midi": 82,
                    "time": 94.61805999999946,
                    "velocity": 0.6614173228346457,
                    "duration": 0.27505250000000103
                },
                {
                    "name": "G5",
                    "midi": 79,
                    "time": 94.61805999999946,
                    "velocity": 0.5590551181102362,
                    "duration": 0.27505250000000103
                },
                {
                    "name": "D#5",
                    "midi": 75,
                    "time": 94.61805999999946,
                    "velocity": 0.5590551181102362,
                    "duration": 0.27505250000000103
                },
                {
                    "name": "A#4",
                    "midi": 70,
                    "time": 94.61805999999946,
                    "velocity": 0.5590551181102362,
                    "duration": 0.27505250000000103
                },
                {
                    "name": "D4",
                    "midi": 62,
                    "time": 95.71826999999946,
                    "velocity": 0.6141732283464567,
                    "duration": 0.1375262499999934
                },
                {
                    "name": "A#3",
                    "midi": 58,
                    "time": 95.71826999999946,
                    "velocity": 0.5118110236220472,
                    "duration": 0.1375262499999934
                },
                {
                    "name": "G#3",
                    "midi": 56,
                    "time": 95.71826999999946,
                    "velocity": 0.5118110236220472,
                    "duration": 0.1375262499999934
                },
                {
                    "name": "F3",
                    "midi": 53,
                    "time": 95.71826999999946,
                    "velocity": 0.5118110236220472,
                    "duration": 0.1375262499999934
                },
                {
                    "name": "A#2",
                    "midi": 46,
                    "time": 95.85579624999946,
                    "velocity": 0.9212598425196851,
                    "duration": 0.41257874999999444
                },
                {
                    "name": "A#1",
                    "midi": 34,
                    "time": 95.85579624999946,
                    "velocity": 0.7716535433070866,
                    "duration": 0.41257874999999444
                },
                {
                    "name": "D#1",
                    "midi": 27,
                    "time": 96.81847999999945,
                    "velocity": 0.6692913385826772,
                    "duration": 1.6503150000000062
                },
                {
                    "name": "D#2",
                    "midi": 39,
                    "time": 96.81847999999945,
                    "velocity": 0.7480314960629921,
                    "duration": 1.6503150000000062
                },
                {
                    "name": "D#3",
                    "midi": 51,
                    "time": 96.81847999999945,
                    "velocity": 0.7480314960629921,
                    "duration": 0.5501050000000021
                },
                {
                    "name": "D#4",
                    "midi": 63,
                    "time": 96.81847999999945,
                    "velocity": 0.8188976377952756,
                    "duration": 0.5501050000000021
                },
                {
                    "name": "A#3",
                    "midi": 58,
                    "time": 97.36858499999946,
                    "velocity": 0.6929133858267716,
                    "duration": 0.5501050000000021
                },
                {
                    "name": "A#2",
                    "midi": 46,
                    "time": 97.36858499999946,
                    "velocity": 0.6929133858267716,
                    "duration": 0.5501050000000021
                },
                {
                    "name": "D#4",
                    "midi": 63,
                    "time": 97.91868999999946,
                    "velocity": 0.6929133858267716,
                    "duration": 0.8251575000000031
                },
                {
                    "name": "A#3",
                    "midi": 58,
                    "time": 97.91868999999946,
                    "velocity": 0.6929133858267716,
                    "duration": 0.8251575000000031
                },
                {
                    "name": "D#3",
                    "midi": 51,
                    "time": 97.91868999999946,
                    "velocity": 0.6929133858267716,
                    "duration": 0.8251575000000031
                },
                {
                    "name": "D#1",
                    "midi": 27,
                    "time": 98.46879499999946,
                    "velocity": 0.5984251968503937,
                    "duration": 0.5501049999999879
                },
                {
                    "name": "A#1",
                    "midi": 34,
                    "time": 98.46879499999946,
                    "velocity": 0.5984251968503937,
                    "duration": 0.5501049999999879
                },
                {
                    "name": "D#2",
                    "midi": 39,
                    "time": 98.46879499999946,
                    "velocity": 0.5984251968503937,
                    "duration": 0.5501049999999879
                },
                {
                    "name": "C3",
                    "midi": 48,
                    "time": 98.74384749999946,
                    "velocity": 0.6062992125984252,
                    "duration": 0.1375262499999934
                },
                {
                    "name": "D#3",
                    "midi": 51,
                    "time": 98.88137374999945,
                    "velocity": 0.6614173228346457,
                    "duration": 0.1375262499999934
                },
                {
                    "name": "G2",
                    "midi": 43,
                    "time": 99.01889999999945,
                    "velocity": 0.6929133858267716,
                    "duration": 0.27505250000000103
                },
                {
                    "name": "G3",
                    "midi": 55,
                    "time": 99.01889999999945,
                    "velocity": 0.6929133858267716,
                    "duration": 0.27505250000000103
                },
                {
                    "name": "A#3",
                    "midi": 58,
                    "time": 99.29395249999945,
                    "velocity": 0.6062992125984252,
                    "duration": 0.1375262499999934
                },
                {
                    "name": "A#2",
                    "midi": 46,
                    "time": 99.29395249999945,
                    "velocity": 0.6062992125984252,
                    "duration": 0.1375262499999934
                },
                {
                    "name": "A#2",
                    "midi": 46,
                    "time": 99.56900499999944,
                    "velocity": 0.6377952755905512,
                    "duration": 0.1375262499999934
                },
                {
                    "name": "A#3",
                    "midi": 58,
                    "time": 99.56900499999944,
                    "velocity": 0.6377952755905512,
                    "duration": 0.1375262499999934
                },
                {
                    "name": "D#3",
                    "midi": 51,
                    "time": 99.84405749999942,
                    "velocity": 0.6062992125984252,
                    "duration": 0.1375262499999934
                },
                {
                    "name": "A#3",
                    "midi": 58,
                    "time": 99.84405749999942,
                    "velocity": 0.6062992125984252,
                    "duration": 0.1375262499999934
                },
                {
                    "name": "D#4",
                    "midi": 63,
                    "time": 99.84405749999942,
                    "velocity": 0.6062992125984252,
                    "duration": 0.1375262499999934
                },
                {
                    "name": "D#3",
                    "midi": 51,
                    "time": 100.11910999999941,
                    "velocity": 0.6929133858267716,
                    "duration": 0.8251575000000031
                },
                {
                    "name": "A#3",
                    "midi": 58,
                    "time": 100.11910999999941,
                    "velocity": 0.6929133858267716,
                    "duration": 0.8251575000000031
                },
                {
                    "name": "D#4",
                    "midi": 63,
                    "time": 100.11910999999941,
                    "velocity": 0.6929133858267716,
                    "duration": 0.8251575000000031
                },
                {
                    "name": "D#1",
                    "midi": 27,
                    "time": 100.66921499999941,
                    "velocity": 0.5984251968503937,
                    "duration": 0.5501049999999879
                },
                {
                    "name": "A#1",
                    "midi": 34,
                    "time": 100.66921499999941,
                    "velocity": 0.5984251968503937,
                    "duration": 0.5501049999999879
                },
                {
                    "name": "D#2",
                    "midi": 39,
                    "time": 100.66921499999941,
                    "velocity": 0.5984251968503937,
                    "duration": 0.5501049999999879
                },
                {
                    "name": "C3",
                    "midi": 48,
                    "time": 100.94426749999941,
                    "velocity": 0.5433070866141733,
                    "duration": 0.1375262499999934
                },
                {
                    "name": "D#3",
                    "midi": 51,
                    "time": 101.0817937499994,
                    "velocity": 0.5590551181102362,
                    "duration": 0.1375262499999934
                },
                {
                    "name": "G2",
                    "midi": 43,
                    "time": 101.2193199999994,
                    "velocity": 0.6062992125984252,
                    "duration": 0.1375262499999934
                },
                {
                    "name": "G3",
                    "midi": 55,
                    "time": 101.2193199999994,
                    "velocity": 0.6062992125984252,
                    "duration": 0.1375262499999934
                },
                {
                    "name": "A#2",
                    "midi": 46,
                    "time": 101.49437249999939,
                    "velocity": 0.5433070866141733,
                    "duration": 0.1375262499999934
                },
                {
                    "name": "A#3",
                    "midi": 58,
                    "time": 101.49437249999939,
                    "velocity": 0.5433070866141733,
                    "duration": 0.1375262499999934
                },
                {
                    "name": "A#3",
                    "midi": 58,
                    "time": 101.76942499999937,
                    "velocity": 0.5511811023622047,
                    "duration": 0.1375262499999934
                },
                {
                    "name": "A#2",
                    "midi": 46,
                    "time": 101.76942499999937,
                    "velocity": 0.5511811023622047,
                    "duration": 0.1375262499999934
                },
                {
                    "name": "D#3",
                    "midi": 51,
                    "time": 102.04447749999936,
                    "velocity": 0.5196850393700787,
                    "duration": 0.1375262499999934
                },
                {
                    "name": "D#4",
                    "midi": 63,
                    "time": 102.04447749999936,
                    "velocity": 0.5196850393700787,
                    "duration": 0.1375262499999934
                },
                {
                    "name": "A#3",
                    "midi": 58,
                    "time": 102.04447749999936,
                    "velocity": 0.5196850393700787,
                    "duration": 0.1375262499999934
                },
                {
                    "name": "D#3",
                    "midi": 51,
                    "time": 102.31952999999935,
                    "velocity": 0.6062992125984252,
                    "duration": 0.5501050000000021
                },
                {
                    "name": "D#4",
                    "midi": 63,
                    "time": 102.31952999999935,
                    "velocity": 0.6062992125984252,
                    "duration": 0.5501050000000021
                },
                {
                    "name": "A#3",
                    "midi": 58,
                    "time": 102.31952999999935,
                    "velocity": 0.6062992125984252,
                    "duration": 0.5501050000000021
                },
                {
                    "name": "G4",
                    "midi": 67,
                    "time": 102.86963499999935,
                    "velocity": 0.6062992125984252,
                    "duration": 0.5501050000000021
                },
                {
                    "name": "G3",
                    "midi": 55,
                    "time": 102.86963499999935,
                    "velocity": 0.6062992125984252,
                    "duration": 0.5501050000000021
                },
                {
                    "name": "D#2",
                    "midi": 39,
                    "time": 103.14468749999935,
                    "velocity": 0.5433070866141733,
                    "duration": 0.27505250000000103
                },
                {
                    "name": "D#1",
                    "midi": 27,
                    "time": 103.14468749999935,
                    "velocity": 0.5433070866141733,
                    "duration": 0.27505250000000103
                },
                {
                    "name": "C3",
                    "midi": 48,
                    "time": 103.41973999999935,
                    "velocity": 0.6062992125984252,
                    "duration": 0.5501050000000021
                },
                {
                    "name": "C4",
                    "midi": 60,
                    "time": 103.41973999999935,
                    "velocity": 0.6062992125984252,
                    "duration": 0.5501050000000021
                },
                {
                    "name": "D#4",
                    "midi": 63,
                    "time": 103.96984499999935,
                    "velocity": 0.6062992125984252,
                    "duration": 0.5501050000000021
                },
                {
                    "name": "D#3",
                    "midi": 51,
                    "time": 103.96984499999935,
                    "velocity": 0.6062992125984252,
                    "duration": 0.5501050000000021
                },
                {
                    "name": "D#2",
                    "midi": 39,
                    "time": 104.24489749999935,
                    "velocity": 0.5511811023622047,
                    "duration": 0.27505250000000103
                },
                {
                    "name": "D#1",
                    "midi": 27,
                    "time": 104.24489749999935,
                    "velocity": 0.5511811023622047,
                    "duration": 0.27505250000000103
                },
                {
                    "name": "A#2",
                    "midi": 46,
                    "time": 104.51994999999935,
                    "velocity": 0.6929133858267716,
                    "duration": 0.5501050000000021
                },
                {
                    "name": "A#3",
                    "midi": 58,
                    "time": 104.51994999999935,
                    "velocity": 0.6929133858267716,
                    "duration": 0.5501050000000021
                },
                {
                    "name": "C3",
                    "midi": 48,
                    "time": 105.07005499999936,
                    "velocity": 0.6377952755905512,
                    "duration": 0.1375262499999934
                },
                {
                    "name": "C4",
                    "midi": 60,
                    "time": 105.07005499999936,
                    "velocity": 0.6377952755905512,
                    "duration": 0.1375262499999934
                },
                {
                    "name": "A#3",
                    "midi": 58,
                    "time": 105.34510749999934,
                    "velocity": 0.5433070866141733,
                    "duration": 0.1375262499999934
                },
                {
                    "name": "A#2",
                    "midi": 46,
                    "time": 105.34510749999934,
                    "velocity": 0.5433070866141733,
                    "duration": 0.1375262499999934
                },
                {
                    "name": "G#2",
                    "midi": 44,
                    "time": 105.62015999999933,
                    "velocity": 0.6299212598425197,
                    "duration": 0.1375262499999934
                },
                {
                    "name": "G#3",
                    "midi": 56,
                    "time": 105.62015999999933,
                    "velocity": 0.6299212598425197,
                    "duration": 0.1375262499999934
                },
                {
                    "name": "G3",
                    "midi": 55,
                    "time": 105.89521249999932,
                    "velocity": 0.5433070866141733,
                    "duration": 0.1375262499999934
                },
                {
                    "name": "G2",
                    "midi": 43,
                    "time": 105.89521249999932,
                    "velocity": 0.5433070866141733,
                    "duration": 0.1375262499999934
                },
                {
                    "name": "F2",
                    "midi": 41,
                    "time": 106.1702649999993,
                    "velocity": 0.6220472440944882,
                    "duration": 0.5501050000000021
                },
                {
                    "name": "F3",
                    "midi": 53,
                    "time": 106.1702649999993,
                    "velocity": 0.6220472440944882,
                    "duration": 0.5501050000000021
                },
                {
                    "name": "D#3",
                    "midi": 51,
                    "time": 106.7203699999993,
                    "velocity": 0.6141732283464567,
                    "duration": 0.27505250000000103
                },
                {
                    "name": "D#2",
                    "midi": 39,
                    "time": 106.7203699999993,
                    "velocity": 0.6141732283464567,
                    "duration": 0.27505250000000103
                },
                {
                    "name": "G2",
                    "midi": 43,
                    "time": 107.27047499999931,
                    "velocity": 0.5433070866141733,
                    "duration": 0.5501050000000021
                },
                {
                    "name": "G3",
                    "midi": 55,
                    "time": 107.27047499999931,
                    "velocity": 0.5433070866141733,
                    "duration": 0.5501050000000021
                },
                {
                    "name": "D3",
                    "midi": 50,
                    "time": 107.82057999999931,
                    "velocity": 0.6062992125984252,
                    "duration": 0.5501050000000021
                },
                {
                    "name": "D2",
                    "midi": 38,
                    "time": 107.82057999999931,
                    "velocity": 0.6062992125984252,
                    "duration": 0.5501050000000021
                },
                {
                    "name": "C2",
                    "midi": 36,
                    "time": 108.37068499999931,
                    "velocity": 0.5433070866141733,
                    "duration": 0.5501050000000021
                },
                {
                    "name": "C3",
                    "midi": 48,
                    "time": 108.37068499999931,
                    "velocity": 0.5433070866141733,
                    "duration": 0.5501050000000021
                },
                {
                    "name": "A#2",
                    "midi": 46,
                    "time": 108.92078999999931,
                    "velocity": 0.6062992125984252,
                    "duration": 0.8251575000000031
                },
                {
                    "name": "A#1",
                    "midi": 34,
                    "time": 108.92078999999931,
                    "velocity": 0.6062992125984252,
                    "duration": 0.8251575000000031
                },
                {
                    "name": "G#1",
                    "midi": 32,
                    "time": 109.74594749999932,
                    "velocity": 0.47244094488188976,
                    "duration": 0.1375262499999934
                },
                {
                    "name": "G#2",
                    "midi": 44,
                    "time": 109.74594749999932,
                    "velocity": 0.47244094488188976,
                    "duration": 0.1375262499999934
                },
                {
                    "name": "G2",
                    "midi": 43,
                    "time": 110.0209999999993,
                    "velocity": 0.47244094488188976,
                    "duration": 0.1375262499999934
                },
                {
                    "name": "G1",
                    "midi": 31,
                    "time": 110.0209999999993,
                    "velocity": 0.47244094488188976,
                    "duration": 0.1375262499999934
                },
                {
                    "name": "A#2",
                    "midi": 46,
                    "time": 110.29605249999929,
                    "velocity": 0.44881889763779526,
                    "duration": 0.1375262499999934
                },
                {
                    "name": "A#1",
                    "midi": 34,
                    "time": 110.29605249999929,
                    "velocity": 0.44881889763779526,
                    "duration": 0.1375262499999934
                },
                {
                    "name": "F1",
                    "midi": 29,
                    "time": 110.57110499999928,
                    "velocity": 0.3464566929133858,
                    "duration": 0.27505250000000103
                },
                {
                    "name": "F2",
                    "midi": 41,
                    "time": 110.57110499999928,
                    "velocity": 0.3464566929133858,
                    "duration": 0.27505250000000103
                },
                {
                    "name": "D#1",
                    "midi": 27,
                    "time": 111.12120999999928,
                    "velocity": 0.36220472440944884,
                    "duration": 0.8251575000000031
                },
                {
                    "name": "D#2",
                    "midi": 39,
                    "time": 111.12120999999928,
                    "velocity": 0.4330708661417323,
                    "duration": 0.8251575000000031
                },
                {
                    "name": "A#1",
                    "midi": 34,
                    "time": 111.94636749999928,
                    "velocity": 0.30708661417322836,
                    "duration": 0.27505250000000103
                },
                {
                    "name": "D#2",
                    "midi": 39,
                    "time": 112.22141999999928,
                    "velocity": 0.2992125984251969,
                    "duration": 0.8251575000000031
                },
                {
                    "name": "A#2",
                    "midi": 46,
                    "time": 112.22141999999928,
                    "velocity": 0.3543307086614173,
                    "duration": 0.8251575000000031
                },
                {
                    "name": "A#4",
                    "midi": 70,
                    "time": 113.04657749999929,
                    "velocity": 0.3937007874015748,
                    "duration": 0.1375262499999934
                },
                {
                    "name": "D#4",
                    "midi": 63,
                    "time": 113.32162999999927,
                    "velocity": 0.3543307086614173,
                    "duration": 0.5501050000000021
                },
                {
                    "name": "A#1",
                    "midi": 34,
                    "time": 113.87173499999928,
                    "velocity": 0.3543307086614173,
                    "duration": 0.27505250000000103
                },
                {
                    "name": "A#2",
                    "midi": 46,
                    "time": 114.14678749999928,
                    "velocity": 0.30708661417322836,
                    "duration": 0.27505250000000103
                },
                {
                    "name": "F2",
                    "midi": 41,
                    "time": 114.14678749999928,
                    "velocity": 0.25984251968503935,
                    "duration": 0.27505250000000103
                },
                {
                    "name": "A#2",
                    "midi": 46,
                    "time": 114.42183999999928,
                    "velocity": 0.3937007874015748,
                    "duration": 0.5501050000000021
                },
                {
                    "name": "D#2",
                    "midi": 39,
                    "time": 114.42183999999928,
                    "velocity": 0.33070866141732286,
                    "duration": 0.5501050000000021
                },
                {
                    "name": "A#4",
                    "midi": 70,
                    "time": 114.97194499999928,
                    "velocity": 0.3937007874015748,
                    "duration": 0.1375262499999934
                },
                {
                    "name": "C5",
                    "midi": 72,
                    "time": 115.24699749999927,
                    "velocity": 0.36220472440944884,
                    "duration": 0.1375262499999934
                },
                {
                    "name": "D#4",
                    "midi": 63,
                    "time": 115.52204999999925,
                    "velocity": 0.3937007874015748,
                    "duration": 0.27505250000000103
                },
                {
                    "name": "D#1",
                    "midi": 27,
                    "time": 115.79710249999926,
                    "velocity": 0.2755905511811024,
                    "duration": 0.27505250000000103
                },
                {
                    "name": "D#2",
                    "midi": 39,
                    "time": 115.79710249999926,
                    "velocity": 0.33070866141732286,
                    "duration": 0.27505250000000103
                },
                {
                    "name": "A#2",
                    "midi": 46,
                    "time": 116.07215499999926,
                    "velocity": 0.41732283464566927,
                    "duration": 0.27505250000000103
                },
                {
                    "name": "A#1",
                    "midi": 34,
                    "time": 116.07215499999926,
                    "velocity": 0.3464566929133858,
                    "duration": 0.27505250000000103
                },
                {
                    "name": "D#3",
                    "midi": 51,
                    "time": 116.34720749999926,
                    "velocity": 0.4251968503937008,
                    "duration": 0.27505250000000103
                },
                {
                    "name": "D#2",
                    "midi": 39,
                    "time": 116.34720749999926,
                    "velocity": 0.3543307086614173,
                    "duration": 0.27505250000000103
                },
                {
                    "name": "A#3",
                    "midi": 58,
                    "time": 116.62225999999926,
                    "velocity": 0.4409448818897638,
                    "duration": 0.27505250000000103
                },
                {
                    "name": "A#2",
                    "midi": 46,
                    "time": 116.62225999999926,
                    "velocity": 0.3700787401574803,
                    "duration": 0.27505250000000103
                },
                {
                    "name": "C4",
                    "midi": 60,
                    "time": 116.89731249999926,
                    "velocity": 0.47244094488188976,
                    "duration": 0.1375262499999934
                },
                {
                    "name": "D#4",
                    "midi": 63,
                    "time": 117.03483874999925,
                    "velocity": 0.49606299212598426,
                    "duration": 0.1375262499999934
                },
                {
                    "name": "G3",
                    "midi": 55,
                    "time": 117.17236499999925,
                    "velocity": 0.48031496062992124,
                    "duration": 0.1375262499999934
                },
                {
                    "name": "G4",
                    "midi": 67,
                    "time": 117.17236499999925,
                    "velocity": 0.5748031496062992,
                    "duration": 0.1375262499999934
                },
                {
                    "name": "A#3",
                    "midi": 58,
                    "time": 117.44741749999923,
                    "velocity": 0.4881889763779528,
                    "duration": 0.1375262499999934
                },
                {
                    "name": "A#4",
                    "midi": 70,
                    "time": 117.44741749999923,
                    "velocity": 0.5748031496062992,
                    "duration": 0.1375262499999934
                },
                {
                    "name": "D#4",
                    "midi": 63,
                    "time": 117.72246999999922,
                    "velocity": 0.4409448818897638,
                    "duration": 0.1375262499999934
                },
                {
                    "name": "D#5",
                    "midi": 75,
                    "time": 117.72246999999922,
                    "velocity": 0.6141732283464567,
                    "duration": 0.1375262499999934
                },
                {
                    "name": "A#3",
                    "midi": 58,
                    "time": 117.9975224999992,
                    "velocity": 0.4330708661417323,
                    "duration": 0.1375262499999934
                },
                {
                    "name": "A#4",
                    "midi": 70,
                    "time": 117.9975224999992,
                    "velocity": 0.6062992125984252,
                    "duration": 0.1375262499999934
                },
                {
                    "name": "G4",
                    "midi": 67,
                    "time": 118.2725749999992,
                    "velocity": 0.6377952755905512,
                    "duration": 0.1375262499999934
                },
                {
                    "name": "G3",
                    "midi": 55,
                    "time": 118.2725749999992,
                    "velocity": 0.44881889763779526,
                    "duration": 0.1375262499999934
                },
                {
                    "name": "D#4",
                    "midi": 63,
                    "time": 118.54762749999918,
                    "velocity": 0.5748031496062992,
                    "duration": 0.1375262499999934
                },
                {
                    "name": "D#3",
                    "midi": 51,
                    "time": 118.54762749999918,
                    "velocity": 0.4881889763779528,
                    "duration": 0.1375262499999934
                },
                {
                    "name": "C3",
                    "midi": 48,
                    "time": 118.82267999999917,
                    "velocity": 0.5354330708661418,
                    "duration": 0.1375262499999934
                },
                {
                    "name": "C4",
                    "midi": 60,
                    "time": 118.82267999999917,
                    "velocity": 0.6377952755905512,
                    "duration": 0.1375262499999934
                },
                {
                    "name": "A#3",
                    "midi": 58,
                    "time": 119.09773249999915,
                    "velocity": 0.5590551181102362,
                    "duration": 0.1375262499999934
                },
                {
                    "name": "A#2",
                    "midi": 46,
                    "time": 119.09773249999915,
                    "velocity": 0.47244094488188976,
                    "duration": 0.1375262499999934
                },
                {
                    "name": "G3",
                    "midi": 55,
                    "time": 119.23525874999915,
                    "velocity": 0.49606299212598426,
                    "duration": 0.1375262499999934
                },
                {
                    "name": "D#3",
                    "midi": 51,
                    "time": 119.37278499999914,
                    "velocity": 0.6062992125984252,
                    "duration": 0.1375262499999934
                },
                {
                    "name": "C3",
                    "midi": 48,
                    "time": 119.64783749999913,
                    "velocity": 0.5984251968503937,
                    "duration": 0.27505250000000103
                },
                {
                    "name": "C2",
                    "midi": 36,
                    "time": 119.64783749999913,
                    "velocity": 0.5039370078740157,
                    "duration": 0.27505250000000103
                },
                {
                    "name": "A#1",
                    "midi": 34,
                    "time": 119.92288999999913,
                    "velocity": 0.5826771653543307,
                    "duration": 0.5501050000000021
                },
                {
                    "name": "A#2",
                    "midi": 46,
                    "time": 119.92288999999913,
                    "velocity": 0.7007874015748031,
                    "duration": 0.5501050000000021
                },
                {
                    "name": "C3",
                    "midi": 48,
                    "time": 120.47299499999913,
                    "velocity": 0.5984251968503937,
                    "duration": 0.5501050000000021
                },
                {
                    "name": "D#3",
                    "midi": 51,
                    "time": 120.47299499999913,
                    "velocity": 0.5984251968503937,
                    "duration": 0.5501050000000021
                },
                {
                    "name": "G3",
                    "midi": 55,
                    "time": 120.47299499999913,
                    "velocity": 0.5984251968503937,
                    "duration": 0.5501050000000021
                },
                {
                    "name": "C4",
                    "midi": 60,
                    "time": 120.47299499999913,
                    "velocity": 0.7165354330708661,
                    "duration": 0.5501050000000021
                },
                {
                    "name": "G2",
                    "midi": 43,
                    "time": 121.02309999999913,
                    "velocity": 0.6141732283464567,
                    "duration": 0.41257874999999444
                },
                {
                    "name": "A#2",
                    "midi": 46,
                    "time": 121.02309999999913,
                    "velocity": 0.6141732283464567,
                    "duration": 0.41257874999999444
                },
                {
                    "name": "D3",
                    "midi": 50,
                    "time": 121.02309999999913,
                    "velocity": 0.6141732283464567,
                    "duration": 0.41257874999999444
                },
                {
                    "name": "G3",
                    "midi": 55,
                    "time": 121.02309999999913,
                    "velocity": 0.7244094488188977,
                    "duration": 0.41257874999999444
                },
                {
                    "name": "A#1",
                    "midi": 34,
                    "time": 121.43567874999913,
                    "velocity": 0.5905511811023622,
                    "duration": 0.1375262499999934
                },
                {
                    "name": "A#2",
                    "midi": 46,
                    "time": 121.43567874999913,
                    "velocity": 0.6614173228346457,
                    "duration": 0.1375262499999934
                },
                {
                    "name": "F3",
                    "midi": 53,
                    "time": 121.57320499999912,
                    "velocity": 0.6377952755905512,
                    "duration": 0.5501050000000021
                },
                {
                    "name": "G#3",
                    "midi": 56,
                    "time": 121.57320499999912,
                    "velocity": 0.6377952755905512,
                    "duration": 0.5501050000000021
                },
                {
                    "name": "A#3",
                    "midi": 58,
                    "time": 121.57320499999912,
                    "velocity": 0.6377952755905512,
                    "duration": 0.5501050000000021
                },
                {
                    "name": "D4",
                    "midi": 62,
                    "time": 121.57320499999912,
                    "velocity": 0.6377952755905512,
                    "duration": 0.5501050000000021
                },
                {
                    "name": "F4",
                    "midi": 65,
                    "time": 121.57320499999912,
                    "velocity": 0.7559055118110236,
                    "duration": 0.5501050000000021
                },
                {
                    "name": "D#1",
                    "midi": 27,
                    "time": 122.12330999999912,
                    "velocity": 0.6299212598425197,
                    "duration": 0.24754724999999667
                },
                {
                    "name": "D#2",
                    "midi": 39,
                    "time": 122.12330999999912,
                    "velocity": 0.7480314960629921,
                    "duration": 0.24754724999999667
                },
                {
                    "name": "A#3",
                    "midi": 58,
                    "time": 122.39836249999912,
                    "velocity": 0.6456692913385826,
                    "duration": 0.06876312500000381
                },
                {
                    "name": "G3",
                    "midi": 55,
                    "time": 122.39836249999912,
                    "velocity": 0.5433070866141733,
                    "duration": 0.06876312500000381
                },
                {
                    "name": "D#3",
                    "midi": 51,
                    "time": 122.39836249999912,
                    "velocity": 0.5433070866141733,
                    "duration": 0.06876312500000381
                },
                {
                    "name": "A#2",
                    "midi": 46,
                    "time": 122.39836249999912,
                    "velocity": 0.5433070866141733,
                    "duration": 0.06876312500000381
                },
                {
                    "name": "A#3",
                    "midi": 58,
                    "time": 122.53588874999913,
                    "velocity": 0.6456692913385826,
                    "duration": 0.06876312500000381
                },
                {
                    "name": "G3",
                    "midi": 55,
                    "time": 122.53588874999913,
                    "velocity": 0.5433070866141733,
                    "duration": 0.06876312500000381
                },
                {
                    "name": "D#3",
                    "midi": 51,
                    "time": 122.53588874999913,
                    "velocity": 0.5433070866141733,
                    "duration": 0.06876312500000381
                },
                {
                    "name": "A#2",
                    "midi": 46,
                    "time": 122.53588874999913,
                    "velocity": 0.5433070866141733,
                    "duration": 0.06876312500000381
                },
                {
                    "name": "A#3",
                    "midi": 58,
                    "time": 122.67341499999914,
                    "velocity": 0.7401574803149606,
                    "duration": 0.5501050000000021
                },
                {
                    "name": "G3",
                    "midi": 55,
                    "time": 122.67341499999914,
                    "velocity": 0.6299212598425197,
                    "duration": 0.5501050000000021
                },
                {
                    "name": "D#3",
                    "midi": 51,
                    "time": 122.67341499999914,
                    "velocity": 0.6299212598425197,
                    "duration": 0.5501050000000021
                },
                {
                    "name": "A#2",
                    "midi": 46,
                    "time": 122.67341499999914,
                    "velocity": 0.6299212598425197,
                    "duration": 0.5501050000000021
                }
            ],
            "controlChanges": {},
            "id": 2,
            "name": "Piano left",
            "instrumentNumber": 0,
            "instrument": "acoustic grand piano",
            "instrumentFamily": "piano",
            "channelNumber": 0,
            "isPercussion": false
        },
        {
            "startTime": 0,
            "duration": 0,
            "length": 0,
            "notes": [],
            "controlChanges": {
                "64": [
                    {
                        "number": 64,
                        "time": 0.2590077708333333,
                        "value": 1
                    },
                    {
                        "number": 64,
                        "time": 2.20042,
                        "value": 0
                    },
                    {
                        "number": 64,
                        "time": 2.3138791562499996,
                        "value": 1
                    },
                    {
                        "number": 64,
                        "time": 3.3178207812499996,
                        "value": 0
                    },
                    {
                        "number": 64,
                        "time": 3.4794141249999995,
                        "value": 1
                    },
                    {
                        "number": 64,
                        "time": 4.40084,
                        "value": 0
                    },
                    {
                        "number": 64,
                        "time": 4.482209697916666,
                        "value": 1
                    },
                    {
                        "number": 64,
                        "time": 4.9795963020833325,
                        "value": 0
                    },
                    {
                        "number": 64,
                        "time": 5.590442062499999,
                        "value": 1
                    },
                    {
                        "number": 64,
                        "time": 6.075222093749999,
                        "value": 0
                    },
                    {
                        "number": 64,
                        "time": 6.148569427083332,
                        "value": 1
                    },
                    {
                        "number": 64,
                        "time": 6.2127483437499995,
                        "value": 0
                    },
                    {
                        "number": 64,
                        "time": 6.431644291666666,
                        "value": 1
                    },
                    {
                        "number": 64,
                        "time": 6.60126,
                        "value": 0
                    },
                    {
                        "number": 64,
                        "time": 6.892357229166667,
                        "value": 1
                    },
                    {
                        "number": 64,
                        "time": 7.442462229166667,
                        "value": 0
                    },
                    {
                        "number": 64,
                        "time": 7.798884427083333,
                        "value": 1
                    },
                    {
                        "number": 64,
                        "time": 8.263035520833334,
                        "value": 0
                    },
                    {
                        "number": 64,
                        "time": 8.397123614583334,
                        "value": 1
                    },
                    {
                        "number": 64,
                        "time": 8.534649864583335,
                        "value": 0
                    },
                    {
                        "number": 64,
                        "time": 8.899094427083334,
                        "value": 1
                    },
                    {
                        "number": 64,
                        "time": 9.363245520833335,
                        "value": 0
                    },
                    {
                        "number": 64,
                        "time": 9.497333614583335,
                        "value": 1
                    },
                    {
                        "number": 64,
                        "time": 9.634859864583335,
                        "value": 0
                    },
                    {
                        "number": 64,
                        "time": 9.999304427083334,
                        "value": 1
                    },
                    {
                        "number": 64,
                        "time": 10.463455520833335,
                        "value": 0
                    },
                    {
                        "number": 64,
                        "time": 10.597543614583335,
                        "value": 1
                    },
                    {
                        "number": 64,
                        "time": 10.738508020833335,
                        "value": 0
                    },
                    {
                        "number": 64,
                        "time": 11.099514427083335,
                        "value": 1
                    },
                    {
                        "number": 64,
                        "time": 11.561373416666669,
                        "value": 0
                    },
                    {
                        "number": 64,
                        "time": 11.657641791666668,
                        "value": 1
                    },
                    {
                        "number": 64,
                        "time": 13.202520000000002,
                        "value": 0
                    },
                    {
                        "number": 64,
                        "time": 13.283889697916669,
                        "value": 1
                    },
                    {
                        "number": 64,
                        "time": 13.760647364583335,
                        "value": 0
                    },
                    {
                        "number": 64,
                        "time": 13.850039427083335,
                        "value": 1
                    },
                    {
                        "number": 64,
                        "time": 15.402940000000001,
                        "value": 0
                    },
                    {
                        "number": 64,
                        "time": 15.482017593750001,
                        "value": 1
                    },
                    {
                        "number": 64,
                        "time": 17.605652104166666,
                        "value": 0
                    },
                    {
                        "number": 64,
                        "time": 18.01593875,
                        "value": 1
                    },
                    {
                        "number": 64,
                        "time": 22.0042,
                        "value": 0
                    },
                    {
                        "number": 64,
                        "time": 22.263207770833333,
                        "value": 1
                    },
                    {
                        "number": 64,
                        "time": 24.20462,
                        "value": 0
                    },
                    {
                        "number": 64,
                        "time": 24.318079156249997,
                        "value": 1
                    },
                    {
                        "number": 64,
                        "time": 25.322020781249996,
                        "value": 0
                    },
                    {
                        "number": 64,
                        "time": 25.483614124999995,
                        "value": 1
                    },
                    {
                        "number": 64,
                        "time": 26.405039999999996,
                        "value": 0
                    },
                    {
                        "number": 64,
                        "time": 26.486409697916663,
                        "value": 1
                    },
                    {
                        "number": 64,
                        "time": 26.98379630208333,
                        "value": 0
                    },
                    {
                        "number": 64,
                        "time": 27.594642062499997,
                        "value": 1
                    },
                    {
                        "number": 64,
                        "time": 28.079422093749997,
                        "value": 0
                    },
                    {
                        "number": 64,
                        "time": 28.15276942708333,
                        "value": 1
                    },
                    {
                        "number": 64,
                        "time": 28.216948343749998,
                        "value": 0
                    },
                    {
                        "number": 64,
                        "time": 28.435844291666665,
                        "value": 1
                    },
                    {
                        "number": 64,
                        "time": 28.605459999999997,
                        "value": 0
                    },
                    {
                        "number": 64,
                        "time": 32.197187229166666,
                        "value": 1
                    },
                    {
                        "number": 64,
                        "time": 32.74729222916667,
                        "value": 0
                    },
                    {
                        "number": 64,
                        "time": 33.10371442708333,
                        "value": 1
                    },
                    {
                        "number": 64,
                        "time": 33.56786552083333,
                        "value": 0
                    },
                    {
                        "number": 64,
                        "time": 33.70195361458333,
                        "value": 1
                    },
                    {
                        "number": 64,
                        "time": 33.83947986458333,
                        "value": 0
                    },
                    {
                        "number": 64,
                        "time": 34.20392442708333,
                        "value": 1
                    },
                    {
                        "number": 64,
                        "time": 34.66807552083333,
                        "value": 0
                    },
                    {
                        "number": 64,
                        "time": 34.80216361458333,
                        "value": 1
                    },
                    {
                        "number": 64,
                        "time": 34.93968986458333,
                        "value": 0
                    },
                    {
                        "number": 64,
                        "time": 35.304134427083326,
                        "value": 1
                    },
                    {
                        "number": 64,
                        "time": 35.768285520833324,
                        "value": 0
                    },
                    {
                        "number": 64,
                        "time": 35.902373614583325,
                        "value": 1
                    },
                    {
                        "number": 64,
                        "time": 36.043338020833325,
                        "value": 0
                    },
                    {
                        "number": 64,
                        "time": 36.40434442708332,
                        "value": 1
                    },
                    {
                        "number": 64,
                        "time": 36.86620341666666,
                        "value": 0
                    },
                    {
                        "number": 64,
                        "time": 36.96247179166666,
                        "value": 1
                    },
                    {
                        "number": 64,
                        "time": 38.50734999999999,
                        "value": 0
                    },
                    {
                        "number": 64,
                        "time": 38.58871969791665,
                        "value": 1
                    },
                    {
                        "number": 64,
                        "time": 39.065477364583316,
                        "value": 0
                    },
                    {
                        "number": 64,
                        "time": 39.15486942708332,
                        "value": 1
                    },
                    {
                        "number": 64,
                        "time": 40.70776999999999,
                        "value": 0
                    },
                    {
                        "number": 64,
                        "time": 40.78684759374999,
                        "value": 1
                    },
                    {
                        "number": 64,
                        "time": 42.910482104166654,
                        "value": 0
                    },
                    {
                        "number": 64,
                        "time": 43.320768749999985,
                        "value": 1
                    },
                    {
                        "number": 64,
                        "time": 46.82424996874998,
                        "value": 0
                    },
                    {
                        "number": 64,
                        "time": 48.46883470833332,
                        "value": 1
                    },
                    {
                        "number": 64,
                        "time": 48.985704197916654,
                        "value": 0
                    },
                    {
                        "number": 64,
                        "time": 50.629142885416655,
                        "value": 1
                    },
                    {
                        "number": 64,
                        "time": 50.89158881249999,
                        "value": 0
                    },
                    {
                        "number": 64,
                        "time": 51.775194968749986,
                        "value": 1
                    },
                    {
                        "number": 64,
                        "time": 52.267997364583316,
                        "value": 0
                    },
                    {
                        "number": 64,
                        "time": 52.97396544791665,
                        "value": 1
                    },
                    {
                        "number": 64,
                        "time": 53.42550996874998,
                        "value": 0
                    },
                    {
                        "number": 64,
                        "time": 55.42995506249998,
                        "value": 1
                    },
                    {
                        "number": 64,
                        "time": 56.134777093749975,
                        "value": 0
                    },
                    {
                        "number": 64,
                        "time": 56.530165062499975,
                        "value": 1
                    },
                    {
                        "number": 64,
                        "time": 57.228110781249974,
                        "value": 0
                    },
                    {
                        "number": 64,
                        "time": 57.35646861458331,
                        "value": 1
                    },
                    {
                        "number": 64,
                        "time": 58.0406617083333,
                        "value": 0
                    },
                    {
                        "number": 64,
                        "time": 63.89354969791663,
                        "value": 1
                    },
                    {
                        "number": 64,
                        "time": 64.6453598645833,
                        "value": 0
                    },
                    {
                        "number": 64,
                        "time": 65.00178206249997,
                        "value": 1
                    },
                    {
                        "number": 64,
                        "time": 65.76390669791664,
                        "value": 0
                    },
                    {
                        "number": 64,
                        "time": 66.08594733333331,
                        "value": 1
                    },
                    {
                        "number": 64,
                        "time": 68.21301999999997,
                        "value": 0
                    },
                    {
                        "number": 64,
                        "time": 68.86053942708331,
                        "value": 1
                    },
                    {
                        "number": 64,
                        "time": 69.33729709374998,
                        "value": 0
                    },
                    {
                        "number": 64,
                        "time": 69.46680097916665,
                        "value": 1
                    },
                    {
                        "number": 64,
                        "time": 69.87364946874999,
                        "value": 0
                    },
                    {
                        "number": 64,
                        "time": 69.96074942708333,
                        "value": 1
                    },
                    {
                        "number": 64,
                        "time": 70.42375446874999,
                        "value": 0
                    },
                    {
                        "number": 64,
                        "time": 70.60826885416665,
                        "value": 1
                    },
                    {
                        "number": 64,
                        "time": 71.24318170833332,
                        "value": 0
                    },
                    {
                        "number": 64,
                        "time": 77.09606969791666,
                        "value": 1
                    },
                    {
                        "number": 64,
                        "time": 77.84787986458333,
                        "value": 0
                    },
                    {
                        "number": 64,
                        "time": 78.2043020625,
                        "value": 1
                    },
                    {
                        "number": 64,
                        "time": 78.96642669791667,
                        "value": 0
                    },
                    {
                        "number": 64,
                        "time": 79.28846733333334,
                        "value": 1
                    },
                    {
                        "number": 64,
                        "time": 80.46087861458335,
                        "value": 0
                    },
                    {
                        "number": 64,
                        "time": 80.59725881250002,
                        "value": 1
                    },
                    {
                        "number": 64,
                        "time": 80.89867051041668,
                        "value": 0
                    },
                    {
                        "number": 64,
                        "time": 82.06305942708335,
                        "value": 1
                    },
                    {
                        "number": 64,
                        "time": 82.06305942708335,
                        "value": 1
                    },
                    {
                        "number": 64,
                        "time": 82.53179472916668,
                        "value": 0
                    },
                    {
                        "number": 64,
                        "time": 83.10711287500001,
                        "value": 1
                    },
                    {
                        "number": 64,
                        "time": 83.61596000000002,
                        "value": 0
                    },
                    {
                        "number": 64,
                        "time": 83.66180208333334,
                        "value": 1
                    },
                    {
                        "number": 64,
                        "time": 83.932270375,
                        "value": 0
                    },
                    {
                        "number": 64,
                        "time": 84.23826628125,
                        "value": 1
                    },
                    {
                        "number": 64,
                        "time": 84.74825945833334,
                        "value": 0
                    },
                    {
                        "number": 64,
                        "time": 85.08290666666667,
                        "value": 1
                    },
                    {
                        "number": 64,
                        "time": 85.68916821875001,
                        "value": 0
                    },
                    {
                        "number": 64,
                        "time": 85.74417871875,
                        "value": 1
                    },
                    {
                        "number": 64,
                        "time": 85.82669446875,
                        "value": 0
                    },
                    {
                        "number": 64,
                        "time": 86.02725358333333,
                        "value": 1
                    },
                    {
                        "number": 64,
                        "time": 86.92805052083334,
                        "value": 0
                    },
                    {
                        "number": 64,
                        "time": 87.02546494791667,
                        "value": 1
                    },
                    {
                        "number": 64,
                        "time": 88.02826052083334,
                        "value": 0
                    },
                    {
                        "number": 64,
                        "time": 88.12567494791668,
                        "value": 1
                    },
                    {
                        "number": 64,
                        "time": 89.12847052083335,
                        "value": 0
                    },
                    {
                        "number": 64,
                        "time": 89.22588494791668,
                        "value": 1
                    },
                    {
                        "number": 64,
                        "time": 90.21722000000001,
                        "value": 0
                    },
                    {
                        "number": 64,
                        "time": 90.30317390625001,
                        "value": 1
                    },
                    {
                        "number": 64,
                        "time": 90.78107762500001,
                        "value": 0
                    },
                    {
                        "number": 64,
                        "time": 90.88536836458334,
                        "value": 1
                    },
                    {
                        "number": 64,
                        "time": 91.32774446875001,
                        "value": 0
                    },
                    {
                        "number": 64,
                        "time": 91.40911416666668,
                        "value": 1
                    },
                    {
                        "number": 64,
                        "time": 91.88701788541668,
                        "value": 0
                    },
                    {
                        "number": 64,
                        "time": 92.02454413541668,
                        "value": 1
                    },
                    {
                        "number": 64,
                        "time": 92.43024657291667,
                        "value": 0
                    },
                    {
                        "number": 64,
                        "time": 92.48296496875001,
                        "value": 1
                    },
                    {
                        "number": 64,
                        "time": 92.98149762500002,
                        "value": 0
                    },
                    {
                        "number": 64,
                        "time": 93.09266467708335,
                        "value": 1
                    },
                    {
                        "number": 64,
                        "time": 93.53389472916668,
                        "value": 0
                    },
                    {
                        "number": 64,
                        "time": 93.59005128125001,
                        "value": 1
                    },
                    {
                        "number": 64,
                        "time": 94.08514578125,
                        "value": 0
                    },
                    {
                        "number": 64,
                        "time": 94.23184044791667,
                        "value": 1
                    },
                    {
                        "number": 64,
                        "time": 94.63525078125,
                        "value": 0
                    },
                    {
                        "number": 64,
                        "time": 94.72005863541666,
                        "value": 1
                    },
                    {
                        "number": 64,
                        "time": 95.58074375,
                        "value": 0
                    },
                    {
                        "number": 64,
                        "time": 95.75494366666666,
                        "value": 1
                    },
                    {
                        "number": 64,
                        "time": 96.612190625,
                        "value": 0
                    },
                    {
                        "number": 64,
                        "time": 96.95600625,
                        "value": 1
                    },
                    {
                        "number": 64,
                        "time": 98.21093328125,
                        "value": 0
                    },
                    {
                        "number": 64,
                        "time": 98.30261744791667,
                        "value": 1
                    },
                    {
                        "number": 64,
                        "time": 99.30885117708334,
                        "value": 0
                    },
                    {
                        "number": 64,
                        "time": 99.38105245833334,
                        "value": 1
                    },
                    {
                        "number": 64,
                        "time": 100.42166775000001,
                        "value": 0
                    },
                    {
                        "number": 64,
                        "time": 100.49616113541668,
                        "value": 1
                    },
                    {
                        "number": 64,
                        "time": 101.50239486458335,
                        "value": 0
                    },
                    {
                        "number": 64,
                        "time": 101.58834877083335,
                        "value": 1
                    },
                    {
                        "number": 64,
                        "time": 102.60948117708335,
                        "value": 0
                    },
                    {
                        "number": 64,
                        "time": 102.6965811354167,
                        "value": 1
                    },
                    {
                        "number": 64,
                        "time": 104.51995000000002,
                        "value": 0
                    },
                    {
                        "number": 64,
                        "time": 104.60017364583335,
                        "value": 1
                    },
                    {
                        "number": 64,
                        "time": 105.08036946875002,
                        "value": 0
                    },
                    {
                        "number": 64,
                        "time": 105.17892994791669,
                        "value": 1
                    },
                    {
                        "number": 64,
                        "time": 105.63505867708335,
                        "value": 0
                    },
                    {
                        "number": 64,
                        "time": 105.74393362500001,
                        "value": 1
                    },
                    {
                        "number": 64,
                        "time": 106.20693866666667,
                        "value": 0
                    },
                    {
                        "number": 64,
                        "time": 106.27226363541668,
                        "value": 1
                    },
                    {
                        "number": 64,
                        "time": 106.72037000000002,
                        "value": 0
                    },
                    {
                        "number": 64,
                        "time": 106.84185152083334,
                        "value": 1
                    },
                    {
                        "number": 64,
                        "time": 107.29454209375001,
                        "value": 0
                    },
                    {
                        "number": 64,
                        "time": 107.39997888541667,
                        "value": 1
                    },
                    {
                        "number": 64,
                        "time": 107.82860236458333,
                        "value": 0
                    },
                    {
                        "number": 64,
                        "time": 107.92601679166667,
                        "value": 1
                    },
                    {
                        "number": 64,
                        "time": 108.38672972916667,
                        "value": 0
                    },
                    {
                        "number": 64,
                        "time": 108.48414415625001,
                        "value": 1
                    },
                    {
                        "number": 64,
                        "time": 108.92079000000001,
                        "value": 0
                    },
                    {
                        "number": 64,
                        "time": 108.98611496875002,
                        "value": 1
                    },
                    {
                        "number": 64,
                        "time": 109.79178958333335,
                        "value": 0
                    },
                    {
                        "number": 64,
                        "time": 111.24269152083336,
                        "value": 1
                    },
                    {
                        "number": 64,
                        "time": 111.95668196875003,
                        "value": 0
                    },
                    {
                        "number": 64,
                        "time": 112.28674496875003,
                        "value": 1
                    },
                    {
                        "number": 64,
                        "time": 113.06262222916669,
                        "value": 0
                    },
                    {
                        "number": 64,
                        "time": 113.41102206250002,
                        "value": 1
                    },
                    {
                        "number": 64,
                        "time": 114.1628322291667,
                        "value": 0
                    },
                    {
                        "number": 64,
                        "time": 114.56738861458336,
                        "value": 1
                    },
                    {
                        "number": 64,
                        "time": 114.98684367708337,
                        "value": 0
                    },
                    {
                        "number": 64,
                        "time": 115.57133023958338,
                        "value": 1
                    },
                    {
                        "number": 64,
                        "time": 118.56596433333337,
                        "value": 0
                    },
                    {
                        "number": 64,
                        "time": 118.68515375000004,
                        "value": 1
                    },
                    {
                        "number": 64,
                        "time": 119.92289000000004,
                        "value": 0
                    },
                    {
                        "number": 64,
                        "time": 120.12574121875004,
                        "value": 1
                    },
                    {
                        "number": 64,
                        "time": 120.47872526041671,
                        "value": 0
                    },
                    {
                        "number": 64,
                        "time": 120.6471949166667,
                        "value": 1
                    },
                    {
                        "number": 64,
                        "time": 121.04716709375003,
                        "value": 0
                    },
                    {
                        "number": 64,
                        "time": 121.22595121875004,
                        "value": 1
                    },
                    {
                        "number": 64,
                        "time": 121.44713927083338,
                        "value": 0
                    },
                    {
                        "number": 64,
                        "time": 121.52507081250005,
                        "value": 1
                    },
                    {
                        "number": 64,
                        "time": 122.13935472916671,
                        "value": 0
                    },
                    {
                        "number": 64,
                        "time": 122.20467969791672,
                        "value": 1
                    },
                    {
                        "number": 64,
                        "time": 123.30488969791672,
                        "value": 0
                    }
                ]
            },
            "id": 3,
            "name": "Pedale",
            "instrumentNumber": 0,
            "instrument": "acoustic grand piano",
            "instrumentFamily": "piano",
            "channelNumber": 0,
            "isPercussion": false
        },
        {
            "startTime": 0,
            "duration": 0,
            "length": 0,
            "notes": [],
            "controlChanges": {},
            "id": 4,
            "name": "Rachmaninov: Etudes-Tableux Opus 33 No. 6"
        },
        {
            "startTime": 0,
            "duration": 0,
            "length": 0,
            "notes": [],
            "controlChanges": {},
            "id": 5,
            "name": "Copyright  2013 by Bernd Krueger"
        },
        {
            "startTime": 0,
            "duration": 0,
            "length": 0,
            "notes": [],
            "controlChanges": {},
            "id": 6,
            "name": "http://www.piano-midi.de/"
        },
        {
            "startTime": 0,
            "duration": 0,
            "length": 0,
            "notes": [],
            "controlChanges": {},
            "id": 7,
            "name": "Edition: 2013-02-27"
        },
        {
            "startTime": 0,
            "duration": 0,
            "length": 0,
            "notes": [],
            "controlChanges": {},
            "id": 8,
            "name": "Spur 8"
        },
        {
            "startTime": 0,
            "duration": 0,
            "length": 0,
            "notes": [],
            "controlChanges": {},
            "id": 9,
            "name": "Spur 9"
        },
        {
            "startTime": 0,
            "duration": 0,
            "length": 0,
            "notes": [],
            "controlChanges": {},
            "id": 10,
            "name": "Spur 10"
        },
        {
            "startTime": 0,
            "duration": 0,
            "length": 0,
            "notes": [],
            "controlChanges": {},
            "id": 11,
            "name": "Spur 11"
        },
        {
            "startTime": 0,
            "duration": 0,
            "length": 0,
            "notes": [],
            "controlChanges": {},
            "id": 12,
            "name": "Spur 12"
        },
        {
            "startTime": 0,
            "duration": 0,
            "length": 0,
            "notes": [],
            "controlChanges": {},
            "id": 13,
            "name": "Spur 13"
        },
        {
            "startTime": 0,
            "duration": 0,
            "length": 0,
            "notes": [],
            "controlChanges": {},
            "id": 14,
            "name": "Spur 14"
        },
        {
            "startTime": 0,
            "duration": 0,
            "length": 0,
            "notes": [],
            "controlChanges": {},
            "id": 15,
            "name": "Spur 15"
        },
        {
            "startTime": 0,
            "duration": 0,
            "length": 0,
            "notes": [],
            "controlChanges": {},
            "id": 16,
            "name": "Spur 16"
        }
    ]
}