{
    "header": {
        "PPQ": 256,
        "timeSignature": [
            3,
            4
        ],
        "bpm": 100,
        "name": "Bolero"
    },
    "startTime": 0,
    "duration": 66.50156250000047,
    "tracks": [
        {
            "startTime": 0,
            "duration": 0,
            "length": 0,
            "notes": [],
            "controlChanges": {},
            "id": 0,
            "name": "Bolero"
        },
        {
            "startTime": 0,
            "duration": 66.50156250000047,
            "length": 512,
            "notes": [
                {
                    "name": "C3",
                    "midi": 48,
                    "time": 0,
                    "velocity": 0.2440944881889764,
                    "duration": 0.3
                },
                {
                    "name": "G3",
                    "midi": 55,
                    "time": 0,
                    "velocity": 0.2440944881889764,
                    "duration": 0.3
                },
                {
                    "name": "G3",
                    "midi": 55,
                    "time": 0.3,
                    "velocity": 0.25196850393700787,
                    "duration": 0.07500000000000001
                },
                {
                    "name": "G3",
                    "midi": 55,
                    "time": 0.45,
                    "velocity": 0.2992125984251969,
                    "duration": 0.07500000000000001
                },
                {
                    "name": "G3",
                    "midi": 55,
                    "time": 0.6,
                    "velocity": 0.2992125984251969,
                    "duration": 0.20156249999999998
                },
                {
                    "name": "G3",
                    "midi": 55,
                    "time": 0.8999999999999999,
                    "velocity": 0.2677165354330709,
                    "duration": 0.2015625000000001
                },
                {
                    "name": "G2",
                    "midi": 43,
                    "time": 1.2,
                    "velocity": 0.25984251968503935,
                    "duration": 0.2015625000000001
                },
                {
                    "name": "G3",
                    "midi": 55,
                    "time": 1.2,
                    "velocity": 0.25984251968503935,
                    "duration": 0.2015625000000001
                },
                {
                    "name": "G3",
                    "midi": 55,
                    "time": 1.5,
                    "velocity": 0.2677165354330709,
                    "duration": 0.2015625000000001
                },
                {
                    "name": "C3",
                    "midi": 48,
                    "time": 1.8,
                    "velocity": 0.25196850393700787,
                    "duration": 0.20156249999999987
                },
                {
                    "name": "G3",
                    "midi": 55,
                    "time": 1.8,
                    "velocity": 0.25196850393700787,
                    "duration": 0.20156249999999987
                },
                {
                    "name": "G3",
                    "midi": 55,
                    "time": 2.1,
                    "velocity": 0.25196850393700787,
                    "duration": 0.07500000000000018
                },
                {
                    "name": "G3",
                    "midi": 55,
                    "time": 2.2500000000000004,
                    "velocity": 0.29133858267716534,
                    "duration": 0.07500000000000018
                },
                {
                    "name": "G3",
                    "midi": 55,
                    "time": 2.400000000000001,
                    "velocity": 0.2755905511811024,
                    "duration": 0.2015625000000001
                },
                {
                    "name": "G3",
                    "midi": 55,
                    "time": 2.700000000000001,
                    "velocity": 0.2992125984251969,
                    "duration": 0.2015625000000001
                },
                {
                    "name": "G2",
                    "midi": 43,
                    "time": 3.0000000000000013,
                    "velocity": 0.25984251968503935,
                    "duration": 0.2015625000000001
                },
                {
                    "name": "G3",
                    "midi": 55,
                    "time": 3.0000000000000013,
                    "velocity": 0.25984251968503935,
                    "duration": 0.2015625000000001
                },
                {
                    "name": "G3",
                    "midi": 55,
                    "time": 3.3000000000000016,
                    "velocity": 0.2755905511811024,
                    "duration": 0.2015625000000001
                },
                {
                    "name": "C5",
                    "midi": 72,
                    "time": 3.600000000000002,
                    "velocity": 0.2283464566929134,
                    "duration": 0.9000000000000008
                },
                {
                    "name": "C3",
                    "midi": 48,
                    "time": 3.600000000000002,
                    "velocity": 0.29133858267716534,
                    "duration": 0.2015625000000001
                },
                {
                    "name": "G3",
                    "midi": 55,
                    "time": 3.600000000000002,
                    "velocity": 0.29133858267716534,
                    "duration": 0.2015625000000001
                },
                {
                    "name": "G3",
                    "midi": 55,
                    "time": 3.900000000000002,
                    "velocity": 0.25196850393700787,
                    "duration": 0.07500000000000018
                },
                {
                    "name": "G3",
                    "midi": 55,
                    "time": 4.0500000000000025,
                    "velocity": 0.23622047244094488,
                    "duration": 0.07500000000000018
                },
                {
                    "name": "G3",
                    "midi": 55,
                    "time": 4.200000000000003,
                    "velocity": 0.29133858267716534,
                    "duration": 0.20156249999999964
                },
                {
                    "name": "B4",
                    "midi": 71,
                    "time": 4.500000000000003,
                    "velocity": 0.2755905511811024,
                    "duration": 0.15000000000000036
                },
                {
                    "name": "G3",
                    "midi": 55,
                    "time": 4.500000000000003,
                    "velocity": 0.30708661417322836,
                    "duration": 0.20156250000000053
                },
                {
                    "name": "C5",
                    "midi": 72,
                    "time": 4.650000000000003,
                    "velocity": 0.2992125984251969,
                    "duration": 0.15000000000000036
                },
                {
                    "name": "D5",
                    "midi": 74,
                    "time": 4.800000000000003,
                    "velocity": 0.28346456692913385,
                    "duration": 0.15000000000000036
                },
                {
                    "name": "G2",
                    "midi": 43,
                    "time": 4.800000000000003,
                    "velocity": 0.33858267716535434,
                    "duration": 0.20156250000000053
                },
                {
                    "name": "G3",
                    "midi": 55,
                    "time": 4.800000000000003,
                    "velocity": 0.33858267716535434,
                    "duration": 0.20156250000000053
                },
                {
                    "name": "C5",
                    "midi": 72,
                    "time": 4.950000000000004,
                    "velocity": 0.2125984251968504,
                    "duration": 0.15000000000000036
                },
                {
                    "name": "B4",
                    "midi": 71,
                    "time": 5.100000000000004,
                    "velocity": 0.29133858267716534,
                    "duration": 0.15000000000000036
                },
                {
                    "name": "G3",
                    "midi": 55,
                    "time": 5.100000000000004,
                    "velocity": 0.2992125984251969,
                    "duration": 0.20156250000000053
                },
                {
                    "name": "A4",
                    "midi": 69,
                    "time": 5.250000000000004,
                    "velocity": 0.2755905511811024,
                    "duration": 0.15000000000000036
                },
                {
                    "name": "C5",
                    "midi": 72,
                    "time": 5.400000000000005,
                    "velocity": 0.33070866141732286,
                    "duration": 0.2390624999999993
                },
                {
                    "name": "C3",
                    "midi": 48,
                    "time": 5.400000000000005,
                    "velocity": 0.30708661417322836,
                    "duration": 0.20156249999999964
                },
                {
                    "name": "G3",
                    "midi": 55,
                    "time": 5.400000000000005,
                    "velocity": 0.30708661417322836,
                    "duration": 0.20156249999999964
                },
                {
                    "name": "C5",
                    "midi": 72,
                    "time": 5.700000000000004,
                    "velocity": 0.25196850393700787,
                    "duration": 0.15000000000000036
                },
                {
                    "name": "G3",
                    "midi": 55,
                    "time": 5.700000000000004,
                    "velocity": 0.25196850393700787,
                    "duration": 0.07500000000000018
                },
                {
                    "name": "A4",
                    "midi": 69,
                    "time": 5.850000000000004,
                    "velocity": 0.25196850393700787,
                    "duration": 0.15000000000000036
                },
                {
                    "name": "G3",
                    "midi": 55,
                    "time": 5.850000000000004,
                    "velocity": 0.28346456692913385,
                    "duration": 0.07500000000000018
                },
                {
                    "name": "C5",
                    "midi": 72,
                    "time": 6.000000000000004,
                    "velocity": 0.25984251968503935,
                    "duration": 0.8390624999999989
                },
                {
                    "name": "G3",
                    "midi": 55,
                    "time": 6.000000000000004,
                    "velocity": 0.28346456692913385,
                    "duration": 0.20156249999999964
                },
                {
                    "name": "G3",
                    "midi": 55,
                    "time": 6.300000000000004,
                    "velocity": 0.2755905511811024,
                    "duration": 0.20156249999999964
                },
                {
                    "name": "G2",
                    "midi": 43,
                    "time": 6.600000000000004,
                    "velocity": 0.2992125984251969,
                    "duration": 0.20156249999999964
                },
                {
                    "name": "G3",
                    "midi": 55,
                    "time": 6.600000000000004,
                    "velocity": 0.2992125984251969,
                    "duration": 0.20156249999999964
                },
                {
                    "name": "B4",
                    "midi": 71,
                    "time": 6.900000000000003,
                    "velocity": 0.2755905511811024,
                    "duration": 0.15000000000000036
                },
                {
                    "name": "G3",
                    "midi": 55,
                    "time": 6.900000000000003,
                    "velocity": 0.28346456692913385,
                    "duration": 0.20156250000000053
                },
                {
                    "name": "C5",
                    "midi": 72,
                    "time": 7.050000000000003,
                    "velocity": 0.2992125984251969,
                    "duration": 0.15000000000000036
                },
                {
                    "name": "A4",
                    "midi": 69,
                    "time": 7.200000000000004,
                    "velocity": 0.28346456692913385,
                    "duration": 0.15000000000000036
                },
                {
                    "name": "C3",
                    "midi": 48,
                    "time": 7.200000000000004,
                    "velocity": 0.2755905511811024,
                    "duration": 0.20156250000000053
                },
                {
                    "name": "G3",
                    "midi": 55,
                    "time": 7.200000000000004,
                    "velocity": 0.2755905511811024,
                    "duration": 0.20156250000000053
                },
                {
                    "name": "G4",
                    "midi": 67,
                    "time": 7.350000000000004,
                    "velocity": 0.28346456692913385,
                    "duration": 0.15000000000000036
                },
                {
                    "name": "E4",
                    "midi": 64,
                    "time": 7.500000000000004,
                    "velocity": 0.2440944881889764,
                    "duration": 0.15000000000000036
                },
                {
                    "name": "G3",
                    "midi": 55,
                    "time": 7.500000000000004,
                    "velocity": 0.2440944881889764,
                    "duration": 0.07500000000000018
                },
                {
                    "name": "F4",
                    "midi": 65,
                    "time": 7.650000000000005,
                    "velocity": 0.29133858267716534,
                    "duration": 0.15000000000000036
                },
                {
                    "name": "G3",
                    "midi": 55,
                    "time": 7.650000000000005,
                    "velocity": 0.2755905511811024,
                    "duration": 0.07500000000000018
                },
                {
                    "name": "G4",
                    "midi": 67,
                    "time": 7.800000000000005,
                    "velocity": 0.28346456692913385,
                    "duration": 1.9195312499999924
                },
                {
                    "name": "G3",
                    "midi": 55,
                    "time": 7.800000000000005,
                    "velocity": 0.28346456692913385,
                    "duration": 0.20156250000000053
                },
                {
                    "name": "G3",
                    "midi": 55,
                    "time": 8.100000000000005,
                    "velocity": 0.2677165354330709,
                    "duration": 0.20156249999999964
                },
                {
                    "name": "G2",
                    "midi": 43,
                    "time": 8.400000000000004,
                    "velocity": 0.28346456692913385,
                    "duration": 0.20156249999999964
                },
                {
                    "name": "G3",
                    "midi": 55,
                    "time": 8.400000000000004,
                    "velocity": 0.28346456692913385,
                    "duration": 0.20156249999999964
                },
                {
                    "name": "G3",
                    "midi": 55,
                    "time": 8.700000000000003,
                    "velocity": 0.2677165354330709,
                    "duration": 0.20156249999999964
                },
                {
                    "name": "C3",
                    "midi": 48,
                    "time": 9.000000000000002,
                    "velocity": 0.28346456692913385,
                    "duration": 0.20156249999999964
                },
                {
                    "name": "G3",
                    "midi": 55,
                    "time": 9.000000000000002,
                    "velocity": 0.28346456692913385,
                    "duration": 0.20156249999999964
                },
                {
                    "name": "G3",
                    "midi": 55,
                    "time": 9.3,
                    "velocity": 0.2677165354330709,
                    "duration": 0.07499999999999929
                },
                {
                    "name": "G3",
                    "midi": 55,
                    "time": 9.45,
                    "velocity": 0.29133858267716534,
                    "duration": 0.07499999999999929
                },
                {
                    "name": "G3",
                    "midi": 55,
                    "time": 9.599999999999998,
                    "velocity": 0.2755905511811024,
                    "duration": 0.20156249999999964
                },
                {
                    "name": "A4",
                    "midi": 69,
                    "time": 9.749999999999998,
                    "velocity": 0.2992125984251969,
                    "duration": 0.14999999999999858
                },
                {
                    "name": "B4",
                    "midi": 71,
                    "time": 9.899999999999997,
                    "velocity": 0.29133858267716534,
                    "duration": 0.15000000000000036
                },
                {
                    "name": "G3",
                    "midi": 55,
                    "time": 9.899999999999997,
                    "velocity": 0.2755905511811024,
                    "duration": 0.20156249999999964
                },
                {
                    "name": "A4",
                    "midi": 69,
                    "time": 10.049999999999997,
                    "velocity": 0.2755905511811024,
                    "duration": 0.14999999999999858
                },
                {
                    "name": "G4",
                    "midi": 67,
                    "time": 10.199999999999996,
                    "velocity": 0.25984251968503935,
                    "duration": 0.15000000000000036
                },
                {
                    "name": "G2",
                    "midi": 43,
                    "time": 10.199999999999996,
                    "velocity": 0.2755905511811024,
                    "duration": 0.20156249999999964
                },
                {
                    "name": "G3",
                    "midi": 55,
                    "time": 10.199999999999996,
                    "velocity": 0.2755905511811024,
                    "duration": 0.20156249999999964
                },
                {
                    "name": "F4",
                    "midi": 65,
                    "time": 10.349999999999996,
                    "velocity": 0.28346456692913385,
                    "duration": 0.14999999999999858
                },
                {
                    "name": "E4",
                    "midi": 64,
                    "time": 10.499999999999995,
                    "velocity": 0.2440944881889764,
                    "duration": 0.15000000000000036
                },
                {
                    "name": "G3",
                    "midi": 55,
                    "time": 10.499999999999995,
                    "velocity": 0.25196850393700787,
                    "duration": 0.20156249999999964
                },
                {
                    "name": "D4",
                    "midi": 62,
                    "time": 10.649999999999995,
                    "velocity": 0.2677165354330709,
                    "duration": 0.14999999999999858
                },
                {
                    "name": "E4",
                    "midi": 64,
                    "time": 10.799999999999994,
                    "velocity": 0.30708661417322836,
                    "duration": 0.15000000000000036
                },
                {
                    "name": "C3",
                    "midi": 48,
                    "time": 10.799999999999994,
                    "velocity": 0.25984251968503935,
                    "duration": 0.20156249999999964
                },
                {
                    "name": "G3",
                    "midi": 55,
                    "time": 10.799999999999994,
                    "velocity": 0.25984251968503935,
                    "duration": 0.20156249999999964
                },
                {
                    "name": "D4",
                    "midi": 62,
                    "time": 10.949999999999994,
                    "velocity": 0.25984251968503935,
                    "duration": 0.14999999999999858
                },
                {
                    "name": "C4",
                    "midi": 60,
                    "time": 11.099999999999993,
                    "velocity": 0.25984251968503935,
                    "duration": 0.5015624999999968
                },
                {
                    "name": "G3",
                    "midi": 55,
                    "time": 11.099999999999993,
                    "velocity": 0.2677165354330709,
                    "duration": 0.07499999999999929
                },
                {
                    "name": "G3",
                    "midi": 55,
                    "time": 11.249999999999991,
                    "velocity": 0.25196850393700787,
                    "duration": 0.07499999999999929
                },
                {
                    "name": "G3",
                    "midi": 55,
                    "time": 11.39999999999999,
                    "velocity": 0.31496062992125984,
                    "duration": 0.20156249999999964
                },
                {
                    "name": "C4",
                    "midi": 60,
                    "time": 11.699999999999989,
                    "velocity": 0.2283464566929134,
                    "duration": 0.15000000000000036
                },
                {
                    "name": "G3",
                    "midi": 55,
                    "time": 11.699999999999989,
                    "velocity": 0.31496062992125984,
                    "duration": 0.20156249999999964
                },
                {
                    "name": "D4",
                    "midi": 62,
                    "time": 11.849999999999989,
                    "velocity": 0.29133858267716534,
                    "duration": 0.14999999999999858
                },
                {
                    "name": "E4",
                    "midi": 64,
                    "time": 11.999999999999988,
                    "velocity": 0.2677165354330709,
                    "duration": 0.1640625
                },
                {
                    "name": "G2",
                    "midi": 43,
                    "time": 11.999999999999988,
                    "velocity": 0.29133858267716534,
                    "duration": 0.20156249999999964
                },
                {
                    "name": "G3",
                    "midi": 55,
                    "time": 11.999999999999988,
                    "velocity": 0.29133858267716534,
                    "duration": 0.20156249999999964
                },
                {
                    "name": "F4",
                    "midi": 65,
                    "time": 12.299999999999986,
                    "velocity": 0.29133858267716534,
                    "duration": 0.1640625
                },
                {
                    "name": "G3",
                    "midi": 55,
                    "time": 12.299999999999986,
                    "velocity": 0.31496062992125984,
                    "duration": 0.20156249999999964
                },
                {
                    "name": "D4",
                    "midi": 62,
                    "time": 12.599999999999985,
                    "velocity": 0.2440944881889764,
                    "duration": 0.5999999999999961
                },
                {
                    "name": "C3",
                    "midi": 48,
                    "time": 12.599999999999985,
                    "velocity": 0.28346456692913385,
                    "duration": 0.20156249999999964
                },
                {
                    "name": "G3",
                    "midi": 55,
                    "time": 12.599999999999985,
                    "velocity": 0.28346456692913385,
                    "duration": 0.20156249999999964
                },
                {
                    "name": "G3",
                    "midi": 55,
                    "time": 12.899999999999984,
                    "velocity": 0.2755905511811024,
                    "duration": 0.07499999999999929
                },
                {
                    "name": "G3",
                    "midi": 55,
                    "time": 13.049999999999983,
                    "velocity": 0.30708661417322836,
                    "duration": 0.07499999999999929
                },
                {
                    "name": "G4",
                    "midi": 67,
                    "time": 13.199999999999982,
                    "velocity": 0.30708661417322836,
                    "duration": 2.3015624999999904
                },
                {
                    "name": "G3",
                    "midi": 55,
                    "time": 13.199999999999982,
                    "velocity": 0.2677165354330709,
                    "duration": 0.20156249999999964
                },
                {
                    "name": "G3",
                    "midi": 55,
                    "time": 13.49999999999998,
                    "velocity": 0.29133858267716534,
                    "duration": 0.20156249999999964
                },
                {
                    "name": "G2",
                    "midi": 43,
                    "time": 13.79999999999998,
                    "velocity": 0.3228346456692913,
                    "duration": 0.20156249999999964
                },
                {
                    "name": "G3",
                    "midi": 55,
                    "time": 13.79999999999998,
                    "velocity": 0.3228346456692913,
                    "duration": 0.20156249999999964
                },
                {
                    "name": "G3",
                    "midi": 55,
                    "time": 14.099999999999978,
                    "velocity": 0.2677165354330709,
                    "duration": 0.20156249999999964
                },
                {
                    "name": "C3",
                    "midi": 48,
                    "time": 14.399999999999977,
                    "velocity": 0.29133858267716534,
                    "duration": 0.20156249999999964
                },
                {
                    "name": "G3",
                    "midi": 55,
                    "time": 14.399999999999977,
                    "velocity": 0.29133858267716534,
                    "duration": 0.20156249999999964
                },
                {
                    "name": "G3",
                    "midi": 55,
                    "time": 14.699999999999976,
                    "velocity": 0.2677165354330709,
                    "duration": 0.07499999999999929
                },
                {
                    "name": "G3",
                    "midi": 55,
                    "time": 14.849999999999975,
                    "velocity": 0.2992125984251969,
                    "duration": 0.07499999999999929
                },
                {
                    "name": "G3",
                    "midi": 55,
                    "time": 14.999999999999973,
                    "velocity": 0.2677165354330709,
                    "duration": 0.20156249999999964
                },
                {
                    "name": "G3",
                    "midi": 55,
                    "time": 15.299999999999972,
                    "velocity": 0.29133858267716534,
                    "duration": 0.20156249999999964
                },
                {
                    "name": "G2",
                    "midi": 43,
                    "time": 15.599999999999971,
                    "velocity": 0.28346456692913385,
                    "duration": 0.20156249999999964
                },
                {
                    "name": "G3",
                    "midi": 55,
                    "time": 15.599999999999971,
                    "velocity": 0.28346456692913385,
                    "duration": 0.20156249999999964
                },
                {
                    "name": "G3",
                    "midi": 55,
                    "time": 15.89999999999997,
                    "velocity": 0.30708661417322836,
                    "duration": 0.20156250000000142
                },
                {
                    "name": "D5",
                    "midi": 74,
                    "time": 16.19999999999997,
                    "velocity": 0.5511811023622047,
                    "duration": 1.0499999999999972
                },
                {
                    "name": "C3",
                    "midi": 48,
                    "time": 16.19999999999997,
                    "velocity": 0.6771653543307087,
                    "duration": 0.20156250000000142
                },
                {
                    "name": "G3",
                    "midi": 55,
                    "time": 16.19999999999997,
                    "velocity": 0.6771653543307087,
                    "duration": 0.20156250000000142
                },
                {
                    "name": "G3",
                    "midi": 55,
                    "time": 16.49999999999997,
                    "velocity": 0.6299212598425197,
                    "duration": 0.07499999999999929
                },
                {
                    "name": "G3",
                    "midi": 55,
                    "time": 16.64999999999997,
                    "velocity": 0.6456692913385826,
                    "duration": 0.07499999999999929
                },
                {
                    "name": "G3",
                    "midi": 55,
                    "time": 16.79999999999997,
                    "velocity": 0.6299212598425197,
                    "duration": 0.20156250000000142
                },
                {
                    "name": "G3",
                    "midi": 55,
                    "time": 17.09999999999997,
                    "velocity": 0.6377952755905512,
                    "duration": 0.20156249999999787
                },
                {
                    "name": "C5",
                    "midi": 72,
                    "time": 17.249999999999968,
                    "velocity": 0.5826771653543307,
                    "duration": 0.14999999999999858
                },
                {
                    "name": "B4",
                    "midi": 71,
                    "time": 17.399999999999967,
                    "velocity": 0.6141732283464567,
                    "duration": 0.14999999999999858
                },
                {
                    "name": "G2",
                    "midi": 43,
                    "time": 17.399999999999967,
                    "velocity": 0.5984251968503937,
                    "duration": 0.20156249999999787
                },
                {
                    "name": "G3",
                    "midi": 55,
                    "time": 17.399999999999967,
                    "velocity": 0.5984251968503937,
                    "duration": 0.20156249999999787
                },
                {
                    "name": "A4",
                    "midi": 69,
                    "time": 17.549999999999965,
                    "velocity": 0.5433070866141733,
                    "duration": 0.14999999999999858
                },
                {
                    "name": "B4",
                    "midi": 71,
                    "time": 17.699999999999964,
                    "velocity": 0.6692913385826772,
                    "duration": 0.14999999999999858
                },
                {
                    "name": "G3",
                    "midi": 55,
                    "time": 17.699999999999964,
                    "velocity": 0.7244094488188977,
                    "duration": 0.20156249999999787
                },
                {
                    "name": "C5",
                    "midi": 72,
                    "time": 17.849999999999962,
                    "velocity": 0.6929133858267716,
                    "duration": 0.14999999999999858
                },
                {
                    "name": "D5",
                    "midi": 74,
                    "time": 17.99999999999996,
                    "velocity": 0.6535433070866141,
                    "duration": 0.14999999999999858
                },
                {
                    "name": "C3",
                    "midi": 48,
                    "time": 17.99999999999996,
                    "velocity": 0.6220472440944882,
                    "duration": 0.20156249999999787
                },
                {
                    "name": "G3",
                    "midi": 55,
                    "time": 17.99999999999996,
                    "velocity": 0.6220472440944882,
                    "duration": 0.20156249999999787
                },
                {
                    "name": "C5",
                    "midi": 72,
                    "time": 18.14999999999996,
                    "velocity": 0.6220472440944882,
                    "duration": 0.14999999999999858
                },
                {
                    "name": "B4",
                    "midi": 71,
                    "time": 18.299999999999958,
                    "velocity": 0.5748031496062992,
                    "duration": 0.4195312499999986
                },
                {
                    "name": "G3",
                    "midi": 55,
                    "time": 18.299999999999958,
                    "velocity": 0.5826771653543307,
                    "duration": 0.07499999999999929
                },
                {
                    "name": "G3",
                    "midi": 55,
                    "time": 18.449999999999957,
                    "velocity": 0.6456692913385826,
                    "duration": 0.07499999999999929
                },
                {
                    "name": "G3",
                    "midi": 55,
                    "time": 18.599999999999955,
                    "velocity": 0.6220472440944882,
                    "duration": 0.20156250000000142
                },
                {
                    "name": "C5",
                    "midi": 72,
                    "time": 18.749999999999957,
                    "velocity": 0.6771653543307087,
                    "duration": 0.14999999999999858
                },
                {
                    "name": "B4",
                    "midi": 71,
                    "time": 18.899999999999956,
                    "velocity": 0.6220472440944882,
                    "duration": 0.14999999999999858
                },
                {
                    "name": "G3",
                    "midi": 55,
                    "time": 18.899999999999956,
                    "velocity": 0.5984251968503937,
                    "duration": 0.20156249999999787
                },
                {
                    "name": "A4",
                    "midi": 69,
                    "time": 19.049999999999955,
                    "velocity": 0.5826771653543307,
                    "duration": 0.14999999999999858
                },
                {
                    "name": "C5",
                    "midi": 72,
                    "time": 19.199999999999953,
                    "velocity": 0.6771653543307087,
                    "duration": 0.14999999999999858
                },
                {
                    "name": "G2",
                    "midi": 43,
                    "time": 19.199999999999953,
                    "velocity": 0.6377952755905512,
                    "duration": 0.20156249999999787
                },
                {
                    "name": "G3",
                    "midi": 55,
                    "time": 19.199999999999953,
                    "velocity": 0.6377952755905512,
                    "duration": 0.20156249999999787
                },
                {
                    "name": "B4",
                    "midi": 71,
                    "time": 19.34999999999995,
                    "velocity": 0.6220472440944882,
                    "duration": 0.14999999999999858
                },
                {
                    "name": "A4",
                    "midi": 69,
                    "time": 19.49999999999995,
                    "velocity": 0.5905511811023622,
                    "duration": 0.14999999999999858
                },
                {
                    "name": "G3",
                    "midi": 55,
                    "time": 19.49999999999995,
                    "velocity": 0.6299212598425197,
                    "duration": 0.20156249999999787
                },
                {
                    "name": "F4",
                    "midi": 65,
                    "time": 19.64999999999995,
                    "velocity": 0.5748031496062992,
                    "duration": 0.4499999999999993
                },
                {
                    "name": "C3",
                    "midi": 48,
                    "time": 19.799999999999947,
                    "velocity": 0.6220472440944882,
                    "duration": 0.20156250000000142
                },
                {
                    "name": "G3",
                    "midi": 55,
                    "time": 19.799999999999947,
                    "velocity": 0.6220472440944882,
                    "duration": 0.20156250000000142
                },
                {
                    "name": "F4",
                    "midi": 65,
                    "time": 20.099999999999948,
                    "velocity": 0.6299212598425197,
                    "duration": 0.08203125
                },
                {
                    "name": "G3",
                    "midi": 55,
                    "time": 20.099999999999948,
                    "velocity": 0.6141732283464567,
                    "duration": 0.07499999999999929
                },
                {
                    "name": "F4",
                    "midi": 65,
                    "time": 20.249999999999947,
                    "velocity": 0.6220472440944882,
                    "duration": 0.08203125
                },
                {
                    "name": "G3",
                    "midi": 55,
                    "time": 20.249999999999947,
                    "velocity": 0.6299212598425197,
                    "duration": 0.07499999999999929
                },
                {
                    "name": "F4",
                    "midi": 65,
                    "time": 20.399999999999945,
                    "velocity": 0.6456692913385826,
                    "duration": 0.13125000000000142
                },
                {
                    "name": "G3",
                    "midi": 55,
                    "time": 20.399999999999945,
                    "velocity": 0.6535433070866141,
                    "duration": 0.20156250000000142
                },
                {
                    "name": "A4",
                    "midi": 69,
                    "time": 20.699999999999946,
                    "velocity": 0.7086614173228346,
                    "duration": 0.1640625
                },
                {
                    "name": "G3",
                    "midi": 55,
                    "time": 20.699999999999946,
                    "velocity": 0.6377952755905512,
                    "duration": 0.20156250000000142
                },
                {
                    "name": "C5",
                    "midi": 72,
                    "time": 20.999999999999947,
                    "velocity": 0.6929133858267716,
                    "duration": 0.14999999999999858
                },
                {
                    "name": "G2",
                    "midi": 43,
                    "time": 20.999999999999947,
                    "velocity": 0.5826771653543307,
                    "duration": 0.20156249999999787
                },
                {
                    "name": "G3",
                    "midi": 55,
                    "time": 20.999999999999947,
                    "velocity": 0.5826771653543307,
                    "duration": 0.20156249999999787
                },
                {
                    "name": "A4",
                    "midi": 69,
                    "time": 21.149999999999945,
                    "velocity": 0.5905511811023622,
                    "duration": 0.14999999999999858
                },
                {
                    "name": "B4",
                    "midi": 71,
                    "time": 21.299999999999944,
                    "velocity": 0.6850393700787402,
                    "duration": 0.14999999999999858
                },
                {
                    "name": "G3",
                    "midi": 55,
                    "time": 21.299999999999944,
                    "velocity": 0.6141732283464567,
                    "duration": 0.20156249999999787
                },
                {
                    "name": "G4",
                    "midi": 67,
                    "time": 21.449999999999942,
                    "velocity": 0.5748031496062992,
                    "duration": 0.14999999999999858
                },
                {
                    "name": "F4",
                    "midi": 65,
                    "time": 21.59999999999994,
                    "velocity": 0.5984251968503937,
                    "duration": 0.23906250000000284
                },
                {
                    "name": "C3",
                    "midi": 48,
                    "time": 21.59999999999994,
                    "velocity": 0.6535433070866141,
                    "duration": 0.20156250000000142
                },
                {
                    "name": "G3",
                    "midi": 55,
                    "time": 21.59999999999994,
                    "velocity": 0.6535433070866141,
                    "duration": 0.20156250000000142
                },
                {
                    "name": "F4",
                    "midi": 65,
                    "time": 21.899999999999945,
                    "velocity": 0.6299212598425197,
                    "duration": 0.08203125
                },
                {
                    "name": "G3",
                    "midi": 55,
                    "time": 21.899999999999945,
                    "velocity": 0.6299212598425197,
                    "duration": 0.07499999999999929
                },
                {
                    "name": "F4",
                    "midi": 65,
                    "time": 22.049999999999944,
                    "velocity": 0.6141732283464567,
                    "duration": 0.06562500000000071
                },
                {
                    "name": "G3",
                    "midi": 55,
                    "time": 22.049999999999944,
                    "velocity": 0.6220472440944882,
                    "duration": 0.07499999999999929
                },
                {
                    "name": "F4",
                    "midi": 65,
                    "time": 22.199999999999942,
                    "velocity": 0.6220472440944882,
                    "duration": 0.1640625
                },
                {
                    "name": "G3",
                    "midi": 55,
                    "time": 22.199999999999942,
                    "velocity": 0.6299212598425197,
                    "duration": 0.20156250000000142
                },
                {
                    "name": "A4",
                    "midi": 69,
                    "time": 22.499999999999943,
                    "velocity": 0.5905511811023622,
                    "duration": 0.1640625
                },
                {
                    "name": "G3",
                    "midi": 55,
                    "time": 22.499999999999943,
                    "velocity": 0.5354330708661418,
                    "duration": 0.20156250000000142
                },
                {
                    "name": "B4",
                    "midi": 71,
                    "time": 22.799999999999944,
                    "velocity": 0.4645669291338583,
                    "duration": 0.14999999999999858
                },
                {
                    "name": "G2",
                    "midi": 43,
                    "time": 22.799999999999944,
                    "velocity": 0.4251968503937008,
                    "duration": 0.20156249999999787
                },
                {
                    "name": "G3",
                    "midi": 55,
                    "time": 22.799999999999944,
                    "velocity": 0.4251968503937008,
                    "duration": 0.20156249999999787
                },
                {
                    "name": "G4",
                    "midi": 67,
                    "time": 22.949999999999942,
                    "velocity": 0.3700787401574803,
                    "duration": 0.14999999999999858
                },
                {
                    "name": "A4",
                    "midi": 69,
                    "time": 23.09999999999994,
                    "velocity": 0.3464566929133858,
                    "duration": 0.14999999999999858
                },
                {
                    "name": "G3",
                    "midi": 55,
                    "time": 23.09999999999994,
                    "velocity": 0.3464566929133858,
                    "duration": 0.20156249999999787
                },
                {
                    "name": "F4",
                    "midi": 65,
                    "time": 23.24999999999994,
                    "velocity": 0.31496062992125984,
                    "duration": 0.14999999999999858
                },
                {
                    "name": "D4",
                    "midi": 62,
                    "time": 23.399999999999938,
                    "velocity": 0.25984251968503935,
                    "duration": 0.23906250000000284
                },
                {
                    "name": "C3",
                    "midi": 48,
                    "time": 23.399999999999938,
                    "velocity": 0.2992125984251969,
                    "duration": 0.20156250000000142
                },
                {
                    "name": "G3",
                    "midi": 55,
                    "time": 23.399999999999938,
                    "velocity": 0.2992125984251969,
                    "duration": 0.20156250000000142
                },
                {
                    "name": "D4",
                    "midi": 62,
                    "time": 23.699999999999942,
                    "velocity": 0.28346456692913385,
                    "duration": 0.14999999999999858
                },
                {
                    "name": "G3",
                    "midi": 55,
                    "time": 23.699999999999942,
                    "velocity": 0.2440944881889764,
                    "duration": 0.07499999999999929
                },
                {
                    "name": "C4",
                    "midi": 60,
                    "time": 23.84999999999994,
                    "velocity": 0.29133858267716534,
                    "duration": 0.14999999999999858
                },
                {
                    "name": "G3",
                    "midi": 55,
                    "time": 23.84999999999994,
                    "velocity": 0.2992125984251969,
                    "duration": 0.07499999999999929
                },
                {
                    "name": "D4",
                    "midi": 62,
                    "time": 23.99999999999994,
                    "velocity": 0.33858267716535434,
                    "duration": 0.8390625000000043
                },
                {
                    "name": "G3",
                    "midi": 55,
                    "time": 23.99999999999994,
                    "velocity": 0.29133858267716534,
                    "duration": 0.20156250000000142
                },
                {
                    "name": "G3",
                    "midi": 55,
                    "time": 24.29999999999994,
                    "velocity": 0.28346456692913385,
                    "duration": 0.20156250000000142
                },
                {
                    "name": "G2",
                    "midi": 43,
                    "time": 24.59999999999994,
                    "velocity": 0.30708661417322836,
                    "duration": 0.20156250000000142
                },
                {
                    "name": "G3",
                    "midi": 55,
                    "time": 24.59999999999994,
                    "velocity": 0.30708661417322836,
                    "duration": 0.20156250000000142
                },
                {
                    "name": "D4",
                    "midi": 62,
                    "time": 24.899999999999945,
                    "velocity": 0.31496062992125984,
                    "duration": 0.08203125
                },
                {
                    "name": "G3",
                    "midi": 55,
                    "time": 24.899999999999945,
                    "velocity": 0.25984251968503935,
                    "duration": 0.20156249999999787
                },
                {
                    "name": "D4",
                    "midi": 62,
                    "time": 25.049999999999944,
                    "velocity": 0.29133858267716534,
                    "duration": 0.06562500000000071
                },
                {
                    "name": "D4",
                    "midi": 62,
                    "time": 25.199999999999946,
                    "velocity": 0.29133858267716534,
                    "duration": 0.1640625
                },
                {
                    "name": "C3",
                    "midi": 48,
                    "time": 25.199999999999946,
                    "velocity": 0.2755905511811024,
                    "duration": 0.20156250000000142
                },
                {
                    "name": "G3",
                    "midi": 55,
                    "time": 25.199999999999946,
                    "velocity": 0.2755905511811024,
                    "duration": 0.20156250000000142
                },
                {
                    "name": "F4",
                    "midi": 65,
                    "time": 25.499999999999947,
                    "velocity": 0.3228346456692913,
                    "duration": 0.1640625
                },
                {
                    "name": "G3",
                    "midi": 55,
                    "time": 25.499999999999947,
                    "velocity": 0.28346456692913385,
                    "duration": 0.07499999999999929
                },
                {
                    "name": "G3",
                    "midi": 55,
                    "time": 25.649999999999945,
                    "velocity": 0.28346456692913385,
                    "duration": 0.07500000000000284
                },
                {
                    "name": "A4",
                    "midi": 69,
                    "time": 25.799999999999947,
                    "velocity": 0.33070866141732286,
                    "duration": 0.14999999999999858
                },
                {
                    "name": "G3",
                    "midi": 55,
                    "time": 25.799999999999947,
                    "velocity": 0.28346456692913385,
                    "duration": 0.20156249999999787
                },
                {
                    "name": "F4",
                    "midi": 65,
                    "time": 25.949999999999946,
                    "velocity": 0.2755905511811024,
                    "duration": 0.14999999999999858
                },
                {
                    "name": "G4",
                    "midi": 67,
                    "time": 26.099999999999945,
                    "velocity": 0.3700787401574803,
                    "duration": 0.14999999999999858
                },
                {
                    "name": "G3",
                    "midi": 55,
                    "time": 26.099999999999945,
                    "velocity": 0.28346456692913385,
                    "duration": 0.20156249999999787
                },
                {
                    "name": "E4",
                    "midi": 64,
                    "time": 26.249999999999943,
                    "velocity": 0.2755905511811024,
                    "duration": 0.14999999999999858
                },
                {
                    "name": "D4",
                    "midi": 62,
                    "time": 26.39999999999994,
                    "velocity": 0.25984251968503935,
                    "duration": 0.23906250000000284
                },
                {
                    "name": "G2",
                    "midi": 43,
                    "time": 26.39999999999994,
                    "velocity": 0.33858267716535434,
                    "duration": 0.20156250000000142
                },
                {
                    "name": "G3",
                    "midi": 55,
                    "time": 26.39999999999994,
                    "velocity": 0.33858267716535434,
                    "duration": 0.20156250000000142
                },
                {
                    "name": "D4",
                    "midi": 62,
                    "time": 26.699999999999946,
                    "velocity": 0.30708661417322836,
                    "duration": 0.14999999999999858
                },
                {
                    "name": "G3",
                    "midi": 55,
                    "time": 26.699999999999946,
                    "velocity": 0.2677165354330709,
                    "duration": 0.20156249999999787
                },
                {
                    "name": "C4",
                    "midi": 60,
                    "time": 26.849999999999945,
                    "velocity": 0.2440944881889764,
                    "duration": 0.14999999999999858
                },
                {
                    "name": "D4",
                    "midi": 62,
                    "time": 26.999999999999943,
                    "velocity": 0.3228346456692913,
                    "duration": 0.8015624999999993
                },
                {
                    "name": "C3",
                    "midi": 48,
                    "time": 26.999999999999943,
                    "velocity": 0.2677165354330709,
                    "duration": 0.20156250000000142
                },
                {
                    "name": "G3",
                    "midi": 55,
                    "time": 26.999999999999943,
                    "velocity": 0.2677165354330709,
                    "duration": 0.20156250000000142
                },
                {
                    "name": "G3",
                    "midi": 55,
                    "time": 27.299999999999944,
                    "velocity": 0.28346456692913385,
                    "duration": 0.07499999999999929
                },
                {
                    "name": "G3",
                    "midi": 55,
                    "time": 27.449999999999942,
                    "velocity": 0.2992125984251969,
                    "duration": 0.07499999999999929
                },
                {
                    "name": "G3",
                    "midi": 55,
                    "time": 27.59999999999994,
                    "velocity": 0.33070866141732286,
                    "duration": 0.20156250000000142
                },
                {
                    "name": "D4",
                    "midi": 62,
                    "time": 27.89999999999994,
                    "velocity": 0.28346456692913385,
                    "duration": 0.14999999999999858
                },
                {
                    "name": "G3",
                    "midi": 55,
                    "time": 27.89999999999994,
                    "velocity": 0.30708661417322836,
                    "duration": 0.20156249999999787
                },
                {
                    "name": "C4",
                    "midi": 60,
                    "time": 28.04999999999994,
                    "velocity": 0.25196850393700787,
                    "duration": 0.14999999999999858
                },
                {
                    "name": "D4",
                    "midi": 62,
                    "time": 28.19999999999994,
                    "velocity": 0.28346456692913385,
                    "duration": 0.3000000000000007
                },
                {
                    "name": "G2",
                    "midi": 43,
                    "time": 28.19999999999994,
                    "velocity": 0.2677165354330709,
                    "duration": 0.20156250000000142
                },
                {
                    "name": "G3",
                    "midi": 55,
                    "time": 28.19999999999994,
                    "velocity": 0.2677165354330709,
                    "duration": 0.20156250000000142
                },
                {
                    "name": "E4",
                    "midi": 64,
                    "time": 28.49999999999994,
                    "velocity": 0.30708661417322836,
                    "duration": 0.14999999999999858
                },
                {
                    "name": "G3",
                    "midi": 55,
                    "time": 28.49999999999994,
                    "velocity": 0.29133858267716534,
                    "duration": 0.20156249999999787
                },
                {
                    "name": "F4",
                    "midi": 65,
                    "time": 28.649999999999938,
                    "velocity": 0.30708661417322836,
                    "duration": 0.14999999999999858
                },
                {
                    "name": "G4",
                    "midi": 67,
                    "time": 28.799999999999937,
                    "velocity": 0.30708661417322836,
                    "duration": 1.3499999999999979
                },
                {
                    "name": "C3",
                    "midi": 48,
                    "time": 28.799999999999937,
                    "velocity": 0.3228346456692913,
                    "duration": 0.20156250000000142
                },
                {
                    "name": "G3",
                    "midi": 55,
                    "time": 28.799999999999937,
                    "velocity": 0.3228346456692913,
                    "duration": 0.20156250000000142
                },
                {
                    "name": "G3",
                    "midi": 55,
                    "time": 29.099999999999937,
                    "velocity": 0.2677165354330709,
                    "duration": 0.07499999999999929
                },
                {
                    "name": "G3",
                    "midi": 55,
                    "time": 29.249999999999936,
                    "velocity": 0.2992125984251969,
                    "duration": 0.07499999999999929
                },
                {
                    "name": "G3",
                    "midi": 55,
                    "time": 29.399999999999935,
                    "velocity": 0.31496062992125984,
                    "duration": 0.20156250000000142
                },
                {
                    "name": "G3",
                    "midi": 55,
                    "time": 29.699999999999935,
                    "velocity": 0.2755905511811024,
                    "duration": 0.20156250000000142
                },
                {
                    "name": "G2",
                    "midi": 43,
                    "time": 29.999999999999936,
                    "velocity": 0.2677165354330709,
                    "duration": 0.20156249999999787
                },
                {
                    "name": "G3",
                    "midi": 55,
                    "time": 29.999999999999936,
                    "velocity": 0.2677165354330709,
                    "duration": 0.20156249999999787
                },
                {
                    "name": "F4",
                    "midi": 65,
                    "time": 30.149999999999935,
                    "velocity": 0.25984251968503935,
                    "duration": 0.14999999999999858
                },
                {
                    "name": "E4",
                    "midi": 64,
                    "time": 30.299999999999933,
                    "velocity": 0.29133858267716534,
                    "duration": 0.14999999999999858
                },
                {
                    "name": "G3",
                    "midi": 55,
                    "time": 30.299999999999933,
                    "velocity": 0.2755905511811024,
                    "duration": 0.20156249999999787
                },
                {
                    "name": "D4",
                    "midi": 62,
                    "time": 30.449999999999932,
                    "velocity": 0.30708661417322836,
                    "duration": 0.14999999999999858
                },
                {
                    "name": "C4",
                    "midi": 60,
                    "time": 30.59999999999993,
                    "velocity": 0.25984251968503935,
                    "duration": 11.601562500000185
                },
                {
                    "name": "C3",
                    "midi": 48,
                    "time": 30.59999999999993,
                    "velocity": 0.29133858267716534,
                    "duration": 0.20156250000000142
                },
                {
                    "name": "G3",
                    "midi": 55,
                    "time": 30.59999999999993,
                    "velocity": 0.29133858267716534,
                    "duration": 0.20156250000000142
                },
                {
                    "name": "G3",
                    "midi": 55,
                    "time": 30.89999999999993,
                    "velocity": 0.30708661417322836,
                    "duration": 0.07499999999999929
                },
                {
                    "name": "G3",
                    "midi": 55,
                    "time": 31.04999999999993,
                    "velocity": 0.28346456692913385,
                    "duration": 0.07499999999999929
                },
                {
                    "name": "G3",
                    "midi": 55,
                    "time": 31.19999999999993,
                    "velocity": 0.28346456692913385,
                    "duration": 0.20156250000000142
                },
                {
                    "name": "G3",
                    "midi": 55,
                    "time": 31.49999999999993,
                    "velocity": 0.30708661417322836,
                    "duration": 0.20156250000000142
                },
                {
                    "name": "G2",
                    "midi": 43,
                    "time": 31.79999999999993,
                    "velocity": 0.29133858267716534,
                    "duration": 0.20156249999999787
                },
                {
                    "name": "G3",
                    "midi": 55,
                    "time": 31.79999999999993,
                    "velocity": 0.29133858267716534,
                    "duration": 0.20156249999999787
                },
                {
                    "name": "G3",
                    "midi": 55,
                    "time": 32.09999999999993,
                    "velocity": 0.2992125984251969,
                    "duration": 0.20156250000000142
                },
                {
                    "name": "C3",
                    "midi": 48,
                    "time": 32.399999999999935,
                    "velocity": 0.29133858267716534,
                    "duration": 0.20156250000000142
                },
                {
                    "name": "G3",
                    "midi": 55,
                    "time": 32.399999999999935,
                    "velocity": 0.29133858267716534,
                    "duration": 0.20156250000000142
                },
                {
                    "name": "G3",
                    "midi": 55,
                    "time": 32.69999999999994,
                    "velocity": 0.31496062992125984,
                    "duration": 0.07500000000000284
                },
                {
                    "name": "G3",
                    "midi": 55,
                    "time": 32.849999999999945,
                    "velocity": 0.25196850393700787,
                    "duration": 0.07500000000000284
                },
                {
                    "name": "G3",
                    "midi": 55,
                    "time": 32.99999999999995,
                    "velocity": 0.2992125984251969,
                    "duration": 0.20156250000000142
                },
                {
                    "name": "G3",
                    "midi": 55,
                    "time": 33.299999999999955,
                    "velocity": 0.31496062992125984,
                    "duration": 0.20156250000000142
                },
                {
                    "name": "G2",
                    "midi": 43,
                    "time": 33.59999999999996,
                    "velocity": 0.29133858267716534,
                    "duration": 0.20156250000000142
                },
                {
                    "name": "G3",
                    "midi": 55,
                    "time": 33.59999999999996,
                    "velocity": 0.29133858267716534,
                    "duration": 0.20156250000000142
                },
                {
                    "name": "G3",
                    "midi": 55,
                    "time": 33.89999999999996,
                    "velocity": 0.3228346456692913,
                    "duration": 0.20156250000000142
                },
                {
                    "name": "C5",
                    "midi": 72,
                    "time": 34.19999999999997,
                    "velocity": 0.3937007874015748,
                    "duration": 0.9000000000000199
                },
                {
                    "name": "C3",
                    "midi": 48,
                    "time": 34.19999999999997,
                    "velocity": 0.30708661417322836,
                    "duration": 0.20156250000000142
                },
                {
                    "name": "G3",
                    "midi": 55,
                    "time": 34.19999999999997,
                    "velocity": 0.30708661417322836,
                    "duration": 0.20156250000000142
                },
                {
                    "name": "G3",
                    "midi": 55,
                    "time": 34.49999999999997,
                    "velocity": 0.28346456692913385,
                    "duration": 0.07500000000000284
                },
                {
                    "name": "G3",
                    "midi": 55,
                    "time": 34.64999999999998,
                    "velocity": 0.31496062992125984,
                    "duration": 0.07500000000000284
                },
                {
                    "name": "G3",
                    "midi": 55,
                    "time": 34.79999999999998,
                    "velocity": 0.28346456692913385,
                    "duration": 0.20156250000000142
                },
                {
                    "name": "B4",
                    "midi": 71,
                    "time": 35.09999999999999,
                    "velocity": 0.2992125984251969,
                    "duration": 0.14999999999999858
                },
                {
                    "name": "G3",
                    "midi": 55,
                    "time": 35.09999999999999,
                    "velocity": 0.31496062992125984,
                    "duration": 0.20156250000000142
                },
                {
                    "name": "C5",
                    "midi": 72,
                    "time": 35.249999999999986,
                    "velocity": 0.31496062992125984,
                    "duration": 0.15000000000000568
                },
                {
                    "name": "D5",
                    "midi": 74,
                    "time": 35.39999999999999,
                    "velocity": 0.2677165354330709,
                    "duration": 0.14999999999999858
                },
                {
                    "name": "G2",
                    "midi": 43,
                    "time": 35.39999999999999,
                    "velocity": 0.28346456692913385,
                    "duration": 0.20156250000000142
                },
                {
                    "name": "G3",
                    "midi": 55,
                    "time": 35.39999999999999,
                    "velocity": 0.28346456692913385,
                    "duration": 0.20156250000000142
                },
                {
                    "name": "C5",
                    "midi": 72,
                    "time": 35.54999999999999,
                    "velocity": 0.2677165354330709,
                    "duration": 0.15000000000000568
                },
                {
                    "name": "B4",
                    "midi": 71,
                    "time": 35.699999999999996,
                    "velocity": 0.31496062992125984,
                    "duration": 0.14999999999999858
                },
                {
                    "name": "G3",
                    "midi": 55,
                    "time": 35.699999999999996,
                    "velocity": 0.25196850393700787,
                    "duration": 0.20156250000000142
                },
                {
                    "name": "A4",
                    "midi": 69,
                    "time": 35.849999999999994,
                    "velocity": 0.25196850393700787,
                    "duration": 0.15000000000000568
                },
                {
                    "name": "C5",
                    "midi": 72,
                    "time": 36,
                    "velocity": 0.3464566929133858,
                    "duration": 0.23906250000000284
                },
                {
                    "name": "C3",
                    "midi": 48,
                    "time": 36,
                    "velocity": 0.2755905511811024,
                    "duration": 0.20156250000000142
                },
                {
                    "name": "G3",
                    "midi": 55,
                    "time": 36,
                    "velocity": 0.2755905511811024,
                    "duration": 0.20156250000000142
                },
                {
                    "name": "C5",
                    "midi": 72,
                    "time": 36.300000000000004,
                    "velocity": 0.2992125984251969,
                    "duration": 0.15000000000000568
                },
                {
                    "name": "G3",
                    "midi": 55,
                    "time": 36.300000000000004,
                    "velocity": 0.29133858267716534,
                    "duration": 0.07500000000000284
                },
                {
                    "name": "A4",
                    "midi": 69,
                    "time": 36.45000000000001,
                    "velocity": 0.25196850393700787,
                    "duration": 0.15000000000000568
                },
                {
                    "name": "G3",
                    "midi": 55,
                    "time": 36.45000000000001,
                    "velocity": 0.2677165354330709,
                    "duration": 0.07500000000000284
                },
                {
                    "name": "C5",
                    "midi": 72,
                    "time": 36.600000000000016,
                    "velocity": 0.30708661417322836,
                    "duration": 0.8390625000000114
                },
                {
                    "name": "G3",
                    "midi": 55,
                    "time": 36.600000000000016,
                    "velocity": 0.33070866141732286,
                    "duration": 0.20156250000000142
                },
                {
                    "name": "G3",
                    "midi": 55,
                    "time": 36.90000000000002,
                    "velocity": 0.29133858267716534,
                    "duration": 0.20156250000000142
                },
                {
                    "name": "G2",
                    "midi": 43,
                    "time": 37.200000000000024,
                    "velocity": 0.29133858267716534,
                    "duration": 0.20156250000000142
                },
                {
                    "name": "G3",
                    "midi": 55,
                    "time": 37.200000000000024,
                    "velocity": 0.29133858267716534,
                    "duration": 0.20156250000000142
                },
                {
                    "name": "B4",
                    "midi": 71,
                    "time": 37.50000000000003,
                    "velocity": 0.28346456692913385,
                    "duration": 0.14999999999999858
                },
                {
                    "name": "G3",
                    "midi": 55,
                    "time": 37.50000000000003,
                    "velocity": 0.30708661417322836,
                    "duration": 0.20156250000000142
                },
                {
                    "name": "C5",
                    "midi": 72,
                    "time": 37.65000000000003,
                    "velocity": 0.3228346456692913,
                    "duration": 0.15000000000000568
                },
                {
                    "name": "A4",
                    "midi": 69,
                    "time": 37.80000000000003,
                    "velocity": 0.25196850393700787,
                    "duration": 0.14999999999999858
                },
                {
                    "name": "C3",
                    "midi": 48,
                    "time": 37.80000000000003,
                    "velocity": 0.31496062992125984,
                    "duration": 0.20156250000000142
                },
                {
                    "name": "G3",
                    "midi": 55,
                    "time": 37.80000000000003,
                    "velocity": 0.31496062992125984,
                    "duration": 0.20156250000000142
                },
                {
                    "name": "G4",
                    "midi": 67,
                    "time": 37.95000000000003,
                    "velocity": 0.2440944881889764,
                    "duration": 0.15000000000000568
                },
                {
                    "name": "E4",
                    "midi": 64,
                    "time": 38.10000000000004,
                    "velocity": 0.2755905511811024,
                    "duration": 0.15000000000000568
                },
                {
                    "name": "G3",
                    "midi": 55,
                    "time": 38.10000000000004,
                    "velocity": 0.2992125984251969,
                    "duration": 0.07500000000000284
                },
                {
                    "name": "F4",
                    "midi": 65,
                    "time": 38.25000000000004,
                    "velocity": 0.28346456692913385,
                    "duration": 0.15000000000000568
                },
                {
                    "name": "G3",
                    "midi": 55,
                    "time": 38.25000000000004,
                    "velocity": 0.28346456692913385,
                    "duration": 0.07500000000000284
                },
                {
                    "name": "G4",
                    "midi": 67,
                    "time": 38.40000000000005,
                    "velocity": 0.31496062992125984,
                    "duration": 1.919531250000034
                },
                {
                    "name": "G3",
                    "midi": 55,
                    "time": 38.40000000000005,
                    "velocity": 0.28346456692913385,
                    "duration": 0.20156250000000142
                },
                {
                    "name": "G3",
                    "midi": 55,
                    "time": 38.70000000000005,
                    "velocity": 0.30708661417322836,
                    "duration": 0.20156250000000142
                },
                {
                    "name": "G2",
                    "midi": 43,
                    "time": 39.00000000000006,
                    "velocity": 0.2755905511811024,
                    "duration": 0.20156250000000142
                },
                {
                    "name": "G3",
                    "midi": 55,
                    "time": 39.00000000000006,
                    "velocity": 0.2755905511811024,
                    "duration": 0.20156250000000142
                },
                {
                    "name": "G3",
                    "midi": 55,
                    "time": 39.30000000000006,
                    "velocity": 0.25984251968503935,
                    "duration": 0.20156250000000142
                },
                {
                    "name": "C3",
                    "midi": 48,
                    "time": 39.600000000000065,
                    "velocity": 0.3228346456692913,
                    "duration": 0.20156250000000142
                },
                {
                    "name": "G3",
                    "midi": 55,
                    "time": 39.600000000000065,
                    "velocity": 0.3228346456692913,
                    "duration": 0.20156250000000142
                },
                {
                    "name": "G3",
                    "midi": 55,
                    "time": 39.90000000000007,
                    "velocity": 0.3228346456692913,
                    "duration": 0.07500000000000284
                },
                {
                    "name": "G3",
                    "midi": 55,
                    "time": 40.050000000000075,
                    "velocity": 0.28346456692913385,
                    "duration": 0.07500000000000284
                },
                {
                    "name": "G3",
                    "midi": 55,
                    "time": 40.20000000000008,
                    "velocity": 0.3228346456692913,
                    "duration": 0.20156250000000142
                },
                {
                    "name": "A4",
                    "midi": 69,
                    "time": 40.35000000000008,
                    "velocity": 0.33070866141732286,
                    "duration": 0.15000000000000568
                },
                {
                    "name": "B4",
                    "midi": 71,
                    "time": 40.500000000000085,
                    "velocity": 0.3228346456692913,
                    "duration": 0.14999999999999858
                },
                {
                    "name": "G3",
                    "midi": 55,
                    "time": 40.500000000000085,
                    "velocity": 0.31496062992125984,
                    "duration": 0.20156250000000142
                },
                {
                    "name": "A4",
                    "midi": 69,
                    "time": 40.650000000000084,
                    "velocity": 0.30708661417322836,
                    "duration": 0.15000000000000568
                },
                {
                    "name": "G4",
                    "midi": 67,
                    "time": 40.80000000000009,
                    "velocity": 0.2440944881889764,
                    "duration": 0.14999999999999858
                },
                {
                    "name": "G2",
                    "midi": 43,
                    "time": 40.80000000000009,
                    "velocity": 0.29133858267716534,
                    "duration": 0.20156250000000142
                },
                {
                    "name": "G3",
                    "midi": 55,
                    "time": 40.80000000000009,
                    "velocity": 0.29133858267716534,
                    "duration": 0.20156250000000142
                },
                {
                    "name": "F4",
                    "midi": 65,
                    "time": 40.95000000000009,
                    "velocity": 0.29133858267716534,
                    "duration": 0.15000000000000568
                },
                {
                    "name": "E4",
                    "midi": 64,
                    "time": 41.100000000000094,
                    "velocity": 0.2677165354330709,
                    "duration": 0.14999999999999858
                },
                {
                    "name": "G3",
                    "midi": 55,
                    "time": 41.100000000000094,
                    "velocity": 0.31496062992125984,
                    "duration": 0.20156250000000142
                },
                {
                    "name": "D4",
                    "midi": 62,
                    "time": 41.25000000000009,
                    "velocity": 0.29133858267716534,
                    "duration": 0.15000000000000568
                },
                {
                    "name": "E4",
                    "midi": 64,
                    "time": 41.4000000000001,
                    "velocity": 0.33858267716535434,
                    "duration": 0.14999999999999858
                },
                {
                    "name": "C3",
                    "midi": 48,
                    "time": 41.4000000000001,
                    "velocity": 0.2992125984251969,
                    "duration": 0.20156250000000142
                },
                {
                    "name": "G3",
                    "midi": 55,
                    "time": 41.4000000000001,
                    "velocity": 0.2992125984251969,
                    "duration": 0.20156250000000142
                },
                {
                    "name": "D4",
                    "midi": 62,
                    "time": 41.5500000000001,
                    "velocity": 0.2677165354330709,
                    "duration": 0.15000000000000568
                },
                {
                    "name": "C4",
                    "midi": 60,
                    "time": 41.7000000000001,
                    "velocity": 0.25984251968503935,
                    "duration": 0.7500000000000142
                },
                {
                    "name": "G3",
                    "midi": 55,
                    "time": 41.7000000000001,
                    "velocity": 0.2992125984251969,
                    "duration": 0.07500000000000284
                },
                {
                    "name": "G3",
                    "midi": 55,
                    "time": 41.85000000000011,
                    "velocity": 0.29133858267716534,
                    "duration": 0.07500000000000284
                },
                {
                    "name": "G3",
                    "midi": 55,
                    "time": 42.000000000000114,
                    "velocity": 0.30708661417322836,
                    "duration": 0.20156250000000142
                },
                {
                    "name": "C4",
                    "midi": 60,
                    "time": 42.30000000000012,
                    "velocity": 0.2440944881889764,
                    "duration": 3.9000000000000696
                },
                {
                    "name": "G3",
                    "midi": 55,
                    "time": 42.30000000000012,
                    "velocity": 0.25984251968503935,
                    "duration": 0.20156250000000142
                },
                {
                    "name": "D4",
                    "midi": 62,
                    "time": 42.45000000000012,
                    "velocity": 0.3543307086614173,
                    "duration": 0.15000000000000568
                },
                {
                    "name": "E4",
                    "midi": 64,
                    "time": 42.60000000000012,
                    "velocity": 0.2992125984251969,
                    "duration": 0.1640625
                },
                {
                    "name": "G2",
                    "midi": 43,
                    "time": 42.60000000000012,
                    "velocity": 0.33070866141732286,
                    "duration": 0.20156250000000142
                },
                {
                    "name": "G3",
                    "midi": 55,
                    "time": 42.60000000000012,
                    "velocity": 0.33070866141732286,
                    "duration": 0.20156250000000142
                },
                {
                    "name": "F4",
                    "midi": 65,
                    "time": 42.90000000000013,
                    "velocity": 0.2992125984251969,
                    "duration": 0.1640625
                },
                {
                    "name": "G3",
                    "midi": 55,
                    "time": 42.90000000000013,
                    "velocity": 0.25984251968503935,
                    "duration": 0.20156250000000142
                },
                {
                    "name": "D4",
                    "midi": 62,
                    "time": 43.20000000000013,
                    "velocity": 0.2755905511811024,
                    "duration": 0.6000000000000156
                },
                {
                    "name": "C3",
                    "midi": 48,
                    "time": 43.20000000000013,
                    "velocity": 0.2677165354330709,
                    "duration": 0.20156250000000142
                },
                {
                    "name": "G3",
                    "midi": 55,
                    "time": 43.20000000000013,
                    "velocity": 0.2677165354330709,
                    "duration": 0.20156250000000142
                },
                {
                    "name": "G3",
                    "midi": 55,
                    "time": 43.500000000000135,
                    "velocity": 0.28346456692913385,
                    "duration": 0.07500000000000284
                },
                {
                    "name": "G3",
                    "midi": 55,
                    "time": 43.65000000000014,
                    "velocity": 0.3228346456692913,
                    "duration": 0.07500000000000284
                },
                {
                    "name": "G4",
                    "midi": 67,
                    "time": 43.800000000000146,
                    "velocity": 0.33858267716535434,
                    "duration": 2.3015625000000384
                },
                {
                    "name": "G3",
                    "midi": 55,
                    "time": 43.800000000000146,
                    "velocity": 0.2677165354330709,
                    "duration": 0.20156250000000142
                },
                {
                    "name": "G3",
                    "midi": 55,
                    "time": 44.10000000000015,
                    "velocity": 0.30708661417322836,
                    "duration": 0.20156250000000142
                },
                {
                    "name": "G2",
                    "midi": 43,
                    "time": 44.400000000000155,
                    "velocity": 0.2992125984251969,
                    "duration": 0.20156250000000142
                },
                {
                    "name": "G3",
                    "midi": 55,
                    "time": 44.400000000000155,
                    "velocity": 0.2992125984251969,
                    "duration": 0.20156250000000142
                },
                {
                    "name": "G3",
                    "midi": 55,
                    "time": 44.70000000000016,
                    "velocity": 0.3464566929133858,
                    "duration": 0.20156250000000142
                },
                {
                    "name": "C3",
                    "midi": 48,
                    "time": 45.00000000000016,
                    "velocity": 0.2992125984251969,
                    "duration": 0.20156250000000142
                },
                {
                    "name": "G3",
                    "midi": 55,
                    "time": 45.00000000000016,
                    "velocity": 0.2992125984251969,
                    "duration": 0.20156250000000142
                },
                {
                    "name": "G3",
                    "midi": 55,
                    "time": 45.30000000000017,
                    "velocity": 0.2992125984251969,
                    "duration": 0.07500000000000284
                },
                {
                    "name": "G3",
                    "midi": 55,
                    "time": 45.45000000000017,
                    "velocity": 0.31496062992125984,
                    "duration": 0.07500000000000284
                },
                {
                    "name": "G3",
                    "midi": 55,
                    "time": 45.60000000000018,
                    "velocity": 0.2992125984251969,
                    "duration": 0.20156250000000142
                },
                {
                    "name": "G3",
                    "midi": 55,
                    "time": 45.90000000000018,
                    "velocity": 0.2440944881889764,
                    "duration": 0.20156250000000142
                },
                {
                    "name": "G2",
                    "midi": 43,
                    "time": 46.20000000000019,
                    "velocity": 0.33070866141732286,
                    "duration": 0.20156250000000142
                },
                {
                    "name": "G3",
                    "midi": 55,
                    "time": 46.20000000000019,
                    "velocity": 0.33070866141732286,
                    "duration": 0.20156250000000142
                },
                {
                    "name": "G3",
                    "midi": 55,
                    "time": 46.50000000000019,
                    "velocity": 0.2755905511811024,
                    "duration": 0.20156250000000142
                },
                {
                    "name": "D5",
                    "midi": 74,
                    "time": 46.800000000000196,
                    "velocity": 0.5748031496062992,
                    "duration": 1.0500000000000185
                },
                {
                    "name": "C3",
                    "midi": 48,
                    "time": 46.800000000000196,
                    "velocity": 0.5748031496062992,
                    "duration": 0.20156250000000142
                },
                {
                    "name": "G3",
                    "midi": 55,
                    "time": 46.800000000000196,
                    "velocity": 0.5748031496062992,
                    "duration": 0.20156250000000142
                },
                {
                    "name": "G3",
                    "midi": 55,
                    "time": 47.1000000000002,
                    "velocity": 0.6220472440944882,
                    "duration": 0.07500000000000284
                },
                {
                    "name": "G3",
                    "midi": 55,
                    "time": 47.250000000000206,
                    "velocity": 0.6299212598425197,
                    "duration": 0.07500000000000284
                },
                {
                    "name": "G3",
                    "midi": 55,
                    "time": 47.40000000000021,
                    "velocity": 0.6299212598425197,
                    "duration": 0.20156250000000142
                },
                {
                    "name": "G3",
                    "midi": 55,
                    "time": 47.700000000000216,
                    "velocity": 0.6141732283464567,
                    "duration": 0.20156250000000142
                },
                {
                    "name": "C5",
                    "midi": 72,
                    "time": 47.850000000000215,
                    "velocity": 0.5748031496062992,
                    "duration": 0.15000000000000568
                },
                {
                    "name": "B4",
                    "midi": 71,
                    "time": 48.00000000000022,
                    "velocity": 0.5905511811023622,
                    "duration": 0.14999999999999858
                },
                {
                    "name": "G2",
                    "midi": 43,
                    "time": 48.00000000000022,
                    "velocity": 0.6220472440944882,
                    "duration": 0.20156250000000142
                },
                {
                    "name": "G3",
                    "midi": 55,
                    "time": 48.00000000000022,
                    "velocity": 0.6220472440944882,
                    "duration": 0.20156250000000142
                },
                {
                    "name": "A4",
                    "midi": 69,
                    "time": 48.15000000000022,
                    "velocity": 0.5669291338582677,
                    "duration": 0.15000000000000568
                },
                {
                    "name": "B4",
                    "midi": 71,
                    "time": 48.300000000000225,
                    "velocity": 0.6220472440944882,
                    "duration": 0.14999999999999858
                },
                {
                    "name": "G3",
                    "midi": 55,
                    "time": 48.300000000000225,
                    "velocity": 0.6299212598425197,
                    "duration": 0.20156250000000142
                },
                {
                    "name": "C5",
                    "midi": 72,
                    "time": 48.45000000000022,
                    "velocity": 0.6692913385826772,
                    "duration": 0.15000000000000568
                },
                {
                    "name": "D5",
                    "midi": 74,
                    "time": 48.60000000000023,
                    "velocity": 0.6929133858267716,
                    "duration": 0.14999999999999858
                },
                {
                    "name": "C3",
                    "midi": 48,
                    "time": 48.60000000000023,
                    "velocity": 0.6692913385826772,
                    "duration": 0.20156250000000142
                },
                {
                    "name": "G3",
                    "midi": 55,
                    "time": 48.60000000000023,
                    "velocity": 0.6692913385826772,
                    "duration": 0.20156250000000142
                },
                {
                    "name": "C5",
                    "midi": 72,
                    "time": 48.75000000000023,
                    "velocity": 0.5590551181102362,
                    "duration": 0.15000000000000568
                },
                {
                    "name": "B4",
                    "midi": 71,
                    "time": 48.90000000000023,
                    "velocity": 0.5826771653543307,
                    "duration": 0.4195312500000128
                },
                {
                    "name": "G3",
                    "midi": 55,
                    "time": 48.90000000000023,
                    "velocity": 0.6220472440944882,
                    "duration": 0.07500000000000284
                },
                {
                    "name": "G3",
                    "midi": 55,
                    "time": 49.05000000000024,
                    "velocity": 0.6377952755905512,
                    "duration": 0.07500000000000284
                },
                {
                    "name": "G3",
                    "midi": 55,
                    "time": 49.200000000000244,
                    "velocity": 0.6141732283464567,
                    "duration": 0.20156250000000142
                },
                {
                    "name": "C5",
                    "midi": 72,
                    "time": 49.35000000000024,
                    "velocity": 0.6377952755905512,
                    "duration": 0.15000000000000568
                },
                {
                    "name": "B4",
                    "midi": 71,
                    "time": 49.50000000000025,
                    "velocity": 0.5826771653543307,
                    "duration": 0.14999999999999858
                },
                {
                    "name": "G3",
                    "midi": 55,
                    "time": 49.50000000000025,
                    "velocity": 0.6535433070866141,
                    "duration": 0.20156250000000142
                },
                {
                    "name": "A4",
                    "midi": 69,
                    "time": 49.65000000000025,
                    "velocity": 0.5984251968503937,
                    "duration": 0.15000000000000568
                },
                {
                    "name": "C5",
                    "midi": 72,
                    "time": 49.80000000000025,
                    "velocity": 0.6850393700787402,
                    "duration": 0.14999999999999858
                },
                {
                    "name": "G2",
                    "midi": 43,
                    "time": 49.80000000000025,
                    "velocity": 0.6062992125984252,
                    "duration": 0.20156250000000142
                },
                {
                    "name": "G3",
                    "midi": 55,
                    "time": 49.80000000000025,
                    "velocity": 0.6062992125984252,
                    "duration": 0.20156250000000142
                },
                {
                    "name": "B4",
                    "midi": 71,
                    "time": 49.95000000000025,
                    "velocity": 0.6141732283464567,
                    "duration": 0.15000000000000568
                },
                {
                    "name": "A4",
                    "midi": 69,
                    "time": 50.10000000000026,
                    "velocity": 0.5905511811023622,
                    "duration": 0.14999999999999858
                },
                {
                    "name": "G3",
                    "midi": 55,
                    "time": 50.10000000000026,
                    "velocity": 0.6220472440944882,
                    "duration": 0.20156250000000142
                },
                {
                    "name": "F4",
                    "midi": 65,
                    "time": 50.250000000000256,
                    "velocity": 0.5590551181102362,
                    "duration": 0.45000000000000995
                },
                {
                    "name": "C3",
                    "midi": 48,
                    "time": 50.40000000000026,
                    "velocity": 0.6456692913385826,
                    "duration": 0.20156250000000142
                },
                {
                    "name": "G3",
                    "midi": 55,
                    "time": 50.40000000000026,
                    "velocity": 0.6456692913385826,
                    "duration": 0.20156250000000142
                },
                {
                    "name": "F4",
                    "midi": 65,
                    "time": 50.700000000000266,
                    "velocity": 0.6299212598425197,
                    "duration": 0.08203125
                },
                {
                    "name": "G3",
                    "midi": 55,
                    "time": 50.700000000000266,
                    "velocity": 0.6692913385826772,
                    "duration": 0.07500000000000284
                },
                {
                    "name": "F4",
                    "midi": 65,
                    "time": 50.850000000000264,
                    "velocity": 0.6456692913385826,
                    "duration": 0.08203125
                },
                {
                    "name": "G3",
                    "midi": 55,
                    "time": 50.850000000000264,
                    "velocity": 0.6062992125984252,
                    "duration": 0.07500000000000284
                },
                {
                    "name": "F4",
                    "midi": 65,
                    "time": 51.00000000000026,
                    "velocity": 0.6535433070866141,
                    "duration": 0.13125000000000142
                },
                {
                    "name": "G3",
                    "midi": 55,
                    "time": 51.00000000000026,
                    "velocity": 0.6220472440944882,
                    "duration": 0.20156250000000142
                },
                {
                    "name": "A4",
                    "midi": 69,
                    "time": 51.30000000000027,
                    "velocity": 0.7244094488188977,
                    "duration": 0.1640625
                },
                {
                    "name": "G3",
                    "midi": 55,
                    "time": 51.30000000000027,
                    "velocity": 0.6220472440944882,
                    "duration": 0.20156250000000142
                },
                {
                    "name": "C5",
                    "midi": 72,
                    "time": 51.60000000000027,
                    "velocity": 0.6771653543307087,
                    "duration": 0.14999999999999858
                },
                {
                    "name": "G2",
                    "midi": 43,
                    "time": 51.60000000000027,
                    "velocity": 0.6456692913385826,
                    "duration": 0.20156250000000142
                },
                {
                    "name": "G3",
                    "midi": 55,
                    "time": 51.60000000000027,
                    "velocity": 0.6456692913385826,
                    "duration": 0.20156250000000142
                },
                {
                    "name": "A4",
                    "midi": 69,
                    "time": 51.75000000000027,
                    "velocity": 0.5905511811023622,
                    "duration": 0.15000000000000568
                },
                {
                    "name": "B4",
                    "midi": 71,
                    "time": 51.900000000000276,
                    "velocity": 0.6692913385826772,
                    "duration": 0.14999999999999858
                },
                {
                    "name": "G3",
                    "midi": 55,
                    "time": 51.900000000000276,
                    "velocity": 0.6377952755905512,
                    "duration": 0.20156250000000142
                },
                {
                    "name": "G4",
                    "midi": 67,
                    "time": 52.050000000000274,
                    "velocity": 0.5748031496062992,
                    "duration": 0.15000000000000568
                },
                {
                    "name": "F4",
                    "midi": 65,
                    "time": 52.20000000000028,
                    "velocity": 0.5433070866141733,
                    "duration": 0.23906250000000284
                },
                {
                    "name": "C3",
                    "midi": 48,
                    "time": 52.20000000000028,
                    "velocity": 0.6141732283464567,
                    "duration": 0.20156250000000142
                },
                {
                    "name": "G3",
                    "midi": 55,
                    "time": 52.20000000000028,
                    "velocity": 0.6141732283464567,
                    "duration": 0.20156250000000142
                },
                {
                    "name": "F4",
                    "midi": 65,
                    "time": 52.500000000000284,
                    "velocity": 0.6220472440944882,
                    "duration": 0.08203125
                },
                {
                    "name": "G3",
                    "midi": 55,
                    "time": 52.500000000000284,
                    "velocity": 0.6456692913385826,
                    "duration": 0.07500000000000284
                },
                {
                    "name": "F4",
                    "midi": 65,
                    "time": 52.65000000000028,
                    "velocity": 0.6377952755905512,
                    "duration": 0.06562499999999716
                },
                {
                    "name": "G3",
                    "midi": 55,
                    "time": 52.65000000000028,
                    "velocity": 0.6456692913385826,
                    "duration": 0.07499999999999574
                },
                {
                    "name": "F4",
                    "midi": 65,
                    "time": 52.80000000000028,
                    "velocity": 0.5905511811023622,
                    "duration": 0.1640625
                },
                {
                    "name": "G3",
                    "midi": 55,
                    "time": 52.80000000000028,
                    "velocity": 0.6299212598425197,
                    "duration": 0.20156250000000142
                },
                {
                    "name": "A4",
                    "midi": 69,
                    "time": 53.100000000000286,
                    "velocity": 0.6062992125984252,
                    "duration": 0.1640625
                },
                {
                    "name": "G3",
                    "midi": 55,
                    "time": 53.100000000000286,
                    "velocity": 0.5354330708661418,
                    "duration": 0.20156250000000142
                },
                {
                    "name": "B4",
                    "midi": 71,
                    "time": 53.40000000000029,
                    "velocity": 0.4330708661417323,
                    "duration": 0.14999999999999858
                },
                {
                    "name": "G2",
                    "midi": 43,
                    "time": 53.40000000000029,
                    "velocity": 0.4409448818897638,
                    "duration": 0.20156250000000142
                },
                {
                    "name": "G3",
                    "midi": 55,
                    "time": 53.40000000000029,
                    "velocity": 0.4409448818897638,
                    "duration": 0.20156250000000142
                },
                {
                    "name": "G4",
                    "midi": 67,
                    "time": 53.55000000000029,
                    "velocity": 0.3779527559055118,
                    "duration": 0.15000000000000568
                },
                {
                    "name": "A4",
                    "midi": 69,
                    "time": 53.700000000000294,
                    "velocity": 0.33858267716535434,
                    "duration": 0.14999999999999858
                },
                {
                    "name": "G3",
                    "midi": 55,
                    "time": 53.700000000000294,
                    "velocity": 0.33858267716535434,
                    "duration": 0.20156250000000142
                },
                {
                    "name": "F4",
                    "midi": 65,
                    "time": 53.85000000000029,
                    "velocity": 0.2677165354330709,
                    "duration": 0.15000000000000568
                },
                {
                    "name": "D4",
                    "midi": 62,
                    "time": 54.0000000000003,
                    "velocity": 0.2047244094488189,
                    "duration": 0.23906250000000284
                },
                {
                    "name": "C3",
                    "midi": 48,
                    "time": 54.0000000000003,
                    "velocity": 0.28346456692913385,
                    "duration": 0.20156250000000142
                },
                {
                    "name": "G3",
                    "midi": 55,
                    "time": 54.0000000000003,
                    "velocity": 0.28346456692913385,
                    "duration": 0.20156250000000142
                },
                {
                    "name": "D4",
                    "midi": 62,
                    "time": 54.3000000000003,
                    "velocity": 0.3228346456692913,
                    "duration": 0.15000000000000568
                },
                {
                    "name": "G3",
                    "midi": 55,
                    "time": 54.3000000000003,
                    "velocity": 0.28346456692913385,
                    "duration": 0.07500000000000284
                },
                {
                    "name": "C4",
                    "midi": 60,
                    "time": 54.45000000000031,
                    "velocity": 0.2755905511811024,
                    "duration": 0.15000000000000568
                },
                {
                    "name": "G3",
                    "midi": 55,
                    "time": 54.45000000000031,
                    "velocity": 0.28346456692913385,
                    "duration": 0.07500000000000284
                },
                {
                    "name": "D4",
                    "midi": 62,
                    "time": 54.600000000000314,
                    "velocity": 0.31496062992125984,
                    "duration": 0.8390625000000114
                },
                {
                    "name": "G3",
                    "midi": 55,
                    "time": 54.600000000000314,
                    "velocity": 0.30708661417322836,
                    "duration": 0.20156250000000142
                },
                {
                    "name": "G3",
                    "midi": 55,
                    "time": 54.90000000000032,
                    "velocity": 0.2992125984251969,
                    "duration": 0.20156250000000142
                },
                {
                    "name": "G2",
                    "midi": 43,
                    "time": 55.20000000000032,
                    "velocity": 0.30708661417322836,
                    "duration": 0.20156250000000142
                },
                {
                    "name": "G3",
                    "midi": 55,
                    "time": 55.20000000000032,
                    "velocity": 0.30708661417322836,
                    "duration": 0.20156250000000142
                },
                {
                    "name": "D4",
                    "midi": 62,
                    "time": 55.50000000000033,
                    "velocity": 0.3228346456692913,
                    "duration": 0.08203125
                },
                {
                    "name": "G3",
                    "midi": 55,
                    "time": 55.50000000000033,
                    "velocity": 0.33858267716535434,
                    "duration": 0.20156250000000142
                },
                {
                    "name": "D4",
                    "midi": 62,
                    "time": 55.650000000000325,
                    "velocity": 0.2755905511811024,
                    "duration": 0.06562500000000426
                },
                {
                    "name": "D4",
                    "midi": 62,
                    "time": 55.80000000000033,
                    "velocity": 0.29133858267716534,
                    "duration": 0.1640625
                },
                {
                    "name": "C3",
                    "midi": 48,
                    "time": 55.80000000000033,
                    "velocity": 0.31496062992125984,
                    "duration": 0.20156250000000142
                },
                {
                    "name": "G3",
                    "midi": 55,
                    "time": 55.80000000000033,
                    "velocity": 0.31496062992125984,
                    "duration": 0.20156250000000142
                },
                {
                    "name": "F4",
                    "midi": 65,
                    "time": 56.100000000000335,
                    "velocity": 0.29133858267716534,
                    "duration": 0.1640625000000071
                },
                {
                    "name": "G3",
                    "midi": 55,
                    "time": 56.100000000000335,
                    "velocity": 0.2755905511811024,
                    "duration": 0.07500000000000284
                },
                {
                    "name": "G3",
                    "midi": 55,
                    "time": 56.25000000000034,
                    "velocity": 0.3228346456692913,
                    "duration": 0.07500000000000284
                },
                {
                    "name": "A4",
                    "midi": 69,
                    "time": 56.40000000000035,
                    "velocity": 0.30708661417322836,
                    "duration": 0.14999999999999858
                },
                {
                    "name": "G3",
                    "midi": 55,
                    "time": 56.40000000000035,
                    "velocity": 0.29133858267716534,
                    "duration": 0.20156250000000142
                },
                {
                    "name": "F4",
                    "midi": 65,
                    "time": 56.550000000000345,
                    "velocity": 0.2283464566929134,
                    "duration": 0.15000000000000568
                },
                {
                    "name": "G4",
                    "midi": 67,
                    "time": 56.70000000000035,
                    "velocity": 0.28346456692913385,
                    "duration": 0.14999999999999858
                },
                {
                    "name": "G3",
                    "midi": 55,
                    "time": 56.70000000000035,
                    "velocity": 0.33070866141732286,
                    "duration": 0.20156250000000142
                },
                {
                    "name": "E4",
                    "midi": 64,
                    "time": 56.85000000000035,
                    "velocity": 0.2755905511811024,
                    "duration": 0.15000000000000568
                },
                {
                    "name": "D4",
                    "midi": 62,
                    "time": 57.000000000000355,
                    "velocity": 0.2677165354330709,
                    "duration": 0.23906250000000284
                },
                {
                    "name": "G2",
                    "midi": 43,
                    "time": 57.000000000000355,
                    "velocity": 0.2755905511811024,
                    "duration": 0.20156250000000142
                },
                {
                    "name": "G3",
                    "midi": 55,
                    "time": 57.000000000000355,
                    "velocity": 0.2755905511811024,
                    "duration": 0.20156250000000142
                },
                {
                    "name": "D4",
                    "midi": 62,
                    "time": 57.30000000000036,
                    "velocity": 0.25984251968503935,
                    "duration": 0.14999999999999858
                },
                {
                    "name": "G3",
                    "midi": 55,
                    "time": 57.30000000000036,
                    "velocity": 0.2992125984251969,
                    "duration": 0.20156250000000142
                },
                {
                    "name": "C4",
                    "midi": 60,
                    "time": 57.45000000000036,
                    "velocity": 0.2755905511811024,
                    "duration": 0.15000000000000568
                },
                {
                    "name": "D4",
                    "midi": 62,
                    "time": 57.600000000000364,
                    "velocity": 0.31496062992125984,
                    "duration": 0.801562500000017
                },
                {
                    "name": "C3",
                    "midi": 48,
                    "time": 57.600000000000364,
                    "velocity": 0.30708661417322836,
                    "duration": 0.20156250000000142
                },
                {
                    "name": "G3",
                    "midi": 55,
                    "time": 57.600000000000364,
                    "velocity": 0.30708661417322836,
                    "duration": 0.20156250000000142
                },
                {
                    "name": "G3",
                    "midi": 55,
                    "time": 57.90000000000037,
                    "velocity": 0.30708661417322836,
                    "duration": 0.07500000000000284
                },
                {
                    "name": "G3",
                    "midi": 55,
                    "time": 58.050000000000374,
                    "velocity": 0.2992125984251969,
                    "duration": 0.07500000000000284
                },
                {
                    "name": "G3",
                    "midi": 55,
                    "time": 58.20000000000038,
                    "velocity": 0.23622047244094488,
                    "duration": 0.20156250000000142
                },
                {
                    "name": "D4",
                    "midi": 62,
                    "time": 58.500000000000384,
                    "velocity": 0.2992125984251969,
                    "duration": 0.14999999999999858
                },
                {
                    "name": "G3",
                    "midi": 55,
                    "time": 58.500000000000384,
                    "velocity": 0.2992125984251969,
                    "duration": 0.20156250000000142
                },
                {
                    "name": "C4",
                    "midi": 60,
                    "time": 58.65000000000038,
                    "velocity": 0.25196850393700787,
                    "duration": 0.15000000000000568
                },
                {
                    "name": "D4",
                    "midi": 62,
                    "time": 58.80000000000039,
                    "velocity": 0.30708661417322836,
                    "duration": 0.30000000000000426
                },
                {
                    "name": "G2",
                    "midi": 43,
                    "time": 58.80000000000039,
                    "velocity": 0.28346456692913385,
                    "duration": 0.20156250000000142
                },
                {
                    "name": "G3",
                    "midi": 55,
                    "time": 58.80000000000039,
                    "velocity": 0.28346456692913385,
                    "duration": 0.20156250000000142
                },
                {
                    "name": "E4",
                    "midi": 64,
                    "time": 59.10000000000039,
                    "velocity": 0.3228346456692913,
                    "duration": 0.14999999999999858
                },
                {
                    "name": "G3",
                    "midi": 55,
                    "time": 59.10000000000039,
                    "velocity": 0.30708661417322836,
                    "duration": 0.20156250000000142
                },
                {
                    "name": "F4",
                    "midi": 65,
                    "time": 59.25000000000039,
                    "velocity": 0.2992125984251969,
                    "duration": 0.15000000000000568
                },
                {
                    "name": "G4",
                    "midi": 67,
                    "time": 59.4000000000004,
                    "velocity": 0.2992125984251969,
                    "duration": 1.3500000000000227
                },
                {
                    "name": "C3",
                    "midi": 48,
                    "time": 59.4000000000004,
                    "velocity": 0.2992125984251969,
                    "duration": 0.20156250000000142
                },
                {
                    "name": "G3",
                    "midi": 55,
                    "time": 59.4000000000004,
                    "velocity": 0.2992125984251969,
                    "duration": 0.20156250000000142
                },
                {
                    "name": "G3",
                    "midi": 55,
                    "time": 59.7000000000004,
                    "velocity": 0.29133858267716534,
                    "duration": 0.07500000000000284
                },
                {
                    "name": "G3",
                    "midi": 55,
                    "time": 59.850000000000406,
                    "velocity": 0.2992125984251969,
                    "duration": 0.07500000000000284
                },
                {
                    "name": "G3",
                    "midi": 55,
                    "time": 60.00000000000041,
                    "velocity": 0.29133858267716534,
                    "duration": 0.20156250000000142
                },
                {
                    "name": "G3",
                    "midi": 55,
                    "time": 60.300000000000416,
                    "velocity": 0.2992125984251969,
                    "duration": 0.20156250000000142
                },
                {
                    "name": "G2",
                    "midi": 43,
                    "time": 60.60000000000042,
                    "velocity": 0.30708661417322836,
                    "duration": 0.20156250000000142
                },
                {
                    "name": "G3",
                    "midi": 55,
                    "time": 60.60000000000042,
                    "velocity": 0.30708661417322836,
                    "duration": 0.20156250000000142
                },
                {
                    "name": "F4",
                    "midi": 65,
                    "time": 60.75000000000042,
                    "velocity": 0.2992125984251969,
                    "duration": 0.15000000000000568
                },
                {
                    "name": "E4",
                    "midi": 64,
                    "time": 60.900000000000425,
                    "velocity": 0.2755905511811024,
                    "duration": 0.14999999999999858
                },
                {
                    "name": "G3",
                    "midi": 55,
                    "time": 60.900000000000425,
                    "velocity": 0.31496062992125984,
                    "duration": 0.20156250000000142
                },
                {
                    "name": "D4",
                    "midi": 62,
                    "time": 61.05000000000042,
                    "velocity": 0.28346456692913385,
                    "duration": 0.15000000000000568
                },
                {
                    "name": "C4",
                    "midi": 60,
                    "time": 61.20000000000043,
                    "velocity": 0.2677165354330709,
                    "duration": 5.400000000000048
                },
                {
                    "name": "C3",
                    "midi": 48,
                    "time": 61.20000000000043,
                    "velocity": 0.2755905511811024,
                    "duration": 0.20156250000000142
                },
                {
                    "name": "G3",
                    "midi": 55,
                    "time": 61.20000000000043,
                    "velocity": 0.2755905511811024,
                    "duration": 0.20156250000000142
                },
                {
                    "name": "G3",
                    "midi": 55,
                    "time": 61.50000000000043,
                    "velocity": 0.2992125984251969,
                    "duration": 0.07500000000000284
                },
                {
                    "name": "G3",
                    "midi": 55,
                    "time": 61.65000000000044,
                    "velocity": 0.29133858267716534,
                    "duration": 0.07500000000000284
                },
                {
                    "name": "G3",
                    "midi": 55,
                    "time": 61.800000000000445,
                    "velocity": 0.3464566929133858,
                    "duration": 0.20156250000000142
                },
                {
                    "name": "G3",
                    "midi": 55,
                    "time": 62.10000000000045,
                    "velocity": 0.28346456692913385,
                    "duration": 0.20156250000000142
                },
                {
                    "name": "G2",
                    "midi": 43,
                    "time": 62.40000000000045,
                    "velocity": 0.3228346456692913,
                    "duration": 0.20156250000000142
                },
                {
                    "name": "G3",
                    "midi": 55,
                    "time": 62.40000000000045,
                    "velocity": 0.3228346456692913,
                    "duration": 0.20156250000000142
                },
                {
                    "name": "G3",
                    "midi": 55,
                    "time": 62.70000000000046,
                    "velocity": 0.30708661417322836,
                    "duration": 0.20156250000000142
                },
                {
                    "name": "C3",
                    "midi": 48,
                    "time": 63.00000000000046,
                    "velocity": 0.31496062992125984,
                    "duration": 0.20156250000000142
                },
                {
                    "name": "G3",
                    "midi": 55,
                    "time": 63.00000000000046,
                    "velocity": 0.31496062992125984,
                    "duration": 0.20156250000000142
                },
                {
                    "name": "G3",
                    "midi": 55,
                    "time": 63.300000000000466,
                    "velocity": 0.28346456692913385,
                    "duration": 0.07500000000000284
                },
                {
                    "name": "G3",
                    "midi": 55,
                    "time": 63.45000000000047,
                    "velocity": 0.28346456692913385,
                    "duration": 0.07500000000000284
                },
                {
                    "name": "G3",
                    "midi": 55,
                    "time": 63.60000000000048,
                    "velocity": 0.2755905511811024,
                    "duration": 0.20156250000000142
                },
                {
                    "name": "G3",
                    "midi": 55,
                    "time": 63.90000000000048,
                    "velocity": 0.2755905511811024,
                    "duration": 0.20156250000000142
                },
                {
                    "name": "G2",
                    "midi": 43,
                    "time": 64.20000000000049,
                    "velocity": 0.31496062992125984,
                    "duration": 0.20156249999999432
                },
                {
                    "name": "G3",
                    "midi": 55,
                    "time": 64.20000000000049,
                    "velocity": 0.31496062992125984,
                    "duration": 0.20156249999999432
                },
                {
                    "name": "G3",
                    "midi": 55,
                    "time": 64.50000000000048,
                    "velocity": 0.2992125984251969,
                    "duration": 0.20156249999999432
                },
                {
                    "name": "C3",
                    "midi": 48,
                    "time": 64.80000000000048,
                    "velocity": 0.2755905511811024,
                    "duration": 1.7015624999999943
                },
                {
                    "name": "G3",
                    "midi": 55,
                    "time": 64.80000000000048,
                    "velocity": 0.2755905511811024,
                    "duration": 1.7015624999999943
                }
            ],
            "controlChanges": {
                "7": [
                    {
                        "number": 7,
                        "time": 0,
                        "value": 0.7874015748031497
                    },
                    {
                        "number": 7,
                        "time": 0,
                        "value": 0.7874015748031497
                    }
                ],
                "10": [
                    {
                        "number": 10,
                        "time": 0,
                        "value": 0.5039370078740157
                    },
                    {
                        "number": 10,
                        "time": 0,
                        "value": 0.5039370078740157
                    }
                ],
                "32": [
                    {
                        "number": 32,
                        "time": 0,
                        "value": 0
                    }
                ],
                "64": [
                    {
                        "number": 64,
                        "time": 0,
                        "value": 0
                    },
                    {
                        "number": 64,
                        "time": 0,
                        "value": 0
                    }
                ],
                "91": [
                    {
                        "number": 91,
                        "time": 0,
                        "value": 0.3779527559055118
                    },
                    {
                        "number": 91,
                        "time": 0,
                        "value": 0.3779527559055118
                    }
                ],
                "121": [
                    {
                        "number": 121,
                        "time": 0,
                        "value": 0
                    },
                    {
                        "number": 121,
                        "time": 0,
                        "value": 0
                    }
                ]
            },
            "id": 1,
            "name": " ",
            "instrumentNumber": 0,
            "instrument": "acoustic grand piano",
            "instrumentFamily": "piano",
            "channelNumber": 0,
            "isPercussion": false
        }
    ]
}