{
    "header": {
        "PPQ": 384,
        "timeSignature": [
            4,
            4
        ],
        "bpm": 120,
        "name": " "
    },
    "startTime": 0,
    "duration": 75.21875000000004,
    "tracks": [
        {
            "startTime": 0,
            "duration": 0,
            "length": 0,
            "notes": [],
            "controlChanges": {},
            "id": 0
        },
        {
            "startTime": 0.5,
            "duration": 75.21875000000004,
            "length": 246,
            "notes": [
                {
                    "name": "B4",
                    "midi": 71,
                    "time": 0.5,
                    "velocity": 0.4881889763779528,
                    "duration": 1.838541666666667
                },
                {
                    "name": "A3",
                    "midi": 57,
                    "time": 0.5,
                    "velocity": 0.3228346456692913,
                    "duration": 0.14583333333333326
                },
                {
                    "name": "C4",
                    "midi": 60,
                    "time": 0.6197916666666666,
                    "velocity": 0.3464566929133858,
                    "duration": 0.16666666666666663
                },
                {
                    "name": "G4",
                    "midi": 67,
                    "time": 0.7083333333333333,
                    "velocity": 0.33858267716535434,
                    "duration": 0.11979166666666674
                },
                {
                    "name": "G#4",
                    "midi": 68,
                    "time": 0.8072916666666666,
                    "velocity": 0.3464566929133858,
                    "duration": 0.22395833333333337
                },
                {
                    "name": "D#5",
                    "midi": 75,
                    "time": 2.322916666666667,
                    "velocity": 0.44881889763779526,
                    "duration": 0.6510416666666665
                },
                {
                    "name": "D#2",
                    "midi": 39,
                    "time": 2.8802083333333335,
                    "velocity": 0.2204724409448819,
                    "duration": 1.0989583333333335
                },
                {
                    "name": "E3",
                    "midi": 52,
                    "time": 2.8802083333333335,
                    "velocity": 0.2992125984251969,
                    "duration": 1.088541666666667
                },
                {
                    "name": "B2",
                    "midi": 47,
                    "time": 2.885416666666667,
                    "velocity": 0.25984251968503935,
                    "duration": 1.0833333333333335
                },
                {
                    "name": "F4",
                    "midi": 65,
                    "time": 2.984375,
                    "velocity": 0.44881889763779526,
                    "duration": 1.057291666666667
                },
                {
                    "name": "G3",
                    "midi": 55,
                    "time": 3.6302083333333335,
                    "velocity": 0.36220472440944884,
                    "duration": 0.9375000000000004
                },
                {
                    "name": "C4",
                    "midi": 60,
                    "time": 3.6302083333333335,
                    "velocity": 0.2283464566929134,
                    "duration": 1.0156250000000004
                },
                {
                    "name": "F#4",
                    "midi": 66,
                    "time": 4.380208333333334,
                    "velocity": 0.36220472440944884,
                    "duration": 0.552083333333333
                },
                {
                    "name": "A4",
                    "midi": 69,
                    "time": 5.963541666666667,
                    "velocity": 0.3700787401574803,
                    "duration": 0.5781250000000009
                },
                {
                    "name": "A#4",
                    "midi": 70,
                    "time": 6.520833333333334,
                    "velocity": 0.5275590551181102,
                    "duration": 0.2708333333333339
                },
                {
                    "name": "F4",
                    "midi": 65,
                    "time": 6.531250000000001,
                    "velocity": 0.3464566929133858,
                    "duration": 0.17708333333333393
                },
                {
                    "name": "E4",
                    "midi": 64,
                    "time": 6.682291666666668,
                    "velocity": 0.33858267716535434,
                    "duration": 0.15625
                },
                {
                    "name": "A4",
                    "midi": 69,
                    "time": 6.791666666666668,
                    "velocity": 0.49606299212598426,
                    "duration": 0.40625
                },
                {
                    "name": "C#4",
                    "midi": 61,
                    "time": 6.817708333333335,
                    "velocity": 0.33858267716535434,
                    "duration": 0.14583333333333304
                },
                {
                    "name": "A#3",
                    "midi": 58,
                    "time": 6.932291666666668,
                    "velocity": 0.3464566929133858,
                    "duration": 0.03645833333333304
                },
                {
                    "name": "G3",
                    "midi": 55,
                    "time": 7.171875000000001,
                    "velocity": 0.3700787401574803,
                    "duration": 0.07291666666666696
                },
                {
                    "name": "C4",
                    "midi": 60,
                    "time": 7.182291666666668,
                    "velocity": 0.33858267716535434,
                    "duration": 0.0625
                },
                {
                    "name": "F#4",
                    "midi": 66,
                    "time": 7.182291666666668,
                    "velocity": 0.36220472440944884,
                    "duration": 1.34375
                },
                {
                    "name": "D3",
                    "midi": 50,
                    "time": 7.593750000000001,
                    "velocity": 0.28346456692913385,
                    "duration": 0.4062499999999991
                },
                {
                    "name": "B2",
                    "midi": 47,
                    "time": 7.625000000000001,
                    "velocity": 0.25984251968503935,
                    "duration": 0.28645833333333304
                },
                {
                    "name": "D#4",
                    "midi": 63,
                    "time": 8.505208333333334,
                    "velocity": 0.29133858267716534,
                    "duration": 0.7812500000000018
                },
                {
                    "name": "D3",
                    "midi": 50,
                    "time": 8.526041666666668,
                    "velocity": 0.2283464566929134,
                    "duration": 0.2864583333333339
                },
                {
                    "name": "C#3",
                    "midi": 49,
                    "time": 8.812500000000002,
                    "velocity": 0.2440944881889764,
                    "duration": 0.515625
                },
                {
                    "name": "C3",
                    "midi": 48,
                    "time": 9.432291666666668,
                    "velocity": 0.25984251968503935,
                    "duration": 0.08854166666666607
                },
                {
                    "name": "B3",
                    "midi": 59,
                    "time": 9.520833333333334,
                    "velocity": 0.5118110236220472,
                    "duration": 0.6041666666666661
                },
                {
                    "name": "D4",
                    "midi": 62,
                    "time": 10.130208333333334,
                    "velocity": 0.5354330708661418,
                    "duration": 0.23958333333333393
                },
                {
                    "name": "A#4",
                    "midi": 70,
                    "time": 10.609375000000002,
                    "velocity": 0.5590551181102362,
                    "duration": 1.4531250000000018
                },
                {
                    "name": "D#4",
                    "midi": 63,
                    "time": 11.328125000000002,
                    "velocity": 0.1889763779527559,
                    "duration": 0.7343750000000018
                },
                {
                    "name": "C4",
                    "midi": 60,
                    "time": 11.333333333333336,
                    "velocity": 0.2047244094488189,
                    "duration": 0.6666666666666679
                },
                {
                    "name": "B5",
                    "midi": 83,
                    "time": 11.61979166666667,
                    "velocity": 0.33070866141732286,
                    "duration": 0.16145833333333393
                },
                {
                    "name": "E5",
                    "midi": 76,
                    "time": 11.734375000000004,
                    "velocity": 0.36220472440944884,
                    "duration": 0.19791666666666607
                },
                {
                    "name": "A5",
                    "midi": 81,
                    "time": 11.843750000000004,
                    "velocity": 0.4094488188976378,
                    "duration": 0.10416666666666607
                },
                {
                    "name": "G5",
                    "midi": 79,
                    "time": 11.953125000000004,
                    "velocity": 0.4330708661417323,
                    "duration": 0.3333333333333339
                },
                {
                    "name": "G#5",
                    "midi": 80,
                    "time": 12.26041666666667,
                    "velocity": 0.3543307086614173,
                    "duration": 1.0989583333333375
                },
                {
                    "name": "B3",
                    "midi": 59,
                    "time": 12.26041666666667,
                    "velocity": 0.3543307086614173,
                    "duration": 0.17187500000000178
                },
                {
                    "name": "B4",
                    "midi": 71,
                    "time": 12.265625000000004,
                    "velocity": 0.2283464566929134,
                    "duration": 0.16145833333333393
                },
                {
                    "name": "D4",
                    "midi": 62,
                    "time": 12.291666666666671,
                    "velocity": 0.18110236220472442,
                    "duration": 0.14583333333333393
                },
                {
                    "name": "A#4",
                    "midi": 70,
                    "time": 12.75520833333334,
                    "velocity": 0.2047244094488189,
                    "duration": 3.9895833333333357
                },
                {
                    "name": "C4",
                    "midi": 60,
                    "time": 12.77083333333334,
                    "velocity": 0.2047244094488189,
                    "duration": 4.197916666666668
                },
                {
                    "name": "D#4",
                    "midi": 63,
                    "time": 12.776041666666673,
                    "velocity": 0.18110236220472442,
                    "duration": 4.015625000000002
                },
                {
                    "name": "A5",
                    "midi": 81,
                    "time": 13.234375000000007,
                    "velocity": 0.2755905511811024,
                    "duration": 3.5625
                },
                {
                    "name": "D5",
                    "midi": 74,
                    "time": 13.848958333333341,
                    "velocity": 0.30708661417322836,
                    "duration": 0.4583333333333339
                },
                {
                    "name": "E5",
                    "midi": 76,
                    "time": 14.984375000000009,
                    "velocity": 0.25196850393700787,
                    "duration": 0.5989583333333339
                },
                {
                    "name": "F5",
                    "midi": 77,
                    "time": 16.46875000000001,
                    "velocity": 0.2125984251968504,
                    "duration": 0.32812499999999645
                },
                {
                    "name": "D#5",
                    "midi": 75,
                    "time": 17.755208333333343,
                    "velocity": 0.5118110236220472,
                    "duration": 0.6145833333333286
                },
                {
                    "name": "F#5",
                    "midi": 78,
                    "time": 17.755208333333343,
                    "velocity": 0.5748031496062992,
                    "duration": 0.8124999999999964
                },
                {
                    "name": "D3",
                    "midi": 50,
                    "time": 17.770833333333343,
                    "velocity": 0.3228346456692913,
                    "duration": 0.3958333333333286
                },
                {
                    "name": "A3",
                    "midi": 57,
                    "time": 17.776041666666675,
                    "velocity": 0.2440944881889764,
                    "duration": 0.33333333333333215
                },
                {
                    "name": "B3",
                    "midi": 59,
                    "time": 18.11458333333334,
                    "velocity": 0.44881889763779526,
                    "duration": 0.0729166666666643
                },
                {
                    "name": "D#3",
                    "midi": 51,
                    "time": 18.38541666666667,
                    "velocity": 0.3700787401574803,
                    "duration": 0.40625
                },
                {
                    "name": "F4",
                    "midi": 65,
                    "time": 18.38541666666667,
                    "velocity": 0.3779527559055118,
                    "duration": 0.6874999999999964
                },
                {
                    "name": "D4",
                    "midi": 62,
                    "time": 18.390625000000004,
                    "velocity": 0.4015748031496063,
                    "duration": 0.23437500000000355
                },
                {
                    "name": "C#4",
                    "midi": 61,
                    "time": 18.609375000000007,
                    "velocity": 0.3858267716535433,
                    "duration": 0.26562499999999645
                },
                {
                    "name": "E5",
                    "midi": 76,
                    "time": 18.90104166666667,
                    "velocity": 0.5039370078740157,
                    "duration": 0.09375
                },
                {
                    "name": "D#5",
                    "midi": 75,
                    "time": 19.046875000000004,
                    "velocity": 0.5118110236220472,
                    "duration": 0.22395833333333215
                },
                {
                    "name": "F3",
                    "midi": 53,
                    "time": 19.052083333333336,
                    "velocity": 0.4566929133858268,
                    "duration": 0.5260416666666643
                },
                {
                    "name": "E4",
                    "midi": 64,
                    "time": 19.057291666666668,
                    "velocity": 0.3700787401574803,
                    "duration": 0.7708333333333321
                },
                {
                    "name": "G#4",
                    "midi": 68,
                    "time": 19.057291666666668,
                    "velocity": 0.3700787401574803,
                    "duration": 0.34375
                },
                {
                    "name": "D5",
                    "midi": 74,
                    "time": 19.286458333333336,
                    "velocity": 0.49606299212598426,
                    "duration": 0.17708333333333215
                },
                {
                    "name": "A4",
                    "midi": 69,
                    "time": 19.442708333333336,
                    "velocity": 0.4409448818897638,
                    "duration": 0.39583333333333215
                },
                {
                    "name": "A3",
                    "midi": 57,
                    "time": 19.604166666666668,
                    "velocity": 0.25984251968503935,
                    "duration": 1.1770833333333357
                },
                {
                    "name": "C#5",
                    "midi": 73,
                    "time": 19.666666666666668,
                    "velocity": 0.4645669291338583,
                    "duration": 0.48958333333333215
                },
                {
                    "name": "G4",
                    "midi": 67,
                    "time": 19.947916666666668,
                    "velocity": 0.49606299212598426,
                    "duration": 0.6822916666666679
                },
                {
                    "name": "D#4",
                    "midi": 63,
                    "time": 20.135416666666668,
                    "velocity": 0.2677165354330709,
                    "duration": 0.47916666666666785
                },
                {
                    "name": "C5",
                    "midi": 72,
                    "time": 20.229166666666668,
                    "velocity": 0.4645669291338583,
                    "duration": 0.8385416666666679
                },
                {
                    "name": "F#3",
                    "midi": 54,
                    "time": 20.552083333333336,
                    "velocity": 0.3543307086614173,
                    "duration": 0.6927083333333321
                },
                {
                    "name": "B4",
                    "midi": 71,
                    "time": 20.593750000000004,
                    "velocity": 0.36220472440944884,
                    "duration": 0.3125
                },
                {
                    "name": "A#4",
                    "midi": 70,
                    "time": 20.906250000000004,
                    "velocity": 0.3228346456692913,
                    "duration": 0.16145833333333215
                },
                {
                    "name": "G#5",
                    "midi": 80,
                    "time": 21.593750000000004,
                    "velocity": 0.5590551181102362,
                    "duration": 0.911458333333325
                },
                {
                    "name": "A4",
                    "midi": 69,
                    "time": 21.598958333333336,
                    "velocity": 0.5590551181102362,
                    "duration": 0.7187499999999929
                },
                {
                    "name": "B3",
                    "midi": 59,
                    "time": 21.598958333333336,
                    "velocity": 0.47244094488188976,
                    "duration": 0.3333333333333286
                },
                {
                    "name": "C#3",
                    "midi": 49,
                    "time": 21.604166666666668,
                    "velocity": 0.33858267716535434,
                    "duration": 0.16145833333333215
                },
                {
                    "name": "F#3",
                    "midi": 54,
                    "time": 21.609375,
                    "velocity": 0.4251968503937008,
                    "duration": 0.31770833333333215
                },
                {
                    "name": "D3",
                    "midi": 50,
                    "time": 21.859375,
                    "velocity": 0.5275590551181102,
                    "duration": 0.05208333333333215
                },
                {
                    "name": "A#3",
                    "midi": 58,
                    "time": 22.182291666666664,
                    "velocity": 0.44881889763779526,
                    "duration": 0.46874999999999645
                },
                {
                    "name": "D4",
                    "midi": 62,
                    "time": 22.187499999999996,
                    "velocity": 0.4409448818897638,
                    "duration": 0.49999999999999645
                },
                {
                    "name": "F#3",
                    "midi": 54,
                    "time": 22.19270833333333,
                    "velocity": 0.4330708661417323,
                    "duration": 0.453125
                },
                {
                    "name": "G5",
                    "midi": 79,
                    "time": 22.484374999999996,
                    "velocity": 0.48031496062992124,
                    "duration": 0.0729166666666643
                },
                {
                    "name": "B5",
                    "midi": 83,
                    "time": 22.93229166666666,
                    "velocity": 0.3937007874015748,
                    "duration": 0.5885416666666643
                },
                {
                    "name": "G#4",
                    "midi": 68,
                    "time": 23.484374999999993,
                    "velocity": 0.4330708661417323,
                    "duration": 0.328125
                },
                {
                    "name": "E5",
                    "midi": 76,
                    "time": 23.484374999999993,
                    "velocity": 0.5748031496062992,
                    "duration": 0.026041666666664298
                },
                {
                    "name": "F4",
                    "midi": 65,
                    "time": 23.489583333333325,
                    "velocity": 0.4330708661417323,
                    "duration": 0.3125
                },
                {
                    "name": "D6",
                    "midi": 86,
                    "time": 23.786458333333325,
                    "velocity": 0.5984251968503937,
                    "duration": 0.06250000000000355
                },
                {
                    "name": "D#5",
                    "midi": 75,
                    "time": 23.786458333333325,
                    "velocity": 0.49606299212598426,
                    "duration": 0.0520833333333357
                },
                {
                    "name": "A4",
                    "midi": 69,
                    "time": 23.791666666666657,
                    "velocity": 0.49606299212598426,
                    "duration": 0.04687500000000355
                },
                {
                    "name": "F#6",
                    "midi": 90,
                    "time": 24.19270833333333,
                    "velocity": 0.6141732283464567,
                    "duration": 0.28125000000000355
                },
                {
                    "name": "D4",
                    "midi": 62,
                    "time": 24.19270833333333,
                    "velocity": 0.4881889763779528,
                    "duration": 0.26041666666666785
                },
                {
                    "name": "C#5",
                    "midi": 73,
                    "time": 24.19791666666666,
                    "velocity": 0.44881889763779526,
                    "duration": 0.4010416666666714
                },
                {
                    "name": "G5",
                    "midi": 79,
                    "time": 24.19791666666666,
                    "velocity": 0.6299212598425197,
                    "duration": 0.5052083333333357
                },
                {
                    "name": "D#4",
                    "midi": 63,
                    "time": 24.463541666666664,
                    "velocity": 0.36220472440944884,
                    "duration": 0.1875
                },
                {
                    "name": "F6",
                    "midi": 89,
                    "time": 24.489583333333332,
                    "velocity": 0.5905511811023622,
                    "duration": 0.2447916666666643
                },
                {
                    "name": "A#4",
                    "midi": 70,
                    "time": 24.98958333333333,
                    "velocity": 0.3858267716535433,
                    "duration": 0.0729166666666643
                },
                {
                    "name": "A4",
                    "midi": 69,
                    "time": 25.359374999999993,
                    "velocity": 0.3937007874015748,
                    "duration": 0.05729166666666785
                },
                {
                    "name": "D#5",
                    "midi": 75,
                    "time": 25.546874999999993,
                    "velocity": 0.3543307086614173,
                    "duration": 0.09895833333333215
                },
                {
                    "name": "A4",
                    "midi": 69,
                    "time": 25.578124999999993,
                    "velocity": 0.4015748031496063,
                    "duration": 0.1197916666666643
                },
                {
                    "name": "D6",
                    "midi": 86,
                    "time": 25.609374999999993,
                    "velocity": 0.44881889763779526,
                    "duration": 0.1197916666666643
                },
                {
                    "name": "G#4",
                    "midi": 68,
                    "time": 25.838541666666657,
                    "velocity": 0.29133858267716534,
                    "duration": 0.04166666666666785
                },
                {
                    "name": "G#4",
                    "midi": 68,
                    "time": 25.968749999999993,
                    "velocity": 0.4015748031496063,
                    "duration": 0.06770833333333215
                },
                {
                    "name": "B4",
                    "midi": 71,
                    "time": 26.208333333333325,
                    "velocity": 0.4094488188976378,
                    "duration": 0.046875
                },
                {
                    "name": "F5",
                    "midi": 77,
                    "time": 26.312499999999993,
                    "velocity": 0.29133858267716534,
                    "duration": 0.0677083333333357
                },
                {
                    "name": "A5",
                    "midi": 81,
                    "time": 26.33854166666666,
                    "velocity": 0.33858267716535434,
                    "duration": 0.0520833333333357
                },
                {
                    "name": "B4",
                    "midi": 71,
                    "time": 26.35416666666666,
                    "velocity": 0.4251968503937008,
                    "duration": 0.0729166666666714
                },
                {
                    "name": "C#6",
                    "midi": 85,
                    "time": 26.36458333333333,
                    "velocity": 0.3937007874015748,
                    "duration": 0.0520833333333357
                },
                {
                    "name": "D4",
                    "midi": 62,
                    "time": 26.583333333333332,
                    "velocity": 0.4330708661417323,
                    "duration": 0.07291666666666785
                },
                {
                    "name": "D4",
                    "midi": 62,
                    "time": 26.843749999999996,
                    "velocity": 0.4645669291338583,
                    "duration": 1.1302083333333321
                },
                {
                    "name": "F#5",
                    "midi": 78,
                    "time": 27.031249999999996,
                    "velocity": 0.4645669291338583,
                    "duration": 0.23958333333333215
                },
                {
                    "name": "C#5",
                    "midi": 73,
                    "time": 27.14583333333333,
                    "velocity": 0.4251968503937008,
                    "duration": 0.11979166666666785
                },
                {
                    "name": "G4",
                    "midi": 67,
                    "time": 27.23958333333333,
                    "velocity": 0.5275590551181102,
                    "duration": 0.1041666666666643
                },
                {
                    "name": "A#4",
                    "midi": 70,
                    "time": 27.32291666666666,
                    "velocity": 0.47244094488188976,
                    "duration": 0.6197916666666679
                },
                {
                    "name": "D5",
                    "midi": 74,
                    "time": 27.406249999999993,
                    "velocity": 0.5118110236220472,
                    "duration": 0.09375
                },
                {
                    "name": "A5",
                    "midi": 81,
                    "time": 27.51041666666666,
                    "velocity": 0.44881889763779526,
                    "duration": 0.078125
                },
                {
                    "name": "G#5",
                    "midi": 80,
                    "time": 27.58854166666666,
                    "velocity": 0.4645669291338583,
                    "duration": 0.046875
                },
                {
                    "name": "F6",
                    "midi": 89,
                    "time": 27.84895833333333,
                    "velocity": 0.6771653543307087,
                    "duration": 0.03645833333333215
                },
                {
                    "name": "B5",
                    "midi": 83,
                    "time": 27.85416666666666,
                    "velocity": 0.5275590551181102,
                    "duration": 0.02604166666666785
                },
                {
                    "name": "F#5",
                    "midi": 78,
                    "time": 28.29166666666666,
                    "velocity": 0.5905511811023622,
                    "duration": 0.5416666666666607
                },
                {
                    "name": "C5",
                    "midi": 72,
                    "time": 28.296874999999993,
                    "velocity": 0.5433070866141733,
                    "duration": 0.5208333333333286
                },
                {
                    "name": "D4",
                    "midi": 62,
                    "time": 28.296874999999993,
                    "velocity": 0.3464566929133858,
                    "duration": 0.3229166666666643
                },
                {
                    "name": "G4",
                    "midi": 67,
                    "time": 28.302083333333325,
                    "velocity": 0.3937007874015748,
                    "duration": 0.30208333333333215
                },
                {
                    "name": "D#4",
                    "midi": 63,
                    "time": 28.322916666666657,
                    "velocity": 0.25984251968503935,
                    "duration": 0.28125
                },
                {
                    "name": "B4",
                    "midi": 71,
                    "time": 28.598958333333325,
                    "velocity": 0.2283464566929134,
                    "duration": 0.11458333333333215
                },
                {
                    "name": "D4",
                    "midi": 62,
                    "time": 28.791666666666657,
                    "velocity": 0.25984251968503935,
                    "duration": 0.1666666666666643
                },
                {
                    "name": "G4",
                    "midi": 67,
                    "time": 28.79687499999999,
                    "velocity": 0.2283464566929134,
                    "duration": 0.19270833333333215
                },
                {
                    "name": "D#4",
                    "midi": 63,
                    "time": 28.79687499999999,
                    "velocity": 0.2047244094488189,
                    "duration": 0.1510416666666643
                },
                {
                    "name": "B4",
                    "midi": 71,
                    "time": 28.98437499999999,
                    "velocity": 0.1889763779527559,
                    "duration": 0.09375
                },
                {
                    "name": "D#4",
                    "midi": 63,
                    "time": 29.15624999999999,
                    "velocity": 0.16535433070866143,
                    "duration": 0.1197916666666643
                },
                {
                    "name": "G4",
                    "midi": 67,
                    "time": 29.15624999999999,
                    "velocity": 0.18110236220472442,
                    "duration": 0.1666666666666643
                },
                {
                    "name": "D4",
                    "midi": 62,
                    "time": 29.16145833333332,
                    "velocity": 0.18110236220472442,
                    "duration": 0.125
                },
                {
                    "name": "B4",
                    "midi": 71,
                    "time": 29.28645833333332,
                    "velocity": 0.2047244094488189,
                    "duration": 0.1197916666666643
                },
                {
                    "name": "G4",
                    "midi": 67,
                    "time": 29.437499999999986,
                    "velocity": 0.2677165354330709,
                    "duration": 0.1614583333333357
                },
                {
                    "name": "D4",
                    "midi": 62,
                    "time": 29.484374999999986,
                    "velocity": 0.18110236220472442,
                    "duration": 0.09375
                },
                {
                    "name": "D#4",
                    "midi": 63,
                    "time": 29.489583333333318,
                    "velocity": 0.18110236220472442,
                    "duration": 0.07291666666666785
                },
                {
                    "name": "B4",
                    "midi": 71,
                    "time": 29.588541666666654,
                    "velocity": 0.2755905511811024,
                    "duration": 0.09375
                },
                {
                    "name": "G4",
                    "midi": 67,
                    "time": 29.72395833333332,
                    "velocity": 0.2755905511811024,
                    "duration": 0.125
                },
                {
                    "name": "D#4",
                    "midi": 63,
                    "time": 29.729166666666654,
                    "velocity": 0.2677165354330709,
                    "duration": 0.09375
                },
                {
                    "name": "D4",
                    "midi": 62,
                    "time": 29.734374999999986,
                    "velocity": 0.2125984251968504,
                    "duration": 0.11979166666666785
                },
                {
                    "name": "B4",
                    "midi": 71,
                    "time": 29.84895833333332,
                    "velocity": 0.2677165354330709,
                    "duration": 0.09895833333333215
                },
                {
                    "name": "D#4",
                    "midi": 63,
                    "time": 29.984374999999986,
                    "velocity": 0.2755905511811024,
                    "duration": 0.16666666666666785
                },
                {
                    "name": "G4",
                    "midi": 67,
                    "time": 29.994791666666654,
                    "velocity": 0.2283464566929134,
                    "duration": 0.171875
                },
                {
                    "name": "B4",
                    "midi": 71,
                    "time": 30.119791666666654,
                    "velocity": 0.28346456692913385,
                    "duration": 0.11458333333333215
                },
                {
                    "name": "A3",
                    "midi": 57,
                    "time": 30.296874999999986,
                    "velocity": 0.41732283464566927,
                    "duration": 3.3020833333333286
                },
                {
                    "name": "D4",
                    "midi": 62,
                    "time": 30.302083333333318,
                    "velocity": 0.25984251968503935,
                    "duration": 0.171875
                },
                {
                    "name": "D#4",
                    "midi": 63,
                    "time": 30.302083333333318,
                    "velocity": 0.28346456692913385,
                    "duration": 0.16666666666666785
                },
                {
                    "name": "G4",
                    "midi": 67,
                    "time": 30.302083333333318,
                    "velocity": 0.29133858267716534,
                    "duration": 0.16666666666666785
                },
                {
                    "name": "B4",
                    "midi": 71,
                    "time": 30.484374999999986,
                    "velocity": 0.2283464566929134,
                    "duration": 0.09895833333333215
                },
                {
                    "name": "D#4",
                    "midi": 63,
                    "time": 30.630208333333318,
                    "velocity": 0.2283464566929134,
                    "duration": 0.1197916666666643
                },
                {
                    "name": "D4",
                    "midi": 62,
                    "time": 30.63541666666665,
                    "velocity": 0.2125984251968504,
                    "duration": 0.125
                },
                {
                    "name": "G4",
                    "midi": 67,
                    "time": 30.66666666666665,
                    "velocity": 0.18110236220472442,
                    "duration": 0.078125
                },
                {
                    "name": "B4",
                    "midi": 71,
                    "time": 30.770833333333318,
                    "velocity": 0.23622047244094488,
                    "duration": 0.10416666666666785
                },
                {
                    "name": "D#4",
                    "midi": 63,
                    "time": 30.906249999999986,
                    "velocity": 0.2204724409448819,
                    "duration": 0.09895833333333215
                },
                {
                    "name": "G4",
                    "midi": 67,
                    "time": 30.932291666666654,
                    "velocity": 0.18110236220472442,
                    "duration": 0.0833333333333286
                },
                {
                    "name": "D4",
                    "midi": 62,
                    "time": 30.937499999999986,
                    "velocity": 0.18110236220472442,
                    "duration": 0.0729166666666643
                },
                {
                    "name": "B4",
                    "midi": 71,
                    "time": 31.036458333333314,
                    "velocity": 0.23622047244094488,
                    "duration": 0.11979166666666785
                },
                {
                    "name": "D#4",
                    "midi": 63,
                    "time": 31.177083333333314,
                    "velocity": 0.2283464566929134,
                    "duration": 0.109375
                },
                {
                    "name": "G4",
                    "midi": 67,
                    "time": 31.187499999999982,
                    "velocity": 0.1968503937007874,
                    "duration": 0.1197916666666643
                },
                {
                    "name": "B4",
                    "midi": 71,
                    "time": 31.32812499999998,
                    "velocity": 0.2283464566929134,
                    "duration": 0.09895833333333215
                },
                {
                    "name": "G4",
                    "midi": 67,
                    "time": 31.45833333333331,
                    "velocity": 0.2204724409448819,
                    "duration": 0.1458333333333357
                },
                {
                    "name": "D#4",
                    "midi": 63,
                    "time": 31.46874999999998,
                    "velocity": 0.16535433070866143,
                    "duration": 0.11979166666666785
                },
                {
                    "name": "D4",
                    "midi": 62,
                    "time": 31.479166666666647,
                    "velocity": 0.18110236220472442,
                    "duration": 0.125
                },
                {
                    "name": "B4",
                    "midi": 71,
                    "time": 31.59374999999998,
                    "velocity": 0.25984251968503935,
                    "duration": 0.125
                },
                {
                    "name": "D#4",
                    "midi": 63,
                    "time": 31.73437499999998,
                    "velocity": 0.2440944881889764,
                    "duration": 0.13541666666666785
                },
                {
                    "name": "G4",
                    "midi": 67,
                    "time": 31.73437499999998,
                    "velocity": 0.25196850393700787,
                    "duration": 0.1666666666666643
                },
                {
                    "name": "D4",
                    "midi": 62,
                    "time": 31.744791666666647,
                    "velocity": 0.2283464566929134,
                    "duration": 0.1354166666666643
                },
                {
                    "name": "B4",
                    "midi": 71,
                    "time": 31.87499999999998,
                    "velocity": 0.2125984251968504,
                    "duration": 0.1302083333333286
                },
                {
                    "name": "D#4",
                    "midi": 63,
                    "time": 32.02604166666664,
                    "velocity": 0.1889763779527559,
                    "duration": 0.1197916666666714
                },
                {
                    "name": "D4",
                    "midi": 62,
                    "time": 32.06249999999998,
                    "velocity": 0.18110236220472442,
                    "duration": 0.0885416666666714
                },
                {
                    "name": "G4",
                    "midi": 67,
                    "time": 32.06249999999998,
                    "velocity": 0.18110236220472442,
                    "duration": 0.0885416666666714
                },
                {
                    "name": "B4",
                    "midi": 71,
                    "time": 32.16666666666665,
                    "velocity": 0.25196850393700787,
                    "duration": 0.140625
                },
                {
                    "name": "D#4",
                    "midi": 63,
                    "time": 32.348958333333314,
                    "velocity": 0.16535433070866143,
                    "duration": 0.1354166666666643
                },
                {
                    "name": "D4",
                    "midi": 62,
                    "time": 32.364583333333314,
                    "velocity": 0.18110236220472442,
                    "duration": 0.125
                },
                {
                    "name": "B4",
                    "midi": 71,
                    "time": 32.51041666666665,
                    "velocity": 0.2283464566929134,
                    "duration": 0.15625
                },
                {
                    "name": "D#4",
                    "midi": 63,
                    "time": 32.723958333333314,
                    "velocity": 0.16535433070866143,
                    "duration": 0.1614583333333286
                },
                {
                    "name": "G4",
                    "midi": 67,
                    "time": 32.73437499999998,
                    "velocity": 0.18110236220472442,
                    "duration": 0.140625
                },
                {
                    "name": "D4",
                    "midi": 62,
                    "time": 32.73437499999998,
                    "velocity": 0.18110236220472442,
                    "duration": 0.15625
                },
                {
                    "name": "B4",
                    "midi": 71,
                    "time": 32.88541666666664,
                    "velocity": 0.18110236220472442,
                    "duration": 0.1770833333333357
                },
                {
                    "name": "D#4",
                    "midi": 63,
                    "time": 33.11979166666664,
                    "velocity": 0.16535433070866143,
                    "duration": 0.1822916666666643
                },
                {
                    "name": "D4",
                    "midi": 62,
                    "time": 33.13020833333331,
                    "velocity": 0.18110236220472442,
                    "duration": 0.1770833333333357
                },
                {
                    "name": "G4",
                    "midi": 67,
                    "time": 33.14062499999997,
                    "velocity": 0.18110236220472442,
                    "duration": 0.1458333333333357
                },
                {
                    "name": "B4",
                    "midi": 71,
                    "time": 33.31249999999998,
                    "velocity": 0.18110236220472442,
                    "duration": 0.1666666666666643
                },
                {
                    "name": "G3",
                    "midi": 55,
                    "time": 33.58854166666664,
                    "velocity": 0.25196850393700787,
                    "duration": 0.6145833333333357
                },
                {
                    "name": "D#4",
                    "midi": 63,
                    "time": 33.59374999999998,
                    "velocity": 0.18110236220472442,
                    "duration": 0.2291666666666714
                },
                {
                    "name": "D4",
                    "midi": 62,
                    "time": 33.59374999999998,
                    "velocity": 0.18110236220472442,
                    "duration": 0.2395833333333357
                },
                {
                    "name": "G4",
                    "midi": 67,
                    "time": 33.661458333333314,
                    "velocity": 0.18110236220472442,
                    "duration": 0.1927083333333357
                },
                {
                    "name": "B4",
                    "midi": 71,
                    "time": 33.864583333333314,
                    "velocity": 0.18110236220472442,
                    "duration": 0.2291666666666643
                },
                {
                    "name": "D#4",
                    "midi": 63,
                    "time": 34.19791666666664,
                    "velocity": 0.16535433070866143,
                    "duration": 11.640624999999993
                },
                {
                    "name": "G4",
                    "midi": 67,
                    "time": 34.208333333333314,
                    "velocity": 0.18110236220472442,
                    "duration": 11.635416666666657
                },
                {
                    "name": "D4",
                    "midi": 62,
                    "time": 34.21354166666665,
                    "velocity": 0.18110236220472442,
                    "duration": 11.630208333333321
                },
                {
                    "name": "B4",
                    "midi": 71,
                    "time": 34.567708333333314,
                    "velocity": 0.2047244094488189,
                    "duration": 11.265624999999986
                },
                {
                    "name": "C#6",
                    "midi": 85,
                    "time": 34.895833333333314,
                    "velocity": 0.3700787401574803,
                    "duration": 0.21875
                },
                {
                    "name": "A#5",
                    "midi": 82,
                    "time": 35.114583333333314,
                    "velocity": 0.3464566929133858,
                    "duration": 0.1875
                },
                {
                    "name": "F5",
                    "midi": 77,
                    "time": 35.31249999999998,
                    "velocity": 0.33858267716535434,
                    "duration": 0.1822916666666643
                },
                {
                    "name": "F#5",
                    "midi": 78,
                    "time": 35.46874999999998,
                    "velocity": 0.3543307086614173,
                    "duration": 0.1510416666666643
                },
                {
                    "name": "E5",
                    "midi": 76,
                    "time": 35.63020833333331,
                    "velocity": 0.3464566929133858,
                    "duration": 0.1822916666666643
                },
                {
                    "name": "C#5",
                    "midi": 73,
                    "time": 35.81249999999997,
                    "velocity": 0.33070866141732286,
                    "duration": 0.328125
                },
                {
                    "name": "F5",
                    "midi": 77,
                    "time": 36.07812499999997,
                    "velocity": 0.30708661417322836,
                    "duration": 1.234375
                },
                {
                    "name": "C#3",
                    "midi": 49,
                    "time": 38.119791666666636,
                    "velocity": 0.2283464566929134,
                    "duration": 0.953125
                },
                {
                    "name": "F#3",
                    "midi": 54,
                    "time": 39.5677083333333,
                    "velocity": 0.2677165354330709,
                    "duration": 0.46875
                },
                {
                    "name": "D#3",
                    "midi": 51,
                    "time": 41.135416666666636,
                    "velocity": 0.23622047244094488,
                    "duration": 0.765625
                },
                {
                    "name": "E3",
                    "midi": 52,
                    "time": 43.3645833333333,
                    "velocity": 0.2283464566929134,
                    "duration": 2.4583333333333357
                },
                {
                    "name": "F#3",
                    "midi": 54,
                    "time": 49.21874999999997,
                    "velocity": 0.4330708661417323,
                    "duration": 0.9270833333333357
                },
                {
                    "name": "F5",
                    "midi": 77,
                    "time": 49.21874999999997,
                    "velocity": 0.5039370078740157,
                    "duration": 0.9166666666666714
                },
                {
                    "name": "A2",
                    "midi": 45,
                    "time": 49.21874999999997,
                    "velocity": 0.4645669291338583,
                    "duration": 0.9635416666666714
                },
                {
                    "name": "G#4",
                    "midi": 68,
                    "time": 49.22395833333331,
                    "velocity": 0.4094488188976378,
                    "duration": 0.9427083333333357
                },
                {
                    "name": "D4",
                    "midi": 62,
                    "time": 49.23958333333331,
                    "velocity": 0.36220472440944884,
                    "duration": 0.8958333333333357
                },
                {
                    "name": "D#5",
                    "midi": 75,
                    "time": 49.98958333333331,
                    "velocity": 0.5039370078740157,
                    "duration": 0.1927083333333357
                },
                {
                    "name": "C#5",
                    "midi": 73,
                    "time": 50.62499999999998,
                    "velocity": 0.47244094488188976,
                    "duration": 0.3541666666666714
                },
                {
                    "name": "A4",
                    "midi": 69,
                    "time": 50.63541666666664,
                    "velocity": 0.4409448818897638,
                    "duration": 0.3906250000000071
                },
                {
                    "name": "D#4",
                    "midi": 63,
                    "time": 50.64062499999998,
                    "velocity": 0.3543307086614173,
                    "duration": 1.4166666666666785
                },
                {
                    "name": "A#2",
                    "midi": 46,
                    "time": 50.65624999999998,
                    "velocity": 0.28346456692913385,
                    "duration": 1.2864583333333428
                },
                {
                    "name": "F3",
                    "midi": 53,
                    "time": 50.65624999999998,
                    "velocity": 0.23622047244094488,
                    "duration": 1.3229166666666785
                },
                {
                    "name": "D4",
                    "midi": 62,
                    "time": 51.671874999999986,
                    "velocity": 0.3700787401574803,
                    "duration": 0.3281250000000071
                },
                {
                    "name": "D4",
                    "midi": 62,
                    "time": 52.51041666666666,
                    "velocity": 0.4094488188976378,
                    "duration": 1.3229166666666643
                },
                {
                    "name": "B3",
                    "midi": 59,
                    "time": 52.51562499999999,
                    "velocity": 0.2440944881889764,
                    "duration": 1.9791666666666643
                },
                {
                    "name": "E3",
                    "midi": 52,
                    "time": 52.52604166666666,
                    "velocity": 0.18110236220472442,
                    "duration": 0.46875
                },
                {
                    "name": "C3",
                    "midi": 48,
                    "time": 52.55729166666666,
                    "velocity": 0.18110236220472442,
                    "duration": 1.59375
                },
                {
                    "name": "G#3",
                    "midi": 56,
                    "time": 53.49999999999999,
                    "velocity": 0.1968503937007874,
                    "duration": 0.9010416666666643
                },
                {
                    "name": "F4",
                    "midi": 65,
                    "time": 54.24999999999999,
                    "velocity": 0.3779527559055118,
                    "duration": 1.0885416666666643
                },
                {
                    "name": "B2",
                    "midi": 47,
                    "time": 55.28124999999999,
                    "velocity": 0.1968503937007874,
                    "duration": 0.7760416666666643
                },
                {
                    "name": "C#4",
                    "midi": 61,
                    "time": 55.29687499999999,
                    "velocity": 0.33858267716535434,
                    "duration": 2.21875
                },
                {
                    "name": "F3",
                    "midi": 53,
                    "time": 55.29687499999999,
                    "velocity": 0.2047244094488189,
                    "duration": 0.4635416666666643
                },
                {
                    "name": "G#3",
                    "midi": 56,
                    "time": 55.30729166666666,
                    "velocity": 0.16535433070866143,
                    "duration": 0.46875
                },
                {
                    "name": "B3",
                    "midi": 59,
                    "time": 57.56770833333333,
                    "velocity": 0.28346456692913385,
                    "duration": 1.4635416666666643
                },
                {
                    "name": "D#6",
                    "midi": 87,
                    "time": 58.65624999999999,
                    "velocity": 0.3779527559055118,
                    "duration": 13.317708333333378
                },
                {
                    "name": "A#4",
                    "midi": 70,
                    "time": 58.66666666666666,
                    "velocity": 0.3858267716535433,
                    "duration": 13.1614583333334
                },
                {
                    "name": "E5",
                    "midi": 76,
                    "time": 58.66666666666666,
                    "velocity": 0.3937007874015748,
                    "duration": 13.203125000000057
                },
                {
                    "name": "G#5",
                    "midi": 80,
                    "time": 58.66666666666666,
                    "velocity": 0.1889763779527559,
                    "duration": 13.286458333333385
                },
                {
                    "name": "D4",
                    "midi": 62,
                    "time": 60.30208333333333,
                    "velocity": 0.29133858267716534,
                    "duration": 0.4791666666666714
                },
                {
                    "name": "F4",
                    "midi": 65,
                    "time": 60.703125,
                    "velocity": 0.33858267716535434,
                    "duration": 0.5729166666666714
                },
                {
                    "name": "C#5",
                    "midi": 73,
                    "time": 61.208333333333336,
                    "velocity": 0.3937007874015748,
                    "duration": 2.5052083333333357
                },
                {
                    "name": "D5",
                    "midi": 74,
                    "time": 65.015625,
                    "velocity": 0.3779527559055118,
                    "duration": 0.0885416666666714
                },
                {
                    "name": "A4",
                    "midi": 69,
                    "time": 65.88020833333334,
                    "velocity": 0.33858267716535434,
                    "duration": 1.0208333333333428
                },
                {
                    "name": "C#4",
                    "midi": 61,
                    "time": 67.63020833333336,
                    "velocity": 0.2992125984251969,
                    "duration": 0.7187500000000142
                },
                {
                    "name": "F#4",
                    "midi": 66,
                    "time": 68.67187500000004,
                    "velocity": 0.3228346456692913,
                    "duration": 2.000000000000014
                },
                {
                    "name": "F4",
                    "midi": 65,
                    "time": 71.62500000000006,
                    "velocity": 0.25196850393700787,
                    "duration": 3.869791666666643
                },
                {
                    "name": "D#5",
                    "midi": 75,
                    "time": 73.0572916666667,
                    "velocity": 0.2047244094488189,
                    "duration": 0.4635416666666714
                },
                {
                    "name": "E6",
                    "midi": 88,
                    "time": 73.0729166666667,
                    "velocity": 0.2204724409448819,
                    "duration": 0.3541666666666714
                },
                {
                    "name": "G5",
                    "midi": 79,
                    "time": 73.0729166666667,
                    "velocity": 0.2125984251968504,
                    "duration": 0.3177083333333428
                },
                {
                    "name": "B4",
                    "midi": 71,
                    "time": 73.0885416666667,
                    "velocity": 0.2047244094488189,
                    "duration": 0.421875
                },
                {
                    "name": "D#6",
                    "midi": 87,
                    "time": 74.63020833333337,
                    "velocity": 0.2047244094488189,
                    "duration": 0.625
                },
                {
                    "name": "A#4",
                    "midi": 70,
                    "time": 74.6354166666667,
                    "velocity": 0.1732283464566929,
                    "duration": 0.5260416666666714
                },
                {
                    "name": "E5",
                    "midi": 76,
                    "time": 74.6354166666667,
                    "velocity": 0.1889763779527559,
                    "duration": 0.6041666666666714
                },
                {
                    "name": "G#5",
                    "midi": 80,
                    "time": 74.64062500000003,
                    "velocity": 0.1732283464566929,
                    "duration": 0.5781250000000142
                }
            ],
            "controlChanges": {
                "64": [
                    {
                        "number": 64,
                        "time": 0,
                        "value": 0
                    },
                    {
                        "number": 64,
                        "time": 3.1458333333333335,
                        "value": 1
                    },
                    {
                        "number": 64,
                        "time": 3.682291666666667,
                        "value": 0
                    },
                    {
                        "number": 64,
                        "time": 3.8437500000000004,
                        "value": 1
                    },
                    {
                        "number": 64,
                        "time": 4.713541666666667,
                        "value": 0
                    },
                    {
                        "number": 64,
                        "time": 10.348958333333334,
                        "value": 1
                    },
                    {
                        "number": 64,
                        "time": 10.479166666666668,
                        "value": 0
                    },
                    {
                        "number": 64,
                        "time": 10.802083333333336,
                        "value": 1
                    },
                    {
                        "number": 64,
                        "time": 11.348958333333336,
                        "value": 0
                    },
                    {
                        "number": 64,
                        "time": 11.859375000000004,
                        "value": 1
                    },
                    {
                        "number": 64,
                        "time": 12.265625000000004,
                        "value": 0
                    },
                    {
                        "number": 64,
                        "time": 12.369791666666671,
                        "value": 1
                    },
                    {
                        "number": 64,
                        "time": 12.812500000000007,
                        "value": 0
                    },
                    {
                        "number": 64,
                        "time": 14.130208333333341,
                        "value": 1
                    },
                    {
                        "number": 64,
                        "time": 15.062500000000009,
                        "value": 0
                    },
                    {
                        "number": 64,
                        "time": 15.333333333333343,
                        "value": 1
                    },
                    {
                        "number": 64,
                        "time": 16.630208333333343,
                        "value": 0
                    },
                    {
                        "number": 64,
                        "time": 16.86458333333334,
                        "value": 1
                    },
                    {
                        "number": 64,
                        "time": 17.229166666666675,
                        "value": 0
                    },
                    {
                        "number": 64,
                        "time": 18.057291666666675,
                        "value": 1
                    },
                    {
                        "number": 64,
                        "time": 18.43229166666667,
                        "value": 0
                    },
                    {
                        "number": 64,
                        "time": 18.72395833333334,
                        "value": 1
                    },
                    {
                        "number": 64,
                        "time": 19.088541666666668,
                        "value": 0
                    },
                    {
                        "number": 64,
                        "time": 19.354166666666668,
                        "value": 1
                    },
                    {
                        "number": 64,
                        "time": 19.65625,
                        "value": 0
                    },
                    {
                        "number": 64,
                        "time": 19.807291666666668,
                        "value": 1
                    },
                    {
                        "number": 64,
                        "time": 20.171875,
                        "value": 0
                    },
                    {
                        "number": 64,
                        "time": 21.062500000000004,
                        "value": 1
                    },
                    {
                        "number": 64,
                        "time": 21.395833333333336,
                        "value": 0
                    },
                    {
                        "number": 64,
                        "time": 21.651041666666668,
                        "value": 1
                    },
                    {
                        "number": 64,
                        "time": 21.833333333333332,
                        "value": 0
                    },
                    {
                        "number": 64,
                        "time": 21.875,
                        "value": 1
                    },
                    {
                        "number": 64,
                        "time": 22.19791666666666,
                        "value": 0
                    },
                    {
                        "number": 64,
                        "time": 22.55208333333333,
                        "value": 1
                    },
                    {
                        "number": 64,
                        "time": 22.937499999999993,
                        "value": 0
                    },
                    {
                        "number": 64,
                        "time": 23.473958333333325,
                        "value": 1
                    },
                    {
                        "number": 64,
                        "time": 24.22395833333333,
                        "value": 0
                    },
                    {
                        "number": 64,
                        "time": 25.04166666666666,
                        "value": 1
                    },
                    {
                        "number": 64,
                        "time": 25.16666666666666,
                        "value": 0
                    },
                    {
                        "number": 64,
                        "time": 26.692708333333332,
                        "value": 1
                    },
                    {
                        "number": 64,
                        "time": 26.791666666666664,
                        "value": 0
                    },
                    {
                        "number": 64,
                        "time": 27.046874999999996,
                        "value": 1
                    },
                    {
                        "number": 64,
                        "time": 28.333333333333325,
                        "value": 0
                    },
                    {
                        "number": 64,
                        "time": 28.401041666666657,
                        "value": 1
                    },
                    {
                        "number": 64,
                        "time": 38.776041666666636,
                        "value": 0
                    },
                    {
                        "number": 64,
                        "time": 38.9583333333333,
                        "value": 1
                    },
                    {
                        "number": 64,
                        "time": 39.6770833333333,
                        "value": 0
                    },
                    {
                        "number": 64,
                        "time": 39.8802083333333,
                        "value": 1
                    },
                    {
                        "number": 64,
                        "time": 41.3020833333333,
                        "value": 0
                    },
                    {
                        "number": 64,
                        "time": 41.7083333333333,
                        "value": 1
                    },
                    {
                        "number": 64,
                        "time": 43.479166666666636,
                        "value": 0
                    },
                    {
                        "number": 64,
                        "time": 44.557291666666636,
                        "value": 1
                    },
                    {
                        "number": 64,
                        "time": 47.151041666666636,
                        "value": 0
                    },
                    {
                        "number": 64,
                        "time": 49.31249999999997,
                        "value": 1
                    },
                    {
                        "number": 64,
                        "time": 49.98958333333331,
                        "value": 0
                    },
                    {
                        "number": 64,
                        "time": 50.02083333333331,
                        "value": 1
                    },
                    {
                        "number": 64,
                        "time": 50.68749999999998,
                        "value": 0
                    },
                    {
                        "number": 64,
                        "time": 50.880208333333314,
                        "value": 1
                    },
                    {
                        "number": 64,
                        "time": 51.72916666666665,
                        "value": 0
                    },
                    {
                        "number": 64,
                        "time": 51.890624999999986,
                        "value": 1
                    },
                    {
                        "number": 64,
                        "time": 52.53124999999999,
                        "value": 0
                    },
                    {
                        "number": 64,
                        "time": 52.92187499999999,
                        "value": 1
                    },
                    {
                        "number": 64,
                        "time": 53.58854166666666,
                        "value": 0
                    },
                    {
                        "number": 64,
                        "time": 53.76041666666666,
                        "value": 1
                    },
                    {
                        "number": 64,
                        "time": 54.33333333333333,
                        "value": 0
                    },
                    {
                        "number": 64,
                        "time": 54.34374999999999,
                        "value": 1
                    },
                    {
                        "number": 64,
                        "time": 55.39583333333332,
                        "value": 0
                    },
                    {
                        "number": 64,
                        "time": 60.447916666666664,
                        "value": 1
                    },
                    {
                        "number": 64,
                        "time": 61.31250000000001,
                        "value": 0
                    },
                    {
                        "number": 64,
                        "time": 63.54166666666667,
                        "value": 1
                    },
                    {
                        "number": 64,
                        "time": 66.00000000000001,
                        "value": 0
                    },
                    {
                        "number": 64,
                        "time": 66.43229166666669,
                        "value": 1
                    },
                    {
                        "number": 64,
                        "time": 67.73437500000003,
                        "value": 0
                    },
                    {
                        "number": 64,
                        "time": 67.9479166666667,
                        "value": 1
                    },
                    {
                        "number": 64,
                        "time": 68.80729166666671,
                        "value": 0
                    },
                    {
                        "number": 64,
                        "time": 70.20833333333339,
                        "value": 1
                    },
                    {
                        "number": 64,
                        "time": 71.66145833333339,
                        "value": 0
                    },
                    {
                        "number": 64,
                        "time": 71.83333333333339,
                        "value": 1
                    },
                    {
                        "number": 64,
                        "time": 73.1354166666667,
                        "value": 0
                    },
                    {
                        "number": 64,
                        "time": 73.27083333333337,
                        "value": 1
                    },
                    {
                        "number": 64,
                        "time": 74.7447916666667,
                        "value": 0
                    },
                    {
                        "number": 64,
                        "time": 75.11458333333337,
                        "value": 1
                    },
                    {
                        "number": 64,
                        "time": 76.93750000000003,
                        "value": 0
                    }
                ],
                "91": [
                    {
                        "number": 91,
                        "time": 0,
                        "value": 0.8661417322834646
                    },
                    {
                        "number": 91,
                        "time": 0,
                        "value": 0.3937007874015748
                    }
                ]
            },
            "id": 1,
            "name": " ",
            "channelNumber": 0,
            "isPercussion": false
        },
        {
            "startTime": 0,
            "duration": 0,
            "length": 0,
            "notes": [],
            "controlChanges": {},
            "id": 2,
            "name": " "
        },
        {
            "startTime": 0,
            "duration": 0,
            "length": 0,
            "notes": [],
            "controlChanges": {},
            "id": 3,
            "name": "Arnold Schnberg"
        },
        {
            "startTime": 0,
            "duration": 0,
            "length": 0,
            "notes": [],
            "controlChanges": {},
            "id": 4,
            "name": "6 kleine Klavierstcke op.19"
        },
        {
            "startTime": 0,
            "duration": 0,
            "length": 0,
            "notes": [],
            "controlChanges": {},
            "id": 5,
            "name": "Played by Alessandro Simonetto"
        },
        {
            "startTime": 0,
            "duration": 0,
            "length": 0,
            "notes": [],
            "controlChanges": {},
            "id": 6,
            "name": "All rights reserved,  www.KunstderFuge.com"
        },
        {
            "startTime": 0,
            "duration": 0,
            "length": 0,
            "notes": [],
            "controlChanges": {},
            "id": 7
        },
        {
            "startTime": 0,
            "duration": 0,
            "length": 0,
            "notes": [],
            "controlChanges": {},
            "id": 8
        },
        {
            "startTime": 0,
            "duration": 0,
            "length": 0,
            "notes": [],
            "controlChanges": {},
            "id": 9
        },
        {
            "startTime": 0,
            "duration": 0,
            "length": 0,
            "notes": [],
            "controlChanges": {},
            "id": 10
        },
        {
            "startTime": 0,
            "duration": 0,
            "length": 0,
            "notes": [],
            "controlChanges": {},
            "id": 11
        },
        {
            "startTime": 0,
            "duration": 0,
            "length": 0,
            "notes": [],
            "controlChanges": {},
            "id": 12
        },
        {
            "startTime": 0,
            "duration": 0,
            "length": 0,
            "notes": [],
            "controlChanges": {},
            "id": 13
        },
        {
            "startTime": 0,
            "duration": 0,
            "length": 0,
            "notes": [],
            "controlChanges": {},
            "id": 14
        },
        {
            "startTime": 0,
            "duration": 0,
            "length": 0,
            "notes": [],
            "controlChanges": {},
            "id": 15
        },
        {
            "startTime": 0,
            "duration": 0,
            "length": 0,
            "notes": [],
            "controlChanges": {},
            "id": 16
        },
        {
            "startTime": 0,
            "duration": 0,
            "length": 0,
            "notes": [],
            "controlChanges": {},
            "id": 17
        },
        {
            "startTime": 0,
            "duration": 0,
            "length": 0,
            "notes": [],
            "controlChanges": {},
            "id": 18
        },
        {
            "startTime": 0,
            "duration": 0,
            "length": 0,
            "notes": [],
            "controlChanges": {},
            "id": 19
        },
        {
            "startTime": 0,
            "duration": 0,
            "length": 0,
            "notes": [],
            "controlChanges": {},
            "id": 20
        },
        {
            "startTime": 0,
            "duration": 0,
            "length": 0,
            "notes": [],
            "controlChanges": {},
            "id": 21
        },
        {
            "startTime": 0,
            "duration": 0,
            "length": 0,
            "notes": [],
            "controlChanges": {},
            "id": 22
        },
        {
            "startTime": 0,
            "duration": 0,
            "length": 0,
            "notes": [],
            "controlChanges": {},
            "id": 23
        },
        {
            "startTime": 0,
            "duration": 0,
            "length": 0,
            "notes": [],
            "controlChanges": {},
            "id": 24
        },
        {
            "startTime": 0,
            "duration": 0,
            "length": 0,
            "notes": [],
            "controlChanges": {},
            "id": 25
        },
        {
            "startTime": 0,
            "duration": 0,
            "length": 0,
            "notes": [],
            "controlChanges": {},
            "id": 26
        },
        {
            "startTime": 0,
            "duration": 0,
            "length": 0,
            "notes": [],
            "controlChanges": {},
            "id": 27
        },
        {
            "startTime": 0,
            "duration": 0,
            "length": 0,
            "notes": [],
            "controlChanges": {},
            "id": 28
        },
        {
            "startTime": 0,
            "duration": 0,
            "length": 0,
            "notes": [],
            "controlChanges": {},
            "id": 29
        },
        {
            "startTime": 0,
            "duration": 0,
            "length": 0,
            "notes": [],
            "controlChanges": {},
            "id": 30
        },
        {
            "startTime": 0,
            "duration": 0,
            "length": 0,
            "notes": [],
            "controlChanges": {},
            "id": 31
        },
        {
            "startTime": 0,
            "duration": 0,
            "length": 0,
            "notes": [],
            "controlChanges": {},
            "id": 32
        },
        {
            "startTime": 0,
            "duration": 0,
            "length": 0,
            "notes": [],
            "controlChanges": {},
            "id": 33
        },
        {
            "startTime": 0,
            "duration": 0,
            "length": 0,
            "notes": [],
            "controlChanges": {},
            "id": 34
        },
        {
            "startTime": 0,
            "duration": 0,
            "length": 0,
            "notes": [],
            "controlChanges": {},
            "id": 35
        },
        {
            "startTime": 0,
            "duration": 0,
            "length": 0,
            "notes": [],
            "controlChanges": {},
            "id": 36
        }
    ]
}