{
    "header": {
        "PPQ": 480,
        "timeSignature": [
            3,
            4
        ],
        "bpm": 125.2301103277272,
        "name": "2. Intermezzo"
    },
    "startTime": 0,
    "duration": 165.53526900000045,
    "tracks": [
        {
            "startTime": 0,
            "duration": 0,
            "length": 0,
            "notes": [],
            "controlChanges": {},
            "id": 0,
            "name": "2. Intermezzo"
        },
        {
            "startTime": 0,
            "duration": 164.33747400000067,
            "length": 602,
            "notes": [
                {
                    "name": "A3",
                    "midi": 57,
                    "time": 0,
                    "velocity": 0.3779527559055118,
                    "duration": 1.437354
                },
                {
                    "name": "E4",
                    "midi": 64,
                    "time": 0,
                    "velocity": 0.4330708661417323,
                    "duration": 0.3593385
                },
                {
                    "name": "F4",
                    "midi": 65,
                    "time": 0.3593385,
                    "velocity": 0.4015748031496063,
                    "duration": 0.11977949999999998
                },
                {
                    "name": "A4",
                    "midi": 69,
                    "time": 0.479118,
                    "velocity": 0.4330708661417323,
                    "duration": 0.15970599999999996
                },
                {
                    "name": "G4",
                    "midi": 67,
                    "time": 0.638824,
                    "velocity": 0.4015748031496063,
                    "duration": 0.15970600000000001
                },
                {
                    "name": "F4",
                    "midi": 65,
                    "time": 0.79853,
                    "velocity": 0.4015748031496063,
                    "duration": 0.15970600000000001
                },
                {
                    "name": "E4",
                    "midi": 64,
                    "time": 0.958236,
                    "velocity": 0.41732283464566927,
                    "duration": 0.23955899999999997
                },
                {
                    "name": "F4",
                    "midi": 65,
                    "time": 1.197795,
                    "velocity": 0.4094488188976378,
                    "duration": 0.23955900000000008
                },
                {
                    "name": "D4",
                    "midi": 62,
                    "time": 1.437354,
                    "velocity": 0.4094488188976378,
                    "duration": 0.3593385
                },
                {
                    "name": "A3",
                    "midi": 57,
                    "time": 1.437354,
                    "velocity": 0.3779527559055118,
                    "duration": 1.437354
                },
                {
                    "name": "A4",
                    "midi": 69,
                    "time": 1.916472,
                    "velocity": 0.4566929133858268,
                    "duration": 0.9582360000000001
                },
                {
                    "name": "G3",
                    "midi": 55,
                    "time": 2.874708,
                    "velocity": 0.3779527559055118,
                    "duration": 1.4373539999999991
                },
                {
                    "name": "D4",
                    "midi": 62,
                    "time": 2.874708,
                    "velocity": 0.4330708661417323,
                    "duration": 0.3593384999999998
                },
                {
                    "name": "E4",
                    "midi": 64,
                    "time": 3.2340465,
                    "velocity": 0.3937007874015748,
                    "duration": 0.11977949999999993
                },
                {
                    "name": "G4",
                    "midi": 67,
                    "time": 3.3538259999999998,
                    "velocity": 0.4330708661417323,
                    "duration": 0.1597059999999999
                },
                {
                    "name": "F4",
                    "midi": 65,
                    "time": 3.5135319999999997,
                    "velocity": 0.4015748031496063,
                    "duration": 0.1597059999999999
                },
                {
                    "name": "E4",
                    "midi": 64,
                    "time": 3.6732379999999996,
                    "velocity": 0.4015748031496063,
                    "duration": 0.1597059999999999
                },
                {
                    "name": "D4",
                    "midi": 62,
                    "time": 3.8329439999999995,
                    "velocity": 0.4330708661417323,
                    "duration": 0.23955899999999986
                },
                {
                    "name": "E4",
                    "midi": 64,
                    "time": 4.072502999999999,
                    "velocity": 0.4094488188976378,
                    "duration": 0.23955899999999986
                },
                {
                    "name": "D4",
                    "midi": 62,
                    "time": 4.312061999999999,
                    "velocity": 0.4015748031496063,
                    "duration": 0.23955899999999986
                },
                {
                    "name": "E4",
                    "midi": 64,
                    "time": 4.312061999999999,
                    "velocity": 0.4330708661417323,
                    "duration": 1.4373539999999991
                },
                {
                    "name": "C#4",
                    "midi": 61,
                    "time": 4.551620999999999,
                    "velocity": 0.3464566929133858,
                    "duration": 0.23955899999999986
                },
                {
                    "name": "B3",
                    "midi": 59,
                    "time": 4.791179999999999,
                    "velocity": 0.3700787401574803,
                    "duration": 0.23955899999999986
                },
                {
                    "name": "C#4",
                    "midi": 61,
                    "time": 5.030738999999999,
                    "velocity": 0.33070866141732286,
                    "duration": 0.23955899999999986
                },
                {
                    "name": "B3",
                    "midi": 59,
                    "time": 5.270297999999999,
                    "velocity": 0.3700787401574803,
                    "duration": 0.23955899999999986
                },
                {
                    "name": "A3",
                    "midi": 57,
                    "time": 5.5098569999999985,
                    "velocity": 0.33070866141732286,
                    "duration": 0.23955899999999986
                },
                {
                    "name": "A3",
                    "midi": 57,
                    "time": 5.749415999999998,
                    "velocity": 0.3779527559055118,
                    "duration": 1.4373539999999991
                },
                {
                    "name": "E4",
                    "midi": 64,
                    "time": 5.749415999999998,
                    "velocity": 0.4330708661417323,
                    "duration": 0.3593384999999998
                },
                {
                    "name": "F4",
                    "midi": 65,
                    "time": 6.108754499999998,
                    "velocity": 0.4015748031496063,
                    "duration": 0.11977949999999993
                },
                {
                    "name": "A4",
                    "midi": 69,
                    "time": 6.228533999999998,
                    "velocity": 0.4330708661417323,
                    "duration": 0.1597059999999999
                },
                {
                    "name": "G4",
                    "midi": 67,
                    "time": 6.388239999999998,
                    "velocity": 0.4015748031496063,
                    "duration": 0.1597059999999999
                },
                {
                    "name": "F4",
                    "midi": 65,
                    "time": 6.547945999999998,
                    "velocity": 0.4015748031496063,
                    "duration": 0.1597059999999999
                },
                {
                    "name": "E4",
                    "midi": 64,
                    "time": 6.707651999999998,
                    "velocity": 0.41732283464566927,
                    "duration": 0.23955899999999986
                },
                {
                    "name": "F4",
                    "midi": 65,
                    "time": 6.947210999999998,
                    "velocity": 0.4094488188976378,
                    "duration": 0.23955899999999986
                },
                {
                    "name": "A3",
                    "midi": 57,
                    "time": 7.186769999999997,
                    "velocity": 0.3779527559055118,
                    "duration": 1.4373539999999991
                },
                {
                    "name": "D4",
                    "midi": 62,
                    "time": 7.186769999999997,
                    "velocity": 0.4094488188976378,
                    "duration": 0.3593384999999998
                },
                {
                    "name": "A4",
                    "midi": 69,
                    "time": 7.665887999999997,
                    "velocity": 0.44881889763779526,
                    "duration": 0.9582359999999994
                },
                {
                    "name": "A4",
                    "midi": 69,
                    "time": 8.624123999999997,
                    "velocity": 0.44881889763779526,
                    "duration": 0.3593384999999998
                },
                {
                    "name": "D4",
                    "midi": 62,
                    "time": 8.624123999999997,
                    "velocity": 0.3937007874015748,
                    "duration": 1.9164719999999988
                },
                {
                    "name": "B4",
                    "midi": 71,
                    "time": 8.983462499999996,
                    "velocity": 0.4094488188976378,
                    "duration": 0.11977949999999993
                },
                {
                    "name": "D5",
                    "midi": 74,
                    "time": 9.103241999999996,
                    "velocity": 0.44881889763779526,
                    "duration": 0.1597059999999999
                },
                {
                    "name": "C5",
                    "midi": 72,
                    "time": 9.262947999999996,
                    "velocity": 0.41732283464566927,
                    "duration": 0.1597059999999999
                },
                {
                    "name": "B4",
                    "midi": 71,
                    "time": 9.422653999999996,
                    "velocity": 0.41732283464566927,
                    "duration": 0.1597059999999999
                },
                {
                    "name": "A4",
                    "midi": 69,
                    "time": 9.582359999999996,
                    "velocity": 0.44881889763779526,
                    "duration": 0.23955899999999986
                },
                {
                    "name": "B4",
                    "midi": 71,
                    "time": 9.821918999999996,
                    "velocity": 0.4330708661417323,
                    "duration": 0.23955899999999986
                },
                {
                    "name": "G4",
                    "midi": 67,
                    "time": 10.061477999999996,
                    "velocity": 0.44881889763779526,
                    "duration": 0.23955899999999986
                },
                {
                    "name": "A4",
                    "midi": 69,
                    "time": 10.301036999999996,
                    "velocity": 0.4015748031496063,
                    "duration": 0.23955899999999986
                },
                {
                    "name": "C4",
                    "midi": 60,
                    "time": 10.540595999999995,
                    "velocity": 0.3700787401574803,
                    "duration": 0.9582359999999994
                },
                {
                    "name": "G4",
                    "midi": 67,
                    "time": 10.540595999999995,
                    "velocity": 0.4645669291338583,
                    "duration": 0.23955899999999986
                },
                {
                    "name": "A4",
                    "midi": 69,
                    "time": 10.780154999999995,
                    "velocity": 0.41732283464566927,
                    "duration": 0.23955899999999986
                },
                {
                    "name": "B4",
                    "midi": 71,
                    "time": 11.019713999999995,
                    "velocity": 0.4645669291338583,
                    "duration": 0.23955899999999986
                },
                {
                    "name": "C5",
                    "midi": 72,
                    "time": 11.259272999999995,
                    "velocity": 0.4330708661417323,
                    "duration": 0.23955899999999986
                },
                {
                    "name": "F4",
                    "midi": 65,
                    "time": 11.498831999999995,
                    "velocity": 0.44881889763779526,
                    "duration": 0.3593384999999998
                },
                {
                    "name": "B3",
                    "midi": 59,
                    "time": 11.498831999999995,
                    "velocity": 0.3937007874015748,
                    "duration": 0.9582359999999994
                },
                {
                    "name": "G4",
                    "midi": 67,
                    "time": 11.858170499999995,
                    "velocity": 0.4094488188976378,
                    "duration": 0.11977949999999993
                },
                {
                    "name": "B4",
                    "midi": 71,
                    "time": 11.977949999999995,
                    "velocity": 0.44881889763779526,
                    "duration": 0.1597059999999999
                },
                {
                    "name": "A4",
                    "midi": 69,
                    "time": 12.137655999999994,
                    "velocity": 0.41732283464566927,
                    "duration": 0.1597059999999999
                },
                {
                    "name": "G4",
                    "midi": 67,
                    "time": 12.297361999999994,
                    "velocity": 0.41732283464566927,
                    "duration": 0.1597059999999999
                },
                {
                    "name": "F4",
                    "midi": 65,
                    "time": 12.457067999999994,
                    "velocity": 0.44881889763779526,
                    "duration": 0.23955899999999986
                },
                {
                    "name": "B3",
                    "midi": 59,
                    "time": 12.457067999999994,
                    "velocity": 0.3779527559055118,
                    "duration": 0.4791179999999997
                },
                {
                    "name": "G4",
                    "midi": 67,
                    "time": 12.696626999999994,
                    "velocity": 0.4330708661417323,
                    "duration": 0.23955899999999986
                },
                {
                    "name": "B3",
                    "midi": 59,
                    "time": 12.936185999999994,
                    "velocity": 0.3937007874015748,
                    "duration": 0.9582359999999994
                },
                {
                    "name": "E4",
                    "midi": 64,
                    "time": 12.936185999999994,
                    "velocity": 0.44881889763779526,
                    "duration": 1.4373539999999991
                },
                {
                    "name": "A4",
                    "midi": 69,
                    "time": 14.852657999999993,
                    "velocity": 0.3700787401574803,
                    "duration": 1.9164720000000006
                },
                {
                    "name": "D5",
                    "midi": 74,
                    "time": 14.852657999999993,
                    "velocity": 0.4881889763779528,
                    "duration": 0.4791179999999997
                },
                {
                    "name": "A5",
                    "midi": 81,
                    "time": 15.331775999999993,
                    "velocity": 0.5196850393700787,
                    "duration": 0.9582360000000012
                },
                {
                    "name": "C5",
                    "midi": 72,
                    "time": 16.290011999999994,
                    "velocity": 0.47244094488188976,
                    "duration": 0.4791179999999997
                },
                {
                    "name": "G4",
                    "midi": 67,
                    "time": 16.769129999999993,
                    "velocity": 0.3700787401574803,
                    "duration": 0.4791179999999997
                },
                {
                    "name": "G5",
                    "midi": 79,
                    "time": 16.769129999999993,
                    "velocity": 0.4881889763779528,
                    "duration": 0.4791179999999997
                },
                {
                    "name": "F5",
                    "midi": 77,
                    "time": 17.727365999999993,
                    "velocity": 0.4881889763779528,
                    "duration": 0.4791179999999997
                },
                {
                    "name": "B4",
                    "midi": 71,
                    "time": 17.727365999999993,
                    "velocity": 0.3779527559055118,
                    "duration": 0.4791179999999997
                },
                {
                    "name": "G4",
                    "midi": 67,
                    "time": 18.206483999999993,
                    "velocity": 0.36220472440944884,
                    "duration": 0.4591547499999997
                },
                {
                    "name": "G5",
                    "midi": 79,
                    "time": 18.206483999999993,
                    "velocity": 0.47244094488188976,
                    "duration": 0.4591547499999997
                },
                {
                    "name": "G4",
                    "midi": 67,
                    "time": 18.685601999999992,
                    "velocity": 0.3779527559055118,
                    "duration": 0.4791179999999997
                },
                {
                    "name": "G5",
                    "midi": 79,
                    "time": 18.685601999999992,
                    "velocity": 0.4881889763779528,
                    "duration": 0.4791179999999997
                },
                {
                    "name": "C5",
                    "midi": 72,
                    "time": 19.164719999999992,
                    "velocity": 0.44881889763779526,
                    "duration": 0.4791179999999997
                },
                {
                    "name": "F3",
                    "midi": 53,
                    "time": 20.12295599999999,
                    "velocity": 0.5433070866141733,
                    "duration": 0.3593384999999998
                },
                {
                    "name": "G3",
                    "midi": 55,
                    "time": 20.48229449999999,
                    "velocity": 0.49606299212598426,
                    "duration": 0.1297611250000017
                },
                {
                    "name": "A#3",
                    "midi": 58,
                    "time": 20.60207399999999,
                    "velocity": 0.5433070866141733,
                    "duration": 0.16968762500000523
                },
                {
                    "name": "G#3",
                    "midi": 56,
                    "time": 20.761779999999995,
                    "velocity": 0.5039370078740157,
                    "duration": 0.16968762500000523
                },
                {
                    "name": "G3",
                    "midi": 55,
                    "time": 20.921485999999998,
                    "velocity": 0.5039370078740157,
                    "duration": 0.16968762500000523
                },
                {
                    "name": "F3",
                    "midi": 53,
                    "time": 21.081192,
                    "velocity": 0.5433070866141733,
                    "duration": 0.24954062500000518
                },
                {
                    "name": "G3",
                    "midi": 55,
                    "time": 21.320751000000005,
                    "velocity": 0.5196850393700787,
                    "duration": 0.2395590000000034
                },
                {
                    "name": "D#5",
                    "midi": 75,
                    "time": 21.56031000000001,
                    "velocity": 0.5669291338582677,
                    "duration": 0.3593384999999998
                },
                {
                    "name": "G#4",
                    "midi": 68,
                    "time": 21.56031000000001,
                    "velocity": 0.4645669291338583,
                    "duration": 1.4373539999999991
                },
                {
                    "name": "F5",
                    "midi": 77,
                    "time": 21.919648500000008,
                    "velocity": 0.5196850393700787,
                    "duration": 0.11977949999999993
                },
                {
                    "name": "G#5",
                    "midi": 80,
                    "time": 22.039428000000008,
                    "velocity": 0.5590551181102362,
                    "duration": 0.1597059999999999
                },
                {
                    "name": "G5",
                    "midi": 79,
                    "time": 22.199134000000008,
                    "velocity": 0.5433070866141733,
                    "duration": 0.1597059999999999
                },
                {
                    "name": "F5",
                    "midi": 77,
                    "time": 22.358840000000008,
                    "velocity": 0.5433070866141733,
                    "duration": 0.1597059999999999
                },
                {
                    "name": "D#5",
                    "midi": 75,
                    "time": 22.518546000000008,
                    "velocity": 0.5590551181102362,
                    "duration": 0.23955899999999986
                },
                {
                    "name": "F5",
                    "midi": 77,
                    "time": 22.758105000000008,
                    "velocity": 0.5511811023622047,
                    "duration": 0.23955899999999986
                },
                {
                    "name": "G4",
                    "midi": 67,
                    "time": 22.997664000000007,
                    "velocity": 0.4330708661417323,
                    "duration": 1.4373539999999991
                },
                {
                    "name": "C#5",
                    "midi": 73,
                    "time": 22.997664000000007,
                    "velocity": 0.5590551181102362,
                    "duration": 0.3593384999999998
                },
                {
                    "name": "D#5",
                    "midi": 75,
                    "time": 23.357002500000007,
                    "velocity": 0.5196850393700787,
                    "duration": 0.11977949999999993
                },
                {
                    "name": "G5",
                    "midi": 79,
                    "time": 23.476782000000007,
                    "velocity": 0.5590551181102362,
                    "duration": 0.1597059999999999
                },
                {
                    "name": "F5",
                    "midi": 77,
                    "time": 23.636488000000007,
                    "velocity": 0.5433070866141733,
                    "duration": 0.1597059999999999
                },
                {
                    "name": "D#5",
                    "midi": 75,
                    "time": 23.796194000000007,
                    "velocity": 0.5433070866141733,
                    "duration": 0.1597059999999999
                },
                {
                    "name": "C#5",
                    "midi": 73,
                    "time": 23.955900000000007,
                    "velocity": 0.5590551181102362,
                    "duration": 0.23955899999999986
                },
                {
                    "name": "D#5",
                    "midi": 75,
                    "time": 24.195459000000007,
                    "velocity": 0.5511811023622047,
                    "duration": 0.23955899999999986
                },
                {
                    "name": "D#4",
                    "midi": 63,
                    "time": 24.435018000000007,
                    "velocity": 0.4330708661417323,
                    "duration": 1.4373539999999991
                },
                {
                    "name": "C4",
                    "midi": 60,
                    "time": 24.435018000000007,
                    "velocity": 0.4330708661417323,
                    "duration": 1.4373539999999991
                },
                {
                    "name": "C5",
                    "midi": 72,
                    "time": 24.435018000000007,
                    "velocity": 0.48031496062992124,
                    "duration": 1.4373539999999991
                },
                {
                    "name": "C4",
                    "midi": 60,
                    "time": 25.872372000000006,
                    "velocity": 0.4330708661417323,
                    "duration": 1.4373539999999991
                },
                {
                    "name": "E4",
                    "midi": 64,
                    "time": 25.872372000000006,
                    "velocity": 0.4330708661417323,
                    "duration": 1.4373539999999991
                },
                {
                    "name": "C5",
                    "midi": 72,
                    "time": 25.872372000000006,
                    "velocity": 0.48031496062992124,
                    "duration": 1.4373539999999991
                },
                {
                    "name": "G#4",
                    "midi": 68,
                    "time": 27.309726000000005,
                    "velocity": 0.5196850393700787,
                    "duration": 0.23955899999999986
                },
                {
                    "name": "F4",
                    "midi": 65,
                    "time": 27.309726000000005,
                    "velocity": 0.4015748031496063,
                    "duration": 1.4373539999999991
                },
                {
                    "name": "C4",
                    "midi": 60,
                    "time": 27.309726000000005,
                    "velocity": 0.4015748031496063,
                    "duration": 1.4373539999999991
                },
                {
                    "name": "A#4",
                    "midi": 70,
                    "time": 27.549285000000005,
                    "velocity": 0.48031496062992124,
                    "duration": 0.23955899999999986
                },
                {
                    "name": "G#4",
                    "midi": 68,
                    "time": 27.788844000000005,
                    "velocity": 0.5196850393700787,
                    "duration": 0.23955899999999986
                },
                {
                    "name": "A#4",
                    "midi": 70,
                    "time": 28.028403000000004,
                    "velocity": 0.4881889763779528,
                    "duration": 0.23955899999999986
                },
                {
                    "name": "C5",
                    "midi": 72,
                    "time": 28.267962000000004,
                    "velocity": 0.5196850393700787,
                    "duration": 0.23955899999999986
                },
                {
                    "name": "C#5",
                    "midi": 73,
                    "time": 28.507521000000004,
                    "velocity": 0.4881889763779528,
                    "duration": 0.23955899999999986
                },
                {
                    "name": "A#4",
                    "midi": 70,
                    "time": 28.747080000000004,
                    "velocity": 0.5669291338582677,
                    "duration": 0.23955899999999986
                },
                {
                    "name": "F4",
                    "midi": 65,
                    "time": 28.747080000000004,
                    "velocity": 0.4015748031496063,
                    "duration": 1.4373539999999991
                },
                {
                    "name": "C5",
                    "midi": 72,
                    "time": 28.986639000000004,
                    "velocity": 0.49606299212598426,
                    "duration": 0.23955899999999986
                },
                {
                    "name": "A#4",
                    "midi": 70,
                    "time": 29.226198000000004,
                    "velocity": 0.5511811023622047,
                    "duration": 0.23955899999999986
                },
                {
                    "name": "C5",
                    "midi": 72,
                    "time": 29.465757000000004,
                    "velocity": 0.5196850393700787,
                    "duration": 0.23955899999999986
                },
                {
                    "name": "C#5",
                    "midi": 73,
                    "time": 29.705316000000003,
                    "velocity": 0.5039370078740157,
                    "duration": 0.1597059999999999
                },
                {
                    "name": "D#5",
                    "midi": 75,
                    "time": 29.865022000000003,
                    "velocity": 0.5511811023622047,
                    "duration": 0.1597059999999999
                },
                {
                    "name": "F5",
                    "midi": 77,
                    "time": 30.024728000000003,
                    "velocity": 0.5748031496062992,
                    "duration": 0.1597059999999999
                },
                {
                    "name": "G5",
                    "midi": 79,
                    "time": 30.184434000000003,
                    "velocity": 0.6141732283464567,
                    "duration": 1.4373539999999991
                },
                {
                    "name": "F4",
                    "midi": 65,
                    "time": 30.184434000000003,
                    "velocity": 0.4645669291338583,
                    "duration": 0.4791179999999997
                },
                {
                    "name": "A#4",
                    "midi": 70,
                    "time": 30.184434000000003,
                    "velocity": 0.4566929133858268,
                    "duration": 1.4373539999999991
                },
                {
                    "name": "E4",
                    "midi": 64,
                    "time": 30.663552000000003,
                    "velocity": 0.4645669291338583,
                    "duration": 0.9582359999999994
                },
                {
                    "name": "A4",
                    "midi": 69,
                    "time": 31.621788000000002,
                    "velocity": 0.5354330708661418,
                    "duration": 1.8965087500000024
                },
                {
                    "name": "E5",
                    "midi": 76,
                    "time": 31.621788000000002,
                    "velocity": 0.6535433070866141,
                    "duration": 0.3593384999999998
                },
                {
                    "name": "F5",
                    "midi": 77,
                    "time": 31.981126500000002,
                    "velocity": 0.6062992125984252,
                    "duration": 0.11977949999999993
                },
                {
                    "name": "A5",
                    "midi": 81,
                    "time": 32.100906,
                    "velocity": 0.5748031496062992,
                    "duration": 0.1597059999999999
                },
                {
                    "name": "G5",
                    "midi": 79,
                    "time": 32.260612,
                    "velocity": 0.5826771653543307,
                    "duration": 0.1597059999999999
                },
                {
                    "name": "F5",
                    "midi": 77,
                    "time": 32.420318,
                    "velocity": 0.5748031496062992,
                    "duration": 0.1597059999999999
                },
                {
                    "name": "E5",
                    "midi": 76,
                    "time": 32.580024,
                    "velocity": 0.6062992125984252,
                    "duration": 0.23955899999999986
                },
                {
                    "name": "F5",
                    "midi": 77,
                    "time": 32.819583,
                    "velocity": 0.5905511811023622,
                    "duration": 0.23955899999999986
                },
                {
                    "name": "D5",
                    "midi": 74,
                    "time": 33.059142,
                    "velocity": 0.6141732283464567,
                    "duration": 0.4591547500000033
                },
                {
                    "name": "A4",
                    "midi": 69,
                    "time": 33.53826000000001,
                    "velocity": 0.49606299212598426,
                    "duration": 0.9582359999999994
                },
                {
                    "name": "A5",
                    "midi": 81,
                    "time": 33.53826000000001,
                    "velocity": 0.6614173228346457,
                    "duration": 0.9582359999999994
                },
                {
                    "name": "D5",
                    "midi": 74,
                    "time": 34.49649600000001,
                    "velocity": 0.6614173228346457,
                    "duration": 0.3593384999999998
                },
                {
                    "name": "G4",
                    "midi": 67,
                    "time": 34.49649600000001,
                    "velocity": 0.5354330708661418,
                    "duration": 0.9582359999999994
                },
                {
                    "name": "E5",
                    "midi": 76,
                    "time": 34.85583450000001,
                    "velocity": 0.5748031496062992,
                    "duration": 0.11977949999999993
                },
                {
                    "name": "G5",
                    "midi": 79,
                    "time": 34.97561400000001,
                    "velocity": 0.5748031496062992,
                    "duration": 0.1597059999999999
                },
                {
                    "name": "F5",
                    "midi": 77,
                    "time": 35.13532000000001,
                    "velocity": 0.5748031496062992,
                    "duration": 0.1597059999999999
                },
                {
                    "name": "E5",
                    "midi": 76,
                    "time": 35.29502600000001,
                    "velocity": 0.5669291338582677,
                    "duration": 0.1597059999999999
                },
                {
                    "name": "G4",
                    "midi": 67,
                    "time": 35.45473200000001,
                    "velocity": 0.4881889763779528,
                    "duration": 0.4791179999999997
                },
                {
                    "name": "D5",
                    "midi": 74,
                    "time": 35.45473200000001,
                    "velocity": 0.6141732283464567,
                    "duration": 0.23955899999999986
                },
                {
                    "name": "E5",
                    "midi": 76,
                    "time": 35.69429100000001,
                    "velocity": 0.5826771653543307,
                    "duration": 0.23955899999999986
                },
                {
                    "name": "D5",
                    "midi": 74,
                    "time": 35.93385000000001,
                    "velocity": 0.6062992125984252,
                    "duration": 0.23955899999999986
                },
                {
                    "name": "G4",
                    "midi": 67,
                    "time": 35.93385000000001,
                    "velocity": 0.5354330708661418,
                    "duration": 0.9582359999999994
                },
                {
                    "name": "E5",
                    "midi": 76,
                    "time": 35.93385000000001,
                    "velocity": 0.5590551181102362,
                    "duration": 0.9582359999999994
                },
                {
                    "name": "C#5",
                    "midi": 73,
                    "time": 36.17340900000001,
                    "velocity": 0.5039370078740157,
                    "duration": 0.23955899999999986
                },
                {
                    "name": "B4",
                    "midi": 71,
                    "time": 36.412968000000006,
                    "velocity": 0.5433070866141733,
                    "duration": 0.23955899999999986
                },
                {
                    "name": "C#5",
                    "midi": 73,
                    "time": 36.652527000000006,
                    "velocity": 0.4881889763779528,
                    "duration": 0.23955899999999986
                },
                {
                    "name": "B4",
                    "midi": 71,
                    "time": 36.892086000000006,
                    "velocity": 0.5433070866141733,
                    "duration": 0.23955899999999986
                },
                {
                    "name": "A4",
                    "midi": 69,
                    "time": 37.131645000000006,
                    "velocity": 0.4881889763779528,
                    "duration": 0.23955899999999986
                },
                {
                    "name": "E5",
                    "midi": 76,
                    "time": 37.371204000000006,
                    "velocity": 0.6614173228346457,
                    "duration": 0.3593384999999998
                },
                {
                    "name": "A4",
                    "midi": 69,
                    "time": 37.371204000000006,
                    "velocity": 0.5354330708661418,
                    "duration": 1.9164719999999988
                },
                {
                    "name": "F5",
                    "midi": 77,
                    "time": 37.730542500000006,
                    "velocity": 0.6062992125984252,
                    "duration": 0.11977949999999993
                },
                {
                    "name": "A5",
                    "midi": 81,
                    "time": 37.850322000000006,
                    "velocity": 0.5905511811023622,
                    "duration": 0.1597059999999999
                },
                {
                    "name": "G5",
                    "midi": 79,
                    "time": 38.010028000000005,
                    "velocity": 0.5748031496062992,
                    "duration": 0.1597059999999999
                },
                {
                    "name": "F5",
                    "midi": 77,
                    "time": 38.169734000000005,
                    "velocity": 0.5669291338582677,
                    "duration": 0.1597059999999999
                },
                {
                    "name": "E5",
                    "midi": 76,
                    "time": 38.329440000000005,
                    "velocity": 0.5905511811023622,
                    "duration": 0.23955899999999986
                },
                {
                    "name": "F5",
                    "midi": 77,
                    "time": 38.568999000000005,
                    "velocity": 0.5826771653543307,
                    "duration": 0.23955899999999986
                },
                {
                    "name": "D5",
                    "midi": 74,
                    "time": 38.808558000000005,
                    "velocity": 0.6141732283464567,
                    "duration": 0.4491731250000015
                },
                {
                    "name": "A4",
                    "midi": 69,
                    "time": 39.287676000000005,
                    "velocity": 0.5748031496062992,
                    "duration": 0.9582359999999994
                },
                {
                    "name": "A5",
                    "midi": 81,
                    "time": 39.287676000000005,
                    "velocity": 0.6299212598425197,
                    "duration": 0.9582359999999994
                },
                {
                    "name": "F4",
                    "midi": 65,
                    "time": 40.245912000000004,
                    "velocity": 0.44881889763779526,
                    "duration": 1.4373539999999991
                },
                {
                    "name": "D5",
                    "midi": 74,
                    "time": 40.245912000000004,
                    "velocity": 0.5590551181102362,
                    "duration": 0.3593384999999998
                },
                {
                    "name": "G4",
                    "midi": 67,
                    "time": 40.245912000000004,
                    "velocity": 0.44881889763779526,
                    "duration": 1.4373539999999991
                },
                {
                    "name": "E5",
                    "midi": 76,
                    "time": 40.605250500000004,
                    "velocity": 0.4881889763779528,
                    "duration": 0.11977949999999993
                },
                {
                    "name": "G5",
                    "midi": 79,
                    "time": 40.725030000000004,
                    "velocity": 0.5275590551181102,
                    "duration": 0.1597059999999999
                },
                {
                    "name": "F5",
                    "midi": 77,
                    "time": 40.884736000000004,
                    "velocity": 0.4881889763779528,
                    "duration": 0.1597059999999999
                },
                {
                    "name": "E5",
                    "midi": 76,
                    "time": 41.044442000000004,
                    "velocity": 0.47244094488188976,
                    "duration": 0.1597059999999999
                },
                {
                    "name": "D5",
                    "midi": 74,
                    "time": 41.204148,
                    "velocity": 0.4881889763779528,
                    "duration": 0.23955899999999986
                },
                {
                    "name": "E5",
                    "midi": 76,
                    "time": 41.443707,
                    "velocity": 0.4566929133858268,
                    "duration": 0.23955899999999986
                },
                {
                    "name": "C5",
                    "midi": 72,
                    "time": 41.683266,
                    "velocity": 0.44881889763779526,
                    "duration": 0.23955899999999986
                },
                {
                    "name": "A4",
                    "midi": 69,
                    "time": 41.683266,
                    "velocity": 0.3700787401574803,
                    "duration": 1.4373539999999991
                },
                {
                    "name": "F4",
                    "midi": 65,
                    "time": 41.683266,
                    "velocity": 0.3700787401574803,
                    "duration": 1.4373539999999991
                },
                {
                    "name": "D5",
                    "midi": 74,
                    "time": 41.922825,
                    "velocity": 0.4015748031496063,
                    "duration": 0.23955899999999986
                },
                {
                    "name": "C5",
                    "midi": 72,
                    "time": 42.162384,
                    "velocity": 0.4645669291338583,
                    "duration": 0.23955899999999986
                },
                {
                    "name": "D5",
                    "midi": 74,
                    "time": 42.401943,
                    "velocity": 0.41732283464566927,
                    "duration": 0.23955899999999986
                },
                {
                    "name": "E5",
                    "midi": 76,
                    "time": 42.641502,
                    "velocity": 0.4645669291338583,
                    "duration": 0.23955899999999986
                },
                {
                    "name": "F5",
                    "midi": 77,
                    "time": 42.881061,
                    "velocity": 0.4330708661417323,
                    "duration": 0.23955899999999986
                },
                {
                    "name": "E4",
                    "midi": 64,
                    "time": 43.12062,
                    "velocity": 0.3937007874015748,
                    "duration": 1.4373539999999991
                },
                {
                    "name": "A#4",
                    "midi": 70,
                    "time": 43.12062,
                    "velocity": 0.44881889763779526,
                    "duration": 0.3593384999999998
                },
                {
                    "name": "C5",
                    "midi": 72,
                    "time": 43.4799585,
                    "velocity": 0.4094488188976378,
                    "duration": 0.11977949999999993
                },
                {
                    "name": "E5",
                    "midi": 76,
                    "time": 43.599738,
                    "velocity": 0.44881889763779526,
                    "duration": 0.1597059999999999
                },
                {
                    "name": "D5",
                    "midi": 74,
                    "time": 43.759444,
                    "velocity": 0.41732283464566927,
                    "duration": 0.1597059999999999
                },
                {
                    "name": "C5",
                    "midi": 72,
                    "time": 43.91915,
                    "velocity": 0.41732283464566927,
                    "duration": 0.1597059999999999
                },
                {
                    "name": "A#4",
                    "midi": 70,
                    "time": 44.078856,
                    "velocity": 0.44881889763779526,
                    "duration": 0.23955899999999986
                },
                {
                    "name": "C5",
                    "midi": 72,
                    "time": 44.318415,
                    "velocity": 0.4330708661417323,
                    "duration": 0.23955899999999986
                },
                {
                    "name": "D#4",
                    "midi": 63,
                    "time": 44.557974,
                    "velocity": 0.33070866141732286,
                    "duration": 1.4373539999999991
                },
                {
                    "name": "A4",
                    "midi": 69,
                    "time": 44.557974,
                    "velocity": 0.3779527559055118,
                    "duration": 1.4373539999999991
                },
                {
                    "name": "D4",
                    "midi": 62,
                    "time": 45.995328,
                    "velocity": 0.4330708661417323,
                    "duration": 0.3593384999999998
                },
                {
                    "name": "A4",
                    "midi": 69,
                    "time": 45.995328,
                    "velocity": 0.4094488188976378,
                    "duration": 0.4791179999999997
                },
                {
                    "name": "E4",
                    "midi": 64,
                    "time": 46.3546665,
                    "velocity": 0.41732283464566927,
                    "duration": 0.11977949999999993
                },
                {
                    "name": "G4",
                    "midi": 67,
                    "time": 46.474446,
                    "velocity": 0.44881889763779526,
                    "duration": 0.4791179999999997
                },
                {
                    "name": "F4",
                    "midi": 65,
                    "time": 46.634152,
                    "velocity": 0.41732283464566927,
                    "duration": 0.1597059999999999
                },
                {
                    "name": "E4",
                    "midi": 64,
                    "time": 46.793858,
                    "velocity": 0.3937007874015748,
                    "duration": 0.1597059999999999
                },
                {
                    "name": "D5",
                    "midi": 74,
                    "time": 46.953564,
                    "velocity": 0.47244094488188976,
                    "duration": 0.9582359999999994
                },
                {
                    "name": "A3",
                    "midi": 57,
                    "time": 47.432682,
                    "velocity": 0.3700787401574803,
                    "duration": 1.4373539999999991
                },
                {
                    "name": "F4",
                    "midi": 65,
                    "time": 47.432682,
                    "velocity": 0.3700787401574803,
                    "duration": 0.9582359999999994
                },
                {
                    "name": "F4",
                    "midi": 65,
                    "time": 47.9118,
                    "velocity": 0.47244094488188976,
                    "duration": 0.9582359999999994
                },
                {
                    "name": "C5",
                    "midi": 72,
                    "time": 48.390918,
                    "velocity": 0.47244094488188976,
                    "duration": 0.9582359999999994
                },
                {
                    "name": "A#4",
                    "midi": 70,
                    "time": 49.349154,
                    "velocity": 0.47244094488188976,
                    "duration": 0.4791179999999997
                },
                {
                    "name": "E4",
                    "midi": 64,
                    "time": 49.828272,
                    "velocity": 0.47244094488188976,
                    "duration": 0.4791179999999997
                },
                {
                    "name": "C5",
                    "midi": 72,
                    "time": 49.828272,
                    "velocity": 0.47244094488188976,
                    "duration": 0.4791179999999997
                },
                {
                    "name": "C5",
                    "midi": 72,
                    "time": 50.30739,
                    "velocity": 0.3779527559055118,
                    "duration": 1.4373539999999991
                },
                {
                    "name": "F4",
                    "midi": 65,
                    "time": 50.30739,
                    "velocity": 0.33070866141732286,
                    "duration": 1.4373539999999991
                },
                {
                    "name": "G5",
                    "midi": 79,
                    "time": 51.744744,
                    "velocity": 0.44881889763779526,
                    "duration": 0.3593384999999998
                },
                {
                    "name": "A5",
                    "midi": 81,
                    "time": 52.1040825,
                    "velocity": 0.4094488188976378,
                    "duration": 0.11977949999999993
                },
                {
                    "name": "C6",
                    "midi": 84,
                    "time": 52.223862,
                    "velocity": 0.44881889763779526,
                    "duration": 0.1597059999999999
                },
                {
                    "name": "A#5",
                    "midi": 82,
                    "time": 52.383568,
                    "velocity": 0.41732283464566927,
                    "duration": 0.1597059999999999
                },
                {
                    "name": "A5",
                    "midi": 81,
                    "time": 52.543274,
                    "velocity": 0.41732283464566927,
                    "duration": 0.1597059999999999
                },
                {
                    "name": "G5",
                    "midi": 79,
                    "time": 52.70298,
                    "velocity": 0.44881889763779526,
                    "duration": 0.23955899999999986
                },
                {
                    "name": "A5",
                    "midi": 81,
                    "time": 52.942539,
                    "velocity": 0.4330708661417323,
                    "duration": 0.23955899999999986
                },
                {
                    "name": "F5",
                    "midi": 77,
                    "time": 53.182097999999996,
                    "velocity": 0.44881889763779526,
                    "duration": 0.23955899999999986
                },
                {
                    "name": "G5",
                    "midi": 79,
                    "time": 53.421656999999996,
                    "velocity": 0.4015748031496063,
                    "duration": 0.23955899999999986
                },
                {
                    "name": "F5",
                    "midi": 77,
                    "time": 53.661215999999996,
                    "velocity": 0.4645669291338583,
                    "duration": 0.23955899999999986
                },
                {
                    "name": "G5",
                    "midi": 79,
                    "time": 53.900774999999996,
                    "velocity": 0.41732283464566927,
                    "duration": 0.23955899999999986
                },
                {
                    "name": "A5",
                    "midi": 81,
                    "time": 54.140333999999996,
                    "velocity": 0.4645669291338583,
                    "duration": 0.23955899999999986
                },
                {
                    "name": "A#5",
                    "midi": 82,
                    "time": 54.379892999999996,
                    "velocity": 0.4330708661417323,
                    "duration": 0.23955899999999986
                },
                {
                    "name": "D5",
                    "midi": 74,
                    "time": 54.619451999999995,
                    "velocity": 0.44881889763779526,
                    "duration": 0.3593384999999998
                },
                {
                    "name": "E5",
                    "midi": 76,
                    "time": 54.978790499999995,
                    "velocity": 0.4094488188976378,
                    "duration": 0.11977949999999993
                },
                {
                    "name": "G5",
                    "midi": 79,
                    "time": 55.098569999999995,
                    "velocity": 0.44881889763779526,
                    "duration": 0.1597059999999999
                },
                {
                    "name": "F5",
                    "midi": 77,
                    "time": 55.258275999999995,
                    "velocity": 0.41732283464566927,
                    "duration": 0.1597059999999999
                },
                {
                    "name": "E5",
                    "midi": 76,
                    "time": 55.417981999999995,
                    "velocity": 0.41732283464566927,
                    "duration": 0.1597059999999999
                },
                {
                    "name": "D5",
                    "midi": 74,
                    "time": 55.577687999999995,
                    "velocity": 0.44881889763779526,
                    "duration": 0.23955899999999986
                },
                {
                    "name": "E5",
                    "midi": 76,
                    "time": 55.817246999999995,
                    "velocity": 0.4330708661417323,
                    "duration": 0.23955899999999986
                },
                {
                    "name": "F5",
                    "midi": 77,
                    "time": 56.056805999999995,
                    "velocity": 0.44881889763779526,
                    "duration": 1.4373539999999991
                },
                {
                    "name": "C5",
                    "midi": 72,
                    "time": 56.056805999999995,
                    "velocity": 0.44881889763779526,
                    "duration": 1.4373539999999991
                },
                {
                    "name": "A#4",
                    "midi": 70,
                    "time": 57.494159999999994,
                    "velocity": 0.3937007874015748,
                    "duration": 1.4373539999999991
                },
                {
                    "name": "F4",
                    "midi": 65,
                    "time": 57.494159999999994,
                    "velocity": 0.3937007874015748,
                    "duration": 1.4373539999999991
                },
                {
                    "name": "F5",
                    "midi": 77,
                    "time": 57.494159999999994,
                    "velocity": 0.44881889763779526,
                    "duration": 1.4373539999999991
                },
                {
                    "name": "C6",
                    "midi": 84,
                    "time": 58.93151399999999,
                    "velocity": 0.44881889763779526,
                    "duration": 1.4373539999999991
                },
                {
                    "name": "C5",
                    "midi": 72,
                    "time": 58.93151399999999,
                    "velocity": 0.3937007874015748,
                    "duration": 1.4373539999999991
                },
                {
                    "name": "F5",
                    "midi": 77,
                    "time": 58.93151399999999,
                    "velocity": 0.3937007874015748,
                    "duration": 1.4373539999999991
                },
                {
                    "name": "F5",
                    "midi": 77,
                    "time": 60.36886799999999,
                    "velocity": 0.3858267716535433,
                    "duration": 1.4373539999999991
                },
                {
                    "name": "F6",
                    "midi": 89,
                    "time": 60.36886799999999,
                    "velocity": 0.4409448818897638,
                    "duration": 1.4373539999999991
                },
                {
                    "name": "A#5",
                    "midi": 82,
                    "time": 60.36886799999999,
                    "velocity": 0.3858267716535433,
                    "duration": 1.4373539999999991
                },
                {
                    "name": "C7",
                    "midi": 96,
                    "time": 61.80622199999999,
                    "velocity": 0.4330708661417323,
                    "duration": 1.9164719999999988
                },
                {
                    "name": "F6",
                    "midi": 89,
                    "time": 61.80622199999999,
                    "velocity": 0.3858267716535433,
                    "duration": 1.9164719999999988
                },
                {
                    "name": "C6",
                    "midi": 84,
                    "time": 61.80622199999999,
                    "velocity": 0.3858267716535433,
                    "duration": 1.9164719999999988
                },
                {
                    "name": "A#3",
                    "midi": 58,
                    "time": 66.59740199999999,
                    "velocity": 0.3543307086614173,
                    "duration": 0.4791179999999997
                },
                {
                    "name": "D#4",
                    "midi": 63,
                    "time": 66.59740199999999,
                    "velocity": 0.3937007874015748,
                    "duration": 0.4791179999999997
                },
                {
                    "name": "C4",
                    "midi": 60,
                    "time": 67.07651999999999,
                    "velocity": 0.3779527559055118,
                    "duration": 0.4791179999999997
                },
                {
                    "name": "F4",
                    "midi": 65,
                    "time": 67.07651999999999,
                    "velocity": 0.41732283464566927,
                    "duration": 0.4791179999999997
                },
                {
                    "name": "C#4",
                    "midi": 61,
                    "time": 67.55563799999999,
                    "velocity": 0.3937007874015748,
                    "duration": 0.4791179999999997
                },
                {
                    "name": "F4",
                    "midi": 65,
                    "time": 67.55563799999999,
                    "velocity": 0.44881889763779526,
                    "duration": 0.4791179999999997
                },
                {
                    "name": "A#3",
                    "midi": 58,
                    "time": 68.03475599999999,
                    "velocity": 0.3464566929133858,
                    "duration": 0.4791179999999997
                },
                {
                    "name": "G#4",
                    "midi": 68,
                    "time": 68.03475599999999,
                    "velocity": 0.3858267716535433,
                    "duration": 0.4791179999999997
                },
                {
                    "name": "C#4",
                    "midi": 61,
                    "time": 68.51387399999999,
                    "velocity": 0.33070866141732286,
                    "duration": 0.4791179999999997
                },
                {
                    "name": "F4",
                    "midi": 65,
                    "time": 68.51387399999999,
                    "velocity": 0.3779527559055118,
                    "duration": 0.4791179999999997
                },
                {
                    "name": "A#3",
                    "midi": 58,
                    "time": 69.47210999999999,
                    "velocity": 0.3543307086614173,
                    "duration": 0.4791179999999997
                },
                {
                    "name": "D#4",
                    "midi": 63,
                    "time": 69.47210999999999,
                    "velocity": 0.3937007874015748,
                    "duration": 0.4791179999999997
                },
                {
                    "name": "C4",
                    "midi": 60,
                    "time": 69.95122799999999,
                    "velocity": 0.3779527559055118,
                    "duration": 0.4791179999999997
                },
                {
                    "name": "F4",
                    "midi": 65,
                    "time": 69.95122799999999,
                    "velocity": 0.41732283464566927,
                    "duration": 0.4791179999999997
                },
                {
                    "name": "C#4",
                    "midi": 61,
                    "time": 70.43034599999999,
                    "velocity": 0.3937007874015748,
                    "duration": 0.4791179999999997
                },
                {
                    "name": "F4",
                    "midi": 65,
                    "time": 70.43034599999999,
                    "velocity": 0.44881889763779526,
                    "duration": 0.4791179999999997
                },
                {
                    "name": "A#3",
                    "midi": 58,
                    "time": 70.90946399999999,
                    "velocity": 0.3464566929133858,
                    "duration": 0.4791179999999997
                },
                {
                    "name": "G#4",
                    "midi": 68,
                    "time": 70.90946399999999,
                    "velocity": 0.3858267716535433,
                    "duration": 0.4791179999999997
                },
                {
                    "name": "F4",
                    "midi": 65,
                    "time": 71.38858199999999,
                    "velocity": 0.33070866141732286,
                    "duration": 0.4791179999999997
                },
                {
                    "name": "A#4",
                    "midi": 70,
                    "time": 71.38858199999999,
                    "velocity": 0.3779527559055118,
                    "duration": 0.4791179999999997
                },
                {
                    "name": "D#4",
                    "midi": 63,
                    "time": 72.34681799999998,
                    "velocity": 0.3858267716535433,
                    "duration": 0.4791179999999997
                },
                {
                    "name": "G#4",
                    "midi": 68,
                    "time": 72.34681799999998,
                    "velocity": 0.4330708661417323,
                    "duration": 0.4791179999999997
                },
                {
                    "name": "F4",
                    "midi": 65,
                    "time": 72.82593599999998,
                    "velocity": 0.4094488188976378,
                    "duration": 0.4791179999999997
                },
                {
                    "name": "A#4",
                    "midi": 70,
                    "time": 72.82593599999998,
                    "velocity": 0.4566929133858268,
                    "duration": 0.4791179999999997
                },
                {
                    "name": "F#4",
                    "midi": 66,
                    "time": 73.30505399999998,
                    "velocity": 0.4330708661417323,
                    "duration": 0.4791179999999997
                },
                {
                    "name": "A#4",
                    "midi": 70,
                    "time": 73.30505399999998,
                    "velocity": 0.4881889763779528,
                    "duration": 0.4791179999999997
                },
                {
                    "name": "D#4",
                    "midi": 63,
                    "time": 73.78417199999998,
                    "velocity": 0.3779527559055118,
                    "duration": 0.4791179999999997
                },
                {
                    "name": "C#5",
                    "midi": 73,
                    "time": 73.78417199999998,
                    "velocity": 0.41732283464566927,
                    "duration": 0.4791179999999997
                },
                {
                    "name": "F#4",
                    "midi": 66,
                    "time": 74.26328999999998,
                    "velocity": 0.36220472440944884,
                    "duration": 0.4791179999999997
                },
                {
                    "name": "A#4",
                    "midi": 70,
                    "time": 74.26328999999998,
                    "velocity": 0.4094488188976378,
                    "duration": 0.4791179999999997
                },
                {
                    "name": "D#4",
                    "midi": 63,
                    "time": 74.74240799999998,
                    "velocity": 0.3858267716535433,
                    "duration": 0.4791179999999997
                },
                {
                    "name": "G#4",
                    "midi": 68,
                    "time": 74.74240799999998,
                    "velocity": 0.4330708661417323,
                    "duration": 0.4791179999999997
                },
                {
                    "name": "A#3",
                    "midi": 58,
                    "time": 75.22152599999998,
                    "velocity": 0.33070866141732286,
                    "duration": 0.4791179999999997
                },
                {
                    "name": "F4",
                    "midi": 65,
                    "time": 75.22152599999998,
                    "velocity": 0.3779527559055118,
                    "duration": 0.4791179999999997
                },
                {
                    "name": "D#4",
                    "midi": 63,
                    "time": 75.70064399999998,
                    "velocity": 0.3779527559055118,
                    "duration": 0.4791179999999997
                },
                {
                    "name": "G#4",
                    "midi": 68,
                    "time": 75.70064399999998,
                    "velocity": 0.4330708661417323,
                    "duration": 0.4791179999999997
                },
                {
                    "name": "C#4",
                    "midi": 61,
                    "time": 76.17976199999998,
                    "velocity": 0.3464566929133858,
                    "duration": 0.4791179999999997
                },
                {
                    "name": "F4",
                    "midi": 65,
                    "time": 76.17976199999998,
                    "velocity": 0.3858267716535433,
                    "duration": 0.4791179999999997
                },
                {
                    "name": "A#3",
                    "midi": 58,
                    "time": 76.65887999999998,
                    "velocity": 0.3700787401574803,
                    "duration": 0.4791179999999997
                },
                {
                    "name": "F#4",
                    "midi": 66,
                    "time": 76.65887999999998,
                    "velocity": 0.4094488188976378,
                    "duration": 0.4791179999999997
                },
                {
                    "name": "C4",
                    "midi": 60,
                    "time": 77.13799799999998,
                    "velocity": 0.33070866141732286,
                    "duration": 0.4791179999999997
                },
                {
                    "name": "D#4",
                    "midi": 63,
                    "time": 77.13799799999998,
                    "velocity": 0.3779527559055118,
                    "duration": 0.4791179999999997
                },
                {
                    "name": "A#3",
                    "midi": 58,
                    "time": 78.09623399999998,
                    "velocity": 0.3937007874015748,
                    "duration": 0.4791179999999997
                },
                {
                    "name": "D#4",
                    "midi": 63,
                    "time": 78.33579299999998,
                    "velocity": 0.30708661417322836,
                    "duration": 0.23955899999999986
                },
                {
                    "name": "C4",
                    "midi": 60,
                    "time": 78.57535199999998,
                    "velocity": 0.41732283464566927,
                    "duration": 0.4791179999999997
                },
                {
                    "name": "F4",
                    "midi": 65,
                    "time": 78.81491099999998,
                    "velocity": 0.3228346456692913,
                    "duration": 0.23955899999999986
                },
                {
                    "name": "C#4",
                    "midi": 61,
                    "time": 79.05446999999998,
                    "velocity": 0.4330708661417323,
                    "duration": 0.9582359999999994
                },
                {
                    "name": "F4",
                    "midi": 65,
                    "time": 79.29402899999998,
                    "velocity": 0.33070866141732286,
                    "duration": 0.23955899999999986
                },
                {
                    "name": "A#3",
                    "midi": 58,
                    "time": 79.53358799999998,
                    "velocity": 0.3858267716535433,
                    "duration": 0.23955899999999986
                },
                {
                    "name": "G#4",
                    "midi": 68,
                    "time": 79.77314699999998,
                    "velocity": 0.29133858267716534,
                    "duration": 0.23955899999999986
                },
                {
                    "name": "C#4",
                    "midi": 61,
                    "time": 80.01270599999998,
                    "velocity": 0.3700787401574803,
                    "duration": 0.4791179999999997
                },
                {
                    "name": "F4",
                    "midi": 65,
                    "time": 80.25226499999998,
                    "velocity": 0.2755905511811024,
                    "duration": 0.23955899999999986
                },
                {
                    "name": "A#3",
                    "midi": 58,
                    "time": 80.97094199999998,
                    "velocity": 0.3543307086614173,
                    "duration": 0.4791179999999997
                },
                {
                    "name": "D#4",
                    "midi": 63,
                    "time": 81.21050099999998,
                    "velocity": 0.2755905511811024,
                    "duration": 0.23955899999999986
                },
                {
                    "name": "C4",
                    "midi": 60,
                    "time": 81.45005999999998,
                    "velocity": 0.3779527559055118,
                    "duration": 0.4791179999999997
                },
                {
                    "name": "F4",
                    "midi": 65,
                    "time": 81.68961899999998,
                    "velocity": 0.29133858267716534,
                    "duration": 0.23955899999999986
                },
                {
                    "name": "C#4",
                    "midi": 61,
                    "time": 81.92917799999998,
                    "velocity": 0.3858267716535433,
                    "duration": 0.9582359999999994
                },
                {
                    "name": "F4",
                    "midi": 65,
                    "time": 82.16873699999998,
                    "velocity": 0.2992125984251969,
                    "duration": 0.23955899999999986
                },
                {
                    "name": "A#3",
                    "midi": 58,
                    "time": 82.40829599999998,
                    "velocity": 0.3464566929133858,
                    "duration": 0.23955899999999986
                },
                {
                    "name": "G#4",
                    "midi": 68,
                    "time": 82.64785499999998,
                    "velocity": 0.25984251968503935,
                    "duration": 0.23955899999999986
                },
                {
                    "name": "F4",
                    "midi": 65,
                    "time": 82.88741399999998,
                    "velocity": 0.3228346456692913,
                    "duration": 0.4791179999999997
                },
                {
                    "name": "A#4",
                    "midi": 70,
                    "time": 83.12697299999998,
                    "velocity": 0.23622047244094488,
                    "duration": 0.23955899999999986
                },
                {
                    "name": "D4",
                    "midi": 62,
                    "time": 83.84564999999998,
                    "velocity": 0.3858267716535433,
                    "duration": 0.4791179999999997
                },
                {
                    "name": "G4",
                    "midi": 67,
                    "time": 83.84564999999998,
                    "velocity": 0.4330708661417323,
                    "duration": 0.4791179999999997
                },
                {
                    "name": "E4",
                    "midi": 64,
                    "time": 84.32476799999998,
                    "velocity": 0.4094488188976378,
                    "duration": 0.4791179999999997
                },
                {
                    "name": "A4",
                    "midi": 69,
                    "time": 84.32476799999998,
                    "velocity": 0.4566929133858268,
                    "duration": 0.4791179999999997
                },
                {
                    "name": "F4",
                    "midi": 65,
                    "time": 84.80388599999998,
                    "velocity": 0.4330708661417323,
                    "duration": 0.4791179999999997
                },
                {
                    "name": "A4",
                    "midi": 69,
                    "time": 84.80388599999998,
                    "velocity": 0.4881889763779528,
                    "duration": 0.4791179999999997
                },
                {
                    "name": "F4",
                    "midi": 65,
                    "time": 85.28300399999998,
                    "velocity": 0.3779527559055118,
                    "duration": 0.4791179999999997
                },
                {
                    "name": "C5",
                    "midi": 72,
                    "time": 85.28300399999998,
                    "velocity": 0.41732283464566927,
                    "duration": 0.4791179999999997
                },
                {
                    "name": "F4",
                    "midi": 65,
                    "time": 85.76212199999998,
                    "velocity": 0.36220472440944884,
                    "duration": 0.4791179999999997
                },
                {
                    "name": "A4",
                    "midi": 69,
                    "time": 85.76212199999998,
                    "velocity": 0.4094488188976378,
                    "duration": 0.4791179999999997
                },
                {
                    "name": "D4",
                    "midi": 62,
                    "time": 86.72035799999998,
                    "velocity": 0.4330708661417323,
                    "duration": 0.4791179999999997
                },
                {
                    "name": "G4",
                    "midi": 67,
                    "time": 86.95991699999998,
                    "velocity": 0.3464566929133858,
                    "duration": 0.23955899999999986
                },
                {
                    "name": "E4",
                    "midi": 64,
                    "time": 87.19947599999998,
                    "velocity": 0.44881889763779526,
                    "duration": 0.4791179999999997
                },
                {
                    "name": "A4",
                    "midi": 69,
                    "time": 87.43903499999998,
                    "velocity": 0.3543307086614173,
                    "duration": 0.23955899999999986
                },
                {
                    "name": "F4",
                    "midi": 65,
                    "time": 87.67859399999998,
                    "velocity": 0.47244094488188976,
                    "duration": 0.4791179999999997
                },
                {
                    "name": "A4",
                    "midi": 69,
                    "time": 87.91815299999998,
                    "velocity": 0.3700787401574803,
                    "duration": 0.23955899999999986
                },
                {
                    "name": "F4",
                    "midi": 65,
                    "time": 88.15771199999998,
                    "velocity": 0.44881889763779526,
                    "duration": 0.4791179999999997
                },
                {
                    "name": "C5",
                    "midi": 72,
                    "time": 88.39727099999998,
                    "velocity": 0.3543307086614173,
                    "duration": 0.23955899999999986
                },
                {
                    "name": "A4",
                    "midi": 69,
                    "time": 88.63682999999997,
                    "velocity": 0.41732283464566927,
                    "duration": 0.4791179999999997
                },
                {
                    "name": "D5",
                    "midi": 74,
                    "time": 88.87638899999997,
                    "velocity": 0.33070866141732286,
                    "duration": 0.23955899999999986
                },
                {
                    "name": "C6",
                    "midi": 84,
                    "time": 89.59506599999997,
                    "velocity": 0.4015748031496063,
                    "duration": 0.4791179999999997
                },
                {
                    "name": "G5",
                    "midi": 79,
                    "time": 89.59506599999997,
                    "velocity": 0.3543307086614173,
                    "duration": 0.4791179999999997
                },
                {
                    "name": "D5",
                    "midi": 74,
                    "time": 90.07418399999997,
                    "velocity": 0.30708661417322836,
                    "duration": 0.4791179999999997
                },
                {
                    "name": "A5",
                    "midi": 81,
                    "time": 90.07418399999997,
                    "velocity": 0.3464566929133858,
                    "duration": 0.4791179999999997
                },
                {
                    "name": "C6",
                    "midi": 84,
                    "time": 90.55330199999997,
                    "velocity": 0.4015748031496063,
                    "duration": 0.4791179999999997
                },
                {
                    "name": "G5",
                    "midi": 79,
                    "time": 90.55330199999997,
                    "velocity": 0.3543307086614173,
                    "duration": 0.4791179999999997
                },
                {
                    "name": "F5",
                    "midi": 77,
                    "time": 91.03241999999997,
                    "velocity": 0.30708661417322836,
                    "duration": 0.4791179999999997
                },
                {
                    "name": "A5",
                    "midi": 81,
                    "time": 91.03241999999997,
                    "velocity": 0.3464566929133858,
                    "duration": 0.4791179999999997
                },
                {
                    "name": "D5",
                    "midi": 74,
                    "time": 91.51153799999997,
                    "velocity": 0.3543307086614173,
                    "duration": 0.4791179999999997
                },
                {
                    "name": "A#5",
                    "midi": 82,
                    "time": 91.51153799999997,
                    "velocity": 0.4015748031496063,
                    "duration": 0.4791179999999997
                },
                {
                    "name": "E5",
                    "midi": 76,
                    "time": 91.99065599999997,
                    "velocity": 0.29133858267716534,
                    "duration": 0.4791179999999997
                },
                {
                    "name": "G5",
                    "midi": 79,
                    "time": 91.99065599999997,
                    "velocity": 0.3228346456692913,
                    "duration": 0.4791179999999997
                },
                {
                    "name": "C5",
                    "midi": 72,
                    "time": 92.46977399999997,
                    "velocity": 0.4015748031496063,
                    "duration": 0.4791179999999997
                },
                {
                    "name": "G4",
                    "midi": 67,
                    "time": 92.46977399999997,
                    "velocity": 0.3543307086614173,
                    "duration": 0.4791179999999997
                },
                {
                    "name": "D4",
                    "midi": 62,
                    "time": 92.94889199999997,
                    "velocity": 0.30708661417322836,
                    "duration": 0.4791179999999997
                },
                {
                    "name": "A4",
                    "midi": 69,
                    "time": 92.94889199999997,
                    "velocity": 0.3464566929133858,
                    "duration": 0.4791179999999997
                },
                {
                    "name": "C5",
                    "midi": 72,
                    "time": 93.42800999999997,
                    "velocity": 0.4015748031496063,
                    "duration": 0.4791179999999997
                },
                {
                    "name": "G4",
                    "midi": 67,
                    "time": 93.42800999999997,
                    "velocity": 0.3543307086614173,
                    "duration": 0.4791179999999997
                },
                {
                    "name": "F4",
                    "midi": 65,
                    "time": 93.90712799999997,
                    "velocity": 0.30708661417322836,
                    "duration": 0.4791179999999997
                },
                {
                    "name": "A4",
                    "midi": 69,
                    "time": 93.90712799999997,
                    "velocity": 0.3464566929133858,
                    "duration": 0.4791179999999997
                },
                {
                    "name": "D4",
                    "midi": 62,
                    "time": 94.38624599999997,
                    "velocity": 0.3543307086614173,
                    "duration": 0.4791179999999997
                },
                {
                    "name": "A#4",
                    "midi": 70,
                    "time": 94.38624599999997,
                    "velocity": 0.4015748031496063,
                    "duration": 0.4791179999999997
                },
                {
                    "name": "E4",
                    "midi": 64,
                    "time": 94.86536399999997,
                    "velocity": 0.29133858267716534,
                    "duration": 0.4791179999999997
                },
                {
                    "name": "G4",
                    "midi": 67,
                    "time": 94.86536399999997,
                    "velocity": 0.3228346456692913,
                    "duration": 0.4791179999999997
                },
                {
                    "name": "C4",
                    "midi": 60,
                    "time": 95.34448199999997,
                    "velocity": 0.3779527559055118,
                    "duration": 0.9582359999999994
                },
                {
                    "name": "A4",
                    "midi": 69,
                    "time": 95.34448199999997,
                    "velocity": 0.4015748031496063,
                    "duration": 0.9582359999999994
                },
                {
                    "name": "D4",
                    "midi": 62,
                    "time": 96.30271799999997,
                    "velocity": 0.31496062992125984,
                    "duration": 0.4791179999999997
                },
                {
                    "name": "F4",
                    "midi": 65,
                    "time": 96.30271799999997,
                    "velocity": 0.3464566929133858,
                    "duration": 0.4791179999999997
                },
                {
                    "name": "A#3",
                    "midi": 58,
                    "time": 96.78183599999997,
                    "velocity": 0.3779527559055118,
                    "duration": 0.9582359999999994
                },
                {
                    "name": "G4",
                    "midi": 67,
                    "time": 96.78183599999997,
                    "velocity": 0.4015748031496063,
                    "duration": 0.9582359999999994
                },
                {
                    "name": "A#3",
                    "midi": 58,
                    "time": 97.74007199999997,
                    "velocity": 0.31496062992125984,
                    "duration": 1.4373539999999991
                },
                {
                    "name": "G4",
                    "midi": 67,
                    "time": 97.74007199999997,
                    "velocity": 0.3464566929133858,
                    "duration": 1.4373539999999991
                },
                {
                    "name": "D4",
                    "midi": 62,
                    "time": 98.21918999999997,
                    "velocity": 0.33070866141732286,
                    "duration": 0.49908125000000325
                },
                {
                    "name": "E4",
                    "midi": 64,
                    "time": 98.69830799999997,
                    "velocity": 0.33070866141732286,
                    "duration": 0.49908125000000325
                },
                {
                    "name": "F4",
                    "midi": 65,
                    "time": 99.17742599999997,
                    "velocity": 0.3543307086614173,
                    "duration": 0.49908125000000325
                },
                {
                    "name": "E4",
                    "midi": 64,
                    "time": 99.65654399999997,
                    "velocity": 0.30708661417322836,
                    "duration": 0.2595222500000034
                },
                {
                    "name": "D4",
                    "midi": 62,
                    "time": 99.89610299999997,
                    "velocity": 0.23622047244094488,
                    "duration": 0.2595222500000034
                },
                {
                    "name": "E4",
                    "midi": 64,
                    "time": 100.13566199999997,
                    "velocity": 0.25984251968503935,
                    "duration": 0.4791179999999997
                },
                {
                    "name": "A3",
                    "midi": 57,
                    "time": 100.61477999999997,
                    "velocity": 0.3779527559055118,
                    "duration": 1.4373540000000133
                },
                {
                    "name": "E4",
                    "midi": 64,
                    "time": 100.61477999999997,
                    "velocity": 0.4330708661417323,
                    "duration": 0.3593385000000069
                },
                {
                    "name": "F4",
                    "midi": 65,
                    "time": 100.97411849999997,
                    "velocity": 0.4015748031496063,
                    "duration": 0.11977950000000703
                },
                {
                    "name": "A4",
                    "midi": 69,
                    "time": 101.09389799999998,
                    "velocity": 0.4330708661417323,
                    "duration": 0.1597059999999999
                },
                {
                    "name": "G4",
                    "midi": 67,
                    "time": 101.25360399999998,
                    "velocity": 0.4015748031496063,
                    "duration": 0.1597059999999999
                },
                {
                    "name": "F4",
                    "midi": 65,
                    "time": 101.41330999999998,
                    "velocity": 0.4015748031496063,
                    "duration": 0.1597059999999999
                },
                {
                    "name": "E4",
                    "midi": 64,
                    "time": 101.57301599999998,
                    "velocity": 0.41732283464566927,
                    "duration": 0.23955899999999986
                },
                {
                    "name": "F4",
                    "midi": 65,
                    "time": 101.81257499999998,
                    "velocity": 0.4094488188976378,
                    "duration": 0.23955899999999986
                },
                {
                    "name": "A3",
                    "midi": 57,
                    "time": 102.05213399999998,
                    "velocity": 0.3779527559055118,
                    "duration": 1.4373540000000133
                },
                {
                    "name": "D4",
                    "midi": 62,
                    "time": 102.05213399999998,
                    "velocity": 0.4094488188976378,
                    "duration": 0.3593385000000069
                },
                {
                    "name": "A4",
                    "midi": 69,
                    "time": 102.531252,
                    "velocity": 0.4566929133858268,
                    "duration": 0.9582359999999994
                },
                {
                    "name": "G3",
                    "midi": 55,
                    "time": 103.489488,
                    "velocity": 0.3779527559055118,
                    "duration": 1.4373540000000133
                },
                {
                    "name": "D4",
                    "midi": 62,
                    "time": 103.489488,
                    "velocity": 0.4330708661417323,
                    "duration": 0.3593385000000069
                },
                {
                    "name": "E4",
                    "midi": 64,
                    "time": 103.8488265,
                    "velocity": 0.3937007874015748,
                    "duration": 0.11977950000000703
                },
                {
                    "name": "G4",
                    "midi": 67,
                    "time": 103.96860600000001,
                    "velocity": 0.4330708661417323,
                    "duration": 0.1597059999999999
                },
                {
                    "name": "F4",
                    "midi": 65,
                    "time": 104.12831200000001,
                    "velocity": 0.4015748031496063,
                    "duration": 0.1597059999999999
                },
                {
                    "name": "E4",
                    "midi": 64,
                    "time": 104.28801800000001,
                    "velocity": 0.4015748031496063,
                    "duration": 0.1597059999999999
                },
                {
                    "name": "D4",
                    "midi": 62,
                    "time": 104.44772400000001,
                    "velocity": 0.4330708661417323,
                    "duration": 0.23955899999999986
                },
                {
                    "name": "E4",
                    "midi": 64,
                    "time": 104.68728300000001,
                    "velocity": 0.4094488188976378,
                    "duration": 0.23955899999999986
                },
                {
                    "name": "D4",
                    "midi": 62,
                    "time": 104.92684200000001,
                    "velocity": 0.4015748031496063,
                    "duration": 0.23955899999999986
                },
                {
                    "name": "E4",
                    "midi": 64,
                    "time": 104.92684200000001,
                    "velocity": 0.4330708661417323,
                    "duration": 1.4373539999999991
                },
                {
                    "name": "C#4",
                    "midi": 61,
                    "time": 105.16640100000001,
                    "velocity": 0.3464566929133858,
                    "duration": 0.23955899999999986
                },
                {
                    "name": "B3",
                    "midi": 59,
                    "time": 105.40596000000001,
                    "velocity": 0.3700787401574803,
                    "duration": 0.23955899999999986
                },
                {
                    "name": "C#4",
                    "midi": 61,
                    "time": 105.64551900000001,
                    "velocity": 0.33070866141732286,
                    "duration": 0.23955899999999986
                },
                {
                    "name": "B3",
                    "midi": 59,
                    "time": 105.88507800000001,
                    "velocity": 0.3700787401574803,
                    "duration": 0.23955899999999986
                },
                {
                    "name": "A3",
                    "midi": 57,
                    "time": 106.124637,
                    "velocity": 0.33070866141732286,
                    "duration": 0.23955899999999986
                },
                {
                    "name": "A3",
                    "midi": 57,
                    "time": 106.364196,
                    "velocity": 0.3779527559055118,
                    "duration": 1.4373540000000133
                },
                {
                    "name": "E4",
                    "midi": 64,
                    "time": 106.364196,
                    "velocity": 0.4330708661417323,
                    "duration": 0.3593385000000069
                },
                {
                    "name": "F4",
                    "midi": 65,
                    "time": 106.72353450000001,
                    "velocity": 0.4015748031496063,
                    "duration": 0.11977950000000703
                },
                {
                    "name": "A4",
                    "midi": 69,
                    "time": 106.84331400000002,
                    "velocity": 0.4330708661417323,
                    "duration": 0.1597059999999999
                },
                {
                    "name": "G4",
                    "midi": 67,
                    "time": 107.00302000000002,
                    "velocity": 0.4015748031496063,
                    "duration": 0.1597059999999999
                },
                {
                    "name": "F4",
                    "midi": 65,
                    "time": 107.16272600000002,
                    "velocity": 0.4015748031496063,
                    "duration": 0.1597059999999999
                },
                {
                    "name": "E4",
                    "midi": 64,
                    "time": 107.32243200000002,
                    "velocity": 0.41732283464566927,
                    "duration": 0.23955899999999986
                },
                {
                    "name": "F4",
                    "midi": 65,
                    "time": 107.56199100000002,
                    "velocity": 0.4094488188976378,
                    "duration": 0.23955899999999986
                },
                {
                    "name": "A3",
                    "midi": 57,
                    "time": 107.80155000000002,
                    "velocity": 0.3779527559055118,
                    "duration": 1.4373540000000133
                },
                {
                    "name": "D4",
                    "midi": 62,
                    "time": 107.80155000000002,
                    "velocity": 0.4094488188976378,
                    "duration": 0.3593385000000069
                },
                {
                    "name": "A4",
                    "midi": 69,
                    "time": 108.28066800000003,
                    "velocity": 0.44881889763779526,
                    "duration": 0.9582359999999994
                },
                {
                    "name": "D4",
                    "midi": 62,
                    "time": 109.23890400000003,
                    "velocity": 0.3937007874015748,
                    "duration": 1.916472000000013
                },
                {
                    "name": "A4",
                    "midi": 69,
                    "time": 109.23890400000003,
                    "velocity": 0.44881889763779526,
                    "duration": 0.3593385000000069
                },
                {
                    "name": "B4",
                    "midi": 71,
                    "time": 109.59824250000004,
                    "velocity": 0.4094488188976378,
                    "duration": 0.11977950000000703
                },
                {
                    "name": "D5",
                    "midi": 74,
                    "time": 109.71802200000005,
                    "velocity": 0.44881889763779526,
                    "duration": 0.1597059999999999
                },
                {
                    "name": "C5",
                    "midi": 72,
                    "time": 109.87772800000005,
                    "velocity": 0.41732283464566927,
                    "duration": 0.1597059999999999
                },
                {
                    "name": "B4",
                    "midi": 71,
                    "time": 110.03743400000005,
                    "velocity": 0.41732283464566927,
                    "duration": 0.1597059999999999
                },
                {
                    "name": "A4",
                    "midi": 69,
                    "time": 110.19714000000005,
                    "velocity": 0.44881889763779526,
                    "duration": 0.23955899999999986
                },
                {
                    "name": "B4",
                    "midi": 71,
                    "time": 110.43669900000005,
                    "velocity": 0.4330708661417323,
                    "duration": 0.23955899999999986
                },
                {
                    "name": "G4",
                    "midi": 67,
                    "time": 110.67625800000005,
                    "velocity": 0.44881889763779526,
                    "duration": 0.23955899999999986
                },
                {
                    "name": "A4",
                    "midi": 69,
                    "time": 110.91581700000005,
                    "velocity": 0.4015748031496063,
                    "duration": 0.23955899999999986
                },
                {
                    "name": "C4",
                    "midi": 60,
                    "time": 111.15537600000005,
                    "velocity": 0.3700787401574803,
                    "duration": 0.9582359999999994
                },
                {
                    "name": "G4",
                    "midi": 67,
                    "time": 111.15537600000005,
                    "velocity": 0.4645669291338583,
                    "duration": 0.23955899999999986
                },
                {
                    "name": "A4",
                    "midi": 69,
                    "time": 111.39493500000005,
                    "velocity": 0.41732283464566927,
                    "duration": 0.23955899999999986
                },
                {
                    "name": "B4",
                    "midi": 71,
                    "time": 111.63449400000005,
                    "velocity": 0.4645669291338583,
                    "duration": 0.23955899999999986
                },
                {
                    "name": "C5",
                    "midi": 72,
                    "time": 111.87405300000005,
                    "velocity": 0.4330708661417323,
                    "duration": 0.23955899999999986
                },
                {
                    "name": "B3",
                    "midi": 59,
                    "time": 112.11361200000005,
                    "velocity": 0.3937007874015748,
                    "duration": 0.9582360000000136
                },
                {
                    "name": "F4",
                    "midi": 65,
                    "time": 112.11361200000005,
                    "velocity": 0.44881889763779526,
                    "duration": 0.3593385000000069
                },
                {
                    "name": "G4",
                    "midi": 67,
                    "time": 112.47295050000005,
                    "velocity": 0.4094488188976378,
                    "duration": 0.11977950000000703
                },
                {
                    "name": "B4",
                    "midi": 71,
                    "time": 112.59273000000006,
                    "velocity": 0.44881889763779526,
                    "duration": 0.1597059999999999
                },
                {
                    "name": "A4",
                    "midi": 69,
                    "time": 112.75243600000006,
                    "velocity": 0.41732283464566927,
                    "duration": 0.1597059999999999
                },
                {
                    "name": "G4",
                    "midi": 67,
                    "time": 112.91214200000006,
                    "velocity": 0.41732283464566927,
                    "duration": 0.1597059999999999
                },
                {
                    "name": "B3",
                    "midi": 59,
                    "time": 113.07184800000006,
                    "velocity": 0.3779527559055118,
                    "duration": 0.4791179999999997
                },
                {
                    "name": "F4",
                    "midi": 65,
                    "time": 113.07184800000006,
                    "velocity": 0.44881889763779526,
                    "duration": 0.23955899999999986
                },
                {
                    "name": "G4",
                    "midi": 67,
                    "time": 113.31140700000006,
                    "velocity": 0.4330708661417323,
                    "duration": 0.23955899999999986
                },
                {
                    "name": "B3",
                    "midi": 59,
                    "time": 113.55096600000006,
                    "velocity": 0.3937007874015748,
                    "duration": 0.9582359999999994
                },
                {
                    "name": "E4",
                    "midi": 64,
                    "time": 113.55096600000006,
                    "velocity": 0.44881889763779526,
                    "duration": 1.4373539999999991
                },
                {
                    "name": "A4",
                    "midi": 69,
                    "time": 115.46743800000006,
                    "velocity": 0.3700787401574803,
                    "duration": 1.9164719999999988
                },
                {
                    "name": "D5",
                    "midi": 74,
                    "time": 115.46743800000006,
                    "velocity": 0.4881889763779528,
                    "duration": 0.4791179999999997
                },
                {
                    "name": "A5",
                    "midi": 81,
                    "time": 115.94655600000006,
                    "velocity": 0.5275590551181102,
                    "duration": 0.9582359999999994
                },
                {
                    "name": "C5",
                    "midi": 72,
                    "time": 116.90479200000006,
                    "velocity": 0.47244094488188976,
                    "duration": 0.4791179999999997
                },
                {
                    "name": "G4",
                    "midi": 67,
                    "time": 117.38391000000006,
                    "velocity": 0.3700787401574803,
                    "duration": 0.4791179999999997
                },
                {
                    "name": "G5",
                    "midi": 79,
                    "time": 117.38391000000006,
                    "velocity": 0.4881889763779528,
                    "duration": 0.4791179999999997
                },
                {
                    "name": "B4",
                    "midi": 71,
                    "time": 118.34214600000006,
                    "velocity": 0.3779527559055118,
                    "duration": 0.4791179999999997
                },
                {
                    "name": "F5",
                    "midi": 77,
                    "time": 118.34214600000006,
                    "velocity": 0.4881889763779528,
                    "duration": 0.4791179999999997
                },
                {
                    "name": "G4",
                    "midi": 67,
                    "time": 118.82126400000006,
                    "velocity": 0.36220472440944884,
                    "duration": 0.45915474999999617
                },
                {
                    "name": "G5",
                    "midi": 79,
                    "time": 118.82126400000006,
                    "velocity": 0.47244094488188976,
                    "duration": 0.45915474999999617
                },
                {
                    "name": "G4",
                    "midi": 67,
                    "time": 119.30038200000006,
                    "velocity": 0.3779527559055118,
                    "duration": 0.4791179999999997
                },
                {
                    "name": "G5",
                    "midi": 79,
                    "time": 119.30038200000006,
                    "velocity": 0.4881889763779528,
                    "duration": 0.4791179999999997
                },
                {
                    "name": "C5",
                    "midi": 72,
                    "time": 119.77950000000006,
                    "velocity": 0.44881889763779526,
                    "duration": 0.4791179999999997
                },
                {
                    "name": "F3",
                    "midi": 53,
                    "time": 120.73773600000006,
                    "velocity": 0.5433070866141733,
                    "duration": 0.3593385000000069
                },
                {
                    "name": "G3",
                    "midi": 55,
                    "time": 121.09707450000006,
                    "velocity": 0.49606299212598426,
                    "duration": 0.1297611250000017
                },
                {
                    "name": "A#3",
                    "midi": 58,
                    "time": 121.21685400000007,
                    "velocity": 0.5433070866141733,
                    "duration": 0.16968762499999457
                },
                {
                    "name": "G#3",
                    "midi": 56,
                    "time": 121.37656000000007,
                    "velocity": 0.5039370078740157,
                    "duration": 0.16968762499999457
                },
                {
                    "name": "G3",
                    "midi": 55,
                    "time": 121.53626600000007,
                    "velocity": 0.5039370078740157,
                    "duration": 0.16968762499999457
                },
                {
                    "name": "F3",
                    "midi": 53,
                    "time": 121.69597200000007,
                    "velocity": 0.5433070866141733,
                    "duration": 0.24954062499999452
                },
                {
                    "name": "G3",
                    "midi": 55,
                    "time": 121.93553100000007,
                    "velocity": 0.5196850393700787,
                    "duration": 0.23955899999999986
                },
                {
                    "name": "G#4",
                    "midi": 68,
                    "time": 122.17509000000007,
                    "velocity": 0.4645669291338583,
                    "duration": 1.4373540000000133
                },
                {
                    "name": "D#5",
                    "midi": 75,
                    "time": 122.17509000000007,
                    "velocity": 0.5669291338582677,
                    "duration": 0.3593385000000069
                },
                {
                    "name": "F5",
                    "midi": 77,
                    "time": 122.53442850000008,
                    "velocity": 0.5196850393700787,
                    "duration": 0.11977950000000703
                },
                {
                    "name": "G#5",
                    "midi": 80,
                    "time": 122.65420800000008,
                    "velocity": 0.5590551181102362,
                    "duration": 0.1597059999999999
                },
                {
                    "name": "G5",
                    "midi": 79,
                    "time": 122.81391400000008,
                    "velocity": 0.5433070866141733,
                    "duration": 0.1597059999999999
                },
                {
                    "name": "F5",
                    "midi": 77,
                    "time": 122.97362000000008,
                    "velocity": 0.5433070866141733,
                    "duration": 0.1597059999999999
                },
                {
                    "name": "D#5",
                    "midi": 75,
                    "time": 123.13332600000008,
                    "velocity": 0.5590551181102362,
                    "duration": 0.23955899999999986
                },
                {
                    "name": "F5",
                    "midi": 77,
                    "time": 123.37288500000008,
                    "velocity": 0.5511811023622047,
                    "duration": 0.23955899999999986
                },
                {
                    "name": "G4",
                    "midi": 67,
                    "time": 123.61244400000008,
                    "velocity": 0.4330708661417323,
                    "duration": 1.4373540000000133
                },
                {
                    "name": "C#5",
                    "midi": 73,
                    "time": 123.61244400000008,
                    "velocity": 0.5590551181102362,
                    "duration": 0.3593385000000069
                },
                {
                    "name": "D#5",
                    "midi": 75,
                    "time": 123.97178250000009,
                    "velocity": 0.5196850393700787,
                    "duration": 0.11977950000000703
                },
                {
                    "name": "G5",
                    "midi": 79,
                    "time": 124.0915620000001,
                    "velocity": 0.5590551181102362,
                    "duration": 0.1597059999999999
                },
                {
                    "name": "F5",
                    "midi": 77,
                    "time": 124.2512680000001,
                    "velocity": 0.5433070866141733,
                    "duration": 0.1597059999999999
                },
                {
                    "name": "D#5",
                    "midi": 75,
                    "time": 124.4109740000001,
                    "velocity": 0.5433070866141733,
                    "duration": 0.1597059999999999
                },
                {
                    "name": "C#5",
                    "midi": 73,
                    "time": 124.5706800000001,
                    "velocity": 0.5590551181102362,
                    "duration": 0.23955899999999986
                },
                {
                    "name": "D#5",
                    "midi": 75,
                    "time": 124.8102390000001,
                    "velocity": 0.5511811023622047,
                    "duration": 0.23955899999999986
                },
                {
                    "name": "C4",
                    "midi": 60,
                    "time": 125.0497980000001,
                    "velocity": 0.4330708661417323,
                    "duration": 1.4373539999999991
                },
                {
                    "name": "D#4",
                    "midi": 63,
                    "time": 125.0497980000001,
                    "velocity": 0.4330708661417323,
                    "duration": 1.4373539999999991
                },
                {
                    "name": "C5",
                    "midi": 72,
                    "time": 125.0497980000001,
                    "velocity": 0.48031496062992124,
                    "duration": 1.4373539999999991
                },
                {
                    "name": "C4",
                    "midi": 60,
                    "time": 126.4871520000001,
                    "velocity": 0.4330708661417323,
                    "duration": 1.4373539999999991
                },
                {
                    "name": "E4",
                    "midi": 64,
                    "time": 126.4871520000001,
                    "velocity": 0.4330708661417323,
                    "duration": 1.4373539999999991
                },
                {
                    "name": "C5",
                    "midi": 72,
                    "time": 126.4871520000001,
                    "velocity": 0.48031496062992124,
                    "duration": 1.4373539999999991
                },
                {
                    "name": "C4",
                    "midi": 60,
                    "time": 127.9245060000001,
                    "velocity": 0.4015748031496063,
                    "duration": 1.4373540000000844
                },
                {
                    "name": "F4",
                    "midi": 65,
                    "time": 127.9245060000001,
                    "velocity": 0.4015748031496063,
                    "duration": 1.4373540000000844
                },
                {
                    "name": "G#4",
                    "midi": 68,
                    "time": 127.9245060000001,
                    "velocity": 0.5196850393700787,
                    "duration": 0.23955900000001407
                },
                {
                    "name": "A#4",
                    "midi": 70,
                    "time": 128.1640650000001,
                    "velocity": 0.48031496062992124,
                    "duration": 0.23955900000001407
                },
                {
                    "name": "G#4",
                    "midi": 68,
                    "time": 128.40362400000012,
                    "velocity": 0.5196850393700787,
                    "duration": 0.23955900000001407
                },
                {
                    "name": "A#4",
                    "midi": 70,
                    "time": 128.64318300000014,
                    "velocity": 0.4881889763779528,
                    "duration": 0.23955900000001407
                },
                {
                    "name": "C5",
                    "midi": 72,
                    "time": 128.88274200000015,
                    "velocity": 0.5196850393700787,
                    "duration": 0.23955900000001407
                },
                {
                    "name": "C#5",
                    "midi": 73,
                    "time": 129.12230100000016,
                    "velocity": 0.4881889763779528,
                    "duration": 0.23955900000001407
                },
                {
                    "name": "F4",
                    "midi": 65,
                    "time": 129.36186000000018,
                    "velocity": 0.4015748031496063,
                    "duration": 1.437354000000056
                },
                {
                    "name": "A#4",
                    "midi": 70,
                    "time": 129.36186000000018,
                    "velocity": 0.5669291338582677,
                    "duration": 0.23955900000001407
                },
                {
                    "name": "C5",
                    "midi": 72,
                    "time": 129.6014190000002,
                    "velocity": 0.49606299212598426,
                    "duration": 0.23955900000001407
                },
                {
                    "name": "A#4",
                    "midi": 70,
                    "time": 129.8409780000002,
                    "velocity": 0.5511811023622047,
                    "duration": 0.23955900000001407
                },
                {
                    "name": "C5",
                    "midi": 72,
                    "time": 130.08053700000022,
                    "velocity": 0.5196850393700787,
                    "duration": 0.23955900000001407
                },
                {
                    "name": "C#5",
                    "midi": 73,
                    "time": 130.32009600000023,
                    "velocity": 0.5039370078740157,
                    "duration": 0.1597059999999999
                },
                {
                    "name": "D#5",
                    "midi": 75,
                    "time": 130.47980200000023,
                    "velocity": 0.5511811023622047,
                    "duration": 0.1597059999999999
                },
                {
                    "name": "F5",
                    "midi": 77,
                    "time": 130.63950800000023,
                    "velocity": 0.5748031496062992,
                    "duration": 0.1597059999999999
                },
                {
                    "name": "F4",
                    "midi": 65,
                    "time": 130.79921400000023,
                    "velocity": 0.4645669291338583,
                    "duration": 0.4791179999999997
                },
                {
                    "name": "A#4",
                    "midi": 70,
                    "time": 130.79921400000023,
                    "velocity": 0.4566929133858268,
                    "duration": 1.4373539999999991
                },
                {
                    "name": "G5",
                    "midi": 79,
                    "time": 130.79921400000023,
                    "velocity": 0.6141732283464567,
                    "duration": 1.4373539999999991
                },
                {
                    "name": "E4",
                    "midi": 64,
                    "time": 131.27833200000023,
                    "velocity": 0.4645669291338583,
                    "duration": 0.9582359999999994
                },
                {
                    "name": "A4",
                    "midi": 69,
                    "time": 132.23656800000023,
                    "velocity": 0.5354330708661418,
                    "duration": 1.896508750000038
                },
                {
                    "name": "E5",
                    "midi": 76,
                    "time": 132.23656800000023,
                    "velocity": 0.6535433070866141,
                    "duration": 0.3593385000000069
                },
                {
                    "name": "F5",
                    "midi": 77,
                    "time": 132.59590650000024,
                    "velocity": 0.6062992125984252,
                    "duration": 0.11977949999999282
                },
                {
                    "name": "A5",
                    "midi": 81,
                    "time": 132.71568600000023,
                    "velocity": 0.5748031496062992,
                    "duration": 0.1597059999999999
                },
                {
                    "name": "G5",
                    "midi": 79,
                    "time": 132.87539200000023,
                    "velocity": 0.5826771653543307,
                    "duration": 0.1597059999999999
                },
                {
                    "name": "F5",
                    "midi": 77,
                    "time": 133.03509800000023,
                    "velocity": 0.5748031496062992,
                    "duration": 0.1597059999999999
                },
                {
                    "name": "E5",
                    "midi": 76,
                    "time": 133.19480400000023,
                    "velocity": 0.6062992125984252,
                    "duration": 0.23955900000001407
                },
                {
                    "name": "F5",
                    "midi": 77,
                    "time": 133.43436300000025,
                    "velocity": 0.5905511811023622,
                    "duration": 0.23955900000001407
                },
                {
                    "name": "D5",
                    "midi": 74,
                    "time": 133.67392200000026,
                    "velocity": 0.6141732283464567,
                    "duration": 0.4591547500000104
                },
                {
                    "name": "A4",
                    "midi": 69,
                    "time": 134.15304000000026,
                    "velocity": 0.49606299212598426,
                    "duration": 0.9582359999999994
                },
                {
                    "name": "A5",
                    "midi": 81,
                    "time": 134.15304000000026,
                    "velocity": 0.6614173228346457,
                    "duration": 0.9582359999999994
                },
                {
                    "name": "G4",
                    "midi": 67,
                    "time": 135.11127600000026,
                    "velocity": 0.5354330708661418,
                    "duration": 0.9582359999999994
                },
                {
                    "name": "D5",
                    "midi": 74,
                    "time": 135.11127600000026,
                    "velocity": 0.6614173228346457,
                    "duration": 0.3593385000000069
                },
                {
                    "name": "E5",
                    "midi": 76,
                    "time": 135.47061450000027,
                    "velocity": 0.5748031496062992,
                    "duration": 0.11977949999999282
                },
                {
                    "name": "G5",
                    "midi": 79,
                    "time": 135.59039400000026,
                    "velocity": 0.5748031496062992,
                    "duration": 0.1597059999999999
                },
                {
                    "name": "F5",
                    "midi": 77,
                    "time": 135.75010000000026,
                    "velocity": 0.5748031496062992,
                    "duration": 0.1597059999999999
                },
                {
                    "name": "E5",
                    "midi": 76,
                    "time": 135.90980600000026,
                    "velocity": 0.5669291338582677,
                    "duration": 0.1597059999999999
                },
                {
                    "name": "G4",
                    "midi": 67,
                    "time": 136.06951200000026,
                    "velocity": 0.4881889763779528,
                    "duration": 0.47911800000002813
                },
                {
                    "name": "D5",
                    "midi": 74,
                    "time": 136.06951200000026,
                    "velocity": 0.6141732283464567,
                    "duration": 0.23955900000001407
                },
                {
                    "name": "E5",
                    "midi": 76,
                    "time": 136.30907100000027,
                    "velocity": 0.5826771653543307,
                    "duration": 0.23955900000001407
                },
                {
                    "name": "G4",
                    "midi": 67,
                    "time": 136.5486300000003,
                    "velocity": 0.5354330708661418,
                    "duration": 0.9582360000000563
                },
                {
                    "name": "D5",
                    "midi": 74,
                    "time": 136.5486300000003,
                    "velocity": 0.6062992125984252,
                    "duration": 0.23955900000001407
                },
                {
                    "name": "E5",
                    "midi": 76,
                    "time": 136.5486300000003,
                    "velocity": 0.5590551181102362,
                    "duration": 0.9582360000000563
                },
                {
                    "name": "C#5",
                    "midi": 73,
                    "time": 136.7881890000003,
                    "velocity": 0.5039370078740157,
                    "duration": 0.23955900000001407
                },
                {
                    "name": "B4",
                    "midi": 71,
                    "time": 137.02774800000032,
                    "velocity": 0.5433070866141733,
                    "duration": 0.23955900000001407
                },
                {
                    "name": "C#5",
                    "midi": 73,
                    "time": 137.26730700000033,
                    "velocity": 0.4881889763779528,
                    "duration": 0.23955900000001407
                },
                {
                    "name": "B4",
                    "midi": 71,
                    "time": 137.50686600000034,
                    "velocity": 0.5433070866141733,
                    "duration": 0.23955900000001407
                },
                {
                    "name": "A4",
                    "midi": 69,
                    "time": 137.74642500000036,
                    "velocity": 0.4881889763779528,
                    "duration": 0.23955900000001407
                },
                {
                    "name": "A4",
                    "midi": 69,
                    "time": 137.98598400000037,
                    "velocity": 0.5354330708661418,
                    "duration": 1.9164720000000273
                },
                {
                    "name": "E5",
                    "midi": 76,
                    "time": 137.98598400000037,
                    "velocity": 0.6614173228346457,
                    "duration": 0.3593385000000069
                },
                {
                    "name": "F5",
                    "midi": 77,
                    "time": 138.34532250000038,
                    "velocity": 0.6062992125984252,
                    "duration": 0.11977949999999282
                },
                {
                    "name": "A5",
                    "midi": 81,
                    "time": 138.46510200000037,
                    "velocity": 0.5905511811023622,
                    "duration": 0.1597059999999999
                },
                {
                    "name": "G5",
                    "midi": 79,
                    "time": 138.62480800000037,
                    "velocity": 0.5748031496062992,
                    "duration": 0.1597059999999999
                },
                {
                    "name": "F5",
                    "midi": 77,
                    "time": 138.78451400000037,
                    "velocity": 0.5669291338582677,
                    "duration": 0.1597059999999999
                },
                {
                    "name": "E5",
                    "midi": 76,
                    "time": 138.94422000000037,
                    "velocity": 0.5905511811023622,
                    "duration": 0.23955900000001407
                },
                {
                    "name": "F5",
                    "midi": 77,
                    "time": 139.18377900000038,
                    "velocity": 0.5826771653543307,
                    "duration": 0.23955900000001407
                },
                {
                    "name": "D5",
                    "midi": 74,
                    "time": 139.4233380000004,
                    "velocity": 0.6141732283464567,
                    "duration": 0.4491731249999873
                },
                {
                    "name": "A4",
                    "midi": 69,
                    "time": 139.9024560000004,
                    "velocity": 0.5748031496062992,
                    "duration": 0.9582359999999994
                },
                {
                    "name": "A5",
                    "midi": 81,
                    "time": 139.9024560000004,
                    "velocity": 0.6299212598425197,
                    "duration": 0.9582359999999994
                },
                {
                    "name": "F4",
                    "midi": 65,
                    "time": 140.8606920000004,
                    "velocity": 0.44881889763779526,
                    "duration": 1.4373540000000276
                },
                {
                    "name": "G4",
                    "midi": 67,
                    "time": 140.8606920000004,
                    "velocity": 0.44881889763779526,
                    "duration": 1.4373540000000276
                },
                {
                    "name": "D5",
                    "midi": 74,
                    "time": 140.8606920000004,
                    "velocity": 0.5590551181102362,
                    "duration": 0.3593385000000069
                },
                {
                    "name": "E5",
                    "midi": 76,
                    "time": 141.2200305000004,
                    "velocity": 0.4881889763779528,
                    "duration": 0.11977949999999282
                },
                {
                    "name": "G5",
                    "midi": 79,
                    "time": 141.3398100000004,
                    "velocity": 0.5275590551181102,
                    "duration": 0.1597059999999999
                },
                {
                    "name": "F5",
                    "midi": 77,
                    "time": 141.4995160000004,
                    "velocity": 0.4881889763779528,
                    "duration": 0.1597059999999999
                },
                {
                    "name": "E5",
                    "midi": 76,
                    "time": 141.6592220000004,
                    "velocity": 0.47244094488188976,
                    "duration": 0.1597059999999999
                },
                {
                    "name": "D5",
                    "midi": 74,
                    "time": 141.8189280000004,
                    "velocity": 0.4881889763779528,
                    "duration": 0.23955900000001407
                },
                {
                    "name": "E5",
                    "midi": 76,
                    "time": 142.0584870000004,
                    "velocity": 0.4566929133858268,
                    "duration": 0.23955900000001407
                },
                {
                    "name": "A4",
                    "midi": 69,
                    "time": 142.29804600000043,
                    "velocity": 0.3700787401574803,
                    "duration": 1.4373540000000844
                },
                {
                    "name": "F4",
                    "midi": 65,
                    "time": 142.29804600000043,
                    "velocity": 0.3700787401574803,
                    "duration": 1.4373540000000844
                },
                {
                    "name": "C5",
                    "midi": 72,
                    "time": 142.29804600000043,
                    "velocity": 0.44881889763779526,
                    "duration": 0.23955900000001407
                },
                {
                    "name": "D5",
                    "midi": 74,
                    "time": 142.53760500000044,
                    "velocity": 0.4015748031496063,
                    "duration": 0.23955900000001407
                },
                {
                    "name": "C5",
                    "midi": 72,
                    "time": 142.77716400000045,
                    "velocity": 0.4645669291338583,
                    "duration": 0.23955900000001407
                },
                {
                    "name": "D5",
                    "midi": 74,
                    "time": 143.01672300000047,
                    "velocity": 0.41732283464566927,
                    "duration": 0.23955900000001407
                },
                {
                    "name": "E5",
                    "midi": 76,
                    "time": 143.25628200000048,
                    "velocity": 0.4645669291338583,
                    "duration": 0.23955900000001407
                },
                {
                    "name": "F5",
                    "midi": 77,
                    "time": 143.4958410000005,
                    "velocity": 0.4330708661417323,
                    "duration": 0.23955900000001407
                },
                {
                    "name": "E4",
                    "midi": 64,
                    "time": 143.7354000000005,
                    "velocity": 0.3937007874015748,
                    "duration": 1.4373540000000276
                },
                {
                    "name": "A#4",
                    "midi": 70,
                    "time": 143.7354000000005,
                    "velocity": 0.44881889763779526,
                    "duration": 0.3593385000000069
                },
                {
                    "name": "C5",
                    "midi": 72,
                    "time": 144.09473850000052,
                    "velocity": 0.4094488188976378,
                    "duration": 0.11977949999999282
                },
                {
                    "name": "E5",
                    "midi": 76,
                    "time": 144.2145180000005,
                    "velocity": 0.44881889763779526,
                    "duration": 0.1597059999999999
                },
                {
                    "name": "D5",
                    "midi": 74,
                    "time": 144.3742240000005,
                    "velocity": 0.41732283464566927,
                    "duration": 0.1597059999999999
                },
                {
                    "name": "C5",
                    "midi": 72,
                    "time": 144.5339300000005,
                    "velocity": 0.41732283464566927,
                    "duration": 0.1597059999999999
                },
                {
                    "name": "A#4",
                    "midi": 70,
                    "time": 144.6936360000005,
                    "velocity": 0.44881889763779526,
                    "duration": 0.23955900000001407
                },
                {
                    "name": "C5",
                    "midi": 72,
                    "time": 144.93319500000052,
                    "velocity": 0.4330708661417323,
                    "duration": 0.23955900000001407
                },
                {
                    "name": "D#4",
                    "midi": 63,
                    "time": 145.17275400000054,
                    "velocity": 0.33070866141732286,
                    "duration": 1.4373539999999991
                },
                {
                    "name": "A4",
                    "midi": 69,
                    "time": 145.17275400000054,
                    "velocity": 0.3779527559055118,
                    "duration": 1.4373539999999991
                },
                {
                    "name": "A4",
                    "midi": 69,
                    "time": 146.61010800000054,
                    "velocity": 0.4094488188976378,
                    "duration": 0.4791179999999997
                },
                {
                    "name": "D4",
                    "midi": 62,
                    "time": 146.61010800000054,
                    "velocity": 0.4330708661417323,
                    "duration": 0.3593385000000069
                },
                {
                    "name": "E4",
                    "midi": 64,
                    "time": 146.96944650000054,
                    "velocity": 0.41732283464566927,
                    "duration": 0.11977949999999282
                },
                {
                    "name": "G4",
                    "midi": 67,
                    "time": 147.08922600000054,
                    "velocity": 0.44881889763779526,
                    "duration": 0.4791179999999997
                },
                {
                    "name": "F4",
                    "midi": 65,
                    "time": 147.24893200000054,
                    "velocity": 0.41732283464566927,
                    "duration": 0.1597059999999999
                },
                {
                    "name": "E4",
                    "midi": 64,
                    "time": 147.40863800000054,
                    "velocity": 0.3937007874015748,
                    "duration": 0.1597059999999999
                },
                {
                    "name": "D5",
                    "midi": 74,
                    "time": 147.56834400000054,
                    "velocity": 0.47244094488188976,
                    "duration": 0.9582359999999994
                },
                {
                    "name": "A3",
                    "midi": 57,
                    "time": 148.04746200000054,
                    "velocity": 0.3700787401574803,
                    "duration": 1.4373539999999991
                },
                {
                    "name": "F4",
                    "midi": 65,
                    "time": 148.04746200000054,
                    "velocity": 0.3700787401574803,
                    "duration": 0.9582359999999994
                },
                {
                    "name": "F4",
                    "midi": 65,
                    "time": 148.52658000000054,
                    "velocity": 0.47244094488188976,
                    "duration": 0.9582359999999994
                },
                {
                    "name": "C5",
                    "midi": 72,
                    "time": 149.00569800000054,
                    "velocity": 0.47244094488188976,
                    "duration": 0.9582359999999994
                },
                {
                    "name": "A#4",
                    "midi": 70,
                    "time": 149.96393400000053,
                    "velocity": 0.47244094488188976,
                    "duration": 0.4791179999999997
                },
                {
                    "name": "E4",
                    "midi": 64,
                    "time": 150.44305200000053,
                    "velocity": 0.47244094488188976,
                    "duration": 0.4791179999999997
                },
                {
                    "name": "C5",
                    "midi": 72,
                    "time": 150.44305200000053,
                    "velocity": 0.47244094488188976,
                    "duration": 0.4791179999999997
                },
                {
                    "name": "F4",
                    "midi": 65,
                    "time": 150.92217000000053,
                    "velocity": 0.33070866141732286,
                    "duration": 1.4373539999999991
                },
                {
                    "name": "C5",
                    "midi": 72,
                    "time": 150.92217000000053,
                    "velocity": 0.3779527559055118,
                    "duration": 1.4373539999999991
                },
                {
                    "name": "G5",
                    "midi": 79,
                    "time": 152.35952400000053,
                    "velocity": 0.44881889763779526,
                    "duration": 0.3593385000000069
                },
                {
                    "name": "A5",
                    "midi": 81,
                    "time": 152.71886250000054,
                    "velocity": 0.4094488188976378,
                    "duration": 0.11977949999999282
                },
                {
                    "name": "C6",
                    "midi": 84,
                    "time": 152.83864200000053,
                    "velocity": 0.44881889763779526,
                    "duration": 0.1597059999999999
                },
                {
                    "name": "A#5",
                    "midi": 82,
                    "time": 152.99834800000053,
                    "velocity": 0.41732283464566927,
                    "duration": 0.1597059999999999
                },
                {
                    "name": "A5",
                    "midi": 81,
                    "time": 153.15805400000053,
                    "velocity": 0.41732283464566927,
                    "duration": 0.1597059999999999
                },
                {
                    "name": "G5",
                    "midi": 79,
                    "time": 153.31776000000053,
                    "velocity": 0.44881889763779526,
                    "duration": 0.23955900000001407
                },
                {
                    "name": "A5",
                    "midi": 81,
                    "time": 153.55731900000055,
                    "velocity": 0.4330708661417323,
                    "duration": 0.23955900000001407
                },
                {
                    "name": "F5",
                    "midi": 77,
                    "time": 153.79687800000056,
                    "velocity": 0.44881889763779526,
                    "duration": 0.23955900000001407
                },
                {
                    "name": "G5",
                    "midi": 79,
                    "time": 154.03643700000057,
                    "velocity": 0.4015748031496063,
                    "duration": 0.23955900000001407
                },
                {
                    "name": "F5",
                    "midi": 77,
                    "time": 154.2759960000006,
                    "velocity": 0.4645669291338583,
                    "duration": 0.23955900000001407
                },
                {
                    "name": "G5",
                    "midi": 79,
                    "time": 154.5155550000006,
                    "velocity": 0.41732283464566927,
                    "duration": 0.23955900000001407
                },
                {
                    "name": "A5",
                    "midi": 81,
                    "time": 154.75511400000062,
                    "velocity": 0.4645669291338583,
                    "duration": 0.23955900000001407
                },
                {
                    "name": "A#5",
                    "midi": 82,
                    "time": 154.99467300000063,
                    "velocity": 0.4330708661417323,
                    "duration": 0.23955900000001407
                },
                {
                    "name": "D5",
                    "midi": 74,
                    "time": 155.23423200000065,
                    "velocity": 0.44881889763779526,
                    "duration": 0.3593385000000069
                },
                {
                    "name": "E5",
                    "midi": 76,
                    "time": 155.59357050000065,
                    "velocity": 0.4094488188976378,
                    "duration": 0.11977949999999282
                },
                {
                    "name": "G5",
                    "midi": 79,
                    "time": 155.71335000000064,
                    "velocity": 0.44881889763779526,
                    "duration": 0.1597059999999999
                },
                {
                    "name": "F5",
                    "midi": 77,
                    "time": 155.87305600000064,
                    "velocity": 0.41732283464566927,
                    "duration": 0.1597059999999999
                },
                {
                    "name": "E5",
                    "midi": 76,
                    "time": 156.03276200000064,
                    "velocity": 0.41732283464566927,
                    "duration": 0.1597059999999999
                },
                {
                    "name": "D5",
                    "midi": 74,
                    "time": 156.19246800000064,
                    "velocity": 0.44881889763779526,
                    "duration": 0.23955900000001407
                },
                {
                    "name": "E5",
                    "midi": 76,
                    "time": 156.43202700000066,
                    "velocity": 0.4330708661417323,
                    "duration": 0.23955900000001407
                },
                {
                    "name": "C5",
                    "midi": 72,
                    "time": 156.67158600000067,
                    "velocity": 0.44881889763779526,
                    "duration": 1.4373539999999991
                },
                {
                    "name": "F5",
                    "midi": 77,
                    "time": 156.67158600000067,
                    "velocity": 0.44881889763779526,
                    "duration": 1.4373539999999991
                },
                {
                    "name": "F4",
                    "midi": 65,
                    "time": 158.10894000000067,
                    "velocity": 0.3937007874015748,
                    "duration": 1.4373539999999991
                },
                {
                    "name": "A#4",
                    "midi": 70,
                    "time": 158.10894000000067,
                    "velocity": 0.3937007874015748,
                    "duration": 1.4373539999999991
                },
                {
                    "name": "F5",
                    "midi": 77,
                    "time": 158.10894000000067,
                    "velocity": 0.44881889763779526,
                    "duration": 1.4373539999999991
                },
                {
                    "name": "C6",
                    "midi": 84,
                    "time": 159.54629400000067,
                    "velocity": 0.44881889763779526,
                    "duration": 1.4373539999999991
                },
                {
                    "name": "C5",
                    "midi": 72,
                    "time": 159.54629400000067,
                    "velocity": 0.3937007874015748,
                    "duration": 1.4373539999999991
                },
                {
                    "name": "F5",
                    "midi": 77,
                    "time": 159.54629400000067,
                    "velocity": 0.3937007874015748,
                    "duration": 1.4373539999999991
                },
                {
                    "name": "F6",
                    "midi": 89,
                    "time": 160.98364800000067,
                    "velocity": 0.4409448818897638,
                    "duration": 1.4373539999999991
                },
                {
                    "name": "A#5",
                    "midi": 82,
                    "time": 160.98364800000067,
                    "velocity": 0.3858267716535433,
                    "duration": 1.4373539999999991
                },
                {
                    "name": "F5",
                    "midi": 77,
                    "time": 160.98364800000067,
                    "velocity": 0.3858267716535433,
                    "duration": 1.4373539999999991
                },
                {
                    "name": "C7",
                    "midi": 96,
                    "time": 162.42100200000067,
                    "velocity": 0.4330708661417323,
                    "duration": 1.9164719999999988
                },
                {
                    "name": "F6",
                    "midi": 89,
                    "time": 162.42100200000067,
                    "velocity": 0.3858267716535433,
                    "duration": 1.9164719999999988
                },
                {
                    "name": "C6",
                    "midi": 84,
                    "time": 162.42100200000067,
                    "velocity": 0.3858267716535433,
                    "duration": 1.9164719999999988
                }
            ],
            "controlChanges": {
                "7": [
                    {
                        "number": 7,
                        "time": 0,
                        "value": 0.7874015748031497
                    }
                ],
                "91": [
                    {
                        "number": 91,
                        "time": 0,
                        "value": 1
                    }
                ]
            },
            "id": 1,
            "name": "Piano right",
            "instrumentNumber": 0,
            "instrument": "acoustic grand piano",
            "instrumentFamily": "piano",
            "channelNumber": 0,
            "isPercussion": false
        },
        {
            "startTime": 0,
            "duration": 165.53526900000045,
            "length": 492,
            "notes": [
                {
                    "name": "C3",
                    "midi": 48,
                    "time": 0,
                    "velocity": 0.3779527559055118,
                    "duration": 0.9582359999999999
                },
                {
                    "name": "F2",
                    "midi": 41,
                    "time": 0,
                    "velocity": 0.3464566929133858,
                    "duration": 1.437354
                },
                {
                    "name": "C#3",
                    "midi": 49,
                    "time": 0.9582359999999999,
                    "velocity": 0.3543307086614173,
                    "duration": 0.47911800000000015
                },
                {
                    "name": "D3",
                    "midi": 50,
                    "time": 1.437354,
                    "velocity": 0.3779527559055118,
                    "duration": 0.9582359999999999
                },
                {
                    "name": "F2",
                    "midi": 41,
                    "time": 1.437354,
                    "velocity": 0.3464566929133858,
                    "duration": 1.437354
                },
                {
                    "name": "C#3",
                    "midi": 49,
                    "time": 2.39559,
                    "velocity": 0.30708661417322836,
                    "duration": 0.47911800000000015
                },
                {
                    "name": "D3",
                    "midi": 50,
                    "time": 2.874708,
                    "velocity": 0.3779527559055118,
                    "duration": 0.4791179999999997
                },
                {
                    "name": "A#2",
                    "midi": 46,
                    "time": 2.874708,
                    "velocity": 0.3464566929133858,
                    "duration": 1.437354
                },
                {
                    "name": "E3",
                    "midi": 52,
                    "time": 3.3538259999999998,
                    "velocity": 0.3779527559055118,
                    "duration": 1.437354
                },
                {
                    "name": "A2",
                    "midi": 45,
                    "time": 4.312062,
                    "velocity": 0.3464566929133858,
                    "duration": 0.9582359999999994
                },
                {
                    "name": "G3",
                    "midi": 55,
                    "time": 4.79118,
                    "velocity": 0.3543307086614173,
                    "duration": 0.4791179999999997
                },
                {
                    "name": "A2",
                    "midi": 45,
                    "time": 5.2702979999999995,
                    "velocity": 0.3543307086614173,
                    "duration": 0.4791179999999997
                },
                {
                    "name": "C3",
                    "midi": 48,
                    "time": 5.749415999999999,
                    "velocity": 0.3779527559055118,
                    "duration": 0.9582360000000003
                },
                {
                    "name": "F2",
                    "midi": 41,
                    "time": 5.749415999999999,
                    "velocity": 0.3464566929133858,
                    "duration": 1.437354
                },
                {
                    "name": "C#3",
                    "midi": 49,
                    "time": 6.7076519999999995,
                    "velocity": 0.3543307086614173,
                    "duration": 0.4791179999999997
                },
                {
                    "name": "D3",
                    "midi": 50,
                    "time": 7.186769999999999,
                    "velocity": 0.3779527559055118,
                    "duration": 0.9582359999999994
                },
                {
                    "name": "F2",
                    "midi": 41,
                    "time": 7.186769999999999,
                    "velocity": 0.3464566929133858,
                    "duration": 1.4373539999999991
                },
                {
                    "name": "E3",
                    "midi": 52,
                    "time": 8.145005999999999,
                    "velocity": 0.30708661417322836,
                    "duration": 0.4791179999999997
                },
                {
                    "name": "F3",
                    "midi": 53,
                    "time": 8.624123999999998,
                    "velocity": 0.3700787401574803,
                    "duration": 0.4791179999999997
                },
                {
                    "name": "G3",
                    "midi": 55,
                    "time": 9.103241999999998,
                    "velocity": 0.41732283464566927,
                    "duration": 0.4791180000000015
                },
                {
                    "name": "F3",
                    "midi": 53,
                    "time": 9.58236,
                    "velocity": 0.3937007874015748,
                    "duration": 0.47911799999999793
                },
                {
                    "name": "E3",
                    "midi": 52,
                    "time": 10.061477999999997,
                    "velocity": 0.3464566929133858,
                    "duration": 0.4791179999999997
                },
                {
                    "name": "A3",
                    "midi": 57,
                    "time": 10.540595999999997,
                    "velocity": 0.4015748031496063,
                    "duration": 0.4791179999999997
                },
                {
                    "name": "G3",
                    "midi": 55,
                    "time": 11.019713999999997,
                    "velocity": 0.3700787401574803,
                    "duration": 0.4791179999999997
                },
                {
                    "name": "D3",
                    "midi": 50,
                    "time": 11.498831999999997,
                    "velocity": 0.3700787401574803,
                    "duration": 0.4791179999999997
                },
                {
                    "name": "G3",
                    "midi": 55,
                    "time": 11.977949999999996,
                    "velocity": 0.41732283464566927,
                    "duration": 0.4791180000000015
                },
                {
                    "name": "D3",
                    "midi": 50,
                    "time": 12.457067999999998,
                    "velocity": 0.3700787401574803,
                    "duration": 0.9582359999999976
                },
                {
                    "name": "G#3",
                    "midi": 56,
                    "time": 12.936185999999996,
                    "velocity": 0.3937007874015748,
                    "duration": 0.9582359999999994
                },
                {
                    "name": "D3",
                    "midi": 50,
                    "time": 13.415303999999995,
                    "velocity": 0.3700787401574803,
                    "duration": 0.4791179999999997
                },
                {
                    "name": "C3",
                    "midi": 48,
                    "time": 13.894421999999995,
                    "velocity": 0.2992125984251969,
                    "duration": 0.4791180000000015
                },
                {
                    "name": "A3",
                    "midi": 57,
                    "time": 13.894421999999995,
                    "velocity": 0.3543307086614173,
                    "duration": 0.4791180000000015
                },
                {
                    "name": "F3",
                    "midi": 53,
                    "time": 14.373539999999997,
                    "velocity": 0.3543307086614173,
                    "duration": 1.4373539999999991
                },
                {
                    "name": "A3",
                    "midi": 57,
                    "time": 14.373539999999997,
                    "velocity": 0.44881889763779526,
                    "duration": 0.3593384999999998
                },
                {
                    "name": "B3",
                    "midi": 59,
                    "time": 14.732878499999996,
                    "velocity": 0.41732283464566927,
                    "duration": 0.11977949999999993
                },
                {
                    "name": "D4",
                    "midi": 62,
                    "time": 14.852657999999996,
                    "velocity": 0.4409448818897638,
                    "duration": 0.1597059999999999
                },
                {
                    "name": "C4",
                    "midi": 60,
                    "time": 15.012363999999996,
                    "velocity": 0.4330708661417323,
                    "duration": 0.1597059999999999
                },
                {
                    "name": "B3",
                    "midi": 59,
                    "time": 15.172069999999996,
                    "velocity": 0.4330708661417323,
                    "duration": 0.1597059999999999
                },
                {
                    "name": "A3",
                    "midi": 57,
                    "time": 15.331775999999996,
                    "velocity": 0.44881889763779526,
                    "duration": 0.23955899999999986
                },
                {
                    "name": "B3",
                    "midi": 59,
                    "time": 15.571334999999996,
                    "velocity": 0.4409448818897638,
                    "duration": 0.23955899999999986
                },
                {
                    "name": "E3",
                    "midi": 52,
                    "time": 15.810893999999996,
                    "velocity": 0.3228346456692913,
                    "duration": 1.4373539999999974
                },
                {
                    "name": "G3",
                    "midi": 55,
                    "time": 15.810893999999996,
                    "velocity": 0.4330708661417323,
                    "duration": 0.23955899999999808
                },
                {
                    "name": "A3",
                    "midi": 57,
                    "time": 16.050452999999994,
                    "velocity": 0.4094488188976378,
                    "duration": 0.23955899999999986
                },
                {
                    "name": "G3",
                    "midi": 55,
                    "time": 16.290011999999994,
                    "velocity": 0.4645669291338583,
                    "duration": 0.23955899999999986
                },
                {
                    "name": "A3",
                    "midi": 57,
                    "time": 16.529570999999994,
                    "velocity": 0.4330708661417323,
                    "duration": 0.23955899999999986
                },
                {
                    "name": "B3",
                    "midi": 59,
                    "time": 16.769129999999993,
                    "velocity": 0.4645669291338583,
                    "duration": 0.23955899999999986
                },
                {
                    "name": "C4",
                    "midi": 60,
                    "time": 17.008688999999993,
                    "velocity": 0.4015748031496063,
                    "duration": 0.23955899999999986
                },
                {
                    "name": "D3",
                    "midi": 50,
                    "time": 17.248247999999993,
                    "velocity": 0.3543307086614173,
                    "duration": 0.9582359999999994
                },
                {
                    "name": "F3",
                    "midi": 53,
                    "time": 17.248247999999993,
                    "velocity": 0.44881889763779526,
                    "duration": 0.3593384999999998
                },
                {
                    "name": "G3",
                    "midi": 55,
                    "time": 17.607586499999993,
                    "velocity": 0.41732283464566927,
                    "duration": 0.11977949999999993
                },
                {
                    "name": "B3",
                    "midi": 59,
                    "time": 17.727365999999993,
                    "velocity": 0.4645669291338583,
                    "duration": 0.1597059999999999
                },
                {
                    "name": "A3",
                    "midi": 57,
                    "time": 17.887071999999993,
                    "velocity": 0.44881889763779526,
                    "duration": 0.1597059999999999
                },
                {
                    "name": "G3",
                    "midi": 55,
                    "time": 18.046777999999993,
                    "velocity": 0.44881889763779526,
                    "duration": 0.1597059999999999
                },
                {
                    "name": "G2",
                    "midi": 43,
                    "time": 18.206483999999993,
                    "velocity": 0.33070866141732286,
                    "duration": 0.4791179999999997
                },
                {
                    "name": "F3",
                    "midi": 53,
                    "time": 18.206483999999993,
                    "velocity": 0.4645669291338583,
                    "duration": 0.23955899999999986
                },
                {
                    "name": "G3",
                    "midi": 55,
                    "time": 18.446042999999992,
                    "velocity": 0.4566929133858268,
                    "duration": 0.23955899999999986
                },
                {
                    "name": "C3",
                    "midi": 48,
                    "time": 18.685601999999992,
                    "velocity": 0.3543307086614173,
                    "duration": 0.9582359999999994
                },
                {
                    "name": "F3",
                    "midi": 53,
                    "time": 18.685601999999992,
                    "velocity": 0.41732283464566927,
                    "duration": 0.23955899999999986
                },
                {
                    "name": "E3",
                    "midi": 52,
                    "time": 18.925160999999992,
                    "velocity": 0.4015748031496063,
                    "duration": 0.23955899999999986
                },
                {
                    "name": "D3",
                    "midi": 50,
                    "time": 19.164719999999992,
                    "velocity": 0.4330708661417323,
                    "duration": 0.23955899999999986
                },
                {
                    "name": "E3",
                    "midi": 52,
                    "time": 19.404278999999992,
                    "velocity": 0.4015748031496063,
                    "duration": 0.23955899999999986
                },
                {
                    "name": "D3",
                    "midi": 50,
                    "time": 19.64383799999999,
                    "velocity": 0.3700787401574803,
                    "duration": 0.2395589999999963
                },
                {
                    "name": "C3",
                    "midi": 48,
                    "time": 19.883396999999988,
                    "velocity": 0.3228346456692913,
                    "duration": 0.23955899999999986
                },
                {
                    "name": "F2",
                    "midi": 41,
                    "time": 20.122955999999988,
                    "velocity": 0.44881889763779526,
                    "duration": 0.3593384999999998
                },
                {
                    "name": "G2",
                    "midi": 43,
                    "time": 20.482294499999988,
                    "velocity": 0.41732283464566927,
                    "duration": 0.1297611250000017
                },
                {
                    "name": "A#2",
                    "midi": 46,
                    "time": 20.602073999999988,
                    "velocity": 0.4409448818897638,
                    "duration": 0.16968762500000523
                },
                {
                    "name": "G#2",
                    "midi": 44,
                    "time": 20.76177999999999,
                    "velocity": 0.4330708661417323,
                    "duration": 0.16968762500000523
                },
                {
                    "name": "G2",
                    "midi": 43,
                    "time": 20.921485999999994,
                    "velocity": 0.4330708661417323,
                    "duration": 0.16968762500000523
                },
                {
                    "name": "F2",
                    "midi": 41,
                    "time": 21.081191999999998,
                    "velocity": 0.44881889763779526,
                    "duration": 0.24954062500000518
                },
                {
                    "name": "G2",
                    "midi": 43,
                    "time": 21.320751,
                    "velocity": 0.4409448818897638,
                    "duration": 0.2395590000000034
                },
                {
                    "name": "D#2",
                    "midi": 39,
                    "time": 21.560310000000005,
                    "velocity": 0.4330708661417323,
                    "duration": 0.4791179999999997
                },
                {
                    "name": "D#3",
                    "midi": 51,
                    "time": 21.560310000000005,
                    "velocity": 0.4645669291338583,
                    "duration": 0.4791179999999997
                },
                {
                    "name": "C3",
                    "midi": 48,
                    "time": 22.039428000000004,
                    "velocity": 0.4330708661417323,
                    "duration": 0.9582359999999959
                },
                {
                    "name": "C4",
                    "midi": 60,
                    "time": 22.039428000000004,
                    "velocity": 0.4645669291338583,
                    "duration": 0.9582359999999959
                },
                {
                    "name": "A#2",
                    "midi": 46,
                    "time": 22.997664,
                    "velocity": 0.4330708661417323,
                    "duration": 0.4791179999999997
                },
                {
                    "name": "A#3",
                    "midi": 58,
                    "time": 22.997664,
                    "velocity": 0.4645669291338583,
                    "duration": 0.4791179999999997
                },
                {
                    "name": "D#2",
                    "midi": 39,
                    "time": 23.476782,
                    "velocity": 0.4330708661417323,
                    "duration": 0.9582359999999994
                },
                {
                    "name": "D#3",
                    "midi": 51,
                    "time": 23.476782,
                    "velocity": 0.4645669291338583,
                    "duration": 0.9582359999999994
                },
                {
                    "name": "G#2",
                    "midi": 44,
                    "time": 24.435018,
                    "velocity": 0.4094488188976378,
                    "duration": 1.4373539999999991
                },
                {
                    "name": "D#3",
                    "midi": 51,
                    "time": 24.435018,
                    "velocity": 0.4645669291338583,
                    "duration": 0.23955899999999986
                },
                {
                    "name": "F3",
                    "midi": 53,
                    "time": 24.674577,
                    "velocity": 0.4330708661417323,
                    "duration": 0.23955899999999986
                },
                {
                    "name": "D#3",
                    "midi": 51,
                    "time": 24.914136,
                    "velocity": 0.4409448818897638,
                    "duration": 0.23955899999999986
                },
                {
                    "name": "F3",
                    "midi": 53,
                    "time": 25.153695,
                    "velocity": 0.4566929133858268,
                    "duration": 0.23955899999999986
                },
                {
                    "name": "G3",
                    "midi": 55,
                    "time": 25.393254,
                    "velocity": 0.48031496062992124,
                    "duration": 0.23955899999999986
                },
                {
                    "name": "G#3",
                    "midi": 56,
                    "time": 25.632813,
                    "velocity": 0.49606299212598426,
                    "duration": 0.1796692499999999
                },
                {
                    "name": "G2",
                    "midi": 43,
                    "time": 25.81248225,
                    "velocity": 0.5039370078740157,
                    "duration": 0.41922824999999975
                },
                {
                    "name": "A#3",
                    "midi": 58,
                    "time": 25.872372,
                    "velocity": 0.49606299212598426,
                    "duration": 0.4791179999999997
                },
                {
                    "name": "G#2",
                    "midi": 44,
                    "time": 26.2317105,
                    "velocity": 0.48031496062992124,
                    "duration": 0.11977949999999993
                },
                {
                    "name": "C3",
                    "midi": 48,
                    "time": 26.35149,
                    "velocity": 0.5039370078740157,
                    "duration": 0.16968762500000167
                },
                {
                    "name": "A#2",
                    "midi": 46,
                    "time": 26.511195999999998,
                    "velocity": 0.4881889763779528,
                    "duration": 0.16968762500000523
                },
                {
                    "name": "G#2",
                    "midi": 44,
                    "time": 26.670902,
                    "velocity": 0.4881889763779528,
                    "duration": 0.16968762500000523
                },
                {
                    "name": "G2",
                    "midi": 43,
                    "time": 26.830608000000005,
                    "velocity": 0.5039370078740157,
                    "duration": 0.24954062500000518
                },
                {
                    "name": "G#2",
                    "midi": 44,
                    "time": 27.07016700000001,
                    "velocity": 0.49606299212598426,
                    "duration": 0.2395590000000034
                },
                {
                    "name": "F2",
                    "midi": 41,
                    "time": 27.309726000000012,
                    "velocity": 0.4645669291338583,
                    "duration": 0.9582359999999994
                },
                {
                    "name": "F3",
                    "midi": 53,
                    "time": 27.309726000000012,
                    "velocity": 0.5196850393700787,
                    "duration": 0.9582359999999994
                },
                {
                    "name": "D#2",
                    "midi": 39,
                    "time": 28.26796200000001,
                    "velocity": 0.4015748031496063,
                    "duration": 0.47911800000000326
                },
                {
                    "name": "D#3",
                    "midi": 51,
                    "time": 28.26796200000001,
                    "velocity": 0.44881889763779526,
                    "duration": 0.47911800000000326
                },
                {
                    "name": "C#2",
                    "midi": 37,
                    "time": 28.747080000000015,
                    "velocity": 0.41732283464566927,
                    "duration": 0.4791179999999997
                },
                {
                    "name": "C#3",
                    "midi": 49,
                    "time": 28.747080000000015,
                    "velocity": 0.47244094488188976,
                    "duration": 0.4791179999999997
                },
                {
                    "name": "G2",
                    "midi": 43,
                    "time": 29.226198000000014,
                    "velocity": 0.44881889763779526,
                    "duration": 0.4791179999999997
                },
                {
                    "name": "G3",
                    "midi": 55,
                    "time": 29.226198000000014,
                    "velocity": 0.49606299212598426,
                    "duration": 0.4791179999999997
                },
                {
                    "name": "C#2",
                    "midi": 37,
                    "time": 29.705316000000014,
                    "velocity": 0.4015748031496063,
                    "duration": 0.47911800000000326
                },
                {
                    "name": "C#3",
                    "midi": 49,
                    "time": 29.705316000000014,
                    "velocity": 0.4566929133858268,
                    "duration": 0.47911800000000326
                },
                {
                    "name": "C2",
                    "midi": 36,
                    "time": 30.184434000000017,
                    "velocity": 0.3937007874015748,
                    "duration": 0.9582359999999994
                },
                {
                    "name": "C3",
                    "midi": 48,
                    "time": 30.184434000000017,
                    "velocity": 0.44881889763779526,
                    "duration": 0.9582359999999994
                },
                {
                    "name": "C4",
                    "midi": 60,
                    "time": 31.142670000000017,
                    "velocity": 0.44881889763779526,
                    "duration": 0.4791179999999997
                },
                {
                    "name": "F1",
                    "midi": 29,
                    "time": 31.621788000000016,
                    "velocity": 0.47244094488188976,
                    "duration": 1.9164719999999988
                },
                {
                    "name": "F2",
                    "midi": 41,
                    "time": 31.621788000000016,
                    "velocity": 0.5354330708661418,
                    "duration": 1.9164719999999988
                },
                {
                    "name": "C4",
                    "midi": 60,
                    "time": 32.100906000000016,
                    "velocity": 0.5196850393700787,
                    "duration": 0.4791179999999997
                },
                {
                    "name": "C3",
                    "midi": 48,
                    "time": 32.100906000000016,
                    "velocity": 0.4645669291338583,
                    "duration": 0.4791179999999997
                },
                {
                    "name": "C#4",
                    "midi": 61,
                    "time": 32.580024000000016,
                    "velocity": 0.49606299212598426,
                    "duration": 0.4791179999999997
                },
                {
                    "name": "C#3",
                    "midi": 49,
                    "time": 32.580024000000016,
                    "velocity": 0.4409448818897638,
                    "duration": 0.4791179999999997
                },
                {
                    "name": "D4",
                    "midi": 62,
                    "time": 33.059142000000016,
                    "velocity": 0.5354330708661418,
                    "duration": 1.4373539999999991
                },
                {
                    "name": "D3",
                    "midi": 50,
                    "time": 33.059142000000016,
                    "velocity": 0.5354330708661418,
                    "duration": 1.4373539999999991
                },
                {
                    "name": "F1",
                    "midi": 29,
                    "time": 34.017378000000015,
                    "velocity": 0.41732283464566927,
                    "duration": 0.4791179999999997
                },
                {
                    "name": "F2",
                    "midi": 41,
                    "time": 34.017378000000015,
                    "velocity": 0.47244094488188976,
                    "duration": 0.4791179999999997
                },
                {
                    "name": "A#1",
                    "midi": 34,
                    "time": 34.496496000000015,
                    "velocity": 0.5354330708661418,
                    "duration": 0.9582359999999994
                },
                {
                    "name": "A#2",
                    "midi": 46,
                    "time": 34.496496000000015,
                    "velocity": 0.5354330708661418,
                    "duration": 0.9582359999999994
                },
                {
                    "name": "E4",
                    "midi": 64,
                    "time": 34.975614000000014,
                    "velocity": 0.5354330708661418,
                    "duration": 0.9582359999999923
                },
                {
                    "name": "E3",
                    "midi": 52,
                    "time": 34.975614000000014,
                    "velocity": 0.48031496062992124,
                    "duration": 0.9582359999999923
                },
                {
                    "name": "A#1",
                    "midi": 34,
                    "time": 35.454732000000014,
                    "velocity": 0.41732283464566927,
                    "duration": 0.4791179999999926
                },
                {
                    "name": "A#2",
                    "midi": 46,
                    "time": 35.454732000000014,
                    "velocity": 0.47244094488188976,
                    "duration": 0.4791179999999926
                },
                {
                    "name": "A1",
                    "midi": 33,
                    "time": 35.93385000000001,
                    "velocity": 0.4330708661417323,
                    "duration": 0.9582359999999994
                },
                {
                    "name": "A2",
                    "midi": 45,
                    "time": 35.93385000000001,
                    "velocity": 0.4881889763779528,
                    "duration": 0.9582359999999994
                },
                {
                    "name": "A3",
                    "midi": 57,
                    "time": 36.412968000000006,
                    "velocity": 0.5275590551181102,
                    "duration": 0.9582359999999994
                },
                {
                    "name": "A1",
                    "midi": 33,
                    "time": 36.892086000000006,
                    "velocity": 0.4409448818897638,
                    "duration": 0.4791179999999997
                },
                {
                    "name": "A2",
                    "midi": 45,
                    "time": 36.892086000000006,
                    "velocity": 0.49606299212598426,
                    "duration": 0.4791179999999997
                },
                {
                    "name": "F1",
                    "midi": 29,
                    "time": 37.371204000000006,
                    "velocity": 0.47244094488188976,
                    "duration": 2.8747079999999983
                },
                {
                    "name": "F2",
                    "midi": 41,
                    "time": 37.371204000000006,
                    "velocity": 0.5354330708661418,
                    "duration": 2.8747079999999983
                },
                {
                    "name": "C3",
                    "midi": 48,
                    "time": 37.850322000000006,
                    "velocity": 0.4645669291338583,
                    "duration": 0.4791179999999997
                },
                {
                    "name": "C4",
                    "midi": 60,
                    "time": 37.850322000000006,
                    "velocity": 0.5196850393700787,
                    "duration": 0.4791179999999997
                },
                {
                    "name": "C#4",
                    "midi": 61,
                    "time": 38.329440000000005,
                    "velocity": 0.49606299212598426,
                    "duration": 0.4791179999999997
                },
                {
                    "name": "C#3",
                    "midi": 49,
                    "time": 38.329440000000005,
                    "velocity": 0.4409448818897638,
                    "duration": 0.4791179999999997
                },
                {
                    "name": "D4",
                    "midi": 62,
                    "time": 38.808558000000005,
                    "velocity": 0.5354330708661418,
                    "duration": 0.9582359999999994
                },
                {
                    "name": "D3",
                    "midi": 50,
                    "time": 38.808558000000005,
                    "velocity": 0.4881889763779528,
                    "duration": 0.9582359999999994
                },
                {
                    "name": "F4",
                    "midi": 65,
                    "time": 39.766794000000004,
                    "velocity": 0.49606299212598426,
                    "duration": 0.4791179999999997
                },
                {
                    "name": "F3",
                    "midi": 53,
                    "time": 39.766794000000004,
                    "velocity": 0.4330708661417323,
                    "duration": 0.4791179999999997
                },
                {
                    "name": "A#2",
                    "midi": 46,
                    "time": 40.245912000000004,
                    "velocity": 0.41732283464566927,
                    "duration": 0.4791179999999997
                },
                {
                    "name": "A#3",
                    "midi": 58,
                    "time": 40.725030000000004,
                    "velocity": 0.47244094488188976,
                    "duration": 0.9582359999999994
                },
                {
                    "name": "C4",
                    "midi": 60,
                    "time": 41.683266,
                    "velocity": 0.3464566929133858,
                    "duration": 0.4791180000000068
                },
                {
                    "name": "C3",
                    "midi": 48,
                    "time": 42.16238400000001,
                    "velocity": 0.4015748031496063,
                    "duration": 0.9582359999999994
                },
                {
                    "name": "G3",
                    "midi": 55,
                    "time": 43.12062000000001,
                    "velocity": 0.3700787401574803,
                    "duration": 0.4791179999999997
                },
                {
                    "name": "C3",
                    "midi": 48,
                    "time": 43.59973800000001,
                    "velocity": 0.41732283464566927,
                    "duration": 0.9582359999999994
                },
                {
                    "name": "F#3",
                    "midi": 54,
                    "time": 44.55797400000001,
                    "velocity": 0.33070866141732286,
                    "duration": 0.4791179999999997
                },
                {
                    "name": "C3",
                    "midi": 48,
                    "time": 45.03709200000001,
                    "velocity": 0.30708661417322836,
                    "duration": 0.9582359999999994
                },
                {
                    "name": "A#2",
                    "midi": 46,
                    "time": 45.99532800000001,
                    "velocity": 0.41732283464566927,
                    "duration": 0.4791179999999997
                },
                {
                    "name": "A#3",
                    "midi": 58,
                    "time": 46.47444600000001,
                    "velocity": 0.47244094488188976,
                    "duration": 0.9582359999999994
                },
                {
                    "name": "D4",
                    "midi": 62,
                    "time": 46.95356400000001,
                    "velocity": 0.41732283464566927,
                    "duration": 0.23955899999999986
                },
                {
                    "name": "E4",
                    "midi": 64,
                    "time": 47.19312300000001,
                    "velocity": 0.3937007874015748,
                    "duration": 0.23955899999999986
                },
                {
                    "name": "C4",
                    "midi": 60,
                    "time": 47.43268200000001,
                    "velocity": 0.41732283464566927,
                    "duration": 0.23955899999999986
                },
                {
                    "name": "A3",
                    "midi": 57,
                    "time": 47.43268200000001,
                    "velocity": 0.3464566929133858,
                    "duration": 1.4373540000000062
                },
                {
                    "name": "D4",
                    "midi": 62,
                    "time": 47.67224100000001,
                    "velocity": 0.3779527559055118,
                    "duration": 0.23955900000000696
                },
                {
                    "name": "C4",
                    "midi": 60,
                    "time": 47.911800000000014,
                    "velocity": 0.4409448818897638,
                    "duration": 0.23955899999999986
                },
                {
                    "name": "D4",
                    "midi": 62,
                    "time": 48.151359000000014,
                    "velocity": 0.3937007874015748,
                    "duration": 0.23955899999999986
                },
                {
                    "name": "E4",
                    "midi": 64,
                    "time": 48.39091800000001,
                    "velocity": 0.4409448818897638,
                    "duration": 0.23955899999999986
                },
                {
                    "name": "F4",
                    "midi": 65,
                    "time": 48.63047700000001,
                    "velocity": 0.4015748031496063,
                    "duration": 0.23955899999999986
                },
                {
                    "name": "A#3",
                    "midi": 58,
                    "time": 48.87003600000001,
                    "velocity": 0.41732283464566927,
                    "duration": 0.3593384999999998
                },
                {
                    "name": "G3",
                    "midi": 55,
                    "time": 48.87003600000001,
                    "velocity": 0.3700787401574803,
                    "duration": 0.9582359999999994
                },
                {
                    "name": "C4",
                    "midi": 60,
                    "time": 49.22937450000001,
                    "velocity": 0.3858267716535433,
                    "duration": 0.11977949999999993
                },
                {
                    "name": "E4",
                    "midi": 64,
                    "time": 49.34915400000001,
                    "velocity": 0.41732283464566927,
                    "duration": 0.1597059999999999
                },
                {
                    "name": "D4",
                    "midi": 62,
                    "time": 49.50886000000001,
                    "velocity": 0.3937007874015748,
                    "duration": 0.1597059999999999
                },
                {
                    "name": "C4",
                    "midi": 60,
                    "time": 49.66856600000001,
                    "velocity": 0.3937007874015748,
                    "duration": 0.1597059999999999
                },
                {
                    "name": "A#3",
                    "midi": 58,
                    "time": 49.82827200000001,
                    "velocity": 0.3858267716535433,
                    "duration": 0.23955899999999986
                },
                {
                    "name": "C3",
                    "midi": 48,
                    "time": 49.82827200000001,
                    "velocity": 0.3700787401574803,
                    "duration": 0.4791179999999997
                },
                {
                    "name": "C4",
                    "midi": 60,
                    "time": 50.06783100000001,
                    "velocity": 0.3700787401574803,
                    "duration": 0.23955899999999986
                },
                {
                    "name": "A#3",
                    "midi": 58,
                    "time": 50.30739000000001,
                    "velocity": 0.36220472440944884,
                    "duration": 0.23955899999999986
                },
                {
                    "name": "F3",
                    "midi": 53,
                    "time": 50.30739000000001,
                    "velocity": 0.36220472440944884,
                    "duration": 0.9582359999999994
                },
                {
                    "name": "A3",
                    "midi": 57,
                    "time": 50.54694900000001,
                    "velocity": 0.3228346456692913,
                    "duration": 0.23955899999999986
                },
                {
                    "name": "G3",
                    "midi": 55,
                    "time": 50.78650800000001,
                    "velocity": 0.3543307086614173,
                    "duration": 0.23955899999999986
                },
                {
                    "name": "A3",
                    "midi": 57,
                    "time": 51.02606700000001,
                    "velocity": 0.31496062992125984,
                    "duration": 0.23955899999999986
                },
                {
                    "name": "G3",
                    "midi": 55,
                    "time": 51.26562600000001,
                    "velocity": 0.31496062992125984,
                    "duration": 0.23955899999999986
                },
                {
                    "name": "F3",
                    "midi": 53,
                    "time": 51.50518500000001,
                    "velocity": 0.31496062992125984,
                    "duration": 0.23955899999999986
                },
                {
                    "name": "D#5",
                    "midi": 75,
                    "time": 51.74474400000001,
                    "velocity": 0.3700787401574803,
                    "duration": 1.4373539999999991
                },
                {
                    "name": "F4",
                    "midi": 65,
                    "time": 52.22386200000001,
                    "velocity": 0.33070866141732286,
                    "duration": 1.916472000000006
                },
                {
                    "name": "D#5",
                    "midi": 75,
                    "time": 53.18209800000001,
                    "velocity": 0.3464566929133858,
                    "duration": 0.4791180000000068
                },
                {
                    "name": "D5",
                    "midi": 74,
                    "time": 53.66121600000002,
                    "velocity": 0.4015748031496063,
                    "duration": 0.9582359999999994
                },
                {
                    "name": "F4",
                    "midi": 65,
                    "time": 54.14033400000002,
                    "velocity": 0.33070866141732286,
                    "duration": 0.9582359999999994
                },
                {
                    "name": "A#4",
                    "midi": 70,
                    "time": 54.61945200000002,
                    "velocity": 0.3700787401574803,
                    "duration": 1.4373539999999991
                },
                {
                    "name": "F4",
                    "midi": 65,
                    "time": 55.09857000000002,
                    "velocity": 0.33070866141732286,
                    "duration": 1.9164719999999988
                },
                {
                    "name": "A#4",
                    "midi": 70,
                    "time": 56.056806000000016,
                    "velocity": 0.3779527559055118,
                    "duration": 0.23955899999999986
                },
                {
                    "name": "A4",
                    "midi": 69,
                    "time": 56.296365000000016,
                    "velocity": 0.33070866141732286,
                    "duration": 0.23955899999999986
                },
                {
                    "name": "G4",
                    "midi": 67,
                    "time": 56.535924000000016,
                    "velocity": 0.36220472440944884,
                    "duration": 0.23955899999999986
                },
                {
                    "name": "A4",
                    "midi": 69,
                    "time": 56.775483000000015,
                    "velocity": 0.3228346456692913,
                    "duration": 0.23955899999999986
                },
                {
                    "name": "G4",
                    "midi": 67,
                    "time": 57.015042000000015,
                    "velocity": 0.3228346456692913,
                    "duration": 0.23955899999999986
                },
                {
                    "name": "F4",
                    "midi": 65,
                    "time": 57.254601000000015,
                    "velocity": 0.2992125984251969,
                    "duration": 0.23955899999999986
                },
                {
                    "name": "D#4",
                    "midi": 63,
                    "time": 57.494160000000015,
                    "velocity": 0.3464566929133858,
                    "duration": 0.23955899999999986
                },
                {
                    "name": "D4",
                    "midi": 62,
                    "time": 57.733719000000015,
                    "velocity": 0.30708661417322836,
                    "duration": 0.23955899999999986
                },
                {
                    "name": "C4",
                    "midi": 60,
                    "time": 57.973278000000015,
                    "velocity": 0.33070866141732286,
                    "duration": 0.23955899999999986
                },
                {
                    "name": "D4",
                    "midi": 62,
                    "time": 58.212837000000015,
                    "velocity": 0.2992125984251969,
                    "duration": 0.23955899999999986
                },
                {
                    "name": "C4",
                    "midi": 60,
                    "time": 58.452396000000014,
                    "velocity": 0.2992125984251969,
                    "duration": 0.23955899999999986
                },
                {
                    "name": "A#3",
                    "midi": 58,
                    "time": 58.691955000000014,
                    "velocity": 0.2755905511811024,
                    "duration": 0.23955899999999986
                },
                {
                    "name": "A#3",
                    "midi": 58,
                    "time": 58.931514000000014,
                    "velocity": 0.3464566929133858,
                    "duration": 0.23955900000000696
                },
                {
                    "name": "A3",
                    "midi": 57,
                    "time": 59.17107300000002,
                    "velocity": 0.30708661417322836,
                    "duration": 0.23955899999999986
                },
                {
                    "name": "G3",
                    "midi": 55,
                    "time": 59.41063200000002,
                    "velocity": 0.3228346456692913,
                    "duration": 0.23955899999999986
                },
                {
                    "name": "A3",
                    "midi": 57,
                    "time": 59.65019100000002,
                    "velocity": 0.29133858267716534,
                    "duration": 0.23955899999999986
                },
                {
                    "name": "G3",
                    "midi": 55,
                    "time": 59.88975000000002,
                    "velocity": 0.29133858267716534,
                    "duration": 0.23955899999999986
                },
                {
                    "name": "F3",
                    "midi": 53,
                    "time": 60.12930900000002,
                    "velocity": 0.2677165354330709,
                    "duration": 0.23955899999999986
                },
                {
                    "name": "D#3",
                    "midi": 51,
                    "time": 60.36886800000002,
                    "velocity": 0.3228346456692913,
                    "duration": 0.23955900000000696
                },
                {
                    "name": "D3",
                    "midi": 50,
                    "time": 60.60842700000003,
                    "velocity": 0.29133858267716534,
                    "duration": 0.23955899999999986
                },
                {
                    "name": "C3",
                    "midi": 48,
                    "time": 60.84798600000003,
                    "velocity": 0.31496062992125984,
                    "duration": 0.23955899999999986
                },
                {
                    "name": "D3",
                    "midi": 50,
                    "time": 61.08754500000003,
                    "velocity": 0.28346456692913385,
                    "duration": 0.23955899999999986
                },
                {
                    "name": "C3",
                    "midi": 48,
                    "time": 61.32710400000003,
                    "velocity": 0.28346456692913385,
                    "duration": 0.23955899999999986
                },
                {
                    "name": "A#2",
                    "midi": 46,
                    "time": 61.56666300000003,
                    "velocity": 0.25984251968503935,
                    "duration": 0.23955899999999986
                },
                {
                    "name": "A#2",
                    "midi": 46,
                    "time": 61.80622200000003,
                    "velocity": 0.31496062992125984,
                    "duration": 0.23955899999999986
                },
                {
                    "name": "A2",
                    "midi": 45,
                    "time": 62.04578100000003,
                    "velocity": 0.28346456692913385,
                    "duration": 0.23955899999999986
                },
                {
                    "name": "G2",
                    "midi": 43,
                    "time": 62.285340000000026,
                    "velocity": 0.30708661417322836,
                    "duration": 0.23955899999999986
                },
                {
                    "name": "A2",
                    "midi": 45,
                    "time": 62.524899000000026,
                    "velocity": 0.2755905511811024,
                    "duration": 0.23955899999999986
                },
                {
                    "name": "G2",
                    "midi": 43,
                    "time": 62.764458000000026,
                    "velocity": 0.2755905511811024,
                    "duration": 0.23955899999999986
                },
                {
                    "name": "F2",
                    "midi": 41,
                    "time": 63.004017000000026,
                    "velocity": 0.2440944881889764,
                    "duration": 0.23955899999999986
                },
                {
                    "name": "F2",
                    "midi": 41,
                    "time": 63.243576000000026,
                    "velocity": 0.2677165354330709,
                    "duration": 0.4791179999999997
                },
                {
                    "name": "F1",
                    "midi": 29,
                    "time": 63.722694000000025,
                    "velocity": 0.15748031496062992,
                    "duration": 0.23955899999999986
                },
                {
                    "name": "F1",
                    "midi": 29,
                    "time": 64.20181200000003,
                    "velocity": 0.14960629921259844,
                    "duration": 0.23955899999999986
                },
                {
                    "name": "F1",
                    "midi": 29,
                    "time": 64.68093000000003,
                    "velocity": 0.14960629921259844,
                    "duration": 0.23955899999999986
                },
                {
                    "name": "C#2",
                    "midi": 37,
                    "time": 66.11828400000003,
                    "velocity": 0.2992125984251969,
                    "duration": 2.8747079999999983
                },
                {
                    "name": "F#2",
                    "midi": 42,
                    "time": 66.59740200000003,
                    "velocity": 0.31496062992125984,
                    "duration": 0.4791179999999997
                },
                {
                    "name": "G#2",
                    "midi": 44,
                    "time": 67.07652000000003,
                    "velocity": 0.3464566929133858,
                    "duration": 0.4791179999999997
                },
                {
                    "name": "A#2",
                    "midi": 46,
                    "time": 67.55563800000003,
                    "velocity": 0.36220472440944884,
                    "duration": 0.4791179999999997
                },
                {
                    "name": "F3",
                    "midi": 53,
                    "time": 68.03475600000003,
                    "velocity": 0.33070866141732286,
                    "duration": 0.4791179999999997
                },
                {
                    "name": "A#2",
                    "midi": 46,
                    "time": 68.51387400000003,
                    "velocity": 0.2992125984251969,
                    "duration": 0.4791179999999997
                },
                {
                    "name": "C#2",
                    "midi": 37,
                    "time": 68.99299200000003,
                    "velocity": 0.2992125984251969,
                    "duration": 2.8747079999999983
                },
                {
                    "name": "F#2",
                    "midi": 42,
                    "time": 69.47211000000003,
                    "velocity": 0.31496062992125984,
                    "duration": 0.4791179999999997
                },
                {
                    "name": "G#2",
                    "midi": 44,
                    "time": 69.95122800000003,
                    "velocity": 0.3464566929133858,
                    "duration": 0.4791179999999997
                },
                {
                    "name": "A#2",
                    "midi": 46,
                    "time": 70.43034600000003,
                    "velocity": 0.36220472440944884,
                    "duration": 0.4791179999999997
                },
                {
                    "name": "F3",
                    "midi": 53,
                    "time": 70.90946400000003,
                    "velocity": 0.33070866141732286,
                    "duration": 0.4791179999999997
                },
                {
                    "name": "C#3",
                    "midi": 49,
                    "time": 71.38858200000003,
                    "velocity": 0.2992125984251969,
                    "duration": 0.4791179999999997
                },
                {
                    "name": "C#2",
                    "midi": 37,
                    "time": 71.86770000000003,
                    "velocity": 0.3228346456692913,
                    "duration": 2.8747079999999983
                },
                {
                    "name": "B2",
                    "midi": 47,
                    "time": 72.34681800000003,
                    "velocity": 0.3464566929133858,
                    "duration": 0.4791179999999997
                },
                {
                    "name": "C#3",
                    "midi": 49,
                    "time": 72.82593600000003,
                    "velocity": 0.3779527559055118,
                    "duration": 0.4791179999999997
                },
                {
                    "name": "D#3",
                    "midi": 51,
                    "time": 73.30505400000003,
                    "velocity": 0.3937007874015748,
                    "duration": 0.4791179999999997
                },
                {
                    "name": "A#3",
                    "midi": 58,
                    "time": 73.78417200000003,
                    "velocity": 0.36220472440944884,
                    "duration": 0.4791179999999997
                },
                {
                    "name": "D#3",
                    "midi": 51,
                    "time": 74.26329000000003,
                    "velocity": 0.3228346456692913,
                    "duration": 0.4791179999999997
                },
                {
                    "name": "C#2",
                    "midi": 37,
                    "time": 74.74240800000003,
                    "velocity": 0.3464566929133858,
                    "duration": 0.9582359999999994
                },
                {
                    "name": "C3",
                    "midi": 48,
                    "time": 74.74240800000003,
                    "velocity": 0.3464566929133858,
                    "duration": 0.4791179999999997
                },
                {
                    "name": "C#3",
                    "midi": 49,
                    "time": 75.22152600000003,
                    "velocity": 0.2992125984251969,
                    "duration": 0.4791179999999997
                },
                {
                    "name": "C#2",
                    "midi": 37,
                    "time": 75.70064400000003,
                    "velocity": 0.33070866141732286,
                    "duration": 0.9582359999999994
                },
                {
                    "name": "C3",
                    "midi": 48,
                    "time": 75.70064400000003,
                    "velocity": 0.33070866141732286,
                    "duration": 0.4791179999999997
                },
                {
                    "name": "A#2",
                    "midi": 46,
                    "time": 76.17976200000003,
                    "velocity": 0.29133858267716534,
                    "duration": 0.4791179999999997
                },
                {
                    "name": "C#2",
                    "midi": 37,
                    "time": 76.65888000000002,
                    "velocity": 0.3228346456692913,
                    "duration": 0.9582359999999994
                },
                {
                    "name": "D#3",
                    "midi": 51,
                    "time": 76.65888000000002,
                    "velocity": 0.3228346456692913,
                    "duration": 0.4791179999999997
                },
                {
                    "name": "G#2",
                    "midi": 44,
                    "time": 77.13799800000002,
                    "velocity": 0.3228346456692913,
                    "duration": 0.4791179999999997
                },
                {
                    "name": "C#2",
                    "midi": 37,
                    "time": 77.61711600000002,
                    "velocity": 0.2992125984251969,
                    "duration": 2.8747079999999983
                },
                {
                    "name": "F#2",
                    "midi": 42,
                    "time": 78.09623400000002,
                    "velocity": 0.31496062992125984,
                    "duration": 0.4791179999999997
                },
                {
                    "name": "G#2",
                    "midi": 44,
                    "time": 78.57535200000002,
                    "velocity": 0.3464566929133858,
                    "duration": 0.4791179999999997
                },
                {
                    "name": "A#2",
                    "midi": 46,
                    "time": 79.05447000000002,
                    "velocity": 0.36220472440944884,
                    "duration": 0.4791179999999997
                },
                {
                    "name": "F3",
                    "midi": 53,
                    "time": 79.53358800000002,
                    "velocity": 0.33070866141732286,
                    "duration": 0.4791179999999997
                },
                {
                    "name": "A#2",
                    "midi": 46,
                    "time": 80.01270600000002,
                    "velocity": 0.2992125984251969,
                    "duration": 0.4791179999999997
                },
                {
                    "name": "C#2",
                    "midi": 37,
                    "time": 80.49182400000002,
                    "velocity": 0.2677165354330709,
                    "duration": 2.8747079999999983
                },
                {
                    "name": "F#2",
                    "midi": 42,
                    "time": 80.97094200000002,
                    "velocity": 0.28346456692913385,
                    "duration": 0.4791179999999997
                },
                {
                    "name": "G#2",
                    "midi": 44,
                    "time": 81.45006000000002,
                    "velocity": 0.30708661417322836,
                    "duration": 0.4791179999999997
                },
                {
                    "name": "A#2",
                    "midi": 46,
                    "time": 81.92917800000002,
                    "velocity": 0.31496062992125984,
                    "duration": 0.4791179999999997
                },
                {
                    "name": "F3",
                    "midi": 53,
                    "time": 82.40829600000002,
                    "velocity": 0.2992125984251969,
                    "duration": 0.4791179999999997
                },
                {
                    "name": "C#3",
                    "midi": 49,
                    "time": 82.88741400000002,
                    "velocity": 0.2677165354330709,
                    "duration": 0.4791179999999997
                },
                {
                    "name": "C2",
                    "midi": 36,
                    "time": 83.36653200000002,
                    "velocity": 0.3228346456692913,
                    "duration": 2.8747079999999983
                },
                {
                    "name": "A#3",
                    "midi": 58,
                    "time": 83.84565000000002,
                    "velocity": 0.3937007874015748,
                    "duration": 0.4791179999999997
                },
                {
                    "name": "C4",
                    "midi": 60,
                    "time": 84.32476800000002,
                    "velocity": 0.4330708661417323,
                    "duration": 0.4791179999999997
                },
                {
                    "name": "D4",
                    "midi": 62,
                    "time": 84.80388600000002,
                    "velocity": 0.44881889763779526,
                    "duration": 0.9582359999999994
                },
                {
                    "name": "A3",
                    "midi": 57,
                    "time": 85.28300400000002,
                    "velocity": 0.36220472440944884,
                    "duration": 0.4791179999999997
                },
                {
                    "name": "C4",
                    "midi": 60,
                    "time": 85.76212200000002,
                    "velocity": 0.3228346456692913,
                    "duration": 0.4791179999999997
                },
                {
                    "name": "C2",
                    "midi": 36,
                    "time": 86.24124000000002,
                    "velocity": 0.3228346456692913,
                    "duration": 2.8747079999999983
                },
                {
                    "name": "A#3",
                    "midi": 58,
                    "time": 86.72035800000002,
                    "velocity": 0.3937007874015748,
                    "duration": 0.4791179999999997
                },
                {
                    "name": "C4",
                    "midi": 60,
                    "time": 87.19947600000002,
                    "velocity": 0.4330708661417323,
                    "duration": 0.4791179999999997
                },
                {
                    "name": "D4",
                    "midi": 62,
                    "time": 87.67859400000002,
                    "velocity": 0.4330708661417323,
                    "duration": 0.9582359999999994
                },
                {
                    "name": "A3",
                    "midi": 57,
                    "time": 88.15771200000002,
                    "velocity": 0.36220472440944884,
                    "duration": 0.4791179999999997
                },
                {
                    "name": "C4",
                    "midi": 60,
                    "time": 88.63683000000002,
                    "velocity": 0.3228346456692913,
                    "duration": 0.4791179999999997
                },
                {
                    "name": "C2",
                    "midi": 36,
                    "time": 89.11594800000002,
                    "velocity": 0.2992125984251969,
                    "duration": 3.353825999999998
                },
                {
                    "name": "E4",
                    "midi": 64,
                    "time": 89.59506600000002,
                    "velocity": 0.3228346456692913,
                    "duration": 0.4791179999999997
                },
                {
                    "name": "F4",
                    "midi": 65,
                    "time": 90.07418400000002,
                    "velocity": 0.28346456692913385,
                    "duration": 0.4791179999999997
                },
                {
                    "name": "E4",
                    "midi": 64,
                    "time": 90.55330200000002,
                    "velocity": 0.3228346456692913,
                    "duration": 0.4791179999999997
                },
                {
                    "name": "D4",
                    "midi": 62,
                    "time": 91.03242000000002,
                    "velocity": 0.2677165354330709,
                    "duration": 0.4791179999999997
                },
                {
                    "name": "G4",
                    "midi": 67,
                    "time": 91.51153800000002,
                    "velocity": 0.3228346456692913,
                    "duration": 0.4791179999999997
                },
                {
                    "name": "C4",
                    "midi": 60,
                    "time": 91.99065600000002,
                    "velocity": 0.28346456692913385,
                    "duration": 0.4791179999999997
                },
                {
                    "name": "E3",
                    "midi": 52,
                    "time": 92.46977400000002,
                    "velocity": 0.3228346456692913,
                    "duration": 0.4791179999999997
                },
                {
                    "name": "F3",
                    "midi": 53,
                    "time": 92.94889200000001,
                    "velocity": 0.28346456692913385,
                    "duration": 0.4791179999999997
                },
                {
                    "name": "E3",
                    "midi": 52,
                    "time": 93.42801000000001,
                    "velocity": 0.3228346456692913,
                    "duration": 0.4791179999999997
                },
                {
                    "name": "D3",
                    "midi": 50,
                    "time": 93.90712800000001,
                    "velocity": 0.2677165354330709,
                    "duration": 0.4791179999999997
                },
                {
                    "name": "G3",
                    "midi": 55,
                    "time": 94.38624600000001,
                    "velocity": 0.3228346456692913,
                    "duration": 0.4791179999999997
                },
                {
                    "name": "C3",
                    "midi": 48,
                    "time": 94.86536400000001,
                    "velocity": 0.28346456692913385,
                    "duration": 0.4791179999999997
                },
                {
                    "name": "A2",
                    "midi": 45,
                    "time": 95.34448200000001,
                    "velocity": 0.3228346456692913,
                    "duration": 0.9582359999999994
                },
                {
                    "name": "A#2",
                    "midi": 46,
                    "time": 96.30271800000001,
                    "velocity": 0.28346456692913385,
                    "duration": 0.4791179999999997
                },
                {
                    "name": "G2",
                    "midi": 43,
                    "time": 96.78183600000001,
                    "velocity": 0.3228346456692913,
                    "duration": 0.9582359999999994
                },
                {
                    "name": "C3",
                    "midi": 48,
                    "time": 97.74007200000001,
                    "velocity": 0.28346456692913385,
                    "duration": 2.3955899999999986
                },
                {
                    "name": "C3",
                    "midi": 48,
                    "time": 100.61478000000001,
                    "velocity": 0.3779527559055118,
                    "duration": 0.9582359999999994
                },
                {
                    "name": "F2",
                    "midi": 41,
                    "time": 100.61478000000001,
                    "velocity": 0.3464566929133858,
                    "duration": 1.4373540000000133
                },
                {
                    "name": "C#3",
                    "midi": 49,
                    "time": 101.57301600000001,
                    "velocity": 0.3543307086614173,
                    "duration": 0.4791180000000139
                },
                {
                    "name": "D3",
                    "midi": 50,
                    "time": 102.05213400000002,
                    "velocity": 0.3779527559055118,
                    "duration": 0.9582359999999994
                },
                {
                    "name": "F2",
                    "midi": 41,
                    "time": 102.05213400000002,
                    "velocity": 0.3464566929133858,
                    "duration": 1.4373539999999991
                },
                {
                    "name": "C#3",
                    "midi": 49,
                    "time": 103.01037000000002,
                    "velocity": 0.30708661417322836,
                    "duration": 0.4791179999999997
                },
                {
                    "name": "D3",
                    "midi": 50,
                    "time": 103.48948800000002,
                    "velocity": 0.3779527559055118,
                    "duration": 0.4791179999999997
                },
                {
                    "name": "A#2",
                    "midi": 46,
                    "time": 103.48948800000002,
                    "velocity": 0.3464566929133858,
                    "duration": 1.4373539999999991
                },
                {
                    "name": "E3",
                    "midi": 52,
                    "time": 103.96860600000002,
                    "velocity": 0.3779527559055118,
                    "duration": 1.4373539999999991
                },
                {
                    "name": "A2",
                    "midi": 45,
                    "time": 104.92684200000002,
                    "velocity": 0.3464566929133858,
                    "duration": 0.9582359999999994
                },
                {
                    "name": "G3",
                    "midi": 55,
                    "time": 105.40596000000002,
                    "velocity": 0.3543307086614173,
                    "duration": 0.4791179999999997
                },
                {
                    "name": "A2",
                    "midi": 45,
                    "time": 105.88507800000002,
                    "velocity": 0.3543307086614173,
                    "duration": 0.4791179999999997
                },
                {
                    "name": "C3",
                    "midi": 48,
                    "time": 106.36419600000002,
                    "velocity": 0.3779527559055118,
                    "duration": 0.9582359999999994
                },
                {
                    "name": "F2",
                    "midi": 41,
                    "time": 106.36419600000002,
                    "velocity": 0.3464566929133858,
                    "duration": 1.4373540000000133
                },
                {
                    "name": "C#3",
                    "midi": 49,
                    "time": 107.32243200000002,
                    "velocity": 0.3543307086614173,
                    "duration": 0.4791180000000139
                },
                {
                    "name": "D3",
                    "midi": 50,
                    "time": 107.80155000000003,
                    "velocity": 0.3779527559055118,
                    "duration": 0.9582359999999994
                },
                {
                    "name": "F2",
                    "midi": 41,
                    "time": 107.80155000000003,
                    "velocity": 0.3464566929133858,
                    "duration": 1.4373539999999991
                },
                {
                    "name": "E3",
                    "midi": 52,
                    "time": 108.75978600000003,
                    "velocity": 0.30708661417322836,
                    "duration": 0.4791179999999997
                },
                {
                    "name": "F3",
                    "midi": 53,
                    "time": 109.23890400000003,
                    "velocity": 0.3700787401574803,
                    "duration": 0.4791179999999997
                },
                {
                    "name": "G3",
                    "midi": 55,
                    "time": 109.71802200000003,
                    "velocity": 0.41732283464566927,
                    "duration": 0.4791179999999997
                },
                {
                    "name": "F3",
                    "midi": 53,
                    "time": 110.19714000000003,
                    "velocity": 0.3937007874015748,
                    "duration": 0.4791179999999997
                },
                {
                    "name": "E3",
                    "midi": 52,
                    "time": 110.67625800000003,
                    "velocity": 0.3464566929133858,
                    "duration": 0.4791179999999855
                },
                {
                    "name": "A3",
                    "midi": 57,
                    "time": 111.15537600000002,
                    "velocity": 0.4015748031496063,
                    "duration": 0.4791179999999997
                },
                {
                    "name": "G3",
                    "midi": 55,
                    "time": 111.63449400000002,
                    "velocity": 0.3700787401574803,
                    "duration": 0.4791179999999997
                },
                {
                    "name": "D3",
                    "midi": 50,
                    "time": 112.11361200000002,
                    "velocity": 0.3700787401574803,
                    "duration": 0.4791179999999997
                },
                {
                    "name": "G3",
                    "midi": 55,
                    "time": 112.59273000000002,
                    "velocity": 0.41732283464566927,
                    "duration": 0.4791179999999997
                },
                {
                    "name": "D3",
                    "midi": 50,
                    "time": 113.07184800000002,
                    "velocity": 0.3700787401574803,
                    "duration": 0.9582359999999994
                },
                {
                    "name": "G#3",
                    "midi": 56,
                    "time": 113.55096600000002,
                    "velocity": 0.3937007874015748,
                    "duration": 0.9582359999999994
                },
                {
                    "name": "D3",
                    "midi": 50,
                    "time": 114.03008400000002,
                    "velocity": 0.3700787401574803,
                    "duration": 0.4791179999999997
                },
                {
                    "name": "C3",
                    "midi": 48,
                    "time": 114.50920200000002,
                    "velocity": 0.2992125984251969,
                    "duration": 0.4791180000000139
                },
                {
                    "name": "A3",
                    "midi": 57,
                    "time": 114.50920200000002,
                    "velocity": 0.3543307086614173,
                    "duration": 0.4791180000000139
                },
                {
                    "name": "F3",
                    "midi": 53,
                    "time": 114.98832000000003,
                    "velocity": 0.3543307086614173,
                    "duration": 1.4373540000000133
                },
                {
                    "name": "A3",
                    "midi": 57,
                    "time": 114.98832000000003,
                    "velocity": 0.44881889763779526,
                    "duration": 0.3593385000000069
                },
                {
                    "name": "B3",
                    "midi": 59,
                    "time": 115.34765850000004,
                    "velocity": 0.41732283464566927,
                    "duration": 0.11977950000000703
                },
                {
                    "name": "D4",
                    "midi": 62,
                    "time": 115.46743800000004,
                    "velocity": 0.4409448818897638,
                    "duration": 0.1597059999999999
                },
                {
                    "name": "C4",
                    "midi": 60,
                    "time": 115.62714400000004,
                    "velocity": 0.4330708661417323,
                    "duration": 0.1597059999999999
                },
                {
                    "name": "B3",
                    "midi": 59,
                    "time": 115.78685000000004,
                    "velocity": 0.4330708661417323,
                    "duration": 0.1597059999999999
                },
                {
                    "name": "A3",
                    "midi": 57,
                    "time": 115.94655600000004,
                    "velocity": 0.44881889763779526,
                    "duration": 0.23955899999999986
                },
                {
                    "name": "B3",
                    "midi": 59,
                    "time": 116.18611500000004,
                    "velocity": 0.4409448818897638,
                    "duration": 0.23955899999999986
                },
                {
                    "name": "E3",
                    "midi": 52,
                    "time": 116.42567400000004,
                    "velocity": 0.3228346456692913,
                    "duration": 1.4373539999999991
                },
                {
                    "name": "G3",
                    "midi": 55,
                    "time": 116.42567400000004,
                    "velocity": 0.4330708661417323,
                    "duration": 0.23955899999999986
                },
                {
                    "name": "A3",
                    "midi": 57,
                    "time": 116.66523300000004,
                    "velocity": 0.4094488188976378,
                    "duration": 0.23955899999999986
                },
                {
                    "name": "G3",
                    "midi": 55,
                    "time": 116.90479200000004,
                    "velocity": 0.4645669291338583,
                    "duration": 0.23955899999999986
                },
                {
                    "name": "A3",
                    "midi": 57,
                    "time": 117.14435100000004,
                    "velocity": 0.4330708661417323,
                    "duration": 0.23955899999999986
                },
                {
                    "name": "B3",
                    "midi": 59,
                    "time": 117.38391000000004,
                    "velocity": 0.4645669291338583,
                    "duration": 0.23955899999999986
                },
                {
                    "name": "C4",
                    "midi": 60,
                    "time": 117.62346900000004,
                    "velocity": 0.4015748031496063,
                    "duration": 0.23955899999999986
                },
                {
                    "name": "D3",
                    "midi": 50,
                    "time": 117.86302800000004,
                    "velocity": 0.3543307086614173,
                    "duration": 0.9582359999999994
                },
                {
                    "name": "F3",
                    "midi": 53,
                    "time": 117.86302800000004,
                    "velocity": 0.44881889763779526,
                    "duration": 0.3593384999999927
                },
                {
                    "name": "G3",
                    "midi": 55,
                    "time": 118.22236650000004,
                    "velocity": 0.41732283464566927,
                    "duration": 0.11977950000000703
                },
                {
                    "name": "B3",
                    "midi": 59,
                    "time": 118.34214600000004,
                    "velocity": 0.4645669291338583,
                    "duration": 0.1597059999999999
                },
                {
                    "name": "A3",
                    "midi": 57,
                    "time": 118.50185200000004,
                    "velocity": 0.44881889763779526,
                    "duration": 0.1597059999999999
                },
                {
                    "name": "G3",
                    "midi": 55,
                    "time": 118.66155800000004,
                    "velocity": 0.44881889763779526,
                    "duration": 0.1597059999999999
                },
                {
                    "name": "G2",
                    "midi": 43,
                    "time": 118.82126400000004,
                    "velocity": 0.33070866141732286,
                    "duration": 0.4791179999999997
                },
                {
                    "name": "F3",
                    "midi": 53,
                    "time": 118.82126400000004,
                    "velocity": 0.4645669291338583,
                    "duration": 0.23955899999999986
                },
                {
                    "name": "G3",
                    "midi": 55,
                    "time": 119.06082300000004,
                    "velocity": 0.4566929133858268,
                    "duration": 0.23955899999999986
                },
                {
                    "name": "C3",
                    "midi": 48,
                    "time": 119.30038200000004,
                    "velocity": 0.3543307086614173,
                    "duration": 0.9582359999999994
                },
                {
                    "name": "F3",
                    "midi": 53,
                    "time": 119.30038200000004,
                    "velocity": 0.41732283464566927,
                    "duration": 0.23955899999999986
                },
                {
                    "name": "E3",
                    "midi": 52,
                    "time": 119.53994100000004,
                    "velocity": 0.4015748031496063,
                    "duration": 0.23955899999999986
                },
                {
                    "name": "D3",
                    "midi": 50,
                    "time": 119.77950000000004,
                    "velocity": 0.4330708661417323,
                    "duration": 0.23955899999999986
                },
                {
                    "name": "E3",
                    "midi": 52,
                    "time": 120.01905900000004,
                    "velocity": 0.4015748031496063,
                    "duration": 0.23955899999999986
                },
                {
                    "name": "D3",
                    "midi": 50,
                    "time": 120.25861800000004,
                    "velocity": 0.3700787401574803,
                    "duration": 0.23955899999999986
                },
                {
                    "name": "C3",
                    "midi": 48,
                    "time": 120.49817700000004,
                    "velocity": 0.3228346456692913,
                    "duration": 0.23955899999999986
                },
                {
                    "name": "F2",
                    "midi": 41,
                    "time": 120.73773600000004,
                    "velocity": 0.44881889763779526,
                    "duration": 0.3593385000000069
                },
                {
                    "name": "G2",
                    "midi": 43,
                    "time": 121.09707450000005,
                    "velocity": 0.41732283464566927,
                    "duration": 0.1297611250000017
                },
                {
                    "name": "A#2",
                    "midi": 46,
                    "time": 121.21685400000005,
                    "velocity": 0.4409448818897638,
                    "duration": 0.16968762499999457
                },
                {
                    "name": "G#2",
                    "midi": 44,
                    "time": 121.37656000000005,
                    "velocity": 0.4330708661417323,
                    "duration": 0.16968762499999457
                },
                {
                    "name": "G2",
                    "midi": 43,
                    "time": 121.53626600000005,
                    "velocity": 0.4330708661417323,
                    "duration": 0.16968762499999457
                },
                {
                    "name": "F2",
                    "midi": 41,
                    "time": 121.69597200000005,
                    "velocity": 0.44881889763779526,
                    "duration": 0.24954062499999452
                },
                {
                    "name": "G2",
                    "midi": 43,
                    "time": 121.93553100000005,
                    "velocity": 0.4409448818897638,
                    "duration": 0.23955899999999986
                },
                {
                    "name": "D#2",
                    "midi": 39,
                    "time": 122.17509000000005,
                    "velocity": 0.4330708661417323,
                    "duration": 0.4791179999999997
                },
                {
                    "name": "D#3",
                    "midi": 51,
                    "time": 122.17509000000005,
                    "velocity": 0.4645669291338583,
                    "duration": 0.4791179999999997
                },
                {
                    "name": "C3",
                    "midi": 48,
                    "time": 122.65420800000005,
                    "velocity": 0.4330708661417323,
                    "duration": 0.9582359999999994
                },
                {
                    "name": "C4",
                    "midi": 60,
                    "time": 122.65420800000005,
                    "velocity": 0.4645669291338583,
                    "duration": 0.9582359999999994
                },
                {
                    "name": "A#2",
                    "midi": 46,
                    "time": 123.61244400000005,
                    "velocity": 0.4330708661417323,
                    "duration": 0.4791179999999997
                },
                {
                    "name": "A#3",
                    "midi": 58,
                    "time": 123.61244400000005,
                    "velocity": 0.4645669291338583,
                    "duration": 0.4791179999999997
                },
                {
                    "name": "D#2",
                    "midi": 39,
                    "time": 124.09156200000005,
                    "velocity": 0.4330708661417323,
                    "duration": 0.9582360000000136
                },
                {
                    "name": "D#3",
                    "midi": 51,
                    "time": 124.09156200000005,
                    "velocity": 0.4645669291338583,
                    "duration": 0.9582360000000136
                },
                {
                    "name": "G#2",
                    "midi": 44,
                    "time": 125.04979800000007,
                    "velocity": 0.4094488188976378,
                    "duration": 1.4373539999999991
                },
                {
                    "name": "D#3",
                    "midi": 51,
                    "time": 125.04979800000007,
                    "velocity": 0.4645669291338583,
                    "duration": 0.23955899999999986
                },
                {
                    "name": "F3",
                    "midi": 53,
                    "time": 125.28935700000007,
                    "velocity": 0.4330708661417323,
                    "duration": 0.23955899999999986
                },
                {
                    "name": "D#3",
                    "midi": 51,
                    "time": 125.52891600000007,
                    "velocity": 0.4409448818897638,
                    "duration": 0.23955899999999986
                },
                {
                    "name": "F3",
                    "midi": 53,
                    "time": 125.76847500000007,
                    "velocity": 0.4566929133858268,
                    "duration": 0.23955899999999986
                },
                {
                    "name": "G3",
                    "midi": 55,
                    "time": 126.00803400000007,
                    "velocity": 0.48031496062992124,
                    "duration": 0.23955899999999986
                },
                {
                    "name": "G#3",
                    "midi": 56,
                    "time": 126.24759300000007,
                    "velocity": 0.49606299212598426,
                    "duration": 0.17966924999998923
                },
                {
                    "name": "G2",
                    "midi": 43,
                    "time": 126.42726225000006,
                    "velocity": 0.5039370078740157,
                    "duration": 0.4192282500000175
                },
                {
                    "name": "A#3",
                    "midi": 58,
                    "time": 126.48715200000007,
                    "velocity": 0.49606299212598426,
                    "duration": 0.4791180000000139
                },
                {
                    "name": "G#2",
                    "midi": 44,
                    "time": 126.84649050000007,
                    "velocity": 0.48031496062992124,
                    "duration": 0.11977950000000703
                },
                {
                    "name": "C3",
                    "midi": 48,
                    "time": 126.96627000000008,
                    "velocity": 0.5039370078740157,
                    "duration": 0.16968762499999457
                },
                {
                    "name": "A#2",
                    "midi": 46,
                    "time": 127.12597600000008,
                    "velocity": 0.4881889763779528,
                    "duration": 0.16968762499999457
                },
                {
                    "name": "G#2",
                    "midi": 44,
                    "time": 127.28568200000008,
                    "velocity": 0.4881889763779528,
                    "duration": 0.16968762499999457
                },
                {
                    "name": "G2",
                    "midi": 43,
                    "time": 127.44538800000008,
                    "velocity": 0.5039370078740157,
                    "duration": 0.24954062499999452
                },
                {
                    "name": "G#2",
                    "midi": 44,
                    "time": 127.68494700000008,
                    "velocity": 0.49606299212598426,
                    "duration": 0.23955899999999986
                },
                {
                    "name": "F2",
                    "midi": 41,
                    "time": 127.92450600000008,
                    "velocity": 0.4645669291338583,
                    "duration": 0.9582360000000136
                },
                {
                    "name": "F3",
                    "midi": 53,
                    "time": 127.92450600000008,
                    "velocity": 0.5196850393700787,
                    "duration": 0.9582360000000136
                },
                {
                    "name": "D#2",
                    "midi": 39,
                    "time": 128.8827420000001,
                    "velocity": 0.4015748031496063,
                    "duration": 0.4791179999999997
                },
                {
                    "name": "D#3",
                    "midi": 51,
                    "time": 128.8827420000001,
                    "velocity": 0.44881889763779526,
                    "duration": 0.4791179999999997
                },
                {
                    "name": "C#2",
                    "midi": 37,
                    "time": 129.3618600000001,
                    "velocity": 0.41732283464566927,
                    "duration": 0.4791179999999997
                },
                {
                    "name": "C#3",
                    "midi": 49,
                    "time": 129.3618600000001,
                    "velocity": 0.47244094488188976,
                    "duration": 0.4791179999999997
                },
                {
                    "name": "G2",
                    "midi": 43,
                    "time": 129.8409780000001,
                    "velocity": 0.44881889763779526,
                    "duration": 0.4791179999999997
                },
                {
                    "name": "G3",
                    "midi": 55,
                    "time": 129.8409780000001,
                    "velocity": 0.49606299212598426,
                    "duration": 0.4791179999999997
                },
                {
                    "name": "C#2",
                    "midi": 37,
                    "time": 130.3200960000001,
                    "velocity": 0.4015748031496063,
                    "duration": 0.4791179999999997
                },
                {
                    "name": "C#3",
                    "midi": 49,
                    "time": 130.3200960000001,
                    "velocity": 0.4566929133858268,
                    "duration": 0.4791179999999997
                },
                {
                    "name": "C2",
                    "midi": 36,
                    "time": 130.7992140000001,
                    "velocity": 0.3937007874015748,
                    "duration": 0.9582359999999994
                },
                {
                    "name": "C3",
                    "midi": 48,
                    "time": 130.7992140000001,
                    "velocity": 0.44881889763779526,
                    "duration": 0.9582359999999994
                },
                {
                    "name": "C4",
                    "midi": 60,
                    "time": 131.7574500000001,
                    "velocity": 0.44881889763779526,
                    "duration": 0.4791179999999997
                },
                {
                    "name": "F1",
                    "midi": 29,
                    "time": 132.2365680000001,
                    "velocity": 0.47244094488188976,
                    "duration": 1.9164719999999988
                },
                {
                    "name": "F2",
                    "midi": 41,
                    "time": 132.2365680000001,
                    "velocity": 0.5354330708661418,
                    "duration": 1.9164719999999988
                },
                {
                    "name": "C4",
                    "midi": 60,
                    "time": 132.7156860000001,
                    "velocity": 0.5354330708661418,
                    "duration": 0.4791179999999997
                },
                {
                    "name": "C3",
                    "midi": 48,
                    "time": 132.7156860000001,
                    "velocity": 0.48031496062992124,
                    "duration": 0.4791179999999997
                },
                {
                    "name": "C#4",
                    "midi": 61,
                    "time": 133.1948040000001,
                    "velocity": 0.49606299212598426,
                    "duration": 0.4791179999999997
                },
                {
                    "name": "C#3",
                    "midi": 49,
                    "time": 133.1948040000001,
                    "velocity": 0.4409448818897638,
                    "duration": 0.4791179999999997
                },
                {
                    "name": "D4",
                    "midi": 62,
                    "time": 133.6739220000001,
                    "velocity": 0.5354330708661418,
                    "duration": 1.4373539999999991
                },
                {
                    "name": "D3",
                    "midi": 50,
                    "time": 133.6739220000001,
                    "velocity": 0.5354330708661418,
                    "duration": 1.4373539999999991
                },
                {
                    "name": "F1",
                    "midi": 29,
                    "time": 134.6321580000001,
                    "velocity": 0.41732283464566927,
                    "duration": 0.4791179999999997
                },
                {
                    "name": "F2",
                    "midi": 41,
                    "time": 134.6321580000001,
                    "velocity": 0.47244094488188976,
                    "duration": 0.4791179999999997
                },
                {
                    "name": "A#1",
                    "midi": 34,
                    "time": 135.1112760000001,
                    "velocity": 0.5354330708661418,
                    "duration": 0.9582359999999994
                },
                {
                    "name": "A#2",
                    "midi": 46,
                    "time": 135.1112760000001,
                    "velocity": 0.5354330708661418,
                    "duration": 0.9582359999999994
                },
                {
                    "name": "E4",
                    "midi": 64,
                    "time": 135.5903940000001,
                    "velocity": 0.5354330708661418,
                    "duration": 0.9582360000000278
                },
                {
                    "name": "E3",
                    "midi": 52,
                    "time": 135.5903940000001,
                    "velocity": 0.48031496062992124,
                    "duration": 0.9582360000000278
                },
                {
                    "name": "A#1",
                    "midi": 34,
                    "time": 136.0695120000001,
                    "velocity": 0.41732283464566927,
                    "duration": 0.47911800000002813
                },
                {
                    "name": "A#2",
                    "midi": 46,
                    "time": 136.0695120000001,
                    "velocity": 0.47244094488188976,
                    "duration": 0.47911800000002813
                },
                {
                    "name": "A1",
                    "midi": 33,
                    "time": 136.54863000000012,
                    "velocity": 0.4330708661417323,
                    "duration": 0.9582359999999994
                },
                {
                    "name": "A2",
                    "midi": 45,
                    "time": 136.54863000000012,
                    "velocity": 0.4881889763779528,
                    "duration": 0.9582359999999994
                },
                {
                    "name": "A3",
                    "midi": 57,
                    "time": 137.02774800000012,
                    "velocity": 0.5275590551181102,
                    "duration": 0.9582359999999994
                },
                {
                    "name": "A1",
                    "midi": 33,
                    "time": 137.50686600000012,
                    "velocity": 0.4409448818897638,
                    "duration": 0.4791179999999997
                },
                {
                    "name": "A2",
                    "midi": 45,
                    "time": 137.50686600000012,
                    "velocity": 0.49606299212598426,
                    "duration": 0.4791179999999997
                },
                {
                    "name": "F1",
                    "midi": 29,
                    "time": 137.98598400000012,
                    "velocity": 0.47244094488188976,
                    "duration": 2.8747079999999983
                },
                {
                    "name": "F2",
                    "midi": 41,
                    "time": 137.98598400000012,
                    "velocity": 0.5354330708661418,
                    "duration": 2.8747079999999983
                },
                {
                    "name": "C3",
                    "midi": 48,
                    "time": 138.46510200000012,
                    "velocity": 0.48031496062992124,
                    "duration": 0.4791179999999997
                },
                {
                    "name": "C4",
                    "midi": 60,
                    "time": 138.46510200000012,
                    "velocity": 0.5354330708661418,
                    "duration": 0.4791179999999997
                },
                {
                    "name": "C#4",
                    "midi": 61,
                    "time": 138.94422000000012,
                    "velocity": 0.49606299212598426,
                    "duration": 0.4791179999999997
                },
                {
                    "name": "C#3",
                    "midi": 49,
                    "time": 138.94422000000012,
                    "velocity": 0.4409448818897638,
                    "duration": 0.4791179999999997
                },
                {
                    "name": "D4",
                    "midi": 62,
                    "time": 139.42333800000011,
                    "velocity": 0.5354330708661418,
                    "duration": 0.9582359999999994
                },
                {
                    "name": "D3",
                    "midi": 50,
                    "time": 139.42333800000011,
                    "velocity": 0.4881889763779528,
                    "duration": 0.9582359999999994
                },
                {
                    "name": "F4",
                    "midi": 65,
                    "time": 140.3815740000001,
                    "velocity": 0.49606299212598426,
                    "duration": 0.4791179999999997
                },
                {
                    "name": "F3",
                    "midi": 53,
                    "time": 140.3815740000001,
                    "velocity": 0.4330708661417323,
                    "duration": 0.4791179999999997
                },
                {
                    "name": "A#2",
                    "midi": 46,
                    "time": 140.8606920000001,
                    "velocity": 0.41732283464566927,
                    "duration": 0.4791179999999997
                },
                {
                    "name": "A#3",
                    "midi": 58,
                    "time": 141.3398100000001,
                    "velocity": 0.47244094488188976,
                    "duration": 0.9582359999999994
                },
                {
                    "name": "C4",
                    "midi": 60,
                    "time": 142.2980460000001,
                    "velocity": 0.3464566929133858,
                    "duration": 0.4791179999999997
                },
                {
                    "name": "C3",
                    "midi": 48,
                    "time": 142.7771640000001,
                    "velocity": 0.4015748031496063,
                    "duration": 0.9582359999999994
                },
                {
                    "name": "G3",
                    "midi": 55,
                    "time": 143.7354000000001,
                    "velocity": 0.3700787401574803,
                    "duration": 0.4791179999999997
                },
                {
                    "name": "C3",
                    "midi": 48,
                    "time": 144.2145180000001,
                    "velocity": 0.41732283464566927,
                    "duration": 0.9582359999999994
                },
                {
                    "name": "F#3",
                    "midi": 54,
                    "time": 145.1727540000001,
                    "velocity": 0.33070866141732286,
                    "duration": 0.4791179999999997
                },
                {
                    "name": "C3",
                    "midi": 48,
                    "time": 145.6518720000001,
                    "velocity": 0.30708661417322836,
                    "duration": 0.9582359999999994
                },
                {
                    "name": "A#2",
                    "midi": 46,
                    "time": 146.6101080000001,
                    "velocity": 0.41732283464566927,
                    "duration": 0.4791179999999997
                },
                {
                    "name": "A#3",
                    "midi": 58,
                    "time": 147.0892260000001,
                    "velocity": 0.47244094488188976,
                    "duration": 0.9582360000000278
                },
                {
                    "name": "D4",
                    "midi": 62,
                    "time": 147.5683440000001,
                    "velocity": 0.41732283464566927,
                    "duration": 0.23955900000001407
                },
                {
                    "name": "E4",
                    "midi": 64,
                    "time": 147.80790300000012,
                    "velocity": 0.3937007874015748,
                    "duration": 0.23955900000001407
                },
                {
                    "name": "C4",
                    "midi": 60,
                    "time": 148.04746200000014,
                    "velocity": 0.41732283464566927,
                    "duration": 0.23955900000001407
                },
                {
                    "name": "A3",
                    "midi": 57,
                    "time": 148.04746200000014,
                    "velocity": 0.3464566929133858,
                    "duration": 1.437354000000056
                },
                {
                    "name": "D4",
                    "midi": 62,
                    "time": 148.28702100000015,
                    "velocity": 0.3779527559055118,
                    "duration": 0.23955899999998564
                },
                {
                    "name": "C4",
                    "midi": 60,
                    "time": 148.52658000000014,
                    "velocity": 0.4409448818897638,
                    "duration": 0.23955900000001407
                },
                {
                    "name": "D4",
                    "midi": 62,
                    "time": 148.76613900000015,
                    "velocity": 0.3937007874015748,
                    "duration": 0.23955900000001407
                },
                {
                    "name": "E4",
                    "midi": 64,
                    "time": 149.00569800000017,
                    "velocity": 0.4409448818897638,
                    "duration": 0.23955900000001407
                },
                {
                    "name": "F4",
                    "midi": 65,
                    "time": 149.24525700000018,
                    "velocity": 0.4015748031496063,
                    "duration": 0.23955900000001407
                },
                {
                    "name": "A#3",
                    "midi": 58,
                    "time": 149.4848160000002,
                    "velocity": 0.41732283464566927,
                    "duration": 0.3593385000000069
                },
                {
                    "name": "G3",
                    "midi": 55,
                    "time": 149.4848160000002,
                    "velocity": 0.3700787401574803,
                    "duration": 0.9582359999999994
                },
                {
                    "name": "C4",
                    "midi": 60,
                    "time": 149.8441545000002,
                    "velocity": 0.3858267716535433,
                    "duration": 0.11977949999999282
                },
                {
                    "name": "E4",
                    "midi": 64,
                    "time": 149.9639340000002,
                    "velocity": 0.41732283464566927,
                    "duration": 0.1597059999999999
                },
                {
                    "name": "D4",
                    "midi": 62,
                    "time": 150.1236400000002,
                    "velocity": 0.3937007874015748,
                    "duration": 0.1597059999999999
                },
                {
                    "name": "C4",
                    "midi": 60,
                    "time": 150.2833460000002,
                    "velocity": 0.3937007874015748,
                    "duration": 0.1597059999999999
                },
                {
                    "name": "A#3",
                    "midi": 58,
                    "time": 150.4430520000002,
                    "velocity": 0.3858267716535433,
                    "duration": 0.23955900000001407
                },
                {
                    "name": "C3",
                    "midi": 48,
                    "time": 150.4430520000002,
                    "velocity": 0.3700787401574803,
                    "duration": 0.47911800000002813
                },
                {
                    "name": "C4",
                    "midi": 60,
                    "time": 150.6826110000002,
                    "velocity": 0.3700787401574803,
                    "duration": 0.23955900000001407
                },
                {
                    "name": "A#3",
                    "midi": 58,
                    "time": 150.92217000000022,
                    "velocity": 0.36220472440944884,
                    "duration": 0.23955900000001407
                },
                {
                    "name": "F3",
                    "midi": 53,
                    "time": 150.92217000000022,
                    "velocity": 0.36220472440944884,
                    "duration": 0.9582360000000278
                },
                {
                    "name": "A3",
                    "midi": 57,
                    "time": 151.16172900000024,
                    "velocity": 0.3228346456692913,
                    "duration": 0.23955899999998564
                },
                {
                    "name": "G3",
                    "midi": 55,
                    "time": 151.40128800000022,
                    "velocity": 0.3543307086614173,
                    "duration": 0.23955900000001407
                },
                {
                    "name": "A3",
                    "midi": 57,
                    "time": 151.64084700000024,
                    "velocity": 0.31496062992125984,
                    "duration": 0.23955900000001407
                },
                {
                    "name": "G3",
                    "midi": 55,
                    "time": 151.88040600000025,
                    "velocity": 0.31496062992125984,
                    "duration": 0.23955900000001407
                },
                {
                    "name": "F3",
                    "midi": 53,
                    "time": 152.11996500000026,
                    "velocity": 0.31496062992125984,
                    "duration": 0.23955899999998564
                },
                {
                    "name": "D#5",
                    "midi": 75,
                    "time": 152.35952400000025,
                    "velocity": 0.3700787401574803,
                    "duration": 1.4373539999999991
                },
                {
                    "name": "F4",
                    "midi": 65,
                    "time": 152.83864200000025,
                    "velocity": 0.33070866141732286,
                    "duration": 1.9164719999999988
                },
                {
                    "name": "D#5",
                    "midi": 75,
                    "time": 153.79687800000025,
                    "velocity": 0.3464566929133858,
                    "duration": 0.4791179999999997
                },
                {
                    "name": "D5",
                    "midi": 74,
                    "time": 154.27599600000025,
                    "velocity": 0.4015748031496063,
                    "duration": 0.9582359999999994
                },
                {
                    "name": "F4",
                    "midi": 65,
                    "time": 154.75511400000025,
                    "velocity": 0.33070866141732286,
                    "duration": 0.9582359999999994
                },
                {
                    "name": "A#4",
                    "midi": 70,
                    "time": 155.23423200000025,
                    "velocity": 0.3700787401574803,
                    "duration": 1.4373539999999991
                },
                {
                    "name": "F4",
                    "midi": 65,
                    "time": 155.71335000000025,
                    "velocity": 0.33070866141732286,
                    "duration": 1.9164720000000273
                },
                {
                    "name": "A#4",
                    "midi": 70,
                    "time": 156.67158600000025,
                    "velocity": 0.3779527559055118,
                    "duration": 0.23955900000001407
                },
                {
                    "name": "A4",
                    "midi": 69,
                    "time": 156.91114500000026,
                    "velocity": 0.33070866141732286,
                    "duration": 0.23955899999998564
                },
                {
                    "name": "G4",
                    "midi": 67,
                    "time": 157.15070400000025,
                    "velocity": 0.36220472440944884,
                    "duration": 0.23955900000001407
                },
                {
                    "name": "A4",
                    "midi": 69,
                    "time": 157.39026300000026,
                    "velocity": 0.3228346456692913,
                    "duration": 0.23955900000001407
                },
                {
                    "name": "G4",
                    "midi": 67,
                    "time": 157.62982200000027,
                    "velocity": 0.3228346456692913,
                    "duration": 0.23955900000001407
                },
                {
                    "name": "F4",
                    "midi": 65,
                    "time": 157.8693810000003,
                    "velocity": 0.2992125984251969,
                    "duration": 0.23955899999998564
                },
                {
                    "name": "D#4",
                    "midi": 63,
                    "time": 158.10894000000027,
                    "velocity": 0.3464566929133858,
                    "duration": 0.23955899999998564
                },
                {
                    "name": "D4",
                    "midi": 62,
                    "time": 158.34849900000026,
                    "velocity": 0.30708661417322836,
                    "duration": 0.23955900000001407
                },
                {
                    "name": "C4",
                    "midi": 60,
                    "time": 158.58805800000027,
                    "velocity": 0.33070866141732286,
                    "duration": 0.23955900000001407
                },
                {
                    "name": "D4",
                    "midi": 62,
                    "time": 158.8276170000003,
                    "velocity": 0.2992125984251969,
                    "duration": 0.23955900000001407
                },
                {
                    "name": "C4",
                    "midi": 60,
                    "time": 159.0671760000003,
                    "velocity": 0.2992125984251969,
                    "duration": 0.23955900000001407
                },
                {
                    "name": "A#3",
                    "midi": 58,
                    "time": 159.30673500000032,
                    "velocity": 0.2755905511811024,
                    "duration": 0.23955899999998564
                },
                {
                    "name": "A#3",
                    "midi": 58,
                    "time": 159.5462940000003,
                    "velocity": 0.3464566929133858,
                    "duration": 0.23955899999998564
                },
                {
                    "name": "A3",
                    "midi": 57,
                    "time": 159.7858530000003,
                    "velocity": 0.30708661417322836,
                    "duration": 0.23955900000001407
                },
                {
                    "name": "G3",
                    "midi": 55,
                    "time": 160.0254120000003,
                    "velocity": 0.3228346456692913,
                    "duration": 0.23955900000001407
                },
                {
                    "name": "A3",
                    "midi": 57,
                    "time": 160.26497100000032,
                    "velocity": 0.29133858267716534,
                    "duration": 0.23955900000001407
                },
                {
                    "name": "G3",
                    "midi": 55,
                    "time": 160.50453000000033,
                    "velocity": 0.29133858267716534,
                    "duration": 0.23955900000001407
                },
                {
                    "name": "F3",
                    "midi": 53,
                    "time": 160.74408900000034,
                    "velocity": 0.2677165354330709,
                    "duration": 0.23955899999998564
                },
                {
                    "name": "D#3",
                    "midi": 51,
                    "time": 160.98364800000033,
                    "velocity": 0.3228346456692913,
                    "duration": 0.23955899999998564
                },
                {
                    "name": "D3",
                    "midi": 50,
                    "time": 161.22320700000031,
                    "velocity": 0.29133858267716534,
                    "duration": 0.23955900000001407
                },
                {
                    "name": "C3",
                    "midi": 48,
                    "time": 161.46276600000033,
                    "velocity": 0.31496062992125984,
                    "duration": 0.23955900000001407
                },
                {
                    "name": "D3",
                    "midi": 50,
                    "time": 161.70232500000034,
                    "velocity": 0.28346456692913385,
                    "duration": 0.23955900000001407
                },
                {
                    "name": "C3",
                    "midi": 48,
                    "time": 161.94188400000036,
                    "velocity": 0.28346456692913385,
                    "duration": 0.23955900000001407
                },
                {
                    "name": "A#2",
                    "midi": 46,
                    "time": 162.18144300000037,
                    "velocity": 0.25984251968503935,
                    "duration": 0.23955899999998564
                },
                {
                    "name": "A#2",
                    "midi": 46,
                    "time": 162.42100200000036,
                    "velocity": 0.31496062992125984,
                    "duration": 0.23955900000001407
                },
                {
                    "name": "A2",
                    "midi": 45,
                    "time": 162.66056100000037,
                    "velocity": 0.28346456692913385,
                    "duration": 0.23955899999998564
                },
                {
                    "name": "G2",
                    "midi": 43,
                    "time": 162.90012000000036,
                    "velocity": 0.30708661417322836,
                    "duration": 0.23955900000001407
                },
                {
                    "name": "A2",
                    "midi": 45,
                    "time": 163.13967900000037,
                    "velocity": 0.2755905511811024,
                    "duration": 0.23955900000001407
                },
                {
                    "name": "G2",
                    "midi": 43,
                    "time": 163.37923800000038,
                    "velocity": 0.2755905511811024,
                    "duration": 0.23955900000001407
                },
                {
                    "name": "F2",
                    "midi": 41,
                    "time": 163.6187970000004,
                    "velocity": 0.2440944881889764,
                    "duration": 0.23955899999998564
                },
                {
                    "name": "F2",
                    "midi": 41,
                    "time": 163.85835600000038,
                    "velocity": 0.2677165354330709,
                    "duration": 0.4791179999999997
                },
                {
                    "name": "F1",
                    "midi": 29,
                    "time": 164.33747400000038,
                    "velocity": 0.15748031496062992,
                    "duration": 0.23955900000001407
                },
                {
                    "name": "F1",
                    "midi": 29,
                    "time": 164.8165920000004,
                    "velocity": 0.14960629921259844,
                    "duration": 0.23955900000001407
                },
                {
                    "name": "F1",
                    "midi": 29,
                    "time": 165.29571000000044,
                    "velocity": 0.14960629921259844,
                    "duration": 0.23955900000001407
                }
            ],
            "controlChanges": {
                "7": [
                    {
                        "number": 7,
                        "time": 0,
                        "value": 0.7874015748031497
                    }
                ],
                "64": [
                    {
                        "number": 64,
                        "time": 0,
                        "value": 1
                    },
                    {
                        "number": 64,
                        "time": 0.7605998249999999,
                        "value": 0
                    },
                    {
                        "number": 64,
                        "time": 1.036092675,
                        "value": 1
                    },
                    {
                        "number": 64,
                        "time": 1.34552305,
                        "value": 0
                    },
                    {
                        "number": 64,
                        "time": 1.5281867875,
                        "value": 1
                    },
                    {
                        "number": 64,
                        "time": 2.4864227875,
                        "value": 0
                    },
                    {
                        "number": 64,
                        "time": 2.916630825,
                        "value": 1
                    },
                    {
                        "number": 64,
                        "time": 3.7690615999999997,
                        "value": 0
                    },
                    {
                        "number": 64,
                        "time": 3.8399311375,
                        "value": 1
                    },
                    {
                        "number": 64,
                        "time": 4.206256775,
                        "value": 0
                    },
                    {
                        "number": 64,
                        "time": 4.3350197375,
                        "value": 1
                    },
                    {
                        "number": 64,
                        "time": 5.4409837875,
                        "value": 0
                    },
                    {
                        "number": 64,
                        "time": 5.749415999999999,
                        "value": 1
                    },
                    {
                        "number": 64,
                        "time": 6.510015824999999,
                        "value": 0
                    },
                    {
                        "number": 64,
                        "time": 6.785508674999999,
                        "value": 1
                    },
                    {
                        "number": 64,
                        "time": 7.094939049999999,
                        "value": 0
                    },
                    {
                        "number": 64,
                        "time": 7.277602787499999,
                        "value": 1
                    },
                    {
                        "number": 64,
                        "time": 8.235838787499999,
                        "value": 0
                    },
                    {
                        "number": 64,
                        "time": 8.666046824999999,
                        "value": 1
                    },
                    {
                        "number": 64,
                        "time": 9.518477599999999,
                        "value": 0
                    },
                    {
                        "number": 64,
                        "time": 9.589347137499999,
                        "value": 1
                    },
                    {
                        "number": 64,
                        "time": 9.955672774999998,
                        "value": 0
                    },
                    {
                        "number": 64,
                        "time": 10.084435737499998,
                        "value": 1
                    },
                    {
                        "number": 64,
                        "time": 10.480706249999997,
                        "value": 0
                    },
                    {
                        "number": 64,
                        "time": 10.563553737499998,
                        "value": 1
                    },
                    {
                        "number": 64,
                        "time": 11.373063524999997,
                        "value": 0
                    },
                    {
                        "number": 64,
                        "time": 11.540754824999997,
                        "value": 1
                    },
                    {
                        "number": 64,
                        "time": 12.393185599999997,
                        "value": 0
                    },
                    {
                        "number": 64,
                        "time": 12.464055137499997,
                        "value": 1
                    },
                    {
                        "number": 64,
                        "time": 12.830380774999997,
                        "value": 0
                    },
                    {
                        "number": 64,
                        "time": 13.228647612499996,
                        "value": 1
                    },
                    {
                        "number": 64,
                        "time": 13.681813387499995,
                        "value": 0
                    },
                    {
                        "number": 64,
                        "time": 14.027177612499996,
                        "value": 1
                    },
                    {
                        "number": 64,
                        "time": 14.160931387499996,
                        "value": 0
                    },
                    {
                        "number": 64,
                        "time": 14.402486712499996,
                        "value": 1
                    },
                    {
                        "number": 64,
                        "time": 14.841678212499996,
                        "value": 0
                    },
                    {
                        "number": 64,
                        "time": 14.881604712499996,
                        "value": 1
                    },
                    {
                        "number": 64,
                        "time": 15.714072237499996,
                        "value": 0
                    },
                    {
                        "number": 64,
                        "time": 15.879767212499996,
                        "value": 1
                    },
                    {
                        "number": 64,
                        "time": 16.689276999999993,
                        "value": 0
                    },
                    {
                        "number": 64,
                        "time": 16.792087737499994,
                        "value": 1
                    },
                    {
                        "number": 64,
                        "time": 17.157415212499995,
                        "value": 0
                    },
                    {
                        "number": 64,
                        "time": 17.283183687499992,
                        "value": 1
                    },
                    {
                        "number": 64,
                        "time": 17.69941744999999,
                        "value": 0
                    },
                    {
                        "number": 64,
                        "time": 17.73834578749999,
                        "value": 1
                    },
                    {
                        "number": 64,
                        "time": 18.231438062499993,
                        "value": 0
                    },
                    {
                        "number": 64,
                        "time": 18.255393962499994,
                        "value": 1
                    },
                    {
                        "number": 64,
                        "time": 18.607745324999993,
                        "value": 0
                    },
                    {
                        "number": 64,
                        "time": 18.770445812499993,
                        "value": 1
                    },
                    {
                        "number": 64,
                        "time": 19.65781227499999,
                        "value": 0
                    },
                    {
                        "number": 64,
                        "time": 19.77060463749999,
                        "value": 1
                    },
                    {
                        "number": 64,
                        "time": 19.96824081249999,
                        "value": 0
                    },
                    {
                        "number": 64,
                        "time": 21.652140950000003,
                        "value": 1
                    },
                    {
                        "number": 64,
                        "time": 22.039428000000004,
                        "value": 0
                    },
                    {
                        "number": 64,
                        "time": 22.110297537500003,
                        "value": 1
                    },
                    {
                        "number": 64,
                        "time": 22.9417669,
                        "value": 0
                    },
                    {
                        "number": 64,
                        "time": 23.0046511375,
                        "value": 1
                    },
                    {
                        "number": 64,
                        "time": 23.476782,
                        "value": 0
                    },
                    {
                        "number": 64,
                        "time": 23.518704825,
                        "value": 1
                    },
                    {
                        "number": 64,
                        "time": 24.3152385,
                        "value": 0
                    },
                    {
                        "number": 64,
                        "time": 24.476940825,
                        "value": 1
                    },
                    {
                        "number": 64,
                        "time": 25.646787274999998,
                        "value": 0
                    },
                    {
                        "number": 64,
                        "time": 25.823462037499997,
                        "value": 1
                    },
                    {
                        "number": 64,
                        "time": 26.2806204625,
                        "value": 0
                    },
                    {
                        "number": 64,
                        "time": 27.32370027500001,
                        "value": 1
                    },
                    {
                        "number": 64,
                        "time": 28.16914391250001,
                        "value": 0
                    },
                    {
                        "number": 64,
                        "time": 28.30988482500001,
                        "value": 1
                    },
                    {
                        "number": 64,
                        "time": 28.620313362500013,
                        "value": 0
                    },
                    {
                        "number": 64,
                        "time": 28.802977100000014,
                        "value": 1
                    },
                    {
                        "number": 64,
                        "time": 29.641433600000013,
                        "value": 0
                    },
                    {
                        "number": 64,
                        "time": 29.754225962500016,
                        "value": 1
                    },
                    {
                        "number": 64,
                        "time": 30.099590187500016,
                        "value": 0
                    },
                    {
                        "number": 64,
                        "time": 30.184434000000017,
                        "value": 1
                    },
                    {
                        "number": 64,
                        "time": 30.61064938750002,
                        "value": 0
                    },
                    {
                        "number": 64,
                        "time": 30.770355387500018,
                        "value": 1
                    },
                    {
                        "number": 64,
                        "time": 31.329326387500018,
                        "value": 0
                    },
                    {
                        "number": 64,
                        "time": 31.621788000000016,
                        "value": 1
                    },
                    {
                        "number": 64,
                        "time": 32.382387825000016,
                        "value": 0
                    },
                    {
                        "number": 64,
                        "time": 32.657880675000015,
                        "value": 1
                    },
                    {
                        "number": 64,
                        "time": 32.96731105000001,
                        "value": 0
                    },
                    {
                        "number": 64,
                        "time": 33.149974787500014,
                        "value": 1
                    },
                    {
                        "number": 64,
                        "time": 34.10821078750001,
                        "value": 0
                    },
                    {
                        "number": 64,
                        "time": 34.538418825000015,
                        "value": 1
                    },
                    {
                        "number": 64,
                        "time": 35.39084960000002,
                        "value": 0
                    },
                    {
                        "number": 64,
                        "time": 35.46171913750001,
                        "value": 1
                    },
                    {
                        "number": 64,
                        "time": 35.82804477500001,
                        "value": 0
                    },
                    {
                        "number": 64,
                        "time": 35.95680773750001,
                        "value": 1
                    },
                    {
                        "number": 64,
                        "time": 37.062771787500004,
                        "value": 0
                    },
                    {
                        "number": 64,
                        "time": 37.371204000000006,
                        "value": 1
                    },
                    {
                        "number": 64,
                        "time": 38.131803825000006,
                        "value": 0
                    },
                    {
                        "number": 64,
                        "time": 38.407296675000005,
                        "value": 1
                    },
                    {
                        "number": 64,
                        "time": 38.71672705,
                        "value": 0
                    },
                    {
                        "number": 64,
                        "time": 38.8993907875,
                        "value": 1
                    },
                    {
                        "number": 64,
                        "time": 39.8576267875,
                        "value": 0
                    },
                    {
                        "number": 64,
                        "time": 40.287834825000004,
                        "value": 1
                    },
                    {
                        "number": 64,
                        "time": 41.140265600000006,
                        "value": 0
                    },
                    {
                        "number": 64,
                        "time": 41.21113513750001,
                        "value": 1
                    },
                    {
                        "number": 64,
                        "time": 41.577460775000006,
                        "value": 0
                    },
                    {
                        "number": 64,
                        "time": 41.706223737500004,
                        "value": 1
                    },
                    {
                        "number": 64,
                        "time": 42.10249425000001,
                        "value": 0
                    },
                    {
                        "number": 64,
                        "time": 42.18534173750001,
                        "value": 1
                    },
                    {
                        "number": 64,
                        "time": 42.99485152500001,
                        "value": 0
                    },
                    {
                        "number": 64,
                        "time": 43.16254282500001,
                        "value": 1
                    },
                    {
                        "number": 64,
                        "time": 44.01497360000001,
                        "value": 0
                    },
                    {
                        "number": 64,
                        "time": 44.085843137500014,
                        "value": 1
                    },
                    {
                        "number": 64,
                        "time": 44.45216877500001,
                        "value": 0
                    },
                    {
                        "number": 64,
                        "time": 44.85043561250001,
                        "value": 1
                    },
                    {
                        "number": 64,
                        "time": 45.30360138750001,
                        "value": 0
                    },
                    {
                        "number": 64,
                        "time": 45.64896561250001,
                        "value": 1
                    },
                    {
                        "number": 64,
                        "time": 45.78271938750001,
                        "value": 0
                    },
                    {
                        "number": 64,
                        "time": 46.03725082500001,
                        "value": 1
                    },
                    {
                        "number": 64,
                        "time": 46.88968160000001,
                        "value": 0
                    },
                    {
                        "number": 64,
                        "time": 46.960551137500005,
                        "value": 1
                    },
                    {
                        "number": 64,
                        "time": 47.32687677500001,
                        "value": 0
                    },
                    {
                        "number": 64,
                        "time": 47.45563973750001,
                        "value": 1
                    },
                    {
                        "number": 64,
                        "time": 47.85191025000001,
                        "value": 0
                    },
                    {
                        "number": 64,
                        "time": 47.934757737500014,
                        "value": 1
                    },
                    {
                        "number": 64,
                        "time": 48.74426752500001,
                        "value": 0
                    },
                    {
                        "number": 64,
                        "time": 48.91195882500001,
                        "value": 1
                    },
                    {
                        "number": 64,
                        "time": 49.764389600000015,
                        "value": 0
                    },
                    {
                        "number": 64,
                        "time": 49.83525913750001,
                        "value": 1
                    },
                    {
                        "number": 64,
                        "time": 50.201584775000015,
                        "value": 0
                    },
                    {
                        "number": 64,
                        "time": 50.59985161250001,
                        "value": 1
                    },
                    {
                        "number": 64,
                        "time": 51.16680791250001,
                        "value": 0
                    },
                    {
                        "number": 64,
                        "time": 51.26562600000001,
                        "value": 1
                    },
                    {
                        "number": 64,
                        "time": 51.53213538750001,
                        "value": 0
                    },
                    {
                        "number": 64,
                        "time": 51.78666682500001,
                        "value": 1
                    },
                    {
                        "number": 64,
                        "time": 52.639097600000014,
                        "value": 0
                    },
                    {
                        "number": 64,
                        "time": 52.709967137500016,
                        "value": 1
                    },
                    {
                        "number": 64,
                        "time": 53.07629277500001,
                        "value": 0
                    },
                    {
                        "number": 64,
                        "time": 53.20505573750001,
                        "value": 1
                    },
                    {
                        "number": 64,
                        "time": 53.601326250000014,
                        "value": 0
                    },
                    {
                        "number": 64,
                        "time": 53.68417373750002,
                        "value": 1
                    },
                    {
                        "number": 64,
                        "time": 54.493683525000016,
                        "value": 0
                    },
                    {
                        "number": 64,
                        "time": 54.66137482500002,
                        "value": 1
                    },
                    {
                        "number": 64,
                        "time": 55.51380560000002,
                        "value": 0
                    },
                    {
                        "number": 64,
                        "time": 55.58467513750002,
                        "value": 1
                    },
                    {
                        "number": 64,
                        "time": 55.95100077500002,
                        "value": 0
                    },
                    {
                        "number": 64,
                        "time": 56.349267612500014,
                        "value": 1
                    },
                    {
                        "number": 64,
                        "time": 57.015042000000015,
                        "value": 0
                    },
                    {
                        "number": 64,
                        "time": 57.147797612500014,
                        "value": 1
                    },
                    {
                        "number": 64,
                        "time": 57.281551387500016,
                        "value": 0
                    },
                    {
                        "number": 64,
                        "time": 57.613939500000015,
                        "value": 1
                    },
                    {
                        "number": 64,
                        "time": 58.452396000000014,
                        "value": 0
                    },
                    {
                        "number": 64,
                        "time": 58.58515161250001,
                        "value": 1
                    },
                    {
                        "number": 64,
                        "time": 58.718905387500016,
                        "value": 0
                    },
                    {
                        "number": 64,
                        "time": 58.99140375000002,
                        "value": 1
                    },
                    {
                        "number": 64,
                        "time": 59.88975000000002,
                        "value": 0
                    },
                    {
                        "number": 64,
                        "time": 60.02250561250002,
                        "value": 1
                    },
                    {
                        "number": 64,
                        "time": 60.15625938750002,
                        "value": 0
                    },
                    {
                        "number": 64,
                        "time": 60.428757750000024,
                        "value": 1
                    },
                    {
                        "number": 64,
                        "time": 61.32710400000003,
                        "value": 0
                    },
                    {
                        "number": 64,
                        "time": 61.459859612500026,
                        "value": 1
                    },
                    {
                        "number": 64,
                        "time": 61.59361338750003,
                        "value": 0
                    },
                    {
                        "number": 64,
                        "time": 62.098683612500025,
                        "value": 1
                    },
                    {
                        "number": 64,
                        "time": 62.764458000000026,
                        "value": 0
                    },
                    {
                        "number": 64,
                        "time": 62.897213612500025,
                        "value": 1
                    },
                    {
                        "number": 64,
                        "time": 63.03096738750003,
                        "value": 0
                    },
                    {
                        "number": 64,
                        "time": 63.243576000000026,
                        "value": 1
                    },
                    {
                        "number": 64,
                        "time": 65.03328136250003,
                        "value": 0
                    },
                    {
                        "number": 64,
                        "time": 66.59740200000003,
                        "value": 1
                    },
                    {
                        "number": 64,
                        "time": 67.30509921250002,
                        "value": 0
                    },
                    {
                        "number": 64,
                        "time": 67.55563800000003,
                        "value": 1
                    },
                    {
                        "number": 64,
                        "time": 68.51387400000003,
                        "value": 0
                    },
                    {
                        "number": 64,
                        "time": 69.47211000000003,
                        "value": 1
                    },
                    {
                        "number": 64,
                        "time": 70.17980721250002,
                        "value": 0
                    },
                    {
                        "number": 64,
                        "time": 70.43034600000003,
                        "value": 1
                    },
                    {
                        "number": 64,
                        "time": 71.38858200000003,
                        "value": 0
                    },
                    {
                        "number": 64,
                        "time": 72.34681800000003,
                        "value": 1
                    },
                    {
                        "number": 64,
                        "time": 73.05451521250002,
                        "value": 0
                    },
                    {
                        "number": 64,
                        "time": 73.30505400000003,
                        "value": 1
                    },
                    {
                        "number": 64,
                        "time": 74.26329000000003,
                        "value": 0
                    },
                    {
                        "number": 64,
                        "time": 74.83324078750003,
                        "value": 1
                    },
                    {
                        "number": 64,
                        "time": 75.81443452500002,
                        "value": 0
                    },
                    {
                        "number": 64,
                        "time": 75.95118278750003,
                        "value": 1
                    },
                    {
                        "number": 64,
                        "time": 76.33946800000002,
                        "value": 0
                    },
                    {
                        "number": 64,
                        "time": 76.72775321250002,
                        "value": 1
                    },
                    {
                        "number": 64,
                        "time": 77.25178852500002,
                        "value": 0
                    },
                    {
                        "number": 64,
                        "time": 78.09623400000002,
                        "value": 1
                    },
                    {
                        "number": 64,
                        "time": 78.99757473750002,
                        "value": 0
                    },
                    {
                        "number": 64,
                        "time": 79.05447000000002,
                        "value": 1
                    },
                    {
                        "number": 64,
                        "time": 80.34309778750003,
                        "value": 0
                    },
                    {
                        "number": 64,
                        "time": 80.97094200000002,
                        "value": 1
                    },
                    {
                        "number": 64,
                        "time": 81.87228273750002,
                        "value": 0
                    },
                    {
                        "number": 64,
                        "time": 81.92917800000002,
                        "value": 1
                    },
                    {
                        "number": 64,
                        "time": 83.21780578750003,
                        "value": 0
                    },
                    {
                        "number": 64,
                        "time": 83.84565000000002,
                        "value": 1
                    },
                    {
                        "number": 64,
                        "time": 84.55334721250001,
                        "value": 0
                    },
                    {
                        "number": 64,
                        "time": 84.80388600000002,
                        "value": 1
                    },
                    {
                        "number": 64,
                        "time": 85.76212200000002,
                        "value": 0
                    },
                    {
                        "number": 64,
                        "time": 86.72035800000002,
                        "value": 1
                    },
                    {
                        "number": 64,
                        "time": 87.42805521250001,
                        "value": 0
                    },
                    {
                        "number": 64,
                        "time": 87.67859400000002,
                        "value": 1
                    },
                    {
                        "number": 64,
                        "time": 88.86241472500002,
                        "value": 0
                    },
                    {
                        "number": 64,
                        "time": 89.75477200000002,
                        "value": 1
                    },
                    {
                        "number": 64,
                        "time": 90.55330200000002,
                        "value": 0
                    },
                    {
                        "number": 64,
                        "time": 90.71300800000002,
                        "value": 1
                    },
                    {
                        "number": 64,
                        "time": 91.45863538750001,
                        "value": 0
                    },
                    {
                        "number": 64,
                        "time": 91.61834138750001,
                        "value": 1
                    },
                    {
                        "number": 64,
                        "time": 92.31006800000002,
                        "value": 0
                    },
                    {
                        "number": 64,
                        "time": 92.62948000000002,
                        "value": 1
                    },
                    {
                        "number": 64,
                        "time": 93.42801000000001,
                        "value": 0
                    },
                    {
                        "number": 64,
                        "time": 93.58771600000001,
                        "value": 1
                    },
                    {
                        "number": 64,
                        "time": 94.33334338750001,
                        "value": 0
                    },
                    {
                        "number": 64,
                        "time": 94.49304938750001,
                        "value": 1
                    },
                    {
                        "number": 64,
                        "time": 95.18477600000001,
                        "value": 0
                    },
                    {
                        "number": 64,
                        "time": 95.50418800000001,
                        "value": 1
                    },
                    {
                        "number": 64,
                        "time": 96.46242400000001,
                        "value": 0
                    },
                    {
                        "number": 64,
                        "time": 96.86168900000001,
                        "value": 1
                    },
                    {
                        "number": 64,
                        "time": 97.47356261250002,
                        "value": 0
                    },
                    {
                        "number": 64,
                        "time": 100.61478000000001,
                        "value": 1
                    },
                    {
                        "number": 64,
                        "time": 101.37537982500001,
                        "value": 0
                    },
                    {
                        "number": 64,
                        "time": 101.65087267500002,
                        "value": 1
                    },
                    {
                        "number": 64,
                        "time": 101.96030305000002,
                        "value": 0
                    },
                    {
                        "number": 64,
                        "time": 102.14296678750003,
                        "value": 1
                    },
                    {
                        "number": 64,
                        "time": 103.10120278750003,
                        "value": 0
                    },
                    {
                        "number": 64,
                        "time": 103.53141082500002,
                        "value": 1
                    },
                    {
                        "number": 64,
                        "time": 104.38384160000003,
                        "value": 0
                    },
                    {
                        "number": 64,
                        "time": 104.45471113750003,
                        "value": 1
                    },
                    {
                        "number": 64,
                        "time": 104.82103677500002,
                        "value": 0
                    },
                    {
                        "number": 64,
                        "time": 104.94979973750002,
                        "value": 1
                    },
                    {
                        "number": 64,
                        "time": 106.05576378750003,
                        "value": 0
                    },
                    {
                        "number": 64,
                        "time": 106.36419600000002,
                        "value": 1
                    },
                    {
                        "number": 64,
                        "time": 107.12479582500002,
                        "value": 0
                    },
                    {
                        "number": 64,
                        "time": 107.40028867500003,
                        "value": 1
                    },
                    {
                        "number": 64,
                        "time": 107.70971905000003,
                        "value": 0
                    },
                    {
                        "number": 64,
                        "time": 107.89238278750004,
                        "value": 1
                    },
                    {
                        "number": 64,
                        "time": 108.85061878750004,
                        "value": 0
                    },
                    {
                        "number": 64,
                        "time": 109.28082682500003,
                        "value": 1
                    },
                    {
                        "number": 64,
                        "time": 110.13325760000004,
                        "value": 0
                    },
                    {
                        "number": 64,
                        "time": 110.20412713750004,
                        "value": 1
                    },
                    {
                        "number": 64,
                        "time": 110.57045277500004,
                        "value": 0
                    },
                    {
                        "number": 64,
                        "time": 110.69921573750003,
                        "value": 1
                    },
                    {
                        "number": 64,
                        "time": 111.09548625000002,
                        "value": 0
                    },
                    {
                        "number": 64,
                        "time": 111.17833373750001,
                        "value": 1
                    },
                    {
                        "number": 64,
                        "time": 111.98784352500002,
                        "value": 0
                    },
                    {
                        "number": 64,
                        "time": 112.15553482500002,
                        "value": 1
                    },
                    {
                        "number": 64,
                        "time": 113.00796560000002,
                        "value": 0
                    },
                    {
                        "number": 64,
                        "time": 113.07883513750002,
                        "value": 1
                    },
                    {
                        "number": 64,
                        "time": 113.44516077500002,
                        "value": 0
                    },
                    {
                        "number": 64,
                        "time": 113.84342761250002,
                        "value": 1
                    },
                    {
                        "number": 64,
                        "time": 114.29659338750001,
                        "value": 0
                    },
                    {
                        "number": 64,
                        "time": 114.64195761250002,
                        "value": 1
                    },
                    {
                        "number": 64,
                        "time": 114.77571138750002,
                        "value": 0
                    },
                    {
                        "number": 64,
                        "time": 115.01726671250003,
                        "value": 1
                    },
                    {
                        "number": 64,
                        "time": 115.45645821250004,
                        "value": 0
                    },
                    {
                        "number": 64,
                        "time": 115.49638471250005,
                        "value": 1
                    },
                    {
                        "number": 64,
                        "time": 116.32885223750004,
                        "value": 0
                    },
                    {
                        "number": 64,
                        "time": 116.49454721250004,
                        "value": 1
                    },
                    {
                        "number": 64,
                        "time": 117.30405700000004,
                        "value": 0
                    },
                    {
                        "number": 64,
                        "time": 117.40686773750004,
                        "value": 1
                    },
                    {
                        "number": 64,
                        "time": 117.77219521250004,
                        "value": 0
                    },
                    {
                        "number": 64,
                        "time": 117.89796368750004,
                        "value": 1
                    },
                    {
                        "number": 64,
                        "time": 118.31419745000004,
                        "value": 0
                    },
                    {
                        "number": 64,
                        "time": 118.35312578750005,
                        "value": 1
                    },
                    {
                        "number": 64,
                        "time": 118.84621806250004,
                        "value": 0
                    },
                    {
                        "number": 64,
                        "time": 118.87017396250005,
                        "value": 1
                    },
                    {
                        "number": 64,
                        "time": 119.22252532500003,
                        "value": 0
                    },
                    {
                        "number": 64,
                        "time": 119.38522581250004,
                        "value": 1
                    },
                    {
                        "number": 64,
                        "time": 120.27259227500004,
                        "value": 0
                    },
                    {
                        "number": 64,
                        "time": 120.38538463750004,
                        "value": 1
                    },
                    {
                        "number": 64,
                        "time": 120.58302081250004,
                        "value": 0
                    },
                    {
                        "number": 64,
                        "time": 122.26692095000006,
                        "value": 1
                    },
                    {
                        "number": 64,
                        "time": 122.65420800000005,
                        "value": 0
                    },
                    {
                        "number": 64,
                        "time": 122.72507753750006,
                        "value": 1
                    },
                    {
                        "number": 64,
                        "time": 123.55654690000006,
                        "value": 0
                    },
                    {
                        "number": 64,
                        "time": 123.61943113750006,
                        "value": 1
                    },
                    {
                        "number": 64,
                        "time": 124.09156200000005,
                        "value": 0
                    },
                    {
                        "number": 64,
                        "time": 124.13348482500005,
                        "value": 1
                    },
                    {
                        "number": 64,
                        "time": 124.93001850000006,
                        "value": 0
                    },
                    {
                        "number": 64,
                        "time": 125.09172082500007,
                        "value": 1
                    },
                    {
                        "number": 64,
                        "time": 126.26156727500006,
                        "value": 0
                    },
                    {
                        "number": 64,
                        "time": 126.43824203750006,
                        "value": 1
                    },
                    {
                        "number": 64,
                        "time": 126.89540046250008,
                        "value": 0
                    },
                    {
                        "number": 64,
                        "time": 127.93848027500007,
                        "value": 1
                    },
                    {
                        "number": 64,
                        "time": 128.7839239125001,
                        "value": 0
                    },
                    {
                        "number": 64,
                        "time": 128.9246648250001,
                        "value": 1
                    },
                    {
                        "number": 64,
                        "time": 129.2350933625001,
                        "value": 0
                    },
                    {
                        "number": 64,
                        "time": 129.4177571000001,
                        "value": 1
                    },
                    {
                        "number": 64,
                        "time": 130.25621360000008,
                        "value": 0
                    },
                    {
                        "number": 64,
                        "time": 130.3690059625001,
                        "value": 1
                    },
                    {
                        "number": 64,
                        "time": 130.7143701875001,
                        "value": 0
                    },
                    {
                        "number": 64,
                        "time": 130.7992140000001,
                        "value": 1
                    },
                    {
                        "number": 64,
                        "time": 131.2254293875001,
                        "value": 0
                    },
                    {
                        "number": 64,
                        "time": 131.3851353875001,
                        "value": 1
                    },
                    {
                        "number": 64,
                        "time": 131.94410638750009,
                        "value": 0
                    },
                    {
                        "number": 64,
                        "time": 132.2365680000001,
                        "value": 1
                    },
                    {
                        "number": 64,
                        "time": 132.99716782500008,
                        "value": 0
                    },
                    {
                        "number": 64,
                        "time": 133.27266067500008,
                        "value": 1
                    },
                    {
                        "number": 64,
                        "time": 133.5820910500001,
                        "value": 0
                    },
                    {
                        "number": 64,
                        "time": 133.7647547875001,
                        "value": 1
                    },
                    {
                        "number": 64,
                        "time": 134.7229907875001,
                        "value": 0
                    },
                    {
                        "number": 64,
                        "time": 135.1531988250001,
                        "value": 1
                    },
                    {
                        "number": 64,
                        "time": 136.00562960000008,
                        "value": 0
                    },
                    {
                        "number": 64,
                        "time": 136.0764991375001,
                        "value": 1
                    },
                    {
                        "number": 64,
                        "time": 136.4428247750001,
                        "value": 0
                    },
                    {
                        "number": 64,
                        "time": 136.57158773750012,
                        "value": 1
                    },
                    {
                        "number": 64,
                        "time": 137.6775517875001,
                        "value": 0
                    },
                    {
                        "number": 64,
                        "time": 137.98598400000012,
                        "value": 1
                    },
                    {
                        "number": 64,
                        "time": 138.7465838250001,
                        "value": 0
                    },
                    {
                        "number": 64,
                        "time": 139.0220766750001,
                        "value": 1
                    },
                    {
                        "number": 64,
                        "time": 139.3315070500001,
                        "value": 0
                    },
                    {
                        "number": 64,
                        "time": 139.51417078750012,
                        "value": 1
                    },
                    {
                        "number": 64,
                        "time": 140.47240678750012,
                        "value": 0
                    },
                    {
                        "number": 64,
                        "time": 140.90261482500011,
                        "value": 1
                    },
                    {
                        "number": 64,
                        "time": 141.7550456000001,
                        "value": 0
                    },
                    {
                        "number": 64,
                        "time": 141.8259151375001,
                        "value": 1
                    },
                    {
                        "number": 64,
                        "time": 142.1922407750001,
                        "value": 0
                    },
                    {
                        "number": 64,
                        "time": 142.32100373750012,
                        "value": 1
                    },
                    {
                        "number": 64,
                        "time": 142.71727425000012,
                        "value": 0
                    },
                    {
                        "number": 64,
                        "time": 142.80012173750012,
                        "value": 1
                    },
                    {
                        "number": 64,
                        "time": 143.6096315250001,
                        "value": 0
                    },
                    {
                        "number": 64,
                        "time": 143.7773228250001,
                        "value": 1
                    },
                    {
                        "number": 64,
                        "time": 144.6297536000001,
                        "value": 0
                    },
                    {
                        "number": 64,
                        "time": 144.7006231375001,
                        "value": 1
                    },
                    {
                        "number": 64,
                        "time": 145.0669487750001,
                        "value": 0
                    },
                    {
                        "number": 64,
                        "time": 145.46521561250012,
                        "value": 1
                    },
                    {
                        "number": 64,
                        "time": 145.91838138750012,
                        "value": 0
                    },
                    {
                        "number": 64,
                        "time": 146.26374561250012,
                        "value": 1
                    },
                    {
                        "number": 64,
                        "time": 146.39749938750012,
                        "value": 0
                    },
                    {
                        "number": 64,
                        "time": 146.6520308250001,
                        "value": 1
                    },
                    {
                        "number": 64,
                        "time": 147.5044616000001,
                        "value": 0
                    },
                    {
                        "number": 64,
                        "time": 147.57533113750011,
                        "value": 1
                    },
                    {
                        "number": 64,
                        "time": 147.94165677500013,
                        "value": 0
                    },
                    {
                        "number": 64,
                        "time": 148.07041973750015,
                        "value": 1
                    },
                    {
                        "number": 64,
                        "time": 148.46669025000014,
                        "value": 0
                    },
                    {
                        "number": 64,
                        "time": 148.54953773750015,
                        "value": 1
                    },
                    {
                        "number": 64,
                        "time": 149.3590475250002,
                        "value": 0
                    },
                    {
                        "number": 64,
                        "time": 149.5267388250002,
                        "value": 1
                    },
                    {
                        "number": 64,
                        "time": 150.37916960000018,
                        "value": 0
                    },
                    {
                        "number": 64,
                        "time": 150.4500391375002,
                        "value": 1
                    },
                    {
                        "number": 64,
                        "time": 150.8163647750002,
                        "value": 0
                    },
                    {
                        "number": 64,
                        "time": 151.21463161250023,
                        "value": 1
                    },
                    {
                        "number": 64,
                        "time": 151.78158791250024,
                        "value": 0
                    },
                    {
                        "number": 64,
                        "time": 151.88040600000025,
                        "value": 1
                    },
                    {
                        "number": 64,
                        "time": 152.14691538750026,
                        "value": 0
                    },
                    {
                        "number": 64,
                        "time": 152.40144682500025,
                        "value": 1
                    },
                    {
                        "number": 64,
                        "time": 153.25387760000024,
                        "value": 0
                    },
                    {
                        "number": 64,
                        "time": 153.32474713750022,
                        "value": 1
                    },
                    {
                        "number": 64,
                        "time": 153.69107277500024,
                        "value": 0
                    },
                    {
                        "number": 64,
                        "time": 153.81983573750026,
                        "value": 1
                    },
                    {
                        "number": 64,
                        "time": 154.21610625000025,
                        "value": 0
                    },
                    {
                        "number": 64,
                        "time": 154.29895373750026,
                        "value": 1
                    },
                    {
                        "number": 64,
                        "time": 155.10846352500025,
                        "value": 0
                    },
                    {
                        "number": 64,
                        "time": 155.27615482500025,
                        "value": 1
                    },
                    {
                        "number": 64,
                        "time": 156.12858560000024,
                        "value": 0
                    },
                    {
                        "number": 64,
                        "time": 156.19945513750022,
                        "value": 1
                    },
                    {
                        "number": 64,
                        "time": 156.56578077500023,
                        "value": 0
                    },
                    {
                        "number": 64,
                        "time": 156.96404761250025,
                        "value": 1
                    },
                    {
                        "number": 64,
                        "time": 157.62982200000027,
                        "value": 0
                    },
                    {
                        "number": 64,
                        "time": 157.76257761250028,
                        "value": 1
                    },
                    {
                        "number": 64,
                        "time": 157.89633138750028,
                        "value": 0
                    },
                    {
                        "number": 64,
                        "time": 158.22871950000027,
                        "value": 1
                    },
                    {
                        "number": 64,
                        "time": 159.0671760000003,
                        "value": 0
                    },
                    {
                        "number": 64,
                        "time": 159.1999316125003,
                        "value": 1
                    },
                    {
                        "number": 64,
                        "time": 159.3336853875003,
                        "value": 0
                    },
                    {
                        "number": 64,
                        "time": 159.6061837500003,
                        "value": 1
                    },
                    {
                        "number": 64,
                        "time": 160.50453000000033,
                        "value": 0
                    },
                    {
                        "number": 64,
                        "time": 160.63728561250034,
                        "value": 1
                    },
                    {
                        "number": 64,
                        "time": 160.77103938750034,
                        "value": 0
                    },
                    {
                        "number": 64,
                        "time": 161.04353775000033,
                        "value": 1
                    },
                    {
                        "number": 64,
                        "time": 161.94188400000036,
                        "value": 0
                    },
                    {
                        "number": 64,
                        "time": 162.07463961250036,
                        "value": 1
                    },
                    {
                        "number": 64,
                        "time": 162.20839338750037,
                        "value": 0
                    },
                    {
                        "number": 64,
                        "time": 162.71346361250036,
                        "value": 1
                    },
                    {
                        "number": 64,
                        "time": 163.37923800000038,
                        "value": 0
                    },
                    {
                        "number": 64,
                        "time": 163.5119936125004,
                        "value": 1
                    },
                    {
                        "number": 64,
                        "time": 163.6457473875004,
                        "value": 0
                    },
                    {
                        "number": 64,
                        "time": 163.85835600000038,
                        "value": 1
                    },
                    {
                        "number": 64,
                        "time": 165.64806136250044,
                        "value": 0
                    }
                ]
            },
            "id": 2,
            "name": "Piano left",
            "instrumentNumber": 0,
            "instrument": "acoustic grand piano",
            "instrumentFamily": "piano",
            "channelNumber": 0,
            "isPercussion": false
        },
        {
            "startTime": 0,
            "duration": 0,
            "length": 0,
            "notes": [],
            "controlChanges": {},
            "id": 3,
            "name": "Borodin: Petite Suite, Intermezzo"
        },
        {
            "startTime": 0,
            "duration": 0,
            "length": 0,
            "notes": [],
            "controlChanges": {},
            "id": 4,
            "name": "Copyright  2000 by Bernd Krger"
        },
        {
            "startTime": 0,
            "duration": 0,
            "length": 0,
            "notes": [],
            "controlChanges": {},
            "id": 5,
            "name": "email: bernd.krueger@piano-midi.de"
        },
        {
            "startTime": 0,
            "duration": 0,
            "length": 0,
            "notes": [],
            "controlChanges": {},
            "id": 6,
            "name": "http://www.piano-midi.de"
        },
        {
            "startTime": 0,
            "duration": 0,
            "length": 0,
            "notes": [],
            "controlChanges": {},
            "id": 7,
            "name": "Edition: 21.8.00"
        },
        {
            "startTime": 0,
            "duration": 0,
            "length": 0,
            "notes": [],
            "controlChanges": {},
            "id": 8
        }
    ]
}