{
    "header": {
        "PPQ": 480,
        "timeSignature": [
            4,
            4
        ],
        "bpm": 81.07001611942154,
        "name": "7. Nocturne"
    },
    "startTime": 0,
    "duration": 124.33696799999998,
    "tracks": [
        {
            "startTime": 0,
            "duration": 0,
            "length": 0,
            "notes": [],
            "controlChanges": {},
            "id": 0,
            "name": "7. Nocturne"
        },
        {
            "startTime": 2.5903535000000004,
            "duration": 122.48671550000053,
            "length": 469,
            "notes": [
                {
                    "name": "G#4",
                    "midi": 68,
                    "time": 2.5903535000000004,
                    "velocity": 0.4015748031496063,
                    "duration": 0.37005050000000006
                },
                {
                    "name": "D#4",
                    "midi": 63,
                    "time": 2.9604040000000005,
                    "velocity": 0.36220472440944884,
                    "duration": 1.1101514999999997
                },
                {
                    "name": "B3",
                    "midi": 59,
                    "time": 2.9604040000000005,
                    "velocity": 0.36220472440944884,
                    "duration": 1.1101514999999997
                },
                {
                    "name": "G#4",
                    "midi": 68,
                    "time": 2.9604040000000005,
                    "velocity": 0.4330708661417323,
                    "duration": 0.37005050000000006
                },
                {
                    "name": "A#4",
                    "midi": 70,
                    "time": 3.3304545000000005,
                    "velocity": 0.3858267716535433,
                    "duration": 0.37005050000000006
                },
                {
                    "name": "A#4",
                    "midi": 70,
                    "time": 3.7005050000000006,
                    "velocity": 0.4015748031496063,
                    "duration": 0.3700504999999996
                },
                {
                    "name": "G#4",
                    "midi": 68,
                    "time": 4.0705555,
                    "velocity": 0.3858267716535433,
                    "duration": 0.3700504999999996
                },
                {
                    "name": "B3",
                    "midi": 59,
                    "time": 4.0705555,
                    "velocity": 0.3858267716535433,
                    "duration": 0.3700504999999996
                },
                {
                    "name": "D#4",
                    "midi": 63,
                    "time": 4.0705555,
                    "velocity": 0.3858267716535433,
                    "duration": 0.3700504999999996
                },
                {
                    "name": "B3",
                    "midi": 59,
                    "time": 4.440606,
                    "velocity": 0.36220472440944884,
                    "duration": 1.1101514999999988
                },
                {
                    "name": "D#4",
                    "midi": 63,
                    "time": 4.440606,
                    "velocity": 0.36220472440944884,
                    "duration": 1.1101514999999988
                },
                {
                    "name": "G#4",
                    "midi": 68,
                    "time": 4.440606,
                    "velocity": 0.4330708661417323,
                    "duration": 0.3700504999999996
                },
                {
                    "name": "A#4",
                    "midi": 70,
                    "time": 4.8106564999999994,
                    "velocity": 0.4015748031496063,
                    "duration": 0.3700504999999996
                },
                {
                    "name": "A#4",
                    "midi": 70,
                    "time": 5.180706999999999,
                    "velocity": 0.4094488188976378,
                    "duration": 0.3700504999999996
                },
                {
                    "name": "G#4",
                    "midi": 68,
                    "time": 5.550757499999999,
                    "velocity": 0.4409448818897638,
                    "duration": 0.3700504999999996
                },
                {
                    "name": "B3",
                    "midi": 59,
                    "time": 5.550757499999999,
                    "velocity": 0.3700787401574803,
                    "duration": 0.3700504999999996
                },
                {
                    "name": "D4",
                    "midi": 62,
                    "time": 5.550757499999999,
                    "velocity": 0.3700787401574803,
                    "duration": 0.3700504999999996
                },
                {
                    "name": "B3",
                    "midi": 59,
                    "time": 5.920807999999998,
                    "velocity": 0.3858267716535433,
                    "duration": 1.1101514999999988
                },
                {
                    "name": "D4",
                    "midi": 62,
                    "time": 5.920807999999998,
                    "velocity": 0.3858267716535433,
                    "duration": 1.1101514999999988
                },
                {
                    "name": "G#4",
                    "midi": 68,
                    "time": 5.920807999999998,
                    "velocity": 0.4566929133858268,
                    "duration": 0.3700504999999996
                },
                {
                    "name": "A#4",
                    "midi": 70,
                    "time": 6.290858499999998,
                    "velocity": 0.41732283464566927,
                    "duration": 0.3700504999999996
                },
                {
                    "name": "A#4",
                    "midi": 70,
                    "time": 6.6609089999999975,
                    "velocity": 0.4330708661417323,
                    "duration": 0.3700504999999996
                },
                {
                    "name": "D4",
                    "midi": 62,
                    "time": 7.030959499999997,
                    "velocity": 0.3779527559055118,
                    "duration": 0.3700504999999996
                },
                {
                    "name": "B3",
                    "midi": 59,
                    "time": 7.030959499999997,
                    "velocity": 0.3779527559055118,
                    "duration": 0.3700504999999996
                },
                {
                    "name": "G#4",
                    "midi": 68,
                    "time": 7.030959499999997,
                    "velocity": 0.44881889763779526,
                    "duration": 0.3700504999999996
                },
                {
                    "name": "B3",
                    "midi": 59,
                    "time": 7.401009999999997,
                    "velocity": 0.3937007874015748,
                    "duration": 1.1101514999999997
                },
                {
                    "name": "D#4",
                    "midi": 63,
                    "time": 7.401009999999997,
                    "velocity": 0.3937007874015748,
                    "duration": 1.1101514999999997
                },
                {
                    "name": "G#4",
                    "midi": 68,
                    "time": 7.401009999999997,
                    "velocity": 0.47244094488188976,
                    "duration": 0.3700504999999996
                },
                {
                    "name": "A#4",
                    "midi": 70,
                    "time": 7.771060499999996,
                    "velocity": 0.4409448818897638,
                    "duration": 0.3700505000000005
                },
                {
                    "name": "A#4",
                    "midi": 70,
                    "time": 8.141110999999997,
                    "velocity": 0.4409448818897638,
                    "duration": 0.3700504999999996
                },
                {
                    "name": "E4",
                    "midi": 64,
                    "time": 8.511161499999996,
                    "velocity": 0.3937007874015748,
                    "duration": 0.3700504999999996
                },
                {
                    "name": "B3",
                    "midi": 59,
                    "time": 8.511161499999996,
                    "velocity": 0.3937007874015748,
                    "duration": 0.3700504999999996
                },
                {
                    "name": "G#4",
                    "midi": 68,
                    "time": 8.511161499999996,
                    "velocity": 0.47244094488188976,
                    "duration": 0.3700504999999996
                },
                {
                    "name": "B3",
                    "midi": 59,
                    "time": 8.881211999999996,
                    "velocity": 0.4094488188976378,
                    "duration": 2.2203029999999977
                },
                {
                    "name": "F4",
                    "midi": 65,
                    "time": 8.881211999999996,
                    "velocity": 0.4094488188976378,
                    "duration": 2.2203029999999977
                },
                {
                    "name": "G#4",
                    "midi": 68,
                    "time": 8.881211999999996,
                    "velocity": 0.4881889763779528,
                    "duration": 0.3700504999999996
                },
                {
                    "name": "A#4",
                    "midi": 70,
                    "time": 9.251262499999996,
                    "velocity": 0.44881889763779526,
                    "duration": 0.3700504999999996
                },
                {
                    "name": "A#4",
                    "midi": 70,
                    "time": 9.621312999999995,
                    "velocity": 0.4566929133858268,
                    "duration": 0.3700504999999996
                },
                {
                    "name": "G#4",
                    "midi": 68,
                    "time": 9.991363499999995,
                    "velocity": 0.3700787401574803,
                    "duration": 0.3700504999999996
                },
                {
                    "name": "G#4",
                    "midi": 68,
                    "time": 10.361413999999995,
                    "velocity": 0.4015748031496063,
                    "duration": 0.3700504999999996
                },
                {
                    "name": "C#5",
                    "midi": 73,
                    "time": 10.731464499999994,
                    "velocity": 0.33070866141732286,
                    "duration": 0.3700504999999996
                },
                {
                    "name": "C#5",
                    "midi": 73,
                    "time": 11.101514999999994,
                    "velocity": 0.31496062992125984,
                    "duration": 0.7401009999999992
                },
                {
                    "name": "A#3",
                    "midi": 58,
                    "time": 14.431969499999994,
                    "velocity": 0.31496062992125984,
                    "duration": 0.3700504999999996
                },
                {
                    "name": "F#4",
                    "midi": 66,
                    "time": 14.431969499999994,
                    "velocity": 0.36220472440944884,
                    "duration": 0.3700504999999996
                },
                {
                    "name": "F#4",
                    "midi": 66,
                    "time": 14.802019999999994,
                    "velocity": 0.3858267716535433,
                    "duration": 1.1101514999999988
                },
                {
                    "name": "A#3",
                    "midi": 58,
                    "time": 14.802019999999994,
                    "velocity": 0.3228346456692913,
                    "duration": 1.1101514999999988
                },
                {
                    "name": "A#4",
                    "midi": 70,
                    "time": 15.172070499999993,
                    "velocity": 0.3464566929133858,
                    "duration": 0.3700504999999996
                },
                {
                    "name": "A#4",
                    "midi": 70,
                    "time": 15.542120999999993,
                    "velocity": 0.36220472440944884,
                    "duration": 0.3700504999999996
                },
                {
                    "name": "A#3",
                    "midi": 58,
                    "time": 15.912171499999992,
                    "velocity": 0.30708661417322836,
                    "duration": 0.3700505000000014
                },
                {
                    "name": "F4",
                    "midi": 65,
                    "time": 15.912171499999992,
                    "velocity": 0.3464566929133858,
                    "duration": 0.3700505000000014
                },
                {
                    "name": "F4",
                    "midi": 65,
                    "time": 16.282221999999994,
                    "velocity": 0.3779527559055118,
                    "duration": 1.1101515000000042
                },
                {
                    "name": "A#3",
                    "midi": 58,
                    "time": 16.282221999999994,
                    "velocity": 0.33070866141732286,
                    "duration": 1.1101515000000042
                },
                {
                    "name": "A#4",
                    "midi": 70,
                    "time": 16.652272499999995,
                    "velocity": 0.3543307086614173,
                    "duration": 0.3700505000000014
                },
                {
                    "name": "A#4",
                    "midi": 70,
                    "time": 17.022322999999997,
                    "velocity": 0.3700787401574803,
                    "duration": 0.3700505000000014
                },
                {
                    "name": "A#3",
                    "midi": 58,
                    "time": 17.392373499999998,
                    "velocity": 0.2992125984251969,
                    "duration": 0.3700505000000014
                },
                {
                    "name": "D#4",
                    "midi": 63,
                    "time": 17.392373499999998,
                    "velocity": 0.33070866141732286,
                    "duration": 0.3700505000000014
                },
                {
                    "name": "D#4",
                    "midi": 63,
                    "time": 17.762424,
                    "velocity": 0.3858267716535433,
                    "duration": 1.1101515000000042
                },
                {
                    "name": "A#3",
                    "midi": 58,
                    "time": 17.762424,
                    "velocity": 0.3464566929133858,
                    "duration": 1.1101515000000042
                },
                {
                    "name": "A#4",
                    "midi": 70,
                    "time": 18.1324745,
                    "velocity": 0.3464566929133858,
                    "duration": 0.3700505000000014
                },
                {
                    "name": "A#4",
                    "midi": 70,
                    "time": 18.502525000000002,
                    "velocity": 0.36220472440944884,
                    "duration": 0.3700505000000014
                },
                {
                    "name": "C#4",
                    "midi": 61,
                    "time": 18.872575500000004,
                    "velocity": 0.3464566929133858,
                    "duration": 0.27753787500000016
                },
                {
                    "name": "A#3",
                    "midi": 58,
                    "time": 18.872575500000004,
                    "velocity": 0.30708661417322836,
                    "duration": 0.27753787500000016
                },
                {
                    "name": "A#3",
                    "midi": 58,
                    "time": 19.242626000000005,
                    "velocity": 0.33070866141732286,
                    "duration": 0.27753787500000016
                },
                {
                    "name": "D#4",
                    "midi": 63,
                    "time": 19.242626000000005,
                    "velocity": 0.3779527559055118,
                    "duration": 0.27753787500000016
                },
                {
                    "name": "A#3",
                    "midi": 58,
                    "time": 19.612676500000006,
                    "velocity": 0.33070866141732286,
                    "duration": 0.27753787500000016
                },
                {
                    "name": "F4",
                    "midi": 65,
                    "time": 19.612676500000006,
                    "velocity": 0.33070866141732286,
                    "duration": 0.27753787500000016
                },
                {
                    "name": "F#4",
                    "midi": 66,
                    "time": 19.982727000000008,
                    "velocity": 0.3779527559055118,
                    "duration": 0.27753787500000016
                },
                {
                    "name": "A#3",
                    "midi": 58,
                    "time": 19.982727000000008,
                    "velocity": 0.33070866141732286,
                    "duration": 0.27753787500000016
                },
                {
                    "name": "A#3",
                    "midi": 58,
                    "time": 20.35277750000001,
                    "velocity": 0.3464566929133858,
                    "duration": 0.27753787500000016
                },
                {
                    "name": "A#4",
                    "midi": 70,
                    "time": 20.35277750000001,
                    "velocity": 0.3464566929133858,
                    "duration": 0.27753787500000016
                },
                {
                    "name": "B3",
                    "midi": 59,
                    "time": 20.72282800000001,
                    "velocity": 0.3464566929133858,
                    "duration": 1.1101515000000042
                },
                {
                    "name": "G#4",
                    "midi": 68,
                    "time": 20.72282800000001,
                    "velocity": 0.3858267716535433,
                    "duration": 1.1101515000000042
                },
                {
                    "name": "B4",
                    "midi": 71,
                    "time": 21.092878500000012,
                    "velocity": 0.3464566929133858,
                    "duration": 0.3700505000000014
                },
                {
                    "name": "B4",
                    "midi": 71,
                    "time": 21.462929000000013,
                    "velocity": 0.36220472440944884,
                    "duration": 0.3700505000000014
                },
                {
                    "name": "F#4",
                    "midi": 66,
                    "time": 21.832979500000015,
                    "velocity": 0.3464566929133858,
                    "duration": 0.3700505000000014
                },
                {
                    "name": "B3",
                    "midi": 59,
                    "time": 21.832979500000015,
                    "velocity": 0.30708661417322836,
                    "duration": 0.3700505000000014
                },
                {
                    "name": "B3",
                    "midi": 59,
                    "time": 22.203030000000016,
                    "velocity": 0.33070866141732286,
                    "duration": 1.1101515000000042
                },
                {
                    "name": "F#4",
                    "midi": 66,
                    "time": 22.203030000000016,
                    "velocity": 0.3779527559055118,
                    "duration": 1.1101515000000042
                },
                {
                    "name": "B4",
                    "midi": 71,
                    "time": 22.573080500000017,
                    "velocity": 0.3543307086614173,
                    "duration": 0.3700505000000014
                },
                {
                    "name": "B4",
                    "midi": 71,
                    "time": 22.94313100000002,
                    "velocity": 0.3700787401574803,
                    "duration": 0.3700505000000014
                },
                {
                    "name": "F4",
                    "midi": 65,
                    "time": 23.31318150000002,
                    "velocity": 0.33070866141732286,
                    "duration": 0.3700505000000014
                },
                {
                    "name": "B3",
                    "midi": 59,
                    "time": 23.31318150000002,
                    "velocity": 0.2992125984251969,
                    "duration": 0.3700505000000014
                },
                {
                    "name": "B3",
                    "midi": 59,
                    "time": 23.68323200000002,
                    "velocity": 0.3464566929133858,
                    "duration": 1.1101515000000042
                },
                {
                    "name": "F4",
                    "midi": 65,
                    "time": 23.68323200000002,
                    "velocity": 0.3858267716535433,
                    "duration": 1.1101515000000042
                },
                {
                    "name": "B4",
                    "midi": 71,
                    "time": 24.053282500000023,
                    "velocity": 0.3464566929133858,
                    "duration": 0.3700505000000014
                },
                {
                    "name": "B4",
                    "midi": 71,
                    "time": 24.423333000000024,
                    "velocity": 0.36220472440944884,
                    "duration": 0.3700505000000014
                },
                {
                    "name": "F4",
                    "midi": 65,
                    "time": 24.793383500000026,
                    "velocity": 0.3464566929133858,
                    "duration": 0.18502524999999892
                },
                {
                    "name": "B3",
                    "midi": 59,
                    "time": 24.793383500000026,
                    "velocity": 0.30708661417322836,
                    "duration": 0.37005049999999784
                },
                {
                    "name": "B3",
                    "midi": 59,
                    "time": 25.163434000000024,
                    "velocity": 0.33070866141732286,
                    "duration": 1.4802020000000056
                },
                {
                    "name": "F#4",
                    "midi": 66,
                    "time": 25.163434000000024,
                    "velocity": 0.3779527559055118,
                    "duration": 0.27753787500000016
                },
                {
                    "name": "F4",
                    "midi": 65,
                    "time": 25.533484500000025,
                    "velocity": 0.33070866141732286,
                    "duration": 0.27753787500000016
                },
                {
                    "name": "F#4",
                    "midi": 66,
                    "time": 25.903535000000026,
                    "velocity": 0.3779527559055118,
                    "duration": 0.27753787500000016
                },
                {
                    "name": "G#4",
                    "midi": 68,
                    "time": 26.273585500000028,
                    "velocity": 0.3464566929133858,
                    "duration": 0.27753787500000016
                },
                {
                    "name": "A#3",
                    "midi": 58,
                    "time": 26.64363600000003,
                    "velocity": 0.3464566929133858,
                    "duration": 1.1101515000000042
                },
                {
                    "name": "F#4",
                    "midi": 66,
                    "time": 26.64363600000003,
                    "velocity": 0.3858267716535433,
                    "duration": 1.1101515000000042
                },
                {
                    "name": "A#4",
                    "midi": 70,
                    "time": 27.01368650000003,
                    "velocity": 0.3464566929133858,
                    "duration": 0.3700505000000014
                },
                {
                    "name": "A#4",
                    "midi": 70,
                    "time": 27.383737000000032,
                    "velocity": 0.3937007874015748,
                    "duration": 0.3700505000000014
                },
                {
                    "name": "A#3",
                    "midi": 58,
                    "time": 27.753787500000033,
                    "velocity": 0.3464566929133858,
                    "duration": 0.3700505000000014
                },
                {
                    "name": "F4",
                    "midi": 65,
                    "time": 27.753787500000033,
                    "velocity": 0.3779527559055118,
                    "duration": 0.3700505000000014
                },
                {
                    "name": "A#3",
                    "midi": 58,
                    "time": 28.123838000000035,
                    "velocity": 0.3937007874015748,
                    "duration": 1.1101515000000042
                },
                {
                    "name": "F4",
                    "midi": 65,
                    "time": 28.123838000000035,
                    "velocity": 0.44881889763779526,
                    "duration": 1.1101515000000042
                },
                {
                    "name": "A#4",
                    "midi": 70,
                    "time": 28.493888500000036,
                    "velocity": 0.4330708661417323,
                    "duration": 0.3700505000000014
                },
                {
                    "name": "A#4",
                    "midi": 70,
                    "time": 28.863939000000038,
                    "velocity": 0.48031496062992124,
                    "duration": 0.3700505000000014
                },
                {
                    "name": "E4",
                    "midi": 64,
                    "time": 29.23398950000004,
                    "velocity": 0.44881889763779526,
                    "duration": 0.3700505000000014
                },
                {
                    "name": "A#3",
                    "midi": 58,
                    "time": 29.23398950000004,
                    "velocity": 0.3937007874015748,
                    "duration": 0.3700505000000014
                },
                {
                    "name": "A#3",
                    "midi": 58,
                    "time": 29.60404000000004,
                    "velocity": 0.4881889763779528,
                    "duration": 1.1101515000000042
                },
                {
                    "name": "E4",
                    "midi": 64,
                    "time": 29.60404000000004,
                    "velocity": 0.5511811023622047,
                    "duration": 1.1101515000000042
                },
                {
                    "name": "A#4",
                    "midi": 70,
                    "time": 29.97409050000004,
                    "velocity": 0.4881889763779528,
                    "duration": 0.3700505000000014
                },
                {
                    "name": "A#4",
                    "midi": 70,
                    "time": 30.344141000000043,
                    "velocity": 0.5196850393700787,
                    "duration": 0.3700505000000014
                },
                {
                    "name": "E4",
                    "midi": 64,
                    "time": 30.714191500000044,
                    "velocity": 0.4881889763779528,
                    "duration": 0.3700505000000014
                },
                {
                    "name": "A#3",
                    "midi": 58,
                    "time": 30.714191500000044,
                    "velocity": 0.4409448818897638,
                    "duration": 0.3700505000000014
                },
                {
                    "name": "A#3",
                    "midi": 58,
                    "time": 31.084242000000046,
                    "velocity": 0.4645669291338583,
                    "duration": 1.1101515000000006
                },
                {
                    "name": "E4",
                    "midi": 64,
                    "time": 31.084242000000046,
                    "velocity": 0.5196850393700787,
                    "duration": 0.7401010000000028
                },
                {
                    "name": "C5",
                    "midi": 72,
                    "time": 31.454292500000047,
                    "velocity": 0.4645669291338583,
                    "duration": 0.3700505000000014
                },
                {
                    "name": "C5",
                    "midi": 72,
                    "time": 31.82434300000005,
                    "velocity": 0.4566929133858268,
                    "duration": 0.37005049999999784
                },
                {
                    "name": "A#4",
                    "midi": 70,
                    "time": 32.19439350000005,
                    "velocity": 0.3858267716535433,
                    "duration": 0.37005049999999784
                },
                {
                    "name": "E4",
                    "midi": 64,
                    "time": 32.19439350000005,
                    "velocity": 0.3858267716535433,
                    "duration": 0.37005049999999784
                },
                {
                    "name": "F4",
                    "midi": 65,
                    "time": 32.564444000000044,
                    "velocity": 0.3543307086614173,
                    "duration": 1.1101515000000006
                },
                {
                    "name": "A4",
                    "midi": 69,
                    "time": 32.564444000000044,
                    "velocity": 0.3937007874015748,
                    "duration": 1.1101515000000006
                },
                {
                    "name": "C4",
                    "midi": 60,
                    "time": 32.564444000000044,
                    "velocity": 0.3543307086614173,
                    "duration": 1.1101515000000006
                },
                {
                    "name": "C4",
                    "midi": 60,
                    "time": 33.674595500000045,
                    "velocity": 0.33070866141732286,
                    "duration": 0.37005049999999784
                },
                {
                    "name": "G4",
                    "midi": 67,
                    "time": 33.674595500000045,
                    "velocity": 0.3779527559055118,
                    "duration": 0.37005049999999784
                },
                {
                    "name": "C5",
                    "midi": 72,
                    "time": 33.674595500000045,
                    "velocity": 0.3779527559055118,
                    "duration": 0.37005049999999784
                },
                {
                    "name": "C5",
                    "midi": 72,
                    "time": 34.04464600000004,
                    "velocity": 0.3937007874015748,
                    "duration": 1.1101515000000006
                },
                {
                    "name": "G4",
                    "midi": 67,
                    "time": 34.04464600000004,
                    "velocity": 0.3937007874015748,
                    "duration": 1.1101515000000006
                },
                {
                    "name": "C4",
                    "midi": 60,
                    "time": 34.04464600000004,
                    "velocity": 0.3543307086614173,
                    "duration": 1.1101515000000006
                },
                {
                    "name": "A4",
                    "midi": 69,
                    "time": 35.15479750000004,
                    "velocity": 0.4094488188976378,
                    "duration": 0.37005049999999784
                },
                {
                    "name": "F4",
                    "midi": 65,
                    "time": 35.15479750000004,
                    "velocity": 0.4094488188976378,
                    "duration": 0.37005049999999784
                },
                {
                    "name": "D5",
                    "midi": 74,
                    "time": 35.15479750000004,
                    "velocity": 0.4566929133858268,
                    "duration": 0.37005049999999784
                },
                {
                    "name": "F4",
                    "midi": 65,
                    "time": 35.52484800000004,
                    "velocity": 0.4330708661417323,
                    "duration": 1.1101515000000006
                },
                {
                    "name": "A4",
                    "midi": 69,
                    "time": 35.52484800000004,
                    "velocity": 0.4330708661417323,
                    "duration": 1.1101515000000006
                },
                {
                    "name": "D5",
                    "midi": 74,
                    "time": 35.52484800000004,
                    "velocity": 0.4881889763779528,
                    "duration": 1.1101515000000006
                },
                {
                    "name": "F5",
                    "midi": 77,
                    "time": 36.63499950000004,
                    "velocity": 0.4409448818897638,
                    "duration": 0.27753787500000016
                },
                {
                    "name": "A4",
                    "midi": 69,
                    "time": 36.63499950000004,
                    "velocity": 0.3858267716535433,
                    "duration": 0.27753787500000016
                },
                {
                    "name": "C5",
                    "midi": 72,
                    "time": 36.63499950000004,
                    "velocity": 0.3858267716535433,
                    "duration": 0.27753787500000016
                },
                {
                    "name": "F4",
                    "midi": 65,
                    "time": 37.00505000000004,
                    "velocity": 0.4330708661417323,
                    "duration": 0.27753787500000016
                },
                {
                    "name": "A4",
                    "midi": 69,
                    "time": 37.00505000000004,
                    "velocity": 0.4330708661417323,
                    "duration": 0.27753787500000016
                },
                {
                    "name": "D5",
                    "midi": 74,
                    "time": 37.00505000000004,
                    "velocity": 0.47244094488188976,
                    "duration": 0.27753787500000016
                },
                {
                    "name": "C5",
                    "midi": 72,
                    "time": 37.37510050000004,
                    "velocity": 0.3937007874015748,
                    "duration": 0.27753787500000016
                },
                {
                    "name": "E4",
                    "midi": 64,
                    "time": 37.37510050000004,
                    "velocity": 0.3543307086614173,
                    "duration": 0.27753787500000016
                },
                {
                    "name": "G4",
                    "midi": 67,
                    "time": 37.37510050000004,
                    "velocity": 0.3543307086614173,
                    "duration": 0.27753787500000016
                },
                {
                    "name": "C4",
                    "midi": 60,
                    "time": 37.745151000000035,
                    "velocity": 0.36220472440944884,
                    "duration": 0.27753787500000016
                },
                {
                    "name": "F4",
                    "midi": 65,
                    "time": 37.745151000000035,
                    "velocity": 0.36220472440944884,
                    "duration": 0.27753787500000016
                },
                {
                    "name": "A4",
                    "midi": 69,
                    "time": 37.745151000000035,
                    "velocity": 0.4015748031496063,
                    "duration": 0.27753787500000016
                },
                {
                    "name": "A#3",
                    "midi": 58,
                    "time": 38.11520150000003,
                    "velocity": 0.31496062992125984,
                    "duration": 0.27753787500000016
                },
                {
                    "name": "G4",
                    "midi": 67,
                    "time": 38.11520150000003,
                    "velocity": 0.3543307086614173,
                    "duration": 0.27753787500000016
                },
                {
                    "name": "D4",
                    "midi": 62,
                    "time": 38.11520150000003,
                    "velocity": 0.31496062992125984,
                    "duration": 0.27753787500000016
                },
                {
                    "name": "D4",
                    "midi": 62,
                    "time": 38.48525200000003,
                    "velocity": 0.3543307086614173,
                    "duration": 1.1101515000000006
                },
                {
                    "name": "A#3",
                    "midi": 58,
                    "time": 38.48525200000003,
                    "velocity": 0.3543307086614173,
                    "duration": 0.37005049999999784
                },
                {
                    "name": "G4",
                    "midi": 67,
                    "time": 38.48525200000003,
                    "velocity": 0.3937007874015748,
                    "duration": 1.1101515000000006
                },
                {
                    "name": "D4",
                    "midi": 62,
                    "time": 39.59540350000003,
                    "velocity": 0.33070866141732286,
                    "duration": 0.37005049999999784
                },
                {
                    "name": "G4",
                    "midi": 67,
                    "time": 39.59540350000003,
                    "velocity": 0.3779527559055118,
                    "duration": 0.37005049999999784
                },
                {
                    "name": "A#4",
                    "midi": 70,
                    "time": 39.59540350000003,
                    "velocity": 0.3779527559055118,
                    "duration": 0.37005049999999784
                },
                {
                    "name": "D4",
                    "midi": 62,
                    "time": 39.96545400000003,
                    "velocity": 0.3543307086614173,
                    "duration": 1.1101515000000006
                },
                {
                    "name": "A#4",
                    "midi": 70,
                    "time": 39.96545400000003,
                    "velocity": 0.3937007874015748,
                    "duration": 1.1101515000000006
                },
                {
                    "name": "G4",
                    "midi": 67,
                    "time": 39.96545400000003,
                    "velocity": 0.3937007874015748,
                    "duration": 1.1101515000000006
                },
                {
                    "name": "G4",
                    "midi": 67,
                    "time": 41.07560550000003,
                    "velocity": 0.4094488188976378,
                    "duration": 0.37005049999999784
                },
                {
                    "name": "A#4",
                    "midi": 70,
                    "time": 41.07560550000003,
                    "velocity": 0.4094488188976378,
                    "duration": 0.37005049999999784
                },
                {
                    "name": "D5",
                    "midi": 74,
                    "time": 41.07560550000003,
                    "velocity": 0.4566929133858268,
                    "duration": 0.37005049999999784
                },
                {
                    "name": "G4",
                    "midi": 67,
                    "time": 41.44565600000003,
                    "velocity": 0.4330708661417323,
                    "duration": 1.1101515000000006
                },
                {
                    "name": "A#4",
                    "midi": 70,
                    "time": 41.44565600000003,
                    "velocity": 0.4330708661417323,
                    "duration": 1.1101515000000006
                },
                {
                    "name": "D5",
                    "midi": 74,
                    "time": 41.44565600000003,
                    "velocity": 0.4881889763779528,
                    "duration": 1.1101515000000006
                },
                {
                    "name": "A#4",
                    "midi": 70,
                    "time": 42.55580750000003,
                    "velocity": 0.3937007874015748,
                    "duration": 0.27753787500000016
                },
                {
                    "name": "G4",
                    "midi": 67,
                    "time": 42.55580750000003,
                    "velocity": 0.3937007874015748,
                    "duration": 0.27753787500000016
                },
                {
                    "name": "D5",
                    "midi": 74,
                    "time": 42.55580750000003,
                    "velocity": 0.3937007874015748,
                    "duration": 0.27753787500000016
                },
                {
                    "name": "F5",
                    "midi": 77,
                    "time": 42.55580750000003,
                    "velocity": 0.44881889763779526,
                    "duration": 0.27753787500000016
                },
                {
                    "name": "G4",
                    "midi": 67,
                    "time": 42.92585800000003,
                    "velocity": 0.4409448818897638,
                    "duration": 0.27753787500000016
                },
                {
                    "name": "F5",
                    "midi": 77,
                    "time": 42.92585800000003,
                    "velocity": 0.4881889763779528,
                    "duration": 0.27753787500000016
                },
                {
                    "name": "A#4",
                    "midi": 70,
                    "time": 42.92585800000003,
                    "velocity": 0.4409448818897638,
                    "duration": 0.27753787500000016
                },
                {
                    "name": "D5",
                    "midi": 74,
                    "time": 42.92585800000003,
                    "velocity": 0.4409448818897638,
                    "duration": 0.27753787500000016
                },
                {
                    "name": "G4",
                    "midi": 67,
                    "time": 43.295908500000024,
                    "velocity": 0.36220472440944884,
                    "duration": 0.27753787500000016
                },
                {
                    "name": "A#4",
                    "midi": 70,
                    "time": 43.295908500000024,
                    "velocity": 0.36220472440944884,
                    "duration": 0.27753787500000016
                },
                {
                    "name": "E5",
                    "midi": 76,
                    "time": 43.295908500000024,
                    "velocity": 0.4094488188976378,
                    "duration": 0.27753787500000016
                },
                {
                    "name": "G4",
                    "midi": 67,
                    "time": 43.66595900000002,
                    "velocity": 0.3858267716535433,
                    "duration": 0.27753787500000016
                },
                {
                    "name": "F5",
                    "midi": 77,
                    "time": 43.66595900000002,
                    "velocity": 0.4330708661417323,
                    "duration": 0.27753787500000016
                },
                {
                    "name": "D5",
                    "midi": 74,
                    "time": 43.66595900000002,
                    "velocity": 0.3858267716535433,
                    "duration": 0.27753787500000016
                },
                {
                    "name": "A#4",
                    "midi": 70,
                    "time": 43.66595900000002,
                    "velocity": 0.3858267716535433,
                    "duration": 0.27753787500000016
                },
                {
                    "name": "C5",
                    "midi": 72,
                    "time": 44.03600950000002,
                    "velocity": 0.33070866141732286,
                    "duration": 0.27753787500000016
                },
                {
                    "name": "A#4",
                    "midi": 70,
                    "time": 44.03600950000002,
                    "velocity": 0.33070866141732286,
                    "duration": 0.27753787500000016
                },
                {
                    "name": "G4",
                    "midi": 67,
                    "time": 44.03600950000002,
                    "velocity": 0.33070866141732286,
                    "duration": 0.27753787500000016
                },
                {
                    "name": "G5",
                    "midi": 79,
                    "time": 44.03600950000002,
                    "velocity": 0.3779527559055118,
                    "duration": 0.27753787500000016
                },
                {
                    "name": "F4",
                    "midi": 65,
                    "time": 44.22103475000002,
                    "velocity": 0.30708661417322836,
                    "duration": 1.295176749999996
                },
                {
                    "name": "C5",
                    "midi": 72,
                    "time": 44.31354737500002,
                    "velocity": 0.3543307086614173,
                    "duration": 1.2026641249999983
                },
                {
                    "name": "A5",
                    "midi": 81,
                    "time": 44.40606000000002,
                    "velocity": 0.3937007874015748,
                    "duration": 1.1101515000000006
                },
                {
                    "name": "C6",
                    "midi": 84,
                    "time": 45.51621150000002,
                    "velocity": 0.4094488188976378,
                    "duration": 0.37005049999999784
                },
                {
                    "name": "C5",
                    "midi": 72,
                    "time": 45.51621150000002,
                    "velocity": 0.3700787401574803,
                    "duration": 0.37005049999999784
                },
                {
                    "name": "G5",
                    "midi": 79,
                    "time": 45.51621150000002,
                    "velocity": 0.4094488188976378,
                    "duration": 0.37005049999999784
                },
                {
                    "name": "C6",
                    "midi": 84,
                    "time": 45.886262000000016,
                    "velocity": 0.4409448818897638,
                    "duration": 1.1101515000000006
                },
                {
                    "name": "G5",
                    "midi": 79,
                    "time": 45.886262000000016,
                    "velocity": 0.4409448818897638,
                    "duration": 1.1101515000000006
                },
                {
                    "name": "C5",
                    "midi": 72,
                    "time": 45.886262000000016,
                    "velocity": 0.3937007874015748,
                    "duration": 1.1101515000000006
                },
                {
                    "name": "D6",
                    "midi": 86,
                    "time": 46.99641350000002,
                    "velocity": 0.5039370078740157,
                    "duration": 0.37005049999999784
                },
                {
                    "name": "F5",
                    "midi": 77,
                    "time": 46.99641350000002,
                    "velocity": 0.4645669291338583,
                    "duration": 0.37005049999999784
                },
                {
                    "name": "A5",
                    "midi": 81,
                    "time": 46.99641350000002,
                    "velocity": 0.4645669291338583,
                    "duration": 0.37005049999999784
                },
                {
                    "name": "F5",
                    "midi": 77,
                    "time": 47.366464000000015,
                    "velocity": 0.48031496062992124,
                    "duration": 1.1101515000000006
                },
                {
                    "name": "A5",
                    "midi": 81,
                    "time": 47.366464000000015,
                    "velocity": 0.48031496062992124,
                    "duration": 1.1101515000000006
                },
                {
                    "name": "D6",
                    "midi": 86,
                    "time": 47.366464000000015,
                    "velocity": 0.5433070866141733,
                    "duration": 1.1101515000000006
                },
                {
                    "name": "A5",
                    "midi": 81,
                    "time": 48.476615500000015,
                    "velocity": 0.4330708661417323,
                    "duration": 0.27753787500000016
                },
                {
                    "name": "C6",
                    "midi": 84,
                    "time": 48.476615500000015,
                    "velocity": 0.4330708661417323,
                    "duration": 0.27753787500000016
                },
                {
                    "name": "F6",
                    "midi": 89,
                    "time": 48.476615500000015,
                    "velocity": 0.4881889763779528,
                    "duration": 0.27753787500000016
                },
                {
                    "name": "A5",
                    "midi": 81,
                    "time": 48.84666600000001,
                    "velocity": 0.4645669291338583,
                    "duration": 0.27753787500000016
                },
                {
                    "name": "F5",
                    "midi": 77,
                    "time": 48.84666600000001,
                    "velocity": 0.4645669291338583,
                    "duration": 0.27753787500000016
                },
                {
                    "name": "D6",
                    "midi": 86,
                    "time": 48.84666600000001,
                    "velocity": 0.5196850393700787,
                    "duration": 0.27753787500000016
                },
                {
                    "name": "E5",
                    "midi": 76,
                    "time": 49.21671650000001,
                    "velocity": 0.3779527559055118,
                    "duration": 0.27753787500000016
                },
                {
                    "name": "G5",
                    "midi": 79,
                    "time": 49.21671650000001,
                    "velocity": 0.3779527559055118,
                    "duration": 0.27753787500000016
                },
                {
                    "name": "C6",
                    "midi": 84,
                    "time": 49.21671650000001,
                    "velocity": 0.4094488188976378,
                    "duration": 0.27753787500000016
                },
                {
                    "name": "A5",
                    "midi": 81,
                    "time": 49.58676700000001,
                    "velocity": 0.4015748031496063,
                    "duration": 0.27753787500000016
                },
                {
                    "name": "F5",
                    "midi": 77,
                    "time": 49.58676700000001,
                    "velocity": 0.36220472440944884,
                    "duration": 0.27753787500000016
                },
                {
                    "name": "C5",
                    "midi": 72,
                    "time": 49.58676700000001,
                    "velocity": 0.36220472440944884,
                    "duration": 0.27753787500000016
                },
                {
                    "name": "A#4",
                    "midi": 70,
                    "time": 49.95681750000001,
                    "velocity": 0.30708661417322836,
                    "duration": 0.27753787500000016
                },
                {
                    "name": "D5",
                    "midi": 74,
                    "time": 49.95681750000001,
                    "velocity": 0.30708661417322836,
                    "duration": 0.27753787500000016
                },
                {
                    "name": "G5",
                    "midi": 79,
                    "time": 49.95681750000001,
                    "velocity": 0.3464566929133858,
                    "duration": 0.27753787500000016
                },
                {
                    "name": "G5",
                    "midi": 79,
                    "time": 50.326868000000005,
                    "velocity": 0.3937007874015748,
                    "duration": 1.1101515000000006
                },
                {
                    "name": "A#4",
                    "midi": 70,
                    "time": 50.326868000000005,
                    "velocity": 0.3543307086614173,
                    "duration": 1.1101515000000006
                },
                {
                    "name": "D5",
                    "midi": 74,
                    "time": 50.326868000000005,
                    "velocity": 0.3543307086614173,
                    "duration": 1.1101515000000006
                },
                {
                    "name": "A#4",
                    "midi": 70,
                    "time": 51.437019500000005,
                    "velocity": 0.3779527559055118,
                    "duration": 0.37005049999999784
                },
                {
                    "name": "G4",
                    "midi": 67,
                    "time": 51.437019500000005,
                    "velocity": 0.33070866141732286,
                    "duration": 0.37005049999999784
                },
                {
                    "name": "D5",
                    "midi": 74,
                    "time": 51.437019500000005,
                    "velocity": 0.3779527559055118,
                    "duration": 0.37005049999999784
                },
                {
                    "name": "D5",
                    "midi": 74,
                    "time": 51.80707,
                    "velocity": 0.3937007874015748,
                    "duration": 1.1101515000000006
                },
                {
                    "name": "A#4",
                    "midi": 70,
                    "time": 51.80707,
                    "velocity": 0.3937007874015748,
                    "duration": 1.1101515000000006
                },
                {
                    "name": "G4",
                    "midi": 67,
                    "time": 51.80707,
                    "velocity": 0.3543307086614173,
                    "duration": 1.1101515000000006
                },
                {
                    "name": "A#4",
                    "midi": 70,
                    "time": 52.917221500000004,
                    "velocity": 0.3858267716535433,
                    "duration": 0.37005049999999784
                },
                {
                    "name": "C4",
                    "midi": 60,
                    "time": 52.917221500000004,
                    "velocity": 0.3858267716535433,
                    "duration": 0.37005049999999784
                },
                {
                    "name": "G4",
                    "midi": 67,
                    "time": 52.917221500000004,
                    "velocity": 0.3858267716535433,
                    "duration": 0.37005049999999784
                },
                {
                    "name": "C5",
                    "midi": 72,
                    "time": 52.917221500000004,
                    "velocity": 0.4330708661417323,
                    "duration": 0.37005049999999784
                },
                {
                    "name": "C4",
                    "midi": 60,
                    "time": 53.287272,
                    "velocity": 0.3700787401574803,
                    "duration": 1.1101515000000006
                },
                {
                    "name": "C5",
                    "midi": 72,
                    "time": 53.287272,
                    "velocity": 0.4094488188976378,
                    "duration": 1.1101515000000006
                },
                {
                    "name": "G4",
                    "midi": 67,
                    "time": 53.287272,
                    "velocity": 0.3700787401574803,
                    "duration": 1.1101515000000006
                },
                {
                    "name": "A#4",
                    "midi": 70,
                    "time": 53.287272,
                    "velocity": 0.3700787401574803,
                    "duration": 1.1101515000000006
                },
                {
                    "name": "F#4",
                    "midi": 66,
                    "time": 54.3974235,
                    "velocity": 0.3858267716535433,
                    "duration": 0.37005049999999784
                },
                {
                    "name": "C4",
                    "midi": 60,
                    "time": 54.3974235,
                    "velocity": 0.3858267716535433,
                    "duration": 0.37005049999999784
                },
                {
                    "name": "A#4",
                    "midi": 70,
                    "time": 54.3974235,
                    "velocity": 0.4409448818897638,
                    "duration": 0.37005049999999784
                },
                {
                    "name": "C5",
                    "midi": 72,
                    "time": 54.3974235,
                    "velocity": 0.4409448818897638,
                    "duration": 0.37005049999999784
                },
                {
                    "name": "C4",
                    "midi": 60,
                    "time": 54.767474,
                    "velocity": 0.41732283464566927,
                    "duration": 1.1101515000000006
                },
                {
                    "name": "F#4",
                    "midi": 66,
                    "time": 54.767474,
                    "velocity": 0.41732283464566927,
                    "duration": 1.1101515000000006
                },
                {
                    "name": "A#4",
                    "midi": 70,
                    "time": 54.767474,
                    "velocity": 0.4645669291338583,
                    "duration": 1.1101515000000006
                },
                {
                    "name": "C5",
                    "midi": 72,
                    "time": 54.767474,
                    "velocity": 0.4645669291338583,
                    "duration": 1.1101515000000006
                },
                {
                    "name": "A#4",
                    "midi": 70,
                    "time": 55.8776255,
                    "velocity": 0.4645669291338583,
                    "duration": 0.37005049999999784
                },
                {
                    "name": "F#4",
                    "midi": 66,
                    "time": 55.8776255,
                    "velocity": 0.4645669291338583,
                    "duration": 0.37005049999999784
                },
                {
                    "name": "C#4",
                    "midi": 61,
                    "time": 55.8776255,
                    "velocity": 0.4645669291338583,
                    "duration": 0.37005049999999784
                },
                {
                    "name": "C#5",
                    "midi": 73,
                    "time": 55.8776255,
                    "velocity": 0.5196850393700787,
                    "duration": 0.37005049999999784
                },
                {
                    "name": "C#4",
                    "midi": 61,
                    "time": 56.247676,
                    "velocity": 0.48031496062992124,
                    "duration": 1.1101515000000006
                },
                {
                    "name": "C#5",
                    "midi": 73,
                    "time": 56.247676,
                    "velocity": 0.5511811023622047,
                    "duration": 1.1101515000000006
                },
                {
                    "name": "F#4",
                    "midi": 66,
                    "time": 56.247676,
                    "velocity": 0.48031496062992124,
                    "duration": 1.1101515000000006
                },
                {
                    "name": "A#4",
                    "midi": 70,
                    "time": 56.247676,
                    "velocity": 0.48031496062992124,
                    "duration": 1.1101515000000006
                },
                {
                    "name": "F#4",
                    "midi": 66,
                    "time": 57.3578275,
                    "velocity": 0.48031496062992124,
                    "duration": 0.37005049999999784
                },
                {
                    "name": "D#4",
                    "midi": 63,
                    "time": 57.3578275,
                    "velocity": 0.48031496062992124,
                    "duration": 0.37005049999999784
                },
                {
                    "name": "A#4",
                    "midi": 70,
                    "time": 57.3578275,
                    "velocity": 0.5433070866141733,
                    "duration": 0.37005049999999784
                },
                {
                    "name": "D#5",
                    "midi": 75,
                    "time": 57.3578275,
                    "velocity": 0.5433070866141733,
                    "duration": 0.37005049999999784
                },
                {
                    "name": "D#4",
                    "midi": 63,
                    "time": 57.727878,
                    "velocity": 0.5275590551181102,
                    "duration": 1.1101515000000006
                },
                {
                    "name": "F#4",
                    "midi": 66,
                    "time": 57.727878,
                    "velocity": 0.5275590551181102,
                    "duration": 1.1101515000000006
                },
                {
                    "name": "D#5",
                    "midi": 75,
                    "time": 57.727878,
                    "velocity": 0.5826771653543307,
                    "duration": 1.1101515000000006
                },
                {
                    "name": "A#4",
                    "midi": 70,
                    "time": 57.727878,
                    "velocity": 0.5826771653543307,
                    "duration": 1.1101515000000006
                },
                {
                    "name": "D#4",
                    "midi": 63,
                    "time": 58.8380295,
                    "velocity": 0.4094488188976378,
                    "duration": 0.37005049999999784
                },
                {
                    "name": "D#4",
                    "midi": 63,
                    "time": 59.208079999999995,
                    "velocity": 0.4566929133858268,
                    "duration": 2.220302999999994
                },
                {
                    "name": "A#4",
                    "midi": 70,
                    "time": 59.57813049999999,
                    "velocity": 0.3543307086614173,
                    "duration": 0.37005049999999784
                },
                {
                    "name": "A#4",
                    "midi": 70,
                    "time": 59.94818099999999,
                    "velocity": 0.30708661417322836,
                    "duration": 1.4802019999999985
                },
                {
                    "name": "D#4",
                    "midi": 63,
                    "time": 64.01873649999999,
                    "velocity": 0.3228346456692913,
                    "duration": 0.37005050000000494
                },
                {
                    "name": "D#4",
                    "midi": 63,
                    "time": 64.388787,
                    "velocity": 0.3779527559055118,
                    "duration": 2.960404000000011
                },
                {
                    "name": "A#4",
                    "midi": 70,
                    "time": 64.7588375,
                    "velocity": 0.3228346456692913,
                    "duration": 0.37005050000000494
                },
                {
                    "name": "A#4",
                    "midi": 70,
                    "time": 65.128888,
                    "velocity": 0.33070866141732286,
                    "duration": 2.2203030000000012
                },
                {
                    "name": "G#4",
                    "midi": 68,
                    "time": 67.71924150000001,
                    "velocity": 0.4015748031496063,
                    "duration": 0.37005050000000494
                },
                {
                    "name": "B3",
                    "midi": 59,
                    "time": 68.08929200000001,
                    "velocity": 0.36220472440944884,
                    "duration": 1.1101515000000148
                },
                {
                    "name": "D#4",
                    "midi": 63,
                    "time": 68.08929200000001,
                    "velocity": 0.36220472440944884,
                    "duration": 1.1101515000000148
                },
                {
                    "name": "G#4",
                    "midi": 68,
                    "time": 68.08929200000001,
                    "velocity": 0.4330708661417323,
                    "duration": 0.37005050000000494
                },
                {
                    "name": "A#4",
                    "midi": 70,
                    "time": 68.45934250000002,
                    "velocity": 0.3858267716535433,
                    "duration": 0.37005050000000494
                },
                {
                    "name": "A#4",
                    "midi": 70,
                    "time": 68.82939300000002,
                    "velocity": 0.4015748031496063,
                    "duration": 0.37005050000000494
                },
                {
                    "name": "D#4",
                    "midi": 63,
                    "time": 69.19944350000003,
                    "velocity": 0.3858267716535433,
                    "duration": 0.37005050000000494
                },
                {
                    "name": "B3",
                    "midi": 59,
                    "time": 69.19944350000003,
                    "velocity": 0.3858267716535433,
                    "duration": 0.37005050000000494
                },
                {
                    "name": "G#4",
                    "midi": 68,
                    "time": 69.19944350000003,
                    "velocity": 0.3858267716535433,
                    "duration": 0.37005050000000494
                },
                {
                    "name": "B3",
                    "midi": 59,
                    "time": 69.56949400000003,
                    "velocity": 0.36220472440944884,
                    "duration": 1.1101515000000148
                },
                {
                    "name": "D#4",
                    "midi": 63,
                    "time": 69.56949400000003,
                    "velocity": 0.36220472440944884,
                    "duration": 1.1101515000000148
                },
                {
                    "name": "G#4",
                    "midi": 68,
                    "time": 69.56949400000003,
                    "velocity": 0.4330708661417323,
                    "duration": 0.37005050000000494
                },
                {
                    "name": "A#4",
                    "midi": 70,
                    "time": 69.93954450000004,
                    "velocity": 0.4015748031496063,
                    "duration": 0.37005050000000494
                },
                {
                    "name": "A#4",
                    "midi": 70,
                    "time": 70.30959500000004,
                    "velocity": 0.4094488188976378,
                    "duration": 0.37005050000000494
                },
                {
                    "name": "B3",
                    "midi": 59,
                    "time": 70.67964550000005,
                    "velocity": 0.3700787401574803,
                    "duration": 0.37005050000000494
                },
                {
                    "name": "D4",
                    "midi": 62,
                    "time": 70.67964550000005,
                    "velocity": 0.3700787401574803,
                    "duration": 0.37005050000000494
                },
                {
                    "name": "G#4",
                    "midi": 68,
                    "time": 70.67964550000005,
                    "velocity": 0.4409448818897638,
                    "duration": 0.37005050000000494
                },
                {
                    "name": "B3",
                    "midi": 59,
                    "time": 71.04969600000005,
                    "velocity": 0.3858267716535433,
                    "duration": 1.1101515000000148
                },
                {
                    "name": "D4",
                    "midi": 62,
                    "time": 71.04969600000005,
                    "velocity": 0.3858267716535433,
                    "duration": 1.1101515000000148
                },
                {
                    "name": "G#4",
                    "midi": 68,
                    "time": 71.04969600000005,
                    "velocity": 0.4566929133858268,
                    "duration": 0.37005050000000494
                },
                {
                    "name": "A#4",
                    "midi": 70,
                    "time": 71.41974650000006,
                    "velocity": 0.41732283464566927,
                    "duration": 0.37005050000000494
                },
                {
                    "name": "A#4",
                    "midi": 70,
                    "time": 71.78979700000006,
                    "velocity": 0.4330708661417323,
                    "duration": 0.37005050000000494
                },
                {
                    "name": "B3",
                    "midi": 59,
                    "time": 72.15984750000007,
                    "velocity": 0.3779527559055118,
                    "duration": 0.37005050000000494
                },
                {
                    "name": "D4",
                    "midi": 62,
                    "time": 72.15984750000007,
                    "velocity": 0.3779527559055118,
                    "duration": 0.37005050000000494
                },
                {
                    "name": "G#4",
                    "midi": 68,
                    "time": 72.15984750000007,
                    "velocity": 0.44881889763779526,
                    "duration": 0.37005050000000494
                },
                {
                    "name": "G#4",
                    "midi": 68,
                    "time": 72.52989800000007,
                    "velocity": 0.47244094488188976,
                    "duration": 0.37005050000000494
                },
                {
                    "name": "B3",
                    "midi": 59,
                    "time": 72.52989800000007,
                    "velocity": 0.3937007874015748,
                    "duration": 1.1101515000000148
                },
                {
                    "name": "D#4",
                    "midi": 63,
                    "time": 72.52989800000007,
                    "velocity": 0.3937007874015748,
                    "duration": 1.1101515000000148
                },
                {
                    "name": "A#4",
                    "midi": 70,
                    "time": 72.89994850000008,
                    "velocity": 0.4409448818897638,
                    "duration": 0.37005050000000494
                },
                {
                    "name": "A#4",
                    "midi": 70,
                    "time": 73.26999900000008,
                    "velocity": 0.4409448818897638,
                    "duration": 0.37005050000000494
                },
                {
                    "name": "B3",
                    "midi": 59,
                    "time": 73.64004950000009,
                    "velocity": 0.3937007874015748,
                    "duration": 0.37005050000000494
                },
                {
                    "name": "E4",
                    "midi": 64,
                    "time": 73.64004950000009,
                    "velocity": 0.3937007874015748,
                    "duration": 0.37005050000000494
                },
                {
                    "name": "G#4",
                    "midi": 68,
                    "time": 73.64004950000009,
                    "velocity": 0.47244094488188976,
                    "duration": 0.37005050000000494
                },
                {
                    "name": "F4",
                    "midi": 65,
                    "time": 74.0101000000001,
                    "velocity": 0.4094488188976378,
                    "duration": 2.2203030000000297
                },
                {
                    "name": "G#4",
                    "midi": 68,
                    "time": 74.0101000000001,
                    "velocity": 0.4881889763779528,
                    "duration": 0.37005050000000494
                },
                {
                    "name": "B3",
                    "midi": 59,
                    "time": 74.0101000000001,
                    "velocity": 0.4094488188976378,
                    "duration": 2.2203030000000297
                },
                {
                    "name": "A#4",
                    "midi": 70,
                    "time": 74.3801505000001,
                    "velocity": 0.44881889763779526,
                    "duration": 0.37005050000000494
                },
                {
                    "name": "A#4",
                    "midi": 70,
                    "time": 74.7502010000001,
                    "velocity": 0.4566929133858268,
                    "duration": 0.37005050000000494
                },
                {
                    "name": "G#4",
                    "midi": 68,
                    "time": 75.12025150000011,
                    "velocity": 0.3700787401574803,
                    "duration": 0.37005050000000494
                },
                {
                    "name": "G#4",
                    "midi": 68,
                    "time": 75.49030200000011,
                    "velocity": 0.4015748031496063,
                    "duration": 0.37005050000000494
                },
                {
                    "name": "C#5",
                    "midi": 73,
                    "time": 75.86035250000012,
                    "velocity": 0.33070866141732286,
                    "duration": 0.37005050000000494
                },
                {
                    "name": "C#5",
                    "midi": 73,
                    "time": 76.23040300000012,
                    "velocity": 0.31496062992125984,
                    "duration": 0.7401009999999957
                },
                {
                    "name": "F#4",
                    "midi": 66,
                    "time": 79.56085750000013,
                    "velocity": 0.36220472440944884,
                    "duration": 0.37005050000000494
                },
                {
                    "name": "A#3",
                    "midi": 58,
                    "time": 79.56085750000013,
                    "velocity": 0.2992125984251969,
                    "duration": 0.37005050000000494
                },
                {
                    "name": "A#3",
                    "midi": 58,
                    "time": 79.93090800000013,
                    "velocity": 0.31496062992125984,
                    "duration": 1.1101515000000148
                },
                {
                    "name": "F#4",
                    "midi": 66,
                    "time": 79.93090800000013,
                    "velocity": 0.3858267716535433,
                    "duration": 1.1101515000000148
                },
                {
                    "name": "A#4",
                    "midi": 70,
                    "time": 80.30095850000014,
                    "velocity": 0.3464566929133858,
                    "duration": 0.37005050000000494
                },
                {
                    "name": "A#4",
                    "midi": 70,
                    "time": 80.67100900000014,
                    "velocity": 0.36220472440944884,
                    "duration": 0.37005050000000494
                },
                {
                    "name": "A#3",
                    "midi": 58,
                    "time": 81.04105950000015,
                    "velocity": 0.30708661417322836,
                    "duration": 0.37005050000000494
                },
                {
                    "name": "F4",
                    "midi": 65,
                    "time": 81.04105950000015,
                    "velocity": 0.3464566929133858,
                    "duration": 0.37005050000000494
                },
                {
                    "name": "F4",
                    "midi": 65,
                    "time": 81.41111000000015,
                    "velocity": 0.3779527559055118,
                    "duration": 1.1101515000000148
                },
                {
                    "name": "A#3",
                    "midi": 58,
                    "time": 81.41111000000015,
                    "velocity": 0.33070866141732286,
                    "duration": 1.1101515000000148
                },
                {
                    "name": "A#4",
                    "midi": 70,
                    "time": 81.78116050000015,
                    "velocity": 0.3543307086614173,
                    "duration": 0.37005050000000494
                },
                {
                    "name": "A#4",
                    "midi": 70,
                    "time": 82.15121100000016,
                    "velocity": 0.3700787401574803,
                    "duration": 0.37005050000000494
                },
                {
                    "name": "A#3",
                    "midi": 58,
                    "time": 82.52126150000016,
                    "velocity": 0.2992125984251969,
                    "duration": 0.37005050000000494
                },
                {
                    "name": "D#4",
                    "midi": 63,
                    "time": 82.52126150000016,
                    "velocity": 0.33070866141732286,
                    "duration": 0.37005050000000494
                },
                {
                    "name": "D#4",
                    "midi": 63,
                    "time": 82.89131200000017,
                    "velocity": 0.3858267716535433,
                    "duration": 1.1101515000000148
                },
                {
                    "name": "A#3",
                    "midi": 58,
                    "time": 82.89131200000017,
                    "velocity": 0.3464566929133858,
                    "duration": 1.1101515000000148
                },
                {
                    "name": "A#4",
                    "midi": 70,
                    "time": 83.26136250000017,
                    "velocity": 0.3464566929133858,
                    "duration": 0.37005050000000494
                },
                {
                    "name": "A#4",
                    "midi": 70,
                    "time": 83.63141300000018,
                    "velocity": 0.36220472440944884,
                    "duration": 0.37005050000000494
                },
                {
                    "name": "A#3",
                    "midi": 58,
                    "time": 84.00146350000018,
                    "velocity": 0.30708661417322836,
                    "duration": 0.27753787499999305
                },
                {
                    "name": "C#4",
                    "midi": 61,
                    "time": 84.00146350000018,
                    "velocity": 0.3464566929133858,
                    "duration": 0.27753787499999305
                },
                {
                    "name": "D#4",
                    "midi": 63,
                    "time": 84.37151400000018,
                    "velocity": 0.3779527559055118,
                    "duration": 0.27753787499999305
                },
                {
                    "name": "A#3",
                    "midi": 58,
                    "time": 84.37151400000018,
                    "velocity": 0.33070866141732286,
                    "duration": 0.27753787499999305
                },
                {
                    "name": "A#3",
                    "midi": 58,
                    "time": 84.74156450000017,
                    "velocity": 0.33070866141732286,
                    "duration": 0.27753787499999305
                },
                {
                    "name": "F4",
                    "midi": 65,
                    "time": 84.74156450000017,
                    "velocity": 0.33070866141732286,
                    "duration": 0.27753787499999305
                },
                {
                    "name": "A#3",
                    "midi": 58,
                    "time": 85.11161500000016,
                    "velocity": 0.33070866141732286,
                    "duration": 0.27753787499999305
                },
                {
                    "name": "F#4",
                    "midi": 66,
                    "time": 85.11161500000016,
                    "velocity": 0.3779527559055118,
                    "duration": 0.27753787499999305
                },
                {
                    "name": "A#3",
                    "midi": 58,
                    "time": 85.48166550000015,
                    "velocity": 0.3464566929133858,
                    "duration": 0.27753787499999305
                },
                {
                    "name": "A#4",
                    "midi": 70,
                    "time": 85.48166550000015,
                    "velocity": 0.3464566929133858,
                    "duration": 0.27753787499999305
                },
                {
                    "name": "B3",
                    "midi": 59,
                    "time": 85.85171600000014,
                    "velocity": 0.3464566929133858,
                    "duration": 1.1101515000000148
                },
                {
                    "name": "G#4",
                    "midi": 68,
                    "time": 85.85171600000014,
                    "velocity": 0.3858267716535433,
                    "duration": 1.1101515000000148
                },
                {
                    "name": "B4",
                    "midi": 71,
                    "time": 86.22176650000014,
                    "velocity": 0.3464566929133858,
                    "duration": 0.37005050000000494
                },
                {
                    "name": "B4",
                    "midi": 71,
                    "time": 86.59181700000015,
                    "velocity": 0.36220472440944884,
                    "duration": 0.37005050000000494
                },
                {
                    "name": "B3",
                    "midi": 59,
                    "time": 86.96186750000015,
                    "velocity": 0.30708661417322836,
                    "duration": 0.37005050000000494
                },
                {
                    "name": "F#4",
                    "midi": 66,
                    "time": 86.96186750000015,
                    "velocity": 0.3464566929133858,
                    "duration": 0.37005050000000494
                },
                {
                    "name": "B3",
                    "midi": 59,
                    "time": 87.33191800000016,
                    "velocity": 0.33070866141732286,
                    "duration": 1.1101515000000148
                },
                {
                    "name": "F#4",
                    "midi": 66,
                    "time": 87.33191800000016,
                    "velocity": 0.3779527559055118,
                    "duration": 1.1101515000000148
                },
                {
                    "name": "B4",
                    "midi": 71,
                    "time": 87.70196850000016,
                    "velocity": 0.3543307086614173,
                    "duration": 0.37005050000000494
                },
                {
                    "name": "B4",
                    "midi": 71,
                    "time": 88.07201900000017,
                    "velocity": 0.3700787401574803,
                    "duration": 0.37005050000000494
                },
                {
                    "name": "B3",
                    "midi": 59,
                    "time": 88.44206950000017,
                    "velocity": 0.2992125984251969,
                    "duration": 0.37005050000000494
                },
                {
                    "name": "F4",
                    "midi": 65,
                    "time": 88.44206950000017,
                    "velocity": 0.33070866141732286,
                    "duration": 0.37005050000000494
                },
                {
                    "name": "B3",
                    "midi": 59,
                    "time": 88.81212000000018,
                    "velocity": 0.3464566929133858,
                    "duration": 1.1101515000000148
                },
                {
                    "name": "F4",
                    "midi": 65,
                    "time": 88.81212000000018,
                    "velocity": 0.3858267716535433,
                    "duration": 1.1101515000000148
                },
                {
                    "name": "B4",
                    "midi": 71,
                    "time": 89.18217050000018,
                    "velocity": 0.3464566929133858,
                    "duration": 0.37005050000000494
                },
                {
                    "name": "B4",
                    "midi": 71,
                    "time": 89.55222100000019,
                    "velocity": 0.36220472440944884,
                    "duration": 0.37005050000000494
                },
                {
                    "name": "F4",
                    "midi": 65,
                    "time": 89.92227150000019,
                    "velocity": 0.3464566929133858,
                    "duration": 0.18502524999999537
                },
                {
                    "name": "B3",
                    "midi": 59,
                    "time": 89.92227150000019,
                    "velocity": 0.30708661417322836,
                    "duration": 0.37005049999999073
                },
                {
                    "name": "B3",
                    "midi": 59,
                    "time": 90.29232200000018,
                    "velocity": 0.33070866141732286,
                    "duration": 1.480201999999963
                },
                {
                    "name": "F#4",
                    "midi": 66,
                    "time": 90.29232200000018,
                    "velocity": 0.3779527559055118,
                    "duration": 0.27753787499999305
                },
                {
                    "name": "F4",
                    "midi": 65,
                    "time": 90.66237250000017,
                    "velocity": 0.33070866141732286,
                    "duration": 0.27753787499999305
                },
                {
                    "name": "F#4",
                    "midi": 66,
                    "time": 91.03242300000016,
                    "velocity": 0.3779527559055118,
                    "duration": 0.27753787499999305
                },
                {
                    "name": "G#4",
                    "midi": 68,
                    "time": 91.40247350000016,
                    "velocity": 0.3464566929133858,
                    "duration": 0.27753787499999305
                },
                {
                    "name": "A#3",
                    "midi": 58,
                    "time": 91.77252400000015,
                    "velocity": 0.3464566929133858,
                    "duration": 1.1101515000000148
                },
                {
                    "name": "F#4",
                    "midi": 66,
                    "time": 91.77252400000015,
                    "velocity": 0.3858267716535433,
                    "duration": 1.1101515000000148
                },
                {
                    "name": "A#4",
                    "midi": 70,
                    "time": 92.14257450000015,
                    "velocity": 0.3464566929133858,
                    "duration": 0.37005050000000494
                },
                {
                    "name": "A#4",
                    "midi": 70,
                    "time": 92.51262500000016,
                    "velocity": 0.3779527559055118,
                    "duration": 0.37005050000000494
                },
                {
                    "name": "A#3",
                    "midi": 58,
                    "time": 92.88267550000016,
                    "velocity": 0.3228346456692913,
                    "duration": 0.37005050000000494
                },
                {
                    "name": "F4",
                    "midi": 65,
                    "time": 92.88267550000016,
                    "velocity": 0.36220472440944884,
                    "duration": 0.37005050000000494
                },
                {
                    "name": "A#3",
                    "midi": 58,
                    "time": 93.25272600000017,
                    "velocity": 0.3543307086614173,
                    "duration": 1.1101515000000148
                },
                {
                    "name": "F4",
                    "midi": 65,
                    "time": 93.25272600000017,
                    "velocity": 0.3937007874015748,
                    "duration": 1.1101515000000148
                },
                {
                    "name": "A#4",
                    "midi": 70,
                    "time": 93.62277650000017,
                    "velocity": 0.3543307086614173,
                    "duration": 0.37005050000000494
                },
                {
                    "name": "A#4",
                    "midi": 70,
                    "time": 93.99282700000018,
                    "velocity": 0.3937007874015748,
                    "duration": 0.37005050000000494
                },
                {
                    "name": "A#3",
                    "midi": 58,
                    "time": 94.36287750000018,
                    "velocity": 0.3779527559055118,
                    "duration": 0.37005050000000494
                },
                {
                    "name": "D#4",
                    "midi": 63,
                    "time": 94.36287750000018,
                    "velocity": 0.3779527559055118,
                    "duration": 0.37005050000000494
                },
                {
                    "name": "A#3",
                    "midi": 58,
                    "time": 94.73292800000019,
                    "velocity": 0.3779527559055118,
                    "duration": 1.1101515000000148
                },
                {
                    "name": "D#4",
                    "midi": 63,
                    "time": 94.73292800000019,
                    "velocity": 0.41732283464566927,
                    "duration": 1.1101515000000148
                },
                {
                    "name": "A#4",
                    "midi": 70,
                    "time": 95.10297850000019,
                    "velocity": 0.3858267716535433,
                    "duration": 0.37005050000000494
                },
                {
                    "name": "A#4",
                    "midi": 70,
                    "time": 95.4730290000002,
                    "velocity": 0.41732283464566927,
                    "duration": 0.37005050000000494
                },
                {
                    "name": "D#4",
                    "midi": 63,
                    "time": 95.8430795000002,
                    "velocity": 0.41732283464566927,
                    "duration": 0.37005050000000494
                },
                {
                    "name": "A3",
                    "midi": 57,
                    "time": 95.8430795000002,
                    "velocity": 0.3779527559055118,
                    "duration": 0.37005050000000494
                },
                {
                    "name": "A3",
                    "midi": 57,
                    "time": 96.2131300000002,
                    "velocity": 0.4409448818897638,
                    "duration": 1.1101515000000148
                },
                {
                    "name": "D#4",
                    "midi": 63,
                    "time": 96.2131300000002,
                    "velocity": 0.49606299212598426,
                    "duration": 1.1101515000000148
                },
                {
                    "name": "A4",
                    "midi": 69,
                    "time": 96.58318050000021,
                    "velocity": 0.48031496062992124,
                    "duration": 0.37005050000000494
                },
                {
                    "name": "A4",
                    "midi": 69,
                    "time": 96.95323100000022,
                    "velocity": 0.5511811023622047,
                    "duration": 0.37005050000000494
                },
                {
                    "name": "D#4",
                    "midi": 63,
                    "time": 97.32328150000022,
                    "velocity": 0.5275590551181102,
                    "duration": 0.37005050000000494
                },
                {
                    "name": "A3",
                    "midi": 57,
                    "time": 97.32328150000022,
                    "velocity": 0.4645669291338583,
                    "duration": 0.37005050000000494
                },
                {
                    "name": "A#3",
                    "midi": 58,
                    "time": 97.69333200000023,
                    "velocity": 0.3464566929133858,
                    "duration": 1.1101515000000148
                },
                {
                    "name": "F#4",
                    "midi": 66,
                    "time": 97.69333200000023,
                    "velocity": 0.3858267716535433,
                    "duration": 1.1101515000000148
                },
                {
                    "name": "A#4",
                    "midi": 70,
                    "time": 98.06338250000023,
                    "velocity": 0.3464566929133858,
                    "duration": 0.37005050000000494
                },
                {
                    "name": "A#4",
                    "midi": 70,
                    "time": 98.43343300000024,
                    "velocity": 0.36220472440944884,
                    "duration": 0.37005050000000494
                },
                {
                    "name": "F#4",
                    "midi": 66,
                    "time": 98.80348350000024,
                    "velocity": 0.3464566929133858,
                    "duration": 0.37005050000000494
                },
                {
                    "name": "A#3",
                    "midi": 58,
                    "time": 98.80348350000024,
                    "velocity": 0.30708661417322836,
                    "duration": 0.37005050000000494
                },
                {
                    "name": "A#3",
                    "midi": 58,
                    "time": 99.17353400000025,
                    "velocity": 0.33070866141732286,
                    "duration": 1.1101515000000148
                },
                {
                    "name": "F#4",
                    "midi": 66,
                    "time": 99.17353400000025,
                    "velocity": 0.3779527559055118,
                    "duration": 1.1101515000000148
                },
                {
                    "name": "A#4",
                    "midi": 70,
                    "time": 99.54358450000025,
                    "velocity": 0.3543307086614173,
                    "duration": 0.37005050000000494
                },
                {
                    "name": "A#4",
                    "midi": 70,
                    "time": 99.91363500000026,
                    "velocity": 0.3700787401574803,
                    "duration": 0.37005050000000494
                },
                {
                    "name": "A#3",
                    "midi": 58,
                    "time": 100.28368550000026,
                    "velocity": 0.2992125984251969,
                    "duration": 0.27753787499999305
                },
                {
                    "name": "F#4",
                    "midi": 66,
                    "time": 100.28368550000026,
                    "velocity": 0.33070866141732286,
                    "duration": 0.27753787499999305
                },
                {
                    "name": "B3",
                    "midi": 59,
                    "time": 100.65373600000025,
                    "velocity": 0.3464566929133858,
                    "duration": 1.1101515000000148
                },
                {
                    "name": "D#4",
                    "midi": 63,
                    "time": 100.65373600000025,
                    "velocity": 0.3858267716535433,
                    "duration": 1.1101515000000148
                },
                {
                    "name": "A#4",
                    "midi": 70,
                    "time": 101.02378650000026,
                    "velocity": 0.3464566929133858,
                    "duration": 0.37005050000000494
                },
                {
                    "name": "A#4",
                    "midi": 70,
                    "time": 101.39383700000026,
                    "velocity": 0.36220472440944884,
                    "duration": 0.37005050000000494
                },
                {
                    "name": "B3",
                    "midi": 59,
                    "time": 101.76388750000027,
                    "velocity": 0.30708661417322836,
                    "duration": 0.37005050000000494
                },
                {
                    "name": "D#4",
                    "midi": 63,
                    "time": 101.76388750000027,
                    "velocity": 0.3464566929133858,
                    "duration": 0.37005050000000494
                },
                {
                    "name": "B3",
                    "midi": 59,
                    "time": 102.13393800000027,
                    "velocity": 0.33070866141732286,
                    "duration": 1.1101515000000148
                },
                {
                    "name": "D#4",
                    "midi": 63,
                    "time": 102.13393800000027,
                    "velocity": 0.3779527559055118,
                    "duration": 1.1101515000000148
                },
                {
                    "name": "A#4",
                    "midi": 70,
                    "time": 102.50398850000028,
                    "velocity": 0.3543307086614173,
                    "duration": 0.37005050000000494
                },
                {
                    "name": "A#4",
                    "midi": 70,
                    "time": 102.87403900000028,
                    "velocity": 0.3700787401574803,
                    "duration": 0.37005050000000494
                },
                {
                    "name": "B3",
                    "midi": 59,
                    "time": 103.24408950000029,
                    "velocity": 0.2992125984251969,
                    "duration": 0.27753787499999305
                },
                {
                    "name": "D#4",
                    "midi": 63,
                    "time": 103.24408950000029,
                    "velocity": 0.33070866141732286,
                    "duration": 0.27753787499999305
                },
                {
                    "name": "A#3",
                    "midi": 58,
                    "time": 103.61414000000028,
                    "velocity": 0.3464566929133858,
                    "duration": 1.1101515000000148
                },
                {
                    "name": "F#4",
                    "midi": 66,
                    "time": 103.61414000000028,
                    "velocity": 0.3858267716535433,
                    "duration": 1.1101515000000148
                },
                {
                    "name": "A#4",
                    "midi": 70,
                    "time": 103.98419050000028,
                    "velocity": 0.3464566929133858,
                    "duration": 0.37005050000000494
                },
                {
                    "name": "A#4",
                    "midi": 70,
                    "time": 104.35424100000029,
                    "velocity": 0.36220472440944884,
                    "duration": 0.37005050000000494
                },
                {
                    "name": "F#4",
                    "midi": 66,
                    "time": 104.72429150000029,
                    "velocity": 0.3464566929133858,
                    "duration": 0.37005050000000494
                },
                {
                    "name": "A#3",
                    "midi": 58,
                    "time": 104.72429150000029,
                    "velocity": 0.30708661417322836,
                    "duration": 0.37005050000000494
                },
                {
                    "name": "A#3",
                    "midi": 58,
                    "time": 105.0943420000003,
                    "velocity": 0.33070866141732286,
                    "duration": 1.1101515000000148
                },
                {
                    "name": "F#4",
                    "midi": 66,
                    "time": 105.0943420000003,
                    "velocity": 0.3779527559055118,
                    "duration": 1.1101515000000148
                },
                {
                    "name": "A#4",
                    "midi": 70,
                    "time": 105.4643925000003,
                    "velocity": 0.3543307086614173,
                    "duration": 0.37005050000000494
                },
                {
                    "name": "A#4",
                    "midi": 70,
                    "time": 105.8344430000003,
                    "velocity": 0.3700787401574803,
                    "duration": 0.37005050000000494
                },
                {
                    "name": "A#3",
                    "midi": 58,
                    "time": 106.20449350000031,
                    "velocity": 0.3779527559055118,
                    "duration": 0.37005050000000494
                },
                {
                    "name": "F#4",
                    "midi": 66,
                    "time": 106.20449350000031,
                    "velocity": 0.33070866141732286,
                    "duration": 0.37005050000000494
                },
                {
                    "name": "B3",
                    "midi": 59,
                    "time": 106.57454400000032,
                    "velocity": 0.3464566929133858,
                    "duration": 1.1101515000000148
                },
                {
                    "name": "D#4",
                    "midi": 63,
                    "time": 106.57454400000032,
                    "velocity": 0.3858267716535433,
                    "duration": 1.1101515000000148
                },
                {
                    "name": "A#4",
                    "midi": 70,
                    "time": 106.94459450000032,
                    "velocity": 0.3464566929133858,
                    "duration": 0.37005050000000494
                },
                {
                    "name": "A#4",
                    "midi": 70,
                    "time": 107.31464500000033,
                    "velocity": 0.36220472440944884,
                    "duration": 0.37005050000000494
                },
                {
                    "name": "B3",
                    "midi": 59,
                    "time": 107.68469550000033,
                    "velocity": 0.30708661417322836,
                    "duration": 0.37005050000000494
                },
                {
                    "name": "D#4",
                    "midi": 63,
                    "time": 107.68469550000033,
                    "velocity": 0.3464566929133858,
                    "duration": 0.37005050000000494
                },
                {
                    "name": "B3",
                    "midi": 59,
                    "time": 108.05474600000034,
                    "velocity": 0.33070866141732286,
                    "duration": 1.1101515000000148
                },
                {
                    "name": "D#4",
                    "midi": 63,
                    "time": 108.05474600000034,
                    "velocity": 0.3779527559055118,
                    "duration": 1.1101515000000148
                },
                {
                    "name": "A#4",
                    "midi": 70,
                    "time": 108.42479650000034,
                    "velocity": 0.3543307086614173,
                    "duration": 0.37005050000000494
                },
                {
                    "name": "A#4",
                    "midi": 70,
                    "time": 108.79484700000035,
                    "velocity": 0.3700787401574803,
                    "duration": 0.37005050000000494
                },
                {
                    "name": "B3",
                    "midi": 59,
                    "time": 109.16489750000035,
                    "velocity": 0.2992125984251969,
                    "duration": 0.37005050000000494
                },
                {
                    "name": "D#4",
                    "midi": 63,
                    "time": 109.16489750000035,
                    "velocity": 0.33070866141732286,
                    "duration": 0.37005050000000494
                },
                {
                    "name": "A#3",
                    "midi": 58,
                    "time": 109.53494800000036,
                    "velocity": 0.3464566929133858,
                    "duration": 1.1101515000000148
                },
                {
                    "name": "F#4",
                    "midi": 66,
                    "time": 109.53494800000036,
                    "velocity": 0.3858267716535433,
                    "duration": 1.1101515000000148
                },
                {
                    "name": "A#4",
                    "midi": 70,
                    "time": 109.90499850000036,
                    "velocity": 0.3464566929133858,
                    "duration": 0.37005050000000494
                },
                {
                    "name": "A#4",
                    "midi": 70,
                    "time": 110.27504900000037,
                    "velocity": 0.36220472440944884,
                    "duration": 0.37005050000000494
                },
                {
                    "name": "A#3",
                    "midi": 58,
                    "time": 110.64509950000037,
                    "velocity": 0.30708661417322836,
                    "duration": 0.37005050000000494
                },
                {
                    "name": "F#4",
                    "midi": 66,
                    "time": 110.64509950000037,
                    "velocity": 0.3464566929133858,
                    "duration": 0.37005050000000494
                },
                {
                    "name": "A#3",
                    "midi": 58,
                    "time": 111.01515000000038,
                    "velocity": 0.33070866141732286,
                    "duration": 1.1101515000000148
                },
                {
                    "name": "F#4",
                    "midi": 66,
                    "time": 111.01515000000038,
                    "velocity": 0.3779527559055118,
                    "duration": 1.1101515000000148
                },
                {
                    "name": "A#4",
                    "midi": 70,
                    "time": 111.38520050000038,
                    "velocity": 0.3543307086614173,
                    "duration": 0.37005050000000494
                },
                {
                    "name": "A#4",
                    "midi": 70,
                    "time": 111.75525100000038,
                    "velocity": 0.3700787401574803,
                    "duration": 0.37005050000000494
                },
                {
                    "name": "F#4",
                    "midi": 66,
                    "time": 112.12530150000039,
                    "velocity": 0.33070866141732286,
                    "duration": 0.37005050000000494
                },
                {
                    "name": "A#3",
                    "midi": 58,
                    "time": 112.12530150000039,
                    "velocity": 0.3779527559055118,
                    "duration": 0.37005050000000494
                },
                {
                    "name": "A#3",
                    "midi": 58,
                    "time": 112.4953520000004,
                    "velocity": 0.3228346456692913,
                    "duration": 1.1101515000000148
                },
                {
                    "name": "F#4",
                    "midi": 66,
                    "time": 112.4953520000004,
                    "velocity": 0.36220472440944884,
                    "duration": 1.1101515000000148
                },
                {
                    "name": "A#4",
                    "midi": 70,
                    "time": 112.8654025000004,
                    "velocity": 0.31496062992125984,
                    "duration": 0.37005050000000494
                },
                {
                    "name": "A#4",
                    "midi": 70,
                    "time": 113.2354530000004,
                    "velocity": 0.3228346456692913,
                    "duration": 0.37005050000000494
                },
                {
                    "name": "F#4",
                    "midi": 66,
                    "time": 113.60550350000041,
                    "velocity": 0.30708661417322836,
                    "duration": 0.37005050000000494
                },
                {
                    "name": "A#3",
                    "midi": 58,
                    "time": 113.60550350000041,
                    "velocity": 0.2755905511811024,
                    "duration": 0.37005050000000494
                },
                {
                    "name": "F#4",
                    "midi": 66,
                    "time": 113.97555400000041,
                    "velocity": 0.3228346456692913,
                    "duration": 1.1101515000000148
                },
                {
                    "name": "A#3",
                    "midi": 58,
                    "time": 113.97555400000041,
                    "velocity": 0.29133858267716534,
                    "duration": 1.1101515000000148
                },
                {
                    "name": "A#4",
                    "midi": 70,
                    "time": 114.34560450000042,
                    "velocity": 0.2992125984251969,
                    "duration": 0.37005050000000494
                },
                {
                    "name": "A#4",
                    "midi": 70,
                    "time": 114.71565500000042,
                    "velocity": 0.30708661417322836,
                    "duration": 0.37005050000000494
                },
                {
                    "name": "A#3",
                    "midi": 58,
                    "time": 115.08570550000043,
                    "velocity": 0.30708661417322836,
                    "duration": 0.37005050000000494
                },
                {
                    "name": "F#4",
                    "midi": 66,
                    "time": 115.08570550000043,
                    "velocity": 0.2677165354330709,
                    "duration": 0.37005050000000494
                },
                {
                    "name": "F#4",
                    "midi": 66,
                    "time": 115.45575600000043,
                    "velocity": 0.30708661417322836,
                    "duration": 0.37005050000000494
                },
                {
                    "name": "A#4",
                    "midi": 70,
                    "time": 115.82580650000044,
                    "velocity": 0.2677165354330709,
                    "duration": 0.37005050000000494
                },
                {
                    "name": "A#4",
                    "midi": 70,
                    "time": 116.19585700000044,
                    "velocity": 0.30708661417322836,
                    "duration": 0.37005050000000494
                },
                {
                    "name": "F#4",
                    "midi": 66,
                    "time": 116.56590750000045,
                    "velocity": 0.2677165354330709,
                    "duration": 0.37005050000000494
                },
                {
                    "name": "C#5",
                    "midi": 73,
                    "time": 116.93595800000045,
                    "velocity": 0.30708661417322836,
                    "duration": 1.4802020000000198
                },
                {
                    "name": "F#4",
                    "midi": 66,
                    "time": 116.93595800000045,
                    "velocity": 0.30708661417322836,
                    "duration": 0.37005050000000494
                },
                {
                    "name": "A#4",
                    "midi": 70,
                    "time": 117.30600850000046,
                    "velocity": 0.25984251968503935,
                    "duration": 0.37005050000000494
                },
                {
                    "name": "A#4",
                    "midi": 70,
                    "time": 117.67605900000046,
                    "velocity": 0.30708661417322836,
                    "duration": 0.37005050000000494
                },
                {
                    "name": "F#4",
                    "midi": 66,
                    "time": 118.04610950000047,
                    "velocity": 0.25984251968503935,
                    "duration": 0.37005050000000494
                },
                {
                    "name": "F#4",
                    "midi": 66,
                    "time": 118.41616000000047,
                    "velocity": 0.29133858267716534,
                    "duration": 0.37005050000000494
                },
                {
                    "name": "A#4",
                    "midi": 70,
                    "time": 118.78621050000048,
                    "velocity": 0.23622047244094488,
                    "duration": 0.37005050000000494
                },
                {
                    "name": "A#4",
                    "midi": 70,
                    "time": 119.15626100000048,
                    "velocity": 0.28346456692913385,
                    "duration": 0.37005050000000494
                },
                {
                    "name": "F#4",
                    "midi": 66,
                    "time": 119.52631150000049,
                    "velocity": 0.2204724409448819,
                    "duration": 0.37005050000000494
                },
                {
                    "name": "C#5",
                    "midi": 73,
                    "time": 119.8963620000005,
                    "velocity": 0.2755905511811024,
                    "duration": 1.4802020000000198
                },
                {
                    "name": "F#4",
                    "midi": 66,
                    "time": 119.8963620000005,
                    "velocity": 0.2755905511811024,
                    "duration": 0.37005050000000494
                },
                {
                    "name": "A#4",
                    "midi": 70,
                    "time": 120.2664125000005,
                    "velocity": 0.2204724409448819,
                    "duration": 0.37005050000000494
                },
                {
                    "name": "A#4",
                    "midi": 70,
                    "time": 120.6364630000005,
                    "velocity": 0.2677165354330709,
                    "duration": 0.37005050000000494
                },
                {
                    "name": "F#4",
                    "midi": 66,
                    "time": 121.00651350000051,
                    "velocity": 0.2204724409448819,
                    "duration": 0.37005050000000494
                },
                {
                    "name": "A#4",
                    "midi": 70,
                    "time": 121.74661450000052,
                    "velocity": 0.2440944881889764,
                    "duration": 0.37005050000000494
                },
                {
                    "name": "A#4",
                    "midi": 70,
                    "time": 122.11666500000052,
                    "velocity": 0.23622047244094488,
                    "duration": 0.37005050000000494
                }
            ],
            "controlChanges": {
                "7": [
                    {
                        "number": 7,
                        "time": 0,
                        "value": 0.7874015748031497
                    }
                ],
                "64": [
                    {
                        "number": 64,
                        "time": 0,
                        "value": 0
                    }
                ],
                "91": [
                    {
                        "number": 91,
                        "time": 0,
                        "value": 1
                    },
                    {
                        "number": 91,
                        "time": 2.588811622916667,
                        "value": 1
                    }
                ]
            },
            "id": 1,
            "name": "Piano right",
            "instrumentNumber": 0,
            "instrument": "acoustic grand piano",
            "instrumentFamily": "piano",
            "channelNumber": 0,
            "isPercussion": false
        },
        {
            "startTime": 2.960404,
            "duration": 124.33696799999998,
            "length": 309,
            "notes": [
                {
                    "name": "F#3",
                    "midi": 54,
                    "time": 2.960404,
                    "velocity": 0.3543307086614173,
                    "duration": 1.1101515000000002
                },
                {
                    "name": "F#3",
                    "midi": 54,
                    "time": 4.0705555,
                    "velocity": 0.30708661417322836,
                    "duration": 0.3700504999999996
                },
                {
                    "name": "F3",
                    "midi": 53,
                    "time": 4.440606,
                    "velocity": 0.3543307086614173,
                    "duration": 1.1101514999999997
                },
                {
                    "name": "F3",
                    "midi": 53,
                    "time": 5.5507575,
                    "velocity": 0.3543307086614173,
                    "duration": 0.3700505000000005
                },
                {
                    "name": "E3",
                    "midi": 52,
                    "time": 5.920808,
                    "velocity": 0.3858267716535433,
                    "duration": 1.1101514999999997
                },
                {
                    "name": "E3",
                    "midi": 52,
                    "time": 7.0309595,
                    "velocity": 0.3858267716535433,
                    "duration": 0.3700504999999996
                },
                {
                    "name": "D#3",
                    "midi": 51,
                    "time": 7.401009999999999,
                    "velocity": 0.41732283464566927,
                    "duration": 1.1101515000000006
                },
                {
                    "name": "D3",
                    "midi": 50,
                    "time": 8.5111615,
                    "velocity": 0.3858267716535433,
                    "duration": 0.3700504999999996
                },
                {
                    "name": "C#3",
                    "midi": 49,
                    "time": 8.881212,
                    "velocity": 0.41732283464566927,
                    "duration": 2.2203029999999995
                },
                {
                    "name": "F#2",
                    "midi": 42,
                    "time": 11.841615999999998,
                    "velocity": 0.2283464566929134,
                    "duration": 1.1101514999999988
                },
                {
                    "name": "C#3",
                    "midi": 49,
                    "time": 11.841615999999998,
                    "velocity": 0.25984251968503935,
                    "duration": 1.1101514999999988
                },
                {
                    "name": "C#2",
                    "midi": 37,
                    "time": 12.211666499999998,
                    "velocity": 0.2125984251968504,
                    "duration": 0.3700504999999996
                },
                {
                    "name": "C#2",
                    "midi": 37,
                    "time": 12.581716999999998,
                    "velocity": 0.23622047244094488,
                    "duration": 0.3700504999999996
                },
                {
                    "name": "F#2",
                    "midi": 42,
                    "time": 12.951767499999997,
                    "velocity": 0.2047244094488189,
                    "duration": 0.3700504999999996
                },
                {
                    "name": "C#3",
                    "midi": 49,
                    "time": 12.951767499999997,
                    "velocity": 0.2283464566929134,
                    "duration": 0.3700504999999996
                },
                {
                    "name": "F#2",
                    "midi": 42,
                    "time": 13.321817999999997,
                    "velocity": 0.2283464566929134,
                    "duration": 1.1101514999999988
                },
                {
                    "name": "C#3",
                    "midi": 49,
                    "time": 13.321817999999997,
                    "velocity": 0.25984251968503935,
                    "duration": 1.1101514999999988
                },
                {
                    "name": "C#2",
                    "midi": 37,
                    "time": 13.691868499999996,
                    "velocity": 0.2047244094488189,
                    "duration": 0.3700504999999996
                },
                {
                    "name": "C#2",
                    "midi": 37,
                    "time": 14.061918999999996,
                    "velocity": 0.2283464566929134,
                    "duration": 0.3700504999999996
                },
                {
                    "name": "F#2",
                    "midi": 42,
                    "time": 14.431969499999996,
                    "velocity": 0.2047244094488189,
                    "duration": 0.3700504999999996
                },
                {
                    "name": "C#3",
                    "midi": 49,
                    "time": 14.431969499999996,
                    "velocity": 0.2283464566929134,
                    "duration": 0.3700504999999996
                },
                {
                    "name": "F#2",
                    "midi": 42,
                    "time": 14.802019999999995,
                    "velocity": 0.2283464566929134,
                    "duration": 1.1101514999999988
                },
                {
                    "name": "C#3",
                    "midi": 49,
                    "time": 14.802019999999995,
                    "velocity": 0.25984251968503935,
                    "duration": 1.1101514999999988
                },
                {
                    "name": "C#2",
                    "midi": 37,
                    "time": 15.172070499999995,
                    "velocity": 0.2125984251968504,
                    "duration": 0.3700504999999996
                },
                {
                    "name": "C#2",
                    "midi": 37,
                    "time": 15.542120999999995,
                    "velocity": 0.23622047244094488,
                    "duration": 0.3700504999999996
                },
                {
                    "name": "C#3",
                    "midi": 49,
                    "time": 15.912171499999994,
                    "velocity": 0.2204724409448819,
                    "duration": 0.3700504999999996
                },
                {
                    "name": "F#2",
                    "midi": 42,
                    "time": 15.912171499999994,
                    "velocity": 0.1968503937007874,
                    "duration": 0.3700504999999996
                },
                {
                    "name": "F#2",
                    "midi": 42,
                    "time": 16.282221999999994,
                    "velocity": 0.2283464566929134,
                    "duration": 1.1101515000000042
                },
                {
                    "name": "C#3",
                    "midi": 49,
                    "time": 16.282221999999994,
                    "velocity": 0.25984251968503935,
                    "duration": 1.1101515000000042
                },
                {
                    "name": "C#2",
                    "midi": 37,
                    "time": 16.652272499999995,
                    "velocity": 0.2047244094488189,
                    "duration": 0.3700505000000014
                },
                {
                    "name": "C#2",
                    "midi": 37,
                    "time": 17.022322999999997,
                    "velocity": 0.2283464566929134,
                    "duration": 0.3700505000000014
                },
                {
                    "name": "F#2",
                    "midi": 42,
                    "time": 17.392373499999998,
                    "velocity": 0.2047244094488189,
                    "duration": 0.3700505000000014
                },
                {
                    "name": "C#3",
                    "midi": 49,
                    "time": 17.392373499999998,
                    "velocity": 0.2283464566929134,
                    "duration": 0.3700505000000014
                },
                {
                    "name": "F#2",
                    "midi": 42,
                    "time": 17.762424,
                    "velocity": 0.2283464566929134,
                    "duration": 1.1101515000000042
                },
                {
                    "name": "C#3",
                    "midi": 49,
                    "time": 17.762424,
                    "velocity": 0.25984251968503935,
                    "duration": 1.1101515000000042
                },
                {
                    "name": "C#2",
                    "midi": 37,
                    "time": 18.1324745,
                    "velocity": 0.2125984251968504,
                    "duration": 0.3700505000000014
                },
                {
                    "name": "C#2",
                    "midi": 37,
                    "time": 18.502525000000002,
                    "velocity": 0.23622047244094488,
                    "duration": 0.3700505000000014
                },
                {
                    "name": "C#3",
                    "midi": 49,
                    "time": 18.872575500000004,
                    "velocity": 0.2204724409448819,
                    "duration": 0.3700505000000014
                },
                {
                    "name": "F#2",
                    "midi": 42,
                    "time": 18.872575500000004,
                    "velocity": 0.1968503937007874,
                    "duration": 0.3700505000000014
                },
                {
                    "name": "F#2",
                    "midi": 42,
                    "time": 19.242626000000005,
                    "velocity": 0.2283464566929134,
                    "duration": 1.1101515000000042
                },
                {
                    "name": "C#3",
                    "midi": 49,
                    "time": 19.242626000000005,
                    "velocity": 0.25984251968503935,
                    "duration": 1.1101515000000042
                },
                {
                    "name": "C#2",
                    "midi": 37,
                    "time": 19.612676500000006,
                    "velocity": 0.2047244094488189,
                    "duration": 0.3700505000000014
                },
                {
                    "name": "C#2",
                    "midi": 37,
                    "time": 19.982727000000008,
                    "velocity": 0.2283464566929134,
                    "duration": 0.3700505000000014
                },
                {
                    "name": "F#2",
                    "midi": 42,
                    "time": 20.35277750000001,
                    "velocity": 0.2047244094488189,
                    "duration": 0.3700505000000014
                },
                {
                    "name": "C#3",
                    "midi": 49,
                    "time": 20.35277750000001,
                    "velocity": 0.2283464566929134,
                    "duration": 0.3700505000000014
                },
                {
                    "name": "F#2",
                    "midi": 42,
                    "time": 20.72282800000001,
                    "velocity": 0.2283464566929134,
                    "duration": 1.1101515000000042
                },
                {
                    "name": "C#3",
                    "midi": 49,
                    "time": 20.72282800000001,
                    "velocity": 0.25984251968503935,
                    "duration": 1.1101515000000042
                },
                {
                    "name": "C#2",
                    "midi": 37,
                    "time": 21.092878500000012,
                    "velocity": 0.2125984251968504,
                    "duration": 0.3700505000000014
                },
                {
                    "name": "C#2",
                    "midi": 37,
                    "time": 21.462929000000013,
                    "velocity": 0.23622047244094488,
                    "duration": 0.3700505000000014
                },
                {
                    "name": "C#3",
                    "midi": 49,
                    "time": 21.832979500000015,
                    "velocity": 0.2204724409448819,
                    "duration": 0.3700505000000014
                },
                {
                    "name": "F#2",
                    "midi": 42,
                    "time": 21.832979500000015,
                    "velocity": 0.1968503937007874,
                    "duration": 0.3700505000000014
                },
                {
                    "name": "F#2",
                    "midi": 42,
                    "time": 22.203030000000016,
                    "velocity": 0.2283464566929134,
                    "duration": 1.1101515000000042
                },
                {
                    "name": "C#3",
                    "midi": 49,
                    "time": 22.203030000000016,
                    "velocity": 0.25984251968503935,
                    "duration": 1.1101515000000042
                },
                {
                    "name": "C#2",
                    "midi": 37,
                    "time": 22.573080500000017,
                    "velocity": 0.2047244094488189,
                    "duration": 0.3700505000000014
                },
                {
                    "name": "C#2",
                    "midi": 37,
                    "time": 22.94313100000002,
                    "velocity": 0.2283464566929134,
                    "duration": 0.3700505000000014
                },
                {
                    "name": "F#2",
                    "midi": 42,
                    "time": 23.31318150000002,
                    "velocity": 0.2047244094488189,
                    "duration": 0.3700505000000014
                },
                {
                    "name": "C#3",
                    "midi": 49,
                    "time": 23.31318150000002,
                    "velocity": 0.2283464566929134,
                    "duration": 0.3700505000000014
                },
                {
                    "name": "F#2",
                    "midi": 42,
                    "time": 23.68323200000002,
                    "velocity": 0.2283464566929134,
                    "duration": 1.1101515000000042
                },
                {
                    "name": "C#3",
                    "midi": 49,
                    "time": 23.68323200000002,
                    "velocity": 0.25984251968503935,
                    "duration": 1.1101515000000042
                },
                {
                    "name": "C#2",
                    "midi": 37,
                    "time": 24.053282500000023,
                    "velocity": 0.2125984251968504,
                    "duration": 0.3700505000000014
                },
                {
                    "name": "C#2",
                    "midi": 37,
                    "time": 24.423333000000024,
                    "velocity": 0.23622047244094488,
                    "duration": 0.3700505000000014
                },
                {
                    "name": "C#3",
                    "midi": 49,
                    "time": 24.793383500000026,
                    "velocity": 0.2204724409448819,
                    "duration": 0.3700505000000014
                },
                {
                    "name": "F#2",
                    "midi": 42,
                    "time": 24.793383500000026,
                    "velocity": 0.1968503937007874,
                    "duration": 0.3700505000000014
                },
                {
                    "name": "D#2",
                    "midi": 39,
                    "time": 25.163434000000027,
                    "velocity": 0.2755905511811024,
                    "duration": 0.27753787500000016
                },
                {
                    "name": "C#3",
                    "midi": 49,
                    "time": 25.163434000000027,
                    "velocity": 0.2125984251968504,
                    "duration": 1.4802020000000056
                },
                {
                    "name": "C#2",
                    "midi": 37,
                    "time": 25.53348450000003,
                    "velocity": 0.23622047244094488,
                    "duration": 0.27753787500000016
                },
                {
                    "name": "D#2",
                    "midi": 39,
                    "time": 25.90353500000003,
                    "velocity": 0.28346456692913385,
                    "duration": 0.27753787500000016
                },
                {
                    "name": "F2",
                    "midi": 41,
                    "time": 26.27358550000003,
                    "velocity": 0.23622047244094488,
                    "duration": 0.27753787500000016
                },
                {
                    "name": "F#2",
                    "midi": 42,
                    "time": 26.643636000000033,
                    "velocity": 0.2283464566929134,
                    "duration": 1.1101515000000042
                },
                {
                    "name": "C#3",
                    "midi": 49,
                    "time": 26.643636000000033,
                    "velocity": 0.25984251968503935,
                    "duration": 1.1101515000000042
                },
                {
                    "name": "C#2",
                    "midi": 37,
                    "time": 27.013686500000034,
                    "velocity": 0.2125984251968504,
                    "duration": 0.3700505000000014
                },
                {
                    "name": "C#2",
                    "midi": 37,
                    "time": 27.383737000000036,
                    "velocity": 0.25984251968503935,
                    "duration": 0.3700505000000014
                },
                {
                    "name": "C#3",
                    "midi": 49,
                    "time": 27.753787500000037,
                    "velocity": 0.23622047244094488,
                    "duration": 0.3700505000000014
                },
                {
                    "name": "F#2",
                    "midi": 42,
                    "time": 27.753787500000037,
                    "velocity": 0.2125984251968504,
                    "duration": 0.3700505000000014
                },
                {
                    "name": "F#2",
                    "midi": 42,
                    "time": 28.12383800000004,
                    "velocity": 0.2677165354330709,
                    "duration": 1.1101515000000042
                },
                {
                    "name": "C#3",
                    "midi": 49,
                    "time": 28.12383800000004,
                    "velocity": 0.30708661417322836,
                    "duration": 1.1101515000000042
                },
                {
                    "name": "C#2",
                    "midi": 37,
                    "time": 28.49388850000004,
                    "velocity": 0.25984251968503935,
                    "duration": 0.3700505000000014
                },
                {
                    "name": "C#2",
                    "midi": 37,
                    "time": 28.86393900000004,
                    "velocity": 0.2992125984251969,
                    "duration": 0.3700505000000014
                },
                {
                    "name": "F#2",
                    "midi": 42,
                    "time": 29.233989500000042,
                    "velocity": 0.2677165354330709,
                    "duration": 0.3700505000000014
                },
                {
                    "name": "C3",
                    "midi": 48,
                    "time": 29.233989500000042,
                    "velocity": 0.30708661417322836,
                    "duration": 0.3700505000000014
                },
                {
                    "name": "F#2",
                    "midi": 42,
                    "time": 29.604040000000044,
                    "velocity": 0.3228346456692913,
                    "duration": 1.1101515000000042
                },
                {
                    "name": "C3",
                    "midi": 48,
                    "time": 29.604040000000044,
                    "velocity": 0.3700787401574803,
                    "duration": 1.1101515000000042
                },
                {
                    "name": "C2",
                    "midi": 36,
                    "time": 29.974090500000045,
                    "velocity": 0.29133858267716534,
                    "duration": 0.3700505000000014
                },
                {
                    "name": "C2",
                    "midi": 36,
                    "time": 30.344141000000047,
                    "velocity": 0.3464566929133858,
                    "duration": 0.3700505000000014
                },
                {
                    "name": "C3",
                    "midi": 48,
                    "time": 30.714191500000048,
                    "velocity": 0.30708661417322836,
                    "duration": 0.3700505000000014
                },
                {
                    "name": "G2",
                    "midi": 43,
                    "time": 30.714191500000048,
                    "velocity": 0.2755905511811024,
                    "duration": 0.3700505000000014
                },
                {
                    "name": "G2",
                    "midi": 43,
                    "time": 31.08424200000005,
                    "velocity": 0.30708661417322836,
                    "duration": 1.1101515000000042
                },
                {
                    "name": "C3",
                    "midi": 48,
                    "time": 31.08424200000005,
                    "velocity": 0.36220472440944884,
                    "duration": 1.1101515000000042
                },
                {
                    "name": "C2",
                    "midi": 36,
                    "time": 31.45429250000005,
                    "velocity": 0.2677165354330709,
                    "duration": 0.3700505000000014
                },
                {
                    "name": "C2",
                    "midi": 36,
                    "time": 31.824343000000052,
                    "velocity": 0.29133858267716534,
                    "duration": 0.3700505000000014
                },
                {
                    "name": "G2",
                    "midi": 43,
                    "time": 32.194393500000054,
                    "velocity": 0.23622047244094488,
                    "duration": 0.37005049999999784
                },
                {
                    "name": "C3",
                    "midi": 48,
                    "time": 32.194393500000054,
                    "velocity": 0.25984251968503935,
                    "duration": 0.37005049999999784
                },
                {
                    "name": "F2",
                    "midi": 41,
                    "time": 32.56444400000005,
                    "velocity": 0.3937007874015748,
                    "duration": 5.828295374999975
                },
                {
                    "name": "F3",
                    "midi": 53,
                    "time": 32.56444400000005,
                    "velocity": 0.3937007874015748,
                    "duration": 1.1101514999999935
                },
                {
                    "name": "A3",
                    "midi": 57,
                    "time": 32.93449450000005,
                    "velocity": 0.3464566929133858,
                    "duration": 0.37005049999999784
                },
                {
                    "name": "A3",
                    "midi": 57,
                    "time": 33.30454500000005,
                    "velocity": 0.3779527559055118,
                    "duration": 0.37005049999999784
                },
                {
                    "name": "E3",
                    "midi": 52,
                    "time": 33.674595500000045,
                    "velocity": 0.3779527559055118,
                    "duration": 0.37005049999999784
                },
                {
                    "name": "E3",
                    "midi": 52,
                    "time": 34.04464600000004,
                    "velocity": 0.3937007874015748,
                    "duration": 1.1101514999999935
                },
                {
                    "name": "A3",
                    "midi": 57,
                    "time": 34.41469650000004,
                    "velocity": 0.36220472440944884,
                    "duration": 0.37005049999999784
                },
                {
                    "name": "A3",
                    "midi": 57,
                    "time": 34.78474700000004,
                    "velocity": 0.3858267716535433,
                    "duration": 0.37005049999999784
                },
                {
                    "name": "D3",
                    "midi": 50,
                    "time": 35.154797500000036,
                    "velocity": 0.41732283464566927,
                    "duration": 0.37005049999999784
                },
                {
                    "name": "D3",
                    "midi": 50,
                    "time": 35.524848000000034,
                    "velocity": 0.4409448818897638,
                    "duration": 1.1101515000000006
                },
                {
                    "name": "A3",
                    "midi": 57,
                    "time": 35.89489850000003,
                    "velocity": 0.3700787401574803,
                    "duration": 0.37005049999999784
                },
                {
                    "name": "A3",
                    "midi": 57,
                    "time": 36.26494900000003,
                    "velocity": 0.3858267716535433,
                    "duration": 0.37005050000000494
                },
                {
                    "name": "C3",
                    "midi": 48,
                    "time": 36.634999500000035,
                    "velocity": 0.3779527559055118,
                    "duration": 0.27753787500000016
                },
                {
                    "name": "D3",
                    "midi": 50,
                    "time": 37.00505000000003,
                    "velocity": 0.41732283464566927,
                    "duration": 0.27753787500000016
                },
                {
                    "name": "E3",
                    "midi": 52,
                    "time": 37.37510050000003,
                    "velocity": 0.36220472440944884,
                    "duration": 0.27753787500000016
                },
                {
                    "name": "F3",
                    "midi": 53,
                    "time": 37.74515100000003,
                    "velocity": 0.3858267716535433,
                    "duration": 0.27753787500000016
                },
                {
                    "name": "G3",
                    "midi": 55,
                    "time": 38.115201500000026,
                    "velocity": 0.3464566929133858,
                    "duration": 0.27753787500000016
                },
                {
                    "name": "F2",
                    "midi": 41,
                    "time": 38.392739375000026,
                    "velocity": 0.3937007874015748,
                    "duration": 6.01332062499997
                },
                {
                    "name": "G3",
                    "midi": 55,
                    "time": 38.485252000000024,
                    "velocity": 0.3937007874015748,
                    "duration": 1.1101514999999935
                },
                {
                    "name": "A#3",
                    "midi": 58,
                    "time": 38.85530250000002,
                    "velocity": 0.3464566929133858,
                    "duration": 0.37005049999999784
                },
                {
                    "name": "A#3",
                    "midi": 58,
                    "time": 39.22535300000002,
                    "velocity": 0.3779527559055118,
                    "duration": 0.37005049999999784
                },
                {
                    "name": "F3",
                    "midi": 53,
                    "time": 39.59540350000002,
                    "velocity": 0.3779527559055118,
                    "duration": 0.37005049999999784
                },
                {
                    "name": "F3",
                    "midi": 53,
                    "time": 39.965454000000015,
                    "velocity": 0.3937007874015748,
                    "duration": 1.1101514999999935
                },
                {
                    "name": "A#3",
                    "midi": 58,
                    "time": 40.33550450000001,
                    "velocity": 0.36220472440944884,
                    "duration": 0.37005049999999784
                },
                {
                    "name": "A#3",
                    "midi": 58,
                    "time": 40.70555500000001,
                    "velocity": 0.3858267716535433,
                    "duration": 0.37005049999999784
                },
                {
                    "name": "E3",
                    "midi": 52,
                    "time": 41.07560550000001,
                    "velocity": 0.41732283464566927,
                    "duration": 0.37005049999999784
                },
                {
                    "name": "E3",
                    "midi": 52,
                    "time": 41.44565600000001,
                    "velocity": 0.4409448818897638,
                    "duration": 1.1101515000000006
                },
                {
                    "name": "A#3",
                    "midi": 58,
                    "time": 41.815706500000005,
                    "velocity": 0.3700787401574803,
                    "duration": 0.37005049999999784
                },
                {
                    "name": "A#3",
                    "midi": 58,
                    "time": 42.185757,
                    "velocity": 0.3858267716535433,
                    "duration": 0.37005050000000494
                },
                {
                    "name": "D3",
                    "midi": 50,
                    "time": 42.55580750000001,
                    "velocity": 0.3779527559055118,
                    "duration": 0.27753787500000016
                },
                {
                    "name": "D3",
                    "midi": 50,
                    "time": 42.925858000000005,
                    "velocity": 0.41732283464566927,
                    "duration": 0.27753787500000016
                },
                {
                    "name": "C3",
                    "midi": 48,
                    "time": 43.2959085,
                    "velocity": 0.36220472440944884,
                    "duration": 0.27753787500000016
                },
                {
                    "name": "D3",
                    "midi": 50,
                    "time": 43.665959,
                    "velocity": 0.3858267716535433,
                    "duration": 0.27753787500000016
                },
                {
                    "name": "E3",
                    "midi": 52,
                    "time": 44.0360095,
                    "velocity": 0.3464566929133858,
                    "duration": 0.27753787500000016
                },
                {
                    "name": "F2",
                    "midi": 41,
                    "time": 44.40606,
                    "velocity": 0.3937007874015748,
                    "duration": 5.828295374999975
                },
                {
                    "name": "F3",
                    "midi": 53,
                    "time": 44.40606,
                    "velocity": 0.3937007874015748,
                    "duration": 1.1101514999999935
                },
                {
                    "name": "A3",
                    "midi": 57,
                    "time": 44.776110499999994,
                    "velocity": 0.3464566929133858,
                    "duration": 0.37005049999999784
                },
                {
                    "name": "A3",
                    "midi": 57,
                    "time": 45.14616099999999,
                    "velocity": 0.3858267716535433,
                    "duration": 0.37005049999999784
                },
                {
                    "name": "E3",
                    "midi": 52,
                    "time": 45.51621149999999,
                    "velocity": 0.4094488188976378,
                    "duration": 0.37005049999999784
                },
                {
                    "name": "E3",
                    "midi": 52,
                    "time": 45.88626199999999,
                    "velocity": 0.4409448818897638,
                    "duration": 1.1101514999999935
                },
                {
                    "name": "A3",
                    "midi": 57,
                    "time": 46.256312499999986,
                    "velocity": 0.4094488188976378,
                    "duration": 0.37005049999999784
                },
                {
                    "name": "A3",
                    "midi": 57,
                    "time": 46.626362999999984,
                    "velocity": 0.44881889763779526,
                    "duration": 0.37005049999999784
                },
                {
                    "name": "D3",
                    "midi": 50,
                    "time": 46.99641349999998,
                    "velocity": 0.47244094488188976,
                    "duration": 0.37005049999999784
                },
                {
                    "name": "D3",
                    "midi": 50,
                    "time": 47.36646399999998,
                    "velocity": 0.49606299212598426,
                    "duration": 1.1101515000000006
                },
                {
                    "name": "A3",
                    "midi": 57,
                    "time": 47.73651449999998,
                    "velocity": 0.41732283464566927,
                    "duration": 0.37005049999999784
                },
                {
                    "name": "A3",
                    "midi": 57,
                    "time": 48.106564999999975,
                    "velocity": 0.4409448818897638,
                    "duration": 0.37005050000000494
                },
                {
                    "name": "C3",
                    "midi": 48,
                    "time": 48.47661549999998,
                    "velocity": 0.4330708661417323,
                    "duration": 0.27753787500000016
                },
                {
                    "name": "D3",
                    "midi": 50,
                    "time": 48.84666599999998,
                    "velocity": 0.4645669291338583,
                    "duration": 0.27753787500000016
                },
                {
                    "name": "E3",
                    "midi": 52,
                    "time": 49.216716499999976,
                    "velocity": 0.3858267716535433,
                    "duration": 0.27753787500000016
                },
                {
                    "name": "F3",
                    "midi": 53,
                    "time": 49.58676699999997,
                    "velocity": 0.3937007874015748,
                    "duration": 0.27753787500000016
                },
                {
                    "name": "G3",
                    "midi": 55,
                    "time": 49.95681749999997,
                    "velocity": 0.3464566929133858,
                    "duration": 0.27753787500000016
                },
                {
                    "name": "F2",
                    "midi": 41,
                    "time": 50.23435537499997,
                    "velocity": 0.3937007874015748,
                    "duration": 1.572714624999989
                },
                {
                    "name": "G3",
                    "midi": 55,
                    "time": 50.32686799999997,
                    "velocity": 0.3937007874015748,
                    "duration": 1.1101514999999935
                },
                {
                    "name": "A#3",
                    "midi": 58,
                    "time": 50.69691849999997,
                    "velocity": 0.3464566929133858,
                    "duration": 0.37005049999999784
                },
                {
                    "name": "A#3",
                    "midi": 58,
                    "time": 51.066968999999965,
                    "velocity": 0.3779527559055118,
                    "duration": 0.37005049999999784
                },
                {
                    "name": "F3",
                    "midi": 53,
                    "time": 51.43701949999996,
                    "velocity": 0.3779527559055118,
                    "duration": 0.37005049999999784
                },
                {
                    "name": "F3",
                    "midi": 53,
                    "time": 51.80706999999996,
                    "velocity": 0.3937007874015748,
                    "duration": 1.1101514999999935
                },
                {
                    "name": "A#3",
                    "midi": 58,
                    "time": 52.17712049999996,
                    "velocity": 0.36220472440944884,
                    "duration": 0.37005049999999784
                },
                {
                    "name": "A#3",
                    "midi": 58,
                    "time": 52.547170999999956,
                    "velocity": 0.3937007874015748,
                    "duration": 0.37005049999999784
                },
                {
                    "name": "E3",
                    "midi": 52,
                    "time": 52.917221499999954,
                    "velocity": 0.4330708661417323,
                    "duration": 0.37005049999999784
                },
                {
                    "name": "E3",
                    "midi": 52,
                    "time": 53.28727199999995,
                    "velocity": 0.4094488188976378,
                    "duration": 1.1101514999999935
                },
                {
                    "name": "A#3",
                    "midi": 58,
                    "time": 53.65732249999995,
                    "velocity": 0.3700787401574803,
                    "duration": 0.37005049999999784
                },
                {
                    "name": "A#3",
                    "midi": 58,
                    "time": 54.02737299999995,
                    "velocity": 0.4330708661417323,
                    "duration": 0.37005049999999784
                },
                {
                    "name": "D#3",
                    "midi": 51,
                    "time": 54.397423499999945,
                    "velocity": 0.4409448818897638,
                    "duration": 0.37005049999999784
                },
                {
                    "name": "D#3",
                    "midi": 51,
                    "time": 54.76747399999994,
                    "velocity": 0.4645669291338583,
                    "duration": 1.1101514999999935
                },
                {
                    "name": "A#3",
                    "midi": 58,
                    "time": 55.13752449999994,
                    "velocity": 0.44881889763779526,
                    "duration": 0.37005049999999784
                },
                {
                    "name": "A#3",
                    "midi": 58,
                    "time": 55.50757499999994,
                    "velocity": 0.48031496062992124,
                    "duration": 0.37005049999999784
                },
                {
                    "name": "C#3",
                    "midi": 49,
                    "time": 55.87762549999994,
                    "velocity": 0.5196850393700787,
                    "duration": 0.37005049999999784
                },
                {
                    "name": "C#3",
                    "midi": 49,
                    "time": 56.247675999999935,
                    "velocity": 0.5511811023622047,
                    "duration": 1.1101514999999935
                },
                {
                    "name": "A#3",
                    "midi": 58,
                    "time": 56.61772649999993,
                    "velocity": 0.47244094488188976,
                    "duration": 0.37005049999999784
                },
                {
                    "name": "A#3",
                    "midi": 58,
                    "time": 56.98777699999993,
                    "velocity": 0.5275590551181102,
                    "duration": 0.37005049999999784
                },
                {
                    "name": "C3",
                    "midi": 48,
                    "time": 57.35782749999993,
                    "velocity": 0.5433070866141733,
                    "duration": 0.37005049999999784
                },
                {
                    "name": "C3",
                    "midi": 48,
                    "time": 57.727877999999926,
                    "velocity": 0.5826771653543307,
                    "duration": 3.7005049999999997
                },
                {
                    "name": "A#3",
                    "midi": 58,
                    "time": 58.097928499999924,
                    "velocity": 0.4881889763779528,
                    "duration": 0.37005049999999784
                },
                {
                    "name": "A#3",
                    "midi": 58,
                    "time": 58.46797899999992,
                    "velocity": 0.5433070866141733,
                    "duration": 2.960404000000004
                },
                {
                    "name": "B2",
                    "midi": 47,
                    "time": 61.79843349999993,
                    "velocity": 0.2677165354330709,
                    "duration": 0.37005049999999784
                },
                {
                    "name": "B2",
                    "midi": 47,
                    "time": 62.16848399999993,
                    "velocity": 0.30708661417322836,
                    "duration": 5.180706999999991
                },
                {
                    "name": "G#3",
                    "midi": 56,
                    "time": 62.538534499999926,
                    "velocity": 0.25984251968503935,
                    "duration": 0.37005049999999784
                },
                {
                    "name": "G#3",
                    "midi": 56,
                    "time": 62.908584999999924,
                    "velocity": 0.25984251968503935,
                    "duration": 4.440605999999995
                },
                {
                    "name": "F#3",
                    "midi": 54,
                    "time": 68.08929199999992,
                    "velocity": 0.3543307086614173,
                    "duration": 1.1101515000000006
                },
                {
                    "name": "F#3",
                    "midi": 54,
                    "time": 69.19944349999992,
                    "velocity": 0.30708661417322836,
                    "duration": 0.37005050000000494
                },
                {
                    "name": "F3",
                    "midi": 53,
                    "time": 69.56949399999992,
                    "velocity": 0.3543307086614173,
                    "duration": 1.1101515000000006
                },
                {
                    "name": "F3",
                    "midi": 53,
                    "time": 70.67964549999992,
                    "velocity": 0.3543307086614173,
                    "duration": 0.37005049999999073
                },
                {
                    "name": "E3",
                    "midi": 52,
                    "time": 71.04969599999991,
                    "velocity": 0.3858267716535433,
                    "duration": 1.1101515000000006
                },
                {
                    "name": "E3",
                    "midi": 52,
                    "time": 72.15984749999991,
                    "velocity": 0.3858267716535433,
                    "duration": 0.37005050000000494
                },
                {
                    "name": "D#3",
                    "midi": 51,
                    "time": 72.52989799999992,
                    "velocity": 0.41732283464566927,
                    "duration": 1.1101515000000006
                },
                {
                    "name": "D3",
                    "midi": 50,
                    "time": 73.64004949999992,
                    "velocity": 0.3858267716535433,
                    "duration": 0.37005050000000494
                },
                {
                    "name": "C#3",
                    "midi": 49,
                    "time": 74.01009999999992,
                    "velocity": 0.41732283464566927,
                    "duration": 2.2203030000000012
                },
                {
                    "name": "F#2",
                    "midi": 42,
                    "time": 76.97050399999993,
                    "velocity": 0.2283464566929134,
                    "duration": 1.1101515000000148
                },
                {
                    "name": "C#3",
                    "midi": 49,
                    "time": 76.97050399999993,
                    "velocity": 0.25984251968503935,
                    "duration": 1.1101515000000148
                },
                {
                    "name": "C#2",
                    "midi": 37,
                    "time": 77.34055449999994,
                    "velocity": 0.2125984251968504,
                    "duration": 0.37005050000000494
                },
                {
                    "name": "C#2",
                    "midi": 37,
                    "time": 77.71060499999994,
                    "velocity": 0.23622047244094488,
                    "duration": 0.37005050000000494
                },
                {
                    "name": "F#2",
                    "midi": 42,
                    "time": 78.08065549999995,
                    "velocity": 0.2047244094488189,
                    "duration": 0.37005050000000494
                },
                {
                    "name": "C#3",
                    "midi": 49,
                    "time": 78.08065549999995,
                    "velocity": 0.2283464566929134,
                    "duration": 0.37005050000000494
                },
                {
                    "name": "F#2",
                    "midi": 42,
                    "time": 78.45070599999995,
                    "velocity": 0.2283464566929134,
                    "duration": 1.1101515000000006
                },
                {
                    "name": "C#3",
                    "midi": 49,
                    "time": 78.45070599999995,
                    "velocity": 0.25984251968503935,
                    "duration": 1.1101515000000006
                },
                {
                    "name": "C#2",
                    "midi": 37,
                    "time": 78.82075649999994,
                    "velocity": 0.2047244094488189,
                    "duration": 0.37005050000000494
                },
                {
                    "name": "C#2",
                    "midi": 37,
                    "time": 79.19080699999995,
                    "velocity": 0.2283464566929134,
                    "duration": 0.37005050000000494
                },
                {
                    "name": "F#2",
                    "midi": 42,
                    "time": 79.56085749999995,
                    "velocity": 0.2047244094488189,
                    "duration": 0.37005049999999073
                },
                {
                    "name": "C#3",
                    "midi": 49,
                    "time": 79.56085749999995,
                    "velocity": 0.2283464566929134,
                    "duration": 0.37005049999999073
                },
                {
                    "name": "F#2",
                    "midi": 42,
                    "time": 79.93090799999995,
                    "velocity": 0.2283464566929134,
                    "duration": 1.1101515000000148
                },
                {
                    "name": "C#3",
                    "midi": 49,
                    "time": 79.93090799999995,
                    "velocity": 0.25984251968503935,
                    "duration": 1.1101515000000148
                },
                {
                    "name": "C#2",
                    "midi": 37,
                    "time": 80.30095849999995,
                    "velocity": 0.2125984251968504,
                    "duration": 0.37005050000000494
                },
                {
                    "name": "C#2",
                    "midi": 37,
                    "time": 80.67100899999996,
                    "velocity": 0.23622047244094488,
                    "duration": 0.37005050000000494
                },
                {
                    "name": "C#3",
                    "midi": 49,
                    "time": 81.04105949999996,
                    "velocity": 0.2204724409448819,
                    "duration": 0.37005050000000494
                },
                {
                    "name": "F#2",
                    "midi": 42,
                    "time": 81.04105949999996,
                    "velocity": 0.1968503937007874,
                    "duration": 0.37005050000000494
                },
                {
                    "name": "F#2",
                    "midi": 42,
                    "time": 81.41110999999997,
                    "velocity": 0.2283464566929134,
                    "duration": 1.1101515000000006
                },
                {
                    "name": "C#3",
                    "midi": 49,
                    "time": 81.41110999999997,
                    "velocity": 0.25984251968503935,
                    "duration": 1.1101515000000006
                },
                {
                    "name": "C#2",
                    "midi": 37,
                    "time": 81.78116049999996,
                    "velocity": 0.2047244094488189,
                    "duration": 0.37005050000000494
                },
                {
                    "name": "C#2",
                    "midi": 37,
                    "time": 82.15121099999996,
                    "velocity": 0.2283464566929134,
                    "duration": 0.37005050000000494
                },
                {
                    "name": "F#2",
                    "midi": 42,
                    "time": 82.52126149999997,
                    "velocity": 0.2047244094488189,
                    "duration": 0.37005050000000494
                },
                {
                    "name": "C#3",
                    "midi": 49,
                    "time": 82.52126149999997,
                    "velocity": 0.2283464566929134,
                    "duration": 0.37005050000000494
                },
                {
                    "name": "F#2",
                    "midi": 42,
                    "time": 82.89131199999997,
                    "velocity": 0.2283464566929134,
                    "duration": 1.1101515000000006
                },
                {
                    "name": "C#3",
                    "midi": 49,
                    "time": 82.89131199999997,
                    "velocity": 0.25984251968503935,
                    "duration": 1.1101515000000006
                },
                {
                    "name": "C#2",
                    "midi": 37,
                    "time": 83.26136249999998,
                    "velocity": 0.2125984251968504,
                    "duration": 0.37005050000000494
                },
                {
                    "name": "C#2",
                    "midi": 37,
                    "time": 83.63141299999998,
                    "velocity": 0.23622047244094488,
                    "duration": 0.37005049999999073
                },
                {
                    "name": "C#3",
                    "midi": 49,
                    "time": 84.00146349999997,
                    "velocity": 0.2204724409448819,
                    "duration": 0.37005050000000494
                },
                {
                    "name": "F#2",
                    "midi": 42,
                    "time": 84.00146349999997,
                    "velocity": 0.1968503937007874,
                    "duration": 0.37005050000000494
                },
                {
                    "name": "F#2",
                    "midi": 42,
                    "time": 84.37151399999998,
                    "velocity": 0.2283464566929134,
                    "duration": 1.1101515000000148
                },
                {
                    "name": "C#3",
                    "midi": 49,
                    "time": 84.37151399999998,
                    "velocity": 0.25984251968503935,
                    "duration": 1.1101515000000148
                },
                {
                    "name": "C#2",
                    "midi": 37,
                    "time": 84.74156449999998,
                    "velocity": 0.2047244094488189,
                    "duration": 0.37005050000000494
                },
                {
                    "name": "C#2",
                    "midi": 37,
                    "time": 85.11161499999999,
                    "velocity": 0.2283464566929134,
                    "duration": 0.37005050000000494
                },
                {
                    "name": "F#2",
                    "midi": 42,
                    "time": 85.48166549999999,
                    "velocity": 0.2047244094488189,
                    "duration": 0.37005050000000494
                },
                {
                    "name": "C#3",
                    "midi": 49,
                    "time": 85.48166549999999,
                    "velocity": 0.2283464566929134,
                    "duration": 0.37005050000000494
                },
                {
                    "name": "F#2",
                    "midi": 42,
                    "time": 85.851716,
                    "velocity": 0.2283464566929134,
                    "duration": 1.1101515000000148
                },
                {
                    "name": "C#3",
                    "midi": 49,
                    "time": 85.851716,
                    "velocity": 0.25984251968503935,
                    "duration": 1.1101515000000148
                },
                {
                    "name": "C#2",
                    "midi": 37,
                    "time": 86.2217665,
                    "velocity": 0.2125984251968504,
                    "duration": 0.37005050000000494
                },
                {
                    "name": "C#2",
                    "midi": 37,
                    "time": 86.591817,
                    "velocity": 0.23622047244094488,
                    "duration": 0.37005050000000494
                },
                {
                    "name": "C#3",
                    "midi": 49,
                    "time": 86.96186750000001,
                    "velocity": 0.2204724409448819,
                    "duration": 0.37005050000000494
                },
                {
                    "name": "F#2",
                    "midi": 42,
                    "time": 86.96186750000001,
                    "velocity": 0.1968503937007874,
                    "duration": 0.37005050000000494
                },
                {
                    "name": "F#2",
                    "midi": 42,
                    "time": 87.33191800000002,
                    "velocity": 0.2283464566929134,
                    "duration": 1.1101515000000006
                },
                {
                    "name": "C#3",
                    "midi": 49,
                    "time": 87.33191800000002,
                    "velocity": 0.25984251968503935,
                    "duration": 1.1101515000000006
                },
                {
                    "name": "C#2",
                    "midi": 37,
                    "time": 87.7019685,
                    "velocity": 0.2047244094488189,
                    "duration": 0.37005050000000494
                },
                {
                    "name": "C#2",
                    "midi": 37,
                    "time": 88.07201900000001,
                    "velocity": 0.2283464566929134,
                    "duration": 0.37005050000000494
                },
                {
                    "name": "F#2",
                    "midi": 42,
                    "time": 88.44206950000002,
                    "velocity": 0.2047244094488189,
                    "duration": 0.37005050000000494
                },
                {
                    "name": "C#3",
                    "midi": 49,
                    "time": 88.44206950000002,
                    "velocity": 0.2283464566929134,
                    "duration": 0.37005050000000494
                },
                {
                    "name": "F#2",
                    "midi": 42,
                    "time": 88.81212000000002,
                    "velocity": 0.2283464566929134,
                    "duration": 1.1101515000000148
                },
                {
                    "name": "C#3",
                    "midi": 49,
                    "time": 88.81212000000002,
                    "velocity": 0.25984251968503935,
                    "duration": 1.1101515000000148
                },
                {
                    "name": "C#2",
                    "midi": 37,
                    "time": 89.18217050000003,
                    "velocity": 0.2125984251968504,
                    "duration": 0.37005050000000494
                },
                {
                    "name": "C#2",
                    "midi": 37,
                    "time": 89.55222100000003,
                    "velocity": 0.23622047244094488,
                    "duration": 0.37005050000000494
                },
                {
                    "name": "C#3",
                    "midi": 49,
                    "time": 89.92227150000004,
                    "velocity": 0.2204724409448819,
                    "duration": 0.37005050000000494
                },
                {
                    "name": "F#2",
                    "midi": 42,
                    "time": 89.92227150000004,
                    "velocity": 0.1968503937007874,
                    "duration": 0.37005050000000494
                },
                {
                    "name": "D#2",
                    "midi": 39,
                    "time": 90.29232200000004,
                    "velocity": 0.2755905511811024,
                    "duration": 0.27753787499999305
                },
                {
                    "name": "C#3",
                    "midi": 49,
                    "time": 90.29232200000004,
                    "velocity": 0.2125984251968504,
                    "duration": 1.480201999999963
                },
                {
                    "name": "C#2",
                    "midi": 37,
                    "time": 90.66237250000003,
                    "velocity": 0.23622047244094488,
                    "duration": 0.27753787499999305
                },
                {
                    "name": "D#2",
                    "midi": 39,
                    "time": 91.03242300000002,
                    "velocity": 0.28346456692913385,
                    "duration": 0.27753787499999305
                },
                {
                    "name": "F2",
                    "midi": 41,
                    "time": 91.40247350000001,
                    "velocity": 0.23622047244094488,
                    "duration": 0.27753787499999305
                },
                {
                    "name": "F#2",
                    "midi": 42,
                    "time": 91.772524,
                    "velocity": 0.2283464566929134,
                    "duration": 1.1101515000000148
                },
                {
                    "name": "C#3",
                    "midi": 49,
                    "time": 91.772524,
                    "velocity": 0.25984251968503935,
                    "duration": 1.1101515000000148
                },
                {
                    "name": "C#2",
                    "midi": 37,
                    "time": 92.14257450000001,
                    "velocity": 0.2125984251968504,
                    "duration": 0.37005050000000494
                },
                {
                    "name": "C#2",
                    "midi": 37,
                    "time": 92.51262500000001,
                    "velocity": 0.2440944881889764,
                    "duration": 0.37005050000000494
                },
                {
                    "name": "C#3",
                    "midi": 49,
                    "time": 92.88267550000002,
                    "velocity": 0.2283464566929134,
                    "duration": 0.37005050000000494
                },
                {
                    "name": "F#2",
                    "midi": 42,
                    "time": 92.88267550000002,
                    "velocity": 0.2047244094488189,
                    "duration": 0.37005050000000494
                },
                {
                    "name": "F#2",
                    "midi": 42,
                    "time": 93.25272600000002,
                    "velocity": 0.2440944881889764,
                    "duration": 1.1101515000000006
                },
                {
                    "name": "C#3",
                    "midi": 49,
                    "time": 93.25272600000002,
                    "velocity": 0.28346456692913385,
                    "duration": 1.1101515000000006
                },
                {
                    "name": "C#2",
                    "midi": 37,
                    "time": 93.62277650000001,
                    "velocity": 0.2283464566929134,
                    "duration": 0.37005050000000494
                },
                {
                    "name": "C#2",
                    "midi": 37,
                    "time": 93.99282700000002,
                    "velocity": 0.2677165354330709,
                    "duration": 0.37005050000000494
                },
                {
                    "name": "F#2",
                    "midi": 42,
                    "time": 94.36287750000002,
                    "velocity": 0.1889763779527559,
                    "duration": 0.37005050000000494
                },
                {
                    "name": "B2",
                    "midi": 47,
                    "time": 94.36287750000002,
                    "velocity": 0.2125984251968504,
                    "duration": 0.37005050000000494
                },
                {
                    "name": "F#2",
                    "midi": 42,
                    "time": 94.73292800000003,
                    "velocity": 0.23622047244094488,
                    "duration": 1.1101515000000148
                },
                {
                    "name": "B2",
                    "midi": 47,
                    "time": 94.73292800000003,
                    "velocity": 0.2755905511811024,
                    "duration": 1.1101515000000148
                },
                {
                    "name": "B1",
                    "midi": 35,
                    "time": 95.10297850000003,
                    "velocity": 0.2440944881889764,
                    "duration": 0.37005050000000494
                },
                {
                    "name": "B1",
                    "midi": 35,
                    "time": 95.47302900000004,
                    "velocity": 0.2755905511811024,
                    "duration": 0.37005050000000494
                },
                {
                    "name": "C3",
                    "midi": 48,
                    "time": 95.84307950000004,
                    "velocity": 0.2677165354330709,
                    "duration": 0.37005050000000494
                },
                {
                    "name": "F#2",
                    "midi": 42,
                    "time": 95.84307950000004,
                    "velocity": 0.23622047244094488,
                    "duration": 0.37005050000000494
                },
                {
                    "name": "F#2",
                    "midi": 42,
                    "time": 96.21313000000005,
                    "velocity": 0.2992125984251969,
                    "duration": 1.1101515000000006
                },
                {
                    "name": "C3",
                    "midi": 48,
                    "time": 96.21313000000005,
                    "velocity": 0.33070866141732286,
                    "duration": 1.1101515000000006
                },
                {
                    "name": "C2",
                    "midi": 36,
                    "time": 96.58318050000004,
                    "velocity": 0.28346456692913385,
                    "duration": 0.37005050000000494
                },
                {
                    "name": "C2",
                    "midi": 36,
                    "time": 96.95323100000005,
                    "velocity": 0.3543307086614173,
                    "duration": 0.37005050000000494
                },
                {
                    "name": "F#2",
                    "midi": 42,
                    "time": 97.32328150000005,
                    "velocity": 0.31496062992125984,
                    "duration": 0.37005050000000494
                },
                {
                    "name": "C3",
                    "midi": 48,
                    "time": 97.32328150000005,
                    "velocity": 0.3543307086614173,
                    "duration": 0.37005050000000494
                },
                {
                    "name": "C#2",
                    "midi": 37,
                    "time": 97.60081937500006,
                    "velocity": 0.41732283464566927,
                    "duration": 3.0529166249999946
                },
                {
                    "name": "F#3",
                    "midi": 54,
                    "time": 97.69333200000005,
                    "velocity": 0.4409448818897638,
                    "duration": 0.7401009999999957
                },
                {
                    "name": "F3",
                    "midi": 53,
                    "time": 98.43343300000005,
                    "velocity": 0.4094488188976378,
                    "duration": 0.7401009999999957
                },
                {
                    "name": "D#3",
                    "midi": 51,
                    "time": 99.17353400000005,
                    "velocity": 0.4409448818897638,
                    "duration": 0.7401010000000099
                },
                {
                    "name": "C#3",
                    "midi": 49,
                    "time": 99.91363500000006,
                    "velocity": 0.4015748031496063,
                    "duration": 0.647588374999998
                },
                {
                    "name": "C#2",
                    "midi": 37,
                    "time": 100.46871075000006,
                    "velocity": 0.3700787401574803,
                    "duration": 3.052916625000009
                },
                {
                    "name": "A#3",
                    "midi": 58,
                    "time": 100.65373600000005,
                    "velocity": 0.5196850393700787,
                    "duration": 0.7401009999999957
                },
                {
                    "name": "G#3",
                    "midi": 56,
                    "time": 101.39383700000005,
                    "velocity": 0.44881889763779526,
                    "duration": 0.5550757500000003
                },
                {
                    "name": "F#3",
                    "midi": 54,
                    "time": 101.94891275000005,
                    "velocity": 0.41732283464566927,
                    "duration": 0.18502524999999537
                },
                {
                    "name": "F#3",
                    "midi": 54,
                    "time": 102.13393800000004,
                    "velocity": 0.4645669291338583,
                    "duration": 0.37005050000000494
                },
                {
                    "name": "F3",
                    "midi": 53,
                    "time": 102.50398850000005,
                    "velocity": 0.41732283464566927,
                    "duration": 0.37005050000000494
                },
                {
                    "name": "D#3",
                    "midi": 51,
                    "time": 102.87403900000005,
                    "velocity": 0.44881889763779526,
                    "duration": 0.37005050000000494
                },
                {
                    "name": "F3",
                    "midi": 53,
                    "time": 103.24408950000006,
                    "velocity": 0.4094488188976378,
                    "duration": 0.27753787500000726
                },
                {
                    "name": "C#2",
                    "midi": 37,
                    "time": 103.52162737500007,
                    "velocity": 0.3700787401574803,
                    "duration": 3.052916625000023
                },
                {
                    "name": "F#3",
                    "midi": 54,
                    "time": 103.61414000000006,
                    "velocity": 0.4409448818897638,
                    "duration": 0.7401009999999957
                },
                {
                    "name": "C#3",
                    "midi": 49,
                    "time": 104.35424100000006,
                    "velocity": 0.4094488188976378,
                    "duration": 0.37005050000000494
                },
                {
                    "name": "D3",
                    "midi": 50,
                    "time": 104.72429150000006,
                    "velocity": 0.3700787401574803,
                    "duration": 0.37005050000000494
                },
                {
                    "name": "D#3",
                    "midi": 51,
                    "time": 105.09434200000007,
                    "velocity": 0.4409448818897638,
                    "duration": 0.37005050000000494
                },
                {
                    "name": "C3",
                    "midi": 48,
                    "time": 105.46439250000007,
                    "velocity": 0.3779527559055118,
                    "duration": 0.37005050000000494
                },
                {
                    "name": "C#3",
                    "midi": 49,
                    "time": 105.83444300000008,
                    "velocity": 0.4015748031496063,
                    "duration": 0.7401010000000099
                },
                {
                    "name": "C#2",
                    "midi": 37,
                    "time": 106.38951875000008,
                    "velocity": 0.3700787401574803,
                    "duration": 3.052916625000023
                },
                {
                    "name": "A#3",
                    "midi": 58,
                    "time": 106.57454400000009,
                    "velocity": 0.5196850393700787,
                    "duration": 0.7401009999999957
                },
                {
                    "name": "G#3",
                    "midi": 56,
                    "time": 107.31464500000008,
                    "velocity": 0.44881889763779526,
                    "duration": 0.5550757500000003
                },
                {
                    "name": "F#3",
                    "midi": 54,
                    "time": 107.86972075000008,
                    "velocity": 0.41732283464566927,
                    "duration": 0.18502524999999537
                },
                {
                    "name": "F#3",
                    "midi": 54,
                    "time": 108.05474600000008,
                    "velocity": 0.4645669291338583,
                    "duration": 0.37005050000000494
                },
                {
                    "name": "F3",
                    "midi": 53,
                    "time": 108.42479650000008,
                    "velocity": 0.41732283464566927,
                    "duration": 0.37005050000000494
                },
                {
                    "name": "D#3",
                    "midi": 51,
                    "time": 108.79484700000009,
                    "velocity": 0.44881889763779526,
                    "duration": 0.37005050000000494
                },
                {
                    "name": "F3",
                    "midi": 53,
                    "time": 109.1648975000001,
                    "velocity": 0.4094488188976378,
                    "duration": 0.37005050000000494
                },
                {
                    "name": "F#2",
                    "midi": 42,
                    "time": 109.5349480000001,
                    "velocity": 0.3779527559055118,
                    "duration": 1.1101514999999864
                },
                {
                    "name": "C#3",
                    "midi": 49,
                    "time": 109.5349480000001,
                    "velocity": 0.4330708661417323,
                    "duration": 1.1101514999999864
                },
                {
                    "name": "C2",
                    "midi": 36,
                    "time": 110.64509950000009,
                    "velocity": 0.3700787401574803,
                    "duration": 0.27753787499999305
                },
                {
                    "name": "C#2",
                    "midi": 37,
                    "time": 111.01515000000008,
                    "velocity": 0.41732283464566927,
                    "duration": 0.27753787499999305
                },
                {
                    "name": "F#2",
                    "midi": 42,
                    "time": 111.38520050000007,
                    "velocity": 0.3779527559055118,
                    "duration": 0.27753787499999305
                },
                {
                    "name": "A#2",
                    "midi": 46,
                    "time": 111.75525100000006,
                    "velocity": 0.4015748031496063,
                    "duration": 0.27753787499999305
                },
                {
                    "name": "C#3",
                    "midi": 49,
                    "time": 112.12530150000005,
                    "velocity": 0.3779527559055118,
                    "duration": 0.27753787499999305
                },
                {
                    "name": "D#3",
                    "midi": 51,
                    "time": 112.49535200000004,
                    "velocity": 0.4015748031496063,
                    "duration": 1.1101514999999864
                },
                {
                    "name": "C3",
                    "midi": 48,
                    "time": 113.60550350000003,
                    "velocity": 0.3228346456692913,
                    "duration": 0.27753787499999305
                },
                {
                    "name": "C#3",
                    "midi": 49,
                    "time": 113.97555400000002,
                    "velocity": 0.3700787401574803,
                    "duration": 0.27753787499999305
                },
                {
                    "name": "F#3",
                    "midi": 54,
                    "time": 114.34560450000001,
                    "velocity": 0.31496062992125984,
                    "duration": 0.27753787499999305
                },
                {
                    "name": "A#3",
                    "midi": 58,
                    "time": 114.715655,
                    "velocity": 0.33070866141732286,
                    "duration": 0.27753787499999305
                },
                {
                    "name": "C#4",
                    "midi": 61,
                    "time": 115.08570549999999,
                    "velocity": 0.30708661417322836,
                    "duration": 0.27753787499999305
                },
                {
                    "name": "D#4",
                    "midi": 63,
                    "time": 115.45575599999998,
                    "velocity": 0.3228346456692913,
                    "duration": 1.4802020000000056
                },
                {
                    "name": "A#3",
                    "midi": 58,
                    "time": 116.93595799999999,
                    "velocity": 0.30708661417322836,
                    "duration": 1.4802020000000056
                },
                {
                    "name": "D#4",
                    "midi": 63,
                    "time": 118.41615999999999,
                    "velocity": 0.30708661417322836,
                    "duration": 1.4802019999999914
                },
                {
                    "name": "A#3",
                    "midi": 58,
                    "time": 119.89636199999998,
                    "velocity": 0.2755905511811024,
                    "duration": 1.4802020000000056
                },
                {
                    "name": "F#4",
                    "midi": 66,
                    "time": 121.37656399999999,
                    "velocity": 0.2204724409448819,
                    "duration": 2.960403999999997
                }
            ],
            "controlChanges": {
                "7": [
                    {
                        "number": 7,
                        "time": 0,
                        "value": 0.7874015748031497
                    }
                ],
                "64": [
                    {
                        "number": 64,
                        "time": 2.960404,
                        "value": 1
                    },
                    {
                        "number": 64,
                        "time": 4.109102427083333,
                        "value": 0
                    },
                    {
                        "number": 64,
                        "time": 4.580916814583333,
                        "value": 1
                    },
                    {
                        "number": 64,
                        "time": 5.627851354166666,
                        "value": 0
                    },
                    {
                        "number": 64,
                        "time": 6.028739395833333,
                        "value": 1
                    },
                    {
                        "number": 64,
                        "time": 6.953865645833333,
                        "value": 0
                    },
                    {
                        "number": 64,
                        "time": 7.570616479166666,
                        "value": 1
                    },
                    {
                        "number": 64,
                        "time": 8.4649051875,
                        "value": 0
                    },
                    {
                        "number": 64,
                        "time": 9.2512625,
                        "value": 1
                    },
                    {
                        "number": 64,
                        "time": 10.251940727083333,
                        "value": 0
                    },
                    {
                        "number": 64,
                        "time": 10.318241441666666,
                        "value": 1
                    },
                    {
                        "number": 64,
                        "time": 11.624211331249999,
                        "value": 0
                    },
                    {
                        "number": 64,
                        "time": 11.841615999999998,
                        "value": 1
                    },
                    {
                        "number": 64,
                        "time": 12.99031442708333,
                        "value": 0
                    },
                    {
                        "number": 64,
                        "time": 13.46212881458333,
                        "value": 1
                    },
                    {
                        "number": 64,
                        "time": 14.509063354166662,
                        "value": 0
                    },
                    {
                        "number": 64,
                        "time": 14.802019999999995,
                        "value": 1
                    },
                    {
                        "number": 64,
                        "time": 16.282221999999994,
                        "value": 0
                    },
                    {
                        "number": 64,
                        "time": 16.422532814583327,
                        "value": 1
                    },
                    {
                        "number": 64,
                        "time": 17.762424,
                        "value": 0
                    },
                    {
                        "number": 64,
                        "time": 17.762424,
                        "value": 1
                    },
                    {
                        "number": 64,
                        "time": 18.86178236041667,
                        "value": 0
                    },
                    {
                        "number": 64,
                        "time": 20.78758683750001,
                        "value": 1
                    },
                    {
                        "number": 64,
                        "time": 22.203030000000016,
                        "value": 0
                    },
                    {
                        "number": 64,
                        "time": 22.34334081458335,
                        "value": 1
                    },
                    {
                        "number": 64,
                        "time": 23.68323200000002,
                        "value": 0
                    },
                    {
                        "number": 64,
                        "time": 23.68323200000002,
                        "value": 1
                    },
                    {
                        "number": 64,
                        "time": 24.75483657291669,
                        "value": 0
                    },
                    {
                        "number": 64,
                        "time": 26.643636000000033,
                        "value": 1
                    },
                    {
                        "number": 64,
                        "time": 28.12383800000004,
                        "value": 0
                    },
                    {
                        "number": 64,
                        "time": 28.264148814583372,
                        "value": 1
                    },
                    {
                        "number": 64,
                        "time": 29.596330614583376,
                        "value": 0
                    },
                    {
                        "number": 64,
                        "time": 29.604040000000044,
                        "value": 1
                    },
                    {
                        "number": 64,
                        "time": 31.08424200000005,
                        "value": 0
                    },
                    {
                        "number": 64,
                        "time": 31.224552814583383,
                        "value": 1
                    },
                    {
                        "number": 64,
                        "time": 32.334704314583384,
                        "value": 0
                    },
                    {
                        "number": 64,
                        "time": 32.89132194166672,
                        "value": 1
                    },
                    {
                        "number": 64,
                        "time": 33.892000168750045,
                        "value": 0
                    },
                    {
                        "number": 64,
                        "time": 34.21887811041671,
                        "value": 1
                    },
                    {
                        "number": 64,
                        "time": 35.19797005833337,
                        "value": 0
                    },
                    {
                        "number": 64,
                        "time": 35.568020558333366,
                        "value": 1
                    },
                    {
                        "number": 64,
                        "time": 36.5594475229167,
                        "value": 0
                    },
                    {
                        "number": 64,
                        "time": 38.33877367708336,
                        "value": 1
                    },
                    {
                        "number": 64,
                        "time": 39.81280816875002,
                        "value": 0
                    },
                    {
                        "number": 64,
                        "time": 40.13968611041668,
                        "value": 1
                    },
                    {
                        "number": 64,
                        "time": 41.11877805833334,
                        "value": 0
                    },
                    {
                        "number": 64,
                        "time": 41.48882855833334,
                        "value": 1
                    },
                    {
                        "number": 64,
                        "time": 42.48025552291667,
                        "value": 0
                    },
                    {
                        "number": 64,
                        "time": 44.73293794166666,
                        "value": 1
                    },
                    {
                        "number": 64,
                        "time": 45.73361616874999,
                        "value": 0
                    },
                    {
                        "number": 64,
                        "time": 46.060494110416656,
                        "value": 1
                    },
                    {
                        "number": 64,
                        "time": 47.03958605833331,
                        "value": 0
                    },
                    {
                        "number": 64,
                        "time": 47.40963655833331,
                        "value": 1
                    },
                    {
                        "number": 64,
                        "time": 48.401063522916644,
                        "value": 0
                    },
                    {
                        "number": 64,
                        "time": 50.180389677083305,
                        "value": 1
                    },
                    {
                        "number": 64,
                        "time": 51.65442416874996,
                        "value": 0
                    },
                    {
                        "number": 64,
                        "time": 51.98130211041663,
                        "value": 1
                    },
                    {
                        "number": 64,
                        "time": 52.960394058333286,
                        "value": 0
                    },
                    {
                        "number": 64,
                        "time": 53.35048896041662,
                        "value": 1
                    },
                    {
                        "number": 64,
                        "time": 54.614828168749945,
                        "value": 0
                    },
                    {
                        "number": 64,
                        "time": 54.94170611041661,
                        "value": 1
                    },
                    {
                        "number": 64,
                        "time": 55.92079805833327,
                        "value": 0
                    },
                    {
                        "number": 64,
                        "time": 56.423449987499936,
                        "value": 1
                    },
                    {
                        "number": 64,
                        "time": 57.57523216874993,
                        "value": 0
                    },
                    {
                        "number": 64,
                        "time": 57.88669133958326,
                        "value": 1
                    },
                    {
                        "number": 64,
                        "time": 60.873307249999925,
                        "value": 0
                    },
                    {
                        "number": 64,
                        "time": 61.67508333333326,
                        "value": 1
                    },
                    {
                        "number": 64,
                        "time": 63.87842568541659,
                        "value": 0
                    },
                    {
                        "number": 64,
                        "time": 63.966312679166585,
                        "value": 1
                    },
                    {
                        "number": 64,
                        "time": 67.14412134791658,
                        "value": 0
                    },
                    {
                        "number": 64,
                        "time": 68.08929199999992,
                        "value": 1
                    },
                    {
                        "number": 64,
                        "time": 69.23799042708325,
                        "value": 0
                    },
                    {
                        "number": 64,
                        "time": 69.70980481458325,
                        "value": 1
                    },
                    {
                        "number": 64,
                        "time": 70.75673935416658,
                        "value": 0
                    },
                    {
                        "number": 64,
                        "time": 71.15762739583325,
                        "value": 1
                    },
                    {
                        "number": 64,
                        "time": 72.08275364583325,
                        "value": 0
                    },
                    {
                        "number": 64,
                        "time": 72.69950447916658,
                        "value": 1
                    },
                    {
                        "number": 64,
                        "time": 73.59379318749991,
                        "value": 0
                    },
                    {
                        "number": 64,
                        "time": 74.38015049999993,
                        "value": 1
                    },
                    {
                        "number": 64,
                        "time": 75.38082872708326,
                        "value": 0
                    },
                    {
                        "number": 64,
                        "time": 75.44712944166659,
                        "value": 1
                    },
                    {
                        "number": 64,
                        "time": 76.75309933124993,
                        "value": 0
                    },
                    {
                        "number": 64,
                        "time": 76.97050399999993,
                        "value": 1
                    },
                    {
                        "number": 64,
                        "time": 78.11920242708328,
                        "value": 0
                    },
                    {
                        "number": 64,
                        "time": 78.59101681458328,
                        "value": 1
                    },
                    {
                        "number": 64,
                        "time": 79.63795135416662,
                        "value": 0
                    },
                    {
                        "number": 64,
                        "time": 79.93090799999995,
                        "value": 1
                    },
                    {
                        "number": 64,
                        "time": 81.41110999999997,
                        "value": 0
                    },
                    {
                        "number": 64,
                        "time": 81.5514208145833,
                        "value": 1
                    },
                    {
                        "number": 64,
                        "time": 82.89131199999997,
                        "value": 0
                    },
                    {
                        "number": 64,
                        "time": 82.89131199999997,
                        "value": 1
                    },
                    {
                        "number": 64,
                        "time": 83.99067036041664,
                        "value": 0
                    },
                    {
                        "number": 64,
                        "time": 85.851716,
                        "value": 1
                    },
                    {
                        "number": 64,
                        "time": 87.33191800000002,
                        "value": 0
                    },
                    {
                        "number": 64,
                        "time": 87.47222881458335,
                        "value": 1
                    },
                    {
                        "number": 64,
                        "time": 88.81212000000002,
                        "value": 0
                    },
                    {
                        "number": 64,
                        "time": 88.81212000000002,
                        "value": 1
                    },
                    {
                        "number": 64,
                        "time": 89.8837245729167,
                        "value": 0
                    },
                    {
                        "number": 64,
                        "time": 91.772524,
                        "value": 1
                    },
                    {
                        "number": 64,
                        "time": 93.25272600000002,
                        "value": 0
                    },
                    {
                        "number": 64,
                        "time": 93.39303681458335,
                        "value": 1
                    },
                    {
                        "number": 64,
                        "time": 94.55869588958336,
                        "value": 0
                    },
                    {
                        "number": 64,
                        "time": 94.73292800000003,
                        "value": 1
                    },
                    {
                        "number": 64,
                        "time": 96.28405634583338,
                        "value": 0
                    },
                    {
                        "number": 64,
                        "time": 96.35344081458338,
                        "value": 1
                    },
                    {
                        "number": 64,
                        "time": 97.51909988958339,
                        "value": 0
                    },
                    {
                        "number": 64,
                        "time": 97.59465186666672,
                        "value": 1
                    },
                    {
                        "number": 64,
                        "time": 99.11956830208338,
                        "value": 0
                    },
                    {
                        "number": 64,
                        "time": 99.19512027916672,
                        "value": 1
                    },
                    {
                        "number": 64,
                        "time": 100.37003061666672,
                        "value": 0
                    },
                    {
                        "number": 64,
                        "time": 100.49029702916673,
                        "value": 1
                    },
                    {
                        "number": 64,
                        "time": 101.97049902916672,
                        "value": 0
                    },
                    {
                        "number": 64,
                        "time": 102.12314486041672,
                        "value": 1
                    },
                    {
                        "number": 64,
                        "time": 103.3196414770834,
                        "value": 0
                    },
                    {
                        "number": 64,
                        "time": 103.5000410958334,
                        "value": 1
                    },
                    {
                        "number": 64,
                        "time": 105.0403763020834,
                        "value": 0
                    },
                    {
                        "number": 64,
                        "time": 105.11592827916674,
                        "value": 1
                    },
                    {
                        "number": 64,
                        "time": 106.29083861666675,
                        "value": 0
                    },
                    {
                        "number": 64,
                        "time": 106.41110502916675,
                        "value": 1
                    },
                    {
                        "number": 64,
                        "time": 107.89130702916675,
                        "value": 0
                    },
                    {
                        "number": 64,
                        "time": 108.04395286041675,
                        "value": 1
                    },
                    {
                        "number": 64,
                        "time": 109.24044947708343,
                        "value": 0
                    },
                    {
                        "number": 64,
                        "time": 109.60587434583343,
                        "value": 1
                    },
                    {
                        "number": 64,
                        "time": 110.55258687500009,
                        "value": 0
                    },
                    {
                        "number": 64,
                        "time": 112.56627834583337,
                        "value": 1
                    },
                    {
                        "number": 64,
                        "time": 113.51299087500003,
                        "value": 0
                    },
                    {
                        "number": 64,
                        "time": 115.47734227916665,
                        "value": 1
                    },
                    {
                        "number": 64,
                        "time": 116.84961288333332,
                        "value": 0
                    },
                    {
                        "number": 64,
                        "time": 116.97913055833332,
                        "value": 1
                    },
                    {
                        "number": 64,
                        "time": 118.41615999999999,
                        "value": 0
                    },
                    {
                        "number": 64,
                        "time": 118.54721955208332,
                        "value": 1
                    },
                    {
                        "number": 64,
                        "time": 119.81001688333332,
                        "value": 0
                    },
                    {
                        "number": 64,
                        "time": 119.89636199999998,
                        "value": 1
                    },
                    {
                        "number": 64,
                        "time": 124.05326261666666,
                        "value": 0
                    }
                ],
                "91": [
                    {
                        "number": 91,
                        "time": 2.588811622916667,
                        "value": 1
                    }
                ]
            },
            "id": 2,
            "name": "Piano left",
            "instrumentNumber": 0,
            "instrument": "acoustic grand piano",
            "instrumentFamily": "piano",
            "channelNumber": 0,
            "isPercussion": false
        },
        {
            "startTime": 0,
            "duration": 0,
            "length": 0,
            "notes": [],
            "controlChanges": {},
            "id": 3,
            "name": "Borodin: Petite Suite, Nocturne"
        },
        {
            "startTime": 0,
            "duration": 0,
            "length": 0,
            "notes": [],
            "controlChanges": {},
            "id": 4,
            "name": "Copyright  2000 by Bernd Krger"
        },
        {
            "startTime": 0,
            "duration": 0,
            "length": 0,
            "notes": [],
            "controlChanges": {},
            "id": 5,
            "name": "email: bernd.krueger@piano-midi.de"
        },
        {
            "startTime": 0,
            "duration": 0,
            "length": 0,
            "notes": [],
            "controlChanges": {},
            "id": 6,
            "name": "http://www.piano-midi.de"
        },
        {
            "startTime": 0,
            "duration": 0,
            "length": 0,
            "notes": [],
            "controlChanges": {},
            "id": 7,
            "name": "Edition: 21.8.00"
        },
        {
            "startTime": 0,
            "duration": 0,
            "length": 0,
            "notes": [],
            "controlChanges": {},
            "id": 8
        },
        {
            "startTime": 0,
            "duration": 0,
            "length": 0,
            "notes": [],
            "controlChanges": {},
            "id": 9
        }
    ]
}