{
    "header": {
        "PPQ": 480,
        "timeSignature": [
            6,
            8
        ],
        "bpm": 80,
        "name": "Intermezzo Nr. 5, Opus 116"
    },
    "startTime": 0,
    "duration": 174.375,
    "tracks": [
        {
            "startTime": 0,
            "duration": 0,
            "length": 0,
            "notes": [],
            "controlChanges": {},
            "id": 0,
            "name": "Intermezzo Nr. 5, Opus 116"
        },
        {
            "startTime": 1.875,
            "duration": 174,
            "length": 448,
            "notes": [
                {
                    "name": "B4",
                    "midi": 71,
                    "time": 1.875,
                    "velocity": 0.30708661417322836,
                    "duration": 0.375
                },
                {
                    "name": "B3",
                    "midi": 59,
                    "time": 1.875,
                    "velocity": 0.2440944881889764,
                    "duration": 0.375
                },
                {
                    "name": "G4",
                    "midi": 67,
                    "time": 1.875,
                    "velocity": 0.2440944881889764,
                    "duration": 0.375
                },
                {
                    "name": "C5",
                    "midi": 72,
                    "time": 2.25,
                    "velocity": 0.25984251968503935,
                    "duration": 0.140625
                },
                {
                    "name": "G5",
                    "midi": 79,
                    "time": 3,
                    "velocity": 0.31496062992125984,
                    "duration": 0.375
                },
                {
                    "name": "B4",
                    "midi": 71,
                    "time": 3,
                    "velocity": 0.25196850393700787,
                    "duration": 0.375
                },
                {
                    "name": "E5",
                    "midi": 76,
                    "time": 3,
                    "velocity": 0.25196850393700787,
                    "duration": 0.375
                },
                {
                    "name": "A#4",
                    "midi": 70,
                    "time": 3.375,
                    "velocity": 0.25984251968503935,
                    "duration": 0.140625
                },
                {
                    "name": "B4",
                    "midi": 71,
                    "time": 4.125,
                    "velocity": 0.30708661417322836,
                    "duration": 0.375
                },
                {
                    "name": "B3",
                    "midi": 59,
                    "time": 4.125,
                    "velocity": 0.2440944881889764,
                    "duration": 0.375
                },
                {
                    "name": "G4",
                    "midi": 67,
                    "time": 4.125,
                    "velocity": 0.2440944881889764,
                    "duration": 0.375
                },
                {
                    "name": "C5",
                    "midi": 72,
                    "time": 4.5,
                    "velocity": 0.25984251968503935,
                    "duration": 0.140625
                },
                {
                    "name": "G5",
                    "midi": 79,
                    "time": 5.25,
                    "velocity": 0.31496062992125984,
                    "duration": 0.375
                },
                {
                    "name": "B4",
                    "midi": 71,
                    "time": 5.25,
                    "velocity": 0.25196850393700787,
                    "duration": 0.375
                },
                {
                    "name": "E5",
                    "midi": 76,
                    "time": 5.25,
                    "velocity": 0.25196850393700787,
                    "duration": 0.375
                },
                {
                    "name": "E4",
                    "midi": 64,
                    "time": 5.625,
                    "velocity": 0.25984251968503935,
                    "duration": 0.140625
                },
                {
                    "name": "C5",
                    "midi": 72,
                    "time": 6.375,
                    "velocity": 0.33070866141732286,
                    "duration": 0.375
                },
                {
                    "name": "C4",
                    "midi": 60,
                    "time": 6.375,
                    "velocity": 0.2677165354330709,
                    "duration": 0.375
                },
                {
                    "name": "A4",
                    "midi": 69,
                    "time": 6.375,
                    "velocity": 0.2677165354330709,
                    "duration": 0.375
                },
                {
                    "name": "D5",
                    "midi": 74,
                    "time": 6.75,
                    "velocity": 0.28346456692913385,
                    "duration": 0.140625
                },
                {
                    "name": "A5",
                    "midi": 81,
                    "time": 7.5,
                    "velocity": 0.33070866141732286,
                    "duration": 0.375
                },
                {
                    "name": "C5",
                    "midi": 72,
                    "time": 7.5,
                    "velocity": 0.25984251968503935,
                    "duration": 0.375
                },
                {
                    "name": "F#5",
                    "midi": 78,
                    "time": 7.5,
                    "velocity": 0.25984251968503935,
                    "duration": 0.375
                },
                {
                    "name": "B4",
                    "midi": 71,
                    "time": 7.875,
                    "velocity": 0.2677165354330709,
                    "duration": 0.140625
                },
                {
                    "name": "C5",
                    "midi": 72,
                    "time": 8.625,
                    "velocity": 0.30708661417322836,
                    "duration": 0.375
                },
                {
                    "name": "C4",
                    "midi": 60,
                    "time": 8.625,
                    "velocity": 0.2440944881889764,
                    "duration": 0.375
                },
                {
                    "name": "A4",
                    "midi": 69,
                    "time": 8.625,
                    "velocity": 0.2440944881889764,
                    "duration": 0.375
                },
                {
                    "name": "D5",
                    "midi": 74,
                    "time": 9,
                    "velocity": 0.25984251968503935,
                    "duration": 0.140625
                },
                {
                    "name": "A5",
                    "midi": 81,
                    "time": 9.75,
                    "velocity": 0.31496062992125984,
                    "duration": 0.375
                },
                {
                    "name": "C5",
                    "midi": 72,
                    "time": 9.75,
                    "velocity": 0.25196850393700787,
                    "duration": 0.375
                },
                {
                    "name": "F#5",
                    "midi": 78,
                    "time": 9.75,
                    "velocity": 0.25196850393700787,
                    "duration": 0.375
                },
                {
                    "name": "F#4",
                    "midi": 66,
                    "time": 10.125,
                    "velocity": 0.25984251968503935,
                    "duration": 0.140625
                },
                {
                    "name": "D5",
                    "midi": 74,
                    "time": 10.875,
                    "velocity": 0.36220472440944884,
                    "duration": 0.375
                },
                {
                    "name": "D4",
                    "midi": 62,
                    "time": 10.875,
                    "velocity": 0.29133858267716534,
                    "duration": 0.375
                },
                {
                    "name": "B4",
                    "midi": 71,
                    "time": 10.875,
                    "velocity": 0.29133858267716534,
                    "duration": 0.375
                },
                {
                    "name": "E5",
                    "midi": 76,
                    "time": 11.25,
                    "velocity": 0.30708661417322836,
                    "duration": 0.1875
                },
                {
                    "name": "B5",
                    "midi": 83,
                    "time": 12,
                    "velocity": 0.4094488188976378,
                    "duration": 0.375
                },
                {
                    "name": "D5",
                    "midi": 74,
                    "time": 12,
                    "velocity": 0.33070866141732286,
                    "duration": 0.375
                },
                {
                    "name": "G#5",
                    "midi": 80,
                    "time": 12,
                    "velocity": 0.33070866141732286,
                    "duration": 0.375
                },
                {
                    "name": "G#4",
                    "midi": 68,
                    "time": 12.375,
                    "velocity": 0.4566929133858268,
                    "duration": 0.1875
                },
                {
                    "name": "E5",
                    "midi": 76,
                    "time": 13.125,
                    "velocity": 0.4330708661417323,
                    "duration": 0.375
                },
                {
                    "name": "E4",
                    "midi": 64,
                    "time": 13.125,
                    "velocity": 0.3543307086614173,
                    "duration": 0.375
                },
                {
                    "name": "C5",
                    "midi": 72,
                    "time": 13.125,
                    "velocity": 0.3543307086614173,
                    "duration": 0.375
                },
                {
                    "name": "F5",
                    "midi": 77,
                    "time": 13.5,
                    "velocity": 0.4566929133858268,
                    "duration": 0.1875
                },
                {
                    "name": "C#6",
                    "midi": 85,
                    "time": 14.25,
                    "velocity": 0.47244094488188976,
                    "duration": 0.375
                },
                {
                    "name": "E5",
                    "midi": 76,
                    "time": 14.25,
                    "velocity": 0.3700787401574803,
                    "duration": 0.375
                },
                {
                    "name": "A#5",
                    "midi": 82,
                    "time": 14.25,
                    "velocity": 0.3700787401574803,
                    "duration": 0.375
                },
                {
                    "name": "A#4",
                    "midi": 70,
                    "time": 14.625,
                    "velocity": 0.5039370078740157,
                    "duration": 0.1875
                },
                {
                    "name": "F5",
                    "midi": 77,
                    "time": 15.375,
                    "velocity": 0.3937007874015748,
                    "duration": 0.375
                },
                {
                    "name": "F4",
                    "midi": 65,
                    "time": 15.375,
                    "velocity": 0.31496062992125984,
                    "duration": 0.375
                },
                {
                    "name": "D5",
                    "midi": 74,
                    "time": 15.375,
                    "velocity": 0.31496062992125984,
                    "duration": 0.375
                },
                {
                    "name": "G5",
                    "midi": 79,
                    "time": 15.75,
                    "velocity": 0.3937007874015748,
                    "duration": 0.28125
                },
                {
                    "name": "C#6",
                    "midi": 85,
                    "time": 16.5,
                    "velocity": 0.36220472440944884,
                    "duration": 0.375
                },
                {
                    "name": "F#5",
                    "midi": 78,
                    "time": 16.5,
                    "velocity": 0.28346456692913385,
                    "duration": 0.65625
                },
                {
                    "name": "G4",
                    "midi": 67,
                    "time": 16.875,
                    "velocity": 0.2755905511811024,
                    "duration": 0.28125
                },
                {
                    "name": "B5",
                    "midi": 83,
                    "time": 17.625,
                    "velocity": 0.33858267716535434,
                    "duration": 0.375
                },
                {
                    "name": "E5",
                    "midi": 76,
                    "time": 17.625,
                    "velocity": 0.2677165354330709,
                    "duration": 0.65625
                },
                {
                    "name": "F#4",
                    "midi": 66,
                    "time": 18,
                    "velocity": 0.25984251968503935,
                    "duration": 0.28125
                },
                {
                    "name": "A#5",
                    "midi": 82,
                    "time": 18.75,
                    "velocity": 0.3228346456692913,
                    "duration": 0.9375
                },
                {
                    "name": "D5",
                    "midi": 74,
                    "time": 18.75,
                    "velocity": 0.25196850393700787,
                    "duration": 0.75
                },
                {
                    "name": "C#5",
                    "midi": 73,
                    "time": 19.5,
                    "velocity": 0.2677165354330709,
                    "duration": 0.1875
                },
                {
                    "name": "F#5",
                    "midi": 78,
                    "time": 19.875,
                    "velocity": 0.4094488188976378,
                    "duration": 0.375
                },
                {
                    "name": "F#4",
                    "midi": 66,
                    "time": 19.875,
                    "velocity": 0.33070866141732286,
                    "duration": 0.375
                },
                {
                    "name": "D5",
                    "midi": 74,
                    "time": 19.875,
                    "velocity": 0.33070866141732286,
                    "duration": 0.375
                },
                {
                    "name": "B5",
                    "midi": 83,
                    "time": 20.25,
                    "velocity": 0.3464566929133858,
                    "duration": 0.1875
                },
                {
                    "name": "E6",
                    "midi": 88,
                    "time": 21,
                    "velocity": 0.47244094488188976,
                    "duration": 0.375
                },
                {
                    "name": "A5",
                    "midi": 81,
                    "time": 21,
                    "velocity": 0.36220472440944884,
                    "duration": 0.5625
                },
                {
                    "name": "C#6",
                    "midi": 85,
                    "time": 21,
                    "velocity": 0.36220472440944884,
                    "duration": 0.375
                },
                {
                    "name": "C#5",
                    "midi": 73,
                    "time": 21.375,
                    "velocity": 0.3779527559055118,
                    "duration": 0.1875
                },
                {
                    "name": "D6",
                    "midi": 86,
                    "time": 22.125,
                    "velocity": 0.3937007874015748,
                    "duration": 0.375
                },
                {
                    "name": "G5",
                    "midi": 79,
                    "time": 22.125,
                    "velocity": 0.30708661417322836,
                    "duration": 0.5625
                },
                {
                    "name": "B5",
                    "midi": 83,
                    "time": 22.125,
                    "velocity": 0.30708661417322836,
                    "duration": 0.375
                },
                {
                    "name": "B4",
                    "midi": 71,
                    "time": 22.5,
                    "velocity": 0.31496062992125984,
                    "duration": 0.1875
                },
                {
                    "name": "C#6",
                    "midi": 85,
                    "time": 23.25,
                    "velocity": 0.31496062992125984,
                    "duration": 0.375
                },
                {
                    "name": "F#5",
                    "midi": 78,
                    "time": 23.25,
                    "velocity": 0.25196850393700787,
                    "duration": 0.75
                },
                {
                    "name": "A#5",
                    "midi": 82,
                    "time": 23.25,
                    "velocity": 0.25196850393700787,
                    "duration": 0.375
                },
                {
                    "name": "A#4",
                    "midi": 70,
                    "time": 23.625,
                    "velocity": 0.25984251968503935,
                    "duration": 0.375
                },
                {
                    "name": "E5",
                    "midi": 76,
                    "time": 24,
                    "velocity": 0.25984251968503935,
                    "duration": 0.375
                },
                {
                    "name": "E4",
                    "midi": 64,
                    "time": 24.375,
                    "velocity": 0.25196850393700787,
                    "duration": 2.25
                },
                {
                    "name": "A#4",
                    "midi": 70,
                    "time": 24.375,
                    "velocity": 0.25196850393700787,
                    "duration": 0.375
                },
                {
                    "name": "C#5",
                    "midi": 73,
                    "time": 24.75,
                    "velocity": 0.30708661417322836,
                    "duration": 2.25
                },
                {
                    "name": "D#4",
                    "midi": 63,
                    "time": 26.625,
                    "velocity": 0.28346456692913385,
                    "duration": 2.0625
                },
                {
                    "name": "A4",
                    "midi": 69,
                    "time": 27,
                    "velocity": 0.30708661417322836,
                    "duration": 1.40625
                },
                {
                    "name": "C5",
                    "midi": 72,
                    "time": 27,
                    "velocity": 0.30708661417322836,
                    "duration": 1.40625
                },
                {
                    "name": "B4",
                    "midi": 71,
                    "time": 28.875,
                    "velocity": 0.30708661417322836,
                    "duration": 0.375
                },
                {
                    "name": "B3",
                    "midi": 59,
                    "time": 28.875,
                    "velocity": 0.2440944881889764,
                    "duration": 0.375
                },
                {
                    "name": "G4",
                    "midi": 67,
                    "time": 28.875,
                    "velocity": 0.2440944881889764,
                    "duration": 0.375
                },
                {
                    "name": "C5",
                    "midi": 72,
                    "time": 29.25,
                    "velocity": 0.25984251968503935,
                    "duration": 0.140625
                },
                {
                    "name": "G5",
                    "midi": 79,
                    "time": 30,
                    "velocity": 0.31496062992125984,
                    "duration": 0.375
                },
                {
                    "name": "B4",
                    "midi": 71,
                    "time": 30,
                    "velocity": 0.25196850393700787,
                    "duration": 0.375
                },
                {
                    "name": "E5",
                    "midi": 76,
                    "time": 30,
                    "velocity": 0.25196850393700787,
                    "duration": 0.375
                },
                {
                    "name": "A#4",
                    "midi": 70,
                    "time": 30.375,
                    "velocity": 0.25984251968503935,
                    "duration": 0.140625
                },
                {
                    "name": "B4",
                    "midi": 71,
                    "time": 31.125,
                    "velocity": 0.30708661417322836,
                    "duration": 0.375
                },
                {
                    "name": "B3",
                    "midi": 59,
                    "time": 31.125,
                    "velocity": 0.2440944881889764,
                    "duration": 0.375
                },
                {
                    "name": "G4",
                    "midi": 67,
                    "time": 31.125,
                    "velocity": 0.2440944881889764,
                    "duration": 0.375
                },
                {
                    "name": "C5",
                    "midi": 72,
                    "time": 31.5,
                    "velocity": 0.25984251968503935,
                    "duration": 0.140625
                },
                {
                    "name": "G5",
                    "midi": 79,
                    "time": 32.25,
                    "velocity": 0.31496062992125984,
                    "duration": 0.375
                },
                {
                    "name": "B4",
                    "midi": 71,
                    "time": 32.25,
                    "velocity": 0.25196850393700787,
                    "duration": 0.375
                },
                {
                    "name": "E5",
                    "midi": 76,
                    "time": 32.25,
                    "velocity": 0.25196850393700787,
                    "duration": 0.375
                },
                {
                    "name": "E4",
                    "midi": 64,
                    "time": 32.625,
                    "velocity": 0.25984251968503935,
                    "duration": 0.140625
                },
                {
                    "name": "C5",
                    "midi": 72,
                    "time": 33.375,
                    "velocity": 0.33070866141732286,
                    "duration": 0.375
                },
                {
                    "name": "C4",
                    "midi": 60,
                    "time": 33.375,
                    "velocity": 0.2677165354330709,
                    "duration": 0.375
                },
                {
                    "name": "A4",
                    "midi": 69,
                    "time": 33.375,
                    "velocity": 0.2677165354330709,
                    "duration": 0.375
                },
                {
                    "name": "D5",
                    "midi": 74,
                    "time": 33.75,
                    "velocity": 0.28346456692913385,
                    "duration": 0.140625
                },
                {
                    "name": "A5",
                    "midi": 81,
                    "time": 34.5,
                    "velocity": 0.33070866141732286,
                    "duration": 0.375
                },
                {
                    "name": "C5",
                    "midi": 72,
                    "time": 34.5,
                    "velocity": 0.25984251968503935,
                    "duration": 0.375
                },
                {
                    "name": "F#5",
                    "midi": 78,
                    "time": 34.5,
                    "velocity": 0.25984251968503935,
                    "duration": 0.375
                },
                {
                    "name": "B4",
                    "midi": 71,
                    "time": 34.875,
                    "velocity": 0.2677165354330709,
                    "duration": 0.140625
                },
                {
                    "name": "C5",
                    "midi": 72,
                    "time": 35.625,
                    "velocity": 0.30708661417322836,
                    "duration": 0.375
                },
                {
                    "name": "C4",
                    "midi": 60,
                    "time": 35.625,
                    "velocity": 0.2440944881889764,
                    "duration": 0.375
                },
                {
                    "name": "A4",
                    "midi": 69,
                    "time": 35.625,
                    "velocity": 0.2440944881889764,
                    "duration": 0.375
                },
                {
                    "name": "D5",
                    "midi": 74,
                    "time": 36,
                    "velocity": 0.25984251968503935,
                    "duration": 0.140625
                },
                {
                    "name": "A5",
                    "midi": 81,
                    "time": 36.75,
                    "velocity": 0.31496062992125984,
                    "duration": 0.375
                },
                {
                    "name": "C5",
                    "midi": 72,
                    "time": 36.75,
                    "velocity": 0.25196850393700787,
                    "duration": 0.375
                },
                {
                    "name": "F#5",
                    "midi": 78,
                    "time": 36.75,
                    "velocity": 0.25196850393700787,
                    "duration": 0.375
                },
                {
                    "name": "F#4",
                    "midi": 66,
                    "time": 37.125,
                    "velocity": 0.25984251968503935,
                    "duration": 0.140625
                },
                {
                    "name": "D5",
                    "midi": 74,
                    "time": 37.875,
                    "velocity": 0.36220472440944884,
                    "duration": 0.375
                },
                {
                    "name": "D4",
                    "midi": 62,
                    "time": 37.875,
                    "velocity": 0.29133858267716534,
                    "duration": 0.375
                },
                {
                    "name": "B4",
                    "midi": 71,
                    "time": 37.875,
                    "velocity": 0.29133858267716534,
                    "duration": 0.375
                },
                {
                    "name": "E5",
                    "midi": 76,
                    "time": 38.25,
                    "velocity": 0.30708661417322836,
                    "duration": 0.1875
                },
                {
                    "name": "B5",
                    "midi": 83,
                    "time": 39,
                    "velocity": 0.4094488188976378,
                    "duration": 0.375
                },
                {
                    "name": "D5",
                    "midi": 74,
                    "time": 39,
                    "velocity": 0.33070866141732286,
                    "duration": 0.375
                },
                {
                    "name": "G#5",
                    "midi": 80,
                    "time": 39,
                    "velocity": 0.33070866141732286,
                    "duration": 0.375
                },
                {
                    "name": "G#4",
                    "midi": 68,
                    "time": 39.375,
                    "velocity": 0.4566929133858268,
                    "duration": 0.1875
                },
                {
                    "name": "E5",
                    "midi": 76,
                    "time": 40.125,
                    "velocity": 0.4330708661417323,
                    "duration": 0.375
                },
                {
                    "name": "E4",
                    "midi": 64,
                    "time": 40.125,
                    "velocity": 0.3543307086614173,
                    "duration": 0.375
                },
                {
                    "name": "C5",
                    "midi": 72,
                    "time": 40.125,
                    "velocity": 0.3543307086614173,
                    "duration": 0.375
                },
                {
                    "name": "F5",
                    "midi": 77,
                    "time": 40.5,
                    "velocity": 0.4566929133858268,
                    "duration": 0.1875
                },
                {
                    "name": "C#6",
                    "midi": 85,
                    "time": 41.25,
                    "velocity": 0.47244094488188976,
                    "duration": 0.375
                },
                {
                    "name": "E5",
                    "midi": 76,
                    "time": 41.25,
                    "velocity": 0.3700787401574803,
                    "duration": 0.375
                },
                {
                    "name": "A#5",
                    "midi": 82,
                    "time": 41.25,
                    "velocity": 0.3700787401574803,
                    "duration": 0.375
                },
                {
                    "name": "A#4",
                    "midi": 70,
                    "time": 41.625,
                    "velocity": 0.5039370078740157,
                    "duration": 0.1875
                },
                {
                    "name": "F5",
                    "midi": 77,
                    "time": 42.375,
                    "velocity": 0.3937007874015748,
                    "duration": 0.375
                },
                {
                    "name": "F4",
                    "midi": 65,
                    "time": 42.375,
                    "velocity": 0.31496062992125984,
                    "duration": 0.375
                },
                {
                    "name": "D5",
                    "midi": 74,
                    "time": 42.375,
                    "velocity": 0.31496062992125984,
                    "duration": 0.375
                },
                {
                    "name": "G5",
                    "midi": 79,
                    "time": 42.75,
                    "velocity": 0.3937007874015748,
                    "duration": 0.28125
                },
                {
                    "name": "C#6",
                    "midi": 85,
                    "time": 43.5,
                    "velocity": 0.36220472440944884,
                    "duration": 0.375
                },
                {
                    "name": "F#5",
                    "midi": 78,
                    "time": 43.5,
                    "velocity": 0.28346456692913385,
                    "duration": 0.65625
                },
                {
                    "name": "G4",
                    "midi": 67,
                    "time": 43.875,
                    "velocity": 0.2755905511811024,
                    "duration": 0.28125
                },
                {
                    "name": "B5",
                    "midi": 83,
                    "time": 44.625,
                    "velocity": 0.33858267716535434,
                    "duration": 0.375
                },
                {
                    "name": "E5",
                    "midi": 76,
                    "time": 44.625,
                    "velocity": 0.2677165354330709,
                    "duration": 0.65625
                },
                {
                    "name": "F#4",
                    "midi": 66,
                    "time": 45,
                    "velocity": 0.25984251968503935,
                    "duration": 0.28125
                },
                {
                    "name": "A#5",
                    "midi": 82,
                    "time": 45.75,
                    "velocity": 0.3228346456692913,
                    "duration": 0.9375
                },
                {
                    "name": "D5",
                    "midi": 74,
                    "time": 45.75,
                    "velocity": 0.25196850393700787,
                    "duration": 0.75
                },
                {
                    "name": "C#5",
                    "midi": 73,
                    "time": 46.5,
                    "velocity": 0.2677165354330709,
                    "duration": 0.1875
                },
                {
                    "name": "F#5",
                    "midi": 78,
                    "time": 46.875,
                    "velocity": 0.4094488188976378,
                    "duration": 0.375
                },
                {
                    "name": "F#4",
                    "midi": 66,
                    "time": 46.875,
                    "velocity": 0.33070866141732286,
                    "duration": 0.375
                },
                {
                    "name": "D5",
                    "midi": 74,
                    "time": 46.875,
                    "velocity": 0.33070866141732286,
                    "duration": 0.375
                },
                {
                    "name": "B5",
                    "midi": 83,
                    "time": 47.25,
                    "velocity": 0.3464566929133858,
                    "duration": 0.1875
                },
                {
                    "name": "E6",
                    "midi": 88,
                    "time": 48,
                    "velocity": 0.47244094488188976,
                    "duration": 0.375
                },
                {
                    "name": "A5",
                    "midi": 81,
                    "time": 48,
                    "velocity": 0.36220472440944884,
                    "duration": 0.5625
                },
                {
                    "name": "C#6",
                    "midi": 85,
                    "time": 48,
                    "velocity": 0.36220472440944884,
                    "duration": 0.375
                },
                {
                    "name": "C#5",
                    "midi": 73,
                    "time": 48.375,
                    "velocity": 0.3779527559055118,
                    "duration": 0.1875
                },
                {
                    "name": "D6",
                    "midi": 86,
                    "time": 49.125,
                    "velocity": 0.3937007874015748,
                    "duration": 0.375
                },
                {
                    "name": "G5",
                    "midi": 79,
                    "time": 49.125,
                    "velocity": 0.30708661417322836,
                    "duration": 0.5625
                },
                {
                    "name": "B5",
                    "midi": 83,
                    "time": 49.125,
                    "velocity": 0.30708661417322836,
                    "duration": 0.375
                },
                {
                    "name": "B4",
                    "midi": 71,
                    "time": 49.5,
                    "velocity": 0.31496062992125984,
                    "duration": 0.1875
                },
                {
                    "name": "C#6",
                    "midi": 85,
                    "time": 50.25,
                    "velocity": 0.31496062992125984,
                    "duration": 0.375
                },
                {
                    "name": "F#5",
                    "midi": 78,
                    "time": 50.25,
                    "velocity": 0.25196850393700787,
                    "duration": 0.75
                },
                {
                    "name": "A#5",
                    "midi": 82,
                    "time": 50.25,
                    "velocity": 0.25196850393700787,
                    "duration": 0.375
                },
                {
                    "name": "A#4",
                    "midi": 70,
                    "time": 50.625,
                    "velocity": 0.25984251968503935,
                    "duration": 0.375
                },
                {
                    "name": "E5",
                    "midi": 76,
                    "time": 51,
                    "velocity": 0.25984251968503935,
                    "duration": 0.375
                },
                {
                    "name": "E4",
                    "midi": 64,
                    "time": 51.375,
                    "velocity": 0.25196850393700787,
                    "duration": 1.125
                },
                {
                    "name": "A#4",
                    "midi": 70,
                    "time": 51.375,
                    "velocity": 0.25196850393700787,
                    "duration": 0.375
                },
                {
                    "name": "C#5",
                    "midi": 73,
                    "time": 51.75,
                    "velocity": 0.30708661417322836,
                    "duration": 1.875
                },
                {
                    "name": "D#4",
                    "midi": 63,
                    "time": 52.5,
                    "velocity": 0.30708661417322836,
                    "duration": 0.375
                },
                {
                    "name": "F#4",
                    "midi": 66,
                    "time": 52.875,
                    "velocity": 0.33858267716535434,
                    "duration": 1.875
                },
                {
                    "name": "B4",
                    "midi": 71,
                    "time": 53.625,
                    "velocity": 0.28346456692913385,
                    "duration": 0.375
                },
                {
                    "name": "D#5",
                    "midi": 75,
                    "time": 54,
                    "velocity": 0.30708661417322836,
                    "duration": 1.125
                },
                {
                    "name": "E4",
                    "midi": 64,
                    "time": 54.75,
                    "velocity": 0.3228346456692913,
                    "duration": 0.375
                },
                {
                    "name": "G#4",
                    "midi": 68,
                    "time": 55.125,
                    "velocity": 0.3543307086614173,
                    "duration": 1.125
                },
                {
                    "name": "C4",
                    "midi": 60,
                    "time": 55.875,
                    "velocity": 0.31496062992125984,
                    "duration": 0.375
                },
                {
                    "name": "D#4",
                    "midi": 63,
                    "time": 56.25,
                    "velocity": 0.3464566929133858,
                    "duration": 1.875
                },
                {
                    "name": "F3",
                    "midi": 53,
                    "time": 57,
                    "velocity": 0.3228346456692913,
                    "duration": 0.375
                },
                {
                    "name": "G#3",
                    "midi": 56,
                    "time": 57.375,
                    "velocity": 0.3543307086614173,
                    "duration": 1.875
                },
                {
                    "name": "C#4",
                    "midi": 61,
                    "time": 58.125,
                    "velocity": 0.28346456692913385,
                    "duration": 0.375
                },
                {
                    "name": "B3",
                    "midi": 59,
                    "time": 58.5,
                    "velocity": 0.3464566929133858,
                    "duration": 1.125
                },
                {
                    "name": "F#3",
                    "midi": 54,
                    "time": 59.25,
                    "velocity": 0.28346456692913385,
                    "duration": 0.375
                },
                {
                    "name": "A#3",
                    "midi": 58,
                    "time": 60,
                    "velocity": 0.33070866141732286,
                    "duration": 0.375
                },
                {
                    "name": "A#4",
                    "midi": 70,
                    "time": 60.375,
                    "velocity": 0.3543307086614173,
                    "duration": 0.375
                },
                {
                    "name": "C#5",
                    "midi": 73,
                    "time": 60.75,
                    "velocity": 0.3858267716535433,
                    "duration": 1.125
                },
                {
                    "name": "F#4",
                    "midi": 66,
                    "time": 61.875,
                    "velocity": 0.3228346456692913,
                    "duration": 1.125
                },
                {
                    "name": "B3",
                    "midi": 59,
                    "time": 62.25,
                    "velocity": 0.31496062992125984,
                    "duration": 0.375
                },
                {
                    "name": "B4",
                    "midi": 71,
                    "time": 62.625,
                    "velocity": 0.3700787401574803,
                    "duration": 0.375
                },
                {
                    "name": "D#5",
                    "midi": 75,
                    "time": 63,
                    "velocity": 0.3937007874015748,
                    "duration": 1.125
                },
                {
                    "name": "G#4",
                    "midi": 68,
                    "time": 64.125,
                    "velocity": 0.3228346456692913,
                    "duration": 1.125
                },
                {
                    "name": "C4",
                    "midi": 60,
                    "time": 64.5,
                    "velocity": 0.3779527559055118,
                    "duration": 0.375
                },
                {
                    "name": "C5",
                    "midi": 72,
                    "time": 64.875,
                    "velocity": 0.4409448818897638,
                    "duration": 0.375
                },
                {
                    "name": "D#5",
                    "midi": 75,
                    "time": 65.25,
                    "velocity": 0.47244094488188976,
                    "duration": 1.125
                },
                {
                    "name": "G#4",
                    "midi": 68,
                    "time": 66.375,
                    "velocity": 0.3858267716535433,
                    "duration": 1.125
                },
                {
                    "name": "C#4",
                    "midi": 61,
                    "time": 66.75,
                    "velocity": 0.4330708661417323,
                    "duration": 0.375
                },
                {
                    "name": "C#5",
                    "midi": 73,
                    "time": 67.125,
                    "velocity": 0.49606299212598426,
                    "duration": 0.375
                },
                {
                    "name": "G#5",
                    "midi": 80,
                    "time": 67.5,
                    "velocity": 0.5590551181102362,
                    "duration": 1.125
                },
                {
                    "name": "A#4",
                    "midi": 70,
                    "time": 68.625,
                    "velocity": 0.5196850393700787,
                    "duration": 1.125
                },
                {
                    "name": "F#4",
                    "midi": 66,
                    "time": 69,
                    "velocity": 0.5354330708661418,
                    "duration": 0.375
                },
                {
                    "name": "F#5",
                    "midi": 78,
                    "time": 69.375,
                    "velocity": 0.5826771653543307,
                    "duration": 0.375
                },
                {
                    "name": "E5",
                    "midi": 76,
                    "time": 69.75,
                    "velocity": 0.6299212598425197,
                    "duration": 1.125
                },
                {
                    "name": "A4",
                    "midi": 69,
                    "time": 70.875,
                    "velocity": 0.5196850393700787,
                    "duration": 1.125
                },
                {
                    "name": "D#4",
                    "midi": 63,
                    "time": 71.25,
                    "velocity": 0.5354330708661418,
                    "duration": 0.375
                },
                {
                    "name": "D#5",
                    "midi": 75,
                    "time": 71.625,
                    "velocity": 0.5748031496062992,
                    "duration": 0.375
                },
                {
                    "name": "C5",
                    "midi": 72,
                    "time": 72,
                    "velocity": 0.6299212598425197,
                    "duration": 1.125
                },
                {
                    "name": "D#4",
                    "midi": 63,
                    "time": 73.125,
                    "velocity": 0.5196850393700787,
                    "duration": 1.125
                },
                {
                    "name": "A3",
                    "midi": 57,
                    "time": 73.5,
                    "velocity": 0.5354330708661418,
                    "duration": 0.375
                },
                {
                    "name": "A4",
                    "midi": 69,
                    "time": 73.875,
                    "velocity": 0.5748031496062992,
                    "duration": 0.375
                },
                {
                    "name": "F#4",
                    "midi": 66,
                    "time": 74.25,
                    "velocity": 0.6377952755905512,
                    "duration": 1.125
                },
                {
                    "name": "D#4",
                    "midi": 63,
                    "time": 75.375,
                    "velocity": 0.5196850393700787,
                    "duration": 1.125
                },
                {
                    "name": "A3",
                    "midi": 57,
                    "time": 75.75,
                    "velocity": 0.5354330708661418,
                    "duration": 0.375
                },
                {
                    "name": "A4",
                    "midi": 69,
                    "time": 76.125,
                    "velocity": 0.5748031496062992,
                    "duration": 0.375
                },
                {
                    "name": "C5",
                    "midi": 72,
                    "time": 76.5,
                    "velocity": 0.6377952755905512,
                    "duration": 1.125
                },
                {
                    "name": "D#4",
                    "midi": 63,
                    "time": 77.625,
                    "velocity": 0.5196850393700787,
                    "duration": 1.125
                },
                {
                    "name": "A3",
                    "midi": 57,
                    "time": 78,
                    "velocity": 0.5354330708661418,
                    "duration": 0.375
                },
                {
                    "name": "A4",
                    "midi": 69,
                    "time": 78.375,
                    "velocity": 0.5748031496062992,
                    "duration": 0.375
                },
                {
                    "name": "F#4",
                    "midi": 66,
                    "time": 78.75,
                    "velocity": 0.6377952755905512,
                    "duration": 1.125
                },
                {
                    "name": "D#4",
                    "midi": 63,
                    "time": 79.875,
                    "velocity": 0.5196850393700787,
                    "duration": 1.125
                },
                {
                    "name": "A3",
                    "midi": 57,
                    "time": 80.25,
                    "velocity": 0.5354330708661418,
                    "duration": 0.375
                },
                {
                    "name": "A4",
                    "midi": 69,
                    "time": 80.625,
                    "velocity": 0.5748031496062992,
                    "duration": 0.375
                },
                {
                    "name": "C5",
                    "midi": 72,
                    "time": 81,
                    "velocity": 0.6377952755905512,
                    "duration": 2.625
                },
                {
                    "name": "B4",
                    "midi": 71,
                    "time": 84,
                    "velocity": 0.3464566929133858,
                    "duration": 0.375
                },
                {
                    "name": "A4",
                    "midi": 69,
                    "time": 84,
                    "velocity": 0.29133858267716534,
                    "duration": 0.375
                },
                {
                    "name": "D#4",
                    "midi": 63,
                    "time": 84,
                    "velocity": 0.29133858267716534,
                    "duration": 0.375
                },
                {
                    "name": "F#4",
                    "midi": 66,
                    "time": 84.375,
                    "velocity": 0.29133858267716534,
                    "duration": 0.375
                },
                {
                    "name": "B4",
                    "midi": 71,
                    "time": 85.125,
                    "velocity": 0.33858267716535434,
                    "duration": 0.375
                },
                {
                    "name": "A4",
                    "midi": 69,
                    "time": 85.125,
                    "velocity": 0.28346456692913385,
                    "duration": 0.375
                },
                {
                    "name": "E4",
                    "midi": 64,
                    "time": 85.125,
                    "velocity": 0.28346456692913385,
                    "duration": 0.375
                },
                {
                    "name": "C5",
                    "midi": 72,
                    "time": 85.5,
                    "velocity": 0.28346456692913385,
                    "duration": 0.375
                },
                {
                    "name": "B4",
                    "midi": 71,
                    "time": 86.25,
                    "velocity": 0.33070866141732286,
                    "duration": 0.375
                },
                {
                    "name": "A4",
                    "midi": 69,
                    "time": 86.25,
                    "velocity": 0.2755905511811024,
                    "duration": 0.375
                },
                {
                    "name": "D#4",
                    "midi": 63,
                    "time": 86.25,
                    "velocity": 0.2755905511811024,
                    "duration": 0.375
                },
                {
                    "name": "F#4",
                    "midi": 66,
                    "time": 86.625,
                    "velocity": 0.29133858267716534,
                    "duration": 0.375
                },
                {
                    "name": "D#5",
                    "midi": 75,
                    "time": 87.375,
                    "velocity": 0.31496062992125984,
                    "duration": 0.375
                },
                {
                    "name": "C5",
                    "midi": 72,
                    "time": 87.375,
                    "velocity": 0.2677165354330709,
                    "duration": 0.375
                },
                {
                    "name": "G4",
                    "midi": 67,
                    "time": 87.375,
                    "velocity": 0.2677165354330709,
                    "duration": 0.375
                },
                {
                    "name": "E5",
                    "midi": 76,
                    "time": 87.75,
                    "velocity": 0.2755905511811024,
                    "duration": 0.375
                },
                {
                    "name": "D#5",
                    "midi": 75,
                    "time": 88.5,
                    "velocity": 0.29133858267716534,
                    "duration": 0.375
                },
                {
                    "name": "C5",
                    "midi": 72,
                    "time": 88.5,
                    "velocity": 0.2440944881889764,
                    "duration": 0.375
                },
                {
                    "name": "F#4",
                    "midi": 66,
                    "time": 88.5,
                    "velocity": 0.2440944881889764,
                    "duration": 0.375
                },
                {
                    "name": "A4",
                    "midi": 69,
                    "time": 88.875,
                    "velocity": 0.25196850393700787,
                    "duration": 0.375
                },
                {
                    "name": "D#5",
                    "midi": 75,
                    "time": 89.625,
                    "velocity": 0.2677165354330709,
                    "duration": 0.375
                },
                {
                    "name": "C5",
                    "midi": 72,
                    "time": 89.625,
                    "velocity": 0.2283464566929134,
                    "duration": 0.375
                },
                {
                    "name": "G4",
                    "midi": 67,
                    "time": 89.625,
                    "velocity": 0.2283464566929134,
                    "duration": 0.375
                },
                {
                    "name": "E5",
                    "midi": 76,
                    "time": 90,
                    "velocity": 0.2283464566929134,
                    "duration": 0.375
                },
                {
                    "name": "D#5",
                    "midi": 75,
                    "time": 90.75,
                    "velocity": 0.23622047244094488,
                    "duration": 0.375
                },
                {
                    "name": "C5",
                    "midi": 72,
                    "time": 90.75,
                    "velocity": 0.2047244094488189,
                    "duration": 0.375
                },
                {
                    "name": "F#4",
                    "midi": 66,
                    "time": 90.75,
                    "velocity": 0.2047244094488189,
                    "duration": 0.375
                },
                {
                    "name": "A4",
                    "midi": 69,
                    "time": 91.125,
                    "velocity": 0.2047244094488189,
                    "duration": 0.375
                },
                {
                    "name": "E5",
                    "midi": 76,
                    "time": 91.875,
                    "velocity": 0.2440944881889764,
                    "duration": 0.375
                },
                {
                    "name": "E4",
                    "midi": 64,
                    "time": 91.875,
                    "velocity": 0.1889763779527559,
                    "duration": 0.375
                },
                {
                    "name": "C5",
                    "midi": 72,
                    "time": 91.875,
                    "velocity": 0.1889763779527559,
                    "duration": 0.375
                },
                {
                    "name": "F5",
                    "midi": 77,
                    "time": 92.25,
                    "velocity": 0.2047244094488189,
                    "duration": 0.1875
                },
                {
                    "name": "C6",
                    "midi": 84,
                    "time": 93,
                    "velocity": 0.25196850393700787,
                    "duration": 0.375
                },
                {
                    "name": "E5",
                    "midi": 76,
                    "time": 93,
                    "velocity": 0.1968503937007874,
                    "duration": 0.375
                },
                {
                    "name": "A5",
                    "midi": 81,
                    "time": 93,
                    "velocity": 0.1968503937007874,
                    "duration": 0.375
                },
                {
                    "name": "D#5",
                    "midi": 75,
                    "time": 93.375,
                    "velocity": 0.2047244094488189,
                    "duration": 0.1875
                },
                {
                    "name": "E5",
                    "midi": 76,
                    "time": 94.125,
                    "velocity": 0.2440944881889764,
                    "duration": 0.375
                },
                {
                    "name": "E4",
                    "midi": 64,
                    "time": 94.125,
                    "velocity": 0.1889763779527559,
                    "duration": 0.375
                },
                {
                    "name": "C5",
                    "midi": 72,
                    "time": 94.125,
                    "velocity": 0.1889763779527559,
                    "duration": 0.375
                },
                {
                    "name": "F5",
                    "midi": 77,
                    "time": 94.5,
                    "velocity": 0.2047244094488189,
                    "duration": 0.1875
                },
                {
                    "name": "C6",
                    "midi": 84,
                    "time": 95.25,
                    "velocity": 0.25196850393700787,
                    "duration": 0.375
                },
                {
                    "name": "D#5",
                    "midi": 75,
                    "time": 95.25,
                    "velocity": 0.1968503937007874,
                    "duration": 0.375
                },
                {
                    "name": "A5",
                    "midi": 81,
                    "time": 95.25,
                    "velocity": 0.1968503937007874,
                    "duration": 0.375
                },
                {
                    "name": "A4",
                    "midi": 69,
                    "time": 95.625,
                    "velocity": 0.2047244094488189,
                    "duration": 0.1875
                },
                {
                    "name": "D5",
                    "midi": 74,
                    "time": 96.375,
                    "velocity": 0.25984251968503935,
                    "duration": 0.375
                },
                {
                    "name": "D4",
                    "midi": 62,
                    "time": 96.375,
                    "velocity": 0.2125984251968504,
                    "duration": 0.375
                },
                {
                    "name": "B4",
                    "midi": 71,
                    "time": 96.375,
                    "velocity": 0.2125984251968504,
                    "duration": 0.375
                },
                {
                    "name": "D#5",
                    "midi": 75,
                    "time": 96.75,
                    "velocity": 0.2204724409448819,
                    "duration": 0.1875
                },
                {
                    "name": "B5",
                    "midi": 83,
                    "time": 97.5,
                    "velocity": 0.25984251968503935,
                    "duration": 0.375
                },
                {
                    "name": "D5",
                    "midi": 74,
                    "time": 97.5,
                    "velocity": 0.2047244094488189,
                    "duration": 0.375
                },
                {
                    "name": "G5",
                    "midi": 79,
                    "time": 97.5,
                    "velocity": 0.2047244094488189,
                    "duration": 0.375
                },
                {
                    "name": "C#5",
                    "midi": 73,
                    "time": 97.875,
                    "velocity": 0.2125984251968504,
                    "duration": 0.1875
                },
                {
                    "name": "D5",
                    "midi": 74,
                    "time": 98.625,
                    "velocity": 0.2440944881889764,
                    "duration": 0.375
                },
                {
                    "name": "D4",
                    "midi": 62,
                    "time": 98.625,
                    "velocity": 0.1889763779527559,
                    "duration": 0.375
                },
                {
                    "name": "B4",
                    "midi": 71,
                    "time": 98.625,
                    "velocity": 0.1889763779527559,
                    "duration": 0.375
                },
                {
                    "name": "D#5",
                    "midi": 75,
                    "time": 99,
                    "velocity": 0.2047244094488189,
                    "duration": 0.1875
                },
                {
                    "name": "A#5",
                    "midi": 82,
                    "time": 99.75,
                    "velocity": 0.2755905511811024,
                    "duration": 0.375
                },
                {
                    "name": "C#5",
                    "midi": 73,
                    "time": 99.75,
                    "velocity": 0.2125984251968504,
                    "duration": 0.375
                },
                {
                    "name": "G5",
                    "midi": 79,
                    "time": 99.75,
                    "velocity": 0.2125984251968504,
                    "duration": 0.375
                },
                {
                    "name": "G4",
                    "midi": 67,
                    "time": 100.125,
                    "velocity": 0.2204724409448819,
                    "duration": 0.1875
                },
                {
                    "name": "C5",
                    "midi": 72,
                    "time": 100.875,
                    "velocity": 0.47244094488188976,
                    "duration": 0.375
                },
                {
                    "name": "C4",
                    "midi": 60,
                    "time": 100.875,
                    "velocity": 0.36220472440944884,
                    "duration": 0.375
                },
                {
                    "name": "A4",
                    "midi": 69,
                    "time": 100.875,
                    "velocity": 0.36220472440944884,
                    "duration": 0.375
                },
                {
                    "name": "C#5",
                    "midi": 73,
                    "time": 101.25,
                    "velocity": 0.4251968503937008,
                    "duration": 0.28125
                },
                {
                    "name": "C5",
                    "midi": 72,
                    "time": 102,
                    "velocity": 0.4881889763779528,
                    "duration": 0.375
                },
                {
                    "name": "F4",
                    "midi": 65,
                    "time": 102,
                    "velocity": 0.3858267716535433,
                    "duration": 0.375
                },
                {
                    "name": "A4",
                    "midi": 69,
                    "time": 102,
                    "velocity": 0.3858267716535433,
                    "duration": 0.375
                },
                {
                    "name": "D5",
                    "midi": 74,
                    "time": 102.375,
                    "velocity": 0.4330708661417323,
                    "duration": 0.28125
                },
                {
                    "name": "A5",
                    "midi": 81,
                    "time": 103.125,
                    "velocity": 0.5669291338582677,
                    "duration": 0.375
                },
                {
                    "name": "C5",
                    "midi": 72,
                    "time": 103.125,
                    "velocity": 0.44881889763779526,
                    "duration": 0.375
                },
                {
                    "name": "F5",
                    "midi": 77,
                    "time": 103.125,
                    "velocity": 0.44881889763779526,
                    "duration": 0.375
                },
                {
                    "name": "B4",
                    "midi": 71,
                    "time": 103.5,
                    "velocity": 0.5196850393700787,
                    "duration": 0.28125
                },
                {
                    "name": "F5",
                    "midi": 77,
                    "time": 104.25,
                    "velocity": 0.5826771653543307,
                    "duration": 0.375
                },
                {
                    "name": "A4",
                    "midi": 69,
                    "time": 104.25,
                    "velocity": 0.4566929133858268,
                    "duration": 0.375
                },
                {
                    "name": "C5",
                    "midi": 72,
                    "time": 104.25,
                    "velocity": 0.4566929133858268,
                    "duration": 0.375
                },
                {
                    "name": "G4",
                    "midi": 67,
                    "time": 104.625,
                    "velocity": 0.5275590551181102,
                    "duration": 0.28125
                },
                {
                    "name": "A4",
                    "midi": 69,
                    "time": 105.375,
                    "velocity": 0.41732283464566927,
                    "duration": 2.25
                },
                {
                    "name": "F4",
                    "midi": 65,
                    "time": 105.375,
                    "velocity": 0.49606299212598426,
                    "duration": 0.375
                },
                {
                    "name": "C5",
                    "midi": 72,
                    "time": 105.375,
                    "velocity": 0.47244094488188976,
                    "duration": 2.25
                },
                {
                    "name": "E4",
                    "midi": 64,
                    "time": 105.75,
                    "velocity": 0.5433070866141733,
                    "duration": 1.125
                },
                {
                    "name": "D#4",
                    "midi": 63,
                    "time": 106.875,
                    "velocity": 0.5196850393700787,
                    "duration": 2.25
                },
                {
                    "name": "C5",
                    "midi": 72,
                    "time": 107.625,
                    "velocity": 0.3937007874015748,
                    "duration": 0.375
                },
                {
                    "name": "B4",
                    "midi": 71,
                    "time": 108,
                    "velocity": 0.3937007874015748,
                    "duration": 1.125
                },
                {
                    "name": "E4",
                    "midi": 64,
                    "time": 109.125,
                    "velocity": 0.2992125984251969,
                    "duration": 0.75
                },
                {
                    "name": "A#4",
                    "midi": 70,
                    "time": 109.125,
                    "velocity": 0.3543307086614173,
                    "duration": 0.75
                },
                {
                    "name": "A#4",
                    "midi": 70,
                    "time": 109.875,
                    "velocity": 0.28346456692913385,
                    "duration": 0.375
                },
                {
                    "name": "C#5",
                    "midi": 73,
                    "time": 110.25,
                    "velocity": 0.30708661417322836,
                    "duration": 1.875
                },
                {
                    "name": "D#4",
                    "midi": 63,
                    "time": 111,
                    "velocity": 0.30708661417322836,
                    "duration": 0.375
                },
                {
                    "name": "F#4",
                    "midi": 66,
                    "time": 111.375,
                    "velocity": 0.33858267716535434,
                    "duration": 1.875
                },
                {
                    "name": "B4",
                    "midi": 71,
                    "time": 112.125,
                    "velocity": 0.28346456692913385,
                    "duration": 0.375
                },
                {
                    "name": "D#5",
                    "midi": 75,
                    "time": 112.5,
                    "velocity": 0.30708661417322836,
                    "duration": 1.125
                },
                {
                    "name": "E4",
                    "midi": 64,
                    "time": 113.25,
                    "velocity": 0.3228346456692913,
                    "duration": 0.375
                },
                {
                    "name": "G#4",
                    "midi": 68,
                    "time": 113.625,
                    "velocity": 0.3543307086614173,
                    "duration": 1.125
                },
                {
                    "name": "C4",
                    "midi": 60,
                    "time": 114.375,
                    "velocity": 0.31496062992125984,
                    "duration": 0.375
                },
                {
                    "name": "D#4",
                    "midi": 63,
                    "time": 114.75,
                    "velocity": 0.3464566929133858,
                    "duration": 1.875
                },
                {
                    "name": "F3",
                    "midi": 53,
                    "time": 115.5,
                    "velocity": 0.3228346456692913,
                    "duration": 0.375
                },
                {
                    "name": "G#3",
                    "midi": 56,
                    "time": 115.875,
                    "velocity": 0.3543307086614173,
                    "duration": 1.875
                },
                {
                    "name": "C#4",
                    "midi": 61,
                    "time": 116.625,
                    "velocity": 0.28346456692913385,
                    "duration": 0.375
                },
                {
                    "name": "B3",
                    "midi": 59,
                    "time": 117,
                    "velocity": 0.3464566929133858,
                    "duration": 1.125
                },
                {
                    "name": "F#3",
                    "midi": 54,
                    "time": 117.75,
                    "velocity": 0.28346456692913385,
                    "duration": 0.375
                },
                {
                    "name": "A#3",
                    "midi": 58,
                    "time": 118.5,
                    "velocity": 0.33070866141732286,
                    "duration": 0.375
                },
                {
                    "name": "A#4",
                    "midi": 70,
                    "time": 118.875,
                    "velocity": 0.3543307086614173,
                    "duration": 0.375
                },
                {
                    "name": "C#5",
                    "midi": 73,
                    "time": 119.25,
                    "velocity": 0.3858267716535433,
                    "duration": 1.125
                },
                {
                    "name": "F#4",
                    "midi": 66,
                    "time": 120.375,
                    "velocity": 0.3228346456692913,
                    "duration": 1.125
                },
                {
                    "name": "B3",
                    "midi": 59,
                    "time": 120.75,
                    "velocity": 0.31496062992125984,
                    "duration": 0.375
                },
                {
                    "name": "B4",
                    "midi": 71,
                    "time": 121.125,
                    "velocity": 0.3700787401574803,
                    "duration": 0.375
                },
                {
                    "name": "D#5",
                    "midi": 75,
                    "time": 121.5,
                    "velocity": 0.3937007874015748,
                    "duration": 1.125
                },
                {
                    "name": "G#4",
                    "midi": 68,
                    "time": 122.625,
                    "velocity": 0.3228346456692913,
                    "duration": 1.125
                },
                {
                    "name": "C4",
                    "midi": 60,
                    "time": 123,
                    "velocity": 0.3779527559055118,
                    "duration": 0.375
                },
                {
                    "name": "C5",
                    "midi": 72,
                    "time": 123.375,
                    "velocity": 0.4409448818897638,
                    "duration": 0.375
                },
                {
                    "name": "D#5",
                    "midi": 75,
                    "time": 123.75,
                    "velocity": 0.47244094488188976,
                    "duration": 1.125
                },
                {
                    "name": "G#4",
                    "midi": 68,
                    "time": 124.875,
                    "velocity": 0.3858267716535433,
                    "duration": 1.125
                },
                {
                    "name": "C#4",
                    "midi": 61,
                    "time": 125.25,
                    "velocity": 0.4330708661417323,
                    "duration": 0.375
                },
                {
                    "name": "C#5",
                    "midi": 73,
                    "time": 125.625,
                    "velocity": 0.49606299212598426,
                    "duration": 0.375
                },
                {
                    "name": "G#5",
                    "midi": 80,
                    "time": 126,
                    "velocity": 0.5748031496062992,
                    "duration": 1.125
                },
                {
                    "name": "A#4",
                    "midi": 70,
                    "time": 127.125,
                    "velocity": 0.5196850393700787,
                    "duration": 1.125
                },
                {
                    "name": "F#4",
                    "midi": 66,
                    "time": 127.5,
                    "velocity": 0.5354330708661418,
                    "duration": 0.375
                },
                {
                    "name": "F#5",
                    "midi": 78,
                    "time": 127.875,
                    "velocity": 0.5748031496062992,
                    "duration": 0.375
                },
                {
                    "name": "E5",
                    "midi": 76,
                    "time": 128.25,
                    "velocity": 0.6299212598425197,
                    "duration": 1.125
                },
                {
                    "name": "A4",
                    "midi": 69,
                    "time": 129.375,
                    "velocity": 0.5196850393700787,
                    "duration": 1.125
                },
                {
                    "name": "D#4",
                    "midi": 63,
                    "time": 129.75,
                    "velocity": 0.5354330708661418,
                    "duration": 0.375
                },
                {
                    "name": "D#5",
                    "midi": 75,
                    "time": 130.125,
                    "velocity": 0.5748031496062992,
                    "duration": 0.375
                },
                {
                    "name": "C5",
                    "midi": 72,
                    "time": 130.5,
                    "velocity": 0.6299212598425197,
                    "duration": 1.125
                },
                {
                    "name": "D#4",
                    "midi": 63,
                    "time": 131.625,
                    "velocity": 0.5196850393700787,
                    "duration": 1.125
                },
                {
                    "name": "A3",
                    "midi": 57,
                    "time": 132,
                    "velocity": 0.5354330708661418,
                    "duration": 0.375
                },
                {
                    "name": "A4",
                    "midi": 69,
                    "time": 132.375,
                    "velocity": 0.5748031496062992,
                    "duration": 0.375
                },
                {
                    "name": "F#4",
                    "midi": 66,
                    "time": 132.75,
                    "velocity": 0.6377952755905512,
                    "duration": 1.125
                },
                {
                    "name": "D#4",
                    "midi": 63,
                    "time": 133.875,
                    "velocity": 0.5196850393700787,
                    "duration": 1.125
                },
                {
                    "name": "A3",
                    "midi": 57,
                    "time": 134.25,
                    "velocity": 0.5354330708661418,
                    "duration": 0.375
                },
                {
                    "name": "A4",
                    "midi": 69,
                    "time": 134.625,
                    "velocity": 0.5748031496062992,
                    "duration": 0.375
                },
                {
                    "name": "C5",
                    "midi": 72,
                    "time": 135,
                    "velocity": 0.6377952755905512,
                    "duration": 1.125
                },
                {
                    "name": "D#4",
                    "midi": 63,
                    "time": 136.125,
                    "velocity": 0.5196850393700787,
                    "duration": 1.125
                },
                {
                    "name": "A3",
                    "midi": 57,
                    "time": 136.5,
                    "velocity": 0.5354330708661418,
                    "duration": 0.375
                },
                {
                    "name": "A4",
                    "midi": 69,
                    "time": 136.875,
                    "velocity": 0.5748031496062992,
                    "duration": 0.375
                },
                {
                    "name": "F#4",
                    "midi": 66,
                    "time": 137.25,
                    "velocity": 0.6377952755905512,
                    "duration": 1.125
                },
                {
                    "name": "D#4",
                    "midi": 63,
                    "time": 138.375,
                    "velocity": 0.5196850393700787,
                    "duration": 1.125
                },
                {
                    "name": "A3",
                    "midi": 57,
                    "time": 138.75,
                    "velocity": 0.5354330708661418,
                    "duration": 0.375
                },
                {
                    "name": "A4",
                    "midi": 69,
                    "time": 139.125,
                    "velocity": 0.5748031496062992,
                    "duration": 0.375
                },
                {
                    "name": "C5",
                    "midi": 72,
                    "time": 139.5,
                    "velocity": 0.6377952755905512,
                    "duration": 2.625
                },
                {
                    "name": "B4",
                    "midi": 71,
                    "time": 142.5,
                    "velocity": 0.3464566929133858,
                    "duration": 0.375
                },
                {
                    "name": "A4",
                    "midi": 69,
                    "time": 142.5,
                    "velocity": 0.29133858267716534,
                    "duration": 0.375
                },
                {
                    "name": "D#4",
                    "midi": 63,
                    "time": 142.5,
                    "velocity": 0.29133858267716534,
                    "duration": 0.375
                },
                {
                    "name": "F#4",
                    "midi": 66,
                    "time": 142.875,
                    "velocity": 0.29133858267716534,
                    "duration": 0.375
                },
                {
                    "name": "A4",
                    "midi": 69,
                    "time": 143.625,
                    "velocity": 0.28346456692913385,
                    "duration": 0.375
                },
                {
                    "name": "E4",
                    "midi": 64,
                    "time": 143.625,
                    "velocity": 0.28346456692913385,
                    "duration": 0.375
                },
                {
                    "name": "B4",
                    "midi": 71,
                    "time": 143.625,
                    "velocity": 0.33858267716535434,
                    "duration": 0.375
                },
                {
                    "name": "C5",
                    "midi": 72,
                    "time": 144,
                    "velocity": 0.28346456692913385,
                    "duration": 0.375
                },
                {
                    "name": "B4",
                    "midi": 71,
                    "time": 144.75,
                    "velocity": 0.33070866141732286,
                    "duration": 0.375
                },
                {
                    "name": "A4",
                    "midi": 69,
                    "time": 144.75,
                    "velocity": 0.2755905511811024,
                    "duration": 0.375
                },
                {
                    "name": "D#4",
                    "midi": 63,
                    "time": 144.75,
                    "velocity": 0.2755905511811024,
                    "duration": 0.375
                },
                {
                    "name": "F#4",
                    "midi": 66,
                    "time": 145.125,
                    "velocity": 0.29133858267716534,
                    "duration": 0.375
                },
                {
                    "name": "C5",
                    "midi": 72,
                    "time": 145.875,
                    "velocity": 0.2677165354330709,
                    "duration": 0.375
                },
                {
                    "name": "G4",
                    "midi": 67,
                    "time": 145.875,
                    "velocity": 0.2677165354330709,
                    "duration": 0.375
                },
                {
                    "name": "D#5",
                    "midi": 75,
                    "time": 145.875,
                    "velocity": 0.31496062992125984,
                    "duration": 0.375
                },
                {
                    "name": "E5",
                    "midi": 76,
                    "time": 146.25,
                    "velocity": 0.2755905511811024,
                    "duration": 0.375
                },
                {
                    "name": "D#5",
                    "midi": 75,
                    "time": 147,
                    "velocity": 0.29133858267716534,
                    "duration": 0.375
                },
                {
                    "name": "C5",
                    "midi": 72,
                    "time": 147,
                    "velocity": 0.2440944881889764,
                    "duration": 0.375
                },
                {
                    "name": "F#4",
                    "midi": 66,
                    "time": 147,
                    "velocity": 0.2440944881889764,
                    "duration": 0.375
                },
                {
                    "name": "A4",
                    "midi": 69,
                    "time": 147.375,
                    "velocity": 0.25196850393700787,
                    "duration": 0.375
                },
                {
                    "name": "D#5",
                    "midi": 75,
                    "time": 148.125,
                    "velocity": 0.2677165354330709,
                    "duration": 0.375
                },
                {
                    "name": "C5",
                    "midi": 72,
                    "time": 148.125,
                    "velocity": 0.2283464566929134,
                    "duration": 0.375
                },
                {
                    "name": "G4",
                    "midi": 67,
                    "time": 148.125,
                    "velocity": 0.2283464566929134,
                    "duration": 0.375
                },
                {
                    "name": "E5",
                    "midi": 76,
                    "time": 148.5,
                    "velocity": 0.2283464566929134,
                    "duration": 0.375
                },
                {
                    "name": "D#5",
                    "midi": 75,
                    "time": 149.25,
                    "velocity": 0.23622047244094488,
                    "duration": 0.375
                },
                {
                    "name": "F#4",
                    "midi": 66,
                    "time": 149.25,
                    "velocity": 0.2047244094488189,
                    "duration": 0.375
                },
                {
                    "name": "C5",
                    "midi": 72,
                    "time": 149.25,
                    "velocity": 0.2047244094488189,
                    "duration": 0.375
                },
                {
                    "name": "A4",
                    "midi": 69,
                    "time": 149.625,
                    "velocity": 0.2047244094488189,
                    "duration": 0.375
                },
                {
                    "name": "E5",
                    "midi": 76,
                    "time": 150.375,
                    "velocity": 0.2440944881889764,
                    "duration": 0.375
                },
                {
                    "name": "E4",
                    "midi": 64,
                    "time": 150.375,
                    "velocity": 0.1889763779527559,
                    "duration": 0.375
                },
                {
                    "name": "C5",
                    "midi": 72,
                    "time": 150.375,
                    "velocity": 0.1889763779527559,
                    "duration": 0.375
                },
                {
                    "name": "F5",
                    "midi": 77,
                    "time": 150.75,
                    "velocity": 0.2047244094488189,
                    "duration": 0.1875
                },
                {
                    "name": "E5",
                    "midi": 76,
                    "time": 151.5,
                    "velocity": 0.1968503937007874,
                    "duration": 0.375
                },
                {
                    "name": "A5",
                    "midi": 81,
                    "time": 151.5,
                    "velocity": 0.1968503937007874,
                    "duration": 0.375
                },
                {
                    "name": "C6",
                    "midi": 84,
                    "time": 151.5,
                    "velocity": 0.25196850393700787,
                    "duration": 0.375
                },
                {
                    "name": "D#5",
                    "midi": 75,
                    "time": 151.875,
                    "velocity": 0.2047244094488189,
                    "duration": 0.1875
                },
                {
                    "name": "E5",
                    "midi": 76,
                    "time": 152.625,
                    "velocity": 0.2440944881889764,
                    "duration": 0.375
                },
                {
                    "name": "E4",
                    "midi": 64,
                    "time": 152.625,
                    "velocity": 0.1889763779527559,
                    "duration": 0.375
                },
                {
                    "name": "C5",
                    "midi": 72,
                    "time": 152.625,
                    "velocity": 0.1889763779527559,
                    "duration": 0.375
                },
                {
                    "name": "F5",
                    "midi": 77,
                    "time": 153,
                    "velocity": 0.2047244094488189,
                    "duration": 0.1875
                },
                {
                    "name": "D#5",
                    "midi": 75,
                    "time": 153.75,
                    "velocity": 0.1968503937007874,
                    "duration": 0.375
                },
                {
                    "name": "A5",
                    "midi": 81,
                    "time": 153.75,
                    "velocity": 0.1968503937007874,
                    "duration": 0.375
                },
                {
                    "name": "C6",
                    "midi": 84,
                    "time": 153.75,
                    "velocity": 0.25196850393700787,
                    "duration": 0.375
                },
                {
                    "name": "A4",
                    "midi": 69,
                    "time": 154.125,
                    "velocity": 0.2047244094488189,
                    "duration": 0.1875
                },
                {
                    "name": "D5",
                    "midi": 74,
                    "time": 154.875,
                    "velocity": 0.25984251968503935,
                    "duration": 0.375
                },
                {
                    "name": "D4",
                    "midi": 62,
                    "time": 154.875,
                    "velocity": 0.2125984251968504,
                    "duration": 0.375
                },
                {
                    "name": "B4",
                    "midi": 71,
                    "time": 154.875,
                    "velocity": 0.2125984251968504,
                    "duration": 0.375
                },
                {
                    "name": "D#5",
                    "midi": 75,
                    "time": 155.25,
                    "velocity": 0.2204724409448819,
                    "duration": 0.1875
                },
                {
                    "name": "B5",
                    "midi": 83,
                    "time": 156,
                    "velocity": 0.25984251968503935,
                    "duration": 0.375
                },
                {
                    "name": "D5",
                    "midi": 74,
                    "time": 156,
                    "velocity": 0.2047244094488189,
                    "duration": 0.375
                },
                {
                    "name": "G5",
                    "midi": 79,
                    "time": 156,
                    "velocity": 0.2047244094488189,
                    "duration": 0.375
                },
                {
                    "name": "C#5",
                    "midi": 73,
                    "time": 156.375,
                    "velocity": 0.2125984251968504,
                    "duration": 0.1875
                },
                {
                    "name": "D5",
                    "midi": 74,
                    "time": 157.125,
                    "velocity": 0.2440944881889764,
                    "duration": 0.375
                },
                {
                    "name": "B4",
                    "midi": 71,
                    "time": 157.125,
                    "velocity": 0.1889763779527559,
                    "duration": 0.375
                },
                {
                    "name": "D4",
                    "midi": 62,
                    "time": 157.125,
                    "velocity": 0.1889763779527559,
                    "duration": 0.375
                },
                {
                    "name": "D#5",
                    "midi": 75,
                    "time": 157.5,
                    "velocity": 0.2047244094488189,
                    "duration": 0.1875
                },
                {
                    "name": "A#5",
                    "midi": 82,
                    "time": 158.25,
                    "velocity": 0.2755905511811024,
                    "duration": 0.375
                },
                {
                    "name": "C#5",
                    "midi": 73,
                    "time": 158.25,
                    "velocity": 0.2125984251968504,
                    "duration": 0.375
                },
                {
                    "name": "G5",
                    "midi": 79,
                    "time": 158.25,
                    "velocity": 0.2125984251968504,
                    "duration": 0.375
                },
                {
                    "name": "G4",
                    "midi": 67,
                    "time": 158.625,
                    "velocity": 0.2204724409448819,
                    "duration": 0.1875
                },
                {
                    "name": "C4",
                    "midi": 60,
                    "time": 159.375,
                    "velocity": 0.36220472440944884,
                    "duration": 0.375
                },
                {
                    "name": "A4",
                    "midi": 69,
                    "time": 159.375,
                    "velocity": 0.36220472440944884,
                    "duration": 0.375
                },
                {
                    "name": "C5",
                    "midi": 72,
                    "time": 159.375,
                    "velocity": 0.47244094488188976,
                    "duration": 0.375
                },
                {
                    "name": "C#5",
                    "midi": 73,
                    "time": 159.75,
                    "velocity": 0.4251968503937008,
                    "duration": 0.28125
                },
                {
                    "name": "C5",
                    "midi": 72,
                    "time": 160.5,
                    "velocity": 0.4881889763779528,
                    "duration": 0.375
                },
                {
                    "name": "F4",
                    "midi": 65,
                    "time": 160.5,
                    "velocity": 0.3858267716535433,
                    "duration": 0.375
                },
                {
                    "name": "A4",
                    "midi": 69,
                    "time": 160.5,
                    "velocity": 0.3858267716535433,
                    "duration": 0.375
                },
                {
                    "name": "D5",
                    "midi": 74,
                    "time": 160.875,
                    "velocity": 0.4330708661417323,
                    "duration": 0.28125
                },
                {
                    "name": "C5",
                    "midi": 72,
                    "time": 161.625,
                    "velocity": 0.44881889763779526,
                    "duration": 0.375
                },
                {
                    "name": "F5",
                    "midi": 77,
                    "time": 161.625,
                    "velocity": 0.44881889763779526,
                    "duration": 0.375
                },
                {
                    "name": "A5",
                    "midi": 81,
                    "time": 161.625,
                    "velocity": 0.5669291338582677,
                    "duration": 0.375
                },
                {
                    "name": "B4",
                    "midi": 71,
                    "time": 162,
                    "velocity": 0.5196850393700787,
                    "duration": 0.28125
                },
                {
                    "name": "F5",
                    "midi": 77,
                    "time": 162.75,
                    "velocity": 0.5826771653543307,
                    "duration": 0.375
                },
                {
                    "name": "A4",
                    "midi": 69,
                    "time": 162.75,
                    "velocity": 0.4566929133858268,
                    "duration": 0.375
                },
                {
                    "name": "C5",
                    "midi": 72,
                    "time": 162.75,
                    "velocity": 0.4566929133858268,
                    "duration": 0.375
                },
                {
                    "name": "G4",
                    "midi": 67,
                    "time": 163.125,
                    "velocity": 0.5275590551181102,
                    "duration": 0.28125
                },
                {
                    "name": "A4",
                    "midi": 69,
                    "time": 163.875,
                    "velocity": 0.4094488188976378,
                    "duration": 3.75
                },
                {
                    "name": "F4",
                    "midi": 65,
                    "time": 163.875,
                    "velocity": 0.49606299212598426,
                    "duration": 0.375
                },
                {
                    "name": "C5",
                    "midi": 72,
                    "time": 163.875,
                    "velocity": 0.47244094488188976,
                    "duration": 3.75
                },
                {
                    "name": "E4",
                    "midi": 64,
                    "time": 164.25,
                    "velocity": 0.5433070866141733,
                    "duration": 3.375
                },
                {
                    "name": "A3",
                    "midi": 57,
                    "time": 167.625,
                    "velocity": 0.31496062992125984,
                    "duration": 2.25
                },
                {
                    "name": "B4",
                    "midi": 71,
                    "time": 167.625,
                    "velocity": 0.3937007874015748,
                    "duration": 2.25
                },
                {
                    "name": "D#4",
                    "midi": 63,
                    "time": 167.625,
                    "velocity": 0.31496062992125984,
                    "duration": 1.125
                },
                {
                    "name": "A4",
                    "midi": 69,
                    "time": 168.75,
                    "velocity": 0.33858267716535434,
                    "duration": 1.125
                },
                {
                    "name": "B3",
                    "midi": 59,
                    "time": 169.875,
                    "velocity": 0.3858267716535433,
                    "duration": 1.125
                },
                {
                    "name": "G#4",
                    "midi": 68,
                    "time": 169.875,
                    "velocity": 0.3700787401574803,
                    "duration": 1.125
                },
                {
                    "name": "B4",
                    "midi": 71,
                    "time": 169.875,
                    "velocity": 0.41732283464566927,
                    "duration": 4.125
                },
                {
                    "name": "A3",
                    "midi": 57,
                    "time": 171,
                    "velocity": 0.3779527559055118,
                    "duration": 2.25
                },
                {
                    "name": "F#4",
                    "midi": 66,
                    "time": 171,
                    "velocity": 0.4330708661417323,
                    "duration": 2.25
                },
                {
                    "name": "D#4",
                    "midi": 63,
                    "time": 171,
                    "velocity": 0.3858267716535433,
                    "duration": 2.25
                },
                {
                    "name": "G#3",
                    "midi": 56,
                    "time": 173.25,
                    "velocity": 0.30708661417322836,
                    "duration": 0.75
                },
                {
                    "name": "E4",
                    "midi": 64,
                    "time": 173.25,
                    "velocity": 0.30708661417322836,
                    "duration": 0.75
                }
            ],
            "controlChanges": {
                "7": [
                    {
                        "number": 7,
                        "time": 0,
                        "value": 0.7874015748031497
                    }
                ],
                "10": [
                    {
                        "number": 10,
                        "time": 0,
                        "value": 0.5039370078740157
                    }
                ]
            },
            "id": 1,
            "name": "Piano right",
            "instrumentNumber": 0,
            "instrument": "acoustic grand piano",
            "instrumentFamily": "piano",
            "channelNumber": 0,
            "isPercussion": false
        },
        {
            "startTime": 1.875,
            "duration": 174.375,
            "length": 421,
            "notes": [
                {
                    "name": "E4",
                    "midi": 64,
                    "time": 1.875,
                    "velocity": 0.1889763779527559,
                    "duration": 0.375
                },
                {
                    "name": "E3",
                    "midi": 52,
                    "time": 1.875,
                    "velocity": 0.14960629921259844,
                    "duration": 0.375
                },
                {
                    "name": "G3",
                    "midi": 55,
                    "time": 1.875,
                    "velocity": 0.14960629921259844,
                    "duration": 0.375
                },
                {
                    "name": "D#3",
                    "midi": 51,
                    "time": 2.25,
                    "velocity": 0.1968503937007874,
                    "duration": 0.140625
                },
                {
                    "name": "E3",
                    "midi": 52,
                    "time": 3,
                    "velocity": 0.1889763779527559,
                    "duration": 0.375
                },
                {
                    "name": "G2",
                    "midi": 43,
                    "time": 3,
                    "velocity": 0.14960629921259844,
                    "duration": 0.375
                },
                {
                    "name": "B2",
                    "midi": 47,
                    "time": 3,
                    "velocity": 0.14960629921259844,
                    "duration": 0.375
                },
                {
                    "name": "F#3",
                    "midi": 54,
                    "time": 3.375,
                    "velocity": 0.2047244094488189,
                    "duration": 0.140625
                },
                {
                    "name": "E4",
                    "midi": 64,
                    "time": 4.125,
                    "velocity": 0.1889763779527559,
                    "duration": 0.375
                },
                {
                    "name": "E3",
                    "midi": 52,
                    "time": 4.125,
                    "velocity": 0.14960629921259844,
                    "duration": 0.375
                },
                {
                    "name": "G3",
                    "midi": 55,
                    "time": 4.125,
                    "velocity": 0.14960629921259844,
                    "duration": 0.375
                },
                {
                    "name": "D#3",
                    "midi": 51,
                    "time": 4.5,
                    "velocity": 0.1968503937007874,
                    "duration": 0.140625
                },
                {
                    "name": "E3",
                    "midi": 52,
                    "time": 5.25,
                    "velocity": 0.1889763779527559,
                    "duration": 0.375
                },
                {
                    "name": "G2",
                    "midi": 43,
                    "time": 5.25,
                    "velocity": 0.14960629921259844,
                    "duration": 0.375
                },
                {
                    "name": "B2",
                    "midi": 47,
                    "time": 5.25,
                    "velocity": 0.14960629921259844,
                    "duration": 0.375
                },
                {
                    "name": "G3",
                    "midi": 55,
                    "time": 5.625,
                    "velocity": 0.2047244094488189,
                    "duration": 0.140625
                },
                {
                    "name": "F#4",
                    "midi": 66,
                    "time": 6.375,
                    "velocity": 0.2125984251968504,
                    "duration": 0.375
                },
                {
                    "name": "F#3",
                    "midi": 54,
                    "time": 6.375,
                    "velocity": 0.15748031496062992,
                    "duration": 0.375
                },
                {
                    "name": "A3",
                    "midi": 57,
                    "time": 6.375,
                    "velocity": 0.15748031496062992,
                    "duration": 0.375
                },
                {
                    "name": "F3",
                    "midi": 53,
                    "time": 6.75,
                    "velocity": 0.2125984251968504,
                    "duration": 0.140625
                },
                {
                    "name": "F#3",
                    "midi": 54,
                    "time": 7.5,
                    "velocity": 0.1968503937007874,
                    "duration": 0.375
                },
                {
                    "name": "A2",
                    "midi": 45,
                    "time": 7.5,
                    "velocity": 0.15748031496062992,
                    "duration": 0.375
                },
                {
                    "name": "C3",
                    "midi": 48,
                    "time": 7.5,
                    "velocity": 0.15748031496062992,
                    "duration": 0.375
                },
                {
                    "name": "G3",
                    "midi": 55,
                    "time": 7.875,
                    "velocity": 0.2125984251968504,
                    "duration": 0.140625
                },
                {
                    "name": "F#4",
                    "midi": 66,
                    "time": 8.625,
                    "velocity": 0.1889763779527559,
                    "duration": 0.375
                },
                {
                    "name": "F#3",
                    "midi": 54,
                    "time": 8.625,
                    "velocity": 0.14960629921259844,
                    "duration": 0.375
                },
                {
                    "name": "A3",
                    "midi": 57,
                    "time": 8.625,
                    "velocity": 0.14960629921259844,
                    "duration": 0.375
                },
                {
                    "name": "F3",
                    "midi": 53,
                    "time": 9,
                    "velocity": 0.1968503937007874,
                    "duration": 0.140625
                },
                {
                    "name": "F#3",
                    "midi": 54,
                    "time": 9.75,
                    "velocity": 0.1889763779527559,
                    "duration": 0.375
                },
                {
                    "name": "A2",
                    "midi": 45,
                    "time": 9.75,
                    "velocity": 0.14960629921259844,
                    "duration": 0.375
                },
                {
                    "name": "C3",
                    "midi": 48,
                    "time": 9.75,
                    "velocity": 0.14960629921259844,
                    "duration": 0.375
                },
                {
                    "name": "A3",
                    "midi": 57,
                    "time": 10.125,
                    "velocity": 0.2047244094488189,
                    "duration": 0.140625
                },
                {
                    "name": "G4",
                    "midi": 67,
                    "time": 10.875,
                    "velocity": 0.29133858267716534,
                    "duration": 0.375
                },
                {
                    "name": "G3",
                    "midi": 55,
                    "time": 10.875,
                    "velocity": 0.2204724409448819,
                    "duration": 0.375
                },
                {
                    "name": "B3",
                    "midi": 59,
                    "time": 10.875,
                    "velocity": 0.2204724409448819,
                    "duration": 0.375
                },
                {
                    "name": "F#3",
                    "midi": 54,
                    "time": 11.25,
                    "velocity": 0.2283464566929134,
                    "duration": 0.1875
                },
                {
                    "name": "G#3",
                    "midi": 56,
                    "time": 12,
                    "velocity": 0.3228346456692913,
                    "duration": 0.375
                },
                {
                    "name": "B2",
                    "midi": 47,
                    "time": 12,
                    "velocity": 0.25984251968503935,
                    "duration": 0.375
                },
                {
                    "name": "D3",
                    "midi": 50,
                    "time": 12,
                    "velocity": 0.25984251968503935,
                    "duration": 0.375
                },
                {
                    "name": "D4",
                    "midi": 62,
                    "time": 12.375,
                    "velocity": 0.33070866141732286,
                    "duration": 0.1875
                },
                {
                    "name": "A4",
                    "midi": 69,
                    "time": 13.125,
                    "velocity": 0.3543307086614173,
                    "duration": 0.375
                },
                {
                    "name": "A3",
                    "midi": 57,
                    "time": 13.125,
                    "velocity": 0.2755905511811024,
                    "duration": 0.375
                },
                {
                    "name": "C4",
                    "midi": 60,
                    "time": 13.125,
                    "velocity": 0.2755905511811024,
                    "duration": 0.375
                },
                {
                    "name": "G#3",
                    "midi": 56,
                    "time": 13.5,
                    "velocity": 0.3937007874015748,
                    "duration": 0.1875
                },
                {
                    "name": "A#3",
                    "midi": 58,
                    "time": 14.25,
                    "velocity": 0.36220472440944884,
                    "duration": 0.375
                },
                {
                    "name": "C#3",
                    "midi": 49,
                    "time": 14.25,
                    "velocity": 0.2755905511811024,
                    "duration": 0.375
                },
                {
                    "name": "E3",
                    "midi": 52,
                    "time": 14.25,
                    "velocity": 0.2755905511811024,
                    "duration": 0.375
                },
                {
                    "name": "E4",
                    "midi": 64,
                    "time": 14.625,
                    "velocity": 0.3858267716535433,
                    "duration": 0.1875
                },
                {
                    "name": "B4",
                    "midi": 71,
                    "time": 15.375,
                    "velocity": 0.31496062992125984,
                    "duration": 0.375
                },
                {
                    "name": "B3",
                    "midi": 59,
                    "time": 15.375,
                    "velocity": 0.23622047244094488,
                    "duration": 0.375
                },
                {
                    "name": "D4",
                    "midi": 62,
                    "time": 15.375,
                    "velocity": 0.23622047244094488,
                    "duration": 0.375
                },
                {
                    "name": "D3",
                    "midi": 50,
                    "time": 15.75,
                    "velocity": 0.2440944881889764,
                    "duration": 0.28125
                },
                {
                    "name": "C#4",
                    "midi": 61,
                    "time": 16.5,
                    "velocity": 0.2755905511811024,
                    "duration": 0.375
                },
                {
                    "name": "E3",
                    "midi": 52,
                    "time": 16.5,
                    "velocity": 0.2125984251968504,
                    "duration": 0.375
                },
                {
                    "name": "G3",
                    "midi": 55,
                    "time": 16.5,
                    "velocity": 0.2125984251968504,
                    "duration": 0.375
                },
                {
                    "name": "F#4",
                    "midi": 66,
                    "time": 16.875,
                    "velocity": 0.2047244094488189,
                    "duration": 0.28125
                },
                {
                    "name": "B3",
                    "midi": 59,
                    "time": 17.625,
                    "velocity": 0.25984251968503935,
                    "duration": 0.375
                },
                {
                    "name": "F#3",
                    "midi": 54,
                    "time": 17.625,
                    "velocity": 0.2047244094488189,
                    "duration": 0.375
                },
                {
                    "name": "E4",
                    "midi": 64,
                    "time": 18,
                    "velocity": 0.1968503937007874,
                    "duration": 0.28125
                },
                {
                    "name": "A#3",
                    "midi": 58,
                    "time": 18.75,
                    "velocity": 0.2440944881889764,
                    "duration": 0.9375
                },
                {
                    "name": "F#3",
                    "midi": 54,
                    "time": 18.75,
                    "velocity": 0.1889763779527559,
                    "duration": 0.9375
                },
                {
                    "name": "F#4",
                    "midi": 66,
                    "time": 19.125,
                    "velocity": 0.2047244094488189,
                    "duration": 0.375
                },
                {
                    "name": "E4",
                    "midi": 64,
                    "time": 19.5,
                    "velocity": 0.1968503937007874,
                    "duration": 0.1875
                },
                {
                    "name": "B4",
                    "midi": 71,
                    "time": 19.875,
                    "velocity": 0.33070866141732286,
                    "duration": 0.375
                },
                {
                    "name": "B3",
                    "midi": 59,
                    "time": 19.875,
                    "velocity": 0.25196850393700787,
                    "duration": 0.375
                },
                {
                    "name": "D4",
                    "midi": 62,
                    "time": 19.875,
                    "velocity": 0.25196850393700787,
                    "duration": 0.375
                },
                {
                    "name": "D3",
                    "midi": 50,
                    "time": 20.25,
                    "velocity": 0.25984251968503935,
                    "duration": 0.1875
                },
                {
                    "name": "C#4",
                    "midi": 61,
                    "time": 21,
                    "velocity": 0.3543307086614173,
                    "duration": 0.375
                },
                {
                    "name": "E3",
                    "midi": 52,
                    "time": 21,
                    "velocity": 0.2677165354330709,
                    "duration": 0.375
                },
                {
                    "name": "A3",
                    "midi": 57,
                    "time": 21,
                    "velocity": 0.2677165354330709,
                    "duration": 0.375
                },
                {
                    "name": "A4",
                    "midi": 69,
                    "time": 21.375,
                    "velocity": 0.2992125984251969,
                    "duration": 0.1875
                },
                {
                    "name": "D4",
                    "midi": 62,
                    "time": 22.125,
                    "velocity": 0.2992125984251969,
                    "duration": 0.375
                },
                {
                    "name": "F#3",
                    "midi": 54,
                    "time": 22.125,
                    "velocity": 0.23622047244094488,
                    "duration": 0.375
                },
                {
                    "name": "B3",
                    "midi": 59,
                    "time": 22.125,
                    "velocity": 0.23622047244094488,
                    "duration": 0.375
                },
                {
                    "name": "G4",
                    "midi": 67,
                    "time": 22.5,
                    "velocity": 0.25196850393700787,
                    "duration": 0.1875
                },
                {
                    "name": "E4",
                    "midi": 64,
                    "time": 23.25,
                    "velocity": 0.2440944881889764,
                    "duration": 0.375
                },
                {
                    "name": "F#3",
                    "midi": 54,
                    "time": 23.25,
                    "velocity": 0.1889763779527559,
                    "duration": 0.375
                },
                {
                    "name": "C#4",
                    "midi": 61,
                    "time": 23.25,
                    "velocity": 0.1889763779527559,
                    "duration": 0.375
                },
                {
                    "name": "F#4",
                    "midi": 66,
                    "time": 23.625,
                    "velocity": 0.2047244094488189,
                    "duration": 0.375
                },
                {
                    "name": "B1",
                    "midi": 35,
                    "time": 24.375,
                    "velocity": 0.29133858267716534,
                    "duration": 0.375
                },
                {
                    "name": "B2",
                    "midi": 47,
                    "time": 24.75,
                    "velocity": 0.3464566929133858,
                    "duration": 3.65625
                },
                {
                    "name": "E3",
                    "midi": 52,
                    "time": 25.5,
                    "velocity": 0.30708661417322836,
                    "duration": 0.375
                },
                {
                    "name": "G3",
                    "midi": 55,
                    "time": 25.875,
                    "velocity": 0.33858267716535434,
                    "duration": 0.75
                },
                {
                    "name": "F#3",
                    "midi": 54,
                    "time": 26.625,
                    "velocity": 0.29133858267716534,
                    "duration": 0.375
                },
                {
                    "name": "A3",
                    "midi": 57,
                    "time": 27,
                    "velocity": 0.2992125984251969,
                    "duration": 1.40625
                },
                {
                    "name": "E4",
                    "midi": 64,
                    "time": 28.875,
                    "velocity": 0.1889763779527559,
                    "duration": 0.375
                },
                {
                    "name": "E3",
                    "midi": 52,
                    "time": 28.875,
                    "velocity": 0.14960629921259844,
                    "duration": 0.375
                },
                {
                    "name": "G3",
                    "midi": 55,
                    "time": 28.875,
                    "velocity": 0.14960629921259844,
                    "duration": 0.375
                },
                {
                    "name": "D#3",
                    "midi": 51,
                    "time": 29.25,
                    "velocity": 0.1968503937007874,
                    "duration": 0.140625
                },
                {
                    "name": "E3",
                    "midi": 52,
                    "time": 30,
                    "velocity": 0.1889763779527559,
                    "duration": 0.375
                },
                {
                    "name": "G2",
                    "midi": 43,
                    "time": 30,
                    "velocity": 0.14960629921259844,
                    "duration": 0.375
                },
                {
                    "name": "B2",
                    "midi": 47,
                    "time": 30,
                    "velocity": 0.14960629921259844,
                    "duration": 0.375
                },
                {
                    "name": "F#3",
                    "midi": 54,
                    "time": 30.375,
                    "velocity": 0.2047244094488189,
                    "duration": 0.140625
                },
                {
                    "name": "E4",
                    "midi": 64,
                    "time": 31.125,
                    "velocity": 0.1889763779527559,
                    "duration": 0.375
                },
                {
                    "name": "E3",
                    "midi": 52,
                    "time": 31.125,
                    "velocity": 0.14960629921259844,
                    "duration": 0.375
                },
                {
                    "name": "G3",
                    "midi": 55,
                    "time": 31.125,
                    "velocity": 0.14960629921259844,
                    "duration": 0.375
                },
                {
                    "name": "D#3",
                    "midi": 51,
                    "time": 31.5,
                    "velocity": 0.1968503937007874,
                    "duration": 0.140625
                },
                {
                    "name": "E3",
                    "midi": 52,
                    "time": 32.25,
                    "velocity": 0.1889763779527559,
                    "duration": 0.375
                },
                {
                    "name": "G2",
                    "midi": 43,
                    "time": 32.25,
                    "velocity": 0.14960629921259844,
                    "duration": 0.375
                },
                {
                    "name": "B2",
                    "midi": 47,
                    "time": 32.25,
                    "velocity": 0.14960629921259844,
                    "duration": 0.375
                },
                {
                    "name": "G3",
                    "midi": 55,
                    "time": 32.625,
                    "velocity": 0.2047244094488189,
                    "duration": 0.140625
                },
                {
                    "name": "F#4",
                    "midi": 66,
                    "time": 33.375,
                    "velocity": 0.2125984251968504,
                    "duration": 0.375
                },
                {
                    "name": "F#3",
                    "midi": 54,
                    "time": 33.375,
                    "velocity": 0.15748031496062992,
                    "duration": 0.375
                },
                {
                    "name": "A3",
                    "midi": 57,
                    "time": 33.375,
                    "velocity": 0.15748031496062992,
                    "duration": 0.375
                },
                {
                    "name": "F3",
                    "midi": 53,
                    "time": 33.75,
                    "velocity": 0.2125984251968504,
                    "duration": 0.140625
                },
                {
                    "name": "F#3",
                    "midi": 54,
                    "time": 34.5,
                    "velocity": 0.1968503937007874,
                    "duration": 0.375
                },
                {
                    "name": "A2",
                    "midi": 45,
                    "time": 34.5,
                    "velocity": 0.15748031496062992,
                    "duration": 0.375
                },
                {
                    "name": "C3",
                    "midi": 48,
                    "time": 34.5,
                    "velocity": 0.15748031496062992,
                    "duration": 0.375
                },
                {
                    "name": "G3",
                    "midi": 55,
                    "time": 34.875,
                    "velocity": 0.2125984251968504,
                    "duration": 0.140625
                },
                {
                    "name": "F#4",
                    "midi": 66,
                    "time": 35.625,
                    "velocity": 0.1889763779527559,
                    "duration": 0.375
                },
                {
                    "name": "F#3",
                    "midi": 54,
                    "time": 35.625,
                    "velocity": 0.14960629921259844,
                    "duration": 0.375
                },
                {
                    "name": "A3",
                    "midi": 57,
                    "time": 35.625,
                    "velocity": 0.14960629921259844,
                    "duration": 0.375
                },
                {
                    "name": "F3",
                    "midi": 53,
                    "time": 36,
                    "velocity": 0.1968503937007874,
                    "duration": 0.140625
                },
                {
                    "name": "F#3",
                    "midi": 54,
                    "time": 36.75,
                    "velocity": 0.1889763779527559,
                    "duration": 0.375
                },
                {
                    "name": "A2",
                    "midi": 45,
                    "time": 36.75,
                    "velocity": 0.14960629921259844,
                    "duration": 0.375
                },
                {
                    "name": "C3",
                    "midi": 48,
                    "time": 36.75,
                    "velocity": 0.14960629921259844,
                    "duration": 0.375
                },
                {
                    "name": "A3",
                    "midi": 57,
                    "time": 37.125,
                    "velocity": 0.2047244094488189,
                    "duration": 0.140625
                },
                {
                    "name": "G4",
                    "midi": 67,
                    "time": 37.875,
                    "velocity": 0.29133858267716534,
                    "duration": 0.375
                },
                {
                    "name": "G3",
                    "midi": 55,
                    "time": 37.875,
                    "velocity": 0.2204724409448819,
                    "duration": 0.375
                },
                {
                    "name": "B3",
                    "midi": 59,
                    "time": 37.875,
                    "velocity": 0.2204724409448819,
                    "duration": 0.375
                },
                {
                    "name": "F#3",
                    "midi": 54,
                    "time": 38.25,
                    "velocity": 0.2283464566929134,
                    "duration": 0.1875
                },
                {
                    "name": "G#3",
                    "midi": 56,
                    "time": 39,
                    "velocity": 0.3228346456692913,
                    "duration": 0.375
                },
                {
                    "name": "B2",
                    "midi": 47,
                    "time": 39,
                    "velocity": 0.25984251968503935,
                    "duration": 0.375
                },
                {
                    "name": "D3",
                    "midi": 50,
                    "time": 39,
                    "velocity": 0.25984251968503935,
                    "duration": 0.375
                },
                {
                    "name": "D4",
                    "midi": 62,
                    "time": 39.375,
                    "velocity": 0.33070866141732286,
                    "duration": 0.1875
                },
                {
                    "name": "A4",
                    "midi": 69,
                    "time": 40.125,
                    "velocity": 0.3543307086614173,
                    "duration": 0.375
                },
                {
                    "name": "A3",
                    "midi": 57,
                    "time": 40.125,
                    "velocity": 0.2755905511811024,
                    "duration": 0.375
                },
                {
                    "name": "C4",
                    "midi": 60,
                    "time": 40.125,
                    "velocity": 0.2755905511811024,
                    "duration": 0.375
                },
                {
                    "name": "G#3",
                    "midi": 56,
                    "time": 40.5,
                    "velocity": 0.3937007874015748,
                    "duration": 0.1875
                },
                {
                    "name": "A#3",
                    "midi": 58,
                    "time": 41.25,
                    "velocity": 0.36220472440944884,
                    "duration": 0.375
                },
                {
                    "name": "C#3",
                    "midi": 49,
                    "time": 41.25,
                    "velocity": 0.2755905511811024,
                    "duration": 0.375
                },
                {
                    "name": "E3",
                    "midi": 52,
                    "time": 41.25,
                    "velocity": 0.2755905511811024,
                    "duration": 0.375
                },
                {
                    "name": "E4",
                    "midi": 64,
                    "time": 41.625,
                    "velocity": 0.3858267716535433,
                    "duration": 0.1875
                },
                {
                    "name": "B4",
                    "midi": 71,
                    "time": 42.375,
                    "velocity": 0.31496062992125984,
                    "duration": 0.375
                },
                {
                    "name": "B3",
                    "midi": 59,
                    "time": 42.375,
                    "velocity": 0.23622047244094488,
                    "duration": 0.375
                },
                {
                    "name": "D4",
                    "midi": 62,
                    "time": 42.375,
                    "velocity": 0.23622047244094488,
                    "duration": 0.375
                },
                {
                    "name": "D3",
                    "midi": 50,
                    "time": 42.75,
                    "velocity": 0.2440944881889764,
                    "duration": 0.28125
                },
                {
                    "name": "C#4",
                    "midi": 61,
                    "time": 43.5,
                    "velocity": 0.2755905511811024,
                    "duration": 0.375
                },
                {
                    "name": "E3",
                    "midi": 52,
                    "time": 43.5,
                    "velocity": 0.2125984251968504,
                    "duration": 0.375
                },
                {
                    "name": "G3",
                    "midi": 55,
                    "time": 43.5,
                    "velocity": 0.2125984251968504,
                    "duration": 0.375
                },
                {
                    "name": "F#4",
                    "midi": 66,
                    "time": 43.875,
                    "velocity": 0.2047244094488189,
                    "duration": 0.28125
                },
                {
                    "name": "B3",
                    "midi": 59,
                    "time": 44.625,
                    "velocity": 0.25984251968503935,
                    "duration": 0.375
                },
                {
                    "name": "F#3",
                    "midi": 54,
                    "time": 44.625,
                    "velocity": 0.2047244094488189,
                    "duration": 0.375
                },
                {
                    "name": "E4",
                    "midi": 64,
                    "time": 45,
                    "velocity": 0.1968503937007874,
                    "duration": 0.28125
                },
                {
                    "name": "A#3",
                    "midi": 58,
                    "time": 45.75,
                    "velocity": 0.2440944881889764,
                    "duration": 0.9375
                },
                {
                    "name": "F#3",
                    "midi": 54,
                    "time": 45.75,
                    "velocity": 0.1889763779527559,
                    "duration": 0.9375
                },
                {
                    "name": "F#4",
                    "midi": 66,
                    "time": 46.125,
                    "velocity": 0.2047244094488189,
                    "duration": 0.375
                },
                {
                    "name": "E4",
                    "midi": 64,
                    "time": 46.5,
                    "velocity": 0.1968503937007874,
                    "duration": 0.1875
                },
                {
                    "name": "B4",
                    "midi": 71,
                    "time": 46.875,
                    "velocity": 0.33070866141732286,
                    "duration": 0.375
                },
                {
                    "name": "B3",
                    "midi": 59,
                    "time": 46.875,
                    "velocity": 0.25196850393700787,
                    "duration": 0.375
                },
                {
                    "name": "D4",
                    "midi": 62,
                    "time": 46.875,
                    "velocity": 0.25196850393700787,
                    "duration": 0.375
                },
                {
                    "name": "D3",
                    "midi": 50,
                    "time": 47.25,
                    "velocity": 0.25984251968503935,
                    "duration": 0.1875
                },
                {
                    "name": "C#4",
                    "midi": 61,
                    "time": 48,
                    "velocity": 0.3543307086614173,
                    "duration": 0.375
                },
                {
                    "name": "E3",
                    "midi": 52,
                    "time": 48,
                    "velocity": 0.2677165354330709,
                    "duration": 0.375
                },
                {
                    "name": "A3",
                    "midi": 57,
                    "time": 48,
                    "velocity": 0.2677165354330709,
                    "duration": 0.375
                },
                {
                    "name": "A4",
                    "midi": 69,
                    "time": 48.375,
                    "velocity": 0.2992125984251969,
                    "duration": 0.1875
                },
                {
                    "name": "D4",
                    "midi": 62,
                    "time": 49.125,
                    "velocity": 0.2992125984251969,
                    "duration": 0.375
                },
                {
                    "name": "F#3",
                    "midi": 54,
                    "time": 49.125,
                    "velocity": 0.23622047244094488,
                    "duration": 0.375
                },
                {
                    "name": "B3",
                    "midi": 59,
                    "time": 49.125,
                    "velocity": 0.23622047244094488,
                    "duration": 0.375
                },
                {
                    "name": "G4",
                    "midi": 67,
                    "time": 49.5,
                    "velocity": 0.25196850393700787,
                    "duration": 0.1875
                },
                {
                    "name": "E4",
                    "midi": 64,
                    "time": 50.25,
                    "velocity": 0.2440944881889764,
                    "duration": 0.375
                },
                {
                    "name": "F#3",
                    "midi": 54,
                    "time": 50.25,
                    "velocity": 0.1889763779527559,
                    "duration": 0.375
                },
                {
                    "name": "C#4",
                    "midi": 61,
                    "time": 50.25,
                    "velocity": 0.1889763779527559,
                    "duration": 0.375
                },
                {
                    "name": "F#4",
                    "midi": 66,
                    "time": 50.625,
                    "velocity": 0.2047244094488189,
                    "duration": 0.375
                },
                {
                    "name": "B1",
                    "midi": 35,
                    "time": 51.375,
                    "velocity": 0.29133858267716534,
                    "duration": 0.375
                },
                {
                    "name": "F#2",
                    "midi": 42,
                    "time": 51.75,
                    "velocity": 0.3464566929133858,
                    "duration": 0.75
                },
                {
                    "name": "B2",
                    "midi": 47,
                    "time": 52.5,
                    "velocity": 0.30708661417322836,
                    "duration": 0.375
                },
                {
                    "name": "D#3",
                    "midi": 51,
                    "time": 52.875,
                    "velocity": 0.33858267716535434,
                    "duration": 0.75
                },
                {
                    "name": "B1",
                    "midi": 35,
                    "time": 53.625,
                    "velocity": 0.31496062992125984,
                    "duration": 0.375
                },
                {
                    "name": "G#2",
                    "midi": 44,
                    "time": 54,
                    "velocity": 0.3700787401574803,
                    "duration": 0.75
                },
                {
                    "name": "B2",
                    "midi": 47,
                    "time": 54.75,
                    "velocity": 0.30708661417322836,
                    "duration": 0.375
                },
                {
                    "name": "E3",
                    "midi": 52,
                    "time": 55.125,
                    "velocity": 0.33858267716535434,
                    "duration": 0.75
                },
                {
                    "name": "B1",
                    "midi": 35,
                    "time": 55.875,
                    "velocity": 0.31496062992125984,
                    "duration": 0.375
                },
                {
                    "name": "F2",
                    "midi": 41,
                    "time": 56.25,
                    "velocity": 0.3700787401574803,
                    "duration": 0.75
                },
                {
                    "name": "G#2",
                    "midi": 44,
                    "time": 57,
                    "velocity": 0.30708661417322836,
                    "duration": 0.375
                },
                {
                    "name": "B2",
                    "midi": 47,
                    "time": 57.375,
                    "velocity": 0.33858267716535434,
                    "duration": 0.75
                },
                {
                    "name": "B1",
                    "midi": 35,
                    "time": 58.125,
                    "velocity": 0.31496062992125984,
                    "duration": 0.375
                },
                {
                    "name": "E2",
                    "midi": 40,
                    "time": 58.5,
                    "velocity": 0.3700787401574803,
                    "duration": 0.75
                },
                {
                    "name": "G2",
                    "midi": 43,
                    "time": 59.25,
                    "velocity": 0.25984251968503935,
                    "duration": 0.375
                },
                {
                    "name": "B2",
                    "midi": 47,
                    "time": 59.625,
                    "velocity": 0.2125984251968504,
                    "duration": 1.125
                },
                {
                    "name": "C#3",
                    "midi": 49,
                    "time": 59.625,
                    "velocity": 0.2125984251968504,
                    "duration": 1.125
                },
                {
                    "name": "E3",
                    "midi": 52,
                    "time": 59.625,
                    "velocity": 0.25984251968503935,
                    "duration": 1.125
                },
                {
                    "name": "B2",
                    "midi": 47,
                    "time": 60.75,
                    "velocity": 0.33070866141732286,
                    "duration": 0.375
                },
                {
                    "name": "D#3",
                    "midi": 51,
                    "time": 61.125,
                    "velocity": 0.28346456692913385,
                    "duration": 0.375
                },
                {
                    "name": "D#4",
                    "midi": 63,
                    "time": 61.5,
                    "velocity": 0.28346456692913385,
                    "duration": 0.375
                },
                {
                    "name": "B1",
                    "midi": 35,
                    "time": 62.625,
                    "velocity": 0.2677165354330709,
                    "duration": 0.1875
                },
                {
                    "name": "B2",
                    "midi": 47,
                    "time": 63,
                    "velocity": 0.33858267716535434,
                    "duration": 0.375
                },
                {
                    "name": "E3",
                    "midi": 52,
                    "time": 63.375,
                    "velocity": 0.28346456692913385,
                    "duration": 0.375
                },
                {
                    "name": "E4",
                    "midi": 64,
                    "time": 63.75,
                    "velocity": 0.28346456692913385,
                    "duration": 0.375
                },
                {
                    "name": "B1",
                    "midi": 35,
                    "time": 64.875,
                    "velocity": 0.31496062992125984,
                    "duration": 0.1875
                },
                {
                    "name": "B2",
                    "midi": 47,
                    "time": 65.25,
                    "velocity": 0.4015748031496063,
                    "duration": 0.375
                },
                {
                    "name": "F3",
                    "midi": 53,
                    "time": 65.625,
                    "velocity": 0.33858267716535434,
                    "duration": 0.375
                },
                {
                    "name": "F4",
                    "midi": 65,
                    "time": 66,
                    "velocity": 0.33858267716535434,
                    "duration": 0.375
                },
                {
                    "name": "B1",
                    "midi": 35,
                    "time": 67.125,
                    "velocity": 0.3937007874015748,
                    "duration": 0.1875
                },
                {
                    "name": "B2",
                    "midi": 47,
                    "time": 67.5,
                    "velocity": 0.4881889763779528,
                    "duration": 0.375
                },
                {
                    "name": "E3",
                    "midi": 52,
                    "time": 67.875,
                    "velocity": 0.4094488188976378,
                    "duration": 0.375
                },
                {
                    "name": "E4",
                    "midi": 64,
                    "time": 68.25,
                    "velocity": 0.4094488188976378,
                    "duration": 0.375
                },
                {
                    "name": "B1",
                    "midi": 35,
                    "time": 69.375,
                    "velocity": 0.36220472440944884,
                    "duration": 0.1875
                },
                {
                    "name": "B2",
                    "midi": 47,
                    "time": 69.75,
                    "velocity": 0.5196850393700787,
                    "duration": 0.375
                },
                {
                    "name": "F#3",
                    "midi": 54,
                    "time": 70.125,
                    "velocity": 0.44881889763779526,
                    "duration": 0.375
                },
                {
                    "name": "F#4",
                    "midi": 66,
                    "time": 70.5,
                    "velocity": 0.44881889763779526,
                    "duration": 0.375
                },
                {
                    "name": "B1",
                    "midi": 35,
                    "time": 70.875,
                    "velocity": 0.36220472440944884,
                    "duration": 1.125
                },
                {
                    "name": "B2",
                    "midi": 47,
                    "time": 72,
                    "velocity": 0.5196850393700787,
                    "duration": 0.375
                },
                {
                    "name": "F#3",
                    "midi": 54,
                    "time": 72.375,
                    "velocity": 0.44881889763779526,
                    "duration": 0.375
                },
                {
                    "name": "E4",
                    "midi": 64,
                    "time": 72.75,
                    "velocity": 0.44881889763779526,
                    "duration": 0.375
                },
                {
                    "name": "B1",
                    "midi": 35,
                    "time": 73.125,
                    "velocity": 0.36220472440944884,
                    "duration": 1.125
                },
                {
                    "name": "C3",
                    "midi": 48,
                    "time": 74.25,
                    "velocity": 0.5196850393700787,
                    "duration": 0.75
                },
                {
                    "name": "A3",
                    "midi": 57,
                    "time": 74.625,
                    "velocity": 0.44881889763779526,
                    "duration": 0.375
                },
                {
                    "name": "E4",
                    "midi": 64,
                    "time": 75,
                    "velocity": 0.44881889763779526,
                    "duration": 0.375
                },
                {
                    "name": "B2",
                    "midi": 47,
                    "time": 75.375,
                    "velocity": 0.36220472440944884,
                    "duration": 0.75
                },
                {
                    "name": "A2",
                    "midi": 45,
                    "time": 76.5,
                    "velocity": 0.5196850393700787,
                    "duration": 0.75
                },
                {
                    "name": "F#3",
                    "midi": 54,
                    "time": 76.875,
                    "velocity": 0.44881889763779526,
                    "duration": 0.375
                },
                {
                    "name": "E4",
                    "midi": 64,
                    "time": 77.25,
                    "velocity": 0.44881889763779526,
                    "duration": 0.375
                },
                {
                    "name": "B2",
                    "midi": 47,
                    "time": 77.625,
                    "velocity": 0.36220472440944884,
                    "duration": 0.75
                },
                {
                    "name": "C3",
                    "midi": 48,
                    "time": 78.75,
                    "velocity": 0.5196850393700787,
                    "duration": 0.75
                },
                {
                    "name": "A3",
                    "midi": 57,
                    "time": 79.125,
                    "velocity": 0.44881889763779526,
                    "duration": 0.375
                },
                {
                    "name": "E4",
                    "midi": 64,
                    "time": 79.5,
                    "velocity": 0.44881889763779526,
                    "duration": 0.375
                },
                {
                    "name": "B2",
                    "midi": 47,
                    "time": 79.875,
                    "velocity": 0.36220472440944884,
                    "duration": 0.75
                },
                {
                    "name": "A2",
                    "midi": 45,
                    "time": 81,
                    "velocity": 0.5196850393700787,
                    "duration": 0.75
                },
                {
                    "name": "F#3",
                    "midi": 54,
                    "time": 81.375,
                    "velocity": 0.44881889763779526,
                    "duration": 0.375
                },
                {
                    "name": "E4",
                    "midi": 64,
                    "time": 81.75,
                    "velocity": 0.44881889763779526,
                    "duration": 0.1875
                },
                {
                    "name": "F#2",
                    "midi": 42,
                    "time": 82.125,
                    "velocity": 0.5196850393700787,
                    "duration": 0.75
                },
                {
                    "name": "A3",
                    "midi": 57,
                    "time": 82.5,
                    "velocity": 0.44881889763779526,
                    "duration": 0.375
                },
                {
                    "name": "E4",
                    "midi": 64,
                    "time": 82.875,
                    "velocity": 0.44881889763779526,
                    "duration": 0.1875
                },
                {
                    "name": "B2",
                    "midi": 47,
                    "time": 83.25,
                    "velocity": 0.3779527559055118,
                    "duration": 0.375
                },
                {
                    "name": "A3",
                    "midi": 57,
                    "time": 83.625,
                    "velocity": 0.30708661417322836,
                    "duration": 0.375
                },
                {
                    "name": "B3",
                    "midi": 59,
                    "time": 84.75,
                    "velocity": 0.2125984251968504,
                    "duration": 0.375
                },
                {
                    "name": "A3",
                    "midi": 57,
                    "time": 85.875,
                    "velocity": 0.2125984251968504,
                    "duration": 0.375
                },
                {
                    "name": "B2",
                    "midi": 47,
                    "time": 85.875,
                    "velocity": 0.18110236220472442,
                    "duration": 0.375
                },
                {
                    "name": "B3",
                    "midi": 59,
                    "time": 87,
                    "velocity": 0.2047244094488189,
                    "duration": 0.375
                },
                {
                    "name": "B2",
                    "midi": 47,
                    "time": 88.125,
                    "velocity": 0.11811023622047244,
                    "duration": 0.375
                },
                {
                    "name": "A3",
                    "midi": 57,
                    "time": 88.125,
                    "velocity": 0.16535433070866143,
                    "duration": 0.375
                },
                {
                    "name": "B3",
                    "midi": 59,
                    "time": 89.25,
                    "velocity": 0.16535433070866143,
                    "duration": 0.375
                },
                {
                    "name": "B2",
                    "midi": 47,
                    "time": 90.375,
                    "velocity": 0.10236220472440945,
                    "duration": 0.375
                },
                {
                    "name": "A3",
                    "midi": 57,
                    "time": 90.375,
                    "velocity": 0.13385826771653545,
                    "duration": 0.375
                },
                {
                    "name": "B3",
                    "midi": 59,
                    "time": 91.5,
                    "velocity": 0.1732283464566929,
                    "duration": 0.375
                },
                {
                    "name": "A4",
                    "midi": 69,
                    "time": 91.875,
                    "velocity": 0.1889763779527559,
                    "duration": 0.375
                },
                {
                    "name": "A3",
                    "midi": 57,
                    "time": 91.875,
                    "velocity": 0.14960629921259844,
                    "duration": 0.375
                },
                {
                    "name": "C4",
                    "midi": 60,
                    "time": 91.875,
                    "velocity": 0.14960629921259844,
                    "duration": 0.375
                },
                {
                    "name": "G#3",
                    "midi": 56,
                    "time": 92.25,
                    "velocity": 0.15748031496062992,
                    "duration": 0.1875
                },
                {
                    "name": "A3",
                    "midi": 57,
                    "time": 93,
                    "velocity": 0.1889763779527559,
                    "duration": 0.375
                },
                {
                    "name": "C3",
                    "midi": 48,
                    "time": 93,
                    "velocity": 0.14960629921259844,
                    "duration": 0.375
                },
                {
                    "name": "E3",
                    "midi": 52,
                    "time": 93,
                    "velocity": 0.14960629921259844,
                    "duration": 0.375
                },
                {
                    "name": "B3",
                    "midi": 59,
                    "time": 93.375,
                    "velocity": 0.15748031496062992,
                    "duration": 0.1875
                },
                {
                    "name": "A4",
                    "midi": 69,
                    "time": 94.125,
                    "velocity": 0.1889763779527559,
                    "duration": 0.375
                },
                {
                    "name": "A3",
                    "midi": 57,
                    "time": 94.125,
                    "velocity": 0.14960629921259844,
                    "duration": 0.375
                },
                {
                    "name": "C4",
                    "midi": 60,
                    "time": 94.125,
                    "velocity": 0.14960629921259844,
                    "duration": 0.375
                },
                {
                    "name": "G#3",
                    "midi": 56,
                    "time": 94.5,
                    "velocity": 0.15748031496062992,
                    "duration": 0.1875
                },
                {
                    "name": "A3",
                    "midi": 57,
                    "time": 95.25,
                    "velocity": 0.1889763779527559,
                    "duration": 0.375
                },
                {
                    "name": "C3",
                    "midi": 48,
                    "time": 95.25,
                    "velocity": 0.14960629921259844,
                    "duration": 0.375
                },
                {
                    "name": "F#3",
                    "midi": 54,
                    "time": 95.25,
                    "velocity": 0.14960629921259844,
                    "duration": 0.375
                },
                {
                    "name": "D#4",
                    "midi": 63,
                    "time": 95.625,
                    "velocity": 0.15748031496062992,
                    "duration": 0.1875
                },
                {
                    "name": "G4",
                    "midi": 67,
                    "time": 96.375,
                    "velocity": 0.2125984251968504,
                    "duration": 0.375
                },
                {
                    "name": "G3",
                    "midi": 55,
                    "time": 96.375,
                    "velocity": 0.15748031496062992,
                    "duration": 0.375
                },
                {
                    "name": "B3",
                    "midi": 59,
                    "time": 96.375,
                    "velocity": 0.15748031496062992,
                    "duration": 0.375
                },
                {
                    "name": "F#3",
                    "midi": 54,
                    "time": 96.75,
                    "velocity": 0.16535433070866143,
                    "duration": 0.1875
                },
                {
                    "name": "G3",
                    "midi": 55,
                    "time": 97.5,
                    "velocity": 0.1968503937007874,
                    "duration": 0.375
                },
                {
                    "name": "B2",
                    "midi": 47,
                    "time": 97.5,
                    "velocity": 0.15748031496062992,
                    "duration": 0.375
                },
                {
                    "name": "D3",
                    "midi": 50,
                    "time": 97.5,
                    "velocity": 0.15748031496062992,
                    "duration": 0.375
                },
                {
                    "name": "A3",
                    "midi": 57,
                    "time": 97.875,
                    "velocity": 0.16535433070866143,
                    "duration": 0.1875
                },
                {
                    "name": "G4",
                    "midi": 67,
                    "time": 98.625,
                    "velocity": 0.1889763779527559,
                    "duration": 0.375
                },
                {
                    "name": "G3",
                    "midi": 55,
                    "time": 98.625,
                    "velocity": 0.14960629921259844,
                    "duration": 0.375
                },
                {
                    "name": "B3",
                    "midi": 59,
                    "time": 98.625,
                    "velocity": 0.14960629921259844,
                    "duration": 0.375
                },
                {
                    "name": "F#3",
                    "midi": 54,
                    "time": 99,
                    "velocity": 0.15748031496062992,
                    "duration": 0.1875
                },
                {
                    "name": "G3",
                    "midi": 55,
                    "time": 99.75,
                    "velocity": 0.2047244094488189,
                    "duration": 0.375
                },
                {
                    "name": "A#2",
                    "midi": 46,
                    "time": 99.75,
                    "velocity": 0.15748031496062992,
                    "duration": 0.375
                },
                {
                    "name": "E3",
                    "midi": 52,
                    "time": 99.75,
                    "velocity": 0.15748031496062992,
                    "duration": 0.375
                },
                {
                    "name": "C#4",
                    "midi": 61,
                    "time": 100.125,
                    "velocity": 0.1732283464566929,
                    "duration": 0.1875
                },
                {
                    "name": "F4",
                    "midi": 65,
                    "time": 100.875,
                    "velocity": 0.33858267716535434,
                    "duration": 0.375
                },
                {
                    "name": "F3",
                    "midi": 53,
                    "time": 100.875,
                    "velocity": 0.25984251968503935,
                    "duration": 0.375
                },
                {
                    "name": "A3",
                    "midi": 57,
                    "time": 100.875,
                    "velocity": 0.25984251968503935,
                    "duration": 0.375
                },
                {
                    "name": "E3",
                    "midi": 52,
                    "time": 101.25,
                    "velocity": 0.29133858267716534,
                    "duration": 0.28125
                },
                {
                    "name": "C4",
                    "midi": 60,
                    "time": 102,
                    "velocity": 0.4251968503937008,
                    "duration": 0.375
                },
                {
                    "name": "F3",
                    "midi": 53,
                    "time": 102,
                    "velocity": 0.33070866141732286,
                    "duration": 0.375
                },
                {
                    "name": "A3",
                    "midi": 57,
                    "time": 102,
                    "velocity": 0.33070866141732286,
                    "duration": 0.375
                },
                {
                    "name": "E3",
                    "midi": 52,
                    "time": 102.375,
                    "velocity": 0.3464566929133858,
                    "duration": 0.28125
                },
                {
                    "name": "F3",
                    "midi": 53,
                    "time": 103.125,
                    "velocity": 0.4566929133858268,
                    "duration": 0.375
                },
                {
                    "name": "A2",
                    "midi": 45,
                    "time": 103.125,
                    "velocity": 0.36220472440944884,
                    "duration": 0.375
                },
                {
                    "name": "C3",
                    "midi": 48,
                    "time": 103.125,
                    "velocity": 0.36220472440944884,
                    "duration": 0.375
                },
                {
                    "name": "G#3",
                    "midi": 56,
                    "time": 103.5,
                    "velocity": 0.4094488188976378,
                    "duration": 0.28125
                },
                {
                    "name": "A3",
                    "midi": 57,
                    "time": 104.25,
                    "velocity": 0.4881889763779528,
                    "duration": 0.375
                },
                {
                    "name": "C3",
                    "midi": 48,
                    "time": 104.25,
                    "velocity": 0.3858267716535433,
                    "duration": 0.375
                },
                {
                    "name": "F3",
                    "midi": 53,
                    "time": 104.25,
                    "velocity": 0.3858267716535433,
                    "duration": 0.375
                },
                {
                    "name": "B3",
                    "midi": 59,
                    "time": 104.625,
                    "velocity": 0.4409448818897638,
                    "duration": 0.28125
                },
                {
                    "name": "F3",
                    "midi": 53,
                    "time": 105.375,
                    "velocity": 0.3779527559055118,
                    "duration": 1.5
                },
                {
                    "name": "A3",
                    "midi": 57,
                    "time": 105.375,
                    "velocity": 0.3700787401574803,
                    "duration": 2.25
                },
                {
                    "name": "C4",
                    "midi": 60,
                    "time": 105.375,
                    "velocity": 0.4094488188976378,
                    "duration": 2.25
                },
                {
                    "name": "F#3",
                    "midi": 54,
                    "time": 106.875,
                    "velocity": 0.3779527559055118,
                    "duration": 3
                },
                {
                    "name": "A3",
                    "midi": 57,
                    "time": 107.625,
                    "velocity": 0.33070866141732286,
                    "duration": 0.375
                },
                {
                    "name": "B3",
                    "midi": 59,
                    "time": 108,
                    "velocity": 0.33070866141732286,
                    "duration": 1.125
                },
                {
                    "name": "C#4",
                    "midi": 61,
                    "time": 109.125,
                    "velocity": 0.29133858267716534,
                    "duration": 0.75
                },
                {
                    "name": "B1",
                    "midi": 35,
                    "time": 109.875,
                    "velocity": 0.31496062992125984,
                    "duration": 0.375
                },
                {
                    "name": "F#2",
                    "midi": 42,
                    "time": 110.25,
                    "velocity": 0.3464566929133858,
                    "duration": 0.75
                },
                {
                    "name": "B2",
                    "midi": 47,
                    "time": 111,
                    "velocity": 0.30708661417322836,
                    "duration": 0.375
                },
                {
                    "name": "D#3",
                    "midi": 51,
                    "time": 111.375,
                    "velocity": 0.33858267716535434,
                    "duration": 0.75
                },
                {
                    "name": "B1",
                    "midi": 35,
                    "time": 112.125,
                    "velocity": 0.31496062992125984,
                    "duration": 0.375
                },
                {
                    "name": "G#2",
                    "midi": 44,
                    "time": 112.5,
                    "velocity": 0.3700787401574803,
                    "duration": 0.75
                },
                {
                    "name": "B2",
                    "midi": 47,
                    "time": 113.25,
                    "velocity": 0.30708661417322836,
                    "duration": 0.375
                },
                {
                    "name": "E3",
                    "midi": 52,
                    "time": 113.625,
                    "velocity": 0.33858267716535434,
                    "duration": 0.75
                },
                {
                    "name": "B1",
                    "midi": 35,
                    "time": 114.375,
                    "velocity": 0.31496062992125984,
                    "duration": 0.375
                },
                {
                    "name": "F2",
                    "midi": 41,
                    "time": 114.75,
                    "velocity": 0.3700787401574803,
                    "duration": 0.75
                },
                {
                    "name": "G#2",
                    "midi": 44,
                    "time": 115.5,
                    "velocity": 0.30708661417322836,
                    "duration": 0.375
                },
                {
                    "name": "B2",
                    "midi": 47,
                    "time": 115.875,
                    "velocity": 0.33858267716535434,
                    "duration": 0.75
                },
                {
                    "name": "B1",
                    "midi": 35,
                    "time": 116.625,
                    "velocity": 0.31496062992125984,
                    "duration": 0.375
                },
                {
                    "name": "E2",
                    "midi": 40,
                    "time": 117,
                    "velocity": 0.3700787401574803,
                    "duration": 0.75
                },
                {
                    "name": "G2",
                    "midi": 43,
                    "time": 117.75,
                    "velocity": 0.25984251968503935,
                    "duration": 0.375
                },
                {
                    "name": "C#3",
                    "midi": 49,
                    "time": 118.125,
                    "velocity": 0.2125984251968504,
                    "duration": 1.125
                },
                {
                    "name": "E3",
                    "midi": 52,
                    "time": 118.125,
                    "velocity": 0.25984251968503935,
                    "duration": 1.125
                },
                {
                    "name": "B2",
                    "midi": 47,
                    "time": 118.125,
                    "velocity": 0.2125984251968504,
                    "duration": 1.125
                },
                {
                    "name": "B2",
                    "midi": 47,
                    "time": 119.25,
                    "velocity": 0.33070866141732286,
                    "duration": 0.375
                },
                {
                    "name": "D#3",
                    "midi": 51,
                    "time": 119.625,
                    "velocity": 0.28346456692913385,
                    "duration": 0.375
                },
                {
                    "name": "D#4",
                    "midi": 63,
                    "time": 120,
                    "velocity": 0.28346456692913385,
                    "duration": 0.375
                },
                {
                    "name": "B1",
                    "midi": 35,
                    "time": 121.125,
                    "velocity": 0.2677165354330709,
                    "duration": 0.1875
                },
                {
                    "name": "B2",
                    "midi": 47,
                    "time": 121.5,
                    "velocity": 0.33858267716535434,
                    "duration": 0.375
                },
                {
                    "name": "E3",
                    "midi": 52,
                    "time": 121.875,
                    "velocity": 0.28346456692913385,
                    "duration": 0.375
                },
                {
                    "name": "E4",
                    "midi": 64,
                    "time": 122.25,
                    "velocity": 0.28346456692913385,
                    "duration": 0.375
                },
                {
                    "name": "B1",
                    "midi": 35,
                    "time": 123.375,
                    "velocity": 0.31496062992125984,
                    "duration": 0.1875
                },
                {
                    "name": "B2",
                    "midi": 47,
                    "time": 123.75,
                    "velocity": 0.4015748031496063,
                    "duration": 0.375
                },
                {
                    "name": "F3",
                    "midi": 53,
                    "time": 124.125,
                    "velocity": 0.33858267716535434,
                    "duration": 0.375
                },
                {
                    "name": "F4",
                    "midi": 65,
                    "time": 124.5,
                    "velocity": 0.33858267716535434,
                    "duration": 0.375
                },
                {
                    "name": "B1",
                    "midi": 35,
                    "time": 125.625,
                    "velocity": 0.3937007874015748,
                    "duration": 0.1875
                },
                {
                    "name": "B2",
                    "midi": 47,
                    "time": 126,
                    "velocity": 0.4881889763779528,
                    "duration": 0.375
                },
                {
                    "name": "E3",
                    "midi": 52,
                    "time": 126.375,
                    "velocity": 0.4094488188976378,
                    "duration": 0.375
                },
                {
                    "name": "E4",
                    "midi": 64,
                    "time": 126.75,
                    "velocity": 0.4094488188976378,
                    "duration": 0.375
                },
                {
                    "name": "B1",
                    "midi": 35,
                    "time": 127.875,
                    "velocity": 0.36220472440944884,
                    "duration": 0.1875
                },
                {
                    "name": "B2",
                    "midi": 47,
                    "time": 128.25,
                    "velocity": 0.5196850393700787,
                    "duration": 0.375
                },
                {
                    "name": "F#3",
                    "midi": 54,
                    "time": 128.625,
                    "velocity": 0.44881889763779526,
                    "duration": 0.375
                },
                {
                    "name": "F#4",
                    "midi": 66,
                    "time": 129,
                    "velocity": 0.44881889763779526,
                    "duration": 0.375
                },
                {
                    "name": "B1",
                    "midi": 35,
                    "time": 129.375,
                    "velocity": 0.36220472440944884,
                    "duration": 1.125
                },
                {
                    "name": "B2",
                    "midi": 47,
                    "time": 130.5,
                    "velocity": 0.5196850393700787,
                    "duration": 0.375
                },
                {
                    "name": "F#3",
                    "midi": 54,
                    "time": 130.875,
                    "velocity": 0.44881889763779526,
                    "duration": 0.375
                },
                {
                    "name": "E4",
                    "midi": 64,
                    "time": 131.25,
                    "velocity": 0.44881889763779526,
                    "duration": 0.375
                },
                {
                    "name": "B1",
                    "midi": 35,
                    "time": 131.625,
                    "velocity": 0.36220472440944884,
                    "duration": 1.125
                },
                {
                    "name": "C3",
                    "midi": 48,
                    "time": 132.75,
                    "velocity": 0.5196850393700787,
                    "duration": 0.75
                },
                {
                    "name": "A3",
                    "midi": 57,
                    "time": 133.125,
                    "velocity": 0.44881889763779526,
                    "duration": 0.375
                },
                {
                    "name": "E4",
                    "midi": 64,
                    "time": 133.5,
                    "velocity": 0.44881889763779526,
                    "duration": 0.375
                },
                {
                    "name": "B2",
                    "midi": 47,
                    "time": 133.875,
                    "velocity": 0.36220472440944884,
                    "duration": 0.75
                },
                {
                    "name": "A2",
                    "midi": 45,
                    "time": 135,
                    "velocity": 0.5196850393700787,
                    "duration": 0.75
                },
                {
                    "name": "F#3",
                    "midi": 54,
                    "time": 135.375,
                    "velocity": 0.44881889763779526,
                    "duration": 0.375
                },
                {
                    "name": "E4",
                    "midi": 64,
                    "time": 135.75,
                    "velocity": 0.44881889763779526,
                    "duration": 0.375
                },
                {
                    "name": "B2",
                    "midi": 47,
                    "time": 136.125,
                    "velocity": 0.36220472440944884,
                    "duration": 0.75
                },
                {
                    "name": "C3",
                    "midi": 48,
                    "time": 137.25,
                    "velocity": 0.5196850393700787,
                    "duration": 0.75
                },
                {
                    "name": "A3",
                    "midi": 57,
                    "time": 137.625,
                    "velocity": 0.44881889763779526,
                    "duration": 0.375
                },
                {
                    "name": "E4",
                    "midi": 64,
                    "time": 138,
                    "velocity": 0.44881889763779526,
                    "duration": 0.375
                },
                {
                    "name": "B2",
                    "midi": 47,
                    "time": 138.375,
                    "velocity": 0.36220472440944884,
                    "duration": 0.75
                },
                {
                    "name": "A2",
                    "midi": 45,
                    "time": 139.5,
                    "velocity": 0.5196850393700787,
                    "duration": 0.75
                },
                {
                    "name": "F#3",
                    "midi": 54,
                    "time": 139.875,
                    "velocity": 0.44881889763779526,
                    "duration": 0.375
                },
                {
                    "name": "E4",
                    "midi": 64,
                    "time": 140.25,
                    "velocity": 0.44881889763779526,
                    "duration": 0.1875
                },
                {
                    "name": "F#2",
                    "midi": 42,
                    "time": 140.625,
                    "velocity": 0.5196850393700787,
                    "duration": 0.75
                },
                {
                    "name": "A3",
                    "midi": 57,
                    "time": 141,
                    "velocity": 0.44881889763779526,
                    "duration": 0.375
                },
                {
                    "name": "E4",
                    "midi": 64,
                    "time": 141.375,
                    "velocity": 0.44881889763779526,
                    "duration": 0.1875
                },
                {
                    "name": "B2",
                    "midi": 47,
                    "time": 141.75,
                    "velocity": 0.3779527559055118,
                    "duration": 0.375
                },
                {
                    "name": "A3",
                    "midi": 57,
                    "time": 142.125,
                    "velocity": 0.30708661417322836,
                    "duration": 0.375
                },
                {
                    "name": "B3",
                    "midi": 59,
                    "time": 143.25,
                    "velocity": 0.2125984251968504,
                    "duration": 0.375
                },
                {
                    "name": "A3",
                    "midi": 57,
                    "time": 144.375,
                    "velocity": 0.2125984251968504,
                    "duration": 0.375
                },
                {
                    "name": "B2",
                    "midi": 47,
                    "time": 144.375,
                    "velocity": 0.18110236220472442,
                    "duration": 0.375
                },
                {
                    "name": "B3",
                    "midi": 59,
                    "time": 145.5,
                    "velocity": 0.2047244094488189,
                    "duration": 0.375
                },
                {
                    "name": "B2",
                    "midi": 47,
                    "time": 146.625,
                    "velocity": 0.11811023622047244,
                    "duration": 0.375
                },
                {
                    "name": "A3",
                    "midi": 57,
                    "time": 146.625,
                    "velocity": 0.16535433070866143,
                    "duration": 0.375
                },
                {
                    "name": "B3",
                    "midi": 59,
                    "time": 147.75,
                    "velocity": 0.16535433070866143,
                    "duration": 0.375
                },
                {
                    "name": "A3",
                    "midi": 57,
                    "time": 148.875,
                    "velocity": 0.13385826771653545,
                    "duration": 0.375
                },
                {
                    "name": "B2",
                    "midi": 47,
                    "time": 148.875,
                    "velocity": 0.10236220472440945,
                    "duration": 0.375
                },
                {
                    "name": "B3",
                    "midi": 59,
                    "time": 150,
                    "velocity": 0.13385826771653545,
                    "duration": 0.359375
                },
                {
                    "name": "A3",
                    "midi": 57,
                    "time": 150.375,
                    "velocity": 0.14960629921259844,
                    "duration": 0.375
                },
                {
                    "name": "C4",
                    "midi": 60,
                    "time": 150.375,
                    "velocity": 0.14960629921259844,
                    "duration": 0.375
                },
                {
                    "name": "A4",
                    "midi": 69,
                    "time": 150.375,
                    "velocity": 0.1889763779527559,
                    "duration": 0.375
                },
                {
                    "name": "G#3",
                    "midi": 56,
                    "time": 150.75,
                    "velocity": 0.15748031496062992,
                    "duration": 0.1875
                },
                {
                    "name": "A3",
                    "midi": 57,
                    "time": 151.5,
                    "velocity": 0.1889763779527559,
                    "duration": 0.375
                },
                {
                    "name": "C3",
                    "midi": 48,
                    "time": 151.5,
                    "velocity": 0.14960629921259844,
                    "duration": 0.375
                },
                {
                    "name": "E3",
                    "midi": 52,
                    "time": 151.5,
                    "velocity": 0.14960629921259844,
                    "duration": 0.375
                },
                {
                    "name": "B3",
                    "midi": 59,
                    "time": 151.875,
                    "velocity": 0.15748031496062992,
                    "duration": 0.1875
                },
                {
                    "name": "A4",
                    "midi": 69,
                    "time": 152.625,
                    "velocity": 0.1889763779527559,
                    "duration": 0.375
                },
                {
                    "name": "C4",
                    "midi": 60,
                    "time": 152.625,
                    "velocity": 0.14960629921259844,
                    "duration": 0.375
                },
                {
                    "name": "A3",
                    "midi": 57,
                    "time": 152.625,
                    "velocity": 0.14960629921259844,
                    "duration": 0.375
                },
                {
                    "name": "G#3",
                    "midi": 56,
                    "time": 153,
                    "velocity": 0.15748031496062992,
                    "duration": 0.1875
                },
                {
                    "name": "A3",
                    "midi": 57,
                    "time": 153.75,
                    "velocity": 0.1889763779527559,
                    "duration": 0.375
                },
                {
                    "name": "F#3",
                    "midi": 54,
                    "time": 153.75,
                    "velocity": 0.14960629921259844,
                    "duration": 0.375
                },
                {
                    "name": "C3",
                    "midi": 48,
                    "time": 153.75,
                    "velocity": 0.14960629921259844,
                    "duration": 0.375
                },
                {
                    "name": "D#4",
                    "midi": 63,
                    "time": 154.125,
                    "velocity": 0.15748031496062992,
                    "duration": 0.1875
                },
                {
                    "name": "G3",
                    "midi": 55,
                    "time": 154.875,
                    "velocity": 0.15748031496062992,
                    "duration": 0.375
                },
                {
                    "name": "B3",
                    "midi": 59,
                    "time": 154.875,
                    "velocity": 0.15748031496062992,
                    "duration": 0.375
                },
                {
                    "name": "G4",
                    "midi": 67,
                    "time": 154.875,
                    "velocity": 0.2125984251968504,
                    "duration": 0.375
                },
                {
                    "name": "F#3",
                    "midi": 54,
                    "time": 155.25,
                    "velocity": 0.16535433070866143,
                    "duration": 0.1875
                },
                {
                    "name": "G3",
                    "midi": 55,
                    "time": 156,
                    "velocity": 0.1968503937007874,
                    "duration": 0.375
                },
                {
                    "name": "B2",
                    "midi": 47,
                    "time": 156,
                    "velocity": 0.15748031496062992,
                    "duration": 0.375
                },
                {
                    "name": "D3",
                    "midi": 50,
                    "time": 156,
                    "velocity": 0.15748031496062992,
                    "duration": 0.375
                },
                {
                    "name": "A3",
                    "midi": 57,
                    "time": 156.375,
                    "velocity": 0.16535433070866143,
                    "duration": 0.1875
                },
                {
                    "name": "G4",
                    "midi": 67,
                    "time": 157.125,
                    "velocity": 0.1889763779527559,
                    "duration": 0.375
                },
                {
                    "name": "G3",
                    "midi": 55,
                    "time": 157.125,
                    "velocity": 0.14960629921259844,
                    "duration": 0.375
                },
                {
                    "name": "B3",
                    "midi": 59,
                    "time": 157.125,
                    "velocity": 0.14960629921259844,
                    "duration": 0.375
                },
                {
                    "name": "F#3",
                    "midi": 54,
                    "time": 157.5,
                    "velocity": 0.15748031496062992,
                    "duration": 0.1875
                },
                {
                    "name": "G3",
                    "midi": 55,
                    "time": 158.25,
                    "velocity": 0.2047244094488189,
                    "duration": 0.375
                },
                {
                    "name": "E3",
                    "midi": 52,
                    "time": 158.25,
                    "velocity": 0.15748031496062992,
                    "duration": 0.375
                },
                {
                    "name": "A#2",
                    "midi": 46,
                    "time": 158.25,
                    "velocity": 0.15748031496062992,
                    "duration": 0.375
                },
                {
                    "name": "C#4",
                    "midi": 61,
                    "time": 158.625,
                    "velocity": 0.1732283464566929,
                    "duration": 0.1875
                },
                {
                    "name": "F4",
                    "midi": 65,
                    "time": 159.375,
                    "velocity": 0.33858267716535434,
                    "duration": 0.375
                },
                {
                    "name": "F3",
                    "midi": 53,
                    "time": 159.375,
                    "velocity": 0.25984251968503935,
                    "duration": 0.375
                },
                {
                    "name": "A3",
                    "midi": 57,
                    "time": 159.375,
                    "velocity": 0.25984251968503935,
                    "duration": 0.375
                },
                {
                    "name": "E3",
                    "midi": 52,
                    "time": 159.75,
                    "velocity": 0.29133858267716534,
                    "duration": 0.28125
                },
                {
                    "name": "F3",
                    "midi": 53,
                    "time": 160.5,
                    "velocity": 0.33070866141732286,
                    "duration": 0.375
                },
                {
                    "name": "A3",
                    "midi": 57,
                    "time": 160.5,
                    "velocity": 0.33070866141732286,
                    "duration": 0.375
                },
                {
                    "name": "C4",
                    "midi": 60,
                    "time": 160.5,
                    "velocity": 0.4251968503937008,
                    "duration": 0.375
                },
                {
                    "name": "E3",
                    "midi": 52,
                    "time": 160.875,
                    "velocity": 0.3464566929133858,
                    "duration": 0.28125
                },
                {
                    "name": "F3",
                    "midi": 53,
                    "time": 161.625,
                    "velocity": 0.4566929133858268,
                    "duration": 0.375
                },
                {
                    "name": "A2",
                    "midi": 45,
                    "time": 161.625,
                    "velocity": 0.36220472440944884,
                    "duration": 0.375
                },
                {
                    "name": "C3",
                    "midi": 48,
                    "time": 161.625,
                    "velocity": 0.36220472440944884,
                    "duration": 0.375
                },
                {
                    "name": "G#3",
                    "midi": 56,
                    "time": 162,
                    "velocity": 0.4094488188976378,
                    "duration": 0.28125
                },
                {
                    "name": "A3",
                    "midi": 57,
                    "time": 162.75,
                    "velocity": 0.4881889763779528,
                    "duration": 0.375
                },
                {
                    "name": "C3",
                    "midi": 48,
                    "time": 162.75,
                    "velocity": 0.3858267716535433,
                    "duration": 0.375
                },
                {
                    "name": "F3",
                    "midi": 53,
                    "time": 162.75,
                    "velocity": 0.3858267716535433,
                    "duration": 0.375
                },
                {
                    "name": "B3",
                    "midi": 59,
                    "time": 163.125,
                    "velocity": 0.4409448818897638,
                    "duration": 0.28125
                },
                {
                    "name": "A3",
                    "midi": 57,
                    "time": 163.875,
                    "velocity": 0.3700787401574803,
                    "duration": 3.75
                },
                {
                    "name": "C4",
                    "midi": 60,
                    "time": 163.875,
                    "velocity": 0.4094488188976378,
                    "duration": 3.75
                },
                {
                    "name": "F3",
                    "midi": 53,
                    "time": 163.875,
                    "velocity": 0.3779527559055118,
                    "duration": 3.75
                },
                {
                    "name": "F#2",
                    "midi": 42,
                    "time": 167.625,
                    "velocity": 0.23622047244094488,
                    "duration": 2.25
                },
                {
                    "name": "F#3",
                    "midi": 54,
                    "time": 167.625,
                    "velocity": 0.2755905511811024,
                    "duration": 2.25
                },
                {
                    "name": "B2",
                    "midi": 47,
                    "time": 167.625,
                    "velocity": 0.23622047244094488,
                    "duration": 2.25
                },
                {
                    "name": "B1",
                    "midi": 35,
                    "time": 169.875,
                    "velocity": 0.23622047244094488,
                    "duration": 2.25
                },
                {
                    "name": "B2",
                    "midi": 47,
                    "time": 169.875,
                    "velocity": 0.2992125984251969,
                    "duration": 2.25
                },
                {
                    "name": "E1",
                    "midi": 28,
                    "time": 172.125,
                    "velocity": 0.23622047244094488,
                    "duration": 2.25
                },
                {
                    "name": "E2",
                    "midi": 40,
                    "time": 172.125,
                    "velocity": 0.2755905511811024,
                    "duration": 2.25
                }
            ],
            "controlChanges": {
                "7": [
                    {
                        "number": 7,
                        "time": 0,
                        "value": 0.7874015748031497
                    }
                ],
                "10": [
                    {
                        "number": 10,
                        "time": 0,
                        "value": 0.5039370078740157
                    }
                ]
            },
            "id": 2,
            "name": "Piano left",
            "instrumentNumber": 0,
            "instrument": "acoustic grand piano",
            "instrumentFamily": "piano",
            "channelNumber": 0,
            "isPercussion": false
        },
        {
            "startTime": 0,
            "duration": 0,
            "length": 0,
            "notes": [],
            "controlChanges": {
                "64": [
                    {
                        "number": 64,
                        "time": 1.7296874999999998,
                        "value": 1
                    },
                    {
                        "number": 64,
                        "time": 2.3296875,
                        "value": 0
                    },
                    {
                        "number": 64,
                        "time": 3.071875,
                        "value": 1
                    },
                    {
                        "number": 64,
                        "time": 3.46875,
                        "value": 0
                    },
                    {
                        "number": 64,
                        "time": 4.1515625,
                        "value": 1
                    },
                    {
                        "number": 64,
                        "time": 4.59375,
                        "value": 0
                    },
                    {
                        "number": 64,
                        "time": 5.33125,
                        "value": 1
                    },
                    {
                        "number": 64,
                        "time": 5.71875,
                        "value": 0
                    },
                    {
                        "number": 64,
                        "time": 6.45625,
                        "value": 1
                    },
                    {
                        "number": 64,
                        "time": 6.84375,
                        "value": 0
                    },
                    {
                        "number": 64,
                        "time": 7.51875,
                        "value": 1
                    },
                    {
                        "number": 64,
                        "time": 7.96875,
                        "value": 0
                    },
                    {
                        "number": 64,
                        "time": 8.7140625,
                        "value": 1
                    },
                    {
                        "number": 64,
                        "time": 9.09375,
                        "value": 0
                    },
                    {
                        "number": 64,
                        "time": 9.8390625,
                        "value": 1
                    },
                    {
                        "number": 64,
                        "time": 10.21875,
                        "value": 0
                    },
                    {
                        "number": 64,
                        "time": 10.9828125,
                        "value": 1
                    },
                    {
                        "number": 64,
                        "time": 11.3046875,
                        "value": 0
                    },
                    {
                        "number": 64,
                        "time": 12.0625,
                        "value": 1
                    },
                    {
                        "number": 64,
                        "time": 12.4734375,
                        "value": 0
                    },
                    {
                        "number": 64,
                        "time": 13.2328125,
                        "value": 1
                    },
                    {
                        "number": 64,
                        "time": 13.6171875,
                        "value": 0
                    },
                    {
                        "number": 64,
                        "time": 14.3390625,
                        "value": 1
                    },
                    {
                        "number": 64,
                        "time": 14.785937500000001,
                        "value": 0
                    },
                    {
                        "number": 64,
                        "time": 15.473437500000001,
                        "value": 1
                    },
                    {
                        "number": 64,
                        "time": 15.915625,
                        "value": 0
                    },
                    {
                        "number": 64,
                        "time": 16.6765625,
                        "value": 1
                    },
                    {
                        "number": 64,
                        "time": 17.0078125,
                        "value": 0
                    },
                    {
                        "number": 64,
                        "time": 17.746875,
                        "value": 1
                    },
                    {
                        "number": 64,
                        "time": 18.14375,
                        "value": 0
                    },
                    {
                        "number": 64,
                        "time": 18.821875000000002,
                        "value": 1
                    },
                    {
                        "number": 64,
                        "time": 19.571875000000002,
                        "value": 0
                    },
                    {
                        "number": 64,
                        "time": 19.9203125,
                        "value": 1
                    },
                    {
                        "number": 64,
                        "time": 20.4203125,
                        "value": 0
                    },
                    {
                        "number": 64,
                        "time": 21.0890625,
                        "value": 1
                    },
                    {
                        "number": 64,
                        "time": 21.5453125,
                        "value": 0
                    },
                    {
                        "number": 64,
                        "time": 22.20625,
                        "value": 1
                    },
                    {
                        "number": 64,
                        "time": 22.609375,
                        "value": 0
                    },
                    {
                        "number": 64,
                        "time": 23.29375,
                        "value": 1
                    },
                    {
                        "number": 64,
                        "time": 24.41875,
                        "value": 0
                    },
                    {
                        "number": 64,
                        "time": 24.7609375,
                        "value": 1
                    },
                    {
                        "number": 64,
                        "time": 25.90625,
                        "value": 0
                    },
                    {
                        "number": 64,
                        "time": 26.14375,
                        "value": 1
                    },
                    {
                        "number": 64,
                        "time": 27.009375000000002,
                        "value": 0
                    },
                    {
                        "number": 64,
                        "time": 27.2921875,
                        "value": 1
                    },
                    {
                        "number": 64,
                        "time": 28.5609375,
                        "value": 0
                    },
                    {
                        "number": 64,
                        "time": 29,
                        "value": 1
                    },
                    {
                        "number": 64,
                        "time": 29.3296875,
                        "value": 0
                    },
                    {
                        "number": 64,
                        "time": 30.071875,
                        "value": 1
                    },
                    {
                        "number": 64,
                        "time": 30.46875,
                        "value": 0
                    },
                    {
                        "number": 64,
                        "time": 31.1515625,
                        "value": 1
                    },
                    {
                        "number": 64,
                        "time": 31.59375,
                        "value": 0
                    },
                    {
                        "number": 64,
                        "time": 32.33125,
                        "value": 1
                    },
                    {
                        "number": 64,
                        "time": 32.71875,
                        "value": 0
                    },
                    {
                        "number": 64,
                        "time": 33.45625,
                        "value": 1
                    },
                    {
                        "number": 64,
                        "time": 33.84375,
                        "value": 0
                    },
                    {
                        "number": 64,
                        "time": 34.51875,
                        "value": 1
                    },
                    {
                        "number": 64,
                        "time": 34.96875,
                        "value": 0
                    },
                    {
                        "number": 64,
                        "time": 35.7140625,
                        "value": 1
                    },
                    {
                        "number": 64,
                        "time": 36.09375,
                        "value": 0
                    },
                    {
                        "number": 64,
                        "time": 36.8390625,
                        "value": 1
                    },
                    {
                        "number": 64,
                        "time": 37.21875,
                        "value": 0
                    },
                    {
                        "number": 64,
                        "time": 37.9828125,
                        "value": 1
                    },
                    {
                        "number": 64,
                        "time": 38.3046875,
                        "value": 0
                    },
                    {
                        "number": 64,
                        "time": 39.0625,
                        "value": 1
                    },
                    {
                        "number": 64,
                        "time": 39.4734375,
                        "value": 0
                    },
                    {
                        "number": 64,
                        "time": 40.2328125,
                        "value": 1
                    },
                    {
                        "number": 64,
                        "time": 40.6171875,
                        "value": 0
                    },
                    {
                        "number": 64,
                        "time": 41.3390625,
                        "value": 1
                    },
                    {
                        "number": 64,
                        "time": 41.785937499999996,
                        "value": 0
                    },
                    {
                        "number": 64,
                        "time": 42.473437499999996,
                        "value": 1
                    },
                    {
                        "number": 64,
                        "time": 42.915625,
                        "value": 0
                    },
                    {
                        "number": 64,
                        "time": 43.676562499999996,
                        "value": 1
                    },
                    {
                        "number": 64,
                        "time": 44.00781249999999,
                        "value": 0
                    },
                    {
                        "number": 64,
                        "time": 44.746874999999996,
                        "value": 1
                    },
                    {
                        "number": 64,
                        "time": 45.14375,
                        "value": 0
                    },
                    {
                        "number": 64,
                        "time": 45.821875,
                        "value": 1
                    },
                    {
                        "number": 64,
                        "time": 46.571875,
                        "value": 0
                    },
                    {
                        "number": 64,
                        "time": 46.9203125,
                        "value": 1
                    },
                    {
                        "number": 64,
                        "time": 47.4203125,
                        "value": 0
                    },
                    {
                        "number": 64,
                        "time": 48.089062500000004,
                        "value": 1
                    },
                    {
                        "number": 64,
                        "time": 48.5453125,
                        "value": 0
                    },
                    {
                        "number": 64,
                        "time": 49.206250000000004,
                        "value": 1
                    },
                    {
                        "number": 64,
                        "time": 49.60937500000001,
                        "value": 0
                    },
                    {
                        "number": 64,
                        "time": 50.29375000000001,
                        "value": 1
                    },
                    {
                        "number": 64,
                        "time": 51.40781250000001,
                        "value": 0
                    },
                    {
                        "number": 64,
                        "time": 51.529687500000016,
                        "value": 1
                    },
                    {
                        "number": 64,
                        "time": 53.65000000000001,
                        "value": 0
                    },
                    {
                        "number": 64,
                        "time": 53.804687500000014,
                        "value": 1
                    },
                    {
                        "number": 64,
                        "time": 55.904687500000016,
                        "value": 0
                    },
                    {
                        "number": 64,
                        "time": 56.062500000000014,
                        "value": 1
                    },
                    {
                        "number": 64,
                        "time": 58.13750000000002,
                        "value": 0
                    },
                    {
                        "number": 64,
                        "time": 58.312500000000014,
                        "value": 1
                    },
                    {
                        "number": 64,
                        "time": 59.65000000000001,
                        "value": 0
                    },
                    {
                        "number": 64,
                        "time": 60.125000000000014,
                        "value": 1
                    },
                    {
                        "number": 64,
                        "time": 60.757812500000014,
                        "value": 0
                    },
                    {
                        "number": 64,
                        "time": 60.882812500000014,
                        "value": 1
                    },
                    {
                        "number": 64,
                        "time": 61.906250000000014,
                        "value": 0
                    },
                    {
                        "number": 64,
                        "time": 62.05156250000002,
                        "value": 1
                    },
                    {
                        "number": 64,
                        "time": 63.000000000000014,
                        "value": 0
                    },
                    {
                        "number": 64,
                        "time": 63.19843750000001,
                        "value": 1
                    },
                    {
                        "number": 64,
                        "time": 64.15625000000001,
                        "value": 0
                    },
                    {
                        "number": 64,
                        "time": 64.30156250000002,
                        "value": 1
                    },
                    {
                        "number": 64,
                        "time": 65.25000000000001,
                        "value": 0
                    },
                    {
                        "number": 64,
                        "time": 65.40468750000001,
                        "value": 1
                    },
                    {
                        "number": 64,
                        "time": 66.40625000000001,
                        "value": 0
                    },
                    {
                        "number": 64,
                        "time": 66.55156250000002,
                        "value": 1
                    },
                    {
                        "number": 64,
                        "time": 67.50312500000001,
                        "value": 0
                    },
                    {
                        "number": 64,
                        "time": 67.63281250000001,
                        "value": 1
                    },
                    {
                        "number": 64,
                        "time": 68.65625000000001,
                        "value": 0
                    },
                    {
                        "number": 64,
                        "time": 68.80156250000002,
                        "value": 1
                    },
                    {
                        "number": 64,
                        "time": 69.75000000000001,
                        "value": 0
                    },
                    {
                        "number": 64,
                        "time": 69.94687500000002,
                        "value": 1
                    },
                    {
                        "number": 64,
                        "time": 70.90625000000001,
                        "value": 0
                    },
                    {
                        "number": 64,
                        "time": 71.05156250000002,
                        "value": 1
                    },
                    {
                        "number": 64,
                        "time": 72.00625000000002,
                        "value": 0
                    },
                    {
                        "number": 64,
                        "time": 72.31250000000003,
                        "value": 1
                    },
                    {
                        "number": 64,
                        "time": 73.15625000000003,
                        "value": 0
                    },
                    {
                        "number": 64,
                        "time": 73.47968750000003,
                        "value": 1
                    },
                    {
                        "number": 64,
                        "time": 74.26250000000003,
                        "value": 0
                    },
                    {
                        "number": 64,
                        "time": 74.56250000000003,
                        "value": 1
                    },
                    {
                        "number": 64,
                        "time": 75.40625000000003,
                        "value": 0
                    },
                    {
                        "number": 64,
                        "time": 75.68750000000003,
                        "value": 1
                    },
                    {
                        "number": 64,
                        "time": 76.50937500000003,
                        "value": 0
                    },
                    {
                        "number": 64,
                        "time": 76.81250000000003,
                        "value": 1
                    },
                    {
                        "number": 64,
                        "time": 77.65625000000003,
                        "value": 0
                    },
                    {
                        "number": 64,
                        "time": 77.85468750000003,
                        "value": 1
                    },
                    {
                        "number": 64,
                        "time": 78.76093750000003,
                        "value": 0
                    },
                    {
                        "number": 64,
                        "time": 79.06250000000003,
                        "value": 1
                    },
                    {
                        "number": 64,
                        "time": 79.90625000000003,
                        "value": 0
                    },
                    {
                        "number": 64,
                        "time": 80.16718750000003,
                        "value": 1
                    },
                    {
                        "number": 64,
                        "time": 81.01406250000002,
                        "value": 0
                    },
                    {
                        "number": 64,
                        "time": 81.23125000000002,
                        "value": 1
                    },
                    {
                        "number": 64,
                        "time": 83.27343750000001,
                        "value": 0
                    },
                    {
                        "number": 64,
                        "time": 83.45781250000002,
                        "value": 1
                    },
                    {
                        "number": 64,
                        "time": 84.77500000000002,
                        "value": 0
                    },
                    {
                        "number": 64,
                        "time": 85.03437500000003,
                        "value": 1
                    },
                    {
                        "number": 64,
                        "time": 85.91406250000003,
                        "value": 0
                    },
                    {
                        "number": 64,
                        "time": 86.14687500000002,
                        "value": 1
                    },
                    {
                        "number": 64,
                        "time": 87.01875000000003,
                        "value": 0
                    },
                    {
                        "number": 64,
                        "time": 87.19375000000002,
                        "value": 1
                    },
                    {
                        "number": 64,
                        "time": 88.15156250000003,
                        "value": 0
                    },
                    {
                        "number": 64,
                        "time": 88.30625000000002,
                        "value": 1
                    },
                    {
                        "number": 64,
                        "time": 89.27187500000002,
                        "value": 0
                    },
                    {
                        "number": 64,
                        "time": 89.37968750000002,
                        "value": 1
                    },
                    {
                        "number": 64,
                        "time": 90.39531250000002,
                        "value": 0
                    },
                    {
                        "number": 64,
                        "time": 90.60781250000002,
                        "value": 1
                    },
                    {
                        "number": 64,
                        "time": 91.51406250000002,
                        "value": 0
                    },
                    {
                        "number": 64,
                        "time": 92.32968750000002,
                        "value": 0
                    },
                    {
                        "number": 64,
                        "time": 93.07187500000002,
                        "value": 1
                    },
                    {
                        "number": 64,
                        "time": 93.51875000000003,
                        "value": 0
                    },
                    {
                        "number": 64,
                        "time": 94.15156250000003,
                        "value": 1
                    },
                    {
                        "number": 64,
                        "time": 94.60781250000002,
                        "value": 0
                    },
                    {
                        "number": 64,
                        "time": 95.33125000000003,
                        "value": 1
                    },
                    {
                        "number": 64,
                        "time": 95.74218750000003,
                        "value": 0
                    },
                    {
                        "number": 64,
                        "time": 96.45625000000003,
                        "value": 1
                    },
                    {
                        "number": 64,
                        "time": 96.86718750000003,
                        "value": 0
                    },
                    {
                        "number": 64,
                        "time": 97.51875000000003,
                        "value": 1
                    },
                    {
                        "number": 64,
                        "time": 98.00937500000002,
                        "value": 0
                    },
                    {
                        "number": 64,
                        "time": 98.71406250000003,
                        "value": 1
                    },
                    {
                        "number": 64,
                        "time": 99.14375000000003,
                        "value": 0
                    },
                    {
                        "number": 64,
                        "time": 99.83906250000003,
                        "value": 1
                    },
                    {
                        "number": 64,
                        "time": 100.23281250000002,
                        "value": 0
                    },
                    {
                        "number": 64,
                        "time": 100.98281250000002,
                        "value": 1
                    },
                    {
                        "number": 64,
                        "time": 101.30468750000003,
                        "value": 0
                    },
                    {
                        "number": 64,
                        "time": 102.10781250000002,
                        "value": 1
                    },
                    {
                        "number": 64,
                        "time": 102.42968750000003,
                        "value": 0
                    },
                    {
                        "number": 64,
                        "time": 103.21406250000003,
                        "value": 1
                    },
                    {
                        "number": 64,
                        "time": 103.60781250000002,
                        "value": 0
                    },
                    {
                        "number": 64,
                        "time": 104.33906250000003,
                        "value": 1
                    },
                    {
                        "number": 64,
                        "time": 104.73281250000002,
                        "value": 0
                    },
                    {
                        "number": 64,
                        "time": 105.43125000000002,
                        "value": 1
                    },
                    {
                        "number": 64,
                        "time": 105.77500000000002,
                        "value": 0
                    },
                    {
                        "number": 64,
                        "time": 106.00000000000001,
                        "value": 1
                    },
                    {
                        "number": 64,
                        "time": 106.89062500000001,
                        "value": 0
                    },
                    {
                        "number": 64,
                        "time": 107.25000000000001,
                        "value": 1
                    },
                    {
                        "number": 64,
                        "time": 108.01406250000001,
                        "value": 0
                    },
                    {
                        "number": 64,
                        "time": 108.20937500000001,
                        "value": 1
                    },
                    {
                        "number": 64,
                        "time": 109.14843750000001,
                        "value": 0
                    },
                    {
                        "number": 64,
                        "time": 109.39687500000001,
                        "value": 1
                    },
                    {
                        "number": 64,
                        "time": 109.89062500000001,
                        "value": 0
                    },
                    {
                        "number": 64,
                        "time": 110.05468750000001,
                        "value": 1
                    },
                    {
                        "number": 64,
                        "time": 112.15000000000002,
                        "value": 0
                    },
                    {
                        "number": 64,
                        "time": 112.30468750000001,
                        "value": 1
                    },
                    {
                        "number": 64,
                        "time": 114.40468750000001,
                        "value": 0
                    },
                    {
                        "number": 64,
                        "time": 114.56250000000001,
                        "value": 1
                    },
                    {
                        "number": 64,
                        "time": 116.63750000000002,
                        "value": 0
                    },
                    {
                        "number": 64,
                        "time": 116.80000000000001,
                        "value": 1
                    },
                    {
                        "number": 64,
                        "time": 118.15468750000001,
                        "value": 0
                    },
                    {
                        "number": 64,
                        "time": 118.571875,
                        "value": 1
                    },
                    {
                        "number": 64,
                        "time": 119.25,
                        "value": 0
                    },
                    {
                        "number": 64,
                        "time": 119.3828125,
                        "value": 1
                    },
                    {
                        "number": 64,
                        "time": 120.40625,
                        "value": 0
                    },
                    {
                        "number": 64,
                        "time": 120.5515625,
                        "value": 1
                    },
                    {
                        "number": 64,
                        "time": 121.515625,
                        "value": 0
                    },
                    {
                        "number": 64,
                        "time": 121.6984375,
                        "value": 1
                    },
                    {
                        "number": 64,
                        "time": 122.65625,
                        "value": 0
                    },
                    {
                        "number": 64,
                        "time": 122.8015625,
                        "value": 1
                    },
                    {
                        "number": 64,
                        "time": 123.759375,
                        "value": 0
                    },
                    {
                        "number": 64,
                        "time": 123.89375000000001,
                        "value": 1
                    },
                    {
                        "number": 64,
                        "time": 124.90625000000001,
                        "value": 0
                    },
                    {
                        "number": 64,
                        "time": 125.05156250000002,
                        "value": 1
                    },
                    {
                        "number": 64,
                        "time": 126.01093750000001,
                        "value": 0
                    },
                    {
                        "number": 64,
                        "time": 126.20937500000001,
                        "value": 1
                    },
                    {
                        "number": 64,
                        "time": 127.15625000000001,
                        "value": 0
                    },
                    {
                        "number": 64,
                        "time": 127.30156250000002,
                        "value": 1
                    },
                    {
                        "number": 64,
                        "time": 128.26250000000002,
                        "value": 0
                    },
                    {
                        "number": 64,
                        "time": 128.4640625,
                        "value": 1
                    },
                    {
                        "number": 64,
                        "time": 129.4015625,
                        "value": 0
                    },
                    {
                        "number": 64,
                        "time": 129.60781250000002,
                        "value": 1
                    },
                    {
                        "number": 64,
                        "time": 130.50468750000002,
                        "value": 0
                    },
                    {
                        "number": 64,
                        "time": 130.6671875,
                        "value": 1
                    },
                    {
                        "number": 64,
                        "time": 131.65625,
                        "value": 0
                    },
                    {
                        "number": 64,
                        "time": 131.9171875,
                        "value": 1
                    },
                    {
                        "number": 64,
                        "time": 132.7609375,
                        "value": 0
                    },
                    {
                        "number": 64,
                        "time": 132.9375,
                        "value": 1
                    },
                    {
                        "number": 64,
                        "time": 133.90625,
                        "value": 0
                    },
                    {
                        "number": 64,
                        "time": 134.0515625,
                        "value": 1
                    },
                    {
                        "number": 64,
                        "time": 135.01093749999998,
                        "value": 0
                    },
                    {
                        "number": 64,
                        "time": 135.22968749999998,
                        "value": 1
                    },
                    {
                        "number": 64,
                        "time": 136.15624999999997,
                        "value": 0
                    },
                    {
                        "number": 64,
                        "time": 136.35468749999998,
                        "value": 1
                    },
                    {
                        "number": 64,
                        "time": 137.26093749999998,
                        "value": 0
                    },
                    {
                        "number": 64,
                        "time": 137.56249999999997,
                        "value": 1
                    },
                    {
                        "number": 64,
                        "time": 138.40624999999997,
                        "value": 0
                    },
                    {
                        "number": 64,
                        "time": 138.62499999999997,
                        "value": 1
                    },
                    {
                        "number": 64,
                        "time": 139.51093749999998,
                        "value": 0
                    },
                    {
                        "number": 64,
                        "time": 139.6546875,
                        "value": 1
                    },
                    {
                        "number": 64,
                        "time": 141.7734375,
                        "value": 0
                    },
                    {
                        "number": 64,
                        "time": 141.8921875,
                        "value": 1
                    },
                    {
                        "number": 64,
                        "time": 143.27812500000002,
                        "value": 0
                    },
                    {
                        "number": 64,
                        "time": 143.48281250000002,
                        "value": 1
                    },
                    {
                        "number": 64,
                        "time": 144.4015625,
                        "value": 0
                    },
                    {
                        "number": 64,
                        "time": 144.54375000000002,
                        "value": 1
                    },
                    {
                        "number": 64,
                        "time": 145.52968750000002,
                        "value": 0
                    },
                    {
                        "number": 64,
                        "time": 145.65625000000003,
                        "value": 1
                    },
                    {
                        "number": 64,
                        "time": 146.64375000000004,
                        "value": 0
                    },
                    {
                        "number": 64,
                        "time": 146.80625000000003,
                        "value": 1
                    },
                    {
                        "number": 64,
                        "time": 147.76875000000004,
                        "value": 0
                    },
                    {
                        "number": 64,
                        "time": 147.97031250000003,
                        "value": 1
                    },
                    {
                        "number": 64,
                        "time": 148.89843750000003,
                        "value": 0
                    },
                    {
                        "number": 64,
                        "time": 149.08281250000002,
                        "value": 1
                    },
                    {
                        "number": 64,
                        "time": 150.034375,
                        "value": 0
                    },
                    {
                        "number": 64,
                        "time": 150.23281250000002,
                        "value": 1
                    },
                    {
                        "number": 64,
                        "time": 150.77812500000002,
                        "value": 0
                    },
                    {
                        "number": 64,
                        "time": 151.571875,
                        "value": 1
                    },
                    {
                        "number": 64,
                        "time": 152.01875,
                        "value": 0
                    },
                    {
                        "number": 64,
                        "time": 152.6515625,
                        "value": 1
                    },
                    {
                        "number": 64,
                        "time": 153.10781250000002,
                        "value": 0
                    },
                    {
                        "number": 64,
                        "time": 153.83125,
                        "value": 1
                    },
                    {
                        "number": 64,
                        "time": 154.2421875,
                        "value": 0
                    },
                    {
                        "number": 64,
                        "time": 154.95625,
                        "value": 1
                    },
                    {
                        "number": 64,
                        "time": 155.3671875,
                        "value": 0
                    },
                    {
                        "number": 64,
                        "time": 156.01875,
                        "value": 1
                    },
                    {
                        "number": 64,
                        "time": 156.509375,
                        "value": 0
                    },
                    {
                        "number": 64,
                        "time": 157.2140625,
                        "value": 1
                    },
                    {
                        "number": 64,
                        "time": 157.64375,
                        "value": 0
                    },
                    {
                        "number": 64,
                        "time": 158.3390625,
                        "value": 1
                    },
                    {
                        "number": 64,
                        "time": 158.73281250000002,
                        "value": 0
                    },
                    {
                        "number": 64,
                        "time": 159.48281250000002,
                        "value": 1
                    },
                    {
                        "number": 64,
                        "time": 159.80468750000003,
                        "value": 0
                    },
                    {
                        "number": 64,
                        "time": 160.60781250000002,
                        "value": 1
                    },
                    {
                        "number": 64,
                        "time": 160.92968750000003,
                        "value": 0
                    },
                    {
                        "number": 64,
                        "time": 161.71406250000004,
                        "value": 1
                    },
                    {
                        "number": 64,
                        "time": 162.10781250000005,
                        "value": 0
                    },
                    {
                        "number": 64,
                        "time": 162.83906250000004,
                        "value": 1
                    },
                    {
                        "number": 64,
                        "time": 163.23281250000005,
                        "value": 0
                    },
                    {
                        "number": 64,
                        "time": 163.85937500000006,
                        "value": 1
                    },
                    {
                        "number": 64,
                        "time": 167.65781250000006,
                        "value": 0
                    },
                    {
                        "number": 64,
                        "time": 168.14687500000005,
                        "value": 1
                    },
                    {
                        "number": 64,
                        "time": 169.90000000000006,
                        "value": 0
                    },
                    {
                        "number": 64,
                        "time": 170.41718750000007,
                        "value": 1
                    },
                    {
                        "number": 64,
                        "time": 171.02343750000006,
                        "value": 0
                    },
                    {
                        "number": 64,
                        "time": 171.27187500000005,
                        "value": 1
                    },
                    {
                        "number": 64,
                        "time": 172.15625000000006,
                        "value": 0
                    },
                    {
                        "number": 64,
                        "time": 172.45937500000005,
                        "value": 1
                    },
                    {
                        "number": 64,
                        "time": 173.26093750000004,
                        "value": 0
                    },
                    {
                        "number": 64,
                        "time": 173.54218750000004,
                        "value": 1
                    },
                    {
                        "number": 64,
                        "time": 177.18750000000003,
                        "value": 0
                    }
                ]
            },
            "id": 3,
            "name": "Pedal",
            "instrumentNumber": 0,
            "instrument": "acoustic grand piano",
            "instrumentFamily": "piano",
            "channelNumber": 0,
            "isPercussion": false
        },
        {
            "startTime": 0,
            "duration": 0,
            "length": 0,
            "notes": [],
            "controlChanges": {},
            "id": 4,
            "name": "Brahms: Intermezzo Nr. 5, Opus 116"
        },
        {
            "startTime": 0,
            "duration": 0,
            "length": 0,
            "notes": [],
            "controlChanges": {},
            "id": 5,
            "name": "Copyright  2005 by Bernd Krger"
        },
        {
            "startTime": 0,
            "duration": 0,
            "length": 0,
            "notes": [],
            "controlChanges": {},
            "id": 6,
            "name": "http://www.piano-midi.de"
        },
        {
            "startTime": 0,
            "duration": 0,
            "length": 0,
            "notes": [],
            "controlChanges": {},
            "id": 7,
            "name": "Edition: 2010-10-31"
        },
        {
            "startTime": 0,
            "duration": 0,
            "length": 0,
            "notes": [],
            "controlChanges": {},
            "id": 8,
            "name": "Spur 8"
        },
        {
            "startTime": 0,
            "duration": 0,
            "length": 0,
            "notes": [],
            "controlChanges": {},
            "id": 9,
            "name": "Spur 9"
        }
    ]
}