{
    "header": {
        "PPQ": 480,
        "timeSignature": [
            6,
            8
        ],
        "bpm": 70.990038914373,
        "name": "Intermezzo Opus 117 Nr. 1"
    },
    "startTime": 0,
    "duration": 145.79510250000052,
    "tracks": [
        {
            "startTime": 0,
            "duration": 0,
            "length": 0,
            "notes": [],
            "controlChanges": {},
            "id": 0,
            "name": "Intermezzo Opus 117 Nr. 1"
        },
        {
            "startTime": 2.1129724999999997,
            "duration": 145.79510250000052,
            "length": 726,
            "notes": [
                {
                    "name": "A#4",
                    "midi": 70,
                    "time": 2.1129724999999997,
                    "velocity": 0.28346456692913385,
                    "duration": 0.42259449999999976
                },
                {
                    "name": "D#4",
                    "midi": 63,
                    "time": 2.5355669999999995,
                    "velocity": 0.18110236220472442,
                    "duration": 0.8451889999999995
                },
                {
                    "name": "D#5",
                    "midi": 75,
                    "time": 2.5355669999999995,
                    "velocity": 0.31496062992125984,
                    "duration": 0.8451889999999995
                },
                {
                    "name": "D5",
                    "midi": 74,
                    "time": 2.9581614999999992,
                    "velocity": 0.28346456692913385,
                    "duration": 0.42259449999999976
                },
                {
                    "name": "D#4",
                    "midi": 63,
                    "time": 3.380755999999999,
                    "velocity": 0.18110236220472442,
                    "duration": 0.42259449999999976
                },
                {
                    "name": "D#5",
                    "midi": 75,
                    "time": 3.380755999999999,
                    "velocity": 0.18110236220472442,
                    "duration": 0.42259449999999976
                },
                {
                    "name": "C5",
                    "midi": 72,
                    "time": 3.380755999999999,
                    "velocity": 0.25984251968503935,
                    "duration": 0.42259449999999976
                },
                {
                    "name": "D#4",
                    "midi": 63,
                    "time": 3.8033504999999987,
                    "velocity": 0.1968503937007874,
                    "duration": 0.8451889999999995
                },
                {
                    "name": "D#5",
                    "midi": 75,
                    "time": 3.8033504999999987,
                    "velocity": 0.1968503937007874,
                    "duration": 0.8451889999999995
                },
                {
                    "name": "A#4",
                    "midi": 70,
                    "time": 3.8033504999999987,
                    "velocity": 0.29133858267716534,
                    "duration": 0.8451889999999995
                },
                {
                    "name": "D#4",
                    "midi": 63,
                    "time": 4.648539499999998,
                    "velocity": 0.18110236220472442,
                    "duration": 0.42259450000000065
                },
                {
                    "name": "D#5",
                    "midi": 75,
                    "time": 4.648539499999998,
                    "velocity": 0.18110236220472442,
                    "duration": 0.42259450000000065
                },
                {
                    "name": "G#4",
                    "midi": 68,
                    "time": 4.648539499999998,
                    "velocity": 0.25984251968503935,
                    "duration": 0.21129725000000033
                },
                {
                    "name": "G4",
                    "midi": 67,
                    "time": 4.859836749999999,
                    "velocity": 0.2440944881889764,
                    "duration": 0.21129725000000033
                },
                {
                    "name": "D#5",
                    "midi": 75,
                    "time": 5.071133999999999,
                    "velocity": 0.2204724409448819,
                    "duration": 0.8451889999999995
                },
                {
                    "name": "F4",
                    "midi": 65,
                    "time": 5.071133999999999,
                    "velocity": 0.28346456692913385,
                    "duration": 0.42259449999999976
                },
                {
                    "name": "D#4",
                    "midi": 63,
                    "time": 5.493728499999999,
                    "velocity": 0.25196850393700787,
                    "duration": 0.42259449999999976
                },
                {
                    "name": "D#5",
                    "midi": 75,
                    "time": 5.9163229999999984,
                    "velocity": 0.1889763779527559,
                    "duration": 0.42259449999999976
                },
                {
                    "name": "G4",
                    "midi": 67,
                    "time": 5.9163229999999984,
                    "velocity": 0.28346456692913385,
                    "duration": 0.42259449999999976
                },
                {
                    "name": "D#4",
                    "midi": 63,
                    "time": 6.338917499999998,
                    "velocity": 0.1732283464566929,
                    "duration": 0.8451890000000004
                },
                {
                    "name": "D#5",
                    "midi": 75,
                    "time": 6.338917499999998,
                    "velocity": 0.1732283464566929,
                    "duration": 0.8451890000000004
                },
                {
                    "name": "A#4",
                    "midi": 70,
                    "time": 6.338917499999998,
                    "velocity": 0.25196850393700787,
                    "duration": 0.8451890000000004
                },
                {
                    "name": "D#4",
                    "midi": 63,
                    "time": 7.184106499999999,
                    "velocity": 0.18110236220472442,
                    "duration": 0.42259450000000065
                },
                {
                    "name": "D#5",
                    "midi": 75,
                    "time": 7.184106499999999,
                    "velocity": 0.18110236220472442,
                    "duration": 0.42259450000000065
                },
                {
                    "name": "C5",
                    "midi": 72,
                    "time": 7.184106499999999,
                    "velocity": 0.25984251968503935,
                    "duration": 0.21129725000000033
                },
                {
                    "name": "D5",
                    "midi": 74,
                    "time": 7.395403749999999,
                    "velocity": 0.2440944881889764,
                    "duration": 0.21129725000000033
                },
                {
                    "name": "D#4",
                    "midi": 63,
                    "time": 7.606700999999999,
                    "velocity": 0.18110236220472442,
                    "duration": 0.8451890000000013
                },
                {
                    "name": "D#5",
                    "midi": 75,
                    "time": 7.606700999999999,
                    "velocity": 0.31496062992125984,
                    "duration": 0.8451890000000013
                },
                {
                    "name": "D5",
                    "midi": 74,
                    "time": 8.0292955,
                    "velocity": 0.28346456692913385,
                    "duration": 0.42259450000000065
                },
                {
                    "name": "D#4",
                    "midi": 63,
                    "time": 8.45189,
                    "velocity": 0.18110236220472442,
                    "duration": 0.42259450000000065
                },
                {
                    "name": "D#5",
                    "midi": 75,
                    "time": 8.45189,
                    "velocity": 0.18110236220472442,
                    "duration": 0.42259450000000065
                },
                {
                    "name": "C5",
                    "midi": 72,
                    "time": 8.45189,
                    "velocity": 0.25984251968503935,
                    "duration": 0.42259450000000065
                },
                {
                    "name": "D#4",
                    "midi": 63,
                    "time": 8.874484500000001,
                    "velocity": 0.1968503937007874,
                    "duration": 0.8451889999999995
                },
                {
                    "name": "D#5",
                    "midi": 75,
                    "time": 8.874484500000001,
                    "velocity": 0.1968503937007874,
                    "duration": 0.8451889999999995
                },
                {
                    "name": "A#4",
                    "midi": 70,
                    "time": 8.874484500000001,
                    "velocity": 0.29133858267716534,
                    "duration": 0.8451889999999995
                },
                {
                    "name": "D#4",
                    "midi": 63,
                    "time": 9.7196735,
                    "velocity": 0.18110236220472442,
                    "duration": 0.4225944999999989
                },
                {
                    "name": "D#5",
                    "midi": 75,
                    "time": 9.7196735,
                    "velocity": 0.18110236220472442,
                    "duration": 0.4225944999999989
                },
                {
                    "name": "G#4",
                    "midi": 68,
                    "time": 9.7196735,
                    "velocity": 0.25984251968503935,
                    "duration": 0.21129724999999944
                },
                {
                    "name": "G4",
                    "midi": 67,
                    "time": 9.93097075,
                    "velocity": 0.2440944881889764,
                    "duration": 0.21129724999999944
                },
                {
                    "name": "D#5",
                    "midi": 75,
                    "time": 10.142268,
                    "velocity": 0.2204724409448819,
                    "duration": 0.8451890000000013
                },
                {
                    "name": "A#4",
                    "midi": 70,
                    "time": 10.142268,
                    "velocity": 0.28346456692913385,
                    "duration": 0.42259450000000065
                },
                {
                    "name": "D#4",
                    "midi": 63,
                    "time": 10.5648625,
                    "velocity": 0.25196850393700787,
                    "duration": 0.42259450000000065
                },
                {
                    "name": "G4",
                    "midi": 67,
                    "time": 10.881808375,
                    "velocity": 0.1968503937007874,
                    "duration": 0.1056486250000006
                },
                {
                    "name": "D5",
                    "midi": 74,
                    "time": 10.987457000000001,
                    "velocity": 0.16535433070866143,
                    "duration": 0.42259450000000065
                },
                {
                    "name": "F4",
                    "midi": 65,
                    "time": 10.987457000000001,
                    "velocity": 0.25196850393700787,
                    "duration": 0.42259450000000065
                },
                {
                    "name": "D#4",
                    "midi": 63,
                    "time": 11.410051500000002,
                    "velocity": 0.15748031496062992,
                    "duration": 0.6338917500000001
                },
                {
                    "name": "D#5",
                    "midi": 75,
                    "time": 11.410051500000002,
                    "velocity": 0.15748031496062992,
                    "duration": 0.8451889999999995
                },
                {
                    "name": "G4",
                    "midi": 67,
                    "time": 12.043943250000002,
                    "velocity": 0.15748031496062992,
                    "duration": 0.21129724999999944
                },
                {
                    "name": "A#4",
                    "midi": 70,
                    "time": 12.255240500000001,
                    "velocity": 0.18110236220472442,
                    "duration": 0.21129724999999944
                },
                {
                    "name": "G5",
                    "midi": 79,
                    "time": 12.46653775,
                    "velocity": 0.18110236220472442,
                    "duration": 0.21129724999999944
                },
                {
                    "name": "G#5",
                    "midi": 80,
                    "time": 12.677835,
                    "velocity": 0.2047244094488189,
                    "duration": 0.8451890000000013
                },
                {
                    "name": "G#4",
                    "midi": 68,
                    "time": 12.677835,
                    "velocity": 0.18110236220472442,
                    "duration": 0.8451890000000013
                },
                {
                    "name": "F5",
                    "midi": 77,
                    "time": 12.677835,
                    "velocity": 0.31496062992125984,
                    "duration": 0.42259450000000065
                },
                {
                    "name": "C5",
                    "midi": 72,
                    "time": 13.1004295,
                    "velocity": 0.23622047244094488,
                    "duration": 0.42259450000000065
                },
                {
                    "name": "D5",
                    "midi": 74,
                    "time": 13.523024000000001,
                    "velocity": 0.25984251968503935,
                    "duration": 0.42259450000000065
                },
                {
                    "name": "F4",
                    "midi": 65,
                    "time": 13.523024000000001,
                    "velocity": 0.18110236220472442,
                    "duration": 0.42259450000000065
                },
                {
                    "name": "F5",
                    "midi": 77,
                    "time": 13.523024000000001,
                    "velocity": 0.18110236220472442,
                    "duration": 0.42259450000000065
                },
                {
                    "name": "G4",
                    "midi": 67,
                    "time": 13.945618500000002,
                    "velocity": 0.1968503937007874,
                    "duration": 0.8451889999999995
                },
                {
                    "name": "G5",
                    "midi": 79,
                    "time": 13.945618500000002,
                    "velocity": 0.1968503937007874,
                    "duration": 0.8451889999999995
                },
                {
                    "name": "A#4",
                    "midi": 70,
                    "time": 13.945618500000002,
                    "velocity": 0.29133858267716534,
                    "duration": 0.8451889999999995
                },
                {
                    "name": "D#5",
                    "midi": 75,
                    "time": 14.579510250000002,
                    "velocity": 0.18110236220472442,
                    "duration": 0.21129724999999944
                },
                {
                    "name": "A#4",
                    "midi": 70,
                    "time": 14.790807500000001,
                    "velocity": 0.18110236220472442,
                    "duration": 0.4225944999999989
                },
                {
                    "name": "A#5",
                    "midi": 82,
                    "time": 14.790807500000001,
                    "velocity": 0.2047244094488189,
                    "duration": 0.4225944999999989
                },
                {
                    "name": "G5",
                    "midi": 79,
                    "time": 14.790807500000001,
                    "velocity": 0.2677165354330709,
                    "duration": 0.21129724999999944
                },
                {
                    "name": "D#5",
                    "midi": 75,
                    "time": 15.00210475,
                    "velocity": 0.2755905511811024,
                    "duration": 0.21129724999999944
                },
                {
                    "name": "G#5",
                    "midi": 80,
                    "time": 15.213402,
                    "velocity": 0.2047244094488189,
                    "duration": 0.8451889999999995
                },
                {
                    "name": "G#4",
                    "midi": 68,
                    "time": 15.213402,
                    "velocity": 0.18110236220472442,
                    "duration": 0.8451889999999995
                },
                {
                    "name": "F5",
                    "midi": 77,
                    "time": 15.213402,
                    "velocity": 0.31496062992125984,
                    "duration": 0.42259450000000065
                },
                {
                    "name": "C5",
                    "midi": 72,
                    "time": 15.635996500000001,
                    "velocity": 0.25984251968503935,
                    "duration": 0.4225944999999989
                },
                {
                    "name": "D5",
                    "midi": 74,
                    "time": 16.058591,
                    "velocity": 0.25984251968503935,
                    "duration": 0.4225944999999989
                },
                {
                    "name": "F4",
                    "midi": 65,
                    "time": 16.058591,
                    "velocity": 0.18110236220472442,
                    "duration": 0.4225944999999989
                },
                {
                    "name": "F5",
                    "midi": 77,
                    "time": 16.058591,
                    "velocity": 0.18110236220472442,
                    "duration": 0.4225944999999989
                },
                {
                    "name": "G4",
                    "midi": 67,
                    "time": 16.4811855,
                    "velocity": 0.18110236220472442,
                    "duration": 0.8451889999999977
                },
                {
                    "name": "G5",
                    "midi": 79,
                    "time": 16.4811855,
                    "velocity": 0.18110236220472442,
                    "duration": 0.8451889999999977
                },
                {
                    "name": "D#5",
                    "midi": 75,
                    "time": 16.4811855,
                    "velocity": 0.31496062992125984,
                    "duration": 0.4225944999999989
                },
                {
                    "name": "A#4",
                    "midi": 70,
                    "time": 16.903779999999998,
                    "velocity": 0.28346456692913385,
                    "duration": 0.4225944999999989
                },
                {
                    "name": "D#5",
                    "midi": 75,
                    "time": 17.326374499999996,
                    "velocity": 0.2204724409448819,
                    "duration": 0.4225944999999989
                },
                {
                    "name": "C5",
                    "midi": 72,
                    "time": 17.326374499999996,
                    "velocity": 0.31496062992125984,
                    "duration": 0.4225944999999989
                },
                {
                    "name": "G4",
                    "midi": 67,
                    "time": 17.326374499999996,
                    "velocity": 0.2204724409448819,
                    "duration": 0.4225944999999989
                },
                {
                    "name": "F5",
                    "midi": 77,
                    "time": 17.748968999999995,
                    "velocity": 0.29133858267716534,
                    "duration": 0.8451890000000013
                },
                {
                    "name": "D5",
                    "midi": 74,
                    "time": 17.748968999999995,
                    "velocity": 0.33858267716535434,
                    "duration": 0.8451890000000013
                },
                {
                    "name": "F4",
                    "midi": 65,
                    "time": 17.748968999999995,
                    "velocity": 0.29133858267716534,
                    "duration": 0.8451890000000013
                },
                {
                    "name": "A#5",
                    "midi": 82,
                    "time": 18.594157999999997,
                    "velocity": 0.41732283464566927,
                    "duration": 0.8451890000000013
                },
                {
                    "name": "D5",
                    "midi": 74,
                    "time": 18.594157999999997,
                    "velocity": 0.3543307086614173,
                    "duration": 0.8451890000000013
                },
                {
                    "name": "A#4",
                    "midi": 70,
                    "time": 18.594157999999997,
                    "velocity": 0.3543307086614173,
                    "duration": 0.8451890000000013
                },
                {
                    "name": "D5",
                    "midi": 74,
                    "time": 19.439346999999998,
                    "velocity": 0.3937007874015748,
                    "duration": 0.4225944999999989
                },
                {
                    "name": "A#4",
                    "midi": 70,
                    "time": 19.439346999999998,
                    "velocity": 0.33858267716535434,
                    "duration": 0.4225944999999989
                },
                {
                    "name": "A#4",
                    "midi": 70,
                    "time": 19.861941499999997,
                    "velocity": 0.33070866141732286,
                    "duration": 0.4225944999999989
                },
                {
                    "name": "F5",
                    "midi": 77,
                    "time": 19.861941499999997,
                    "velocity": 0.33070866141732286,
                    "duration": 0.4225944999999989
                },
                {
                    "name": "A5",
                    "midi": 81,
                    "time": 19.861941499999997,
                    "velocity": 0.3937007874015748,
                    "duration": 0.4225944999999989
                },
                {
                    "name": "A#4",
                    "midi": 70,
                    "time": 20.284535999999996,
                    "velocity": 0.3228346456692913,
                    "duration": 0.4225944999999989
                },
                {
                    "name": "D#5",
                    "midi": 75,
                    "time": 20.284535999999996,
                    "velocity": 0.3228346456692913,
                    "duration": 0.4225944999999989
                },
                {
                    "name": "G5",
                    "midi": 79,
                    "time": 20.284535999999996,
                    "velocity": 0.4015748031496063,
                    "duration": 0.4225944999999989
                },
                {
                    "name": "F5",
                    "midi": 77,
                    "time": 20.707130499999995,
                    "velocity": 0.33858267716535434,
                    "duration": 0.4225944999999989
                },
                {
                    "name": "D5",
                    "midi": 74,
                    "time": 20.707130499999995,
                    "velocity": 0.28346456692913385,
                    "duration": 0.4225944999999989
                },
                {
                    "name": "A4",
                    "midi": 69,
                    "time": 20.707130499999995,
                    "velocity": 0.28346456692913385,
                    "duration": 0.4225944999999989
                },
                {
                    "name": "D#5",
                    "midi": 75,
                    "time": 21.129724999999993,
                    "velocity": 0.2755905511811024,
                    "duration": 0.2112972500000012
                },
                {
                    "name": "C5",
                    "midi": 72,
                    "time": 21.129724999999993,
                    "velocity": 0.2204724409448819,
                    "duration": 0.2112972500000012
                },
                {
                    "name": "G4",
                    "midi": 67,
                    "time": 21.129724999999993,
                    "velocity": 0.2204724409448819,
                    "duration": 0.2112972500000012
                },
                {
                    "name": "F4",
                    "midi": 65,
                    "time": 21.341022249999995,
                    "velocity": 0.1968503937007874,
                    "duration": 0.13206078125000076
                },
                {
                    "name": "A#4",
                    "midi": 70,
                    "time": 21.341022249999995,
                    "velocity": 0.1968503937007874,
                    "duration": 0.13206078125000076
                },
                {
                    "name": "D5",
                    "midi": 74,
                    "time": 21.341022249999995,
                    "velocity": 0.23622047244094488,
                    "duration": 0.13206078125000076
                },
                {
                    "name": "D#4",
                    "midi": 63,
                    "time": 21.473083031249995,
                    "velocity": 0.15748031496062992,
                    "duration": 0.5018309687499993
                },
                {
                    "name": "G#4",
                    "midi": 68,
                    "time": 21.499495187499996,
                    "velocity": 0.1889763779527559,
                    "duration": 0.898013312499998
                },
                {
                    "name": "C5",
                    "midi": 72,
                    "time": 21.525907343749996,
                    "velocity": 0.2047244094488189,
                    "duration": 0.449006656249999
                },
                {
                    "name": "F5",
                    "midi": 77,
                    "time": 21.552319499999996,
                    "velocity": 0.2677165354330709,
                    "duration": 0.4225944999999989
                },
                {
                    "name": "A#4",
                    "midi": 70,
                    "time": 21.974913999999995,
                    "velocity": 0.25984251968503935,
                    "duration": 0.4225944999999989
                },
                {
                    "name": "D4",
                    "midi": 62,
                    "time": 21.974913999999995,
                    "velocity": 0.2204724409448819,
                    "duration": 0.4225944999999989
                },
                {
                    "name": "C5",
                    "midi": 72,
                    "time": 22.397508499999994,
                    "velocity": 0.23622047244094488,
                    "duration": 0.2112972500000012
                },
                {
                    "name": "D#4",
                    "midi": 63,
                    "time": 22.397508499999994,
                    "velocity": 0.1968503937007874,
                    "duration": 0.2112972500000012
                },
                {
                    "name": "C4",
                    "midi": 60,
                    "time": 22.397508499999994,
                    "velocity": 0.1968503937007874,
                    "duration": 0.2112972500000012
                },
                {
                    "name": "A#4",
                    "midi": 70,
                    "time": 22.608805749999995,
                    "velocity": 0.23622047244094488,
                    "duration": 0.2112972500000012
                },
                {
                    "name": "F4",
                    "midi": 65,
                    "time": 22.608805749999995,
                    "velocity": 0.1968503937007874,
                    "duration": 0.2112972500000012
                },
                {
                    "name": "D4",
                    "midi": 62,
                    "time": 22.608805749999995,
                    "velocity": 0.1968503937007874,
                    "duration": 0.2112972500000012
                },
                {
                    "name": "D#4",
                    "midi": 63,
                    "time": 22.820102999999996,
                    "velocity": 0.18110236220472442,
                    "duration": 0.8451889999999977
                },
                {
                    "name": "D#5",
                    "midi": 75,
                    "time": 22.820102999999996,
                    "velocity": 0.31496062992125984,
                    "duration": 0.8451889999999977
                },
                {
                    "name": "D5",
                    "midi": 74,
                    "time": 23.242697499999995,
                    "velocity": 0.2677165354330709,
                    "duration": 0.4225944999999989
                },
                {
                    "name": "D#4",
                    "midi": 63,
                    "time": 23.665291999999994,
                    "velocity": 0.18110236220472442,
                    "duration": 0.4225944999999989
                },
                {
                    "name": "D#5",
                    "midi": 75,
                    "time": 23.665291999999994,
                    "velocity": 0.18110236220472442,
                    "duration": 0.4225944999999989
                },
                {
                    "name": "C5",
                    "midi": 72,
                    "time": 23.665291999999994,
                    "velocity": 0.25984251968503935,
                    "duration": 0.4225944999999989
                },
                {
                    "name": "D#4",
                    "midi": 63,
                    "time": 24.087886499999993,
                    "velocity": 0.1968503937007874,
                    "duration": 0.8451890000000013
                },
                {
                    "name": "D#5",
                    "midi": 75,
                    "time": 24.087886499999993,
                    "velocity": 0.1968503937007874,
                    "duration": 0.8451890000000013
                },
                {
                    "name": "A#4",
                    "midi": 70,
                    "time": 24.087886499999993,
                    "velocity": 0.29133858267716534,
                    "duration": 0.8451890000000013
                },
                {
                    "name": "D#4",
                    "midi": 63,
                    "time": 24.933075499999994,
                    "velocity": 0.18110236220472442,
                    "duration": 0.4225945000000024
                },
                {
                    "name": "D#5",
                    "midi": 75,
                    "time": 24.933075499999994,
                    "velocity": 0.18110236220472442,
                    "duration": 0.4225945000000024
                },
                {
                    "name": "G#4",
                    "midi": 68,
                    "time": 24.933075499999994,
                    "velocity": 0.25984251968503935,
                    "duration": 0.2112972500000012
                },
                {
                    "name": "G4",
                    "midi": 67,
                    "time": 25.144372749999995,
                    "velocity": 0.2440944881889764,
                    "duration": 0.2112972500000012
                },
                {
                    "name": "D#5",
                    "midi": 75,
                    "time": 25.355669999999996,
                    "velocity": 0.2204724409448819,
                    "duration": 0.8451889999999977
                },
                {
                    "name": "F4",
                    "midi": 65,
                    "time": 25.355669999999996,
                    "velocity": 0.28346456692913385,
                    "duration": 0.4225944999999989
                },
                {
                    "name": "D#4",
                    "midi": 63,
                    "time": 25.778264499999995,
                    "velocity": 0.25196850393700787,
                    "duration": 0.4225944999999989
                },
                {
                    "name": "D#5",
                    "midi": 75,
                    "time": 26.200858999999994,
                    "velocity": 0.1889763779527559,
                    "duration": 0.4225944999999989
                },
                {
                    "name": "G4",
                    "midi": 67,
                    "time": 26.200858999999994,
                    "velocity": 0.28346456692913385,
                    "duration": 0.4225944999999989
                },
                {
                    "name": "D#4",
                    "midi": 63,
                    "time": 26.623453499999993,
                    "velocity": 0.1732283464566929,
                    "duration": 0.8451890000000013
                },
                {
                    "name": "D#5",
                    "midi": 75,
                    "time": 26.623453499999993,
                    "velocity": 0.1732283464566929,
                    "duration": 0.8451890000000013
                },
                {
                    "name": "A#4",
                    "midi": 70,
                    "time": 26.623453499999993,
                    "velocity": 0.25196850393700787,
                    "duration": 0.8451890000000013
                },
                {
                    "name": "D#4",
                    "midi": 63,
                    "time": 27.468642499999994,
                    "velocity": 0.18110236220472442,
                    "duration": 0.4225945000000024
                },
                {
                    "name": "D#5",
                    "midi": 75,
                    "time": 27.468642499999994,
                    "velocity": 0.18110236220472442,
                    "duration": 0.4225945000000024
                },
                {
                    "name": "C5",
                    "midi": 72,
                    "time": 27.468642499999994,
                    "velocity": 0.25984251968503935,
                    "duration": 0.2112972500000012
                },
                {
                    "name": "D5",
                    "midi": 74,
                    "time": 27.679939749999996,
                    "velocity": 0.2440944881889764,
                    "duration": 0.2112972500000012
                },
                {
                    "name": "D#4",
                    "midi": 63,
                    "time": 27.891236999999997,
                    "velocity": 0.18110236220472442,
                    "duration": 0.8451889999999977
                },
                {
                    "name": "D#5",
                    "midi": 75,
                    "time": 27.891236999999997,
                    "velocity": 0.31496062992125984,
                    "duration": 0.8451889999999977
                },
                {
                    "name": "D5",
                    "midi": 74,
                    "time": 28.313831499999996,
                    "velocity": 0.25984251968503935,
                    "duration": 0.4225944999999989
                },
                {
                    "name": "D#4",
                    "midi": 63,
                    "time": 28.736425999999994,
                    "velocity": 0.18110236220472442,
                    "duration": 0.4225944999999989
                },
                {
                    "name": "D#5",
                    "midi": 75,
                    "time": 28.736425999999994,
                    "velocity": 0.18110236220472442,
                    "duration": 0.4225944999999989
                },
                {
                    "name": "C5",
                    "midi": 72,
                    "time": 28.736425999999994,
                    "velocity": 0.25984251968503935,
                    "duration": 0.4225944999999989
                },
                {
                    "name": "D#4",
                    "midi": 63,
                    "time": 29.159020499999993,
                    "velocity": 0.1968503937007874,
                    "duration": 0.8451890000000013
                },
                {
                    "name": "D#5",
                    "midi": 75,
                    "time": 29.159020499999993,
                    "velocity": 0.1968503937007874,
                    "duration": 0.8451890000000013
                },
                {
                    "name": "A#4",
                    "midi": 70,
                    "time": 29.159020499999993,
                    "velocity": 0.29133858267716534,
                    "duration": 0.8451890000000013
                },
                {
                    "name": "D#4",
                    "midi": 63,
                    "time": 30.004209499999995,
                    "velocity": 0.18110236220472442,
                    "duration": 0.4225945000000024
                },
                {
                    "name": "D#5",
                    "midi": 75,
                    "time": 30.004209499999995,
                    "velocity": 0.18110236220472442,
                    "duration": 0.4225945000000024
                },
                {
                    "name": "A4",
                    "midi": 69,
                    "time": 30.004209499999995,
                    "velocity": 0.25984251968503935,
                    "duration": 0.2112972500000012
                },
                {
                    "name": "G4",
                    "midi": 67,
                    "time": 30.215506749999996,
                    "velocity": 0.2440944881889764,
                    "duration": 0.2112972500000012
                },
                {
                    "name": "F4",
                    "midi": 65,
                    "time": 30.426803999999997,
                    "velocity": 0.18110236220472442,
                    "duration": 0.8451889999999977
                },
                {
                    "name": "D#5",
                    "midi": 75,
                    "time": 30.426803999999997,
                    "velocity": 0.2204724409448819,
                    "duration": 0.8451889999999977
                },
                {
                    "name": "A4",
                    "midi": 69,
                    "time": 30.426803999999997,
                    "velocity": 0.28346456692913385,
                    "duration": 0.4225944999999989
                },
                {
                    "name": "A#4",
                    "midi": 70,
                    "time": 30.849398499999996,
                    "velocity": 0.25196850393700787,
                    "duration": 0.4225944999999989
                },
                {
                    "name": "F4",
                    "midi": 65,
                    "time": 31.271992999999995,
                    "velocity": 0.14960629921259844,
                    "duration": 0.4225944999999989
                },
                {
                    "name": "D#5",
                    "midi": 75,
                    "time": 31.271992999999995,
                    "velocity": 0.1889763779527559,
                    "duration": 0.4225944999999989
                },
                {
                    "name": "C5",
                    "midi": 72,
                    "time": 31.271992999999995,
                    "velocity": 0.28346456692913385,
                    "duration": 0.4225944999999989
                },
                {
                    "name": "D#5",
                    "midi": 75,
                    "time": 31.694587499999994,
                    "velocity": 0.33070866141732286,
                    "duration": 0.6338917500000001
                },
                {
                    "name": "A#4",
                    "midi": 70,
                    "time": 31.694587499999994,
                    "velocity": 0.2047244094488189,
                    "duration": 0.6338917500000001
                },
                {
                    "name": "F4",
                    "midi": 65,
                    "time": 31.694587499999994,
                    "velocity": 0.2047244094488189,
                    "duration": 0.6338917500000001
                },
                {
                    "name": "F5",
                    "midi": 77,
                    "time": 31.694587499999994,
                    "velocity": 0.2047244094488189,
                    "duration": 0.8451890000000013
                },
                {
                    "name": "D5",
                    "midi": 74,
                    "time": 32.328479249999994,
                    "velocity": 0.2755905511811024,
                    "duration": 0.2112972500000012
                },
                {
                    "name": "A#5",
                    "midi": 82,
                    "time": 32.539776499999995,
                    "velocity": 0.2992125984251969,
                    "duration": 0.4225945000000024
                },
                {
                    "name": "C5",
                    "midi": 72,
                    "time": 32.539776499999995,
                    "velocity": 0.2283464566929134,
                    "duration": 0.2112972500000012
                },
                {
                    "name": "A#4",
                    "midi": 70,
                    "time": 32.751073749999996,
                    "velocity": 0.18110236220472442,
                    "duration": 0.2112972500000012
                },
                {
                    "name": "D#5",
                    "midi": 75,
                    "time": 32.962371,
                    "velocity": 0.18110236220472442,
                    "duration": 0.8451890000000049
                },
                {
                    "name": "D#6",
                    "midi": 87,
                    "time": 32.962371,
                    "velocity": 0.31496062992125984,
                    "duration": 0.8451890000000049
                },
                {
                    "name": "D6",
                    "midi": 86,
                    "time": 33.3849655,
                    "velocity": 0.28346456692913385,
                    "duration": 0.4225945000000024
                },
                {
                    "name": "D#5",
                    "midi": 75,
                    "time": 33.80756,
                    "velocity": 0.18110236220472442,
                    "duration": 0.4225945000000024
                },
                {
                    "name": "D#6",
                    "midi": 87,
                    "time": 33.80756,
                    "velocity": 0.18110236220472442,
                    "duration": 0.8451890000000049
                },
                {
                    "name": "C6",
                    "midi": 84,
                    "time": 33.80756,
                    "velocity": 0.25984251968503935,
                    "duration": 0.4225945000000024
                },
                {
                    "name": "D5",
                    "midi": 74,
                    "time": 34.230154500000005,
                    "velocity": 0.2677165354330709,
                    "duration": 0.4225945000000024
                },
                {
                    "name": "A#5",
                    "midi": 82,
                    "time": 34.230154500000005,
                    "velocity": 0.31496062992125984,
                    "duration": 0.4225945000000024
                },
                {
                    "name": "D#5",
                    "midi": 75,
                    "time": 34.65274900000001,
                    "velocity": 0.18110236220472442,
                    "duration": 0.8451890000000049
                },
                {
                    "name": "C5",
                    "midi": 72,
                    "time": 34.65274900000001,
                    "velocity": 0.23622047244094488,
                    "duration": 0.4225945000000024
                },
                {
                    "name": "G#5",
                    "midi": 80,
                    "time": 34.65274900000001,
                    "velocity": 0.28346456692913385,
                    "duration": 0.4225945000000024
                },
                {
                    "name": "A#4",
                    "midi": 70,
                    "time": 35.07534350000001,
                    "velocity": 0.2047244094488189,
                    "duration": 0.4225945000000024
                },
                {
                    "name": "G5",
                    "midi": 79,
                    "time": 35.07534350000001,
                    "velocity": 0.2440944881889764,
                    "duration": 0.4225945000000024
                },
                {
                    "name": "G#4",
                    "midi": 68,
                    "time": 35.49793800000001,
                    "velocity": 0.1889763779527559,
                    "duration": 0.4225945000000024
                },
                {
                    "name": "D#5",
                    "midi": 75,
                    "time": 35.49793800000001,
                    "velocity": 0.1889763779527559,
                    "duration": 0.4225945000000024
                },
                {
                    "name": "F5",
                    "midi": 77,
                    "time": 35.49793800000001,
                    "velocity": 0.25984251968503935,
                    "duration": 0.4225945000000024
                },
                {
                    "name": "G4",
                    "midi": 67,
                    "time": 35.920532500000014,
                    "velocity": 0.1889763779527559,
                    "duration": 0.2112972500000012
                },
                {
                    "name": "D#5",
                    "midi": 75,
                    "time": 35.920532500000014,
                    "velocity": 0.2283464566929134,
                    "duration": 0.4225945000000024
                },
                {
                    "name": "F4",
                    "midi": 65,
                    "time": 36.131829750000016,
                    "velocity": 0.15748031496062992,
                    "duration": 0.2112972500000012
                },
                {
                    "name": "D#4",
                    "midi": 63,
                    "time": 36.34312700000002,
                    "velocity": 0.14960629921259844,
                    "duration": 0.2112972500000012
                },
                {
                    "name": "C5",
                    "midi": 72,
                    "time": 36.34312700000002,
                    "velocity": 0.2125984251968504,
                    "duration": 0.4225945000000024
                },
                {
                    "name": "G4",
                    "midi": 67,
                    "time": 36.55442425000002,
                    "velocity": 0.1732283464566929,
                    "duration": 0.2112972500000012
                },
                {
                    "name": "A#4",
                    "midi": 70,
                    "time": 36.81326338125002,
                    "velocity": 0.25196850393700787,
                    "duration": 0.8451889999999977
                },
                {
                    "name": "D#4",
                    "midi": 63,
                    "time": 37.61091050000002,
                    "velocity": 0.18110236220472442,
                    "duration": 0.4225945000000024
                },
                {
                    "name": "C5",
                    "midi": 72,
                    "time": 37.61091050000002,
                    "velocity": 0.25984251968503935,
                    "duration": 0.2112972500000012
                },
                {
                    "name": "D5",
                    "midi": 74,
                    "time": 37.82220775000002,
                    "velocity": 0.2440944881889764,
                    "duration": 0.2112972500000012
                },
                {
                    "name": "D#4",
                    "midi": 63,
                    "time": 38.03350500000002,
                    "velocity": 0.18110236220472442,
                    "duration": 0.8451890000000049
                },
                {
                    "name": "D#5",
                    "midi": 75,
                    "time": 38.03350500000002,
                    "velocity": 0.31496062992125984,
                    "duration": 0.8451890000000049
                },
                {
                    "name": "D5",
                    "midi": 74,
                    "time": 38.45609950000002,
                    "velocity": 0.2755905511811024,
                    "duration": 0.4225945000000024
                },
                {
                    "name": "D#4",
                    "midi": 63,
                    "time": 38.878694000000024,
                    "velocity": 0.18110236220472442,
                    "duration": 0.4225945000000024
                },
                {
                    "name": "D#5",
                    "midi": 75,
                    "time": 38.878694000000024,
                    "velocity": 0.18110236220472442,
                    "duration": 0.4225945000000024
                },
                {
                    "name": "C5",
                    "midi": 72,
                    "time": 38.878694000000024,
                    "velocity": 0.25984251968503935,
                    "duration": 0.4225945000000024
                },
                {
                    "name": "A#4",
                    "midi": 70,
                    "time": 39.30128850000003,
                    "velocity": 0.29133858267716534,
                    "duration": 0.8451890000000049
                },
                {
                    "name": "D#4",
                    "midi": 63,
                    "time": 39.72388300000003,
                    "velocity": 0.18110236220472442,
                    "duration": 0.8451890000000049
                },
                {
                    "name": "D#5",
                    "midi": 75,
                    "time": 39.72388300000003,
                    "velocity": 0.18110236220472442,
                    "duration": 0.8451890000000049
                },
                {
                    "name": "G#4",
                    "midi": 68,
                    "time": 40.14647750000003,
                    "velocity": 0.25984251968503935,
                    "duration": 0.2112972500000012
                },
                {
                    "name": "G4",
                    "midi": 67,
                    "time": 40.35777475000003,
                    "velocity": 0.2440944881889764,
                    "duration": 0.2112972500000012
                },
                {
                    "name": "D#5",
                    "midi": 75,
                    "time": 40.569072000000034,
                    "velocity": 0.2204724409448819,
                    "duration": 0.8451890000000049
                },
                {
                    "name": "A#4",
                    "midi": 70,
                    "time": 40.569072000000034,
                    "velocity": 0.28346456692913385,
                    "duration": 0.4225945000000024
                },
                {
                    "name": "D#4",
                    "midi": 63,
                    "time": 40.991666500000036,
                    "velocity": 0.25196850393700787,
                    "duration": 0.4225945000000024
                },
                {
                    "name": "G4",
                    "midi": 67,
                    "time": 41.30861237500004,
                    "velocity": 0.1968503937007874,
                    "duration": 0.1056486250000006
                },
                {
                    "name": "D5",
                    "midi": 74,
                    "time": 41.41426100000004,
                    "velocity": 0.16535433070866143,
                    "duration": 0.4225945000000024
                },
                {
                    "name": "F4",
                    "midi": 65,
                    "time": 41.41426100000004,
                    "velocity": 0.25196850393700787,
                    "duration": 0.4225945000000024
                },
                {
                    "name": "D#4",
                    "midi": 63,
                    "time": 41.83685550000004,
                    "velocity": 0.15748031496062992,
                    "duration": 0.8451889999999977
                },
                {
                    "name": "D#5",
                    "midi": 75,
                    "time": 41.83685550000004,
                    "velocity": 0.15748031496062992,
                    "duration": 0.8451889999999977
                },
                {
                    "name": "E5",
                    "midi": 76,
                    "time": 42.68204450000004,
                    "velocity": 0.25984251968503935,
                    "duration": 0.2112972500000012
                },
                {
                    "name": "E4",
                    "midi": 64,
                    "time": 42.68204450000004,
                    "velocity": 0.2204724409448819,
                    "duration": 0.2112972500000012
                },
                {
                    "name": "F#5",
                    "midi": 78,
                    "time": 42.89334175000004,
                    "velocity": 0.28346456692913385,
                    "duration": 0.2112972500000012
                },
                {
                    "name": "F#4",
                    "midi": 66,
                    "time": 42.89334175000004,
                    "velocity": 0.23622047244094488,
                    "duration": 0.2112972500000012
                },
                {
                    "name": "G#4",
                    "midi": 68,
                    "time": 43.10463900000004,
                    "velocity": 0.2677165354330709,
                    "duration": 0.4225945000000024
                },
                {
                    "name": "G#5",
                    "midi": 80,
                    "time": 43.10463900000004,
                    "velocity": 0.31496062992125984,
                    "duration": 0.4225945000000024
                },
                {
                    "name": "F#5",
                    "midi": 78,
                    "time": 43.527233500000044,
                    "velocity": 0.2755905511811024,
                    "duration": 0.4225945000000024
                },
                {
                    "name": "F#4",
                    "midi": 66,
                    "time": 43.527233500000044,
                    "velocity": 0.2283464566929134,
                    "duration": 0.4225945000000024
                },
                {
                    "name": "E5",
                    "midi": 76,
                    "time": 43.949828000000046,
                    "velocity": 0.1968503937007874,
                    "duration": 0.4225945000000024
                },
                {
                    "name": "E4",
                    "midi": 64,
                    "time": 43.949828000000046,
                    "velocity": 0.16535433070866143,
                    "duration": 0.4225945000000024
                },
                {
                    "name": "D#5",
                    "midi": 75,
                    "time": 44.37242250000005,
                    "velocity": 0.1968503937007874,
                    "duration": 0.8451889999999977
                },
                {
                    "name": "D#4",
                    "midi": 63,
                    "time": 44.37242250000005,
                    "velocity": 0.16535433070866143,
                    "duration": 0.8451889999999977
                },
                {
                    "name": "D#4",
                    "midi": 63,
                    "time": 45.21761150000005,
                    "velocity": 0.2125984251968504,
                    "duration": 0.4225945000000024
                },
                {
                    "name": "C#4",
                    "midi": 61,
                    "time": 45.21761150000005,
                    "velocity": 0.1732283464566929,
                    "duration": 0.4225945000000024
                },
                {
                    "name": "D#3",
                    "midi": 51,
                    "time": 45.21761150000005,
                    "velocity": 0.1732283464566929,
                    "duration": 0.4225945000000024
                },
                {
                    "name": "D#3",
                    "midi": 51,
                    "time": 45.64020600000005,
                    "velocity": 0.2125984251968504,
                    "duration": 0.8451889999999977
                },
                {
                    "name": "B3",
                    "midi": 59,
                    "time": 45.64020600000005,
                    "velocity": 0.2125984251968504,
                    "duration": 0.8451889999999977
                },
                {
                    "name": "D#4",
                    "midi": 63,
                    "time": 45.64020600000005,
                    "velocity": 0.25196850393700787,
                    "duration": 0.8451889999999977
                },
                {
                    "name": "D#4",
                    "midi": 63,
                    "time": 46.48539500000005,
                    "velocity": 0.18110236220472442,
                    "duration": 0.4225945000000024
                },
                {
                    "name": "G#3",
                    "midi": 56,
                    "time": 46.48539500000005,
                    "velocity": 0.14960629921259844,
                    "duration": 0.4225945000000024
                },
                {
                    "name": "D#3",
                    "midi": 51,
                    "time": 46.48539500000005,
                    "velocity": 0.14960629921259844,
                    "duration": 0.4225945000000024
                },
                {
                    "name": "D#4",
                    "midi": 63,
                    "time": 46.90798950000005,
                    "velocity": 0.18110236220472442,
                    "duration": 0.8451889999999977
                },
                {
                    "name": "D#3",
                    "midi": 51,
                    "time": 46.90798950000005,
                    "velocity": 0.14960629921259844,
                    "duration": 0.8451889999999977
                },
                {
                    "name": "E5",
                    "midi": 76,
                    "time": 47.75317850000005,
                    "velocity": 0.25984251968503935,
                    "duration": 0.2112972500000012
                },
                {
                    "name": "E4",
                    "midi": 64,
                    "time": 47.75317850000005,
                    "velocity": 0.2204724409448819,
                    "duration": 0.2112972500000012
                },
                {
                    "name": "F#5",
                    "midi": 78,
                    "time": 47.96447575000005,
                    "velocity": 0.28346456692913385,
                    "duration": 0.2112972500000012
                },
                {
                    "name": "F#4",
                    "midi": 66,
                    "time": 47.96447575000005,
                    "velocity": 0.23622047244094488,
                    "duration": 0.2112972500000012
                },
                {
                    "name": "G#4",
                    "midi": 68,
                    "time": 48.17577300000005,
                    "velocity": 0.2677165354330709,
                    "duration": 0.4225945000000024
                },
                {
                    "name": "G#5",
                    "midi": 80,
                    "time": 48.17577300000005,
                    "velocity": 0.31496062992125984,
                    "duration": 0.4225945000000024
                },
                {
                    "name": "F#4",
                    "midi": 66,
                    "time": 48.59836750000005,
                    "velocity": 0.25984251968503935,
                    "duration": 0.4225945000000024
                },
                {
                    "name": "F#5",
                    "midi": 78,
                    "time": 48.59836750000005,
                    "velocity": 0.25984251968503935,
                    "duration": 0.4225945000000024
                },
                {
                    "name": "E5",
                    "midi": 76,
                    "time": 49.020962000000054,
                    "velocity": 0.1968503937007874,
                    "duration": 0.4225945000000024
                },
                {
                    "name": "E4",
                    "midi": 64,
                    "time": 49.020962000000054,
                    "velocity": 0.16535433070866143,
                    "duration": 0.4225945000000024
                },
                {
                    "name": "D#5",
                    "midi": 75,
                    "time": 49.44355650000006,
                    "velocity": 0.1968503937007874,
                    "duration": 0.8451889999999977
                },
                {
                    "name": "D#4",
                    "midi": 63,
                    "time": 49.44355650000006,
                    "velocity": 0.16535433070866143,
                    "duration": 0.8451889999999977
                },
                {
                    "name": "E5",
                    "midi": 76,
                    "time": 50.288745500000054,
                    "velocity": 0.25984251968503935,
                    "duration": 0.2112972500000012
                },
                {
                    "name": "E4",
                    "midi": 64,
                    "time": 50.288745500000054,
                    "velocity": 0.2204724409448819,
                    "duration": 0.2112972500000012
                },
                {
                    "name": "D#5",
                    "midi": 75,
                    "time": 50.500042750000055,
                    "velocity": 0.23622047244094488,
                    "duration": 0.2112972500000012
                },
                {
                    "name": "F#5",
                    "midi": 78,
                    "time": 50.500042750000055,
                    "velocity": 0.28346456692913385,
                    "duration": 0.2112972500000012
                },
                {
                    "name": "F#4",
                    "midi": 66,
                    "time": 50.500042750000055,
                    "velocity": 0.23622047244094488,
                    "duration": 0.2112972500000012
                },
                {
                    "name": "E5",
                    "midi": 76,
                    "time": 50.71134000000006,
                    "velocity": 0.2677165354330709,
                    "duration": 0.4225945000000024
                },
                {
                    "name": "G#4",
                    "midi": 68,
                    "time": 50.71134000000006,
                    "velocity": 0.2677165354330709,
                    "duration": 0.4225945000000024
                },
                {
                    "name": "G#5",
                    "midi": 80,
                    "time": 50.71134000000006,
                    "velocity": 0.31496062992125984,
                    "duration": 0.4225945000000024
                },
                {
                    "name": "D#5",
                    "midi": 75,
                    "time": 51.13393450000006,
                    "velocity": 0.2283464566929134,
                    "duration": 0.4225945000000024
                },
                {
                    "name": "F#5",
                    "midi": 78,
                    "time": 51.13393450000006,
                    "velocity": 0.2755905511811024,
                    "duration": 0.4225945000000024
                },
                {
                    "name": "F#4",
                    "midi": 66,
                    "time": 51.13393450000006,
                    "velocity": 0.2283464566929134,
                    "duration": 0.4225945000000024
                },
                {
                    "name": "C#5",
                    "midi": 73,
                    "time": 51.55652900000006,
                    "velocity": 0.16535433070866143,
                    "duration": 0.4225945000000024
                },
                {
                    "name": "E5",
                    "midi": 76,
                    "time": 51.55652900000006,
                    "velocity": 0.1968503937007874,
                    "duration": 0.4225945000000024
                },
                {
                    "name": "E4",
                    "midi": 64,
                    "time": 51.55652900000006,
                    "velocity": 0.16535433070866143,
                    "duration": 0.4225945000000024
                },
                {
                    "name": "D#5",
                    "midi": 75,
                    "time": 51.979123500000064,
                    "velocity": 0.16535433070866143,
                    "duration": 0.4225945000000024
                },
                {
                    "name": "D#4",
                    "midi": 63,
                    "time": 51.979123500000064,
                    "velocity": 0.13385826771653545,
                    "duration": 0.4225945000000024
                },
                {
                    "name": "B4",
                    "midi": 71,
                    "time": 51.979123500000064,
                    "velocity": 0.13385826771653545,
                    "duration": 0.4225945000000024
                },
                {
                    "name": "A#4",
                    "midi": 70,
                    "time": 52.401718000000066,
                    "velocity": 0.11811023622047244,
                    "duration": 0.4225945000000024
                },
                {
                    "name": "C#5",
                    "midi": 73,
                    "time": 52.401718000000066,
                    "velocity": 0.14173228346456693,
                    "duration": 0.4225945000000024
                },
                {
                    "name": "C#4",
                    "midi": 61,
                    "time": 52.401718000000066,
                    "velocity": 0.11811023622047244,
                    "duration": 0.4225945000000024
                },
                {
                    "name": "B3",
                    "midi": 59,
                    "time": 52.82431250000007,
                    "velocity": 0.10236220472440945,
                    "duration": 0.4225945000000024
                },
                {
                    "name": "B4",
                    "midi": 71,
                    "time": 52.82431250000007,
                    "velocity": 0.12598425196850394,
                    "duration": 0.4225945000000024
                },
                {
                    "name": "G#4",
                    "midi": 68,
                    "time": 52.82431250000007,
                    "velocity": 0.10236220472440945,
                    "duration": 0.4225945000000024
                },
                {
                    "name": "F#4",
                    "midi": 66,
                    "time": 53.669501500000074,
                    "velocity": 0.18110236220472442,
                    "duration": 0.8451890000000049
                },
                {
                    "name": "A#4",
                    "midi": 70,
                    "time": 53.669501500000074,
                    "velocity": 0.2125984251968504,
                    "duration": 0.4225945000000024
                },
                {
                    "name": "A#3",
                    "midi": 58,
                    "time": 54.092096000000076,
                    "velocity": 0.13385826771653545,
                    "duration": 0.2112972500000012
                },
                {
                    "name": "G#4",
                    "midi": 68,
                    "time": 54.51469050000008,
                    "velocity": 0.2047244094488189,
                    "duration": 0.8451890000000049
                },
                {
                    "name": "B4",
                    "midi": 71,
                    "time": 54.51469050000008,
                    "velocity": 0.2440944881889764,
                    "duration": 0.4225945000000024
                },
                {
                    "name": "B3",
                    "midi": 59,
                    "time": 54.93728500000008,
                    "velocity": 0.14173228346456693,
                    "duration": 0.2112972500000012
                },
                {
                    "name": "F4",
                    "midi": 65,
                    "time": 55.35987950000008,
                    "velocity": 0.18110236220472442,
                    "duration": 0.4225945000000024
                },
                {
                    "name": "G#4",
                    "midi": 68,
                    "time": 55.35987950000008,
                    "velocity": 0.2204724409448819,
                    "duration": 0.4225945000000024
                },
                {
                    "name": "G#3",
                    "midi": 56,
                    "time": 55.782474000000086,
                    "velocity": 0.12598425196850394,
                    "duration": 0.2112972500000012
                },
                {
                    "name": "F5",
                    "midi": 77,
                    "time": 56.20506850000009,
                    "velocity": 0.18110236220472442,
                    "duration": 0.4225945000000024
                },
                {
                    "name": "G#5",
                    "midi": 80,
                    "time": 56.20506850000009,
                    "velocity": 0.2125984251968504,
                    "duration": 0.8451890000000049
                },
                {
                    "name": "G#4",
                    "midi": 68,
                    "time": 56.62766300000009,
                    "velocity": 0.13385826771653545,
                    "duration": 0.2112972500000012
                },
                {
                    "name": "F#5",
                    "midi": 78,
                    "time": 57.05025750000009,
                    "velocity": 0.2047244094488189,
                    "duration": 0.4225945000000024
                },
                {
                    "name": "A#5",
                    "midi": 82,
                    "time": 57.05025750000009,
                    "velocity": 0.2440944881889764,
                    "duration": 0.8451890000000049
                },
                {
                    "name": "A#4",
                    "midi": 70,
                    "time": 57.472852000000096,
                    "velocity": 0.14173228346456693,
                    "duration": 0.2112972500000012
                },
                {
                    "name": "D#5",
                    "midi": 75,
                    "time": 57.8954465000001,
                    "velocity": 0.18110236220472442,
                    "duration": 0.4225945000000024
                },
                {
                    "name": "F#5",
                    "midi": 78,
                    "time": 57.8954465000001,
                    "velocity": 0.2204724409448819,
                    "duration": 0.4225945000000024
                },
                {
                    "name": "F#4",
                    "midi": 66,
                    "time": 58.3180410000001,
                    "velocity": 0.14173228346456693,
                    "duration": 0.2112972500000012
                },
                {
                    "name": "D#4",
                    "midi": 63,
                    "time": 58.7406355000001,
                    "velocity": 0.16535433070866143,
                    "duration": 0.8451890000000049
                },
                {
                    "name": "F#4",
                    "midi": 66,
                    "time": 58.7406355000001,
                    "velocity": 0.2047244094488189,
                    "duration": 0.4225945000000024
                },
                {
                    "name": "F#3",
                    "midi": 54,
                    "time": 59.163230000000105,
                    "velocity": 0.11811023622047244,
                    "duration": 0.2112972500000012
                },
                {
                    "name": "B3",
                    "midi": 59,
                    "time": 59.58582450000011,
                    "velocity": 0.16535433070866143,
                    "duration": 0.8451890000000049
                },
                {
                    "name": "D#4",
                    "midi": 63,
                    "time": 59.58582450000011,
                    "velocity": 0.16535433070866143,
                    "duration": 0.4225945000000024
                },
                {
                    "name": "F4",
                    "midi": 65,
                    "time": 59.58582450000011,
                    "velocity": 0.2047244094488189,
                    "duration": 0.4225945000000024
                },
                {
                    "name": "F3",
                    "midi": 53,
                    "time": 60.00841900000011,
                    "velocity": 0.12598425196850394,
                    "duration": 0.2112972500000012
                },
                {
                    "name": "B3",
                    "midi": 59,
                    "time": 60.43101350000011,
                    "velocity": 0.16535433070866143,
                    "duration": 0.4225945000000024
                },
                {
                    "name": "D#4",
                    "midi": 63,
                    "time": 60.43101350000011,
                    "velocity": 0.16535433070866143,
                    "duration": 0.4225945000000024
                },
                {
                    "name": "F4",
                    "midi": 65,
                    "time": 60.43101350000011,
                    "velocity": 0.2047244094488189,
                    "duration": 0.4225945000000024
                },
                {
                    "name": "A#4",
                    "midi": 70,
                    "time": 61.27620250000012,
                    "velocity": 0.1889763779527559,
                    "duration": 0.4225945000000024
                },
                {
                    "name": "C#5",
                    "midi": 73,
                    "time": 61.27620250000012,
                    "velocity": 0.1889763779527559,
                    "duration": 0.4225945000000024
                },
                {
                    "name": "F5",
                    "midi": 77,
                    "time": 61.27620250000012,
                    "velocity": 0.2283464566929134,
                    "duration": 0.8451890000000049
                },
                {
                    "name": "F4",
                    "midi": 65,
                    "time": 61.69879700000012,
                    "velocity": 0.13385826771653545,
                    "duration": 0.2112972500000012
                },
                {
                    "name": "A#4",
                    "midi": 70,
                    "time": 62.12139150000012,
                    "velocity": 0.1889763779527559,
                    "duration": 0.4225945000000024
                },
                {
                    "name": "C#5",
                    "midi": 73,
                    "time": 62.12139150000012,
                    "velocity": 0.1889763779527559,
                    "duration": 0.4225945000000024
                },
                {
                    "name": "D#5",
                    "midi": 75,
                    "time": 62.12139150000012,
                    "velocity": 0.2283464566929134,
                    "duration": 0.8451890000000049
                },
                {
                    "name": "D#4",
                    "midi": 63,
                    "time": 62.543986000000125,
                    "velocity": 0.14173228346456693,
                    "duration": 0.2112972500000012
                },
                {
                    "name": "A#4",
                    "midi": 70,
                    "time": 62.96658050000013,
                    "velocity": 0.1889763779527559,
                    "duration": 0.4225945000000024
                },
                {
                    "name": "C#5",
                    "midi": 73,
                    "time": 62.96658050000013,
                    "velocity": 0.1889763779527559,
                    "duration": 0.4225945000000024
                },
                {
                    "name": "D#5",
                    "midi": 75,
                    "time": 62.96658050000013,
                    "velocity": 0.2283464566929134,
                    "duration": 0.4225945000000024
                },
                {
                    "name": "A#3",
                    "midi": 58,
                    "time": 63.81176950000013,
                    "velocity": 0.15748031496062992,
                    "duration": 0.4225944999999953
                },
                {
                    "name": "C4",
                    "midi": 60,
                    "time": 63.81176950000013,
                    "velocity": 0.15748031496062992,
                    "duration": 0.4225944999999953
                },
                {
                    "name": "E4",
                    "midi": 64,
                    "time": 63.81176950000013,
                    "velocity": 0.1968503937007874,
                    "duration": 0.8451889999999977
                },
                {
                    "name": "E3",
                    "midi": 52,
                    "time": 64.23436400000013,
                    "velocity": 0.11811023622047244,
                    "duration": 0.4225945000000024
                },
                {
                    "name": "A#3",
                    "midi": 58,
                    "time": 64.65695850000013,
                    "velocity": 0.1889763779527559,
                    "duration": 0.4225945000000024
                },
                {
                    "name": "C4",
                    "midi": 60,
                    "time": 64.65695850000013,
                    "velocity": 0.1889763779527559,
                    "duration": 0.4225945000000024
                },
                {
                    "name": "F4",
                    "midi": 65,
                    "time": 64.65695850000013,
                    "velocity": 0.2283464566929134,
                    "duration": 0.8451890000000049
                },
                {
                    "name": "F3",
                    "midi": 53,
                    "time": 65.07955300000013,
                    "velocity": 0.12598425196850394,
                    "duration": 0.4225945000000024
                },
                {
                    "name": "A#3",
                    "midi": 58,
                    "time": 65.50214750000013,
                    "velocity": 0.15748031496062992,
                    "duration": 0.4225945000000024
                },
                {
                    "name": "C4",
                    "midi": 60,
                    "time": 65.50214750000013,
                    "velocity": 0.1968503937007874,
                    "duration": 0.4225945000000024
                },
                {
                    "name": "F4",
                    "midi": 65,
                    "time": 65.92474200000014,
                    "velocity": 0.16535433070866143,
                    "duration": 1.2677835000000073
                },
                {
                    "name": "A4",
                    "midi": 69,
                    "time": 65.92474200000014,
                    "velocity": 0.16535433070866143,
                    "duration": 1.2677835000000073
                },
                {
                    "name": "F5",
                    "midi": 77,
                    "time": 65.92474200000014,
                    "velocity": 0.1968503937007874,
                    "duration": 1.2677835000000073
                },
                {
                    "name": "D#5",
                    "midi": 75,
                    "time": 65.92474200000014,
                    "velocity": 0.16535433070866143,
                    "duration": 1.2677835000000073
                },
                {
                    "name": "C#5",
                    "midi": 73,
                    "time": 66.34733650000014,
                    "velocity": 0.16535433070866143,
                    "duration": 0.4225945000000024
                },
                {
                    "name": "C5",
                    "midi": 72,
                    "time": 66.76993100000014,
                    "velocity": 0.16535433070866143,
                    "duration": 0.4225945000000024
                },
                {
                    "name": "D#5",
                    "midi": 75,
                    "time": 67.19252550000014,
                    "velocity": 0.16535433070866143,
                    "duration": 0.8451890000000049
                },
                {
                    "name": "F4",
                    "midi": 65,
                    "time": 67.19252550000014,
                    "velocity": 0.16535433070866143,
                    "duration": 1.2677835000000073
                },
                {
                    "name": "A#4",
                    "midi": 70,
                    "time": 67.19252550000014,
                    "velocity": 0.16535433070866143,
                    "duration": 1.2677835000000073
                },
                {
                    "name": "F5",
                    "midi": 77,
                    "time": 67.19252550000014,
                    "velocity": 0.1968503937007874,
                    "duration": 1.2677835000000073
                },
                {
                    "name": "C#5",
                    "midi": 73,
                    "time": 68.03771450000015,
                    "velocity": 0.14960629921259844,
                    "duration": 0.4225945000000024
                },
                {
                    "name": "A#3",
                    "midi": 58,
                    "time": 68.88290350000015,
                    "velocity": 0.2440944881889764,
                    "duration": 0.4225945000000024
                },
                {
                    "name": "C4",
                    "midi": 60,
                    "time": 68.88290350000015,
                    "velocity": 0.2440944881889764,
                    "duration": 0.4225945000000024
                },
                {
                    "name": "E4",
                    "midi": 64,
                    "time": 68.88290350000015,
                    "velocity": 0.31496062992125984,
                    "duration": 0.8451890000000049
                },
                {
                    "name": "E3",
                    "midi": 52,
                    "time": 69.30549800000016,
                    "velocity": 0.18110236220472442,
                    "duration": 0.4225945000000024
                },
                {
                    "name": "A#3",
                    "midi": 58,
                    "time": 69.72809250000016,
                    "velocity": 0.28346456692913385,
                    "duration": 0.4225945000000024
                },
                {
                    "name": "D#4",
                    "midi": 63,
                    "time": 69.72809250000016,
                    "velocity": 0.28346456692913385,
                    "duration": 0.8451890000000049
                },
                {
                    "name": "F#4",
                    "midi": 66,
                    "time": 69.72809250000016,
                    "velocity": 0.36220472440944884,
                    "duration": 0.8451890000000049
                },
                {
                    "name": "F#3",
                    "midi": 54,
                    "time": 70.15068700000016,
                    "velocity": 0.1889763779527559,
                    "duration": 0.4225945000000024
                },
                {
                    "name": "F#3",
                    "midi": 54,
                    "time": 70.57328150000016,
                    "velocity": 0.2440944881889764,
                    "duration": 0.4225945000000024
                },
                {
                    "name": "D#3",
                    "midi": 51,
                    "time": 70.57328150000016,
                    "velocity": 0.2440944881889764,
                    "duration": 0.4225945000000024
                },
                {
                    "name": "C4",
                    "midi": 60,
                    "time": 70.57328150000016,
                    "velocity": 0.31496062992125984,
                    "duration": 0.4225945000000024
                },
                {
                    "name": "F4",
                    "midi": 65,
                    "time": 70.99587600000017,
                    "velocity": 0.16535433070866143,
                    "duration": 1.2677835000000073
                },
                {
                    "name": "A4",
                    "midi": 69,
                    "time": 70.99587600000017,
                    "velocity": 0.16535433070866143,
                    "duration": 1.2677835000000073
                },
                {
                    "name": "F5",
                    "midi": 77,
                    "time": 70.99587600000017,
                    "velocity": 0.1968503937007874,
                    "duration": 1.2677835000000073
                },
                {
                    "name": "D#5",
                    "midi": 75,
                    "time": 70.99587600000017,
                    "velocity": 0.16535433070866143,
                    "duration": 1.2677835000000073
                },
                {
                    "name": "C#5",
                    "midi": 73,
                    "time": 71.41847050000017,
                    "velocity": 0.16535433070866143,
                    "duration": 0.4225945000000024
                },
                {
                    "name": "C5",
                    "midi": 72,
                    "time": 71.84106500000017,
                    "velocity": 0.16535433070866143,
                    "duration": 0.4225945000000024
                },
                {
                    "name": "G#4",
                    "midi": 68,
                    "time": 72.26365950000017,
                    "velocity": 0.14173228346456693,
                    "duration": 0.4225945000000024
                },
                {
                    "name": "A#4",
                    "midi": 70,
                    "time": 72.26365950000017,
                    "velocity": 0.14173228346456693,
                    "duration": 1.2677835000000073
                },
                {
                    "name": "G#5",
                    "midi": 80,
                    "time": 72.26365950000017,
                    "velocity": 0.1732283464566929,
                    "duration": 0.4225945000000024
                },
                {
                    "name": "D5",
                    "midi": 74,
                    "time": 72.26365950000017,
                    "velocity": 0.14173228346456693,
                    "duration": 1.2677835000000073
                },
                {
                    "name": "F#4",
                    "midi": 66,
                    "time": 72.68625400000018,
                    "velocity": 0.11023622047244094,
                    "duration": 0.4225945000000024
                },
                {
                    "name": "F#5",
                    "midi": 78,
                    "time": 72.68625400000018,
                    "velocity": 0.13385826771653545,
                    "duration": 0.4225945000000024
                },
                {
                    "name": "F4",
                    "midi": 65,
                    "time": 73.10884850000018,
                    "velocity": 0.10236220472440945,
                    "duration": 0.4225945000000024
                },
                {
                    "name": "F5",
                    "midi": 77,
                    "time": 73.10884850000018,
                    "velocity": 0.12598425196850394,
                    "duration": 0.4225945000000024
                },
                {
                    "name": "F#4",
                    "midi": 66,
                    "time": 73.95403750000018,
                    "velocity": 0.2047244094488189,
                    "duration": 0.8451890000000049
                },
                {
                    "name": "A#4",
                    "midi": 70,
                    "time": 73.95403750000018,
                    "velocity": 0.2440944881889764,
                    "duration": 0.4225945000000024
                },
                {
                    "name": "A#3",
                    "midi": 58,
                    "time": 74.37663200000019,
                    "velocity": 0.14960629921259844,
                    "duration": 0.2112972500000012
                },
                {
                    "name": "G#4",
                    "midi": 68,
                    "time": 74.79922650000019,
                    "velocity": 0.2283464566929134,
                    "duration": 0.8451890000000049
                },
                {
                    "name": "B4",
                    "midi": 71,
                    "time": 74.79922650000019,
                    "velocity": 0.2755905511811024,
                    "duration": 0.4225945000000024
                },
                {
                    "name": "B3",
                    "midi": 59,
                    "time": 75.22182100000019,
                    "velocity": 0.15748031496062992,
                    "duration": 0.2112972500000012
                },
                {
                    "name": "E4",
                    "midi": 64,
                    "time": 75.64441550000019,
                    "velocity": 0.2047244094488189,
                    "duration": 0.4225945000000024
                },
                {
                    "name": "G#4",
                    "midi": 68,
                    "time": 75.64441550000019,
                    "velocity": 0.25196850393700787,
                    "duration": 0.4225945000000024
                },
                {
                    "name": "G#3",
                    "midi": 56,
                    "time": 76.0670100000002,
                    "velocity": 0.14173228346456693,
                    "duration": 0.2112972500000012
                },
                {
                    "name": "A#4",
                    "midi": 70,
                    "time": 76.4896045000002,
                    "velocity": 0.2047244094488189,
                    "duration": 0.4225945000000024
                },
                {
                    "name": "C#5",
                    "midi": 73,
                    "time": 76.4896045000002,
                    "velocity": 0.2047244094488189,
                    "duration": 0.8451890000000049
                },
                {
                    "name": "E5",
                    "midi": 76,
                    "time": 76.4896045000002,
                    "velocity": 0.2047244094488189,
                    "duration": 0.8451890000000049
                },
                {
                    "name": "G#5",
                    "midi": 80,
                    "time": 76.4896045000002,
                    "velocity": 0.2440944881889764,
                    "duration": 0.8451890000000049
                },
                {
                    "name": "G#4",
                    "midi": 68,
                    "time": 76.9121990000002,
                    "velocity": 0.14960629921259844,
                    "duration": 0.2112972500000012
                },
                {
                    "name": "C#5",
                    "midi": 73,
                    "time": 77.3347935000002,
                    "velocity": 0.2283464566929134,
                    "duration": 0.4225945000000024
                },
                {
                    "name": "G5",
                    "midi": 79,
                    "time": 77.3347935000002,
                    "velocity": 0.2283464566929134,
                    "duration": 0.8451890000000049
                },
                {
                    "name": "A#5",
                    "midi": 82,
                    "time": 77.3347935000002,
                    "velocity": 0.2755905511811024,
                    "duration": 0.8451890000000049
                },
                {
                    "name": "A#4",
                    "midi": 70,
                    "time": 77.7573880000002,
                    "velocity": 0.15748031496062992,
                    "duration": 0.2112972500000012
                },
                {
                    "name": "C#4",
                    "midi": 61,
                    "time": 78.17998250000021,
                    "velocity": 0.2047244094488189,
                    "duration": 0.4225945000000024
                },
                {
                    "name": "A#4",
                    "midi": 70,
                    "time": 78.17998250000021,
                    "velocity": 0.2047244094488189,
                    "duration": 0.4225945000000024
                },
                {
                    "name": "C#5",
                    "midi": 73,
                    "time": 78.17998250000021,
                    "velocity": 0.25196850393700787,
                    "duration": 0.4225945000000024
                },
                {
                    "name": "C4",
                    "midi": 60,
                    "time": 79.02517150000021,
                    "velocity": 0.1889763779527559,
                    "duration": 0.4225945000000024
                },
                {
                    "name": "D#4",
                    "midi": 63,
                    "time": 79.02517150000021,
                    "velocity": 0.1889763779527559,
                    "duration": 0.8451890000000049
                },
                {
                    "name": "F#4",
                    "midi": 66,
                    "time": 79.02517150000021,
                    "velocity": 0.2283464566929134,
                    "duration": 0.8451890000000049
                },
                {
                    "name": "F#3",
                    "midi": 54,
                    "time": 79.44776600000021,
                    "velocity": 0.13385826771653545,
                    "duration": 0.2112972500000012
                },
                {
                    "name": "B3",
                    "midi": 59,
                    "time": 79.87036050000022,
                    "velocity": 0.1889763779527559,
                    "duration": 0.4225945000000024
                },
                {
                    "name": "D#4",
                    "midi": 63,
                    "time": 79.87036050000022,
                    "velocity": 0.1889763779527559,
                    "duration": 0.8451890000000049
                },
                {
                    "name": "F#4",
                    "midi": 66,
                    "time": 79.87036050000022,
                    "velocity": 0.2283464566929134,
                    "duration": 0.8451890000000049
                },
                {
                    "name": "F#3",
                    "midi": 54,
                    "time": 80.29295500000022,
                    "velocity": 0.14173228346456693,
                    "duration": 0.2112972500000012
                },
                {
                    "name": "B3",
                    "midi": 59,
                    "time": 80.71554950000022,
                    "velocity": 0.1889763779527559,
                    "duration": 0.4225945000000024
                },
                {
                    "name": "D#4",
                    "midi": 63,
                    "time": 80.71554950000022,
                    "velocity": 0.1889763779527559,
                    "duration": 0.4225945000000024
                },
                {
                    "name": "E4",
                    "midi": 64,
                    "time": 80.71554950000022,
                    "velocity": 0.2283464566929134,
                    "duration": 0.4225945000000024
                },
                {
                    "name": "E5",
                    "midi": 76,
                    "time": 81.56073850000023,
                    "velocity": 0.2125984251968504,
                    "duration": 0.8451890000000049
                },
                {
                    "name": "A#4",
                    "midi": 70,
                    "time": 81.56073850000023,
                    "velocity": 0.2125984251968504,
                    "duration": 0.4225945000000024
                },
                {
                    "name": "C#5",
                    "midi": 73,
                    "time": 81.56073850000023,
                    "velocity": 0.2125984251968504,
                    "duration": 0.8451890000000049
                },
                {
                    "name": "G#5",
                    "midi": 80,
                    "time": 81.56073850000023,
                    "velocity": 0.25984251968503935,
                    "duration": 0.8451890000000049
                },
                {
                    "name": "G#4",
                    "midi": 68,
                    "time": 81.98333300000023,
                    "velocity": 0.14960629921259844,
                    "duration": 0.2112972500000012
                },
                {
                    "name": "A#4",
                    "midi": 70,
                    "time": 82.40592750000023,
                    "velocity": 0.2125984251968504,
                    "duration": 0.4225945000000024
                },
                {
                    "name": "C#5",
                    "midi": 73,
                    "time": 82.40592750000023,
                    "velocity": 0.2125984251968504,
                    "duration": 0.8451890000000049
                },
                {
                    "name": "E5",
                    "midi": 76,
                    "time": 82.40592750000023,
                    "velocity": 0.25984251968503935,
                    "duration": 0.8451890000000049
                },
                {
                    "name": "E4",
                    "midi": 64,
                    "time": 82.82852200000023,
                    "velocity": 0.15748031496062992,
                    "duration": 0.2112972500000012
                },
                {
                    "name": "A#4",
                    "midi": 70,
                    "time": 83.25111650000024,
                    "velocity": 0.2125984251968504,
                    "duration": 0.4225945000000024
                },
                {
                    "name": "C#5",
                    "midi": 73,
                    "time": 83.25111650000024,
                    "velocity": 0.2125984251968504,
                    "duration": 0.4225945000000024
                },
                {
                    "name": "D#5",
                    "midi": 75,
                    "time": 83.25111650000024,
                    "velocity": 0.25984251968503935,
                    "duration": 0.4225945000000024
                },
                {
                    "name": "B3",
                    "midi": 59,
                    "time": 84.09630550000024,
                    "velocity": 0.18110236220472442,
                    "duration": 0.4225945000000024
                },
                {
                    "name": "D4",
                    "midi": 62,
                    "time": 84.09630550000024,
                    "velocity": 0.2204724409448819,
                    "duration": 0.8451890000000049
                },
                {
                    "name": "F3",
                    "midi": 53,
                    "time": 84.51890000000024,
                    "velocity": 0.13385826771653545,
                    "duration": 0.4225945000000024
                },
                {
                    "name": "A#3",
                    "midi": 58,
                    "time": 84.94149450000025,
                    "velocity": 0.2125984251968504,
                    "duration": 0.4225945000000024
                },
                {
                    "name": "D#4",
                    "midi": 63,
                    "time": 84.94149450000025,
                    "velocity": 0.25984251968503935,
                    "duration": 0.8451890000000049
                },
                {
                    "name": "D#3",
                    "midi": 51,
                    "time": 85.36408900000025,
                    "velocity": 0.14173228346456693,
                    "duration": 0.4225945000000024
                },
                {
                    "name": "F#3",
                    "midi": 54,
                    "time": 85.78668350000025,
                    "velocity": 0.18110236220472442,
                    "duration": 0.4225945000000024
                },
                {
                    "name": "A#3",
                    "midi": 58,
                    "time": 85.78668350000025,
                    "velocity": 0.2204724409448819,
                    "duration": 0.4225945000000024
                },
                {
                    "name": "A#3",
                    "midi": 58,
                    "time": 86.20927800000025,
                    "velocity": 0.16535433070866143,
                    "duration": 1.2677835000000073
                },
                {
                    "name": "D4",
                    "midi": 62,
                    "time": 86.20927800000025,
                    "velocity": 0.16535433070866143,
                    "duration": 1.2677835000000073
                },
                {
                    "name": "A#4",
                    "midi": 70,
                    "time": 86.20927800000025,
                    "velocity": 0.1968503937007874,
                    "duration": 1.2677835000000073
                },
                {
                    "name": "G#4",
                    "midi": 68,
                    "time": 86.20927800000025,
                    "velocity": 0.16535433070866143,
                    "duration": 1.2677835000000073
                },
                {
                    "name": "F#4",
                    "midi": 66,
                    "time": 86.63187250000026,
                    "velocity": 0.16535433070866143,
                    "duration": 0.4225945000000024
                },
                {
                    "name": "F4",
                    "midi": 65,
                    "time": 87.05446700000026,
                    "velocity": 0.16535433070866143,
                    "duration": 0.4225945000000024
                },
                {
                    "name": "G#4",
                    "midi": 68,
                    "time": 87.47706150000026,
                    "velocity": 0.16535433070866143,
                    "duration": 0.8451890000000049
                },
                {
                    "name": "A#3",
                    "midi": 58,
                    "time": 87.47706150000026,
                    "velocity": 0.16535433070866143,
                    "duration": 1.2677835000000073
                },
                {
                    "name": "D#4",
                    "midi": 63,
                    "time": 87.47706150000026,
                    "velocity": 0.16535433070866143,
                    "duration": 1.2677835000000073
                },
                {
                    "name": "A#4",
                    "midi": 70,
                    "time": 87.47706150000026,
                    "velocity": 0.1968503937007874,
                    "duration": 1.2677835000000073
                },
                {
                    "name": "F#4",
                    "midi": 66,
                    "time": 88.32225050000027,
                    "velocity": 0.14960629921259844,
                    "duration": 0.4225945000000024
                },
                {
                    "name": "G#4",
                    "midi": 68,
                    "time": 89.16743950000027,
                    "velocity": 0.2125984251968504,
                    "duration": 0.4225945000000024
                },
                {
                    "name": "B4",
                    "midi": 71,
                    "time": 89.16743950000027,
                    "velocity": 0.2125984251968504,
                    "duration": 0.8451890000000049
                },
                {
                    "name": "E5",
                    "midi": 76,
                    "time": 89.16743950000027,
                    "velocity": 0.2677165354330709,
                    "duration": 0.8451890000000049
                },
                {
                    "name": "E4",
                    "midi": 64,
                    "time": 89.59003400000027,
                    "velocity": 0.14960629921259844,
                    "duration": 0.4225945000000024
                },
                {
                    "name": "F#4",
                    "midi": 66,
                    "time": 90.01262850000028,
                    "velocity": 0.2283464566929134,
                    "duration": 0.4225945000000024
                },
                {
                    "name": "A#4",
                    "midi": 70,
                    "time": 90.01262850000028,
                    "velocity": 0.2283464566929134,
                    "duration": 0.8451890000000049
                },
                {
                    "name": "D#5",
                    "midi": 75,
                    "time": 90.01262850000028,
                    "velocity": 0.28346456692913385,
                    "duration": 0.8451890000000049
                },
                {
                    "name": "D#4",
                    "midi": 63,
                    "time": 90.43522300000028,
                    "velocity": 0.14960629921259844,
                    "duration": 0.4225945000000024
                },
                {
                    "name": "F#4",
                    "midi": 66,
                    "time": 90.85781750000028,
                    "velocity": 0.18110236220472442,
                    "duration": 0.4225945000000024
                },
                {
                    "name": "A#4",
                    "midi": 70,
                    "time": 90.85781750000028,
                    "velocity": 0.23622047244094488,
                    "duration": 0.4225945000000024
                },
                {
                    "name": "D3",
                    "midi": 50,
                    "time": 91.28041200000028,
                    "velocity": 0.16535433070866143,
                    "duration": 1.267783499999993
                },
                {
                    "name": "A#3",
                    "midi": 58,
                    "time": 91.28041200000028,
                    "velocity": 0.1968503937007874,
                    "duration": 1.267783499999993
                },
                {
                    "name": "G#3",
                    "midi": 56,
                    "time": 91.28041200000028,
                    "velocity": 0.16535433070866143,
                    "duration": 1.267783499999993
                },
                {
                    "name": "D3",
                    "midi": 50,
                    "time": 92.54819550000028,
                    "velocity": 0.16535433070866143,
                    "duration": 1.267783499999993
                },
                {
                    "name": "G#3",
                    "midi": 56,
                    "time": 92.54819550000028,
                    "velocity": 0.16535433070866143,
                    "duration": 1.267783499999993
                },
                {
                    "name": "A#3",
                    "midi": 58,
                    "time": 92.54819550000028,
                    "velocity": 0.1968503937007874,
                    "duration": 1.267783499999993
                },
                {
                    "name": "C#4",
                    "midi": 61,
                    "time": 93.81597900000027,
                    "velocity": 0.13385826771653545,
                    "duration": 0.8451890000000049
                },
                {
                    "name": "D#3",
                    "midi": 51,
                    "time": 93.81597900000027,
                    "velocity": 0.16535433070866143,
                    "duration": 1.2677835000000073
                },
                {
                    "name": "G3",
                    "midi": 55,
                    "time": 93.81597900000027,
                    "velocity": 0.16535433070866143,
                    "duration": 1.2677835000000073
                },
                {
                    "name": "D#4",
                    "midi": 63,
                    "time": 93.81597900000027,
                    "velocity": 0.1968503937007874,
                    "duration": 1.2677835000000073
                },
                {
                    "name": "B3",
                    "midi": 59,
                    "time": 94.66116800000027,
                    "velocity": 0.12598425196850394,
                    "duration": 0.8451890000000049
                },
                {
                    "name": "D#4",
                    "midi": 63,
                    "time": 95.08376250000028,
                    "velocity": 0.18110236220472442,
                    "duration": 1.267783499999993
                },
                {
                    "name": "G3",
                    "midi": 55,
                    "time": 95.08376250000028,
                    "velocity": 0.14960629921259844,
                    "duration": 1.267783499999993
                },
                {
                    "name": "D#3",
                    "midi": 51,
                    "time": 95.08376250000028,
                    "velocity": 0.14960629921259844,
                    "duration": 1.267783499999993
                },
                {
                    "name": "A#3",
                    "midi": 58,
                    "time": 95.50635700000028,
                    "velocity": 0.11811023622047244,
                    "duration": 0.2641215624999944
                },
                {
                    "name": "G4",
                    "midi": 67,
                    "time": 96.35154600000027,
                    "velocity": 0.1732283464566929,
                    "duration": 0.8451890000000049
                },
                {
                    "name": "D#4",
                    "midi": 63,
                    "time": 96.35154600000027,
                    "velocity": 0.1732283464566929,
                    "duration": 0.8451890000000049
                },
                {
                    "name": "D#5",
                    "midi": 75,
                    "time": 96.35154600000027,
                    "velocity": 0.30708661417322836,
                    "duration": 0.8451890000000049
                },
                {
                    "name": "D4",
                    "midi": 62,
                    "time": 96.77414050000027,
                    "velocity": 0.18110236220472442,
                    "duration": 0.4225945000000024
                },
                {
                    "name": "D5",
                    "midi": 74,
                    "time": 96.77414050000027,
                    "velocity": 0.2677165354330709,
                    "duration": 0.4225945000000024
                },
                {
                    "name": "D#6",
                    "midi": 87,
                    "time": 97.19673500000027,
                    "velocity": 0.2125984251968504,
                    "duration": 0.4225945000000024
                },
                {
                    "name": "G5",
                    "midi": 79,
                    "time": 97.19673500000027,
                    "velocity": 0.2125984251968504,
                    "duration": 0.4225945000000024
                },
                {
                    "name": "C4",
                    "midi": 60,
                    "time": 97.19673500000027,
                    "velocity": 0.1732283464566929,
                    "duration": 0.4225945000000024
                },
                {
                    "name": "D#4",
                    "midi": 63,
                    "time": 97.19673500000027,
                    "velocity": 0.1732283464566929,
                    "duration": 0.4225945000000024
                },
                {
                    "name": "D#5",
                    "midi": 75,
                    "time": 97.19673500000027,
                    "velocity": 0.1732283464566929,
                    "duration": 0.4225945000000024
                },
                {
                    "name": "C5",
                    "midi": 72,
                    "time": 97.19673500000027,
                    "velocity": 0.2440944881889764,
                    "duration": 0.4225945000000024
                },
                {
                    "name": "D#6",
                    "midi": 87,
                    "time": 97.61932950000028,
                    "velocity": 0.2283464566929134,
                    "duration": 0.8451890000000049
                },
                {
                    "name": "G5",
                    "midi": 79,
                    "time": 97.61932950000028,
                    "velocity": 0.2283464566929134,
                    "duration": 0.8451890000000049
                },
                {
                    "name": "A#3",
                    "midi": 58,
                    "time": 97.61932950000028,
                    "velocity": 0.18110236220472442,
                    "duration": 0.8451890000000049
                },
                {
                    "name": "D#4",
                    "midi": 63,
                    "time": 97.61932950000028,
                    "velocity": 0.18110236220472442,
                    "duration": 0.8451890000000049
                },
                {
                    "name": "D#5",
                    "midi": 75,
                    "time": 97.61932950000028,
                    "velocity": 0.18110236220472442,
                    "duration": 0.8451890000000049
                },
                {
                    "name": "A#4",
                    "midi": 70,
                    "time": 97.61932950000028,
                    "velocity": 0.2755905511811024,
                    "duration": 0.8451890000000049
                },
                {
                    "name": "G#3",
                    "midi": 56,
                    "time": 98.46451850000028,
                    "velocity": 0.18110236220472442,
                    "duration": 0.2112972500000012
                },
                {
                    "name": "D#4",
                    "midi": 63,
                    "time": 98.46451850000028,
                    "velocity": 0.18110236220472442,
                    "duration": 0.2112972500000012
                },
                {
                    "name": "G#4",
                    "midi": 68,
                    "time": 98.46451850000028,
                    "velocity": 0.25984251968503935,
                    "duration": 0.2112972500000012
                },
                {
                    "name": "G3",
                    "midi": 55,
                    "time": 98.67581575000028,
                    "velocity": 0.16535433070866143,
                    "duration": 0.2112972500000012
                },
                {
                    "name": "G4",
                    "midi": 67,
                    "time": 98.67581575000028,
                    "velocity": 0.2440944881889764,
                    "duration": 0.2112972500000012
                },
                {
                    "name": "G3",
                    "midi": 55,
                    "time": 98.88711300000028,
                    "velocity": 0.2204724409448819,
                    "duration": 0.8451890000000049
                },
                {
                    "name": "F4",
                    "midi": 65,
                    "time": 98.88711300000028,
                    "velocity": 0.28346456692913385,
                    "duration": 0.4225945000000024
                },
                {
                    "name": "D#4",
                    "midi": 63,
                    "time": 99.30970750000029,
                    "velocity": 0.25196850393700787,
                    "duration": 0.4225945000000024
                },
                {
                    "name": "D#6",
                    "midi": 87,
                    "time": 99.73230200000029,
                    "velocity": 0.2677165354330709,
                    "duration": 0.4225945000000024
                },
                {
                    "name": "G5",
                    "midi": 79,
                    "time": 99.73230200000029,
                    "velocity": 0.2677165354330709,
                    "duration": 0.4225945000000024
                },
                {
                    "name": "G3",
                    "midi": 55,
                    "time": 99.73230200000029,
                    "velocity": 0.2125984251968504,
                    "duration": 0.4225945000000024
                },
                {
                    "name": "D#4",
                    "midi": 63,
                    "time": 99.73230200000029,
                    "velocity": 0.2125984251968504,
                    "duration": 0.4225945000000024
                },
                {
                    "name": "D#5",
                    "midi": 75,
                    "time": 99.73230200000029,
                    "velocity": 0.2125984251968504,
                    "duration": 0.4225945000000024
                },
                {
                    "name": "G4",
                    "midi": 67,
                    "time": 99.73230200000029,
                    "velocity": 0.3228346456692913,
                    "duration": 0.4225945000000024
                },
                {
                    "name": "D#6",
                    "midi": 87,
                    "time": 100.15489650000029,
                    "velocity": 0.2440944881889764,
                    "duration": 0.8451890000000049
                },
                {
                    "name": "G5",
                    "midi": 79,
                    "time": 100.15489650000029,
                    "velocity": 0.2440944881889764,
                    "duration": 0.8451890000000049
                },
                {
                    "name": "A#3",
                    "midi": 58,
                    "time": 100.15489650000029,
                    "velocity": 0.1968503937007874,
                    "duration": 0.8451890000000049
                },
                {
                    "name": "D#4",
                    "midi": 63,
                    "time": 100.15489650000029,
                    "velocity": 0.1968503937007874,
                    "duration": 0.8451890000000049
                },
                {
                    "name": "D#5",
                    "midi": 75,
                    "time": 100.15489650000029,
                    "velocity": 0.1968503937007874,
                    "duration": 0.8451890000000049
                },
                {
                    "name": "A#4",
                    "midi": 70,
                    "time": 100.15489650000029,
                    "velocity": 0.28346456692913385,
                    "duration": 0.8451890000000049
                },
                {
                    "name": "C4",
                    "midi": 60,
                    "time": 101.0000855000003,
                    "velocity": 0.2755905511811024,
                    "duration": 0.2112972500000012
                },
                {
                    "name": "C5",
                    "midi": 72,
                    "time": 101.0000855000003,
                    "velocity": 0.31496062992125984,
                    "duration": 0.2112972500000012
                },
                {
                    "name": "D4",
                    "midi": 62,
                    "time": 101.2113827500003,
                    "velocity": 0.25984251968503935,
                    "duration": 0.2112972500000012
                },
                {
                    "name": "D5",
                    "midi": 74,
                    "time": 101.2113827500003,
                    "velocity": 0.2992125984251969,
                    "duration": 0.2112972500000012
                },
                {
                    "name": "A#4",
                    "midi": 70,
                    "time": 101.4226800000003,
                    "velocity": 0.2204724409448819,
                    "duration": 0.4225945000000024
                },
                {
                    "name": "D#4",
                    "midi": 63,
                    "time": 101.4226800000003,
                    "velocity": 0.2204724409448819,
                    "duration": 0.4225945000000024
                },
                {
                    "name": "D#5",
                    "midi": 75,
                    "time": 101.4226800000003,
                    "velocity": 0.3937007874015748,
                    "duration": 0.4225945000000024
                },
                {
                    "name": "D4",
                    "midi": 62,
                    "time": 101.8452745000003,
                    "velocity": 0.2125984251968504,
                    "duration": 0.4225945000000024
                },
                {
                    "name": "D5",
                    "midi": 74,
                    "time": 101.8452745000003,
                    "velocity": 0.2755905511811024,
                    "duration": 0.4225945000000024
                },
                {
                    "name": "D#6",
                    "midi": 87,
                    "time": 102.2678690000003,
                    "velocity": 0.25196850393700787,
                    "duration": 0.4225945000000024
                },
                {
                    "name": "G5",
                    "midi": 79,
                    "time": 102.2678690000003,
                    "velocity": 0.25196850393700787,
                    "duration": 0.4225945000000024
                },
                {
                    "name": "C4",
                    "midi": 60,
                    "time": 102.2678690000003,
                    "velocity": 0.2047244094488189,
                    "duration": 0.4225945000000024
                },
                {
                    "name": "D#4",
                    "midi": 63,
                    "time": 102.2678690000003,
                    "velocity": 0.2047244094488189,
                    "duration": 0.4225945000000024
                },
                {
                    "name": "D#5",
                    "midi": 75,
                    "time": 102.2678690000003,
                    "velocity": 0.2047244094488189,
                    "duration": 0.4225945000000024
                },
                {
                    "name": "C5",
                    "midi": 72,
                    "time": 102.2678690000003,
                    "velocity": 0.29133858267716534,
                    "duration": 0.4225945000000024
                },
                {
                    "name": "D#6",
                    "midi": 87,
                    "time": 102.6904635000003,
                    "velocity": 0.2755905511811024,
                    "duration": 0.8451890000000049
                },
                {
                    "name": "G5",
                    "midi": 79,
                    "time": 102.6904635000003,
                    "velocity": 0.2755905511811024,
                    "duration": 0.8451890000000049
                },
                {
                    "name": "A#3",
                    "midi": 58,
                    "time": 102.6904635000003,
                    "velocity": 0.2204724409448819,
                    "duration": 0.8451890000000049
                },
                {
                    "name": "D#4",
                    "midi": 63,
                    "time": 102.6904635000003,
                    "velocity": 0.2204724409448819,
                    "duration": 0.8451890000000049
                },
                {
                    "name": "D#5",
                    "midi": 75,
                    "time": 102.6904635000003,
                    "velocity": 0.2204724409448819,
                    "duration": 0.8451890000000049
                },
                {
                    "name": "A#4",
                    "midi": 70,
                    "time": 102.6904635000003,
                    "velocity": 0.33070866141732286,
                    "duration": 0.8451890000000049
                },
                {
                    "name": "G#3",
                    "midi": 56,
                    "time": 103.53565250000031,
                    "velocity": 0.2047244094488189,
                    "duration": 0.2112972500000012
                },
                {
                    "name": "D#4",
                    "midi": 63,
                    "time": 103.53565250000031,
                    "velocity": 0.2047244094488189,
                    "duration": 0.2112972500000012
                },
                {
                    "name": "G#4",
                    "midi": 68,
                    "time": 103.53565250000031,
                    "velocity": 0.29133858267716534,
                    "duration": 0.2112972500000012
                },
                {
                    "name": "G3",
                    "midi": 55,
                    "time": 103.74694975000031,
                    "velocity": 0.1889763779527559,
                    "duration": 0.2112972500000012
                },
                {
                    "name": "G4",
                    "midi": 67,
                    "time": 103.74694975000031,
                    "velocity": 0.2755905511811024,
                    "duration": 0.2112972500000012
                },
                {
                    "name": "A#3",
                    "midi": 58,
                    "time": 103.95824700000031,
                    "velocity": 0.25196850393700787,
                    "duration": 0.8451890000000049
                },
                {
                    "name": "A#4",
                    "midi": 70,
                    "time": 103.95824700000031,
                    "velocity": 0.3228346456692913,
                    "duration": 0.4225945000000024
                },
                {
                    "name": "D#4",
                    "midi": 63,
                    "time": 104.38084150000032,
                    "velocity": 0.28346456692913385,
                    "duration": 0.4225945000000024
                },
                {
                    "name": "G4",
                    "midi": 67,
                    "time": 104.69778737500032,
                    "velocity": 0.2204724409448819,
                    "duration": 0.1056486250000006
                },
                {
                    "name": "G#3",
                    "midi": 56,
                    "time": 104.80343600000032,
                    "velocity": 0.1889763779527559,
                    "duration": 0.4225945000000024
                },
                {
                    "name": "D4",
                    "midi": 62,
                    "time": 104.80343600000032,
                    "velocity": 0.1889763779527559,
                    "duration": 0.4225945000000024
                },
                {
                    "name": "F4",
                    "midi": 65,
                    "time": 104.80343600000032,
                    "velocity": 0.28346456692913385,
                    "duration": 0.4225945000000024
                },
                {
                    "name": "D#4",
                    "midi": 63,
                    "time": 105.22603050000032,
                    "velocity": 0.18110236220472442,
                    "duration": 0.6338917500000036
                },
                {
                    "name": "G3",
                    "midi": 55,
                    "time": 105.22603050000032,
                    "velocity": 0.18110236220472442,
                    "duration": 0.8451890000000049
                },
                {
                    "name": "G4",
                    "midi": 67,
                    "time": 105.85992225000032,
                    "velocity": 0.18110236220472442,
                    "duration": 0.2112972500000012
                },
                {
                    "name": "G4",
                    "midi": 67,
                    "time": 106.07121950000032,
                    "velocity": 0.18110236220472442,
                    "duration": 0.4225945000000024
                },
                {
                    "name": "A#4",
                    "midi": 70,
                    "time": 106.07121950000032,
                    "velocity": 0.2047244094488189,
                    "duration": 0.2112972500000012
                },
                {
                    "name": "G5",
                    "midi": 79,
                    "time": 106.28251675000033,
                    "velocity": 0.2047244094488189,
                    "duration": 0.2112972500000012
                },
                {
                    "name": "G#5",
                    "midi": 80,
                    "time": 106.49381400000033,
                    "velocity": 0.2283464566929134,
                    "duration": 0.8451890000000049
                },
                {
                    "name": "G#4",
                    "midi": 68,
                    "time": 106.49381400000033,
                    "velocity": 0.2047244094488189,
                    "duration": 0.8451890000000049
                },
                {
                    "name": "F5",
                    "midi": 77,
                    "time": 106.49381400000033,
                    "velocity": 0.36220472440944884,
                    "duration": 0.4225945000000024
                },
                {
                    "name": "C5",
                    "midi": 72,
                    "time": 106.91640850000033,
                    "velocity": 0.29133858267716534,
                    "duration": 0.4225945000000024
                },
                {
                    "name": "D5",
                    "midi": 74,
                    "time": 107.33900300000033,
                    "velocity": 0.29133858267716534,
                    "duration": 0.4225945000000024
                },
                {
                    "name": "F4",
                    "midi": 65,
                    "time": 107.33900300000033,
                    "velocity": 0.2047244094488189,
                    "duration": 0.4225945000000024
                },
                {
                    "name": "F5",
                    "midi": 77,
                    "time": 107.33900300000033,
                    "velocity": 0.2047244094488189,
                    "duration": 0.4225945000000024
                },
                {
                    "name": "G4",
                    "midi": 67,
                    "time": 107.76159750000033,
                    "velocity": 0.2204724409448819,
                    "duration": 0.8451890000000049
                },
                {
                    "name": "G5",
                    "midi": 79,
                    "time": 107.76159750000033,
                    "velocity": 0.2204724409448819,
                    "duration": 0.8451890000000049
                },
                {
                    "name": "A#4",
                    "midi": 70,
                    "time": 107.76159750000033,
                    "velocity": 0.33070866141732286,
                    "duration": 0.8451890000000049
                },
                {
                    "name": "D#5",
                    "midi": 75,
                    "time": 108.39548925000034,
                    "velocity": 0.2047244094488189,
                    "duration": 0.2112972500000012
                },
                {
                    "name": "A#4",
                    "midi": 70,
                    "time": 108.60678650000034,
                    "velocity": 0.2047244094488189,
                    "duration": 0.4225945000000024
                },
                {
                    "name": "A#5",
                    "midi": 82,
                    "time": 108.60678650000034,
                    "velocity": 0.2283464566929134,
                    "duration": 0.4225945000000024
                },
                {
                    "name": "G5",
                    "midi": 79,
                    "time": 108.60678650000034,
                    "velocity": 0.30708661417322836,
                    "duration": 0.2112972500000012
                },
                {
                    "name": "D#5",
                    "midi": 75,
                    "time": 108.81808375000034,
                    "velocity": 0.29133858267716534,
                    "duration": 0.2112972500000012
                },
                {
                    "name": "G#5",
                    "midi": 80,
                    "time": 109.02938100000034,
                    "velocity": 0.2283464566929134,
                    "duration": 0.8451890000000049
                },
                {
                    "name": "G#4",
                    "midi": 68,
                    "time": 109.02938100000034,
                    "velocity": 0.2047244094488189,
                    "duration": 0.8451890000000049
                },
                {
                    "name": "F5",
                    "midi": 77,
                    "time": 109.02938100000034,
                    "velocity": 0.36220472440944884,
                    "duration": 0.2112972500000012
                },
                {
                    "name": "D#5",
                    "midi": 75,
                    "time": 109.24067825000034,
                    "velocity": 0.29133858267716534,
                    "duration": 0.2112972500000012
                },
                {
                    "name": "F5",
                    "midi": 77,
                    "time": 109.45197550000034,
                    "velocity": 0.3228346456692913,
                    "duration": 0.2112972500000012
                },
                {
                    "name": "C5",
                    "midi": 72,
                    "time": 109.66327275000035,
                    "velocity": 0.2677165354330709,
                    "duration": 0.2112972500000012
                },
                {
                    "name": "D#5",
                    "midi": 75,
                    "time": 109.87457000000035,
                    "velocity": 0.29133858267716534,
                    "duration": 0.2112972500000012
                },
                {
                    "name": "F4",
                    "midi": 65,
                    "time": 109.87457000000035,
                    "velocity": 0.2047244094488189,
                    "duration": 0.4225945000000024
                },
                {
                    "name": "F5",
                    "midi": 77,
                    "time": 109.87457000000035,
                    "velocity": 0.2047244094488189,
                    "duration": 0.4225945000000024
                },
                {
                    "name": "D5",
                    "midi": 74,
                    "time": 110.08586725000035,
                    "velocity": 0.25984251968503935,
                    "duration": 0.2112972500000012
                },
                {
                    "name": "G4",
                    "midi": 67,
                    "time": 110.29716450000035,
                    "velocity": 0.2047244094488189,
                    "duration": 0.8451890000000049
                },
                {
                    "name": "G5",
                    "midi": 79,
                    "time": 110.29716450000035,
                    "velocity": 0.2047244094488189,
                    "duration": 0.8451890000000049
                },
                {
                    "name": "D#5",
                    "midi": 75,
                    "time": 110.29716450000035,
                    "velocity": 0.36220472440944884,
                    "duration": 0.2112972500000012
                },
                {
                    "name": "D5",
                    "midi": 74,
                    "time": 110.50846175000035,
                    "velocity": 0.3228346456692913,
                    "duration": 0.2112972500000012
                },
                {
                    "name": "D#5",
                    "midi": 75,
                    "time": 110.71975900000035,
                    "velocity": 0.3228346456692913,
                    "duration": 0.2112972500000012
                },
                {
                    "name": "A#4",
                    "midi": 70,
                    "time": 110.93105625000035,
                    "velocity": 0.28346456692913385,
                    "duration": 0.2112972500000012
                },
                {
                    "name": "D#5",
                    "midi": 75,
                    "time": 111.14235350000035,
                    "velocity": 0.25984251968503935,
                    "duration": 0.4225945000000024
                },
                {
                    "name": "C5",
                    "midi": 72,
                    "time": 111.14235350000035,
                    "velocity": 0.3700787401574803,
                    "duration": 0.2112972500000012
                },
                {
                    "name": "G4",
                    "midi": 67,
                    "time": 111.14235350000035,
                    "velocity": 0.25984251968503935,
                    "duration": 0.4225945000000024
                },
                {
                    "name": "A#4",
                    "midi": 70,
                    "time": 111.35365075000036,
                    "velocity": 0.33858267716535434,
                    "duration": 0.2112972500000012
                },
                {
                    "name": "F5",
                    "midi": 77,
                    "time": 111.56494800000036,
                    "velocity": 0.30708661417322836,
                    "duration": 0.8451890000000049
                },
                {
                    "name": "D5",
                    "midi": 74,
                    "time": 111.56494800000036,
                    "velocity": 0.3858267716535433,
                    "duration": 0.2112972500000012
                },
                {
                    "name": "F4",
                    "midi": 65,
                    "time": 111.56494800000036,
                    "velocity": 0.30708661417322836,
                    "duration": 0.8451890000000049
                },
                {
                    "name": "C5",
                    "midi": 72,
                    "time": 111.77624525000036,
                    "velocity": 0.3464566929133858,
                    "duration": 0.2112972500000012
                },
                {
                    "name": "D5",
                    "midi": 74,
                    "time": 111.98754250000036,
                    "velocity": 0.3937007874015748,
                    "duration": 0.2112972500000012
                },
                {
                    "name": "A#4",
                    "midi": 70,
                    "time": 112.19883975000036,
                    "velocity": 0.33858267716535434,
                    "duration": 0.2112972500000012
                },
                {
                    "name": "D#5",
                    "midi": 75,
                    "time": 112.41013700000036,
                    "velocity": 0.44881889763779526,
                    "duration": 0.4225945000000024
                },
                {
                    "name": "C5",
                    "midi": 72,
                    "time": 112.41013700000036,
                    "velocity": 0.3779527559055118,
                    "duration": 0.2112972500000012
                },
                {
                    "name": "D#4",
                    "midi": 63,
                    "time": 112.41013700000036,
                    "velocity": 0.3779527559055118,
                    "duration": 0.4225945000000024
                },
                {
                    "name": "A#4",
                    "midi": 70,
                    "time": 112.62143425000036,
                    "velocity": 0.36220472440944884,
                    "duration": 0.2112972500000012
                },
                {
                    "name": "F4",
                    "midi": 65,
                    "time": 112.83273150000036,
                    "velocity": 0.3858267716535433,
                    "duration": 0.8451890000000049
                },
                {
                    "name": "D5",
                    "midi": 74,
                    "time": 112.83273150000036,
                    "velocity": 0.44881889763779526,
                    "duration": 0.2112972500000012
                },
                {
                    "name": "F5",
                    "midi": 77,
                    "time": 112.83273150000036,
                    "velocity": 0.3858267716535433,
                    "duration": 0.8451890000000049
                },
                {
                    "name": "C5",
                    "midi": 72,
                    "time": 113.04402875000036,
                    "velocity": 0.4330708661417323,
                    "duration": 0.2112972500000012
                },
                {
                    "name": "D5",
                    "midi": 74,
                    "time": 113.25532600000037,
                    "velocity": 0.48031496062992124,
                    "duration": 0.2112972500000012
                },
                {
                    "name": "A#4",
                    "midi": 70,
                    "time": 113.46662325000037,
                    "velocity": 0.4330708661417323,
                    "duration": 0.2112972500000012
                },
                {
                    "name": "A5",
                    "midi": 81,
                    "time": 113.67792050000037,
                    "velocity": 0.4881889763779528,
                    "duration": 0.4225945000000024
                },
                {
                    "name": "F5",
                    "midi": 77,
                    "time": 113.67792050000037,
                    "velocity": 0.4881889763779528,
                    "duration": 0.4225945000000024
                },
                {
                    "name": "A4",
                    "midi": 69,
                    "time": 113.67792050000037,
                    "velocity": 0.41732283464566927,
                    "duration": 0.2112972500000012
                },
                {
                    "name": "A#4",
                    "midi": 70,
                    "time": 113.88921775000037,
                    "velocity": 0.36220472440944884,
                    "duration": 0.2112972500000012
                },
                {
                    "name": "D#5",
                    "midi": 75,
                    "time": 114.10051500000037,
                    "velocity": 0.4015748031496063,
                    "duration": 0.4225945000000024
                },
                {
                    "name": "A#4",
                    "midi": 70,
                    "time": 114.10051500000037,
                    "velocity": 0.4015748031496063,
                    "duration": 0.2112972500000012
                },
                {
                    "name": "G5",
                    "midi": 79,
                    "time": 114.10051500000037,
                    "velocity": 0.4881889763779528,
                    "duration": 0.4225945000000024
                },
                {
                    "name": "G4",
                    "midi": 67,
                    "time": 114.31181225000037,
                    "velocity": 0.3858267716535433,
                    "duration": 0.2112972500000012
                },
                {
                    "name": "F5",
                    "midi": 77,
                    "time": 114.52310950000037,
                    "velocity": 0.4330708661417323,
                    "duration": 0.4225945000000024
                },
                {
                    "name": "A4",
                    "midi": 69,
                    "time": 114.52310950000037,
                    "velocity": 0.36220472440944884,
                    "duration": 0.2112972500000012
                },
                {
                    "name": "D5",
                    "midi": 74,
                    "time": 114.52310950000037,
                    "velocity": 0.36220472440944884,
                    "duration": 0.4225945000000024
                },
                {
                    "name": "G4",
                    "midi": 67,
                    "time": 114.73440675000037,
                    "velocity": 0.2992125984251969,
                    "duration": 0.2112972500000012
                },
                {
                    "name": "C5",
                    "midi": 72,
                    "time": 114.94570400000038,
                    "velocity": 0.29133858267716534,
                    "duration": 0.2112972500000012
                },
                {
                    "name": "G4",
                    "midi": 67,
                    "time": 114.94570400000038,
                    "velocity": 0.29133858267716534,
                    "duration": 0.2112972500000012
                },
                {
                    "name": "D#5",
                    "midi": 75,
                    "time": 114.94570400000038,
                    "velocity": 0.36220472440944884,
                    "duration": 0.2112972500000012
                },
                {
                    "name": "A#4",
                    "midi": 70,
                    "time": 115.15700125000038,
                    "velocity": 0.25196850393700787,
                    "duration": 0.2112972500000012
                },
                {
                    "name": "F4",
                    "midi": 65,
                    "time": 115.15700125000038,
                    "velocity": 0.25196850393700787,
                    "duration": 0.2112972500000012
                },
                {
                    "name": "D5",
                    "midi": 74,
                    "time": 115.15700125000038,
                    "velocity": 0.30708661417322836,
                    "duration": 0.2112972500000012
                },
                {
                    "name": "G#4",
                    "midi": 68,
                    "time": 115.36829850000038,
                    "velocity": 0.2283464566929134,
                    "duration": 0.8451890000000049
                },
                {
                    "name": "D#4",
                    "midi": 63,
                    "time": 115.36829850000038,
                    "velocity": 0.1968503937007874,
                    "duration": 0.2112972500000012
                },
                {
                    "name": "C5",
                    "midi": 72,
                    "time": 115.36829850000038,
                    "velocity": 0.33070866141732286,
                    "duration": 0.4225945000000024
                },
                {
                    "name": "C4",
                    "midi": 60,
                    "time": 115.57959575000038,
                    "velocity": 0.25984251968503935,
                    "duration": 0.2112972500000012
                },
                {
                    "name": "G4",
                    "midi": 67,
                    "time": 115.79089300000038,
                    "velocity": 0.25196850393700787,
                    "duration": 0.4225945000000024
                },
                {
                    "name": "D4",
                    "midi": 62,
                    "time": 115.79089300000038,
                    "velocity": 0.25196850393700787,
                    "duration": 0.2112972500000012
                },
                {
                    "name": "A#4",
                    "midi": 70,
                    "time": 115.79089300000038,
                    "velocity": 0.2992125984251969,
                    "duration": 0.4225945000000024
                },
                {
                    "name": "A#3",
                    "midi": 58,
                    "time": 116.00219025000038,
                    "velocity": 0.2125984251968504,
                    "duration": 0.2112972500000012
                },
                {
                    "name": "A#4",
                    "midi": 70,
                    "time": 116.21348750000038,
                    "velocity": 0.25984251968503935,
                    "duration": 0.4225945000000024
                },
                {
                    "name": "D#4",
                    "midi": 63,
                    "time": 116.21348750000038,
                    "velocity": 0.2125984251968504,
                    "duration": 0.2112972500000012
                },
                {
                    "name": "G#4",
                    "midi": 68,
                    "time": 116.21348750000038,
                    "velocity": 0.25984251968503935,
                    "duration": 0.2112972500000012
                },
                {
                    "name": "C4",
                    "midi": 60,
                    "time": 116.21348750000038,
                    "velocity": 0.2125984251968504,
                    "duration": 0.2112972500000012
                },
                {
                    "name": "D4",
                    "midi": 62,
                    "time": 116.42478475000038,
                    "velocity": 0.2125984251968504,
                    "duration": 0.2112972500000012
                },
                {
                    "name": "F4",
                    "midi": 65,
                    "time": 116.42478475000038,
                    "velocity": 0.2125984251968504,
                    "duration": 0.2112972500000012
                },
                {
                    "name": "D#4",
                    "midi": 63,
                    "time": 116.63608200000039,
                    "velocity": 0.18110236220472442,
                    "duration": 0.8451890000000049
                },
                {
                    "name": "D#5",
                    "midi": 75,
                    "time": 116.63608200000039,
                    "velocity": 0.31496062992125984,
                    "duration": 0.8451890000000049
                },
                {
                    "name": "D5",
                    "midi": 74,
                    "time": 117.05867650000039,
                    "velocity": 0.28346456692913385,
                    "duration": 0.4225945000000024
                },
                {
                    "name": "D#4",
                    "midi": 63,
                    "time": 117.48127100000039,
                    "velocity": 0.18110236220472442,
                    "duration": 0.4225945000000024
                },
                {
                    "name": "D#5",
                    "midi": 75,
                    "time": 117.48127100000039,
                    "velocity": 0.18110236220472442,
                    "duration": 0.4225945000000024
                },
                {
                    "name": "C5",
                    "midi": 72,
                    "time": 117.48127100000039,
                    "velocity": 0.25984251968503935,
                    "duration": 0.4225945000000024
                },
                {
                    "name": "D#4",
                    "midi": 63,
                    "time": 117.90386550000039,
                    "velocity": 0.1968503937007874,
                    "duration": 0.8451890000000049
                },
                {
                    "name": "D#5",
                    "midi": 75,
                    "time": 117.90386550000039,
                    "velocity": 0.1968503937007874,
                    "duration": 0.8451890000000049
                },
                {
                    "name": "A#4",
                    "midi": 70,
                    "time": 117.90386550000039,
                    "velocity": 0.29133858267716534,
                    "duration": 0.8451890000000049
                },
                {
                    "name": "D#4",
                    "midi": 63,
                    "time": 118.7490545000004,
                    "velocity": 0.18110236220472442,
                    "duration": 0.4225945000000024
                },
                {
                    "name": "D#5",
                    "midi": 75,
                    "time": 118.7490545000004,
                    "velocity": 0.18110236220472442,
                    "duration": 0.4225945000000024
                },
                {
                    "name": "G#4",
                    "midi": 68,
                    "time": 118.7490545000004,
                    "velocity": 0.25984251968503935,
                    "duration": 0.2112972500000012
                },
                {
                    "name": "G4",
                    "midi": 67,
                    "time": 118.9603517500004,
                    "velocity": 0.2440944881889764,
                    "duration": 0.2112972500000012
                },
                {
                    "name": "D#5",
                    "midi": 75,
                    "time": 119.1716490000004,
                    "velocity": 0.2204724409448819,
                    "duration": 0.8451890000000049
                },
                {
                    "name": "F4",
                    "midi": 65,
                    "time": 119.1716490000004,
                    "velocity": 0.28346456692913385,
                    "duration": 0.4225945000000024
                },
                {
                    "name": "D#4",
                    "midi": 63,
                    "time": 119.5942435000004,
                    "velocity": 0.25196850393700787,
                    "duration": 0.4225945000000024
                },
                {
                    "name": "D#5",
                    "midi": 75,
                    "time": 120.0168380000004,
                    "velocity": 0.1889763779527559,
                    "duration": 0.4225945000000024
                },
                {
                    "name": "G4",
                    "midi": 67,
                    "time": 120.0168380000004,
                    "velocity": 0.28346456692913385,
                    "duration": 0.4225945000000024
                },
                {
                    "name": "D#4",
                    "midi": 63,
                    "time": 120.43943250000041,
                    "velocity": 0.1732283464566929,
                    "duration": 0.8451890000000049
                },
                {
                    "name": "D#5",
                    "midi": 75,
                    "time": 120.43943250000041,
                    "velocity": 0.1732283464566929,
                    "duration": 0.8451890000000049
                },
                {
                    "name": "A#4",
                    "midi": 70,
                    "time": 120.43943250000041,
                    "velocity": 0.25196850393700787,
                    "duration": 0.8451890000000049
                },
                {
                    "name": "D#4",
                    "midi": 63,
                    "time": 121.28462150000041,
                    "velocity": 0.18110236220472442,
                    "duration": 0.4225945000000024
                },
                {
                    "name": "D#5",
                    "midi": 75,
                    "time": 121.28462150000041,
                    "velocity": 0.18110236220472442,
                    "duration": 0.4225945000000024
                },
                {
                    "name": "C5",
                    "midi": 72,
                    "time": 121.28462150000041,
                    "velocity": 0.25984251968503935,
                    "duration": 0.2112972500000012
                },
                {
                    "name": "D5",
                    "midi": 74,
                    "time": 121.49591875000041,
                    "velocity": 0.2440944881889764,
                    "duration": 0.2112972500000012
                },
                {
                    "name": "D#4",
                    "midi": 63,
                    "time": 121.70721600000041,
                    "velocity": 0.18110236220472442,
                    "duration": 0.8451890000000049
                },
                {
                    "name": "D#5",
                    "midi": 75,
                    "time": 121.70721600000041,
                    "velocity": 0.31496062992125984,
                    "duration": 0.8451890000000049
                },
                {
                    "name": "D5",
                    "midi": 74,
                    "time": 122.12981050000042,
                    "velocity": 0.28346456692913385,
                    "duration": 0.4225945000000024
                },
                {
                    "name": "D#4",
                    "midi": 63,
                    "time": 122.55240500000042,
                    "velocity": 0.18110236220472442,
                    "duration": 0.4225945000000024
                },
                {
                    "name": "D#5",
                    "midi": 75,
                    "time": 122.55240500000042,
                    "velocity": 0.18110236220472442,
                    "duration": 0.4225945000000024
                },
                {
                    "name": "C5",
                    "midi": 72,
                    "time": 122.55240500000042,
                    "velocity": 0.25984251968503935,
                    "duration": 0.4225945000000024
                },
                {
                    "name": "D#4",
                    "midi": 63,
                    "time": 122.97499950000042,
                    "velocity": 0.1968503937007874,
                    "duration": 0.8451890000000049
                },
                {
                    "name": "D#5",
                    "midi": 75,
                    "time": 122.97499950000042,
                    "velocity": 0.1968503937007874,
                    "duration": 0.8451890000000049
                },
                {
                    "name": "A#4",
                    "midi": 70,
                    "time": 122.97499950000042,
                    "velocity": 0.29133858267716534,
                    "duration": 0.8451890000000049
                },
                {
                    "name": "D#4",
                    "midi": 63,
                    "time": 123.82018850000043,
                    "velocity": 0.18110236220472442,
                    "duration": 0.4225945000000024
                },
                {
                    "name": "D#5",
                    "midi": 75,
                    "time": 123.82018850000043,
                    "velocity": 0.18110236220472442,
                    "duration": 0.4225945000000024
                },
                {
                    "name": "A4",
                    "midi": 69,
                    "time": 123.82018850000043,
                    "velocity": 0.25984251968503935,
                    "duration": 0.2112972500000012
                },
                {
                    "name": "G4",
                    "midi": 67,
                    "time": 124.03148575000043,
                    "velocity": 0.2440944881889764,
                    "duration": 0.2112972500000012
                },
                {
                    "name": "D#4",
                    "midi": 63,
                    "time": 124.24278300000043,
                    "velocity": 0.15748031496062992,
                    "duration": 0.8451890000000049
                },
                {
                    "name": "D#5",
                    "midi": 75,
                    "time": 124.24278300000043,
                    "velocity": 0.2204724409448819,
                    "duration": 0.8451890000000049
                },
                {
                    "name": "A4",
                    "midi": 69,
                    "time": 124.24278300000043,
                    "velocity": 0.28346456692913385,
                    "duration": 0.4225945000000024
                },
                {
                    "name": "A#4",
                    "midi": 70,
                    "time": 124.66537750000043,
                    "velocity": 0.25196850393700787,
                    "duration": 0.4225945000000024
                },
                {
                    "name": "D4",
                    "midi": 62,
                    "time": 125.08797200000043,
                    "velocity": 0.14960629921259844,
                    "duration": 0.4225945000000024
                },
                {
                    "name": "D5",
                    "midi": 74,
                    "time": 125.08797200000043,
                    "velocity": 0.1889763779527559,
                    "duration": 0.4225945000000024
                },
                {
                    "name": "C5",
                    "midi": 72,
                    "time": 125.08797200000043,
                    "velocity": 0.28346456692913385,
                    "duration": 0.4225945000000024
                },
                {
                    "name": "A#4",
                    "midi": 70,
                    "time": 125.51056650000044,
                    "velocity": 0.2047244094488189,
                    "duration": 0.6338917500000036
                },
                {
                    "name": "D4",
                    "midi": 62,
                    "time": 125.51056650000044,
                    "velocity": 0.2047244094488189,
                    "duration": 0.6338917500000036
                },
                {
                    "name": "D5",
                    "midi": 74,
                    "time": 125.51056650000044,
                    "velocity": 0.2047244094488189,
                    "duration": 0.8451890000000049
                },
                {
                    "name": "D5",
                    "midi": 74,
                    "time": 126.14445825000044,
                    "velocity": 0.1889763779527559,
                    "duration": 0.2112972500000012
                },
                {
                    "name": "A#5",
                    "midi": 82,
                    "time": 126.35575550000044,
                    "velocity": 0.3228346456692913,
                    "duration": 0.4225945000000024
                },
                {
                    "name": "C5",
                    "midi": 72,
                    "time": 126.35575550000044,
                    "velocity": 0.18110236220472442,
                    "duration": 0.2112972500000012
                },
                {
                    "name": "A#4",
                    "midi": 70,
                    "time": 126.56705275000044,
                    "velocity": 0.25196850393700787,
                    "duration": 0.2112972500000012
                },
                {
                    "name": "D#5",
                    "midi": 75,
                    "time": 126.77835000000044,
                    "velocity": 0.18110236220472442,
                    "duration": 0.8451890000000049
                },
                {
                    "name": "D#6",
                    "midi": 87,
                    "time": 126.77835000000044,
                    "velocity": 0.3464566929133858,
                    "duration": 0.6338917500000036
                },
                {
                    "name": "D6",
                    "midi": 86,
                    "time": 127.41224175000045,
                    "velocity": 0.30708661417322836,
                    "duration": 0.2112972500000012
                },
                {
                    "name": "D#6",
                    "midi": 87,
                    "time": 127.62353900000045,
                    "velocity": 0.2440944881889764,
                    "duration": 0.2112972500000012
                },
                {
                    "name": "D#5",
                    "midi": 75,
                    "time": 127.62353900000045,
                    "velocity": 0.2440944881889764,
                    "duration": 0.6338917500000036
                },
                {
                    "name": "C6",
                    "midi": 84,
                    "time": 127.83483625000045,
                    "velocity": 0.28346456692913385,
                    "duration": 0.2112972500000012
                },
                {
                    "name": "D#6",
                    "midi": 87,
                    "time": 128.04613350000045,
                    "velocity": 0.2677165354330709,
                    "duration": 0.2112972500000012
                },
                {
                    "name": "D5",
                    "midi": 74,
                    "time": 128.25743075000045,
                    "velocity": 0.2677165354330709,
                    "duration": 0.2112972500000012
                },
                {
                    "name": "A#5",
                    "midi": 82,
                    "time": 128.25743075000045,
                    "velocity": 0.3464566929133858,
                    "duration": 0.4225945000000024
                },
                {
                    "name": "D#5",
                    "midi": 75,
                    "time": 128.46872800000045,
                    "velocity": 0.18110236220472442,
                    "duration": 0.2112972500000012
                },
                {
                    "name": "C5",
                    "midi": 72,
                    "time": 128.68002525000045,
                    "velocity": 0.23622047244094488,
                    "duration": 0.2112972500000012
                },
                {
                    "name": "G#5",
                    "midi": 80,
                    "time": 128.68002525000045,
                    "velocity": 0.30708661417322836,
                    "duration": 0.4225945000000024
                },
                {
                    "name": "D#5",
                    "midi": 75,
                    "time": 128.89132250000046,
                    "velocity": 0.2047244094488189,
                    "duration": 0.2112972500000012
                },
                {
                    "name": "A#4",
                    "midi": 70,
                    "time": 129.10261975000046,
                    "velocity": 0.2047244094488189,
                    "duration": 0.4225945000000024
                },
                {
                    "name": "G5",
                    "midi": 79,
                    "time": 129.10261975000046,
                    "velocity": 0.29133858267716534,
                    "duration": 0.2112972500000012
                },
                {
                    "name": "F5",
                    "midi": 77,
                    "time": 129.31391700000046,
                    "velocity": 0.28346456692913385,
                    "duration": 0.2112972500000012
                },
                {
                    "name": "G#4",
                    "midi": 68,
                    "time": 129.52521425000046,
                    "velocity": 0.1889763779527559,
                    "duration": 0.4225945000000024
                },
                {
                    "name": "D5",
                    "midi": 74,
                    "time": 129.52521425000046,
                    "velocity": 0.28346456692913385,
                    "duration": 0.2112972500000012
                },
                {
                    "name": "D#5",
                    "midi": 75,
                    "time": 129.73651150000046,
                    "velocity": 0.29133858267716534,
                    "duration": 0.2112972500000012
                },
                {
                    "name": "G4",
                    "midi": 67,
                    "time": 129.94780875000046,
                    "velocity": 0.2283464566929134,
                    "duration": 0.2112972500000012
                },
                {
                    "name": "G5",
                    "midi": 79,
                    "time": 129.94780875000046,
                    "velocity": 0.2992125984251969,
                    "duration": 0.2112972500000012
                },
                {
                    "name": "A#5",
                    "midi": 82,
                    "time": 130.15910600000046,
                    "velocity": 0.30708661417322836,
                    "duration": 1.056486250000006
                },
                {
                    "name": "F4",
                    "midi": 65,
                    "time": 130.15910600000046,
                    "velocity": 0.2047244094488189,
                    "duration": 0.2112972500000012
                },
                {
                    "name": "D4",
                    "midi": 62,
                    "time": 130.37040325000046,
                    "velocity": 0.23622047244094488,
                    "duration": 0.2112972500000012
                },
                {
                    "name": "D#4",
                    "midi": 63,
                    "time": 130.58170050000047,
                    "velocity": 0.2204724409448819,
                    "duration": 0.2112972500000012
                },
                {
                    "name": "G4",
                    "midi": 67,
                    "time": 130.79299775000047,
                    "velocity": 0.25984251968503935,
                    "duration": 0.2112972500000012
                },
                {
                    "name": "A#4",
                    "midi": 70,
                    "time": 131.00429500000047,
                    "velocity": 0.3464566929133858,
                    "duration": 0.4225945000000024
                },
                {
                    "name": "C5",
                    "midi": 72,
                    "time": 131.21559225000047,
                    "velocity": 0.3700787401574803,
                    "duration": 0.2112972500000012
                },
                {
                    "name": "D5",
                    "midi": 74,
                    "time": 131.42688950000047,
                    "velocity": 0.3858267716535433,
                    "duration": 0.2112972500000012
                },
                {
                    "name": "F5",
                    "midi": 77,
                    "time": 131.63818675000047,
                    "velocity": 0.36220472440944884,
                    "duration": 0.2112972500000012
                },
                {
                    "name": "D#4",
                    "midi": 63,
                    "time": 131.84948400000047,
                    "velocity": 0.2204724409448819,
                    "duration": 0.8451890000000049
                },
                {
                    "name": "D#5",
                    "midi": 75,
                    "time": 131.84948400000047,
                    "velocity": 0.4094488188976378,
                    "duration": 0.8451890000000049
                },
                {
                    "name": "D5",
                    "midi": 74,
                    "time": 132.27207850000048,
                    "velocity": 0.33070866141732286,
                    "duration": 0.4225945000000024
                },
                {
                    "name": "D#4",
                    "midi": 63,
                    "time": 132.69467300000048,
                    "velocity": 0.1968503937007874,
                    "duration": 0.4225945000000024
                },
                {
                    "name": "D#5",
                    "midi": 75,
                    "time": 132.69467300000048,
                    "velocity": 0.1968503937007874,
                    "duration": 0.4225945000000024
                },
                {
                    "name": "C5",
                    "midi": 72,
                    "time": 132.69467300000048,
                    "velocity": 0.28346456692913385,
                    "duration": 0.4225945000000024
                },
                {
                    "name": "A#4",
                    "midi": 70,
                    "time": 133.11726750000048,
                    "velocity": 0.2992125984251969,
                    "duration": 0.8451890000000049
                },
                {
                    "name": "D#4",
                    "midi": 63,
                    "time": 133.53986200000048,
                    "velocity": 0.18110236220472442,
                    "duration": 0.8451890000000049
                },
                {
                    "name": "D#5",
                    "midi": 75,
                    "time": 133.53986200000048,
                    "velocity": 0.18110236220472442,
                    "duration": 0.8451890000000049
                },
                {
                    "name": "G#4",
                    "midi": 68,
                    "time": 133.96245650000048,
                    "velocity": 0.25984251968503935,
                    "duration": 0.2112972500000012
                },
                {
                    "name": "G4",
                    "midi": 67,
                    "time": 134.1737537500005,
                    "velocity": 0.2440944881889764,
                    "duration": 0.2112972500000012
                },
                {
                    "name": "D#5",
                    "midi": 75,
                    "time": 134.3850510000005,
                    "velocity": 0.2204724409448819,
                    "duration": 0.8451890000000049
                },
                {
                    "name": "A#4",
                    "midi": 70,
                    "time": 134.3850510000005,
                    "velocity": 0.28346456692913385,
                    "duration": 0.4225945000000024
                },
                {
                    "name": "D#4",
                    "midi": 63,
                    "time": 134.8076455000005,
                    "velocity": 0.25196850393700787,
                    "duration": 0.4225945000000024
                },
                {
                    "name": "G4",
                    "midi": 67,
                    "time": 135.2302400000005,
                    "velocity": 0.1968503937007874,
                    "duration": 0.2112972500000012
                },
                {
                    "name": "D5",
                    "midi": 74,
                    "time": 135.2302400000005,
                    "velocity": 0.16535433070866143,
                    "duration": 1.1621348749999925
                },
                {
                    "name": "F4",
                    "midi": 65,
                    "time": 135.4415372500005,
                    "velocity": 0.25196850393700787,
                    "duration": 0.9508376249999912
                },
                {
                    "name": "D#4",
                    "midi": 63,
                    "time": 136.49802350000047,
                    "velocity": 0.2755905511811024,
                    "duration": 1.2677835000000073
                },
                {
                    "name": "D#5",
                    "midi": 75,
                    "time": 136.49802350000047,
                    "velocity": 0.2755905511811024,
                    "duration": 1.2677835000000073
                },
                {
                    "name": "C5",
                    "midi": 72,
                    "time": 136.49802350000047,
                    "velocity": 0.2440944881889764,
                    "duration": 0.4225945000000024
                },
                {
                    "name": "A#4",
                    "midi": 70,
                    "time": 136.92061800000047,
                    "velocity": 0.16535433070866143,
                    "duration": 0.8451890000000049
                },
                {
                    "name": "D#4",
                    "midi": 63,
                    "time": 137.76580700000048,
                    "velocity": 0.18110236220472442,
                    "duration": 1.2677835000000073
                },
                {
                    "name": "D#5",
                    "midi": 75,
                    "time": 137.76580700000048,
                    "velocity": 0.18110236220472442,
                    "duration": 1.2677835000000073
                },
                {
                    "name": "A4",
                    "midi": 69,
                    "time": 137.76580700000048,
                    "velocity": 0.16535433070866143,
                    "duration": 0.4225945000000024
                },
                {
                    "name": "G#4",
                    "midi": 68,
                    "time": 138.18840150000048,
                    "velocity": 0.13385826771653545,
                    "duration": 0.8451890000000049
                },
                {
                    "name": "D#4",
                    "midi": 63,
                    "time": 139.03359050000049,
                    "velocity": 0.13385826771653545,
                    "duration": 0.4225945000000024
                },
                {
                    "name": "D#5",
                    "midi": 75,
                    "time": 139.03359050000049,
                    "velocity": 0.13385826771653545,
                    "duration": 1.2677835000000073
                },
                {
                    "name": "G4",
                    "midi": 67,
                    "time": 139.03359050000049,
                    "velocity": 0.14173228346456693,
                    "duration": 0.4225945000000024
                },
                {
                    "name": "A#4",
                    "midi": 70,
                    "time": 139.4561850000005,
                    "velocity": 0.16535433070866143,
                    "duration": 0.4225945000000024
                },
                {
                    "name": "D#4",
                    "midi": 63,
                    "time": 139.8787795000005,
                    "velocity": 0.16535433070866143,
                    "duration": 0.4225945000000024
                },
                {
                    "name": "D5",
                    "midi": 74,
                    "time": 140.3013740000005,
                    "velocity": 0.13385826771653545,
                    "duration": 1.6903780000000097
                },
                {
                    "name": "G4",
                    "midi": 67,
                    "time": 140.3013740000005,
                    "velocity": 0.14960629921259844,
                    "duration": 0.2112972500000012
                },
                {
                    "name": "F4",
                    "midi": 65,
                    "time": 140.5126712500005,
                    "velocity": 0.14173228346456693,
                    "duration": 1.2677835000000073
                },
                {
                    "name": "D#4",
                    "midi": 63,
                    "time": 141.7804547500005,
                    "velocity": 0.13385826771653545,
                    "duration": 0.2112972500000012
                },
                {
                    "name": "D#4",
                    "midi": 63,
                    "time": 141.9917520000005,
                    "velocity": 0.16535433070866143,
                    "duration": 0.8451890000000049
                },
                {
                    "name": "D#5",
                    "midi": 75,
                    "time": 141.9917520000005,
                    "velocity": 0.1889763779527559,
                    "duration": 0.8451890000000049
                },
                {
                    "name": "A#2",
                    "midi": 46,
                    "time": 143.2595355000005,
                    "velocity": 0.09448818897637795,
                    "duration": 0.8451890000000049
                },
                {
                    "name": "G3",
                    "midi": 55,
                    "time": 143.2595355000005,
                    "velocity": 0.11811023622047244,
                    "duration": 0.8451890000000049
                },
                {
                    "name": "A#3",
                    "midi": 58,
                    "time": 143.2595355000005,
                    "velocity": 0.11811023622047244,
                    "duration": 0.8451890000000049
                },
                {
                    "name": "G4",
                    "midi": 67,
                    "time": 144.52731900000052,
                    "velocity": 0.15748031496062992,
                    "duration": 1.2677835000000073
                },
                {
                    "name": "D#5",
                    "midi": 75,
                    "time": 144.52731900000052,
                    "velocity": 0.1889763779527559,
                    "duration": 1.2677835000000073
                },
                {
                    "name": "G5",
                    "midi": 79,
                    "time": 144.52731900000052,
                    "velocity": 0.1889763779527559,
                    "duration": 1.2677835000000073
                }
            ],
            "controlChanges": {},
            "id": 1,
            "name": "Piano right",
            "instrumentNumber": 0,
            "instrument": "acoustic grand piano",
            "instrumentFamily": "piano",
            "channelNumber": 0,
            "isPercussion": false
        },
        {
            "startTime": 2.1129724999999997,
            "duration": 145.7951025000004,
            "length": 445,
            "notes": [
                {
                    "name": "D#2",
                    "midi": 39,
                    "time": 2.1129724999999997,
                    "velocity": 0.1968503937007874,
                    "duration": 0.42259449999999976
                },
                {
                    "name": "D#3",
                    "midi": 51,
                    "time": 2.5355669999999995,
                    "velocity": 0.14960629921259844,
                    "duration": 0.845189
                },
                {
                    "name": "G3",
                    "midi": 55,
                    "time": 2.5355669999999995,
                    "velocity": 0.14960629921259844,
                    "duration": 0.845189
                },
                {
                    "name": "D#3",
                    "midi": 51,
                    "time": 3.3807559999999994,
                    "velocity": 0.14960629921259844,
                    "duration": 0.4225945000000002
                },
                {
                    "name": "G3",
                    "midi": 55,
                    "time": 3.3807559999999994,
                    "velocity": 0.14960629921259844,
                    "duration": 0.4225945000000002
                },
                {
                    "name": "D#3",
                    "midi": 51,
                    "time": 3.8033504999999996,
                    "velocity": 0.16535433070866143,
                    "duration": 0.8451890000000004
                },
                {
                    "name": "G3",
                    "midi": 55,
                    "time": 3.8033504999999996,
                    "velocity": 0.16535433070866143,
                    "duration": 0.8451890000000004
                },
                {
                    "name": "D#2",
                    "midi": 39,
                    "time": 4.6485395,
                    "velocity": 0.18110236220472442,
                    "duration": 0.42259449999999976
                },
                {
                    "name": "D#3",
                    "midi": 51,
                    "time": 5.071134,
                    "velocity": 0.18110236220472442,
                    "duration": 0.8451890000000004
                },
                {
                    "name": "G3",
                    "midi": 55,
                    "time": 5.071134,
                    "velocity": 0.18110236220472442,
                    "duration": 0.8451890000000004
                },
                {
                    "name": "D#3",
                    "midi": 51,
                    "time": 5.916323,
                    "velocity": 0.15748031496062992,
                    "duration": 0.42259449999999976
                },
                {
                    "name": "G3",
                    "midi": 55,
                    "time": 5.916323,
                    "velocity": 0.15748031496062992,
                    "duration": 0.42259449999999976
                },
                {
                    "name": "D#3",
                    "midi": 51,
                    "time": 6.3389175,
                    "velocity": 0.14173228346456693,
                    "duration": 0.8451890000000004
                },
                {
                    "name": "G3",
                    "midi": 55,
                    "time": 6.3389175,
                    "velocity": 0.14173228346456693,
                    "duration": 0.8451890000000004
                },
                {
                    "name": "G1",
                    "midi": 31,
                    "time": 7.1841065,
                    "velocity": 0.18110236220472442,
                    "duration": 0.42259449999999976
                },
                {
                    "name": "G2",
                    "midi": 43,
                    "time": 7.606701,
                    "velocity": 0.12598425196850394,
                    "duration": 0.8451890000000004
                },
                {
                    "name": "D#3",
                    "midi": 51,
                    "time": 7.606701,
                    "velocity": 0.14960629921259844,
                    "duration": 0.8451890000000004
                },
                {
                    "name": "G3",
                    "midi": 55,
                    "time": 7.606701,
                    "velocity": 0.14960629921259844,
                    "duration": 0.8451890000000004
                },
                {
                    "name": "G2",
                    "midi": 43,
                    "time": 8.45189,
                    "velocity": 0.12598425196850394,
                    "duration": 0.42259450000000065
                },
                {
                    "name": "D#3",
                    "midi": 51,
                    "time": 8.45189,
                    "velocity": 0.14960629921259844,
                    "duration": 0.42259450000000065
                },
                {
                    "name": "G3",
                    "midi": 55,
                    "time": 8.45189,
                    "velocity": 0.14960629921259844,
                    "duration": 0.42259450000000065
                },
                {
                    "name": "G2",
                    "midi": 43,
                    "time": 8.874484500000001,
                    "velocity": 0.13385826771653545,
                    "duration": 0.8451889999999995
                },
                {
                    "name": "D#3",
                    "midi": 51,
                    "time": 8.874484500000001,
                    "velocity": 0.16535433070866143,
                    "duration": 0.8451889999999995
                },
                {
                    "name": "G3",
                    "midi": 55,
                    "time": 8.874484500000001,
                    "velocity": 0.16535433070866143,
                    "duration": 0.8451889999999995
                },
                {
                    "name": "A#1",
                    "midi": 34,
                    "time": 9.7196735,
                    "velocity": 0.18110236220472442,
                    "duration": 0.42259450000000065
                },
                {
                    "name": "A#2",
                    "midi": 46,
                    "time": 10.142268000000001,
                    "velocity": 0.18110236220472442,
                    "duration": 0.8451889999999995
                },
                {
                    "name": "G3",
                    "midi": 55,
                    "time": 10.142268000000001,
                    "velocity": 0.18110236220472442,
                    "duration": 0.8451889999999995
                },
                {
                    "name": "A#2",
                    "midi": 46,
                    "time": 10.987457000000001,
                    "velocity": 0.14173228346456693,
                    "duration": 0.42259450000000065
                },
                {
                    "name": "G#3",
                    "midi": 56,
                    "time": 10.987457000000001,
                    "velocity": 0.14173228346456693,
                    "duration": 0.42259450000000065
                },
                {
                    "name": "D#3",
                    "midi": 51,
                    "time": 11.410051500000002,
                    "velocity": 0.12598425196850394,
                    "duration": 0.8451889999999995
                },
                {
                    "name": "G3",
                    "midi": 55,
                    "time": 11.410051500000002,
                    "velocity": 0.12598425196850394,
                    "duration": 0.8451889999999995
                },
                {
                    "name": "D#2",
                    "midi": 39,
                    "time": 12.255240500000001,
                    "velocity": 0.18110236220472442,
                    "duration": 0.42259450000000065
                },
                {
                    "name": "D#3",
                    "midi": 51,
                    "time": 12.677835000000002,
                    "velocity": 0.14960629921259844,
                    "duration": 0.8451889999999995
                },
                {
                    "name": "C4",
                    "midi": 60,
                    "time": 12.677835000000002,
                    "velocity": 0.14960629921259844,
                    "duration": 0.8451889999999995
                },
                {
                    "name": "D#3",
                    "midi": 51,
                    "time": 13.523024000000001,
                    "velocity": 0.14960629921259844,
                    "duration": 0.42259450000000065
                },
                {
                    "name": "G#3",
                    "midi": 56,
                    "time": 13.523024000000001,
                    "velocity": 0.14960629921259844,
                    "duration": 0.42259450000000065
                },
                {
                    "name": "D#3",
                    "midi": 51,
                    "time": 13.945618500000002,
                    "velocity": 0.16535433070866143,
                    "duration": 0.8451889999999995
                },
                {
                    "name": "A#3",
                    "midi": 58,
                    "time": 13.945618500000002,
                    "velocity": 0.16535433070866143,
                    "duration": 0.8451889999999995
                },
                {
                    "name": "D#2",
                    "midi": 39,
                    "time": 14.790807500000001,
                    "velocity": 0.18110236220472442,
                    "duration": 0.42259450000000065
                },
                {
                    "name": "D#3",
                    "midi": 51,
                    "time": 15.213402000000002,
                    "velocity": 0.14960629921259844,
                    "duration": 0.8451890000000013
                },
                {
                    "name": "C4",
                    "midi": 60,
                    "time": 15.213402000000002,
                    "velocity": 0.14960629921259844,
                    "duration": 0.8451890000000013
                },
                {
                    "name": "D#3",
                    "midi": 51,
                    "time": 16.058591000000003,
                    "velocity": 0.14960629921259844,
                    "duration": 0.4225944999999989
                },
                {
                    "name": "G#3",
                    "midi": 56,
                    "time": 16.058591000000003,
                    "velocity": 0.14960629921259844,
                    "duration": 0.4225944999999989
                },
                {
                    "name": "D#3",
                    "midi": 51,
                    "time": 16.481185500000002,
                    "velocity": 0.14960629921259844,
                    "duration": 0.8451890000000013
                },
                {
                    "name": "A#3",
                    "midi": 58,
                    "time": 16.481185500000002,
                    "velocity": 0.14960629921259844,
                    "duration": 0.8451890000000013
                },
                {
                    "name": "D#2",
                    "midi": 39,
                    "time": 17.326374500000004,
                    "velocity": 0.2283464566929134,
                    "duration": 0.4225944999999989
                },
                {
                    "name": "D#3",
                    "midi": 51,
                    "time": 17.326374500000004,
                    "velocity": 0.2283464566929134,
                    "duration": 0.4225944999999989
                },
                {
                    "name": "A#3",
                    "midi": 58,
                    "time": 17.748969000000002,
                    "velocity": 0.23622047244094488,
                    "duration": 0.4225944999999989
                },
                {
                    "name": "A#2",
                    "midi": 46,
                    "time": 17.748969000000002,
                    "velocity": 0.1968503937007874,
                    "duration": 0.4225944999999989
                },
                {
                    "name": "A3",
                    "midi": 57,
                    "time": 18.1715635,
                    "velocity": 0.2755905511811024,
                    "duration": 0.4225944999999989
                },
                {
                    "name": "A2",
                    "midi": 45,
                    "time": 18.1715635,
                    "velocity": 0.2283464566929134,
                    "duration": 0.4225944999999989
                },
                {
                    "name": "G3",
                    "midi": 55,
                    "time": 18.594158,
                    "velocity": 0.30708661417322836,
                    "duration": 0.4225944999999989
                },
                {
                    "name": "G2",
                    "midi": 43,
                    "time": 18.594158,
                    "velocity": 0.25196850393700787,
                    "duration": 0.4225944999999989
                },
                {
                    "name": "F3",
                    "midi": 53,
                    "time": 19.0167525,
                    "velocity": 0.30708661417322836,
                    "duration": 0.8451890000000013
                },
                {
                    "name": "F2",
                    "midi": 41,
                    "time": 19.0167525,
                    "velocity": 0.25196850393700787,
                    "duration": 0.8451890000000013
                },
                {
                    "name": "D#3",
                    "midi": 51,
                    "time": 19.8619415,
                    "velocity": 0.33070866141732286,
                    "duration": 0.2112972500000012
                },
                {
                    "name": "D#2",
                    "midi": 39,
                    "time": 19.8619415,
                    "velocity": 0.28346456692913385,
                    "duration": 0.2112972500000012
                },
                {
                    "name": "D2",
                    "midi": 38,
                    "time": 20.07323875,
                    "velocity": 0.29133858267716534,
                    "duration": 0.2112972500000012
                },
                {
                    "name": "D3",
                    "midi": 50,
                    "time": 20.07323875,
                    "velocity": 0.33070866141732286,
                    "duration": 0.2112972500000012
                },
                {
                    "name": "F3",
                    "midi": 53,
                    "time": 20.284536000000003,
                    "velocity": 0.3228346456692913,
                    "duration": 0.8451890000000013
                },
                {
                    "name": "F2",
                    "midi": 41,
                    "time": 20.284536000000003,
                    "velocity": 0.28346456692913385,
                    "duration": 0.8451890000000013
                },
                {
                    "name": "A#2",
                    "midi": 46,
                    "time": 21.129725000000004,
                    "velocity": 0.18110236220472442,
                    "duration": 0.4225944999999989
                },
                {
                    "name": "A#1",
                    "midi": 34,
                    "time": 21.129725000000004,
                    "velocity": 0.14960629921259844,
                    "duration": 0.4225944999999989
                },
                {
                    "name": "A#2",
                    "midi": 46,
                    "time": 21.552319500000003,
                    "velocity": 0.2125984251968504,
                    "duration": 0.8451890000000013
                },
                {
                    "name": "A#1",
                    "midi": 34,
                    "time": 21.552319500000003,
                    "velocity": 0.1732283464566929,
                    "duration": 0.8451890000000013
                },
                {
                    "name": "G#3",
                    "midi": 56,
                    "time": 22.397508500000004,
                    "velocity": 0.18110236220472442,
                    "duration": 0.31694587499999827
                },
                {
                    "name": "A#2",
                    "midi": 46,
                    "time": 22.397508500000004,
                    "velocity": 0.14960629921259844,
                    "duration": 0.31694587499999827
                },
                {
                    "name": "D#2",
                    "midi": 39,
                    "time": 22.714454375000003,
                    "velocity": 0.14960629921259844,
                    "duration": 0.9508376250000019
                },
                {
                    "name": "G3",
                    "midi": 55,
                    "time": 22.820103000000003,
                    "velocity": 0.14960629921259844,
                    "duration": 0.8451890000000013
                },
                {
                    "name": "D#3",
                    "midi": 51,
                    "time": 23.665292000000004,
                    "velocity": 0.14960629921259844,
                    "duration": 0.4225944999999989
                },
                {
                    "name": "G3",
                    "midi": 55,
                    "time": 23.665292000000004,
                    "velocity": 0.14960629921259844,
                    "duration": 0.4225944999999989
                },
                {
                    "name": "D#3",
                    "midi": 51,
                    "time": 24.087886500000003,
                    "velocity": 0.16535433070866143,
                    "duration": 0.8451890000000013
                },
                {
                    "name": "G3",
                    "midi": 55,
                    "time": 24.087886500000003,
                    "velocity": 0.16535433070866143,
                    "duration": 0.8451890000000013
                },
                {
                    "name": "D#2",
                    "midi": 39,
                    "time": 24.933075500000005,
                    "velocity": 0.18110236220472442,
                    "duration": 0.4225944999999989
                },
                {
                    "name": "D#3",
                    "midi": 51,
                    "time": 25.355670000000003,
                    "velocity": 0.18110236220472442,
                    "duration": 0.8451890000000013
                },
                {
                    "name": "G3",
                    "midi": 55,
                    "time": 25.355670000000003,
                    "velocity": 0.18110236220472442,
                    "duration": 0.8451890000000013
                },
                {
                    "name": "D#3",
                    "midi": 51,
                    "time": 26.200859000000005,
                    "velocity": 0.15748031496062992,
                    "duration": 0.4225944999999989
                },
                {
                    "name": "G3",
                    "midi": 55,
                    "time": 26.200859000000005,
                    "velocity": 0.15748031496062992,
                    "duration": 0.4225944999999989
                },
                {
                    "name": "D#3",
                    "midi": 51,
                    "time": 26.623453500000004,
                    "velocity": 0.14173228346456693,
                    "duration": 0.8451890000000013
                },
                {
                    "name": "G3",
                    "midi": 55,
                    "time": 26.623453500000004,
                    "velocity": 0.14173228346456693,
                    "duration": 0.8451890000000013
                },
                {
                    "name": "C2",
                    "midi": 36,
                    "time": 27.468642500000005,
                    "velocity": 0.18110236220472442,
                    "duration": 0.4225944999999989
                },
                {
                    "name": "C3",
                    "midi": 48,
                    "time": 27.891237000000004,
                    "velocity": 0.12598425196850394,
                    "duration": 0.8451890000000013
                },
                {
                    "name": "G3",
                    "midi": 55,
                    "time": 27.891237000000004,
                    "velocity": 0.14960629921259844,
                    "duration": 0.8451890000000013
                },
                {
                    "name": "C3",
                    "midi": 48,
                    "time": 28.736426000000005,
                    "velocity": 0.12598425196850394,
                    "duration": 0.4225944999999989
                },
                {
                    "name": "G3",
                    "midi": 55,
                    "time": 28.736426000000005,
                    "velocity": 0.14960629921259844,
                    "duration": 0.4225944999999989
                },
                {
                    "name": "C3",
                    "midi": 48,
                    "time": 29.159020500000004,
                    "velocity": 0.13385826771653545,
                    "duration": 0.8451890000000013
                },
                {
                    "name": "G3",
                    "midi": 55,
                    "time": 29.159020500000004,
                    "velocity": 0.16535433070866143,
                    "duration": 0.8451890000000013
                },
                {
                    "name": "F2",
                    "midi": 41,
                    "time": 30.004209500000005,
                    "velocity": 0.18110236220472442,
                    "duration": 0.4225944999999989
                },
                {
                    "name": "F3",
                    "midi": 53,
                    "time": 30.426804000000004,
                    "velocity": 0.18110236220472442,
                    "duration": 0.8451890000000013
                },
                {
                    "name": "C4",
                    "midi": 60,
                    "time": 30.426804000000004,
                    "velocity": 0.18110236220472442,
                    "duration": 0.8451890000000013
                },
                {
                    "name": "F3",
                    "midi": 53,
                    "time": 31.271993000000005,
                    "velocity": 0.15748031496062992,
                    "duration": 0.4225944999999989
                },
                {
                    "name": "A3",
                    "midi": 57,
                    "time": 31.271993000000005,
                    "velocity": 0.15748031496062992,
                    "duration": 0.4225944999999989
                },
                {
                    "name": "A#2",
                    "midi": 46,
                    "time": 31.694587500000004,
                    "velocity": 0.15748031496062992,
                    "duration": 0.8451889999999977
                },
                {
                    "name": "A#3",
                    "midi": 58,
                    "time": 31.694587500000004,
                    "velocity": 0.15748031496062992,
                    "duration": 0.8451889999999977
                },
                {
                    "name": "D4",
                    "midi": 62,
                    "time": 32.5397765,
                    "velocity": 0.12598425196850394,
                    "duration": 0.3169458750000018
                },
                {
                    "name": "A#3",
                    "midi": 58,
                    "time": 32.5397765,
                    "velocity": 0.12598425196850394,
                    "duration": 0.3169458750000018
                },
                {
                    "name": "G#4",
                    "midi": 68,
                    "time": 32.5397765,
                    "velocity": 0.14960629921259844,
                    "duration": 0.3169458750000018
                },
                {
                    "name": "D#3",
                    "midi": 51,
                    "time": 32.856722375000004,
                    "velocity": 0.14960629921259844,
                    "duration": 0.8451889999999977
                },
                {
                    "name": "A#3",
                    "midi": 58,
                    "time": 32.909546687500004,
                    "velocity": 0.14960629921259844,
                    "duration": 0.7923646874999974
                },
                {
                    "name": "G4",
                    "midi": 67,
                    "time": 32.962371000000005,
                    "velocity": 0.14960629921259844,
                    "duration": 0.7395403749999971
                },
                {
                    "name": "D#3",
                    "midi": 51,
                    "time": 33.701911375,
                    "velocity": 0.14960629921259844,
                    "duration": 0.9508376249999984
                },
                {
                    "name": "A#3",
                    "midi": 58,
                    "time": 33.7547356875,
                    "velocity": 0.14960629921259844,
                    "duration": 0.898013312499998
                },
                {
                    "name": "G4",
                    "midi": 67,
                    "time": 33.80756,
                    "velocity": 0.14960629921259844,
                    "duration": 0.8451889999999977
                },
                {
                    "name": "D#3",
                    "midi": 51,
                    "time": 34.652749,
                    "velocity": 0.12598425196850394,
                    "duration": 0.8451889999999977
                },
                {
                    "name": "A#3",
                    "midi": 58,
                    "time": 34.652749,
                    "velocity": 0.14960629921259844,
                    "duration": 0.8451889999999977
                },
                {
                    "name": "D#3",
                    "midi": 51,
                    "time": 35.497938,
                    "velocity": 0.12598425196850394,
                    "duration": 0.8451889999999977
                },
                {
                    "name": "A#3",
                    "midi": 58,
                    "time": 35.497938,
                    "velocity": 0.14960629921259844,
                    "duration": 0.8451889999999977
                },
                {
                    "name": "D#3",
                    "midi": 51,
                    "time": 36.343126999999996,
                    "velocity": 0.12598425196850394,
                    "duration": 0.8451889999999977
                },
                {
                    "name": "G3",
                    "midi": 55,
                    "time": 36.343126999999996,
                    "velocity": 0.14960629921259844,
                    "duration": 0.8451889999999977
                },
                {
                    "name": "G2",
                    "midi": 43,
                    "time": 37.18831599999999,
                    "velocity": 0.12598425196850394,
                    "duration": 0.8451889999999977
                },
                {
                    "name": "D#3",
                    "midi": 51,
                    "time": 37.18831599999999,
                    "velocity": 0.12598425196850394,
                    "duration": 0.8451889999999977
                },
                {
                    "name": "G3",
                    "midi": 55,
                    "time": 37.18831599999999,
                    "velocity": 0.14960629921259844,
                    "duration": 0.8451889999999977
                },
                {
                    "name": "A2",
                    "midi": 45,
                    "time": 38.03350499999999,
                    "velocity": 0.12598425196850394,
                    "duration": 0.8451889999999977
                },
                {
                    "name": "D#3",
                    "midi": 51,
                    "time": 38.03350499999999,
                    "velocity": 0.14960629921259844,
                    "duration": 0.8451889999999977
                },
                {
                    "name": "G3",
                    "midi": 55,
                    "time": 38.03350499999999,
                    "velocity": 0.14960629921259844,
                    "duration": 0.8451889999999977
                },
                {
                    "name": "A#2",
                    "midi": 46,
                    "time": 38.87869399999999,
                    "velocity": 0.12598425196850394,
                    "duration": 0.8451889999999977
                },
                {
                    "name": "D#3",
                    "midi": 51,
                    "time": 38.87869399999999,
                    "velocity": 0.14960629921259844,
                    "duration": 0.8451889999999977
                },
                {
                    "name": "G3",
                    "midi": 55,
                    "time": 38.87869399999999,
                    "velocity": 0.14960629921259844,
                    "duration": 0.8451889999999977
                },
                {
                    "name": "C3",
                    "midi": 48,
                    "time": 39.72388299999999,
                    "velocity": 0.13385826771653545,
                    "duration": 0.8451889999999977
                },
                {
                    "name": "D#3",
                    "midi": 51,
                    "time": 39.72388299999999,
                    "velocity": 0.16535433070866143,
                    "duration": 0.8451889999999977
                },
                {
                    "name": "G3",
                    "midi": 55,
                    "time": 39.72388299999999,
                    "velocity": 0.16535433070866143,
                    "duration": 0.8451889999999977
                },
                {
                    "name": "A#2",
                    "midi": 46,
                    "time": 40.569071999999984,
                    "velocity": 0.18110236220472442,
                    "duration": 0.8451889999999977
                },
                {
                    "name": "G3",
                    "midi": 55,
                    "time": 40.569071999999984,
                    "velocity": 0.18110236220472442,
                    "duration": 0.8451889999999977
                },
                {
                    "name": "A#2",
                    "midi": 46,
                    "time": 41.41426099999998,
                    "velocity": 0.14173228346456693,
                    "duration": 0.4225945000000024
                },
                {
                    "name": "G#3",
                    "midi": 56,
                    "time": 41.41426099999998,
                    "velocity": 0.14173228346456693,
                    "duration": 0.4225945000000024
                },
                {
                    "name": "D#3",
                    "midi": 51,
                    "time": 41.836855499999984,
                    "velocity": 0.12598425196850394,
                    "duration": 0.8451889999999977
                },
                {
                    "name": "G3",
                    "midi": 55,
                    "time": 41.836855499999984,
                    "velocity": 0.12598425196850394,
                    "duration": 0.8451889999999977
                },
                {
                    "name": "E2",
                    "midi": 40,
                    "time": 42.68204449999998,
                    "velocity": 0.14960629921259844,
                    "duration": 0.2112972500000012
                },
                {
                    "name": "E3",
                    "midi": 52,
                    "time": 42.68204449999998,
                    "velocity": 0.18110236220472442,
                    "duration": 0.2112972500000012
                },
                {
                    "name": "F#2",
                    "midi": 42,
                    "time": 42.89334174999998,
                    "velocity": 0.16535433070866143,
                    "duration": 0.2112972500000012
                },
                {
                    "name": "F#3",
                    "midi": 54,
                    "time": 42.89334174999998,
                    "velocity": 0.1968503937007874,
                    "duration": 0.2112972500000012
                },
                {
                    "name": "G#2",
                    "midi": 44,
                    "time": 43.104638999999985,
                    "velocity": 0.18110236220472442,
                    "duration": 0.4225945000000024
                },
                {
                    "name": "G#3",
                    "midi": 56,
                    "time": 43.104638999999985,
                    "velocity": 0.2204724409448819,
                    "duration": 0.4225945000000024
                },
                {
                    "name": "F#2",
                    "midi": 42,
                    "time": 43.52723349999999,
                    "velocity": 0.15748031496062992,
                    "duration": 0.4225945000000024
                },
                {
                    "name": "F#3",
                    "midi": 54,
                    "time": 43.52723349999999,
                    "velocity": 0.1889763779527559,
                    "duration": 0.4225945000000024
                },
                {
                    "name": "E2",
                    "midi": 40,
                    "time": 43.94982799999999,
                    "velocity": 0.11023622047244094,
                    "duration": 0.4225945000000024
                },
                {
                    "name": "E3",
                    "midi": 52,
                    "time": 43.94982799999999,
                    "velocity": 0.13385826771653545,
                    "duration": 0.4225945000000024
                },
                {
                    "name": "D#2",
                    "midi": 39,
                    "time": 44.37242249999999,
                    "velocity": 0.11023622047244094,
                    "duration": 0.8451889999999977
                },
                {
                    "name": "D#3",
                    "midi": 51,
                    "time": 44.37242249999999,
                    "velocity": 0.13385826771653545,
                    "duration": 0.8451889999999977
                },
                {
                    "name": "C#2",
                    "midi": 37,
                    "time": 45.21761149999999,
                    "velocity": 0.14960629921259844,
                    "duration": 0.2112972500000012
                },
                {
                    "name": "C#3",
                    "midi": 49,
                    "time": 45.21761149999999,
                    "velocity": 0.18110236220472442,
                    "duration": 0.2112972500000012
                },
                {
                    "name": "B1",
                    "midi": 35,
                    "time": 45.42890874999999,
                    "velocity": 0.16535433070866143,
                    "duration": 0.2112972500000012
                },
                {
                    "name": "B2",
                    "midi": 47,
                    "time": 45.42890874999999,
                    "velocity": 0.1968503937007874,
                    "duration": 0.2112972500000012
                },
                {
                    "name": "A#1",
                    "midi": 34,
                    "time": 45.64020599999999,
                    "velocity": 0.18110236220472442,
                    "duration": 0.4225945000000024
                },
                {
                    "name": "A#2",
                    "midi": 46,
                    "time": 45.64020599999999,
                    "velocity": 0.2204724409448819,
                    "duration": 0.4225945000000024
                },
                {
                    "name": "G#1",
                    "midi": 32,
                    "time": 46.062800499999994,
                    "velocity": 0.15748031496062992,
                    "duration": 0.4225945000000024
                },
                {
                    "name": "G#2",
                    "midi": 44,
                    "time": 46.062800499999994,
                    "velocity": 0.1889763779527559,
                    "duration": 0.4225945000000024
                },
                {
                    "name": "B1",
                    "midi": 35,
                    "time": 46.485395,
                    "velocity": 0.12598425196850394,
                    "duration": 0.4225945000000024
                },
                {
                    "name": "B2",
                    "midi": 47,
                    "time": 46.485395,
                    "velocity": 0.15748031496062992,
                    "duration": 0.4225945000000024
                },
                {
                    "name": "D#2",
                    "midi": 39,
                    "time": 46.9079895,
                    "velocity": 0.13385826771653545,
                    "duration": 0.8451889999999977
                },
                {
                    "name": "D#3",
                    "midi": 51,
                    "time": 47.7531785,
                    "velocity": 0.14960629921259844,
                    "duration": 0.4225945000000024
                },
                {
                    "name": "C#4",
                    "midi": 61,
                    "time": 47.7531785,
                    "velocity": 0.18110236220472442,
                    "duration": 0.4225945000000024
                },
                {
                    "name": "D#3",
                    "midi": 51,
                    "time": 48.175773,
                    "velocity": 0.18110236220472442,
                    "duration": 0.8451889999999977
                },
                {
                    "name": "B3",
                    "midi": 59,
                    "time": 48.175773,
                    "velocity": 0.2204724409448819,
                    "duration": 0.8451889999999977
                },
                {
                    "name": "D#3",
                    "midi": 51,
                    "time": 49.020962,
                    "velocity": 0.11023622047244094,
                    "duration": 0.4225945000000024
                },
                {
                    "name": "G#3",
                    "midi": 56,
                    "time": 49.020962,
                    "velocity": 0.13385826771653545,
                    "duration": 0.4225945000000024
                },
                {
                    "name": "D#3",
                    "midi": 51,
                    "time": 49.4435565,
                    "velocity": 0.11023622047244094,
                    "duration": 0.8451889999999977
                },
                {
                    "name": "D#4",
                    "midi": 63,
                    "time": 49.4435565,
                    "velocity": 0.13385826771653545,
                    "duration": 0.8451889999999977
                },
                {
                    "name": "C#2",
                    "midi": 37,
                    "time": 50.2887455,
                    "velocity": 0.14960629921259844,
                    "duration": 0.4225945000000024
                },
                {
                    "name": "C#3",
                    "midi": 49,
                    "time": 50.2887455,
                    "velocity": 0.18110236220472442,
                    "duration": 0.4225945000000024
                },
                {
                    "name": "A#1",
                    "midi": 34,
                    "time": 50.71134,
                    "velocity": 0.18110236220472442,
                    "duration": 0.8451889999999977
                },
                {
                    "name": "A#2",
                    "midi": 46,
                    "time": 50.71134,
                    "velocity": 0.2204724409448819,
                    "duration": 0.8451889999999977
                },
                {
                    "name": "G1",
                    "midi": 31,
                    "time": 51.556529,
                    "velocity": 0.11023622047244094,
                    "duration": 0.8451889999999977
                },
                {
                    "name": "G2",
                    "midi": 43,
                    "time": 51.556529,
                    "velocity": 0.13385826771653545,
                    "duration": 0.8451889999999977
                },
                {
                    "name": "G#1",
                    "midi": 32,
                    "time": 52.401717999999995,
                    "velocity": 0.08661417322834646,
                    "duration": 0.8451889999999977
                },
                {
                    "name": "G#2",
                    "midi": 44,
                    "time": 52.401717999999995,
                    "velocity": 0.11023622047244094,
                    "duration": 0.8451889999999977
                },
                {
                    "name": "A#1",
                    "midi": 34,
                    "time": 53.24690699999999,
                    "velocity": 0.12598425196850394,
                    "duration": 0.2112972500000012
                },
                {
                    "name": "A#2",
                    "midi": 46,
                    "time": 53.458204249999994,
                    "velocity": 0.12598425196850394,
                    "duration": 0.2112972500000012
                },
                {
                    "name": "D#3",
                    "midi": 51,
                    "time": 53.669501499999996,
                    "velocity": 0.11811023622047244,
                    "duration": 0.2112972500000012
                },
                {
                    "name": "F#3",
                    "midi": 54,
                    "time": 53.88079875,
                    "velocity": 0.12598425196850394,
                    "duration": 0.2112972500000012
                },
                {
                    "name": "A#1",
                    "midi": 34,
                    "time": 54.5146905,
                    "velocity": 0.14960629921259844,
                    "duration": 0.2112972500000012
                },
                {
                    "name": "A#2",
                    "midi": 46,
                    "time": 54.72598775,
                    "velocity": 0.14960629921259844,
                    "duration": 0.2112972500000012
                },
                {
                    "name": "F3",
                    "midi": 53,
                    "time": 54.937285,
                    "velocity": 0.13385826771653545,
                    "duration": 0.2112972500000012
                },
                {
                    "name": "G#3",
                    "midi": 56,
                    "time": 55.148582250000004,
                    "velocity": 0.13385826771653545,
                    "duration": 0.2112972500000012
                },
                {
                    "name": "A#1",
                    "midi": 34,
                    "time": 55.78247400000001,
                    "velocity": 0.12598425196850394,
                    "duration": 0.2112972500000012
                },
                {
                    "name": "A#2",
                    "midi": 46,
                    "time": 55.99377125000001,
                    "velocity": 0.12598425196850394,
                    "duration": 0.2112972500000012
                },
                {
                    "name": "D3",
                    "midi": 50,
                    "time": 56.20506850000001,
                    "velocity": 0.11811023622047244,
                    "duration": 0.2112972500000012
                },
                {
                    "name": "F3",
                    "midi": 53,
                    "time": 56.41636575000001,
                    "velocity": 0.12598425196850394,
                    "duration": 0.2112972500000012
                },
                {
                    "name": "A#1",
                    "midi": 34,
                    "time": 57.050257500000015,
                    "velocity": 0.14960629921259844,
                    "duration": 0.2112972500000012
                },
                {
                    "name": "A#2",
                    "midi": 46,
                    "time": 57.261554750000016,
                    "velocity": 0.14960629921259844,
                    "duration": 0.2112972500000012
                },
                {
                    "name": "D#3",
                    "midi": 51,
                    "time": 57.47285200000002,
                    "velocity": 0.13385826771653545,
                    "duration": 0.2112972500000012
                },
                {
                    "name": "F#3",
                    "midi": 54,
                    "time": 57.68414925000002,
                    "velocity": 0.13385826771653545,
                    "duration": 0.2112972500000012
                },
                {
                    "name": "A#1",
                    "midi": 34,
                    "time": 58.31804100000002,
                    "velocity": 0.14173228346456693,
                    "duration": 0.2112972500000012
                },
                {
                    "name": "A#2",
                    "midi": 46,
                    "time": 58.52933825000002,
                    "velocity": 0.12598425196850394,
                    "duration": 0.2112972500000012
                },
                {
                    "name": "B2",
                    "midi": 47,
                    "time": 58.740635500000025,
                    "velocity": 0.11023622047244094,
                    "duration": 0.2112972500000012
                },
                {
                    "name": "D#3",
                    "midi": 51,
                    "time": 58.951932750000026,
                    "velocity": 0.11023622047244094,
                    "duration": 0.2112972500000012
                },
                {
                    "name": "G#1",
                    "midi": 32,
                    "time": 59.58582450000003,
                    "velocity": 0.12598425196850394,
                    "duration": 0.2112972500000012
                },
                {
                    "name": "G#2",
                    "midi": 44,
                    "time": 59.79712175000003,
                    "velocity": 0.12598425196850394,
                    "duration": 0.2112972500000012
                },
                {
                    "name": "B2",
                    "midi": 47,
                    "time": 60.00841900000003,
                    "velocity": 0.11811023622047244,
                    "duration": 0.2112972500000012
                },
                {
                    "name": "D#3",
                    "midi": 51,
                    "time": 60.21971625000003,
                    "velocity": 0.11811023622047244,
                    "duration": 0.2112972500000012
                },
                {
                    "name": "G#1",
                    "midi": 32,
                    "time": 60.85360800000004,
                    "velocity": 0.14173228346456693,
                    "duration": 0.2112972500000012
                },
                {
                    "name": "G#2",
                    "midi": 44,
                    "time": 61.06490525000004,
                    "velocity": 0.14173228346456693,
                    "duration": 0.2112972500000012
                },
                {
                    "name": "A#2",
                    "midi": 46,
                    "time": 61.27620250000004,
                    "velocity": 0.12598425196850394,
                    "duration": 0.2112972500000012
                },
                {
                    "name": "C#3",
                    "midi": 49,
                    "time": 61.48749975000004,
                    "velocity": 0.12598425196850394,
                    "duration": 0.2112972500000012
                },
                {
                    "name": "F#1",
                    "midi": 30,
                    "time": 62.121391500000044,
                    "velocity": 0.14173228346456693,
                    "duration": 0.2112972500000012
                },
                {
                    "name": "F#2",
                    "midi": 42,
                    "time": 62.332688750000045,
                    "velocity": 0.14173228346456693,
                    "duration": 0.2112972500000012
                },
                {
                    "name": "A#2",
                    "midi": 46,
                    "time": 62.54398600000005,
                    "velocity": 0.13385826771653545,
                    "duration": 0.2112972500000012
                },
                {
                    "name": "C#3",
                    "midi": 49,
                    "time": 62.75528325000005,
                    "velocity": 0.13385826771653545,
                    "duration": 0.2112972500000012
                },
                {
                    "name": "F#1",
                    "midi": 30,
                    "time": 63.38917500000005,
                    "velocity": 0.11023622047244094,
                    "duration": 0.2112972500000012
                },
                {
                    "name": "F#2",
                    "midi": 42,
                    "time": 63.60047225000005,
                    "velocity": 0.11023622047244094,
                    "duration": 0.2112972500000012
                },
                {
                    "name": "A#2",
                    "midi": 46,
                    "time": 63.811769500000054,
                    "velocity": 0.10236220472440945,
                    "duration": 0.2112972500000012
                },
                {
                    "name": "C3",
                    "midi": 48,
                    "time": 64.02306675000005,
                    "velocity": 0.11023622047244094,
                    "duration": 0.2112972500000012
                },
                {
                    "name": "F1",
                    "midi": 29,
                    "time": 64.65695850000006,
                    "velocity": 0.14173228346456693,
                    "duration": 0.2112972500000012
                },
                {
                    "name": "F2",
                    "midi": 41,
                    "time": 64.86825575000006,
                    "velocity": 0.13385826771653545,
                    "duration": 0.2112972500000012
                },
                {
                    "name": "A#2",
                    "midi": 46,
                    "time": 65.07955300000006,
                    "velocity": 0.11811023622047244,
                    "duration": 0.2112972500000012
                },
                {
                    "name": "C3",
                    "midi": 48,
                    "time": 65.29085025000006,
                    "velocity": 0.11811023622047244,
                    "duration": 0.2112972500000012
                },
                {
                    "name": "F2",
                    "midi": 41,
                    "time": 65.92474200000007,
                    "velocity": 0.13385826771653545,
                    "duration": 1.2677835000000073
                },
                {
                    "name": "A2",
                    "midi": 45,
                    "time": 65.92474200000007,
                    "velocity": 0.13385826771653545,
                    "duration": 1.2677835000000073
                },
                {
                    "name": "F3",
                    "midi": 53,
                    "time": 65.92474200000007,
                    "velocity": 0.16535433070866143,
                    "duration": 1.2677835000000073
                },
                {
                    "name": "D#3",
                    "midi": 51,
                    "time": 65.92474200000007,
                    "velocity": 0.13385826771653545,
                    "duration": 1.2677835000000073
                },
                {
                    "name": "C#3",
                    "midi": 49,
                    "time": 66.34733650000007,
                    "velocity": 0.13385826771653545,
                    "duration": 0.4225945000000024
                },
                {
                    "name": "C3",
                    "midi": 48,
                    "time": 66.76993100000007,
                    "velocity": 0.13385826771653545,
                    "duration": 0.4225945000000024
                },
                {
                    "name": "D#3",
                    "midi": 51,
                    "time": 67.19252550000007,
                    "velocity": 0.13385826771653545,
                    "duration": 0.8451890000000049
                },
                {
                    "name": "F2",
                    "midi": 41,
                    "time": 67.19252550000007,
                    "velocity": 0.13385826771653545,
                    "duration": 1.2677835000000073
                },
                {
                    "name": "A#2",
                    "midi": 46,
                    "time": 67.19252550000007,
                    "velocity": 0.13385826771653545,
                    "duration": 1.2677835000000073
                },
                {
                    "name": "F3",
                    "midi": 53,
                    "time": 67.19252550000007,
                    "velocity": 0.16535433070866143,
                    "duration": 1.2677835000000073
                },
                {
                    "name": "C#3",
                    "midi": 49,
                    "time": 68.03771450000008,
                    "velocity": 0.12598425196850394,
                    "duration": 0.4225945000000024
                },
                {
                    "name": "F#1",
                    "midi": 30,
                    "time": 68.46030900000008,
                    "velocity": 0.25196850393700787,
                    "duration": 0.2112972500000012
                },
                {
                    "name": "F#2",
                    "midi": 42,
                    "time": 68.67160625000008,
                    "velocity": 0.15748031496062992,
                    "duration": 0.2112972500000012
                },
                {
                    "name": "A#2",
                    "midi": 46,
                    "time": 68.88290350000008,
                    "velocity": 0.14960629921259844,
                    "duration": 0.2112972500000012
                },
                {
                    "name": "C3",
                    "midi": 48,
                    "time": 69.09420075000008,
                    "velocity": 0.15748031496062992,
                    "duration": 0.2112972500000012
                },
                {
                    "name": "C1",
                    "midi": 24,
                    "time": 69.72809250000009,
                    "velocity": 0.2992125984251969,
                    "duration": 0.2112972500000012
                },
                {
                    "name": "C2",
                    "midi": 36,
                    "time": 69.93938975000009,
                    "velocity": 0.2125984251968504,
                    "duration": 0.2112972500000012
                },
                {
                    "name": "D#2",
                    "midi": 39,
                    "time": 70.15068700000009,
                    "velocity": 0.18110236220472442,
                    "duration": 0.2112972500000012
                },
                {
                    "name": "A#2",
                    "midi": 46,
                    "time": 70.36198425000009,
                    "velocity": 0.18110236220472442,
                    "duration": 0.2112972500000012
                },
                {
                    "name": "F2",
                    "midi": 41,
                    "time": 70.9958760000001,
                    "velocity": 0.13385826771653545,
                    "duration": 1.2677835000000073
                },
                {
                    "name": "A2",
                    "midi": 45,
                    "time": 70.9958760000001,
                    "velocity": 0.13385826771653545,
                    "duration": 1.2677835000000073
                },
                {
                    "name": "F3",
                    "midi": 53,
                    "time": 70.9958760000001,
                    "velocity": 0.16535433070866143,
                    "duration": 1.2677835000000073
                },
                {
                    "name": "D#3",
                    "midi": 51,
                    "time": 70.9958760000001,
                    "velocity": 0.13385826771653545,
                    "duration": 1.2677835000000073
                },
                {
                    "name": "C#3",
                    "midi": 49,
                    "time": 71.4184705000001,
                    "velocity": 0.13385826771653545,
                    "duration": 0.4225945000000024
                },
                {
                    "name": "C3",
                    "midi": 48,
                    "time": 71.8410650000001,
                    "velocity": 0.13385826771653545,
                    "duration": 0.4225945000000024
                },
                {
                    "name": "G#2",
                    "midi": 44,
                    "time": 72.2636595000001,
                    "velocity": 0.11811023622047244,
                    "duration": 0.4225945000000024
                },
                {
                    "name": "A#2",
                    "midi": 46,
                    "time": 72.2636595000001,
                    "velocity": 0.11811023622047244,
                    "duration": 1.2677835000000073
                },
                {
                    "name": "G#3",
                    "midi": 56,
                    "time": 72.2636595000001,
                    "velocity": 0.14173228346456693,
                    "duration": 0.4225945000000024
                },
                {
                    "name": "D3",
                    "midi": 50,
                    "time": 72.2636595000001,
                    "velocity": 0.11811023622047244,
                    "duration": 1.2677835000000073
                },
                {
                    "name": "F#2",
                    "midi": 42,
                    "time": 72.6862540000001,
                    "velocity": 0.08661417322834646,
                    "duration": 0.4225945000000024
                },
                {
                    "name": "F#3",
                    "midi": 54,
                    "time": 72.6862540000001,
                    "velocity": 0.11023622047244094,
                    "duration": 0.4225945000000024
                },
                {
                    "name": "F2",
                    "midi": 41,
                    "time": 73.10884850000011,
                    "velocity": 0.08661417322834646,
                    "duration": 0.4225945000000024
                },
                {
                    "name": "F3",
                    "midi": 53,
                    "time": 73.10884850000011,
                    "velocity": 0.10236220472440945,
                    "duration": 0.4225945000000024
                },
                {
                    "name": "D#2",
                    "midi": 39,
                    "time": 73.53144300000011,
                    "velocity": 0.14173228346456693,
                    "duration": 0.2112972500000012
                },
                {
                    "name": "A#2",
                    "midi": 46,
                    "time": 73.74274025000011,
                    "velocity": 0.14173228346456693,
                    "duration": 0.2112972500000012
                },
                {
                    "name": "D#3",
                    "midi": 51,
                    "time": 73.95403750000011,
                    "velocity": 0.13385826771653545,
                    "duration": 0.2112972500000012
                },
                {
                    "name": "F#3",
                    "midi": 54,
                    "time": 74.16533475000011,
                    "velocity": 0.14173228346456693,
                    "duration": 0.2112972500000012
                },
                {
                    "name": "G#1",
                    "midi": 32,
                    "time": 74.79922650000012,
                    "velocity": 0.16535433070866143,
                    "duration": 0.2112972500000012
                },
                {
                    "name": "G#2",
                    "midi": 44,
                    "time": 75.01052375000012,
                    "velocity": 0.16535433070866143,
                    "duration": 0.2112972500000012
                },
                {
                    "name": "B2",
                    "midi": 47,
                    "time": 75.22182100000012,
                    "velocity": 0.14960629921259844,
                    "duration": 0.2112972500000012
                },
                {
                    "name": "E3",
                    "midi": 52,
                    "time": 75.43311825000012,
                    "velocity": 0.14960629921259844,
                    "duration": 0.2112972500000012
                },
                {
                    "name": "A#1",
                    "midi": 34,
                    "time": 76.06701000000012,
                    "velocity": 0.14173228346456693,
                    "duration": 0.2112972500000012
                },
                {
                    "name": "A#2",
                    "midi": 46,
                    "time": 76.27830725000013,
                    "velocity": 0.14173228346456693,
                    "duration": 0.2112972500000012
                },
                {
                    "name": "C#3",
                    "midi": 49,
                    "time": 76.48960450000013,
                    "velocity": 0.13385826771653545,
                    "duration": 0.2112972500000012
                },
                {
                    "name": "E3",
                    "midi": 52,
                    "time": 76.70090175000013,
                    "velocity": 0.14173228346456693,
                    "duration": 0.2112972500000012
                },
                {
                    "name": "D#2",
                    "midi": 39,
                    "time": 77.33479350000013,
                    "velocity": 0.16535433070866143,
                    "duration": 0.2112972500000012
                },
                {
                    "name": "A#2",
                    "midi": 46,
                    "time": 77.54609075000013,
                    "velocity": 0.16535433070866143,
                    "duration": 0.2112972500000012
                },
                {
                    "name": "D#3",
                    "midi": 51,
                    "time": 77.75738800000013,
                    "velocity": 0.14960629921259844,
                    "duration": 0.2112972500000012
                },
                {
                    "name": "G3",
                    "midi": 55,
                    "time": 77.96868525000014,
                    "velocity": 0.14960629921259844,
                    "duration": 0.2112972500000012
                },
                {
                    "name": "G#1",
                    "midi": 32,
                    "time": 78.60257700000014,
                    "velocity": 0.15748031496062992,
                    "duration": 0.2112972500000012
                },
                {
                    "name": "D#2",
                    "midi": 39,
                    "time": 78.81387425000014,
                    "velocity": 0.14173228346456693,
                    "duration": 0.2112972500000012
                },
                {
                    "name": "G#2",
                    "midi": 44,
                    "time": 79.02517150000014,
                    "velocity": 0.12598425196850394,
                    "duration": 0.2112972500000012
                },
                {
                    "name": "C3",
                    "midi": 48,
                    "time": 79.23646875000014,
                    "velocity": 0.12598425196850394,
                    "duration": 0.2112972500000012
                },
                {
                    "name": "G#1",
                    "midi": 32,
                    "time": 79.87036050000015,
                    "velocity": 0.14173228346456693,
                    "duration": 0.2112972500000012
                },
                {
                    "name": "D#2",
                    "midi": 39,
                    "time": 80.08165775000015,
                    "velocity": 0.14173228346456693,
                    "duration": 0.2112972500000012
                },
                {
                    "name": "G#2",
                    "midi": 44,
                    "time": 80.29295500000015,
                    "velocity": 0.13385826771653545,
                    "duration": 0.2112972500000012
                },
                {
                    "name": "B2",
                    "midi": 47,
                    "time": 80.50425225000015,
                    "velocity": 0.13385826771653545,
                    "duration": 0.2112972500000012
                },
                {
                    "name": "A#1",
                    "midi": 34,
                    "time": 81.13814400000015,
                    "velocity": 0.15748031496062992,
                    "duration": 0.2112972500000012
                },
                {
                    "name": "A#2",
                    "midi": 46,
                    "time": 81.34944125000015,
                    "velocity": 0.15748031496062992,
                    "duration": 0.2112972500000012
                },
                {
                    "name": "C#3",
                    "midi": 49,
                    "time": 81.56073850000016,
                    "velocity": 0.14173228346456693,
                    "duration": 0.2112972500000012
                },
                {
                    "name": "E3",
                    "midi": 52,
                    "time": 81.77203575000016,
                    "velocity": 0.14173228346456693,
                    "duration": 0.2112972500000012
                },
                {
                    "name": "G1",
                    "midi": 31,
                    "time": 82.40592750000016,
                    "velocity": 0.15748031496062992,
                    "duration": 0.2112972500000012
                },
                {
                    "name": "G2",
                    "midi": 43,
                    "time": 82.61722475000016,
                    "velocity": 0.15748031496062992,
                    "duration": 0.2112972500000012
                },
                {
                    "name": "A#2",
                    "midi": 46,
                    "time": 82.82852200000016,
                    "velocity": 0.14960629921259844,
                    "duration": 0.2112972500000012
                },
                {
                    "name": "D#3",
                    "midi": 51,
                    "time": 83.03981925000016,
                    "velocity": 0.14960629921259844,
                    "duration": 0.2112972500000012
                },
                {
                    "name": "G#1",
                    "midi": 32,
                    "time": 83.67371100000017,
                    "velocity": 0.12598425196850394,
                    "duration": 0.2112972500000012
                },
                {
                    "name": "D#2",
                    "midi": 39,
                    "time": 83.88500825000017,
                    "velocity": 0.12598425196850394,
                    "duration": 0.2112972500000012
                },
                {
                    "name": "G#2",
                    "midi": 44,
                    "time": 84.09630550000017,
                    "velocity": 0.11023622047244094,
                    "duration": 0.2112972500000012
                },
                {
                    "name": "B2",
                    "midi": 47,
                    "time": 84.30760275000017,
                    "velocity": 0.12598425196850394,
                    "duration": 0.2112972500000012
                },
                {
                    "name": "F#1",
                    "midi": 30,
                    "time": 84.94149450000018,
                    "velocity": 0.15748031496062992,
                    "duration": 0.2112972500000012
                },
                {
                    "name": "D#2",
                    "midi": 39,
                    "time": 85.15279175000018,
                    "velocity": 0.14960629921259844,
                    "duration": 0.2112972500000012
                },
                {
                    "name": "F#2",
                    "midi": 42,
                    "time": 85.36408900000018,
                    "velocity": 0.13385826771653545,
                    "duration": 0.2112972500000012
                },
                {
                    "name": "A#2",
                    "midi": 46,
                    "time": 85.57538625000018,
                    "velocity": 0.13385826771653545,
                    "duration": 0.2112972500000012
                },
                {
                    "name": "A#2",
                    "midi": 46,
                    "time": 86.20927800000018,
                    "velocity": 0.13385826771653545,
                    "duration": 1.2677835000000073
                },
                {
                    "name": "G#3",
                    "midi": 56,
                    "time": 86.20927800000018,
                    "velocity": 0.16535433070866143,
                    "duration": 1.2677835000000073
                },
                {
                    "name": "D3",
                    "midi": 50,
                    "time": 86.20927800000018,
                    "velocity": 0.13385826771653545,
                    "duration": 1.2677835000000073
                },
                {
                    "name": "F#3",
                    "midi": 54,
                    "time": 86.63187250000018,
                    "velocity": 0.13385826771653545,
                    "duration": 0.4225945000000024
                },
                {
                    "name": "F3",
                    "midi": 53,
                    "time": 87.05446700000019,
                    "velocity": 0.13385826771653545,
                    "duration": 0.4225945000000024
                },
                {
                    "name": "G#3",
                    "midi": 56,
                    "time": 87.47706150000019,
                    "velocity": 0.13385826771653545,
                    "duration": 0.8451890000000049
                },
                {
                    "name": "A#2",
                    "midi": 46,
                    "time": 87.47706150000019,
                    "velocity": 0.13385826771653545,
                    "duration": 1.2677835000000073
                },
                {
                    "name": "D#3",
                    "midi": 51,
                    "time": 87.47706150000019,
                    "velocity": 0.16535433070866143,
                    "duration": 1.2677835000000073
                },
                {
                    "name": "F#3",
                    "midi": 54,
                    "time": 88.3222505000002,
                    "velocity": 0.12598425196850394,
                    "duration": 0.4225945000000024
                },
                {
                    "name": "G#1",
                    "midi": 32,
                    "time": 88.7448450000002,
                    "velocity": 0.2125984251968504,
                    "duration": 0.2112972500000012
                },
                {
                    "name": "G#2",
                    "midi": 44,
                    "time": 88.9561422500002,
                    "velocity": 0.14173228346456693,
                    "duration": 0.2112972500000012
                },
                {
                    "name": "B2",
                    "midi": 47,
                    "time": 89.1674395000002,
                    "velocity": 0.13385826771653545,
                    "duration": 0.2112972500000012
                },
                {
                    "name": "E3",
                    "midi": 52,
                    "time": 89.3787367500002,
                    "velocity": 0.14173228346456693,
                    "duration": 0.2112972500000012
                },
                {
                    "name": "A#1",
                    "midi": 34,
                    "time": 90.0126285000002,
                    "velocity": 0.2047244094488189,
                    "duration": 0.2112972500000012
                },
                {
                    "name": "F#2",
                    "midi": 42,
                    "time": 90.2239257500002,
                    "velocity": 0.16535433070866143,
                    "duration": 0.2112972500000012
                },
                {
                    "name": "A#2",
                    "midi": 46,
                    "time": 90.4352230000002,
                    "velocity": 0.14173228346456693,
                    "duration": 0.2112972500000012
                },
                {
                    "name": "D#3",
                    "midi": 51,
                    "time": 90.64652025000021,
                    "velocity": 0.13385826771653545,
                    "duration": 0.2112972500000012
                },
                {
                    "name": "G#2",
                    "midi": 44,
                    "time": 91.28041200000021,
                    "velocity": 0.13385826771653545,
                    "duration": 0.8451890000000049
                },
                {
                    "name": "A#2",
                    "midi": 46,
                    "time": 91.28041200000021,
                    "velocity": 0.16535433070866143,
                    "duration": 1.2677835000000073
                },
                {
                    "name": "F#2",
                    "midi": 42,
                    "time": 92.12560100000022,
                    "velocity": 0.13385826771653545,
                    "duration": 0.8451890000000049
                },
                {
                    "name": "A#2",
                    "midi": 46,
                    "time": 92.54819550000022,
                    "velocity": 0.13385826771653545,
                    "duration": 1.2677835000000073
                },
                {
                    "name": "F2",
                    "midi": 41,
                    "time": 92.97079000000022,
                    "velocity": 0.13385826771653545,
                    "duration": 0.8451890000000049
                },
                {
                    "name": "C#3",
                    "midi": 49,
                    "time": 93.81597900000023,
                    "velocity": 0.11023622047244094,
                    "duration": 0.8451890000000049
                },
                {
                    "name": "D#2",
                    "midi": 39,
                    "time": 93.81597900000023,
                    "velocity": 0.13385826771653545,
                    "duration": 1.2677835000000073
                },
                {
                    "name": "B2",
                    "midi": 47,
                    "time": 94.66116800000023,
                    "velocity": 0.10236220472440945,
                    "duration": 0.8451890000000049
                },
                {
                    "name": "D#2",
                    "midi": 39,
                    "time": 95.08376250000023,
                    "velocity": 0.11811023622047244,
                    "duration": 1.2677834999999789
                },
                {
                    "name": "A#2",
                    "midi": 46,
                    "time": 95.50635700000024,
                    "velocity": 0.09448818897637795,
                    "duration": 0.2641215624999944
                },
                {
                    "name": "D#2",
                    "midi": 39,
                    "time": 96.24589737500023,
                    "velocity": 0.13385826771653545,
                    "duration": 0.9508376249999912
                },
                {
                    "name": "A#2",
                    "midi": 46,
                    "time": 96.29872168750022,
                    "velocity": 0.13385826771653545,
                    "duration": 0.898013312499998
                },
                {
                    "name": "G3",
                    "midi": 55,
                    "time": 96.35154600000021,
                    "velocity": 0.13385826771653545,
                    "duration": 0.8451890000000049
                },
                {
                    "name": "A#2",
                    "midi": 46,
                    "time": 98.46451850000021,
                    "velocity": 0.18110236220472442,
                    "duration": 0.4225945000000024
                },
                {
                    "name": "D#2",
                    "midi": 39,
                    "time": 98.46451850000021,
                    "velocity": 0.18110236220472442,
                    "duration": 0.4225945000000024
                },
                {
                    "name": "D#2",
                    "midi": 39,
                    "time": 98.88711300000021,
                    "velocity": 0.18110236220472442,
                    "duration": 0.4225945000000024
                },
                {
                    "name": "A#2",
                    "midi": 46,
                    "time": 98.88711300000021,
                    "velocity": 0.18110236220472442,
                    "duration": 0.4225945000000024
                },
                {
                    "name": "F3",
                    "midi": 53,
                    "time": 98.88711300000021,
                    "velocity": 0.18110236220472442,
                    "duration": 0.4225945000000024
                },
                {
                    "name": "D#3",
                    "midi": 51,
                    "time": 99.30970750000021,
                    "velocity": 0.18110236220472442,
                    "duration": 0.4225945000000024
                },
                {
                    "name": "G2",
                    "midi": 43,
                    "time": 101.00008550000021,
                    "velocity": 0.16535433070866143,
                    "duration": 0.4225945000000024
                },
                {
                    "name": "D#3",
                    "midi": 51,
                    "time": 101.00008550000021,
                    "velocity": 0.2047244094488189,
                    "duration": 0.4225945000000024
                },
                {
                    "name": "G2",
                    "midi": 43,
                    "time": 101.42268000000021,
                    "velocity": 0.14173228346456693,
                    "duration": 0.8451890000000049
                },
                {
                    "name": "D#3",
                    "midi": 51,
                    "time": 101.42268000000021,
                    "velocity": 0.16535433070866143,
                    "duration": 0.8451890000000049
                },
                {
                    "name": "A#1",
                    "midi": 34,
                    "time": 103.53565250000021,
                    "velocity": 0.18110236220472442,
                    "duration": 0.4225945000000024
                },
                {
                    "name": "A#2",
                    "midi": 46,
                    "time": 103.53565250000021,
                    "velocity": 0.2047244094488189,
                    "duration": 0.4225945000000024
                },
                {
                    "name": "D#3",
                    "midi": 51,
                    "time": 103.95824700000021,
                    "velocity": 0.2047244094488189,
                    "duration": 0.8451890000000049
                },
                {
                    "name": "A#2",
                    "midi": 46,
                    "time": 103.95824700000021,
                    "velocity": 0.2047244094488189,
                    "duration": 0.8451890000000049
                },
                {
                    "name": "G3",
                    "midi": 55,
                    "time": 103.95824700000021,
                    "velocity": 0.2047244094488189,
                    "duration": 0.8451890000000049
                },
                {
                    "name": "A#1",
                    "midi": 34,
                    "time": 104.80343600000022,
                    "velocity": 0.15748031496062992,
                    "duration": 0.4225945000000024
                },
                {
                    "name": "A#2",
                    "midi": 46,
                    "time": 104.80343600000022,
                    "velocity": 0.15748031496062992,
                    "duration": 0.4225945000000024
                },
                {
                    "name": "D#2",
                    "midi": 39,
                    "time": 105.22603050000022,
                    "velocity": 0.14173228346456693,
                    "duration": 0.8451890000000049
                },
                {
                    "name": "A#2",
                    "midi": 46,
                    "time": 105.22603050000022,
                    "velocity": 0.14173228346456693,
                    "duration": 0.8451890000000049
                },
                {
                    "name": "D#2",
                    "midi": 39,
                    "time": 106.07121950000023,
                    "velocity": 0.2047244094488189,
                    "duration": 0.4225945000000024
                },
                {
                    "name": "D#3",
                    "midi": 51,
                    "time": 106.49381400000023,
                    "velocity": 0.16535433070866143,
                    "duration": 0.8451890000000049
                },
                {
                    "name": "C4",
                    "midi": 60,
                    "time": 106.49381400000023,
                    "velocity": 0.16535433070866143,
                    "duration": 0.8451890000000049
                },
                {
                    "name": "D#3",
                    "midi": 51,
                    "time": 107.33900300000023,
                    "velocity": 0.16535433070866143,
                    "duration": 0.4225945000000024
                },
                {
                    "name": "G#3",
                    "midi": 56,
                    "time": 107.33900300000023,
                    "velocity": 0.16535433070866143,
                    "duration": 0.4225945000000024
                },
                {
                    "name": "D#3",
                    "midi": 51,
                    "time": 107.76159750000024,
                    "velocity": 0.1889763779527559,
                    "duration": 0.8451890000000049
                },
                {
                    "name": "A#3",
                    "midi": 58,
                    "time": 107.76159750000024,
                    "velocity": 0.1889763779527559,
                    "duration": 0.8451890000000049
                },
                {
                    "name": "D#2",
                    "midi": 39,
                    "time": 108.60678650000024,
                    "velocity": 0.2047244094488189,
                    "duration": 0.4225945000000024
                },
                {
                    "name": "D#3",
                    "midi": 51,
                    "time": 109.02938100000024,
                    "velocity": 0.16535433070866143,
                    "duration": 0.8451890000000049
                },
                {
                    "name": "C4",
                    "midi": 60,
                    "time": 109.02938100000024,
                    "velocity": 0.16535433070866143,
                    "duration": 0.8451890000000049
                },
                {
                    "name": "D#3",
                    "midi": 51,
                    "time": 109.87457000000025,
                    "velocity": 0.16535433070866143,
                    "duration": 0.4225945000000024
                },
                {
                    "name": "G#3",
                    "midi": 56,
                    "time": 109.87457000000025,
                    "velocity": 0.16535433070866143,
                    "duration": 0.4225945000000024
                },
                {
                    "name": "D#3",
                    "midi": 51,
                    "time": 110.29716450000025,
                    "velocity": 0.16535433070866143,
                    "duration": 0.8451890000000049
                },
                {
                    "name": "A#3",
                    "midi": 58,
                    "time": 110.29716450000025,
                    "velocity": 0.16535433070866143,
                    "duration": 0.8451890000000049
                },
                {
                    "name": "D#2",
                    "midi": 39,
                    "time": 111.14235350000025,
                    "velocity": 0.2755905511811024,
                    "duration": 0.4225945000000024
                },
                {
                    "name": "D#3",
                    "midi": 51,
                    "time": 111.14235350000025,
                    "velocity": 0.2755905511811024,
                    "duration": 0.4225945000000024
                },
                {
                    "name": "A#3",
                    "midi": 58,
                    "time": 111.56494800000026,
                    "velocity": 0.2677165354330709,
                    "duration": 0.4225945000000024
                },
                {
                    "name": "A#2",
                    "midi": 46,
                    "time": 111.56494800000026,
                    "velocity": 0.2125984251968504,
                    "duration": 0.4225945000000024
                },
                {
                    "name": "A3",
                    "midi": 57,
                    "time": 111.98754250000026,
                    "velocity": 0.29133858267716534,
                    "duration": 0.4225945000000024
                },
                {
                    "name": "A2",
                    "midi": 45,
                    "time": 111.98754250000026,
                    "velocity": 0.2440944881889764,
                    "duration": 0.4225945000000024
                },
                {
                    "name": "A#2",
                    "midi": 46,
                    "time": 112.41013700000026,
                    "velocity": 0.2677165354330709,
                    "duration": 0.4225945000000024
                },
                {
                    "name": "G3",
                    "midi": 55,
                    "time": 112.41013700000026,
                    "velocity": 0.3228346456692913,
                    "duration": 0.4225945000000024
                },
                {
                    "name": "G2",
                    "midi": 43,
                    "time": 112.41013700000026,
                    "velocity": 0.2677165354330709,
                    "duration": 0.4225945000000024
                },
                {
                    "name": "A#2",
                    "midi": 46,
                    "time": 112.83273150000026,
                    "velocity": 0.33070866141732286,
                    "duration": 0.8451890000000049
                },
                {
                    "name": "F3",
                    "midi": 53,
                    "time": 112.83273150000026,
                    "velocity": 0.41732283464566927,
                    "duration": 0.8451890000000049
                },
                {
                    "name": "F2",
                    "midi": 41,
                    "time": 112.83273150000026,
                    "velocity": 0.33070866141732286,
                    "duration": 0.8451890000000049
                },
                {
                    "name": "D#3",
                    "midi": 51,
                    "time": 113.67792050000027,
                    "velocity": 0.36220472440944884,
                    "duration": 0.2112972500000012
                },
                {
                    "name": "D#2",
                    "midi": 39,
                    "time": 113.67792050000027,
                    "velocity": 0.31496062992125984,
                    "duration": 0.2112972500000012
                },
                {
                    "name": "D2",
                    "midi": 38,
                    "time": 113.88921775000027,
                    "velocity": 0.3228346456692913,
                    "duration": 0.2112972500000012
                },
                {
                    "name": "D3",
                    "midi": 50,
                    "time": 113.88921775000027,
                    "velocity": 0.3700787401574803,
                    "duration": 0.2112972500000012
                },
                {
                    "name": "F3",
                    "midi": 53,
                    "time": 114.10051500000027,
                    "velocity": 0.4015748031496063,
                    "duration": 0.8451890000000049
                },
                {
                    "name": "F2",
                    "midi": 41,
                    "time": 114.10051500000027,
                    "velocity": 0.33858267716535434,
                    "duration": 0.8451890000000049
                },
                {
                    "name": "A#2",
                    "midi": 46,
                    "time": 114.94570400000028,
                    "velocity": 0.2440944881889764,
                    "duration": 0.4225945000000024
                },
                {
                    "name": "A#1",
                    "midi": 34,
                    "time": 114.94570400000028,
                    "velocity": 0.1968503937007874,
                    "duration": 0.4225945000000024
                },
                {
                    "name": "A#2",
                    "midi": 46,
                    "time": 115.36829850000028,
                    "velocity": 0.2677165354330709,
                    "duration": 0.8451890000000049
                },
                {
                    "name": "A#1",
                    "midi": 34,
                    "time": 115.36829850000028,
                    "velocity": 0.2125984251968504,
                    "duration": 0.8451890000000049
                },
                {
                    "name": "A#2",
                    "midi": 46,
                    "time": 116.21348750000028,
                    "velocity": 0.15748031496062992,
                    "duration": 0.3169458750000018
                },
                {
                    "name": "G#3",
                    "midi": 56,
                    "time": 116.42478475000028,
                    "velocity": 0.1889763779527559,
                    "duration": 0.1056486250000006
                },
                {
                    "name": "D#2",
                    "midi": 39,
                    "time": 116.53043337500029,
                    "velocity": 0.15748031496062992,
                    "duration": 0.9508376250000055
                },
                {
                    "name": "G3",
                    "midi": 55,
                    "time": 116.63608200000029,
                    "velocity": 0.14960629921259844,
                    "duration": 0.8451890000000049
                },
                {
                    "name": "D#3",
                    "midi": 51,
                    "time": 117.48127100000029,
                    "velocity": 0.14960629921259844,
                    "duration": 0.4225945000000024
                },
                {
                    "name": "G3",
                    "midi": 55,
                    "time": 117.48127100000029,
                    "velocity": 0.14960629921259844,
                    "duration": 0.4225945000000024
                },
                {
                    "name": "D#3",
                    "midi": 51,
                    "time": 117.9038655000003,
                    "velocity": 0.16535433070866143,
                    "duration": 0.8451890000000049
                },
                {
                    "name": "G3",
                    "midi": 55,
                    "time": 117.9038655000003,
                    "velocity": 0.16535433070866143,
                    "duration": 0.8451890000000049
                },
                {
                    "name": "D#2",
                    "midi": 39,
                    "time": 118.7490545000003,
                    "velocity": 0.18110236220472442,
                    "duration": 0.4225945000000024
                },
                {
                    "name": "D#3",
                    "midi": 51,
                    "time": 119.1716490000003,
                    "velocity": 0.18110236220472442,
                    "duration": 0.8451890000000049
                },
                {
                    "name": "G3",
                    "midi": 55,
                    "time": 119.1716490000003,
                    "velocity": 0.18110236220472442,
                    "duration": 0.8451890000000049
                },
                {
                    "name": "D#3",
                    "midi": 51,
                    "time": 120.0168380000003,
                    "velocity": 0.15748031496062992,
                    "duration": 0.4225945000000024
                },
                {
                    "name": "G3",
                    "midi": 55,
                    "time": 120.0168380000003,
                    "velocity": 0.15748031496062992,
                    "duration": 0.4225945000000024
                },
                {
                    "name": "D#3",
                    "midi": 51,
                    "time": 120.43943250000031,
                    "velocity": 0.14173228346456693,
                    "duration": 0.8451890000000049
                },
                {
                    "name": "G3",
                    "midi": 55,
                    "time": 120.43943250000031,
                    "velocity": 0.14173228346456693,
                    "duration": 0.8451890000000049
                },
                {
                    "name": "C2",
                    "midi": 36,
                    "time": 121.28462150000031,
                    "velocity": 0.18110236220472442,
                    "duration": 0.4225945000000024
                },
                {
                    "name": "C3",
                    "midi": 48,
                    "time": 121.70721600000032,
                    "velocity": 0.12598425196850394,
                    "duration": 0.8451890000000049
                },
                {
                    "name": "G3",
                    "midi": 55,
                    "time": 121.70721600000032,
                    "velocity": 0.14960629921259844,
                    "duration": 0.8451890000000049
                },
                {
                    "name": "C3",
                    "midi": 48,
                    "time": 122.55240500000032,
                    "velocity": 0.12598425196850394,
                    "duration": 0.4225945000000024
                },
                {
                    "name": "G3",
                    "midi": 55,
                    "time": 122.55240500000032,
                    "velocity": 0.14960629921259844,
                    "duration": 0.4225945000000024
                },
                {
                    "name": "C3",
                    "midi": 48,
                    "time": 122.97499950000032,
                    "velocity": 0.13385826771653545,
                    "duration": 0.8451890000000049
                },
                {
                    "name": "G3",
                    "midi": 55,
                    "time": 122.97499950000032,
                    "velocity": 0.16535433070866143,
                    "duration": 0.8451890000000049
                },
                {
                    "name": "D2",
                    "midi": 38,
                    "time": 123.82018850000033,
                    "velocity": 0.18110236220472442,
                    "duration": 0.4225945000000024
                },
                {
                    "name": "D3",
                    "midi": 50,
                    "time": 124.24278300000033,
                    "velocity": 0.14960629921259844,
                    "duration": 0.8451890000000049
                },
                {
                    "name": "F#3",
                    "midi": 54,
                    "time": 124.24278300000033,
                    "velocity": 0.18110236220472442,
                    "duration": 0.8451890000000049
                },
                {
                    "name": "C4",
                    "midi": 60,
                    "time": 124.24278300000033,
                    "velocity": 0.18110236220472442,
                    "duration": 0.8451890000000049
                },
                {
                    "name": "D3",
                    "midi": 50,
                    "time": 125.08797200000033,
                    "velocity": 0.15748031496062992,
                    "duration": 0.4225945000000024
                },
                {
                    "name": "F#3",
                    "midi": 54,
                    "time": 125.08797200000033,
                    "velocity": 0.15748031496062992,
                    "duration": 0.4225945000000024
                },
                {
                    "name": "A3",
                    "midi": 57,
                    "time": 125.08797200000033,
                    "velocity": 0.15748031496062992,
                    "duration": 0.4225945000000024
                },
                {
                    "name": "A#2",
                    "midi": 46,
                    "time": 125.51056650000034,
                    "velocity": 0.15748031496062992,
                    "duration": 0.8451890000000049
                },
                {
                    "name": "A#3",
                    "midi": 58,
                    "time": 125.51056650000034,
                    "velocity": 0.15748031496062992,
                    "duration": 0.8451890000000049
                },
                {
                    "name": "D4",
                    "midi": 62,
                    "time": 126.35575550000034,
                    "velocity": 0.12598425196850394,
                    "duration": 0.3169458750000018
                },
                {
                    "name": "A#3",
                    "midi": 58,
                    "time": 126.35575550000034,
                    "velocity": 0.12598425196850394,
                    "duration": 0.3169458750000018
                },
                {
                    "name": "G#4",
                    "midi": 68,
                    "time": 126.35575550000034,
                    "velocity": 0.14960629921259844,
                    "duration": 0.3169458750000018
                },
                {
                    "name": "D#3",
                    "midi": 51,
                    "time": 126.67270137500034,
                    "velocity": 0.14960629921259844,
                    "duration": 0.8451889999999906
                },
                {
                    "name": "A#3",
                    "midi": 58,
                    "time": 126.72552568750034,
                    "velocity": 0.14960629921259844,
                    "duration": 0.7923646874999974
                },
                {
                    "name": "G4",
                    "midi": 67,
                    "time": 126.77835000000033,
                    "velocity": 0.14960629921259844,
                    "duration": 0.7395403750000042
                },
                {
                    "name": "D#3",
                    "midi": 51,
                    "time": 127.51789037500033,
                    "velocity": 0.14960629921259844,
                    "duration": 0.4225944999999882
                },
                {
                    "name": "A#3",
                    "midi": 58,
                    "time": 127.57071468750033,
                    "velocity": 0.14960629921259844,
                    "duration": 0.369770187499995
                },
                {
                    "name": "G4",
                    "midi": 67,
                    "time": 127.62353900000032,
                    "velocity": 0.14960629921259844,
                    "duration": 0.3169458750000018
                },
                {
                    "name": "D#3",
                    "midi": 51,
                    "time": 127.94048487500032,
                    "velocity": 0.14960629921259844,
                    "duration": 0.9508376249999912
                },
                {
                    "name": "A#3",
                    "midi": 58,
                    "time": 127.99330918750032,
                    "velocity": 0.14960629921259844,
                    "duration": 0.898013312499998
                },
                {
                    "name": "G4",
                    "midi": 67,
                    "time": 128.0461335000003,
                    "velocity": 0.14960629921259844,
                    "duration": 0.8451890000000049
                },
                {
                    "name": "D#3",
                    "midi": 51,
                    "time": 128.8913225000003,
                    "velocity": 0.12598425196850394,
                    "duration": 0.4225945000000024
                },
                {
                    "name": "A#3",
                    "midi": 58,
                    "time": 128.8913225000003,
                    "velocity": 0.14960629921259844,
                    "duration": 0.4225945000000024
                },
                {
                    "name": "D#3",
                    "midi": 51,
                    "time": 129.31391700000032,
                    "velocity": 0.12598425196850394,
                    "duration": 0.73954037499999
                },
                {
                    "name": "A#3",
                    "midi": 58,
                    "time": 129.31391700000032,
                    "velocity": 0.14960629921259844,
                    "duration": 0.73954037499999
                },
                {
                    "name": "D#3",
                    "midi": 51,
                    "time": 130.0534573750003,
                    "velocity": 0.12598425196850394,
                    "duration": 0.4225945000000024
                },
                {
                    "name": "G#3",
                    "midi": 56,
                    "time": 130.1062816875003,
                    "velocity": 0.14960629921259844,
                    "duration": 0.369770187499995
                },
                {
                    "name": "D#3",
                    "midi": 51,
                    "time": 130.4760518750003,
                    "velocity": 0.12598425196850394,
                    "duration": 0.9508376250000197
                },
                {
                    "name": "G3",
                    "midi": 55,
                    "time": 130.52887618750032,
                    "velocity": 0.14960629921259844,
                    "duration": 0.8980133125000123
                },
                {
                    "name": "G2",
                    "midi": 43,
                    "time": 131.42688950000033,
                    "velocity": 0.1968503937007874,
                    "duration": 0.4225945000000024
                },
                {
                    "name": "D#3",
                    "midi": 51,
                    "time": 131.42688950000033,
                    "velocity": 0.1968503937007874,
                    "duration": 1.2677835000000073
                },
                {
                    "name": "G3",
                    "midi": 55,
                    "time": 131.42688950000033,
                    "velocity": 0.2204724409448819,
                    "duration": 1.2677835000000073
                },
                {
                    "name": "A2",
                    "midi": 45,
                    "time": 131.84948400000033,
                    "velocity": 0.15748031496062992,
                    "duration": 0.8451890000000049
                },
                {
                    "name": "A#2",
                    "midi": 46,
                    "time": 132.69467300000034,
                    "velocity": 0.13385826771653545,
                    "duration": 0.8451890000000049
                },
                {
                    "name": "D#3",
                    "midi": 51,
                    "time": 132.69467300000034,
                    "velocity": 0.16535433070866143,
                    "duration": 0.8451890000000049
                },
                {
                    "name": "G3",
                    "midi": 55,
                    "time": 132.69467300000034,
                    "velocity": 0.16535433070866143,
                    "duration": 0.8451890000000049
                },
                {
                    "name": "C3",
                    "midi": 48,
                    "time": 133.53986200000034,
                    "velocity": 0.13385826771653545,
                    "duration": 0.8451890000000049
                },
                {
                    "name": "D#3",
                    "midi": 51,
                    "time": 133.53986200000034,
                    "velocity": 0.16535433070866143,
                    "duration": 0.8451890000000049
                },
                {
                    "name": "G3",
                    "midi": 55,
                    "time": 133.53986200000034,
                    "velocity": 0.16535433070866143,
                    "duration": 0.8451890000000049
                },
                {
                    "name": "A#2",
                    "midi": 46,
                    "time": 134.38505100000035,
                    "velocity": 0.18110236220472442,
                    "duration": 0.8451890000000049
                },
                {
                    "name": "G3",
                    "midi": 55,
                    "time": 134.38505100000035,
                    "velocity": 0.18110236220472442,
                    "duration": 0.8451890000000049
                },
                {
                    "name": "A#2",
                    "midi": 46,
                    "time": 135.23024000000035,
                    "velocity": 0.14173228346456693,
                    "duration": 1.1621348749999925
                },
                {
                    "name": "G#3",
                    "midi": 56,
                    "time": 135.23024000000035,
                    "velocity": 0.14173228346456693,
                    "duration": 1.1621348749999925
                },
                {
                    "name": "G#2",
                    "midi": 44,
                    "time": 136.39237487500034,
                    "velocity": 0.1732283464566929,
                    "duration": 1.373432125000022
                },
                {
                    "name": "D#3",
                    "midi": 51,
                    "time": 136.44519918750035,
                    "velocity": 0.1732283464566929,
                    "duration": 1.3206078125000147
                },
                {
                    "name": "C4",
                    "midi": 60,
                    "time": 136.49802350000036,
                    "velocity": 0.2125984251968504,
                    "duration": 1.2677835000000073
                },
                {
                    "name": "C3",
                    "midi": 48,
                    "time": 137.76580700000036,
                    "velocity": 0.11811023622047244,
                    "duration": 1.2677835000000073
                },
                {
                    "name": "D#3",
                    "midi": 51,
                    "time": 137.76580700000036,
                    "velocity": 0.14173228346456693,
                    "duration": 1.2677835000000073
                },
                {
                    "name": "A#2",
                    "midi": 46,
                    "time": 139.03359050000037,
                    "velocity": 0.11023622047244094,
                    "duration": 1.2677835000000073
                },
                {
                    "name": "G3",
                    "midi": 55,
                    "time": 139.03359050000037,
                    "velocity": 0.11023622047244094,
                    "duration": 1.2677835000000073
                },
                {
                    "name": "A#2",
                    "midi": 46,
                    "time": 140.30137400000038,
                    "velocity": 0.11023622047244094,
                    "duration": 1.6903780000000097
                },
                {
                    "name": "G#3",
                    "midi": 56,
                    "time": 140.30137400000038,
                    "velocity": 0.11023622047244094,
                    "duration": 1.6903780000000097
                },
                {
                    "name": "D#3",
                    "midi": 51,
                    "time": 141.9917520000004,
                    "velocity": 0.10236220472440945,
                    "duration": 0.8451890000000049
                },
                {
                    "name": "G3",
                    "midi": 55,
                    "time": 141.9917520000004,
                    "velocity": 0.13385826771653545,
                    "duration": 0.8451890000000049
                },
                {
                    "name": "D#1",
                    "midi": 27,
                    "time": 143.2595355000004,
                    "velocity": 0.07874015748031496,
                    "duration": 0.8451890000000049
                },
                {
                    "name": "D#2",
                    "midi": 39,
                    "time": 143.2595355000004,
                    "velocity": 0.09448818897637795,
                    "duration": 0.8451890000000049
                },
                {
                    "name": "D#3",
                    "midi": 51,
                    "time": 144.5273190000004,
                    "velocity": 0.08661417322834646,
                    "duration": 1.2677835000000073
                },
                {
                    "name": "G3",
                    "midi": 55,
                    "time": 144.5273190000004,
                    "velocity": 0.08661417322834646,
                    "duration": 1.2677835000000073
                },
                {
                    "name": "D#4",
                    "midi": 63,
                    "time": 144.5273190000004,
                    "velocity": 0.11023622047244094,
                    "duration": 1.2677835000000073
                }
            ],
            "controlChanges": {},
            "id": 2,
            "name": "Piano left",
            "instrumentNumber": 0,
            "instrument": "acoustic grand piano",
            "instrumentFamily": "piano",
            "channelNumber": 0,
            "isPercussion": false
        },
        {
            "startTime": 0,
            "duration": 0,
            "length": 0,
            "notes": [],
            "controlChanges": {
                "64": [
                    {
                        "number": 64,
                        "time": 2.1129724999999997,
                        "value": 1
                    },
                    {
                        "number": 64,
                        "time": 3.41773301875,
                        "value": 0
                    },
                    {
                        "number": 64,
                        "time": 3.6043789229166667,
                        "value": 1
                    },
                    {
                        "number": 64,
                        "time": 3.8332842770833335,
                        "value": 0
                    },
                    {
                        "number": 64,
                        "time": 3.9653450583333334,
                        "value": 1
                    },
                    {
                        "number": 64,
                        "time": 4.671430035416667,
                        "value": 0
                    },
                    {
                        "number": 64,
                        "time": 4.773557039583333,
                        "value": 1
                    },
                    {
                        "number": 64,
                        "time": 5.092263725,
                        "value": 0
                    },
                    {
                        "number": 64,
                        "time": 5.331733941666666,
                        "value": 1
                    },
                    {
                        "number": 64,
                        "time": 5.939213535416666,
                        "value": 0
                    },
                    {
                        "number": 64,
                        "time": 6.065991885416667,
                        "value": 1
                    },
                    {
                        "number": 64,
                        "time": 7.2158010875,
                        "value": 0
                    },
                    {
                        "number": 64,
                        "time": 7.333775385416667,
                        "value": 1
                    },
                    {
                        "number": 64,
                        "time": 7.620787483333333,
                        "value": 0
                    },
                    {
                        "number": 64,
                        "time": 7.7563698854166665,
                        "value": 1
                    },
                    {
                        "number": 64,
                        "time": 8.487106208333334,
                        "value": 0
                    },
                    {
                        "number": 64,
                        "time": 8.62621023125,
                        "value": 1
                    },
                    {
                        "number": 64,
                        "time": 8.904418277083334,
                        "value": 0
                    },
                    {
                        "number": 64,
                        "time": 9.04880473125,
                        "value": 1
                    },
                    {
                        "number": 64,
                        "time": 9.7513680875,
                        "value": 0
                    },
                    {
                        "number": 64,
                        "time": 9.906319404166666,
                        "value": 1
                    },
                    {
                        "number": 64,
                        "time": 10.166919345833334,
                        "value": 0
                    },
                    {
                        "number": 64,
                        "time": 10.230308520833333,
                        "value": 1
                    },
                    {
                        "number": 64,
                        "time": 11.020912397916666,
                        "value": 0
                    },
                    {
                        "number": 64,
                        "time": 11.149451558333332,
                        "value": 1
                    },
                    {
                        "number": 64,
                        "time": 11.438224466666666,
                        "value": 0
                    },
                    {
                        "number": 64,
                        "time": 11.677694683333332,
                        "value": 1
                    },
                    {
                        "number": 64,
                        "time": 12.677834999999998,
                        "value": 0
                    },
                    {
                        "number": 64,
                        "time": 12.852155231249998,
                        "value": 1
                    },
                    {
                        "number": 64,
                        "time": 13.560001018749999,
                        "value": 0
                    },
                    {
                        "number": 64,
                        "time": 13.746646922916666,
                        "value": 1
                    },
                    {
                        "number": 64,
                        "time": 13.975552277083333,
                        "value": 0
                    },
                    {
                        "number": 64,
                        "time": 14.107613058333333,
                        "value": 1
                    },
                    {
                        "number": 64,
                        "time": 14.813698035416667,
                        "value": 0
                    },
                    {
                        "number": 64,
                        "time": 14.915825039583334,
                        "value": 1
                    },
                    {
                        "number": 64,
                        "time": 15.213402,
                        "value": 0
                    },
                    {
                        "number": 64,
                        "time": 15.38772223125,
                        "value": 1
                    },
                    {
                        "number": 64,
                        "time": 16.09556801875,
                        "value": 0
                    },
                    {
                        "number": 64,
                        "time": 16.282213922916668,
                        "value": 1
                    },
                    {
                        "number": 64,
                        "time": 16.458294964583335,
                        "value": 0
                    },
                    {
                        "number": 64,
                        "time": 16.632615195833335,
                        "value": 1
                    },
                    {
                        "number": 64,
                        "time": 17.340460983333333,
                        "value": 0
                    },
                    {
                        "number": 64,
                        "time": 17.5271068875,
                        "value": 1
                    },
                    {
                        "number": 64,
                        "time": 17.748969,
                        "value": 0
                    },
                    {
                        "number": 64,
                        "time": 17.972591922916667,
                        "value": 1
                    },
                    {
                        "number": 64,
                        "time": 18.624091777083333,
                        "value": 0
                    },
                    {
                        "number": 64,
                        "time": 18.706849866666666,
                        "value": 1
                    },
                    {
                        "number": 64,
                        "time": 19.041403845833333,
                        "value": 0
                    },
                    {
                        "number": 64,
                        "time": 19.19107273125,
                        "value": 1
                    },
                    {
                        "number": 64,
                        "time": 19.8936360875,
                        "value": 0
                    },
                    {
                        "number": 64,
                        "time": 19.9992847125,
                        "value": 1
                    },
                    {
                        "number": 64,
                        "time": 20.2951008625,
                        "value": 0
                    },
                    {
                        "number": 64,
                        "time": 20.4218792125,
                        "value": 1
                    },
                    {
                        "number": 64,
                        "time": 21.15437634583333,
                        "value": 0
                    },
                    {
                        "number": 64,
                        "time": 21.267068212499996,
                        "value": 1
                    },
                    {
                        "number": 64,
                        "time": 21.580492466666662,
                        "value": 0
                    },
                    {
                        "number": 64,
                        "time": 21.701988385416662,
                        "value": 1
                    },
                    {
                        "number": 64,
                        "time": 22.425681466666664,
                        "value": 0
                    },
                    {
                        "number": 64,
                        "time": 22.52252603958333,
                        "value": 1
                    },
                    {
                        "number": 64,
                        "time": 22.820102999999996,
                        "value": 0
                    },
                    {
                        "number": 64,
                        "time": 22.920469193749994,
                        "value": 1
                    },
                    {
                        "number": 64,
                        "time": 23.702269018749995,
                        "value": 0
                    },
                    {
                        "number": 64,
                        "time": 23.888914922916662,
                        "value": 1
                    },
                    {
                        "number": 64,
                        "time": 24.11782027708333,
                        "value": 0
                    },
                    {
                        "number": 64,
                        "time": 24.24988105833333,
                        "value": 1
                    },
                    {
                        "number": 64,
                        "time": 24.95596603541666,
                        "value": 0
                    },
                    {
                        "number": 64,
                        "time": 25.05809303958333,
                        "value": 1
                    },
                    {
                        "number": 64,
                        "time": 25.376799724999998,
                        "value": 0
                    },
                    {
                        "number": 64,
                        "time": 25.616269941666665,
                        "value": 1
                    },
                    {
                        "number": 64,
                        "time": 26.223749535416665,
                        "value": 0
                    },
                    {
                        "number": 64,
                        "time": 26.350527885416664,
                        "value": 1
                    },
                    {
                        "number": 64,
                        "time": 27.500337087499997,
                        "value": 0
                    },
                    {
                        "number": 64,
                        "time": 27.618311385416664,
                        "value": 1
                    },
                    {
                        "number": 64,
                        "time": 27.90532348333333,
                        "value": 0
                    },
                    {
                        "number": 64,
                        "time": 28.040905885416663,
                        "value": 1
                    },
                    {
                        "number": 64,
                        "time": 28.77164220833333,
                        "value": 0
                    },
                    {
                        "number": 64,
                        "time": 28.910746231249995,
                        "value": 1
                    },
                    {
                        "number": 64,
                        "time": 29.18895427708333,
                        "value": 0
                    },
                    {
                        "number": 64,
                        "time": 29.333340731249997,
                        "value": 1
                    },
                    {
                        "number": 64,
                        "time": 30.035904087499997,
                        "value": 0
                    },
                    {
                        "number": 64,
                        "time": 30.190855404166662,
                        "value": 1
                    },
                    {
                        "number": 64,
                        "time": 30.451455345833327,
                        "value": 0
                    },
                    {
                        "number": 64,
                        "time": 30.51484452083333,
                        "value": 1
                    },
                    {
                        "number": 64,
                        "time": 31.305448397916663,
                        "value": 0
                    },
                    {
                        "number": 64,
                        "time": 31.43398755833333,
                        "value": 1
                    },
                    {
                        "number": 64,
                        "time": 31.722760466666664,
                        "value": 0
                    },
                    {
                        "number": 64,
                        "time": 31.96223068333333,
                        "value": 1
                    },
                    {
                        "number": 64,
                        "time": 32.962371,
                        "value": 0
                    },
                    {
                        "number": 64,
                        "time": 33.15077771458333,
                        "value": 1
                    },
                    {
                        "number": 64,
                        "time": 33.844537018749996,
                        "value": 0
                    },
                    {
                        "number": 64,
                        "time": 34.03118292291666,
                        "value": 1
                    },
                    {
                        "number": 64,
                        "time": 34.68268277708333,
                        "value": 0
                    },
                    {
                        "number": 64,
                        "time": 34.91158813124999,
                        "value": 1
                    },
                    {
                        "number": 64,
                        "time": 35.49793799999999,
                        "value": 0
                    },
                    {
                        "number": 64,
                        "time": 35.63528121249999,
                        "value": 1
                    },
                    {
                        "number": 64,
                        "time": 35.95222708749999,
                        "value": 0
                    },
                    {
                        "number": 64,
                        "time": 36.05787571249999,
                        "value": 1
                    },
                    {
                        "number": 64,
                        "time": 36.36249591458333,
                        "value": 0
                    },
                    {
                        "number": 64,
                        "time": 36.480470212499995,
                        "value": 1
                    },
                    {
                        "number": 64,
                        "time": 36.80269851874999,
                        "value": 0
                    },
                    {
                        "number": 64,
                        "time": 36.97701874999999,
                        "value": 1
                    },
                    {
                        "number": 64,
                        "time": 37.642605087499994,
                        "value": 0
                    },
                    {
                        "number": 64,
                        "time": 37.76057938541666,
                        "value": 1
                    },
                    {
                        "number": 64,
                        "time": 38.04759148333333,
                        "value": 0
                    },
                    {
                        "number": 64,
                        "time": 38.183173885416664,
                        "value": 1
                    },
                    {
                        "number": 64,
                        "time": 38.913910208333334,
                        "value": 0
                    },
                    {
                        "number": 64,
                        "time": 39.05301423125,
                        "value": 1
                    },
                    {
                        "number": 64,
                        "time": 39.331222277083334,
                        "value": 0
                    },
                    {
                        "number": 64,
                        "time": 39.47560873125,
                        "value": 1
                    },
                    {
                        "number": 64,
                        "time": 39.75205596666667,
                        "value": 0
                    },
                    {
                        "number": 64,
                        "time": 39.89820323125,
                        "value": 1
                    },
                    {
                        "number": 64,
                        "time": 40.1781720875,
                        "value": 0
                    },
                    {
                        "number": 64,
                        "time": 40.33312340416667,
                        "value": 1
                    },
                    {
                        "number": 64,
                        "time": 40.59372334583334,
                        "value": 0
                    },
                    {
                        "number": 64,
                        "time": 40.65711252083334,
                        "value": 1
                    },
                    {
                        "number": 64,
                        "time": 41.44771639791667,
                        "value": 0
                    },
                    {
                        "number": 64,
                        "time": 41.57625555833334,
                        "value": 1
                    },
                    {
                        "number": 64,
                        "time": 41.86502846666667,
                        "value": 0
                    },
                    {
                        "number": 64,
                        "time": 42.04815275000001,
                        "value": 1
                    },
                    {
                        "number": 64,
                        "time": 42.71373908750001,
                        "value": 0
                    },
                    {
                        "number": 64,
                        "time": 43.11872548333334,
                        "value": 0
                    },
                    {
                        "number": 64,
                        "time": 43.25430788541668,
                        "value": 1
                    },
                    {
                        "number": 64,
                        "time": 43.54660241458335,
                        "value": 0
                    },
                    {
                        "number": 64,
                        "time": 43.68922805833335,
                        "value": 1
                    },
                    {
                        "number": 64,
                        "time": 43.98504420833335,
                        "value": 0
                    },
                    {
                        "number": 64,
                        "time": 44.12414823125002,
                        "value": 1
                    },
                    {
                        "number": 64,
                        "time": 44.40235627708335,
                        "value": 0
                    },
                    {
                        "number": 64,
                        "time": 44.54674273125001,
                        "value": 1
                    },
                    {
                        "number": 64,
                        "time": 45.25282770833335,
                        "value": 0
                    },
                    {
                        "number": 64,
                        "time": 45.74057219375002,
                        "value": 1
                    },
                    {
                        "number": 64,
                        "time": 46.080408604166685,
                        "value": 0
                    },
                    {
                        "number": 64,
                        "time": 46.22479505833335,
                        "value": 1
                    },
                    {
                        "number": 64,
                        "time": 46.62097740208335,
                        "value": 0
                    },
                    {
                        "number": 64,
                        "time": 46.76712466666668,
                        "value": 1
                    },
                    {
                        "number": 64,
                        "time": 46.94144489791668,
                        "value": 0
                    },
                    {
                        "number": 64,
                        "time": 47.21084889166668,
                        "value": 1
                    },
                    {
                        "number": 64,
                        "time": 47.78487308750001,
                        "value": 0
                    },
                    {
                        "number": 64,
                        "time": 48.18985948333334,
                        "value": 0
                    },
                    {
                        "number": 64,
                        "time": 48.32544188541668,
                        "value": 1
                    },
                    {
                        "number": 64,
                        "time": 48.61773641458335,
                        "value": 0
                    },
                    {
                        "number": 64,
                        "time": 48.76036205833335,
                        "value": 1
                    },
                    {
                        "number": 64,
                        "time": 49.05617820833335,
                        "value": 0
                    },
                    {
                        "number": 64,
                        "time": 49.19528223125002,
                        "value": 1
                    },
                    {
                        "number": 64,
                        "time": 49.47349027708335,
                        "value": 0
                    },
                    {
                        "number": 64,
                        "time": 49.617876731250014,
                        "value": 1
                    },
                    {
                        "number": 64,
                        "time": 50.32044008750002,
                        "value": 0
                    },
                    {
                        "number": 64,
                        "time": 50.72542648333335,
                        "value": 0
                    },
                    {
                        "number": 64,
                        "time": 50.86100888541669,
                        "value": 1
                    },
                    {
                        "number": 64,
                        "time": 51.153303414583355,
                        "value": 0
                    },
                    {
                        "number": 64,
                        "time": 51.29592905833336,
                        "value": 1
                    },
                    {
                        "number": 64,
                        "time": 51.59174520833336,
                        "value": 0
                    },
                    {
                        "number": 64,
                        "time": 51.730849231250026,
                        "value": 1
                    },
                    {
                        "number": 64,
                        "time": 52.00905727708336,
                        "value": 0
                    },
                    {
                        "number": 64,
                        "time": 52.15344373125002,
                        "value": 1
                    },
                    {
                        "number": 64,
                        "time": 52.435173397916685,
                        "value": 0
                    },
                    {
                        "number": 64,
                        "time": 52.56371255833335,
                        "value": 1
                    },
                    {
                        "number": 64,
                        "time": 52.85600708750002,
                        "value": 0
                    },
                    {
                        "number": 64,
                        "time": 53.005675972916684,
                        "value": 1
                    },
                    {
                        "number": 64,
                        "time": 53.27155834583335,
                        "value": 0
                    },
                    {
                        "number": 64,
                        "time": 53.34727319375001,
                        "value": 1
                    },
                    {
                        "number": 64,
                        "time": 54.528776983333344,
                        "value": 0
                    },
                    {
                        "number": 64,
                        "time": 54.652033712500014,
                        "value": 1
                    },
                    {
                        "number": 64,
                        "time": 55.80712534583335,
                        "value": 0
                    },
                    {
                        "number": 64,
                        "time": 55.903969918750015,
                        "value": 1
                    },
                    {
                        "number": 64,
                        "time": 57.064343983333345,
                        "value": 0
                    },
                    {
                        "number": 64,
                        "time": 57.15062369375001,
                        "value": 1
                    },
                    {
                        "number": 64,
                        "time": 58.34269234583335,
                        "value": 0
                    },
                    {
                        "number": 64,
                        "time": 58.46770988541668,
                        "value": 1
                    },
                    {
                        "number": 64,
                        "time": 59.599910983333345,
                        "value": 0
                    },
                    {
                        "number": 64,
                        "time": 59.76014473125001,
                        "value": 1
                    },
                    {
                        "number": 64,
                        "time": 60.87825934583334,
                        "value": 0
                    },
                    {
                        "number": 64,
                        "time": 61.01560255833334,
                        "value": 1
                    },
                    {
                        "number": 64,
                        "time": 62.13547798333334,
                        "value": 0
                    },
                    {
                        "number": 64,
                        "time": 62.24640903958334,
                        "value": 1
                    },
                    {
                        "number": 64,
                        "time": 63.41382634583334,
                        "value": 0
                    },
                    {
                        "number": 64,
                        "time": 63.51067091875001,
                        "value": 1
                    },
                    {
                        "number": 64,
                        "time": 64.67104498333335,
                        "value": 0
                    },
                    {
                        "number": 64,
                        "time": 64.76788955625001,
                        "value": 1
                    },
                    {
                        "number": 64,
                        "time": 65.93706767291668,
                        "value": 0
                    },
                    {
                        "number": 64,
                        "time": 67.61512000000002,
                        "value": 1
                    },
                    {
                        "number": 64,
                        "time": 68.48496034583336,
                        "value": 0
                    },
                    {
                        "number": 64,
                        "time": 68.5518711416667,
                        "value": 1
                    },
                    {
                        "number": 64,
                        "time": 69.74217898333336,
                        "value": 0
                    },
                    {
                        "number": 64,
                        "time": 69.81965464166669,
                        "value": 1
                    },
                    {
                        "number": 64,
                        "time": 70.99587600000002,
                        "value": 0
                    },
                    {
                        "number": 64,
                        "time": 71.33923403125003,
                        "value": 1
                    },
                    {
                        "number": 64,
                        "time": 72.28478922500003,
                        "value": 0
                    },
                    {
                        "number": 64,
                        "time": 72.5453891666667,
                        "value": 1
                    },
                    {
                        "number": 64,
                        "time": 73.55609434583336,
                        "value": 0
                    },
                    {
                        "number": 64,
                        "time": 73.63180919375003,
                        "value": 1
                    },
                    {
                        "number": 64,
                        "time": 74.81331298333336,
                        "value": 0
                    },
                    {
                        "number": 64,
                        "time": 74.93656971250003,
                        "value": 1
                    },
                    {
                        "number": 64,
                        "time": 76.09166134583336,
                        "value": 0
                    },
                    {
                        "number": 64,
                        "time": 76.18850591875002,
                        "value": 1
                    },
                    {
                        "number": 64,
                        "time": 77.34887998333336,
                        "value": 0
                    },
                    {
                        "number": 64,
                        "time": 77.43515969375002,
                        "value": 1
                    },
                    {
                        "number": 64,
                        "time": 78.62722834583336,
                        "value": 0
                    },
                    {
                        "number": 64,
                        "time": 78.7522458854167,
                        "value": 1
                    },
                    {
                        "number": 64,
                        "time": 79.88444698333336,
                        "value": 0
                    },
                    {
                        "number": 64,
                        "time": 80.04468073125003,
                        "value": 1
                    },
                    {
                        "number": 64,
                        "time": 81.16279534583336,
                        "value": 0
                    },
                    {
                        "number": 64,
                        "time": 81.30013855833336,
                        "value": 1
                    },
                    {
                        "number": 64,
                        "time": 82.42001398333336,
                        "value": 0
                    },
                    {
                        "number": 64,
                        "time": 82.53094503958336,
                        "value": 1
                    },
                    {
                        "number": 64,
                        "time": 83.69836234583336,
                        "value": 0
                    },
                    {
                        "number": 64,
                        "time": 83.79520691875003,
                        "value": 1
                    },
                    {
                        "number": 64,
                        "time": 84.95558098333336,
                        "value": 0
                    },
                    {
                        "number": 64,
                        "time": 85.05242555625003,
                        "value": 1
                    },
                    {
                        "number": 64,
                        "time": 86.2216036729167,
                        "value": 0
                    },
                    {
                        "number": 64,
                        "time": 87.89965600000004,
                        "value": 1
                    },
                    {
                        "number": 64,
                        "time": 88.76949634583337,
                        "value": 0
                    },
                    {
                        "number": 64,
                        "time": 88.83640714166671,
                        "value": 1
                    },
                    {
                        "number": 64,
                        "time": 90.02671498333338,
                        "value": 0
                    },
                    {
                        "number": 64,
                        "time": 90.1041906416667,
                        "value": 1
                    },
                    {
                        "number": 64,
                        "time": 91.2927376729167,
                        "value": 0
                    },
                    {
                        "number": 64,
                        "time": 91.62377003125003,
                        "value": 1
                    },
                    {
                        "number": 64,
                        "time": 93.81597900000003,
                        "value": 0
                    },
                    {
                        "number": 64,
                        "time": 94.12236001250002,
                        "value": 1
                    },
                    {
                        "number": 64,
                        "time": 96.35154600000003,
                        "value": 0
                    },
                    {
                        "number": 64,
                        "time": 96.5064973166667,
                        "value": 1
                    },
                    {
                        "number": 64,
                        "time": 97.23371201875003,
                        "value": 0
                    },
                    {
                        "number": 64,
                        "time": 97.4203579229167,
                        "value": 1
                    },
                    {
                        "number": 64,
                        "time": 97.64926327708336,
                        "value": 0
                    },
                    {
                        "number": 64,
                        "time": 97.78132405833337,
                        "value": 1
                    },
                    {
                        "number": 64,
                        "time": 98.4874090354167,
                        "value": 0
                    },
                    {
                        "number": 64,
                        "time": 98.58953603958336,
                        "value": 1
                    },
                    {
                        "number": 64,
                        "time": 98.90824272500004,
                        "value": 0
                    },
                    {
                        "number": 64,
                        "time": 99.1477129416667,
                        "value": 1
                    },
                    {
                        "number": 64,
                        "time": 99.7551925354167,
                        "value": 0
                    },
                    {
                        "number": 64,
                        "time": 99.88197088541669,
                        "value": 1
                    },
                    {
                        "number": 64,
                        "time": 100.17778703541669,
                        "value": 0
                    },
                    {
                        "number": 64,
                        "time": 100.31689105833335,
                        "value": 1
                    },
                    {
                        "number": 64,
                        "time": 101.03178008750002,
                        "value": 0
                    },
                    {
                        "number": 64,
                        "time": 101.14975438541668,
                        "value": 1
                    },
                    {
                        "number": 64,
                        "time": 101.43676648333336,
                        "value": 0
                    },
                    {
                        "number": 64,
                        "time": 101.57234888541669,
                        "value": 1
                    },
                    {
                        "number": 64,
                        "time": 102.30308520833336,
                        "value": 0
                    },
                    {
                        "number": 64,
                        "time": 102.44218923125003,
                        "value": 1
                    },
                    {
                        "number": 64,
                        "time": 102.72039727708336,
                        "value": 0
                    },
                    {
                        "number": 64,
                        "time": 102.86478373125003,
                        "value": 1
                    },
                    {
                        "number": 64,
                        "time": 103.56734708750002,
                        "value": 0
                    },
                    {
                        "number": 64,
                        "time": 103.7222984041667,
                        "value": 1
                    },
                    {
                        "number": 64,
                        "time": 103.98289834583336,
                        "value": 0
                    },
                    {
                        "number": 64,
                        "time": 104.04628752083336,
                        "value": 1
                    },
                    {
                        "number": 64,
                        "time": 104.83689139791669,
                        "value": 0
                    },
                    {
                        "number": 64,
                        "time": 104.96543055833335,
                        "value": 1
                    },
                    {
                        "number": 64,
                        "time": 105.25420346666668,
                        "value": 0
                    },
                    {
                        "number": 64,
                        "time": 105.49367368333334,
                        "value": 1
                    },
                    {
                        "number": 64,
                        "time": 106.49381400000001,
                        "value": 0
                    },
                    {
                        "number": 64,
                        "time": 106.66813423125001,
                        "value": 1
                    },
                    {
                        "number": 64,
                        "time": 107.37598001875001,
                        "value": 0
                    },
                    {
                        "number": 64,
                        "time": 107.56262592291668,
                        "value": 1
                    },
                    {
                        "number": 64,
                        "time": 107.79153127708335,
                        "value": 0
                    },
                    {
                        "number": 64,
                        "time": 107.92359205833336,
                        "value": 1
                    },
                    {
                        "number": 64,
                        "time": 108.62967703541669,
                        "value": 0
                    },
                    {
                        "number": 64,
                        "time": 108.73180403958335,
                        "value": 1
                    },
                    {
                        "number": 64,
                        "time": 109.02938100000001,
                        "value": 0
                    },
                    {
                        "number": 64,
                        "time": 109.20370123125001,
                        "value": 1
                    },
                    {
                        "number": 64,
                        "time": 109.91154701875001,
                        "value": 0
                    },
                    {
                        "number": 64,
                        "time": 110.09819292291668,
                        "value": 1
                    },
                    {
                        "number": 64,
                        "time": 110.27427396458334,
                        "value": 0
                    },
                    {
                        "number": 64,
                        "time": 110.44859419583334,
                        "value": 1
                    },
                    {
                        "number": 64,
                        "time": 111.15643998333334,
                        "value": 0
                    },
                    {
                        "number": 64,
                        "time": 111.34308588750001,
                        "value": 1
                    },
                    {
                        "number": 64,
                        "time": 111.56494800000002,
                        "value": 0
                    },
                    {
                        "number": 64,
                        "time": 111.78857092291668,
                        "value": 1
                    },
                    {
                        "number": 64,
                        "time": 112.44007077708335,
                        "value": 0
                    },
                    {
                        "number": 64,
                        "time": 112.52282886666669,
                        "value": 1
                    },
                    {
                        "number": 64,
                        "time": 112.85738284583336,
                        "value": 0
                    },
                    {
                        "number": 64,
                        "time": 113.00705173125003,
                        "value": 1
                    },
                    {
                        "number": 64,
                        "time": 113.70961508750003,
                        "value": 0
                    },
                    {
                        "number": 64,
                        "time": 113.81526371250003,
                        "value": 1
                    },
                    {
                        "number": 64,
                        "time": 114.11107986250002,
                        "value": 0
                    },
                    {
                        "number": 64,
                        "time": 114.23785821250002,
                        "value": 1
                    },
                    {
                        "number": 64,
                        "time": 114.97035534583335,
                        "value": 0
                    },
                    {
                        "number": 64,
                        "time": 115.08304721250002,
                        "value": 1
                    },
                    {
                        "number": 64,
                        "time": 115.39647146666668,
                        "value": 0
                    },
                    {
                        "number": 64,
                        "time": 115.51796738541668,
                        "value": 1
                    },
                    {
                        "number": 64,
                        "time": 116.24166046666669,
                        "value": 0
                    },
                    {
                        "number": 64,
                        "time": 116.33850503958335,
                        "value": 1
                    },
                    {
                        "number": 64,
                        "time": 116.63608200000002,
                        "value": 0
                    },
                    {
                        "number": 64,
                        "time": 116.73644819375002,
                        "value": 1
                    },
                    {
                        "number": 64,
                        "time": 117.51824801875001,
                        "value": 0
                    },
                    {
                        "number": 64,
                        "time": 117.70489392291668,
                        "value": 1
                    },
                    {
                        "number": 64,
                        "time": 117.93379927708335,
                        "value": 0
                    },
                    {
                        "number": 64,
                        "time": 118.06586005833336,
                        "value": 1
                    },
                    {
                        "number": 64,
                        "time": 118.77194503541669,
                        "value": 0
                    },
                    {
                        "number": 64,
                        "time": 118.87407203958335,
                        "value": 1
                    },
                    {
                        "number": 64,
                        "time": 119.19277872500003,
                        "value": 0
                    },
                    {
                        "number": 64,
                        "time": 119.43224894166669,
                        "value": 1
                    },
                    {
                        "number": 64,
                        "time": 120.03972853541669,
                        "value": 0
                    },
                    {
                        "number": 64,
                        "time": 120.16650688541668,
                        "value": 1
                    },
                    {
                        "number": 64,
                        "time": 121.31631608750001,
                        "value": 0
                    },
                    {
                        "number": 64,
                        "time": 121.43429038541667,
                        "value": 1
                    },
                    {
                        "number": 64,
                        "time": 121.72130248333335,
                        "value": 0
                    },
                    {
                        "number": 64,
                        "time": 121.85688488541668,
                        "value": 1
                    },
                    {
                        "number": 64,
                        "time": 122.58762120833335,
                        "value": 0
                    },
                    {
                        "number": 64,
                        "time": 122.72672523125001,
                        "value": 1
                    },
                    {
                        "number": 64,
                        "time": 123.00493327708335,
                        "value": 0
                    },
                    {
                        "number": 64,
                        "time": 123.14931973125002,
                        "value": 1
                    },
                    {
                        "number": 64,
                        "time": 123.85188308750001,
                        "value": 0
                    },
                    {
                        "number": 64,
                        "time": 124.00683440416668,
                        "value": 1
                    },
                    {
                        "number": 64,
                        "time": 124.26743434583335,
                        "value": 0
                    },
                    {
                        "number": 64,
                        "time": 124.33082352083335,
                        "value": 1
                    },
                    {
                        "number": 64,
                        "time": 125.12142739791668,
                        "value": 0
                    },
                    {
                        "number": 64,
                        "time": 125.24996655833334,
                        "value": 1
                    },
                    {
                        "number": 64,
                        "time": 125.53873946666667,
                        "value": 0
                    },
                    {
                        "number": 64,
                        "time": 125.77820968333333,
                        "value": 1
                    },
                    {
                        "number": 64,
                        "time": 126.77835,
                        "value": 0
                    },
                    {
                        "number": 64,
                        "time": 126.96675671458334,
                        "value": 1
                    },
                    {
                        "number": 64,
                        "time": 127.66051601875,
                        "value": 0
                    },
                    {
                        "number": 64,
                        "time": 127.84716192291667,
                        "value": 1
                    },
                    {
                        "number": 64,
                        "time": 128.49866177708333,
                        "value": 0
                    },
                    {
                        "number": 64,
                        "time": 128.60607121249998,
                        "value": 1
                    },
                    {
                        "number": 64,
                        "time": 129.31391699999998,
                        "value": 0
                    },
                    {
                        "number": 64,
                        "time": 129.4512602125,
                        "value": 1
                    },
                    {
                        "number": 64,
                        "time": 129.76820608749998,
                        "value": 0
                    },
                    {
                        "number": 64,
                        "time": 129.87385471249996,
                        "value": 1
                    },
                    {
                        "number": 64,
                        "time": 130.1784749145833,
                        "value": 0
                    },
                    {
                        "number": 64,
                        "time": 130.29644921249997,
                        "value": 1
                    },
                    {
                        "number": 64,
                        "time": 130.61867751874996,
                        "value": 0
                    },
                    {
                        "number": 64,
                        "time": 130.79299774999996,
                        "value": 1
                    },
                    {
                        "number": 64,
                        "time": 131.45858408749996,
                        "value": 0
                    },
                    {
                        "number": 64,
                        "time": 131.57655838541663,
                        "value": 1
                    },
                    {
                        "number": 64,
                        "time": 131.8635704833333,
                        "value": 0
                    },
                    {
                        "number": 64,
                        "time": 131.99915288541663,
                        "value": 1
                    },
                    {
                        "number": 64,
                        "time": 132.7298892083333,
                        "value": 0
                    },
                    {
                        "number": 64,
                        "time": 132.86899323124996,
                        "value": 1
                    },
                    {
                        "number": 64,
                        "time": 133.1472012770833,
                        "value": 0
                    },
                    {
                        "number": 64,
                        "time": 133.29158773124996,
                        "value": 1
                    },
                    {
                        "number": 64,
                        "time": 133.56803496666663,
                        "value": 0
                    },
                    {
                        "number": 64,
                        "time": 133.71418223124996,
                        "value": 1
                    },
                    {
                        "number": 64,
                        "time": 133.99415108749997,
                        "value": 0
                    },
                    {
                        "number": 64,
                        "time": 134.14910240416663,
                        "value": 1
                    },
                    {
                        "number": 64,
                        "time": 134.4097023458333,
                        "value": 0
                    },
                    {
                        "number": 64,
                        "time": 134.4730915208333,
                        "value": 1
                    },
                    {
                        "number": 64,
                        "time": 135.26369539791662,
                        "value": 0
                    },
                    {
                        "number": 64,
                        "time": 135.39223455833329,
                        "value": 1
                    },
                    {
                        "number": 64,
                        "time": 135.6810074666666,
                        "value": 0
                    },
                    {
                        "number": 64,
                        "time": 135.86413174999996,
                        "value": 1
                    },
                    {
                        "number": 64,
                        "time": 136.42054784166663,
                        "value": 0
                    },
                    {
                        "number": 64,
                        "time": 136.49802349999996,
                        "value": 1
                    },
                    {
                        "number": 64,
                        "time": 137.79221915624996,
                        "value": 0
                    },
                    {
                        "number": 64,
                        "time": 138.0070380270833,
                        "value": 1
                    },
                    {
                        "number": 64,
                        "time": 139.0476769833333,
                        "value": 0
                    },
                    {
                        "number": 64,
                        "time": 139.31532016666662,
                        "value": 1
                    },
                    {
                        "number": 64,
                        "time": 140.3207429145833,
                        "value": 0
                    },
                    {
                        "number": 64,
                        "time": 140.4633685583333,
                        "value": 1
                    },
                    {
                        "number": 64,
                        "time": 142.01640334583328,
                        "value": 0
                    },
                    {
                        "number": 64,
                        "time": 142.3210235479166,
                        "value": 1
                    },
                    {
                        "number": 64,
                        "time": 147.06288599999993,
                        "value": 0
                    }
                ]
            },
            "id": 3,
            "name": "Pedale",
            "instrumentNumber": 0,
            "instrument": "acoustic grand piano",
            "instrumentFamily": "piano",
            "channelNumber": 0,
            "isPercussion": false
        },
        {
            "startTime": 0,
            "duration": 0,
            "length": 0,
            "notes": [],
            "controlChanges": {},
            "id": 4,
            "name": "Brahms: Intermezzo Opus 117 No. 1"
        },
        {
            "startTime": 0,
            "duration": 0,
            "length": 0,
            "notes": [],
            "controlChanges": {},
            "id": 5,
            "name": "Copyright  2010 by Bernd Krueger"
        },
        {
            "startTime": 0,
            "duration": 0,
            "length": 0,
            "notes": [],
            "controlChanges": {},
            "id": 6,
            "name": "http://www.piano-midi.de/"
        },
        {
            "startTime": 0,
            "duration": 0,
            "length": 0,
            "notes": [],
            "controlChanges": {},
            "id": 7,
            "name": "Edition: 2010-10-09"
        },
        {
            "startTime": 0,
            "duration": 0,
            "length": 0,
            "notes": [],
            "controlChanges": {},
            "id": 8,
            "name": "Spur 8"
        },
        {
            "startTime": 0,
            "duration": 0,
            "length": 0,
            "notes": [],
            "controlChanges": {},
            "id": 9,
            "name": "Spur 9"
        },
        {
            "startTime": 0,
            "duration": 0,
            "length": 0,
            "notes": [],
            "controlChanges": {},
            "id": 10,
            "name": "Spur 10"
        },
        {
            "startTime": 0,
            "duration": 0,
            "length": 0,
            "notes": [],
            "controlChanges": {},
            "id": 11,
            "name": "Spur 11"
        },
        {
            "startTime": 0,
            "duration": 0,
            "length": 0,
            "notes": [],
            "controlChanges": {},
            "id": 12,
            "name": "Spur 12"
        },
        {
            "startTime": 0,
            "duration": 0,
            "length": 0,
            "notes": [],
            "controlChanges": {},
            "id": 13,
            "name": "Spur 13"
        },
        {
            "startTime": 0,
            "duration": 0,
            "length": 0,
            "notes": [],
            "controlChanges": {},
            "id": 14,
            "name": "Spur 14"
        },
        {
            "startTime": 0,
            "duration": 0,
            "length": 0,
            "notes": [],
            "controlChanges": {},
            "id": 15,
            "name": "Spur 15"
        },
        {
            "startTime": 0,
            "duration": 0,
            "length": 0,
            "notes": [],
            "controlChanges": {},
            "id": 16,
            "name": "Spur 16"
        }
    ]
}