{
    "header": {
        "PPQ": 480,
        "timeSignature": [
            4,
            4
        ],
        "bpm": 150,
        "name": "Chopin Prelude  No. 23, Opus 28"
    },
    "startTime": 0,
    "duration": 35.600000000000215,
    "tracks": [
        {
            "startTime": 0,
            "duration": 0,
            "length": 0,
            "notes": [],
            "controlChanges": {},
            "id": 0,
            "name": "Chopin Prelude  No. 23, Opus 28"
        },
        {
            "startTime": 1.6,
            "duration": 35.600000000000215,
            "length": 347,
            "notes": [
                {
                    "name": "C5",
                    "midi": 72,
                    "time": 1.6,
                    "velocity": 0.31496062992125984,
                    "duration": 0.10000000000000009
                },
                {
                    "name": "A4",
                    "midi": 69,
                    "time": 1.7000000000000002,
                    "velocity": 0.25196850393700787,
                    "duration": 0.10000000000000009
                },
                {
                    "name": "F4",
                    "midi": 65,
                    "time": 1.8000000000000003,
                    "velocity": 0.25196850393700787,
                    "duration": 0.10000000000000009
                },
                {
                    "name": "D4",
                    "midi": 62,
                    "time": 1.9000000000000004,
                    "velocity": 0.25984251968503935,
                    "duration": 0.10000000000000009
                },
                {
                    "name": "C4",
                    "midi": 60,
                    "time": 2.0000000000000004,
                    "velocity": 0.31496062992125984,
                    "duration": 0.10000000000000009
                },
                {
                    "name": "F4",
                    "midi": 65,
                    "time": 2.1000000000000005,
                    "velocity": 0.28346456692913385,
                    "duration": 0.10000000000000009
                },
                {
                    "name": "F5",
                    "midi": 77,
                    "time": 2.2000000000000006,
                    "velocity": 0.31496062992125984,
                    "duration": 0.10000000000000009
                },
                {
                    "name": "D5",
                    "midi": 74,
                    "time": 2.3000000000000007,
                    "velocity": 0.28346456692913385,
                    "duration": 0.10000000000000009
                },
                {
                    "name": "C5",
                    "midi": 72,
                    "time": 2.400000000000001,
                    "velocity": 0.31496062992125984,
                    "duration": 0.10000000000000009
                },
                {
                    "name": "A4",
                    "midi": 69,
                    "time": 2.500000000000001,
                    "velocity": 0.25196850393700787,
                    "duration": 0.10000000000000009
                },
                {
                    "name": "F4",
                    "midi": 65,
                    "time": 2.600000000000001,
                    "velocity": 0.25196850393700787,
                    "duration": 0.10000000000000009
                },
                {
                    "name": "D4",
                    "midi": 62,
                    "time": 2.700000000000001,
                    "velocity": 0.25196850393700787,
                    "duration": 0.10000000000000009
                },
                {
                    "name": "C4",
                    "midi": 60,
                    "time": 2.800000000000001,
                    "velocity": 0.31496062992125984,
                    "duration": 0.10000000000000009
                },
                {
                    "name": "F4",
                    "midi": 65,
                    "time": 2.9000000000000012,
                    "velocity": 0.29133858267716534,
                    "duration": 0.10000000000000009
                },
                {
                    "name": "F5",
                    "midi": 77,
                    "time": 3.0000000000000013,
                    "velocity": 0.31496062992125984,
                    "duration": 0.10000000000000009
                },
                {
                    "name": "D5",
                    "midi": 74,
                    "time": 3.1000000000000014,
                    "velocity": 0.28346456692913385,
                    "duration": 0.10000000000000009
                },
                {
                    "name": "C5",
                    "midi": 72,
                    "time": 3.2000000000000015,
                    "velocity": 0.31496062992125984,
                    "duration": 0.10000000000000009
                },
                {
                    "name": "A4",
                    "midi": 69,
                    "time": 3.3000000000000016,
                    "velocity": 0.2755905511811024,
                    "duration": 0.10000000000000009
                },
                {
                    "name": "F4",
                    "midi": 65,
                    "time": 3.4000000000000017,
                    "velocity": 0.2677165354330709,
                    "duration": 0.10000000000000009
                },
                {
                    "name": "D4",
                    "midi": 62,
                    "time": 3.5000000000000018,
                    "velocity": 0.2677165354330709,
                    "duration": 0.10000000000000009
                },
                {
                    "name": "C4",
                    "midi": 60,
                    "time": 3.600000000000002,
                    "velocity": 0.31496062992125984,
                    "duration": 0.10000000000000009
                },
                {
                    "name": "F4",
                    "midi": 65,
                    "time": 3.700000000000002,
                    "velocity": 0.2755905511811024,
                    "duration": 0.10000000000000009
                },
                {
                    "name": "F5",
                    "midi": 77,
                    "time": 3.800000000000002,
                    "velocity": 0.31496062992125984,
                    "duration": 0.10000000000000009
                },
                {
                    "name": "D5",
                    "midi": 74,
                    "time": 3.900000000000002,
                    "velocity": 0.28346456692913385,
                    "duration": 0.09999999999999964
                },
                {
                    "name": "C5",
                    "midi": 72,
                    "time": 4.000000000000002,
                    "velocity": 0.31496062992125984,
                    "duration": 0.09999999999999964
                },
                {
                    "name": "A4",
                    "midi": 69,
                    "time": 4.100000000000001,
                    "velocity": 0.2755905511811024,
                    "duration": 0.09999999999999964
                },
                {
                    "name": "F4",
                    "midi": 65,
                    "time": 4.200000000000001,
                    "velocity": 0.2755905511811024,
                    "duration": 0.09999999999999964
                },
                {
                    "name": "D4",
                    "midi": 62,
                    "time": 4.300000000000001,
                    "velocity": 0.2755905511811024,
                    "duration": 0.09999999999999964
                },
                {
                    "name": "C4",
                    "midi": 60,
                    "time": 4.4,
                    "velocity": 0.31496062992125984,
                    "duration": 0.09999999999999964
                },
                {
                    "name": "E4",
                    "midi": 64,
                    "time": 4.5,
                    "velocity": 0.2992125984251969,
                    "duration": 0.09999999999999964
                },
                {
                    "name": "A#4",
                    "midi": 70,
                    "time": 4.6,
                    "velocity": 0.31496062992125984,
                    "duration": 0.09999999999999964
                },
                {
                    "name": "G4",
                    "midi": 67,
                    "time": 4.699999999999999,
                    "velocity": 0.29133858267716534,
                    "duration": 0.09999999999999964
                },
                {
                    "name": "A4",
                    "midi": 69,
                    "time": 4.799999999999999,
                    "velocity": 0.31496062992125984,
                    "duration": 0.09999999999999964
                },
                {
                    "name": "F4",
                    "midi": 65,
                    "time": 4.899999999999999,
                    "velocity": 0.29133858267716534,
                    "duration": 0.09999999999999964
                },
                {
                    "name": "C4",
                    "midi": 60,
                    "time": 4.999999999999998,
                    "velocity": 0.25984251968503935,
                    "duration": 0.09999999999999964
                },
                {
                    "name": "A3",
                    "midi": 57,
                    "time": 5.099999999999998,
                    "velocity": 0.25984251968503935,
                    "duration": 0.09750000000000014
                },
                {
                    "name": "C4",
                    "midi": 60,
                    "time": 5.199999999999998,
                    "velocity": 0.29133858267716534,
                    "duration": 0.09999999999999964
                },
                {
                    "name": "F4",
                    "midi": 65,
                    "time": 5.299999999999998,
                    "velocity": 0.2677165354330709,
                    "duration": 0.09999999999999964
                },
                {
                    "name": "E4",
                    "midi": 64,
                    "time": 5.399999999999998,
                    "velocity": 0.2440944881889764,
                    "duration": 0.09999999999999964
                },
                {
                    "name": "A#4",
                    "midi": 70,
                    "time": 5.399999999999998,
                    "velocity": 0.29133858267716534,
                    "duration": 0.09999999999999964
                },
                {
                    "name": "G4",
                    "midi": 67,
                    "time": 5.499999999999997,
                    "velocity": 0.29133858267716534,
                    "duration": 0.09999999999999964
                },
                {
                    "name": "A4",
                    "midi": 69,
                    "time": 5.599999999999997,
                    "velocity": 0.31496062992125984,
                    "duration": 0.09999999999999964
                },
                {
                    "name": "F4",
                    "midi": 65,
                    "time": 5.699999999999997,
                    "velocity": 0.2992125984251969,
                    "duration": 0.09999999999999964
                },
                {
                    "name": "C4",
                    "midi": 60,
                    "time": 5.799999999999996,
                    "velocity": 0.2755905511811024,
                    "duration": 0.09999999999999964
                },
                {
                    "name": "A3",
                    "midi": 57,
                    "time": 5.899999999999996,
                    "velocity": 0.2755905511811024,
                    "duration": 0.09750000000000014
                },
                {
                    "name": "C4",
                    "midi": 60,
                    "time": 5.9999999999999964,
                    "velocity": 0.29133858267716534,
                    "duration": 0.09999999999999964
                },
                {
                    "name": "F4",
                    "midi": 65,
                    "time": 6.099999999999996,
                    "velocity": 0.2677165354330709,
                    "duration": 0.09999999999999964
                },
                {
                    "name": "A#4",
                    "midi": 70,
                    "time": 6.199999999999996,
                    "velocity": 0.29133858267716534,
                    "duration": 0.09999999999999964
                },
                {
                    "name": "E4",
                    "midi": 64,
                    "time": 6.199999999999996,
                    "velocity": 0.2440944881889764,
                    "duration": 0.09999999999999964
                },
                {
                    "name": "G4",
                    "midi": 67,
                    "time": 6.299999999999995,
                    "velocity": 0.28346456692913385,
                    "duration": 0.09999999999999964
                },
                {
                    "name": "A4",
                    "midi": 69,
                    "time": 6.399999999999995,
                    "velocity": 0.31496062992125984,
                    "duration": 0.09999999999999964
                },
                {
                    "name": "F4",
                    "midi": 65,
                    "time": 6.499999999999995,
                    "velocity": 0.29133858267716534,
                    "duration": 0.09999999999999964
                },
                {
                    "name": "C4",
                    "midi": 60,
                    "time": 6.599999999999994,
                    "velocity": 0.25984251968503935,
                    "duration": 0.09999999999999964
                },
                {
                    "name": "A3",
                    "midi": 57,
                    "time": 6.699999999999994,
                    "velocity": 0.25984251968503935,
                    "duration": 0.09499999999999975
                },
                {
                    "name": "C4",
                    "midi": 60,
                    "time": 6.799999999999994,
                    "velocity": 0.29133858267716534,
                    "duration": 0.09999999999999964
                },
                {
                    "name": "F4",
                    "midi": 65,
                    "time": 6.899999999999993,
                    "velocity": 0.25196850393700787,
                    "duration": 0.09999999999999964
                },
                {
                    "name": "A#4",
                    "midi": 70,
                    "time": 6.999999999999993,
                    "velocity": 0.3543307086614173,
                    "duration": 0.09999999999999964
                },
                {
                    "name": "G#4",
                    "midi": 68,
                    "time": 7.0999999999999925,
                    "velocity": 0.3228346456692913,
                    "duration": 0.09999999999999964
                },
                {
                    "name": "A4",
                    "midi": 69,
                    "time": 7.199999999999992,
                    "velocity": 0.3543307086614173,
                    "duration": 0.09999999999999964
                },
                {
                    "name": "A#4",
                    "midi": 70,
                    "time": 7.299999999999992,
                    "velocity": 0.31496062992125984,
                    "duration": 0.09999999999999964
                },
                {
                    "name": "D5",
                    "midi": 74,
                    "time": 7.3999999999999915,
                    "velocity": 0.3543307086614173,
                    "duration": 0.09999999999999964
                },
                {
                    "name": "B4",
                    "midi": 71,
                    "time": 7.499999999999991,
                    "velocity": 0.3228346456692913,
                    "duration": 0.09999999999999964
                },
                {
                    "name": "C5",
                    "midi": 72,
                    "time": 7.599999999999991,
                    "velocity": 0.3779527559055118,
                    "duration": 0.09999999999999964
                },
                {
                    "name": "E5",
                    "midi": 76,
                    "time": 7.69999999999999,
                    "velocity": 0.36220472440944884,
                    "duration": 0.09999999999999964
                },
                {
                    "name": "F5",
                    "midi": 77,
                    "time": 7.79999999999999,
                    "velocity": 0.3937007874015748,
                    "duration": 0.09999999999999964
                },
                {
                    "name": "A5",
                    "midi": 81,
                    "time": 7.89999999999999,
                    "velocity": 0.4094488188976378,
                    "duration": 0.09999999999999964
                },
                {
                    "name": "G5",
                    "midi": 79,
                    "time": 7.999999999999989,
                    "velocity": 0.4094488188976378,
                    "duration": 0.09999999999999964
                },
                {
                    "name": "E5",
                    "midi": 76,
                    "time": 8.099999999999989,
                    "velocity": 0.31496062992125984,
                    "duration": 0.09999999999999964
                },
                {
                    "name": "C5",
                    "midi": 72,
                    "time": 8.199999999999989,
                    "velocity": 0.3543307086614173,
                    "duration": 0.09999999999999964
                },
                {
                    "name": "A4",
                    "midi": 69,
                    "time": 8.299999999999988,
                    "velocity": 0.3228346456692913,
                    "duration": 0.09999999999999964
                },
                {
                    "name": "G4",
                    "midi": 67,
                    "time": 8.399999999999988,
                    "velocity": 0.3543307086614173,
                    "duration": 0.09999999999999964
                },
                {
                    "name": "C5",
                    "midi": 72,
                    "time": 8.499999999999988,
                    "velocity": 0.31496062992125984,
                    "duration": 0.09999999999999964
                },
                {
                    "name": "C6",
                    "midi": 84,
                    "time": 8.599999999999987,
                    "velocity": 0.3779527559055118,
                    "duration": 0.09999999999999964
                },
                {
                    "name": "A5",
                    "midi": 81,
                    "time": 8.699999999999987,
                    "velocity": 0.33070866141732286,
                    "duration": 0.09999999999999964
                },
                {
                    "name": "G5",
                    "midi": 79,
                    "time": 8.799999999999986,
                    "velocity": 0.3543307086614173,
                    "duration": 0.09999999999999964
                },
                {
                    "name": "E5",
                    "midi": 76,
                    "time": 8.899999999999986,
                    "velocity": 0.3228346456692913,
                    "duration": 0.09999999999999964
                },
                {
                    "name": "C5",
                    "midi": 72,
                    "time": 8.999999999999986,
                    "velocity": 0.3228346456692913,
                    "duration": 0.09999999999999964
                },
                {
                    "name": "A4",
                    "midi": 69,
                    "time": 9.099999999999985,
                    "velocity": 0.3228346456692913,
                    "duration": 0.09999999999999964
                },
                {
                    "name": "G4",
                    "midi": 67,
                    "time": 9.199999999999985,
                    "velocity": 0.3543307086614173,
                    "duration": 0.09999999999999964
                },
                {
                    "name": "C5",
                    "midi": 72,
                    "time": 9.299999999999985,
                    "velocity": 0.33070866141732286,
                    "duration": 0.09999999999999964
                },
                {
                    "name": "C6",
                    "midi": 84,
                    "time": 9.399999999999984,
                    "velocity": 0.3779527559055118,
                    "duration": 0.09999999999999964
                },
                {
                    "name": "A5",
                    "midi": 81,
                    "time": 9.499999999999984,
                    "velocity": 0.3228346456692913,
                    "duration": 0.09999999999999964
                },
                {
                    "name": "G5",
                    "midi": 79,
                    "time": 9.599999999999984,
                    "velocity": 0.3543307086614173,
                    "duration": 0.09999999999999964
                },
                {
                    "name": "E5",
                    "midi": 76,
                    "time": 9.699999999999983,
                    "velocity": 0.33070866141732286,
                    "duration": 0.09999999999999964
                },
                {
                    "name": "C5",
                    "midi": 72,
                    "time": 9.799999999999983,
                    "velocity": 0.33070866141732286,
                    "duration": 0.09999999999999964
                },
                {
                    "name": "A4",
                    "midi": 69,
                    "time": 9.899999999999983,
                    "velocity": 0.33070866141732286,
                    "duration": 0.09999999999999964
                },
                {
                    "name": "G4",
                    "midi": 67,
                    "time": 9.999999999999982,
                    "velocity": 0.3543307086614173,
                    "duration": 0.09999999999999964
                },
                {
                    "name": "C5",
                    "midi": 72,
                    "time": 10.099999999999982,
                    "velocity": 0.3228346456692913,
                    "duration": 0.09999999999999964
                },
                {
                    "name": "C6",
                    "midi": 84,
                    "time": 10.199999999999982,
                    "velocity": 0.3858267716535433,
                    "duration": 0.09999999999999964
                },
                {
                    "name": "A5",
                    "midi": 81,
                    "time": 10.299999999999981,
                    "velocity": 0.33070866141732286,
                    "duration": 0.09999999999999964
                },
                {
                    "name": "G5",
                    "midi": 79,
                    "time": 10.39999999999998,
                    "velocity": 0.3543307086614173,
                    "duration": 0.09999999999999964
                },
                {
                    "name": "E5",
                    "midi": 76,
                    "time": 10.49999999999998,
                    "velocity": 0.3228346456692913,
                    "duration": 0.09999999999999964
                },
                {
                    "name": "C5",
                    "midi": 72,
                    "time": 10.59999999999998,
                    "velocity": 0.3228346456692913,
                    "duration": 0.09999999999999964
                },
                {
                    "name": "A4",
                    "midi": 69,
                    "time": 10.69999999999998,
                    "velocity": 0.3228346456692913,
                    "duration": 0.09999999999999964
                },
                {
                    "name": "G4",
                    "midi": 67,
                    "time": 10.79999999999998,
                    "velocity": 0.3543307086614173,
                    "duration": 0.09999999999999964
                },
                {
                    "name": "B4",
                    "midi": 71,
                    "time": 10.899999999999979,
                    "velocity": 0.33858267716535434,
                    "duration": 0.09999999999999964
                },
                {
                    "name": "F5",
                    "midi": 77,
                    "time": 10.999999999999979,
                    "velocity": 0.3543307086614173,
                    "duration": 0.09999999999999964
                },
                {
                    "name": "D5",
                    "midi": 74,
                    "time": 11.099999999999978,
                    "velocity": 0.33070866141732286,
                    "duration": 0.09999999999999964
                },
                {
                    "name": "E5",
                    "midi": 76,
                    "time": 11.199999999999978,
                    "velocity": 0.3543307086614173,
                    "duration": 0.09999999999999964
                },
                {
                    "name": "C5",
                    "midi": 72,
                    "time": 11.299999999999978,
                    "velocity": 0.33070866141732286,
                    "duration": 0.09999999999999964
                },
                {
                    "name": "G4",
                    "midi": 67,
                    "time": 11.399999999999977,
                    "velocity": 0.29133858267716534,
                    "duration": 0.09999999999999964
                },
                {
                    "name": "E4",
                    "midi": 64,
                    "time": 11.499999999999977,
                    "velocity": 0.29133858267716534,
                    "duration": 0.09666666666666579
                },
                {
                    "name": "G4",
                    "midi": 67,
                    "time": 11.599999999999977,
                    "velocity": 0.33070866141732286,
                    "duration": 0.09999999999999964
                },
                {
                    "name": "C5",
                    "midi": 72,
                    "time": 11.699999999999976,
                    "velocity": 0.2992125984251969,
                    "duration": 0.09999999999999964
                },
                {
                    "name": "B4",
                    "midi": 71,
                    "time": 11.799999999999976,
                    "velocity": 0.3464566929133858,
                    "duration": 0.09999999999999964
                },
                {
                    "name": "F5",
                    "midi": 77,
                    "time": 11.799999999999976,
                    "velocity": 0.3464566929133858,
                    "duration": 0.09999999999999964
                },
                {
                    "name": "D5",
                    "midi": 74,
                    "time": 11.899999999999975,
                    "velocity": 0.33070866141732286,
                    "duration": 0.09999999999999964
                },
                {
                    "name": "E5",
                    "midi": 76,
                    "time": 11.999999999999975,
                    "velocity": 0.3543307086614173,
                    "duration": 0.09999999999999964
                },
                {
                    "name": "C5",
                    "midi": 72,
                    "time": 12.099999999999975,
                    "velocity": 0.33858267716535434,
                    "duration": 0.09999999999999964
                },
                {
                    "name": "G4",
                    "midi": 67,
                    "time": 12.199999999999974,
                    "velocity": 0.30708661417322836,
                    "duration": 0.09999999999999964
                },
                {
                    "name": "E4",
                    "midi": 64,
                    "time": 12.299999999999974,
                    "velocity": 0.30708661417322836,
                    "duration": 0.09666666666666579
                },
                {
                    "name": "G4",
                    "midi": 67,
                    "time": 12.399999999999974,
                    "velocity": 0.33070866141732286,
                    "duration": 0.09999999999999964
                },
                {
                    "name": "C5",
                    "midi": 72,
                    "time": 12.499999999999973,
                    "velocity": 0.2992125984251969,
                    "duration": 0.09999999999999964
                },
                {
                    "name": "B4",
                    "midi": 71,
                    "time": 12.599999999999973,
                    "velocity": 0.2283464566929134,
                    "duration": 0.09999999999999964
                },
                {
                    "name": "F5",
                    "midi": 77,
                    "time": 12.599999999999973,
                    "velocity": 0.33070866141732286,
                    "duration": 0.09999999999999964
                },
                {
                    "name": "D5",
                    "midi": 74,
                    "time": 12.699999999999973,
                    "velocity": 0.3228346456692913,
                    "duration": 0.09999999999999964
                },
                {
                    "name": "E5",
                    "midi": 76,
                    "time": 12.799999999999972,
                    "velocity": 0.3543307086614173,
                    "duration": 0.09999999999999964
                },
                {
                    "name": "C5",
                    "midi": 72,
                    "time": 12.899999999999972,
                    "velocity": 0.33070866141732286,
                    "duration": 0.09999999999999964
                },
                {
                    "name": "G4",
                    "midi": 67,
                    "time": 12.999999999999972,
                    "velocity": 0.29133858267716534,
                    "duration": 0.09999999999999964
                },
                {
                    "name": "E4",
                    "midi": 64,
                    "time": 13.099999999999971,
                    "velocity": 0.29133858267716534,
                    "duration": 0.09500000000000064
                },
                {
                    "name": "G4",
                    "midi": 67,
                    "time": 13.199999999999973,
                    "velocity": 0.33070866141732286,
                    "duration": 0.09999999999999964
                },
                {
                    "name": "C5",
                    "midi": 72,
                    "time": 13.299999999999972,
                    "velocity": 0.28346456692913385,
                    "duration": 0.09999999999999964
                },
                {
                    "name": "E5",
                    "midi": 76,
                    "time": 13.399999999999972,
                    "velocity": 0.4015748031496063,
                    "duration": 0.09999999999999964
                },
                {
                    "name": "G5",
                    "midi": 79,
                    "time": 13.499999999999972,
                    "velocity": 0.3858267716535433,
                    "duration": 0.09999999999999964
                },
                {
                    "name": "C6",
                    "midi": 84,
                    "time": 13.599999999999971,
                    "velocity": 0.4015748031496063,
                    "duration": 0.09999999999999964
                },
                {
                    "name": "E6",
                    "midi": 88,
                    "time": 13.69999999999997,
                    "velocity": 0.3858267716535433,
                    "duration": 0.09999999999999964
                },
                {
                    "name": "D6",
                    "midi": 86,
                    "time": 13.79999999999997,
                    "velocity": 0.4015748031496063,
                    "duration": 0.09999999999999964
                },
                {
                    "name": "G5",
                    "midi": 79,
                    "time": 13.89999999999997,
                    "velocity": 0.3700787401574803,
                    "duration": 0.09999999999999964
                },
                {
                    "name": "D5",
                    "midi": 74,
                    "time": 13.99999999999997,
                    "velocity": 0.4015748031496063,
                    "duration": 0.09999999999999964
                },
                {
                    "name": "G5",
                    "midi": 79,
                    "time": 14.09999999999997,
                    "velocity": 0.3700787401574803,
                    "duration": 0.09999999999999964
                },
                {
                    "name": "D5",
                    "midi": 74,
                    "time": 14.199999999999969,
                    "velocity": 0.3858267716535433,
                    "duration": 0.09999999999999964
                },
                {
                    "name": "E5",
                    "midi": 76,
                    "time": 14.299999999999969,
                    "velocity": 0.3779527559055118,
                    "duration": 0.09999999999999964
                },
                {
                    "name": "C6",
                    "midi": 84,
                    "time": 14.399999999999968,
                    "velocity": 0.4094488188976378,
                    "duration": 0.09999999999999964
                },
                {
                    "name": "A5",
                    "midi": 81,
                    "time": 14.499999999999968,
                    "velocity": 0.33070866141732286,
                    "duration": 0.09999999999999964
                },
                {
                    "name": "F5",
                    "midi": 77,
                    "time": 14.599999999999968,
                    "velocity": 0.33070866141732286,
                    "duration": 0.09999999999999964
                },
                {
                    "name": "D5",
                    "midi": 74,
                    "time": 14.699999999999967,
                    "velocity": 0.33858267716535434,
                    "duration": 0.09999999999999964
                },
                {
                    "name": "C5",
                    "midi": 72,
                    "time": 14.799999999999967,
                    "velocity": 0.36220472440944884,
                    "duration": 0.09999999999999964
                },
                {
                    "name": "F5",
                    "midi": 77,
                    "time": 14.899999999999967,
                    "velocity": 0.33070866141732286,
                    "duration": 0.09999999999999964
                },
                {
                    "name": "F6",
                    "midi": 89,
                    "time": 14.999999999999966,
                    "velocity": 0.4015748031496063,
                    "duration": 0.09999999999999964
                },
                {
                    "name": "D6",
                    "midi": 86,
                    "time": 15.099999999999966,
                    "velocity": 0.36220472440944884,
                    "duration": 0.09999999999999964
                },
                {
                    "name": "C6",
                    "midi": 84,
                    "time": 15.199999999999966,
                    "velocity": 0.4015748031496063,
                    "duration": 0.09999999999999964
                },
                {
                    "name": "A5",
                    "midi": 81,
                    "time": 15.299999999999965,
                    "velocity": 0.36220472440944884,
                    "duration": 0.09999999999999964
                },
                {
                    "name": "F5",
                    "midi": 77,
                    "time": 15.399999999999965,
                    "velocity": 0.36220472440944884,
                    "duration": 0.09999999999999964
                },
                {
                    "name": "D5",
                    "midi": 74,
                    "time": 15.499999999999964,
                    "velocity": 0.36220472440944884,
                    "duration": 0.09999999999999964
                },
                {
                    "name": "C5",
                    "midi": 72,
                    "time": 15.599999999999964,
                    "velocity": 0.4015748031496063,
                    "duration": 0.09999999999999964
                },
                {
                    "name": "F5",
                    "midi": 77,
                    "time": 15.699999999999964,
                    "velocity": 0.3700787401574803,
                    "duration": 0.09999999999999964
                },
                {
                    "name": "F6",
                    "midi": 89,
                    "time": 15.799999999999963,
                    "velocity": 0.4015748031496063,
                    "duration": 0.09999999999999964
                },
                {
                    "name": "D6",
                    "midi": 86,
                    "time": 15.899999999999963,
                    "velocity": 0.36220472440944884,
                    "duration": 0.09999999999999964
                },
                {
                    "name": "C6",
                    "midi": 84,
                    "time": 15.999999999999963,
                    "velocity": 0.41732283464566927,
                    "duration": 0.09999999999999964
                },
                {
                    "name": "A5",
                    "midi": 81,
                    "time": 16.099999999999962,
                    "velocity": 0.3464566929133858,
                    "duration": 0.10000000000000142
                },
                {
                    "name": "F5",
                    "midi": 77,
                    "time": 16.199999999999964,
                    "velocity": 0.3464566929133858,
                    "duration": 0.10000000000000142
                },
                {
                    "name": "D5",
                    "midi": 74,
                    "time": 16.299999999999965,
                    "velocity": 0.3464566929133858,
                    "duration": 0.10000000000000142
                },
                {
                    "name": "C5",
                    "midi": 72,
                    "time": 16.399999999999967,
                    "velocity": 0.36220472440944884,
                    "duration": 0.10000000000000142
                },
                {
                    "name": "F5",
                    "midi": 77,
                    "time": 16.499999999999968,
                    "velocity": 0.33858267716535434,
                    "duration": 0.10000000000000142
                },
                {
                    "name": "F6",
                    "midi": 89,
                    "time": 16.59999999999997,
                    "velocity": 0.4015748031496063,
                    "duration": 0.10000000000000142
                },
                {
                    "name": "D6",
                    "midi": 86,
                    "time": 16.69999999999997,
                    "velocity": 0.3700787401574803,
                    "duration": 0.10000000000000142
                },
                {
                    "name": "C6",
                    "midi": 84,
                    "time": 16.799999999999972,
                    "velocity": 0.4015748031496063,
                    "duration": 0.10000000000000142
                },
                {
                    "name": "A5",
                    "midi": 81,
                    "time": 16.899999999999974,
                    "velocity": 0.36220472440944884,
                    "duration": 0.10000000000000142
                },
                {
                    "name": "F5",
                    "midi": 77,
                    "time": 16.999999999999975,
                    "velocity": 0.36220472440944884,
                    "duration": 0.10000000000000142
                },
                {
                    "name": "D5",
                    "midi": 74,
                    "time": 17.099999999999977,
                    "velocity": 0.36220472440944884,
                    "duration": 0.10000000000000142
                },
                {
                    "name": "C5",
                    "midi": 72,
                    "time": 17.199999999999978,
                    "velocity": 0.4015748031496063,
                    "duration": 0.10000000000000142
                },
                {
                    "name": "E5",
                    "midi": 76,
                    "time": 17.29999999999998,
                    "velocity": 0.3858267716535433,
                    "duration": 0.10000000000000142
                },
                {
                    "name": "A#5",
                    "midi": 82,
                    "time": 17.39999999999998,
                    "velocity": 0.4015748031496063,
                    "duration": 0.10000000000000142
                },
                {
                    "name": "G5",
                    "midi": 79,
                    "time": 17.499999999999982,
                    "velocity": 0.3700787401574803,
                    "duration": 0.10000000000000142
                },
                {
                    "name": "A5",
                    "midi": 81,
                    "time": 17.599999999999984,
                    "velocity": 0.4015748031496063,
                    "duration": 0.10000000000000142
                },
                {
                    "name": "F5",
                    "midi": 77,
                    "time": 17.699999999999985,
                    "velocity": 0.3464566929133858,
                    "duration": 0.10000000000000142
                },
                {
                    "name": "C5",
                    "midi": 72,
                    "time": 17.799999999999986,
                    "velocity": 0.30708661417322836,
                    "duration": 0.10000000000000142
                },
                {
                    "name": "A4",
                    "midi": 69,
                    "time": 17.899999999999988,
                    "velocity": 0.30708661417322836,
                    "duration": 0.09750000000000014
                },
                {
                    "name": "C5",
                    "midi": 72,
                    "time": 17.99999999999999,
                    "velocity": 0.3464566929133858,
                    "duration": 0.10000000000000142
                },
                {
                    "name": "F5",
                    "midi": 77,
                    "time": 18.09999999999999,
                    "velocity": 0.31496062992125984,
                    "duration": 0.10000000000000142
                },
                {
                    "name": "A#5",
                    "midi": 82,
                    "time": 18.199999999999992,
                    "velocity": 0.3464566929133858,
                    "duration": 0.10000000000000142
                },
                {
                    "name": "E5",
                    "midi": 76,
                    "time": 18.199999999999992,
                    "velocity": 0.2677165354330709,
                    "duration": 0.10000000000000142
                },
                {
                    "name": "G5",
                    "midi": 79,
                    "time": 18.299999999999994,
                    "velocity": 0.3464566929133858,
                    "duration": 0.10000000000000142
                },
                {
                    "name": "A5",
                    "midi": 81,
                    "time": 18.399999999999995,
                    "velocity": 0.36220472440944884,
                    "duration": 0.10000000000000142
                },
                {
                    "name": "F5",
                    "midi": 77,
                    "time": 18.499999999999996,
                    "velocity": 0.3543307086614173,
                    "duration": 0.10000000000000142
                },
                {
                    "name": "C5",
                    "midi": 72,
                    "time": 18.599999999999998,
                    "velocity": 0.3228346456692913,
                    "duration": 0.10000000000000142
                },
                {
                    "name": "A4",
                    "midi": 69,
                    "time": 18.7,
                    "velocity": 0.3228346456692913,
                    "duration": 0.09750000000000014
                },
                {
                    "name": "C5",
                    "midi": 72,
                    "time": 18.8,
                    "velocity": 0.3464566929133858,
                    "duration": 0.10000000000000142
                },
                {
                    "name": "F5",
                    "midi": 77,
                    "time": 18.900000000000002,
                    "velocity": 0.31496062992125984,
                    "duration": 0.10000000000000142
                },
                {
                    "name": "A#5",
                    "midi": 82,
                    "time": 19.000000000000004,
                    "velocity": 0.3464566929133858,
                    "duration": 0.10000000000000142
                },
                {
                    "name": "E5",
                    "midi": 76,
                    "time": 19.000000000000004,
                    "velocity": 0.2677165354330709,
                    "duration": 0.10000000000000142
                },
                {
                    "name": "G5",
                    "midi": 79,
                    "time": 19.100000000000005,
                    "velocity": 0.33858267716535434,
                    "duration": 0.10000000000000142
                },
                {
                    "name": "A5",
                    "midi": 81,
                    "time": 19.200000000000006,
                    "velocity": 0.36220472440944884,
                    "duration": 0.10000000000000142
                },
                {
                    "name": "F5",
                    "midi": 77,
                    "time": 19.300000000000008,
                    "velocity": 0.3464566929133858,
                    "duration": 0.10000000000000142
                },
                {
                    "name": "C5",
                    "midi": 72,
                    "time": 19.40000000000001,
                    "velocity": 0.30708661417322836,
                    "duration": 0.10000000000000142
                },
                {
                    "name": "A4",
                    "midi": 69,
                    "time": 19.50000000000001,
                    "velocity": 0.30708661417322836,
                    "duration": 0.09416666666666629
                },
                {
                    "name": "C5",
                    "midi": 72,
                    "time": 19.60000000000001,
                    "velocity": 0.3700787401574803,
                    "duration": 0.10000000000000142
                },
                {
                    "name": "F5",
                    "midi": 77,
                    "time": 19.70000000000001,
                    "velocity": 0.3228346456692913,
                    "duration": 0.10000000000000142
                },
                {
                    "name": "A5",
                    "midi": 81,
                    "time": 19.80000000000001,
                    "velocity": 0.3779527559055118,
                    "duration": 0.10000000000000142
                },
                {
                    "name": "C6",
                    "midi": 84,
                    "time": 19.900000000000013,
                    "velocity": 0.36220472440944884,
                    "duration": 0.10000000000000142
                },
                {
                    "name": "F6",
                    "midi": 89,
                    "time": 20.000000000000014,
                    "velocity": 0.4015748031496063,
                    "duration": 0.10000000000000142
                },
                {
                    "name": "A6",
                    "midi": 93,
                    "time": 20.100000000000016,
                    "velocity": 0.36220472440944884,
                    "duration": 0.10000000000000142
                },
                {
                    "name": "G6",
                    "midi": 91,
                    "time": 20.200000000000017,
                    "velocity": 0.3779527559055118,
                    "duration": 0.10000000000000142
                },
                {
                    "name": "C6",
                    "midi": 84,
                    "time": 20.30000000000002,
                    "velocity": 0.3543307086614173,
                    "duration": 0.10000000000000142
                },
                {
                    "name": "G5",
                    "midi": 79,
                    "time": 20.40000000000002,
                    "velocity": 0.4094488188976378,
                    "duration": 0.10000000000000142
                },
                {
                    "name": "C6",
                    "midi": 84,
                    "time": 20.50000000000002,
                    "velocity": 0.36220472440944884,
                    "duration": 0.10000000000000142
                },
                {
                    "name": "G5",
                    "midi": 79,
                    "time": 20.600000000000023,
                    "velocity": 0.4015748031496063,
                    "duration": 0.10000000000000142
                },
                {
                    "name": "A5",
                    "midi": 81,
                    "time": 20.700000000000024,
                    "velocity": 0.3779527559055118,
                    "duration": 0.10000000000000142
                },
                {
                    "name": "F6",
                    "midi": 89,
                    "time": 20.800000000000026,
                    "velocity": 0.3779527559055118,
                    "duration": 0.10000000000000142
                },
                {
                    "name": "D6",
                    "midi": 86,
                    "time": 20.900000000000027,
                    "velocity": 0.3543307086614173,
                    "duration": 0.10000000000000142
                },
                {
                    "name": "A#5",
                    "midi": 82,
                    "time": 21.00000000000003,
                    "velocity": 0.33070866141732286,
                    "duration": 0.10000000000000142
                },
                {
                    "name": "G5",
                    "midi": 79,
                    "time": 21.10000000000003,
                    "velocity": 0.33070866141732286,
                    "duration": 0.10000000000000142
                },
                {
                    "name": "F5",
                    "midi": 77,
                    "time": 21.20000000000003,
                    "velocity": 0.36220472440944884,
                    "duration": 0.10000000000000142
                },
                {
                    "name": "A#5",
                    "midi": 82,
                    "time": 21.300000000000033,
                    "velocity": 0.33070866141732286,
                    "duration": 0.10000000000000142
                },
                {
                    "name": "A#6",
                    "midi": 94,
                    "time": 21.400000000000034,
                    "velocity": 0.3779527559055118,
                    "duration": 0.10000000000000142
                },
                {
                    "name": "G6",
                    "midi": 91,
                    "time": 21.500000000000036,
                    "velocity": 0.36220472440944884,
                    "duration": 0.10000000000000142
                },
                {
                    "name": "F6",
                    "midi": 89,
                    "time": 21.600000000000037,
                    "velocity": 0.4015748031496063,
                    "duration": 0.10000000000000142
                },
                {
                    "name": "D6",
                    "midi": 86,
                    "time": 21.70000000000004,
                    "velocity": 0.36220472440944884,
                    "duration": 0.10000000000000142
                },
                {
                    "name": "A#5",
                    "midi": 82,
                    "time": 21.80000000000004,
                    "velocity": 0.3779527559055118,
                    "duration": 0.10000000000000142
                },
                {
                    "name": "G5",
                    "midi": 79,
                    "time": 21.90000000000004,
                    "velocity": 0.3464566929133858,
                    "duration": 0.10000000000000142
                },
                {
                    "name": "F5",
                    "midi": 77,
                    "time": 22.000000000000043,
                    "velocity": 0.3700787401574803,
                    "duration": 0.10000000000000142
                },
                {
                    "name": "A#5",
                    "midi": 82,
                    "time": 22.100000000000044,
                    "velocity": 0.3464566929133858,
                    "duration": 0.10000000000000142
                },
                {
                    "name": "A#6",
                    "midi": 94,
                    "time": 22.200000000000045,
                    "velocity": 0.4015748031496063,
                    "duration": 0.10000000000000142
                },
                {
                    "name": "G6",
                    "midi": 91,
                    "time": 22.300000000000047,
                    "velocity": 0.3779527559055118,
                    "duration": 0.10000000000000142
                },
                {
                    "name": "F6",
                    "midi": 89,
                    "time": 22.40000000000005,
                    "velocity": 0.3779527559055118,
                    "duration": 0.10000000000000142
                },
                {
                    "name": "D6",
                    "midi": 86,
                    "time": 22.50000000000005,
                    "velocity": 0.36220472440944884,
                    "duration": 0.10000000000000142
                },
                {
                    "name": "B5",
                    "midi": 83,
                    "time": 22.60000000000005,
                    "velocity": 0.33858267716535434,
                    "duration": 0.10000000000000142
                },
                {
                    "name": "G5",
                    "midi": 79,
                    "time": 22.700000000000053,
                    "velocity": 0.33858267716535434,
                    "duration": 0.10000000000000142
                },
                {
                    "name": "F5",
                    "midi": 77,
                    "time": 22.800000000000054,
                    "velocity": 0.3779527559055118,
                    "duration": 0.10000000000000142
                },
                {
                    "name": "G5",
                    "midi": 79,
                    "time": 22.900000000000055,
                    "velocity": 0.33858267716535434,
                    "duration": 0.10000000000000142
                },
                {
                    "name": "B6",
                    "midi": 95,
                    "time": 23.000000000000057,
                    "velocity": 0.3779527559055118,
                    "duration": 0.10000000000000142
                },
                {
                    "name": "G6",
                    "midi": 91,
                    "time": 23.10000000000006,
                    "velocity": 0.36220472440944884,
                    "duration": 0.10000000000000142
                },
                {
                    "name": "F6",
                    "midi": 89,
                    "time": 23.20000000000006,
                    "velocity": 0.4015748031496063,
                    "duration": 0.10000000000000142
                },
                {
                    "name": "D6",
                    "midi": 86,
                    "time": 23.30000000000006,
                    "velocity": 0.36220472440944884,
                    "duration": 0.10000000000000142
                },
                {
                    "name": "B5",
                    "midi": 83,
                    "time": 23.400000000000063,
                    "velocity": 0.3779527559055118,
                    "duration": 0.10000000000000142
                },
                {
                    "name": "G5",
                    "midi": 79,
                    "time": 23.500000000000064,
                    "velocity": 0.3543307086614173,
                    "duration": 0.10000000000000142
                },
                {
                    "name": "F5",
                    "midi": 77,
                    "time": 23.600000000000065,
                    "velocity": 0.3779527559055118,
                    "duration": 0.10000000000000142
                },
                {
                    "name": "G5",
                    "midi": 79,
                    "time": 23.700000000000067,
                    "velocity": 0.3464566929133858,
                    "duration": 0.10000000000000142
                },
                {
                    "name": "B6",
                    "midi": 95,
                    "time": 23.800000000000068,
                    "velocity": 0.4015748031496063,
                    "duration": 0.10000000000000142
                },
                {
                    "name": "G6",
                    "midi": 91,
                    "time": 23.90000000000007,
                    "velocity": 0.3779527559055118,
                    "duration": 0.10000000000000142
                },
                {
                    "name": "F6",
                    "midi": 89,
                    "time": 24.00000000000007,
                    "velocity": 0.3779527559055118,
                    "duration": 0.10000000000000142
                },
                {
                    "name": "D6",
                    "midi": 86,
                    "time": 24.100000000000072,
                    "velocity": 0.36220472440944884,
                    "duration": 0.10000000000000142
                },
                {
                    "name": "C6",
                    "midi": 84,
                    "time": 24.200000000000074,
                    "velocity": 0.33070866141732286,
                    "duration": 0.10000000000000142
                },
                {
                    "name": "A5",
                    "midi": 81,
                    "time": 24.300000000000075,
                    "velocity": 0.33858267716535434,
                    "duration": 0.10000000000000142
                },
                {
                    "name": "G5",
                    "midi": 79,
                    "time": 24.400000000000077,
                    "velocity": 0.3779527559055118,
                    "duration": 0.10000000000000142
                },
                {
                    "name": "C6",
                    "midi": 84,
                    "time": 24.500000000000078,
                    "velocity": 0.3543307086614173,
                    "duration": 0.10000000000000142
                },
                {
                    "name": "C7",
                    "midi": 96,
                    "time": 24.60000000000008,
                    "velocity": 0.3779527559055118,
                    "duration": 0.10000000000000142
                },
                {
                    "name": "A6",
                    "midi": 93,
                    "time": 24.70000000000008,
                    "velocity": 0.36220472440944884,
                    "duration": 0.10000000000000142
                },
                {
                    "name": "F6",
                    "midi": 89,
                    "time": 24.800000000000082,
                    "velocity": 0.4015748031496063,
                    "duration": 0.10000000000000142
                },
                {
                    "name": "D6",
                    "midi": 86,
                    "time": 24.900000000000084,
                    "velocity": 0.36220472440944884,
                    "duration": 0.10000000000000142
                },
                {
                    "name": "C6",
                    "midi": 84,
                    "time": 25.000000000000085,
                    "velocity": 0.3779527559055118,
                    "duration": 0.10000000000000142
                },
                {
                    "name": "A5",
                    "midi": 81,
                    "time": 25.100000000000087,
                    "velocity": 0.3779527559055118,
                    "duration": 0.10000000000000142
                },
                {
                    "name": "G5",
                    "midi": 79,
                    "time": 25.200000000000088,
                    "velocity": 0.4094488188976378,
                    "duration": 0.10000000000000142
                },
                {
                    "name": "C6",
                    "midi": 84,
                    "time": 25.30000000000009,
                    "velocity": 0.36220472440944884,
                    "duration": 0.10000000000000142
                },
                {
                    "name": "C7",
                    "midi": 96,
                    "time": 25.40000000000009,
                    "velocity": 0.4015748031496063,
                    "duration": 0.10000000000000142
                },
                {
                    "name": "A6",
                    "midi": 93,
                    "time": 25.500000000000092,
                    "velocity": 0.3779527559055118,
                    "duration": 0.10000000000000142
                },
                {
                    "name": "F6",
                    "midi": 89,
                    "time": 25.600000000000094,
                    "velocity": 0.4015748031496063,
                    "duration": 0.10000000000000142
                },
                {
                    "name": "D6",
                    "midi": 86,
                    "time": 25.700000000000095,
                    "velocity": 0.3700787401574803,
                    "duration": 0.10000000000000142
                },
                {
                    "name": "C6",
                    "midi": 84,
                    "time": 25.800000000000097,
                    "velocity": 0.3464566929133858,
                    "duration": 0.10000000000000142
                },
                {
                    "name": "A5",
                    "midi": 81,
                    "time": 25.900000000000098,
                    "velocity": 0.3464566929133858,
                    "duration": 0.09750000000000014
                },
                {
                    "name": "G5",
                    "midi": 79,
                    "time": 26.0000000000001,
                    "velocity": 0.3700787401574803,
                    "duration": 0.10000000000000142
                },
                {
                    "name": "C6",
                    "midi": 84,
                    "time": 26.1000000000001,
                    "velocity": 0.33070866141732286,
                    "duration": 0.10000000000000142
                },
                {
                    "name": "C7",
                    "midi": 96,
                    "time": 26.200000000000102,
                    "velocity": 0.4015748031496063,
                    "duration": 0.10000000000000142
                },
                {
                    "name": "A6",
                    "midi": 93,
                    "time": 26.300000000000104,
                    "velocity": 0.3543307086614173,
                    "duration": 0.10000000000000142
                },
                {
                    "name": "G6",
                    "midi": 91,
                    "time": 26.400000000000105,
                    "velocity": 0.41732283464566927,
                    "duration": 0.10000000000000142
                },
                {
                    "name": "E6",
                    "midi": 88,
                    "time": 26.500000000000107,
                    "velocity": 0.3543307086614173,
                    "duration": 0.10000000000000142
                },
                {
                    "name": "C6",
                    "midi": 84,
                    "time": 26.600000000000108,
                    "velocity": 0.3543307086614173,
                    "duration": 0.10000000000000142
                },
                {
                    "name": "A5",
                    "midi": 81,
                    "time": 26.70000000000011,
                    "velocity": 0.3543307086614173,
                    "duration": 0.10000000000000142
                },
                {
                    "name": "G5",
                    "midi": 79,
                    "time": 26.80000000000011,
                    "velocity": 0.4015748031496063,
                    "duration": 0.10000000000000142
                },
                {
                    "name": "C6",
                    "midi": 84,
                    "time": 26.900000000000112,
                    "velocity": 0.31496062992125984,
                    "duration": 0.10000000000000142
                },
                {
                    "name": "C7",
                    "midi": 96,
                    "time": 27.000000000000114,
                    "velocity": 0.3543307086614173,
                    "duration": 0.10000000000000142
                },
                {
                    "name": "G6",
                    "midi": 91,
                    "time": 27.100000000000115,
                    "velocity": 0.29133858267716534,
                    "duration": 0.10000000000000142
                },
                {
                    "name": "C7",
                    "midi": 96,
                    "time": 27.200000000000117,
                    "velocity": 0.3543307086614173,
                    "duration": 0.10000000000000142
                },
                {
                    "name": "A6",
                    "midi": 93,
                    "time": 27.300000000000118,
                    "velocity": 0.3228346456692913,
                    "duration": 0.10000000000000142
                },
                {
                    "name": "F6",
                    "midi": 89,
                    "time": 27.40000000000012,
                    "velocity": 0.3228346456692913,
                    "duration": 0.10000000000000142
                },
                {
                    "name": "D6",
                    "midi": 86,
                    "time": 27.50000000000012,
                    "velocity": 0.33070866141732286,
                    "duration": 0.10000000000000142
                },
                {
                    "name": "C6",
                    "midi": 84,
                    "time": 27.600000000000122,
                    "velocity": 0.3543307086614173,
                    "duration": 0.10000000000000142
                },
                {
                    "name": "F6",
                    "midi": 89,
                    "time": 27.700000000000124,
                    "velocity": 0.3228346456692913,
                    "duration": 0.10000000000000142
                },
                {
                    "name": "F7",
                    "midi": 101,
                    "time": 27.800000000000125,
                    "velocity": 0.3543307086614173,
                    "duration": 0.10000000000000142
                },
                {
                    "name": "D7",
                    "midi": 98,
                    "time": 27.900000000000126,
                    "velocity": 0.33070866141732286,
                    "duration": 0.10000000000000142
                },
                {
                    "name": "C7",
                    "midi": 96,
                    "time": 28.000000000000128,
                    "velocity": 0.3543307086614173,
                    "duration": 0.10000000000000142
                },
                {
                    "name": "A6",
                    "midi": 93,
                    "time": 28.10000000000013,
                    "velocity": 0.33070866141732286,
                    "duration": 0.10000000000000142
                },
                {
                    "name": "F6",
                    "midi": 89,
                    "time": 28.20000000000013,
                    "velocity": 0.33070866141732286,
                    "duration": 0.10000000000000142
                },
                {
                    "name": "D6",
                    "midi": 86,
                    "time": 28.300000000000132,
                    "velocity": 0.33070866141732286,
                    "duration": 0.10000000000000142
                },
                {
                    "name": "C6",
                    "midi": 84,
                    "time": 28.400000000000134,
                    "velocity": 0.3543307086614173,
                    "duration": 0.10000000000000142
                },
                {
                    "name": "F6",
                    "midi": 89,
                    "time": 28.500000000000135,
                    "velocity": 0.33858267716535434,
                    "duration": 0.10000000000000142
                },
                {
                    "name": "F7",
                    "midi": 101,
                    "time": 28.600000000000136,
                    "velocity": 0.3543307086614173,
                    "duration": 0.10000000000000142
                },
                {
                    "name": "D7",
                    "midi": 98,
                    "time": 28.700000000000138,
                    "velocity": 0.33070866141732286,
                    "duration": 0.10000000000000142
                },
                {
                    "name": "C7",
                    "midi": 96,
                    "time": 28.80000000000014,
                    "velocity": 0.36220472440944884,
                    "duration": 0.10000000000000142
                },
                {
                    "name": "A6",
                    "midi": 93,
                    "time": 28.90000000000014,
                    "velocity": 0.33858267716535434,
                    "duration": 0.10000000000000142
                },
                {
                    "name": "F6",
                    "midi": 89,
                    "time": 29.000000000000142,
                    "velocity": 0.33858267716535434,
                    "duration": 0.10000000000000142
                },
                {
                    "name": "D6",
                    "midi": 86,
                    "time": 29.100000000000144,
                    "velocity": 0.33858267716535434,
                    "duration": 0.10000000000000142
                },
                {
                    "name": "C6",
                    "midi": 84,
                    "time": 29.200000000000145,
                    "velocity": 0.3543307086614173,
                    "duration": 0.10000000000000142
                },
                {
                    "name": "F6",
                    "midi": 89,
                    "time": 29.300000000000146,
                    "velocity": 0.33070866141732286,
                    "duration": 0.10000000000000142
                },
                {
                    "name": "F7",
                    "midi": 101,
                    "time": 29.400000000000148,
                    "velocity": 0.3543307086614173,
                    "duration": 0.10000000000000142
                },
                {
                    "name": "D7",
                    "midi": 98,
                    "time": 29.50000000000015,
                    "velocity": 0.33858267716535434,
                    "duration": 0.10000000000000142
                },
                {
                    "name": "C7",
                    "midi": 96,
                    "time": 29.60000000000015,
                    "velocity": 0.3543307086614173,
                    "duration": 0.10000000000000142
                },
                {
                    "name": "A6",
                    "midi": 93,
                    "time": 29.700000000000152,
                    "velocity": 0.33070866141732286,
                    "duration": 0.10000000000000142
                },
                {
                    "name": "F6",
                    "midi": 89,
                    "time": 29.800000000000153,
                    "velocity": 0.33070866141732286,
                    "duration": 0.10000000000000142
                },
                {
                    "name": "D6",
                    "midi": 86,
                    "time": 29.900000000000155,
                    "velocity": 0.33070866141732286,
                    "duration": 0.10000000000000142
                },
                {
                    "name": "C6",
                    "midi": 84,
                    "time": 30.000000000000156,
                    "velocity": 0.3543307086614173,
                    "duration": 0.10000000000000142
                },
                {
                    "name": "E6",
                    "midi": 88,
                    "time": 30.100000000000158,
                    "velocity": 0.3464566929133858,
                    "duration": 0.10000000000000142
                },
                {
                    "name": "A#6",
                    "midi": 94,
                    "time": 30.20000000000016,
                    "velocity": 0.3543307086614173,
                    "duration": 0.10000000000000142
                },
                {
                    "name": "G6",
                    "midi": 91,
                    "time": 30.30000000000016,
                    "velocity": 0.33858267716535434,
                    "duration": 0.10000000000000142
                },
                {
                    "name": "A6",
                    "midi": 93,
                    "time": 30.400000000000162,
                    "velocity": 0.3543307086614173,
                    "duration": 0.10000000000000142
                },
                {
                    "name": "F6",
                    "midi": 89,
                    "time": 30.500000000000163,
                    "velocity": 0.33858267716535434,
                    "duration": 0.10000000000000142
                },
                {
                    "name": "C6",
                    "midi": 84,
                    "time": 30.600000000000165,
                    "velocity": 0.29133858267716534,
                    "duration": 0.10000000000000142
                },
                {
                    "name": "A5",
                    "midi": 81,
                    "time": 30.700000000000166,
                    "velocity": 0.29133858267716534,
                    "duration": 0.10000000000000142
                },
                {
                    "name": "F5",
                    "midi": 77,
                    "time": 30.800000000000168,
                    "velocity": 0.33858267716535434,
                    "duration": 0.10000000000000142
                },
                {
                    "name": "C5",
                    "midi": 72,
                    "time": 30.90000000000017,
                    "velocity": 0.30708661417322836,
                    "duration": 0.10000000000000142
                },
                {
                    "name": "E5",
                    "midi": 76,
                    "time": 31.00000000000017,
                    "velocity": 0.25984251968503935,
                    "duration": 0.10000000000000142
                },
                {
                    "name": "A#5",
                    "midi": 82,
                    "time": 31.00000000000017,
                    "velocity": 0.33070866141732286,
                    "duration": 0.10000000000000142
                },
                {
                    "name": "G5",
                    "midi": 79,
                    "time": 31.100000000000172,
                    "velocity": 0.33858267716535434,
                    "duration": 0.10000000000000142
                },
                {
                    "name": "A5",
                    "midi": 81,
                    "time": 31.200000000000173,
                    "velocity": 0.3543307086614173,
                    "duration": 0.10000000000000142
                },
                {
                    "name": "F5",
                    "midi": 77,
                    "time": 31.300000000000175,
                    "velocity": 0.3464566929133858,
                    "duration": 0.10000000000000142
                },
                {
                    "name": "C5",
                    "midi": 72,
                    "time": 31.400000000000176,
                    "velocity": 0.31496062992125984,
                    "duration": 0.10000000000000142
                },
                {
                    "name": "A4",
                    "midi": 69,
                    "time": 31.500000000000178,
                    "velocity": 0.31496062992125984,
                    "duration": 0.10000000000000142
                },
                {
                    "name": "F4",
                    "midi": 65,
                    "time": 31.60000000000018,
                    "velocity": 0.33858267716535434,
                    "duration": 0.10000000000000142
                },
                {
                    "name": "C4",
                    "midi": 60,
                    "time": 31.70000000000018,
                    "velocity": 0.30708661417322836,
                    "duration": 0.10000000000000142
                },
                {
                    "name": "A#4",
                    "midi": 70,
                    "time": 31.800000000000182,
                    "velocity": 0.33070866141732286,
                    "duration": 0.10000000000000142
                },
                {
                    "name": "E4",
                    "midi": 64,
                    "time": 31.800000000000182,
                    "velocity": 0.25984251968503935,
                    "duration": 0.10000000000000142
                },
                {
                    "name": "G4",
                    "midi": 67,
                    "time": 31.900000000000183,
                    "velocity": 0.33070866141732286,
                    "duration": 0.10000000000000142
                },
                {
                    "name": "A4",
                    "midi": 69,
                    "time": 32.000000000000185,
                    "velocity": 0.3543307086614173,
                    "duration": 0.10000000000000142
                },
                {
                    "name": "F4",
                    "midi": 65,
                    "time": 32.100000000000186,
                    "velocity": 0.3464566929133858,
                    "duration": 0.10000000000000142
                },
                {
                    "name": "C4",
                    "midi": 60,
                    "time": 32.20000000000019,
                    "velocity": 0.30708661417322836,
                    "duration": 0.10000000000000142
                },
                {
                    "name": "A3",
                    "midi": 57,
                    "time": 32.30000000000019,
                    "velocity": 0.30708661417322836,
                    "duration": 0.09749999999999659
                },
                {
                    "name": "C4",
                    "midi": 60,
                    "time": 32.40000000000018,
                    "velocity": 0.3228346456692913,
                    "duration": 0.10000000000000142
                },
                {
                    "name": "F4",
                    "midi": 65,
                    "time": 32.500000000000185,
                    "velocity": 0.28346456692913385,
                    "duration": 0.10000000000000142
                },
                {
                    "name": "A#4",
                    "midi": 70,
                    "time": 32.600000000000186,
                    "velocity": 0.30708661417322836,
                    "duration": 0.10000000000000142
                },
                {
                    "name": "E4",
                    "midi": 64,
                    "time": 32.600000000000186,
                    "velocity": 0.23622047244094488,
                    "duration": 0.10000000000000142
                },
                {
                    "name": "G4",
                    "midi": 67,
                    "time": 32.70000000000019,
                    "velocity": 0.30708661417322836,
                    "duration": 0.10000000000000142
                },
                {
                    "name": "A4",
                    "midi": 69,
                    "time": 32.80000000000019,
                    "velocity": 0.33070866141732286,
                    "duration": 0.10000000000000142
                },
                {
                    "name": "F4",
                    "midi": 65,
                    "time": 32.90000000000019,
                    "velocity": 0.3228346456692913,
                    "duration": 0.10000000000000142
                },
                {
                    "name": "C4",
                    "midi": 60,
                    "time": 33.00000000000019,
                    "velocity": 0.2677165354330709,
                    "duration": 0.10000000000000142
                },
                {
                    "name": "A3",
                    "midi": 57,
                    "time": 33.10000000000019,
                    "velocity": 0.2677165354330709,
                    "duration": 0.09749999999999659
                },
                {
                    "name": "C4",
                    "midi": 60,
                    "time": 33.20000000000019,
                    "velocity": 0.2992125984251969,
                    "duration": 0.10000000000000142
                },
                {
                    "name": "F4",
                    "midi": 65,
                    "time": 33.30000000000019,
                    "velocity": 0.2677165354330709,
                    "duration": 0.10000000000000142
                },
                {
                    "name": "A#4",
                    "midi": 70,
                    "time": 33.40000000000019,
                    "velocity": 0.2755905511811024,
                    "duration": 0.10000000000000142
                },
                {
                    "name": "E4",
                    "midi": 64,
                    "time": 33.40000000000019,
                    "velocity": 0.2204724409448819,
                    "duration": 0.10000000000000142
                },
                {
                    "name": "G4",
                    "midi": 67,
                    "time": 33.50000000000019,
                    "velocity": 0.2755905511811024,
                    "duration": 0.10000000000000142
                },
                {
                    "name": "A4",
                    "midi": 69,
                    "time": 33.60000000000019,
                    "velocity": 0.2992125984251969,
                    "duration": 0.10000000000000142
                },
                {
                    "name": "F4",
                    "midi": 65,
                    "time": 33.700000000000195,
                    "velocity": 0.2992125984251969,
                    "duration": 0.10000000000000142
                },
                {
                    "name": "C4",
                    "midi": 60,
                    "time": 33.800000000000196,
                    "velocity": 0.2677165354330709,
                    "duration": 0.10000000000000142
                },
                {
                    "name": "A3",
                    "midi": 57,
                    "time": 33.9000000000002,
                    "velocity": 0.2677165354330709,
                    "duration": 0.10000000000000142
                },
                {
                    "name": "C4",
                    "midi": 60,
                    "time": 34.0000000000002,
                    "velocity": 0.2677165354330709,
                    "duration": 0.10000000000000142
                },
                {
                    "name": "F4",
                    "midi": 65,
                    "time": 34.1000000000002,
                    "velocity": 0.25196850393700787,
                    "duration": 0.10000000000000142
                },
                {
                    "name": "A4",
                    "midi": 69,
                    "time": 34.2000000000002,
                    "velocity": 0.28346456692913385,
                    "duration": 0.10000000000000142
                },
                {
                    "name": "C5",
                    "midi": 72,
                    "time": 34.3000000000002,
                    "velocity": 0.25984251968503935,
                    "duration": 0.10000000000000142
                },
                {
                    "name": "F5",
                    "midi": 77,
                    "time": 34.400000000000205,
                    "velocity": 0.30708661417322836,
                    "duration": 0.10000000000000142
                },
                {
                    "name": "A5",
                    "midi": 81,
                    "time": 34.500000000000206,
                    "velocity": 0.2677165354330709,
                    "duration": 0.10000000000000142
                },
                {
                    "name": "C6",
                    "midi": 84,
                    "time": 34.60000000000021,
                    "velocity": 0.23622047244094488,
                    "duration": 0.10000000000000142
                },
                {
                    "name": "F6",
                    "midi": 89,
                    "time": 34.70000000000021,
                    "velocity": 0.2047244094488189,
                    "duration": 0.10000000000000142
                },
                {
                    "name": "A6",
                    "midi": 93,
                    "time": 34.80000000000021,
                    "velocity": 0.25984251968503935,
                    "duration": 0.10000000000000142
                },
                {
                    "name": "C6",
                    "midi": 84,
                    "time": 34.90000000000021,
                    "velocity": 0.2440944881889764,
                    "duration": 0.10000000000000142
                },
                {
                    "name": "F6",
                    "midi": 89,
                    "time": 35.00000000000021,
                    "velocity": 0.2283464566929134,
                    "duration": 0.10000000000000142
                },
                {
                    "name": "A5",
                    "midi": 81,
                    "time": 35.100000000000215,
                    "velocity": 0.2047244094488189,
                    "duration": 0.10000000000000142
                },
                {
                    "name": "F7",
                    "midi": 101,
                    "time": 35.200000000000216,
                    "velocity": 0.33070866141732286,
                    "duration": 0.3999999999999986
                }
            ],
            "controlChanges": {
                "7": [
                    {
                        "number": 7,
                        "time": 0,
                        "value": 0.7874015748031497
                    }
                ],
                "10": [
                    {
                        "number": 10,
                        "time": 0,
                        "value": 0.5039370078740157
                    }
                ],
                "64": [
                    {
                        "number": 64,
                        "time": 0,
                        "value": 0
                    }
                ],
                "91": [
                    {
                        "number": 91,
                        "time": 0,
                        "value": 1
                    }
                ]
            },
            "id": 1,
            "name": "Piano right",
            "instrumentNumber": 0,
            "instrument": "acoustic grand piano",
            "instrumentFamily": "piano",
            "channelNumber": 0,
            "isPercussion": false
        },
        {
            "startTime": 1.5000000000000002,
            "duration": 35.600000000000044,
            "length": 179,
            "notes": [
                {
                    "name": "F2",
                    "midi": 41,
                    "time": 1.5000000000000002,
                    "velocity": 0.23622047244094488,
                    "duration": 0.9000000000000001
                },
                {
                    "name": "C3",
                    "midi": 48,
                    "time": 1.5500000000000003,
                    "velocity": 0.29133858267716534,
                    "duration": 0.8500000000000001
                },
                {
                    "name": "A3",
                    "midi": 57,
                    "time": 1.6000000000000003,
                    "velocity": 0.3464566929133858,
                    "duration": 0.8
                },
                {
                    "name": "C2",
                    "midi": 36,
                    "time": 3.2,
                    "velocity": 0.3700787401574803,
                    "duration": 0.3999999999999999
                },
                {
                    "name": "B2",
                    "midi": 47,
                    "time": 3.5000000000000004,
                    "velocity": 0.25984251968503935,
                    "duration": 0.04999999999999982
                },
                {
                    "name": "C3",
                    "midi": 48,
                    "time": 3.5500000000000003,
                    "velocity": 0.25984251968503935,
                    "duration": 0.04999999999999982
                },
                {
                    "name": "D3",
                    "midi": 50,
                    "time": 3.6,
                    "velocity": 0.2992125984251969,
                    "duration": 0.04999999999999982
                },
                {
                    "name": "C3",
                    "midi": 48,
                    "time": 3.65,
                    "velocity": 0.2992125984251969,
                    "duration": 0.04999999999999982
                },
                {
                    "name": "D3",
                    "midi": 50,
                    "time": 3.6999999999999997,
                    "velocity": 0.30708661417322836,
                    "duration": 0.04999999999999982
                },
                {
                    "name": "C3",
                    "midi": 48,
                    "time": 3.7499999999999996,
                    "velocity": 0.31496062992125984,
                    "duration": 0.04999999999999982
                },
                {
                    "name": "D3",
                    "midi": 50,
                    "time": 3.7999999999999994,
                    "velocity": 0.31496062992125984,
                    "duration": 0.04999999999999982
                },
                {
                    "name": "C3",
                    "midi": 48,
                    "time": 3.849999999999999,
                    "velocity": 0.3228346456692913,
                    "duration": 0.04999999999999982
                },
                {
                    "name": "B2",
                    "midi": 47,
                    "time": 3.899999999999999,
                    "velocity": 0.33070866141732286,
                    "duration": 0.04999999999999982
                },
                {
                    "name": "C3",
                    "midi": 48,
                    "time": 3.949999999999999,
                    "velocity": 0.33070866141732286,
                    "duration": 0.04999999999999982
                },
                {
                    "name": "C3",
                    "midi": 48,
                    "time": 3.9999999999999987,
                    "velocity": 0.28346456692913385,
                    "duration": 0.8000000000000003
                },
                {
                    "name": "A3",
                    "midi": 57,
                    "time": 3.9999999999999987,
                    "velocity": 0.3700787401574803,
                    "duration": 0.3999999999999999
                },
                {
                    "name": "G3",
                    "midi": 55,
                    "time": 4.399999999999999,
                    "velocity": 0.3543307086614173,
                    "duration": 0.40000000000000036
                },
                {
                    "name": "F2",
                    "midi": 41,
                    "time": 4.799999999999999,
                    "velocity": 0.3700787401574803,
                    "duration": 0.20000000000000018
                },
                {
                    "name": "C3",
                    "midi": 48,
                    "time": 4.999999999999999,
                    "velocity": 0.29133858267716534,
                    "duration": 0.09999999999999964
                },
                {
                    "name": "F3",
                    "midi": 53,
                    "time": 5.099999999999999,
                    "velocity": 0.25984251968503935,
                    "duration": 0.09999999999999964
                },
                {
                    "name": "A3",
                    "midi": 57,
                    "time": 5.199999999999998,
                    "velocity": 0.3228346456692913,
                    "duration": 0.20000000000000018
                },
                {
                    "name": "C3",
                    "midi": 48,
                    "time": 5.399999999999999,
                    "velocity": 0.2755905511811024,
                    "duration": 0.20000000000000018
                },
                {
                    "name": "G3",
                    "midi": 55,
                    "time": 5.399999999999999,
                    "velocity": 0.3228346456692913,
                    "duration": 0.20000000000000018
                },
                {
                    "name": "F2",
                    "midi": 41,
                    "time": 5.599999999999999,
                    "velocity": 0.3779527559055118,
                    "duration": 0.20000000000000018
                },
                {
                    "name": "C3",
                    "midi": 48,
                    "time": 5.799999999999999,
                    "velocity": 0.3228346456692913,
                    "duration": 0.09999999999999964
                },
                {
                    "name": "F3",
                    "midi": 53,
                    "time": 5.899999999999999,
                    "velocity": 0.28346456692913385,
                    "duration": 0.09999999999999964
                },
                {
                    "name": "A3",
                    "midi": 57,
                    "time": 5.999999999999998,
                    "velocity": 0.33070866141732286,
                    "duration": 0.20000000000000018
                },
                {
                    "name": "C3",
                    "midi": 48,
                    "time": 6.199999999999998,
                    "velocity": 0.31496062992125984,
                    "duration": 0.20000000000000018
                },
                {
                    "name": "G3",
                    "midi": 55,
                    "time": 6.199999999999998,
                    "velocity": 0.31496062992125984,
                    "duration": 0.20000000000000018
                },
                {
                    "name": "F2",
                    "midi": 41,
                    "time": 6.399999999999999,
                    "velocity": 0.3700787401574803,
                    "duration": 0.20000000000000018
                },
                {
                    "name": "C3",
                    "midi": 48,
                    "time": 6.599999999999999,
                    "velocity": 0.3543307086614173,
                    "duration": 0.09999999999999964
                },
                {
                    "name": "F3",
                    "midi": 53,
                    "time": 6.699999999999998,
                    "velocity": 0.30708661417322836,
                    "duration": 0.09999999999999964
                },
                {
                    "name": "A3",
                    "midi": 57,
                    "time": 6.799999999999998,
                    "velocity": 0.3543307086614173,
                    "duration": 0.09999999999999964
                },
                {
                    "name": "F3",
                    "midi": 53,
                    "time": 6.899999999999998,
                    "velocity": 0.31496062992125984,
                    "duration": 0.09999999999999964
                },
                {
                    "name": "D4",
                    "midi": 62,
                    "time": 6.999999999999997,
                    "velocity": 0.31496062992125984,
                    "duration": 0.09999999999999964
                },
                {
                    "name": "B3",
                    "midi": 59,
                    "time": 7.099999999999997,
                    "velocity": 0.2755905511811024,
                    "duration": 0.09999999999999964
                },
                {
                    "name": "C4",
                    "midi": 60,
                    "time": 7.199999999999997,
                    "velocity": 0.33858267716535434,
                    "duration": 0.20000000000000018
                },
                {
                    "name": "A#4",
                    "midi": 70,
                    "time": 7.399999999999997,
                    "velocity": 0.30708661417322836,
                    "duration": 0.09999999999999964
                },
                {
                    "name": "G#4",
                    "midi": 68,
                    "time": 7.4999999999999964,
                    "velocity": 0.28346456692913385,
                    "duration": 0.09999999999999964
                },
                {
                    "name": "A4",
                    "midi": 69,
                    "time": 7.599999999999996,
                    "velocity": 0.30708661417322836,
                    "duration": 0.20000000000000018
                },
                {
                    "name": "C3",
                    "midi": 48,
                    "time": 7.899999999999996,
                    "velocity": 0.23622047244094488,
                    "duration": 0.8999999999999995
                },
                {
                    "name": "G3",
                    "midi": 55,
                    "time": 7.949999999999996,
                    "velocity": 0.29133858267716534,
                    "duration": 0.8499999999999996
                },
                {
                    "name": "E4",
                    "midi": 64,
                    "time": 7.999999999999996,
                    "velocity": 0.3543307086614173,
                    "duration": 0.7999999999999998
                },
                {
                    "name": "G2",
                    "midi": 43,
                    "time": 9.599999999999996,
                    "velocity": 0.3700787401574803,
                    "duration": 0.40000000000000036
                },
                {
                    "name": "F#3",
                    "midi": 54,
                    "time": 9.899999999999995,
                    "velocity": 0.25984251968503935,
                    "duration": 0.05000000000000071
                },
                {
                    "name": "G3",
                    "midi": 55,
                    "time": 9.949999999999996,
                    "velocity": 0.25984251968503935,
                    "duration": 0.05000000000000071
                },
                {
                    "name": "A3",
                    "midi": 57,
                    "time": 9.999999999999996,
                    "velocity": 0.2992125984251969,
                    "duration": 0.05000000000000071
                },
                {
                    "name": "G3",
                    "midi": 55,
                    "time": 10.049999999999997,
                    "velocity": 0.2992125984251969,
                    "duration": 0.05000000000000071
                },
                {
                    "name": "A3",
                    "midi": 57,
                    "time": 10.099999999999998,
                    "velocity": 0.30708661417322836,
                    "duration": 0.05000000000000071
                },
                {
                    "name": "G3",
                    "midi": 55,
                    "time": 10.149999999999999,
                    "velocity": 0.31496062992125984,
                    "duration": 0.05000000000000071
                },
                {
                    "name": "A3",
                    "midi": 57,
                    "time": 10.2,
                    "velocity": 0.31496062992125984,
                    "duration": 0.05000000000000071
                },
                {
                    "name": "G3",
                    "midi": 55,
                    "time": 10.25,
                    "velocity": 0.3228346456692913,
                    "duration": 0.05000000000000071
                },
                {
                    "name": "F#3",
                    "midi": 54,
                    "time": 10.3,
                    "velocity": 0.33070866141732286,
                    "duration": 0.05000000000000071
                },
                {
                    "name": "G3",
                    "midi": 55,
                    "time": 10.350000000000001,
                    "velocity": 0.33070866141732286,
                    "duration": 0.05000000000000071
                },
                {
                    "name": "G3",
                    "midi": 55,
                    "time": 10.400000000000002,
                    "velocity": 0.28346456692913385,
                    "duration": 0.7999999999999989
                },
                {
                    "name": "E4",
                    "midi": 64,
                    "time": 10.400000000000002,
                    "velocity": 0.3700787401574803,
                    "duration": 0.40000000000000036
                },
                {
                    "name": "D4",
                    "midi": 62,
                    "time": 10.800000000000002,
                    "velocity": 0.3543307086614173,
                    "duration": 0.3999999999999986
                },
                {
                    "name": "C3",
                    "midi": 48,
                    "time": 11.200000000000001,
                    "velocity": 0.3700787401574803,
                    "duration": 0.1999999999999993
                },
                {
                    "name": "G3",
                    "midi": 55,
                    "time": 11.4,
                    "velocity": 0.33858267716535434,
                    "duration": 0.09999999999999964
                },
                {
                    "name": "C4",
                    "midi": 60,
                    "time": 11.5,
                    "velocity": 0.30708661417322836,
                    "duration": 0.09999999999999964
                },
                {
                    "name": "E4",
                    "midi": 64,
                    "time": 11.6,
                    "velocity": 0.3464566929133858,
                    "duration": 0.1999999999999993
                },
                {
                    "name": "G3",
                    "midi": 55,
                    "time": 11.799999999999999,
                    "velocity": 0.23622047244094488,
                    "duration": 0.1999999999999993
                },
                {
                    "name": "D4",
                    "midi": 62,
                    "time": 11.799999999999999,
                    "velocity": 0.3228346456692913,
                    "duration": 0.1999999999999993
                },
                {
                    "name": "C3",
                    "midi": 48,
                    "time": 11.999999999999998,
                    "velocity": 0.3779527559055118,
                    "duration": 0.1999999999999993
                },
                {
                    "name": "G3",
                    "midi": 55,
                    "time": 12.199999999999998,
                    "velocity": 0.33070866141732286,
                    "duration": 0.09999999999999964
                },
                {
                    "name": "C4",
                    "midi": 60,
                    "time": 12.299999999999997,
                    "velocity": 0.29133858267716534,
                    "duration": 0.09999999999999964
                },
                {
                    "name": "E4",
                    "midi": 64,
                    "time": 12.399999999999997,
                    "velocity": 0.3543307086614173,
                    "duration": 0.1999999999999993
                },
                {
                    "name": "G3",
                    "midi": 55,
                    "time": 12.599999999999996,
                    "velocity": 0.2283464566929134,
                    "duration": 0.20000000000000107
                },
                {
                    "name": "D4",
                    "midi": 62,
                    "time": 12.599999999999996,
                    "velocity": 0.33070866141732286,
                    "duration": 0.20000000000000107
                },
                {
                    "name": "C3",
                    "midi": 48,
                    "time": 12.799999999999997,
                    "velocity": 0.3700787401574803,
                    "duration": 0.13333333333333464
                },
                {
                    "name": "G3",
                    "midi": 55,
                    "time": 12.933333333333332,
                    "velocity": 0.3543307086614173,
                    "duration": 0.13333333333333286
                },
                {
                    "name": "C4",
                    "midi": 60,
                    "time": 13.066666666666665,
                    "velocity": 0.30708661417322836,
                    "duration": 0.13333333333333286
                },
                {
                    "name": "E4",
                    "midi": 64,
                    "time": 13.199999999999998,
                    "velocity": 0.3700787401574803,
                    "duration": 0.13333333333333286
                },
                {
                    "name": "A#4",
                    "midi": 70,
                    "time": 13.33333333333333,
                    "velocity": 0.3464566929133858,
                    "duration": 0.13333333333333286
                },
                {
                    "name": "F3",
                    "midi": 53,
                    "time": 14.299999999999997,
                    "velocity": 0.23622047244094488,
                    "duration": 0.9000000000000004
                },
                {
                    "name": "C4",
                    "midi": 60,
                    "time": 14.349999999999998,
                    "velocity": 0.29133858267716534,
                    "duration": 0.8499999999999996
                },
                {
                    "name": "A4",
                    "midi": 69,
                    "time": 14.399999999999999,
                    "velocity": 0.36220472440944884,
                    "duration": 0.7999999999999989
                },
                {
                    "name": "C3",
                    "midi": 48,
                    "time": 15.999999999999998,
                    "velocity": 0.3700787401574803,
                    "duration": 0.4000000000000039
                },
                {
                    "name": "B3",
                    "midi": 59,
                    "time": 16.3,
                    "velocity": 0.25984251968503935,
                    "duration": 0.05000000000000071
                },
                {
                    "name": "C4",
                    "midi": 60,
                    "time": 16.35,
                    "velocity": 0.25984251968503935,
                    "duration": 0.05000000000000071
                },
                {
                    "name": "D4",
                    "midi": 62,
                    "time": 16.400000000000002,
                    "velocity": 0.2992125984251969,
                    "duration": 0.05000000000000071
                },
                {
                    "name": "C4",
                    "midi": 60,
                    "time": 16.450000000000003,
                    "velocity": 0.2992125984251969,
                    "duration": 0.05000000000000071
                },
                {
                    "name": "D4",
                    "midi": 62,
                    "time": 16.500000000000004,
                    "velocity": 0.30708661417322836,
                    "duration": 0.05000000000000071
                },
                {
                    "name": "C4",
                    "midi": 60,
                    "time": 16.550000000000004,
                    "velocity": 0.31496062992125984,
                    "duration": 0.05000000000000071
                },
                {
                    "name": "D4",
                    "midi": 62,
                    "time": 16.600000000000005,
                    "velocity": 0.31496062992125984,
                    "duration": 0.05000000000000071
                },
                {
                    "name": "C4",
                    "midi": 60,
                    "time": 16.650000000000006,
                    "velocity": 0.3228346456692913,
                    "duration": 0.05000000000000071
                },
                {
                    "name": "B3",
                    "midi": 59,
                    "time": 16.700000000000006,
                    "velocity": 0.33070866141732286,
                    "duration": 0.05000000000000071
                },
                {
                    "name": "C4",
                    "midi": 60,
                    "time": 16.750000000000007,
                    "velocity": 0.33070866141732286,
                    "duration": 0.05000000000000071
                },
                {
                    "name": "C4",
                    "midi": 60,
                    "time": 16.800000000000008,
                    "velocity": 0.28346456692913385,
                    "duration": 0.8000000000000007
                },
                {
                    "name": "A4",
                    "midi": 69,
                    "time": 16.800000000000008,
                    "velocity": 0.3700787401574803,
                    "duration": 0.3999999999999986
                },
                {
                    "name": "G4",
                    "midi": 67,
                    "time": 17.200000000000006,
                    "velocity": 0.3543307086614173,
                    "duration": 0.40000000000000213
                },
                {
                    "name": "F3",
                    "midi": 53,
                    "time": 17.60000000000001,
                    "velocity": 0.3700787401574803,
                    "duration": 0.1999999999999993
                },
                {
                    "name": "C4",
                    "midi": 60,
                    "time": 17.800000000000008,
                    "velocity": 0.3464566929133858,
                    "duration": 0.10000000000000142
                },
                {
                    "name": "F4",
                    "midi": 65,
                    "time": 17.90000000000001,
                    "velocity": 0.31496062992125984,
                    "duration": 0.10000000000000142
                },
                {
                    "name": "A4",
                    "midi": 69,
                    "time": 18.00000000000001,
                    "velocity": 0.36220472440944884,
                    "duration": 0.1999999999999993
                },
                {
                    "name": "C4",
                    "midi": 60,
                    "time": 18.20000000000001,
                    "velocity": 0.25196850393700787,
                    "duration": 0.1999999999999993
                },
                {
                    "name": "G4",
                    "midi": 67,
                    "time": 18.20000000000001,
                    "velocity": 0.3228346456692913,
                    "duration": 0.1999999999999993
                },
                {
                    "name": "F3",
                    "midi": 53,
                    "time": 18.40000000000001,
                    "velocity": 0.3779527559055118,
                    "duration": 0.1999999999999993
                },
                {
                    "name": "C4",
                    "midi": 60,
                    "time": 18.60000000000001,
                    "velocity": 0.33858267716535434,
                    "duration": 0.10000000000000142
                },
                {
                    "name": "F4",
                    "midi": 65,
                    "time": 18.70000000000001,
                    "velocity": 0.3228346456692913,
                    "duration": 0.10000000000000142
                },
                {
                    "name": "A4",
                    "midi": 69,
                    "time": 18.80000000000001,
                    "velocity": 0.3543307086614173,
                    "duration": 0.1999999999999993
                },
                {
                    "name": "C4",
                    "midi": 60,
                    "time": 19.00000000000001,
                    "velocity": 0.25196850393700787,
                    "duration": 0.1999999999999993
                },
                {
                    "name": "G4",
                    "midi": 67,
                    "time": 19.00000000000001,
                    "velocity": 0.33070866141732286,
                    "duration": 0.1999999999999993
                },
                {
                    "name": "F3",
                    "midi": 53,
                    "time": 19.20000000000001,
                    "velocity": 0.3700787401574803,
                    "duration": 0.13333333333333286
                },
                {
                    "name": "C4",
                    "midi": 60,
                    "time": 19.333333333333343,
                    "velocity": 0.3543307086614173,
                    "duration": 0.13333333333333286
                },
                {
                    "name": "F4",
                    "midi": 65,
                    "time": 19.466666666666676,
                    "velocity": 0.30708661417322836,
                    "duration": 0.13333333333333286
                },
                {
                    "name": "A4",
                    "midi": 69,
                    "time": 19.60000000000001,
                    "velocity": 0.3700787401574803,
                    "duration": 0.13333333333333286
                },
                {
                    "name": "D#5",
                    "midi": 75,
                    "time": 19.73333333333334,
                    "velocity": 0.3937007874015748,
                    "duration": 0.13333333333333286
                },
                {
                    "name": "A#3",
                    "midi": 58,
                    "time": 20.800000000000008,
                    "velocity": 0.4330708661417323,
                    "duration": 0.13333333333333286
                },
                {
                    "name": "F4",
                    "midi": 65,
                    "time": 20.93333333333334,
                    "velocity": 0.15748031496062992,
                    "duration": 0.13333333333333286
                },
                {
                    "name": "D5",
                    "midi": 74,
                    "time": 21.066666666666674,
                    "velocity": 0.3543307086614173,
                    "duration": 0.13333333333333286
                },
                {
                    "name": "G3",
                    "midi": 55,
                    "time": 22.400000000000006,
                    "velocity": 0.4251968503937008,
                    "duration": 0.13333333333333286
                },
                {
                    "name": "F4",
                    "midi": 65,
                    "time": 22.53333333333334,
                    "velocity": 0.3700787401574803,
                    "duration": 0.13333333333333286
                },
                {
                    "name": "D5",
                    "midi": 74,
                    "time": 22.66666666666667,
                    "velocity": 0.33858267716535434,
                    "duration": 0.13333333333333286
                },
                {
                    "name": "C4",
                    "midi": 60,
                    "time": 24.000000000000004,
                    "velocity": 0.44881889763779526,
                    "duration": 0.13333333333333286
                },
                {
                    "name": "G4",
                    "midi": 67,
                    "time": 24.133333333333336,
                    "velocity": 0.3700787401574803,
                    "duration": 1.4666666666666686
                },
                {
                    "name": "C5",
                    "midi": 72,
                    "time": 24.26666666666667,
                    "velocity": 0.33858267716535434,
                    "duration": 0.13333333333333286
                },
                {
                    "name": "F5",
                    "midi": 77,
                    "time": 24.400000000000002,
                    "velocity": 0.4094488188976378,
                    "duration": 1.2000000000000028
                },
                {
                    "name": "C4",
                    "midi": 60,
                    "time": 25.500000000000004,
                    "velocity": 0.33070866141732286,
                    "duration": 0.5
                },
                {
                    "name": "G4",
                    "midi": 67,
                    "time": 25.550000000000004,
                    "velocity": 0.3779527559055118,
                    "duration": 0.8499999999999979
                },
                {
                    "name": "A#4",
                    "midi": 70,
                    "time": 25.600000000000005,
                    "velocity": 0.48031496062992124,
                    "duration": 1.5999999999999979
                },
                {
                    "name": "E5",
                    "midi": 76,
                    "time": 26.000000000000004,
                    "velocity": 0.3858267716535433,
                    "duration": 1.1999999999999993
                },
                {
                    "name": "A5",
                    "midi": 81,
                    "time": 26.400000000000002,
                    "velocity": 0.4094488188976378,
                    "duration": 0.1999999999999993
                },
                {
                    "name": "F3",
                    "midi": 53,
                    "time": 27.1,
                    "velocity": 0.2755905511811024,
                    "duration": 0.9000000000000021
                },
                {
                    "name": "C4",
                    "midi": 60,
                    "time": 27.150000000000002,
                    "velocity": 0.31496062992125984,
                    "duration": 0.8500000000000014
                },
                {
                    "name": "A4",
                    "midi": 69,
                    "time": 27.200000000000003,
                    "velocity": 0.3464566929133858,
                    "duration": 0.8000000000000007
                },
                {
                    "name": "C3",
                    "midi": 48,
                    "time": 28.800000000000004,
                    "velocity": 0.2992125984251969,
                    "duration": 0.40000000000000213
                },
                {
                    "name": "B3",
                    "midi": 59,
                    "time": 29.100000000000005,
                    "velocity": 0.2283464566929134,
                    "duration": 0.05000000000000071
                },
                {
                    "name": "C4",
                    "midi": 60,
                    "time": 29.150000000000006,
                    "velocity": 0.2283464566929134,
                    "duration": 0.05000000000000071
                },
                {
                    "name": "D4",
                    "midi": 62,
                    "time": 29.200000000000006,
                    "velocity": 0.2677165354330709,
                    "duration": 0.05000000000000071
                },
                {
                    "name": "C4",
                    "midi": 60,
                    "time": 29.250000000000007,
                    "velocity": 0.2677165354330709,
                    "duration": 0.05000000000000071
                },
                {
                    "name": "D4",
                    "midi": 62,
                    "time": 29.300000000000008,
                    "velocity": 0.2755905511811024,
                    "duration": 0.05000000000000071
                },
                {
                    "name": "C4",
                    "midi": 60,
                    "time": 29.35000000000001,
                    "velocity": 0.28346456692913385,
                    "duration": 0.05000000000000071
                },
                {
                    "name": "D4",
                    "midi": 62,
                    "time": 29.40000000000001,
                    "velocity": 0.28346456692913385,
                    "duration": 0.05000000000000071
                },
                {
                    "name": "C4",
                    "midi": 60,
                    "time": 29.45000000000001,
                    "velocity": 0.28346456692913385,
                    "duration": 0.05000000000000071
                },
                {
                    "name": "B3",
                    "midi": 59,
                    "time": 29.50000000000001,
                    "velocity": 0.29133858267716534,
                    "duration": 0.05000000000000071
                },
                {
                    "name": "C4",
                    "midi": 60,
                    "time": 29.55000000000001,
                    "velocity": 0.29133858267716534,
                    "duration": 0.05000000000000071
                },
                {
                    "name": "C4",
                    "midi": 60,
                    "time": 29.600000000000012,
                    "velocity": 0.25196850393700787,
                    "duration": 0.8000000000000007
                },
                {
                    "name": "A4",
                    "midi": 69,
                    "time": 29.600000000000012,
                    "velocity": 0.33070866141732286,
                    "duration": 0.40000000000000213
                },
                {
                    "name": "G4",
                    "midi": 67,
                    "time": 30.000000000000014,
                    "velocity": 0.31496062992125984,
                    "duration": 0.3999999999999986
                },
                {
                    "name": "F3",
                    "midi": 53,
                    "time": 30.400000000000013,
                    "velocity": 0.33070866141732286,
                    "duration": 0.20000000000000284
                },
                {
                    "name": "C4",
                    "midi": 60,
                    "time": 30.600000000000016,
                    "velocity": 0.31496062992125984,
                    "duration": 0.10000000000000142
                },
                {
                    "name": "F4",
                    "midi": 65,
                    "time": 30.700000000000017,
                    "velocity": 0.2992125984251969,
                    "duration": 0.10000000000000142
                },
                {
                    "name": "A4",
                    "midi": 69,
                    "time": 30.80000000000002,
                    "velocity": 0.33070866141732286,
                    "duration": 0.1999999999999993
                },
                {
                    "name": "C4",
                    "midi": 60,
                    "time": 31.000000000000018,
                    "velocity": 0.2204724409448819,
                    "duration": 0.20000000000000284
                },
                {
                    "name": "G4",
                    "midi": 67,
                    "time": 31.000000000000018,
                    "velocity": 0.28346456692913385,
                    "duration": 0.20000000000000284
                },
                {
                    "name": "F2",
                    "midi": 41,
                    "time": 31.20000000000002,
                    "velocity": 0.33858267716535434,
                    "duration": 0.1999999999999993
                },
                {
                    "name": "C3",
                    "midi": 48,
                    "time": 31.40000000000002,
                    "velocity": 0.31496062992125984,
                    "duration": 0.10000000000000142
                },
                {
                    "name": "F3",
                    "midi": 53,
                    "time": 31.50000000000002,
                    "velocity": 0.28346456692913385,
                    "duration": 0.10000000000000142
                },
                {
                    "name": "A3",
                    "midi": 57,
                    "time": 31.600000000000023,
                    "velocity": 0.31496062992125984,
                    "duration": 0.1999999999999993
                },
                {
                    "name": "C3",
                    "midi": 48,
                    "time": 31.800000000000022,
                    "velocity": 0.2204724409448819,
                    "duration": 0.1999999999999993
                },
                {
                    "name": "G3",
                    "midi": 55,
                    "time": 31.800000000000022,
                    "velocity": 0.29133858267716534,
                    "duration": 0.1999999999999993
                },
                {
                    "name": "F2",
                    "midi": 41,
                    "time": 32.00000000000002,
                    "velocity": 0.33858267716535434,
                    "duration": 0.19999999999999574
                },
                {
                    "name": "C3",
                    "midi": 48,
                    "time": 32.20000000000002,
                    "velocity": 0.30708661417322836,
                    "duration": 0.10000000000000142
                },
                {
                    "name": "F3",
                    "midi": 53,
                    "time": 32.30000000000002,
                    "velocity": 0.28346456692913385,
                    "duration": 0.10000000000000142
                },
                {
                    "name": "A3",
                    "midi": 57,
                    "time": 32.40000000000002,
                    "velocity": 0.31496062992125984,
                    "duration": 0.20000000000000284
                },
                {
                    "name": "C3",
                    "midi": 48,
                    "time": 32.60000000000002,
                    "velocity": 0.2047244094488189,
                    "duration": 0.19999999999999574
                },
                {
                    "name": "G3",
                    "midi": 55,
                    "time": 32.60000000000002,
                    "velocity": 0.2755905511811024,
                    "duration": 0.19999999999999574
                },
                {
                    "name": "F2",
                    "midi": 41,
                    "time": 32.80000000000002,
                    "velocity": 0.31496062992125984,
                    "duration": 0.20000000000000284
                },
                {
                    "name": "C3",
                    "midi": 48,
                    "time": 33.00000000000002,
                    "velocity": 0.2755905511811024,
                    "duration": 0.10000000000000142
                },
                {
                    "name": "F3",
                    "midi": 53,
                    "time": 33.10000000000002,
                    "velocity": 0.25196850393700787,
                    "duration": 0.10000000000000142
                },
                {
                    "name": "A3",
                    "midi": 57,
                    "time": 33.200000000000024,
                    "velocity": 0.29133858267716534,
                    "duration": 0.20000000000000284
                },
                {
                    "name": "C3",
                    "midi": 48,
                    "time": 33.40000000000003,
                    "velocity": 0.1889763779527559,
                    "duration": 0.19999999999999574
                },
                {
                    "name": "G3",
                    "midi": 55,
                    "time": 33.40000000000003,
                    "velocity": 0.25984251968503935,
                    "duration": 0.19999999999999574
                },
                {
                    "name": "F2",
                    "midi": 41,
                    "time": 33.60000000000002,
                    "velocity": 0.29133858267716534,
                    "duration": 0.30000000000000426
                },
                {
                    "name": "C3",
                    "midi": 48,
                    "time": 33.90000000000003,
                    "velocity": 0.2440944881889764,
                    "duration": 0.10000000000000142
                },
                {
                    "name": "F3",
                    "midi": 53,
                    "time": 34.00000000000003,
                    "velocity": 0.2440944881889764,
                    "duration": 0.10000000000000142
                },
                {
                    "name": "A3",
                    "midi": 57,
                    "time": 34.10000000000003,
                    "velocity": 0.2204724409448819,
                    "duration": 0.10000000000000142
                },
                {
                    "name": "C4",
                    "midi": 60,
                    "time": 34.20000000000003,
                    "velocity": 0.2204724409448819,
                    "duration": 0.10000000000000142
                },
                {
                    "name": "F4",
                    "midi": 65,
                    "time": 34.30000000000003,
                    "velocity": 0.2125984251968504,
                    "duration": 0.10000000000000142
                },
                {
                    "name": "A4",
                    "midi": 69,
                    "time": 34.400000000000034,
                    "velocity": 0.2283464566929134,
                    "duration": 0.10000000000000142
                },
                {
                    "name": "D#5",
                    "midi": 75,
                    "time": 34.500000000000036,
                    "velocity": 0.25196850393700787,
                    "duration": 0.10000000000000142
                },
                {
                    "name": "A4",
                    "midi": 69,
                    "time": 34.60000000000004,
                    "velocity": 0.2283464566929134,
                    "duration": 0.10000000000000142
                },
                {
                    "name": "F4",
                    "midi": 65,
                    "time": 34.70000000000004,
                    "velocity": 0.18110236220472442,
                    "duration": 0.10000000000000142
                },
                {
                    "name": "C4",
                    "midi": 60,
                    "time": 34.80000000000004,
                    "velocity": 0.2125984251968504,
                    "duration": 0.10000000000000142
                },
                {
                    "name": "A3",
                    "midi": 57,
                    "time": 34.90000000000004,
                    "velocity": 0.1889763779527559,
                    "duration": 0.10000000000000142
                },
                {
                    "name": "F3",
                    "midi": 53,
                    "time": 35.00000000000004,
                    "velocity": 0.1732283464566929,
                    "duration": 0.10000000000000142
                },
                {
                    "name": "C3",
                    "midi": 48,
                    "time": 35.100000000000044,
                    "velocity": 0.15748031496062992,
                    "duration": 0.10000000000000142
                },
                {
                    "name": "F2",
                    "midi": 41,
                    "time": 35.200000000000045,
                    "velocity": 0.16535433070866143,
                    "duration": 0.3999999999999986
                }
            ],
            "controlChanges": {
                "7": [
                    {
                        "number": 7,
                        "time": 0,
                        "value": 0.7874015748031497
                    }
                ],
                "10": [
                    {
                        "number": 10,
                        "time": 0,
                        "value": 0.5039370078740157
                    }
                ],
                "64": [
                    {
                        "number": 64,
                        "time": 1.4675000000000002,
                        "value": 1
                    },
                    {
                        "number": 64,
                        "time": 3.2058333333333335,
                        "value": 0
                    },
                    {
                        "number": 64,
                        "time": 3.2383333333333337,
                        "value": 1
                    },
                    {
                        "number": 64,
                        "time": 4.009166666666665,
                        "value": 0
                    },
                    {
                        "number": 64,
                        "time": 4.078333333333332,
                        "value": 1
                    },
                    {
                        "number": 64,
                        "time": 4.411666666666665,
                        "value": 0
                    },
                    {
                        "number": 64,
                        "time": 4.457499999999999,
                        "value": 1
                    },
                    {
                        "number": 64,
                        "time": 4.806666666666666,
                        "value": 0
                    },
                    {
                        "number": 64,
                        "time": 4.853333333333333,
                        "value": 1
                    },
                    {
                        "number": 64,
                        "time": 5.412499999999999,
                        "value": 0
                    },
                    {
                        "number": 64,
                        "time": 5.476666666666666,
                        "value": 1
                    },
                    {
                        "number": 64,
                        "time": 5.612499999999999,
                        "value": 0
                    },
                    {
                        "number": 64,
                        "time": 5.682499999999999,
                        "value": 1
                    },
                    {
                        "number": 64,
                        "time": 6.212499999999999,
                        "value": 0
                    },
                    {
                        "number": 64,
                        "time": 6.282499999999999,
                        "value": 1
                    },
                    {
                        "number": 64,
                        "time": 6.407499999999999,
                        "value": 0
                    },
                    {
                        "number": 64,
                        "time": 6.457499999999999,
                        "value": 1
                    },
                    {
                        "number": 64,
                        "time": 7.009166666666664,
                        "value": 0
                    },
                    {
                        "number": 64,
                        "time": 8.038333333333329,
                        "value": 1
                    },
                    {
                        "number": 64,
                        "time": 9.606666666666662,
                        "value": 0
                    },
                    {
                        "number": 64,
                        "time": 9.638333333333328,
                        "value": 1
                    },
                    {
                        "number": 64,
                        "time": 10.411666666666669,
                        "value": 0
                    },
                    {
                        "number": 64,
                        "time": 10.466666666666669,
                        "value": 1
                    },
                    {
                        "number": 64,
                        "time": 10.812500000000002,
                        "value": 0
                    },
                    {
                        "number": 64,
                        "time": 10.857500000000002,
                        "value": 1
                    },
                    {
                        "number": 64,
                        "time": 11.206666666666667,
                        "value": 0
                    },
                    {
                        "number": 64,
                        "time": 11.253333333333334,
                        "value": 1
                    },
                    {
                        "number": 64,
                        "time": 11.808333333333332,
                        "value": 0
                    },
                    {
                        "number": 64,
                        "time": 11.880833333333332,
                        "value": 1
                    },
                    {
                        "number": 64,
                        "time": 12.013333333333332,
                        "value": 0
                    },
                    {
                        "number": 64,
                        "time": 12.066666666666665,
                        "value": 1
                    },
                    {
                        "number": 64,
                        "time": 12.611666666666663,
                        "value": 0
                    },
                    {
                        "number": 64,
                        "time": 12.67583333333333,
                        "value": 1
                    },
                    {
                        "number": 64,
                        "time": 12.809166666666664,
                        "value": 0
                    },
                    {
                        "number": 64,
                        "time": 12.861666666666665,
                        "value": 1
                    },
                    {
                        "number": 64,
                        "time": 14.399999999999999,
                        "value": 0
                    },
                    {
                        "number": 64,
                        "time": 14.470833333333331,
                        "value": 1
                    },
                    {
                        "number": 64,
                        "time": 16.008333333333333,
                        "value": 0
                    },
                    {
                        "number": 64,
                        "time": 16.038333333333334,
                        "value": 1
                    },
                    {
                        "number": 64,
                        "time": 16.811666666666675,
                        "value": 0
                    },
                    {
                        "number": 64,
                        "time": 16.866666666666674,
                        "value": 1
                    },
                    {
                        "number": 64,
                        "time": 17.211666666666673,
                        "value": 0
                    },
                    {
                        "number": 64,
                        "time": 17.257500000000007,
                        "value": 1
                    },
                    {
                        "number": 64,
                        "time": 17.609166666666674,
                        "value": 0
                    },
                    {
                        "number": 64,
                        "time": 17.65333333333334,
                        "value": 1
                    },
                    {
                        "number": 64,
                        "time": 18.213333333333342,
                        "value": 0
                    },
                    {
                        "number": 64,
                        "time": 18.276666666666674,
                        "value": 1
                    },
                    {
                        "number": 64,
                        "time": 18.411666666666676,
                        "value": 0
                    },
                    {
                        "number": 64,
                        "time": 18.51750000000001,
                        "value": 1
                    },
                    {
                        "number": 64,
                        "time": 19.009166666666676,
                        "value": 0
                    },
                    {
                        "number": 64,
                        "time": 19.06500000000001,
                        "value": 1
                    },
                    {
                        "number": 64,
                        "time": 19.20750000000001,
                        "value": 0
                    },
                    {
                        "number": 64,
                        "time": 19.285833333333343,
                        "value": 1
                    },
                    {
                        "number": 64,
                        "time": 20.80833333333334,
                        "value": 0
                    },
                    {
                        "number": 64,
                        "time": 20.88583333333334,
                        "value": 1
                    },
                    {
                        "number": 64,
                        "time": 22.40833333333334,
                        "value": 0
                    },
                    {
                        "number": 64,
                        "time": 22.48583333333334,
                        "value": 1
                    },
                    {
                        "number": 64,
                        "time": 24.010000000000005,
                        "value": 0
                    },
                    {
                        "number": 64,
                        "time": 24.085833333333337,
                        "value": 1
                    },
                    {
                        "number": 64,
                        "time": 25.60916666666667,
                        "value": 0
                    },
                    {
                        "number": 64,
                        "time": 25.68583333333334,
                        "value": 1
                    },
                    {
                        "number": 64,
                        "time": 27.208333333333336,
                        "value": 0
                    },
                    {
                        "number": 64,
                        "time": 27.282500000000002,
                        "value": 1
                    },
                    {
                        "number": 64,
                        "time": 28.805000000000003,
                        "value": 0
                    },
                    {
                        "number": 64,
                        "time": 28.83833333333334,
                        "value": 1
                    },
                    {
                        "number": 64,
                        "time": 29.61250000000001,
                        "value": 0
                    },
                    {
                        "number": 64,
                        "time": 29.645833333333346,
                        "value": 1
                    },
                    {
                        "number": 64,
                        "time": 30.012500000000014,
                        "value": 0
                    },
                    {
                        "number": 64,
                        "time": 30.043333333333347,
                        "value": 1
                    },
                    {
                        "number": 64,
                        "time": 30.40666666666668,
                        "value": 0
                    },
                    {
                        "number": 64,
                        "time": 30.453333333333347,
                        "value": 1
                    },
                    {
                        "number": 64,
                        "time": 31.011666666666684,
                        "value": 0
                    },
                    {
                        "number": 64,
                        "time": 31.076666666666686,
                        "value": 1
                    },
                    {
                        "number": 64,
                        "time": 31.205833333333352,
                        "value": 0
                    },
                    {
                        "number": 64,
                        "time": 31.259166666666687,
                        "value": 1
                    },
                    {
                        "number": 64,
                        "time": 31.81166666666669,
                        "value": 0
                    },
                    {
                        "number": 64,
                        "time": 31.865000000000023,
                        "value": 1
                    },
                    {
                        "number": 64,
                        "time": 32.011666666666684,
                        "value": 0
                    },
                    {
                        "number": 64,
                        "time": 32.059166666666684,
                        "value": 1
                    },
                    {
                        "number": 64,
                        "time": 32.60916666666669,
                        "value": 0
                    },
                    {
                        "number": 64,
                        "time": 32.66500000000002,
                        "value": 1
                    },
                    {
                        "number": 64,
                        "time": 32.81250000000002,
                        "value": 0
                    },
                    {
                        "number": 64,
                        "time": 32.87666666666669,
                        "value": 1
                    },
                    {
                        "number": 64,
                        "time": 33.41166666666669,
                        "value": 0
                    },
                    {
                        "number": 64,
                        "time": 33.465000000000025,
                        "value": 1
                    },
                    {
                        "number": 64,
                        "time": 33.61333333333336,
                        "value": 0
                    },
                    {
                        "number": 64,
                        "time": 33.652500000000025,
                        "value": 1
                    },
                    {
                        "number": 64,
                        "time": 36.622500000000045,
                        "value": 0
                    }
                ]
            },
            "id": 2,
            "name": "Piano left",
            "instrumentNumber": 0,
            "instrument": "acoustic grand piano",
            "instrumentFamily": "piano",
            "channelNumber": 0,
            "isPercussion": false
        },
        {
            "startTime": 0,
            "duration": 0,
            "length": 0,
            "notes": [],
            "controlChanges": {},
            "id": 3,
            "name": "Chopin: Prelude No.23 in F Major Op. 28"
        },
        {
            "startTime": 0,
            "duration": 0,
            "length": 0,
            "notes": [],
            "controlChanges": {},
            "id": 4,
            "name": "Copyright  2002 by Bernd Krueger"
        },
        {
            "startTime": 0,
            "duration": 0,
            "length": 0,
            "notes": [],
            "controlChanges": {},
            "id": 5,
            "name": "http://www.piano-midi.de"
        },
        {
            "startTime": 0,
            "duration": 0,
            "length": 0,
            "notes": [],
            "controlChanges": {},
            "id": 6,
            "name": "Edition: 2014-02-23"
        },
        {
            "startTime": 0,
            "duration": 0,
            "length": 0,
            "notes": [],
            "controlChanges": {},
            "id": 7,
            "name": "Spur 7"
        }
    ]
}