{
    "header": {
        "PPQ": 480,
        "timeSignature": [
            2,
            4
        ],
        "bpm": 116.00008506672904,
        "name": "Schwarze-Tasten-Etüde"
    },
    "startTime": 0,
    "duration": 87.93097000000104,
    "tracks": [
        {
            "startTime": 0,
            "duration": 0,
            "length": 0,
            "notes": [],
            "controlChanges": {},
            "id": 0,
            "name": "Schwarze-Tasten-Etüde"
        },
        {
            "startTime": 0.0010775854166666667,
            "duration": 87.93097000000104,
            "length": 997,
            "notes": [
                {
                    "name": "F#6",
                    "midi": 90,
                    "time": 0.0010775854166666667,
                    "velocity": 0.7795275590551181,
                    "duration": 0.08620683333333334
                },
                {
                    "name": "A#6",
                    "midi": 94,
                    "time": 0.08620683333333334,
                    "velocity": 0.5984251968503937,
                    "duration": 0.08620683333333334
                },
                {
                    "name": "C#6",
                    "midi": 85,
                    "time": 0.1724136666666667,
                    "velocity": 0.5433070866141733,
                    "duration": 0.08620683333333334
                },
                {
                    "name": "F#6",
                    "midi": 90,
                    "time": 0.25862050000000003,
                    "velocity": 0.7322834645669292,
                    "duration": 0.08620683333333334
                },
                {
                    "name": "D#6",
                    "midi": 87,
                    "time": 0.3448273333333334,
                    "velocity": 0.6220472440944882,
                    "duration": 0.08620683333333334
                },
                {
                    "name": "F#6",
                    "midi": 90,
                    "time": 0.4310341666666667,
                    "velocity": 0.5748031496062992,
                    "duration": 0.08620683333333334
                },
                {
                    "name": "C#6",
                    "midi": 85,
                    "time": 0.5172410000000001,
                    "velocity": 0.7244094488188977,
                    "duration": 0.08620683333333334
                },
                {
                    "name": "F#6",
                    "midi": 90,
                    "time": 0.6034478333333334,
                    "velocity": 0.6141732283464567,
                    "duration": 0.08620683333333334
                },
                {
                    "name": "A#5",
                    "midi": 82,
                    "time": 0.6896546666666667,
                    "velocity": 0.5590551181102362,
                    "duration": 0.08620683333333334
                },
                {
                    "name": "C#6",
                    "midi": 85,
                    "time": 0.7758615000000001,
                    "velocity": 0.6614173228346457,
                    "duration": 0.08620683333333334
                },
                {
                    "name": "F#5",
                    "midi": 78,
                    "time": 0.8620683333333334,
                    "velocity": 0.5669291338582677,
                    "duration": 0.08620683333333334
                },
                {
                    "name": "A#5",
                    "midi": 82,
                    "time": 0.9482751666666668,
                    "velocity": 0.5354330708661418,
                    "duration": 0.08620683333333334
                },
                {
                    "name": "F#5",
                    "midi": 78,
                    "time": 1.0344820000000001,
                    "velocity": 0.5826771653543307,
                    "duration": 0.08620683333333323
                },
                {
                    "name": "A#5",
                    "midi": 82,
                    "time": 1.1206888333333334,
                    "velocity": 0.5039370078740157,
                    "duration": 0.08620683333333323
                },
                {
                    "name": "C#5",
                    "midi": 73,
                    "time": 1.2068956666666666,
                    "velocity": 0.4566929133858268,
                    "duration": 0.08620683333333323
                },
                {
                    "name": "F#5",
                    "midi": 78,
                    "time": 1.2931024999999998,
                    "velocity": 0.5590551181102362,
                    "duration": 0.08620683333333323
                },
                {
                    "name": "D#5",
                    "midi": 75,
                    "time": 1.379309333333333,
                    "velocity": 0.49606299212598426,
                    "duration": 0.08620683333333323
                },
                {
                    "name": "F#5",
                    "midi": 78,
                    "time": 1.4655161666666663,
                    "velocity": 0.44881889763779526,
                    "duration": 0.08620683333333323
                },
                {
                    "name": "C#5",
                    "midi": 73,
                    "time": 1.5517229999999995,
                    "velocity": 0.5433070866141733,
                    "duration": 0.08620683333333323
                },
                {
                    "name": "F#5",
                    "midi": 78,
                    "time": 1.6379298333333328,
                    "velocity": 0.4409448818897638,
                    "duration": 0.08620683333333323
                },
                {
                    "name": "A#4",
                    "midi": 70,
                    "time": 1.724136666666666,
                    "velocity": 0.4409448818897638,
                    "duration": 0.08620683333333323
                },
                {
                    "name": "C#5",
                    "midi": 73,
                    "time": 1.8103434999999992,
                    "velocity": 0.5275590551181102,
                    "duration": 0.08620683333333323
                },
                {
                    "name": "F#4",
                    "midi": 66,
                    "time": 1.8965503333333324,
                    "velocity": 0.4330708661417323,
                    "duration": 0.08620683333333323
                },
                {
                    "name": "A#4",
                    "midi": 70,
                    "time": 1.9827571666666657,
                    "velocity": 0.41732283464566927,
                    "duration": 0.08620683333333323
                },
                {
                    "name": "C#4",
                    "midi": 61,
                    "time": 2.068963999999999,
                    "velocity": 0.5826771653543307,
                    "duration": 0.08620683333333323
                },
                {
                    "name": "C#5",
                    "midi": 73,
                    "time": 2.155170833333332,
                    "velocity": 0.5433070866141733,
                    "duration": 0.08620683333333323
                },
                {
                    "name": "G#4",
                    "midi": 68,
                    "time": 2.2413776666666654,
                    "velocity": 0.49606299212598426,
                    "duration": 0.08620683333333323
                },
                {
                    "name": "C#5",
                    "midi": 73,
                    "time": 2.3275844999999986,
                    "velocity": 0.5905511811023622,
                    "duration": 0.08620683333333323
                },
                {
                    "name": "G#4",
                    "midi": 68,
                    "time": 2.413791333333332,
                    "velocity": 0.5275590551181102,
                    "duration": 0.08620683333333323
                },
                {
                    "name": "G#5",
                    "midi": 80,
                    "time": 2.499998166666665,
                    "velocity": 0.48031496062992124,
                    "duration": 0.08620683333333323
                },
                {
                    "name": "G#4",
                    "midi": 68,
                    "time": 2.5862049999999983,
                    "velocity": 0.5905511811023622,
                    "duration": 0.08620683333333323
                },
                {
                    "name": "G#5",
                    "midi": 80,
                    "time": 2.6724118333333315,
                    "velocity": 0.5354330708661418,
                    "duration": 0.08620683333333323
                },
                {
                    "name": "D#5",
                    "midi": 75,
                    "time": 2.7586186666666648,
                    "velocity": 0.48031496062992124,
                    "duration": 0.08620683333333323
                },
                {
                    "name": "G#5",
                    "midi": 80,
                    "time": 2.844825499999998,
                    "velocity": 0.6377952755905512,
                    "duration": 0.08620683333333323
                },
                {
                    "name": "D#5",
                    "midi": 75,
                    "time": 2.9310323333333312,
                    "velocity": 0.5826771653543307,
                    "duration": 0.08620683333333323
                },
                {
                    "name": "D#6",
                    "midi": 87,
                    "time": 3.0172391666666645,
                    "velocity": 0.5511811023622047,
                    "duration": 0.08620683333333323
                },
                {
                    "name": "D#5",
                    "midi": 75,
                    "time": 3.1034459999999977,
                    "velocity": 0.6456692913385826,
                    "duration": 0.08620683333333323
                },
                {
                    "name": "D#6",
                    "midi": 87,
                    "time": 3.189652833333331,
                    "velocity": 0.5748031496062992,
                    "duration": 0.08620683333333323
                },
                {
                    "name": "G#5",
                    "midi": 80,
                    "time": 3.275859666666664,
                    "velocity": 0.5354330708661418,
                    "duration": 0.08620683333333323
                },
                {
                    "name": "D#6",
                    "midi": 87,
                    "time": 3.3620664999999974,
                    "velocity": 0.6771653543307087,
                    "duration": 0.08620683333333323
                },
                {
                    "name": "G#5",
                    "midi": 80,
                    "time": 3.4482733333333306,
                    "velocity": 0.5433070866141733,
                    "duration": 0.08620683333333323
                },
                {
                    "name": "G#6",
                    "midi": 92,
                    "time": 3.534480166666664,
                    "velocity": 0.5275590551181102,
                    "duration": 0.08620683333333323
                },
                {
                    "name": "G#5",
                    "midi": 80,
                    "time": 3.620686999999997,
                    "velocity": 0.7007874015748031,
                    "duration": 0.08620683333333323
                },
                {
                    "name": "G#6",
                    "midi": 92,
                    "time": 3.7068938333333303,
                    "velocity": 0.6062992125984252,
                    "duration": 0.08620683333333323
                },
                {
                    "name": "C#6",
                    "midi": 85,
                    "time": 3.7931006666666636,
                    "velocity": 0.5905511811023622,
                    "duration": 0.08620683333333323
                },
                {
                    "name": "G#6",
                    "midi": 92,
                    "time": 3.879307499999997,
                    "velocity": 0.7244094488188977,
                    "duration": 0.08620683333333323
                },
                {
                    "name": "C#6",
                    "midi": 85,
                    "time": 3.96551433333333,
                    "velocity": 0.6535433070866141,
                    "duration": 0.08620683333333323
                },
                {
                    "name": "C#7",
                    "midi": 97,
                    "time": 4.051721166666663,
                    "velocity": 0.6141732283464567,
                    "duration": 0.08620683333333368
                },
                {
                    "name": "F#6",
                    "midi": 90,
                    "time": 4.137927999999997,
                    "velocity": 0.7559055118110236,
                    "duration": 0.08620683333333368
                },
                {
                    "name": "A#6",
                    "midi": 94,
                    "time": 4.224134833333331,
                    "velocity": 0.6141732283464567,
                    "duration": 0.08620683333333368
                },
                {
                    "name": "C#6",
                    "midi": 85,
                    "time": 4.310341666666664,
                    "velocity": 0.5905511811023622,
                    "duration": 0.08620683333333368
                },
                {
                    "name": "F#6",
                    "midi": 90,
                    "time": 4.396548499999998,
                    "velocity": 0.7480314960629921,
                    "duration": 0.08620683333333368
                },
                {
                    "name": "D#6",
                    "midi": 87,
                    "time": 4.482755333333332,
                    "velocity": 0.6062992125984252,
                    "duration": 0.08620683333333368
                },
                {
                    "name": "F#6",
                    "midi": 90,
                    "time": 4.568962166666665,
                    "velocity": 0.5826771653543307,
                    "duration": 0.08620683333333368
                },
                {
                    "name": "C#6",
                    "midi": 85,
                    "time": 4.655168999999999,
                    "velocity": 0.7480314960629921,
                    "duration": 0.08620683333333368
                },
                {
                    "name": "F#6",
                    "midi": 90,
                    "time": 4.741375833333333,
                    "velocity": 0.5984251968503937,
                    "duration": 0.08620683333333368
                },
                {
                    "name": "A#5",
                    "midi": 82,
                    "time": 4.827582666666666,
                    "velocity": 0.5826771653543307,
                    "duration": 0.08620683333333368
                },
                {
                    "name": "C#6",
                    "midi": 85,
                    "time": 4.9137895,
                    "velocity": 0.6692913385826772,
                    "duration": 0.08620683333333368
                },
                {
                    "name": "F#5",
                    "midi": 78,
                    "time": 4.999996333333334,
                    "velocity": 0.5905511811023622,
                    "duration": 0.08620683333333368
                },
                {
                    "name": "A#5",
                    "midi": 82,
                    "time": 5.086203166666667,
                    "velocity": 0.5511811023622047,
                    "duration": 0.08620683333333368
                },
                {
                    "name": "F#5",
                    "midi": 78,
                    "time": 5.172410000000001,
                    "velocity": 0.5826771653543307,
                    "duration": 0.08620683333333368
                },
                {
                    "name": "A#5",
                    "midi": 82,
                    "time": 5.258616833333335,
                    "velocity": 0.5433070866141733,
                    "duration": 0.08620683333333368
                },
                {
                    "name": "C#5",
                    "midi": 73,
                    "time": 5.344823666666668,
                    "velocity": 0.5118110236220472,
                    "duration": 0.08620683333333368
                },
                {
                    "name": "F#5",
                    "midi": 78,
                    "time": 5.431030500000002,
                    "velocity": 0.5826771653543307,
                    "duration": 0.08620683333333368
                },
                {
                    "name": "D#5",
                    "midi": 75,
                    "time": 5.517237333333336,
                    "velocity": 0.5433070866141733,
                    "duration": 0.08620683333333368
                },
                {
                    "name": "F#5",
                    "midi": 78,
                    "time": 5.6034441666666694,
                    "velocity": 0.5196850393700787,
                    "duration": 0.08620683333333368
                },
                {
                    "name": "C#5",
                    "midi": 73,
                    "time": 5.689651000000003,
                    "velocity": 0.5826771653543307,
                    "duration": 0.08620683333333368
                },
                {
                    "name": "F#5",
                    "midi": 78,
                    "time": 5.775857833333337,
                    "velocity": 0.5275590551181102,
                    "duration": 0.08620683333333368
                },
                {
                    "name": "A#4",
                    "midi": 70,
                    "time": 5.8620646666666705,
                    "velocity": 0.5511811023622047,
                    "duration": 0.08620683333333368
                },
                {
                    "name": "C#5",
                    "midi": 73,
                    "time": 5.948271500000004,
                    "velocity": 0.5826771653543307,
                    "duration": 0.08620683333333368
                },
                {
                    "name": "F#4",
                    "midi": 66,
                    "time": 6.034478333333338,
                    "velocity": 0.5118110236220472,
                    "duration": 0.08620683333333368
                },
                {
                    "name": "A#4",
                    "midi": 70,
                    "time": 6.1206851666666715,
                    "velocity": 0.5354330708661418,
                    "duration": 0.08620683333333368
                },
                {
                    "name": "D#4",
                    "midi": 63,
                    "time": 6.206892000000005,
                    "velocity": 0.6062992125984252,
                    "duration": 0.08620683333333368
                },
                {
                    "name": "D#5",
                    "midi": 75,
                    "time": 6.293098833333339,
                    "velocity": 0.5433070866141733,
                    "duration": 0.08620683333333368
                },
                {
                    "name": "G#4",
                    "midi": 68,
                    "time": 6.3793056666666725,
                    "velocity": 0.5196850393700787,
                    "duration": 0.08620683333333368
                },
                {
                    "name": "D#5",
                    "midi": 75,
                    "time": 6.465512500000006,
                    "velocity": 0.6062992125984252,
                    "duration": 0.08620683333333368
                },
                {
                    "name": "G#4",
                    "midi": 68,
                    "time": 6.55171933333334,
                    "velocity": 0.5275590551181102,
                    "duration": 0.08620683333333368
                },
                {
                    "name": "G#5",
                    "midi": 80,
                    "time": 6.637926166666674,
                    "velocity": 0.5590551181102362,
                    "duration": 0.08620683333333368
                },
                {
                    "name": "D#5",
                    "midi": 75,
                    "time": 6.724133000000007,
                    "velocity": 0.6062992125984252,
                    "duration": 0.08620683333333368
                },
                {
                    "name": "G#5",
                    "midi": 80,
                    "time": 6.810339833333341,
                    "velocity": 0.5826771653543307,
                    "duration": 0.08620683333333368
                },
                {
                    "name": "D#5",
                    "midi": 75,
                    "time": 6.896546666666675,
                    "velocity": 0.5511811023622047,
                    "duration": 0.08620683333333368
                },
                {
                    "name": "D#5",
                    "midi": 75,
                    "time": 6.982753500000008,
                    "velocity": 0.6456692913385826,
                    "duration": 0.08620683333333368
                },
                {
                    "name": "G#5",
                    "midi": 80,
                    "time": 7.068960333333342,
                    "velocity": 0.5748031496062992,
                    "duration": 0.08620683333333368
                },
                {
                    "name": "G#6",
                    "midi": 92,
                    "time": 7.155167166666676,
                    "velocity": 0.5905511811023622,
                    "duration": 0.08620683333333368
                },
                {
                    "name": "A#5",
                    "midi": 82,
                    "time": 7.241374000000009,
                    "velocity": 0.6929133858267716,
                    "duration": 0.08620683333333368
                },
                {
                    "name": "A#6",
                    "midi": 94,
                    "time": 7.327580833333343,
                    "velocity": 0.6141732283464567,
                    "duration": 0.08620683333333368
                },
                {
                    "name": "A#5",
                    "midi": 82,
                    "time": 7.413787666666677,
                    "velocity": 0.5511811023622047,
                    "duration": 0.08620683333333368
                },
                {
                    "name": "A#6",
                    "midi": 94,
                    "time": 7.49999450000001,
                    "velocity": 0.6377952755905512,
                    "duration": 0.08620683333333368
                },
                {
                    "name": "A#5",
                    "midi": 82,
                    "time": 7.586201333333344,
                    "velocity": 0.5905511811023622,
                    "duration": 0.08620683333333368
                },
                {
                    "name": "A#6",
                    "midi": 94,
                    "time": 7.672408166666678,
                    "velocity": 0.5511811023622047,
                    "duration": 0.08620683333333368
                },
                {
                    "name": "A#5",
                    "midi": 82,
                    "time": 7.758615000000011,
                    "velocity": 0.5354330708661418,
                    "duration": 0.08620683333333368
                },
                {
                    "name": "A#6",
                    "midi": 94,
                    "time": 7.844821833333345,
                    "velocity": 0.4881889763779528,
                    "duration": 0.08620683333333368
                },
                {
                    "name": "A#5",
                    "midi": 82,
                    "time": 7.931028666666679,
                    "velocity": 0.41732283464566927,
                    "duration": 0.08620683333333368
                },
                {
                    "name": "A#6",
                    "midi": 94,
                    "time": 8.017235500000012,
                    "velocity": 0.4645669291338583,
                    "duration": 0.08620683333333368
                },
                {
                    "name": "A#5",
                    "midi": 82,
                    "time": 8.103442333333346,
                    "velocity": 0.41732283464566927,
                    "duration": 0.08620683333333368
                },
                {
                    "name": "A#6",
                    "midi": 94,
                    "time": 8.18964916666668,
                    "velocity": 0.3543307086614173,
                    "duration": 0.08620683333333368
                },
                {
                    "name": "F#6",
                    "midi": 90,
                    "time": 8.27693358541668,
                    "velocity": 0.7559055118110236,
                    "duration": 0.08620683333333368
                },
                {
                    "name": "A#6",
                    "midi": 94,
                    "time": 8.362062833333347,
                    "velocity": 0.5748031496062992,
                    "duration": 0.08620683333333368
                },
                {
                    "name": "C#6",
                    "midi": 85,
                    "time": 8.44826966666668,
                    "velocity": 0.5275590551181102,
                    "duration": 0.08620683333333368
                },
                {
                    "name": "F#6",
                    "midi": 90,
                    "time": 8.534476500000014,
                    "velocity": 0.7086614173228346,
                    "duration": 0.08620683333333368
                },
                {
                    "name": "D#6",
                    "midi": 87,
                    "time": 8.620683333333348,
                    "velocity": 0.5275590551181102,
                    "duration": 0.08620683333333368
                },
                {
                    "name": "F#6",
                    "midi": 90,
                    "time": 8.706890166666682,
                    "velocity": 0.4645669291338583,
                    "duration": 0.08620683333333368
                },
                {
                    "name": "C#6",
                    "midi": 85,
                    "time": 8.793097000000015,
                    "velocity": 0.7322834645669292,
                    "duration": 0.08620683333333368
                },
                {
                    "name": "F#6",
                    "midi": 90,
                    "time": 8.87930383333335,
                    "velocity": 0.5354330708661418,
                    "duration": 0.08620683333333368
                },
                {
                    "name": "A#5",
                    "midi": 82,
                    "time": 8.965510666666683,
                    "velocity": 0.5196850393700787,
                    "duration": 0.08620683333333368
                },
                {
                    "name": "C#6",
                    "midi": 85,
                    "time": 9.051717500000017,
                    "velocity": 0.6614173228346457,
                    "duration": 0.08620683333333368
                },
                {
                    "name": "F#5",
                    "midi": 78,
                    "time": 9.13792433333335,
                    "velocity": 0.5196850393700787,
                    "duration": 0.08620683333333368
                },
                {
                    "name": "A#5",
                    "midi": 82,
                    "time": 9.224131166666684,
                    "velocity": 0.49606299212598426,
                    "duration": 0.08620683333333368
                },
                {
                    "name": "F#5",
                    "midi": 78,
                    "time": 9.310338000000018,
                    "velocity": 0.5826771653543307,
                    "duration": 0.08620683333333368
                },
                {
                    "name": "A#5",
                    "midi": 82,
                    "time": 9.396544833333351,
                    "velocity": 0.5196850393700787,
                    "duration": 0.08620683333333368
                },
                {
                    "name": "C#5",
                    "midi": 73,
                    "time": 9.482751666666685,
                    "velocity": 0.49606299212598426,
                    "duration": 0.08620683333333368
                },
                {
                    "name": "F#5",
                    "midi": 78,
                    "time": 9.568958500000019,
                    "velocity": 0.5354330708661418,
                    "duration": 0.08620683333333368
                },
                {
                    "name": "D#5",
                    "midi": 75,
                    "time": 9.655165333333352,
                    "velocity": 0.5118110236220472,
                    "duration": 0.08620683333333368
                },
                {
                    "name": "F#5",
                    "midi": 78,
                    "time": 9.741372166666686,
                    "velocity": 0.4881889763779528,
                    "duration": 0.08620683333333368
                },
                {
                    "name": "C#5",
                    "midi": 73,
                    "time": 9.82757900000002,
                    "velocity": 0.5826771653543307,
                    "duration": 0.08620683333333368
                },
                {
                    "name": "F#5",
                    "midi": 78,
                    "time": 9.913785833333353,
                    "velocity": 0.5118110236220472,
                    "duration": 0.08620683333333368
                },
                {
                    "name": "A#4",
                    "midi": 70,
                    "time": 9.999992666666687,
                    "velocity": 0.48031496062992124,
                    "duration": 0.08620683333333368
                },
                {
                    "name": "C#5",
                    "midi": 73,
                    "time": 10.08619950000002,
                    "velocity": 0.5826771653543307,
                    "duration": 0.08620683333333368
                },
                {
                    "name": "F#4",
                    "midi": 66,
                    "time": 10.172406333333354,
                    "velocity": 0.5275590551181102,
                    "duration": 0.08620683333333368
                },
                {
                    "name": "A#4",
                    "midi": 70,
                    "time": 10.258613166666688,
                    "velocity": 0.5118110236220472,
                    "duration": 0.08620683333333368
                },
                {
                    "name": "C#4",
                    "midi": 61,
                    "time": 10.344820000000022,
                    "velocity": 0.5826771653543307,
                    "duration": 0.08620683333333368
                },
                {
                    "name": "C#5",
                    "midi": 73,
                    "time": 10.431026833333355,
                    "velocity": 0.5590551181102362,
                    "duration": 0.08620683333333368
                },
                {
                    "name": "G#4",
                    "midi": 68,
                    "time": 10.517233666666689,
                    "velocity": 0.5275590551181102,
                    "duration": 0.08620683333333368
                },
                {
                    "name": "C#5",
                    "midi": 73,
                    "time": 10.603440500000023,
                    "velocity": 0.5905511811023622,
                    "duration": 0.08620683333333368
                },
                {
                    "name": "G#4",
                    "midi": 68,
                    "time": 10.689647333333356,
                    "velocity": 0.5511811023622047,
                    "duration": 0.08620683333333368
                },
                {
                    "name": "G#5",
                    "midi": 80,
                    "time": 10.77585416666669,
                    "velocity": 0.5118110236220472,
                    "duration": 0.08620683333333368
                },
                {
                    "name": "G#4",
                    "midi": 68,
                    "time": 10.862061000000024,
                    "velocity": 0.5669291338582677,
                    "duration": 0.08620683333333368
                },
                {
                    "name": "G#5",
                    "midi": 80,
                    "time": 10.948267833333357,
                    "velocity": 0.5511811023622047,
                    "duration": 0.08620683333333368
                },
                {
                    "name": "D#5",
                    "midi": 75,
                    "time": 11.034474666666691,
                    "velocity": 0.5275590551181102,
                    "duration": 0.08620683333333368
                },
                {
                    "name": "G#5",
                    "midi": 80,
                    "time": 11.120681500000025,
                    "velocity": 0.6141732283464567,
                    "duration": 0.08620683333333368
                },
                {
                    "name": "D#5",
                    "midi": 75,
                    "time": 11.206888333333358,
                    "velocity": 0.5826771653543307,
                    "duration": 0.08620683333333368
                },
                {
                    "name": "D#6",
                    "midi": 87,
                    "time": 11.293095166666692,
                    "velocity": 0.5669291338582677,
                    "duration": 0.08620683333333368
                },
                {
                    "name": "D#5",
                    "midi": 75,
                    "time": 11.379302000000026,
                    "velocity": 0.6456692913385826,
                    "duration": 0.08620683333333368
                },
                {
                    "name": "D#6",
                    "midi": 87,
                    "time": 11.46550883333336,
                    "velocity": 0.6141732283464567,
                    "duration": 0.08620683333333368
                },
                {
                    "name": "G#5",
                    "midi": 80,
                    "time": 11.551715666666693,
                    "velocity": 0.6141732283464567,
                    "duration": 0.08620683333333368
                },
                {
                    "name": "D#6",
                    "midi": 87,
                    "time": 11.637922500000027,
                    "velocity": 0.6299212598425197,
                    "duration": 0.08620683333333368
                },
                {
                    "name": "G#5",
                    "midi": 80,
                    "time": 11.72412933333336,
                    "velocity": 0.6062992125984252,
                    "duration": 0.08620683333333368
                },
                {
                    "name": "G#6",
                    "midi": 92,
                    "time": 11.810336166666694,
                    "velocity": 0.5748031496062992,
                    "duration": 0.08620683333333368
                },
                {
                    "name": "G#5",
                    "midi": 80,
                    "time": 11.896543000000028,
                    "velocity": 0.6929133858267716,
                    "duration": 0.08620683333333368
                },
                {
                    "name": "G#6",
                    "midi": 92,
                    "time": 11.982749833333362,
                    "velocity": 0.6377952755905512,
                    "duration": 0.08620683333333368
                },
                {
                    "name": "C#6",
                    "midi": 85,
                    "time": 12.068956666666695,
                    "velocity": 0.5748031496062992,
                    "duration": 0.08620683333333368
                },
                {
                    "name": "G#6",
                    "midi": 92,
                    "time": 12.155163500000029,
                    "velocity": 0.7244094488188977,
                    "duration": 0.08620683333333368
                },
                {
                    "name": "C#6",
                    "midi": 85,
                    "time": 12.241370333333363,
                    "velocity": 0.6535433070866141,
                    "duration": 0.08620683333333368
                },
                {
                    "name": "C#7",
                    "midi": 97,
                    "time": 12.327577166666696,
                    "velocity": 0.6535433070866141,
                    "duration": 0.08620683333333368
                },
                {
                    "name": "F#6",
                    "midi": 90,
                    "time": 12.41378400000003,
                    "velocity": 0.7716535433070866,
                    "duration": 0.08620683333333368
                },
                {
                    "name": "A#6",
                    "midi": 94,
                    "time": 12.499990833333364,
                    "velocity": 0.5826771653543307,
                    "duration": 0.08620683333333368
                },
                {
                    "name": "C#6",
                    "midi": 85,
                    "time": 12.586197666666697,
                    "velocity": 0.5511811023622047,
                    "duration": 0.08620683333333368
                },
                {
                    "name": "F#6",
                    "midi": 90,
                    "time": 12.672404500000031,
                    "velocity": 0.7322834645669292,
                    "duration": 0.08620683333333368
                },
                {
                    "name": "D#6",
                    "midi": 87,
                    "time": 12.758611333333365,
                    "velocity": 0.5669291338582677,
                    "duration": 0.08620683333333368
                },
                {
                    "name": "F#6",
                    "midi": 90,
                    "time": 12.844818166666698,
                    "velocity": 0.5748031496062992,
                    "duration": 0.08620683333333368
                },
                {
                    "name": "C#6",
                    "midi": 85,
                    "time": 12.931025000000032,
                    "velocity": 0.7559055118110236,
                    "duration": 0.08620683333333368
                },
                {
                    "name": "F#6",
                    "midi": 90,
                    "time": 13.017231833333366,
                    "velocity": 0.5905511811023622,
                    "duration": 0.08620683333333368
                },
                {
                    "name": "A#5",
                    "midi": 82,
                    "time": 13.1034386666667,
                    "velocity": 0.5354330708661418,
                    "duration": 0.08620683333333368
                },
                {
                    "name": "C#6",
                    "midi": 85,
                    "time": 13.189645500000033,
                    "velocity": 0.6614173228346457,
                    "duration": 0.08620683333333368
                },
                {
                    "name": "F#5",
                    "midi": 78,
                    "time": 13.275852333333367,
                    "velocity": 0.5433070866141733,
                    "duration": 0.08620683333333368
                },
                {
                    "name": "A#5",
                    "midi": 82,
                    "time": 13.3620591666667,
                    "velocity": 0.5039370078740157,
                    "duration": 0.08620683333333368
                },
                {
                    "name": "F#5",
                    "midi": 78,
                    "time": 13.448266000000034,
                    "velocity": 0.5826771653543307,
                    "duration": 0.08620683333333368
                },
                {
                    "name": "A#5",
                    "midi": 82,
                    "time": 13.534472833333368,
                    "velocity": 0.5354330708661418,
                    "duration": 0.08620683333333368
                },
                {
                    "name": "C#5",
                    "midi": 73,
                    "time": 13.620679666666701,
                    "velocity": 0.4881889763779528,
                    "duration": 0.08620683333333368
                },
                {
                    "name": "F#5",
                    "midi": 78,
                    "time": 13.706886500000035,
                    "velocity": 0.5590551181102362,
                    "duration": 0.08620683333333368
                },
                {
                    "name": "D#5",
                    "midi": 75,
                    "time": 13.793093333333369,
                    "velocity": 0.5118110236220472,
                    "duration": 0.08620683333333368
                },
                {
                    "name": "F#5",
                    "midi": 78,
                    "time": 13.879300166666702,
                    "velocity": 0.5275590551181102,
                    "duration": 0.08620683333333368
                },
                {
                    "name": "C#5",
                    "midi": 73,
                    "time": 13.965507000000036,
                    "velocity": 0.5826771653543307,
                    "duration": 0.08620683333333368
                },
                {
                    "name": "F#5",
                    "midi": 78,
                    "time": 14.05171383333337,
                    "velocity": 0.5118110236220472,
                    "duration": 0.08620683333333368
                },
                {
                    "name": "A#4",
                    "midi": 70,
                    "time": 14.137920666666703,
                    "velocity": 0.4645669291338583,
                    "duration": 0.08620683333333368
                },
                {
                    "name": "C#5",
                    "midi": 73,
                    "time": 14.224127500000037,
                    "velocity": 0.5826771653543307,
                    "duration": 0.08620683333333368
                },
                {
                    "name": "F#4",
                    "midi": 66,
                    "time": 14.31033433333337,
                    "velocity": 0.5118110236220472,
                    "duration": 0.08620683333333368
                },
                {
                    "name": "A#4",
                    "midi": 70,
                    "time": 14.396541166666704,
                    "velocity": 0.4645669291338583,
                    "duration": 0.08620683333333368
                },
                {
                    "name": "D#4",
                    "midi": 63,
                    "time": 14.482748000000038,
                    "velocity": 0.6062992125984252,
                    "duration": 0.08620683333333368
                },
                {
                    "name": "D#5",
                    "midi": 75,
                    "time": 14.568954833333372,
                    "velocity": 0.5826771653543307,
                    "duration": 0.08620683333333368
                },
                {
                    "name": "G#4",
                    "midi": 68,
                    "time": 14.655161666666706,
                    "velocity": 0.5275590551181102,
                    "duration": 0.08620683333333368
                },
                {
                    "name": "D#5",
                    "midi": 75,
                    "time": 14.74136850000004,
                    "velocity": 0.6062992125984252,
                    "duration": 0.08620683333333368
                },
                {
                    "name": "G#4",
                    "midi": 68,
                    "time": 14.827575333333373,
                    "velocity": 0.5275590551181102,
                    "duration": 0.08620683333333368
                },
                {
                    "name": "G#5",
                    "midi": 80,
                    "time": 14.913782166666707,
                    "velocity": 0.5511811023622047,
                    "duration": 0.08620683333333368
                },
                {
                    "name": "D#5",
                    "midi": 75,
                    "time": 14.99998900000004,
                    "velocity": 0.5905511811023622,
                    "duration": 0.08620683333333368
                },
                {
                    "name": "G#5",
                    "midi": 80,
                    "time": 15.086195833333374,
                    "velocity": 0.5590551181102362,
                    "duration": 0.08620683333333368
                },
                {
                    "name": "D#5",
                    "midi": 75,
                    "time": 15.172402666666708,
                    "velocity": 0.5275590551181102,
                    "duration": 0.08620683333333368
                },
                {
                    "name": "D#6",
                    "midi": 87,
                    "time": 15.258609500000041,
                    "velocity": 0.6456692913385826,
                    "duration": 0.08620683333333368
                },
                {
                    "name": "G#5",
                    "midi": 80,
                    "time": 15.344816333333375,
                    "velocity": 0.6220472440944882,
                    "duration": 0.08620683333333368
                },
                {
                    "name": "G#6",
                    "midi": 92,
                    "time": 15.431023166666709,
                    "velocity": 0.5826771653543307,
                    "duration": 0.08620683333333368
                },
                {
                    "name": "D#5",
                    "midi": 75,
                    "time": 15.517230000000042,
                    "velocity": 0.6692913385826772,
                    "duration": 0.08620683333333368
                },
                {
                    "name": "D#6",
                    "midi": 87,
                    "time": 15.603436833333376,
                    "velocity": 0.5826771653543307,
                    "duration": 0.08620683333333368
                },
                {
                    "name": "G#5",
                    "midi": 80,
                    "time": 15.68964366666671,
                    "velocity": 0.5590551181102362,
                    "duration": 0.08620683333333368
                },
                {
                    "name": "D#6",
                    "midi": 87,
                    "time": 15.775850500000043,
                    "velocity": 0.6929133858267716,
                    "duration": 0.08620683333333368
                },
                {
                    "name": "C#5",
                    "midi": 73,
                    "time": 15.862057333333377,
                    "velocity": 0.5984251968503937,
                    "duration": 0.08620683333333368
                },
                {
                    "name": "C#6",
                    "midi": 85,
                    "time": 15.94826416666671,
                    "velocity": 0.5669291338582677,
                    "duration": 0.0862068333333319
                },
                {
                    "name": "G#5",
                    "midi": 80,
                    "time": 16.034471000000043,
                    "velocity": 0.6377952755905512,
                    "duration": 0.0862068333333319
                },
                {
                    "name": "C#6",
                    "midi": 85,
                    "time": 16.120677833333374,
                    "velocity": 0.5748031496062992,
                    "duration": 0.0862068333333319
                },
                {
                    "name": "G#5",
                    "midi": 80,
                    "time": 16.206884666666706,
                    "velocity": 0.5275590551181102,
                    "duration": 0.0862068333333319
                },
                {
                    "name": "G#6",
                    "midi": 92,
                    "time": 16.29309150000004,
                    "velocity": 0.5511811023622047,
                    "duration": 0.0862068333333319
                },
                {
                    "name": "C#6",
                    "midi": 85,
                    "time": 16.37929833333337,
                    "velocity": 0.5196850393700787,
                    "duration": 0.0862068333333319
                },
                {
                    "name": "C#7",
                    "midi": 97,
                    "time": 16.465505166666702,
                    "velocity": 0.5039370078740157,
                    "duration": 0.0862068333333319
                },
                {
                    "name": "G#6",
                    "midi": 92,
                    "time": 16.551712000000034,
                    "velocity": 0.5669291338582677,
                    "duration": 0.0862068333333319
                },
                {
                    "name": "A#6",
                    "midi": 94,
                    "time": 16.637918833333366,
                    "velocity": 0.5275590551181102,
                    "duration": 0.0862068333333319
                },
                {
                    "name": "G#6",
                    "midi": 92,
                    "time": 16.724125666666698,
                    "velocity": 0.48031496062992124,
                    "duration": 0.0862068333333319
                },
                {
                    "name": "D#6",
                    "midi": 87,
                    "time": 16.81033250000003,
                    "velocity": 0.5669291338582677,
                    "duration": 0.0862068333333319
                },
                {
                    "name": "D#7",
                    "midi": 99,
                    "time": 16.89653933333336,
                    "velocity": 0.5275590551181102,
                    "duration": 0.0862068333333319
                },
                {
                    "name": "D#6",
                    "midi": 87,
                    "time": 16.982746166666693,
                    "velocity": 0.4566929133858268,
                    "duration": 0.0862068333333319
                },
                {
                    "name": "C#6",
                    "midi": 85,
                    "time": 17.068953000000025,
                    "velocity": 0.6141732283464567,
                    "duration": 0.0862068333333319
                },
                {
                    "name": "D#6",
                    "midi": 87,
                    "time": 17.155159833333357,
                    "velocity": 0.5826771653543307,
                    "duration": 0.0862068333333319
                },
                {
                    "name": "C#6",
                    "midi": 85,
                    "time": 17.24136666666669,
                    "velocity": 0.5354330708661418,
                    "duration": 0.0862068333333319
                },
                {
                    "name": "G#5",
                    "midi": 80,
                    "time": 17.32757350000002,
                    "velocity": 0.5905511811023622,
                    "duration": 0.0862068333333319
                },
                {
                    "name": "G#6",
                    "midi": 92,
                    "time": 17.413780333333353,
                    "velocity": 0.5590551181102362,
                    "duration": 0.0862068333333319
                },
                {
                    "name": "G#5",
                    "midi": 80,
                    "time": 17.499987166666685,
                    "velocity": 0.5196850393700787,
                    "duration": 0.0862068333333319
                },
                {
                    "name": "G#5",
                    "midi": 80,
                    "time": 17.586194000000017,
                    "velocity": 0.5669291338582677,
                    "duration": 0.0862068333333319
                },
                {
                    "name": "A#5",
                    "midi": 82,
                    "time": 17.67240083333335,
                    "velocity": 0.5275590551181102,
                    "duration": 0.0862068333333319
                },
                {
                    "name": "G#5",
                    "midi": 80,
                    "time": 17.75860766666668,
                    "velocity": 0.5118110236220472,
                    "duration": 0.0862068333333319
                },
                {
                    "name": "D#5",
                    "midi": 75,
                    "time": 17.844814500000012,
                    "velocity": 0.5669291338582677,
                    "duration": 0.0862068333333319
                },
                {
                    "name": "D#6",
                    "midi": 87,
                    "time": 17.931021333333344,
                    "velocity": 0.5275590551181102,
                    "duration": 0.0862068333333319
                },
                {
                    "name": "D#5",
                    "midi": 75,
                    "time": 18.017228166666676,
                    "velocity": 0.5275590551181102,
                    "duration": 0.0862068333333319
                },
                {
                    "name": "C#5",
                    "midi": 73,
                    "time": 18.103435000000008,
                    "velocity": 0.5905511811023622,
                    "duration": 0.0862068333333319
                },
                {
                    "name": "D#5",
                    "midi": 75,
                    "time": 18.18964183333334,
                    "velocity": 0.5354330708661418,
                    "duration": 0.0862068333333319
                },
                {
                    "name": "C#5",
                    "midi": 73,
                    "time": 18.275848666666672,
                    "velocity": 0.5275590551181102,
                    "duration": 0.0862068333333319
                },
                {
                    "name": "G#4",
                    "midi": 68,
                    "time": 18.362055500000004,
                    "velocity": 0.5669291338582677,
                    "duration": 0.3448273333333347
                },
                {
                    "name": "D#5",
                    "midi": 75,
                    "time": 18.70688283333334,
                    "velocity": 0.5511811023622047,
                    "duration": 0.0862068333333319
                },
                {
                    "name": "G#5",
                    "midi": 80,
                    "time": 18.79308966666667,
                    "velocity": 0.5275590551181102,
                    "duration": 0.0862068333333319
                },
                {
                    "name": "A#5",
                    "midi": 82,
                    "time": 18.879296500000002,
                    "velocity": 0.5826771653543307,
                    "duration": 0.0862068333333319
                },
                {
                    "name": "G#5",
                    "midi": 80,
                    "time": 18.965503333333334,
                    "velocity": 0.5511811023622047,
                    "duration": 0.0862068333333319
                },
                {
                    "name": "D#5",
                    "midi": 75,
                    "time": 19.051710166666666,
                    "velocity": 0.5275590551181102,
                    "duration": 0.0862068333333319
                },
                {
                    "name": "C#5",
                    "midi": 73,
                    "time": 19.137916999999998,
                    "velocity": 0.5590551181102362,
                    "duration": 0.0862068333333319
                },
                {
                    "name": "G#5",
                    "midi": 80,
                    "time": 19.22412383333333,
                    "velocity": 0.5748031496062992,
                    "duration": 0.0862068333333319
                },
                {
                    "name": "C#6",
                    "midi": 85,
                    "time": 19.310330666666662,
                    "velocity": 0.5669291338582677,
                    "duration": 0.0862068333333319
                },
                {
                    "name": "D#6",
                    "midi": 87,
                    "time": 19.396537499999994,
                    "velocity": 0.5826771653543307,
                    "duration": 0.0862068333333319
                },
                {
                    "name": "C#6",
                    "midi": 85,
                    "time": 19.482744333333326,
                    "velocity": 0.5433070866141733,
                    "duration": 0.0862068333333319
                },
                {
                    "name": "A#5",
                    "midi": 82,
                    "time": 19.568951166666658,
                    "velocity": 0.5275590551181102,
                    "duration": 0.0862068333333319
                },
                {
                    "name": "G#5",
                    "midi": 80,
                    "time": 19.65515799999999,
                    "velocity": 0.5669291338582677,
                    "duration": 0.0862068333333319
                },
                {
                    "name": "D#6",
                    "midi": 87,
                    "time": 19.74136483333332,
                    "velocity": 0.5433070866141733,
                    "duration": 0.0862068333333319
                },
                {
                    "name": "G#6",
                    "midi": 92,
                    "time": 19.827571666666653,
                    "velocity": 0.5275590551181102,
                    "duration": 0.0862068333333319
                },
                {
                    "name": "A#6",
                    "midi": 94,
                    "time": 19.913778499999985,
                    "velocity": 0.5669291338582677,
                    "duration": 0.0862068333333319
                },
                {
                    "name": "G#6",
                    "midi": 92,
                    "time": 19.999985333333317,
                    "velocity": 0.5039370078740157,
                    "duration": 0.0862068333333319
                },
                {
                    "name": "D#6",
                    "midi": 87,
                    "time": 20.08619216666665,
                    "velocity": 0.4645669291338583,
                    "duration": 0.0862068333333319
                },
                {
                    "name": "C#6",
                    "midi": 85,
                    "time": 20.17239899999998,
                    "velocity": 0.6062992125984252,
                    "duration": 0.0862068333333319
                },
                {
                    "name": "G#6",
                    "midi": 92,
                    "time": 20.258605833333313,
                    "velocity": 0.5748031496062992,
                    "duration": 0.0862068333333319
                },
                {
                    "name": "C#7",
                    "midi": 97,
                    "time": 20.344812666666645,
                    "velocity": 0.5354330708661418,
                    "duration": 0.0862068333333319
                },
                {
                    "name": "D#7",
                    "midi": 99,
                    "time": 20.431019499999977,
                    "velocity": 0.5669291338582677,
                    "duration": 0.0862068333333319
                },
                {
                    "name": "C#7",
                    "midi": 97,
                    "time": 20.51722633333331,
                    "velocity": 0.5354330708661418,
                    "duration": 0.0862068333333319
                },
                {
                    "name": "A#6",
                    "midi": 94,
                    "time": 20.60343316666664,
                    "velocity": 0.5354330708661418,
                    "duration": 0.0862068333333319
                },
                {
                    "name": "G#6",
                    "midi": 92,
                    "time": 20.689639999999972,
                    "velocity": 0.5669291338582677,
                    "duration": 0.0862068333333319
                },
                {
                    "name": "A#6",
                    "midi": 94,
                    "time": 20.775846833333304,
                    "velocity": 0.5433070866141733,
                    "duration": 0.0862068333333319
                },
                {
                    "name": "G#6",
                    "midi": 92,
                    "time": 20.862053666666636,
                    "velocity": 0.49606299212598426,
                    "duration": 0.0862068333333319
                },
                {
                    "name": "D#6",
                    "midi": 87,
                    "time": 20.948260499999968,
                    "velocity": 0.5669291338582677,
                    "duration": 0.0862068333333319
                },
                {
                    "name": "D#7",
                    "midi": 99,
                    "time": 21.0344673333333,
                    "velocity": 0.5275590551181102,
                    "duration": 0.0862068333333319
                },
                {
                    "name": "D#6",
                    "midi": 87,
                    "time": 21.120674166666632,
                    "velocity": 0.5669291338582677,
                    "duration": 0.0862068333333319
                },
                {
                    "name": "C#6",
                    "midi": 85,
                    "time": 21.206880999999964,
                    "velocity": 0.6377952755905512,
                    "duration": 0.0862068333333319
                },
                {
                    "name": "D#6",
                    "midi": 87,
                    "time": 21.293087833333296,
                    "velocity": 0.5748031496062992,
                    "duration": 0.0862068333333319
                },
                {
                    "name": "C#6",
                    "midi": 85,
                    "time": 21.379294666666627,
                    "velocity": 0.5275590551181102,
                    "duration": 0.0862068333333319
                },
                {
                    "name": "G#5",
                    "midi": 80,
                    "time": 21.46550149999996,
                    "velocity": 0.6062992125984252,
                    "duration": 0.0862068333333319
                },
                {
                    "name": "G#6",
                    "midi": 92,
                    "time": 21.55170833333329,
                    "velocity": 0.5905511811023622,
                    "duration": 0.0862068333333319
                },
                {
                    "name": "G#5",
                    "midi": 80,
                    "time": 21.637915166666623,
                    "velocity": 0.5275590551181102,
                    "duration": 0.0862068333333319
                },
                {
                    "name": "G#5",
                    "midi": 80,
                    "time": 21.724121999999955,
                    "velocity": 0.6220472440944882,
                    "duration": 0.0862068333333319
                },
                {
                    "name": "A#5",
                    "midi": 82,
                    "time": 21.810328833333287,
                    "velocity": 0.5511811023622047,
                    "duration": 0.0862068333333319
                },
                {
                    "name": "G#5",
                    "midi": 80,
                    "time": 21.89653566666662,
                    "velocity": 0.5118110236220472,
                    "duration": 0.0862068333333319
                },
                {
                    "name": "D#5",
                    "midi": 75,
                    "time": 21.98274249999995,
                    "velocity": 0.5748031496062992,
                    "duration": 0.0862068333333319
                },
                {
                    "name": "D#6",
                    "midi": 87,
                    "time": 22.068949333333283,
                    "velocity": 0.5354330708661418,
                    "duration": 0.0862068333333319
                },
                {
                    "name": "D#5",
                    "midi": 75,
                    "time": 22.155156166666615,
                    "velocity": 0.5118110236220472,
                    "duration": 0.0862068333333319
                },
                {
                    "name": "C#5",
                    "midi": 73,
                    "time": 22.241362999999946,
                    "velocity": 0.5905511811023622,
                    "duration": 0.0862068333333319
                },
                {
                    "name": "D#5",
                    "midi": 75,
                    "time": 22.32756983333328,
                    "velocity": 0.5433070866141733,
                    "duration": 0.0862068333333319
                },
                {
                    "name": "C#5",
                    "midi": 73,
                    "time": 22.41377666666661,
                    "velocity": 0.49606299212598426,
                    "duration": 0.0862068333333319
                },
                {
                    "name": "G#4",
                    "midi": 68,
                    "time": 22.499983499999942,
                    "velocity": 0.5905511811023622,
                    "duration": 0.3448273333333347
                },
                {
                    "name": "G#5",
                    "midi": 80,
                    "time": 22.844810833333277,
                    "velocity": 0.5275590551181102,
                    "duration": 0.0862068333333319
                },
                {
                    "name": "F#5",
                    "midi": 78,
                    "time": 22.93101766666661,
                    "velocity": 0.5039370078740157,
                    "duration": 0.0862068333333319
                },
                {
                    "name": "G#5",
                    "midi": 80,
                    "time": 23.01722449999994,
                    "velocity": 0.5905511811023622,
                    "duration": 0.0862068333333319
                },
                {
                    "name": "F#5",
                    "midi": 78,
                    "time": 23.103431333333273,
                    "velocity": 0.5354330708661418,
                    "duration": 0.0862068333333319
                },
                {
                    "name": "G#5",
                    "midi": 80,
                    "time": 23.189638166666604,
                    "velocity": 0.5118110236220472,
                    "duration": 0.0862068333333319
                },
                {
                    "name": "F#6",
                    "midi": 90,
                    "time": 23.275844999999936,
                    "velocity": 0.6456692913385826,
                    "duration": 0.0862068333333319
                },
                {
                    "name": "G#5",
                    "midi": 80,
                    "time": 23.36205183333327,
                    "velocity": 0.5590551181102362,
                    "duration": 0.0862068333333319
                },
                {
                    "name": "F#5",
                    "midi": 78,
                    "time": 23.4482586666666,
                    "velocity": 0.5118110236220472,
                    "duration": 0.0862068333333319
                },
                {
                    "name": "G#5",
                    "midi": 80,
                    "time": 23.534465499999932,
                    "velocity": 0.5826771653543307,
                    "duration": 0.0862068333333319
                },
                {
                    "name": "F#5",
                    "midi": 78,
                    "time": 23.620672333333264,
                    "velocity": 0.5275590551181102,
                    "duration": 0.0862068333333319
                },
                {
                    "name": "G#5",
                    "midi": 80,
                    "time": 23.706879166666596,
                    "velocity": 0.5039370078740157,
                    "duration": 0.0862068333333319
                },
                {
                    "name": "G#4",
                    "midi": 68,
                    "time": 23.793085999999928,
                    "velocity": 0.5039370078740157,
                    "duration": 0.0862068333333319
                },
                {
                    "name": "G#5",
                    "midi": 80,
                    "time": 23.87929283333326,
                    "velocity": 0.5354330708661418,
                    "duration": 0.0862068333333319
                },
                {
                    "name": "F#5",
                    "midi": 78,
                    "time": 23.96549966666659,
                    "velocity": 0.49606299212598426,
                    "duration": 0.0862068333333319
                },
                {
                    "name": "G#5",
                    "midi": 80,
                    "time": 24.051706499999923,
                    "velocity": 0.5590551181102362,
                    "duration": 0.0862068333333319
                },
                {
                    "name": "F#5",
                    "midi": 78,
                    "time": 24.137913333333255,
                    "velocity": 0.5118110236220472,
                    "duration": 0.0862068333333319
                },
                {
                    "name": "G#5",
                    "midi": 80,
                    "time": 24.224120166666587,
                    "velocity": 0.4881889763779528,
                    "duration": 0.0862068333333319
                },
                {
                    "name": "F#6",
                    "midi": 90,
                    "time": 24.31032699999992,
                    "velocity": 0.6377952755905512,
                    "duration": 0.0862068333333319
                },
                {
                    "name": "G#5",
                    "midi": 80,
                    "time": 24.39653383333325,
                    "velocity": 0.5275590551181102,
                    "duration": 0.0862068333333319
                },
                {
                    "name": "F#5",
                    "midi": 78,
                    "time": 24.482740666666583,
                    "velocity": 0.49606299212598426,
                    "duration": 0.0862068333333319
                },
                {
                    "name": "G#5",
                    "midi": 80,
                    "time": 24.568947499999915,
                    "velocity": 0.5433070866141733,
                    "duration": 0.0862068333333319
                },
                {
                    "name": "F#5",
                    "midi": 78,
                    "time": 24.655154333333247,
                    "velocity": 0.5275590551181102,
                    "duration": 0.0862068333333319
                },
                {
                    "name": "G#5",
                    "midi": 80,
                    "time": 24.74136116666658,
                    "velocity": 0.5039370078740157,
                    "duration": 0.0862068333333319
                },
                {
                    "name": "A#4",
                    "midi": 70,
                    "time": 24.82756799999991,
                    "velocity": 0.5511811023622047,
                    "duration": 0.0862068333333319
                },
                {
                    "name": "A#5",
                    "midi": 82,
                    "time": 24.913774833333242,
                    "velocity": 0.5826771653543307,
                    "duration": 0.0862068333333319
                },
                {
                    "name": "F#5",
                    "midi": 78,
                    "time": 24.999981666666574,
                    "velocity": 0.5196850393700787,
                    "duration": 0.0862068333333319
                },
                {
                    "name": "A#5",
                    "midi": 82,
                    "time": 25.086188499999906,
                    "velocity": 0.5826771653543307,
                    "duration": 0.0862068333333319
                },
                {
                    "name": "F#5",
                    "midi": 78,
                    "time": 25.172395333333238,
                    "velocity": 0.5511811023622047,
                    "duration": 0.0862068333333319
                },
                {
                    "name": "A#5",
                    "midi": 82,
                    "time": 25.25860216666657,
                    "velocity": 0.5196850393700787,
                    "duration": 0.0862068333333319
                },
                {
                    "name": "F#6",
                    "midi": 90,
                    "time": 25.344808999999902,
                    "velocity": 0.6535433070866141,
                    "duration": 0.0862068333333319
                },
                {
                    "name": "A#5",
                    "midi": 82,
                    "time": 25.431015833333234,
                    "velocity": 0.5590551181102362,
                    "duration": 0.0862068333333319
                },
                {
                    "name": "F#5",
                    "midi": 78,
                    "time": 25.517222666666566,
                    "velocity": 0.5354330708661418,
                    "duration": 0.0862068333333319
                },
                {
                    "name": "A#5",
                    "midi": 82,
                    "time": 25.603429499999898,
                    "velocity": 0.6062992125984252,
                    "duration": 0.0862068333333319
                },
                {
                    "name": "F#5",
                    "midi": 78,
                    "time": 25.68963633333323,
                    "velocity": 0.5669291338582677,
                    "duration": 0.0862068333333319
                },
                {
                    "name": "A#5",
                    "midi": 82,
                    "time": 25.77584316666656,
                    "velocity": 0.5275590551181102,
                    "duration": 0.0862068333333319
                },
                {
                    "name": "A#4",
                    "midi": 70,
                    "time": 25.862049999999893,
                    "velocity": 0.5748031496062992,
                    "duration": 0.0862068333333319
                },
                {
                    "name": "A#5",
                    "midi": 82,
                    "time": 25.948256833333225,
                    "velocity": 0.5905511811023622,
                    "duration": 0.0862068333333319
                },
                {
                    "name": "F#5",
                    "midi": 78,
                    "time": 26.034463666666557,
                    "velocity": 0.5669291338582677,
                    "duration": 0.0862068333333319
                },
                {
                    "name": "A#5",
                    "midi": 82,
                    "time": 26.12067049999989,
                    "velocity": 0.6141732283464567,
                    "duration": 0.0862068333333319
                },
                {
                    "name": "F#5",
                    "midi": 78,
                    "time": 26.20687733333322,
                    "velocity": 0.5669291338582677,
                    "duration": 0.0862068333333319
                },
                {
                    "name": "A#5",
                    "midi": 82,
                    "time": 26.293084166666553,
                    "velocity": 0.5275590551181102,
                    "duration": 0.0862068333333319
                },
                {
                    "name": "F#6",
                    "midi": 90,
                    "time": 26.379290999999885,
                    "velocity": 0.6692913385826772,
                    "duration": 0.0862068333333319
                },
                {
                    "name": "A#5",
                    "midi": 82,
                    "time": 26.465497833333217,
                    "velocity": 0.5826771653543307,
                    "duration": 0.0862068333333319
                },
                {
                    "name": "F#5",
                    "midi": 78,
                    "time": 26.55170466666655,
                    "velocity": 0.5590551181102362,
                    "duration": 0.0862068333333319
                },
                {
                    "name": "A#5",
                    "midi": 82,
                    "time": 26.63791149999988,
                    "velocity": 0.6299212598425197,
                    "duration": 0.0862068333333319
                },
                {
                    "name": "F#5",
                    "midi": 78,
                    "time": 26.724118333333212,
                    "velocity": 0.6062992125984252,
                    "duration": 0.0862068333333319
                },
                {
                    "name": "A#5",
                    "midi": 82,
                    "time": 26.810325166666544,
                    "velocity": 0.5826771653543307,
                    "duration": 0.0862068333333319
                },
                {
                    "name": "F#5",
                    "midi": 78,
                    "time": 26.896531999999876,
                    "velocity": 0.6299212598425197,
                    "duration": 0.0862068333333319
                },
                {
                    "name": "A#5",
                    "midi": 82,
                    "time": 26.982738833333208,
                    "velocity": 0.6062992125984252,
                    "duration": 0.0862068333333319
                },
                {
                    "name": "F#5",
                    "midi": 78,
                    "time": 27.06894566666654,
                    "velocity": 0.6141732283464567,
                    "duration": 0.0862068333333319
                },
                {
                    "name": "A#6",
                    "midi": 94,
                    "time": 27.155152499999872,
                    "velocity": 0.6850393700787402,
                    "duration": 0.0862068333333319
                },
                {
                    "name": "A#5",
                    "midi": 82,
                    "time": 27.241359333333204,
                    "velocity": 0.5984251968503937,
                    "duration": 0.0862068333333319
                },
                {
                    "name": "F#5",
                    "midi": 78,
                    "time": 27.327566166666536,
                    "velocity": 0.5511811023622047,
                    "duration": 0.0862068333333319
                },
                {
                    "name": "G#6",
                    "midi": 92,
                    "time": 27.413772999999868,
                    "velocity": 0.7007874015748031,
                    "duration": 0.0862068333333319
                },
                {
                    "name": "A#5",
                    "midi": 82,
                    "time": 27.4999798333332,
                    "velocity": 0.5511811023622047,
                    "duration": 0.0862068333333319
                },
                {
                    "name": "F#5",
                    "midi": 78,
                    "time": 27.58618666666653,
                    "velocity": 0.5748031496062992,
                    "duration": 0.0862068333333319
                },
                {
                    "name": "F#6",
                    "midi": 90,
                    "time": 27.672393499999863,
                    "velocity": 0.7007874015748031,
                    "duration": 0.0862068333333319
                },
                {
                    "name": "A#5",
                    "midi": 82,
                    "time": 27.758600333333195,
                    "velocity": 0.6141732283464567,
                    "duration": 0.0862068333333319
                },
                {
                    "name": "F#5",
                    "midi": 78,
                    "time": 27.844807166666527,
                    "velocity": 0.5748031496062992,
                    "duration": 0.0862068333333319
                },
                {
                    "name": "C#6",
                    "midi": 85,
                    "time": 27.93101399999986,
                    "velocity": 0.6299212598425197,
                    "duration": 0.0862068333333319
                },
                {
                    "name": "A#5",
                    "midi": 82,
                    "time": 28.01722083333319,
                    "velocity": 0.5748031496062992,
                    "duration": 0.0862068333333319
                },
                {
                    "name": "F#5",
                    "midi": 78,
                    "time": 28.103427666666523,
                    "velocity": 0.5984251968503937,
                    "duration": 0.0862068333333319
                },
                {
                    "name": "A#6",
                    "midi": 94,
                    "time": 28.189634499999855,
                    "velocity": 0.7086614173228346,
                    "duration": 0.0862068333333319
                },
                {
                    "name": "A#5",
                    "midi": 82,
                    "time": 28.275841333333187,
                    "velocity": 0.5984251968503937,
                    "duration": 0.0862068333333319
                },
                {
                    "name": "F#5",
                    "midi": 78,
                    "time": 28.36204816666652,
                    "velocity": 0.6220472440944882,
                    "duration": 0.0862068333333319
                },
                {
                    "name": "G#6",
                    "midi": 92,
                    "time": 28.44825499999985,
                    "velocity": 0.7401574803149606,
                    "duration": 0.0862068333333319
                },
                {
                    "name": "A#5",
                    "midi": 82,
                    "time": 28.534461833333182,
                    "velocity": 0.6062992125984252,
                    "duration": 0.0862068333333319
                },
                {
                    "name": "F#5",
                    "midi": 78,
                    "time": 28.620668666666514,
                    "velocity": 0.5984251968503937,
                    "duration": 0.0862068333333319
                },
                {
                    "name": "F#6",
                    "midi": 90,
                    "time": 28.706875499999846,
                    "velocity": 0.7480314960629921,
                    "duration": 0.0862068333333319
                },
                {
                    "name": "A#5",
                    "midi": 82,
                    "time": 28.793082333333178,
                    "velocity": 0.5984251968503937,
                    "duration": 0.0862068333333319
                },
                {
                    "name": "F#5",
                    "midi": 78,
                    "time": 28.87928916666651,
                    "velocity": 0.6220472440944882,
                    "duration": 0.0862068333333319
                },
                {
                    "name": "C#5",
                    "midi": 73,
                    "time": 28.965495999999842,
                    "velocity": 0.6850393700787402,
                    "duration": 0.0862068333333319
                },
                {
                    "name": "C#6",
                    "midi": 85,
                    "time": 29.051702833333174,
                    "velocity": 0.6141732283464567,
                    "duration": 0.0862068333333319
                },
                {
                    "name": "A#5",
                    "midi": 82,
                    "time": 29.137909666666506,
                    "velocity": 0.5905511811023622,
                    "duration": 0.0862068333333319
                },
                {
                    "name": "C#6",
                    "midi": 85,
                    "time": 29.224116499999838,
                    "velocity": 0.6929133858267716,
                    "duration": 0.0862068333333319
                },
                {
                    "name": "C#6",
                    "midi": 85,
                    "time": 29.31032333333317,
                    "velocity": 0.5905511811023622,
                    "duration": 0.0862068333333319
                },
                {
                    "name": "C#7",
                    "midi": 97,
                    "time": 29.3965301666665,
                    "velocity": 0.6299212598425197,
                    "duration": 0.0862068333333319
                },
                {
                    "name": "A#6",
                    "midi": 94,
                    "time": 29.482736999999833,
                    "velocity": 0.7401574803149606,
                    "duration": 0.0862068333333319
                },
                {
                    "name": "C#7",
                    "midi": 97,
                    "time": 29.568943833333165,
                    "velocity": 0.6062992125984252,
                    "duration": 0.0862068333333319
                },
                {
                    "name": "C#6",
                    "midi": 85,
                    "time": 29.655150666666497,
                    "velocity": 0.5984251968503937,
                    "duration": 0.0862068333333319
                },
                {
                    "name": "C#6",
                    "midi": 85,
                    "time": 29.74135749999983,
                    "velocity": 0.7007874015748031,
                    "duration": 0.0862068333333319
                },
                {
                    "name": "A#5",
                    "midi": 82,
                    "time": 29.82756433333316,
                    "velocity": 0.6062992125984252,
                    "duration": 0.0862068333333319
                },
                {
                    "name": "C#6",
                    "midi": 85,
                    "time": 29.913771166666493,
                    "velocity": 0.6456692913385826,
                    "duration": 0.0862068333333319
                },
                {
                    "name": "C#5",
                    "midi": 73,
                    "time": 29.999977999999825,
                    "velocity": 0.7007874015748031,
                    "duration": 0.0862068333333319
                },
                {
                    "name": "C#6",
                    "midi": 85,
                    "time": 30.086184833333157,
                    "velocity": 0.6692913385826772,
                    "duration": 0.0862068333333319
                },
                {
                    "name": "A#5",
                    "midi": 82,
                    "time": 30.17239166666649,
                    "velocity": 0.6377952755905512,
                    "duration": 0.0862068333333319
                },
                {
                    "name": "C#6",
                    "midi": 85,
                    "time": 30.25859849999982,
                    "velocity": 0.7086614173228346,
                    "duration": 0.0862068333333319
                },
                {
                    "name": "C#6",
                    "midi": 85,
                    "time": 30.344805333333152,
                    "velocity": 0.6692913385826772,
                    "duration": 0.0862068333333319
                },
                {
                    "name": "C#7",
                    "midi": 97,
                    "time": 30.431012166666484,
                    "velocity": 0.6692913385826772,
                    "duration": 0.0862068333333319
                },
                {
                    "name": "A#6",
                    "midi": 94,
                    "time": 30.517218999999816,
                    "velocity": 0.7952755905511811,
                    "duration": 0.0862068333333319
                },
                {
                    "name": "C#7",
                    "midi": 97,
                    "time": 30.603425833333148,
                    "velocity": 0.6771653543307087,
                    "duration": 0.0862068333333319
                },
                {
                    "name": "C#6",
                    "midi": 85,
                    "time": 30.68963266666648,
                    "velocity": 0.6614173228346457,
                    "duration": 0.0862068333333319
                },
                {
                    "name": "C#6",
                    "midi": 85,
                    "time": 30.77583949999981,
                    "velocity": 0.7322834645669292,
                    "duration": 0.0862068333333319
                },
                {
                    "name": "A#5",
                    "midi": 82,
                    "time": 30.862046333333144,
                    "velocity": 0.6692913385826772,
                    "duration": 0.0862068333333319
                },
                {
                    "name": "C#6",
                    "midi": 85,
                    "time": 30.948253166666476,
                    "velocity": 0.6299212598425197,
                    "duration": 0.0862068333333319
                },
                {
                    "name": "C#5",
                    "midi": 73,
                    "time": 31.034459999999807,
                    "velocity": 0.7401574803149606,
                    "duration": 0.0862068333333319
                },
                {
                    "name": "C#6",
                    "midi": 85,
                    "time": 31.12066683333314,
                    "velocity": 0.6692913385826772,
                    "duration": 0.0862068333333319
                },
                {
                    "name": "A#5",
                    "midi": 82,
                    "time": 31.20687366666647,
                    "velocity": 0.6377952755905512,
                    "duration": 0.0862068333333319
                },
                {
                    "name": "C#6",
                    "midi": 85,
                    "time": 31.293080499999803,
                    "velocity": 0.7401574803149606,
                    "duration": 0.0862068333333319
                },
                {
                    "name": "C#6",
                    "midi": 85,
                    "time": 31.379287333333135,
                    "velocity": 0.6614173228346457,
                    "duration": 0.0862068333333319
                },
                {
                    "name": "C#7",
                    "midi": 97,
                    "time": 31.465494166666467,
                    "velocity": 0.6299212598425197,
                    "duration": 0.0862068333333319
                },
                {
                    "name": "G#6",
                    "midi": 92,
                    "time": 31.5517009999998,
                    "velocity": 0.7480314960629921,
                    "duration": 0.0862068333333319
                },
                {
                    "name": "C#7",
                    "midi": 97,
                    "time": 31.63790783333313,
                    "velocity": 0.6692913385826772,
                    "duration": 0.0862068333333319
                },
                {
                    "name": "C#6",
                    "midi": 85,
                    "time": 31.724114666666463,
                    "velocity": 0.6535433070866141,
                    "duration": 0.0862068333333319
                },
                {
                    "name": "C#6",
                    "midi": 85,
                    "time": 31.810321499999795,
                    "velocity": 0.7480314960629921,
                    "duration": 0.0862068333333319
                },
                {
                    "name": "G#5",
                    "midi": 80,
                    "time": 31.896528333333126,
                    "velocity": 0.7086614173228346,
                    "duration": 0.0862068333333319
                },
                {
                    "name": "C#6",
                    "midi": 85,
                    "time": 31.98273516666646,
                    "velocity": 0.6771653543307087,
                    "duration": 0.08620683333333545
                },
                {
                    "name": "C#5",
                    "midi": 73,
                    "time": 32.068941999999794,
                    "velocity": 0.7637795275590551,
                    "duration": 0.08620683333333545
                },
                {
                    "name": "C#6",
                    "midi": 85,
                    "time": 32.15514883333313,
                    "velocity": 0.7086614173228346,
                    "duration": 0.08620683333333545
                },
                {
                    "name": "F#5",
                    "midi": 78,
                    "time": 32.241355666666465,
                    "velocity": 0.6692913385826772,
                    "duration": 0.08620683333333545
                },
                {
                    "name": "C#6",
                    "midi": 85,
                    "time": 32.3275624999998,
                    "velocity": 0.7322834645669292,
                    "duration": 0.08620683333333545
                },
                {
                    "name": "C#5",
                    "midi": 73,
                    "time": 32.413769333333136,
                    "velocity": 0.6850393700787402,
                    "duration": 0.08620683333333545
                },
                {
                    "name": "C#5",
                    "midi": 73,
                    "time": 32.49997616666647,
                    "velocity": 0.6614173228346457,
                    "duration": 0.08620683333333545
                },
                {
                    "name": "F#4",
                    "midi": 66,
                    "time": 32.58618299999981,
                    "velocity": 0.7480314960629921,
                    "duration": 0.08620683333333545
                },
                {
                    "name": "C#5",
                    "midi": 73,
                    "time": 32.67238983333314,
                    "velocity": 0.7086614173228346,
                    "duration": 0.08620683333333545
                },
                {
                    "name": "C#4",
                    "midi": 61,
                    "time": 32.75859666666648,
                    "velocity": 0.6692913385826772,
                    "duration": 0.08620683333333545
                },
                {
                    "name": "C#4",
                    "midi": 61,
                    "time": 32.84480349999981,
                    "velocity": 0.7874015748031497,
                    "duration": 0.08620683333333545
                },
                {
                    "name": "F#3",
                    "midi": 54,
                    "time": 32.93101033333315,
                    "velocity": 0.7007874015748031,
                    "duration": 0.08620683333333545
                },
                {
                    "name": "C#4",
                    "midi": 61,
                    "time": 33.017217166666484,
                    "velocity": 0.6692913385826772,
                    "duration": 0.08620683333333545
                },
                {
                    "name": "D#3",
                    "midi": 51,
                    "time": 33.10342399999982,
                    "velocity": 0.5826771653543307,
                    "duration": 0.08620683333333545
                },
                {
                    "name": "F#3",
                    "midi": 54,
                    "time": 33.189630833333155,
                    "velocity": 0.5590551181102362,
                    "duration": 0.08620683333333545
                },
                {
                    "name": "C#4",
                    "midi": 61,
                    "time": 33.27583766666649,
                    "velocity": 0.5669291338582677,
                    "duration": 0.08620683333333545
                },
                {
                    "name": "D#4",
                    "midi": 63,
                    "time": 33.362044499999826,
                    "velocity": 0.6062992125984252,
                    "duration": 0.08620683333333545
                },
                {
                    "name": "F#3",
                    "midi": 54,
                    "time": 33.44825133333316,
                    "velocity": 0.5511811023622047,
                    "duration": 0.08620683333333545
                },
                {
                    "name": "C#4",
                    "midi": 61,
                    "time": 33.5344581666665,
                    "velocity": 0.5669291338582677,
                    "duration": 0.08620683333333545
                },
                {
                    "name": "D#4",
                    "midi": 63,
                    "time": 33.62066499999983,
                    "velocity": 0.6377952755905512,
                    "duration": 0.08620683333333545
                },
                {
                    "name": "F#4",
                    "midi": 66,
                    "time": 33.70687183333317,
                    "velocity": 0.6141732283464567,
                    "duration": 0.08620683333333545
                },
                {
                    "name": "C#4",
                    "midi": 61,
                    "time": 33.7930786666665,
                    "velocity": 0.5905511811023622,
                    "duration": 0.08620683333333545
                },
                {
                    "name": "D#4",
                    "midi": 63,
                    "time": 33.87928549999984,
                    "velocity": 0.6535433070866141,
                    "duration": 0.08620683333333545
                },
                {
                    "name": "F#4",
                    "midi": 66,
                    "time": 33.965492333333174,
                    "velocity": 0.6062992125984252,
                    "duration": 0.08620683333333545
                },
                {
                    "name": "C#5",
                    "midi": 73,
                    "time": 34.05169916666651,
                    "velocity": 0.5748031496062992,
                    "duration": 0.08620683333333545
                },
                {
                    "name": "D#4",
                    "midi": 63,
                    "time": 34.137905999999845,
                    "velocity": 0.6850393700787402,
                    "duration": 0.08620683333333545
                },
                {
                    "name": "F#4",
                    "midi": 66,
                    "time": 34.22411283333318,
                    "velocity": 0.6299212598425197,
                    "duration": 0.08620683333333545
                },
                {
                    "name": "C#5",
                    "midi": 73,
                    "time": 34.310319666666516,
                    "velocity": 0.6062992125984252,
                    "duration": 0.08620683333333545
                },
                {
                    "name": "D#5",
                    "midi": 75,
                    "time": 34.39652649999985,
                    "velocity": 0.7007874015748031,
                    "duration": 0.08620683333333545
                },
                {
                    "name": "F#4",
                    "midi": 66,
                    "time": 34.48273333333319,
                    "velocity": 0.6141732283464567,
                    "duration": 0.08620683333333545
                },
                {
                    "name": "C#5",
                    "midi": 73,
                    "time": 34.56894016666652,
                    "velocity": 0.5905511811023622,
                    "duration": 0.08620683333333545
                },
                {
                    "name": "D#5",
                    "midi": 75,
                    "time": 34.65514699999986,
                    "velocity": 0.7007874015748031,
                    "duration": 0.08620683333333545
                },
                {
                    "name": "F#5",
                    "midi": 78,
                    "time": 34.74135383333319,
                    "velocity": 0.6141732283464567,
                    "duration": 0.08620683333333545
                },
                {
                    "name": "C#5",
                    "midi": 73,
                    "time": 34.82756066666653,
                    "velocity": 0.5984251968503937,
                    "duration": 0.08620683333333545
                },
                {
                    "name": "D#5",
                    "midi": 75,
                    "time": 34.913767499999864,
                    "velocity": 0.7007874015748031,
                    "duration": 0.08620683333333545
                },
                {
                    "name": "C#6",
                    "midi": 85,
                    "time": 34.9999743333332,
                    "velocity": 0.6141732283464567,
                    "duration": 0.08620683333333545
                },
                {
                    "name": "F#5",
                    "midi": 78,
                    "time": 35.086181166666535,
                    "velocity": 0.5905511811023622,
                    "duration": 0.08620683333333545
                },
                {
                    "name": "D#5",
                    "midi": 75,
                    "time": 35.17238799999987,
                    "velocity": 0.7007874015748031,
                    "duration": 0.08620683333333545
                },
                {
                    "name": "F#5",
                    "midi": 78,
                    "time": 35.258594833333206,
                    "velocity": 0.6377952755905512,
                    "duration": 0.08620683333333545
                },
                {
                    "name": "D#6",
                    "midi": 87,
                    "time": 35.34480166666654,
                    "velocity": 0.6771653543307087,
                    "duration": 0.08620683333333545
                },
                {
                    "name": "C#6",
                    "midi": 85,
                    "time": 35.43100849999988,
                    "velocity": 0.6692913385826772,
                    "duration": 0.08620683333333545
                },
                {
                    "name": "F#5",
                    "midi": 78,
                    "time": 35.51721533333321,
                    "velocity": 0.6141732283464567,
                    "duration": 0.08620683333333545
                },
                {
                    "name": "D#5",
                    "midi": 75,
                    "time": 35.60342216666655,
                    "velocity": 0.6614173228346457,
                    "duration": 0.08620683333333545
                },
                {
                    "name": "C#6",
                    "midi": 85,
                    "time": 35.68962899999988,
                    "velocity": 0.6377952755905512,
                    "duration": 0.08620683333333545
                },
                {
                    "name": "F#5",
                    "midi": 78,
                    "time": 35.77583583333322,
                    "velocity": 0.5984251968503937,
                    "duration": 0.08620683333333545
                },
                {
                    "name": "D#5",
                    "midi": 75,
                    "time": 35.862042666666554,
                    "velocity": 0.5590551181102362,
                    "duration": 0.08620683333333545
                },
                {
                    "name": "C#5",
                    "midi": 73,
                    "time": 35.94824949999989,
                    "velocity": 0.6141732283464567,
                    "duration": 0.08620683333333545
                },
                {
                    "name": "F#5",
                    "midi": 78,
                    "time": 36.034456333333225,
                    "velocity": 0.5590551181102362,
                    "duration": 0.08620683333333545
                },
                {
                    "name": "D#5",
                    "midi": 75,
                    "time": 36.12066316666656,
                    "velocity": 0.5905511811023622,
                    "duration": 0.08620683333333545
                },
                {
                    "name": "C#5",
                    "midi": 73,
                    "time": 36.206869999999896,
                    "velocity": 0.5826771653543307,
                    "duration": 0.08620683333333545
                },
                {
                    "name": "F#4",
                    "midi": 66,
                    "time": 36.29307683333323,
                    "velocity": 0.5433070866141733,
                    "duration": 0.08620683333333545
                },
                {
                    "name": "D#5",
                    "midi": 75,
                    "time": 36.379283666666566,
                    "velocity": 0.5669291338582677,
                    "duration": 0.08620683333333545
                },
                {
                    "name": "C#5",
                    "midi": 73,
                    "time": 36.4654904999999,
                    "velocity": 0.5590551181102362,
                    "duration": 0.08620683333333545
                },
                {
                    "name": "F#4",
                    "midi": 66,
                    "time": 36.55169733333324,
                    "velocity": 0.5196850393700787,
                    "duration": 0.08620683333333545
                },
                {
                    "name": "D#4",
                    "midi": 63,
                    "time": 36.63790416666657,
                    "velocity": 0.5433070866141733,
                    "duration": 0.08620683333333545
                },
                {
                    "name": "C#5",
                    "midi": 73,
                    "time": 36.72411099999991,
                    "velocity": 0.5275590551181102,
                    "duration": 0.08620683333333545
                },
                {
                    "name": "F#4",
                    "midi": 66,
                    "time": 36.810317833333244,
                    "velocity": 0.48031496062992124,
                    "duration": 0.08620683333333545
                },
                {
                    "name": "D#4",
                    "midi": 63,
                    "time": 36.89652466666658,
                    "velocity": 0.5118110236220472,
                    "duration": 0.08620683333333545
                },
                {
                    "name": "C#4",
                    "midi": 61,
                    "time": 36.982731499999915,
                    "velocity": 0.5039370078740157,
                    "duration": 0.08620683333333545
                },
                {
                    "name": "F#4",
                    "midi": 66,
                    "time": 37.06893833333325,
                    "velocity": 0.4645669291338583,
                    "duration": 0.08620683333333545
                },
                {
                    "name": "D#4",
                    "midi": 63,
                    "time": 37.155145166666586,
                    "velocity": 0.4881889763779528,
                    "duration": 0.08620683333333545
                },
                {
                    "name": "G#3",
                    "midi": 56,
                    "time": 37.24135199999992,
                    "velocity": 0.4094488188976378,
                    "duration": 0.08620683333333545
                },
                {
                    "name": "D#4",
                    "midi": 63,
                    "time": 37.327558833333256,
                    "velocity": 0.4251968503937008,
                    "duration": 0.08620683333333545
                },
                {
                    "name": "F#4",
                    "midi": 66,
                    "time": 37.41376566666659,
                    "velocity": 0.4251968503937008,
                    "duration": 0.08620683333333545
                },
                {
                    "name": "G#4",
                    "midi": 68,
                    "time": 37.49997249999993,
                    "velocity": 0.4409448818897638,
                    "duration": 0.08620683333333545
                },
                {
                    "name": "D#4",
                    "midi": 63,
                    "time": 37.58617933333326,
                    "velocity": 0.4409448818897638,
                    "duration": 0.08620683333333545
                },
                {
                    "name": "F#4",
                    "midi": 66,
                    "time": 37.6723861666666,
                    "velocity": 0.4251968503937008,
                    "duration": 0.08620683333333545
                },
                {
                    "name": "G#4",
                    "midi": 68,
                    "time": 37.758592999999934,
                    "velocity": 0.4566929133858268,
                    "duration": 0.08620683333333545
                },
                {
                    "name": "D#5",
                    "midi": 75,
                    "time": 37.84479983333327,
                    "velocity": 0.4566929133858268,
                    "duration": 0.08620683333333545
                },
                {
                    "name": "F#4",
                    "midi": 66,
                    "time": 37.931006666666605,
                    "velocity": 0.4409448818897638,
                    "duration": 0.08620683333333545
                },
                {
                    "name": "G#4",
                    "midi": 68,
                    "time": 38.01721349999994,
                    "velocity": 0.47244094488188976,
                    "duration": 0.08620683333333545
                },
                {
                    "name": "D#5",
                    "midi": 75,
                    "time": 38.103420333333275,
                    "velocity": 0.47244094488188976,
                    "duration": 0.08620683333333545
                },
                {
                    "name": "F#5",
                    "midi": 78,
                    "time": 38.18962716666661,
                    "velocity": 0.4566929133858268,
                    "duration": 0.08620683333333545
                },
                {
                    "name": "G#4",
                    "midi": 68,
                    "time": 38.275833999999946,
                    "velocity": 0.4881889763779528,
                    "duration": 0.08620683333333545
                },
                {
                    "name": "D#5",
                    "midi": 75,
                    "time": 38.36204083333328,
                    "velocity": 0.4566929133858268,
                    "duration": 0.08620683333333545
                },
                {
                    "name": "F#5",
                    "midi": 78,
                    "time": 38.44824766666662,
                    "velocity": 0.4881889763779528,
                    "duration": 0.08620683333333545
                },
                {
                    "name": "G#5",
                    "midi": 80,
                    "time": 38.53445449999995,
                    "velocity": 0.4881889763779528,
                    "duration": 0.08620683333333545
                },
                {
                    "name": "D#5",
                    "midi": 75,
                    "time": 38.62066133333329,
                    "velocity": 0.4251968503937008,
                    "duration": 0.08620683333333545
                },
                {
                    "name": "F#5",
                    "midi": 78,
                    "time": 38.706868166666624,
                    "velocity": 0.4566929133858268,
                    "duration": 0.08620683333333545
                },
                {
                    "name": "G#5",
                    "midi": 80,
                    "time": 38.79307499999996,
                    "velocity": 0.4881889763779528,
                    "duration": 0.08620683333333545
                },
                {
                    "name": "D#6",
                    "midi": 87,
                    "time": 38.879281833333295,
                    "velocity": 0.5118110236220472,
                    "duration": 0.08620683333333545
                },
                {
                    "name": "F#5",
                    "midi": 78,
                    "time": 38.96548866666663,
                    "velocity": 0.47244094488188976,
                    "duration": 0.08620683333333545
                },
                {
                    "name": "G#5",
                    "midi": 80,
                    "time": 39.051695499999965,
                    "velocity": 0.4881889763779528,
                    "duration": 0.08620683333333545
                },
                {
                    "name": "F#6",
                    "midi": 90,
                    "time": 39.1379023333333,
                    "velocity": 0.4566929133858268,
                    "duration": 0.08620683333333545
                },
                {
                    "name": "D#6",
                    "midi": 87,
                    "time": 39.224109166666636,
                    "velocity": 0.4645669291338583,
                    "duration": 0.08620683333333545
                },
                {
                    "name": "G#5",
                    "midi": 80,
                    "time": 39.31031599999997,
                    "velocity": 0.4645669291338583,
                    "duration": 0.08620683333333545
                },
                {
                    "name": "F#5",
                    "midi": 78,
                    "time": 39.39652283333331,
                    "velocity": 0.4645669291338583,
                    "duration": 0.08620683333333545
                },
                {
                    "name": "D#6",
                    "midi": 87,
                    "time": 39.48272966666664,
                    "velocity": 0.4566929133858268,
                    "duration": 0.08620683333333545
                },
                {
                    "name": "G#5",
                    "midi": 80,
                    "time": 39.56893649999998,
                    "velocity": 0.4566929133858268,
                    "duration": 0.08620683333333545
                },
                {
                    "name": "F#5",
                    "midi": 78,
                    "time": 39.655143333333314,
                    "velocity": 0.44881889763779526,
                    "duration": 0.08620683333333545
                },
                {
                    "name": "D#5",
                    "midi": 75,
                    "time": 39.74135016666665,
                    "velocity": 0.4409448818897638,
                    "duration": 0.08620683333333545
                },
                {
                    "name": "G#5",
                    "midi": 80,
                    "time": 39.827556999999985,
                    "velocity": 0.4409448818897638,
                    "duration": 0.08620683333333545
                },
                {
                    "name": "F#5",
                    "midi": 78,
                    "time": 39.91376383333332,
                    "velocity": 0.4409448818897638,
                    "duration": 0.08620683333333545
                },
                {
                    "name": "D#5",
                    "midi": 75,
                    "time": 39.999970666666655,
                    "velocity": 0.4251968503937008,
                    "duration": 0.08620683333333545
                },
                {
                    "name": "G#4",
                    "midi": 68,
                    "time": 40.08617749999999,
                    "velocity": 0.4251968503937008,
                    "duration": 0.08620683333333545
                },
                {
                    "name": "F#5",
                    "midi": 78,
                    "time": 40.172384333333326,
                    "velocity": 0.4094488188976378,
                    "duration": 0.08620683333333545
                },
                {
                    "name": "D#5",
                    "midi": 75,
                    "time": 40.25859116666666,
                    "velocity": 0.4094488188976378,
                    "duration": 0.08620683333333545
                },
                {
                    "name": "G#4",
                    "midi": 68,
                    "time": 40.344798,
                    "velocity": 0.4094488188976378,
                    "duration": 0.08620683333333545
                },
                {
                    "name": "F#4",
                    "midi": 66,
                    "time": 40.43100483333333,
                    "velocity": 0.4015748031496063,
                    "duration": 0.08620683333333545
                },
                {
                    "name": "D#5",
                    "midi": 75,
                    "time": 40.51721166666667,
                    "velocity": 0.4015748031496063,
                    "duration": 0.08620683333333545
                },
                {
                    "name": "G#4",
                    "midi": 68,
                    "time": 40.603418500000004,
                    "velocity": 0.3937007874015748,
                    "duration": 0.08620683333333545
                },
                {
                    "name": "F#4",
                    "midi": 66,
                    "time": 40.68962533333334,
                    "velocity": 0.3858267716535433,
                    "duration": 0.08620683333333545
                },
                {
                    "name": "D#4",
                    "midi": 63,
                    "time": 40.775832166666675,
                    "velocity": 0.3858267716535433,
                    "duration": 0.08620683333333545
                },
                {
                    "name": "G#4",
                    "midi": 68,
                    "time": 40.86203900000001,
                    "velocity": 0.3779527559055118,
                    "duration": 0.08620683333333545
                },
                {
                    "name": "F#4",
                    "midi": 66,
                    "time": 40.948245833333345,
                    "velocity": 0.3779527559055118,
                    "duration": 0.08620683333333545
                },
                {
                    "name": "D#4",
                    "midi": 63,
                    "time": 41.03445266666668,
                    "velocity": 0.3779527559055118,
                    "duration": 0.08620683333333545
                },
                {
                    "name": "G#3",
                    "midi": 56,
                    "time": 41.120659500000016,
                    "velocity": 0.36220472440944884,
                    "duration": 0.08620683333333545
                },
                {
                    "name": "F#4",
                    "midi": 66,
                    "time": 41.20686633333335,
                    "velocity": 0.36220472440944884,
                    "duration": 0.08620683333333545
                },
                {
                    "name": "D#4",
                    "midi": 63,
                    "time": 41.29307316666669,
                    "velocity": 0.3464566929133858,
                    "duration": 0.08620683333333545
                },
                {
                    "name": "C#4",
                    "midi": 61,
                    "time": 41.37928000000002,
                    "velocity": 0.5118110236220472,
                    "duration": 0.08620683333333545
                },
                {
                    "name": "C#5",
                    "midi": 73,
                    "time": 41.46548683333336,
                    "velocity": 0.4645669291338583,
                    "duration": 0.08620683333333545
                },
                {
                    "name": "G#4",
                    "midi": 68,
                    "time": 41.551693666666694,
                    "velocity": 0.4330708661417323,
                    "duration": 0.08620683333333545
                },
                {
                    "name": "C#5",
                    "midi": 73,
                    "time": 41.63790050000003,
                    "velocity": 0.5118110236220472,
                    "duration": 0.08620683333333545
                },
                {
                    "name": "F4",
                    "midi": 65,
                    "time": 41.724107333333365,
                    "velocity": 0.4645669291338583,
                    "duration": 0.08620683333333545
                },
                {
                    "name": "G#5",
                    "midi": 80,
                    "time": 41.8103141666667,
                    "velocity": 0.4566929133858268,
                    "duration": 0.08620683333333545
                },
                {
                    "name": "C#5",
                    "midi": 73,
                    "time": 41.896521000000035,
                    "velocity": 0.5511811023622047,
                    "duration": 0.08620683333333545
                },
                {
                    "name": "G#5",
                    "midi": 80,
                    "time": 41.98272783333337,
                    "velocity": 0.5196850393700787,
                    "duration": 0.08620683333333545
                },
                {
                    "name": "G#4",
                    "midi": 68,
                    "time": 42.068934666666706,
                    "velocity": 0.5196850393700787,
                    "duration": 0.08620683333333545
                },
                {
                    "name": "C#5",
                    "midi": 73,
                    "time": 42.15514150000004,
                    "velocity": 0.5511811023622047,
                    "duration": 0.08620683333333545
                },
                {
                    "name": "G#4",
                    "midi": 68,
                    "time": 42.24134833333338,
                    "velocity": 0.5196850393700787,
                    "duration": 0.08620683333333545
                },
                {
                    "name": "C#5",
                    "midi": 73,
                    "time": 42.32755516666671,
                    "velocity": 0.4881889763779528,
                    "duration": 0.08620683333333545
                },
                {
                    "name": "C#4",
                    "midi": 61,
                    "time": 42.41376200000005,
                    "velocity": 0.5118110236220472,
                    "duration": 0.08620683333333545
                },
                {
                    "name": "C#5",
                    "midi": 73,
                    "time": 42.499968833333384,
                    "velocity": 0.49606299212598426,
                    "duration": 0.08620683333333545
                },
                {
                    "name": "G#4",
                    "midi": 68,
                    "time": 42.58617566666672,
                    "velocity": 0.4566929133858268,
                    "duration": 0.08620683333333545
                },
                {
                    "name": "C#5",
                    "midi": 73,
                    "time": 42.672382500000055,
                    "velocity": 0.5118110236220472,
                    "duration": 0.08620683333333545
                },
                {
                    "name": "G#4",
                    "midi": 68,
                    "time": 42.75858933333339,
                    "velocity": 0.49606299212598426,
                    "duration": 0.08620683333333545
                },
                {
                    "name": "G#5",
                    "midi": 80,
                    "time": 42.844796166666725,
                    "velocity": 0.44881889763779526,
                    "duration": 0.08620683333333545
                },
                {
                    "name": "C#5",
                    "midi": 73,
                    "time": 42.93100300000006,
                    "velocity": 0.5118110236220472,
                    "duration": 0.08620683333333545
                },
                {
                    "name": "G#5",
                    "midi": 80,
                    "time": 43.017209833333396,
                    "velocity": 0.4645669291338583,
                    "duration": 0.08620683333333545
                },
                {
                    "name": "G#4",
                    "midi": 68,
                    "time": 43.10341666666673,
                    "velocity": 0.4330708661417323,
                    "duration": 0.08620683333333545
                },
                {
                    "name": "C#5",
                    "midi": 73,
                    "time": 43.18962350000007,
                    "velocity": 0.5118110236220472,
                    "duration": 0.08620683333333545
                },
                {
                    "name": "G#4",
                    "midi": 68,
                    "time": 43.2758303333334,
                    "velocity": 0.49606299212598426,
                    "duration": 0.08620683333333545
                },
                {
                    "name": "C#5",
                    "midi": 73,
                    "time": 43.36203716666674,
                    "velocity": 0.4566929133858268,
                    "duration": 0.08620683333333545
                },
                {
                    "name": "C#4",
                    "midi": 61,
                    "time": 43.448244000000074,
                    "velocity": 0.5118110236220472,
                    "duration": 0.08620683333333545
                },
                {
                    "name": "C#5",
                    "midi": 73,
                    "time": 43.53445083333341,
                    "velocity": 0.4566929133858268,
                    "duration": 0.08620683333333545
                },
                {
                    "name": "G#4",
                    "midi": 68,
                    "time": 43.620657666666744,
                    "velocity": 0.4409448818897638,
                    "duration": 0.08620683333333545
                },
                {
                    "name": "C#5",
                    "midi": 73,
                    "time": 43.70686450000008,
                    "velocity": 0.5118110236220472,
                    "duration": 0.08620683333333545
                },
                {
                    "name": "C#5",
                    "midi": 73,
                    "time": 43.793071333333415,
                    "velocity": 0.4566929133858268,
                    "duration": 0.08620683333333545
                },
                {
                    "name": "C#6",
                    "midi": 85,
                    "time": 43.87927816666675,
                    "velocity": 0.4330708661417323,
                    "duration": 0.08620683333333545
                },
                {
                    "name": "G#5",
                    "midi": 80,
                    "time": 43.965485000000086,
                    "velocity": 0.5590551181102362,
                    "duration": 0.08620683333333545
                },
                {
                    "name": "C#6",
                    "midi": 85,
                    "time": 44.05169183333342,
                    "velocity": 0.5039370078740157,
                    "duration": 0.08620683333333545
                },
                {
                    "name": "C#5",
                    "midi": 73,
                    "time": 44.13789866666676,
                    "velocity": 0.4881889763779528,
                    "duration": 0.08620683333333545
                },
                {
                    "name": "C#5",
                    "midi": 73,
                    "time": 44.22410550000009,
                    "velocity": 0.5590551181102362,
                    "duration": 0.08620683333333545
                },
                {
                    "name": "G#4",
                    "midi": 68,
                    "time": 44.31031233333343,
                    "velocity": 0.5275590551181102,
                    "duration": 0.08620683333333545
                },
                {
                    "name": "C#5",
                    "midi": 73,
                    "time": 44.396519166666764,
                    "velocity": 0.4881889763779528,
                    "duration": 0.08620683333333545
                },
                {
                    "name": "G#4",
                    "midi": 68,
                    "time": 44.4827260000001,
                    "velocity": 0.5118110236220472,
                    "duration": 0.08620683333333545
                },
                {
                    "name": "G#5",
                    "midi": 80,
                    "time": 44.568932833333434,
                    "velocity": 0.4645669291338583,
                    "duration": 0.08620683333333545
                },
                {
                    "name": "C#5",
                    "midi": 73,
                    "time": 44.65513966666677,
                    "velocity": 0.4251968503937008,
                    "duration": 0.08620683333333545
                },
                {
                    "name": "G#5",
                    "midi": 80,
                    "time": 44.741346500000105,
                    "velocity": 0.5118110236220472,
                    "duration": 0.08620683333333545
                },
                {
                    "name": "G#5",
                    "midi": 80,
                    "time": 44.82755333333344,
                    "velocity": 0.4566929133858268,
                    "duration": 0.08620683333333545
                },
                {
                    "name": "G#6",
                    "midi": 92,
                    "time": 44.913760166666776,
                    "velocity": 0.4645669291338583,
                    "duration": 0.08620683333333545
                },
                {
                    "name": "C#6",
                    "midi": 85,
                    "time": 44.99996700000011,
                    "velocity": 0.5118110236220472,
                    "duration": 0.08620683333333545
                },
                {
                    "name": "G#6",
                    "midi": 92,
                    "time": 45.08617383333345,
                    "velocity": 0.44881889763779526,
                    "duration": 0.08620683333333545
                },
                {
                    "name": "G#5",
                    "midi": 80,
                    "time": 45.17238066666678,
                    "velocity": 0.47244094488188976,
                    "duration": 0.08620683333333545
                },
                {
                    "name": "G#5",
                    "midi": 80,
                    "time": 45.25858750000012,
                    "velocity": 0.5118110236220472,
                    "duration": 0.08620683333333545
                },
                {
                    "name": "C#5",
                    "midi": 73,
                    "time": 45.34479433333345,
                    "velocity": 0.49606299212598426,
                    "duration": 0.08620683333333545
                },
                {
                    "name": "G#5",
                    "midi": 80,
                    "time": 45.43100116666679,
                    "velocity": 0.4409448818897638,
                    "duration": 0.08620683333333545
                },
                {
                    "name": "C#5",
                    "midi": 73,
                    "time": 45.517208000000124,
                    "velocity": 0.5118110236220472,
                    "duration": 0.08620683333333545
                },
                {
                    "name": "D#5",
                    "midi": 75,
                    "time": 45.60341483333346,
                    "velocity": 0.4881889763779528,
                    "duration": 0.08620683333333545
                },
                {
                    "name": "C#5",
                    "midi": 73,
                    "time": 45.689621666666795,
                    "velocity": 0.44881889763779526,
                    "duration": 0.08620683333333545
                },
                {
                    "name": "D#6",
                    "midi": 87,
                    "time": 45.77582850000013,
                    "velocity": 0.5039370078740157,
                    "duration": 0.08620683333333545
                },
                {
                    "name": "C#6",
                    "midi": 85,
                    "time": 45.862035333333466,
                    "velocity": 0.48031496062992124,
                    "duration": 0.08620683333333545
                },
                {
                    "name": "D#7",
                    "midi": 99,
                    "time": 45.9482421666668,
                    "velocity": 0.48031496062992124,
                    "duration": 0.08620683333333545
                },
                {
                    "name": "C#7",
                    "midi": 97,
                    "time": 46.03444900000014,
                    "velocity": 0.5748031496062992,
                    "duration": 0.08620683333333545
                },
                {
                    "name": "D#7",
                    "midi": 99,
                    "time": 46.12065583333347,
                    "velocity": 0.5118110236220472,
                    "duration": 0.08620683333333545
                },
                {
                    "name": "C#7",
                    "midi": 97,
                    "time": 46.20686266666681,
                    "velocity": 0.5196850393700787,
                    "duration": 0.08620683333333545
                },
                {
                    "name": "C#6",
                    "midi": 85,
                    "time": 46.29306950000014,
                    "velocity": 0.6299212598425197,
                    "duration": 0.08620683333333545
                },
                {
                    "name": "D#6",
                    "midi": 87,
                    "time": 46.37927633333348,
                    "velocity": 0.5905511811023622,
                    "duration": 0.08620683333333545
                },
                {
                    "name": "C#6",
                    "midi": 85,
                    "time": 46.465483166666814,
                    "velocity": 0.5511811023622047,
                    "duration": 0.08620683333333545
                },
                {
                    "name": "C#5",
                    "midi": 73,
                    "time": 46.55169000000015,
                    "velocity": 0.6377952755905512,
                    "duration": 0.08620683333333545
                },
                {
                    "name": "D#5",
                    "midi": 75,
                    "time": 46.637896833333485,
                    "velocity": 0.6062992125984252,
                    "duration": 0.08620683333333545
                },
                {
                    "name": "C#5",
                    "midi": 73,
                    "time": 46.72410366666682,
                    "velocity": 0.5748031496062992,
                    "duration": 0.08620683333333545
                },
                {
                    "name": "D#6",
                    "midi": 87,
                    "time": 46.810310500000156,
                    "velocity": 0.6141732283464567,
                    "duration": 0.08620683333333545
                },
                {
                    "name": "C#6",
                    "midi": 85,
                    "time": 46.89651733333349,
                    "velocity": 0.5511811023622047,
                    "duration": 0.08620683333333545
                },
                {
                    "name": "D#7",
                    "midi": 99,
                    "time": 46.98272416666683,
                    "velocity": 0.5826771653543307,
                    "duration": 0.08620683333333545
                },
                {
                    "name": "C#7",
                    "midi": 97,
                    "time": 47.06893100000016,
                    "velocity": 0.5748031496062992,
                    "duration": 0.08620683333333545
                },
                {
                    "name": "D#7",
                    "midi": 99,
                    "time": 47.1551378333335,
                    "velocity": 0.5511811023622047,
                    "duration": 0.08620683333333545
                },
                {
                    "name": "C#7",
                    "midi": 97,
                    "time": 47.24134466666683,
                    "velocity": 0.5196850393700787,
                    "duration": 0.08620683333333545
                },
                {
                    "name": "C#6",
                    "midi": 85,
                    "time": 47.32755150000017,
                    "velocity": 0.5511811023622047,
                    "duration": 0.08620683333333545
                },
                {
                    "name": "D#6",
                    "midi": 87,
                    "time": 47.413758333333504,
                    "velocity": 0.5275590551181102,
                    "duration": 0.08620683333333545
                },
                {
                    "name": "C#6",
                    "midi": 85,
                    "time": 47.49996516666684,
                    "velocity": 0.5196850393700787,
                    "duration": 0.08620683333333545
                },
                {
                    "name": "C#7",
                    "midi": 97,
                    "time": 47.586172000000175,
                    "velocity": 0.5118110236220472,
                    "duration": 0.08620683333333545
                },
                {
                    "name": "D#7",
                    "midi": 99,
                    "time": 47.67237883333351,
                    "velocity": 0.5118110236220472,
                    "duration": 0.08620683333333545
                },
                {
                    "name": "C#7",
                    "midi": 97,
                    "time": 47.758585666666846,
                    "velocity": 0.4881889763779528,
                    "duration": 0.08620683333333545
                },
                {
                    "name": "C#6",
                    "midi": 85,
                    "time": 47.84479250000018,
                    "velocity": 0.5196850393700787,
                    "duration": 0.08620683333333545
                },
                {
                    "name": "D#6",
                    "midi": 87,
                    "time": 47.93099933333352,
                    "velocity": 0.5433070866141733,
                    "duration": 0.08620683333333545
                },
                {
                    "name": "C#6",
                    "midi": 85,
                    "time": 48.01720616666685,
                    "velocity": 0.5118110236220472,
                    "duration": 0.08620683333333545
                },
                {
                    "name": "C#7",
                    "midi": 97,
                    "time": 48.10341300000019,
                    "velocity": 0.5590551181102362,
                    "duration": 0.08620683333333545
                },
                {
                    "name": "D#7",
                    "midi": 99,
                    "time": 48.18961983333352,
                    "velocity": 0.5354330708661418,
                    "duration": 0.08620683333333545
                },
                {
                    "name": "C#7",
                    "midi": 97,
                    "time": 48.27582666666686,
                    "velocity": 0.5669291338582677,
                    "duration": 0.08620683333333545
                },
                {
                    "name": "C#6",
                    "midi": 85,
                    "time": 48.362033500000194,
                    "velocity": 0.5905511811023622,
                    "duration": 0.08620683333333545
                },
                {
                    "name": "D#6",
                    "midi": 87,
                    "time": 48.44824033333353,
                    "velocity": 0.5669291338582677,
                    "duration": 0.08620683333333545
                },
                {
                    "name": "C#6",
                    "midi": 85,
                    "time": 48.534447166666865,
                    "velocity": 0.5354330708661418,
                    "duration": 0.08620683333333545
                },
                {
                    "name": "C#7",
                    "midi": 97,
                    "time": 48.6206540000002,
                    "velocity": 0.6220472440944882,
                    "duration": 0.08620683333333545
                },
                {
                    "name": "D#7",
                    "midi": 99,
                    "time": 48.706860833333536,
                    "velocity": 0.5905511811023622,
                    "duration": 0.08620683333333545
                },
                {
                    "name": "C#7",
                    "midi": 97,
                    "time": 48.79306766666687,
                    "velocity": 0.5511811023622047,
                    "duration": 0.08620683333333545
                },
                {
                    "name": "C#6",
                    "midi": 85,
                    "time": 48.87927450000021,
                    "velocity": 0.5826771653543307,
                    "duration": 0.08620683333333545
                },
                {
                    "name": "D#6",
                    "midi": 87,
                    "time": 48.96548133333354,
                    "velocity": 0.5433070866141733,
                    "duration": 0.08620683333333545
                },
                {
                    "name": "C#6",
                    "midi": 85,
                    "time": 49.05168816666688,
                    "velocity": 0.5354330708661418,
                    "duration": 0.08620683333333545
                },
                {
                    "name": "C#7",
                    "midi": 97,
                    "time": 49.13789500000021,
                    "velocity": 0.5590551181102362,
                    "duration": 0.08620683333333545
                },
                {
                    "name": "D#7",
                    "midi": 99,
                    "time": 49.22410183333355,
                    "velocity": 0.5275590551181102,
                    "duration": 0.08620683333333545
                },
                {
                    "name": "C#7",
                    "midi": 97,
                    "time": 49.310308666666884,
                    "velocity": 0.5039370078740157,
                    "duration": 0.08620683333333545
                },
                {
                    "name": "C#6",
                    "midi": 85,
                    "time": 49.39651550000022,
                    "velocity": 0.5275590551181102,
                    "duration": 0.08620683333333545
                },
                {
                    "name": "D#6",
                    "midi": 87,
                    "time": 49.482722333333555,
                    "velocity": 0.5196850393700787,
                    "duration": 0.08620683333333545
                },
                {
                    "name": "C#6",
                    "midi": 85,
                    "time": 49.56892916666689,
                    "velocity": 0.5118110236220472,
                    "duration": 0.08620683333333545
                },
                {
                    "name": "F#6",
                    "midi": 90,
                    "time": 49.65621358541689,
                    "velocity": 0.7559055118110236,
                    "duration": 0.08620683333333545
                },
                {
                    "name": "A#6",
                    "midi": 94,
                    "time": 49.74134283333356,
                    "velocity": 0.5511811023622047,
                    "duration": 0.08620683333333545
                },
                {
                    "name": "C#6",
                    "midi": 85,
                    "time": 49.8275496666669,
                    "velocity": 0.5511811023622047,
                    "duration": 0.08620683333333545
                },
                {
                    "name": "F#6",
                    "midi": 90,
                    "time": 49.91375650000023,
                    "velocity": 0.7244094488188977,
                    "duration": 0.08620683333333545
                },
                {
                    "name": "D#6",
                    "midi": 87,
                    "time": 49.99996333333357,
                    "velocity": 0.5826771653543307,
                    "duration": 0.08620683333333545
                },
                {
                    "name": "F#6",
                    "midi": 90,
                    "time": 50.0861701666669,
                    "velocity": 0.5511811023622047,
                    "duration": 0.08620683333333545
                },
                {
                    "name": "C#6",
                    "midi": 85,
                    "time": 50.17237700000024,
                    "velocity": 0.7637795275590551,
                    "duration": 0.08620683333333545
                },
                {
                    "name": "F#6",
                    "midi": 90,
                    "time": 50.258583833333574,
                    "velocity": 0.5826771653543307,
                    "duration": 0.08620683333333545
                },
                {
                    "name": "A#5",
                    "midi": 82,
                    "time": 50.34479066666691,
                    "velocity": 0.5590551181102362,
                    "duration": 0.08620683333333545
                },
                {
                    "name": "C#6",
                    "midi": 85,
                    "time": 50.430997500000245,
                    "velocity": 0.6614173228346457,
                    "duration": 0.08620683333333545
                },
                {
                    "name": "F#5",
                    "midi": 78,
                    "time": 50.51720433333358,
                    "velocity": 0.5748031496062992,
                    "duration": 0.08620683333333545
                },
                {
                    "name": "A#5",
                    "midi": 82,
                    "time": 50.603411166666916,
                    "velocity": 0.5511811023622047,
                    "duration": 0.08620683333333545
                },
                {
                    "name": "F#5",
                    "midi": 78,
                    "time": 50.68961800000025,
                    "velocity": 0.5826771653543307,
                    "duration": 0.08620683333333545
                },
                {
                    "name": "A#5",
                    "midi": 82,
                    "time": 50.77582483333359,
                    "velocity": 0.5433070866141733,
                    "duration": 0.08620683333333545
                },
                {
                    "name": "C#5",
                    "midi": 73,
                    "time": 50.86203166666692,
                    "velocity": 0.5196850393700787,
                    "duration": 0.08620683333333545
                },
                {
                    "name": "F#5",
                    "midi": 78,
                    "time": 50.94823850000026,
                    "velocity": 0.5433070866141733,
                    "duration": 0.08620683333333545
                },
                {
                    "name": "D#5",
                    "midi": 75,
                    "time": 51.03444533333359,
                    "velocity": 0.5196850393700787,
                    "duration": 0.08620683333333545
                },
                {
                    "name": "F#5",
                    "midi": 78,
                    "time": 51.12065216666693,
                    "velocity": 0.49606299212598426,
                    "duration": 0.08620683333333545
                },
                {
                    "name": "C#5",
                    "midi": 73,
                    "time": 51.206859000000264,
                    "velocity": 0.5826771653543307,
                    "duration": 0.08620683333333545
                },
                {
                    "name": "F#5",
                    "midi": 78,
                    "time": 51.2930658333336,
                    "velocity": 0.5354330708661418,
                    "duration": 0.08620683333333545
                },
                {
                    "name": "A#4",
                    "midi": 70,
                    "time": 51.379272666666935,
                    "velocity": 0.49606299212598426,
                    "duration": 0.08620683333333545
                },
                {
                    "name": "C#5",
                    "midi": 73,
                    "time": 51.46547950000027,
                    "velocity": 0.5826771653543307,
                    "duration": 0.08620683333333545
                },
                {
                    "name": "F#4",
                    "midi": 66,
                    "time": 51.551686333333606,
                    "velocity": 0.5039370078740157,
                    "duration": 0.08620683333333545
                },
                {
                    "name": "A#4",
                    "midi": 70,
                    "time": 51.63789316666694,
                    "velocity": 0.48031496062992124,
                    "duration": 0.08620683333333545
                },
                {
                    "name": "C#4",
                    "midi": 61,
                    "time": 51.72410000000028,
                    "velocity": 0.5826771653543307,
                    "duration": 0.08620683333333545
                },
                {
                    "name": "C#5",
                    "midi": 73,
                    "time": 51.81030683333361,
                    "velocity": 0.5669291338582677,
                    "duration": 0.08620683333333545
                },
                {
                    "name": "G#4",
                    "midi": 68,
                    "time": 51.89651366666695,
                    "velocity": 0.5275590551181102,
                    "duration": 0.08620683333333545
                },
                {
                    "name": "C#5",
                    "midi": 73,
                    "time": 51.98272050000028,
                    "velocity": 0.5905511811023622,
                    "duration": 0.08620683333333545
                },
                {
                    "name": "G#4",
                    "midi": 68,
                    "time": 52.06892733333362,
                    "velocity": 0.5196850393700787,
                    "duration": 0.08620683333333545
                },
                {
                    "name": "G#5",
                    "midi": 80,
                    "time": 52.155134166666954,
                    "velocity": 0.5275590551181102,
                    "duration": 0.08620683333333545
                },
                {
                    "name": "G#4",
                    "midi": 68,
                    "time": 52.24134100000029,
                    "velocity": 0.5669291338582677,
                    "duration": 0.08620683333333545
                },
                {
                    "name": "G#5",
                    "midi": 80,
                    "time": 52.327547833333625,
                    "velocity": 0.5748031496062992,
                    "duration": 0.08620683333333545
                },
                {
                    "name": "D#5",
                    "midi": 75,
                    "time": 52.41375466666696,
                    "velocity": 0.5590551181102362,
                    "duration": 0.08620683333333545
                },
                {
                    "name": "G#5",
                    "midi": 80,
                    "time": 52.499961500000296,
                    "velocity": 0.6141732283464567,
                    "duration": 0.08620683333333545
                },
                {
                    "name": "D#5",
                    "midi": 75,
                    "time": 52.58616833333363,
                    "velocity": 0.5984251968503937,
                    "duration": 0.08620683333333545
                },
                {
                    "name": "D#6",
                    "midi": 87,
                    "time": 52.67237516666697,
                    "velocity": 0.5669291338582677,
                    "duration": 0.08620683333333545
                },
                {
                    "name": "D#5",
                    "midi": 75,
                    "time": 52.7585820000003,
                    "velocity": 0.6456692913385826,
                    "duration": 0.08620683333333545
                },
                {
                    "name": "D#6",
                    "midi": 87,
                    "time": 52.84478883333364,
                    "velocity": 0.6062992125984252,
                    "duration": 0.08620683333333545
                },
                {
                    "name": "G#5",
                    "midi": 80,
                    "time": 52.93099566666697,
                    "velocity": 0.5669291338582677,
                    "duration": 0.08620683333333545
                },
                {
                    "name": "D#6",
                    "midi": 87,
                    "time": 53.01720250000031,
                    "velocity": 0.6771653543307087,
                    "duration": 0.08620683333333545
                },
                {
                    "name": "G#5",
                    "midi": 80,
                    "time": 53.103409333333644,
                    "velocity": 0.5826771653543307,
                    "duration": 0.08620683333333545
                },
                {
                    "name": "G#6",
                    "midi": 92,
                    "time": 53.18961616666698,
                    "velocity": 0.5905511811023622,
                    "duration": 0.08620683333333545
                },
                {
                    "name": "G#5",
                    "midi": 80,
                    "time": 53.275823000000315,
                    "velocity": 0.6929133858267716,
                    "duration": 0.08620683333333545
                },
                {
                    "name": "G#6",
                    "midi": 92,
                    "time": 53.36202983333365,
                    "velocity": 0.6377952755905512,
                    "duration": 0.08620683333333545
                },
                {
                    "name": "C#6",
                    "midi": 85,
                    "time": 53.448236666666986,
                    "velocity": 0.6062992125984252,
                    "duration": 0.08620683333333545
                },
                {
                    "name": "G#6",
                    "midi": 92,
                    "time": 53.53444350000032,
                    "velocity": 0.7007874015748031,
                    "duration": 0.08620683333333545
                },
                {
                    "name": "C#6",
                    "midi": 85,
                    "time": 53.62065033333366,
                    "velocity": 0.6692913385826772,
                    "duration": 0.08620683333333545
                },
                {
                    "name": "C#7",
                    "midi": 97,
                    "time": 53.70685716666699,
                    "velocity": 0.6535433070866141,
                    "duration": 0.08620683333333545
                },
                {
                    "name": "F#6",
                    "midi": 90,
                    "time": 53.79306400000033,
                    "velocity": 0.7637795275590551,
                    "duration": 0.08620683333333545
                },
                {
                    "name": "A#6",
                    "midi": 94,
                    "time": 53.87927083333366,
                    "velocity": 0.5826771653543307,
                    "duration": 0.08620683333333545
                },
                {
                    "name": "C#6",
                    "midi": 85,
                    "time": 53.965477666667,
                    "velocity": 0.5590551181102362,
                    "duration": 0.08620683333333545
                },
                {
                    "name": "F#6",
                    "midi": 90,
                    "time": 54.051684500000334,
                    "velocity": 0.7401574803149606,
                    "duration": 0.08620683333333545
                },
                {
                    "name": "D#6",
                    "midi": 87,
                    "time": 54.13789133333367,
                    "velocity": 0.5905511811023622,
                    "duration": 0.08620683333333545
                },
                {
                    "name": "F#6",
                    "midi": 90,
                    "time": 54.224098166667005,
                    "velocity": 0.5748031496062992,
                    "duration": 0.08620683333333545
                },
                {
                    "name": "C#6",
                    "midi": 85,
                    "time": 54.31030500000034,
                    "velocity": 0.7480314960629921,
                    "duration": 0.08620683333333545
                },
                {
                    "name": "F#6",
                    "midi": 90,
                    "time": 54.396511833333676,
                    "velocity": 0.5984251968503937,
                    "duration": 0.08620683333333545
                },
                {
                    "name": "A#5",
                    "midi": 82,
                    "time": 54.48271866666701,
                    "velocity": 0.5748031496062992,
                    "duration": 0.08620683333333545
                },
                {
                    "name": "C#6",
                    "midi": 85,
                    "time": 54.56892550000035,
                    "velocity": 0.6771653543307087,
                    "duration": 0.08620683333333545
                },
                {
                    "name": "F#5",
                    "midi": 78,
                    "time": 54.65513233333368,
                    "velocity": 0.6062992125984252,
                    "duration": 0.08620683333333545
                },
                {
                    "name": "A#5",
                    "midi": 82,
                    "time": 54.74133916666702,
                    "velocity": 0.5748031496062992,
                    "duration": 0.08620683333333545
                },
                {
                    "name": "F#5",
                    "midi": 78,
                    "time": 54.82754600000035,
                    "velocity": 0.5826771653543307,
                    "duration": 0.08620683333333545
                },
                {
                    "name": "A#5",
                    "midi": 82,
                    "time": 54.91375283333369,
                    "velocity": 0.5196850393700787,
                    "duration": 0.08620683333333545
                },
                {
                    "name": "C#5",
                    "midi": 73,
                    "time": 54.999959666667024,
                    "velocity": 0.5039370078740157,
                    "duration": 0.08620683333333545
                },
                {
                    "name": "F#5",
                    "midi": 78,
                    "time": 55.08616650000036,
                    "velocity": 0.5511811023622047,
                    "duration": 0.08620683333333545
                },
                {
                    "name": "D#5",
                    "midi": 75,
                    "time": 55.172373333333695,
                    "velocity": 0.5275590551181102,
                    "duration": 0.08620683333333545
                },
                {
                    "name": "F#5",
                    "midi": 78,
                    "time": 55.25858016666703,
                    "velocity": 0.5275590551181102,
                    "duration": 0.08620683333333545
                },
                {
                    "name": "C#5",
                    "midi": 73,
                    "time": 55.344787000000366,
                    "velocity": 0.5826771653543307,
                    "duration": 0.08620683333333545
                },
                {
                    "name": "F#5",
                    "midi": 78,
                    "time": 55.4309938333337,
                    "velocity": 0.4881889763779528,
                    "duration": 0.08620683333333545
                },
                {
                    "name": "A#4",
                    "midi": 70,
                    "time": 55.51720066666704,
                    "velocity": 0.4330708661417323,
                    "duration": 0.08620683333333545
                },
                {
                    "name": "C#5",
                    "midi": 73,
                    "time": 55.60340750000037,
                    "velocity": 0.5826771653543307,
                    "duration": 0.08620683333333545
                },
                {
                    "name": "F#4",
                    "midi": 66,
                    "time": 55.68961433333371,
                    "velocity": 0.5039370078740157,
                    "duration": 0.08620683333333545
                },
                {
                    "name": "A#4",
                    "midi": 70,
                    "time": 55.77582116666704,
                    "velocity": 0.47244094488188976,
                    "duration": 0.08620683333333545
                },
                {
                    "name": "D#4",
                    "midi": 63,
                    "time": 55.86202800000038,
                    "velocity": 0.5826771653543307,
                    "duration": 0.08620683333333545
                },
                {
                    "name": "D#5",
                    "midi": 75,
                    "time": 55.948234833333714,
                    "velocity": 0.5590551181102362,
                    "duration": 0.08620683333333545
                },
                {
                    "name": "G#4",
                    "midi": 68,
                    "time": 56.03444166666705,
                    "velocity": 0.5275590551181102,
                    "duration": 0.08620683333333545
                },
                {
                    "name": "D#5",
                    "midi": 75,
                    "time": 56.120648500000385,
                    "velocity": 0.5826771653543307,
                    "duration": 0.08620683333333545
                },
                {
                    "name": "G#4",
                    "midi": 68,
                    "time": 56.20685533333372,
                    "velocity": 0.5669291338582677,
                    "duration": 0.08620683333333545
                },
                {
                    "name": "G#5",
                    "midi": 80,
                    "time": 56.293062166667056,
                    "velocity": 0.5275590551181102,
                    "duration": 0.08620683333333545
                },
                {
                    "name": "A#4",
                    "midi": 70,
                    "time": 56.37926900000039,
                    "velocity": 0.5826771653543307,
                    "duration": 0.08620683333333545
                },
                {
                    "name": "A#5",
                    "midi": 82,
                    "time": 56.46547583333373,
                    "velocity": 0.6692913385826772,
                    "duration": 0.08620683333333545
                },
                {
                    "name": "A#4",
                    "midi": 70,
                    "time": 56.55168266666706,
                    "velocity": 0.5669291338582677,
                    "duration": 0.08620683333333545
                },
                {
                    "name": "A#5",
                    "midi": 82,
                    "time": 56.6378895000004,
                    "velocity": 0.5826771653543307,
                    "duration": 0.08620683333333545
                },
                {
                    "name": "A#4",
                    "midi": 70,
                    "time": 56.72409633333373,
                    "velocity": 0.5511811023622047,
                    "duration": 0.08620683333333545
                },
                {
                    "name": "A#5",
                    "midi": 82,
                    "time": 56.81030316666707,
                    "velocity": 0.5196850393700787,
                    "duration": 0.08620683333333545
                },
                {
                    "name": "D#5",
                    "midi": 75,
                    "time": 56.896510000000404,
                    "velocity": 0.5826771653543307,
                    "duration": 0.08620683333333545
                },
                {
                    "name": "D#6",
                    "midi": 87,
                    "time": 56.98271683333374,
                    "velocity": 0.5511811023622047,
                    "duration": 0.08620683333333545
                },
                {
                    "name": "G#5",
                    "midi": 80,
                    "time": 57.068923666667075,
                    "velocity": 0.5511811023622047,
                    "duration": 0.08620683333333545
                },
                {
                    "name": "D#6",
                    "midi": 87,
                    "time": 57.15513050000041,
                    "velocity": 0.5590551181102362,
                    "duration": 0.08620683333333545
                },
                {
                    "name": "G#5",
                    "midi": 80,
                    "time": 57.241337333333746,
                    "velocity": 0.5433070866141733,
                    "duration": 0.08620683333333545
                },
                {
                    "name": "G#6",
                    "midi": 92,
                    "time": 57.32754416666708,
                    "velocity": 0.5433070866141733,
                    "duration": 0.08620683333333545
                },
                {
                    "name": "A#5",
                    "midi": 82,
                    "time": 57.41375100000042,
                    "velocity": 0.5669291338582677,
                    "duration": 0.08620683333333545
                },
                {
                    "name": "A#6",
                    "midi": 94,
                    "time": 57.49995783333375,
                    "velocity": 0.6220472440944882,
                    "duration": 0.08620683333333545
                },
                {
                    "name": "A#5",
                    "midi": 82,
                    "time": 57.58616466666709,
                    "velocity": 0.5433070866141733,
                    "duration": 0.08620683333333545
                },
                {
                    "name": "A#6",
                    "midi": 94,
                    "time": 57.67237150000042,
                    "velocity": 0.5669291338582677,
                    "duration": 0.08620683333333545
                },
                {
                    "name": "A#5",
                    "midi": 82,
                    "time": 57.75857833333376,
                    "velocity": 0.5669291338582677,
                    "duration": 0.08620683333333545
                },
                {
                    "name": "A#6",
                    "midi": 94,
                    "time": 57.844785166667094,
                    "velocity": 0.5511811023622047,
                    "duration": 0.08620683333333545
                },
                {
                    "name": "A#5",
                    "midi": 82,
                    "time": 57.93099200000043,
                    "velocity": 0.5826771653543307,
                    "duration": 0.08620683333333545
                },
                {
                    "name": "A#6",
                    "midi": 94,
                    "time": 58.017198833333765,
                    "velocity": 0.5669291338582677,
                    "duration": 0.08620683333333545
                },
                {
                    "name": "D#6",
                    "midi": 87,
                    "time": 58.1034056666671,
                    "velocity": 0.5669291338582677,
                    "duration": 0.08620683333333545
                },
                {
                    "name": "A#6",
                    "midi": 94,
                    "time": 58.189612500000436,
                    "velocity": 0.5826771653543307,
                    "duration": 0.08620683333333545
                },
                {
                    "name": "G#5",
                    "midi": 80,
                    "time": 58.27581933333377,
                    "velocity": 0.5433070866141733,
                    "duration": 0.08620683333333545
                },
                {
                    "name": "G#6",
                    "midi": 92,
                    "time": 58.36202616666711,
                    "velocity": 0.5275590551181102,
                    "duration": 0.08620683333333545
                },
                {
                    "name": "G#5",
                    "midi": 80,
                    "time": 58.44823300000044,
                    "velocity": 0.5905511811023622,
                    "duration": 0.08620683333333545
                },
                {
                    "name": "G#6",
                    "midi": 92,
                    "time": 58.53443983333378,
                    "velocity": 0.5748031496062992,
                    "duration": 0.08620683333333545
                },
                {
                    "name": "C#6",
                    "midi": 85,
                    "time": 58.62064666666711,
                    "velocity": 0.5511811023622047,
                    "duration": 0.08620683333333545
                },
                {
                    "name": "G#6",
                    "midi": 92,
                    "time": 58.70685350000045,
                    "velocity": 0.6062992125984252,
                    "duration": 0.08620683333333545
                },
                {
                    "name": "F#5",
                    "midi": 78,
                    "time": 58.793060333333784,
                    "velocity": 0.5433070866141733,
                    "duration": 0.08620683333333545
                },
                {
                    "name": "F#6",
                    "midi": 90,
                    "time": 58.87926716666712,
                    "velocity": 0.5511811023622047,
                    "duration": 0.08620683333333545
                },
                {
                    "name": "C#5",
                    "midi": 73,
                    "time": 58.965474000000455,
                    "velocity": 0.6062992125984252,
                    "duration": 0.08620683333333545
                },
                {
                    "name": "C#6",
                    "midi": 85,
                    "time": 59.05168083333379,
                    "velocity": 0.5669291338582677,
                    "duration": 0.08620683333333545
                },
                {
                    "name": "G#5",
                    "midi": 80,
                    "time": 59.137887666667126,
                    "velocity": 0.5433070866141733,
                    "duration": 0.08620683333333545
                },
                {
                    "name": "C#6",
                    "midi": 85,
                    "time": 59.22409450000046,
                    "velocity": 0.6141732283464567,
                    "duration": 0.08620683333333545
                },
                {
                    "name": "G#5",
                    "midi": 80,
                    "time": 59.3103013333338,
                    "velocity": 0.5669291338582677,
                    "duration": 0.08620683333333545
                },
                {
                    "name": "G#6",
                    "midi": 92,
                    "time": 59.39650816666713,
                    "velocity": 0.5905511811023622,
                    "duration": 0.08620683333333545
                },
                {
                    "name": "F#5",
                    "midi": 78,
                    "time": 59.48271500000047,
                    "velocity": 0.6141732283464567,
                    "duration": 0.08620683333333545
                },
                {
                    "name": "F#6",
                    "midi": 90,
                    "time": 59.5689218333338,
                    "velocity": 0.5826771653543307,
                    "duration": 0.08620683333333545
                },
                {
                    "name": "C#6",
                    "midi": 85,
                    "time": 59.65512866666714,
                    "velocity": 0.5669291338582677,
                    "duration": 0.08620683333333545
                },
                {
                    "name": "F#6",
                    "midi": 90,
                    "time": 59.741335500000474,
                    "velocity": 0.6299212598425197,
                    "duration": 0.08620683333333545
                },
                {
                    "name": "C#6",
                    "midi": 85,
                    "time": 59.82754233333381,
                    "velocity": 0.5826771653543307,
                    "duration": 0.08620683333333545
                },
                {
                    "name": "C#7",
                    "midi": 97,
                    "time": 59.913749166667145,
                    "velocity": 0.6141732283464567,
                    "duration": 0.08620683333333545
                },
                {
                    "name": "A#5",
                    "midi": 82,
                    "time": 59.99995600000048,
                    "velocity": 0.6299212598425197,
                    "duration": 0.08620683333333545
                },
                {
                    "name": "A#6",
                    "midi": 94,
                    "time": 60.086162833333816,
                    "velocity": 0.5826771653543307,
                    "duration": 0.08620683333333545
                },
                {
                    "name": "D#6",
                    "midi": 87,
                    "time": 60.17236966666715,
                    "velocity": 0.5590551181102362,
                    "duration": 0.08620683333333545
                },
                {
                    "name": "A#6",
                    "midi": 94,
                    "time": 60.25857650000049,
                    "velocity": 0.6377952755905512,
                    "duration": 0.08620683333333545
                },
                {
                    "name": "G#5",
                    "midi": 80,
                    "time": 60.34478333333382,
                    "velocity": 0.6220472440944882,
                    "duration": 0.08620683333333545
                },
                {
                    "name": "G#6",
                    "midi": 92,
                    "time": 60.43099016666716,
                    "velocity": 0.5984251968503937,
                    "duration": 0.08620683333333545
                },
                {
                    "name": "G#5",
                    "midi": 80,
                    "time": 60.51719700000049,
                    "velocity": 0.6456692913385826,
                    "duration": 0.08620683333333545
                },
                {
                    "name": "G#6",
                    "midi": 92,
                    "time": 60.60340383333383,
                    "velocity": 0.5984251968503937,
                    "duration": 0.08620683333333545
                },
                {
                    "name": "C#6",
                    "midi": 85,
                    "time": 60.689610666667164,
                    "velocity": 0.5748031496062992,
                    "duration": 0.08620683333333545
                },
                {
                    "name": "G#6",
                    "midi": 92,
                    "time": 60.7758175000005,
                    "velocity": 0.6456692913385826,
                    "duration": 0.08620683333333545
                },
                {
                    "name": "F#5",
                    "midi": 78,
                    "time": 60.862024333333835,
                    "velocity": 0.5826771653543307,
                    "duration": 0.08620683333333545
                },
                {
                    "name": "F#6",
                    "midi": 90,
                    "time": 60.94823116666717,
                    "velocity": 0.5511811023622047,
                    "duration": 0.08620683333333545
                },
                {
                    "name": "C#5",
                    "midi": 73,
                    "time": 61.034438000000506,
                    "velocity": 0.6535433070866141,
                    "duration": 0.08620683333333545
                },
                {
                    "name": "C#6",
                    "midi": 85,
                    "time": 61.12064483333384,
                    "velocity": 0.5826771653543307,
                    "duration": 0.08620683333333545
                },
                {
                    "name": "G#5",
                    "midi": 80,
                    "time": 61.20685166666718,
                    "velocity": 0.5590551181102362,
                    "duration": 0.08620683333333545
                },
                {
                    "name": "C#6",
                    "midi": 85,
                    "time": 61.29305850000051,
                    "velocity": 0.6535433070866141,
                    "duration": 0.08620683333333545
                },
                {
                    "name": "G#5",
                    "midi": 80,
                    "time": 61.37926533333385,
                    "velocity": 0.5984251968503937,
                    "duration": 0.08620683333333545
                },
                {
                    "name": "G#6",
                    "midi": 92,
                    "time": 61.46547216666718,
                    "velocity": 0.6456692913385826,
                    "duration": 0.08620683333333545
                },
                {
                    "name": "F#5",
                    "midi": 78,
                    "time": 61.55167900000052,
                    "velocity": 0.6771653543307087,
                    "duration": 0.08620683333333545
                },
                {
                    "name": "F#6",
                    "midi": 90,
                    "time": 61.637885833333854,
                    "velocity": 0.5984251968503937,
                    "duration": 0.08620683333333545
                },
                {
                    "name": "C#6",
                    "midi": 85,
                    "time": 61.72409266666719,
                    "velocity": 0.5748031496062992,
                    "duration": 0.08620683333333545
                },
                {
                    "name": "F#6",
                    "midi": 90,
                    "time": 61.810299500000525,
                    "velocity": 0.6850393700787402,
                    "duration": 0.08620683333333545
                },
                {
                    "name": "C#6",
                    "midi": 85,
                    "time": 61.89650633333386,
                    "velocity": 0.6220472440944882,
                    "duration": 0.08620683333333545
                },
                {
                    "name": "C#7",
                    "midi": 97,
                    "time": 61.982713166667196,
                    "velocity": 0.5905511811023622,
                    "duration": 0.08620683333333545
                },
                {
                    "name": "A#5",
                    "midi": 82,
                    "time": 62.06892000000053,
                    "velocity": 0.6535433070866141,
                    "duration": 0.08620683333333545
                },
                {
                    "name": "A#6",
                    "midi": 94,
                    "time": 62.15512683333387,
                    "velocity": 0.5826771653543307,
                    "duration": 0.08620683333333545
                },
                {
                    "name": "D#6",
                    "midi": 87,
                    "time": 62.2413336666672,
                    "velocity": 0.5905511811023622,
                    "duration": 0.08620683333333545
                },
                {
                    "name": "A#6",
                    "midi": 94,
                    "time": 62.32754050000054,
                    "velocity": 0.6771653543307087,
                    "duration": 0.08620683333333545
                },
                {
                    "name": "G#5",
                    "midi": 80,
                    "time": 62.41374733333387,
                    "velocity": 0.6062992125984252,
                    "duration": 0.08620683333333545
                },
                {
                    "name": "G#6",
                    "midi": 92,
                    "time": 62.49995416666721,
                    "velocity": 0.5826771653543307,
                    "duration": 0.08620683333333545
                },
                {
                    "name": "A#5",
                    "midi": 82,
                    "time": 62.586161000000544,
                    "velocity": 0.6850393700787402,
                    "duration": 0.08620683333333545
                },
                {
                    "name": "A#6",
                    "midi": 94,
                    "time": 62.67236783333388,
                    "velocity": 0.6299212598425197,
                    "duration": 0.08620683333333545
                },
                {
                    "name": "D#6",
                    "midi": 87,
                    "time": 62.758574666667215,
                    "velocity": 0.5826771653543307,
                    "duration": 0.08620683333333545
                },
                {
                    "name": "A#6",
                    "midi": 94,
                    "time": 62.84478150000055,
                    "velocity": 0.6614173228346457,
                    "duration": 0.08620683333333545
                },
                {
                    "name": "G#5",
                    "midi": 80,
                    "time": 62.930988333333886,
                    "velocity": 0.6141732283464567,
                    "duration": 0.08620683333333545
                },
                {
                    "name": "G#6",
                    "midi": 92,
                    "time": 63.01719516666722,
                    "velocity": 0.5826771653543307,
                    "duration": 0.08620683333333545
                },
                {
                    "name": "A#5",
                    "midi": 82,
                    "time": 63.10340200000056,
                    "velocity": 0.7244094488188977,
                    "duration": 0.08620683333333545
                },
                {
                    "name": "A#6",
                    "midi": 94,
                    "time": 63.18960883333389,
                    "velocity": 0.6692913385826772,
                    "duration": 0.08620683333333545
                },
                {
                    "name": "D#6",
                    "midi": 87,
                    "time": 63.27581566666723,
                    "velocity": 0.6377952755905512,
                    "duration": 0.08620683333333545
                },
                {
                    "name": "A#6",
                    "midi": 94,
                    "time": 63.36202250000056,
                    "velocity": 0.7322834645669292,
                    "duration": 0.08620683333333545
                },
                {
                    "name": "G#5",
                    "midi": 80,
                    "time": 63.4482293333339,
                    "velocity": 0.6692913385826772,
                    "duration": 0.08620683333333545
                },
                {
                    "name": "G#6",
                    "midi": 92,
                    "time": 63.534436166667234,
                    "velocity": 0.7086614173228346,
                    "duration": 0.08620683333333545
                },
                {
                    "name": "A#5",
                    "midi": 82,
                    "time": 63.62064300000057,
                    "velocity": 0.7401574803149606,
                    "duration": 0.08620683333333545
                },
                {
                    "name": "A#6",
                    "midi": 94,
                    "time": 63.706849833333905,
                    "velocity": 0.6771653543307087,
                    "duration": 0.08620683333333545
                },
                {
                    "name": "D#6",
                    "midi": 87,
                    "time": 63.79305666666724,
                    "velocity": 0.6535433070866141,
                    "duration": 0.08620683333333545
                },
                {
                    "name": "A#6",
                    "midi": 94,
                    "time": 63.879263500000576,
                    "velocity": 0.7637795275590551,
                    "duration": 0.08620683333333545
                },
                {
                    "name": "G#5",
                    "midi": 80,
                    "time": 63.96547033333391,
                    "velocity": 0.6299212598425197,
                    "duration": 0.08620683333333545
                },
                {
                    "name": "G#6",
                    "midi": 92,
                    "time": 64.05167716666725,
                    "velocity": 0.6929133858267716,
                    "duration": 0.08620683333333545
                },
                {
                    "name": "C#6",
                    "midi": 85,
                    "time": 64.13788400000058,
                    "velocity": 0.7716535433070866,
                    "duration": 0.08620683333333545
                },
                {
                    "name": "A#6",
                    "midi": 94,
                    "time": 64.22409083333392,
                    "velocity": 0.7086614173228346,
                    "duration": 0.08620683333333545
                },
                {
                    "name": "G#5",
                    "midi": 80,
                    "time": 64.31029766666725,
                    "velocity": 0.6850393700787402,
                    "duration": 0.08620683333333545
                },
                {
                    "name": "G#6",
                    "midi": 92,
                    "time": 64.39650450000059,
                    "velocity": 0.7874015748031497,
                    "duration": 0.08620683333333545
                },
                {
                    "name": "C#6",
                    "midi": 85,
                    "time": 64.48271133333392,
                    "velocity": 0.7086614173228346,
                    "duration": 0.08620683333333545
                },
                {
                    "name": "A#6",
                    "midi": 94,
                    "time": 64.56891816666726,
                    "velocity": 0.7244094488188977,
                    "duration": 0.08620683333333545
                },
                {
                    "name": "G#5",
                    "midi": 80,
                    "time": 64.6551250000006,
                    "velocity": 0.8110236220472441,
                    "duration": 0.08620683333333545
                },
                {
                    "name": "G#6",
                    "midi": 92,
                    "time": 64.74133183333393,
                    "velocity": 0.7322834645669292,
                    "duration": 0.08620683333333545
                },
                {
                    "name": "C#6",
                    "midi": 85,
                    "time": 64.82753866666727,
                    "velocity": 0.6771653543307087,
                    "duration": 0.08620683333333545
                },
                {
                    "name": "A#6",
                    "midi": 94,
                    "time": 64.9137455000006,
                    "velocity": 0.7401574803149606,
                    "duration": 0.08620683333333545
                },
                {
                    "name": "G#5",
                    "midi": 80,
                    "time": 64.99995233333394,
                    "velocity": 0.7086614173228346,
                    "duration": 0.08620683333333545
                },
                {
                    "name": "G#6",
                    "midi": 92,
                    "time": 65.08615916666727,
                    "velocity": 0.6771653543307087,
                    "duration": 0.08620683333333545
                },
                {
                    "name": "C#6",
                    "midi": 85,
                    "time": 65.17236600000061,
                    "velocity": 0.7559055118110236,
                    "duration": 0.08620683333333545
                },
                {
                    "name": "A#6",
                    "midi": 94,
                    "time": 65.25857283333394,
                    "velocity": 0.7165354330708661,
                    "duration": 0.08620683333333545
                },
                {
                    "name": "G#5",
                    "midi": 80,
                    "time": 65.34477966666728,
                    "velocity": 0.6692913385826772,
                    "duration": 0.08620683333333545
                },
                {
                    "name": "G#6",
                    "midi": 92,
                    "time": 65.43098650000061,
                    "velocity": 0.7007874015748031,
                    "duration": 0.08620683333333545
                },
                {
                    "name": "C#6",
                    "midi": 85,
                    "time": 65.51719333333395,
                    "velocity": 0.6456692913385826,
                    "duration": 0.08620683333333545
                },
                {
                    "name": "A#6",
                    "midi": 94,
                    "time": 65.60340016666729,
                    "velocity": 0.5905511811023622,
                    "duration": 0.08620683333333545
                },
                {
                    "name": "G#5",
                    "midi": 80,
                    "time": 65.68960700000062,
                    "velocity": 0.6692913385826772,
                    "duration": 0.08620683333333545
                },
                {
                    "name": "G#6",
                    "midi": 92,
                    "time": 65.77581383333396,
                    "velocity": 0.6062992125984252,
                    "duration": 0.08620683333333545
                },
                {
                    "name": "C#6",
                    "midi": 85,
                    "time": 65.86202066666729,
                    "velocity": 0.5590551181102362,
                    "duration": 0.08620683333333545
                },
                {
                    "name": "A#6",
                    "midi": 94,
                    "time": 65.94822750000063,
                    "velocity": 0.5905511811023622,
                    "duration": 0.08620683333333545
                },
                {
                    "name": "G#5",
                    "midi": 80,
                    "time": 66.03443433333396,
                    "velocity": 0.5354330708661418,
                    "duration": 0.08620683333333545
                },
                {
                    "name": "G#6",
                    "midi": 92,
                    "time": 66.1206411666673,
                    "velocity": 0.5039370078740157,
                    "duration": 0.08620683333333545
                },
                {
                    "name": "D#7",
                    "midi": 99,
                    "time": 66.20684800000063,
                    "velocity": 0.44881889763779526,
                    "duration": 0.08620683333333545
                },
                {
                    "name": "C#7",
                    "midi": 97,
                    "time": 66.33615825000064,
                    "velocity": 0.44881889763779526,
                    "duration": 0.04310341666666773
                },
                {
                    "name": "A#6",
                    "midi": 94,
                    "time": 66.3792616666673,
                    "velocity": 0.4094488188976378,
                    "duration": 0.08620683333333545
                },
                {
                    "name": "G#6",
                    "midi": 92,
                    "time": 66.46546850000064,
                    "velocity": 0.44881889763779526,
                    "duration": 0.08620683333333545
                },
                {
                    "name": "F#6",
                    "midi": 90,
                    "time": 66.55167533333398,
                    "velocity": 0.44881889763779526,
                    "duration": 0.08620683333333545
                },
                {
                    "name": "D#6",
                    "midi": 87,
                    "time": 66.63788216666731,
                    "velocity": 0.4251968503937008,
                    "duration": 0.08620683333333545
                },
                {
                    "name": "C#6",
                    "midi": 85,
                    "time": 66.72408900000065,
                    "velocity": 0.44881889763779526,
                    "duration": 0.08620683333333545
                },
                {
                    "name": "A#5",
                    "midi": 82,
                    "time": 66.81029583333398,
                    "velocity": 0.44881889763779526,
                    "duration": 0.08620683333333545
                },
                {
                    "name": "G#5",
                    "midi": 80,
                    "time": 66.89650266666732,
                    "velocity": 0.41732283464566927,
                    "duration": 0.08620683333333545
                },
                {
                    "name": "F#5",
                    "midi": 78,
                    "time": 66.98270950000065,
                    "velocity": 0.44881889763779526,
                    "duration": 0.08620683333333545
                },
                {
                    "name": "D#5",
                    "midi": 75,
                    "time": 67.06891633333399,
                    "velocity": 0.44881889763779526,
                    "duration": 0.08620683333333545
                },
                {
                    "name": "C#5",
                    "midi": 73,
                    "time": 67.15512316666732,
                    "velocity": 0.4251968503937008,
                    "duration": 0.08620683333333545
                },
                {
                    "name": "G#4",
                    "midi": 68,
                    "time": 67.24133000000066,
                    "velocity": 0.5118110236220472,
                    "duration": 0.5172409999999985
                },
                {
                    "name": "A#4",
                    "midi": 70,
                    "time": 67.75857100000066,
                    "velocity": 0.5433070866141733,
                    "duration": 0.38793074999999533
                },
                {
                    "name": "G#4",
                    "midi": 68,
                    "time": 68.14650175000065,
                    "velocity": 0.5039370078740157,
                    "duration": 0.12931025000000318
                },
                {
                    "name": "F#4",
                    "midi": 66,
                    "time": 68.27581200000066,
                    "velocity": 0.5590551181102362,
                    "duration": 0.5172409999999985
                },
                {
                    "name": "G#6",
                    "midi": 92,
                    "time": 68.79305300000065,
                    "velocity": 0.49606299212598426,
                    "duration": 0.08620683333333545
                },
                {
                    "name": "A#6",
                    "midi": 94,
                    "time": 68.87925983333399,
                    "velocity": 0.41732283464566927,
                    "duration": 0.08620683333333545
                },
                {
                    "name": "G#6",
                    "midi": 92,
                    "time": 68.96546666666733,
                    "velocity": 0.44881889763779526,
                    "duration": 0.08620683333333545
                },
                {
                    "name": "C#6",
                    "midi": 85,
                    "time": 69.05167350000066,
                    "velocity": 0.4645669291338583,
                    "duration": 0.08620683333333545
                },
                {
                    "name": "C#7",
                    "midi": 97,
                    "time": 69.137880333334,
                    "velocity": 0.4645669291338583,
                    "duration": 0.08620683333333545
                },
                {
                    "name": "C#6",
                    "midi": 85,
                    "time": 69.22408716666733,
                    "velocity": 0.4251968503937008,
                    "duration": 0.08620683333333545
                },
                {
                    "name": "C#6",
                    "midi": 85,
                    "time": 69.31029400000067,
                    "velocity": 0.49606299212598426,
                    "duration": 0.08620683333333545
                },
                {
                    "name": "D#6",
                    "midi": 87,
                    "time": 69.396500833334,
                    "velocity": 0.49606299212598426,
                    "duration": 0.08620683333333545
                },
                {
                    "name": "C#6",
                    "midi": 85,
                    "time": 69.48270766666734,
                    "velocity": 0.49606299212598426,
                    "duration": 0.08620683333333545
                },
                {
                    "name": "F#5",
                    "midi": 78,
                    "time": 69.56891450000067,
                    "velocity": 0.4566929133858268,
                    "duration": 0.08620683333333545
                },
                {
                    "name": "F#6",
                    "midi": 90,
                    "time": 69.65512133333401,
                    "velocity": 0.4330708661417323,
                    "duration": 0.08620683333333545
                },
                {
                    "name": "F#5",
                    "midi": 78,
                    "time": 69.74132816666734,
                    "velocity": 0.4566929133858268,
                    "duration": 0.08620683333333545
                },
                {
                    "name": "G#5",
                    "midi": 80,
                    "time": 69.82753500000068,
                    "velocity": 0.49606299212598426,
                    "duration": 0.08620683333333545
                },
                {
                    "name": "A#5",
                    "midi": 82,
                    "time": 69.91374183333402,
                    "velocity": 0.4251968503937008,
                    "duration": 0.08620683333333545
                },
                {
                    "name": "G#5",
                    "midi": 80,
                    "time": 69.99994866666735,
                    "velocity": 0.4409448818897638,
                    "duration": 0.08620683333333545
                },
                {
                    "name": "C#5",
                    "midi": 73,
                    "time": 70.08615550000069,
                    "velocity": 0.6141732283464567,
                    "duration": 0.3448273333333276
                },
                {
                    "name": "F#5",
                    "midi": 78,
                    "time": 70.43098283333401,
                    "velocity": 0.4881889763779528,
                    "duration": 0.08620683333333545
                },
                {
                    "name": "G#5",
                    "midi": 80,
                    "time": 70.51718966666735,
                    "velocity": 0.44881889763779526,
                    "duration": 0.08620683333333545
                },
                {
                    "name": "A#5",
                    "midi": 82,
                    "time": 70.60339650000068,
                    "velocity": 0.5196850393700787,
                    "duration": 0.08620683333333545
                },
                {
                    "name": "G#5",
                    "midi": 80,
                    "time": 70.68960333333402,
                    "velocity": 0.5039370078740157,
                    "duration": 0.08620683333333545
                },
                {
                    "name": "F#5",
                    "midi": 78,
                    "time": 70.77581016666736,
                    "velocity": 0.44881889763779526,
                    "duration": 0.08620683333333545
                },
                {
                    "name": "C#5",
                    "midi": 73,
                    "time": 70.86201700000069,
                    "velocity": 0.4881889763779528,
                    "duration": 0.08620683333333545
                },
                {
                    "name": "G#5",
                    "midi": 80,
                    "time": 70.94822383333403,
                    "velocity": 0.5039370078740157,
                    "duration": 0.08620683333333545
                },
                {
                    "name": "C#6",
                    "midi": 85,
                    "time": 71.03443066666736,
                    "velocity": 0.48031496062992124,
                    "duration": 0.08620683333333545
                },
                {
                    "name": "D#6",
                    "midi": 87,
                    "time": 71.1206375000007,
                    "velocity": 0.5275590551181102,
                    "duration": 0.08620683333333545
                },
                {
                    "name": "C#6",
                    "midi": 85,
                    "time": 71.20684433333403,
                    "velocity": 0.5118110236220472,
                    "duration": 0.08620683333333545
                },
                {
                    "name": "G#5",
                    "midi": 80,
                    "time": 71.29305116666737,
                    "velocity": 0.4645669291338583,
                    "duration": 0.08620683333333545
                },
                {
                    "name": "F#5",
                    "midi": 78,
                    "time": 71.3792580000007,
                    "velocity": 0.5196850393700787,
                    "duration": 0.08620683333333545
                },
                {
                    "name": "C#6",
                    "midi": 85,
                    "time": 71.46546483333404,
                    "velocity": 0.49606299212598426,
                    "duration": 0.08620683333333545
                },
                {
                    "name": "F#6",
                    "midi": 90,
                    "time": 71.55167166666737,
                    "velocity": 0.4645669291338583,
                    "duration": 0.08620683333333545
                },
                {
                    "name": "G#6",
                    "midi": 92,
                    "time": 71.63787850000071,
                    "velocity": 0.5039370078740157,
                    "duration": 0.08620683333333545
                },
                {
                    "name": "F#6",
                    "midi": 90,
                    "time": 71.72408533333405,
                    "velocity": 0.5039370078740157,
                    "duration": 0.08620683333333545
                },
                {
                    "name": "D#6",
                    "midi": 87,
                    "time": 71.81029216666738,
                    "velocity": 0.44881889763779526,
                    "duration": 0.08620683333333545
                },
                {
                    "name": "C#6",
                    "midi": 85,
                    "time": 71.89649900000072,
                    "velocity": 0.5511811023622047,
                    "duration": 0.08620683333333545
                },
                {
                    "name": "G#6",
                    "midi": 92,
                    "time": 71.98270583333405,
                    "velocity": 0.5275590551181102,
                    "duration": 0.08620683333333545
                },
                {
                    "name": "C#7",
                    "midi": 97,
                    "time": 72.06891266666739,
                    "velocity": 0.5118110236220472,
                    "duration": 0.08620683333333545
                },
                {
                    "name": "D#7",
                    "midi": 99,
                    "time": 72.15511950000072,
                    "velocity": 0.5826771653543307,
                    "duration": 0.08620683333333545
                },
                {
                    "name": "C#7",
                    "midi": 97,
                    "time": 72.24132633333406,
                    "velocity": 0.5275590551181102,
                    "duration": 0.08620683333333545
                },
                {
                    "name": "G#6",
                    "midi": 92,
                    "time": 72.3275331666674,
                    "velocity": 0.4881889763779528,
                    "duration": 0.08620683333333545
                },
                {
                    "name": "F#6",
                    "midi": 90,
                    "time": 72.41374000000073,
                    "velocity": 0.4881889763779528,
                    "duration": 0.08620683333333545
                },
                {
                    "name": "G#6",
                    "midi": 92,
                    "time": 72.49994683333406,
                    "velocity": 0.44881889763779526,
                    "duration": 0.08620683333333545
                },
                {
                    "name": "F#6",
                    "midi": 90,
                    "time": 72.5861536666674,
                    "velocity": 0.4409448818897638,
                    "duration": 0.08620683333333545
                },
                {
                    "name": "C#6",
                    "midi": 85,
                    "time": 72.67236050000074,
                    "velocity": 0.49606299212598426,
                    "duration": 0.08620683333333545
                },
                {
                    "name": "C#7",
                    "midi": 97,
                    "time": 72.75856733333407,
                    "velocity": 0.4645669291338583,
                    "duration": 0.08620683333333545
                },
                {
                    "name": "C#6",
                    "midi": 85,
                    "time": 72.8447741666674,
                    "velocity": 0.4645669291338583,
                    "duration": 0.08620683333333545
                },
                {
                    "name": "C#6",
                    "midi": 85,
                    "time": 72.93098100000074,
                    "velocity": 0.49606299212598426,
                    "duration": 0.08620683333333545
                },
                {
                    "name": "D#6",
                    "midi": 87,
                    "time": 73.01718783333408,
                    "velocity": 0.47244094488188976,
                    "duration": 0.08620683333333545
                },
                {
                    "name": "C#6",
                    "midi": 85,
                    "time": 73.10339466666741,
                    "velocity": 0.44881889763779526,
                    "duration": 0.08620683333333545
                },
                {
                    "name": "G#5",
                    "midi": 80,
                    "time": 73.18960150000075,
                    "velocity": 0.4645669291338583,
                    "duration": 0.08620683333333545
                },
                {
                    "name": "G#6",
                    "midi": 92,
                    "time": 73.27580833333408,
                    "velocity": 0.4645669291338583,
                    "duration": 0.08620683333333545
                },
                {
                    "name": "G#5",
                    "midi": 80,
                    "time": 73.36201516666742,
                    "velocity": 0.4645669291338583,
                    "duration": 0.08620683333333545
                },
                {
                    "name": "G#5",
                    "midi": 80,
                    "time": 73.44822200000075,
                    "velocity": 0.49606299212598426,
                    "duration": 0.08620683333333545
                },
                {
                    "name": "A#5",
                    "midi": 82,
                    "time": 73.53442883333409,
                    "velocity": 0.4645669291338583,
                    "duration": 0.08620683333333545
                },
                {
                    "name": "G#5",
                    "midi": 80,
                    "time": 73.62063566666743,
                    "velocity": 0.4330708661417323,
                    "duration": 0.08620683333333545
                },
                {
                    "name": "F#5",
                    "midi": 78,
                    "time": 73.70684250000076,
                    "velocity": 0.4566929133858268,
                    "duration": 0.08620683333333545
                },
                {
                    "name": "F#6",
                    "midi": 90,
                    "time": 73.7930493333341,
                    "velocity": 0.4566929133858268,
                    "duration": 0.08620683333333545
                },
                {
                    "name": "F#5",
                    "midi": 78,
                    "time": 73.87925616666743,
                    "velocity": 0.4330708661417323,
                    "duration": 0.08620683333333545
                },
                {
                    "name": "C#5",
                    "midi": 73,
                    "time": 73.96546300000077,
                    "velocity": 0.49606299212598426,
                    "duration": 0.603447833333334
                },
                {
                    "name": "F#5",
                    "midi": 78,
                    "time": 74.5689108333341,
                    "velocity": 0.5039370078740157,
                    "duration": 0.08620683333333545
                },
                {
                    "name": "G#5",
                    "midi": 80,
                    "time": 74.65511766666744,
                    "velocity": 0.4881889763779528,
                    "duration": 0.08620683333333545
                },
                {
                    "name": "A#5",
                    "midi": 82,
                    "time": 74.74132450000077,
                    "velocity": 0.5511811023622047,
                    "duration": 0.08620683333333545
                },
                {
                    "name": "G#5",
                    "midi": 80,
                    "time": 74.82753133333411,
                    "velocity": 0.5039370078740157,
                    "duration": 0.08620683333333545
                },
                {
                    "name": "F#5",
                    "midi": 78,
                    "time": 74.91373816666744,
                    "velocity": 0.48031496062992124,
                    "duration": 0.08620683333333545
                },
                {
                    "name": "C#5",
                    "midi": 73,
                    "time": 74.99994500000078,
                    "velocity": 0.5433070866141733,
                    "duration": 0.08620683333333545
                },
                {
                    "name": "G#5",
                    "midi": 80,
                    "time": 75.08615183333411,
                    "velocity": 0.5196850393700787,
                    "duration": 0.08620683333333545
                },
                {
                    "name": "C#6",
                    "midi": 85,
                    "time": 75.17235866666745,
                    "velocity": 0.5039370078740157,
                    "duration": 0.08620683333333545
                },
                {
                    "name": "D#6",
                    "midi": 87,
                    "time": 75.25856550000078,
                    "velocity": 0.5748031496062992,
                    "duration": 0.08620683333333545
                },
                {
                    "name": "C#6",
                    "midi": 85,
                    "time": 75.34477233333412,
                    "velocity": 0.5275590551181102,
                    "duration": 0.08620683333333545
                },
                {
                    "name": "G#5",
                    "midi": 80,
                    "time": 75.43097916666746,
                    "velocity": 0.5118110236220472,
                    "duration": 0.08620683333333545
                },
                {
                    "name": "F#5",
                    "midi": 78,
                    "time": 75.51718600000079,
                    "velocity": 0.5826771653543307,
                    "duration": 0.08620683333333545
                },
                {
                    "name": "C#6",
                    "midi": 85,
                    "time": 75.60339283333413,
                    "velocity": 0.5590551181102362,
                    "duration": 0.08620683333333545
                },
                {
                    "name": "F#6",
                    "midi": 90,
                    "time": 75.68959966666746,
                    "velocity": 0.5511811023622047,
                    "duration": 0.08620683333333545
                },
                {
                    "name": "G#6",
                    "midi": 92,
                    "time": 75.7758065000008,
                    "velocity": 0.5984251968503937,
                    "duration": 0.08620683333333545
                },
                {
                    "name": "F#6",
                    "midi": 90,
                    "time": 75.86201333333413,
                    "velocity": 0.5511811023622047,
                    "duration": 0.08620683333333545
                },
                {
                    "name": "C#6",
                    "midi": 85,
                    "time": 75.94822016666747,
                    "velocity": 0.5511811023622047,
                    "duration": 0.08620683333333545
                },
                {
                    "name": "G#5",
                    "midi": 80,
                    "time": 76.0344270000008,
                    "velocity": 0.6220472440944882,
                    "duration": 0.08620683333333545
                },
                {
                    "name": "C#6",
                    "midi": 85,
                    "time": 76.12063383333414,
                    "velocity": 0.6377952755905512,
                    "duration": 0.08620683333333545
                },
                {
                    "name": "G#6",
                    "midi": 92,
                    "time": 76.20684066666747,
                    "velocity": 0.6141732283464567,
                    "duration": 0.08620683333333545
                },
                {
                    "name": "A#6",
                    "midi": 94,
                    "time": 76.29304750000081,
                    "velocity": 0.6771653543307087,
                    "duration": 0.08620683333333545
                },
                {
                    "name": "G#6",
                    "midi": 92,
                    "time": 76.37925433333415,
                    "velocity": 0.6141732283464567,
                    "duration": 0.08620683333333545
                },
                {
                    "name": "C#6",
                    "midi": 85,
                    "time": 76.46546116666748,
                    "velocity": 0.5826771653543307,
                    "duration": 0.08620683333333545
                },
                {
                    "name": "A#6",
                    "midi": 94,
                    "time": 76.55166800000082,
                    "velocity": 0.6850393700787402,
                    "duration": 0.08620683333333545
                },
                {
                    "name": "C#6",
                    "midi": 85,
                    "time": 76.63787483333415,
                    "velocity": 0.6062992125984252,
                    "duration": 0.08620683333333545
                },
                {
                    "name": "G#6",
                    "midi": 92,
                    "time": 76.72408166666749,
                    "velocity": 0.5590551181102362,
                    "duration": 0.08620683333333545
                },
                {
                    "name": "A#5",
                    "midi": 82,
                    "time": 76.81028850000082,
                    "velocity": 0.6535433070866141,
                    "duration": 0.08620683333333545
                },
                {
                    "name": "G#6",
                    "midi": 92,
                    "time": 76.89649533333416,
                    "velocity": 0.6141732283464567,
                    "duration": 0.08620683333333545
                },
                {
                    "name": "C#6",
                    "midi": 85,
                    "time": 76.9827021666675,
                    "velocity": 0.5511811023622047,
                    "duration": 0.08620683333333545
                },
                {
                    "name": "F#6",
                    "midi": 90,
                    "time": 77.06890900000083,
                    "velocity": 0.6535433070866141,
                    "duration": 0.08620683333333545
                },
                {
                    "name": "A#5",
                    "midi": 82,
                    "time": 77.15511583333416,
                    "velocity": 0.5984251968503937,
                    "duration": 0.08620683333333545
                },
                {
                    "name": "D#6",
                    "midi": 87,
                    "time": 77.2413226666675,
                    "velocity": 0.5669291338582677,
                    "duration": 0.08620683333333545
                },
                {
                    "name": "G#5",
                    "midi": 80,
                    "time": 77.32752950000084,
                    "velocity": 0.6535433070866141,
                    "duration": 0.08620683333333545
                },
                {
                    "name": "C#6",
                    "midi": 85,
                    "time": 77.41373633333417,
                    "velocity": 0.5984251968503937,
                    "duration": 0.08620683333333545
                },
                {
                    "name": "C#5",
                    "midi": 73,
                    "time": 77.4999431666675,
                    "velocity": 0.5669291338582677,
                    "duration": 0.08620683333333545
                },
                {
                    "name": "A#5",
                    "midi": 82,
                    "time": 77.58615000000084,
                    "velocity": 0.6535433070866141,
                    "duration": 0.08620683333333545
                },
                {
                    "name": "C#5",
                    "midi": 73,
                    "time": 77.67235683333418,
                    "velocity": 0.6141732283464567,
                    "duration": 0.08620683333333545
                },
                {
                    "name": "G#5",
                    "midi": 80,
                    "time": 77.75856366666751,
                    "velocity": 0.5826771653543307,
                    "duration": 0.08620683333333545
                },
                {
                    "name": "A#4",
                    "midi": 70,
                    "time": 77.84477050000085,
                    "velocity": 0.6535433070866141,
                    "duration": 0.08620683333333545
                },
                {
                    "name": "G#5",
                    "midi": 80,
                    "time": 77.93097733333418,
                    "velocity": 0.5669291338582677,
                    "duration": 0.08620683333333545
                },
                {
                    "name": "C#5",
                    "midi": 73,
                    "time": 78.01718416666752,
                    "velocity": 0.5669291338582677,
                    "duration": 0.08620683333333545
                },
                {
                    "name": "F#5",
                    "midi": 78,
                    "time": 78.10339100000085,
                    "velocity": 0.6535433070866141,
                    "duration": 0.08620683333333545
                },
                {
                    "name": "A#4",
                    "midi": 70,
                    "time": 78.18959783333419,
                    "velocity": 0.6141732283464567,
                    "duration": 0.08620683333333545
                },
                {
                    "name": "D#5",
                    "midi": 75,
                    "time": 78.27580466666753,
                    "velocity": 0.5826771653543307,
                    "duration": 0.08620683333333545
                },
                {
                    "name": "G#4",
                    "midi": 68,
                    "time": 78.36201150000086,
                    "velocity": 0.6535433070866141,
                    "duration": 0.08620683333333545
                },
                {
                    "name": "C#5",
                    "midi": 73,
                    "time": 78.4482183333342,
                    "velocity": 0.6062992125984252,
                    "duration": 0.08620683333333545
                },
                {
                    "name": "C#4",
                    "midi": 61,
                    "time": 78.53442516666753,
                    "velocity": 0.5984251968503937,
                    "duration": 0.08620683333333545
                },
                {
                    "name": "A#4",
                    "midi": 70,
                    "time": 78.62063200000087,
                    "velocity": 0.6850393700787402,
                    "duration": 0.08620683333333545
                },
                {
                    "name": "C#4",
                    "midi": 61,
                    "time": 78.7068388333342,
                    "velocity": 0.6456692913385826,
                    "duration": 0.08620683333333545
                },
                {
                    "name": "G#4",
                    "midi": 68,
                    "time": 78.79304566666754,
                    "velocity": 0.6062992125984252,
                    "duration": 0.08620683333333545
                },
                {
                    "name": "A#3",
                    "midi": 58,
                    "time": 78.87925250000087,
                    "velocity": 0.6929133858267716,
                    "duration": 0.08620683333333545
                },
                {
                    "name": "G#4",
                    "midi": 68,
                    "time": 78.96545933333421,
                    "velocity": 0.6062992125984252,
                    "duration": 0.08620683333333545
                },
                {
                    "name": "C#4",
                    "midi": 61,
                    "time": 79.05166616666754,
                    "velocity": 0.6377952755905512,
                    "duration": 0.08620683333333545
                },
                {
                    "name": "F#4",
                    "midi": 66,
                    "time": 79.13787300000088,
                    "velocity": 0.7322834645669292,
                    "duration": 0.08620683333333545
                },
                {
                    "name": "A#3",
                    "midi": 58,
                    "time": 79.22407983333422,
                    "velocity": 0.6850393700787402,
                    "duration": 0.08620683333333545
                },
                {
                    "name": "D#4",
                    "midi": 63,
                    "time": 79.31028666666755,
                    "velocity": 0.6771653543307087,
                    "duration": 0.08620683333333545
                },
                {
                    "name": "G#3",
                    "midi": 56,
                    "time": 79.39649350000089,
                    "velocity": 0.7637795275590551,
                    "duration": 0.08620683333333545
                },
                {
                    "name": "C#4",
                    "midi": 61,
                    "time": 79.48270033333422,
                    "velocity": 0.7165354330708661,
                    "duration": 0.08620683333333545
                },
                {
                    "name": "C#3",
                    "midi": 49,
                    "time": 79.56890716666756,
                    "velocity": 0.6929133858267716,
                    "duration": 0.08620683333333545
                },
                {
                    "name": "A#3",
                    "midi": 58,
                    "time": 79.65511400000089,
                    "velocity": 0.7952755905511811,
                    "duration": 0.08620683333333545
                },
                {
                    "name": "F#3",
                    "midi": 54,
                    "time": 79.74132083333423,
                    "velocity": 0.7244094488188977,
                    "duration": 0.08620683333333545
                },
                {
                    "name": "D#4",
                    "midi": 63,
                    "time": 79.82752766666756,
                    "velocity": 0.6850393700787402,
                    "duration": 0.08620683333333545
                },
                {
                    "name": "C#3",
                    "midi": 49,
                    "time": 79.9137345000009,
                    "velocity": 0.7952755905511811,
                    "duration": 0.08620683333333545
                },
                {
                    "name": "C#4",
                    "midi": 61,
                    "time": 79.99994133333423,
                    "velocity": 0.7244094488188977,
                    "duration": 0.08620683333333545
                },
                {
                    "name": "G#3",
                    "midi": 56,
                    "time": 80.08614816666757,
                    "velocity": 0.6771653543307087,
                    "duration": 0.08620683333333545
                },
                {
                    "name": "A#3",
                    "midi": 58,
                    "time": 80.1723550000009,
                    "velocity": 0.7952755905511811,
                    "duration": 0.08620683333333545
                },
                {
                    "name": "F#3",
                    "midi": 54,
                    "time": 80.25856183333424,
                    "velocity": 0.7322834645669292,
                    "duration": 0.08620683333333545
                },
                {
                    "name": "D#4",
                    "midi": 63,
                    "time": 80.34476866666758,
                    "velocity": 0.7007874015748031,
                    "duration": 0.08620683333333545
                },
                {
                    "name": "C#3",
                    "midi": 49,
                    "time": 80.43097550000091,
                    "velocity": 0.7952755905511811,
                    "duration": 0.08620683333333545
                },
                {
                    "name": "C#4",
                    "midi": 61,
                    "time": 80.51718233333425,
                    "velocity": 0.7322834645669292,
                    "duration": 0.08620683333333545
                },
                {
                    "name": "G#3",
                    "midi": 56,
                    "time": 80.60338916666758,
                    "velocity": 0.7007874015748031,
                    "duration": 0.08620683333333545
                },
                {
                    "name": "A#3",
                    "midi": 58,
                    "time": 80.68959600000092,
                    "velocity": 0.7952755905511811,
                    "duration": 0.25862050000000636
                },
                {
                    "name": "F#3",
                    "midi": 54,
                    "time": 80.94821650000092,
                    "velocity": 0.3779527559055118,
                    "duration": 0.08620683333333545
                },
                {
                    "name": "A#3",
                    "midi": 58,
                    "time": 80.94821650000092,
                    "velocity": 0.47244094488188976,
                    "duration": 0.08620683333333545
                },
                {
                    "name": "G#3",
                    "midi": 56,
                    "time": 81.03442333333426,
                    "velocity": 0.4645669291338583,
                    "duration": 0.08620683333333545
                },
                {
                    "name": "F#3",
                    "midi": 54,
                    "time": 81.1206301666676,
                    "velocity": 0.4251968503937008,
                    "duration": 0.08620683333333545
                },
                {
                    "name": "F#4",
                    "midi": 66,
                    "time": 81.20683700000093,
                    "velocity": 0.49606299212598426,
                    "duration": 0.08620683333333545
                },
                {
                    "name": "D#4",
                    "midi": 63,
                    "time": 81.20683700000093,
                    "velocity": 0.3937007874015748,
                    "duration": 0.08620683333333545
                },
                {
                    "name": "C#4",
                    "midi": 61,
                    "time": 81.29304383333427,
                    "velocity": 0.47244094488188976,
                    "duration": 0.08620683333333545
                },
                {
                    "name": "A#3",
                    "midi": 58,
                    "time": 81.3792506666676,
                    "velocity": 0.4409448818897638,
                    "duration": 0.08620683333333545
                },
                {
                    "name": "A#4",
                    "midi": 70,
                    "time": 81.46545750000094,
                    "velocity": 0.5039370078740157,
                    "duration": 0.08620683333333545
                },
                {
                    "name": "F#4",
                    "midi": 66,
                    "time": 81.46545750000094,
                    "velocity": 0.3937007874015748,
                    "duration": 0.08620683333333545
                },
                {
                    "name": "D#4",
                    "midi": 63,
                    "time": 81.55166433333427,
                    "velocity": 0.4881889763779528,
                    "duration": 0.08620683333333545
                },
                {
                    "name": "C#4",
                    "midi": 61,
                    "time": 81.63787116666761,
                    "velocity": 0.4566929133858268,
                    "duration": 0.08620683333333545
                },
                {
                    "name": "A#4",
                    "midi": 70,
                    "time": 81.72407800000094,
                    "velocity": 0.4094488188976378,
                    "duration": 0.08620683333333545
                },
                {
                    "name": "C#5",
                    "midi": 73,
                    "time": 81.72407800000094,
                    "velocity": 0.5196850393700787,
                    "duration": 0.08620683333333545
                },
                {
                    "name": "G#4",
                    "midi": 68,
                    "time": 81.81028483333428,
                    "velocity": 0.5039370078740157,
                    "duration": 0.08620683333333545
                },
                {
                    "name": "F#4",
                    "midi": 66,
                    "time": 81.89649166666761,
                    "velocity": 0.4566929133858268,
                    "duration": 0.08620683333333545
                },
                {
                    "name": "F#5",
                    "midi": 78,
                    "time": 81.98269850000095,
                    "velocity": 0.5433070866141733,
                    "duration": 0.08620683333333545
                },
                {
                    "name": "D#5",
                    "midi": 75,
                    "time": 81.98269850000095,
                    "velocity": 0.4330708661417323,
                    "duration": 0.08620683333333545
                },
                {
                    "name": "C#5",
                    "midi": 73,
                    "time": 82.06890533333429,
                    "velocity": 0.4645669291338583,
                    "duration": 0.08620683333333545
                },
                {
                    "name": "A#4",
                    "midi": 70,
                    "time": 82.15511216666762,
                    "velocity": 0.4645669291338583,
                    "duration": 0.08620683333333545
                },
                {
                    "name": "A#5",
                    "midi": 82,
                    "time": 82.24131900000096,
                    "velocity": 0.5511811023622047,
                    "duration": 0.08620683333333545
                },
                {
                    "name": "F#5",
                    "midi": 78,
                    "time": 82.24131900000096,
                    "velocity": 0.4330708661417323,
                    "duration": 0.08620683333333545
                },
                {
                    "name": "D#5",
                    "midi": 75,
                    "time": 82.32752583333429,
                    "velocity": 0.5118110236220472,
                    "duration": 0.08620683333333545
                },
                {
                    "name": "C#5",
                    "midi": 73,
                    "time": 82.41373266666763,
                    "velocity": 0.5039370078740157,
                    "duration": 0.08620683333333545
                },
                {
                    "name": "C#6",
                    "midi": 85,
                    "time": 82.49993950000096,
                    "velocity": 0.5590551181102362,
                    "duration": 0.08620683333333545
                },
                {
                    "name": "A#5",
                    "midi": 82,
                    "time": 82.49993950000096,
                    "velocity": 0.4409448818897638,
                    "duration": 0.08620683333333545
                },
                {
                    "name": "G#5",
                    "midi": 80,
                    "time": 82.5861463333343,
                    "velocity": 0.5275590551181102,
                    "duration": 0.08620683333333545
                },
                {
                    "name": "F#5",
                    "midi": 78,
                    "time": 82.67235316666763,
                    "velocity": 0.5275590551181102,
                    "duration": 0.08620683333333545
                },
                {
                    "name": "F#6",
                    "midi": 90,
                    "time": 82.75856000000097,
                    "velocity": 0.5748031496062992,
                    "duration": 0.08620683333333545
                },
                {
                    "name": "D#6",
                    "midi": 87,
                    "time": 82.75856000000097,
                    "velocity": 0.4566929133858268,
                    "duration": 0.08620683333333545
                },
                {
                    "name": "C#6",
                    "midi": 85,
                    "time": 82.8447668333343,
                    "velocity": 0.5275590551181102,
                    "duration": 0.08620683333333545
                },
                {
                    "name": "A#5",
                    "midi": 82,
                    "time": 82.93097366666764,
                    "velocity": 0.5118110236220472,
                    "duration": 0.08620683333333545
                },
                {
                    "name": "A#6",
                    "midi": 94,
                    "time": 83.01718050000098,
                    "velocity": 0.5905511811023622,
                    "duration": 0.08620683333333545
                },
                {
                    "name": "F#6",
                    "midi": 90,
                    "time": 83.01718050000098,
                    "velocity": 0.4645669291338583,
                    "duration": 0.08620683333333545
                },
                {
                    "name": "D#6",
                    "midi": 87,
                    "time": 83.10338733333431,
                    "velocity": 0.5433070866141733,
                    "duration": 0.08620683333333545
                },
                {
                    "name": "C#6",
                    "midi": 85,
                    "time": 83.18959416666765,
                    "velocity": 0.5196850393700787,
                    "duration": 0.08620683333333545
                },
                {
                    "name": "F#6",
                    "midi": 90,
                    "time": 83.27580100000098,
                    "velocity": 0.6141732283464567,
                    "duration": 0.08620683333333545
                },
                {
                    "name": "D#6",
                    "midi": 87,
                    "time": 83.27580100000098,
                    "velocity": 0.4881889763779528,
                    "duration": 0.08620683333333545
                },
                {
                    "name": "C#6",
                    "midi": 85,
                    "time": 83.36200783333432,
                    "velocity": 0.5511811023622047,
                    "duration": 0.08620683333333545
                },
                {
                    "name": "A#5",
                    "midi": 82,
                    "time": 83.44821466666765,
                    "velocity": 0.5433070866141733,
                    "duration": 0.08620683333333545
                },
                {
                    "name": "A#6",
                    "midi": 94,
                    "time": 83.53442150000099,
                    "velocity": 0.6141732283464567,
                    "duration": 0.08620683333333545
                },
                {
                    "name": "F#6",
                    "midi": 90,
                    "time": 83.53442150000099,
                    "velocity": 0.4881889763779528,
                    "duration": 0.08620683333333545
                },
                {
                    "name": "D#6",
                    "midi": 87,
                    "time": 83.62062833333432,
                    "velocity": 0.5590551181102362,
                    "duration": 0.08620683333333545
                },
                {
                    "name": "C#6",
                    "midi": 85,
                    "time": 83.70683516666766,
                    "velocity": 0.5511811023622047,
                    "duration": 0.08620683333333545
                },
                {
                    "name": "F#6",
                    "midi": 90,
                    "time": 83.793042000001,
                    "velocity": 0.6377952755905512,
                    "duration": 0.08620683333333545
                },
                {
                    "name": "D#6",
                    "midi": 87,
                    "time": 83.793042000001,
                    "velocity": 0.5039370078740157,
                    "duration": 0.08620683333333545
                },
                {
                    "name": "C#6",
                    "midi": 85,
                    "time": 83.87924883333433,
                    "velocity": 0.5826771653543307,
                    "duration": 0.08620683333333545
                },
                {
                    "name": "A#5",
                    "midi": 82,
                    "time": 83.96545566666767,
                    "velocity": 0.5748031496062992,
                    "duration": 0.08620683333333545
                },
                {
                    "name": "A#6",
                    "midi": 94,
                    "time": 84.051662500001,
                    "velocity": 0.6377952755905512,
                    "duration": 0.08620683333333545
                },
                {
                    "name": "F#6",
                    "midi": 90,
                    "time": 84.051662500001,
                    "velocity": 0.5039370078740157,
                    "duration": 0.08620683333333545
                },
                {
                    "name": "D#6",
                    "midi": 87,
                    "time": 84.13786933333434,
                    "velocity": 0.5905511811023622,
                    "duration": 0.08620683333333545
                },
                {
                    "name": "C#6",
                    "midi": 85,
                    "time": 84.22407616666767,
                    "velocity": 0.5826771653543307,
                    "duration": 0.08620683333333545
                },
                {
                    "name": "F#6",
                    "midi": 90,
                    "time": 84.31028300000101,
                    "velocity": 0.6456692913385826,
                    "duration": 0.08620683333333545
                },
                {
                    "name": "D#6",
                    "midi": 87,
                    "time": 84.31028300000101,
                    "velocity": 0.5118110236220472,
                    "duration": 0.08620683333333545
                },
                {
                    "name": "C#6",
                    "midi": 85,
                    "time": 84.39648983333434,
                    "velocity": 0.5905511811023622,
                    "duration": 0.08620683333333545
                },
                {
                    "name": "A#5",
                    "midi": 82,
                    "time": 84.48269666666768,
                    "velocity": 0.5905511811023622,
                    "duration": 0.08620683333333545
                },
                {
                    "name": "A#6",
                    "midi": 94,
                    "time": 84.56890350000101,
                    "velocity": 0.6692913385826772,
                    "duration": 0.08620683333333545
                },
                {
                    "name": "F#6",
                    "midi": 90,
                    "time": 84.56890350000101,
                    "velocity": 0.5275590551181102,
                    "duration": 0.08620683333333545
                },
                {
                    "name": "D#6",
                    "midi": 87,
                    "time": 84.65511033333435,
                    "velocity": 0.6062992125984252,
                    "duration": 0.08620683333333545
                },
                {
                    "name": "C#6",
                    "midi": 85,
                    "time": 84.74131716666768,
                    "velocity": 0.5905511811023622,
                    "duration": 0.08620683333333545
                },
                {
                    "name": "A#5",
                    "midi": 82,
                    "time": 84.82752400000102,
                    "velocity": 0.7007874015748031,
                    "duration": 0.08620683333333545
                },
                {
                    "name": "F#6",
                    "midi": 90,
                    "time": 84.82752400000102,
                    "velocity": 0.7007874015748031,
                    "duration": 0.08620683333333545
                },
                {
                    "name": "F#5",
                    "midi": 78,
                    "time": 84.99993766666769,
                    "velocity": 0.7401574803149606,
                    "duration": 0.08620683333333545
                },
                {
                    "name": "F#6",
                    "midi": 90,
                    "time": 84.99993766666769,
                    "velocity": 0.7401574803149606,
                    "duration": 0.08620683333333545
                },
                {
                    "name": "D#6",
                    "midi": 87,
                    "time": 85.08614450000103,
                    "velocity": 0.7401574803149606,
                    "duration": 0.08620683333333545
                },
                {
                    "name": "D#5",
                    "midi": 75,
                    "time": 85.08614450000103,
                    "velocity": 0.7401574803149606,
                    "duration": 0.08620683333333545
                },
                {
                    "name": "C#6",
                    "midi": 85,
                    "time": 85.17235133333436,
                    "velocity": 0.7480314960629921,
                    "duration": 0.08620683333333545
                },
                {
                    "name": "C#5",
                    "midi": 73,
                    "time": 85.17235133333436,
                    "velocity": 0.7480314960629921,
                    "duration": 0.08620683333333545
                },
                {
                    "name": "A#5",
                    "midi": 82,
                    "time": 85.2585581666677,
                    "velocity": 0.7559055118110236,
                    "duration": 0.08620683333333545
                },
                {
                    "name": "A#4",
                    "midi": 70,
                    "time": 85.2585581666677,
                    "velocity": 0.7559055118110236,
                    "duration": 0.08620683333333545
                },
                {
                    "name": "G#5",
                    "midi": 80,
                    "time": 85.34476500000103,
                    "velocity": 0.7637795275590551,
                    "duration": 0.08620683333333545
                },
                {
                    "name": "G#4",
                    "midi": 68,
                    "time": 85.34476500000103,
                    "velocity": 0.7637795275590551,
                    "duration": 0.08620683333333545
                },
                {
                    "name": "F#5",
                    "midi": 78,
                    "time": 85.43097183333437,
                    "velocity": 0.7716535433070866,
                    "duration": 0.08620683333333545
                },
                {
                    "name": "F#4",
                    "midi": 66,
                    "time": 85.43097183333437,
                    "velocity": 0.7716535433070866,
                    "duration": 0.08620683333333545
                },
                {
                    "name": "D#5",
                    "midi": 75,
                    "time": 85.5171786666677,
                    "velocity": 0.7716535433070866,
                    "duration": 0.08620683333333545
                },
                {
                    "name": "D#4",
                    "midi": 63,
                    "time": 85.5171786666677,
                    "velocity": 0.7716535433070866,
                    "duration": 0.08620683333333545
                },
                {
                    "name": "C#5",
                    "midi": 73,
                    "time": 85.60338550000104,
                    "velocity": 0.7874015748031497,
                    "duration": 0.08620683333333545
                },
                {
                    "name": "C#4",
                    "midi": 61,
                    "time": 85.60338550000104,
                    "velocity": 0.7874015748031497,
                    "duration": 0.08620683333333545
                },
                {
                    "name": "A#4",
                    "midi": 70,
                    "time": 85.68959233333437,
                    "velocity": 0.7952755905511811,
                    "duration": 0.08620683333333545
                },
                {
                    "name": "A#3",
                    "midi": 58,
                    "time": 85.68959233333437,
                    "velocity": 0.7952755905511811,
                    "duration": 0.08620683333333545
                },
                {
                    "name": "G#4",
                    "midi": 68,
                    "time": 85.77579916666771,
                    "velocity": 0.8110236220472441,
                    "duration": 0.08620683333333545
                },
                {
                    "name": "G#3",
                    "midi": 56,
                    "time": 85.77579916666771,
                    "velocity": 0.8110236220472441,
                    "duration": 0.08620683333333545
                },
                {
                    "name": "F#3",
                    "midi": 54,
                    "time": 85.86200600000105,
                    "velocity": 0.8740157480314961,
                    "duration": 0.12931025000000318
                },
                {
                    "name": "F#4",
                    "midi": 66,
                    "time": 85.86200600000105,
                    "velocity": 0.8740157480314961,
                    "duration": 0.12931025000000318
                },
                {
                    "name": "A#6",
                    "midi": 94,
                    "time": 86.37924700000104,
                    "velocity": 0.9291338582677166,
                    "duration": 0.5172409999999985
                },
                {
                    "name": "F#6",
                    "midi": 90,
                    "time": 86.37924700000104,
                    "velocity": 0.8503937007874016,
                    "duration": 0.5172409999999985
                },
                {
                    "name": "C#6",
                    "midi": 85,
                    "time": 86.37924700000104,
                    "velocity": 0.8503937007874016,
                    "duration": 0.5172409999999985
                },
                {
                    "name": "A#5",
                    "midi": 82,
                    "time": 86.37924700000104,
                    "velocity": 0.8503937007874016,
                    "duration": 0.5172409999999985
                },
                {
                    "name": "F#3",
                    "midi": 54,
                    "time": 86.89648800000104,
                    "velocity": 0.8818897637795275,
                    "duration": 1.034481999999997
                }
            ],
            "controlChanges": {
                "7": [
                    {
                        "number": 7,
                        "time": 0,
                        "value": 0.7874015748031497
                    }
                ],
                "64": [
                    {
                        "number": 64,
                        "time": 0,
                        "value": 0
                    },
                    {
                        "number": 64,
                        "time": 8.275856000000013,
                        "value": 0
                    },
                    {
                        "number": 64,
                        "time": 49.655136000000226,
                        "value": 0
                    }
                ],
                "91": [
                    {
                        "number": 91,
                        "time": 0,
                        "value": 1
                    },
                    {
                        "number": 91,
                        "time": 8.275856000000013,
                        "value": 1
                    },
                    {
                        "number": 91,
                        "time": 49.655136000000226,
                        "value": 1
                    }
                ]
            },
            "id": 1,
            "name": "Piano right",
            "instrumentNumber": 0,
            "instrument": "acoustic grand piano",
            "instrumentFamily": "piano",
            "channelNumber": 0,
            "isPercussion": false
        },
        {
            "startTime": 0.0010775854166666667,
            "duration": 87.93097000000057,
            "length": 634,
            "notes": [
                {
                    "name": "F#3",
                    "midi": 54,
                    "time": 0.0010775854166666667,
                    "velocity": 0.5905511811023622,
                    "duration": 0.09698268750000001
                },
                {
                    "name": "C#4",
                    "midi": 61,
                    "time": 0.0010775854166666667,
                    "velocity": 0.5905511811023622,
                    "duration": 0.09698268750000001
                },
                {
                    "name": "A#3",
                    "midi": 58,
                    "time": 0.0010775854166666667,
                    "velocity": 0.5905511811023622,
                    "duration": 0.09698268750000001
                },
                {
                    "name": "F#4",
                    "midi": 66,
                    "time": 0.0010775854166666667,
                    "velocity": 0.7007874015748031,
                    "duration": 0.09698268750000001
                },
                {
                    "name": "F#3",
                    "midi": 54,
                    "time": 0.25862050000000003,
                    "velocity": 0.5590551181102362,
                    "duration": 0.0969826875
                },
                {
                    "name": "D#4",
                    "midi": 63,
                    "time": 0.25862050000000003,
                    "velocity": 0.5590551181102362,
                    "duration": 0.0969826875
                },
                {
                    "name": "B3",
                    "midi": 59,
                    "time": 0.25862050000000003,
                    "velocity": 0.5590551181102362,
                    "duration": 0.0969826875
                },
                {
                    "name": "F#4",
                    "midi": 66,
                    "time": 0.25862050000000003,
                    "velocity": 0.6614173228346457,
                    "duration": 0.0969826875
                },
                {
                    "name": "F#3",
                    "midi": 54,
                    "time": 0.5172410000000001,
                    "velocity": 0.5905511811023622,
                    "duration": 0.09698268750000005
                },
                {
                    "name": "C#4",
                    "midi": 61,
                    "time": 0.5172410000000001,
                    "velocity": 0.5905511811023622,
                    "duration": 0.09698268750000005
                },
                {
                    "name": "A#3",
                    "midi": 58,
                    "time": 0.5172410000000001,
                    "velocity": 0.5905511811023622,
                    "duration": 0.09698268750000005
                },
                {
                    "name": "F#4",
                    "midi": 66,
                    "time": 0.5172410000000001,
                    "velocity": 0.7007874015748031,
                    "duration": 0.09698268750000005
                },
                {
                    "name": "F#2",
                    "midi": 42,
                    "time": 1.0344820000000001,
                    "velocity": 0.3779527559055118,
                    "duration": 0.09698268750000016
                },
                {
                    "name": "F#3",
                    "midi": 54,
                    "time": 1.0344820000000001,
                    "velocity": 0.44881889763779526,
                    "duration": 0.09698268750000016
                },
                {
                    "name": "F#4",
                    "midi": 66,
                    "time": 1.2931025000000003,
                    "velocity": 0.4330708661417323,
                    "duration": 0.09698268749999994
                },
                {
                    "name": "D#4",
                    "midi": 63,
                    "time": 1.2931025000000003,
                    "velocity": 0.36220472440944884,
                    "duration": 0.09698268749999994
                },
                {
                    "name": "B3",
                    "midi": 59,
                    "time": 1.2931025000000003,
                    "velocity": 0.36220472440944884,
                    "duration": 0.09698268749999994
                },
                {
                    "name": "F#4",
                    "midi": 66,
                    "time": 1.5517230000000002,
                    "velocity": 0.44881889763779526,
                    "duration": 0.09698268750000016
                },
                {
                    "name": "C#4",
                    "midi": 61,
                    "time": 1.5517230000000002,
                    "velocity": 0.3779527559055118,
                    "duration": 0.09698268750000016
                },
                {
                    "name": "A#3",
                    "midi": 58,
                    "time": 1.5517230000000002,
                    "velocity": 0.3779527559055118,
                    "duration": 0.09698268750000016
                },
                {
                    "name": "C#2",
                    "midi": 37,
                    "time": 2.0689640000000002,
                    "velocity": 0.3700787401574803,
                    "duration": 0.09698268749999972
                },
                {
                    "name": "C#3",
                    "midi": 49,
                    "time": 2.0689640000000002,
                    "velocity": 0.4409448818897638,
                    "duration": 0.09698268749999972
                },
                {
                    "name": "F4",
                    "midi": 65,
                    "time": 2.3275845,
                    "velocity": 0.47244094488188976,
                    "duration": 0.09698268750000016
                },
                {
                    "name": "C#4",
                    "midi": 61,
                    "time": 2.3275845,
                    "velocity": 0.3937007874015748,
                    "duration": 0.09698268750000016
                },
                {
                    "name": "G#3",
                    "midi": 56,
                    "time": 2.3275845,
                    "velocity": 0.3937007874015748,
                    "duration": 0.09698268750000016
                },
                {
                    "name": "D#4",
                    "midi": 63,
                    "time": 2.586205,
                    "velocity": 0.49606299212598426,
                    "duration": 0.09698268750000016
                },
                {
                    "name": "B3",
                    "midi": 59,
                    "time": 2.586205,
                    "velocity": 0.41732283464566927,
                    "duration": 0.09698268750000016
                },
                {
                    "name": "G#3",
                    "midi": 56,
                    "time": 2.586205,
                    "velocity": 0.41732283464566927,
                    "duration": 0.09698268750000016
                },
                {
                    "name": "G#2",
                    "midi": 44,
                    "time": 2.8448255000000002,
                    "velocity": 0.5354330708661418,
                    "duration": 0.09698268750000016
                },
                {
                    "name": "C#3",
                    "midi": 49,
                    "time": 3.1034460000000004,
                    "velocity": 0.5511811023622047,
                    "duration": 0.7758615
                },
                {
                    "name": "D#4",
                    "midi": 63,
                    "time": 3.3620665,
                    "velocity": 0.5748031496062992,
                    "duration": 0.25862050000000014
                },
                {
                    "name": "B3",
                    "midi": 59,
                    "time": 3.3620665,
                    "velocity": 0.4881889763779528,
                    "duration": 0.25862050000000014
                },
                {
                    "name": "G#3",
                    "midi": 56,
                    "time": 3.3620665,
                    "velocity": 0.4881889763779528,
                    "duration": 0.25862050000000014
                },
                {
                    "name": "C#4",
                    "midi": 61,
                    "time": 3.620687,
                    "velocity": 0.6141732283464567,
                    "duration": 0.25862050000000014
                },
                {
                    "name": "B3",
                    "midi": 59,
                    "time": 3.620687,
                    "velocity": 0.5039370078740157,
                    "duration": 0.25862050000000014
                },
                {
                    "name": "G#3",
                    "midi": 56,
                    "time": 3.620687,
                    "velocity": 0.5039370078740157,
                    "duration": 0.25862050000000014
                },
                {
                    "name": "A#3",
                    "midi": 58,
                    "time": 4.1379280000000005,
                    "velocity": 0.5748031496062992,
                    "duration": 0.09698268749999972
                },
                {
                    "name": "F#4",
                    "midi": 66,
                    "time": 4.1379280000000005,
                    "velocity": 0.6850393700787402,
                    "duration": 0.09698268749999972
                },
                {
                    "name": "C#4",
                    "midi": 61,
                    "time": 4.1379280000000005,
                    "velocity": 0.5748031496062992,
                    "duration": 0.09698268749999972
                },
                {
                    "name": "F#3",
                    "midi": 54,
                    "time": 4.1379280000000005,
                    "velocity": 0.5748031496062992,
                    "duration": 0.09698268749999972
                },
                {
                    "name": "F#4",
                    "midi": 66,
                    "time": 4.396548500000001,
                    "velocity": 0.6456692913385826,
                    "duration": 0.09698268749999972
                },
                {
                    "name": "D#4",
                    "midi": 63,
                    "time": 4.396548500000001,
                    "velocity": 0.5433070866141733,
                    "duration": 0.09698268749999972
                },
                {
                    "name": "B3",
                    "midi": 59,
                    "time": 4.396548500000001,
                    "velocity": 0.5433070866141733,
                    "duration": 0.09698268749999972
                },
                {
                    "name": "F#3",
                    "midi": 54,
                    "time": 4.396548500000001,
                    "velocity": 0.5433070866141733,
                    "duration": 0.09698268749999972
                },
                {
                    "name": "F#4",
                    "midi": 66,
                    "time": 4.655169000000001,
                    "velocity": 0.6850393700787402,
                    "duration": 0.09698268749999972
                },
                {
                    "name": "C#4",
                    "midi": 61,
                    "time": 4.655169000000001,
                    "velocity": 0.5748031496062992,
                    "duration": 0.09698268749999972
                },
                {
                    "name": "A#3",
                    "midi": 58,
                    "time": 4.655169000000001,
                    "velocity": 0.5748031496062992,
                    "duration": 0.09698268749999972
                },
                {
                    "name": "F#3",
                    "midi": 54,
                    "time": 4.655169000000001,
                    "velocity": 0.5748031496062992,
                    "duration": 0.09698268749999972
                },
                {
                    "name": "F#2",
                    "midi": 42,
                    "time": 5.17241,
                    "velocity": 0.3700787401574803,
                    "duration": 0.09698268749999972
                },
                {
                    "name": "F#3",
                    "midi": 54,
                    "time": 5.17241,
                    "velocity": 0.4409448818897638,
                    "duration": 0.09698268749999972
                },
                {
                    "name": "F#4",
                    "midi": 66,
                    "time": 5.4310305,
                    "velocity": 0.3779527559055118,
                    "duration": 0.09698268749999972
                },
                {
                    "name": "D#4",
                    "midi": 63,
                    "time": 5.4310305,
                    "velocity": 0.31496062992125984,
                    "duration": 0.09698268749999972
                },
                {
                    "name": "B3",
                    "midi": 59,
                    "time": 5.4310305,
                    "velocity": 0.31496062992125984,
                    "duration": 0.09698268749999972
                },
                {
                    "name": "F#4",
                    "midi": 66,
                    "time": 5.689651,
                    "velocity": 0.44881889763779526,
                    "duration": 0.09698268749999972
                },
                {
                    "name": "C#4",
                    "midi": 61,
                    "time": 5.689651,
                    "velocity": 0.3779527559055118,
                    "duration": 0.09698268749999972
                },
                {
                    "name": "A#3",
                    "midi": 58,
                    "time": 5.689651,
                    "velocity": 0.3779527559055118,
                    "duration": 0.09698268749999972
                },
                {
                    "name": "B2",
                    "midi": 47,
                    "time": 6.206891999999999,
                    "velocity": 0.5196850393700787,
                    "duration": 0.25862050000000014
                },
                {
                    "name": "D#4",
                    "midi": 63,
                    "time": 6.465512499999999,
                    "velocity": 0.5590551181102362,
                    "duration": 0.5172410000000003
                },
                {
                    "name": "G#3",
                    "midi": 56,
                    "time": 6.465512499999999,
                    "velocity": 0.47244094488188976,
                    "duration": 0.5172410000000003
                },
                {
                    "name": "B2",
                    "midi": 47,
                    "time": 6.982753499999999,
                    "velocity": 0.5039370078740157,
                    "duration": 0.22629293750000024
                },
                {
                    "name": "A#2",
                    "midi": 46,
                    "time": 7.2090464375,
                    "velocity": 0.44881889763779526,
                    "duration": 0.25862050000000103
                },
                {
                    "name": "F3",
                    "midi": 53,
                    "time": 7.22521021875,
                    "velocity": 0.4645669291338583,
                    "duration": 0.24245671875000063
                },
                {
                    "name": "D4",
                    "midi": 62,
                    "time": 7.241374,
                    "velocity": 0.6062992125984252,
                    "duration": 0.22629293750000024
                },
                {
                    "name": "A#3",
                    "midi": 58,
                    "time": 7.467666937500001,
                    "velocity": 0.4409448818897638,
                    "duration": 0.29094806250000094
                },
                {
                    "name": "F4",
                    "midi": 65,
                    "time": 7.483830718750001,
                    "velocity": 0.4409448818897638,
                    "duration": 0.27478428125000054
                },
                {
                    "name": "D5",
                    "midi": 74,
                    "time": 7.4999945000000015,
                    "velocity": 0.5590551181102362,
                    "duration": 0.25862050000000014
                },
                {
                    "name": "F#4",
                    "midi": 66,
                    "time": 8.276933585416668,
                    "velocity": 0.6771653543307087,
                    "duration": 0.09698268750000061
                },
                {
                    "name": "C#4",
                    "midi": 61,
                    "time": 8.276933585416668,
                    "velocity": 0.5669291338582677,
                    "duration": 0.09698268750000061
                },
                {
                    "name": "A#3",
                    "midi": 58,
                    "time": 8.276933585416668,
                    "velocity": 0.5669291338582677,
                    "duration": 0.09698268750000061
                },
                {
                    "name": "F#3",
                    "midi": 54,
                    "time": 8.276933585416668,
                    "velocity": 0.5669291338582677,
                    "duration": 0.09698268750000061
                },
                {
                    "name": "F#4",
                    "midi": 66,
                    "time": 8.534476500000002,
                    "velocity": 0.6062992125984252,
                    "duration": 0.09698268750000061
                },
                {
                    "name": "D#4",
                    "midi": 63,
                    "time": 8.534476500000002,
                    "velocity": 0.5039370078740157,
                    "duration": 0.09698268750000061
                },
                {
                    "name": "B3",
                    "midi": 59,
                    "time": 8.534476500000002,
                    "velocity": 0.5039370078740157,
                    "duration": 0.09698268750000061
                },
                {
                    "name": "F#3",
                    "midi": 54,
                    "time": 8.534476500000002,
                    "velocity": 0.5039370078740157,
                    "duration": 0.09698268750000061
                },
                {
                    "name": "F#4",
                    "midi": 66,
                    "time": 8.793097000000003,
                    "velocity": 0.6771653543307087,
                    "duration": 0.09698268750000061
                },
                {
                    "name": "C#4",
                    "midi": 61,
                    "time": 8.793097000000003,
                    "velocity": 0.5669291338582677,
                    "duration": 0.09698268750000061
                },
                {
                    "name": "A#3",
                    "midi": 58,
                    "time": 8.793097000000003,
                    "velocity": 0.5669291338582677,
                    "duration": 0.09698268750000061
                },
                {
                    "name": "F#3",
                    "midi": 54,
                    "time": 8.793097000000003,
                    "velocity": 0.5669291338582677,
                    "duration": 0.09698268750000061
                },
                {
                    "name": "F#3",
                    "midi": 54,
                    "time": 9.310338000000003,
                    "velocity": 0.4409448818897638,
                    "duration": 0.09698268750000061
                },
                {
                    "name": "F#2",
                    "midi": 42,
                    "time": 9.310338000000003,
                    "velocity": 0.4409448818897638,
                    "duration": 0.09698268750000061
                },
                {
                    "name": "F#4",
                    "midi": 66,
                    "time": 9.568958500000004,
                    "velocity": 0.3779527559055118,
                    "duration": 0.09698268750000061
                },
                {
                    "name": "D#4",
                    "midi": 63,
                    "time": 9.568958500000004,
                    "velocity": 0.31496062992125984,
                    "duration": 0.09698268750000061
                },
                {
                    "name": "B3",
                    "midi": 59,
                    "time": 9.568958500000004,
                    "velocity": 0.31496062992125984,
                    "duration": 0.09698268750000061
                },
                {
                    "name": "F#4",
                    "midi": 66,
                    "time": 9.827579000000005,
                    "velocity": 0.4409448818897638,
                    "duration": 0.09698268750000061
                },
                {
                    "name": "C#4",
                    "midi": 61,
                    "time": 9.827579000000005,
                    "velocity": 0.3700787401574803,
                    "duration": 0.09698268750000061
                },
                {
                    "name": "A#3",
                    "midi": 58,
                    "time": 9.827579000000005,
                    "velocity": 0.3700787401574803,
                    "duration": 0.09698268750000061
                },
                {
                    "name": "C#2",
                    "midi": 37,
                    "time": 10.344820000000006,
                    "velocity": 0.4015748031496063,
                    "duration": 0.09698268750000061
                },
                {
                    "name": "C#3",
                    "midi": 49,
                    "time": 10.344820000000006,
                    "velocity": 0.48031496062992124,
                    "duration": 0.09698268750000061
                },
                {
                    "name": "F4",
                    "midi": 65,
                    "time": 10.603440500000007,
                    "velocity": 0.48031496062992124,
                    "duration": 0.09698268750000061
                },
                {
                    "name": "C#4",
                    "midi": 61,
                    "time": 10.603440500000007,
                    "velocity": 0.4015748031496063,
                    "duration": 0.09698268750000061
                },
                {
                    "name": "G#3",
                    "midi": 56,
                    "time": 10.603440500000007,
                    "velocity": 0.4015748031496063,
                    "duration": 0.09698268750000061
                },
                {
                    "name": "D#4",
                    "midi": 63,
                    "time": 10.862061000000008,
                    "velocity": 0.4881889763779528,
                    "duration": 0.09698268750000061
                },
                {
                    "name": "B3",
                    "midi": 59,
                    "time": 10.862061000000008,
                    "velocity": 0.4094488188976378,
                    "duration": 0.09698268750000061
                },
                {
                    "name": "G#3",
                    "midi": 56,
                    "time": 10.862061000000008,
                    "velocity": 0.4094488188976378,
                    "duration": 0.09698268750000061
                },
                {
                    "name": "G#2",
                    "midi": 44,
                    "time": 11.120681500000009,
                    "velocity": 0.5196850393700787,
                    "duration": 0.09698268750000061
                },
                {
                    "name": "C#3",
                    "midi": 49,
                    "time": 11.37930200000001,
                    "velocity": 0.5511811023622047,
                    "duration": 0.7758614999999995
                },
                {
                    "name": "D#4",
                    "midi": 63,
                    "time": 11.63792250000001,
                    "velocity": 0.5748031496062992,
                    "duration": 0.25862049999999925
                },
                {
                    "name": "B3",
                    "midi": 59,
                    "time": 11.63792250000001,
                    "velocity": 0.4881889763779528,
                    "duration": 0.25862049999999925
                },
                {
                    "name": "G#3",
                    "midi": 56,
                    "time": 11.63792250000001,
                    "velocity": 0.4881889763779528,
                    "duration": 0.25862049999999925
                },
                {
                    "name": "C#4",
                    "midi": 61,
                    "time": 11.89654300000001,
                    "velocity": 0.6141732283464567,
                    "duration": 0.25862049999999925
                },
                {
                    "name": "B3",
                    "midi": 59,
                    "time": 11.89654300000001,
                    "velocity": 0.5039370078740157,
                    "duration": 0.25862049999999925
                },
                {
                    "name": "G#3",
                    "midi": 56,
                    "time": 11.89654300000001,
                    "velocity": 0.5039370078740157,
                    "duration": 0.25862049999999925
                },
                {
                    "name": "F#4",
                    "midi": 66,
                    "time": 12.413784000000009,
                    "velocity": 0.6850393700787402,
                    "duration": 0.09698268750000061
                },
                {
                    "name": "A#3",
                    "midi": 58,
                    "time": 12.413784000000009,
                    "velocity": 0.5748031496062992,
                    "duration": 0.09698268750000061
                },
                {
                    "name": "C#4",
                    "midi": 61,
                    "time": 12.413784000000009,
                    "velocity": 0.5748031496062992,
                    "duration": 0.09698268750000061
                },
                {
                    "name": "F#3",
                    "midi": 54,
                    "time": 12.413784000000009,
                    "velocity": 0.5748031496062992,
                    "duration": 0.09698268750000061
                },
                {
                    "name": "F#3",
                    "midi": 54,
                    "time": 12.67240450000001,
                    "velocity": 0.5433070866141733,
                    "duration": 0.09698268750000061
                },
                {
                    "name": "D#4",
                    "midi": 63,
                    "time": 12.67240450000001,
                    "velocity": 0.5433070866141733,
                    "duration": 0.09698268750000061
                },
                {
                    "name": "B3",
                    "midi": 59,
                    "time": 12.67240450000001,
                    "velocity": 0.5433070866141733,
                    "duration": 0.09698268750000061
                },
                {
                    "name": "F#4",
                    "midi": 66,
                    "time": 12.67240450000001,
                    "velocity": 0.6377952755905512,
                    "duration": 0.09698268750000061
                },
                {
                    "name": "F#3",
                    "midi": 54,
                    "time": 12.93102500000001,
                    "velocity": 0.5748031496062992,
                    "duration": 0.09698268750000061
                },
                {
                    "name": "C#4",
                    "midi": 61,
                    "time": 12.93102500000001,
                    "velocity": 0.5748031496062992,
                    "duration": 0.09698268750000061
                },
                {
                    "name": "A#3",
                    "midi": 58,
                    "time": 12.93102500000001,
                    "velocity": 0.5748031496062992,
                    "duration": 0.09698268750000061
                },
                {
                    "name": "F#4",
                    "midi": 66,
                    "time": 12.93102500000001,
                    "velocity": 0.6850393700787402,
                    "duration": 0.09698268750000061
                },
                {
                    "name": "F#2",
                    "midi": 42,
                    "time": 13.448266000000011,
                    "velocity": 0.3700787401574803,
                    "duration": 0.09698268750000061
                },
                {
                    "name": "F#3",
                    "midi": 54,
                    "time": 13.448266000000011,
                    "velocity": 0.4409448818897638,
                    "duration": 0.09698268750000061
                },
                {
                    "name": "B3",
                    "midi": 59,
                    "time": 13.706886500000012,
                    "velocity": 0.33070866141732286,
                    "duration": 0.09698268750000061
                },
                {
                    "name": "F#4",
                    "midi": 66,
                    "time": 13.706886500000012,
                    "velocity": 0.3937007874015748,
                    "duration": 0.09698268750000061
                },
                {
                    "name": "D#4",
                    "midi": 63,
                    "time": 13.706886500000012,
                    "velocity": 0.33070866141732286,
                    "duration": 0.09698268750000061
                },
                {
                    "name": "F#4",
                    "midi": 66,
                    "time": 13.965507000000013,
                    "velocity": 0.4409448818897638,
                    "duration": 0.09698268750000061
                },
                {
                    "name": "C#4",
                    "midi": 61,
                    "time": 13.965507000000013,
                    "velocity": 0.3700787401574803,
                    "duration": 0.09698268750000061
                },
                {
                    "name": "A#3",
                    "midi": 58,
                    "time": 13.965507000000013,
                    "velocity": 0.3700787401574803,
                    "duration": 0.09698268750000061
                },
                {
                    "name": "C3",
                    "midi": 48,
                    "time": 14.482748000000013,
                    "velocity": 0.4881889763779528,
                    "duration": 0.12931024999999963
                },
                {
                    "name": "D#4",
                    "midi": 63,
                    "time": 14.741368500000013,
                    "velocity": 0.5354330708661418,
                    "duration": 0.5172410000000003
                },
                {
                    "name": "G#3",
                    "midi": 56,
                    "time": 14.741368500000013,
                    "velocity": 0.4409448818897638,
                    "duration": 0.5172410000000003
                },
                {
                    "name": "G#2",
                    "midi": 44,
                    "time": 15.258609500000013,
                    "velocity": 0.5039370078740157,
                    "duration": 0.12931024999999963
                },
                {
                    "name": "C#3",
                    "midi": 49,
                    "time": 15.517230000000012,
                    "velocity": 0.6141732283464567,
                    "duration": 0.12931024999999963
                },
                {
                    "name": "F4",
                    "midi": 65,
                    "time": 15.775850500000011,
                    "velocity": 0.5590551181102362,
                    "duration": 0.12931024999999963
                },
                {
                    "name": "G#3",
                    "midi": 56,
                    "time": 15.775850500000011,
                    "velocity": 0.47244094488188976,
                    "duration": 0.12931024999999963
                },
                {
                    "name": "C4",
                    "midi": 60,
                    "time": 16.551712000000013,
                    "velocity": 0.4094488188976378,
                    "duration": 0.25862049999999925
                },
                {
                    "name": "G#4",
                    "midi": 68,
                    "time": 16.551712000000013,
                    "velocity": 0.4881889763779528,
                    "duration": 0.25862049999999925
                },
                {
                    "name": "F#4",
                    "midi": 66,
                    "time": 16.551712000000013,
                    "velocity": 0.4094488188976378,
                    "duration": 0.25862049999999925
                },
                {
                    "name": "G#3",
                    "midi": 56,
                    "time": 16.810332500000012,
                    "velocity": 0.3937007874015748,
                    "duration": 0.25862049999999925
                },
                {
                    "name": "G#4",
                    "midi": 68,
                    "time": 16.810332500000012,
                    "velocity": 0.47244094488188976,
                    "duration": 0.25862049999999925
                },
                {
                    "name": "F#4",
                    "midi": 66,
                    "time": 16.810332500000012,
                    "velocity": 0.3937007874015748,
                    "duration": 0.25862049999999925
                },
                {
                    "name": "C#4",
                    "midi": 61,
                    "time": 17.06895300000001,
                    "velocity": 0.4409448818897638,
                    "duration": 0.25862049999999925
                },
                {
                    "name": "F4",
                    "midi": 65,
                    "time": 17.06895300000001,
                    "velocity": 0.4409448818897638,
                    "duration": 0.25862049999999925
                },
                {
                    "name": "A#4",
                    "midi": 70,
                    "time": 17.06895300000001,
                    "velocity": 0.5354330708661418,
                    "duration": 0.25862049999999925
                },
                {
                    "name": "G#3",
                    "midi": 56,
                    "time": 17.32757350000001,
                    "velocity": 0.3779527559055118,
                    "duration": 0.25862049999999925
                },
                {
                    "name": "F4",
                    "midi": 65,
                    "time": 17.32757350000001,
                    "velocity": 0.3779527559055118,
                    "duration": 0.25862049999999925
                },
                {
                    "name": "G#4",
                    "midi": 68,
                    "time": 17.32757350000001,
                    "velocity": 0.4645669291338583,
                    "duration": 0.25862049999999925
                },
                {
                    "name": "C4",
                    "midi": 60,
                    "time": 17.58619400000001,
                    "velocity": 0.4094488188976378,
                    "duration": 0.25862049999999925
                },
                {
                    "name": "F#4",
                    "midi": 66,
                    "time": 17.58619400000001,
                    "velocity": 0.4094488188976378,
                    "duration": 0.25862049999999925
                },
                {
                    "name": "A#4",
                    "midi": 70,
                    "time": 17.58619400000001,
                    "velocity": 0.4881889763779528,
                    "duration": 0.25862049999999925
                },
                {
                    "name": "G#3",
                    "midi": 56,
                    "time": 17.84481450000001,
                    "velocity": 0.3779527559055118,
                    "duration": 0.25862049999999925
                },
                {
                    "name": "G#4",
                    "midi": 68,
                    "time": 17.84481450000001,
                    "velocity": 0.4645669291338583,
                    "duration": 0.25862049999999925
                },
                {
                    "name": "F#4",
                    "midi": 66,
                    "time": 17.84481450000001,
                    "velocity": 0.4645669291338583,
                    "duration": 0.25862049999999925
                },
                {
                    "name": "C#4",
                    "midi": 61,
                    "time": 18.103435000000008,
                    "velocity": 0.4409448818897638,
                    "duration": 0.25862049999999925
                },
                {
                    "name": "F4",
                    "midi": 65,
                    "time": 18.103435000000008,
                    "velocity": 0.5354330708661418,
                    "duration": 0.25862049999999925
                },
                {
                    "name": "G#3",
                    "midi": 56,
                    "time": 18.362055500000007,
                    "velocity": 0.47244094488188976,
                    "duration": 0.25862049999999925
                },
                {
                    "name": "C3",
                    "midi": 48,
                    "time": 18.620676000000007,
                    "velocity": 0.4881889763779528,
                    "duration": 0.12931024999999963
                },
                {
                    "name": "F#4",
                    "midi": 66,
                    "time": 18.879296500000006,
                    "velocity": 0.5354330708661418,
                    "duration": 0.12931024999999963
                },
                {
                    "name": "D#4",
                    "midi": 63,
                    "time": 18.879296500000006,
                    "velocity": 0.4409448818897638,
                    "duration": 0.12931024999999963
                },
                {
                    "name": "G#3",
                    "midi": 56,
                    "time": 18.879296500000006,
                    "velocity": 0.4409448818897638,
                    "duration": 0.12931024999999963
                },
                {
                    "name": "F4",
                    "midi": 65,
                    "time": 19.137917000000005,
                    "velocity": 0.49606299212598426,
                    "duration": 0.12931024999999963
                },
                {
                    "name": "C#4",
                    "midi": 61,
                    "time": 19.137917000000005,
                    "velocity": 0.41732283464566927,
                    "duration": 0.12931024999999963
                },
                {
                    "name": "G#3",
                    "midi": 56,
                    "time": 19.137917000000005,
                    "velocity": 0.41732283464566927,
                    "duration": 0.12931024999999963
                },
                {
                    "name": "C#3",
                    "midi": 49,
                    "time": 19.396537500000004,
                    "velocity": 0.4881889763779528,
                    "duration": 0.12931024999999963
                },
                {
                    "name": "G#2",
                    "midi": 44,
                    "time": 19.655158000000007,
                    "velocity": 0.4881889763779528,
                    "duration": 0.12931024999999963
                },
                {
                    "name": "F#4",
                    "midi": 66,
                    "time": 19.913778500000006,
                    "velocity": 0.44881889763779526,
                    "duration": 0.12931024999999963
                },
                {
                    "name": "C4",
                    "midi": 60,
                    "time": 19.913778500000006,
                    "velocity": 0.3779527559055118,
                    "duration": 0.12931024999999963
                },
                {
                    "name": "G#3",
                    "midi": 56,
                    "time": 19.913778500000006,
                    "velocity": 0.3779527559055118,
                    "duration": 0.12931024999999963
                },
                {
                    "name": "C#2",
                    "midi": 37,
                    "time": 20.172399000000006,
                    "velocity": 0.4881889763779528,
                    "duration": 0.12931024999999963
                },
                {
                    "name": "F4",
                    "midi": 65,
                    "time": 20.431019500000005,
                    "velocity": 0.47244094488188976,
                    "duration": 0.12931024999999963
                },
                {
                    "name": "C#4",
                    "midi": 61,
                    "time": 20.431019500000005,
                    "velocity": 0.3937007874015748,
                    "duration": 0.12931024999999963
                },
                {
                    "name": "G#3",
                    "midi": 56,
                    "time": 20.431019500000005,
                    "velocity": 0.3937007874015748,
                    "duration": 0.12931024999999963
                },
                {
                    "name": "G#2",
                    "midi": 44,
                    "time": 20.689640000000008,
                    "velocity": 0.4881889763779528,
                    "duration": 0.25862049999999925
                },
                {
                    "name": "C4",
                    "midi": 60,
                    "time": 20.948260500000007,
                    "velocity": 0.3937007874015748,
                    "duration": 0.25862049999999925
                },
                {
                    "name": "G#4",
                    "midi": 68,
                    "time": 20.948260500000007,
                    "velocity": 0.47244094488188976,
                    "duration": 0.25862049999999925
                },
                {
                    "name": "F#4",
                    "midi": 66,
                    "time": 20.948260500000007,
                    "velocity": 0.3937007874015748,
                    "duration": 0.25862049999999925
                },
                {
                    "name": "C#4",
                    "midi": 61,
                    "time": 21.206881000000006,
                    "velocity": 0.4409448818897638,
                    "duration": 0.25862049999999925
                },
                {
                    "name": "F4",
                    "midi": 65,
                    "time": 21.206881000000006,
                    "velocity": 0.4409448818897638,
                    "duration": 0.25862049999999925
                },
                {
                    "name": "A#4",
                    "midi": 70,
                    "time": 21.206881000000006,
                    "velocity": 0.5354330708661418,
                    "duration": 0.25862049999999925
                },
                {
                    "name": "G#3",
                    "midi": 56,
                    "time": 21.465501500000006,
                    "velocity": 0.3937007874015748,
                    "duration": 0.25862049999999925
                },
                {
                    "name": "F4",
                    "midi": 65,
                    "time": 21.465501500000006,
                    "velocity": 0.3937007874015748,
                    "duration": 0.25862049999999925
                },
                {
                    "name": "G#4",
                    "midi": 68,
                    "time": 21.465501500000006,
                    "velocity": 0.47244094488188976,
                    "duration": 0.25862049999999925
                },
                {
                    "name": "C4",
                    "midi": 60,
                    "time": 21.724122000000005,
                    "velocity": 0.4409448818897638,
                    "duration": 0.25862049999999925
                },
                {
                    "name": "F#4",
                    "midi": 66,
                    "time": 21.724122000000005,
                    "velocity": 0.4409448818897638,
                    "duration": 0.25862049999999925
                },
                {
                    "name": "A#4",
                    "midi": 70,
                    "time": 21.724122000000005,
                    "velocity": 0.5354330708661418,
                    "duration": 0.25862049999999925
                },
                {
                    "name": "G#3",
                    "midi": 56,
                    "time": 21.982742500000004,
                    "velocity": 0.4094488188976378,
                    "duration": 0.25862049999999925
                },
                {
                    "name": "G#4",
                    "midi": 68,
                    "time": 21.982742500000004,
                    "velocity": 0.4881889763779528,
                    "duration": 0.25862049999999925
                },
                {
                    "name": "F#4",
                    "midi": 66,
                    "time": 21.982742500000004,
                    "velocity": 0.4094488188976378,
                    "duration": 0.25862049999999925
                },
                {
                    "name": "C#4",
                    "midi": 61,
                    "time": 22.241363000000003,
                    "velocity": 0.4330708661417323,
                    "duration": 0.25862049999999925
                },
                {
                    "name": "F4",
                    "midi": 65,
                    "time": 22.241363000000003,
                    "velocity": 0.5039370078740157,
                    "duration": 0.25862049999999925
                },
                {
                    "name": "G#3",
                    "midi": 56,
                    "time": 22.499983500000003,
                    "velocity": 0.4881889763779528,
                    "duration": 0.25862049999999925
                },
                {
                    "name": "C3",
                    "midi": 48,
                    "time": 22.758604000000002,
                    "velocity": 0.5354330708661418,
                    "duration": 0.12931024999999963
                },
                {
                    "name": "F#4",
                    "midi": 66,
                    "time": 23.0172245,
                    "velocity": 0.4881889763779528,
                    "duration": 0.12931024999999963
                },
                {
                    "name": "D#4",
                    "midi": 63,
                    "time": 23.0172245,
                    "velocity": 0.4094488188976378,
                    "duration": 0.12931024999999963
                },
                {
                    "name": "G#3",
                    "midi": 56,
                    "time": 23.0236900125,
                    "velocity": 0.4094488188976378,
                    "duration": 0.12931024999999963
                },
                {
                    "name": "C2",
                    "midi": 36,
                    "time": 23.5344655,
                    "velocity": 0.5511811023622047,
                    "duration": 0.25862049999999925
                },
                {
                    "name": "C3",
                    "midi": 48,
                    "time": 23.793086,
                    "velocity": 0.5669291338582677,
                    "duration": 0.12931024999999963
                },
                {
                    "name": "D#4",
                    "midi": 63,
                    "time": 24.051706499999998,
                    "velocity": 0.44881889763779526,
                    "duration": 0.12931024999999963
                },
                {
                    "name": "G#3",
                    "midi": 56,
                    "time": 24.051706499999998,
                    "velocity": 0.44881889763779526,
                    "duration": 0.12931024999999963
                },
                {
                    "name": "F#4",
                    "midi": 66,
                    "time": 24.051706499999998,
                    "velocity": 0.5433070866141733,
                    "duration": 0.12931024999999963
                },
                {
                    "name": "C2",
                    "midi": 36,
                    "time": 24.568947499999997,
                    "velocity": 0.4645669291338583,
                    "duration": 0.25862049999999925
                },
                {
                    "name": "C3",
                    "midi": 48,
                    "time": 24.568947499999997,
                    "velocity": 0.5511811023622047,
                    "duration": 0.25862049999999925
                },
                {
                    "name": "C#2",
                    "midi": 37,
                    "time": 24.827567999999996,
                    "velocity": 0.49606299212598426,
                    "duration": 0.12931024999999963
                },
                {
                    "name": "C#3",
                    "midi": 49,
                    "time": 24.827567999999996,
                    "velocity": 0.6062992125984252,
                    "duration": 0.12931024999999963
                },
                {
                    "name": "F#4",
                    "midi": 66,
                    "time": 25.086188499999995,
                    "velocity": 0.5748031496062992,
                    "duration": 0.25862049999999925
                },
                {
                    "name": "C#4",
                    "midi": 61,
                    "time": 25.086188499999995,
                    "velocity": 0.4881889763779528,
                    "duration": 0.25862049999999925
                },
                {
                    "name": "A#3",
                    "midi": 58,
                    "time": 25.086188499999995,
                    "velocity": 0.4881889763779528,
                    "duration": 0.25862049999999925
                },
                {
                    "name": "C2",
                    "midi": 36,
                    "time": 25.344808999999994,
                    "velocity": 0.4881889763779528,
                    "duration": 0.25862049999999925
                },
                {
                    "name": "C3",
                    "midi": 48,
                    "time": 25.344808999999994,
                    "velocity": 0.5748031496062992,
                    "duration": 0.25862049999999925
                },
                {
                    "name": "C#2",
                    "midi": 37,
                    "time": 25.603429499999994,
                    "velocity": 0.48031496062992124,
                    "duration": 0.25862049999999925
                },
                {
                    "name": "C#3",
                    "midi": 49,
                    "time": 25.603429499999994,
                    "velocity": 0.5669291338582677,
                    "duration": 0.25862049999999925
                },
                {
                    "name": "D2",
                    "midi": 38,
                    "time": 25.862049999999993,
                    "velocity": 0.5433070866141733,
                    "duration": 0.25862049999999925
                },
                {
                    "name": "D3",
                    "midi": 50,
                    "time": 25.862049999999993,
                    "velocity": 0.6377952755905512,
                    "duration": 0.25862049999999925
                },
                {
                    "name": "F#4",
                    "midi": 66,
                    "time": 26.120670499999992,
                    "velocity": 0.6062992125984252,
                    "duration": 0.25862049999999925
                },
                {
                    "name": "A#3",
                    "midi": 58,
                    "time": 26.120670499999992,
                    "velocity": 0.49606299212598426,
                    "duration": 0.25862049999999925
                },
                {
                    "name": "C#2",
                    "midi": 37,
                    "time": 26.37929099999999,
                    "velocity": 0.5039370078740157,
                    "duration": 0.25862049999999925
                },
                {
                    "name": "C#3",
                    "midi": 49,
                    "time": 26.37929099999999,
                    "velocity": 0.6141732283464567,
                    "duration": 0.25862049999999925
                },
                {
                    "name": "D2",
                    "midi": 38,
                    "time": 26.63791149999999,
                    "velocity": 0.49606299212598426,
                    "duration": 0.25862049999999925
                },
                {
                    "name": "D3",
                    "midi": 50,
                    "time": 26.63791149999999,
                    "velocity": 0.5905511811023622,
                    "duration": 0.25862049999999925
                },
                {
                    "name": "D#2",
                    "midi": 39,
                    "time": 26.89653199999999,
                    "velocity": 0.5511811023622047,
                    "duration": 0.25862049999999925
                },
                {
                    "name": "D#3",
                    "midi": 51,
                    "time": 26.89653199999999,
                    "velocity": 0.6456692913385826,
                    "duration": 0.25862049999999925
                },
                {
                    "name": "F#4",
                    "midi": 66,
                    "time": 27.15515249999999,
                    "velocity": 0.6299212598425197,
                    "duration": 0.5172409999999985
                },
                {
                    "name": "A#3",
                    "midi": 58,
                    "time": 27.15515249999999,
                    "velocity": 0.5354330708661418,
                    "duration": 0.5172409999999985
                },
                {
                    "name": "D#2",
                    "midi": 39,
                    "time": 27.672393499999988,
                    "velocity": 0.5433070866141733,
                    "duration": 0.2586205000000028
                },
                {
                    "name": "D#3",
                    "midi": 51,
                    "time": 27.672393499999988,
                    "velocity": 0.6377952755905512,
                    "duration": 0.2586205000000028
                },
                {
                    "name": "E2",
                    "midi": 40,
                    "time": 27.93101399999999,
                    "velocity": 0.5748031496062992,
                    "duration": 0.25862049999999925
                },
                {
                    "name": "E3",
                    "midi": 52,
                    "time": 27.93101399999999,
                    "velocity": 0.6929133858267716,
                    "duration": 0.25862049999999925
                },
                {
                    "name": "F#4",
                    "midi": 66,
                    "time": 28.18963449999999,
                    "velocity": 0.6614173228346457,
                    "duration": 0.5172409999999985
                },
                {
                    "name": "A#3",
                    "midi": 58,
                    "time": 28.18963449999999,
                    "velocity": 0.5511811023622047,
                    "duration": 0.5172409999999985
                },
                {
                    "name": "E2",
                    "midi": 40,
                    "time": 28.706875499999988,
                    "velocity": 0.5590551181102362,
                    "duration": 0.25862049999999925
                },
                {
                    "name": "E3",
                    "midi": 52,
                    "time": 28.706875499999988,
                    "velocity": 0.6692913385826772,
                    "duration": 0.25862049999999925
                },
                {
                    "name": "F2",
                    "midi": 41,
                    "time": 28.965495999999987,
                    "velocity": 0.6141732283464567,
                    "duration": 0.12931024999999963
                },
                {
                    "name": "F3",
                    "midi": 53,
                    "time": 28.965495999999987,
                    "velocity": 0.7165354330708661,
                    "duration": 0.12931024999999963
                },
                {
                    "name": "F4",
                    "midi": 65,
                    "time": 29.224116499999987,
                    "velocity": 0.6929133858267716,
                    "duration": 0.25862049999999925
                },
                {
                    "name": "C#4",
                    "midi": 61,
                    "time": 29.224116499999987,
                    "velocity": 0.5748031496062992,
                    "duration": 0.25862049999999925
                },
                {
                    "name": "A#3",
                    "midi": 58,
                    "time": 29.224116499999987,
                    "velocity": 0.5748031496062992,
                    "duration": 0.25862049999999925
                },
                {
                    "name": "E2",
                    "midi": 40,
                    "time": 29.482736999999986,
                    "velocity": 0.6062992125984252,
                    "duration": 0.25862049999999925
                },
                {
                    "name": "E3",
                    "midi": 52,
                    "time": 29.482736999999986,
                    "velocity": 0.7086614173228346,
                    "duration": 0.25862049999999925
                },
                {
                    "name": "F2",
                    "midi": 41,
                    "time": 29.741357499999985,
                    "velocity": 0.6062992125984252,
                    "duration": 0.25862049999999925
                },
                {
                    "name": "F3",
                    "midi": 53,
                    "time": 29.741357499999985,
                    "velocity": 0.7086614173228346,
                    "duration": 0.25862049999999925
                },
                {
                    "name": "F#2",
                    "midi": 42,
                    "time": 29.999977999999984,
                    "velocity": 0.6456692913385826,
                    "duration": 0.12931024999999963
                },
                {
                    "name": "F#3",
                    "midi": 54,
                    "time": 29.999977999999984,
                    "velocity": 0.7637795275590551,
                    "duration": 0.12931024999999963
                },
                {
                    "name": "C#4",
                    "midi": 61,
                    "time": 30.258598499999984,
                    "velocity": 0.6220472440944882,
                    "duration": 0.12931024999999963
                },
                {
                    "name": "E4",
                    "midi": 64,
                    "time": 30.258598499999984,
                    "velocity": 0.7401574803149606,
                    "duration": 0.12931024999999963
                },
                {
                    "name": "A#3",
                    "midi": 58,
                    "time": 30.258598499999984,
                    "velocity": 0.6220472440944882,
                    "duration": 0.12931024999999963
                },
                {
                    "name": "F2",
                    "midi": 41,
                    "time": 30.517218999999983,
                    "velocity": 0.6299212598425197,
                    "duration": 0.25862049999999925
                },
                {
                    "name": "F3",
                    "midi": 53,
                    "time": 30.517218999999983,
                    "velocity": 0.7480314960629921,
                    "duration": 0.25862049999999925
                },
                {
                    "name": "F#2",
                    "midi": 42,
                    "time": 30.775839499999982,
                    "velocity": 0.6141732283464567,
                    "duration": 0.25862049999999925
                },
                {
                    "name": "F#3",
                    "midi": 54,
                    "time": 30.775839499999982,
                    "velocity": 0.7165354330708661,
                    "duration": 0.25862049999999925
                },
                {
                    "name": "G2",
                    "midi": 43,
                    "time": 31.03445999999998,
                    "velocity": 0.7007874015748031,
                    "duration": 0.25862049999999925
                },
                {
                    "name": "G3",
                    "midi": 55,
                    "time": 31.03445999999998,
                    "velocity": 0.8267716535433071,
                    "duration": 0.25862049999999925
                },
                {
                    "name": "E4",
                    "midi": 64,
                    "time": 31.29308049999998,
                    "velocity": 0.7559055118110236,
                    "duration": 0.2586205000000028
                },
                {
                    "name": "C#4",
                    "midi": 61,
                    "time": 31.29308049999998,
                    "velocity": 0.6377952755905512,
                    "duration": 0.2586205000000028
                },
                {
                    "name": "G3",
                    "midi": 55,
                    "time": 31.29308049999998,
                    "velocity": 0.6377952755905512,
                    "duration": 0.2586205000000028
                },
                {
                    "name": "G#2",
                    "midi": 44,
                    "time": 31.551700999999984,
                    "velocity": 0.6377952755905512,
                    "duration": 0.25862049999999925
                },
                {
                    "name": "G#3",
                    "midi": 56,
                    "time": 31.551700999999984,
                    "velocity": 0.7559055118110236,
                    "duration": 0.25862049999999925
                },
                {
                    "name": "F4",
                    "midi": 65,
                    "time": 31.810321499999983,
                    "velocity": 0.7559055118110236,
                    "duration": 0.2586205000000028
                },
                {
                    "name": "C#4",
                    "midi": 61,
                    "time": 31.810321499999983,
                    "velocity": 0.6377952755905512,
                    "duration": 0.2586205000000028
                },
                {
                    "name": "G#3",
                    "midi": 56,
                    "time": 31.810321499999983,
                    "velocity": 0.6377952755905512,
                    "duration": 0.2586205000000028
                },
                {
                    "name": "A2",
                    "midi": 45,
                    "time": 32.068941999999986,
                    "velocity": 0.6771653543307087,
                    "duration": 0.25862049999999925
                },
                {
                    "name": "A3",
                    "midi": 57,
                    "time": 32.068941999999986,
                    "velocity": 0.8110236220472441,
                    "duration": 0.25862049999999925
                },
                {
                    "name": "F#4",
                    "midi": 66,
                    "time": 32.327562499999985,
                    "velocity": 0.7401574803149606,
                    "duration": 0.25862049999999925
                },
                {
                    "name": "D#4",
                    "midi": 63,
                    "time": 32.327562499999985,
                    "velocity": 0.6220472440944882,
                    "duration": 0.25862049999999925
                },
                {
                    "name": "A3",
                    "midi": 57,
                    "time": 32.327562499999985,
                    "velocity": 0.6220472440944882,
                    "duration": 0.25862049999999925
                },
                {
                    "name": "A1",
                    "midi": 33,
                    "time": 32.84480349999998,
                    "velocity": 0.7007874015748031,
                    "duration": 0.25862049999999925
                },
                {
                    "name": "A2",
                    "midi": 45,
                    "time": 32.84480349999998,
                    "velocity": 0.8346456692913385,
                    "duration": 0.25862049999999925
                },
                {
                    "name": "G#1",
                    "midi": 32,
                    "time": 33.10342399999998,
                    "velocity": 0.7007874015748031,
                    "duration": 1.0344820000000041
                },
                {
                    "name": "G#2",
                    "midi": 44,
                    "time": 33.10342399999998,
                    "velocity": 0.8346456692913385,
                    "duration": 1.0344820000000041
                },
                {
                    "name": "F#4",
                    "midi": 66,
                    "time": 34.655146999999985,
                    "velocity": 0.7874015748031497,
                    "duration": 0.38793075000000243
                },
                {
                    "name": "C#4",
                    "midi": 61,
                    "time": 34.655146999999985,
                    "velocity": 0.6535433070866141,
                    "duration": 0.38793075000000243
                },
                {
                    "name": "G#3",
                    "midi": 56,
                    "time": 34.655146999999985,
                    "velocity": 0.6535433070866141,
                    "duration": 0.38793075000000243
                },
                {
                    "name": "F#4",
                    "midi": 66,
                    "time": 35.04307774999999,
                    "velocity": 0.7244094488188977,
                    "duration": 0.12931025000000318
                },
                {
                    "name": "C#4",
                    "midi": 61,
                    "time": 35.04307774999999,
                    "velocity": 0.6062992125984252,
                    "duration": 0.12931025000000318
                },
                {
                    "name": "G#3",
                    "midi": 56,
                    "time": 35.04307774999999,
                    "velocity": 0.6062992125984252,
                    "duration": 0.12931025000000318
                },
                {
                    "name": "G#3",
                    "midi": 56,
                    "time": 35.17238799999999,
                    "velocity": 0.6535433070866141,
                    "duration": 1.0344820000000041
                },
                {
                    "name": "F#4",
                    "midi": 66,
                    "time": 35.17238799999999,
                    "velocity": 0.7874015748031497,
                    "duration": 1.0344820000000041
                },
                {
                    "name": "C#4",
                    "midi": 61,
                    "time": 35.17238799999999,
                    "velocity": 0.6535433070866141,
                    "duration": 1.0344820000000041
                },
                {
                    "name": "G#1",
                    "midi": 32,
                    "time": 37.241352,
                    "velocity": 0.4094488188976378,
                    "duration": 1.0344820000000041
                },
                {
                    "name": "G#2",
                    "midi": 44,
                    "time": 37.241352,
                    "velocity": 0.4881889763779528,
                    "duration": 1.0344820000000041
                },
                {
                    "name": "G#3",
                    "midi": 56,
                    "time": 38.793075,
                    "velocity": 0.4094488188976378,
                    "duration": 0.38793075000000243
                },
                {
                    "name": "F#4",
                    "midi": 66,
                    "time": 38.793075,
                    "velocity": 0.4094488188976378,
                    "duration": 0.38793075000000243
                },
                {
                    "name": "C4",
                    "midi": 60,
                    "time": 38.793075,
                    "velocity": 0.4094488188976378,
                    "duration": 0.38793075000000243
                },
                {
                    "name": "G#4",
                    "midi": 68,
                    "time": 38.793075,
                    "velocity": 0.4881889763779528,
                    "duration": 0.38793075000000243
                },
                {
                    "name": "G#4",
                    "midi": 68,
                    "time": 39.181005750000004,
                    "velocity": 0.44881889763779526,
                    "duration": 0.12931025000000318
                },
                {
                    "name": "F#4",
                    "midi": 66,
                    "time": 39.181005750000004,
                    "velocity": 0.3779527559055118,
                    "duration": 0.12931025000000318
                },
                {
                    "name": "C4",
                    "midi": 60,
                    "time": 39.181005750000004,
                    "velocity": 0.3779527559055118,
                    "duration": 0.12931025000000318
                },
                {
                    "name": "G#3",
                    "midi": 56,
                    "time": 39.181005750000004,
                    "velocity": 0.3779527559055118,
                    "duration": 0.12931025000000318
                },
                {
                    "name": "G#4",
                    "midi": 68,
                    "time": 39.31031600000001,
                    "velocity": 0.4881889763779528,
                    "duration": 1.0344820000000041
                },
                {
                    "name": "F#4",
                    "midi": 66,
                    "time": 39.31031600000001,
                    "velocity": 0.4094488188976378,
                    "duration": 1.0344820000000041
                },
                {
                    "name": "C4",
                    "midi": 60,
                    "time": 39.31031600000001,
                    "velocity": 0.4094488188976378,
                    "duration": 1.0344820000000041
                },
                {
                    "name": "G#3",
                    "midi": 56,
                    "time": 39.31031600000001,
                    "velocity": 0.4094488188976378,
                    "duration": 1.0344820000000041
                },
                {
                    "name": "C#2",
                    "midi": 37,
                    "time": 41.379280000000016,
                    "velocity": 0.49606299212598426,
                    "duration": 0.12931025000000318
                },
                {
                    "name": "F4",
                    "midi": 65,
                    "time": 41.89652100000002,
                    "velocity": 0.5511811023622047,
                    "duration": 1.0344820000000041
                },
                {
                    "name": "G#3",
                    "midi": 56,
                    "time": 41.89652100000002,
                    "velocity": 0.4645669291338583,
                    "duration": 1.0344820000000041
                },
                {
                    "name": "E4",
                    "midi": 64,
                    "time": 42.931003000000025,
                    "velocity": 0.49606299212598426,
                    "duration": 0.38793075000000243
                },
                {
                    "name": "G3",
                    "midi": 55,
                    "time": 42.931003000000025,
                    "velocity": 0.41732283464566927,
                    "duration": 0.38793075000000243
                },
                {
                    "name": "F4",
                    "midi": 65,
                    "time": 43.31893375000003,
                    "velocity": 0.49606299212598426,
                    "duration": 0.12931025000000318
                },
                {
                    "name": "G#3",
                    "midi": 56,
                    "time": 43.31893375000003,
                    "velocity": 0.41732283464566927,
                    "duration": 0.12931025000000318
                },
                {
                    "name": "C#3",
                    "midi": 49,
                    "time": 43.44824400000003,
                    "velocity": 0.49606299212598426,
                    "duration": 0.12931025000000318
                },
                {
                    "name": "F4",
                    "midi": 65,
                    "time": 43.96548500000004,
                    "velocity": 0.5669291338582677,
                    "duration": 1.0344820000000041
                },
                {
                    "name": "G#3",
                    "midi": 56,
                    "time": 43.96548500000004,
                    "velocity": 0.48031496062992124,
                    "duration": 1.0344820000000041
                },
                {
                    "name": "E4",
                    "midi": 64,
                    "time": 44.99996700000004,
                    "velocity": 0.5905511811023622,
                    "duration": 0.38793075000000243
                },
                {
                    "name": "G3",
                    "midi": 55,
                    "time": 44.99996700000004,
                    "velocity": 0.49606299212598426,
                    "duration": 0.38793075000000243
                },
                {
                    "name": "G#3",
                    "midi": 56,
                    "time": 45.38789775000004,
                    "velocity": 0.44881889763779526,
                    "duration": 0.12931025000000318
                },
                {
                    "name": "F4",
                    "midi": 65,
                    "time": 45.38789775000004,
                    "velocity": 0.5433070866141733,
                    "duration": 0.12931025000000318
                },
                {
                    "name": "F3",
                    "midi": 53,
                    "time": 45.517208000000046,
                    "velocity": 0.6062992125984252,
                    "duration": 0.12931025000000318
                },
                {
                    "name": "F4",
                    "midi": 65,
                    "time": 45.77582850000005,
                    "velocity": 0.49606299212598426,
                    "duration": 0.25862049999999925
                },
                {
                    "name": "G#3",
                    "midi": 56,
                    "time": 45.77582850000005,
                    "velocity": 0.41732283464566927,
                    "duration": 0.25862049999999925
                },
                {
                    "name": "C#4",
                    "midi": 61,
                    "time": 45.77582850000005,
                    "velocity": 0.41732283464566927,
                    "duration": 0.25862049999999925
                },
                {
                    "name": "A3",
                    "midi": 57,
                    "time": 46.03444900000005,
                    "velocity": 0.4645669291338583,
                    "duration": 0.25862049999999925
                },
                {
                    "name": "C#4",
                    "midi": 61,
                    "time": 46.03444900000005,
                    "velocity": 0.4645669291338583,
                    "duration": 0.25862049999999925
                },
                {
                    "name": "F#4",
                    "midi": 66,
                    "time": 46.03444900000005,
                    "velocity": 0.5511811023622047,
                    "duration": 0.25862049999999925
                },
                {
                    "name": "A#3",
                    "midi": 58,
                    "time": 46.29306950000005,
                    "velocity": 0.4881889763779528,
                    "duration": 0.25862049999999925
                },
                {
                    "name": "C#4",
                    "midi": 61,
                    "time": 46.29306950000005,
                    "velocity": 0.4881889763779528,
                    "duration": 0.25862049999999925
                },
                {
                    "name": "G4",
                    "midi": 67,
                    "time": 46.29306950000005,
                    "velocity": 0.5905511811023622,
                    "duration": 0.25862049999999925
                },
                {
                    "name": "B3",
                    "midi": 59,
                    "time": 46.55169000000005,
                    "velocity": 0.5511811023622047,
                    "duration": 0.5172409999999985
                },
                {
                    "name": "C#4",
                    "midi": 61,
                    "time": 46.55169000000005,
                    "velocity": 0.5511811023622047,
                    "duration": 0.5172409999999985
                },
                {
                    "name": "G#4",
                    "midi": 68,
                    "time": 46.55169000000005,
                    "velocity": 0.6614173228346457,
                    "duration": 0.5172409999999985
                },
                {
                    "name": "A#3",
                    "midi": 58,
                    "time": 47.06893100000005,
                    "velocity": 0.5039370078740157,
                    "duration": 0.25862049999999925
                },
                {
                    "name": "C#4",
                    "midi": 61,
                    "time": 47.06893100000005,
                    "velocity": 0.5039370078740157,
                    "duration": 0.25862049999999925
                },
                {
                    "name": "G4",
                    "midi": 67,
                    "time": 47.06893100000005,
                    "velocity": 0.6062992125984252,
                    "duration": 0.25862049999999925
                },
                {
                    "name": "A3",
                    "midi": 57,
                    "time": 47.32755150000005,
                    "velocity": 0.48031496062992124,
                    "duration": 0.25862049999999925
                },
                {
                    "name": "C#4",
                    "midi": 61,
                    "time": 47.32755150000005,
                    "velocity": 0.48031496062992124,
                    "duration": 0.25862049999999925
                },
                {
                    "name": "F#4",
                    "midi": 66,
                    "time": 47.32755150000005,
                    "velocity": 0.5669291338582677,
                    "duration": 0.25862049999999925
                },
                {
                    "name": "G#3",
                    "midi": 56,
                    "time": 47.58617200000005,
                    "velocity": 0.44881889763779526,
                    "duration": 0.12931025000000318
                },
                {
                    "name": "C#4",
                    "midi": 61,
                    "time": 47.58617200000005,
                    "velocity": 0.44881889763779526,
                    "duration": 0.12931025000000318
                },
                {
                    "name": "F4",
                    "midi": 65,
                    "time": 47.58617200000005,
                    "velocity": 0.5433070866141733,
                    "duration": 0.12931025000000318
                },
                {
                    "name": "C#3",
                    "midi": 49,
                    "time": 47.844792500000054,
                    "velocity": 0.49606299212598426,
                    "duration": 0.12931025000000318
                },
                {
                    "name": "B3",
                    "midi": 59,
                    "time": 48.10341300000006,
                    "velocity": 0.4409448818897638,
                    "duration": 0.5172409999999985
                },
                {
                    "name": "C#4",
                    "midi": 61,
                    "time": 48.10341300000006,
                    "velocity": 0.4409448818897638,
                    "duration": 0.5172409999999985
                },
                {
                    "name": "F4",
                    "midi": 65,
                    "time": 48.10341300000006,
                    "velocity": 0.4409448818897638,
                    "duration": 0.5172409999999985
                },
                {
                    "name": "G#4",
                    "midi": 68,
                    "time": 48.10341300000006,
                    "velocity": 0.5196850393700787,
                    "duration": 0.25862049999999925
                },
                {
                    "name": "A#4",
                    "midi": 70,
                    "time": 48.36203350000006,
                    "velocity": 0.5590551181102362,
                    "duration": 0.25862049999999925
                },
                {
                    "name": "B3",
                    "midi": 59,
                    "time": 48.62065400000006,
                    "velocity": 0.5039370078740157,
                    "duration": 1.034481999999997
                },
                {
                    "name": "C#4",
                    "midi": 61,
                    "time": 48.62065400000006,
                    "velocity": 0.5039370078740157,
                    "duration": 1.034481999999997
                },
                {
                    "name": "F4",
                    "midi": 65,
                    "time": 48.62065400000006,
                    "velocity": 0.5039370078740157,
                    "duration": 1.034481999999997
                },
                {
                    "name": "B4",
                    "midi": 71,
                    "time": 48.62065400000006,
                    "velocity": 0.6062992125984252,
                    "duration": 0.5172409999999985
                },
                {
                    "name": "A#4",
                    "midi": 70,
                    "time": 49.13789500000006,
                    "velocity": 0.5669291338582677,
                    "duration": 0.25862049999999925
                },
                {
                    "name": "G#4",
                    "midi": 68,
                    "time": 49.396515500000056,
                    "velocity": 0.5590551181102362,
                    "duration": 0.25862049999999925
                },
                {
                    "name": "F#3",
                    "midi": 54,
                    "time": 49.65621358541672,
                    "velocity": 0.5748031496062992,
                    "duration": 0.09698268750000238
                },
                {
                    "name": "F#4",
                    "midi": 66,
                    "time": 49.65621358541672,
                    "velocity": 0.6850393700787402,
                    "duration": 0.09698268750000238
                },
                {
                    "name": "C#4",
                    "midi": 61,
                    "time": 49.65621358541672,
                    "velocity": 0.5748031496062992,
                    "duration": 0.09698268750000238
                },
                {
                    "name": "A#3",
                    "midi": 58,
                    "time": 49.65621358541672,
                    "velocity": 0.5748031496062992,
                    "duration": 0.09698268750000238
                },
                {
                    "name": "D#4",
                    "midi": 63,
                    "time": 49.913756500000055,
                    "velocity": 0.5511811023622047,
                    "duration": 0.09698268750000238
                },
                {
                    "name": "B3",
                    "midi": 59,
                    "time": 49.913756500000055,
                    "velocity": 0.5511811023622047,
                    "duration": 0.09698268750000238
                },
                {
                    "name": "F#3",
                    "midi": 54,
                    "time": 49.913756500000055,
                    "velocity": 0.5511811023622047,
                    "duration": 0.09698268750000238
                },
                {
                    "name": "F#4",
                    "midi": 66,
                    "time": 49.913756500000055,
                    "velocity": 0.6535433070866141,
                    "duration": 0.09698268750000238
                },
                {
                    "name": "C#4",
                    "midi": 61,
                    "time": 50.172377000000054,
                    "velocity": 0.5748031496062992,
                    "duration": 0.09698268750000238
                },
                {
                    "name": "F#4",
                    "midi": 66,
                    "time": 50.172377000000054,
                    "velocity": 0.6850393700787402,
                    "duration": 0.09698268750000238
                },
                {
                    "name": "A#3",
                    "midi": 58,
                    "time": 50.172377000000054,
                    "velocity": 0.5748031496062992,
                    "duration": 0.09698268750000238
                },
                {
                    "name": "F#3",
                    "midi": 54,
                    "time": 50.172377000000054,
                    "velocity": 0.5748031496062992,
                    "duration": 0.09698268750000238
                },
                {
                    "name": "F#2",
                    "midi": 42,
                    "time": 50.68961800000006,
                    "velocity": 0.3700787401574803,
                    "duration": 0.09698268750000238
                },
                {
                    "name": "F#3",
                    "midi": 54,
                    "time": 50.68961800000006,
                    "velocity": 0.4409448818897638,
                    "duration": 0.09698268750000238
                },
                {
                    "name": "F#4",
                    "midi": 66,
                    "time": 50.94823850000006,
                    "velocity": 0.4015748031496063,
                    "duration": 0.09698268750000238
                },
                {
                    "name": "D#4",
                    "midi": 63,
                    "time": 50.94823850000006,
                    "velocity": 0.33070866141732286,
                    "duration": 0.09698268750000238
                },
                {
                    "name": "B3",
                    "midi": 59,
                    "time": 50.94823850000006,
                    "velocity": 0.33070866141732286,
                    "duration": 0.09698268750000238
                },
                {
                    "name": "F#4",
                    "midi": 66,
                    "time": 51.20685900000006,
                    "velocity": 0.4409448818897638,
                    "duration": 0.09698268750000238
                },
                {
                    "name": "C#4",
                    "midi": 61,
                    "time": 51.20685900000006,
                    "velocity": 0.3700787401574803,
                    "duration": 0.09698268750000238
                },
                {
                    "name": "A#3",
                    "midi": 58,
                    "time": 51.20685900000006,
                    "velocity": 0.3700787401574803,
                    "duration": 0.09698268750000238
                },
                {
                    "name": "C#2",
                    "midi": 37,
                    "time": 51.724100000000064,
                    "velocity": 0.3779527559055118,
                    "duration": 0.09698268750000238
                },
                {
                    "name": "C#3",
                    "midi": 49,
                    "time": 51.724100000000064,
                    "velocity": 0.4645669291338583,
                    "duration": 0.09698268750000238
                },
                {
                    "name": "C#4",
                    "midi": 61,
                    "time": 51.98272050000007,
                    "velocity": 0.3779527559055118,
                    "duration": 0.09698268750000238
                },
                {
                    "name": "F4",
                    "midi": 65,
                    "time": 51.98272050000007,
                    "velocity": 0.4645669291338583,
                    "duration": 0.09698268750000238
                },
                {
                    "name": "G#3",
                    "midi": 56,
                    "time": 51.98272050000007,
                    "velocity": 0.3779527559055118,
                    "duration": 0.09698268750000238
                },
                {
                    "name": "B3",
                    "midi": 59,
                    "time": 52.24134100000007,
                    "velocity": 0.3937007874015748,
                    "duration": 0.09698268750000238
                },
                {
                    "name": "D#4",
                    "midi": 63,
                    "time": 52.24134100000007,
                    "velocity": 0.47244094488188976,
                    "duration": 0.09698268750000238
                },
                {
                    "name": "G#3",
                    "midi": 56,
                    "time": 52.24134100000007,
                    "velocity": 0.3937007874015748,
                    "duration": 0.09698268750000238
                },
                {
                    "name": "G#2",
                    "midi": 44,
                    "time": 52.49996150000007,
                    "velocity": 0.4881889763779528,
                    "duration": 0.09698268750000238
                },
                {
                    "name": "C#3",
                    "midi": 49,
                    "time": 52.758582000000075,
                    "velocity": 0.5196850393700787,
                    "duration": 0.7758614999999978
                },
                {
                    "name": "D#4",
                    "midi": 63,
                    "time": 53.017202500000074,
                    "velocity": 0.5511811023622047,
                    "duration": 0.25862049999999925
                },
                {
                    "name": "B3",
                    "midi": 59,
                    "time": 53.017202500000074,
                    "velocity": 0.4645669291338583,
                    "duration": 0.25862049999999925
                },
                {
                    "name": "G#3",
                    "midi": 56,
                    "time": 53.017202500000074,
                    "velocity": 0.4645669291338583,
                    "duration": 0.25862049999999925
                },
                {
                    "name": "C#4",
                    "midi": 61,
                    "time": 53.275823000000074,
                    "velocity": 0.5748031496062992,
                    "duration": 0.25862049999999925
                },
                {
                    "name": "B3",
                    "midi": 59,
                    "time": 53.275823000000074,
                    "velocity": 0.4881889763779528,
                    "duration": 0.25862049999999925
                },
                {
                    "name": "G#3",
                    "midi": 56,
                    "time": 53.275823000000074,
                    "velocity": 0.4881889763779528,
                    "duration": 0.25862049999999925
                },
                {
                    "name": "F#3",
                    "midi": 54,
                    "time": 53.79306400000007,
                    "velocity": 0.5748031496062992,
                    "duration": 0.09698268750000238
                },
                {
                    "name": "A#3",
                    "midi": 58,
                    "time": 53.79306400000007,
                    "velocity": 0.5748031496062992,
                    "duration": 0.09698268750000238
                },
                {
                    "name": "C#4",
                    "midi": 61,
                    "time": 53.79306400000007,
                    "velocity": 0.5748031496062992,
                    "duration": 0.09698268750000238
                },
                {
                    "name": "F#4",
                    "midi": 66,
                    "time": 53.79306400000007,
                    "velocity": 0.6850393700787402,
                    "duration": 0.09698268750000238
                },
                {
                    "name": "F#4",
                    "midi": 66,
                    "time": 54.05168450000007,
                    "velocity": 0.6456692913385826,
                    "duration": 0.09698268750000238
                },
                {
                    "name": "D#4",
                    "midi": 63,
                    "time": 54.05168450000007,
                    "velocity": 0.5433070866141733,
                    "duration": 0.09698268750000238
                },
                {
                    "name": "B3",
                    "midi": 59,
                    "time": 54.05168450000007,
                    "velocity": 0.5433070866141733,
                    "duration": 0.09698268750000238
                },
                {
                    "name": "F#3",
                    "midi": 54,
                    "time": 54.05168450000007,
                    "velocity": 0.5433070866141733,
                    "duration": 0.09698268750000238
                },
                {
                    "name": "C#4",
                    "midi": 61,
                    "time": 54.31030500000007,
                    "velocity": 0.5748031496062992,
                    "duration": 0.09698268750000238
                },
                {
                    "name": "F#4",
                    "midi": 66,
                    "time": 54.31030500000007,
                    "velocity": 0.6850393700787402,
                    "duration": 0.09698268750000238
                },
                {
                    "name": "A#3",
                    "midi": 58,
                    "time": 54.31030500000007,
                    "velocity": 0.5748031496062992,
                    "duration": 0.09698268750000238
                },
                {
                    "name": "F#3",
                    "midi": 54,
                    "time": 54.31030500000007,
                    "velocity": 0.5748031496062992,
                    "duration": 0.09698268750000238
                },
                {
                    "name": "F#2",
                    "midi": 42,
                    "time": 54.827546000000076,
                    "velocity": 0.3779527559055118,
                    "duration": 0.09698268750000238
                },
                {
                    "name": "F#3",
                    "midi": 54,
                    "time": 54.827546000000076,
                    "velocity": 0.4645669291338583,
                    "duration": 0.09698268750000238
                },
                {
                    "name": "F#4",
                    "midi": 66,
                    "time": 55.086166500000076,
                    "velocity": 0.4330708661417323,
                    "duration": 0.09698268750000238
                },
                {
                    "name": "D#4",
                    "midi": 63,
                    "time": 55.086166500000076,
                    "velocity": 0.36220472440944884,
                    "duration": 0.09698268750000238
                },
                {
                    "name": "B3",
                    "midi": 59,
                    "time": 55.086166500000076,
                    "velocity": 0.36220472440944884,
                    "duration": 0.09698268750000238
                },
                {
                    "name": "F#4",
                    "midi": 66,
                    "time": 55.34478700000008,
                    "velocity": 0.4645669291338583,
                    "duration": 0.09698268750000238
                },
                {
                    "name": "C#4",
                    "midi": 61,
                    "time": 55.34478700000008,
                    "velocity": 0.3779527559055118,
                    "duration": 0.09698268750000238
                },
                {
                    "name": "A#3",
                    "midi": 58,
                    "time": 55.34478700000008,
                    "velocity": 0.3779527559055118,
                    "duration": 0.09698268750000238
                },
                {
                    "name": "B2",
                    "midi": 47,
                    "time": 55.86202800000009,
                    "velocity": 0.5196850393700787,
                    "duration": 0.12931025000000318
                },
                {
                    "name": "D#4",
                    "midi": 63,
                    "time": 56.120648500000094,
                    "velocity": 0.5196850393700787,
                    "duration": 0.25862049999999925
                },
                {
                    "name": "G#3",
                    "midi": 56,
                    "time": 56.120648500000094,
                    "velocity": 0.4409448818897638,
                    "duration": 0.25862049999999925
                },
                {
                    "name": "F3",
                    "midi": 53,
                    "time": 56.37926900000009,
                    "velocity": 0.4645669291338583,
                    "duration": 0.25862049999999925
                },
                {
                    "name": "A#3",
                    "midi": 58,
                    "time": 56.37926900000009,
                    "velocity": 0.4645669291338583,
                    "duration": 0.25862049999999925
                },
                {
                    "name": "D4",
                    "midi": 62,
                    "time": 56.37926900000009,
                    "velocity": 0.5511811023622047,
                    "duration": 0.25862049999999925
                },
                {
                    "name": "A#2",
                    "midi": 46,
                    "time": 56.63788950000009,
                    "velocity": 0.5196850393700787,
                    "duration": 0.25862049999999925
                },
                {
                    "name": "B2",
                    "midi": 47,
                    "time": 56.89651000000009,
                    "velocity": 0.5196850393700787,
                    "duration": 0.12931025000000318
                },
                {
                    "name": "D#4",
                    "midi": 63,
                    "time": 57.1551305000001,
                    "velocity": 0.5196850393700787,
                    "duration": 0.25862049999999925
                },
                {
                    "name": "G#3",
                    "midi": 56,
                    "time": 57.1551305000001,
                    "velocity": 0.4409448818897638,
                    "duration": 0.25862049999999925
                },
                {
                    "name": "F3",
                    "midi": 53,
                    "time": 57.4137510000001,
                    "velocity": 0.4881889763779528,
                    "duration": 0.25862049999999925
                },
                {
                    "name": "A#3",
                    "midi": 58,
                    "time": 57.4137510000001,
                    "velocity": 0.4881889763779528,
                    "duration": 0.25862049999999925
                },
                {
                    "name": "D4",
                    "midi": 62,
                    "time": 57.4137510000001,
                    "velocity": 0.5748031496062992,
                    "duration": 0.25862049999999925
                },
                {
                    "name": "A#2",
                    "midi": 46,
                    "time": 57.6723715000001,
                    "velocity": 0.5433070866141733,
                    "duration": 0.12931025000000318
                },
                {
                    "name": "B2",
                    "midi": 47,
                    "time": 57.9309920000001,
                    "velocity": 0.6299212598425197,
                    "duration": 0.12931025000000318
                },
                {
                    "name": "G#4",
                    "midi": 68,
                    "time": 58.18961250000011,
                    "velocity": 0.5433070866141733,
                    "duration": 0.12931025000000318
                },
                {
                    "name": "B3",
                    "midi": 59,
                    "time": 58.18961250000011,
                    "velocity": 0.44881889763779526,
                    "duration": 0.12931025000000318
                },
                {
                    "name": "D#4",
                    "midi": 63,
                    "time": 58.18961250000011,
                    "velocity": 0.44881889763779526,
                    "duration": 0.12931025000000318
                },
                {
                    "name": "C#3",
                    "midi": 49,
                    "time": 58.448233000000116,
                    "velocity": 0.6456692913385826,
                    "duration": 0.12931025000000318
                },
                {
                    "name": "F#4",
                    "midi": 66,
                    "time": 58.70685350000012,
                    "velocity": 0.5196850393700787,
                    "duration": 0.12931025000000318
                },
                {
                    "name": "C#4",
                    "midi": 61,
                    "time": 58.70685350000012,
                    "velocity": 0.4409448818897638,
                    "duration": 0.12931025000000318
                },
                {
                    "name": "A#3",
                    "midi": 58,
                    "time": 58.70685350000012,
                    "velocity": 0.4409448818897638,
                    "duration": 0.12931025000000318
                },
                {
                    "name": "B2",
                    "midi": 47,
                    "time": 58.96547400000013,
                    "velocity": 0.6614173228346457,
                    "duration": 0.12931025000000318
                },
                {
                    "name": "B3",
                    "midi": 59,
                    "time": 59.224094500000135,
                    "velocity": 0.47244094488188976,
                    "duration": 0.12931025000000318
                },
                {
                    "name": "F4",
                    "midi": 65,
                    "time": 59.224094500000135,
                    "velocity": 0.47244094488188976,
                    "duration": 0.12931025000000318
                },
                {
                    "name": "C#4",
                    "midi": 61,
                    "time": 59.224094500000135,
                    "velocity": 0.47244094488188976,
                    "duration": 0.12931025000000318
                },
                {
                    "name": "G#4",
                    "midi": 68,
                    "time": 59.224094500000135,
                    "velocity": 0.5590551181102362,
                    "duration": 0.12931025000000318
                },
                {
                    "name": "A#2",
                    "midi": 46,
                    "time": 59.48271500000014,
                    "velocity": 0.6771653543307087,
                    "duration": 0.12931025000000318
                },
                {
                    "name": "C#4",
                    "midi": 61,
                    "time": 59.74133550000015,
                    "velocity": 0.47244094488188976,
                    "duration": 0.12931025000000318
                },
                {
                    "name": "A#4",
                    "midi": 70,
                    "time": 59.74133550000015,
                    "velocity": 0.5590551181102362,
                    "duration": 0.12931025000000318
                },
                {
                    "name": "A#3",
                    "midi": 58,
                    "time": 59.74133550000015,
                    "velocity": 0.47244094488188976,
                    "duration": 0.12931025000000318
                },
                {
                    "name": "F#4",
                    "midi": 66,
                    "time": 59.74133550000015,
                    "velocity": 0.47244094488188976,
                    "duration": 0.12931025000000318
                },
                {
                    "name": "B2",
                    "midi": 47,
                    "time": 59.999956000000154,
                    "velocity": 0.6929133858267716,
                    "duration": 0.12931025000000318
                },
                {
                    "name": "G#4",
                    "midi": 68,
                    "time": 60.25857650000016,
                    "velocity": 0.5748031496062992,
                    "duration": 0.12931025000000318
                },
                {
                    "name": "D#4",
                    "midi": 63,
                    "time": 60.25857650000016,
                    "velocity": 0.4881889763779528,
                    "duration": 0.12931025000000318
                },
                {
                    "name": "B3",
                    "midi": 59,
                    "time": 60.25857650000016,
                    "velocity": 0.4881889763779528,
                    "duration": 0.12931025000000318
                },
                {
                    "name": "C#3",
                    "midi": 49,
                    "time": 60.517197000000166,
                    "velocity": 0.7007874015748031,
                    "duration": 0.12931025000000318
                },
                {
                    "name": "F#4",
                    "midi": 66,
                    "time": 60.77581750000017,
                    "velocity": 0.5748031496062992,
                    "duration": 0.12931025000000318
                },
                {
                    "name": "C#4",
                    "midi": 61,
                    "time": 60.77581750000017,
                    "velocity": 0.4881889763779528,
                    "duration": 0.12931025000000318
                },
                {
                    "name": "A#3",
                    "midi": 58,
                    "time": 60.77581750000017,
                    "velocity": 0.4881889763779528,
                    "duration": 0.12931025000000318
                },
                {
                    "name": "B2",
                    "midi": 47,
                    "time": 61.03443800000018,
                    "velocity": 0.7165354330708661,
                    "duration": 0.12931025000000318
                },
                {
                    "name": "B3",
                    "midi": 59,
                    "time": 61.293058500000186,
                    "velocity": 0.49606299212598426,
                    "duration": 0.12931025000000318
                },
                {
                    "name": "F4",
                    "midi": 65,
                    "time": 61.293058500000186,
                    "velocity": 0.49606299212598426,
                    "duration": 0.12931025000000318
                },
                {
                    "name": "C#4",
                    "midi": 61,
                    "time": 61.293058500000186,
                    "velocity": 0.49606299212598426,
                    "duration": 0.12931025000000318
                },
                {
                    "name": "G#4",
                    "midi": 68,
                    "time": 61.293058500000186,
                    "velocity": 0.5905511811023622,
                    "duration": 0.12931025000000318
                },
                {
                    "name": "A#2",
                    "midi": 46,
                    "time": 61.55167900000019,
                    "velocity": 0.7401574803149606,
                    "duration": 0.12931025000000318
                },
                {
                    "name": "A#3",
                    "midi": 58,
                    "time": 61.8102995000002,
                    "velocity": 0.49606299212598426,
                    "duration": 0.12931025000000318
                },
                {
                    "name": "F#4",
                    "midi": 66,
                    "time": 61.8102995000002,
                    "velocity": 0.49606299212598426,
                    "duration": 0.12931025000000318
                },
                {
                    "name": "C#4",
                    "midi": 61,
                    "time": 61.8102995000002,
                    "velocity": 0.49606299212598426,
                    "duration": 0.12931025000000318
                },
                {
                    "name": "A#4",
                    "midi": 70,
                    "time": 61.8102995000002,
                    "velocity": 0.5905511811023622,
                    "duration": 0.12931025000000318
                },
                {
                    "name": "B2",
                    "midi": 47,
                    "time": 62.068920000000205,
                    "velocity": 0.7401574803149606,
                    "duration": 0.25862049999999925
                },
                {
                    "name": "D#4",
                    "midi": 63,
                    "time": 62.327540500000204,
                    "velocity": 0.5511811023622047,
                    "duration": 0.5172409999999985
                },
                {
                    "name": "G#3",
                    "midi": 56,
                    "time": 62.327540500000204,
                    "velocity": 0.5511811023622047,
                    "duration": 0.5172409999999985
                },
                {
                    "name": "G#4",
                    "midi": 68,
                    "time": 62.327540500000204,
                    "velocity": 0.6456692913385826,
                    "duration": 0.5172409999999985
                },
                {
                    "name": "B2",
                    "midi": 47,
                    "time": 62.8447815000002,
                    "velocity": 0.7401574803149606,
                    "duration": 0.25862049999999925
                },
                {
                    "name": "C3",
                    "midi": 48,
                    "time": 63.1034020000002,
                    "velocity": 0.8188976377952756,
                    "duration": 0.25862049999999925
                },
                {
                    "name": "G#4",
                    "midi": 68,
                    "time": 63.3620225000002,
                    "velocity": 0.6692913385826772,
                    "duration": 0.5172409999999985
                },
                {
                    "name": "D#4",
                    "midi": 63,
                    "time": 63.3620225000002,
                    "velocity": 0.5590551181102362,
                    "duration": 0.5172409999999985
                },
                {
                    "name": "F#4",
                    "midi": 66,
                    "time": 63.3620225000002,
                    "velocity": 0.5590551181102362,
                    "duration": 0.5172409999999985
                },
                {
                    "name": "G#3",
                    "midi": 56,
                    "time": 63.3620225000002,
                    "velocity": 0.5590551181102362,
                    "duration": 0.5172409999999985
                },
                {
                    "name": "C3",
                    "midi": 48,
                    "time": 63.8792635000002,
                    "velocity": 0.7874015748031497,
                    "duration": 0.25862049999999925
                },
                {
                    "name": "C#3",
                    "midi": 49,
                    "time": 64.1378840000002,
                    "velocity": 0.8346456692913385,
                    "duration": 0.25862050000000636
                },
                {
                    "name": "C#4",
                    "midi": 61,
                    "time": 64.65512500000021,
                    "velocity": 0.6062992125984252,
                    "duration": 0.5172409999999985
                },
                {
                    "name": "F#4",
                    "midi": 66,
                    "time": 64.65512500000021,
                    "velocity": 0.6062992125984252,
                    "duration": 0.5172409999999985
                },
                {
                    "name": "G#3",
                    "midi": 56,
                    "time": 64.65512500000021,
                    "velocity": 0.6062992125984252,
                    "duration": 0.5172409999999985
                },
                {
                    "name": "G#4",
                    "midi": 68,
                    "time": 64.65512500000021,
                    "velocity": 0.7244094488188977,
                    "duration": 0.5172409999999985
                },
                {
                    "name": "C#5",
                    "midi": 73,
                    "time": 65.17236600000021,
                    "velocity": 0.7401574803149606,
                    "duration": 0.5172409999999985
                },
                {
                    "name": "F#4",
                    "midi": 66,
                    "time": 65.17236600000021,
                    "velocity": 0.6220472440944882,
                    "duration": 0.5172409999999985
                },
                {
                    "name": "G#4",
                    "midi": 68,
                    "time": 65.17236600000021,
                    "velocity": 0.6220472440944882,
                    "duration": 0.5172409999999985
                },
                {
                    "name": "C#2",
                    "midi": 37,
                    "time": 66.16374458333354,
                    "velocity": 0.3700787401574803,
                    "duration": 0.010775854166666932
                },
                {
                    "name": "C#3",
                    "midi": 49,
                    "time": 66.1745204375002,
                    "velocity": 0.3700787401574803,
                    "duration": 1.0668095624999978
                },
                {
                    "name": "G#3",
                    "midi": 56,
                    "time": 66.18529629166687,
                    "velocity": 0.3700787401574803,
                    "duration": 1.0560337083333309
                },
                {
                    "name": "C#4",
                    "midi": 61,
                    "time": 66.19607214583354,
                    "velocity": 0.3700787401574803,
                    "duration": 1.045257854166664
                },
                {
                    "name": "F#4",
                    "midi": 66,
                    "time": 66.2068480000002,
                    "velocity": 0.4409448818897638,
                    "duration": 1.034481999999997
                },
                {
                    "name": "C#3",
                    "midi": 49,
                    "time": 67.2413300000002,
                    "velocity": 0.23622047244094488,
                    "duration": 1.034481999999997
                },
                {
                    "name": "B3",
                    "midi": 59,
                    "time": 67.2413300000002,
                    "velocity": 0.23622047244094488,
                    "duration": 1.034481999999997
                },
                {
                    "name": "F#4",
                    "midi": 66,
                    "time": 67.2413300000002,
                    "velocity": 0.4409448818897638,
                    "duration": 0.5172409999999985
                },
                {
                    "name": "C#3",
                    "midi": 49,
                    "time": 67.2413300000002,
                    "velocity": 0.4409448818897638,
                    "duration": 1.034481999999997
                },
                {
                    "name": "D#4",
                    "midi": 63,
                    "time": 67.2413300000002,
                    "velocity": 0.3700787401574803,
                    "duration": 0.5172409999999985
                },
                {
                    "name": "G#3",
                    "midi": 56,
                    "time": 67.2413300000002,
                    "velocity": 0.23622047244094488,
                    "duration": 1.034481999999997
                },
                {
                    "name": "F4",
                    "midi": 65,
                    "time": 67.7585710000002,
                    "velocity": 0.4409448818897638,
                    "duration": 0.5172409999999985
                },
                {
                    "name": "C#4",
                    "midi": 61,
                    "time": 67.7585710000002,
                    "velocity": 0.3700787401574803,
                    "duration": 0.5172409999999985
                },
                {
                    "name": "F#3",
                    "midi": 54,
                    "time": 68.2758120000002,
                    "velocity": 0.3779527559055118,
                    "duration": 1.0344820000000254
                },
                {
                    "name": "A#3",
                    "midi": 58,
                    "time": 68.2758120000002,
                    "velocity": 0.3779527559055118,
                    "duration": 0.25862050000000636
                },
                {
                    "name": "F#4",
                    "midi": 66,
                    "time": 68.2758120000002,
                    "velocity": 0.4645669291338583,
                    "duration": 0.25862050000000636
                },
                {
                    "name": "C#4",
                    "midi": 61,
                    "time": 68.53443250000021,
                    "velocity": 0.3464566929133858,
                    "duration": 0.25862050000000636
                },
                {
                    "name": "B3",
                    "midi": 59,
                    "time": 68.79305300000021,
                    "velocity": 0.3937007874015748,
                    "duration": 0.25862050000000636
                },
                {
                    "name": "G#4",
                    "midi": 68,
                    "time": 68.79305300000021,
                    "velocity": 0.47244094488188976,
                    "duration": 0.25862050000000636
                },
                {
                    "name": "G#3",
                    "midi": 56,
                    "time": 69.05167350000022,
                    "velocity": 0.3464566929133858,
                    "duration": 0.25862050000000636
                },
                {
                    "name": "F4",
                    "midi": 65,
                    "time": 69.05167350000022,
                    "velocity": 0.4094488188976378,
                    "duration": 0.25862050000000636
                },
                {
                    "name": "F#4",
                    "midi": 66,
                    "time": 69.31029400000023,
                    "velocity": 0.47244094488188976,
                    "duration": 0.25862050000000636
                },
                {
                    "name": "A#3",
                    "midi": 58,
                    "time": 69.31029400000023,
                    "velocity": 0.3937007874015748,
                    "duration": 0.25862050000000636
                },
                {
                    "name": "F#3",
                    "midi": 54,
                    "time": 69.31029400000023,
                    "velocity": 0.3937007874015748,
                    "duration": 1.0344820000000254
                },
                {
                    "name": "C#4",
                    "midi": 61,
                    "time": 69.56891450000023,
                    "velocity": 0.33070866141732286,
                    "duration": 0.25862050000000636
                },
                {
                    "name": "B3",
                    "midi": 59,
                    "time": 69.82753500000024,
                    "velocity": 0.3937007874015748,
                    "duration": 0.25862050000000636
                },
                {
                    "name": "G#4",
                    "midi": 68,
                    "time": 69.82753500000024,
                    "velocity": 0.47244094488188976,
                    "duration": 0.25862050000000636
                },
                {
                    "name": "F4",
                    "midi": 65,
                    "time": 70.08615550000025,
                    "velocity": 0.4015748031496063,
                    "duration": 0.25862050000000636
                },
                {
                    "name": "G#3",
                    "midi": 56,
                    "time": 70.08615550000025,
                    "velocity": 0.33070866141732286,
                    "duration": 0.25862050000000636
                },
                {
                    "name": "F#3",
                    "midi": 54,
                    "time": 70.34477600000025,
                    "velocity": 0.41732283464566927,
                    "duration": 0.25862050000000636
                },
                {
                    "name": "F#4",
                    "midi": 66,
                    "time": 70.34477600000025,
                    "velocity": 0.49606299212598426,
                    "duration": 0.25862050000000636
                },
                {
                    "name": "A#3",
                    "midi": 58,
                    "time": 70.34477600000025,
                    "velocity": 0.41732283464566927,
                    "duration": 0.25862050000000636
                },
                {
                    "name": "D#4",
                    "midi": 63,
                    "time": 70.86201700000026,
                    "velocity": 0.49606299212598426,
                    "duration": 0.25862050000000636
                },
                {
                    "name": "F3",
                    "midi": 53,
                    "time": 70.86201700000026,
                    "velocity": 0.41732283464566927,
                    "duration": 0.25862050000000636
                },
                {
                    "name": "B3",
                    "midi": 59,
                    "time": 70.86201700000026,
                    "velocity": 0.41732283464566927,
                    "duration": 0.25862050000000636
                },
                {
                    "name": "C#3",
                    "midi": 49,
                    "time": 71.12063750000027,
                    "velocity": 0.3779527559055118,
                    "duration": 0.25862050000000636
                },
                {
                    "name": "C#4",
                    "midi": 61,
                    "time": 71.12063750000027,
                    "velocity": 0.44881889763779526,
                    "duration": 0.25862050000000636
                },
                {
                    "name": "D#4",
                    "midi": 63,
                    "time": 71.37925800000028,
                    "velocity": 0.5196850393700787,
                    "duration": 0.25862050000000636
                },
                {
                    "name": "A#3",
                    "midi": 58,
                    "time": 71.37925800000028,
                    "velocity": 0.4409448818897638,
                    "duration": 0.25862050000000636
                },
                {
                    "name": "F#3",
                    "midi": 54,
                    "time": 71.37925800000028,
                    "velocity": 0.4409448818897638,
                    "duration": 0.25862050000000636
                },
                {
                    "name": "C#3",
                    "midi": 49,
                    "time": 71.63787850000028,
                    "velocity": 0.3779527559055118,
                    "duration": 0.25862050000000636
                },
                {
                    "name": "C#4",
                    "midi": 61,
                    "time": 71.63787850000028,
                    "velocity": 0.4645669291338583,
                    "duration": 0.25862050000000636
                },
                {
                    "name": "B3",
                    "midi": 59,
                    "time": 71.89649900000029,
                    "velocity": 0.4409448818897638,
                    "duration": 0.25862050000000636
                },
                {
                    "name": "F3",
                    "midi": 53,
                    "time": 71.89649900000029,
                    "velocity": 0.4409448818897638,
                    "duration": 0.25862050000000636
                },
                {
                    "name": "D#4",
                    "midi": 63,
                    "time": 71.89649900000029,
                    "velocity": 0.5354330708661418,
                    "duration": 0.25862050000000636
                },
                {
                    "name": "C#4",
                    "midi": 61,
                    "time": 72.1551195000003,
                    "velocity": 0.4881889763779528,
                    "duration": 0.25862050000000636
                },
                {
                    "name": "C#3",
                    "midi": 49,
                    "time": 72.1551195000003,
                    "velocity": 0.4094488188976378,
                    "duration": 0.25862050000000636
                },
                {
                    "name": "F#4",
                    "midi": 66,
                    "time": 72.4137400000003,
                    "velocity": 0.4645669291338583,
                    "duration": 0.25862050000000636
                },
                {
                    "name": "F#3",
                    "midi": 54,
                    "time": 72.4137400000003,
                    "velocity": 0.3779527559055118,
                    "duration": 1.0344820000000254
                },
                {
                    "name": "A#3",
                    "midi": 58,
                    "time": 72.4137400000003,
                    "velocity": 0.3779527559055118,
                    "duration": 0.25862050000000636
                },
                {
                    "name": "C#4",
                    "midi": 61,
                    "time": 72.67236050000031,
                    "velocity": 0.3543307086614173,
                    "duration": 0.25862050000000636
                },
                {
                    "name": "G#4",
                    "midi": 68,
                    "time": 72.93098100000032,
                    "velocity": 0.47244094488188976,
                    "duration": 0.25862050000000636
                },
                {
                    "name": "B3",
                    "midi": 59,
                    "time": 72.93098100000032,
                    "velocity": 0.3937007874015748,
                    "duration": 0.25862050000000636
                },
                {
                    "name": "G#3",
                    "midi": 56,
                    "time": 73.18960150000032,
                    "velocity": 0.36220472440944884,
                    "duration": 0.25862050000000636
                },
                {
                    "name": "F4",
                    "midi": 65,
                    "time": 73.18960150000032,
                    "velocity": 0.4330708661417323,
                    "duration": 0.25862050000000636
                },
                {
                    "name": "A#3",
                    "midi": 58,
                    "time": 73.44822200000033,
                    "velocity": 0.4015748031496063,
                    "duration": 0.25862050000000636
                },
                {
                    "name": "F#4",
                    "midi": 66,
                    "time": 73.44822200000033,
                    "velocity": 0.48031496062992124,
                    "duration": 0.25862050000000636
                },
                {
                    "name": "F#3",
                    "midi": 54,
                    "time": 73.44822200000033,
                    "velocity": 0.4015748031496063,
                    "duration": 1.0344820000000254
                },
                {
                    "name": "C#4",
                    "midi": 61,
                    "time": 73.70684250000033,
                    "velocity": 0.36220472440944884,
                    "duration": 0.25862050000000636
                },
                {
                    "name": "B3",
                    "midi": 59,
                    "time": 73.96546300000034,
                    "velocity": 0.4015748031496063,
                    "duration": 0.25862050000000636
                },
                {
                    "name": "G#4",
                    "midi": 68,
                    "time": 73.96546300000034,
                    "velocity": 0.48031496062992124,
                    "duration": 0.25862050000000636
                },
                {
                    "name": "G#3",
                    "midi": 56,
                    "time": 74.22408350000035,
                    "velocity": 0.3700787401574803,
                    "duration": 0.25862050000000636
                },
                {
                    "name": "F4",
                    "midi": 65,
                    "time": 74.22408350000035,
                    "velocity": 0.4409448818897638,
                    "duration": 0.25862050000000636
                },
                {
                    "name": "A#3",
                    "midi": 58,
                    "time": 74.48270400000035,
                    "velocity": 0.4330708661417323,
                    "duration": 0.25862050000000636
                },
                {
                    "name": "F#4",
                    "midi": 66,
                    "time": 74.48270400000035,
                    "velocity": 0.5039370078740157,
                    "duration": 0.25862050000000636
                },
                {
                    "name": "F#3",
                    "midi": 54,
                    "time": 74.48270400000035,
                    "velocity": 0.4330708661417323,
                    "duration": 0.25862050000000636
                },
                {
                    "name": "C#4",
                    "midi": 61,
                    "time": 74.74132450000036,
                    "velocity": 0.4645669291338583,
                    "duration": 0.25862050000000636
                },
                {
                    "name": "D#4",
                    "midi": 63,
                    "time": 74.99994500000037,
                    "velocity": 0.5511811023622047,
                    "duration": 0.25862050000000636
                },
                {
                    "name": "B3",
                    "midi": 59,
                    "time": 74.99994500000037,
                    "velocity": 0.4645669291338583,
                    "duration": 0.25862050000000636
                },
                {
                    "name": "F3",
                    "midi": 53,
                    "time": 74.99994500000037,
                    "velocity": 0.4645669291338583,
                    "duration": 0.25862050000000636
                },
                {
                    "name": "C#3",
                    "midi": 49,
                    "time": 75.25856550000037,
                    "velocity": 0.41732283464566927,
                    "duration": 0.25862050000000636
                },
                {
                    "name": "C#4",
                    "midi": 61,
                    "time": 75.25856550000037,
                    "velocity": 0.49606299212598426,
                    "duration": 0.25862050000000636
                },
                {
                    "name": "F#3",
                    "midi": 54,
                    "time": 75.51718600000038,
                    "velocity": 0.5196850393700787,
                    "duration": 0.25862050000000636
                },
                {
                    "name": "D#4",
                    "midi": 63,
                    "time": 75.51718600000038,
                    "velocity": 0.6220472440944882,
                    "duration": 0.25862050000000636
                },
                {
                    "name": "A#3",
                    "midi": 58,
                    "time": 75.51718600000038,
                    "velocity": 0.5196850393700787,
                    "duration": 0.25862050000000636
                },
                {
                    "name": "C#4",
                    "midi": 61,
                    "time": 75.77580650000039,
                    "velocity": 0.5669291338582677,
                    "duration": 0.25862050000000636
                },
                {
                    "name": "C#3",
                    "midi": 49,
                    "time": 75.77580650000039,
                    "velocity": 0.48031496062992124,
                    "duration": 0.25862050000000636
                },
                {
                    "name": "F3",
                    "midi": 53,
                    "time": 76.03442700000039,
                    "velocity": 0.5511811023622047,
                    "duration": 0.25862050000000636
                },
                {
                    "name": "B3",
                    "midi": 59,
                    "time": 76.03442700000039,
                    "velocity": 0.5511811023622047,
                    "duration": 0.25862050000000636
                },
                {
                    "name": "D#4",
                    "midi": 63,
                    "time": 76.03442700000039,
                    "velocity": 0.6614173228346457,
                    "duration": 0.25862050000000636
                },
                {
                    "name": "C#4",
                    "midi": 61,
                    "time": 76.2930475000004,
                    "velocity": 0.6377952755905512,
                    "duration": 0.22629293750000556
                },
                {
                    "name": "C#3",
                    "midi": 49,
                    "time": 76.2930475000004,
                    "velocity": 0.5433070866141733,
                    "duration": 0.22629293750000556
                },
                {
                    "name": "F#3",
                    "midi": 54,
                    "time": 76.5193404375004,
                    "velocity": 0.5354330708661418,
                    "duration": 0.5495685624999993
                },
                {
                    "name": "C#4",
                    "midi": 61,
                    "time": 76.5355042187504,
                    "velocity": 0.5511811023622047,
                    "duration": 0.5334047812499989
                },
                {
                    "name": "A#4",
                    "midi": 70,
                    "time": 76.5516680000004,
                    "velocity": 0.7086614173228346,
                    "duration": 0.5172409999999985
                },
                {
                    "name": "C#3",
                    "midi": 49,
                    "time": 77.32752950000041,
                    "velocity": 0.6220472440944882,
                    "duration": 0.25862050000000636
                },
                {
                    "name": "B3",
                    "midi": 59,
                    "time": 77.32752950000041,
                    "velocity": 0.6220472440944882,
                    "duration": 0.25862050000000636
                },
                {
                    "name": "G#3",
                    "midi": 56,
                    "time": 77.32752950000041,
                    "velocity": 0.6220472440944882,
                    "duration": 0.25862050000000636
                },
                {
                    "name": "F4",
                    "midi": 65,
                    "time": 77.32752950000041,
                    "velocity": 0.7401574803149606,
                    "duration": 0.25862050000000636
                },
                {
                    "name": "F#3",
                    "midi": 54,
                    "time": 77.58615000000042,
                    "velocity": 0.6062992125984252,
                    "duration": 0.5172409999999985
                },
                {
                    "name": "A#3",
                    "midi": 58,
                    "time": 77.58615000000042,
                    "velocity": 0.6062992125984252,
                    "duration": 0.5172409999999985
                },
                {
                    "name": "F#4",
                    "midi": 66,
                    "time": 77.58615000000042,
                    "velocity": 0.7086614173228346,
                    "duration": 0.5172409999999985
                },
                {
                    "name": "C#2",
                    "midi": 37,
                    "time": 78.36201150000042,
                    "velocity": 0.6141732283464567,
                    "duration": 0.25862050000000636
                },
                {
                    "name": "B2",
                    "midi": 47,
                    "time": 78.36201150000042,
                    "velocity": 0.6141732283464567,
                    "duration": 0.25862050000000636
                },
                {
                    "name": "F3",
                    "midi": 53,
                    "time": 78.36201150000042,
                    "velocity": 0.7322834645669292,
                    "duration": 0.25862050000000636
                },
                {
                    "name": "F#2",
                    "midi": 42,
                    "time": 78.62063200000043,
                    "velocity": 0.5905511811023622,
                    "duration": 0.5172409999999985
                },
                {
                    "name": "A#2",
                    "midi": 46,
                    "time": 78.62063200000043,
                    "velocity": 0.5905511811023622,
                    "duration": 0.5172409999999985
                },
                {
                    "name": "F#3",
                    "midi": 54,
                    "time": 78.62063200000043,
                    "velocity": 0.7007874015748031,
                    "duration": 0.5172409999999985
                },
                {
                    "name": "C#2",
                    "midi": 37,
                    "time": 79.39649350000043,
                    "velocity": 0.6299212598425197,
                    "duration": 0.25862050000000636
                },
                {
                    "name": "F#1",
                    "midi": 30,
                    "time": 79.65511400000044,
                    "velocity": 0.5590551181102362,
                    "duration": 0.25862050000000636
                },
                {
                    "name": "F#2",
                    "midi": 42,
                    "time": 79.65511400000044,
                    "velocity": 0.6692913385826772,
                    "duration": 0.25862050000000636
                },
                {
                    "name": "C#1",
                    "midi": 25,
                    "time": 79.91373450000044,
                    "velocity": 0.5354330708661418,
                    "duration": 0.25862050000000636
                },
                {
                    "name": "C#2",
                    "midi": 37,
                    "time": 79.91373450000044,
                    "velocity": 0.6299212598425197,
                    "duration": 0.25862050000000636
                },
                {
                    "name": "F#1",
                    "midi": 30,
                    "time": 80.17235500000045,
                    "velocity": 0.5590551181102362,
                    "duration": 0.25862050000000636
                },
                {
                    "name": "F#2",
                    "midi": 42,
                    "time": 80.17235500000045,
                    "velocity": 0.6692913385826772,
                    "duration": 0.25862050000000636
                },
                {
                    "name": "C#1",
                    "midi": 25,
                    "time": 80.43097550000046,
                    "velocity": 0.5354330708661418,
                    "duration": 0.25862050000000636
                },
                {
                    "name": "C#2",
                    "midi": 37,
                    "time": 80.43097550000046,
                    "velocity": 0.6299212598425197,
                    "duration": 0.25862050000000636
                },
                {
                    "name": "F#1",
                    "midi": 30,
                    "time": 80.68959600000046,
                    "velocity": 0.5590551181102362,
                    "duration": 0.25862050000000636
                },
                {
                    "name": "F#2",
                    "midi": 42,
                    "time": 80.68959600000046,
                    "velocity": 0.6692913385826772,
                    "duration": 0.25862050000000636
                },
                {
                    "name": "F#2",
                    "midi": 42,
                    "time": 81.46545750000047,
                    "velocity": 0.41732283464566927,
                    "duration": 0.08620683333333545
                },
                {
                    "name": "C#3",
                    "midi": 49,
                    "time": 81.5516643333338,
                    "velocity": 0.3779527559055118,
                    "duration": 0.08620683333333545
                },
                {
                    "name": "A#3",
                    "midi": 58,
                    "time": 81.63787116666714,
                    "velocity": 0.36220472440944884,
                    "duration": 0.08620683333333545
                },
                {
                    "name": "F#2",
                    "midi": 42,
                    "time": 81.72407800000047,
                    "velocity": 0.4409448818897638,
                    "duration": 0.08620683333333545
                },
                {
                    "name": "C#3",
                    "midi": 49,
                    "time": 81.81028483333381,
                    "velocity": 0.4015748031496063,
                    "duration": 0.08620683333333545
                },
                {
                    "name": "A#3",
                    "midi": 58,
                    "time": 81.89649166666715,
                    "velocity": 0.3858267716535433,
                    "duration": 0.08620683333333545
                },
                {
                    "name": "A#2",
                    "midi": 46,
                    "time": 81.98269850000048,
                    "velocity": 0.44881889763779526,
                    "duration": 0.08620683333333545
                },
                {
                    "name": "F#3",
                    "midi": 54,
                    "time": 82.06890533333382,
                    "velocity": 0.4094488188976378,
                    "duration": 0.08620683333333545
                },
                {
                    "name": "C#4",
                    "midi": 61,
                    "time": 82.15511216666715,
                    "velocity": 0.3858267716535433,
                    "duration": 0.08620683333333545
                },
                {
                    "name": "C#3",
                    "midi": 49,
                    "time": 82.24131900000049,
                    "velocity": 0.4645669291338583,
                    "duration": 0.08620683333333545
                },
                {
                    "name": "A#3",
                    "midi": 58,
                    "time": 82.32752583333382,
                    "velocity": 0.4094488188976378,
                    "duration": 0.08620683333333545
                },
                {
                    "name": "F#4",
                    "midi": 66,
                    "time": 82.41373266666716,
                    "velocity": 0.4015748031496063,
                    "duration": 0.08620683333333545
                },
                {
                    "name": "F#3",
                    "midi": 54,
                    "time": 82.4999395000005,
                    "velocity": 0.48031496062992124,
                    "duration": 0.08620683333333545
                },
                {
                    "name": "C#4",
                    "midi": 61,
                    "time": 82.58614633333383,
                    "velocity": 0.4251968503937008,
                    "duration": 0.08620683333333545
                },
                {
                    "name": "A#4",
                    "midi": 70,
                    "time": 82.67235316666716,
                    "velocity": 0.4015748031496063,
                    "duration": 0.08620683333333545
                },
                {
                    "name": "A#3",
                    "midi": 58,
                    "time": 82.7585600000005,
                    "velocity": 0.48031496062992124,
                    "duration": 0.08620683333333545
                },
                {
                    "name": "F#4",
                    "midi": 66,
                    "time": 82.84476683333384,
                    "velocity": 0.4409448818897638,
                    "duration": 0.08620683333333545
                },
                {
                    "name": "C#5",
                    "midi": 73,
                    "time": 82.93097366666717,
                    "velocity": 0.4251968503937008,
                    "duration": 0.08620683333333545
                },
                {
                    "name": "C#4",
                    "midi": 61,
                    "time": 83.0171805000005,
                    "velocity": 0.5118110236220472,
                    "duration": 0.08620683333333545
                },
                {
                    "name": "A#4",
                    "midi": 70,
                    "time": 83.10338733333384,
                    "velocity": 0.4566929133858268,
                    "duration": 0.08620683333333545
                },
                {
                    "name": "F#5",
                    "midi": 78,
                    "time": 83.18959416666718,
                    "velocity": 0.4409448818897638,
                    "duration": 0.08620683333333545
                },
                {
                    "name": "F#4",
                    "midi": 66,
                    "time": 83.27580100000051,
                    "velocity": 0.5275590551181102,
                    "duration": 0.08620683333333545
                },
                {
                    "name": "A#4",
                    "midi": 70,
                    "time": 83.36200783333385,
                    "velocity": 0.4645669291338583,
                    "duration": 0.08620683333333545
                },
                {
                    "name": "F#5",
                    "midi": 78,
                    "time": 83.44821466666718,
                    "velocity": 0.4566929133858268,
                    "duration": 0.08620683333333545
                },
                {
                    "name": "C#4",
                    "midi": 61,
                    "time": 83.53442150000052,
                    "velocity": 0.5354330708661418,
                    "duration": 0.08620683333333545
                },
                {
                    "name": "C#5",
                    "midi": 73,
                    "time": 83.62062833333385,
                    "velocity": 0.47244094488188976,
                    "duration": 0.08620683333333545
                },
                {
                    "name": "F#5",
                    "midi": 78,
                    "time": 83.70683516666719,
                    "velocity": 0.4645669291338583,
                    "duration": 0.08620683333333545
                },
                {
                    "name": "F#4",
                    "midi": 66,
                    "time": 83.79304200000053,
                    "velocity": 0.5669291338582677,
                    "duration": 0.08620683333333545
                },
                {
                    "name": "A#4",
                    "midi": 70,
                    "time": 83.87924883333386,
                    "velocity": 0.48031496062992124,
                    "duration": 0.08620683333333545
                },
                {
                    "name": "F#5",
                    "midi": 78,
                    "time": 83.9654556666672,
                    "velocity": 0.4645669291338583,
                    "duration": 0.08620683333333545
                },
                {
                    "name": "C#4",
                    "midi": 61,
                    "time": 84.05166250000053,
                    "velocity": 0.5669291338582677,
                    "duration": 0.08620683333333545
                },
                {
                    "name": "A#4",
                    "midi": 70,
                    "time": 84.13786933333387,
                    "velocity": 0.5118110236220472,
                    "duration": 0.08620683333333545
                },
                {
                    "name": "F#5",
                    "midi": 78,
                    "time": 84.2240761666672,
                    "velocity": 0.49606299212598426,
                    "duration": 0.08620683333333545
                },
                {
                    "name": "F#4",
                    "midi": 66,
                    "time": 84.31028300000054,
                    "velocity": 0.5748031496062992,
                    "duration": 0.08620683333333545
                },
                {
                    "name": "A#4",
                    "midi": 70,
                    "time": 84.39648983333387,
                    "velocity": 0.5275590551181102,
                    "duration": 0.08620683333333545
                },
                {
                    "name": "F#5",
                    "midi": 78,
                    "time": 84.48269666666721,
                    "velocity": 0.5196850393700787,
                    "duration": 0.08620683333333545
                },
                {
                    "name": "C#4",
                    "midi": 61,
                    "time": 84.56890350000054,
                    "velocity": 0.5905511811023622,
                    "duration": 0.08620683333333545
                },
                {
                    "name": "A#4",
                    "midi": 70,
                    "time": 84.65511033333388,
                    "velocity": 0.5433070866141733,
                    "duration": 0.08620683333333545
                },
                {
                    "name": "F#5",
                    "midi": 78,
                    "time": 84.74131716666722,
                    "velocity": 0.5433070866141733,
                    "duration": 0.08620683333333545
                },
                {
                    "name": "F#4",
                    "midi": 66,
                    "time": 84.82752400000055,
                    "velocity": 0.6377952755905512,
                    "duration": 0.08620683333333545
                },
                {
                    "name": "F#3",
                    "midi": 54,
                    "time": 84.99993766666722,
                    "velocity": 0.6850393700787402,
                    "duration": 0.08620683333333545
                },
                {
                    "name": "F#4",
                    "midi": 66,
                    "time": 84.99993766666722,
                    "velocity": 0.6850393700787402,
                    "duration": 0.08620683333333545
                },
                {
                    "name": "D#4",
                    "midi": 63,
                    "time": 85.08614450000056,
                    "velocity": 0.6535433070866141,
                    "duration": 0.08620683333333545
                },
                {
                    "name": "D#3",
                    "midi": 51,
                    "time": 85.08614450000056,
                    "velocity": 0.6535433070866141,
                    "duration": 0.08620683333333545
                },
                {
                    "name": "C#4",
                    "midi": 61,
                    "time": 85.17235133333389,
                    "velocity": 0.6692913385826772,
                    "duration": 0.08620683333333545
                },
                {
                    "name": "C#3",
                    "midi": 49,
                    "time": 85.17235133333389,
                    "velocity": 0.6692913385826772,
                    "duration": 0.08620683333333545
                },
                {
                    "name": "A#3",
                    "midi": 58,
                    "time": 85.25855816666723,
                    "velocity": 0.6771653543307087,
                    "duration": 0.08620683333333545
                },
                {
                    "name": "A#2",
                    "midi": 46,
                    "time": 85.25855816666723,
                    "velocity": 0.6771653543307087,
                    "duration": 0.08620683333333545
                },
                {
                    "name": "G#3",
                    "midi": 56,
                    "time": 85.34476500000056,
                    "velocity": 0.6771653543307087,
                    "duration": 0.08620683333333545
                },
                {
                    "name": "G#2",
                    "midi": 44,
                    "time": 85.34476500000056,
                    "velocity": 0.6771653543307087,
                    "duration": 0.08620683333333545
                },
                {
                    "name": "F#3",
                    "midi": 54,
                    "time": 85.4309718333339,
                    "velocity": 0.6850393700787402,
                    "duration": 0.08620683333333545
                },
                {
                    "name": "F#2",
                    "midi": 42,
                    "time": 85.4309718333339,
                    "velocity": 0.6850393700787402,
                    "duration": 0.08620683333333545
                },
                {
                    "name": "D#3",
                    "midi": 51,
                    "time": 85.51717866666723,
                    "velocity": 0.6929133858267716,
                    "duration": 0.08620683333333545
                },
                {
                    "name": "D#2",
                    "midi": 39,
                    "time": 85.51717866666723,
                    "velocity": 0.6929133858267716,
                    "duration": 0.08620683333333545
                },
                {
                    "name": "C#2",
                    "midi": 37,
                    "time": 85.60338550000057,
                    "velocity": 0.7007874015748031,
                    "duration": 0.08620683333333545
                },
                {
                    "name": "C#3",
                    "midi": 49,
                    "time": 85.60338550000057,
                    "velocity": 0.7007874015748031,
                    "duration": 0.08620683333333545
                },
                {
                    "name": "A#1",
                    "midi": 34,
                    "time": 85.6895923333339,
                    "velocity": 0.7007874015748031,
                    "duration": 0.08620683333333545
                },
                {
                    "name": "A#2",
                    "midi": 46,
                    "time": 85.6895923333339,
                    "velocity": 0.7007874015748031,
                    "duration": 0.08620683333333545
                },
                {
                    "name": "G#1",
                    "midi": 32,
                    "time": 85.77579916666724,
                    "velocity": 0.7244094488188977,
                    "duration": 0.08620683333333545
                },
                {
                    "name": "G#2",
                    "midi": 44,
                    "time": 85.77579916666724,
                    "velocity": 0.7244094488188977,
                    "duration": 0.08620683333333545
                },
                {
                    "name": "F#1",
                    "midi": 30,
                    "time": 85.86200600000058,
                    "velocity": 0.7795275590551181,
                    "duration": 0.12931025000000318
                },
                {
                    "name": "F#2",
                    "midi": 42,
                    "time": 85.86200600000058,
                    "velocity": 0.7795275590551181,
                    "duration": 0.12931025000000318
                },
                {
                    "name": "F#3",
                    "midi": 54,
                    "time": 86.34691943750057,
                    "velocity": 0.7322834645669292,
                    "duration": 0.5495685624999993
                },
                {
                    "name": "C#4",
                    "midi": 61,
                    "time": 86.36308321875057,
                    "velocity": 0.7716535433070866,
                    "duration": 0.5334047812499989
                },
                {
                    "name": "A#4",
                    "midi": 70,
                    "time": 86.37924700000057,
                    "velocity": 0.8503937007874016,
                    "duration": 0.5172409999999985
                },
                {
                    "name": "F#1",
                    "midi": 30,
                    "time": 86.89648800000057,
                    "velocity": 0.8031496062992126,
                    "duration": 1.034481999999997
                },
                {
                    "name": "F#2",
                    "midi": 42,
                    "time": 86.89648800000057,
                    "velocity": 0.8031496062992126,
                    "duration": 1.034481999999997
                }
            ],
            "controlChanges": {
                "7": [
                    {
                        "number": 7,
                        "time": 0,
                        "value": 0.7874015748031497
                    }
                ],
                "64": [
                    {
                        "number": 64,
                        "time": 0,
                        "value": 0
                    },
                    {
                        "number": 64,
                        "time": 0,
                        "value": 0
                    },
                    {
                        "number": 64,
                        "time": 1.0571112937500002,
                        "value": 1
                    },
                    {
                        "number": 64,
                        "time": 1.5635764395833336,
                        "value": 0
                    },
                    {
                        "number": 64,
                        "time": 2.0840501958333335,
                        "value": 1
                    },
                    {
                        "number": 64,
                        "time": 2.30495520625,
                        "value": 0
                    },
                    {
                        "number": 64,
                        "time": 2.590515341666667,
                        "value": 1
                    },
                    {
                        "number": 64,
                        "time": 3.068963266666667,
                        "value": 0
                    },
                    {
                        "number": 64,
                        "time": 3.1152994395833336,
                        "value": 1
                    },
                    {
                        "number": 64,
                        "time": 3.366376841666667,
                        "value": 0
                    },
                    {
                        "number": 64,
                        "time": 3.6584024895833336,
                        "value": 1
                    },
                    {
                        "number": 64,
                        "time": 4.0926694125,
                        "value": 0
                    },
                    {
                        "number": 64,
                        "time": 5.199349635416667,
                        "value": 1
                    },
                    {
                        "number": 64,
                        "time": 5.6702544625,
                        "value": 0
                    },
                    {
                        "number": 64,
                        "time": 7.2305981458333335,
                        "value": 1
                    },
                    {
                        "number": 64,
                        "time": 7.724132266666668,
                        "value": 0
                    },
                    {
                        "number": 64,
                        "time": 8.275856000000001,
                        "value": 0
                    },
                    {
                        "number": 64,
                        "time": 9.329734537500004,
                        "value": 1
                    },
                    {
                        "number": 64,
                        "time": 9.820035902083339,
                        "value": 0
                    },
                    {
                        "number": 64,
                        "time": 10.37930273333334,
                        "value": 1
                    },
                    {
                        "number": 64,
                        "time": 10.580811206250006,
                        "value": 0
                    },
                    {
                        "number": 64,
                        "time": 10.896543733333342,
                        "value": 1
                    },
                    {
                        "number": 64,
                        "time": 11.31464687500001,
                        "value": 0
                    },
                    {
                        "number": 64,
                        "time": 11.394388195833344,
                        "value": 1
                    },
                    {
                        "number": 64,
                        "time": 11.61852596250001,
                        "value": 0
                    },
                    {
                        "number": 64,
                        "time": 11.93856883125001,
                        "value": 1
                    },
                    {
                        "number": 64,
                        "time": 12.341585777083342,
                        "value": 0
                    },
                    {
                        "number": 64,
                        "time": 13.463352195833345,
                        "value": 1
                    },
                    {
                        "number": 64,
                        "time": 13.95042080416668,
                        "value": 0
                    },
                    {
                        "number": 64,
                        "time": 14.502144537500014,
                        "value": 1
                    },
                    {
                        "number": 64,
                        "time": 15.433178337500012,
                        "value": 0
                    },
                    {
                        "number": 64,
                        "time": 15.536626537500013,
                        "value": 1
                    },
                    {
                        "number": 64,
                        "time": 16.494599972916678,
                        "value": 0
                    },
                    {
                        "number": 64,
                        "time": 18.662701831250008,
                        "value": 1
                    },
                    {
                        "number": 64,
                        "time": 18.859899962500005,
                        "value": 0
                    },
                    {
                        "number": 64,
                        "time": 19.157313537500006,
                        "value": 1
                    },
                    {
                        "number": 64,
                        "time": 19.594813216666672,
                        "value": 0
                    },
                    {
                        "number": 64,
                        "time": 19.685330391666675,
                        "value": 1
                    },
                    {
                        "number": 64,
                        "time": 19.95149398958334,
                        "value": 0
                    },
                    {
                        "number": 64,
                        "time": 20.191795537500006,
                        "value": 1
                    },
                    {
                        "number": 64,
                        "time": 20.629295216666673,
                        "value": 0
                    },
                    {
                        "number": 64,
                        "time": 20.70903653750001,
                        "value": 1
                    },
                    {
                        "number": 64,
                        "time": 21.191794804166673,
                        "value": 0
                    },
                    {
                        "number": 64,
                        "time": 22.78877639166667,
                        "value": 1
                    },
                    {
                        "number": 64,
                        "time": 24.71011118958333,
                        "value": 0
                    },
                    {
                        "number": 64,
                        "time": 24.86528348958333,
                        "value": 1
                    },
                    {
                        "number": 64,
                        "time": 25.30709351041666,
                        "value": 0
                    },
                    {
                        "number": 64,
                        "time": 25.877136195833327,
                        "value": 1
                    },
                    {
                        "number": 64,
                        "time": 26.35989446249999,
                        "value": 0
                    },
                    {
                        "number": 64,
                        "time": 26.91592853749999,
                        "value": 1
                    },
                    {
                        "number": 64,
                        "time": 27.881445070833323,
                        "value": 0
                    },
                    {
                        "number": 64,
                        "time": 27.95364329374999,
                        "value": 1
                    },
                    {
                        "number": 64,
                        "time": 28.87821158124999,
                        "value": 0
                    },
                    {
                        "number": 64,
                        "time": 29.015064929166655,
                        "value": 1
                    },
                    {
                        "number": 64,
                        "time": 29.47519390208332,
                        "value": 0
                    },
                    {
                        "number": 64,
                        "time": 30.03769348958332,
                        "value": 1
                    },
                    {
                        "number": 64,
                        "time": 30.467650070833315,
                        "value": 0
                    },
                    {
                        "number": 64,
                        "time": 31.046313439583315,
                        "value": 1
                    },
                    {
                        "number": 64,
                        "time": 31.498899314583316,
                        "value": 0
                    },
                    {
                        "number": 64,
                        "time": 31.571097537499984,
                        "value": 1
                    },
                    {
                        "number": 64,
                        "time": 31.98920067916665,
                        "value": 0
                    },
                    {
                        "number": 64,
                        "time": 32.08402819583332,
                        "value": 1
                    },
                    {
                        "number": 64,
                        "time": 33.050622314583315,
                        "value": 0
                    },
                    {
                        "number": 64,
                        "time": 33.13036363541665,
                        "value": 1
                    },
                    {
                        "number": 64,
                        "time": 34.10342326666665,
                        "value": 0
                    },
                    {
                        "number": 64,
                        "time": 34.13790599999999,
                        "value": 1
                    },
                    {
                        "number": 64,
                        "time": 35.11958631458332,
                        "value": 0
                    },
                    {
                        "number": 64,
                        "time": 35.17238799999999,
                        "value": 1
                    },
                    {
                        "number": 64,
                        "time": 36.161611412499994,
                        "value": 0
                    },
                    {
                        "number": 64,
                        "time": 36.206869999999995,
                        "value": 1
                    },
                    {
                        "number": 64,
                        "time": 37.19178307083333,
                        "value": 0
                    },
                    {
                        "number": 64,
                        "time": 37.26829163541667,
                        "value": 1
                    },
                    {
                        "number": 64,
                        "time": 38.24135126666667,
                        "value": 0
                    },
                    {
                        "number": 64,
                        "time": 38.275834,
                        "value": 1
                    },
                    {
                        "number": 64,
                        "time": 39.25751431458334,
                        "value": 0
                    },
                    {
                        "number": 64,
                        "time": 39.31031600000001,
                        "value": 1
                    },
                    {
                        "number": 64,
                        "time": 40.29953941250001,
                        "value": 0
                    },
                    {
                        "number": 64,
                        "time": 40.34479800000001,
                        "value": 1
                    },
                    {
                        "number": 64,
                        "time": 41.32971107083335,
                        "value": 0
                    },
                    {
                        "number": 64,
                        "time": 41.40621963541668,
                        "value": 1
                    },
                    {
                        "number": 64,
                        "time": 41.82755553333335,
                        "value": 0
                    },
                    {
                        "number": 64,
                        "time": 41.89652100000002,
                        "value": 1
                    },
                    {
                        "number": 64,
                        "time": 42.87389097291669,
                        "value": 1
                    },
                    {
                        "number": 64,
                        "time": 42.931003000000025,
                        "value": 0
                    },
                    {
                        "number": 64,
                        "time": 43.91268331458337,
                        "value": 0
                    },
                    {
                        "number": 64,
                        "time": 43.96117465833337,
                        "value": 1
                    },
                    {
                        "number": 64,
                        "time": 44.939622216666706,
                        "value": 0
                    },
                    {
                        "number": 64,
                        "time": 45.011820439583374,
                        "value": 1
                    },
                    {
                        "number": 64,
                        "time": 45.703630277083384,
                        "value": 0
                    },
                    {
                        "number": 64,
                        "time": 45.78337159791672,
                        "value": 1
                    },
                    {
                        "number": 64,
                        "time": 46.513974510416716,
                        "value": 0
                    },
                    {
                        "number": 64,
                        "time": 46.566776195833384,
                        "value": 1
                    },
                    {
                        "number": 64,
                        "time": 47.034448266666715,
                        "value": 0
                    },
                    {
                        "number": 64,
                        "time": 47.09156029375005,
                        "value": 1
                    },
                    {
                        "number": 64,
                        "time": 48.046300972916725,
                        "value": 0
                    },
                    {
                        "number": 64,
                        "time": 48.12280953750006,
                        "value": 1
                    },
                    {
                        "number": 64,
                        "time": 49.10341226666672,
                        "value": 0
                    },
                    {
                        "number": 64,
                        "time": 49.16052429375006,
                        "value": 1
                    },
                    {
                        "number": 64,
                        "time": 49.59802397291672,
                        "value": 0
                    },
                    {
                        "number": 64,
                        "time": 49.655136000000056,
                        "value": 0
                    },
                    {
                        "number": 64,
                        "time": 50.71224729375006,
                        "value": 1
                    },
                    {
                        "number": 64,
                        "time": 51.21871243958339,
                        "value": 0
                    },
                    {
                        "number": 64,
                        "time": 51.7391861958334,
                        "value": 1
                    },
                    {
                        "number": 64,
                        "time": 51.96009120625007,
                        "value": 0
                    },
                    {
                        "number": 64,
                        "time": 52.245651341666736,
                        "value": 1
                    },
                    {
                        "number": 64,
                        "time": 52.72409926666674,
                        "value": 0
                    },
                    {
                        "number": 64,
                        "time": 52.77043543958341,
                        "value": 1
                    },
                    {
                        "number": 64,
                        "time": 53.02151284166674,
                        "value": 0
                    },
                    {
                        "number": 64,
                        "time": 53.31353848958341,
                        "value": 1
                    },
                    {
                        "number": 64,
                        "time": 53.74780541250007,
                        "value": 0
                    },
                    {
                        "number": 64,
                        "time": 54.854485635416744,
                        "value": 1
                    },
                    {
                        "number": 64,
                        "time": 55.32539046250008,
                        "value": 0
                    },
                    {
                        "number": 64,
                        "time": 55.888967635416755,
                        "value": 1
                    },
                    {
                        "number": 64,
                        "time": 56.34155351041676,
                        "value": 0
                    },
                    {
                        "number": 64,
                        "time": 56.38681209791676,
                        "value": 1
                    },
                    {
                        "number": 64,
                        "time": 56.83939797291676,
                        "value": 0
                    },
                    {
                        "number": 64,
                        "time": 56.90405309791676,
                        "value": 1
                    },
                    {
                        "number": 64,
                        "time": 57.3911217062501,
                        "value": 0
                    },
                    {
                        "number": 64,
                        "time": 57.4363802937501,
                        "value": 1
                    },
                    {
                        "number": 64,
                        "time": 57.878190314583435,
                        "value": 0
                    },
                    {
                        "number": 64,
                        "time": 57.94607819583344,
                        "value": 1
                    },
                    {
                        "number": 64,
                        "time": 58.41051751041678,
                        "value": 0
                    },
                    {
                        "number": 64,
                        "time": 58.45577609791678,
                        "value": 1
                    },
                    {
                        "number": 64,
                        "time": 58.927758510416794,
                        "value": 0
                    },
                    {
                        "number": 64,
                        "time": 58.98810329375013,
                        "value": 1
                    },
                    {
                        "number": 64,
                        "time": 59.46762880416681,
                        "value": 0
                    },
                    {
                        "number": 64,
                        "time": 59.517197733333475,
                        "value": 1
                    },
                    {
                        "number": 64,
                        "time": 59.930990533333485,
                        "value": 0
                    },
                    {
                        "number": 64,
                        "time": 60.019352537500154,
                        "value": 1
                    },
                    {
                        "number": 64,
                        "time": 60.4902573645835,
                        "value": 0
                    },
                    {
                        "number": 64,
                        "time": 60.566765929166834,
                        "value": 1
                    },
                    {
                        "number": 64,
                        "time": 60.99241216875018,
                        "value": 0
                    },
                    {
                        "number": 64,
                        "time": 61.038748341666846,
                        "value": 1
                    },
                    {
                        "number": 64,
                        "time": 61.53982556041686,
                        "value": 0
                    },
                    {
                        "number": 64,
                        "time": 61.58185139166686,
                        "value": 1
                    },
                    {
                        "number": 64,
                        "time": 62.01611831458354,
                        "value": 0
                    },
                    {
                        "number": 64,
                        "time": 62.08400619583354,
                        "value": 1
                    },
                    {
                        "number": 64,
                        "time": 63.050600314583534,
                        "value": 0
                    },
                    {
                        "number": 64,
                        "time": 63.13357439166687,
                        "value": 1
                    },
                    {
                        "number": 64,
                        "time": 64.0958581687502,
                        "value": 0
                    },
                    {
                        "number": 64,
                        "time": 64.16482363541687,
                        "value": 1
                    },
                    {
                        "number": 64,
                        "time": 65.13465051041688,
                        "value": 0
                    },
                    {
                        "number": 64,
                        "time": 65.17236600000021,
                        "value": 1
                    },
                    {
                        "number": 64,
                        "time": 66.15404631458354,
                        "value": 0
                    },
                    {
                        "number": 64,
                        "time": 87.93097000000057,
                        "value": 0
                    }
                ],
                "91": [
                    {
                        "number": 91,
                        "time": 0,
                        "value": 1
                    },
                    {
                        "number": 91,
                        "time": 0,
                        "value": 1
                    },
                    {
                        "number": 91,
                        "time": 8.275856000000001,
                        "value": 1
                    },
                    {
                        "number": 91,
                        "time": 49.655136000000056,
                        "value": 1
                    }
                ]
            },
            "id": 2,
            "name": "Piano left",
            "instrumentNumber": 0,
            "instrument": "acoustic grand piano",
            "instrumentFamily": "piano",
            "channelNumber": 0,
            "isPercussion": false
        },
        {
            "startTime": 0,
            "duration": 0,
            "length": 0,
            "notes": [],
            "controlChanges": {},
            "id": 3,
            "name": "Chopin: Etude Op, 10, No. 5"
        },
        {
            "startTime": 0,
            "duration": 0,
            "length": 0,
            "notes": [],
            "controlChanges": {},
            "id": 4,
            "name": "Copyright © 1999 by Bernd Krüger"
        },
        {
            "startTime": 0,
            "duration": 0,
            "length": 0,
            "notes": [],
            "controlChanges": {},
            "id": 5,
            "name": "email: BKrueger@csi.com"
        },
        {
            "startTime": 0,
            "duration": 0,
            "length": 0,
            "notes": [],
            "controlChanges": {},
            "id": 6,
            "name": "http://www.piano-midi.de"
        },
        {
            "startTime": 0,
            "duration": 0,
            "length": 0,
            "notes": [],
            "controlChanges": {},
            "id": 7,
            "name": "Edition: 21.4.99"
        }
    ]
}