{
    "header": {
        "PPQ": 480,
        "timeSignature": [
            6,
            8
        ],
        "bpm": 110.50008655840114,
        "name": "Prelude No. 11"
    },
    "startTime": 0,
    "duration": 43.98186599999997,
    "tracks": [
        {
            "startTime": 0,
            "duration": 0,
            "length": 0,
            "notes": [],
            "controlChanges": {},
            "id": 0,
            "name": "Prelude No. 11"
        },
        {
            "startTime": 0.004524883333333333,
            "duration": 43.981865999999954,
            "length": 194,
            "notes": [
                {
                    "name": "F#5",
                    "midi": 78,
                    "time": 0.004524883333333333,
                    "velocity": 0.4330708661417323,
                    "duration": 1.628958
                },
                {
                    "name": "F5",
                    "midi": 77,
                    "time": 1.628958,
                    "velocity": 0.3779527559055118,
                    "duration": 0.271493
                },
                {
                    "name": "F#5",
                    "midi": 78,
                    "time": 1.900451,
                    "velocity": 0.41732283464566927,
                    "duration": 0.271493
                },
                {
                    "name": "G#5",
                    "midi": 80,
                    "time": 2.171944,
                    "velocity": 0.44881889763779526,
                    "duration": 0.271493
                },
                {
                    "name": "F#5",
                    "midi": 78,
                    "time": 2.443437,
                    "velocity": 0.4330708661417323,
                    "duration": 0.271493
                },
                {
                    "name": "E5",
                    "midi": 76,
                    "time": 2.71493,
                    "velocity": 0.4094488188976378,
                    "duration": 0.271493
                },
                {
                    "name": "D#5",
                    "midi": 75,
                    "time": 2.986423,
                    "velocity": 0.3858267716535433,
                    "duration": 0.271493
                },
                {
                    "name": "E4",
                    "midi": 64,
                    "time": 3.257916,
                    "velocity": 0.30708661417322836,
                    "duration": 0.271493
                },
                {
                    "name": "C#5",
                    "midi": 73,
                    "time": 3.257916,
                    "velocity": 0.3700787401574803,
                    "duration": 0.271493
                },
                {
                    "name": "F#4",
                    "midi": 66,
                    "time": 3.529409,
                    "velocity": 0.31496062992125984,
                    "duration": 0.13574650000000021
                },
                {
                    "name": "A#4",
                    "midi": 70,
                    "time": 3.6651555,
                    "velocity": 0.28346456692913385,
                    "duration": 0.13574649999999977
                },
                {
                    "name": "G#4",
                    "midi": 68,
                    "time": 3.800902,
                    "velocity": 0.36220472440944884,
                    "duration": 0.27149300000000043
                },
                {
                    "name": "F#4",
                    "midi": 66,
                    "time": 4.072395,
                    "velocity": 0.33070866141732286,
                    "duration": 0.24434369999999994
                },
                {
                    "name": "F#4",
                    "midi": 66,
                    "time": 4.343888,
                    "velocity": 0.3228346456692913,
                    "duration": 0.27149299999999954
                },
                {
                    "name": "D#5",
                    "midi": 75,
                    "time": 4.615380999999999,
                    "velocity": 0.3228346456692913,
                    "duration": 0.27149299999999954
                },
                {
                    "name": "E4",
                    "midi": 64,
                    "time": 4.886873999999999,
                    "velocity": 0.30708661417322836,
                    "duration": 0.27149299999999954
                },
                {
                    "name": "C#5",
                    "midi": 73,
                    "time": 4.886873999999999,
                    "velocity": 0.3700787401574803,
                    "duration": 0.27149299999999954
                },
                {
                    "name": "F#4",
                    "midi": 66,
                    "time": 5.158366999999998,
                    "velocity": 0.3464566929133858,
                    "duration": 0.13574649999999977
                },
                {
                    "name": "A#4",
                    "midi": 70,
                    "time": 5.294113499999998,
                    "velocity": 0.25984251968503935,
                    "duration": 0.13574649999999977
                },
                {
                    "name": "G#4",
                    "midi": 68,
                    "time": 5.429859999999998,
                    "velocity": 0.3543307086614173,
                    "duration": 0.27149299999999954
                },
                {
                    "name": "F#4",
                    "midi": 66,
                    "time": 5.7013529999999975,
                    "velocity": 0.33858267716535434,
                    "duration": 0.24434369999999994
                },
                {
                    "name": "F#4",
                    "midi": 66,
                    "time": 5.972845999999997,
                    "velocity": 0.33858267716535434,
                    "duration": 0.27149299999999954
                },
                {
                    "name": "D#5",
                    "midi": 75,
                    "time": 6.2443389999999965,
                    "velocity": 0.33858267716535434,
                    "duration": 0.27149299999999954
                },
                {
                    "name": "E4",
                    "midi": 64,
                    "time": 6.515831999999996,
                    "velocity": 0.31496062992125984,
                    "duration": 0.27149299999999954
                },
                {
                    "name": "C#5",
                    "midi": 73,
                    "time": 6.515831999999996,
                    "velocity": 0.3779527559055118,
                    "duration": 0.27149299999999954
                },
                {
                    "name": "F#4",
                    "midi": 66,
                    "time": 6.787324999999996,
                    "velocity": 0.4094488188976378,
                    "duration": 0.27149299999999954
                },
                {
                    "name": "D#4",
                    "midi": 63,
                    "time": 7.058817999999995,
                    "velocity": 0.4645669291338583,
                    "duration": 0.27149299999999954
                },
                {
                    "name": "B4",
                    "midi": 71,
                    "time": 7.058817999999995,
                    "velocity": 0.4645669291338583,
                    "duration": 0.27149299999999954
                },
                {
                    "name": "F#4",
                    "midi": 66,
                    "time": 7.330310999999995,
                    "velocity": 0.4409448818897638,
                    "duration": 0.27149299999999954
                },
                {
                    "name": "B4",
                    "midi": 71,
                    "time": 7.601803999999994,
                    "velocity": 0.4015748031496063,
                    "duration": 0.27149299999999954
                },
                {
                    "name": "D#5",
                    "midi": 75,
                    "time": 7.601803999999994,
                    "velocity": 0.47244094488188976,
                    "duration": 0.27149299999999954
                },
                {
                    "name": "F#4",
                    "midi": 66,
                    "time": 7.873296999999994,
                    "velocity": 0.4409448818897638,
                    "duration": 0.27149299999999954
                },
                {
                    "name": "B4",
                    "midi": 71,
                    "time": 8.144789999999993,
                    "velocity": 0.3543307086614173,
                    "duration": 0.27149299999999954
                },
                {
                    "name": "F5",
                    "midi": 77,
                    "time": 8.144789999999993,
                    "velocity": 0.41732283464566927,
                    "duration": 0.27149299999999954
                },
                {
                    "name": "F#4",
                    "midi": 66,
                    "time": 8.416282999999993,
                    "velocity": 0.3700787401574803,
                    "duration": 0.27149299999999954
                },
                {
                    "name": "F#5",
                    "midi": 78,
                    "time": 8.416282999999993,
                    "velocity": 0.4409448818897638,
                    "duration": 0.27149299999999954
                },
                {
                    "name": "G#5",
                    "midi": 80,
                    "time": 8.687775999999992,
                    "velocity": 0.4881889763779528,
                    "duration": 0.27149299999999954
                },
                {
                    "name": "B4",
                    "midi": 71,
                    "time": 8.687775999999992,
                    "velocity": 0.4094488188976378,
                    "duration": 0.27149299999999954
                },
                {
                    "name": "F#4",
                    "midi": 66,
                    "time": 8.959268999999992,
                    "velocity": 0.3779527559055118,
                    "duration": 0.27149299999999954
                },
                {
                    "name": "F#5",
                    "midi": 78,
                    "time": 8.959268999999992,
                    "velocity": 0.44881889763779526,
                    "duration": 0.27149299999999954
                },
                {
                    "name": "B4",
                    "midi": 71,
                    "time": 9.230761999999991,
                    "velocity": 0.36220472440944884,
                    "duration": 0.27149299999999954
                },
                {
                    "name": "E5",
                    "midi": 76,
                    "time": 9.230761999999991,
                    "velocity": 0.4330708661417323,
                    "duration": 0.27149299999999954
                },
                {
                    "name": "F#4",
                    "midi": 66,
                    "time": 9.502254999999991,
                    "velocity": 0.3543307086614173,
                    "duration": 0.27149299999999954
                },
                {
                    "name": "D#5",
                    "midi": 75,
                    "time": 9.502254999999991,
                    "velocity": 0.41732283464566927,
                    "duration": 0.27149299999999954
                },
                {
                    "name": "E4",
                    "midi": 64,
                    "time": 9.77374799999999,
                    "velocity": 0.3779527559055118,
                    "duration": 0.27149299999999954
                },
                {
                    "name": "C#5",
                    "midi": 73,
                    "time": 9.77374799999999,
                    "velocity": 0.44881889763779526,
                    "duration": 0.27149299999999954
                },
                {
                    "name": "F#4",
                    "midi": 66,
                    "time": 10.04524099999999,
                    "velocity": 0.4409448818897638,
                    "duration": 0.13574649999999977
                },
                {
                    "name": "A#4",
                    "midi": 70,
                    "time": 10.18098749999999,
                    "velocity": 0.33858267716535434,
                    "duration": 0.13574649999999977
                },
                {
                    "name": "G#4",
                    "midi": 68,
                    "time": 10.31673399999999,
                    "velocity": 0.4330708661417323,
                    "duration": 0.27149299999999954
                },
                {
                    "name": "F#4",
                    "midi": 66,
                    "time": 10.58822699999999,
                    "velocity": 0.4094488188976378,
                    "duration": 0.24434369999999994
                },
                {
                    "name": "F#4",
                    "midi": 66,
                    "time": 10.859719999999989,
                    "velocity": 0.4094488188976378,
                    "duration": 0.27149299999999954
                },
                {
                    "name": "D#5",
                    "midi": 75,
                    "time": 11.131212999999988,
                    "velocity": 0.4094488188976378,
                    "duration": 0.27149299999999954
                },
                {
                    "name": "E4",
                    "midi": 64,
                    "time": 11.402705999999988,
                    "velocity": 0.3858267716535433,
                    "duration": 0.27149299999999954
                },
                {
                    "name": "C#5",
                    "midi": 73,
                    "time": 11.402705999999988,
                    "velocity": 0.4566929133858268,
                    "duration": 0.27149299999999954
                },
                {
                    "name": "F#4",
                    "midi": 66,
                    "time": 11.674198999999987,
                    "velocity": 0.4330708661417323,
                    "duration": 0.13574649999999977
                },
                {
                    "name": "A#4",
                    "midi": 70,
                    "time": 11.809945499999987,
                    "velocity": 0.3228346456692913,
                    "duration": 0.13574649999999977
                },
                {
                    "name": "G#4",
                    "midi": 68,
                    "time": 11.945691999999987,
                    "velocity": 0.4094488188976378,
                    "duration": 0.27149299999999954
                },
                {
                    "name": "F#4",
                    "midi": 66,
                    "time": 12.217184999999986,
                    "velocity": 0.4015748031496063,
                    "duration": 0.24434369999999994
                },
                {
                    "name": "F#4",
                    "midi": 66,
                    "time": 12.488677999999986,
                    "velocity": 0.4015748031496063,
                    "duration": 0.27149299999999954
                },
                {
                    "name": "D#5",
                    "midi": 75,
                    "time": 12.760170999999985,
                    "velocity": 0.4015748031496063,
                    "duration": 0.27149299999999954
                },
                {
                    "name": "E4",
                    "midi": 64,
                    "time": 13.031663999999985,
                    "velocity": 0.4015748031496063,
                    "duration": 0.27149299999999954
                },
                {
                    "name": "C#5",
                    "midi": 73,
                    "time": 13.031663999999985,
                    "velocity": 0.48031496062992124,
                    "duration": 0.27149299999999954
                },
                {
                    "name": "F#4",
                    "midi": 66,
                    "time": 13.303156999999985,
                    "velocity": 0.4409448818897638,
                    "duration": 0.27149299999999954
                },
                {
                    "name": "D#4",
                    "midi": 63,
                    "time": 13.574649999999984,
                    "velocity": 0.4251968503937008,
                    "duration": 0.27149299999999954
                },
                {
                    "name": "B4",
                    "midi": 71,
                    "time": 13.574649999999984,
                    "velocity": 0.5039370078740157,
                    "duration": 0.27149299999999954
                },
                {
                    "name": "F#4",
                    "midi": 66,
                    "time": 13.846142999999984,
                    "velocity": 0.4645669291338583,
                    "duration": 0.27149299999999954
                },
                {
                    "name": "B4",
                    "midi": 71,
                    "time": 14.117635999999983,
                    "velocity": 0.4409448818897638,
                    "duration": 0.27149299999999954
                },
                {
                    "name": "D#5",
                    "midi": 75,
                    "time": 14.117635999999983,
                    "velocity": 0.5275590551181102,
                    "duration": 0.27149299999999954
                },
                {
                    "name": "F#4",
                    "midi": 66,
                    "time": 14.389128999999983,
                    "velocity": 0.4881889763779528,
                    "duration": 0.27149299999999954
                },
                {
                    "name": "B4",
                    "midi": 71,
                    "time": 14.660621999999982,
                    "velocity": 0.4645669291338583,
                    "duration": 0.27149299999999954
                },
                {
                    "name": "F#5",
                    "midi": 78,
                    "time": 14.660621999999982,
                    "velocity": 0.5511811023622047,
                    "duration": 0.27149299999999954
                },
                {
                    "name": "F#4",
                    "midi": 66,
                    "time": 14.932114999999982,
                    "velocity": 0.5196850393700787,
                    "duration": 0.27149299999999954
                },
                {
                    "name": "G5",
                    "midi": 79,
                    "time": 15.203607999999981,
                    "velocity": 0.5826771653543307,
                    "duration": 0.27149299999999954
                },
                {
                    "name": "B4",
                    "midi": 71,
                    "time": 15.203607999999981,
                    "velocity": 0.4881889763779528,
                    "duration": 0.27149299999999954
                },
                {
                    "name": "G4",
                    "midi": 67,
                    "time": 15.475100999999981,
                    "velocity": 0.5433070866141733,
                    "duration": 0.27149299999999954
                },
                {
                    "name": "G#5",
                    "midi": 80,
                    "time": 15.74659399999998,
                    "velocity": 0.5984251968503937,
                    "duration": 0.27149299999999954
                },
                {
                    "name": "B4",
                    "midi": 71,
                    "time": 15.74659399999998,
                    "velocity": 0.5039370078740157,
                    "duration": 0.27149299999999954
                },
                {
                    "name": "G#4",
                    "midi": 68,
                    "time": 16.01808699999998,
                    "velocity": 0.5511811023622047,
                    "duration": 0.27149299999999954
                },
                {
                    "name": "D#5",
                    "midi": 75,
                    "time": 16.28957999999998,
                    "velocity": 0.5039370078740157,
                    "duration": 0.27149299999999954
                },
                {
                    "name": "B5",
                    "midi": 83,
                    "time": 16.28957999999998,
                    "velocity": 0.5984251968503937,
                    "duration": 0.27149299999999954
                },
                {
                    "name": "D#5",
                    "midi": 75,
                    "time": 16.56107299999998,
                    "velocity": 0.5196850393700787,
                    "duration": 0.13574649999999977
                },
                {
                    "name": "F#5",
                    "midi": 78,
                    "time": 16.69681949999998,
                    "velocity": 0.36220472440944884,
                    "duration": 0.13574649999999977
                },
                {
                    "name": "E5",
                    "midi": 76,
                    "time": 16.83256599999998,
                    "velocity": 0.5511811023622047,
                    "duration": 0.27149299999999954
                },
                {
                    "name": "D#5",
                    "midi": 75,
                    "time": 17.104058999999978,
                    "velocity": 0.5196850393700787,
                    "duration": 0.27149299999999954
                },
                {
                    "name": "B4",
                    "midi": 71,
                    "time": 17.375551999999978,
                    "velocity": 0.5433070866141733,
                    "duration": 0.27149299999999954
                },
                {
                    "name": "B5",
                    "midi": 83,
                    "time": 17.647044999999977,
                    "velocity": 0.44881889763779526,
                    "duration": 0.27149299999999954
                },
                {
                    "name": "G#5",
                    "midi": 80,
                    "time": 17.647044999999977,
                    "velocity": 0.3779527559055118,
                    "duration": 0.27149299999999954
                },
                {
                    "name": "F#5",
                    "midi": 78,
                    "time": 17.918537999999977,
                    "velocity": 0.4251968503937008,
                    "duration": 0.27149299999999954
                },
                {
                    "name": "A#5",
                    "midi": 82,
                    "time": 17.918537999999977,
                    "velocity": 0.5039370078740157,
                    "duration": 0.27149299999999954
                },
                {
                    "name": "D#5",
                    "midi": 75,
                    "time": 18.190030999999976,
                    "velocity": 0.5118110236220472,
                    "duration": 0.27149299999999954
                },
                {
                    "name": "A#4",
                    "midi": 70,
                    "time": 18.461523999999976,
                    "velocity": 0.5118110236220472,
                    "duration": 0.13574649999999977
                },
                {
                    "name": "C#5",
                    "midi": 73,
                    "time": 18.597270499999976,
                    "velocity": 0.3700787401574803,
                    "duration": 0.13574649999999977
                },
                {
                    "name": "B4",
                    "midi": 71,
                    "time": 18.733016999999975,
                    "velocity": 0.5118110236220472,
                    "duration": 0.27149299999999954
                },
                {
                    "name": "A#4",
                    "midi": 70,
                    "time": 19.004509999999975,
                    "velocity": 0.49606299212598426,
                    "duration": 0.27149299999999954
                },
                {
                    "name": "F#5",
                    "midi": 78,
                    "time": 19.276002999999974,
                    "velocity": 0.44881889763779526,
                    "duration": 0.27149299999999954
                },
                {
                    "name": "D#5",
                    "midi": 75,
                    "time": 19.276002999999974,
                    "velocity": 0.3779527559055118,
                    "duration": 0.27149299999999954
                },
                {
                    "name": "B4",
                    "midi": 71,
                    "time": 19.547495999999974,
                    "velocity": 0.47244094488188976,
                    "duration": 1.3574649999999977
                },
                {
                    "name": "G#4",
                    "midi": 68,
                    "time": 19.547495999999974,
                    "velocity": 0.47244094488188976,
                    "duration": 0.27149299999999954
                },
                {
                    "name": "E4",
                    "midi": 64,
                    "time": 19.818988999999974,
                    "velocity": 0.4566929133858268,
                    "duration": 0.13574649999999977
                },
                {
                    "name": "G#4",
                    "midi": 68,
                    "time": 19.954735499999973,
                    "velocity": 0.3779527559055118,
                    "duration": 0.13574649999999977
                },
                {
                    "name": "F#4",
                    "midi": 66,
                    "time": 20.090481999999973,
                    "velocity": 0.49606299212598426,
                    "duration": 0.27149299999999954
                },
                {
                    "name": "E4",
                    "midi": 64,
                    "time": 20.361974999999973,
                    "velocity": 0.4251968503937008,
                    "duration": 0.27149299999999954
                },
                {
                    "name": "G#4",
                    "midi": 68,
                    "time": 20.633467999999972,
                    "velocity": 0.44881889763779526,
                    "duration": 0.5429859999999991
                },
                {
                    "name": "C#5",
                    "midi": 73,
                    "time": 20.90496099999997,
                    "velocity": 0.4645669291338583,
                    "duration": 0.27149299999999954
                },
                {
                    "name": "B4",
                    "midi": 71,
                    "time": 21.17645399999997,
                    "velocity": 0.48031496062992124,
                    "duration": 0.27149299999999954
                },
                {
                    "name": "D#5",
                    "midi": 75,
                    "time": 21.17645399999997,
                    "velocity": 0.48031496062992124,
                    "duration": 1.6289579999999972
                },
                {
                    "name": "D#4",
                    "midi": 63,
                    "time": 21.44794699999997,
                    "velocity": 0.4015748031496063,
                    "duration": 0.27149299999999954
                },
                {
                    "name": "F#4",
                    "midi": 66,
                    "time": 21.71943999999997,
                    "velocity": 0.4015748031496063,
                    "duration": 0.27149299999999954
                },
                {
                    "name": "D#4",
                    "midi": 63,
                    "time": 21.99093299999997,
                    "velocity": 0.4330708661417323,
                    "duration": 0.27149299999999954
                },
                {
                    "name": "F#4",
                    "midi": 66,
                    "time": 22.26242599999997,
                    "velocity": 0.4015748031496063,
                    "duration": 0.27149299999999954
                },
                {
                    "name": "G#4",
                    "midi": 68,
                    "time": 22.53391899999997,
                    "velocity": 0.3858267716535433,
                    "duration": 0.27149299999999954
                },
                {
                    "name": "E4",
                    "midi": 64,
                    "time": 22.80541199999997,
                    "velocity": 0.3779527559055118,
                    "duration": 0.27149299999999954
                },
                {
                    "name": "C#5",
                    "midi": 73,
                    "time": 22.80541199999997,
                    "velocity": 0.44881889763779526,
                    "duration": 0.27149299999999954
                },
                {
                    "name": "F#4",
                    "midi": 66,
                    "time": 23.076904999999968,
                    "velocity": 0.4094488188976378,
                    "duration": 0.13574649999999977
                },
                {
                    "name": "G#4",
                    "midi": 68,
                    "time": 23.212651499999968,
                    "velocity": 0.31496062992125984,
                    "duration": 0.06787325000000166
                },
                {
                    "name": "A#4",
                    "midi": 70,
                    "time": 23.28052474999997,
                    "velocity": 0.31496062992125984,
                    "duration": 0.06787325000000166
                },
                {
                    "name": "G#4",
                    "midi": 68,
                    "time": 23.34839799999997,
                    "velocity": 0.3937007874015748,
                    "duration": 0.27149299999999954
                },
                {
                    "name": "F#4",
                    "midi": 66,
                    "time": 23.61989099999997,
                    "velocity": 0.3858267716535433,
                    "duration": 0.24434370000000172
                },
                {
                    "name": "F#4",
                    "midi": 66,
                    "time": 23.891383999999974,
                    "velocity": 0.3858267716535433,
                    "duration": 0.27149299999999954
                },
                {
                    "name": "D#5",
                    "midi": 75,
                    "time": 24.162876999999973,
                    "velocity": 0.3858267716535433,
                    "duration": 0.27149299999999954
                },
                {
                    "name": "E4",
                    "midi": 64,
                    "time": 24.434369999999973,
                    "velocity": 0.3543307086614173,
                    "duration": 0.27149299999999954
                },
                {
                    "name": "C#5",
                    "midi": 73,
                    "time": 24.434369999999973,
                    "velocity": 0.4251968503937008,
                    "duration": 0.27149299999999954
                },
                {
                    "name": "F#4",
                    "midi": 66,
                    "time": 24.705862999999972,
                    "velocity": 0.4015748031496063,
                    "duration": 0.13574649999999977
                },
                {
                    "name": "G#4",
                    "midi": 68,
                    "time": 24.841609499999972,
                    "velocity": 0.31496062992125984,
                    "duration": 0.06787325000000166
                },
                {
                    "name": "A#4",
                    "midi": 70,
                    "time": 24.909482749999974,
                    "velocity": 0.31496062992125984,
                    "duration": 0.06787325000000166
                },
                {
                    "name": "G#4",
                    "midi": 68,
                    "time": 24.977355999999975,
                    "velocity": 0.3779527559055118,
                    "duration": 0.27149299999999954
                },
                {
                    "name": "F#4",
                    "midi": 66,
                    "time": 25.248848999999975,
                    "velocity": 0.3700787401574803,
                    "duration": 0.24434370000000172
                },
                {
                    "name": "F#4",
                    "midi": 66,
                    "time": 25.520341999999978,
                    "velocity": 0.3700787401574803,
                    "duration": 0.27149299999999954
                },
                {
                    "name": "D#5",
                    "midi": 75,
                    "time": 25.791834999999978,
                    "velocity": 0.3700787401574803,
                    "duration": 0.27149299999999954
                },
                {
                    "name": "E4",
                    "midi": 64,
                    "time": 26.063327999999977,
                    "velocity": 0.33858267716535434,
                    "duration": 0.27149299999999954
                },
                {
                    "name": "C#5",
                    "midi": 73,
                    "time": 26.063327999999977,
                    "velocity": 0.4015748031496063,
                    "duration": 0.27149299999999954
                },
                {
                    "name": "F#4",
                    "midi": 66,
                    "time": 26.334820999999977,
                    "velocity": 0.3543307086614173,
                    "duration": 0.27149299999999954
                },
                {
                    "name": "D#4",
                    "midi": 63,
                    "time": 26.606313999999976,
                    "velocity": 0.3464566929133858,
                    "duration": 0.27149299999999954
                },
                {
                    "name": "B4",
                    "midi": 71,
                    "time": 26.606313999999976,
                    "velocity": 0.4094488188976378,
                    "duration": 0.27149299999999954
                },
                {
                    "name": "F#4",
                    "midi": 66,
                    "time": 26.877806999999976,
                    "velocity": 0.3700787401574803,
                    "duration": 0.27149299999999954
                },
                {
                    "name": "B4",
                    "midi": 71,
                    "time": 27.149299999999975,
                    "velocity": 0.3464566929133858,
                    "duration": 0.27149299999999954
                },
                {
                    "name": "D#5",
                    "midi": 75,
                    "time": 27.149299999999975,
                    "velocity": 0.4094488188976378,
                    "duration": 0.27149299999999954
                },
                {
                    "name": "F#4",
                    "midi": 66,
                    "time": 27.420792999999975,
                    "velocity": 0.3779527559055118,
                    "duration": 0.27149299999999954
                },
                {
                    "name": "B4",
                    "midi": 71,
                    "time": 27.692285999999974,
                    "velocity": 0.3464566929133858,
                    "duration": 0.27149299999999954
                },
                {
                    "name": "F5",
                    "midi": 77,
                    "time": 27.692285999999974,
                    "velocity": 0.3464566929133858,
                    "duration": 0.27149299999999954
                },
                {
                    "name": "F#4",
                    "midi": 66,
                    "time": 27.963778999999974,
                    "velocity": 0.2677165354330709,
                    "duration": 0.27149299999999954
                },
                {
                    "name": "F#5",
                    "midi": 78,
                    "time": 27.963778999999974,
                    "velocity": 0.31496062992125984,
                    "duration": 0.27149299999999954
                },
                {
                    "name": "B4",
                    "midi": 71,
                    "time": 28.235271999999974,
                    "velocity": 0.29133858267716534,
                    "duration": 0.27149299999999954
                },
                {
                    "name": "G#5",
                    "midi": 80,
                    "time": 28.235271999999974,
                    "velocity": 0.3464566929133858,
                    "duration": 0.27149299999999954
                },
                {
                    "name": "F#4",
                    "midi": 66,
                    "time": 28.506764999999973,
                    "velocity": 0.2677165354330709,
                    "duration": 0.27149299999999954
                },
                {
                    "name": "F#5",
                    "midi": 78,
                    "time": 28.506764999999973,
                    "velocity": 0.31496062992125984,
                    "duration": 0.27149299999999954
                },
                {
                    "name": "B4",
                    "midi": 71,
                    "time": 28.778257999999973,
                    "velocity": 0.25196850393700787,
                    "duration": 0.27149299999999954
                },
                {
                    "name": "E5",
                    "midi": 76,
                    "time": 28.778257999999973,
                    "velocity": 0.2992125984251969,
                    "duration": 0.27149299999999954
                },
                {
                    "name": "F#4",
                    "midi": 66,
                    "time": 29.049750999999972,
                    "velocity": 0.25196850393700787,
                    "duration": 0.27149299999999954
                },
                {
                    "name": "D#5",
                    "midi": 75,
                    "time": 29.049750999999972,
                    "velocity": 0.2992125984251969,
                    "duration": 0.27149299999999954
                },
                {
                    "name": "E4",
                    "midi": 64,
                    "time": 29.32124399999997,
                    "velocity": 0.30708661417322836,
                    "duration": 0.27149299999999954
                },
                {
                    "name": "C#5",
                    "midi": 73,
                    "time": 29.32124399999997,
                    "velocity": 0.36220472440944884,
                    "duration": 0.27149299999999954
                },
                {
                    "name": "F#4",
                    "midi": 66,
                    "time": 29.59273699999997,
                    "velocity": 0.3700787401574803,
                    "duration": 0.13574649999999977
                },
                {
                    "name": "G#4",
                    "midi": 68,
                    "time": 29.72848349999997,
                    "velocity": 0.25196850393700787,
                    "duration": 0.06787325000000166
                },
                {
                    "name": "A#4",
                    "midi": 70,
                    "time": 29.796356749999973,
                    "velocity": 0.25196850393700787,
                    "duration": 0.06787325000000166
                },
                {
                    "name": "G#4",
                    "midi": 68,
                    "time": 29.864229999999974,
                    "velocity": 0.3464566929133858,
                    "duration": 0.27149299999999954
                },
                {
                    "name": "F#4",
                    "midi": 66,
                    "time": 30.135722999999974,
                    "velocity": 0.3464566929133858,
                    "duration": 0.24434370000000172
                },
                {
                    "name": "F#4",
                    "midi": 66,
                    "time": 30.407215999999977,
                    "velocity": 0.3464566929133858,
                    "duration": 0.27149299999999954
                },
                {
                    "name": "D#5",
                    "midi": 75,
                    "time": 30.678708999999976,
                    "velocity": 0.3464566929133858,
                    "duration": 0.27149299999999954
                },
                {
                    "name": "E4",
                    "midi": 64,
                    "time": 30.950201999999976,
                    "velocity": 0.33070866141732286,
                    "duration": 0.27149299999999954
                },
                {
                    "name": "C#5",
                    "midi": 73,
                    "time": 30.950201999999976,
                    "velocity": 0.3937007874015748,
                    "duration": 0.27149299999999954
                },
                {
                    "name": "F#4",
                    "midi": 66,
                    "time": 31.221694999999976,
                    "velocity": 0.3700787401574803,
                    "duration": 0.13574649999999977
                },
                {
                    "name": "G#4",
                    "midi": 68,
                    "time": 31.357441499999975,
                    "velocity": 0.2440944881889764,
                    "duration": 0.06787325000000166
                },
                {
                    "name": "A#4",
                    "midi": 70,
                    "time": 31.425314749999977,
                    "velocity": 0.2440944881889764,
                    "duration": 0.06787325000000166
                },
                {
                    "name": "G#4",
                    "midi": 68,
                    "time": 31.49318799999998,
                    "velocity": 0.33858267716535434,
                    "duration": 0.27149299999999954
                },
                {
                    "name": "F#4",
                    "midi": 66,
                    "time": 31.764680999999978,
                    "velocity": 0.33858267716535434,
                    "duration": 0.24434369999999817
                },
                {
                    "name": "F#4",
                    "midi": 66,
                    "time": 32.036173999999974,
                    "velocity": 0.33858267716535434,
                    "duration": 0.27149299999999954
                },
                {
                    "name": "F#5",
                    "midi": 78,
                    "time": 32.307666999999974,
                    "velocity": 0.33858267716535434,
                    "duration": 0.27149299999999954
                },
                {
                    "name": "D#4",
                    "midi": 63,
                    "time": 32.511286749999975,
                    "velocity": 0.3937007874015748,
                    "duration": 1.6968312499999954
                },
                {
                    "name": "F#5",
                    "midi": 78,
                    "time": 32.57915999999997,
                    "velocity": 0.41732283464566927,
                    "duration": 1.6289579999999972
                },
                {
                    "name": "F5",
                    "midi": 77,
                    "time": 34.20811799999997,
                    "velocity": 0.4566929133858268,
                    "duration": 0.27149299999999954
                },
                {
                    "name": "F#5",
                    "midi": 78,
                    "time": 34.47961099999997,
                    "velocity": 0.47244094488188976,
                    "duration": 0.27149299999999954
                },
                {
                    "name": "G#5",
                    "midi": 80,
                    "time": 34.75110399999997,
                    "velocity": 0.49606299212598426,
                    "duration": 0.27149299999999954
                },
                {
                    "name": "F#5",
                    "midi": 78,
                    "time": 35.02259699999997,
                    "velocity": 0.47244094488188976,
                    "duration": 0.27149299999999954
                },
                {
                    "name": "E5",
                    "midi": 76,
                    "time": 35.29408999999997,
                    "velocity": 0.4566929133858268,
                    "duration": 0.27149299999999954
                },
                {
                    "name": "D#5",
                    "midi": 75,
                    "time": 35.56558299999997,
                    "velocity": 0.4251968503937008,
                    "duration": 0.27149299999999954
                },
                {
                    "name": "D#5",
                    "midi": 75,
                    "time": 35.83707599999997,
                    "velocity": 0.4015748031496063,
                    "duration": 0.8144789999999986
                },
                {
                    "name": "G4",
                    "midi": 67,
                    "time": 36.651554999999966,
                    "velocity": 0.2992125984251969,
                    "duration": 0.27149299999999954
                },
                {
                    "name": "D5",
                    "midi": 74,
                    "time": 36.651554999999966,
                    "velocity": 0.3543307086614173,
                    "duration": 0.27149299999999954
                },
                {
                    "name": "D#5",
                    "midi": 75,
                    "time": 36.923047999999966,
                    "velocity": 0.3937007874015748,
                    "duration": 0.27149299999999954
                },
                {
                    "name": "E5",
                    "midi": 76,
                    "time": 37.194540999999965,
                    "velocity": 0.3937007874015748,
                    "duration": 0.27149299999999954
                },
                {
                    "name": "G#4",
                    "midi": 68,
                    "time": 37.466033999999965,
                    "velocity": 0.29133858267716534,
                    "duration": 0.8144789999999986
                },
                {
                    "name": "D#5",
                    "midi": 75,
                    "time": 37.466033999999965,
                    "velocity": 0.3464566929133858,
                    "duration": 0.27149299999999954
                },
                {
                    "name": "C#5",
                    "midi": 73,
                    "time": 37.737526999999965,
                    "velocity": 0.4015748031496063,
                    "duration": 0.27149299999999954
                },
                {
                    "name": "B4",
                    "midi": 71,
                    "time": 38.009019999999964,
                    "velocity": 0.3858267716535433,
                    "duration": 0.27149299999999954
                },
                {
                    "name": "D#5",
                    "midi": 75,
                    "time": 38.280512999999964,
                    "velocity": 0.36220472440944884,
                    "duration": 0.27149299999999954
                },
                {
                    "name": "E4",
                    "midi": 64,
                    "time": 38.280512999999964,
                    "velocity": 0.30708661417322836,
                    "duration": 0.8144789999999986
                },
                {
                    "name": "C#5",
                    "midi": 73,
                    "time": 38.55200599999996,
                    "velocity": 0.4094488188976378,
                    "duration": 0.27149299999999954
                },
                {
                    "name": "B4",
                    "midi": 71,
                    "time": 38.82349899999996,
                    "velocity": 0.3858267716535433,
                    "duration": 0.27149299999999954
                },
                {
                    "name": "D#4",
                    "midi": 63,
                    "time": 39.09499199999996,
                    "velocity": 0.30708661417322836,
                    "duration": 1.6289579999999972
                },
                {
                    "name": "B4",
                    "midi": 71,
                    "time": 39.09499199999996,
                    "velocity": 0.36220472440944884,
                    "duration": 1.6289579999999972
                },
                {
                    "name": "D#4",
                    "midi": 63,
                    "time": 40.72394999999996,
                    "velocity": 0.25196850393700787,
                    "duration": 1.6289579999999972
                },
                {
                    "name": "F#4",
                    "midi": 66,
                    "time": 40.72394999999996,
                    "velocity": 0.2992125984251969,
                    "duration": 1.6289579999999972
                },
                {
                    "name": "D#4",
                    "midi": 63,
                    "time": 42.35290799999996,
                    "velocity": 0.2992125984251969,
                    "duration": 1.6289579999999972
                }
            ],
            "controlChanges": {
                "7": [
                    {
                        "number": 7,
                        "time": 0,
                        "value": 0.7874015748031497
                    }
                ],
                "10": [
                    {
                        "number": 10,
                        "time": 0,
                        "value": 0.5039370078740157
                    }
                ],
                "91": [
                    {
                        "number": 91,
                        "time": 0,
                        "value": 1
                    }
                ]
            },
            "id": 1,
            "name": "Piano right",
            "instrumentNumber": 0,
            "instrument": "acoustic grand piano",
            "instrumentFamily": "piano",
            "channelNumber": 0,
            "isPercussion": false
        },
        {
            "startTime": 3.257916,
            "duration": 43.98186599999997,
            "length": 126,
            "notes": [
                {
                    "name": "A#3",
                    "midi": 58,
                    "time": 3.257916,
                    "velocity": 0.25984251968503935,
                    "duration": 0.271493
                },
                {
                    "name": "F#3",
                    "midi": 54,
                    "time": 3.529409,
                    "velocity": 0.2440944881889764,
                    "duration": 0.271493
                },
                {
                    "name": "C#3",
                    "midi": 49,
                    "time": 3.800902,
                    "velocity": 0.2677165354330709,
                    "duration": 0.27149300000000043
                },
                {
                    "name": "F#2",
                    "midi": 42,
                    "time": 4.072395,
                    "velocity": 0.2440944881889764,
                    "duration": 0.27149299999999954
                },
                {
                    "name": "C#3",
                    "midi": 49,
                    "time": 4.343888,
                    "velocity": 0.25984251968503935,
                    "duration": 0.27149299999999954
                },
                {
                    "name": "F#3",
                    "midi": 54,
                    "time": 4.615380999999999,
                    "velocity": 0.25984251968503935,
                    "duration": 0.27149299999999954
                },
                {
                    "name": "A#3",
                    "midi": 58,
                    "time": 4.886873999999999,
                    "velocity": 0.28346456692913385,
                    "duration": 0.27149299999999954
                },
                {
                    "name": "F#3",
                    "midi": 54,
                    "time": 5.158366999999998,
                    "velocity": 0.25984251968503935,
                    "duration": 0.27149299999999954
                },
                {
                    "name": "C#3",
                    "midi": 49,
                    "time": 5.429859999999998,
                    "velocity": 0.25984251968503935,
                    "duration": 0.27149299999999954
                },
                {
                    "name": "F#2",
                    "midi": 42,
                    "time": 5.7013529999999975,
                    "velocity": 0.25984251968503935,
                    "duration": 0.27149299999999954
                },
                {
                    "name": "C#3",
                    "midi": 49,
                    "time": 5.972845999999997,
                    "velocity": 0.25984251968503935,
                    "duration": 0.27149299999999954
                },
                {
                    "name": "F#3",
                    "midi": 54,
                    "time": 6.2443389999999965,
                    "velocity": 0.25984251968503935,
                    "duration": 0.27149299999999954
                },
                {
                    "name": "B2",
                    "midi": 47,
                    "time": 6.515831999999996,
                    "velocity": 0.30708661417322836,
                    "duration": 0.27149299999999954
                },
                {
                    "name": "F#3",
                    "midi": 54,
                    "time": 6.787324999999996,
                    "velocity": 0.2755905511811024,
                    "duration": 0.27149299999999954
                },
                {
                    "name": "B2",
                    "midi": 47,
                    "time": 7.058817999999995,
                    "velocity": 0.33858267716535434,
                    "duration": 0.27149299999999954
                },
                {
                    "name": "F#3",
                    "midi": 54,
                    "time": 7.330310999999995,
                    "velocity": 0.2992125984251969,
                    "duration": 0.27149299999999954
                },
                {
                    "name": "D#3",
                    "midi": 51,
                    "time": 7.601803999999994,
                    "velocity": 0.3464566929133858,
                    "duration": 0.27149299999999954
                },
                {
                    "name": "B3",
                    "midi": 59,
                    "time": 7.873296999999994,
                    "velocity": 0.31496062992125984,
                    "duration": 0.27149299999999954
                },
                {
                    "name": "D#4",
                    "midi": 63,
                    "time": 8.144789999999993,
                    "velocity": 0.25196850393700787,
                    "duration": 0.27149299999999954
                },
                {
                    "name": "F#3",
                    "midi": 54,
                    "time": 8.416282999999993,
                    "velocity": 0.25984251968503935,
                    "duration": 0.27149299999999954
                },
                {
                    "name": "B3",
                    "midi": 59,
                    "time": 8.687775999999992,
                    "velocity": 0.30708661417322836,
                    "duration": 0.27149299999999954
                },
                {
                    "name": "D#3",
                    "midi": 51,
                    "time": 8.959268999999992,
                    "velocity": 0.25984251968503935,
                    "duration": 0.2714930000000013
                },
                {
                    "name": "F#3",
                    "midi": 54,
                    "time": 9.230761999999993,
                    "velocity": 0.28346456692913385,
                    "duration": 0.27149299999999954
                },
                {
                    "name": "B2",
                    "midi": 47,
                    "time": 9.502254999999993,
                    "velocity": 0.25984251968503935,
                    "duration": 0.27149299999999954
                },
                {
                    "name": "A#3",
                    "midi": 58,
                    "time": 9.773747999999992,
                    "velocity": 0.31496062992125984,
                    "duration": 0.2714930000000013
                },
                {
                    "name": "F#3",
                    "midi": 54,
                    "time": 10.045240999999994,
                    "velocity": 0.29133858267716534,
                    "duration": 0.27149299999999954
                },
                {
                    "name": "C#3",
                    "midi": 49,
                    "time": 10.316733999999993,
                    "velocity": 0.31496062992125984,
                    "duration": 0.27149299999999954
                },
                {
                    "name": "F#2",
                    "midi": 42,
                    "time": 10.588226999999993,
                    "velocity": 0.28346456692913385,
                    "duration": 0.27149299999999954
                },
                {
                    "name": "C#3",
                    "midi": 49,
                    "time": 10.859719999999992,
                    "velocity": 0.28346456692913385,
                    "duration": 0.27149299999999954
                },
                {
                    "name": "F#3",
                    "midi": 54,
                    "time": 11.131212999999992,
                    "velocity": 0.28346456692913385,
                    "duration": 0.27149299999999954
                },
                {
                    "name": "A#3",
                    "midi": 58,
                    "time": 11.402705999999991,
                    "velocity": 0.31496062992125984,
                    "duration": 0.27149299999999954
                },
                {
                    "name": "F#3",
                    "midi": 54,
                    "time": 11.674198999999991,
                    "velocity": 0.2677165354330709,
                    "duration": 0.27149299999999954
                },
                {
                    "name": "C#3",
                    "midi": 49,
                    "time": 11.94569199999999,
                    "velocity": 0.2992125984251969,
                    "duration": 0.27149299999999954
                },
                {
                    "name": "F#2",
                    "midi": 42,
                    "time": 12.21718499999999,
                    "velocity": 0.2755905511811024,
                    "duration": 0.27149299999999954
                },
                {
                    "name": "C#3",
                    "midi": 49,
                    "time": 12.48867799999999,
                    "velocity": 0.2992125984251969,
                    "duration": 0.27149299999999954
                },
                {
                    "name": "F#3",
                    "midi": 54,
                    "time": 12.760170999999989,
                    "velocity": 0.25196850393700787,
                    "duration": 0.27149299999999954
                },
                {
                    "name": "B2",
                    "midi": 47,
                    "time": 13.031663999999989,
                    "velocity": 0.3228346456692913,
                    "duration": 0.27149299999999954
                },
                {
                    "name": "F#3",
                    "midi": 54,
                    "time": 13.303156999999988,
                    "velocity": 0.29133858267716534,
                    "duration": 0.27149299999999954
                },
                {
                    "name": "B2",
                    "midi": 47,
                    "time": 13.574649999999988,
                    "velocity": 0.3543307086614173,
                    "duration": 0.27149299999999954
                },
                {
                    "name": "F#3",
                    "midi": 54,
                    "time": 13.846142999999987,
                    "velocity": 0.28346456692913385,
                    "duration": 0.27149299999999954
                },
                {
                    "name": "D#3",
                    "midi": 51,
                    "time": 14.117635999999987,
                    "velocity": 0.3779527559055118,
                    "duration": 0.27149299999999954
                },
                {
                    "name": "B3",
                    "midi": 59,
                    "time": 14.389128999999986,
                    "velocity": 0.30708661417322836,
                    "duration": 0.27149299999999954
                },
                {
                    "name": "D#4",
                    "midi": 63,
                    "time": 14.660621999999986,
                    "velocity": 0.3779527559055118,
                    "duration": 0.27149299999999954
                },
                {
                    "name": "F#3",
                    "midi": 54,
                    "time": 14.932114999999985,
                    "velocity": 0.30708661417322836,
                    "duration": 0.27149299999999954
                },
                {
                    "name": "C#4",
                    "midi": 61,
                    "time": 15.203607999999985,
                    "velocity": 0.4094488188976378,
                    "duration": 0.27149299999999954
                },
                {
                    "name": "E3",
                    "midi": 52,
                    "time": 15.475100999999984,
                    "velocity": 0.3779527559055118,
                    "duration": 0.27149299999999954
                },
                {
                    "name": "B3",
                    "midi": 59,
                    "time": 15.746593999999984,
                    "velocity": 0.41732283464566927,
                    "duration": 0.27149299999999954
                },
                {
                    "name": "D#3",
                    "midi": 51,
                    "time": 16.018086999999984,
                    "velocity": 0.3858267716535433,
                    "duration": 0.27149299999999954
                },
                {
                    "name": "G#2",
                    "midi": 44,
                    "time": 16.289579999999983,
                    "velocity": 0.4251968503937008,
                    "duration": 0.27149299999999954
                },
                {
                    "name": "D#3",
                    "midi": 51,
                    "time": 16.561072999999983,
                    "velocity": 0.3700787401574803,
                    "duration": 0.27149299999999954
                },
                {
                    "name": "D#4",
                    "midi": 63,
                    "time": 16.832565999999982,
                    "velocity": 0.4251968503937008,
                    "duration": 0.27149299999999954
                },
                {
                    "name": "G#3",
                    "midi": 56,
                    "time": 17.10405899999998,
                    "velocity": 0.3700787401574803,
                    "duration": 0.27149299999999954
                },
                {
                    "name": "D#4",
                    "midi": 63,
                    "time": 17.37555199999998,
                    "velocity": 0.4094488188976378,
                    "duration": 0.27149299999999954
                },
                {
                    "name": "B3",
                    "midi": 59,
                    "time": 17.64704499999998,
                    "velocity": 0.2755905511811024,
                    "duration": 0.27149299999999954
                },
                {
                    "name": "D#3",
                    "midi": 51,
                    "time": 17.91853799999998,
                    "velocity": 0.30708661417322836,
                    "duration": 0.27149299999999954
                },
                {
                    "name": "F#4",
                    "midi": 66,
                    "time": 18.19003099999998,
                    "velocity": 0.3464566929133858,
                    "duration": 0.27149299999999954
                },
                {
                    "name": "A#3",
                    "midi": 58,
                    "time": 18.46152399999998,
                    "velocity": 0.3858267716535433,
                    "duration": 0.27149299999999954
                },
                {
                    "name": "F#3",
                    "midi": 54,
                    "time": 18.73301699999998,
                    "velocity": 0.31496062992125984,
                    "duration": 0.27149299999999954
                },
                {
                    "name": "D#4",
                    "midi": 63,
                    "time": 19.00450999999998,
                    "velocity": 0.3700787401574803,
                    "duration": 0.27149299999999954
                },
                {
                    "name": "A#3",
                    "midi": 58,
                    "time": 19.276002999999978,
                    "velocity": 0.3858267716535433,
                    "duration": 0.27149299999999954
                },
                {
                    "name": "E2",
                    "midi": 40,
                    "time": 19.547495999999978,
                    "velocity": 0.41732283464566927,
                    "duration": 0.27149299999999954
                },
                {
                    "name": "B3",
                    "midi": 59,
                    "time": 19.818988999999977,
                    "velocity": 0.2992125984251969,
                    "duration": 0.27149299999999954
                },
                {
                    "name": "B2",
                    "midi": 47,
                    "time": 20.090481999999977,
                    "velocity": 0.28346456692913385,
                    "duration": 0.27149299999999954
                },
                {
                    "name": "G#3",
                    "midi": 56,
                    "time": 20.361974999999976,
                    "velocity": 0.2755905511811024,
                    "duration": 0.27149299999999954
                },
                {
                    "name": "B3",
                    "midi": 59,
                    "time": 20.633467999999976,
                    "velocity": 0.29133858267716534,
                    "duration": 0.27149299999999954
                },
                {
                    "name": "E3",
                    "midi": 52,
                    "time": 20.904960999999975,
                    "velocity": 0.33070866141732286,
                    "duration": 0.27149299999999954
                },
                {
                    "name": "B2",
                    "midi": 47,
                    "time": 21.176453999999975,
                    "velocity": 0.31496062992125984,
                    "duration": 0.2714930000000031
                },
                {
                    "name": "F3",
                    "midi": 53,
                    "time": 21.447946999999978,
                    "velocity": 0.31496062992125984,
                    "duration": 0.27149299999999954
                },
                {
                    "name": "F#3",
                    "midi": 54,
                    "time": 21.719439999999977,
                    "velocity": 0.3700787401574803,
                    "duration": 0.27149299999999954
                },
                {
                    "name": "C#4",
                    "midi": 61,
                    "time": 21.990932999999977,
                    "velocity": 0.3779527559055118,
                    "duration": 0.27149299999999954
                },
                {
                    "name": "B3",
                    "midi": 59,
                    "time": 22.262425999999977,
                    "velocity": 0.33858267716535434,
                    "duration": 0.27149299999999954
                },
                {
                    "name": "G#3",
                    "midi": 56,
                    "time": 22.533918999999976,
                    "velocity": 0.2755905511811024,
                    "duration": 0.27149299999999954
                },
                {
                    "name": "A#3",
                    "midi": 58,
                    "time": 22.805411999999976,
                    "velocity": 0.2992125984251969,
                    "duration": 0.27149299999999954
                },
                {
                    "name": "F#3",
                    "midi": 54,
                    "time": 23.076904999999975,
                    "velocity": 0.2440944881889764,
                    "duration": 0.27149299999999954
                },
                {
                    "name": "C#3",
                    "midi": 49,
                    "time": 23.348397999999975,
                    "velocity": 0.28346456692913385,
                    "duration": 0.27149299999999954
                },
                {
                    "name": "F#2",
                    "midi": 42,
                    "time": 23.619890999999974,
                    "velocity": 0.23622047244094488,
                    "duration": 0.27149299999999954
                },
                {
                    "name": "C#3",
                    "midi": 49,
                    "time": 23.891383999999974,
                    "velocity": 0.2677165354330709,
                    "duration": 0.27149299999999954
                },
                {
                    "name": "F#3",
                    "midi": 54,
                    "time": 24.162876999999973,
                    "velocity": 0.2677165354330709,
                    "duration": 0.27149299999999954
                },
                {
                    "name": "A#3",
                    "midi": 58,
                    "time": 24.434369999999973,
                    "velocity": 0.28346456692913385,
                    "duration": 0.271492999999996
                },
                {
                    "name": "F#3",
                    "midi": 54,
                    "time": 24.70586299999997,
                    "velocity": 0.25984251968503935,
                    "duration": 0.27149299999999954
                },
                {
                    "name": "C#3",
                    "midi": 49,
                    "time": 24.97735599999997,
                    "velocity": 0.2755905511811024,
                    "duration": 0.27149299999999954
                },
                {
                    "name": "F#2",
                    "midi": 42,
                    "time": 25.248848999999968,
                    "velocity": 0.2440944881889764,
                    "duration": 0.27149299999999954
                },
                {
                    "name": "C#3",
                    "midi": 49,
                    "time": 25.520341999999967,
                    "velocity": 0.25196850393700787,
                    "duration": 0.27149299999999954
                },
                {
                    "name": "F#3",
                    "midi": 54,
                    "time": 25.791834999999967,
                    "velocity": 0.23622047244094488,
                    "duration": 0.27149299999999954
                },
                {
                    "name": "B1",
                    "midi": 35,
                    "time": 26.063327999999967,
                    "velocity": 0.2755905511811024,
                    "duration": 0.27149299999999954
                },
                {
                    "name": "F#2",
                    "midi": 42,
                    "time": 26.334820999999966,
                    "velocity": 0.25196850393700787,
                    "duration": 0.27149299999999954
                },
                {
                    "name": "B2",
                    "midi": 47,
                    "time": 26.606313999999966,
                    "velocity": 0.28346456692913385,
                    "duration": 0.27149299999999954
                },
                {
                    "name": "F#3",
                    "midi": 54,
                    "time": 26.877806999999965,
                    "velocity": 0.2440944881889764,
                    "duration": 0.27149299999999954
                },
                {
                    "name": "D#3",
                    "midi": 51,
                    "time": 27.149299999999965,
                    "velocity": 0.29133858267716534,
                    "duration": 0.27149299999999954
                },
                {
                    "name": "B3",
                    "midi": 59,
                    "time": 27.420792999999964,
                    "velocity": 0.25984251968503935,
                    "duration": 0.27149299999999954
                },
                {
                    "name": "D4",
                    "midi": 62,
                    "time": 27.692285999999964,
                    "velocity": 0.2125984251968504,
                    "duration": 0.27149299999999954
                },
                {
                    "name": "D#4",
                    "midi": 63,
                    "time": 27.963778999999963,
                    "velocity": 0.2125984251968504,
                    "duration": 0.27149299999999954
                },
                {
                    "name": "E4",
                    "midi": 64,
                    "time": 28.235271999999963,
                    "velocity": 0.2283464566929134,
                    "duration": 0.27149299999999954
                },
                {
                    "name": "D#4",
                    "midi": 63,
                    "time": 28.506764999999962,
                    "velocity": 0.2125984251968504,
                    "duration": 0.2714930000000031
                },
                {
                    "name": "C#4",
                    "midi": 61,
                    "time": 28.778257999999965,
                    "velocity": 0.23622047244094488,
                    "duration": 0.27149299999999954
                },
                {
                    "name": "B3",
                    "midi": 59,
                    "time": 29.049750999999965,
                    "velocity": 0.2283464566929134,
                    "duration": 0.27149299999999954
                },
                {
                    "name": "A#3",
                    "midi": 58,
                    "time": 29.321243999999965,
                    "velocity": 0.28346456692913385,
                    "duration": 0.2714930000000031
                },
                {
                    "name": "C#3",
                    "midi": 49,
                    "time": 29.864229999999967,
                    "velocity": 0.23622047244094488,
                    "duration": 0.27149299999999954
                },
                {
                    "name": "F#2",
                    "midi": 42,
                    "time": 30.135722999999967,
                    "velocity": 0.23622047244094488,
                    "duration": 0.27149299999999954
                },
                {
                    "name": "C#3",
                    "midi": 49,
                    "time": 30.407215999999966,
                    "velocity": 0.23622047244094488,
                    "duration": 0.27149299999999954
                },
                {
                    "name": "F#3",
                    "midi": 54,
                    "time": 30.678708999999966,
                    "velocity": 0.23622047244094488,
                    "duration": 0.27149299999999954
                },
                {
                    "name": "A#3",
                    "midi": 58,
                    "time": 30.950201999999965,
                    "velocity": 0.2755905511811024,
                    "duration": 0.27149299999999954
                },
                {
                    "name": "F#3",
                    "midi": 54,
                    "time": 31.221694999999965,
                    "velocity": 0.2283464566929134,
                    "duration": 0.27149299999999954
                },
                {
                    "name": "C#3",
                    "midi": 49,
                    "time": 31.493187999999964,
                    "velocity": 0.2677165354330709,
                    "duration": 0.27149299999999954
                },
                {
                    "name": "F#2",
                    "midi": 42,
                    "time": 31.764680999999964,
                    "velocity": 0.2440944881889764,
                    "duration": 0.2714930000000031
                },
                {
                    "name": "C#3",
                    "midi": 49,
                    "time": 32.03617399999997,
                    "velocity": 0.2440944881889764,
                    "duration": 0.27149299999999954
                },
                {
                    "name": "A#3",
                    "midi": 58,
                    "time": 32.30766699999997,
                    "velocity": 0.2677165354330709,
                    "duration": 0.27149299999999954
                },
                {
                    "name": "B2",
                    "midi": 47,
                    "time": 32.579159999999966,
                    "velocity": 0.25984251968503935,
                    "duration": 1.6289580000000043
                },
                {
                    "name": "F#3",
                    "midi": 54,
                    "time": 32.579159999999966,
                    "velocity": 0.25984251968503935,
                    "duration": 1.6289580000000043
                },
                {
                    "name": "A#3",
                    "midi": 58,
                    "time": 36.65155499999997,
                    "velocity": 0.25196850393700787,
                    "duration": 0.8144789999999986
                },
                {
                    "name": "D#3",
                    "midi": 51,
                    "time": 36.65155499999997,
                    "velocity": 0.2125984251968504,
                    "duration": 0.8144789999999986
                },
                {
                    "name": "G#3",
                    "midi": 56,
                    "time": 37.46603399999997,
                    "velocity": 0.2283464566929134,
                    "duration": 0.8144789999999986
                },
                {
                    "name": "B3",
                    "midi": 59,
                    "time": 37.46603399999997,
                    "velocity": 0.2755905511811024,
                    "duration": 0.8144789999999986
                },
                {
                    "name": "F#3",
                    "midi": 54,
                    "time": 38.28051299999997,
                    "velocity": 0.2283464566929134,
                    "duration": 0.8144789999999986
                },
                {
                    "name": "A#3",
                    "midi": 58,
                    "time": 38.28051299999997,
                    "velocity": 0.2755905511811024,
                    "duration": 0.8144789999999986
                },
                {
                    "name": "F#3",
                    "midi": 54,
                    "time": 39.09499199999997,
                    "velocity": 0.25196850393700787,
                    "duration": 1.6289579999999972
                },
                {
                    "name": "B2",
                    "midi": 47,
                    "time": 39.09499199999997,
                    "velocity": 0.2125984251968504,
                    "duration": 1.6289579999999972
                },
                {
                    "name": "B1",
                    "midi": 35,
                    "time": 40.72394999999997,
                    "velocity": 0.1732283464566929,
                    "duration": 0.8144789999999986
                },
                {
                    "name": "B2",
                    "midi": 47,
                    "time": 40.72394999999997,
                    "velocity": 0.2047244094488189,
                    "duration": 0.8144789999999986
                },
                {
                    "name": "F#3",
                    "midi": 54,
                    "time": 40.72394999999997,
                    "velocity": 0.2047244094488189,
                    "duration": 1.6289579999999972
                },
                {
                    "name": "F#2",
                    "midi": 42,
                    "time": 41.538428999999965,
                    "velocity": 0.2047244094488189,
                    "duration": 0.8144789999999986
                },
                {
                    "name": "F#1",
                    "midi": 30,
                    "time": 41.538428999999965,
                    "velocity": 0.1732283464566929,
                    "duration": 0.8144789999999986
                },
                {
                    "name": "B3",
                    "midi": 59,
                    "time": 42.352907999999964,
                    "velocity": 0.2047244094488189,
                    "duration": 1.6289580000000043
                },
                {
                    "name": "B2",
                    "midi": 47,
                    "time": 42.352907999999964,
                    "velocity": 0.1732283464566929,
                    "duration": 1.6289580000000043
                },
                {
                    "name": "B1",
                    "midi": 35,
                    "time": 42.352907999999964,
                    "velocity": 0.1732283464566929,
                    "duration": 1.6289580000000043
                },
                {
                    "name": "F#3",
                    "midi": 54,
                    "time": 42.352907999999964,
                    "velocity": 0.2047244094488189,
                    "duration": 1.6289580000000043
                }
            ],
            "controlChanges": {
                "7": [
                    {
                        "number": 7,
                        "time": 0,
                        "value": 0.7874015748031497
                    }
                ],
                "10": [
                    {
                        "number": 10,
                        "time": 0,
                        "value": 0.5039370078740157
                    }
                ],
                "64": [
                    {
                        "number": 64,
                        "time": 0,
                        "value": 0
                    },
                    {
                        "number": 64,
                        "time": 0.15158359166666666,
                        "value": 1
                    },
                    {
                        "number": 64,
                        "time": 1.6402702083333331,
                        "value": 0
                    },
                    {
                        "number": 64,
                        "time": 3.3382326791666665,
                        "value": 1
                    },
                    {
                        "number": 64,
                        "time": 4.900448649999999,
                        "value": 0
                    },
                    {
                        "number": 64,
                        "time": 5.054294683333332,
                        "value": 1
                    },
                    {
                        "number": 64,
                        "time": 6.526012987499996,
                        "value": 0
                    },
                    {
                        "number": 64,
                        "time": 6.651578499999996,
                        "value": 1
                    },
                    {
                        "number": 64,
                        "time": 8.972843649999993,
                        "value": 0
                    },
                    {
                        "number": 64,
                        "time": 9.869901770833327,
                        "value": 1
                    },
                    {
                        "number": 64,
                        "time": 11.415149429166657,
                        "value": 0
                    },
                    {
                        "number": 64,
                        "time": 11.530533954166657,
                        "value": 1
                    },
                    {
                        "number": 64,
                        "time": 13.049763533333321,
                        "value": 0
                    },
                    {
                        "number": 64,
                        "time": 13.167410499999988,
                        "value": 1
                    },
                    {
                        "number": 64,
                        "time": 14.950214533333318,
                        "value": 0
                    },
                    {
                        "number": 64,
                        "time": 15.074648824999985,
                        "value": 1
                    },
                    {
                        "number": 64,
                        "time": 15.763562312499984,
                        "value": 0
                    },
                    {
                        "number": 64,
                        "time": 15.91514590416665,
                        "value": 1
                    },
                    {
                        "number": 64,
                        "time": 16.30541709166665,
                        "value": 0
                    },
                    {
                        "number": 64,
                        "time": 16.433245045833317,
                        "value": 1
                    },
                    {
                        "number": 64,
                        "time": 17.93550631249998,
                        "value": 0
                    },
                    {
                        "number": 64,
                        "time": 18.03052886249998,
                        "value": 1
                    },
                    {
                        "number": 64,
                        "time": 19.561070649999976,
                        "value": 0
                    },
                    {
                        "number": 64,
                        "time": 19.69116104583331,
                        "value": 1
                    },
                    {
                        "number": 64,
                        "time": 21.193422312499976,
                        "value": 0
                    },
                    {
                        "number": 64,
                        "time": 21.29296974583331,
                        "value": 1
                    },
                    {
                        "number": 64,
                        "time": 22.006770091666645,
                        "value": 0
                    },
                    {
                        "number": 64,
                        "time": 22.133466824999978,
                        "value": 1
                    },
                    {
                        "number": 64,
                        "time": 22.814461766666643,
                        "value": 0
                    },
                    {
                        "number": 64,
                        "time": 22.881203795833308,
                        "value": 1
                    },
                    {
                        "number": 64,
                        "time": 24.44794464999997,
                        "value": 0
                    },
                    {
                        "number": 64,
                        "time": 24.514686679166637,
                        "value": 1
                    },
                    {
                        "number": 64,
                        "time": 26.076902649999965,
                        "value": 0
                    },
                    {
                        "number": 64,
                        "time": 26.2748662958333,
                        "value": 1
                    },
                    {
                        "number": 64,
                        "time": 27.705860649999963,
                        "value": 0
                    },
                    {
                        "number": 64,
                        "time": 27.84726325416663,
                        "value": 1
                    },
                    {
                        "number": 64,
                        "time": 28.52260209166663,
                        "value": 0
                    },
                    {
                        "number": 64,
                        "time": 29.389117249999966,
                        "value": 1
                    },
                    {
                        "number": 64,
                        "time": 30.9581205458333,
                        "value": 0
                    },
                    {
                        "number": 64,
                        "time": 31.0022381583333,
                        "value": 1
                    },
                    {
                        "number": 64,
                        "time": 31.781649312499965,
                        "value": 0
                    },
                    {
                        "number": 64,
                        "time": 31.8642284333333,
                        "value": 1
                    },
                    {
                        "number": 64,
                        "time": 32.5904722083333,
                        "value": 0
                    },
                    {
                        "number": 64,
                        "time": 32.8212412583333,
                        "value": 1
                    },
                    {
                        "number": 64,
                        "time": 34.20811799999997,
                        "value": 0
                    },
                    {
                        "number": 64,
                        "time": 39.4422767958333,
                        "value": 1
                    },
                    {
                        "number": 64,
                        "time": 42.3642202083333,
                        "value": 0
                    },
                    {
                        "number": 64,
                        "time": 42.5949892583333,
                        "value": 1
                    },
                    {
                        "number": 64,
                        "time": 43.98186599999997,
                        "value": 0
                    }
                ],
                "91": [
                    {
                        "number": 91,
                        "time": 0,
                        "value": 1
                    },
                    {
                        "number": 91,
                        "time": 0,
                        "value": 1
                    }
                ]
            },
            "id": 2,
            "name": "Piano left",
            "instrumentNumber": 0,
            "instrument": "acoustic grand piano",
            "instrumentFamily": "piano",
            "channelNumber": 0,
            "isPercussion": false
        },
        {
            "startTime": 0,
            "duration": 0,
            "length": 0,
            "notes": [],
            "controlChanges": {},
            "id": 3,
            "name": "Chopin: Prelude No.11 in B, Op. 28"
        },
        {
            "startTime": 0,
            "duration": 0,
            "length": 0,
            "notes": [],
            "controlChanges": {},
            "id": 4,
            "name": "Copyright  1997 by Bernd Krueger"
        },
        {
            "startTime": 0,
            "duration": 0,
            "length": 0,
            "notes": [],
            "controlChanges": {},
            "id": 5,
            "name": "http://www.piano-midi.de"
        },
        {
            "startTime": 0,
            "duration": 0,
            "length": 0,
            "notes": [],
            "controlChanges": {},
            "id": 6,
            "name": "Edition: 2014-02-20"
        }
    ]
}