{
    "header": {
        "PPQ": 480,
        "timeSignature": [
            4,
            4
        ],
        "bpm": 41.88999269019627,
        "name": "Chopin Prelude  No. 20, Opus 28"
    },
    "startTime": 0,
    "duration": 74.48079599999997,
    "tracks": [
        {
            "startTime": 0,
            "duration": 0,
            "length": 0,
            "notes": [],
            "controlChanges": {},
            "id": 0,
            "name": "Chopin Prelude  No. 20, Opus 28"
        },
        {
            "startTime": 0,
            "duration": 74.48079599999991,
            "length": 186,
            "notes": [
                {
                    "name": "G3",
                    "midi": 55,
                    "time": 0,
                    "velocity": 0.5984251968503937,
                    "duration": 1.432323
                },
                {
                    "name": "G4",
                    "midi": 67,
                    "time": 0,
                    "velocity": 0.7165354330708661,
                    "duration": 1.432323
                },
                {
                    "name": "D#4",
                    "midi": 63,
                    "time": 0,
                    "velocity": 0.7165354330708661,
                    "duration": 1.432323
                },
                {
                    "name": "C4",
                    "midi": 60,
                    "time": 0,
                    "velocity": 0.5984251968503937,
                    "duration": 1.432323
                },
                {
                    "name": "C4",
                    "midi": 60,
                    "time": 1.432323,
                    "velocity": 0.5826771653543307,
                    "duration": 1.432323
                },
                {
                    "name": "G#3",
                    "midi": 56,
                    "time": 1.432323,
                    "velocity": 0.5826771653543307,
                    "duration": 1.432323
                },
                {
                    "name": "D#4",
                    "midi": 63,
                    "time": 1.432323,
                    "velocity": 0.6850393700787402,
                    "duration": 1.432323
                },
                {
                    "name": "G#4",
                    "midi": 68,
                    "time": 1.432323,
                    "velocity": 0.6850393700787402,
                    "duration": 1.432323
                },
                {
                    "name": "G4",
                    "midi": 67,
                    "time": 2.864646,
                    "velocity": 0.7007874015748031,
                    "duration": 1.0742422499999997
                },
                {
                    "name": "G3",
                    "midi": 55,
                    "time": 2.864646,
                    "velocity": 0.5905511811023622,
                    "duration": 1.4323229999999998
                },
                {
                    "name": "D#4",
                    "midi": 63,
                    "time": 2.864646,
                    "velocity": 0.7007874015748031,
                    "duration": 1.0742422499999997
                },
                {
                    "name": "B3",
                    "midi": 59,
                    "time": 2.864646,
                    "velocity": 0.5905511811023622,
                    "duration": 1.4323229999999998
                },
                {
                    "name": "F4",
                    "midi": 65,
                    "time": 3.9388882499999998,
                    "velocity": 0.6220472440944882,
                    "duration": 0.35808075000000006
                },
                {
                    "name": "D4",
                    "midi": 62,
                    "time": 3.9388882499999998,
                    "velocity": 0.6220472440944882,
                    "duration": 0.35808075000000006
                },
                {
                    "name": "G3",
                    "midi": 55,
                    "time": 4.296969,
                    "velocity": 0.5433070866141733,
                    "duration": 1.3607068499999997
                },
                {
                    "name": "D#4",
                    "midi": 63,
                    "time": 4.296969,
                    "velocity": 0.6456692913385826,
                    "duration": 1.3607068499999997
                },
                {
                    "name": "D#3",
                    "midi": 51,
                    "time": 4.296969,
                    "velocity": 0.5433070866141733,
                    "duration": 1.3607068499999997
                },
                {
                    "name": "C4",
                    "midi": 60,
                    "time": 4.296969,
                    "velocity": 0.6456692913385826,
                    "duration": 1.3607068499999997
                },
                {
                    "name": "G#3",
                    "midi": 56,
                    "time": 5.729291999999999,
                    "velocity": 0.5984251968503937,
                    "duration": 1.4323230000000002
                },
                {
                    "name": "C4",
                    "midi": 60,
                    "time": 5.729291999999999,
                    "velocity": 0.7165354330708661,
                    "duration": 1.4323230000000002
                },
                {
                    "name": "D#3",
                    "midi": 51,
                    "time": 5.729291999999999,
                    "velocity": 0.5984251968503937,
                    "duration": 1.4323230000000002
                },
                {
                    "name": "D#4",
                    "midi": 63,
                    "time": 5.729291999999999,
                    "velocity": 0.7165354330708661,
                    "duration": 1.4323230000000002
                },
                {
                    "name": "F4",
                    "midi": 65,
                    "time": 7.161614999999999,
                    "velocity": 0.7007874015748031,
                    "duration": 1.4323230000000002
                },
                {
                    "name": "C#4",
                    "midi": 61,
                    "time": 7.161614999999999,
                    "velocity": 0.7007874015748031,
                    "duration": 1.4323230000000002
                },
                {
                    "name": "F3",
                    "midi": 53,
                    "time": 7.161614999999999,
                    "velocity": 0.5984251968503937,
                    "duration": 1.4323230000000002
                },
                {
                    "name": "G#3",
                    "midi": 56,
                    "time": 7.161614999999999,
                    "velocity": 0.5984251968503937,
                    "duration": 1.4323230000000002
                },
                {
                    "name": "C4",
                    "midi": 60,
                    "time": 8.593938,
                    "velocity": 0.7007874015748031,
                    "duration": 1.0742422499999993
                },
                {
                    "name": "D#4",
                    "midi": 63,
                    "time": 8.593938,
                    "velocity": 0.7007874015748031,
                    "duration": 1.0742422499999993
                },
                {
                    "name": "C#3",
                    "midi": 49,
                    "time": 8.593938,
                    "velocity": 0.5354330708661418,
                    "duration": 1.4323229999999985
                },
                {
                    "name": "D#3",
                    "midi": 51,
                    "time": 8.593938,
                    "velocity": 0.5905511811023622,
                    "duration": 1.4323229999999985
                },
                {
                    "name": "G3",
                    "midi": 55,
                    "time": 8.593938,
                    "velocity": 0.5905511811023622,
                    "duration": 1.4323229999999985
                },
                {
                    "name": "C#4",
                    "midi": 61,
                    "time": 9.668180249999999,
                    "velocity": 0.6456692913385826,
                    "duration": 0.35808074999999917
                },
                {
                    "name": "A#3",
                    "midi": 58,
                    "time": 9.668180249999999,
                    "velocity": 0.6456692913385826,
                    "duration": 0.35808074999999917
                },
                {
                    "name": "C3",
                    "midi": 48,
                    "time": 10.026260999999998,
                    "velocity": 0.5669291338582677,
                    "duration": 1.3607068499999997
                },
                {
                    "name": "G#3",
                    "midi": 56,
                    "time": 10.026260999999998,
                    "velocity": 0.6692913385826772,
                    "duration": 1.3607068499999997
                },
                {
                    "name": "D#3",
                    "midi": 51,
                    "time": 10.026260999999998,
                    "velocity": 0.5669291338582677,
                    "duration": 1.3607068499999997
                },
                {
                    "name": "C4",
                    "midi": 60,
                    "time": 10.026260999999998,
                    "velocity": 0.6692913385826772,
                    "duration": 1.3607068499999997
                },
                {
                    "name": "D4",
                    "midi": 62,
                    "time": 11.458583999999998,
                    "velocity": 0.6771653543307087,
                    "duration": 1.4323230000000002
                },
                {
                    "name": "B3",
                    "midi": 59,
                    "time": 11.458583999999998,
                    "velocity": 0.6771653543307087,
                    "duration": 1.4323230000000002
                },
                {
                    "name": "D3",
                    "midi": 50,
                    "time": 11.458583999999998,
                    "velocity": 0.5669291338582677,
                    "duration": 1.4323230000000002
                },
                {
                    "name": "F3",
                    "midi": 53,
                    "time": 11.458583999999998,
                    "velocity": 0.5669291338582677,
                    "duration": 1.4323230000000002
                },
                {
                    "name": "C4",
                    "midi": 60,
                    "time": 12.890906999999999,
                    "velocity": 0.6850393700787402,
                    "duration": 1.4323230000000002
                },
                {
                    "name": "G3",
                    "midi": 55,
                    "time": 12.890906999999999,
                    "velocity": 0.5748031496062992,
                    "duration": 1.4323230000000002
                },
                {
                    "name": "A#3",
                    "midi": 58,
                    "time": 12.890906999999999,
                    "velocity": 0.5748031496062992,
                    "duration": 1.4323230000000002
                },
                {
                    "name": "E3",
                    "midi": 52,
                    "time": 12.890906999999999,
                    "velocity": 0.5748031496062992,
                    "duration": 1.4323230000000002
                },
                {
                    "name": "E4",
                    "midi": 64,
                    "time": 12.890906999999999,
                    "velocity": 0.6850393700787402,
                    "duration": 1.4323230000000002
                },
                {
                    "name": "G4",
                    "midi": 67,
                    "time": 14.323229999999999,
                    "velocity": 0.7086614173228346,
                    "duration": 1.0742422499999993
                },
                {
                    "name": "C4",
                    "midi": 60,
                    "time": 14.323229999999999,
                    "velocity": 0.6220472440944882,
                    "duration": 1.4323229999999985
                },
                {
                    "name": "G#3",
                    "midi": 56,
                    "time": 14.323229999999999,
                    "velocity": 0.5669291338582677,
                    "duration": 1.4323229999999985
                },
                {
                    "name": "F4",
                    "midi": 65,
                    "time": 15.397472249999998,
                    "velocity": 0.6299212598425197,
                    "duration": 0.35808074999999917
                },
                {
                    "name": "D#4",
                    "midi": 63,
                    "time": 15.755552999999997,
                    "velocity": 0.7086614173228346,
                    "duration": 1.4323229999999985
                },
                {
                    "name": "C4",
                    "midi": 60,
                    "time": 15.755552999999997,
                    "velocity": 0.7086614173228346,
                    "duration": 1.4323229999999985
                },
                {
                    "name": "G3",
                    "midi": 55,
                    "time": 15.755552999999997,
                    "velocity": 0.5984251968503937,
                    "duration": 1.4323229999999985
                },
                {
                    "name": "D4",
                    "midi": 62,
                    "time": 17.187875999999996,
                    "velocity": 0.7244094488188977,
                    "duration": 1.4323230000000002
                },
                {
                    "name": "C4",
                    "midi": 60,
                    "time": 17.187875999999996,
                    "velocity": 0.7244094488188977,
                    "duration": 1.4323230000000002
                },
                {
                    "name": "F#3",
                    "midi": 54,
                    "time": 17.187875999999996,
                    "velocity": 0.5984251968503937,
                    "duration": 1.4323230000000002
                },
                {
                    "name": "B3",
                    "midi": 59,
                    "time": 18.620198999999996,
                    "velocity": 0.5984251968503937,
                    "duration": 1.4323230000000002
                },
                {
                    "name": "G3",
                    "midi": 55,
                    "time": 18.620198999999996,
                    "velocity": 0.5984251968503937,
                    "duration": 1.4323230000000002
                },
                {
                    "name": "G4",
                    "midi": 67,
                    "time": 18.620198999999996,
                    "velocity": 0.7322834645669292,
                    "duration": 1.4323230000000002
                },
                {
                    "name": "D4",
                    "midi": 62,
                    "time": 18.620198999999996,
                    "velocity": 0.7322834645669292,
                    "duration": 1.4323230000000002
                },
                {
                    "name": "F#4",
                    "midi": 66,
                    "time": 20.052521999999996,
                    "velocity": 0.6377952755905512,
                    "duration": 1.4323230000000002
                },
                {
                    "name": "B4",
                    "midi": 71,
                    "time": 20.052521999999996,
                    "velocity": 0.7086614173228346,
                    "duration": 1.074242250000001
                },
                {
                    "name": "C4",
                    "midi": 60,
                    "time": 20.052521999999996,
                    "velocity": 0.5511811023622047,
                    "duration": 1.4323230000000002
                },
                {
                    "name": "D4",
                    "midi": 62,
                    "time": 20.052521999999996,
                    "velocity": 0.5511811023622047,
                    "duration": 1.4323230000000002
                },
                {
                    "name": "A4",
                    "midi": 69,
                    "time": 21.126764249999997,
                    "velocity": 0.5984251968503937,
                    "duration": 0.35808074999999917
                },
                {
                    "name": "B3",
                    "midi": 59,
                    "time": 21.484844999999996,
                    "velocity": 0.5354330708661418,
                    "duration": 1.3607068499999997
                },
                {
                    "name": "D4",
                    "midi": 62,
                    "time": 21.484844999999996,
                    "velocity": 0.6299212598425197,
                    "duration": 1.3607068499999997
                },
                {
                    "name": "G4",
                    "midi": 67,
                    "time": 21.484844999999996,
                    "velocity": 0.6299212598425197,
                    "duration": 1.3607068499999997
                },
                {
                    "name": "D#4",
                    "midi": 63,
                    "time": 22.917167999999997,
                    "velocity": 0.29133858267716534,
                    "duration": 1.4323230000000002
                },
                {
                    "name": "D#5",
                    "midi": 75,
                    "time": 22.917167999999997,
                    "velocity": 0.3543307086614173,
                    "duration": 1.4323230000000002
                },
                {
                    "name": "G4",
                    "midi": 67,
                    "time": 22.917167999999997,
                    "velocity": 0.3543307086614173,
                    "duration": 1.4323230000000002
                },
                {
                    "name": "D#5",
                    "midi": 75,
                    "time": 24.349490999999997,
                    "velocity": 0.3543307086614173,
                    "duration": 1.4323230000000002
                },
                {
                    "name": "G#4",
                    "midi": 68,
                    "time": 24.349490999999997,
                    "velocity": 0.3543307086614173,
                    "duration": 1.4323230000000002
                },
                {
                    "name": "D#4",
                    "midi": 63,
                    "time": 24.349490999999997,
                    "velocity": 0.29133858267716534,
                    "duration": 1.4323230000000002
                },
                {
                    "name": "D4",
                    "midi": 62,
                    "time": 25.781813999999997,
                    "velocity": 0.29133858267716534,
                    "duration": 1.4323230000000002
                },
                {
                    "name": "G#4",
                    "midi": 68,
                    "time": 25.781813999999997,
                    "velocity": 0.3543307086614173,
                    "duration": 1.074242250000001
                },
                {
                    "name": "D5",
                    "midi": 74,
                    "time": 25.781813999999997,
                    "velocity": 0.3543307086614173,
                    "duration": 1.4323230000000002
                },
                {
                    "name": "F#4",
                    "midi": 66,
                    "time": 26.856056249999998,
                    "velocity": 0.3228346456692913,
                    "duration": 0.35808074999999917
                },
                {
                    "name": "G4",
                    "midi": 67,
                    "time": 27.214136999999997,
                    "velocity": 0.3543307086614173,
                    "duration": 1.3607068499999997
                },
                {
                    "name": "D5",
                    "midi": 74,
                    "time": 27.214136999999997,
                    "velocity": 0.3543307086614173,
                    "duration": 1.3607068499999997
                },
                {
                    "name": "D4",
                    "midi": 62,
                    "time": 27.214136999999997,
                    "velocity": 0.29133858267716534,
                    "duration": 1.3607068499999997
                },
                {
                    "name": "C5",
                    "midi": 72,
                    "time": 28.646459999999998,
                    "velocity": 0.3543307086614173,
                    "duration": 1.4323230000000002
                },
                {
                    "name": "C4",
                    "midi": 60,
                    "time": 28.646459999999998,
                    "velocity": 0.29133858267716534,
                    "duration": 1.4323230000000002
                },
                {
                    "name": "G4",
                    "midi": 67,
                    "time": 28.646459999999998,
                    "velocity": 0.3543307086614173,
                    "duration": 1.4323230000000002
                },
                {
                    "name": "D4",
                    "midi": 62,
                    "time": 30.078782999999998,
                    "velocity": 0.3543307086614173,
                    "duration": 1.4323230000000002
                },
                {
                    "name": "F#4",
                    "midi": 66,
                    "time": 30.078782999999998,
                    "velocity": 0.3543307086614173,
                    "duration": 1.4323230000000002
                },
                {
                    "name": "C4",
                    "midi": 60,
                    "time": 30.078782999999998,
                    "velocity": 0.2992125984251969,
                    "duration": 1.4323230000000002
                },
                {
                    "name": "D5",
                    "midi": 74,
                    "time": 30.078782999999998,
                    "velocity": 0.3543307086614173,
                    "duration": 1.4323230000000002
                },
                {
                    "name": "D4",
                    "midi": 62,
                    "time": 31.511105999999998,
                    "velocity": 0.30708661417322836,
                    "duration": 1.0742422499999975
                },
                {
                    "name": "B4",
                    "midi": 71,
                    "time": 31.511105999999998,
                    "velocity": 0.36220472440944884,
                    "duration": 1.0742422499999975
                },
                {
                    "name": "G4",
                    "midi": 67,
                    "time": 31.511105999999998,
                    "velocity": 0.36220472440944884,
                    "duration": 1.0742422499999975
                },
                {
                    "name": "C4",
                    "midi": 60,
                    "time": 32.585348249999996,
                    "velocity": 0.28346456692913385,
                    "duration": 0.35808074999999917
                },
                {
                    "name": "A4",
                    "midi": 69,
                    "time": 32.585348249999996,
                    "velocity": 0.3464566929133858,
                    "duration": 0.35808074999999917
                },
                {
                    "name": "D4",
                    "midi": 62,
                    "time": 32.943428999999995,
                    "velocity": 0.36220472440944884,
                    "duration": 1.3607068499999997
                },
                {
                    "name": "B3",
                    "midi": 59,
                    "time": 32.943428999999995,
                    "velocity": 0.30708661417322836,
                    "duration": 1.3607068499999997
                },
                {
                    "name": "G4",
                    "midi": 67,
                    "time": 32.943428999999995,
                    "velocity": 0.36220472440944884,
                    "duration": 1.3607068499999997
                },
                {
                    "name": "G4",
                    "midi": 67,
                    "time": 34.37575199999999,
                    "velocity": 0.3858267716535433,
                    "duration": 1.4323229999999967
                },
                {
                    "name": "C5",
                    "midi": 72,
                    "time": 34.37575199999999,
                    "velocity": 0.3858267716535433,
                    "duration": 1.4323229999999967
                },
                {
                    "name": "C4",
                    "midi": 60,
                    "time": 34.37575199999999,
                    "velocity": 0.3228346456692913,
                    "duration": 1.4323229999999967
                },
                {
                    "name": "G#3",
                    "midi": 56,
                    "time": 35.80807499999999,
                    "velocity": 0.3228346456692913,
                    "duration": 1.4323229999999967
                },
                {
                    "name": "C4",
                    "midi": 60,
                    "time": 35.80807499999999,
                    "velocity": 0.3858267716535433,
                    "duration": 1.4323229999999967
                },
                {
                    "name": "G#4",
                    "midi": 68,
                    "time": 35.80807499999999,
                    "velocity": 0.3858267716535433,
                    "duration": 1.4323229999999967
                },
                {
                    "name": "G3",
                    "midi": 55,
                    "time": 37.240397999999985,
                    "velocity": 0.3543307086614173,
                    "duration": 1.4323229999999967
                },
                {
                    "name": "D4",
                    "midi": 62,
                    "time": 37.240397999999985,
                    "velocity": 0.41732283464566927,
                    "duration": 1.4323229999999967
                },
                {
                    "name": "G4",
                    "midi": 67,
                    "time": 37.240397999999985,
                    "velocity": 0.41732283464566927,
                    "duration": 1.0742422499999975
                },
                {
                    "name": "F4",
                    "midi": 65,
                    "time": 38.31464024999998,
                    "velocity": 0.3543307086614173,
                    "duration": 0.35808074999999917
                },
                {
                    "name": "D#4",
                    "midi": 63,
                    "time": 38.67272099999998,
                    "velocity": 0.3858267716535433,
                    "duration": 1.3607068499999997
                },
                {
                    "name": "G3",
                    "midi": 55,
                    "time": 38.67272099999998,
                    "velocity": 0.3228346456692913,
                    "duration": 1.3607068499999997
                },
                {
                    "name": "C4",
                    "midi": 60,
                    "time": 38.67272099999998,
                    "velocity": 0.3858267716535433,
                    "duration": 1.3607068499999997
                },
                {
                    "name": "C4",
                    "midi": 60,
                    "time": 40.10504399999998,
                    "velocity": 0.3779527559055118,
                    "duration": 1.4323229999999967
                },
                {
                    "name": "D#4",
                    "midi": 63,
                    "time": 40.10504399999998,
                    "velocity": 0.3779527559055118,
                    "duration": 1.4323229999999967
                },
                {
                    "name": "G#3",
                    "midi": 56,
                    "time": 40.10504399999998,
                    "velocity": 0.31496062992125984,
                    "duration": 1.4323229999999967
                },
                {
                    "name": "D#3",
                    "midi": 51,
                    "time": 40.10504399999998,
                    "velocity": 0.31496062992125984,
                    "duration": 1.4323229999999967
                },
                {
                    "name": "G#3",
                    "midi": 56,
                    "time": 41.537366999999975,
                    "velocity": 0.30708661417322836,
                    "duration": 1.4323229999999967
                },
                {
                    "name": "C#4",
                    "midi": 61,
                    "time": 41.537366999999975,
                    "velocity": 0.36220472440944884,
                    "duration": 1.4323229999999967
                },
                {
                    "name": "F3",
                    "midi": 53,
                    "time": 41.537366999999975,
                    "velocity": 0.30708661417322836,
                    "duration": 1.4323229999999967
                },
                {
                    "name": "F4",
                    "midi": 65,
                    "time": 41.537366999999975,
                    "velocity": 0.36220472440944884,
                    "duration": 1.4323229999999967
                },
                {
                    "name": "B3",
                    "midi": 59,
                    "time": 42.96968999999997,
                    "velocity": 0.3779527559055118,
                    "duration": 1.4323229999999967
                },
                {
                    "name": "G3",
                    "midi": 55,
                    "time": 42.96968999999997,
                    "velocity": 0.31496062992125984,
                    "duration": 1.4323229999999967
                },
                {
                    "name": "D#4",
                    "midi": 63,
                    "time": 42.96968999999997,
                    "velocity": 0.3779527559055118,
                    "duration": 1.0742422499999975
                },
                {
                    "name": "F3",
                    "midi": 53,
                    "time": 42.96968999999997,
                    "velocity": 0.31496062992125984,
                    "duration": 1.4323229999999967
                },
                {
                    "name": "D4",
                    "midi": 62,
                    "time": 44.04393224999997,
                    "velocity": 0.3464566929133858,
                    "duration": 0.35808074999999917
                },
                {
                    "name": "D#3",
                    "midi": 51,
                    "time": 44.40201299999997,
                    "velocity": 0.28346456692913385,
                    "duration": 1.3607068499999997
                },
                {
                    "name": "G3",
                    "midi": 55,
                    "time": 44.40201299999997,
                    "velocity": 0.3464566929133858,
                    "duration": 1.3607068499999997
                },
                {
                    "name": "C4",
                    "midi": 60,
                    "time": 44.40201299999997,
                    "velocity": 0.3464566929133858,
                    "duration": 1.3607068499999997
                },
                {
                    "name": "G4",
                    "midi": 67,
                    "time": 45.834335999999965,
                    "velocity": 0.2283464566929134,
                    "duration": 1.4323229999999967
                },
                {
                    "name": "D#5",
                    "midi": 75,
                    "time": 45.834335999999965,
                    "velocity": 0.2283464566929134,
                    "duration": 1.4323229999999967
                },
                {
                    "name": "D#4",
                    "midi": 63,
                    "time": 45.834335999999965,
                    "velocity": 0.1889763779527559,
                    "duration": 1.4323229999999967
                },
                {
                    "name": "D#5",
                    "midi": 75,
                    "time": 47.26665899999996,
                    "velocity": 0.2283464566929134,
                    "duration": 1.4323229999999967
                },
                {
                    "name": "D#4",
                    "midi": 63,
                    "time": 47.26665899999996,
                    "velocity": 0.1889763779527559,
                    "duration": 1.4323229999999967
                },
                {
                    "name": "G#4",
                    "midi": 68,
                    "time": 47.26665899999996,
                    "velocity": 0.2283464566929134,
                    "duration": 1.4323229999999967
                },
                {
                    "name": "D4",
                    "midi": 62,
                    "time": 48.69898199999996,
                    "velocity": 0.1889763779527559,
                    "duration": 1.4323229999999967
                },
                {
                    "name": "D5",
                    "midi": 74,
                    "time": 48.69898199999996,
                    "velocity": 0.2283464566929134,
                    "duration": 1.4323229999999967
                },
                {
                    "name": "G#4",
                    "midi": 68,
                    "time": 48.69898199999996,
                    "velocity": 0.2283464566929134,
                    "duration": 1.0742422499999975
                },
                {
                    "name": "F#4",
                    "midi": 66,
                    "time": 49.773224249999956,
                    "velocity": 0.2125984251968504,
                    "duration": 0.35808074999999917
                },
                {
                    "name": "D4",
                    "midi": 62,
                    "time": 50.131304999999955,
                    "velocity": 0.1889763779527559,
                    "duration": 1.3607068499999997
                },
                {
                    "name": "D5",
                    "midi": 74,
                    "time": 50.131304999999955,
                    "velocity": 0.2283464566929134,
                    "duration": 1.3607068499999997
                },
                {
                    "name": "G4",
                    "midi": 67,
                    "time": 50.131304999999955,
                    "velocity": 0.2283464566929134,
                    "duration": 1.3607068499999997
                },
                {
                    "name": "C4",
                    "midi": 60,
                    "time": 51.56362799999995,
                    "velocity": 0.1889763779527559,
                    "duration": 1.4323229999999967
                },
                {
                    "name": "C5",
                    "midi": 72,
                    "time": 51.56362799999995,
                    "velocity": 0.2283464566929134,
                    "duration": 1.4323229999999967
                },
                {
                    "name": "G4",
                    "midi": 67,
                    "time": 51.56362799999995,
                    "velocity": 0.2283464566929134,
                    "duration": 1.4323229999999967
                },
                {
                    "name": "D5",
                    "midi": 74,
                    "time": 52.99595099999995,
                    "velocity": 0.23622047244094488,
                    "duration": 1.4323229999999967
                },
                {
                    "name": "F#4",
                    "midi": 66,
                    "time": 52.99595099999995,
                    "velocity": 0.23622047244094488,
                    "duration": 1.4323229999999967
                },
                {
                    "name": "D4",
                    "midi": 62,
                    "time": 52.99595099999995,
                    "velocity": 0.23622047244094488,
                    "duration": 1.4323229999999967
                },
                {
                    "name": "C4",
                    "midi": 60,
                    "time": 52.99595099999995,
                    "velocity": 0.1968503937007874,
                    "duration": 1.4323229999999967
                },
                {
                    "name": "G4",
                    "midi": 67,
                    "time": 54.428273999999945,
                    "velocity": 0.2440944881889764,
                    "duration": 1.0742422499999975
                },
                {
                    "name": "D4",
                    "midi": 62,
                    "time": 54.428273999999945,
                    "velocity": 0.2047244094488189,
                    "duration": 1.0742422499999975
                },
                {
                    "name": "B4",
                    "midi": 71,
                    "time": 54.428273999999945,
                    "velocity": 0.2440944881889764,
                    "duration": 1.0742422499999975
                },
                {
                    "name": "C4",
                    "midi": 60,
                    "time": 55.50251624999994,
                    "velocity": 0.1889763779527559,
                    "duration": 0.35808074999999917
                },
                {
                    "name": "A4",
                    "midi": 69,
                    "time": 55.50251624999994,
                    "velocity": 0.2204724409448819,
                    "duration": 0.35808074999999917
                },
                {
                    "name": "D4",
                    "midi": 62,
                    "time": 55.86059699999994,
                    "velocity": 0.2440944881889764,
                    "duration": 1.3607068499999997
                },
                {
                    "name": "B3",
                    "midi": 59,
                    "time": 55.86059699999994,
                    "velocity": 0.2047244094488189,
                    "duration": 1.3607068499999997
                },
                {
                    "name": "G4",
                    "midi": 67,
                    "time": 55.86059699999994,
                    "velocity": 0.2440944881889764,
                    "duration": 1.3607068499999997
                },
                {
                    "name": "C5",
                    "midi": 72,
                    "time": 57.29291999999994,
                    "velocity": 0.3228346456692913,
                    "duration": 1.4323229999999967
                },
                {
                    "name": "C4",
                    "midi": 60,
                    "time": 57.29291999999994,
                    "velocity": 0.2755905511811024,
                    "duration": 1.4323229999999967
                },
                {
                    "name": "G4",
                    "midi": 67,
                    "time": 57.29291999999994,
                    "velocity": 0.3228346456692913,
                    "duration": 1.4323229999999967
                },
                {
                    "name": "C4",
                    "midi": 60,
                    "time": 58.725242999999935,
                    "velocity": 0.3228346456692913,
                    "duration": 1.4323229999999967
                },
                {
                    "name": "G#3",
                    "midi": 56,
                    "time": 58.725242999999935,
                    "velocity": 0.2755905511811024,
                    "duration": 1.4323229999999967
                },
                {
                    "name": "G#4",
                    "midi": 68,
                    "time": 58.725242999999935,
                    "velocity": 0.3228346456692913,
                    "duration": 1.4323229999999967
                },
                {
                    "name": "G4",
                    "midi": 67,
                    "time": 60.15756599999993,
                    "velocity": 0.3543307086614173,
                    "duration": 1.0742422499999975
                },
                {
                    "name": "D4",
                    "midi": 62,
                    "time": 60.15756599999993,
                    "velocity": 0.3543307086614173,
                    "duration": 1.4323229999999967
                },
                {
                    "name": "G3",
                    "midi": 55,
                    "time": 60.15756599999993,
                    "velocity": 0.29133858267716534,
                    "duration": 1.4323229999999967
                },
                {
                    "name": "F4",
                    "midi": 65,
                    "time": 61.23180824999993,
                    "velocity": 0.2992125984251969,
                    "duration": 0.35808074999999917
                },
                {
                    "name": "D#4",
                    "midi": 63,
                    "time": 61.58988899999993,
                    "velocity": 0.3228346456692913,
                    "duration": 1.342802812499997
                },
                {
                    "name": "C4",
                    "midi": 60,
                    "time": 61.58988899999993,
                    "velocity": 0.3228346456692913,
                    "duration": 1.342802812499997
                },
                {
                    "name": "G3",
                    "midi": 55,
                    "time": 61.58988899999993,
                    "velocity": 0.2755905511811024,
                    "duration": 1.342802812499997
                },
                {
                    "name": "C4",
                    "midi": 60,
                    "time": 63.022211999999925,
                    "velocity": 0.31496062992125984,
                    "duration": 1.4323229999999967
                },
                {
                    "name": "G#3",
                    "midi": 56,
                    "time": 63.022211999999925,
                    "velocity": 0.2677165354330709,
                    "duration": 1.4323229999999967
                },
                {
                    "name": "D#3",
                    "midi": 51,
                    "time": 63.022211999999925,
                    "velocity": 0.2677165354330709,
                    "duration": 1.4323229999999967
                },
                {
                    "name": "D#4",
                    "midi": 63,
                    "time": 63.022211999999925,
                    "velocity": 0.31496062992125984,
                    "duration": 1.4323229999999967
                },
                {
                    "name": "F4",
                    "midi": 65,
                    "time": 64.45453499999992,
                    "velocity": 0.30708661417322836,
                    "duration": 1.4323229999999967
                },
                {
                    "name": "G#3",
                    "midi": 56,
                    "time": 64.45453499999992,
                    "velocity": 0.25984251968503935,
                    "duration": 1.4323229999999967
                },
                {
                    "name": "F3",
                    "midi": 53,
                    "time": 64.45453499999992,
                    "velocity": 0.25984251968503935,
                    "duration": 1.4323229999999967
                },
                {
                    "name": "C#4",
                    "midi": 61,
                    "time": 64.45453499999992,
                    "velocity": 0.30708661417322836,
                    "duration": 1.4323229999999967
                },
                {
                    "name": "D#4",
                    "midi": 63,
                    "time": 65.88685799999992,
                    "velocity": 0.31496062992125984,
                    "duration": 1.0742422499999975
                },
                {
                    "name": "B3",
                    "midi": 59,
                    "time": 65.88685799999992,
                    "velocity": 0.31496062992125984,
                    "duration": 1.4323229999999967
                },
                {
                    "name": "F3",
                    "midi": 53,
                    "time": 65.88685799999992,
                    "velocity": 0.2677165354330709,
                    "duration": 1.4323229999999967
                },
                {
                    "name": "G3",
                    "midi": 55,
                    "time": 65.88685799999992,
                    "velocity": 0.2677165354330709,
                    "duration": 1.4323229999999967
                },
                {
                    "name": "D4",
                    "midi": 62,
                    "time": 66.96110024999992,
                    "velocity": 0.28346456692913385,
                    "duration": 0.35808074999999917
                },
                {
                    "name": "G3",
                    "midi": 55,
                    "time": 67.31918099999992,
                    "velocity": 0.28346456692913385,
                    "duration": 1.4323229999999967
                },
                {
                    "name": "D#3",
                    "midi": 51,
                    "time": 67.31918099999992,
                    "velocity": 0.23622047244094488,
                    "duration": 1.4323229999999967
                },
                {
                    "name": "C4",
                    "midi": 60,
                    "time": 67.31918099999992,
                    "velocity": 0.28346456692913385,
                    "duration": 1.4323229999999967
                },
                {
                    "name": "C5",
                    "midi": 72,
                    "time": 68.75150399999991,
                    "velocity": 0.49606299212598426,
                    "duration": 5.729292000000001
                },
                {
                    "name": "G4",
                    "midi": 67,
                    "time": 68.75150399999991,
                    "velocity": 0.4094488188976378,
                    "duration": 5.729292000000001
                },
                {
                    "name": "C4",
                    "midi": 60,
                    "time": 68.75150399999991,
                    "velocity": 0.4094488188976378,
                    "duration": 5.729292000000001
                },
                {
                    "name": "D#4",
                    "midi": 63,
                    "time": 68.75150399999991,
                    "velocity": 0.4094488188976378,
                    "duration": 5.729292000000001
                }
            ],
            "controlChanges": {
                "7": [
                    {
                        "number": 7,
                        "time": 0,
                        "value": 0.7874015748031497
                    }
                ],
                "10": [
                    {
                        "number": 10,
                        "time": 0,
                        "value": 0.5039370078740157
                    }
                ],
                "64": [
                    {
                        "number": 64,
                        "time": 0,
                        "value": 0
                    }
                ],
                "91": [
                    {
                        "number": 91,
                        "time": 0,
                        "value": 1
                    }
                ]
            },
            "id": 1,
            "name": "Piano right",
            "instrumentNumber": 0,
            "instrument": "acoustic grand piano",
            "instrumentFamily": "piano",
            "channelNumber": 0,
            "isPercussion": false
        },
        {
            "startTime": 0,
            "duration": 74.48079599999997,
            "length": 100,
            "notes": [
                {
                    "name": "C2",
                    "midi": 36,
                    "time": 0,
                    "velocity": 0.5196850393700787,
                    "duration": 1.432323
                },
                {
                    "name": "C3",
                    "midi": 48,
                    "time": 0,
                    "velocity": 0.6220472440944882,
                    "duration": 1.432323
                },
                {
                    "name": "F1",
                    "midi": 29,
                    "time": 1.432323,
                    "velocity": 0.5039370078740157,
                    "duration": 1.4323229999999996
                },
                {
                    "name": "F2",
                    "midi": 41,
                    "time": 1.432323,
                    "velocity": 0.6141732283464567,
                    "duration": 1.4323229999999996
                },
                {
                    "name": "G1",
                    "midi": 31,
                    "time": 2.8646459999999996,
                    "velocity": 0.5039370078740157,
                    "duration": 1.4323229999999993
                },
                {
                    "name": "G2",
                    "midi": 43,
                    "time": 2.8646459999999996,
                    "velocity": 0.6062992125984252,
                    "duration": 1.4323229999999993
                },
                {
                    "name": "C2",
                    "midi": 36,
                    "time": 4.296968999999999,
                    "velocity": 0.4409448818897638,
                    "duration": 1.3607068499999997
                },
                {
                    "name": "G2",
                    "midi": 43,
                    "time": 4.296968999999999,
                    "velocity": 0.4409448818897638,
                    "duration": 1.3607068499999997
                },
                {
                    "name": "C3",
                    "midi": 48,
                    "time": 4.296968999999999,
                    "velocity": 0.5196850393700787,
                    "duration": 1.3607068499999997
                },
                {
                    "name": "G#1",
                    "midi": 32,
                    "time": 5.729291999999998,
                    "velocity": 0.5196850393700787,
                    "duration": 1.4323229999999993
                },
                {
                    "name": "G#2",
                    "midi": 44,
                    "time": 5.729291999999998,
                    "velocity": 0.6220472440944882,
                    "duration": 1.4323229999999993
                },
                {
                    "name": "C#1",
                    "midi": 25,
                    "time": 7.161614999999998,
                    "velocity": 0.5196850393700787,
                    "duration": 1.4323230000000002
                },
                {
                    "name": "C#2",
                    "midi": 37,
                    "time": 7.161614999999998,
                    "velocity": 0.6299212598425197,
                    "duration": 1.4323230000000002
                },
                {
                    "name": "D#1",
                    "midi": 27,
                    "time": 8.593937999999998,
                    "velocity": 0.5039370078740157,
                    "duration": 1.4323230000000002
                },
                {
                    "name": "D#2",
                    "midi": 39,
                    "time": 8.593937999999998,
                    "velocity": 0.6062992125984252,
                    "duration": 1.4323230000000002
                },
                {
                    "name": "G#1",
                    "midi": 32,
                    "time": 10.026260999999998,
                    "velocity": 0.44881889763779526,
                    "duration": 1.3607068500000015
                },
                {
                    "name": "G#2",
                    "midi": 44,
                    "time": 10.026260999999998,
                    "velocity": 0.5433070866141733,
                    "duration": 1.3607068500000015
                },
                {
                    "name": "G1",
                    "midi": 31,
                    "time": 11.458584,
                    "velocity": 0.4881889763779528,
                    "duration": 1.4323230000000002
                },
                {
                    "name": "G2",
                    "midi": 43,
                    "time": 11.458584,
                    "velocity": 0.5905511811023622,
                    "duration": 1.4323230000000002
                },
                {
                    "name": "C1",
                    "midi": 24,
                    "time": 12.890907,
                    "velocity": 0.5039370078740157,
                    "duration": 1.4323230000000002
                },
                {
                    "name": "C2",
                    "midi": 36,
                    "time": 12.890907,
                    "velocity": 0.6141732283464567,
                    "duration": 1.4323230000000002
                },
                {
                    "name": "F1",
                    "midi": 29,
                    "time": 14.32323,
                    "velocity": 0.5196850393700787,
                    "duration": 1.4323230000000002
                },
                {
                    "name": "F2",
                    "midi": 41,
                    "time": 14.32323,
                    "velocity": 0.6220472440944882,
                    "duration": 1.4323230000000002
                },
                {
                    "name": "C2",
                    "midi": 36,
                    "time": 15.755553,
                    "velocity": 0.48031496062992124,
                    "duration": 1.432323000000002
                },
                {
                    "name": "C3",
                    "midi": 48,
                    "time": 15.755553,
                    "velocity": 0.5748031496062992,
                    "duration": 1.432323000000002
                },
                {
                    "name": "A2",
                    "midi": 45,
                    "time": 17.187876000000003,
                    "velocity": 0.5196850393700787,
                    "duration": 1.4323230000000038
                },
                {
                    "name": "D2",
                    "midi": 38,
                    "time": 17.187876000000003,
                    "velocity": 0.5196850393700787,
                    "duration": 1.4323230000000038
                },
                {
                    "name": "D3",
                    "midi": 50,
                    "time": 17.187876000000003,
                    "velocity": 0.6220472440944882,
                    "duration": 1.4323230000000038
                },
                {
                    "name": "G1",
                    "midi": 31,
                    "time": 18.620199000000007,
                    "velocity": 0.5433070866141733,
                    "duration": 1.4323230000000002
                },
                {
                    "name": "G2",
                    "midi": 43,
                    "time": 18.620199000000007,
                    "velocity": 0.6535433070866141,
                    "duration": 1.4323230000000002
                },
                {
                    "name": "D1",
                    "midi": 26,
                    "time": 20.052522000000007,
                    "velocity": 0.47244094488188976,
                    "duration": 1.4323230000000002
                },
                {
                    "name": "D2",
                    "midi": 38,
                    "time": 20.052522000000007,
                    "velocity": 0.5748031496062992,
                    "duration": 1.4323230000000002
                },
                {
                    "name": "G1",
                    "midi": 31,
                    "time": 21.484845000000007,
                    "velocity": 0.4251968503937008,
                    "duration": 1.3607068499999961
                },
                {
                    "name": "G2",
                    "midi": 43,
                    "time": 21.484845000000007,
                    "velocity": 0.5196850393700787,
                    "duration": 1.3607068499999961
                },
                {
                    "name": "C2",
                    "midi": 36,
                    "time": 22.917168000000004,
                    "velocity": 0.23622047244094488,
                    "duration": 1.4323230000000002
                },
                {
                    "name": "C3",
                    "midi": 48,
                    "time": 22.917168000000004,
                    "velocity": 0.28346456692913385,
                    "duration": 1.4323230000000002
                },
                {
                    "name": "C3",
                    "midi": 48,
                    "time": 24.349491000000004,
                    "velocity": 0.2125984251968504,
                    "duration": 1.4323229999999967
                },
                {
                    "name": "C4",
                    "midi": 60,
                    "time": 24.349491000000004,
                    "velocity": 0.25196850393700787,
                    "duration": 1.4323229999999967
                },
                {
                    "name": "B2",
                    "midi": 47,
                    "time": 25.781814,
                    "velocity": 0.23622047244094488,
                    "duration": 1.4323230000000002
                },
                {
                    "name": "B3",
                    "midi": 59,
                    "time": 25.781814,
                    "velocity": 0.28346456692913385,
                    "duration": 1.4323230000000002
                },
                {
                    "name": "A#2",
                    "midi": 46,
                    "time": 27.214137,
                    "velocity": 0.2204724409448819,
                    "duration": 1.3607068499999997
                },
                {
                    "name": "A#3",
                    "midi": 58,
                    "time": 27.214137,
                    "velocity": 0.2677165354330709,
                    "duration": 1.3607068499999997
                },
                {
                    "name": "A2",
                    "midi": 45,
                    "time": 28.64646,
                    "velocity": 0.23622047244094488,
                    "duration": 1.4323230000000002
                },
                {
                    "name": "A3",
                    "midi": 57,
                    "time": 28.64646,
                    "velocity": 0.28346456692913385,
                    "duration": 1.4323230000000002
                },
                {
                    "name": "G#2",
                    "midi": 44,
                    "time": 30.078783,
                    "velocity": 0.2204724409448819,
                    "duration": 1.4323230000000002
                },
                {
                    "name": "G#3",
                    "midi": 56,
                    "time": 30.078783,
                    "velocity": 0.2677165354330709,
                    "duration": 1.4323230000000002
                },
                {
                    "name": "G2",
                    "midi": 43,
                    "time": 31.511106,
                    "velocity": 0.2440944881889764,
                    "duration": 1.4323230000000002
                },
                {
                    "name": "G3",
                    "midi": 55,
                    "time": 31.511106,
                    "velocity": 0.29133858267716534,
                    "duration": 1.4323230000000002
                },
                {
                    "name": "F2",
                    "midi": 41,
                    "time": 32.943429,
                    "velocity": 0.2204724409448819,
                    "duration": 1.3607068500000068
                },
                {
                    "name": "F3",
                    "midi": 53,
                    "time": 32.943429,
                    "velocity": 0.2677165354330709,
                    "duration": 1.3607068500000068
                },
                {
                    "name": "D#2",
                    "midi": 39,
                    "time": 34.375752000000006,
                    "velocity": 0.25984251968503935,
                    "duration": 1.4323229999999967
                },
                {
                    "name": "D#3",
                    "midi": 51,
                    "time": 34.375752000000006,
                    "velocity": 0.30708661417322836,
                    "duration": 1.4323229999999967
                },
                {
                    "name": "F2",
                    "midi": 41,
                    "time": 35.808075,
                    "velocity": 0.28346456692913385,
                    "duration": 1.4323229999999967
                },
                {
                    "name": "F3",
                    "midi": 53,
                    "time": 35.808075,
                    "velocity": 0.33858267716535434,
                    "duration": 1.4323229999999967
                },
                {
                    "name": "B1",
                    "midi": 35,
                    "time": 37.240398,
                    "velocity": 0.28346456692913385,
                    "duration": 1.4323229999999967
                },
                {
                    "name": "B2",
                    "midi": 47,
                    "time": 37.240398,
                    "velocity": 0.3464566929133858,
                    "duration": 1.4323229999999967
                },
                {
                    "name": "C2",
                    "midi": 36,
                    "time": 38.672720999999996,
                    "velocity": 0.25984251968503935,
                    "duration": 1.3607068499999997
                },
                {
                    "name": "C3",
                    "midi": 48,
                    "time": 38.672720999999996,
                    "velocity": 0.30708661417322836,
                    "duration": 1.3607068499999997
                },
                {
                    "name": "G#1",
                    "midi": 32,
                    "time": 40.10504399999999,
                    "velocity": 0.25984251968503935,
                    "duration": 1.4323229999999967
                },
                {
                    "name": "G#2",
                    "midi": 44,
                    "time": 40.10504399999999,
                    "velocity": 0.30708661417322836,
                    "duration": 1.4323229999999967
                },
                {
                    "name": "C#1",
                    "midi": 25,
                    "time": 41.53736699999999,
                    "velocity": 0.2204724409448819,
                    "duration": 1.4323230000000038
                },
                {
                    "name": "C#2",
                    "midi": 37,
                    "time": 41.53736699999999,
                    "velocity": 0.2677165354330709,
                    "duration": 1.4323230000000038
                },
                {
                    "name": "G1",
                    "midi": 31,
                    "time": 42.96968999999999,
                    "velocity": 0.25984251968503935,
                    "duration": 1.4323229999999967
                },
                {
                    "name": "G2",
                    "midi": 43,
                    "time": 42.96968999999999,
                    "velocity": 0.30708661417322836,
                    "duration": 1.4323229999999967
                },
                {
                    "name": "C1",
                    "midi": 24,
                    "time": 44.40201299999999,
                    "velocity": 0.2125984251968504,
                    "duration": 1.3607068499999997
                },
                {
                    "name": "C2",
                    "midi": 36,
                    "time": 44.40201299999999,
                    "velocity": 0.25196850393700787,
                    "duration": 1.3607068499999997
                },
                {
                    "name": "C2",
                    "midi": 36,
                    "time": 45.834335999999986,
                    "velocity": 0.14960629921259844,
                    "duration": 1.4323230000000038
                },
                {
                    "name": "C3",
                    "midi": 48,
                    "time": 45.834335999999986,
                    "velocity": 0.1889763779527559,
                    "duration": 1.4323230000000038
                },
                {
                    "name": "C3",
                    "midi": 48,
                    "time": 47.26665899999999,
                    "velocity": 0.13385826771653545,
                    "duration": 1.4323230000000038
                },
                {
                    "name": "C4",
                    "midi": 60,
                    "time": 47.26665899999999,
                    "velocity": 0.16535433070866143,
                    "duration": 1.4323230000000038
                },
                {
                    "name": "B2",
                    "midi": 47,
                    "time": 48.698981999999994,
                    "velocity": 0.14960629921259844,
                    "duration": 1.4323229999999967
                },
                {
                    "name": "B3",
                    "midi": 59,
                    "time": 48.698981999999994,
                    "velocity": 0.1889763779527559,
                    "duration": 1.4323229999999967
                },
                {
                    "name": "A#2",
                    "midi": 46,
                    "time": 50.13130499999999,
                    "velocity": 0.14173228346456693,
                    "duration": 1.3607068499999997
                },
                {
                    "name": "A#3",
                    "midi": 58,
                    "time": 50.13130499999999,
                    "velocity": 0.1732283464566929,
                    "duration": 1.3607068499999997
                },
                {
                    "name": "A2",
                    "midi": 45,
                    "time": 51.56362799999999,
                    "velocity": 0.14960629921259844,
                    "duration": 1.4323229999999967
                },
                {
                    "name": "A3",
                    "midi": 57,
                    "time": 51.56362799999999,
                    "velocity": 0.1889763779527559,
                    "duration": 1.4323229999999967
                },
                {
                    "name": "G#2",
                    "midi": 44,
                    "time": 52.995950999999984,
                    "velocity": 0.14173228346456693,
                    "duration": 1.4323229999999967
                },
                {
                    "name": "G#3",
                    "midi": 56,
                    "time": 52.995950999999984,
                    "velocity": 0.1732283464566929,
                    "duration": 1.4323229999999967
                },
                {
                    "name": "G2",
                    "midi": 43,
                    "time": 54.42827399999998,
                    "velocity": 0.15748031496062992,
                    "duration": 1.4323229999999967
                },
                {
                    "name": "G3",
                    "midi": 55,
                    "time": 54.42827399999998,
                    "velocity": 0.1889763779527559,
                    "duration": 1.4323229999999967
                },
                {
                    "name": "F2",
                    "midi": 41,
                    "time": 55.86059699999998,
                    "velocity": 0.14173228346456693,
                    "duration": 1.3607068500000068
                },
                {
                    "name": "F3",
                    "midi": 53,
                    "time": 55.86059699999998,
                    "velocity": 0.1732283464566929,
                    "duration": 1.3607068500000068
                },
                {
                    "name": "D#2",
                    "midi": 39,
                    "time": 57.29291999999998,
                    "velocity": 0.2125984251968504,
                    "duration": 1.4323229999999967
                },
                {
                    "name": "D#3",
                    "midi": 51,
                    "time": 57.29291999999998,
                    "velocity": 0.25984251968503935,
                    "duration": 1.4323229999999967
                },
                {
                    "name": "F2",
                    "midi": 41,
                    "time": 58.72524299999998,
                    "velocity": 0.23622047244094488,
                    "duration": 1.4323230000000038
                },
                {
                    "name": "F3",
                    "midi": 53,
                    "time": 58.72524299999998,
                    "velocity": 0.28346456692913385,
                    "duration": 1.4323230000000038
                },
                {
                    "name": "B1",
                    "midi": 35,
                    "time": 60.15756599999998,
                    "velocity": 0.23622047244094488,
                    "duration": 1.4323229999999967
                },
                {
                    "name": "B2",
                    "midi": 47,
                    "time": 60.15756599999998,
                    "velocity": 0.28346456692913385,
                    "duration": 1.4323229999999967
                },
                {
                    "name": "C2",
                    "midi": 36,
                    "time": 61.58988899999998,
                    "velocity": 0.2125984251968504,
                    "duration": 1.342802812500004
                },
                {
                    "name": "C3",
                    "midi": 48,
                    "time": 61.58988899999998,
                    "velocity": 0.25984251968503935,
                    "duration": 1.342802812500004
                },
                {
                    "name": "G#1",
                    "midi": 32,
                    "time": 63.02221199999998,
                    "velocity": 0.2125984251968504,
                    "duration": 1.4323229999999967
                },
                {
                    "name": "G#2",
                    "midi": 44,
                    "time": 63.02221199999998,
                    "velocity": 0.25984251968503935,
                    "duration": 1.4323229999999967
                },
                {
                    "name": "C#1",
                    "midi": 25,
                    "time": 64.45453499999998,
                    "velocity": 0.1889763779527559,
                    "duration": 1.4323229999999967
                },
                {
                    "name": "C#2",
                    "midi": 37,
                    "time": 64.45453499999998,
                    "velocity": 0.2204724409448819,
                    "duration": 1.4323229999999967
                },
                {
                    "name": "G1",
                    "midi": 31,
                    "time": 65.88685799999998,
                    "velocity": 0.2125984251968504,
                    "duration": 1.4323229999999967
                },
                {
                    "name": "G2",
                    "midi": 43,
                    "time": 65.88685799999998,
                    "velocity": 0.25984251968503935,
                    "duration": 1.4323229999999967
                },
                {
                    "name": "C1",
                    "midi": 24,
                    "time": 67.31918099999997,
                    "velocity": 0.1732283464566929,
                    "duration": 1.4323229999999967
                },
                {
                    "name": "C2",
                    "midi": 36,
                    "time": 67.31918099999997,
                    "velocity": 0.2125984251968504,
                    "duration": 1.4323229999999967
                },
                {
                    "name": "C3",
                    "midi": 48,
                    "time": 68.75150399999997,
                    "velocity": 0.29133858267716534,
                    "duration": 5.729292000000001
                },
                {
                    "name": "G3",
                    "midi": 55,
                    "time": 68.75150399999997,
                    "velocity": 0.3700787401574803,
                    "duration": 5.729292000000001
                }
            ],
            "controlChanges": {
                "7": [
                    {
                        "number": 7,
                        "time": 0,
                        "value": 0.7874015748031497
                    }
                ],
                "10": [
                    {
                        "number": 10,
                        "time": 0,
                        "value": 0.5039370078740157
                    }
                ],
                "64": [
                    {
                        "number": 64,
                        "time": 0.16710435,
                        "value": 1
                    },
                    {
                        "number": 64,
                        "time": 1.47708309375,
                        "value": 0
                    },
                    {
                        "number": 64,
                        "time": 1.7277396187499998,
                        "value": 1
                    },
                    {
                        "number": 64,
                        "time": 2.9094060937499995,
                        "value": 0
                    },
                    {
                        "number": 64,
                        "time": 3.1391745749999993,
                        "value": 1
                    },
                    {
                        "number": 64,
                        "time": 4.344713099999999,
                        "value": 0
                    },
                    {
                        "number": 64,
                        "time": 4.529721487499999,
                        "value": 1
                    },
                    {
                        "number": 64,
                        "time": 5.747196037499998,
                        "value": 0
                    },
                    {
                        "number": 64,
                        "time": 5.896396349999998,
                        "value": 1
                    },
                    {
                        "number": 64,
                        "time": 7.209359099999998,
                        "value": 0
                    },
                    {
                        "number": 64,
                        "time": 7.457031618749998,
                        "value": 1
                    },
                    {
                        "number": 64,
                        "time": 8.644666106249998,
                        "value": 0
                    },
                    {
                        "number": 64,
                        "time": 8.868466574999998,
                        "value": 1
                    },
                    {
                        "number": 64,
                        "time": 10.076989106249998,
                        "value": 0
                    },
                    {
                        "number": 64,
                        "time": 10.259013487499999,
                        "value": 1
                    },
                    {
                        "number": 64,
                        "time": 11.4884240625,
                        "value": 0
                    },
                    {
                        "number": 64,
                        "time": 11.62568835,
                        "value": 1
                    },
                    {
                        "number": 64,
                        "time": 12.93566709375,
                        "value": 0
                    },
                    {
                        "number": 64,
                        "time": 13.18632361875,
                        "value": 1
                    },
                    {
                        "number": 64,
                        "time": 14.3709741,
                        "value": 0
                    },
                    {
                        "number": 64,
                        "time": 14.597758575,
                        "value": 1
                    },
                    {
                        "number": 64,
                        "time": 15.806281106250001,
                        "value": 0
                    },
                    {
                        "number": 64,
                        "time": 15.988305487500002,
                        "value": 1
                    },
                    {
                        "number": 64,
                        "time": 17.211748050000004,
                        "value": 0
                    },
                    {
                        "number": 64,
                        "time": 17.354980350000005,
                        "value": 1
                    },
                    {
                        "number": 64,
                        "time": 18.664959093750007,
                        "value": 0
                    },
                    {
                        "number": 64,
                        "time": 18.915615618750007,
                        "value": 1
                    },
                    {
                        "number": 64,
                        "time": 20.076394050000008,
                        "value": 0
                    },
                    {
                        "number": 64,
                        "time": 20.273338462500007,
                        "value": 1
                    },
                    {
                        "number": 64,
                        "time": 21.535573106250006,
                        "value": 0
                    },
                    {
                        "number": 64,
                        "time": 21.717597487500004,
                        "value": 1
                    },
                    {
                        "number": 64,
                        "time": 22.857487875000004,
                        "value": 0
                    },
                    {
                        "number": 64,
                        "time": 23.105160393750005,
                        "value": 1
                    },
                    {
                        "number": 64,
                        "time": 24.400219106250002,
                        "value": 0
                    },
                    {
                        "number": 64,
                        "time": 24.53748339375,
                        "value": 1
                    },
                    {
                        "number": 64,
                        "time": 25.8295581,
                        "value": 0
                    },
                    {
                        "number": 64,
                        "time": 26.05335856875,
                        "value": 1
                    },
                    {
                        "number": 64,
                        "time": 27.2439770625,
                        "value": 0
                    },
                    {
                        "number": 64,
                        "time": 27.52148964375,
                        "value": 1
                    },
                    {
                        "number": 64,
                        "time": 28.658396025000002,
                        "value": 0
                    },
                    {
                        "number": 64,
                        "time": 28.7837242875,
                        "value": 1
                    },
                    {
                        "number": 64,
                        "time": 30.1265271,
                        "value": 0
                    },
                    {
                        "number": 64,
                        "time": 30.3175035,
                        "value": 1
                    },
                    {
                        "number": 64,
                        "time": 31.5588501,
                        "value": 0
                    },
                    {
                        "number": 64,
                        "time": 31.83636268125,
                        "value": 1
                    },
                    {
                        "number": 64,
                        "time": 32.991173100000005,
                        "value": 0
                    },
                    {
                        "number": 64,
                        "time": 33.268685681250005,
                        "value": 1
                    },
                    {
                        "number": 64,
                        "time": 34.411560075000004,
                        "value": 0
                    },
                    {
                        "number": 64,
                        "time": 34.650280575000004,
                        "value": 1
                    },
                    {
                        "number": 64,
                        "time": 35.843883075,
                        "value": 0
                    },
                    {
                        "number": 64,
                        "time": 36.10349161875,
                        "value": 1
                    },
                    {
                        "number": 64,
                        "time": 37.282174087499996,
                        "value": 0
                    },
                    {
                        "number": 64,
                        "time": 37.47315048749999,
                        "value": 1
                    },
                    {
                        "number": 64,
                        "time": 38.717481093749996,
                        "value": 0
                    },
                    {
                        "number": 64,
                        "time": 38.9890256625,
                        "value": 1
                    },
                    {
                        "number": 64,
                        "time": 40.10504399999999,
                        "value": 0
                    },
                    {
                        "number": 64,
                        "time": 40.48401279374999,
                        "value": 1
                    },
                    {
                        "number": 64,
                        "time": 41.58212709374999,
                        "value": 0
                    },
                    {
                        "number": 64,
                        "time": 41.85367166249999,
                        "value": 1
                    },
                    {
                        "number": 64,
                        "time": 43.09501826249999,
                        "value": 0
                    },
                    {
                        "number": 64,
                        "time": 43.28599466249999,
                        "value": 1
                    },
                    {
                        "number": 64,
                        "time": 44.44975709999999,
                        "value": 0
                    },
                    {
                        "number": 64,
                        "time": 44.71831766249999,
                        "value": 1
                    },
                    {
                        "number": 64,
                        "time": 45.774655874999986,
                        "value": 0
                    },
                    {
                        "number": 64,
                        "time": 46.02232839374999,
                        "value": 1
                    },
                    {
                        "number": 64,
                        "time": 47.31738710624999,
                        "value": 0
                    },
                    {
                        "number": 64,
                        "time": 47.45465139374999,
                        "value": 1
                    },
                    {
                        "number": 64,
                        "time": 48.74971010624999,
                        "value": 0
                    },
                    {
                        "number": 64,
                        "time": 48.97052656874999,
                        "value": 1
                    },
                    {
                        "number": 64,
                        "time": 50.15517704999999,
                        "value": 0
                    },
                    {
                        "number": 64,
                        "time": 50.38792953749999,
                        "value": 1
                    },
                    {
                        "number": 64,
                        "time": 51.590484056249984,
                        "value": 0
                    },
                    {
                        "number": 64,
                        "time": 51.82025253749998,
                        "value": 1
                    },
                    {
                        "number": 64,
                        "time": 53.05264711874998,
                        "value": 0
                    },
                    {
                        "number": 64,
                        "time": 53.23467149999998,
                        "value": 1
                    },
                    {
                        "number": 64,
                        "time": 54.47005008749998,
                        "value": 0
                    },
                    {
                        "number": 64,
                        "time": 54.75353068124998,
                        "value": 1
                    },
                    {
                        "number": 64,
                        "time": 55.91430911249998,
                        "value": 0
                    },
                    {
                        "number": 64,
                        "time": 56.18585368124998,
                        "value": 1
                    },
                    {
                        "number": 64,
                        "time": 57.31380804374998,
                        "value": 0
                    },
                    {
                        "number": 64,
                        "time": 57.67188879374998,
                        "value": 1
                    },
                    {
                        "number": 64,
                        "time": 58.76403508124998,
                        "value": 0
                    },
                    {
                        "number": 64,
                        "time": 59.02065961874998,
                        "value": 1
                    },
                    {
                        "number": 64,
                        "time": 60.19934208749998,
                        "value": 0
                    },
                    {
                        "number": 64,
                        "time": 60.390318487499975,
                        "value": 1
                    },
                    {
                        "number": 64,
                        "time": 61.63763309999998,
                        "value": 0
                    },
                    {
                        "number": 64,
                        "time": 61.98974583749998,
                        "value": 1
                    },
                    {
                        "number": 64,
                        "time": 63.05802007499998,
                        "value": 0
                    },
                    {
                        "number": 64,
                        "time": 63.38029274999998,
                        "value": 1
                    },
                    {
                        "number": 64,
                        "time": 64.49929509374998,
                        "value": 0
                    },
                    {
                        "number": 64,
                        "time": 64.77083966249998,
                        "value": 1
                    },
                    {
                        "number": 64,
                        "time": 65.92266607499998,
                        "value": 0
                    },
                    {
                        "number": 64,
                        "time": 66.20316266249998,
                        "value": 1
                    },
                    {
                        "number": 64,
                        "time": 67.36095708749997,
                        "value": 0
                    },
                    {
                        "number": 64,
                        "time": 67.63548566249997,
                        "value": 1
                    },
                    {
                        "number": 64,
                        "time": 79.33577416874996,
                        "value": 0
                    }
                ]
            },
            "id": 2,
            "name": "Piano left",
            "instrumentNumber": 0,
            "instrument": "acoustic grand piano",
            "instrumentFamily": "piano",
            "channelNumber": 0,
            "isPercussion": false
        },
        {
            "startTime": 0,
            "duration": 0,
            "length": 0,
            "notes": [],
            "controlChanges": {},
            "id": 3,
            "name": "Chopin: Prelude No.20 in C Minor Op. 28"
        },
        {
            "startTime": 0,
            "duration": 0,
            "length": 0,
            "notes": [],
            "controlChanges": {},
            "id": 4,
            "name": "Copyright  2002 by Bernd Krueger"
        },
        {
            "startTime": 0,
            "duration": 0,
            "length": 0,
            "notes": [],
            "controlChanges": {},
            "id": 5,
            "name": "http://www.piano-midi.de"
        },
        {
            "startTime": 0,
            "duration": 0,
            "length": 0,
            "notes": [],
            "controlChanges": {},
            "id": 6,
            "name": "Edition: 2014-02-22"
        },
        {
            "startTime": 0,
            "duration": 0,
            "length": 0,
            "notes": [],
            "controlChanges": {},
            "id": 7,
            "name": "Spur 7"
        }
    ]
}