{
    "header": {
        "PPQ": 480,
        "timeSignature": [
            3,
            4
        ],
        "bpm": 72.09995938368955,
        "name": "Menuet"
    },
    "startTime": 0,
    "duration": 257.351046500001,
    "tracks": [
        {
            "startTime": 0,
            "duration": 0,
            "length": 0,
            "notes": [],
            "controlChanges": {},
            "id": 0,
            "name": "Menuet"
        },
        {
            "startTime": 0.2080445,
            "duration": 257.35104650000085,
            "length": 1514,
            "notes": [
                {
                    "name": "B3",
                    "midi": 59,
                    "time": 0.2080445,
                    "velocity": 0.3543307086614173,
                    "duration": 0.05201112500000002
                },
                {
                    "name": "F4",
                    "midi": 65,
                    "time": 0.2080445,
                    "velocity": 0.3543307086614173,
                    "duration": 0.05201112500000002
                },
                {
                    "name": "A4",
                    "midi": 69,
                    "time": 0.6241335,
                    "velocity": 0.3543307086614173,
                    "duration": 0.05201112500000005
                },
                {
                    "name": "D4",
                    "midi": 62,
                    "time": 0.6241335,
                    "velocity": 0.3543307086614173,
                    "duration": 0.05201112500000005
                },
                {
                    "name": "B3",
                    "midi": 59,
                    "time": 0.8321780000000001,
                    "velocity": 0.3779527559055118,
                    "duration": 0.17337041666666675
                },
                {
                    "name": "B3",
                    "midi": 59,
                    "time": 1.0402225,
                    "velocity": 0.3464566929133858,
                    "duration": 0.1040222500000001
                },
                {
                    "name": "C4",
                    "midi": 60,
                    "time": 1.1442447500000001,
                    "velocity": 0.3464566929133858,
                    "duration": 0.1040222500000001
                },
                {
                    "name": "A4",
                    "midi": 69,
                    "time": 1.2482670000000002,
                    "velocity": 0.3543307086614173,
                    "duration": 0.20804449999999997
                },
                {
                    "name": "F4",
                    "midi": 65,
                    "time": 1.2482670000000002,
                    "velocity": 0.3543307086614173,
                    "duration": 0.20804449999999997
                },
                {
                    "name": "B3",
                    "midi": 59,
                    "time": 1.2482670000000002,
                    "velocity": 0.3543307086614173,
                    "duration": 0.20804449999999997
                },
                {
                    "name": "A3",
                    "midi": 57,
                    "time": 1.4563115000000002,
                    "velocity": 0.3543307086614173,
                    "duration": 0.15603337500000003
                },
                {
                    "name": "B3",
                    "midi": 59,
                    "time": 1.6643560000000002,
                    "velocity": 0.3779527559055118,
                    "duration": 0.0780166874999999
                },
                {
                    "name": "F4",
                    "midi": 65,
                    "time": 2.080445,
                    "velocity": 0.33858267716535434,
                    "duration": 0.1560333749999998
                },
                {
                    "name": "A4",
                    "midi": 69,
                    "time": 2.080445,
                    "velocity": 0.33858267716535434,
                    "duration": 0.1560333749999998
                },
                {
                    "name": "C4",
                    "midi": 60,
                    "time": 2.080445,
                    "velocity": 0.33858267716535434,
                    "duration": 0.1560333749999998
                },
                {
                    "name": "B3",
                    "midi": 59,
                    "time": 2.496534,
                    "velocity": 0.3779527559055118,
                    "duration": 0.2080445000000002
                },
                {
                    "name": "C4",
                    "midi": 60,
                    "time": 2.7045785,
                    "velocity": 0.3543307086614173,
                    "duration": 0.2080445000000002
                },
                {
                    "name": "C5",
                    "midi": 72,
                    "time": 2.9126230000000004,
                    "velocity": 0.3779527559055118,
                    "duration": 0.4160889999999995
                },
                {
                    "name": "A4",
                    "midi": 69,
                    "time": 2.9126230000000004,
                    "velocity": 0.3779527559055118,
                    "duration": 0.4160889999999995
                },
                {
                    "name": "D4",
                    "midi": 62,
                    "time": 2.9126230000000004,
                    "velocity": 0.3779527559055118,
                    "duration": 0.10402224999999987
                },
                {
                    "name": "E4",
                    "midi": 64,
                    "time": 3.1206675,
                    "velocity": 0.3543307086614173,
                    "duration": 0.10402224999999987
                },
                {
                    "name": "F#4",
                    "midi": 66,
                    "time": 3.328712,
                    "velocity": 0.3779527559055118,
                    "duration": 0.10402224999999987
                },
                {
                    "name": "F#4",
                    "midi": 66,
                    "time": 3.5367564999999996,
                    "velocity": 0.3543307086614173,
                    "duration": 0.06934816666666643
                },
                {
                    "name": "G4",
                    "midi": 67,
                    "time": 3.606104666666666,
                    "velocity": 0.3464566929133858,
                    "duration": 0.06934816666666688
                },
                {
                    "name": "F#4",
                    "midi": 66,
                    "time": 3.675452833333333,
                    "velocity": 0.3464566929133858,
                    "duration": 0.06934816666666688
                },
                {
                    "name": "E4",
                    "midi": 64,
                    "time": 3.744801,
                    "velocity": 0.3779527559055118,
                    "duration": 0.2080445000000002
                },
                {
                    "name": "C5",
                    "midi": 72,
                    "time": 3.744801,
                    "velocity": 0.33070866141732286,
                    "duration": 0.4160890000000004
                },
                {
                    "name": "A4",
                    "midi": 69,
                    "time": 3.744801,
                    "velocity": 0.33070866141732286,
                    "duration": 0.4160890000000004
                },
                {
                    "name": "D4",
                    "midi": 62,
                    "time": 3.9528455,
                    "velocity": 0.3543307086614173,
                    "duration": 0.2080445000000002
                },
                {
                    "name": "C4",
                    "midi": 60,
                    "time": 4.16089,
                    "velocity": 0.3779527559055118,
                    "duration": 0.17337041666666675
                },
                {
                    "name": "D4",
                    "midi": 62,
                    "time": 4.3689345,
                    "velocity": 0.3464566929133858,
                    "duration": 0.17337041666666675
                },
                {
                    "name": "C5",
                    "midi": 72,
                    "time": 4.576979,
                    "velocity": 0.3464566929133858,
                    "duration": 0.3814149166666665
                },
                {
                    "name": "A4",
                    "midi": 69,
                    "time": 4.576979,
                    "velocity": 0.3464566929133858,
                    "duration": 0.3814149166666665
                },
                {
                    "name": "E4",
                    "midi": 64,
                    "time": 4.576979,
                    "velocity": 0.3464566929133858,
                    "duration": 0.3814149166666665
                },
                {
                    "name": "E4",
                    "midi": 64,
                    "time": 4.993067999999999,
                    "velocity": 0.3779527559055118,
                    "duration": 0.20804449999999974
                },
                {
                    "name": "F#4",
                    "midi": 66,
                    "time": 5.201112499999999,
                    "velocity": 0.3543307086614173,
                    "duration": 0.20804449999999974
                },
                {
                    "name": "G#4",
                    "midi": 68,
                    "time": 5.409156999999999,
                    "velocity": 0.3543307086614173,
                    "duration": 0.10402224999999987
                },
                {
                    "name": "B3",
                    "midi": 59,
                    "time": 5.409156999999999,
                    "velocity": 0.3779527559055118,
                    "duration": 0.4160889999999995
                },
                {
                    "name": "A4",
                    "midi": 69,
                    "time": 5.617201499999998,
                    "velocity": 0.3543307086614173,
                    "duration": 0.10402224999999987
                },
                {
                    "name": "F#4",
                    "midi": 66,
                    "time": 5.825245999999998,
                    "velocity": 0.3779527559055118,
                    "duration": 0.17337041666666675
                },
                {
                    "name": "F#4",
                    "midi": 66,
                    "time": 6.033290499999998,
                    "velocity": 0.3858267716535433,
                    "duration": 0.10402224999999987
                },
                {
                    "name": "G#4",
                    "midi": 68,
                    "time": 6.137312749999998,
                    "velocity": 0.4015748031496063,
                    "duration": 0.10402224999999987
                },
                {
                    "name": "F#4",
                    "midi": 66,
                    "time": 6.241334999999998,
                    "velocity": 0.4330708661417323,
                    "duration": 0.20804449999999974
                },
                {
                    "name": "D4",
                    "midi": 62,
                    "time": 6.241334999999998,
                    "velocity": 0.3779527559055118,
                    "duration": 0.20804449999999974
                },
                {
                    "name": "C4",
                    "midi": 60,
                    "time": 6.449379499999997,
                    "velocity": 0.33858267716535434,
                    "duration": 0.1560333749999998
                },
                {
                    "name": "E4",
                    "midi": 64,
                    "time": 6.449379499999997,
                    "velocity": 0.3937007874015748,
                    "duration": 0.1560333749999998
                },
                {
                    "name": "F#4",
                    "midi": 66,
                    "time": 6.657423999999997,
                    "velocity": 0.4330708661417323,
                    "duration": 0.20804449999999974
                },
                {
                    "name": "D4",
                    "midi": 62,
                    "time": 6.657423999999997,
                    "velocity": 0.3779527559055118,
                    "duration": 0.20804449999999974
                },
                {
                    "name": "D4",
                    "midi": 62,
                    "time": 7.073512999999997,
                    "velocity": 0.44881889763779526,
                    "duration": 0.20804449999999974
                },
                {
                    "name": "F#4",
                    "midi": 66,
                    "time": 7.073512999999997,
                    "velocity": 0.44881889763779526,
                    "duration": 0.20804449999999974
                },
                {
                    "name": "A4",
                    "midi": 69,
                    "time": 7.073512999999997,
                    "velocity": 0.44881889763779526,
                    "duration": 0.20804449999999974
                },
                {
                    "name": "G#4",
                    "midi": 68,
                    "time": 7.489601999999996,
                    "velocity": 0.3858267716535433,
                    "duration": 0.20804449999999974
                },
                {
                    "name": "E4",
                    "midi": 64,
                    "time": 7.489601999999996,
                    "velocity": 0.3858267716535433,
                    "duration": 0.20804449999999974
                },
                {
                    "name": "F#4",
                    "midi": 66,
                    "time": 7.697646499999996,
                    "velocity": 0.36220472440944884,
                    "duration": 0.20804449999999974
                },
                {
                    "name": "A4",
                    "midi": 69,
                    "time": 7.697646499999996,
                    "velocity": 0.36220472440944884,
                    "duration": 0.20804449999999974
                },
                {
                    "name": "E4",
                    "midi": 64,
                    "time": 7.905690999999996,
                    "velocity": 0.3858267716535433,
                    "duration": 0.5894594166666671
                },
                {
                    "name": "G#4",
                    "midi": 68,
                    "time": 7.905690999999996,
                    "velocity": 0.3858267716535433,
                    "duration": 0.5894594166666671
                },
                {
                    "name": "F#4",
                    "midi": 66,
                    "time": 8.529824499999997,
                    "velocity": 0.3779527559055118,
                    "duration": 0.20804449999999974
                },
                {
                    "name": "A4",
                    "midi": 69,
                    "time": 8.529824499999997,
                    "velocity": 0.3779527559055118,
                    "duration": 0.20804449999999974
                },
                {
                    "name": "G#4",
                    "midi": 68,
                    "time": 8.737868999999996,
                    "velocity": 0.4015748031496063,
                    "duration": 0.5894594166666671
                },
                {
                    "name": "B4",
                    "midi": 71,
                    "time": 8.737868999999996,
                    "velocity": 0.4015748031496063,
                    "duration": 0.5894594166666671
                },
                {
                    "name": "A4",
                    "midi": 69,
                    "time": 9.362002499999997,
                    "velocity": 0.3937007874015748,
                    "duration": 0.20804449999999974
                },
                {
                    "name": "C5",
                    "midi": 72,
                    "time": 9.362002499999997,
                    "velocity": 0.3937007874015748,
                    "duration": 0.20804449999999974
                },
                {
                    "name": "E4",
                    "midi": 64,
                    "time": 9.570046999999997,
                    "velocity": 0.3543307086614173,
                    "duration": 0.4160889999999995
                },
                {
                    "name": "G#4",
                    "midi": 68,
                    "time": 9.570046999999997,
                    "velocity": 0.3543307086614173,
                    "duration": 0.4160889999999995
                },
                {
                    "name": "E5",
                    "midi": 76,
                    "time": 9.986135999999997,
                    "velocity": 0.3543307086614173,
                    "duration": 0.20804449999999974
                },
                {
                    "name": "G5",
                    "midi": 79,
                    "time": 9.986135999999997,
                    "velocity": 0.3543307086614173,
                    "duration": 0.20804449999999974
                },
                {
                    "name": "D5",
                    "midi": 74,
                    "time": 10.194180499999996,
                    "velocity": 0.33858267716535434,
                    "duration": 0.10402224999999987
                },
                {
                    "name": "F5",
                    "midi": 77,
                    "time": 10.194180499999996,
                    "velocity": 0.33858267716535434,
                    "duration": 0.10402224999999987
                },
                {
                    "name": "E5",
                    "midi": 76,
                    "time": 10.298202749999996,
                    "velocity": 0.33858267716535434,
                    "duration": 0.10402224999999987
                },
                {
                    "name": "G5",
                    "midi": 79,
                    "time": 10.298202749999996,
                    "velocity": 0.33858267716535434,
                    "duration": 0.10402224999999987
                },
                {
                    "name": "D5",
                    "midi": 74,
                    "time": 10.402224999999996,
                    "velocity": 0.3543307086614173,
                    "duration": 0.20804449999999974
                },
                {
                    "name": "F5",
                    "midi": 77,
                    "time": 10.402224999999996,
                    "velocity": 0.3543307086614173,
                    "duration": 0.20804449999999974
                },
                {
                    "name": "C5",
                    "midi": 72,
                    "time": 10.610269499999996,
                    "velocity": 0.33070866141732286,
                    "duration": 0.20804449999999974
                },
                {
                    "name": "E5",
                    "midi": 76,
                    "time": 10.610269499999996,
                    "velocity": 0.33070866141732286,
                    "duration": 0.20804449999999974
                },
                {
                    "name": "D5",
                    "midi": 74,
                    "time": 10.818313999999996,
                    "velocity": 0.3543307086614173,
                    "duration": 0.20804449999999974
                },
                {
                    "name": "A#4",
                    "midi": 70,
                    "time": 10.818313999999996,
                    "velocity": 0.3543307086614173,
                    "duration": 0.20804449999999974
                },
                {
                    "name": "A4",
                    "midi": 69,
                    "time": 11.026358499999995,
                    "velocity": 0.33858267716535434,
                    "duration": 0.20804449999999974
                },
                {
                    "name": "C5",
                    "midi": 72,
                    "time": 11.026358499999995,
                    "velocity": 0.33858267716535434,
                    "duration": 0.20804449999999974
                },
                {
                    "name": "A#4",
                    "midi": 70,
                    "time": 11.234402999999995,
                    "velocity": 0.3464566929133858,
                    "duration": 0.6241334999999992
                },
                {
                    "name": "D5",
                    "midi": 74,
                    "time": 11.234402999999995,
                    "velocity": 0.3464566929133858,
                    "duration": 0.6241334999999992
                },
                {
                    "name": "A4",
                    "midi": 69,
                    "time": 11.858536499999994,
                    "velocity": 0.33070866141732286,
                    "duration": 0.10402224999999987
                },
                {
                    "name": "C5",
                    "midi": 72,
                    "time": 11.858536499999994,
                    "velocity": 0.33070866141732286,
                    "duration": 0.10402224999999987
                },
                {
                    "name": "A#4",
                    "midi": 70,
                    "time": 11.962558749999994,
                    "velocity": 0.33070866141732286,
                    "duration": 0.10402224999999987
                },
                {
                    "name": "D5",
                    "midi": 74,
                    "time": 11.962558749999994,
                    "velocity": 0.33070866141732286,
                    "duration": 0.10402224999999987
                },
                {
                    "name": "C5",
                    "midi": 72,
                    "time": 12.066580999999994,
                    "velocity": 0.3464566929133858,
                    "duration": 0.20804449999999974
                },
                {
                    "name": "A4",
                    "midi": 69,
                    "time": 12.066580999999994,
                    "velocity": 0.3464566929133858,
                    "duration": 0.20804449999999974
                },
                {
                    "name": "A#4",
                    "midi": 70,
                    "time": 12.274625499999994,
                    "velocity": 0.33070866141732286,
                    "duration": 0.20804449999999974
                },
                {
                    "name": "G4",
                    "midi": 67,
                    "time": 12.274625499999994,
                    "velocity": 0.33070866141732286,
                    "duration": 0.20804449999999974
                },
                {
                    "name": "F4",
                    "midi": 65,
                    "time": 12.482669999999993,
                    "velocity": 0.3464566929133858,
                    "duration": 0.20804449999999974
                },
                {
                    "name": "A4",
                    "midi": 69,
                    "time": 12.482669999999993,
                    "velocity": 0.3464566929133858,
                    "duration": 0.20804449999999974
                },
                {
                    "name": "E4",
                    "midi": 64,
                    "time": 12.690714499999993,
                    "velocity": 0.33858267716535434,
                    "duration": 0.20804449999999974
                },
                {
                    "name": "G4",
                    "midi": 67,
                    "time": 12.690714499999993,
                    "velocity": 0.33858267716535434,
                    "duration": 0.20804449999999974
                },
                {
                    "name": "F4",
                    "midi": 65,
                    "time": 12.898758999999993,
                    "velocity": 0.33858267716535434,
                    "duration": 0.3814149166666674
                },
                {
                    "name": "A4",
                    "midi": 69,
                    "time": 12.898758999999993,
                    "velocity": 0.33858267716535434,
                    "duration": 0.3814149166666674
                },
                {
                    "name": "A4",
                    "midi": 69,
                    "time": 13.314847999999994,
                    "velocity": 0.3779527559055118,
                    "duration": 0.832177999999999
                },
                {
                    "name": "E5",
                    "midi": 76,
                    "time": 13.314847999999994,
                    "velocity": 0.4015748031496063,
                    "duration": 0.20804449999999974
                },
                {
                    "name": "G5",
                    "midi": 79,
                    "time": 13.314847999999994,
                    "velocity": 0.4015748031496063,
                    "duration": 0.20804449999999974
                },
                {
                    "name": "D5",
                    "midi": 74,
                    "time": 13.522892499999994,
                    "velocity": 0.3858267716535433,
                    "duration": 0.10402224999999987
                },
                {
                    "name": "F5",
                    "midi": 77,
                    "time": 13.522892499999994,
                    "velocity": 0.3858267716535433,
                    "duration": 0.10402224999999987
                },
                {
                    "name": "E5",
                    "midi": 76,
                    "time": 13.626914749999994,
                    "velocity": 0.3858267716535433,
                    "duration": 0.10402224999999987
                },
                {
                    "name": "G5",
                    "midi": 79,
                    "time": 13.626914749999994,
                    "velocity": 0.3858267716535433,
                    "duration": 0.10402224999999987
                },
                {
                    "name": "D5",
                    "midi": 74,
                    "time": 13.730936999999994,
                    "velocity": 0.4015748031496063,
                    "duration": 0.20804449999999974
                },
                {
                    "name": "F5",
                    "midi": 77,
                    "time": 13.730936999999994,
                    "velocity": 0.4015748031496063,
                    "duration": 0.20804449999999974
                },
                {
                    "name": "C5",
                    "midi": 72,
                    "time": 13.938981499999993,
                    "velocity": 0.3779527559055118,
                    "duration": 0.20804449999999974
                },
                {
                    "name": "E5",
                    "midi": 76,
                    "time": 13.938981499999993,
                    "velocity": 0.3779527559055118,
                    "duration": 0.20804449999999974
                },
                {
                    "name": "F4",
                    "midi": 65,
                    "time": 14.147025999999993,
                    "velocity": 0.30708661417322836,
                    "duration": 0.832177999999999
                },
                {
                    "name": "A#4",
                    "midi": 70,
                    "time": 14.147025999999993,
                    "velocity": 0.4015748031496063,
                    "duration": 0.20804449999999974
                },
                {
                    "name": "D5",
                    "midi": 74,
                    "time": 14.147025999999993,
                    "velocity": 0.4015748031496063,
                    "duration": 0.20804449999999974
                },
                {
                    "name": "A4",
                    "midi": 69,
                    "time": 14.355070499999993,
                    "velocity": 0.3858267716535433,
                    "duration": 0.20804449999999974
                },
                {
                    "name": "C5",
                    "midi": 72,
                    "time": 14.355070499999993,
                    "velocity": 0.3858267716535433,
                    "duration": 0.20804449999999974
                },
                {
                    "name": "A#4",
                    "midi": 70,
                    "time": 14.563114999999993,
                    "velocity": 0.3937007874015748,
                    "duration": 0.6241334999999992
                },
                {
                    "name": "D5",
                    "midi": 74,
                    "time": 14.563114999999993,
                    "velocity": 0.3937007874015748,
                    "duration": 0.6241334999999992
                },
                {
                    "name": "E4",
                    "midi": 64,
                    "time": 14.979203999999992,
                    "velocity": 0.33858267716535434,
                    "duration": 0.832177999999999
                },
                {
                    "name": "A4",
                    "midi": 69,
                    "time": 15.187248499999992,
                    "velocity": 0.36220472440944884,
                    "duration": 0.10402224999999987
                },
                {
                    "name": "C5",
                    "midi": 72,
                    "time": 15.187248499999992,
                    "velocity": 0.36220472440944884,
                    "duration": 0.10402224999999987
                },
                {
                    "name": "A#4",
                    "midi": 70,
                    "time": 15.291270749999992,
                    "velocity": 0.36220472440944884,
                    "duration": 0.10402224999999987
                },
                {
                    "name": "D5",
                    "midi": 74,
                    "time": 15.291270749999992,
                    "velocity": 0.36220472440944884,
                    "duration": 0.10402224999999987
                },
                {
                    "name": "C5",
                    "midi": 72,
                    "time": 15.395292999999992,
                    "velocity": 0.3858267716535433,
                    "duration": 0.20804449999999974
                },
                {
                    "name": "A4",
                    "midi": 69,
                    "time": 15.395292999999992,
                    "velocity": 0.3858267716535433,
                    "duration": 0.20804449999999974
                },
                {
                    "name": "A#4",
                    "midi": 70,
                    "time": 15.603337499999991,
                    "velocity": 0.3543307086614173,
                    "duration": 0.20804449999999974
                },
                {
                    "name": "G4",
                    "midi": 67,
                    "time": 15.603337499999991,
                    "velocity": 0.3543307086614173,
                    "duration": 0.20804449999999974
                },
                {
                    "name": "F4",
                    "midi": 65,
                    "time": 15.811381999999991,
                    "velocity": 0.36220472440944884,
                    "duration": 0.20804449999999974
                },
                {
                    "name": "A4",
                    "midi": 69,
                    "time": 15.811381999999991,
                    "velocity": 0.36220472440944884,
                    "duration": 0.20804449999999974
                },
                {
                    "name": "E4",
                    "midi": 64,
                    "time": 16.01942649999999,
                    "velocity": 0.3543307086614173,
                    "duration": 0.20804449999999974
                },
                {
                    "name": "G4",
                    "midi": 67,
                    "time": 16.01942649999999,
                    "velocity": 0.3543307086614173,
                    "duration": 0.20804449999999974
                },
                {
                    "name": "F4",
                    "midi": 65,
                    "time": 16.22747099999999,
                    "velocity": 0.3858267716535433,
                    "duration": 1.0402224999999987
                },
                {
                    "name": "A4",
                    "midi": 69,
                    "time": 16.22747099999999,
                    "velocity": 0.3858267716535433,
                    "duration": 0.6241334999999992
                },
                {
                    "name": "G4",
                    "midi": 67,
                    "time": 16.85160449999999,
                    "velocity": 0.3779527559055118,
                    "duration": 0.20804449999999974
                },
                {
                    "name": "A4",
                    "midi": 69,
                    "time": 17.05964899999999,
                    "velocity": 0.3858267716535433,
                    "duration": 0.6241334999999992
                },
                {
                    "name": "E4",
                    "midi": 64,
                    "time": 17.26769349999999,
                    "velocity": 0.36220472440944884,
                    "duration": 0.20804449999999974
                },
                {
                    "name": "D4",
                    "midi": 62,
                    "time": 17.47573799999999,
                    "velocity": 0.36220472440944884,
                    "duration": 2.496533999999997
                },
                {
                    "name": "G4",
                    "midi": 67,
                    "time": 17.68378249999999,
                    "velocity": 0.36220472440944884,
                    "duration": 0.20804449999999974
                },
                {
                    "name": "A4",
                    "midi": 69,
                    "time": 17.89182699999999,
                    "velocity": 0.3858267716535433,
                    "duration": 0.6241334999999992
                },
                {
                    "name": "B4",
                    "midi": 71,
                    "time": 18.515960499999988,
                    "velocity": 0.4094488188976378,
                    "duration": 0.20804449999999974
                },
                {
                    "name": "D5",
                    "midi": 74,
                    "time": 18.724004999999988,
                    "velocity": 0.4409448818897638,
                    "duration": 0.20804449999999974
                },
                {
                    "name": "B4",
                    "midi": 71,
                    "time": 18.932049499999987,
                    "velocity": 0.4094488188976378,
                    "duration": 0.20804449999999974
                },
                {
                    "name": "A4",
                    "midi": 69,
                    "time": 19.140093999999987,
                    "velocity": 0.3937007874015748,
                    "duration": 0.20804449999999974
                },
                {
                    "name": "B4",
                    "midi": 71,
                    "time": 19.348138499999987,
                    "velocity": 0.3858267716535433,
                    "duration": 0.20804449999999974
                },
                {
                    "name": "E4",
                    "midi": 64,
                    "time": 19.556182999999987,
                    "velocity": 0.3937007874015748,
                    "duration": 0.20804449999999974
                },
                {
                    "name": "G4",
                    "midi": 67,
                    "time": 19.764227499999986,
                    "velocity": 0.3858267716535433,
                    "duration": 0.20804449999999974
                },
                {
                    "name": "D4",
                    "midi": 62,
                    "time": 19.972271999999986,
                    "velocity": 0.4094488188976378,
                    "duration": 2.496533999999997
                },
                {
                    "name": "A4",
                    "midi": 69,
                    "time": 19.972271999999986,
                    "velocity": 0.4094488188976378,
                    "duration": 0.20804449999999974
                },
                {
                    "name": "G4",
                    "midi": 67,
                    "time": 20.180316499999986,
                    "velocity": 0.3858267716535433,
                    "duration": 0.20804449999999974
                },
                {
                    "name": "A4",
                    "midi": 69,
                    "time": 20.388360999999986,
                    "velocity": 0.4094488188976378,
                    "duration": 0.6241334999999992
                },
                {
                    "name": "B4",
                    "midi": 71,
                    "time": 21.012494499999985,
                    "velocity": 0.4251968503937008,
                    "duration": 0.20804449999999974
                },
                {
                    "name": "D5",
                    "midi": 74,
                    "time": 21.220538999999984,
                    "velocity": 0.4409448818897638,
                    "duration": 0.20804449999999974
                },
                {
                    "name": "B4",
                    "midi": 71,
                    "time": 21.428583499999984,
                    "velocity": 0.4094488188976378,
                    "duration": 0.20804449999999974
                },
                {
                    "name": "A4",
                    "midi": 69,
                    "time": 21.636627999999984,
                    "velocity": 0.4330708661417323,
                    "duration": 0.20804449999999974
                },
                {
                    "name": "B4",
                    "midi": 71,
                    "time": 21.844672499999984,
                    "velocity": 0.3937007874015748,
                    "duration": 0.20804449999999974
                },
                {
                    "name": "A4",
                    "midi": 69,
                    "time": 22.052716999999983,
                    "velocity": 0.3858267716535433,
                    "duration": 0.20804449999999974
                },
                {
                    "name": "F4",
                    "midi": 65,
                    "time": 22.260761499999983,
                    "velocity": 0.3779527559055118,
                    "duration": 0.20804449999999974
                },
                {
                    "name": "E4",
                    "midi": 64,
                    "time": 22.468805999999983,
                    "velocity": 0.30708661417322836,
                    "duration": 1.9504171874999976
                },
                {
                    "name": "C4",
                    "midi": 60,
                    "time": 22.468805999999983,
                    "velocity": 0.30708661417322836,
                    "duration": 1.534328187499998
                },
                {
                    "name": "A3",
                    "midi": 57,
                    "time": 23.50902849999998,
                    "velocity": 0.3464566929133858,
                    "duration": 0.0780166874999999
                },
                {
                    "name": "B3",
                    "midi": 59,
                    "time": 23.71707299999998,
                    "velocity": 0.3464566929133858,
                    "duration": 0.0780166874999999
                },
                {
                    "name": "C4",
                    "midi": 60,
                    "time": 23.92511749999998,
                    "velocity": 0.3464566929133858,
                    "duration": 1.0402224999999987
                },
                {
                    "name": "D4",
                    "midi": 62,
                    "time": 24.13316199999998,
                    "velocity": 0.36220472440944884,
                    "duration": 0.0780166874999999
                },
                {
                    "name": "E4",
                    "midi": 64,
                    "time": 24.34120649999998,
                    "velocity": 0.33070866141732286,
                    "duration": 0.6241334999999992
                },
                {
                    "name": "F#4",
                    "midi": 66,
                    "time": 24.54925099999998,
                    "velocity": 0.33070866141732286,
                    "duration": 0.0780166874999999
                },
                {
                    "name": "G#4",
                    "midi": 68,
                    "time": 24.75729549999998,
                    "velocity": 0.33070866141732286,
                    "duration": 0.0780166874999999
                },
                {
                    "name": "D4",
                    "midi": 62,
                    "time": 24.96533999999998,
                    "velocity": 0.31496062992125984,
                    "duration": 1.7423726874999979
                },
                {
                    "name": "E4",
                    "midi": 64,
                    "time": 24.96533999999998,
                    "velocity": 0.31496062992125984,
                    "duration": 1.9504171874999976
                },
                {
                    "name": "A3",
                    "midi": 57,
                    "time": 26.00556249999998,
                    "velocity": 0.31496062992125984,
                    "duration": 0.0780166874999999
                },
                {
                    "name": "B3",
                    "midi": 59,
                    "time": 26.21360699999998,
                    "velocity": 0.31496062992125984,
                    "duration": 0.0780166874999999
                },
                {
                    "name": "C4",
                    "midi": 60,
                    "time": 26.421651499999978,
                    "velocity": 0.31496062992125984,
                    "duration": 0.0780166874999999
                },
                {
                    "name": "D4",
                    "midi": 62,
                    "time": 26.629695999999978,
                    "velocity": 0.3464566929133858,
                    "duration": 0.832177999999999
                },
                {
                    "name": "E4",
                    "midi": 64,
                    "time": 26.837740499999978,
                    "velocity": 0.2992125984251969,
                    "duration": 0.6241334999999992
                },
                {
                    "name": "F#4",
                    "midi": 66,
                    "time": 27.045784999999977,
                    "velocity": 0.29133858267716534,
                    "duration": 0.0780166874999999
                },
                {
                    "name": "G#4",
                    "midi": 68,
                    "time": 27.253829499999977,
                    "velocity": 0.2677165354330709,
                    "duration": 0.0780166874999999
                },
                {
                    "name": "A3",
                    "midi": 57,
                    "time": 27.461873999999977,
                    "velocity": 0.3464566929133858,
                    "duration": 0.052011124999999936
                },
                {
                    "name": "B3",
                    "midi": 59,
                    "time": 27.669918499999977,
                    "velocity": 0.33070866141732286,
                    "duration": 0.052011124999999936
                },
                {
                    "name": "F4",
                    "midi": 65,
                    "time": 27.877962999999976,
                    "velocity": 0.30708661417322836,
                    "duration": 0.052011124999999936
                },
                {
                    "name": "A4",
                    "midi": 69,
                    "time": 27.877962999999976,
                    "velocity": 0.30708661417322836,
                    "duration": 0.052011124999999936
                },
                {
                    "name": "C4",
                    "midi": 60,
                    "time": 27.877962999999976,
                    "velocity": 0.3464566929133858,
                    "duration": 0.052011124999999936
                },
                {
                    "name": "D4",
                    "midi": 62,
                    "time": 28.086007499999976,
                    "velocity": 0.33070866141732286,
                    "duration": 0.052011124999999936
                },
                {
                    "name": "B3",
                    "midi": 59,
                    "time": 28.294051999999976,
                    "velocity": 0.3464566929133858,
                    "duration": 0.17337041666666764
                },
                {
                    "name": "B3",
                    "midi": 59,
                    "time": 28.502096499999976,
                    "velocity": 0.31496062992125984,
                    "duration": 0.10402224999999987
                },
                {
                    "name": "C4",
                    "midi": 60,
                    "time": 28.606118749999975,
                    "velocity": 0.31496062992125984,
                    "duration": 0.10402224999999987
                },
                {
                    "name": "A4",
                    "midi": 69,
                    "time": 28.710140999999975,
                    "velocity": 0.30708661417322836,
                    "duration": 0.20804449999999974
                },
                {
                    "name": "F4",
                    "midi": 65,
                    "time": 28.710140999999975,
                    "velocity": 0.30708661417322836,
                    "duration": 0.20804449999999974
                },
                {
                    "name": "B3",
                    "midi": 59,
                    "time": 28.710140999999975,
                    "velocity": 0.33070866141732286,
                    "duration": 0.20804449999999974
                },
                {
                    "name": "A3",
                    "midi": 57,
                    "time": 28.918185499999975,
                    "velocity": 0.33070866141732286,
                    "duration": 0.1560333749999998
                },
                {
                    "name": "B3",
                    "midi": 59,
                    "time": 29.126229999999975,
                    "velocity": 0.3464566929133858,
                    "duration": 0.0780166874999999
                },
                {
                    "name": "F4",
                    "midi": 65,
                    "time": 29.542318999999974,
                    "velocity": 0.30708661417322836,
                    "duration": 0.052011124999999936
                },
                {
                    "name": "A4",
                    "midi": 69,
                    "time": 29.542318999999974,
                    "velocity": 0.30708661417322836,
                    "duration": 0.052011124999999936
                },
                {
                    "name": "C4",
                    "midi": 60,
                    "time": 29.542318999999974,
                    "velocity": 0.30708661417322836,
                    "duration": 0.052011124999999936
                },
                {
                    "name": "B3",
                    "midi": 59,
                    "time": 29.958407999999974,
                    "velocity": 0.3464566929133858,
                    "duration": 0.20804449999999974
                },
                {
                    "name": "C4",
                    "midi": 60,
                    "time": 30.166452499999973,
                    "velocity": 0.33070866141732286,
                    "duration": 0.20804449999999974
                },
                {
                    "name": "C5",
                    "midi": 72,
                    "time": 30.374496999999973,
                    "velocity": 0.30708661417322836,
                    "duration": 0.4160889999999995
                },
                {
                    "name": "A4",
                    "midi": 69,
                    "time": 30.374496999999973,
                    "velocity": 0.30708661417322836,
                    "duration": 0.4160889999999995
                },
                {
                    "name": "D4",
                    "midi": 62,
                    "time": 30.374496999999973,
                    "velocity": 0.3464566929133858,
                    "duration": 0.10402224999999987
                },
                {
                    "name": "E4",
                    "midi": 64,
                    "time": 30.582541499999973,
                    "velocity": 0.33070866141732286,
                    "duration": 0.10402224999999987
                },
                {
                    "name": "F#4",
                    "midi": 66,
                    "time": 30.790585999999973,
                    "velocity": 0.3464566929133858,
                    "duration": 0.10402224999999987
                },
                {
                    "name": "F#4",
                    "midi": 66,
                    "time": 30.998630499999972,
                    "velocity": 0.33070866141732286,
                    "duration": 0.06934816666666777
                },
                {
                    "name": "G4",
                    "midi": 67,
                    "time": 31.06797866666664,
                    "velocity": 0.31496062992125984,
                    "duration": 0.06934816666666777
                },
                {
                    "name": "F#4",
                    "midi": 66,
                    "time": 31.137326833333308,
                    "velocity": 0.31496062992125984,
                    "duration": 0.06934816666666777
                },
                {
                    "name": "C5",
                    "midi": 72,
                    "time": 31.206674999999976,
                    "velocity": 0.2992125984251969,
                    "duration": 0.4160889999999995
                },
                {
                    "name": "A4",
                    "midi": 69,
                    "time": 31.206674999999976,
                    "velocity": 0.2992125984251969,
                    "duration": 0.4160889999999995
                },
                {
                    "name": "E4",
                    "midi": 64,
                    "time": 31.206674999999976,
                    "velocity": 0.3464566929133858,
                    "duration": 0.20804449999999974
                },
                {
                    "name": "D4",
                    "midi": 62,
                    "time": 31.414719499999975,
                    "velocity": 0.33070866141732286,
                    "duration": 0.20804449999999974
                },
                {
                    "name": "C4",
                    "midi": 60,
                    "time": 31.622763999999975,
                    "velocity": 0.3464566929133858,
                    "duration": 0.17337041666666764
                },
                {
                    "name": "D4",
                    "midi": 62,
                    "time": 31.830808499999975,
                    "velocity": 0.31496062992125984,
                    "duration": 0.17337041666666408
                },
                {
                    "name": "E4",
                    "midi": 64,
                    "time": 32.038852999999975,
                    "velocity": 0.31496062992125984,
                    "duration": 0.4160889999999995
                },
                {
                    "name": "C5",
                    "midi": 72,
                    "time": 32.038852999999975,
                    "velocity": 0.31496062992125984,
                    "duration": 0.4160889999999995
                },
                {
                    "name": "A4",
                    "midi": 69,
                    "time": 32.038852999999975,
                    "velocity": 0.31496062992125984,
                    "duration": 0.4160889999999995
                },
                {
                    "name": "A4",
                    "midi": 69,
                    "time": 32.454941999999974,
                    "velocity": 0.3464566929133858,
                    "duration": 0.052011124999999936
                },
                {
                    "name": "B4",
                    "midi": 71,
                    "time": 32.662986499999974,
                    "velocity": 0.33070866141732286,
                    "duration": 0.052011124999999936
                },
                {
                    "name": "F4",
                    "midi": 65,
                    "time": 32.871030999999974,
                    "velocity": 0.30708661417322836,
                    "duration": 0.052011124999999936
                },
                {
                    "name": "D4",
                    "midi": 62,
                    "time": 32.871030999999974,
                    "velocity": 0.30708661417322836,
                    "duration": 0.052011124999999936
                },
                {
                    "name": "C5",
                    "midi": 72,
                    "time": 32.871030999999974,
                    "velocity": 0.3464566929133858,
                    "duration": 0.052011124999999936
                },
                {
                    "name": "D5",
                    "midi": 74,
                    "time": 33.07907549999997,
                    "velocity": 0.33858267716535434,
                    "duration": 0.052011124999999936
                },
                {
                    "name": "B4",
                    "midi": 71,
                    "time": 33.28711999999997,
                    "velocity": 0.3543307086614173,
                    "duration": 0.17337041666666408
                },
                {
                    "name": "B4",
                    "midi": 71,
                    "time": 33.49516449999997,
                    "velocity": 0.33858267716535434,
                    "duration": 0.10402224999999987
                },
                {
                    "name": "C5",
                    "midi": 72,
                    "time": 33.59918674999997,
                    "velocity": 0.33858267716535434,
                    "duration": 0.10402224999999987
                },
                {
                    "name": "D4",
                    "midi": 62,
                    "time": 33.70320899999997,
                    "velocity": 0.33070866141732286,
                    "duration": 0.20804449999999974
                },
                {
                    "name": "F4",
                    "midi": 65,
                    "time": 33.70320899999997,
                    "velocity": 0.33070866141732286,
                    "duration": 0.20804449999999974
                },
                {
                    "name": "B4",
                    "midi": 71,
                    "time": 33.70320899999997,
                    "velocity": 0.3464566929133858,
                    "duration": 0.20804449999999974
                },
                {
                    "name": "A4",
                    "midi": 69,
                    "time": 33.91125349999997,
                    "velocity": 0.3464566929133858,
                    "duration": 0.1560333749999998
                },
                {
                    "name": "B4",
                    "midi": 71,
                    "time": 34.11929799999997,
                    "velocity": 0.3779527559055118,
                    "duration": 0.07801668750000346
                },
                {
                    "name": "F4",
                    "midi": 65,
                    "time": 34.53538699999998,
                    "velocity": 0.33858267716535434,
                    "duration": 0.052011124999999936
                },
                {
                    "name": "D4",
                    "midi": 62,
                    "time": 34.53538699999998,
                    "velocity": 0.33858267716535434,
                    "duration": 0.052011124999999936
                },
                {
                    "name": "C5",
                    "midi": 72,
                    "time": 34.53538699999998,
                    "velocity": 0.33858267716535434,
                    "duration": 0.052011124999999936
                },
                {
                    "name": "B4",
                    "midi": 71,
                    "time": 34.95147599999998,
                    "velocity": 0.3937007874015748,
                    "duration": 0.20804449999999974
                },
                {
                    "name": "C5",
                    "midi": 72,
                    "time": 35.15952049999998,
                    "velocity": 0.3779527559055118,
                    "duration": 0.20804449999999974
                },
                {
                    "name": "C5",
                    "midi": 72,
                    "time": 35.36756499999998,
                    "velocity": 0.3464566929133858,
                    "duration": 0.4160889999999995
                },
                {
                    "name": "A4",
                    "midi": 69,
                    "time": 35.36756499999998,
                    "velocity": 0.3464566929133858,
                    "duration": 0.4160889999999995
                },
                {
                    "name": "D5",
                    "midi": 74,
                    "time": 35.36756499999998,
                    "velocity": 0.4094488188976378,
                    "duration": 0.10402224999999987
                },
                {
                    "name": "E5",
                    "midi": 76,
                    "time": 35.57560949999998,
                    "velocity": 0.3937007874015748,
                    "duration": 0.10402224999999987
                },
                {
                    "name": "F#5",
                    "midi": 78,
                    "time": 35.78365399999998,
                    "velocity": 0.4094488188976378,
                    "duration": 0.10402224999999987
                },
                {
                    "name": "F#5",
                    "midi": 78,
                    "time": 35.99169849999998,
                    "velocity": 0.3779527559055118,
                    "duration": 0.06934816666666421
                },
                {
                    "name": "G5",
                    "midi": 79,
                    "time": 36.06104666666664,
                    "velocity": 0.3779527559055118,
                    "duration": 0.06934816666666421
                },
                {
                    "name": "F#5",
                    "midi": 78,
                    "time": 36.130394833333305,
                    "velocity": 0.3779527559055118,
                    "duration": 0.06934816666666421
                },
                {
                    "name": "E5",
                    "midi": 76,
                    "time": 36.19974299999997,
                    "velocity": 0.4094488188976378,
                    "duration": 0.20804449999999974
                },
                {
                    "name": "D5",
                    "midi": 74,
                    "time": 36.40778749999997,
                    "velocity": 0.3937007874015748,
                    "duration": 0.20804449999999974
                },
                {
                    "name": "C5",
                    "midi": 72,
                    "time": 36.61583199999997,
                    "velocity": 0.4094488188976378,
                    "duration": 0.20804449999999974
                },
                {
                    "name": "D5",
                    "midi": 74,
                    "time": 36.82387649999997,
                    "velocity": 0.3779527559055118,
                    "duration": 0.20804449999999974
                },
                {
                    "name": "E5",
                    "midi": 76,
                    "time": 37.03192099999997,
                    "velocity": 0.3779527559055118,
                    "duration": 0.832177999999999
                },
                {
                    "name": "A4",
                    "midi": 69,
                    "time": 37.44800999999997,
                    "velocity": 0.3543307086614173,
                    "duration": 0.20804449999999974
                },
                {
                    "name": "C5",
                    "midi": 72,
                    "time": 37.44800999999997,
                    "velocity": 0.3937007874015748,
                    "duration": 0.20804449999999974
                },
                {
                    "name": "D5",
                    "midi": 74,
                    "time": 37.65605449999997,
                    "velocity": 0.3779527559055118,
                    "duration": 0.20804449999999974
                },
                {
                    "name": "G4",
                    "midi": 67,
                    "time": 37.86409899999997,
                    "velocity": 0.31496062992125984,
                    "duration": 0.38141491666666383
                },
                {
                    "name": "B4",
                    "midi": 71,
                    "time": 37.86409899999997,
                    "velocity": 0.31496062992125984,
                    "duration": 0.38141491666666383
                },
                {
                    "name": "E5",
                    "midi": 76,
                    "time": 37.86409899999997,
                    "velocity": 0.3779527559055118,
                    "duration": 0.38141491666666383
                },
                {
                    "name": "F#4",
                    "midi": 66,
                    "time": 38.28018799999997,
                    "velocity": 0.31496062992125984,
                    "duration": 0.4160889999999995
                },
                {
                    "name": "A4",
                    "midi": 69,
                    "time": 38.28018799999997,
                    "velocity": 0.36220472440944884,
                    "duration": 0.20804449999999974
                },
                {
                    "name": "B4",
                    "midi": 71,
                    "time": 38.48823249999997,
                    "velocity": 0.3543307086614173,
                    "duration": 0.20804449999999974
                },
                {
                    "name": "F4",
                    "midi": 65,
                    "time": 38.69627699999997,
                    "velocity": 0.30708661417322836,
                    "duration": 0.4160889999999995
                },
                {
                    "name": "G#4",
                    "midi": 68,
                    "time": 38.69627699999997,
                    "velocity": 0.30708661417322836,
                    "duration": 0.4160889999999995
                },
                {
                    "name": "C5",
                    "midi": 72,
                    "time": 38.69627699999997,
                    "velocity": 0.36220472440944884,
                    "duration": 0.7975039166666633
                },
                {
                    "name": "E4",
                    "midi": 64,
                    "time": 39.112365999999966,
                    "velocity": 0.2992125984251969,
                    "duration": 0.4160889999999995
                },
                {
                    "name": "G4",
                    "midi": 67,
                    "time": 39.112365999999966,
                    "velocity": 0.2992125984251969,
                    "duration": 0.4160889999999995
                },
                {
                    "name": "G#4",
                    "midi": 68,
                    "time": 39.528454999999965,
                    "velocity": 0.29133858267716534,
                    "duration": 0.832177999999999
                },
                {
                    "name": "D#4",
                    "midi": 63,
                    "time": 39.528454999999965,
                    "velocity": 0.2677165354330709,
                    "duration": 0.4160889999999995
                },
                {
                    "name": "F#4",
                    "midi": 66,
                    "time": 39.528454999999965,
                    "velocity": 0.2677165354330709,
                    "duration": 0.4160889999999995
                },
                {
                    "name": "F4",
                    "midi": 65,
                    "time": 39.944543999999965,
                    "velocity": 0.2440944881889764,
                    "duration": 0.4160889999999995
                },
                {
                    "name": "D4",
                    "midi": 62,
                    "time": 39.944543999999965,
                    "velocity": 0.2440944881889764,
                    "duration": 0.4160889999999995
                },
                {
                    "name": "E4",
                    "midi": 64,
                    "time": 40.360632999999964,
                    "velocity": 0.25196850393700787,
                    "duration": 2.0804449999999974
                },
                {
                    "name": "C#4",
                    "midi": 61,
                    "time": 40.360632999999964,
                    "velocity": 0.25196850393700787,
                    "duration": 0.4160889999999995
                },
                {
                    "name": "C4",
                    "midi": 60,
                    "time": 40.776721999999964,
                    "velocity": 0.25196850393700787,
                    "duration": 0.1560333749999998
                },
                {
                    "name": "B3",
                    "midi": 59,
                    "time": 41.19281099999996,
                    "velocity": 0.2440944881889764,
                    "duration": 0.1560333749999998
                },
                {
                    "name": "D4",
                    "midi": 62,
                    "time": 41.60889999999996,
                    "velocity": 0.2440944881889764,
                    "duration": 0.1560333749999998
                },
                {
                    "name": "A#3",
                    "midi": 58,
                    "time": 41.60889999999996,
                    "velocity": 0.2440944881889764,
                    "duration": 0.1560333749999998
                },
                {
                    "name": "C4",
                    "midi": 60,
                    "time": 42.85716699999996,
                    "velocity": 0.2992125984251969,
                    "duration": 0.07801668750000346
                },
                {
                    "name": "E4",
                    "midi": 64,
                    "time": 42.85716699999996,
                    "velocity": 0.2992125984251969,
                    "duration": 0.07801668750000346
                },
                {
                    "name": "A4",
                    "midi": 69,
                    "time": 42.85716699999996,
                    "velocity": 0.3543307086614173,
                    "duration": 0.07801668750000346
                },
                {
                    "name": "B3",
                    "midi": 59,
                    "time": 43.06521149999997,
                    "velocity": 0.25984251968503935,
                    "duration": 0.07801668750000346
                },
                {
                    "name": "D4",
                    "midi": 62,
                    "time": 43.06521149999997,
                    "velocity": 0.25984251968503935,
                    "duration": 0.07801668750000346
                },
                {
                    "name": "E4",
                    "midi": 64,
                    "time": 43.06521149999997,
                    "velocity": 0.30708661417322836,
                    "duration": 0.07801668750000346
                },
                {
                    "name": "B3",
                    "midi": 59,
                    "time": 43.273255999999975,
                    "velocity": 0.25984251968503935,
                    "duration": 0.058945941666664226
                },
                {
                    "name": "D4",
                    "midi": 62,
                    "time": 43.273255999999975,
                    "velocity": 0.25984251968503935,
                    "duration": 0.058945941666664226
                },
                {
                    "name": "E4",
                    "midi": 64,
                    "time": 43.273255999999975,
                    "velocity": 0.30708661417322836,
                    "duration": 0.058945941666664226
                },
                {
                    "name": "C4",
                    "midi": 60,
                    "time": 43.481300499999975,
                    "velocity": 0.25984251968503935,
                    "duration": 0.07801668750000346
                },
                {
                    "name": "E4",
                    "midi": 64,
                    "time": 43.481300499999975,
                    "velocity": 0.25984251968503935,
                    "duration": 0.07801668750000346
                },
                {
                    "name": "A4",
                    "midi": 69,
                    "time": 43.481300499999975,
                    "velocity": 0.30708661417322836,
                    "duration": 0.07801668750000346
                },
                {
                    "name": "C4",
                    "midi": 60,
                    "time": 43.68934499999998,
                    "velocity": 0.29133858267716534,
                    "duration": 0.07801668750000346
                },
                {
                    "name": "E4",
                    "midi": 64,
                    "time": 43.68934499999998,
                    "velocity": 0.29133858267716534,
                    "duration": 0.07801668750000346
                },
                {
                    "name": "A4",
                    "midi": 69,
                    "time": 43.68934499999998,
                    "velocity": 0.3464566929133858,
                    "duration": 0.07801668750000346
                },
                {
                    "name": "E4",
                    "midi": 64,
                    "time": 43.89738949999999,
                    "velocity": 0.3464566929133858,
                    "duration": 0.07801668750000346
                },
                {
                    "name": "B3",
                    "midi": 59,
                    "time": 43.89738949999999,
                    "velocity": 0.29133858267716534,
                    "duration": 0.07801668750000346
                },
                {
                    "name": "D4",
                    "midi": 62,
                    "time": 43.89738949999999,
                    "velocity": 0.29133858267716534,
                    "duration": 0.07801668750000346
                },
                {
                    "name": "B3",
                    "midi": 59,
                    "time": 44.105433999999995,
                    "velocity": 0.2677165354330709,
                    "duration": 0.058945941666664226
                },
                {
                    "name": "E4",
                    "midi": 64,
                    "time": 44.105433999999995,
                    "velocity": 0.31496062992125984,
                    "duration": 0.058945941666664226
                },
                {
                    "name": "D4",
                    "midi": 62,
                    "time": 44.105433999999995,
                    "velocity": 0.2677165354330709,
                    "duration": 0.058945941666664226
                },
                {
                    "name": "C4",
                    "midi": 60,
                    "time": 44.313478499999995,
                    "velocity": 0.28346456692913385,
                    "duration": 0.07801668750000346
                },
                {
                    "name": "E4",
                    "midi": 64,
                    "time": 44.313478499999995,
                    "velocity": 0.28346456692913385,
                    "duration": 0.07801668750000346
                },
                {
                    "name": "A4",
                    "midi": 69,
                    "time": 44.313478499999995,
                    "velocity": 0.33858267716535434,
                    "duration": 0.07801668750000346
                },
                {
                    "name": "D4",
                    "midi": 62,
                    "time": 44.521523,
                    "velocity": 0.3228346456692913,
                    "duration": 0.058945941666664226
                },
                {
                    "name": "G4",
                    "midi": 67,
                    "time": 44.521523,
                    "velocity": 0.3228346456692913,
                    "duration": 0.058945941666664226
                },
                {
                    "name": "B4",
                    "midi": 71,
                    "time": 44.521523,
                    "velocity": 0.3858267716535433,
                    "duration": 0.058945941666664226
                },
                {
                    "name": "A5",
                    "midi": 81,
                    "time": 44.937612,
                    "velocity": 0.6141732283464567,
                    "duration": 0.3987519583333352
                },
                {
                    "name": "A4",
                    "midi": 69,
                    "time": 44.937612,
                    "velocity": 0.5354330708661418,
                    "duration": 0.3987519583333352
                },
                {
                    "name": "C4",
                    "midi": 60,
                    "time": 45.353701,
                    "velocity": 0.2992125984251969,
                    "duration": 0.07801668750000346
                },
                {
                    "name": "E4",
                    "midi": 64,
                    "time": 45.353701,
                    "velocity": 0.2992125984251969,
                    "duration": 0.07801668750000346
                },
                {
                    "name": "A4",
                    "midi": 69,
                    "time": 45.353701,
                    "velocity": 0.3543307086614173,
                    "duration": 0.07801668750000346
                },
                {
                    "name": "B3",
                    "midi": 59,
                    "time": 45.56174550000001,
                    "velocity": 0.25984251968503935,
                    "duration": 0.07801668750000346
                },
                {
                    "name": "D4",
                    "midi": 62,
                    "time": 45.56174550000001,
                    "velocity": 0.25984251968503935,
                    "duration": 0.07801668750000346
                },
                {
                    "name": "E4",
                    "midi": 64,
                    "time": 45.56174550000001,
                    "velocity": 0.30708661417322836,
                    "duration": 0.07801668750000346
                },
                {
                    "name": "B3",
                    "midi": 59,
                    "time": 45.769790000000015,
                    "velocity": 0.25984251968503935,
                    "duration": 0.058945941666664226
                },
                {
                    "name": "D4",
                    "midi": 62,
                    "time": 45.769790000000015,
                    "velocity": 0.25984251968503935,
                    "duration": 0.058945941666664226
                },
                {
                    "name": "E4",
                    "midi": 64,
                    "time": 45.769790000000015,
                    "velocity": 0.30708661417322836,
                    "duration": 0.058945941666664226
                },
                {
                    "name": "C4",
                    "midi": 60,
                    "time": 45.977834500000014,
                    "velocity": 0.25984251968503935,
                    "duration": 0.07801668750000346
                },
                {
                    "name": "E4",
                    "midi": 64,
                    "time": 45.977834500000014,
                    "velocity": 0.25984251968503935,
                    "duration": 0.07801668750000346
                },
                {
                    "name": "A4",
                    "midi": 69,
                    "time": 45.977834500000014,
                    "velocity": 0.30708661417322836,
                    "duration": 0.07801668750000346
                },
                {
                    "name": "E4",
                    "midi": 64,
                    "time": 46.18587900000002,
                    "velocity": 0.29133858267716534,
                    "duration": 0.07801668750000346
                },
                {
                    "name": "A4",
                    "midi": 69,
                    "time": 46.18587900000002,
                    "velocity": 0.3464566929133858,
                    "duration": 0.07801668750000346
                },
                {
                    "name": "C4",
                    "midi": 60,
                    "time": 46.18587900000002,
                    "velocity": 0.29133858267716534,
                    "duration": 0.07801668750000346
                },
                {
                    "name": "D4",
                    "midi": 62,
                    "time": 46.39392350000003,
                    "velocity": 0.29133858267716534,
                    "duration": 0.07801668750000346
                },
                {
                    "name": "B3",
                    "midi": 59,
                    "time": 46.39392350000003,
                    "velocity": 0.29133858267716534,
                    "duration": 0.07801668750000346
                },
                {
                    "name": "E4",
                    "midi": 64,
                    "time": 46.39392350000003,
                    "velocity": 0.3464566929133858,
                    "duration": 0.07801668750000346
                },
                {
                    "name": "B3",
                    "midi": 59,
                    "time": 46.601968000000035,
                    "velocity": 0.2677165354330709,
                    "duration": 0.058945941666664226
                },
                {
                    "name": "E4",
                    "midi": 64,
                    "time": 46.601968000000035,
                    "velocity": 0.31496062992125984,
                    "duration": 0.058945941666664226
                },
                {
                    "name": "D4",
                    "midi": 62,
                    "time": 46.601968000000035,
                    "velocity": 0.2677165354330709,
                    "duration": 0.058945941666664226
                },
                {
                    "name": "C4",
                    "midi": 60,
                    "time": 46.810012500000035,
                    "velocity": 0.30708661417322836,
                    "duration": 0.07801668750000346
                },
                {
                    "name": "E4",
                    "midi": 64,
                    "time": 46.810012500000035,
                    "velocity": 0.30708661417322836,
                    "duration": 0.07801668750000346
                },
                {
                    "name": "A4",
                    "midi": 69,
                    "time": 46.810012500000035,
                    "velocity": 0.36220472440944884,
                    "duration": 0.07801668750000346
                },
                {
                    "name": "D4",
                    "midi": 62,
                    "time": 47.01805700000004,
                    "velocity": 0.33858267716535434,
                    "duration": 0.058945941666664226
                },
                {
                    "name": "G4",
                    "midi": 67,
                    "time": 47.01805700000004,
                    "velocity": 0.33858267716535434,
                    "duration": 0.058945941666664226
                },
                {
                    "name": "B4",
                    "midi": 71,
                    "time": 47.01805700000004,
                    "velocity": 0.4015748031496063,
                    "duration": 0.058945941666664226
                },
                {
                    "name": "C6",
                    "midi": 84,
                    "time": 47.43414600000004,
                    "velocity": 0.6220472440944882,
                    "duration": 0.3987519583333352
                },
                {
                    "name": "C5",
                    "midi": 72,
                    "time": 47.43414600000004,
                    "velocity": 0.5433070866141733,
                    "duration": 0.3987519583333352
                },
                {
                    "name": "E4",
                    "midi": 64,
                    "time": 47.85023500000004,
                    "velocity": 0.33070866141732286,
                    "duration": 0.07801668750000346
                },
                {
                    "name": "G4",
                    "midi": 67,
                    "time": 47.85023500000004,
                    "velocity": 0.33070866141732286,
                    "duration": 0.07801668750000346
                },
                {
                    "name": "C5",
                    "midi": 72,
                    "time": 47.85023500000004,
                    "velocity": 0.3937007874015748,
                    "duration": 0.07801668750000346
                },
                {
                    "name": "D4",
                    "midi": 62,
                    "time": 48.05827950000005,
                    "velocity": 0.28346456692913385,
                    "duration": 0.07801668750000346
                },
                {
                    "name": "F4",
                    "midi": 65,
                    "time": 48.05827950000005,
                    "velocity": 0.28346456692913385,
                    "duration": 0.07801668750000346
                },
                {
                    "name": "G4",
                    "midi": 67,
                    "time": 48.05827950000005,
                    "velocity": 0.33858267716535434,
                    "duration": 0.07801668750000346
                },
                {
                    "name": "D4",
                    "midi": 62,
                    "time": 48.266324000000054,
                    "velocity": 0.28346456692913385,
                    "duration": 0.058945941666664226
                },
                {
                    "name": "F4",
                    "midi": 65,
                    "time": 48.266324000000054,
                    "velocity": 0.28346456692913385,
                    "duration": 0.058945941666664226
                },
                {
                    "name": "G4",
                    "midi": 67,
                    "time": 48.266324000000054,
                    "velocity": 0.33858267716535434,
                    "duration": 0.058945941666664226
                },
                {
                    "name": "C5",
                    "midi": 72,
                    "time": 48.474368500000054,
                    "velocity": 0.33858267716535434,
                    "duration": 0.07801668750000346
                },
                {
                    "name": "E4",
                    "midi": 64,
                    "time": 48.474368500000054,
                    "velocity": 0.28346456692913385,
                    "duration": 0.07801668750000346
                },
                {
                    "name": "G4",
                    "midi": 67,
                    "time": 48.474368500000054,
                    "velocity": 0.28346456692913385,
                    "duration": 0.07801668750000346
                },
                {
                    "name": "E4",
                    "midi": 64,
                    "time": 48.68241300000006,
                    "velocity": 0.3228346456692913,
                    "duration": 0.07801668750000346
                },
                {
                    "name": "G4",
                    "midi": 67,
                    "time": 48.68241300000006,
                    "velocity": 0.3228346456692913,
                    "duration": 0.07801668750000346
                },
                {
                    "name": "C5",
                    "midi": 72,
                    "time": 48.68241300000006,
                    "velocity": 0.3858267716535433,
                    "duration": 0.07801668750000346
                },
                {
                    "name": "D4",
                    "midi": 62,
                    "time": 48.89045750000007,
                    "velocity": 0.3228346456692913,
                    "duration": 0.07801668750000346
                },
                {
                    "name": "F4",
                    "midi": 65,
                    "time": 48.89045750000007,
                    "velocity": 0.3228346456692913,
                    "duration": 0.07801668750000346
                },
                {
                    "name": "G4",
                    "midi": 67,
                    "time": 48.89045750000007,
                    "velocity": 0.3858267716535433,
                    "duration": 0.07801668750000346
                },
                {
                    "name": "D4",
                    "midi": 62,
                    "time": 49.098502000000074,
                    "velocity": 0.29133858267716534,
                    "duration": 0.058945941666664226
                },
                {
                    "name": "G4",
                    "midi": 67,
                    "time": 49.098502000000074,
                    "velocity": 0.3464566929133858,
                    "duration": 0.058945941666664226
                },
                {
                    "name": "F4",
                    "midi": 65,
                    "time": 49.098502000000074,
                    "velocity": 0.29133858267716534,
                    "duration": 0.058945941666664226
                },
                {
                    "name": "E4",
                    "midi": 64,
                    "time": 49.306546500000074,
                    "velocity": 0.33858267716535434,
                    "duration": 0.07801668750000346
                },
                {
                    "name": "G4",
                    "midi": 67,
                    "time": 49.306546500000074,
                    "velocity": 0.33858267716535434,
                    "duration": 0.07801668750000346
                },
                {
                    "name": "C5",
                    "midi": 72,
                    "time": 49.306546500000074,
                    "velocity": 0.4015748031496063,
                    "duration": 0.07801668750000346
                },
                {
                    "name": "F4",
                    "midi": 65,
                    "time": 49.51459100000008,
                    "velocity": 0.3700787401574803,
                    "duration": 0.058945941666664226
                },
                {
                    "name": "A#4",
                    "midi": 70,
                    "time": 49.51459100000008,
                    "velocity": 0.3700787401574803,
                    "duration": 0.058945941666664226
                },
                {
                    "name": "D5",
                    "midi": 74,
                    "time": 49.51459100000008,
                    "velocity": 0.4409448818897638,
                    "duration": 0.058945941666664226
                },
                {
                    "name": "C6",
                    "midi": 84,
                    "time": 49.93068000000008,
                    "velocity": 0.6929133858267716,
                    "duration": 0.3987519583333352
                },
                {
                    "name": "C5",
                    "midi": 72,
                    "time": 49.93068000000008,
                    "velocity": 0.5905511811023622,
                    "duration": 0.3987519583333352
                },
                {
                    "name": "E4",
                    "midi": 64,
                    "time": 50.34676900000008,
                    "velocity": 0.3779527559055118,
                    "duration": 0.07801668750000346
                },
                {
                    "name": "G4",
                    "midi": 67,
                    "time": 50.34676900000008,
                    "velocity": 0.3779527559055118,
                    "duration": 0.07801668750000346
                },
                {
                    "name": "C5",
                    "midi": 72,
                    "time": 50.34676900000008,
                    "velocity": 0.44881889763779526,
                    "duration": 0.07801668750000346
                },
                {
                    "name": "D4",
                    "midi": 62,
                    "time": 50.55481350000009,
                    "velocity": 0.3228346456692913,
                    "duration": 0.07801668750000346
                },
                {
                    "name": "F4",
                    "midi": 65,
                    "time": 50.55481350000009,
                    "velocity": 0.3228346456692913,
                    "duration": 0.07801668750000346
                },
                {
                    "name": "G4",
                    "midi": 67,
                    "time": 50.55481350000009,
                    "velocity": 0.3858267716535433,
                    "duration": 0.07801668750000346
                },
                {
                    "name": "G4",
                    "midi": 67,
                    "time": 50.762858000000094,
                    "velocity": 0.3858267716535433,
                    "duration": 0.058945941666664226
                },
                {
                    "name": "F4",
                    "midi": 65,
                    "time": 50.762858000000094,
                    "velocity": 0.3228346456692913,
                    "duration": 0.058945941666664226
                },
                {
                    "name": "D4",
                    "midi": 62,
                    "time": 50.762858000000094,
                    "velocity": 0.3228346456692913,
                    "duration": 0.058945941666664226
                },
                {
                    "name": "E4",
                    "midi": 64,
                    "time": 50.97090250000009,
                    "velocity": 0.3228346456692913,
                    "duration": 0.07801668750000346
                },
                {
                    "name": "G4",
                    "midi": 67,
                    "time": 50.97090250000009,
                    "velocity": 0.3228346456692913,
                    "duration": 0.07801668750000346
                },
                {
                    "name": "C5",
                    "midi": 72,
                    "time": 50.97090250000009,
                    "velocity": 0.3858267716535433,
                    "duration": 0.07801668750000346
                },
                {
                    "name": "E4",
                    "midi": 64,
                    "time": 51.1789470000001,
                    "velocity": 0.3700787401574803,
                    "duration": 0.07801668750000346
                },
                {
                    "name": "G4",
                    "midi": 67,
                    "time": 51.1789470000001,
                    "velocity": 0.3700787401574803,
                    "duration": 0.07801668750000346
                },
                {
                    "name": "C5",
                    "midi": 72,
                    "time": 51.1789470000001,
                    "velocity": 0.4409448818897638,
                    "duration": 0.07801668750000346
                },
                {
                    "name": "D4",
                    "midi": 62,
                    "time": 51.38699150000011,
                    "velocity": 0.3700787401574803,
                    "duration": 0.07801668750000346
                },
                {
                    "name": "F4",
                    "midi": 65,
                    "time": 51.38699150000011,
                    "velocity": 0.3700787401574803,
                    "duration": 0.07801668750000346
                },
                {
                    "name": "G4",
                    "midi": 67,
                    "time": 51.38699150000011,
                    "velocity": 0.4409448818897638,
                    "duration": 0.07801668750000346
                },
                {
                    "name": "D4",
                    "midi": 62,
                    "time": 51.595036000000114,
                    "velocity": 0.33070866141732286,
                    "duration": 0.058945941666664226
                },
                {
                    "name": "G4",
                    "midi": 67,
                    "time": 51.595036000000114,
                    "velocity": 0.3937007874015748,
                    "duration": 0.058945941666664226
                },
                {
                    "name": "F4",
                    "midi": 65,
                    "time": 51.595036000000114,
                    "velocity": 0.33070866141732286,
                    "duration": 0.058945941666664226
                },
                {
                    "name": "E4",
                    "midi": 64,
                    "time": 51.803080500000114,
                    "velocity": 0.3858267716535433,
                    "duration": 0.07801668750000346
                },
                {
                    "name": "G4",
                    "midi": 67,
                    "time": 51.803080500000114,
                    "velocity": 0.3858267716535433,
                    "duration": 0.07801668750000346
                },
                {
                    "name": "C5",
                    "midi": 72,
                    "time": 51.803080500000114,
                    "velocity": 0.4566929133858268,
                    "duration": 0.07801668750000346
                },
                {
                    "name": "F4",
                    "midi": 65,
                    "time": 52.01112500000012,
                    "velocity": 0.4330708661417323,
                    "duration": 0.4160889999999995
                },
                {
                    "name": "A#4",
                    "midi": 70,
                    "time": 52.01112500000012,
                    "velocity": 0.4330708661417323,
                    "duration": 0.4160889999999995
                },
                {
                    "name": "D5",
                    "midi": 74,
                    "time": 52.01112500000012,
                    "velocity": 0.5118110236220472,
                    "duration": 0.4160889999999995
                },
                {
                    "name": "D#5",
                    "midi": 75,
                    "time": 52.42721400000012,
                    "velocity": 0.4881889763779528,
                    "duration": 0.20804449999999974
                },
                {
                    "name": "A#4",
                    "midi": 70,
                    "time": 52.42721400000012,
                    "velocity": 0.44881889763779526,
                    "duration": 2.496533999999997
                },
                {
                    "name": "D5",
                    "midi": 74,
                    "time": 52.63525850000012,
                    "velocity": 0.47244094488188976,
                    "duration": 0.20804449999999974
                },
                {
                    "name": "D#5",
                    "midi": 75,
                    "time": 52.84330300000012,
                    "velocity": 0.49606299212598426,
                    "duration": 0.6241334999999992
                },
                {
                    "name": "D5",
                    "midi": 74,
                    "time": 53.46743650000012,
                    "velocity": 0.47244094488188976,
                    "duration": 0.20804449999999974
                },
                {
                    "name": "D#5",
                    "midi": 75,
                    "time": 53.67548100000012,
                    "velocity": 0.49606299212598426,
                    "duration": 0.6241334999999992
                },
                {
                    "name": "D5",
                    "midi": 74,
                    "time": 54.29961450000012,
                    "velocity": 0.48031496062992124,
                    "duration": 0.20804449999999974
                },
                {
                    "name": "D#5",
                    "midi": 75,
                    "time": 54.50765900000012,
                    "velocity": 0.5039370078740157,
                    "duration": 0.6241334999999992
                },
                {
                    "name": "D5",
                    "midi": 74,
                    "time": 55.13179250000012,
                    "velocity": 0.47244094488188976,
                    "duration": 0.20804449999999974
                },
                {
                    "name": "D#5",
                    "midi": 75,
                    "time": 55.33983700000012,
                    "velocity": 0.47244094488188976,
                    "duration": 0.20804449999999974
                },
                {
                    "name": "G5",
                    "midi": 79,
                    "time": 55.547881500000116,
                    "velocity": 0.4881889763779528,
                    "duration": 0.20804449999999974
                },
                {
                    "name": "G4",
                    "midi": 67,
                    "time": 55.755926000000116,
                    "velocity": 0.3779527559055118,
                    "duration": 0.20804449999999974
                },
                {
                    "name": "D5",
                    "midi": 74,
                    "time": 55.755926000000116,
                    "velocity": 0.4881889763779528,
                    "duration": 1.6296819166666623
                },
                {
                    "name": "A4",
                    "midi": 69,
                    "time": 55.963970500000116,
                    "velocity": 0.4094488188976378,
                    "duration": 0.20804449999999974
                },
                {
                    "name": "G4",
                    "midi": 67,
                    "time": 56.172015000000115,
                    "velocity": 0.4015748031496063,
                    "duration": 0.20804449999999974
                },
                {
                    "name": "E4",
                    "midi": 64,
                    "time": 56.380059500000115,
                    "velocity": 0.36220472440944884,
                    "duration": 0.20804449999999974
                },
                {
                    "name": "G4",
                    "midi": 67,
                    "time": 56.588104000000115,
                    "velocity": 0.3779527559055118,
                    "duration": 0.20804449999999974
                },
                {
                    "name": "A4",
                    "midi": 69,
                    "time": 56.796148500000115,
                    "velocity": 0.3543307086614173,
                    "duration": 0.20804449999999974
                },
                {
                    "name": "G4",
                    "midi": 67,
                    "time": 57.004193000000114,
                    "velocity": 0.3464566929133858,
                    "duration": 0.20804449999999974
                },
                {
                    "name": "E4",
                    "midi": 64,
                    "time": 57.212237500000114,
                    "velocity": 0.2992125984251969,
                    "duration": 0.17337041666666408
                },
                {
                    "name": "D5",
                    "midi": 74,
                    "time": 57.420282000000114,
                    "velocity": 0.4330708661417323,
                    "duration": 0.20804449999999974
                },
                {
                    "name": "A4",
                    "midi": 69,
                    "time": 57.420282000000114,
                    "velocity": 0.3937007874015748,
                    "duration": 2.496533999999997
                },
                {
                    "name": "C5",
                    "midi": 72,
                    "time": 57.628326500000114,
                    "velocity": 0.4251968503937008,
                    "duration": 0.20804449999999974
                },
                {
                    "name": "D5",
                    "midi": 74,
                    "time": 57.83637100000011,
                    "velocity": 0.4409448818897638,
                    "duration": 0.6241334999999992
                },
                {
                    "name": "C5",
                    "midi": 72,
                    "time": 58.46050450000011,
                    "velocity": 0.4251968503937008,
                    "duration": 0.20804449999999974
                },
                {
                    "name": "D5",
                    "midi": 74,
                    "time": 58.66854900000011,
                    "velocity": 0.4409448818897638,
                    "duration": 0.6241334999999992
                },
                {
                    "name": "C5",
                    "midi": 72,
                    "time": 59.29268250000011,
                    "velocity": 0.4251968503937008,
                    "duration": 0.20804449999999974
                },
                {
                    "name": "D5",
                    "midi": 74,
                    "time": 59.50072700000011,
                    "velocity": 0.44881889763779526,
                    "duration": 0.6241334999999992
                },
                {
                    "name": "A#4",
                    "midi": 70,
                    "time": 59.91681600000011,
                    "velocity": 0.4015748031496063,
                    "duration": 0.832177999999999
                },
                {
                    "name": "C5",
                    "midi": 72,
                    "time": 60.12486050000011,
                    "velocity": 0.4330708661417323,
                    "duration": 0.20804449999999974
                },
                {
                    "name": "D5",
                    "midi": 74,
                    "time": 60.33290500000011,
                    "velocity": 0.4330708661417323,
                    "duration": 0.20804449999999974
                },
                {
                    "name": "F5",
                    "midi": 77,
                    "time": 60.54094950000011,
                    "velocity": 0.44881889763779526,
                    "duration": 0.20804449999999974
                },
                {
                    "name": "F4",
                    "midi": 65,
                    "time": 60.74899400000011,
                    "velocity": 0.33858267716535434,
                    "duration": 0.20804449999999974
                },
                {
                    "name": "A#4",
                    "midi": 70,
                    "time": 60.74899400000011,
                    "velocity": 0.4330708661417323,
                    "duration": 2.496533999999997
                },
                {
                    "name": "D#4",
                    "midi": 63,
                    "time": 60.95703850000011,
                    "velocity": 0.36220472440944884,
                    "duration": 0.20804449999999974
                },
                {
                    "name": "D4",
                    "midi": 62,
                    "time": 61.16508300000011,
                    "velocity": 0.3543307086614173,
                    "duration": 0.20804449999999974
                },
                {
                    "name": "D#4",
                    "midi": 63,
                    "time": 61.37312750000011,
                    "velocity": 0.3464566929133858,
                    "duration": 0.20804449999999974
                },
                {
                    "name": "F4",
                    "midi": 65,
                    "time": 61.58117200000011,
                    "velocity": 0.33858267716535434,
                    "duration": 0.20804449999999974
                },
                {
                    "name": "D#4",
                    "midi": 63,
                    "time": 61.78921650000011,
                    "velocity": 0.31496062992125984,
                    "duration": 0.20804449999999974
                },
                {
                    "name": "D4",
                    "midi": 62,
                    "time": 61.99726100000011,
                    "velocity": 0.30708661417322836,
                    "duration": 0.20804449999999974
                },
                {
                    "name": "D#4",
                    "midi": 63,
                    "time": 62.20530550000011,
                    "velocity": 0.2992125984251969,
                    "duration": 0.4160889999999995
                },
                {
                    "name": "D4",
                    "midi": 62,
                    "time": 62.62139450000011,
                    "velocity": 0.36220472440944884,
                    "duration": 0.20804449999999974
                },
                {
                    "name": "C4",
                    "midi": 60,
                    "time": 62.82943900000011,
                    "velocity": 0.36220472440944884,
                    "duration": 0.20804449999999974
                },
                {
                    "name": "D#4",
                    "midi": 63,
                    "time": 63.03748350000011,
                    "velocity": 0.36220472440944884,
                    "duration": 0.4160889999999995
                },
                {
                    "name": "A4",
                    "midi": 69,
                    "time": 63.24552800000011,
                    "velocity": 0.4330708661417323,
                    "duration": 0.8668520833333275
                },
                {
                    "name": "D4",
                    "midi": 62,
                    "time": 63.45357250000011,
                    "velocity": 0.2677165354330709,
                    "duration": 0.20804449999999974
                },
                {
                    "name": "C4",
                    "midi": 60,
                    "time": 63.661617000000106,
                    "velocity": 0.2677165354330709,
                    "duration": 0.20804449999999974
                },
                {
                    "name": "D#4",
                    "midi": 63,
                    "time": 63.869661500000106,
                    "velocity": 0.2677165354330709,
                    "duration": 0.20804449999999974
                },
                {
                    "name": "C4",
                    "midi": 60,
                    "time": 64.0777060000001,
                    "velocity": 0.2992125984251969,
                    "duration": 0.20804449999999974
                },
                {
                    "name": "G4",
                    "midi": 67,
                    "time": 64.0777060000001,
                    "velocity": 0.4251968503937008,
                    "duration": 0.8668520833333275
                },
                {
                    "name": "A#3",
                    "midi": 58,
                    "time": 64.2857505000001,
                    "velocity": 0.28346456692913385,
                    "duration": 0.20804449999999974
                },
                {
                    "name": "A3",
                    "midi": 57,
                    "time": 64.4937950000001,
                    "velocity": 0.28346456692913385,
                    "duration": 0.20804449999999974
                },
                {
                    "name": "C4",
                    "midi": 60,
                    "time": 64.7018395000001,
                    "velocity": 0.28346456692913385,
                    "duration": 0.4160889999999995
                },
                {
                    "name": "F4",
                    "midi": 65,
                    "time": 64.9098840000001,
                    "velocity": 0.4251968503937008,
                    "duration": 1.2482669999999985
                },
                {
                    "name": "A#3",
                    "midi": 58,
                    "time": 65.1179285000001,
                    "velocity": 0.2677165354330709,
                    "duration": 0.20804449999999974
                },
                {
                    "name": "A3",
                    "midi": 57,
                    "time": 65.3259730000001,
                    "velocity": 0.2677165354330709,
                    "duration": 0.20804449999999974
                },
                {
                    "name": "C4",
                    "midi": 60,
                    "time": 65.5340175000001,
                    "velocity": 0.2677165354330709,
                    "duration": 0.20804449999999974
                },
                {
                    "name": "A#3",
                    "midi": 58,
                    "time": 65.7420620000001,
                    "velocity": 0.2677165354330709,
                    "duration": 0.20804449999999974
                },
                {
                    "name": "D4",
                    "midi": 62,
                    "time": 65.9501065000001,
                    "velocity": 0.2677165354330709,
                    "duration": 0.20804449999999974
                },
                {
                    "name": "F4",
                    "midi": 65,
                    "time": 66.1581510000001,
                    "velocity": 0.2992125984251969,
                    "duration": 0.20804449999999974
                },
                {
                    "name": "G4",
                    "midi": 67,
                    "time": 66.1581510000001,
                    "velocity": 0.4094488188976378,
                    "duration": 0.45076308333332804
                },
                {
                    "name": "D4",
                    "midi": 62,
                    "time": 66.3661955000001,
                    "velocity": 0.28346456692913385,
                    "duration": 0.20804449999999974
                },
                {
                    "name": "G4",
                    "midi": 67,
                    "time": 66.5742400000001,
                    "velocity": 0.30708661417322836,
                    "duration": 0.20804449999999974
                },
                {
                    "name": "A#4",
                    "midi": 70,
                    "time": 66.5742400000001,
                    "velocity": 0.44881889763779526,
                    "duration": 0.45076308333332804
                },
                {
                    "name": "F4",
                    "midi": 65,
                    "time": 66.7822845000001,
                    "velocity": 0.28346456692913385,
                    "duration": 0.20804449999999974
                },
                {
                    "name": "A#4",
                    "midi": 70,
                    "time": 66.9903290000001,
                    "velocity": 0.31496062992125984,
                    "duration": 0.20804449999999974
                },
                {
                    "name": "D5",
                    "midi": 74,
                    "time": 66.9903290000001,
                    "velocity": 0.4330708661417323,
                    "duration": 0.4160889999999995
                },
                {
                    "name": "G4",
                    "midi": 67,
                    "time": 67.1983735000001,
                    "velocity": 0.29133858267716534,
                    "duration": 0.20804449999999974
                },
                {
                    "name": "D#4",
                    "midi": 63,
                    "time": 67.4064180000001,
                    "velocity": 0.23622047244094488,
                    "duration": 0.20804449999999974
                },
                {
                    "name": "A#4",
                    "midi": 70,
                    "time": 67.4064180000001,
                    "velocity": 0.4330708661417323,
                    "duration": 0.8668520833333275
                },
                {
                    "name": "D4",
                    "midi": 62,
                    "time": 67.6144625000001,
                    "velocity": 0.29133858267716534,
                    "duration": 0.20804449999999974
                },
                {
                    "name": "C4",
                    "midi": 60,
                    "time": 67.8225070000001,
                    "velocity": 0.29133858267716534,
                    "duration": 0.20804449999999974
                },
                {
                    "name": "D#4",
                    "midi": 63,
                    "time": 68.0305515000001,
                    "velocity": 0.29133858267716534,
                    "duration": 0.4160889999999995
                },
                {
                    "name": "A4",
                    "midi": 69,
                    "time": 68.2385960000001,
                    "velocity": 0.4330708661417323,
                    "duration": 0.8668520833333275
                },
                {
                    "name": "D4",
                    "midi": 62,
                    "time": 68.4466405000001,
                    "velocity": 0.2677165354330709,
                    "duration": 0.20804449999999974
                },
                {
                    "name": "C4",
                    "midi": 60,
                    "time": 68.6546850000001,
                    "velocity": 0.2677165354330709,
                    "duration": 0.20804449999999974
                },
                {
                    "name": "D#4",
                    "midi": 63,
                    "time": 68.8627295000001,
                    "velocity": 0.2677165354330709,
                    "duration": 0.20804449999999974
                },
                {
                    "name": "C4",
                    "midi": 60,
                    "time": 69.0707740000001,
                    "velocity": 0.2992125984251969,
                    "duration": 0.20804449999999974
                },
                {
                    "name": "G4",
                    "midi": 67,
                    "time": 69.0707740000001,
                    "velocity": 0.4251968503937008,
                    "duration": 0.8668520833333275
                },
                {
                    "name": "A#3",
                    "midi": 58,
                    "time": 69.2788185000001,
                    "velocity": 0.28346456692913385,
                    "duration": 0.20804449999999974
                },
                {
                    "name": "A3",
                    "midi": 57,
                    "time": 69.4868630000001,
                    "velocity": 0.28346456692913385,
                    "duration": 0.20804449999999974
                },
                {
                    "name": "C4",
                    "midi": 60,
                    "time": 69.6949075000001,
                    "velocity": 0.28346456692913385,
                    "duration": 0.4160889999999995
                },
                {
                    "name": "F4",
                    "midi": 65,
                    "time": 69.9029520000001,
                    "velocity": 0.4251968503937008,
                    "duration": 1.2482669999999985
                },
                {
                    "name": "A#3",
                    "midi": 58,
                    "time": 70.1109965000001,
                    "velocity": 0.2677165354330709,
                    "duration": 0.20804449999999974
                },
                {
                    "name": "A3",
                    "midi": 57,
                    "time": 70.3190410000001,
                    "velocity": 0.2677165354330709,
                    "duration": 0.20804449999999974
                },
                {
                    "name": "C4",
                    "midi": 60,
                    "time": 70.5270855000001,
                    "velocity": 0.2677165354330709,
                    "duration": 0.20804449999999974
                },
                {
                    "name": "A#3",
                    "midi": 58,
                    "time": 70.7351300000001,
                    "velocity": 0.2677165354330709,
                    "duration": 0.20804449999999974
                },
                {
                    "name": "D4",
                    "midi": 62,
                    "time": 70.9431745000001,
                    "velocity": 0.2677165354330709,
                    "duration": 0.20804449999999974
                },
                {
                    "name": "F4",
                    "midi": 65,
                    "time": 71.1512190000001,
                    "velocity": 0.2992125984251969,
                    "duration": 0.20804449999999974
                },
                {
                    "name": "G4",
                    "midi": 67,
                    "time": 71.1512190000001,
                    "velocity": 0.4251968503937008,
                    "duration": 0.45076308333332804
                },
                {
                    "name": "D4",
                    "midi": 62,
                    "time": 71.3592635000001,
                    "velocity": 0.28346456692913385,
                    "duration": 0.20804449999999974
                },
                {
                    "name": "G4",
                    "midi": 67,
                    "time": 71.5673080000001,
                    "velocity": 0.30708661417322836,
                    "duration": 0.20804449999999974
                },
                {
                    "name": "A#4",
                    "midi": 70,
                    "time": 71.5673080000001,
                    "velocity": 0.44881889763779526,
                    "duration": 0.45076308333332804
                },
                {
                    "name": "F4",
                    "midi": 65,
                    "time": 71.7753525000001,
                    "velocity": 0.28346456692913385,
                    "duration": 0.20804449999999974
                },
                {
                    "name": "D5",
                    "midi": 74,
                    "time": 71.9833970000001,
                    "velocity": 0.4330708661417323,
                    "duration": 0.45076308333332804
                },
                {
                    "name": "A#4",
                    "midi": 70,
                    "time": 71.9833970000001,
                    "velocity": 0.31496062992125984,
                    "duration": 0.20804449999999974
                },
                {
                    "name": "G4",
                    "midi": 67,
                    "time": 72.1914415000001,
                    "velocity": 0.29133858267716534,
                    "duration": 0.20804449999999974
                },
                {
                    "name": "A#4",
                    "midi": 70,
                    "time": 72.3994860000001,
                    "velocity": 0.33070866141732286,
                    "duration": 0.20804449999999974
                },
                {
                    "name": "E5",
                    "midi": 76,
                    "time": 72.3994860000001,
                    "velocity": 0.4566929133858268,
                    "duration": 0.45076308333332804
                },
                {
                    "name": "G4",
                    "midi": 67,
                    "time": 72.6075305000001,
                    "velocity": 0.29133858267716534,
                    "duration": 0.20804449999999974
                },
                {
                    "name": "C5",
                    "midi": 72,
                    "time": 72.8155750000001,
                    "velocity": 0.30708661417322836,
                    "duration": 0.20804449999999974
                },
                {
                    "name": "F5",
                    "midi": 77,
                    "time": 72.8155750000001,
                    "velocity": 0.4251968503937008,
                    "duration": 0.4160889999999995
                },
                {
                    "name": "A4",
                    "midi": 69,
                    "time": 73.0236195000001,
                    "velocity": 0.29133858267716534,
                    "duration": 0.20804449999999974
                },
                {
                    "name": "A#4",
                    "midi": 70,
                    "time": 73.2316640000001,
                    "velocity": 0.30708661417322836,
                    "duration": 0.20804449999999974
                },
                {
                    "name": "D5",
                    "midi": 74,
                    "time": 73.2316640000001,
                    "velocity": 0.4330708661417323,
                    "duration": 0.832177999999999
                },
                {
                    "name": "G4",
                    "midi": 67,
                    "time": 73.4397085000001,
                    "velocity": 0.29133858267716534,
                    "duration": 0.20804449999999974
                },
                {
                    "name": "A#4",
                    "midi": 70,
                    "time": 73.6477530000001,
                    "velocity": 0.30708661417322836,
                    "duration": 0.20804449999999974
                },
                {
                    "name": "G4",
                    "midi": 67,
                    "time": 73.8557975000001,
                    "velocity": 0.29133858267716534,
                    "duration": 0.20804449999999974
                },
                {
                    "name": "A#4",
                    "midi": 70,
                    "time": 74.0638420000001,
                    "velocity": 0.33070866141732286,
                    "duration": 0.20804449999999974
                },
                {
                    "name": "C5",
                    "midi": 72,
                    "time": 74.0638420000001,
                    "velocity": 0.4330708661417323,
                    "duration": 0.45076308333332804
                },
                {
                    "name": "G4",
                    "midi": 67,
                    "time": 74.2718865000001,
                    "velocity": 0.29133858267716534,
                    "duration": 0.20804449999999974
                },
                {
                    "name": "A#4",
                    "midi": 70,
                    "time": 74.4799310000001,
                    "velocity": 0.33070866141732286,
                    "duration": 0.20804449999999974
                },
                {
                    "name": "D5",
                    "midi": 74,
                    "time": 74.4799310000001,
                    "velocity": 0.4330708661417323,
                    "duration": 0.45076308333332804
                },
                {
                    "name": "G4",
                    "midi": 67,
                    "time": 74.68797550000009,
                    "velocity": 0.29133858267716534,
                    "duration": 0.20804449999999974
                },
                {
                    "name": "G5",
                    "midi": 79,
                    "time": 74.89602000000009,
                    "velocity": 0.49606299212598426,
                    "duration": 0.4160889999999995
                },
                {
                    "name": "D5",
                    "midi": 74,
                    "time": 74.89602000000009,
                    "velocity": 0.3543307086614173,
                    "duration": 0.20804449999999974
                },
                {
                    "name": "A#4",
                    "midi": 70,
                    "time": 75.10406450000009,
                    "velocity": 0.31496062992125984,
                    "duration": 0.20804449999999974
                },
                {
                    "name": "E5",
                    "midi": 76,
                    "time": 75.31210900000009,
                    "velocity": 0.3464566929133858,
                    "duration": 0.20804449999999974
                },
                {
                    "name": "A5",
                    "midi": 81,
                    "time": 75.31210900000009,
                    "velocity": 0.44881889763779526,
                    "duration": 0.4160889999999995
                },
                {
                    "name": "C5",
                    "midi": 72,
                    "time": 75.52015350000009,
                    "velocity": 0.31496062992125984,
                    "duration": 0.20804449999999974
                },
                {
                    "name": "E5",
                    "midi": 76,
                    "time": 75.72819800000009,
                    "velocity": 0.36220472440944884,
                    "duration": 0.20804449999999974
                },
                {
                    "name": "A5",
                    "midi": 81,
                    "time": 75.72819800000009,
                    "velocity": 0.49606299212598426,
                    "duration": 0.4160889999999995
                },
                {
                    "name": "C5",
                    "midi": 72,
                    "time": 75.93624250000009,
                    "velocity": 0.31496062992125984,
                    "duration": 0.20804449999999974
                },
                {
                    "name": "C5",
                    "midi": 72,
                    "time": 76.14428700000009,
                    "velocity": 0.3464566929133858,
                    "duration": 0.20804449999999974
                },
                {
                    "name": "E5",
                    "midi": 76,
                    "time": 76.14428700000009,
                    "velocity": 0.44881889763779526,
                    "duration": 0.4160889999999995
                },
                {
                    "name": "A4",
                    "midi": 69,
                    "time": 76.35233150000009,
                    "velocity": 0.2992125984251969,
                    "duration": 0.20804449999999974
                },
                {
                    "name": "C5",
                    "midi": 72,
                    "time": 76.56037600000009,
                    "velocity": 0.3464566929133858,
                    "duration": 0.20804449999999974
                },
                {
                    "name": "E5",
                    "midi": 76,
                    "time": 76.56037600000009,
                    "velocity": 0.44881889763779526,
                    "duration": 0.832177999999999
                },
                {
                    "name": "A4",
                    "midi": 69,
                    "time": 76.76842050000009,
                    "velocity": 0.28346456692913385,
                    "duration": 0.20804449999999974
                },
                {
                    "name": "C5",
                    "midi": 72,
                    "time": 76.97646500000009,
                    "velocity": 0.3464566929133858,
                    "duration": 0.20804449999999974
                },
                {
                    "name": "A4",
                    "midi": 69,
                    "time": 77.18450950000009,
                    "velocity": 0.28346456692913385,
                    "duration": 0.20804449999999974
                },
                {
                    "name": "A#4",
                    "midi": 70,
                    "time": 77.39255400000009,
                    "velocity": 0.3464566929133858,
                    "duration": 0.20804449999999974
                },
                {
                    "name": "E5",
                    "midi": 76,
                    "time": 77.39255400000009,
                    "velocity": 0.48031496062992124,
                    "duration": 0.45076308333332804
                },
                {
                    "name": "G4",
                    "midi": 67,
                    "time": 77.60059850000009,
                    "velocity": 0.2992125984251969,
                    "duration": 0.20804449999999974
                },
                {
                    "name": "C5",
                    "midi": 72,
                    "time": 77.80864300000009,
                    "velocity": 0.31496062992125984,
                    "duration": 0.20804449999999974
                },
                {
                    "name": "F5",
                    "midi": 77,
                    "time": 77.80864300000009,
                    "velocity": 0.4409448818897638,
                    "duration": 0.4160889999999995
                },
                {
                    "name": "A4",
                    "midi": 69,
                    "time": 78.01668750000009,
                    "velocity": 0.2992125984251969,
                    "duration": 0.20804449999999974
                },
                {
                    "name": "A#4",
                    "midi": 70,
                    "time": 78.22473200000009,
                    "velocity": 0.31496062992125984,
                    "duration": 0.20804449999999974
                },
                {
                    "name": "D5",
                    "midi": 74,
                    "time": 78.22473200000009,
                    "velocity": 0.44881889763779526,
                    "duration": 0.832177999999999
                },
                {
                    "name": "G4",
                    "midi": 67,
                    "time": 78.43277650000009,
                    "velocity": 0.2992125984251969,
                    "duration": 0.20804449999999974
                },
                {
                    "name": "A#4",
                    "midi": 70,
                    "time": 78.64082100000009,
                    "velocity": 0.31496062992125984,
                    "duration": 0.20804449999999974
                },
                {
                    "name": "G4",
                    "midi": 67,
                    "time": 78.84886550000009,
                    "velocity": 0.2992125984251969,
                    "duration": 0.20804449999999974
                },
                {
                    "name": "A#4",
                    "midi": 70,
                    "time": 79.05691000000009,
                    "velocity": 0.3464566929133858,
                    "duration": 0.20804449999999974
                },
                {
                    "name": "C5",
                    "midi": 72,
                    "time": 79.05691000000009,
                    "velocity": 0.44881889763779526,
                    "duration": 0.45076308333332804
                },
                {
                    "name": "G4",
                    "midi": 67,
                    "time": 79.26495450000009,
                    "velocity": 0.2992125984251969,
                    "duration": 0.20804449999999974
                },
                {
                    "name": "A#4",
                    "midi": 70,
                    "time": 79.47299900000009,
                    "velocity": 0.3464566929133858,
                    "duration": 0.20804449999999974
                },
                {
                    "name": "D5",
                    "midi": 74,
                    "time": 79.47299900000009,
                    "velocity": 0.44881889763779526,
                    "duration": 0.45076308333332804
                },
                {
                    "name": "G4",
                    "midi": 67,
                    "time": 79.68104350000009,
                    "velocity": 0.2992125984251969,
                    "duration": 0.20804449999999974
                },
                {
                    "name": "D5",
                    "midi": 74,
                    "time": 79.88908800000009,
                    "velocity": 0.3779527559055118,
                    "duration": 0.20804449999999974
                },
                {
                    "name": "G5",
                    "midi": 79,
                    "time": 79.88908800000009,
                    "velocity": 0.5275590551181102,
                    "duration": 0.4160889999999995
                },
                {
                    "name": "A#4",
                    "midi": 70,
                    "time": 80.09713250000009,
                    "velocity": 0.33858267716535434,
                    "duration": 0.20804449999999974
                },
                {
                    "name": "E5",
                    "midi": 76,
                    "time": 80.30517700000009,
                    "velocity": 0.36220472440944884,
                    "duration": 0.20804449999999974
                },
                {
                    "name": "A5",
                    "midi": 81,
                    "time": 80.30517700000009,
                    "velocity": 0.47244094488188976,
                    "duration": 0.4160889999999995
                },
                {
                    "name": "C5",
                    "midi": 72,
                    "time": 80.51322150000009,
                    "velocity": 0.33858267716535434,
                    "duration": 0.20804449999999974
                },
                {
                    "name": "E5",
                    "midi": 76,
                    "time": 80.72126600000009,
                    "velocity": 0.3858267716535433,
                    "duration": 0.20804449999999974
                },
                {
                    "name": "A5",
                    "midi": 81,
                    "time": 80.72126600000009,
                    "velocity": 0.5275590551181102,
                    "duration": 0.4160889999999995
                },
                {
                    "name": "C5",
                    "midi": 72,
                    "time": 80.92931050000008,
                    "velocity": 0.33858267716535434,
                    "duration": 0.20804449999999974
                },
                {
                    "name": "C5",
                    "midi": 72,
                    "time": 81.13735500000008,
                    "velocity": 0.36220472440944884,
                    "duration": 0.20804449999999974
                },
                {
                    "name": "E5",
                    "midi": 76,
                    "time": 81.13735500000008,
                    "velocity": 0.47244094488188976,
                    "duration": 0.4160889999999995
                },
                {
                    "name": "A4",
                    "midi": 69,
                    "time": 81.34539950000008,
                    "velocity": 0.30708661417322836,
                    "duration": 0.20804449999999974
                },
                {
                    "name": "C5",
                    "midi": 72,
                    "time": 81.55344400000008,
                    "velocity": 0.36220472440944884,
                    "duration": 0.20804449999999974
                },
                {
                    "name": "E5",
                    "midi": 76,
                    "time": 81.55344400000008,
                    "velocity": 0.47244094488188976,
                    "duration": 0.4160889999999995
                },
                {
                    "name": "A4",
                    "midi": 69,
                    "time": 81.76148850000008,
                    "velocity": 0.29133858267716534,
                    "duration": 0.20804449999999974
                },
                {
                    "name": "A#5",
                    "midi": 82,
                    "time": 81.96953300000008,
                    "velocity": 0.5511811023622047,
                    "duration": 0.4160889999999995
                },
                {
                    "name": "F5",
                    "midi": 77,
                    "time": 81.96953300000008,
                    "velocity": 0.4094488188976378,
                    "duration": 0.20804449999999974
                },
                {
                    "name": "D5",
                    "midi": 74,
                    "time": 82.17757750000008,
                    "velocity": 0.3464566929133858,
                    "duration": 0.20804449999999974
                },
                {
                    "name": "F5",
                    "midi": 77,
                    "time": 82.38562200000008,
                    "velocity": 0.4566929133858268,
                    "duration": 0.20804449999999974
                },
                {
                    "name": "A#5",
                    "midi": 82,
                    "time": 82.38562200000008,
                    "velocity": 0.5984251968503937,
                    "duration": 0.4160889999999995
                },
                {
                    "name": "D5",
                    "midi": 74,
                    "time": 82.59366650000008,
                    "velocity": 0.31496062992125984,
                    "duration": 0.20804449999999974
                },
                {
                    "name": "G5",
                    "midi": 79,
                    "time": 82.80171100000008,
                    "velocity": 0.4566929133858268,
                    "duration": 0.20804449999999974
                },
                {
                    "name": "C6",
                    "midi": 84,
                    "time": 82.80171100000008,
                    "velocity": 0.5511811023622047,
                    "duration": 0.4160889999999995
                },
                {
                    "name": "E5",
                    "midi": 76,
                    "time": 83.00975550000008,
                    "velocity": 0.31496062992125984,
                    "duration": 0.20804449999999974
                },
                {
                    "name": "G5",
                    "midi": 79,
                    "time": 83.21780000000008,
                    "velocity": 0.4566929133858268,
                    "duration": 0.20804449999999974
                },
                {
                    "name": "C6",
                    "midi": 84,
                    "time": 83.21780000000008,
                    "velocity": 0.6141732283464567,
                    "duration": 0.4160889999999995
                },
                {
                    "name": "E5",
                    "midi": 76,
                    "time": 83.42584450000008,
                    "velocity": 0.31496062992125984,
                    "duration": 0.20804449999999974
                },
                {
                    "name": "E5",
                    "midi": 76,
                    "time": 83.63388900000008,
                    "velocity": 0.4566929133858268,
                    "duration": 0.20804449999999974
                },
                {
                    "name": "A5",
                    "midi": 81,
                    "time": 83.63388900000008,
                    "velocity": 0.5511811023622047,
                    "duration": 0.4160889999999995
                },
                {
                    "name": "C5",
                    "midi": 72,
                    "time": 83.84193350000008,
                    "velocity": 0.31496062992125984,
                    "duration": 0.20804449999999974
                },
                {
                    "name": "E5",
                    "midi": 76,
                    "time": 84.04997800000008,
                    "velocity": 0.4566929133858268,
                    "duration": 0.20804449999999974
                },
                {
                    "name": "A5",
                    "midi": 81,
                    "time": 84.04997800000008,
                    "velocity": 0.5984251968503937,
                    "duration": 0.4160889999999995
                },
                {
                    "name": "C5",
                    "midi": 72,
                    "time": 84.25802250000008,
                    "velocity": 0.31496062992125984,
                    "duration": 0.20804449999999974
                },
                {
                    "name": "A5",
                    "midi": 81,
                    "time": 84.46606700000008,
                    "velocity": 0.4566929133858268,
                    "duration": 0.20804449999999974
                },
                {
                    "name": "C6",
                    "midi": 84,
                    "time": 84.46606700000008,
                    "velocity": 0.6220472440944882,
                    "duration": 0.4160889999999995
                },
                {
                    "name": "E5",
                    "midi": 76,
                    "time": 84.67411150000008,
                    "velocity": 0.31496062992125984,
                    "duration": 0.20804449999999974
                },
                {
                    "name": "A#5",
                    "midi": 82,
                    "time": 84.88215600000008,
                    "velocity": 0.6141732283464567,
                    "duration": 0.20804449999999974
                },
                {
                    "name": "D6",
                    "midi": 86,
                    "time": 84.88215600000008,
                    "velocity": 0.6141732283464567,
                    "duration": 0.4160889999999995
                },
                {
                    "name": "E5",
                    "midi": 76,
                    "time": 85.09020050000008,
                    "velocity": 0.3464566929133858,
                    "duration": 0.20804449999999974
                },
                {
                    "name": "A#5",
                    "midi": 82,
                    "time": 85.29824500000008,
                    "velocity": 0.5984251968503937,
                    "duration": 0.20804449999999974
                },
                {
                    "name": "D6",
                    "midi": 86,
                    "time": 85.29824500000008,
                    "velocity": 0.5984251968503937,
                    "duration": 0.4160889999999995
                },
                {
                    "name": "F5",
                    "midi": 77,
                    "time": 85.50628950000008,
                    "velocity": 0.3464566929133858,
                    "duration": 0.20804449999999974
                },
                {
                    "name": "A#5",
                    "midi": 82,
                    "time": 85.71433400000008,
                    "velocity": 0.5196850393700787,
                    "duration": 0.20804449999999974
                },
                {
                    "name": "D6",
                    "midi": 86,
                    "time": 85.71433400000008,
                    "velocity": 0.5196850393700787,
                    "duration": 0.20804449999999974
                },
                {
                    "name": "D5",
                    "midi": 74,
                    "time": 85.92237850000008,
                    "velocity": 0.4015748031496063,
                    "duration": 0.20804449999999974
                },
                {
                    "name": "A#5",
                    "midi": 82,
                    "time": 86.13042300000008,
                    "velocity": 0.5118110236220472,
                    "duration": 0.20804449999999974
                },
                {
                    "name": "D6",
                    "midi": 86,
                    "time": 86.13042300000008,
                    "velocity": 0.5118110236220472,
                    "duration": 0.20804449999999974
                },
                {
                    "name": "D5",
                    "midi": 74,
                    "time": 86.33846750000008,
                    "velocity": 0.4015748031496063,
                    "duration": 0.20804449999999974
                },
                {
                    "name": "A#5",
                    "midi": 82,
                    "time": 86.54651200000008,
                    "velocity": 0.49606299212598426,
                    "duration": 0.20804449999999974
                },
                {
                    "name": "D6",
                    "midi": 86,
                    "time": 86.54651200000008,
                    "velocity": 0.49606299212598426,
                    "duration": 0.20804449999999974
                },
                {
                    "name": "C5",
                    "midi": 72,
                    "time": 86.75455650000008,
                    "velocity": 0.3937007874015748,
                    "duration": 0.20804449999999974
                },
                {
                    "name": "A#5",
                    "midi": 82,
                    "time": 86.96260100000008,
                    "velocity": 0.47244094488188976,
                    "duration": 0.20804449999999974
                },
                {
                    "name": "D6",
                    "midi": 86,
                    "time": 86.96260100000008,
                    "velocity": 0.47244094488188976,
                    "duration": 0.20804449999999974
                },
                {
                    "name": "D5",
                    "midi": 74,
                    "time": 87.17064550000008,
                    "velocity": 0.4094488188976378,
                    "duration": 0.20804449999999974
                },
                {
                    "name": "A#5",
                    "midi": 82,
                    "time": 87.37869000000008,
                    "velocity": 0.47244094488188976,
                    "duration": 0.20804449999999974
                },
                {
                    "name": "D6",
                    "midi": 86,
                    "time": 87.37869000000008,
                    "velocity": 0.47244094488188976,
                    "duration": 0.20804449999999974
                },
                {
                    "name": "G5",
                    "midi": 79,
                    "time": 87.58673450000008,
                    "velocity": 0.41732283464566927,
                    "duration": 0.20804449999999974
                },
                {
                    "name": "A#5",
                    "midi": 82,
                    "time": 87.79477900000008,
                    "velocity": 0.47244094488188976,
                    "duration": 0.20804449999999974
                },
                {
                    "name": "D6",
                    "midi": 86,
                    "time": 87.79477900000008,
                    "velocity": 0.47244094488188976,
                    "duration": 0.20804449999999974
                },
                {
                    "name": "A5",
                    "midi": 81,
                    "time": 88.00282350000008,
                    "velocity": 0.4094488188976378,
                    "duration": 0.20804449999999974
                },
                {
                    "name": "A#5",
                    "midi": 82,
                    "time": 88.21086800000008,
                    "velocity": 0.4645669291338583,
                    "duration": 0.20804449999999974
                },
                {
                    "name": "D6",
                    "midi": 86,
                    "time": 88.21086800000008,
                    "velocity": 0.4645669291338583,
                    "duration": 0.20804449999999974
                },
                {
                    "name": "A5",
                    "midi": 81,
                    "time": 88.41891250000008,
                    "velocity": 0.3543307086614173,
                    "duration": 0.20804449999999974
                },
                {
                    "name": "A#5",
                    "midi": 82,
                    "time": 88.62695700000008,
                    "velocity": 0.44881889763779526,
                    "duration": 0.20804449999999974
                },
                {
                    "name": "D6",
                    "midi": 86,
                    "time": 88.62695700000008,
                    "velocity": 0.44881889763779526,
                    "duration": 0.20804449999999974
                },
                {
                    "name": "E5",
                    "midi": 76,
                    "time": 88.83500150000008,
                    "velocity": 0.33858267716535434,
                    "duration": 0.20804449999999974
                },
                {
                    "name": "A#5",
                    "midi": 82,
                    "time": 89.04304600000007,
                    "velocity": 0.3858267716535433,
                    "duration": 0.20804449999999974
                },
                {
                    "name": "D6",
                    "midi": 86,
                    "time": 89.04304600000007,
                    "velocity": 0.3858267716535433,
                    "duration": 0.20804449999999974
                },
                {
                    "name": "E5",
                    "midi": 76,
                    "time": 89.25109050000007,
                    "velocity": 0.30708661417322836,
                    "duration": 0.20804449999999974
                },
                {
                    "name": "A#5",
                    "midi": 82,
                    "time": 89.45913500000007,
                    "velocity": 0.3700787401574803,
                    "duration": 0.20804449999999974
                },
                {
                    "name": "D6",
                    "midi": 86,
                    "time": 89.45913500000007,
                    "velocity": 0.3700787401574803,
                    "duration": 0.20804449999999974
                },
                {
                    "name": "E5",
                    "midi": 76,
                    "time": 89.66717950000007,
                    "velocity": 0.2992125984251969,
                    "duration": 0.20804449999999974
                },
                {
                    "name": "A#5",
                    "midi": 82,
                    "time": 89.87522400000007,
                    "velocity": 0.3937007874015748,
                    "duration": 0.20804449999999974
                },
                {
                    "name": "D6",
                    "midi": 86,
                    "time": 89.87522400000007,
                    "velocity": 0.5433070866141733,
                    "duration": 0.4160889999999995
                },
                {
                    "name": "E5",
                    "midi": 76,
                    "time": 90.08326850000007,
                    "velocity": 0.2677165354330709,
                    "duration": 0.20804449999999974
                },
                {
                    "name": "A#5",
                    "midi": 82,
                    "time": 90.29131300000007,
                    "velocity": 0.3858267716535433,
                    "duration": 0.20804449999999974
                },
                {
                    "name": "D6",
                    "midi": 86,
                    "time": 90.29131300000007,
                    "velocity": 0.5275590551181102,
                    "duration": 0.4160889999999995
                },
                {
                    "name": "F5",
                    "midi": 77,
                    "time": 90.49935750000007,
                    "velocity": 0.2677165354330709,
                    "duration": 0.20804449999999974
                },
                {
                    "name": "A#5",
                    "midi": 82,
                    "time": 90.70740200000007,
                    "velocity": 0.4566929133858268,
                    "duration": 0.20804449999999974
                },
                {
                    "name": "D6",
                    "midi": 86,
                    "time": 90.70740200000007,
                    "velocity": 0.4566929133858268,
                    "duration": 0.20804449999999974
                },
                {
                    "name": "D5",
                    "midi": 74,
                    "time": 90.91544650000007,
                    "velocity": 0.29133858267716534,
                    "duration": 0.20804449999999974
                },
                {
                    "name": "A#5",
                    "midi": 82,
                    "time": 91.12349100000007,
                    "velocity": 0.44881889763779526,
                    "duration": 0.20804449999999974
                },
                {
                    "name": "D6",
                    "midi": 86,
                    "time": 91.12349100000007,
                    "velocity": 0.44881889763779526,
                    "duration": 0.20804449999999974
                },
                {
                    "name": "D5",
                    "midi": 74,
                    "time": 91.33153550000007,
                    "velocity": 0.29133858267716534,
                    "duration": 0.20804449999999974
                },
                {
                    "name": "A#5",
                    "midi": 82,
                    "time": 91.53958000000007,
                    "velocity": 0.4015748031496063,
                    "duration": 0.20804449999999974
                },
                {
                    "name": "D6",
                    "midi": 86,
                    "time": 91.53958000000007,
                    "velocity": 0.4015748031496063,
                    "duration": 0.20804449999999974
                },
                {
                    "name": "C5",
                    "midi": 72,
                    "time": 91.74762450000007,
                    "velocity": 0.2755905511811024,
                    "duration": 0.20804449999999974
                },
                {
                    "name": "A#5",
                    "midi": 82,
                    "time": 91.95566900000007,
                    "velocity": 0.3779527559055118,
                    "duration": 0.20804449999999974
                },
                {
                    "name": "D6",
                    "midi": 86,
                    "time": 91.95566900000007,
                    "velocity": 0.3779527559055118,
                    "duration": 0.20804449999999974
                },
                {
                    "name": "D5",
                    "midi": 74,
                    "time": 92.16371350000007,
                    "velocity": 0.25984251968503935,
                    "duration": 0.1733704166666712
                },
                {
                    "name": "B5",
                    "midi": 83,
                    "time": 92.37175800000007,
                    "velocity": 0.3464566929133858,
                    "duration": 0.20804449999999974
                },
                {
                    "name": "E6",
                    "midi": 88,
                    "time": 92.37175800000007,
                    "velocity": 0.3464566929133858,
                    "duration": 0.20804449999999974
                },
                {
                    "name": "E5",
                    "midi": 76,
                    "time": 92.57980250000007,
                    "velocity": 0.2992125984251969,
                    "duration": 0.20804449999999974
                },
                {
                    "name": "B4",
                    "midi": 71,
                    "time": 92.78784700000007,
                    "velocity": 0.2992125984251969,
                    "duration": 0.20804449999999974
                },
                {
                    "name": "E5",
                    "midi": 76,
                    "time": 92.78784700000007,
                    "velocity": 0.2992125984251969,
                    "duration": 0.20804449999999974
                },
                {
                    "name": "E4",
                    "midi": 64,
                    "time": 92.99589150000007,
                    "velocity": 0.2992125984251969,
                    "duration": 0.20804449999999974
                },
                {
                    "name": "E5",
                    "midi": 76,
                    "time": 93.20393600000007,
                    "velocity": 0.3543307086614173,
                    "duration": 0.20804449999999974
                },
                {
                    "name": "A4",
                    "midi": 69,
                    "time": 93.20393600000007,
                    "velocity": 0.3543307086614173,
                    "duration": 0.20804449999999974
                },
                {
                    "name": "E4",
                    "midi": 64,
                    "time": 93.41198050000007,
                    "velocity": 0.33070866141732286,
                    "duration": 0.20804449999999974
                },
                {
                    "name": "A3",
                    "midi": 57,
                    "time": 93.62002500000007,
                    "velocity": 0.3543307086614173,
                    "duration": 0.20804449999999974
                },
                {
                    "name": "E4",
                    "midi": 64,
                    "time": 93.62002500000007,
                    "velocity": 0.3543307086614173,
                    "duration": 0.20804449999999974
                },
                {
                    "name": "E3",
                    "midi": 52,
                    "time": 93.82806950000007,
                    "velocity": 0.33070866141732286,
                    "duration": 0.20804449999999974
                },
                {
                    "name": "B3",
                    "midi": 59,
                    "time": 94.03611400000007,
                    "velocity": 0.3700787401574803,
                    "duration": 0.20804449999999974
                },
                {
                    "name": "E4",
                    "midi": 64,
                    "time": 94.03611400000007,
                    "velocity": 0.3700787401574803,
                    "duration": 0.20804449999999974
                },
                {
                    "name": "E3",
                    "midi": 52,
                    "time": 94.24415850000007,
                    "velocity": 0.3543307086614173,
                    "duration": 0.20804449999999974
                },
                {
                    "name": "B3",
                    "midi": 59,
                    "time": 94.45220300000007,
                    "velocity": 0.3779527559055118,
                    "duration": 0.20804449999999974
                },
                {
                    "name": "E4",
                    "midi": 64,
                    "time": 94.45220300000007,
                    "velocity": 0.3779527559055118,
                    "duration": 0.20804449999999974
                },
                {
                    "name": "E3",
                    "midi": 52,
                    "time": 94.66024750000007,
                    "velocity": 0.36220472440944884,
                    "duration": 0.20804449999999974
                },
                {
                    "name": "C4",
                    "midi": 60,
                    "time": 94.86829200000007,
                    "velocity": 0.3937007874015748,
                    "duration": 0.20804449999999974
                },
                {
                    "name": "E4",
                    "midi": 64,
                    "time": 94.86829200000007,
                    "velocity": 0.3937007874015748,
                    "duration": 0.20804449999999974
                },
                {
                    "name": "E3",
                    "midi": 52,
                    "time": 95.07633650000007,
                    "velocity": 0.3700787401574803,
                    "duration": 0.20804449999999974
                },
                {
                    "name": "C4",
                    "midi": 60,
                    "time": 95.28438100000007,
                    "velocity": 0.3937007874015748,
                    "duration": 0.20804449999999974
                },
                {
                    "name": "E4",
                    "midi": 64,
                    "time": 95.28438100000007,
                    "velocity": 0.3937007874015748,
                    "duration": 0.20804449999999974
                },
                {
                    "name": "E3",
                    "midi": 52,
                    "time": 95.49242550000007,
                    "velocity": 0.3779527559055118,
                    "duration": 0.20804449999999974
                },
                {
                    "name": "E4",
                    "midi": 64,
                    "time": 95.70047000000007,
                    "velocity": 0.3858267716535433,
                    "duration": 0.20804449999999974
                },
                {
                    "name": "D4",
                    "midi": 62,
                    "time": 95.70047000000007,
                    "velocity": 0.3858267716535433,
                    "duration": 0.20804449999999974
                },
                {
                    "name": "E3",
                    "midi": 52,
                    "time": 95.90851450000007,
                    "velocity": 0.3700787401574803,
                    "duration": 0.20804449999999974
                },
                {
                    "name": "C4",
                    "midi": 60,
                    "time": 96.11655900000007,
                    "velocity": 0.3858267716535433,
                    "duration": 0.20804449999999974
                },
                {
                    "name": "E4",
                    "midi": 64,
                    "time": 96.11655900000007,
                    "velocity": 0.3858267716535433,
                    "duration": 0.20804449999999974
                },
                {
                    "name": "E3",
                    "midi": 52,
                    "time": 96.32460350000007,
                    "velocity": 0.3700787401574803,
                    "duration": 0.20804449999999974
                },
                {
                    "name": "B3",
                    "midi": 59,
                    "time": 96.53264800000007,
                    "velocity": 0.3228346456692913,
                    "duration": 0.832177999999999
                },
                {
                    "name": "D4",
                    "midi": 62,
                    "time": 96.53264800000007,
                    "velocity": 0.3228346456692913,
                    "duration": 0.832177999999999
                },
                {
                    "name": "F4",
                    "midi": 65,
                    "time": 96.53264800000007,
                    "velocity": 0.3228346456692913,
                    "duration": 0.4160889999999995
                },
                {
                    "name": "A4",
                    "midi": 69,
                    "time": 96.94873700000007,
                    "velocity": 0.30708661417322836,
                    "duration": 0.4160889999999995
                },
                {
                    "name": "B5",
                    "midi": 83,
                    "time": 97.36482600000006,
                    "velocity": 0.3464566929133858,
                    "duration": 0.20804449999999974
                },
                {
                    "name": "E6",
                    "midi": 88,
                    "time": 97.36482600000006,
                    "velocity": 0.3464566929133858,
                    "duration": 0.20804449999999974
                },
                {
                    "name": "E5",
                    "midi": 76,
                    "time": 97.57287050000006,
                    "velocity": 0.2992125984251969,
                    "duration": 0.20804449999999974
                },
                {
                    "name": "B4",
                    "midi": 71,
                    "time": 97.78091500000006,
                    "velocity": 0.2992125984251969,
                    "duration": 0.20804449999999974
                },
                {
                    "name": "E5",
                    "midi": 76,
                    "time": 97.78091500000006,
                    "velocity": 0.2992125984251969,
                    "duration": 0.20804449999999974
                },
                {
                    "name": "E4",
                    "midi": 64,
                    "time": 97.98895950000006,
                    "velocity": 0.2992125984251969,
                    "duration": 0.20804449999999974
                },
                {
                    "name": "A4",
                    "midi": 69,
                    "time": 98.19700400000006,
                    "velocity": 0.3543307086614173,
                    "duration": 0.20804449999999974
                },
                {
                    "name": "E5",
                    "midi": 76,
                    "time": 98.19700400000006,
                    "velocity": 0.3543307086614173,
                    "duration": 0.20804449999999974
                },
                {
                    "name": "E4",
                    "midi": 64,
                    "time": 98.40504850000006,
                    "velocity": 0.33070866141732286,
                    "duration": 0.20804449999999974
                },
                {
                    "name": "E4",
                    "midi": 64,
                    "time": 98.61309300000006,
                    "velocity": 0.3543307086614173,
                    "duration": 0.20804449999999974
                },
                {
                    "name": "A3",
                    "midi": 57,
                    "time": 98.61309300000006,
                    "velocity": 0.3543307086614173,
                    "duration": 0.20804449999999974
                },
                {
                    "name": "E3",
                    "midi": 52,
                    "time": 98.82113750000006,
                    "velocity": 0.33070866141732286,
                    "duration": 0.20804449999999974
                },
                {
                    "name": "B3",
                    "midi": 59,
                    "time": 99.02918200000006,
                    "velocity": 0.36220472440944884,
                    "duration": 0.20804449999999974
                },
                {
                    "name": "E4",
                    "midi": 64,
                    "time": 99.02918200000006,
                    "velocity": 0.36220472440944884,
                    "duration": 0.20804449999999974
                },
                {
                    "name": "E3",
                    "midi": 52,
                    "time": 99.23722650000006,
                    "velocity": 0.33858267716535434,
                    "duration": 0.20804449999999974
                },
                {
                    "name": "B3",
                    "midi": 59,
                    "time": 99.44527100000006,
                    "velocity": 0.36220472440944884,
                    "duration": 0.20804449999999974
                },
                {
                    "name": "E4",
                    "midi": 64,
                    "time": 99.44527100000006,
                    "velocity": 0.36220472440944884,
                    "duration": 0.20804449999999974
                },
                {
                    "name": "E3",
                    "midi": 52,
                    "time": 99.65331550000006,
                    "velocity": 0.33858267716535434,
                    "duration": 0.20804449999999974
                },
                {
                    "name": "C4",
                    "midi": 60,
                    "time": 99.86136000000006,
                    "velocity": 0.3543307086614173,
                    "duration": 0.20804449999999974
                },
                {
                    "name": "E4",
                    "midi": 64,
                    "time": 99.86136000000006,
                    "velocity": 0.3543307086614173,
                    "duration": 0.20804449999999974
                },
                {
                    "name": "E3",
                    "midi": 52,
                    "time": 100.06940450000006,
                    "velocity": 0.3228346456692913,
                    "duration": 0.20804449999999974
                },
                {
                    "name": "C4",
                    "midi": 60,
                    "time": 100.27744900000006,
                    "velocity": 0.3464566929133858,
                    "duration": 0.20804449999999974
                },
                {
                    "name": "E4",
                    "midi": 64,
                    "time": 100.27744900000006,
                    "velocity": 0.3464566929133858,
                    "duration": 0.20804449999999974
                },
                {
                    "name": "E3",
                    "midi": 52,
                    "time": 100.48549350000006,
                    "velocity": 0.3228346456692913,
                    "duration": 0.20804449999999974
                },
                {
                    "name": "D4",
                    "midi": 62,
                    "time": 100.69353800000006,
                    "velocity": 0.3228346456692913,
                    "duration": 0.20804449999999974
                },
                {
                    "name": "E4",
                    "midi": 64,
                    "time": 100.69353800000006,
                    "velocity": 0.3228346456692913,
                    "duration": 0.20804449999999974
                },
                {
                    "name": "E3",
                    "midi": 52,
                    "time": 100.90158250000006,
                    "velocity": 0.30708661417322836,
                    "duration": 0.20804449999999974
                },
                {
                    "name": "E4",
                    "midi": 64,
                    "time": 101.10962700000006,
                    "velocity": 0.31496062992125984,
                    "duration": 0.20804449999999974
                },
                {
                    "name": "D4",
                    "midi": 62,
                    "time": 101.10962700000006,
                    "velocity": 0.31496062992125984,
                    "duration": 0.20804449999999974
                },
                {
                    "name": "E3",
                    "midi": 52,
                    "time": 101.31767150000006,
                    "velocity": 0.2992125984251969,
                    "duration": 0.20804449999999974
                },
                {
                    "name": "E4",
                    "midi": 64,
                    "time": 101.52571600000006,
                    "velocity": 0.30708661417322836,
                    "duration": 0.20804449999999974
                },
                {
                    "name": "E3",
                    "midi": 52,
                    "time": 101.73376050000006,
                    "velocity": 0.2677165354330709,
                    "duration": 0.20804449999999974
                },
                {
                    "name": "E4",
                    "midi": 64,
                    "time": 101.94180500000006,
                    "velocity": 0.28346456692913385,
                    "duration": 0.20804449999999974
                },
                {
                    "name": "E3",
                    "midi": 52,
                    "time": 102.14984950000006,
                    "velocity": 0.25196850393700787,
                    "duration": 0.20804449999999974
                },
                {
                    "name": "A4",
                    "midi": 69,
                    "time": 102.35789400000006,
                    "velocity": 0.3464566929133858,
                    "duration": 0.05201112500000704
                },
                {
                    "name": "C4",
                    "midi": 60,
                    "time": 102.36482881666673,
                    "velocity": 0.29133858267716534,
                    "duration": 0.05201112500000704
                },
                {
                    "name": "E4",
                    "midi": 64,
                    "time": 102.36482881666673,
                    "velocity": 0.29133858267716534,
                    "duration": 0.05201112500000704
                },
                {
                    "name": "B4",
                    "midi": 71,
                    "time": 102.56593850000007,
                    "velocity": 0.33070866141732286,
                    "duration": 0.05201112500000704
                },
                {
                    "name": "C5",
                    "midi": 72,
                    "time": 102.77398300000009,
                    "velocity": 0.3464566929133858,
                    "duration": 0.05201112500000704
                },
                {
                    "name": "D5",
                    "midi": 74,
                    "time": 102.9820275000001,
                    "velocity": 0.33858267716535434,
                    "duration": 0.05201112500000704
                },
                {
                    "name": "B4",
                    "midi": 71,
                    "time": 103.19007200000011,
                    "velocity": 0.3464566929133858,
                    "duration": 0.1733704166666712
                },
                {
                    "name": "B4",
                    "midi": 71,
                    "time": 103.39811650000011,
                    "velocity": 0.30708661417322836,
                    "duration": 0.10402224999999987
                },
                {
                    "name": "C5",
                    "midi": 72,
                    "time": 103.50213875000011,
                    "velocity": 0.30708661417322836,
                    "duration": 0.10402224999999987
                },
                {
                    "name": "B4",
                    "midi": 71,
                    "time": 103.60616100000011,
                    "velocity": 0.3464566929133858,
                    "duration": 0.20804449999999974
                },
                {
                    "name": "A4",
                    "midi": 69,
                    "time": 103.81420550000011,
                    "velocity": 0.3464566929133858,
                    "duration": 0.1560333750000069
                },
                {
                    "name": "C4",
                    "midi": 60,
                    "time": 104.02225000000013,
                    "velocity": 0.2677165354330709,
                    "duration": 0.1560333749999927
                },
                {
                    "name": "E4",
                    "midi": 64,
                    "time": 104.02225000000013,
                    "velocity": 0.2677165354330709,
                    "duration": 0.1560333749999927
                },
                {
                    "name": "B4",
                    "midi": 71,
                    "time": 104.02225000000013,
                    "velocity": 0.3779527559055118,
                    "duration": 0.07801668749999635
                },
                {
                    "name": "C5",
                    "midi": 72,
                    "time": 104.43833900000013,
                    "velocity": 0.33858267716535434,
                    "duration": 0.1560333750000069
                },
                {
                    "name": "B4",
                    "midi": 71,
                    "time": 104.85442800000014,
                    "velocity": 0.3543307086614173,
                    "duration": 0.20804449999999974
                },
                {
                    "name": "E4",
                    "midi": 64,
                    "time": 104.85442800000014,
                    "velocity": 0.29133858267716534,
                    "duration": 0.4160889999999995
                },
                {
                    "name": "C4",
                    "midi": 60,
                    "time": 104.85442800000014,
                    "velocity": 0.29133858267716534,
                    "duration": 0.4160889999999995
                },
                {
                    "name": "C5",
                    "midi": 72,
                    "time": 105.06247250000014,
                    "velocity": 0.33858267716535434,
                    "duration": 0.20804449999999974
                },
                {
                    "name": "D5",
                    "midi": 74,
                    "time": 105.27051700000014,
                    "velocity": 0.3543307086614173,
                    "duration": 0.10402224999999987
                },
                {
                    "name": "E5",
                    "midi": 76,
                    "time": 105.47856150000014,
                    "velocity": 0.33858267716535434,
                    "duration": 0.10402224999999987
                },
                {
                    "name": "F#5",
                    "midi": 78,
                    "time": 105.68660600000014,
                    "velocity": 0.3543307086614173,
                    "duration": 0.10402224999999987
                },
                {
                    "name": "F#5",
                    "midi": 78,
                    "time": 105.89465050000014,
                    "velocity": 0.33858267716535434,
                    "duration": 0.06934816666667132
                },
                {
                    "name": "G5",
                    "midi": 79,
                    "time": 105.96399866666681,
                    "velocity": 0.3228346456692913,
                    "duration": 0.06934816666667132
                },
                {
                    "name": "F#5",
                    "midi": 78,
                    "time": 106.03334683333348,
                    "velocity": 0.3228346456692913,
                    "duration": 0.06934816666667132
                },
                {
                    "name": "E5",
                    "midi": 76,
                    "time": 106.10269500000015,
                    "velocity": 0.3543307086614173,
                    "duration": 0.20804449999999974
                },
                {
                    "name": "D5",
                    "midi": 74,
                    "time": 106.31073950000015,
                    "velocity": 0.33858267716535434,
                    "duration": 0.20804449999999974
                },
                {
                    "name": "C5",
                    "midi": 72,
                    "time": 106.51878400000015,
                    "velocity": 0.3543307086614173,
                    "duration": 0.20804449999999974
                },
                {
                    "name": "D5",
                    "midi": 74,
                    "time": 106.72682850000015,
                    "velocity": 0.3228346456692913,
                    "duration": 0.20804449999999974
                },
                {
                    "name": "E5",
                    "midi": 76,
                    "time": 106.93487300000015,
                    "velocity": 0.3228346456692913,
                    "duration": 0.4160889999999995
                },
                {
                    "name": "D5",
                    "midi": 74,
                    "time": 107.35096200000015,
                    "velocity": 0.29133858267716534,
                    "duration": 2.496534000000082
                },
                {
                    "name": "A5",
                    "midi": 81,
                    "time": 107.35096200000015,
                    "velocity": 0.3464566929133858,
                    "duration": 0.05201112500000704
                },
                {
                    "name": "B5",
                    "midi": 83,
                    "time": 107.55900650000017,
                    "velocity": 0.33070866141732286,
                    "duration": 0.05201112500000704
                },
                {
                    "name": "C6",
                    "midi": 84,
                    "time": 107.76705100000018,
                    "velocity": 0.3464566929133858,
                    "duration": 0.05201112500000704
                },
                {
                    "name": "D6",
                    "midi": 86,
                    "time": 107.9750955000002,
                    "velocity": 0.33858267716535434,
                    "duration": 0.05201112500000704
                },
                {
                    "name": "B5",
                    "midi": 83,
                    "time": 108.18314000000021,
                    "velocity": 0.3464566929133858,
                    "duration": 0.1733704166666712
                },
                {
                    "name": "B5",
                    "midi": 83,
                    "time": 108.39118450000021,
                    "velocity": 0.30708661417322836,
                    "duration": 0.10402224999999987
                },
                {
                    "name": "C6",
                    "midi": 84,
                    "time": 108.49520675000021,
                    "velocity": 0.30708661417322836,
                    "duration": 0.10402224999999987
                },
                {
                    "name": "B5",
                    "midi": 83,
                    "time": 108.59922900000021,
                    "velocity": 0.3464566929133858,
                    "duration": 0.20804449999999974
                },
                {
                    "name": "A5",
                    "midi": 81,
                    "time": 108.8072735000002,
                    "velocity": 0.3464566929133858,
                    "duration": 0.1560333750000069
                },
                {
                    "name": "B5",
                    "midi": 83,
                    "time": 109.01531800000022,
                    "velocity": 0.3779527559055118,
                    "duration": 0.07801668749999635
                },
                {
                    "name": "C6",
                    "midi": 84,
                    "time": 109.43140700000022,
                    "velocity": 0.33858267716535434,
                    "duration": 0.1560333750000069
                },
                {
                    "name": "D5",
                    "midi": 74,
                    "time": 109.84749600000023,
                    "velocity": 0.29133858267716534,
                    "duration": 2.496534000000011
                },
                {
                    "name": "B5",
                    "midi": 83,
                    "time": 109.84749600000023,
                    "velocity": 0.3543307086614173,
                    "duration": 0.20804449999999974
                },
                {
                    "name": "C6",
                    "midi": 84,
                    "time": 110.05554050000023,
                    "velocity": 0.33858267716535434,
                    "duration": 0.20804449999999974
                },
                {
                    "name": "D6",
                    "midi": 86,
                    "time": 110.26358500000023,
                    "velocity": 0.3543307086614173,
                    "duration": 0.10402224999999987
                },
                {
                    "name": "E6",
                    "midi": 88,
                    "time": 110.47162950000023,
                    "velocity": 0.33858267716535434,
                    "duration": 0.10402224999999987
                },
                {
                    "name": "F#6",
                    "midi": 90,
                    "time": 110.67967400000023,
                    "velocity": 0.3543307086614173,
                    "duration": 0.10402224999999987
                },
                {
                    "name": "F#6",
                    "midi": 90,
                    "time": 110.88771850000023,
                    "velocity": 0.33858267716535434,
                    "duration": 0.06934816666667132
                },
                {
                    "name": "G6",
                    "midi": 91,
                    "time": 110.9570666666669,
                    "velocity": 0.3228346456692913,
                    "duration": 0.06934816666667132
                },
                {
                    "name": "F#6",
                    "midi": 90,
                    "time": 111.02641483333358,
                    "velocity": 0.3228346456692913,
                    "duration": 0.06934816666667132
                },
                {
                    "name": "E6",
                    "midi": 88,
                    "time": 111.09576300000025,
                    "velocity": 0.3543307086614173,
                    "duration": 0.20804449999999974
                },
                {
                    "name": "D6",
                    "midi": 86,
                    "time": 111.30380750000025,
                    "velocity": 0.33858267716535434,
                    "duration": 0.20804449999999974
                },
                {
                    "name": "C6",
                    "midi": 84,
                    "time": 111.51185200000025,
                    "velocity": 0.3543307086614173,
                    "duration": 0.20804449999999974
                },
                {
                    "name": "D6",
                    "midi": 86,
                    "time": 111.71989650000025,
                    "velocity": 0.3228346456692913,
                    "duration": 0.20804449999999974
                },
                {
                    "name": "E6",
                    "midi": 88,
                    "time": 111.92794100000025,
                    "velocity": 0.3228346456692913,
                    "duration": 0.6241334999999992
                },
                {
                    "name": "D5",
                    "midi": 74,
                    "time": 112.34403000000025,
                    "velocity": 0.23622047244094488,
                    "duration": 0.832177999999999
                },
                {
                    "name": "G5",
                    "midi": 79,
                    "time": 112.34403000000025,
                    "velocity": 0.23622047244094488,
                    "duration": 0.832177999999999
                },
                {
                    "name": "B5",
                    "midi": 83,
                    "time": 112.34403000000025,
                    "velocity": 0.23622047244094488,
                    "duration": 0.5201112499999994
                },
                {
                    "name": "D6",
                    "midi": 86,
                    "time": 112.55207450000024,
                    "velocity": 0.33070866141732286,
                    "duration": 0.10402224999999987
                },
                {
                    "name": "B5",
                    "midi": 83,
                    "time": 112.76011900000024,
                    "velocity": 0.3228346456692913,
                    "duration": 0.4160889999999995
                },
                {
                    "name": "A5",
                    "midi": 81,
                    "time": 112.96816350000024,
                    "velocity": 0.3228346456692913,
                    "duration": 0.10402224999999987
                },
                {
                    "name": "B5",
                    "midi": 83,
                    "time": 113.17620800000024,
                    "velocity": 0.3464566929133858,
                    "duration": 0.10402224999999987
                },
                {
                    "name": "G5",
                    "midi": 79,
                    "time": 113.38425250000024,
                    "velocity": 0.3228346456692913,
                    "duration": 0.10402224999999987
                },
                {
                    "name": "E5",
                    "midi": 76,
                    "time": 113.59229700000024,
                    "velocity": 0.3228346456692913,
                    "duration": 0.10402224999999987
                },
                {
                    "name": "D5",
                    "midi": 74,
                    "time": 113.80034150000024,
                    "velocity": 0.3228346456692913,
                    "duration": 0.10402224999999987
                },
                {
                    "name": "C5",
                    "midi": 72,
                    "time": 114.00838600000024,
                    "velocity": 0.36220472440944884,
                    "duration": 0.4160889999999995
                },
                {
                    "name": "G4",
                    "midi": 67,
                    "time": 114.00838600000024,
                    "velocity": 0.2440944881889764,
                    "duration": 0.832177999999999
                },
                {
                    "name": "E5",
                    "midi": 76,
                    "time": 114.00838600000024,
                    "velocity": 0.2440944881889764,
                    "duration": 1.0402224999999987
                },
                {
                    "name": "A4",
                    "midi": 69,
                    "time": 114.42447500000024,
                    "velocity": 0.2992125984251969,
                    "duration": 0.4160889999999995
                },
                {
                    "name": "B4",
                    "midi": 71,
                    "time": 114.84056400000024,
                    "velocity": 0.23622047244094488,
                    "duration": 0.5201112499999994
                },
                {
                    "name": "G4",
                    "midi": 67,
                    "time": 114.84056400000024,
                    "velocity": 0.23622047244094488,
                    "duration": 0.832177999999999
                },
                {
                    "name": "D4",
                    "midi": 62,
                    "time": 114.84056400000024,
                    "velocity": 0.23622047244094488,
                    "duration": 0.832177999999999
                },
                {
                    "name": "D5",
                    "midi": 74,
                    "time": 115.04860850000024,
                    "velocity": 0.33070866141732286,
                    "duration": 0.10402224999999987
                },
                {
                    "name": "B4",
                    "midi": 71,
                    "time": 115.25665300000024,
                    "velocity": 0.3228346456692913,
                    "duration": 0.4160889999999995
                },
                {
                    "name": "A4",
                    "midi": 69,
                    "time": 115.46469750000024,
                    "velocity": 0.3228346456692913,
                    "duration": 0.10402224999999987
                },
                {
                    "name": "B4",
                    "midi": 71,
                    "time": 115.67274200000024,
                    "velocity": 0.3464566929133858,
                    "duration": 0.10402224999999987
                },
                {
                    "name": "G4",
                    "midi": 67,
                    "time": 115.88078650000024,
                    "velocity": 0.3228346456692913,
                    "duration": 0.10402224999999987
                },
                {
                    "name": "E4",
                    "midi": 64,
                    "time": 116.08883100000024,
                    "velocity": 0.3228346456692913,
                    "duration": 0.10402224999999987
                },
                {
                    "name": "D4",
                    "midi": 62,
                    "time": 116.29687550000024,
                    "velocity": 0.3228346456692913,
                    "duration": 0.10402224999999987
                },
                {
                    "name": "E4",
                    "midi": 64,
                    "time": 116.50492000000024,
                    "velocity": 0.23622047244094488,
                    "duration": 1.0402224999999987
                },
                {
                    "name": "C4",
                    "midi": 60,
                    "time": 116.50492000000024,
                    "velocity": 0.3464566929133858,
                    "duration": 0.4160889999999995
                },
                {
                    "name": "A3",
                    "midi": 57,
                    "time": 116.92100900000024,
                    "velocity": 0.2992125984251969,
                    "duration": 0.4160889999999995
                },
                {
                    "name": "G3",
                    "midi": 55,
                    "time": 117.33709800000024,
                    "velocity": 0.2755905511811024,
                    "duration": 2.496534000000011
                },
                {
                    "name": "F#4",
                    "midi": 66,
                    "time": 117.54514250000024,
                    "velocity": 0.31496062992125984,
                    "duration": 0.20804449999999974
                },
                {
                    "name": "G4",
                    "midi": 67,
                    "time": 117.75318700000024,
                    "velocity": 0.31496062992125984,
                    "duration": 0.10402224999999987
                },
                {
                    "name": "A4",
                    "midi": 69,
                    "time": 117.96123150000024,
                    "velocity": 0.31496062992125984,
                    "duration": 0.10402224999999987
                },
                {
                    "name": "E4",
                    "midi": 64,
                    "time": 118.16927600000024,
                    "velocity": 0.33858267716535434,
                    "duration": 0.1733704166666712
                },
                {
                    "name": "E4",
                    "midi": 64,
                    "time": 118.37732050000024,
                    "velocity": 0.30708661417322836,
                    "duration": 0.10402224999999987
                },
                {
                    "name": "F#4",
                    "midi": 66,
                    "time": 118.48134275000024,
                    "velocity": 0.30708661417322836,
                    "duration": 0.10402224999999987
                },
                {
                    "name": "E4",
                    "midi": 64,
                    "time": 118.58536500000024,
                    "velocity": 0.33858267716535434,
                    "duration": 0.20804449999999974
                },
                {
                    "name": "D4",
                    "midi": 62,
                    "time": 118.79340950000024,
                    "velocity": 0.30708661417322836,
                    "duration": 0.1560333750000069
                },
                {
                    "name": "E4",
                    "midi": 64,
                    "time": 119.00145400000025,
                    "velocity": 0.3464566929133858,
                    "duration": 0.1300278125000034
                },
                {
                    "name": "G4",
                    "midi": 67,
                    "time": 119.41754300000025,
                    "velocity": 0.3464566929133858,
                    "duration": 0.1300278125000034
                },
                {
                    "name": "B4",
                    "midi": 71,
                    "time": 119.83363200000025,
                    "velocity": 0.3464566929133858,
                    "duration": 0.1300278125000034
                },
                {
                    "name": "D4",
                    "midi": 62,
                    "time": 119.83363200000025,
                    "velocity": 0.3464566929133858,
                    "duration": 0.1300278125000034
                },
                {
                    "name": "G4",
                    "midi": 67,
                    "time": 119.83363200000025,
                    "velocity": 0.3464566929133858,
                    "duration": 0.1300278125000034
                },
                {
                    "name": "C4",
                    "midi": 60,
                    "time": 120.24972100000025,
                    "velocity": 0.3228346456692913,
                    "duration": 0.1300278125000034
                },
                {
                    "name": "E4",
                    "midi": 64,
                    "time": 120.24972100000025,
                    "velocity": 0.3228346456692913,
                    "duration": 0.1300278125000034
                },
                {
                    "name": "A4",
                    "midi": 69,
                    "time": 120.24972100000025,
                    "velocity": 0.3228346456692913,
                    "duration": 0.1300278125000034
                },
                {
                    "name": "A4",
                    "midi": 69,
                    "time": 122.33016600000025,
                    "velocity": 0.6062992125984252,
                    "duration": 0.832177999999999
                },
                {
                    "name": "A5",
                    "midi": 81,
                    "time": 122.33016600000025,
                    "velocity": 0.6062992125984252,
                    "duration": 0.20804449999999974
                },
                {
                    "name": "G5",
                    "midi": 79,
                    "time": 122.53821050000025,
                    "velocity": 0.5511811023622047,
                    "duration": 0.10402224999999987
                },
                {
                    "name": "F5",
                    "midi": 77,
                    "time": 122.64223275000025,
                    "velocity": 0.5511811023622047,
                    "duration": 0.10402224999999987
                },
                {
                    "name": "E5",
                    "midi": 76,
                    "time": 122.74625500000025,
                    "velocity": 0.5511811023622047,
                    "duration": 0.10402224999999987
                },
                {
                    "name": "D5",
                    "midi": 74,
                    "time": 122.85027725000025,
                    "velocity": 0.5511811023622047,
                    "duration": 0.10402224999999987
                },
                {
                    "name": "C5",
                    "midi": 72,
                    "time": 122.95429950000025,
                    "velocity": 0.5511811023622047,
                    "duration": 0.10402224999999987
                },
                {
                    "name": "B4",
                    "midi": 71,
                    "time": 123.05832175000025,
                    "velocity": 0.5511811023622047,
                    "duration": 0.10402224999999987
                },
                {
                    "name": "A4",
                    "midi": 69,
                    "time": 123.16234400000025,
                    "velocity": 0.6062992125984252,
                    "duration": 1.057559541666663
                },
                {
                    "name": "C5",
                    "midi": 72,
                    "time": 124.20256650000024,
                    "velocity": 0.5118110236220472,
                    "duration": 0.1733704166666712
                },
                {
                    "name": "B4",
                    "midi": 71,
                    "time": 124.41061100000024,
                    "velocity": 0.5354330708661418,
                    "duration": 0.22538154166666402
                },
                {
                    "name": "D5",
                    "midi": 74,
                    "time": 124.61865550000024,
                    "velocity": 0.5118110236220472,
                    "duration": 0.1733704166666712
                },
                {
                    "name": "F4",
                    "midi": 65,
                    "time": 124.82670000000024,
                    "velocity": 0.4566929133858268,
                    "duration": 1.664355999999998
                },
                {
                    "name": "C5",
                    "midi": 72,
                    "time": 124.82670000000024,
                    "velocity": 0.5354330708661418,
                    "duration": 0.22538154166666402
                },
                {
                    "name": "E5",
                    "midi": 76,
                    "time": 125.03474450000024,
                    "velocity": 0.5118110236220472,
                    "duration": 0.1733704166666712
                },
                {
                    "name": "D5",
                    "midi": 74,
                    "time": 125.24278900000024,
                    "velocity": 0.5275590551181102,
                    "duration": 0.22538154166666402
                },
                {
                    "name": "F5",
                    "midi": 77,
                    "time": 125.45083350000024,
                    "velocity": 0.5354330708661418,
                    "duration": 0.1733704166666712
                },
                {
                    "name": "E5",
                    "midi": 76,
                    "time": 125.65887800000024,
                    "velocity": 0.5590551181102362,
                    "duration": 0.22538154166666402
                },
                {
                    "name": "C5",
                    "midi": 72,
                    "time": 125.86692250000024,
                    "velocity": 0.48031496062992124,
                    "duration": 0.22538154166666402
                },
                {
                    "name": "B4",
                    "midi": 71,
                    "time": 126.07496700000024,
                    "velocity": 0.4645669291338583,
                    "duration": 0.22538154166666402
                },
                {
                    "name": "G4",
                    "midi": 67,
                    "time": 126.28301150000024,
                    "velocity": 0.4330708661417323,
                    "duration": 0.20804449999999974
                },
                {
                    "name": "F4",
                    "midi": 65,
                    "time": 126.49105600000024,
                    "velocity": 0.4330708661417323,
                    "duration": 0.4160889999999995
                },
                {
                    "name": "D4",
                    "midi": 62,
                    "time": 126.49105600000024,
                    "velocity": 0.4330708661417323,
                    "duration": 0.4160889999999995
                },
                {
                    "name": "E4",
                    "midi": 64,
                    "time": 126.90714500000024,
                    "velocity": 0.4330708661417323,
                    "duration": 0.36407787500000666
                },
                {
                    "name": "G4",
                    "midi": 67,
                    "time": 126.90714500000024,
                    "velocity": 0.4330708661417323,
                    "duration": 0.36407787500000666
                },
                {
                    "name": "A4",
                    "midi": 69,
                    "time": 127.32323400000026,
                    "velocity": 0.6062992125984252,
                    "duration": 0.8321780000000132
                },
                {
                    "name": "A5",
                    "midi": 81,
                    "time": 127.32323400000026,
                    "velocity": 0.6062992125984252,
                    "duration": 0.20804449999999974
                },
                {
                    "name": "G5",
                    "midi": 79,
                    "time": 127.53127850000025,
                    "velocity": 0.5511811023622047,
                    "duration": 0.10402224999999987
                },
                {
                    "name": "F5",
                    "midi": 77,
                    "time": 127.63530075000025,
                    "velocity": 0.5511811023622047,
                    "duration": 0.10402224999999987
                },
                {
                    "name": "E5",
                    "midi": 76,
                    "time": 127.73932300000025,
                    "velocity": 0.5511811023622047,
                    "duration": 0.10402224999999987
                },
                {
                    "name": "D5",
                    "midi": 74,
                    "time": 127.84334525000025,
                    "velocity": 0.5511811023622047,
                    "duration": 0.10402224999999987
                },
                {
                    "name": "C5",
                    "midi": 72,
                    "time": 127.94736750000025,
                    "velocity": 0.5511811023622047,
                    "duration": 0.10402224999999987
                },
                {
                    "name": "B4",
                    "midi": 71,
                    "time": 128.05138975000025,
                    "velocity": 0.5511811023622047,
                    "duration": 0.10402225000001408
                },
                {
                    "name": "A4",
                    "midi": 69,
                    "time": 128.15541200000027,
                    "velocity": 0.6062992125984252,
                    "duration": 1.0575595416666772
                },
                {
                    "name": "C5",
                    "midi": 72,
                    "time": 129.19563450000027,
                    "velocity": 0.5118110236220472,
                    "duration": 0.1733704166666712
                },
                {
                    "name": "B4",
                    "midi": 71,
                    "time": 129.40367900000027,
                    "velocity": 0.5354330708661418,
                    "duration": 0.22538154166667823
                },
                {
                    "name": "D5",
                    "midi": 74,
                    "time": 129.61172350000027,
                    "velocity": 0.5118110236220472,
                    "duration": 0.1733704166666712
                },
                {
                    "name": "F4",
                    "midi": 65,
                    "time": 129.81976800000027,
                    "velocity": 0.4566929133858268,
                    "duration": 1.664355999999998
                },
                {
                    "name": "C5",
                    "midi": 72,
                    "time": 129.81976800000027,
                    "velocity": 0.5354330708661418,
                    "duration": 0.22538154166667823
                },
                {
                    "name": "E5",
                    "midi": 76,
                    "time": 130.02781250000027,
                    "velocity": 0.5118110236220472,
                    "duration": 0.1733704166666712
                },
                {
                    "name": "D5",
                    "midi": 74,
                    "time": 130.23585700000027,
                    "velocity": 0.5275590551181102,
                    "duration": 0.22538154166667823
                },
                {
                    "name": "F5",
                    "midi": 77,
                    "time": 130.44390150000027,
                    "velocity": 0.5354330708661418,
                    "duration": 0.1733704166666712
                },
                {
                    "name": "E5",
                    "midi": 76,
                    "time": 130.65194600000027,
                    "velocity": 0.5590551181102362,
                    "duration": 0.22538154166667823
                },
                {
                    "name": "C5",
                    "midi": 72,
                    "time": 130.85999050000027,
                    "velocity": 0.4645669291338583,
                    "duration": 0.22538154166667823
                },
                {
                    "name": "B4",
                    "midi": 71,
                    "time": 131.06803500000026,
                    "velocity": 0.4645669291338583,
                    "duration": 0.22538154166667823
                },
                {
                    "name": "G4",
                    "midi": 67,
                    "time": 131.27607950000026,
                    "velocity": 0.44881889763779526,
                    "duration": 0.20804449999999974
                },
                {
                    "name": "F4",
                    "midi": 65,
                    "time": 131.48412400000026,
                    "velocity": 0.4330708661417323,
                    "duration": 0.4160889999999995
                },
                {
                    "name": "D4",
                    "midi": 62,
                    "time": 131.48412400000026,
                    "velocity": 0.4330708661417323,
                    "duration": 0.4160889999999995
                },
                {
                    "name": "A4",
                    "midi": 69,
                    "time": 131.90021300000026,
                    "velocity": 0.4330708661417323,
                    "duration": 0.36407787499999245
                },
                {
                    "name": "F4",
                    "midi": 65,
                    "time": 131.90021300000026,
                    "velocity": 0.4330708661417323,
                    "duration": 0.36407787499999245
                },
                {
                    "name": "G4",
                    "midi": 67,
                    "time": 132.31630200000026,
                    "velocity": 0.6062992125984252,
                    "duration": 0.8321780000000842
                },
                {
                    "name": "G5",
                    "midi": 79,
                    "time": 132.31630200000026,
                    "velocity": 0.6220472440944882,
                    "duration": 0.20804449999999974
                },
                {
                    "name": "F5",
                    "midi": 77,
                    "time": 132.52434650000026,
                    "velocity": 0.5511811023622047,
                    "duration": 0.10402225000001408
                },
                {
                    "name": "D#5",
                    "midi": 75,
                    "time": 132.62836875000028,
                    "velocity": 0.5511811023622047,
                    "duration": 0.10402225000001408
                },
                {
                    "name": "D5",
                    "midi": 74,
                    "time": 132.7323910000003,
                    "velocity": 0.5511811023622047,
                    "duration": 0.10402225000001408
                },
                {
                    "name": "C5",
                    "midi": 72,
                    "time": 132.8364132500003,
                    "velocity": 0.5511811023622047,
                    "duration": 0.10402225000001408
                },
                {
                    "name": "A#4",
                    "midi": 70,
                    "time": 132.94043550000032,
                    "velocity": 0.5511811023622047,
                    "duration": 0.10402225000001408
                },
                {
                    "name": "A4",
                    "midi": 69,
                    "time": 133.04445775000033,
                    "velocity": 0.5511811023622047,
                    "duration": 0.10402225000001408
                },
                {
                    "name": "G4",
                    "midi": 67,
                    "time": 133.14848000000035,
                    "velocity": 0.6062992125984252,
                    "duration": 1.0575595416666772
                },
                {
                    "name": "A#4",
                    "midi": 70,
                    "time": 134.18870250000035,
                    "velocity": 0.5118110236220472,
                    "duration": 0.1733704166666712
                },
                {
                    "name": "A4",
                    "midi": 69,
                    "time": 134.39674700000035,
                    "velocity": 0.5354330708661418,
                    "duration": 0.22538154166667823
                },
                {
                    "name": "C5",
                    "midi": 72,
                    "time": 134.60479150000035,
                    "velocity": 0.5118110236220472,
                    "duration": 0.1733704166666712
                },
                {
                    "name": "D#4",
                    "midi": 63,
                    "time": 134.81283600000035,
                    "velocity": 0.4566929133858268,
                    "duration": 1.664355999999998
                },
                {
                    "name": "A#4",
                    "midi": 70,
                    "time": 134.81283600000035,
                    "velocity": 0.5354330708661418,
                    "duration": 0.22538154166667823
                },
                {
                    "name": "D5",
                    "midi": 74,
                    "time": 135.02088050000035,
                    "velocity": 0.5118110236220472,
                    "duration": 0.1733704166666712
                },
                {
                    "name": "C5",
                    "midi": 72,
                    "time": 135.22892500000034,
                    "velocity": 0.5275590551181102,
                    "duration": 0.22538154166667823
                },
                {
                    "name": "D#5",
                    "midi": 75,
                    "time": 135.43696950000034,
                    "velocity": 0.5354330708661418,
                    "duration": 0.1733704166666712
                },
                {
                    "name": "D5",
                    "midi": 74,
                    "time": 135.64501400000034,
                    "velocity": 0.5590551181102362,
                    "duration": 0.22538154166667823
                },
                {
                    "name": "A#4",
                    "midi": 70,
                    "time": 135.85305850000034,
                    "velocity": 0.4566929133858268,
                    "duration": 0.22538154166667823
                },
                {
                    "name": "A4",
                    "midi": 69,
                    "time": 136.06110300000034,
                    "velocity": 0.4645669291338583,
                    "duration": 0.22538154166667823
                },
                {
                    "name": "F4",
                    "midi": 65,
                    "time": 136.26914750000034,
                    "velocity": 0.4330708661417323,
                    "duration": 0.20804449999999974
                },
                {
                    "name": "C4",
                    "midi": 60,
                    "time": 136.47719200000034,
                    "velocity": 0.4330708661417323,
                    "duration": 0.4160889999999995
                },
                {
                    "name": "D#4",
                    "midi": 63,
                    "time": 136.47719200000034,
                    "velocity": 0.4330708661417323,
                    "duration": 0.4160889999999995
                },
                {
                    "name": "F4",
                    "midi": 65,
                    "time": 136.89328100000034,
                    "velocity": 0.4330708661417323,
                    "duration": 0.36407787499999245
                },
                {
                    "name": "D4",
                    "midi": 62,
                    "time": 136.89328100000034,
                    "velocity": 0.4330708661417323,
                    "duration": 0.36407787499999245
                },
                {
                    "name": "G4",
                    "midi": 67,
                    "time": 137.30937000000034,
                    "velocity": 0.6062992125984252,
                    "duration": 0.8321780000000842
                },
                {
                    "name": "G5",
                    "midi": 79,
                    "time": 137.30937000000034,
                    "velocity": 0.6220472440944882,
                    "duration": 0.20804449999999974
                },
                {
                    "name": "F5",
                    "midi": 77,
                    "time": 137.51741450000034,
                    "velocity": 0.5511811023622047,
                    "duration": 0.10402225000001408
                },
                {
                    "name": "D#5",
                    "midi": 75,
                    "time": 137.62143675000036,
                    "velocity": 0.5511811023622047,
                    "duration": 0.10402225000001408
                },
                {
                    "name": "D5",
                    "midi": 74,
                    "time": 137.72545900000037,
                    "velocity": 0.5511811023622047,
                    "duration": 0.10402225000001408
                },
                {
                    "name": "C5",
                    "midi": 72,
                    "time": 137.82948125000038,
                    "velocity": 0.5511811023622047,
                    "duration": 0.10402225000001408
                },
                {
                    "name": "A#4",
                    "midi": 70,
                    "time": 137.9335035000004,
                    "velocity": 0.5511811023622047,
                    "duration": 0.10402225000001408
                },
                {
                    "name": "A4",
                    "midi": 69,
                    "time": 138.0375257500004,
                    "velocity": 0.5511811023622047,
                    "duration": 0.10402225000001408
                },
                {
                    "name": "G4",
                    "midi": 67,
                    "time": 138.14154800000043,
                    "velocity": 0.6062992125984252,
                    "duration": 1.0575595416666772
                },
                {
                    "name": "A#4",
                    "midi": 70,
                    "time": 139.18177050000043,
                    "velocity": 0.5118110236220472,
                    "duration": 0.1733704166666712
                },
                {
                    "name": "A4",
                    "midi": 69,
                    "time": 139.38981500000043,
                    "velocity": 0.5354330708661418,
                    "duration": 0.22538154166667823
                },
                {
                    "name": "C5",
                    "midi": 72,
                    "time": 139.59785950000042,
                    "velocity": 0.5118110236220472,
                    "duration": 0.1733704166666712
                },
                {
                    "name": "D#4",
                    "midi": 63,
                    "time": 139.80590400000042,
                    "velocity": 0.4566929133858268,
                    "duration": 1.664355999999998
                },
                {
                    "name": "A#4",
                    "midi": 70,
                    "time": 139.80590400000042,
                    "velocity": 0.5354330708661418,
                    "duration": 0.22538154166667823
                },
                {
                    "name": "D5",
                    "midi": 74,
                    "time": 140.01394850000042,
                    "velocity": 0.5118110236220472,
                    "duration": 0.1733704166666712
                },
                {
                    "name": "C5",
                    "midi": 72,
                    "time": 140.22199300000042,
                    "velocity": 0.5275590551181102,
                    "duration": 0.22538154166667823
                },
                {
                    "name": "D#5",
                    "midi": 75,
                    "time": 140.43003750000042,
                    "velocity": 0.5354330708661418,
                    "duration": 0.1733704166666712
                },
                {
                    "name": "D5",
                    "midi": 74,
                    "time": 140.63808200000042,
                    "velocity": 0.5590551181102362,
                    "duration": 0.22538154166667823
                },
                {
                    "name": "A#4",
                    "midi": 70,
                    "time": 140.84612650000042,
                    "velocity": 0.4566929133858268,
                    "duration": 0.22538154166667823
                },
                {
                    "name": "A4",
                    "midi": 69,
                    "time": 141.05417100000042,
                    "velocity": 0.49606299212598426,
                    "duration": 0.22538154166667823
                },
                {
                    "name": "F4",
                    "midi": 65,
                    "time": 141.26221550000042,
                    "velocity": 0.4251968503937008,
                    "duration": 0.20804449999999974
                },
                {
                    "name": "C4",
                    "midi": 60,
                    "time": 141.47026000000042,
                    "velocity": 0.4330708661417323,
                    "duration": 0.4160889999999995
                },
                {
                    "name": "D#4",
                    "midi": 63,
                    "time": 141.47026000000042,
                    "velocity": 0.4330708661417323,
                    "duration": 0.4160889999999995
                },
                {
                    "name": "G4",
                    "midi": 67,
                    "time": 141.88634900000042,
                    "velocity": 0.4330708661417323,
                    "duration": 0.3120667500000138
                },
                {
                    "name": "D#4",
                    "midi": 63,
                    "time": 141.88634900000042,
                    "velocity": 0.31496062992125984,
                    "duration": 0.3120667500000138
                },
                {
                    "name": "F#4",
                    "midi": 66,
                    "time": 142.30243800000045,
                    "velocity": 0.3779527559055118,
                    "duration": 0.6241334999999992
                },
                {
                    "name": "D4",
                    "midi": 62,
                    "time": 142.30243800000045,
                    "velocity": 0.3779527559055118,
                    "duration": 0.6241334999999992
                },
                {
                    "name": "C4",
                    "midi": 60,
                    "time": 142.92657150000045,
                    "velocity": 0.2677165354330709,
                    "duration": 0.1560333749999927
                },
                {
                    "name": "D#4",
                    "midi": 63,
                    "time": 142.92657150000045,
                    "velocity": 0.2677165354330709,
                    "duration": 0.1560333749999927
                },
                {
                    "name": "G4",
                    "midi": 67,
                    "time": 142.92657150000045,
                    "velocity": 0.33070866141732286,
                    "duration": 0.1560333749999927
                },
                {
                    "name": "F#4",
                    "midi": 66,
                    "time": 143.13461600000045,
                    "velocity": 0.3779527559055118,
                    "duration": 0.6241334999999992
                },
                {
                    "name": "D4",
                    "midi": 62,
                    "time": 143.13461600000045,
                    "velocity": 0.3779527559055118,
                    "duration": 0.6241334999999992
                },
                {
                    "name": "C4",
                    "midi": 60,
                    "time": 143.75874950000045,
                    "velocity": 0.2677165354330709,
                    "duration": 0.1560333749999927
                },
                {
                    "name": "D#4",
                    "midi": 63,
                    "time": 143.75874950000045,
                    "velocity": 0.2677165354330709,
                    "duration": 0.1560333749999927
                },
                {
                    "name": "G4",
                    "midi": 67,
                    "time": 143.75874950000045,
                    "velocity": 0.33070866141732286,
                    "duration": 0.1560333749999927
                },
                {
                    "name": "D4",
                    "midi": 62,
                    "time": 143.96679400000045,
                    "velocity": 0.3700787401574803,
                    "duration": 0.4160889999999995
                },
                {
                    "name": "F#4",
                    "midi": 66,
                    "time": 143.96679400000045,
                    "velocity": 0.3700787401574803,
                    "duration": 0.4160889999999995
                },
                {
                    "name": "C4",
                    "midi": 60,
                    "time": 144.38288300000045,
                    "velocity": 0.2992125984251969,
                    "duration": 0.4160889999999995
                },
                {
                    "name": "D#4",
                    "midi": 63,
                    "time": 144.38288300000045,
                    "velocity": 0.2992125984251969,
                    "duration": 0.4160889999999995
                },
                {
                    "name": "A4",
                    "midi": 69,
                    "time": 144.38288300000045,
                    "velocity": 0.3937007874015748,
                    "duration": 0.4160889999999995
                },
                {
                    "name": "A#3",
                    "midi": 58,
                    "time": 144.79897200000045,
                    "velocity": 0.3543307086614173,
                    "duration": 0.4160889999999995
                },
                {
                    "name": "D4",
                    "midi": 62,
                    "time": 144.79897200000045,
                    "velocity": 0.3543307086614173,
                    "duration": 0.4160889999999995
                },
                {
                    "name": "G4",
                    "midi": 67,
                    "time": 144.79897200000045,
                    "velocity": 0.4330708661417323,
                    "duration": 0.4160889999999995
                },
                {
                    "name": "A3",
                    "midi": 57,
                    "time": 145.21506100000045,
                    "velocity": 0.33858267716535434,
                    "duration": 0.20804449999999974
                },
                {
                    "name": "D4",
                    "midi": 62,
                    "time": 145.21506100000045,
                    "velocity": 0.33858267716535434,
                    "duration": 0.20804449999999974
                },
                {
                    "name": "F#4",
                    "midi": 66,
                    "time": 145.21506100000045,
                    "velocity": 0.33858267716535434,
                    "duration": 0.20804449999999974
                },
                {
                    "name": "G4",
                    "midi": 67,
                    "time": 145.42310550000045,
                    "velocity": 0.36220472440944884,
                    "duration": 0.20804449999999974
                },
                {
                    "name": "E4",
                    "midi": 64,
                    "time": 145.63115000000045,
                    "velocity": 0.3543307086614173,
                    "duration": 0.832177999999999
                },
                {
                    "name": "G3",
                    "midi": 55,
                    "time": 145.63115000000045,
                    "velocity": 0.3543307086614173,
                    "duration": 1.664355999999998
                },
                {
                    "name": "D4",
                    "midi": 62,
                    "time": 145.63115000000045,
                    "velocity": 0.3543307086614173,
                    "duration": 1.0402224999999987
                },
                {
                    "name": "C#4",
                    "midi": 61,
                    "time": 146.67137250000044,
                    "velocity": 0.3464566929133858,
                    "duration": 0.20804449999999974
                },
                {
                    "name": "B3",
                    "midi": 59,
                    "time": 146.87941700000044,
                    "velocity": 0.3464566929133858,
                    "duration": 0.20804449999999974
                },
                {
                    "name": "C#4",
                    "midi": 61,
                    "time": 147.08746150000044,
                    "velocity": 0.3464566929133858,
                    "duration": 0.20804449999999974
                },
                {
                    "name": "F#4",
                    "midi": 66,
                    "time": 147.29550600000044,
                    "velocity": 0.3464566929133858,
                    "duration": 0.4160889999999995
                },
                {
                    "name": "A3",
                    "midi": 57,
                    "time": 147.29550600000044,
                    "velocity": 0.3464566929133858,
                    "duration": 0.4160889999999995
                },
                {
                    "name": "D4",
                    "midi": 62,
                    "time": 147.29550600000044,
                    "velocity": 0.3464566929133858,
                    "duration": 0.4160889999999995
                },
                {
                    "name": "C4",
                    "midi": 60,
                    "time": 147.71159500000044,
                    "velocity": 0.4015748031496063,
                    "duration": 0.4160889999999995
                },
                {
                    "name": "A4",
                    "midi": 69,
                    "time": 147.71159500000044,
                    "velocity": 0.4015748031496063,
                    "duration": 0.4160889999999995
                },
                {
                    "name": "E4",
                    "midi": 64,
                    "time": 148.12768400000044,
                    "velocity": 0.3779527559055118,
                    "duration": 0.832177999999999
                },
                {
                    "name": "F#4",
                    "midi": 66,
                    "time": 148.12768400000044,
                    "velocity": 0.3779527559055118,
                    "duration": 0.832177999999999
                },
                {
                    "name": "C5",
                    "midi": 72,
                    "time": 148.12768400000044,
                    "velocity": 0.3779527559055118,
                    "duration": 0.832177999999999
                },
                {
                    "name": "D4",
                    "midi": 62,
                    "time": 148.95986200000044,
                    "velocity": 0.36220472440944884,
                    "duration": 0.4160889999999995
                },
                {
                    "name": "G4",
                    "midi": 67,
                    "time": 148.95986200000044,
                    "velocity": 0.36220472440944884,
                    "duration": 0.4160889999999995
                },
                {
                    "name": "B4",
                    "midi": 71,
                    "time": 148.95986200000044,
                    "velocity": 0.36220472440944884,
                    "duration": 0.4160889999999995
                },
                {
                    "name": "F#4",
                    "midi": 66,
                    "time": 149.37595100000044,
                    "velocity": 0.3858267716535433,
                    "duration": 0.4160889999999995
                },
                {
                    "name": "B4",
                    "midi": 71,
                    "time": 149.37595100000044,
                    "velocity": 0.3858267716535433,
                    "duration": 0.4160889999999995
                },
                {
                    "name": "D5",
                    "midi": 74,
                    "time": 149.37595100000044,
                    "velocity": 0.3858267716535433,
                    "duration": 0.4160889999999995
                },
                {
                    "name": "B4",
                    "midi": 71,
                    "time": 149.79204000000044,
                    "velocity": 0.4094488188976378,
                    "duration": 0.832177999999999
                },
                {
                    "name": "A4",
                    "midi": 69,
                    "time": 149.79204000000044,
                    "velocity": 0.4094488188976378,
                    "duration": 0.832177999999999
                },
                {
                    "name": "F#5",
                    "midi": 78,
                    "time": 149.79204000000044,
                    "velocity": 0.4094488188976378,
                    "duration": 0.832177999999999
                },
                {
                    "name": "G4",
                    "midi": 67,
                    "time": 150.62421800000044,
                    "velocity": 0.3858267716535433,
                    "duration": 0.4160889999999995
                },
                {
                    "name": "E5",
                    "midi": 76,
                    "time": 150.62421800000044,
                    "velocity": 0.3858267716535433,
                    "duration": 0.4160889999999995
                },
                {
                    "name": "B4",
                    "midi": 71,
                    "time": 150.62421800000044,
                    "velocity": 0.33070866141732286,
                    "duration": 0.832177999999999
                },
                {
                    "name": "D5",
                    "midi": 74,
                    "time": 151.04030700000044,
                    "velocity": 0.3858267716535433,
                    "duration": 0.4160889999999995
                },
                {
                    "name": "F#4",
                    "midi": 66,
                    "time": 151.04030700000044,
                    "velocity": 0.3858267716535433,
                    "duration": 0.4160889999999995
                },
                {
                    "name": "E4",
                    "midi": 64,
                    "time": 151.45639600000044,
                    "velocity": 0.36220472440944884,
                    "duration": 0.20804449999999974
                },
                {
                    "name": "G4",
                    "midi": 67,
                    "time": 151.45639600000044,
                    "velocity": 0.36220472440944884,
                    "duration": 0.4160889999999995
                },
                {
                    "name": "B4",
                    "midi": 71,
                    "time": 151.45639600000044,
                    "velocity": 0.36220472440944884,
                    "duration": 0.4160889999999995
                },
                {
                    "name": "D4",
                    "midi": 62,
                    "time": 151.66444050000044,
                    "velocity": 0.3543307086614173,
                    "duration": 0.20804449999999974
                },
                {
                    "name": "C#4",
                    "midi": 61,
                    "time": 151.87248500000044,
                    "velocity": 0.33858267716535434,
                    "duration": 0.20804449999999974
                },
                {
                    "name": "E4",
                    "midi": 64,
                    "time": 151.87248500000044,
                    "velocity": 0.33858267716535434,
                    "duration": 0.4160889999999995
                },
                {
                    "name": "G4",
                    "midi": 67,
                    "time": 151.87248500000044,
                    "velocity": 0.33858267716535434,
                    "duration": 0.4160889999999995
                },
                {
                    "name": "B3",
                    "midi": 59,
                    "time": 152.08052950000044,
                    "velocity": 0.33070866141732286,
                    "duration": 0.20804449999999974
                },
                {
                    "name": "F#4",
                    "midi": 66,
                    "time": 152.28857400000044,
                    "velocity": 0.3779527559055118,
                    "duration": 0.6241334999999992
                },
                {
                    "name": "D4",
                    "midi": 62,
                    "time": 152.28857400000044,
                    "velocity": 0.3779527559055118,
                    "duration": 0.6241334999999992
                },
                {
                    "name": "C4",
                    "midi": 60,
                    "time": 152.91270750000044,
                    "velocity": 0.2677165354330709,
                    "duration": 0.1560333749999927
                },
                {
                    "name": "D#4",
                    "midi": 63,
                    "time": 152.91270750000044,
                    "velocity": 0.2677165354330709,
                    "duration": 0.1560333749999927
                },
                {
                    "name": "G4",
                    "midi": 67,
                    "time": 152.91270750000044,
                    "velocity": 0.33070866141732286,
                    "duration": 0.1560333749999927
                },
                {
                    "name": "F#4",
                    "midi": 66,
                    "time": 153.12075200000044,
                    "velocity": 0.3779527559055118,
                    "duration": 0.6241334999999992
                },
                {
                    "name": "D4",
                    "midi": 62,
                    "time": 153.12075200000044,
                    "velocity": 0.3779527559055118,
                    "duration": 0.6241334999999992
                },
                {
                    "name": "C4",
                    "midi": 60,
                    "time": 153.74488550000044,
                    "velocity": 0.2677165354330709,
                    "duration": 0.1560333749999927
                },
                {
                    "name": "D#4",
                    "midi": 63,
                    "time": 153.74488550000044,
                    "velocity": 0.2677165354330709,
                    "duration": 0.1560333749999927
                },
                {
                    "name": "G4",
                    "midi": 67,
                    "time": 153.74488550000044,
                    "velocity": 0.33070866141732286,
                    "duration": 0.1560333749999927
                },
                {
                    "name": "D4",
                    "midi": 62,
                    "time": 153.95293000000044,
                    "velocity": 0.3700787401574803,
                    "duration": 0.4160889999999995
                },
                {
                    "name": "F#4",
                    "midi": 66,
                    "time": 153.95293000000044,
                    "velocity": 0.3700787401574803,
                    "duration": 0.4160889999999995
                },
                {
                    "name": "C4",
                    "midi": 60,
                    "time": 154.36901900000043,
                    "velocity": 0.2992125984251969,
                    "duration": 0.4160889999999995
                },
                {
                    "name": "D#4",
                    "midi": 63,
                    "time": 154.36901900000043,
                    "velocity": 0.2992125984251969,
                    "duration": 0.4160889999999995
                },
                {
                    "name": "A4",
                    "midi": 69,
                    "time": 154.36901900000043,
                    "velocity": 0.3937007874015748,
                    "duration": 0.4160889999999995
                },
                {
                    "name": "D4",
                    "midi": 62,
                    "time": 154.78510800000043,
                    "velocity": 0.3543307086614173,
                    "duration": 0.4160889999999995
                },
                {
                    "name": "G4",
                    "midi": 67,
                    "time": 154.78510800000043,
                    "velocity": 0.4330708661417323,
                    "duration": 0.4160889999999995
                },
                {
                    "name": "B3",
                    "midi": 59,
                    "time": 154.78510800000043,
                    "velocity": 0.3543307086614173,
                    "duration": 0.4160889999999995
                },
                {
                    "name": "D4",
                    "midi": 62,
                    "time": 155.20119700000043,
                    "velocity": 0.33858267716535434,
                    "duration": 0.20804449999999974
                },
                {
                    "name": "A3",
                    "midi": 57,
                    "time": 155.20119700000043,
                    "velocity": 0.33858267716535434,
                    "duration": 0.20804449999999974
                },
                {
                    "name": "F#4",
                    "midi": 66,
                    "time": 155.20119700000043,
                    "velocity": 0.33858267716535434,
                    "duration": 0.20804449999999974
                },
                {
                    "name": "G4",
                    "midi": 67,
                    "time": 155.40924150000043,
                    "velocity": 0.36220472440944884,
                    "duration": 0.20804449999999974
                },
                {
                    "name": "D4",
                    "midi": 62,
                    "time": 155.61728600000043,
                    "velocity": 0.3543307086614173,
                    "duration": 0.36407787499999245
                },
                {
                    "name": "G3",
                    "midi": 55,
                    "time": 155.61728600000043,
                    "velocity": 0.3543307086614173,
                    "duration": 0.36407787499999245
                },
                {
                    "name": "E4",
                    "midi": 64,
                    "time": 155.61728600000043,
                    "velocity": 0.3543307086614173,
                    "duration": 0.36407787499999245
                },
                {
                    "name": "E4",
                    "midi": 64,
                    "time": 156.03337500000043,
                    "velocity": 0.36220472440944884,
                    "duration": 0.4160889999999995
                },
                {
                    "name": "G4",
                    "midi": 67,
                    "time": 156.03337500000043,
                    "velocity": 0.36220472440944884,
                    "duration": 0.4160889999999995
                },
                {
                    "name": "B4",
                    "midi": 71,
                    "time": 156.03337500000043,
                    "velocity": 0.36220472440944884,
                    "duration": 0.4160889999999995
                },
                {
                    "name": "C#4",
                    "midi": 61,
                    "time": 156.44946400000043,
                    "velocity": 0.3937007874015748,
                    "duration": 0.4160889999999995
                },
                {
                    "name": "F#4",
                    "midi": 66,
                    "time": 156.44946400000043,
                    "velocity": 0.3937007874015748,
                    "duration": 0.4160889999999995
                },
                {
                    "name": "A4",
                    "midi": 69,
                    "time": 156.44946400000043,
                    "velocity": 0.3937007874015748,
                    "duration": 0.4160889999999995
                },
                {
                    "name": "B3",
                    "midi": 59,
                    "time": 156.86555300000043,
                    "velocity": 0.4094488188976378,
                    "duration": 0.4160889999999995
                },
                {
                    "name": "E4",
                    "midi": 64,
                    "time": 156.86555300000043,
                    "velocity": 0.4094488188976378,
                    "duration": 0.4160889999999995
                },
                {
                    "name": "G4",
                    "midi": 67,
                    "time": 156.86555300000043,
                    "velocity": 0.4094488188976378,
                    "duration": 0.4160889999999995
                },
                {
                    "name": "C#4",
                    "midi": 61,
                    "time": 157.28164200000043,
                    "velocity": 0.4094488188976378,
                    "duration": 0.36407787499999245
                },
                {
                    "name": "A#3",
                    "midi": 58,
                    "time": 157.28164200000043,
                    "velocity": 0.4094488188976378,
                    "duration": 0.36407787499999245
                },
                {
                    "name": "F#4",
                    "midi": 66,
                    "time": 157.28164200000043,
                    "velocity": 0.4094488188976378,
                    "duration": 0.36407787499999245
                },
                {
                    "name": "F#4",
                    "midi": 66,
                    "time": 157.69773100000043,
                    "velocity": 0.4094488188976378,
                    "duration": 0.4160889999999995
                },
                {
                    "name": "B4",
                    "midi": 71,
                    "time": 157.69773100000043,
                    "velocity": 0.4094488188976378,
                    "duration": 0.4160889999999995
                },
                {
                    "name": "D5",
                    "midi": 74,
                    "time": 157.69773100000043,
                    "velocity": 0.4094488188976378,
                    "duration": 0.4160889999999995
                },
                {
                    "name": "E4",
                    "midi": 64,
                    "time": 158.11382000000043,
                    "velocity": 0.4251968503937008,
                    "duration": 0.4160889999999995
                },
                {
                    "name": "G4",
                    "midi": 67,
                    "time": 158.11382000000043,
                    "velocity": 0.4251968503937008,
                    "duration": 0.4160889999999995
                },
                {
                    "name": "C#5",
                    "midi": 73,
                    "time": 158.11382000000043,
                    "velocity": 0.4251968503937008,
                    "duration": 0.4160889999999995
                },
                {
                    "name": "F#4",
                    "midi": 66,
                    "time": 158.52990900000043,
                    "velocity": 0.4409448818897638,
                    "duration": 0.4160889999999995
                },
                {
                    "name": "D4",
                    "midi": 62,
                    "time": 158.52990900000043,
                    "velocity": 0.4409448818897638,
                    "duration": 0.4160889999999995
                },
                {
                    "name": "B4",
                    "midi": 71,
                    "time": 158.52990900000043,
                    "velocity": 0.4409448818897638,
                    "duration": 0.4160889999999995
                },
                {
                    "name": "E4",
                    "midi": 64,
                    "time": 158.94599800000043,
                    "velocity": 0.47244094488188976,
                    "duration": 0.8321780000000274
                },
                {
                    "name": "G4",
                    "midi": 67,
                    "time": 158.94599800000043,
                    "velocity": 0.47244094488188976,
                    "duration": 0.8321780000000274
                },
                {
                    "name": "A4",
                    "midi": 69,
                    "time": 158.94599800000043,
                    "velocity": 0.47244094488188976,
                    "duration": 0.4160889999999995
                },
                {
                    "name": "A5",
                    "midi": 81,
                    "time": 159.36208700000043,
                    "velocity": 0.5196850393700787,
                    "duration": 0.3120667500000138
                },
                {
                    "name": "D5",
                    "midi": 74,
                    "time": 159.77817600000046,
                    "velocity": 0.3779527559055118,
                    "duration": 0.6241334999999992
                },
                {
                    "name": "F#5",
                    "midi": 78,
                    "time": 159.77817600000046,
                    "velocity": 0.3779527559055118,
                    "duration": 0.6241334999999992
                },
                {
                    "name": "A5",
                    "midi": 81,
                    "time": 159.77817600000046,
                    "velocity": 0.3779527559055118,
                    "duration": 2.0284338750000472
                },
                {
                    "name": "D#5",
                    "midi": 75,
                    "time": 160.40230950000046,
                    "velocity": 0.2677165354330709,
                    "duration": 0.10402225000001408
                },
                {
                    "name": "G5",
                    "midi": 79,
                    "time": 160.40230950000046,
                    "velocity": 0.33070866141732286,
                    "duration": 0.10402225000001408
                },
                {
                    "name": "F#5",
                    "midi": 78,
                    "time": 160.61035400000048,
                    "velocity": 0.3779527559055118,
                    "duration": 0.6241334999999992
                },
                {
                    "name": "D5",
                    "midi": 74,
                    "time": 160.61035400000048,
                    "velocity": 0.3779527559055118,
                    "duration": 0.6241334999999992
                },
                {
                    "name": "D#5",
                    "midi": 75,
                    "time": 161.23448750000048,
                    "velocity": 0.2677165354330709,
                    "duration": 0.10402225000001408
                },
                {
                    "name": "G5",
                    "midi": 79,
                    "time": 161.23448750000048,
                    "velocity": 0.33070866141732286,
                    "duration": 0.10402225000001408
                },
                {
                    "name": "D5",
                    "midi": 74,
                    "time": 161.4425320000005,
                    "velocity": 0.3700787401574803,
                    "duration": 0.36407787499999245
                },
                {
                    "name": "F#5",
                    "midi": 78,
                    "time": 161.4425320000005,
                    "velocity": 0.3700787401574803,
                    "duration": 0.36407787499999245
                },
                {
                    "name": "C5",
                    "midi": 72,
                    "time": 161.8586210000005,
                    "velocity": 0.3858267716535433,
                    "duration": 0.4160889999999995
                },
                {
                    "name": "D#5",
                    "midi": 75,
                    "time": 161.8586210000005,
                    "velocity": 0.3858267716535433,
                    "duration": 0.4160889999999995
                },
                {
                    "name": "A5",
                    "midi": 81,
                    "time": 161.8586210000005,
                    "velocity": 0.3858267716535433,
                    "duration": 0.4160889999999995
                },
                {
                    "name": "A#4",
                    "midi": 70,
                    "time": 162.2747100000005,
                    "velocity": 0.3858267716535433,
                    "duration": 0.4160889999999995
                },
                {
                    "name": "D5",
                    "midi": 74,
                    "time": 162.2747100000005,
                    "velocity": 0.3858267716535433,
                    "duration": 0.4160889999999995
                },
                {
                    "name": "G5",
                    "midi": 79,
                    "time": 162.2747100000005,
                    "velocity": 0.3858267716535433,
                    "duration": 0.4160889999999995
                },
                {
                    "name": "F#5",
                    "midi": 78,
                    "time": 162.6907990000005,
                    "velocity": 0.31496062992125984,
                    "duration": 0.20804449999999974
                },
                {
                    "name": "D5",
                    "midi": 74,
                    "time": 162.6907990000005,
                    "velocity": 0.31496062992125984,
                    "duration": 0.20804449999999974
                },
                {
                    "name": "A4",
                    "midi": 69,
                    "time": 162.6907990000005,
                    "velocity": 0.31496062992125984,
                    "duration": 0.20804449999999974
                },
                {
                    "name": "G5",
                    "midi": 79,
                    "time": 162.8988435000005,
                    "velocity": 0.33858267716535434,
                    "duration": 0.20804449999999974
                },
                {
                    "name": "D5",
                    "midi": 74,
                    "time": 163.1068880000005,
                    "velocity": 0.2992125984251969,
                    "duration": 0.832177999999999
                },
                {
                    "name": "G4",
                    "midi": 67,
                    "time": 163.1068880000005,
                    "velocity": 0.2992125984251969,
                    "duration": 0.832177999999999
                },
                {
                    "name": "E5",
                    "midi": 76,
                    "time": 163.1068880000005,
                    "velocity": 0.2992125984251969,
                    "duration": 0.832177999999999
                },
                {
                    "name": "G5",
                    "midi": 79,
                    "time": 163.9390660000005,
                    "velocity": 0.33070866141732286,
                    "duration": 0.832177999999999
                },
                {
                    "name": "E5",
                    "midi": 76,
                    "time": 163.9390660000005,
                    "velocity": 0.33070866141732286,
                    "duration": 0.832177999999999
                },
                {
                    "name": "A#4",
                    "midi": 70,
                    "time": 163.9390660000005,
                    "velocity": 0.33070866141732286,
                    "duration": 0.832177999999999
                },
                {
                    "name": "F#5",
                    "midi": 78,
                    "time": 164.7712440000005,
                    "velocity": 0.3464566929133858,
                    "duration": 0.4160889999999995
                },
                {
                    "name": "A4",
                    "midi": 69,
                    "time": 164.7712440000005,
                    "velocity": 0.3464566929133858,
                    "duration": 0.832177999999999
                },
                {
                    "name": "D5",
                    "midi": 74,
                    "time": 164.7712440000005,
                    "velocity": 0.3464566929133858,
                    "duration": 0.4160889999999995
                },
                {
                    "name": "A5",
                    "midi": 81,
                    "time": 165.1873330000005,
                    "velocity": 0.4251968503937008,
                    "duration": 0.4160889999999995
                },
                {
                    "name": "C5",
                    "midi": 72,
                    "time": 165.6034220000005,
                    "velocity": 0.3700787401574803,
                    "duration": 0.832177999999999
                },
                {
                    "name": "F#5",
                    "midi": 78,
                    "time": 165.6034220000005,
                    "velocity": 0.3700787401574803,
                    "duration": 0.832177999999999
                },
                {
                    "name": "C6",
                    "midi": 84,
                    "time": 165.6034220000005,
                    "velocity": 0.3700787401574803,
                    "duration": 0.832177999999999
                },
                {
                    "name": "G4",
                    "midi": 67,
                    "time": 166.4356000000005,
                    "velocity": 0.4094488188976378,
                    "duration": 2.496533999999997
                },
                {
                    "name": "B4",
                    "midi": 71,
                    "time": 166.4356000000005,
                    "velocity": 0.4094488188976378,
                    "duration": 0.4160889999999995
                },
                {
                    "name": "D5",
                    "midi": 74,
                    "time": 166.8516890000005,
                    "velocity": 0.3937007874015748,
                    "duration": 0.4160889999999995
                },
                {
                    "name": "F#5",
                    "midi": 78,
                    "time": 167.2677780000005,
                    "velocity": 0.4330708661417323,
                    "duration": 0.832177999999999
                },
                {
                    "name": "E5",
                    "midi": 76,
                    "time": 168.0999560000005,
                    "velocity": 0.3858267716535433,
                    "duration": 0.4160889999999995
                },
                {
                    "name": "D5",
                    "midi": 74,
                    "time": 168.5160450000005,
                    "velocity": 0.36220472440944884,
                    "duration": 0.4160889999999995
                },
                {
                    "name": "G4",
                    "midi": 67,
                    "time": 168.9321340000005,
                    "velocity": 0.33858267716535434,
                    "duration": 0.4160889999999995
                },
                {
                    "name": "B4",
                    "midi": 71,
                    "time": 168.9321340000005,
                    "velocity": 0.33858267716535434,
                    "duration": 0.4160889999999995
                },
                {
                    "name": "E4",
                    "midi": 64,
                    "time": 169.3482230000005,
                    "velocity": 0.2992125984251969,
                    "duration": 0.4160889999999995
                },
                {
                    "name": "G4",
                    "midi": 67,
                    "time": 169.3482230000005,
                    "velocity": 0.2992125984251969,
                    "duration": 0.4160889999999995
                },
                {
                    "name": "D4",
                    "midi": 62,
                    "time": 169.7643120000005,
                    "velocity": 0.28346456692913385,
                    "duration": 0.832177999999999
                },
                {
                    "name": "B3",
                    "midi": 59,
                    "time": 169.7643120000005,
                    "velocity": 0.28346456692913385,
                    "duration": 0.832177999999999
                },
                {
                    "name": "F#4",
                    "midi": 66,
                    "time": 169.7643120000005,
                    "velocity": 0.28346456692913385,
                    "duration": 0.832177999999999
                },
                {
                    "name": "G#3",
                    "midi": 56,
                    "time": 170.5964900000005,
                    "velocity": 0.2992125984251969,
                    "duration": 0.4160889999999995
                },
                {
                    "name": "C#4",
                    "midi": 61,
                    "time": 170.5964900000005,
                    "velocity": 0.2992125984251969,
                    "duration": 0.4160889999999995
                },
                {
                    "name": "E4",
                    "midi": 64,
                    "time": 170.5964900000005,
                    "velocity": 0.2992125984251969,
                    "duration": 0.4160889999999995
                },
                {
                    "name": "F#3",
                    "midi": 54,
                    "time": 171.0125790000005,
                    "velocity": 0.28346456692913385,
                    "duration": 0.4160889999999995
                },
                {
                    "name": "B3",
                    "midi": 59,
                    "time": 171.0125790000005,
                    "velocity": 0.28346456692913385,
                    "duration": 0.4160889999999995
                },
                {
                    "name": "D4",
                    "midi": 62,
                    "time": 171.0125790000005,
                    "velocity": 0.28346456692913385,
                    "duration": 0.4160889999999995
                },
                {
                    "name": "F3",
                    "midi": 53,
                    "time": 171.4286680000005,
                    "velocity": 0.2992125984251969,
                    "duration": 0.4160889999999995
                },
                {
                    "name": "B3",
                    "midi": 59,
                    "time": 171.4286680000005,
                    "velocity": 0.2992125984251969,
                    "duration": 0.4160889999999995
                },
                {
                    "name": "C#4",
                    "midi": 61,
                    "time": 171.4286680000005,
                    "velocity": 0.2992125984251969,
                    "duration": 0.4160889999999995
                },
                {
                    "name": "B3",
                    "midi": 59,
                    "time": 171.8447570000005,
                    "velocity": 0.28346456692913385,
                    "duration": 2.912623000000025
                },
                {
                    "name": "C#4",
                    "midi": 61,
                    "time": 171.8447570000005,
                    "velocity": 0.28346456692913385,
                    "duration": 0.4160889999999995
                },
                {
                    "name": "G#4",
                    "midi": 68,
                    "time": 171.8447570000005,
                    "velocity": 0.28346456692913385,
                    "duration": 0.832177999999999
                },
                {
                    "name": "D4",
                    "midi": 62,
                    "time": 172.2608460000005,
                    "velocity": 0.28346456692913385,
                    "duration": 2.4965340000000253
                },
                {
                    "name": "F#4",
                    "midi": 66,
                    "time": 172.6769350000005,
                    "velocity": 0.25984251968503935,
                    "duration": 0.13869633333334264
                },
                {
                    "name": "G#4",
                    "midi": 68,
                    "time": 172.81563133333384,
                    "velocity": 0.29133858267716534,
                    "duration": 0.13869633333334264
                },
                {
                    "name": "A4",
                    "midi": 69,
                    "time": 172.95432766666718,
                    "velocity": 0.3228346456692913,
                    "duration": 0.13869633333334264
                },
                {
                    "name": "F#4",
                    "midi": 66,
                    "time": 173.09302400000053,
                    "velocity": 0.33858267716535434,
                    "duration": 0.4160889999999995
                },
                {
                    "name": "E4",
                    "midi": 64,
                    "time": 173.50911300000053,
                    "velocity": 0.31496062992125984,
                    "duration": 0.832177999999999
                },
                {
                    "name": "F#4",
                    "midi": 66,
                    "time": 174.34129100000052,
                    "velocity": 0.3543307086614173,
                    "duration": 0.38141491666667093
                },
                {
                    "name": "G#4",
                    "midi": 68,
                    "time": 174.75738000000052,
                    "velocity": 0.30708661417322836,
                    "duration": 1.664355999999998
                },
                {
                    "name": "F#5",
                    "midi": 78,
                    "time": 174.75738000000052,
                    "velocity": 0.30708661417322836,
                    "duration": 0.832177999999999
                },
                {
                    "name": "D5",
                    "midi": 74,
                    "time": 174.75738000000052,
                    "velocity": 0.30708661417322836,
                    "duration": 0.832177999999999
                },
                {
                    "name": "C#5",
                    "midi": 73,
                    "time": 175.58955800000052,
                    "velocity": 0.2992125984251969,
                    "duration": 0.4160889999999995
                },
                {
                    "name": "E5",
                    "midi": 76,
                    "time": 175.58955800000052,
                    "velocity": 0.2992125984251969,
                    "duration": 0.4160889999999995
                },
                {
                    "name": "D5",
                    "midi": 74,
                    "time": 176.00564700000052,
                    "velocity": 0.28346456692913385,
                    "duration": 0.4160889999999995
                },
                {
                    "name": "B4",
                    "midi": 71,
                    "time": 176.00564700000052,
                    "velocity": 0.28346456692913385,
                    "duration": 0.4160889999999995
                },
                {
                    "name": "G#4",
                    "midi": 68,
                    "time": 176.42173600000052,
                    "velocity": 0.2992125984251969,
                    "duration": 0.4160889999999995
                },
                {
                    "name": "B4",
                    "midi": 71,
                    "time": 176.42173600000052,
                    "velocity": 0.2992125984251969,
                    "duration": 0.4160889999999995
                },
                {
                    "name": "C#5",
                    "midi": 73,
                    "time": 176.42173600000052,
                    "velocity": 0.2992125984251969,
                    "duration": 0.4160889999999995
                },
                {
                    "name": "B4",
                    "midi": 71,
                    "time": 176.83782500000052,
                    "velocity": 0.3464566929133858,
                    "duration": 2.9126229999999964
                },
                {
                    "name": "C#5",
                    "midi": 73,
                    "time": 176.83782500000052,
                    "velocity": 0.3464566929133858,
                    "duration": 0.4160889999999995
                },
                {
                    "name": "G#5",
                    "midi": 80,
                    "time": 176.83782500000052,
                    "velocity": 0.3464566929133858,
                    "duration": 0.832177999999999
                },
                {
                    "name": "D5",
                    "midi": 74,
                    "time": 177.25391400000052,
                    "velocity": 0.33858267716535434,
                    "duration": 2.496533999999997
                },
                {
                    "name": "F#5",
                    "midi": 78,
                    "time": 177.67000300000052,
                    "velocity": 0.2992125984251969,
                    "duration": 0.4160889999999995
                },
                {
                    "name": "G#5",
                    "midi": 80,
                    "time": 178.08609200000052,
                    "velocity": 0.30708661417322836,
                    "duration": 0.4160889999999995
                },
                {
                    "name": "A5",
                    "midi": 81,
                    "time": 178.50218100000052,
                    "velocity": 0.28346456692913385,
                    "duration": 0.4160889999999995
                },
                {
                    "name": "F#5",
                    "midi": 78,
                    "time": 178.91827000000052,
                    "velocity": 0.2992125984251969,
                    "duration": 0.4160889999999995
                },
                {
                    "name": "G#5",
                    "midi": 80,
                    "time": 179.33435900000052,
                    "velocity": 0.2755905511811024,
                    "duration": 0.4160889999999995
                },
                {
                    "name": "D#3",
                    "midi": 51,
                    "time": 179.75044800000052,
                    "velocity": 0.2755905511811024,
                    "duration": 0.6726772166666706
                },
                {
                    "name": "A#3",
                    "midi": 58,
                    "time": 179.75044800000052,
                    "velocity": 0.2755905511811024,
                    "duration": 0.6726772166666706
                },
                {
                    "name": "G3",
                    "midi": 55,
                    "time": 179.75044800000052,
                    "velocity": 0.2755905511811024,
                    "duration": 0.6726772166666706
                },
                {
                    "name": "A#4",
                    "midi": 70,
                    "time": 180.42659262500052,
                    "velocity": 0.25196850393700787,
                    "duration": 0.9882113750000201
                },
                {
                    "name": "D#5",
                    "midi": 75,
                    "time": 180.47860375000053,
                    "velocity": 0.2677165354330709,
                    "duration": 0.9362002500000131
                },
                {
                    "name": "G5",
                    "midi": 79,
                    "time": 180.53061487500054,
                    "velocity": 0.2755905511811024,
                    "duration": 0.884189125000006
                },
                {
                    "name": "A#5",
                    "midi": 82,
                    "time": 180.58262600000054,
                    "velocity": 0.3228346456692913,
                    "duration": 0.832177999999999
                },
                {
                    "name": "D#3",
                    "midi": 51,
                    "time": 181.41480400000054,
                    "velocity": 0.2992125984251969,
                    "duration": 1.5048552166666695
                },
                {
                    "name": "G3",
                    "midi": 55,
                    "time": 181.41480400000054,
                    "velocity": 0.2992125984251969,
                    "duration": 1.5048552166666695
                },
                {
                    "name": "A#3",
                    "midi": 58,
                    "time": 181.41480400000054,
                    "velocity": 0.2992125984251969,
                    "duration": 1.5048552166666695
                },
                {
                    "name": "A#4",
                    "midi": 70,
                    "time": 182.92312662500055,
                    "velocity": 0.25196850393700787,
                    "duration": 0.9882113750000201
                },
                {
                    "name": "D#5",
                    "midi": 75,
                    "time": 182.97513775000056,
                    "velocity": 0.25984251968503935,
                    "duration": 0.9362002500000131
                },
                {
                    "name": "G5",
                    "midi": 79,
                    "time": 183.02714887500056,
                    "velocity": 0.2755905511811024,
                    "duration": 0.884189125000006
                },
                {
                    "name": "A#5",
                    "midi": 82,
                    "time": 183.07916000000057,
                    "velocity": 0.31496062992125984,
                    "duration": 0.832177999999999
                },
                {
                    "name": "D#3",
                    "midi": 51,
                    "time": 183.91133800000057,
                    "velocity": 0.31496062992125984,
                    "duration": 1.2482669999999985
                },
                {
                    "name": "G3",
                    "midi": 55,
                    "time": 183.91133800000057,
                    "velocity": 0.31496062992125984,
                    "duration": 1.2482669999999985
                },
                {
                    "name": "A#3",
                    "midi": 58,
                    "time": 183.91133800000057,
                    "velocity": 0.31496062992125984,
                    "duration": 1.0402224999999987
                },
                {
                    "name": "C4",
                    "midi": 60,
                    "time": 184.95156050000057,
                    "velocity": 0.33070866141732286,
                    "duration": 0.20804449999999974
                },
                {
                    "name": "D4",
                    "midi": 62,
                    "time": 185.15960500000057,
                    "velocity": 0.3464566929133858,
                    "duration": 0.20804449999999974
                },
                {
                    "name": "D#4",
                    "midi": 63,
                    "time": 185.36764950000057,
                    "velocity": 0.33858267716535434,
                    "duration": 0.20804449999999974
                },
                {
                    "name": "C4",
                    "midi": 60,
                    "time": 185.57569400000057,
                    "velocity": 0.3464566929133858,
                    "duration": 0.1733704166666712
                },
                {
                    "name": "C4",
                    "midi": 60,
                    "time": 185.78373850000057,
                    "velocity": 0.30708661417322836,
                    "duration": 0.10402225000001408
                },
                {
                    "name": "D4",
                    "midi": 62,
                    "time": 185.88776075000058,
                    "velocity": 0.30708661417322836,
                    "duration": 0.10402225000001408
                },
                {
                    "name": "C4",
                    "midi": 60,
                    "time": 185.9917830000006,
                    "velocity": 0.3464566929133858,
                    "duration": 0.1560333749999927
                },
                {
                    "name": "A#3",
                    "midi": 58,
                    "time": 186.1998275000006,
                    "velocity": 0.3464566929133858,
                    "duration": 0.1560333749999927
                },
                {
                    "name": "C4",
                    "midi": 60,
                    "time": 186.4078720000006,
                    "velocity": 0.33858267716535434,
                    "duration": 0.05201112500000704
                },
                {
                    "name": "D#4",
                    "midi": 63,
                    "time": 186.8239610000006,
                    "velocity": 0.30708661417322836,
                    "duration": 0.05201112500000704
                },
                {
                    "name": "D4",
                    "midi": 62,
                    "time": 187.2400500000006,
                    "velocity": 0.33070866141732286,
                    "duration": 0.20804449999999974
                },
                {
                    "name": "D#4",
                    "midi": 63,
                    "time": 187.4480945000006,
                    "velocity": 0.33070866141732286,
                    "duration": 0.20804449999999974
                },
                {
                    "name": "F4",
                    "midi": 65,
                    "time": 187.6561390000006,
                    "velocity": 0.3464566929133858,
                    "duration": 0.20804449999999974
                },
                {
                    "name": "G4",
                    "midi": 67,
                    "time": 187.8641835000006,
                    "velocity": 0.33858267716535434,
                    "duration": 0.20804449999999974
                },
                {
                    "name": "D4",
                    "midi": 62,
                    "time": 188.0722280000006,
                    "velocity": 0.3464566929133858,
                    "duration": 0.1733704166666712
                },
                {
                    "name": "D4",
                    "midi": 62,
                    "time": 188.2802725000006,
                    "velocity": 0.30708661417322836,
                    "duration": 0.10402225000001408
                },
                {
                    "name": "D#4",
                    "midi": 63,
                    "time": 188.3842947500006,
                    "velocity": 0.30708661417322836,
                    "duration": 0.10402225000001408
                },
                {
                    "name": "D4",
                    "midi": 62,
                    "time": 188.48831700000062,
                    "velocity": 0.3464566929133858,
                    "duration": 0.1560333749999927
                },
                {
                    "name": "C4",
                    "midi": 60,
                    "time": 188.69636150000062,
                    "velocity": 0.33070866141732286,
                    "duration": 0.1560333749999927
                },
                {
                    "name": "A#3",
                    "midi": 58,
                    "time": 188.90440600000062,
                    "velocity": 0.30708661417322836,
                    "duration": 0.20804449999999974
                },
                {
                    "name": "C4",
                    "midi": 60,
                    "time": 189.11245050000062,
                    "velocity": 0.30708661417322836,
                    "duration": 0.20804449999999974
                },
                {
                    "name": "D4",
                    "midi": 62,
                    "time": 189.32049500000062,
                    "velocity": 0.30708661417322836,
                    "duration": 0.4160889999999995
                },
                {
                    "name": "C#4",
                    "midi": 61,
                    "time": 189.73658400000062,
                    "velocity": 0.28346456692913385,
                    "duration": 0.832177999999999
                },
                {
                    "name": "D#4",
                    "midi": 63,
                    "time": 189.73658400000062,
                    "velocity": 0.33070866141732286,
                    "duration": 0.20804449999999974
                },
                {
                    "name": "F4",
                    "midi": 65,
                    "time": 189.94462850000062,
                    "velocity": 0.33070866141732286,
                    "duration": 0.20804449999999974
                },
                {
                    "name": "G4",
                    "midi": 67,
                    "time": 190.15267300000062,
                    "velocity": 0.3464566929133858,
                    "duration": 0.20804449999999974
                },
                {
                    "name": "G#4",
                    "midi": 68,
                    "time": 190.36071750000062,
                    "velocity": 0.33858267716535434,
                    "duration": 0.20804449999999974
                },
                {
                    "name": "F4",
                    "midi": 65,
                    "time": 190.56876200000062,
                    "velocity": 0.3464566929133858,
                    "duration": 0.1733704166666712
                },
                {
                    "name": "F4",
                    "midi": 65,
                    "time": 190.77680650000062,
                    "velocity": 0.30708661417322836,
                    "duration": 0.10402225000001408
                },
                {
                    "name": "G4",
                    "midi": 67,
                    "time": 190.88082875000063,
                    "velocity": 0.30708661417322836,
                    "duration": 0.10402225000001408
                },
                {
                    "name": "F4",
                    "midi": 65,
                    "time": 190.98485100000065,
                    "velocity": 0.3464566929133858,
                    "duration": 0.1560333749999927
                },
                {
                    "name": "D#4",
                    "midi": 63,
                    "time": 191.19289550000065,
                    "velocity": 0.3464566929133858,
                    "duration": 0.1560333749999927
                },
                {
                    "name": "F4",
                    "midi": 65,
                    "time": 191.40094000000065,
                    "velocity": 0.36220472440944884,
                    "duration": 0.05201112500000704
                },
                {
                    "name": "G#4",
                    "midi": 68,
                    "time": 191.81702900000064,
                    "velocity": 0.3464566929133858,
                    "duration": 0.05201112500000704
                },
                {
                    "name": "C#4",
                    "midi": 61,
                    "time": 192.23311800000064,
                    "velocity": 0.30708661417322836,
                    "duration": 1.24826699999997
                },
                {
                    "name": "G4",
                    "midi": 67,
                    "time": 192.23311800000064,
                    "velocity": 0.36220472440944884,
                    "duration": 0.20804449999999974
                },
                {
                    "name": "G#4",
                    "midi": 68,
                    "time": 192.44116250000064,
                    "velocity": 0.36220472440944884,
                    "duration": 0.20804449999999974
                },
                {
                    "name": "A#4",
                    "midi": 70,
                    "time": 192.64920700000064,
                    "velocity": 0.3779527559055118,
                    "duration": 0.20804449999999974
                },
                {
                    "name": "C5",
                    "midi": 72,
                    "time": 192.85725150000064,
                    "velocity": 0.3700787401574803,
                    "duration": 0.20804449999999974
                },
                {
                    "name": "G4",
                    "midi": 67,
                    "time": 193.06529600000064,
                    "velocity": 0.3779527559055118,
                    "duration": 0.1733704166666712
                },
                {
                    "name": "F4",
                    "midi": 65,
                    "time": 193.27334050000064,
                    "velocity": 0.33070866141732286,
                    "duration": 0.10402224999998566
                },
                {
                    "name": "G4",
                    "midi": 67,
                    "time": 193.3426886666673,
                    "velocity": 0.33070866141732286,
                    "duration": 0.06934816666665711
                },
                {
                    "name": "F4",
                    "midi": 65,
                    "time": 193.41203683333396,
                    "velocity": 0.33070866141732286,
                    "duration": 0.06934816666665711
                },
                {
                    "name": "D#4",
                    "midi": 63,
                    "time": 193.4813850000006,
                    "velocity": 0.3779527559055118,
                    "duration": 0.1560333749999927
                },
                {
                    "name": "C#4",
                    "midi": 61,
                    "time": 193.6894295000006,
                    "velocity": 0.36220472440944884,
                    "duration": 0.1560333749999927
                },
                {
                    "name": "D#4",
                    "midi": 63,
                    "time": 193.8974740000006,
                    "velocity": 0.33070866141732286,
                    "duration": 0.20804449999999974
                },
                {
                    "name": "F4",
                    "midi": 65,
                    "time": 194.1055185000006,
                    "velocity": 0.33070866141732286,
                    "duration": 0.20804449999999974
                },
                {
                    "name": "G4",
                    "midi": 67,
                    "time": 194.3135630000006,
                    "velocity": 0.33070866141732286,
                    "duration": 0.4160889999999995
                },
                {
                    "name": "C#4",
                    "midi": 61,
                    "time": 194.7296520000006,
                    "velocity": 0.33070866141732286,
                    "duration": 1.24826699999997
                },
                {
                    "name": "G4",
                    "midi": 67,
                    "time": 194.7296520000006,
                    "velocity": 0.3937007874015748,
                    "duration": 0.20804449999999974
                },
                {
                    "name": "G#4",
                    "midi": 68,
                    "time": 194.9376965000006,
                    "velocity": 0.3937007874015748,
                    "duration": 0.20804449999999974
                },
                {
                    "name": "A#4",
                    "midi": 70,
                    "time": 195.1457410000006,
                    "velocity": 0.4094488188976378,
                    "duration": 0.20804449999999974
                },
                {
                    "name": "C5",
                    "midi": 72,
                    "time": 195.3537855000006,
                    "velocity": 0.4015748031496063,
                    "duration": 0.20804449999999974
                },
                {
                    "name": "G4",
                    "midi": 67,
                    "time": 195.5618300000006,
                    "velocity": 0.4094488188976378,
                    "duration": 0.1733704166666712
                },
                {
                    "name": "F4",
                    "midi": 65,
                    "time": 195.7698745000006,
                    "velocity": 0.36220472440944884,
                    "duration": 0.10402224999998566
                },
                {
                    "name": "G4",
                    "midi": 67,
                    "time": 195.83922266666727,
                    "velocity": 0.36220472440944884,
                    "duration": 0.06934816666665711
                },
                {
                    "name": "F4",
                    "midi": 65,
                    "time": 195.90857083333393,
                    "velocity": 0.36220472440944884,
                    "duration": 0.06934816666665711
                },
                {
                    "name": "D#4",
                    "midi": 63,
                    "time": 195.97791900000058,
                    "velocity": 0.41732283464566927,
                    "duration": 0.1560333749999927
                },
                {
                    "name": "C#4",
                    "midi": 61,
                    "time": 196.18596350000058,
                    "velocity": 0.3937007874015748,
                    "duration": 0.1560333749999927
                },
                {
                    "name": "D#4",
                    "midi": 63,
                    "time": 196.39400800000058,
                    "velocity": 0.4251968503937008,
                    "duration": 0.20804449999999974
                },
                {
                    "name": "F4",
                    "midi": 65,
                    "time": 196.60205250000058,
                    "velocity": 0.4015748031496063,
                    "duration": 0.20804449999999974
                },
                {
                    "name": "G4",
                    "midi": 67,
                    "time": 196.81009700000058,
                    "velocity": 0.4015748031496063,
                    "duration": 0.4160889999999995
                },
                {
                    "name": "C#4",
                    "midi": 61,
                    "time": 197.22618600000058,
                    "velocity": 0.4330708661417323,
                    "duration": 1.24826699999997
                },
                {
                    "name": "G#4",
                    "midi": 68,
                    "time": 197.22618600000058,
                    "velocity": 0.4330708661417323,
                    "duration": 0.20804449999999974
                },
                {
                    "name": "A4",
                    "midi": 69,
                    "time": 197.43423050000058,
                    "velocity": 0.4409448818897638,
                    "duration": 0.20804449999999974
                },
                {
                    "name": "B4",
                    "midi": 71,
                    "time": 197.64227500000058,
                    "velocity": 0.4566929133858268,
                    "duration": 0.20804449999999974
                },
                {
                    "name": "C#5",
                    "midi": 73,
                    "time": 197.85031950000058,
                    "velocity": 0.44881889763779526,
                    "duration": 0.20804449999999974
                },
                {
                    "name": "G#4",
                    "midi": 68,
                    "time": 198.05836400000058,
                    "velocity": 0.4566929133858268,
                    "duration": 0.1733704166666712
                },
                {
                    "name": "F#4",
                    "midi": 66,
                    "time": 198.26640850000058,
                    "velocity": 0.4015748031496063,
                    "duration": 0.10402224999998566
                },
                {
                    "name": "G#4",
                    "midi": 68,
                    "time": 198.33575666666724,
                    "velocity": 0.4015748031496063,
                    "duration": 0.06934816666665711
                },
                {
                    "name": "F#4",
                    "midi": 66,
                    "time": 198.4051048333339,
                    "velocity": 0.4015748031496063,
                    "duration": 0.06934816666665711
                },
                {
                    "name": "E4",
                    "midi": 64,
                    "time": 198.47445300000055,
                    "velocity": 0.4645669291338583,
                    "duration": 0.1560333749999927
                },
                {
                    "name": "D#4",
                    "midi": 63,
                    "time": 198.68249750000055,
                    "velocity": 0.4409448818897638,
                    "duration": 0.1560333749999927
                },
                {
                    "name": "E4",
                    "midi": 64,
                    "time": 198.89054200000055,
                    "velocity": 0.47244094488188976,
                    "duration": 0.20804449999999974
                },
                {
                    "name": "F#4",
                    "midi": 66,
                    "time": 199.09858650000055,
                    "velocity": 0.44881889763779526,
                    "duration": 0.20804449999999974
                },
                {
                    "name": "G#4",
                    "midi": 68,
                    "time": 199.30663100000055,
                    "velocity": 0.44881889763779526,
                    "duration": 0.6241334999999992
                },
                {
                    "name": "D4",
                    "midi": 62,
                    "time": 199.72272000000055,
                    "velocity": 0.47244094488188976,
                    "duration": 1.2482669999999985
                },
                {
                    "name": "A4",
                    "midi": 69,
                    "time": 199.93076450000055,
                    "velocity": 0.4330708661417323,
                    "duration": 0.20804449999999974
                },
                {
                    "name": "B4",
                    "midi": 71,
                    "time": 200.13880900000055,
                    "velocity": 0.44881889763779526,
                    "duration": 0.20804449999999974
                },
                {
                    "name": "C#5",
                    "midi": 73,
                    "time": 200.34685350000055,
                    "velocity": 0.47244094488188976,
                    "duration": 0.20804449999999974
                },
                {
                    "name": "G#4",
                    "midi": 68,
                    "time": 200.55489800000055,
                    "velocity": 0.5118110236220472,
                    "duration": 0.20804449999999974
                },
                {
                    "name": "A4",
                    "midi": 69,
                    "time": 200.76294250000055,
                    "velocity": 0.4645669291338583,
                    "duration": 0.20804449999999974
                },
                {
                    "name": "B4",
                    "midi": 71,
                    "time": 200.97098700000055,
                    "velocity": 0.49606299212598426,
                    "duration": 0.20804449999999974
                },
                {
                    "name": "C#5",
                    "midi": 73,
                    "time": 201.17903150000055,
                    "velocity": 0.5196850393700787,
                    "duration": 0.20804449999999974
                },
                {
                    "name": "D5",
                    "midi": 74,
                    "time": 201.38707600000055,
                    "velocity": 0.5511811023622047,
                    "duration": 0.20804449999999974
                },
                {
                    "name": "E5",
                    "midi": 76,
                    "time": 201.59512050000055,
                    "velocity": 0.5039370078740157,
                    "duration": 0.20804449999999974
                },
                {
                    "name": "F#5",
                    "midi": 78,
                    "time": 201.80316500000055,
                    "velocity": 0.5275590551181102,
                    "duration": 0.20804449999999974
                },
                {
                    "name": "G#5",
                    "midi": 80,
                    "time": 202.01120950000055,
                    "velocity": 0.5433070866141733,
                    "duration": 0.20804449999999974
                },
                {
                    "name": "A5",
                    "midi": 81,
                    "time": 202.21925400000055,
                    "velocity": 0.5984251968503937,
                    "duration": 0.6241334999999992
                },
                {
                    "name": "C#5",
                    "midi": 73,
                    "time": 202.42729850000055,
                    "velocity": 0.4566929133858268,
                    "duration": 0.20804449999999974
                },
                {
                    "name": "D5",
                    "midi": 74,
                    "time": 202.63534300000055,
                    "velocity": 0.4566929133858268,
                    "duration": 0.20804449999999974
                },
                {
                    "name": "A5",
                    "midi": 81,
                    "time": 202.84338750000055,
                    "velocity": 0.4566929133858268,
                    "duration": 0.20804449999999974
                },
                {
                    "name": "G#5",
                    "midi": 80,
                    "time": 203.05143200000055,
                    "velocity": 0.5905511811023622,
                    "duration": 0.6241334999999992
                },
                {
                    "name": "B4",
                    "midi": 71,
                    "time": 203.25947650000055,
                    "velocity": 0.4409448818897638,
                    "duration": 0.20804449999999974
                },
                {
                    "name": "D5",
                    "midi": 74,
                    "time": 203.46752100000054,
                    "velocity": 0.4409448818897638,
                    "duration": 0.20804449999999974
                },
                {
                    "name": "G#5",
                    "midi": 80,
                    "time": 203.67556550000054,
                    "velocity": 0.4409448818897638,
                    "duration": 0.20804449999999974
                },
                {
                    "name": "F#5",
                    "midi": 78,
                    "time": 203.88361000000054,
                    "velocity": 0.5669291338582677,
                    "duration": 0.6241334999999992
                },
                {
                    "name": "B4",
                    "midi": 71,
                    "time": 204.09165450000054,
                    "velocity": 0.4330708661417323,
                    "duration": 0.20804449999999974
                },
                {
                    "name": "D5",
                    "midi": 74,
                    "time": 204.29969900000054,
                    "velocity": 0.4330708661417323,
                    "duration": 0.20804449999999974
                },
                {
                    "name": "F#5",
                    "midi": 78,
                    "time": 204.50774350000054,
                    "velocity": 0.4330708661417323,
                    "duration": 0.20804449999999974
                },
                {
                    "name": "E5",
                    "midi": 76,
                    "time": 204.71578800000054,
                    "velocity": 0.5590551181102362,
                    "duration": 0.6241334999999992
                },
                {
                    "name": "A4",
                    "midi": 69,
                    "time": 204.92383250000054,
                    "velocity": 0.4094488188976378,
                    "duration": 0.20804449999999974
                },
                {
                    "name": "C#5",
                    "midi": 73,
                    "time": 205.13187700000054,
                    "velocity": 0.4094488188976378,
                    "duration": 0.20804449999999974
                },
                {
                    "name": "E5",
                    "midi": 76,
                    "time": 205.33992150000054,
                    "velocity": 0.4094488188976378,
                    "duration": 0.6241334999999992
                },
                {
                    "name": "C#5",
                    "midi": 73,
                    "time": 205.54796600000054,
                    "velocity": 0.4094488188976378,
                    "duration": 0.20804449999999974
                },
                {
                    "name": "A4",
                    "midi": 69,
                    "time": 205.75601050000054,
                    "velocity": 0.4094488188976378,
                    "duration": 0.20804449999999974
                },
                {
                    "name": "F#5",
                    "midi": 78,
                    "time": 205.96405500000054,
                    "velocity": 0.5275590551181102,
                    "duration": 0.4160889999999995
                },
                {
                    "name": "C#5",
                    "midi": 73,
                    "time": 205.96405500000054,
                    "velocity": 0.4330708661417323,
                    "duration": 0.20804449999999974
                },
                {
                    "name": "A4",
                    "midi": 69,
                    "time": 206.17209950000054,
                    "velocity": 0.4330708661417323,
                    "duration": 0.20804449999999974
                },
                {
                    "name": "F#5",
                    "midi": 78,
                    "time": 206.38014400000054,
                    "velocity": 0.4330708661417323,
                    "duration": 0.20804449999999974
                },
                {
                    "name": "A5",
                    "midi": 81,
                    "time": 206.38014400000054,
                    "velocity": 0.5196850393700787,
                    "duration": 0.4160889999999995
                },
                {
                    "name": "C#5",
                    "midi": 73,
                    "time": 206.58818850000054,
                    "velocity": 0.4330708661417323,
                    "duration": 0.20804449999999974
                },
                {
                    "name": "A5",
                    "midi": 81,
                    "time": 206.79623300000054,
                    "velocity": 0.4330708661417323,
                    "duration": 0.20804449999999974
                },
                {
                    "name": "C#6",
                    "midi": 85,
                    "time": 206.79623300000054,
                    "velocity": 0.5275590551181102,
                    "duration": 0.4160889999999995
                },
                {
                    "name": "F#5",
                    "midi": 78,
                    "time": 207.00427750000054,
                    "velocity": 0.4330708661417323,
                    "duration": 0.20804449999999974
                },
                {
                    "name": "A5",
                    "midi": 81,
                    "time": 207.21232200000054,
                    "velocity": 0.5984251968503937,
                    "duration": 0.6241334999999992
                },
                {
                    "name": "C#5",
                    "midi": 73,
                    "time": 207.42036650000054,
                    "velocity": 0.4566929133858268,
                    "duration": 0.20804449999999974
                },
                {
                    "name": "D5",
                    "midi": 74,
                    "time": 207.62841100000054,
                    "velocity": 0.4566929133858268,
                    "duration": 0.20804449999999974
                },
                {
                    "name": "A5",
                    "midi": 81,
                    "time": 207.83645550000054,
                    "velocity": 0.4566929133858268,
                    "duration": 0.20804449999999974
                },
                {
                    "name": "G#5",
                    "midi": 80,
                    "time": 208.04450000000054,
                    "velocity": 0.5905511811023622,
                    "duration": 0.6241334999999992
                },
                {
                    "name": "B4",
                    "midi": 71,
                    "time": 208.25254450000054,
                    "velocity": 0.4409448818897638,
                    "duration": 0.20804449999999974
                },
                {
                    "name": "D5",
                    "midi": 74,
                    "time": 208.46058900000054,
                    "velocity": 0.4409448818897638,
                    "duration": 0.20804449999999974
                },
                {
                    "name": "G#5",
                    "midi": 80,
                    "time": 208.66863350000054,
                    "velocity": 0.4409448818897638,
                    "duration": 0.20804449999999974
                },
                {
                    "name": "F#5",
                    "midi": 78,
                    "time": 208.87667800000054,
                    "velocity": 0.5669291338582677,
                    "duration": 0.6241334999999992
                },
                {
                    "name": "B4",
                    "midi": 71,
                    "time": 209.08472250000054,
                    "velocity": 0.4330708661417323,
                    "duration": 0.20804449999999974
                },
                {
                    "name": "D5",
                    "midi": 74,
                    "time": 209.29276700000054,
                    "velocity": 0.4330708661417323,
                    "duration": 0.20804449999999974
                },
                {
                    "name": "F#5",
                    "midi": 78,
                    "time": 209.50081150000054,
                    "velocity": 0.4330708661417323,
                    "duration": 0.20804449999999974
                },
                {
                    "name": "E5",
                    "midi": 76,
                    "time": 209.70885600000054,
                    "velocity": 0.5590551181102362,
                    "duration": 0.6241334999999992
                },
                {
                    "name": "A4",
                    "midi": 69,
                    "time": 209.91690050000054,
                    "velocity": 0.4094488188976378,
                    "duration": 0.20804449999999974
                },
                {
                    "name": "C#5",
                    "midi": 73,
                    "time": 210.12494500000054,
                    "velocity": 0.4094488188976378,
                    "duration": 0.20804449999999974
                },
                {
                    "name": "E5",
                    "midi": 76,
                    "time": 210.33298950000054,
                    "velocity": 0.4094488188976378,
                    "duration": 0.6241334999999992
                },
                {
                    "name": "C#5",
                    "midi": 73,
                    "time": 210.54103400000054,
                    "velocity": 0.4094488188976378,
                    "duration": 0.20804449999999974
                },
                {
                    "name": "A4",
                    "midi": 69,
                    "time": 210.74907850000054,
                    "velocity": 0.4094488188976378,
                    "duration": 0.20804449999999974
                },
                {
                    "name": "C#5",
                    "midi": 73,
                    "time": 210.95712300000054,
                    "velocity": 0.48031496062992124,
                    "duration": 0.20804449999999974
                },
                {
                    "name": "F#5",
                    "midi": 78,
                    "time": 210.95712300000054,
                    "velocity": 0.48031496062992124,
                    "duration": 0.4160889999999995
                },
                {
                    "name": "A4",
                    "midi": 69,
                    "time": 211.16516750000054,
                    "velocity": 0.41732283464566927,
                    "duration": 0.20804449999999974
                },
                {
                    "name": "F#5",
                    "midi": 78,
                    "time": 211.37321200000054,
                    "velocity": 0.4881889763779528,
                    "duration": 0.20804449999999974
                },
                {
                    "name": "A5",
                    "midi": 81,
                    "time": 211.37321200000054,
                    "velocity": 0.4881889763779528,
                    "duration": 0.4160889999999995
                },
                {
                    "name": "C#5",
                    "midi": 73,
                    "time": 211.58125650000053,
                    "velocity": 0.4251968503937008,
                    "duration": 0.20804449999999974
                },
                {
                    "name": "A5",
                    "midi": 81,
                    "time": 211.78930100000053,
                    "velocity": 0.5039370078740157,
                    "duration": 0.20804449999999974
                },
                {
                    "name": "C#6",
                    "midi": 85,
                    "time": 211.78930100000053,
                    "velocity": 0.5039370078740157,
                    "duration": 0.38141491666667093
                },
                {
                    "name": "F#5",
                    "midi": 78,
                    "time": 211.99734550000053,
                    "velocity": 0.4251968503937008,
                    "duration": 0.1733704166666712
                },
                {
                    "name": "E4",
                    "midi": 64,
                    "time": 212.20539000000053,
                    "velocity": 0.3464566929133858,
                    "duration": 0.20804449999999974
                },
                {
                    "name": "C#5",
                    "midi": 73,
                    "time": 212.20539000000053,
                    "velocity": 0.41732283464566927,
                    "duration": 0.4160889999999995
                },
                {
                    "name": "E5",
                    "midi": 76,
                    "time": 212.20539000000053,
                    "velocity": 0.41732283464566927,
                    "duration": 0.4160889999999995
                },
                {
                    "name": "F#4",
                    "midi": 66,
                    "time": 212.41343450000053,
                    "velocity": 0.3464566929133858,
                    "duration": 0.20804449999999974
                },
                {
                    "name": "A4",
                    "midi": 69,
                    "time": 212.62147900000053,
                    "velocity": 0.3464566929133858,
                    "duration": 0.20804449999999974
                },
                {
                    "name": "C#5",
                    "midi": 73,
                    "time": 212.62147900000053,
                    "velocity": 0.4094488188976378,
                    "duration": 0.38141491666667093
                },
                {
                    "name": "F#4",
                    "midi": 66,
                    "time": 212.82952350000053,
                    "velocity": 0.3464566929133858,
                    "duration": 0.19070745833334968
                },
                {
                    "name": "A4",
                    "midi": 69,
                    "time": 213.03756800000056,
                    "velocity": 0.3464566929133858,
                    "duration": 0.20804449999999974
                },
                {
                    "name": "C#5",
                    "midi": 73,
                    "time": 213.03756800000056,
                    "velocity": 0.4094488188976378,
                    "duration": 0.7975039166666704
                },
                {
                    "name": "F#4",
                    "midi": 66,
                    "time": 213.24561250000056,
                    "velocity": 0.3464566929133858,
                    "duration": 0.20804449999999974
                },
                {
                    "name": "A4",
                    "midi": 69,
                    "time": 213.45365700000056,
                    "velocity": 0.36220472440944884,
                    "duration": 0.20804449999999974
                },
                {
                    "name": "F#4",
                    "midi": 66,
                    "time": 213.66170150000056,
                    "velocity": 0.3464566929133858,
                    "duration": 0.19070745833334968
                },
                {
                    "name": "F#4",
                    "midi": 66,
                    "time": 213.8697460000006,
                    "velocity": 0.3464566929133858,
                    "duration": 0.20804449999999974
                },
                {
                    "name": "A4",
                    "midi": 69,
                    "time": 213.8697460000006,
                    "velocity": 0.41732283464566927,
                    "duration": 0.4160889999999995
                },
                {
                    "name": "D4",
                    "midi": 62,
                    "time": 214.0777905000006,
                    "velocity": 0.3464566929133858,
                    "duration": 0.20804449999999974
                },
                {
                    "name": "A4",
                    "midi": 69,
                    "time": 214.2858350000006,
                    "velocity": 0.3464566929133858,
                    "duration": 0.20804449999999974
                },
                {
                    "name": "C#5",
                    "midi": 73,
                    "time": 214.2858350000006,
                    "velocity": 0.41732283464566927,
                    "duration": 0.4160889999999995
                },
                {
                    "name": "D4",
                    "midi": 62,
                    "time": 214.4938795000006,
                    "velocity": 0.3464566929133858,
                    "duration": 0.20804449999999974
                },
                {
                    "name": "G#4",
                    "midi": 68,
                    "time": 214.7019240000006,
                    "velocity": 0.3464566929133858,
                    "duration": 0.20804449999999974
                },
                {
                    "name": "B4",
                    "midi": 71,
                    "time": 214.7019240000006,
                    "velocity": 0.4409448818897638,
                    "duration": 0.4160889999999995
                },
                {
                    "name": "D4",
                    "midi": 62,
                    "time": 214.9099685000006,
                    "velocity": 0.3464566929133858,
                    "duration": 0.20804449999999974
                },
                {
                    "name": "G#4",
                    "midi": 68,
                    "time": 215.1180130000006,
                    "velocity": 0.3464566929133858,
                    "duration": 0.20804449999999974
                },
                {
                    "name": "B4",
                    "midi": 71,
                    "time": 215.1180130000006,
                    "velocity": 0.4015748031496063,
                    "duration": 0.20804449999999974
                },
                {
                    "name": "F4",
                    "midi": 65,
                    "time": 215.3260575000006,
                    "velocity": 0.30708661417322836,
                    "duration": 0.20804449999999974
                },
                {
                    "name": "A4",
                    "midi": 69,
                    "time": 215.3260575000006,
                    "velocity": 0.3779527559055118,
                    "duration": 0.20804449999999974
                },
                {
                    "name": "G#4",
                    "midi": 68,
                    "time": 215.5341020000006,
                    "velocity": 0.3464566929133858,
                    "duration": 0.20804449999999974
                },
                {
                    "name": "B4",
                    "midi": 71,
                    "time": 215.5341020000006,
                    "velocity": 0.4015748031496063,
                    "duration": 0.832177999999999
                },
                {
                    "name": "D4",
                    "midi": 62,
                    "time": 215.7421465000006,
                    "velocity": 0.3464566929133858,
                    "duration": 0.20804449999999974
                },
                {
                    "name": "G#4",
                    "midi": 68,
                    "time": 215.9501910000006,
                    "velocity": 0.3464566929133858,
                    "duration": 0.20804449999999974
                },
                {
                    "name": "D4",
                    "midi": 62,
                    "time": 216.1582355000006,
                    "velocity": 0.3464566929133858,
                    "duration": 0.20804449999999974
                },
                {
                    "name": "G#4",
                    "midi": 68,
                    "time": 216.3662800000006,
                    "velocity": 0.4094488188976378,
                    "duration": 0.4160889999999995
                },
                {
                    "name": "D4",
                    "midi": 62,
                    "time": 216.57432450000059,
                    "velocity": 0.3464566929133858,
                    "duration": 0.20804449999999974
                },
                {
                    "name": "B4",
                    "midi": 71,
                    "time": 216.78236900000059,
                    "velocity": 0.4094488188976378,
                    "duration": 0.4160889999999995
                },
                {
                    "name": "G#4",
                    "midi": 68,
                    "time": 216.78236900000059,
                    "velocity": 0.3779527559055118,
                    "duration": 0.20804449999999974
                },
                {
                    "name": "D4",
                    "midi": 62,
                    "time": 216.99041350000059,
                    "velocity": 0.3464566929133858,
                    "duration": 0.20804449999999974
                },
                {
                    "name": "E4",
                    "midi": 64,
                    "time": 217.19845800000058,
                    "velocity": 0.3543307086614173,
                    "duration": 0.20804449999999974
                },
                {
                    "name": "C#5",
                    "midi": 73,
                    "time": 217.19845800000058,
                    "velocity": 0.4251968503937008,
                    "duration": 0.4160889999999995
                },
                {
                    "name": "E5",
                    "midi": 76,
                    "time": 217.19845800000058,
                    "velocity": 0.4251968503937008,
                    "duration": 0.4160889999999995
                },
                {
                    "name": "F#4",
                    "midi": 66,
                    "time": 217.40650250000058,
                    "velocity": 0.3543307086614173,
                    "duration": 0.20804449999999974
                },
                {
                    "name": "A4",
                    "midi": 69,
                    "time": 217.61454700000058,
                    "velocity": 0.3464566929133858,
                    "duration": 0.20804449999999974
                },
                {
                    "name": "C#5",
                    "midi": 73,
                    "time": 217.61454700000058,
                    "velocity": 0.4094488188976378,
                    "duration": 0.38141491666667093
                },
                {
                    "name": "F#4",
                    "midi": 66,
                    "time": 217.82259150000058,
                    "velocity": 0.3464566929133858,
                    "duration": 0.19070745833334968
                },
                {
                    "name": "A4",
                    "midi": 69,
                    "time": 218.0306360000006,
                    "velocity": 0.3464566929133858,
                    "duration": 0.20804449999999974
                },
                {
                    "name": "C#5",
                    "midi": 73,
                    "time": 218.0306360000006,
                    "velocity": 0.4094488188976378,
                    "duration": 0.7975039166666704
                },
                {
                    "name": "F#4",
                    "midi": 66,
                    "time": 218.2386805000006,
                    "velocity": 0.3464566929133858,
                    "duration": 0.20804449999999974
                },
                {
                    "name": "A4",
                    "midi": 69,
                    "time": 218.4467250000006,
                    "velocity": 0.36220472440944884,
                    "duration": 0.20804449999999974
                },
                {
                    "name": "F#4",
                    "midi": 66,
                    "time": 218.6547695000006,
                    "velocity": 0.3464566929133858,
                    "duration": 0.19070745833334968
                },
                {
                    "name": "A4",
                    "midi": 69,
                    "time": 218.86281400000064,
                    "velocity": 0.41732283464566927,
                    "duration": 0.4160889999999995
                },
                {
                    "name": "F#4",
                    "midi": 66,
                    "time": 218.86281400000064,
                    "velocity": 0.3464566929133858,
                    "duration": 0.20804449999999974
                },
                {
                    "name": "D4",
                    "midi": 62,
                    "time": 219.07085850000064,
                    "velocity": 0.3464566929133858,
                    "duration": 0.20804449999999974
                },
                {
                    "name": "A4",
                    "midi": 69,
                    "time": 219.27890300000064,
                    "velocity": 0.3464566929133858,
                    "duration": 0.20804449999999974
                },
                {
                    "name": "C#5",
                    "midi": 73,
                    "time": 219.27890300000064,
                    "velocity": 0.41732283464566927,
                    "duration": 0.4160889999999995
                },
                {
                    "name": "D4",
                    "midi": 62,
                    "time": 219.48694750000064,
                    "velocity": 0.3464566929133858,
                    "duration": 0.20804449999999974
                },
                {
                    "name": "B4",
                    "midi": 71,
                    "time": 219.69499200000064,
                    "velocity": 0.3464566929133858,
                    "duration": 0.20804449999999974
                },
                {
                    "name": "D5",
                    "midi": 74,
                    "time": 219.69499200000064,
                    "velocity": 0.4409448818897638,
                    "duration": 1.664355999999998
                },
                {
                    "name": "F#4",
                    "midi": 66,
                    "time": 219.90303650000064,
                    "velocity": 0.3464566929133858,
                    "duration": 0.20804449999999974
                },
                {
                    "name": "B4",
                    "midi": 71,
                    "time": 220.11108100000064,
                    "velocity": 0.3700787401574803,
                    "duration": 0.20804449999999974
                },
                {
                    "name": "F#4",
                    "midi": 66,
                    "time": 220.31912550000064,
                    "velocity": 0.33858267716535434,
                    "duration": 0.20804449999999974
                },
                {
                    "name": "B4",
                    "midi": 71,
                    "time": 220.52717000000064,
                    "velocity": 0.36220472440944884,
                    "duration": 0.20804449999999974
                },
                {
                    "name": "F#4",
                    "midi": 66,
                    "time": 220.73521450000064,
                    "velocity": 0.33858267716535434,
                    "duration": 0.20804449999999974
                },
                {
                    "name": "B4",
                    "midi": 71,
                    "time": 220.94325900000064,
                    "velocity": 0.36220472440944884,
                    "duration": 0.20804449999999974
                },
                {
                    "name": "F#4",
                    "midi": 66,
                    "time": 221.15130350000064,
                    "velocity": 0.33858267716535434,
                    "duration": 0.20804449999999974
                },
                {
                    "name": "F#4",
                    "midi": 66,
                    "time": 221.35934800000064,
                    "velocity": 0.4409448818897638,
                    "duration": 0.20804449999999974
                },
                {
                    "name": "B4",
                    "midi": 71,
                    "time": 221.35934800000064,
                    "velocity": 0.4409448818897638,
                    "duration": 0.4160889999999995
                },
                {
                    "name": "D4",
                    "midi": 62,
                    "time": 221.56739250000064,
                    "velocity": 0.3700787401574803,
                    "duration": 0.20804449999999974
                },
                {
                    "name": "B4",
                    "midi": 71,
                    "time": 221.77543700000064,
                    "velocity": 0.4645669291338583,
                    "duration": 0.20804449999999974
                },
                {
                    "name": "D5",
                    "midi": 74,
                    "time": 221.77543700000064,
                    "velocity": 0.4645669291338583,
                    "duration": 0.38141491666667093
                },
                {
                    "name": "F#4",
                    "midi": 66,
                    "time": 221.98348150000064,
                    "velocity": 0.4015748031496063,
                    "duration": 0.1733704166666712
                },
                {
                    "name": "D5",
                    "midi": 74,
                    "time": 222.19152600000064,
                    "velocity": 0.3779527559055118,
                    "duration": 0.20804449999999974
                },
                {
                    "name": "F#5",
                    "midi": 78,
                    "time": 222.19152600000064,
                    "velocity": 0.47244094488188976,
                    "duration": 0.4160889999999995
                },
                {
                    "name": "B4",
                    "midi": 71,
                    "time": 222.39957050000064,
                    "velocity": 0.3700787401574803,
                    "duration": 0.20804449999999974
                },
                {
                    "name": "F#4",
                    "midi": 66,
                    "time": 222.60761500000064,
                    "velocity": 0.3543307086614173,
                    "duration": 0.20804449999999974
                },
                {
                    "name": "D5",
                    "midi": 74,
                    "time": 222.60761500000064,
                    "velocity": 0.4409448818897638,
                    "duration": 0.38141491666667093
                },
                {
                    "name": "B4",
                    "midi": 71,
                    "time": 222.81565950000063,
                    "velocity": 0.3700787401574803,
                    "duration": 0.19070745833334968
                },
                {
                    "name": "D5",
                    "midi": 74,
                    "time": 223.02370400000066,
                    "velocity": 0.4409448818897638,
                    "duration": 0.7975039166666704
                },
                {
                    "name": "B4",
                    "midi": 71,
                    "time": 223.23174850000066,
                    "velocity": 0.3700787401574803,
                    "duration": 0.20804449999999974
                },
                {
                    "name": "F#4",
                    "midi": 66,
                    "time": 223.43979300000066,
                    "velocity": 0.3937007874015748,
                    "duration": 0.20804449999999974
                },
                {
                    "name": "B4",
                    "midi": 71,
                    "time": 223.64783750000066,
                    "velocity": 0.3700787401574803,
                    "duration": 0.19070745833334968
                },
                {
                    "name": "C#5",
                    "midi": 73,
                    "time": 223.8558820000007,
                    "velocity": 0.4409448818897638,
                    "duration": 0.20804449999999974
                },
                {
                    "name": "E5",
                    "midi": 76,
                    "time": 223.8558820000007,
                    "velocity": 0.4409448818897638,
                    "duration": 0.4160889999999995
                },
                {
                    "name": "B4",
                    "midi": 71,
                    "time": 224.0639265000007,
                    "velocity": 0.3700787401574803,
                    "duration": 0.20804449999999974
                },
                {
                    "name": "D5",
                    "midi": 74,
                    "time": 224.2719710000007,
                    "velocity": 0.44881889763779526,
                    "duration": 0.20804449999999974
                },
                {
                    "name": "F#5",
                    "midi": 78,
                    "time": 224.2719710000007,
                    "velocity": 0.44881889763779526,
                    "duration": 0.4160889999999995
                },
                {
                    "name": "B4",
                    "midi": 71,
                    "time": 224.4800155000007,
                    "velocity": 0.3700787401574803,
                    "duration": 0.20804449999999974
                },
                {
                    "name": "F5",
                    "midi": 77,
                    "time": 224.6880600000007,
                    "velocity": 0.48031496062992124,
                    "duration": 0.20804449999999974
                },
                {
                    "name": "G#5",
                    "midi": 80,
                    "time": 224.6880600000007,
                    "velocity": 0.48031496062992124,
                    "duration": 0.4160889999999995
                },
                {
                    "name": "B4",
                    "midi": 71,
                    "time": 224.8961045000007,
                    "velocity": 0.44881889763779526,
                    "duration": 0.6241334999999992
                },
                {
                    "name": "F5",
                    "midi": 77,
                    "time": 225.1041490000007,
                    "velocity": 0.44881889763779526,
                    "duration": 0.20804449999999974
                },
                {
                    "name": "G#5",
                    "midi": 80,
                    "time": 225.1041490000007,
                    "velocity": 0.44881889763779526,
                    "duration": 0.20804449999999974
                },
                {
                    "name": "D#5",
                    "midi": 75,
                    "time": 225.3121935000007,
                    "velocity": 0.44881889763779526,
                    "duration": 0.20804449999999974
                },
                {
                    "name": "F#5",
                    "midi": 78,
                    "time": 225.3121935000007,
                    "velocity": 0.44881889763779526,
                    "duration": 0.20804449999999974
                },
                {
                    "name": "F5",
                    "midi": 77,
                    "time": 225.5202380000007,
                    "velocity": 0.4330708661417323,
                    "duration": 0.20804449999999974
                },
                {
                    "name": "G#5",
                    "midi": 80,
                    "time": 225.5202380000007,
                    "velocity": 0.47244094488188976,
                    "duration": 0.38141491666667093
                },
                {
                    "name": "B4",
                    "midi": 71,
                    "time": 225.7282825000007,
                    "velocity": 0.3937007874015748,
                    "duration": 0.1733704166666712
                },
                {
                    "name": "C#5",
                    "midi": 73,
                    "time": 225.9363270000007,
                    "velocity": 0.4330708661417323,
                    "duration": 0.20804449999999974
                },
                {
                    "name": "F5",
                    "midi": 77,
                    "time": 225.9363270000007,
                    "velocity": 0.48031496062992124,
                    "duration": 0.4160889999999995
                },
                {
                    "name": "B4",
                    "midi": 71,
                    "time": 226.1443715000007,
                    "velocity": 0.3937007874015748,
                    "duration": 0.20804449999999974
                },
                {
                    "name": "D#5",
                    "midi": 75,
                    "time": 226.3524160000007,
                    "velocity": 0.4566929133858268,
                    "duration": 0.20804449999999974
                },
                {
                    "name": "F#5",
                    "midi": 78,
                    "time": 226.3524160000007,
                    "velocity": 0.5118110236220472,
                    "duration": 0.4160889999999995
                },
                {
                    "name": "B4",
                    "midi": 71,
                    "time": 226.5604605000007,
                    "velocity": 0.3937007874015748,
                    "duration": 0.20804449999999974
                },
                {
                    "name": "F5",
                    "midi": 77,
                    "time": 226.7685050000007,
                    "velocity": 0.4566929133858268,
                    "duration": 0.20804449999999974
                },
                {
                    "name": "G#5",
                    "midi": 80,
                    "time": 226.7685050000007,
                    "velocity": 0.5433070866141733,
                    "duration": 0.4160889999999995
                },
                {
                    "name": "B4",
                    "midi": 71,
                    "time": 226.9765495000007,
                    "velocity": 0.3937007874015748,
                    "duration": 0.20804449999999974
                },
                {
                    "name": "F#5",
                    "midi": 78,
                    "time": 227.1845940000007,
                    "velocity": 0.4645669291338583,
                    "duration": 0.20804449999999974
                },
                {
                    "name": "A5",
                    "midi": 81,
                    "time": 227.1845940000007,
                    "velocity": 0.5826771653543307,
                    "duration": 0.4160889999999995
                },
                {
                    "name": "C#5",
                    "midi": 73,
                    "time": 227.3926385000007,
                    "velocity": 0.4015748031496063,
                    "duration": 0.20804449999999974
                },
                {
                    "name": "C#5",
                    "midi": 73,
                    "time": 227.60068300000069,
                    "velocity": 0.3937007874015748,
                    "duration": 0.20804449999999974
                },
                {
                    "name": "F#5",
                    "midi": 78,
                    "time": 227.60068300000069,
                    "velocity": 0.5748031496062992,
                    "duration": 0.38141491666667093
                },
                {
                    "name": "A4",
                    "midi": 69,
                    "time": 227.80872750000069,
                    "velocity": 0.4015748031496063,
                    "duration": 0.19070745833334968
                },
                {
                    "name": "C#5",
                    "midi": 73,
                    "time": 228.0167720000007,
                    "velocity": 0.4409448818897638,
                    "duration": 0.20804449999999974
                },
                {
                    "name": "F#5",
                    "midi": 78,
                    "time": 228.0167720000007,
                    "velocity": 0.5748031496062992,
                    "duration": 0.7975039166666704
                },
                {
                    "name": "A4",
                    "midi": 69,
                    "time": 228.2248165000007,
                    "velocity": 0.4015748031496063,
                    "duration": 0.20804449999999974
                },
                {
                    "name": "C#5",
                    "midi": 73,
                    "time": 228.4328610000007,
                    "velocity": 0.4409448818897638,
                    "duration": 0.20804449999999974
                },
                {
                    "name": "A4",
                    "midi": 69,
                    "time": 228.6409055000007,
                    "velocity": 0.4015748031496063,
                    "duration": 0.19070745833334968
                },
                {
                    "name": "F#5",
                    "midi": 78,
                    "time": 228.84895000000074,
                    "velocity": 0.6141732283464567,
                    "duration": 0.20804449999999974
                },
                {
                    "name": "A5",
                    "midi": 81,
                    "time": 228.84895000000074,
                    "velocity": 0.6141732283464567,
                    "duration": 0.4160889999999995
                },
                {
                    "name": "C#5",
                    "midi": 73,
                    "time": 229.05699450000074,
                    "velocity": 0.5118110236220472,
                    "duration": 0.20804449999999974
                },
                {
                    "name": "A5",
                    "midi": 81,
                    "time": 229.26503900000074,
                    "velocity": 0.6220472440944882,
                    "duration": 0.20804449999999974
                },
                {
                    "name": "C#6",
                    "midi": 85,
                    "time": 229.26503900000074,
                    "velocity": 0.6220472440944882,
                    "duration": 0.4160889999999995
                },
                {
                    "name": "F#5",
                    "midi": 78,
                    "time": 229.47308350000074,
                    "velocity": 0.5118110236220472,
                    "duration": 0.20804449999999974
                },
                {
                    "name": "D6",
                    "midi": 86,
                    "time": 229.68112800000074,
                    "velocity": 0.7007874015748031,
                    "duration": 3.328711999999996
                },
                {
                    "name": "F#5",
                    "midi": 78,
                    "time": 229.68112800000074,
                    "velocity": 0.49606299212598426,
                    "duration": 0.20804449999999974
                },
                {
                    "name": "A5",
                    "midi": 81,
                    "time": 229.68112800000074,
                    "velocity": 0.49606299212598426,
                    "duration": 0.20804449999999974
                },
                {
                    "name": "D5",
                    "midi": 74,
                    "time": 229.88917250000074,
                    "velocity": 0.3543307086614173,
                    "duration": 0.20804449999999974
                },
                {
                    "name": "F#5",
                    "midi": 78,
                    "time": 230.09721700000074,
                    "velocity": 0.3543307086614173,
                    "duration": 0.20804449999999974
                },
                {
                    "name": "A5",
                    "midi": 81,
                    "time": 230.09721700000074,
                    "velocity": 0.3543307086614173,
                    "duration": 0.20804449999999974
                },
                {
                    "name": "D5",
                    "midi": 74,
                    "time": 230.30526150000074,
                    "velocity": 0.36220472440944884,
                    "duration": 0.20804449999999974
                },
                {
                    "name": "F#5",
                    "midi": 78,
                    "time": 230.51330600000074,
                    "velocity": 0.3700787401574803,
                    "duration": 0.20804449999999974
                },
                {
                    "name": "A5",
                    "midi": 81,
                    "time": 230.51330600000074,
                    "velocity": 0.3700787401574803,
                    "duration": 0.20804449999999974
                },
                {
                    "name": "D5",
                    "midi": 74,
                    "time": 230.72135050000074,
                    "velocity": 0.3779527559055118,
                    "duration": 0.20804449999999974
                },
                {
                    "name": "A5",
                    "midi": 81,
                    "time": 230.92939500000074,
                    "velocity": 0.3779527559055118,
                    "duration": 0.20804449999999974
                },
                {
                    "name": "F#5",
                    "midi": 78,
                    "time": 230.92939500000074,
                    "velocity": 0.3779527559055118,
                    "duration": 0.20804449999999974
                },
                {
                    "name": "D5",
                    "midi": 74,
                    "time": 231.13743950000074,
                    "velocity": 0.3779527559055118,
                    "duration": 0.20804449999999974
                },
                {
                    "name": "A5",
                    "midi": 81,
                    "time": 231.34548400000074,
                    "velocity": 0.3858267716535433,
                    "duration": 0.20804449999999974
                },
                {
                    "name": "F#5",
                    "midi": 78,
                    "time": 231.34548400000074,
                    "velocity": 0.3858267716535433,
                    "duration": 0.20804449999999974
                },
                {
                    "name": "D5",
                    "midi": 74,
                    "time": 231.55352850000074,
                    "velocity": 0.3937007874015748,
                    "duration": 0.20804449999999974
                },
                {
                    "name": "F#5",
                    "midi": 78,
                    "time": 231.76157300000074,
                    "velocity": 0.3937007874015748,
                    "duration": 0.20804449999999974
                },
                {
                    "name": "A5",
                    "midi": 81,
                    "time": 231.76157300000074,
                    "velocity": 0.3937007874015748,
                    "duration": 0.20804449999999974
                },
                {
                    "name": "D5",
                    "midi": 74,
                    "time": 231.96961750000074,
                    "velocity": 0.4015748031496063,
                    "duration": 0.20804449999999974
                },
                {
                    "name": "F#5",
                    "midi": 78,
                    "time": 232.17766200000074,
                    "velocity": 0.36220472440944884,
                    "duration": 0.20804449999999974
                },
                {
                    "name": "A5",
                    "midi": 81,
                    "time": 232.17766200000074,
                    "velocity": 0.36220472440944884,
                    "duration": 0.20804449999999974
                },
                {
                    "name": "D5",
                    "midi": 74,
                    "time": 232.38570650000074,
                    "velocity": 0.33858267716535434,
                    "duration": 0.20804449999999974
                },
                {
                    "name": "F#5",
                    "midi": 78,
                    "time": 232.59375100000074,
                    "velocity": 0.3779527559055118,
                    "duration": 0.20804449999999974
                },
                {
                    "name": "A5",
                    "midi": 81,
                    "time": 232.59375100000074,
                    "velocity": 0.3779527559055118,
                    "duration": 0.20804449999999974
                },
                {
                    "name": "D5",
                    "midi": 74,
                    "time": 232.80179550000074,
                    "velocity": 0.33858267716535434,
                    "duration": 0.20804449999999974
                },
                {
                    "name": "A5",
                    "midi": 81,
                    "time": 233.00984000000074,
                    "velocity": 0.3228346456692913,
                    "duration": 0.20804449999999974
                },
                {
                    "name": "D6",
                    "midi": 86,
                    "time": 233.00984000000074,
                    "velocity": 0.3228346456692913,
                    "duration": 0.20804449999999974
                },
                {
                    "name": "E6",
                    "midi": 88,
                    "time": 233.00984000000074,
                    "velocity": 0.4645669291338583,
                    "duration": 0.832177999999999
                },
                {
                    "name": "E5",
                    "midi": 76,
                    "time": 233.21788450000074,
                    "velocity": 0.29133858267716534,
                    "duration": 0.20804449999999974
                },
                {
                    "name": "A5",
                    "midi": 81,
                    "time": 233.42592900000074,
                    "velocity": 0.33858267716535434,
                    "duration": 0.20804449999999974
                },
                {
                    "name": "D6",
                    "midi": 86,
                    "time": 233.42592900000074,
                    "velocity": 0.33858267716535434,
                    "duration": 0.20804449999999974
                },
                {
                    "name": "E5",
                    "midi": 76,
                    "time": 233.63397350000074,
                    "velocity": 0.31496062992125984,
                    "duration": 0.20804449999999974
                },
                {
                    "name": "A5",
                    "midi": 81,
                    "time": 233.84201800000073,
                    "velocity": 0.3543307086614173,
                    "duration": 0.20804449999999974
                },
                {
                    "name": "D6",
                    "midi": 86,
                    "time": 233.84201800000073,
                    "velocity": 0.3543307086614173,
                    "duration": 0.20804449999999974
                },
                {
                    "name": "F#6",
                    "midi": 90,
                    "time": 233.84201800000073,
                    "velocity": 0.5275590551181102,
                    "duration": 0.832177999999999
                },
                {
                    "name": "F#5",
                    "midi": 78,
                    "time": 234.05006250000073,
                    "velocity": 0.33070866141732286,
                    "duration": 0.20804449999999974
                },
                {
                    "name": "D6",
                    "midi": 86,
                    "time": 234.25810700000073,
                    "velocity": 0.3779527559055118,
                    "duration": 0.20804449999999974
                },
                {
                    "name": "A5",
                    "midi": 81,
                    "time": 234.25810700000073,
                    "velocity": 0.3779527559055118,
                    "duration": 0.20804449999999974
                },
                {
                    "name": "F#5",
                    "midi": 78,
                    "time": 234.46615150000073,
                    "velocity": 0.3464566929133858,
                    "duration": 0.20804449999999974
                },
                {
                    "name": "A5",
                    "midi": 81,
                    "time": 234.67419600000073,
                    "velocity": 0.33070866141732286,
                    "duration": 0.20804449999999974
                },
                {
                    "name": "D6",
                    "midi": 86,
                    "time": 234.67419600000073,
                    "velocity": 0.33070866141732286,
                    "duration": 0.20804449999999974
                },
                {
                    "name": "F#6",
                    "midi": 90,
                    "time": 234.67419600000073,
                    "velocity": 0.5433070866141733,
                    "duration": 3.328711999999996
                },
                {
                    "name": "F#5",
                    "midi": 78,
                    "time": 234.88224050000073,
                    "velocity": 0.2992125984251969,
                    "duration": 0.20804449999999974
                },
                {
                    "name": "A5",
                    "midi": 81,
                    "time": 235.09028500000073,
                    "velocity": 0.33070866141732286,
                    "duration": 0.20804449999999974
                },
                {
                    "name": "D6",
                    "midi": 86,
                    "time": 235.09028500000073,
                    "velocity": 0.33070866141732286,
                    "duration": 0.20804449999999974
                },
                {
                    "name": "F#5",
                    "midi": 78,
                    "time": 235.29832950000073,
                    "velocity": 0.29133858267716534,
                    "duration": 0.20804449999999974
                },
                {
                    "name": "A5",
                    "midi": 81,
                    "time": 235.50637400000073,
                    "velocity": 0.30708661417322836,
                    "duration": 0.20804449999999974
                },
                {
                    "name": "D6",
                    "midi": 86,
                    "time": 235.50637400000073,
                    "velocity": 0.30708661417322836,
                    "duration": 0.20804449999999974
                },
                {
                    "name": "F#5",
                    "midi": 78,
                    "time": 235.71441850000073,
                    "velocity": 0.28346456692913385,
                    "duration": 0.20804449999999974
                },
                {
                    "name": "A5",
                    "midi": 81,
                    "time": 235.92246300000073,
                    "velocity": 0.2992125984251969,
                    "duration": 0.20804449999999974
                },
                {
                    "name": "D6",
                    "midi": 86,
                    "time": 235.92246300000073,
                    "velocity": 0.2992125984251969,
                    "duration": 0.20804449999999974
                },
                {
                    "name": "F#5",
                    "midi": 78,
                    "time": 236.13050750000073,
                    "velocity": 0.2677165354330709,
                    "duration": 0.20804449999999974
                },
                {
                    "name": "A5",
                    "midi": 81,
                    "time": 236.33855200000073,
                    "velocity": 0.28346456692913385,
                    "duration": 0.20804449999999974
                },
                {
                    "name": "D6",
                    "midi": 86,
                    "time": 236.33855200000073,
                    "velocity": 0.28346456692913385,
                    "duration": 0.20804449999999974
                },
                {
                    "name": "F#5",
                    "midi": 78,
                    "time": 236.54659650000073,
                    "velocity": 0.25196850393700787,
                    "duration": 0.20804449999999974
                },
                {
                    "name": "A5",
                    "midi": 81,
                    "time": 236.75464100000073,
                    "velocity": 0.2677165354330709,
                    "duration": 0.20804449999999974
                },
                {
                    "name": "D6",
                    "midi": 86,
                    "time": 236.75464100000073,
                    "velocity": 0.2677165354330709,
                    "duration": 0.20804449999999974
                },
                {
                    "name": "F#5",
                    "midi": 78,
                    "time": 236.96268550000073,
                    "velocity": 0.2440944881889764,
                    "duration": 0.20804449999999974
                },
                {
                    "name": "D6",
                    "midi": 86,
                    "time": 237.17073000000073,
                    "velocity": 0.2755905511811024,
                    "duration": 0.20804449999999974
                },
                {
                    "name": "A5",
                    "midi": 81,
                    "time": 237.17073000000073,
                    "velocity": 0.2755905511811024,
                    "duration": 0.20804449999999974
                },
                {
                    "name": "F#5",
                    "midi": 78,
                    "time": 237.37877450000073,
                    "velocity": 0.2677165354330709,
                    "duration": 0.20804449999999974
                },
                {
                    "name": "D6",
                    "midi": 86,
                    "time": 237.58681900000073,
                    "velocity": 0.25984251968503935,
                    "duration": 0.20804449999999974
                },
                {
                    "name": "A5",
                    "midi": 81,
                    "time": 237.58681900000073,
                    "velocity": 0.25984251968503935,
                    "duration": 0.20804449999999974
                },
                {
                    "name": "F#5",
                    "midi": 78,
                    "time": 237.79486350000073,
                    "velocity": 0.2677165354330709,
                    "duration": 0.20804449999999974
                },
                {
                    "name": "D6",
                    "midi": 86,
                    "time": 238.00290800000073,
                    "velocity": 0.3858267716535433,
                    "duration": 0.832177999999999
                },
                {
                    "name": "F#5",
                    "midi": 78,
                    "time": 238.00290800000073,
                    "velocity": 0.25984251968503935,
                    "duration": 0.20804449999999974
                },
                {
                    "name": "A5",
                    "midi": 81,
                    "time": 238.00290800000073,
                    "velocity": 0.25984251968503935,
                    "duration": 0.20804449999999974
                },
                {
                    "name": "D5",
                    "midi": 74,
                    "time": 238.21095250000073,
                    "velocity": 0.23622047244094488,
                    "duration": 0.20804449999999974
                },
                {
                    "name": "F#5",
                    "midi": 78,
                    "time": 238.41899700000073,
                    "velocity": 0.2204724409448819,
                    "duration": 0.20804449999999974
                },
                {
                    "name": "A5",
                    "midi": 81,
                    "time": 238.41899700000073,
                    "velocity": 0.2204724409448819,
                    "duration": 0.20804449999999974
                },
                {
                    "name": "D5",
                    "midi": 74,
                    "time": 238.62704150000073,
                    "velocity": 0.23622047244094488,
                    "duration": 0.20804449999999974
                },
                {
                    "name": "F#6",
                    "midi": 90,
                    "time": 238.83508600000073,
                    "velocity": 0.4094488188976378,
                    "duration": 0.832177999999999
                },
                {
                    "name": "B5",
                    "midi": 83,
                    "time": 238.83508600000073,
                    "velocity": 0.25984251968503935,
                    "duration": 0.20804449999999974
                },
                {
                    "name": "D6",
                    "midi": 86,
                    "time": 238.83508600000073,
                    "velocity": 0.25984251968503935,
                    "duration": 0.20804449999999974
                },
                {
                    "name": "F#5",
                    "midi": 78,
                    "time": 239.04313050000073,
                    "velocity": 0.23622047244094488,
                    "duration": 0.20804449999999974
                },
                {
                    "name": "B5",
                    "midi": 83,
                    "time": 239.25117500000073,
                    "velocity": 0.2204724409448819,
                    "duration": 0.20804449999999974
                },
                {
                    "name": "D6",
                    "midi": 86,
                    "time": 239.25117500000073,
                    "velocity": 0.2204724409448819,
                    "duration": 0.20804449999999974
                },
                {
                    "name": "F#5",
                    "midi": 78,
                    "time": 239.45921950000073,
                    "velocity": 0.23622047244094488,
                    "duration": 0.20804449999999974
                },
                {
                    "name": "A6",
                    "midi": 93,
                    "time": 239.66726400000073,
                    "velocity": 0.3228346456692913,
                    "duration": 0.1560333749999927
                },
                {
                    "name": "E6",
                    "midi": 88,
                    "time": 239.66726400000073,
                    "velocity": 0.3228346456692913,
                    "duration": 0.1560333749999927
                },
                {
                    "name": "A5",
                    "midi": 81,
                    "time": 239.66726400000073,
                    "velocity": 0.3228346456692913,
                    "duration": 0.1560333749999927
                },
                {
                    "name": "E4",
                    "midi": 64,
                    "time": 240.08335300000073,
                    "velocity": 0.25984251968503935,
                    "duration": 0.20804449999999974
                },
                {
                    "name": "A4",
                    "midi": 69,
                    "time": 240.08335300000073,
                    "velocity": 0.25984251968503935,
                    "duration": 0.20804449999999974
                },
                {
                    "name": "D4",
                    "midi": 62,
                    "time": 240.29139750000073,
                    "velocity": 0.25984251968503935,
                    "duration": 0.20804449999999974
                },
                {
                    "name": "A4",
                    "midi": 69,
                    "time": 240.49944200000073,
                    "velocity": 0.29133858267716534,
                    "duration": 0.05201112500000704
                },
                {
                    "name": "E4",
                    "midi": 64,
                    "time": 240.49944200000073,
                    "velocity": 0.29133858267716534,
                    "duration": 0.05201112500000704
                },
                {
                    "name": "E4",
                    "midi": 64,
                    "time": 240.91553100000073,
                    "velocity": 0.25984251968503935,
                    "duration": 0.10402225000001408
                },
                {
                    "name": "A4",
                    "midi": 69,
                    "time": 240.91553100000073,
                    "velocity": 0.25984251968503935,
                    "duration": 0.10402225000001408
                },
                {
                    "name": "B5",
                    "midi": 83,
                    "time": 241.74770900000075,
                    "velocity": 0.2677165354330709,
                    "duration": 0.10402225000001408
                },
                {
                    "name": "G5",
                    "midi": 79,
                    "time": 241.74770900000075,
                    "velocity": 0.2677165354330709,
                    "duration": 0.10402225000001408
                },
                {
                    "name": "B4",
                    "midi": 71,
                    "time": 241.74770900000075,
                    "velocity": 0.2677165354330709,
                    "duration": 0.10402225000001408
                },
                {
                    "name": "C6",
                    "midi": 84,
                    "time": 242.16379800000078,
                    "velocity": 0.3228346456692913,
                    "duration": 0.10402225000001408
                },
                {
                    "name": "G5",
                    "midi": 79,
                    "time": 242.16379800000078,
                    "velocity": 0.3228346456692913,
                    "duration": 0.10402225000001408
                },
                {
                    "name": "C5",
                    "midi": 72,
                    "time": 242.16379800000078,
                    "velocity": 0.3228346456692913,
                    "duration": 0.10402225000001408
                },
                {
                    "name": "G4",
                    "midi": 67,
                    "time": 242.5798870000008,
                    "velocity": 0.25984251968503935,
                    "duration": 0.20804449999999974
                },
                {
                    "name": "C5",
                    "midi": 72,
                    "time": 242.5798870000008,
                    "velocity": 0.25984251968503935,
                    "duration": 0.20804449999999974
                },
                {
                    "name": "F4",
                    "midi": 65,
                    "time": 242.7879315000008,
                    "velocity": 0.25984251968503935,
                    "duration": 0.20804449999999974
                },
                {
                    "name": "G4",
                    "midi": 67,
                    "time": 242.9959760000008,
                    "velocity": 0.28346456692913385,
                    "duration": 0.05201112500000704
                },
                {
                    "name": "C5",
                    "midi": 72,
                    "time": 242.9959760000008,
                    "velocity": 0.28346456692913385,
                    "duration": 0.05201112500000704
                },
                {
                    "name": "G4",
                    "midi": 67,
                    "time": 243.4120650000008,
                    "velocity": 0.25984251968503935,
                    "duration": 0.10402225000001408
                },
                {
                    "name": "C5",
                    "midi": 72,
                    "time": 243.4120650000008,
                    "velocity": 0.25984251968503935,
                    "duration": 0.10402225000001408
                },
                {
                    "name": "B5",
                    "midi": 83,
                    "time": 244.24424300000084,
                    "velocity": 0.2677165354330709,
                    "duration": 0.10402225000001408
                },
                {
                    "name": "G5",
                    "midi": 79,
                    "time": 244.24424300000084,
                    "velocity": 0.2677165354330709,
                    "duration": 0.10402225000001408
                },
                {
                    "name": "B4",
                    "midi": 71,
                    "time": 244.24424300000084,
                    "velocity": 0.2677165354330709,
                    "duration": 0.10402225000001408
                },
                {
                    "name": "A5",
                    "midi": 81,
                    "time": 244.66033200000086,
                    "velocity": 0.31496062992125984,
                    "duration": 0.10402225000001408
                },
                {
                    "name": "E5",
                    "midi": 76,
                    "time": 244.66033200000086,
                    "velocity": 0.31496062992125984,
                    "duration": 0.10402225000001408
                },
                {
                    "name": "A4",
                    "midi": 69,
                    "time": 244.66033200000086,
                    "velocity": 0.31496062992125984,
                    "duration": 0.10402225000001408
                },
                {
                    "name": "E4",
                    "midi": 64,
                    "time": 245.0764210000009,
                    "velocity": 0.25984251968503935,
                    "duration": 0.20804449999999974
                },
                {
                    "name": "A4",
                    "midi": 69,
                    "time": 245.0764210000009,
                    "velocity": 0.25984251968503935,
                    "duration": 0.20804449999999974
                },
                {
                    "name": "E4",
                    "midi": 64,
                    "time": 245.2844655000009,
                    "velocity": 0.25984251968503935,
                    "duration": 0.20804449999999974
                },
                {
                    "name": "E4",
                    "midi": 64,
                    "time": 245.4925100000009,
                    "velocity": 0.28346456692913385,
                    "duration": 0.05201112500000704
                },
                {
                    "name": "A4",
                    "midi": 69,
                    "time": 245.4925100000009,
                    "velocity": 0.28346456692913385,
                    "duration": 0.05201112500000704
                },
                {
                    "name": "E4",
                    "midi": 64,
                    "time": 245.9085990000009,
                    "velocity": 0.25196850393700787,
                    "duration": 0.10402225000001408
                },
                {
                    "name": "A4",
                    "midi": 69,
                    "time": 245.9085990000009,
                    "velocity": 0.25196850393700787,
                    "duration": 0.10402225000001408
                },
                {
                    "name": "B5",
                    "midi": 83,
                    "time": 246.74077700000092,
                    "velocity": 0.29133858267716534,
                    "duration": 0.10402225000001408
                },
                {
                    "name": "G5",
                    "midi": 79,
                    "time": 246.74077700000092,
                    "velocity": 0.29133858267716534,
                    "duration": 0.10402225000001408
                },
                {
                    "name": "B4",
                    "midi": 71,
                    "time": 246.74077700000092,
                    "velocity": 0.29133858267716534,
                    "duration": 0.10402225000001408
                },
                {
                    "name": "C6",
                    "midi": 84,
                    "time": 247.15686600000095,
                    "velocity": 0.3228346456692913,
                    "duration": 0.10402225000001408
                },
                {
                    "name": "G5",
                    "midi": 79,
                    "time": 247.15686600000095,
                    "velocity": 0.3228346456692913,
                    "duration": 0.10402225000001408
                },
                {
                    "name": "C5",
                    "midi": 72,
                    "time": 247.15686600000095,
                    "velocity": 0.3228346456692913,
                    "duration": 0.10402225000001408
                },
                {
                    "name": "G4",
                    "midi": 67,
                    "time": 247.57295500000097,
                    "velocity": 0.25196850393700787,
                    "duration": 0.20804449999999974
                },
                {
                    "name": "C5",
                    "midi": 72,
                    "time": 247.57295500000097,
                    "velocity": 0.25196850393700787,
                    "duration": 0.20804449999999974
                },
                {
                    "name": "F4",
                    "midi": 65,
                    "time": 247.78099950000097,
                    "velocity": 0.25196850393700787,
                    "duration": 0.20804449999999974
                },
                {
                    "name": "G4",
                    "midi": 67,
                    "time": 247.98904400000097,
                    "velocity": 0.2755905511811024,
                    "duration": 0.05201112500000704
                },
                {
                    "name": "C5",
                    "midi": 72,
                    "time": 247.98904400000097,
                    "velocity": 0.2755905511811024,
                    "duration": 0.05201112500000704
                },
                {
                    "name": "G4",
                    "midi": 67,
                    "time": 248.40513300000097,
                    "velocity": 0.25196850393700787,
                    "duration": 0.10402225000001408
                },
                {
                    "name": "C5",
                    "midi": 72,
                    "time": 248.40513300000097,
                    "velocity": 0.25196850393700787,
                    "duration": 0.10402225000001408
                },
                {
                    "name": "B5",
                    "midi": 83,
                    "time": 249.237311000001,
                    "velocity": 0.25984251968503935,
                    "duration": 0.10402225000001408
                },
                {
                    "name": "G5",
                    "midi": 79,
                    "time": 249.237311000001,
                    "velocity": 0.25984251968503935,
                    "duration": 0.10402225000001408
                },
                {
                    "name": "B4",
                    "midi": 71,
                    "time": 249.237311000001,
                    "velocity": 0.25984251968503935,
                    "duration": 0.10402225000001408
                },
                {
                    "name": "B4",
                    "midi": 71,
                    "time": 249.65340000000103,
                    "velocity": 0.2755905511811024,
                    "duration": 0.10402225000001408
                },
                {
                    "name": "G5",
                    "midi": 79,
                    "time": 249.65340000000103,
                    "velocity": 0.2755905511811024,
                    "duration": 0.10402225000001408
                },
                {
                    "name": "B5",
                    "midi": 83,
                    "time": 249.65340000000103,
                    "velocity": 0.2755905511811024,
                    "duration": 0.10402225000001408
                },
                {
                    "name": "E4",
                    "midi": 64,
                    "time": 252.14993400000105,
                    "velocity": 0.4015748031496063,
                    "duration": 0.9015261666666561
                },
                {
                    "name": "F4",
                    "midi": 65,
                    "time": 253.0514601666677,
                    "velocity": 0.25984251968503935,
                    "duration": 0.06934816666665711
                },
                {
                    "name": "G4",
                    "midi": 67,
                    "time": 253.12080833333437,
                    "velocity": 0.25984251968503935,
                    "duration": 0.06934816666665711
                },
                {
                    "name": "A4",
                    "midi": 69,
                    "time": 253.19015650000102,
                    "velocity": 0.25984251968503935,
                    "duration": 0.06934816666665711
                },
                {
                    "name": "B4",
                    "midi": 71,
                    "time": 253.25950466666768,
                    "velocity": 0.25984251968503935,
                    "duration": 0.06934816666665711
                },
                {
                    "name": "C5",
                    "midi": 72,
                    "time": 253.32885283333434,
                    "velocity": 0.25984251968503935,
                    "duration": 0.06934816666665711
                },
                {
                    "name": "D5",
                    "midi": 74,
                    "time": 253.398201000001,
                    "velocity": 0.25984251968503935,
                    "duration": 0.06934816666665711
                },
                {
                    "name": "E5",
                    "midi": 76,
                    "time": 253.46754916666765,
                    "velocity": 0.25984251968503935,
                    "duration": 0.06934816666665711
                },
                {
                    "name": "F5",
                    "midi": 77,
                    "time": 253.5368973333343,
                    "velocity": 0.25984251968503935,
                    "duration": 0.06934816666665711
                },
                {
                    "name": "G5",
                    "midi": 79,
                    "time": 253.60624550000097,
                    "velocity": 0.25984251968503935,
                    "duration": 0.06934816666665711
                },
                {
                    "name": "A5",
                    "midi": 81,
                    "time": 253.67559366666762,
                    "velocity": 0.25984251968503935,
                    "duration": 0.06934816666665711
                },
                {
                    "name": "B5",
                    "midi": 83,
                    "time": 253.74494183333428,
                    "velocity": 0.25984251968503935,
                    "duration": 0.06934816666665711
                },
                {
                    "name": "C6",
                    "midi": 84,
                    "time": 253.81429000000094,
                    "velocity": 0.25984251968503935,
                    "duration": 0.06934816666665711
                },
                {
                    "name": "D6",
                    "midi": 86,
                    "time": 253.8836381666676,
                    "velocity": 0.25984251968503935,
                    "duration": 0.06934816666665711
                },
                {
                    "name": "E6",
                    "midi": 88,
                    "time": 253.95298633333425,
                    "velocity": 0.25984251968503935,
                    "duration": 0.06934816666665711
                },
                {
                    "name": "F6",
                    "midi": 89,
                    "time": 254.0223345000009,
                    "velocity": 0.25984251968503935,
                    "duration": 0.06934816666665711
                },
                {
                    "name": "G6",
                    "midi": 91,
                    "time": 254.09168266666757,
                    "velocity": 0.25984251968503935,
                    "duration": 0.06934816666665711
                },
                {
                    "name": "A6",
                    "midi": 93,
                    "time": 254.16103083333422,
                    "velocity": 0.25984251968503935,
                    "duration": 0.06934816666665711
                },
                {
                    "name": "B6",
                    "midi": 95,
                    "time": 254.23037900000088,
                    "velocity": 0.25984251968503935,
                    "duration": 0.06934816666665711
                },
                {
                    "name": "C7",
                    "midi": 96,
                    "time": 254.29972716666754,
                    "velocity": 0.25984251968503935,
                    "duration": 0.06934816666665711
                },
                {
                    "name": "D7",
                    "midi": 98,
                    "time": 254.3690753333342,
                    "velocity": 0.25984251968503935,
                    "duration": 0.06934816666665711
                },
                {
                    "name": "E7",
                    "midi": 100,
                    "time": 254.43842350000085,
                    "velocity": 0.25984251968503935,
                    "duration": 0.06934816666665711
                },
                {
                    "name": "F7",
                    "midi": 101,
                    "time": 254.5077716666675,
                    "velocity": 0.25984251968503935,
                    "duration": 0.06934816666665711
                },
                {
                    "name": "G7",
                    "midi": 103,
                    "time": 254.57711983333417,
                    "velocity": 0.25984251968503935,
                    "duration": 0.06934816666665711
                },
                {
                    "name": "A7",
                    "midi": 105,
                    "time": 254.64646800000082,
                    "velocity": 0.2992125984251969,
                    "duration": 0.4160889999999995
                },
                {
                    "name": "A3",
                    "midi": 57,
                    "time": 257.1430020000008,
                    "velocity": 0.2125984251968504,
                    "duration": 0.20804450000002817
                }
            ],
            "controlChanges": {
                "7": [
                    {
                        "number": 7,
                        "time": 0,
                        "value": 0.7874015748031497
                    }
                ],
                "10": [
                    {
                        "number": 10,
                        "time": 0,
                        "value": 0.5039370078740157
                    }
                ],
                "64": [
                    {
                        "number": 64,
                        "time": 0,
                        "value": 0
                    }
                ],
                "91": [
                    {
                        "number": 91,
                        "time": 0,
                        "value": 1
                    },
                    {
                        "number": 91,
                        "time": 0,
                        "value": 1
                    },
                    {
                        "number": 91,
                        "time": 4.993067999999999,
                        "value": 1
                    },
                    {
                        "number": 91,
                        "time": 27.461873999999977,
                        "value": 1
                    },
                    {
                        "number": 91,
                        "time": 32.454941999999974,
                        "value": 1
                    },
                    {
                        "number": 91,
                        "time": 102.35789400000006,
                        "value": 1
                    },
                    {
                        "number": 91,
                        "time": 107.35096200000015,
                        "value": 1
                    },
                    {
                        "number": 91,
                        "time": 117.33709800000024,
                        "value": 1
                    },
                    {
                        "number": 91,
                        "time": 184.74351600000057,
                        "value": 1
                    },
                    {
                        "number": 91,
                        "time": 187.2400500000006,
                        "value": 1
                    },
                    {
                        "number": 91,
                        "time": 189.73658400000062,
                        "value": 1
                    },
                    {
                        "number": 91,
                        "time": 192.23311800000064,
                        "value": 1
                    },
                    {
                        "number": 91,
                        "time": 194.7296520000006,
                        "value": 1
                    },
                    {
                        "number": 91,
                        "time": 197.22618600000058,
                        "value": 1
                    }
                ]
            },
            "id": 1,
            "name": "Piano right",
            "instrumentNumber": 0,
            "instrument": "acoustic grand piano",
            "instrumentFamily": "piano",
            "channelNumber": 0,
            "isPercussion": false
        },
        {
            "startTime": 0,
            "duration": 257.351046500001,
            "length": 797,
            "notes": [
                {
                    "name": "D3",
                    "midi": 50,
                    "time": 0,
                    "velocity": 0.3779527559055118,
                    "duration": 0.052011125
                },
                {
                    "name": "A3",
                    "midi": 57,
                    "time": 0,
                    "velocity": 0.3779527559055118,
                    "duration": 0.052011125
                },
                {
                    "name": "C4",
                    "midi": 60,
                    "time": 0.416089,
                    "velocity": 0.3779527559055118,
                    "duration": 0.05201112499999999
                },
                {
                    "name": "F3",
                    "midi": 53,
                    "time": 0.416089,
                    "velocity": 0.3779527559055118,
                    "duration": 0.05201112499999999
                },
                {
                    "name": "D3",
                    "midi": 50,
                    "time": 0.832178,
                    "velocity": 0.3779527559055118,
                    "duration": 0.20804450000000008
                },
                {
                    "name": "D3",
                    "midi": 50,
                    "time": 1.6643560000000002,
                    "velocity": 0.3779527559055118,
                    "duration": 0.0780166874999999
                },
                {
                    "name": "A2",
                    "midi": 45,
                    "time": 2.496534,
                    "velocity": 0.3779527559055118,
                    "duration": 0.41608899999999993
                },
                {
                    "name": "D2",
                    "midi": 38,
                    "time": 3.328712,
                    "velocity": 0.3543307086614173,
                    "duration": 0.41608899999999993
                },
                {
                    "name": "A2",
                    "midi": 45,
                    "time": 4.16089,
                    "velocity": 0.3779527559055118,
                    "duration": 0.4160890000000004
                },
                {
                    "name": "E2",
                    "midi": 40,
                    "time": 4.993068000000001,
                    "velocity": 0.3779527559055118,
                    "duration": 0.4160890000000004
                },
                {
                    "name": "E3",
                    "midi": 52,
                    "time": 5.825246000000002,
                    "velocity": 0.3779527559055118,
                    "duration": 0.4160890000000004
                },
                {
                    "name": "A3",
                    "midi": 57,
                    "time": 6.241335000000002,
                    "velocity": 0.4015748031496063,
                    "duration": 0.4160890000000004
                },
                {
                    "name": "E2",
                    "midi": 40,
                    "time": 6.6574240000000025,
                    "velocity": 0.3779527559055118,
                    "duration": 0.20804449999999974
                },
                {
                    "name": "B3",
                    "midi": 59,
                    "time": 7.489602000000002,
                    "velocity": 0.4251968503937008,
                    "duration": 0.6241335000000001
                },
                {
                    "name": "E3",
                    "midi": 52,
                    "time": 7.489602000000002,
                    "velocity": 0.4251968503937008,
                    "duration": 2.496533999999998
                },
                {
                    "name": "C4",
                    "midi": 60,
                    "time": 8.113735500000002,
                    "velocity": 0.4251968503937008,
                    "duration": 0.20804449999999974
                },
                {
                    "name": "B3",
                    "midi": 59,
                    "time": 8.321780000000002,
                    "velocity": 0.4015748031496063,
                    "duration": 0.6241334999999992
                },
                {
                    "name": "C4",
                    "midi": 60,
                    "time": 8.945913500000001,
                    "velocity": 0.3779527559055118,
                    "duration": 0.20804449999999974
                },
                {
                    "name": "D4",
                    "midi": 62,
                    "time": 9.153958000000001,
                    "velocity": 0.4015748031496063,
                    "duration": 0.6241334999999992
                },
                {
                    "name": "E4",
                    "midi": 64,
                    "time": 9.7780915,
                    "velocity": 0.3779527559055118,
                    "duration": 0.20804449999999974
                },
                {
                    "name": "A4",
                    "midi": 69,
                    "time": 9.986136,
                    "velocity": 0.33070866141732286,
                    "duration": 0.8321780000000008
                },
                {
                    "name": "C4",
                    "midi": 60,
                    "time": 9.986136,
                    "velocity": 0.33070866141732286,
                    "duration": 0.8321780000000008
                },
                {
                    "name": "F3",
                    "midi": 53,
                    "time": 9.986136,
                    "velocity": 0.33070866141732286,
                    "duration": 0.8321780000000008
                },
                {
                    "name": "F4",
                    "midi": 65,
                    "time": 10.818314,
                    "velocity": 0.2677165354330709,
                    "duration": 0.8321780000000008
                },
                {
                    "name": "D4",
                    "midi": 62,
                    "time": 10.818314,
                    "velocity": 0.2677165354330709,
                    "duration": 0.8321780000000008
                },
                {
                    "name": "G3",
                    "midi": 55,
                    "time": 10.818314,
                    "velocity": 0.2677165354330709,
                    "duration": 0.8321780000000008
                },
                {
                    "name": "C3",
                    "midi": 48,
                    "time": 11.650492000000002,
                    "velocity": 0.2992125984251969,
                    "duration": 0.8321780000000008
                },
                {
                    "name": "G3",
                    "midi": 55,
                    "time": 11.650492000000002,
                    "velocity": 0.2992125984251969,
                    "duration": 0.8321780000000008
                },
                {
                    "name": "E4",
                    "midi": 64,
                    "time": 11.650492000000002,
                    "velocity": 0.2992125984251969,
                    "duration": 0.8321780000000008
                },
                {
                    "name": "F3",
                    "midi": 53,
                    "time": 12.482670000000002,
                    "velocity": 0.28346456692913385,
                    "duration": 0.4160889999999995
                },
                {
                    "name": "A3",
                    "midi": 57,
                    "time": 12.482670000000002,
                    "velocity": 0.28346456692913385,
                    "duration": 0.4160889999999995
                },
                {
                    "name": "C4",
                    "midi": 60,
                    "time": 12.482670000000002,
                    "velocity": 0.28346456692913385,
                    "duration": 0.4160889999999995
                },
                {
                    "name": "D3",
                    "midi": 50,
                    "time": 12.898759000000002,
                    "velocity": 0.2677165354330709,
                    "duration": 0.3814149166666674
                },
                {
                    "name": "A3",
                    "midi": 57,
                    "time": 12.898759000000002,
                    "velocity": 0.2677165354330709,
                    "duration": 0.3814149166666674
                },
                {
                    "name": "D4",
                    "midi": 62,
                    "time": 12.898759000000002,
                    "velocity": 0.2677165354330709,
                    "duration": 0.3814149166666674
                },
                {
                    "name": "F2",
                    "midi": 41,
                    "time": 13.314848000000003,
                    "velocity": 0.3779527559055118,
                    "duration": 0.8321780000000008
                },
                {
                    "name": "A3",
                    "midi": 57,
                    "time": 13.314848000000003,
                    "velocity": 0.3779527559055118,
                    "duration": 0.8321780000000008
                },
                {
                    "name": "C3",
                    "midi": 48,
                    "time": 13.314848000000003,
                    "velocity": 0.3779527559055118,
                    "duration": 0.8321780000000008
                },
                {
                    "name": "G2",
                    "midi": 43,
                    "time": 14.147026000000004,
                    "velocity": 0.30708661417322836,
                    "duration": 0.8321780000000008
                },
                {
                    "name": "A#3",
                    "midi": 58,
                    "time": 14.147026000000004,
                    "velocity": 0.30708661417322836,
                    "duration": 0.8321780000000008
                },
                {
                    "name": "D3",
                    "midi": 50,
                    "time": 14.147026000000004,
                    "velocity": 0.30708661417322836,
                    "duration": 0.8321780000000008
                },
                {
                    "name": "C3",
                    "midi": 48,
                    "time": 14.979204000000005,
                    "velocity": 0.33858267716535434,
                    "duration": 0.8321780000000008
                },
                {
                    "name": "G3",
                    "midi": 55,
                    "time": 14.979204000000005,
                    "velocity": 0.33858267716535434,
                    "duration": 0.8321780000000008
                },
                {
                    "name": "C4",
                    "midi": 60,
                    "time": 14.979204000000005,
                    "velocity": 0.33858267716535434,
                    "duration": 0.8321780000000008
                },
                {
                    "name": "F3",
                    "midi": 53,
                    "time": 15.811382000000005,
                    "velocity": 0.2992125984251969,
                    "duration": 0.6241334999999992
                },
                {
                    "name": "C4",
                    "midi": 60,
                    "time": 15.811382000000005,
                    "velocity": 0.2992125984251969,
                    "duration": 0.6241334999999992
                },
                {
                    "name": "E3",
                    "midi": 52,
                    "time": 16.435515500000005,
                    "velocity": 0.33858267716535434,
                    "duration": 0.20804449999999974
                },
                {
                    "name": "D3",
                    "midi": 50,
                    "time": 16.643560000000004,
                    "velocity": 0.3543307086614173,
                    "duration": 0.6241334999999992
                },
                {
                    "name": "F3",
                    "midi": 53,
                    "time": 16.643560000000004,
                    "velocity": 0.3543307086614173,
                    "duration": 0.832177999999999
                },
                {
                    "name": "C3",
                    "midi": 48,
                    "time": 17.267693500000004,
                    "velocity": 0.3543307086614173,
                    "duration": 0.20804449999999974
                },
                {
                    "name": "F3",
                    "midi": 53,
                    "time": 17.475738000000003,
                    "velocity": 0.3779527559055118,
                    "duration": 2.0804449999999974
                },
                {
                    "name": "B2",
                    "midi": 47,
                    "time": 17.475738000000003,
                    "velocity": 0.3779527559055118,
                    "duration": 0.6241334999999992
                },
                {
                    "name": "A2",
                    "midi": 45,
                    "time": 18.099871500000003,
                    "velocity": 0.3937007874015748,
                    "duration": 0.20804449999999974
                },
                {
                    "name": "G2",
                    "midi": 43,
                    "time": 18.307916000000002,
                    "velocity": 0.4251968503937008,
                    "duration": 0.6241334999999992
                },
                {
                    "name": "A2",
                    "midi": 45,
                    "time": 18.9320495,
                    "velocity": 0.44881889763779526,
                    "duration": 0.20804449999999974
                },
                {
                    "name": "B2",
                    "midi": 47,
                    "time": 19.140094,
                    "velocity": 0.4881889763779528,
                    "duration": 0.832177999999999
                },
                {
                    "name": "G3",
                    "midi": 55,
                    "time": 19.556183,
                    "velocity": 0.3779527559055118,
                    "duration": 0.20804449999999974
                },
                {
                    "name": "E3",
                    "midi": 52,
                    "time": 19.7642275,
                    "velocity": 0.3779527559055118,
                    "duration": 0.20804449999999974
                },
                {
                    "name": "B2",
                    "midi": 47,
                    "time": 19.972272,
                    "velocity": 0.4094488188976378,
                    "duration": 0.6241334999999992
                },
                {
                    "name": "F3",
                    "midi": 53,
                    "time": 19.972272,
                    "velocity": 0.4094488188976378,
                    "duration": 2.288489499999997
                },
                {
                    "name": "A2",
                    "midi": 45,
                    "time": 20.5964055,
                    "velocity": 0.3858267716535433,
                    "duration": 0.20804449999999974
                },
                {
                    "name": "G2",
                    "midi": 43,
                    "time": 20.80445,
                    "velocity": 0.4251968503937008,
                    "duration": 0.6241334999999992
                },
                {
                    "name": "A2",
                    "midi": 45,
                    "time": 21.4285835,
                    "velocity": 0.4330708661417323,
                    "duration": 0.20804449999999974
                },
                {
                    "name": "B2",
                    "midi": 47,
                    "time": 21.636627999999998,
                    "velocity": 0.48031496062992124,
                    "duration": 0.832177999999999
                },
                {
                    "name": "G3",
                    "midi": 55,
                    "time": 22.260761499999997,
                    "velocity": 0.4094488188976378,
                    "duration": 0.20804449999999974
                },
                {
                    "name": "G#3",
                    "midi": 56,
                    "time": 22.468805999999997,
                    "velocity": 0.3543307086614173,
                    "duration": 0.20804449999999974
                },
                {
                    "name": "C3",
                    "midi": 48,
                    "time": 22.468805999999997,
                    "velocity": 0.3543307086614173,
                    "duration": 2.4965340000000005
                },
                {
                    "name": "F#3",
                    "midi": 54,
                    "time": 22.676850499999997,
                    "velocity": 0.33858267716535434,
                    "duration": 0.20804449999999974
                },
                {
                    "name": "E3",
                    "midi": 52,
                    "time": 22.884894999999997,
                    "velocity": 0.33858267716535434,
                    "duration": 0.20804449999999974
                },
                {
                    "name": "F#3",
                    "midi": 54,
                    "time": 23.092939499999996,
                    "velocity": 0.33858267716535434,
                    "duration": 0.20804449999999974
                },
                {
                    "name": "G#3",
                    "midi": 56,
                    "time": 23.300983999999996,
                    "velocity": 0.36220472440944884,
                    "duration": 0.20804449999999974
                },
                {
                    "name": "B2",
                    "midi": 47,
                    "time": 24.965339999999998,
                    "velocity": 0.3464566929133858,
                    "duration": 2.496533999999997
                },
                {
                    "name": "G#3",
                    "midi": 56,
                    "time": 24.965339999999998,
                    "velocity": 0.3464566929133858,
                    "duration": 0.20804449999999974
                },
                {
                    "name": "F#3",
                    "midi": 54,
                    "time": 25.173384499999997,
                    "velocity": 0.31496062992125984,
                    "duration": 0.20804449999999974
                },
                {
                    "name": "E3",
                    "midi": 52,
                    "time": 25.381428999999997,
                    "velocity": 0.31496062992125984,
                    "duration": 0.20804449999999974
                },
                {
                    "name": "F#3",
                    "midi": 54,
                    "time": 25.589473499999997,
                    "velocity": 0.31496062992125984,
                    "duration": 0.20804449999999974
                },
                {
                    "name": "G#3",
                    "midi": 56,
                    "time": 25.797517999999997,
                    "velocity": 0.3464566929133858,
                    "duration": 0.20804449999999974
                },
                {
                    "name": "D2",
                    "midi": 38,
                    "time": 27.461873999999995,
                    "velocity": 0.3464566929133858,
                    "duration": 0.052011124999999936
                },
                {
                    "name": "A2",
                    "midi": 45,
                    "time": 27.877962999999994,
                    "velocity": 0.30708661417322836,
                    "duration": 0.052011124999999936
                },
                {
                    "name": "F3",
                    "midi": 53,
                    "time": 27.877962999999994,
                    "velocity": 0.30708661417322836,
                    "duration": 0.052011124999999936
                },
                {
                    "name": "D2",
                    "midi": 38,
                    "time": 28.294051999999994,
                    "velocity": 0.3464566929133858,
                    "duration": 0.20804449999999974
                },
                {
                    "name": "F3",
                    "midi": 53,
                    "time": 28.710140999999993,
                    "velocity": 0.30708661417322836,
                    "duration": 0.052011124999999936
                },
                {
                    "name": "A2",
                    "midi": 45,
                    "time": 28.710140999999993,
                    "velocity": 0.30708661417322836,
                    "duration": 0.052011124999999936
                },
                {
                    "name": "D2",
                    "midi": 38,
                    "time": 29.126229999999993,
                    "velocity": 0.3464566929133858,
                    "duration": 0.0780166874999999
                },
                {
                    "name": "F3",
                    "midi": 53,
                    "time": 29.542318999999992,
                    "velocity": 0.3464566929133858,
                    "duration": 0.052011124999999936
                },
                {
                    "name": "A2",
                    "midi": 45,
                    "time": 29.542318999999992,
                    "velocity": 0.3464566929133858,
                    "duration": 0.052011124999999936
                },
                {
                    "name": "D2",
                    "midi": 38,
                    "time": 29.95840799999999,
                    "velocity": 0.3464566929133858,
                    "duration": 0.052011124999999936
                },
                {
                    "name": "F#3",
                    "midi": 54,
                    "time": 30.37449699999999,
                    "velocity": 0.30708661417322836,
                    "duration": 0.052011124999999936
                },
                {
                    "name": "A2",
                    "midi": 45,
                    "time": 30.37449699999999,
                    "velocity": 0.30708661417322836,
                    "duration": 0.052011124999999936
                },
                {
                    "name": "D2",
                    "midi": 38,
                    "time": 30.79058599999999,
                    "velocity": 0.3464566929133858,
                    "duration": 0.20804449999999974
                },
                {
                    "name": "F#3",
                    "midi": 54,
                    "time": 31.20667499999999,
                    "velocity": 0.30708661417322836,
                    "duration": 0.052011124999999936
                },
                {
                    "name": "A2",
                    "midi": 45,
                    "time": 31.20667499999999,
                    "velocity": 0.30708661417322836,
                    "duration": 0.052011124999999936
                },
                {
                    "name": "D2",
                    "midi": 38,
                    "time": 31.62276399999999,
                    "velocity": 0.3464566929133858,
                    "duration": 0.20804449999999974
                },
                {
                    "name": "F#3",
                    "midi": 54,
                    "time": 32.03885299999999,
                    "velocity": 0.30708661417322836,
                    "duration": 0.052011124999999936
                },
                {
                    "name": "A2",
                    "midi": 45,
                    "time": 32.03885299999999,
                    "velocity": 0.30708661417322836,
                    "duration": 0.052011124999999936
                },
                {
                    "name": "D2",
                    "midi": 38,
                    "time": 32.45494199999999,
                    "velocity": 0.3464566929133858,
                    "duration": 0.052011124999999936
                },
                {
                    "name": "A2",
                    "midi": 45,
                    "time": 32.87103099999999,
                    "velocity": 0.30708661417322836,
                    "duration": 0.052011124999999936
                },
                {
                    "name": "F3",
                    "midi": 53,
                    "time": 32.87103099999999,
                    "velocity": 0.30708661417322836,
                    "duration": 0.052011124999999936
                },
                {
                    "name": "D2",
                    "midi": 38,
                    "time": 33.28711999999999,
                    "velocity": 0.3543307086614173,
                    "duration": 0.20804449999999974
                },
                {
                    "name": "F3",
                    "midi": 53,
                    "time": 33.70320899999999,
                    "velocity": 0.33070866141732286,
                    "duration": 0.052011124999999936
                },
                {
                    "name": "A2",
                    "midi": 45,
                    "time": 33.70320899999999,
                    "velocity": 0.33070866141732286,
                    "duration": 0.052011124999999936
                },
                {
                    "name": "D2",
                    "midi": 38,
                    "time": 34.119297999999986,
                    "velocity": 0.3779527559055118,
                    "duration": 0.07801668750000346
                },
                {
                    "name": "F3",
                    "midi": 53,
                    "time": 34.53538699999999,
                    "velocity": 0.3858267716535433,
                    "duration": 0.052011124999999936
                },
                {
                    "name": "A2",
                    "midi": 45,
                    "time": 34.53538699999999,
                    "velocity": 0.3858267716535433,
                    "duration": 0.052011124999999936
                },
                {
                    "name": "D2",
                    "midi": 38,
                    "time": 34.95147599999999,
                    "velocity": 0.3937007874015748,
                    "duration": 0.052011124999999936
                },
                {
                    "name": "D4",
                    "midi": 62,
                    "time": 35.36756499999999,
                    "velocity": 0.3937007874015748,
                    "duration": 0.10402224999999987
                },
                {
                    "name": "E4",
                    "midi": 64,
                    "time": 35.57560949999999,
                    "velocity": 0.3779527559055118,
                    "duration": 0.10402224999999987
                },
                {
                    "name": "F#4",
                    "midi": 66,
                    "time": 35.78365399999999,
                    "velocity": 0.3937007874015748,
                    "duration": 0.10402224999999987
                },
                {
                    "name": "F#4",
                    "midi": 66,
                    "time": 35.99169849999999,
                    "velocity": 0.3779527559055118,
                    "duration": 0.06934816666666421
                },
                {
                    "name": "G4",
                    "midi": 67,
                    "time": 36.061046666666655,
                    "velocity": 0.36220472440944884,
                    "duration": 0.06934816666666421
                },
                {
                    "name": "F#4",
                    "midi": 66,
                    "time": 36.13039483333332,
                    "velocity": 0.36220472440944884,
                    "duration": 0.06934816666666421
                },
                {
                    "name": "E4",
                    "midi": 64,
                    "time": 36.199742999999984,
                    "velocity": 0.3937007874015748,
                    "duration": 0.20804449999999974
                },
                {
                    "name": "D4",
                    "midi": 62,
                    "time": 36.40778749999998,
                    "velocity": 0.3779527559055118,
                    "duration": 0.20804449999999974
                },
                {
                    "name": "C4",
                    "midi": 60,
                    "time": 36.61583199999998,
                    "velocity": 0.3937007874015748,
                    "duration": 0.20804449999999974
                },
                {
                    "name": "D4",
                    "midi": 62,
                    "time": 36.82387649999998,
                    "velocity": 0.36220472440944884,
                    "duration": 0.20804449999999974
                },
                {
                    "name": "E4",
                    "midi": 64,
                    "time": 37.03192099999998,
                    "velocity": 0.36220472440944884,
                    "duration": 0.832177999999999
                },
                {
                    "name": "A3",
                    "midi": 57,
                    "time": 37.44800999999998,
                    "velocity": 0.3543307086614173,
                    "duration": 0.20804449999999974
                },
                {
                    "name": "C4",
                    "midi": 60,
                    "time": 37.44800999999998,
                    "velocity": 0.3937007874015748,
                    "duration": 0.20804449999999974
                },
                {
                    "name": "D4",
                    "midi": 62,
                    "time": 37.65605449999998,
                    "velocity": 0.36220472440944884,
                    "duration": 0.20804449999999974
                },
                {
                    "name": "G3",
                    "midi": 55,
                    "time": 37.86409899999998,
                    "velocity": 0.31496062992125984,
                    "duration": 0.38141491666666383
                },
                {
                    "name": "B3",
                    "midi": 59,
                    "time": 37.86409899999998,
                    "velocity": 0.31496062992125984,
                    "duration": 0.38141491666666383
                },
                {
                    "name": "E4",
                    "midi": 64,
                    "time": 37.86409899999998,
                    "velocity": 0.36220472440944884,
                    "duration": 0.38141491666666383
                },
                {
                    "name": "F#3",
                    "midi": 54,
                    "time": 38.28018799999998,
                    "velocity": 0.31496062992125984,
                    "duration": 0.4160889999999995
                },
                {
                    "name": "A3",
                    "midi": 57,
                    "time": 38.28018799999998,
                    "velocity": 0.3464566929133858,
                    "duration": 0.20804449999999974
                },
                {
                    "name": "B3",
                    "midi": 59,
                    "time": 38.48823249999998,
                    "velocity": 0.33858267716535434,
                    "duration": 0.20804449999999974
                },
                {
                    "name": "F3",
                    "midi": 53,
                    "time": 38.69627699999998,
                    "velocity": 0.30708661417322836,
                    "duration": 0.4160889999999995
                },
                {
                    "name": "G#3",
                    "midi": 56,
                    "time": 38.69627699999998,
                    "velocity": 0.30708661417322836,
                    "duration": 0.4160889999999995
                },
                {
                    "name": "C4",
                    "midi": 60,
                    "time": 38.69627699999998,
                    "velocity": 0.3464566929133858,
                    "duration": 0.7975039166666633
                },
                {
                    "name": "E3",
                    "midi": 52,
                    "time": 39.11236599999998,
                    "velocity": 0.30708661417322836,
                    "duration": 0.4160889999999995
                },
                {
                    "name": "G3",
                    "midi": 55,
                    "time": 39.11236599999998,
                    "velocity": 0.30708661417322836,
                    "duration": 0.4160889999999995
                },
                {
                    "name": "D#3",
                    "midi": 51,
                    "time": 39.52845499999998,
                    "velocity": 0.2677165354330709,
                    "duration": 0.4160889999999995
                },
                {
                    "name": "F#3",
                    "midi": 54,
                    "time": 39.52845499999998,
                    "velocity": 0.2677165354330709,
                    "duration": 0.4160889999999995
                },
                {
                    "name": "G#3",
                    "midi": 56,
                    "time": 39.52845499999998,
                    "velocity": 0.2992125984251969,
                    "duration": 0.832177999999999
                },
                {
                    "name": "D3",
                    "midi": 50,
                    "time": 39.94454399999998,
                    "velocity": 0.25984251968503935,
                    "duration": 0.4160889999999995
                },
                {
                    "name": "F3",
                    "midi": 53,
                    "time": 39.94454399999998,
                    "velocity": 0.25984251968503935,
                    "duration": 0.4160889999999995
                },
                {
                    "name": "E3",
                    "midi": 52,
                    "time": 40.36063299999998,
                    "velocity": 0.25984251968503935,
                    "duration": 2.0804449999999974
                },
                {
                    "name": "C#3",
                    "midi": 49,
                    "time": 40.36063299999998,
                    "velocity": 0.25984251968503935,
                    "duration": 0.4160889999999995
                },
                {
                    "name": "C3",
                    "midi": 48,
                    "time": 40.77672199999998,
                    "velocity": 0.25984251968503935,
                    "duration": 0.1560333749999998
                },
                {
                    "name": "B2",
                    "midi": 47,
                    "time": 41.19281099999998,
                    "velocity": 0.25196850393700787,
                    "duration": 0.1560333749999998
                },
                {
                    "name": "A#2",
                    "midi": 46,
                    "time": 41.60889999999998,
                    "velocity": 0.2440944881889764,
                    "duration": 0.1560333749999998
                },
                {
                    "name": "D3",
                    "midi": 50,
                    "time": 41.60889999999998,
                    "velocity": 0.2440944881889764,
                    "duration": 0.1560333749999998
                },
                {
                    "name": "E2",
                    "midi": 40,
                    "time": 42.02498899999998,
                    "velocity": 0.29133858267716534,
                    "duration": 0.1560333749999998
                },
                {
                    "name": "A1",
                    "midi": 33,
                    "time": 42.441077999999976,
                    "velocity": 0.2677165354330709,
                    "duration": 0.38141491666666383
                },
                {
                    "name": "A3",
                    "midi": 57,
                    "time": 42.857166999999976,
                    "velocity": 0.3464566929133858,
                    "duration": 0.07801668750000346
                },
                {
                    "name": "E3",
                    "midi": 52,
                    "time": 43.06521149999998,
                    "velocity": 0.2992125984251969,
                    "duration": 0.07801668750000346
                },
                {
                    "name": "E3",
                    "midi": 52,
                    "time": 43.27325599999999,
                    "velocity": 0.2992125984251969,
                    "duration": 0.058945941666664226
                },
                {
                    "name": "A3",
                    "midi": 57,
                    "time": 43.48130049999999,
                    "velocity": 0.2992125984251969,
                    "duration": 0.07801668750000346
                },
                {
                    "name": "A3",
                    "midi": 57,
                    "time": 43.689344999999996,
                    "velocity": 0.3464566929133858,
                    "duration": 0.07801668750000346
                },
                {
                    "name": "E3",
                    "midi": 52,
                    "time": 43.8973895,
                    "velocity": 0.3464566929133858,
                    "duration": 0.07801668750000346
                },
                {
                    "name": "E3",
                    "midi": 52,
                    "time": 44.10543400000001,
                    "velocity": 0.30708661417322836,
                    "duration": 0.058945941666664226
                },
                {
                    "name": "A2",
                    "midi": 45,
                    "time": 44.31347850000001,
                    "velocity": 0.33070866141732286,
                    "duration": 0.07801668750000346
                },
                {
                    "name": "E2",
                    "midi": 40,
                    "time": 44.521523000000016,
                    "velocity": 0.3858267716535433,
                    "duration": 0.058945941666664226
                },
                {
                    "name": "A1",
                    "midi": 33,
                    "time": 44.937612000000016,
                    "velocity": 0.5354330708661418,
                    "duration": 0.3987519583333352
                },
                {
                    "name": "A3",
                    "midi": 57,
                    "time": 45.353701000000015,
                    "velocity": 0.3464566929133858,
                    "duration": 0.07801668750000346
                },
                {
                    "name": "E3",
                    "midi": 52,
                    "time": 45.56174550000002,
                    "velocity": 0.2992125984251969,
                    "duration": 0.07801668750000346
                },
                {
                    "name": "E3",
                    "midi": 52,
                    "time": 45.76979000000003,
                    "velocity": 0.2992125984251969,
                    "duration": 0.058945941666664226
                },
                {
                    "name": "A3",
                    "midi": 57,
                    "time": 45.97783450000003,
                    "velocity": 0.2992125984251969,
                    "duration": 0.07801668750000346
                },
                {
                    "name": "A3",
                    "midi": 57,
                    "time": 46.185879000000035,
                    "velocity": 0.3464566929133858,
                    "duration": 0.07801668750000346
                },
                {
                    "name": "E3",
                    "midi": 52,
                    "time": 46.39392350000004,
                    "velocity": 0.3464566929133858,
                    "duration": 0.07801668750000346
                },
                {
                    "name": "E3",
                    "midi": 52,
                    "time": 46.60196800000005,
                    "velocity": 0.30708661417322836,
                    "duration": 0.058945941666664226
                },
                {
                    "name": "A2",
                    "midi": 45,
                    "time": 46.81001250000005,
                    "velocity": 0.36220472440944884,
                    "duration": 0.07801668750000346
                },
                {
                    "name": "G2",
                    "midi": 43,
                    "time": 47.018057000000056,
                    "velocity": 0.4015748031496063,
                    "duration": 0.058945941666664226
                },
                {
                    "name": "C2",
                    "midi": 36,
                    "time": 47.434146000000055,
                    "velocity": 0.5433070866141733,
                    "duration": 0.3987519583333352
                },
                {
                    "name": "C4",
                    "midi": 60,
                    "time": 47.850235000000055,
                    "velocity": 0.3858267716535433,
                    "duration": 0.07801668750000346
                },
                {
                    "name": "G3",
                    "midi": 55,
                    "time": 48.05827950000006,
                    "velocity": 0.33070866141732286,
                    "duration": 0.07801668750000346
                },
                {
                    "name": "G3",
                    "midi": 55,
                    "time": 48.26632400000007,
                    "velocity": 0.33070866141732286,
                    "duration": 0.058945941666664226
                },
                {
                    "name": "C4",
                    "midi": 60,
                    "time": 48.47436850000007,
                    "velocity": 0.33070866141732286,
                    "duration": 0.07801668750000346
                },
                {
                    "name": "C4",
                    "midi": 60,
                    "time": 48.682413000000075,
                    "velocity": 0.3858267716535433,
                    "duration": 0.07801668750000346
                },
                {
                    "name": "G3",
                    "midi": 55,
                    "time": 48.89045750000008,
                    "velocity": 0.3858267716535433,
                    "duration": 0.07801668750000346
                },
                {
                    "name": "G3",
                    "midi": 55,
                    "time": 49.09850200000009,
                    "velocity": 0.33858267716535434,
                    "duration": 0.058945941666664226
                },
                {
                    "name": "C3",
                    "midi": 48,
                    "time": 49.30654650000009,
                    "velocity": 0.4015748031496063,
                    "duration": 0.07801668750000346
                },
                {
                    "name": "G2",
                    "midi": 43,
                    "time": 49.514591000000095,
                    "velocity": 0.4409448818897638,
                    "duration": 0.058945941666664226
                },
                {
                    "name": "C2",
                    "midi": 36,
                    "time": 49.930680000000095,
                    "velocity": 0.5905511811023622,
                    "duration": 0.3987519583333352
                },
                {
                    "name": "C4",
                    "midi": 60,
                    "time": 50.346769000000094,
                    "velocity": 0.4409448818897638,
                    "duration": 0.07801668750000346
                },
                {
                    "name": "G3",
                    "midi": 55,
                    "time": 50.5548135000001,
                    "velocity": 0.3779527559055118,
                    "duration": 0.07801668750000346
                },
                {
                    "name": "G3",
                    "midi": 55,
                    "time": 50.76285800000011,
                    "velocity": 0.3779527559055118,
                    "duration": 0.058945941666664226
                },
                {
                    "name": "C4",
                    "midi": 60,
                    "time": 50.97090250000011,
                    "velocity": 0.3779527559055118,
                    "duration": 0.07801668750000346
                },
                {
                    "name": "C4",
                    "midi": 60,
                    "time": 51.178947000000115,
                    "velocity": 0.4409448818897638,
                    "duration": 0.07801668750000346
                },
                {
                    "name": "G3",
                    "midi": 55,
                    "time": 51.38699150000012,
                    "velocity": 0.4409448818897638,
                    "duration": 0.07801668750000346
                },
                {
                    "name": "G3",
                    "midi": 55,
                    "time": 51.59503600000013,
                    "velocity": 0.3858267716535433,
                    "duration": 0.058945941666664226
                },
                {
                    "name": "C4",
                    "midi": 60,
                    "time": 51.80308050000013,
                    "velocity": 0.4566929133858268,
                    "duration": 0.07801668750000346
                },
                {
                    "name": "A#3",
                    "midi": 58,
                    "time": 52.011125000000135,
                    "velocity": 0.5118110236220472,
                    "duration": 0.4160889999999995
                },
                {
                    "name": "G4",
                    "midi": 67,
                    "time": 52.427214000000134,
                    "velocity": 0.44881889763779526,
                    "duration": 0.6241334999999992
                },
                {
                    "name": "D#4",
                    "midi": 63,
                    "time": 52.427214000000134,
                    "velocity": 0.44881889763779526,
                    "duration": 0.6241334999999992
                },
                {
                    "name": "A#3",
                    "midi": 58,
                    "time": 53.05134750000013,
                    "velocity": 0.4094488188976378,
                    "duration": 0.20804449999999974
                },
                {
                    "name": "F4",
                    "midi": 65,
                    "time": 53.05134750000013,
                    "velocity": 0.4094488188976378,
                    "duration": 0.20804449999999974
                },
                {
                    "name": "D#4",
                    "midi": 63,
                    "time": 53.25939200000013,
                    "velocity": 0.44881889763779526,
                    "duration": 0.6241334999999992
                },
                {
                    "name": "G4",
                    "midi": 67,
                    "time": 53.25939200000013,
                    "velocity": 0.44881889763779526,
                    "duration": 0.6241334999999992
                },
                {
                    "name": "F4",
                    "midi": 65,
                    "time": 53.88352550000013,
                    "velocity": 0.4094488188976378,
                    "duration": 0.20804449999999974
                },
                {
                    "name": "A4",
                    "midi": 69,
                    "time": 53.88352550000013,
                    "velocity": 0.4094488188976378,
                    "duration": 0.20804449999999974
                },
                {
                    "name": "D#4",
                    "midi": 63,
                    "time": 54.09157000000013,
                    "velocity": 0.4566929133858268,
                    "duration": 0.6241334999999992
                },
                {
                    "name": "G4",
                    "midi": 67,
                    "time": 54.09157000000013,
                    "velocity": 0.4566929133858268,
                    "duration": 0.6241334999999992
                },
                {
                    "name": "F4",
                    "midi": 65,
                    "time": 54.71570350000013,
                    "velocity": 0.4251968503937008,
                    "duration": 0.20804449999999974
                },
                {
                    "name": "A#3",
                    "midi": 58,
                    "time": 54.71570350000013,
                    "velocity": 0.4251968503937008,
                    "duration": 0.20804449999999974
                },
                {
                    "name": "A3",
                    "midi": 57,
                    "time": 54.92374800000013,
                    "velocity": 0.44881889763779526,
                    "duration": 0.832177999999999
                },
                {
                    "name": "G4",
                    "midi": 67,
                    "time": 54.92374800000013,
                    "velocity": 0.44881889763779526,
                    "duration": 0.832177999999999
                },
                {
                    "name": "D3",
                    "midi": 50,
                    "time": 55.75592600000013,
                    "velocity": 0.4094488188976378,
                    "duration": 1.6296819166666694
                },
                {
                    "name": "A3",
                    "midi": 57,
                    "time": 55.75592600000013,
                    "velocity": 0.4094488188976378,
                    "duration": 1.6296819166666694
                },
                {
                    "name": "F4",
                    "midi": 65,
                    "time": 57.420282000000135,
                    "velocity": 0.4015748031496063,
                    "duration": 0.6241334999999992
                },
                {
                    "name": "D4",
                    "midi": 62,
                    "time": 57.420282000000135,
                    "velocity": 0.4015748031496063,
                    "duration": 0.6241334999999992
                },
                {
                    "name": "A3",
                    "midi": 57,
                    "time": 58.044415500000135,
                    "velocity": 0.36220472440944884,
                    "duration": 0.20804449999999974
                },
                {
                    "name": "E4",
                    "midi": 64,
                    "time": 58.044415500000135,
                    "velocity": 0.36220472440944884,
                    "duration": 0.20804449999999974
                },
                {
                    "name": "D4",
                    "midi": 62,
                    "time": 58.252460000000134,
                    "velocity": 0.4015748031496063,
                    "duration": 0.6241334999999992
                },
                {
                    "name": "F4",
                    "midi": 65,
                    "time": 58.252460000000134,
                    "velocity": 0.4015748031496063,
                    "duration": 0.6241334999999992
                },
                {
                    "name": "E4",
                    "midi": 64,
                    "time": 58.87659350000013,
                    "velocity": 0.36220472440944884,
                    "duration": 0.20804449999999974
                },
                {
                    "name": "G4",
                    "midi": 67,
                    "time": 58.87659350000013,
                    "velocity": 0.36220472440944884,
                    "duration": 0.20804449999999974
                },
                {
                    "name": "D4",
                    "midi": 62,
                    "time": 59.08463800000013,
                    "velocity": 0.4094488188976378,
                    "duration": 0.6241334999999992
                },
                {
                    "name": "F4",
                    "midi": 65,
                    "time": 59.08463800000013,
                    "velocity": 0.4094488188976378,
                    "duration": 0.6241334999999992
                },
                {
                    "name": "E4",
                    "midi": 64,
                    "time": 59.70877150000013,
                    "velocity": 0.3779527559055118,
                    "duration": 0.20804449999999974
                },
                {
                    "name": "A3",
                    "midi": 57,
                    "time": 59.70877150000013,
                    "velocity": 0.3779527559055118,
                    "duration": 0.20804449999999974
                },
                {
                    "name": "G3",
                    "midi": 55,
                    "time": 59.91681600000013,
                    "velocity": 0.4015748031496063,
                    "duration": 0.832177999999999
                },
                {
                    "name": "F4",
                    "midi": 65,
                    "time": 59.91681600000013,
                    "velocity": 0.4015748031496063,
                    "duration": 0.832177999999999
                },
                {
                    "name": "C3",
                    "midi": 48,
                    "time": 60.74899400000013,
                    "velocity": 0.36220472440944884,
                    "duration": 1.664355999999998
                },
                {
                    "name": "G3",
                    "midi": 55,
                    "time": 60.74899400000013,
                    "velocity": 0.36220472440944884,
                    "duration": 2.496533999999997
                },
                {
                    "name": "F2",
                    "midi": 41,
                    "time": 62.41335000000013,
                    "velocity": 0.36220472440944884,
                    "duration": 4.993068000000001
                },
                {
                    "name": "F3",
                    "midi": 53,
                    "time": 63.24552800000013,
                    "velocity": 0.2992125984251969,
                    "duration": 0.8668520833333346
                },
                {
                    "name": "D#3",
                    "midi": 51,
                    "time": 64.07770600000013,
                    "velocity": 0.2992125984251969,
                    "duration": 0.8668520833333275
                },
                {
                    "name": "D3",
                    "midi": 50,
                    "time": 64.90988400000013,
                    "velocity": 0.2992125984251969,
                    "duration": 1.2482669999999985
                },
                {
                    "name": "F3",
                    "midi": 53,
                    "time": 66.15815100000013,
                    "velocity": 0.30708661417322836,
                    "duration": 0.45076308333332804
                },
                {
                    "name": "G3",
                    "midi": 55,
                    "time": 66.57424000000013,
                    "velocity": 0.31496062992125984,
                    "duration": 0.45076308333332804
                },
                {
                    "name": "A#3",
                    "midi": 58,
                    "time": 66.99032900000013,
                    "velocity": 0.2992125984251969,
                    "duration": 0.4160889999999995
                },
                {
                    "name": "F2",
                    "midi": 41,
                    "time": 67.40641800000013,
                    "velocity": 0.36220472440944884,
                    "duration": 4.993067999999994
                },
                {
                    "name": "F3",
                    "midi": 53,
                    "time": 68.23859600000013,
                    "velocity": 0.2992125984251969,
                    "duration": 0.8668520833333275
                },
                {
                    "name": "D#3",
                    "midi": 51,
                    "time": 69.07077400000013,
                    "velocity": 0.2992125984251969,
                    "duration": 0.8668520833333275
                },
                {
                    "name": "D3",
                    "midi": 50,
                    "time": 69.90295200000013,
                    "velocity": 0.2992125984251969,
                    "duration": 1.2482669999999985
                },
                {
                    "name": "F3",
                    "midi": 53,
                    "time": 71.15121900000013,
                    "velocity": 0.30708661417322836,
                    "duration": 0.45076308333332804
                },
                {
                    "name": "G3",
                    "midi": 55,
                    "time": 71.56730800000012,
                    "velocity": 0.31496062992125984,
                    "duration": 0.45076308333332804
                },
                {
                    "name": "A#3",
                    "midi": 58,
                    "time": 71.98339700000012,
                    "velocity": 0.30708661417322836,
                    "duration": 0.4160889999999995
                },
                {
                    "name": "G2",
                    "midi": 43,
                    "time": 72.39948600000012,
                    "velocity": 0.3937007874015748,
                    "duration": 1.2482669999999985
                },
                {
                    "name": "A3",
                    "midi": 57,
                    "time": 72.81557500000012,
                    "velocity": 0.30708661417322836,
                    "duration": 0.4160889999999995
                },
                {
                    "name": "C4",
                    "midi": 60,
                    "time": 72.81557500000012,
                    "velocity": 0.30708661417322836,
                    "duration": 0.4160889999999995
                },
                {
                    "name": "F4",
                    "midi": 65,
                    "time": 72.81557500000012,
                    "velocity": 0.30708661417322836,
                    "duration": 0.4160889999999995
                },
                {
                    "name": "A#3",
                    "midi": 58,
                    "time": 73.23166400000012,
                    "velocity": 0.30708661417322836,
                    "duration": 0.832177999999999
                },
                {
                    "name": "D4",
                    "midi": 62,
                    "time": 73.23166400000012,
                    "velocity": 0.30708661417322836,
                    "duration": 0.832177999999999
                },
                {
                    "name": "G3",
                    "midi": 55,
                    "time": 73.23166400000012,
                    "velocity": 0.30708661417322836,
                    "duration": 0.832177999999999
                },
                {
                    "name": "F2",
                    "midi": 41,
                    "time": 73.64775300000012,
                    "velocity": 0.3779527559055118,
                    "duration": 0.4160889999999995
                },
                {
                    "name": "E2",
                    "midi": 40,
                    "time": 74.06384200000012,
                    "velocity": 0.3937007874015748,
                    "duration": 0.4160889999999995
                },
                {
                    "name": "D2",
                    "midi": 38,
                    "time": 74.47993100000012,
                    "velocity": 0.4094488188976378,
                    "duration": 0.4160889999999995
                },
                {
                    "name": "C2",
                    "midi": 36,
                    "time": 74.89602000000012,
                    "velocity": 0.44881889763779526,
                    "duration": 2.496533999999997
                },
                {
                    "name": "A4",
                    "midi": 69,
                    "time": 75.31210900000012,
                    "velocity": 0.31496062992125984,
                    "duration": 0.4160889999999995
                },
                {
                    "name": "E4",
                    "midi": 64,
                    "time": 75.31210900000012,
                    "velocity": 0.31496062992125984,
                    "duration": 0.4160889999999995
                },
                {
                    "name": "C4",
                    "midi": 60,
                    "time": 75.31210900000012,
                    "velocity": 0.31496062992125984,
                    "duration": 0.4160889999999995
                },
                {
                    "name": "C4",
                    "midi": 60,
                    "time": 75.72819800000012,
                    "velocity": 0.3464566929133858,
                    "duration": 0.4160889999999995
                },
                {
                    "name": "E4",
                    "midi": 64,
                    "time": 75.72819800000012,
                    "velocity": 0.3464566929133858,
                    "duration": 0.4160889999999995
                },
                {
                    "name": "A4",
                    "midi": 69,
                    "time": 75.72819800000012,
                    "velocity": 0.3464566929133858,
                    "duration": 0.4160889999999995
                },
                {
                    "name": "E4",
                    "midi": 64,
                    "time": 76.14428700000012,
                    "velocity": 0.31496062992125984,
                    "duration": 0.4160889999999995
                },
                {
                    "name": "A3",
                    "midi": 57,
                    "time": 76.14428700000012,
                    "velocity": 0.31496062992125984,
                    "duration": 0.4160889999999995
                },
                {
                    "name": "C4",
                    "midi": 60,
                    "time": 76.14428700000012,
                    "velocity": 0.31496062992125984,
                    "duration": 0.4160889999999995
                },
                {
                    "name": "A3",
                    "midi": 57,
                    "time": 76.56037600000012,
                    "velocity": 0.31496062992125984,
                    "duration": 0.832177999999999
                },
                {
                    "name": "C4",
                    "midi": 60,
                    "time": 76.56037600000012,
                    "velocity": 0.31496062992125984,
                    "duration": 0.832177999999999
                },
                {
                    "name": "E4",
                    "midi": 64,
                    "time": 76.56037600000012,
                    "velocity": 0.31496062992125984,
                    "duration": 0.832177999999999
                },
                {
                    "name": "G2",
                    "midi": 43,
                    "time": 77.39255400000012,
                    "velocity": 0.4094488188976378,
                    "duration": 1.2482669999999985
                },
                {
                    "name": "A3",
                    "midi": 57,
                    "time": 77.80864300000012,
                    "velocity": 0.31496062992125984,
                    "duration": 0.4160889999999995
                },
                {
                    "name": "C4",
                    "midi": 60,
                    "time": 77.80864300000012,
                    "velocity": 0.31496062992125984,
                    "duration": 0.4160889999999995
                },
                {
                    "name": "F4",
                    "midi": 65,
                    "time": 77.80864300000012,
                    "velocity": 0.31496062992125984,
                    "duration": 0.4160889999999995
                },
                {
                    "name": "A#3",
                    "midi": 58,
                    "time": 78.22473200000012,
                    "velocity": 0.31496062992125984,
                    "duration": 0.832177999999999
                },
                {
                    "name": "D4",
                    "midi": 62,
                    "time": 78.22473200000012,
                    "velocity": 0.31496062992125984,
                    "duration": 0.832177999999999
                },
                {
                    "name": "G3",
                    "midi": 55,
                    "time": 78.22473200000012,
                    "velocity": 0.31496062992125984,
                    "duration": 0.832177999999999
                },
                {
                    "name": "F2",
                    "midi": 41,
                    "time": 78.64082100000012,
                    "velocity": 0.3937007874015748,
                    "duration": 0.4160889999999995
                },
                {
                    "name": "E2",
                    "midi": 40,
                    "time": 79.05691000000012,
                    "velocity": 0.4094488188976378,
                    "duration": 0.4160889999999995
                },
                {
                    "name": "D2",
                    "midi": 38,
                    "time": 79.47299900000012,
                    "velocity": 0.4330708661417323,
                    "duration": 0.4160889999999995
                },
                {
                    "name": "C2",
                    "midi": 36,
                    "time": 79.88908800000011,
                    "velocity": 0.47244094488188976,
                    "duration": 4.993067999999994
                },
                {
                    "name": "A4",
                    "midi": 69,
                    "time": 80.30517700000011,
                    "velocity": 0.33858267716535434,
                    "duration": 0.4160889999999995
                },
                {
                    "name": "E4",
                    "midi": 64,
                    "time": 80.30517700000011,
                    "velocity": 0.33858267716535434,
                    "duration": 0.4160889999999995
                },
                {
                    "name": "C4",
                    "midi": 60,
                    "time": 80.30517700000011,
                    "velocity": 0.33858267716535434,
                    "duration": 0.4160889999999995
                },
                {
                    "name": "C4",
                    "midi": 60,
                    "time": 80.72126600000011,
                    "velocity": 0.36220472440944884,
                    "duration": 0.4160889999999995
                },
                {
                    "name": "E4",
                    "midi": 64,
                    "time": 80.72126600000011,
                    "velocity": 0.36220472440944884,
                    "duration": 0.4160889999999995
                },
                {
                    "name": "A4",
                    "midi": 69,
                    "time": 80.72126600000011,
                    "velocity": 0.36220472440944884,
                    "duration": 0.4160889999999995
                },
                {
                    "name": "E4",
                    "midi": 64,
                    "time": 81.13735500000011,
                    "velocity": 0.33858267716535434,
                    "duration": 0.4160889999999995
                },
                {
                    "name": "A3",
                    "midi": 57,
                    "time": 81.13735500000011,
                    "velocity": 0.33858267716535434,
                    "duration": 0.4160889999999995
                },
                {
                    "name": "C4",
                    "midi": 60,
                    "time": 81.13735500000011,
                    "velocity": 0.33858267716535434,
                    "duration": 0.4160889999999995
                },
                {
                    "name": "A3",
                    "midi": 57,
                    "time": 81.55344400000011,
                    "velocity": 0.3543307086614173,
                    "duration": 0.4160889999999995
                },
                {
                    "name": "C4",
                    "midi": 60,
                    "time": 81.55344400000011,
                    "velocity": 0.3543307086614173,
                    "duration": 0.4160889999999995
                },
                {
                    "name": "E4",
                    "midi": 64,
                    "time": 81.55344400000011,
                    "velocity": 0.3543307086614173,
                    "duration": 0.4160889999999995
                },
                {
                    "name": "A#4",
                    "midi": 70,
                    "time": 81.96953300000011,
                    "velocity": 0.3779527559055118,
                    "duration": 0.4160889999999995
                },
                {
                    "name": "D4",
                    "midi": 62,
                    "time": 81.96953300000011,
                    "velocity": 0.3779527559055118,
                    "duration": 0.4160889999999995
                },
                {
                    "name": "F4",
                    "midi": 65,
                    "time": 81.96953300000011,
                    "velocity": 0.3779527559055118,
                    "duration": 0.4160889999999995
                },
                {
                    "name": "D4",
                    "midi": 62,
                    "time": 82.38562200000011,
                    "velocity": 0.4094488188976378,
                    "duration": 0.4160889999999995
                },
                {
                    "name": "F4",
                    "midi": 65,
                    "time": 82.38562200000011,
                    "velocity": 0.4094488188976378,
                    "duration": 0.4160889999999995
                },
                {
                    "name": "A#4",
                    "midi": 70,
                    "time": 82.38562200000011,
                    "velocity": 0.4094488188976378,
                    "duration": 0.4160889999999995
                },
                {
                    "name": "E4",
                    "midi": 64,
                    "time": 82.80171100000011,
                    "velocity": 0.3779527559055118,
                    "duration": 0.4160889999999995
                },
                {
                    "name": "G4",
                    "midi": 67,
                    "time": 82.80171100000011,
                    "velocity": 0.3779527559055118,
                    "duration": 0.4160889999999995
                },
                {
                    "name": "C5",
                    "midi": 72,
                    "time": 82.80171100000011,
                    "velocity": 0.3779527559055118,
                    "duration": 0.4160889999999995
                },
                {
                    "name": "E4",
                    "midi": 64,
                    "time": 83.21780000000011,
                    "velocity": 0.4094488188976378,
                    "duration": 0.4160889999999995
                },
                {
                    "name": "G4",
                    "midi": 67,
                    "time": 83.21780000000011,
                    "velocity": 0.4094488188976378,
                    "duration": 0.4160889999999995
                },
                {
                    "name": "C5",
                    "midi": 72,
                    "time": 83.21780000000011,
                    "velocity": 0.4094488188976378,
                    "duration": 0.4160889999999995
                },
                {
                    "name": "C4",
                    "midi": 60,
                    "time": 83.63388900000011,
                    "velocity": 0.3779527559055118,
                    "duration": 0.4160889999999995
                },
                {
                    "name": "E4",
                    "midi": 64,
                    "time": 83.63388900000011,
                    "velocity": 0.3779527559055118,
                    "duration": 0.4160889999999995
                },
                {
                    "name": "A4",
                    "midi": 69,
                    "time": 83.63388900000011,
                    "velocity": 0.3779527559055118,
                    "duration": 0.4160889999999995
                },
                {
                    "name": "C4",
                    "midi": 60,
                    "time": 84.04997800000011,
                    "velocity": 0.4094488188976378,
                    "duration": 0.4160889999999995
                },
                {
                    "name": "E4",
                    "midi": 64,
                    "time": 84.04997800000011,
                    "velocity": 0.4094488188976378,
                    "duration": 0.4160889999999995
                },
                {
                    "name": "A4",
                    "midi": 69,
                    "time": 84.04997800000011,
                    "velocity": 0.4094488188976378,
                    "duration": 0.4160889999999995
                },
                {
                    "name": "E4",
                    "midi": 64,
                    "time": 84.46606700000011,
                    "velocity": 0.4409448818897638,
                    "duration": 0.4160889999999995
                },
                {
                    "name": "A4",
                    "midi": 69,
                    "time": 84.46606700000011,
                    "velocity": 0.4409448818897638,
                    "duration": 0.4160889999999995
                },
                {
                    "name": "C5",
                    "midi": 72,
                    "time": 84.46606700000011,
                    "velocity": 0.4409448818897638,
                    "duration": 0.4160889999999995
                },
                {
                    "name": "A#1",
                    "midi": 34,
                    "time": 84.88215600000011,
                    "velocity": 0.5196850393700787,
                    "duration": 2.496533999999997
                },
                {
                    "name": "F2",
                    "midi": 41,
                    "time": 84.88215600000011,
                    "velocity": 0.5196850393700787,
                    "duration": 2.496533999999997
                },
                {
                    "name": "F4",
                    "midi": 65,
                    "time": 85.29824500000011,
                    "velocity": 0.5590551181102362,
                    "duration": 0.4160889999999995
                },
                {
                    "name": "G3",
                    "midi": 55,
                    "time": 85.71433400000011,
                    "velocity": 0.3464566929133858,
                    "duration": 1.664355999999998
                },
                {
                    "name": "A#3",
                    "midi": 58,
                    "time": 85.71433400000011,
                    "velocity": 0.3464566929133858,
                    "duration": 1.664355999999998
                },
                {
                    "name": "D4",
                    "midi": 62,
                    "time": 85.71433400000011,
                    "velocity": 0.5826771653543307,
                    "duration": 0.832177999999999
                },
                {
                    "name": "C4",
                    "midi": 60,
                    "time": 86.5465120000001,
                    "velocity": 0.5354330708661418,
                    "duration": 0.4160889999999995
                },
                {
                    "name": "D4",
                    "midi": 62,
                    "time": 86.9626010000001,
                    "velocity": 0.49606299212598426,
                    "duration": 0.4160889999999995
                },
                {
                    "name": "A#3",
                    "midi": 58,
                    "time": 87.3786900000001,
                    "velocity": 0.3464566929133858,
                    "duration": 2.496533999999997
                },
                {
                    "name": "D4",
                    "midi": 62,
                    "time": 87.3786900000001,
                    "velocity": 0.3464566929133858,
                    "duration": 2.496533999999997
                },
                {
                    "name": "G4",
                    "midi": 67,
                    "time": 87.3786900000001,
                    "velocity": 0.5275590551181102,
                    "duration": 0.4160889999999995
                },
                {
                    "name": "A4",
                    "midi": 69,
                    "time": 87.7947790000001,
                    "velocity": 0.4566929133858268,
                    "duration": 0.4160889999999995
                },
                {
                    "name": "A4",
                    "midi": 69,
                    "time": 88.2108680000001,
                    "velocity": 0.47244094488188976,
                    "duration": 0.4160889999999995
                },
                {
                    "name": "E4",
                    "midi": 64,
                    "time": 88.6269570000001,
                    "velocity": 0.4566929133858268,
                    "duration": 0.4160889999999995
                },
                {
                    "name": "E4",
                    "midi": 64,
                    "time": 89.0430460000001,
                    "velocity": 0.44881889763779526,
                    "duration": 0.832177999999999
                },
                {
                    "name": "A#1",
                    "midi": 34,
                    "time": 89.8752240000001,
                    "velocity": 0.4094488188976378,
                    "duration": 2.496533999999997
                },
                {
                    "name": "F2",
                    "midi": 41,
                    "time": 89.8752240000001,
                    "velocity": 0.4094488188976378,
                    "duration": 2.496533999999997
                },
                {
                    "name": "F4",
                    "midi": 65,
                    "time": 90.2913130000001,
                    "velocity": 0.3858267716535433,
                    "duration": 0.4160889999999995
                },
                {
                    "name": "F3",
                    "midi": 53,
                    "time": 90.7074020000001,
                    "velocity": 0.2283464566929134,
                    "duration": 1.664355999999998
                },
                {
                    "name": "A#3",
                    "midi": 58,
                    "time": 90.7074020000001,
                    "velocity": 0.2283464566929134,
                    "duration": 1.664355999999998
                },
                {
                    "name": "D4",
                    "midi": 62,
                    "time": 90.7074020000001,
                    "velocity": 0.3858267716535433,
                    "duration": 0.832177999999999
                },
                {
                    "name": "C4",
                    "midi": 60,
                    "time": 91.5395800000001,
                    "velocity": 0.3700787401574803,
                    "duration": 0.4160889999999995
                },
                {
                    "name": "D4",
                    "midi": 62,
                    "time": 91.9556690000001,
                    "velocity": 0.3464566929133858,
                    "duration": 0.38141491666667093
                },
                {
                    "name": "E1",
                    "midi": 28,
                    "time": 92.3717580000001,
                    "velocity": 0.31496062992125984,
                    "duration": 0.832177999999999
                },
                {
                    "name": "E2",
                    "midi": 40,
                    "time": 92.3717580000001,
                    "velocity": 0.31496062992125984,
                    "duration": 0.832177999999999
                },
                {
                    "name": "F1",
                    "midi": 29,
                    "time": 93.2039360000001,
                    "velocity": 0.33070866141732286,
                    "duration": 0.832177999999999
                },
                {
                    "name": "F2",
                    "midi": 41,
                    "time": 93.2039360000001,
                    "velocity": 0.33070866141732286,
                    "duration": 0.832177999999999
                },
                {
                    "name": "G1",
                    "midi": 31,
                    "time": 94.0361140000001,
                    "velocity": 0.3543307086614173,
                    "duration": 0.832177999999999
                },
                {
                    "name": "G2",
                    "midi": 43,
                    "time": 94.0361140000001,
                    "velocity": 0.3543307086614173,
                    "duration": 0.832177999999999
                },
                {
                    "name": "A1",
                    "midi": 33,
                    "time": 94.8682920000001,
                    "velocity": 0.3700787401574803,
                    "duration": 0.832177999999999
                },
                {
                    "name": "A2",
                    "midi": 45,
                    "time": 94.8682920000001,
                    "velocity": 0.3700787401574803,
                    "duration": 0.832177999999999
                },
                {
                    "name": "B1",
                    "midi": 35,
                    "time": 95.7004700000001,
                    "velocity": 0.33070866141732286,
                    "duration": 0.4160889999999995
                },
                {
                    "name": "B2",
                    "midi": 47,
                    "time": 95.7004700000001,
                    "velocity": 0.33070866141732286,
                    "duration": 0.4160889999999995
                },
                {
                    "name": "A1",
                    "midi": 33,
                    "time": 96.1165590000001,
                    "velocity": 0.33070866141732286,
                    "duration": 0.4160889999999995
                },
                {
                    "name": "A2",
                    "midi": 45,
                    "time": 96.1165590000001,
                    "velocity": 0.33070866141732286,
                    "duration": 0.4160889999999995
                },
                {
                    "name": "G1",
                    "midi": 31,
                    "time": 96.5326480000001,
                    "velocity": 0.31496062992125984,
                    "duration": 0.4160889999999995
                },
                {
                    "name": "G2",
                    "midi": 43,
                    "time": 96.5326480000001,
                    "velocity": 0.31496062992125984,
                    "duration": 0.4160889999999995
                },
                {
                    "name": "F1",
                    "midi": 29,
                    "time": 96.9487370000001,
                    "velocity": 0.30708661417322836,
                    "duration": 0.4160889999999995
                },
                {
                    "name": "F2",
                    "midi": 41,
                    "time": 96.9487370000001,
                    "velocity": 0.30708661417322836,
                    "duration": 0.4160889999999995
                },
                {
                    "name": "E1",
                    "midi": 28,
                    "time": 97.3648260000001,
                    "velocity": 0.31496062992125984,
                    "duration": 0.832177999999999
                },
                {
                    "name": "E2",
                    "midi": 40,
                    "time": 97.3648260000001,
                    "velocity": 0.31496062992125984,
                    "duration": 0.832177999999999
                },
                {
                    "name": "F1",
                    "midi": 29,
                    "time": 98.19700400000009,
                    "velocity": 0.33070866141732286,
                    "duration": 0.832177999999999
                },
                {
                    "name": "F2",
                    "midi": 41,
                    "time": 98.19700400000009,
                    "velocity": 0.33070866141732286,
                    "duration": 0.832177999999999
                },
                {
                    "name": "G1",
                    "midi": 31,
                    "time": 99.02918200000009,
                    "velocity": 0.33070866141732286,
                    "duration": 0.832177999999999
                },
                {
                    "name": "G2",
                    "midi": 43,
                    "time": 99.02918200000009,
                    "velocity": 0.33070866141732286,
                    "duration": 0.832177999999999
                },
                {
                    "name": "A1",
                    "midi": 33,
                    "time": 99.86136000000009,
                    "velocity": 0.28346456692913385,
                    "duration": 0.832177999999999
                },
                {
                    "name": "A2",
                    "midi": 45,
                    "time": 99.86136000000009,
                    "velocity": 0.28346456692913385,
                    "duration": 0.832177999999999
                },
                {
                    "name": "B2",
                    "midi": 47,
                    "time": 100.69353800000009,
                    "velocity": 0.25196850393700787,
                    "duration": 0.832177999999999
                },
                {
                    "name": "B1",
                    "midi": 35,
                    "time": 100.69353800000009,
                    "velocity": 0.25196850393700787,
                    "duration": 0.832177999999999
                },
                {
                    "name": "C2",
                    "midi": 36,
                    "time": 101.52571600000009,
                    "velocity": 0.2283464566929134,
                    "duration": 0.8321780000000132
                },
                {
                    "name": "C3",
                    "midi": 48,
                    "time": 101.52571600000009,
                    "velocity": 0.2283464566929134,
                    "duration": 0.8321780000000132
                },
                {
                    "name": "D2",
                    "midi": 38,
                    "time": 102.25387175000009,
                    "velocity": 0.2283464566929134,
                    "duration": 0.15603337500002112
                },
                {
                    "name": "A2",
                    "midi": 45,
                    "time": 102.3058828750001,
                    "velocity": 0.25984251968503935,
                    "duration": 0.10402225000001408
                },
                {
                    "name": "F#3",
                    "midi": 54,
                    "time": 102.3578940000001,
                    "velocity": 0.29133858267716534,
                    "duration": 0.05201112500000704
                },
                {
                    "name": "D2",
                    "midi": 38,
                    "time": 103.91822775000011,
                    "velocity": 0.2125984251968504,
                    "duration": 0.3120667500000138
                },
                {
                    "name": "A2",
                    "midi": 45,
                    "time": 103.97023887500012,
                    "velocity": 0.25196850393700787,
                    "duration": 0.2600556250000068
                },
                {
                    "name": "F#3",
                    "midi": 54,
                    "time": 104.02225000000013,
                    "velocity": 0.2755905511811024,
                    "duration": 0.20804449999999974
                },
                {
                    "name": "D2",
                    "midi": 38,
                    "time": 104.75040575000013,
                    "velocity": 0.29133858267716534,
                    "duration": 0.15603337500002112
                },
                {
                    "name": "A2",
                    "midi": 45,
                    "time": 104.80241687500013,
                    "velocity": 0.29133858267716534,
                    "duration": 0.10402225000001408
                },
                {
                    "name": "F#3",
                    "midi": 54,
                    "time": 104.85442800000014,
                    "velocity": 0.29133858267716534,
                    "duration": 0.05201112500000704
                },
                {
                    "name": "A4",
                    "midi": 69,
                    "time": 105.68660600000015,
                    "velocity": 0.30708661417322836,
                    "duration": 0.05201112500000704
                },
                {
                    "name": "D4",
                    "midi": 62,
                    "time": 106.51878400000017,
                    "velocity": 0.30708661417322836,
                    "duration": 0.05201112500000704
                },
                {
                    "name": "C4",
                    "midi": 60,
                    "time": 107.35096200000018,
                    "velocity": 0.25984251968503935,
                    "duration": 4.160889999999995
                },
                {
                    "name": "D4",
                    "midi": 62,
                    "time": 107.35096200000018,
                    "velocity": 0.25984251968503935,
                    "duration": 4.160889999999995
                },
                {
                    "name": "F4",
                    "midi": 65,
                    "time": 107.35096200000018,
                    "velocity": 0.29133858267716534,
                    "duration": 2.496533999999997
                },
                {
                    "name": "F#4",
                    "midi": 66,
                    "time": 109.84749600000018,
                    "velocity": 0.29133858267716534,
                    "duration": 0.832177999999999
                },
                {
                    "name": "A4",
                    "midi": 69,
                    "time": 110.67967400000018,
                    "velocity": 0.29133858267716534,
                    "duration": 0.832177999999999
                },
                {
                    "name": "D3",
                    "midi": 50,
                    "time": 111.51185200000018,
                    "velocity": 0.29133858267716534,
                    "duration": 0.20804449999999974
                },
                {
                    "name": "G3",
                    "midi": 55,
                    "time": 112.24000775000017,
                    "velocity": 0.2440944881889764,
                    "duration": 0.5201112500000278
                },
                {
                    "name": "D4",
                    "midi": 62,
                    "time": 112.29201887500018,
                    "velocity": 0.2755905511811024,
                    "duration": 0.4160890000000137
                },
                {
                    "name": "B4",
                    "midi": 71,
                    "time": 112.34403000000019,
                    "velocity": 0.29133858267716534,
                    "duration": 0.4160890000000137
                },
                {
                    "name": "C3",
                    "midi": 48,
                    "time": 114.0083860000002,
                    "velocity": 0.25196850393700787,
                    "duration": 0.8321780000000132
                },
                {
                    "name": "E4",
                    "midi": 64,
                    "time": 114.0083860000002,
                    "velocity": 0.25196850393700787,
                    "duration": 0.8321780000000132
                },
                {
                    "name": "G3",
                    "midi": 55,
                    "time": 114.0083860000002,
                    "velocity": 0.25196850393700787,
                    "duration": 0.8321780000000132
                },
                {
                    "name": "G2",
                    "midi": 43,
                    "time": 114.7365417500002,
                    "velocity": 0.29133858267716534,
                    "duration": 0.5201112500000136
                },
                {
                    "name": "D3",
                    "midi": 50,
                    "time": 114.7885528750002,
                    "velocity": 0.29133858267716534,
                    "duration": 0.46810012500000653
                },
                {
                    "name": "B3",
                    "midi": 59,
                    "time": 114.84056400000021,
                    "velocity": 0.29133858267716534,
                    "duration": 0.4160889999999995
                },
                {
                    "name": "A2",
                    "midi": 45,
                    "time": 116.50492000000021,
                    "velocity": 0.25196850393700787,
                    "duration": 0.4160889999999995
                },
                {
                    "name": "C3",
                    "midi": 48,
                    "time": 116.50492000000021,
                    "velocity": 0.25196850393700787,
                    "duration": 2.496533999999997
                },
                {
                    "name": "F#2",
                    "midi": 42,
                    "time": 116.92100900000021,
                    "velocity": 0.25196850393700787,
                    "duration": 0.4160889999999995
                },
                {
                    "name": "E2",
                    "midi": 40,
                    "time": 117.33709800000021,
                    "velocity": 0.25196850393700787,
                    "duration": 2.496533999999997
                },
                {
                    "name": "B2",
                    "midi": 47,
                    "time": 119.00145400000021,
                    "velocity": 0.25196850393700787,
                    "duration": 0.832177999999999
                },
                {
                    "name": "A1",
                    "midi": 33,
                    "time": 119.83363200000021,
                    "velocity": 0.30708661417322836,
                    "duration": 0.4160889999999995
                },
                {
                    "name": "A2",
                    "midi": 45,
                    "time": 119.83363200000021,
                    "velocity": 0.30708661417322836,
                    "duration": 0.4160889999999995
                },
                {
                    "name": "A3",
                    "midi": 57,
                    "time": 120.6658100000002,
                    "velocity": 0.3464566929133858,
                    "duration": 0.1300278125000034
                },
                {
                    "name": "E3",
                    "midi": 52,
                    "time": 121.0818990000002,
                    "velocity": 0.3228346456692913,
                    "duration": 0.1300278125000034
                },
                {
                    "name": "A2",
                    "midi": 45,
                    "time": 121.4979880000002,
                    "velocity": 0.4015748031496063,
                    "duration": 0.1560333750000069
                },
                {
                    "name": "G2",
                    "midi": 43,
                    "time": 121.91407700000022,
                    "velocity": 0.3937007874015748,
                    "duration": 0.1560333750000069
                },
                {
                    "name": "F1",
                    "midi": 29,
                    "time": 122.33016600000023,
                    "velocity": 0.6062992125984252,
                    "duration": 2.496533999999997
                },
                {
                    "name": "F2",
                    "midi": 41,
                    "time": 122.33016600000023,
                    "velocity": 0.6062992125984252,
                    "duration": 2.496533999999997
                },
                {
                    "name": "G4",
                    "midi": 67,
                    "time": 123.37038850000023,
                    "velocity": 0.5433070866141733,
                    "duration": 0.10402224999999987
                },
                {
                    "name": "F4",
                    "midi": 65,
                    "time": 123.47441075000023,
                    "velocity": 0.5433070866141733,
                    "duration": 0.10402224999999987
                },
                {
                    "name": "E4",
                    "midi": 64,
                    "time": 123.57843300000023,
                    "velocity": 0.5433070866141733,
                    "duration": 0.10402224999999987
                },
                {
                    "name": "D4",
                    "midi": 62,
                    "time": 123.68245525000023,
                    "velocity": 0.5433070866141733,
                    "duration": 0.10402224999999987
                },
                {
                    "name": "C4",
                    "midi": 60,
                    "time": 123.78647750000023,
                    "velocity": 0.5433070866141733,
                    "duration": 0.10402224999999987
                },
                {
                    "name": "B3",
                    "midi": 59,
                    "time": 123.89049975000023,
                    "velocity": 0.5433070866141733,
                    "duration": 0.10402224999999987
                },
                {
                    "name": "A3",
                    "midi": 57,
                    "time": 123.99452200000023,
                    "velocity": 0.6062992125984252,
                    "duration": 0.4160889999999995
                },
                {
                    "name": "G3",
                    "midi": 55,
                    "time": 124.41061100000023,
                    "velocity": 0.5354330708661418,
                    "duration": 0.4160889999999995
                },
                {
                    "name": "A3",
                    "midi": 57,
                    "time": 124.82670000000023,
                    "velocity": 0.5590551181102362,
                    "duration": 0.4160889999999995
                },
                {
                    "name": "B3",
                    "midi": 59,
                    "time": 125.24278900000023,
                    "velocity": 0.5196850393700787,
                    "duration": 0.4160889999999995
                },
                {
                    "name": "C4",
                    "midi": 60,
                    "time": 125.65887800000023,
                    "velocity": 0.49606299212598426,
                    "duration": 0.4160889999999995
                },
                {
                    "name": "D4",
                    "midi": 62,
                    "time": 126.07496700000023,
                    "velocity": 0.4881889763779528,
                    "duration": 0.4160889999999995
                },
                {
                    "name": "B3",
                    "midi": 59,
                    "time": 126.49105600000023,
                    "velocity": 0.4330708661417323,
                    "duration": 0.4160889999999995
                },
                {
                    "name": "A3",
                    "midi": 57,
                    "time": 126.90714500000023,
                    "velocity": 0.41732283464566927,
                    "duration": 0.20804449999999974
                },
                {
                    "name": "G3",
                    "midi": 55,
                    "time": 127.11518950000023,
                    "velocity": 0.3937007874015748,
                    "duration": 0.20804449999999974
                },
                {
                    "name": "F1",
                    "midi": 29,
                    "time": 127.32323400000023,
                    "velocity": 0.6062992125984252,
                    "duration": 2.4965340000000964
                },
                {
                    "name": "F2",
                    "midi": 41,
                    "time": 127.32323400000023,
                    "velocity": 0.6062992125984252,
                    "duration": 2.4965340000000964
                },
                {
                    "name": "G4",
                    "midi": 67,
                    "time": 128.36345650000024,
                    "velocity": 0.5433070866141733,
                    "duration": 0.10402225000001408
                },
                {
                    "name": "F4",
                    "midi": 65,
                    "time": 128.46747875000025,
                    "velocity": 0.5433070866141733,
                    "duration": 0.10402225000001408
                },
                {
                    "name": "E4",
                    "midi": 64,
                    "time": 128.57150100000027,
                    "velocity": 0.5433070866141733,
                    "duration": 0.10402225000001408
                },
                {
                    "name": "D4",
                    "midi": 62,
                    "time": 128.67552325000028,
                    "velocity": 0.5433070866141733,
                    "duration": 0.10402225000001408
                },
                {
                    "name": "C4",
                    "midi": 60,
                    "time": 128.7795455000003,
                    "velocity": 0.5433070866141733,
                    "duration": 0.10402225000001408
                },
                {
                    "name": "B3",
                    "midi": 59,
                    "time": 128.8835677500003,
                    "velocity": 0.5433070866141733,
                    "duration": 0.10402225000001408
                },
                {
                    "name": "A3",
                    "midi": 57,
                    "time": 128.98759000000032,
                    "velocity": 0.6062992125984252,
                    "duration": 0.4160889999999995
                },
                {
                    "name": "G3",
                    "midi": 55,
                    "time": 129.40367900000032,
                    "velocity": 0.5354330708661418,
                    "duration": 0.4160889999999995
                },
                {
                    "name": "A3",
                    "midi": 57,
                    "time": 129.81976800000032,
                    "velocity": 0.5590551181102362,
                    "duration": 0.4160889999999995
                },
                {
                    "name": "B3",
                    "midi": 59,
                    "time": 130.23585700000032,
                    "velocity": 0.5196850393700787,
                    "duration": 0.4160889999999995
                },
                {
                    "name": "C4",
                    "midi": 60,
                    "time": 130.65194600000032,
                    "velocity": 0.49606299212598426,
                    "duration": 0.4160889999999995
                },
                {
                    "name": "D4",
                    "midi": 62,
                    "time": 131.06803500000032,
                    "velocity": 0.4881889763779528,
                    "duration": 0.4160889999999995
                },
                {
                    "name": "A3",
                    "midi": 57,
                    "time": 131.48412400000032,
                    "velocity": 0.4330708661417323,
                    "duration": 0.4160889999999995
                },
                {
                    "name": "G3",
                    "midi": 55,
                    "time": 131.90021300000032,
                    "velocity": 0.41732283464566927,
                    "duration": 0.20804449999999974
                },
                {
                    "name": "F3",
                    "midi": 53,
                    "time": 132.10825750000032,
                    "velocity": 0.3937007874015748,
                    "duration": 0.20804449999999974
                },
                {
                    "name": "D#1",
                    "midi": 27,
                    "time": 132.31630200000032,
                    "velocity": 0.6377952755905512,
                    "duration": 2.496534000000082
                },
                {
                    "name": "D#2",
                    "midi": 39,
                    "time": 132.31630200000032,
                    "velocity": 0.6377952755905512,
                    "duration": 2.496534000000082
                },
                {
                    "name": "F4",
                    "midi": 65,
                    "time": 133.35652450000032,
                    "velocity": 0.5433070866141733,
                    "duration": 0.10402225000001408
                },
                {
                    "name": "D#4",
                    "midi": 63,
                    "time": 133.46054675000033,
                    "velocity": 0.5433070866141733,
                    "duration": 0.10402225000001408
                },
                {
                    "name": "D4",
                    "midi": 62,
                    "time": 133.56456900000035,
                    "velocity": 0.5433070866141733,
                    "duration": 0.10402225000001408
                },
                {
                    "name": "C4",
                    "midi": 60,
                    "time": 133.66859125000036,
                    "velocity": 0.5433070866141733,
                    "duration": 0.10402225000001408
                },
                {
                    "name": "A#3",
                    "midi": 58,
                    "time": 133.77261350000038,
                    "velocity": 0.5433070866141733,
                    "duration": 0.10402225000001408
                },
                {
                    "name": "A3",
                    "midi": 57,
                    "time": 133.8766357500004,
                    "velocity": 0.5433070866141733,
                    "duration": 0.10402225000001408
                },
                {
                    "name": "G3",
                    "midi": 55,
                    "time": 133.9806580000004,
                    "velocity": 0.6062992125984252,
                    "duration": 0.4160889999999995
                },
                {
                    "name": "F3",
                    "midi": 53,
                    "time": 134.3967470000004,
                    "velocity": 0.5354330708661418,
                    "duration": 0.4160889999999995
                },
                {
                    "name": "G3",
                    "midi": 55,
                    "time": 134.8128360000004,
                    "velocity": 0.5590551181102362,
                    "duration": 0.4160889999999995
                },
                {
                    "name": "A3",
                    "midi": 57,
                    "time": 135.2289250000004,
                    "velocity": 0.5196850393700787,
                    "duration": 0.4160889999999995
                },
                {
                    "name": "A#3",
                    "midi": 58,
                    "time": 135.6450140000004,
                    "velocity": 0.49606299212598426,
                    "duration": 0.4160889999999995
                },
                {
                    "name": "C4",
                    "midi": 60,
                    "time": 136.0611030000004,
                    "velocity": 0.4881889763779528,
                    "duration": 0.4160889999999995
                },
                {
                    "name": "A3",
                    "midi": 57,
                    "time": 136.4771920000004,
                    "velocity": 0.4330708661417323,
                    "duration": 0.4160889999999995
                },
                {
                    "name": "G3",
                    "midi": 55,
                    "time": 136.8932810000004,
                    "velocity": 0.41732283464566927,
                    "duration": 0.20804449999999974
                },
                {
                    "name": "F3",
                    "midi": 53,
                    "time": 137.1013255000004,
                    "velocity": 0.3937007874015748,
                    "duration": 0.20804449999999974
                },
                {
                    "name": "D#1",
                    "midi": 27,
                    "time": 137.3093700000004,
                    "velocity": 0.6377952755905512,
                    "duration": 2.496534000000082
                },
                {
                    "name": "D#2",
                    "midi": 39,
                    "time": 137.3093700000004,
                    "velocity": 0.6377952755905512,
                    "duration": 2.496534000000082
                },
                {
                    "name": "F4",
                    "midi": 65,
                    "time": 138.3495925000004,
                    "velocity": 0.5433070866141733,
                    "duration": 0.10402225000001408
                },
                {
                    "name": "D#4",
                    "midi": 63,
                    "time": 138.4536147500004,
                    "velocity": 0.5433070866141733,
                    "duration": 0.10402225000001408
                },
                {
                    "name": "D4",
                    "midi": 62,
                    "time": 138.55763700000043,
                    "velocity": 0.5433070866141733,
                    "duration": 0.10402225000001408
                },
                {
                    "name": "C4",
                    "midi": 60,
                    "time": 138.66165925000044,
                    "velocity": 0.5433070866141733,
                    "duration": 0.10402225000001408
                },
                {
                    "name": "A#3",
                    "midi": 58,
                    "time": 138.76568150000045,
                    "velocity": 0.5433070866141733,
                    "duration": 0.10402225000001408
                },
                {
                    "name": "A3",
                    "midi": 57,
                    "time": 138.86970375000047,
                    "velocity": 0.5433070866141733,
                    "duration": 0.10402225000001408
                },
                {
                    "name": "G3",
                    "midi": 55,
                    "time": 138.97372600000048,
                    "velocity": 0.6062992125984252,
                    "duration": 0.4160889999999995
                },
                {
                    "name": "F3",
                    "midi": 53,
                    "time": 139.38981500000048,
                    "velocity": 0.5354330708661418,
                    "duration": 0.4160889999999995
                },
                {
                    "name": "G3",
                    "midi": 55,
                    "time": 139.80590400000048,
                    "velocity": 0.5590551181102362,
                    "duration": 0.4160889999999995
                },
                {
                    "name": "A3",
                    "midi": 57,
                    "time": 140.22199300000048,
                    "velocity": 0.5196850393700787,
                    "duration": 0.4160889999999995
                },
                {
                    "name": "A#3",
                    "midi": 58,
                    "time": 140.63808200000048,
                    "velocity": 0.49606299212598426,
                    "duration": 0.4160889999999995
                },
                {
                    "name": "C4",
                    "midi": 60,
                    "time": 141.05417100000048,
                    "velocity": 0.4881889763779528,
                    "duration": 0.4160889999999995
                },
                {
                    "name": "A3",
                    "midi": 57,
                    "time": 141.47026000000048,
                    "velocity": 0.4330708661417323,
                    "duration": 0.4160889999999995
                },
                {
                    "name": "A#3",
                    "midi": 58,
                    "time": 141.88634900000048,
                    "velocity": 0.41732283464566927,
                    "duration": 0.20804449999999974
                },
                {
                    "name": "C4",
                    "midi": 60,
                    "time": 142.09439350000048,
                    "velocity": 0.3937007874015748,
                    "duration": 0.20804449999999974
                },
                {
                    "name": "D3",
                    "midi": 50,
                    "time": 142.30243800000048,
                    "velocity": 0.36220472440944884,
                    "duration": 0.6241334999999992
                },
                {
                    "name": "A3",
                    "midi": 57,
                    "time": 142.30243800000048,
                    "velocity": 0.36220472440944884,
                    "duration": 0.6241334999999992
                },
                {
                    "name": "A2",
                    "midi": 45,
                    "time": 142.92657150000048,
                    "velocity": 0.3228346456692913,
                    "duration": 0.1560333749999927
                },
                {
                    "name": "D3",
                    "midi": 50,
                    "time": 143.13461600000048,
                    "velocity": 0.36220472440944884,
                    "duration": 0.6241334999999992
                },
                {
                    "name": "A3",
                    "midi": 57,
                    "time": 143.13461600000048,
                    "velocity": 0.36220472440944884,
                    "duration": 0.6241334999999992
                },
                {
                    "name": "A2",
                    "midi": 45,
                    "time": 143.75874950000048,
                    "velocity": 0.33070866141732286,
                    "duration": 0.20804449999999974
                },
                {
                    "name": "D3",
                    "midi": 50,
                    "time": 143.96679400000048,
                    "velocity": 0.3543307086614173,
                    "duration": 0.4160889999999995
                },
                {
                    "name": "A3",
                    "midi": 57,
                    "time": 143.96679400000048,
                    "velocity": 0.3543307086614173,
                    "duration": 0.4160889999999995
                },
                {
                    "name": "F#2",
                    "midi": 42,
                    "time": 144.38288300000048,
                    "velocity": 0.3858267716535433,
                    "duration": 0.4160889999999995
                },
                {
                    "name": "G2",
                    "midi": 43,
                    "time": 144.79897200000048,
                    "velocity": 0.4094488188976378,
                    "duration": 0.4160889999999995
                },
                {
                    "name": "A2",
                    "midi": 45,
                    "time": 145.21506100000047,
                    "velocity": 0.3543307086614173,
                    "duration": 0.4160889999999995
                },
                {
                    "name": "A#2",
                    "midi": 46,
                    "time": 145.63115000000047,
                    "velocity": 0.33070866141732286,
                    "duration": 0.832177999999999
                },
                {
                    "name": "A2",
                    "midi": 45,
                    "time": 146.46332800000047,
                    "velocity": 0.33858267716535434,
                    "duration": 0.832177999999999
                },
                {
                    "name": "D3",
                    "midi": 50,
                    "time": 147.29550600000047,
                    "velocity": 0.3543307086614173,
                    "duration": 1.5603337500000123
                },
                {
                    "name": "G2",
                    "midi": 43,
                    "time": 148.85583975000048,
                    "velocity": 0.28346456692913385,
                    "duration": 0.8321780000000274
                },
                {
                    "name": "D3",
                    "midi": 50,
                    "time": 148.9078508750005,
                    "velocity": 0.30708661417322836,
                    "duration": 0.7801668750000204
                },
                {
                    "name": "B3",
                    "midi": 59,
                    "time": 148.9598620000005,
                    "velocity": 0.3464566929133858,
                    "duration": 0.7281557500000133
                },
                {
                    "name": "E2",
                    "midi": 40,
                    "time": 149.6880177500005,
                    "velocity": 0.31496062992125984,
                    "duration": 1.768378250000012
                },
                {
                    "name": "G3",
                    "midi": 55,
                    "time": 149.74002887500052,
                    "velocity": 0.3464566929133858,
                    "duration": 1.716367125000005
                },
                {
                    "name": "B2",
                    "midi": 47,
                    "time": 149.79204000000053,
                    "velocity": 0.3779527559055118,
                    "duration": 1.664355999999998
                },
                {
                    "name": "A2",
                    "midi": 45,
                    "time": 151.45639600000052,
                    "velocity": 0.31496062992125984,
                    "duration": 0.832177999999999
                },
                {
                    "name": "D3",
                    "midi": 50,
                    "time": 152.28857400000052,
                    "velocity": 0.36220472440944884,
                    "duration": 0.6241334999999992
                },
                {
                    "name": "A3",
                    "midi": 57,
                    "time": 152.28857400000052,
                    "velocity": 0.36220472440944884,
                    "duration": 0.6241334999999992
                },
                {
                    "name": "A2",
                    "midi": 45,
                    "time": 152.91270750000052,
                    "velocity": 0.3228346456692913,
                    "duration": 0.1560333749999927
                },
                {
                    "name": "D3",
                    "midi": 50,
                    "time": 153.12075200000052,
                    "velocity": 0.36220472440944884,
                    "duration": 0.6241334999999992
                },
                {
                    "name": "A3",
                    "midi": 57,
                    "time": 153.12075200000052,
                    "velocity": 0.36220472440944884,
                    "duration": 0.6241334999999992
                },
                {
                    "name": "A2",
                    "midi": 45,
                    "time": 153.74488550000052,
                    "velocity": 0.33070866141732286,
                    "duration": 0.20804449999999974
                },
                {
                    "name": "D3",
                    "midi": 50,
                    "time": 153.95293000000052,
                    "velocity": 0.3543307086614173,
                    "duration": 0.4160889999999995
                },
                {
                    "name": "A3",
                    "midi": 57,
                    "time": 153.95293000000052,
                    "velocity": 0.3543307086614173,
                    "duration": 0.4160889999999995
                },
                {
                    "name": "F#2",
                    "midi": 42,
                    "time": 154.36901900000052,
                    "velocity": 0.3858267716535433,
                    "duration": 0.4160889999999995
                },
                {
                    "name": "G2",
                    "midi": 43,
                    "time": 154.78510800000052,
                    "velocity": 0.4094488188976378,
                    "duration": 0.4160889999999995
                },
                {
                    "name": "A2",
                    "midi": 45,
                    "time": 155.20119700000052,
                    "velocity": 0.3543307086614173,
                    "duration": 0.4160889999999995
                },
                {
                    "name": "B2",
                    "midi": 47,
                    "time": 155.61728600000052,
                    "velocity": 0.3543307086614173,
                    "duration": 0.36407787499999245
                },
                {
                    "name": "C#3",
                    "midi": 49,
                    "time": 156.03337500000052,
                    "velocity": 0.3779527559055118,
                    "duration": 0.4160889999999995
                },
                {
                    "name": "D3",
                    "midi": 50,
                    "time": 156.44946400000052,
                    "velocity": 0.4015748031496063,
                    "duration": 0.4160889999999995
                },
                {
                    "name": "E3",
                    "midi": 52,
                    "time": 156.86555300000052,
                    "velocity": 0.4015748031496063,
                    "duration": 0.4160889999999995
                },
                {
                    "name": "F#3",
                    "midi": 54,
                    "time": 157.28164200000052,
                    "velocity": 0.4015748031496063,
                    "duration": 0.36407787499999245
                },
                {
                    "name": "G3",
                    "midi": 55,
                    "time": 157.69773100000052,
                    "velocity": 0.3937007874015748,
                    "duration": 0.4160889999999995
                },
                {
                    "name": "A3",
                    "midi": 57,
                    "time": 158.11382000000052,
                    "velocity": 0.4094488188976378,
                    "duration": 0.4160889999999995
                },
                {
                    "name": "B3",
                    "midi": 59,
                    "time": 158.52990900000052,
                    "velocity": 0.4251968503937008,
                    "duration": 0.4160889999999995
                },
                {
                    "name": "C#4",
                    "midi": 61,
                    "time": 158.94599800000051,
                    "velocity": 0.44881889763779526,
                    "duration": 0.832177999999999
                },
                {
                    "name": "D4",
                    "midi": 62,
                    "time": 159.7781760000005,
                    "velocity": 0.33858267716535434,
                    "duration": 0.10402225000001408
                },
                {
                    "name": "A4",
                    "midi": 69,
                    "time": 159.7781760000005,
                    "velocity": 0.33858267716535434,
                    "duration": 0.10402225000001408
                },
                {
                    "name": "A3",
                    "midi": 57,
                    "time": 160.19426500000054,
                    "velocity": 0.2755905511811024,
                    "duration": 0.10402225000001408
                },
                {
                    "name": "D3",
                    "midi": 50,
                    "time": 160.61035400000057,
                    "velocity": 0.33070866141732286,
                    "duration": 0.10402225000001408
                },
                {
                    "name": "A3",
                    "midi": 57,
                    "time": 161.0264430000006,
                    "velocity": 0.29133858267716534,
                    "duration": 0.10402225000001408
                },
                {
                    "name": "D4",
                    "midi": 62,
                    "time": 161.44253200000063,
                    "velocity": 0.33858267716535434,
                    "duration": 0.10402225000001408
                },
                {
                    "name": "A4",
                    "midi": 69,
                    "time": 161.85862100000065,
                    "velocity": 0.28346456692913385,
                    "duration": 0.4160889999999995
                },
                {
                    "name": "D#4",
                    "midi": 63,
                    "time": 161.85862100000065,
                    "velocity": 0.28346456692913385,
                    "duration": 0.4160889999999995
                },
                {
                    "name": "C4",
                    "midi": 60,
                    "time": 161.85862100000065,
                    "velocity": 0.28346456692913385,
                    "duration": 0.4160889999999995
                },
                {
                    "name": "F#3",
                    "midi": 54,
                    "time": 161.85862100000065,
                    "velocity": 0.28346456692913385,
                    "duration": 0.4160889999999995
                },
                {
                    "name": "G4",
                    "midi": 67,
                    "time": 162.27471000000065,
                    "velocity": 0.28346456692913385,
                    "duration": 0.4160889999999995
                },
                {
                    "name": "D4",
                    "midi": 62,
                    "time": 162.27471000000065,
                    "velocity": 0.28346456692913385,
                    "duration": 0.4160889999999995
                },
                {
                    "name": "A#3",
                    "midi": 58,
                    "time": 162.27471000000065,
                    "velocity": 0.28346456692913385,
                    "duration": 0.4160889999999995
                },
                {
                    "name": "G3",
                    "midi": 55,
                    "time": 162.27471000000065,
                    "velocity": 0.28346456692913385,
                    "duration": 0.4160889999999995
                },
                {
                    "name": "F#4",
                    "midi": 66,
                    "time": 162.69079900000065,
                    "velocity": 0.2755905511811024,
                    "duration": 0.4160889999999995
                },
                {
                    "name": "D4",
                    "midi": 62,
                    "time": 162.69079900000065,
                    "velocity": 0.2755905511811024,
                    "duration": 0.4160889999999995
                },
                {
                    "name": "A3",
                    "midi": 57,
                    "time": 162.69079900000065,
                    "velocity": 0.2755905511811024,
                    "duration": 0.4160889999999995
                },
                {
                    "name": "E4",
                    "midi": 64,
                    "time": 163.10688800000065,
                    "velocity": 0.2677165354330709,
                    "duration": 0.832177999999999
                },
                {
                    "name": "D4",
                    "midi": 62,
                    "time": 163.10688800000065,
                    "velocity": 0.2677165354330709,
                    "duration": 0.832177999999999
                },
                {
                    "name": "A#3",
                    "midi": 58,
                    "time": 163.10688800000065,
                    "velocity": 0.2677165354330709,
                    "duration": 0.832177999999999
                },
                {
                    "name": "G4",
                    "midi": 67,
                    "time": 163.93906600000065,
                    "velocity": 0.28346456692913385,
                    "duration": 0.832177999999999
                },
                {
                    "name": "E4",
                    "midi": 64,
                    "time": 163.93906600000065,
                    "velocity": 0.28346456692913385,
                    "duration": 0.832177999999999
                },
                {
                    "name": "C#4",
                    "midi": 61,
                    "time": 163.93906600000065,
                    "velocity": 0.28346456692913385,
                    "duration": 0.832177999999999
                },
                {
                    "name": "F#4",
                    "midi": 66,
                    "time": 164.77124400000065,
                    "velocity": 0.33070866141732286,
                    "duration": 1.664355999999998
                },
                {
                    "name": "D4",
                    "midi": 62,
                    "time": 164.77124400000065,
                    "velocity": 0.33070866141732286,
                    "duration": 1.664355999999998
                },
                {
                    "name": "A3",
                    "midi": 57,
                    "time": 165.60342200000065,
                    "velocity": 0.2992125984251969,
                    "duration": 0.832177999999999
                },
                {
                    "name": "G3",
                    "midi": 55,
                    "time": 166.43560000000065,
                    "velocity": 0.28346456692913385,
                    "duration": 0.832177999999999
                },
                {
                    "name": "B3",
                    "midi": 59,
                    "time": 166.43560000000065,
                    "velocity": 0.28346456692913385,
                    "duration": 2.496533999999997
                },
                {
                    "name": "E3",
                    "midi": 52,
                    "time": 167.26777800000065,
                    "velocity": 0.29133858267716534,
                    "duration": 2.496533999999997
                },
                {
                    "name": "A2",
                    "midi": 45,
                    "time": 167.26777800000065,
                    "velocity": 0.29133858267716534,
                    "duration": 2.496533999999997
                },
                {
                    "name": "C#4",
                    "midi": 61,
                    "time": 168.93213400000064,
                    "velocity": 0.2992125984251969,
                    "duration": 0.832177999999999
                },
                {
                    "name": "G#2",
                    "midi": 44,
                    "time": 169.76431200000064,
                    "velocity": 0.2992125984251969,
                    "duration": 0.832177999999999
                },
                {
                    "name": "A2",
                    "midi": 45,
                    "time": 170.59649000000064,
                    "velocity": 0.30708661417322836,
                    "duration": 0.4160889999999995
                },
                {
                    "name": "B2",
                    "midi": 47,
                    "time": 171.01257900000064,
                    "velocity": 0.2992125984251969,
                    "duration": 0.4160889999999995
                },
                {
                    "name": "C#3",
                    "midi": 49,
                    "time": 171.42866800000064,
                    "velocity": 0.30708661417322836,
                    "duration": 0.4160889999999995
                },
                {
                    "name": "D#3",
                    "midi": 51,
                    "time": 171.84475700000064,
                    "velocity": 0.29133858267716534,
                    "duration": 0.20804449999999974
                },
                {
                    "name": "F3",
                    "midi": 53,
                    "time": 172.05280150000064,
                    "velocity": 0.31496062992125984,
                    "duration": 0.20804449999999974
                },
                {
                    "name": "F#3",
                    "midi": 54,
                    "time": 172.26084600000064,
                    "velocity": 0.3543307086614173,
                    "duration": 0.832177999999999
                },
                {
                    "name": "G#3",
                    "midi": 56,
                    "time": 173.09302400000064,
                    "velocity": 0.28346456692913385,
                    "duration": 0.832177999999999
                },
                {
                    "name": "A3",
                    "midi": 57,
                    "time": 173.92520200000064,
                    "velocity": 0.2992125984251969,
                    "duration": 0.7975039166666704
                },
                {
                    "name": "B3",
                    "midi": 59,
                    "time": 174.75738000000064,
                    "velocity": 0.2992125984251969,
                    "duration": 0.832177999999999
                },
                {
                    "name": "C#4",
                    "midi": 61,
                    "time": 175.58955800000064,
                    "velocity": 0.30708661417322836,
                    "duration": 0.4160889999999995
                },
                {
                    "name": "D4",
                    "midi": 62,
                    "time": 176.00564700000064,
                    "velocity": 0.2992125984251969,
                    "duration": 0.4160889999999995
                },
                {
                    "name": "E4",
                    "midi": 64,
                    "time": 176.42173600000064,
                    "velocity": 0.30708661417322836,
                    "duration": 0.4160889999999995
                },
                {
                    "name": "F4",
                    "midi": 65,
                    "time": 176.83782500000063,
                    "velocity": 0.30708661417322836,
                    "duration": 0.4160889999999995
                },
                {
                    "name": "F#4",
                    "midi": 66,
                    "time": 177.25391400000063,
                    "velocity": 0.30708661417322836,
                    "duration": 2.496533999999997
                },
                {
                    "name": "A#1",
                    "midi": 34,
                    "time": 179.75044800000063,
                    "velocity": 0.2755905511811024,
                    "duration": 0.6761446250000063
                },
                {
                    "name": "A#2",
                    "midi": 46,
                    "time": 179.75044800000063,
                    "velocity": 0.2755905511811024,
                    "duration": 0.6761446250000063
                },
                {
                    "name": "G3",
                    "midi": 55,
                    "time": 180.42659262500064,
                    "velocity": 0.2440944881889764,
                    "duration": 0.9847439666666844
                },
                {
                    "name": "A#3",
                    "midi": 58,
                    "time": 180.47860375000064,
                    "velocity": 0.25984251968503935,
                    "duration": 0.9327328416666774
                },
                {
                    "name": "D#4",
                    "midi": 63,
                    "time": 180.53061487500065,
                    "velocity": 0.2755905511811024,
                    "duration": 0.8772543083333346
                },
                {
                    "name": "G4",
                    "midi": 67,
                    "time": 180.58262600000066,
                    "velocity": 0.31496062992125984,
                    "duration": 0.820042070833324
                },
                {
                    "name": "A#2",
                    "midi": 46,
                    "time": 181.41480400000066,
                    "velocity": 0.2992125984251969,
                    "duration": 1.5083226250000052
                },
                {
                    "name": "A#1",
                    "midi": 34,
                    "time": 182.24698200000066,
                    "velocity": 0.3464566929133858,
                    "duration": 0.6761446250000063
                },
                {
                    "name": "G3",
                    "midi": 55,
                    "time": 182.92312662500066,
                    "velocity": 0.2440944881889764,
                    "duration": 0.9847439666666844
                },
                {
                    "name": "A#3",
                    "midi": 58,
                    "time": 182.97513775000067,
                    "velocity": 0.25984251968503935,
                    "duration": 0.9327328416666774
                },
                {
                    "name": "D#4",
                    "midi": 63,
                    "time": 183.02714887500068,
                    "velocity": 0.2755905511811024,
                    "duration": 0.8789880125000025
                },
                {
                    "name": "G4",
                    "midi": 67,
                    "time": 183.07916000000068,
                    "velocity": 0.3228346456692913,
                    "duration": 0.8269768874999954
                },
                {
                    "name": "A#2",
                    "midi": 46,
                    "time": 183.91133800000068,
                    "velocity": 0.3228346456692913,
                    "duration": 1.2482669999999985
                },
                {
                    "name": "A#1",
                    "midi": 34,
                    "time": 184.74351600000068,
                    "velocity": 0.3228346456692913,
                    "duration": 0.4160889999999995
                },
                {
                    "name": "D#3",
                    "midi": 51,
                    "time": 185.57569400000068,
                    "velocity": 0.28346456692913385,
                    "duration": 0.4160889999999995
                },
                {
                    "name": "G3",
                    "midi": 55,
                    "time": 185.57569400000068,
                    "velocity": 0.28346456692913385,
                    "duration": 0.4160889999999995
                },
                {
                    "name": "G4",
                    "midi": 67,
                    "time": 186.40787200000068,
                    "velocity": 0.25984251968503935,
                    "duration": 0.10402225000001408
                },
                {
                    "name": "C5",
                    "midi": 72,
                    "time": 186.40787200000068,
                    "velocity": 0.25984251968503935,
                    "duration": 0.10402225000001408
                },
                {
                    "name": "D#5",
                    "midi": 75,
                    "time": 186.40787200000068,
                    "velocity": 0.25984251968503935,
                    "duration": 0.10402225000001408
                },
                {
                    "name": "A#2",
                    "midi": 46,
                    "time": 187.2400500000007,
                    "velocity": 0.3228346456692913,
                    "duration": 0.4160889999999995
                },
                {
                    "name": "A#1",
                    "midi": 34,
                    "time": 187.2400500000007,
                    "velocity": 0.3228346456692913,
                    "duration": 0.4160889999999995
                },
                {
                    "name": "A#3",
                    "midi": 58,
                    "time": 188.0722280000007,
                    "velocity": 0.28346456692913385,
                    "duration": 0.4160889999999995
                },
                {
                    "name": "D3",
                    "midi": 50,
                    "time": 188.0722280000007,
                    "velocity": 0.28346456692913385,
                    "duration": 0.4160889999999995
                },
                {
                    "name": "G3",
                    "midi": 55,
                    "time": 188.0722280000007,
                    "velocity": 0.28346456692913385,
                    "duration": 0.4160889999999995
                },
                {
                    "name": "G4",
                    "midi": 67,
                    "time": 188.9044060000007,
                    "velocity": 0.25984251968503935,
                    "duration": 0.10402225000001408
                },
                {
                    "name": "A#4",
                    "midi": 70,
                    "time": 188.9044060000007,
                    "velocity": 0.25984251968503935,
                    "duration": 0.10402225000001408
                },
                {
                    "name": "D5",
                    "midi": 74,
                    "time": 188.9044060000007,
                    "velocity": 0.25984251968503935,
                    "duration": 0.10402225000001408
                },
                {
                    "name": "G3",
                    "midi": 55,
                    "time": 189.73658400000073,
                    "velocity": 0.28346456692913385,
                    "duration": 0.832177999999999
                },
                {
                    "name": "A#2",
                    "midi": 46,
                    "time": 189.73658400000073,
                    "velocity": 0.3228346456692913,
                    "duration": 2.496533999999997
                },
                {
                    "name": "G#3",
                    "midi": 56,
                    "time": 190.56876200000073,
                    "velocity": 0.2992125984251969,
                    "duration": 0.832177999999999
                },
                {
                    "name": "G#4",
                    "midi": 68,
                    "time": 191.40094000000073,
                    "velocity": 0.28346456692913385,
                    "duration": 0.05201112500000704
                },
                {
                    "name": "F5",
                    "midi": 77,
                    "time": 191.40094000000073,
                    "velocity": 0.28346456692913385,
                    "duration": 0.05201112500000704
                },
                {
                    "name": "C#5",
                    "midi": 73,
                    "time": 191.40094000000073,
                    "velocity": 0.28346456692913385,
                    "duration": 0.05201112500000704
                },
                {
                    "name": "A#2",
                    "midi": 46,
                    "time": 192.23311800000073,
                    "velocity": 0.3228346456692913,
                    "duration": 0.832177999999999
                },
                {
                    "name": "D#3",
                    "midi": 51,
                    "time": 192.23311800000073,
                    "velocity": 0.3228346456692913,
                    "duration": 0.832177999999999
                },
                {
                    "name": "D#5",
                    "midi": 75,
                    "time": 193.06529600000073,
                    "velocity": 0.28346456692913385,
                    "duration": 0.4160889999999995
                },
                {
                    "name": "C#5",
                    "midi": 73,
                    "time": 193.06529600000073,
                    "velocity": 0.28346456692913385,
                    "duration": 0.4160889999999995
                },
                {
                    "name": "D#3",
                    "midi": 51,
                    "time": 193.89747400000073,
                    "velocity": 0.3228346456692913,
                    "duration": 1.664355999999998
                },
                {
                    "name": "A#2",
                    "midi": 46,
                    "time": 194.72965200000073,
                    "velocity": 0.3543307086614173,
                    "duration": 0.832177999999999
                },
                {
                    "name": "D#5",
                    "midi": 75,
                    "time": 195.56183000000073,
                    "velocity": 0.31496062992125984,
                    "duration": 0.4160889999999995
                },
                {
                    "name": "C#5",
                    "midi": 73,
                    "time": 195.56183000000073,
                    "velocity": 0.31496062992125984,
                    "duration": 0.4160889999999995
                },
                {
                    "name": "D#3",
                    "midi": 51,
                    "time": 196.39400800000072,
                    "velocity": 0.3700787401574803,
                    "duration": 0.832177999999999
                },
                {
                    "name": "E3",
                    "midi": 52,
                    "time": 197.22618600000072,
                    "velocity": 0.4094488188976378,
                    "duration": 0.832177999999999
                },
                {
                    "name": "F#2",
                    "midi": 42,
                    "time": 197.22618600000072,
                    "velocity": 0.4094488188976378,
                    "duration": 0.832177999999999
                },
                {
                    "name": "E5",
                    "midi": 76,
                    "time": 198.05836400000072,
                    "velocity": 0.3543307086614173,
                    "duration": 0.4160889999999995
                },
                {
                    "name": "C#5",
                    "midi": 73,
                    "time": 198.05836400000072,
                    "velocity": 0.3543307086614173,
                    "duration": 0.4160889999999995
                },
                {
                    "name": "E3",
                    "midi": 52,
                    "time": 198.89054200000072,
                    "velocity": 0.4094488188976378,
                    "duration": 1.2482669999999985
                },
                {
                    "name": "E2",
                    "midi": 40,
                    "time": 199.72272000000072,
                    "velocity": 0.47244094488188976,
                    "duration": 0.4160889999999995
                },
                {
                    "name": "D5",
                    "midi": 74,
                    "time": 200.55489800000072,
                    "velocity": 0.36220472440944884,
                    "duration": 0.4160889999999995
                },
                {
                    "name": "E5",
                    "midi": 76,
                    "time": 200.55489800000072,
                    "velocity": 0.36220472440944884,
                    "duration": 0.4160889999999995
                },
                {
                    "name": "E3",
                    "midi": 52,
                    "time": 201.38707600000072,
                    "velocity": 0.4251968503937008,
                    "duration": 0.832177999999999
                },
                {
                    "name": "E2",
                    "midi": 40,
                    "time": 202.01120950000072,
                    "velocity": 0.5118110236220472,
                    "duration": 0.20804449999999974
                },
                {
                    "name": "D4",
                    "midi": 62,
                    "time": 202.21925400000072,
                    "velocity": 0.4409448818897638,
                    "duration": 0.832177999999999
                },
                {
                    "name": "C#4",
                    "midi": 61,
                    "time": 202.21925400000072,
                    "velocity": 0.4409448818897638,
                    "duration": 0.832177999999999
                },
                {
                    "name": "A4",
                    "midi": 69,
                    "time": 202.21925400000072,
                    "velocity": 0.4409448818897638,
                    "duration": 0.832177999999999
                },
                {
                    "name": "G#4",
                    "midi": 68,
                    "time": 203.05143200000072,
                    "velocity": 0.41732283464566927,
                    "duration": 0.832177999999999
                },
                {
                    "name": "D4",
                    "midi": 62,
                    "time": 203.05143200000072,
                    "velocity": 0.41732283464566927,
                    "duration": 0.832177999999999
                },
                {
                    "name": "B3",
                    "midi": 59,
                    "time": 203.05143200000072,
                    "velocity": 0.41732283464566927,
                    "duration": 0.832177999999999
                },
                {
                    "name": "F#4",
                    "midi": 66,
                    "time": 203.88361000000071,
                    "velocity": 0.3779527559055118,
                    "duration": 0.832177999999999
                },
                {
                    "name": "D4",
                    "midi": 62,
                    "time": 203.88361000000071,
                    "velocity": 0.3779527559055118,
                    "duration": 0.832177999999999
                },
                {
                    "name": "G#3",
                    "midi": 56,
                    "time": 203.88361000000071,
                    "velocity": 0.3779527559055118,
                    "duration": 0.832177999999999
                },
                {
                    "name": "E4",
                    "midi": 64,
                    "time": 204.7157880000007,
                    "velocity": 0.3700787401574803,
                    "duration": 1.2482669999999985
                },
                {
                    "name": "C#4",
                    "midi": 61,
                    "time": 204.7157880000007,
                    "velocity": 0.3700787401574803,
                    "duration": 1.2482669999999985
                },
                {
                    "name": "A3",
                    "midi": 57,
                    "time": 204.7157880000007,
                    "velocity": 0.3700787401574803,
                    "duration": 1.2482669999999985
                },
                {
                    "name": "E2",
                    "midi": 40,
                    "time": 205.5479660000007,
                    "velocity": 0.5039370078740157,
                    "duration": 1.664355999999998
                },
                {
                    "name": "A3",
                    "midi": 57,
                    "time": 205.9640550000007,
                    "velocity": 0.4251968503937008,
                    "duration": 0.4160889999999995
                },
                {
                    "name": "C#4",
                    "midi": 61,
                    "time": 205.9640550000007,
                    "velocity": 0.4251968503937008,
                    "duration": 0.4160889999999995
                },
                {
                    "name": "F#4",
                    "midi": 66,
                    "time": 205.9640550000007,
                    "velocity": 0.4251968503937008,
                    "duration": 0.4160889999999995
                },
                {
                    "name": "C#4",
                    "midi": 61,
                    "time": 206.3801440000007,
                    "velocity": 0.4251968503937008,
                    "duration": 0.4160889999999995
                },
                {
                    "name": "F#4",
                    "midi": 66,
                    "time": 206.3801440000007,
                    "velocity": 0.4251968503937008,
                    "duration": 0.4160889999999995
                },
                {
                    "name": "A4",
                    "midi": 69,
                    "time": 206.3801440000007,
                    "velocity": 0.4251968503937008,
                    "duration": 0.4160889999999995
                },
                {
                    "name": "F#4",
                    "midi": 66,
                    "time": 206.7962330000007,
                    "velocity": 0.4251968503937008,
                    "duration": 0.4160889999999995
                },
                {
                    "name": "A4",
                    "midi": 69,
                    "time": 206.7962330000007,
                    "velocity": 0.4251968503937008,
                    "duration": 0.4160889999999995
                },
                {
                    "name": "C#5",
                    "midi": 73,
                    "time": 206.7962330000007,
                    "velocity": 0.4251968503937008,
                    "duration": 0.4160889999999995
                },
                {
                    "name": "D4",
                    "midi": 62,
                    "time": 207.2123220000007,
                    "velocity": 0.4409448818897638,
                    "duration": 0.832177999999999
                },
                {
                    "name": "C#4",
                    "midi": 61,
                    "time": 207.2123220000007,
                    "velocity": 0.4409448818897638,
                    "duration": 0.832177999999999
                },
                {
                    "name": "A4",
                    "midi": 69,
                    "time": 207.2123220000007,
                    "velocity": 0.4409448818897638,
                    "duration": 0.832177999999999
                },
                {
                    "name": "G#4",
                    "midi": 68,
                    "time": 208.0445000000007,
                    "velocity": 0.41732283464566927,
                    "duration": 0.832177999999999
                },
                {
                    "name": "D4",
                    "midi": 62,
                    "time": 208.0445000000007,
                    "velocity": 0.41732283464566927,
                    "duration": 0.832177999999999
                },
                {
                    "name": "B3",
                    "midi": 59,
                    "time": 208.0445000000007,
                    "velocity": 0.41732283464566927,
                    "duration": 0.832177999999999
                },
                {
                    "name": "F#4",
                    "midi": 66,
                    "time": 208.8766780000007,
                    "velocity": 0.3779527559055118,
                    "duration": 0.832177999999999
                },
                {
                    "name": "D4",
                    "midi": 62,
                    "time": 208.8766780000007,
                    "velocity": 0.3779527559055118,
                    "duration": 0.832177999999999
                },
                {
                    "name": "G#3",
                    "midi": 56,
                    "time": 208.8766780000007,
                    "velocity": 0.3779527559055118,
                    "duration": 0.832177999999999
                },
                {
                    "name": "E4",
                    "midi": 64,
                    "time": 209.7088560000007,
                    "velocity": 0.3700787401574803,
                    "duration": 1.2482669999999985
                },
                {
                    "name": "C#4",
                    "midi": 61,
                    "time": 209.7088560000007,
                    "velocity": 0.3700787401574803,
                    "duration": 1.2482669999999985
                },
                {
                    "name": "A3",
                    "midi": 57,
                    "time": 209.7088560000007,
                    "velocity": 0.3700787401574803,
                    "duration": 1.2482669999999985
                },
                {
                    "name": "E2",
                    "midi": 40,
                    "time": 210.5410340000007,
                    "velocity": 0.5039370078740157,
                    "duration": 1.6296819166666694
                },
                {
                    "name": "F#3",
                    "midi": 54,
                    "time": 210.9571230000007,
                    "velocity": 0.3858267716535433,
                    "duration": 0.4160889999999995
                },
                {
                    "name": "A3",
                    "midi": 57,
                    "time": 211.3732120000007,
                    "velocity": 0.4094488188976378,
                    "duration": 0.4160889999999995
                },
                {
                    "name": "C#4",
                    "midi": 61,
                    "time": 211.7893010000007,
                    "velocity": 0.4251968503937008,
                    "duration": 0.38141491666667093
                },
                {
                    "name": "D2",
                    "midi": 38,
                    "time": 212.2053900000007,
                    "velocity": 0.4409448818897638,
                    "duration": 2.496533999999997
                },
                {
                    "name": "A2",
                    "midi": 45,
                    "time": 212.2053900000007,
                    "velocity": 0.4409448818897638,
                    "duration": 2.496533999999997
                },
                {
                    "name": "C#4",
                    "midi": 61,
                    "time": 212.6214790000007,
                    "velocity": 0.4409448818897638,
                    "duration": 0.4160889999999995
                },
                {
                    "name": "F#3",
                    "midi": 54,
                    "time": 213.0375680000007,
                    "velocity": 0.3779527559055118,
                    "duration": 0.832177999999999
                },
                {
                    "name": "A3",
                    "midi": 57,
                    "time": 213.0375680000007,
                    "velocity": 0.3779527559055118,
                    "duration": 0.832177999999999
                },
                {
                    "name": "C#4",
                    "midi": 61,
                    "time": 213.0375680000007,
                    "velocity": 0.3779527559055118,
                    "duration": 0.832177999999999
                },
                {
                    "name": "A2",
                    "midi": 45,
                    "time": 213.8697460000007,
                    "velocity": 0.4094488188976378,
                    "duration": 0.832177999999999
                },
                {
                    "name": "G#1",
                    "midi": 32,
                    "time": 214.7019240000007,
                    "velocity": 0.41732283464566927,
                    "duration": 0.832177999999999
                },
                {
                    "name": "G#2",
                    "midi": 44,
                    "time": 214.7019240000007,
                    "velocity": 0.41732283464566927,
                    "duration": 0.832177999999999
                },
                {
                    "name": "G#3",
                    "midi": 56,
                    "time": 215.1180130000007,
                    "velocity": 0.33858267716535434,
                    "duration": 0.20804449999999974
                },
                {
                    "name": "B3",
                    "midi": 59,
                    "time": 215.1180130000007,
                    "velocity": 0.33858267716535434,
                    "duration": 0.20804449999999974
                },
                {
                    "name": "F3",
                    "midi": 53,
                    "time": 215.3260575000007,
                    "velocity": 0.28346456692913385,
                    "duration": 0.20804449999999974
                },
                {
                    "name": "A3",
                    "midi": 57,
                    "time": 215.3260575000007,
                    "velocity": 0.31496062992125984,
                    "duration": 0.20804449999999974
                },
                {
                    "name": "D3",
                    "midi": 50,
                    "time": 215.5341020000007,
                    "velocity": 0.33858267716535434,
                    "duration": 0.832177999999999
                },
                {
                    "name": "G#3",
                    "midi": 56,
                    "time": 215.5341020000007,
                    "velocity": 0.33858267716535434,
                    "duration": 0.832177999999999
                },
                {
                    "name": "B3",
                    "midi": 59,
                    "time": 215.5341020000007,
                    "velocity": 0.33858267716535434,
                    "duration": 0.832177999999999
                },
                {
                    "name": "G#2",
                    "midi": 44,
                    "time": 216.3662800000007,
                    "velocity": 0.3543307086614173,
                    "duration": 0.832177999999999
                },
                {
                    "name": "D2",
                    "midi": 38,
                    "time": 217.1984580000007,
                    "velocity": 0.44881889763779526,
                    "duration": 0.832177999999999
                },
                {
                    "name": "A2",
                    "midi": 45,
                    "time": 217.1984580000007,
                    "velocity": 0.44881889763779526,
                    "duration": 0.832177999999999
                },
                {
                    "name": "C#4",
                    "midi": 61,
                    "time": 217.6145470000007,
                    "velocity": 0.4409448818897638,
                    "duration": 0.4160889999999995
                },
                {
                    "name": "F#3",
                    "midi": 54,
                    "time": 218.0306360000007,
                    "velocity": 0.3779527559055118,
                    "duration": 0.832177999999999
                },
                {
                    "name": "A3",
                    "midi": 57,
                    "time": 218.0306360000007,
                    "velocity": 0.3779527559055118,
                    "duration": 0.832177999999999
                },
                {
                    "name": "C#4",
                    "midi": 61,
                    "time": 218.0306360000007,
                    "velocity": 0.3779527559055118,
                    "duration": 0.832177999999999
                },
                {
                    "name": "A2",
                    "midi": 45,
                    "time": 218.8628140000007,
                    "velocity": 0.4094488188976378,
                    "duration": 0.832177999999999
                },
                {
                    "name": "B1",
                    "midi": 35,
                    "time": 219.6949920000007,
                    "velocity": 0.41732283464566927,
                    "duration": 0.832177999999999
                },
                {
                    "name": "B2",
                    "midi": 47,
                    "time": 219.6949920000007,
                    "velocity": 0.41732283464566927,
                    "duration": 0.832177999999999
                },
                {
                    "name": "F#3",
                    "midi": 54,
                    "time": 220.5271700000007,
                    "velocity": 0.3700787401574803,
                    "duration": 0.832177999999999
                },
                {
                    "name": "B3",
                    "midi": 59,
                    "time": 220.5271700000007,
                    "velocity": 0.3700787401574803,
                    "duration": 0.832177999999999
                },
                {
                    "name": "D4",
                    "midi": 62,
                    "time": 220.5271700000007,
                    "velocity": 0.3700787401574803,
                    "duration": 0.832177999999999
                },
                {
                    "name": "A2",
                    "midi": 45,
                    "time": 221.3593480000007,
                    "velocity": 0.3543307086614173,
                    "duration": 0.832177999999999
                },
                {
                    "name": "A1",
                    "midi": 33,
                    "time": 221.3593480000007,
                    "velocity": 0.3543307086614173,
                    "duration": 0.832177999999999
                },
                {
                    "name": "G#1",
                    "midi": 32,
                    "time": 222.1915260000007,
                    "velocity": 0.44881889763779526,
                    "duration": 0.832177999999999
                },
                {
                    "name": "G#2",
                    "midi": 44,
                    "time": 222.1915260000007,
                    "velocity": 0.44881889763779526,
                    "duration": 0.832177999999999
                },
                {
                    "name": "D4",
                    "midi": 62,
                    "time": 222.6076150000007,
                    "velocity": 0.4409448818897638,
                    "duration": 0.4160889999999995
                },
                {
                    "name": "G#3",
                    "midi": 56,
                    "time": 223.0237040000007,
                    "velocity": 0.3779527559055118,
                    "duration": 1.664355999999998
                },
                {
                    "name": "B3",
                    "midi": 59,
                    "time": 223.0237040000007,
                    "velocity": 0.3779527559055118,
                    "duration": 1.664355999999998
                },
                {
                    "name": "D4",
                    "midi": 62,
                    "time": 223.0237040000007,
                    "velocity": 0.3779527559055118,
                    "duration": 0.832177999999999
                },
                {
                    "name": "E4",
                    "midi": 64,
                    "time": 223.8558820000007,
                    "velocity": 0.3700787401574803,
                    "duration": 0.4160889999999995
                },
                {
                    "name": "C#4",
                    "midi": 61,
                    "time": 223.8558820000007,
                    "velocity": 0.3700787401574803,
                    "duration": 0.4160889999999995
                },
                {
                    "name": "D4",
                    "midi": 62,
                    "time": 224.2719710000007,
                    "velocity": 0.3700787401574803,
                    "duration": 0.4160889999999995
                },
                {
                    "name": "F#4",
                    "midi": 66,
                    "time": 224.2719710000007,
                    "velocity": 0.3700787401574803,
                    "duration": 0.4160889999999995
                },
                {
                    "name": "C#2",
                    "midi": 37,
                    "time": 224.6880600000007,
                    "velocity": 0.41732283464566927,
                    "duration": 0.832177999999999
                },
                {
                    "name": "C#3",
                    "midi": 49,
                    "time": 224.6880600000007,
                    "velocity": 0.41732283464566927,
                    "duration": 0.832177999999999
                },
                {
                    "name": "F4",
                    "midi": 65,
                    "time": 225.1041490000007,
                    "velocity": 0.4015748031496063,
                    "duration": 0.20804449999999974
                },
                {
                    "name": "G#4",
                    "midi": 68,
                    "time": 225.1041490000007,
                    "velocity": 0.4015748031496063,
                    "duration": 0.20804449999999974
                },
                {
                    "name": "D#4",
                    "midi": 63,
                    "time": 225.3121935000007,
                    "velocity": 0.4015748031496063,
                    "duration": 0.20804449999999974
                },
                {
                    "name": "F#4",
                    "midi": 66,
                    "time": 225.3121935000007,
                    "velocity": 0.4015748031496063,
                    "duration": 0.20804449999999974
                },
                {
                    "name": "B3",
                    "midi": 59,
                    "time": 225.5202380000007,
                    "velocity": 0.41732283464566927,
                    "duration": 1.664355999999998
                },
                {
                    "name": "F4",
                    "midi": 65,
                    "time": 225.5202380000007,
                    "velocity": 0.4251968503937008,
                    "duration": 0.38141491666667093
                },
                {
                    "name": "G#4",
                    "midi": 68,
                    "time": 225.5202380000007,
                    "velocity": 0.4251968503937008,
                    "duration": 0.38141491666667093
                },
                {
                    "name": "C#4",
                    "midi": 61,
                    "time": 225.9363270000007,
                    "velocity": 0.4251968503937008,
                    "duration": 0.4160889999999995
                },
                {
                    "name": "F4",
                    "midi": 65,
                    "time": 225.9363270000007,
                    "velocity": 0.4251968503937008,
                    "duration": 0.4160889999999995
                },
                {
                    "name": "D#4",
                    "midi": 63,
                    "time": 226.3524160000007,
                    "velocity": 0.4566929133858268,
                    "duration": 0.4160889999999995
                },
                {
                    "name": "F#4",
                    "midi": 66,
                    "time": 226.3524160000007,
                    "velocity": 0.4566929133858268,
                    "duration": 0.4160889999999995
                },
                {
                    "name": "F4",
                    "midi": 65,
                    "time": 226.7685050000007,
                    "velocity": 0.4881889763779528,
                    "duration": 0.4160889999999995
                },
                {
                    "name": "G#4",
                    "midi": 68,
                    "time": 226.7685050000007,
                    "velocity": 0.4881889763779528,
                    "duration": 0.4160889999999995
                },
                {
                    "name": "F#2",
                    "midi": 42,
                    "time": 227.1845940000007,
                    "velocity": 0.5826771653543307,
                    "duration": 0.832177999999999
                },
                {
                    "name": "C#3",
                    "midi": 49,
                    "time": 227.1845940000007,
                    "velocity": 0.5826771653543307,
                    "duration": 0.832177999999999
                },
                {
                    "name": "F#4",
                    "midi": 66,
                    "time": 227.60068300000069,
                    "velocity": 0.5748031496062992,
                    "duration": 0.4160889999999995
                },
                {
                    "name": "A3",
                    "midi": 57,
                    "time": 228.01677200000069,
                    "velocity": 0.5590551181102362,
                    "duration": 0.832177999999999
                },
                {
                    "name": "C#4",
                    "midi": 61,
                    "time": 228.01677200000069,
                    "velocity": 0.5590551181102362,
                    "duration": 0.832177999999999
                },
                {
                    "name": "F#4",
                    "midi": 66,
                    "time": 228.01677200000069,
                    "velocity": 0.5590551181102362,
                    "duration": 0.832177999999999
                },
                {
                    "name": "F#3",
                    "midi": 54,
                    "time": 228.84895000000068,
                    "velocity": 0.5196850393700787,
                    "duration": 0.832177999999999
                },
                {
                    "name": "A3",
                    "midi": 57,
                    "time": 228.84895000000068,
                    "velocity": 0.5196850393700787,
                    "duration": 0.832177999999999
                },
                {
                    "name": "C#4",
                    "midi": 61,
                    "time": 228.84895000000068,
                    "velocity": 0.5196850393700787,
                    "duration": 0.832177999999999
                },
                {
                    "name": "D2",
                    "midi": 38,
                    "time": 229.68112800000068,
                    "velocity": 0.5826771653543307,
                    "duration": 2.496533999999997
                },
                {
                    "name": "A2",
                    "midi": 45,
                    "time": 229.68112800000068,
                    "velocity": 0.5826771653543307,
                    "duration": 2.496533999999997
                },
                {
                    "name": "D3",
                    "midi": 50,
                    "time": 230.09721700000068,
                    "velocity": 0.44881889763779526,
                    "duration": 0.4160889999999995
                },
                {
                    "name": "F#3",
                    "midi": 54,
                    "time": 230.09721700000068,
                    "velocity": 0.44881889763779526,
                    "duration": 0.4160889999999995
                },
                {
                    "name": "A3",
                    "midi": 57,
                    "time": 230.09721700000068,
                    "velocity": 0.44881889763779526,
                    "duration": 0.4160889999999995
                },
                {
                    "name": "F#3",
                    "midi": 54,
                    "time": 230.51330600000068,
                    "velocity": 0.44881889763779526,
                    "duration": 0.832177999999999
                },
                {
                    "name": "A3",
                    "midi": 57,
                    "time": 230.51330600000068,
                    "velocity": 0.44881889763779526,
                    "duration": 0.832177999999999
                },
                {
                    "name": "D4",
                    "midi": 62,
                    "time": 230.51330600000068,
                    "velocity": 0.44881889763779526,
                    "duration": 0.832177999999999
                },
                {
                    "name": "F#4",
                    "midi": 66,
                    "time": 231.34548400000068,
                    "velocity": 0.47244094488188976,
                    "duration": 0.4160889999999995
                },
                {
                    "name": "D4",
                    "midi": 62,
                    "time": 231.34548400000068,
                    "velocity": 0.47244094488188976,
                    "duration": 0.4160889999999995
                },
                {
                    "name": "A3",
                    "midi": 57,
                    "time": 231.34548400000068,
                    "velocity": 0.47244094488188976,
                    "duration": 0.4160889999999995
                },
                {
                    "name": "A4",
                    "midi": 69,
                    "time": 231.76157300000068,
                    "velocity": 0.4645669291338583,
                    "duration": 0.4160889999999995
                },
                {
                    "name": "F#4",
                    "midi": 66,
                    "time": 231.76157300000068,
                    "velocity": 0.4645669291338583,
                    "duration": 0.4160889999999995
                },
                {
                    "name": "D4",
                    "midi": 62,
                    "time": 231.76157300000068,
                    "velocity": 0.4645669291338583,
                    "duration": 0.4160889999999995
                },
                {
                    "name": "D4",
                    "midi": 62,
                    "time": 232.17766200000068,
                    "velocity": 0.5039370078740157,
                    "duration": 2.496533999999997
                },
                {
                    "name": "F#4",
                    "midi": 66,
                    "time": 232.17766200000068,
                    "velocity": 0.5039370078740157,
                    "duration": 2.496533999999997
                },
                {
                    "name": "A4",
                    "midi": 69,
                    "time": 232.17766200000068,
                    "velocity": 0.5039370078740157,
                    "duration": 2.496533999999997
                },
                {
                    "name": "B1",
                    "midi": 35,
                    "time": 234.67419600000068,
                    "velocity": 0.4094488188976378,
                    "duration": 2.496533999999997
                },
                {
                    "name": "B2",
                    "midi": 47,
                    "time": 234.67419600000068,
                    "velocity": 0.4094488188976378,
                    "duration": 2.496533999999997
                },
                {
                    "name": "D3",
                    "midi": 50,
                    "time": 235.09028500000068,
                    "velocity": 0.3543307086614173,
                    "duration": 0.4160889999999995
                },
                {
                    "name": "A3",
                    "midi": 57,
                    "time": 235.09028500000068,
                    "velocity": 0.3543307086614173,
                    "duration": 0.4160889999999995
                },
                {
                    "name": "F#3",
                    "midi": 54,
                    "time": 235.09028500000068,
                    "velocity": 0.3543307086614173,
                    "duration": 0.4160889999999995
                },
                {
                    "name": "F#3",
                    "midi": 54,
                    "time": 235.50637400000068,
                    "velocity": 0.3464566929133858,
                    "duration": 0.832177999999999
                },
                {
                    "name": "A3",
                    "midi": 57,
                    "time": 235.50637400000068,
                    "velocity": 0.3464566929133858,
                    "duration": 0.832177999999999
                },
                {
                    "name": "D4",
                    "midi": 62,
                    "time": 235.50637400000068,
                    "velocity": 0.3464566929133858,
                    "duration": 0.832177999999999
                },
                {
                    "name": "F#4",
                    "midi": 66,
                    "time": 236.33855200000067,
                    "velocity": 0.3464566929133858,
                    "duration": 0.4160889999999995
                },
                {
                    "name": "D4",
                    "midi": 62,
                    "time": 236.33855200000067,
                    "velocity": 0.3464566929133858,
                    "duration": 0.4160889999999995
                },
                {
                    "name": "A3",
                    "midi": 57,
                    "time": 236.33855200000067,
                    "velocity": 0.3464566929133858,
                    "duration": 0.4160889999999995
                },
                {
                    "name": "A4",
                    "midi": 69,
                    "time": 236.75464100000067,
                    "velocity": 0.3228346456692913,
                    "duration": 0.4160889999999995
                },
                {
                    "name": "F#4",
                    "midi": 66,
                    "time": 236.75464100000067,
                    "velocity": 0.3228346456692913,
                    "duration": 0.4160889999999995
                },
                {
                    "name": "D4",
                    "midi": 62,
                    "time": 236.75464100000067,
                    "velocity": 0.3228346456692913,
                    "duration": 0.4160889999999995
                },
                {
                    "name": "A4",
                    "midi": 69,
                    "time": 237.17073000000067,
                    "velocity": 0.3228346456692913,
                    "duration": 0.832177999999999
                },
                {
                    "name": "F#4",
                    "midi": 66,
                    "time": 237.17073000000067,
                    "velocity": 0.3228346456692913,
                    "duration": 0.832177999999999
                },
                {
                    "name": "D4",
                    "midi": 62,
                    "time": 237.17073000000067,
                    "velocity": 0.3228346456692913,
                    "duration": 0.832177999999999
                },
                {
                    "name": "B4",
                    "midi": 71,
                    "time": 238.83508600000067,
                    "velocity": 0.2755905511811024,
                    "duration": 0.20804449999999974
                },
                {
                    "name": "F#4",
                    "midi": 66,
                    "time": 238.83508600000067,
                    "velocity": 0.2755905511811024,
                    "duration": 0.20804449999999974
                },
                {
                    "name": "D4",
                    "midi": 62,
                    "time": 238.83508600000067,
                    "velocity": 0.2755905511811024,
                    "duration": 0.20804449999999974
                },
                {
                    "name": "B3",
                    "midi": 59,
                    "time": 238.83508600000067,
                    "velocity": 0.2755905511811024,
                    "duration": 0.20804449999999974
                },
                {
                    "name": "A1",
                    "midi": 33,
                    "time": 239.66726400000067,
                    "velocity": 0.2992125984251969,
                    "duration": 0.1560333749999927
                },
                {
                    "name": "E2",
                    "midi": 40,
                    "time": 239.66726400000067,
                    "velocity": 0.2992125984251969,
                    "duration": 0.1560333749999927
                },
                {
                    "name": "A2",
                    "midi": 45,
                    "time": 239.66726400000067,
                    "velocity": 0.2992125984251969,
                    "duration": 0.1560333749999927
                },
                {
                    "name": "C4",
                    "midi": 60,
                    "time": 240.08335300000067,
                    "velocity": 0.2677165354330709,
                    "duration": 0.20804449999999974
                },
                {
                    "name": "A3",
                    "midi": 57,
                    "time": 240.08335300000067,
                    "velocity": 0.2677165354330709,
                    "duration": 0.20804449999999974
                },
                {
                    "name": "E3",
                    "midi": 52,
                    "time": 240.29139750000067,
                    "velocity": 0.2677165354330709,
                    "duration": 0.20804449999999974
                },
                {
                    "name": "B3",
                    "midi": 59,
                    "time": 240.29139750000067,
                    "velocity": 0.2677165354330709,
                    "duration": 0.20804449999999974
                },
                {
                    "name": "C4",
                    "midi": 60,
                    "time": 240.49944200000067,
                    "velocity": 0.29133858267716534,
                    "duration": 0.05201112500000704
                },
                {
                    "name": "A3",
                    "midi": 57,
                    "time": 240.49944200000067,
                    "velocity": 0.29133858267716534,
                    "duration": 0.05201112500000704
                },
                {
                    "name": "C4",
                    "midi": 60,
                    "time": 240.91553100000067,
                    "velocity": 0.25984251968503935,
                    "duration": 0.10402225000001408
                },
                {
                    "name": "A3",
                    "midi": 57,
                    "time": 240.91553100000067,
                    "velocity": 0.25984251968503935,
                    "duration": 0.10402225000001408
                },
                {
                    "name": "G2",
                    "midi": 43,
                    "time": 241.7477090000007,
                    "velocity": 0.25984251968503935,
                    "duration": 0.10402225000001408
                },
                {
                    "name": "D3",
                    "midi": 50,
                    "time": 241.7477090000007,
                    "velocity": 0.25984251968503935,
                    "duration": 0.10402225000001408
                },
                {
                    "name": "G3",
                    "midi": 55,
                    "time": 241.7477090000007,
                    "velocity": 0.25984251968503935,
                    "duration": 0.10402225000001408
                },
                {
                    "name": "C2",
                    "midi": 36,
                    "time": 242.16379800000072,
                    "velocity": 0.28346456692913385,
                    "duration": 0.10402225000001408
                },
                {
                    "name": "G2",
                    "midi": 43,
                    "time": 242.16379800000072,
                    "velocity": 0.28346456692913385,
                    "duration": 0.10402225000001408
                },
                {
                    "name": "C3",
                    "midi": 48,
                    "time": 242.16379800000072,
                    "velocity": 0.28346456692913385,
                    "duration": 0.10402225000001408
                },
                {
                    "name": "E4",
                    "midi": 64,
                    "time": 242.57988700000075,
                    "velocity": 0.2677165354330709,
                    "duration": 0.20804449999999974
                },
                {
                    "name": "C4",
                    "midi": 60,
                    "time": 242.57988700000075,
                    "velocity": 0.2677165354330709,
                    "duration": 0.20804449999999974
                },
                {
                    "name": "G3",
                    "midi": 55,
                    "time": 242.78793150000075,
                    "velocity": 0.2677165354330709,
                    "duration": 0.20804449999999974
                },
                {
                    "name": "D4",
                    "midi": 62,
                    "time": 242.78793150000075,
                    "velocity": 0.2677165354330709,
                    "duration": 0.20804449999999974
                },
                {
                    "name": "C4",
                    "midi": 60,
                    "time": 242.99597600000075,
                    "velocity": 0.28346456692913385,
                    "duration": 0.05201112500000704
                },
                {
                    "name": "E4",
                    "midi": 64,
                    "time": 242.99597600000075,
                    "velocity": 0.28346456692913385,
                    "duration": 0.05201112500000704
                },
                {
                    "name": "C4",
                    "midi": 60,
                    "time": 243.41206500000075,
                    "velocity": 0.25984251968503935,
                    "duration": 0.10402225000001408
                },
                {
                    "name": "E4",
                    "midi": 64,
                    "time": 243.41206500000075,
                    "velocity": 0.25984251968503935,
                    "duration": 0.10402225000001408
                },
                {
                    "name": "G2",
                    "midi": 43,
                    "time": 244.24424300000078,
                    "velocity": 0.25984251968503935,
                    "duration": 0.10402225000001408
                },
                {
                    "name": "D3",
                    "midi": 50,
                    "time": 244.24424300000078,
                    "velocity": 0.25984251968503935,
                    "duration": 0.10402225000001408
                },
                {
                    "name": "G3",
                    "midi": 55,
                    "time": 244.24424300000078,
                    "velocity": 0.25984251968503935,
                    "duration": 0.10402225000001408
                },
                {
                    "name": "A2",
                    "midi": 45,
                    "time": 244.6603320000008,
                    "velocity": 0.2755905511811024,
                    "duration": 0.10402225000001408
                },
                {
                    "name": "E3",
                    "midi": 52,
                    "time": 244.6603320000008,
                    "velocity": 0.2755905511811024,
                    "duration": 0.10402225000001408
                },
                {
                    "name": "A3",
                    "midi": 57,
                    "time": 244.6603320000008,
                    "velocity": 0.2755905511811024,
                    "duration": 0.10402225000001408
                },
                {
                    "name": "A3",
                    "midi": 57,
                    "time": 245.07642100000083,
                    "velocity": 0.2677165354330709,
                    "duration": 0.20804449999999974
                },
                {
                    "name": "C4",
                    "midi": 60,
                    "time": 245.07642100000083,
                    "velocity": 0.2677165354330709,
                    "duration": 0.20804449999999974
                },
                {
                    "name": "E3",
                    "midi": 52,
                    "time": 245.28446550000083,
                    "velocity": 0.2677165354330709,
                    "duration": 0.20804449999999974
                },
                {
                    "name": "B3",
                    "midi": 59,
                    "time": 245.28446550000083,
                    "velocity": 0.2677165354330709,
                    "duration": 0.20804449999999974
                },
                {
                    "name": "C4",
                    "midi": 60,
                    "time": 245.49251000000083,
                    "velocity": 0.28346456692913385,
                    "duration": 0.05201112500000704
                },
                {
                    "name": "A3",
                    "midi": 57,
                    "time": 245.49251000000083,
                    "velocity": 0.28346456692913385,
                    "duration": 0.05201112500000704
                },
                {
                    "name": "C4",
                    "midi": 60,
                    "time": 245.90859900000083,
                    "velocity": 0.25196850393700787,
                    "duration": 0.10402225000001408
                },
                {
                    "name": "A3",
                    "midi": 57,
                    "time": 245.90859900000083,
                    "velocity": 0.25196850393700787,
                    "duration": 0.10402225000001408
                },
                {
                    "name": "G2",
                    "midi": 43,
                    "time": 246.74077700000086,
                    "velocity": 0.25196850393700787,
                    "duration": 0.10402225000001408
                },
                {
                    "name": "D3",
                    "midi": 50,
                    "time": 246.74077700000086,
                    "velocity": 0.25196850393700787,
                    "duration": 0.10402225000001408
                },
                {
                    "name": "G3",
                    "midi": 55,
                    "time": 246.74077700000086,
                    "velocity": 0.25196850393700787,
                    "duration": 0.10402225000001408
                },
                {
                    "name": "C2",
                    "midi": 36,
                    "time": 247.1568660000009,
                    "velocity": 0.29133858267716534,
                    "duration": 0.10402225000001408
                },
                {
                    "name": "G2",
                    "midi": 43,
                    "time": 247.1568660000009,
                    "velocity": 0.29133858267716534,
                    "duration": 0.10402225000001408
                },
                {
                    "name": "C3",
                    "midi": 48,
                    "time": 247.1568660000009,
                    "velocity": 0.29133858267716534,
                    "duration": 0.10402225000001408
                },
                {
                    "name": "E4",
                    "midi": 64,
                    "time": 247.57295500000092,
                    "velocity": 0.25984251968503935,
                    "duration": 0.20804449999999974
                },
                {
                    "name": "C4",
                    "midi": 60,
                    "time": 247.57295500000092,
                    "velocity": 0.25984251968503935,
                    "duration": 0.20804449999999974
                },
                {
                    "name": "G3",
                    "midi": 55,
                    "time": 247.78099950000092,
                    "velocity": 0.25984251968503935,
                    "duration": 0.20804449999999974
                },
                {
                    "name": "D4",
                    "midi": 62,
                    "time": 247.78099950000092,
                    "velocity": 0.25984251968503935,
                    "duration": 0.20804449999999974
                },
                {
                    "name": "C4",
                    "midi": 60,
                    "time": 247.98904400000092,
                    "velocity": 0.2755905511811024,
                    "duration": 0.05201112500000704
                },
                {
                    "name": "E4",
                    "midi": 64,
                    "time": 247.98904400000092,
                    "velocity": 0.2755905511811024,
                    "duration": 0.05201112500000704
                },
                {
                    "name": "C4",
                    "midi": 60,
                    "time": 248.40513300000092,
                    "velocity": 0.25196850393700787,
                    "duration": 0.10402225000001408
                },
                {
                    "name": "E4",
                    "midi": 64,
                    "time": 248.40513300000092,
                    "velocity": 0.25196850393700787,
                    "duration": 0.10402225000001408
                },
                {
                    "name": "E4",
                    "midi": 64,
                    "time": 249.23731100000094,
                    "velocity": 0.25196850393700787,
                    "duration": 0.10402225000001408
                },
                {
                    "name": "B3",
                    "midi": 59,
                    "time": 249.23731100000094,
                    "velocity": 0.25196850393700787,
                    "duration": 0.10402225000001408
                },
                {
                    "name": "E3",
                    "midi": 52,
                    "time": 249.23731100000094,
                    "velocity": 0.25196850393700787,
                    "duration": 0.10402225000001408
                },
                {
                    "name": "E3",
                    "midi": 52,
                    "time": 249.65340000000097,
                    "velocity": 0.2677165354330709,
                    "duration": 0.10402225000001408
                },
                {
                    "name": "B3",
                    "midi": 59,
                    "time": 249.65340000000097,
                    "velocity": 0.2677165354330709,
                    "duration": 0.10402225000001408
                },
                {
                    "name": "E4",
                    "midi": 64,
                    "time": 249.65340000000097,
                    "velocity": 0.2677165354330709,
                    "duration": 0.10402225000001408
                },
                {
                    "name": "E2",
                    "midi": 40,
                    "time": 250.485578000001,
                    "velocity": 0.31496062992125984,
                    "duration": 0.4160889999999995
                },
                {
                    "name": "E3",
                    "midi": 52,
                    "time": 251.317756000001,
                    "velocity": 0.3464566929133858,
                    "duration": 0.4160889999999995
                },
                {
                    "name": "C2",
                    "midi": 36,
                    "time": 252.982112000001,
                    "velocity": 0.2992125984251969,
                    "duration": 0.4160889999999995
                },
                {
                    "name": "B1",
                    "midi": 35,
                    "time": 253.814290000001,
                    "velocity": 0.28346456692913385,
                    "duration": 0.4160889999999995
                },
                {
                    "name": "A1",
                    "midi": 33,
                    "time": 254.646468000001,
                    "velocity": 0.28346456692913385,
                    "duration": 0.4160889999999995
                },
                {
                    "name": "A1",
                    "midi": 33,
                    "time": 257.143002000001,
                    "velocity": 0.1889763779527559,
                    "duration": 0.20804450000002817
                },
                {
                    "name": "A2",
                    "midi": 45,
                    "time": 257.143002000001,
                    "velocity": 0.1889763779527559,
                    "duration": 0.20804450000002817
                }
            ],
            "controlChanges": {
                "7": [
                    {
                        "number": 7,
                        "time": 0,
                        "value": 0.7874015748031497
                    }
                ],
                "10": [
                    {
                        "number": 10,
                        "time": 0,
                        "value": 0.5039370078740157
                    }
                ],
                "91": [
                    {
                        "number": 91,
                        "time": 0,
                        "value": 1
                    },
                    {
                        "number": 91,
                        "time": 4.993068000000001,
                        "value": 1
                    },
                    {
                        "number": 91,
                        "time": 27.461873999999995,
                        "value": 1
                    },
                    {
                        "number": 91,
                        "time": 32.45494199999999,
                        "value": 1
                    },
                    {
                        "number": 91,
                        "time": 102.3578940000001,
                        "value": 1
                    }
                ]
            },
            "id": 2,
            "name": "Piano left",
            "instrumentNumber": 0,
            "instrument": "acoustic grand piano",
            "instrumentFamily": "piano",
            "channelNumber": 0,
            "isPercussion": false
        },
        {
            "startTime": 0,
            "duration": 0,
            "length": 0,
            "notes": [],
            "controlChanges": {
                "64": [
                    {
                        "number": 64,
                        "time": 3.502082416666666,
                        "value": 1
                    },
                    {
                        "number": 64,
                        "time": 3.7153280291666664,
                        "value": 0
                    },
                    {
                        "number": 64,
                        "time": 5.993415304166666,
                        "value": 1
                    },
                    {
                        "number": 64,
                        "time": 6.2586720416666655,
                        "value": 0
                    },
                    {
                        "number": 64,
                        "time": 7.519074970833332,
                        "value": 1
                    },
                    {
                        "number": 64,
                        "time": 7.912625816666665,
                        "value": 0
                    },
                    {
                        "number": 64,
                        "time": 8.510753754166664,
                        "value": 1
                    },
                    {
                        "number": 64,
                        "time": 8.765608266666664,
                        "value": 0
                    },
                    {
                        "number": 64,
                        "time": 9.273583587499997,
                        "value": 1
                    },
                    {
                        "number": 64,
                        "time": 9.597786266666665,
                        "value": 0
                    },
                    {
                        "number": 64,
                        "time": 10.065886391666664,
                        "value": 1
                    },
                    {
                        "number": 64,
                        "time": 10.419562041666664,
                        "value": 0
                    },
                    {
                        "number": 64,
                        "time": 10.501046137499998,
                        "value": 1
                    },
                    {
                        "number": 64,
                        "time": 10.769770283333331,
                        "value": 0
                    },
                    {
                        "number": 64,
                        "time": 10.837384745833331,
                        "value": 1
                    },
                    {
                        "number": 64,
                        "time": 11.246538929166665,
                        "value": 0
                    },
                    {
                        "number": 64,
                        "time": 11.693834604166664,
                        "value": 1
                    },
                    {
                        "number": 64,
                        "time": 12.090852858333331,
                        "value": 0
                    },
                    {
                        "number": 64,
                        "time": 12.170603249999997,
                        "value": 1
                    },
                    {
                        "number": 64,
                        "time": 12.493072224999997,
                        "value": 0
                    },
                    {
                        "number": 64,
                        "time": 12.598828179166663,
                        "value": 1
                    },
                    {
                        "number": 64,
                        "time": 12.91782974583333,
                        "value": 0
                    },
                    {
                        "number": 64,
                        "time": 13.425805066666664,
                        "value": 1
                    },
                    {
                        "number": 64,
                        "time": 13.758676266666663,
                        "value": 0
                    },
                    {
                        "number": 64,
                        "time": 13.841894066666663,
                        "value": 1
                    },
                    {
                        "number": 64,
                        "time": 14.159161929166663,
                        "value": 0
                    },
                    {
                        "number": 64,
                        "time": 14.238912320833329,
                        "value": 1
                    },
                    {
                        "number": 64,
                        "time": 14.582185745833328,
                        "value": 0
                    },
                    {
                        "number": 64,
                        "time": 14.979203999999996,
                        "value": 1
                    },
                    {
                        "number": 64,
                        "time": 15.41956485833333,
                        "value": 0
                    },
                    {
                        "number": 64,
                        "time": 15.475043391666663,
                        "value": 1
                    },
                    {
                        "number": 64,
                        "time": 15.83565385833333,
                        "value": 0
                    },
                    {
                        "number": 64,
                        "time": 15.915404249999996,
                        "value": 1
                    },
                    {
                        "number": 64,
                        "time": 16.234405816666662,
                        "value": 0
                    },
                    {
                        "number": 64,
                        "time": 19.60472671666666,
                        "value": 1
                    },
                    {
                        "number": 64,
                        "time": 19.972271999999993,
                        "value": 0
                    },
                    {
                        "number": 64,
                        "time": 22.06485292916666,
                        "value": 1
                    },
                    {
                        "number": 64,
                        "time": 22.46880599999999,
                        "value": 0
                    },
                    {
                        "number": 64,
                        "time": 31.01943494999999,
                        "value": 1
                    },
                    {
                        "number": 64,
                        "time": 31.22227833749999,
                        "value": 0
                    },
                    {
                        "number": 64,
                        "time": 33.507300429166655,
                        "value": 1
                    },
                    {
                        "number": 64,
                        "time": 33.73441567499999,
                        "value": 0
                    },
                    {
                        "number": 64,
                        "time": 36.002100724999984,
                        "value": 1
                    },
                    {
                        "number": 64,
                        "time": 36.21534633749999,
                        "value": 0
                    },
                    {
                        "number": 64,
                        "time": 45.036433137499984,
                        "value": 1
                    },
                    {
                        "number": 64,
                        "time": 45.36236952083332,
                        "value": 0
                    },
                    {
                        "number": 64,
                        "time": 47.503494166666655,
                        "value": 1
                    },
                    {
                        "number": 64,
                        "time": 47.85890352083332,
                        "value": 0
                    },
                    {
                        "number": 64,
                        "time": 50.01389779999999,
                        "value": 1
                    },
                    {
                        "number": 64,
                        "time": 50.358904929166656,
                        "value": 0
                    },
                    {
                        "number": 64,
                        "time": 52.506964391666656,
                        "value": 1
                    },
                    {
                        "number": 64,
                        "time": 52.85370522499999,
                        "value": 0
                    },
                    {
                        "number": 64,
                        "time": 53.39808833333333,
                        "value": 1
                    },
                    {
                        "number": 64,
                        "time": 53.691084337499994,
                        "value": 0
                    },
                    {
                        "number": 64,
                        "time": 54.16091816666666,
                        "value": 1
                    },
                    {
                        "number": 64,
                        "time": 54.51459381666666,
                        "value": 0
                    },
                    {
                        "number": 64,
                        "time": 57.033665970833326,
                        "value": 1
                    },
                    {
                        "number": 64,
                        "time": 57.428950520833325,
                        "value": 0
                    },
                    {
                        "number": 64,
                        "time": 57.56764685416666,
                        "value": 1
                    },
                    {
                        "number": 64,
                        "time": 57.872778787499996,
                        "value": 0
                    },
                    {
                        "number": 64,
                        "time": 58.351281137499996,
                        "value": 1
                    },
                    {
                        "number": 64,
                        "time": 58.69628826666666,
                        "value": 0
                    },
                    {
                        "number": 64,
                        "time": 59.256274712499994,
                        "value": 1
                    },
                    {
                        "number": 64,
                        "time": 59.531933675,
                        "value": 0
                    },
                    {
                        "number": 64,
                        "time": 63.27500097083333,
                        "value": 1
                    },
                    {
                        "number": 64,
                        "time": 64.09157563333333,
                        "value": 0
                    },
                    {
                        "number": 64,
                        "time": 64.2077338125,
                        "value": 1
                    },
                    {
                        "number": 64,
                        "time": 64.920286225,
                        "value": 0
                    },
                    {
                        "number": 64,
                        "time": 65.0399118125,
                        "value": 1
                    },
                    {
                        "number": 64,
                        "time": 65.7680675625,
                        "value": 0
                    },
                    {
                        "number": 64,
                        "time": 65.88075833333333,
                        "value": 1
                    },
                    {
                        "number": 64,
                        "time": 66.17895545,
                        "value": 0
                    },
                    {
                        "number": 64,
                        "time": 66.31765178333333,
                        "value": 1
                    },
                    {
                        "number": 64,
                        "time": 67.406418,
                        "value": 0
                    },
                    {
                        "number": 64,
                        "time": 68.3582215875,
                        "value": 1
                    },
                    {
                        "number": 64,
                        "time": 69.09157845,
                        "value": 0
                    },
                    {
                        "number": 64,
                        "time": 69.2008018125,
                        "value": 1
                    },
                    {
                        "number": 64,
                        "time": 69.902952,
                        "value": 0
                    },
                    {
                        "number": 64,
                        "time": 70.04164833333333,
                        "value": 1
                    },
                    {
                        "number": 64,
                        "time": 70.76807037916666,
                        "value": 0
                    },
                    {
                        "number": 64,
                        "time": 70.87382633333333,
                        "value": 1
                    },
                    {
                        "number": 64,
                        "time": 71.17202345,
                        "value": 0
                    },
                    {
                        "number": 64,
                        "time": 71.32979052916666,
                        "value": 1
                    },
                    {
                        "number": 64,
                        "time": 72.399486,
                        "value": 0
                    },
                    {
                        "number": 64,
                        "time": 73.41023552916667,
                        "value": 1
                    },
                    {
                        "number": 64,
                        "time": 74.07771163333334,
                        "value": 0
                    },
                    {
                        "number": 64,
                        "time": 74.1938698125,
                        "value": 1
                    },
                    {
                        "number": 64,
                        "time": 74.89602,
                        "value": 0
                    },
                    {
                        "number": 64,
                        "time": 75.01564558749999,
                        "value": 1
                    },
                    {
                        "number": 64,
                        "time": 76.57597933749999,
                        "value": 0
                    },
                    {
                        "number": 64,
                        "time": 76.68000158749999,
                        "value": 1
                    },
                    {
                        "number": 64,
                        "time": 77.39255399999999,
                        "value": 0
                    },
                    {
                        "number": 64,
                        "time": 78.26460719583332,
                        "value": 1
                    },
                    {
                        "number": 64,
                        "time": 79.08985037916665,
                        "value": 0
                    },
                    {
                        "number": 64,
                        "time": 79.21641078333332,
                        "value": 1
                    },
                    {
                        "number": 64,
                        "time": 79.88908799999999,
                        "value": 0
                    },
                    {
                        "number": 64,
                        "time": 80.00871358749998,
                        "value": 1
                    },
                    {
                        "number": 64,
                        "time": 81.56904733749998,
                        "value": 0
                    },
                    {
                        "number": 64,
                        "time": 81.67306958749998,
                        "value": 1
                    },
                    {
                        "number": 64,
                        "time": 81.96086447916664,
                        "value": 0
                    },
                    {
                        "number": 64,
                        "time": 82.04928339166665,
                        "value": 1
                    },
                    {
                        "number": 64,
                        "time": 82.46017127916664,
                        "value": 0
                    },
                    {
                        "number": 64,
                        "time": 82.59366649999998,
                        "value": 1
                    },
                    {
                        "number": 64,
                        "time": 82.83638508333331,
                        "value": 0
                    },
                    {
                        "number": 64,
                        "time": 82.99761957083331,
                        "value": 1
                    },
                    {
                        "number": 64,
                        "time": 83.67723160416664,
                        "value": 0
                    },
                    {
                        "number": 64,
                        "time": 83.81766164166663,
                        "value": 1
                    },
                    {
                        "number": 64,
                        "time": 84.50247478749996,
                        "value": 0
                    },
                    {
                        "number": 64,
                        "time": 84.63770371249997,
                        "value": 1
                    },
                    {
                        "number": 64,
                        "time": 84.88909081666664,
                        "value": 0
                    },
                    {
                        "number": 64,
                        "time": 85.00178158749998,
                        "value": 1
                    },
                    {
                        "number": 64,
                        "time": 85.72646992916664,
                        "value": 0
                    },
                    {
                        "number": 64,
                        "time": 85.87383478333331,
                        "value": 1
                    },
                    {
                        "number": 64,
                        "time": 87.39082592916664,
                        "value": 0
                    },
                    {
                        "number": 64,
                        "time": 87.50871781249997,
                        "value": 1
                    },
                    {
                        "number": 64,
                        "time": 88.25247689999996,
                        "value": 0
                    },
                    {
                        "number": 64,
                        "time": 88.37903730416663,
                        "value": 1
                    },
                    {
                        "number": 64,
                        "time": 89.88735992916664,
                        "value": 0
                    },
                    {
                        "number": 64,
                        "time": 89.98444736249996,
                        "value": 1
                    },
                    {
                        "number": 64,
                        "time": 90.72473904166662,
                        "value": 0
                    },
                    {
                        "number": 64,
                        "time": 90.8565005583333,
                        "value": 1
                    },
                    {
                        "number": 64,
                        "time": 92.37175799999996,
                        "value": 0
                    },
                    {
                        "number": 64,
                        "time": 92.54339471249996,
                        "value": 1
                    },
                    {
                        "number": 64,
                        "time": 93.24727860416662,
                        "value": 0
                    },
                    {
                        "number": 64,
                        "time": 93.38770864166662,
                        "value": 1
                    },
                    {
                        "number": 64,
                        "time": 94.04998363333328,
                        "value": 0
                    },
                    {
                        "number": 64,
                        "time": 94.20775071249994,
                        "value": 1
                    },
                    {
                        "number": 64,
                        "time": 94.88389533749995,
                        "value": 0
                    },
                    {
                        "number": 64,
                        "time": 94.98965129166662,
                        "value": 1
                    },
                    {
                        "number": 64,
                        "time": 95.71607333749995,
                        "value": 0
                    },
                    {
                        "number": 64,
                        "time": 95.82182929166662,
                        "value": 1
                    },
                    {
                        "number": 64,
                        "time": 96.56038726666662,
                        "value": 0
                    },
                    {
                        "number": 64,
                        "time": 96.73029027499996,
                        "value": 1
                    },
                    {
                        "number": 64,
                        "time": 97.36482599999997,
                        "value": 0
                    },
                    {
                        "number": 64,
                        "time": 97.53646271249997,
                        "value": 1
                    },
                    {
                        "number": 64,
                        "time": 98.2056725208333,
                        "value": 0
                    },
                    {
                        "number": 64,
                        "time": 98.40504849999996,
                        "value": 1
                    },
                    {
                        "number": 64,
                        "time": 99.05692126666663,
                        "value": 0
                    },
                    {
                        "number": 64,
                        "time": 99.20081871249997,
                        "value": 1
                    },
                    {
                        "number": 64,
                        "time": 99.8752296333333,
                        "value": 0
                    },
                    {
                        "number": 64,
                        "time": 99.92377334999998,
                        "value": 1
                    },
                    {
                        "number": 64,
                        "time": 100.72647837916664,
                        "value": 0
                    },
                    {
                        "number": 64,
                        "time": 100.79235913749997,
                        "value": 1
                    },
                    {
                        "number": 64,
                        "time": 101.5395856333333,
                        "value": 0
                    },
                    {
                        "number": 64,
                        "time": 101.64187417916663,
                        "value": 1
                    },
                    {
                        "number": 64,
                        "time": 102.35789399999997,
                        "value": 0
                    },
                    {
                        "number": 64,
                        "time": 108.42239117499997,
                        "value": 1
                    },
                    {
                        "number": 64,
                        "time": 108.64257160416663,
                        "value": 0
                    },
                    {
                        "number": 64,
                        "time": 110.89291961249997,
                        "value": 1
                    },
                    {
                        "number": 64,
                        "time": 111.1044315208333,
                        "value": 0
                    },
                    {
                        "number": 64,
                        "time": 114.09507120833331,
                        "value": 1
                    },
                    {
                        "number": 64,
                        "time": 114.74867767916665,
                        "value": 0
                    },
                    {
                        "number": 64,
                        "time": 116.59160520833332,
                        "value": 1
                    },
                    {
                        "number": 64,
                        "time": 117.33709799999998,
                        "value": 0
                    },
                    {
                        "number": 64,
                        "time": 118.44493496249999,
                        "value": 1
                    },
                    {
                        "number": 64,
                        "time": 118.59229981666665,
                        "value": 0
                    },
                    {
                        "number": 64,
                        "time": 118.65991427916666,
                        "value": 1
                    },
                    {
                        "number": 64,
                        "time": 119.02399215416666,
                        "value": 0
                    },
                    {
                        "number": 64,
                        "time": 122.40471527916667,
                        "value": 1
                    },
                    {
                        "number": 64,
                        "time": 124.01532645,
                        "value": 0
                    },
                    {
                        "number": 64,
                        "time": 124.08640832083334,
                        "value": 1
                    },
                    {
                        "number": 64,
                        "time": 124.42968174583335,
                        "value": 0
                    },
                    {
                        "number": 64,
                        "time": 124.48516027916668,
                        "value": 1
                    },
                    {
                        "number": 64,
                        "time": 124.77815628333335,
                        "value": 0
                    },
                    {
                        "number": 64,
                        "time": 124.96192892500001,
                        "value": 1
                    },
                    {
                        "number": 64,
                        "time": 125.25492492916668,
                        "value": 0
                    },
                    {
                        "number": 64,
                        "time": 125.40228978333334,
                        "value": 1
                    },
                    {
                        "number": 64,
                        "time": 125.69528578750001,
                        "value": 0
                    },
                    {
                        "number": 64,
                        "time": 125.83051471250002,
                        "value": 1
                    },
                    {
                        "number": 64,
                        "time": 126.08190181666669,
                        "value": 0
                    },
                    {
                        "number": 64,
                        "time": 126.23446778333336,
                        "value": 1
                    },
                    {
                        "number": 64,
                        "time": 126.50319192916669,
                        "value": 0
                    },
                    {
                        "number": 64,
                        "time": 127.0545098541667,
                        "value": 1
                    },
                    {
                        "number": 64,
                        "time": 127.33883733750002,
                        "value": 0
                    },
                    {
                        "number": 64,
                        "time": 127.40298439166669,
                        "value": 1
                    },
                    {
                        "number": 64,
                        "time": 128.9997259291667,
                        "value": 0
                    },
                    {
                        "number": 64,
                        "time": 129.07947632083335,
                        "value": 1
                    },
                    {
                        "number": 64,
                        "time": 129.42448345000003,
                        "value": 0
                    },
                    {
                        "number": 64,
                        "time": 129.4834293916667,
                        "value": 1
                    },
                    {
                        "number": 64,
                        "time": 129.81976800000004,
                        "value": 0
                    },
                    {
                        "number": 64,
                        "time": 130.01567657083336,
                        "value": 1
                    },
                    {
                        "number": 64,
                        "time": 130.26706367500003,
                        "value": 0
                    },
                    {
                        "number": 64,
                        "time": 130.40749371250004,
                        "value": 1
                    },
                    {
                        "number": 64,
                        "time": 130.66754933750005,
                        "value": 0
                    },
                    {
                        "number": 64,
                        "time": 130.78717492500004,
                        "value": 1
                    },
                    {
                        "number": 64,
                        "time": 131.08537204166672,
                        "value": 0
                    },
                    {
                        "number": 64,
                        "time": 131.20326392500004,
                        "value": 1
                    },
                    {
                        "number": 64,
                        "time": 131.5083958583334,
                        "value": 0
                    },
                    {
                        "number": 64,
                        "time": 131.9868982083334,
                        "value": 1
                    },
                    {
                        "number": 64,
                        "time": 132.31630200000006,
                        "value": 0
                    },
                    {
                        "number": 64,
                        "time": 132.40125350416673,
                        "value": 1
                    },
                    {
                        "number": 64,
                        "time": 133.99626133750007,
                        "value": 0
                    },
                    {
                        "number": 64,
                        "time": 134.0361365333334,
                        "value": 1
                    },
                    {
                        "number": 64,
                        "time": 134.40714922500007,
                        "value": 0
                    },
                    {
                        "number": 64,
                        "time": 134.47129627916672,
                        "value": 1
                    },
                    {
                        "number": 64,
                        "time": 134.82497192916674,
                        "value": 0
                    },
                    {
                        "number": 64,
                        "time": 134.92205936250008,
                        "value": 1
                    },
                    {
                        "number": 64,
                        "time": 135.24106092916674,
                        "value": 0
                    },
                    {
                        "number": 64,
                        "time": 135.33814836250008,
                        "value": 1
                    },
                    {
                        "number": 64,
                        "time": 135.66061733750007,
                        "value": 0
                    },
                    {
                        "number": 64,
                        "time": 135.7941125583334,
                        "value": 1
                    },
                    {
                        "number": 64,
                        "time": 136.0801737458334,
                        "value": 0
                    },
                    {
                        "number": 64,
                        "time": 136.17032636250008,
                        "value": 1
                    },
                    {
                        "number": 64,
                        "time": 136.4910616333334,
                        "value": 0
                    },
                    {
                        "number": 64,
                        "time": 136.97303139166672,
                        "value": 1
                    },
                    {
                        "number": 64,
                        "time": 137.32150592916673,
                        "value": 0
                    },
                    {
                        "number": 64,
                        "time": 137.38912039166672,
                        "value": 1
                    },
                    {
                        "number": 64,
                        "time": 138.99106304166673,
                        "value": 0
                    },
                    {
                        "number": 64,
                        "time": 139.04307416666674,
                        "value": 1
                    },
                    {
                        "number": 64,
                        "time": 139.41061945000007,
                        "value": 0
                    },
                    {
                        "number": 64,
                        "time": 139.48863613750007,
                        "value": 1
                    },
                    {
                        "number": 64,
                        "time": 139.81803992916673,
                        "value": 0
                    },
                    {
                        "number": 64,
                        "time": 139.8925892083334,
                        "value": 1
                    },
                    {
                        "number": 64,
                        "time": 140.2462648583334,
                        "value": 0
                    },
                    {
                        "number": 64,
                        "time": 140.32081413750007,
                        "value": 1
                    },
                    {
                        "number": 64,
                        "time": 140.64501681666673,
                        "value": 0
                    },
                    {
                        "number": 64,
                        "time": 140.70569646250007,
                        "value": 1
                    },
                    {
                        "number": 64,
                        "time": 141.0680406333334,
                        "value": 0
                    },
                    {
                        "number": 64,
                        "time": 141.15819325000007,
                        "value": 1
                    },
                    {
                        "number": 64,
                        "time": 141.48586333750006,
                        "value": 0
                    },
                    {
                        "number": 64,
                        "time": 147.37525639166674,
                        "value": 1
                    },
                    {
                        "number": 64,
                        "time": 148.14502104166675,
                        "value": 0
                    },
                    {
                        "number": 64,
                        "time": 149.03961239166676,
                        "value": 1
                    },
                    {
                        "number": 64,
                        "time": 149.71228960833344,
                        "value": 0
                    },
                    {
                        "number": 64,
                        "time": 151.53614639166676,
                        "value": 1
                    },
                    {
                        "number": 64,
                        "time": 151.88115352083344,
                        "value": 0
                    },
                    {
                        "number": 64,
                        "time": 151.95223539166676,
                        "value": 1
                    },
                    {
                        "number": 64,
                        "time": 152.30070992916677,
                        "value": 0
                    },
                    {
                        "number": 64,
                        "time": 155.29134961666676,
                        "value": 1
                    },
                    {
                        "number": 64,
                        "time": 155.6380904500001,
                        "value": 0
                    },
                    {
                        "number": 64,
                        "time": 158.99454171666676,
                        "value": 1
                    },
                    {
                        "number": 64,
                        "time": 159.7885782250001,
                        "value": 0
                    },
                    {
                        "number": 64,
                        "time": 162.74107642083342,
                        "value": 1
                    },
                    {
                        "number": 64,
                        "time": 163.11902392916676,
                        "value": 0
                    },
                    {
                        "number": 64,
                        "time": 164.97061997916677,
                        "value": 1
                    },
                    {
                        "number": 64,
                        "time": 165.63289497083343,
                        "value": 0
                    },
                    {
                        "number": 64,
                        "time": 166.5344211375001,
                        "value": 1
                    },
                    {
                        "number": 64,
                        "time": 167.26777800000008,
                        "value": 0
                    },
                    {
                        "number": 64,
                        "time": 169.0309551375001,
                        "value": 1
                    },
                    {
                        "number": 64,
                        "time": 169.7729805208334,
                        "value": 0
                    },
                    {
                        "number": 64,
                        "time": 172.68213611250007,
                        "value": 1
                    },
                    {
                        "number": 64,
                        "time": 173.08435547916673,
                        "value": 0
                    },
                    {
                        "number": 64,
                        "time": 179.84926913750007,
                        "value": 1
                    },
                    {
                        "number": 64,
                        "time": 181.4390758583334,
                        "value": 0
                    },
                    {
                        "number": 64,
                        "time": 181.52576106666675,
                        "value": 1
                    },
                    {
                        "number": 64,
                        "time": 183.94774578750008,
                        "value": 0
                    },
                    {
                        "number": 64,
                        "time": 185.78373850000008,
                        "value": 1
                    },
                    {
                        "number": 64,
                        "time": 185.99871781666675,
                        "value": 0
                    },
                    {
                        "number": 64,
                        "time": 186.0593974625001,
                        "value": 1
                    },
                    {
                        "number": 64,
                        "time": 186.42520904166676,
                        "value": 0
                    },
                    {
                        "number": 64,
                        "time": 188.3842947500001,
                        "value": 1
                    },
                    {
                        "number": 64,
                        "time": 188.51605626666677,
                        "value": 0
                    },
                    {
                        "number": 64,
                        "time": 188.5871381375001,
                        "value": 1
                    },
                    {
                        "number": 64,
                        "time": 188.91654192916675,
                        "value": 0
                    },
                    {
                        "number": 64,
                        "time": 188.98415639166674,
                        "value": 1
                    },
                    {
                        "number": 64,
                        "time": 189.3360983375001,
                        "value": 0
                    },
                    {
                        "number": 64,
                        "time": 190.74733352916675,
                        "value": 1
                    },
                    {
                        "number": 64,
                        "time": 191.0056554500001,
                        "value": 0
                    },
                    {
                        "number": 64,
                        "time": 191.07673732083342,
                        "value": 1
                    },
                    {
                        "number": 64,
                        "time": 191.41307592916675,
                        "value": 0
                    },
                    {
                        "number": 64,
                        "time": 193.3184168083334,
                        "value": 1
                    },
                    {
                        "number": 64,
                        "time": 193.49352092916675,
                        "value": 0
                    },
                    {
                        "number": 64,
                        "time": 193.5576679833334,
                        "value": 1
                    },
                    {
                        "number": 64,
                        "time": 193.9061425208334,
                        "value": 0
                    },
                    {
                        "number": 64,
                        "time": 194.80073387083343,
                        "value": 1
                    },
                    {
                        "number": 64,
                        "time": 195.15440952083344,
                        "value": 0
                    },
                    {
                        "number": 64,
                        "time": 195.20642064583345,
                        "value": 1
                    },
                    {
                        "number": 64,
                        "time": 195.58090074583345,
                        "value": 0
                    },
                    {
                        "number": 64,
                        "time": 195.8530923000001,
                        "value": 1
                    },
                    {
                        "number": 64,
                        "time": 195.9935223375001,
                        "value": 0
                    },
                    {
                        "number": 64,
                        "time": 196.04900087083345,
                        "value": 1
                    },
                    {
                        "number": 64,
                        "time": 196.41134504166678,
                        "value": 0
                    },
                    {
                        "number": 64,
                        "time": 197.3198060250001,
                        "value": 1
                    },
                    {
                        "number": 64,
                        "time": 197.68041649166676,
                        "value": 0
                    },
                    {
                        "number": 64,
                        "time": 197.74629725000008,
                        "value": 1
                    },
                    {
                        "number": 64,
                        "time": 198.08090215416675,
                        "value": 0
                    },
                    {
                        "number": 64,
                        "time": 198.3218870333334,
                        "value": 1
                    },
                    {
                        "number": 64,
                        "time": 198.48658892916674,
                        "value": 0
                    },
                    {
                        "number": 64,
                        "time": 198.54033375833342,
                        "value": 1
                    },
                    {
                        "number": 64,
                        "time": 198.89574311250007,
                        "value": 0
                    },
                    {
                        "number": 64,
                        "time": 202.0978947083334,
                        "value": 1
                    },
                    {
                        "number": 64,
                        "time": 202.21925400000006,
                        "value": 0
                    },
                    {
                        "number": 64,
                        "time": 202.33021106666672,
                        "value": 1
                    },
                    {
                        "number": 64,
                        "time": 203.06703533750004,
                        "value": 0
                    },
                    {
                        "number": 64,
                        "time": 203.2109327833334,
                        "value": 1
                    },
                    {
                        "number": 64,
                        "time": 203.90268074583338,
                        "value": 0
                    },
                    {
                        "number": 64,
                        "time": 204.09165450000003,
                        "value": 1
                    },
                    {
                        "number": 64,
                        "time": 204.71578800000003,
                        "value": 0
                    },
                    {
                        "number": 64,
                        "time": 204.87528878333336,
                        "value": 1
                    },
                    {
                        "number": 64,
                        "time": 205.99526167500002,
                        "value": 0
                    },
                    {
                        "number": 64,
                        "time": 206.15996357083336,
                        "value": 1
                    },
                    {
                        "number": 64,
                        "time": 207.22445792916668,
                        "value": 0
                    },
                    {
                        "number": 64,
                        "time": 207.39609464166668,
                        "value": 1
                    },
                    {
                        "number": 64,
                        "time": 208.07223926666668,
                        "value": 0
                    },
                    {
                        "number": 64,
                        "time": 208.22827264166668,
                        "value": 1
                    },
                    {
                        "number": 64,
                        "time": 208.89921615416668,
                        "value": 0
                    },
                    {
                        "number": 64,
                        "time": 209.02404285416668,
                        "value": 1
                    },
                    {
                        "number": 64,
                        "time": 209.70885600000003,
                        "value": 0
                    },
                    {
                        "number": 64,
                        "time": 209.85622085416668,
                        "value": 1
                    },
                    {
                        "number": 64,
                        "time": 210.97966115416668,
                        "value": 0
                    },
                    {
                        "number": 64,
                        "time": 211.14089564166667,
                        "value": 1
                    },
                    {
                        "number": 64,
                        "time": 212.22966185833334,
                        "value": 0
                    },
                    {
                        "number": 64,
                        "time": 212.3042111375,
                        "value": 1
                    },
                    {
                        "number": 64,
                        "time": 212.63534863333334,
                        "value": 0
                    },
                    {
                        "number": 64,
                        "time": 212.73243606666668,
                        "value": 1
                    },
                    {
                        "number": 64,
                        "time": 214.70192400000002,
                        "value": 0
                    },
                    {
                        "number": 64,
                        "time": 214.82154958750002,
                        "value": 1
                    },
                    {
                        "number": 64,
                        "time": 215.14575226666668,
                        "value": 0
                    },
                    {
                        "number": 64,
                        "time": 215.24804081250002,
                        "value": 1
                    },
                    {
                        "number": 64,
                        "time": 215.5566401541667,
                        "value": 0
                    },
                    {
                        "number": 64,
                        "time": 215.66412981250002,
                        "value": 1
                    },
                    {
                        "number": 64,
                        "time": 216.39228556250004,
                        "value": 0
                    },
                    {
                        "number": 64,
                        "time": 216.5344493041667,
                        "value": 1
                    },
                    {
                        "number": 64,
                        "time": 217.19845800000004,
                        "value": 0
                    },
                    {
                        "number": 64,
                        "time": 217.77404778333337,
                        "value": 1
                    },
                    {
                        "number": 64,
                        "time": 219.69499200000004,
                        "value": 0
                    },
                    {
                        "number": 64,
                        "time": 219.91517242916672,
                        "value": 1
                    },
                    {
                        "number": 64,
                        "time": 221.38015245000005,
                        "value": 0
                    },
                    {
                        "number": 64,
                        "time": 221.5188487833334,
                        "value": 1
                    },
                    {
                        "number": 64,
                        "time": 223.05144326666672,
                        "value": 0
                    },
                    {
                        "number": 64,
                        "time": 223.20747664166672,
                        "value": 1
                    },
                    {
                        "number": 64,
                        "time": 223.88362126666672,
                        "value": 0
                    },
                    {
                        "number": 64,
                        "time": 223.9789749958334,
                        "value": 1
                    },
                    {
                        "number": 64,
                        "time": 224.7487396458334,
                        "value": 0
                    },
                    {
                        "number": 64,
                        "time": 224.85622930416673,
                        "value": 1
                    },
                    {
                        "number": 64,
                        "time": 225.5705154208334,
                        "value": 0
                    },
                    {
                        "number": 64,
                        "time": 225.6693365583334,
                        "value": 1
                    },
                    {
                        "number": 64,
                        "time": 225.96579997083342,
                        "value": 0
                    },
                    {
                        "number": 64,
                        "time": 226.0750233333334,
                        "value": 1
                    },
                    {
                        "number": 64,
                        "time": 226.38535637916675,
                        "value": 0
                    },
                    {
                        "number": 64,
                        "time": 226.46163936250008,
                        "value": 1
                    },
                    {
                        "number": 64,
                        "time": 226.80144537916675,
                        "value": 0
                    },
                    {
                        "number": 64,
                        "time": 226.9072013333334,
                        "value": 1
                    },
                    {
                        "number": 64,
                        "time": 227.19672992916674,
                        "value": 0
                    },
                    {
                        "number": 64,
                        "time": 227.29555106666675,
                        "value": 1
                    },
                    {
                        "number": 64,
                        "time": 228.0306416333334,
                        "value": 0
                    },
                    {
                        "number": 64,
                        "time": 228.17627278333342,
                        "value": 1
                    },
                    {
                        "number": 64,
                        "time": 229.72967171666676,
                        "value": 0
                    },
                    {
                        "number": 64,
                        "time": 229.84062878333341,
                        "value": 1
                    },
                    {
                        "number": 64,
                        "time": 233.0341118583334,
                        "value": 0
                    },
                    {
                        "number": 64,
                        "time": 233.21788450000008,
                        "value": 1
                    },
                    {
                        "number": 64,
                        "time": 233.8714909708334,
                        "value": 0
                    },
                    {
                        "number": 64,
                        "time": 234.0015187833334,
                        "value": 1
                    },
                    {
                        "number": 64,
                        "time": 234.67419600000008,
                        "value": 0
                    },
                    {
                        "number": 64,
                        "time": 234.82156085416673,
                        "value": 1
                    },
                    {
                        "number": 64,
                        "time": 238.87322749166674,
                        "value": 0
                    },
                    {
                        "number": 64,
                        "time": 239.04313050000007,
                        "value": 1
                    },
                    {
                        "number": 64,
                        "time": 239.66726400000007,
                        "value": 0
                    },
                    {
                        "number": 64,
                        "time": 253.07053091250006,
                        "value": 1
                    },
                    {
                        "number": 64,
                        "time": 254.73488691250006,
                        "value": 0
                    }
                ]
            },
            "id": 3,
            "name": "Pedal"
        },
        {
            "startTime": 0,
            "duration": 0,
            "length": 0,
            "notes": [],
            "controlChanges": {},
            "id": 4,
            "name": "Debussy: Menuet from Suite bergamasque"
        },
        {
            "startTime": 0,
            "duration": 0,
            "length": 0,
            "notes": [],
            "controlChanges": {},
            "id": 5,
            "name": "Copyright  1998 by Bernd Krger"
        },
        {
            "startTime": 0,
            "duration": 0,
            "length": 0,
            "notes": [],
            "controlChanges": {},
            "id": 6,
            "name": "http://www.piano-midi.de"
        },
        {
            "startTime": 0,
            "duration": 0,
            "length": 0,
            "notes": [],
            "controlChanges": {},
            "id": 7,
            "name": "Edition: 2011-08-09"
        }
    ]
}