{
    "header": {
        "PPQ": 480,
        "timeSignature": [
            9,
            8
        ],
        "bpm": 100,
        "name": "Clair de Lune"
    },
    "startTime": 0,
    "duration": 193.50000000000173,
    "tracks": [
        {
            "startTime": 0,
            "duration": 0,
            "length": 0,
            "notes": [],
            "controlChanges": {},
            "id": 0,
            "name": "Clair de Lune"
        },
        {
            "startTime": 0.6,
            "duration": 193.50000000000097,
            "length": 712,
            "notes": [
                {
                    "name": "G#5",
                    "midi": 80,
                    "time": 0.6,
                    "velocity": 0.33858267716535434,
                    "duration": 1.1999999999999997
                },
                {
                    "name": "F5",
                    "midi": 77,
                    "time": 0.6,
                    "velocity": 0.28346456692913385,
                    "duration": 1.1999999999999997
                },
                {
                    "name": "F5",
                    "midi": 77,
                    "time": 1.7999999999999998,
                    "velocity": 0.30708661417322836,
                    "duration": 1.2000000000000002
                },
                {
                    "name": "C#5",
                    "midi": 73,
                    "time": 1.7999999999999998,
                    "velocity": 0.25984251968503935,
                    "duration": 1.2000000000000002
                },
                {
                    "name": "C5",
                    "midi": 72,
                    "time": 3,
                    "velocity": 0.2440944881889764,
                    "duration": 0.2999999999999998
                },
                {
                    "name": "D#5",
                    "midi": 75,
                    "time": 3,
                    "velocity": 0.29133858267716534,
                    "duration": 0.2999999999999998
                },
                {
                    "name": "C#5",
                    "midi": 73,
                    "time": 3.3,
                    "velocity": 0.2125984251968504,
                    "duration": 0.2999999999999998
                },
                {
                    "name": "F5",
                    "midi": 77,
                    "time": 3.3,
                    "velocity": 0.25196850393700787,
                    "duration": 0.2999999999999998
                },
                {
                    "name": "D#5",
                    "midi": 75,
                    "time": 3.5999999999999996,
                    "velocity": 0.23622047244094488,
                    "duration": 2.0999999999999996
                },
                {
                    "name": "C5",
                    "midi": 72,
                    "time": 3.5999999999999996,
                    "velocity": 0.1968503937007874,
                    "duration": 2.0999999999999996
                },
                {
                    "name": "C#5",
                    "midi": 73,
                    "time": 5.699999999999999,
                    "velocity": 0.31496062992125984,
                    "duration": 0.2999999999999998
                },
                {
                    "name": "A#4",
                    "midi": 70,
                    "time": 5.699999999999999,
                    "velocity": 0.2677165354330709,
                    "duration": 0.2999999999999998
                },
                {
                    "name": "D#5",
                    "midi": 75,
                    "time": 5.999999999999999,
                    "velocity": 0.2677165354330709,
                    "duration": 0.2999999999999998
                },
                {
                    "name": "C5",
                    "midi": 72,
                    "time": 5.999999999999999,
                    "velocity": 0.2204724409448819,
                    "duration": 0.2999999999999998
                },
                {
                    "name": "A#4",
                    "midi": 70,
                    "time": 6.299999999999999,
                    "velocity": 0.2125984251968504,
                    "duration": 2.0999999999999996
                },
                {
                    "name": "C#5",
                    "midi": 73,
                    "time": 6.299999999999999,
                    "velocity": 0.25196850393700787,
                    "duration": 0.4500000000000002
                },
                {
                    "name": "F5",
                    "midi": 77,
                    "time": 6.749999999999999,
                    "velocity": 0.36220472440944884,
                    "duration": 0.8999999999999995
                },
                {
                    "name": "C#5",
                    "midi": 73,
                    "time": 7.649999999999999,
                    "velocity": 0.3543307086614173,
                    "duration": 0.75
                },
                {
                    "name": "C5",
                    "midi": 72,
                    "time": 8.399999999999999,
                    "velocity": 0.2677165354330709,
                    "duration": 0.3000000000000007
                },
                {
                    "name": "G#4",
                    "midi": 68,
                    "time": 8.399999999999999,
                    "velocity": 0.2204724409448819,
                    "duration": 0.3000000000000007
                },
                {
                    "name": "A#4",
                    "midi": 70,
                    "time": 8.7,
                    "velocity": 0.2047244094488189,
                    "duration": 0.3000000000000007
                },
                {
                    "name": "C#5",
                    "midi": 73,
                    "time": 8.7,
                    "velocity": 0.2440944881889764,
                    "duration": 0.3000000000000007
                },
                {
                    "name": "C5",
                    "midi": 72,
                    "time": 9,
                    "velocity": 0.2125984251968504,
                    "duration": 2.1000000000000014
                },
                {
                    "name": "G#4",
                    "midi": 68,
                    "time": 9,
                    "velocity": 0.1732283464566929,
                    "duration": 2.1000000000000014
                },
                {
                    "name": "F#4",
                    "midi": 66,
                    "time": 10.8,
                    "velocity": 0.25984251968503935,
                    "duration": 1.8000000000000043
                },
                {
                    "name": "A#4",
                    "midi": 70,
                    "time": 11.100000000000001,
                    "velocity": 0.30708661417322836,
                    "duration": 0.3000000000000007
                },
                {
                    "name": "C5",
                    "midi": 72,
                    "time": 11.400000000000002,
                    "velocity": 0.28346456692913385,
                    "duration": 0.3000000000000007
                },
                {
                    "name": "A#4",
                    "midi": 70,
                    "time": 11.700000000000003,
                    "velocity": 0.28346456692913385,
                    "duration": 0.3000000000000007
                },
                {
                    "name": "D#5",
                    "midi": 75,
                    "time": 12.000000000000004,
                    "velocity": 0.30708661417322836,
                    "duration": 0.3000000000000007
                },
                {
                    "name": "A#4",
                    "midi": 70,
                    "time": 12.300000000000004,
                    "velocity": 0.29133858267716534,
                    "duration": 0.3000000000000007
                },
                {
                    "name": "G#4",
                    "midi": 68,
                    "time": 12.600000000000005,
                    "velocity": 0.31496062992125984,
                    "duration": 0.3000000000000007
                },
                {
                    "name": "F#4",
                    "midi": 66,
                    "time": 12.600000000000005,
                    "velocity": 0.2204724409448819,
                    "duration": 0.9000000000000021
                },
                {
                    "name": "A#4",
                    "midi": 70,
                    "time": 12.900000000000006,
                    "velocity": 0.29133858267716534,
                    "duration": 0.3000000000000007
                },
                {
                    "name": "G#4",
                    "midi": 68,
                    "time": 13.200000000000006,
                    "velocity": 0.28346456692913385,
                    "duration": 0.6000000000000014
                },
                {
                    "name": "D#4",
                    "midi": 63,
                    "time": 13.500000000000007,
                    "velocity": 0.23622047244094488,
                    "duration": 1.8000000000000025
                },
                {
                    "name": "F#4",
                    "midi": 66,
                    "time": 13.800000000000008,
                    "velocity": 0.2677165354330709,
                    "duration": 0.3000000000000007
                },
                {
                    "name": "G#4",
                    "midi": 68,
                    "time": 14.100000000000009,
                    "velocity": 0.25984251968503935,
                    "duration": 0.3000000000000007
                },
                {
                    "name": "F#4",
                    "midi": 66,
                    "time": 14.40000000000001,
                    "velocity": 0.25984251968503935,
                    "duration": 0.9000000000000004
                },
                {
                    "name": "D#4",
                    "midi": 63,
                    "time": 15.30000000000001,
                    "velocity": 0.23622047244094488,
                    "duration": 0.9000000000000004
                },
                {
                    "name": "F4",
                    "midi": 65,
                    "time": 15.30000000000001,
                    "velocity": 0.2677165354330709,
                    "duration": 1.200000000000001
                },
                {
                    "name": "C#4",
                    "midi": 61,
                    "time": 16.20000000000001,
                    "velocity": 0.2204724409448819,
                    "duration": 1.8000000000000043
                },
                {
                    "name": "F4",
                    "midi": 65,
                    "time": 16.50000000000001,
                    "velocity": 0.2992125984251969,
                    "duration": 0.3000000000000007
                },
                {
                    "name": "F#4",
                    "midi": 66,
                    "time": 16.80000000000001,
                    "velocity": 0.29133858267716534,
                    "duration": 0.3000000000000007
                },
                {
                    "name": "F4",
                    "midi": 65,
                    "time": 17.100000000000012,
                    "velocity": 0.29133858267716534,
                    "duration": 0.3000000000000007
                },
                {
                    "name": "A#4",
                    "midi": 70,
                    "time": 17.400000000000013,
                    "velocity": 0.30708661417322836,
                    "duration": 0.3000000000000007
                },
                {
                    "name": "F4",
                    "midi": 65,
                    "time": 17.700000000000014,
                    "velocity": 0.29133858267716534,
                    "duration": 0.3000000000000007
                },
                {
                    "name": "D#4",
                    "midi": 63,
                    "time": 18.000000000000014,
                    "velocity": 0.30708661417322836,
                    "duration": 0.3000000000000007
                },
                {
                    "name": "F4",
                    "midi": 65,
                    "time": 18.300000000000015,
                    "velocity": 0.29133858267716534,
                    "duration": 0.3000000000000007
                },
                {
                    "name": "D#4",
                    "midi": 63,
                    "time": 18.600000000000016,
                    "velocity": 0.29133858267716534,
                    "duration": 0.6000000000000014
                },
                {
                    "name": "A#3",
                    "midi": 58,
                    "time": 18.900000000000016,
                    "velocity": 0.2204724409448819,
                    "duration": 1.8000000000000007
                },
                {
                    "name": "C#4",
                    "midi": 61,
                    "time": 19.200000000000017,
                    "velocity": 0.2677165354330709,
                    "duration": 0.3000000000000007
                },
                {
                    "name": "D#4",
                    "midi": 63,
                    "time": 19.500000000000018,
                    "velocity": 0.2677165354330709,
                    "duration": 0.3000000000000007
                },
                {
                    "name": "C#4",
                    "midi": 61,
                    "time": 19.80000000000002,
                    "velocity": 0.2677165354330709,
                    "duration": 0.8999999999999986
                },
                {
                    "name": "G#3",
                    "midi": 56,
                    "time": 20.700000000000017,
                    "velocity": 0.1732283464566929,
                    "duration": 0.8999999999999986
                },
                {
                    "name": "C4",
                    "midi": 60,
                    "time": 20.700000000000017,
                    "velocity": 0.2125984251968504,
                    "duration": 0.8999999999999986
                },
                {
                    "name": "G#3",
                    "midi": 56,
                    "time": 21.900000000000016,
                    "velocity": 0.2204724409448819,
                    "duration": 0.3000000000000007
                },
                {
                    "name": "F3",
                    "midi": 53,
                    "time": 21.900000000000016,
                    "velocity": 0.18110236220472442,
                    "duration": 0.3000000000000007
                },
                {
                    "name": "G#5",
                    "midi": 80,
                    "time": 22.500000000000018,
                    "velocity": 0.30708661417322836,
                    "duration": 0.8999999999999986
                },
                {
                    "name": "F5",
                    "midi": 77,
                    "time": 22.500000000000018,
                    "velocity": 0.25984251968503935,
                    "duration": 0.8999999999999986
                },
                {
                    "name": "C#5",
                    "midi": 73,
                    "time": 23.400000000000016,
                    "velocity": 0.2283464566929134,
                    "duration": 1.1999999999999993
                },
                {
                    "name": "F5",
                    "midi": 77,
                    "time": 23.400000000000016,
                    "velocity": 0.2755905511811024,
                    "duration": 1.1999999999999993
                },
                {
                    "name": "F#4",
                    "midi": 66,
                    "time": 24.600000000000016,
                    "velocity": 0.2125984251968504,
                    "duration": 2.400000000000002
                },
                {
                    "name": "D#5",
                    "midi": 75,
                    "time": 24.600000000000016,
                    "velocity": 0.33070866141732286,
                    "duration": 0.3000000000000007
                },
                {
                    "name": "A#4",
                    "midi": 70,
                    "time": 24.600000000000016,
                    "velocity": 0.2125984251968504,
                    "duration": 2.400000000000002
                },
                {
                    "name": "F5",
                    "midi": 77,
                    "time": 24.900000000000016,
                    "velocity": 0.29133858267716534,
                    "duration": 0.3000000000000007
                },
                {
                    "name": "D#5",
                    "midi": 75,
                    "time": 25.200000000000017,
                    "velocity": 0.2440944881889764,
                    "duration": 2.1000000000000014
                },
                {
                    "name": "C#5",
                    "midi": 73,
                    "time": 27.30000000000002,
                    "velocity": 0.30708661417322836,
                    "duration": 0.3000000000000007
                },
                {
                    "name": "G#4",
                    "midi": 68,
                    "time": 27.30000000000002,
                    "velocity": 0.30708661417322836,
                    "duration": 0.6000000000000014
                },
                {
                    "name": "C#4",
                    "midi": 61,
                    "time": 27.30000000000002,
                    "velocity": 0.25984251968503935,
                    "duration": 0.3000000000000007
                },
                {
                    "name": "D#5",
                    "midi": 75,
                    "time": 27.60000000000002,
                    "velocity": 0.31496062992125984,
                    "duration": 0.3000000000000007
                },
                {
                    "name": "D#4",
                    "midi": 63,
                    "time": 27.60000000000002,
                    "velocity": 0.2677165354330709,
                    "duration": 0.3000000000000007
                },
                {
                    "name": "G#4",
                    "midi": 68,
                    "time": 27.90000000000002,
                    "velocity": 0.2677165354330709,
                    "duration": 0.8999999999999986
                },
                {
                    "name": "C#5",
                    "midi": 73,
                    "time": 27.90000000000002,
                    "velocity": 0.2677165354330709,
                    "duration": 0.8999999999999986
                },
                {
                    "name": "G#5",
                    "midi": 80,
                    "time": 27.90000000000002,
                    "velocity": 0.31496062992125984,
                    "duration": 0.8999999999999986
                },
                {
                    "name": "C#5",
                    "midi": 73,
                    "time": 28.80000000000002,
                    "velocity": 0.25196850393700787,
                    "duration": 0.8999999999999986
                },
                {
                    "name": "F4",
                    "midi": 65,
                    "time": 28.80000000000002,
                    "velocity": 0.25196850393700787,
                    "duration": 0.8999999999999986
                },
                {
                    "name": "F5",
                    "midi": 77,
                    "time": 28.80000000000002,
                    "velocity": 0.2992125984251969,
                    "duration": 1.1999999999999993
                },
                {
                    "name": "D#5",
                    "midi": 75,
                    "time": 30.000000000000018,
                    "velocity": 0.33070866141732286,
                    "duration": 0.3000000000000007
                },
                {
                    "name": "F#4",
                    "midi": 66,
                    "time": 30.000000000000018,
                    "velocity": 0.2125984251968504,
                    "duration": 2.400000000000002
                },
                {
                    "name": "A#4",
                    "midi": 70,
                    "time": 30.000000000000018,
                    "velocity": 0.2125984251968504,
                    "duration": 2.400000000000002
                },
                {
                    "name": "F5",
                    "midi": 77,
                    "time": 30.30000000000002,
                    "velocity": 0.29133858267716534,
                    "duration": 0.3000000000000007
                },
                {
                    "name": "D#5",
                    "midi": 75,
                    "time": 30.60000000000002,
                    "velocity": 0.2440944881889764,
                    "duration": 0.8999999999999986
                },
                {
                    "name": "C#5",
                    "midi": 73,
                    "time": 31.500000000000018,
                    "velocity": 0.29133858267716534,
                    "duration": 1.1999999999999993
                },
                {
                    "name": "G#4",
                    "midi": 68,
                    "time": 32.70000000000002,
                    "velocity": 0.25984251968503935,
                    "duration": 0.5999999999999943
                },
                {
                    "name": "C#5",
                    "midi": 73,
                    "time": 32.70000000000002,
                    "velocity": 0.30708661417322836,
                    "duration": 0.29999999999999716
                },
                {
                    "name": "C#4",
                    "midi": 61,
                    "time": 32.70000000000002,
                    "velocity": 0.25984251968503935,
                    "duration": 0.29999999999999716
                },
                {
                    "name": "D#4",
                    "midi": 63,
                    "time": 33.000000000000014,
                    "velocity": 0.2677165354330709,
                    "duration": 0.29999999999999716
                },
                {
                    "name": "D#5",
                    "midi": 75,
                    "time": 33.000000000000014,
                    "velocity": 0.31496062992125984,
                    "duration": 0.29999999999999716
                },
                {
                    "name": "A#4",
                    "midi": 70,
                    "time": 33.30000000000001,
                    "velocity": 0.31496062992125984,
                    "duration": 0.45000000000000284
                },
                {
                    "name": "A#5",
                    "midi": 82,
                    "time": 33.30000000000001,
                    "velocity": 0.3779527559055118,
                    "duration": 0.45000000000000284
                },
                {
                    "name": "F5",
                    "midi": 77,
                    "time": 33.30000000000001,
                    "velocity": 0.3543307086614173,
                    "duration": 1.8000000000000043
                },
                {
                    "name": "G#5",
                    "midi": 80,
                    "time": 33.750000000000014,
                    "velocity": 0.36220472440944884,
                    "duration": 0.8999999999999986
                },
                {
                    "name": "G#4",
                    "midi": 68,
                    "time": 33.750000000000014,
                    "velocity": 0.30708661417322836,
                    "duration": 0.8999999999999986
                },
                {
                    "name": "F4",
                    "midi": 65,
                    "time": 34.65000000000001,
                    "velocity": 0.29133858267716534,
                    "duration": 0.75
                },
                {
                    "name": "F5",
                    "midi": 77,
                    "time": 34.65000000000001,
                    "velocity": 0.3464566929133858,
                    "duration": 0.75
                },
                {
                    "name": "F4",
                    "midi": 65,
                    "time": 35.40000000000001,
                    "velocity": 0.25196850393700787,
                    "duration": 2.3999999999999986
                },
                {
                    "name": "D#5",
                    "midi": 75,
                    "time": 35.40000000000001,
                    "velocity": 0.31496062992125984,
                    "duration": 0.29999999999999716
                },
                {
                    "name": "A#4",
                    "midi": 70,
                    "time": 35.40000000000001,
                    "velocity": 0.25196850393700787,
                    "duration": 2.3999999999999986
                },
                {
                    "name": "F5",
                    "midi": 77,
                    "time": 35.70000000000001,
                    "velocity": 0.29133858267716534,
                    "duration": 0.29999999999999716
                },
                {
                    "name": "D#5",
                    "midi": 75,
                    "time": 36.00000000000001,
                    "velocity": 0.25984251968503935,
                    "duration": 0.45000000000000284
                },
                {
                    "name": "C#5",
                    "midi": 73,
                    "time": 36.45000000000001,
                    "velocity": 0.29133858267716534,
                    "duration": 0.8999999999999986
                },
                {
                    "name": "A#4",
                    "midi": 70,
                    "time": 37.35000000000001,
                    "velocity": 0.25984251968503935,
                    "duration": 0.45000000000000284
                },
                {
                    "name": "A#5",
                    "midi": 82,
                    "time": 38.250000000000014,
                    "velocity": 0.29133858267716534,
                    "duration": 1.0499999999999972
                },
                {
                    "name": "F5",
                    "midi": 77,
                    "time": 38.250000000000014,
                    "velocity": 0.29133858267716534,
                    "duration": 1.3499999999999943
                },
                {
                    "name": "F6",
                    "midi": 89,
                    "time": 38.250000000000014,
                    "velocity": 0.31496062992125984,
                    "duration": 1.3499999999999943
                },
                {
                    "name": "D#6",
                    "midi": 87,
                    "time": 39.000000000000014,
                    "velocity": 0.30708661417322836,
                    "duration": 0.29999999999999716
                },
                {
                    "name": "A#5",
                    "midi": 82,
                    "time": 39.000000000000014,
                    "velocity": 0.28346456692913385,
                    "duration": 0.5749999999999957
                },
                {
                    "name": "D#5",
                    "midi": 75,
                    "time": 39.000000000000014,
                    "velocity": 0.28346456692913385,
                    "duration": 0.29999999999999716
                },
                {
                    "name": "A#5",
                    "midi": 82,
                    "time": 39.30000000000001,
                    "velocity": 0.28346456692913385,
                    "duration": 0.29999999999999716
                },
                {
                    "name": "D#6",
                    "midi": 87,
                    "time": 39.30000000000001,
                    "velocity": 0.30708661417322836,
                    "duration": 0.2749999999999986
                },
                {
                    "name": "D#5",
                    "midi": 75,
                    "time": 39.30000000000001,
                    "velocity": 0.28346456692913385,
                    "duration": 0.2749999999999986
                },
                {
                    "name": "D#5",
                    "midi": 75,
                    "time": 39.60000000000001,
                    "velocity": 0.2992125984251969,
                    "duration": 0.29999999999999716
                },
                {
                    "name": "D#6",
                    "midi": 87,
                    "time": 39.60000000000001,
                    "velocity": 0.3228346456692913,
                    "duration": 0.29999999999999716
                },
                {
                    "name": "A#5",
                    "midi": 82,
                    "time": 39.60000000000001,
                    "velocity": 0.2992125984251969,
                    "duration": 0.29999999999999716
                },
                {
                    "name": "A#5",
                    "midi": 82,
                    "time": 39.900000000000006,
                    "velocity": 0.29133858267716534,
                    "duration": 0.29999999999999716
                },
                {
                    "name": "C#5",
                    "midi": 73,
                    "time": 39.900000000000006,
                    "velocity": 0.29133858267716534,
                    "duration": 0.29999999999999716
                },
                {
                    "name": "C#6",
                    "midi": 85,
                    "time": 39.900000000000006,
                    "velocity": 0.31496062992125984,
                    "duration": 0.29999999999999716
                },
                {
                    "name": "C#5",
                    "midi": 73,
                    "time": 40.2,
                    "velocity": 0.29133858267716534,
                    "duration": 0.2749999999999986
                },
                {
                    "name": "C#6",
                    "midi": 85,
                    "time": 40.2,
                    "velocity": 0.31496062992125984,
                    "duration": 0.2749999999999986
                },
                {
                    "name": "A#5",
                    "midi": 82,
                    "time": 40.2,
                    "velocity": 0.29133858267716534,
                    "duration": 0.2749999999999986
                },
                {
                    "name": "C#6",
                    "midi": 85,
                    "time": 40.5,
                    "velocity": 0.3228346456692913,
                    "duration": 0.29999999999999716
                },
                {
                    "name": "C#5",
                    "midi": 73,
                    "time": 40.5,
                    "velocity": 0.2992125984251969,
                    "duration": 0.29999999999999716
                },
                {
                    "name": "A#5",
                    "midi": 82,
                    "time": 40.5,
                    "velocity": 0.2992125984251969,
                    "duration": 0.29999999999999716
                },
                {
                    "name": "A#5",
                    "midi": 82,
                    "time": 40.8,
                    "velocity": 0.28346456692913385,
                    "duration": 0.29999999999999716
                },
                {
                    "name": "F#5",
                    "midi": 78,
                    "time": 40.8,
                    "velocity": 0.28346456692913385,
                    "duration": 0.29999999999999716
                },
                {
                    "name": "C5",
                    "midi": 72,
                    "time": 40.8,
                    "velocity": 0.28346456692913385,
                    "duration": 0.29999999999999716
                },
                {
                    "name": "C6",
                    "midi": 84,
                    "time": 40.8,
                    "velocity": 0.30708661417322836,
                    "duration": 0.29999999999999716
                },
                {
                    "name": "C5",
                    "midi": 72,
                    "time": 41.099999999999994,
                    "velocity": 0.28346456692913385,
                    "duration": 0.2749999999999986
                },
                {
                    "name": "A#5",
                    "midi": 82,
                    "time": 41.099999999999994,
                    "velocity": 0.28346456692913385,
                    "duration": 0.2749999999999986
                },
                {
                    "name": "C6",
                    "midi": 84,
                    "time": 41.099999999999994,
                    "velocity": 0.30708661417322836,
                    "duration": 0.2749999999999986
                },
                {
                    "name": "F#5",
                    "midi": 78,
                    "time": 41.099999999999994,
                    "velocity": 0.28346456692913385,
                    "duration": 0.2749999999999986
                },
                {
                    "name": "C6",
                    "midi": 84,
                    "time": 41.39999999999999,
                    "velocity": 0.30708661417322836,
                    "duration": 0.45000000000000284
                },
                {
                    "name": "C5",
                    "midi": 72,
                    "time": 41.39999999999999,
                    "velocity": 0.28346456692913385,
                    "duration": 0.45000000000000284
                },
                {
                    "name": "A#5",
                    "midi": 82,
                    "time": 41.39999999999999,
                    "velocity": 0.28346456692913385,
                    "duration": 0.45000000000000284
                },
                {
                    "name": "F#5",
                    "midi": 78,
                    "time": 41.39999999999999,
                    "velocity": 0.28346456692913385,
                    "duration": 0.45000000000000284
                },
                {
                    "name": "A#5",
                    "midi": 82,
                    "time": 41.849999999999994,
                    "velocity": 0.25984251968503935,
                    "duration": 0.45000000000000284
                },
                {
                    "name": "C#5",
                    "midi": 73,
                    "time": 41.849999999999994,
                    "velocity": 0.25984251968503935,
                    "duration": 0.45000000000000284
                },
                {
                    "name": "C#6",
                    "midi": 85,
                    "time": 41.849999999999994,
                    "velocity": 0.28346456692913385,
                    "duration": 0.45000000000000284
                },
                {
                    "name": "A#4",
                    "midi": 70,
                    "time": 42.3,
                    "velocity": 0.25984251968503935,
                    "duration": 0.8999999999999986
                },
                {
                    "name": "A#5",
                    "midi": 82,
                    "time": 42.3,
                    "velocity": 0.28346456692913385,
                    "duration": 0.8999999999999986
                },
                {
                    "name": "F#5",
                    "midi": 78,
                    "time": 42.3,
                    "velocity": 0.25984251968503935,
                    "duration": 0.8999999999999986
                },
                {
                    "name": "A#5",
                    "midi": 82,
                    "time": 43.65,
                    "velocity": 0.36220472440944884,
                    "duration": 1.0499999999999972
                },
                {
                    "name": "F6",
                    "midi": 89,
                    "time": 43.65,
                    "velocity": 0.3779527559055118,
                    "duration": 1.3249999999999957
                },
                {
                    "name": "F5",
                    "midi": 77,
                    "time": 43.65,
                    "velocity": 0.36220472440944884,
                    "duration": 1.3249999999999957
                },
                {
                    "name": "F#5",
                    "midi": 78,
                    "time": 44.4,
                    "velocity": 0.31496062992125984,
                    "duration": 0.29999999999999716
                },
                {
                    "name": "F#6",
                    "midi": 90,
                    "time": 44.4,
                    "velocity": 0.33070866141732286,
                    "duration": 0.29999999999999716
                },
                {
                    "name": "A#5",
                    "midi": 82,
                    "time": 44.4,
                    "velocity": 0.31496062992125984,
                    "duration": 0.5749999999999957
                },
                {
                    "name": "A#5",
                    "midi": 82,
                    "time": 44.699999999999996,
                    "velocity": 0.29133858267716534,
                    "duration": 0.29999999999999716
                },
                {
                    "name": "F6",
                    "midi": 89,
                    "time": 44.699999999999996,
                    "velocity": 0.2992125984251969,
                    "duration": 0.29999999999999716
                },
                {
                    "name": "F5",
                    "midi": 77,
                    "time": 44.699999999999996,
                    "velocity": 0.29133858267716534,
                    "duration": 0.29999999999999716
                },
                {
                    "name": "D#6",
                    "midi": 87,
                    "time": 44.99999999999999,
                    "velocity": 0.31496062992125984,
                    "duration": 0.2749999999999986
                },
                {
                    "name": "D#5",
                    "midi": 75,
                    "time": 44.99999999999999,
                    "velocity": 0.30708661417322836,
                    "duration": 0.2749999999999986
                },
                {
                    "name": "A#5",
                    "midi": 82,
                    "time": 44.99999999999999,
                    "velocity": 0.30708661417322836,
                    "duration": 0.2749999999999986
                },
                {
                    "name": "F5",
                    "midi": 77,
                    "time": 45.29999999999999,
                    "velocity": 0.2992125984251969,
                    "duration": 0.29999999999999716
                },
                {
                    "name": "F6",
                    "midi": 89,
                    "time": 45.29999999999999,
                    "velocity": 0.30708661417322836,
                    "duration": 0.29999999999999716
                },
                {
                    "name": "A#5",
                    "midi": 82,
                    "time": 45.29999999999999,
                    "velocity": 0.2992125984251969,
                    "duration": 0.29999999999999716
                },
                {
                    "name": "A#5",
                    "midi": 82,
                    "time": 45.59999999999999,
                    "velocity": 0.2992125984251969,
                    "duration": 0.29999999999999716
                },
                {
                    "name": "D#6",
                    "midi": 87,
                    "time": 45.59999999999999,
                    "velocity": 0.30708661417322836,
                    "duration": 0.29999999999999716
                },
                {
                    "name": "D#5",
                    "midi": 75,
                    "time": 45.59999999999999,
                    "velocity": 0.2992125984251969,
                    "duration": 0.29999999999999716
                },
                {
                    "name": "C#6",
                    "midi": 85,
                    "time": 45.899999999999984,
                    "velocity": 0.31496062992125984,
                    "duration": 0.2749999999999986
                },
                {
                    "name": "A#5",
                    "midi": 82,
                    "time": 45.899999999999984,
                    "velocity": 0.30708661417322836,
                    "duration": 0.2749999999999986
                },
                {
                    "name": "C#5",
                    "midi": 73,
                    "time": 45.899999999999984,
                    "velocity": 0.30708661417322836,
                    "duration": 0.2749999999999986
                },
                {
                    "name": "A#5",
                    "midi": 82,
                    "time": 46.19999999999998,
                    "velocity": 0.29133858267716534,
                    "duration": 0.29999999999999716
                },
                {
                    "name": "D#5",
                    "midi": 75,
                    "time": 46.19999999999998,
                    "velocity": 0.29133858267716534,
                    "duration": 0.29999999999999716
                },
                {
                    "name": "D#6",
                    "midi": 87,
                    "time": 46.19999999999998,
                    "velocity": 0.2992125984251969,
                    "duration": 0.29999999999999716
                },
                {
                    "name": "C#5",
                    "midi": 73,
                    "time": 46.49999999999998,
                    "velocity": 0.29133858267716534,
                    "duration": 0.2749999999999986
                },
                {
                    "name": "A#5",
                    "midi": 82,
                    "time": 46.49999999999998,
                    "velocity": 0.29133858267716534,
                    "duration": 0.2749999999999986
                },
                {
                    "name": "C#6",
                    "midi": 85,
                    "time": 46.49999999999998,
                    "velocity": 0.2992125984251969,
                    "duration": 0.2749999999999986
                },
                {
                    "name": "A#5",
                    "midi": 82,
                    "time": 46.799999999999976,
                    "velocity": 0.29133858267716534,
                    "duration": 0.4125000000000014
                },
                {
                    "name": "C5",
                    "midi": 72,
                    "time": 46.799999999999976,
                    "velocity": 0.29133858267716534,
                    "duration": 0.4125000000000014
                },
                {
                    "name": "C6",
                    "midi": 84,
                    "time": 46.799999999999976,
                    "velocity": 0.2992125984251969,
                    "duration": 0.4125000000000014
                },
                {
                    "name": "D#6",
                    "midi": 87,
                    "time": 47.21249999999998,
                    "velocity": 0.33858267716535434,
                    "duration": 0.03750000000000142
                },
                {
                    "name": "C#6",
                    "midi": 85,
                    "time": 47.24999999999998,
                    "velocity": 0.29133858267716534,
                    "duration": 0.45000000000000284
                },
                {
                    "name": "C#5",
                    "midi": 73,
                    "time": 47.24999999999998,
                    "velocity": 0.2677165354330709,
                    "duration": 0.45000000000000284
                },
                {
                    "name": "A#5",
                    "midi": 82,
                    "time": 47.24999999999998,
                    "velocity": 0.2677165354330709,
                    "duration": 0.45000000000000284
                },
                {
                    "name": "A#4",
                    "midi": 70,
                    "time": 47.69999999999998,
                    "velocity": 0.25984251968503935,
                    "duration": 1.3500000000000014
                },
                {
                    "name": "F#5",
                    "midi": 78,
                    "time": 47.69999999999998,
                    "velocity": 0.25984251968503935,
                    "duration": 1.3500000000000014
                },
                {
                    "name": "A#5",
                    "midi": 82,
                    "time": 47.69999999999998,
                    "velocity": 0.2755905511811024,
                    "duration": 1.3500000000000014
                },
                {
                    "name": "F#5",
                    "midi": 78,
                    "time": 49.04999999999998,
                    "velocity": 0.4015748031496063,
                    "duration": 0.45000000000000284
                },
                {
                    "name": "F#4",
                    "midi": 66,
                    "time": 49.04999999999998,
                    "velocity": 0.3858267716535433,
                    "duration": 0.45000000000000284
                },
                {
                    "name": "D#5",
                    "midi": 75,
                    "time": 49.499999999999986,
                    "velocity": 0.3543307086614173,
                    "duration": 0.45000000000000284
                },
                {
                    "name": "G#5",
                    "midi": 80,
                    "time": 49.499999999999986,
                    "velocity": 0.3700787401574803,
                    "duration": 0.45000000000000284
                },
                {
                    "name": "G#4",
                    "midi": 68,
                    "time": 49.499999999999986,
                    "velocity": 0.3543307086614173,
                    "duration": 0.45000000000000284
                },
                {
                    "name": "C5",
                    "midi": 72,
                    "time": 49.94999999999999,
                    "velocity": 0.3858267716535433,
                    "duration": 0.45000000000000284
                },
                {
                    "name": "C6",
                    "midi": 84,
                    "time": 49.94999999999999,
                    "velocity": 0.4015748031496063,
                    "duration": 0.45000000000000284
                },
                {
                    "name": "A#4",
                    "midi": 70,
                    "time": 50.39999999999999,
                    "velocity": 0.36220472440944884,
                    "duration": 0.45000000000000284
                },
                {
                    "name": "A#5",
                    "midi": 82,
                    "time": 50.39999999999999,
                    "velocity": 0.3779527559055118,
                    "duration": 0.45000000000000284
                },
                {
                    "name": "F#5",
                    "midi": 78,
                    "time": 50.39999999999999,
                    "velocity": 0.36220472440944884,
                    "duration": 0.45000000000000284
                },
                {
                    "name": "F#4",
                    "midi": 66,
                    "time": 50.849999999999994,
                    "velocity": 0.3464566929133858,
                    "duration": 0.45000000000000284
                },
                {
                    "name": "F#5",
                    "midi": 78,
                    "time": 50.849999999999994,
                    "velocity": 0.36220472440944884,
                    "duration": 0.45000000000000284
                },
                {
                    "name": "D#5",
                    "midi": 75,
                    "time": 51.599999999999994,
                    "velocity": 0.28346456692913385,
                    "duration": 0.29999999999999716
                },
                {
                    "name": "F#4",
                    "midi": 66,
                    "time": 51.599999999999994,
                    "velocity": 0.28346456692913385,
                    "duration": 0.29999999999999716
                },
                {
                    "name": "F#5",
                    "midi": 78,
                    "time": 51.599999999999994,
                    "velocity": 0.30708661417322836,
                    "duration": 0.29999999999999716
                },
                {
                    "name": "C5",
                    "midi": 72,
                    "time": 51.599999999999994,
                    "velocity": 0.28346456692913385,
                    "duration": 0.29999999999999716
                },
                {
                    "name": "F#4",
                    "midi": 66,
                    "time": 51.89999999999999,
                    "velocity": 0.28346456692913385,
                    "duration": 0.2875000000000014
                },
                {
                    "name": "C5",
                    "midi": 72,
                    "time": 51.89999999999999,
                    "velocity": 0.28346456692913385,
                    "duration": 0.30000000000000426
                },
                {
                    "name": "D#5",
                    "midi": 75,
                    "time": 51.89999999999999,
                    "velocity": 0.28346456692913385,
                    "duration": 0.2875000000000014
                },
                {
                    "name": "F#5",
                    "midi": 78,
                    "time": 51.89999999999999,
                    "velocity": 0.30708661417322836,
                    "duration": 0.2875000000000014
                },
                {
                    "name": "D#5",
                    "midi": 75,
                    "time": 52.199999999999996,
                    "velocity": 0.30708661417322836,
                    "duration": 0.29999999999999716
                },
                {
                    "name": "F#5",
                    "midi": 78,
                    "time": 52.199999999999996,
                    "velocity": 0.33070866141732286,
                    "duration": 0.29999999999999716
                },
                {
                    "name": "F#4",
                    "midi": 66,
                    "time": 52.199999999999996,
                    "velocity": 0.30708661417322836,
                    "duration": 0.29999999999999716
                },
                {
                    "name": "C5",
                    "midi": 72,
                    "time": 52.199999999999996,
                    "velocity": 0.30708661417322836,
                    "duration": 0.29999999999999716
                },
                {
                    "name": "C5",
                    "midi": 72,
                    "time": 52.49999999999999,
                    "velocity": 0.29133858267716534,
                    "duration": 0.2749999999999986
                },
                {
                    "name": "D#5",
                    "midi": 75,
                    "time": 52.49999999999999,
                    "velocity": 0.29133858267716534,
                    "duration": 0.2749999999999986
                },
                {
                    "name": "F#5",
                    "midi": 78,
                    "time": 52.49999999999999,
                    "velocity": 0.31496062992125984,
                    "duration": 0.2749999999999986
                },
                {
                    "name": "F#4",
                    "midi": 66,
                    "time": 52.49999999999999,
                    "velocity": 0.29133858267716534,
                    "duration": 0.2749999999999986
                },
                {
                    "name": "G#5",
                    "midi": 80,
                    "time": 52.79999999999999,
                    "velocity": 0.3464566929133858,
                    "duration": 0.29999999999999716
                },
                {
                    "name": "C5",
                    "midi": 72,
                    "time": 52.79999999999999,
                    "velocity": 0.31496062992125984,
                    "duration": 0.29999999999999716
                },
                {
                    "name": "G#4",
                    "midi": 68,
                    "time": 52.79999999999999,
                    "velocity": 0.31496062992125984,
                    "duration": 0.29999999999999716
                },
                {
                    "name": "D#5",
                    "midi": 75,
                    "time": 52.79999999999999,
                    "velocity": 0.31496062992125984,
                    "duration": 0.29999999999999716
                },
                {
                    "name": "F#4",
                    "midi": 66,
                    "time": 53.09999999999999,
                    "velocity": 0.30708661417322836,
                    "duration": 0.8999999999999986
                },
                {
                    "name": "F#5",
                    "midi": 78,
                    "time": 53.09999999999999,
                    "velocity": 0.33070866141732286,
                    "duration": 0.8999999999999986
                },
                {
                    "name": "C5",
                    "midi": 72,
                    "time": 53.09999999999999,
                    "velocity": 0.30708661417322836,
                    "duration": 0.8999999999999986
                },
                {
                    "name": "D#5",
                    "midi": 75,
                    "time": 53.09999999999999,
                    "velocity": 0.30708661417322836,
                    "duration": 0.8999999999999986
                },
                {
                    "name": "F#4",
                    "midi": 66,
                    "time": 54.44999999999999,
                    "velocity": 0.3228346456692913,
                    "duration": 0.45000000000000284
                },
                {
                    "name": "F#5",
                    "midi": 78,
                    "time": 54.44999999999999,
                    "velocity": 0.41732283464566927,
                    "duration": 0.45000000000000284
                },
                {
                    "name": "C#5",
                    "midi": 73,
                    "time": 54.44999999999999,
                    "velocity": 0.3543307086614173,
                    "duration": 0.9000000000000057
                },
                {
                    "name": "G#4",
                    "midi": 68,
                    "time": 54.89999999999999,
                    "velocity": 0.4330708661417323,
                    "duration": 0.45000000000000284
                },
                {
                    "name": "G#5",
                    "midi": 80,
                    "time": 54.89999999999999,
                    "velocity": 0.47244094488188976,
                    "duration": 0.45000000000000284
                },
                {
                    "name": "C#6",
                    "midi": 85,
                    "time": 55.349999999999994,
                    "velocity": 0.47244094488188976,
                    "duration": 0.45000000000000284
                },
                {
                    "name": "C#5",
                    "midi": 73,
                    "time": 55.349999999999994,
                    "velocity": 0.4330708661417323,
                    "duration": 0.45000000000000284
                },
                {
                    "name": "A#4",
                    "midi": 70,
                    "time": 55.8,
                    "velocity": 0.3464566929133858,
                    "duration": 0.45000000000000284
                },
                {
                    "name": "A#5",
                    "midi": 82,
                    "time": 55.8,
                    "velocity": 0.44881889763779526,
                    "duration": 0.45000000000000284
                },
                {
                    "name": "F#5",
                    "midi": 78,
                    "time": 55.8,
                    "velocity": 0.4094488188976378,
                    "duration": 0.9000000000000057
                },
                {
                    "name": "F#5",
                    "midi": 78,
                    "time": 56.25,
                    "velocity": 0.4094488188976378,
                    "duration": 0.45000000000000284
                },
                {
                    "name": "F#4",
                    "midi": 66,
                    "time": 56.25,
                    "velocity": 0.3779527559055118,
                    "duration": 0.45000000000000284
                },
                {
                    "name": "A#4",
                    "midi": 70,
                    "time": 57,
                    "velocity": 0.30708661417322836,
                    "duration": 0.29999999999999716
                },
                {
                    "name": "F#4",
                    "midi": 66,
                    "time": 57,
                    "velocity": 0.30708661417322836,
                    "duration": 0.29999999999999716
                },
                {
                    "name": "D#5",
                    "midi": 75,
                    "time": 57,
                    "velocity": 0.30708661417322836,
                    "duration": 0.29999999999999716
                },
                {
                    "name": "F#5",
                    "midi": 78,
                    "time": 57,
                    "velocity": 0.33070866141732286,
                    "duration": 0.29999999999999716
                },
                {
                    "name": "A#4",
                    "midi": 70,
                    "time": 57.3,
                    "velocity": 0.30708661417322836,
                    "duration": 0.30000000000000426
                },
                {
                    "name": "D#5",
                    "midi": 75,
                    "time": 57.3,
                    "velocity": 0.30708661417322836,
                    "duration": 0.2875000000000014
                },
                {
                    "name": "F#4",
                    "midi": 66,
                    "time": 57.3,
                    "velocity": 0.30708661417322836,
                    "duration": 0.2875000000000014
                },
                {
                    "name": "F#5",
                    "midi": 78,
                    "time": 57.3,
                    "velocity": 0.33070866141732286,
                    "duration": 0.2875000000000014
                },
                {
                    "name": "A#4",
                    "midi": 70,
                    "time": 57.6,
                    "velocity": 0.33070866141732286,
                    "duration": 0.29999999999999716
                },
                {
                    "name": "F#5",
                    "midi": 78,
                    "time": 57.6,
                    "velocity": 0.36220472440944884,
                    "duration": 0.29999999999999716
                },
                {
                    "name": "F#4",
                    "midi": 66,
                    "time": 57.6,
                    "velocity": 0.33070866141732286,
                    "duration": 0.29999999999999716
                },
                {
                    "name": "D#5",
                    "midi": 75,
                    "time": 57.6,
                    "velocity": 0.33070866141732286,
                    "duration": 0.29999999999999716
                },
                {
                    "name": "F#4",
                    "midi": 66,
                    "time": 57.9,
                    "velocity": 0.31496062992125984,
                    "duration": 0.2749999999999986
                },
                {
                    "name": "A#4",
                    "midi": 70,
                    "time": 57.9,
                    "velocity": 0.31496062992125984,
                    "duration": 0.2749999999999986
                },
                {
                    "name": "D#5",
                    "midi": 75,
                    "time": 57.9,
                    "velocity": 0.31496062992125984,
                    "duration": 0.2749999999999986
                },
                {
                    "name": "F#5",
                    "midi": 78,
                    "time": 57.9,
                    "velocity": 0.3464566929133858,
                    "duration": 0.2749999999999986
                },
                {
                    "name": "C5",
                    "midi": 72,
                    "time": 58.199999999999996,
                    "velocity": 0.33858267716535434,
                    "duration": 0.29999999999999716
                },
                {
                    "name": "G#4",
                    "midi": 68,
                    "time": 58.199999999999996,
                    "velocity": 0.33858267716535434,
                    "duration": 0.29999999999999716
                },
                {
                    "name": "G#5",
                    "midi": 80,
                    "time": 58.199999999999996,
                    "velocity": 0.3700787401574803,
                    "duration": 0.29999999999999716
                },
                {
                    "name": "F5",
                    "midi": 77,
                    "time": 58.199999999999996,
                    "velocity": 0.33858267716535434,
                    "duration": 0.29999999999999716
                },
                {
                    "name": "A#4",
                    "midi": 70,
                    "time": 58.49999999999999,
                    "velocity": 0.33070866141732286,
                    "duration": 0.8999999999999986
                },
                {
                    "name": "D#5",
                    "midi": 75,
                    "time": 58.49999999999999,
                    "velocity": 0.33070866141732286,
                    "duration": 0.8999999999999986
                },
                {
                    "name": "F#5",
                    "midi": 78,
                    "time": 58.49999999999999,
                    "velocity": 0.36220472440944884,
                    "duration": 0.8999999999999986
                },
                {
                    "name": "F#4",
                    "midi": 66,
                    "time": 58.49999999999999,
                    "velocity": 0.33070866141732286,
                    "duration": 0.8999999999999986
                },
                {
                    "name": "F#5",
                    "midi": 78,
                    "time": 59.849999999999994,
                    "velocity": 0.48031496062992124,
                    "duration": 0.45000000000000284
                },
                {
                    "name": "C#5",
                    "midi": 73,
                    "time": 59.849999999999994,
                    "velocity": 0.3858267716535433,
                    "duration": 0.9000000000000057
                },
                {
                    "name": "A#4",
                    "midi": 70,
                    "time": 59.849999999999994,
                    "velocity": 0.3858267716535433,
                    "duration": 0.9000000000000057
                },
                {
                    "name": "F#4",
                    "midi": 66,
                    "time": 59.849999999999994,
                    "velocity": 0.4251968503937008,
                    "duration": 0.45000000000000284
                },
                {
                    "name": "G#4",
                    "midi": 68,
                    "time": 60.3,
                    "velocity": 0.48031496062992124,
                    "duration": 0.45000000000000284
                },
                {
                    "name": "G#5",
                    "midi": 80,
                    "time": 60.3,
                    "velocity": 0.5511811023622047,
                    "duration": 0.45000000000000284
                },
                {
                    "name": "D#6",
                    "midi": 87,
                    "time": 60.75,
                    "velocity": 0.5590551181102362,
                    "duration": 0.45000000000000284
                },
                {
                    "name": "D#5",
                    "midi": 75,
                    "time": 60.75,
                    "velocity": 0.4881889763779528,
                    "duration": 0.45000000000000284
                },
                {
                    "name": "C#5",
                    "midi": 73,
                    "time": 61.2,
                    "velocity": 0.3779527559055118,
                    "duration": 0.45000000000000284
                },
                {
                    "name": "F#5",
                    "midi": 78,
                    "time": 61.2,
                    "velocity": 0.3858267716535433,
                    "duration": 0.9000000000000057
                },
                {
                    "name": "A#5",
                    "midi": 82,
                    "time": 61.2,
                    "velocity": 0.3858267716535433,
                    "duration": 0.9000000000000057
                },
                {
                    "name": "C#6",
                    "midi": 85,
                    "time": 61.2,
                    "velocity": 0.5118110236220472,
                    "duration": 0.45000000000000284
                },
                {
                    "name": "A#4",
                    "midi": 70,
                    "time": 61.650000000000006,
                    "velocity": 0.44881889763779526,
                    "duration": 0.45000000000000284
                },
                {
                    "name": "A#5",
                    "midi": 82,
                    "time": 61.650000000000006,
                    "velocity": 0.5118110236220472,
                    "duration": 0.45000000000000284
                },
                {
                    "name": "A#5",
                    "midi": 82,
                    "time": 62.400000000000006,
                    "velocity": 0.3937007874015748,
                    "duration": 0.29999999999999716
                },
                {
                    "name": "A#4",
                    "midi": 70,
                    "time": 62.400000000000006,
                    "velocity": 0.3779527559055118,
                    "duration": 0.29999999999999716
                },
                {
                    "name": "F#5",
                    "midi": 78,
                    "time": 62.400000000000006,
                    "velocity": 0.3779527559055118,
                    "duration": 0.29999999999999716
                },
                {
                    "name": "A#5",
                    "midi": 82,
                    "time": 62.7,
                    "velocity": 0.3937007874015748,
                    "duration": 0.2875000000000014
                },
                {
                    "name": "F#5",
                    "midi": 78,
                    "time": 62.7,
                    "velocity": 0.3779527559055118,
                    "duration": 0.2875000000000014
                },
                {
                    "name": "A#4",
                    "midi": 70,
                    "time": 62.7,
                    "velocity": 0.3779527559055118,
                    "duration": 0.30000000000000426
                },
                {
                    "name": "A#5",
                    "midi": 82,
                    "time": 63.00000000000001,
                    "velocity": 0.41732283464566927,
                    "duration": 0.29999999999999716
                },
                {
                    "name": "A#4",
                    "midi": 70,
                    "time": 63.00000000000001,
                    "velocity": 0.4015748031496063,
                    "duration": 0.29999999999999716
                },
                {
                    "name": "F#5",
                    "midi": 78,
                    "time": 63.00000000000001,
                    "velocity": 0.4015748031496063,
                    "duration": 0.29999999999999716
                },
                {
                    "name": "A#4",
                    "midi": 70,
                    "time": 63.300000000000004,
                    "velocity": 0.3858267716535433,
                    "duration": 0.2749999999999986
                },
                {
                    "name": "A#5",
                    "midi": 82,
                    "time": 63.300000000000004,
                    "velocity": 0.4015748031496063,
                    "duration": 0.2749999999999986
                },
                {
                    "name": "F#5",
                    "midi": 78,
                    "time": 63.300000000000004,
                    "velocity": 0.3858267716535433,
                    "duration": 0.2749999999999986
                },
                {
                    "name": "G#5",
                    "midi": 80,
                    "time": 63.6,
                    "velocity": 0.3937007874015748,
                    "duration": 0.29999999999999716
                },
                {
                    "name": "C5",
                    "midi": 72,
                    "time": 63.6,
                    "velocity": 0.3937007874015748,
                    "duration": 0.29999999999999716
                },
                {
                    "name": "C6",
                    "midi": 84,
                    "time": 63.6,
                    "velocity": 0.4094488188976378,
                    "duration": 0.29999999999999716
                },
                {
                    "name": "F#5",
                    "midi": 78,
                    "time": 63.9,
                    "velocity": 0.3937007874015748,
                    "duration": 0.2749999999999986
                },
                {
                    "name": "A#4",
                    "midi": 70,
                    "time": 63.9,
                    "velocity": 0.3937007874015748,
                    "duration": 0.2749999999999986
                },
                {
                    "name": "A#5",
                    "midi": 82,
                    "time": 63.9,
                    "velocity": 0.4094488188976378,
                    "duration": 0.2749999999999986
                },
                {
                    "name": "A#5",
                    "midi": 82,
                    "time": 64.2,
                    "velocity": 0.4015748031496063,
                    "duration": 0.29999999999999716
                },
                {
                    "name": "C#5",
                    "midi": 73,
                    "time": 64.2,
                    "velocity": 0.4015748031496063,
                    "duration": 0.29999999999999716
                },
                {
                    "name": "C#6",
                    "midi": 85,
                    "time": 64.2,
                    "velocity": 0.41732283464566927,
                    "duration": 0.29999999999999716
                },
                {
                    "name": "D#6",
                    "midi": 87,
                    "time": 64.5,
                    "velocity": 0.44881889763779526,
                    "duration": 0.15000000000000568
                },
                {
                    "name": "D#5",
                    "midi": 75,
                    "time": 64.5,
                    "velocity": 0.4330708661417323,
                    "duration": 0.15000000000000568
                },
                {
                    "name": "A#5",
                    "midi": 82,
                    "time": 64.5,
                    "velocity": 0.4330708661417323,
                    "duration": 0.15000000000000568
                },
                {
                    "name": "G#5",
                    "midi": 80,
                    "time": 64.75,
                    "velocity": 0.4015748031496063,
                    "duration": 1.700000000000017
                },
                {
                    "name": "C#6",
                    "midi": 85,
                    "time": 64.775,
                    "velocity": 0.4409448818897638,
                    "duration": 1.6750000000000114
                },
                {
                    "name": "G#6",
                    "midi": 92,
                    "time": 64.80000000000001,
                    "velocity": 0.5118110236220472,
                    "duration": 1.6500000000000057
                },
                {
                    "name": "G#5",
                    "midi": 80,
                    "time": 66.55625000000002,
                    "velocity": 0.3543307086614173,
                    "duration": 0.7937499999999886
                },
                {
                    "name": "C#6",
                    "midi": 85,
                    "time": 66.57750000000001,
                    "velocity": 0.3937007874015748,
                    "duration": 0.7724999999999937
                },
                {
                    "name": "G#6",
                    "midi": 92,
                    "time": 66.60000000000001,
                    "velocity": 0.4330708661417323,
                    "duration": 0.75
                },
                {
                    "name": "G#5",
                    "midi": 80,
                    "time": 67.45625000000001,
                    "velocity": 0.3543307086614173,
                    "duration": 1.6937499999999943
                },
                {
                    "name": "C#6",
                    "midi": 85,
                    "time": 67.4775,
                    "velocity": 0.3937007874015748,
                    "duration": 1.6724999999999994
                },
                {
                    "name": "G#6",
                    "midi": 92,
                    "time": 67.5,
                    "velocity": 0.4330708661417323,
                    "duration": 1.6500000000000057
                },
                {
                    "name": "G#4",
                    "midi": 68,
                    "time": 69.25,
                    "velocity": 0.25196850393700787,
                    "duration": 0.950000000000017
                },
                {
                    "name": "D#5",
                    "midi": 75,
                    "time": 69.275,
                    "velocity": 0.25984251968503935,
                    "duration": 0.9250000000000114
                },
                {
                    "name": "G#5",
                    "midi": 80,
                    "time": 69.30000000000001,
                    "velocity": 0.30708661417322836,
                    "duration": 0.9000000000000057
                },
                {
                    "name": "G#4",
                    "midi": 68,
                    "time": 70.20000000000002,
                    "velocity": 0.31496062992125984,
                    "duration": 1.7999999999999972
                },
                {
                    "name": "F4",
                    "midi": 65,
                    "time": 70.20000000000002,
                    "velocity": 0.29133858267716534,
                    "duration": 1.7999999999999972
                },
                {
                    "name": "G#4",
                    "midi": 68,
                    "time": 72.00000000000001,
                    "velocity": 0.28346456692913385,
                    "duration": 0.8999999999999915
                },
                {
                    "name": "B4",
                    "midi": 71,
                    "time": 72.00000000000001,
                    "velocity": 0.30708661417322836,
                    "duration": 0.5999999999999943
                },
                {
                    "name": "C#5",
                    "midi": 73,
                    "time": 72.60000000000001,
                    "velocity": 0.29133858267716534,
                    "duration": 0.29999999999999716
                },
                {
                    "name": "F4",
                    "midi": 65,
                    "time": 72.9,
                    "velocity": 0.29133858267716534,
                    "duration": 1.6375000000000028
                },
                {
                    "name": "G#4",
                    "midi": 68,
                    "time": 72.9,
                    "velocity": 0.31496062992125984,
                    "duration": 1.7999999999999972
                },
                {
                    "name": "G#4",
                    "midi": 68,
                    "time": 74.7,
                    "velocity": 0.29133858267716534,
                    "duration": 0.5999999999999943
                },
                {
                    "name": "B4",
                    "midi": 71,
                    "time": 74.7,
                    "velocity": 0.31496062992125984,
                    "duration": 0.5999999999999943
                },
                {
                    "name": "G#4",
                    "midi": 68,
                    "time": 75.3,
                    "velocity": 0.31496062992125984,
                    "duration": 0.29999999999999716
                },
                {
                    "name": "F4",
                    "midi": 65,
                    "time": 75.6,
                    "velocity": 0.33070866141732286,
                    "duration": 0.5999999999999943
                },
                {
                    "name": "C#5",
                    "midi": 73,
                    "time": 75.6,
                    "velocity": 0.36220472440944884,
                    "duration": 0.5999999999999943
                },
                {
                    "name": "D#5",
                    "midi": 75,
                    "time": 76.19999999999999,
                    "velocity": 0.3464566929133858,
                    "duration": 0.29999999999999716
                },
                {
                    "name": "G#4",
                    "midi": 68,
                    "time": 76.19999999999999,
                    "velocity": 0.31496062992125984,
                    "duration": 0.29999999999999716
                },
                {
                    "name": "F5",
                    "midi": 77,
                    "time": 76.49999999999999,
                    "velocity": 0.3779527559055118,
                    "duration": 0.9000000000000057
                },
                {
                    "name": "C#5",
                    "midi": 73,
                    "time": 76.49999999999999,
                    "velocity": 0.3464566929133858,
                    "duration": 0.9000000000000057
                },
                {
                    "name": "F4",
                    "midi": 65,
                    "time": 77.39999999999999,
                    "velocity": 0.33858267716535434,
                    "duration": 0.5999999999999943
                },
                {
                    "name": "C#5",
                    "midi": 73,
                    "time": 77.39999999999999,
                    "velocity": 0.3700787401574803,
                    "duration": 0.5999999999999943
                },
                {
                    "name": "C#5",
                    "midi": 73,
                    "time": 77.99999999999999,
                    "velocity": 0.3464566929133858,
                    "duration": 0.29999999999999716
                },
                {
                    "name": "F5",
                    "midi": 77,
                    "time": 77.99999999999999,
                    "velocity": 0.3779527559055118,
                    "duration": 0.29999999999999716
                },
                {
                    "name": "G5",
                    "midi": 79,
                    "time": 78.29999999999998,
                    "velocity": 0.41732283464566927,
                    "duration": 0.29999999999999716
                },
                {
                    "name": "D#5",
                    "midi": 75,
                    "time": 78.29999999999998,
                    "velocity": 0.3858267716535433,
                    "duration": 0.29999999999999716
                },
                {
                    "name": "F5",
                    "midi": 77,
                    "time": 78.59999999999998,
                    "velocity": 0.3700787401574803,
                    "duration": 0.29999999999999716
                },
                {
                    "name": "C#5",
                    "midi": 73,
                    "time": 78.59999999999998,
                    "velocity": 0.33858267716535434,
                    "duration": 0.29999999999999716
                },
                {
                    "name": "C#5",
                    "midi": 73,
                    "time": 78.89999999999998,
                    "velocity": 0.3700787401574803,
                    "duration": 0.29999999999999716
                },
                {
                    "name": "A#4",
                    "midi": 70,
                    "time": 78.89999999999998,
                    "velocity": 0.33858267716535434,
                    "duration": 0.29999999999999716
                },
                {
                    "name": "A#4",
                    "midi": 70,
                    "time": 79.19999999999997,
                    "velocity": 0.30708661417322836,
                    "duration": 0.8999999999999915
                },
                {
                    "name": "G4",
                    "midi": 67,
                    "time": 79.19999999999997,
                    "velocity": 0.33858267716535434,
                    "duration": 0.29999999999999716
                },
                {
                    "name": "C#5",
                    "midi": 73,
                    "time": 79.19999999999997,
                    "velocity": 0.33070866141732286,
                    "duration": 0.8999999999999915
                },
                {
                    "name": "F4",
                    "midi": 65,
                    "time": 79.49999999999997,
                    "velocity": 0.28346456692913385,
                    "duration": 0.29999999999999716
                },
                {
                    "name": "C#4",
                    "midi": 61,
                    "time": 79.79999999999997,
                    "velocity": 0.2677165354330709,
                    "duration": 0.29999999999999716
                },
                {
                    "name": "C#4",
                    "midi": 61,
                    "time": 80.09999999999997,
                    "velocity": 0.2992125984251969,
                    "duration": 0.45000000000000284
                },
                {
                    "name": "A#3",
                    "midi": 58,
                    "time": 80.54999999999997,
                    "velocity": 0.28346456692913385,
                    "duration": 0.45000000000000284
                },
                {
                    "name": "A#4",
                    "midi": 70,
                    "time": 80.99999999999997,
                    "velocity": 0.4094488188976378,
                    "duration": 1.7999999999999972
                },
                {
                    "name": "C5",
                    "midi": 72,
                    "time": 82.79999999999997,
                    "velocity": 0.4015748031496063,
                    "duration": 0.5999999999999943
                },
                {
                    "name": "F5",
                    "midi": 77,
                    "time": 83.39999999999996,
                    "velocity": 0.4409448818897638,
                    "duration": 0.29999999999999716
                },
                {
                    "name": "G#4",
                    "midi": 68,
                    "time": 83.40874999999997,
                    "velocity": 0.2992125984251969,
                    "duration": 0.14999999999999147
                },
                {
                    "name": "F4",
                    "midi": 65,
                    "time": 83.54124999999996,
                    "velocity": 0.2992125984251969,
                    "duration": 0.14999999999999147
                },
                {
                    "name": "A#4",
                    "midi": 70,
                    "time": 83.71874999999996,
                    "velocity": 0.4094488188976378,
                    "duration": 1.7999999999999972
                },
                {
                    "name": "C5",
                    "midi": 72,
                    "time": 85.51874999999995,
                    "velocity": 0.4409448818897638,
                    "duration": 0.5999999999999943
                },
                {
                    "name": "F5",
                    "midi": 77,
                    "time": 86.11874999999995,
                    "velocity": 0.47244094488188976,
                    "duration": 0.30000000000001137
                },
                {
                    "name": "G#4",
                    "midi": 68,
                    "time": 86.12749999999996,
                    "velocity": 0.2992125984251969,
                    "duration": 0.14999999999999147
                },
                {
                    "name": "F4",
                    "midi": 65,
                    "time": 86.25999999999995,
                    "velocity": 0.2992125984251969,
                    "duration": 0.15000000000000568
                },
                {
                    "name": "F#5",
                    "midi": 78,
                    "time": 86.39999999999995,
                    "velocity": 0.5039370078740157,
                    "duration": 1.3500000000000227
                },
                {
                    "name": "F#4",
                    "midi": 66,
                    "time": 87.44999999999996,
                    "velocity": 0.36220472440944884,
                    "duration": 0.30000000000001137
                },
                {
                    "name": "A#4",
                    "midi": 70,
                    "time": 87.59999999999997,
                    "velocity": 0.36220472440944884,
                    "duration": 0.15000000000000568
                },
                {
                    "name": "F5",
                    "midi": 77,
                    "time": 87.74999999999997,
                    "velocity": 0.4566929133858268,
                    "duration": 0.45000000000001705
                },
                {
                    "name": "F#4",
                    "midi": 66,
                    "time": 87.89999999999998,
                    "velocity": 0.36220472440944884,
                    "duration": 0.15000000000000568
                },
                {
                    "name": "A#4",
                    "midi": 70,
                    "time": 88.04999999999998,
                    "velocity": 0.36220472440944884,
                    "duration": 0.15000000000000568
                },
                {
                    "name": "D5",
                    "midi": 74,
                    "time": 88.19999999999999,
                    "velocity": 0.4566929133858268,
                    "duration": 0.45000000000001705
                },
                {
                    "name": "F#4",
                    "midi": 66,
                    "time": 88.35,
                    "velocity": 0.36220472440944884,
                    "duration": 0.15000000000000568
                },
                {
                    "name": "A#4",
                    "midi": 70,
                    "time": 88.5,
                    "velocity": 0.36220472440944884,
                    "duration": 0.15000000000000568
                },
                {
                    "name": "D#5",
                    "midi": 75,
                    "time": 88.65,
                    "velocity": 0.47244094488188976,
                    "duration": 0.45000000000001705
                },
                {
                    "name": "F#4",
                    "midi": 66,
                    "time": 88.80000000000001,
                    "velocity": 0.3858267716535433,
                    "duration": 0.15000000000000568
                },
                {
                    "name": "A#4",
                    "midi": 70,
                    "time": 88.95000000000002,
                    "velocity": 0.3858267716535433,
                    "duration": 0.15000000000000568
                },
                {
                    "name": "A#5",
                    "midi": 82,
                    "time": 89.10000000000002,
                    "velocity": 0.5275590551181102,
                    "duration": 0.7437500000000057
                },
                {
                    "name": "G#5",
                    "midi": 80,
                    "time": 90.90000000000003,
                    "velocity": 0.4015748031496063,
                    "duration": 0.7437500000000057
                },
                {
                    "name": "G#5",
                    "midi": 80,
                    "time": 91.80000000000004,
                    "velocity": 0.4015748031496063,
                    "duration": 1.7999999999999972
                },
                {
                    "name": "F5",
                    "midi": 77,
                    "time": 91.80000000000004,
                    "velocity": 0.4015748031496063,
                    "duration": 1.7999999999999972
                },
                {
                    "name": "G#5",
                    "midi": 80,
                    "time": 93.60000000000004,
                    "velocity": 0.44881889763779526,
                    "duration": 0.5999999999999943
                },
                {
                    "name": "B5",
                    "midi": 83,
                    "time": 93.60000000000004,
                    "velocity": 0.44881889763779526,
                    "duration": 0.5999999999999943
                },
                {
                    "name": "C#6",
                    "midi": 85,
                    "time": 94.20000000000003,
                    "velocity": 0.47244094488188976,
                    "duration": 0.29999999999999716
                },
                {
                    "name": "F5",
                    "midi": 77,
                    "time": 94.50000000000003,
                    "velocity": 0.44881889763779526,
                    "duration": 1.7999999999999972
                },
                {
                    "name": "G#5",
                    "midi": 80,
                    "time": 94.50000000000003,
                    "velocity": 0.44881889763779526,
                    "duration": 1.7999999999999972
                },
                {
                    "name": "B5",
                    "midi": 83,
                    "time": 96.30000000000003,
                    "velocity": 0.4881889763779528,
                    "duration": 0.5999999999999943
                },
                {
                    "name": "G#5",
                    "midi": 80,
                    "time": 96.30000000000003,
                    "velocity": 0.4881889763779528,
                    "duration": 0.5999999999999943
                },
                {
                    "name": "G#5",
                    "midi": 80,
                    "time": 96.90000000000002,
                    "velocity": 0.5511811023622047,
                    "duration": 0.29999999999999716
                },
                {
                    "name": "C#6",
                    "midi": 85,
                    "time": 97.20000000000002,
                    "velocity": 0.6850393700787402,
                    "duration": 0.9000000000000199
                },
                {
                    "name": "C#5",
                    "midi": 73,
                    "time": 97.65000000000002,
                    "velocity": 0.4015748031496063,
                    "duration": 0.15000000000000568
                },
                {
                    "name": "G#5",
                    "midi": 80,
                    "time": 97.80000000000003,
                    "velocity": 0.5748031496062992,
                    "duration": 0.30000000000001137
                },
                {
                    "name": "E5",
                    "midi": 76,
                    "time": 97.95000000000003,
                    "velocity": 0.4015748031496063,
                    "duration": 0.15000000000000568
                },
                {
                    "name": "E6",
                    "midi": 88,
                    "time": 98.10000000000004,
                    "velocity": 0.6771653543307087,
                    "duration": 0.9000000000000199
                },
                {
                    "name": "E5",
                    "midi": 76,
                    "time": 98.55000000000004,
                    "velocity": 0.4251968503937008,
                    "duration": 0.15000000000000568
                },
                {
                    "name": "C#6",
                    "midi": 85,
                    "time": 98.70000000000005,
                    "velocity": 0.5511811023622047,
                    "duration": 0.30000000000001137
                },
                {
                    "name": "G#5",
                    "midi": 80,
                    "time": 98.85000000000005,
                    "velocity": 0.4251968503937008,
                    "duration": 0.15000000000000568
                },
                {
                    "name": "G#6",
                    "midi": 92,
                    "time": 99.00000000000006,
                    "velocity": 0.7086614173228346,
                    "duration": 0.9000000000000199
                },
                {
                    "name": "G#5",
                    "midi": 80,
                    "time": 99.45000000000006,
                    "velocity": 0.4409448818897638,
                    "duration": 0.15000000000000568
                },
                {
                    "name": "E6",
                    "midi": 88,
                    "time": 99.60000000000007,
                    "velocity": 0.5511811023622047,
                    "duration": 0.30000000000001137
                },
                {
                    "name": "B5",
                    "midi": 83,
                    "time": 99.75000000000007,
                    "velocity": 0.4409448818897638,
                    "duration": 0.15000000000000568
                },
                {
                    "name": "G#6",
                    "midi": 92,
                    "time": 99.90000000000008,
                    "velocity": 0.7244094488188977,
                    "duration": 0.9000000000000199
                },
                {
                    "name": "G#5",
                    "midi": 80,
                    "time": 100.35000000000008,
                    "velocity": 0.4409448818897638,
                    "duration": 0.15000000000000568
                },
                {
                    "name": "C#6",
                    "midi": 85,
                    "time": 100.50000000000009,
                    "velocity": 0.4409448818897638,
                    "duration": 0.15000000000000568
                },
                {
                    "name": "A5",
                    "midi": 81,
                    "time": 100.65000000000009,
                    "velocity": 0.4409448818897638,
                    "duration": 0.15000000000000568
                },
                {
                    "name": "F#6",
                    "midi": 90,
                    "time": 100.8000000000001,
                    "velocity": 0.7165354330708661,
                    "duration": 1.8000000000000398
                },
                {
                    "name": "F#5",
                    "midi": 78,
                    "time": 101.2500000000001,
                    "velocity": 0.4094488188976378,
                    "duration": 0.15000000000000568
                },
                {
                    "name": "C#6",
                    "midi": 85,
                    "time": 101.4000000000001,
                    "velocity": 0.4094488188976378,
                    "duration": 0.15000000000000568
                },
                {
                    "name": "A5",
                    "midi": 81,
                    "time": 101.55000000000011,
                    "velocity": 0.4094488188976378,
                    "duration": 0.15000000000000568
                },
                {
                    "name": "F#5",
                    "midi": 78,
                    "time": 102.15000000000012,
                    "velocity": 0.4094488188976378,
                    "duration": 0.15000000000000568
                },
                {
                    "name": "C#6",
                    "midi": 85,
                    "time": 102.30000000000013,
                    "velocity": 0.4094488188976378,
                    "duration": 0.15000000000000568
                },
                {
                    "name": "A5",
                    "midi": 81,
                    "time": 102.45000000000013,
                    "velocity": 0.4094488188976378,
                    "duration": 0.15000000000000568
                },
                {
                    "name": "F#6",
                    "midi": 90,
                    "time": 102.60000000000014,
                    "velocity": 0.7165354330708661,
                    "duration": 1.8000000000000398
                },
                {
                    "name": "F#5",
                    "midi": 78,
                    "time": 103.05000000000014,
                    "velocity": 0.4094488188976378,
                    "duration": 0.15000000000000568
                },
                {
                    "name": "C#6",
                    "midi": 85,
                    "time": 103.20000000000014,
                    "velocity": 0.4094488188976378,
                    "duration": 0.15000000000000568
                },
                {
                    "name": "A5",
                    "midi": 81,
                    "time": 103.35000000000015,
                    "velocity": 0.4094488188976378,
                    "duration": 0.15000000000000568
                },
                {
                    "name": "F#5",
                    "midi": 78,
                    "time": 103.95000000000016,
                    "velocity": 0.4094488188976378,
                    "duration": 0.15000000000000568
                },
                {
                    "name": "C#6",
                    "midi": 85,
                    "time": 104.10000000000016,
                    "velocity": 0.4094488188976378,
                    "duration": 0.15000000000000568
                },
                {
                    "name": "A5",
                    "midi": 81,
                    "time": 104.25000000000017,
                    "velocity": 0.4094488188976378,
                    "duration": 0.15000000000000568
                },
                {
                    "name": "A6",
                    "midi": 93,
                    "time": 104.40000000000018,
                    "velocity": 0.7165354330708661,
                    "duration": 0.5999999999999943
                },
                {
                    "name": "C#7",
                    "midi": 97,
                    "time": 105.00000000000017,
                    "velocity": 0.7165354330708661,
                    "duration": 0.30000000000001137
                },
                {
                    "name": "C#6",
                    "midi": 85,
                    "time": 105.15000000000018,
                    "velocity": 0.4094488188976378,
                    "duration": 0.15000000000000568
                },
                {
                    "name": "F#5",
                    "midi": 78,
                    "time": 105.30000000000018,
                    "velocity": 0.6456692913385826,
                    "duration": 1.8000000000000398
                },
                {
                    "name": "F#4",
                    "midi": 66,
                    "time": 105.75000000000018,
                    "velocity": 0.4094488188976378,
                    "duration": 0.15000000000000568
                },
                {
                    "name": "C#5",
                    "midi": 73,
                    "time": 105.90000000000019,
                    "velocity": 0.4094488188976378,
                    "duration": 0.15000000000000568
                },
                {
                    "name": "A4",
                    "midi": 69,
                    "time": 106.0500000000002,
                    "velocity": 0.4094488188976378,
                    "duration": 0.15000000000000568
                },
                {
                    "name": "F#4",
                    "midi": 66,
                    "time": 106.6500000000002,
                    "velocity": 0.4094488188976378,
                    "duration": 0.15000000000000568
                },
                {
                    "name": "C#5",
                    "midi": 73,
                    "time": 106.80000000000021,
                    "velocity": 0.4094488188976378,
                    "duration": 0.15000000000000568
                },
                {
                    "name": "A4",
                    "midi": 69,
                    "time": 106.95000000000022,
                    "velocity": 0.4094488188976378,
                    "duration": 0.15000000000000568
                },
                {
                    "name": "A5",
                    "midi": 81,
                    "time": 107.10000000000022,
                    "velocity": 0.6614173228346457,
                    "duration": 0.5999999999999943
                },
                {
                    "name": "E5",
                    "midi": 76,
                    "time": 107.70000000000022,
                    "velocity": 0.4094488188976378,
                    "duration": 0.15000000000000568
                },
                {
                    "name": "C#6",
                    "midi": 85,
                    "time": 107.70000000000022,
                    "velocity": 0.6220472440944882,
                    "duration": 0.30000000000001137
                },
                {
                    "name": "A5",
                    "midi": 81,
                    "time": 107.85000000000022,
                    "velocity": 0.4094488188976378,
                    "duration": 0.15000000000000568
                },
                {
                    "name": "E6",
                    "midi": 88,
                    "time": 108.00000000000023,
                    "velocity": 0.6220472440944882,
                    "duration": 0.29999999999999716
                },
                {
                    "name": "C#6",
                    "midi": 85,
                    "time": 108.00000000000023,
                    "velocity": 0.6220472440944882,
                    "duration": 0.29999999999999716
                },
                {
                    "name": "D#6",
                    "midi": 87,
                    "time": 108.30000000000022,
                    "velocity": 0.5433070866141733,
                    "duration": 0.29999999999999716
                },
                {
                    "name": "B5",
                    "midi": 83,
                    "time": 108.30000000000022,
                    "velocity": 0.5433070866141733,
                    "duration": 0.29999999999999716
                },
                {
                    "name": "C#6",
                    "midi": 85,
                    "time": 108.60000000000022,
                    "velocity": 0.5433070866141733,
                    "duration": 0.29999999999999716
                },
                {
                    "name": "A5",
                    "midi": 81,
                    "time": 108.60000000000022,
                    "velocity": 0.5433070866141733,
                    "duration": 0.29999999999999716
                },
                {
                    "name": "G#5",
                    "midi": 80,
                    "time": 108.90000000000022,
                    "velocity": 0.5826771653543307,
                    "duration": 0.45000000000000284
                },
                {
                    "name": "B5",
                    "midi": 83,
                    "time": 108.90000000000022,
                    "velocity": 0.5826771653543307,
                    "duration": 0.45000000000000284
                },
                {
                    "name": "F#5",
                    "midi": 78,
                    "time": 109.35000000000022,
                    "velocity": 0.5275590551181102,
                    "duration": 0.75
                },
                {
                    "name": "A5",
                    "midi": 81,
                    "time": 109.35000000000022,
                    "velocity": 0.5275590551181102,
                    "duration": 0.75
                },
                {
                    "name": "G#5",
                    "midi": 80,
                    "time": 110.10000000000022,
                    "velocity": 0.47244094488188976,
                    "duration": 0.29999999999999716
                },
                {
                    "name": "E5",
                    "midi": 76,
                    "time": 110.10000000000022,
                    "velocity": 0.47244094488188976,
                    "duration": 0.29999999999999716
                },
                {
                    "name": "F#5",
                    "midi": 78,
                    "time": 110.40000000000022,
                    "velocity": 0.47244094488188976,
                    "duration": 0.29999999999999716
                },
                {
                    "name": "D#5",
                    "midi": 75,
                    "time": 110.40000000000022,
                    "velocity": 0.47244094488188976,
                    "duration": 0.29999999999999716
                },
                {
                    "name": "C#5",
                    "midi": 73,
                    "time": 110.70000000000022,
                    "velocity": 0.4881889763779528,
                    "duration": 0.29999999999999716
                },
                {
                    "name": "E5",
                    "midi": 76,
                    "time": 110.70000000000022,
                    "velocity": 0.4881889763779528,
                    "duration": 0.29999999999999716
                },
                {
                    "name": "D#5",
                    "midi": 75,
                    "time": 111.00000000000021,
                    "velocity": 0.4566929133858268,
                    "duration": 0.29999999999999716
                },
                {
                    "name": "B4",
                    "midi": 71,
                    "time": 111.00000000000021,
                    "velocity": 0.4566929133858268,
                    "duration": 0.29999999999999716
                },
                {
                    "name": "A4",
                    "midi": 69,
                    "time": 111.30000000000021,
                    "velocity": 0.4409448818897638,
                    "duration": 0.29999999999999716
                },
                {
                    "name": "C#5",
                    "midi": 73,
                    "time": 111.30000000000021,
                    "velocity": 0.4409448818897638,
                    "duration": 0.29999999999999716
                },
                {
                    "name": "B4",
                    "midi": 71,
                    "time": 111.60000000000021,
                    "velocity": 0.44881889763779526,
                    "duration": 0.29999999999999716
                },
                {
                    "name": "G#4",
                    "midi": 68,
                    "time": 111.60000000000021,
                    "velocity": 0.44881889763779526,
                    "duration": 0.29999999999999716
                },
                {
                    "name": "F#4",
                    "midi": 66,
                    "time": 111.9000000000002,
                    "velocity": 0.4094488188976378,
                    "duration": 0.29999999999999716
                },
                {
                    "name": "A4",
                    "midi": 69,
                    "time": 111.9000000000002,
                    "velocity": 0.4094488188976378,
                    "duration": 0.29999999999999716
                },
                {
                    "name": "G#4",
                    "midi": 68,
                    "time": 112.2000000000002,
                    "velocity": 0.3858267716535433,
                    "duration": 0.5999999999999943
                },
                {
                    "name": "E4",
                    "midi": 64,
                    "time": 112.2000000000002,
                    "velocity": 0.3858267716535433,
                    "duration": 0.5999999999999943
                },
                {
                    "name": "A3",
                    "midi": 57,
                    "time": 112.5000000000002,
                    "velocity": 0.36220472440944884,
                    "duration": 0.8999999999999915
                },
                {
                    "name": "F#4",
                    "midi": 66,
                    "time": 112.8000000000002,
                    "velocity": 0.33858267716535434,
                    "duration": 0.29999999999999716
                },
                {
                    "name": "D#4",
                    "midi": 63,
                    "time": 112.8000000000002,
                    "velocity": 0.33858267716535434,
                    "duration": 0.29999999999999716
                },
                {
                    "name": "C#4",
                    "midi": 61,
                    "time": 113.1000000000002,
                    "velocity": 0.31496062992125984,
                    "duration": 0.29999999999999716
                },
                {
                    "name": "E4",
                    "midi": 64,
                    "time": 113.1000000000002,
                    "velocity": 0.31496062992125984,
                    "duration": 0.29999999999999716
                },
                {
                    "name": "C#4",
                    "midi": 61,
                    "time": 113.40000000000019,
                    "velocity": 0.29133858267716534,
                    "duration": 1.799999999999983
                },
                {
                    "name": "D#4",
                    "midi": 63,
                    "time": 113.40000000000019,
                    "velocity": 0.31496062992125984,
                    "duration": 1.799999999999983
                },
                {
                    "name": "F#3",
                    "midi": 54,
                    "time": 113.40000000000019,
                    "velocity": 0.29133858267716534,
                    "duration": 0.5999999999999943
                },
                {
                    "name": "G#3",
                    "midi": 56,
                    "time": 114.00000000000018,
                    "velocity": 0.28346456692913385,
                    "duration": 0.29999999999999716
                },
                {
                    "name": "A#3",
                    "midi": 58,
                    "time": 114.30000000000018,
                    "velocity": 0.2992125984251969,
                    "duration": 0.5999999999999943
                },
                {
                    "name": "C#4",
                    "midi": 61,
                    "time": 114.90000000000018,
                    "velocity": 0.29133858267716534,
                    "duration": 0.29999999999999716
                },
                {
                    "name": "F#4",
                    "midi": 66,
                    "time": 115.20000000000017,
                    "velocity": 0.3464566929133858,
                    "duration": 0.5999999999999943
                },
                {
                    "name": "C4",
                    "midi": 60,
                    "time": 115.20000000000017,
                    "velocity": 0.29133858267716534,
                    "duration": 0.8999999999999915
                },
                {
                    "name": "D#4",
                    "midi": 63,
                    "time": 115.20000000000017,
                    "velocity": 0.29133858267716534,
                    "duration": 0.5999999999999943
                },
                {
                    "name": "D#4",
                    "midi": 63,
                    "time": 115.80000000000017,
                    "velocity": 0.31496062992125984,
                    "duration": 0.29999999999999716
                },
                {
                    "name": "F#4",
                    "midi": 66,
                    "time": 115.80000000000017,
                    "velocity": 0.29133858267716534,
                    "duration": 0.29999999999999716
                },
                {
                    "name": "A#4",
                    "midi": 70,
                    "time": 115.80000000000017,
                    "velocity": 0.3464566929133858,
                    "duration": 0.29999999999999716
                },
                {
                    "name": "C#4",
                    "midi": 61,
                    "time": 116.10000000000016,
                    "velocity": 0.29133858267716534,
                    "duration": 1.799999999999983
                },
                {
                    "name": "D#4",
                    "midi": 63,
                    "time": 116.10000000000016,
                    "velocity": 0.31496062992125984,
                    "duration": 1.799999999999983
                },
                {
                    "name": "F#3",
                    "midi": 54,
                    "time": 116.10000000000016,
                    "velocity": 0.29133858267716534,
                    "duration": 0.5999999999999943
                },
                {
                    "name": "G#3",
                    "midi": 56,
                    "time": 116.70000000000016,
                    "velocity": 0.2677165354330709,
                    "duration": 0.29999999999999716
                },
                {
                    "name": "A#3",
                    "midi": 58,
                    "time": 117.00000000000016,
                    "velocity": 0.2992125984251969,
                    "duration": 0.5999999999999943
                },
                {
                    "name": "C#4",
                    "midi": 61,
                    "time": 117.60000000000015,
                    "velocity": 0.29133858267716534,
                    "duration": 0.29999999999999716
                },
                {
                    "name": "F#4",
                    "midi": 66,
                    "time": 117.90000000000015,
                    "velocity": 0.31496062992125984,
                    "duration": 0.5999999999999943
                },
                {
                    "name": "C4",
                    "midi": 60,
                    "time": 117.90000000000015,
                    "velocity": 0.29133858267716534,
                    "duration": 0.8999999999999915
                },
                {
                    "name": "D#4",
                    "midi": 63,
                    "time": 117.90000000000015,
                    "velocity": 0.29133858267716534,
                    "duration": 0.5999999999999943
                },
                {
                    "name": "D#4",
                    "midi": 63,
                    "time": 118.50000000000014,
                    "velocity": 0.28346456692913385,
                    "duration": 0.29999999999999716
                },
                {
                    "name": "F#4",
                    "midi": 66,
                    "time": 118.50000000000014,
                    "velocity": 0.28346456692913385,
                    "duration": 0.5750000000000028
                },
                {
                    "name": "A#4",
                    "midi": 70,
                    "time": 118.50000000000014,
                    "velocity": 0.30708661417322836,
                    "duration": 0.5750000000000028
                },
                {
                    "name": "C#4",
                    "midi": 61,
                    "time": 118.80000000000014,
                    "velocity": 0.2677165354330709,
                    "duration": 0.2750000000000057
                },
                {
                    "name": "G#4",
                    "midi": 68,
                    "time": 119.10000000000015,
                    "velocity": 0.30708661417322836,
                    "duration": 0.29999999999999716
                },
                {
                    "name": "F5",
                    "midi": 77,
                    "time": 119.10000000000015,
                    "velocity": 0.33070866141732286,
                    "duration": 0.29999999999999716
                },
                {
                    "name": "C5",
                    "midi": 72,
                    "time": 119.10000000000015,
                    "velocity": 0.30708661417322836,
                    "duration": 0.29999999999999716
                },
                {
                    "name": "A#4",
                    "midi": 70,
                    "time": 119.40000000000015,
                    "velocity": 0.2992125984251969,
                    "duration": 0.29999999999999716
                },
                {
                    "name": "D#5",
                    "midi": 75,
                    "time": 119.40000000000015,
                    "velocity": 0.3228346456692913,
                    "duration": 0.29999999999999716
                },
                {
                    "name": "F#4",
                    "midi": 66,
                    "time": 119.40000000000015,
                    "velocity": 0.2992125984251969,
                    "duration": 0.29999999999999716
                },
                {
                    "name": "C#4",
                    "midi": 61,
                    "time": 119.70000000000014,
                    "velocity": 0.28346456692913385,
                    "duration": 0.29999999999999716
                },
                {
                    "name": "F#4",
                    "midi": 66,
                    "time": 119.70000000000014,
                    "velocity": 0.28346456692913385,
                    "duration": 0.8999999999999915
                },
                {
                    "name": "A#4",
                    "midi": 70,
                    "time": 119.70000000000014,
                    "velocity": 0.30708661417322836,
                    "duration": 0.8999999999999915
                },
                {
                    "name": "A#3",
                    "midi": 58,
                    "time": 120.00000000000014,
                    "velocity": 0.2677165354330709,
                    "duration": 0.29999999999999716
                },
                {
                    "name": "C#4",
                    "midi": 61,
                    "time": 120.30000000000014,
                    "velocity": 0.2677165354330709,
                    "duration": 0.29999999999999716
                },
                {
                    "name": "A#3",
                    "midi": 58,
                    "time": 120.60000000000014,
                    "velocity": 0.2440944881889764,
                    "duration": 0.29999999999999716
                },
                {
                    "name": "G#4",
                    "midi": 68,
                    "time": 120.60000000000014,
                    "velocity": 0.28346456692913385,
                    "duration": 0.8999999999999915
                },
                {
                    "name": "F#4",
                    "midi": 66,
                    "time": 120.60000000000014,
                    "velocity": 0.25984251968503935,
                    "duration": 0.8999999999999915
                },
                {
                    "name": "C4",
                    "midi": 60,
                    "time": 120.90000000000013,
                    "velocity": 0.2677165354330709,
                    "duration": 0.29999999999999716
                },
                {
                    "name": "D#4",
                    "midi": 63,
                    "time": 121.20000000000013,
                    "velocity": 0.2677165354330709,
                    "duration": 0.29999999999999716
                },
                {
                    "name": "F#4",
                    "midi": 66,
                    "time": 121.50000000000013,
                    "velocity": 0.2677165354330709,
                    "duration": 0.2750000000000057
                },
                {
                    "name": "A#4",
                    "midi": 70,
                    "time": 121.50000000000013,
                    "velocity": 0.2677165354330709,
                    "duration": 0.2750000000000057
                },
                {
                    "name": "C#4",
                    "midi": 61,
                    "time": 121.50000000000013,
                    "velocity": 0.2677165354330709,
                    "duration": 0.2750000000000057
                },
                {
                    "name": "G#4",
                    "midi": 68,
                    "time": 121.80000000000014,
                    "velocity": 0.30708661417322836,
                    "duration": 0.29999999999999716
                },
                {
                    "name": "F5",
                    "midi": 77,
                    "time": 121.80000000000014,
                    "velocity": 0.33070866141732286,
                    "duration": 0.29999999999999716
                },
                {
                    "name": "C5",
                    "midi": 72,
                    "time": 121.80000000000014,
                    "velocity": 0.30708661417322836,
                    "duration": 0.29999999999999716
                },
                {
                    "name": "F#4",
                    "midi": 66,
                    "time": 122.10000000000014,
                    "velocity": 0.2992125984251969,
                    "duration": 0.29999999999999716
                },
                {
                    "name": "D#5",
                    "midi": 75,
                    "time": 122.10000000000014,
                    "velocity": 0.3228346456692913,
                    "duration": 0.29999999999999716
                },
                {
                    "name": "A#4",
                    "midi": 70,
                    "time": 122.10000000000014,
                    "velocity": 0.2992125984251969,
                    "duration": 0.29999999999999716
                },
                {
                    "name": "F#4",
                    "midi": 66,
                    "time": 122.40000000000013,
                    "velocity": 0.28346456692913385,
                    "duration": 0.8999999999999915
                },
                {
                    "name": "A#4",
                    "midi": 70,
                    "time": 122.40000000000013,
                    "velocity": 0.30708661417322836,
                    "duration": 0.8999999999999915
                },
                {
                    "name": "C#4",
                    "midi": 61,
                    "time": 122.40000000000013,
                    "velocity": 0.28346456692913385,
                    "duration": 0.29999999999999716
                },
                {
                    "name": "A#3",
                    "midi": 58,
                    "time": 122.70000000000013,
                    "velocity": 0.2677165354330709,
                    "duration": 0.29999999999999716
                },
                {
                    "name": "C#4",
                    "midi": 61,
                    "time": 123.00000000000013,
                    "velocity": 0.2677165354330709,
                    "duration": 0.29999999999999716
                },
                {
                    "name": "A#3",
                    "midi": 58,
                    "time": 123.30000000000013,
                    "velocity": 0.2440944881889764,
                    "duration": 0.29999999999999716
                },
                {
                    "name": "G#4",
                    "midi": 68,
                    "time": 123.30000000000013,
                    "velocity": 0.28346456692913385,
                    "duration": 0.8999999999999915
                },
                {
                    "name": "F#4",
                    "midi": 66,
                    "time": 123.30000000000013,
                    "velocity": 0.25984251968503935,
                    "duration": 0.8999999999999915
                },
                {
                    "name": "C4",
                    "midi": 60,
                    "time": 123.60000000000012,
                    "velocity": 0.2677165354330709,
                    "duration": 0.29999999999999716
                },
                {
                    "name": "D#4",
                    "midi": 63,
                    "time": 123.90000000000012,
                    "velocity": 0.2677165354330709,
                    "duration": 0.29999999999999716
                },
                {
                    "name": "D#5",
                    "midi": 75,
                    "time": 124.20000000000012,
                    "velocity": 0.3779527559055118,
                    "duration": 1.8000000000000682
                },
                {
                    "name": "D#4",
                    "midi": 63,
                    "time": 124.35000000000012,
                    "velocity": 0.25196850393700787,
                    "duration": 0.15000000000000568
                },
                {
                    "name": "F#4",
                    "midi": 66,
                    "time": 124.50000000000013,
                    "velocity": 0.2677165354330709,
                    "duration": 0.15000000000000568
                },
                {
                    "name": "A#4",
                    "midi": 70,
                    "time": 124.65000000000013,
                    "velocity": 0.25196850393700787,
                    "duration": 0.15000000000000568
                },
                {
                    "name": "F#4",
                    "midi": 66,
                    "time": 124.80000000000014,
                    "velocity": 0.2677165354330709,
                    "duration": 0.15000000000000568
                },
                {
                    "name": "D#4",
                    "midi": 63,
                    "time": 124.95000000000014,
                    "velocity": 0.25196850393700787,
                    "duration": 0.15000000000000568
                },
                {
                    "name": "D#4",
                    "midi": 63,
                    "time": 125.25000000000016,
                    "velocity": 0.25196850393700787,
                    "duration": 0.15000000000000568
                },
                {
                    "name": "F#4",
                    "midi": 66,
                    "time": 125.40000000000016,
                    "velocity": 0.28346456692913385,
                    "duration": 0.15000000000000568
                },
                {
                    "name": "A#4",
                    "midi": 70,
                    "time": 125.55000000000017,
                    "velocity": 0.25196850393700787,
                    "duration": 0.15000000000000568
                },
                {
                    "name": "F#4",
                    "midi": 66,
                    "time": 125.70000000000017,
                    "velocity": 0.28346456692913385,
                    "duration": 0.15000000000000568
                },
                {
                    "name": "D#4",
                    "midi": 63,
                    "time": 125.85000000000018,
                    "velocity": 0.25196850393700787,
                    "duration": 0.15000000000000568
                },
                {
                    "name": "F#5",
                    "midi": 78,
                    "time": 126.00000000000018,
                    "velocity": 0.41732283464566927,
                    "duration": 0.5999999999999943
                },
                {
                    "name": "A#5",
                    "midi": 82,
                    "time": 126.60000000000018,
                    "velocity": 0.3937007874015748,
                    "duration": 0.30000000000001137
                },
                {
                    "name": "C5",
                    "midi": 72,
                    "time": 126.60000000000018,
                    "velocity": 0.23622047244094488,
                    "duration": 0.15000000000000568
                },
                {
                    "name": "D#5",
                    "midi": 75,
                    "time": 126.75000000000018,
                    "velocity": 0.25196850393700787,
                    "duration": 0.15000000000000568
                },
                {
                    "name": "D#5",
                    "midi": 75,
                    "time": 126.90000000000019,
                    "velocity": 0.3779527559055118,
                    "duration": 1.800000000000054
                },
                {
                    "name": "D#4",
                    "midi": 63,
                    "time": 127.0500000000002,
                    "velocity": 0.25196850393700787,
                    "duration": 0.15000000000000568
                },
                {
                    "name": "F#4",
                    "midi": 66,
                    "time": 127.2000000000002,
                    "velocity": 0.2677165354330709,
                    "duration": 0.15000000000000568
                },
                {
                    "name": "A#4",
                    "midi": 70,
                    "time": 127.35000000000021,
                    "velocity": 0.25196850393700787,
                    "duration": 0.15000000000000568
                },
                {
                    "name": "F#4",
                    "midi": 66,
                    "time": 127.50000000000021,
                    "velocity": 0.2677165354330709,
                    "duration": 0.15000000000000568
                },
                {
                    "name": "D#4",
                    "midi": 63,
                    "time": 127.65000000000022,
                    "velocity": 0.25196850393700787,
                    "duration": 0.15000000000000568
                },
                {
                    "name": "D#4",
                    "midi": 63,
                    "time": 127.95000000000023,
                    "velocity": 0.25196850393700787,
                    "duration": 0.14999999999999147
                },
                {
                    "name": "F#4",
                    "midi": 66,
                    "time": 128.10000000000022,
                    "velocity": 0.28346456692913385,
                    "duration": 0.15000000000000568
                },
                {
                    "name": "A#4",
                    "midi": 70,
                    "time": 128.25000000000023,
                    "velocity": 0.25196850393700787,
                    "duration": 0.15000000000000568
                },
                {
                    "name": "F#4",
                    "midi": 66,
                    "time": 128.40000000000023,
                    "velocity": 0.28346456692913385,
                    "duration": 0.15000000000000568
                },
                {
                    "name": "D#4",
                    "midi": 63,
                    "time": 128.55000000000024,
                    "velocity": 0.25196850393700787,
                    "duration": 0.15000000000000568
                },
                {
                    "name": "F#5",
                    "midi": 78,
                    "time": 128.70000000000024,
                    "velocity": 0.41732283464566927,
                    "duration": 0.5999999999999943
                },
                {
                    "name": "C5",
                    "midi": 72,
                    "time": 129.30000000000024,
                    "velocity": 0.25196850393700787,
                    "duration": 0.15000000000000568
                },
                {
                    "name": "A#5",
                    "midi": 82,
                    "time": 129.30000000000024,
                    "velocity": 0.4094488188976378,
                    "duration": 0.30000000000001137
                },
                {
                    "name": "D#5",
                    "midi": 75,
                    "time": 129.45000000000024,
                    "velocity": 0.25196850393700787,
                    "duration": 0.15000000000000568
                },
                {
                    "name": "D#6",
                    "midi": 87,
                    "time": 129.60000000000025,
                    "velocity": 0.4094488188976378,
                    "duration": 3.6000000000000227
                },
                {
                    "name": "D#5",
                    "midi": 75,
                    "time": 130.05000000000024,
                    "velocity": 0.28346456692913385,
                    "duration": 0.15000000000000568
                },
                {
                    "name": "F#5",
                    "midi": 78,
                    "time": 130.20000000000024,
                    "velocity": 0.25984251968503935,
                    "duration": 0.15000000000000568
                },
                {
                    "name": "A#5",
                    "midi": 82,
                    "time": 130.35000000000025,
                    "velocity": 0.25196850393700787,
                    "duration": 0.15000000000000568
                },
                {
                    "name": "D#5",
                    "midi": 75,
                    "time": 130.95000000000024,
                    "velocity": 0.28346456692913385,
                    "duration": 0.15000000000000568
                },
                {
                    "name": "F#5",
                    "midi": 78,
                    "time": 131.10000000000025,
                    "velocity": 0.25984251968503935,
                    "duration": 0.15000000000000568
                },
                {
                    "name": "C6",
                    "midi": 84,
                    "time": 131.25000000000026,
                    "velocity": 0.25196850393700787,
                    "duration": 0.15000000000000568
                },
                {
                    "name": "D#5",
                    "midi": 75,
                    "time": 131.85000000000025,
                    "velocity": 0.25984251968503935,
                    "duration": 0.15000000000000568
                },
                {
                    "name": "F#5",
                    "midi": 78,
                    "time": 132.00000000000026,
                    "velocity": 0.25196850393700787,
                    "duration": 0.15000000000000568
                },
                {
                    "name": "A#5",
                    "midi": 82,
                    "time": 132.15000000000026,
                    "velocity": 0.2440944881889764,
                    "duration": 0.15000000000000568
                },
                {
                    "name": "D#5",
                    "midi": 75,
                    "time": 132.75000000000026,
                    "velocity": 0.25196850393700787,
                    "duration": 0.15000000000000568
                },
                {
                    "name": "F#5",
                    "midi": 78,
                    "time": 132.90000000000026,
                    "velocity": 0.2440944881889764,
                    "duration": 0.15000000000000568
                },
                {
                    "name": "A5",
                    "midi": 81,
                    "time": 133.05000000000027,
                    "velocity": 0.2440944881889764,
                    "duration": 0.15000000000000568
                },
                {
                    "name": "C#6",
                    "midi": 85,
                    "time": 133.20000000000027,
                    "velocity": 0.4094488188976378,
                    "duration": 0.9000000000000057
                },
                {
                    "name": "D#5",
                    "midi": 75,
                    "time": 133.65000000000026,
                    "velocity": 0.2440944881889764,
                    "duration": 0.15000000000000568
                },
                {
                    "name": "F#5",
                    "midi": 78,
                    "time": 133.80000000000027,
                    "velocity": 0.23622047244094488,
                    "duration": 0.15000000000000568
                },
                {
                    "name": "B5",
                    "midi": 83,
                    "time": 133.95000000000027,
                    "velocity": 0.2204724409448819,
                    "duration": 0.15000000000000568
                },
                {
                    "name": "D#6",
                    "midi": 87,
                    "time": 134.10000000000028,
                    "velocity": 0.4094488188976378,
                    "duration": 0.9000000000000057
                },
                {
                    "name": "D#5",
                    "midi": 75,
                    "time": 134.55000000000027,
                    "velocity": 0.2204724409448819,
                    "duration": 0.15000000000000568
                },
                {
                    "name": "F#5",
                    "midi": 78,
                    "time": 134.70000000000027,
                    "velocity": 0.2204724409448819,
                    "duration": 0.15000000000000568
                },
                {
                    "name": "A5",
                    "midi": 81,
                    "time": 134.85000000000028,
                    "velocity": 0.2125984251968504,
                    "duration": 0.15000000000000568
                },
                {
                    "name": "F6",
                    "midi": 89,
                    "time": 135.9000000000003,
                    "velocity": 0.2992125984251969,
                    "duration": 0.9000000000000057
                },
                {
                    "name": "G#6",
                    "midi": 92,
                    "time": 135.9000000000003,
                    "velocity": 0.2992125984251969,
                    "duration": 0.9000000000000057
                },
                {
                    "name": "F6",
                    "midi": 89,
                    "time": 136.8000000000003,
                    "velocity": 0.30708661417322836,
                    "duration": 1.1999999999999886
                },
                {
                    "name": "C6",
                    "midi": 84,
                    "time": 138.00000000000028,
                    "velocity": 0.25984251968503935,
                    "duration": 0.30000000000001137
                },
                {
                    "name": "D#6",
                    "midi": 87,
                    "time": 138.00000000000028,
                    "velocity": 0.28346456692913385,
                    "duration": 0.30000000000001137
                },
                {
                    "name": "F6",
                    "midi": 89,
                    "time": 138.3000000000003,
                    "velocity": 0.2440944881889764,
                    "duration": 0.30000000000001137
                },
                {
                    "name": "C#6",
                    "midi": 85,
                    "time": 138.3000000000003,
                    "velocity": 0.2283464566929134,
                    "duration": 0.30000000000001137
                },
                {
                    "name": "D#6",
                    "midi": 87,
                    "time": 138.6000000000003,
                    "velocity": 0.2283464566929134,
                    "duration": 2.0999999999999943
                },
                {
                    "name": "C6",
                    "midi": 84,
                    "time": 138.6000000000003,
                    "velocity": 0.2125984251968504,
                    "duration": 2.0999999999999943
                },
                {
                    "name": "A#5",
                    "midi": 82,
                    "time": 140.7000000000003,
                    "velocity": 0.28346456692913385,
                    "duration": 0.30000000000001137
                },
                {
                    "name": "C#6",
                    "midi": 85,
                    "time": 140.7000000000003,
                    "velocity": 0.30708661417322836,
                    "duration": 0.30000000000001137
                },
                {
                    "name": "C6",
                    "midi": 84,
                    "time": 141.0000000000003,
                    "velocity": 0.23622047244094488,
                    "duration": 0.30000000000001137
                },
                {
                    "name": "D#6",
                    "midi": 87,
                    "time": 141.0000000000003,
                    "velocity": 0.25984251968503935,
                    "duration": 0.30000000000001137
                },
                {
                    "name": "C#6",
                    "midi": 85,
                    "time": 141.30000000000032,
                    "velocity": 0.23622047244094488,
                    "duration": 0.44999999999998863
                },
                {
                    "name": "A#5",
                    "midi": 82,
                    "time": 141.30000000000032,
                    "velocity": 0.2204724409448819,
                    "duration": 0.44999999999998863
                },
                {
                    "name": "F6",
                    "midi": 89,
                    "time": 141.7500000000003,
                    "velocity": 0.3228346456692913,
                    "duration": 0.9000000000000057
                },
                {
                    "name": "C#6",
                    "midi": 85,
                    "time": 141.7500000000003,
                    "velocity": 0.2992125984251969,
                    "duration": 0.9000000000000057
                },
                {
                    "name": "C#6",
                    "midi": 85,
                    "time": 142.65000000000032,
                    "velocity": 0.28346456692913385,
                    "duration": 0.75
                },
                {
                    "name": "A#5",
                    "midi": 82,
                    "time": 142.65000000000032,
                    "velocity": 0.25984251968503935,
                    "duration": 0.75
                },
                {
                    "name": "C6",
                    "midi": 84,
                    "time": 143.40000000000032,
                    "velocity": 0.23622047244094488,
                    "duration": 0.30000000000001137
                },
                {
                    "name": "G#5",
                    "midi": 80,
                    "time": 143.40000000000032,
                    "velocity": 0.2204724409448819,
                    "duration": 0.30000000000001137
                },
                {
                    "name": "A#5",
                    "midi": 82,
                    "time": 143.70000000000033,
                    "velocity": 0.2125984251968504,
                    "duration": 0.30000000000001137
                },
                {
                    "name": "C#6",
                    "midi": 85,
                    "time": 143.70000000000033,
                    "velocity": 0.2283464566929134,
                    "duration": 0.30000000000001137
                },
                {
                    "name": "C6",
                    "midi": 84,
                    "time": 144.00000000000034,
                    "velocity": 0.2047244094488189,
                    "duration": 1.8000000000000114
                },
                {
                    "name": "G#5",
                    "midi": 80,
                    "time": 144.00000000000034,
                    "velocity": 0.1889763779527559,
                    "duration": 1.8000000000000114
                },
                {
                    "name": "F#5",
                    "midi": 78,
                    "time": 146.10000000000036,
                    "velocity": 0.2755905511811024,
                    "duration": 0.30000000000001137
                },
                {
                    "name": "A#5",
                    "midi": 82,
                    "time": 146.10000000000036,
                    "velocity": 0.2992125984251969,
                    "duration": 0.30000000000001137
                },
                {
                    "name": "C6",
                    "midi": 84,
                    "time": 146.40000000000038,
                    "velocity": 0.2755905511811024,
                    "duration": 0.30000000000001137
                },
                {
                    "name": "G#5",
                    "midi": 80,
                    "time": 146.40000000000038,
                    "velocity": 0.25196850393700787,
                    "duration": 0.30000000000001137
                },
                {
                    "name": "A#5",
                    "midi": 82,
                    "time": 146.7000000000004,
                    "velocity": 0.2755905511811024,
                    "duration": 0.30000000000001137
                },
                {
                    "name": "F#5",
                    "midi": 78,
                    "time": 146.7000000000004,
                    "velocity": 0.2283464566929134,
                    "duration": 0.9000000000000341
                },
                {
                    "name": "D#6",
                    "midi": 87,
                    "time": 147.0000000000004,
                    "velocity": 0.2992125984251969,
                    "duration": 0.30000000000001137
                },
                {
                    "name": "A#5",
                    "midi": 82,
                    "time": 147.3000000000004,
                    "velocity": 0.28346456692913385,
                    "duration": 0.30000000000001137
                },
                {
                    "name": "F5",
                    "midi": 77,
                    "time": 147.60000000000042,
                    "velocity": 0.2283464566929134,
                    "duration": 1.200000000000017
                },
                {
                    "name": "G#5",
                    "midi": 80,
                    "time": 147.60000000000042,
                    "velocity": 0.30708661417322836,
                    "duration": 0.30000000000001137
                },
                {
                    "name": "A#5",
                    "midi": 82,
                    "time": 147.90000000000043,
                    "velocity": 0.28346456692913385,
                    "duration": 0.30000000000001137
                },
                {
                    "name": "G#5",
                    "midi": 80,
                    "time": 148.20000000000044,
                    "velocity": 0.2755905511811024,
                    "duration": 0.5999999999999943
                },
                {
                    "name": "F#5",
                    "midi": 78,
                    "time": 148.80000000000044,
                    "velocity": 0.25984251968503935,
                    "duration": 0.30000000000001137
                },
                {
                    "name": "D#5",
                    "midi": 75,
                    "time": 148.80000000000044,
                    "velocity": 0.23622047244094488,
                    "duration": 0.30000000000001137
                },
                {
                    "name": "G#5",
                    "midi": 80,
                    "time": 149.10000000000045,
                    "velocity": 0.2440944881889764,
                    "duration": 0.30000000000001137
                },
                {
                    "name": "F5",
                    "midi": 77,
                    "time": 149.10000000000045,
                    "velocity": 0.2283464566929134,
                    "duration": 0.30000000000001137
                },
                {
                    "name": "F#5",
                    "midi": 78,
                    "time": 149.40000000000046,
                    "velocity": 0.2440944881889764,
                    "duration": 0.9000000000000057
                },
                {
                    "name": "D#5",
                    "midi": 75,
                    "time": 149.40000000000046,
                    "velocity": 0.2283464566929134,
                    "duration": 0.9000000000000057
                },
                {
                    "name": "A4",
                    "midi": 69,
                    "time": 150.30000000000047,
                    "velocity": 0.25196850393700787,
                    "duration": 0.9000000000000057
                },
                {
                    "name": "F5",
                    "midi": 77,
                    "time": 150.30000000000047,
                    "velocity": 0.25984251968503935,
                    "duration": 1.200000000000017
                },
                {
                    "name": "F5",
                    "midi": 77,
                    "time": 151.50000000000048,
                    "velocity": 0.29133858267716534,
                    "duration": 0.30000000000001137
                },
                {
                    "name": "C#5",
                    "midi": 73,
                    "time": 151.50000000000048,
                    "velocity": 0.2677165354330709,
                    "duration": 0.30000000000001137
                },
                {
                    "name": "D#5",
                    "midi": 75,
                    "time": 151.8000000000005,
                    "velocity": 0.25984251968503935,
                    "duration": 0.30000000000001137
                },
                {
                    "name": "F#5",
                    "midi": 78,
                    "time": 151.8000000000005,
                    "velocity": 0.28346456692913385,
                    "duration": 0.30000000000001137
                },
                {
                    "name": "F5",
                    "midi": 77,
                    "time": 152.1000000000005,
                    "velocity": 0.28346456692913385,
                    "duration": 0.30000000000001137
                },
                {
                    "name": "C#5",
                    "midi": 73,
                    "time": 152.1000000000005,
                    "velocity": 0.2283464566929134,
                    "duration": 0.9000000000000341
                },
                {
                    "name": "A#5",
                    "midi": 82,
                    "time": 152.40000000000052,
                    "velocity": 0.2992125984251969,
                    "duration": 0.30000000000001137
                },
                {
                    "name": "F5",
                    "midi": 77,
                    "time": 152.70000000000053,
                    "velocity": 0.28346456692913385,
                    "duration": 0.30000000000001137
                },
                {
                    "name": "C#5",
                    "midi": 73,
                    "time": 153.00000000000054,
                    "velocity": 0.2204724409448819,
                    "duration": 0.9000000000000341
                },
                {
                    "name": "D#5",
                    "midi": 75,
                    "time": 153.00000000000054,
                    "velocity": 0.29133858267716534,
                    "duration": 0.30000000000001137
                },
                {
                    "name": "F5",
                    "midi": 77,
                    "time": 153.30000000000055,
                    "velocity": 0.28346456692913385,
                    "duration": 0.30000000000001137
                },
                {
                    "name": "D#5",
                    "midi": 75,
                    "time": 153.60000000000056,
                    "velocity": 0.28346456692913385,
                    "duration": 0.6000000000000227
                },
                {
                    "name": "C#5",
                    "midi": 73,
                    "time": 154.20000000000059,
                    "velocity": 0.25984251968503935,
                    "duration": 0.30000000000001137
                },
                {
                    "name": "A#4",
                    "midi": 70,
                    "time": 154.20000000000059,
                    "velocity": 0.23622047244094488,
                    "duration": 0.30000000000001137
                },
                {
                    "name": "D#5",
                    "midi": 75,
                    "time": 154.5000000000006,
                    "velocity": 0.2440944881889764,
                    "duration": 0.30000000000001137
                },
                {
                    "name": "C5",
                    "midi": 72,
                    "time": 154.5000000000006,
                    "velocity": 0.2283464566929134,
                    "duration": 0.30000000000001137
                },
                {
                    "name": "C#5",
                    "midi": 73,
                    "time": 154.8000000000006,
                    "velocity": 0.2440944881889764,
                    "duration": 0.9000000000000057
                },
                {
                    "name": "A#4",
                    "midi": 70,
                    "time": 154.8000000000006,
                    "velocity": 0.2283464566929134,
                    "duration": 0.9000000000000057
                },
                {
                    "name": "C5",
                    "midi": 72,
                    "time": 155.7000000000006,
                    "velocity": 0.2047244094488189,
                    "duration": 0.9000000000000057
                },
                {
                    "name": "G#4",
                    "midi": 68,
                    "time": 155.7000000000006,
                    "velocity": 0.1889763779527559,
                    "duration": 0.9000000000000057
                },
                {
                    "name": "F3",
                    "midi": 53,
                    "time": 156.90000000000063,
                    "velocity": 0.2047244094488189,
                    "duration": 0.30000000000001137
                },
                {
                    "name": "G#3",
                    "midi": 56,
                    "time": 156.90000000000063,
                    "velocity": 0.2047244094488189,
                    "duration": 0.30000000000001137
                },
                {
                    "name": "G#5",
                    "midi": 80,
                    "time": 157.50000000000065,
                    "velocity": 0.28346456692913385,
                    "duration": 0.9000000000000057
                },
                {
                    "name": "F5",
                    "midi": 77,
                    "time": 157.50000000000065,
                    "velocity": 0.28346456692913385,
                    "duration": 0.9000000000000057
                },
                {
                    "name": "C#5",
                    "midi": 73,
                    "time": 158.40000000000066,
                    "velocity": 0.25984251968503935,
                    "duration": 1.1999999999999886
                },
                {
                    "name": "F5",
                    "midi": 77,
                    "time": 158.40000000000066,
                    "velocity": 0.25984251968503935,
                    "duration": 1.1999999999999886
                },
                {
                    "name": "A#4",
                    "midi": 70,
                    "time": 159.60000000000065,
                    "velocity": 0.1968503937007874,
                    "duration": 2.400000000000034
                },
                {
                    "name": "D#5",
                    "midi": 75,
                    "time": 159.60000000000065,
                    "velocity": 0.30708661417322836,
                    "duration": 0.30000000000001137
                },
                {
                    "name": "F#4",
                    "midi": 66,
                    "time": 159.60000000000065,
                    "velocity": 0.1968503937007874,
                    "duration": 2.400000000000034
                },
                {
                    "name": "F5",
                    "midi": 77,
                    "time": 159.90000000000066,
                    "velocity": 0.2677165354330709,
                    "duration": 0.30000000000001137
                },
                {
                    "name": "D#5",
                    "midi": 75,
                    "time": 160.20000000000067,
                    "velocity": 0.2283464566929134,
                    "duration": 2.1000000000000227
                },
                {
                    "name": "G#4",
                    "midi": 68,
                    "time": 162.3000000000007,
                    "velocity": 0.28346456692913385,
                    "duration": 0.6000000000000227
                },
                {
                    "name": "C#4",
                    "midi": 61,
                    "time": 162.3000000000007,
                    "velocity": 0.28346456692913385,
                    "duration": 0.30000000000001137
                },
                {
                    "name": "C#5",
                    "midi": 73,
                    "time": 162.3000000000007,
                    "velocity": 0.28346456692913385,
                    "duration": 0.30000000000001137
                },
                {
                    "name": "D#5",
                    "midi": 75,
                    "time": 162.6000000000007,
                    "velocity": 0.29133858267716534,
                    "duration": 0.30000000000001137
                },
                {
                    "name": "D#4",
                    "midi": 63,
                    "time": 162.6000000000007,
                    "velocity": 0.29133858267716534,
                    "duration": 0.30000000000001137
                },
                {
                    "name": "G#4",
                    "midi": 68,
                    "time": 162.90000000000072,
                    "velocity": 0.29133858267716534,
                    "duration": 0.9000000000000057
                },
                {
                    "name": "G#5",
                    "midi": 80,
                    "time": 162.90000000000072,
                    "velocity": 0.29133858267716534,
                    "duration": 0.9000000000000057
                },
                {
                    "name": "F5",
                    "midi": 77,
                    "time": 162.90000000000072,
                    "velocity": 0.29133858267716534,
                    "duration": 0.9000000000000057
                },
                {
                    "name": "C#5",
                    "midi": 73,
                    "time": 163.80000000000072,
                    "velocity": 0.25984251968503935,
                    "duration": 0.9000000000000057
                },
                {
                    "name": "F5",
                    "midi": 77,
                    "time": 163.80000000000072,
                    "velocity": 0.25984251968503935,
                    "duration": 1.200000000000017
                },
                {
                    "name": "F4",
                    "midi": 65,
                    "time": 163.80000000000072,
                    "velocity": 0.25984251968503935,
                    "duration": 0.9000000000000057
                },
                {
                    "name": "F4",
                    "midi": 65,
                    "time": 165.00000000000074,
                    "velocity": 0.1968503937007874,
                    "duration": 2.400000000000034
                },
                {
                    "name": "A#4",
                    "midi": 70,
                    "time": 165.00000000000074,
                    "velocity": 0.1968503937007874,
                    "duration": 2.400000000000034
                },
                {
                    "name": "D#5",
                    "midi": 75,
                    "time": 165.00000000000074,
                    "velocity": 0.30708661417322836,
                    "duration": 0.30000000000001137
                },
                {
                    "name": "F5",
                    "midi": 77,
                    "time": 165.30000000000075,
                    "velocity": 0.2677165354330709,
                    "duration": 0.30000000000001137
                },
                {
                    "name": "D#5",
                    "midi": 75,
                    "time": 165.60000000000076,
                    "velocity": 0.2283464566929134,
                    "duration": 0.9000000000000057
                },
                {
                    "name": "C#5",
                    "midi": 73,
                    "time": 166.50000000000077,
                    "velocity": 0.2283464566929134,
                    "duration": 0.9000000000000057
                },
                {
                    "name": "C#4",
                    "midi": 61,
                    "time": 167.70000000000078,
                    "velocity": 0.29133858267716534,
                    "duration": 0.30000000000001137
                },
                {
                    "name": "G#3",
                    "midi": 56,
                    "time": 167.70000000000078,
                    "velocity": 0.25984251968503935,
                    "duration": 0.6000000000000227
                },
                {
                    "name": "D#4",
                    "midi": 63,
                    "time": 168.0000000000008,
                    "velocity": 0.31496062992125984,
                    "duration": 0.30000000000001137
                },
                {
                    "name": "F4",
                    "midi": 65,
                    "time": 168.3000000000008,
                    "velocity": 0.25984251968503935,
                    "duration": 0.9000000000000057
                },
                {
                    "name": "A#4",
                    "midi": 70,
                    "time": 168.3000000000008,
                    "velocity": 0.29133858267716534,
                    "duration": 0.9000000000000057
                },
                {
                    "name": "C#4",
                    "midi": 61,
                    "time": 168.3000000000008,
                    "velocity": 0.25984251968503935,
                    "duration": 0.9000000000000057
                },
                {
                    "name": "G#3",
                    "midi": 56,
                    "time": 169.2000000000008,
                    "velocity": 0.2125984251968504,
                    "duration": 0.9000000000000057
                },
                {
                    "name": "C#4",
                    "midi": 61,
                    "time": 169.2000000000008,
                    "velocity": 0.2125984251968504,
                    "duration": 0.9000000000000057
                },
                {
                    "name": "F4",
                    "midi": 65,
                    "time": 169.2000000000008,
                    "velocity": 0.2440944881889764,
                    "duration": 0.9000000000000057
                },
                {
                    "name": "A#3",
                    "midi": 58,
                    "time": 170.40000000000083,
                    "velocity": 0.25984251968503935,
                    "duration": 0.6000000000000227
                },
                {
                    "name": "C#4",
                    "midi": 61,
                    "time": 170.40000000000083,
                    "velocity": 0.25984251968503935,
                    "duration": 0.6000000000000227
                },
                {
                    "name": "F#4",
                    "midi": 66,
                    "time": 170.40000000000083,
                    "velocity": 0.29133858267716534,
                    "duration": 0.30000000000001137
                },
                {
                    "name": "G#4",
                    "midi": 68,
                    "time": 170.70000000000084,
                    "velocity": 0.31496062992125984,
                    "duration": 0.30000000000001137
                },
                {
                    "name": "F#4",
                    "midi": 66,
                    "time": 171.00000000000085,
                    "velocity": 0.2283464566929134,
                    "duration": 0.9000000000000057
                },
                {
                    "name": "A#4",
                    "midi": 70,
                    "time": 171.00000000000085,
                    "velocity": 0.2283464566929134,
                    "duration": 0.9000000000000057
                },
                {
                    "name": "C#5",
                    "midi": 73,
                    "time": 171.00000000000085,
                    "velocity": 0.25984251968503935,
                    "duration": 0.9000000000000057
                },
                {
                    "name": "A#4",
                    "midi": 70,
                    "time": 171.90000000000086,
                    "velocity": 0.2283464566929134,
                    "duration": 0.9000000000000057
                },
                {
                    "name": "C#4",
                    "midi": 61,
                    "time": 171.90000000000086,
                    "velocity": 0.2047244094488189,
                    "duration": 0.9000000000000057
                },
                {
                    "name": "F#4",
                    "midi": 66,
                    "time": 171.90000000000086,
                    "velocity": 0.2047244094488189,
                    "duration": 0.9000000000000057
                },
                {
                    "name": "C4",
                    "midi": 60,
                    "time": 173.10000000000088,
                    "velocity": 0.2755905511811024,
                    "duration": 0.6000000000000227
                },
                {
                    "name": "A#4",
                    "midi": 70,
                    "time": 173.10000000000088,
                    "velocity": 0.2755905511811024,
                    "duration": 0.30000000000001137
                },
                {
                    "name": "F#4",
                    "midi": 66,
                    "time": 173.10000000000088,
                    "velocity": 0.2755905511811024,
                    "duration": 0.6000000000000227
                },
                {
                    "name": "C5",
                    "midi": 72,
                    "time": 173.4000000000009,
                    "velocity": 0.29133858267716534,
                    "duration": 0.30000000000001137
                },
                {
                    "name": "C5",
                    "midi": 72,
                    "time": 173.7000000000009,
                    "velocity": 0.2283464566929134,
                    "duration": 0.9000000000000057
                },
                {
                    "name": "F5",
                    "midi": 77,
                    "time": 173.7000000000009,
                    "velocity": 0.2283464566929134,
                    "duration": 0.9000000000000057
                },
                {
                    "name": "G#4",
                    "midi": 68,
                    "time": 173.7000000000009,
                    "velocity": 0.1889763779527559,
                    "duration": 0.9000000000000057
                },
                {
                    "name": "C4",
                    "midi": 60,
                    "time": 174.6000000000009,
                    "velocity": 0.16535433070866143,
                    "duration": 0.9000000000000057
                },
                {
                    "name": "G#4",
                    "midi": 68,
                    "time": 174.6000000000009,
                    "velocity": 0.1968503937007874,
                    "duration": 0.9000000000000057
                },
                {
                    "name": "F#4",
                    "midi": 66,
                    "time": 174.6000000000009,
                    "velocity": 0.1968503937007874,
                    "duration": 0.9000000000000057
                },
                {
                    "name": "G#3",
                    "midi": 56,
                    "time": 176.1000000000009,
                    "velocity": 0.1968503937007874,
                    "duration": 0.15000000000000568
                },
                {
                    "name": "C#4",
                    "midi": 61,
                    "time": 176.2500000000009,
                    "velocity": 0.1968503937007874,
                    "duration": 0.15000000000000568
                },
                {
                    "name": "G#3",
                    "midi": 56,
                    "time": 176.8500000000009,
                    "velocity": 0.2047244094488189,
                    "duration": 0.15000000000000568
                },
                {
                    "name": "C4",
                    "midi": 60,
                    "time": 177.0000000000009,
                    "velocity": 0.2047244094488189,
                    "duration": 0.15000000000000568
                },
                {
                    "name": "F4",
                    "midi": 65,
                    "time": 177.15000000000092,
                    "velocity": 0.2047244094488189,
                    "duration": 0.15000000000000568
                },
                {
                    "name": "G#3",
                    "midi": 56,
                    "time": 177.90000000000092,
                    "velocity": 0.2204724409448819,
                    "duration": 0.15000000000000568
                },
                {
                    "name": "C#4",
                    "midi": 61,
                    "time": 178.05000000000092,
                    "velocity": 0.2047244094488189,
                    "duration": 0.15000000000000568
                },
                {
                    "name": "G#3",
                    "midi": 56,
                    "time": 178.65000000000092,
                    "velocity": 0.2125984251968504,
                    "duration": 0.15000000000000568
                },
                {
                    "name": "C4",
                    "midi": 60,
                    "time": 178.80000000000092,
                    "velocity": 0.2125984251968504,
                    "duration": 0.15000000000000568
                },
                {
                    "name": "F4",
                    "midi": 65,
                    "time": 178.95000000000093,
                    "velocity": 0.2125984251968504,
                    "duration": 0.15000000000000568
                },
                {
                    "name": "G#4",
                    "midi": 68,
                    "time": 179.10000000000093,
                    "velocity": 0.23622047244094488,
                    "duration": 0.9000000000000057
                },
                {
                    "name": "B4",
                    "midi": 71,
                    "time": 179.10000000000093,
                    "velocity": 0.25984251968503935,
                    "duration": 0.9000000000000057
                },
                {
                    "name": "C#5",
                    "midi": 73,
                    "time": 180.00000000000094,
                    "velocity": 0.2283464566929134,
                    "duration": 0.9000000000000057
                },
                {
                    "name": "E4",
                    "midi": 64,
                    "time": 180.00000000000094,
                    "velocity": 0.2125984251968504,
                    "duration": 0.9000000000000057
                },
                {
                    "name": "G#4",
                    "midi": 68,
                    "time": 181.50000000000094,
                    "velocity": 0.1968503937007874,
                    "duration": 0.15000000000000568
                },
                {
                    "name": "C#5",
                    "midi": 73,
                    "time": 181.65000000000094,
                    "velocity": 0.1968503937007874,
                    "duration": 0.15000000000000568
                },
                {
                    "name": "G#4",
                    "midi": 68,
                    "time": 182.25000000000094,
                    "velocity": 0.2047244094488189,
                    "duration": 0.15000000000000568
                },
                {
                    "name": "C5",
                    "midi": 72,
                    "time": 182.40000000000094,
                    "velocity": 0.2047244094488189,
                    "duration": 0.15000000000000568
                },
                {
                    "name": "F5",
                    "midi": 77,
                    "time": 182.55000000000095,
                    "velocity": 0.2047244094488189,
                    "duration": 0.15000000000000568
                },
                {
                    "name": "G#4",
                    "midi": 68,
                    "time": 183.30000000000095,
                    "velocity": 0.2204724409448819,
                    "duration": 0.15000000000000568
                },
                {
                    "name": "C#5",
                    "midi": 73,
                    "time": 183.45000000000095,
                    "velocity": 0.2047244094488189,
                    "duration": 0.15000000000000568
                },
                {
                    "name": "G#4",
                    "midi": 68,
                    "time": 184.05000000000095,
                    "velocity": 0.2125984251968504,
                    "duration": 0.15000000000000568
                },
                {
                    "name": "C5",
                    "midi": 72,
                    "time": 184.20000000000095,
                    "velocity": 0.2125984251968504,
                    "duration": 0.15000000000000568
                },
                {
                    "name": "F5",
                    "midi": 77,
                    "time": 184.35000000000096,
                    "velocity": 0.2125984251968504,
                    "duration": 0.15000000000000568
                },
                {
                    "name": "B5",
                    "midi": 83,
                    "time": 184.50000000000097,
                    "velocity": 0.25984251968503935,
                    "duration": 0.9000000000000057
                },
                {
                    "name": "G#5",
                    "midi": 80,
                    "time": 184.50000000000097,
                    "velocity": 0.23622047244094488,
                    "duration": 1.8000000000000114
                },
                {
                    "name": "C#6",
                    "midi": 85,
                    "time": 185.40000000000097,
                    "velocity": 0.2677165354330709,
                    "duration": 0.9000000000000057
                },
                {
                    "name": "B5",
                    "midi": 83,
                    "time": 186.30000000000098,
                    "velocity": 0.25984251968503935,
                    "duration": 0.9000000000000057
                },
                {
                    "name": "G#5",
                    "midi": 80,
                    "time": 186.30000000000098,
                    "velocity": 0.23622047244094488,
                    "duration": 2.700000000000017
                },
                {
                    "name": "C#6",
                    "midi": 85,
                    "time": 187.20000000000098,
                    "velocity": 0.2677165354330709,
                    "duration": 0.9000000000000057
                },
                {
                    "name": "E6",
                    "midi": 88,
                    "time": 188.100000000001,
                    "velocity": 0.29133858267716534,
                    "duration": 0.9000000000000057
                },
                {
                    "name": "F6",
                    "midi": 89,
                    "time": 189.000000000001,
                    "velocity": 0.29133858267716534,
                    "duration": 2.69999999999996
                },
                {
                    "name": "G#6",
                    "midi": 92,
                    "time": 189.000000000001,
                    "velocity": 0.31496062992125984,
                    "duration": 2.69999999999996
                },
                {
                    "name": "G#5",
                    "midi": 80,
                    "time": 191.662500000001,
                    "velocity": 0.1889763779527559,
                    "duration": 1.8374999999999773
                },
                {
                    "name": "C#6",
                    "midi": 85,
                    "time": 191.67500000000098,
                    "velocity": 0.2047244094488189,
                    "duration": 1.8249999999999886
                },
                {
                    "name": "F6",
                    "midi": 89,
                    "time": 191.68750000000097,
                    "velocity": 0.2204724409448819,
                    "duration": 1.8125
                },
                {
                    "name": "G#6",
                    "midi": 92,
                    "time": 191.70000000000095,
                    "velocity": 0.2677165354330709,
                    "duration": 1.8000000000000114
                }
            ],
            "controlChanges": {
                "7": [
                    {
                        "number": 7,
                        "time": 0,
                        "value": 0.7874015748031497
                    }
                ],
                "10": [
                    {
                        "number": 10,
                        "time": 0,
                        "value": 0.5039370078740157
                    }
                ],
                "64": [
                    {
                        "number": 64,
                        "time": 0,
                        "value": 0
                    }
                ],
                "91": [
                    {
                        "number": 91,
                        "time": 0,
                        "value": 1
                    },
                    {
                        "number": 91,
                        "time": 0,
                        "value": 1
                    },
                    {
                        "number": 91,
                        "time": 135.00000000000028,
                        "value": 1
                    }
                ]
            },
            "id": 1,
            "name": "Piano right",
            "instrumentNumber": 0,
            "instrument": "acoustic grand piano",
            "instrumentFamily": "piano",
            "channelNumber": 0,
            "isPercussion": false
        },
        {
            "startTime": 0.3,
            "duration": 193.50000000000173,
            "length": 779,
            "notes": [
                {
                    "name": "F4",
                    "midi": 65,
                    "time": 0.3,
                    "velocity": 0.28346456692913385,
                    "duration": 2.4
                },
                {
                    "name": "G#4",
                    "midi": 68,
                    "time": 0.3,
                    "velocity": 0.33858267716535434,
                    "duration": 2.4
                },
                {
                    "name": "A4",
                    "midi": 69,
                    "time": 2.6999999999999997,
                    "velocity": 0.28346456692913385,
                    "duration": 2.6999999999999997
                },
                {
                    "name": "F#4",
                    "midi": 66,
                    "time": 2.6999999999999997,
                    "velocity": 0.23622047244094488,
                    "duration": 2.6999999999999997
                },
                {
                    "name": "F4",
                    "midi": 65,
                    "time": 5.3999999999999995,
                    "velocity": 0.25984251968503935,
                    "duration": 2.7
                },
                {
                    "name": "G#4",
                    "midi": 68,
                    "time": 5.3999999999999995,
                    "velocity": 0.30708661417322836,
                    "duration": 2.7
                },
                {
                    "name": "D#4",
                    "midi": 63,
                    "time": 8.1,
                    "velocity": 0.25196850393700787,
                    "duration": 2.6999999999999993
                },
                {
                    "name": "F#4",
                    "midi": 66,
                    "time": 8.1,
                    "velocity": 0.2992125984251969,
                    "duration": 2.6949999999999985
                },
                {
                    "name": "D#4",
                    "midi": 63,
                    "time": 10.799999999999999,
                    "velocity": 0.29133858267716534,
                    "duration": 1.799999999999999
                },
                {
                    "name": "C#4",
                    "midi": 61,
                    "time": 10.799999999999999,
                    "velocity": 0.2440944881889764,
                    "duration": 1.799999999999999
                },
                {
                    "name": "C4",
                    "midi": 60,
                    "time": 12.599999999999998,
                    "velocity": 0.2204724409448819,
                    "duration": 0.9000000000000004
                },
                {
                    "name": "D#4",
                    "midi": 63,
                    "time": 12.599999999999998,
                    "velocity": 0.25984251968503935,
                    "duration": 0.8975000000000009
                },
                {
                    "name": "A#3",
                    "midi": 58,
                    "time": 13.499999999999998,
                    "velocity": 0.23622047244094488,
                    "duration": 1.799999999999999
                },
                {
                    "name": "C#4",
                    "midi": 61,
                    "time": 13.499999999999998,
                    "velocity": 0.25984251968503935,
                    "duration": 1.799999999999999
                },
                {
                    "name": "A3",
                    "midi": 57,
                    "time": 15.299999999999997,
                    "velocity": 0.2204724409448819,
                    "duration": 0.8999999999999986
                },
                {
                    "name": "C4",
                    "midi": 60,
                    "time": 15.299999999999997,
                    "velocity": 0.25984251968503935,
                    "duration": 0.8999999999999986
                },
                {
                    "name": "G#3",
                    "midi": 56,
                    "time": 16.199999999999996,
                    "velocity": 0.2204724409448819,
                    "duration": 1.8000000000000007
                },
                {
                    "name": "A#3",
                    "midi": 58,
                    "time": 16.199999999999996,
                    "velocity": 0.25984251968503935,
                    "duration": 2.6975000000000016
                },
                {
                    "name": "F#3",
                    "midi": 54,
                    "time": 17.999999999999996,
                    "velocity": 0.2992125984251969,
                    "duration": 0.9000000000000021
                },
                {
                    "name": "F3",
                    "midi": 53,
                    "time": 18.9,
                    "velocity": 0.2047244094488189,
                    "duration": 1.8000000000000007
                },
                {
                    "name": "G#3",
                    "midi": 56,
                    "time": 18.9,
                    "velocity": 0.2440944881889764,
                    "duration": 0.8975000000000009
                },
                {
                    "name": "D#3",
                    "midi": 51,
                    "time": 20.7,
                    "velocity": 0.18110236220472442,
                    "duration": 0.4499999999999993
                },
                {
                    "name": "F#3",
                    "midi": 54,
                    "time": 20.7,
                    "velocity": 0.2204724409448819,
                    "duration": 0.8999999999999986
                },
                {
                    "name": "G#2",
                    "midi": 44,
                    "time": 21.15,
                    "velocity": 0.2204724409448819,
                    "duration": 0.75
                },
                {
                    "name": "C#2",
                    "midi": 37,
                    "time": 21.599999999999998,
                    "velocity": 0.23622047244094488,
                    "duration": 0.3000000000000007
                },
                {
                    "name": "F4",
                    "midi": 65,
                    "time": 22.2,
                    "velocity": 0.23622047244094488,
                    "duration": 2.1000000000000014
                },
                {
                    "name": "G#4",
                    "midi": 68,
                    "time": 22.2,
                    "velocity": 0.28346456692913385,
                    "duration": 2.1000000000000014
                },
                {
                    "name": "F#2",
                    "midi": 42,
                    "time": 24.3,
                    "velocity": 0.2204724409448819,
                    "duration": 1.8000000000000007
                },
                {
                    "name": "C#3",
                    "midi": 49,
                    "time": 24.3,
                    "velocity": 0.25984251968503935,
                    "duration": 1.8000000000000007
                },
                {
                    "name": "C#4",
                    "midi": 61,
                    "time": 24.6,
                    "velocity": 0.2125984251968504,
                    "duration": 2.3999999999999986
                },
                {
                    "name": "A#3",
                    "midi": 58,
                    "time": 24.6,
                    "velocity": 0.1732283464566929,
                    "duration": 2.3999999999999986
                },
                {
                    "name": "F#3",
                    "midi": 54,
                    "time": 24.6,
                    "velocity": 0.1732283464566929,
                    "duration": 2.3999999999999986
                },
                {
                    "name": "C#3",
                    "midi": 49,
                    "time": 24.6,
                    "velocity": 0.1732283464566929,
                    "duration": 2.3999999999999986
                },
                {
                    "name": "F2",
                    "midi": 41,
                    "time": 27,
                    "velocity": 0.23622047244094488,
                    "duration": 1.8000000000000007
                },
                {
                    "name": "C#3",
                    "midi": 49,
                    "time": 27,
                    "velocity": 0.28346456692913385,
                    "duration": 1.8000000000000007
                },
                {
                    "name": "F3",
                    "midi": 53,
                    "time": 27.3,
                    "velocity": 0.2204724409448819,
                    "duration": 0.6000000000000014
                },
                {
                    "name": "G#3",
                    "midi": 56,
                    "time": 27.3,
                    "velocity": 0.25984251968503935,
                    "duration": 0.6000000000000014
                },
                {
                    "name": "F4",
                    "midi": 65,
                    "time": 27.900000000000002,
                    "velocity": 0.25984251968503935,
                    "duration": 0.8974999999999973
                },
                {
                    "name": "C#4",
                    "midi": 61,
                    "time": 27.900000000000002,
                    "velocity": 0.2204724409448819,
                    "duration": 0.8999999999999986
                },
                {
                    "name": "G#3",
                    "midi": 56,
                    "time": 28.8,
                    "velocity": 0.2125984251968504,
                    "duration": 0.8999999999999986
                },
                {
                    "name": "C#4",
                    "midi": 61,
                    "time": 28.8,
                    "velocity": 0.25196850393700787,
                    "duration": 0.8999999999999986
                },
                {
                    "name": "F#2",
                    "midi": 42,
                    "time": 29.7,
                    "velocity": 0.2204724409448819,
                    "duration": 1.7999999999999936
                },
                {
                    "name": "C#3",
                    "midi": 49,
                    "time": 29.7,
                    "velocity": 0.25984251968503935,
                    "duration": 1.7999999999999936
                },
                {
                    "name": "C#4",
                    "midi": 61,
                    "time": 29.999999999999996,
                    "velocity": 0.2125984251968504,
                    "duration": 2.399999999999995
                },
                {
                    "name": "A#3",
                    "midi": 58,
                    "time": 29.999999999999996,
                    "velocity": 0.1732283464566929,
                    "duration": 2.399999999999995
                },
                {
                    "name": "F#3",
                    "midi": 54,
                    "time": 29.999999999999996,
                    "velocity": 0.1732283464566929,
                    "duration": 2.399999999999995
                },
                {
                    "name": "C#3",
                    "midi": 49,
                    "time": 29.999999999999996,
                    "velocity": 0.1732283464566929,
                    "duration": 2.399999999999995
                },
                {
                    "name": "G#2",
                    "midi": 44,
                    "time": 32.39999999999999,
                    "velocity": 0.28346456692913385,
                    "duration": 2.700000000000003
                },
                {
                    "name": "F3",
                    "midi": 53,
                    "time": 32.69999999999999,
                    "velocity": 0.2204724409448819,
                    "duration": 0.6000000000000014
                },
                {
                    "name": "B3",
                    "midi": 59,
                    "time": 32.69999999999999,
                    "velocity": 0.25984251968503935,
                    "duration": 0.6000000000000014
                },
                {
                    "name": "F4",
                    "midi": 65,
                    "time": 33.29999999999999,
                    "velocity": 0.25984251968503935,
                    "duration": 1.2000000000000028
                },
                {
                    "name": "C#4",
                    "midi": 61,
                    "time": 33.29999999999999,
                    "velocity": 0.2204724409448819,
                    "duration": 1.2000000000000028
                },
                {
                    "name": "B3",
                    "midi": 59,
                    "time": 33.29999999999999,
                    "velocity": 0.2204724409448819,
                    "duration": 1.2000000000000028
                },
                {
                    "name": "A#2",
                    "midi": 46,
                    "time": 35.099999999999994,
                    "velocity": 0.30708661417322836,
                    "duration": 1.7999999999999972
                },
                {
                    "name": "D#4",
                    "midi": 63,
                    "time": 35.4,
                    "velocity": 0.31496062992125984,
                    "duration": 1.0499999999999972
                },
                {
                    "name": "F3",
                    "midi": 53,
                    "time": 35.4,
                    "velocity": 0.25196850393700787,
                    "duration": 2.3999999999999915
                },
                {
                    "name": "A#3",
                    "midi": 58,
                    "time": 35.4,
                    "velocity": 0.25196850393700787,
                    "duration": 2.3999999999999915
                },
                {
                    "name": "C#4",
                    "midi": 61,
                    "time": 36.449999999999996,
                    "velocity": 0.29133858267716534,
                    "duration": 1.3499999999999943
                },
                {
                    "name": "D#1",
                    "midi": 27,
                    "time": 37.79999999999999,
                    "velocity": 0.23622047244094488,
                    "duration": 1.7999999999999972
                },
                {
                    "name": "D#2",
                    "midi": 39,
                    "time": 37.79999999999999,
                    "velocity": 0.28346456692913385,
                    "duration": 1.7999999999999972
                },
                {
                    "name": "A#4",
                    "midi": 70,
                    "time": 38.24999999999999,
                    "velocity": 0.25196850393700787,
                    "duration": 1.0499999999999972
                },
                {
                    "name": "F#4",
                    "midi": 66,
                    "time": 38.24999999999999,
                    "velocity": 0.25196850393700787,
                    "duration": 1.0499999999999972
                },
                {
                    "name": "F4",
                    "midi": 65,
                    "time": 38.24999999999999,
                    "velocity": 0.25196850393700787,
                    "duration": 1.3499999999999943
                },
                {
                    "name": "D#4",
                    "midi": 63,
                    "time": 38.99999999999999,
                    "velocity": 0.2440944881889764,
                    "duration": 0.29999999999999716
                },
                {
                    "name": "F#4",
                    "midi": 66,
                    "time": 38.99999999999999,
                    "velocity": 0.2440944881889764,
                    "duration": 0.5749999999999957
                },
                {
                    "name": "A#4",
                    "midi": 70,
                    "time": 38.99999999999999,
                    "velocity": 0.2440944881889764,
                    "duration": 0.5749999999999957
                },
                {
                    "name": "D#4",
                    "midi": 63,
                    "time": 39.29999999999999,
                    "velocity": 0.2440944881889764,
                    "duration": 0.2749999999999986
                },
                {
                    "name": "F#4",
                    "midi": 66,
                    "time": 39.29999999999999,
                    "velocity": 0.2440944881889764,
                    "duration": 0.29999999999999716
                },
                {
                    "name": "A#4",
                    "midi": 70,
                    "time": 39.29999999999999,
                    "velocity": 0.2440944881889764,
                    "duration": 0.29999999999999716
                },
                {
                    "name": "D#4",
                    "midi": 63,
                    "time": 39.59999999999999,
                    "velocity": 0.25196850393700787,
                    "duration": 0.29999999999999716
                },
                {
                    "name": "F#4",
                    "midi": 66,
                    "time": 39.59999999999999,
                    "velocity": 0.25196850393700787,
                    "duration": 0.29999999999999716
                },
                {
                    "name": "A#4",
                    "midi": 70,
                    "time": 39.59999999999999,
                    "velocity": 0.25196850393700787,
                    "duration": 0.29999999999999716
                },
                {
                    "name": "C#4",
                    "midi": 61,
                    "time": 39.899999999999984,
                    "velocity": 0.2440944881889764,
                    "duration": 0.29999999999999716
                },
                {
                    "name": "F#4",
                    "midi": 66,
                    "time": 39.899999999999984,
                    "velocity": 0.2440944881889764,
                    "duration": 0.29999999999999716
                },
                {
                    "name": "A#4",
                    "midi": 70,
                    "time": 39.899999999999984,
                    "velocity": 0.2440944881889764,
                    "duration": 0.29999999999999716
                },
                {
                    "name": "C#4",
                    "midi": 61,
                    "time": 40.19999999999998,
                    "velocity": 0.2440944881889764,
                    "duration": 0.2749999999999986
                },
                {
                    "name": "F#4",
                    "midi": 66,
                    "time": 40.19999999999998,
                    "velocity": 0.2440944881889764,
                    "duration": 0.2749999999999986
                },
                {
                    "name": "A#4",
                    "midi": 70,
                    "time": 40.19999999999998,
                    "velocity": 0.2440944881889764,
                    "duration": 0.2749999999999986
                },
                {
                    "name": "C#4",
                    "midi": 61,
                    "time": 40.49999999999998,
                    "velocity": 0.2677165354330709,
                    "duration": 0.29999999999999716
                },
                {
                    "name": "F#4",
                    "midi": 66,
                    "time": 40.49999999999998,
                    "velocity": 0.2677165354330709,
                    "duration": 0.29999999999999716
                },
                {
                    "name": "A#4",
                    "midi": 70,
                    "time": 40.49999999999998,
                    "velocity": 0.2677165354330709,
                    "duration": 0.29999999999999716
                },
                {
                    "name": "C4",
                    "midi": 60,
                    "time": 40.799999999999976,
                    "velocity": 0.25196850393700787,
                    "duration": 0.29999999999999716
                },
                {
                    "name": "F#4",
                    "midi": 66,
                    "time": 40.799999999999976,
                    "velocity": 0.25196850393700787,
                    "duration": 0.29999999999999716
                },
                {
                    "name": "A#4",
                    "midi": 70,
                    "time": 40.799999999999976,
                    "velocity": 0.25196850393700787,
                    "duration": 0.29999999999999716
                },
                {
                    "name": "C4",
                    "midi": 60,
                    "time": 41.09999999999997,
                    "velocity": 0.25196850393700787,
                    "duration": 0.2749999999999986
                },
                {
                    "name": "F#4",
                    "midi": 66,
                    "time": 41.09999999999997,
                    "velocity": 0.25196850393700787,
                    "duration": 0.2749999999999986
                },
                {
                    "name": "A#4",
                    "midi": 70,
                    "time": 41.09999999999997,
                    "velocity": 0.25196850393700787,
                    "duration": 0.2749999999999986
                },
                {
                    "name": "C4",
                    "midi": 60,
                    "time": 41.39999999999997,
                    "velocity": 0.2440944881889764,
                    "duration": 0.45000000000000284
                },
                {
                    "name": "F#4",
                    "midi": 66,
                    "time": 41.39999999999997,
                    "velocity": 0.2440944881889764,
                    "duration": 0.45000000000000284
                },
                {
                    "name": "A#4",
                    "midi": 70,
                    "time": 41.39999999999997,
                    "velocity": 0.2440944881889764,
                    "duration": 0.45000000000000284
                },
                {
                    "name": "C#4",
                    "midi": 61,
                    "time": 41.84999999999997,
                    "velocity": 0.23622047244094488,
                    "duration": 0.45000000000000284
                },
                {
                    "name": "F#4",
                    "midi": 66,
                    "time": 41.84999999999997,
                    "velocity": 0.23622047244094488,
                    "duration": 0.45000000000000284
                },
                {
                    "name": "A#4",
                    "midi": 70,
                    "time": 41.84999999999997,
                    "velocity": 0.23622047244094488,
                    "duration": 0.45000000000000284
                },
                {
                    "name": "A#3",
                    "midi": 58,
                    "time": 42.299999999999976,
                    "velocity": 0.2204724409448819,
                    "duration": 0.8999999999999986
                },
                {
                    "name": "C#4",
                    "midi": 61,
                    "time": 42.299999999999976,
                    "velocity": 0.2204724409448819,
                    "duration": 0.8999999999999986
                },
                {
                    "name": "F#4",
                    "midi": 66,
                    "time": 42.299999999999976,
                    "velocity": 0.2204724409448819,
                    "duration": 0.8999999999999986
                },
                {
                    "name": "A#2",
                    "midi": 46,
                    "time": 43.199999999999974,
                    "velocity": 0.28346456692913385,
                    "duration": 1.79999999999999
                },
                {
                    "name": "D#1",
                    "midi": 27,
                    "time": 43.199999999999974,
                    "velocity": 0.23622047244094488,
                    "duration": 1.79999999999999
                },
                {
                    "name": "D#2",
                    "midi": 39,
                    "time": 43.199999999999974,
                    "velocity": 0.23622047244094488,
                    "duration": 1.79999999999999
                },
                {
                    "name": "A#4",
                    "midi": 70,
                    "time": 43.64999999999997,
                    "velocity": 0.2677165354330709,
                    "duration": 1.0499999999999972
                },
                {
                    "name": "F#4",
                    "midi": 66,
                    "time": 43.64999999999997,
                    "velocity": 0.2677165354330709,
                    "duration": 1.0499999999999972
                },
                {
                    "name": "F4",
                    "midi": 65,
                    "time": 43.64999999999997,
                    "velocity": 0.2677165354330709,
                    "duration": 1.3249999999999957
                },
                {
                    "name": "F#4",
                    "midi": 66,
                    "time": 44.39999999999997,
                    "velocity": 0.2677165354330709,
                    "duration": 0.5749999999999957
                },
                {
                    "name": "D#5",
                    "midi": 75,
                    "time": 44.39999999999997,
                    "velocity": 0.2677165354330709,
                    "duration": 0.29999999999999716
                },
                {
                    "name": "A#4",
                    "midi": 70,
                    "time": 44.39999999999997,
                    "velocity": 0.2677165354330709,
                    "duration": 0.5749999999999957
                },
                {
                    "name": "F4",
                    "midi": 65,
                    "time": 44.69999999999997,
                    "velocity": 0.25196850393700787,
                    "duration": 0.29999999999999716
                },
                {
                    "name": "F#4",
                    "midi": 66,
                    "time": 44.69999999999997,
                    "velocity": 0.25196850393700787,
                    "duration": 0.29999999999999716
                },
                {
                    "name": "A#4",
                    "midi": 70,
                    "time": 44.69999999999997,
                    "velocity": 0.25196850393700787,
                    "duration": 0.29999999999999716
                },
                {
                    "name": "D#4",
                    "midi": 63,
                    "time": 44.999999999999964,
                    "velocity": 0.25984251968503935,
                    "duration": 0.2749999999999986
                },
                {
                    "name": "F#4",
                    "midi": 66,
                    "time": 44.999999999999964,
                    "velocity": 0.25984251968503935,
                    "duration": 0.2749999999999986
                },
                {
                    "name": "A#4",
                    "midi": 70,
                    "time": 44.999999999999964,
                    "velocity": 0.25984251968503935,
                    "duration": 0.2749999999999986
                },
                {
                    "name": "F4",
                    "midi": 65,
                    "time": 45.29999999999996,
                    "velocity": 0.25196850393700787,
                    "duration": 0.29999999999999716
                },
                {
                    "name": "F#4",
                    "midi": 66,
                    "time": 45.29999999999996,
                    "velocity": 0.25196850393700787,
                    "duration": 0.29999999999999716
                },
                {
                    "name": "A#4",
                    "midi": 70,
                    "time": 45.29999999999996,
                    "velocity": 0.25196850393700787,
                    "duration": 0.29999999999999716
                },
                {
                    "name": "D#4",
                    "midi": 63,
                    "time": 45.59999999999996,
                    "velocity": 0.25196850393700787,
                    "duration": 0.29999999999999716
                },
                {
                    "name": "F#4",
                    "midi": 66,
                    "time": 45.59999999999996,
                    "velocity": 0.25196850393700787,
                    "duration": 0.29999999999999716
                },
                {
                    "name": "A#4",
                    "midi": 70,
                    "time": 45.59999999999996,
                    "velocity": 0.25196850393700787,
                    "duration": 0.29999999999999716
                },
                {
                    "name": "C#4",
                    "midi": 61,
                    "time": 45.899999999999956,
                    "velocity": 0.2755905511811024,
                    "duration": 0.2749999999999986
                },
                {
                    "name": "F#4",
                    "midi": 66,
                    "time": 45.899999999999956,
                    "velocity": 0.2755905511811024,
                    "duration": 0.2749999999999986
                },
                {
                    "name": "A#4",
                    "midi": 70,
                    "time": 45.899999999999956,
                    "velocity": 0.2755905511811024,
                    "duration": 0.2749999999999986
                },
                {
                    "name": "D#4",
                    "midi": 63,
                    "time": 46.19999999999995,
                    "velocity": 0.25984251968503935,
                    "duration": 0.29999999999999716
                },
                {
                    "name": "F#4",
                    "midi": 66,
                    "time": 46.19999999999995,
                    "velocity": 0.25984251968503935,
                    "duration": 0.29999999999999716
                },
                {
                    "name": "A#4",
                    "midi": 70,
                    "time": 46.19999999999995,
                    "velocity": 0.25984251968503935,
                    "duration": 0.29999999999999716
                },
                {
                    "name": "C#4",
                    "midi": 61,
                    "time": 46.49999999999995,
                    "velocity": 0.25984251968503935,
                    "duration": 0.2749999999999986
                },
                {
                    "name": "F#4",
                    "midi": 66,
                    "time": 46.49999999999995,
                    "velocity": 0.25984251968503935,
                    "duration": 0.2749999999999986
                },
                {
                    "name": "A#4",
                    "midi": 70,
                    "time": 46.49999999999995,
                    "velocity": 0.25984251968503935,
                    "duration": 0.2749999999999986
                },
                {
                    "name": "C4",
                    "midi": 60,
                    "time": 46.79999999999995,
                    "velocity": 0.25196850393700787,
                    "duration": 0.45000000000000284
                },
                {
                    "name": "F#4",
                    "midi": 66,
                    "time": 46.79999999999995,
                    "velocity": 0.25196850393700787,
                    "duration": 0.45000000000000284
                },
                {
                    "name": "A#4",
                    "midi": 70,
                    "time": 46.79999999999995,
                    "velocity": 0.25196850393700787,
                    "duration": 0.45000000000000284
                },
                {
                    "name": "C#4",
                    "midi": 61,
                    "time": 47.24999999999995,
                    "velocity": 0.2440944881889764,
                    "duration": 0.45000000000000284
                },
                {
                    "name": "F#4",
                    "midi": 66,
                    "time": 47.24999999999995,
                    "velocity": 0.2440944881889764,
                    "duration": 0.45000000000000284
                },
                {
                    "name": "A#4",
                    "midi": 70,
                    "time": 47.24999999999995,
                    "velocity": 0.2440944881889764,
                    "duration": 0.45000000000000284
                },
                {
                    "name": "A#3",
                    "midi": 58,
                    "time": 47.69999999999995,
                    "velocity": 0.23622047244094488,
                    "duration": 0.8999999999999986
                },
                {
                    "name": "D#4",
                    "midi": 63,
                    "time": 47.69999999999995,
                    "velocity": 0.23622047244094488,
                    "duration": 0.8999999999999986
                },
                {
                    "name": "F#4",
                    "midi": 66,
                    "time": 47.69999999999995,
                    "velocity": 0.23622047244094488,
                    "duration": 0.8999999999999986
                },
                {
                    "name": "G#1",
                    "midi": 32,
                    "time": 48.59999999999995,
                    "velocity": 0.2755905511811024,
                    "duration": 1.8000000000000114
                },
                {
                    "name": "G#2",
                    "midi": 44,
                    "time": 48.59999999999995,
                    "velocity": 0.33070866141732286,
                    "duration": 1.8000000000000114
                },
                {
                    "name": "F#3",
                    "midi": 54,
                    "time": 49.049999999999955,
                    "velocity": 0.3779527559055118,
                    "duration": 0.45000000000000284
                },
                {
                    "name": "D#4",
                    "midi": 63,
                    "time": 49.49999999999996,
                    "velocity": 0.30708661417322836,
                    "duration": 0.9000000000000057
                },
                {
                    "name": "C4",
                    "midi": 60,
                    "time": 49.49999999999996,
                    "velocity": 0.25984251968503935,
                    "duration": 0.9000000000000057
                },
                {
                    "name": "G#3",
                    "midi": 56,
                    "time": 49.49999999999996,
                    "velocity": 0.2992125984251969,
                    "duration": 0.45000000000000284
                },
                {
                    "name": "C4",
                    "midi": 60,
                    "time": 49.94999999999996,
                    "velocity": 0.3937007874015748,
                    "duration": 0.45000000000000284
                },
                {
                    "name": "F#4",
                    "midi": 66,
                    "time": 50.39999999999996,
                    "velocity": 0.31496062992125984,
                    "duration": 0.8999999999999986
                },
                {
                    "name": "D#4",
                    "midi": 63,
                    "time": 50.39999999999996,
                    "velocity": 0.2677165354330709,
                    "duration": 0.8999999999999986
                },
                {
                    "name": "A#3",
                    "midi": 58,
                    "time": 50.39999999999996,
                    "velocity": 0.30708661417322836,
                    "duration": 0.44999999999999574
                },
                {
                    "name": "F#3",
                    "midi": 54,
                    "time": 50.84999999999996,
                    "velocity": 0.3464566929133858,
                    "duration": 0.45000000000000284
                },
                {
                    "name": "A1",
                    "midi": 33,
                    "time": 51.29999999999996,
                    "velocity": 0.2755905511811024,
                    "duration": 1.79999999999999
                },
                {
                    "name": "A2",
                    "midi": 45,
                    "time": 51.29999999999996,
                    "velocity": 0.33070866141732286,
                    "duration": 1.79999999999999
                },
                {
                    "name": "D#4",
                    "midi": 63,
                    "time": 51.59999999999996,
                    "velocity": 0.23622047244094488,
                    "duration": 0.29999999999999716
                },
                {
                    "name": "C4",
                    "midi": 60,
                    "time": 51.59999999999996,
                    "velocity": 0.23622047244094488,
                    "duration": 0.29999999999999716
                },
                {
                    "name": "F#3",
                    "midi": 54,
                    "time": 51.59999999999996,
                    "velocity": 0.23622047244094488,
                    "duration": 0.29999999999999716
                },
                {
                    "name": "D#4",
                    "midi": 63,
                    "time": 51.899999999999956,
                    "velocity": 0.23622047244094488,
                    "duration": 0.2875000000000014
                },
                {
                    "name": "C4",
                    "midi": 60,
                    "time": 51.899999999999956,
                    "velocity": 0.23622047244094488,
                    "duration": 0.2875000000000014
                },
                {
                    "name": "F#3",
                    "midi": 54,
                    "time": 51.899999999999956,
                    "velocity": 0.23622047244094488,
                    "duration": 0.2875000000000014
                },
                {
                    "name": "D#4",
                    "midi": 63,
                    "time": 52.19999999999996,
                    "velocity": 0.25984251968503935,
                    "duration": 0.29999999999999716
                },
                {
                    "name": "C4",
                    "midi": 60,
                    "time": 52.19999999999996,
                    "velocity": 0.25984251968503935,
                    "duration": 0.29999999999999716
                },
                {
                    "name": "F#3",
                    "midi": 54,
                    "time": 52.19999999999996,
                    "velocity": 0.25984251968503935,
                    "duration": 0.29999999999999716
                },
                {
                    "name": "D#4",
                    "midi": 63,
                    "time": 52.49999999999996,
                    "velocity": 0.2440944881889764,
                    "duration": 0.2749999999999986
                },
                {
                    "name": "C4",
                    "midi": 60,
                    "time": 52.49999999999996,
                    "velocity": 0.2440944881889764,
                    "duration": 0.2749999999999986
                },
                {
                    "name": "F#3",
                    "midi": 54,
                    "time": 52.49999999999996,
                    "velocity": 0.2440944881889764,
                    "duration": 0.2749999999999986
                },
                {
                    "name": "G#3",
                    "midi": 56,
                    "time": 52.799999999999955,
                    "velocity": 0.2677165354330709,
                    "duration": 0.29999999999999716
                },
                {
                    "name": "C4",
                    "midi": 60,
                    "time": 52.799999999999955,
                    "velocity": 0.2677165354330709,
                    "duration": 0.29999999999999716
                },
                {
                    "name": "D#4",
                    "midi": 63,
                    "time": 52.799999999999955,
                    "velocity": 0.2677165354330709,
                    "duration": 0.29999999999999716
                },
                {
                    "name": "F#3",
                    "midi": 54,
                    "time": 53.09999999999995,
                    "velocity": 0.25984251968503935,
                    "duration": 0.8999999999999986
                },
                {
                    "name": "C4",
                    "midi": 60,
                    "time": 53.09999999999995,
                    "velocity": 0.25984251968503935,
                    "duration": 0.8999999999999986
                },
                {
                    "name": "D#4",
                    "midi": 63,
                    "time": 53.09999999999995,
                    "velocity": 0.25984251968503935,
                    "duration": 0.8999999999999986
                },
                {
                    "name": "A#1",
                    "midi": 34,
                    "time": 53.99999999999995,
                    "velocity": 0.30708661417322836,
                    "duration": 1.8000000000000114
                },
                {
                    "name": "A#2",
                    "midi": 46,
                    "time": 53.99999999999995,
                    "velocity": 0.36220472440944884,
                    "duration": 1.8000000000000114
                },
                {
                    "name": "C#4",
                    "midi": 61,
                    "time": 54.44999999999995,
                    "velocity": 0.2992125984251969,
                    "duration": 0.9000000000000057
                },
                {
                    "name": "A#3",
                    "midi": 58,
                    "time": 54.44999999999995,
                    "velocity": 0.2992125984251969,
                    "duration": 0.9000000000000057
                },
                {
                    "name": "F#3",
                    "midi": 54,
                    "time": 54.44999999999995,
                    "velocity": 0.31496062992125984,
                    "duration": 0.45000000000000284
                },
                {
                    "name": "G#3",
                    "midi": 56,
                    "time": 54.899999999999956,
                    "velocity": 0.3543307086614173,
                    "duration": 0.45000000000000284
                },
                {
                    "name": "C#4",
                    "midi": 61,
                    "time": 55.34999999999996,
                    "velocity": 0.3464566929133858,
                    "duration": 0.45000000000000284
                },
                {
                    "name": "F#4",
                    "midi": 66,
                    "time": 55.79999999999996,
                    "velocity": 0.33858267716535434,
                    "duration": 0.9000000000000057
                },
                {
                    "name": "C#4",
                    "midi": 61,
                    "time": 55.79999999999996,
                    "velocity": 0.33858267716535434,
                    "duration": 0.9000000000000057
                },
                {
                    "name": "A#3",
                    "midi": 58,
                    "time": 55.79999999999996,
                    "velocity": 0.33858267716535434,
                    "duration": 0.45000000000000284
                },
                {
                    "name": "F#3",
                    "midi": 54,
                    "time": 56.249999999999964,
                    "velocity": 0.3228346456692913,
                    "duration": 0.45000000000000284
                },
                {
                    "name": "C2",
                    "midi": 36,
                    "time": 56.69999999999997,
                    "velocity": 0.2992125984251969,
                    "duration": 1.79999999999999
                },
                {
                    "name": "C3",
                    "midi": 48,
                    "time": 56.69999999999997,
                    "velocity": 0.3543307086614173,
                    "duration": 1.79999999999999
                },
                {
                    "name": "D#4",
                    "midi": 63,
                    "time": 56.999999999999964,
                    "velocity": 0.25984251968503935,
                    "duration": 0.29999999999999716
                },
                {
                    "name": "A#3",
                    "midi": 58,
                    "time": 56.999999999999964,
                    "velocity": 0.25984251968503935,
                    "duration": 0.29999999999999716
                },
                {
                    "name": "F#3",
                    "midi": 54,
                    "time": 56.999999999999964,
                    "velocity": 0.25984251968503935,
                    "duration": 0.29999999999999716
                },
                {
                    "name": "D#4",
                    "midi": 63,
                    "time": 57.29999999999996,
                    "velocity": 0.25984251968503935,
                    "duration": 0.2875000000000014
                },
                {
                    "name": "A#3",
                    "midi": 58,
                    "time": 57.29999999999996,
                    "velocity": 0.25984251968503935,
                    "duration": 0.2875000000000014
                },
                {
                    "name": "F#3",
                    "midi": 54,
                    "time": 57.29999999999996,
                    "velocity": 0.25984251968503935,
                    "duration": 0.2875000000000014
                },
                {
                    "name": "D#4",
                    "midi": 63,
                    "time": 57.599999999999966,
                    "velocity": 0.2755905511811024,
                    "duration": 0.29999999999999716
                },
                {
                    "name": "A#3",
                    "midi": 58,
                    "time": 57.599999999999966,
                    "velocity": 0.2755905511811024,
                    "duration": 0.29999999999999716
                },
                {
                    "name": "F#3",
                    "midi": 54,
                    "time": 57.599999999999966,
                    "velocity": 0.2755905511811024,
                    "duration": 0.29999999999999716
                },
                {
                    "name": "D#4",
                    "midi": 63,
                    "time": 57.89999999999996,
                    "velocity": 0.2677165354330709,
                    "duration": 0.2749999999999986
                },
                {
                    "name": "A#3",
                    "midi": 58,
                    "time": 57.89999999999996,
                    "velocity": 0.2677165354330709,
                    "duration": 0.2749999999999986
                },
                {
                    "name": "F#3",
                    "midi": 54,
                    "time": 57.89999999999996,
                    "velocity": 0.2677165354330709,
                    "duration": 0.2749999999999986
                },
                {
                    "name": "G#3",
                    "midi": 56,
                    "time": 58.19999999999996,
                    "velocity": 0.28346456692913385,
                    "duration": 0.29999999999999716
                },
                {
                    "name": "C4",
                    "midi": 60,
                    "time": 58.19999999999996,
                    "velocity": 0.28346456692913385,
                    "duration": 0.29999999999999716
                },
                {
                    "name": "F4",
                    "midi": 65,
                    "time": 58.19999999999996,
                    "velocity": 0.28346456692913385,
                    "duration": 0.29999999999999716
                },
                {
                    "name": "F#3",
                    "midi": 54,
                    "time": 58.49999999999996,
                    "velocity": 0.2755905511811024,
                    "duration": 0.8999999999999986
                },
                {
                    "name": "A#3",
                    "midi": 58,
                    "time": 58.49999999999996,
                    "velocity": 0.2755905511811024,
                    "duration": 0.8999999999999986
                },
                {
                    "name": "D#4",
                    "midi": 63,
                    "time": 58.49999999999996,
                    "velocity": 0.2755905511811024,
                    "duration": 0.8999999999999986
                },
                {
                    "name": "C#2",
                    "midi": 37,
                    "time": 59.399999999999956,
                    "velocity": 0.33858267716535434,
                    "duration": 1.8000000000000043
                },
                {
                    "name": "C#3",
                    "midi": 49,
                    "time": 59.399999999999956,
                    "velocity": 0.4015748031496063,
                    "duration": 1.8000000000000043
                },
                {
                    "name": "C#4",
                    "midi": 61,
                    "time": 59.84999999999995,
                    "velocity": 0.3228346456692913,
                    "duration": 0.9000000000000057
                },
                {
                    "name": "A#3",
                    "midi": 58,
                    "time": 59.84999999999995,
                    "velocity": 0.3228346456692913,
                    "duration": 0.9000000000000057
                },
                {
                    "name": "F#3",
                    "midi": 54,
                    "time": 59.84999999999995,
                    "velocity": 0.3464566929133858,
                    "duration": 0.45000000000000284
                },
                {
                    "name": "G#3",
                    "midi": 56,
                    "time": 60.299999999999955,
                    "velocity": 0.3858267716535433,
                    "duration": 0.45000000000000284
                },
                {
                    "name": "D#4",
                    "midi": 63,
                    "time": 60.74999999999996,
                    "velocity": 0.4015748031496063,
                    "duration": 0.45000000000000284
                },
                {
                    "name": "A#4",
                    "midi": 70,
                    "time": 61.19999999999996,
                    "velocity": 0.3700787401574803,
                    "duration": 0.8999999999999986
                },
                {
                    "name": "F#4",
                    "midi": 66,
                    "time": 61.19999999999996,
                    "velocity": 0.3700787401574803,
                    "duration": 0.8999999999999986
                },
                {
                    "name": "C#4",
                    "midi": 61,
                    "time": 61.19999999999996,
                    "velocity": 0.3700787401574803,
                    "duration": 0.44999999999999574
                },
                {
                    "name": "A#3",
                    "midi": 58,
                    "time": 61.649999999999956,
                    "velocity": 0.3858267716535433,
                    "duration": 0.45000000000000284
                },
                {
                    "name": "D#2",
                    "midi": 39,
                    "time": 62.09999999999996,
                    "velocity": 0.3228346456692913,
                    "duration": 1.79999999999999
                },
                {
                    "name": "D#3",
                    "midi": 51,
                    "time": 62.09999999999996,
                    "velocity": 0.3858267716535433,
                    "duration": 1.79999999999999
                },
                {
                    "name": "D#4",
                    "midi": 63,
                    "time": 62.399999999999956,
                    "velocity": 0.31496062992125984,
                    "duration": 0.29999999999999716
                },
                {
                    "name": "A#3",
                    "midi": 58,
                    "time": 62.399999999999956,
                    "velocity": 0.31496062992125984,
                    "duration": 0.29999999999999716
                },
                {
                    "name": "F#3",
                    "midi": 54,
                    "time": 62.399999999999956,
                    "velocity": 0.31496062992125984,
                    "duration": 0.29999999999999716
                },
                {
                    "name": "D#4",
                    "midi": 63,
                    "time": 62.69999999999995,
                    "velocity": 0.31496062992125984,
                    "duration": 0.2875000000000014
                },
                {
                    "name": "A#3",
                    "midi": 58,
                    "time": 62.69999999999995,
                    "velocity": 0.31496062992125984,
                    "duration": 0.2875000000000014
                },
                {
                    "name": "F#3",
                    "midi": 54,
                    "time": 62.69999999999995,
                    "velocity": 0.31496062992125984,
                    "duration": 0.2875000000000014
                },
                {
                    "name": "D#4",
                    "midi": 63,
                    "time": 62.99999999999996,
                    "velocity": 0.33858267716535434,
                    "duration": 0.29999999999999716
                },
                {
                    "name": "A#3",
                    "midi": 58,
                    "time": 62.99999999999996,
                    "velocity": 0.33858267716535434,
                    "duration": 0.29999999999999716
                },
                {
                    "name": "F#3",
                    "midi": 54,
                    "time": 62.99999999999996,
                    "velocity": 0.33858267716535434,
                    "duration": 0.29999999999999716
                },
                {
                    "name": "D#4",
                    "midi": 63,
                    "time": 63.299999999999955,
                    "velocity": 0.3228346456692913,
                    "duration": 0.2749999999999986
                },
                {
                    "name": "A#3",
                    "midi": 58,
                    "time": 63.299999999999955,
                    "velocity": 0.3228346456692913,
                    "duration": 0.2749999999999986
                },
                {
                    "name": "F#3",
                    "midi": 54,
                    "time": 63.299999999999955,
                    "velocity": 0.3228346456692913,
                    "duration": 0.2749999999999986
                },
                {
                    "name": "G#3",
                    "midi": 56,
                    "time": 63.59999999999995,
                    "velocity": 0.33070866141732286,
                    "duration": 0.29999999999999716
                },
                {
                    "name": "C4",
                    "midi": 60,
                    "time": 63.59999999999995,
                    "velocity": 0.33070866141732286,
                    "duration": 0.29999999999999716
                },
                {
                    "name": "F4",
                    "midi": 65,
                    "time": 63.59999999999995,
                    "velocity": 0.33070866141732286,
                    "duration": 0.29999999999999716
                },
                {
                    "name": "D#4",
                    "midi": 63,
                    "time": 63.89999999999995,
                    "velocity": 0.33070866141732286,
                    "duration": 0.2749999999999915
                },
                {
                    "name": "A#3",
                    "midi": 58,
                    "time": 63.89999999999995,
                    "velocity": 0.33070866141732286,
                    "duration": 0.2749999999999915
                },
                {
                    "name": "F#3",
                    "midi": 54,
                    "time": 63.89999999999995,
                    "velocity": 0.33070866141732286,
                    "duration": 0.2749999999999915
                },
                {
                    "name": "C#4",
                    "midi": 61,
                    "time": 64.19999999999995,
                    "velocity": 0.33858267716535434,
                    "duration": 0.29999999999999716
                },
                {
                    "name": "F#4",
                    "midi": 66,
                    "time": 64.19999999999995,
                    "velocity": 0.33858267716535434,
                    "duration": 0.29999999999999716
                },
                {
                    "name": "A#4",
                    "midi": 70,
                    "time": 64.19999999999995,
                    "velocity": 0.33858267716535434,
                    "duration": 0.29999999999999716
                },
                {
                    "name": "D#4",
                    "midi": 63,
                    "time": 64.49999999999994,
                    "velocity": 0.3543307086614173,
                    "duration": 0.15000000000000568
                },
                {
                    "name": "F#4",
                    "midi": 66,
                    "time": 64.49999999999994,
                    "velocity": 0.3543307086614173,
                    "duration": 0.15000000000000568
                },
                {
                    "name": "A#4",
                    "midi": 70,
                    "time": 64.49999999999994,
                    "velocity": 0.3543307086614173,
                    "duration": 0.15000000000000568
                },
                {
                    "name": "F4",
                    "midi": 65,
                    "time": 64.64999999999995,
                    "velocity": 0.2992125984251969,
                    "duration": 1.7999999999999972
                },
                {
                    "name": "G#4",
                    "midi": 68,
                    "time": 64.67499999999994,
                    "velocity": 0.30708661417322836,
                    "duration": 1.7750000000000057
                },
                {
                    "name": "C#5",
                    "midi": 73,
                    "time": 64.69999999999995,
                    "velocity": 0.31496062992125984,
                    "duration": 1.75
                },
                {
                    "name": "F5",
                    "midi": 77,
                    "time": 64.72499999999995,
                    "velocity": 0.33070866141732286,
                    "duration": 1.7249999999999943
                },
                {
                    "name": "E4",
                    "midi": 64,
                    "time": 66.44999999999995,
                    "velocity": 0.25984251968503935,
                    "duration": 0.8999999999999773
                },
                {
                    "name": "G#4",
                    "midi": 68,
                    "time": 66.47124999999994,
                    "velocity": 0.2677165354330709,
                    "duration": 0.8787499999999824
                },
                {
                    "name": "A#4",
                    "midi": 70,
                    "time": 66.49249999999994,
                    "velocity": 0.2677165354330709,
                    "duration": 0.8574999999999875
                },
                {
                    "name": "C#5",
                    "midi": 73,
                    "time": 66.51374999999993,
                    "velocity": 0.28346456692913385,
                    "duration": 0.8362499999999926
                },
                {
                    "name": "E5",
                    "midi": 76,
                    "time": 66.53499999999993,
                    "velocity": 0.29133858267716534,
                    "duration": 0.8149999999999977
                },
                {
                    "name": "D#4",
                    "midi": 63,
                    "time": 67.34999999999992,
                    "velocity": 0.25984251968503935,
                    "duration": 1.799999999999983
                },
                {
                    "name": "F#4",
                    "midi": 66,
                    "time": 67.37124999999992,
                    "velocity": 0.2677165354330709,
                    "duration": 1.778749999999988
                },
                {
                    "name": "G#4",
                    "midi": 68,
                    "time": 67.39249999999991,
                    "velocity": 0.2677165354330709,
                    "duration": 1.7574999999999932
                },
                {
                    "name": "C#5",
                    "midi": 73,
                    "time": 67.41374999999991,
                    "velocity": 0.28346456692913385,
                    "duration": 1.7362499999999983
                },
                {
                    "name": "D#5",
                    "midi": 75,
                    "time": 67.4349999999999,
                    "velocity": 0.29133858267716534,
                    "duration": 1.7150000000000034
                },
                {
                    "name": "G#3",
                    "midi": 56,
                    "time": 69.1499999999999,
                    "velocity": 0.2125984251968504,
                    "duration": 1.0499999999999972
                },
                {
                    "name": "D#4",
                    "midi": 63,
                    "time": 69.17499999999991,
                    "velocity": 0.2204724409448819,
                    "duration": 1.0249999999999915
                },
                {
                    "name": "F#4",
                    "midi": 66,
                    "time": 69.1999999999999,
                    "velocity": 0.23622047244094488,
                    "duration": 1
                },
                {
                    "name": "C5",
                    "midi": 72,
                    "time": 69.22499999999991,
                    "velocity": 0.2440944881889764,
                    "duration": 0.9749999999999943
                },
                {
                    "name": "C#2",
                    "midi": 37,
                    "time": 70.1999999999999,
                    "velocity": 0.25196850393700787,
                    "duration": 0.45000000000001705
                },
                {
                    "name": "G#2",
                    "midi": 44,
                    "time": 70.34999999999991,
                    "velocity": 0.23622047244094488,
                    "duration": 0.15000000000000568
                },
                {
                    "name": "C#3",
                    "midi": 49,
                    "time": 70.49999999999991,
                    "velocity": 0.23622047244094488,
                    "duration": 0.15000000000000568
                },
                {
                    "name": "F3",
                    "midi": 53,
                    "time": 70.64999999999992,
                    "velocity": 0.23622047244094488,
                    "duration": 0.15000000000000568
                },
                {
                    "name": "G#3",
                    "midi": 56,
                    "time": 70.79999999999993,
                    "velocity": 0.23622047244094488,
                    "duration": 0.15000000000000568
                },
                {
                    "name": "C#4",
                    "midi": 61,
                    "time": 70.94999999999993,
                    "velocity": 0.23622047244094488,
                    "duration": 0.15000000000000568
                },
                {
                    "name": "F2",
                    "midi": 41,
                    "time": 71.09999999999994,
                    "velocity": 0.25984251968503935,
                    "duration": 0.45000000000001705
                },
                {
                    "name": "C3",
                    "midi": 48,
                    "time": 71.24999999999994,
                    "velocity": 0.2047244094488189,
                    "duration": 0.15000000000000568
                },
                {
                    "name": "F3",
                    "midi": 53,
                    "time": 71.39999999999995,
                    "velocity": 0.2125984251968504,
                    "duration": 0.15000000000000568
                },
                {
                    "name": "G#3",
                    "midi": 56,
                    "time": 71.54999999999995,
                    "velocity": 0.2204724409448819,
                    "duration": 0.15000000000000568
                },
                {
                    "name": "C4",
                    "midi": 60,
                    "time": 71.69999999999996,
                    "velocity": 0.23622047244094488,
                    "duration": 0.15000000000000568
                },
                {
                    "name": "F4",
                    "midi": 65,
                    "time": 71.84999999999997,
                    "velocity": 0.2440944881889764,
                    "duration": 0.15000000000000568
                },
                {
                    "name": "G#2",
                    "midi": 44,
                    "time": 71.99999999999997,
                    "velocity": 0.2677165354330709,
                    "duration": 0.45000000000001705
                },
                {
                    "name": "E3",
                    "midi": 52,
                    "time": 72.14999999999998,
                    "velocity": 0.25196850393700787,
                    "duration": 0.15000000000000568
                },
                {
                    "name": "G#3",
                    "midi": 56,
                    "time": 72.29999999999998,
                    "velocity": 0.25196850393700787,
                    "duration": 0.15000000000000568
                },
                {
                    "name": "B3",
                    "midi": 59,
                    "time": 72.44999999999999,
                    "velocity": 0.25196850393700787,
                    "duration": 0.15000000000000568
                },
                {
                    "name": "E4",
                    "midi": 64,
                    "time": 72.6,
                    "velocity": 0.25196850393700787,
                    "duration": 0.15000000000000568
                },
                {
                    "name": "G#4",
                    "midi": 68,
                    "time": 72.75,
                    "velocity": 0.25196850393700787,
                    "duration": 0.14749999999999375
                },
                {
                    "name": "C#2",
                    "midi": 37,
                    "time": 72.89999999999999,
                    "velocity": 0.25984251968503935,
                    "duration": 0.45000000000001705
                },
                {
                    "name": "G#2",
                    "midi": 44,
                    "time": 73.05,
                    "velocity": 0.23622047244094488,
                    "duration": 0.15000000000000568
                },
                {
                    "name": "C#3",
                    "midi": 49,
                    "time": 73.2,
                    "velocity": 0.23622047244094488,
                    "duration": 0.15000000000000568
                },
                {
                    "name": "F3",
                    "midi": 53,
                    "time": 73.35000000000001,
                    "velocity": 0.23622047244094488,
                    "duration": 0.15000000000000568
                },
                {
                    "name": "G#3",
                    "midi": 56,
                    "time": 73.50000000000001,
                    "velocity": 0.23622047244094488,
                    "duration": 0.15000000000000568
                },
                {
                    "name": "C#4",
                    "midi": 61,
                    "time": 73.65000000000002,
                    "velocity": 0.23622047244094488,
                    "duration": 0.15000000000000568
                },
                {
                    "name": "F2",
                    "midi": 41,
                    "time": 73.80000000000003,
                    "velocity": 0.25984251968503935,
                    "duration": 0.45000000000001705
                },
                {
                    "name": "C3",
                    "midi": 48,
                    "time": 73.95000000000003,
                    "velocity": 0.23622047244094488,
                    "duration": 0.15000000000000568
                },
                {
                    "name": "F3",
                    "midi": 53,
                    "time": 74.10000000000004,
                    "velocity": 0.23622047244094488,
                    "duration": 0.15000000000000568
                },
                {
                    "name": "G#3",
                    "midi": 56,
                    "time": 74.25000000000004,
                    "velocity": 0.2440944881889764,
                    "duration": 0.15000000000000568
                },
                {
                    "name": "C4",
                    "midi": 60,
                    "time": 74.40000000000005,
                    "velocity": 0.25196850393700787,
                    "duration": 0.15000000000000568
                },
                {
                    "name": "F4",
                    "midi": 65,
                    "time": 74.55000000000005,
                    "velocity": 0.25196850393700787,
                    "duration": 0.15000000000000568
                },
                {
                    "name": "G#2",
                    "midi": 44,
                    "time": 74.70000000000006,
                    "velocity": 0.2677165354330709,
                    "duration": 0.45000000000001705
                },
                {
                    "name": "E3",
                    "midi": 52,
                    "time": 74.85000000000007,
                    "velocity": 0.25196850393700787,
                    "duration": 0.15000000000000568
                },
                {
                    "name": "G#3",
                    "midi": 56,
                    "time": 75.00000000000007,
                    "velocity": 0.25196850393700787,
                    "duration": 0.15000000000000568
                },
                {
                    "name": "B3",
                    "midi": 59,
                    "time": 75.15000000000008,
                    "velocity": 0.25196850393700787,
                    "duration": 0.15000000000000568
                },
                {
                    "name": "E4",
                    "midi": 64,
                    "time": 75.45000000000009,
                    "velocity": 0.25196850393700787,
                    "duration": 0.15000000000000568
                },
                {
                    "name": "C#2",
                    "midi": 37,
                    "time": 75.6000000000001,
                    "velocity": 0.25984251968503935,
                    "duration": 0.14999999999999147
                },
                {
                    "name": "G#2",
                    "midi": 44,
                    "time": 75.75000000000009,
                    "velocity": 0.25984251968503935,
                    "duration": 0.15000000000000568
                },
                {
                    "name": "C#3",
                    "midi": 49,
                    "time": 75.90000000000009,
                    "velocity": 0.25984251968503935,
                    "duration": 0.15000000000000568
                },
                {
                    "name": "F3",
                    "midi": 53,
                    "time": 76.0500000000001,
                    "velocity": 0.25984251968503935,
                    "duration": 0.15000000000000568
                },
                {
                    "name": "G#3",
                    "midi": 56,
                    "time": 76.2000000000001,
                    "velocity": 0.25984251968503935,
                    "duration": 0.15000000000000568
                },
                {
                    "name": "C#4",
                    "midi": 61,
                    "time": 76.35000000000011,
                    "velocity": 0.25984251968503935,
                    "duration": 0.15000000000000568
                },
                {
                    "name": "F4",
                    "midi": 65,
                    "time": 76.50000000000011,
                    "velocity": 0.2677165354330709,
                    "duration": 0.15000000000000568
                },
                {
                    "name": "G#4",
                    "midi": 68,
                    "time": 76.65000000000012,
                    "velocity": 0.2677165354330709,
                    "duration": 0.15000000000000568
                },
                {
                    "name": "F4",
                    "midi": 65,
                    "time": 76.80000000000013,
                    "velocity": 0.2677165354330709,
                    "duration": 0.15000000000000568
                },
                {
                    "name": "C#4",
                    "midi": 61,
                    "time": 76.95000000000013,
                    "velocity": 0.2677165354330709,
                    "duration": 0.15000000000000568
                },
                {
                    "name": "G#3",
                    "midi": 56,
                    "time": 77.10000000000014,
                    "velocity": 0.2677165354330709,
                    "duration": 0.15000000000000568
                },
                {
                    "name": "F3",
                    "midi": 53,
                    "time": 77.25000000000014,
                    "velocity": 0.28346456692913385,
                    "duration": 0.15000000000000568
                },
                {
                    "name": "G#3",
                    "midi": 56,
                    "time": 77.40000000000015,
                    "velocity": 0.28346456692913385,
                    "duration": 0.15000000000000568
                },
                {
                    "name": "F3",
                    "midi": 53,
                    "time": 77.55000000000015,
                    "velocity": 0.28346456692913385,
                    "duration": 0.15000000000000568
                },
                {
                    "name": "C#3",
                    "midi": 49,
                    "time": 77.70000000000016,
                    "velocity": 0.28346456692913385,
                    "duration": 0.15000000000000568
                },
                {
                    "name": "G#2",
                    "midi": 44,
                    "time": 77.85000000000016,
                    "velocity": 0.28346456692913385,
                    "duration": 0.15000000000000568
                },
                {
                    "name": "C#3",
                    "midi": 49,
                    "time": 78.00000000000017,
                    "velocity": 0.28346456692913385,
                    "duration": 0.15000000000000568
                },
                {
                    "name": "G#2",
                    "midi": 44,
                    "time": 78.15000000000018,
                    "velocity": 0.29133858267716534,
                    "duration": 0.15000000000000568
                },
                {
                    "name": "D#2",
                    "midi": 39,
                    "time": 78.30000000000018,
                    "velocity": 0.29133858267716534,
                    "duration": 0.15000000000000568
                },
                {
                    "name": "A#2",
                    "midi": 46,
                    "time": 78.45000000000019,
                    "velocity": 0.29133858267716534,
                    "duration": 0.15000000000000568
                },
                {
                    "name": "D#3",
                    "midi": 51,
                    "time": 78.6000000000002,
                    "velocity": 0.29133858267716534,
                    "duration": 0.15000000000000568
                },
                {
                    "name": "G3",
                    "midi": 55,
                    "time": 78.7500000000002,
                    "velocity": 0.29133858267716534,
                    "duration": 0.15000000000000568
                },
                {
                    "name": "A#3",
                    "midi": 58,
                    "time": 78.9000000000002,
                    "velocity": 0.29133858267716534,
                    "duration": 0.15000000000000568
                },
                {
                    "name": "D#4",
                    "midi": 63,
                    "time": 79.05000000000021,
                    "velocity": 0.29133858267716534,
                    "duration": 0.15000000000000568
                },
                {
                    "name": "D#4",
                    "midi": 63,
                    "time": 79.35000000000022,
                    "velocity": 0.28346456692913385,
                    "duration": 0.15000000000000568
                },
                {
                    "name": "A#3",
                    "midi": 58,
                    "time": 79.50000000000023,
                    "velocity": 0.28346456692913385,
                    "duration": 0.15000000000000568
                },
                {
                    "name": "G3",
                    "midi": 55,
                    "time": 79.65000000000023,
                    "velocity": 0.2677165354330709,
                    "duration": 0.15000000000000568
                },
                {
                    "name": "D#3",
                    "midi": 51,
                    "time": 79.80000000000024,
                    "velocity": 0.2677165354330709,
                    "duration": 0.15000000000000568
                },
                {
                    "name": "A#2",
                    "midi": 46,
                    "time": 79.95000000000024,
                    "velocity": 0.2677165354330709,
                    "duration": 0.15000000000000568
                },
                {
                    "name": "D#2",
                    "midi": 39,
                    "time": 80.10000000000025,
                    "velocity": 0.25984251968503935,
                    "duration": 0.15000000000000568
                },
                {
                    "name": "A#2",
                    "midi": 46,
                    "time": 80.25000000000026,
                    "velocity": 0.25984251968503935,
                    "duration": 0.15000000000000568
                },
                {
                    "name": "D#3",
                    "midi": 51,
                    "time": 80.40000000000026,
                    "velocity": 0.25984251968503935,
                    "duration": 0.15000000000000568
                },
                {
                    "name": "G3",
                    "midi": 55,
                    "time": 80.55000000000027,
                    "velocity": 0.25984251968503935,
                    "duration": 0.15000000000000568
                },
                {
                    "name": "D#3",
                    "midi": 51,
                    "time": 80.70000000000027,
                    "velocity": 0.25984251968503935,
                    "duration": 0.15000000000000568
                },
                {
                    "name": "A#2",
                    "midi": 46,
                    "time": 80.85000000000028,
                    "velocity": 0.25984251968503935,
                    "duration": 0.15000000000000568
                },
                {
                    "name": "G#2",
                    "midi": 44,
                    "time": 81.00000000000028,
                    "velocity": 0.29133858267716534,
                    "duration": 0.9000000000000199
                },
                {
                    "name": "D#3",
                    "midi": 51,
                    "time": 81.15000000000028,
                    "velocity": 0.25984251968503935,
                    "duration": 0.15000000000000568
                },
                {
                    "name": "F#3",
                    "midi": 54,
                    "time": 81.30000000000028,
                    "velocity": 0.25984251968503935,
                    "duration": 0.15000000000000568
                },
                {
                    "name": "A#3",
                    "midi": 58,
                    "time": 81.45000000000029,
                    "velocity": 0.25984251968503935,
                    "duration": 0.15000000000000568
                },
                {
                    "name": "C4",
                    "midi": 60,
                    "time": 81.60000000000029,
                    "velocity": 0.25984251968503935,
                    "duration": 0.15000000000000568
                },
                {
                    "name": "F#4",
                    "midi": 66,
                    "time": 81.7500000000003,
                    "velocity": 0.25984251968503935,
                    "duration": 0.15000000000000568
                },
                {
                    "name": "F#2",
                    "midi": 42,
                    "time": 81.9000000000003,
                    "velocity": 0.2992125984251969,
                    "duration": 0.9000000000000341
                },
                {
                    "name": "C#3",
                    "midi": 49,
                    "time": 82.05000000000031,
                    "velocity": 0.25196850393700787,
                    "duration": 0.15000000000000568
                },
                {
                    "name": "F#3",
                    "midi": 54,
                    "time": 82.20000000000032,
                    "velocity": 0.25984251968503935,
                    "duration": 0.15000000000000568
                },
                {
                    "name": "A#3",
                    "midi": 58,
                    "time": 82.35000000000032,
                    "velocity": 0.2677165354330709,
                    "duration": 0.15000000000000568
                },
                {
                    "name": "C#4",
                    "midi": 61,
                    "time": 82.50000000000033,
                    "velocity": 0.2677165354330709,
                    "duration": 0.15000000000000568
                },
                {
                    "name": "F#4",
                    "midi": 66,
                    "time": 82.65000000000033,
                    "velocity": 0.28346456692913385,
                    "duration": 0.15000000000000568
                },
                {
                    "name": "F2",
                    "midi": 41,
                    "time": 82.80000000000034,
                    "velocity": 0.31496062992125984,
                    "duration": 0.9000000000000199
                },
                {
                    "name": "C3",
                    "midi": 48,
                    "time": 82.95000000000034,
                    "velocity": 0.28346456692913385,
                    "duration": 0.15000000000000568
                },
                {
                    "name": "F3",
                    "midi": 53,
                    "time": 83.10000000000035,
                    "velocity": 0.29133858267716534,
                    "duration": 0.15000000000000568
                },
                {
                    "name": "G#3",
                    "midi": 56,
                    "time": 83.25000000000036,
                    "velocity": 0.2992125984251969,
                    "duration": 0.15000000000000568
                },
                {
                    "name": "C4",
                    "midi": 60,
                    "time": 83.40000000000036,
                    "velocity": 0.30708661417322836,
                    "duration": 0.29999999999999716
                },
                {
                    "name": "G#2",
                    "midi": 44,
                    "time": 83.71875000000037,
                    "velocity": 0.29133858267716534,
                    "duration": 0.9000000000000057
                },
                {
                    "name": "D#3",
                    "midi": 51,
                    "time": 83.86875000000036,
                    "velocity": 0.25984251968503935,
                    "duration": 0.15000000000000568
                },
                {
                    "name": "F#3",
                    "midi": 54,
                    "time": 84.01875000000037,
                    "velocity": 0.25984251968503935,
                    "duration": 0.15000000000000568
                },
                {
                    "name": "A#3",
                    "midi": 58,
                    "time": 84.16875000000037,
                    "velocity": 0.25984251968503935,
                    "duration": 0.15000000000000568
                },
                {
                    "name": "C4",
                    "midi": 60,
                    "time": 84.31875000000038,
                    "velocity": 0.25984251968503935,
                    "duration": 0.15000000000000568
                },
                {
                    "name": "F#4",
                    "midi": 66,
                    "time": 84.46875000000038,
                    "velocity": 0.2677165354330709,
                    "duration": 0.14999999999999147
                },
                {
                    "name": "F#2",
                    "midi": 42,
                    "time": 84.61875000000038,
                    "velocity": 0.30708661417322836,
                    "duration": 0.9000000000000199
                },
                {
                    "name": "C#3",
                    "midi": 49,
                    "time": 84.76875000000037,
                    "velocity": 0.2677165354330709,
                    "duration": 0.15000000000000568
                },
                {
                    "name": "F#3",
                    "midi": 54,
                    "time": 84.91875000000037,
                    "velocity": 0.29133858267716534,
                    "duration": 0.15000000000000568
                },
                {
                    "name": "A#3",
                    "midi": 58,
                    "time": 85.06875000000038,
                    "velocity": 0.2992125984251969,
                    "duration": 0.15000000000000568
                },
                {
                    "name": "C#4",
                    "midi": 61,
                    "time": 85.21875000000038,
                    "velocity": 0.2992125984251969,
                    "duration": 0.15000000000000568
                },
                {
                    "name": "F#4",
                    "midi": 66,
                    "time": 85.36875000000039,
                    "velocity": 0.30708661417322836,
                    "duration": 0.15000000000000568
                },
                {
                    "name": "F2",
                    "midi": 41,
                    "time": 85.5187500000004,
                    "velocity": 0.3464566929133858,
                    "duration": 0.9000000000000199
                },
                {
                    "name": "C3",
                    "midi": 48,
                    "time": 85.6687500000004,
                    "velocity": 0.30708661417322836,
                    "duration": 0.15000000000000568
                },
                {
                    "name": "F3",
                    "midi": 53,
                    "time": 85.8187500000004,
                    "velocity": 0.31496062992125984,
                    "duration": 0.15000000000000568
                },
                {
                    "name": "G#3",
                    "midi": 56,
                    "time": 85.96875000000041,
                    "velocity": 0.33858267716535434,
                    "duration": 0.15000000000000568
                },
                {
                    "name": "C4",
                    "midi": 60,
                    "time": 86.11875000000042,
                    "velocity": 0.3464566929133858,
                    "duration": 0.29999999999999716
                },
                {
                    "name": "D#2",
                    "midi": 39,
                    "time": 86.40000000000042,
                    "velocity": 0.3543307086614173,
                    "duration": 0.9000000000000199
                },
                {
                    "name": "A#2",
                    "midi": 46,
                    "time": 86.55000000000041,
                    "velocity": 0.31496062992125984,
                    "duration": 0.15000000000000568
                },
                {
                    "name": "D#3",
                    "midi": 51,
                    "time": 86.70000000000041,
                    "velocity": 0.31496062992125984,
                    "duration": 0.15000000000000568
                },
                {
                    "name": "F#3",
                    "midi": 54,
                    "time": 86.85000000000042,
                    "velocity": 0.31496062992125984,
                    "duration": 0.15000000000000568
                },
                {
                    "name": "A#3",
                    "midi": 58,
                    "time": 87.00000000000043,
                    "velocity": 0.31496062992125984,
                    "duration": 0.15000000000000568
                },
                {
                    "name": "D#4",
                    "midi": 63,
                    "time": 87.15000000000043,
                    "velocity": 0.31496062992125984,
                    "duration": 0.15000000000000568
                },
                {
                    "name": "F#4",
                    "midi": 66,
                    "time": 87.30000000000044,
                    "velocity": 0.47244094488188976,
                    "duration": 0.14749999999999375
                },
                {
                    "name": "F4",
                    "midi": 65,
                    "time": 87.75000000000043,
                    "velocity": 0.4566929133858268,
                    "duration": 0.45000000000000284
                },
                {
                    "name": "D4",
                    "midi": 62,
                    "time": 88.20000000000043,
                    "velocity": 0.44881889763779526,
                    "duration": 0.45000000000000284
                },
                {
                    "name": "D#4",
                    "midi": 63,
                    "time": 88.65000000000043,
                    "velocity": 0.4566929133858268,
                    "duration": 0.45000000000000284
                },
                {
                    "name": "D4",
                    "midi": 62,
                    "time": 89.10000000000043,
                    "velocity": 0.4330708661417323,
                    "duration": 0.45000000000001705
                },
                {
                    "name": "F#4",
                    "midi": 66,
                    "time": 89.25000000000044,
                    "velocity": 0.33858267716535434,
                    "duration": 0.15000000000000568
                },
                {
                    "name": "A#4",
                    "midi": 70,
                    "time": 89.40000000000045,
                    "velocity": 0.33858267716535434,
                    "duration": 0.15000000000000568
                },
                {
                    "name": "A#4",
                    "midi": 70,
                    "time": 89.55000000000045,
                    "velocity": 0.33858267716535434,
                    "duration": 0.15000000000000568
                },
                {
                    "name": "F#5",
                    "midi": 78,
                    "time": 89.70000000000046,
                    "velocity": 0.33858267716535434,
                    "duration": 0.15000000000000568
                },
                {
                    "name": "A#5",
                    "midi": 82,
                    "time": 89.85000000000046,
                    "velocity": 0.33858267716535434,
                    "duration": 0.9000000000000199
                },
                {
                    "name": "D#4",
                    "midi": 63,
                    "time": 90.00000000000047,
                    "velocity": 0.3937007874015748,
                    "duration": 0.45000000000000284
                },
                {
                    "name": "F#4",
                    "midi": 66,
                    "time": 90.15000000000046,
                    "velocity": 0.2992125984251969,
                    "duration": 0.15000000000000568
                },
                {
                    "name": "A#4",
                    "midi": 70,
                    "time": 90.30000000000047,
                    "velocity": 0.2992125984251969,
                    "duration": 0.15000000000000568
                },
                {
                    "name": "A#4",
                    "midi": 70,
                    "time": 90.45000000000047,
                    "velocity": 0.2992125984251969,
                    "duration": 0.15000000000000568
                },
                {
                    "name": "F#5",
                    "midi": 78,
                    "time": 90.60000000000048,
                    "velocity": 0.2992125984251969,
                    "duration": 0.15000000000000568
                },
                {
                    "name": "A#5",
                    "midi": 82,
                    "time": 90.75000000000048,
                    "velocity": 0.2992125984251969,
                    "duration": 0.15000000000000568
                },
                {
                    "name": "C4",
                    "midi": 60,
                    "time": 90.90000000000049,
                    "velocity": 0.3464566929133858,
                    "duration": 0.15000000000000568
                },
                {
                    "name": "G#3",
                    "midi": 56,
                    "time": 90.90000000000049,
                    "velocity": 0.3464566929133858,
                    "duration": 0.45000000000001705
                },
                {
                    "name": "E4",
                    "midi": 64,
                    "time": 91.0500000000005,
                    "velocity": 0.29133858267716534,
                    "duration": 0.15000000000000568
                },
                {
                    "name": "G#4",
                    "midi": 68,
                    "time": 91.2000000000005,
                    "velocity": 0.28346456692913385,
                    "duration": 0.15000000000000568
                },
                {
                    "name": "C5",
                    "midi": 72,
                    "time": 91.3500000000005,
                    "velocity": 0.2677165354330709,
                    "duration": 0.15000000000000568
                },
                {
                    "name": "E5",
                    "midi": 76,
                    "time": 91.50000000000051,
                    "velocity": 0.2677165354330709,
                    "duration": 0.15000000000000568
                },
                {
                    "name": "G#5",
                    "midi": 80,
                    "time": 91.65000000000052,
                    "velocity": 0.25984251968503935,
                    "duration": 0.14749999999999375
                },
                {
                    "name": "C#3",
                    "midi": 49,
                    "time": 91.80000000000051,
                    "velocity": 0.33858267716535434,
                    "duration": 0.9000000000000199
                },
                {
                    "name": "G#3",
                    "midi": 56,
                    "time": 91.95000000000051,
                    "velocity": 0.29133858267716534,
                    "duration": 0.14999999999999147
                },
                {
                    "name": "C#4",
                    "midi": 61,
                    "time": 92.1000000000005,
                    "velocity": 0.29133858267716534,
                    "duration": 0.15000000000000568
                },
                {
                    "name": "F4",
                    "midi": 65,
                    "time": 92.25000000000051,
                    "velocity": 0.29133858267716534,
                    "duration": 0.15000000000000568
                },
                {
                    "name": "G#4",
                    "midi": 68,
                    "time": 92.40000000000052,
                    "velocity": 0.29133858267716534,
                    "duration": 0.15000000000000568
                },
                {
                    "name": "C#5",
                    "midi": 73,
                    "time": 92.55000000000052,
                    "velocity": 0.29133858267716534,
                    "duration": 0.15000000000000568
                },
                {
                    "name": "G#3",
                    "midi": 56,
                    "time": 92.70000000000053,
                    "velocity": 0.36220472440944884,
                    "duration": 0.15000000000000568
                },
                {
                    "name": "F3",
                    "midi": 53,
                    "time": 92.70000000000053,
                    "velocity": 0.30708661417322836,
                    "duration": 0.9000000000000341
                },
                {
                    "name": "C4",
                    "midi": 60,
                    "time": 92.85000000000053,
                    "velocity": 0.2992125984251969,
                    "duration": 0.15000000000000568
                },
                {
                    "name": "F4",
                    "midi": 65,
                    "time": 93.00000000000054,
                    "velocity": 0.31496062992125984,
                    "duration": 0.15000000000000568
                },
                {
                    "name": "G#4",
                    "midi": 68,
                    "time": 93.15000000000055,
                    "velocity": 0.33070866141732286,
                    "duration": 0.15000000000000568
                },
                {
                    "name": "C5",
                    "midi": 72,
                    "time": 93.30000000000055,
                    "velocity": 0.3464566929133858,
                    "duration": 0.15000000000000568
                },
                {
                    "name": "F5",
                    "midi": 77,
                    "time": 93.45000000000056,
                    "velocity": 0.36220472440944884,
                    "duration": 0.15000000000000568
                },
                {
                    "name": "B3",
                    "midi": 59,
                    "time": 93.60000000000056,
                    "velocity": 0.3937007874015748,
                    "duration": 0.14999999999999147
                },
                {
                    "name": "G#3",
                    "midi": 56,
                    "time": 93.60000000000056,
                    "velocity": 0.33070866141732286,
                    "duration": 0.9000000000000057
                },
                {
                    "name": "E4",
                    "midi": 64,
                    "time": 93.75000000000055,
                    "velocity": 0.33858267716535434,
                    "duration": 0.15000000000000568
                },
                {
                    "name": "G#4",
                    "midi": 68,
                    "time": 93.90000000000056,
                    "velocity": 0.33858267716535434,
                    "duration": 0.15000000000000568
                },
                {
                    "name": "B4",
                    "midi": 71,
                    "time": 94.05000000000057,
                    "velocity": 0.33858267716535434,
                    "duration": 0.15000000000000568
                },
                {
                    "name": "E5",
                    "midi": 76,
                    "time": 94.20000000000057,
                    "velocity": 0.33858267716535434,
                    "duration": 0.15000000000000568
                },
                {
                    "name": "G#5",
                    "midi": 80,
                    "time": 94.35000000000058,
                    "velocity": 0.33858267716535434,
                    "duration": 0.14749999999999375
                },
                {
                    "name": "C#3",
                    "midi": 49,
                    "time": 94.50000000000057,
                    "velocity": 0.3779527559055118,
                    "duration": 0.9000000000000341
                },
                {
                    "name": "G#3",
                    "midi": 56,
                    "time": 94.65000000000057,
                    "velocity": 0.33858267716535434,
                    "duration": 0.15000000000000568
                },
                {
                    "name": "C#4",
                    "midi": 61,
                    "time": 94.80000000000058,
                    "velocity": 0.33858267716535434,
                    "duration": 0.15000000000000568
                },
                {
                    "name": "F4",
                    "midi": 65,
                    "time": 94.95000000000059,
                    "velocity": 0.33858267716535434,
                    "duration": 0.15000000000000568
                },
                {
                    "name": "G#4",
                    "midi": 68,
                    "time": 95.10000000000059,
                    "velocity": 0.33858267716535434,
                    "duration": 0.15000000000000568
                },
                {
                    "name": "C#5",
                    "midi": 73,
                    "time": 95.2500000000006,
                    "velocity": 0.33858267716535434,
                    "duration": 0.15000000000000568
                },
                {
                    "name": "G#3",
                    "midi": 56,
                    "time": 95.4000000000006,
                    "velocity": 0.4015748031496063,
                    "duration": 0.15000000000000568
                },
                {
                    "name": "F3",
                    "midi": 53,
                    "time": 95.4000000000006,
                    "velocity": 0.33858267716535434,
                    "duration": 0.9000000000000341
                },
                {
                    "name": "C4",
                    "midi": 60,
                    "time": 95.55000000000061,
                    "velocity": 0.31496062992125984,
                    "duration": 0.15000000000000568
                },
                {
                    "name": "F4",
                    "midi": 65,
                    "time": 95.70000000000061,
                    "velocity": 0.33070866141732286,
                    "duration": 0.15000000000000568
                },
                {
                    "name": "G#4",
                    "midi": 68,
                    "time": 95.85000000000062,
                    "velocity": 0.33858267716535434,
                    "duration": 0.15000000000000568
                },
                {
                    "name": "C5",
                    "midi": 72,
                    "time": 96.00000000000063,
                    "velocity": 0.3464566929133858,
                    "duration": 0.15000000000000568
                },
                {
                    "name": "F5",
                    "midi": 77,
                    "time": 96.15000000000063,
                    "velocity": 0.3543307086614173,
                    "duration": 0.15000000000000568
                },
                {
                    "name": "B3",
                    "midi": 59,
                    "time": 96.30000000000064,
                    "velocity": 0.4251968503937008,
                    "duration": 0.15000000000000568
                },
                {
                    "name": "G#3",
                    "midi": 56,
                    "time": 96.30000000000064,
                    "velocity": 0.3543307086614173,
                    "duration": 0.9000000000000341
                },
                {
                    "name": "E4",
                    "midi": 64,
                    "time": 96.45000000000064,
                    "velocity": 0.3543307086614173,
                    "duration": 0.15000000000000568
                },
                {
                    "name": "G#4",
                    "midi": 68,
                    "time": 96.60000000000065,
                    "velocity": 0.3543307086614173,
                    "duration": 0.15000000000000568
                },
                {
                    "name": "B4",
                    "midi": 71,
                    "time": 96.75000000000065,
                    "velocity": 0.3543307086614173,
                    "duration": 0.15000000000000568
                },
                {
                    "name": "G#5",
                    "midi": 80,
                    "time": 96.90000000000066,
                    "velocity": 0.3543307086614173,
                    "duration": 0.15000000000000568
                },
                {
                    "name": "E5",
                    "midi": 76,
                    "time": 97.05000000000067,
                    "velocity": 0.3543307086614173,
                    "duration": 0.15000000000000568
                },
                {
                    "name": "B3",
                    "midi": 59,
                    "time": 97.20000000000067,
                    "velocity": 0.3464566929133858,
                    "duration": 0.45000000000001705
                },
                {
                    "name": "C#4",
                    "midi": 61,
                    "time": 97.20000000000067,
                    "velocity": 0.4094488188976378,
                    "duration": 0.15000000000000568
                },
                {
                    "name": "E4",
                    "midi": 64,
                    "time": 97.35000000000068,
                    "velocity": 0.3937007874015748,
                    "duration": 0.15000000000000568
                },
                {
                    "name": "G#4",
                    "midi": 68,
                    "time": 97.50000000000068,
                    "velocity": 0.3937007874015748,
                    "duration": 0.15000000000000568
                },
                {
                    "name": "B4",
                    "midi": 71,
                    "time": 97.65000000000069,
                    "velocity": 0.3937007874015748,
                    "duration": 0.45000000000000284
                },
                {
                    "name": "C#4",
                    "midi": 61,
                    "time": 98.10000000000069,
                    "velocity": 0.3464566929133858,
                    "duration": 0.45000000000001705
                },
                {
                    "name": "E4",
                    "midi": 64,
                    "time": 98.10000000000069,
                    "velocity": 0.4094488188976378,
                    "duration": 0.15000000000000568
                },
                {
                    "name": "G#4",
                    "midi": 68,
                    "time": 98.2500000000007,
                    "velocity": 0.3937007874015748,
                    "duration": 0.15000000000000568
                },
                {
                    "name": "B4",
                    "midi": 71,
                    "time": 98.4000000000007,
                    "velocity": 0.3937007874015748,
                    "duration": 0.15000000000000568
                },
                {
                    "name": "C#5",
                    "midi": 73,
                    "time": 98.55000000000071,
                    "velocity": 0.3937007874015748,
                    "duration": 0.45000000000000284
                },
                {
                    "name": "E4",
                    "midi": 64,
                    "time": 99.00000000000071,
                    "velocity": 0.36220472440944884,
                    "duration": 0.45000000000001705
                },
                {
                    "name": "G#4",
                    "midi": 68,
                    "time": 99.00000000000071,
                    "velocity": 0.4330708661417323,
                    "duration": 0.15000000000000568
                },
                {
                    "name": "B4",
                    "midi": 71,
                    "time": 99.15000000000072,
                    "velocity": 0.4094488188976378,
                    "duration": 0.15000000000000568
                },
                {
                    "name": "C#5",
                    "midi": 73,
                    "time": 99.30000000000072,
                    "velocity": 0.4094488188976378,
                    "duration": 0.15000000000000568
                },
                {
                    "name": "E5",
                    "midi": 76,
                    "time": 99.45000000000073,
                    "velocity": 0.4094488188976378,
                    "duration": 0.45000000000000284
                },
                {
                    "name": "G#4",
                    "midi": 68,
                    "time": 99.90000000000073,
                    "velocity": 0.44881889763779526,
                    "duration": 0.45000000000001705
                },
                {
                    "name": "A4",
                    "midi": 69,
                    "time": 100.05000000000074,
                    "velocity": 0.4251968503937008,
                    "duration": 0.15000000000000568
                },
                {
                    "name": "C#5",
                    "midi": 73,
                    "time": 100.20000000000074,
                    "velocity": 0.4251968503937008,
                    "duration": 0.15000000000000568
                },
                {
                    "name": "F#4",
                    "midi": 66,
                    "time": 100.80000000000075,
                    "velocity": 0.4409448818897638,
                    "duration": 0.45000000000001705
                },
                {
                    "name": "A4",
                    "midi": 69,
                    "time": 100.95000000000076,
                    "velocity": 0.4094488188976378,
                    "duration": 0.15000000000000568
                },
                {
                    "name": "C#5",
                    "midi": 73,
                    "time": 101.10000000000076,
                    "velocity": 0.4094488188976378,
                    "duration": 0.15000000000000568
                },
                {
                    "name": "F#4",
                    "midi": 66,
                    "time": 101.70000000000077,
                    "velocity": 0.4409448818897638,
                    "duration": 0.15000000000000568
                },
                {
                    "name": "F4",
                    "midi": 65,
                    "time": 101.70000000000077,
                    "velocity": 0.3700787401574803,
                    "duration": 0.45000000000001705
                },
                {
                    "name": "A4",
                    "midi": 69,
                    "time": 101.85000000000078,
                    "velocity": 0.4094488188976378,
                    "duration": 0.15000000000000568
                },
                {
                    "name": "C#5",
                    "midi": 73,
                    "time": 102.00000000000078,
                    "velocity": 0.4094488188976378,
                    "duration": 0.15000000000000568
                },
                {
                    "name": "E4",
                    "midi": 64,
                    "time": 102.60000000000079,
                    "velocity": 0.4409448818897638,
                    "duration": 0.45000000000000284
                },
                {
                    "name": "F#4",
                    "midi": 66,
                    "time": 102.75000000000078,
                    "velocity": 0.4094488188976378,
                    "duration": 0.15000000000000568
                },
                {
                    "name": "A4",
                    "midi": 69,
                    "time": 102.90000000000079,
                    "velocity": 0.4094488188976378,
                    "duration": 0.15000000000000568
                },
                {
                    "name": "F#4",
                    "midi": 66,
                    "time": 103.5000000000008,
                    "velocity": 0.4409448818897638,
                    "duration": 0.14999999999999147
                },
                {
                    "name": "D#4",
                    "midi": 63,
                    "time": 103.5000000000008,
                    "velocity": 0.3700787401574803,
                    "duration": 0.45000000000000284
                },
                {
                    "name": "A4",
                    "midi": 69,
                    "time": 103.65000000000079,
                    "velocity": 0.4094488188976378,
                    "duration": 0.15000000000000568
                },
                {
                    "name": "C#5",
                    "midi": 73,
                    "time": 103.8000000000008,
                    "velocity": 0.4094488188976378,
                    "duration": 0.15000000000000568
                },
                {
                    "name": "E4",
                    "midi": 64,
                    "time": 104.4000000000008,
                    "velocity": 0.4409448818897638,
                    "duration": 0.15000000000000568
                },
                {
                    "name": "C#4",
                    "midi": 61,
                    "time": 104.4000000000008,
                    "velocity": 0.3700787401574803,
                    "duration": 0.45000000000001705
                },
                {
                    "name": "A4",
                    "midi": 69,
                    "time": 104.55000000000081,
                    "velocity": 0.4094488188976378,
                    "duration": 0.15000000000000568
                },
                {
                    "name": "C#5",
                    "midi": 73,
                    "time": 104.70000000000081,
                    "velocity": 0.4094488188976378,
                    "duration": 0.15000000000000568
                },
                {
                    "name": "E5",
                    "midi": 76,
                    "time": 104.85000000000082,
                    "velocity": 0.4094488188976378,
                    "duration": 0.15000000000000568
                },
                {
                    "name": "B3",
                    "midi": 59,
                    "time": 105.30000000000082,
                    "velocity": 0.4409448818897638,
                    "duration": 0.45000000000001705
                },
                {
                    "name": "D#4",
                    "midi": 63,
                    "time": 105.45000000000083,
                    "velocity": 0.4094488188976378,
                    "duration": 0.15000000000000568
                },
                {
                    "name": "F#4",
                    "midi": 66,
                    "time": 105.60000000000083,
                    "velocity": 0.4094488188976378,
                    "duration": 0.15000000000000568
                },
                {
                    "name": "A3",
                    "midi": 57,
                    "time": 106.20000000000084,
                    "velocity": 0.4409448818897638,
                    "duration": 0.45000000000001705
                },
                {
                    "name": "C#4",
                    "midi": 61,
                    "time": 106.35000000000085,
                    "velocity": 0.4094488188976378,
                    "duration": 0.15000000000000568
                },
                {
                    "name": "E4",
                    "midi": 64,
                    "time": 106.50000000000085,
                    "velocity": 0.4094488188976378,
                    "duration": 0.15000000000000568
                },
                {
                    "name": "G#3",
                    "midi": 56,
                    "time": 107.10000000000086,
                    "velocity": 0.4409448818897638,
                    "duration": 0.45000000000000284
                },
                {
                    "name": "C#4",
                    "midi": 61,
                    "time": 107.25000000000085,
                    "velocity": 0.4094488188976378,
                    "duration": 0.15000000000000568
                },
                {
                    "name": "E4",
                    "midi": 64,
                    "time": 107.40000000000086,
                    "velocity": 0.4094488188976378,
                    "duration": 0.15000000000000568
                },
                {
                    "name": "A4",
                    "midi": 69,
                    "time": 107.55000000000086,
                    "velocity": 0.4094488188976378,
                    "duration": 0.15000000000000568
                },
                {
                    "name": "F#3",
                    "midi": 54,
                    "time": 108.00000000000087,
                    "velocity": 0.4409448818897638,
                    "duration": 2.700000000000074
                },
                {
                    "name": "C#4",
                    "midi": 61,
                    "time": 108.15000000000087,
                    "velocity": 0.33858267716535434,
                    "duration": 0.15000000000000568
                },
                {
                    "name": "E4",
                    "midi": 64,
                    "time": 108.30000000000088,
                    "velocity": 0.3543307086614173,
                    "duration": 0.14999999999999147
                },
                {
                    "name": "F#4",
                    "midi": 66,
                    "time": 108.45000000000087,
                    "velocity": 0.36220472440944884,
                    "duration": 0.15000000000000568
                },
                {
                    "name": "A4",
                    "midi": 69,
                    "time": 108.60000000000088,
                    "velocity": 0.3858267716535433,
                    "duration": 0.15000000000000568
                },
                {
                    "name": "C#5",
                    "midi": 73,
                    "time": 108.75000000000088,
                    "velocity": 0.3937007874015748,
                    "duration": 0.15000000000000568
                },
                {
                    "name": "E5",
                    "midi": 76,
                    "time": 108.90000000000089,
                    "velocity": 0.3937007874015748,
                    "duration": 0.15000000000000568
                },
                {
                    "name": "F#5",
                    "midi": 78,
                    "time": 109.05000000000089,
                    "velocity": 0.3937007874015748,
                    "duration": 0.15000000000000568
                },
                {
                    "name": "E5",
                    "midi": 76,
                    "time": 109.2000000000009,
                    "velocity": 0.3858267716535433,
                    "duration": 0.15000000000000568
                },
                {
                    "name": "C#5",
                    "midi": 73,
                    "time": 109.3500000000009,
                    "velocity": 0.3779527559055118,
                    "duration": 0.14999999999999147
                },
                {
                    "name": "A4",
                    "midi": 69,
                    "time": 109.5000000000009,
                    "velocity": 0.36220472440944884,
                    "duration": 0.15000000000000568
                },
                {
                    "name": "F#4",
                    "midi": 66,
                    "time": 109.6500000000009,
                    "velocity": 0.36220472440944884,
                    "duration": 0.15000000000000568
                },
                {
                    "name": "E4",
                    "midi": 64,
                    "time": 109.8000000000009,
                    "velocity": 0.33858267716535434,
                    "duration": 0.15000000000000568
                },
                {
                    "name": "F#4",
                    "midi": 66,
                    "time": 109.95000000000091,
                    "velocity": 0.33070866141732286,
                    "duration": 0.15000000000000568
                },
                {
                    "name": "E4",
                    "midi": 64,
                    "time": 110.10000000000092,
                    "velocity": 0.31496062992125984,
                    "duration": 0.15000000000000568
                },
                {
                    "name": "C#4",
                    "midi": 61,
                    "time": 110.25000000000092,
                    "velocity": 0.30708661417322836,
                    "duration": 0.15000000000000568
                },
                {
                    "name": "A3",
                    "midi": 57,
                    "time": 110.40000000000093,
                    "velocity": 0.2992125984251969,
                    "duration": 0.15000000000000568
                },
                {
                    "name": "F#3",
                    "midi": 54,
                    "time": 110.55000000000094,
                    "velocity": 0.29133858267716534,
                    "duration": 0.15000000000000568
                },
                {
                    "name": "F#2",
                    "midi": 42,
                    "time": 110.70000000000094,
                    "velocity": 0.33858267716535434,
                    "duration": 0.15000000000000568
                },
                {
                    "name": "C#3",
                    "midi": 49,
                    "time": 110.85000000000095,
                    "velocity": 0.2992125984251969,
                    "duration": 0.15000000000000568
                },
                {
                    "name": "E3",
                    "midi": 52,
                    "time": 111.00000000000095,
                    "velocity": 0.30708661417322836,
                    "duration": 0.14999999999999147
                },
                {
                    "name": "F#3",
                    "midi": 54,
                    "time": 111.15000000000094,
                    "velocity": 0.31496062992125984,
                    "duration": 0.15000000000000568
                },
                {
                    "name": "A3",
                    "midi": 57,
                    "time": 111.30000000000095,
                    "velocity": 0.33070866141732286,
                    "duration": 0.15000000000000568
                },
                {
                    "name": "C#4",
                    "midi": 61,
                    "time": 111.45000000000095,
                    "velocity": 0.33858267716535434,
                    "duration": 0.15000000000000568
                },
                {
                    "name": "E4",
                    "midi": 64,
                    "time": 111.60000000000096,
                    "velocity": 0.33070866141732286,
                    "duration": 0.15000000000000568
                },
                {
                    "name": "C#4",
                    "midi": 61,
                    "time": 111.75000000000097,
                    "velocity": 0.33070866141732286,
                    "duration": 0.15000000000000568
                },
                {
                    "name": "A3",
                    "midi": 57,
                    "time": 111.90000000000097,
                    "velocity": 0.31496062992125984,
                    "duration": 0.15000000000000568
                },
                {
                    "name": "F#3",
                    "midi": 54,
                    "time": 112.05000000000098,
                    "velocity": 0.31496062992125984,
                    "duration": 0.15000000000000568
                },
                {
                    "name": "E3",
                    "midi": 52,
                    "time": 112.20000000000098,
                    "velocity": 0.30708661417322836,
                    "duration": 0.15000000000000568
                },
                {
                    "name": "C#3",
                    "midi": 49,
                    "time": 112.35000000000099,
                    "velocity": 0.2992125984251969,
                    "duration": 0.15000000000000568
                },
                {
                    "name": "F#2",
                    "midi": 42,
                    "time": 112.500000000001,
                    "velocity": 0.29133858267716534,
                    "duration": 0.15000000000000568
                },
                {
                    "name": "C#3",
                    "midi": 49,
                    "time": 112.650000000001,
                    "velocity": 0.2677165354330709,
                    "duration": 0.15000000000000568
                },
                {
                    "name": "F#2",
                    "midi": 42,
                    "time": 112.800000000001,
                    "velocity": 0.29133858267716534,
                    "duration": 0.15000000000000568
                },
                {
                    "name": "C#3",
                    "midi": 49,
                    "time": 112.95000000000101,
                    "velocity": 0.2677165354330709,
                    "duration": 0.15000000000000568
                },
                {
                    "name": "F#2",
                    "midi": 42,
                    "time": 113.10000000000102,
                    "velocity": 0.29133858267716534,
                    "duration": 0.15000000000000568
                },
                {
                    "name": "C#3",
                    "midi": 49,
                    "time": 113.25000000000102,
                    "velocity": 0.2677165354330709,
                    "duration": 0.15000000000000568
                },
                {
                    "name": "G#2",
                    "midi": 44,
                    "time": 113.40000000000103,
                    "velocity": 0.25196850393700787,
                    "duration": 0.15000000000000568
                },
                {
                    "name": "D#3",
                    "midi": 51,
                    "time": 113.55000000000103,
                    "velocity": 0.2440944881889764,
                    "duration": 0.15000000000000568
                },
                {
                    "name": "G#2",
                    "midi": 44,
                    "time": 113.70000000000104,
                    "velocity": 0.25984251968503935,
                    "duration": 0.15000000000000568
                },
                {
                    "name": "D#3",
                    "midi": 51,
                    "time": 113.85000000000105,
                    "velocity": 0.2440944881889764,
                    "duration": 0.15000000000000568
                },
                {
                    "name": "G#2",
                    "midi": 44,
                    "time": 114.00000000000105,
                    "velocity": 0.25984251968503935,
                    "duration": 0.15000000000000568
                },
                {
                    "name": "D#3",
                    "midi": 51,
                    "time": 114.15000000000106,
                    "velocity": 0.25196850393700787,
                    "duration": 0.15000000000000568
                },
                {
                    "name": "G#2",
                    "midi": 44,
                    "time": 114.30000000000106,
                    "velocity": 0.2677165354330709,
                    "duration": 0.15000000000000568
                },
                {
                    "name": "D#3",
                    "midi": 51,
                    "time": 114.45000000000107,
                    "velocity": 0.25196850393700787,
                    "duration": 0.15000000000000568
                },
                {
                    "name": "G#2",
                    "midi": 44,
                    "time": 114.60000000000107,
                    "velocity": 0.2677165354330709,
                    "duration": 0.15000000000000568
                },
                {
                    "name": "D#3",
                    "midi": 51,
                    "time": 114.75000000000108,
                    "velocity": 0.2677165354330709,
                    "duration": 0.15000000000000568
                },
                {
                    "name": "G#2",
                    "midi": 44,
                    "time": 114.90000000000109,
                    "velocity": 0.28346456692913385,
                    "duration": 0.15000000000000568
                },
                {
                    "name": "D#3",
                    "midi": 51,
                    "time": 115.05000000000109,
                    "velocity": 0.2677165354330709,
                    "duration": 0.15000000000000568
                },
                {
                    "name": "G#2",
                    "midi": 44,
                    "time": 115.2000000000011,
                    "velocity": 0.25984251968503935,
                    "duration": 0.14999999999999147
                },
                {
                    "name": "D#3",
                    "midi": 51,
                    "time": 115.35000000000109,
                    "velocity": 0.2440944881889764,
                    "duration": 0.15000000000000568
                },
                {
                    "name": "G#2",
                    "midi": 44,
                    "time": 115.5000000000011,
                    "velocity": 0.25984251968503935,
                    "duration": 0.15000000000000568
                },
                {
                    "name": "D#3",
                    "midi": 51,
                    "time": 115.6500000000011,
                    "velocity": 0.2440944881889764,
                    "duration": 0.15000000000000568
                },
                {
                    "name": "G#2",
                    "midi": 44,
                    "time": 115.8000000000011,
                    "velocity": 0.25984251968503935,
                    "duration": 0.15000000000000568
                },
                {
                    "name": "D#3",
                    "midi": 51,
                    "time": 115.95000000000111,
                    "velocity": 0.2440944881889764,
                    "duration": 0.15000000000000568
                },
                {
                    "name": "G#2",
                    "midi": 44,
                    "time": 116.10000000000112,
                    "velocity": 0.25196850393700787,
                    "duration": 0.14999999999999147
                },
                {
                    "name": "D#3",
                    "midi": 51,
                    "time": 116.25000000000111,
                    "velocity": 0.2440944881889764,
                    "duration": 0.15000000000000568
                },
                {
                    "name": "G#2",
                    "midi": 44,
                    "time": 116.40000000000111,
                    "velocity": 0.25984251968503935,
                    "duration": 0.15000000000000568
                },
                {
                    "name": "D#3",
                    "midi": 51,
                    "time": 116.55000000000112,
                    "velocity": 0.2440944881889764,
                    "duration": 0.15000000000000568
                },
                {
                    "name": "G#2",
                    "midi": 44,
                    "time": 116.70000000000113,
                    "velocity": 0.25984251968503935,
                    "duration": 0.15000000000000568
                },
                {
                    "name": "D#3",
                    "midi": 51,
                    "time": 116.85000000000113,
                    "velocity": 0.25196850393700787,
                    "duration": 0.15000000000000568
                },
                {
                    "name": "G#2",
                    "midi": 44,
                    "time": 117.00000000000114,
                    "velocity": 0.2677165354330709,
                    "duration": 0.15000000000000568
                },
                {
                    "name": "D#3",
                    "midi": 51,
                    "time": 117.15000000000114,
                    "velocity": 0.25196850393700787,
                    "duration": 0.15000000000000568
                },
                {
                    "name": "G#2",
                    "midi": 44,
                    "time": 117.30000000000115,
                    "velocity": 0.2677165354330709,
                    "duration": 0.15000000000000568
                },
                {
                    "name": "D#3",
                    "midi": 51,
                    "time": 117.45000000000115,
                    "velocity": 0.25984251968503935,
                    "duration": 0.15000000000000568
                },
                {
                    "name": "G#2",
                    "midi": 44,
                    "time": 117.60000000000116,
                    "velocity": 0.28346456692913385,
                    "duration": 0.15000000000000568
                },
                {
                    "name": "D#3",
                    "midi": 51,
                    "time": 117.75000000000117,
                    "velocity": 0.2677165354330709,
                    "duration": 0.15000000000000568
                },
                {
                    "name": "G#2",
                    "midi": 44,
                    "time": 117.90000000000117,
                    "velocity": 0.25984251968503935,
                    "duration": 0.14999999999999147
                },
                {
                    "name": "D#3",
                    "midi": 51,
                    "time": 118.05000000000116,
                    "velocity": 0.2440944881889764,
                    "duration": 0.15000000000000568
                },
                {
                    "name": "G#2",
                    "midi": 44,
                    "time": 118.20000000000117,
                    "velocity": 0.25984251968503935,
                    "duration": 0.15000000000000568
                },
                {
                    "name": "D#3",
                    "midi": 51,
                    "time": 118.35000000000117,
                    "velocity": 0.2440944881889764,
                    "duration": 0.15000000000000568
                },
                {
                    "name": "G#2",
                    "midi": 44,
                    "time": 118.50000000000118,
                    "velocity": 0.25984251968503935,
                    "duration": 0.15000000000000568
                },
                {
                    "name": "D#3",
                    "midi": 51,
                    "time": 118.65000000000119,
                    "velocity": 0.2440944881889764,
                    "duration": 0.15000000000000568
                },
                {
                    "name": "G#2",
                    "midi": 44,
                    "time": 118.80000000000119,
                    "velocity": 0.29133858267716534,
                    "duration": 0.14999999999999147
                },
                {
                    "name": "D#2",
                    "midi": 39,
                    "time": 118.95000000000118,
                    "velocity": 0.25984251968503935,
                    "duration": 0.15000000000000568
                },
                {
                    "name": "G#2",
                    "midi": 44,
                    "time": 119.10000000000119,
                    "velocity": 0.29133858267716534,
                    "duration": 0.15000000000000568
                },
                {
                    "name": "D#3",
                    "midi": 51,
                    "time": 119.2500000000012,
                    "velocity": 0.28346456692913385,
                    "duration": 0.15000000000000568
                },
                {
                    "name": "G#2",
                    "midi": 44,
                    "time": 119.4000000000012,
                    "velocity": 0.29133858267716534,
                    "duration": 0.15000000000000568
                },
                {
                    "name": "D#3",
                    "midi": 51,
                    "time": 119.5500000000012,
                    "velocity": 0.28346456692913385,
                    "duration": 0.15000000000000568
                },
                {
                    "name": "G#3",
                    "midi": 56,
                    "time": 119.70000000000121,
                    "velocity": 0.30708661417322836,
                    "duration": 0.14999999999999147
                },
                {
                    "name": "D#3",
                    "midi": 51,
                    "time": 119.8500000000012,
                    "velocity": 0.2677165354330709,
                    "duration": 0.15000000000000568
                },
                {
                    "name": "G#3",
                    "midi": 56,
                    "time": 120.00000000000121,
                    "velocity": 0.29133858267716534,
                    "duration": 0.15000000000000568
                },
                {
                    "name": "D#4",
                    "midi": 63,
                    "time": 120.15000000000121,
                    "velocity": 0.2677165354330709,
                    "duration": 0.15000000000000568
                },
                {
                    "name": "G#3",
                    "midi": 56,
                    "time": 120.30000000000122,
                    "velocity": 0.28346456692913385,
                    "duration": 0.15000000000000568
                },
                {
                    "name": "D#3",
                    "midi": 51,
                    "time": 120.45000000000122,
                    "velocity": 0.2677165354330709,
                    "duration": 0.15000000000000568
                },
                {
                    "name": "G#3",
                    "midi": 56,
                    "time": 120.60000000000123,
                    "velocity": 0.29133858267716534,
                    "duration": 0.14999999999999147
                },
                {
                    "name": "D#3",
                    "midi": 51,
                    "time": 120.75000000000122,
                    "velocity": 0.2677165354330709,
                    "duration": 0.15000000000000568
                },
                {
                    "name": "G#2",
                    "midi": 44,
                    "time": 120.90000000000123,
                    "velocity": 0.2677165354330709,
                    "duration": 0.15000000000000568
                },
                {
                    "name": "D#3",
                    "midi": 51,
                    "time": 121.05000000000123,
                    "velocity": 0.25984251968503935,
                    "duration": 0.15000000000000568
                },
                {
                    "name": "G#2",
                    "midi": 44,
                    "time": 121.20000000000124,
                    "velocity": 0.2677165354330709,
                    "duration": 0.15000000000000568
                },
                {
                    "name": "D#2",
                    "midi": 39,
                    "time": 121.35000000000124,
                    "velocity": 0.25984251968503935,
                    "duration": 0.15000000000000568
                },
                {
                    "name": "G#2",
                    "midi": 44,
                    "time": 121.50000000000125,
                    "velocity": 0.29133858267716534,
                    "duration": 0.14999999999999147
                },
                {
                    "name": "D#2",
                    "midi": 39,
                    "time": 121.65000000000124,
                    "velocity": 0.25984251968503935,
                    "duration": 0.15000000000000568
                },
                {
                    "name": "G#2",
                    "midi": 44,
                    "time": 121.80000000000125,
                    "velocity": 0.29133858267716534,
                    "duration": 0.15000000000000568
                },
                {
                    "name": "D#3",
                    "midi": 51,
                    "time": 121.95000000000125,
                    "velocity": 0.28346456692913385,
                    "duration": 0.15000000000000568
                },
                {
                    "name": "G#2",
                    "midi": 44,
                    "time": 122.10000000000126,
                    "velocity": 0.29133858267716534,
                    "duration": 0.15000000000000568
                },
                {
                    "name": "D#3",
                    "midi": 51,
                    "time": 122.25000000000126,
                    "velocity": 0.28346456692913385,
                    "duration": 0.15000000000000568
                },
                {
                    "name": "G#3",
                    "midi": 56,
                    "time": 122.40000000000127,
                    "velocity": 0.30708661417322836,
                    "duration": 0.15000000000000568
                },
                {
                    "name": "D#3",
                    "midi": 51,
                    "time": 122.55000000000128,
                    "velocity": 0.2677165354330709,
                    "duration": 0.15000000000000568
                },
                {
                    "name": "G#3",
                    "midi": 56,
                    "time": 122.70000000000128,
                    "velocity": 0.29133858267716534,
                    "duration": 0.15000000000000568
                },
                {
                    "name": "D#4",
                    "midi": 63,
                    "time": 122.85000000000129,
                    "velocity": 0.2677165354330709,
                    "duration": 0.15000000000000568
                },
                {
                    "name": "G#3",
                    "midi": 56,
                    "time": 123.0000000000013,
                    "velocity": 0.28346456692913385,
                    "duration": 0.15000000000000568
                },
                {
                    "name": "D#3",
                    "midi": 51,
                    "time": 123.1500000000013,
                    "velocity": 0.2677165354330709,
                    "duration": 0.15000000000000568
                },
                {
                    "name": "G#3",
                    "midi": 56,
                    "time": 123.3000000000013,
                    "velocity": 0.29133858267716534,
                    "duration": 0.14999999999999147
                },
                {
                    "name": "D#3",
                    "midi": 51,
                    "time": 123.4500000000013,
                    "velocity": 0.29133858267716534,
                    "duration": 0.15000000000000568
                },
                {
                    "name": "G#3",
                    "midi": 56,
                    "time": 123.6000000000013,
                    "velocity": 0.2677165354330709,
                    "duration": 0.15000000000000568
                },
                {
                    "name": "D#3",
                    "midi": 51,
                    "time": 123.75000000000131,
                    "velocity": 0.25984251968503935,
                    "duration": 0.15000000000000568
                },
                {
                    "name": "G#3",
                    "midi": 56,
                    "time": 123.90000000000131,
                    "velocity": 0.2677165354330709,
                    "duration": 0.15000000000000568
                },
                {
                    "name": "D#3",
                    "midi": 51,
                    "time": 124.05000000000132,
                    "velocity": 0.25984251968503935,
                    "duration": 0.15000000000000568
                },
                {
                    "name": "C#4",
                    "midi": 61,
                    "time": 124.20000000000132,
                    "velocity": 0.31496062992125984,
                    "duration": 1.7999999999999972
                },
                {
                    "name": "F#3",
                    "midi": 54,
                    "time": 124.20000000000132,
                    "velocity": 0.31496062992125984,
                    "duration": 0.5999999999999943
                },
                {
                    "name": "G#3",
                    "midi": 56,
                    "time": 124.80000000000132,
                    "velocity": 0.30708661417322836,
                    "duration": 0.29999999999999716
                },
                {
                    "name": "A#3",
                    "midi": 58,
                    "time": 125.10000000000132,
                    "velocity": 0.33070866141732286,
                    "duration": 0.6000000000000085
                },
                {
                    "name": "C#4",
                    "midi": 61,
                    "time": 125.70000000000132,
                    "velocity": 0.31496062992125984,
                    "duration": 0.29999999999999716
                },
                {
                    "name": "C4",
                    "midi": 60,
                    "time": 126.00000000000132,
                    "velocity": 0.31496062992125984,
                    "duration": 0.9000000000000057
                },
                {
                    "name": "D#4",
                    "midi": 63,
                    "time": 126.15000000000131,
                    "velocity": 0.23622047244094488,
                    "duration": 0.15000000000000568
                },
                {
                    "name": "F#4",
                    "midi": 66,
                    "time": 126.30000000000132,
                    "velocity": 0.23622047244094488,
                    "duration": 0.15000000000000568
                },
                {
                    "name": "A#4",
                    "midi": 70,
                    "time": 126.45000000000132,
                    "velocity": 0.23622047244094488,
                    "duration": 0.15000000000000568
                },
                {
                    "name": "C#4",
                    "midi": 61,
                    "time": 126.90000000000133,
                    "velocity": 0.31496062992125984,
                    "duration": 1.8000000000000256
                },
                {
                    "name": "F#3",
                    "midi": 54,
                    "time": 126.90000000000133,
                    "velocity": 0.31496062992125984,
                    "duration": 0.6000000000000085
                },
                {
                    "name": "G#3",
                    "midi": 56,
                    "time": 127.50000000000134,
                    "velocity": 0.30708661417322836,
                    "duration": 0.29999999999999716
                },
                {
                    "name": "A#3",
                    "midi": 58,
                    "time": 127.80000000000133,
                    "velocity": 0.33070866141732286,
                    "duration": 0.6000000000000085
                },
                {
                    "name": "C#4",
                    "midi": 61,
                    "time": 128.40000000000134,
                    "velocity": 0.31496062992125984,
                    "duration": 0.30000000000001137
                },
                {
                    "name": "C4",
                    "midi": 60,
                    "time": 128.70000000000135,
                    "velocity": 0.31496062992125984,
                    "duration": 0.9000000000000341
                },
                {
                    "name": "D#4",
                    "midi": 63,
                    "time": 128.85000000000136,
                    "velocity": 0.23622047244094488,
                    "duration": 0.15000000000000568
                },
                {
                    "name": "F#4",
                    "midi": 66,
                    "time": 129.00000000000136,
                    "velocity": 0.23622047244094488,
                    "duration": 0.15000000000000568
                },
                {
                    "name": "A#4",
                    "midi": 70,
                    "time": 129.15000000000137,
                    "velocity": 0.23622047244094488,
                    "duration": 0.15000000000000568
                },
                {
                    "name": "F#4",
                    "midi": 66,
                    "time": 129.6000000000014,
                    "velocity": 0.3464566929133858,
                    "duration": 1.049999999999983
                },
                {
                    "name": "A#4",
                    "midi": 70,
                    "time": 129.75000000000136,
                    "velocity": 0.29133858267716534,
                    "duration": 0.15000000000000568
                },
                {
                    "name": "C#5",
                    "midi": 73,
                    "time": 129.90000000000137,
                    "velocity": 0.29133858267716534,
                    "duration": 0.15000000000000568
                },
                {
                    "name": "F#4",
                    "midi": 66,
                    "time": 130.50000000000136,
                    "velocity": 0.28346456692913385,
                    "duration": 1.049999999999983
                },
                {
                    "name": "A#4",
                    "midi": 70,
                    "time": 130.65000000000137,
                    "velocity": 0.25196850393700787,
                    "duration": 0.15000000000000568
                },
                {
                    "name": "C#5",
                    "midi": 73,
                    "time": 130.80000000000138,
                    "velocity": 0.25196850393700787,
                    "duration": 0.15000000000000568
                },
                {
                    "name": "F#4",
                    "midi": 66,
                    "time": 131.40000000000137,
                    "velocity": 0.29133858267716534,
                    "duration": 0.8999999999999773
                },
                {
                    "name": "A#4",
                    "midi": 70,
                    "time": 131.55000000000135,
                    "velocity": 0.2440944881889764,
                    "duration": 0.15000000000000568
                },
                {
                    "name": "C#5",
                    "midi": 73,
                    "time": 131.70000000000135,
                    "velocity": 0.2440944881889764,
                    "duration": 0.15000000000000568
                },
                {
                    "name": "F#4",
                    "midi": 66,
                    "time": 132.30000000000135,
                    "velocity": 0.30708661417322836,
                    "duration": 1.0499999999999545
                },
                {
                    "name": "A4",
                    "midi": 69,
                    "time": 132.45000000000132,
                    "velocity": 0.23622047244094488,
                    "duration": 0.15000000000000568
                },
                {
                    "name": "C#5",
                    "midi": 73,
                    "time": 132.60000000000133,
                    "velocity": 0.23622047244094488,
                    "duration": 0.15000000000000568
                },
                {
                    "name": "F#4",
                    "midi": 66,
                    "time": 133.20000000000132,
                    "velocity": 0.2677165354330709,
                    "duration": 1.049999999999983
                },
                {
                    "name": "A4",
                    "midi": 69,
                    "time": 133.3500000000013,
                    "velocity": 0.23622047244094488,
                    "duration": 0.15000000000000568
                },
                {
                    "name": "C#5",
                    "midi": 73,
                    "time": 133.5000000000013,
                    "velocity": 0.2204724409448819,
                    "duration": 0.15000000000000568
                },
                {
                    "name": "F#4",
                    "midi": 66,
                    "time": 134.1000000000013,
                    "velocity": 0.2677165354330709,
                    "duration": 0.9000000000000057
                },
                {
                    "name": "A4",
                    "midi": 69,
                    "time": 134.2500000000013,
                    "velocity": 0.2204724409448819,
                    "duration": 0.15000000000000568
                },
                {
                    "name": "C#5",
                    "midi": 73,
                    "time": 134.4000000000013,
                    "velocity": 0.2204724409448819,
                    "duration": 0.15000000000000568
                },
                {
                    "name": "F4",
                    "midi": 65,
                    "time": 135.0000000000013,
                    "velocity": 0.25196850393700787,
                    "duration": 1.8000000000000398
                },
                {
                    "name": "G#4",
                    "midi": 68,
                    "time": 135.1500000000013,
                    "velocity": 0.25196850393700787,
                    "duration": 0.15000000000000568
                },
                {
                    "name": "C5",
                    "midi": 72,
                    "time": 135.30000000000132,
                    "velocity": 0.25196850393700787,
                    "duration": 0.15000000000000568
                },
                {
                    "name": "F5",
                    "midi": 77,
                    "time": 135.45000000000132,
                    "velocity": 0.25196850393700787,
                    "duration": 0.15000000000000568
                },
                {
                    "name": "G#5",
                    "midi": 80,
                    "time": 135.60000000000133,
                    "velocity": 0.25196850393700787,
                    "duration": 0.15000000000000568
                },
                {
                    "name": "C6",
                    "midi": 84,
                    "time": 135.75000000000134,
                    "velocity": 0.25196850393700787,
                    "duration": 0.15000000000000568
                },
                {
                    "name": "F4",
                    "midi": 65,
                    "time": 136.80000000000135,
                    "velocity": 0.2283464566929134,
                    "duration": 0.8999999999999773
                },
                {
                    "name": "F4",
                    "midi": 65,
                    "time": 137.70000000000132,
                    "velocity": 0.23622047244094488,
                    "duration": 1.8000000000000114
                },
                {
                    "name": "A4",
                    "midi": 69,
                    "time": 137.85000000000133,
                    "velocity": 0.23622047244094488,
                    "duration": 0.15000000000000568
                },
                {
                    "name": "C5",
                    "midi": 72,
                    "time": 138.00000000000134,
                    "velocity": 0.2283464566929134,
                    "duration": 0.15000000000000568
                },
                {
                    "name": "D#5",
                    "midi": 75,
                    "time": 138.15000000000134,
                    "velocity": 0.2204724409448819,
                    "duration": 0.15000000000000568
                },
                {
                    "name": "F5",
                    "midi": 77,
                    "time": 138.30000000000135,
                    "velocity": 0.2125984251968504,
                    "duration": 0.15000000000000568
                },
                {
                    "name": "A5",
                    "midi": 81,
                    "time": 138.45000000000135,
                    "velocity": 0.2125984251968504,
                    "duration": 0.15000000000000568
                },
                {
                    "name": "F4",
                    "midi": 65,
                    "time": 139.50000000000134,
                    "velocity": 0.2204724409448819,
                    "duration": 0.9000000000000057
                },
                {
                    "name": "F4",
                    "midi": 65,
                    "time": 140.40000000000134,
                    "velocity": 0.2283464566929134,
                    "duration": 1.8000000000000398
                },
                {
                    "name": "G#4",
                    "midi": 68,
                    "time": 140.55000000000135,
                    "velocity": 0.2283464566929134,
                    "duration": 0.15000000000000568
                },
                {
                    "name": "A#4",
                    "midi": 70,
                    "time": 140.70000000000135,
                    "velocity": 0.2204724409448819,
                    "duration": 0.15000000000000568
                },
                {
                    "name": "C#5",
                    "midi": 73,
                    "time": 140.85000000000136,
                    "velocity": 0.2204724409448819,
                    "duration": 0.15000000000000568
                },
                {
                    "name": "F5",
                    "midi": 77,
                    "time": 141.00000000000136,
                    "velocity": 0.2125984251968504,
                    "duration": 0.15000000000000568
                },
                {
                    "name": "G#5",
                    "midi": 80,
                    "time": 141.15000000000137,
                    "velocity": 0.2125984251968504,
                    "duration": 0.15000000000000568
                },
                {
                    "name": "F4",
                    "midi": 65,
                    "time": 142.20000000000138,
                    "velocity": 0.2204724409448819,
                    "duration": 0.9000000000000057
                },
                {
                    "name": "D#4",
                    "midi": 63,
                    "time": 143.1000000000014,
                    "velocity": 0.2204724409448819,
                    "duration": 1.8000000000000114
                },
                {
                    "name": "F#4",
                    "midi": 66,
                    "time": 143.2500000000014,
                    "velocity": 0.2204724409448819,
                    "duration": 0.15000000000000568
                },
                {
                    "name": "G#4",
                    "midi": 68,
                    "time": 143.4000000000014,
                    "velocity": 0.2047244094488189,
                    "duration": 0.15000000000000568
                },
                {
                    "name": "C5",
                    "midi": 72,
                    "time": 143.5500000000014,
                    "velocity": 0.1968503937007874,
                    "duration": 0.15000000000000568
                },
                {
                    "name": "D#5",
                    "midi": 75,
                    "time": 143.7000000000014,
                    "velocity": 0.1968503937007874,
                    "duration": 0.15000000000000568
                },
                {
                    "name": "F#5",
                    "midi": 78,
                    "time": 143.85000000000142,
                    "velocity": 0.18110236220472442,
                    "duration": 0.15000000000000568
                },
                {
                    "name": "D#4",
                    "midi": 63,
                    "time": 144.9000000000014,
                    "velocity": 0.2125984251968504,
                    "duration": 0.9000000000000057
                },
                {
                    "name": "C#4",
                    "midi": 61,
                    "time": 145.8000000000014,
                    "velocity": 0.25196850393700787,
                    "duration": 1.799999999999983
                },
                {
                    "name": "D#4",
                    "midi": 63,
                    "time": 145.9500000000014,
                    "velocity": 0.25196850393700787,
                    "duration": 0.15000000000000568
                },
                {
                    "name": "F#4",
                    "midi": 66,
                    "time": 146.10000000000142,
                    "velocity": 0.25196850393700787,
                    "duration": 0.15000000000000568
                },
                {
                    "name": "A#4",
                    "midi": 70,
                    "time": 146.25000000000142,
                    "velocity": 0.25196850393700787,
                    "duration": 0.15000000000000568
                },
                {
                    "name": "C#5",
                    "midi": 73,
                    "time": 146.40000000000143,
                    "velocity": 0.25196850393700787,
                    "duration": 0.15000000000000568
                },
                {
                    "name": "D#5",
                    "midi": 75,
                    "time": 146.55000000000143,
                    "velocity": 0.25196850393700787,
                    "duration": 0.15000000000000568
                },
                {
                    "name": "C4",
                    "midi": 60,
                    "time": 147.30000000000143,
                    "velocity": 0.1889763779527559,
                    "duration": 1.1999999999999602
                },
                {
                    "name": "D#4",
                    "midi": 63,
                    "time": 147.37500000000142,
                    "velocity": 0.1889763779527559,
                    "duration": 1.1249999999999716
                },
                {
                    "name": "F4",
                    "midi": 65,
                    "time": 147.4500000000014,
                    "velocity": 0.1889763779527559,
                    "duration": 1.049999999999983
                },
                {
                    "name": "G#4",
                    "midi": 68,
                    "time": 147.5250000000014,
                    "velocity": 0.1889763779527559,
                    "duration": 0.9749999999999943
                },
                {
                    "name": "C5",
                    "midi": 72,
                    "time": 147.6000000000014,
                    "velocity": 0.1889763779527559,
                    "duration": 0.9000000000000057
                },
                {
                    "name": "C3",
                    "midi": 48,
                    "time": 148.5000000000014,
                    "velocity": 0.23622047244094488,
                    "duration": 1.8000000000000114
                },
                {
                    "name": "F#3",
                    "midi": 54,
                    "time": 148.6500000000014,
                    "velocity": 0.23622047244094488,
                    "duration": 0.15000000000000568
                },
                {
                    "name": "A#3",
                    "midi": 58,
                    "time": 148.8000000000014,
                    "velocity": 0.2283464566929134,
                    "duration": 0.15000000000000568
                },
                {
                    "name": "C4",
                    "midi": 60,
                    "time": 148.9500000000014,
                    "velocity": 0.2283464566929134,
                    "duration": 0.15000000000000568
                },
                {
                    "name": "D#4",
                    "midi": 63,
                    "time": 149.10000000000142,
                    "velocity": 0.2204724409448819,
                    "duration": 0.15000000000000568
                },
                {
                    "name": "F#4",
                    "midi": 66,
                    "time": 149.25000000000142,
                    "velocity": 0.2204724409448819,
                    "duration": 0.15000000000000568
                },
                {
                    "name": "A#4",
                    "midi": 70,
                    "time": 149.40000000000143,
                    "velocity": 0.2283464566929134,
                    "duration": 0.8999999999999773
                },
                {
                    "name": "D#4",
                    "midi": 63,
                    "time": 150.3000000000014,
                    "velocity": 0.2283464566929134,
                    "duration": 0.9000000000000057
                },
                {
                    "name": "C4",
                    "midi": 60,
                    "time": 150.3000000000014,
                    "velocity": 0.2283464566929134,
                    "duration": 0.9000000000000057
                },
                {
                    "name": "F3",
                    "midi": 53,
                    "time": 150.3000000000014,
                    "velocity": 0.2283464566929134,
                    "duration": 0.9000000000000057
                },
                {
                    "name": "G#3",
                    "midi": 56,
                    "time": 151.2000000000014,
                    "velocity": 0.23622047244094488,
                    "duration": 1.8000000000000114
                },
                {
                    "name": "A#3",
                    "midi": 58,
                    "time": 151.35000000000142,
                    "velocity": 0.2204724409448819,
                    "duration": 0.15000000000000568
                },
                {
                    "name": "C#4",
                    "midi": 61,
                    "time": 151.50000000000142,
                    "velocity": 0.2204724409448819,
                    "duration": 0.15000000000000568
                },
                {
                    "name": "F4",
                    "midi": 65,
                    "time": 151.65000000000143,
                    "velocity": 0.2125984251968504,
                    "duration": 0.15000000000000568
                },
                {
                    "name": "G#4",
                    "midi": 68,
                    "time": 151.80000000000143,
                    "velocity": 0.2125984251968504,
                    "duration": 0.15000000000000568
                },
                {
                    "name": "A#4",
                    "midi": 70,
                    "time": 151.95000000000144,
                    "velocity": 0.2125984251968504,
                    "duration": 0.15000000000000568
                },
                {
                    "name": "F#3",
                    "midi": 54,
                    "time": 152.77500000000146,
                    "velocity": 0.2125984251968504,
                    "duration": 1.1249999999999716
                },
                {
                    "name": "A#3",
                    "midi": 58,
                    "time": 152.85000000000144,
                    "velocity": 0.2125984251968504,
                    "duration": 1.049999999999983
                },
                {
                    "name": "C#4",
                    "midi": 61,
                    "time": 152.92500000000143,
                    "velocity": 0.2125984251968504,
                    "duration": 0.9749999999999943
                },
                {
                    "name": "D#4",
                    "midi": 63,
                    "time": 153.00000000000142,
                    "velocity": 0.2125984251968504,
                    "duration": 0.9000000000000057
                },
                {
                    "name": "F3",
                    "midi": 53,
                    "time": 153.90000000000143,
                    "velocity": 0.2283464566929134,
                    "duration": 1.8000000000000398
                },
                {
                    "name": "G#3",
                    "midi": 56,
                    "time": 154.05000000000143,
                    "velocity": 0.2283464566929134,
                    "duration": 0.15000000000000568
                },
                {
                    "name": "A#3",
                    "midi": 58,
                    "time": 154.20000000000144,
                    "velocity": 0.2204724409448819,
                    "duration": 0.15000000000000568
                },
                {
                    "name": "C#4",
                    "midi": 61,
                    "time": 154.35000000000144,
                    "velocity": 0.2204724409448819,
                    "duration": 0.15000000000000568
                },
                {
                    "name": "F4",
                    "midi": 65,
                    "time": 154.50000000000145,
                    "velocity": 0.2125984251968504,
                    "duration": 0.15000000000000568
                },
                {
                    "name": "G#4",
                    "midi": 68,
                    "time": 154.65000000000146,
                    "velocity": 0.2125984251968504,
                    "duration": 0.15000000000000568
                },
                {
                    "name": "D#3",
                    "midi": 51,
                    "time": 155.70000000000147,
                    "velocity": 0.25196850393700787,
                    "duration": 0.45000000000001705
                },
                {
                    "name": "F#3",
                    "midi": 54,
                    "time": 155.70000000000147,
                    "velocity": 0.25196850393700787,
                    "duration": 0.9000000000000057
                },
                {
                    "name": "C4",
                    "midi": 60,
                    "time": 155.70000000000147,
                    "velocity": 0.25196850393700787,
                    "duration": 0.9000000000000057
                },
                {
                    "name": "G#2",
                    "midi": 44,
                    "time": 156.15000000000148,
                    "velocity": 0.25196850393700787,
                    "duration": 2.25
                },
                {
                    "name": "C#2",
                    "midi": 37,
                    "time": 156.60000000000147,
                    "velocity": 0.2204724409448819,
                    "duration": 1.8000000000000114
                },
                {
                    "name": "F4",
                    "midi": 65,
                    "time": 157.20000000000147,
                    "velocity": 0.25984251968503935,
                    "duration": 2.1000000000000227
                },
                {
                    "name": "G#4",
                    "midi": 68,
                    "time": 157.20000000000147,
                    "velocity": 0.25984251968503935,
                    "duration": 2.1000000000000227
                },
                {
                    "name": "B3",
                    "midi": 59,
                    "time": 157.50000000000148,
                    "velocity": 0.2204724409448819,
                    "duration": 1.8000000000000114
                },
                {
                    "name": "F#2",
                    "midi": 42,
                    "time": 159.3000000000015,
                    "velocity": 0.2047244094488189,
                    "duration": 1.799999999999983
                },
                {
                    "name": "C#3",
                    "midi": 49,
                    "time": 159.3000000000015,
                    "velocity": 0.2440944881889764,
                    "duration": 1.799999999999983
                },
                {
                    "name": "C#4",
                    "midi": 61,
                    "time": 159.60000000000147,
                    "velocity": 0.1968503937007874,
                    "duration": 2.4000000000000057
                },
                {
                    "name": "A#3",
                    "midi": 58,
                    "time": 159.60000000000147,
                    "velocity": 0.16535433070866143,
                    "duration": 2.4000000000000057
                },
                {
                    "name": "F#3",
                    "midi": 54,
                    "time": 159.60000000000147,
                    "velocity": 0.16535433070866143,
                    "duration": 2.4000000000000057
                },
                {
                    "name": "C#3",
                    "midi": 49,
                    "time": 159.60000000000147,
                    "velocity": 0.16535433070866143,
                    "duration": 2.4000000000000057
                },
                {
                    "name": "G#2",
                    "midi": 44,
                    "time": 162.00000000000148,
                    "velocity": 0.25984251968503935,
                    "duration": 1.8000000000000114
                },
                {
                    "name": "F3",
                    "midi": 53,
                    "time": 162.3000000000015,
                    "velocity": 0.2440944881889764,
                    "duration": 0.5999999999999943
                },
                {
                    "name": "G#3",
                    "midi": 56,
                    "time": 162.3000000000015,
                    "velocity": 0.2440944881889764,
                    "duration": 0.5999999999999943
                },
                {
                    "name": "B3",
                    "midi": 59,
                    "time": 162.90000000000148,
                    "velocity": 0.2047244094488189,
                    "duration": 1.8000000000000398
                },
                {
                    "name": "F4",
                    "midi": 65,
                    "time": 162.90000000000148,
                    "velocity": 0.2440944881889764,
                    "duration": 0.897500000000008
                },
                {
                    "name": "C#4",
                    "midi": 61,
                    "time": 162.90000000000148,
                    "velocity": 0.2440944881889764,
                    "duration": 0.9000000000000057
                },
                {
                    "name": "C#4",
                    "midi": 61,
                    "time": 163.8000000000015,
                    "velocity": 0.23622047244094488,
                    "duration": 0.9000000000000341
                },
                {
                    "name": "A#2",
                    "midi": 46,
                    "time": 164.70000000000152,
                    "velocity": 0.2440944881889764,
                    "duration": 1.8000000000000114
                },
                {
                    "name": "D#4",
                    "midi": 63,
                    "time": 165.00000000000153,
                    "velocity": 0.1968503937007874,
                    "duration": 1.5
                },
                {
                    "name": "A#3",
                    "midi": 58,
                    "time": 165.00000000000153,
                    "velocity": 0.1968503937007874,
                    "duration": 2.4000000000000057
                },
                {
                    "name": "F3",
                    "midi": 53,
                    "time": 165.00000000000153,
                    "velocity": 0.16535433070866143,
                    "duration": 2.4000000000000057
                },
                {
                    "name": "C#4",
                    "midi": 61,
                    "time": 166.50000000000153,
                    "velocity": 0.23622047244094488,
                    "duration": 0.9000000000000057
                },
                {
                    "name": "F2",
                    "midi": 41,
                    "time": 167.40000000000154,
                    "velocity": 0.2677165354330709,
                    "duration": 2.6999999999999886
                },
                {
                    "name": "D#2",
                    "midi": 39,
                    "time": 170.10000000000153,
                    "velocity": 0.2677165354330709,
                    "duration": 1.8000000000000114
                },
                {
                    "name": "D#3",
                    "midi": 51,
                    "time": 171.00000000000153,
                    "velocity": 0.1968503937007874,
                    "duration": 0.9000000000000057
                },
                {
                    "name": "D#4",
                    "midi": 63,
                    "time": 171.90000000000154,
                    "velocity": 0.2047244094488189,
                    "duration": 0.8999999999999773
                },
                {
                    "name": "G#2",
                    "midi": 44,
                    "time": 172.80000000000152,
                    "velocity": 0.2677165354330709,
                    "duration": 1.799999999999983
                },
                {
                    "name": "D#3",
                    "midi": 51,
                    "time": 173.2500000000015,
                    "velocity": 0.2440944881889764,
                    "duration": 0.44999999999998863
                },
                {
                    "name": "G#5",
                    "midi": 80,
                    "time": 173.7000000000015,
                    "velocity": 0.1968503937007874,
                    "duration": 0.9000000000000057
                },
                {
                    "name": "G#3",
                    "midi": 56,
                    "time": 174.6000000000015,
                    "velocity": 0.1968503937007874,
                    "duration": 0.9000000000000057
                },
                {
                    "name": "C#2",
                    "midi": 37,
                    "time": 175.5000000000015,
                    "velocity": 0.2440944881889764,
                    "duration": 0.9000000000000341
                },
                {
                    "name": "G#2",
                    "midi": 44,
                    "time": 175.6500000000015,
                    "velocity": 0.2125984251968504,
                    "duration": 0.15000000000000568
                },
                {
                    "name": "C#3",
                    "midi": 49,
                    "time": 175.80000000000152,
                    "velocity": 0.2047244094488189,
                    "duration": 0.15000000000000568
                },
                {
                    "name": "F3",
                    "midi": 53,
                    "time": 175.95000000000152,
                    "velocity": 0.2047244094488189,
                    "duration": 0.15000000000000568
                },
                {
                    "name": "F2",
                    "midi": 41,
                    "time": 176.40000000000154,
                    "velocity": 0.2440944881889764,
                    "duration": 0.8999999999999773
                },
                {
                    "name": "C3",
                    "midi": 48,
                    "time": 176.55000000000152,
                    "velocity": 0.2204724409448819,
                    "duration": 0.15000000000000568
                },
                {
                    "name": "F3",
                    "midi": 53,
                    "time": 176.70000000000152,
                    "velocity": 0.2125984251968504,
                    "duration": 0.15000000000000568
                },
                {
                    "name": "C#2",
                    "midi": 37,
                    "time": 177.30000000000152,
                    "velocity": 0.2440944881889764,
                    "duration": 0.9000000000000057
                },
                {
                    "name": "G#2",
                    "midi": 44,
                    "time": 177.4500000000015,
                    "velocity": 0.2204724409448819,
                    "duration": 0.15000000000000568
                },
                {
                    "name": "C#3",
                    "midi": 49,
                    "time": 177.6000000000015,
                    "velocity": 0.2204724409448819,
                    "duration": 0.15000000000000568
                },
                {
                    "name": "F3",
                    "midi": 53,
                    "time": 177.7500000000015,
                    "velocity": 0.2125984251968504,
                    "duration": 0.15000000000000568
                },
                {
                    "name": "F2",
                    "midi": 41,
                    "time": 178.20000000000152,
                    "velocity": 0.2440944881889764,
                    "duration": 0.9000000000000057
                },
                {
                    "name": "C3",
                    "midi": 48,
                    "time": 178.35000000000153,
                    "velocity": 0.2204724409448819,
                    "duration": 0.15000000000000568
                },
                {
                    "name": "F3",
                    "midi": 53,
                    "time": 178.50000000000153,
                    "velocity": 0.2204724409448819,
                    "duration": 0.15000000000000568
                },
                {
                    "name": "G#2",
                    "midi": 44,
                    "time": 179.10000000000153,
                    "velocity": 0.2440944881889764,
                    "duration": 1.8000000000000398
                },
                {
                    "name": "E3",
                    "midi": 52,
                    "time": 179.25000000000153,
                    "velocity": 0.2204724409448819,
                    "duration": 0.15000000000000568
                },
                {
                    "name": "G#3",
                    "midi": 56,
                    "time": 179.40000000000154,
                    "velocity": 0.2204724409448819,
                    "duration": 0.15000000000000568
                },
                {
                    "name": "B3",
                    "midi": 59,
                    "time": 179.55000000000155,
                    "velocity": 0.2125984251968504,
                    "duration": 0.15000000000000568
                },
                {
                    "name": "E4",
                    "midi": 64,
                    "time": 179.70000000000155,
                    "velocity": 0.2125984251968504,
                    "duration": 0.15000000000000568
                },
                {
                    "name": "F#4",
                    "midi": 66,
                    "time": 179.85000000000156,
                    "velocity": 0.2125984251968504,
                    "duration": 0.15000000000000568
                },
                {
                    "name": "G#4",
                    "midi": 68,
                    "time": 180.00000000000156,
                    "velocity": 0.2125984251968504,
                    "duration": 0.9000000000000057
                },
                {
                    "name": "C#3",
                    "midi": 49,
                    "time": 180.90000000000157,
                    "velocity": 0.2440944881889764,
                    "duration": 0.9000000000000057
                },
                {
                    "name": "G#3",
                    "midi": 56,
                    "time": 181.05000000000155,
                    "velocity": 0.23622047244094488,
                    "duration": 0.15000000000000568
                },
                {
                    "name": "C#4",
                    "midi": 61,
                    "time": 181.20000000000155,
                    "velocity": 0.2047244094488189,
                    "duration": 0.15000000000000568
                },
                {
                    "name": "F4",
                    "midi": 65,
                    "time": 181.35000000000156,
                    "velocity": 0.2047244094488189,
                    "duration": 0.15000000000000568
                },
                {
                    "name": "F3",
                    "midi": 53,
                    "time": 181.80000000000157,
                    "velocity": 0.2440944881889764,
                    "duration": 0.9000000000000057
                },
                {
                    "name": "C4",
                    "midi": 60,
                    "time": 181.95000000000158,
                    "velocity": 0.2204724409448819,
                    "duration": 0.15000000000000568
                },
                {
                    "name": "F4",
                    "midi": 65,
                    "time": 182.1000000000016,
                    "velocity": 0.2125984251968504,
                    "duration": 0.15000000000000568
                },
                {
                    "name": "C#3",
                    "midi": 49,
                    "time": 182.70000000000158,
                    "velocity": 0.2440944881889764,
                    "duration": 0.9000000000000341
                },
                {
                    "name": "G#3",
                    "midi": 56,
                    "time": 182.8500000000016,
                    "velocity": 0.2204724409448819,
                    "duration": 0.15000000000000568
                },
                {
                    "name": "C#4",
                    "midi": 61,
                    "time": 183.0000000000016,
                    "velocity": 0.2204724409448819,
                    "duration": 0.15000000000000568
                },
                {
                    "name": "F4",
                    "midi": 65,
                    "time": 183.1500000000016,
                    "velocity": 0.2125984251968504,
                    "duration": 0.15000000000000568
                },
                {
                    "name": "F3",
                    "midi": 53,
                    "time": 183.60000000000161,
                    "velocity": 0.2440944881889764,
                    "duration": 0.9000000000000057
                },
                {
                    "name": "C4",
                    "midi": 60,
                    "time": 183.75000000000162,
                    "velocity": 0.2204724409448819,
                    "duration": 0.15000000000000568
                },
                {
                    "name": "F4",
                    "midi": 65,
                    "time": 183.90000000000163,
                    "velocity": 0.2204724409448819,
                    "duration": 0.15000000000000568
                },
                {
                    "name": "G#3",
                    "midi": 56,
                    "time": 184.50000000000162,
                    "velocity": 0.2440944881889764,
                    "duration": 1.8000000000000114
                },
                {
                    "name": "B3",
                    "midi": 59,
                    "time": 184.6500000000016,
                    "velocity": 0.1968503937007874,
                    "duration": 0.15000000000000568
                },
                {
                    "name": "E4",
                    "midi": 64,
                    "time": 184.8000000000016,
                    "velocity": 0.1968503937007874,
                    "duration": 0.15000000000000568
                },
                {
                    "name": "G#4",
                    "midi": 68,
                    "time": 184.9500000000016,
                    "velocity": 0.1889763779527559,
                    "duration": 0.15000000000000568
                },
                {
                    "name": "B4",
                    "midi": 71,
                    "time": 185.10000000000161,
                    "velocity": 0.1889763779527559,
                    "duration": 0.15000000000000568
                },
                {
                    "name": "E5",
                    "midi": 76,
                    "time": 185.25000000000162,
                    "velocity": 0.1732283464566929,
                    "duration": 1.0500000000000114
                },
                {
                    "name": "G#3",
                    "midi": 56,
                    "time": 186.30000000000163,
                    "velocity": 0.2440944881889764,
                    "duration": 1.8000000000000398
                },
                {
                    "name": "B3",
                    "midi": 59,
                    "time": 186.45000000000164,
                    "velocity": 0.1968503937007874,
                    "duration": 0.15000000000000568
                },
                {
                    "name": "E4",
                    "midi": 64,
                    "time": 186.60000000000164,
                    "velocity": 0.1968503937007874,
                    "duration": 0.15000000000000568
                },
                {
                    "name": "G#4",
                    "midi": 68,
                    "time": 186.75000000000165,
                    "velocity": 0.1889763779527559,
                    "duration": 0.15000000000000568
                },
                {
                    "name": "B4",
                    "midi": 71,
                    "time": 186.90000000000165,
                    "velocity": 0.1889763779527559,
                    "duration": 0.15000000000000568
                },
                {
                    "name": "E5",
                    "midi": 76,
                    "time": 187.05000000000166,
                    "velocity": 0.1732283464566929,
                    "duration": 1.0500000000000114
                },
                {
                    "name": "G#2",
                    "midi": 44,
                    "time": 188.10000000000167,
                    "velocity": 0.23622047244094488,
                    "duration": 0.9000000000000057
                },
                {
                    "name": "C#2",
                    "midi": 37,
                    "time": 189.00000000000168,
                    "velocity": 0.25984251968503935,
                    "duration": 1.8000000000000398
                },
                {
                    "name": "G#2",
                    "midi": 44,
                    "time": 189.15000000000165,
                    "velocity": 0.2047244094488189,
                    "duration": 0.15000000000000568
                },
                {
                    "name": "C#3",
                    "midi": 49,
                    "time": 189.30000000000166,
                    "velocity": 0.1889763779527559,
                    "duration": 0.15000000000000568
                },
                {
                    "name": "F3",
                    "midi": 53,
                    "time": 189.45000000000167,
                    "velocity": 0.1732283464566929,
                    "duration": 0.15000000000000568
                },
                {
                    "name": "G#3",
                    "midi": 56,
                    "time": 189.60000000000167,
                    "velocity": 0.16535433070866143,
                    "duration": 0.15000000000000568
                },
                {
                    "name": "C#4",
                    "midi": 61,
                    "time": 189.75000000000168,
                    "velocity": 0.15748031496062992,
                    "duration": 0.15000000000000568
                },
                {
                    "name": "F4",
                    "midi": 65,
                    "time": 189.90000000000168,
                    "velocity": 0.2125984251968504,
                    "duration": 0.30000000000001137
                },
                {
                    "name": "G#4",
                    "midi": 68,
                    "time": 190.2000000000017,
                    "velocity": 0.1732283464566929,
                    "duration": 0.30000000000001137
                },
                {
                    "name": "C#5",
                    "midi": 73,
                    "time": 190.5000000000017,
                    "velocity": 0.1732283464566929,
                    "duration": 0.30000000000001137
                },
                {
                    "name": "F5",
                    "midi": 77,
                    "time": 190.80000000000172,
                    "velocity": 0.2125984251968504,
                    "duration": 0.30000000000001137
                },
                {
                    "name": "G#5",
                    "midi": 80,
                    "time": 191.10000000000173,
                    "velocity": 0.1732283464566929,
                    "duration": 0.30000000000001137
                },
                {
                    "name": "C#6",
                    "midi": 85,
                    "time": 191.40000000000174,
                    "velocity": 0.1732283464566929,
                    "duration": 0.21250000000000568
                },
                {
                    "name": "C#4",
                    "midi": 61,
                    "time": 191.61250000000175,
                    "velocity": 0.15748031496062992,
                    "duration": 1.8874999999999886
                },
                {
                    "name": "G#4",
                    "midi": 68,
                    "time": 191.62500000000173,
                    "velocity": 0.1732283464566929,
                    "duration": 1.875
                },
                {
                    "name": "C#5",
                    "midi": 73,
                    "time": 191.63750000000172,
                    "velocity": 0.1732283464566929,
                    "duration": 1.8625000000000114
                },
                {
                    "name": "F5",
                    "midi": 77,
                    "time": 191.6500000000017,
                    "velocity": 0.1968503937007874,
                    "duration": 1.8500000000000227
                }
            ],
            "controlChanges": {
                "7": [
                    {
                        "number": 7,
                        "time": 0,
                        "value": 0.7874015748031497
                    }
                ],
                "10": [
                    {
                        "number": 10,
                        "time": 0,
                        "value": 0.5039370078740157
                    }
                ],
                "64": [
                    {
                        "number": 64,
                        "time": 0.3,
                        "value": 1
                    },
                    {
                        "number": 64,
                        "time": 2.6999999999999997,
                        "value": 0
                    },
                    {
                        "number": 64,
                        "time": 6.414999999999999,
                        "value": 1
                    },
                    {
                        "number": 64,
                        "time": 8.1,
                        "value": 0
                    },
                    {
                        "number": 64,
                        "time": 8.39125,
                        "value": 1
                    },
                    {
                        "number": 64,
                        "time": 9.02625,
                        "value": 0
                    },
                    {
                        "number": 64,
                        "time": 11.982499999999998,
                        "value": 1
                    },
                    {
                        "number": 64,
                        "time": 12.632499999999999,
                        "value": 0
                    },
                    {
                        "number": 64,
                        "time": 17.223749999999995,
                        "value": 1
                    },
                    {
                        "number": 64,
                        "time": 18.027499999999996,
                        "value": 0
                    },
                    {
                        "number": 64,
                        "time": 20.779999999999998,
                        "value": 1
                    },
                    {
                        "number": 64,
                        "time": 21.62625,
                        "value": 0
                    },
                    {
                        "number": 64,
                        "time": 21.9,
                        "value": 1
                    },
                    {
                        "number": 64,
                        "time": 24.3,
                        "value": 0
                    },
                    {
                        "number": 64,
                        "time": 27.14125,
                        "value": 1
                    },
                    {
                        "number": 64,
                        "time": 27.92125,
                        "value": 0
                    },
                    {
                        "number": 64,
                        "time": 28.095,
                        "value": 1
                    },
                    {
                        "number": 64,
                        "time": 29.7,
                        "value": 0
                    },
                    {
                        "number": 64,
                        "time": 29.912499999999998,
                        "value": 1
                    },
                    {
                        "number": 64,
                        "time": 30.607499999999995,
                        "value": 0
                    },
                    {
                        "number": 64,
                        "time": 32.54999999999999,
                        "value": 1
                    },
                    {
                        "number": 64,
                        "time": 33.31624999999999,
                        "value": 0
                    },
                    {
                        "number": 64,
                        "time": 33.89124999999999,
                        "value": 1
                    },
                    {
                        "number": 64,
                        "time": 35.144999999999996,
                        "value": 0
                    },
                    {
                        "number": 64,
                        "time": 36.529999999999994,
                        "value": 1
                    },
                    {
                        "number": 64,
                        "time": 37.80499999999999,
                        "value": 0
                    },
                    {
                        "number": 64,
                        "time": 37.911249999999995,
                        "value": 1
                    },
                    {
                        "number": 64,
                        "time": 39.021249999999995,
                        "value": 0
                    },
                    {
                        "number": 64,
                        "time": 39.10249999999999,
                        "value": 1
                    },
                    {
                        "number": 64,
                        "time": 39.91124999999998,
                        "value": 0
                    },
                    {
                        "number": 64,
                        "time": 40.01124999999998,
                        "value": 1
                    },
                    {
                        "number": 64,
                        "time": 40.817499999999974,
                        "value": 0
                    },
                    {
                        "number": 64,
                        "time": 40.96749999999997,
                        "value": 1
                    },
                    {
                        "number": 64,
                        "time": 42.307499999999976,
                        "value": 0
                    },
                    {
                        "number": 64,
                        "time": 42.42374999999998,
                        "value": 1
                    },
                    {
                        "number": 64,
                        "time": 43.199999999999974,
                        "value": 0
                    },
                    {
                        "number": 64,
                        "time": 43.31874999999997,
                        "value": 1
                    },
                    {
                        "number": 64,
                        "time": 44.41624999999997,
                        "value": 0
                    },
                    {
                        "number": 64,
                        "time": 44.54999999999997,
                        "value": 1
                    },
                    {
                        "number": 64,
                        "time": 45.013749999999966,
                        "value": 0
                    },
                    {
                        "number": 64,
                        "time": 45.08749999999996,
                        "value": 1
                    },
                    {
                        "number": 64,
                        "time": 45.899999999999956,
                        "value": 0
                    },
                    {
                        "number": 64,
                        "time": 45.939999999999955,
                        "value": 1
                    },
                    {
                        "number": 64,
                        "time": 46.81624999999995,
                        "value": 0
                    },
                    {
                        "number": 64,
                        "time": 46.87499999999995,
                        "value": 1
                    },
                    {
                        "number": 64,
                        "time": 47.72374999999995,
                        "value": 0
                    },
                    {
                        "number": 64,
                        "time": 47.814999999999955,
                        "value": 1
                    },
                    {
                        "number": 64,
                        "time": 48.66249999999995,
                        "value": 0
                    },
                    {
                        "number": 64,
                        "time": 48.784999999999954,
                        "value": 1
                    },
                    {
                        "number": 64,
                        "time": 50.41749999999996,
                        "value": 0
                    },
                    {
                        "number": 64,
                        "time": 50.51499999999996,
                        "value": 1
                    },
                    {
                        "number": 64,
                        "time": 51.29999999999996,
                        "value": 0
                    },
                    {
                        "number": 64,
                        "time": 51.51249999999996,
                        "value": 1
                    },
                    {
                        "number": 64,
                        "time": 53.11499999999995,
                        "value": 0
                    },
                    {
                        "number": 64,
                        "time": 53.29499999999995,
                        "value": 1
                    },
                    {
                        "number": 64,
                        "time": 54.02624999999995,
                        "value": 0
                    },
                    {
                        "number": 64,
                        "time": 54.14124999999995,
                        "value": 1
                    },
                    {
                        "number": 64,
                        "time": 55.827499999999965,
                        "value": 0
                    },
                    {
                        "number": 64,
                        "time": 55.914999999999964,
                        "value": 1
                    },
                    {
                        "number": 64,
                        "time": 56.69999999999997,
                        "value": 0
                    },
                    {
                        "number": 64,
                        "time": 56.982499999999966,
                        "value": 1
                    },
                    {
                        "number": 64,
                        "time": 58.51624999999996,
                        "value": 0
                    },
                    {
                        "number": 64,
                        "time": 58.729999999999954,
                        "value": 1
                    },
                    {
                        "number": 64,
                        "time": 59.399999999999956,
                        "value": 0
                    },
                    {
                        "number": 64,
                        "time": 59.49749999999995,
                        "value": 1
                    },
                    {
                        "number": 64,
                        "time": 61.22624999999996,
                        "value": 0
                    },
                    {
                        "number": 64,
                        "time": 61.306249999999956,
                        "value": 1
                    },
                    {
                        "number": 64,
                        "time": 62.09999999999996,
                        "value": 0
                    },
                    {
                        "number": 64,
                        "time": 62.157499999999956,
                        "value": 1
                    },
                    {
                        "number": 64,
                        "time": 63.91374999999995,
                        "value": 0
                    },
                    {
                        "number": 64,
                        "time": 64.02874999999995,
                        "value": 1
                    },
                    {
                        "number": 64,
                        "time": 64.65374999999995,
                        "value": 0
                    },
                    {
                        "number": 64,
                        "time": 64.72999999999995,
                        "value": 1
                    },
                    {
                        "number": 64,
                        "time": 66.42124999999994,
                        "value": 0
                    },
                    {
                        "number": 64,
                        "time": 66.46874999999994,
                        "value": 1
                    },
                    {
                        "number": 64,
                        "time": 67.35749999999992,
                        "value": 0
                    },
                    {
                        "number": 64,
                        "time": 67.39624999999991,
                        "value": 1
                    },
                    {
                        "number": 64,
                        "time": 69.1374999999999,
                        "value": 0
                    },
                    {
                        "number": 64,
                        "time": 69.1812499999999,
                        "value": 1
                    },
                    {
                        "number": 64,
                        "time": 70.1999999999999,
                        "value": 0
                    },
                    {
                        "number": 64,
                        "time": 70.3074999999999,
                        "value": 1
                    },
                    {
                        "number": 64,
                        "time": 71.11249999999994,
                        "value": 0
                    },
                    {
                        "number": 64,
                        "time": 71.19249999999994,
                        "value": 1
                    },
                    {
                        "number": 64,
                        "time": 72.01124999999998,
                        "value": 0
                    },
                    {
                        "number": 64,
                        "time": 72.08624999999998,
                        "value": 1
                    },
                    {
                        "number": 64,
                        "time": 72.89999999999999,
                        "value": 0
                    },
                    {
                        "number": 64,
                        "time": 72.99249999999999,
                        "value": 1
                    },
                    {
                        "number": 64,
                        "time": 73.81625000000003,
                        "value": 0
                    },
                    {
                        "number": 64,
                        "time": 73.87125000000003,
                        "value": 1
                    },
                    {
                        "number": 64,
                        "time": 74.71125000000006,
                        "value": 0
                    },
                    {
                        "number": 64,
                        "time": 74.77875000000006,
                        "value": 1
                    },
                    {
                        "number": 64,
                        "time": 75.6000000000001,
                        "value": 0
                    },
                    {
                        "number": 64,
                        "time": 75.73250000000009,
                        "value": 1
                    },
                    {
                        "number": 64,
                        "time": 76.50875000000012,
                        "value": 0
                    },
                    {
                        "number": 64,
                        "time": 76.58875000000012,
                        "value": 1
                    },
                    {
                        "number": 64,
                        "time": 77.40875000000015,
                        "value": 0
                    },
                    {
                        "number": 64,
                        "time": 77.51500000000016,
                        "value": 1
                    },
                    {
                        "number": 64,
                        "time": 78.31125000000019,
                        "value": 0
                    },
                    {
                        "number": 64,
                        "time": 78.37875000000018,
                        "value": 1
                    },
                    {
                        "number": 64,
                        "time": 79.22500000000022,
                        "value": 0
                    },
                    {
                        "number": 64,
                        "time": 79.30750000000022,
                        "value": 1
                    },
                    {
                        "number": 64,
                        "time": 80.11000000000026,
                        "value": 0
                    },
                    {
                        "number": 64,
                        "time": 80.17875000000025,
                        "value": 1
                    },
                    {
                        "number": 64,
                        "time": 81.00625000000028,
                        "value": 0
                    },
                    {
                        "number": 64,
                        "time": 81.08000000000028,
                        "value": 1
                    },
                    {
                        "number": 64,
                        "time": 81.90875000000031,
                        "value": 0
                    },
                    {
                        "number": 64,
                        "time": 82.0062500000003,
                        "value": 1
                    },
                    {
                        "number": 64,
                        "time": 82.81500000000034,
                        "value": 0
                    },
                    {
                        "number": 64,
                        "time": 82.90625000000034,
                        "value": 1
                    },
                    {
                        "number": 64,
                        "time": 83.71000000000036,
                        "value": 0
                    },
                    {
                        "number": 64,
                        "time": 83.78875000000036,
                        "value": 1
                    },
                    {
                        "number": 64,
                        "time": 84.61125000000038,
                        "value": 0
                    },
                    {
                        "number": 64,
                        "time": 84.73250000000037,
                        "value": 1
                    },
                    {
                        "number": 64,
                        "time": 85.50875000000039,
                        "value": 0
                    },
                    {
                        "number": 64,
                        "time": 85.6412500000004,
                        "value": 1
                    },
                    {
                        "number": 64,
                        "time": 86.40000000000042,
                        "value": 0
                    },
                    {
                        "number": 64,
                        "time": 86.55875000000042,
                        "value": 1
                    },
                    {
                        "number": 64,
                        "time": 87.32125000000043,
                        "value": 0
                    },
                    {
                        "number": 64,
                        "time": 89.20750000000044,
                        "value": 1
                    },
                    {
                        "number": 64,
                        "time": 90.00750000000046,
                        "value": 0
                    },
                    {
                        "number": 64,
                        "time": 90.10000000000046,
                        "value": 1
                    },
                    {
                        "number": 64,
                        "time": 90.92125000000048,
                        "value": 0
                    },
                    {
                        "number": 64,
                        "time": 90.99250000000049,
                        "value": 1
                    },
                    {
                        "number": 64,
                        "time": 91.81250000000051,
                        "value": 0
                    },
                    {
                        "number": 64,
                        "time": 91.95750000000051,
                        "value": 1
                    },
                    {
                        "number": 64,
                        "time": 92.71125000000053,
                        "value": 0
                    },
                    {
                        "number": 64,
                        "time": 92.79250000000053,
                        "value": 1
                    },
                    {
                        "number": 64,
                        "time": 93.61875000000056,
                        "value": 0
                    },
                    {
                        "number": 64,
                        "time": 93.70000000000056,
                        "value": 1
                    },
                    {
                        "number": 64,
                        "time": 94.50375000000057,
                        "value": 0
                    },
                    {
                        "number": 64,
                        "time": 94.57875000000057,
                        "value": 1
                    },
                    {
                        "number": 64,
                        "time": 95.41000000000061,
                        "value": 0
                    },
                    {
                        "number": 64,
                        "time": 95.4637500000006,
                        "value": 1
                    },
                    {
                        "number": 64,
                        "time": 96.31500000000064,
                        "value": 0
                    },
                    {
                        "number": 64,
                        "time": 96.43625000000064,
                        "value": 1
                    },
                    {
                        "number": 64,
                        "time": 97.20000000000067,
                        "value": 0
                    },
                    {
                        "number": 64,
                        "time": 97.28875000000068,
                        "value": 1
                    },
                    {
                        "number": 64,
                        "time": 98.11750000000069,
                        "value": 0
                    },
                    {
                        "number": 64,
                        "time": 98.2062500000007,
                        "value": 1
                    },
                    {
                        "number": 64,
                        "time": 99.01000000000072,
                        "value": 0
                    },
                    {
                        "number": 64,
                        "time": 99.10625000000071,
                        "value": 1
                    },
                    {
                        "number": 64,
                        "time": 99.91250000000073,
                        "value": 0
                    },
                    {
                        "number": 64,
                        "time": 100.05000000000074,
                        "value": 1
                    },
                    {
                        "number": 64,
                        "time": 100.81125000000075,
                        "value": 0
                    },
                    {
                        "number": 64,
                        "time": 100.90625000000075,
                        "value": 1
                    },
                    {
                        "number": 64,
                        "time": 101.71125000000077,
                        "value": 0
                    },
                    {
                        "number": 64,
                        "time": 101.78875000000077,
                        "value": 1
                    },
                    {
                        "number": 64,
                        "time": 102.6112500000008,
                        "value": 0
                    },
                    {
                        "number": 64,
                        "time": 102.68000000000079,
                        "value": 1
                    },
                    {
                        "number": 64,
                        "time": 103.5175000000008,
                        "value": 0
                    },
                    {
                        "number": 64,
                        "time": 103.59750000000079,
                        "value": 1
                    },
                    {
                        "number": 64,
                        "time": 104.42375000000081,
                        "value": 0
                    },
                    {
                        "number": 64,
                        "time": 104.5237500000008,
                        "value": 1
                    },
                    {
                        "number": 64,
                        "time": 105.30500000000082,
                        "value": 0
                    },
                    {
                        "number": 64,
                        "time": 105.42375000000082,
                        "value": 1
                    },
                    {
                        "number": 64,
                        "time": 106.21750000000084,
                        "value": 0
                    },
                    {
                        "number": 64,
                        "time": 106.30625000000084,
                        "value": 1
                    },
                    {
                        "number": 64,
                        "time": 107.10750000000085,
                        "value": 0
                    },
                    {
                        "number": 64,
                        "time": 107.23250000000085,
                        "value": 1
                    },
                    {
                        "number": 64,
                        "time": 108.00000000000087,
                        "value": 0
                    },
                    {
                        "number": 64,
                        "time": 108.08875000000087,
                        "value": 1
                    },
                    {
                        "number": 64,
                        "time": 108.31750000000088,
                        "value": 0
                    },
                    {
                        "number": 64,
                        "time": 108.38000000000088,
                        "value": 1
                    },
                    {
                        "number": 64,
                        "time": 108.94500000000089,
                        "value": 0
                    },
                    {
                        "number": 64,
                        "time": 109.0325000000009,
                        "value": 1
                    },
                    {
                        "number": 64,
                        "time": 109.3575000000009,
                        "value": 0
                    },
                    {
                        "number": 64,
                        "time": 109.47375000000089,
                        "value": 1
                    },
                    {
                        "number": 64,
                        "time": 110.27875000000093,
                        "value": 0
                    },
                    {
                        "number": 64,
                        "time": 110.35625000000093,
                        "value": 1
                    },
                    {
                        "number": 64,
                        "time": 110.70875000000095,
                        "value": 0
                    },
                    {
                        "number": 64,
                        "time": 110.79750000000095,
                        "value": 1
                    },
                    {
                        "number": 64,
                        "time": 111.02250000000095,
                        "value": 0
                    },
                    {
                        "number": 64,
                        "time": 111.11500000000095,
                        "value": 1
                    },
                    {
                        "number": 64,
                        "time": 111.62625000000097,
                        "value": 0
                    },
                    {
                        "number": 64,
                        "time": 111.74125000000096,
                        "value": 1
                    },
                    {
                        "number": 64,
                        "time": 112.20875000000099,
                        "value": 0
                    },
                    {
                        "number": 64,
                        "time": 112.280000000001,
                        "value": 1
                    },
                    {
                        "number": 64,
                        "time": 112.52000000000099,
                        "value": 0
                    },
                    {
                        "number": 64,
                        "time": 112.623750000001,
                        "value": 1
                    },
                    {
                        "number": 64,
                        "time": 112.82625000000101,
                        "value": 0
                    },
                    {
                        "number": 64,
                        "time": 112.91500000000102,
                        "value": 1
                    },
                    {
                        "number": 64,
                        "time": 113.40000000000103,
                        "value": 0
                    },
                    {
                        "number": 64,
                        "time": 113.55000000000103,
                        "value": 1
                    },
                    {
                        "number": 64,
                        "time": 114.31875000000106,
                        "value": 0
                    },
                    {
                        "number": 64,
                        "time": 114.44125000000106,
                        "value": 1
                    },
                    {
                        "number": 64,
                        "time": 115.2125000000011,
                        "value": 0
                    },
                    {
                        "number": 64,
                        "time": 115.2800000000011,
                        "value": 1
                    },
                    {
                        "number": 64,
                        "time": 116.10750000000111,
                        "value": 0
                    },
                    {
                        "number": 64,
                        "time": 116.2237500000011,
                        "value": 1
                    },
                    {
                        "number": 64,
                        "time": 117.02625000000114,
                        "value": 0
                    },
                    {
                        "number": 64,
                        "time": 117.11500000000115,
                        "value": 1
                    },
                    {
                        "number": 64,
                        "time": 117.92250000000116,
                        "value": 0
                    },
                    {
                        "number": 64,
                        "time": 118.00625000000116,
                        "value": 1
                    },
                    {
                        "number": 64,
                        "time": 118.80750000000118,
                        "value": 0
                    },
                    {
                        "number": 64,
                        "time": 118.93250000000118,
                        "value": 1
                    },
                    {
                        "number": 64,
                        "time": 119.71250000000121,
                        "value": 0
                    },
                    {
                        "number": 64,
                        "time": 119.78000000000121,
                        "value": 1
                    },
                    {
                        "number": 64,
                        "time": 120.61375000000123,
                        "value": 0
                    },
                    {
                        "number": 64,
                        "time": 120.69750000000123,
                        "value": 1
                    },
                    {
                        "number": 64,
                        "time": 121.50250000000125,
                        "value": 0
                    },
                    {
                        "number": 64,
                        "time": 121.59750000000125,
                        "value": 1
                    },
                    {
                        "number": 64,
                        "time": 122.41125000000127,
                        "value": 0
                    },
                    {
                        "number": 64,
                        "time": 122.48875000000127,
                        "value": 1
                    },
                    {
                        "number": 64,
                        "time": 123.31125000000131,
                        "value": 0
                    },
                    {
                        "number": 64,
                        "time": 123.3800000000013,
                        "value": 1
                    },
                    {
                        "number": 64,
                        "time": 124.21250000000133,
                        "value": 0
                    },
                    {
                        "number": 64,
                        "time": 124.29750000000132,
                        "value": 1
                    },
                    {
                        "number": 64,
                        "time": 125.11125000000132,
                        "value": 0
                    },
                    {
                        "number": 64,
                        "time": 125.19750000000133,
                        "value": 1
                    },
                    {
                        "number": 64,
                        "time": 126.00750000000131,
                        "value": 0
                    },
                    {
                        "number": 64,
                        "time": 126.09750000000132,
                        "value": 1
                    },
                    {
                        "number": 64,
                        "time": 126.91000000000133,
                        "value": 0
                    },
                    {
                        "number": 64,
                        "time": 126.98875000000133,
                        "value": 1
                    },
                    {
                        "number": 64,
                        "time": 127.82625000000134,
                        "value": 0
                    },
                    {
                        "number": 64,
                        "time": 127.94125000000133,
                        "value": 1
                    },
                    {
                        "number": 64,
                        "time": 128.72375000000136,
                        "value": 0
                    },
                    {
                        "number": 64,
                        "time": 128.81500000000136,
                        "value": 1
                    },
                    {
                        "number": 64,
                        "time": 129.6000000000014,
                        "value": 0
                    },
                    {
                        "number": 64,
                        "time": 129.70625000000138,
                        "value": 1
                    },
                    {
                        "number": 64,
                        "time": 130.52375000000137,
                        "value": 0
                    },
                    {
                        "number": 64,
                        "time": 130.60625000000138,
                        "value": 1
                    },
                    {
                        "number": 64,
                        "time": 131.41125000000136,
                        "value": 0
                    },
                    {
                        "number": 64,
                        "time": 131.48875000000135,
                        "value": 1
                    },
                    {
                        "number": 64,
                        "time": 132.31250000000134,
                        "value": 0
                    },
                    {
                        "number": 64,
                        "time": 132.40750000000133,
                        "value": 1
                    },
                    {
                        "number": 64,
                        "time": 133.21125000000131,
                        "value": 0
                    },
                    {
                        "number": 64,
                        "time": 133.2787500000013,
                        "value": 1
                    },
                    {
                        "number": 64,
                        "time": 134.1075000000013,
                        "value": 0
                    },
                    {
                        "number": 64,
                        "time": 134.2000000000013,
                        "value": 1
                    },
                    {
                        "number": 64,
                        "time": 135.0000000000013,
                        "value": 0
                    },
                    {
                        "number": 64,
                        "time": 135.08000000000132,
                        "value": 1
                    },
                    {
                        "number": 64,
                        "time": 136.81125000000134,
                        "value": 0
                    },
                    {
                        "number": 64,
                        "time": 137.75750000000133,
                        "value": 1
                    },
                    {
                        "number": 64,
                        "time": 138.64250000000135,
                        "value": 0
                    },
                    {
                        "number": 64,
                        "time": 138.71500000000134,
                        "value": 1
                    },
                    {
                        "number": 64,
                        "time": 140.40000000000134,
                        "value": 0
                    },
                    {
                        "number": 64,
                        "time": 140.52375000000134,
                        "value": 1
                    },
                    {
                        "number": 64,
                        "time": 141.3175000000014,
                        "value": 0
                    },
                    {
                        "number": 64,
                        "time": 141.45000000000138,
                        "value": 1
                    },
                    {
                        "number": 64,
                        "time": 143.1000000000014,
                        "value": 0
                    },
                    {
                        "number": 64,
                        "time": 143.19750000000138,
                        "value": 1
                    },
                    {
                        "number": 64,
                        "time": 144.00750000000141,
                        "value": 0
                    },
                    {
                        "number": 64,
                        "time": 144.1062500000014,
                        "value": 1
                    },
                    {
                        "number": 64,
                        "time": 145.8000000000014,
                        "value": 0
                    },
                    {
                        "number": 64,
                        "time": 145.8575000000014,
                        "value": 1
                    },
                    {
                        "number": 64,
                        "time": 146.71000000000143,
                        "value": 0
                    },
                    {
                        "number": 64,
                        "time": 147.01375000000144,
                        "value": 1
                    },
                    {
                        "number": 64,
                        "time": 147.33125000000143,
                        "value": 0
                    },
                    {
                        "number": 64,
                        "time": 148.5975000000014,
                        "value": 1
                    },
                    {
                        "number": 64,
                        "time": 149.4150000000014,
                        "value": 0
                    },
                    {
                        "number": 64,
                        "time": 149.50625000000142,
                        "value": 1
                    },
                    {
                        "number": 64,
                        "time": 150.31875000000142,
                        "value": 0
                    },
                    {
                        "number": 64,
                        "time": 150.4237500000014,
                        "value": 1
                    },
                    {
                        "number": 64,
                        "time": 151.21750000000142,
                        "value": 0
                    },
                    {
                        "number": 64,
                        "time": 151.27500000000143,
                        "value": 1
                    },
                    {
                        "number": 64,
                        "time": 152.11000000000143,
                        "value": 0
                    },
                    {
                        "number": 64,
                        "time": 152.18875000000145,
                        "value": 1
                    },
                    {
                        "number": 64,
                        "time": 152.71750000000145,
                        "value": 0
                    },
                    {
                        "number": 64,
                        "time": 152.78375000000145,
                        "value": 1
                    },
                    {
                        "number": 64,
                        "time": 153.90000000000143,
                        "value": 0
                    },
                    {
                        "number": 64,
                        "time": 154.02375000000143,
                        "value": 1
                    },
                    {
                        "number": 64,
                        "time": 154.82125000000147,
                        "value": 0
                    },
                    {
                        "number": 64,
                        "time": 154.90625000000148,
                        "value": 1
                    },
                    {
                        "number": 64,
                        "time": 155.72625000000147,
                        "value": 0
                    },
                    {
                        "number": 64,
                        "time": 155.85000000000147,
                        "value": 1
                    },
                    {
                        "number": 64,
                        "time": 156.60000000000147,
                        "value": 0
                    },
                    {
                        "number": 64,
                        "time": 156.93500000000148,
                        "value": 1
                    },
                    {
                        "number": 64,
                        "time": 159.3000000000015,
                        "value": 0
                    },
                    {
                        "number": 64,
                        "time": 159.53000000000148,
                        "value": 1
                    },
                    {
                        "number": 64,
                        "time": 160.21875000000148,
                        "value": 0
                    },
                    {
                        "number": 64,
                        "time": 160.43000000000148,
                        "value": 1
                    },
                    {
                        "number": 64,
                        "time": 162.00000000000148,
                        "value": 0
                    },
                    {
                        "number": 64,
                        "time": 162.15875000000148,
                        "value": 1
                    },
                    {
                        "number": 64,
                        "time": 162.9162500000015,
                        "value": 0
                    },
                    {
                        "number": 64,
                        "time": 163.0762500000015,
                        "value": 1
                    },
                    {
                        "number": 64,
                        "time": 163.8175000000015,
                        "value": 0
                    },
                    {
                        "number": 64,
                        "time": 163.9950000000015,
                        "value": 1
                    },
                    {
                        "number": 64,
                        "time": 164.71750000000154,
                        "value": 0
                    },
                    {
                        "number": 64,
                        "time": 164.89500000000155,
                        "value": 1
                    },
                    {
                        "number": 64,
                        "time": 165.61625000000154,
                        "value": 0
                    },
                    {
                        "number": 64,
                        "time": 167.40000000000154,
                        "value": 1
                    },
                    {
                        "number": 64,
                        "time": 168.31250000000153,
                        "value": 0
                    },
                    {
                        "number": 64,
                        "time": 168.56500000000153,
                        "value": 1
                    },
                    {
                        "number": 64,
                        "time": 169.21875000000153,
                        "value": 0
                    },
                    {
                        "number": 64,
                        "time": 169.46500000000154,
                        "value": 1
                    },
                    {
                        "number": 64,
                        "time": 170.10750000000152,
                        "value": 0
                    },
                    {
                        "number": 64,
                        "time": 170.29500000000152,
                        "value": 1
                    },
                    {
                        "number": 64,
                        "time": 171.01750000000155,
                        "value": 0
                    },
                    {
                        "number": 64,
                        "time": 171.24750000000154,
                        "value": 1
                    },
                    {
                        "number": 64,
                        "time": 171.91000000000153,
                        "value": 0
                    },
                    {
                        "number": 64,
                        "time": 172.16500000000153,
                        "value": 1
                    },
                    {
                        "number": 64,
                        "time": 172.80000000000152,
                        "value": 0
                    },
                    {
                        "number": 64,
                        "time": 172.9062500000015,
                        "value": 1
                    },
                    {
                        "number": 64,
                        "time": 173.7200000000015,
                        "value": 0
                    },
                    {
                        "number": 64,
                        "time": 173.8675000000015,
                        "value": 1
                    },
                    {
                        "number": 64,
                        "time": 174.6262500000015,
                        "value": 0
                    },
                    {
                        "number": 64,
                        "time": 174.7237500000015,
                        "value": 1
                    },
                    {
                        "number": 64,
                        "time": 175.5000000000015,
                        "value": 0
                    },
                    {
                        "number": 64,
                        "time": 175.6500000000015,
                        "value": 1
                    },
                    {
                        "number": 64,
                        "time": 176.41250000000153,
                        "value": 0
                    },
                    {
                        "number": 64,
                        "time": 176.51500000000152,
                        "value": 1
                    },
                    {
                        "number": 64,
                        "time": 177.3100000000015,
                        "value": 0
                    },
                    {
                        "number": 64,
                        "time": 177.4412500000015,
                        "value": 1
                    },
                    {
                        "number": 64,
                        "time": 178.20000000000152,
                        "value": 0
                    },
                    {
                        "number": 64,
                        "time": 178.31500000000153,
                        "value": 1
                    },
                    {
                        "number": 64,
                        "time": 179.10750000000152,
                        "value": 0
                    },
                    {
                        "number": 64,
                        "time": 179.25000000000153,
                        "value": 1
                    },
                    {
                        "number": 64,
                        "time": 180.02125000000157,
                        "value": 0
                    },
                    {
                        "number": 64,
                        "time": 180.17875000000157,
                        "value": 1
                    },
                    {
                        "number": 64,
                        "time": 180.91000000000156,
                        "value": 0
                    },
                    {
                        "number": 64,
                        "time": 181.04125000000155,
                        "value": 1
                    },
                    {
                        "number": 64,
                        "time": 181.8175000000016,
                        "value": 0
                    },
                    {
                        "number": 64,
                        "time": 181.9412500000016,
                        "value": 1
                    },
                    {
                        "number": 64,
                        "time": 182.70875000000157,
                        "value": 0
                    },
                    {
                        "number": 64,
                        "time": 182.82375000000158,
                        "value": 1
                    },
                    {
                        "number": 64,
                        "time": 183.6087500000016,
                        "value": 0
                    },
                    {
                        "number": 64,
                        "time": 183.72125000000162,
                        "value": 1
                    },
                    {
                        "number": 64,
                        "time": 184.5150000000016,
                        "value": 0
                    },
                    {
                        "number": 64,
                        "time": 184.6362500000016,
                        "value": 1
                    },
                    {
                        "number": 64,
                        "time": 186.35750000000164,
                        "value": 0
                    },
                    {
                        "number": 64,
                        "time": 186.43625000000165,
                        "value": 1
                    },
                    {
                        "number": 64,
                        "time": 189.00625000000167,
                        "value": 0
                    },
                    {
                        "number": 64,
                        "time": 189.11000000000166,
                        "value": 1
                    },
                    {
                        "number": 64,
                        "time": 191.63250000000173,
                        "value": 0
                    },
                    {
                        "number": 64,
                        "time": 191.70000000000172,
                        "value": 1
                    },
                    {
                        "number": 64,
                        "time": 193.97625000000173,
                        "value": 0
                    }
                ],
                "91": [
                    {
                        "number": 91,
                        "time": 0,
                        "value": 1
                    }
                ]
            },
            "id": 2,
            "name": "Piano left",
            "instrumentNumber": 0,
            "instrument": "acoustic grand piano",
            "instrumentFamily": "piano",
            "channelNumber": 0,
            "isPercussion": false
        },
        {
            "startTime": 0,
            "duration": 0,
            "length": 0,
            "notes": [],
            "controlChanges": {},
            "id": 3,
            "name": "Debussy: \"Clair de lune\" from Suite bergamasque"
        },
        {
            "startTime": 0,
            "duration": 0,
            "length": 0,
            "notes": [],
            "controlChanges": {},
            "id": 4,
            "name": "Copyright  1998 by Bernd Krger"
        },
        {
            "startTime": 0,
            "duration": 0,
            "length": 0,
            "notes": [],
            "controlChanges": {},
            "id": 5,
            "name": "http://www.piano-midi.de"
        },
        {
            "startTime": 0,
            "duration": 0,
            "length": 0,
            "notes": [],
            "controlChanges": {},
            "id": 6,
            "name": "Edition: 2011-08-20"
        }
    ]
}