{
    "header": {
        "PPQ": 480,
        "timeSignature": [
            4,
            4
        ],
        "bpm": 90.91997375443424,
        "name": "Wächterlied Op12, No. 3"
    },
    "startTime": 0,
    "duration": 139.90325200000024,
    "tracks": [
        {
            "startTime": 0,
            "duration": 0,
            "length": 0,
            "notes": [],
            "controlChanges": {},
            "id": 0,
            "name": "Wächterlied Op12, No. 3"
        },
        {
            "startTime": 1.979763,
            "duration": 139.9032519999997,
            "length": 303,
            "notes": [
                {
                    "name": "B3",
                    "midi": 59,
                    "time": 1.979763,
                    "velocity": 0.44881889763779526,
                    "duration": 0.659921
                },
                {
                    "name": "E4",
                    "midi": 64,
                    "time": 2.639684,
                    "velocity": 0.47244094488188976,
                    "duration": 0.6599209999999998
                },
                {
                    "name": "E4",
                    "midi": 64,
                    "time": 3.2996049999999997,
                    "velocity": 0.48031496062992124,
                    "duration": 0.6599209999999998
                },
                {
                    "name": "D#4",
                    "midi": 63,
                    "time": 3.9595259999999994,
                    "velocity": 0.44881889763779526,
                    "duration": 0.6599209999999998
                },
                {
                    "name": "C#4",
                    "midi": 61,
                    "time": 4.619446999999999,
                    "velocity": 0.4330708661417323,
                    "duration": 0.3299605000000003
                },
                {
                    "name": "B3",
                    "midi": 59,
                    "time": 4.9494074999999995,
                    "velocity": 0.3858267716535433,
                    "duration": 0.3299605000000003
                },
                {
                    "name": "C#4",
                    "midi": 61,
                    "time": 5.279368,
                    "velocity": 0.41732283464566927,
                    "duration": 1.3198419999999995
                },
                {
                    "name": "A3",
                    "midi": 57,
                    "time": 5.279368,
                    "velocity": 0.3543307086614173,
                    "duration": 1.3198419999999995
                },
                {
                    "name": "G#3",
                    "midi": 56,
                    "time": 6.599209999999999,
                    "velocity": 0.3464566929133858,
                    "duration": 0.6599209999999998
                },
                {
                    "name": "E4",
                    "midi": 64,
                    "time": 6.599209999999999,
                    "velocity": 0.4094488188976378,
                    "duration": 0.6599209999999998
                },
                {
                    "name": "C#4",
                    "midi": 61,
                    "time": 7.919051999999999,
                    "velocity": 0.3543307086614173,
                    "duration": 0.4399473333333326
                },
                {
                    "name": "F#4",
                    "midi": 66,
                    "time": 7.919051999999999,
                    "velocity": 0.4251968503937008,
                    "duration": 0.4399473333333326
                },
                {
                    "name": "C#4",
                    "midi": 61,
                    "time": 8.578972999999998,
                    "velocity": 0.33858267716535434,
                    "duration": 0.4399473333333326
                },
                {
                    "name": "F#4",
                    "midi": 66,
                    "time": 8.578972999999998,
                    "velocity": 0.4015748031496063,
                    "duration": 0.4399473333333326
                },
                {
                    "name": "B3",
                    "midi": 59,
                    "time": 9.238893999999997,
                    "velocity": 0.3228346456692913,
                    "duration": 0.4399473333333326
                },
                {
                    "name": "F#4",
                    "midi": 66,
                    "time": 9.238893999999997,
                    "velocity": 0.3858267716535433,
                    "duration": 0.4399473333333326
                },
                {
                    "name": "F#4",
                    "midi": 66,
                    "time": 9.898814999999995,
                    "velocity": 0.3779527559055118,
                    "duration": 0.4399473333333326
                },
                {
                    "name": "B3",
                    "midi": 59,
                    "time": 9.898814999999995,
                    "velocity": 0.31496062992125984,
                    "duration": 0.4399473333333326
                },
                {
                    "name": "G#4",
                    "midi": 68,
                    "time": 10.558735999999994,
                    "velocity": 0.4094488188976378,
                    "duration": 1.3198419999999995
                },
                {
                    "name": "B3",
                    "midi": 59,
                    "time": 10.558735999999994,
                    "velocity": 0.3464566929133858,
                    "duration": 1.3198419999999995
                },
                {
                    "name": "G#4",
                    "midi": 68,
                    "time": 12.538498999999995,
                    "velocity": 0.5039370078740157,
                    "duration": 0.6599210000000006
                },
                {
                    "name": "C#5",
                    "midi": 73,
                    "time": 13.198419999999995,
                    "velocity": 0.5590551181102362,
                    "duration": 0.6599210000000006
                },
                {
                    "name": "C#5",
                    "midi": 73,
                    "time": 13.858340999999996,
                    "velocity": 0.5433070866141733,
                    "duration": 0.6599210000000006
                },
                {
                    "name": "B4",
                    "midi": 71,
                    "time": 14.518261999999996,
                    "velocity": 0.5433070866141733,
                    "duration": 0.6599210000000006
                },
                {
                    "name": "A4",
                    "midi": 69,
                    "time": 15.178182999999997,
                    "velocity": 0.5433070866141733,
                    "duration": 0.3299605000000003
                },
                {
                    "name": "G#4",
                    "midi": 68,
                    "time": 15.508143499999997,
                    "velocity": 0.49606299212598426,
                    "duration": 0.3299605000000003
                },
                {
                    "name": "C#4",
                    "midi": 61,
                    "time": 15.838103999999998,
                    "velocity": 0.5433070866141733,
                    "duration": 0.6599210000000006
                },
                {
                    "name": "A4",
                    "midi": 69,
                    "time": 15.838103999999998,
                    "velocity": 0.5433070866141733,
                    "duration": 1.3198420000000013
                },
                {
                    "name": "D#4",
                    "midi": 63,
                    "time": 16.498025,
                    "velocity": 0.47244094488188976,
                    "duration": 0.6599210000000006
                },
                {
                    "name": "E4",
                    "midi": 64,
                    "time": 17.157946,
                    "velocity": 0.41732283464566927,
                    "duration": 1.3198420000000013
                },
                {
                    "name": "G#4",
                    "midi": 68,
                    "time": 17.157946,
                    "velocity": 0.4881889763779528,
                    "duration": 1.3198420000000013
                },
                {
                    "name": "C#4",
                    "midi": 61,
                    "time": 18.477788,
                    "velocity": 0.4409448818897638,
                    "duration": 0.6599210000000006
                },
                {
                    "name": "F#4",
                    "midi": 66,
                    "time": 18.477788,
                    "velocity": 0.5196850393700787,
                    "duration": 0.6599210000000006
                },
                {
                    "name": "A3",
                    "midi": 57,
                    "time": 19.137709,
                    "velocity": 0.3700787401574803,
                    "duration": 0.6599210000000006
                },
                {
                    "name": "F#4",
                    "midi": 66,
                    "time": 19.137709,
                    "velocity": 0.4409448818897638,
                    "duration": 0.6599210000000006
                },
                {
                    "name": "F#4",
                    "midi": 66,
                    "time": 19.79763,
                    "velocity": 0.4409448818897638,
                    "duration": 0.9898814999999992
                },
                {
                    "name": "B3",
                    "midi": 59,
                    "time": 19.79763,
                    "velocity": 0.3700787401574803,
                    "duration": 1.3198419999999977
                },
                {
                    "name": "A3",
                    "midi": 57,
                    "time": 19.79763,
                    "velocity": 0.3700787401574803,
                    "duration": 1.3198419999999977
                },
                {
                    "name": "E4",
                    "midi": 64,
                    "time": 20.7875115,
                    "velocity": 0.4015748031496063,
                    "duration": 0.32996049999999855
                },
                {
                    "name": "E4",
                    "midi": 64,
                    "time": 21.117472,
                    "velocity": 0.3543307086614173,
                    "duration": 1.3198420000000013
                },
                {
                    "name": "B3",
                    "midi": 59,
                    "time": 21.117472,
                    "velocity": 0.29133858267716534,
                    "duration": 1.3198420000000013
                },
                {
                    "name": "G#3",
                    "midi": 56,
                    "time": 21.117472,
                    "velocity": 0.29133858267716534,
                    "duration": 1.3198420000000013
                },
                {
                    "name": "B4",
                    "midi": 71,
                    "time": 23.097235,
                    "velocity": 0.4094488188976378,
                    "duration": 0.9898814999999992
                },
                {
                    "name": "G#4",
                    "midi": 68,
                    "time": 23.757156000000002,
                    "velocity": 0.2440944881889764,
                    "duration": 0.6599209999999971
                },
                {
                    "name": "C#5",
                    "midi": 73,
                    "time": 24.0871165,
                    "velocity": 0.4094488188976378,
                    "duration": 0.32996049999999855
                },
                {
                    "name": "D#5",
                    "midi": 75,
                    "time": 24.417077,
                    "velocity": 0.3858267716535433,
                    "duration": 0.6461726458333317
                },
                {
                    "name": "F#4",
                    "midi": 66,
                    "time": 24.417077,
                    "velocity": 0.3228346456692913,
                    "duration": 0.6461726458333317
                },
                {
                    "name": "D#5",
                    "midi": 75,
                    "time": 25.076997999999996,
                    "velocity": 0.41732283464566927,
                    "duration": 0.6599210000000006
                },
                {
                    "name": "E4",
                    "midi": 64,
                    "time": 25.076997999999996,
                    "velocity": 0.31496062992125984,
                    "duration": 2.6396840000000026
                },
                {
                    "name": "B4",
                    "midi": 71,
                    "time": 25.736918999999997,
                    "velocity": 0.3858267716535433,
                    "duration": 0.6599210000000006
                },
                {
                    "name": "G#4",
                    "midi": 68,
                    "time": 26.396839999999997,
                    "velocity": 0.4015748031496063,
                    "duration": 0.6599210000000006
                },
                {
                    "name": "A#4",
                    "midi": 70,
                    "time": 27.056760999999998,
                    "velocity": 0.3858267716535433,
                    "duration": 0.6599210000000006
                },
                {
                    "name": "D#4",
                    "midi": 63,
                    "time": 27.716682,
                    "velocity": 0.30708661417322836,
                    "duration": 0.6186759375000008
                },
                {
                    "name": "B4",
                    "midi": 71,
                    "time": 27.716682,
                    "velocity": 0.3700787401574803,
                    "duration": 0.6186759375000008
                },
                {
                    "name": "B4",
                    "midi": 71,
                    "time": 28.376603,
                    "velocity": 0.4566929133858268,
                    "duration": 0.9898814999999992
                },
                {
                    "name": "G#4",
                    "midi": 68,
                    "time": 29.036524,
                    "velocity": 0.28346456692913385,
                    "duration": 0.6599209999999971
                },
                {
                    "name": "C#5",
                    "midi": 73,
                    "time": 29.3664845,
                    "velocity": 0.4094488188976378,
                    "duration": 0.32996049999999855
                },
                {
                    "name": "F#4",
                    "midi": 66,
                    "time": 29.696444999999997,
                    "velocity": 0.36220472440944884,
                    "duration": 0.6599209999999971
                },
                {
                    "name": "D#5",
                    "midi": 75,
                    "time": 29.696444999999997,
                    "velocity": 0.4330708661417323,
                    "duration": 0.32996049999999855
                },
                {
                    "name": "B4",
                    "midi": 71,
                    "time": 30.026405499999996,
                    "velocity": 0.3937007874015748,
                    "duration": 0.32996049999999855
                },
                {
                    "name": "E4",
                    "midi": 64,
                    "time": 30.356365999999994,
                    "velocity": 0.33858267716535434,
                    "duration": 2.6396839999999955
                },
                {
                    "name": "D#5",
                    "midi": 75,
                    "time": 30.356365999999994,
                    "velocity": 0.44881889763779526,
                    "duration": 0.6599210000000006
                },
                {
                    "name": "C#5",
                    "midi": 73,
                    "time": 31.016286999999995,
                    "velocity": 0.4330708661417323,
                    "duration": 0.32996049999999855
                },
                {
                    "name": "B4",
                    "midi": 71,
                    "time": 31.346247499999993,
                    "velocity": 0.3700787401574803,
                    "duration": 0.32996049999999855
                },
                {
                    "name": "G#4",
                    "midi": 68,
                    "time": 31.676207999999992,
                    "velocity": 0.44881889763779526,
                    "duration": 0.6599210000000006
                },
                {
                    "name": "A#4",
                    "midi": 70,
                    "time": 32.33612899999999,
                    "velocity": 0.41732283464566927,
                    "duration": 0.6599209999999971
                },
                {
                    "name": "D#4",
                    "midi": 63,
                    "time": 32.99604999999999,
                    "velocity": 0.33070866141732286,
                    "duration": 0.6186759375000008
                },
                {
                    "name": "B4",
                    "midi": 71,
                    "time": 32.99604999999999,
                    "velocity": 0.3937007874015748,
                    "duration": 0.6186759375000008
                },
                {
                    "name": "B3",
                    "midi": 59,
                    "time": 33.655970999999994,
                    "velocity": 0.44881889763779526,
                    "duration": 0.6599209999999971
                },
                {
                    "name": "E4",
                    "midi": 64,
                    "time": 34.31589199999999,
                    "velocity": 0.47244094488188976,
                    "duration": 0.6599209999999971
                },
                {
                    "name": "E4",
                    "midi": 64,
                    "time": 34.97581299999999,
                    "velocity": 0.44881889763779526,
                    "duration": 0.6599209999999971
                },
                {
                    "name": "D#4",
                    "midi": 63,
                    "time": 35.635733999999985,
                    "velocity": 0.44881889763779526,
                    "duration": 0.6599209999999971
                },
                {
                    "name": "C#4",
                    "midi": 61,
                    "time": 36.29565499999998,
                    "velocity": 0.44881889763779526,
                    "duration": 0.32996049999999855
                },
                {
                    "name": "B3",
                    "midi": 59,
                    "time": 36.62561549999998,
                    "velocity": 0.4330708661417323,
                    "duration": 0.32996049999999855
                },
                {
                    "name": "C#4",
                    "midi": 61,
                    "time": 36.95557599999998,
                    "velocity": 0.41732283464566927,
                    "duration": 1.3198420000000013
                },
                {
                    "name": "A3",
                    "midi": 57,
                    "time": 36.95557599999998,
                    "velocity": 0.3543307086614173,
                    "duration": 1.3198420000000013
                },
                {
                    "name": "G#3",
                    "midi": 56,
                    "time": 38.27541799999998,
                    "velocity": 0.3464566929133858,
                    "duration": 0.6599209999999971
                },
                {
                    "name": "E4",
                    "midi": 64,
                    "time": 38.27541799999998,
                    "velocity": 0.4094488188976378,
                    "duration": 0.6599209999999971
                },
                {
                    "name": "C#4",
                    "midi": 61,
                    "time": 39.595259999999975,
                    "velocity": 0.3700787401574803,
                    "duration": 0.6599209999999971
                },
                {
                    "name": "F#4",
                    "midi": 66,
                    "time": 39.595259999999975,
                    "velocity": 0.4409448818897638,
                    "duration": 0.6599209999999971
                },
                {
                    "name": "F#4",
                    "midi": 66,
                    "time": 40.25518099999997,
                    "velocity": 0.4251968503937008,
                    "duration": 0.6599209999999971
                },
                {
                    "name": "A3",
                    "midi": 57,
                    "time": 40.25518099999997,
                    "velocity": 0.3543307086614173,
                    "duration": 0.6599209999999971
                },
                {
                    "name": "B3",
                    "midi": 59,
                    "time": 40.91510199999997,
                    "velocity": 0.3464566929133858,
                    "duration": 1.3198420000000013
                },
                {
                    "name": "A3",
                    "midi": 57,
                    "time": 40.91510199999997,
                    "velocity": 0.3464566929133858,
                    "duration": 1.3198420000000013
                },
                {
                    "name": "F#4",
                    "midi": 66,
                    "time": 40.91510199999997,
                    "velocity": 0.4094488188976378,
                    "duration": 0.9898815000000027
                },
                {
                    "name": "E4",
                    "midi": 64,
                    "time": 41.90498349999997,
                    "velocity": 0.3858267716535433,
                    "duration": 0.32996049999999855
                },
                {
                    "name": "B3",
                    "midi": 59,
                    "time": 42.23494399999997,
                    "velocity": 0.30708661417322836,
                    "duration": 1.3198420000000013
                },
                {
                    "name": "G#3",
                    "midi": 56,
                    "time": 42.23494399999997,
                    "velocity": 0.30708661417322836,
                    "duration": 1.3198420000000013
                },
                {
                    "name": "E4",
                    "midi": 64,
                    "time": 42.23494399999997,
                    "velocity": 0.36220472440944884,
                    "duration": 1.3198420000000013
                },
                {
                    "name": "B4",
                    "midi": 71,
                    "time": 44.21470699999997,
                    "velocity": 0.4094488188976378,
                    "duration": 0.9898814999999956
                },
                {
                    "name": "G#4",
                    "midi": 68,
                    "time": 44.874627999999966,
                    "velocity": 0.2440944881889764,
                    "duration": 0.6599209999999971
                },
                {
                    "name": "C#5",
                    "midi": 73,
                    "time": 45.204588499999964,
                    "velocity": 0.4094488188976378,
                    "duration": 0.32996049999999855
                },
                {
                    "name": "D#5",
                    "midi": 75,
                    "time": 45.53454899999996,
                    "velocity": 0.3858267716535433,
                    "duration": 0.6461726458333317
                },
                {
                    "name": "F#4",
                    "midi": 66,
                    "time": 45.53454899999996,
                    "velocity": 0.3228346456692913,
                    "duration": 0.6461726458333317
                },
                {
                    "name": "D#5",
                    "midi": 75,
                    "time": 46.19446999999996,
                    "velocity": 0.41732283464566927,
                    "duration": 0.6599209999999971
                },
                {
                    "name": "E4",
                    "midi": 64,
                    "time": 46.19446999999996,
                    "velocity": 0.31496062992125984,
                    "duration": 2.6396839999999884
                },
                {
                    "name": "B4",
                    "midi": 71,
                    "time": 46.85439099999996,
                    "velocity": 0.3543307086614173,
                    "duration": 0.6599209999999971
                },
                {
                    "name": "G#4",
                    "midi": 68,
                    "time": 47.514311999999954,
                    "velocity": 0.33858267716535434,
                    "duration": 0.6599209999999971
                },
                {
                    "name": "A#4",
                    "midi": 70,
                    "time": 48.17423299999995,
                    "velocity": 0.3543307086614173,
                    "duration": 0.6599209999999971
                },
                {
                    "name": "D#4",
                    "midi": 63,
                    "time": 48.83415399999995,
                    "velocity": 0.30708661417322836,
                    "duration": 0.6186759375000008
                },
                {
                    "name": "B4",
                    "midi": 71,
                    "time": 48.83415399999995,
                    "velocity": 0.3700787401574803,
                    "duration": 0.6186759375000008
                },
                {
                    "name": "B4",
                    "midi": 71,
                    "time": 49.49407499999995,
                    "velocity": 0.4566929133858268,
                    "duration": 0.9898814999999956
                },
                {
                    "name": "G#4",
                    "midi": 68,
                    "time": 50.15399599999995,
                    "velocity": 0.28346456692913385,
                    "duration": 0.6599209999999971
                },
                {
                    "name": "C#5",
                    "midi": 73,
                    "time": 50.48395649999995,
                    "velocity": 0.4094488188976378,
                    "duration": 0.32996049999999855
                },
                {
                    "name": "D#5",
                    "midi": 75,
                    "time": 50.81391699999995,
                    "velocity": 0.4330708661417323,
                    "duration": 0.32996049999999855
                },
                {
                    "name": "F#4",
                    "midi": 66,
                    "time": 50.81391699999995,
                    "velocity": 0.36220472440944884,
                    "duration": 0.6599209999999971
                },
                {
                    "name": "B4",
                    "midi": 71,
                    "time": 51.143877499999945,
                    "velocity": 0.3937007874015748,
                    "duration": 0.32996049999999855
                },
                {
                    "name": "E4",
                    "midi": 64,
                    "time": 51.473837999999944,
                    "velocity": 0.33858267716535434,
                    "duration": 2.6396839999999884
                },
                {
                    "name": "D#5",
                    "midi": 75,
                    "time": 51.473837999999944,
                    "velocity": 0.44881889763779526,
                    "duration": 0.6599209999999971
                },
                {
                    "name": "C#5",
                    "midi": 73,
                    "time": 52.13375899999994,
                    "velocity": 0.4330708661417323,
                    "duration": 0.32996049999999855
                },
                {
                    "name": "B4",
                    "midi": 71,
                    "time": 52.46371949999994,
                    "velocity": 0.3937007874015748,
                    "duration": 0.32996049999999855
                },
                {
                    "name": "G#4",
                    "midi": 68,
                    "time": 52.79367999999994,
                    "velocity": 0.41732283464566927,
                    "duration": 0.6599209999999971
                },
                {
                    "name": "A#4",
                    "midi": 70,
                    "time": 53.453600999999935,
                    "velocity": 0.3937007874015748,
                    "duration": 0.6599209999999971
                },
                {
                    "name": "D#4",
                    "midi": 63,
                    "time": 54.11352199999993,
                    "velocity": 0.31496062992125984,
                    "duration": 0.6186759375000008
                },
                {
                    "name": "B4",
                    "midi": 71,
                    "time": 54.11352199999993,
                    "velocity": 0.3779527559055118,
                    "duration": 0.6186759375000008
                },
                {
                    "name": "B3",
                    "midi": 59,
                    "time": 54.773442999999936,
                    "velocity": 0.44881889763779526,
                    "duration": 0.6599209999999971
                },
                {
                    "name": "E4",
                    "midi": 64,
                    "time": 55.43336399999993,
                    "velocity": 0.47244094488188976,
                    "duration": 0.6599209999999971
                },
                {
                    "name": "E4",
                    "midi": 64,
                    "time": 56.09328499999993,
                    "velocity": 0.44881889763779526,
                    "duration": 0.6599209999999971
                },
                {
                    "name": "D#4",
                    "midi": 63,
                    "time": 56.75320599999993,
                    "velocity": 0.44881889763779526,
                    "duration": 0.6599209999999971
                },
                {
                    "name": "C#4",
                    "midi": 61,
                    "time": 57.413126999999925,
                    "velocity": 0.44881889763779526,
                    "duration": 0.32996049999999855
                },
                {
                    "name": "B3",
                    "midi": 59,
                    "time": 57.74308749999992,
                    "velocity": 0.4330708661417323,
                    "duration": 0.32996049999999855
                },
                {
                    "name": "A3",
                    "midi": 57,
                    "time": 58.07304799999992,
                    "velocity": 0.3543307086614173,
                    "duration": 1.3198420000000013
                },
                {
                    "name": "C#4",
                    "midi": 61,
                    "time": 58.07304799999992,
                    "velocity": 0.41732283464566927,
                    "duration": 1.3198420000000013
                },
                {
                    "name": "G#3",
                    "midi": 56,
                    "time": 59.39288999999992,
                    "velocity": 0.3464566929133858,
                    "duration": 0.6599209999999971
                },
                {
                    "name": "E4",
                    "midi": 64,
                    "time": 59.39288999999992,
                    "velocity": 0.4094488188976378,
                    "duration": 0.6599209999999971
                },
                {
                    "name": "C#4",
                    "midi": 61,
                    "time": 60.71273199999992,
                    "velocity": 0.3228346456692913,
                    "duration": 0.6599209999999971
                },
                {
                    "name": "F#4",
                    "midi": 66,
                    "time": 60.71273199999992,
                    "velocity": 0.3858267716535433,
                    "duration": 0.6599209999999971
                },
                {
                    "name": "F#4",
                    "midi": 66,
                    "time": 61.372652999999914,
                    "velocity": 0.3700787401574803,
                    "duration": 0.6599209999999971
                },
                {
                    "name": "A3",
                    "midi": 57,
                    "time": 61.372652999999914,
                    "velocity": 0.30708661417322836,
                    "duration": 0.6599209999999971
                },
                {
                    "name": "B3",
                    "midi": 59,
                    "time": 62.03257399999991,
                    "velocity": 0.25984251968503935,
                    "duration": 1.3198420000000013
                },
                {
                    "name": "A3",
                    "midi": 57,
                    "time": 62.03257399999991,
                    "velocity": 0.25984251968503935,
                    "duration": 1.3198420000000013
                },
                {
                    "name": "F#4",
                    "midi": 66,
                    "time": 62.03257399999991,
                    "velocity": 0.30708661417322836,
                    "duration": 0.9898815000000027
                },
                {
                    "name": "E4",
                    "midi": 64,
                    "time": 63.022455499999914,
                    "velocity": 0.29133858267716534,
                    "duration": 0.32996049999999855
                },
                {
                    "name": "E4",
                    "midi": 64,
                    "time": 63.35241599999991,
                    "velocity": 0.25984251968503935,
                    "duration": 1.3198420000000013
                },
                {
                    "name": "B3",
                    "midi": 59,
                    "time": 63.35241599999991,
                    "velocity": 0.2204724409448819,
                    "duration": 1.3198420000000013
                },
                {
                    "name": "G#3",
                    "midi": 56,
                    "time": 63.35241599999991,
                    "velocity": 0.2204724409448819,
                    "duration": 1.3198420000000013
                },
                {
                    "name": "B3",
                    "midi": 59,
                    "time": 70.2815864999999,
                    "velocity": 0.2440944881889764,
                    "duration": 0.32996049999999855
                },
                {
                    "name": "E4",
                    "midi": 64,
                    "time": 70.2815864999999,
                    "velocity": 0.2440944881889764,
                    "duration": 0.32996049999999855
                },
                {
                    "name": "G4",
                    "midi": 67,
                    "time": 70.2815864999999,
                    "velocity": 0.29133858267716534,
                    "duration": 0.32996049999999855
                },
                {
                    "name": "E4",
                    "midi": 64,
                    "time": 70.6115469999999,
                    "velocity": 0.25984251968503935,
                    "duration": 0.32996049999999855
                },
                {
                    "name": "G4",
                    "midi": 67,
                    "time": 70.6115469999999,
                    "velocity": 0.25984251968503935,
                    "duration": 0.32996049999999855
                },
                {
                    "name": "B4",
                    "midi": 71,
                    "time": 70.6115469999999,
                    "velocity": 0.30708661417322836,
                    "duration": 0.32996049999999855
                },
                {
                    "name": "G4",
                    "midi": 67,
                    "time": 70.9415074999999,
                    "velocity": 0.2755905511811024,
                    "duration": 0.32996049999999855
                },
                {
                    "name": "B4",
                    "midi": 71,
                    "time": 70.9415074999999,
                    "velocity": 0.2755905511811024,
                    "duration": 0.32996049999999855
                },
                {
                    "name": "E5",
                    "midi": 76,
                    "time": 70.9415074999999,
                    "velocity": 0.33070866141732286,
                    "duration": 0.32996049999999855
                },
                {
                    "name": "G4",
                    "midi": 67,
                    "time": 71.2714679999999,
                    "velocity": 0.2992125984251969,
                    "duration": 0.9898814999999956
                },
                {
                    "name": "B4",
                    "midi": 71,
                    "time": 71.2714679999999,
                    "velocity": 0.2992125984251969,
                    "duration": 0.9898814999999956
                },
                {
                    "name": "E5",
                    "midi": 76,
                    "time": 71.2714679999999,
                    "velocity": 0.3543307086614173,
                    "duration": 0.9898814999999956
                },
                {
                    "name": "E4",
                    "midi": 64,
                    "time": 72.2613494999999,
                    "velocity": 0.29133858267716534,
                    "duration": 0.32996049999999855
                },
                {
                    "name": "G4",
                    "midi": 67,
                    "time": 72.2613494999999,
                    "velocity": 0.29133858267716534,
                    "duration": 0.32996049999999855
                },
                {
                    "name": "B4",
                    "midi": 71,
                    "time": 72.2613494999999,
                    "velocity": 0.3464566929133858,
                    "duration": 0.32996049999999855
                },
                {
                    "name": "B3",
                    "midi": 59,
                    "time": 72.5913099999999,
                    "velocity": 0.33070866141732286,
                    "duration": 0.6599209999999971
                },
                {
                    "name": "E4",
                    "midi": 64,
                    "time": 72.5913099999999,
                    "velocity": 0.33070866141732286,
                    "duration": 0.6599209999999971
                },
                {
                    "name": "G4",
                    "midi": 67,
                    "time": 72.5913099999999,
                    "velocity": 0.4015748031496063,
                    "duration": 0.6599209999999971
                },
                {
                    "name": "E4",
                    "midi": 64,
                    "time": 73.25123099999989,
                    "velocity": 0.4015748031496063,
                    "duration": 0.6599209999999971
                },
                {
                    "name": "G4",
                    "midi": 67,
                    "time": 73.25123099999989,
                    "velocity": 0.4015748031496063,
                    "duration": 0.6599209999999971
                },
                {
                    "name": "B4",
                    "midi": 71,
                    "time": 73.25123099999989,
                    "velocity": 0.47244094488188976,
                    "duration": 0.6599209999999971
                },
                {
                    "name": "D4",
                    "midi": 62,
                    "time": 73.91115199999989,
                    "velocity": 0.47244094488188976,
                    "duration": 2.6121872916666717
                },
                {
                    "name": "F#4",
                    "midi": 66,
                    "time": 73.91115199999989,
                    "velocity": 0.47244094488188976,
                    "duration": 2.6121872916666717
                },
                {
                    "name": "A4",
                    "midi": 69,
                    "time": 73.91115199999989,
                    "velocity": 0.47244094488188976,
                    "duration": 2.6121872916666717
                },
                {
                    "name": "D5",
                    "midi": 74,
                    "time": 73.91115199999989,
                    "velocity": 0.5511811023622047,
                    "duration": 2.6121872916666717
                },
                {
                    "name": "C4",
                    "midi": 60,
                    "time": 80.8403224999999,
                    "velocity": 0.2992125984251969,
                    "duration": 0.32996049999999855
                },
                {
                    "name": "F4",
                    "midi": 65,
                    "time": 80.8403224999999,
                    "velocity": 0.2992125984251969,
                    "duration": 0.32996049999999855
                },
                {
                    "name": "A4",
                    "midi": 69,
                    "time": 80.8403224999999,
                    "velocity": 0.3543307086614173,
                    "duration": 0.32996049999999855
                },
                {
                    "name": "F4",
                    "midi": 65,
                    "time": 81.1702829999999,
                    "velocity": 0.36220472440944884,
                    "duration": 0.32996049999999855
                },
                {
                    "name": "A4",
                    "midi": 69,
                    "time": 81.1702829999999,
                    "velocity": 0.36220472440944884,
                    "duration": 0.32996049999999855
                },
                {
                    "name": "C5",
                    "midi": 72,
                    "time": 81.1702829999999,
                    "velocity": 0.4330708661417323,
                    "duration": 0.32996049999999855
                },
                {
                    "name": "A4",
                    "midi": 69,
                    "time": 81.5002434999999,
                    "velocity": 0.4251968503937008,
                    "duration": 0.32996049999999855
                },
                {
                    "name": "C5",
                    "midi": 72,
                    "time": 81.5002434999999,
                    "velocity": 0.4251968503937008,
                    "duration": 0.32996049999999855
                },
                {
                    "name": "F5",
                    "midi": 77,
                    "time": 81.5002434999999,
                    "velocity": 0.5118110236220472,
                    "duration": 0.32996049999999855
                },
                {
                    "name": "A4",
                    "midi": 69,
                    "time": 81.8302039999999,
                    "velocity": 0.5118110236220472,
                    "duration": 0.9898814999999956
                },
                {
                    "name": "C5",
                    "midi": 72,
                    "time": 81.8302039999999,
                    "velocity": 0.5118110236220472,
                    "duration": 0.9898814999999956
                },
                {
                    "name": "F5",
                    "midi": 77,
                    "time": 81.8302039999999,
                    "velocity": 0.6062992125984252,
                    "duration": 0.9898814999999956
                },
                {
                    "name": "F4",
                    "midi": 65,
                    "time": 82.82008549999989,
                    "velocity": 0.4015748031496063,
                    "duration": 0.32996049999999855
                },
                {
                    "name": "A4",
                    "midi": 69,
                    "time": 82.82008549999989,
                    "velocity": 0.4015748031496063,
                    "duration": 0.32996049999999855
                },
                {
                    "name": "C5",
                    "midi": 72,
                    "time": 82.82008549999989,
                    "velocity": 0.47244094488188976,
                    "duration": 0.32996049999999855
                },
                {
                    "name": "C4",
                    "midi": 60,
                    "time": 83.15004599999989,
                    "velocity": 0.3543307086614173,
                    "duration": 0.6599209999999971
                },
                {
                    "name": "F4",
                    "midi": 65,
                    "time": 83.15004599999989,
                    "velocity": 0.3543307086614173,
                    "duration": 0.6599209999999971
                },
                {
                    "name": "A4",
                    "midi": 69,
                    "time": 83.15004599999989,
                    "velocity": 0.4251968503937008,
                    "duration": 0.6599209999999971
                },
                {
                    "name": "A4",
                    "midi": 69,
                    "time": 83.80996699999989,
                    "velocity": 0.30708661417322836,
                    "duration": 0.6599209999999971
                },
                {
                    "name": "C5",
                    "midi": 72,
                    "time": 83.80996699999989,
                    "velocity": 0.36220472440944884,
                    "duration": 0.6599209999999971
                },
                {
                    "name": "E4",
                    "midi": 64,
                    "time": 83.80996699999989,
                    "velocity": 0.30708661417322836,
                    "duration": 0.6599209999999971
                },
                {
                    "name": "D#4",
                    "midi": 63,
                    "time": 84.46988799999988,
                    "velocity": 0.29133858267716534,
                    "duration": 2.6121872916666717
                },
                {
                    "name": "B4",
                    "midi": 71,
                    "time": 84.46988799999988,
                    "velocity": 0.3464566929133858,
                    "duration": 2.6121872916666717
                },
                {
                    "name": "F#4",
                    "midi": 66,
                    "time": 84.46988799999988,
                    "velocity": 0.29133858267716534,
                    "duration": 2.6121872916666717
                },
                {
                    "name": "B3",
                    "midi": 59,
                    "time": 91.39905849999988,
                    "velocity": 0.2283464566929134,
                    "duration": 0.32996049999999855
                },
                {
                    "name": "E4",
                    "midi": 64,
                    "time": 91.39905849999988,
                    "velocity": 0.2283464566929134,
                    "duration": 0.32996049999999855
                },
                {
                    "name": "G4",
                    "midi": 67,
                    "time": 91.39905849999988,
                    "velocity": 0.2755905511811024,
                    "duration": 0.32996049999999855
                },
                {
                    "name": "E4",
                    "midi": 64,
                    "time": 91.72901899999988,
                    "velocity": 0.25984251968503935,
                    "duration": 0.32996049999999855
                },
                {
                    "name": "G4",
                    "midi": 67,
                    "time": 91.72901899999988,
                    "velocity": 0.25984251968503935,
                    "duration": 0.32996049999999855
                },
                {
                    "name": "B4",
                    "midi": 71,
                    "time": 91.72901899999988,
                    "velocity": 0.30708661417322836,
                    "duration": 0.32996049999999855
                },
                {
                    "name": "G4",
                    "midi": 67,
                    "time": 92.05897949999988,
                    "velocity": 0.28346456692913385,
                    "duration": 0.32996049999999855
                },
                {
                    "name": "B4",
                    "midi": 71,
                    "time": 92.05897949999988,
                    "velocity": 0.28346456692913385,
                    "duration": 0.32996049999999855
                },
                {
                    "name": "E5",
                    "midi": 76,
                    "time": 92.05897949999988,
                    "velocity": 0.33858267716535434,
                    "duration": 0.32996049999999855
                },
                {
                    "name": "G4",
                    "midi": 67,
                    "time": 92.38893999999988,
                    "velocity": 0.30708661417322836,
                    "duration": 0.9898814999999956
                },
                {
                    "name": "B4",
                    "midi": 71,
                    "time": 92.38893999999988,
                    "velocity": 0.30708661417322836,
                    "duration": 0.9898814999999956
                },
                {
                    "name": "E5",
                    "midi": 76,
                    "time": 92.38893999999988,
                    "velocity": 0.36220472440944884,
                    "duration": 0.9898814999999956
                },
                {
                    "name": "E4",
                    "midi": 64,
                    "time": 93.37882149999987,
                    "velocity": 0.30708661417322836,
                    "duration": 0.32996049999999855
                },
                {
                    "name": "G4",
                    "midi": 67,
                    "time": 93.37882149999987,
                    "velocity": 0.30708661417322836,
                    "duration": 0.32996049999999855
                },
                {
                    "name": "B4",
                    "midi": 71,
                    "time": 93.37882149999987,
                    "velocity": 0.36220472440944884,
                    "duration": 0.32996049999999855
                },
                {
                    "name": "B3",
                    "midi": 59,
                    "time": 93.70878199999987,
                    "velocity": 0.3464566929133858,
                    "duration": 0.6599209999999971
                },
                {
                    "name": "E4",
                    "midi": 64,
                    "time": 93.70878199999987,
                    "velocity": 0.3464566929133858,
                    "duration": 0.6599209999999971
                },
                {
                    "name": "G4",
                    "midi": 67,
                    "time": 93.70878199999987,
                    "velocity": 0.4094488188976378,
                    "duration": 0.6599209999999971
                },
                {
                    "name": "E4",
                    "midi": 64,
                    "time": 94.36870299999987,
                    "velocity": 0.4094488188976378,
                    "duration": 0.6599209999999971
                },
                {
                    "name": "G4",
                    "midi": 67,
                    "time": 94.36870299999987,
                    "velocity": 0.4094488188976378,
                    "duration": 0.6599209999999971
                },
                {
                    "name": "B4",
                    "midi": 71,
                    "time": 94.36870299999987,
                    "velocity": 0.49606299212598426,
                    "duration": 0.6599209999999971
                },
                {
                    "name": "D4",
                    "midi": 62,
                    "time": 95.02862399999987,
                    "velocity": 0.4881889763779528,
                    "duration": 2.6121872916666717
                },
                {
                    "name": "F#4",
                    "midi": 66,
                    "time": 95.02862399999987,
                    "velocity": 0.4881889763779528,
                    "duration": 2.6121872916666717
                },
                {
                    "name": "A4",
                    "midi": 69,
                    "time": 95.02862399999987,
                    "velocity": 0.4881889763779528,
                    "duration": 2.6121872916666717
                },
                {
                    "name": "D5",
                    "midi": 74,
                    "time": 95.02862399999987,
                    "velocity": 0.5748031496062992,
                    "duration": 2.6121872916666717
                },
                {
                    "name": "C4",
                    "midi": 60,
                    "time": 101.95779449999986,
                    "velocity": 0.25984251968503935,
                    "duration": 0.32996049999999855
                },
                {
                    "name": "F4",
                    "midi": 65,
                    "time": 101.95779449999986,
                    "velocity": 0.25984251968503935,
                    "duration": 0.32996049999999855
                },
                {
                    "name": "A4",
                    "midi": 69,
                    "time": 101.95779449999986,
                    "velocity": 0.30708661417322836,
                    "duration": 0.32996049999999855
                },
                {
                    "name": "F4",
                    "midi": 65,
                    "time": 102.28775499999986,
                    "velocity": 0.33070866141732286,
                    "duration": 0.32996049999999855
                },
                {
                    "name": "A4",
                    "midi": 69,
                    "time": 102.28775499999986,
                    "velocity": 0.33070866141732286,
                    "duration": 0.32996049999999855
                },
                {
                    "name": "C5",
                    "midi": 72,
                    "time": 102.28775499999986,
                    "velocity": 0.3937007874015748,
                    "duration": 0.32996049999999855
                },
                {
                    "name": "A4",
                    "midi": 69,
                    "time": 102.61771549999986,
                    "velocity": 0.41732283464566927,
                    "duration": 0.32996049999999855
                },
                {
                    "name": "C5",
                    "midi": 72,
                    "time": 102.61771549999986,
                    "velocity": 0.41732283464566927,
                    "duration": 0.32996049999999855
                },
                {
                    "name": "F5",
                    "midi": 77,
                    "time": 102.61771549999986,
                    "velocity": 0.49606299212598426,
                    "duration": 0.32996049999999855
                },
                {
                    "name": "A4",
                    "midi": 69,
                    "time": 102.94767599999986,
                    "velocity": 0.49606299212598426,
                    "duration": 0.9898814999999956
                },
                {
                    "name": "C5",
                    "midi": 72,
                    "time": 102.94767599999986,
                    "velocity": 0.49606299212598426,
                    "duration": 0.9898814999999956
                },
                {
                    "name": "F5",
                    "midi": 77,
                    "time": 102.94767599999986,
                    "velocity": 0.5905511811023622,
                    "duration": 0.9898814999999956
                },
                {
                    "name": "A4",
                    "midi": 69,
                    "time": 103.93755749999985,
                    "velocity": 0.4015748031496063,
                    "duration": 0.32996049999999855
                },
                {
                    "name": "C5",
                    "midi": 72,
                    "time": 103.93755749999985,
                    "velocity": 0.48031496062992124,
                    "duration": 0.32996049999999855
                },
                {
                    "name": "F4",
                    "midi": 65,
                    "time": 103.93755749999985,
                    "velocity": 0.4015748031496063,
                    "duration": 0.32996049999999855
                },
                {
                    "name": "C4",
                    "midi": 60,
                    "time": 104.26751799999985,
                    "velocity": 0.3779527559055118,
                    "duration": 0.6599209999999971
                },
                {
                    "name": "F4",
                    "midi": 65,
                    "time": 104.26751799999985,
                    "velocity": 0.3779527559055118,
                    "duration": 0.6599209999999971
                },
                {
                    "name": "A4",
                    "midi": 69,
                    "time": 104.26751799999985,
                    "velocity": 0.44881889763779526,
                    "duration": 0.6599209999999971
                },
                {
                    "name": "A4",
                    "midi": 69,
                    "time": 104.92743899999985,
                    "velocity": 0.2992125984251969,
                    "duration": 0.6599209999999971
                },
                {
                    "name": "C5",
                    "midi": 72,
                    "time": 104.92743899999985,
                    "velocity": 0.3543307086614173,
                    "duration": 0.6599209999999971
                },
                {
                    "name": "E4",
                    "midi": 64,
                    "time": 104.92743899999985,
                    "velocity": 0.2992125984251969,
                    "duration": 0.6599209999999971
                },
                {
                    "name": "D#4",
                    "midi": 63,
                    "time": 105.58735999999985,
                    "velocity": 0.25196850393700787,
                    "duration": 1.3198419999999942
                },
                {
                    "name": "F#4",
                    "midi": 66,
                    "time": 105.58735999999985,
                    "velocity": 0.25196850393700787,
                    "duration": 1.3198419999999942
                },
                {
                    "name": "B4",
                    "midi": 71,
                    "time": 105.58735999999985,
                    "velocity": 0.2992125984251969,
                    "duration": 1.3198419999999942
                },
                {
                    "name": "B4",
                    "midi": 71,
                    "time": 107.56712299999984,
                    "velocity": 0.4094488188976378,
                    "duration": 0.9898814999999956
                },
                {
                    "name": "G#4",
                    "midi": 68,
                    "time": 108.22704399999984,
                    "velocity": 0.2440944881889764,
                    "duration": 0.6599209999999971
                },
                {
                    "name": "C#5",
                    "midi": 73,
                    "time": 108.55700449999983,
                    "velocity": 0.4094488188976378,
                    "duration": 0.32996049999999855
                },
                {
                    "name": "D#5",
                    "midi": 75,
                    "time": 108.88696499999983,
                    "velocity": 0.3858267716535433,
                    "duration": 0.6599209999999971
                },
                {
                    "name": "F#4",
                    "midi": 66,
                    "time": 108.88696499999983,
                    "velocity": 0.3228346456692913,
                    "duration": 0.6599209999999971
                },
                {
                    "name": "E4",
                    "midi": 64,
                    "time": 109.54688599999983,
                    "velocity": 0.31496062992125984,
                    "duration": 2.6396839999999884
                },
                {
                    "name": "D#5",
                    "midi": 75,
                    "time": 109.54688599999983,
                    "velocity": 0.41732283464566927,
                    "duration": 0.6599209999999971
                },
                {
                    "name": "B4",
                    "midi": 71,
                    "time": 110.20680699999983,
                    "velocity": 0.4015748031496063,
                    "duration": 0.6599209999999971
                },
                {
                    "name": "G#4",
                    "midi": 68,
                    "time": 110.86672799999982,
                    "velocity": 0.4015748031496063,
                    "duration": 0.6599209999999971
                },
                {
                    "name": "A#4",
                    "midi": 70,
                    "time": 111.52664899999982,
                    "velocity": 0.3937007874015748,
                    "duration": 0.6599209999999971
                },
                {
                    "name": "D#4",
                    "midi": 63,
                    "time": 112.18656999999982,
                    "velocity": 0.3228346456692913,
                    "duration": 0.6186759375000008
                },
                {
                    "name": "B4",
                    "midi": 71,
                    "time": 112.18656999999982,
                    "velocity": 0.3858267716535433,
                    "duration": 0.6186759375000008
                },
                {
                    "name": "B4",
                    "midi": 71,
                    "time": 112.84649099999982,
                    "velocity": 0.4566929133858268,
                    "duration": 0.9898814999999956
                },
                {
                    "name": "G#4",
                    "midi": 68,
                    "time": 113.50641199999981,
                    "velocity": 0.28346456692913385,
                    "duration": 0.6599209999999971
                },
                {
                    "name": "C#5",
                    "midi": 73,
                    "time": 113.83637249999981,
                    "velocity": 0.4094488188976378,
                    "duration": 0.32996049999999855
                },
                {
                    "name": "F#4",
                    "midi": 66,
                    "time": 114.16633299999981,
                    "velocity": 0.36220472440944884,
                    "duration": 0.6599209999999971
                },
                {
                    "name": "D#5",
                    "midi": 75,
                    "time": 114.16633299999981,
                    "velocity": 0.4330708661417323,
                    "duration": 0.32996049999999855
                },
                {
                    "name": "B4",
                    "midi": 71,
                    "time": 114.49629349999981,
                    "velocity": 0.3937007874015748,
                    "duration": 0.32996049999999855
                },
                {
                    "name": "D#5",
                    "midi": 75,
                    "time": 114.8262539999998,
                    "velocity": 0.44881889763779526,
                    "duration": 0.6599209999999971
                },
                {
                    "name": "E4",
                    "midi": 64,
                    "time": 114.8262539999998,
                    "velocity": 0.33858267716535434,
                    "duration": 2.6396839999999884
                },
                {
                    "name": "C#5",
                    "midi": 73,
                    "time": 115.4861749999998,
                    "velocity": 0.4015748031496063,
                    "duration": 0.32996049999999855
                },
                {
                    "name": "B4",
                    "midi": 71,
                    "time": 115.8161354999998,
                    "velocity": 0.4015748031496063,
                    "duration": 0.32996049999999855
                },
                {
                    "name": "G#4",
                    "midi": 68,
                    "time": 116.1460959999998,
                    "velocity": 0.4330708661417323,
                    "duration": 0.6599209999999971
                },
                {
                    "name": "A#4",
                    "midi": 70,
                    "time": 116.8060169999998,
                    "velocity": 0.4015748031496063,
                    "duration": 0.6599209999999971
                },
                {
                    "name": "B4",
                    "midi": 71,
                    "time": 117.4659379999998,
                    "velocity": 0.3858267716535433,
                    "duration": 0.6186759375000008
                },
                {
                    "name": "D#4",
                    "midi": 63,
                    "time": 117.4659379999998,
                    "velocity": 0.3228346456692913,
                    "duration": 0.6186759375000008
                },
                {
                    "name": "B3",
                    "midi": 59,
                    "time": 118.12585899999979,
                    "velocity": 0.4881889763779528,
                    "duration": 0.6599209999999971
                },
                {
                    "name": "E4",
                    "midi": 64,
                    "time": 118.78577999999979,
                    "velocity": 0.5196850393700787,
                    "duration": 0.6599209999999971
                },
                {
                    "name": "E4",
                    "midi": 64,
                    "time": 119.44570099999979,
                    "velocity": 0.49606299212598426,
                    "duration": 0.6599209999999971
                },
                {
                    "name": "D#4",
                    "midi": 63,
                    "time": 120.10562199999978,
                    "velocity": 0.4881889763779528,
                    "duration": 0.6599209999999971
                },
                {
                    "name": "C#4",
                    "midi": 61,
                    "time": 120.76554299999978,
                    "velocity": 0.4881889763779528,
                    "duration": 0.32996049999999855
                },
                {
                    "name": "B3",
                    "midi": 59,
                    "time": 121.09550349999978,
                    "velocity": 0.4409448818897638,
                    "duration": 0.32996049999999855
                },
                {
                    "name": "C#4",
                    "midi": 61,
                    "time": 121.42546399999978,
                    "velocity": 0.4566929133858268,
                    "duration": 1.3198419999999942
                },
                {
                    "name": "A3",
                    "midi": 57,
                    "time": 121.42546399999978,
                    "velocity": 0.3858267716535433,
                    "duration": 1.3198419999999942
                },
                {
                    "name": "E4",
                    "midi": 64,
                    "time": 122.74530599999977,
                    "velocity": 0.44881889763779526,
                    "duration": 0.6599209999999971
                },
                {
                    "name": "G#3",
                    "midi": 56,
                    "time": 122.74530599999977,
                    "velocity": 0.3779527559055118,
                    "duration": 0.6599209999999971
                },
                {
                    "name": "C#4",
                    "midi": 61,
                    "time": 124.06514799999977,
                    "velocity": 0.3937007874015748,
                    "duration": 0.6186759375000008
                },
                {
                    "name": "F#4",
                    "midi": 66,
                    "time": 124.06514799999977,
                    "velocity": 0.4645669291338583,
                    "duration": 0.6186759375000008
                },
                {
                    "name": "C#4",
                    "midi": 61,
                    "time": 124.72506899999976,
                    "velocity": 0.3779527559055118,
                    "duration": 0.6186759375000008
                },
                {
                    "name": "F#4",
                    "midi": 66,
                    "time": 124.72506899999976,
                    "velocity": 0.44881889763779526,
                    "duration": 0.6186759375000008
                },
                {
                    "name": "C#4",
                    "midi": 61,
                    "time": 125.38498999999976,
                    "velocity": 0.3543307086614173,
                    "duration": 0.6186759375000008
                },
                {
                    "name": "A4",
                    "midi": 69,
                    "time": 125.38498999999976,
                    "velocity": 0.41732283464566927,
                    "duration": 0.6186759375000008
                },
                {
                    "name": "C#4",
                    "midi": 61,
                    "time": 126.04491099999976,
                    "velocity": 0.3543307086614173,
                    "duration": 0.6186759375000008
                },
                {
                    "name": "A4",
                    "midi": 69,
                    "time": 126.04491099999976,
                    "velocity": 0.41732283464566927,
                    "duration": 0.6186759375000008
                },
                {
                    "name": "G#4",
                    "midi": 68,
                    "time": 126.70483199999975,
                    "velocity": 0.3858267716535433,
                    "duration": 1.938517937499995
                },
                {
                    "name": "C4",
                    "midi": 60,
                    "time": 126.70483199999975,
                    "velocity": 0.3228346456692913,
                    "duration": 1.938517937499995
                },
                {
                    "name": "G#4",
                    "midi": 68,
                    "time": 128.68459499999975,
                    "velocity": 0.5039370078740157,
                    "duration": 0.6599209999999971
                },
                {
                    "name": "C#5",
                    "midi": 73,
                    "time": 129.34451599999974,
                    "velocity": 0.5590551181102362,
                    "duration": 0.6599209999999971
                },
                {
                    "name": "C#5",
                    "midi": 73,
                    "time": 130.00443699999974,
                    "velocity": 0.5275590551181102,
                    "duration": 0.6599209999999971
                },
                {
                    "name": "B4",
                    "midi": 71,
                    "time": 130.66435799999974,
                    "velocity": 0.5433070866141733,
                    "duration": 0.6599209999999971
                },
                {
                    "name": "A4",
                    "midi": 69,
                    "time": 131.32427899999973,
                    "velocity": 0.5433070866141733,
                    "duration": 0.32996049999999855
                },
                {
                    "name": "G#4",
                    "midi": 68,
                    "time": 131.65423949999973,
                    "velocity": 0.5118110236220472,
                    "duration": 0.32996049999999855
                },
                {
                    "name": "C#4",
                    "midi": 61,
                    "time": 131.98419999999973,
                    "velocity": 0.4566929133858268,
                    "duration": 0.6599209999999971
                },
                {
                    "name": "A4",
                    "midi": 69,
                    "time": 131.98419999999973,
                    "velocity": 0.5433070866141733,
                    "duration": 1.3198419999999942
                },
                {
                    "name": "D#4",
                    "midi": 63,
                    "time": 132.64412099999973,
                    "velocity": 0.44881889763779526,
                    "duration": 0.6599209999999971
                },
                {
                    "name": "E4",
                    "midi": 64,
                    "time": 133.30404199999973,
                    "velocity": 0.4409448818897638,
                    "duration": 0.6599209999999971
                },
                {
                    "name": "G#4",
                    "midi": 68,
                    "time": 133.30404199999973,
                    "velocity": 0.5196850393700787,
                    "duration": 1.3198419999999942
                },
                {
                    "name": "C4",
                    "midi": 60,
                    "time": 133.96396299999972,
                    "velocity": 0.4015748031496063,
                    "duration": 0.6599209999999971
                },
                {
                    "name": "C#4",
                    "midi": 61,
                    "time": 134.62388399999972,
                    "velocity": 0.3700787401574803,
                    "duration": 0.6599209999999971
                },
                {
                    "name": "F#4",
                    "midi": 66,
                    "time": 134.62388399999972,
                    "velocity": 0.4409448818897638,
                    "duration": 0.6599209999999971
                },
                {
                    "name": "A3",
                    "midi": 57,
                    "time": 135.28380499999972,
                    "velocity": 0.3543307086614173,
                    "duration": 0.6599209999999971
                },
                {
                    "name": "F#4",
                    "midi": 66,
                    "time": 135.28380499999972,
                    "velocity": 0.4251968503937008,
                    "duration": 0.6599209999999971
                },
                {
                    "name": "A3",
                    "midi": 57,
                    "time": 135.9437259999997,
                    "velocity": 0.3228346456692913,
                    "duration": 1.3198419999999942
                },
                {
                    "name": "B3",
                    "midi": 59,
                    "time": 135.9437259999997,
                    "velocity": 0.3228346456692913,
                    "duration": 1.3198419999999942
                },
                {
                    "name": "F#4",
                    "midi": 66,
                    "time": 135.9437259999997,
                    "velocity": 0.3858267716535433,
                    "duration": 0.9898814999999956
                },
                {
                    "name": "E4",
                    "midi": 64,
                    "time": 136.9336074999997,
                    "velocity": 0.28346456692913385,
                    "duration": 0.32996049999999855
                },
                {
                    "name": "G#3",
                    "midi": 56,
                    "time": 137.2635679999997,
                    "velocity": 0.18110236220472442,
                    "duration": 2.6396839999999884
                },
                {
                    "name": "B3",
                    "midi": 59,
                    "time": 137.2635679999997,
                    "velocity": 0.18110236220472442,
                    "duration": 2.6396839999999884
                },
                {
                    "name": "E4",
                    "midi": 64,
                    "time": 137.2635679999997,
                    "velocity": 0.2125984251968504,
                    "duration": 2.6396839999999884
                }
            ],
            "controlChanges": {
                "7": [
                    {
                        "number": 7,
                        "time": 0,
                        "value": 0.7874015748031497
                    }
                ],
                "10": [
                    {
                        "number": 10,
                        "time": 0,
                        "value": 0.5039370078740157
                    }
                ],
                "91": [
                    {
                        "number": 91,
                        "time": 1.9742636583333333,
                        "value": 1
                    },
                    {
                        "number": 91,
                        "time": 65.99209999999991,
                        "value": 1
                    }
                ]
            },
            "id": 1,
            "name": "Piano right",
            "instrumentNumber": 0,
            "instrument": "acoustic grand piano",
            "instrumentFamily": "piano",
            "channelNumber": 0,
            "isPercussion": false
        },
        {
            "startTime": 1.979763,
            "duration": 139.90325200000024,
            "length": 215,
            "notes": [
                {
                    "name": "B2",
                    "midi": 47,
                    "time": 1.979763,
                    "velocity": 0.3779527559055118,
                    "duration": 0.659921
                },
                {
                    "name": "E3",
                    "midi": 52,
                    "time": 2.639684,
                    "velocity": 0.4015748031496063,
                    "duration": 0.6599209999999998
                },
                {
                    "name": "E3",
                    "midi": 52,
                    "time": 3.2996049999999997,
                    "velocity": 0.4015748031496063,
                    "duration": 0.6599209999999998
                },
                {
                    "name": "D#3",
                    "midi": 51,
                    "time": 3.9595259999999994,
                    "velocity": 0.3779527559055118,
                    "duration": 0.6599209999999998
                },
                {
                    "name": "C#3",
                    "midi": 49,
                    "time": 4.619446999999999,
                    "velocity": 0.36220472440944884,
                    "duration": 0.3299605000000003
                },
                {
                    "name": "B2",
                    "midi": 47,
                    "time": 4.9494074999999995,
                    "velocity": 0.3228346456692913,
                    "duration": 0.3299605000000003
                },
                {
                    "name": "A2",
                    "midi": 45,
                    "time": 5.279368,
                    "velocity": 0.2992125984251969,
                    "duration": 1.3198420000000004
                },
                {
                    "name": "E3",
                    "midi": 52,
                    "time": 5.279368,
                    "velocity": 0.3543307086614173,
                    "duration": 1.3198420000000004
                },
                {
                    "name": "E3",
                    "midi": 52,
                    "time": 6.59921,
                    "velocity": 0.3464566929133858,
                    "duration": 0.6599209999999998
                },
                {
                    "name": "C#3",
                    "midi": 49,
                    "time": 6.59921,
                    "velocity": 0.29133858267716534,
                    "duration": 0.6599209999999998
                },
                {
                    "name": "A2",
                    "midi": 45,
                    "time": 7.919052,
                    "velocity": 0.29133858267716534,
                    "duration": 0.43994733333333347
                },
                {
                    "name": "E3",
                    "midi": 52,
                    "time": 7.919052,
                    "velocity": 0.3464566929133858,
                    "duration": 0.43994733333333347
                },
                {
                    "name": "E3",
                    "midi": 52,
                    "time": 8.578973,
                    "velocity": 0.33070866141732286,
                    "duration": 0.4399473333333326
                },
                {
                    "name": "A2",
                    "midi": 45,
                    "time": 8.578973,
                    "velocity": 0.2755905511811024,
                    "duration": 0.4399473333333326
                },
                {
                    "name": "D#3",
                    "midi": 51,
                    "time": 9.238893999999998,
                    "velocity": 0.33070866141732286,
                    "duration": 0.4399473333333326
                },
                {
                    "name": "B2",
                    "midi": 47,
                    "time": 9.238893999999998,
                    "velocity": 0.2755905511811024,
                    "duration": 0.4399473333333326
                },
                {
                    "name": "D#3",
                    "midi": 51,
                    "time": 9.898814999999997,
                    "velocity": 0.30708661417322836,
                    "duration": 0.4399473333333326
                },
                {
                    "name": "B2",
                    "midi": 47,
                    "time": 9.898814999999997,
                    "velocity": 0.25984251968503935,
                    "duration": 0.4399473333333326
                },
                {
                    "name": "E3",
                    "midi": 52,
                    "time": 10.558735999999996,
                    "velocity": 0.3464566929133858,
                    "duration": 1.3198420000000013
                },
                {
                    "name": "E2",
                    "midi": 40,
                    "time": 10.558735999999996,
                    "velocity": 0.29133858267716534,
                    "duration": 1.3198420000000013
                },
                {
                    "name": "G#3",
                    "midi": 56,
                    "time": 12.538498999999998,
                    "velocity": 0.5196850393700787,
                    "duration": 0.6599210000000006
                },
                {
                    "name": "C#4",
                    "midi": 61,
                    "time": 13.198419999999999,
                    "velocity": 0.5196850393700787,
                    "duration": 0.6599210000000006
                },
                {
                    "name": "C#4",
                    "midi": 61,
                    "time": 13.858341,
                    "velocity": 0.5039370078740157,
                    "duration": 0.6599210000000006
                },
                {
                    "name": "B3",
                    "midi": 59,
                    "time": 14.518262,
                    "velocity": 0.5039370078740157,
                    "duration": 0.6599210000000006
                },
                {
                    "name": "A3",
                    "midi": 57,
                    "time": 15.178183,
                    "velocity": 0.5118110236220472,
                    "duration": 0.3299605000000003
                },
                {
                    "name": "G#3",
                    "midi": 56,
                    "time": 15.508143500000001,
                    "velocity": 0.4645669291338583,
                    "duration": 0.3299605000000003
                },
                {
                    "name": "A3",
                    "midi": 57,
                    "time": 15.838104000000001,
                    "velocity": 0.5433070866141733,
                    "duration": 0.6599210000000006
                },
                {
                    "name": "F#3",
                    "midi": 54,
                    "time": 16.498025000000002,
                    "velocity": 0.4645669291338583,
                    "duration": 0.6599210000000006
                },
                {
                    "name": "C#3",
                    "midi": 49,
                    "time": 17.157946000000003,
                    "velocity": 0.47244094488188976,
                    "duration": 1.3198420000000013
                },
                {
                    "name": "A2",
                    "midi": 45,
                    "time": 18.477788000000004,
                    "velocity": 0.36220472440944884,
                    "duration": 0.6599210000000006
                },
                {
                    "name": "E3",
                    "midi": 52,
                    "time": 18.477788000000004,
                    "velocity": 0.4330708661417323,
                    "duration": 0.6599210000000006
                },
                {
                    "name": "E3",
                    "midi": 52,
                    "time": 19.137709000000005,
                    "velocity": 0.3700787401574803,
                    "duration": 0.6599210000000006
                },
                {
                    "name": "F#2",
                    "midi": 42,
                    "time": 19.137709000000005,
                    "velocity": 0.30708661417322836,
                    "duration": 0.6599210000000006
                },
                {
                    "name": "E3",
                    "midi": 52,
                    "time": 19.797630000000005,
                    "velocity": 0.36220472440944884,
                    "duration": 0.6599210000000006
                },
                {
                    "name": "B2",
                    "midi": 47,
                    "time": 19.797630000000005,
                    "velocity": 0.30708661417322836,
                    "duration": 1.3198420000000013
                },
                {
                    "name": "D#3",
                    "midi": 51,
                    "time": 20.457551000000006,
                    "velocity": 0.3464566929133858,
                    "duration": 0.6599210000000006
                },
                {
                    "name": "B2",
                    "midi": 47,
                    "time": 21.117472000000006,
                    "velocity": 0.2283464566929134,
                    "duration": 1.3198420000000013
                },
                {
                    "name": "E3",
                    "midi": 52,
                    "time": 21.117472000000006,
                    "velocity": 0.2755905511811024,
                    "duration": 1.3198420000000013
                },
                {
                    "name": "E2",
                    "midi": 40,
                    "time": 21.117472000000006,
                    "velocity": 0.2283464566929134,
                    "duration": 1.3198420000000013
                },
                {
                    "name": "G#3",
                    "midi": 56,
                    "time": 23.75715600000001,
                    "velocity": 0.31496062992125984,
                    "duration": 1.3198420000000013
                },
                {
                    "name": "C#3",
                    "midi": 49,
                    "time": 25.07699800000001,
                    "velocity": 0.31496062992125984,
                    "duration": 1.9797629999999984
                },
                {
                    "name": "F#3",
                    "midi": 54,
                    "time": 27.05676100000001,
                    "velocity": 0.36220472440944884,
                    "duration": 0.6599210000000006
                },
                {
                    "name": "B2",
                    "midi": 47,
                    "time": 27.71668200000001,
                    "velocity": 0.3700787401574803,
                    "duration": 0.6186759375000008
                },
                {
                    "name": "G#3",
                    "midi": 56,
                    "time": 29.03652400000001,
                    "velocity": 0.3543307086614173,
                    "duration": 1.3198420000000013
                },
                {
                    "name": "C#3",
                    "midi": 49,
                    "time": 30.356366000000012,
                    "velocity": 0.3543307086614173,
                    "duration": 1.979763000000002
                },
                {
                    "name": "F#3",
                    "midi": 54,
                    "time": 32.336129000000014,
                    "velocity": 0.4251968503937008,
                    "duration": 0.6599209999999971
                },
                {
                    "name": "B2",
                    "midi": 47,
                    "time": 32.99605000000001,
                    "velocity": 0.4015748031496063,
                    "duration": 0.6186759375000008
                },
                {
                    "name": "B2",
                    "midi": 47,
                    "time": 33.655971000000015,
                    "velocity": 0.3779527559055118,
                    "duration": 0.6599209999999971
                },
                {
                    "name": "E3",
                    "midi": 52,
                    "time": 34.31589200000001,
                    "velocity": 0.4015748031496063,
                    "duration": 0.6599209999999971
                },
                {
                    "name": "E3",
                    "midi": 52,
                    "time": 34.97581300000001,
                    "velocity": 0.3779527559055118,
                    "duration": 0.6599209999999971
                },
                {
                    "name": "D#3",
                    "midi": 51,
                    "time": 35.63573400000001,
                    "velocity": 0.3779527559055118,
                    "duration": 0.6599209999999971
                },
                {
                    "name": "C#3",
                    "midi": 49,
                    "time": 36.295655000000004,
                    "velocity": 0.36220472440944884,
                    "duration": 0.32996049999999855
                },
                {
                    "name": "B2",
                    "midi": 47,
                    "time": 36.6256155,
                    "velocity": 0.3464566929133858,
                    "duration": 0.32996049999999855
                },
                {
                    "name": "E3",
                    "midi": 52,
                    "time": 36.955576,
                    "velocity": 0.3464566929133858,
                    "duration": 1.3198420000000013
                },
                {
                    "name": "A2",
                    "midi": 45,
                    "time": 36.955576,
                    "velocity": 0.29133858267716534,
                    "duration": 1.3198420000000013
                },
                {
                    "name": "C#3",
                    "midi": 49,
                    "time": 38.275418,
                    "velocity": 0.2992125984251969,
                    "duration": 0.6599210000000042
                },
                {
                    "name": "E3",
                    "midi": 52,
                    "time": 38.275418,
                    "velocity": 0.3543307086614173,
                    "duration": 0.6599210000000042
                },
                {
                    "name": "E3",
                    "midi": 52,
                    "time": 39.59526,
                    "velocity": 0.3779527559055118,
                    "duration": 0.6599210000000042
                },
                {
                    "name": "A2",
                    "midi": 45,
                    "time": 39.59526,
                    "velocity": 0.31496062992125984,
                    "duration": 0.6599210000000042
                },
                {
                    "name": "E3",
                    "midi": 52,
                    "time": 40.25518100000001,
                    "velocity": 0.36220472440944884,
                    "duration": 0.6599209999999971
                },
                {
                    "name": "F#2",
                    "midi": 42,
                    "time": 40.25518100000001,
                    "velocity": 0.30708661417322836,
                    "duration": 0.6599209999999971
                },
                {
                    "name": "B2",
                    "midi": 47,
                    "time": 40.915102000000005,
                    "velocity": 0.28346456692913385,
                    "duration": 1.3198419999999942
                },
                {
                    "name": "E3",
                    "midi": 52,
                    "time": 40.915102000000005,
                    "velocity": 0.33858267716535434,
                    "duration": 0.6599209999999971
                },
                {
                    "name": "D#3",
                    "midi": 51,
                    "time": 41.575023,
                    "velocity": 0.33858267716535434,
                    "duration": 0.6599209999999971
                },
                {
                    "name": "E2",
                    "midi": 40,
                    "time": 42.234944,
                    "velocity": 0.25984251968503935,
                    "duration": 1.3198420000000013
                },
                {
                    "name": "E3",
                    "midi": 52,
                    "time": 42.234944,
                    "velocity": 0.30708661417322836,
                    "duration": 1.3198420000000013
                },
                {
                    "name": "B2",
                    "midi": 47,
                    "time": 42.234944,
                    "velocity": 0.25984251968503935,
                    "duration": 1.3198420000000013
                },
                {
                    "name": "G#3",
                    "midi": 56,
                    "time": 44.874628,
                    "velocity": 0.31496062992125984,
                    "duration": 1.3198420000000013
                },
                {
                    "name": "C#3",
                    "midi": 49,
                    "time": 46.19447,
                    "velocity": 0.31496062992125984,
                    "duration": 1.9797629999999984
                },
                {
                    "name": "F#3",
                    "midi": 54,
                    "time": 48.174233,
                    "velocity": 0.3700787401574803,
                    "duration": 0.6599209999999971
                },
                {
                    "name": "B2",
                    "midi": 47,
                    "time": 48.834154,
                    "velocity": 0.3937007874015748,
                    "duration": 0.6186759375000008
                },
                {
                    "name": "G#3",
                    "midi": 56,
                    "time": 50.153996,
                    "velocity": 0.3543307086614173,
                    "duration": 1.3198420000000013
                },
                {
                    "name": "C#3",
                    "midi": 49,
                    "time": 51.473838,
                    "velocity": 0.3543307086614173,
                    "duration": 1.9797630000000055
                },
                {
                    "name": "F#3",
                    "midi": 54,
                    "time": 53.453601000000006,
                    "velocity": 0.4015748031496063,
                    "duration": 0.6599210000000042
                },
                {
                    "name": "B2",
                    "midi": 47,
                    "time": 54.11352200000001,
                    "velocity": 0.3937007874015748,
                    "duration": 0.6186759375000008
                },
                {
                    "name": "B2",
                    "midi": 47,
                    "time": 54.773443000000015,
                    "velocity": 0.3779527559055118,
                    "duration": 0.6599209999999971
                },
                {
                    "name": "E3",
                    "midi": 52,
                    "time": 55.43336400000001,
                    "velocity": 0.4015748031496063,
                    "duration": 0.6599209999999971
                },
                {
                    "name": "E3",
                    "midi": 52,
                    "time": 56.09328500000001,
                    "velocity": 0.3779527559055118,
                    "duration": 0.6599209999999971
                },
                {
                    "name": "D#3",
                    "midi": 51,
                    "time": 56.753206000000006,
                    "velocity": 0.3779527559055118,
                    "duration": 0.6599209999999971
                },
                {
                    "name": "C#3",
                    "midi": 49,
                    "time": 57.413127,
                    "velocity": 0.36220472440944884,
                    "duration": 0.32996049999999855
                },
                {
                    "name": "B2",
                    "midi": 47,
                    "time": 57.7430875,
                    "velocity": 0.3464566929133858,
                    "duration": 0.32996049999999855
                },
                {
                    "name": "A2",
                    "midi": 45,
                    "time": 58.073048,
                    "velocity": 0.29133858267716534,
                    "duration": 1.3198420000000013
                },
                {
                    "name": "E3",
                    "midi": 52,
                    "time": 58.073048,
                    "velocity": 0.3464566929133858,
                    "duration": 1.3198420000000013
                },
                {
                    "name": "C#3",
                    "midi": 49,
                    "time": 59.39289,
                    "velocity": 0.2992125984251969,
                    "duration": 0.6599209999999971
                },
                {
                    "name": "E3",
                    "midi": 52,
                    "time": 59.39289,
                    "velocity": 0.3543307086614173,
                    "duration": 0.6599209999999971
                },
                {
                    "name": "A2",
                    "midi": 45,
                    "time": 60.712731999999995,
                    "velocity": 0.2992125984251969,
                    "duration": 0.6599210000000042
                },
                {
                    "name": "E3",
                    "midi": 52,
                    "time": 60.712731999999995,
                    "velocity": 0.3543307086614173,
                    "duration": 0.6599210000000042
                },
                {
                    "name": "E3",
                    "midi": 52,
                    "time": 61.372653,
                    "velocity": 0.3228346456692913,
                    "duration": 0.6599209999999971
                },
                {
                    "name": "F#2",
                    "midi": 42,
                    "time": 61.372653,
                    "velocity": 0.2677165354330709,
                    "duration": 0.6599209999999971
                },
                {
                    "name": "B2",
                    "midi": 47,
                    "time": 62.032574,
                    "velocity": 0.2440944881889764,
                    "duration": 1.3198420000000013
                },
                {
                    "name": "E3",
                    "midi": 52,
                    "time": 62.032574,
                    "velocity": 0.29133858267716534,
                    "duration": 0.6599210000000042
                },
                {
                    "name": "D#3",
                    "midi": 51,
                    "time": 62.692495,
                    "velocity": 0.2677165354330709,
                    "duration": 0.6599209999999971
                },
                {
                    "name": "B2",
                    "midi": 47,
                    "time": 63.352416,
                    "velocity": 0.18110236220472442,
                    "duration": 1.3198420000000155
                },
                {
                    "name": "E2",
                    "midi": 40,
                    "time": 63.352416,
                    "velocity": 0.18110236220472442,
                    "duration": 1.3198420000000155
                },
                {
                    "name": "E3",
                    "midi": 52,
                    "time": 63.352416,
                    "velocity": 0.2204724409448819,
                    "duration": 1.3198420000000155
                },
                {
                    "name": "E2",
                    "midi": 40,
                    "time": 65.99210000000001,
                    "velocity": 0.2204724409448819,
                    "duration": 1.3198420000000368
                },
                {
                    "name": "B2",
                    "midi": 47,
                    "time": 66.9819815,
                    "velocity": 0.16535433070866143,
                    "duration": 0.07424111250000465
                },
                {
                    "name": "E3",
                    "midi": 52,
                    "time": 67.031475575,
                    "velocity": 0.1732283464566929,
                    "duration": 0.0701166062500107
                },
                {
                    "name": "G3",
                    "midi": 55,
                    "time": 67.07821997916668,
                    "velocity": 0.1889763779527559,
                    "duration": 0.0701166062500107
                },
                {
                    "name": "B3",
                    "midi": 59,
                    "time": 67.12496438333335,
                    "velocity": 0.1889763779527559,
                    "duration": 0.0701166062500107
                },
                {
                    "name": "G3",
                    "midi": 55,
                    "time": 67.17170878750002,
                    "velocity": 0.1889763779527559,
                    "duration": 0.0701166062500107
                },
                {
                    "name": "E3",
                    "midi": 52,
                    "time": 67.2184531916667,
                    "velocity": 0.18110236220472442,
                    "duration": 0.0701166062500107
                },
                {
                    "name": "B2",
                    "midi": 47,
                    "time": 67.26519759583337,
                    "velocity": 0.1732283464566929,
                    "duration": 0.0701166062500107
                },
                {
                    "name": "E2",
                    "midi": 40,
                    "time": 67.31194200000004,
                    "velocity": 0.2677165354330709,
                    "duration": 1.319842000000051
                },
                {
                    "name": "B2",
                    "midi": 47,
                    "time": 68.30182350000005,
                    "velocity": 0.1732283464566929,
                    "duration": 0.07424111250000465
                },
                {
                    "name": "E3",
                    "midi": 52,
                    "time": 68.35131757500005,
                    "velocity": 0.2047244094488189,
                    "duration": 0.0701166062500107
                },
                {
                    "name": "G3",
                    "midi": 55,
                    "time": 68.39806197916673,
                    "velocity": 0.2204724409448819,
                    "duration": 0.0701166062500107
                },
                {
                    "name": "B3",
                    "midi": 59,
                    "time": 68.4448063833334,
                    "velocity": 0.2283464566929134,
                    "duration": 0.0701166062500107
                },
                {
                    "name": "G3",
                    "midi": 55,
                    "time": 68.49155078750007,
                    "velocity": 0.2204724409448819,
                    "duration": 0.0701166062500107
                },
                {
                    "name": "E3",
                    "midi": 52,
                    "time": 68.53829519166675,
                    "velocity": 0.2047244094488189,
                    "duration": 0.0701166062500107
                },
                {
                    "name": "B2",
                    "midi": 47,
                    "time": 68.58503959583342,
                    "velocity": 0.1889763779527559,
                    "duration": 0.0467444041666738
                },
                {
                    "name": "E2",
                    "midi": 40,
                    "time": 68.6317840000001,
                    "velocity": 0.2992125984251969,
                    "duration": 1.9797629999999913
                },
                {
                    "name": "F2",
                    "midi": 41,
                    "time": 76.55083600000006,
                    "velocity": 0.2204724409448819,
                    "duration": 1.3198420000000368
                },
                {
                    "name": "C3",
                    "midi": 48,
                    "time": 77.54071750000006,
                    "velocity": 0.18110236220472442,
                    "duration": 0.09486364375000278
                },
                {
                    "name": "F3",
                    "midi": 53,
                    "time": 77.59021157500005,
                    "velocity": 0.18110236220472442,
                    "duration": 0.09073913750000884
                },
                {
                    "name": "A3",
                    "midi": 57,
                    "time": 77.63695597916673,
                    "velocity": 0.1889763779527559,
                    "duration": 0.09073913750000884
                },
                {
                    "name": "C4",
                    "midi": 60,
                    "time": 77.6837003833334,
                    "velocity": 0.1968503937007874,
                    "duration": 0.09073913750000884
                },
                {
                    "name": "A3",
                    "midi": 57,
                    "time": 77.73044478750008,
                    "velocity": 0.2204724409448819,
                    "duration": 0.09073913750000884
                },
                {
                    "name": "F3",
                    "midi": 53,
                    "time": 77.77718919166675,
                    "velocity": 0.2047244094488189,
                    "duration": 0.09073913750000884
                },
                {
                    "name": "C3",
                    "midi": 48,
                    "time": 77.82393359583342,
                    "velocity": 0.2047244094488189,
                    "duration": 0.09073913750000884
                },
                {
                    "name": "F2",
                    "midi": 41,
                    "time": 77.8706780000001,
                    "velocity": 0.25196850393700787,
                    "duration": 1.3198420000000368
                },
                {
                    "name": "C3",
                    "midi": 48,
                    "time": 78.8605595000001,
                    "velocity": 0.1732283464566929,
                    "duration": 0.09486364375000278
                },
                {
                    "name": "F3",
                    "midi": 53,
                    "time": 78.91005357500009,
                    "velocity": 0.18110236220472442,
                    "duration": 0.09073913750000884
                },
                {
                    "name": "A3",
                    "midi": 57,
                    "time": 78.95679797916677,
                    "velocity": 0.1889763779527559,
                    "duration": 0.09073913750000884
                },
                {
                    "name": "C4",
                    "midi": 60,
                    "time": 79.00354238333344,
                    "velocity": 0.1889763779527559,
                    "duration": 0.09073913750000884
                },
                {
                    "name": "A3",
                    "midi": 57,
                    "time": 79.05028678750011,
                    "velocity": 0.2047244094488189,
                    "duration": 0.09073913750000884
                },
                {
                    "name": "F3",
                    "midi": 53,
                    "time": 79.09703119166679,
                    "velocity": 0.2047244094488189,
                    "duration": 0.09073913750000884
                },
                {
                    "name": "C3",
                    "midi": 48,
                    "time": 79.14377559583346,
                    "velocity": 0.2047244094488189,
                    "duration": 0.060492758333339225
                },
                {
                    "name": "F2",
                    "midi": 41,
                    "time": 79.19052000000013,
                    "velocity": 0.25196850393700787,
                    "duration": 1.9797629999999913
                },
                {
                    "name": "A3",
                    "midi": 57,
                    "time": 83.80996700000013,
                    "velocity": 0.36220472440944884,
                    "duration": 0.6599209999999971
                },
                {
                    "name": "B3",
                    "midi": 59,
                    "time": 84.46988800000013,
                    "velocity": 0.29133858267716534,
                    "duration": 2.6121872916666575
                },
                {
                    "name": "E2",
                    "midi": 40,
                    "time": 87.10957200000011,
                    "velocity": 0.2204724409448819,
                    "duration": 1.3198420000000368
                },
                {
                    "name": "B2",
                    "midi": 47,
                    "time": 88.09945350000011,
                    "velocity": 0.1732283464566929,
                    "duration": 0.09486364375000278
                },
                {
                    "name": "E3",
                    "midi": 52,
                    "time": 88.14894757500011,
                    "velocity": 0.1732283464566929,
                    "duration": 0.09073913750000884
                },
                {
                    "name": "G3",
                    "midi": 55,
                    "time": 88.19569197916678,
                    "velocity": 0.18110236220472442,
                    "duration": 0.09073913750000884
                },
                {
                    "name": "B3",
                    "midi": 59,
                    "time": 88.24243638333346,
                    "velocity": 0.18110236220472442,
                    "duration": 0.09073913750000884
                },
                {
                    "name": "G3",
                    "midi": 55,
                    "time": 88.28918078750013,
                    "velocity": 0.1732283464566929,
                    "duration": 0.09073913750000884
                },
                {
                    "name": "E3",
                    "midi": 52,
                    "time": 88.3359251916668,
                    "velocity": 0.1732283464566929,
                    "duration": 0.09073913750000884
                },
                {
                    "name": "B2",
                    "midi": 47,
                    "time": 88.38266959583348,
                    "velocity": 0.16535433070866143,
                    "duration": 0.09073913750000884
                },
                {
                    "name": "E2",
                    "midi": 40,
                    "time": 88.42941400000015,
                    "velocity": 0.2125984251968504,
                    "duration": 1.3198420000000368
                },
                {
                    "name": "B2",
                    "midi": 47,
                    "time": 89.41929550000015,
                    "velocity": 0.15748031496062992,
                    "duration": 0.09486364375000278
                },
                {
                    "name": "E3",
                    "midi": 52,
                    "time": 89.46878957500014,
                    "velocity": 0.1732283464566929,
                    "duration": 0.09073913750000884
                },
                {
                    "name": "G3",
                    "midi": 55,
                    "time": 89.51553397916682,
                    "velocity": 0.1889763779527559,
                    "duration": 0.09073913750000884
                },
                {
                    "name": "B3",
                    "midi": 59,
                    "time": 89.56227838333349,
                    "velocity": 0.2047244094488189,
                    "duration": 0.09073913750000884
                },
                {
                    "name": "G3",
                    "midi": 55,
                    "time": 89.60902278750017,
                    "velocity": 0.1889763779527559,
                    "duration": 0.09073913750000884
                },
                {
                    "name": "E3",
                    "midi": 52,
                    "time": 89.65576719166684,
                    "velocity": 0.1732283464566929,
                    "duration": 0.09073913750000884
                },
                {
                    "name": "B2",
                    "midi": 47,
                    "time": 89.70251159583351,
                    "velocity": 0.15748031496062992,
                    "duration": 0.09073913750000884
                },
                {
                    "name": "E2",
                    "midi": 40,
                    "time": 89.74925600000019,
                    "velocity": 0.25196850393700787,
                    "duration": 1.9797630000000055
                },
                {
                    "name": "F2",
                    "midi": 41,
                    "time": 97.66830800000021,
                    "velocity": 0.2204724409448819,
                    "duration": 1.3198420000000368
                },
                {
                    "name": "C3",
                    "midi": 48,
                    "time": 98.6581895000002,
                    "velocity": 0.1968503937007874,
                    "duration": 0.09486364375000278
                },
                {
                    "name": "F3",
                    "midi": 53,
                    "time": 98.7076835750002,
                    "velocity": 0.1968503937007874,
                    "duration": 0.09073913750000884
                },
                {
                    "name": "A3",
                    "midi": 57,
                    "time": 98.75442797916688,
                    "velocity": 0.2047244094488189,
                    "duration": 0.09073913750000884
                },
                {
                    "name": "C4",
                    "midi": 60,
                    "time": 98.80117238333355,
                    "velocity": 0.2204724409448819,
                    "duration": 0.09073913750000884
                },
                {
                    "name": "A3",
                    "midi": 57,
                    "time": 98.84791678750022,
                    "velocity": 0.2204724409448819,
                    "duration": 0.09073913750000884
                },
                {
                    "name": "F3",
                    "midi": 53,
                    "time": 98.8946611916669,
                    "velocity": 0.2204724409448819,
                    "duration": 0.09073913750000884
                },
                {
                    "name": "C3",
                    "midi": 48,
                    "time": 98.94140559583357,
                    "velocity": 0.2047244094488189,
                    "duration": 0.09073913750000884
                },
                {
                    "name": "F2",
                    "midi": 41,
                    "time": 98.98815000000025,
                    "velocity": 0.25196850393700787,
                    "duration": 1.3198420000000368
                },
                {
                    "name": "C3",
                    "midi": 48,
                    "time": 99.97803150000024,
                    "velocity": 0.1889763779527559,
                    "duration": 0.09486364375000278
                },
                {
                    "name": "F3",
                    "midi": 53,
                    "time": 100.02752557500024,
                    "velocity": 0.1889763779527559,
                    "duration": 0.09073913750000884
                },
                {
                    "name": "A3",
                    "midi": 57,
                    "time": 100.07426997916691,
                    "velocity": 0.1968503937007874,
                    "duration": 0.09073913750000884
                },
                {
                    "name": "C4",
                    "midi": 60,
                    "time": 100.12101438333359,
                    "velocity": 0.2047244094488189,
                    "duration": 0.09073913750000884
                },
                {
                    "name": "A3",
                    "midi": 57,
                    "time": 100.16775878750026,
                    "velocity": 0.2204724409448819,
                    "duration": 0.09073913750000884
                },
                {
                    "name": "F3",
                    "midi": 53,
                    "time": 100.21450319166694,
                    "velocity": 0.2204724409448819,
                    "duration": 0.09073913750000884
                },
                {
                    "name": "C3",
                    "midi": 48,
                    "time": 100.26124759583361,
                    "velocity": 0.2204724409448819,
                    "duration": 0.09073913750000884
                },
                {
                    "name": "F2",
                    "midi": 41,
                    "time": 100.30799200000028,
                    "velocity": 0.30708661417322836,
                    "duration": 1.9797629999999913
                },
                {
                    "name": "A3",
                    "midi": 57,
                    "time": 104.92743900000028,
                    "velocity": 0.29133858267716534,
                    "duration": 0.6599210000000113
                },
                {
                    "name": "B3",
                    "midi": 59,
                    "time": 105.58736000000029,
                    "velocity": 0.2440944881889764,
                    "duration": 1.3198419999999942
                },
                {
                    "name": "G#3",
                    "midi": 56,
                    "time": 108.22704400000028,
                    "velocity": 0.31496062992125984,
                    "duration": 1.3198419999999942
                },
                {
                    "name": "C#3",
                    "midi": 49,
                    "time": 109.54688600000027,
                    "velocity": 0.31496062992125984,
                    "duration": 1.9797630000000055
                },
                {
                    "name": "F#3",
                    "midi": 54,
                    "time": 111.52664900000028,
                    "velocity": 0.3700787401574803,
                    "duration": 0.6599209999999971
                },
                {
                    "name": "B2",
                    "midi": 47,
                    "time": 112.18657000000027,
                    "velocity": 0.3937007874015748,
                    "duration": 0.6186759375000008
                },
                {
                    "name": "G#3",
                    "midi": 56,
                    "time": 113.50641200000028,
                    "velocity": 0.3543307086614173,
                    "duration": 1.3198419999999942
                },
                {
                    "name": "C#3",
                    "midi": 49,
                    "time": 114.82625400000028,
                    "velocity": 0.33858267716535434,
                    "duration": 1.9797630000000055
                },
                {
                    "name": "F#3",
                    "midi": 54,
                    "time": 116.80601700000028,
                    "velocity": 0.3858267716535433,
                    "duration": 0.6599209999999971
                },
                {
                    "name": "B2",
                    "midi": 47,
                    "time": 117.46593800000028,
                    "velocity": 0.3700787401574803,
                    "duration": 0.6186759375000008
                },
                {
                    "name": "B2",
                    "midi": 47,
                    "time": 118.12585900000028,
                    "velocity": 0.4094488188976378,
                    "duration": 0.6599209999999971
                },
                {
                    "name": "E3",
                    "midi": 52,
                    "time": 118.78578000000027,
                    "velocity": 0.4409448818897638,
                    "duration": 0.6599209999999971
                },
                {
                    "name": "E3",
                    "midi": 52,
                    "time": 119.44570100000027,
                    "velocity": 0.4251968503937008,
                    "duration": 0.6599209999999971
                },
                {
                    "name": "D#3",
                    "midi": 51,
                    "time": 120.10562200000027,
                    "velocity": 0.4094488188976378,
                    "duration": 0.6599209999999971
                },
                {
                    "name": "C#3",
                    "midi": 49,
                    "time": 120.76554300000026,
                    "velocity": 0.4015748031496063,
                    "duration": 0.32996049999999855
                },
                {
                    "name": "B2",
                    "midi": 47,
                    "time": 121.09550350000026,
                    "velocity": 0.36220472440944884,
                    "duration": 0.32996049999999855
                },
                {
                    "name": "E3",
                    "midi": 52,
                    "time": 121.42546400000026,
                    "velocity": 0.3779527559055118,
                    "duration": 1.3198419999999942
                },
                {
                    "name": "A2",
                    "midi": 45,
                    "time": 121.42546400000026,
                    "velocity": 0.31496062992125984,
                    "duration": 1.3198419999999942
                },
                {
                    "name": "C#3",
                    "midi": 49,
                    "time": 122.74530600000026,
                    "velocity": 0.3228346456692913,
                    "duration": 0.6599209999999971
                },
                {
                    "name": "E3",
                    "midi": 52,
                    "time": 122.74530600000026,
                    "velocity": 0.3858267716535433,
                    "duration": 0.6599209999999971
                },
                {
                    "name": "A2",
                    "midi": 45,
                    "time": 124.06514800000025,
                    "velocity": 0.31496062992125984,
                    "duration": 0.6186759375000008
                },
                {
                    "name": "E3",
                    "midi": 52,
                    "time": 124.06514800000025,
                    "velocity": 0.3779527559055118,
                    "duration": 0.6186759375000008
                },
                {
                    "name": "A2",
                    "midi": 45,
                    "time": 124.72506900000025,
                    "velocity": 0.30708661417322836,
                    "duration": 0.6186759375000008
                },
                {
                    "name": "E3",
                    "midi": 52,
                    "time": 124.72506900000025,
                    "velocity": 0.36220472440944884,
                    "duration": 0.6186759375000008
                },
                {
                    "name": "F#2",
                    "midi": 42,
                    "time": 125.38499000000024,
                    "velocity": 0.30708661417322836,
                    "duration": 0.6186759375000008
                },
                {
                    "name": "E3",
                    "midi": 52,
                    "time": 125.38499000000024,
                    "velocity": 0.36220472440944884,
                    "duration": 0.6186759375000008
                },
                {
                    "name": "F#2",
                    "midi": 42,
                    "time": 126.04491100000024,
                    "velocity": 0.30708661417322836,
                    "duration": 0.6186759375000008
                },
                {
                    "name": "E3",
                    "midi": 52,
                    "time": 126.04491100000024,
                    "velocity": 0.36220472440944884,
                    "duration": 0.6186759375000008
                },
                {
                    "name": "G#2",
                    "midi": 44,
                    "time": 126.70483200000024,
                    "velocity": 0.2677165354330709,
                    "duration": 1.938517937499995
                },
                {
                    "name": "D#3",
                    "midi": 51,
                    "time": 126.70483200000024,
                    "velocity": 0.31496062992125984,
                    "duration": 1.938517937499995
                },
                {
                    "name": "G#3",
                    "midi": 56,
                    "time": 128.68459500000023,
                    "velocity": 0.5196850393700787,
                    "duration": 0.6599209999999971
                },
                {
                    "name": "C#4",
                    "midi": 61,
                    "time": 129.34451600000023,
                    "velocity": 0.5196850393700787,
                    "duration": 0.6599209999999971
                },
                {
                    "name": "C#4",
                    "midi": 61,
                    "time": 130.00443700000022,
                    "velocity": 0.4881889763779528,
                    "duration": 0.6599209999999971
                },
                {
                    "name": "B3",
                    "midi": 59,
                    "time": 130.66435800000022,
                    "velocity": 0.5039370078740157,
                    "duration": 0.6599209999999971
                },
                {
                    "name": "A3",
                    "midi": 57,
                    "time": 131.32427900000022,
                    "velocity": 0.5118110236220472,
                    "duration": 0.32996049999999855
                },
                {
                    "name": "G#3",
                    "midi": 56,
                    "time": 131.65423950000022,
                    "velocity": 0.48031496062992124,
                    "duration": 0.32996049999999855
                },
                {
                    "name": "A3",
                    "midi": 57,
                    "time": 131.98420000000021,
                    "velocity": 0.4566929133858268,
                    "duration": 0.6599210000000255
                },
                {
                    "name": "F#3",
                    "midi": 54,
                    "time": 132.64412100000024,
                    "velocity": 0.4409448818897638,
                    "duration": 0.6599209999999971
                },
                {
                    "name": "C#3",
                    "midi": 49,
                    "time": 133.30404200000024,
                    "velocity": 0.4251968503937008,
                    "duration": 0.6599210000000255
                },
                {
                    "name": "G#2",
                    "midi": 44,
                    "time": 133.96396300000026,
                    "velocity": 0.4015748031496063,
                    "duration": 0.6599209999999971
                },
                {
                    "name": "A2",
                    "midi": 45,
                    "time": 134.62388400000026,
                    "velocity": 0.30708661417322836,
                    "duration": 0.6599209999999971
                },
                {
                    "name": "E3",
                    "midi": 52,
                    "time": 134.62388400000026,
                    "velocity": 0.36220472440944884,
                    "duration": 0.6599209999999971
                },
                {
                    "name": "F#2",
                    "midi": 42,
                    "time": 135.28380500000026,
                    "velocity": 0.29133858267716534,
                    "duration": 0.6599209999999971
                },
                {
                    "name": "E3",
                    "midi": 52,
                    "time": 135.28380500000026,
                    "velocity": 0.3464566929133858,
                    "duration": 0.6599209999999971
                },
                {
                    "name": "E3",
                    "midi": 52,
                    "time": 135.94372600000025,
                    "velocity": 0.31496062992125984,
                    "duration": 0.6599209999999971
                },
                {
                    "name": "B2",
                    "midi": 47,
                    "time": 135.94372600000025,
                    "velocity": 0.2677165354330709,
                    "duration": 1.3198419999999942
                },
                {
                    "name": "D#3",
                    "midi": 51,
                    "time": 136.60364700000025,
                    "velocity": 0.2440944881889764,
                    "duration": 0.6599209999999971
                },
                {
                    "name": "B2",
                    "midi": 47,
                    "time": 137.26356800000025,
                    "velocity": 0.15748031496062992,
                    "duration": 2.6396839999999884
                },
                {
                    "name": "E2",
                    "midi": 40,
                    "time": 137.26356800000025,
                    "velocity": 0.15748031496062992,
                    "duration": 2.6396839999999884
                },
                {
                    "name": "E3",
                    "midi": 52,
                    "time": 137.26356800000025,
                    "velocity": 0.1889763779527559,
                    "duration": 2.6396839999999884
                }
            ],
            "controlChanges": {
                "7": [
                    {
                        "number": 7,
                        "time": 0,
                        "value": 0.7874015748031497
                    }
                ],
                "10": [
                    {
                        "number": 10,
                        "time": 0,
                        "value": 0.5039370078740157
                    }
                ],
                "64": [
                    {
                        "number": 64,
                        "time": 0,
                        "value": 0
                    },
                    {
                        "number": 64,
                        "time": 1.979763,
                        "value": 0
                    },
                    {
                        "number": 64,
                        "time": 5.6093285,
                        "value": 1
                    },
                    {
                        "number": 64,
                        "time": 6.615708025,
                        "value": 0
                    },
                    {
                        "number": 64,
                        "time": 7.94792354375,
                        "value": 1
                    },
                    {
                        "number": 64,
                        "time": 9.200398608333332,
                        "value": 0
                    },
                    {
                        "number": 64,
                        "time": 9.321384124999998,
                        "value": 1
                    },
                    {
                        "number": 64,
                        "time": 10.49136906458333,
                        "value": 0
                    },
                    {
                        "number": 64,
                        "time": 10.741589110416664,
                        "value": 1
                    },
                    {
                        "number": 64,
                        "time": 12.061431110416665,
                        "value": 0
                    },
                    {
                        "number": 64,
                        "time": 16.05807766666667,
                        "value": 1
                    },
                    {
                        "number": 64,
                        "time": 17.174444025000003,
                        "value": 0
                    },
                    {
                        "number": 64,
                        "time": 17.672134445833336,
                        "value": 1
                    },
                    {
                        "number": 64,
                        "time": 18.222068612500003,
                        "value": 0
                    },
                    {
                        "number": 64,
                        "time": 18.65239209791667,
                        "value": 1
                    },
                    {
                        "number": 64,
                        "time": 19.80862868333334,
                        "value": 0
                    },
                    {
                        "number": 64,
                        "time": 20.03135202083334,
                        "value": 1
                    },
                    {
                        "number": 64,
                        "time": 21.121596506250008,
                        "value": 0
                    },
                    {
                        "number": 64,
                        "time": 21.557419333333343,
                        "value": 1
                    },
                    {
                        "number": 64,
                        "time": 22.547300833333342,
                        "value": 0
                    },
                    {
                        "number": 64,
                        "time": 23.317208666666676,
                        "value": 1
                    },
                    {
                        "number": 64,
                        "time": 25.08662184791668,
                        "value": 0
                    },
                    {
                        "number": 64,
                        "time": 25.387710804166677,
                        "value": 1
                    },
                    {
                        "number": 64,
                        "time": 26.616813666666676,
                        "value": 0
                    },
                    {
                        "number": 64,
                        "time": 28.47146664375001,
                        "value": 1
                    },
                    {
                        "number": 64,
                        "time": 30.372864025000013,
                        "value": 0
                    },
                    {
                        "number": 64,
                        "time": 30.628583412500014,
                        "value": 1
                    },
                    {
                        "number": 64,
                        "time": 32.35262702500001,
                        "value": 0
                    },
                    {
                        "number": 64,
                        "time": 37.358402777083334,
                        "value": 1
                    },
                    {
                        "number": 64,
                        "time": 38.283667012500004,
                        "value": 0
                    },
                    {
                        "number": 64,
                        "time": 39.69287331458334,
                        "value": 1
                    },
                    {
                        "number": 64,
                        "time": 40.93022518958334,
                        "value": 0
                    },
                    {
                        "number": 64,
                        "time": 41.1873194125,
                        "value": 1
                    },
                    {
                        "number": 64,
                        "time": 42.24044334166666,
                        "value": 0
                    },
                    {
                        "number": 64,
                        "time": 42.529158779166664,
                        "value": 1
                    },
                    {
                        "number": 64,
                        "time": 43.66477283333333,
                        "value": 0
                    },
                    {
                        "number": 64,
                        "time": 44.434680666666665,
                        "value": 1
                    },
                    {
                        "number": 64,
                        "time": 46.210968025,
                        "value": 0
                    },
                    {
                        "number": 64,
                        "time": 46.5244305,
                        "value": 1
                    },
                    {
                        "number": 64,
                        "time": 48.187981354166666,
                        "value": 0
                    },
                    {
                        "number": 64,
                        "time": 49.525696214583334,
                        "value": 1
                    },
                    {
                        "number": 64,
                        "time": 51.488961189583335,
                        "value": 0
                    },
                    {
                        "number": 64,
                        "time": 51.78455080416667,
                        "value": 1
                    },
                    {
                        "number": 64,
                        "time": 53.475598366666674,
                        "value": 0
                    },
                    {
                        "number": 64,
                        "time": 58.367262779166666,
                        "value": 1
                    },
                    {
                        "number": 64,
                        "time": 59.40663835416667,
                        "value": 0
                    },
                    {
                        "number": 64,
                        "time": 60.86808840208333,
                        "value": 1
                    },
                    {
                        "number": 64,
                        "time": 62.04769718958333,
                        "value": 0
                    },
                    {
                        "number": 64,
                        "time": 62.38178219583333,
                        "value": 1
                    },
                    {
                        "number": 64,
                        "time": 63.3606650125,
                        "value": 0
                    },
                    {
                        "number": 64,
                        "time": 64.0865781125,
                        "value": 1
                    },
                    {
                        "number": 64,
                        "time": 64.92935222291668,
                        "value": 0
                    },
                    {
                        "number": 64,
                        "time": 65.99210000000001,
                        "value": 1
                    },
                    {
                        "number": 64,
                        "time": 70.11660625000009,
                        "value": 0
                    },
                    {
                        "number": 64,
                        "time": 70.35857728333342,
                        "value": 1
                    },
                    {
                        "number": 64,
                        "time": 71.28384151875008,
                        "value": 0
                    },
                    {
                        "number": 64,
                        "time": 71.58218080416674,
                        "value": 1
                    },
                    {
                        "number": 64,
                        "time": 73.91527650625007,
                        "value": 0
                    },
                    {
                        "number": 64,
                        "time": 74.68105983333339,
                        "value": 1
                    },
                    {
                        "number": 64,
                        "time": 76.07376811041672,
                        "value": 0
                    },
                    {
                        "number": 64,
                        "time": 76.64157513750006,
                        "value": 1
                    },
                    {
                        "number": 64,
                        "time": 80.51036200000013,
                        "value": 0
                    },
                    {
                        "number": 64,
                        "time": 80.93518614375013,
                        "value": 1
                    },
                    {
                        "number": 64,
                        "time": 81.84395235416679,
                        "value": 0
                    },
                    {
                        "number": 64,
                        "time": 82.11342009583346,
                        "value": 1
                    },
                    {
                        "number": 64,
                        "time": 83.82096568333345,
                        "value": 0
                    },
                    {
                        "number": 64,
                        "time": 83.96669823750013,
                        "value": 1
                    },
                    {
                        "number": 64,
                        "time": 84.47538734166679,
                        "value": 0
                    },
                    {
                        "number": 64,
                        "time": 85.42402377916679,
                        "value": 1
                    },
                    {
                        "number": 64,
                        "time": 86.88959833333345,
                        "value": 0
                    },
                    {
                        "number": 64,
                        "time": 87.17281442916678,
                        "value": 1
                    },
                    {
                        "number": 64,
                        "time": 91.0690980000002,
                        "value": 0
                    },
                    {
                        "number": 64,
                        "time": 91.40868234791687,
                        "value": 1
                    },
                    {
                        "number": 64,
                        "time": 92.3930645062502,
                        "value": 0
                    },
                    {
                        "number": 64,
                        "time": 92.69965280416686,
                        "value": 1
                    },
                    {
                        "number": 64,
                        "time": 95.03824784791686,
                        "value": 0
                    },
                    {
                        "number": 64,
                        "time": 95.57855816666687,
                        "value": 1
                    },
                    {
                        "number": 64,
                        "time": 97.22836066666687,
                        "value": 0
                    },
                    {
                        "number": 64,
                        "time": 97.70817822708354,
                        "value": 1
                    },
                    {
                        "number": 64,
                        "time": 101.62233465833361,
                        "value": 0
                    },
                    {
                        "number": 64,
                        "time": 101.97291768958361,
                        "value": 1
                    },
                    {
                        "number": 64,
                        "time": 102.95317534166693,
                        "value": 0
                    },
                    {
                        "number": 64,
                        "time": 103.13602845208361,
                        "value": 1
                    },
                    {
                        "number": 64,
                        "time": 104.94256218958361,
                        "value": 0
                    },
                    {
                        "number": 64,
                        "time": 105.21065509583362,
                        "value": 1
                    },
                    {
                        "number": 64,
                        "time": 105.59285934166695,
                        "value": 0
                    },
                    {
                        "number": 64,
                        "time": 106.13729416666695,
                        "value": 1
                    },
                    {
                        "number": 64,
                        "time": 106.98006827708362,
                        "value": 0
                    },
                    {
                        "number": 64,
                        "time": 107.60424355625028,
                        "value": 1
                    },
                    {
                        "number": 64,
                        "time": 109.56338402500027,
                        "value": 0
                    },
                    {
                        "number": 64,
                        "time": 109.85759880416694,
                        "value": 1
                    },
                    {
                        "number": 64,
                        "time": 111.54177218958361,
                        "value": 0
                    },
                    {
                        "number": 64,
                        "time": 112.97160102291694,
                        "value": 1
                    },
                    {
                        "number": 64,
                        "time": 114.84275202500028,
                        "value": 0
                    },
                    {
                        "number": 64,
                        "time": 115.19470989166695,
                        "value": 1
                    },
                    {
                        "number": 64,
                        "time": 116.81839051875028,
                        "value": 0
                    },
                    {
                        "number": 64,
                        "time": 121.75542450000026,
                        "value": 1
                    },
                    {
                        "number": 64,
                        "time": 122.76180402500026,
                        "value": 0
                    },
                    {
                        "number": 64,
                        "time": 124.13801427708358,
                        "value": 1
                    },
                    {
                        "number": 64,
                        "time": 125.40011318958358,
                        "value": 0
                    },
                    {
                        "number": 64,
                        "time": 125.71495050000024,
                        "value": 1
                    },
                    {
                        "number": 64,
                        "time": 126.71445584791691,
                        "value": 0
                    },
                    {
                        "number": 64,
                        "time": 127.25476616666691,
                        "value": 1
                    },
                    {
                        "number": 64,
                        "time": 128.2446476666669,
                        "value": 0
                    },
                    {
                        "number": 64,
                        "time": 132.23579488125023,
                        "value": 1
                    },
                    {
                        "number": 64,
                        "time": 133.30954134166691,
                        "value": 0
                    },
                    {
                        "number": 64,
                        "time": 133.55563688125025,
                        "value": 1
                    },
                    {
                        "number": 64,
                        "time": 133.98046102500027,
                        "value": 0
                    },
                    {
                        "number": 64,
                        "time": 134.31042152500027,
                        "value": 1
                    },
                    {
                        "number": 64,
                        "time": 134.64038202500026,
                        "value": 0
                    },
                    {
                        "number": 64,
                        "time": 134.8576060208336,
                        "value": 1
                    },
                    {
                        "number": 64,
                        "time": 135.9588491895836,
                        "value": 0
                    },
                    {
                        "number": 64,
                        "time": 136.1774480208336,
                        "value": 1
                    },
                    {
                        "number": 64,
                        "time": 137.27456668333357,
                        "value": 0
                    },
                    {
                        "number": 64,
                        "time": 138.03347583333357,
                        "value": 1
                    },
                    {
                        "number": 64,
                        "time": 142.1772297791669,
                        "value": 0
                    }
                ],
                "91": [
                    {
                        "number": 91,
                        "time": 1.9742636583333333,
                        "value": 1
                    },
                    {
                        "number": 91,
                        "time": 65.99210000000001,
                        "value": 1
                    }
                ]
            },
            "id": 2,
            "name": "Piano left",
            "instrumentNumber": 0,
            "instrument": "acoustic grand piano",
            "instrumentFamily": "piano",
            "channelNumber": 0,
            "isPercussion": false
        },
        {
            "startTime": 0,
            "duration": 0,
            "length": 0,
            "notes": [],
            "controlChanges": {},
            "id": 3,
            "name": "Grieg: Waechterlied in E-Dur, Op. 12 No. 3"
        },
        {
            "startTime": 0,
            "duration": 0,
            "length": 0,
            "notes": [],
            "controlChanges": {},
            "id": 4,
            "name": "Copyright © 1997 by Bernd Krueger"
        },
        {
            "startTime": 0,
            "duration": 0,
            "length": 0,
            "notes": [],
            "controlChanges": {},
            "id": 5,
            "name": "http://www.piano-midi.de"
        },
        {
            "startTime": 0,
            "duration": 0,
            "length": 0,
            "notes": [],
            "controlChanges": {},
            "id": 6,
            "name": "Edition: 2012-10-28"
        }
    ]
}