{
    "header": {
        "PPQ": 480,
        "timeSignature": [
            6,
            8
        ],
        "bpm": 143.38013898314804,
        "name": "Grieg: Lyrische Stücke, Albumblatt, Opus 42 Nr. 2"
    },
    "startTime": 0,
    "duration": 183.0797499999997,
    "tracks": [
        {
            "startTime": 0,
            "duration": 0,
            "length": 0,
            "notes": [],
            "controlChanges": {},
            "id": 0,
            "name": "Grieg: Lyrische Stücke, Albumblatt, Opus 42 Nr. 2"
        },
        {
            "startTime": 0,
            "duration": 183.0797499999992,
            "length": 1136,
            "notes": [
                {
                    "name": "A3",
                    "midi": 57,
                    "time": 0,
                    "velocity": 0.2677165354330709,
                    "duration": 0.627702
                },
                {
                    "name": "A4",
                    "midi": 69,
                    "time": 0,
                    "velocity": 0.33070866141732286,
                    "duration": 0.313851
                },
                {
                    "name": "G4",
                    "midi": 67,
                    "time": 0.313851,
                    "velocity": 0.2440944881889764,
                    "duration": 0.10461700000000002
                },
                {
                    "name": "F4",
                    "midi": 65,
                    "time": 0.418468,
                    "velocity": 0.2440944881889764,
                    "duration": 0.10461700000000002
                },
                {
                    "name": "G4",
                    "midi": 67,
                    "time": 0.523085,
                    "velocity": 0.2440944881889764,
                    "duration": 0.10461699999999996
                },
                {
                    "name": "A#3",
                    "midi": 58,
                    "time": 0.627702,
                    "velocity": 0.23622047244094488,
                    "duration": 0.627702
                },
                {
                    "name": "A4",
                    "midi": 69,
                    "time": 0.627702,
                    "velocity": 0.28346456692913385,
                    "duration": 0.41846800000000006
                },
                {
                    "name": "F4",
                    "midi": 65,
                    "time": 1.04617,
                    "velocity": 0.28346456692913385,
                    "duration": 0.20923399999999992
                },
                {
                    "name": "C4",
                    "midi": 60,
                    "time": 1.255404,
                    "velocity": 0.2677165354330709,
                    "duration": 0.627702
                },
                {
                    "name": "A4",
                    "midi": 69,
                    "time": 1.255404,
                    "velocity": 0.33070866141732286,
                    "duration": 0.3138510000000001
                },
                {
                    "name": "G4",
                    "midi": 67,
                    "time": 1.569255,
                    "velocity": 0.25196850393700787,
                    "duration": 0.10461699999999996
                },
                {
                    "name": "F4",
                    "midi": 65,
                    "time": 1.673872,
                    "velocity": 0.25196850393700787,
                    "duration": 0.10461699999999996
                },
                {
                    "name": "G4",
                    "midi": 67,
                    "time": 1.778489,
                    "velocity": 0.25196850393700787,
                    "duration": 0.10461699999999996
                },
                {
                    "name": "A#3",
                    "midi": 58,
                    "time": 1.883106,
                    "velocity": 0.23622047244094488,
                    "duration": 0.5753934999999999
                },
                {
                    "name": "A4",
                    "midi": 69,
                    "time": 1.883106,
                    "velocity": 0.28346456692913385,
                    "duration": 0.5753934999999999
                },
                {
                    "name": "F4",
                    "midi": 65,
                    "time": 2.510808,
                    "velocity": 0.28346456692913385,
                    "duration": 0.6277020000000006
                },
                {
                    "name": "C5",
                    "midi": 72,
                    "time": 2.510808,
                    "velocity": 0.3543307086614173,
                    "duration": 0.3138510000000001
                },
                {
                    "name": "D5",
                    "midi": 74,
                    "time": 2.824659,
                    "velocity": 0.2992125984251969,
                    "duration": 0.10461700000000018
                },
                {
                    "name": "E5",
                    "midi": 76,
                    "time": 2.929276,
                    "velocity": 0.33070866141732286,
                    "duration": 0.10461700000000018
                },
                {
                    "name": "D5",
                    "midi": 74,
                    "time": 3.0338930000000004,
                    "velocity": 0.2992125984251969,
                    "duration": 0.10461700000000018
                },
                {
                    "name": "C5",
                    "midi": 72,
                    "time": 3.1385100000000006,
                    "velocity": 0.3700787401574803,
                    "duration": 0.41846799999999984
                },
                {
                    "name": "F4",
                    "midi": 65,
                    "time": 3.1385100000000006,
                    "velocity": 0.2992125984251969,
                    "duration": 0.41846799999999984
                },
                {
                    "name": "E4",
                    "midi": 64,
                    "time": 3.5569780000000004,
                    "velocity": 0.33070866141732286,
                    "duration": 0.20923399999999992
                },
                {
                    "name": "G#4",
                    "midi": 68,
                    "time": 3.5569780000000004,
                    "velocity": 0.33070866141732286,
                    "duration": 0.20923399999999992
                },
                {
                    "name": "C5",
                    "midi": 72,
                    "time": 3.7662120000000003,
                    "velocity": 0.3779527559055118,
                    "duration": 0.6277020000000002
                },
                {
                    "name": "F4",
                    "midi": 65,
                    "time": 3.7662120000000003,
                    "velocity": 0.31496062992125984,
                    "duration": 1.04617
                },
                {
                    "name": "F5",
                    "midi": 77,
                    "time": 4.3939140000000005,
                    "velocity": 0.4094488188976378,
                    "duration": 0.41846799999999984
                },
                {
                    "name": "C4",
                    "midi": 60,
                    "time": 5.021616000000001,
                    "velocity": 0.31496062992125984,
                    "duration": 0.6277020000000002
                },
                {
                    "name": "C5",
                    "midi": 72,
                    "time": 5.021616000000001,
                    "velocity": 0.3937007874015748,
                    "duration": 0.31385099999999966
                },
                {
                    "name": "B4",
                    "midi": 71,
                    "time": 5.335467,
                    "velocity": 0.29133858267716534,
                    "duration": 0.10461700000000018
                },
                {
                    "name": "A4",
                    "midi": 69,
                    "time": 5.440084000000001,
                    "velocity": 0.29133858267716534,
                    "duration": 0.10461700000000018
                },
                {
                    "name": "B4",
                    "midi": 71,
                    "time": 5.544701000000001,
                    "velocity": 0.29133858267716534,
                    "duration": 0.10461700000000018
                },
                {
                    "name": "D4",
                    "midi": 62,
                    "time": 5.649318000000001,
                    "velocity": 0.28346456692913385,
                    "duration": 0.6277020000000002
                },
                {
                    "name": "C5",
                    "midi": 72,
                    "time": 5.649318000000001,
                    "velocity": 0.33858267716535434,
                    "duration": 0.41846799999999984
                },
                {
                    "name": "A4",
                    "midi": 69,
                    "time": 6.067786000000001,
                    "velocity": 0.33858267716535434,
                    "duration": 0.20923400000000036
                },
                {
                    "name": "E4",
                    "midi": 64,
                    "time": 6.277020000000001,
                    "velocity": 0.31496062992125984,
                    "duration": 0.6277020000000002
                },
                {
                    "name": "C5",
                    "midi": 72,
                    "time": 6.277020000000001,
                    "velocity": 0.3937007874015748,
                    "duration": 0.31385099999999966
                },
                {
                    "name": "B4",
                    "midi": 71,
                    "time": 6.590871000000001,
                    "velocity": 0.2992125984251969,
                    "duration": 0.10461700000000018
                },
                {
                    "name": "A4",
                    "midi": 69,
                    "time": 6.695488000000001,
                    "velocity": 0.2992125984251969,
                    "duration": 0.10461700000000018
                },
                {
                    "name": "B4",
                    "midi": 71,
                    "time": 6.800105000000001,
                    "velocity": 0.2992125984251969,
                    "duration": 0.10461700000000018
                },
                {
                    "name": "D4",
                    "midi": 62,
                    "time": 6.904722000000001,
                    "velocity": 0.28346456692913385,
                    "duration": 0.5753934999999997
                },
                {
                    "name": "C5",
                    "midi": 72,
                    "time": 6.904722000000001,
                    "velocity": 0.33858267716535434,
                    "duration": 0.5753934999999997
                },
                {
                    "name": "A4",
                    "midi": 69,
                    "time": 7.532424000000001,
                    "velocity": 0.31496062992125984,
                    "duration": 0.6277019999999993
                },
                {
                    "name": "E5",
                    "midi": 76,
                    "time": 7.532424000000001,
                    "velocity": 0.3937007874015748,
                    "duration": 0.31385099999999966
                },
                {
                    "name": "F5",
                    "midi": 77,
                    "time": 7.846275,
                    "velocity": 0.33070866141732286,
                    "duration": 0.10461700000000018
                },
                {
                    "name": "G5",
                    "midi": 79,
                    "time": 7.9508920000000005,
                    "velocity": 0.36220472440944884,
                    "duration": 0.10461700000000018
                },
                {
                    "name": "F5",
                    "midi": 77,
                    "time": 8.055509,
                    "velocity": 0.33070866141732286,
                    "duration": 0.1046169999999993
                },
                {
                    "name": "E5",
                    "midi": 76,
                    "time": 8.160126,
                    "velocity": 0.4015748031496063,
                    "duration": 0.41846800000000073
                },
                {
                    "name": "A4",
                    "midi": 69,
                    "time": 8.160126,
                    "velocity": 0.3228346456692913,
                    "duration": 0.41846800000000073
                },
                {
                    "name": "G#4",
                    "midi": 68,
                    "time": 8.578594,
                    "velocity": 0.3543307086614173,
                    "duration": 0.20923400000000036
                },
                {
                    "name": "C5",
                    "midi": 72,
                    "time": 8.578594,
                    "velocity": 0.3543307086614173,
                    "duration": 0.20923400000000036
                },
                {
                    "name": "E5",
                    "midi": 76,
                    "time": 8.787828000000001,
                    "velocity": 0.4015748031496063,
                    "duration": 0.6277019999999993
                },
                {
                    "name": "A4",
                    "midi": 69,
                    "time": 8.787828000000001,
                    "velocity": 0.33070866141732286,
                    "duration": 0.8369359999999997
                },
                {
                    "name": "A5",
                    "midi": 81,
                    "time": 9.41553,
                    "velocity": 0.41732283464566927,
                    "duration": 1.0461700000000018
                },
                {
                    "name": "G#4",
                    "midi": 68,
                    "time": 9.624764,
                    "velocity": 0.44881889763779526,
                    "duration": 0.20923400000000036
                },
                {
                    "name": "G4",
                    "midi": 67,
                    "time": 9.833998000000001,
                    "velocity": 0.48031496062992124,
                    "duration": 0.20923400000000036
                },
                {
                    "name": "F#4",
                    "midi": 66,
                    "time": 10.043232000000001,
                    "velocity": 0.5511811023622047,
                    "duration": 1.2554040000000022
                },
                {
                    "name": "F#5",
                    "midi": 78,
                    "time": 10.461700000000002,
                    "velocity": 0.41732283464566927,
                    "duration": 0.20923400000000036
                },
                {
                    "name": "D5",
                    "midi": 74,
                    "time": 10.670934000000003,
                    "velocity": 0.41732283464566927,
                    "duration": 0.20923400000000036
                },
                {
                    "name": "D#5",
                    "midi": 75,
                    "time": 10.880168000000003,
                    "velocity": 0.41732283464566927,
                    "duration": 0.20923400000000036
                },
                {
                    "name": "E5",
                    "midi": 76,
                    "time": 11.089402000000003,
                    "velocity": 0.41732283464566927,
                    "duration": 0.20923400000000036
                },
                {
                    "name": "F4",
                    "midi": 65,
                    "time": 11.298636000000004,
                    "velocity": 0.33070866141732286,
                    "duration": 1.0461700000000018
                },
                {
                    "name": "F5",
                    "midi": 77,
                    "time": 11.298636000000004,
                    "velocity": 0.41732283464566927,
                    "duration": 0.41846800000000073
                },
                {
                    "name": "D5",
                    "midi": 74,
                    "time": 11.717104000000004,
                    "velocity": 0.3858267716535433,
                    "duration": 0.20923400000000036
                },
                {
                    "name": "B4",
                    "midi": 71,
                    "time": 11.926338000000005,
                    "velocity": 0.3228346456692913,
                    "duration": 0.41846800000000073
                },
                {
                    "name": "F#4",
                    "midi": 66,
                    "time": 12.554040000000006,
                    "velocity": 0.5039370078740157,
                    "duration": 1.2554040000000022
                },
                {
                    "name": "A5",
                    "midi": 81,
                    "time": 12.763274000000006,
                    "velocity": 0.41732283464566927,
                    "duration": 0.20923400000000036
                },
                {
                    "name": "F#5",
                    "midi": 78,
                    "time": 12.972508000000007,
                    "velocity": 0.3700787401574803,
                    "duration": 0.20923400000000036
                },
                {
                    "name": "D5",
                    "midi": 74,
                    "time": 13.181742000000007,
                    "velocity": 0.3858267716535433,
                    "duration": 0.20923400000000036
                },
                {
                    "name": "D#5",
                    "midi": 75,
                    "time": 13.390976000000007,
                    "velocity": 0.41732283464566927,
                    "duration": 0.20923400000000036
                },
                {
                    "name": "E5",
                    "midi": 76,
                    "time": 13.600210000000008,
                    "velocity": 0.4251968503937008,
                    "duration": 0.41846800000000073
                },
                {
                    "name": "F4",
                    "midi": 65,
                    "time": 13.809444000000008,
                    "velocity": 0.33070866141732286,
                    "duration": 1.1769412500000023
                },
                {
                    "name": "F5",
                    "midi": 77,
                    "time": 14.018678000000008,
                    "velocity": 0.4881889763779528,
                    "duration": 0.20923400000000036
                },
                {
                    "name": "D5",
                    "midi": 74,
                    "time": 14.227912000000009,
                    "velocity": 0.41732283464566927,
                    "duration": 0.20923400000000036
                },
                {
                    "name": "A4",
                    "midi": 69,
                    "time": 14.43714600000001,
                    "velocity": 0.4409448818897638,
                    "duration": 0.20923400000000036
                },
                {
                    "name": "A#4",
                    "midi": 70,
                    "time": 14.64638000000001,
                    "velocity": 0.4566929133858268,
                    "duration": 0.20923400000000036
                },
                {
                    "name": "B4",
                    "midi": 71,
                    "time": 14.85561400000001,
                    "velocity": 0.49606299212598426,
                    "duration": 0.41846800000000073
                },
                {
                    "name": "C5",
                    "midi": 72,
                    "time": 15.27408200000001,
                    "velocity": 0.4566929133858268,
                    "duration": 0.20923400000000036
                },
                {
                    "name": "A4",
                    "midi": 69,
                    "time": 15.483316000000011,
                    "velocity": 0.41732283464566927,
                    "duration": 0.20923400000000036
                },
                {
                    "name": "C#4",
                    "midi": 61,
                    "time": 15.692550000000011,
                    "velocity": 0.3700787401574803,
                    "duration": 0.20923400000000036
                },
                {
                    "name": "D4",
                    "midi": 62,
                    "time": 15.901784000000012,
                    "velocity": 0.33858267716535434,
                    "duration": 0.20923400000000036
                },
                {
                    "name": "E4",
                    "midi": 64,
                    "time": 16.111018000000012,
                    "velocity": 0.3464566929133858,
                    "duration": 0.2092339999999986
                },
                {
                    "name": "F4",
                    "midi": 65,
                    "time": 16.32025200000001,
                    "velocity": 0.36220472440944884,
                    "duration": 0.2092339999999986
                },
                {
                    "name": "G#4",
                    "midi": 68,
                    "time": 16.52948600000001,
                    "velocity": 0.33070866141732286,
                    "duration": 0.2092339999999986
                },
                {
                    "name": "A4",
                    "midi": 69,
                    "time": 16.738720000000008,
                    "velocity": 0.30708661417322836,
                    "duration": 0.2092339999999986
                },
                {
                    "name": "C#5",
                    "midi": 73,
                    "time": 16.947954000000006,
                    "velocity": 0.2440944881889764,
                    "duration": 0.2092339999999986
                },
                {
                    "name": "F4",
                    "midi": 65,
                    "time": 17.157188000000005,
                    "velocity": 0.1968503937007874,
                    "duration": 0.05230849999999876
                },
                {
                    "name": "A4",
                    "midi": 69,
                    "time": 17.157188000000005,
                    "velocity": 0.1968503937007874,
                    "duration": 0.05230849999999876
                },
                {
                    "name": "D5",
                    "midi": 74,
                    "time": 17.157188000000005,
                    "velocity": 0.25196850393700787,
                    "duration": 0.05230849999999876
                },
                {
                    "name": "A4",
                    "midi": 69,
                    "time": 17.366422000000004,
                    "velocity": 0.2047244094488189,
                    "duration": 0.05230849999999876
                },
                {
                    "name": "D5",
                    "midi": 74,
                    "time": 17.366422000000004,
                    "velocity": 0.2047244094488189,
                    "duration": 0.05230849999999876
                },
                {
                    "name": "F5",
                    "midi": 77,
                    "time": 17.366422000000004,
                    "velocity": 0.25984251968503935,
                    "duration": 0.05230849999999876
                },
                {
                    "name": "A5",
                    "midi": 81,
                    "time": 17.575656000000002,
                    "velocity": 0.31496062992125984,
                    "duration": 0.05230849999999876
                },
                {
                    "name": "F5",
                    "midi": 77,
                    "time": 17.575656000000002,
                    "velocity": 0.25196850393700787,
                    "duration": 0.05230849999999876
                },
                {
                    "name": "D5",
                    "midi": 74,
                    "time": 17.575656000000002,
                    "velocity": 0.25196850393700787,
                    "duration": 0.05230849999999876
                },
                {
                    "name": "E4",
                    "midi": 64,
                    "time": 18.83106,
                    "velocity": 0.31496062992125984,
                    "duration": 1.2554039999999986
                },
                {
                    "name": "C4",
                    "midi": 60,
                    "time": 20.086464,
                    "velocity": 0.31496062992125984,
                    "duration": 0.31385099999999966
                },
                {
                    "name": "B3",
                    "midi": 59,
                    "time": 20.400315,
                    "velocity": 0.23622047244094488,
                    "duration": 0.10461700000000107
                },
                {
                    "name": "C4",
                    "midi": 60,
                    "time": 20.504932,
                    "velocity": 0.23622047244094488,
                    "duration": 0.10461700000000107
                },
                {
                    "name": "D4",
                    "midi": 62,
                    "time": 20.609549,
                    "velocity": 0.23622047244094488,
                    "duration": 0.10461700000000107
                },
                {
                    "name": "E4",
                    "midi": 64,
                    "time": 20.714166000000002,
                    "velocity": 0.2677165354330709,
                    "duration": 0.6277019999999993
                },
                {
                    "name": "C4",
                    "midi": 60,
                    "time": 21.341868,
                    "velocity": 0.31496062992125984,
                    "duration": 0.31385099999999966
                },
                {
                    "name": "B3",
                    "midi": 59,
                    "time": 21.655719,
                    "velocity": 0.23622047244094488,
                    "duration": 0.10461700000000107
                },
                {
                    "name": "C4",
                    "midi": 60,
                    "time": 21.760336000000002,
                    "velocity": 0.23622047244094488,
                    "duration": 0.10461700000000107
                },
                {
                    "name": "D4",
                    "midi": 62,
                    "time": 21.864953000000003,
                    "velocity": 0.23622047244094488,
                    "duration": 0.10461700000000107
                },
                {
                    "name": "E4",
                    "midi": 64,
                    "time": 21.969570000000004,
                    "velocity": 0.2677165354330709,
                    "duration": 0.6277019999999993
                },
                {
                    "name": "C4",
                    "midi": 60,
                    "time": 22.597272000000004,
                    "velocity": 0.2283464566929134,
                    "duration": 0.2092339999999986
                },
                {
                    "name": "E3",
                    "midi": 52,
                    "time": 22.597272000000004,
                    "velocity": 0.1889763779527559,
                    "duration": 0.2092339999999986
                },
                {
                    "name": "E4",
                    "midi": 64,
                    "time": 23.222358575,
                    "velocity": 0.1732283464566929,
                    "duration": 0.2135930416666625
                },
                {
                    "name": "C5",
                    "midi": 72,
                    "time": 23.224974,
                    "velocity": 0.2125984251968504,
                    "duration": 0.2092339999999986
                },
                {
                    "name": "C6",
                    "midi": 84,
                    "time": 23.852675999999995,
                    "velocity": 0.2204724409448819,
                    "duration": 1.04617
                },
                {
                    "name": "E5",
                    "midi": 76,
                    "time": 23.852675999999995,
                    "velocity": 0.18110236220472442,
                    "duration": 1.04617
                },
                {
                    "name": "A3",
                    "midi": 57,
                    "time": 25.108079999999994,
                    "velocity": 0.2677165354330709,
                    "duration": 0.6277020000000029
                },
                {
                    "name": "A4",
                    "midi": 69,
                    "time": 25.108079999999994,
                    "velocity": 0.33070866141732286,
                    "duration": 0.31385099999999966
                },
                {
                    "name": "G4",
                    "midi": 67,
                    "time": 25.421930999999994,
                    "velocity": 0.2440944881889764,
                    "duration": 0.10461700000000107
                },
                {
                    "name": "F4",
                    "midi": 65,
                    "time": 25.526547999999995,
                    "velocity": 0.2440944881889764,
                    "duration": 0.10461700000000107
                },
                {
                    "name": "G4",
                    "midi": 67,
                    "time": 25.631164999999996,
                    "velocity": 0.2440944881889764,
                    "duration": 0.10461700000000107
                },
                {
                    "name": "A#3",
                    "midi": 58,
                    "time": 25.735781999999997,
                    "velocity": 0.23622047244094488,
                    "duration": 0.6277019999999993
                },
                {
                    "name": "A4",
                    "midi": 69,
                    "time": 25.735781999999997,
                    "velocity": 0.28346456692913385,
                    "duration": 0.41846800000000073
                },
                {
                    "name": "F4",
                    "midi": 65,
                    "time": 26.154249999999998,
                    "velocity": 0.28346456692913385,
                    "duration": 0.2092339999999986
                },
                {
                    "name": "C4",
                    "midi": 60,
                    "time": 26.363483999999996,
                    "velocity": 0.2677165354330709,
                    "duration": 0.6277020000000029
                },
                {
                    "name": "A4",
                    "midi": 69,
                    "time": 26.363483999999996,
                    "velocity": 0.33070866141732286,
                    "duration": 0.31385099999999966
                },
                {
                    "name": "G4",
                    "midi": 67,
                    "time": 26.677334999999996,
                    "velocity": 0.25196850393700787,
                    "duration": 0.10461700000000107
                },
                {
                    "name": "F4",
                    "midi": 65,
                    "time": 26.781951999999997,
                    "velocity": 0.25196850393700787,
                    "duration": 0.10461700000000107
                },
                {
                    "name": "G4",
                    "midi": 67,
                    "time": 26.886568999999998,
                    "velocity": 0.25196850393700787,
                    "duration": 0.10461700000000107
                },
                {
                    "name": "A#3",
                    "midi": 58,
                    "time": 26.991186,
                    "velocity": 0.23622047244094488,
                    "duration": 0.5753935000000006
                },
                {
                    "name": "A4",
                    "midi": 69,
                    "time": 26.991186,
                    "velocity": 0.28346456692913385,
                    "duration": 0.5753935000000006
                },
                {
                    "name": "F4",
                    "midi": 65,
                    "time": 27.618888,
                    "velocity": 0.28346456692913385,
                    "duration": 0.6277020000000029
                },
                {
                    "name": "C5",
                    "midi": 72,
                    "time": 27.618888,
                    "velocity": 0.3543307086614173,
                    "duration": 0.31385099999999966
                },
                {
                    "name": "D5",
                    "midi": 74,
                    "time": 27.932738999999998,
                    "velocity": 0.2992125984251969,
                    "duration": 0.10461700000000107
                },
                {
                    "name": "E5",
                    "midi": 76,
                    "time": 28.037356,
                    "velocity": 0.33070866141732286,
                    "duration": 0.10461700000000107
                },
                {
                    "name": "D5",
                    "midi": 74,
                    "time": 28.141973,
                    "velocity": 0.2992125984251969,
                    "duration": 0.10461700000000107
                },
                {
                    "name": "C5",
                    "midi": 72,
                    "time": 28.24659,
                    "velocity": 0.3700787401574803,
                    "duration": 0.41846800000000073
                },
                {
                    "name": "F4",
                    "midi": 65,
                    "time": 28.24659,
                    "velocity": 0.2992125984251969,
                    "duration": 0.41846800000000073
                },
                {
                    "name": "E4",
                    "midi": 64,
                    "time": 28.665058000000002,
                    "velocity": 0.33070866141732286,
                    "duration": 0.2092339999999986
                },
                {
                    "name": "G#4",
                    "midi": 68,
                    "time": 28.665058000000002,
                    "velocity": 0.33070866141732286,
                    "duration": 0.2092339999999986
                },
                {
                    "name": "C5",
                    "midi": 72,
                    "time": 28.874292,
                    "velocity": 0.3779527559055118,
                    "duration": 0.6277019999999993
                },
                {
                    "name": "F4",
                    "midi": 65,
                    "time": 28.874292,
                    "velocity": 0.30708661417322836,
                    "duration": 1.04617
                },
                {
                    "name": "F5",
                    "midi": 77,
                    "time": 29.501994,
                    "velocity": 0.4015748031496063,
                    "duration": 0.41846800000000073
                },
                {
                    "name": "C4",
                    "midi": 60,
                    "time": 30.129696,
                    "velocity": 0.31496062992125984,
                    "duration": 0.6277020000000029
                },
                {
                    "name": "C5",
                    "midi": 72,
                    "time": 30.129696,
                    "velocity": 0.3937007874015748,
                    "duration": 0.31385099999999966
                },
                {
                    "name": "B4",
                    "midi": 71,
                    "time": 30.443547,
                    "velocity": 0.29133858267716534,
                    "duration": 0.10461700000000107
                },
                {
                    "name": "A4",
                    "midi": 69,
                    "time": 30.548164,
                    "velocity": 0.29133858267716534,
                    "duration": 0.10461700000000107
                },
                {
                    "name": "B4",
                    "midi": 71,
                    "time": 30.652781,
                    "velocity": 0.29133858267716534,
                    "duration": 0.10461700000000107
                },
                {
                    "name": "D4",
                    "midi": 62,
                    "time": 30.757398000000002,
                    "velocity": 0.28346456692913385,
                    "duration": 0.6277019999999993
                },
                {
                    "name": "C5",
                    "midi": 72,
                    "time": 30.757398000000002,
                    "velocity": 0.33858267716535434,
                    "duration": 0.41846800000000073
                },
                {
                    "name": "A4",
                    "midi": 69,
                    "time": 31.175866000000003,
                    "velocity": 0.33858267716535434,
                    "duration": 0.2092339999999986
                },
                {
                    "name": "E4",
                    "midi": 64,
                    "time": 31.3851,
                    "velocity": 0.31496062992125984,
                    "duration": 0.6277019999999993
                },
                {
                    "name": "C5",
                    "midi": 72,
                    "time": 31.3851,
                    "velocity": 0.3937007874015748,
                    "duration": 0.31385099999999966
                },
                {
                    "name": "B4",
                    "midi": 71,
                    "time": 31.698951,
                    "velocity": 0.2992125984251969,
                    "duration": 0.10461700000000107
                },
                {
                    "name": "A4",
                    "midi": 69,
                    "time": 31.803568000000002,
                    "velocity": 0.2992125984251969,
                    "duration": 0.10461700000000107
                },
                {
                    "name": "B4",
                    "midi": 71,
                    "time": 31.908185000000003,
                    "velocity": 0.2992125984251969,
                    "duration": 0.10461699999999752
                },
                {
                    "name": "D4",
                    "midi": 62,
                    "time": 32.012802,
                    "velocity": 0.28346456692913385,
                    "duration": 0.575393499999997
                },
                {
                    "name": "C5",
                    "midi": 72,
                    "time": 32.012802,
                    "velocity": 0.33858267716535434,
                    "duration": 0.575393499999997
                },
                {
                    "name": "A4",
                    "midi": 69,
                    "time": 32.640504,
                    "velocity": 0.31496062992125984,
                    "duration": 0.6277019999999922
                },
                {
                    "name": "E5",
                    "midi": 76,
                    "time": 32.640504,
                    "velocity": 0.3937007874015748,
                    "duration": 0.31385099999999966
                },
                {
                    "name": "F5",
                    "midi": 77,
                    "time": 32.954355,
                    "velocity": 0.33070866141732286,
                    "duration": 0.10461699999999752
                },
                {
                    "name": "G5",
                    "midi": 79,
                    "time": 33.058972,
                    "velocity": 0.36220472440944884,
                    "duration": 0.10461699999999752
                },
                {
                    "name": "F5",
                    "midi": 77,
                    "time": 33.163588999999995,
                    "velocity": 0.33070866141732286,
                    "duration": 0.10461699999999752
                },
                {
                    "name": "E5",
                    "midi": 76,
                    "time": 33.26820599999999,
                    "velocity": 0.4015748031496063,
                    "duration": 0.4184679999999972
                },
                {
                    "name": "A4",
                    "midi": 69,
                    "time": 33.26820599999999,
                    "velocity": 0.3228346456692913,
                    "duration": 0.4184679999999972
                },
                {
                    "name": "G#4",
                    "midi": 68,
                    "time": 33.68667399999999,
                    "velocity": 0.3543307086614173,
                    "duration": 0.20923400000000214
                },
                {
                    "name": "C5",
                    "midi": 72,
                    "time": 33.68667399999999,
                    "velocity": 0.3543307086614173,
                    "duration": 0.20923400000000214
                },
                {
                    "name": "E5",
                    "midi": 76,
                    "time": 33.89590799999999,
                    "velocity": 0.4015748031496063,
                    "duration": 0.6277019999999993
                },
                {
                    "name": "A4",
                    "midi": 69,
                    "time": 33.89590799999999,
                    "velocity": 0.33070866141732286,
                    "duration": 0.8369360000000015
                },
                {
                    "name": "A5",
                    "midi": 81,
                    "time": 34.52360999999999,
                    "velocity": 0.41732283464566927,
                    "duration": 1.0461700000000036
                },
                {
                    "name": "G#4",
                    "midi": 68,
                    "time": 34.73284399999999,
                    "velocity": 0.44881889763779526,
                    "duration": 0.20923400000000214
                },
                {
                    "name": "G4",
                    "midi": 67,
                    "time": 34.942077999999995,
                    "velocity": 0.48031496062992124,
                    "duration": 0.20923400000000214
                },
                {
                    "name": "F#4",
                    "midi": 66,
                    "time": 35.151312,
                    "velocity": 0.5511811023622047,
                    "duration": 1.2554040000000057
                },
                {
                    "name": "F#5",
                    "midi": 78,
                    "time": 35.569779999999994,
                    "velocity": 0.41732283464566927,
                    "duration": 0.20923400000000214
                },
                {
                    "name": "D5",
                    "midi": 74,
                    "time": 35.779014,
                    "velocity": 0.41732283464566927,
                    "duration": 0.20923400000000214
                },
                {
                    "name": "D#5",
                    "midi": 75,
                    "time": 35.988248,
                    "velocity": 0.41732283464566927,
                    "duration": 0.20923400000000214
                },
                {
                    "name": "E5",
                    "midi": 76,
                    "time": 36.197482,
                    "velocity": 0.41732283464566927,
                    "duration": 0.20923400000000214
                },
                {
                    "name": "F4",
                    "midi": 65,
                    "time": 36.406716,
                    "velocity": 0.33070866141732286,
                    "duration": 1.0461699999999965
                },
                {
                    "name": "F5",
                    "midi": 77,
                    "time": 36.406716,
                    "velocity": 0.41732283464566927,
                    "duration": 0.4184679999999972
                },
                {
                    "name": "D5",
                    "midi": 74,
                    "time": 36.825184,
                    "velocity": 0.3937007874015748,
                    "duration": 0.20923400000000214
                },
                {
                    "name": "B4",
                    "midi": 71,
                    "time": 37.034418,
                    "velocity": 0.36220472440944884,
                    "duration": 0.4184679999999972
                },
                {
                    "name": "F#4",
                    "midi": 66,
                    "time": 37.66212,
                    "velocity": 0.5039370078740157,
                    "duration": 1.2554040000000128
                },
                {
                    "name": "A5",
                    "midi": 81,
                    "time": 37.871354000000004,
                    "velocity": 0.41732283464566927,
                    "duration": 0.20923400000000214
                },
                {
                    "name": "F#5",
                    "midi": 78,
                    "time": 38.080588000000006,
                    "velocity": 0.3700787401574803,
                    "duration": 0.20923400000000214
                },
                {
                    "name": "D5",
                    "midi": 74,
                    "time": 38.28982200000001,
                    "velocity": 0.3858267716535433,
                    "duration": 0.20923400000000214
                },
                {
                    "name": "D#5",
                    "midi": 75,
                    "time": 38.49905600000001,
                    "velocity": 0.41732283464566927,
                    "duration": 0.20923400000000214
                },
                {
                    "name": "E5",
                    "midi": 76,
                    "time": 38.70829000000001,
                    "velocity": 0.4251968503937008,
                    "duration": 0.4184680000000043
                },
                {
                    "name": "F4",
                    "midi": 65,
                    "time": 38.917524000000014,
                    "velocity": 0.33070866141732286,
                    "duration": 1.176941250000013
                },
                {
                    "name": "F5",
                    "midi": 77,
                    "time": 39.12675800000002,
                    "velocity": 0.47244094488188976,
                    "duration": 0.20923400000000214
                },
                {
                    "name": "D5",
                    "midi": 74,
                    "time": 39.33599200000002,
                    "velocity": 0.41732283464566927,
                    "duration": 0.20923400000000214
                },
                {
                    "name": "A4",
                    "midi": 69,
                    "time": 39.54522600000002,
                    "velocity": 0.4409448818897638,
                    "duration": 0.20923400000000214
                },
                {
                    "name": "A#4",
                    "midi": 70,
                    "time": 39.75446000000002,
                    "velocity": 0.4566929133858268,
                    "duration": 0.20923400000000214
                },
                {
                    "name": "B4",
                    "midi": 71,
                    "time": 39.963694000000025,
                    "velocity": 0.49606299212598426,
                    "duration": 0.4184680000000043
                },
                {
                    "name": "C5",
                    "midi": 72,
                    "time": 40.38216200000003,
                    "velocity": 0.4566929133858268,
                    "duration": 0.20923400000000214
                },
                {
                    "name": "A4",
                    "midi": 69,
                    "time": 40.59139600000003,
                    "velocity": 0.41732283464566927,
                    "duration": 0.20923400000000214
                },
                {
                    "name": "C#4",
                    "midi": 61,
                    "time": 40.800630000000034,
                    "velocity": 0.3700787401574803,
                    "duration": 0.20923400000000214
                },
                {
                    "name": "D4",
                    "midi": 62,
                    "time": 41.009864000000036,
                    "velocity": 0.33858267716535434,
                    "duration": 0.20923400000000214
                },
                {
                    "name": "E4",
                    "midi": 64,
                    "time": 41.21909800000004,
                    "velocity": 0.3464566929133858,
                    "duration": 0.20923400000000214
                },
                {
                    "name": "F4",
                    "midi": 65,
                    "time": 41.42833200000004,
                    "velocity": 0.36220472440944884,
                    "duration": 0.20923400000000214
                },
                {
                    "name": "G#4",
                    "midi": 68,
                    "time": 41.63756600000004,
                    "velocity": 0.33070866141732286,
                    "duration": 0.20923400000000214
                },
                {
                    "name": "A4",
                    "midi": 69,
                    "time": 41.846800000000044,
                    "velocity": 0.30708661417322836,
                    "duration": 0.20923400000000214
                },
                {
                    "name": "C#5",
                    "midi": 73,
                    "time": 42.05603400000005,
                    "velocity": 0.2440944881889764,
                    "duration": 0.20923400000000214
                },
                {
                    "name": "F4",
                    "midi": 65,
                    "time": 42.26526800000005,
                    "velocity": 0.1968503937007874,
                    "duration": 0.05230850000000231
                },
                {
                    "name": "A4",
                    "midi": 69,
                    "time": 42.26526800000005,
                    "velocity": 0.1968503937007874,
                    "duration": 0.05230850000000231
                },
                {
                    "name": "D5",
                    "midi": 74,
                    "time": 42.26526800000005,
                    "velocity": 0.25196850393700787,
                    "duration": 0.05230850000000231
                },
                {
                    "name": "A4",
                    "midi": 69,
                    "time": 42.47450200000005,
                    "velocity": 0.2047244094488189,
                    "duration": 0.05230850000000231
                },
                {
                    "name": "D5",
                    "midi": 74,
                    "time": 42.47450200000005,
                    "velocity": 0.2047244094488189,
                    "duration": 0.05230850000000231
                },
                {
                    "name": "F5",
                    "midi": 77,
                    "time": 42.47450200000005,
                    "velocity": 0.25984251968503935,
                    "duration": 0.05230850000000231
                },
                {
                    "name": "A5",
                    "midi": 81,
                    "time": 42.68373600000005,
                    "velocity": 0.31496062992125984,
                    "duration": 0.05230850000000231
                },
                {
                    "name": "F5",
                    "midi": 77,
                    "time": 42.68373600000005,
                    "velocity": 0.25196850393700787,
                    "duration": 0.05230850000000231
                },
                {
                    "name": "D5",
                    "midi": 74,
                    "time": 42.68373600000005,
                    "velocity": 0.25196850393700787,
                    "duration": 0.05230850000000231
                },
                {
                    "name": "E4",
                    "midi": 64,
                    "time": 43.93914000000006,
                    "velocity": 0.31496062992125984,
                    "duration": 1.2554039999999986
                },
                {
                    "name": "C4",
                    "midi": 60,
                    "time": 45.19454400000006,
                    "velocity": 0.31496062992125984,
                    "duration": 0.31385099999999966
                },
                {
                    "name": "B3",
                    "midi": 59,
                    "time": 45.50839500000006,
                    "velocity": 0.23622047244094488,
                    "duration": 0.10461699999999752
                },
                {
                    "name": "C4",
                    "midi": 60,
                    "time": 45.613012000000055,
                    "velocity": 0.23622047244094488,
                    "duration": 0.10461699999999752
                },
                {
                    "name": "D4",
                    "midi": 62,
                    "time": 45.71762900000005,
                    "velocity": 0.23622047244094488,
                    "duration": 0.10461699999999752
                },
                {
                    "name": "E4",
                    "midi": 64,
                    "time": 45.82224600000005,
                    "velocity": 0.2677165354330709,
                    "duration": 0.6277019999999993
                },
                {
                    "name": "C4",
                    "midi": 60,
                    "time": 46.44994800000005,
                    "velocity": 0.31496062992125984,
                    "duration": 0.31385099999999966
                },
                {
                    "name": "B3",
                    "midi": 59,
                    "time": 46.76379900000005,
                    "velocity": 0.23622047244094488,
                    "duration": 0.10461699999999752
                },
                {
                    "name": "C4",
                    "midi": 60,
                    "time": 46.868416000000046,
                    "velocity": 0.23622047244094488,
                    "duration": 0.10461699999999752
                },
                {
                    "name": "D4",
                    "midi": 62,
                    "time": 46.973033000000044,
                    "velocity": 0.23622047244094488,
                    "duration": 0.10461699999999752
                },
                {
                    "name": "E4",
                    "midi": 64,
                    "time": 47.07765000000004,
                    "velocity": 0.2677165354330709,
                    "duration": 0.6277019999999993
                },
                {
                    "name": "C4",
                    "midi": 60,
                    "time": 47.70535200000004,
                    "velocity": 0.2283464566929134,
                    "duration": 0.20923400000000214
                },
                {
                    "name": "E3",
                    "midi": 52,
                    "time": 47.70535200000004,
                    "velocity": 0.1889763779527559,
                    "duration": 0.20923400000000214
                },
                {
                    "name": "E4",
                    "midi": 64,
                    "time": 48.330438575000045,
                    "velocity": 0.1732283464566929,
                    "duration": 0.2135930416666696
                },
                {
                    "name": "C5",
                    "midi": 72,
                    "time": 48.33305400000005,
                    "velocity": 0.2125984251968504,
                    "duration": 0.20923400000000214
                },
                {
                    "name": "C6",
                    "midi": 84,
                    "time": 48.960756000000046,
                    "velocity": 0.2204724409448819,
                    "duration": 1.0461700000000036
                },
                {
                    "name": "E5",
                    "midi": 76,
                    "time": 48.960756000000046,
                    "velocity": 0.18110236220472442,
                    "duration": 1.0461700000000036
                },
                {
                    "name": "D4",
                    "midi": 62,
                    "time": 50.21616000000005,
                    "velocity": 0.2677165354330709,
                    "duration": 1.0461699999999894
                },
                {
                    "name": "G4",
                    "midi": 67,
                    "time": 50.21616000000005,
                    "velocity": 0.33070866141732286,
                    "duration": 0.31385099999999966
                },
                {
                    "name": "F#4",
                    "midi": 66,
                    "time": 50.53001100000005,
                    "velocity": 0.2440944881889764,
                    "duration": 0.10461699999999752
                },
                {
                    "name": "G4",
                    "midi": 67,
                    "time": 50.63462800000005,
                    "velocity": 0.2440944881889764,
                    "duration": 0.10461699999999752
                },
                {
                    "name": "A4",
                    "midi": 69,
                    "time": 50.73924500000005,
                    "velocity": 0.2440944881889764,
                    "duration": 0.10461699999999752
                },
                {
                    "name": "A#4",
                    "midi": 70,
                    "time": 50.843862000000044,
                    "velocity": 0.28346456692913385,
                    "duration": 0.941552999999999
                },
                {
                    "name": "E4",
                    "midi": 64,
                    "time": 51.26233000000004,
                    "velocity": 0.28346456692913385,
                    "duration": 0.20923400000000214
                },
                {
                    "name": "F4",
                    "midi": 65,
                    "time": 51.47156400000004,
                    "velocity": 0.2677165354330709,
                    "duration": 1.0461699999999894
                },
                {
                    "name": "A4",
                    "midi": 69,
                    "time": 51.78541500000004,
                    "velocity": 0.28346456692913385,
                    "duration": 0.10461699999999752
                },
                {
                    "name": "A#4",
                    "midi": 70,
                    "time": 51.89003200000004,
                    "velocity": 0.2992125984251969,
                    "duration": 0.10461699999999752
                },
                {
                    "name": "C5",
                    "midi": 72,
                    "time": 51.99464900000004,
                    "velocity": 0.31496062992125984,
                    "duration": 0.10461699999999752
                },
                {
                    "name": "D5",
                    "midi": 74,
                    "time": 52.099266000000036,
                    "velocity": 0.3464566929133858,
                    "duration": 0.941552999999999
                },
                {
                    "name": "F#4",
                    "midi": 66,
                    "time": 52.51773400000003,
                    "velocity": 0.33070866141732286,
                    "duration": 0.20923400000000214
                },
                {
                    "name": "G4",
                    "midi": 67,
                    "time": 52.93620200000004,
                    "velocity": 0.3779527559055118,
                    "duration": 0.10461699999999752
                },
                {
                    "name": "C#5",
                    "midi": 73,
                    "time": 53.040819000000035,
                    "velocity": 0.33070866141732286,
                    "duration": 0.10461699999999752
                },
                {
                    "name": "A#4",
                    "midi": 70,
                    "time": 53.040819000000035,
                    "velocity": 0.33070866141732286,
                    "duration": 0.10461699999999752
                },
                {
                    "name": "G4",
                    "midi": 67,
                    "time": 53.14543600000003,
                    "velocity": 0.36220472440944884,
                    "duration": 0.10461699999999752
                },
                {
                    "name": "A#4",
                    "midi": 70,
                    "time": 53.25005300000003,
                    "velocity": 0.33070866141732286,
                    "duration": 0.10461699999999752
                },
                {
                    "name": "D5",
                    "midi": 74,
                    "time": 53.25005300000003,
                    "velocity": 0.33070866141732286,
                    "duration": 0.10461699999999752
                },
                {
                    "name": "A#4",
                    "midi": 70,
                    "time": 53.35467000000003,
                    "velocity": 0.3700787401574803,
                    "duration": 0.07846274999999991
                },
                {
                    "name": "D5",
                    "midi": 74,
                    "time": 53.459287000000025,
                    "velocity": 0.3228346456692913,
                    "duration": 0.07846274999999991
                },
                {
                    "name": "F#5",
                    "midi": 78,
                    "time": 53.459287000000025,
                    "velocity": 0.3228346456692913,
                    "duration": 0.07846274999999991
                },
                {
                    "name": "A#4",
                    "midi": 70,
                    "time": 53.56390400000002,
                    "velocity": 0.3543307086614173,
                    "duration": 0.07846274999999991
                },
                {
                    "name": "G5",
                    "midi": 79,
                    "time": 53.66852100000002,
                    "velocity": 0.30708661417322836,
                    "duration": 0.07846274999999991
                },
                {
                    "name": "D5",
                    "midi": 74,
                    "time": 53.66852100000002,
                    "velocity": 0.30708661417322836,
                    "duration": 0.07846274999999991
                },
                {
                    "name": "D5",
                    "midi": 74,
                    "time": 53.77313800000002,
                    "velocity": 0.33858267716535434,
                    "duration": 0.07846274999999991
                },
                {
                    "name": "A5",
                    "midi": 81,
                    "time": 53.877755000000015,
                    "velocity": 0.29133858267716534,
                    "duration": 0.07846274999999991
                },
                {
                    "name": "G5",
                    "midi": 79,
                    "time": 53.877755000000015,
                    "velocity": 0.29133858267716534,
                    "duration": 0.07846274999999991
                },
                {
                    "name": "D5",
                    "midi": 74,
                    "time": 53.98237200000001,
                    "velocity": 0.33858267716535434,
                    "duration": 0.07846274999999991
                },
                {
                    "name": "A#5",
                    "midi": 82,
                    "time": 54.08698900000001,
                    "velocity": 0.28346456692913385,
                    "duration": 0.07846274999999991
                },
                {
                    "name": "G5",
                    "midi": 79,
                    "time": 54.08698900000001,
                    "velocity": 0.28346456692913385,
                    "duration": 0.07846274999999991
                },
                {
                    "name": "G5",
                    "midi": 79,
                    "time": 54.19160600000001,
                    "velocity": 0.3228346456692913,
                    "duration": 0.07846274999999991
                },
                {
                    "name": "C#6",
                    "midi": 85,
                    "time": 54.296223000000005,
                    "velocity": 0.2677165354330709,
                    "duration": 0.07846274999999991
                },
                {
                    "name": "A#5",
                    "midi": 82,
                    "time": 54.296223000000005,
                    "velocity": 0.2677165354330709,
                    "duration": 0.07846274999999991
                },
                {
                    "name": "G5",
                    "midi": 79,
                    "time": 54.40084,
                    "velocity": 0.2992125984251969,
                    "duration": 0.07846274999999991
                },
                {
                    "name": "D6",
                    "midi": 86,
                    "time": 54.505457,
                    "velocity": 0.25984251968503935,
                    "duration": 0.07846274999999991
                },
                {
                    "name": "A#5",
                    "midi": 82,
                    "time": 54.505457,
                    "velocity": 0.25984251968503935,
                    "duration": 0.07846274999999991
                },
                {
                    "name": "G6",
                    "midi": 91,
                    "time": 54.610074,
                    "velocity": 0.3779527559055118,
                    "duration": 0.10461699999999752
                },
                {
                    "name": "G4",
                    "midi": 67,
                    "time": 55.237776,
                    "velocity": 0.29133858267716534,
                    "duration": 1.0461699999999894
                },
                {
                    "name": "C5",
                    "midi": 72,
                    "time": 55.237776,
                    "velocity": 0.36220472440944884,
                    "duration": 0.31385099999999966
                },
                {
                    "name": "B4",
                    "midi": 71,
                    "time": 55.551626999999996,
                    "velocity": 0.2677165354330709,
                    "duration": 0.10461699999999752
                },
                {
                    "name": "C5",
                    "midi": 72,
                    "time": 55.656243999999994,
                    "velocity": 0.2755905511811024,
                    "duration": 0.10461699999999752
                },
                {
                    "name": "D5",
                    "midi": 74,
                    "time": 55.76086099999999,
                    "velocity": 0.2755905511811024,
                    "duration": 0.10461699999999752
                },
                {
                    "name": "D#5",
                    "midi": 75,
                    "time": 55.86547799999999,
                    "velocity": 0.3228346456692913,
                    "duration": 0.941552999999999
                },
                {
                    "name": "A4",
                    "midi": 69,
                    "time": 56.283945999999986,
                    "velocity": 0.33070866141732286,
                    "duration": 0.20923400000000214
                },
                {
                    "name": "A#4",
                    "midi": 70,
                    "time": 56.49317999999999,
                    "velocity": 0.3228346456692913,
                    "duration": 1.0461699999999894
                },
                {
                    "name": "D5",
                    "midi": 74,
                    "time": 56.80703099999999,
                    "velocity": 0.3464566929133858,
                    "duration": 0.10461699999999752
                },
                {
                    "name": "D#5",
                    "midi": 75,
                    "time": 56.911647999999985,
                    "velocity": 0.3700787401574803,
                    "duration": 0.10461699999999752
                },
                {
                    "name": "F5",
                    "midi": 77,
                    "time": 57.01626499999998,
                    "velocity": 0.3937007874015748,
                    "duration": 0.10461699999999752
                },
                {
                    "name": "G5",
                    "midi": 79,
                    "time": 57.12088199999998,
                    "velocity": 0.4330708661417323,
                    "duration": 0.941552999999999
                },
                {
                    "name": "B4",
                    "midi": 71,
                    "time": 57.53934999999998,
                    "velocity": 0.33070866141732286,
                    "duration": 0.20923400000000214
                },
                {
                    "name": "C5",
                    "midi": 72,
                    "time": 57.95781799999998,
                    "velocity": 0.3779527559055118,
                    "duration": 0.10461699999999752
                },
                {
                    "name": "F#5",
                    "midi": 78,
                    "time": 58.06243499999998,
                    "velocity": 0.33070866141732286,
                    "duration": 0.10461699999999752
                },
                {
                    "name": "D#5",
                    "midi": 75,
                    "time": 58.06243499999998,
                    "velocity": 0.33070866141732286,
                    "duration": 0.10461699999999752
                },
                {
                    "name": "C5",
                    "midi": 72,
                    "time": 58.16705199999998,
                    "velocity": 0.36220472440944884,
                    "duration": 0.10461699999999752
                },
                {
                    "name": "D#5",
                    "midi": 75,
                    "time": 58.271668999999974,
                    "velocity": 0.33070866141732286,
                    "duration": 0.10461699999999752
                },
                {
                    "name": "G5",
                    "midi": 79,
                    "time": 58.271668999999974,
                    "velocity": 0.33070866141732286,
                    "duration": 0.10461699999999752
                },
                {
                    "name": "D#5",
                    "midi": 75,
                    "time": 58.37628599999997,
                    "velocity": 0.3700787401574803,
                    "duration": 0.07846274999999991
                },
                {
                    "name": "G5",
                    "midi": 79,
                    "time": 58.48090299999997,
                    "velocity": 0.3228346456692913,
                    "duration": 0.07846274999999991
                },
                {
                    "name": "B5",
                    "midi": 83,
                    "time": 58.48090299999997,
                    "velocity": 0.3228346456692913,
                    "duration": 0.07846274999999991
                },
                {
                    "name": "D#5",
                    "midi": 75,
                    "time": 58.58551999999997,
                    "velocity": 0.3543307086614173,
                    "duration": 0.07846274999999991
                },
                {
                    "name": "C6",
                    "midi": 84,
                    "time": 58.690136999999964,
                    "velocity": 0.30708661417322836,
                    "duration": 0.07846274999999991
                },
                {
                    "name": "G5",
                    "midi": 79,
                    "time": 58.690136999999964,
                    "velocity": 0.30708661417322836,
                    "duration": 0.07846274999999991
                },
                {
                    "name": "G5",
                    "midi": 79,
                    "time": 58.79475399999996,
                    "velocity": 0.33858267716535434,
                    "duration": 0.07846274999999991
                },
                {
                    "name": "D6",
                    "midi": 86,
                    "time": 58.89937099999996,
                    "velocity": 0.29133858267716534,
                    "duration": 0.07846274999999991
                },
                {
                    "name": "C6",
                    "midi": 84,
                    "time": 58.89937099999996,
                    "velocity": 0.29133858267716534,
                    "duration": 0.07846274999999991
                },
                {
                    "name": "G5",
                    "midi": 79,
                    "time": 59.00398799999996,
                    "velocity": 0.33858267716535434,
                    "duration": 0.07846274999999991
                },
                {
                    "name": "D#6",
                    "midi": 87,
                    "time": 59.108604999999955,
                    "velocity": 0.28346456692913385,
                    "duration": 0.07846274999999991
                },
                {
                    "name": "C6",
                    "midi": 84,
                    "time": 59.108604999999955,
                    "velocity": 0.28346456692913385,
                    "duration": 0.07846274999999991
                },
                {
                    "name": "C6",
                    "midi": 84,
                    "time": 59.21322199999995,
                    "velocity": 0.3228346456692913,
                    "duration": 0.07846274999999991
                },
                {
                    "name": "F#6",
                    "midi": 90,
                    "time": 59.31783899999995,
                    "velocity": 0.2677165354330709,
                    "duration": 0.07846274999999991
                },
                {
                    "name": "D#6",
                    "midi": 87,
                    "time": 59.31783899999995,
                    "velocity": 0.2677165354330709,
                    "duration": 0.07846274999999991
                },
                {
                    "name": "C6",
                    "midi": 84,
                    "time": 59.42245599999995,
                    "velocity": 0.2992125984251969,
                    "duration": 0.07846274999999991
                },
                {
                    "name": "G6",
                    "midi": 91,
                    "time": 59.527072999999945,
                    "velocity": 0.25984251968503935,
                    "duration": 0.07846274999999991
                },
                {
                    "name": "D#6",
                    "midi": 87,
                    "time": 59.527072999999945,
                    "velocity": 0.25984251968503935,
                    "duration": 0.07846274999999991
                },
                {
                    "name": "C7",
                    "midi": 96,
                    "time": 59.63168999999994,
                    "velocity": 0.3779527559055118,
                    "duration": 0.10461699999999752
                },
                {
                    "name": "A#5",
                    "midi": 82,
                    "time": 60.36400899999994,
                    "velocity": 0.2440944881889764,
                    "duration": 0.10461699999999752
                },
                {
                    "name": "D6",
                    "midi": 86,
                    "time": 60.36400899999994,
                    "velocity": 0.2440944881889764,
                    "duration": 0.10461699999999752
                },
                {
                    "name": "E6",
                    "midi": 88,
                    "time": 60.46862599999994,
                    "velocity": 0.2755905511811024,
                    "duration": 0.10461699999999752
                },
                {
                    "name": "A#5",
                    "midi": 82,
                    "time": 60.573242999999934,
                    "velocity": 0.23622047244094488,
                    "duration": 0.10461699999999752
                },
                {
                    "name": "D6",
                    "midi": 86,
                    "time": 60.573242999999934,
                    "velocity": 0.23622047244094488,
                    "duration": 0.10461699999999752
                },
                {
                    "name": "F6",
                    "midi": 89,
                    "time": 60.67785999999993,
                    "velocity": 0.2755905511811024,
                    "duration": 0.10461699999999752
                },
                {
                    "name": "D6",
                    "midi": 86,
                    "time": 60.78247699999993,
                    "velocity": 0.2440944881889764,
                    "duration": 0.10461699999999752
                },
                {
                    "name": "A#5",
                    "midi": 82,
                    "time": 60.78247699999993,
                    "velocity": 0.2440944881889764,
                    "duration": 0.10461699999999752
                },
                {
                    "name": "D6",
                    "midi": 86,
                    "time": 60.991710999999924,
                    "velocity": 0.23622047244094488,
                    "duration": 0.10461699999999752
                },
                {
                    "name": "A#5",
                    "midi": 82,
                    "time": 60.991710999999924,
                    "velocity": 0.23622047244094488,
                    "duration": 0.10461699999999752
                },
                {
                    "name": "E6",
                    "midi": 88,
                    "time": 61.09632799999992,
                    "velocity": 0.2755905511811024,
                    "duration": 0.10461699999999752
                },
                {
                    "name": "D6",
                    "midi": 86,
                    "time": 61.20094499999992,
                    "velocity": 0.25196850393700787,
                    "duration": 0.10461699999999752
                },
                {
                    "name": "A#5",
                    "midi": 82,
                    "time": 61.20094499999992,
                    "velocity": 0.25196850393700787,
                    "duration": 0.10461699999999752
                },
                {
                    "name": "F6",
                    "midi": 89,
                    "time": 61.30556199999992,
                    "velocity": 0.2755905511811024,
                    "duration": 0.10461699999999752
                },
                {
                    "name": "A#5",
                    "midi": 82,
                    "time": 61.410178999999914,
                    "velocity": 0.2440944881889764,
                    "duration": 0.10461699999999752
                },
                {
                    "name": "D6",
                    "midi": 86,
                    "time": 61.410178999999914,
                    "velocity": 0.2440944881889764,
                    "duration": 0.10461699999999752
                },
                {
                    "name": "A#5",
                    "midi": 82,
                    "time": 61.61941299999991,
                    "velocity": 0.2677165354330709,
                    "duration": 0.10461699999999752
                },
                {
                    "name": "D6",
                    "midi": 86,
                    "time": 61.61941299999991,
                    "velocity": 0.2677165354330709,
                    "duration": 0.10461699999999752
                },
                {
                    "name": "E6",
                    "midi": 88,
                    "time": 61.72402999999991,
                    "velocity": 0.30708661417322836,
                    "duration": 0.10461699999999752
                },
                {
                    "name": "A#5",
                    "midi": 82,
                    "time": 61.828646999999904,
                    "velocity": 0.2677165354330709,
                    "duration": 0.10461699999999752
                },
                {
                    "name": "D6",
                    "midi": 86,
                    "time": 61.828646999999904,
                    "velocity": 0.2677165354330709,
                    "duration": 0.10461699999999752
                },
                {
                    "name": "F6",
                    "midi": 89,
                    "time": 61.9332639999999,
                    "velocity": 0.3228346456692913,
                    "duration": 0.10461699999999752
                },
                {
                    "name": "D6",
                    "midi": 86,
                    "time": 62.0378809999999,
                    "velocity": 0.29133858267716534,
                    "duration": 0.10461699999999752
                },
                {
                    "name": "A#5",
                    "midi": 82,
                    "time": 62.0378809999999,
                    "velocity": 0.29133858267716534,
                    "duration": 0.10461699999999752
                },
                {
                    "name": "D6",
                    "midi": 86,
                    "time": 62.247114999999894,
                    "velocity": 0.29133858267716534,
                    "duration": 0.10461699999999752
                },
                {
                    "name": "A#5",
                    "midi": 82,
                    "time": 62.247114999999894,
                    "velocity": 0.29133858267716534,
                    "duration": 0.10461699999999752
                },
                {
                    "name": "E6",
                    "midi": 88,
                    "time": 62.35173199999989,
                    "velocity": 0.3543307086614173,
                    "duration": 0.10461699999999752
                },
                {
                    "name": "D6",
                    "midi": 86,
                    "time": 62.45634899999989,
                    "velocity": 0.3228346456692913,
                    "duration": 0.10461699999999752
                },
                {
                    "name": "A#5",
                    "midi": 82,
                    "time": 62.45634899999989,
                    "velocity": 0.3228346456692913,
                    "duration": 0.10461699999999752
                },
                {
                    "name": "F6",
                    "midi": 89,
                    "time": 62.56096599999989,
                    "velocity": 0.36220472440944884,
                    "duration": 0.10461699999999752
                },
                {
                    "name": "A#5",
                    "midi": 82,
                    "time": 62.665582999999884,
                    "velocity": 0.33070866141732286,
                    "duration": 0.10461699999999752
                },
                {
                    "name": "D6",
                    "midi": 86,
                    "time": 62.665582999999884,
                    "velocity": 0.33070866141732286,
                    "duration": 0.10461699999999752
                },
                {
                    "name": "B5",
                    "midi": 83,
                    "time": 62.87481699999988,
                    "velocity": 0.33070866141732286,
                    "duration": 0.10461699999999752
                },
                {
                    "name": "D6",
                    "midi": 86,
                    "time": 62.87481699999988,
                    "velocity": 0.33070866141732286,
                    "duration": 0.10461699999999752
                },
                {
                    "name": "E6",
                    "midi": 88,
                    "time": 62.97943399999988,
                    "velocity": 0.3700787401574803,
                    "duration": 0.10461699999999752
                },
                {
                    "name": "B5",
                    "midi": 83,
                    "time": 63.084050999999874,
                    "velocity": 0.30708661417322836,
                    "duration": 0.10461699999999752
                },
                {
                    "name": "D6",
                    "midi": 86,
                    "time": 63.084050999999874,
                    "velocity": 0.30708661417322836,
                    "duration": 0.10461699999999752
                },
                {
                    "name": "F6",
                    "midi": 89,
                    "time": 63.18866799999987,
                    "velocity": 0.3543307086614173,
                    "duration": 0.10461699999999752
                },
                {
                    "name": "D6",
                    "midi": 86,
                    "time": 63.29328499999987,
                    "velocity": 0.30708661417322836,
                    "duration": 0.10461699999999752
                },
                {
                    "name": "B5",
                    "midi": 83,
                    "time": 63.29328499999987,
                    "velocity": 0.30708661417322836,
                    "duration": 0.10461699999999752
                },
                {
                    "name": "D6",
                    "midi": 86,
                    "time": 63.502518999999864,
                    "velocity": 0.28346456692913385,
                    "duration": 0.10461699999999752
                },
                {
                    "name": "B5",
                    "midi": 83,
                    "time": 63.502518999999864,
                    "velocity": 0.28346456692913385,
                    "duration": 0.10461699999999752
                },
                {
                    "name": "E6",
                    "midi": 88,
                    "time": 63.60713599999986,
                    "velocity": 0.33070866141732286,
                    "duration": 0.10461699999999752
                },
                {
                    "name": "D6",
                    "midi": 86,
                    "time": 63.71175299999986,
                    "velocity": 0.29133858267716534,
                    "duration": 0.10461699999999752
                },
                {
                    "name": "B5",
                    "midi": 83,
                    "time": 63.71175299999986,
                    "velocity": 0.29133858267716534,
                    "duration": 0.10461699999999752
                },
                {
                    "name": "F6",
                    "midi": 89,
                    "time": 63.81636999999986,
                    "velocity": 0.31496062992125984,
                    "duration": 0.10461699999999752
                },
                {
                    "name": "B5",
                    "midi": 83,
                    "time": 63.920986999999855,
                    "velocity": 0.2755905511811024,
                    "duration": 0.10461700000000462
                },
                {
                    "name": "D6",
                    "midi": 86,
                    "time": 63.920986999999855,
                    "velocity": 0.2755905511811024,
                    "duration": 0.10461700000000462
                },
                {
                    "name": "B5",
                    "midi": 83,
                    "time": 64.13022099999986,
                    "velocity": 0.2440944881889764,
                    "duration": 0.10461700000000462
                },
                {
                    "name": "D6",
                    "midi": 86,
                    "time": 64.13022099999986,
                    "velocity": 0.2440944881889764,
                    "duration": 0.10461700000000462
                },
                {
                    "name": "E6",
                    "midi": 88,
                    "time": 64.23483799999987,
                    "velocity": 0.2755905511811024,
                    "duration": 0.10461700000000462
                },
                {
                    "name": "B5",
                    "midi": 83,
                    "time": 64.33945499999987,
                    "velocity": 0.23622047244094488,
                    "duration": 0.10461700000000462
                },
                {
                    "name": "D6",
                    "midi": 86,
                    "time": 64.33945499999987,
                    "velocity": 0.23622047244094488,
                    "duration": 0.10461700000000462
                },
                {
                    "name": "F6",
                    "midi": 89,
                    "time": 64.44407199999988,
                    "velocity": 0.2755905511811024,
                    "duration": 0.10461700000000462
                },
                {
                    "name": "D6",
                    "midi": 86,
                    "time": 64.54868899999988,
                    "velocity": 0.2440944881889764,
                    "duration": 0.10461700000000462
                },
                {
                    "name": "B5",
                    "midi": 83,
                    "time": 64.54868899999988,
                    "velocity": 0.2440944881889764,
                    "duration": 0.10461700000000462
                },
                {
                    "name": "D6",
                    "midi": 86,
                    "time": 64.75792299999989,
                    "velocity": 0.23622047244094488,
                    "duration": 0.10461700000000462
                },
                {
                    "name": "B5",
                    "midi": 83,
                    "time": 64.75792299999989,
                    "velocity": 0.23622047244094488,
                    "duration": 0.10461700000000462
                },
                {
                    "name": "E6",
                    "midi": 88,
                    "time": 64.8625399999999,
                    "velocity": 0.2755905511811024,
                    "duration": 0.10461700000000462
                },
                {
                    "name": "D6",
                    "midi": 86,
                    "time": 64.9671569999999,
                    "velocity": 0.25196850393700787,
                    "duration": 0.10461700000000462
                },
                {
                    "name": "B5",
                    "midi": 83,
                    "time": 64.9671569999999,
                    "velocity": 0.25196850393700787,
                    "duration": 0.10461700000000462
                },
                {
                    "name": "F6",
                    "midi": 89,
                    "time": 65.0717739999999,
                    "velocity": 0.2755905511811024,
                    "duration": 0.10461700000000462
                },
                {
                    "name": "B5",
                    "midi": 83,
                    "time": 65.17639099999991,
                    "velocity": 0.2440944881889764,
                    "duration": 0.10461700000000462
                },
                {
                    "name": "D6",
                    "midi": 86,
                    "time": 65.17639099999991,
                    "velocity": 0.2440944881889764,
                    "duration": 0.10461700000000462
                },
                {
                    "name": "A#5",
                    "midi": 82,
                    "time": 65.38562499999992,
                    "velocity": 0.2440944881889764,
                    "duration": 0.10461700000000462
                },
                {
                    "name": "C#6",
                    "midi": 85,
                    "time": 65.38562499999992,
                    "velocity": 0.2440944881889764,
                    "duration": 0.10461700000000462
                },
                {
                    "name": "E6",
                    "midi": 88,
                    "time": 65.49024199999992,
                    "velocity": 0.2755905511811024,
                    "duration": 0.10461700000000462
                },
                {
                    "name": "A#5",
                    "midi": 82,
                    "time": 65.59485899999993,
                    "velocity": 0.23622047244094488,
                    "duration": 0.10461700000000462
                },
                {
                    "name": "C#6",
                    "midi": 85,
                    "time": 65.59485899999993,
                    "velocity": 0.23622047244094488,
                    "duration": 0.10461700000000462
                },
                {
                    "name": "F6",
                    "midi": 89,
                    "time": 65.69947599999993,
                    "velocity": 0.2755905511811024,
                    "duration": 0.10461700000000462
                },
                {
                    "name": "C#6",
                    "midi": 85,
                    "time": 65.80409299999994,
                    "velocity": 0.2440944881889764,
                    "duration": 0.10461700000000462
                },
                {
                    "name": "A#5",
                    "midi": 82,
                    "time": 65.80409299999994,
                    "velocity": 0.2440944881889764,
                    "duration": 0.10461700000000462
                },
                {
                    "name": "C#6",
                    "midi": 85,
                    "time": 66.01332699999995,
                    "velocity": 0.23622047244094488,
                    "duration": 0.10461700000000462
                },
                {
                    "name": "A#5",
                    "midi": 82,
                    "time": 66.01332699999995,
                    "velocity": 0.23622047244094488,
                    "duration": 0.10461700000000462
                },
                {
                    "name": "E6",
                    "midi": 88,
                    "time": 66.11794399999995,
                    "velocity": 0.28346456692913385,
                    "duration": 0.10461700000000462
                },
                {
                    "name": "C#6",
                    "midi": 85,
                    "time": 66.22256099999996,
                    "velocity": 0.25196850393700787,
                    "duration": 0.10461700000000462
                },
                {
                    "name": "A#5",
                    "midi": 82,
                    "time": 66.22256099999996,
                    "velocity": 0.25196850393700787,
                    "duration": 0.10461700000000462
                },
                {
                    "name": "F6",
                    "midi": 89,
                    "time": 66.32717799999996,
                    "velocity": 0.28346456692913385,
                    "duration": 0.10461700000000462
                },
                {
                    "name": "A#5",
                    "midi": 82,
                    "time": 66.43179499999997,
                    "velocity": 0.25196850393700787,
                    "duration": 0.10461700000000462
                },
                {
                    "name": "C#6",
                    "midi": 85,
                    "time": 66.43179499999997,
                    "velocity": 0.25196850393700787,
                    "duration": 0.10461700000000462
                },
                {
                    "name": "A#5",
                    "midi": 82,
                    "time": 66.64102899999997,
                    "velocity": 0.2755905511811024,
                    "duration": 0.10461700000000462
                },
                {
                    "name": "C#6",
                    "midi": 85,
                    "time": 66.64102899999997,
                    "velocity": 0.2755905511811024,
                    "duration": 0.10461700000000462
                },
                {
                    "name": "E6",
                    "midi": 88,
                    "time": 66.74564599999998,
                    "velocity": 0.31496062992125984,
                    "duration": 0.10461700000000462
                },
                {
                    "name": "A#5",
                    "midi": 82,
                    "time": 66.85026299999998,
                    "velocity": 0.28346456692913385,
                    "duration": 0.10461700000000462
                },
                {
                    "name": "C#6",
                    "midi": 85,
                    "time": 66.85026299999998,
                    "velocity": 0.28346456692913385,
                    "duration": 0.10461700000000462
                },
                {
                    "name": "F6",
                    "midi": 89,
                    "time": 66.95487999999999,
                    "velocity": 0.3464566929133858,
                    "duration": 0.10461700000000462
                },
                {
                    "name": "C#6",
                    "midi": 85,
                    "time": 67.059497,
                    "velocity": 0.31496062992125984,
                    "duration": 0.10461700000000462
                },
                {
                    "name": "A#5",
                    "midi": 82,
                    "time": 67.059497,
                    "velocity": 0.31496062992125984,
                    "duration": 0.10461700000000462
                },
                {
                    "name": "C#6",
                    "midi": 85,
                    "time": 67.268731,
                    "velocity": 0.31496062992125984,
                    "duration": 0.10461700000000462
                },
                {
                    "name": "A#5",
                    "midi": 82,
                    "time": 67.268731,
                    "velocity": 0.31496062992125984,
                    "duration": 0.10461700000000462
                },
                {
                    "name": "E6",
                    "midi": 88,
                    "time": 67.37334800000001,
                    "velocity": 0.3937007874015748,
                    "duration": 0.10461700000000462
                },
                {
                    "name": "C#6",
                    "midi": 85,
                    "time": 67.47796500000001,
                    "velocity": 0.36220472440944884,
                    "duration": 0.10461700000000462
                },
                {
                    "name": "A#5",
                    "midi": 82,
                    "time": 67.47796500000001,
                    "velocity": 0.36220472440944884,
                    "duration": 0.10461700000000462
                },
                {
                    "name": "F6",
                    "midi": 89,
                    "time": 67.58258200000002,
                    "velocity": 0.41732283464566927,
                    "duration": 0.10461700000000462
                },
                {
                    "name": "A#5",
                    "midi": 82,
                    "time": 67.68719900000002,
                    "velocity": 0.3858267716535433,
                    "duration": 0.10461700000000462
                },
                {
                    "name": "C#6",
                    "midi": 85,
                    "time": 67.68719900000002,
                    "velocity": 0.3858267716535433,
                    "duration": 0.10461700000000462
                },
                {
                    "name": "A#5",
                    "midi": 82,
                    "time": 67.89643300000003,
                    "velocity": 0.36220472440944884,
                    "duration": 0.10461700000000462
                },
                {
                    "name": "C#6",
                    "midi": 85,
                    "time": 67.89643300000003,
                    "velocity": 0.36220472440944884,
                    "duration": 0.10461700000000462
                },
                {
                    "name": "E6",
                    "midi": 88,
                    "time": 68.00105000000003,
                    "velocity": 0.4094488188976378,
                    "duration": 0.10461700000000462
                },
                {
                    "name": "A#5",
                    "midi": 82,
                    "time": 68.10566700000004,
                    "velocity": 0.33858267716535434,
                    "duration": 0.10461700000000462
                },
                {
                    "name": "C#6",
                    "midi": 85,
                    "time": 68.10566700000004,
                    "velocity": 0.33858267716535434,
                    "duration": 0.10461700000000462
                },
                {
                    "name": "F6",
                    "midi": 89,
                    "time": 68.21028400000004,
                    "velocity": 0.3937007874015748,
                    "duration": 0.10461700000000462
                },
                {
                    "name": "C#6",
                    "midi": 85,
                    "time": 68.31490100000005,
                    "velocity": 0.3464566929133858,
                    "duration": 0.10461700000000462
                },
                {
                    "name": "A#5",
                    "midi": 82,
                    "time": 68.31490100000005,
                    "velocity": 0.3464566929133858,
                    "duration": 0.10461700000000462
                },
                {
                    "name": "A#5",
                    "midi": 82,
                    "time": 68.52413500000006,
                    "velocity": 0.33858267716535434,
                    "duration": 0.10461700000000462
                },
                {
                    "name": "C#6",
                    "midi": 85,
                    "time": 68.52413500000006,
                    "velocity": 0.33858267716535434,
                    "duration": 0.10461700000000462
                },
                {
                    "name": "E6",
                    "midi": 88,
                    "time": 68.62875200000006,
                    "velocity": 0.41732283464566927,
                    "duration": 0.10461700000000462
                },
                {
                    "name": "A#5",
                    "midi": 82,
                    "time": 68.73336900000007,
                    "velocity": 0.36220472440944884,
                    "duration": 0.10461700000000462
                },
                {
                    "name": "C#6",
                    "midi": 85,
                    "time": 68.73336900000007,
                    "velocity": 0.36220472440944884,
                    "duration": 0.10461700000000462
                },
                {
                    "name": "F6",
                    "midi": 89,
                    "time": 68.83798600000007,
                    "velocity": 0.41732283464566927,
                    "duration": 0.10461700000000462
                },
                {
                    "name": "C#6",
                    "midi": 85,
                    "time": 68.94260300000008,
                    "velocity": 0.36220472440944884,
                    "duration": 0.10461700000000462
                },
                {
                    "name": "A#5",
                    "midi": 82,
                    "time": 68.94260300000008,
                    "velocity": 0.36220472440944884,
                    "duration": 0.10461700000000462
                },
                {
                    "name": "A#5",
                    "midi": 82,
                    "time": 69.15183700000009,
                    "velocity": 0.33858267716535434,
                    "duration": 0.10461700000000462
                },
                {
                    "name": "C#6",
                    "midi": 85,
                    "time": 69.15183700000009,
                    "velocity": 0.33858267716535434,
                    "duration": 0.10461700000000462
                },
                {
                    "name": "E6",
                    "midi": 88,
                    "time": 69.25645400000009,
                    "velocity": 0.41732283464566927,
                    "duration": 0.10461700000000462
                },
                {
                    "name": "A#5",
                    "midi": 82,
                    "time": 69.3610710000001,
                    "velocity": 0.3543307086614173,
                    "duration": 0.10461700000000462
                },
                {
                    "name": "C#6",
                    "midi": 85,
                    "time": 69.3610710000001,
                    "velocity": 0.3543307086614173,
                    "duration": 0.10461700000000462
                },
                {
                    "name": "F6",
                    "midi": 89,
                    "time": 69.4656880000001,
                    "velocity": 0.41732283464566927,
                    "duration": 0.10461700000000462
                },
                {
                    "name": "C#6",
                    "midi": 85,
                    "time": 69.5703050000001,
                    "velocity": 0.3464566929133858,
                    "duration": 0.10461700000000462
                },
                {
                    "name": "A#5",
                    "midi": 82,
                    "time": 69.5703050000001,
                    "velocity": 0.3464566929133858,
                    "duration": 0.10461700000000462
                },
                {
                    "name": "C#6",
                    "midi": 85,
                    "time": 69.77953900000011,
                    "velocity": 0.3543307086614173,
                    "duration": 0.10461700000000462
                },
                {
                    "name": "A#5",
                    "midi": 82,
                    "time": 69.77953900000011,
                    "velocity": 0.3543307086614173,
                    "duration": 0.10461700000000462
                },
                {
                    "name": "F6",
                    "midi": 89,
                    "time": 69.88415600000012,
                    "velocity": 0.3858267716535433,
                    "duration": 0.10461700000000462
                },
                {
                    "name": "A#5",
                    "midi": 82,
                    "time": 69.98877300000012,
                    "velocity": 0.33858267716535434,
                    "duration": 0.10461700000000462
                },
                {
                    "name": "C#6",
                    "midi": 85,
                    "time": 69.98877300000012,
                    "velocity": 0.33858267716535434,
                    "duration": 0.10461700000000462
                },
                {
                    "name": "F#6",
                    "midi": 90,
                    "time": 70.09339000000013,
                    "velocity": 0.3858267716535433,
                    "duration": 0.10461700000000462
                },
                {
                    "name": "C#6",
                    "midi": 85,
                    "time": 70.19800700000013,
                    "velocity": 0.33070866141732286,
                    "duration": 0.10461700000000462
                },
                {
                    "name": "A#5",
                    "midi": 82,
                    "time": 70.19800700000013,
                    "velocity": 0.33070866141732286,
                    "duration": 0.10461700000000462
                },
                {
                    "name": "C#6",
                    "midi": 85,
                    "time": 70.40724100000014,
                    "velocity": 0.4409448818897638,
                    "duration": 0.10461700000000462
                },
                {
                    "name": "A#5",
                    "midi": 82,
                    "time": 70.40724100000014,
                    "velocity": 0.4409448818897638,
                    "duration": 0.10461700000000462
                },
                {
                    "name": "F#6",
                    "midi": 90,
                    "time": 70.51185800000015,
                    "velocity": 0.49606299212598426,
                    "duration": 0.10461700000000462
                },
                {
                    "name": "A#5",
                    "midi": 82,
                    "time": 70.61647500000015,
                    "velocity": 0.41732283464566927,
                    "duration": 0.10461700000000462
                },
                {
                    "name": "C#6",
                    "midi": 85,
                    "time": 70.61647500000015,
                    "velocity": 0.41732283464566927,
                    "duration": 0.10461700000000462
                },
                {
                    "name": "G6",
                    "midi": 91,
                    "time": 70.72109200000016,
                    "velocity": 0.4881889763779528,
                    "duration": 0.10461700000000462
                },
                {
                    "name": "C#6",
                    "midi": 85,
                    "time": 70.82570900000016,
                    "velocity": 0.4094488188976378,
                    "duration": 0.10461700000000462
                },
                {
                    "name": "A#5",
                    "midi": 82,
                    "time": 70.82570900000016,
                    "velocity": 0.4094488188976378,
                    "duration": 0.10461700000000462
                },
                {
                    "name": "C#6",
                    "midi": 85,
                    "time": 71.03494300000017,
                    "velocity": 0.4409448818897638,
                    "duration": 0.10461700000000462
                },
                {
                    "name": "A#5",
                    "midi": 82,
                    "time": 71.03494300000017,
                    "velocity": 0.4409448818897638,
                    "duration": 0.10461700000000462
                },
                {
                    "name": "F#6",
                    "midi": 90,
                    "time": 71.13956000000017,
                    "velocity": 0.48031496062992124,
                    "duration": 0.10461700000000462
                },
                {
                    "name": "A#5",
                    "midi": 82,
                    "time": 71.24417700000018,
                    "velocity": 0.41732283464566927,
                    "duration": 0.10461700000000462
                },
                {
                    "name": "C#6",
                    "midi": 85,
                    "time": 71.24417700000018,
                    "velocity": 0.41732283464566927,
                    "duration": 0.10461700000000462
                },
                {
                    "name": "G6",
                    "midi": 91,
                    "time": 71.34879400000018,
                    "velocity": 0.48031496062992124,
                    "duration": 0.10461700000000462
                },
                {
                    "name": "C#6",
                    "midi": 85,
                    "time": 71.45341100000019,
                    "velocity": 0.4094488188976378,
                    "duration": 0.10461700000000462
                },
                {
                    "name": "A#5",
                    "midi": 82,
                    "time": 71.45341100000019,
                    "velocity": 0.4094488188976378,
                    "duration": 0.10461700000000462
                },
                {
                    "name": "C#6",
                    "midi": 85,
                    "time": 71.6626450000002,
                    "velocity": 0.4015748031496063,
                    "duration": 0.10461700000000462
                },
                {
                    "name": "A#5",
                    "midi": 82,
                    "time": 71.6626450000002,
                    "velocity": 0.4015748031496063,
                    "duration": 0.10461700000000462
                },
                {
                    "name": "F#6",
                    "midi": 90,
                    "time": 71.7672620000002,
                    "velocity": 0.4566929133858268,
                    "duration": 0.10461700000000462
                },
                {
                    "name": "A#5",
                    "midi": 82,
                    "time": 71.8718790000002,
                    "velocity": 0.3858267716535433,
                    "duration": 0.10461700000000462
                },
                {
                    "name": "C#6",
                    "midi": 85,
                    "time": 71.8718790000002,
                    "velocity": 0.3858267716535433,
                    "duration": 0.10461700000000462
                },
                {
                    "name": "G6",
                    "midi": 91,
                    "time": 71.97649600000021,
                    "velocity": 0.44881889763779526,
                    "duration": 0.10461700000000462
                },
                {
                    "name": "C#6",
                    "midi": 85,
                    "time": 72.08111300000022,
                    "velocity": 0.3779527559055118,
                    "duration": 0.10461700000000462
                },
                {
                    "name": "A#5",
                    "midi": 82,
                    "time": 72.08111300000022,
                    "velocity": 0.3779527559055118,
                    "duration": 0.10461700000000462
                },
                {
                    "name": "A#5",
                    "midi": 82,
                    "time": 72.29034700000022,
                    "velocity": 0.4015748031496063,
                    "duration": 0.10461700000000462
                },
                {
                    "name": "G5",
                    "midi": 79,
                    "time": 72.29034700000022,
                    "velocity": 0.4015748031496063,
                    "duration": 0.10461700000000462
                },
                {
                    "name": "D#6",
                    "midi": 87,
                    "time": 72.39496400000023,
                    "velocity": 0.4409448818897638,
                    "duration": 0.10461700000000462
                },
                {
                    "name": "G5",
                    "midi": 79,
                    "time": 72.49958100000023,
                    "velocity": 0.3858267716535433,
                    "duration": 0.10461700000000462
                },
                {
                    "name": "A#5",
                    "midi": 82,
                    "time": 72.49958100000023,
                    "velocity": 0.3858267716535433,
                    "duration": 0.10461700000000462
                },
                {
                    "name": "E6",
                    "midi": 88,
                    "time": 72.60419800000024,
                    "velocity": 0.4409448818897638,
                    "duration": 0.10461700000000462
                },
                {
                    "name": "A#5",
                    "midi": 82,
                    "time": 72.70881500000024,
                    "velocity": 0.3779527559055118,
                    "duration": 0.10461700000000462
                },
                {
                    "name": "G5",
                    "midi": 79,
                    "time": 72.70881500000024,
                    "velocity": 0.3779527559055118,
                    "duration": 0.10461700000000462
                },
                {
                    "name": "G5",
                    "midi": 79,
                    "time": 72.91804900000025,
                    "velocity": 0.3543307086614173,
                    "duration": 0.10461700000000462
                },
                {
                    "name": "E5",
                    "midi": 76,
                    "time": 72.91804900000025,
                    "velocity": 0.3543307086614173,
                    "duration": 0.10461700000000462
                },
                {
                    "name": "C6",
                    "midi": 84,
                    "time": 73.02266600000026,
                    "velocity": 0.3937007874015748,
                    "duration": 0.10461700000000462
                },
                {
                    "name": "E5",
                    "midi": 76,
                    "time": 73.12728300000026,
                    "velocity": 0.33070866141732286,
                    "duration": 0.10461700000000462
                },
                {
                    "name": "G5",
                    "midi": 79,
                    "time": 73.12728300000026,
                    "velocity": 0.33070866141732286,
                    "duration": 0.10461700000000462
                },
                {
                    "name": "C#6",
                    "midi": 85,
                    "time": 73.23190000000027,
                    "velocity": 0.3779527559055118,
                    "duration": 0.10461700000000462
                },
                {
                    "name": "G5",
                    "midi": 79,
                    "time": 73.33651700000027,
                    "velocity": 0.30708661417322836,
                    "duration": 0.10461700000000462
                },
                {
                    "name": "E5",
                    "midi": 76,
                    "time": 73.33651700000027,
                    "velocity": 0.30708661417322836,
                    "duration": 0.10461700000000462
                },
                {
                    "name": "E5",
                    "midi": 76,
                    "time": 73.54575100000028,
                    "velocity": 0.3228346456692913,
                    "duration": 0.10461700000000462
                },
                {
                    "name": "C#5",
                    "midi": 73,
                    "time": 73.54575100000028,
                    "velocity": 0.3228346456692913,
                    "duration": 0.10461700000000462
                },
                {
                    "name": "A5",
                    "midi": 81,
                    "time": 73.65036800000028,
                    "velocity": 0.3464566929133858,
                    "duration": 0.10461700000000462
                },
                {
                    "name": "C#5",
                    "midi": 73,
                    "time": 73.75498500000029,
                    "velocity": 0.2992125984251969,
                    "duration": 0.10461700000000462
                },
                {
                    "name": "E5",
                    "midi": 76,
                    "time": 73.75498500000029,
                    "velocity": 0.2992125984251969,
                    "duration": 0.10461700000000462
                },
                {
                    "name": "A#5",
                    "midi": 82,
                    "time": 73.8596020000003,
                    "velocity": 0.33858267716535434,
                    "duration": 0.10461700000000462
                },
                {
                    "name": "E5",
                    "midi": 76,
                    "time": 73.9642190000003,
                    "velocity": 0.28346456692913385,
                    "duration": 0.10461700000000462
                },
                {
                    "name": "C#5",
                    "midi": 73,
                    "time": 73.9642190000003,
                    "velocity": 0.28346456692913385,
                    "duration": 0.10461700000000462
                },
                {
                    "name": "C#5",
                    "midi": 73,
                    "time": 74.17345300000031,
                    "velocity": 0.2992125984251969,
                    "duration": 0.10461700000000462
                },
                {
                    "name": "A#4",
                    "midi": 70,
                    "time": 74.17345300000031,
                    "velocity": 0.2992125984251969,
                    "duration": 0.10461700000000462
                },
                {
                    "name": "F#5",
                    "midi": 78,
                    "time": 74.27807000000031,
                    "velocity": 0.33070866141732286,
                    "duration": 0.10461700000000462
                },
                {
                    "name": "A#4",
                    "midi": 70,
                    "time": 74.38268700000032,
                    "velocity": 0.2755905511811024,
                    "duration": 0.10461700000000462
                },
                {
                    "name": "C#5",
                    "midi": 73,
                    "time": 74.38268700000032,
                    "velocity": 0.2755905511811024,
                    "duration": 0.10461700000000462
                },
                {
                    "name": "G5",
                    "midi": 79,
                    "time": 74.48730400000032,
                    "velocity": 0.31496062992125984,
                    "duration": 0.10461700000000462
                },
                {
                    "name": "C#5",
                    "midi": 73,
                    "time": 74.59192100000033,
                    "velocity": 0.25984251968503935,
                    "duration": 0.10461700000000462
                },
                {
                    "name": "A#4",
                    "midi": 70,
                    "time": 74.59192100000033,
                    "velocity": 0.25984251968503935,
                    "duration": 0.10461700000000462
                },
                {
                    "name": "A#4",
                    "midi": 70,
                    "time": 74.80115500000034,
                    "velocity": 0.2677165354330709,
                    "duration": 0.10461700000000462
                },
                {
                    "name": "G4",
                    "midi": 67,
                    "time": 74.80115500000034,
                    "velocity": 0.2677165354330709,
                    "duration": 0.10461700000000462
                },
                {
                    "name": "D#5",
                    "midi": 75,
                    "time": 74.90577200000034,
                    "velocity": 0.29133858267716534,
                    "duration": 0.10461700000000462
                },
                {
                    "name": "G4",
                    "midi": 67,
                    "time": 75.01038900000034,
                    "velocity": 0.2440944881889764,
                    "duration": 0.10461700000000462
                },
                {
                    "name": "A#4",
                    "midi": 70,
                    "time": 75.01038900000034,
                    "velocity": 0.2440944881889764,
                    "duration": 0.10461700000000462
                },
                {
                    "name": "E5",
                    "midi": 76,
                    "time": 75.11500600000035,
                    "velocity": 0.2755905511811024,
                    "duration": 0.10461700000000462
                },
                {
                    "name": "A#4",
                    "midi": 70,
                    "time": 75.21962300000035,
                    "velocity": 0.23622047244094488,
                    "duration": 0.10461700000000462
                },
                {
                    "name": "G4",
                    "midi": 67,
                    "time": 75.21962300000035,
                    "velocity": 0.23622047244094488,
                    "duration": 0.10461700000000462
                },
                {
                    "name": "G4",
                    "midi": 67,
                    "time": 76.68426100000036,
                    "velocity": 0.2283464566929134,
                    "duration": 0.10461700000000462
                },
                {
                    "name": "A#4",
                    "midi": 70,
                    "time": 76.68426100000036,
                    "velocity": 0.2283464566929134,
                    "duration": 0.10461700000000462
                },
                {
                    "name": "C5",
                    "midi": 72,
                    "time": 76.78887800000037,
                    "velocity": 0.2755905511811024,
                    "duration": 0.10461700000000462
                },
                {
                    "name": "G4",
                    "midi": 67,
                    "time": 76.89349500000037,
                    "velocity": 0.23622047244094488,
                    "duration": 0.10461700000000462
                },
                {
                    "name": "A#4",
                    "midi": 70,
                    "time": 76.89349500000037,
                    "velocity": 0.23622047244094488,
                    "duration": 0.10461700000000462
                },
                {
                    "name": "C#5",
                    "midi": 73,
                    "time": 76.99811200000038,
                    "velocity": 0.2755905511811024,
                    "duration": 0.10461700000000462
                },
                {
                    "name": "G4",
                    "midi": 67,
                    "time": 77.10272900000038,
                    "velocity": 0.2440944881889764,
                    "duration": 0.10461700000000462
                },
                {
                    "name": "A#4",
                    "midi": 70,
                    "time": 77.10272900000038,
                    "velocity": 0.2440944881889764,
                    "duration": 0.10461700000000462
                },
                {
                    "name": "G4",
                    "midi": 67,
                    "time": 77.31196300000039,
                    "velocity": 0.2283464566929134,
                    "duration": 0.10461700000000462
                },
                {
                    "name": "A#4",
                    "midi": 70,
                    "time": 77.31196300000039,
                    "velocity": 0.2283464566929134,
                    "duration": 0.10461700000000462
                },
                {
                    "name": "C5",
                    "midi": 72,
                    "time": 77.4165800000004,
                    "velocity": 0.2755905511811024,
                    "duration": 0.10461700000000462
                },
                {
                    "name": "G4",
                    "midi": 67,
                    "time": 77.5211970000004,
                    "velocity": 0.2440944881889764,
                    "duration": 0.10461700000000462
                },
                {
                    "name": "A#4",
                    "midi": 70,
                    "time": 77.5211970000004,
                    "velocity": 0.2440944881889764,
                    "duration": 0.10461700000000462
                },
                {
                    "name": "C#5",
                    "midi": 73,
                    "time": 77.6258140000004,
                    "velocity": 0.2755905511811024,
                    "duration": 0.10461700000000462
                },
                {
                    "name": "G4",
                    "midi": 67,
                    "time": 77.73043100000041,
                    "velocity": 0.23622047244094488,
                    "duration": 0.10461700000000462
                },
                {
                    "name": "A#4",
                    "midi": 70,
                    "time": 77.73043100000041,
                    "velocity": 0.23622047244094488,
                    "duration": 0.10461700000000462
                },
                {
                    "name": "F#5",
                    "midi": 78,
                    "time": 77.83504800000041,
                    "velocity": 0.3700787401574803,
                    "duration": 1.2554039999999986
                },
                {
                    "name": "E4",
                    "midi": 64,
                    "time": 79.19506900000042,
                    "velocity": 0.2283464566929134,
                    "duration": 0.10461700000000462
                },
                {
                    "name": "A#4",
                    "midi": 70,
                    "time": 79.19506900000042,
                    "velocity": 0.2283464566929134,
                    "duration": 0.10461700000000462
                },
                {
                    "name": "C#5",
                    "midi": 73,
                    "time": 79.29968600000042,
                    "velocity": 0.29133858267716534,
                    "duration": 0.10461700000000462
                },
                {
                    "name": "E4",
                    "midi": 64,
                    "time": 79.40430300000043,
                    "velocity": 0.25196850393700787,
                    "duration": 0.10461700000000462
                },
                {
                    "name": "A#4",
                    "midi": 70,
                    "time": 79.40430300000043,
                    "velocity": 0.25196850393700787,
                    "duration": 0.10461700000000462
                },
                {
                    "name": "D5",
                    "midi": 74,
                    "time": 79.50892000000043,
                    "velocity": 0.2992125984251969,
                    "duration": 0.10461700000000462
                },
                {
                    "name": "E4",
                    "midi": 64,
                    "time": 79.61353700000043,
                    "velocity": 0.2755905511811024,
                    "duration": 0.10461700000000462
                },
                {
                    "name": "A#4",
                    "midi": 70,
                    "time": 79.61353700000043,
                    "velocity": 0.2755905511811024,
                    "duration": 0.10461700000000462
                },
                {
                    "name": "E4",
                    "midi": 64,
                    "time": 79.82277100000044,
                    "velocity": 0.2677165354330709,
                    "duration": 0.10461700000000462
                },
                {
                    "name": "A#4",
                    "midi": 70,
                    "time": 79.82277100000044,
                    "velocity": 0.2677165354330709,
                    "duration": 0.10461700000000462
                },
                {
                    "name": "C#5",
                    "midi": 73,
                    "time": 79.92738800000045,
                    "velocity": 0.33070866141732286,
                    "duration": 0.10461700000000462
                },
                {
                    "name": "E4",
                    "midi": 64,
                    "time": 80.03200500000045,
                    "velocity": 0.29133858267716534,
                    "duration": 0.10461700000000462
                },
                {
                    "name": "A#4",
                    "midi": 70,
                    "time": 80.03200500000045,
                    "velocity": 0.29133858267716534,
                    "duration": 0.10461700000000462
                },
                {
                    "name": "D5",
                    "midi": 74,
                    "time": 80.13662200000046,
                    "velocity": 0.33858267716535434,
                    "duration": 0.10461700000000462
                },
                {
                    "name": "E4",
                    "midi": 64,
                    "time": 80.24123900000046,
                    "velocity": 0.2992125984251969,
                    "duration": 0.10461700000000462
                },
                {
                    "name": "A#4",
                    "midi": 70,
                    "time": 80.24123900000046,
                    "velocity": 0.2992125984251969,
                    "duration": 0.10461700000000462
                },
                {
                    "name": "G5",
                    "midi": 79,
                    "time": 80.34585600000047,
                    "velocity": 0.4881889763779528,
                    "duration": 1.673872000000003
                },
                {
                    "name": "A4",
                    "midi": 69,
                    "time": 82.01972800000047,
                    "velocity": 0.33858267716535434,
                    "duration": 0.20923399999999504
                },
                {
                    "name": "A#4",
                    "midi": 70,
                    "time": 82.22896200000046,
                    "velocity": 0.3937007874015748,
                    "duration": 0.4184680000000043
                },
                {
                    "name": "C5",
                    "midi": 72,
                    "time": 82.64743000000047,
                    "velocity": 0.33858267716535434,
                    "duration": 0.20923399999999504
                },
                {
                    "name": "C#5",
                    "midi": 73,
                    "time": 82.85666400000046,
                    "velocity": 0.4094488188976378,
                    "duration": 0.4184680000000043
                },
                {
                    "name": "D5",
                    "midi": 74,
                    "time": 83.27513200000047,
                    "velocity": 0.33858267716535434,
                    "duration": 0.20923399999999504
                },
                {
                    "name": "F#4",
                    "midi": 66,
                    "time": 83.48436600000046,
                    "velocity": 0.4015748031496063,
                    "duration": 0.4184680000000043
                },
                {
                    "name": "G4",
                    "midi": 67,
                    "time": 83.90283400000047,
                    "velocity": 0.29133858267716534,
                    "duration": 0.20923399999999504
                },
                {
                    "name": "A4",
                    "midi": 69,
                    "time": 84.11206800000046,
                    "velocity": 0.3779527559055118,
                    "duration": 0.4184680000000043
                },
                {
                    "name": "A#4",
                    "midi": 70,
                    "time": 84.53053600000047,
                    "velocity": 0.30708661417322836,
                    "duration": 0.20923399999999504
                },
                {
                    "name": "C#4",
                    "midi": 61,
                    "time": 84.73977000000046,
                    "velocity": 0.2755905511811024,
                    "duration": 0.4184680000000043
                },
                {
                    "name": "D4",
                    "midi": 62,
                    "time": 85.15823800000047,
                    "velocity": 0.2047244094488189,
                    "duration": 0.20923399999999504
                },
                {
                    "name": "E4",
                    "midi": 64,
                    "time": 85.36747200000046,
                    "velocity": 0.30708661417322836,
                    "duration": 0.4184680000000043
                },
                {
                    "name": "F4",
                    "midi": 65,
                    "time": 85.78594000000047,
                    "velocity": 0.1968503937007874,
                    "duration": 0.15692549999999983
                },
                {
                    "name": "G4",
                    "midi": 67,
                    "time": 85.99517400000046,
                    "velocity": 0.2677165354330709,
                    "duration": 0.4184680000000043
                },
                {
                    "name": "G#4",
                    "midi": 68,
                    "time": 86.41364200000046,
                    "velocity": 0.2125984251968504,
                    "duration": 0.20923399999999504
                },
                {
                    "name": "A3",
                    "midi": 57,
                    "time": 86.62287600000046,
                    "velocity": 0.23622047244094488,
                    "duration": 0.6277020000000135
                },
                {
                    "name": "A4",
                    "midi": 69,
                    "time": 86.62287600000046,
                    "velocity": 0.29133858267716534,
                    "duration": 0.31385099999999966
                },
                {
                    "name": "G4",
                    "midi": 67,
                    "time": 86.93672700000046,
                    "velocity": 0.2125984251968504,
                    "duration": 0.10461700000000462
                },
                {
                    "name": "F4",
                    "midi": 65,
                    "time": 87.04134400000046,
                    "velocity": 0.2125984251968504,
                    "duration": 0.10461700000000462
                },
                {
                    "name": "G4",
                    "midi": 67,
                    "time": 87.14596100000047,
                    "velocity": 0.2125984251968504,
                    "duration": 0.10461700000000462
                },
                {
                    "name": "A#3",
                    "midi": 58,
                    "time": 87.25057800000047,
                    "velocity": 0.2125984251968504,
                    "duration": 0.6277019999999993
                },
                {
                    "name": "A4",
                    "midi": 69,
                    "time": 87.25057800000047,
                    "velocity": 0.25196850393700787,
                    "duration": 0.4184680000000043
                },
                {
                    "name": "F4",
                    "midi": 65,
                    "time": 87.66904600000048,
                    "velocity": 0.25196850393700787,
                    "duration": 0.20923399999999504
                },
                {
                    "name": "C4",
                    "midi": 60,
                    "time": 87.87828000000047,
                    "velocity": 0.23622047244094488,
                    "duration": 0.6277020000000135
                },
                {
                    "name": "A4",
                    "midi": 69,
                    "time": 87.87828000000047,
                    "velocity": 0.29133858267716534,
                    "duration": 0.31385099999999966
                },
                {
                    "name": "G4",
                    "midi": 67,
                    "time": 88.19213100000047,
                    "velocity": 0.2204724409448819,
                    "duration": 0.10461700000000462
                },
                {
                    "name": "F4",
                    "midi": 65,
                    "time": 88.29674800000048,
                    "velocity": 0.2204724409448819,
                    "duration": 0.10461700000000462
                },
                {
                    "name": "G4",
                    "midi": 67,
                    "time": 88.40136500000048,
                    "velocity": 0.2204724409448819,
                    "duration": 0.10461700000000462
                },
                {
                    "name": "A#3",
                    "midi": 58,
                    "time": 88.50598200000049,
                    "velocity": 0.2125984251968504,
                    "duration": 0.5753935000000041
                },
                {
                    "name": "A4",
                    "midi": 69,
                    "time": 88.50598200000049,
                    "velocity": 0.25196850393700787,
                    "duration": 0.5753935000000041
                },
                {
                    "name": "F4",
                    "midi": 65,
                    "time": 89.13368400000049,
                    "velocity": 0.28346456692913385,
                    "duration": 0.6277020000000135
                },
                {
                    "name": "C5",
                    "midi": 72,
                    "time": 89.13368400000049,
                    "velocity": 0.3543307086614173,
                    "duration": 0.31385099999999966
                },
                {
                    "name": "D5",
                    "midi": 74,
                    "time": 89.44753500000049,
                    "velocity": 0.2992125984251969,
                    "duration": 0.10461700000000462
                },
                {
                    "name": "E5",
                    "midi": 76,
                    "time": 89.55215200000049,
                    "velocity": 0.33070866141732286,
                    "duration": 0.10461700000000462
                },
                {
                    "name": "D5",
                    "midi": 74,
                    "time": 89.6567690000005,
                    "velocity": 0.2992125984251969,
                    "duration": 0.10461700000000462
                },
                {
                    "name": "C5",
                    "midi": 72,
                    "time": 89.7613860000005,
                    "velocity": 0.3700787401574803,
                    "duration": 0.4184680000000043
                },
                {
                    "name": "F4",
                    "midi": 65,
                    "time": 89.7613860000005,
                    "velocity": 0.2992125984251969,
                    "duration": 0.4184680000000043
                },
                {
                    "name": "E4",
                    "midi": 64,
                    "time": 90.1798540000005,
                    "velocity": 0.33070866141732286,
                    "duration": 0.20923399999999504
                },
                {
                    "name": "G#4",
                    "midi": 68,
                    "time": 90.1798540000005,
                    "velocity": 0.33070866141732286,
                    "duration": 0.20923399999999504
                },
                {
                    "name": "C5",
                    "midi": 72,
                    "time": 90.3890880000005,
                    "velocity": 0.3779527559055118,
                    "duration": 0.6277019999999993
                },
                {
                    "name": "F4",
                    "midi": 65,
                    "time": 90.3890880000005,
                    "velocity": 0.31496062992125984,
                    "duration": 1.0461700000000036
                },
                {
                    "name": "F5",
                    "midi": 77,
                    "time": 91.0167900000005,
                    "velocity": 0.4094488188976378,
                    "duration": 0.4184680000000043
                },
                {
                    "name": "C4",
                    "midi": 60,
                    "time": 91.6444920000005,
                    "velocity": 0.31496062992125984,
                    "duration": 0.6277020000000135
                },
                {
                    "name": "C5",
                    "midi": 72,
                    "time": 91.6444920000005,
                    "velocity": 0.3937007874015748,
                    "duration": 0.31385099999999966
                },
                {
                    "name": "B4",
                    "midi": 71,
                    "time": 91.9583430000005,
                    "velocity": 0.29133858267716534,
                    "duration": 0.10461700000000462
                },
                {
                    "name": "A4",
                    "midi": 69,
                    "time": 92.0629600000005,
                    "velocity": 0.29133858267716534,
                    "duration": 0.10461700000000462
                },
                {
                    "name": "B4",
                    "midi": 71,
                    "time": 92.1675770000005,
                    "velocity": 0.29133858267716534,
                    "duration": 0.10461700000000462
                },
                {
                    "name": "D4",
                    "midi": 62,
                    "time": 92.27219400000051,
                    "velocity": 0.28346456692913385,
                    "duration": 0.6277019999999993
                },
                {
                    "name": "C5",
                    "midi": 72,
                    "time": 92.27219400000051,
                    "velocity": 0.33858267716535434,
                    "duration": 0.4184680000000043
                },
                {
                    "name": "A4",
                    "midi": 69,
                    "time": 92.69066200000051,
                    "velocity": 0.33858267716535434,
                    "duration": 0.20923399999999504
                },
                {
                    "name": "E4",
                    "midi": 64,
                    "time": 92.89989600000051,
                    "velocity": 0.31496062992125984,
                    "duration": 0.6277020000000135
                },
                {
                    "name": "C5",
                    "midi": 72,
                    "time": 92.89989600000051,
                    "velocity": 0.3937007874015748,
                    "duration": 0.31385099999999966
                },
                {
                    "name": "B4",
                    "midi": 71,
                    "time": 93.21374700000051,
                    "velocity": 0.2992125984251969,
                    "duration": 0.10461700000000462
                },
                {
                    "name": "A4",
                    "midi": 69,
                    "time": 93.31836400000051,
                    "velocity": 0.2992125984251969,
                    "duration": 0.10461700000000462
                },
                {
                    "name": "B4",
                    "midi": 71,
                    "time": 93.42298100000052,
                    "velocity": 0.2992125984251969,
                    "duration": 0.10461700000000462
                },
                {
                    "name": "D4",
                    "midi": 62,
                    "time": 93.52759800000052,
                    "velocity": 0.28346456692913385,
                    "duration": 0.5753935000000041
                },
                {
                    "name": "C5",
                    "midi": 72,
                    "time": 93.52759800000052,
                    "velocity": 0.33858267716535434,
                    "duration": 0.5753935000000041
                },
                {
                    "name": "A4",
                    "midi": 69,
                    "time": 94.15530000000052,
                    "velocity": 0.31496062992125984,
                    "duration": 0.6277020000000135
                },
                {
                    "name": "E5",
                    "midi": 76,
                    "time": 94.15530000000052,
                    "velocity": 0.3937007874015748,
                    "duration": 0.31385099999999966
                },
                {
                    "name": "F5",
                    "midi": 77,
                    "time": 94.46915100000052,
                    "velocity": 0.33070866141732286,
                    "duration": 0.10461700000000462
                },
                {
                    "name": "G5",
                    "midi": 79,
                    "time": 94.57376800000053,
                    "velocity": 0.36220472440944884,
                    "duration": 0.10461700000000462
                },
                {
                    "name": "F5",
                    "midi": 77,
                    "time": 94.67838500000053,
                    "velocity": 0.33070866141732286,
                    "duration": 0.10461700000000462
                },
                {
                    "name": "E5",
                    "midi": 76,
                    "time": 94.78300200000054,
                    "velocity": 0.4015748031496063,
                    "duration": 0.4184680000000043
                },
                {
                    "name": "A4",
                    "midi": 69,
                    "time": 94.78300200000054,
                    "velocity": 0.3228346456692913,
                    "duration": 0.4184680000000043
                },
                {
                    "name": "G#4",
                    "midi": 68,
                    "time": 95.20147000000054,
                    "velocity": 0.3543307086614173,
                    "duration": 0.20923399999999504
                },
                {
                    "name": "C5",
                    "midi": 72,
                    "time": 95.20147000000054,
                    "velocity": 0.3543307086614173,
                    "duration": 0.20923399999999504
                },
                {
                    "name": "E5",
                    "midi": 76,
                    "time": 95.41070400000054,
                    "velocity": 0.4015748031496063,
                    "duration": 0.6277019999999993
                },
                {
                    "name": "A4",
                    "midi": 69,
                    "time": 95.41070400000054,
                    "velocity": 0.33070866141732286,
                    "duration": 0.8369359999999944
                },
                {
                    "name": "A5",
                    "midi": 81,
                    "time": 96.03840600000053,
                    "velocity": 0.41732283464566927,
                    "duration": 1.0461699999999894
                },
                {
                    "name": "G#4",
                    "midi": 68,
                    "time": 96.24764000000053,
                    "velocity": 0.44881889763779526,
                    "duration": 0.20923399999999504
                },
                {
                    "name": "G4",
                    "midi": 67,
                    "time": 96.45687400000052,
                    "velocity": 0.48031496062992124,
                    "duration": 0.20923399999999504
                },
                {
                    "name": "F#4",
                    "midi": 66,
                    "time": 96.66610800000052,
                    "velocity": 0.5511811023622047,
                    "duration": 1.2554039999999844
                },
                {
                    "name": "F#5",
                    "midi": 78,
                    "time": 97.08457600000052,
                    "velocity": 0.41732283464566927,
                    "duration": 0.20923399999999504
                },
                {
                    "name": "D5",
                    "midi": 74,
                    "time": 97.29381000000052,
                    "velocity": 0.41732283464566927,
                    "duration": 0.20923399999999504
                },
                {
                    "name": "D#5",
                    "midi": 75,
                    "time": 97.50304400000051,
                    "velocity": 0.41732283464566927,
                    "duration": 0.20923399999999504
                },
                {
                    "name": "E5",
                    "midi": 76,
                    "time": 97.71227800000051,
                    "velocity": 0.41732283464566927,
                    "duration": 0.20923399999999504
                },
                {
                    "name": "F4",
                    "midi": 65,
                    "time": 97.9215120000005,
                    "velocity": 0.33070866141732286,
                    "duration": 1.0461700000000036
                },
                {
                    "name": "F5",
                    "midi": 77,
                    "time": 97.9215120000005,
                    "velocity": 0.41732283464566927,
                    "duration": 0.4184680000000043
                },
                {
                    "name": "D5",
                    "midi": 74,
                    "time": 98.33998000000051,
                    "velocity": 0.3937007874015748,
                    "duration": 0.20923399999999504
                },
                {
                    "name": "B4",
                    "midi": 71,
                    "time": 98.5492140000005,
                    "velocity": 0.3858267716535433,
                    "duration": 0.4184680000000043
                },
                {
                    "name": "F#4",
                    "midi": 66,
                    "time": 99.1769160000005,
                    "velocity": 0.5039370078740157,
                    "duration": 1.2554039999999702
                },
                {
                    "name": "A5",
                    "midi": 81,
                    "time": 99.3861500000005,
                    "velocity": 0.41732283464566927,
                    "duration": 0.20923399999999504
                },
                {
                    "name": "F#5",
                    "midi": 78,
                    "time": 99.5953840000005,
                    "velocity": 0.3700787401574803,
                    "duration": 0.20923399999999504
                },
                {
                    "name": "D5",
                    "midi": 74,
                    "time": 99.80461800000049,
                    "velocity": 0.3858267716535433,
                    "duration": 0.20923399999999504
                },
                {
                    "name": "D#5",
                    "midi": 75,
                    "time": 100.01385200000048,
                    "velocity": 0.41732283464566927,
                    "duration": 0.20923399999999504
                },
                {
                    "name": "E5",
                    "midi": 76,
                    "time": 100.22308600000048,
                    "velocity": 0.4251968503937008,
                    "duration": 0.41846799999999007
                },
                {
                    "name": "F4",
                    "midi": 65,
                    "time": 100.43232000000047,
                    "velocity": 0.33070866141732286,
                    "duration": 1.1769412499999845
                },
                {
                    "name": "F5",
                    "midi": 77,
                    "time": 100.64155400000047,
                    "velocity": 0.4881889763779528,
                    "duration": 0.20923399999999504
                },
                {
                    "name": "D5",
                    "midi": 74,
                    "time": 100.85078800000046,
                    "velocity": 0.41732283464566927,
                    "duration": 0.20923399999999504
                },
                {
                    "name": "B4",
                    "midi": 71,
                    "time": 101.06002200000046,
                    "velocity": 0.4409448818897638,
                    "duration": 0.5492392499999994
                },
                {
                    "name": "D5",
                    "midi": 74,
                    "time": 101.68772400000046,
                    "velocity": 0.44881889763779526,
                    "duration": 1.2554039999999844
                },
                {
                    "name": "D6",
                    "midi": 86,
                    "time": 101.68772400000046,
                    "velocity": 0.6299212598425197,
                    "duration": 0.4184680000000043
                },
                {
                    "name": "A#5",
                    "midi": 82,
                    "time": 102.10619200000046,
                    "velocity": 0.4881889763779528,
                    "duration": 0.20923399999999504
                },
                {
                    "name": "F#5",
                    "midi": 78,
                    "time": 102.31542600000046,
                    "velocity": 0.41732283464566927,
                    "duration": 0.20923399999999504
                },
                {
                    "name": "G5",
                    "midi": 79,
                    "time": 102.52466000000045,
                    "velocity": 0.47244094488188976,
                    "duration": 0.20923399999999504
                },
                {
                    "name": "A5",
                    "midi": 81,
                    "time": 102.73389400000045,
                    "velocity": 0.49606299212598426,
                    "duration": 0.20923399999999504
                },
                {
                    "name": "A#5",
                    "midi": 82,
                    "time": 102.94312800000044,
                    "velocity": 0.5590551181102362,
                    "duration": 0.4184680000000043
                },
                {
                    "name": "A#4",
                    "midi": 70,
                    "time": 102.94312800000044,
                    "velocity": 0.47244094488188976,
                    "duration": 1.2554039999999986
                },
                {
                    "name": "G5",
                    "midi": 79,
                    "time": 103.36159600000045,
                    "velocity": 0.44881889763779526,
                    "duration": 0.20923399999999504
                },
                {
                    "name": "E5",
                    "midi": 76,
                    "time": 103.57083000000044,
                    "velocity": 0.41732283464566927,
                    "duration": 0.6277019999999993
                },
                {
                    "name": "D5",
                    "midi": 74,
                    "time": 104.19853200000044,
                    "velocity": 0.5354330708661418,
                    "duration": 1.2554039999999702
                },
                {
                    "name": "D6",
                    "midi": 86,
                    "time": 104.40776600000044,
                    "velocity": 0.5511811023622047,
                    "duration": 0.20923399999999504
                },
                {
                    "name": "A#5",
                    "midi": 82,
                    "time": 104.61700000000043,
                    "velocity": 0.4881889763779528,
                    "duration": 0.20923399999999504
                },
                {
                    "name": "F#5",
                    "midi": 78,
                    "time": 104.82623400000043,
                    "velocity": 0.41732283464566927,
                    "duration": 0.20923399999999504
                },
                {
                    "name": "G5",
                    "midi": 79,
                    "time": 105.03546800000042,
                    "velocity": 0.47244094488188976,
                    "duration": 0.20923399999999504
                },
                {
                    "name": "A5",
                    "midi": 81,
                    "time": 105.24470200000042,
                    "velocity": 0.49606299212598426,
                    "duration": 0.41846799999999007
                },
                {
                    "name": "A#4",
                    "midi": 70,
                    "time": 105.45393600000041,
                    "velocity": 0.4645669291338583,
                    "duration": 1.2554039999999702
                },
                {
                    "name": "A#5",
                    "midi": 82,
                    "time": 105.6631700000004,
                    "velocity": 0.4881889763779528,
                    "duration": 0.20923399999999504
                },
                {
                    "name": "G5",
                    "midi": 79,
                    "time": 105.8724040000004,
                    "velocity": 0.44881889763779526,
                    "duration": 0.20923399999999504
                },
                {
                    "name": "C#5",
                    "midi": 73,
                    "time": 106.0816380000004,
                    "velocity": 0.4409448818897638,
                    "duration": 0.20923399999999504
                },
                {
                    "name": "D5",
                    "midi": 74,
                    "time": 106.29087200000039,
                    "velocity": 0.4566929133858268,
                    "duration": 0.20923399999999504
                },
                {
                    "name": "E5",
                    "midi": 76,
                    "time": 106.50010600000039,
                    "velocity": 0.49606299212598426,
                    "duration": 0.41846799999999007
                },
                {
                    "name": "F5",
                    "midi": 77,
                    "time": 106.91857400000038,
                    "velocity": 0.4566929133858268,
                    "duration": 0.20923399999999504
                },
                {
                    "name": "D5",
                    "midi": 74,
                    "time": 107.12780800000037,
                    "velocity": 0.41732283464566927,
                    "duration": 0.20923399999999504
                },
                {
                    "name": "F#4",
                    "midi": 66,
                    "time": 107.33704200000037,
                    "velocity": 0.3700787401574803,
                    "duration": 0.20923399999999504
                },
                {
                    "name": "G4",
                    "midi": 67,
                    "time": 107.54627600000036,
                    "velocity": 0.33858267716535434,
                    "duration": 0.20923399999999504
                },
                {
                    "name": "A4",
                    "midi": 69,
                    "time": 107.75551000000036,
                    "velocity": 0.3464566929133858,
                    "duration": 0.20923399999999504
                },
                {
                    "name": "A#4",
                    "midi": 70,
                    "time": 107.96474400000035,
                    "velocity": 0.36220472440944884,
                    "duration": 0.20923399999999504
                },
                {
                    "name": "C#5",
                    "midi": 73,
                    "time": 108.17397800000035,
                    "velocity": 0.33070866141732286,
                    "duration": 0.20923399999999504
                },
                {
                    "name": "D5",
                    "midi": 74,
                    "time": 108.38321200000034,
                    "velocity": 0.30708661417322836,
                    "duration": 0.20923399999999504
                },
                {
                    "name": "F#5",
                    "midi": 78,
                    "time": 108.59244600000034,
                    "velocity": 0.2440944881889764,
                    "duration": 0.20923399999999504
                },
                {
                    "name": "A#4",
                    "midi": 70,
                    "time": 108.80168000000033,
                    "velocity": 0.1968503937007874,
                    "duration": 0.052308499999995206
                },
                {
                    "name": "D5",
                    "midi": 74,
                    "time": 108.80168000000033,
                    "velocity": 0.1968503937007874,
                    "duration": 0.052308499999995206
                },
                {
                    "name": "G5",
                    "midi": 79,
                    "time": 108.80168000000033,
                    "velocity": 0.25196850393700787,
                    "duration": 0.052308499999995206
                },
                {
                    "name": "D5",
                    "midi": 74,
                    "time": 109.01091400000033,
                    "velocity": 0.2047244094488189,
                    "duration": 0.052308499999995206
                },
                {
                    "name": "G5",
                    "midi": 79,
                    "time": 109.01091400000033,
                    "velocity": 0.2047244094488189,
                    "duration": 0.052308499999995206
                },
                {
                    "name": "A#5",
                    "midi": 82,
                    "time": 109.01091400000033,
                    "velocity": 0.25984251968503935,
                    "duration": 0.052308499999995206
                },
                {
                    "name": "D6",
                    "midi": 86,
                    "time": 109.22014800000032,
                    "velocity": 0.31496062992125984,
                    "duration": 0.052308499999995206
                },
                {
                    "name": "A#5",
                    "midi": 82,
                    "time": 109.22014800000032,
                    "velocity": 0.25196850393700787,
                    "duration": 0.052308499999995206
                },
                {
                    "name": "G5",
                    "midi": 79,
                    "time": 109.22014800000032,
                    "velocity": 0.25196850393700787,
                    "duration": 0.052308499999995206
                },
                {
                    "name": "A#3",
                    "midi": 58,
                    "time": 110.47555200000032,
                    "velocity": 0.28346456692913385,
                    "duration": 1.2554039999999986
                },
                {
                    "name": "E4",
                    "midi": 64,
                    "time": 110.47555200000032,
                    "velocity": 0.28346456692913385,
                    "duration": 1.2554039999999986
                },
                {
                    "name": "A4",
                    "midi": 69,
                    "time": 110.47555200000032,
                    "velocity": 0.31496062992125984,
                    "duration": 1.2554039999999986
                },
                {
                    "name": "A3",
                    "midi": 57,
                    "time": 111.73095600000032,
                    "velocity": 0.25196850393700787,
                    "duration": 0.6277020000000135
                },
                {
                    "name": "F4",
                    "midi": 65,
                    "time": 111.73095600000032,
                    "velocity": 0.31496062992125984,
                    "duration": 0.31385099999999966
                },
                {
                    "name": "E4",
                    "midi": 64,
                    "time": 112.04480700000032,
                    "velocity": 0.23622047244094488,
                    "duration": 0.10461700000000462
                },
                {
                    "name": "F4",
                    "midi": 65,
                    "time": 112.14942400000032,
                    "velocity": 0.23622047244094488,
                    "duration": 0.10461700000000462
                },
                {
                    "name": "G4",
                    "midi": 67,
                    "time": 112.25404100000033,
                    "velocity": 0.23622047244094488,
                    "duration": 0.10461700000000462
                },
                {
                    "name": "A#3",
                    "midi": 58,
                    "time": 112.35865800000033,
                    "velocity": 0.23622047244094488,
                    "duration": 0.6277019999999993
                },
                {
                    "name": "E4",
                    "midi": 64,
                    "time": 112.35865800000033,
                    "velocity": 0.2992125984251969,
                    "duration": 0.6277019999999993
                },
                {
                    "name": "A4",
                    "midi": 69,
                    "time": 112.35865800000033,
                    "velocity": 0.2677165354330709,
                    "duration": 0.6277019999999993
                },
                {
                    "name": "F4",
                    "midi": 65,
                    "time": 112.98636000000033,
                    "velocity": 0.31496062992125984,
                    "duration": 0.31385099999999966
                },
                {
                    "name": "E4",
                    "midi": 64,
                    "time": 113.30021100000033,
                    "velocity": 0.23622047244094488,
                    "duration": 0.10461700000000462
                },
                {
                    "name": "F4",
                    "midi": 65,
                    "time": 113.40482800000034,
                    "velocity": 0.23622047244094488,
                    "duration": 0.10461700000000462
                },
                {
                    "name": "G4",
                    "midi": 67,
                    "time": 113.50944500000034,
                    "velocity": 0.23622047244094488,
                    "duration": 0.10461700000000462
                },
                {
                    "name": "E4",
                    "midi": 64,
                    "time": 113.61406200000035,
                    "velocity": 0.2992125984251969,
                    "duration": 0.6277019999999993
                },
                {
                    "name": "A#3",
                    "midi": 58,
                    "time": 113.61406200000035,
                    "velocity": 0.23622047244094488,
                    "duration": 0.6277019999999993
                },
                {
                    "name": "A4",
                    "midi": 69,
                    "time": 113.61406200000035,
                    "velocity": 0.2677165354330709,
                    "duration": 0.6277019999999993
                },
                {
                    "name": "F4",
                    "midi": 65,
                    "time": 114.24176400000034,
                    "velocity": 0.2283464566929134,
                    "duration": 0.20923399999999504
                },
                {
                    "name": "A3",
                    "midi": 57,
                    "time": 114.24176400000034,
                    "velocity": 0.1889763779527559,
                    "duration": 0.20923399999999504
                },
                {
                    "name": "A4",
                    "midi": 69,
                    "time": 114.86946600000034,
                    "velocity": 0.1732283464566929,
                    "duration": 0.21359304166665538
                },
                {
                    "name": "F5",
                    "midi": 77,
                    "time": 114.86946600000034,
                    "velocity": 0.2125984251968504,
                    "duration": 0.20923399999999504
                },
                {
                    "name": "F6",
                    "midi": 89,
                    "time": 115.49716800000033,
                    "velocity": 0.2204724409448819,
                    "duration": 1.0461700000000036
                },
                {
                    "name": "A5",
                    "midi": 81,
                    "time": 115.49716800000033,
                    "velocity": 0.18110236220472442,
                    "duration": 1.0461700000000036
                },
                {
                    "name": "D4",
                    "midi": 62,
                    "time": 116.75257200000033,
                    "velocity": 0.2677165354330709,
                    "duration": 1.0461700000000178
                },
                {
                    "name": "G4",
                    "midi": 67,
                    "time": 116.75257200000033,
                    "velocity": 0.33070866141732286,
                    "duration": 0.31385099999999966
                },
                {
                    "name": "F#4",
                    "midi": 66,
                    "time": 117.06642300000033,
                    "velocity": 0.2440944881889764,
                    "duration": 0.10461700000000462
                },
                {
                    "name": "G4",
                    "midi": 67,
                    "time": 117.17104000000033,
                    "velocity": 0.2440944881889764,
                    "duration": 0.10461700000000462
                },
                {
                    "name": "A4",
                    "midi": 69,
                    "time": 117.27565700000034,
                    "velocity": 0.2440944881889764,
                    "duration": 0.10461700000000462
                },
                {
                    "name": "A#4",
                    "midi": 70,
                    "time": 117.38027400000034,
                    "velocity": 0.28346456692913385,
                    "duration": 0.941552999999999
                },
                {
                    "name": "E4",
                    "midi": 64,
                    "time": 117.79874200000035,
                    "velocity": 0.28346456692913385,
                    "duration": 0.20923399999999504
                },
                {
                    "name": "F4",
                    "midi": 65,
                    "time": 118.00797600000034,
                    "velocity": 0.2677165354330709,
                    "duration": 1.0461700000000178
                },
                {
                    "name": "A4",
                    "midi": 69,
                    "time": 118.32182700000034,
                    "velocity": 0.28346456692913385,
                    "duration": 0.10461700000000462
                },
                {
                    "name": "A#4",
                    "midi": 70,
                    "time": 118.42644400000034,
                    "velocity": 0.2992125984251969,
                    "duration": 0.10461700000000462
                },
                {
                    "name": "C5",
                    "midi": 72,
                    "time": 118.53106100000035,
                    "velocity": 0.31496062992125984,
                    "duration": 0.10461700000000462
                },
                {
                    "name": "D5",
                    "midi": 74,
                    "time": 118.63567800000035,
                    "velocity": 0.3464566929133858,
                    "duration": 0.941552999999999
                },
                {
                    "name": "F#4",
                    "midi": 66,
                    "time": 119.05414600000036,
                    "velocity": 0.33070866141732286,
                    "duration": 0.20923399999999504
                },
                {
                    "name": "G4",
                    "midi": 67,
                    "time": 119.47261400000035,
                    "velocity": 0.3779527559055118,
                    "duration": 0.10461700000000462
                },
                {
                    "name": "C#5",
                    "midi": 73,
                    "time": 119.57723100000035,
                    "velocity": 0.33070866141732286,
                    "duration": 0.10461700000000462
                },
                {
                    "name": "A#4",
                    "midi": 70,
                    "time": 119.57723100000035,
                    "velocity": 0.33070866141732286,
                    "duration": 0.10461700000000462
                },
                {
                    "name": "G4",
                    "midi": 67,
                    "time": 119.68184800000036,
                    "velocity": 0.36220472440944884,
                    "duration": 0.10461700000000462
                },
                {
                    "name": "A#4",
                    "midi": 70,
                    "time": 119.78646500000036,
                    "velocity": 0.33070866141732286,
                    "duration": 0.10461700000000462
                },
                {
                    "name": "D5",
                    "midi": 74,
                    "time": 119.78646500000036,
                    "velocity": 0.33070866141732286,
                    "duration": 0.10461700000000462
                },
                {
                    "name": "A#4",
                    "midi": 70,
                    "time": 119.89108200000037,
                    "velocity": 0.3700787401574803,
                    "duration": 0.07846274999999991
                },
                {
                    "name": "D5",
                    "midi": 74,
                    "time": 119.99569900000037,
                    "velocity": 0.3228346456692913,
                    "duration": 0.07846274999999991
                },
                {
                    "name": "F#5",
                    "midi": 78,
                    "time": 119.99569900000037,
                    "velocity": 0.3228346456692913,
                    "duration": 0.07846274999999991
                },
                {
                    "name": "A#4",
                    "midi": 70,
                    "time": 120.10031600000038,
                    "velocity": 0.3543307086614173,
                    "duration": 0.07846274999999991
                },
                {
                    "name": "G5",
                    "midi": 79,
                    "time": 120.20493300000038,
                    "velocity": 0.30708661417322836,
                    "duration": 0.07846274999999991
                },
                {
                    "name": "D5",
                    "midi": 74,
                    "time": 120.20493300000038,
                    "velocity": 0.30708661417322836,
                    "duration": 0.07846274999999991
                },
                {
                    "name": "D5",
                    "midi": 74,
                    "time": 120.30955000000039,
                    "velocity": 0.33858267716535434,
                    "duration": 0.07846274999999991
                },
                {
                    "name": "A5",
                    "midi": 81,
                    "time": 120.41416700000039,
                    "velocity": 0.29133858267716534,
                    "duration": 0.07846274999999991
                },
                {
                    "name": "G5",
                    "midi": 79,
                    "time": 120.41416700000039,
                    "velocity": 0.29133858267716534,
                    "duration": 0.07846274999999991
                },
                {
                    "name": "D5",
                    "midi": 74,
                    "time": 120.5187840000004,
                    "velocity": 0.33858267716535434,
                    "duration": 0.07846274999999991
                },
                {
                    "name": "A#5",
                    "midi": 82,
                    "time": 120.6234010000004,
                    "velocity": 0.28346456692913385,
                    "duration": 0.07846274999999991
                },
                {
                    "name": "G5",
                    "midi": 79,
                    "time": 120.6234010000004,
                    "velocity": 0.28346456692913385,
                    "duration": 0.07846274999999991
                },
                {
                    "name": "G5",
                    "midi": 79,
                    "time": 120.7280180000004,
                    "velocity": 0.3228346456692913,
                    "duration": 0.07846274999999991
                },
                {
                    "name": "C#6",
                    "midi": 85,
                    "time": 120.83263500000041,
                    "velocity": 0.2677165354330709,
                    "duration": 0.07846274999999991
                },
                {
                    "name": "A#5",
                    "midi": 82,
                    "time": 120.83263500000041,
                    "velocity": 0.2677165354330709,
                    "duration": 0.07846274999999991
                },
                {
                    "name": "G5",
                    "midi": 79,
                    "time": 120.93725200000041,
                    "velocity": 0.2992125984251969,
                    "duration": 0.07846274999999991
                },
                {
                    "name": "D6",
                    "midi": 86,
                    "time": 121.04186900000042,
                    "velocity": 0.25984251968503935,
                    "duration": 0.07846274999999991
                },
                {
                    "name": "A#5",
                    "midi": 82,
                    "time": 121.04186900000042,
                    "velocity": 0.25984251968503935,
                    "duration": 0.07846274999999991
                },
                {
                    "name": "G6",
                    "midi": 91,
                    "time": 121.14648600000042,
                    "velocity": 0.3779527559055118,
                    "duration": 0.10461700000000462
                },
                {
                    "name": "G4",
                    "midi": 67,
                    "time": 121.77418800000042,
                    "velocity": 0.29133858267716534,
                    "duration": 1.0461700000000178
                },
                {
                    "name": "C5",
                    "midi": 72,
                    "time": 121.77418800000042,
                    "velocity": 0.36220472440944884,
                    "duration": 0.31385099999999966
                },
                {
                    "name": "B4",
                    "midi": 71,
                    "time": 122.08803900000042,
                    "velocity": 0.2677165354330709,
                    "duration": 0.10461700000000462
                },
                {
                    "name": "C5",
                    "midi": 72,
                    "time": 122.19265600000043,
                    "velocity": 0.2755905511811024,
                    "duration": 0.10461700000000462
                },
                {
                    "name": "D5",
                    "midi": 74,
                    "time": 122.29727300000043,
                    "velocity": 0.2755905511811024,
                    "duration": 0.10461700000000462
                },
                {
                    "name": "D#5",
                    "midi": 75,
                    "time": 122.40189000000044,
                    "velocity": 0.3228346456692913,
                    "duration": 0.941552999999999
                },
                {
                    "name": "A4",
                    "midi": 69,
                    "time": 122.82035800000044,
                    "velocity": 0.33070866141732286,
                    "duration": 0.20923399999999504
                },
                {
                    "name": "A#4",
                    "midi": 70,
                    "time": 123.02959200000043,
                    "velocity": 0.3228346456692913,
                    "duration": 1.0461700000000178
                },
                {
                    "name": "D5",
                    "midi": 74,
                    "time": 123.34344300000043,
                    "velocity": 0.3464566929133858,
                    "duration": 0.10461700000000462
                },
                {
                    "name": "D#5",
                    "midi": 75,
                    "time": 123.44806000000044,
                    "velocity": 0.3700787401574803,
                    "duration": 0.10461700000000462
                },
                {
                    "name": "F5",
                    "midi": 77,
                    "time": 123.55267700000044,
                    "velocity": 0.3937007874015748,
                    "duration": 0.10461700000000462
                },
                {
                    "name": "G5",
                    "midi": 79,
                    "time": 123.65729400000045,
                    "velocity": 0.4330708661417323,
                    "duration": 0.941552999999999
                },
                {
                    "name": "B4",
                    "midi": 71,
                    "time": 124.07576200000045,
                    "velocity": 0.33070866141732286,
                    "duration": 0.20923399999999504
                },
                {
                    "name": "C5",
                    "midi": 72,
                    "time": 124.49423000000044,
                    "velocity": 0.3779527559055118,
                    "duration": 0.10461700000000462
                },
                {
                    "name": "F#5",
                    "midi": 78,
                    "time": 124.59884700000045,
                    "velocity": 0.33070866141732286,
                    "duration": 0.10461700000000462
                },
                {
                    "name": "D#5",
                    "midi": 75,
                    "time": 124.59884700000045,
                    "velocity": 0.33070866141732286,
                    "duration": 0.10461700000000462
                },
                {
                    "name": "C5",
                    "midi": 72,
                    "time": 124.70346400000045,
                    "velocity": 0.36220472440944884,
                    "duration": 0.10461700000000462
                },
                {
                    "name": "D#5",
                    "midi": 75,
                    "time": 124.80808100000046,
                    "velocity": 0.33070866141732286,
                    "duration": 0.10461700000000462
                },
                {
                    "name": "G5",
                    "midi": 79,
                    "time": 124.80808100000046,
                    "velocity": 0.33070866141732286,
                    "duration": 0.10461700000000462
                },
                {
                    "name": "D#5",
                    "midi": 75,
                    "time": 124.91269800000046,
                    "velocity": 0.3700787401574803,
                    "duration": 0.07846274999999991
                },
                {
                    "name": "G5",
                    "midi": 79,
                    "time": 125.01731500000047,
                    "velocity": 0.3228346456692913,
                    "duration": 0.07846274999999991
                },
                {
                    "name": "B5",
                    "midi": 83,
                    "time": 125.01731500000047,
                    "velocity": 0.3228346456692913,
                    "duration": 0.07846274999999991
                },
                {
                    "name": "D#5",
                    "midi": 75,
                    "time": 125.12193200000047,
                    "velocity": 0.3543307086614173,
                    "duration": 0.07846274999999991
                },
                {
                    "name": "C6",
                    "midi": 84,
                    "time": 125.22654900000047,
                    "velocity": 0.30708661417322836,
                    "duration": 0.07846274999999991
                },
                {
                    "name": "G5",
                    "midi": 79,
                    "time": 125.22654900000047,
                    "velocity": 0.30708661417322836,
                    "duration": 0.07846274999999991
                },
                {
                    "name": "G5",
                    "midi": 79,
                    "time": 125.33116600000048,
                    "velocity": 0.33858267716535434,
                    "duration": 0.07846274999999991
                },
                {
                    "name": "D6",
                    "midi": 86,
                    "time": 125.43578300000048,
                    "velocity": 0.29133858267716534,
                    "duration": 0.07846274999999991
                },
                {
                    "name": "C6",
                    "midi": 84,
                    "time": 125.43578300000048,
                    "velocity": 0.29133858267716534,
                    "duration": 0.07846274999999991
                },
                {
                    "name": "G5",
                    "midi": 79,
                    "time": 125.54040000000049,
                    "velocity": 0.33858267716535434,
                    "duration": 0.07846274999999991
                },
                {
                    "name": "D#6",
                    "midi": 87,
                    "time": 125.6450170000005,
                    "velocity": 0.28346456692913385,
                    "duration": 0.07846274999999991
                },
                {
                    "name": "C6",
                    "midi": 84,
                    "time": 125.6450170000005,
                    "velocity": 0.28346456692913385,
                    "duration": 0.07846274999999991
                },
                {
                    "name": "C6",
                    "midi": 84,
                    "time": 125.7496340000005,
                    "velocity": 0.3228346456692913,
                    "duration": 0.07846274999999991
                },
                {
                    "name": "F#6",
                    "midi": 90,
                    "time": 125.8542510000005,
                    "velocity": 0.2677165354330709,
                    "duration": 0.07846274999999991
                },
                {
                    "name": "D#6",
                    "midi": 87,
                    "time": 125.8542510000005,
                    "velocity": 0.2677165354330709,
                    "duration": 0.07846274999999991
                },
                {
                    "name": "C6",
                    "midi": 84,
                    "time": 125.9588680000005,
                    "velocity": 0.2992125984251969,
                    "duration": 0.07846274999999991
                },
                {
                    "name": "G6",
                    "midi": 91,
                    "time": 126.06348500000051,
                    "velocity": 0.25984251968503935,
                    "duration": 0.07846274999999991
                },
                {
                    "name": "D#6",
                    "midi": 87,
                    "time": 126.06348500000051,
                    "velocity": 0.25984251968503935,
                    "duration": 0.07846274999999991
                },
                {
                    "name": "C7",
                    "midi": 96,
                    "time": 126.16810200000052,
                    "velocity": 0.3779527559055118,
                    "duration": 0.10461700000000462
                },
                {
                    "name": "A#5",
                    "midi": 82,
                    "time": 126.90042100000052,
                    "velocity": 0.2440944881889764,
                    "duration": 0.10461700000000462
                },
                {
                    "name": "D6",
                    "midi": 86,
                    "time": 126.90042100000052,
                    "velocity": 0.2440944881889764,
                    "duration": 0.10461700000000462
                },
                {
                    "name": "E6",
                    "midi": 88,
                    "time": 127.00503800000052,
                    "velocity": 0.2755905511811024,
                    "duration": 0.10461700000000462
                },
                {
                    "name": "A#5",
                    "midi": 82,
                    "time": 127.10965500000053,
                    "velocity": 0.23622047244094488,
                    "duration": 0.10461700000000462
                },
                {
                    "name": "D6",
                    "midi": 86,
                    "time": 127.10965500000053,
                    "velocity": 0.23622047244094488,
                    "duration": 0.10461700000000462
                },
                {
                    "name": "F6",
                    "midi": 89,
                    "time": 127.21427200000053,
                    "velocity": 0.2755905511811024,
                    "duration": 0.10461700000000462
                },
                {
                    "name": "D6",
                    "midi": 86,
                    "time": 127.31888900000054,
                    "velocity": 0.2440944881889764,
                    "duration": 0.10461700000000462
                },
                {
                    "name": "A#5",
                    "midi": 82,
                    "time": 127.31888900000054,
                    "velocity": 0.2440944881889764,
                    "duration": 0.10461700000000462
                },
                {
                    "name": "D6",
                    "midi": 86,
                    "time": 127.52812300000055,
                    "velocity": 0.23622047244094488,
                    "duration": 0.10461700000000462
                },
                {
                    "name": "A#5",
                    "midi": 82,
                    "time": 127.52812300000055,
                    "velocity": 0.23622047244094488,
                    "duration": 0.10461700000000462
                },
                {
                    "name": "E6",
                    "midi": 88,
                    "time": 127.63274000000055,
                    "velocity": 0.2755905511811024,
                    "duration": 0.10461700000000462
                },
                {
                    "name": "D6",
                    "midi": 86,
                    "time": 127.73735700000056,
                    "velocity": 0.25196850393700787,
                    "duration": 0.10461700000000462
                },
                {
                    "name": "A#5",
                    "midi": 82,
                    "time": 127.73735700000056,
                    "velocity": 0.25196850393700787,
                    "duration": 0.10461700000000462
                },
                {
                    "name": "F6",
                    "midi": 89,
                    "time": 127.84197400000056,
                    "velocity": 0.2755905511811024,
                    "duration": 0.10461700000000462
                },
                {
                    "name": "A#5",
                    "midi": 82,
                    "time": 127.94659100000057,
                    "velocity": 0.2440944881889764,
                    "duration": 0.10461700000000462
                },
                {
                    "name": "D6",
                    "midi": 86,
                    "time": 127.94659100000057,
                    "velocity": 0.2440944881889764,
                    "duration": 0.10461700000000462
                },
                {
                    "name": "A#5",
                    "midi": 82,
                    "time": 128.15582500000056,
                    "velocity": 0.2677165354330709,
                    "duration": 0.10461699999999041
                },
                {
                    "name": "D6",
                    "midi": 86,
                    "time": 128.15582500000056,
                    "velocity": 0.2677165354330709,
                    "duration": 0.10461699999999041
                },
                {
                    "name": "E6",
                    "midi": 88,
                    "time": 128.26044200000055,
                    "velocity": 0.30708661417322836,
                    "duration": 0.10461699999999041
                },
                {
                    "name": "A#5",
                    "midi": 82,
                    "time": 128.36505900000054,
                    "velocity": 0.2677165354330709,
                    "duration": 0.10461699999999041
                },
                {
                    "name": "D6",
                    "midi": 86,
                    "time": 128.36505900000054,
                    "velocity": 0.2677165354330709,
                    "duration": 0.10461699999999041
                },
                {
                    "name": "F6",
                    "midi": 89,
                    "time": 128.46967600000053,
                    "velocity": 0.3228346456692913,
                    "duration": 0.10461699999999041
                },
                {
                    "name": "D6",
                    "midi": 86,
                    "time": 128.57429300000052,
                    "velocity": 0.29133858267716534,
                    "duration": 0.10461699999999041
                },
                {
                    "name": "A#5",
                    "midi": 82,
                    "time": 128.57429300000052,
                    "velocity": 0.29133858267716534,
                    "duration": 0.10461699999999041
                },
                {
                    "name": "D6",
                    "midi": 86,
                    "time": 128.7835270000005,
                    "velocity": 0.29133858267716534,
                    "duration": 0.10461699999999041
                },
                {
                    "name": "A#5",
                    "midi": 82,
                    "time": 128.7835270000005,
                    "velocity": 0.29133858267716534,
                    "duration": 0.10461699999999041
                },
                {
                    "name": "E6",
                    "midi": 88,
                    "time": 128.8881440000005,
                    "velocity": 0.3543307086614173,
                    "duration": 0.10461699999999041
                },
                {
                    "name": "D6",
                    "midi": 86,
                    "time": 128.99276100000048,
                    "velocity": 0.3228346456692913,
                    "duration": 0.10461699999999041
                },
                {
                    "name": "A#5",
                    "midi": 82,
                    "time": 128.99276100000048,
                    "velocity": 0.3228346456692913,
                    "duration": 0.10461699999999041
                },
                {
                    "name": "F6",
                    "midi": 89,
                    "time": 129.09737800000048,
                    "velocity": 0.36220472440944884,
                    "duration": 0.10461699999999041
                },
                {
                    "name": "A#5",
                    "midi": 82,
                    "time": 129.20199500000047,
                    "velocity": 0.33070866141732286,
                    "duration": 0.10461699999999041
                },
                {
                    "name": "D6",
                    "midi": 86,
                    "time": 129.20199500000047,
                    "velocity": 0.33070866141732286,
                    "duration": 0.10461699999999041
                },
                {
                    "name": "B5",
                    "midi": 83,
                    "time": 129.41122900000045,
                    "velocity": 0.33070866141732286,
                    "duration": 0.10461699999999041
                },
                {
                    "name": "D6",
                    "midi": 86,
                    "time": 129.41122900000045,
                    "velocity": 0.33070866141732286,
                    "duration": 0.10461699999999041
                },
                {
                    "name": "E6",
                    "midi": 88,
                    "time": 129.51584600000044,
                    "velocity": 0.3700787401574803,
                    "duration": 0.10461699999999041
                },
                {
                    "name": "B5",
                    "midi": 83,
                    "time": 129.62046300000043,
                    "velocity": 0.30708661417322836,
                    "duration": 0.10461699999999041
                },
                {
                    "name": "D6",
                    "midi": 86,
                    "time": 129.62046300000043,
                    "velocity": 0.30708661417322836,
                    "duration": 0.10461699999999041
                },
                {
                    "name": "F6",
                    "midi": 89,
                    "time": 129.72508000000042,
                    "velocity": 0.3543307086614173,
                    "duration": 0.10461699999999041
                },
                {
                    "name": "D6",
                    "midi": 86,
                    "time": 129.8296970000004,
                    "velocity": 0.30708661417322836,
                    "duration": 0.10461699999999041
                },
                {
                    "name": "B5",
                    "midi": 83,
                    "time": 129.8296970000004,
                    "velocity": 0.30708661417322836,
                    "duration": 0.10461699999999041
                },
                {
                    "name": "D6",
                    "midi": 86,
                    "time": 130.0389310000004,
                    "velocity": 0.28346456692913385,
                    "duration": 0.10461699999999041
                },
                {
                    "name": "B5",
                    "midi": 83,
                    "time": 130.0389310000004,
                    "velocity": 0.28346456692913385,
                    "duration": 0.10461699999999041
                },
                {
                    "name": "E6",
                    "midi": 88,
                    "time": 130.14354800000038,
                    "velocity": 0.33070866141732286,
                    "duration": 0.10461699999999041
                },
                {
                    "name": "D6",
                    "midi": 86,
                    "time": 130.24816500000037,
                    "velocity": 0.29133858267716534,
                    "duration": 0.10461699999999041
                },
                {
                    "name": "B5",
                    "midi": 83,
                    "time": 130.24816500000037,
                    "velocity": 0.29133858267716534,
                    "duration": 0.10461699999999041
                },
                {
                    "name": "F6",
                    "midi": 89,
                    "time": 130.35278200000036,
                    "velocity": 0.31496062992125984,
                    "duration": 0.10461699999999041
                },
                {
                    "name": "B5",
                    "midi": 83,
                    "time": 130.45739900000035,
                    "velocity": 0.2755905511811024,
                    "duration": 0.10461699999999041
                },
                {
                    "name": "D6",
                    "midi": 86,
                    "time": 130.45739900000035,
                    "velocity": 0.2755905511811024,
                    "duration": 0.10461699999999041
                },
                {
                    "name": "B5",
                    "midi": 83,
                    "time": 130.66663300000033,
                    "velocity": 0.2440944881889764,
                    "duration": 0.10461699999999041
                },
                {
                    "name": "D6",
                    "midi": 86,
                    "time": 130.66663300000033,
                    "velocity": 0.2440944881889764,
                    "duration": 0.10461699999999041
                },
                {
                    "name": "E6",
                    "midi": 88,
                    "time": 130.77125000000032,
                    "velocity": 0.2755905511811024,
                    "duration": 0.10461699999999041
                },
                {
                    "name": "B5",
                    "midi": 83,
                    "time": 130.8758670000003,
                    "velocity": 0.23622047244094488,
                    "duration": 0.10461699999999041
                },
                {
                    "name": "D6",
                    "midi": 86,
                    "time": 130.8758670000003,
                    "velocity": 0.23622047244094488,
                    "duration": 0.10461699999999041
                },
                {
                    "name": "F6",
                    "midi": 89,
                    "time": 130.9804840000003,
                    "velocity": 0.2755905511811024,
                    "duration": 0.10461699999999041
                },
                {
                    "name": "D6",
                    "midi": 86,
                    "time": 131.0851010000003,
                    "velocity": 0.2440944881889764,
                    "duration": 0.10461699999999041
                },
                {
                    "name": "B5",
                    "midi": 83,
                    "time": 131.0851010000003,
                    "velocity": 0.2440944881889764,
                    "duration": 0.10461699999999041
                },
                {
                    "name": "D6",
                    "midi": 86,
                    "time": 131.29433500000027,
                    "velocity": 0.23622047244094488,
                    "duration": 0.10461699999999041
                },
                {
                    "name": "B5",
                    "midi": 83,
                    "time": 131.29433500000027,
                    "velocity": 0.23622047244094488,
                    "duration": 0.10461699999999041
                },
                {
                    "name": "E6",
                    "midi": 88,
                    "time": 131.39895200000026,
                    "velocity": 0.2755905511811024,
                    "duration": 0.10461699999999041
                },
                {
                    "name": "D6",
                    "midi": 86,
                    "time": 131.50356900000025,
                    "velocity": 0.25196850393700787,
                    "duration": 0.10461699999999041
                },
                {
                    "name": "B5",
                    "midi": 83,
                    "time": 131.50356900000025,
                    "velocity": 0.25196850393700787,
                    "duration": 0.10461699999999041
                },
                {
                    "name": "F6",
                    "midi": 89,
                    "time": 131.60818600000025,
                    "velocity": 0.2755905511811024,
                    "duration": 0.10461699999999041
                },
                {
                    "name": "B5",
                    "midi": 83,
                    "time": 131.71280300000024,
                    "velocity": 0.2440944881889764,
                    "duration": 0.10461699999999041
                },
                {
                    "name": "D6",
                    "midi": 86,
                    "time": 131.71280300000024,
                    "velocity": 0.2440944881889764,
                    "duration": 0.10461699999999041
                },
                {
                    "name": "A#5",
                    "midi": 82,
                    "time": 131.92203700000022,
                    "velocity": 0.2440944881889764,
                    "duration": 0.10461699999999041
                },
                {
                    "name": "C#6",
                    "midi": 85,
                    "time": 131.92203700000022,
                    "velocity": 0.2440944881889764,
                    "duration": 0.10461699999999041
                },
                {
                    "name": "E6",
                    "midi": 88,
                    "time": 132.0266540000002,
                    "velocity": 0.2755905511811024,
                    "duration": 0.10461699999999041
                },
                {
                    "name": "A#5",
                    "midi": 82,
                    "time": 132.1312710000002,
                    "velocity": 0.23622047244094488,
                    "duration": 0.10461699999999041
                },
                {
                    "name": "C#6",
                    "midi": 85,
                    "time": 132.1312710000002,
                    "velocity": 0.23622047244094488,
                    "duration": 0.10461699999999041
                },
                {
                    "name": "F6",
                    "midi": 89,
                    "time": 132.2358880000002,
                    "velocity": 0.2755905511811024,
                    "duration": 0.10461699999999041
                },
                {
                    "name": "C#6",
                    "midi": 85,
                    "time": 132.34050500000018,
                    "velocity": 0.2440944881889764,
                    "duration": 0.10461699999999041
                },
                {
                    "name": "A#5",
                    "midi": 82,
                    "time": 132.34050500000018,
                    "velocity": 0.2440944881889764,
                    "duration": 0.10461699999999041
                },
                {
                    "name": "C#6",
                    "midi": 85,
                    "time": 132.54973900000016,
                    "velocity": 0.23622047244094488,
                    "duration": 0.10461699999999041
                },
                {
                    "name": "A#5",
                    "midi": 82,
                    "time": 132.54973900000016,
                    "velocity": 0.23622047244094488,
                    "duration": 0.10461699999999041
                },
                {
                    "name": "E6",
                    "midi": 88,
                    "time": 132.65435600000015,
                    "velocity": 0.28346456692913385,
                    "duration": 0.10461699999999041
                },
                {
                    "name": "C#6",
                    "midi": 85,
                    "time": 132.75897300000014,
                    "velocity": 0.25196850393700787,
                    "duration": 0.10461699999999041
                },
                {
                    "name": "A#5",
                    "midi": 82,
                    "time": 132.75897300000014,
                    "velocity": 0.25196850393700787,
                    "duration": 0.10461699999999041
                },
                {
                    "name": "F6",
                    "midi": 89,
                    "time": 132.86359000000013,
                    "velocity": 0.28346456692913385,
                    "duration": 0.10461699999999041
                },
                {
                    "name": "A#5",
                    "midi": 82,
                    "time": 132.96820700000012,
                    "velocity": 0.25196850393700787,
                    "duration": 0.10461699999999041
                },
                {
                    "name": "C#6",
                    "midi": 85,
                    "time": 132.96820700000012,
                    "velocity": 0.25196850393700787,
                    "duration": 0.10461699999999041
                },
                {
                    "name": "A#5",
                    "midi": 82,
                    "time": 133.1774410000001,
                    "velocity": 0.2755905511811024,
                    "duration": 0.10461699999999041
                },
                {
                    "name": "C#6",
                    "midi": 85,
                    "time": 133.1774410000001,
                    "velocity": 0.2755905511811024,
                    "duration": 0.10461699999999041
                },
                {
                    "name": "E6",
                    "midi": 88,
                    "time": 133.2820580000001,
                    "velocity": 0.31496062992125984,
                    "duration": 0.10461699999999041
                },
                {
                    "name": "A#5",
                    "midi": 82,
                    "time": 133.38667500000008,
                    "velocity": 0.28346456692913385,
                    "duration": 0.10461699999999041
                },
                {
                    "name": "C#6",
                    "midi": 85,
                    "time": 133.38667500000008,
                    "velocity": 0.28346456692913385,
                    "duration": 0.10461699999999041
                },
                {
                    "name": "F6",
                    "midi": 89,
                    "time": 133.49129200000007,
                    "velocity": 0.3464566929133858,
                    "duration": 0.10461699999999041
                },
                {
                    "name": "C#6",
                    "midi": 85,
                    "time": 133.59590900000006,
                    "velocity": 0.31496062992125984,
                    "duration": 0.10461699999999041
                },
                {
                    "name": "A#5",
                    "midi": 82,
                    "time": 133.59590900000006,
                    "velocity": 0.31496062992125984,
                    "duration": 0.10461699999999041
                },
                {
                    "name": "C#6",
                    "midi": 85,
                    "time": 133.80514300000004,
                    "velocity": 0.31496062992125984,
                    "duration": 0.10461699999999041
                },
                {
                    "name": "A#5",
                    "midi": 82,
                    "time": 133.80514300000004,
                    "velocity": 0.31496062992125984,
                    "duration": 0.10461699999999041
                },
                {
                    "name": "E6",
                    "midi": 88,
                    "time": 133.90976000000003,
                    "velocity": 0.3937007874015748,
                    "duration": 0.10461699999999041
                },
                {
                    "name": "C#6",
                    "midi": 85,
                    "time": 134.01437700000002,
                    "velocity": 0.36220472440944884,
                    "duration": 0.10461699999999041
                },
                {
                    "name": "A#5",
                    "midi": 82,
                    "time": 134.01437700000002,
                    "velocity": 0.36220472440944884,
                    "duration": 0.10461699999999041
                },
                {
                    "name": "F6",
                    "midi": 89,
                    "time": 134.11899400000001,
                    "velocity": 0.41732283464566927,
                    "duration": 0.10461699999999041
                },
                {
                    "name": "A#5",
                    "midi": 82,
                    "time": 134.223611,
                    "velocity": 0.3858267716535433,
                    "duration": 0.10461699999999041
                },
                {
                    "name": "C#6",
                    "midi": 85,
                    "time": 134.223611,
                    "velocity": 0.3858267716535433,
                    "duration": 0.10461699999999041
                },
                {
                    "name": "A#5",
                    "midi": 82,
                    "time": 134.432845,
                    "velocity": 0.36220472440944884,
                    "duration": 0.10461699999999041
                },
                {
                    "name": "C#6",
                    "midi": 85,
                    "time": 134.432845,
                    "velocity": 0.36220472440944884,
                    "duration": 0.10461699999999041
                },
                {
                    "name": "E6",
                    "midi": 88,
                    "time": 134.53746199999998,
                    "velocity": 0.4094488188976378,
                    "duration": 0.10461699999999041
                },
                {
                    "name": "A#5",
                    "midi": 82,
                    "time": 134.64207899999997,
                    "velocity": 0.33858267716535434,
                    "duration": 0.10461699999999041
                },
                {
                    "name": "C#6",
                    "midi": 85,
                    "time": 134.64207899999997,
                    "velocity": 0.33858267716535434,
                    "duration": 0.10461699999999041
                },
                {
                    "name": "F6",
                    "midi": 89,
                    "time": 134.74669599999996,
                    "velocity": 0.3937007874015748,
                    "duration": 0.10461699999999041
                },
                {
                    "name": "C#6",
                    "midi": 85,
                    "time": 134.85131299999995,
                    "velocity": 0.3464566929133858,
                    "duration": 0.10461699999999041
                },
                {
                    "name": "A#5",
                    "midi": 82,
                    "time": 134.85131299999995,
                    "velocity": 0.3464566929133858,
                    "duration": 0.10461699999999041
                },
                {
                    "name": "A#5",
                    "midi": 82,
                    "time": 135.06054699999993,
                    "velocity": 0.33858267716535434,
                    "duration": 0.10461699999999041
                },
                {
                    "name": "C#6",
                    "midi": 85,
                    "time": 135.06054699999993,
                    "velocity": 0.33858267716535434,
                    "duration": 0.10461699999999041
                },
                {
                    "name": "E6",
                    "midi": 88,
                    "time": 135.16516399999992,
                    "velocity": 0.41732283464566927,
                    "duration": 0.10461699999999041
                },
                {
                    "name": "A#5",
                    "midi": 82,
                    "time": 135.2697809999999,
                    "velocity": 0.36220472440944884,
                    "duration": 0.10461699999999041
                },
                {
                    "name": "C#6",
                    "midi": 85,
                    "time": 135.2697809999999,
                    "velocity": 0.36220472440944884,
                    "duration": 0.10461699999999041
                },
                {
                    "name": "F6",
                    "midi": 89,
                    "time": 135.3743979999999,
                    "velocity": 0.41732283464566927,
                    "duration": 0.10461699999999041
                },
                {
                    "name": "C#6",
                    "midi": 85,
                    "time": 135.4790149999999,
                    "velocity": 0.36220472440944884,
                    "duration": 0.10461699999999041
                },
                {
                    "name": "A#5",
                    "midi": 82,
                    "time": 135.4790149999999,
                    "velocity": 0.36220472440944884,
                    "duration": 0.10461699999999041
                },
                {
                    "name": "A#5",
                    "midi": 82,
                    "time": 135.68824899999987,
                    "velocity": 0.33858267716535434,
                    "duration": 0.10461699999999041
                },
                {
                    "name": "C#6",
                    "midi": 85,
                    "time": 135.68824899999987,
                    "velocity": 0.33858267716535434,
                    "duration": 0.10461699999999041
                },
                {
                    "name": "E6",
                    "midi": 88,
                    "time": 135.79286599999986,
                    "velocity": 0.41732283464566927,
                    "duration": 0.10461699999999041
                },
                {
                    "name": "A#5",
                    "midi": 82,
                    "time": 135.89748299999985,
                    "velocity": 0.3543307086614173,
                    "duration": 0.10461699999999041
                },
                {
                    "name": "C#6",
                    "midi": 85,
                    "time": 135.89748299999985,
                    "velocity": 0.3543307086614173,
                    "duration": 0.10461699999999041
                },
                {
                    "name": "F6",
                    "midi": 89,
                    "time": 136.00209999999984,
                    "velocity": 0.41732283464566927,
                    "duration": 0.10461699999999041
                },
                {
                    "name": "C#6",
                    "midi": 85,
                    "time": 136.10671699999983,
                    "velocity": 0.3464566929133858,
                    "duration": 0.10461699999999041
                },
                {
                    "name": "A#5",
                    "midi": 82,
                    "time": 136.10671699999983,
                    "velocity": 0.3464566929133858,
                    "duration": 0.10461699999999041
                },
                {
                    "name": "C#6",
                    "midi": 85,
                    "time": 136.3159509999998,
                    "velocity": 0.3543307086614173,
                    "duration": 0.10461699999999041
                },
                {
                    "name": "A#5",
                    "midi": 82,
                    "time": 136.3159509999998,
                    "velocity": 0.3543307086614173,
                    "duration": 0.10461699999999041
                },
                {
                    "name": "F6",
                    "midi": 89,
                    "time": 136.4205679999998,
                    "velocity": 0.3858267716535433,
                    "duration": 0.10461699999999041
                },
                {
                    "name": "A#5",
                    "midi": 82,
                    "time": 136.5251849999998,
                    "velocity": 0.33858267716535434,
                    "duration": 0.10461699999999041
                },
                {
                    "name": "C#6",
                    "midi": 85,
                    "time": 136.5251849999998,
                    "velocity": 0.33858267716535434,
                    "duration": 0.10461699999999041
                },
                {
                    "name": "F#6",
                    "midi": 90,
                    "time": 136.62980199999978,
                    "velocity": 0.3858267716535433,
                    "duration": 0.10461699999999041
                },
                {
                    "name": "C#6",
                    "midi": 85,
                    "time": 136.73441899999978,
                    "velocity": 0.33070866141732286,
                    "duration": 0.10461699999999041
                },
                {
                    "name": "A#5",
                    "midi": 82,
                    "time": 136.73441899999978,
                    "velocity": 0.33070866141732286,
                    "duration": 0.10461699999999041
                },
                {
                    "name": "C#6",
                    "midi": 85,
                    "time": 136.94365299999976,
                    "velocity": 0.4409448818897638,
                    "duration": 0.10461699999999041
                },
                {
                    "name": "A#5",
                    "midi": 82,
                    "time": 136.94365299999976,
                    "velocity": 0.4409448818897638,
                    "duration": 0.10461699999999041
                },
                {
                    "name": "F#6",
                    "midi": 90,
                    "time": 137.04826999999975,
                    "velocity": 0.49606299212598426,
                    "duration": 0.10461699999999041
                },
                {
                    "name": "A#5",
                    "midi": 82,
                    "time": 137.15288699999974,
                    "velocity": 0.41732283464566927,
                    "duration": 0.10461699999999041
                },
                {
                    "name": "C#6",
                    "midi": 85,
                    "time": 137.15288699999974,
                    "velocity": 0.41732283464566927,
                    "duration": 0.10461699999999041
                },
                {
                    "name": "G6",
                    "midi": 91,
                    "time": 137.25750399999973,
                    "velocity": 0.4881889763779528,
                    "duration": 0.10461699999999041
                },
                {
                    "name": "C#6",
                    "midi": 85,
                    "time": 137.36212099999972,
                    "velocity": 0.4094488188976378,
                    "duration": 0.10461699999999041
                },
                {
                    "name": "A#5",
                    "midi": 82,
                    "time": 137.36212099999972,
                    "velocity": 0.4094488188976378,
                    "duration": 0.10461699999999041
                },
                {
                    "name": "C#6",
                    "midi": 85,
                    "time": 137.5713549999997,
                    "velocity": 0.4409448818897638,
                    "duration": 0.10461699999999041
                },
                {
                    "name": "A#5",
                    "midi": 82,
                    "time": 137.5713549999997,
                    "velocity": 0.4409448818897638,
                    "duration": 0.10461699999999041
                },
                {
                    "name": "F#6",
                    "midi": 90,
                    "time": 137.6759719999997,
                    "velocity": 0.48031496062992124,
                    "duration": 0.10461699999999041
                },
                {
                    "name": "A#5",
                    "midi": 82,
                    "time": 137.78058899999968,
                    "velocity": 0.41732283464566927,
                    "duration": 0.10461699999999041
                },
                {
                    "name": "C#6",
                    "midi": 85,
                    "time": 137.78058899999968,
                    "velocity": 0.41732283464566927,
                    "duration": 0.10461699999999041
                },
                {
                    "name": "G6",
                    "midi": 91,
                    "time": 137.88520599999967,
                    "velocity": 0.48031496062992124,
                    "duration": 0.10461699999999041
                },
                {
                    "name": "C#6",
                    "midi": 85,
                    "time": 137.98982299999966,
                    "velocity": 0.4094488188976378,
                    "duration": 0.10461699999999041
                },
                {
                    "name": "A#5",
                    "midi": 82,
                    "time": 137.98982299999966,
                    "velocity": 0.4094488188976378,
                    "duration": 0.10461699999999041
                },
                {
                    "name": "C#6",
                    "midi": 85,
                    "time": 138.19905699999964,
                    "velocity": 0.4015748031496063,
                    "duration": 0.10461699999999041
                },
                {
                    "name": "A#5",
                    "midi": 82,
                    "time": 138.19905699999964,
                    "velocity": 0.4015748031496063,
                    "duration": 0.10461699999999041
                },
                {
                    "name": "F#6",
                    "midi": 90,
                    "time": 138.30367399999963,
                    "velocity": 0.4566929133858268,
                    "duration": 0.10461699999999041
                },
                {
                    "name": "A#5",
                    "midi": 82,
                    "time": 138.40829099999962,
                    "velocity": 0.3858267716535433,
                    "duration": 0.10461699999999041
                },
                {
                    "name": "C#6",
                    "midi": 85,
                    "time": 138.40829099999962,
                    "velocity": 0.3858267716535433,
                    "duration": 0.10461699999999041
                },
                {
                    "name": "G6",
                    "midi": 91,
                    "time": 138.5129079999996,
                    "velocity": 0.44881889763779526,
                    "duration": 0.10461699999999041
                },
                {
                    "name": "C#6",
                    "midi": 85,
                    "time": 138.6175249999996,
                    "velocity": 0.3779527559055118,
                    "duration": 0.10461699999999041
                },
                {
                    "name": "A#5",
                    "midi": 82,
                    "time": 138.6175249999996,
                    "velocity": 0.3779527559055118,
                    "duration": 0.10461699999999041
                },
                {
                    "name": "A#5",
                    "midi": 82,
                    "time": 138.82675899999958,
                    "velocity": 0.4015748031496063,
                    "duration": 0.10461699999999041
                },
                {
                    "name": "G5",
                    "midi": 79,
                    "time": 138.82675899999958,
                    "velocity": 0.4015748031496063,
                    "duration": 0.10461699999999041
                },
                {
                    "name": "D#6",
                    "midi": 87,
                    "time": 138.93137599999957,
                    "velocity": 0.4409448818897638,
                    "duration": 0.10461699999999041
                },
                {
                    "name": "G5",
                    "midi": 79,
                    "time": 139.03599299999956,
                    "velocity": 0.3858267716535433,
                    "duration": 0.10461699999999041
                },
                {
                    "name": "A#5",
                    "midi": 82,
                    "time": 139.03599299999956,
                    "velocity": 0.3858267716535433,
                    "duration": 0.10461699999999041
                },
                {
                    "name": "E6",
                    "midi": 88,
                    "time": 139.14060999999955,
                    "velocity": 0.4409448818897638,
                    "duration": 0.10461699999999041
                },
                {
                    "name": "A#5",
                    "midi": 82,
                    "time": 139.24522699999955,
                    "velocity": 0.3779527559055118,
                    "duration": 0.10461699999999041
                },
                {
                    "name": "G5",
                    "midi": 79,
                    "time": 139.24522699999955,
                    "velocity": 0.3779527559055118,
                    "duration": 0.10461699999999041
                },
                {
                    "name": "G5",
                    "midi": 79,
                    "time": 139.45446099999953,
                    "velocity": 0.3543307086614173,
                    "duration": 0.10461699999999041
                },
                {
                    "name": "E5",
                    "midi": 76,
                    "time": 139.45446099999953,
                    "velocity": 0.3543307086614173,
                    "duration": 0.10461699999999041
                },
                {
                    "name": "C6",
                    "midi": 84,
                    "time": 139.55907799999952,
                    "velocity": 0.3937007874015748,
                    "duration": 0.10461699999999041
                },
                {
                    "name": "E5",
                    "midi": 76,
                    "time": 139.6636949999995,
                    "velocity": 0.33070866141732286,
                    "duration": 0.10461699999999041
                },
                {
                    "name": "G5",
                    "midi": 79,
                    "time": 139.6636949999995,
                    "velocity": 0.33070866141732286,
                    "duration": 0.10461699999999041
                },
                {
                    "name": "C#6",
                    "midi": 85,
                    "time": 139.7683119999995,
                    "velocity": 0.3779527559055118,
                    "duration": 0.10461699999999041
                },
                {
                    "name": "G5",
                    "midi": 79,
                    "time": 139.8729289999995,
                    "velocity": 0.30708661417322836,
                    "duration": 0.10461699999999041
                },
                {
                    "name": "E5",
                    "midi": 76,
                    "time": 139.8729289999995,
                    "velocity": 0.30708661417322836,
                    "duration": 0.10461699999999041
                },
                {
                    "name": "E5",
                    "midi": 76,
                    "time": 140.08216299999947,
                    "velocity": 0.3228346456692913,
                    "duration": 0.10461699999999041
                },
                {
                    "name": "C#5",
                    "midi": 73,
                    "time": 140.08216299999947,
                    "velocity": 0.3228346456692913,
                    "duration": 0.10461699999999041
                },
                {
                    "name": "A5",
                    "midi": 81,
                    "time": 140.18677999999946,
                    "velocity": 0.3464566929133858,
                    "duration": 0.10461699999999041
                },
                {
                    "name": "C#5",
                    "midi": 73,
                    "time": 140.29139699999945,
                    "velocity": 0.2992125984251969,
                    "duration": 0.10461699999999041
                },
                {
                    "name": "E5",
                    "midi": 76,
                    "time": 140.29139699999945,
                    "velocity": 0.2992125984251969,
                    "duration": 0.10461699999999041
                },
                {
                    "name": "A#5",
                    "midi": 82,
                    "time": 140.39601399999944,
                    "velocity": 0.33858267716535434,
                    "duration": 0.10461699999999041
                },
                {
                    "name": "E5",
                    "midi": 76,
                    "time": 140.50063099999943,
                    "velocity": 0.28346456692913385,
                    "duration": 0.10461699999999041
                },
                {
                    "name": "C#5",
                    "midi": 73,
                    "time": 140.50063099999943,
                    "velocity": 0.28346456692913385,
                    "duration": 0.10461699999999041
                },
                {
                    "name": "C#5",
                    "midi": 73,
                    "time": 140.7098649999994,
                    "velocity": 0.2992125984251969,
                    "duration": 0.10461699999999041
                },
                {
                    "name": "A#4",
                    "midi": 70,
                    "time": 140.7098649999994,
                    "velocity": 0.2992125984251969,
                    "duration": 0.10461699999999041
                },
                {
                    "name": "F#5",
                    "midi": 78,
                    "time": 140.8144819999994,
                    "velocity": 0.33070866141732286,
                    "duration": 0.10461699999999041
                },
                {
                    "name": "A#4",
                    "midi": 70,
                    "time": 140.9190989999994,
                    "velocity": 0.2755905511811024,
                    "duration": 0.10461699999999041
                },
                {
                    "name": "C#5",
                    "midi": 73,
                    "time": 140.9190989999994,
                    "velocity": 0.2755905511811024,
                    "duration": 0.10461699999999041
                },
                {
                    "name": "G5",
                    "midi": 79,
                    "time": 141.02371599999938,
                    "velocity": 0.31496062992125984,
                    "duration": 0.10461699999999041
                },
                {
                    "name": "C#5",
                    "midi": 73,
                    "time": 141.12833299999937,
                    "velocity": 0.25984251968503935,
                    "duration": 0.10461699999999041
                },
                {
                    "name": "A#4",
                    "midi": 70,
                    "time": 141.12833299999937,
                    "velocity": 0.25984251968503935,
                    "duration": 0.10461699999999041
                },
                {
                    "name": "A#4",
                    "midi": 70,
                    "time": 141.33756699999935,
                    "velocity": 0.2677165354330709,
                    "duration": 0.10461699999999041
                },
                {
                    "name": "G4",
                    "midi": 67,
                    "time": 141.33756699999935,
                    "velocity": 0.2677165354330709,
                    "duration": 0.10461699999999041
                },
                {
                    "name": "D#5",
                    "midi": 75,
                    "time": 141.44218399999934,
                    "velocity": 0.29133858267716534,
                    "duration": 0.10461699999999041
                },
                {
                    "name": "G4",
                    "midi": 67,
                    "time": 141.54680099999933,
                    "velocity": 0.2440944881889764,
                    "duration": 0.10461699999999041
                },
                {
                    "name": "A#4",
                    "midi": 70,
                    "time": 141.54680099999933,
                    "velocity": 0.2440944881889764,
                    "duration": 0.10461699999999041
                },
                {
                    "name": "E5",
                    "midi": 76,
                    "time": 141.65141799999932,
                    "velocity": 0.2755905511811024,
                    "duration": 0.10461699999999041
                },
                {
                    "name": "A#4",
                    "midi": 70,
                    "time": 141.75603499999932,
                    "velocity": 0.23622047244094488,
                    "duration": 0.10461699999999041
                },
                {
                    "name": "G4",
                    "midi": 67,
                    "time": 141.75603499999932,
                    "velocity": 0.23622047244094488,
                    "duration": 0.10461699999999041
                },
                {
                    "name": "G4",
                    "midi": 67,
                    "time": 143.2206729999993,
                    "velocity": 0.2283464566929134,
                    "duration": 0.10461699999999041
                },
                {
                    "name": "A#4",
                    "midi": 70,
                    "time": 143.2206729999993,
                    "velocity": 0.2283464566929134,
                    "duration": 0.10461699999999041
                },
                {
                    "name": "C5",
                    "midi": 72,
                    "time": 143.32528999999928,
                    "velocity": 0.2755905511811024,
                    "duration": 0.10461699999999041
                },
                {
                    "name": "G4",
                    "midi": 67,
                    "time": 143.42990699999928,
                    "velocity": 0.23622047244094488,
                    "duration": 0.10461699999999041
                },
                {
                    "name": "A#4",
                    "midi": 70,
                    "time": 143.42990699999928,
                    "velocity": 0.23622047244094488,
                    "duration": 0.10461699999999041
                },
                {
                    "name": "C#5",
                    "midi": 73,
                    "time": 143.53452399999927,
                    "velocity": 0.2755905511811024,
                    "duration": 0.10461699999999041
                },
                {
                    "name": "G4",
                    "midi": 67,
                    "time": 143.63914099999926,
                    "velocity": 0.2440944881889764,
                    "duration": 0.10461699999999041
                },
                {
                    "name": "A#4",
                    "midi": 70,
                    "time": 143.63914099999926,
                    "velocity": 0.2440944881889764,
                    "duration": 0.10461699999999041
                },
                {
                    "name": "G4",
                    "midi": 67,
                    "time": 143.84837499999924,
                    "velocity": 0.2283464566929134,
                    "duration": 0.10461699999999041
                },
                {
                    "name": "A#4",
                    "midi": 70,
                    "time": 143.84837499999924,
                    "velocity": 0.2283464566929134,
                    "duration": 0.10461699999999041
                },
                {
                    "name": "C5",
                    "midi": 72,
                    "time": 143.95299199999923,
                    "velocity": 0.2755905511811024,
                    "duration": 0.10461699999999041
                },
                {
                    "name": "G4",
                    "midi": 67,
                    "time": 144.05760899999922,
                    "velocity": 0.2440944881889764,
                    "duration": 0.10461699999999041
                },
                {
                    "name": "A#4",
                    "midi": 70,
                    "time": 144.05760899999922,
                    "velocity": 0.2440944881889764,
                    "duration": 0.10461699999999041
                },
                {
                    "name": "C#5",
                    "midi": 73,
                    "time": 144.1622259999992,
                    "velocity": 0.2755905511811024,
                    "duration": 0.10461699999999041
                },
                {
                    "name": "G4",
                    "midi": 67,
                    "time": 144.2668429999992,
                    "velocity": 0.23622047244094488,
                    "duration": 0.10461699999999041
                },
                {
                    "name": "A#4",
                    "midi": 70,
                    "time": 144.2668429999992,
                    "velocity": 0.23622047244094488,
                    "duration": 0.10461699999999041
                },
                {
                    "name": "F#5",
                    "midi": 78,
                    "time": 144.3714599999992,
                    "velocity": 0.3700787401574803,
                    "duration": 1.2554039999999986
                },
                {
                    "name": "E4",
                    "midi": 64,
                    "time": 145.73148099999918,
                    "velocity": 0.2283464566929134,
                    "duration": 0.10461699999999041
                },
                {
                    "name": "A#4",
                    "midi": 70,
                    "time": 145.73148099999918,
                    "velocity": 0.2283464566929134,
                    "duration": 0.10461699999999041
                },
                {
                    "name": "C#5",
                    "midi": 73,
                    "time": 145.83609799999917,
                    "velocity": 0.29133858267716534,
                    "duration": 0.10461699999999041
                },
                {
                    "name": "E4",
                    "midi": 64,
                    "time": 145.94071499999916,
                    "velocity": 0.25196850393700787,
                    "duration": 0.10461699999999041
                },
                {
                    "name": "A#4",
                    "midi": 70,
                    "time": 145.94071499999916,
                    "velocity": 0.25196850393700787,
                    "duration": 0.10461699999999041
                },
                {
                    "name": "D5",
                    "midi": 74,
                    "time": 146.04533199999915,
                    "velocity": 0.2992125984251969,
                    "duration": 0.10461699999999041
                },
                {
                    "name": "E4",
                    "midi": 64,
                    "time": 146.14994899999914,
                    "velocity": 0.2755905511811024,
                    "duration": 0.10461699999999041
                },
                {
                    "name": "A#4",
                    "midi": 70,
                    "time": 146.14994899999914,
                    "velocity": 0.2755905511811024,
                    "duration": 0.10461699999999041
                },
                {
                    "name": "E4",
                    "midi": 64,
                    "time": 146.35918299999912,
                    "velocity": 0.2677165354330709,
                    "duration": 0.10461699999999041
                },
                {
                    "name": "A#4",
                    "midi": 70,
                    "time": 146.35918299999912,
                    "velocity": 0.2677165354330709,
                    "duration": 0.10461699999999041
                },
                {
                    "name": "C#5",
                    "midi": 73,
                    "time": 146.4637999999991,
                    "velocity": 0.33070866141732286,
                    "duration": 0.10461699999999041
                },
                {
                    "name": "E4",
                    "midi": 64,
                    "time": 146.5684169999991,
                    "velocity": 0.29133858267716534,
                    "duration": 0.10461699999999041
                },
                {
                    "name": "A#4",
                    "midi": 70,
                    "time": 146.5684169999991,
                    "velocity": 0.29133858267716534,
                    "duration": 0.10461699999999041
                },
                {
                    "name": "D5",
                    "midi": 74,
                    "time": 146.6730339999991,
                    "velocity": 0.33858267716535434,
                    "duration": 0.10461699999999041
                },
                {
                    "name": "E4",
                    "midi": 64,
                    "time": 146.77765099999908,
                    "velocity": 0.2992125984251969,
                    "duration": 0.10461699999999041
                },
                {
                    "name": "A#4",
                    "midi": 70,
                    "time": 146.77765099999908,
                    "velocity": 0.2992125984251969,
                    "duration": 0.10461699999999041
                },
                {
                    "name": "G5",
                    "midi": 79,
                    "time": 146.88226799999907,
                    "velocity": 0.4881889763779528,
                    "duration": 1.6738719999999887
                },
                {
                    "name": "A4",
                    "midi": 69,
                    "time": 148.55613999999906,
                    "velocity": 0.33858267716535434,
                    "duration": 0.20923400000000925
                },
                {
                    "name": "A#4",
                    "midi": 70,
                    "time": 148.76537399999907,
                    "velocity": 0.3937007874015748,
                    "duration": 0.41846799999999007
                },
                {
                    "name": "C5",
                    "midi": 72,
                    "time": 149.18384199999906,
                    "velocity": 0.33858267716535434,
                    "duration": 0.20923400000000925
                },
                {
                    "name": "C#5",
                    "midi": 73,
                    "time": 149.39307599999907,
                    "velocity": 0.4094488188976378,
                    "duration": 0.41846799999999007
                },
                {
                    "name": "D5",
                    "midi": 74,
                    "time": 149.81154399999906,
                    "velocity": 0.33858267716535434,
                    "duration": 0.20923400000000925
                },
                {
                    "name": "F#4",
                    "midi": 66,
                    "time": 150.02077799999907,
                    "velocity": 0.4015748031496063,
                    "duration": 0.41846799999999007
                },
                {
                    "name": "G4",
                    "midi": 67,
                    "time": 150.43924599999906,
                    "velocity": 0.29133858267716534,
                    "duration": 0.20923400000000925
                },
                {
                    "name": "A4",
                    "midi": 69,
                    "time": 150.64847999999907,
                    "velocity": 0.3779527559055118,
                    "duration": 0.41846799999999007
                },
                {
                    "name": "A#4",
                    "midi": 70,
                    "time": 151.06694799999906,
                    "velocity": 0.30708661417322836,
                    "duration": 0.20923400000000925
                },
                {
                    "name": "C#4",
                    "midi": 61,
                    "time": 151.27618199999907,
                    "velocity": 0.2755905511811024,
                    "duration": 0.41846799999999007
                },
                {
                    "name": "D4",
                    "midi": 62,
                    "time": 151.69464999999906,
                    "velocity": 0.2047244094488189,
                    "duration": 0.20923400000000925
                },
                {
                    "name": "E4",
                    "midi": 64,
                    "time": 151.90388399999907,
                    "velocity": 0.30708661417322836,
                    "duration": 0.41846799999999007
                },
                {
                    "name": "F4",
                    "midi": 65,
                    "time": 152.32235199999906,
                    "velocity": 0.1968503937007874,
                    "duration": 0.15692549999999983
                },
                {
                    "name": "G4",
                    "midi": 67,
                    "time": 152.53158599999907,
                    "velocity": 0.2677165354330709,
                    "duration": 0.41846799999999007
                },
                {
                    "name": "G#4",
                    "midi": 68,
                    "time": 152.95005399999906,
                    "velocity": 0.2125984251968504,
                    "duration": 0.20923400000000925
                },
                {
                    "name": "A3",
                    "midi": 57,
                    "time": 153.15928799999907,
                    "velocity": 0.23622047244094488,
                    "duration": 0.6277019999999709
                },
                {
                    "name": "A4",
                    "midi": 69,
                    "time": 153.15928799999907,
                    "velocity": 0.29133858267716534,
                    "duration": 0.31385099999999966
                },
                {
                    "name": "G4",
                    "midi": 67,
                    "time": 153.47313899999907,
                    "velocity": 0.2125984251968504,
                    "duration": 0.10461699999999041
                },
                {
                    "name": "F4",
                    "midi": 65,
                    "time": 153.57775599999906,
                    "velocity": 0.2125984251968504,
                    "duration": 0.10461699999999041
                },
                {
                    "name": "G4",
                    "midi": 67,
                    "time": 153.68237299999905,
                    "velocity": 0.2125984251968504,
                    "duration": 0.10461699999999041
                },
                {
                    "name": "A#3",
                    "midi": 58,
                    "time": 153.78698999999904,
                    "velocity": 0.2125984251968504,
                    "duration": 0.6277019999999993
                },
                {
                    "name": "A4",
                    "midi": 69,
                    "time": 153.78698999999904,
                    "velocity": 0.25196850393700787,
                    "duration": 0.41846799999999007
                },
                {
                    "name": "F4",
                    "midi": 65,
                    "time": 154.20545799999903,
                    "velocity": 0.25196850393700787,
                    "duration": 0.20923400000000925
                },
                {
                    "name": "C4",
                    "midi": 60,
                    "time": 154.41469199999904,
                    "velocity": 0.23622047244094488,
                    "duration": 0.6277019999999709
                },
                {
                    "name": "A4",
                    "midi": 69,
                    "time": 154.41469199999904,
                    "velocity": 0.29133858267716534,
                    "duration": 0.31385099999999966
                },
                {
                    "name": "G4",
                    "midi": 67,
                    "time": 154.72854299999904,
                    "velocity": 0.2204724409448819,
                    "duration": 0.10461699999999041
                },
                {
                    "name": "F4",
                    "midi": 65,
                    "time": 154.83315999999903,
                    "velocity": 0.2204724409448819,
                    "duration": 0.10461699999999041
                },
                {
                    "name": "G4",
                    "midi": 67,
                    "time": 154.93777699999902,
                    "velocity": 0.2204724409448819,
                    "duration": 0.10461699999999041
                },
                {
                    "name": "A#3",
                    "midi": 58,
                    "time": 155.042393999999,
                    "velocity": 0.2125984251968504,
                    "duration": 0.5753934999999899
                },
                {
                    "name": "A4",
                    "midi": 69,
                    "time": 155.042393999999,
                    "velocity": 0.25196850393700787,
                    "duration": 0.5753934999999899
                },
                {
                    "name": "F4",
                    "midi": 65,
                    "time": 155.670095999999,
                    "velocity": 0.28346456692913385,
                    "duration": 0.6277019999999709
                },
                {
                    "name": "C5",
                    "midi": 72,
                    "time": 155.670095999999,
                    "velocity": 0.3543307086614173,
                    "duration": 0.31385099999999966
                },
                {
                    "name": "D5",
                    "midi": 74,
                    "time": 155.983946999999,
                    "velocity": 0.2992125984251969,
                    "duration": 0.10461699999999041
                },
                {
                    "name": "E5",
                    "midi": 76,
                    "time": 156.088563999999,
                    "velocity": 0.33070866141732286,
                    "duration": 0.10461699999999041
                },
                {
                    "name": "D5",
                    "midi": 74,
                    "time": 156.193180999999,
                    "velocity": 0.2992125984251969,
                    "duration": 0.10461699999999041
                },
                {
                    "name": "C5",
                    "midi": 72,
                    "time": 156.29779799999898,
                    "velocity": 0.3700787401574803,
                    "duration": 0.41846799999999007
                },
                {
                    "name": "F4",
                    "midi": 65,
                    "time": 156.29779799999898,
                    "velocity": 0.2992125984251969,
                    "duration": 0.41846799999999007
                },
                {
                    "name": "E4",
                    "midi": 64,
                    "time": 156.71626599999897,
                    "velocity": 0.33070866141732286,
                    "duration": 0.20923400000000925
                },
                {
                    "name": "G#4",
                    "midi": 68,
                    "time": 156.71626599999897,
                    "velocity": 0.33070866141732286,
                    "duration": 0.20923400000000925
                },
                {
                    "name": "C5",
                    "midi": 72,
                    "time": 156.92549999999898,
                    "velocity": 0.3779527559055118,
                    "duration": 0.6277019999999993
                },
                {
                    "name": "F4",
                    "midi": 65,
                    "time": 156.92549999999898,
                    "velocity": 0.31496062992125984,
                    "duration": 1.0461699999999894
                },
                {
                    "name": "F5",
                    "midi": 77,
                    "time": 157.55320199999898,
                    "velocity": 0.3779527559055118,
                    "duration": 0.41846799999999007
                },
                {
                    "name": "C4",
                    "midi": 60,
                    "time": 158.18090399999897,
                    "velocity": 0.31496062992125984,
                    "duration": 0.6277019999999709
                },
                {
                    "name": "C5",
                    "midi": 72,
                    "time": 158.18090399999897,
                    "velocity": 0.3937007874015748,
                    "duration": 0.31385099999999966
                },
                {
                    "name": "B4",
                    "midi": 71,
                    "time": 158.49475499999897,
                    "velocity": 0.29133858267716534,
                    "duration": 0.10461699999999041
                },
                {
                    "name": "A4",
                    "midi": 69,
                    "time": 158.59937199999897,
                    "velocity": 0.29133858267716534,
                    "duration": 0.10461699999999041
                },
                {
                    "name": "B4",
                    "midi": 71,
                    "time": 158.70398899999896,
                    "velocity": 0.29133858267716534,
                    "duration": 0.10461699999999041
                },
                {
                    "name": "D4",
                    "midi": 62,
                    "time": 158.80860599999895,
                    "velocity": 0.28346456692913385,
                    "duration": 0.6277019999999993
                },
                {
                    "name": "C5",
                    "midi": 72,
                    "time": 158.80860599999895,
                    "velocity": 0.33858267716535434,
                    "duration": 0.41846799999999007
                },
                {
                    "name": "A4",
                    "midi": 69,
                    "time": 159.22707399999894,
                    "velocity": 0.33858267716535434,
                    "duration": 0.20923400000000925
                },
                {
                    "name": "E4",
                    "midi": 64,
                    "time": 159.43630799999895,
                    "velocity": 0.31496062992125984,
                    "duration": 0.6277019999999709
                },
                {
                    "name": "C5",
                    "midi": 72,
                    "time": 159.43630799999895,
                    "velocity": 0.3937007874015748,
                    "duration": 0.31385099999999966
                },
                {
                    "name": "B4",
                    "midi": 71,
                    "time": 159.75015899999894,
                    "velocity": 0.2992125984251969,
                    "duration": 0.10461699999999041
                },
                {
                    "name": "A4",
                    "midi": 69,
                    "time": 159.85477599999894,
                    "velocity": 0.2992125984251969,
                    "duration": 0.10461699999999041
                },
                {
                    "name": "B4",
                    "midi": 71,
                    "time": 159.95939299999893,
                    "velocity": 0.2992125984251969,
                    "duration": 0.10461699999999041
                },
                {
                    "name": "D4",
                    "midi": 62,
                    "time": 160.06400999999892,
                    "velocity": 0.28346456692913385,
                    "duration": 0.5753934999999899
                },
                {
                    "name": "C5",
                    "midi": 72,
                    "time": 160.06400999999892,
                    "velocity": 0.33858267716535434,
                    "duration": 0.5753934999999899
                },
                {
                    "name": "A4",
                    "midi": 69,
                    "time": 160.69171199999892,
                    "velocity": 0.31496062992125984,
                    "duration": 0.6277019999999709
                },
                {
                    "name": "E5",
                    "midi": 76,
                    "time": 160.69171199999892,
                    "velocity": 0.3937007874015748,
                    "duration": 0.31385099999999966
                },
                {
                    "name": "F5",
                    "midi": 77,
                    "time": 161.00556299999892,
                    "velocity": 0.33070866141732286,
                    "duration": 0.10461699999999041
                },
                {
                    "name": "G5",
                    "midi": 79,
                    "time": 161.1101799999989,
                    "velocity": 0.36220472440944884,
                    "duration": 0.10461699999999041
                },
                {
                    "name": "F5",
                    "midi": 77,
                    "time": 161.2147969999989,
                    "velocity": 0.33070866141732286,
                    "duration": 0.10461699999999041
                },
                {
                    "name": "E5",
                    "midi": 76,
                    "time": 161.3194139999989,
                    "velocity": 0.4015748031496063,
                    "duration": 0.41846799999999007
                },
                {
                    "name": "A4",
                    "midi": 69,
                    "time": 161.3194139999989,
                    "velocity": 0.3228346456692913,
                    "duration": 0.41846799999999007
                },
                {
                    "name": "G#4",
                    "midi": 68,
                    "time": 161.73788199999888,
                    "velocity": 0.3543307086614173,
                    "duration": 0.20923400000000925
                },
                {
                    "name": "C5",
                    "midi": 72,
                    "time": 161.73788199999888,
                    "velocity": 0.3543307086614173,
                    "duration": 0.20923400000000925
                },
                {
                    "name": "E5",
                    "midi": 76,
                    "time": 161.94711599999889,
                    "velocity": 0.4015748031496063,
                    "duration": 0.6277019999999993
                },
                {
                    "name": "A4",
                    "midi": 69,
                    "time": 161.94711599999889,
                    "velocity": 0.33070866141732286,
                    "duration": 0.8369360000000086
                },
                {
                    "name": "A5",
                    "midi": 81,
                    "time": 162.57481799999888,
                    "velocity": 0.41732283464566927,
                    "duration": 1.0461700000000178
                },
                {
                    "name": "G#4",
                    "midi": 68,
                    "time": 162.7840519999989,
                    "velocity": 0.44881889763779526,
                    "duration": 0.20923400000000925
                },
                {
                    "name": "G4",
                    "midi": 67,
                    "time": 162.9932859999989,
                    "velocity": 0.48031496062992124,
                    "duration": 0.20923400000000925
                },
                {
                    "name": "F#4",
                    "midi": 66,
                    "time": 163.2025199999989,
                    "velocity": 0.5511811023622047,
                    "duration": 1.255404000000027
                },
                {
                    "name": "F#5",
                    "midi": 78,
                    "time": 163.6209879999989,
                    "velocity": 0.41732283464566927,
                    "duration": 0.20923400000000925
                },
                {
                    "name": "D5",
                    "midi": 74,
                    "time": 163.8302219999989,
                    "velocity": 0.41732283464566927,
                    "duration": 0.20923400000000925
                },
                {
                    "name": "D#5",
                    "midi": 75,
                    "time": 164.03945599999892,
                    "velocity": 0.41732283464566927,
                    "duration": 0.20923400000000925
                },
                {
                    "name": "E5",
                    "midi": 76,
                    "time": 164.24868999999893,
                    "velocity": 0.41732283464566927,
                    "duration": 0.20923400000000925
                },
                {
                    "name": "F4",
                    "midi": 65,
                    "time": 164.45792399999894,
                    "velocity": 0.3464566929133858,
                    "duration": 1.0461699999999894
                },
                {
                    "name": "F5",
                    "midi": 77,
                    "time": 164.45792399999894,
                    "velocity": 0.41732283464566927,
                    "duration": 0.41846799999999007
                },
                {
                    "name": "D5",
                    "midi": 74,
                    "time": 164.87639199999893,
                    "velocity": 0.3937007874015748,
                    "duration": 0.20923400000000925
                },
                {
                    "name": "B4",
                    "midi": 71,
                    "time": 165.08562599999894,
                    "velocity": 0.3700787401574803,
                    "duration": 0.41846799999999007
                },
                {
                    "name": "F#4",
                    "midi": 66,
                    "time": 165.71332799999894,
                    "velocity": 0.5039370078740157,
                    "duration": 1.2554040000000555
                },
                {
                    "name": "A5",
                    "midi": 81,
                    "time": 165.92256199999895,
                    "velocity": 0.41732283464566927,
                    "duration": 0.20923400000000925
                },
                {
                    "name": "F#5",
                    "midi": 78,
                    "time": 166.13179599999896,
                    "velocity": 0.3700787401574803,
                    "duration": 0.20923400000000925
                },
                {
                    "name": "D5",
                    "midi": 74,
                    "time": 166.34102999999897,
                    "velocity": 0.3858267716535433,
                    "duration": 0.20923400000000925
                },
                {
                    "name": "D#5",
                    "midi": 75,
                    "time": 166.55026399999898,
                    "velocity": 0.41732283464566927,
                    "duration": 0.20923400000000925
                },
                {
                    "name": "E5",
                    "midi": 76,
                    "time": 166.75949799999898,
                    "velocity": 0.4251968503937008,
                    "duration": 0.4184680000000185
                },
                {
                    "name": "F4",
                    "midi": 65,
                    "time": 166.968731999999,
                    "velocity": 0.3464566929133858,
                    "duration": 1.1769412500000271
                },
                {
                    "name": "F5",
                    "midi": 77,
                    "time": 167.177965999999,
                    "velocity": 0.4881889763779528,
                    "duration": 0.20923400000000925
                },
                {
                    "name": "D5",
                    "midi": 74,
                    "time": 167.387199999999,
                    "velocity": 0.41732283464566927,
                    "duration": 0.20923400000000925
                },
                {
                    "name": "B4",
                    "midi": 71,
                    "time": 167.59643399999902,
                    "velocity": 0.4409448818897638,
                    "duration": 0.5492392499999994
                },
                {
                    "name": "D5",
                    "midi": 74,
                    "time": 168.22413599999902,
                    "velocity": 0.44881889763779526,
                    "duration": 1.255404000000027
                },
                {
                    "name": "D6",
                    "midi": 86,
                    "time": 168.22413599999902,
                    "velocity": 0.6299212598425197,
                    "duration": 0.41846799999999007
                },
                {
                    "name": "A#5",
                    "midi": 82,
                    "time": 168.642603999999,
                    "velocity": 0.4881889763779528,
                    "duration": 0.20923400000000925
                },
                {
                    "name": "F#5",
                    "midi": 78,
                    "time": 168.85183799999902,
                    "velocity": 0.41732283464566927,
                    "duration": 0.20923400000000925
                },
                {
                    "name": "G5",
                    "midi": 79,
                    "time": 169.06107199999903,
                    "velocity": 0.47244094488188976,
                    "duration": 0.20923400000000925
                },
                {
                    "name": "A5",
                    "midi": 81,
                    "time": 169.27030599999904,
                    "velocity": 0.49606299212598426,
                    "duration": 0.20923400000000925
                },
                {
                    "name": "A#5",
                    "midi": 82,
                    "time": 169.47953999999905,
                    "velocity": 0.5590551181102362,
                    "duration": 0.41846799999999007
                },
                {
                    "name": "A#4",
                    "midi": 70,
                    "time": 169.47953999999905,
                    "velocity": 0.47244094488188976,
                    "duration": 1.2554039999999986
                },
                {
                    "name": "G5",
                    "midi": 79,
                    "time": 169.89800799999904,
                    "velocity": 0.4330708661417323,
                    "duration": 0.20923400000000925
                },
                {
                    "name": "E5",
                    "midi": 76,
                    "time": 170.10724199999905,
                    "velocity": 0.3937007874015748,
                    "duration": 0.6277019999999993
                },
                {
                    "name": "D5",
                    "midi": 74,
                    "time": 170.73494399999905,
                    "velocity": 0.5354330708661418,
                    "duration": 1.2554040000000555
                },
                {
                    "name": "D6",
                    "midi": 86,
                    "time": 170.94417799999906,
                    "velocity": 0.5511811023622047,
                    "duration": 0.20923400000000925
                },
                {
                    "name": "A#5",
                    "midi": 82,
                    "time": 171.15341199999907,
                    "velocity": 0.4881889763779528,
                    "duration": 0.20923400000000925
                },
                {
                    "name": "F#5",
                    "midi": 78,
                    "time": 171.36264599999907,
                    "velocity": 0.41732283464566927,
                    "duration": 0.20923400000000925
                },
                {
                    "name": "G5",
                    "midi": 79,
                    "time": 171.57187999999908,
                    "velocity": 0.47244094488188976,
                    "duration": 0.20923400000000925
                },
                {
                    "name": "A5",
                    "midi": 81,
                    "time": 171.7811139999991,
                    "velocity": 0.49606299212598426,
                    "duration": 0.4184680000000185
                },
                {
                    "name": "A#4",
                    "midi": 70,
                    "time": 171.9903479999991,
                    "velocity": 0.4645669291338583,
                    "duration": 1.2554040000000555
                },
                {
                    "name": "A#5",
                    "midi": 82,
                    "time": 172.1995819999991,
                    "velocity": 0.4881889763779528,
                    "duration": 0.20923400000000925
                },
                {
                    "name": "G5",
                    "midi": 79,
                    "time": 172.40881599999912,
                    "velocity": 0.44881889763779526,
                    "duration": 0.20923400000000925
                },
                {
                    "name": "C#5",
                    "midi": 73,
                    "time": 172.61804999999913,
                    "velocity": 0.4409448818897638,
                    "duration": 0.20923400000000925
                },
                {
                    "name": "D5",
                    "midi": 74,
                    "time": 172.82728399999914,
                    "velocity": 0.4566929133858268,
                    "duration": 0.20923400000000925
                },
                {
                    "name": "E5",
                    "midi": 76,
                    "time": 173.03651799999915,
                    "velocity": 0.49606299212598426,
                    "duration": 0.4184680000000185
                },
                {
                    "name": "F5",
                    "midi": 77,
                    "time": 173.45498599999917,
                    "velocity": 0.4566929133858268,
                    "duration": 0.20923400000000925
                },
                {
                    "name": "D5",
                    "midi": 74,
                    "time": 173.66421999999918,
                    "velocity": 0.41732283464566927,
                    "duration": 0.20923400000000925
                },
                {
                    "name": "F#4",
                    "midi": 66,
                    "time": 173.87345399999919,
                    "velocity": 0.3700787401574803,
                    "duration": 0.20923400000000925
                },
                {
                    "name": "G4",
                    "midi": 67,
                    "time": 174.0826879999992,
                    "velocity": 0.33858267716535434,
                    "duration": 0.20923400000000925
                },
                {
                    "name": "A4",
                    "midi": 69,
                    "time": 174.2919219999992,
                    "velocity": 0.3464566929133858,
                    "duration": 0.20923400000000925
                },
                {
                    "name": "A#4",
                    "midi": 70,
                    "time": 174.5011559999992,
                    "velocity": 0.36220472440944884,
                    "duration": 0.20923400000000925
                },
                {
                    "name": "C#5",
                    "midi": 73,
                    "time": 174.71038999999922,
                    "velocity": 0.33070866141732286,
                    "duration": 0.20923400000000925
                },
                {
                    "name": "D5",
                    "midi": 74,
                    "time": 174.91962399999923,
                    "velocity": 0.30708661417322836,
                    "duration": 0.20923400000000925
                },
                {
                    "name": "F#5",
                    "midi": 78,
                    "time": 175.12885799999924,
                    "velocity": 0.2440944881889764,
                    "duration": 0.20923400000000925
                },
                {
                    "name": "A#4",
                    "midi": 70,
                    "time": 175.33809199999925,
                    "velocity": 0.1968503937007874,
                    "duration": 0.05230850000000942
                },
                {
                    "name": "D5",
                    "midi": 74,
                    "time": 175.33809199999925,
                    "velocity": 0.1968503937007874,
                    "duration": 0.05230850000000942
                },
                {
                    "name": "G5",
                    "midi": 79,
                    "time": 175.33809199999925,
                    "velocity": 0.25196850393700787,
                    "duration": 0.05230850000000942
                },
                {
                    "name": "D5",
                    "midi": 74,
                    "time": 175.54732599999926,
                    "velocity": 0.2047244094488189,
                    "duration": 0.05230850000000942
                },
                {
                    "name": "G5",
                    "midi": 79,
                    "time": 175.54732599999926,
                    "velocity": 0.2047244094488189,
                    "duration": 0.05230850000000942
                },
                {
                    "name": "A#5",
                    "midi": 82,
                    "time": 175.54732599999926,
                    "velocity": 0.25984251968503935,
                    "duration": 0.05230850000000942
                },
                {
                    "name": "D6",
                    "midi": 86,
                    "time": 175.75655999999927,
                    "velocity": 0.31496062992125984,
                    "duration": 0.05230850000000942
                },
                {
                    "name": "A#5",
                    "midi": 82,
                    "time": 175.75655999999927,
                    "velocity": 0.25196850393700787,
                    "duration": 0.05230850000000942
                },
                {
                    "name": "G5",
                    "midi": 79,
                    "time": 175.75655999999927,
                    "velocity": 0.25196850393700787,
                    "duration": 0.05230850000000942
                },
                {
                    "name": "A#3",
                    "midi": 58,
                    "time": 177.01196399999927,
                    "velocity": 0.28346456692913385,
                    "duration": 1.2554039999999986
                },
                {
                    "name": "E4",
                    "midi": 64,
                    "time": 177.01196399999927,
                    "velocity": 0.28346456692913385,
                    "duration": 1.2554039999999986
                },
                {
                    "name": "A4",
                    "midi": 69,
                    "time": 177.01196399999927,
                    "velocity": 0.31496062992125984,
                    "duration": 1.2554039999999986
                },
                {
                    "name": "A3",
                    "midi": 57,
                    "time": 178.26736799999927,
                    "velocity": 0.25196850393700787,
                    "duration": 0.6277019999999709
                },
                {
                    "name": "F4",
                    "midi": 65,
                    "time": 178.26736799999927,
                    "velocity": 0.31496062992125984,
                    "duration": 0.31385099999999966
                },
                {
                    "name": "E4",
                    "midi": 64,
                    "time": 178.58121899999927,
                    "velocity": 0.23622047244094488,
                    "duration": 0.10461699999999041
                },
                {
                    "name": "F4",
                    "midi": 65,
                    "time": 178.68583599999926,
                    "velocity": 0.23622047244094488,
                    "duration": 0.10461699999999041
                },
                {
                    "name": "G4",
                    "midi": 67,
                    "time": 178.79045299999925,
                    "velocity": 0.23622047244094488,
                    "duration": 0.10461699999999041
                },
                {
                    "name": "A#3",
                    "midi": 58,
                    "time": 178.89506999999924,
                    "velocity": 0.23622047244094488,
                    "duration": 0.6277019999999993
                },
                {
                    "name": "E4",
                    "midi": 64,
                    "time": 178.89506999999924,
                    "velocity": 0.2992125984251969,
                    "duration": 0.6277019999999993
                },
                {
                    "name": "A4",
                    "midi": 69,
                    "time": 178.89506999999924,
                    "velocity": 0.2677165354330709,
                    "duration": 0.6277019999999993
                },
                {
                    "name": "F4",
                    "midi": 65,
                    "time": 179.52277199999924,
                    "velocity": 0.31496062992125984,
                    "duration": 0.31385099999999966
                },
                {
                    "name": "E4",
                    "midi": 64,
                    "time": 179.83662299999924,
                    "velocity": 0.23622047244094488,
                    "duration": 0.10461699999999041
                },
                {
                    "name": "F4",
                    "midi": 65,
                    "time": 179.94123999999923,
                    "velocity": 0.23622047244094488,
                    "duration": 0.10461699999999041
                },
                {
                    "name": "G4",
                    "midi": 67,
                    "time": 180.04585699999922,
                    "velocity": 0.23622047244094488,
                    "duration": 0.10461699999999041
                },
                {
                    "name": "E4",
                    "midi": 64,
                    "time": 180.1504739999992,
                    "velocity": 0.2992125984251969,
                    "duration": 0.6277019999999993
                },
                {
                    "name": "A#3",
                    "midi": 58,
                    "time": 180.1504739999992,
                    "velocity": 0.23622047244094488,
                    "duration": 0.6277019999999993
                },
                {
                    "name": "A4",
                    "midi": 69,
                    "time": 180.1504739999992,
                    "velocity": 0.2677165354330709,
                    "duration": 0.6277019999999993
                },
                {
                    "name": "A3",
                    "midi": 57,
                    "time": 180.7781759999992,
                    "velocity": 0.1889763779527559,
                    "duration": 0.20923399999998082
                },
                {
                    "name": "F4",
                    "midi": 65,
                    "time": 180.78689408333253,
                    "velocity": 0.2283464566929134,
                    "duration": 0.20923399999998082
                },
                {
                    "name": "A4",
                    "midi": 69,
                    "time": 181.40587799999918,
                    "velocity": 0.14960629921259844,
                    "duration": 0.2135930416666838
                },
                {
                    "name": "F5",
                    "midi": 77,
                    "time": 181.40587799999918,
                    "velocity": 0.1889763779527559,
                    "duration": 0.20923400000000925
                },
                {
                    "name": "F6",
                    "midi": 89,
                    "time": 182.0335799999992,
                    "velocity": 0.1968503937007874,
                    "duration": 1.0461699999999894
                },
                {
                    "name": "A5",
                    "midi": 81,
                    "time": 182.0335799999992,
                    "velocity": 0.15748031496062992,
                    "duration": 1.0461699999999894
                }
            ],
            "controlChanges": {},
            "id": 1,
            "name": "Piano right",
            "instrumentNumber": 0,
            "instrument": "acoustic grand piano",
            "instrumentFamily": "piano",
            "channelNumber": 0,
            "isPercussion": false
        },
        {
            "startTime": 0,
            "duration": 183.0797499999997,
            "length": 386,
            "notes": [
                {
                    "name": "F2",
                    "midi": 41,
                    "time": 0,
                    "velocity": 0.1889763779527559,
                    "duration": 2.5108079999999995
                },
                {
                    "name": "C3",
                    "midi": 48,
                    "time": 0,
                    "velocity": 0.2204724409448819,
                    "duration": 0.627702
                },
                {
                    "name": "D3",
                    "midi": 50,
                    "time": 0.627702,
                    "velocity": 0.1889763779527559,
                    "duration": 0.627702
                },
                {
                    "name": "E3",
                    "midi": 52,
                    "time": 1.255404,
                    "velocity": 0.2204724409448819,
                    "duration": 0.627702
                },
                {
                    "name": "D3",
                    "midi": 50,
                    "time": 1.883106,
                    "velocity": 0.1889763779527559,
                    "duration": 0.5753934999999999
                },
                {
                    "name": "F2",
                    "midi": 41,
                    "time": 2.4584995,
                    "velocity": 0.1968503937007874,
                    "duration": 1.3077124999999992
                },
                {
                    "name": "C3",
                    "midi": 48,
                    "time": 2.4846537499999997,
                    "velocity": 0.2283464566929134,
                    "duration": 1.2554039999999995
                },
                {
                    "name": "A3",
                    "midi": 57,
                    "time": 2.5108079999999995,
                    "velocity": 0.23622047244094488,
                    "duration": 0.6277019999999998
                },
                {
                    "name": "A#3",
                    "midi": 58,
                    "time": 3.1385099999999992,
                    "velocity": 0.23622047244094488,
                    "duration": 0.6277019999999998
                },
                {
                    "name": "F2",
                    "midi": 41,
                    "time": 3.7139034999999994,
                    "velocity": 0.18110236220472442,
                    "duration": 1.0984784999999992
                },
                {
                    "name": "C3",
                    "midi": 48,
                    "time": 3.740057749999999,
                    "velocity": 0.2125984251968504,
                    "duration": 1.0461699999999992
                },
                {
                    "name": "A3",
                    "midi": 57,
                    "time": 3.766211999999999,
                    "velocity": 0.25196850393700787,
                    "duration": 0.6277019999999998
                },
                {
                    "name": "A2",
                    "midi": 45,
                    "time": 5.021615999999999,
                    "velocity": 0.2283464566929134,
                    "duration": 2.510808000000001
                },
                {
                    "name": "E3",
                    "midi": 52,
                    "time": 5.021615999999999,
                    "velocity": 0.2677165354330709,
                    "duration": 0.6277020000000002
                },
                {
                    "name": "F3",
                    "midi": 53,
                    "time": 5.649317999999999,
                    "velocity": 0.2283464566929134,
                    "duration": 0.6277020000000002
                },
                {
                    "name": "G3",
                    "midi": 55,
                    "time": 6.277019999999999,
                    "velocity": 0.2677165354330709,
                    "duration": 0.6277020000000002
                },
                {
                    "name": "F3",
                    "midi": 53,
                    "time": 6.904722,
                    "velocity": 0.2283464566929134,
                    "duration": 0.5753934999999997
                },
                {
                    "name": "A2",
                    "midi": 45,
                    "time": 7.480115499999999,
                    "velocity": 0.1968503937007874,
                    "duration": 1.3077125
                },
                {
                    "name": "E3",
                    "midi": 52,
                    "time": 7.5062697499999995,
                    "velocity": 0.2283464566929134,
                    "duration": 1.2554040000000004
                },
                {
                    "name": "C4",
                    "midi": 60,
                    "time": 7.532424,
                    "velocity": 0.2677165354330709,
                    "duration": 0.6277020000000002
                },
                {
                    "name": "D4",
                    "midi": 62,
                    "time": 8.160126,
                    "velocity": 0.25984251968503935,
                    "duration": 0.6277019999999993
                },
                {
                    "name": "A2",
                    "midi": 45,
                    "time": 8.787828,
                    "velocity": 0.1968503937007874,
                    "duration": 1.2554040000000004
                },
                {
                    "name": "E3",
                    "midi": 52,
                    "time": 8.787828,
                    "velocity": 0.2283464566929134,
                    "duration": 1.2554040000000004
                },
                {
                    "name": "C4",
                    "midi": 60,
                    "time": 8.787828,
                    "velocity": 0.2677165354330709,
                    "duration": 1.2554040000000004
                },
                {
                    "name": "D3",
                    "midi": 50,
                    "time": 10.043232,
                    "velocity": 0.2283464566929134,
                    "duration": 1.2030954999999999
                },
                {
                    "name": "C4",
                    "midi": 60,
                    "time": 10.043232,
                    "velocity": 0.2677165354330709,
                    "duration": 1.2030954999999999
                },
                {
                    "name": "G2",
                    "midi": 43,
                    "time": 11.2463275,
                    "velocity": 0.2677165354330709,
                    "duration": 1.0984784999999988
                },
                {
                    "name": "D3",
                    "midi": 50,
                    "time": 11.272481749999999,
                    "velocity": 0.2677165354330709,
                    "duration": 1.0200157499999989
                },
                {
                    "name": "B3",
                    "midi": 59,
                    "time": 11.298635999999998,
                    "velocity": 0.2677165354330709,
                    "duration": 1.04617
                },
                {
                    "name": "D3",
                    "midi": 50,
                    "time": 12.554039999999999,
                    "velocity": 0.2283464566929134,
                    "duration": 1.2030954999999999
                },
                {
                    "name": "C4",
                    "midi": 60,
                    "time": 12.554039999999999,
                    "velocity": 0.2677165354330709,
                    "duration": 1.2030954999999999
                },
                {
                    "name": "G2",
                    "midi": 43,
                    "time": 13.757135499999999,
                    "velocity": 0.2992125984251969,
                    "duration": 1.0984784999999988
                },
                {
                    "name": "D3",
                    "midi": 50,
                    "time": 13.783289749999998,
                    "velocity": 0.31496062992125984,
                    "duration": 1.0200157499999989
                },
                {
                    "name": "B3",
                    "midi": 59,
                    "time": 13.809443999999997,
                    "velocity": 0.33858267716535434,
                    "duration": 1.04617
                },
                {
                    "name": "G2",
                    "midi": 43,
                    "time": 14.986385249999998,
                    "velocity": 0.31496062992125984,
                    "duration": 1.7523347499999993
                },
                {
                    "name": "D3",
                    "midi": 50,
                    "time": 15.012539499999997,
                    "velocity": 0.33858267716535434,
                    "duration": 1.7261805
                },
                {
                    "name": "A3",
                    "midi": 57,
                    "time": 15.038693749999997,
                    "velocity": 0.36220472440944884,
                    "duration": 1.7000262500000005
                },
                {
                    "name": "C4",
                    "midi": 60,
                    "time": 15.064847999999996,
                    "velocity": 0.3779527559055118,
                    "duration": 1.6738720000000011
                },
                {
                    "name": "B3",
                    "midi": 59,
                    "time": 18.831059999999997,
                    "velocity": 0.28346456692913385,
                    "duration": 1.2554039999999986
                },
                {
                    "name": "F3",
                    "midi": 53,
                    "time": 18.831059999999997,
                    "velocity": 0.28346456692913385,
                    "duration": 1.2554039999999986
                },
                {
                    "name": "G#2",
                    "midi": 44,
                    "time": 18.831059999999997,
                    "velocity": 0.3464566929133858,
                    "duration": 1.04617
                },
                {
                    "name": "G2",
                    "midi": 43,
                    "time": 19.877229999999997,
                    "velocity": 0.25196850393700787,
                    "duration": 0.2092339999999986
                },
                {
                    "name": "C2",
                    "midi": 36,
                    "time": 20.086463999999996,
                    "velocity": 0.16535433070866143,
                    "duration": 0.6277019999999993
                },
                {
                    "name": "E3",
                    "midi": 52,
                    "time": 20.086463999999996,
                    "velocity": 0.25196850393700787,
                    "duration": 0.6277019999999993
                },
                {
                    "name": "G2",
                    "midi": 43,
                    "time": 20.086463999999996,
                    "velocity": 0.2125984251968504,
                    "duration": 0.6277019999999993
                },
                {
                    "name": "F3",
                    "midi": 53,
                    "time": 20.714165999999995,
                    "velocity": 0.23622047244094488,
                    "duration": 0.6277019999999993
                },
                {
                    "name": "B3",
                    "midi": 59,
                    "time": 20.714165999999995,
                    "velocity": 0.2992125984251969,
                    "duration": 0.6277019999999993
                },
                {
                    "name": "G#2",
                    "midi": 44,
                    "time": 20.714165999999995,
                    "velocity": 0.2992125984251969,
                    "duration": 0.6277019999999993
                },
                {
                    "name": "G#3",
                    "midi": 56,
                    "time": 20.714165999999995,
                    "velocity": 0.23622047244094488,
                    "duration": 0.6277019999999993
                },
                {
                    "name": "C2",
                    "midi": 36,
                    "time": 21.341867999999995,
                    "velocity": 0.16535433070866143,
                    "duration": 0.6277019999999993
                },
                {
                    "name": "E3",
                    "midi": 52,
                    "time": 21.341867999999995,
                    "velocity": 0.25196850393700787,
                    "duration": 0.6277019999999993
                },
                {
                    "name": "G2",
                    "midi": 43,
                    "time": 21.341867999999995,
                    "velocity": 0.2125984251968504,
                    "duration": 0.6277019999999993
                },
                {
                    "name": "F3",
                    "midi": 53,
                    "time": 21.969569999999994,
                    "velocity": 0.23622047244094488,
                    "duration": 0.6277019999999993
                },
                {
                    "name": "B3",
                    "midi": 59,
                    "time": 21.969569999999994,
                    "velocity": 0.2992125984251969,
                    "duration": 0.6277019999999993
                },
                {
                    "name": "G#2",
                    "midi": 44,
                    "time": 21.969569999999994,
                    "velocity": 0.2992125984251969,
                    "duration": 0.6277019999999993
                },
                {
                    "name": "G#3",
                    "midi": 56,
                    "time": 21.969569999999994,
                    "velocity": 0.23622047244094488,
                    "duration": 0.6277019999999993
                },
                {
                    "name": "C2",
                    "midi": 36,
                    "time": 22.597271999999993,
                    "velocity": 0.1732283464566929,
                    "duration": 0.2092339999999986
                },
                {
                    "name": "G2",
                    "midi": 43,
                    "time": 22.597271999999993,
                    "velocity": 0.2047244094488189,
                    "duration": 0.2092339999999986
                },
                {
                    "name": "C3",
                    "midi": 48,
                    "time": 23.224973999999992,
                    "velocity": 0.1732283464566929,
                    "duration": 0.2092339999999986
                },
                {
                    "name": "G3",
                    "midi": 55,
                    "time": 23.224973999999992,
                    "velocity": 0.2047244094488189,
                    "duration": 0.2092339999999986
                },
                {
                    "name": "C4",
                    "midi": 60,
                    "time": 23.85267599999999,
                    "velocity": 0.18110236220472442,
                    "duration": 1.04617
                },
                {
                    "name": "G4",
                    "midi": 67,
                    "time": 23.85267599999999,
                    "velocity": 0.2204724409448819,
                    "duration": 1.04617
                },
                {
                    "name": "F2",
                    "midi": 41,
                    "time": 25.10807999999999,
                    "velocity": 0.1889763779527559,
                    "duration": 2.510808000000001
                },
                {
                    "name": "C3",
                    "midi": 48,
                    "time": 25.10807999999999,
                    "velocity": 0.2204724409448819,
                    "duration": 0.6277019999999993
                },
                {
                    "name": "D3",
                    "midi": 50,
                    "time": 25.73578199999999,
                    "velocity": 0.1889763779527559,
                    "duration": 0.6277019999999993
                },
                {
                    "name": "E3",
                    "midi": 52,
                    "time": 26.36348399999999,
                    "velocity": 0.2204724409448819,
                    "duration": 0.6277019999999993
                },
                {
                    "name": "D3",
                    "midi": 50,
                    "time": 26.99118599999999,
                    "velocity": 0.1889763779527559,
                    "duration": 0.5753935000000006
                },
                {
                    "name": "F2",
                    "midi": 41,
                    "time": 27.56657949999999,
                    "velocity": 0.1732283464566929,
                    "duration": 1.3077125000000045
                },
                {
                    "name": "C3",
                    "midi": 48,
                    "time": 27.59273374999999,
                    "velocity": 0.2047244094488189,
                    "duration": 1.2554040000000022
                },
                {
                    "name": "A3",
                    "midi": 57,
                    "time": 27.61888799999999,
                    "velocity": 0.23622047244094488,
                    "duration": 0.6277019999999993
                },
                {
                    "name": "A#3",
                    "midi": 58,
                    "time": 28.24658999999999,
                    "velocity": 0.23622047244094488,
                    "duration": 0.6277020000000029
                },
                {
                    "name": "F2",
                    "midi": 41,
                    "time": 28.82198349999999,
                    "velocity": 0.18110236220472442,
                    "duration": 1.0984785000000024
                },
                {
                    "name": "C3",
                    "midi": 48,
                    "time": 28.848137749999992,
                    "velocity": 0.2125984251968504,
                    "duration": 1.04617
                },
                {
                    "name": "A3",
                    "midi": 57,
                    "time": 28.874291999999993,
                    "velocity": 0.25196850393700787,
                    "duration": 0.6277019999999993
                },
                {
                    "name": "A2",
                    "midi": 45,
                    "time": 30.129695999999992,
                    "velocity": 0.2283464566929134,
                    "duration": 2.5108079999999937
                },
                {
                    "name": "E3",
                    "midi": 52,
                    "time": 30.129695999999992,
                    "velocity": 0.2677165354330709,
                    "duration": 0.6277019999999993
                },
                {
                    "name": "F3",
                    "midi": 53,
                    "time": 30.75739799999999,
                    "velocity": 0.2283464566929134,
                    "duration": 0.6277019999999993
                },
                {
                    "name": "G3",
                    "midi": 55,
                    "time": 31.38509999999999,
                    "velocity": 0.2677165354330709,
                    "duration": 0.6277020000000029
                },
                {
                    "name": "F3",
                    "midi": 53,
                    "time": 32.01280199999999,
                    "velocity": 0.2283464566929134,
                    "duration": 0.575393499999997
                },
                {
                    "name": "A2",
                    "midi": 45,
                    "time": 32.58819549999999,
                    "velocity": 0.1968503937007874,
                    "duration": 1.3077124999999938
                },
                {
                    "name": "E3",
                    "midi": 52,
                    "time": 32.61434974999999,
                    "velocity": 0.2283464566929134,
                    "duration": 1.2554039999999986
                },
                {
                    "name": "C4",
                    "midi": 60,
                    "time": 32.640503999999986,
                    "velocity": 0.2677165354330709,
                    "duration": 0.6277019999999993
                },
                {
                    "name": "D4",
                    "midi": 62,
                    "time": 33.268205999999985,
                    "velocity": 0.25984251968503935,
                    "duration": 0.6277019999999993
                },
                {
                    "name": "A2",
                    "midi": 45,
                    "time": 33.895907999999984,
                    "velocity": 0.1968503937007874,
                    "duration": 1.2554039999999986
                },
                {
                    "name": "E3",
                    "midi": 52,
                    "time": 33.895907999999984,
                    "velocity": 0.2283464566929134,
                    "duration": 1.2554039999999986
                },
                {
                    "name": "C4",
                    "midi": 60,
                    "time": 33.895907999999984,
                    "velocity": 0.2677165354330709,
                    "duration": 1.2554039999999986
                },
                {
                    "name": "D3",
                    "midi": 50,
                    "time": 35.15131199999998,
                    "velocity": 0.2283464566929134,
                    "duration": 1.2030955000000034
                },
                {
                    "name": "C4",
                    "midi": 60,
                    "time": 35.15131199999998,
                    "velocity": 0.2677165354330709,
                    "duration": 1.2030955000000034
                },
                {
                    "name": "G2",
                    "midi": 43,
                    "time": 36.354407499999986,
                    "velocity": 0.2677165354330709,
                    "duration": 1.0984784999999988
                },
                {
                    "name": "D3",
                    "midi": 50,
                    "time": 36.380561749999984,
                    "velocity": 0.2677165354330709,
                    "duration": 1.0200157499999989
                },
                {
                    "name": "B3",
                    "midi": 59,
                    "time": 36.40671599999998,
                    "velocity": 0.2677165354330709,
                    "duration": 1.0461700000000036
                },
                {
                    "name": "D3",
                    "midi": 50,
                    "time": 37.66211999999999,
                    "velocity": 0.2283464566929134,
                    "duration": 1.2030955000000034
                },
                {
                    "name": "C4",
                    "midi": 60,
                    "time": 37.66211999999999,
                    "velocity": 0.2677165354330709,
                    "duration": 1.2030955000000034
                },
                {
                    "name": "G2",
                    "midi": 43,
                    "time": 38.86521549999999,
                    "velocity": 0.2992125984251969,
                    "duration": 1.0984784999999988
                },
                {
                    "name": "D3",
                    "midi": 50,
                    "time": 38.89136974999999,
                    "velocity": 0.31496062992125984,
                    "duration": 1.0200157499999989
                },
                {
                    "name": "B3",
                    "midi": 59,
                    "time": 38.917523999999986,
                    "velocity": 0.33858267716535434,
                    "duration": 1.0461700000000036
                },
                {
                    "name": "G2",
                    "midi": 43,
                    "time": 40.09446524999999,
                    "velocity": 0.31496062992125984,
                    "duration": 1.7523347499999957
                },
                {
                    "name": "D3",
                    "midi": 50,
                    "time": 40.12061949999999,
                    "velocity": 0.33858267716535434,
                    "duration": 1.7261804999999981
                },
                {
                    "name": "A3",
                    "midi": 57,
                    "time": 40.14677374999999,
                    "velocity": 0.36220472440944884,
                    "duration": 1.7000262500000005
                },
                {
                    "name": "C4",
                    "midi": 60,
                    "time": 40.172927999999985,
                    "velocity": 0.3779527559055118,
                    "duration": 1.673872000000003
                },
                {
                    "name": "B3",
                    "midi": 59,
                    "time": 43.93913999999999,
                    "velocity": 0.28346456692913385,
                    "duration": 1.2554039999999986
                },
                {
                    "name": "F3",
                    "midi": 53,
                    "time": 43.93913999999999,
                    "velocity": 0.28346456692913385,
                    "duration": 1.2554039999999986
                },
                {
                    "name": "G#2",
                    "midi": 44,
                    "time": 43.93913999999999,
                    "velocity": 0.3464566929133858,
                    "duration": 1.0461699999999965
                },
                {
                    "name": "G2",
                    "midi": 43,
                    "time": 44.985309999999984,
                    "velocity": 0.25196850393700787,
                    "duration": 0.20923400000000214
                },
                {
                    "name": "C2",
                    "midi": 36,
                    "time": 45.194543999999986,
                    "velocity": 0.16535433070866143,
                    "duration": 0.6277019999999993
                },
                {
                    "name": "E3",
                    "midi": 52,
                    "time": 45.194543999999986,
                    "velocity": 0.25196850393700787,
                    "duration": 0.6277019999999993
                },
                {
                    "name": "G2",
                    "midi": 43,
                    "time": 45.194543999999986,
                    "velocity": 0.2125984251968504,
                    "duration": 0.6277019999999993
                },
                {
                    "name": "F3",
                    "midi": 53,
                    "time": 45.822245999999986,
                    "velocity": 0.23622047244094488,
                    "duration": 0.6277019999999993
                },
                {
                    "name": "B3",
                    "midi": 59,
                    "time": 45.822245999999986,
                    "velocity": 0.2992125984251969,
                    "duration": 0.6277019999999993
                },
                {
                    "name": "G#2",
                    "midi": 44,
                    "time": 45.822245999999986,
                    "velocity": 0.2992125984251969,
                    "duration": 0.6277019999999993
                },
                {
                    "name": "G#3",
                    "midi": 56,
                    "time": 45.822245999999986,
                    "velocity": 0.23622047244094488,
                    "duration": 0.6277019999999993
                },
                {
                    "name": "C2",
                    "midi": 36,
                    "time": 46.449947999999985,
                    "velocity": 0.16535433070866143,
                    "duration": 0.6277019999999993
                },
                {
                    "name": "E3",
                    "midi": 52,
                    "time": 46.449947999999985,
                    "velocity": 0.25196850393700787,
                    "duration": 0.6277019999999993
                },
                {
                    "name": "G2",
                    "midi": 43,
                    "time": 46.449947999999985,
                    "velocity": 0.2125984251968504,
                    "duration": 0.6277019999999993
                },
                {
                    "name": "F3",
                    "midi": 53,
                    "time": 47.077649999999984,
                    "velocity": 0.23622047244094488,
                    "duration": 0.6277019999999993
                },
                {
                    "name": "B3",
                    "midi": 59,
                    "time": 47.077649999999984,
                    "velocity": 0.2992125984251969,
                    "duration": 0.6277019999999993
                },
                {
                    "name": "G#2",
                    "midi": 44,
                    "time": 47.077649999999984,
                    "velocity": 0.2992125984251969,
                    "duration": 0.6277019999999993
                },
                {
                    "name": "G#3",
                    "midi": 56,
                    "time": 47.077649999999984,
                    "velocity": 0.23622047244094488,
                    "duration": 0.6277019999999993
                },
                {
                    "name": "C2",
                    "midi": 36,
                    "time": 47.70535199999998,
                    "velocity": 0.1732283464566929,
                    "duration": 0.20923400000000214
                },
                {
                    "name": "G2",
                    "midi": 43,
                    "time": 47.70535199999998,
                    "velocity": 0.2047244094488189,
                    "duration": 0.20923400000000214
                },
                {
                    "name": "C3",
                    "midi": 48,
                    "time": 48.33305399999998,
                    "velocity": 0.1732283464566929,
                    "duration": 0.20923400000000214
                },
                {
                    "name": "G3",
                    "midi": 55,
                    "time": 48.33305399999998,
                    "velocity": 0.2047244094488189,
                    "duration": 0.20923400000000214
                },
                {
                    "name": "C4",
                    "midi": 60,
                    "time": 48.96075599999998,
                    "velocity": 0.18110236220472442,
                    "duration": 1.0461699999999965
                },
                {
                    "name": "G4",
                    "midi": 67,
                    "time": 48.96075599999998,
                    "velocity": 0.2204724409448819,
                    "duration": 1.0461699999999965
                },
                {
                    "name": "C3",
                    "midi": 48,
                    "time": 50.21615999999998,
                    "velocity": 0.1889763779527559,
                    "duration": 2.51080799999999
                },
                {
                    "name": "A#3",
                    "midi": 58,
                    "time": 50.21615999999998,
                    "velocity": 0.2204724409448819,
                    "duration": 1.0461699999999965
                },
                {
                    "name": "C4",
                    "midi": 60,
                    "time": 51.26232999999998,
                    "velocity": 0.2677165354330709,
                    "duration": 0.20923400000000214
                },
                {
                    "name": "D4",
                    "midi": 62,
                    "time": 51.47156399999998,
                    "velocity": 0.29133858267716534,
                    "duration": 1.0461699999999965
                },
                {
                    "name": "D#4",
                    "midi": 63,
                    "time": 52.517733999999976,
                    "velocity": 0.29133858267716534,
                    "duration": 0.15692549999999983
                },
                {
                    "name": "C3",
                    "midi": 48,
                    "time": 52.674659499999976,
                    "velocity": 0.29133858267716534,
                    "duration": 0.26154249999999735
                },
                {
                    "name": "A#3",
                    "midi": 58,
                    "time": 52.70081374999997,
                    "velocity": 0.3228346456692913,
                    "duration": 0.23538824999999974
                },
                {
                    "name": "E4",
                    "midi": 64,
                    "time": 52.72696799999997,
                    "velocity": 0.3700787401574803,
                    "duration": 0.20923400000000214
                },
                {
                    "name": "F3",
                    "midi": 53,
                    "time": 55.237775999999975,
                    "velocity": 0.2047244094488189,
                    "duration": 2.51080799999999
                },
                {
                    "name": "D#4",
                    "midi": 63,
                    "time": 55.237775999999975,
                    "velocity": 0.23622047244094488,
                    "duration": 1.0461699999999965
                },
                {
                    "name": "F4",
                    "midi": 65,
                    "time": 56.28394599999997,
                    "velocity": 0.31496062992125984,
                    "duration": 0.20923400000000214
                },
                {
                    "name": "G4",
                    "midi": 67,
                    "time": 56.493179999999974,
                    "velocity": 0.3464566929133858,
                    "duration": 1.0461699999999965
                },
                {
                    "name": "G#4",
                    "midi": 68,
                    "time": 57.53934999999997,
                    "velocity": 0.29133858267716534,
                    "duration": 0.15692549999999983
                },
                {
                    "name": "F3",
                    "midi": 53,
                    "time": 57.69627549999997,
                    "velocity": 0.29133858267716534,
                    "duration": 0.26154249999999735
                },
                {
                    "name": "D#4",
                    "midi": 63,
                    "time": 57.72242974999997,
                    "velocity": 0.3228346456692913,
                    "duration": 0.23538824999999974
                },
                {
                    "name": "A4",
                    "midi": 69,
                    "time": 57.748583999999965,
                    "velocity": 0.3700787401574803,
                    "duration": 0.20923400000000214
                },
                {
                    "name": "A#2",
                    "midi": 46,
                    "time": 60.25939199999997,
                    "velocity": 0.4566929133858268,
                    "duration": 0.4184679999999972
                },
                {
                    "name": "F3",
                    "midi": 53,
                    "time": 60.67785999999997,
                    "velocity": 0.4094488188976378,
                    "duration": 0.20923400000000214
                },
                {
                    "name": "A#3",
                    "midi": 58,
                    "time": 60.88709399999997,
                    "velocity": 0.4566929133858268,
                    "duration": 0.4184679999999972
                },
                {
                    "name": "C4",
                    "midi": 60,
                    "time": 61.305561999999966,
                    "velocity": 0.41732283464566927,
                    "duration": 0.20923400000000214
                },
                {
                    "name": "D4",
                    "midi": 62,
                    "time": 61.51479599999997,
                    "velocity": 0.49606299212598426,
                    "duration": 0.4184679999999972
                },
                {
                    "name": "F4",
                    "midi": 65,
                    "time": 61.933263999999966,
                    "velocity": 0.5118110236220472,
                    "duration": 0.20923400000000214
                },
                {
                    "name": "A#4",
                    "midi": 70,
                    "time": 62.14249799999997,
                    "velocity": 0.5826771653543307,
                    "duration": 0.4184679999999972
                },
                {
                    "name": "A4",
                    "midi": 69,
                    "time": 62.560965999999965,
                    "velocity": 0.4566929133858268,
                    "duration": 0.13077125000000223
                },
                {
                    "name": "E3",
                    "midi": 52,
                    "time": 62.69173724999997,
                    "velocity": 0.3228346456692913,
                    "duration": 1.7523347499999957
                },
                {
                    "name": "B3",
                    "midi": 59,
                    "time": 62.717891499999965,
                    "velocity": 0.3700787401574803,
                    "duration": 1.7261804999999981
                },
                {
                    "name": "D4",
                    "midi": 62,
                    "time": 62.74404574999996,
                    "velocity": 0.41732283464566927,
                    "duration": 1.7000262500000005
                },
                {
                    "name": "A4",
                    "midi": 69,
                    "time": 62.77019999999996,
                    "velocity": 0.6377952755905512,
                    "duration": 1.2554039999999986
                },
                {
                    "name": "G#4",
                    "midi": 68,
                    "time": 64.02560399999996,
                    "velocity": 0.4094488188976378,
                    "duration": 0.4184680000000043
                },
                {
                    "name": "A#2",
                    "midi": 46,
                    "time": 65.28100799999996,
                    "velocity": 0.4566929133858268,
                    "duration": 0.4184680000000043
                },
                {
                    "name": "F3",
                    "midi": 53,
                    "time": 65.69947599999996,
                    "velocity": 0.4094488188976378,
                    "duration": 0.20923399999999504
                },
                {
                    "name": "A#3",
                    "midi": 58,
                    "time": 65.90870999999996,
                    "velocity": 0.4566929133858268,
                    "duration": 0.4184680000000043
                },
                {
                    "name": "C4",
                    "midi": 60,
                    "time": 66.32717799999996,
                    "velocity": 0.41732283464566927,
                    "duration": 0.20923399999999504
                },
                {
                    "name": "C#4",
                    "midi": 61,
                    "time": 66.53641199999996,
                    "velocity": 0.49606299212598426,
                    "duration": 0.4184680000000043
                },
                {
                    "name": "F4",
                    "midi": 65,
                    "time": 66.95487999999996,
                    "velocity": 0.5511811023622047,
                    "duration": 0.20923399999999504
                },
                {
                    "name": "A#4",
                    "midi": 70,
                    "time": 67.16411399999996,
                    "velocity": 0.5984251968503937,
                    "duration": 0.4184680000000043
                },
                {
                    "name": "G#4",
                    "midi": 68,
                    "time": 67.58258199999996,
                    "velocity": 0.4881889763779528,
                    "duration": 0.13077124999999512
                },
                {
                    "name": "D#3",
                    "midi": 51,
                    "time": 67.71335324999995,
                    "velocity": 0.33858267716535434,
                    "duration": 1.752334750000017
                },
                {
                    "name": "A#3",
                    "midi": 58,
                    "time": 67.73950749999996,
                    "velocity": 0.4015748031496063,
                    "duration": 1.7261805000000123
                },
                {
                    "name": "C#4",
                    "midi": 61,
                    "time": 67.76566174999996,
                    "velocity": 0.44881889763779526,
                    "duration": 1.7000262500000076
                },
                {
                    "name": "G#4",
                    "midi": 68,
                    "time": 67.79181599999997,
                    "velocity": 0.6771653543307087,
                    "duration": 1.2554039999999986
                },
                {
                    "name": "G4",
                    "midi": 67,
                    "time": 69.04721999999997,
                    "velocity": 0.4881889763779528,
                    "duration": 0.4184680000000043
                },
                {
                    "name": "C#3",
                    "midi": 49,
                    "time": 69.62261349999997,
                    "velocity": 0.47244094488188976,
                    "duration": 0.052308499999995206
                },
                {
                    "name": "F#4",
                    "midi": 66,
                    "time": 69.67492199999997,
                    "velocity": 0.6299212598425197,
                    "duration": 0.4184680000000043
                },
                {
                    "name": "F4",
                    "midi": 65,
                    "time": 70.09338999999997,
                    "velocity": 0.5984251968503937,
                    "duration": 0.20923399999999504
                },
                {
                    "name": "C3",
                    "midi": 48,
                    "time": 70.25031549999997,
                    "velocity": 0.5748031496062992,
                    "duration": 4.864690499999995
                },
                {
                    "name": "C2",
                    "midi": 36,
                    "time": 70.25031549999997,
                    "velocity": 0.5748031496062992,
                    "duration": 4.864690499999995
                },
                {
                    "name": "G3",
                    "midi": 55,
                    "time": 70.30262399999997,
                    "velocity": 0.5039370078740157,
                    "duration": 4.8123819999999995
                },
                {
                    "name": "A#3",
                    "midi": 58,
                    "time": 70.30262399999997,
                    "velocity": 0.5039370078740157,
                    "duration": 4.8123819999999995
                },
                {
                    "name": "F4",
                    "midi": 65,
                    "time": 70.30262399999997,
                    "velocity": 0.5433070866141733,
                    "duration": 1.2554039999999986
                },
                {
                    "name": "E4",
                    "midi": 64,
                    "time": 71.55802799999996,
                    "velocity": 0.5196850393700787,
                    "duration": 3.556978000000001
                },
                {
                    "name": "C#3",
                    "midi": 49,
                    "time": 76.52733549999996,
                    "velocity": 0.2283464566929134,
                    "duration": 0.26154249999999024
                },
                {
                    "name": "A#3",
                    "midi": 58,
                    "time": 76.57964399999996,
                    "velocity": 0.29133858267716534,
                    "duration": 0.20923399999999504
                },
                {
                    "name": "C#2",
                    "midi": 37,
                    "time": 77.20734599999996,
                    "velocity": 0.2283464566929134,
                    "duration": 0.20923399999999504
                },
                {
                    "name": "C3",
                    "midi": 48,
                    "time": 79.03814349999995,
                    "velocity": 0.2283464566929134,
                    "duration": 0.26154249999999024
                },
                {
                    "name": "A#3",
                    "midi": 58,
                    "time": 79.09045199999994,
                    "velocity": 0.29133858267716534,
                    "duration": 0.20923399999999504
                },
                {
                    "name": "C2",
                    "midi": 36,
                    "time": 79.71815399999994,
                    "velocity": 0.25984251968503935,
                    "duration": 0.20923399999999504
                },
                {
                    "name": "C2",
                    "midi": 36,
                    "time": 85.94286549999994,
                    "velocity": 0.1889763779527559,
                    "duration": 0.6800104999999945
                },
                {
                    "name": "E3",
                    "midi": 52,
                    "time": 85.99517399999993,
                    "velocity": 0.2440944881889764,
                    "duration": 0.4184680000000043
                },
                {
                    "name": "D3",
                    "midi": 50,
                    "time": 86.41364199999994,
                    "velocity": 0.2125984251968504,
                    "duration": 0.20923399999999504
                },
                {
                    "name": "F2",
                    "midi": 41,
                    "time": 86.62287599999993,
                    "velocity": 0.16535433070866143,
                    "duration": 2.5108080000000115
                },
                {
                    "name": "C3",
                    "midi": 48,
                    "time": 86.62287599999993,
                    "velocity": 0.1968503937007874,
                    "duration": 0.6277019999999993
                },
                {
                    "name": "D3",
                    "midi": 50,
                    "time": 87.25057799999993,
                    "velocity": 0.16535433070866143,
                    "duration": 0.6277019999999993
                },
                {
                    "name": "E3",
                    "midi": 52,
                    "time": 87.87827999999993,
                    "velocity": 0.1968503937007874,
                    "duration": 0.6277019999999993
                },
                {
                    "name": "D3",
                    "midi": 50,
                    "time": 88.50598199999993,
                    "velocity": 0.16535433070866143,
                    "duration": 0.5753935000000041
                },
                {
                    "name": "F2",
                    "midi": 41,
                    "time": 89.08137549999994,
                    "velocity": 0.1968503937007874,
                    "duration": 1.3077125000000223
                },
                {
                    "name": "C3",
                    "midi": 48,
                    "time": 89.10752974999994,
                    "velocity": 0.2283464566929134,
                    "duration": 1.2554040000000128
                },
                {
                    "name": "A3",
                    "midi": 57,
                    "time": 89.13368399999995,
                    "velocity": 0.23622047244094488,
                    "duration": 0.6277019999999993
                },
                {
                    "name": "A#3",
                    "midi": 58,
                    "time": 89.76138599999994,
                    "velocity": 0.23622047244094488,
                    "duration": 0.6277020000000135
                },
                {
                    "name": "F2",
                    "midi": 41,
                    "time": 90.33677949999995,
                    "velocity": 0.18110236220472442,
                    "duration": 1.098478500000013
                },
                {
                    "name": "C3",
                    "midi": 48,
                    "time": 90.36293374999995,
                    "velocity": 0.2125984251968504,
                    "duration": 1.0461700000000036
                },
                {
                    "name": "A3",
                    "midi": 57,
                    "time": 90.38908799999996,
                    "velocity": 0.25196850393700787,
                    "duration": 0.6277019999999993
                },
                {
                    "name": "A2",
                    "midi": 45,
                    "time": 91.64449199999996,
                    "velocity": 0.2283464566929134,
                    "duration": 2.5108080000000115
                },
                {
                    "name": "E3",
                    "midi": 52,
                    "time": 91.64449199999996,
                    "velocity": 0.2677165354330709,
                    "duration": 0.6277019999999993
                },
                {
                    "name": "F3",
                    "midi": 53,
                    "time": 92.27219399999996,
                    "velocity": 0.2283464566929134,
                    "duration": 0.6277019999999993
                },
                {
                    "name": "G3",
                    "midi": 55,
                    "time": 92.89989599999996,
                    "velocity": 0.2677165354330709,
                    "duration": 0.6277019999999993
                },
                {
                    "name": "F3",
                    "midi": 53,
                    "time": 93.52759799999995,
                    "velocity": 0.2283464566929134,
                    "duration": 0.5753935000000041
                },
                {
                    "name": "A2",
                    "midi": 45,
                    "time": 94.10299149999996,
                    "velocity": 0.1968503937007874,
                    "duration": 1.3077125000000223
                },
                {
                    "name": "E3",
                    "midi": 52,
                    "time": 94.12914574999996,
                    "velocity": 0.2283464566929134,
                    "duration": 1.2554040000000128
                },
                {
                    "name": "C4",
                    "midi": 60,
                    "time": 94.15529999999997,
                    "velocity": 0.2677165354330709,
                    "duration": 0.6277019999999993
                },
                {
                    "name": "D4",
                    "midi": 62,
                    "time": 94.78300199999997,
                    "velocity": 0.25984251968503935,
                    "duration": 0.6277020000000135
                },
                {
                    "name": "A2",
                    "midi": 45,
                    "time": 95.35839549999997,
                    "velocity": 0.1968503937007874,
                    "duration": 1.307712500000008
                },
                {
                    "name": "E3",
                    "midi": 52,
                    "time": 95.38454974999998,
                    "velocity": 0.2283464566929134,
                    "duration": 1.2554039999999986
                },
                {
                    "name": "C4",
                    "midi": 60,
                    "time": 95.41070399999998,
                    "velocity": 0.2677165354330709,
                    "duration": 1.2554039999999986
                },
                {
                    "name": "D3",
                    "midi": 50,
                    "time": 96.66610799999998,
                    "velocity": 0.2283464566929134,
                    "duration": 1.2030955000000034
                },
                {
                    "name": "C4",
                    "midi": 60,
                    "time": 96.66610799999998,
                    "velocity": 0.2677165354330709,
                    "duration": 1.2030955000000034
                },
                {
                    "name": "G2",
                    "midi": 43,
                    "time": 97.86920349999998,
                    "velocity": 0.2677165354330709,
                    "duration": 1.0984784999999988
                },
                {
                    "name": "D3",
                    "midi": 50,
                    "time": 97.89535774999999,
                    "velocity": 0.2677165354330709,
                    "duration": 1.0200157499999989
                },
                {
                    "name": "B3",
                    "midi": 59,
                    "time": 97.92151199999999,
                    "velocity": 0.2677165354330709,
                    "duration": 1.0461699999999894
                },
                {
                    "name": "D3",
                    "midi": 50,
                    "time": 99.17691599999998,
                    "velocity": 0.2283464566929134,
                    "duration": 1.2030955000000034
                },
                {
                    "name": "C4",
                    "midi": 60,
                    "time": 99.17691599999998,
                    "velocity": 0.2677165354330709,
                    "duration": 1.2030955000000034
                },
                {
                    "name": "G2",
                    "midi": 43,
                    "time": 100.38001149999998,
                    "velocity": 0.2992125984251969,
                    "duration": 1.2292497500000081
                },
                {
                    "name": "D3",
                    "midi": 50,
                    "time": 100.40616574999999,
                    "velocity": 0.31496062992125984,
                    "duration": 1.2030955000000034
                },
                {
                    "name": "B3",
                    "midi": 59,
                    "time": 100.43231999999999,
                    "velocity": 0.33858267716535434,
                    "duration": 1.1769412499999987
                },
                {
                    "name": "G3",
                    "midi": 55,
                    "time": 101.60926124999999,
                    "velocity": 0.2992125984251969,
                    "duration": 1.2554040000000128
                },
                {
                    "name": "D4",
                    "midi": 62,
                    "time": 101.6354155,
                    "velocity": 0.31496062992125984,
                    "duration": 1.2292497500000081
                },
                {
                    "name": "F4",
                    "midi": 65,
                    "time": 101.66156975,
                    "velocity": 0.3464566929133858,
                    "duration": 1.2030955000000034
                },
                {
                    "name": "A#4",
                    "midi": 70,
                    "time": 101.687724,
                    "velocity": 0.44881889763779526,
                    "duration": 1.1769412499999987
                },
                {
                    "name": "C3",
                    "midi": 48,
                    "time": 102.86466525,
                    "velocity": 0.31496062992125984,
                    "duration": 1.2554040000000128
                },
                {
                    "name": "G3",
                    "midi": 55,
                    "time": 102.8908195,
                    "velocity": 0.3228346456692913,
                    "duration": 1.1420689166666733
                },
                {
                    "name": "A#3",
                    "midi": 58,
                    "time": 102.91697375000001,
                    "velocity": 0.33070866141732286,
                    "duration": 1.2030955000000034
                },
                {
                    "name": "E4",
                    "midi": 64,
                    "time": 102.94312800000002,
                    "velocity": 0.4251968503937008,
                    "duration": 1.1769412499999987
                },
                {
                    "name": "G3",
                    "midi": 55,
                    "time": 104.12006925000001,
                    "velocity": 0.2992125984251969,
                    "duration": 1.2554040000000128
                },
                {
                    "name": "D4",
                    "midi": 62,
                    "time": 104.14622350000002,
                    "velocity": 0.31496062992125984,
                    "duration": 1.2292497500000081
                },
                {
                    "name": "F4",
                    "midi": 65,
                    "time": 104.17237775000002,
                    "velocity": 0.3464566929133858,
                    "duration": 1.2030955000000034
                },
                {
                    "name": "A#4",
                    "midi": 70,
                    "time": 104.19853200000003,
                    "velocity": 0.44881889763779526,
                    "duration": 1.1769412499999987
                },
                {
                    "name": "C3",
                    "midi": 48,
                    "time": 105.37547325000003,
                    "velocity": 0.31496062992125984,
                    "duration": 1.2554040000000128
                },
                {
                    "name": "G3",
                    "midi": 55,
                    "time": 105.40162750000003,
                    "velocity": 0.3228346456692913,
                    "duration": 1.1420689166666733
                },
                {
                    "name": "A#3",
                    "midi": 58,
                    "time": 105.42778175000004,
                    "velocity": 0.33070866141732286,
                    "duration": 1.2030955000000034
                },
                {
                    "name": "E4",
                    "midi": 64,
                    "time": 105.45393600000004,
                    "velocity": 0.44881889763779526,
                    "duration": 1.1769412499999987
                },
                {
                    "name": "A#2",
                    "midi": 46,
                    "time": 106.63087725000004,
                    "velocity": 0.31496062992125984,
                    "duration": 1.752334750000017
                },
                {
                    "name": "G3",
                    "midi": 55,
                    "time": 106.65703150000004,
                    "velocity": 0.33858267716535434,
                    "duration": 1.7261805000000123
                },
                {
                    "name": "D4",
                    "midi": 62,
                    "time": 106.68318575000005,
                    "velocity": 0.36220472440944884,
                    "duration": 1.7000262500000076
                },
                {
                    "name": "F4",
                    "midi": 65,
                    "time": 106.70934000000005,
                    "velocity": 0.3779527559055118,
                    "duration": 1.673872000000003
                },
                {
                    "name": "C#3",
                    "midi": 49,
                    "time": 110.47555200000005,
                    "velocity": 0.3464566929133858,
                    "duration": 1.0461700000000036
                },
                {
                    "name": "C3",
                    "midi": 48,
                    "time": 111.52172200000005,
                    "velocity": 0.25196850393700787,
                    "duration": 0.20923399999999504
                },
                {
                    "name": "F2",
                    "midi": 41,
                    "time": 111.73095600000005,
                    "velocity": 0.16535433070866143,
                    "duration": 0.6277019999999993
                },
                {
                    "name": "C3",
                    "midi": 48,
                    "time": 111.73095600000005,
                    "velocity": 0.2125984251968504,
                    "duration": 0.6277019999999993
                },
                {
                    "name": "C#3",
                    "midi": 49,
                    "time": 112.35865800000005,
                    "velocity": 0.2992125984251969,
                    "duration": 0.6277019999999993
                },
                {
                    "name": "C#4",
                    "midi": 61,
                    "time": 112.35865800000005,
                    "velocity": 0.23622047244094488,
                    "duration": 0.6277019999999993
                },
                {
                    "name": "F2",
                    "midi": 41,
                    "time": 112.98636000000005,
                    "velocity": 0.16535433070866143,
                    "duration": 0.6277019999999993
                },
                {
                    "name": "A3",
                    "midi": 57,
                    "time": 112.98636000000005,
                    "velocity": 0.25196850393700787,
                    "duration": 0.6277019999999993
                },
                {
                    "name": "C3",
                    "midi": 48,
                    "time": 112.98636000000005,
                    "velocity": 0.2125984251968504,
                    "duration": 0.6277019999999993
                },
                {
                    "name": "C#3",
                    "midi": 49,
                    "time": 113.61406200000005,
                    "velocity": 0.2992125984251969,
                    "duration": 0.6277019999999993
                },
                {
                    "name": "C#4",
                    "midi": 61,
                    "time": 113.61406200000005,
                    "velocity": 0.23622047244094488,
                    "duration": 0.6277019999999993
                },
                {
                    "name": "F2",
                    "midi": 41,
                    "time": 114.24176400000005,
                    "velocity": 0.1732283464566929,
                    "duration": 0.20923399999999504
                },
                {
                    "name": "C3",
                    "midi": 48,
                    "time": 114.24176400000005,
                    "velocity": 0.2047244094488189,
                    "duration": 0.20923399999999504
                },
                {
                    "name": "F3",
                    "midi": 53,
                    "time": 114.86946600000005,
                    "velocity": 0.1732283464566929,
                    "duration": 0.20923399999999504
                },
                {
                    "name": "C4",
                    "midi": 60,
                    "time": 114.86946600000005,
                    "velocity": 0.2047244094488189,
                    "duration": 0.20923399999999504
                },
                {
                    "name": "F4",
                    "midi": 65,
                    "time": 115.49716800000004,
                    "velocity": 0.18110236220472442,
                    "duration": 1.0461700000000036
                },
                {
                    "name": "C5",
                    "midi": 72,
                    "time": 115.49716800000004,
                    "velocity": 0.2204724409448819,
                    "duration": 1.0461700000000036
                },
                {
                    "name": "C3",
                    "midi": 48,
                    "time": 116.75257200000004,
                    "velocity": 0.1889763779527559,
                    "duration": 2.5108080000000115
                },
                {
                    "name": "A#3",
                    "midi": 58,
                    "time": 116.75257200000004,
                    "velocity": 0.2204724409448819,
                    "duration": 1.0461700000000036
                },
                {
                    "name": "C4",
                    "midi": 60,
                    "time": 117.79874200000005,
                    "velocity": 0.2677165354330709,
                    "duration": 0.20923399999999504
                },
                {
                    "name": "D4",
                    "midi": 62,
                    "time": 118.00797600000004,
                    "velocity": 0.29133858267716534,
                    "duration": 1.0461700000000036
                },
                {
                    "name": "D#4",
                    "midi": 63,
                    "time": 119.05414600000005,
                    "velocity": 0.29133858267716534,
                    "duration": 0.15692549999999983
                },
                {
                    "name": "C3",
                    "midi": 48,
                    "time": 119.21107150000005,
                    "velocity": 0.29133858267716534,
                    "duration": 0.26154250000000445
                },
                {
                    "name": "A#3",
                    "midi": 58,
                    "time": 119.23722575000005,
                    "velocity": 0.3228346456692913,
                    "duration": 0.23538824999999974
                },
                {
                    "name": "E4",
                    "midi": 64,
                    "time": 119.26338000000005,
                    "velocity": 0.3700787401574803,
                    "duration": 0.20923399999999504
                },
                {
                    "name": "F3",
                    "midi": 53,
                    "time": 121.77418800000005,
                    "velocity": 0.2047244094488189,
                    "duration": 2.5108080000000115
                },
                {
                    "name": "D#4",
                    "midi": 63,
                    "time": 121.77418800000005,
                    "velocity": 0.23622047244094488,
                    "duration": 1.0461700000000036
                },
                {
                    "name": "F4",
                    "midi": 65,
                    "time": 122.82035800000006,
                    "velocity": 0.31496062992125984,
                    "duration": 0.20923399999999504
                },
                {
                    "name": "G4",
                    "midi": 67,
                    "time": 123.02959200000005,
                    "velocity": 0.3464566929133858,
                    "duration": 1.0461700000000036
                },
                {
                    "name": "G#4",
                    "midi": 68,
                    "time": 124.07576200000005,
                    "velocity": 0.29133858267716534,
                    "duration": 0.15692549999999983
                },
                {
                    "name": "F3",
                    "midi": 53,
                    "time": 124.23268750000005,
                    "velocity": 0.29133858267716534,
                    "duration": 0.26154250000000445
                },
                {
                    "name": "D#4",
                    "midi": 63,
                    "time": 124.25884175000006,
                    "velocity": 0.3228346456692913,
                    "duration": 0.23538824999999974
                },
                {
                    "name": "A4",
                    "midi": 69,
                    "time": 124.28499600000006,
                    "velocity": 0.3700787401574803,
                    "duration": 0.20923399999999504
                },
                {
                    "name": "A#2",
                    "midi": 46,
                    "time": 126.79580400000006,
                    "velocity": 0.4566929133858268,
                    "duration": 0.4184680000000043
                },
                {
                    "name": "F3",
                    "midi": 53,
                    "time": 127.21427200000007,
                    "velocity": 0.4094488188976378,
                    "duration": 0.20923399999999504
                },
                {
                    "name": "A#3",
                    "midi": 58,
                    "time": 127.42350600000006,
                    "velocity": 0.4566929133858268,
                    "duration": 0.4184680000000043
                },
                {
                    "name": "C4",
                    "midi": 60,
                    "time": 127.84197400000006,
                    "velocity": 0.41732283464566927,
                    "duration": 0.20923399999999504
                },
                {
                    "name": "D4",
                    "midi": 62,
                    "time": 128.05120800000006,
                    "velocity": 0.49606299212598426,
                    "duration": 0.41846799999999007
                },
                {
                    "name": "F4",
                    "midi": 65,
                    "time": 128.46967600000005,
                    "velocity": 0.5354330708661418,
                    "duration": 0.20923400000000925
                },
                {
                    "name": "A#4",
                    "midi": 70,
                    "time": 128.67891000000006,
                    "velocity": 0.5748031496062992,
                    "duration": 0.41846799999999007
                },
                {
                    "name": "A4",
                    "midi": 69,
                    "time": 129.09737800000005,
                    "velocity": 0.4566929133858268,
                    "duration": 0.13077125000000933
                },
                {
                    "name": "E3",
                    "midi": 52,
                    "time": 129.22814925000006,
                    "velocity": 0.3228346456692913,
                    "duration": 1.7523347499999602
                },
                {
                    "name": "B3",
                    "midi": 59,
                    "time": 129.25430350000005,
                    "velocity": 0.3700787401574803,
                    "duration": 1.7261804999999697
                },
                {
                    "name": "D4",
                    "midi": 62,
                    "time": 129.28045775000004,
                    "velocity": 0.41732283464566927,
                    "duration": 1.7000262499999792
                },
                {
                    "name": "A4",
                    "midi": 69,
                    "time": 129.30661200000003,
                    "velocity": 0.6377952755905512,
                    "duration": 1.2554039999999986
                },
                {
                    "name": "G#4",
                    "midi": 68,
                    "time": 130.56201600000003,
                    "velocity": 0.4094488188976378,
                    "duration": 0.41846799999999007
                },
                {
                    "name": "A#2",
                    "midi": 46,
                    "time": 131.81742000000003,
                    "velocity": 0.4566929133858268,
                    "duration": 0.41846799999999007
                },
                {
                    "name": "F3",
                    "midi": 53,
                    "time": 132.23588800000002,
                    "velocity": 0.4094488188976378,
                    "duration": 0.20923400000000925
                },
                {
                    "name": "A#3",
                    "midi": 58,
                    "time": 132.44512200000003,
                    "velocity": 0.4566929133858268,
                    "duration": 0.41846799999999007
                },
                {
                    "name": "C4",
                    "midi": 60,
                    "time": 132.86359000000002,
                    "velocity": 0.41732283464566927,
                    "duration": 0.20923400000000925
                },
                {
                    "name": "C#4",
                    "midi": 61,
                    "time": 133.07282400000003,
                    "velocity": 0.49606299212598426,
                    "duration": 0.41846799999999007
                },
                {
                    "name": "F4",
                    "midi": 65,
                    "time": 133.49129200000002,
                    "velocity": 0.5511811023622047,
                    "duration": 0.20923400000000925
                },
                {
                    "name": "A#4",
                    "midi": 70,
                    "time": 133.70052600000002,
                    "velocity": 0.6062992125984252,
                    "duration": 0.41846799999999007
                },
                {
                    "name": "G#4",
                    "midi": 68,
                    "time": 134.11899400000001,
                    "velocity": 0.4881889763779528,
                    "duration": 0.13077125000000933
                },
                {
                    "name": "D#3",
                    "midi": 51,
                    "time": 134.24976525000002,
                    "velocity": 0.33858267716535434,
                    "duration": 1.7523347499999602
                },
                {
                    "name": "A#3",
                    "midi": 58,
                    "time": 134.27591950000001,
                    "velocity": 0.4015748031496063,
                    "duration": 1.7261804999999697
                },
                {
                    "name": "C#4",
                    "midi": 61,
                    "time": 134.30207375,
                    "velocity": 0.44881889763779526,
                    "duration": 1.7000262499999792
                },
                {
                    "name": "G#4",
                    "midi": 68,
                    "time": 134.328228,
                    "velocity": 0.6377952755905512,
                    "duration": 1.2554039999999986
                },
                {
                    "name": "G4",
                    "midi": 67,
                    "time": 135.583632,
                    "velocity": 0.4881889763779528,
                    "duration": 0.41846799999999007
                },
                {
                    "name": "C#3",
                    "midi": 49,
                    "time": 136.15902549999998,
                    "velocity": 0.47244094488188976,
                    "duration": 0.05230850000000942
                },
                {
                    "name": "F#4",
                    "midi": 66,
                    "time": 136.211334,
                    "velocity": 0.6299212598425197,
                    "duration": 0.41846799999999007
                },
                {
                    "name": "F4",
                    "midi": 65,
                    "time": 136.62980199999998,
                    "velocity": 0.5984251968503937,
                    "duration": 0.20923400000000925
                },
                {
                    "name": "C3",
                    "midi": 48,
                    "time": 136.78672749999998,
                    "velocity": 0.6062992125984252,
                    "duration": 4.864690499999995
                },
                {
                    "name": "C2",
                    "midi": 36,
                    "time": 136.78672749999998,
                    "velocity": 0.6062992125984252,
                    "duration": 4.864690499999995
                },
                {
                    "name": "G3",
                    "midi": 55,
                    "time": 136.839036,
                    "velocity": 0.5039370078740157,
                    "duration": 4.812381999999985
                },
                {
                    "name": "A#3",
                    "midi": 58,
                    "time": 136.839036,
                    "velocity": 0.5039370078740157,
                    "duration": 4.812381999999985
                },
                {
                    "name": "F4",
                    "midi": 65,
                    "time": 136.839036,
                    "velocity": 0.5433070866141733,
                    "duration": 1.2554039999999986
                },
                {
                    "name": "E4",
                    "midi": 64,
                    "time": 138.09444,
                    "velocity": 0.5196850393700787,
                    "duration": 3.5569779999999867
                },
                {
                    "name": "C#3",
                    "midi": 49,
                    "time": 143.06374749999998,
                    "velocity": 0.2283464566929134,
                    "duration": 0.26154250000001866
                },
                {
                    "name": "A#3",
                    "midi": 58,
                    "time": 143.116056,
                    "velocity": 0.29133858267716534,
                    "duration": 0.20923400000000925
                },
                {
                    "name": "C#2",
                    "midi": 37,
                    "time": 143.74375799999999,
                    "velocity": 0.2283464566929134,
                    "duration": 0.20923400000000925
                },
                {
                    "name": "C3",
                    "midi": 48,
                    "time": 145.5745555,
                    "velocity": 0.2283464566929134,
                    "duration": 0.26154250000001866
                },
                {
                    "name": "A#3",
                    "midi": 58,
                    "time": 145.626864,
                    "velocity": 0.29133858267716534,
                    "duration": 0.20923400000000925
                },
                {
                    "name": "C2",
                    "midi": 36,
                    "time": 146.254566,
                    "velocity": 0.25984251968503935,
                    "duration": 0.20923400000000925
                },
                {
                    "name": "C2",
                    "midi": 36,
                    "time": 152.47927750000002,
                    "velocity": 0.1889763779527559,
                    "duration": 0.6800105000000087
                },
                {
                    "name": "E3",
                    "midi": 52,
                    "time": 152.53158600000003,
                    "velocity": 0.2440944881889764,
                    "duration": 0.41846799999999007
                },
                {
                    "name": "D3",
                    "midi": 50,
                    "time": 152.95005400000002,
                    "velocity": 0.2125984251968504,
                    "duration": 0.20923400000000925
                },
                {
                    "name": "F2",
                    "midi": 41,
                    "time": 153.15928800000003,
                    "velocity": 0.16535433070866143,
                    "duration": 2.510807999999969
                },
                {
                    "name": "C3",
                    "midi": 48,
                    "time": 153.15928800000003,
                    "velocity": 0.1968503937007874,
                    "duration": 0.6277019999999993
                },
                {
                    "name": "D3",
                    "midi": 50,
                    "time": 153.78699000000003,
                    "velocity": 0.16535433070866143,
                    "duration": 0.6277019999999993
                },
                {
                    "name": "E3",
                    "midi": 52,
                    "time": 154.41469200000003,
                    "velocity": 0.1968503937007874,
                    "duration": 0.6277019999999993
                },
                {
                    "name": "D3",
                    "midi": 50,
                    "time": 155.04239400000003,
                    "velocity": 0.16535433070866143,
                    "duration": 0.5753934999999899
                },
                {
                    "name": "F2",
                    "midi": 41,
                    "time": 155.61778750000002,
                    "velocity": 0.1968503937007874,
                    "duration": 1.3077124999999512
                },
                {
                    "name": "C3",
                    "midi": 48,
                    "time": 155.64394175,
                    "velocity": 0.2283464566929134,
                    "duration": 1.2554039999999702
                },
                {
                    "name": "A3",
                    "midi": 57,
                    "time": 155.670096,
                    "velocity": 0.23622047244094488,
                    "duration": 0.6277019999999993
                },
                {
                    "name": "A#3",
                    "midi": 58,
                    "time": 156.297798,
                    "velocity": 0.23622047244094488,
                    "duration": 0.6277019999999709
                },
                {
                    "name": "F2",
                    "midi": 41,
                    "time": 156.8731915,
                    "velocity": 0.18110236220472442,
                    "duration": 1.0984784999999704
                },
                {
                    "name": "C3",
                    "midi": 48,
                    "time": 156.89934574999998,
                    "velocity": 0.2125984251968504,
                    "duration": 1.0461699999999894
                },
                {
                    "name": "A3",
                    "midi": 57,
                    "time": 156.92549999999997,
                    "velocity": 0.25196850393700787,
                    "duration": 0.6277019999999993
                },
                {
                    "name": "A2",
                    "midi": 45,
                    "time": 158.18090399999997,
                    "velocity": 0.2283464566929134,
                    "duration": 2.510807999999969
                },
                {
                    "name": "E3",
                    "midi": 52,
                    "time": 158.18090399999997,
                    "velocity": 0.2677165354330709,
                    "duration": 0.6277019999999993
                },
                {
                    "name": "F3",
                    "midi": 53,
                    "time": 158.80860599999997,
                    "velocity": 0.2283464566929134,
                    "duration": 0.6277019999999993
                },
                {
                    "name": "G3",
                    "midi": 55,
                    "time": 159.43630799999997,
                    "velocity": 0.2677165354330709,
                    "duration": 0.6277019999999993
                },
                {
                    "name": "F3",
                    "midi": 53,
                    "time": 160.06400999999997,
                    "velocity": 0.2283464566929134,
                    "duration": 0.5753934999999899
                },
                {
                    "name": "A2",
                    "midi": 45,
                    "time": 160.63940349999996,
                    "velocity": 0.1968503937007874,
                    "duration": 1.3077124999999512
                },
                {
                    "name": "E3",
                    "midi": 52,
                    "time": 160.66555774999995,
                    "velocity": 0.2283464566929134,
                    "duration": 1.2554039999999702
                },
                {
                    "name": "C4",
                    "midi": 60,
                    "time": 160.69171199999994,
                    "velocity": 0.2677165354330709,
                    "duration": 0.6277019999999993
                },
                {
                    "name": "D4",
                    "midi": 62,
                    "time": 161.31941399999994,
                    "velocity": 0.25984251968503935,
                    "duration": 0.6277019999999709
                },
                {
                    "name": "A2",
                    "midi": 45,
                    "time": 161.89480749999993,
                    "velocity": 0.1968503937007874,
                    "duration": 1.3077124999999796
                },
                {
                    "name": "E3",
                    "midi": 52,
                    "time": 161.92096174999992,
                    "velocity": 0.2283464566929134,
                    "duration": 1.2554039999999986
                },
                {
                    "name": "C4",
                    "midi": 60,
                    "time": 161.9471159999999,
                    "velocity": 0.2677165354330709,
                    "duration": 1.2554039999999986
                },
                {
                    "name": "D3",
                    "midi": 50,
                    "time": 163.2025199999999,
                    "velocity": 0.2283464566929134,
                    "duration": 1.2030954999999892
                },
                {
                    "name": "C4",
                    "midi": 60,
                    "time": 163.2025199999999,
                    "velocity": 0.2677165354330709,
                    "duration": 1.2030954999999892
                },
                {
                    "name": "G2",
                    "midi": 43,
                    "time": 164.4056154999999,
                    "velocity": 0.2677165354330709,
                    "duration": 1.0984784999999988
                },
                {
                    "name": "D3",
                    "midi": 50,
                    "time": 164.4317697499999,
                    "velocity": 0.2677165354330709,
                    "duration": 1.0200157499999989
                },
                {
                    "name": "B3",
                    "midi": 59,
                    "time": 164.45792399999988,
                    "velocity": 0.2677165354330709,
                    "duration": 1.0461700000000178
                },
                {
                    "name": "D3",
                    "midi": 50,
                    "time": 165.7133279999999,
                    "velocity": 0.2283464566929134,
                    "duration": 1.2030954999999892
                },
                {
                    "name": "C4",
                    "midi": 60,
                    "time": 165.7133279999999,
                    "velocity": 0.2677165354330709,
                    "duration": 1.2030954999999892
                },
                {
                    "name": "G2",
                    "midi": 43,
                    "time": 166.9164234999999,
                    "velocity": 0.2992125984251969,
                    "duration": 1.2292497499999797
                },
                {
                    "name": "D3",
                    "midi": 50,
                    "time": 166.94257774999988,
                    "velocity": 0.31496062992125984,
                    "duration": 1.2030954999999892
                },
                {
                    "name": "B3",
                    "midi": 59,
                    "time": 166.96873199999987,
                    "velocity": 0.33858267716535434,
                    "duration": 1.1769412499999987
                },
                {
                    "name": "G3",
                    "midi": 55,
                    "time": 168.14567324999987,
                    "velocity": 0.2992125984251969,
                    "duration": 1.2554039999999702
                },
                {
                    "name": "D4",
                    "midi": 62,
                    "time": 168.17182749999986,
                    "velocity": 0.31496062992125984,
                    "duration": 1.2292497499999797
                },
                {
                    "name": "F4",
                    "midi": 65,
                    "time": 168.19798174999985,
                    "velocity": 0.3464566929133858,
                    "duration": 1.2030954999999892
                },
                {
                    "name": "A#4",
                    "midi": 70,
                    "time": 168.22413599999985,
                    "velocity": 0.44881889763779526,
                    "duration": 1.1769412499999987
                },
                {
                    "name": "C3",
                    "midi": 48,
                    "time": 169.40107724999984,
                    "velocity": 0.31496062992125984,
                    "duration": 1.2554039999999702
                },
                {
                    "name": "G3",
                    "midi": 55,
                    "time": 169.42723149999983,
                    "velocity": 0.3228346456692913,
                    "duration": 1.142068916666659
                },
                {
                    "name": "A#3",
                    "midi": 58,
                    "time": 169.45338574999982,
                    "velocity": 0.33070866141732286,
                    "duration": 1.2030954999999892
                },
                {
                    "name": "E4",
                    "midi": 64,
                    "time": 169.47953999999982,
                    "velocity": 0.44881889763779526,
                    "duration": 1.1769412499999987
                },
                {
                    "name": "G3",
                    "midi": 55,
                    "time": 170.6564812499998,
                    "velocity": 0.2992125984251969,
                    "duration": 1.2554039999999702
                },
                {
                    "name": "D4",
                    "midi": 62,
                    "time": 170.6826354999998,
                    "velocity": 0.31496062992125984,
                    "duration": 1.2292497499999797
                },
                {
                    "name": "F4",
                    "midi": 65,
                    "time": 170.7087897499998,
                    "velocity": 0.3464566929133858,
                    "duration": 1.2030954999999892
                },
                {
                    "name": "A#4",
                    "midi": 70,
                    "time": 170.73494399999979,
                    "velocity": 0.44881889763779526,
                    "duration": 1.1769412499999987
                },
                {
                    "name": "C3",
                    "midi": 48,
                    "time": 171.91188524999978,
                    "velocity": 0.31496062992125984,
                    "duration": 1.2554039999999702
                },
                {
                    "name": "G3",
                    "midi": 55,
                    "time": 171.93803949999977,
                    "velocity": 0.3228346456692913,
                    "duration": 1.142068916666659
                },
                {
                    "name": "A#3",
                    "midi": 58,
                    "time": 171.96419374999977,
                    "velocity": 0.33070866141732286,
                    "duration": 1.2030954999999892
                },
                {
                    "name": "E4",
                    "midi": 64,
                    "time": 171.99034799999976,
                    "velocity": 0.44881889763779526,
                    "duration": 1.1769412499999987
                },
                {
                    "name": "A#2",
                    "midi": 46,
                    "time": 173.16728924999975,
                    "velocity": 0.31496062992125984,
                    "duration": 1.7523347499999602
                },
                {
                    "name": "G3",
                    "midi": 55,
                    "time": 173.19344349999974,
                    "velocity": 0.33858267716535434,
                    "duration": 1.7261804999999697
                },
                {
                    "name": "D4",
                    "midi": 62,
                    "time": 173.21959774999974,
                    "velocity": 0.36220472440944884,
                    "duration": 1.7000262499999792
                },
                {
                    "name": "F4",
                    "midi": 65,
                    "time": 173.24575199999973,
                    "velocity": 0.3779527559055118,
                    "duration": 1.6738719999999887
                },
                {
                    "name": "C#3",
                    "midi": 49,
                    "time": 177.01196399999972,
                    "velocity": 0.3464566929133858,
                    "duration": 1.0461699999999894
                },
                {
                    "name": "C3",
                    "midi": 48,
                    "time": 178.0581339999997,
                    "velocity": 0.25196850393700787,
                    "duration": 0.20923400000000925
                },
                {
                    "name": "F2",
                    "midi": 41,
                    "time": 178.26736799999972,
                    "velocity": 0.16535433070866143,
                    "duration": 0.6277019999999993
                },
                {
                    "name": "C3",
                    "midi": 48,
                    "time": 178.26736799999972,
                    "velocity": 0.2125984251968504,
                    "duration": 0.6277019999999993
                },
                {
                    "name": "C#3",
                    "midi": 49,
                    "time": 178.89506999999972,
                    "velocity": 0.2992125984251969,
                    "duration": 0.6277019999999993
                },
                {
                    "name": "C#4",
                    "midi": 61,
                    "time": 178.89506999999972,
                    "velocity": 0.23622047244094488,
                    "duration": 0.6277019999999993
                },
                {
                    "name": "F2",
                    "midi": 41,
                    "time": 179.52277199999972,
                    "velocity": 0.16535433070866143,
                    "duration": 0.6277019999999993
                },
                {
                    "name": "A3",
                    "midi": 57,
                    "time": 179.52277199999972,
                    "velocity": 0.25196850393700787,
                    "duration": 0.6277019999999993
                },
                {
                    "name": "C3",
                    "midi": 48,
                    "time": 179.52277199999972,
                    "velocity": 0.2125984251968504,
                    "duration": 0.6277019999999993
                },
                {
                    "name": "C#3",
                    "midi": 49,
                    "time": 180.15047399999972,
                    "velocity": 0.2992125984251969,
                    "duration": 0.6277019999999993
                },
                {
                    "name": "C#4",
                    "midi": 61,
                    "time": 180.15047399999972,
                    "velocity": 0.23622047244094488,
                    "duration": 0.6277019999999993
                },
                {
                    "name": "F2",
                    "midi": 41,
                    "time": 180.77817599999972,
                    "velocity": 0.1732283464566929,
                    "duration": 0.20923400000000925
                },
                {
                    "name": "C3",
                    "midi": 48,
                    "time": 180.77817599999972,
                    "velocity": 0.2047244094488189,
                    "duration": 0.20923400000000925
                },
                {
                    "name": "F3",
                    "midi": 53,
                    "time": 181.40587799999972,
                    "velocity": 0.14960629921259844,
                    "duration": 0.20923400000000925
                },
                {
                    "name": "C4",
                    "midi": 60,
                    "time": 181.40587799999972,
                    "velocity": 0.18110236220472442,
                    "duration": 0.20923400000000925
                },
                {
                    "name": "F4",
                    "midi": 65,
                    "time": 182.03357999999972,
                    "velocity": 0.15748031496062992,
                    "duration": 1.0461699999999894
                },
                {
                    "name": "C5",
                    "midi": 72,
                    "time": 182.03357999999972,
                    "velocity": 0.1968503937007874,
                    "duration": 1.0461699999999894
                }
            ],
            "controlChanges": {},
            "id": 2,
            "name": "Piano left",
            "instrumentNumber": 0,
            "instrument": "acoustic grand piano",
            "instrumentFamily": "piano",
            "channelNumber": 0,
            "isPercussion": false
        },
        {
            "startTime": 0,
            "duration": 0,
            "length": 0,
            "notes": [],
            "controlChanges": {
                "64": [
                    {
                        "number": 64,
                        "time": 0.7018057083333333,
                        "value": 1
                    },
                    {
                        "number": 64,
                        "time": 1.2615066583333334,
                        "value": 0
                    },
                    {
                        "number": 64,
                        "time": 1.9598251333333334,
                        "value": 1
                    },
                    {
                        "number": 64,
                        "time": 2.510808,
                        "value": 0
                    },
                    {
                        "number": 64,
                        "time": 2.6189122333333335,
                        "value": 1
                    },
                    {
                        "number": 64,
                        "time": 3.1533307416666667,
                        "value": 0
                    },
                    {
                        "number": 64,
                        "time": 3.20651105,
                        "value": 1
                    },
                    {
                        "number": 64,
                        "time": 3.5717987416666666,
                        "value": 0
                    },
                    {
                        "number": 64,
                        "time": 3.6092865,
                        "value": 1
                    },
                    {
                        "number": 64,
                        "time": 3.779289125,
                        "value": 0
                    },
                    {
                        "number": 64,
                        "time": 3.8943678250000002,
                        "value": 1
                    },
                    {
                        "number": 64,
                        "time": 4.789714983333334,
                        "value": 0
                    },
                    {
                        "number": 64,
                        "time": 5.723421708333334,
                        "value": 1
                    },
                    {
                        "number": 64,
                        "time": 6.283122658333334,
                        "value": 0
                    },
                    {
                        "number": 64,
                        "time": 7.012826233333334,
                        "value": 1
                    },
                    {
                        "number": 64,
                        "time": 7.532424000000001,
                        "value": 0
                    },
                    {
                        "number": 64,
                        "time": 7.640528233333334,
                        "value": 1
                    },
                    {
                        "number": 64,
                        "time": 8.174946741666668,
                        "value": 0
                    },
                    {
                        "number": 64,
                        "time": 8.228127050000001,
                        "value": 1
                    },
                    {
                        "number": 64,
                        "time": 8.593414741666669,
                        "value": 0
                    },
                    {
                        "number": 64,
                        "time": 8.630902500000001,
                        "value": 1
                    },
                    {
                        "number": 64,
                        "time": 8.800905125000002,
                        "value": 0
                    },
                    {
                        "number": 64,
                        "time": 8.915983825000001,
                        "value": 1
                    },
                    {
                        "number": 64,
                        "time": 9.631738466666668,
                        "value": 0
                    },
                    {
                        "number": 64,
                        "time": 10.092925075000002,
                        "value": 1
                    },
                    {
                        "number": 64,
                        "time": 10.689241975000002,
                        "value": 0
                    },
                    {
                        "number": 64,
                        "time": 11.403253000000001,
                        "value": 1
                    },
                    {
                        "number": 64,
                        "time": 12.357011316666668,
                        "value": 0
                    },
                    {
                        "number": 64,
                        "time": 12.603733075000001,
                        "value": 1
                    },
                    {
                        "number": 64,
                        "time": 13.200049975,
                        "value": 0
                    },
                    {
                        "number": 64,
                        "time": 13.914061,
                        "value": 1
                    },
                    {
                        "number": 64,
                        "time": 14.443248658333333,
                        "value": 0
                    },
                    {
                        "number": 64,
                        "time": 20.176260258333333,
                        "value": 1
                    },
                    {
                        "number": 64,
                        "time": 20.728986741666667,
                        "value": 0
                    },
                    {
                        "number": 64,
                        "time": 20.794372366666668,
                        "value": 1
                    },
                    {
                        "number": 64,
                        "time": 21.347098850000002,
                        "value": 0
                    },
                    {
                        "number": 64,
                        "time": 21.431664258333335,
                        "value": 1
                    },
                    {
                        "number": 64,
                        "time": 21.98439074166667,
                        "value": 0
                    },
                    {
                        "number": 64,
                        "time": 22.04977636666667,
                        "value": 1
                    },
                    {
                        "number": 64,
                        "time": 22.597272000000004,
                        "value": 0
                    },
                    {
                        "number": 64,
                        "time": 22.725427825000004,
                        "value": 1
                    },
                    {
                        "number": 64,
                        "time": 24.713150825000003,
                        "value": 0
                    },
                    {
                        "number": 64,
                        "time": 25.809885708333336,
                        "value": 1
                    },
                    {
                        "number": 64,
                        "time": 26.369586658333336,
                        "value": 0
                    },
                    {
                        "number": 64,
                        "time": 27.067905133333337,
                        "value": 1
                    },
                    {
                        "number": 64,
                        "time": 27.618888000000002,
                        "value": 0
                    },
                    {
                        "number": 64,
                        "time": 27.726992233333334,
                        "value": 1
                    },
                    {
                        "number": 64,
                        "time": 28.26141074166667,
                        "value": 0
                    },
                    {
                        "number": 64,
                        "time": 28.314591050000004,
                        "value": 1
                    },
                    {
                        "number": 64,
                        "time": 28.67987874166667,
                        "value": 0
                    },
                    {
                        "number": 64,
                        "time": 28.717366500000004,
                        "value": 1
                    },
                    {
                        "number": 64,
                        "time": 28.887369125000003,
                        "value": 0
                    },
                    {
                        "number": 64,
                        "time": 29.002447825000004,
                        "value": 1
                    },
                    {
                        "number": 64,
                        "time": 29.897794983333338,
                        "value": 0
                    },
                    {
                        "number": 64,
                        "time": 30.831501708333338,
                        "value": 1
                    },
                    {
                        "number": 64,
                        "time": 31.391202658333338,
                        "value": 0
                    },
                    {
                        "number": 64,
                        "time": 32.120906233333336,
                        "value": 1
                    },
                    {
                        "number": 64,
                        "time": 32.640504,
                        "value": 0
                    },
                    {
                        "number": 64,
                        "time": 32.748608233333336,
                        "value": 1
                    },
                    {
                        "number": 64,
                        "time": 33.28302674166667,
                        "value": 0
                    },
                    {
                        "number": 64,
                        "time": 33.33620705,
                        "value": 1
                    },
                    {
                        "number": 64,
                        "time": 33.701494741666664,
                        "value": 0
                    },
                    {
                        "number": 64,
                        "time": 33.7389825,
                        "value": 1
                    },
                    {
                        "number": 64,
                        "time": 33.908985125,
                        "value": 0
                    },
                    {
                        "number": 64,
                        "time": 34.024063825,
                        "value": 1
                    },
                    {
                        "number": 64,
                        "time": 34.73981846666666,
                        "value": 0
                    },
                    {
                        "number": 64,
                        "time": 35.201005075,
                        "value": 1
                    },
                    {
                        "number": 64,
                        "time": 35.797321974999996,
                        "value": 0
                    },
                    {
                        "number": 64,
                        "time": 36.51133299999999,
                        "value": 1
                    },
                    {
                        "number": 64,
                        "time": 37.46509131666666,
                        "value": 0
                    },
                    {
                        "number": 64,
                        "time": 37.711813074999995,
                        "value": 1
                    },
                    {
                        "number": 64,
                        "time": 38.30812997499999,
                        "value": 0
                    },
                    {
                        "number": 64,
                        "time": 39.02214099999999,
                        "value": 1
                    },
                    {
                        "number": 64,
                        "time": 39.551328658333325,
                        "value": 0
                    },
                    {
                        "number": 64,
                        "time": 45.28434025833332,
                        "value": 1
                    },
                    {
                        "number": 64,
                        "time": 45.83706674166665,
                        "value": 0
                    },
                    {
                        "number": 64,
                        "time": 45.90245236666665,
                        "value": 1
                    },
                    {
                        "number": 64,
                        "time": 46.45517884999998,
                        "value": 0
                    },
                    {
                        "number": 64,
                        "time": 46.539744258333315,
                        "value": 1
                    },
                    {
                        "number": 64,
                        "time": 47.092470741666645,
                        "value": 0
                    },
                    {
                        "number": 64,
                        "time": 47.15785636666664,
                        "value": 1
                    },
                    {
                        "number": 64,
                        "time": 47.705351999999976,
                        "value": 0
                    },
                    {
                        "number": 64,
                        "time": 47.84484133333331,
                        "value": 1
                    },
                    {
                        "number": 64,
                        "time": 49.82123082499997,
                        "value": 0
                    },
                    {
                        "number": 64,
                        "time": 52.77927649999997,
                        "value": 1
                    },
                    {
                        "number": 64,
                        "time": 54.952694674999975,
                        "value": 0
                    },
                    {
                        "number": 64,
                        "time": 57.800892499999975,
                        "value": 1
                    },
                    {
                        "number": 64,
                        "time": 59.97431067499998,
                        "value": 0
                    },
                    {
                        "number": 64,
                        "time": 60.364008999999974,
                        "value": 1
                    },
                    {
                        "number": 64,
                        "time": 62.709173416666644,
                        "value": 0
                    },
                    {
                        "number": 64,
                        "time": 62.770199999999974,
                        "value": 1
                    },
                    {
                        "number": 64,
                        "time": 65.28100799999997,
                        "value": 0
                    },
                    {
                        "number": 64,
                        "time": 65.38562499999998,
                        "value": 1
                    },
                    {
                        "number": 64,
                        "time": 67.73078941666664,
                        "value": 0
                    },
                    {
                        "number": 64,
                        "time": 67.79181599999997,
                        "value": 1
                    },
                    {
                        "number": 64,
                        "time": 69.64004966666664,
                        "value": 0
                    },
                    {
                        "number": 64,
                        "time": 69.67753742499997,
                        "value": 1
                    },
                    {
                        "number": 64,
                        "time": 70.36103515833331,
                        "value": 0
                    },
                    {
                        "number": 64,
                        "time": 70.47698566666664,
                        "value": 1
                    },
                    {
                        "number": 64,
                        "time": 75.32423999999997,
                        "value": 0
                    },
                    {
                        "number": 64,
                        "time": 76.55000251666664,
                        "value": 1
                    },
                    {
                        "number": 64,
                        "time": 77.83504799999997,
                        "value": 0
                    },
                    {
                        "number": 64,
                        "time": 77.9980761583333,
                        "value": 1
                    },
                    {
                        "number": 64,
                        "time": 78.8350121583333,
                        "value": 0
                    },
                    {
                        "number": 64,
                        "time": 79.06081051666663,
                        "value": 1
                    },
                    {
                        "number": 64,
                        "time": 80.34585599999997,
                        "value": 0
                    },
                    {
                        "number": 64,
                        "time": 80.5088841583333,
                        "value": 1
                    },
                    {
                        "number": 64,
                        "time": 81.60125999999997,
                        "value": 0
                    },
                    {
                        "number": 64,
                        "time": 87.3246817083333,
                        "value": 1
                    },
                    {
                        "number": 64,
                        "time": 87.88438265833331,
                        "value": 0
                    },
                    {
                        "number": 64,
                        "time": 88.5827011333333,
                        "value": 1
                    },
                    {
                        "number": 64,
                        "time": 89.13368399999997,
                        "value": 0
                    },
                    {
                        "number": 64,
                        "time": 89.24178823333331,
                        "value": 1
                    },
                    {
                        "number": 64,
                        "time": 89.77620674166664,
                        "value": 0
                    },
                    {
                        "number": 64,
                        "time": 89.82938704999998,
                        "value": 1
                    },
                    {
                        "number": 64,
                        "time": 90.19467474166665,
                        "value": 0
                    },
                    {
                        "number": 64,
                        "time": 90.23216249999997,
                        "value": 1
                    },
                    {
                        "number": 64,
                        "time": 90.40216512499997,
                        "value": 0
                    },
                    {
                        "number": 64,
                        "time": 90.51724382499997,
                        "value": 1
                    },
                    {
                        "number": 64,
                        "time": 91.4125909833333,
                        "value": 0
                    },
                    {
                        "number": 64,
                        "time": 92.3462977083333,
                        "value": 1
                    },
                    {
                        "number": 64,
                        "time": 92.9059986583333,
                        "value": 0
                    },
                    {
                        "number": 64,
                        "time": 93.6357022333333,
                        "value": 1
                    },
                    {
                        "number": 64,
                        "time": 94.15529999999997,
                        "value": 0
                    },
                    {
                        "number": 64,
                        "time": 94.2634042333333,
                        "value": 1
                    },
                    {
                        "number": 64,
                        "time": 94.79782274166664,
                        "value": 0
                    },
                    {
                        "number": 64,
                        "time": 94.85100304999997,
                        "value": 1
                    },
                    {
                        "number": 64,
                        "time": 95.21629074166664,
                        "value": 0
                    },
                    {
                        "number": 64,
                        "time": 95.25377849999997,
                        "value": 1
                    },
                    {
                        "number": 64,
                        "time": 95.42378112499996,
                        "value": 0
                    },
                    {
                        "number": 64,
                        "time": 95.53885982499996,
                        "value": 1
                    },
                    {
                        "number": 64,
                        "time": 96.25461446666662,
                        "value": 0
                    },
                    {
                        "number": 64,
                        "time": 96.71580107499996,
                        "value": 1
                    },
                    {
                        "number": 64,
                        "time": 97.31211797499996,
                        "value": 0
                    },
                    {
                        "number": 64,
                        "time": 98.02612899999997,
                        "value": 1
                    },
                    {
                        "number": 64,
                        "time": 98.97988731666663,
                        "value": 0
                    },
                    {
                        "number": 64,
                        "time": 99.22660907499997,
                        "value": 1
                    },
                    {
                        "number": 64,
                        "time": 99.82292597499998,
                        "value": 0
                    },
                    {
                        "number": 64,
                        "time": 100.53693699999998,
                        "value": 1
                    },
                    {
                        "number": 64,
                        "time": 101.06612465833331,
                        "value": 0
                    },
                    {
                        "number": 64,
                        "time": 101.73741707499997,
                        "value": 1
                    },
                    {
                        "number": 64,
                        "time": 102.33373397499997,
                        "value": 0
                    },
                    {
                        "number": 64,
                        "time": 103.04774499999998,
                        "value": 1
                    },
                    {
                        "number": 64,
                        "time": 104.13140275833331,
                        "value": 0
                    },
                    {
                        "number": 64,
                        "time": 104.24473784166665,
                        "value": 1
                    },
                    {
                        "number": 64,
                        "time": 104.84192654999998,
                        "value": 0
                    },
                    {
                        "number": 64,
                        "time": 105.51844981666665,
                        "value": 1
                    },
                    {
                        "number": 64,
                        "time": 106.08774065833332,
                        "value": 0
                    },
                    {
                        "number": 64,
                        "time": 106.62303097499998,
                        "value": 0
                    },
                    {
                        "number": 64,
                        "time": 111.82075225833331,
                        "value": 1
                    },
                    {
                        "number": 64,
                        "time": 112.37347874166664,
                        "value": 0
                    },
                    {
                        "number": 64,
                        "time": 112.43886436666665,
                        "value": 1
                    },
                    {
                        "number": 64,
                        "time": 112.99159084999998,
                        "value": 0
                    },
                    {
                        "number": 64,
                        "time": 113.07615625833331,
                        "value": 1
                    },
                    {
                        "number": 64,
                        "time": 113.62888274166664,
                        "value": 0
                    },
                    {
                        "number": 64,
                        "time": 113.69426836666665,
                        "value": 1
                    },
                    {
                        "number": 64,
                        "time": 114.24176399999997,
                        "value": 0
                    },
                    {
                        "number": 64,
                        "time": 114.40479215833331,
                        "value": 1
                    },
                    {
                        "number": 64,
                        "time": 116.35764282499997,
                        "value": 0
                    },
                    {
                        "number": 64,
                        "time": 119.31568849999996,
                        "value": 1
                    },
                    {
                        "number": 64,
                        "time": 121.48910667499996,
                        "value": 0
                    },
                    {
                        "number": 64,
                        "time": 124.33730449999996,
                        "value": 1
                    },
                    {
                        "number": 64,
                        "time": 126.51072267499995,
                        "value": 0
                    },
                    {
                        "number": 64,
                        "time": 126.90042099999995,
                        "value": 1
                    },
                    {
                        "number": 64,
                        "time": 129.24558541666661,
                        "value": 0
                    },
                    {
                        "number": 64,
                        "time": 129.30661199999994,
                        "value": 1
                    },
                    {
                        "number": 64,
                        "time": 131.81741999999994,
                        "value": 0
                    },
                    {
                        "number": 64,
                        "time": 131.92203699999993,
                        "value": 1
                    },
                    {
                        "number": 64,
                        "time": 134.2672014166666,
                        "value": 0
                    },
                    {
                        "number": 64,
                        "time": 134.32822799999994,
                        "value": 1
                    },
                    {
                        "number": 64,
                        "time": 136.1764616666666,
                        "value": 0
                    },
                    {
                        "number": 64,
                        "time": 136.21394942499992,
                        "value": 1
                    },
                    {
                        "number": 64,
                        "time": 136.89744715833325,
                        "value": 0
                    },
                    {
                        "number": 64,
                        "time": 137.01339766666658,
                        "value": 1
                    },
                    {
                        "number": 64,
                        "time": 141.8606519999999,
                        "value": 0
                    },
                    {
                        "number": 64,
                        "time": 143.08641451666657,
                        "value": 1
                    },
                    {
                        "number": 64,
                        "time": 144.3714599999999,
                        "value": 0
                    },
                    {
                        "number": 64,
                        "time": 144.53448815833323,
                        "value": 1
                    },
                    {
                        "number": 64,
                        "time": 145.37142415833324,
                        "value": 0
                    },
                    {
                        "number": 64,
                        "time": 145.59722251666656,
                        "value": 1
                    },
                    {
                        "number": 64,
                        "time": 146.8822679999999,
                        "value": 0
                    },
                    {
                        "number": 64,
                        "time": 147.04529615833323,
                        "value": 1
                    },
                    {
                        "number": 64,
                        "time": 148.1376719999999,
                        "value": 0
                    },
                    {
                        "number": 64,
                        "time": 153.86109370833321,
                        "value": 1
                    },
                    {
                        "number": 64,
                        "time": 154.42079465833322,
                        "value": 0
                    },
                    {
                        "number": 64,
                        "time": 155.11911313333323,
                        "value": 1
                    },
                    {
                        "number": 64,
                        "time": 155.6700959999999,
                        "value": 0
                    },
                    {
                        "number": 64,
                        "time": 155.77820023333322,
                        "value": 1
                    },
                    {
                        "number": 64,
                        "time": 156.31261874166657,
                        "value": 0
                    },
                    {
                        "number": 64,
                        "time": 156.3657990499999,
                        "value": 1
                    },
                    {
                        "number": 64,
                        "time": 156.7310867416666,
                        "value": 0
                    },
                    {
                        "number": 64,
                        "time": 156.76857449999991,
                        "value": 1
                    },
                    {
                        "number": 64,
                        "time": 156.9385771249999,
                        "value": 0
                    },
                    {
                        "number": 64,
                        "time": 157.0536558249999,
                        "value": 1
                    },
                    {
                        "number": 64,
                        "time": 157.94900298333323,
                        "value": 0
                    },
                    {
                        "number": 64,
                        "time": 158.88270970833324,
                        "value": 1
                    },
                    {
                        "number": 64,
                        "time": 159.44241065833324,
                        "value": 0
                    },
                    {
                        "number": 64,
                        "time": 160.17211423333325,
                        "value": 1
                    },
                    {
                        "number": 64,
                        "time": 160.6917119999999,
                        "value": 0
                    },
                    {
                        "number": 64,
                        "time": 160.79981623333325,
                        "value": 1
                    },
                    {
                        "number": 64,
                        "time": 161.3342347416666,
                        "value": 0
                    },
                    {
                        "number": 64,
                        "time": 161.38741504999993,
                        "value": 1
                    },
                    {
                        "number": 64,
                        "time": 161.7527027416666,
                        "value": 0
                    },
                    {
                        "number": 64,
                        "time": 161.79019049999994,
                        "value": 1
                    },
                    {
                        "number": 64,
                        "time": 161.96019312499993,
                        "value": 0
                    },
                    {
                        "number": 64,
                        "time": 162.07527182499993,
                        "value": 1
                    },
                    {
                        "number": 64,
                        "time": 162.7910264666666,
                        "value": 0
                    },
                    {
                        "number": 64,
                        "time": 163.25221307499993,
                        "value": 1
                    },
                    {
                        "number": 64,
                        "time": 163.84852997499993,
                        "value": 0
                    },
                    {
                        "number": 64,
                        "time": 164.56254099999992,
                        "value": 1
                    },
                    {
                        "number": 64,
                        "time": 165.5162993166666,
                        "value": 0
                    },
                    {
                        "number": 64,
                        "time": 165.76302107499993,
                        "value": 1
                    },
                    {
                        "number": 64,
                        "time": 166.35933797499993,
                        "value": 0
                    },
                    {
                        "number": 64,
                        "time": 167.07334899999992,
                        "value": 1
                    },
                    {
                        "number": 64,
                        "time": 167.60253665833326,
                        "value": 0
                    },
                    {
                        "number": 64,
                        "time": 168.27382907499992,
                        "value": 1
                    },
                    {
                        "number": 64,
                        "time": 168.87014597499993,
                        "value": 0
                    },
                    {
                        "number": 64,
                        "time": 169.58415699999992,
                        "value": 1
                    },
                    {
                        "number": 64,
                        "time": 170.66781475833326,
                        "value": 0
                    },
                    {
                        "number": 64,
                        "time": 170.7811498416666,
                        "value": 1
                    },
                    {
                        "number": 64,
                        "time": 171.37833854999994,
                        "value": 0
                    },
                    {
                        "number": 64,
                        "time": 172.0548618166666,
                        "value": 1
                    },
                    {
                        "number": 64,
                        "time": 172.62415265833326,
                        "value": 0
                    },
                    {
                        "number": 64,
                        "time": 173.15944297499993,
                        "value": 0
                    },
                    {
                        "number": 64,
                        "time": 178.35716425833326,
                        "value": 1
                    },
                    {
                        "number": 64,
                        "time": 178.9098907416666,
                        "value": 0
                    },
                    {
                        "number": 64,
                        "time": 178.9752763666666,
                        "value": 1
                    },
                    {
                        "number": 64,
                        "time": 179.52800284999995,
                        "value": 0
                    },
                    {
                        "number": 64,
                        "time": 179.61256825833328,
                        "value": 1
                    },
                    {
                        "number": 64,
                        "time": 180.16529474166663,
                        "value": 0
                    },
                    {
                        "number": 64,
                        "time": 180.23068036666663,
                        "value": 1
                    },
                    {
                        "number": 64,
                        "time": 180.77817599999997,
                        "value": 0
                    },
                    {
                        "number": 64,
                        "time": 180.99961531666665,
                        "value": 1
                    },
                    {
                        "number": 64,
                        "time": 182.89405482499998,
                        "value": 0
                    }
                ]
            },
            "id": 3,
            "name": "Pedale",
            "instrumentNumber": 0,
            "instrument": "acoustic grand piano",
            "instrumentFamily": "piano",
            "channelNumber": 0,
            "isPercussion": false
        },
        {
            "startTime": 0,
            "duration": 0,
            "length": 0,
            "notes": [],
            "controlChanges": {},
            "id": 4,
            "name": "Grieg: Lyric Pieces - Album Leaf"
        },
        {
            "startTime": 0,
            "duration": 0,
            "length": 0,
            "notes": [],
            "controlChanges": {},
            "id": 5,
            "name": "Copyright © 2010 by Bernd Krueger"
        },
        {
            "startTime": 0,
            "duration": 0,
            "length": 0,
            "notes": [],
            "controlChanges": {},
            "id": 6,
            "name": "http://www.piano-midi.de/"
        },
        {
            "startTime": 0,
            "duration": 0,
            "length": 0,
            "notes": [],
            "controlChanges": {},
            "id": 7,
            "name": "Edition: 2012-09-24"
        },
        {
            "startTime": 0,
            "duration": 0,
            "length": 0,
            "notes": [],
            "controlChanges": {},
            "id": 8,
            "name": "Spur 8"
        },
        {
            "startTime": 0,
            "duration": 0,
            "length": 0,
            "notes": [],
            "controlChanges": {},
            "id": 9,
            "name": "Spur 9"
        },
        {
            "startTime": 0,
            "duration": 0,
            "length": 0,
            "notes": [],
            "controlChanges": {},
            "id": 10,
            "name": "Spur 10"
        },
        {
            "startTime": 0,
            "duration": 0,
            "length": 0,
            "notes": [],
            "controlChanges": {},
            "id": 11,
            "name": "Spur 11"
        },
        {
            "startTime": 0,
            "duration": 0,
            "length": 0,
            "notes": [],
            "controlChanges": {},
            "id": 12,
            "name": "Spur 12"
        },
        {
            "startTime": 0,
            "duration": 0,
            "length": 0,
            "notes": [],
            "controlChanges": {},
            "id": 13,
            "name": "Spur 13"
        },
        {
            "startTime": 0,
            "duration": 0,
            "length": 0,
            "notes": [],
            "controlChanges": {},
            "id": 14,
            "name": "Spur 14"
        },
        {
            "startTime": 0,
            "duration": 0,
            "length": 0,
            "notes": [],
            "controlChanges": {},
            "id": 15,
            "name": "Spur 15"
        },
        {
            "startTime": 0,
            "duration": 0,
            "length": 0,
            "notes": [],
            "controlChanges": {},
            "id": 16,
            "name": "Spur 16"
        }
    ]
}