{
    "header": {
        "PPQ": 480,
        "timeSignature": [
            3,
            8
        ],
        "bpm": 118.77989293972317,
        "name": "Grieg: Lyrische Stücke Op. 12 Nr. 4 Elfentanz"
    },
    "startTime": 0,
    "duration": 53.860125999999774,
    "tracks": [
        {
            "startTime": 0,
            "duration": 0,
            "length": 0,
            "notes": [],
            "controlChanges": {},
            "id": 0,
            "name": "Grieg: Lyrische Stücke Op. 12 Nr. 4 Elfentanz"
        },
        {
            "startTime": 0,
            "duration": 53.860125999999546,
            "length": 436,
            "notes": [
                {
                    "name": "B4",
                    "midi": 71,
                    "time": 0,
                    "velocity": 0.2677165354330709,
                    "duration": 0.063142
                },
                {
                    "name": "E5",
                    "midi": 76,
                    "time": 0,
                    "velocity": 0.31496062992125984,
                    "duration": 0.063142
                },
                {
                    "name": "B4",
                    "midi": 71,
                    "time": 0.252568,
                    "velocity": 0.2440944881889764,
                    "duration": 0.06314200000000003
                },
                {
                    "name": "E5",
                    "midi": 76,
                    "time": 0.252568,
                    "velocity": 0.29133858267716534,
                    "duration": 0.06314200000000003
                },
                {
                    "name": "E5",
                    "midi": 76,
                    "time": 0.505136,
                    "velocity": 0.29133858267716534,
                    "duration": 0.06314200000000003
                },
                {
                    "name": "C5",
                    "midi": 72,
                    "time": 0.505136,
                    "velocity": 0.2440944881889764,
                    "duration": 0.06314200000000003
                },
                {
                    "name": "B4",
                    "midi": 71,
                    "time": 0.757704,
                    "velocity": 0.2677165354330709,
                    "duration": 0.06314200000000003
                },
                {
                    "name": "E5",
                    "midi": 76,
                    "time": 0.757704,
                    "velocity": 0.31496062992125984,
                    "duration": 0.06314200000000003
                },
                {
                    "name": "E5",
                    "midi": 76,
                    "time": 1.010272,
                    "velocity": 0.28346456692913385,
                    "duration": 0.06314200000000003
                },
                {
                    "name": "B4",
                    "midi": 71,
                    "time": 1.010272,
                    "velocity": 0.23622047244094488,
                    "duration": 0.06314200000000003
                },
                {
                    "name": "G4",
                    "midi": 67,
                    "time": 1.2628400000000002,
                    "velocity": 0.31496062992125984,
                    "duration": 0.12628400000000006
                },
                {
                    "name": "A4",
                    "midi": 69,
                    "time": 1.3891240000000002,
                    "velocity": 0.2755905511811024,
                    "duration": 0.12628400000000006
                },
                {
                    "name": "B4",
                    "midi": 71,
                    "time": 1.5154080000000003,
                    "velocity": 0.31496062992125984,
                    "duration": 0.12628400000000006
                },
                {
                    "name": "C5",
                    "midi": 72,
                    "time": 1.6416920000000004,
                    "velocity": 0.28346456692913385,
                    "duration": 0.12628400000000006
                },
                {
                    "name": "B4",
                    "midi": 71,
                    "time": 1.7679760000000004,
                    "velocity": 0.31496062992125984,
                    "duration": 0.12628400000000006
                },
                {
                    "name": "F#5",
                    "midi": 78,
                    "time": 1.8942600000000005,
                    "velocity": 0.3543307086614173,
                    "duration": 0.12628400000000006
                },
                {
                    "name": "E5",
                    "midi": 76,
                    "time": 2.0205440000000006,
                    "velocity": 0.33858267716535434,
                    "duration": 0.12628400000000006
                },
                {
                    "name": "D5",
                    "midi": 74,
                    "time": 2.1468280000000006,
                    "velocity": 0.31496062992125984,
                    "duration": 0.12628400000000006
                },
                {
                    "name": "B4",
                    "midi": 71,
                    "time": 2.2731120000000007,
                    "velocity": 0.30708661417322836,
                    "duration": 0.12628400000000006
                },
                {
                    "name": "E5",
                    "midi": 76,
                    "time": 2.3993960000000008,
                    "velocity": 0.3228346456692913,
                    "duration": 0.12628400000000006
                },
                {
                    "name": "G5",
                    "midi": 79,
                    "time": 2.525680000000001,
                    "velocity": 0.33858267716535434,
                    "duration": 0.12628400000000006
                },
                {
                    "name": "A#5",
                    "midi": 82,
                    "time": 2.651964000000001,
                    "velocity": 0.3543307086614173,
                    "duration": 0.12628400000000006
                },
                {
                    "name": "B5",
                    "midi": 83,
                    "time": 2.778248000000001,
                    "velocity": 0.3779527559055118,
                    "duration": 0.12628400000000006
                },
                {
                    "name": "D5",
                    "midi": 74,
                    "time": 3.030816000000001,
                    "velocity": 0.2677165354330709,
                    "duration": 0.06314200000000003
                },
                {
                    "name": "F#5",
                    "midi": 78,
                    "time": 3.030816000000001,
                    "velocity": 0.2677165354330709,
                    "duration": 0.06314200000000003
                },
                {
                    "name": "B5",
                    "midi": 83,
                    "time": 3.030816000000001,
                    "velocity": 0.31496062992125984,
                    "duration": 0.06314200000000003
                },
                {
                    "name": "B5",
                    "midi": 83,
                    "time": 3.283384000000001,
                    "velocity": 0.29133858267716534,
                    "duration": 0.06314200000000003
                },
                {
                    "name": "D5",
                    "midi": 74,
                    "time": 3.283384000000001,
                    "velocity": 0.2440944881889764,
                    "duration": 0.06314200000000003
                },
                {
                    "name": "F#5",
                    "midi": 78,
                    "time": 3.283384000000001,
                    "velocity": 0.2440944881889764,
                    "duration": 0.06314200000000003
                },
                {
                    "name": "B5",
                    "midi": 83,
                    "time": 3.5359520000000013,
                    "velocity": 0.29133858267716534,
                    "duration": 0.06314200000000003
                },
                {
                    "name": "D5",
                    "midi": 74,
                    "time": 3.5359520000000013,
                    "velocity": 0.2440944881889764,
                    "duration": 0.06314200000000003
                },
                {
                    "name": "G5",
                    "midi": 79,
                    "time": 3.5359520000000013,
                    "velocity": 0.2440944881889764,
                    "duration": 0.06314200000000003
                },
                {
                    "name": "D5",
                    "midi": 74,
                    "time": 3.7885200000000014,
                    "velocity": 0.2677165354330709,
                    "duration": 0.06314200000000003
                },
                {
                    "name": "F#5",
                    "midi": 78,
                    "time": 3.7885200000000014,
                    "velocity": 0.2677165354330709,
                    "duration": 0.06314200000000003
                },
                {
                    "name": "B5",
                    "midi": 83,
                    "time": 3.7885200000000014,
                    "velocity": 0.31496062992125984,
                    "duration": 0.06314200000000003
                },
                {
                    "name": "D5",
                    "midi": 74,
                    "time": 4.041088000000001,
                    "velocity": 0.23622047244094488,
                    "duration": 0.06314200000000003
                },
                {
                    "name": "B5",
                    "midi": 83,
                    "time": 4.041088000000001,
                    "velocity": 0.28346456692913385,
                    "duration": 0.06314200000000003
                },
                {
                    "name": "F#5",
                    "midi": 78,
                    "time": 4.041088000000001,
                    "velocity": 0.23622047244094488,
                    "duration": 0.06314200000000003
                },
                {
                    "name": "B4",
                    "midi": 71,
                    "time": 4.293656000000001,
                    "velocity": 0.31496062992125984,
                    "duration": 0.12628400000000006
                },
                {
                    "name": "C#5",
                    "midi": 73,
                    "time": 4.419940000000001,
                    "velocity": 0.2755905511811024,
                    "duration": 0.12628400000000006
                },
                {
                    "name": "D5",
                    "midi": 74,
                    "time": 4.546224000000001,
                    "velocity": 0.31496062992125984,
                    "duration": 0.12628400000000006
                },
                {
                    "name": "F#5",
                    "midi": 78,
                    "time": 4.672508000000001,
                    "velocity": 0.28346456692913385,
                    "duration": 0.12628400000000006
                },
                {
                    "name": "B4",
                    "midi": 71,
                    "time": 4.7987920000000015,
                    "velocity": 0.31496062992125984,
                    "duration": 0.12628400000000006
                },
                {
                    "name": "D5",
                    "midi": 74,
                    "time": 4.7987920000000015,
                    "velocity": 0.31496062992125984,
                    "duration": 0.12628400000000006
                },
                {
                    "name": "F#5",
                    "midi": 78,
                    "time": 4.925076000000002,
                    "velocity": 0.3543307086614173,
                    "duration": 0.12628400000000006
                },
                {
                    "name": "C#5",
                    "midi": 73,
                    "time": 5.051360000000002,
                    "velocity": 0.49606299212598426,
                    "duration": 0.12628400000000006
                },
                {
                    "name": "A#4",
                    "midi": 70,
                    "time": 5.051360000000002,
                    "velocity": 0.41732283464566927,
                    "duration": 0.2525680000000001
                },
                {
                    "name": "F#5",
                    "midi": 78,
                    "time": 5.177644000000002,
                    "velocity": 0.47244094488188976,
                    "duration": 0.12628400000000006
                },
                {
                    "name": "B4",
                    "midi": 71,
                    "time": 5.303928000000002,
                    "velocity": 0.4094488188976378,
                    "duration": 0.12628400000000006
                },
                {
                    "name": "D#5",
                    "midi": 75,
                    "time": 5.303928000000002,
                    "velocity": 0.4881889763779528,
                    "duration": 0.12628400000000006
                },
                {
                    "name": "F#5",
                    "midi": 78,
                    "time": 5.430212000000002,
                    "velocity": 0.44881889763779526,
                    "duration": 0.12628400000000006
                },
                {
                    "name": "B4",
                    "midi": 71,
                    "time": 5.556496000000002,
                    "velocity": 0.41732283464566927,
                    "duration": 0.12628400000000006
                },
                {
                    "name": "D#5",
                    "midi": 75,
                    "time": 5.556496000000002,
                    "velocity": 0.49606299212598426,
                    "duration": 0.12628400000000006
                },
                {
                    "name": "F#5",
                    "midi": 78,
                    "time": 5.682780000000002,
                    "velocity": 0.4645669291338583,
                    "duration": 0.12628400000000006
                },
                {
                    "name": "D#5",
                    "midi": 75,
                    "time": 5.809064000000002,
                    "velocity": 0.5039370078740157,
                    "duration": 0.12628400000000006
                },
                {
                    "name": "B4",
                    "midi": 71,
                    "time": 5.809064000000002,
                    "velocity": 0.4251968503937008,
                    "duration": 0.12628400000000006
                },
                {
                    "name": "F#5",
                    "midi": 78,
                    "time": 5.935348000000002,
                    "velocity": 0.44881889763779526,
                    "duration": 0.12628400000000006
                },
                {
                    "name": "B4",
                    "midi": 71,
                    "time": 6.061632000000002,
                    "velocity": 0.2677165354330709,
                    "duration": 0.06314200000000003
                },
                {
                    "name": "E5",
                    "midi": 76,
                    "time": 6.061632000000002,
                    "velocity": 0.31496062992125984,
                    "duration": 0.06314200000000003
                },
                {
                    "name": "E5",
                    "midi": 76,
                    "time": 6.314200000000002,
                    "velocity": 0.29133858267716534,
                    "duration": 0.06314200000000003
                },
                {
                    "name": "B4",
                    "midi": 71,
                    "time": 6.314200000000002,
                    "velocity": 0.2440944881889764,
                    "duration": 0.06314200000000003
                },
                {
                    "name": "C5",
                    "midi": 72,
                    "time": 6.566768000000002,
                    "velocity": 0.2440944881889764,
                    "duration": 0.06314200000000003
                },
                {
                    "name": "E5",
                    "midi": 76,
                    "time": 6.566768000000002,
                    "velocity": 0.29133858267716534,
                    "duration": 0.06314200000000003
                },
                {
                    "name": "B4",
                    "midi": 71,
                    "time": 6.8193360000000025,
                    "velocity": 0.2677165354330709,
                    "duration": 0.06314200000000003
                },
                {
                    "name": "E5",
                    "midi": 76,
                    "time": 6.8193360000000025,
                    "velocity": 0.31496062992125984,
                    "duration": 0.06314200000000003
                },
                {
                    "name": "E5",
                    "midi": 76,
                    "time": 7.071904000000003,
                    "velocity": 0.28346456692913385,
                    "duration": 0.06314200000000003
                },
                {
                    "name": "B4",
                    "midi": 71,
                    "time": 7.071904000000003,
                    "velocity": 0.23622047244094488,
                    "duration": 0.06314200000000003
                },
                {
                    "name": "G4",
                    "midi": 67,
                    "time": 7.324472000000003,
                    "velocity": 0.31496062992125984,
                    "duration": 0.12628400000000006
                },
                {
                    "name": "A4",
                    "midi": 69,
                    "time": 7.450756000000003,
                    "velocity": 0.2755905511811024,
                    "duration": 0.12628400000000006
                },
                {
                    "name": "B4",
                    "midi": 71,
                    "time": 7.577040000000003,
                    "velocity": 0.31496062992125984,
                    "duration": 0.12628400000000006
                },
                {
                    "name": "C5",
                    "midi": 72,
                    "time": 7.703324000000003,
                    "velocity": 0.28346456692913385,
                    "duration": 0.12628400000000006
                },
                {
                    "name": "B4",
                    "midi": 71,
                    "time": 7.829608000000003,
                    "velocity": 0.31496062992125984,
                    "duration": 0.12628400000000006
                },
                {
                    "name": "F#5",
                    "midi": 78,
                    "time": 7.955892000000003,
                    "velocity": 0.3543307086614173,
                    "duration": 0.12628399999999917
                },
                {
                    "name": "E5",
                    "midi": 76,
                    "time": 8.082176000000002,
                    "velocity": 0.33858267716535434,
                    "duration": 0.12628400000000006
                },
                {
                    "name": "D5",
                    "midi": 74,
                    "time": 8.208460000000002,
                    "velocity": 0.31496062992125984,
                    "duration": 0.12628400000000006
                },
                {
                    "name": "B4",
                    "midi": 71,
                    "time": 8.334744000000002,
                    "velocity": 0.30708661417322836,
                    "duration": 0.12628400000000006
                },
                {
                    "name": "E5",
                    "midi": 76,
                    "time": 8.461028000000002,
                    "velocity": 0.3228346456692913,
                    "duration": 0.12628400000000006
                },
                {
                    "name": "G5",
                    "midi": 79,
                    "time": 8.587312000000002,
                    "velocity": 0.33858267716535434,
                    "duration": 0.12628400000000006
                },
                {
                    "name": "A#5",
                    "midi": 82,
                    "time": 8.713596000000003,
                    "velocity": 0.3543307086614173,
                    "duration": 0.12628400000000006
                },
                {
                    "name": "B5",
                    "midi": 83,
                    "time": 8.839880000000003,
                    "velocity": 0.3779527559055118,
                    "duration": 0.12628400000000006
                },
                {
                    "name": "B5",
                    "midi": 83,
                    "time": 9.092448000000003,
                    "velocity": 0.31496062992125984,
                    "duration": 0.06314199999999914
                },
                {
                    "name": "D5",
                    "midi": 74,
                    "time": 9.092448000000003,
                    "velocity": 0.2677165354330709,
                    "duration": 0.06314199999999914
                },
                {
                    "name": "F#5",
                    "midi": 78,
                    "time": 9.092448000000003,
                    "velocity": 0.2677165354330709,
                    "duration": 0.06314199999999914
                },
                {
                    "name": "D5",
                    "midi": 74,
                    "time": 9.345016000000001,
                    "velocity": 0.2440944881889764,
                    "duration": 0.06314199999999914
                },
                {
                    "name": "F#5",
                    "midi": 78,
                    "time": 9.345016000000001,
                    "velocity": 0.2440944881889764,
                    "duration": 0.06314199999999914
                },
                {
                    "name": "B5",
                    "midi": 83,
                    "time": 9.345016000000001,
                    "velocity": 0.29133858267716534,
                    "duration": 0.06314199999999914
                },
                {
                    "name": "D5",
                    "midi": 74,
                    "time": 9.597584,
                    "velocity": 0.2440944881889764,
                    "duration": 0.06314199999999914
                },
                {
                    "name": "G5",
                    "midi": 79,
                    "time": 9.597584,
                    "velocity": 0.2440944881889764,
                    "duration": 0.06314199999999914
                },
                {
                    "name": "B5",
                    "midi": 83,
                    "time": 9.597584,
                    "velocity": 0.29133858267716534,
                    "duration": 0.06314199999999914
                },
                {
                    "name": "B5",
                    "midi": 83,
                    "time": 9.850151999999998,
                    "velocity": 0.31496062992125984,
                    "duration": 0.06314199999999914
                },
                {
                    "name": "D5",
                    "midi": 74,
                    "time": 9.850151999999998,
                    "velocity": 0.2677165354330709,
                    "duration": 0.06314199999999914
                },
                {
                    "name": "F#5",
                    "midi": 78,
                    "time": 9.850151999999998,
                    "velocity": 0.2677165354330709,
                    "duration": 0.06314199999999914
                },
                {
                    "name": "D5",
                    "midi": 74,
                    "time": 10.102719999999996,
                    "velocity": 0.23622047244094488,
                    "duration": 0.06314199999999914
                },
                {
                    "name": "F#5",
                    "midi": 78,
                    "time": 10.102719999999996,
                    "velocity": 0.23622047244094488,
                    "duration": 0.06314199999999914
                },
                {
                    "name": "B5",
                    "midi": 83,
                    "time": 10.102719999999996,
                    "velocity": 0.28346456692913385,
                    "duration": 0.06314199999999914
                },
                {
                    "name": "B4",
                    "midi": 71,
                    "time": 10.355287999999994,
                    "velocity": 0.31496062992125984,
                    "duration": 0.12628400000000006
                },
                {
                    "name": "C#5",
                    "midi": 73,
                    "time": 10.481571999999995,
                    "velocity": 0.2755905511811024,
                    "duration": 0.12628400000000006
                },
                {
                    "name": "D5",
                    "midi": 74,
                    "time": 10.607855999999995,
                    "velocity": 0.31496062992125984,
                    "duration": 0.12628400000000006
                },
                {
                    "name": "F#5",
                    "midi": 78,
                    "time": 10.734139999999995,
                    "velocity": 0.28346456692913385,
                    "duration": 0.12628400000000006
                },
                {
                    "name": "D5",
                    "midi": 74,
                    "time": 10.860423999999995,
                    "velocity": 0.31496062992125984,
                    "duration": 0.12628400000000006
                },
                {
                    "name": "B4",
                    "midi": 71,
                    "time": 10.860423999999995,
                    "velocity": 0.31496062992125984,
                    "duration": 0.12628400000000006
                },
                {
                    "name": "F#5",
                    "midi": 78,
                    "time": 10.986707999999995,
                    "velocity": 0.3543307086614173,
                    "duration": 0.12628400000000006
                },
                {
                    "name": "A#4",
                    "midi": 70,
                    "time": 11.112991999999995,
                    "velocity": 0.41732283464566927,
                    "duration": 0.2525680000000001
                },
                {
                    "name": "C#5",
                    "midi": 73,
                    "time": 11.112991999999995,
                    "velocity": 0.49606299212598426,
                    "duration": 0.12628400000000006
                },
                {
                    "name": "F#5",
                    "midi": 78,
                    "time": 11.239275999999995,
                    "velocity": 0.47244094488188976,
                    "duration": 0.12628400000000006
                },
                {
                    "name": "B4",
                    "midi": 71,
                    "time": 11.365559999999995,
                    "velocity": 0.4094488188976378,
                    "duration": 0.12628400000000006
                },
                {
                    "name": "D#5",
                    "midi": 75,
                    "time": 11.365559999999995,
                    "velocity": 0.4881889763779528,
                    "duration": 0.12628400000000006
                },
                {
                    "name": "F#5",
                    "midi": 78,
                    "time": 11.491843999999995,
                    "velocity": 0.44881889763779526,
                    "duration": 0.12628400000000006
                },
                {
                    "name": "B4",
                    "midi": 71,
                    "time": 11.618127999999995,
                    "velocity": 0.41732283464566927,
                    "duration": 0.12628400000000006
                },
                {
                    "name": "D#5",
                    "midi": 75,
                    "time": 11.618127999999995,
                    "velocity": 0.49606299212598426,
                    "duration": 0.12628400000000006
                },
                {
                    "name": "F#5",
                    "midi": 78,
                    "time": 11.744411999999995,
                    "velocity": 0.4645669291338583,
                    "duration": 0.12628400000000006
                },
                {
                    "name": "D#5",
                    "midi": 75,
                    "time": 11.870695999999995,
                    "velocity": 0.5039370078740157,
                    "duration": 0.12628400000000006
                },
                {
                    "name": "B4",
                    "midi": 71,
                    "time": 11.870695999999995,
                    "velocity": 0.4251968503937008,
                    "duration": 0.12628400000000006
                },
                {
                    "name": "F#5",
                    "midi": 78,
                    "time": 11.996979999999995,
                    "velocity": 0.44881889763779526,
                    "duration": 0.12628400000000006
                },
                {
                    "name": "B3",
                    "midi": 59,
                    "time": 12.123263999999995,
                    "velocity": 0.6929133858267716,
                    "duration": 0.06314199999999914
                },
                {
                    "name": "B3",
                    "midi": 59,
                    "time": 12.375831999999994,
                    "velocity": 0.6299212598425197,
                    "duration": 0.06314199999999914
                },
                {
                    "name": "F#3",
                    "midi": 54,
                    "time": 12.628399999999992,
                    "velocity": 0.6299212598425197,
                    "duration": 0.06314199999999914
                },
                {
                    "name": "B3",
                    "midi": 59,
                    "time": 12.88096799999999,
                    "velocity": 0.6929133858267716,
                    "duration": 0.06314199999999914
                },
                {
                    "name": "B3",
                    "midi": 59,
                    "time": 13.133535999999989,
                    "velocity": 0.6220472440944882,
                    "duration": 0.06314199999999914
                },
                {
                    "name": "E4",
                    "midi": 64,
                    "time": 13.386103999999987,
                    "velocity": 0.31496062992125984,
                    "duration": 0.12628400000000006
                },
                {
                    "name": "F#4",
                    "midi": 66,
                    "time": 13.512387999999987,
                    "velocity": 0.2755905511811024,
                    "duration": 0.12628400000000006
                },
                {
                    "name": "G4",
                    "midi": 67,
                    "time": 13.638671999999987,
                    "velocity": 0.31496062992125984,
                    "duration": 0.12628400000000006
                },
                {
                    "name": "A#4",
                    "midi": 70,
                    "time": 13.764955999999987,
                    "velocity": 0.28346456692913385,
                    "duration": 0.12628400000000006
                },
                {
                    "name": "G4",
                    "midi": 67,
                    "time": 13.891239999999987,
                    "velocity": 0.31496062992125984,
                    "duration": 0.12628400000000006
                },
                {
                    "name": "A#4",
                    "midi": 70,
                    "time": 14.017523999999987,
                    "velocity": 0.2677165354330709,
                    "duration": 0.12628400000000006
                },
                {
                    "name": "F#4",
                    "midi": 66,
                    "time": 14.143807999999988,
                    "velocity": 0.3228346456692913,
                    "duration": 0.12628400000000006
                },
                {
                    "name": "A#4",
                    "midi": 70,
                    "time": 14.270091999999988,
                    "velocity": 0.28346456692913385,
                    "duration": 0.12628400000000006
                },
                {
                    "name": "E4",
                    "midi": 64,
                    "time": 14.396375999999988,
                    "velocity": 0.3228346456692913,
                    "duration": 0.12628400000000006
                },
                {
                    "name": "A#4",
                    "midi": 70,
                    "time": 14.522659999999988,
                    "velocity": 0.28346456692913385,
                    "duration": 0.12628400000000006
                },
                {
                    "name": "E4",
                    "midi": 64,
                    "time": 14.648943999999988,
                    "velocity": 0.3228346456692913,
                    "duration": 0.12628400000000006
                },
                {
                    "name": "A#4",
                    "midi": 70,
                    "time": 14.775227999999988,
                    "velocity": 0.2755905511811024,
                    "duration": 0.12628400000000006
                },
                {
                    "name": "B3",
                    "midi": 59,
                    "time": 15.154079999999988,
                    "velocity": 0.6929133858267716,
                    "duration": 0.06314199999999914
                },
                {
                    "name": "B3",
                    "midi": 59,
                    "time": 15.406647999999986,
                    "velocity": 0.6299212598425197,
                    "duration": 0.06314199999999914
                },
                {
                    "name": "F#3",
                    "midi": 54,
                    "time": 15.659215999999985,
                    "velocity": 0.6299212598425197,
                    "duration": 0.06314199999999914
                },
                {
                    "name": "B3",
                    "midi": 59,
                    "time": 15.911783999999983,
                    "velocity": 0.6929133858267716,
                    "duration": 0.06314199999999914
                },
                {
                    "name": "B3",
                    "midi": 59,
                    "time": 16.164351999999983,
                    "velocity": 0.6220472440944882,
                    "duration": 0.06314199999999914
                },
                {
                    "name": "E4",
                    "midi": 64,
                    "time": 16.416919999999983,
                    "velocity": 0.31496062992125984,
                    "duration": 0.1262839999999983
                },
                {
                    "name": "F#4",
                    "midi": 66,
                    "time": 16.54320399999998,
                    "velocity": 0.2755905511811024,
                    "duration": 0.1262839999999983
                },
                {
                    "name": "G4",
                    "midi": 67,
                    "time": 16.66948799999998,
                    "velocity": 0.31496062992125984,
                    "duration": 0.1262839999999983
                },
                {
                    "name": "A#4",
                    "midi": 70,
                    "time": 16.795771999999978,
                    "velocity": 0.28346456692913385,
                    "duration": 0.1262839999999983
                },
                {
                    "name": "G4",
                    "midi": 67,
                    "time": 16.922055999999976,
                    "velocity": 0.31496062992125984,
                    "duration": 0.1262839999999983
                },
                {
                    "name": "A#4",
                    "midi": 70,
                    "time": 17.048339999999975,
                    "velocity": 0.2677165354330709,
                    "duration": 0.1262839999999983
                },
                {
                    "name": "F#4",
                    "midi": 66,
                    "time": 17.174623999999973,
                    "velocity": 0.3228346456692913,
                    "duration": 0.1262839999999983
                },
                {
                    "name": "A#4",
                    "midi": 70,
                    "time": 17.30090799999997,
                    "velocity": 0.28346456692913385,
                    "duration": 0.1262839999999983
                },
                {
                    "name": "E4",
                    "midi": 64,
                    "time": 17.42719199999997,
                    "velocity": 0.3228346456692913,
                    "duration": 0.1262839999999983
                },
                {
                    "name": "A#4",
                    "midi": 70,
                    "time": 17.553475999999968,
                    "velocity": 0.28346456692913385,
                    "duration": 0.1262839999999983
                },
                {
                    "name": "E4",
                    "midi": 64,
                    "time": 17.679759999999966,
                    "velocity": 0.3228346456692913,
                    "duration": 0.1262839999999983
                },
                {
                    "name": "A#4",
                    "midi": 70,
                    "time": 17.806043999999964,
                    "velocity": 0.2755905511811024,
                    "duration": 0.1262839999999983
                },
                {
                    "name": "G4",
                    "midi": 67,
                    "time": 17.932327999999963,
                    "velocity": 0.3228346456692913,
                    "duration": 0.1262839999999983
                },
                {
                    "name": "A4",
                    "midi": 69,
                    "time": 18.05861199999996,
                    "velocity": 0.2755905511811024,
                    "duration": 0.1262839999999983
                },
                {
                    "name": "A#4",
                    "midi": 70,
                    "time": 18.18489599999996,
                    "velocity": 0.3464566929133858,
                    "duration": 0.1262839999999983
                },
                {
                    "name": "C#5",
                    "midi": 73,
                    "time": 18.311179999999958,
                    "velocity": 0.31496062992125984,
                    "duration": 0.1262839999999983
                },
                {
                    "name": "A#4",
                    "midi": 70,
                    "time": 18.437463999999956,
                    "velocity": 0.36220472440944884,
                    "duration": 0.1262839999999983
                },
                {
                    "name": "C#5",
                    "midi": 73,
                    "time": 18.563747999999954,
                    "velocity": 0.30708661417322836,
                    "duration": 0.1262839999999983
                },
                {
                    "name": "A4",
                    "midi": 69,
                    "time": 18.690031999999952,
                    "velocity": 0.4015748031496063,
                    "duration": 0.1262839999999983
                },
                {
                    "name": "C#5",
                    "midi": 73,
                    "time": 18.81631599999995,
                    "velocity": 0.3543307086614173,
                    "duration": 0.1262839999999983
                },
                {
                    "name": "G4",
                    "midi": 67,
                    "time": 18.94259999999995,
                    "velocity": 0.4251968503937008,
                    "duration": 0.1262839999999983
                },
                {
                    "name": "C#5",
                    "midi": 73,
                    "time": 19.068883999999947,
                    "velocity": 0.3779527559055118,
                    "duration": 0.1262839999999983
                },
                {
                    "name": "G4",
                    "midi": 67,
                    "time": 19.195167999999946,
                    "velocity": 0.44881889763779526,
                    "duration": 0.1262839999999983
                },
                {
                    "name": "C#5",
                    "midi": 73,
                    "time": 19.321451999999944,
                    "velocity": 0.41732283464566927,
                    "duration": 0.1262839999999983
                },
                {
                    "name": "A#4",
                    "midi": 70,
                    "time": 19.447735999999942,
                    "velocity": 0.4645669291338583,
                    "duration": 0.1262839999999983
                },
                {
                    "name": "B4",
                    "midi": 71,
                    "time": 19.57401999999994,
                    "velocity": 0.4094488188976378,
                    "duration": 0.1262839999999983
                },
                {
                    "name": "C5",
                    "midi": 72,
                    "time": 19.70030399999994,
                    "velocity": 0.4881889763779528,
                    "duration": 0.1262839999999983
                },
                {
                    "name": "E5",
                    "midi": 76,
                    "time": 19.826587999999937,
                    "velocity": 0.4330708661417323,
                    "duration": 0.1262839999999983
                },
                {
                    "name": "C5",
                    "midi": 72,
                    "time": 19.952871999999935,
                    "velocity": 0.4881889763779528,
                    "duration": 0.1262839999999983
                },
                {
                    "name": "E5",
                    "midi": 76,
                    "time": 20.079155999999934,
                    "velocity": 0.4330708661417323,
                    "duration": 0.1262839999999983
                },
                {
                    "name": "B4",
                    "midi": 71,
                    "time": 20.205439999999932,
                    "velocity": 0.48031496062992124,
                    "duration": 0.1262839999999983
                },
                {
                    "name": "E5",
                    "midi": 76,
                    "time": 20.33172399999993,
                    "velocity": 0.3937007874015748,
                    "duration": 0.1262839999999983
                },
                {
                    "name": "A#4",
                    "midi": 70,
                    "time": 20.45800799999993,
                    "velocity": 0.4881889763779528,
                    "duration": 0.1262839999999983
                },
                {
                    "name": "E5",
                    "midi": 76,
                    "time": 20.584291999999927,
                    "velocity": 0.4330708661417323,
                    "duration": 0.1262839999999983
                },
                {
                    "name": "A#4",
                    "midi": 70,
                    "time": 20.710575999999925,
                    "velocity": 0.4566929133858268,
                    "duration": 0.1262839999999983
                },
                {
                    "name": "E5",
                    "midi": 76,
                    "time": 20.836859999999923,
                    "velocity": 0.3937007874015748,
                    "duration": 0.1262839999999983
                },
                {
                    "name": "A#4",
                    "midi": 70,
                    "time": 20.96314399999992,
                    "velocity": 0.4330708661417323,
                    "duration": 0.1262839999999983
                },
                {
                    "name": "E5",
                    "midi": 76,
                    "time": 21.08942799999992,
                    "velocity": 0.36220472440944884,
                    "duration": 0.1262839999999983
                },
                {
                    "name": "B4",
                    "midi": 71,
                    "time": 21.215711999999918,
                    "velocity": 0.31496062992125984,
                    "duration": 0.1262839999999983
                },
                {
                    "name": "E5",
                    "midi": 76,
                    "time": 21.341995999999916,
                    "velocity": 0.28346456692913385,
                    "duration": 0.1262839999999983
                },
                {
                    "name": "B4",
                    "midi": 71,
                    "time": 21.468279999999915,
                    "velocity": 0.31496062992125984,
                    "duration": 0.1262839999999983
                },
                {
                    "name": "E5",
                    "midi": 76,
                    "time": 21.594563999999913,
                    "velocity": 0.2677165354330709,
                    "duration": 0.1262839999999983
                },
                {
                    "name": "B4",
                    "midi": 71,
                    "time": 21.72084799999991,
                    "velocity": 0.3228346456692913,
                    "duration": 0.1262839999999983
                },
                {
                    "name": "E5",
                    "midi": 76,
                    "time": 21.84713199999991,
                    "velocity": 0.28346456692913385,
                    "duration": 0.1262839999999983
                },
                {
                    "name": "B4",
                    "midi": 71,
                    "time": 21.973415999999908,
                    "velocity": 0.31496062992125984,
                    "duration": 0.1262839999999983
                },
                {
                    "name": "D#5",
                    "midi": 75,
                    "time": 22.099699999999906,
                    "velocity": 0.28346456692913385,
                    "duration": 0.1262839999999983
                },
                {
                    "name": "B4",
                    "midi": 71,
                    "time": 22.225983999999904,
                    "velocity": 0.31496062992125984,
                    "duration": 0.1262839999999983
                },
                {
                    "name": "D#5",
                    "midi": 75,
                    "time": 22.352267999999903,
                    "velocity": 0.2677165354330709,
                    "duration": 0.1262839999999983
                },
                {
                    "name": "B4",
                    "midi": 71,
                    "time": 22.4785519999999,
                    "velocity": 0.3228346456692913,
                    "duration": 0.1262839999999983
                },
                {
                    "name": "D#5",
                    "midi": 75,
                    "time": 22.6048359999999,
                    "velocity": 0.28346456692913385,
                    "duration": 0.1262839999999983
                },
                {
                    "name": "E5",
                    "midi": 76,
                    "time": 22.731119999999898,
                    "velocity": 0.31496062992125984,
                    "duration": 0.06314199999999914
                },
                {
                    "name": "B4",
                    "midi": 71,
                    "time": 22.731119999999898,
                    "velocity": 0.2677165354330709,
                    "duration": 0.06314199999999914
                },
                {
                    "name": "B4",
                    "midi": 71,
                    "time": 22.983687999999898,
                    "velocity": 0.2440944881889764,
                    "duration": 0.06314199999999914
                },
                {
                    "name": "E5",
                    "midi": 76,
                    "time": 22.983687999999898,
                    "velocity": 0.29133858267716534,
                    "duration": 0.06314199999999914
                },
                {
                    "name": "C5",
                    "midi": 72,
                    "time": 23.236255999999898,
                    "velocity": 0.2440944881889764,
                    "duration": 0.06314199999999914
                },
                {
                    "name": "E5",
                    "midi": 76,
                    "time": 23.236255999999898,
                    "velocity": 0.29133858267716534,
                    "duration": 0.06314199999999914
                },
                {
                    "name": "B4",
                    "midi": 71,
                    "time": 23.488823999999898,
                    "velocity": 0.2677165354330709,
                    "duration": 0.06314199999999914
                },
                {
                    "name": "E5",
                    "midi": 76,
                    "time": 23.488823999999898,
                    "velocity": 0.31496062992125984,
                    "duration": 0.06314199999999914
                },
                {
                    "name": "B4",
                    "midi": 71,
                    "time": 23.741391999999898,
                    "velocity": 0.23622047244094488,
                    "duration": 0.06314199999999914
                },
                {
                    "name": "E5",
                    "midi": 76,
                    "time": 23.741391999999898,
                    "velocity": 0.28346456692913385,
                    "duration": 0.06314199999999914
                },
                {
                    "name": "G4",
                    "midi": 67,
                    "time": 23.9939599999999,
                    "velocity": 0.31496062992125984,
                    "duration": 0.1262839999999983
                },
                {
                    "name": "A4",
                    "midi": 69,
                    "time": 24.120243999999897,
                    "velocity": 0.2755905511811024,
                    "duration": 0.1262839999999983
                },
                {
                    "name": "B4",
                    "midi": 71,
                    "time": 24.246527999999895,
                    "velocity": 0.31496062992125984,
                    "duration": 0.1262839999999983
                },
                {
                    "name": "C5",
                    "midi": 72,
                    "time": 24.372811999999893,
                    "velocity": 0.28346456692913385,
                    "duration": 0.1262839999999983
                },
                {
                    "name": "B4",
                    "midi": 71,
                    "time": 24.49909599999989,
                    "velocity": 0.31496062992125984,
                    "duration": 0.1262839999999983
                },
                {
                    "name": "F#5",
                    "midi": 78,
                    "time": 24.62537999999989,
                    "velocity": 0.3543307086614173,
                    "duration": 0.1262839999999983
                },
                {
                    "name": "E5",
                    "midi": 76,
                    "time": 24.751663999999888,
                    "velocity": 0.33858267716535434,
                    "duration": 0.1262839999999983
                },
                {
                    "name": "D5",
                    "midi": 74,
                    "time": 24.877947999999886,
                    "velocity": 0.31496062992125984,
                    "duration": 0.1262839999999983
                },
                {
                    "name": "B4",
                    "midi": 71,
                    "time": 25.004231999999885,
                    "velocity": 0.30708661417322836,
                    "duration": 0.1262839999999983
                },
                {
                    "name": "E5",
                    "midi": 76,
                    "time": 25.130515999999883,
                    "velocity": 0.3228346456692913,
                    "duration": 0.1262839999999983
                },
                {
                    "name": "G5",
                    "midi": 79,
                    "time": 25.25679999999988,
                    "velocity": 0.33858267716535434,
                    "duration": 0.1262839999999983
                },
                {
                    "name": "A#5",
                    "midi": 82,
                    "time": 25.38308399999988,
                    "velocity": 0.3543307086614173,
                    "duration": 0.1262839999999983
                },
                {
                    "name": "B5",
                    "midi": 83,
                    "time": 25.509367999999878,
                    "velocity": 0.3779527559055118,
                    "duration": 0.1262839999999983
                },
                {
                    "name": "B5",
                    "midi": 83,
                    "time": 25.761935999999874,
                    "velocity": 0.31496062992125984,
                    "duration": 0.06314199999999914
                },
                {
                    "name": "D5",
                    "midi": 74,
                    "time": 25.761935999999874,
                    "velocity": 0.2677165354330709,
                    "duration": 0.06314199999999914
                },
                {
                    "name": "F#5",
                    "midi": 78,
                    "time": 25.761935999999874,
                    "velocity": 0.2677165354330709,
                    "duration": 0.06314199999999914
                },
                {
                    "name": "D5",
                    "midi": 74,
                    "time": 26.014503999999874,
                    "velocity": 0.2440944881889764,
                    "duration": 0.06314199999999914
                },
                {
                    "name": "B5",
                    "midi": 83,
                    "time": 26.014503999999874,
                    "velocity": 0.29133858267716534,
                    "duration": 0.06314199999999914
                },
                {
                    "name": "F#5",
                    "midi": 78,
                    "time": 26.014503999999874,
                    "velocity": 0.2440944881889764,
                    "duration": 0.06314199999999914
                },
                {
                    "name": "B5",
                    "midi": 83,
                    "time": 26.267071999999875,
                    "velocity": 0.29133858267716534,
                    "duration": 0.06314199999999914
                },
                {
                    "name": "D5",
                    "midi": 74,
                    "time": 26.267071999999875,
                    "velocity": 0.2440944881889764,
                    "duration": 0.06314199999999914
                },
                {
                    "name": "G5",
                    "midi": 79,
                    "time": 26.267071999999875,
                    "velocity": 0.2440944881889764,
                    "duration": 0.06314199999999914
                },
                {
                    "name": "D5",
                    "midi": 74,
                    "time": 26.519639999999875,
                    "velocity": 0.2677165354330709,
                    "duration": 0.06314199999999914
                },
                {
                    "name": "F#5",
                    "midi": 78,
                    "time": 26.519639999999875,
                    "velocity": 0.2677165354330709,
                    "duration": 0.06314199999999914
                },
                {
                    "name": "B5",
                    "midi": 83,
                    "time": 26.519639999999875,
                    "velocity": 0.31496062992125984,
                    "duration": 0.06314199999999914
                },
                {
                    "name": "F#5",
                    "midi": 78,
                    "time": 26.772207999999875,
                    "velocity": 0.23622047244094488,
                    "duration": 0.06314199999999914
                },
                {
                    "name": "B5",
                    "midi": 83,
                    "time": 26.772207999999875,
                    "velocity": 0.28346456692913385,
                    "duration": 0.06314199999999914
                },
                {
                    "name": "D5",
                    "midi": 74,
                    "time": 26.772207999999875,
                    "velocity": 0.23622047244094488,
                    "duration": 0.06314199999999914
                },
                {
                    "name": "B4",
                    "midi": 71,
                    "time": 27.024775999999875,
                    "velocity": 0.31496062992125984,
                    "duration": 0.1262839999999983
                },
                {
                    "name": "C#5",
                    "midi": 73,
                    "time": 27.151059999999873,
                    "velocity": 0.2755905511811024,
                    "duration": 0.1262839999999983
                },
                {
                    "name": "D5",
                    "midi": 74,
                    "time": 27.27734399999987,
                    "velocity": 0.31496062992125984,
                    "duration": 0.1262839999999983
                },
                {
                    "name": "F#5",
                    "midi": 78,
                    "time": 27.40362799999987,
                    "velocity": 0.28346456692913385,
                    "duration": 0.1262839999999983
                },
                {
                    "name": "D5",
                    "midi": 74,
                    "time": 27.529911999999868,
                    "velocity": 0.31496062992125984,
                    "duration": 0.1262839999999983
                },
                {
                    "name": "B4",
                    "midi": 71,
                    "time": 27.529911999999868,
                    "velocity": 0.31496062992125984,
                    "duration": 0.1262839999999983
                },
                {
                    "name": "F#5",
                    "midi": 78,
                    "time": 27.656195999999866,
                    "velocity": 0.3543307086614173,
                    "duration": 0.1262839999999983
                },
                {
                    "name": "A#4",
                    "midi": 70,
                    "time": 27.782479999999865,
                    "velocity": 0.41732283464566927,
                    "duration": 0.2525679999999966
                },
                {
                    "name": "C#5",
                    "midi": 73,
                    "time": 27.782479999999865,
                    "velocity": 0.49606299212598426,
                    "duration": 0.1262839999999983
                },
                {
                    "name": "F#5",
                    "midi": 78,
                    "time": 27.908763999999863,
                    "velocity": 0.47244094488188976,
                    "duration": 0.1262839999999983
                },
                {
                    "name": "B4",
                    "midi": 71,
                    "time": 28.03504799999986,
                    "velocity": 0.4094488188976378,
                    "duration": 0.1262839999999983
                },
                {
                    "name": "D#5",
                    "midi": 75,
                    "time": 28.03504799999986,
                    "velocity": 0.4881889763779528,
                    "duration": 0.1262839999999983
                },
                {
                    "name": "F#5",
                    "midi": 78,
                    "time": 28.16133199999986,
                    "velocity": 0.44881889763779526,
                    "duration": 0.1262839999999983
                },
                {
                    "name": "B4",
                    "midi": 71,
                    "time": 28.287615999999858,
                    "velocity": 0.41732283464566927,
                    "duration": 0.1262839999999983
                },
                {
                    "name": "D#5",
                    "midi": 75,
                    "time": 28.287615999999858,
                    "velocity": 0.49606299212598426,
                    "duration": 0.1262839999999983
                },
                {
                    "name": "F#5",
                    "midi": 78,
                    "time": 28.413899999999856,
                    "velocity": 0.4645669291338583,
                    "duration": 0.1262839999999983
                },
                {
                    "name": "B4",
                    "midi": 71,
                    "time": 28.540183999999854,
                    "velocity": 0.4251968503937008,
                    "duration": 0.1262839999999983
                },
                {
                    "name": "D#5",
                    "midi": 75,
                    "time": 28.540183999999854,
                    "velocity": 0.5039370078740157,
                    "duration": 0.1262839999999983
                },
                {
                    "name": "F#5",
                    "midi": 78,
                    "time": 28.666467999999853,
                    "velocity": 0.44881889763779526,
                    "duration": 0.1262839999999983
                },
                {
                    "name": "B3",
                    "midi": 59,
                    "time": 28.79275199999985,
                    "velocity": 0.6929133858267716,
                    "duration": 0.06314199999999914
                },
                {
                    "name": "B3",
                    "midi": 59,
                    "time": 29.04531999999985,
                    "velocity": 0.6299212598425197,
                    "duration": 0.06314199999999914
                },
                {
                    "name": "F#3",
                    "midi": 54,
                    "time": 29.29788799999985,
                    "velocity": 0.6299212598425197,
                    "duration": 0.06314199999999914
                },
                {
                    "name": "B3",
                    "midi": 59,
                    "time": 29.55045599999985,
                    "velocity": 0.6929133858267716,
                    "duration": 0.06314199999999914
                },
                {
                    "name": "B3",
                    "midi": 59,
                    "time": 29.80302399999985,
                    "velocity": 0.6220472440944882,
                    "duration": 0.06314199999999914
                },
                {
                    "name": "E4",
                    "midi": 64,
                    "time": 30.05559199999985,
                    "velocity": 0.31496062992125984,
                    "duration": 0.1262839999999983
                },
                {
                    "name": "F#4",
                    "midi": 66,
                    "time": 30.18187599999985,
                    "velocity": 0.2755905511811024,
                    "duration": 0.1262839999999983
                },
                {
                    "name": "G4",
                    "midi": 67,
                    "time": 30.308159999999848,
                    "velocity": 0.31496062992125984,
                    "duration": 0.1262839999999983
                },
                {
                    "name": "A#4",
                    "midi": 70,
                    "time": 30.434443999999846,
                    "velocity": 0.28346456692913385,
                    "duration": 0.1262839999999983
                },
                {
                    "name": "G4",
                    "midi": 67,
                    "time": 30.560727999999845,
                    "velocity": 0.31496062992125984,
                    "duration": 0.1262839999999983
                },
                {
                    "name": "A#4",
                    "midi": 70,
                    "time": 30.687011999999843,
                    "velocity": 0.2677165354330709,
                    "duration": 0.1262839999999983
                },
                {
                    "name": "F#4",
                    "midi": 66,
                    "time": 30.81329599999984,
                    "velocity": 0.3228346456692913,
                    "duration": 0.1262839999999983
                },
                {
                    "name": "A#4",
                    "midi": 70,
                    "time": 30.93957999999984,
                    "velocity": 0.28346456692913385,
                    "duration": 0.1262839999999983
                },
                {
                    "name": "E4",
                    "midi": 64,
                    "time": 31.065863999999838,
                    "velocity": 0.3228346456692913,
                    "duration": 0.1262839999999983
                },
                {
                    "name": "A#4",
                    "midi": 70,
                    "time": 31.192147999999836,
                    "velocity": 0.28346456692913385,
                    "duration": 0.1262839999999983
                },
                {
                    "name": "E4",
                    "midi": 64,
                    "time": 31.318431999999834,
                    "velocity": 0.3228346456692913,
                    "duration": 0.1262839999999983
                },
                {
                    "name": "A#4",
                    "midi": 70,
                    "time": 31.444715999999833,
                    "velocity": 0.2755905511811024,
                    "duration": 0.1262839999999983
                },
                {
                    "name": "B3",
                    "midi": 59,
                    "time": 31.82356799999983,
                    "velocity": 0.6929133858267716,
                    "duration": 0.06314199999999914
                },
                {
                    "name": "B3",
                    "midi": 59,
                    "time": 32.07613599999983,
                    "velocity": 0.6299212598425197,
                    "duration": 0.06314199999999914
                },
                {
                    "name": "F#3",
                    "midi": 54,
                    "time": 32.328703999999824,
                    "velocity": 0.6299212598425197,
                    "duration": 0.06314199999999914
                },
                {
                    "name": "B3",
                    "midi": 59,
                    "time": 32.58127199999982,
                    "velocity": 0.6929133858267716,
                    "duration": 0.06314199999999914
                },
                {
                    "name": "B3",
                    "midi": 59,
                    "time": 32.83383999999982,
                    "velocity": 0.6220472440944882,
                    "duration": 0.06314199999999914
                },
                {
                    "name": "E4",
                    "midi": 64,
                    "time": 33.086407999999814,
                    "velocity": 0.31496062992125984,
                    "duration": 0.1262839999999983
                },
                {
                    "name": "F#4",
                    "midi": 66,
                    "time": 33.21269199999981,
                    "velocity": 0.2755905511811024,
                    "duration": 0.1262839999999983
                },
                {
                    "name": "G4",
                    "midi": 67,
                    "time": 33.33897599999981,
                    "velocity": 0.31496062992125984,
                    "duration": 0.1262839999999983
                },
                {
                    "name": "A#4",
                    "midi": 70,
                    "time": 33.46525999999981,
                    "velocity": 0.28346456692913385,
                    "duration": 0.1262839999999983
                },
                {
                    "name": "G4",
                    "midi": 67,
                    "time": 33.59154399999981,
                    "velocity": 0.31496062992125984,
                    "duration": 0.1262839999999983
                },
                {
                    "name": "A#4",
                    "midi": 70,
                    "time": 33.717827999999805,
                    "velocity": 0.2677165354330709,
                    "duration": 0.1262839999999983
                },
                {
                    "name": "F#4",
                    "midi": 66,
                    "time": 33.844111999999804,
                    "velocity": 0.3228346456692913,
                    "duration": 0.1262839999999983
                },
                {
                    "name": "A#4",
                    "midi": 70,
                    "time": 33.9703959999998,
                    "velocity": 0.28346456692913385,
                    "duration": 0.1262839999999983
                },
                {
                    "name": "E4",
                    "midi": 64,
                    "time": 34.0966799999998,
                    "velocity": 0.3228346456692913,
                    "duration": 0.1262839999999983
                },
                {
                    "name": "A#4",
                    "midi": 70,
                    "time": 34.2229639999998,
                    "velocity": 0.28346456692913385,
                    "duration": 0.1262839999999983
                },
                {
                    "name": "E4",
                    "midi": 64,
                    "time": 34.3492479999998,
                    "velocity": 0.3228346456692913,
                    "duration": 0.1262839999999983
                },
                {
                    "name": "A#4",
                    "midi": 70,
                    "time": 34.475531999999795,
                    "velocity": 0.2755905511811024,
                    "duration": 0.1262839999999983
                },
                {
                    "name": "G4",
                    "midi": 67,
                    "time": 34.60181599999979,
                    "velocity": 0.3228346456692913,
                    "duration": 0.1262839999999983
                },
                {
                    "name": "A4",
                    "midi": 69,
                    "time": 34.72809999999979,
                    "velocity": 0.2755905511811024,
                    "duration": 0.1262839999999983
                },
                {
                    "name": "A#4",
                    "midi": 70,
                    "time": 34.85438399999979,
                    "velocity": 0.3464566929133858,
                    "duration": 0.1262839999999983
                },
                {
                    "name": "C#5",
                    "midi": 73,
                    "time": 34.98066799999979,
                    "velocity": 0.31496062992125984,
                    "duration": 0.1262839999999983
                },
                {
                    "name": "A#4",
                    "midi": 70,
                    "time": 35.10695199999979,
                    "velocity": 0.36220472440944884,
                    "duration": 0.1262839999999983
                },
                {
                    "name": "C#5",
                    "midi": 73,
                    "time": 35.233235999999785,
                    "velocity": 0.30708661417322836,
                    "duration": 0.1262839999999983
                },
                {
                    "name": "A4",
                    "midi": 69,
                    "time": 35.35951999999978,
                    "velocity": 0.4015748031496063,
                    "duration": 0.1262839999999983
                },
                {
                    "name": "C#5",
                    "midi": 73,
                    "time": 35.48580399999978,
                    "velocity": 0.3543307086614173,
                    "duration": 0.1262839999999983
                },
                {
                    "name": "G4",
                    "midi": 67,
                    "time": 35.61208799999978,
                    "velocity": 0.4251968503937008,
                    "duration": 0.1262839999999983
                },
                {
                    "name": "C#5",
                    "midi": 73,
                    "time": 35.73837199999978,
                    "velocity": 0.3779527559055118,
                    "duration": 0.1262839999999983
                },
                {
                    "name": "G4",
                    "midi": 67,
                    "time": 35.864655999999776,
                    "velocity": 0.44881889763779526,
                    "duration": 0.1262839999999983
                },
                {
                    "name": "C#5",
                    "midi": 73,
                    "time": 35.990939999999775,
                    "velocity": 0.41732283464566927,
                    "duration": 0.1262839999999983
                },
                {
                    "name": "A#4",
                    "midi": 70,
                    "time": 36.11722399999977,
                    "velocity": 0.4645669291338583,
                    "duration": 0.1262839999999983
                },
                {
                    "name": "B4",
                    "midi": 71,
                    "time": 36.24350799999977,
                    "velocity": 0.4094488188976378,
                    "duration": 0.1262839999999983
                },
                {
                    "name": "C5",
                    "midi": 72,
                    "time": 36.36979199999977,
                    "velocity": 0.4881889763779528,
                    "duration": 0.1262839999999983
                },
                {
                    "name": "E5",
                    "midi": 76,
                    "time": 36.49607599999977,
                    "velocity": 0.4330708661417323,
                    "duration": 0.1262839999999983
                },
                {
                    "name": "C5",
                    "midi": 72,
                    "time": 36.622359999999766,
                    "velocity": 0.4881889763779528,
                    "duration": 0.1262839999999983
                },
                {
                    "name": "E5",
                    "midi": 76,
                    "time": 36.748643999999764,
                    "velocity": 0.4330708661417323,
                    "duration": 0.1262839999999983
                },
                {
                    "name": "B4",
                    "midi": 71,
                    "time": 36.87492799999976,
                    "velocity": 0.48031496062992124,
                    "duration": 0.1262839999999983
                },
                {
                    "name": "E5",
                    "midi": 76,
                    "time": 37.00121199999976,
                    "velocity": 0.3937007874015748,
                    "duration": 0.1262839999999983
                },
                {
                    "name": "A#4",
                    "midi": 70,
                    "time": 37.12749599999976,
                    "velocity": 0.4881889763779528,
                    "duration": 0.1262839999999983
                },
                {
                    "name": "E5",
                    "midi": 76,
                    "time": 37.25377999999976,
                    "velocity": 0.4330708661417323,
                    "duration": 0.1262839999999983
                },
                {
                    "name": "A#4",
                    "midi": 70,
                    "time": 37.380063999999756,
                    "velocity": 0.4566929133858268,
                    "duration": 0.1262839999999983
                },
                {
                    "name": "E5",
                    "midi": 76,
                    "time": 37.506347999999754,
                    "velocity": 0.3937007874015748,
                    "duration": 0.1262839999999983
                },
                {
                    "name": "A#4",
                    "midi": 70,
                    "time": 37.63263199999975,
                    "velocity": 0.4330708661417323,
                    "duration": 0.1262839999999983
                },
                {
                    "name": "E5",
                    "midi": 76,
                    "time": 37.75891599999975,
                    "velocity": 0.36220472440944884,
                    "duration": 0.1262839999999983
                },
                {
                    "name": "B4",
                    "midi": 71,
                    "time": 37.88519999999975,
                    "velocity": 0.31496062992125984,
                    "duration": 0.1262839999999983
                },
                {
                    "name": "E5",
                    "midi": 76,
                    "time": 38.01148399999975,
                    "velocity": 0.28346456692913385,
                    "duration": 0.1262839999999983
                },
                {
                    "name": "B4",
                    "midi": 71,
                    "time": 38.137767999999745,
                    "velocity": 0.31496062992125984,
                    "duration": 0.1262839999999983
                },
                {
                    "name": "E5",
                    "midi": 76,
                    "time": 38.264051999999744,
                    "velocity": 0.2677165354330709,
                    "duration": 0.1262839999999983
                },
                {
                    "name": "B4",
                    "midi": 71,
                    "time": 38.39033599999974,
                    "velocity": 0.3228346456692913,
                    "duration": 0.1262839999999983
                },
                {
                    "name": "E5",
                    "midi": 76,
                    "time": 38.51661999999974,
                    "velocity": 0.28346456692913385,
                    "duration": 0.1262839999999983
                },
                {
                    "name": "B4",
                    "midi": 71,
                    "time": 38.64290399999974,
                    "velocity": 0.31496062992125984,
                    "duration": 0.1262839999999983
                },
                {
                    "name": "D#5",
                    "midi": 75,
                    "time": 38.76918799999974,
                    "velocity": 0.28346456692913385,
                    "duration": 0.1262839999999983
                },
                {
                    "name": "B4",
                    "midi": 71,
                    "time": 38.895471999999735,
                    "velocity": 0.31496062992125984,
                    "duration": 0.1262839999999983
                },
                {
                    "name": "D#5",
                    "midi": 75,
                    "time": 39.02175599999973,
                    "velocity": 0.2677165354330709,
                    "duration": 0.1262839999999983
                },
                {
                    "name": "B4",
                    "midi": 71,
                    "time": 39.14803999999973,
                    "velocity": 0.3228346456692913,
                    "duration": 0.1262839999999983
                },
                {
                    "name": "D#5",
                    "midi": 75,
                    "time": 39.27432399999973,
                    "velocity": 0.28346456692913385,
                    "duration": 0.1262839999999983
                },
                {
                    "name": "E5",
                    "midi": 76,
                    "time": 39.40060799999973,
                    "velocity": 0.31496062992125984,
                    "duration": 0.06314199999999914
                },
                {
                    "name": "B4",
                    "midi": 71,
                    "time": 39.40060799999973,
                    "velocity": 0.2677165354330709,
                    "duration": 0.06314199999999914
                },
                {
                    "name": "B4",
                    "midi": 71,
                    "time": 39.653175999999725,
                    "velocity": 0.2440944881889764,
                    "duration": 0.06314199999999914
                },
                {
                    "name": "E5",
                    "midi": 76,
                    "time": 39.653175999999725,
                    "velocity": 0.29133858267716534,
                    "duration": 0.06314199999999914
                },
                {
                    "name": "E5",
                    "midi": 76,
                    "time": 39.90574399999972,
                    "velocity": 0.29133858267716534,
                    "duration": 0.06314199999999914
                },
                {
                    "name": "C5",
                    "midi": 72,
                    "time": 39.90574399999972,
                    "velocity": 0.2440944881889764,
                    "duration": 0.06314199999999914
                },
                {
                    "name": "E5",
                    "midi": 76,
                    "time": 40.15831199999972,
                    "velocity": 0.31496062992125984,
                    "duration": 0.06314199999999914
                },
                {
                    "name": "B4",
                    "midi": 71,
                    "time": 40.15831199999972,
                    "velocity": 0.2677165354330709,
                    "duration": 0.06314199999999914
                },
                {
                    "name": "E5",
                    "midi": 76,
                    "time": 40.410879999999715,
                    "velocity": 0.28346456692913385,
                    "duration": 0.06314199999999914
                },
                {
                    "name": "B4",
                    "midi": 71,
                    "time": 40.410879999999715,
                    "velocity": 0.23622047244094488,
                    "duration": 0.06314199999999914
                },
                {
                    "name": "G4",
                    "midi": 67,
                    "time": 40.66344799999971,
                    "velocity": 0.31496062992125984,
                    "duration": 0.1262839999999983
                },
                {
                    "name": "A4",
                    "midi": 69,
                    "time": 40.78973199999971,
                    "velocity": 0.2755905511811024,
                    "duration": 0.1262839999999983
                },
                {
                    "name": "B4",
                    "midi": 71,
                    "time": 40.91601599999971,
                    "velocity": 0.31496062992125984,
                    "duration": 0.1262839999999983
                },
                {
                    "name": "C5",
                    "midi": 72,
                    "time": 41.042299999999706,
                    "velocity": 0.28346456692913385,
                    "duration": 0.1262839999999983
                },
                {
                    "name": "B4",
                    "midi": 71,
                    "time": 41.168583999999704,
                    "velocity": 0.31496062992125984,
                    "duration": 0.1262839999999983
                },
                {
                    "name": "F#5",
                    "midi": 78,
                    "time": 41.2948679999997,
                    "velocity": 0.3543307086614173,
                    "duration": 0.1262839999999983
                },
                {
                    "name": "E5",
                    "midi": 76,
                    "time": 41.4211519999997,
                    "velocity": 0.33858267716535434,
                    "duration": 0.1262839999999983
                },
                {
                    "name": "D5",
                    "midi": 74,
                    "time": 41.5474359999997,
                    "velocity": 0.31496062992125984,
                    "duration": 0.1262839999999983
                },
                {
                    "name": "B4",
                    "midi": 71,
                    "time": 41.6737199999997,
                    "velocity": 0.30708661417322836,
                    "duration": 0.1262839999999983
                },
                {
                    "name": "E5",
                    "midi": 76,
                    "time": 41.800003999999696,
                    "velocity": 0.3228346456692913,
                    "duration": 0.1262839999999983
                },
                {
                    "name": "G5",
                    "midi": 79,
                    "time": 41.926287999999694,
                    "velocity": 0.33858267716535434,
                    "duration": 0.1262839999999983
                },
                {
                    "name": "A#5",
                    "midi": 82,
                    "time": 42.05257199999969,
                    "velocity": 0.3543307086614173,
                    "duration": 0.1262839999999983
                },
                {
                    "name": "B5",
                    "midi": 83,
                    "time": 42.17885599999969,
                    "velocity": 0.3779527559055118,
                    "duration": 0.1262839999999983
                },
                {
                    "name": "D5",
                    "midi": 74,
                    "time": 42.43142399999969,
                    "velocity": 0.2677165354330709,
                    "duration": 0.06314199999999914
                },
                {
                    "name": "F#5",
                    "midi": 78,
                    "time": 42.43142399999969,
                    "velocity": 0.2677165354330709,
                    "duration": 0.06314199999999914
                },
                {
                    "name": "B5",
                    "midi": 83,
                    "time": 42.43142399999969,
                    "velocity": 0.31496062992125984,
                    "duration": 0.06314199999999914
                },
                {
                    "name": "F#5",
                    "midi": 78,
                    "time": 42.683991999999684,
                    "velocity": 0.2440944881889764,
                    "duration": 0.06314199999999914
                },
                {
                    "name": "D5",
                    "midi": 74,
                    "time": 42.683991999999684,
                    "velocity": 0.2440944881889764,
                    "duration": 0.06314199999999914
                },
                {
                    "name": "B5",
                    "midi": 83,
                    "time": 42.683991999999684,
                    "velocity": 0.29133858267716534,
                    "duration": 0.06314199999999914
                },
                {
                    "name": "G5",
                    "midi": 79,
                    "time": 42.93655999999968,
                    "velocity": 0.2440944881889764,
                    "duration": 0.06314199999999914
                },
                {
                    "name": "D5",
                    "midi": 74,
                    "time": 42.93655999999968,
                    "velocity": 0.2440944881889764,
                    "duration": 0.06314199999999914
                },
                {
                    "name": "B5",
                    "midi": 83,
                    "time": 42.93655999999968,
                    "velocity": 0.29133858267716534,
                    "duration": 0.06314199999999914
                },
                {
                    "name": "D5",
                    "midi": 74,
                    "time": 43.18912799999968,
                    "velocity": 0.2677165354330709,
                    "duration": 0.06314199999999914
                },
                {
                    "name": "F#5",
                    "midi": 78,
                    "time": 43.18912799999968,
                    "velocity": 0.2677165354330709,
                    "duration": 0.06314199999999914
                },
                {
                    "name": "B5",
                    "midi": 83,
                    "time": 43.18912799999968,
                    "velocity": 0.31496062992125984,
                    "duration": 0.06314199999999914
                },
                {
                    "name": "D5",
                    "midi": 74,
                    "time": 43.44169599999967,
                    "velocity": 0.23622047244094488,
                    "duration": 0.06314199999999914
                },
                {
                    "name": "B5",
                    "midi": 83,
                    "time": 43.44169599999967,
                    "velocity": 0.28346456692913385,
                    "duration": 0.06314199999999914
                },
                {
                    "name": "F#5",
                    "midi": 78,
                    "time": 43.44169599999967,
                    "velocity": 0.23622047244094488,
                    "duration": 0.06314199999999914
                },
                {
                    "name": "B4",
                    "midi": 71,
                    "time": 43.69426399999967,
                    "velocity": 0.31496062992125984,
                    "duration": 0.1262839999999983
                },
                {
                    "name": "C#5",
                    "midi": 73,
                    "time": 43.82054799999967,
                    "velocity": 0.2755905511811024,
                    "duration": 0.1262839999999983
                },
                {
                    "name": "D5",
                    "midi": 74,
                    "time": 43.94683199999967,
                    "velocity": 0.31496062992125984,
                    "duration": 0.1262839999999983
                },
                {
                    "name": "F#5",
                    "midi": 78,
                    "time": 44.073115999999665,
                    "velocity": 0.28346456692913385,
                    "duration": 0.1262839999999983
                },
                {
                    "name": "B4",
                    "midi": 71,
                    "time": 44.19939999999966,
                    "velocity": 0.31496062992125984,
                    "duration": 0.1262839999999983
                },
                {
                    "name": "D5",
                    "midi": 74,
                    "time": 44.19939999999966,
                    "velocity": 0.31496062992125984,
                    "duration": 0.1262839999999983
                },
                {
                    "name": "F#5",
                    "midi": 78,
                    "time": 44.32568399999966,
                    "velocity": 0.3543307086614173,
                    "duration": 0.1262839999999983
                },
                {
                    "name": "C#5",
                    "midi": 73,
                    "time": 44.45196799999966,
                    "velocity": 0.49606299212598426,
                    "duration": 0.1262839999999983
                },
                {
                    "name": "A#4",
                    "midi": 70,
                    "time": 44.45196799999966,
                    "velocity": 0.41732283464566927,
                    "duration": 0.2525679999999966
                },
                {
                    "name": "F#5",
                    "midi": 78,
                    "time": 44.57825199999966,
                    "velocity": 0.47244094488188976,
                    "duration": 0.1262839999999983
                },
                {
                    "name": "D#5",
                    "midi": 75,
                    "time": 44.704535999999656,
                    "velocity": 0.4881889763779528,
                    "duration": 0.1262839999999983
                },
                {
                    "name": "B4",
                    "midi": 71,
                    "time": 44.704535999999656,
                    "velocity": 0.4094488188976378,
                    "duration": 0.1262839999999983
                },
                {
                    "name": "F#5",
                    "midi": 78,
                    "time": 44.830819999999655,
                    "velocity": 0.44881889763779526,
                    "duration": 0.1262839999999983
                },
                {
                    "name": "D#5",
                    "midi": 75,
                    "time": 44.95710399999965,
                    "velocity": 0.49606299212598426,
                    "duration": 0.1262839999999983
                },
                {
                    "name": "B4",
                    "midi": 71,
                    "time": 44.95710399999965,
                    "velocity": 0.41732283464566927,
                    "duration": 0.1262839999999983
                },
                {
                    "name": "F#5",
                    "midi": 78,
                    "time": 45.08338799999965,
                    "velocity": 0.4645669291338583,
                    "duration": 0.1262839999999983
                },
                {
                    "name": "D#5",
                    "midi": 75,
                    "time": 45.20967199999965,
                    "velocity": 0.5039370078740157,
                    "duration": 0.1262839999999983
                },
                {
                    "name": "B4",
                    "midi": 71,
                    "time": 45.20967199999965,
                    "velocity": 0.4251968503937008,
                    "duration": 0.1262839999999983
                },
                {
                    "name": "F#5",
                    "midi": 78,
                    "time": 45.33595599999965,
                    "velocity": 0.44881889763779526,
                    "duration": 0.1262839999999983
                },
                {
                    "name": "B4",
                    "midi": 71,
                    "time": 45.462239999999646,
                    "velocity": 0.2677165354330709,
                    "duration": 0.06314199999999914
                },
                {
                    "name": "E5",
                    "midi": 76,
                    "time": 45.462239999999646,
                    "velocity": 0.31496062992125984,
                    "duration": 0.06314199999999914
                },
                {
                    "name": "B4",
                    "midi": 71,
                    "time": 45.71480799999964,
                    "velocity": 0.2440944881889764,
                    "duration": 0.06314199999999914
                },
                {
                    "name": "E5",
                    "midi": 76,
                    "time": 45.71480799999964,
                    "velocity": 0.29133858267716534,
                    "duration": 0.06314199999999914
                },
                {
                    "name": "E5",
                    "midi": 76,
                    "time": 45.96737599999964,
                    "velocity": 0.29133858267716534,
                    "duration": 0.06314199999999914
                },
                {
                    "name": "C5",
                    "midi": 72,
                    "time": 45.96737599999964,
                    "velocity": 0.2440944881889764,
                    "duration": 0.06314199999999914
                },
                {
                    "name": "B4",
                    "midi": 71,
                    "time": 46.219943999999636,
                    "velocity": 0.2677165354330709,
                    "duration": 0.06314199999999914
                },
                {
                    "name": "E5",
                    "midi": 76,
                    "time": 46.219943999999636,
                    "velocity": 0.31496062992125984,
                    "duration": 0.06314199999999914
                },
                {
                    "name": "E5",
                    "midi": 76,
                    "time": 46.47251199999963,
                    "velocity": 0.28346456692913385,
                    "duration": 0.06314199999999914
                },
                {
                    "name": "B4",
                    "midi": 71,
                    "time": 46.47251199999963,
                    "velocity": 0.23622047244094488,
                    "duration": 0.06314199999999914
                },
                {
                    "name": "G4",
                    "midi": 67,
                    "time": 46.72507999999963,
                    "velocity": 0.31496062992125984,
                    "duration": 0.1262839999999983
                },
                {
                    "name": "A4",
                    "midi": 69,
                    "time": 46.85136399999963,
                    "velocity": 0.2755905511811024,
                    "duration": 0.1262839999999983
                },
                {
                    "name": "B4",
                    "midi": 71,
                    "time": 46.977647999999625,
                    "velocity": 0.31496062992125984,
                    "duration": 0.1262839999999983
                },
                {
                    "name": "C5",
                    "midi": 72,
                    "time": 47.103931999999624,
                    "velocity": 0.28346456692913385,
                    "duration": 0.1262839999999983
                },
                {
                    "name": "B4",
                    "midi": 71,
                    "time": 47.23021599999962,
                    "velocity": 0.31496062992125984,
                    "duration": 0.1262839999999983
                },
                {
                    "name": "F#5",
                    "midi": 78,
                    "time": 47.35649999999962,
                    "velocity": 0.3543307086614173,
                    "duration": 0.1262839999999983
                },
                {
                    "name": "E5",
                    "midi": 76,
                    "time": 47.48278399999962,
                    "velocity": 0.33858267716535434,
                    "duration": 0.1262839999999983
                },
                {
                    "name": "D5",
                    "midi": 74,
                    "time": 47.60906799999962,
                    "velocity": 0.31496062992125984,
                    "duration": 0.1262839999999983
                },
                {
                    "name": "B4",
                    "midi": 71,
                    "time": 47.735351999999615,
                    "velocity": 0.30708661417322836,
                    "duration": 0.1262839999999983
                },
                {
                    "name": "E5",
                    "midi": 76,
                    "time": 47.86163599999961,
                    "velocity": 0.3228346456692913,
                    "duration": 0.1262839999999983
                },
                {
                    "name": "G5",
                    "midi": 79,
                    "time": 47.98791999999961,
                    "velocity": 0.33858267716535434,
                    "duration": 0.1262839999999983
                },
                {
                    "name": "A#5",
                    "midi": 82,
                    "time": 48.11420399999961,
                    "velocity": 0.3543307086614173,
                    "duration": 0.1262839999999983
                },
                {
                    "name": "B5",
                    "midi": 83,
                    "time": 48.24048799999961,
                    "velocity": 0.3779527559055118,
                    "duration": 0.1262839999999983
                },
                {
                    "name": "G#4",
                    "midi": 68,
                    "time": 48.6193399999996,
                    "velocity": 0.28346456692913385,
                    "duration": 0.1262839999999983
                },
                {
                    "name": "A4",
                    "midi": 69,
                    "time": 48.7456239999996,
                    "velocity": 0.2992125984251969,
                    "duration": 0.1262839999999983
                },
                {
                    "name": "C5",
                    "midi": 72,
                    "time": 48.8719079999996,
                    "velocity": 0.31496062992125984,
                    "duration": 0.1262839999999983
                },
                {
                    "name": "E5",
                    "midi": 76,
                    "time": 48.9981919999996,
                    "velocity": 0.33858267716535434,
                    "duration": 0.1262839999999983
                },
                {
                    "name": "E4",
                    "midi": 64,
                    "time": 49.37704399999959,
                    "velocity": 0.28346456692913385,
                    "duration": 0.1262839999999983
                },
                {
                    "name": "F4",
                    "midi": 65,
                    "time": 49.50332799999959,
                    "velocity": 0.2992125984251969,
                    "duration": 0.1262839999999983
                },
                {
                    "name": "A4",
                    "midi": 69,
                    "time": 49.62961199999959,
                    "velocity": 0.31496062992125984,
                    "duration": 0.1262839999999983
                },
                {
                    "name": "C5",
                    "midi": 72,
                    "time": 49.75589599999959,
                    "velocity": 0.33858267716535434,
                    "duration": 0.1262839999999983
                },
                {
                    "name": "D4",
                    "midi": 62,
                    "time": 50.13474799999958,
                    "velocity": 0.2677165354330709,
                    "duration": 0.1262839999999983
                },
                {
                    "name": "D#4",
                    "midi": 63,
                    "time": 50.26103199999958,
                    "velocity": 0.28346456692913385,
                    "duration": 0.1262839999999983
                },
                {
                    "name": "F#4",
                    "midi": 66,
                    "time": 50.38731599999958,
                    "velocity": 0.2992125984251969,
                    "duration": 0.1262839999999983
                },
                {
                    "name": "B4",
                    "midi": 71,
                    "time": 50.51359999999958,
                    "velocity": 0.31496062992125984,
                    "duration": 0.1262839999999983
                },
                {
                    "name": "B3",
                    "midi": 59,
                    "time": 50.766167999999574,
                    "velocity": 0.1732283464566929,
                    "duration": 0.06314199999999914
                },
                {
                    "name": "E4",
                    "midi": 64,
                    "time": 50.766167999999574,
                    "velocity": 0.2125984251968504,
                    "duration": 0.06314199999999914
                },
                {
                    "name": "G3",
                    "midi": 55,
                    "time": 50.766167999999574,
                    "velocity": 0.1732283464566929,
                    "duration": 0.06314199999999914
                },
                {
                    "name": "B3",
                    "midi": 59,
                    "time": 51.01873599999957,
                    "velocity": 0.15748031496062992,
                    "duration": 0.06314199999999914
                },
                {
                    "name": "E4",
                    "midi": 64,
                    "time": 51.01873599999957,
                    "velocity": 0.1889763779527559,
                    "duration": 0.06314199999999914
                },
                {
                    "name": "G3",
                    "midi": 55,
                    "time": 51.01873599999957,
                    "velocity": 0.15748031496062992,
                    "duration": 0.06314199999999914
                },
                {
                    "name": "C4",
                    "midi": 60,
                    "time": 51.27130399999957,
                    "velocity": 0.15748031496062992,
                    "duration": 0.06314199999999914
                },
                {
                    "name": "E4",
                    "midi": 64,
                    "time": 51.27130399999957,
                    "velocity": 0.1889763779527559,
                    "duration": 0.06314199999999914
                },
                {
                    "name": "G3",
                    "midi": 55,
                    "time": 51.27130399999957,
                    "velocity": 0.15748031496062992,
                    "duration": 0.06314199999999914
                },
                {
                    "name": "B3",
                    "midi": 59,
                    "time": 51.523871999999564,
                    "velocity": 0.1732283464566929,
                    "duration": 0.06314199999999914
                },
                {
                    "name": "G3",
                    "midi": 55,
                    "time": 51.523871999999564,
                    "velocity": 0.1732283464566929,
                    "duration": 0.06314199999999914
                },
                {
                    "name": "E4",
                    "midi": 64,
                    "time": 51.523871999999564,
                    "velocity": 0.2125984251968504,
                    "duration": 0.06314199999999914
                },
                {
                    "name": "E4",
                    "midi": 64,
                    "time": 51.77643999999956,
                    "velocity": 0.1889763779527559,
                    "duration": 0.06314199999999914
                },
                {
                    "name": "B3",
                    "midi": 59,
                    "time": 51.77643999999956,
                    "velocity": 0.15748031496062992,
                    "duration": 0.06314199999999914
                },
                {
                    "name": "G3",
                    "midi": 55,
                    "time": 51.77643999999956,
                    "velocity": 0.15748031496062992,
                    "duration": 0.06314199999999914
                },
                {
                    "name": "G3",
                    "midi": 55,
                    "time": 52.02900799999956,
                    "velocity": 0.15748031496062992,
                    "duration": 0.06314199999999914
                },
                {
                    "name": "A3",
                    "midi": 57,
                    "time": 52.02900799999956,
                    "velocity": 0.15748031496062992,
                    "duration": 0.06314199999999914
                },
                {
                    "name": "E4",
                    "midi": 64,
                    "time": 52.02900799999956,
                    "velocity": 0.1889763779527559,
                    "duration": 0.06314199999999914
                },
                {
                    "name": "B3",
                    "midi": 59,
                    "time": 52.28157599999955,
                    "velocity": 0.1732283464566929,
                    "duration": 0.06314199999999914
                },
                {
                    "name": "G3",
                    "midi": 55,
                    "time": 52.28157599999955,
                    "velocity": 0.1732283464566929,
                    "duration": 0.06314199999999914
                },
                {
                    "name": "E4",
                    "midi": 64,
                    "time": 52.28157599999955,
                    "velocity": 0.2125984251968504,
                    "duration": 0.06314199999999914
                },
                {
                    "name": "B4",
                    "midi": 71,
                    "time": 52.91299599999955,
                    "velocity": 0.1732283464566929,
                    "duration": 0.06314199999999914
                },
                {
                    "name": "D#5",
                    "midi": 75,
                    "time": 52.97613799999955,
                    "velocity": 0.1732283464566929,
                    "duration": 0.06314199999999914
                },
                {
                    "name": "E5",
                    "midi": 76,
                    "time": 53.03927999999955,
                    "velocity": 0.25196850393700787,
                    "duration": 0.06314199999999914
                },
                {
                    "name": "G4",
                    "midi": 67,
                    "time": 53.03927999999955,
                    "velocity": 0.2125984251968504,
                    "duration": 0.06314199999999914
                },
                {
                    "name": "B5",
                    "midi": 83,
                    "time": 53.67069999999955,
                    "velocity": 0.1732283464566929,
                    "duration": 0.06314199999999914
                },
                {
                    "name": "D#6",
                    "midi": 87,
                    "time": 53.73384199999955,
                    "velocity": 0.1732283464566929,
                    "duration": 0.06314199999999914
                },
                {
                    "name": "E6",
                    "midi": 88,
                    "time": 53.79698399999955,
                    "velocity": 0.25196850393700787,
                    "duration": 0.06314199999999914
                },
                {
                    "name": "G5",
                    "midi": 79,
                    "time": 53.79698399999955,
                    "velocity": 0.2125984251968504,
                    "duration": 0.06314199999999914
                }
            ],
            "controlChanges": {},
            "id": 1,
            "name": "Piano right",
            "instrumentNumber": 0,
            "instrument": "acoustic grand piano",
            "instrumentFamily": "piano",
            "channelNumber": 0,
            "isPercussion": false
        },
        {
            "startTime": 0,
            "duration": 53.860125999999774,
            "length": 294,
            "notes": [
                {
                    "name": "G4",
                    "midi": 67,
                    "time": 0,
                    "velocity": 0.31496062992125984,
                    "duration": 0.063142
                },
                {
                    "name": "E4",
                    "midi": 64,
                    "time": 0,
                    "velocity": 0.2677165354330709,
                    "duration": 0.063142
                },
                {
                    "name": "E4",
                    "midi": 64,
                    "time": 0.252568,
                    "velocity": 0.2283464566929134,
                    "duration": 0.06314200000000003
                },
                {
                    "name": "G4",
                    "midi": 67,
                    "time": 0.252568,
                    "velocity": 0.2755905511811024,
                    "duration": 0.06314200000000003
                },
                {
                    "name": "G4",
                    "midi": 67,
                    "time": 0.505136,
                    "velocity": 0.23622047244094488,
                    "duration": 0.06314200000000003
                },
                {
                    "name": "C4",
                    "midi": 60,
                    "time": 0.505136,
                    "velocity": 0.1968503937007874,
                    "duration": 0.06314200000000003
                },
                {
                    "name": "E4",
                    "midi": 64,
                    "time": 0.757704,
                    "velocity": 0.2283464566929134,
                    "duration": 0.06314200000000003
                },
                {
                    "name": "G4",
                    "midi": 67,
                    "time": 0.757704,
                    "velocity": 0.2755905511811024,
                    "duration": 0.06314200000000003
                },
                {
                    "name": "G4",
                    "midi": 67,
                    "time": 1.010272,
                    "velocity": 0.2440944881889764,
                    "duration": 0.06314200000000003
                },
                {
                    "name": "E4",
                    "midi": 64,
                    "time": 1.010272,
                    "velocity": 0.2047244094488189,
                    "duration": 0.06314200000000003
                },
                {
                    "name": "E4",
                    "midi": 64,
                    "time": 1.515408,
                    "velocity": 0.2283464566929134,
                    "duration": 0.06314200000000003
                },
                {
                    "name": "G4",
                    "midi": 67,
                    "time": 1.515408,
                    "velocity": 0.2755905511811024,
                    "duration": 0.06314200000000003
                },
                {
                    "name": "G4",
                    "midi": 67,
                    "time": 1.7679760000000002,
                    "velocity": 0.25196850393700787,
                    "duration": 0.06314200000000003
                },
                {
                    "name": "E4",
                    "midi": 64,
                    "time": 1.7679760000000002,
                    "velocity": 0.2125984251968504,
                    "duration": 0.06314200000000003
                },
                {
                    "name": "A4",
                    "midi": 69,
                    "time": 2.020544,
                    "velocity": 0.25984251968503935,
                    "duration": 0.06314200000000003
                },
                {
                    "name": "E4",
                    "midi": 64,
                    "time": 2.020544,
                    "velocity": 0.2204724409448819,
                    "duration": 0.06314200000000003
                },
                {
                    "name": "E4",
                    "midi": 64,
                    "time": 2.2731120000000002,
                    "velocity": 0.2283464566929134,
                    "duration": 0.2525680000000001
                },
                {
                    "name": "G4",
                    "midi": 67,
                    "time": 2.2731120000000002,
                    "velocity": 0.2755905511811024,
                    "duration": 0.2525680000000001
                },
                {
                    "name": "B4",
                    "midi": 71,
                    "time": 3.0308160000000006,
                    "velocity": 0.31496062992125984,
                    "duration": 0.06314200000000003
                },
                {
                    "name": "B4",
                    "midi": 71,
                    "time": 3.2833840000000007,
                    "velocity": 0.2755905511811024,
                    "duration": 0.06314200000000003
                },
                {
                    "name": "G4",
                    "midi": 67,
                    "time": 3.535952000000001,
                    "velocity": 0.23622047244094488,
                    "duration": 0.06314200000000003
                },
                {
                    "name": "B4",
                    "midi": 71,
                    "time": 3.788520000000001,
                    "velocity": 0.2755905511811024,
                    "duration": 0.06314200000000003
                },
                {
                    "name": "B4",
                    "midi": 71,
                    "time": 4.041088000000001,
                    "velocity": 0.2440944881889764,
                    "duration": 0.06314200000000003
                },
                {
                    "name": "F#4",
                    "midi": 66,
                    "time": 4.546224000000001,
                    "velocity": 0.2755905511811024,
                    "duration": 0.06314200000000003
                },
                {
                    "name": "D4",
                    "midi": 62,
                    "time": 4.7987920000000015,
                    "velocity": 0.25196850393700787,
                    "duration": 0.06314200000000003
                },
                {
                    "name": "E4",
                    "midi": 64,
                    "time": 4.925076000000002,
                    "velocity": 0.30708661417322836,
                    "duration": 0.06314200000000003
                },
                {
                    "name": "F#4",
                    "midi": 66,
                    "time": 5.051360000000002,
                    "velocity": 0.4409448818897638,
                    "duration": 0.06314200000000003
                },
                {
                    "name": "F#4",
                    "midi": 66,
                    "time": 5.303928000000002,
                    "velocity": 0.5196850393700787,
                    "duration": 0.5051360000000003
                },
                {
                    "name": "B3",
                    "midi": 59,
                    "time": 5.809064000000002,
                    "velocity": 0.47244094488188976,
                    "duration": 0.2525680000000001
                },
                {
                    "name": "E4",
                    "midi": 64,
                    "time": 6.061632000000002,
                    "velocity": 0.2677165354330709,
                    "duration": 0.06314200000000003
                },
                {
                    "name": "G4",
                    "midi": 67,
                    "time": 6.061632000000002,
                    "velocity": 0.31496062992125984,
                    "duration": 0.06314200000000003
                },
                {
                    "name": "G4",
                    "midi": 67,
                    "time": 6.314200000000002,
                    "velocity": 0.2755905511811024,
                    "duration": 0.06314200000000003
                },
                {
                    "name": "E4",
                    "midi": 64,
                    "time": 6.314200000000002,
                    "velocity": 0.2283464566929134,
                    "duration": 0.06314200000000003
                },
                {
                    "name": "G4",
                    "midi": 67,
                    "time": 6.566768000000002,
                    "velocity": 0.23622047244094488,
                    "duration": 0.06314200000000003
                },
                {
                    "name": "C4",
                    "midi": 60,
                    "time": 6.566768000000002,
                    "velocity": 0.1968503937007874,
                    "duration": 0.06314200000000003
                },
                {
                    "name": "E4",
                    "midi": 64,
                    "time": 6.8193360000000025,
                    "velocity": 0.2283464566929134,
                    "duration": 0.06314200000000003
                },
                {
                    "name": "G4",
                    "midi": 67,
                    "time": 6.8193360000000025,
                    "velocity": 0.2755905511811024,
                    "duration": 0.06314200000000003
                },
                {
                    "name": "G4",
                    "midi": 67,
                    "time": 7.071904000000003,
                    "velocity": 0.2440944881889764,
                    "duration": 0.06314200000000003
                },
                {
                    "name": "E4",
                    "midi": 64,
                    "time": 7.071904000000003,
                    "velocity": 0.2047244094488189,
                    "duration": 0.06314200000000003
                },
                {
                    "name": "E4",
                    "midi": 64,
                    "time": 7.577040000000003,
                    "velocity": 0.2283464566929134,
                    "duration": 0.06314200000000003
                },
                {
                    "name": "G4",
                    "midi": 67,
                    "time": 7.577040000000003,
                    "velocity": 0.2755905511811024,
                    "duration": 0.06314200000000003
                },
                {
                    "name": "G4",
                    "midi": 67,
                    "time": 7.829608000000003,
                    "velocity": 0.25196850393700787,
                    "duration": 0.06314200000000003
                },
                {
                    "name": "E4",
                    "midi": 64,
                    "time": 7.829608000000003,
                    "velocity": 0.2125984251968504,
                    "duration": 0.06314200000000003
                },
                {
                    "name": "A4",
                    "midi": 69,
                    "time": 8.082176000000002,
                    "velocity": 0.25984251968503935,
                    "duration": 0.06314199999999914
                },
                {
                    "name": "E4",
                    "midi": 64,
                    "time": 8.082176000000002,
                    "velocity": 0.2204724409448819,
                    "duration": 0.06314199999999914
                },
                {
                    "name": "G4",
                    "midi": 67,
                    "time": 8.334744,
                    "velocity": 0.2755905511811024,
                    "duration": 0.2525680000000001
                },
                {
                    "name": "E4",
                    "midi": 64,
                    "time": 8.334744,
                    "velocity": 0.2283464566929134,
                    "duration": 0.2525680000000001
                },
                {
                    "name": "B4",
                    "midi": 71,
                    "time": 9.092448000000001,
                    "velocity": 0.31496062992125984,
                    "duration": 0.06314199999999914
                },
                {
                    "name": "B4",
                    "midi": 71,
                    "time": 9.345016,
                    "velocity": 0.2755905511811024,
                    "duration": 0.06314199999999914
                },
                {
                    "name": "G4",
                    "midi": 67,
                    "time": 9.597583999999998,
                    "velocity": 0.23622047244094488,
                    "duration": 0.06314199999999914
                },
                {
                    "name": "B4",
                    "midi": 71,
                    "time": 9.850151999999996,
                    "velocity": 0.2755905511811024,
                    "duration": 0.06314199999999914
                },
                {
                    "name": "B4",
                    "midi": 71,
                    "time": 10.102719999999994,
                    "velocity": 0.2440944881889764,
                    "duration": 0.06314199999999914
                },
                {
                    "name": "F#4",
                    "midi": 66,
                    "time": 10.607855999999993,
                    "velocity": 0.2755905511811024,
                    "duration": 0.06314199999999914
                },
                {
                    "name": "D4",
                    "midi": 62,
                    "time": 10.860423999999991,
                    "velocity": 0.25196850393700787,
                    "duration": 0.06314199999999914
                },
                {
                    "name": "E4",
                    "midi": 64,
                    "time": 10.98670799999999,
                    "velocity": 0.30708661417322836,
                    "duration": 0.06314199999999914
                },
                {
                    "name": "F#4",
                    "midi": 66,
                    "time": 11.112991999999988,
                    "velocity": 0.4409448818897638,
                    "duration": 0.06314199999999914
                },
                {
                    "name": "F#4",
                    "midi": 66,
                    "time": 11.365559999999986,
                    "velocity": 0.5196850393700787,
                    "duration": 0.5051360000000003
                },
                {
                    "name": "B3",
                    "midi": 59,
                    "time": 11.870695999999986,
                    "velocity": 0.47244094488188976,
                    "duration": 0.2525680000000001
                },
                {
                    "name": "B2",
                    "midi": 47,
                    "time": 12.123263999999986,
                    "velocity": 0.6929133858267716,
                    "duration": 0.06314199999999914
                },
                {
                    "name": "B2",
                    "midi": 47,
                    "time": 12.375831999999985,
                    "velocity": 0.5984251968503937,
                    "duration": 0.06314199999999914
                },
                {
                    "name": "F#2",
                    "midi": 42,
                    "time": 12.628399999999983,
                    "velocity": 0.5196850393700787,
                    "duration": 0.06314199999999914
                },
                {
                    "name": "B2",
                    "midi": 47,
                    "time": 12.880967999999982,
                    "velocity": 0.5984251968503937,
                    "duration": 0.06314199999999914
                },
                {
                    "name": "B2",
                    "midi": 47,
                    "time": 13.13353599999998,
                    "velocity": 0.5275590551181102,
                    "duration": 0.06314199999999914
                },
                {
                    "name": "E3",
                    "midi": 52,
                    "time": 13.638671999999978,
                    "velocity": 0.2204724409448819,
                    "duration": 0.06314199999999914
                },
                {
                    "name": "C#4",
                    "midi": 61,
                    "time": 13.638671999999978,
                    "velocity": 0.2677165354330709,
                    "duration": 0.06314199999999914
                },
                {
                    "name": "E3",
                    "midi": 52,
                    "time": 13.891239999999977,
                    "velocity": 0.2204724409448819,
                    "duration": 0.06314199999999914
                },
                {
                    "name": "C#4",
                    "midi": 61,
                    "time": 13.891239999999977,
                    "velocity": 0.2677165354330709,
                    "duration": 0.06314199999999914
                },
                {
                    "name": "C#4",
                    "midi": 61,
                    "time": 14.143807999999975,
                    "velocity": 0.2677165354330709,
                    "duration": 0.06314199999999914
                },
                {
                    "name": "F#3",
                    "midi": 54,
                    "time": 14.143807999999975,
                    "velocity": 0.2204724409448819,
                    "duration": 0.06314199999999914
                },
                {
                    "name": "C#4",
                    "midi": 61,
                    "time": 14.396375999999973,
                    "velocity": 0.2677165354330709,
                    "duration": 0.06314199999999914
                },
                {
                    "name": "G3",
                    "midi": 55,
                    "time": 14.396375999999973,
                    "velocity": 0.2204724409448819,
                    "duration": 0.06314199999999914
                },
                {
                    "name": "C#4",
                    "midi": 61,
                    "time": 14.648943999999972,
                    "velocity": 0.2755905511811024,
                    "duration": 0.06314199999999914
                },
                {
                    "name": "G3",
                    "midi": 55,
                    "time": 14.648943999999972,
                    "velocity": 0.2283464566929134,
                    "duration": 0.06314199999999914
                },
                {
                    "name": "B2",
                    "midi": 47,
                    "time": 15.15407999999997,
                    "velocity": 0.6929133858267716,
                    "duration": 0.06314199999999914
                },
                {
                    "name": "B2",
                    "midi": 47,
                    "time": 15.406647999999969,
                    "velocity": 0.5984251968503937,
                    "duration": 0.06314199999999914
                },
                {
                    "name": "F#2",
                    "midi": 42,
                    "time": 15.659215999999967,
                    "velocity": 0.5196850393700787,
                    "duration": 0.06314199999999914
                },
                {
                    "name": "B2",
                    "midi": 47,
                    "time": 15.911783999999965,
                    "velocity": 0.5984251968503937,
                    "duration": 0.06314199999999914
                },
                {
                    "name": "B2",
                    "midi": 47,
                    "time": 16.164351999999965,
                    "velocity": 0.5275590551181102,
                    "duration": 0.06314199999999914
                },
                {
                    "name": "E3",
                    "midi": 52,
                    "time": 16.669487999999966,
                    "velocity": 0.2204724409448819,
                    "duration": 0.06314199999999914
                },
                {
                    "name": "C#4",
                    "midi": 61,
                    "time": 16.669487999999966,
                    "velocity": 0.2677165354330709,
                    "duration": 0.06314199999999914
                },
                {
                    "name": "E3",
                    "midi": 52,
                    "time": 16.922055999999966,
                    "velocity": 0.2204724409448819,
                    "duration": 0.06314199999999914
                },
                {
                    "name": "C#4",
                    "midi": 61,
                    "time": 16.922055999999966,
                    "velocity": 0.2677165354330709,
                    "duration": 0.06314199999999914
                },
                {
                    "name": "F#3",
                    "midi": 54,
                    "time": 17.174623999999966,
                    "velocity": 0.2204724409448819,
                    "duration": 0.06314199999999914
                },
                {
                    "name": "C#4",
                    "midi": 61,
                    "time": 17.174623999999966,
                    "velocity": 0.2677165354330709,
                    "duration": 0.06314199999999914
                },
                {
                    "name": "G3",
                    "midi": 55,
                    "time": 17.427191999999966,
                    "velocity": 0.2204724409448819,
                    "duration": 0.06314199999999914
                },
                {
                    "name": "C#4",
                    "midi": 61,
                    "time": 17.427191999999966,
                    "velocity": 0.2677165354330709,
                    "duration": 0.06314199999999914
                },
                {
                    "name": "C#4",
                    "midi": 61,
                    "time": 17.679759999999966,
                    "velocity": 0.2755905511811024,
                    "duration": 0.06314199999999914
                },
                {
                    "name": "G3",
                    "midi": 55,
                    "time": 17.679759999999966,
                    "velocity": 0.2283464566929134,
                    "duration": 0.06314199999999914
                },
                {
                    "name": "G3",
                    "midi": 55,
                    "time": 18.184895999999966,
                    "velocity": 0.23622047244094488,
                    "duration": 0.06314199999999914
                },
                {
                    "name": "E4",
                    "midi": 64,
                    "time": 18.184895999999966,
                    "velocity": 0.29133858267716534,
                    "duration": 0.06314199999999914
                },
                {
                    "name": "E4",
                    "midi": 64,
                    "time": 18.437463999999967,
                    "velocity": 0.30708661417322836,
                    "duration": 0.06314199999999914
                },
                {
                    "name": "G3",
                    "midi": 55,
                    "time": 18.437463999999967,
                    "velocity": 0.25196850393700787,
                    "duration": 0.06314199999999914
                },
                {
                    "name": "E4",
                    "midi": 64,
                    "time": 18.690031999999967,
                    "velocity": 0.31496062992125984,
                    "duration": 0.06314199999999914
                },
                {
                    "name": "G3",
                    "midi": 55,
                    "time": 18.690031999999967,
                    "velocity": 0.25984251968503935,
                    "duration": 0.06314199999999914
                },
                {
                    "name": "A#3",
                    "midi": 58,
                    "time": 18.942599999999967,
                    "velocity": 0.2755905511811024,
                    "duration": 0.06314199999999914
                },
                {
                    "name": "E4",
                    "midi": 64,
                    "time": 18.942599999999967,
                    "velocity": 0.33070866141732286,
                    "duration": 0.06314199999999914
                },
                {
                    "name": "E4",
                    "midi": 64,
                    "time": 19.195167999999967,
                    "velocity": 0.3543307086614173,
                    "duration": 0.06314199999999914
                },
                {
                    "name": "A#3",
                    "midi": 58,
                    "time": 19.195167999999967,
                    "velocity": 0.29133858267716534,
                    "duration": 0.06314199999999914
                },
                {
                    "name": "A#3",
                    "midi": 58,
                    "time": 19.700303999999967,
                    "velocity": 0.33070866141732286,
                    "duration": 0.06314199999999914
                },
                {
                    "name": "G4",
                    "midi": 67,
                    "time": 19.700303999999967,
                    "velocity": 0.4015748031496063,
                    "duration": 0.06314199999999914
                },
                {
                    "name": "G4",
                    "midi": 67,
                    "time": 19.952871999999967,
                    "velocity": 0.4015748031496063,
                    "duration": 0.06314199999999914
                },
                {
                    "name": "E4",
                    "midi": 64,
                    "time": 19.952871999999967,
                    "velocity": 0.33070866141732286,
                    "duration": 0.06314199999999914
                },
                {
                    "name": "D4",
                    "midi": 62,
                    "time": 20.205439999999967,
                    "velocity": 0.33070866141732286,
                    "duration": 0.06314199999999914
                },
                {
                    "name": "G4",
                    "midi": 67,
                    "time": 20.205439999999967,
                    "velocity": 0.4015748031496063,
                    "duration": 0.06314199999999914
                },
                {
                    "name": "C4",
                    "midi": 60,
                    "time": 20.458007999999968,
                    "velocity": 0.33070866141732286,
                    "duration": 0.06314199999999914
                },
                {
                    "name": "F#4",
                    "midi": 66,
                    "time": 20.458007999999968,
                    "velocity": 0.4015748031496063,
                    "duration": 0.06314199999999914
                },
                {
                    "name": "F#4",
                    "midi": 66,
                    "time": 20.710575999999968,
                    "velocity": 0.3464566929133858,
                    "duration": 0.06314199999999914
                },
                {
                    "name": "C4",
                    "midi": 60,
                    "time": 20.710575999999968,
                    "velocity": 0.28346456692913385,
                    "duration": 0.06314199999999914
                },
                {
                    "name": "C4",
                    "midi": 60,
                    "time": 20.963143999999968,
                    "velocity": 0.25984251968503935,
                    "duration": 0.06314199999999914
                },
                {
                    "name": "F#4",
                    "midi": 66,
                    "time": 20.963143999999968,
                    "velocity": 0.31496062992125984,
                    "duration": 0.06314199999999914
                },
                {
                    "name": "B3",
                    "midi": 59,
                    "time": 21.215711999999968,
                    "velocity": 0.2204724409448819,
                    "duration": 0.06314199999999914
                },
                {
                    "name": "F#4",
                    "midi": 66,
                    "time": 21.215711999999968,
                    "velocity": 0.2677165354330709,
                    "duration": 0.06314199999999914
                },
                {
                    "name": "B3",
                    "midi": 59,
                    "time": 21.468279999999968,
                    "velocity": 0.2204724409448819,
                    "duration": 0.06314199999999914
                },
                {
                    "name": "F#4",
                    "midi": 66,
                    "time": 21.468279999999968,
                    "velocity": 0.2677165354330709,
                    "duration": 0.06314199999999914
                },
                {
                    "name": "B3",
                    "midi": 59,
                    "time": 21.720847999999968,
                    "velocity": 0.2204724409448819,
                    "duration": 0.06314199999999914
                },
                {
                    "name": "F#4",
                    "midi": 66,
                    "time": 21.720847999999968,
                    "velocity": 0.2677165354330709,
                    "duration": 0.06314199999999914
                },
                {
                    "name": "B3",
                    "midi": 59,
                    "time": 21.97341599999997,
                    "velocity": 0.2204724409448819,
                    "duration": 0.06314199999999914
                },
                {
                    "name": "F#4",
                    "midi": 66,
                    "time": 21.97341599999997,
                    "velocity": 0.2677165354330709,
                    "duration": 0.06314199999999914
                },
                {
                    "name": "F#4",
                    "midi": 66,
                    "time": 22.22598399999997,
                    "velocity": 0.2677165354330709,
                    "duration": 0.06314199999999914
                },
                {
                    "name": "B3",
                    "midi": 59,
                    "time": 22.22598399999997,
                    "velocity": 0.2204724409448819,
                    "duration": 0.06314199999999914
                },
                {
                    "name": "B3",
                    "midi": 59,
                    "time": 22.47855199999997,
                    "velocity": 0.2204724409448819,
                    "duration": 0.06314199999999914
                },
                {
                    "name": "F#4",
                    "midi": 66,
                    "time": 22.47855199999997,
                    "velocity": 0.2677165354330709,
                    "duration": 0.06314199999999914
                },
                {
                    "name": "G4",
                    "midi": 67,
                    "time": 22.73111999999997,
                    "velocity": 0.31496062992125984,
                    "duration": 0.06314199999999914
                },
                {
                    "name": "E4",
                    "midi": 64,
                    "time": 22.73111999999997,
                    "velocity": 0.2677165354330709,
                    "duration": 0.06314199999999914
                },
                {
                    "name": "G4",
                    "midi": 67,
                    "time": 22.98368799999997,
                    "velocity": 0.2755905511811024,
                    "duration": 0.06314199999999914
                },
                {
                    "name": "E4",
                    "midi": 64,
                    "time": 22.98368799999997,
                    "velocity": 0.2283464566929134,
                    "duration": 0.06314199999999914
                },
                {
                    "name": "C4",
                    "midi": 60,
                    "time": 23.23625599999997,
                    "velocity": 0.1968503937007874,
                    "duration": 0.06314199999999914
                },
                {
                    "name": "G4",
                    "midi": 67,
                    "time": 23.23625599999997,
                    "velocity": 0.23622047244094488,
                    "duration": 0.06314199999999914
                },
                {
                    "name": "E4",
                    "midi": 64,
                    "time": 23.48882399999997,
                    "velocity": 0.2283464566929134,
                    "duration": 0.06314199999999914
                },
                {
                    "name": "G4",
                    "midi": 67,
                    "time": 23.48882399999997,
                    "velocity": 0.2755905511811024,
                    "duration": 0.06314199999999914
                },
                {
                    "name": "G4",
                    "midi": 67,
                    "time": 23.74139199999997,
                    "velocity": 0.2440944881889764,
                    "duration": 0.06314199999999914
                },
                {
                    "name": "E4",
                    "midi": 64,
                    "time": 23.74139199999997,
                    "velocity": 0.2047244094488189,
                    "duration": 0.06314199999999914
                },
                {
                    "name": "E4",
                    "midi": 64,
                    "time": 24.24652799999997,
                    "velocity": 0.2283464566929134,
                    "duration": 0.06314199999999914
                },
                {
                    "name": "G4",
                    "midi": 67,
                    "time": 24.24652799999997,
                    "velocity": 0.2755905511811024,
                    "duration": 0.06314199999999914
                },
                {
                    "name": "E4",
                    "midi": 64,
                    "time": 24.49909599999997,
                    "velocity": 0.2125984251968504,
                    "duration": 0.06314199999999914
                },
                {
                    "name": "G4",
                    "midi": 67,
                    "time": 24.49909599999997,
                    "velocity": 0.25196850393700787,
                    "duration": 0.06314199999999914
                },
                {
                    "name": "E4",
                    "midi": 64,
                    "time": 24.75166399999997,
                    "velocity": 0.2204724409448819,
                    "duration": 0.06314199999999914
                },
                {
                    "name": "A4",
                    "midi": 69,
                    "time": 24.75166399999997,
                    "velocity": 0.25984251968503935,
                    "duration": 0.06314199999999914
                },
                {
                    "name": "G4",
                    "midi": 67,
                    "time": 25.00423199999997,
                    "velocity": 0.2755905511811024,
                    "duration": 0.2525680000000001
                },
                {
                    "name": "E4",
                    "midi": 64,
                    "time": 25.00423199999997,
                    "velocity": 0.2283464566929134,
                    "duration": 0.2525680000000001
                },
                {
                    "name": "B4",
                    "midi": 71,
                    "time": 25.76193599999997,
                    "velocity": 0.31496062992125984,
                    "duration": 0.06314199999999914
                },
                {
                    "name": "B4",
                    "midi": 71,
                    "time": 26.01450399999997,
                    "velocity": 0.2755905511811024,
                    "duration": 0.06314199999999914
                },
                {
                    "name": "G4",
                    "midi": 67,
                    "time": 26.26707199999997,
                    "velocity": 0.23622047244094488,
                    "duration": 0.06314199999999914
                },
                {
                    "name": "B4",
                    "midi": 71,
                    "time": 26.51963999999997,
                    "velocity": 0.2755905511811024,
                    "duration": 0.06314199999999914
                },
                {
                    "name": "B4",
                    "midi": 71,
                    "time": 26.77220799999997,
                    "velocity": 0.2440944881889764,
                    "duration": 0.06314199999999914
                },
                {
                    "name": "F#4",
                    "midi": 66,
                    "time": 27.27734399999997,
                    "velocity": 0.2755905511811024,
                    "duration": 0.06314199999999914
                },
                {
                    "name": "D4",
                    "midi": 62,
                    "time": 27.52991199999997,
                    "velocity": 0.25196850393700787,
                    "duration": 0.06314199999999914
                },
                {
                    "name": "E4",
                    "midi": 64,
                    "time": 27.65619599999997,
                    "velocity": 0.30708661417322836,
                    "duration": 0.06314199999999914
                },
                {
                    "name": "F#4",
                    "midi": 66,
                    "time": 27.782479999999968,
                    "velocity": 0.4409448818897638,
                    "duration": 0.06314199999999914
                },
                {
                    "name": "F#4",
                    "midi": 66,
                    "time": 28.035047999999968,
                    "velocity": 0.5196850393700787,
                    "duration": 0.5051360000000003
                },
                {
                    "name": "B3",
                    "midi": 59,
                    "time": 28.540183999999968,
                    "velocity": 0.47244094488188976,
                    "duration": 0.2525680000000001
                },
                {
                    "name": "B2",
                    "midi": 47,
                    "time": 28.792751999999968,
                    "velocity": 0.6929133858267716,
                    "duration": 0.06314199999999914
                },
                {
                    "name": "B2",
                    "midi": 47,
                    "time": 29.04531999999997,
                    "velocity": 0.5984251968503937,
                    "duration": 0.06314199999999914
                },
                {
                    "name": "F#2",
                    "midi": 42,
                    "time": 29.29788799999997,
                    "velocity": 0.5196850393700787,
                    "duration": 0.06314199999999914
                },
                {
                    "name": "B2",
                    "midi": 47,
                    "time": 29.55045599999997,
                    "velocity": 0.5984251968503937,
                    "duration": 0.06314199999999914
                },
                {
                    "name": "B2",
                    "midi": 47,
                    "time": 29.80302399999997,
                    "velocity": 0.5275590551181102,
                    "duration": 0.06314199999999914
                },
                {
                    "name": "E3",
                    "midi": 52,
                    "time": 30.30815999999997,
                    "velocity": 0.2204724409448819,
                    "duration": 0.06314199999999914
                },
                {
                    "name": "C#4",
                    "midi": 61,
                    "time": 30.30815999999997,
                    "velocity": 0.2677165354330709,
                    "duration": 0.06314199999999914
                },
                {
                    "name": "C#4",
                    "midi": 61,
                    "time": 30.56072799999997,
                    "velocity": 0.2677165354330709,
                    "duration": 0.06314199999999914
                },
                {
                    "name": "E3",
                    "midi": 52,
                    "time": 30.56072799999997,
                    "velocity": 0.2204724409448819,
                    "duration": 0.06314199999999914
                },
                {
                    "name": "F#3",
                    "midi": 54,
                    "time": 30.81329599999997,
                    "velocity": 0.2204724409448819,
                    "duration": 0.06314199999999914
                },
                {
                    "name": "C#4",
                    "midi": 61,
                    "time": 30.81329599999997,
                    "velocity": 0.2677165354330709,
                    "duration": 0.06314199999999914
                },
                {
                    "name": "C#4",
                    "midi": 61,
                    "time": 31.06586399999997,
                    "velocity": 0.2677165354330709,
                    "duration": 0.06314199999999914
                },
                {
                    "name": "G3",
                    "midi": 55,
                    "time": 31.06586399999997,
                    "velocity": 0.2204724409448819,
                    "duration": 0.06314199999999914
                },
                {
                    "name": "C#4",
                    "midi": 61,
                    "time": 31.31843199999997,
                    "velocity": 0.2755905511811024,
                    "duration": 0.06314199999999914
                },
                {
                    "name": "G3",
                    "midi": 55,
                    "time": 31.31843199999997,
                    "velocity": 0.2283464566929134,
                    "duration": 0.06314199999999914
                },
                {
                    "name": "B2",
                    "midi": 47,
                    "time": 31.82356799999997,
                    "velocity": 0.6929133858267716,
                    "duration": 0.06314199999999914
                },
                {
                    "name": "B2",
                    "midi": 47,
                    "time": 32.07613599999997,
                    "velocity": 0.5984251968503937,
                    "duration": 0.06314199999999914
                },
                {
                    "name": "F#2",
                    "midi": 42,
                    "time": 32.328703999999966,
                    "velocity": 0.5196850393700787,
                    "duration": 0.06314199999999914
                },
                {
                    "name": "B2",
                    "midi": 47,
                    "time": 32.58127199999996,
                    "velocity": 0.5984251968503937,
                    "duration": 0.06314199999999914
                },
                {
                    "name": "B2",
                    "midi": 47,
                    "time": 32.83383999999996,
                    "velocity": 0.5275590551181102,
                    "duration": 0.06314199999999914
                },
                {
                    "name": "E3",
                    "midi": 52,
                    "time": 33.33897599999996,
                    "velocity": 0.2204724409448819,
                    "duration": 0.06314199999999914
                },
                {
                    "name": "C#4",
                    "midi": 61,
                    "time": 33.33897599999996,
                    "velocity": 0.2677165354330709,
                    "duration": 0.06314199999999914
                },
                {
                    "name": "E3",
                    "midi": 52,
                    "time": 33.591543999999956,
                    "velocity": 0.2204724409448819,
                    "duration": 0.06314199999999914
                },
                {
                    "name": "C#4",
                    "midi": 61,
                    "time": 33.591543999999956,
                    "velocity": 0.2677165354330709,
                    "duration": 0.06314199999999914
                },
                {
                    "name": "F#3",
                    "midi": 54,
                    "time": 33.84411199999995,
                    "velocity": 0.2204724409448819,
                    "duration": 0.06314199999999914
                },
                {
                    "name": "C#4",
                    "midi": 61,
                    "time": 33.84411199999995,
                    "velocity": 0.2677165354330709,
                    "duration": 0.06314199999999914
                },
                {
                    "name": "G3",
                    "midi": 55,
                    "time": 34.09667999999995,
                    "velocity": 0.2204724409448819,
                    "duration": 0.06314199999999914
                },
                {
                    "name": "C#4",
                    "midi": 61,
                    "time": 34.09667999999995,
                    "velocity": 0.2677165354330709,
                    "duration": 0.06314199999999914
                },
                {
                    "name": "G3",
                    "midi": 55,
                    "time": 34.349247999999946,
                    "velocity": 0.2283464566929134,
                    "duration": 0.06314199999999914
                },
                {
                    "name": "C#4",
                    "midi": 61,
                    "time": 34.349247999999946,
                    "velocity": 0.2755905511811024,
                    "duration": 0.06314199999999914
                },
                {
                    "name": "E4",
                    "midi": 64,
                    "time": 34.854383999999946,
                    "velocity": 0.29133858267716534,
                    "duration": 0.06314199999999914
                },
                {
                    "name": "G3",
                    "midi": 55,
                    "time": 34.854383999999946,
                    "velocity": 0.23622047244094488,
                    "duration": 0.06314199999999914
                },
                {
                    "name": "G3",
                    "midi": 55,
                    "time": 35.10695199999994,
                    "velocity": 0.25196850393700787,
                    "duration": 0.06314199999999914
                },
                {
                    "name": "E4",
                    "midi": 64,
                    "time": 35.10695199999994,
                    "velocity": 0.30708661417322836,
                    "duration": 0.06314199999999914
                },
                {
                    "name": "G3",
                    "midi": 55,
                    "time": 35.35951999999994,
                    "velocity": 0.25984251968503935,
                    "duration": 0.06314199999999914
                },
                {
                    "name": "E4",
                    "midi": 64,
                    "time": 35.35951999999994,
                    "velocity": 0.31496062992125984,
                    "duration": 0.06314199999999914
                },
                {
                    "name": "E4",
                    "midi": 64,
                    "time": 35.612087999999936,
                    "velocity": 0.33070866141732286,
                    "duration": 0.06314199999999914
                },
                {
                    "name": "A#3",
                    "midi": 58,
                    "time": 35.612087999999936,
                    "velocity": 0.2755905511811024,
                    "duration": 0.06314199999999914
                },
                {
                    "name": "E4",
                    "midi": 64,
                    "time": 35.86465599999993,
                    "velocity": 0.3543307086614173,
                    "duration": 0.06314199999999914
                },
                {
                    "name": "A#3",
                    "midi": 58,
                    "time": 35.86465599999993,
                    "velocity": 0.29133858267716534,
                    "duration": 0.06314199999999914
                },
                {
                    "name": "G4",
                    "midi": 67,
                    "time": 36.36979199999993,
                    "velocity": 0.4015748031496063,
                    "duration": 0.06314199999999914
                },
                {
                    "name": "A#3",
                    "midi": 58,
                    "time": 36.36979199999993,
                    "velocity": 0.33070866141732286,
                    "duration": 0.06314199999999914
                },
                {
                    "name": "E4",
                    "midi": 64,
                    "time": 36.62235999999993,
                    "velocity": 0.33070866141732286,
                    "duration": 0.06314199999999914
                },
                {
                    "name": "G4",
                    "midi": 67,
                    "time": 36.62235999999993,
                    "velocity": 0.4015748031496063,
                    "duration": 0.06314199999999914
                },
                {
                    "name": "G4",
                    "midi": 67,
                    "time": 36.874927999999926,
                    "velocity": 0.4015748031496063,
                    "duration": 0.06314199999999914
                },
                {
                    "name": "D4",
                    "midi": 62,
                    "time": 36.874927999999926,
                    "velocity": 0.33070866141732286,
                    "duration": 0.06314199999999914
                },
                {
                    "name": "C4",
                    "midi": 60,
                    "time": 37.12749599999992,
                    "velocity": 0.33070866141732286,
                    "duration": 0.06314199999999914
                },
                {
                    "name": "F#4",
                    "midi": 66,
                    "time": 37.12749599999992,
                    "velocity": 0.4015748031496063,
                    "duration": 0.06314199999999914
                },
                {
                    "name": "F#4",
                    "midi": 66,
                    "time": 37.38006399999992,
                    "velocity": 0.3464566929133858,
                    "duration": 0.06314199999999914
                },
                {
                    "name": "C4",
                    "midi": 60,
                    "time": 37.38006399999992,
                    "velocity": 0.28346456692913385,
                    "duration": 0.06314199999999914
                },
                {
                    "name": "F#4",
                    "midi": 66,
                    "time": 37.632631999999916,
                    "velocity": 0.31496062992125984,
                    "duration": 0.06314199999999914
                },
                {
                    "name": "C4",
                    "midi": 60,
                    "time": 37.632631999999916,
                    "velocity": 0.25984251968503935,
                    "duration": 0.06314199999999914
                },
                {
                    "name": "F#4",
                    "midi": 66,
                    "time": 37.88519999999991,
                    "velocity": 0.2677165354330709,
                    "duration": 0.06314199999999914
                },
                {
                    "name": "B3",
                    "midi": 59,
                    "time": 37.88519999999991,
                    "velocity": 0.2204724409448819,
                    "duration": 0.06314199999999914
                },
                {
                    "name": "F#4",
                    "midi": 66,
                    "time": 38.13776799999991,
                    "velocity": 0.2677165354330709,
                    "duration": 0.06314199999999914
                },
                {
                    "name": "B3",
                    "midi": 59,
                    "time": 38.13776799999991,
                    "velocity": 0.2204724409448819,
                    "duration": 0.06314199999999914
                },
                {
                    "name": "F#4",
                    "midi": 66,
                    "time": 38.390335999999905,
                    "velocity": 0.2677165354330709,
                    "duration": 0.06314199999999914
                },
                {
                    "name": "B3",
                    "midi": 59,
                    "time": 38.390335999999905,
                    "velocity": 0.2204724409448819,
                    "duration": 0.06314199999999914
                },
                {
                    "name": "B3",
                    "midi": 59,
                    "time": 38.6429039999999,
                    "velocity": 0.2204724409448819,
                    "duration": 0.06314199999999914
                },
                {
                    "name": "F#4",
                    "midi": 66,
                    "time": 38.6429039999999,
                    "velocity": 0.2677165354330709,
                    "duration": 0.06314199999999914
                },
                {
                    "name": "F#4",
                    "midi": 66,
                    "time": 38.8954719999999,
                    "velocity": 0.2677165354330709,
                    "duration": 0.06314199999999914
                },
                {
                    "name": "B3",
                    "midi": 59,
                    "time": 38.8954719999999,
                    "velocity": 0.2204724409448819,
                    "duration": 0.06314199999999914
                },
                {
                    "name": "B3",
                    "midi": 59,
                    "time": 39.148039999999895,
                    "velocity": 0.2204724409448819,
                    "duration": 0.06314199999999914
                },
                {
                    "name": "F#4",
                    "midi": 66,
                    "time": 39.148039999999895,
                    "velocity": 0.2677165354330709,
                    "duration": 0.06314199999999914
                },
                {
                    "name": "G4",
                    "midi": 67,
                    "time": 39.40060799999989,
                    "velocity": 0.31496062992125984,
                    "duration": 0.06314199999999914
                },
                {
                    "name": "E4",
                    "midi": 64,
                    "time": 39.40060799999989,
                    "velocity": 0.2677165354330709,
                    "duration": 0.06314199999999914
                },
                {
                    "name": "E4",
                    "midi": 64,
                    "time": 39.65317599999989,
                    "velocity": 0.2283464566929134,
                    "duration": 0.06314199999999914
                },
                {
                    "name": "G4",
                    "midi": 67,
                    "time": 39.65317599999989,
                    "velocity": 0.2755905511811024,
                    "duration": 0.06314199999999914
                },
                {
                    "name": "G4",
                    "midi": 67,
                    "time": 39.905743999999885,
                    "velocity": 0.23622047244094488,
                    "duration": 0.06314199999999914
                },
                {
                    "name": "C4",
                    "midi": 60,
                    "time": 39.905743999999885,
                    "velocity": 0.1968503937007874,
                    "duration": 0.06314199999999914
                },
                {
                    "name": "G4",
                    "midi": 67,
                    "time": 40.15831199999988,
                    "velocity": 0.2755905511811024,
                    "duration": 0.06314199999999914
                },
                {
                    "name": "E4",
                    "midi": 64,
                    "time": 40.15831199999988,
                    "velocity": 0.2283464566929134,
                    "duration": 0.06314199999999914
                },
                {
                    "name": "G4",
                    "midi": 67,
                    "time": 40.41087999999988,
                    "velocity": 0.2440944881889764,
                    "duration": 0.06314199999999914
                },
                {
                    "name": "E4",
                    "midi": 64,
                    "time": 40.41087999999988,
                    "velocity": 0.2047244094488189,
                    "duration": 0.06314199999999914
                },
                {
                    "name": "E4",
                    "midi": 64,
                    "time": 40.91601599999988,
                    "velocity": 0.2283464566929134,
                    "duration": 0.06314199999999914
                },
                {
                    "name": "G4",
                    "midi": 67,
                    "time": 40.91601599999988,
                    "velocity": 0.2755905511811024,
                    "duration": 0.06314199999999914
                },
                {
                    "name": "E4",
                    "midi": 64,
                    "time": 41.168583999999875,
                    "velocity": 0.2125984251968504,
                    "duration": 0.06314199999999914
                },
                {
                    "name": "G4",
                    "midi": 67,
                    "time": 41.168583999999875,
                    "velocity": 0.25196850393700787,
                    "duration": 0.06314199999999914
                },
                {
                    "name": "E4",
                    "midi": 64,
                    "time": 41.42115199999987,
                    "velocity": 0.2204724409448819,
                    "duration": 0.06314199999999914
                },
                {
                    "name": "A4",
                    "midi": 69,
                    "time": 41.42115199999987,
                    "velocity": 0.25984251968503935,
                    "duration": 0.06314199999999914
                },
                {
                    "name": "G4",
                    "midi": 67,
                    "time": 41.67371999999987,
                    "velocity": 0.2755905511811024,
                    "duration": 0.2525679999999966
                },
                {
                    "name": "E4",
                    "midi": 64,
                    "time": 41.67371999999987,
                    "velocity": 0.2283464566929134,
                    "duration": 0.2525679999999966
                },
                {
                    "name": "B4",
                    "midi": 71,
                    "time": 42.431423999999865,
                    "velocity": 0.31496062992125984,
                    "duration": 0.06314199999999914
                },
                {
                    "name": "B4",
                    "midi": 71,
                    "time": 42.68399199999986,
                    "velocity": 0.2755905511811024,
                    "duration": 0.06314199999999914
                },
                {
                    "name": "G4",
                    "midi": 67,
                    "time": 42.93655999999986,
                    "velocity": 0.23622047244094488,
                    "duration": 0.06314199999999914
                },
                {
                    "name": "B4",
                    "midi": 71,
                    "time": 43.189127999999855,
                    "velocity": 0.2755905511811024,
                    "duration": 0.06314199999999914
                },
                {
                    "name": "B4",
                    "midi": 71,
                    "time": 43.44169599999985,
                    "velocity": 0.2440944881889764,
                    "duration": 0.06314199999999914
                },
                {
                    "name": "F#4",
                    "midi": 66,
                    "time": 43.94683199999985,
                    "velocity": 0.2755905511811024,
                    "duration": 0.06314199999999914
                },
                {
                    "name": "D4",
                    "midi": 62,
                    "time": 44.19939999999985,
                    "velocity": 0.25196850393700787,
                    "duration": 0.06314199999999914
                },
                {
                    "name": "E4",
                    "midi": 64,
                    "time": 44.325683999999846,
                    "velocity": 0.30708661417322836,
                    "duration": 0.06314199999999914
                },
                {
                    "name": "F#4",
                    "midi": 66,
                    "time": 44.451967999999844,
                    "velocity": 0.4409448818897638,
                    "duration": 0.06314199999999914
                },
                {
                    "name": "F#4",
                    "midi": 66,
                    "time": 44.70453599999984,
                    "velocity": 0.5196850393700787,
                    "duration": 0.5051360000000003
                },
                {
                    "name": "B3",
                    "midi": 59,
                    "time": 45.20967199999984,
                    "velocity": 0.47244094488188976,
                    "duration": 0.2525679999999966
                },
                {
                    "name": "E4",
                    "midi": 64,
                    "time": 45.46223999999984,
                    "velocity": 0.2677165354330709,
                    "duration": 0.06314199999999914
                },
                {
                    "name": "G4",
                    "midi": 67,
                    "time": 45.46223999999984,
                    "velocity": 0.31496062992125984,
                    "duration": 0.06314199999999914
                },
                {
                    "name": "E4",
                    "midi": 64,
                    "time": 45.714807999999834,
                    "velocity": 0.2283464566929134,
                    "duration": 0.06314199999999914
                },
                {
                    "name": "G4",
                    "midi": 67,
                    "time": 45.714807999999834,
                    "velocity": 0.2755905511811024,
                    "duration": 0.06314199999999914
                },
                {
                    "name": "C4",
                    "midi": 60,
                    "time": 45.96737599999983,
                    "velocity": 0.1968503937007874,
                    "duration": 0.06314199999999914
                },
                {
                    "name": "G4",
                    "midi": 67,
                    "time": 45.96737599999983,
                    "velocity": 0.23622047244094488,
                    "duration": 0.06314199999999914
                },
                {
                    "name": "E4",
                    "midi": 64,
                    "time": 46.21994399999983,
                    "velocity": 0.2283464566929134,
                    "duration": 0.06314199999999914
                },
                {
                    "name": "G4",
                    "midi": 67,
                    "time": 46.21994399999983,
                    "velocity": 0.2755905511811024,
                    "duration": 0.06314199999999914
                },
                {
                    "name": "G4",
                    "midi": 67,
                    "time": 46.472511999999824,
                    "velocity": 0.2440944881889764,
                    "duration": 0.06314199999999914
                },
                {
                    "name": "E4",
                    "midi": 64,
                    "time": 46.472511999999824,
                    "velocity": 0.2047244094488189,
                    "duration": 0.06314199999999914
                },
                {
                    "name": "E4",
                    "midi": 64,
                    "time": 46.977647999999824,
                    "velocity": 0.2283464566929134,
                    "duration": 0.06314199999999914
                },
                {
                    "name": "G4",
                    "midi": 67,
                    "time": 46.977647999999824,
                    "velocity": 0.2755905511811024,
                    "duration": 0.06314199999999914
                },
                {
                    "name": "E4",
                    "midi": 64,
                    "time": 47.23021599999982,
                    "velocity": 0.2125984251968504,
                    "duration": 0.06314199999999914
                },
                {
                    "name": "G4",
                    "midi": 67,
                    "time": 47.23021599999982,
                    "velocity": 0.25196850393700787,
                    "duration": 0.06314199999999914
                },
                {
                    "name": "E4",
                    "midi": 64,
                    "time": 47.48278399999982,
                    "velocity": 0.2204724409448819,
                    "duration": 0.06314199999999914
                },
                {
                    "name": "A4",
                    "midi": 69,
                    "time": 47.48278399999982,
                    "velocity": 0.25984251968503935,
                    "duration": 0.06314199999999914
                },
                {
                    "name": "E4",
                    "midi": 64,
                    "time": 47.735351999999814,
                    "velocity": 0.2283464566929134,
                    "duration": 0.2525679999999966
                },
                {
                    "name": "G4",
                    "midi": 67,
                    "time": 47.735351999999814,
                    "velocity": 0.2755905511811024,
                    "duration": 0.2525679999999966
                },
                {
                    "name": "E4",
                    "midi": 64,
                    "time": 48.49305599999981,
                    "velocity": 0.2440944881889764,
                    "duration": 0.2525679999999966
                },
                {
                    "name": "C4",
                    "midi": 60,
                    "time": 48.49305599999981,
                    "velocity": 0.2047244094488189,
                    "duration": 0.2525679999999966
                },
                {
                    "name": "A3",
                    "midi": 57,
                    "time": 49.25075999999981,
                    "velocity": 0.2047244094488189,
                    "duration": 0.2525679999999966
                },
                {
                    "name": "C4",
                    "midi": 60,
                    "time": 49.25075999999981,
                    "velocity": 0.2440944881889764,
                    "duration": 0.2525679999999966
                },
                {
                    "name": "F#3",
                    "midi": 54,
                    "time": 50.008463999999805,
                    "velocity": 0.1889763779527559,
                    "duration": 0.2525679999999966
                },
                {
                    "name": "B2",
                    "midi": 47,
                    "time": 50.008463999999805,
                    "velocity": 0.16535433070866143,
                    "duration": 0.2525679999999966
                },
                {
                    "name": "A3",
                    "midi": 57,
                    "time": 50.008463999999805,
                    "velocity": 0.2283464566929134,
                    "duration": 0.2525679999999966
                },
                {
                    "name": "E2",
                    "midi": 40,
                    "time": 50.7661679999998,
                    "velocity": 0.14173228346456693,
                    "duration": 0.06314199999999914
                },
                {
                    "name": "B2",
                    "midi": 47,
                    "time": 50.7661679999998,
                    "velocity": 0.14173228346456693,
                    "duration": 0.06314199999999914
                },
                {
                    "name": "E3",
                    "midi": 52,
                    "time": 50.7661679999998,
                    "velocity": 0.1732283464566929,
                    "duration": 0.06314199999999914
                },
                {
                    "name": "B2",
                    "midi": 47,
                    "time": 51.0187359999998,
                    "velocity": 0.12598425196850394,
                    "duration": 0.06314199999999914
                },
                {
                    "name": "E2",
                    "midi": 40,
                    "time": 51.0187359999998,
                    "velocity": 0.12598425196850394,
                    "duration": 0.06314199999999914
                },
                {
                    "name": "E3",
                    "midi": 52,
                    "time": 51.0187359999998,
                    "velocity": 0.14960629921259844,
                    "duration": 0.06314199999999914
                },
                {
                    "name": "E3",
                    "midi": 52,
                    "time": 51.271303999999795,
                    "velocity": 0.12598425196850394,
                    "duration": 0.06314199999999914
                },
                {
                    "name": "A2",
                    "midi": 45,
                    "time": 51.271303999999795,
                    "velocity": 0.10236220472440945,
                    "duration": 0.06314199999999914
                },
                {
                    "name": "E2",
                    "midi": 40,
                    "time": 51.271303999999795,
                    "velocity": 0.10236220472440945,
                    "duration": 0.06314199999999914
                },
                {
                    "name": "E2",
                    "midi": 40,
                    "time": 51.52387199999979,
                    "velocity": 0.14173228346456693,
                    "duration": 0.06314199999999914
                },
                {
                    "name": "E3",
                    "midi": 52,
                    "time": 51.52387199999979,
                    "velocity": 0.1732283464566929,
                    "duration": 0.06314199999999914
                },
                {
                    "name": "B2",
                    "midi": 47,
                    "time": 51.52387199999979,
                    "velocity": 0.14173228346456693,
                    "duration": 0.06314199999999914
                },
                {
                    "name": "E2",
                    "midi": 40,
                    "time": 51.77643999999979,
                    "velocity": 0.12598425196850394,
                    "duration": 0.06314199999999914
                },
                {
                    "name": "B2",
                    "midi": 47,
                    "time": 51.77643999999979,
                    "velocity": 0.12598425196850394,
                    "duration": 0.06314199999999914
                },
                {
                    "name": "E3",
                    "midi": 52,
                    "time": 51.77643999999979,
                    "velocity": 0.14960629921259844,
                    "duration": 0.06314199999999914
                },
                {
                    "name": "E3",
                    "midi": 52,
                    "time": 52.029007999999784,
                    "velocity": 0.12598425196850394,
                    "duration": 0.06314199999999914
                },
                {
                    "name": "E2",
                    "midi": 40,
                    "time": 52.029007999999784,
                    "velocity": 0.10236220472440945,
                    "duration": 0.06314199999999914
                },
                {
                    "name": "C3",
                    "midi": 48,
                    "time": 52.029007999999784,
                    "velocity": 0.10236220472440945,
                    "duration": 0.06314199999999914
                },
                {
                    "name": "E3",
                    "midi": 52,
                    "time": 52.28157599999978,
                    "velocity": 0.1732283464566929,
                    "duration": 0.06314199999999914
                },
                {
                    "name": "E2",
                    "midi": 40,
                    "time": 52.28157599999978,
                    "velocity": 0.14173228346456693,
                    "duration": 0.06314199999999914
                },
                {
                    "name": "B2",
                    "midi": 47,
                    "time": 52.28157599999978,
                    "velocity": 0.14173228346456693,
                    "duration": 0.06314199999999914
                },
                {
                    "name": "E3",
                    "midi": 52,
                    "time": 53.03927999999978,
                    "velocity": 0.1732283464566929,
                    "duration": 0.06314199999999914
                },
                {
                    "name": "B3",
                    "midi": 59,
                    "time": 53.03927999999978,
                    "velocity": 0.2125984251968504,
                    "duration": 0.06314199999999914
                },
                {
                    "name": "B4",
                    "midi": 71,
                    "time": 53.796983999999775,
                    "velocity": 0.2125984251968504,
                    "duration": 0.06314199999999914
                },
                {
                    "name": "E4",
                    "midi": 64,
                    "time": 53.796983999999775,
                    "velocity": 0.1732283464566929,
                    "duration": 0.06314199999999914
                }
            ],
            "controlChanges": {},
            "id": 2,
            "name": "Piano left",
            "instrumentNumber": 0,
            "instrument": "acoustic grand piano",
            "instrumentFamily": "piano",
            "channelNumber": 0,
            "isPercussion": false
        },
        {
            "startTime": 0,
            "duration": 0,
            "length": 0,
            "notes": [],
            "controlChanges": {
                "64": [
                    {
                        "number": 64,
                        "time": 1.2628400000000002,
                        "value": 1
                    },
                    {
                        "number": 64,
                        "time": 1.5206698333333335,
                        "value": 0
                    },
                    {
                        "number": 64,
                        "time": 1.5711834333333334,
                        "value": 1
                    },
                    {
                        "number": 64,
                        "time": 2.0331724,
                        "value": 0
                    },
                    {
                        "number": 64,
                        "time": 2.0952620333333334,
                        "value": 1
                    },
                    {
                        "number": 64,
                        "time": 2.277321466666667,
                        "value": 0
                    },
                    {
                        "number": 64,
                        "time": 2.3699297333333336,
                        "value": 1
                    },
                    {
                        "number": 64,
                        "time": 2.9413648333333335,
                        "value": 0
                    },
                    {
                        "number": 64,
                        "time": 4.293656,
                        "value": 1
                    },
                    {
                        "number": 64,
                        "time": 4.5514858333333335,
                        "value": 0
                    },
                    {
                        "number": 64,
                        "time": 4.601999433333334,
                        "value": 1
                    },
                    {
                        "number": 64,
                        "time": 5.0639884,
                        "value": 0
                    },
                    {
                        "number": 64,
                        "time": 5.126078033333334,
                        "value": 1
                    },
                    {
                        "number": 64,
                        "time": 5.308137466666667,
                        "value": 0
                    },
                    {
                        "number": 64,
                        "time": 5.400745733333334,
                        "value": 1
                    },
                    {
                        "number": 64,
                        "time": 6.061632000000001,
                        "value": 0
                    },
                    {
                        "number": 64,
                        "time": 7.324472000000002,
                        "value": 1
                    },
                    {
                        "number": 64,
                        "time": 7.582301833333335,
                        "value": 0
                    },
                    {
                        "number": 64,
                        "time": 7.632815433333335,
                        "value": 1
                    },
                    {
                        "number": 64,
                        "time": 8.094804400000003,
                        "value": 0
                    },
                    {
                        "number": 64,
                        "time": 8.156894033333336,
                        "value": 1
                    },
                    {
                        "number": 64,
                        "time": 8.338953466666668,
                        "value": 0
                    },
                    {
                        "number": 64,
                        "time": 8.431561733333334,
                        "value": 1
                    },
                    {
                        "number": 64,
                        "time": 9.002996833333334,
                        "value": 0
                    },
                    {
                        "number": 64,
                        "time": 10.355288000000002,
                        "value": 1
                    },
                    {
                        "number": 64,
                        "time": 10.613117833333336,
                        "value": 0
                    },
                    {
                        "number": 64,
                        "time": 10.663631433333336,
                        "value": 1
                    },
                    {
                        "number": 64,
                        "time": 11.125620400000003,
                        "value": 0
                    },
                    {
                        "number": 64,
                        "time": 11.187710033333335,
                        "value": 1
                    },
                    {
                        "number": 64,
                        "time": 11.369769466666668,
                        "value": 0
                    },
                    {
                        "number": 64,
                        "time": 11.462377733333334,
                        "value": 1
                    },
                    {
                        "number": 64,
                        "time": 12.123264,
                        "value": 0
                    },
                    {
                        "number": 64,
                        "time": 13.386104000000001,
                        "value": 1
                    },
                    {
                        "number": 64,
                        "time": 13.643933833333335,
                        "value": 0
                    },
                    {
                        "number": 64,
                        "time": 13.683923766666668,
                        "value": 1
                    },
                    {
                        "number": 64,
                        "time": 13.775479666666667,
                        "value": 0
                    },
                    {
                        "number": 64,
                        "time": 13.912287333333333,
                        "value": 1
                    },
                    {
                        "number": 64,
                        "time": 14.028047666666668,
                        "value": 0
                    },
                    {
                        "number": 64,
                        "time": 14.164855333333334,
                        "value": 1
                    },
                    {
                        "number": 64,
                        "time": 14.280615666666668,
                        "value": 0
                    },
                    {
                        "number": 64,
                        "time": 14.405847300000001,
                        "value": 1
                    },
                    {
                        "number": 64,
                        "time": 14.533183666666668,
                        "value": 0
                    },
                    {
                        "number": 64,
                        "time": 14.676305533333334,
                        "value": 1
                    },
                    {
                        "number": 64,
                        "time": 14.785751666666668,
                        "value": 0
                    },
                    {
                        "number": 64,
                        "time": 15.15408,
                        "value": 0
                    },
                    {
                        "number": 64,
                        "time": 16.41692,
                        "value": 1
                    },
                    {
                        "number": 64,
                        "time": 16.674749833333333,
                        "value": 0
                    },
                    {
                        "number": 64,
                        "time": 16.714739766666668,
                        "value": 1
                    },
                    {
                        "number": 64,
                        "time": 16.806295666666667,
                        "value": 0
                    },
                    {
                        "number": 64,
                        "time": 16.943103333333333,
                        "value": 1
                    },
                    {
                        "number": 64,
                        "time": 17.058863666666667,
                        "value": 0
                    },
                    {
                        "number": 64,
                        "time": 17.195671333333333,
                        "value": 1
                    },
                    {
                        "number": 64,
                        "time": 17.311431666666667,
                        "value": 0
                    },
                    {
                        "number": 64,
                        "time": 17.4366633,
                        "value": 1
                    },
                    {
                        "number": 64,
                        "time": 17.563999666666668,
                        "value": 0
                    },
                    {
                        "number": 64,
                        "time": 17.707121533333336,
                        "value": 1
                    },
                    {
                        "number": 64,
                        "time": 17.816567666666668,
                        "value": 0
                    },
                    {
                        "number": 64,
                        "time": 17.99547,
                        "value": 1
                    },
                    {
                        "number": 64,
                        "time": 18.190157833333334,
                        "value": 0
                    },
                    {
                        "number": 64,
                        "time": 18.23014776666667,
                        "value": 1
                    },
                    {
                        "number": 64,
                        "time": 18.321703666666668,
                        "value": 0
                    },
                    {
                        "number": 64,
                        "time": 18.458511333333334,
                        "value": 1
                    },
                    {
                        "number": 64,
                        "time": 18.574271666666668,
                        "value": 0
                    },
                    {
                        "number": 64,
                        "time": 18.711079333333334,
                        "value": 1
                    },
                    {
                        "number": 64,
                        "time": 18.826839666666668,
                        "value": 0
                    },
                    {
                        "number": 64,
                        "time": 18.9520713,
                        "value": 1
                    },
                    {
                        "number": 64,
                        "time": 19.07940766666667,
                        "value": 0
                    },
                    {
                        "number": 64,
                        "time": 19.222529533333336,
                        "value": 1
                    },
                    {
                        "number": 64,
                        "time": 19.33197566666667,
                        "value": 0
                    },
                    {
                        "number": 64,
                        "time": 19.510878,
                        "value": 1
                    },
                    {
                        "number": 64,
                        "time": 19.705565833333335,
                        "value": 0
                    },
                    {
                        "number": 64,
                        "time": 19.74555576666667,
                        "value": 1
                    },
                    {
                        "number": 64,
                        "time": 19.83711166666667,
                        "value": 0
                    },
                    {
                        "number": 64,
                        "time": 19.973919333333335,
                        "value": 1
                    },
                    {
                        "number": 64,
                        "time": 20.08967966666667,
                        "value": 0
                    },
                    {
                        "number": 64,
                        "time": 20.226487333333335,
                        "value": 1
                    },
                    {
                        "number": 64,
                        "time": 20.34224766666667,
                        "value": 0
                    },
                    {
                        "number": 64,
                        "time": 20.463269833333335,
                        "value": 0
                    },
                    {
                        "number": 64,
                        "time": 20.50325976666667,
                        "value": 1
                    },
                    {
                        "number": 64,
                        "time": 20.59481566666667,
                        "value": 0
                    },
                    {
                        "number": 64,
                        "time": 20.731623333333335,
                        "value": 1
                    },
                    {
                        "number": 64,
                        "time": 20.84738366666667,
                        "value": 0
                    },
                    {
                        "number": 64,
                        "time": 20.984191333333335,
                        "value": 1
                    },
                    {
                        "number": 64,
                        "time": 21.09995166666667,
                        "value": 0
                    },
                    {
                        "number": 64,
                        "time": 21.220973833333336,
                        "value": 0
                    },
                    {
                        "number": 64,
                        "time": 21.26096376666667,
                        "value": 1
                    },
                    {
                        "number": 64,
                        "time": 21.978677833333336,
                        "value": 0
                    },
                    {
                        "number": 64,
                        "time": 22.01866776666667,
                        "value": 1
                    },
                    {
                        "number": 64,
                        "time": 22.731120000000004,
                        "value": 0
                    },
                    {
                        "number": 64,
                        "time": 23.993960000000005,
                        "value": 1
                    },
                    {
                        "number": 64,
                        "time": 24.251789833333337,
                        "value": 0
                    },
                    {
                        "number": 64,
                        "time": 24.302303433333336,
                        "value": 1
                    },
                    {
                        "number": 64,
                        "time": 24.764292400000002,
                        "value": 0
                    },
                    {
                        "number": 64,
                        "time": 24.826382033333335,
                        "value": 1
                    },
                    {
                        "number": 64,
                        "time": 25.008441466666667,
                        "value": 0
                    },
                    {
                        "number": 64,
                        "time": 25.101049733333333,
                        "value": 1
                    },
                    {
                        "number": 64,
                        "time": 25.672484833333332,
                        "value": 0
                    },
                    {
                        "number": 64,
                        "time": 27.024776,
                        "value": 1
                    },
                    {
                        "number": 64,
                        "time": 27.28260583333333,
                        "value": 0
                    },
                    {
                        "number": 64,
                        "time": 27.33311943333333,
                        "value": 1
                    },
                    {
                        "number": 64,
                        "time": 27.795108399999997,
                        "value": 0
                    },
                    {
                        "number": 64,
                        "time": 27.85719803333333,
                        "value": 1
                    },
                    {
                        "number": 64,
                        "time": 28.039257466666662,
                        "value": 0
                    },
                    {
                        "number": 64,
                        "time": 28.131865733333328,
                        "value": 1
                    },
                    {
                        "number": 64,
                        "time": 28.792751999999993,
                        "value": 0
                    },
                    {
                        "number": 64,
                        "time": 30.055591999999994,
                        "value": 1
                    },
                    {
                        "number": 64,
                        "time": 30.313421833333326,
                        "value": 0
                    },
                    {
                        "number": 64,
                        "time": 30.35341176666666,
                        "value": 1
                    },
                    {
                        "number": 64,
                        "time": 30.44496766666666,
                        "value": 0
                    },
                    {
                        "number": 64,
                        "time": 30.581775333333326,
                        "value": 1
                    },
                    {
                        "number": 64,
                        "time": 30.69753566666666,
                        "value": 0
                    },
                    {
                        "number": 64,
                        "time": 30.834343333333326,
                        "value": 1
                    },
                    {
                        "number": 64,
                        "time": 30.95010366666666,
                        "value": 0
                    },
                    {
                        "number": 64,
                        "time": 31.075335299999992,
                        "value": 1
                    },
                    {
                        "number": 64,
                        "time": 31.20267166666666,
                        "value": 0
                    },
                    {
                        "number": 64,
                        "time": 31.345793533333328,
                        "value": 1
                    },
                    {
                        "number": 64,
                        "time": 31.45523966666666,
                        "value": 0
                    },
                    {
                        "number": 64,
                        "time": 31.823567999999995,
                        "value": 0
                    },
                    {
                        "number": 64,
                        "time": 33.08640799999999,
                        "value": 1
                    },
                    {
                        "number": 64,
                        "time": 33.344237833333324,
                        "value": 0
                    },
                    {
                        "number": 64,
                        "time": 33.384227766666655,
                        "value": 1
                    },
                    {
                        "number": 64,
                        "time": 33.47578366666666,
                        "value": 0
                    },
                    {
                        "number": 64,
                        "time": 33.61259133333333,
                        "value": 1
                    },
                    {
                        "number": 64,
                        "time": 33.72835166666666,
                        "value": 0
                    },
                    {
                        "number": 64,
                        "time": 33.86515933333333,
                        "value": 1
                    },
                    {
                        "number": 64,
                        "time": 33.980919666666665,
                        "value": 0
                    },
                    {
                        "number": 64,
                        "time": 34.1061513,
                        "value": 1
                    },
                    {
                        "number": 64,
                        "time": 34.23348766666667,
                        "value": 0
                    },
                    {
                        "number": 64,
                        "time": 34.37660953333334,
                        "value": 1
                    },
                    {
                        "number": 64,
                        "time": 34.48605566666667,
                        "value": 0
                    },
                    {
                        "number": 64,
                        "time": 34.664958000000006,
                        "value": 1
                    },
                    {
                        "number": 64,
                        "time": 34.85964583333334,
                        "value": 0
                    },
                    {
                        "number": 64,
                        "time": 34.89963576666667,
                        "value": 1
                    },
                    {
                        "number": 64,
                        "time": 34.99119166666667,
                        "value": 0
                    },
                    {
                        "number": 64,
                        "time": 35.12799933333334,
                        "value": 1
                    },
                    {
                        "number": 64,
                        "time": 35.243759666666676,
                        "value": 0
                    },
                    {
                        "number": 64,
                        "time": 35.380567333333346,
                        "value": 1
                    },
                    {
                        "number": 64,
                        "time": 35.49632766666668,
                        "value": 0
                    },
                    {
                        "number": 64,
                        "time": 35.621559300000015,
                        "value": 1
                    },
                    {
                        "number": 64,
                        "time": 35.748895666666684,
                        "value": 0
                    },
                    {
                        "number": 64,
                        "time": 35.89201753333335,
                        "value": 1
                    },
                    {
                        "number": 64,
                        "time": 36.00146366666669,
                        "value": 0
                    },
                    {
                        "number": 64,
                        "time": 36.18036600000002,
                        "value": 1
                    },
                    {
                        "number": 64,
                        "time": 36.375053833333354,
                        "value": 0
                    },
                    {
                        "number": 64,
                        "time": 36.415043766666685,
                        "value": 1
                    },
                    {
                        "number": 64,
                        "time": 36.50659966666669,
                        "value": 0
                    },
                    {
                        "number": 64,
                        "time": 36.64340733333336,
                        "value": 1
                    },
                    {
                        "number": 64,
                        "time": 36.75916766666669,
                        "value": 0
                    },
                    {
                        "number": 64,
                        "time": 36.89597533333336,
                        "value": 1
                    },
                    {
                        "number": 64,
                        "time": 37.011735666666695,
                        "value": 0
                    },
                    {
                        "number": 64,
                        "time": 37.132757833333365,
                        "value": 0
                    },
                    {
                        "number": 64,
                        "time": 37.172747766666696,
                        "value": 1
                    },
                    {
                        "number": 64,
                        "time": 37.89046183333336,
                        "value": 0
                    },
                    {
                        "number": 64,
                        "time": 37.93045176666669,
                        "value": 1
                    },
                    {
                        "number": 64,
                        "time": 38.64816583333336,
                        "value": 0
                    },
                    {
                        "number": 64,
                        "time": 38.69552233333336,
                        "value": 1
                    },
                    {
                        "number": 64,
                        "time": 39.40060800000003,
                        "value": 0
                    },
                    {
                        "number": 64,
                        "time": 40.663448000000024,
                        "value": 1
                    },
                    {
                        "number": 64,
                        "time": 40.921277833333356,
                        "value": 0
                    },
                    {
                        "number": 64,
                        "time": 40.97179143333336,
                        "value": 1
                    },
                    {
                        "number": 64,
                        "time": 41.433780400000025,
                        "value": 0
                    },
                    {
                        "number": 64,
                        "time": 41.49587003333336,
                        "value": 1
                    },
                    {
                        "number": 64,
                        "time": 41.6779294666667,
                        "value": 0
                    },
                    {
                        "number": 64,
                        "time": 41.77053773333336,
                        "value": 1
                    },
                    {
                        "number": 64,
                        "time": 42.341972833333365,
                        "value": 0
                    },
                    {
                        "number": 64,
                        "time": 43.69426400000003,
                        "value": 1
                    },
                    {
                        "number": 64,
                        "time": 43.952093833333365,
                        "value": 0
                    },
                    {
                        "number": 64,
                        "time": 44.00260743333337,
                        "value": 1
                    },
                    {
                        "number": 64,
                        "time": 44.46459640000003,
                        "value": 0
                    },
                    {
                        "number": 64,
                        "time": 44.52668603333337,
                        "value": 1
                    },
                    {
                        "number": 64,
                        "time": 44.708745466666706,
                        "value": 0
                    },
                    {
                        "number": 64,
                        "time": 44.80135373333337,
                        "value": 1
                    },
                    {
                        "number": 64,
                        "time": 45.46224000000004,
                        "value": 0
                    },
                    {
                        "number": 64,
                        "time": 46.725080000000034,
                        "value": 1
                    },
                    {
                        "number": 64,
                        "time": 46.982909833333366,
                        "value": 0
                    },
                    {
                        "number": 64,
                        "time": 47.03342343333337,
                        "value": 1
                    },
                    {
                        "number": 64,
                        "time": 47.495412400000035,
                        "value": 0
                    },
                    {
                        "number": 64,
                        "time": 47.55750203333337,
                        "value": 1
                    },
                    {
                        "number": 64,
                        "time": 47.73956146666671,
                        "value": 0
                    },
                    {
                        "number": 64,
                        "time": 47.83216973333337,
                        "value": 1
                    },
                    {
                        "number": 64,
                        "time": 48.403604833333375,
                        "value": 0
                    },
                    {
                        "number": 64,
                        "time": 48.58987373333338,
                        "value": 1
                    },
                    {
                        "number": 64,
                        "time": 49.16130883333338,
                        "value": 0
                    },
                    {
                        "number": 64,
                        "time": 49.34757773333338,
                        "value": 1
                    },
                    {
                        "number": 64,
                        "time": 49.91901283333338,
                        "value": 0
                    },
                    {
                        "number": 64,
                        "time": 50.105281733333385,
                        "value": 1
                    },
                    {
                        "number": 64,
                        "time": 50.67671683333339,
                        "value": 0
                    },
                    {
                        "number": 64,
                        "time": 52.31525173333339,
                        "value": 1
                    },
                    {
                        "number": 64,
                        "time": 52.43837863333339,
                        "value": 0
                    },
                    {
                        "number": 64,
                        "time": 52.94351463333339,
                        "value": 1
                    },
                    {
                        "number": 64,
                        "time": 53.03928000000006,
                        "value": 0
                    },
                    {
                        "number": 64,
                        "time": 53.081374666666726,
                        "value": 1
                    },
                    {
                        "number": 64,
                        "time": 53.22554890000006,
                        "value": 0
                    },
                    {
                        "number": 64,
                        "time": 53.68648550000005,
                        "value": 1
                    },
                    {
                        "number": 64,
                        "time": 53.79698400000005,
                        "value": 0
                    },
                    {
                        "number": 64,
                        "time": 53.84223576666672,
                        "value": 1
                    },
                    {
                        "number": 64,
                        "time": 53.98325290000005,
                        "value": 0
                    }
                ]
            },
            "id": 3,
            "name": "Pedale",
            "instrumentNumber": 0,
            "instrument": "acoustic grand piano",
            "instrumentFamily": "piano",
            "channelNumber": 0,
            "isPercussion": false
        },
        {
            "startTime": 0,
            "duration": 0,
            "length": 0,
            "notes": [],
            "controlChanges": {},
            "id": 4,
            "name": "Grieg: Lyric Pieces Op. 12 No. 4 Fairy Dance"
        },
        {
            "startTime": 0,
            "duration": 0,
            "length": 0,
            "notes": [],
            "controlChanges": {},
            "id": 5,
            "name": "Copyright © 2007 by Bernd Krueger"
        },
        {
            "startTime": 0,
            "duration": 0,
            "length": 0,
            "notes": [],
            "controlChanges": {},
            "id": 6,
            "name": "http://www.piano-midi.de/"
        },
        {
            "startTime": 0,
            "duration": 0,
            "length": 0,
            "notes": [],
            "controlChanges": {},
            "id": 7,
            "name": "Edition: 2012-10-29"
        },
        {
            "startTime": 0,
            "duration": 0,
            "length": 0,
            "notes": [],
            "controlChanges": {},
            "id": 8,
            "name": "Spur 8"
        },
        {
            "startTime": 0,
            "duration": 0,
            "length": 0,
            "notes": [],
            "controlChanges": {},
            "id": 9,
            "name": "Spur 9"
        },
        {
            "startTime": 0,
            "duration": 0,
            "length": 0,
            "notes": [],
            "controlChanges": {},
            "id": 10,
            "name": "Spur 10"
        },
        {
            "startTime": 0,
            "duration": 0,
            "length": 0,
            "notes": [],
            "controlChanges": {},
            "id": 11,
            "name": "Spur 11"
        },
        {
            "startTime": 0,
            "duration": 0,
            "length": 0,
            "notes": [],
            "controlChanges": {},
            "id": 12,
            "name": "Spur 12"
        },
        {
            "startTime": 0,
            "duration": 0,
            "length": 0,
            "notes": [],
            "controlChanges": {},
            "id": 13,
            "name": "Spur 13"
        },
        {
            "startTime": 0,
            "duration": 0,
            "length": 0,
            "notes": [],
            "controlChanges": {},
            "id": 14,
            "name": "Spur 14"
        },
        {
            "startTime": 0,
            "duration": 0,
            "length": 0,
            "notes": [],
            "controlChanges": {},
            "id": 15,
            "name": "Spur 15"
        },
        {
            "startTime": 0,
            "duration": 0,
            "length": 0,
            "notes": [],
            "controlChanges": {},
            "id": 16,
            "name": "Spur 16"
        }
    ]
}