{
    "header": {
        "PPQ": 480,
        "timeSignature": [
            4,
            4
        ],
        "bpm": 120.72993317598198,
        "name": "Grieg: Lyrische Stücke Op. 43 No. 1 - Schmetterling"
    },
    "startTime": 0,
    "duration": 95.17109550000009,
    "tracks": [
        {
            "startTime": 0,
            "duration": 0,
            "length": 0,
            "notes": [],
            "controlChanges": {},
            "id": 0,
            "name": "Grieg: Lyrische Stücke Op. 43 No. 1 - Schmetterling"
        },
        {
            "startTime": 0,
            "duration": 94.92260699999993,
            "length": 598,
            "notes": [
                {
                    "name": "F#5",
                    "midi": 78,
                    "time": 0,
                    "velocity": 0.4251968503937008,
                    "duration": 0.37273275
                },
                {
                    "name": "G#4",
                    "midi": 68,
                    "time": 0.37273275,
                    "velocity": 0.3779527559055118,
                    "duration": 0.12424425
                },
                {
                    "name": "A4",
                    "midi": 69,
                    "time": 0.496977,
                    "velocity": 0.4015748031496063,
                    "duration": 0.12424425000000006
                },
                {
                    "name": "A#4",
                    "midi": 70,
                    "time": 0.6212212500000001,
                    "velocity": 0.4094488188976378,
                    "duration": 0.12424425000000006
                },
                {
                    "name": "B4",
                    "midi": 71,
                    "time": 0.7454655000000001,
                    "velocity": 0.41732283464566927,
                    "duration": 0.12424425000000006
                },
                {
                    "name": "C5",
                    "midi": 72,
                    "time": 0.8697097500000002,
                    "velocity": 0.4330708661417323,
                    "duration": 0.12424425000000006
                },
                {
                    "name": "C#5",
                    "midi": 73,
                    "time": 0.9939540000000002,
                    "velocity": 0.4409448818897638,
                    "duration": 0.12424425000000006
                },
                {
                    "name": "D5",
                    "midi": 74,
                    "time": 1.1181982500000003,
                    "velocity": 0.44881889763779526,
                    "duration": 0.12424425000000006
                },
                {
                    "name": "D#5",
                    "midi": 75,
                    "time": 1.2424425000000003,
                    "velocity": 0.4566929133858268,
                    "duration": 0.12424425000000006
                },
                {
                    "name": "E5",
                    "midi": 76,
                    "time": 1.3666867500000004,
                    "velocity": 0.4645669291338583,
                    "duration": 0.12424425000000006
                },
                {
                    "name": "A5",
                    "midi": 81,
                    "time": 1.4909310000000005,
                    "velocity": 0.5433070866141733,
                    "duration": 0.12424425000000006
                },
                {
                    "name": "E5",
                    "midi": 76,
                    "time": 1.6151752500000005,
                    "velocity": 0.47244094488188976,
                    "duration": 0.12424425000000006
                },
                {
                    "name": "C#5",
                    "midi": 73,
                    "time": 1.7394195000000006,
                    "velocity": 0.4881889763779528,
                    "duration": 0.12424425000000006
                },
                {
                    "name": "A4",
                    "midi": 69,
                    "time": 1.8636637500000006,
                    "velocity": 0.47244094488188976,
                    "duration": 0.12424425000000006
                },
                {
                    "name": "G4",
                    "midi": 67,
                    "time": 1.9879080000000007,
                    "velocity": 0.5354330708661418,
                    "duration": 0.37273275000000017
                },
                {
                    "name": "E5",
                    "midi": 76,
                    "time": 2.360640750000001,
                    "velocity": 0.3858267716535433,
                    "duration": 0.12424424999999983
                },
                {
                    "name": "G#4",
                    "midi": 68,
                    "time": 2.4848850000000007,
                    "velocity": 0.5433070866141733,
                    "duration": 0.37273274999999995
                },
                {
                    "name": "E5",
                    "midi": 76,
                    "time": 2.8576177500000006,
                    "velocity": 0.3858267716535433,
                    "duration": 0.12424424999999983
                },
                {
                    "name": "G4",
                    "midi": 67,
                    "time": 2.9818620000000005,
                    "velocity": 0.5511811023622047,
                    "duration": 0.37273274999999995
                },
                {
                    "name": "E5",
                    "midi": 76,
                    "time": 3.3545947500000004,
                    "velocity": 0.3700787401574803,
                    "duration": 0.12424424999999983
                },
                {
                    "name": "G#4",
                    "midi": 68,
                    "time": 3.4788390000000002,
                    "velocity": 0.5433070866141733,
                    "duration": 0.37273274999999995
                },
                {
                    "name": "F5",
                    "midi": 77,
                    "time": 3.85157175,
                    "velocity": 0.3858267716535433,
                    "duration": 0.12424424999999983
                },
                {
                    "name": "F#5",
                    "midi": 78,
                    "time": 3.975816,
                    "velocity": 0.5275590551181102,
                    "duration": 0.37273274999999995
                },
                {
                    "name": "G#4",
                    "midi": 68,
                    "time": 4.34854875,
                    "velocity": 0.4251968503937008,
                    "duration": 0.12424425000000028
                },
                {
                    "name": "A4",
                    "midi": 69,
                    "time": 4.472793,
                    "velocity": 0.41732283464566927,
                    "duration": 0.12424425000000028
                },
                {
                    "name": "A#4",
                    "midi": 70,
                    "time": 4.5970372500000005,
                    "velocity": 0.4251968503937008,
                    "duration": 0.12424425000000028
                },
                {
                    "name": "B4",
                    "midi": 71,
                    "time": 4.721281500000001,
                    "velocity": 0.4330708661417323,
                    "duration": 0.12424425000000028
                },
                {
                    "name": "C5",
                    "midi": 72,
                    "time": 4.845525750000001,
                    "velocity": 0.44881889763779526,
                    "duration": 0.12424425000000028
                },
                {
                    "name": "C#5",
                    "midi": 73,
                    "time": 4.969770000000001,
                    "velocity": 0.4566929133858268,
                    "duration": 0.12424425000000028
                },
                {
                    "name": "D5",
                    "midi": 74,
                    "time": 5.094014250000002,
                    "velocity": 0.47244094488188976,
                    "duration": 0.12424425000000028
                },
                {
                    "name": "D#5",
                    "midi": 75,
                    "time": 5.218258500000002,
                    "velocity": 0.48031496062992124,
                    "duration": 0.12424425000000028
                },
                {
                    "name": "E5",
                    "midi": 76,
                    "time": 5.342502750000002,
                    "velocity": 0.49606299212598426,
                    "duration": 0.12424425000000028
                },
                {
                    "name": "A5",
                    "midi": 81,
                    "time": 5.4667470000000025,
                    "velocity": 0.5433070866141733,
                    "duration": 0.12424425000000028
                },
                {
                    "name": "E5",
                    "midi": 76,
                    "time": 5.590991250000003,
                    "velocity": 0.47244094488188976,
                    "duration": 0.12424425000000028
                },
                {
                    "name": "C#5",
                    "midi": 73,
                    "time": 5.715235500000003,
                    "velocity": 0.4881889763779528,
                    "duration": 0.12424425000000028
                },
                {
                    "name": "A4",
                    "midi": 69,
                    "time": 5.839479750000003,
                    "velocity": 0.47244094488188976,
                    "duration": 0.12424425000000028
                },
                {
                    "name": "C#6",
                    "midi": 85,
                    "time": 5.963724000000004,
                    "velocity": 0.5984251968503937,
                    "duration": 0.37273274999999995
                },
                {
                    "name": "D#5",
                    "midi": 75,
                    "time": 6.3364567500000035,
                    "velocity": 0.47244094488188976,
                    "duration": 0.12424425000000028
                },
                {
                    "name": "E5",
                    "midi": 76,
                    "time": 6.460701000000004,
                    "velocity": 0.4645669291338583,
                    "duration": 0.12424425000000028
                },
                {
                    "name": "F5",
                    "midi": 77,
                    "time": 6.584945250000004,
                    "velocity": 0.48031496062992124,
                    "duration": 0.12424425000000028
                },
                {
                    "name": "F#5",
                    "midi": 78,
                    "time": 6.709189500000004,
                    "velocity": 0.49606299212598426,
                    "duration": 0.12424425000000028
                },
                {
                    "name": "G5",
                    "midi": 79,
                    "time": 6.833433750000005,
                    "velocity": 0.5196850393700787,
                    "duration": 0.12424425000000028
                },
                {
                    "name": "G#5",
                    "midi": 80,
                    "time": 6.957678000000005,
                    "velocity": 0.5275590551181102,
                    "duration": 0.12424425000000028
                },
                {
                    "name": "A5",
                    "midi": 81,
                    "time": 7.081922250000005,
                    "velocity": 0.5511811023622047,
                    "duration": 0.12424425000000028
                },
                {
                    "name": "A#5",
                    "midi": 82,
                    "time": 7.2061665000000055,
                    "velocity": 0.5669291338582677,
                    "duration": 0.12424425000000028
                },
                {
                    "name": "B5",
                    "midi": 83,
                    "time": 7.330410750000006,
                    "velocity": 0.5905511811023622,
                    "duration": 0.12424425000000028
                },
                {
                    "name": "E6",
                    "midi": 88,
                    "time": 7.454655000000006,
                    "velocity": 0.6535433070866141,
                    "duration": 0.12424425000000028
                },
                {
                    "name": "B5",
                    "midi": 83,
                    "time": 7.578899250000006,
                    "velocity": 0.5748031496062992,
                    "duration": 0.12424425000000028
                },
                {
                    "name": "G#5",
                    "midi": 80,
                    "time": 7.703143500000007,
                    "velocity": 0.5984251968503937,
                    "duration": 0.12424425000000028
                },
                {
                    "name": "E5",
                    "midi": 76,
                    "time": 7.827387750000007,
                    "velocity": 0.5826771653543307,
                    "duration": 0.12424425000000028
                },
                {
                    "name": "B4",
                    "midi": 71,
                    "time": 7.951632000000007,
                    "velocity": 0.6141732283464567,
                    "duration": 0.37273275000000083
                },
                {
                    "name": "G#5",
                    "midi": 80,
                    "time": 8.324364750000008,
                    "velocity": 0.4330708661417323,
                    "duration": 0.12424425000000028
                },
                {
                    "name": "G#4",
                    "midi": 68,
                    "time": 8.448609000000008,
                    "velocity": 0.6062992125984252,
                    "duration": 0.37273275000000083
                },
                {
                    "name": "E5",
                    "midi": 76,
                    "time": 8.821341750000009,
                    "velocity": 0.3937007874015748,
                    "duration": 0.12424425000000028
                },
                {
                    "name": "E4",
                    "midi": 64,
                    "time": 8.94558600000001,
                    "velocity": 0.5354330708661418,
                    "duration": 0.37273275000000083
                },
                {
                    "name": "C#5",
                    "midi": 73,
                    "time": 9.31831875000001,
                    "velocity": 0.33858267716535434,
                    "duration": 0.12424425000000028
                },
                {
                    "name": "C#4",
                    "midi": 61,
                    "time": 9.44256300000001,
                    "velocity": 0.48031496062992124,
                    "duration": 0.37273275000000083
                },
                {
                    "name": "A#4",
                    "midi": 70,
                    "time": 9.815295750000011,
                    "velocity": 0.30708661417322836,
                    "duration": 0.12424425000000028
                },
                {
                    "name": "C4",
                    "midi": 60,
                    "time": 9.939540000000012,
                    "velocity": 0.41732283464566927,
                    "duration": 0.37273275000000083
                },
                {
                    "name": "A4",
                    "midi": 69,
                    "time": 10.312272750000012,
                    "velocity": 0.28346456692913385,
                    "duration": 0.12424425000000028
                },
                {
                    "name": "A3",
                    "midi": 57,
                    "time": 10.436517000000013,
                    "velocity": 0.3937007874015748,
                    "duration": 0.37273275000000083
                },
                {
                    "name": "F#4",
                    "midi": 66,
                    "time": 10.809249750000014,
                    "velocity": 0.25196850393700787,
                    "duration": 0.12424425000000028
                },
                {
                    "name": "G#3",
                    "midi": 56,
                    "time": 10.933494000000014,
                    "velocity": 0.3700787401574803,
                    "duration": 0.37273275000000083
                },
                {
                    "name": "E4",
                    "midi": 64,
                    "time": 11.306226750000015,
                    "velocity": 0.29133858267716534,
                    "duration": 0.12424425000000028
                },
                {
                    "name": "F#5",
                    "midi": 78,
                    "time": 11.927448000000014,
                    "velocity": 0.41732283464566927,
                    "duration": 0.37273275000000083
                },
                {
                    "name": "G#4",
                    "midi": 68,
                    "time": 12.300180750000015,
                    "velocity": 0.3779527559055118,
                    "duration": 0.12424425000000028
                },
                {
                    "name": "A4",
                    "midi": 69,
                    "time": 12.424425000000015,
                    "velocity": 0.4094488188976378,
                    "duration": 0.12424425000000028
                },
                {
                    "name": "A#4",
                    "midi": 70,
                    "time": 12.548669250000016,
                    "velocity": 0.41732283464566927,
                    "duration": 0.12424425000000028
                },
                {
                    "name": "B4",
                    "midi": 71,
                    "time": 12.672913500000016,
                    "velocity": 0.4251968503937008,
                    "duration": 0.12424425000000028
                },
                {
                    "name": "C5",
                    "midi": 72,
                    "time": 12.797157750000016,
                    "velocity": 0.4330708661417323,
                    "duration": 0.12424425000000028
                },
                {
                    "name": "C#5",
                    "midi": 73,
                    "time": 12.921402000000016,
                    "velocity": 0.4409448818897638,
                    "duration": 0.12424425000000028
                },
                {
                    "name": "D5",
                    "midi": 74,
                    "time": 13.045646250000017,
                    "velocity": 0.4566929133858268,
                    "duration": 0.12424425000000028
                },
                {
                    "name": "D#5",
                    "midi": 75,
                    "time": 13.169890500000017,
                    "velocity": 0.4645669291338583,
                    "duration": 0.12424425000000028
                },
                {
                    "name": "E5",
                    "midi": 76,
                    "time": 13.294134750000017,
                    "velocity": 0.47244094488188976,
                    "duration": 0.12424425000000028
                },
                {
                    "name": "A5",
                    "midi": 81,
                    "time": 13.418379000000018,
                    "velocity": 0.5433070866141733,
                    "duration": 0.12424425000000028
                },
                {
                    "name": "E5",
                    "midi": 76,
                    "time": 13.542623250000018,
                    "velocity": 0.47244094488188976,
                    "duration": 0.12424425000000028
                },
                {
                    "name": "C#5",
                    "midi": 73,
                    "time": 13.666867500000018,
                    "velocity": 0.4881889763779528,
                    "duration": 0.12424425000000028
                },
                {
                    "name": "A4",
                    "midi": 69,
                    "time": 13.791111750000018,
                    "velocity": 0.47244094488188976,
                    "duration": 0.12424425000000028
                },
                {
                    "name": "G4",
                    "midi": 67,
                    "time": 13.915356000000019,
                    "velocity": 0.5354330708661418,
                    "duration": 0.37273275000000083
                },
                {
                    "name": "E5",
                    "midi": 76,
                    "time": 14.28808875000002,
                    "velocity": 0.3858267716535433,
                    "duration": 0.12424425000000028
                },
                {
                    "name": "G#4",
                    "midi": 68,
                    "time": 14.41233300000002,
                    "velocity": 0.5433070866141733,
                    "duration": 0.37273275000000083
                },
                {
                    "name": "E5",
                    "midi": 76,
                    "time": 14.78506575000002,
                    "velocity": 0.3937007874015748,
                    "duration": 0.12424425000000028
                },
                {
                    "name": "G4",
                    "midi": 67,
                    "time": 14.909310000000021,
                    "velocity": 0.5511811023622047,
                    "duration": 0.37273275000000083
                },
                {
                    "name": "E5",
                    "midi": 76,
                    "time": 15.282042750000022,
                    "velocity": 0.3858267716535433,
                    "duration": 0.12424425000000028
                },
                {
                    "name": "G#4",
                    "midi": 68,
                    "time": 15.406287000000022,
                    "velocity": 0.5433070866141733,
                    "duration": 0.37273275000000083
                },
                {
                    "name": "F5",
                    "midi": 77,
                    "time": 15.779019750000023,
                    "velocity": 0.3543307086614173,
                    "duration": 0.12424425000000028
                },
                {
                    "name": "F#5",
                    "midi": 78,
                    "time": 15.903264000000023,
                    "velocity": 0.5275590551181102,
                    "duration": 0.37273274999999906
                },
                {
                    "name": "G#4",
                    "midi": 68,
                    "time": 16.275996750000022,
                    "velocity": 0.4251968503937008,
                    "duration": 0.12424425000000028
                },
                {
                    "name": "A4",
                    "midi": 69,
                    "time": 16.400241000000022,
                    "velocity": 0.41732283464566927,
                    "duration": 0.12424425000000028
                },
                {
                    "name": "A#4",
                    "midi": 70,
                    "time": 16.524485250000023,
                    "velocity": 0.4251968503937008,
                    "duration": 0.12424425000000028
                },
                {
                    "name": "B4",
                    "midi": 71,
                    "time": 16.648729500000023,
                    "velocity": 0.4330708661417323,
                    "duration": 0.12424425000000028
                },
                {
                    "name": "C5",
                    "midi": 72,
                    "time": 16.772973750000023,
                    "velocity": 0.44881889763779526,
                    "duration": 0.12424425000000028
                },
                {
                    "name": "C#5",
                    "midi": 73,
                    "time": 16.897218000000024,
                    "velocity": 0.4566929133858268,
                    "duration": 0.12424425000000028
                },
                {
                    "name": "D5",
                    "midi": 74,
                    "time": 17.021462250000024,
                    "velocity": 0.47244094488188976,
                    "duration": 0.12424425000000028
                },
                {
                    "name": "D#5",
                    "midi": 75,
                    "time": 17.145706500000024,
                    "velocity": 0.48031496062992124,
                    "duration": 0.12424425000000028
                },
                {
                    "name": "E5",
                    "midi": 76,
                    "time": 17.269950750000024,
                    "velocity": 0.49606299212598426,
                    "duration": 0.12424425000000028
                },
                {
                    "name": "A5",
                    "midi": 81,
                    "time": 17.394195000000025,
                    "velocity": 0.5433070866141733,
                    "duration": 0.12424425000000028
                },
                {
                    "name": "E5",
                    "midi": 76,
                    "time": 17.518439250000025,
                    "velocity": 0.47244094488188976,
                    "duration": 0.12424425000000028
                },
                {
                    "name": "C#5",
                    "midi": 73,
                    "time": 17.642683500000025,
                    "velocity": 0.4881889763779528,
                    "duration": 0.12424425000000028
                },
                {
                    "name": "A4",
                    "midi": 69,
                    "time": 17.766927750000026,
                    "velocity": 0.47244094488188976,
                    "duration": 0.12424425000000028
                },
                {
                    "name": "C#6",
                    "midi": 85,
                    "time": 17.891172000000026,
                    "velocity": 0.5984251968503937,
                    "duration": 0.37273275000000083
                },
                {
                    "name": "D#5",
                    "midi": 75,
                    "time": 18.263904750000027,
                    "velocity": 0.47244094488188976,
                    "duration": 0.12424425000000028
                },
                {
                    "name": "E5",
                    "midi": 76,
                    "time": 18.388149000000027,
                    "velocity": 0.4645669291338583,
                    "duration": 0.12424425000000028
                },
                {
                    "name": "F5",
                    "midi": 77,
                    "time": 18.512393250000027,
                    "velocity": 0.48031496062992124,
                    "duration": 0.12424425000000028
                },
                {
                    "name": "F#5",
                    "midi": 78,
                    "time": 18.636637500000028,
                    "velocity": 0.49606299212598426,
                    "duration": 0.12424425000000028
                },
                {
                    "name": "G5",
                    "midi": 79,
                    "time": 18.760881750000028,
                    "velocity": 0.5196850393700787,
                    "duration": 0.12424425000000028
                },
                {
                    "name": "G#5",
                    "midi": 80,
                    "time": 18.885126000000028,
                    "velocity": 0.5275590551181102,
                    "duration": 0.12424425000000028
                },
                {
                    "name": "A5",
                    "midi": 81,
                    "time": 19.00937025000003,
                    "velocity": 0.5511811023622047,
                    "duration": 0.12424425000000028
                },
                {
                    "name": "A#5",
                    "midi": 82,
                    "time": 19.13361450000003,
                    "velocity": 0.5669291338582677,
                    "duration": 0.12424425000000028
                },
                {
                    "name": "B5",
                    "midi": 83,
                    "time": 19.25785875000003,
                    "velocity": 0.5905511811023622,
                    "duration": 0.12424425000000028
                },
                {
                    "name": "E6",
                    "midi": 88,
                    "time": 19.38210300000003,
                    "velocity": 0.6535433070866141,
                    "duration": 0.12424425000000028
                },
                {
                    "name": "B5",
                    "midi": 83,
                    "time": 19.50634725000003,
                    "velocity": 0.5748031496062992,
                    "duration": 0.12424425000000028
                },
                {
                    "name": "G#5",
                    "midi": 80,
                    "time": 19.63059150000003,
                    "velocity": 0.5984251968503937,
                    "duration": 0.12424425000000028
                },
                {
                    "name": "E5",
                    "midi": 76,
                    "time": 19.75483575000003,
                    "velocity": 0.5826771653543307,
                    "duration": 0.12424425000000028
                },
                {
                    "name": "B4",
                    "midi": 71,
                    "time": 19.87908000000003,
                    "velocity": 0.6141732283464567,
                    "duration": 0.37273275000000083
                },
                {
                    "name": "G#5",
                    "midi": 80,
                    "time": 20.25181275000003,
                    "velocity": 0.4330708661417323,
                    "duration": 0.12424425000000028
                },
                {
                    "name": "G#4",
                    "midi": 68,
                    "time": 20.37605700000003,
                    "velocity": 0.6062992125984252,
                    "duration": 0.37273275000000083
                },
                {
                    "name": "E5",
                    "midi": 76,
                    "time": 20.748789750000032,
                    "velocity": 0.3858267716535433,
                    "duration": 0.12424425000000028
                },
                {
                    "name": "E4",
                    "midi": 64,
                    "time": 20.873034000000033,
                    "velocity": 0.5354330708661418,
                    "duration": 0.37273275000000083
                },
                {
                    "name": "C#5",
                    "midi": 73,
                    "time": 21.245766750000033,
                    "velocity": 0.33070866141732286,
                    "duration": 0.12424425000000028
                },
                {
                    "name": "C#4",
                    "midi": 61,
                    "time": 21.370011000000034,
                    "velocity": 0.47244094488188976,
                    "duration": 0.37273275000000083
                },
                {
                    "name": "A#4",
                    "midi": 70,
                    "time": 21.742743750000034,
                    "velocity": 0.29133858267716534,
                    "duration": 0.12424425000000028
                },
                {
                    "name": "C4",
                    "midi": 60,
                    "time": 21.866988000000035,
                    "velocity": 0.41732283464566927,
                    "duration": 0.37273275000000083
                },
                {
                    "name": "A4",
                    "midi": 69,
                    "time": 22.239720750000036,
                    "velocity": 0.2677165354330709,
                    "duration": 0.12424425000000028
                },
                {
                    "name": "A3",
                    "midi": 57,
                    "time": 22.363965000000036,
                    "velocity": 0.3858267716535433,
                    "duration": 0.37273275000000083
                },
                {
                    "name": "F#4",
                    "midi": 66,
                    "time": 22.736697750000037,
                    "velocity": 0.23622047244094488,
                    "duration": 0.12424425000000028
                },
                {
                    "name": "G#3",
                    "midi": 56,
                    "time": 22.860942000000037,
                    "velocity": 0.36220472440944884,
                    "duration": 0.37273275000000083
                },
                {
                    "name": "E4",
                    "midi": 64,
                    "time": 23.233674750000038,
                    "velocity": 0.28346456692913385,
                    "duration": 0.12424425000000028
                },
                {
                    "name": "G4",
                    "midi": 67,
                    "time": 23.85489600000004,
                    "velocity": 0.47244094488188976,
                    "duration": 0.37273275000000083
                },
                {
                    "name": "B4",
                    "midi": 71,
                    "time": 24.22762875000004,
                    "velocity": 0.4251968503937008,
                    "duration": 0.12424425000000028
                },
                {
                    "name": "D5",
                    "midi": 74,
                    "time": 24.35187300000004,
                    "velocity": 0.4566929133858268,
                    "duration": 0.12424425000000028
                },
                {
                    "name": "G5",
                    "midi": 79,
                    "time": 24.47611725000004,
                    "velocity": 0.4251968503937008,
                    "duration": 0.12424425000000028
                },
                {
                    "name": "C#5",
                    "midi": 73,
                    "time": 24.60036150000004,
                    "velocity": 0.47244094488188976,
                    "duration": 0.12424425000000028
                },
                {
                    "name": "D5",
                    "midi": 74,
                    "time": 24.72460575000004,
                    "velocity": 0.44881889763779526,
                    "duration": 0.12424425000000028
                },
                {
                    "name": "G5",
                    "midi": 79,
                    "time": 24.72460575000004,
                    "velocity": 0.44881889763779526,
                    "duration": 0.12424425000000028
                },
                {
                    "name": "B4",
                    "midi": 71,
                    "time": 24.84885000000004,
                    "velocity": 0.49606299212598426,
                    "duration": 0.12424425000000028
                },
                {
                    "name": "D5",
                    "midi": 74,
                    "time": 24.97309425000004,
                    "velocity": 0.47244094488188976,
                    "duration": 0.12424425000000028
                },
                {
                    "name": "G5",
                    "midi": 79,
                    "time": 24.97309425000004,
                    "velocity": 0.47244094488188976,
                    "duration": 0.12424425000000028
                },
                {
                    "name": "A4",
                    "midi": 69,
                    "time": 25.097338500000042,
                    "velocity": 0.5118110236220472,
                    "duration": 0.12424425000000028
                },
                {
                    "name": "B4",
                    "midi": 71,
                    "time": 25.221582750000042,
                    "velocity": 0.49606299212598426,
                    "duration": 0.12424425000000028
                },
                {
                    "name": "D5",
                    "midi": 74,
                    "time": 25.221582750000042,
                    "velocity": 0.49606299212598426,
                    "duration": 0.12424425000000028
                },
                {
                    "name": "G4",
                    "midi": 67,
                    "time": 25.345827000000043,
                    "velocity": 0.5433070866141733,
                    "duration": 0.12424425000000028
                },
                {
                    "name": "B4",
                    "midi": 71,
                    "time": 25.470071250000043,
                    "velocity": 0.47244094488188976,
                    "duration": 0.12424425000000028
                },
                {
                    "name": "D5",
                    "midi": 74,
                    "time": 25.470071250000043,
                    "velocity": 0.47244094488188976,
                    "duration": 0.12424425000000028
                },
                {
                    "name": "F#4",
                    "midi": 66,
                    "time": 25.594315500000043,
                    "velocity": 0.5433070866141733,
                    "duration": 0.12424425000000028
                },
                {
                    "name": "B4",
                    "midi": 71,
                    "time": 25.718559750000043,
                    "velocity": 0.47244094488188976,
                    "duration": 0.12424425000000028
                },
                {
                    "name": "D5",
                    "midi": 74,
                    "time": 25.718559750000043,
                    "velocity": 0.47244094488188976,
                    "duration": 0.12424425000000028
                },
                {
                    "name": "F4",
                    "midi": 65,
                    "time": 25.842804000000044,
                    "velocity": 0.5748031496062992,
                    "duration": 0.37273275000000083
                },
                {
                    "name": "G#4",
                    "midi": 68,
                    "time": 26.215536750000044,
                    "velocity": 0.3543307086614173,
                    "duration": 0.12424425000000028
                },
                {
                    "name": "C#5",
                    "midi": 73,
                    "time": 26.215536750000044,
                    "velocity": 0.4251968503937008,
                    "duration": 0.12424425000000028
                },
                {
                    "name": "F#4",
                    "midi": 66,
                    "time": 26.339781000000045,
                    "velocity": 0.5433070866141733,
                    "duration": 0.37273275000000083
                },
                {
                    "name": "A4",
                    "midi": 69,
                    "time": 26.712513750000046,
                    "velocity": 0.3543307086614173,
                    "duration": 0.12424425000000028
                },
                {
                    "name": "C#5",
                    "midi": 73,
                    "time": 26.712513750000046,
                    "velocity": 0.41732283464566927,
                    "duration": 0.12424425000000028
                },
                {
                    "name": "D#4",
                    "midi": 63,
                    "time": 26.836758000000046,
                    "velocity": 0.5511811023622047,
                    "duration": 0.37273275000000083
                },
                {
                    "name": "F#4",
                    "midi": 66,
                    "time": 27.209490750000047,
                    "velocity": 0.33070866141732286,
                    "duration": 0.12424425000000028
                },
                {
                    "name": "C#5",
                    "midi": 73,
                    "time": 27.209490750000047,
                    "velocity": 0.3937007874015748,
                    "duration": 0.12424425000000028
                },
                {
                    "name": "F4",
                    "midi": 65,
                    "time": 27.333735000000047,
                    "velocity": 0.5433070866141733,
                    "duration": 0.37273275000000083
                },
                {
                    "name": "G#4",
                    "midi": 68,
                    "time": 27.706467750000048,
                    "velocity": 0.3228346456692913,
                    "duration": 0.12424425000000028
                },
                {
                    "name": "C#5",
                    "midi": 73,
                    "time": 27.706467750000048,
                    "velocity": 0.3858267716535433,
                    "duration": 0.12424425000000028
                },
                {
                    "name": "C#4",
                    "midi": 61,
                    "time": 27.830712000000048,
                    "velocity": 0.5196850393700787,
                    "duration": 0.37273275000000083
                },
                {
                    "name": "F#4",
                    "midi": 66,
                    "time": 28.20344475000005,
                    "velocity": 0.2047244094488189,
                    "duration": 0.12424425000000028
                },
                {
                    "name": "A4",
                    "midi": 69,
                    "time": 28.20344475000005,
                    "velocity": 0.2047244094488189,
                    "duration": 0.12424425000000028
                },
                {
                    "name": "C#5",
                    "midi": 73,
                    "time": 28.20344475000005,
                    "velocity": 0.33070866141732286,
                    "duration": 0.12424425000000028
                },
                {
                    "name": "D4",
                    "midi": 62,
                    "time": 28.32768900000005,
                    "velocity": 0.48031496062992124,
                    "duration": 0.12424425000000028
                },
                {
                    "name": "F#4",
                    "midi": 66,
                    "time": 28.45193325000005,
                    "velocity": 0.2047244094488189,
                    "duration": 0.12424425000000028
                },
                {
                    "name": "A4",
                    "midi": 69,
                    "time": 28.45193325000005,
                    "velocity": 0.2047244094488189,
                    "duration": 0.12424425000000028
                },
                {
                    "name": "C#5",
                    "midi": 73,
                    "time": 28.45193325000005,
                    "velocity": 0.33070866141732286,
                    "duration": 0.12424425000000028
                },
                {
                    "name": "E4",
                    "midi": 64,
                    "time": 28.57617750000005,
                    "velocity": 0.4881889763779528,
                    "duration": 0.12424425000000028
                },
                {
                    "name": "F#4",
                    "midi": 66,
                    "time": 28.70042175000005,
                    "velocity": 0.2125984251968504,
                    "duration": 0.12424425000000028
                },
                {
                    "name": "A4",
                    "midi": 69,
                    "time": 28.70042175000005,
                    "velocity": 0.2125984251968504,
                    "duration": 0.12424425000000028
                },
                {
                    "name": "C#5",
                    "midi": 73,
                    "time": 28.70042175000005,
                    "velocity": 0.33858267716535434,
                    "duration": 0.12424425000000028
                },
                {
                    "name": "C#4",
                    "midi": 61,
                    "time": 28.82466600000005,
                    "velocity": 0.49606299212598426,
                    "duration": 0.37273275000000083
                },
                {
                    "name": "A4",
                    "midi": 69,
                    "time": 29.19739875000005,
                    "velocity": 0.18110236220472442,
                    "duration": 0.12424425000000028
                },
                {
                    "name": "F4",
                    "midi": 65,
                    "time": 29.19739875000005,
                    "velocity": 0.18110236220472442,
                    "duration": 0.12424425000000028
                },
                {
                    "name": "C#5",
                    "midi": 73,
                    "time": 29.19739875000005,
                    "velocity": 0.2992125984251969,
                    "duration": 0.12424425000000028
                },
                {
                    "name": "C#4",
                    "midi": 61,
                    "time": 29.32164300000005,
                    "velocity": 0.4881889763779528,
                    "duration": 0.37273275000000083
                },
                {
                    "name": "F4",
                    "midi": 65,
                    "time": 29.694375750000052,
                    "velocity": 0.2047244094488189,
                    "duration": 0.12424425000000028
                },
                {
                    "name": "A4",
                    "midi": 69,
                    "time": 29.694375750000052,
                    "velocity": 0.2047244094488189,
                    "duration": 0.12424425000000028
                },
                {
                    "name": "C#5",
                    "midi": 73,
                    "time": 29.694375750000052,
                    "velocity": 0.33070866141732286,
                    "duration": 0.12424425000000028
                },
                {
                    "name": "C#4",
                    "midi": 61,
                    "time": 29.818620000000053,
                    "velocity": 0.4881889763779528,
                    "duration": 1.115092143750001
                },
                {
                    "name": "F#4",
                    "midi": 66,
                    "time": 30.315597000000054,
                    "velocity": 0.33858267716535434,
                    "duration": 0.12424425000000028
                },
                {
                    "name": "G#4",
                    "midi": 68,
                    "time": 30.439841250000054,
                    "velocity": 0.3543307086614173,
                    "duration": 0.12424425000000028
                },
                {
                    "name": "A4",
                    "midi": 69,
                    "time": 30.564085500000054,
                    "velocity": 0.36220472440944884,
                    "duration": 0.12424425000000028
                },
                {
                    "name": "C#5",
                    "midi": 73,
                    "time": 30.688329750000054,
                    "velocity": 0.3779527559055118,
                    "duration": 0.12424425000000028
                },
                {
                    "name": "F#5",
                    "midi": 78,
                    "time": 31.309551000000052,
                    "velocity": 0.36220472440944884,
                    "duration": 0.12424425000000028
                },
                {
                    "name": "G#5",
                    "midi": 80,
                    "time": 31.433795250000053,
                    "velocity": 0.3779527559055118,
                    "duration": 0.12424425000000028
                },
                {
                    "name": "A5",
                    "midi": 81,
                    "time": 31.558039500000053,
                    "velocity": 0.3937007874015748,
                    "duration": 0.12424425000000028
                },
                {
                    "name": "C#6",
                    "midi": 85,
                    "time": 31.682283750000053,
                    "velocity": 0.4094488188976378,
                    "duration": 0.12424425000000028
                },
                {
                    "name": "C5",
                    "midi": 72,
                    "time": 31.806528000000053,
                    "velocity": 0.47244094488188976,
                    "duration": 0.37273275000000083
                },
                {
                    "name": "E5",
                    "midi": 76,
                    "time": 32.179260750000054,
                    "velocity": 0.4251968503937008,
                    "duration": 0.12424424999999673
                },
                {
                    "name": "G5",
                    "midi": 79,
                    "time": 32.30350500000005,
                    "velocity": 0.4566929133858268,
                    "duration": 0.12424424999999673
                },
                {
                    "name": "C6",
                    "midi": 84,
                    "time": 32.42774925000005,
                    "velocity": 0.4251968503937008,
                    "duration": 0.12424424999999673
                },
                {
                    "name": "F#5",
                    "midi": 78,
                    "time": 32.551993500000044,
                    "velocity": 0.47244094488188976,
                    "duration": 0.12424424999999673
                },
                {
                    "name": "G5",
                    "midi": 79,
                    "time": 32.67623775000004,
                    "velocity": 0.44881889763779526,
                    "duration": 0.12424424999999673
                },
                {
                    "name": "C6",
                    "midi": 84,
                    "time": 32.67623775000004,
                    "velocity": 0.44881889763779526,
                    "duration": 0.12424424999999673
                },
                {
                    "name": "E5",
                    "midi": 76,
                    "time": 32.80048200000004,
                    "velocity": 0.49606299212598426,
                    "duration": 0.12424424999999673
                },
                {
                    "name": "G5",
                    "midi": 79,
                    "time": 32.924726250000035,
                    "velocity": 0.47244094488188976,
                    "duration": 0.12424424999999673
                },
                {
                    "name": "C6",
                    "midi": 84,
                    "time": 32.924726250000035,
                    "velocity": 0.47244094488188976,
                    "duration": 0.12424424999999673
                },
                {
                    "name": "D5",
                    "midi": 74,
                    "time": 33.04897050000003,
                    "velocity": 0.5118110236220472,
                    "duration": 0.12424424999999673
                },
                {
                    "name": "E5",
                    "midi": 76,
                    "time": 33.17321475000003,
                    "velocity": 0.49606299212598426,
                    "duration": 0.12424424999999673
                },
                {
                    "name": "G5",
                    "midi": 79,
                    "time": 33.17321475000003,
                    "velocity": 0.49606299212598426,
                    "duration": 0.12424424999999673
                },
                {
                    "name": "C5",
                    "midi": 72,
                    "time": 33.297459000000025,
                    "velocity": 0.5433070866141733,
                    "duration": 0.12424424999999673
                },
                {
                    "name": "E5",
                    "midi": 76,
                    "time": 33.42170325000002,
                    "velocity": 0.47244094488188976,
                    "duration": 0.12424424999999673
                },
                {
                    "name": "G5",
                    "midi": 79,
                    "time": 33.42170325000002,
                    "velocity": 0.47244094488188976,
                    "duration": 0.12424424999999673
                },
                {
                    "name": "B4",
                    "midi": 71,
                    "time": 33.54594750000002,
                    "velocity": 0.5433070866141733,
                    "duration": 0.12424424999999673
                },
                {
                    "name": "E5",
                    "midi": 76,
                    "time": 33.670191750000015,
                    "velocity": 0.47244094488188976,
                    "duration": 0.12424424999999673
                },
                {
                    "name": "G5",
                    "midi": 79,
                    "time": 33.670191750000015,
                    "velocity": 0.47244094488188976,
                    "duration": 0.12424424999999673
                },
                {
                    "name": "A#4",
                    "midi": 70,
                    "time": 33.79443600000001,
                    "velocity": 0.5748031496062992,
                    "duration": 0.3727327499999973
                },
                {
                    "name": "C#5",
                    "midi": 73,
                    "time": 34.16716875000001,
                    "velocity": 0.3543307086614173,
                    "duration": 0.12424424999999673
                },
                {
                    "name": "F#5",
                    "midi": 78,
                    "time": 34.16716875000001,
                    "velocity": 0.4251968503937008,
                    "duration": 0.12424424999999673
                },
                {
                    "name": "B4",
                    "midi": 71,
                    "time": 34.291413000000006,
                    "velocity": 0.5433070866141733,
                    "duration": 0.3727327499999973
                },
                {
                    "name": "D5",
                    "midi": 74,
                    "time": 34.66414575,
                    "velocity": 0.33070866141732286,
                    "duration": 0.12424424999999673
                },
                {
                    "name": "F#5",
                    "midi": 78,
                    "time": 34.66414575,
                    "velocity": 0.3937007874015748,
                    "duration": 0.12424424999999673
                },
                {
                    "name": "G#4",
                    "midi": 68,
                    "time": 34.78839,
                    "velocity": 0.5511811023622047,
                    "duration": 0.3727327499999973
                },
                {
                    "name": "B4",
                    "midi": 71,
                    "time": 35.16112275,
                    "velocity": 0.3228346456692913,
                    "duration": 0.12424424999999673
                },
                {
                    "name": "F#5",
                    "midi": 78,
                    "time": 35.16112275,
                    "velocity": 0.3858267716535433,
                    "duration": 0.12424424999999673
                },
                {
                    "name": "A#4",
                    "midi": 70,
                    "time": 35.285366999999994,
                    "velocity": 0.5433070866141733,
                    "duration": 0.3727327499999973
                },
                {
                    "name": "C#5",
                    "midi": 73,
                    "time": 35.65809974999999,
                    "velocity": 0.30708661417322836,
                    "duration": 0.12424424999999673
                },
                {
                    "name": "F#5",
                    "midi": 78,
                    "time": 35.65809974999999,
                    "velocity": 0.3700787401574803,
                    "duration": 0.12424424999999673
                },
                {
                    "name": "F#4",
                    "midi": 66,
                    "time": 35.78234399999999,
                    "velocity": 0.5196850393700787,
                    "duration": 0.3727327499999973
                },
                {
                    "name": "B4",
                    "midi": 71,
                    "time": 36.155076749999985,
                    "velocity": 0.1968503937007874,
                    "duration": 0.12424424999999673
                },
                {
                    "name": "D5",
                    "midi": 74,
                    "time": 36.155076749999985,
                    "velocity": 0.1968503937007874,
                    "duration": 0.12424424999999673
                },
                {
                    "name": "F#5",
                    "midi": 78,
                    "time": 36.155076749999985,
                    "velocity": 0.3228346456692913,
                    "duration": 0.12424424999999673
                },
                {
                    "name": "G4",
                    "midi": 67,
                    "time": 36.27932099999998,
                    "velocity": 0.4645669291338583,
                    "duration": 0.12424424999999673
                },
                {
                    "name": "B4",
                    "midi": 71,
                    "time": 36.40356524999998,
                    "velocity": 0.1889763779527559,
                    "duration": 0.12424424999999673
                },
                {
                    "name": "D5",
                    "midi": 74,
                    "time": 36.40356524999998,
                    "velocity": 0.1889763779527559,
                    "duration": 0.12424424999999673
                },
                {
                    "name": "F#5",
                    "midi": 78,
                    "time": 36.40356524999998,
                    "velocity": 0.31496062992125984,
                    "duration": 0.12424424999999673
                },
                {
                    "name": "A4",
                    "midi": 69,
                    "time": 36.527809499999975,
                    "velocity": 0.4566929133858268,
                    "duration": 0.12424424999999673
                },
                {
                    "name": "B4",
                    "midi": 71,
                    "time": 36.65205374999997,
                    "velocity": 0.1968503937007874,
                    "duration": 0.12424424999999673
                },
                {
                    "name": "D5",
                    "midi": 74,
                    "time": 36.65205374999997,
                    "velocity": 0.1968503937007874,
                    "duration": 0.12424424999999673
                },
                {
                    "name": "F#5",
                    "midi": 78,
                    "time": 36.65205374999997,
                    "velocity": 0.30708661417322836,
                    "duration": 0.12424424999999673
                },
                {
                    "name": "F#4",
                    "midi": 66,
                    "time": 36.77629799999997,
                    "velocity": 0.4566929133858268,
                    "duration": 0.3727327499999973
                },
                {
                    "name": "D5",
                    "midi": 74,
                    "time": 37.149030749999966,
                    "velocity": 0.16535433070866143,
                    "duration": 0.12424424999999673
                },
                {
                    "name": "A#4",
                    "midi": 70,
                    "time": 37.149030749999966,
                    "velocity": 0.16535433070866143,
                    "duration": 0.12424424999999673
                },
                {
                    "name": "F#5",
                    "midi": 78,
                    "time": 37.149030749999966,
                    "velocity": 0.2677165354330709,
                    "duration": 0.12424424999999673
                },
                {
                    "name": "F#4",
                    "midi": 66,
                    "time": 37.27327499999996,
                    "velocity": 0.4330708661417323,
                    "duration": 0.3727327499999973
                },
                {
                    "name": "A#4",
                    "midi": 70,
                    "time": 37.64600774999996,
                    "velocity": 0.1732283464566929,
                    "duration": 0.12424424999999673
                },
                {
                    "name": "D5",
                    "midi": 74,
                    "time": 37.64600774999996,
                    "velocity": 0.1732283464566929,
                    "duration": 0.12424424999999673
                },
                {
                    "name": "F#5",
                    "midi": 78,
                    "time": 37.64600774999996,
                    "velocity": 0.28346456692913385,
                    "duration": 0.12424424999999673
                },
                {
                    "name": "F#4",
                    "midi": 66,
                    "time": 37.77025199999996,
                    "velocity": 0.3464566929133858,
                    "duration": 0.3727327499999973
                },
                {
                    "name": "B4",
                    "midi": 71,
                    "time": 38.142984749999954,
                    "velocity": 0.15748031496062992,
                    "duration": 0.12424424999999673
                },
                {
                    "name": "D#5",
                    "midi": 75,
                    "time": 38.142984749999954,
                    "velocity": 0.15748031496062992,
                    "duration": 0.12424424999999673
                },
                {
                    "name": "F#5",
                    "midi": 78,
                    "time": 38.142984749999954,
                    "velocity": 0.25984251968503935,
                    "duration": 0.12424424999999673
                },
                {
                    "name": "G#4",
                    "midi": 68,
                    "time": 38.26722899999995,
                    "velocity": 0.30708661417322836,
                    "duration": 0.12424424999999673
                },
                {
                    "name": "B4",
                    "midi": 71,
                    "time": 38.39147324999995,
                    "velocity": 0.14960629921259844,
                    "duration": 0.12424424999999673
                },
                {
                    "name": "D#5",
                    "midi": 75,
                    "time": 38.39147324999995,
                    "velocity": 0.14960629921259844,
                    "duration": 0.12424424999999673
                },
                {
                    "name": "F#5",
                    "midi": 78,
                    "time": 38.39147324999995,
                    "velocity": 0.25196850393700787,
                    "duration": 0.12424424999999673
                },
                {
                    "name": "A#4",
                    "midi": 70,
                    "time": 38.515717499999944,
                    "velocity": 0.30708661417322836,
                    "duration": 0.12424424999999673
                },
                {
                    "name": "B4",
                    "midi": 71,
                    "time": 38.63996174999994,
                    "velocity": 0.15748031496062992,
                    "duration": 0.12424424999999673
                },
                {
                    "name": "D#5",
                    "midi": 75,
                    "time": 38.63996174999994,
                    "velocity": 0.15748031496062992,
                    "duration": 0.12424424999999673
                },
                {
                    "name": "F#5",
                    "midi": 78,
                    "time": 38.63996174999994,
                    "velocity": 0.25196850393700787,
                    "duration": 0.12424424999999673
                },
                {
                    "name": "F#4",
                    "midi": 66,
                    "time": 38.76420599999994,
                    "velocity": 0.30708661417322836,
                    "duration": 0.3727327499999973
                },
                {
                    "name": "D#5",
                    "midi": 75,
                    "time": 39.136938749999935,
                    "velocity": 0.13385826771653545,
                    "duration": 0.12424424999999673
                },
                {
                    "name": "A#4",
                    "midi": 70,
                    "time": 39.136938749999935,
                    "velocity": 0.13385826771653545,
                    "duration": 0.12424424999999673
                },
                {
                    "name": "F#5",
                    "midi": 78,
                    "time": 39.136938749999935,
                    "velocity": 0.2204724409448819,
                    "duration": 0.12424424999999673
                },
                {
                    "name": "F#4",
                    "midi": 66,
                    "time": 39.26118299999993,
                    "velocity": 0.2992125984251969,
                    "duration": 0.3727327499999973
                },
                {
                    "name": "A#4",
                    "midi": 70,
                    "time": 39.63391574999993,
                    "velocity": 0.13385826771653545,
                    "duration": 0.12424424999999673
                },
                {
                    "name": "D#5",
                    "midi": 75,
                    "time": 39.63391574999993,
                    "velocity": 0.13385826771653545,
                    "duration": 0.12424424999999673
                },
                {
                    "name": "F#5",
                    "midi": 78,
                    "time": 39.63391574999993,
                    "velocity": 0.2283464566929134,
                    "duration": 0.12424424999999673
                },
                {
                    "name": "F#4",
                    "midi": 66,
                    "time": 39.758159999999926,
                    "velocity": 0.3464566929133858,
                    "duration": 0.993953999999988
                },
                {
                    "name": "B4",
                    "midi": 71,
                    "time": 40.25513699999993,
                    "velocity": 0.23622047244094488,
                    "duration": 0.12424424999999673
                },
                {
                    "name": "C#5",
                    "midi": 73,
                    "time": 40.37938124999992,
                    "velocity": 0.25196850393700787,
                    "duration": 0.12424424999999673
                },
                {
                    "name": "D#5",
                    "midi": 75,
                    "time": 40.50362549999992,
                    "velocity": 0.25984251968503935,
                    "duration": 0.12424424999999673
                },
                {
                    "name": "F#5",
                    "midi": 78,
                    "time": 40.62786974999992,
                    "velocity": 0.2677165354330709,
                    "duration": 0.12424424999999673
                },
                {
                    "name": "F#4",
                    "midi": 66,
                    "time": 40.752113999999914,
                    "velocity": 0.3464566929133858,
                    "duration": 0.993953999999988
                },
                {
                    "name": "B4",
                    "midi": 71,
                    "time": 41.249090999999915,
                    "velocity": 0.29133858267716534,
                    "duration": 0.12424424999999673
                },
                {
                    "name": "C#5",
                    "midi": 73,
                    "time": 41.37333524999991,
                    "velocity": 0.30708661417322836,
                    "duration": 0.12424424999999673
                },
                {
                    "name": "D#5",
                    "midi": 75,
                    "time": 41.49757949999991,
                    "velocity": 0.3228346456692913,
                    "duration": 0.12424424999999673
                },
                {
                    "name": "F#5",
                    "midi": 78,
                    "time": 41.621823749999905,
                    "velocity": 0.3464566929133858,
                    "duration": 0.12424424999999673
                },
                {
                    "name": "F#5",
                    "midi": 78,
                    "time": 41.7460679999999,
                    "velocity": 0.3858267716535433,
                    "duration": 0.993953999999988
                },
                {
                    "name": "D5",
                    "midi": 74,
                    "time": 42.2430449999999,
                    "velocity": 0.33858267716535434,
                    "duration": 0.12424424999999673
                },
                {
                    "name": "C#5",
                    "midi": 73,
                    "time": 42.3672892499999,
                    "velocity": 0.3228346456692913,
                    "duration": 0.12424424999999673
                },
                {
                    "name": "B4",
                    "midi": 71,
                    "time": 42.491533499999896,
                    "velocity": 0.31496062992125984,
                    "duration": 0.12424424999999673
                },
                {
                    "name": "F#4",
                    "midi": 66,
                    "time": 42.61577774999989,
                    "velocity": 0.30708661417322836,
                    "duration": 0.12424424999999673
                },
                {
                    "name": "F#5",
                    "midi": 78,
                    "time": 42.74002199999989,
                    "velocity": 0.3858267716535433,
                    "duration": 0.993953999999988
                },
                {
                    "name": "D5",
                    "midi": 74,
                    "time": 43.23699899999989,
                    "velocity": 0.33858267716535434,
                    "duration": 0.12424424999999673
                },
                {
                    "name": "C#5",
                    "midi": 73,
                    "time": 43.36124324999989,
                    "velocity": 0.3228346456692913,
                    "duration": 0.12424424999999673
                },
                {
                    "name": "B4",
                    "midi": 71,
                    "time": 43.485487499999884,
                    "velocity": 0.31496062992125984,
                    "duration": 0.12424424999999673
                },
                {
                    "name": "G4",
                    "midi": 67,
                    "time": 43.60973174999988,
                    "velocity": 0.30708661417322836,
                    "duration": 0.12424424999999673
                },
                {
                    "name": "F#5",
                    "midi": 78,
                    "time": 43.73397599999988,
                    "velocity": 0.4094488188976378,
                    "duration": 0.3727327499999973
                },
                {
                    "name": "G#4",
                    "midi": 68,
                    "time": 44.106708749999875,
                    "velocity": 0.3464566929133858,
                    "duration": 0.12424424999999673
                },
                {
                    "name": "A4",
                    "midi": 69,
                    "time": 44.23095299999987,
                    "velocity": 0.36220472440944884,
                    "duration": 0.12424424999999673
                },
                {
                    "name": "A#4",
                    "midi": 70,
                    "time": 44.35519724999987,
                    "velocity": 0.3779527559055118,
                    "duration": 0.12424424999999673
                },
                {
                    "name": "B4",
                    "midi": 71,
                    "time": 44.479441499999865,
                    "velocity": 0.3858267716535433,
                    "duration": 0.12424424999999673
                },
                {
                    "name": "C5",
                    "midi": 72,
                    "time": 44.60368574999986,
                    "velocity": 0.4015748031496063,
                    "duration": 0.12424424999999673
                },
                {
                    "name": "C#5",
                    "midi": 73,
                    "time": 44.72792999999986,
                    "velocity": 0.41732283464566927,
                    "duration": 0.12424424999999673
                },
                {
                    "name": "D5",
                    "midi": 74,
                    "time": 44.852174249999855,
                    "velocity": 0.4330708661417323,
                    "duration": 0.12424424999999673
                },
                {
                    "name": "D#5",
                    "midi": 75,
                    "time": 44.97641849999985,
                    "velocity": 0.44881889763779526,
                    "duration": 0.12424424999999673
                },
                {
                    "name": "E5",
                    "midi": 76,
                    "time": 45.10066274999985,
                    "velocity": 0.4645669291338583,
                    "duration": 0.12424424999999673
                },
                {
                    "name": "A5",
                    "midi": 81,
                    "time": 45.224906999999845,
                    "velocity": 0.5118110236220472,
                    "duration": 0.12424424999999673
                },
                {
                    "name": "E5",
                    "midi": 76,
                    "time": 45.34915124999984,
                    "velocity": 0.4566929133858268,
                    "duration": 0.12424424999999673
                },
                {
                    "name": "C#5",
                    "midi": 73,
                    "time": 45.47339549999984,
                    "velocity": 0.4881889763779528,
                    "duration": 0.12424424999999673
                },
                {
                    "name": "A4",
                    "midi": 69,
                    "time": 45.597639749999836,
                    "velocity": 0.4566929133858268,
                    "duration": 0.12424424999999673
                },
                {
                    "name": "G4",
                    "midi": 67,
                    "time": 45.72188399999983,
                    "velocity": 0.5354330708661418,
                    "duration": 0.3727327499999973
                },
                {
                    "name": "E5",
                    "midi": 76,
                    "time": 46.09461674999983,
                    "velocity": 0.41732283464566927,
                    "duration": 0.12424424999999673
                },
                {
                    "name": "G#4",
                    "midi": 68,
                    "time": 46.218860999999826,
                    "velocity": 0.5433070866141733,
                    "duration": 0.3727327499999973
                },
                {
                    "name": "E5",
                    "midi": 76,
                    "time": 46.591593749999824,
                    "velocity": 0.4094488188976378,
                    "duration": 0.12424424999999673
                },
                {
                    "name": "G4",
                    "midi": 67,
                    "time": 46.71583799999982,
                    "velocity": 0.5511811023622047,
                    "duration": 0.3727327499999973
                },
                {
                    "name": "E5",
                    "midi": 76,
                    "time": 47.08857074999982,
                    "velocity": 0.3937007874015748,
                    "duration": 0.12424424999999673
                },
                {
                    "name": "G#4",
                    "midi": 68,
                    "time": 47.212814999999814,
                    "velocity": 0.5433070866141733,
                    "duration": 0.3727327499999973
                },
                {
                    "name": "F5",
                    "midi": 77,
                    "time": 47.58554774999981,
                    "velocity": 0.36220472440944884,
                    "duration": 0.12424424999999673
                },
                {
                    "name": "F#5",
                    "midi": 78,
                    "time": 47.70979199999981,
                    "velocity": 0.5275590551181102,
                    "duration": 0.3727327499999973
                },
                {
                    "name": "G#4",
                    "midi": 68,
                    "time": 48.082524749999806,
                    "velocity": 0.4251968503937008,
                    "duration": 0.12424424999999673
                },
                {
                    "name": "A4",
                    "midi": 69,
                    "time": 48.2067689999998,
                    "velocity": 0.41732283464566927,
                    "duration": 0.12424424999999673
                },
                {
                    "name": "A#4",
                    "midi": 70,
                    "time": 48.3310132499998,
                    "velocity": 0.4251968503937008,
                    "duration": 0.12424424999999673
                },
                {
                    "name": "B4",
                    "midi": 71,
                    "time": 48.455257499999796,
                    "velocity": 0.4330708661417323,
                    "duration": 0.12424424999999673
                },
                {
                    "name": "C5",
                    "midi": 72,
                    "time": 48.57950174999979,
                    "velocity": 0.44881889763779526,
                    "duration": 0.12424424999999673
                },
                {
                    "name": "C#5",
                    "midi": 73,
                    "time": 48.70374599999979,
                    "velocity": 0.4566929133858268,
                    "duration": 0.12424424999999673
                },
                {
                    "name": "D5",
                    "midi": 74,
                    "time": 48.827990249999786,
                    "velocity": 0.47244094488188976,
                    "duration": 0.12424424999999673
                },
                {
                    "name": "D#5",
                    "midi": 75,
                    "time": 48.95223449999978,
                    "velocity": 0.48031496062992124,
                    "duration": 0.12424424999999673
                },
                {
                    "name": "E5",
                    "midi": 76,
                    "time": 49.07647874999978,
                    "velocity": 0.49606299212598426,
                    "duration": 0.12424424999999673
                },
                {
                    "name": "A5",
                    "midi": 81,
                    "time": 49.200722999999776,
                    "velocity": 0.5433070866141733,
                    "duration": 0.12424424999999673
                },
                {
                    "name": "E5",
                    "midi": 76,
                    "time": 49.32496724999977,
                    "velocity": 0.47244094488188976,
                    "duration": 0.12424424999999673
                },
                {
                    "name": "C#5",
                    "midi": 73,
                    "time": 49.44921149999977,
                    "velocity": 0.4881889763779528,
                    "duration": 0.12424424999999673
                },
                {
                    "name": "A4",
                    "midi": 69,
                    "time": 49.573455749999766,
                    "velocity": 0.47244094488188976,
                    "duration": 0.12424424999999673
                },
                {
                    "name": "C#6",
                    "midi": 85,
                    "time": 49.69769999999976,
                    "velocity": 0.5984251968503937,
                    "duration": 0.3727327499999973
                },
                {
                    "name": "D#5",
                    "midi": 75,
                    "time": 50.07043274999976,
                    "velocity": 0.47244094488188976,
                    "duration": 0.12424424999999673
                },
                {
                    "name": "E5",
                    "midi": 76,
                    "time": 50.19467699999976,
                    "velocity": 0.4566929133858268,
                    "duration": 0.12424424999999673
                },
                {
                    "name": "F5",
                    "midi": 77,
                    "time": 50.318921249999754,
                    "velocity": 0.4645669291338583,
                    "duration": 0.12424424999999673
                },
                {
                    "name": "F#5",
                    "midi": 78,
                    "time": 50.44316549999975,
                    "velocity": 0.48031496062992124,
                    "duration": 0.12424424999999673
                },
                {
                    "name": "G5",
                    "midi": 79,
                    "time": 50.56740974999975,
                    "velocity": 0.4881889763779528,
                    "duration": 0.12424424999999673
                },
                {
                    "name": "G#5",
                    "midi": 80,
                    "time": 50.691653999999744,
                    "velocity": 0.5039370078740157,
                    "duration": 0.12424424999999673
                },
                {
                    "name": "A5",
                    "midi": 81,
                    "time": 50.81589824999974,
                    "velocity": 0.5196850393700787,
                    "duration": 0.12424424999999673
                },
                {
                    "name": "A#5",
                    "midi": 82,
                    "time": 50.94014249999974,
                    "velocity": 0.5275590551181102,
                    "duration": 0.12424424999999673
                },
                {
                    "name": "B5",
                    "midi": 83,
                    "time": 51.064386749999734,
                    "velocity": 0.5433070866141733,
                    "duration": 0.12424424999999673
                },
                {
                    "name": "E6",
                    "midi": 88,
                    "time": 51.18863099999973,
                    "velocity": 0.6141732283464567,
                    "duration": 0.12424424999999673
                },
                {
                    "name": "B5",
                    "midi": 83,
                    "time": 51.31287524999973,
                    "velocity": 0.5275590551181102,
                    "duration": 0.12424424999999673
                },
                {
                    "name": "G#5",
                    "midi": 80,
                    "time": 51.437119499999724,
                    "velocity": 0.5669291338582677,
                    "duration": 0.12424424999999673
                },
                {
                    "name": "E5",
                    "midi": 76,
                    "time": 51.56136374999972,
                    "velocity": 0.5118110236220472,
                    "duration": 0.12424424999999673
                },
                {
                    "name": "F#6",
                    "midi": 90,
                    "time": 51.68560799999972,
                    "velocity": 0.7086614173228346,
                    "duration": 0.3727327499999973
                },
                {
                    "name": "G#5",
                    "midi": 80,
                    "time": 52.058340749999715,
                    "velocity": 0.5196850393700787,
                    "duration": 0.12424424999999673
                },
                {
                    "name": "A5",
                    "midi": 81,
                    "time": 52.18258499999971,
                    "velocity": 0.5196850393700787,
                    "duration": 0.12424424999999673
                },
                {
                    "name": "A#5",
                    "midi": 82,
                    "time": 52.30682924999971,
                    "velocity": 0.5275590551181102,
                    "duration": 0.12424424999999673
                },
                {
                    "name": "B5",
                    "midi": 83,
                    "time": 52.431073499999705,
                    "velocity": 0.5433070866141733,
                    "duration": 0.12424424999999673
                },
                {
                    "name": "C6",
                    "midi": 84,
                    "time": 52.5553177499997,
                    "velocity": 0.5511811023622047,
                    "duration": 0.12424424999999673
                },
                {
                    "name": "C#6",
                    "midi": 85,
                    "time": 52.6795619999997,
                    "velocity": 0.5669291338582677,
                    "duration": 0.12424424999999673
                },
                {
                    "name": "D6",
                    "midi": 86,
                    "time": 52.803806249999695,
                    "velocity": 0.5826771653543307,
                    "duration": 0.12424424999999673
                },
                {
                    "name": "D#6",
                    "midi": 87,
                    "time": 52.92805049999969,
                    "velocity": 0.5905511811023622,
                    "duration": 0.12424424999999673
                },
                {
                    "name": "E6",
                    "midi": 88,
                    "time": 53.05229474999969,
                    "velocity": 0.6062992125984252,
                    "duration": 0.12424424999999673
                },
                {
                    "name": "A6",
                    "midi": 93,
                    "time": 53.176538999999686,
                    "velocity": 0.6850393700787402,
                    "duration": 0.12424424999999673
                },
                {
                    "name": "E6",
                    "midi": 88,
                    "time": 53.30078324999968,
                    "velocity": 0.5748031496062992,
                    "duration": 0.12424424999999673
                },
                {
                    "name": "C#6",
                    "midi": 85,
                    "time": 53.42502749999968,
                    "velocity": 0.5984251968503937,
                    "duration": 0.12424424999999673
                },
                {
                    "name": "A5",
                    "midi": 81,
                    "time": 53.549271749999676,
                    "velocity": 0.5826771653543307,
                    "duration": 0.12424424999999673
                },
                {
                    "name": "E5",
                    "midi": 76,
                    "time": 53.67351599999967,
                    "velocity": 0.6535433070866141,
                    "duration": 0.3727327499999973
                },
                {
                    "name": "C#6",
                    "midi": 85,
                    "time": 54.04624874999967,
                    "velocity": 0.4409448818897638,
                    "duration": 0.12424424999999673
                },
                {
                    "name": "C#5",
                    "midi": 73,
                    "time": 54.17049299999967,
                    "velocity": 0.5905511811023622,
                    "duration": 0.3727327499999973
                },
                {
                    "name": "A5",
                    "midi": 81,
                    "time": 54.543225749999664,
                    "velocity": 0.3937007874015748,
                    "duration": 0.12424424999999673
                },
                {
                    "name": "A4",
                    "midi": 69,
                    "time": 54.66746999999966,
                    "velocity": 0.5275590551181102,
                    "duration": 0.3727327499999973
                },
                {
                    "name": "F#5",
                    "midi": 78,
                    "time": 55.04020274999966,
                    "velocity": 0.3543307086614173,
                    "duration": 0.12424424999999673
                },
                {
                    "name": "F#4",
                    "midi": 66,
                    "time": 55.164446999999655,
                    "velocity": 0.47244094488188976,
                    "duration": 0.3727327499999973
                },
                {
                    "name": "D#5",
                    "midi": 75,
                    "time": 55.53717974999965,
                    "velocity": 0.2992125984251969,
                    "duration": 0.12424424999999673
                },
                {
                    "name": "F4",
                    "midi": 65,
                    "time": 55.66142399999965,
                    "velocity": 0.4094488188976378,
                    "duration": 0.3727327499999973
                },
                {
                    "name": "D5",
                    "midi": 74,
                    "time": 56.034156749999646,
                    "velocity": 0.2992125984251969,
                    "duration": 0.12424424999999673
                },
                {
                    "name": "D4",
                    "midi": 62,
                    "time": 56.15840099999964,
                    "velocity": 0.3858267716535433,
                    "duration": 0.3727327499999973
                },
                {
                    "name": "B4",
                    "midi": 71,
                    "time": 56.53113374999964,
                    "velocity": 0.2677165354330709,
                    "duration": 0.12424424999999673
                },
                {
                    "name": "C#4",
                    "midi": 61,
                    "time": 56.65537799999964,
                    "velocity": 0.36220472440944884,
                    "duration": 0.3727327499999973
                },
                {
                    "name": "A4",
                    "midi": 69,
                    "time": 57.028110749999634,
                    "velocity": 0.28346456692913385,
                    "duration": 0.12424424999999673
                },
                {
                    "name": "G4",
                    "midi": 67,
                    "time": 57.64933199999963,
                    "velocity": 0.47244094488188976,
                    "duration": 0.3727327499999973
                },
                {
                    "name": "B4",
                    "midi": 71,
                    "time": 58.02206474999963,
                    "velocity": 0.4251968503937008,
                    "duration": 0.12424424999999673
                },
                {
                    "name": "D5",
                    "midi": 74,
                    "time": 58.146308999999626,
                    "velocity": 0.4566929133858268,
                    "duration": 0.12424424999999673
                },
                {
                    "name": "G5",
                    "midi": 79,
                    "time": 58.27055324999962,
                    "velocity": 0.4251968503937008,
                    "duration": 0.12424424999999673
                },
                {
                    "name": "C#5",
                    "midi": 73,
                    "time": 58.39479749999962,
                    "velocity": 0.47244094488188976,
                    "duration": 0.12424424999999673
                },
                {
                    "name": "D5",
                    "midi": 74,
                    "time": 58.519041749999616,
                    "velocity": 0.44881889763779526,
                    "duration": 0.12424424999999673
                },
                {
                    "name": "G5",
                    "midi": 79,
                    "time": 58.519041749999616,
                    "velocity": 0.44881889763779526,
                    "duration": 0.12424424999999673
                },
                {
                    "name": "B4",
                    "midi": 71,
                    "time": 58.64328599999961,
                    "velocity": 0.49606299212598426,
                    "duration": 0.12424424999999673
                },
                {
                    "name": "D5",
                    "midi": 74,
                    "time": 58.76753024999961,
                    "velocity": 0.47244094488188976,
                    "duration": 0.12424424999999673
                },
                {
                    "name": "G5",
                    "midi": 79,
                    "time": 58.76753024999961,
                    "velocity": 0.47244094488188976,
                    "duration": 0.12424424999999673
                },
                {
                    "name": "A4",
                    "midi": 69,
                    "time": 58.891774499999606,
                    "velocity": 0.5118110236220472,
                    "duration": 0.12424424999999673
                },
                {
                    "name": "B4",
                    "midi": 71,
                    "time": 59.0160187499996,
                    "velocity": 0.49606299212598426,
                    "duration": 0.12424424999999673
                },
                {
                    "name": "D5",
                    "midi": 74,
                    "time": 59.0160187499996,
                    "velocity": 0.49606299212598426,
                    "duration": 0.12424424999999673
                },
                {
                    "name": "G4",
                    "midi": 67,
                    "time": 59.1402629999996,
                    "velocity": 0.5433070866141733,
                    "duration": 0.12424424999999673
                },
                {
                    "name": "B4",
                    "midi": 71,
                    "time": 59.264507249999596,
                    "velocity": 0.47244094488188976,
                    "duration": 0.12424424999999673
                },
                {
                    "name": "D5",
                    "midi": 74,
                    "time": 59.264507249999596,
                    "velocity": 0.47244094488188976,
                    "duration": 0.12424424999999673
                },
                {
                    "name": "F#4",
                    "midi": 66,
                    "time": 59.38875149999959,
                    "velocity": 0.5433070866141733,
                    "duration": 0.12424424999999673
                },
                {
                    "name": "B4",
                    "midi": 71,
                    "time": 59.51299574999959,
                    "velocity": 0.47244094488188976,
                    "duration": 0.12424424999999673
                },
                {
                    "name": "D5",
                    "midi": 74,
                    "time": 59.51299574999959,
                    "velocity": 0.47244094488188976,
                    "duration": 0.12424424999999673
                },
                {
                    "name": "F4",
                    "midi": 65,
                    "time": 59.637239999999586,
                    "velocity": 0.5748031496062992,
                    "duration": 0.3727327499999973
                },
                {
                    "name": "G#4",
                    "midi": 68,
                    "time": 60.009972749999584,
                    "velocity": 0.3858267716535433,
                    "duration": 0.12424424999999673
                },
                {
                    "name": "C#5",
                    "midi": 73,
                    "time": 60.009972749999584,
                    "velocity": 0.4566929133858268,
                    "duration": 0.12424424999999673
                },
                {
                    "name": "F#4",
                    "midi": 66,
                    "time": 60.13421699999958,
                    "velocity": 0.5433070866141733,
                    "duration": 0.3727327499999973
                },
                {
                    "name": "A4",
                    "midi": 69,
                    "time": 60.50694974999958,
                    "velocity": 0.3779527559055118,
                    "duration": 0.12424424999999673
                },
                {
                    "name": "C#5",
                    "midi": 73,
                    "time": 60.50694974999958,
                    "velocity": 0.44881889763779526,
                    "duration": 0.12424424999999673
                },
                {
                    "name": "D#4",
                    "midi": 63,
                    "time": 60.631193999999574,
                    "velocity": 0.5511811023622047,
                    "duration": 0.3727327499999973
                },
                {
                    "name": "F#4",
                    "midi": 66,
                    "time": 61.00392674999957,
                    "velocity": 0.3700787401574803,
                    "duration": 0.12424424999999673
                },
                {
                    "name": "C#5",
                    "midi": 73,
                    "time": 61.00392674999957,
                    "velocity": 0.4409448818897638,
                    "duration": 0.12424424999999673
                },
                {
                    "name": "F4",
                    "midi": 65,
                    "time": 61.12817099999957,
                    "velocity": 0.5433070866141733,
                    "duration": 0.3727327499999973
                },
                {
                    "name": "G#4",
                    "midi": 68,
                    "time": 61.500903749999566,
                    "velocity": 0.3464566929133858,
                    "duration": 0.12424424999999673
                },
                {
                    "name": "C#5",
                    "midi": 73,
                    "time": 61.500903749999566,
                    "velocity": 0.4094488188976378,
                    "duration": 0.12424424999999673
                },
                {
                    "name": "C#4",
                    "midi": 61,
                    "time": 61.62514799999956,
                    "velocity": 0.5196850393700787,
                    "duration": 0.3727327499999973
                },
                {
                    "name": "F#4",
                    "midi": 66,
                    "time": 61.99788074999956,
                    "velocity": 0.2047244094488189,
                    "duration": 0.12424424999999673
                },
                {
                    "name": "A4",
                    "midi": 69,
                    "time": 61.99788074999956,
                    "velocity": 0.2047244094488189,
                    "duration": 0.12424424999999673
                },
                {
                    "name": "C#5",
                    "midi": 73,
                    "time": 61.99788074999956,
                    "velocity": 0.33070866141732286,
                    "duration": 0.12424424999999673
                },
                {
                    "name": "D4",
                    "midi": 62,
                    "time": 62.122124999999556,
                    "velocity": 0.4015748031496063,
                    "duration": 0.12424424999999673
                },
                {
                    "name": "F#4",
                    "midi": 66,
                    "time": 62.24636924999955,
                    "velocity": 0.2047244094488189,
                    "duration": 0.12424424999999673
                },
                {
                    "name": "A4",
                    "midi": 69,
                    "time": 62.24636924999955,
                    "velocity": 0.2047244094488189,
                    "duration": 0.12424424999999673
                },
                {
                    "name": "C#5",
                    "midi": 73,
                    "time": 62.24636924999955,
                    "velocity": 0.33070866141732286,
                    "duration": 0.12424424999999673
                },
                {
                    "name": "E4",
                    "midi": 64,
                    "time": 62.37061349999955,
                    "velocity": 0.4881889763779528,
                    "duration": 0.12424424999999673
                },
                {
                    "name": "F#4",
                    "midi": 66,
                    "time": 62.49485774999955,
                    "velocity": 0.2125984251968504,
                    "duration": 0.12424424999999673
                },
                {
                    "name": "A4",
                    "midi": 69,
                    "time": 62.49485774999955,
                    "velocity": 0.2125984251968504,
                    "duration": 0.12424424999999673
                },
                {
                    "name": "C#5",
                    "midi": 73,
                    "time": 62.49485774999955,
                    "velocity": 0.33858267716535434,
                    "duration": 0.12424424999999673
                },
                {
                    "name": "C#4",
                    "midi": 61,
                    "time": 62.61910199999954,
                    "velocity": 0.49606299212598426,
                    "duration": 0.3727327499999973
                },
                {
                    "name": "A4",
                    "midi": 69,
                    "time": 62.99183474999954,
                    "velocity": 0.18110236220472442,
                    "duration": 0.12424424999999673
                },
                {
                    "name": "F4",
                    "midi": 65,
                    "time": 62.99183474999954,
                    "velocity": 0.18110236220472442,
                    "duration": 0.12424424999999673
                },
                {
                    "name": "C#5",
                    "midi": 73,
                    "time": 62.99183474999954,
                    "velocity": 0.2992125984251969,
                    "duration": 0.12424424999999673
                },
                {
                    "name": "C#4",
                    "midi": 61,
                    "time": 63.11607899999954,
                    "velocity": 0.4881889763779528,
                    "duration": 0.3727327499999973
                },
                {
                    "name": "F4",
                    "midi": 65,
                    "time": 63.488811749999535,
                    "velocity": 0.2047244094488189,
                    "duration": 0.12424424999999673
                },
                {
                    "name": "A4",
                    "midi": 69,
                    "time": 63.488811749999535,
                    "velocity": 0.2047244094488189,
                    "duration": 0.12424424999999673
                },
                {
                    "name": "C#5",
                    "midi": 73,
                    "time": 63.488811749999535,
                    "velocity": 0.33070866141732286,
                    "duration": 0.12424424999999673
                },
                {
                    "name": "C#4",
                    "midi": 61,
                    "time": 63.61305599999953,
                    "velocity": 0.4881889763779528,
                    "duration": 1.1150921437500187
                },
                {
                    "name": "F#4",
                    "midi": 66,
                    "time": 64.11003299999953,
                    "velocity": 0.33858267716535434,
                    "duration": 0.12424425000000383
                },
                {
                    "name": "G#4",
                    "midi": 68,
                    "time": 64.23427724999954,
                    "velocity": 0.3543307086614173,
                    "duration": 0.12424425000000383
                },
                {
                    "name": "A4",
                    "midi": 69,
                    "time": 64.35852149999954,
                    "velocity": 0.36220472440944884,
                    "duration": 0.12424425000000383
                },
                {
                    "name": "C#5",
                    "midi": 73,
                    "time": 64.48276574999954,
                    "velocity": 0.3779527559055118,
                    "duration": 0.12424425000000383
                },
                {
                    "name": "F#5",
                    "midi": 78,
                    "time": 65.10398699999955,
                    "velocity": 0.36220472440944884,
                    "duration": 0.12424425000000383
                },
                {
                    "name": "G#5",
                    "midi": 80,
                    "time": 65.22823124999955,
                    "velocity": 0.3779527559055118,
                    "duration": 0.12424425000000383
                },
                {
                    "name": "A5",
                    "midi": 81,
                    "time": 65.35247549999956,
                    "velocity": 0.3937007874015748,
                    "duration": 0.12424425000000383
                },
                {
                    "name": "C#6",
                    "midi": 85,
                    "time": 65.47671974999956,
                    "velocity": 0.4094488188976378,
                    "duration": 0.12424425000000383
                },
                {
                    "name": "C5",
                    "midi": 72,
                    "time": 65.60096399999956,
                    "velocity": 0.47244094488188976,
                    "duration": 0.3727327499999973
                },
                {
                    "name": "E5",
                    "midi": 76,
                    "time": 65.97369674999956,
                    "velocity": 0.4251968503937008,
                    "duration": 0.12424425000000383
                },
                {
                    "name": "G5",
                    "midi": 79,
                    "time": 66.09794099999957,
                    "velocity": 0.4566929133858268,
                    "duration": 0.12424425000000383
                },
                {
                    "name": "C6",
                    "midi": 84,
                    "time": 66.22218524999957,
                    "velocity": 0.4251968503937008,
                    "duration": 0.12424425000000383
                },
                {
                    "name": "F#5",
                    "midi": 78,
                    "time": 66.34642949999957,
                    "velocity": 0.47244094488188976,
                    "duration": 0.12424425000000383
                },
                {
                    "name": "G5",
                    "midi": 79,
                    "time": 66.47067374999958,
                    "velocity": 0.44881889763779526,
                    "duration": 0.12424425000000383
                },
                {
                    "name": "C6",
                    "midi": 84,
                    "time": 66.47067374999958,
                    "velocity": 0.44881889763779526,
                    "duration": 0.12424425000000383
                },
                {
                    "name": "E5",
                    "midi": 76,
                    "time": 66.59491799999958,
                    "velocity": 0.49606299212598426,
                    "duration": 0.12424425000000383
                },
                {
                    "name": "G5",
                    "midi": 79,
                    "time": 66.71916224999958,
                    "velocity": 0.47244094488188976,
                    "duration": 0.12424425000000383
                },
                {
                    "name": "C6",
                    "midi": 84,
                    "time": 66.71916224999958,
                    "velocity": 0.47244094488188976,
                    "duration": 0.12424425000000383
                },
                {
                    "name": "D5",
                    "midi": 74,
                    "time": 66.84340649999959,
                    "velocity": 0.5118110236220472,
                    "duration": 0.12424425000000383
                },
                {
                    "name": "E5",
                    "midi": 76,
                    "time": 66.96765074999959,
                    "velocity": 0.49606299212598426,
                    "duration": 0.12424425000000383
                },
                {
                    "name": "G5",
                    "midi": 79,
                    "time": 66.96765074999959,
                    "velocity": 0.49606299212598426,
                    "duration": 0.12424425000000383
                },
                {
                    "name": "C5",
                    "midi": 72,
                    "time": 67.0918949999996,
                    "velocity": 0.5433070866141733,
                    "duration": 0.12424425000000383
                },
                {
                    "name": "E5",
                    "midi": 76,
                    "time": 67.2161392499996,
                    "velocity": 0.47244094488188976,
                    "duration": 0.12424425000000383
                },
                {
                    "name": "G5",
                    "midi": 79,
                    "time": 67.2161392499996,
                    "velocity": 0.47244094488188976,
                    "duration": 0.12424425000000383
                },
                {
                    "name": "B4",
                    "midi": 71,
                    "time": 67.3403834999996,
                    "velocity": 0.5433070866141733,
                    "duration": 0.12424425000000383
                },
                {
                    "name": "E5",
                    "midi": 76,
                    "time": 67.46462774999961,
                    "velocity": 0.47244094488188976,
                    "duration": 0.12424425000000383
                },
                {
                    "name": "G5",
                    "midi": 79,
                    "time": 67.46462774999961,
                    "velocity": 0.47244094488188976,
                    "duration": 0.12424425000000383
                },
                {
                    "name": "A#4",
                    "midi": 70,
                    "time": 67.58887199999961,
                    "velocity": 0.5748031496062992,
                    "duration": 0.3727327499999973
                },
                {
                    "name": "C#5",
                    "midi": 73,
                    "time": 67.96160474999961,
                    "velocity": 0.36220472440944884,
                    "duration": 0.12424425000000383
                },
                {
                    "name": "F#5",
                    "midi": 78,
                    "time": 67.96160474999961,
                    "velocity": 0.4330708661417323,
                    "duration": 0.12424425000000383
                },
                {
                    "name": "B4",
                    "midi": 71,
                    "time": 68.08584899999961,
                    "velocity": 0.5433070866141733,
                    "duration": 0.3727327499999973
                },
                {
                    "name": "D5",
                    "midi": 74,
                    "time": 68.45858174999961,
                    "velocity": 0.33858267716535434,
                    "duration": 0.12424425000000383
                },
                {
                    "name": "F#5",
                    "midi": 78,
                    "time": 68.45858174999961,
                    "velocity": 0.4015748031496063,
                    "duration": 0.12424425000000383
                },
                {
                    "name": "G#4",
                    "midi": 68,
                    "time": 68.58282599999961,
                    "velocity": 0.5511811023622047,
                    "duration": 0.3727327499999973
                },
                {
                    "name": "B4",
                    "midi": 71,
                    "time": 68.95555874999961,
                    "velocity": 0.33858267716535434,
                    "duration": 0.12424425000000383
                },
                {
                    "name": "F#5",
                    "midi": 78,
                    "time": 68.95555874999961,
                    "velocity": 0.4015748031496063,
                    "duration": 0.12424425000000383
                },
                {
                    "name": "A#4",
                    "midi": 70,
                    "time": 69.07980299999961,
                    "velocity": 0.5433070866141733,
                    "duration": 0.3727327499999973
                },
                {
                    "name": "C#5",
                    "midi": 73,
                    "time": 69.45253574999961,
                    "velocity": 0.3228346456692913,
                    "duration": 0.12424425000000383
                },
                {
                    "name": "F#5",
                    "midi": 78,
                    "time": 69.45253574999961,
                    "velocity": 0.3858267716535433,
                    "duration": 0.12424425000000383
                },
                {
                    "name": "F#4",
                    "midi": 66,
                    "time": 69.57677999999962,
                    "velocity": 0.5196850393700787,
                    "duration": 0.3727327499999973
                },
                {
                    "name": "B4",
                    "midi": 71,
                    "time": 69.94951274999961,
                    "velocity": 0.2047244094488189,
                    "duration": 0.12424425000000383
                },
                {
                    "name": "D5",
                    "midi": 74,
                    "time": 69.94951274999961,
                    "velocity": 0.2047244094488189,
                    "duration": 0.12424425000000383
                },
                {
                    "name": "F#5",
                    "midi": 78,
                    "time": 69.94951274999961,
                    "velocity": 0.33070866141732286,
                    "duration": 0.12424425000000383
                },
                {
                    "name": "G4",
                    "midi": 67,
                    "time": 70.07375699999962,
                    "velocity": 0.47244094488188976,
                    "duration": 0.12424425000000383
                },
                {
                    "name": "B4",
                    "midi": 71,
                    "time": 70.19800124999962,
                    "velocity": 0.1968503937007874,
                    "duration": 0.12424425000000383
                },
                {
                    "name": "D5",
                    "midi": 74,
                    "time": 70.19800124999962,
                    "velocity": 0.1968503937007874,
                    "duration": 0.12424425000000383
                },
                {
                    "name": "F#5",
                    "midi": 78,
                    "time": 70.19800124999962,
                    "velocity": 0.3228346456692913,
                    "duration": 0.12424425000000383
                },
                {
                    "name": "A4",
                    "midi": 69,
                    "time": 70.32224549999962,
                    "velocity": 0.47244094488188976,
                    "duration": 0.12424425000000383
                },
                {
                    "name": "B4",
                    "midi": 71,
                    "time": 70.44648974999963,
                    "velocity": 0.1968503937007874,
                    "duration": 0.12424425000000383
                },
                {
                    "name": "D5",
                    "midi": 74,
                    "time": 70.44648974999963,
                    "velocity": 0.1968503937007874,
                    "duration": 0.12424425000000383
                },
                {
                    "name": "F#5",
                    "midi": 78,
                    "time": 70.44648974999963,
                    "velocity": 0.31496062992125984,
                    "duration": 0.12424425000000383
                },
                {
                    "name": "F#4",
                    "midi": 66,
                    "time": 70.57073399999963,
                    "velocity": 0.4645669291338583,
                    "duration": 0.3727327499999973
                },
                {
                    "name": "D5",
                    "midi": 74,
                    "time": 70.94346674999963,
                    "velocity": 0.16535433070866143,
                    "duration": 0.12424425000000383
                },
                {
                    "name": "A#4",
                    "midi": 70,
                    "time": 70.94346674999963,
                    "velocity": 0.16535433070866143,
                    "duration": 0.12424425000000383
                },
                {
                    "name": "F#5",
                    "midi": 78,
                    "time": 70.94346674999963,
                    "velocity": 0.2677165354330709,
                    "duration": 0.12424425000000383
                },
                {
                    "name": "F#4",
                    "midi": 66,
                    "time": 71.06771099999963,
                    "velocity": 0.4330708661417323,
                    "duration": 0.3727327499999973
                },
                {
                    "name": "A#4",
                    "midi": 70,
                    "time": 71.44044374999963,
                    "velocity": 0.1732283464566929,
                    "duration": 0.12424425000000383
                },
                {
                    "name": "D5",
                    "midi": 74,
                    "time": 71.44044374999963,
                    "velocity": 0.1732283464566929,
                    "duration": 0.12424425000000383
                },
                {
                    "name": "F#5",
                    "midi": 78,
                    "time": 71.44044374999963,
                    "velocity": 0.28346456692913385,
                    "duration": 0.12424425000000383
                },
                {
                    "name": "F#4",
                    "midi": 66,
                    "time": 71.56468799999963,
                    "velocity": 0.3464566929133858,
                    "duration": 0.3727327499999973
                },
                {
                    "name": "B4",
                    "midi": 71,
                    "time": 71.93742074999963,
                    "velocity": 0.15748031496062992,
                    "duration": 0.12424425000000383
                },
                {
                    "name": "D#5",
                    "midi": 75,
                    "time": 71.93742074999963,
                    "velocity": 0.15748031496062992,
                    "duration": 0.12424425000000383
                },
                {
                    "name": "F#5",
                    "midi": 78,
                    "time": 71.93742074999963,
                    "velocity": 0.25984251968503935,
                    "duration": 0.12424425000000383
                },
                {
                    "name": "G#4",
                    "midi": 68,
                    "time": 72.06166499999964,
                    "velocity": 0.30708661417322836,
                    "duration": 0.12424425000000383
                },
                {
                    "name": "B4",
                    "midi": 71,
                    "time": 72.18590924999964,
                    "velocity": 0.14960629921259844,
                    "duration": 0.12424425000000383
                },
                {
                    "name": "D#5",
                    "midi": 75,
                    "time": 72.18590924999964,
                    "velocity": 0.14960629921259844,
                    "duration": 0.12424425000000383
                },
                {
                    "name": "F#5",
                    "midi": 78,
                    "time": 72.18590924999964,
                    "velocity": 0.25196850393700787,
                    "duration": 0.12424425000000383
                },
                {
                    "name": "A#4",
                    "midi": 70,
                    "time": 72.31015349999964,
                    "velocity": 0.30708661417322836,
                    "duration": 0.12424425000000383
                },
                {
                    "name": "B4",
                    "midi": 71,
                    "time": 72.43439774999965,
                    "velocity": 0.15748031496062992,
                    "duration": 0.12424425000000383
                },
                {
                    "name": "D#5",
                    "midi": 75,
                    "time": 72.43439774999965,
                    "velocity": 0.15748031496062992,
                    "duration": 0.12424425000000383
                },
                {
                    "name": "F#5",
                    "midi": 78,
                    "time": 72.43439774999965,
                    "velocity": 0.25196850393700787,
                    "duration": 0.12424425000000383
                },
                {
                    "name": "F#4",
                    "midi": 66,
                    "time": 72.55864199999965,
                    "velocity": 0.30708661417322836,
                    "duration": 0.3727327499999973
                },
                {
                    "name": "D#5",
                    "midi": 75,
                    "time": 72.93137474999965,
                    "velocity": 0.13385826771653545,
                    "duration": 0.12424425000000383
                },
                {
                    "name": "A#4",
                    "midi": 70,
                    "time": 72.93137474999965,
                    "velocity": 0.13385826771653545,
                    "duration": 0.12424425000000383
                },
                {
                    "name": "F#5",
                    "midi": 78,
                    "time": 72.93137474999965,
                    "velocity": 0.2204724409448819,
                    "duration": 0.12424425000000383
                },
                {
                    "name": "F#4",
                    "midi": 66,
                    "time": 73.05561899999965,
                    "velocity": 0.2992125984251969,
                    "duration": 0.3727327499999973
                },
                {
                    "name": "A#4",
                    "midi": 70,
                    "time": 73.42835174999965,
                    "velocity": 0.13385826771653545,
                    "duration": 0.12424425000000383
                },
                {
                    "name": "D#5",
                    "midi": 75,
                    "time": 73.42835174999965,
                    "velocity": 0.13385826771653545,
                    "duration": 0.12424425000000383
                },
                {
                    "name": "F#5",
                    "midi": 78,
                    "time": 73.42835174999965,
                    "velocity": 0.2283464566929134,
                    "duration": 0.12424425000000383
                },
                {
                    "name": "F#4",
                    "midi": 66,
                    "time": 73.55259599999965,
                    "velocity": 0.3464566929133858,
                    "duration": 0.9939540000000164
                },
                {
                    "name": "B4",
                    "midi": 71,
                    "time": 74.04957299999965,
                    "velocity": 0.23622047244094488,
                    "duration": 0.12424425000000383
                },
                {
                    "name": "C#5",
                    "midi": 73,
                    "time": 74.17381724999966,
                    "velocity": 0.25196850393700787,
                    "duration": 0.12424425000000383
                },
                {
                    "name": "D#5",
                    "midi": 75,
                    "time": 74.29806149999966,
                    "velocity": 0.25984251968503935,
                    "duration": 0.12424425000000383
                },
                {
                    "name": "F#5",
                    "midi": 78,
                    "time": 74.42230574999967,
                    "velocity": 0.2677165354330709,
                    "duration": 0.12424425000000383
                },
                {
                    "name": "F#4",
                    "midi": 66,
                    "time": 74.54654999999967,
                    "velocity": 0.3464566929133858,
                    "duration": 0.9939540000000164
                },
                {
                    "name": "B4",
                    "midi": 71,
                    "time": 75.04352699999967,
                    "velocity": 0.29133858267716534,
                    "duration": 0.12424425000000383
                },
                {
                    "name": "C#5",
                    "midi": 73,
                    "time": 75.16777124999967,
                    "velocity": 0.30708661417322836,
                    "duration": 0.12424425000000383
                },
                {
                    "name": "D#5",
                    "midi": 75,
                    "time": 75.29201549999968,
                    "velocity": 0.3228346456692913,
                    "duration": 0.12424425000000383
                },
                {
                    "name": "F#5",
                    "midi": 78,
                    "time": 75.41625974999968,
                    "velocity": 0.3464566929133858,
                    "duration": 0.11389056250000351
                },
                {
                    "name": "F#5",
                    "midi": 78,
                    "time": 75.54050399999969,
                    "velocity": 0.3858267716535433,
                    "duration": 0.9939540000000164
                },
                {
                    "name": "D5",
                    "midi": 74,
                    "time": 76.03748099999969,
                    "velocity": 0.33858267716535434,
                    "duration": 0.12424425000000383
                },
                {
                    "name": "C#5",
                    "midi": 73,
                    "time": 76.16172524999969,
                    "velocity": 0.3228346456692913,
                    "duration": 0.12424425000000383
                },
                {
                    "name": "B4",
                    "midi": 71,
                    "time": 76.2859694999997,
                    "velocity": 0.31496062992125984,
                    "duration": 0.12424425000000383
                },
                {
                    "name": "F#4",
                    "midi": 66,
                    "time": 76.4102137499997,
                    "velocity": 0.30708661417322836,
                    "duration": 0.12424425000000383
                },
                {
                    "name": "F#5",
                    "midi": 78,
                    "time": 76.5344579999997,
                    "velocity": 0.3858267716535433,
                    "duration": 0.9939540000000164
                },
                {
                    "name": "D5",
                    "midi": 74,
                    "time": 77.0314349999997,
                    "velocity": 0.33858267716535434,
                    "duration": 0.12424425000000383
                },
                {
                    "name": "C#5",
                    "midi": 73,
                    "time": 77.15567924999971,
                    "velocity": 0.3228346456692913,
                    "duration": 0.12424425000000383
                },
                {
                    "name": "B4",
                    "midi": 71,
                    "time": 77.27992349999971,
                    "velocity": 0.31496062992125984,
                    "duration": 0.12424425000000383
                },
                {
                    "name": "G4",
                    "midi": 67,
                    "time": 77.40416774999971,
                    "velocity": 0.30708661417322836,
                    "duration": 0.12424425000000383
                },
                {
                    "name": "F#5",
                    "midi": 78,
                    "time": 77.52841199999972,
                    "velocity": 0.3858267716535433,
                    "duration": 0.3727327499999973
                },
                {
                    "name": "G#4",
                    "midi": 68,
                    "time": 77.90114474999972,
                    "velocity": 0.33070866141732286,
                    "duration": 0.12424425000000383
                },
                {
                    "name": "A4",
                    "midi": 69,
                    "time": 78.02538899999972,
                    "velocity": 0.33858267716535434,
                    "duration": 0.12424425000000383
                },
                {
                    "name": "A#4",
                    "midi": 70,
                    "time": 78.14963324999972,
                    "velocity": 0.3543307086614173,
                    "duration": 0.12424425000000383
                },
                {
                    "name": "B4",
                    "midi": 71,
                    "time": 78.27387749999973,
                    "velocity": 0.3700787401574803,
                    "duration": 0.12424425000000383
                },
                {
                    "name": "C5",
                    "midi": 72,
                    "time": 78.39812174999973,
                    "velocity": 0.3858267716535433,
                    "duration": 0.12424425000000383
                },
                {
                    "name": "C#5",
                    "midi": 73,
                    "time": 78.52236599999974,
                    "velocity": 0.3937007874015748,
                    "duration": 0.12424425000000383
                },
                {
                    "name": "D5",
                    "midi": 74,
                    "time": 78.64661024999974,
                    "velocity": 0.4094488188976378,
                    "duration": 0.12424425000000383
                },
                {
                    "name": "D#5",
                    "midi": 75,
                    "time": 78.77085449999974,
                    "velocity": 0.4251968503937008,
                    "duration": 0.12424425000000383
                },
                {
                    "name": "E5",
                    "midi": 76,
                    "time": 78.89509874999975,
                    "velocity": 0.4409448818897638,
                    "duration": 0.12424425000000383
                },
                {
                    "name": "A5",
                    "midi": 81,
                    "time": 79.01934299999975,
                    "velocity": 0.4881889763779528,
                    "duration": 0.12424425000000383
                },
                {
                    "name": "E5",
                    "midi": 76,
                    "time": 79.14358724999975,
                    "velocity": 0.4330708661417323,
                    "duration": 0.12424425000000383
                },
                {
                    "name": "C#5",
                    "midi": 73,
                    "time": 79.26783149999976,
                    "velocity": 0.4881889763779528,
                    "duration": 0.12424425000000383
                },
                {
                    "name": "A4",
                    "midi": 69,
                    "time": 79.39207574999976,
                    "velocity": 0.4566929133858268,
                    "duration": 0.12424425000000383
                },
                {
                    "name": "G4",
                    "midi": 67,
                    "time": 79.51631999999977,
                    "velocity": 0.5354330708661418,
                    "duration": 0.3727327499999973
                },
                {
                    "name": "E5",
                    "midi": 76,
                    "time": 79.88905274999976,
                    "velocity": 0.4251968503937008,
                    "duration": 0.12424425000000383
                },
                {
                    "name": "G#4",
                    "midi": 68,
                    "time": 80.01329699999977,
                    "velocity": 0.5433070866141733,
                    "duration": 0.3727327499999973
                },
                {
                    "name": "E5",
                    "midi": 76,
                    "time": 80.38602974999976,
                    "velocity": 0.41732283464566927,
                    "duration": 0.12424425000000383
                },
                {
                    "name": "G4",
                    "midi": 67,
                    "time": 80.51027399999977,
                    "velocity": 0.5511811023622047,
                    "duration": 0.3727327499999973
                },
                {
                    "name": "E5",
                    "midi": 76,
                    "time": 80.88300674999977,
                    "velocity": 0.41732283464566927,
                    "duration": 0.12424425000000383
                },
                {
                    "name": "G#4",
                    "midi": 68,
                    "time": 81.00725099999977,
                    "velocity": 0.5433070866141733,
                    "duration": 0.3727327499999973
                },
                {
                    "name": "F5",
                    "midi": 77,
                    "time": 81.37998374999977,
                    "velocity": 0.3937007874015748,
                    "duration": 0.12424425000000383
                },
                {
                    "name": "F#5",
                    "midi": 78,
                    "time": 81.50422799999977,
                    "velocity": 0.5275590551181102,
                    "duration": 0.3727327499999973
                },
                {
                    "name": "G#4",
                    "midi": 68,
                    "time": 81.87696074999977,
                    "velocity": 0.4251968503937008,
                    "duration": 0.12424425000000383
                },
                {
                    "name": "A4",
                    "midi": 69,
                    "time": 82.00120499999977,
                    "velocity": 0.41732283464566927,
                    "duration": 0.12424425000000383
                },
                {
                    "name": "A#4",
                    "midi": 70,
                    "time": 82.12544924999978,
                    "velocity": 0.4251968503937008,
                    "duration": 0.12424425000000383
                },
                {
                    "name": "B4",
                    "midi": 71,
                    "time": 82.24969349999978,
                    "velocity": 0.4330708661417323,
                    "duration": 0.12424425000000383
                },
                {
                    "name": "C5",
                    "midi": 72,
                    "time": 82.37393774999978,
                    "velocity": 0.44881889763779526,
                    "duration": 0.12424425000000383
                },
                {
                    "name": "C#5",
                    "midi": 73,
                    "time": 82.49818199999979,
                    "velocity": 0.4566929133858268,
                    "duration": 0.12424425000000383
                },
                {
                    "name": "D5",
                    "midi": 74,
                    "time": 82.62242624999979,
                    "velocity": 0.47244094488188976,
                    "duration": 0.12424425000000383
                },
                {
                    "name": "D#5",
                    "midi": 75,
                    "time": 82.7466704999998,
                    "velocity": 0.48031496062992124,
                    "duration": 0.12424425000000383
                },
                {
                    "name": "E5",
                    "midi": 76,
                    "time": 82.8709147499998,
                    "velocity": 0.49606299212598426,
                    "duration": 0.12424425000000383
                },
                {
                    "name": "A5",
                    "midi": 81,
                    "time": 82.9951589999998,
                    "velocity": 0.5433070866141733,
                    "duration": 0.12424425000000383
                },
                {
                    "name": "E5",
                    "midi": 76,
                    "time": 83.1194032499998,
                    "velocity": 0.47244094488188976,
                    "duration": 0.12424425000000383
                },
                {
                    "name": "C#5",
                    "midi": 73,
                    "time": 83.24364749999981,
                    "velocity": 0.4881889763779528,
                    "duration": 0.12424425000000383
                },
                {
                    "name": "A4",
                    "midi": 69,
                    "time": 83.36789174999981,
                    "velocity": 0.47244094488188976,
                    "duration": 0.12424425000000383
                },
                {
                    "name": "C#6",
                    "midi": 85,
                    "time": 83.49213599999982,
                    "velocity": 0.5984251968503937,
                    "duration": 0.3727327499999973
                },
                {
                    "name": "D#5",
                    "midi": 75,
                    "time": 83.86486874999981,
                    "velocity": 0.47244094488188976,
                    "duration": 0.12424425000000383
                },
                {
                    "name": "E5",
                    "midi": 76,
                    "time": 83.98911299999982,
                    "velocity": 0.4566929133858268,
                    "duration": 0.12424425000000383
                },
                {
                    "name": "F5",
                    "midi": 77,
                    "time": 84.11335724999982,
                    "velocity": 0.4645669291338583,
                    "duration": 0.12424425000000383
                },
                {
                    "name": "F#5",
                    "midi": 78,
                    "time": 84.23760149999983,
                    "velocity": 0.48031496062992124,
                    "duration": 0.12424425000000383
                },
                {
                    "name": "G5",
                    "midi": 79,
                    "time": 84.36184574999983,
                    "velocity": 0.4881889763779528,
                    "duration": 0.12424425000000383
                },
                {
                    "name": "G#5",
                    "midi": 80,
                    "time": 84.48608999999983,
                    "velocity": 0.5039370078740157,
                    "duration": 0.12424425000000383
                },
                {
                    "name": "A5",
                    "midi": 81,
                    "time": 84.61033424999984,
                    "velocity": 0.5196850393700787,
                    "duration": 0.12424425000000383
                },
                {
                    "name": "A#5",
                    "midi": 82,
                    "time": 84.73457849999984,
                    "velocity": 0.5275590551181102,
                    "duration": 0.12424425000000383
                },
                {
                    "name": "B5",
                    "midi": 83,
                    "time": 84.85882274999985,
                    "velocity": 0.5433070866141733,
                    "duration": 0.12424425000000383
                },
                {
                    "name": "E6",
                    "midi": 88,
                    "time": 84.98306699999985,
                    "velocity": 0.6141732283464567,
                    "duration": 0.12424425000000383
                },
                {
                    "name": "B5",
                    "midi": 83,
                    "time": 85.10731124999985,
                    "velocity": 0.5275590551181102,
                    "duration": 0.12424425000000383
                },
                {
                    "name": "G#5",
                    "midi": 80,
                    "time": 85.23155549999986,
                    "velocity": 0.5826771653543307,
                    "duration": 0.12424425000000383
                },
                {
                    "name": "E5",
                    "midi": 76,
                    "time": 85.35579974999986,
                    "velocity": 0.5118110236220472,
                    "duration": 0.12424425000000383
                },
                {
                    "name": "F#6",
                    "midi": 90,
                    "time": 85.48004399999986,
                    "velocity": 0.7086614173228346,
                    "duration": 0.3727327499999973
                },
                {
                    "name": "G#5",
                    "midi": 80,
                    "time": 85.85277674999986,
                    "velocity": 0.5511811023622047,
                    "duration": 0.12424425000000383
                },
                {
                    "name": "A5",
                    "midi": 81,
                    "time": 85.97702099999987,
                    "velocity": 0.5511811023622047,
                    "duration": 0.12424425000000383
                },
                {
                    "name": "A#5",
                    "midi": 82,
                    "time": 86.10126524999987,
                    "velocity": 0.5590551181102362,
                    "duration": 0.12424425000000383
                },
                {
                    "name": "B5",
                    "midi": 83,
                    "time": 86.22550949999987,
                    "velocity": 0.5669291338582677,
                    "duration": 0.12424425000000383
                },
                {
                    "name": "C6",
                    "midi": 84,
                    "time": 86.34975374999988,
                    "velocity": 0.5826771653543307,
                    "duration": 0.12424425000000383
                },
                {
                    "name": "C#6",
                    "midi": 85,
                    "time": 86.47399799999988,
                    "velocity": 0.5905511811023622,
                    "duration": 0.12424425000000383
                },
                {
                    "name": "D6",
                    "midi": 86,
                    "time": 86.59824224999988,
                    "velocity": 0.6062992125984252,
                    "duration": 0.12424425000000383
                },
                {
                    "name": "D#6",
                    "midi": 87,
                    "time": 86.72248649999989,
                    "velocity": 0.6062992125984252,
                    "duration": 0.12424425000000383
                },
                {
                    "name": "E6",
                    "midi": 88,
                    "time": 86.84673074999989,
                    "velocity": 0.6062992125984252,
                    "duration": 0.12424425000000383
                },
                {
                    "name": "A6",
                    "midi": 93,
                    "time": 86.9709749999999,
                    "velocity": 0.7086614173228346,
                    "duration": 0.12424425000000383
                },
                {
                    "name": "E6",
                    "midi": 88,
                    "time": 87.0952192499999,
                    "velocity": 0.6299212598425197,
                    "duration": 0.12424425000000383
                },
                {
                    "name": "C#6",
                    "midi": 85,
                    "time": 87.2194634999999,
                    "velocity": 0.6535433070866141,
                    "duration": 0.12424425000000383
                },
                {
                    "name": "A5",
                    "midi": 81,
                    "time": 87.34370774999991,
                    "velocity": 0.6220472440944882,
                    "duration": 0.12424425000000383
                },
                {
                    "name": "E5",
                    "midi": 76,
                    "time": 87.46795199999991,
                    "velocity": 0.7086614173228346,
                    "duration": 0.3727327499999973
                },
                {
                    "name": "C#6",
                    "midi": 85,
                    "time": 87.84068474999991,
                    "velocity": 0.5196850393700787,
                    "duration": 0.12424425000000383
                },
                {
                    "name": "C#5",
                    "midi": 73,
                    "time": 87.96492899999991,
                    "velocity": 0.6614173228346457,
                    "duration": 0.3727327499999973
                },
                {
                    "name": "A5",
                    "midi": 81,
                    "time": 88.33766174999991,
                    "velocity": 0.48031496062992124,
                    "duration": 0.12424425000000383
                },
                {
                    "name": "A4",
                    "midi": 69,
                    "time": 88.46190599999991,
                    "velocity": 0.5511811023622047,
                    "duration": 0.3727327499999973
                },
                {
                    "name": "F#5",
                    "midi": 78,
                    "time": 88.83463874999991,
                    "velocity": 0.4015748031496063,
                    "duration": 0.12424425000000383
                },
                {
                    "name": "F#4",
                    "midi": 66,
                    "time": 88.95888299999991,
                    "velocity": 0.5039370078740157,
                    "duration": 0.3727327499999973
                },
                {
                    "name": "D#5",
                    "midi": 75,
                    "time": 89.33161574999991,
                    "velocity": 0.33070866141732286,
                    "duration": 0.12424425000000383
                },
                {
                    "name": "F4",
                    "midi": 65,
                    "time": 89.45585999999992,
                    "velocity": 0.44881889763779526,
                    "duration": 0.3727327499999973
                },
                {
                    "name": "D5",
                    "midi": 74,
                    "time": 89.82859274999991,
                    "velocity": 0.33858267716535434,
                    "duration": 0.12424425000000383
                },
                {
                    "name": "D4",
                    "midi": 62,
                    "time": 89.95283699999992,
                    "velocity": 0.4330708661417323,
                    "duration": 0.3727327499999973
                },
                {
                    "name": "B4",
                    "midi": 71,
                    "time": 90.32556974999991,
                    "velocity": 0.30708661417322836,
                    "duration": 0.12424425000000383
                },
                {
                    "name": "E4",
                    "midi": 64,
                    "time": 91.44376799999992,
                    "velocity": 0.47244094488188976,
                    "duration": 0.3727327499999973
                },
                {
                    "name": "C#5",
                    "midi": 73,
                    "time": 91.81650074999992,
                    "velocity": 0.2992125984251969,
                    "duration": 0.12424425000000383
                },
                {
                    "name": "C#4",
                    "midi": 61,
                    "time": 91.94074499999992,
                    "velocity": 0.41732283464566927,
                    "duration": 0.3727327499999973
                },
                {
                    "name": "A4",
                    "midi": 69,
                    "time": 92.31347774999992,
                    "velocity": 0.2755905511811024,
                    "duration": 0.12424425000000383
                },
                {
                    "name": "A3",
                    "midi": 57,
                    "time": 92.43772199999992,
                    "velocity": 0.3937007874015748,
                    "duration": 0.3727327499999973
                },
                {
                    "name": "F#4",
                    "midi": 66,
                    "time": 92.81045474999992,
                    "velocity": 0.28346456692913385,
                    "duration": 0.12424425000000383
                },
                {
                    "name": "F#3",
                    "midi": 54,
                    "time": 92.93469899999992,
                    "velocity": 0.36220472440944884,
                    "duration": 0.3727327499999973
                },
                {
                    "name": "D#4",
                    "midi": 63,
                    "time": 93.30743174999992,
                    "velocity": 0.2283464566929134,
                    "duration": 0.12424425000000383
                },
                {
                    "name": "F3",
                    "midi": 53,
                    "time": 93.43167599999992,
                    "velocity": 0.33070866141732286,
                    "duration": 0.3727327499999973
                },
                {
                    "name": "D4",
                    "midi": 62,
                    "time": 93.80440874999992,
                    "velocity": 0.2283464566929134,
                    "duration": 0.12424425000000383
                },
                {
                    "name": "D3",
                    "midi": 50,
                    "time": 93.92865299999993,
                    "velocity": 0.31496062992125984,
                    "duration": 0.3727327499999973
                },
                {
                    "name": "B3",
                    "midi": 59,
                    "time": 94.30138574999992,
                    "velocity": 0.2125984251968504,
                    "duration": 0.12424425000000383
                },
                {
                    "name": "C#3",
                    "midi": 49,
                    "time": 94.42562999999993,
                    "velocity": 0.28346456692913385,
                    "duration": 0.3727327499999973
                },
                {
                    "name": "A3",
                    "midi": 57,
                    "time": 94.79836274999992,
                    "velocity": 0.2204724409448819,
                    "duration": 0.12424425000000383
                }
            ],
            "controlChanges": {},
            "id": 1,
            "name": "Piano right",
            "instrumentNumber": 0,
            "instrument": "acoustic grand piano",
            "instrumentFamily": "piano",
            "channelNumber": 0,
            "isPercussion": false
        },
        {
            "startTime": 0.12424425,
            "duration": 95.17109550000009,
            "length": 339,
            "notes": [
                {
                    "name": "D3",
                    "midi": 50,
                    "time": 0.12424425,
                    "velocity": 0.28346456692913385,
                    "duration": 0.12424425
                },
                {
                    "name": "G#3",
                    "midi": 56,
                    "time": 0.2484885,
                    "velocity": 0.28346456692913385,
                    "duration": 0.12424425
                },
                {
                    "name": "B3",
                    "midi": 59,
                    "time": 0.37273275,
                    "velocity": 0.28346456692913385,
                    "duration": 0.12424425
                },
                {
                    "name": "F#4",
                    "midi": 66,
                    "time": 0.496977,
                    "velocity": 0.3543307086614173,
                    "duration": 0.12424425000000006
                },
                {
                    "name": "C#3",
                    "midi": 49,
                    "time": 1.61517525,
                    "velocity": 0.31496062992125984,
                    "duration": 0.12424425000000006
                },
                {
                    "name": "A3",
                    "midi": 57,
                    "time": 1.7394195000000001,
                    "velocity": 0.3464566929133858,
                    "duration": 0.12424425000000006
                },
                {
                    "name": "E4",
                    "midi": 64,
                    "time": 1.8636637500000002,
                    "velocity": 0.31496062992125984,
                    "duration": 0.12424425000000006
                },
                {
                    "name": "A#2",
                    "midi": 46,
                    "time": 2.1121522500000003,
                    "velocity": 0.31496062992125984,
                    "duration": 0.12424424999999983
                },
                {
                    "name": "E3",
                    "midi": 52,
                    "time": 2.2363965,
                    "velocity": 0.33858267716535434,
                    "duration": 0.12424424999999983
                },
                {
                    "name": "C#4",
                    "midi": 61,
                    "time": 2.36064075,
                    "velocity": 0.31496062992125984,
                    "duration": 0.12424424999999983
                },
                {
                    "name": "B2",
                    "midi": 47,
                    "time": 2.6091292499999996,
                    "velocity": 0.31496062992125984,
                    "duration": 0.12424424999999983
                },
                {
                    "name": "E3",
                    "midi": 52,
                    "time": 2.7333734999999995,
                    "velocity": 0.33858267716535434,
                    "duration": 0.12424424999999983
                },
                {
                    "name": "D4",
                    "midi": 62,
                    "time": 2.8576177499999993,
                    "velocity": 0.31496062992125984,
                    "duration": 0.12424424999999983
                },
                {
                    "name": "A#2",
                    "midi": 46,
                    "time": 3.106106249999999,
                    "velocity": 0.2992125984251969,
                    "duration": 0.12424424999999983
                },
                {
                    "name": "E3",
                    "midi": 52,
                    "time": 3.230350499999999,
                    "velocity": 0.36220472440944884,
                    "duration": 0.12424424999999983
                },
                {
                    "name": "C#4",
                    "midi": 61,
                    "time": 3.3545947499999986,
                    "velocity": 0.2992125984251969,
                    "duration": 0.12424424999999983
                },
                {
                    "name": "B2",
                    "midi": 47,
                    "time": 3.6030832499999983,
                    "velocity": 0.2992125984251969,
                    "duration": 0.12424424999999983
                },
                {
                    "name": "E3",
                    "midi": 52,
                    "time": 3.727327499999998,
                    "velocity": 0.3464566929133858,
                    "duration": 0.12424424999999983
                },
                {
                    "name": "D4",
                    "midi": 62,
                    "time": 3.851571749999998,
                    "velocity": 0.2992125984251969,
                    "duration": 0.12424424999999983
                },
                {
                    "name": "D3",
                    "midi": 50,
                    "time": 4.100060249999998,
                    "velocity": 0.28346456692913385,
                    "duration": 0.12424425000000028
                },
                {
                    "name": "G#3",
                    "midi": 56,
                    "time": 4.224304499999998,
                    "velocity": 0.28346456692913385,
                    "duration": 0.12424425000000028
                },
                {
                    "name": "B3",
                    "midi": 59,
                    "time": 4.348548749999998,
                    "velocity": 0.28346456692913385,
                    "duration": 0.12424425000000028
                },
                {
                    "name": "F#4",
                    "midi": 66,
                    "time": 4.4727929999999985,
                    "velocity": 0.3543307086614173,
                    "duration": 0.12424425000000028
                },
                {
                    "name": "C#3",
                    "midi": 49,
                    "time": 5.590991249999998,
                    "velocity": 0.31496062992125984,
                    "duration": 0.12424425000000028
                },
                {
                    "name": "A3",
                    "midi": 57,
                    "time": 5.715235499999999,
                    "velocity": 0.3464566929133858,
                    "duration": 0.12424425000000028
                },
                {
                    "name": "E4",
                    "midi": 64,
                    "time": 5.839479749999999,
                    "velocity": 0.31496062992125984,
                    "duration": 0.12424425000000028
                },
                {
                    "name": "A3",
                    "midi": 57,
                    "time": 6.087968249999999,
                    "velocity": 0.30708661417322836,
                    "duration": 0.12424425000000028
                },
                {
                    "name": "D#4",
                    "midi": 63,
                    "time": 6.2122125,
                    "velocity": 0.30708661417322836,
                    "duration": 0.12424425000000028
                },
                {
                    "name": "F#4",
                    "midi": 66,
                    "time": 6.33645675,
                    "velocity": 0.31496062992125984,
                    "duration": 0.12424425000000028
                },
                {
                    "name": "C#5",
                    "midi": 73,
                    "time": 6.460701,
                    "velocity": 0.3937007874015748,
                    "duration": 0.12424425000000028
                },
                {
                    "name": "G#3",
                    "midi": 56,
                    "time": 7.578899250000001,
                    "velocity": 0.3779527559055118,
                    "duration": 0.12424425000000028
                },
                {
                    "name": "E4",
                    "midi": 64,
                    "time": 7.703143500000001,
                    "velocity": 0.4251968503937008,
                    "duration": 0.12424425000000028
                },
                {
                    "name": "B4",
                    "midi": 71,
                    "time": 7.8273877500000015,
                    "velocity": 0.3858267716535433,
                    "duration": 0.12217351249999986
                },
                {
                    "name": "B2",
                    "midi": 47,
                    "time": 8.075876250000002,
                    "velocity": 0.3543307086614173,
                    "duration": 0.12424425000000028
                },
                {
                    "name": "G#3",
                    "midi": 56,
                    "time": 8.200120500000002,
                    "velocity": 0.3779527559055118,
                    "duration": 0.12424425000000028
                },
                {
                    "name": "E4",
                    "midi": 64,
                    "time": 8.324364750000003,
                    "velocity": 0.3464566929133858,
                    "duration": 0.12424425000000028
                },
                {
                    "name": "B2",
                    "midi": 47,
                    "time": 9.069830250000003,
                    "velocity": 0.28346456692913385,
                    "duration": 0.12424425000000028
                },
                {
                    "name": "G3",
                    "midi": 55,
                    "time": 9.194074500000003,
                    "velocity": 0.33070866141732286,
                    "duration": 0.12424425000000028
                },
                {
                    "name": "E4",
                    "midi": 64,
                    "time": 9.318318750000003,
                    "velocity": 0.2677165354330709,
                    "duration": 0.12424425000000028
                },
                {
                    "name": "B2",
                    "midi": 47,
                    "time": 10.063784250000003,
                    "velocity": 0.2440944881889764,
                    "duration": 0.12424425000000028
                },
                {
                    "name": "F#3",
                    "midi": 54,
                    "time": 10.188028500000003,
                    "velocity": 0.25196850393700787,
                    "duration": 0.12424425000000028
                },
                {
                    "name": "D#4",
                    "midi": 63,
                    "time": 10.312272750000004,
                    "velocity": 0.2283464566929134,
                    "duration": 0.12424425000000028
                },
                {
                    "name": "E2",
                    "midi": 40,
                    "time": 11.057738250000003,
                    "velocity": 0.1889763779527559,
                    "duration": 0.12424425000000028
                },
                {
                    "name": "B2",
                    "midi": 47,
                    "time": 11.181982500000004,
                    "velocity": 0.23622047244094488,
                    "duration": 0.12424425000000028
                },
                {
                    "name": "E1",
                    "midi": 28,
                    "time": 11.430471000000004,
                    "velocity": 0.2992125984251969,
                    "duration": 0.12424425000000028
                },
                {
                    "name": "D3",
                    "midi": 50,
                    "time": 12.051692250000004,
                    "velocity": 0.28346456692913385,
                    "duration": 0.12424425000000028
                },
                {
                    "name": "G#3",
                    "midi": 56,
                    "time": 12.175936500000004,
                    "velocity": 0.28346456692913385,
                    "duration": 0.12424425000000028
                },
                {
                    "name": "B3",
                    "midi": 59,
                    "time": 12.300180750000004,
                    "velocity": 0.28346456692913385,
                    "duration": 0.12424425000000028
                },
                {
                    "name": "F#4",
                    "midi": 66,
                    "time": 12.424425000000005,
                    "velocity": 0.3543307086614173,
                    "duration": 0.12424425000000028
                },
                {
                    "name": "C#3",
                    "midi": 49,
                    "time": 13.542623250000005,
                    "velocity": 0.31496062992125984,
                    "duration": 0.12424425000000028
                },
                {
                    "name": "A3",
                    "midi": 57,
                    "time": 13.666867500000006,
                    "velocity": 0.3464566929133858,
                    "duration": 0.12424425000000028
                },
                {
                    "name": "E4",
                    "midi": 64,
                    "time": 13.791111750000006,
                    "velocity": 0.31496062992125984,
                    "duration": 0.12424425000000028
                },
                {
                    "name": "A#2",
                    "midi": 46,
                    "time": 14.039600250000007,
                    "velocity": 0.31496062992125984,
                    "duration": 0.12424425000000028
                },
                {
                    "name": "E3",
                    "midi": 52,
                    "time": 14.163844500000007,
                    "velocity": 0.33858267716535434,
                    "duration": 0.12424425000000028
                },
                {
                    "name": "C#4",
                    "midi": 61,
                    "time": 14.288088750000007,
                    "velocity": 0.31496062992125984,
                    "duration": 0.12424425000000028
                },
                {
                    "name": "B2",
                    "midi": 47,
                    "time": 14.536577250000008,
                    "velocity": 0.31496062992125984,
                    "duration": 0.12424425000000028
                },
                {
                    "name": "E3",
                    "midi": 52,
                    "time": 14.660821500000008,
                    "velocity": 0.33858267716535434,
                    "duration": 0.12424425000000028
                },
                {
                    "name": "D4",
                    "midi": 62,
                    "time": 14.785065750000008,
                    "velocity": 0.31496062992125984,
                    "duration": 0.12424425000000028
                },
                {
                    "name": "A#2",
                    "midi": 46,
                    "time": 15.033554250000009,
                    "velocity": 0.2992125984251969,
                    "duration": 0.12424425000000028
                },
                {
                    "name": "E3",
                    "midi": 52,
                    "time": 15.157798500000009,
                    "velocity": 0.36220472440944884,
                    "duration": 0.12424425000000028
                },
                {
                    "name": "C#4",
                    "midi": 61,
                    "time": 15.28204275000001,
                    "velocity": 0.2992125984251969,
                    "duration": 0.12424425000000028
                },
                {
                    "name": "B2",
                    "midi": 47,
                    "time": 15.53053125000001,
                    "velocity": 0.2992125984251969,
                    "duration": 0.12424425000000028
                },
                {
                    "name": "E3",
                    "midi": 52,
                    "time": 15.65477550000001,
                    "velocity": 0.3464566929133858,
                    "duration": 0.12424425000000028
                },
                {
                    "name": "D4",
                    "midi": 62,
                    "time": 15.77901975000001,
                    "velocity": 0.2992125984251969,
                    "duration": 0.12424425000000028
                },
                {
                    "name": "D3",
                    "midi": 50,
                    "time": 16.02750825000001,
                    "velocity": 0.28346456692913385,
                    "duration": 0.12424425000000028
                },
                {
                    "name": "G#3",
                    "midi": 56,
                    "time": 16.15175250000001,
                    "velocity": 0.28346456692913385,
                    "duration": 0.12424425000000028
                },
                {
                    "name": "B3",
                    "midi": 59,
                    "time": 16.27599675000001,
                    "velocity": 0.28346456692913385,
                    "duration": 0.12424425000000028
                },
                {
                    "name": "F#4",
                    "midi": 66,
                    "time": 16.400241000000012,
                    "velocity": 0.3543307086614173,
                    "duration": 0.12424425000000028
                },
                {
                    "name": "C#3",
                    "midi": 49,
                    "time": 17.51843925000001,
                    "velocity": 0.31496062992125984,
                    "duration": 0.12424425000000028
                },
                {
                    "name": "A3",
                    "midi": 57,
                    "time": 17.64268350000001,
                    "velocity": 0.3464566929133858,
                    "duration": 0.12424425000000028
                },
                {
                    "name": "E4",
                    "midi": 64,
                    "time": 17.76692775000001,
                    "velocity": 0.31496062992125984,
                    "duration": 0.12424425000000028
                },
                {
                    "name": "A3",
                    "midi": 57,
                    "time": 18.015416250000012,
                    "velocity": 0.30708661417322836,
                    "duration": 0.12424425000000028
                },
                {
                    "name": "D#4",
                    "midi": 63,
                    "time": 18.139660500000012,
                    "velocity": 0.30708661417322836,
                    "duration": 0.12424425000000028
                },
                {
                    "name": "F#4",
                    "midi": 66,
                    "time": 18.263904750000012,
                    "velocity": 0.31496062992125984,
                    "duration": 0.12424425000000028
                },
                {
                    "name": "C#5",
                    "midi": 73,
                    "time": 18.388149000000013,
                    "velocity": 0.3937007874015748,
                    "duration": 0.12424425000000028
                },
                {
                    "name": "G#3",
                    "midi": 56,
                    "time": 19.50634725000001,
                    "velocity": 0.3779527559055118,
                    "duration": 0.12424425000000028
                },
                {
                    "name": "E4",
                    "midi": 64,
                    "time": 19.630591500000012,
                    "velocity": 0.4251968503937008,
                    "duration": 0.12424425000000028
                },
                {
                    "name": "B4",
                    "midi": 71,
                    "time": 19.754835750000012,
                    "velocity": 0.3858267716535433,
                    "duration": 0.12217351250000164
                },
                {
                    "name": "B2",
                    "midi": 47,
                    "time": 20.003324250000013,
                    "velocity": 0.3543307086614173,
                    "duration": 0.12424425000000028
                },
                {
                    "name": "G#3",
                    "midi": 56,
                    "time": 20.127568500000013,
                    "velocity": 0.3779527559055118,
                    "duration": 0.12424425000000028
                },
                {
                    "name": "E4",
                    "midi": 64,
                    "time": 20.251812750000013,
                    "velocity": 0.3464566929133858,
                    "duration": 0.12424425000000028
                },
                {
                    "name": "B2",
                    "midi": 47,
                    "time": 20.997278250000015,
                    "velocity": 0.2755905511811024,
                    "duration": 0.12424425000000028
                },
                {
                    "name": "G3",
                    "midi": 55,
                    "time": 21.121522500000015,
                    "velocity": 0.33070866141732286,
                    "duration": 0.12424425000000028
                },
                {
                    "name": "E4",
                    "midi": 64,
                    "time": 21.245766750000016,
                    "velocity": 0.2677165354330709,
                    "duration": 0.12424425000000028
                },
                {
                    "name": "B2",
                    "midi": 47,
                    "time": 21.991232250000017,
                    "velocity": 0.23622047244094488,
                    "duration": 0.12424425000000028
                },
                {
                    "name": "F#3",
                    "midi": 54,
                    "time": 22.115476500000018,
                    "velocity": 0.25196850393700787,
                    "duration": 0.12424425000000028
                },
                {
                    "name": "D#4",
                    "midi": 63,
                    "time": 22.239720750000018,
                    "velocity": 0.2283464566929134,
                    "duration": 0.12424425000000028
                },
                {
                    "name": "E2",
                    "midi": 40,
                    "time": 22.98000940625002,
                    "velocity": 0.1889763779527559,
                    "duration": 0.12424425000000028
                },
                {
                    "name": "B2",
                    "midi": 47,
                    "time": 23.10943050000002,
                    "velocity": 0.2283464566929134,
                    "duration": 0.12424425000000028
                },
                {
                    "name": "E1",
                    "midi": 28,
                    "time": 23.35791900000002,
                    "velocity": 0.29133858267716534,
                    "duration": 0.12424425000000028
                },
                {
                    "name": "B2",
                    "midi": 47,
                    "time": 23.97914025000002,
                    "velocity": 0.28346456692913385,
                    "duration": 0.12424425000000028
                },
                {
                    "name": "G3",
                    "midi": 55,
                    "time": 24.103384500000022,
                    "velocity": 0.28346456692913385,
                    "duration": 0.12424425000000028
                },
                {
                    "name": "D4",
                    "midi": 62,
                    "time": 24.227628750000022,
                    "velocity": 0.28346456692913385,
                    "duration": 0.12424425000000028
                },
                {
                    "name": "C#3",
                    "midi": 49,
                    "time": 25.967048250000023,
                    "velocity": 0.31496062992125984,
                    "duration": 0.12424425000000028
                },
                {
                    "name": "B3",
                    "midi": 59,
                    "time": 26.091292500000023,
                    "velocity": 0.33858267716535434,
                    "duration": 0.12424425000000028
                },
                {
                    "name": "C#3",
                    "midi": 49,
                    "time": 26.464025250000024,
                    "velocity": 0.31496062992125984,
                    "duration": 0.12424425000000028
                },
                {
                    "name": "C#4",
                    "midi": 61,
                    "time": 26.588269500000024,
                    "velocity": 0.33858267716535434,
                    "duration": 0.12424425000000028
                },
                {
                    "name": "C#3",
                    "midi": 49,
                    "time": 26.961002250000025,
                    "velocity": 0.2992125984251969,
                    "duration": 0.12424425000000028
                },
                {
                    "name": "A3",
                    "midi": 57,
                    "time": 27.085246500000025,
                    "velocity": 0.36220472440944884,
                    "duration": 0.12424425000000028
                },
                {
                    "name": "C#3",
                    "midi": 49,
                    "time": 27.457979250000026,
                    "velocity": 0.2992125984251969,
                    "duration": 0.12424425000000028
                },
                {
                    "name": "B3",
                    "midi": 59,
                    "time": 27.582223500000026,
                    "velocity": 0.3464566929133858,
                    "duration": 0.12424425000000028
                },
                {
                    "name": "F#2",
                    "midi": 42,
                    "time": 27.954956250000027,
                    "velocity": 0.31496062992125984,
                    "duration": 0.12424425000000028
                },
                {
                    "name": "C#3",
                    "midi": 49,
                    "time": 28.079200500000027,
                    "velocity": 0.33858267716535434,
                    "duration": 0.12424425000000028
                },
                {
                    "name": "A3",
                    "midi": 57,
                    "time": 28.203444750000028,
                    "velocity": 0.33858267716535434,
                    "duration": 0.12424425000000028
                },
                {
                    "name": "F#2",
                    "midi": 42,
                    "time": 28.94891025000003,
                    "velocity": 0.2992125984251969,
                    "duration": 0.12424425000000028
                },
                {
                    "name": "C#3",
                    "midi": 49,
                    "time": 29.07315450000003,
                    "velocity": 0.36220472440944884,
                    "duration": 0.12424425000000028
                },
                {
                    "name": "B3",
                    "midi": 59,
                    "time": 29.19739875000003,
                    "velocity": 0.36220472440944884,
                    "duration": 0.12424425000000028
                },
                {
                    "name": "F#2",
                    "midi": 42,
                    "time": 29.44588725000003,
                    "velocity": 0.2992125984251969,
                    "duration": 0.12424425000000028
                },
                {
                    "name": "C#3",
                    "midi": 49,
                    "time": 29.57013150000003,
                    "velocity": 0.3464566929133858,
                    "duration": 0.12424425000000028
                },
                {
                    "name": "B3",
                    "midi": 59,
                    "time": 29.69437575000003,
                    "velocity": 0.3464566929133858,
                    "duration": 0.12424425000000028
                },
                {
                    "name": "F#2",
                    "midi": 42,
                    "time": 29.94286425000003,
                    "velocity": 0.2992125984251969,
                    "duration": 0.12424425000000028
                },
                {
                    "name": "C#3",
                    "midi": 49,
                    "time": 30.06710850000003,
                    "velocity": 0.3464566929133858,
                    "duration": 0.12424425000000028
                },
                {
                    "name": "A3",
                    "midi": 57,
                    "time": 30.191352750000032,
                    "velocity": 0.3464566929133858,
                    "duration": 0.12424425000000028
                },
                {
                    "name": "F#3",
                    "midi": 54,
                    "time": 30.936818250000034,
                    "velocity": 0.2992125984251969,
                    "duration": 0.12424425000000028
                },
                {
                    "name": "C#4",
                    "midi": 61,
                    "time": 31.061062500000034,
                    "velocity": 0.3464566929133858,
                    "duration": 0.7454655000000017
                },
                {
                    "name": "A4",
                    "midi": 69,
                    "time": 31.185306750000034,
                    "velocity": 0.3464566929133858,
                    "duration": 0.12424425000000028
                },
                {
                    "name": "E3",
                    "midi": 52,
                    "time": 31.930772250000036,
                    "velocity": 0.28346456692913385,
                    "duration": 0.12424425000000028
                },
                {
                    "name": "C4",
                    "midi": 60,
                    "time": 32.055016500000036,
                    "velocity": 0.28346456692913385,
                    "duration": 0.12424424999999673
                },
                {
                    "name": "G4",
                    "midi": 67,
                    "time": 32.17926075000003,
                    "velocity": 0.28346456692913385,
                    "duration": 0.12424424999999673
                },
                {
                    "name": "F#3",
                    "midi": 54,
                    "time": 33.91868025000003,
                    "velocity": 0.31496062992125984,
                    "duration": 0.12424424999999673
                },
                {
                    "name": "E4",
                    "midi": 64,
                    "time": 34.04292450000003,
                    "velocity": 0.33858267716535434,
                    "duration": 0.12424424999999673
                },
                {
                    "name": "F#3",
                    "midi": 54,
                    "time": 34.415657250000024,
                    "velocity": 0.31496062992125984,
                    "duration": 0.12424424999999673
                },
                {
                    "name": "F#4",
                    "midi": 66,
                    "time": 34.53990150000002,
                    "velocity": 0.33858267716535434,
                    "duration": 0.12424424999999673
                },
                {
                    "name": "F#3",
                    "midi": 54,
                    "time": 34.91263425000002,
                    "velocity": 0.2992125984251969,
                    "duration": 0.12424424999999673
                },
                {
                    "name": "D4",
                    "midi": 62,
                    "time": 35.036878500000014,
                    "velocity": 0.36220472440944884,
                    "duration": 0.12424424999999673
                },
                {
                    "name": "F#3",
                    "midi": 54,
                    "time": 35.40961125000001,
                    "velocity": 0.2992125984251969,
                    "duration": 0.12424424999999673
                },
                {
                    "name": "E4",
                    "midi": 64,
                    "time": 35.53385550000001,
                    "velocity": 0.3464566929133858,
                    "duration": 0.12424424999999673
                },
                {
                    "name": "B2",
                    "midi": 47,
                    "time": 35.906588250000006,
                    "velocity": 0.31496062992125984,
                    "duration": 0.12424424999999673
                },
                {
                    "name": "F#3",
                    "midi": 54,
                    "time": 36.0308325,
                    "velocity": 0.33070866141732286,
                    "duration": 0.12424424999999673
                },
                {
                    "name": "D4",
                    "midi": 62,
                    "time": 36.15507675,
                    "velocity": 0.33070866141732286,
                    "duration": 0.12424424999999673
                },
                {
                    "name": "B2",
                    "midi": 47,
                    "time": 36.900542249999994,
                    "velocity": 0.2677165354330709,
                    "duration": 0.12424424999999673
                },
                {
                    "name": "F#3",
                    "midi": 54,
                    "time": 37.02478649999999,
                    "velocity": 0.3228346456692913,
                    "duration": 0.12424424999999673
                },
                {
                    "name": "E4",
                    "midi": 64,
                    "time": 37.14903074999999,
                    "velocity": 0.3228346456692913,
                    "duration": 0.12424424999999673
                },
                {
                    "name": "B2",
                    "midi": 47,
                    "time": 37.39751924999998,
                    "velocity": 0.25984251968503935,
                    "duration": 0.12424424999999673
                },
                {
                    "name": "F#3",
                    "midi": 54,
                    "time": 37.52176349999998,
                    "velocity": 0.2992125984251969,
                    "duration": 0.12424424999999673
                },
                {
                    "name": "E4",
                    "midi": 64,
                    "time": 37.646007749999974,
                    "velocity": 0.29133858267716534,
                    "duration": 0.12424424999999673
                },
                {
                    "name": "B2",
                    "midi": 47,
                    "time": 37.89449624999997,
                    "velocity": 0.2125984251968504,
                    "duration": 0.12424424999999673
                },
                {
                    "name": "F#3",
                    "midi": 54,
                    "time": 38.018740499999964,
                    "velocity": 0.2204724409448819,
                    "duration": 0.12424424999999673
                },
                {
                    "name": "D#4",
                    "midi": 63,
                    "time": 38.14298474999996,
                    "velocity": 0.2204724409448819,
                    "duration": 0.12424424999999673
                },
                {
                    "name": "B2",
                    "midi": 47,
                    "time": 38.888450249999956,
                    "velocity": 0.18110236220472442,
                    "duration": 0.12424424999999673
                },
                {
                    "name": "F#3",
                    "midi": 54,
                    "time": 39.01269449999995,
                    "velocity": 0.2204724409448819,
                    "duration": 0.12424424999999673
                },
                {
                    "name": "E4",
                    "midi": 64,
                    "time": 39.13693874999995,
                    "velocity": 0.2204724409448819,
                    "duration": 0.12424424999999673
                },
                {
                    "name": "B2",
                    "midi": 47,
                    "time": 39.38542724999994,
                    "velocity": 0.1732283464566929,
                    "duration": 0.12424424999999673
                },
                {
                    "name": "F#3",
                    "midi": 54,
                    "time": 39.50967149999994,
                    "velocity": 0.2047244094488189,
                    "duration": 0.12424424999999673
                },
                {
                    "name": "E4",
                    "midi": 64,
                    "time": 39.633915749999936,
                    "velocity": 0.2047244094488189,
                    "duration": 0.12424424999999673
                },
                {
                    "name": "B2",
                    "midi": 47,
                    "time": 39.88240424999993,
                    "velocity": 0.2125984251968504,
                    "duration": 0.12424424999999673
                },
                {
                    "name": "F#3",
                    "midi": 54,
                    "time": 40.006648499999926,
                    "velocity": 0.2440944881889764,
                    "duration": 0.12424424999999673
                },
                {
                    "name": "D#4",
                    "midi": 63,
                    "time": 40.13089274999992,
                    "velocity": 0.2440944881889764,
                    "duration": 0.12424424999999673
                },
                {
                    "name": "B2",
                    "midi": 47,
                    "time": 40.87635824999992,
                    "velocity": 0.2125984251968504,
                    "duration": 0.12424424999999673
                },
                {
                    "name": "F#3",
                    "midi": 54,
                    "time": 41.000602499999914,
                    "velocity": 0.2440944881889764,
                    "duration": 0.12424424999999673
                },
                {
                    "name": "D#4",
                    "midi": 63,
                    "time": 41.12484674999991,
                    "velocity": 0.2440944881889764,
                    "duration": 0.12424424999999673
                },
                {
                    "name": "B2",
                    "midi": 47,
                    "time": 41.870312249999905,
                    "velocity": 0.25196850393700787,
                    "duration": 0.12424424999999673
                },
                {
                    "name": "F#3",
                    "midi": 54,
                    "time": 41.9945564999999,
                    "velocity": 0.2677165354330709,
                    "duration": 0.12424424999999673
                },
                {
                    "name": "D4",
                    "midi": 62,
                    "time": 42.1188007499999,
                    "velocity": 0.29133858267716534,
                    "duration": 0.12424424999999673
                },
                {
                    "name": "B2",
                    "midi": 47,
                    "time": 42.86426624999989,
                    "velocity": 0.25196850393700787,
                    "duration": 0.12424424999999673
                },
                {
                    "name": "G3",
                    "midi": 55,
                    "time": 42.98851049999989,
                    "velocity": 0.2677165354330709,
                    "duration": 0.12424424999999673
                },
                {
                    "name": "D4",
                    "midi": 62,
                    "time": 43.11275474999989,
                    "velocity": 0.29133858267716534,
                    "duration": 0.12424424999999673
                },
                {
                    "name": "D2",
                    "midi": 38,
                    "time": 43.733975999999885,
                    "velocity": 0.2440944881889764,
                    "duration": 0.12424424999999673
                },
                {
                    "name": "D3",
                    "midi": 50,
                    "time": 43.733975999999885,
                    "velocity": 0.28346456692913385,
                    "duration": 0.12424424999999673
                },
                {
                    "name": "G#3",
                    "midi": 56,
                    "time": 43.85822024999988,
                    "velocity": 0.28346456692913385,
                    "duration": 0.12424424999999673
                },
                {
                    "name": "B3",
                    "midi": 59,
                    "time": 43.98246449999988,
                    "velocity": 0.28346456692913385,
                    "duration": 0.12424424999999673
                },
                {
                    "name": "F#4",
                    "midi": 66,
                    "time": 44.106708749999875,
                    "velocity": 0.3543307086614173,
                    "duration": 0.12424424999999673
                },
                {
                    "name": "C#3",
                    "midi": 49,
                    "time": 45.34915124999987,
                    "velocity": 0.31496062992125984,
                    "duration": 0.12424424999999673
                },
                {
                    "name": "A3",
                    "midi": 57,
                    "time": 45.47339549999987,
                    "velocity": 0.3464566929133858,
                    "duration": 0.12424424999999673
                },
                {
                    "name": "E4",
                    "midi": 64,
                    "time": 45.597639749999864,
                    "velocity": 0.31496062992125984,
                    "duration": 0.12424424999999673
                },
                {
                    "name": "A#2",
                    "midi": 46,
                    "time": 45.84612824999986,
                    "velocity": 0.31496062992125984,
                    "duration": 0.12424424999999673
                },
                {
                    "name": "E3",
                    "midi": 52,
                    "time": 45.970372499999854,
                    "velocity": 0.33858267716535434,
                    "duration": 0.12424424999999673
                },
                {
                    "name": "C#4",
                    "midi": 61,
                    "time": 46.09461674999985,
                    "velocity": 0.31496062992125984,
                    "duration": 0.12424424999999673
                },
                {
                    "name": "B2",
                    "midi": 47,
                    "time": 46.343105249999844,
                    "velocity": 0.31496062992125984,
                    "duration": 0.12424424999999673
                },
                {
                    "name": "E3",
                    "midi": 52,
                    "time": 46.46734949999984,
                    "velocity": 0.33858267716535434,
                    "duration": 0.12424424999999673
                },
                {
                    "name": "D4",
                    "midi": 62,
                    "time": 46.59159374999984,
                    "velocity": 0.31496062992125984,
                    "duration": 0.12424424999999673
                },
                {
                    "name": "A#2",
                    "midi": 46,
                    "time": 46.84008224999983,
                    "velocity": 0.2992125984251969,
                    "duration": 0.12424424999999673
                },
                {
                    "name": "E3",
                    "midi": 52,
                    "time": 46.96432649999983,
                    "velocity": 0.36220472440944884,
                    "duration": 0.12424424999999673
                },
                {
                    "name": "C#4",
                    "midi": 61,
                    "time": 47.088570749999825,
                    "velocity": 0.2992125984251969,
                    "duration": 0.12424424999999673
                },
                {
                    "name": "B2",
                    "midi": 47,
                    "time": 47.33705924999982,
                    "velocity": 0.2992125984251969,
                    "duration": 0.12424424999999673
                },
                {
                    "name": "E3",
                    "midi": 52,
                    "time": 47.461303499999815,
                    "velocity": 0.3464566929133858,
                    "duration": 0.12424424999999673
                },
                {
                    "name": "D4",
                    "midi": 62,
                    "time": 47.58554774999981,
                    "velocity": 0.2992125984251969,
                    "duration": 0.12424424999999673
                },
                {
                    "name": "D3",
                    "midi": 50,
                    "time": 47.834036249999805,
                    "velocity": 0.28346456692913385,
                    "duration": 0.12424424999999673
                },
                {
                    "name": "G#3",
                    "midi": 56,
                    "time": 47.9582804999998,
                    "velocity": 0.28346456692913385,
                    "duration": 0.12424424999999673
                },
                {
                    "name": "B3",
                    "midi": 59,
                    "time": 48.0825247499998,
                    "velocity": 0.28346456692913385,
                    "duration": 0.12424424999999673
                },
                {
                    "name": "F#4",
                    "midi": 66,
                    "time": 48.206768999999795,
                    "velocity": 0.3543307086614173,
                    "duration": 0.12424424999999673
                },
                {
                    "name": "C#3",
                    "midi": 49,
                    "time": 49.324967249999794,
                    "velocity": 0.31496062992125984,
                    "duration": 0.12424424999999673
                },
                {
                    "name": "A3",
                    "midi": 57,
                    "time": 49.44921149999979,
                    "velocity": 0.3464566929133858,
                    "duration": 0.12424424999999673
                },
                {
                    "name": "E4",
                    "midi": 64,
                    "time": 49.57345574999979,
                    "velocity": 0.31496062992125984,
                    "duration": 0.12424424999999673
                },
                {
                    "name": "A3",
                    "midi": 57,
                    "time": 49.82194424999978,
                    "velocity": 0.30708661417322836,
                    "duration": 0.12424424999999673
                },
                {
                    "name": "D#4",
                    "midi": 63,
                    "time": 49.94618849999978,
                    "velocity": 0.30708661417322836,
                    "duration": 0.12424424999999673
                },
                {
                    "name": "F#4",
                    "midi": 66,
                    "time": 50.070432749999775,
                    "velocity": 0.31496062992125984,
                    "duration": 0.12424424999999673
                },
                {
                    "name": "C#5",
                    "midi": 73,
                    "time": 50.19467699999977,
                    "velocity": 0.3937007874015748,
                    "duration": 0.12424424999999673
                },
                {
                    "name": "G#3",
                    "midi": 56,
                    "time": 51.31287524999977,
                    "velocity": 0.36220472440944884,
                    "duration": 0.12424424999999673
                },
                {
                    "name": "E4",
                    "midi": 64,
                    "time": 51.43711949999977,
                    "velocity": 0.4251968503937008,
                    "duration": 0.12424424999999673
                },
                {
                    "name": "B4",
                    "midi": 71,
                    "time": 51.561363749999764,
                    "velocity": 0.3858267716535433,
                    "duration": 0.12424424999999673
                },
                {
                    "name": "D4",
                    "midi": 62,
                    "time": 51.80985224999976,
                    "velocity": 0.3464566929133858,
                    "duration": 0.12424424999999673
                },
                {
                    "name": "G#4",
                    "midi": 68,
                    "time": 51.934096499999754,
                    "velocity": 0.3779527559055118,
                    "duration": 0.12424424999999673
                },
                {
                    "name": "B4",
                    "midi": 71,
                    "time": 52.05834074999975,
                    "velocity": 0.4015748031496063,
                    "duration": 0.12424424999999673
                },
                {
                    "name": "F#5",
                    "midi": 78,
                    "time": 52.18258499999975,
                    "velocity": 0.4330708661417323,
                    "duration": 0.12424424999999673
                },
                {
                    "name": "C#4",
                    "midi": 61,
                    "time": 53.300783249999746,
                    "velocity": 0.3779527559055118,
                    "duration": 0.12424424999999673
                },
                {
                    "name": "A4",
                    "midi": 69,
                    "time": 53.42502749999974,
                    "velocity": 0.4251968503937008,
                    "duration": 0.12424424999999673
                },
                {
                    "name": "E5",
                    "midi": 76,
                    "time": 53.54927174999974,
                    "velocity": 0.3858267716535433,
                    "duration": 0.12217351249999808
                },
                {
                    "name": "E3",
                    "midi": 52,
                    "time": 53.79776024999974,
                    "velocity": 0.3543307086614173,
                    "duration": 0.12424424999999673
                },
                {
                    "name": "C#4",
                    "midi": 61,
                    "time": 53.92200449999974,
                    "velocity": 0.3700787401574803,
                    "duration": 0.12424424999999673
                },
                {
                    "name": "A4",
                    "midi": 69,
                    "time": 54.046248749999734,
                    "velocity": 0.33858267716535434,
                    "duration": 0.12424424999999673
                },
                {
                    "name": "E3",
                    "midi": 52,
                    "time": 54.79171424999973,
                    "velocity": 0.2755905511811024,
                    "duration": 0.12424424999999673
                },
                {
                    "name": "C4",
                    "midi": 60,
                    "time": 54.915958499999725,
                    "velocity": 0.3228346456692913,
                    "duration": 0.12424424999999673
                },
                {
                    "name": "A4",
                    "midi": 69,
                    "time": 55.04020274999972,
                    "velocity": 0.2677165354330709,
                    "duration": 0.12424424999999673
                },
                {
                    "name": "E3",
                    "midi": 52,
                    "time": 55.785668249999716,
                    "velocity": 0.23622047244094488,
                    "duration": 0.12424424999999673
                },
                {
                    "name": "B3",
                    "midi": 59,
                    "time": 55.90991249999971,
                    "velocity": 0.2440944881889764,
                    "duration": 0.12424424999999673
                },
                {
                    "name": "G#4",
                    "midi": 68,
                    "time": 56.03415674999971,
                    "velocity": 0.2204724409448819,
                    "duration": 0.12424424999999673
                },
                {
                    "name": "A2",
                    "midi": 45,
                    "time": 56.779622249999704,
                    "velocity": 0.1889763779527559,
                    "duration": 0.12424424999999673
                },
                {
                    "name": "E3",
                    "midi": 52,
                    "time": 56.9038664999997,
                    "velocity": 0.2283464566929134,
                    "duration": 0.12424424999999673
                },
                {
                    "name": "A1",
                    "midi": 33,
                    "time": 57.152354999999694,
                    "velocity": 0.2677165354330709,
                    "duration": 0.12424424999999673
                },
                {
                    "name": "B2",
                    "midi": 47,
                    "time": 57.77357624999969,
                    "velocity": 0.28346456692913385,
                    "duration": 0.12424424999999673
                },
                {
                    "name": "G3",
                    "midi": 55,
                    "time": 57.89782049999969,
                    "velocity": 0.28346456692913385,
                    "duration": 0.12424424999999673
                },
                {
                    "name": "D4",
                    "midi": 62,
                    "time": 58.022064749999686,
                    "velocity": 0.28346456692913385,
                    "duration": 0.12424424999999673
                },
                {
                    "name": "C#3",
                    "midi": 49,
                    "time": 59.76148424999968,
                    "velocity": 0.31496062992125984,
                    "duration": 0.12424424999999673
                },
                {
                    "name": "B3",
                    "midi": 59,
                    "time": 59.88572849999968,
                    "velocity": 0.33858267716535434,
                    "duration": 0.12424424999999673
                },
                {
                    "name": "C#3",
                    "midi": 49,
                    "time": 60.25846124999968,
                    "velocity": 0.31496062992125984,
                    "duration": 0.12424424999999673
                },
                {
                    "name": "C#4",
                    "midi": 61,
                    "time": 60.38270549999967,
                    "velocity": 0.33858267716535434,
                    "duration": 0.12424424999999673
                },
                {
                    "name": "C#3",
                    "midi": 49,
                    "time": 60.75543824999967,
                    "velocity": 0.2992125984251969,
                    "duration": 0.12424424999999673
                },
                {
                    "name": "A3",
                    "midi": 57,
                    "time": 60.87968249999967,
                    "velocity": 0.36220472440944884,
                    "duration": 0.12424424999999673
                },
                {
                    "name": "C#3",
                    "midi": 49,
                    "time": 61.252415249999665,
                    "velocity": 0.2992125984251969,
                    "duration": 0.12424424999999673
                },
                {
                    "name": "B3",
                    "midi": 59,
                    "time": 61.37665949999966,
                    "velocity": 0.3464566929133858,
                    "duration": 0.12424424999999673
                },
                {
                    "name": "F#2",
                    "midi": 42,
                    "time": 61.74939224999966,
                    "velocity": 0.31496062992125984,
                    "duration": 0.12424424999999673
                },
                {
                    "name": "C#3",
                    "midi": 49,
                    "time": 61.873636499999655,
                    "velocity": 0.33858267716535434,
                    "duration": 0.12424424999999673
                },
                {
                    "name": "A3",
                    "midi": 57,
                    "time": 61.99788074999965,
                    "velocity": 0.33858267716535434,
                    "duration": 0.12424424999999673
                },
                {
                    "name": "F#2",
                    "midi": 42,
                    "time": 62.74334624999965,
                    "velocity": 0.2992125984251969,
                    "duration": 0.12424424999999673
                },
                {
                    "name": "C#3",
                    "midi": 49,
                    "time": 62.86759049999964,
                    "velocity": 0.36220472440944884,
                    "duration": 0.12424424999999673
                },
                {
                    "name": "B3",
                    "midi": 59,
                    "time": 62.99183474999964,
                    "velocity": 0.36220472440944884,
                    "duration": 0.12424424999999673
                },
                {
                    "name": "F#2",
                    "midi": 42,
                    "time": 63.24032324999963,
                    "velocity": 0.2992125984251969,
                    "duration": 0.12424424999999673
                },
                {
                    "name": "C#3",
                    "midi": 49,
                    "time": 63.36456749999963,
                    "velocity": 0.3464566929133858,
                    "duration": 0.12424424999999673
                },
                {
                    "name": "B3",
                    "midi": 59,
                    "time": 63.48881174999963,
                    "velocity": 0.3464566929133858,
                    "duration": 0.12424424999999673
                },
                {
                    "name": "F#2",
                    "midi": 42,
                    "time": 63.73730024999962,
                    "velocity": 0.2992125984251969,
                    "duration": 0.12424424999999673
                },
                {
                    "name": "C#3",
                    "midi": 49,
                    "time": 63.86154449999962,
                    "velocity": 0.3464566929133858,
                    "duration": 0.12424424999999673
                },
                {
                    "name": "A3",
                    "midi": 57,
                    "time": 63.985788749999614,
                    "velocity": 0.3464566929133858,
                    "duration": 0.12424425000000383
                },
                {
                    "name": "F#3",
                    "midi": 54,
                    "time": 64.73125424999962,
                    "velocity": 0.2992125984251969,
                    "duration": 0.12424425000000383
                },
                {
                    "name": "C#4",
                    "midi": 61,
                    "time": 64.85549849999963,
                    "velocity": 0.3464566929133858,
                    "duration": 0.7454655000000088
                },
                {
                    "name": "A4",
                    "midi": 69,
                    "time": 64.97974274999963,
                    "velocity": 0.3464566929133858,
                    "duration": 0.12424425000000383
                },
                {
                    "name": "E3",
                    "midi": 52,
                    "time": 65.72520824999964,
                    "velocity": 0.28346456692913385,
                    "duration": 0.12424425000000383
                },
                {
                    "name": "C4",
                    "midi": 60,
                    "time": 65.84945249999964,
                    "velocity": 0.28346456692913385,
                    "duration": 0.12424425000000383
                },
                {
                    "name": "G4",
                    "midi": 67,
                    "time": 65.97369674999965,
                    "velocity": 0.28346456692913385,
                    "duration": 0.12424425000000383
                },
                {
                    "name": "F#3",
                    "midi": 54,
                    "time": 67.71311624999964,
                    "velocity": 0.31496062992125984,
                    "duration": 0.12424425000000383
                },
                {
                    "name": "E4",
                    "midi": 64,
                    "time": 67.83736049999965,
                    "velocity": 0.33858267716535434,
                    "duration": 0.12424425000000383
                },
                {
                    "name": "F#3",
                    "midi": 54,
                    "time": 68.21009324999964,
                    "velocity": 0.31496062992125984,
                    "duration": 0.12424425000000383
                },
                {
                    "name": "F#4",
                    "midi": 66,
                    "time": 68.33433749999965,
                    "velocity": 0.33858267716535434,
                    "duration": 0.12424425000000383
                },
                {
                    "name": "F#3",
                    "midi": 54,
                    "time": 68.70707024999965,
                    "velocity": 0.2992125984251969,
                    "duration": 0.12424425000000383
                },
                {
                    "name": "D4",
                    "midi": 62,
                    "time": 68.83131449999965,
                    "velocity": 0.36220472440944884,
                    "duration": 0.12424425000000383
                },
                {
                    "name": "F#3",
                    "midi": 54,
                    "time": 69.20404724999965,
                    "velocity": 0.2992125984251969,
                    "duration": 0.12424425000000383
                },
                {
                    "name": "E4",
                    "midi": 64,
                    "time": 69.32829149999965,
                    "velocity": 0.3464566929133858,
                    "duration": 0.12424425000000383
                },
                {
                    "name": "B2",
                    "midi": 47,
                    "time": 69.70102424999965,
                    "velocity": 0.31496062992125984,
                    "duration": 0.12424425000000383
                },
                {
                    "name": "F#3",
                    "midi": 54,
                    "time": 69.82526849999965,
                    "velocity": 0.33858267716535434,
                    "duration": 0.12424425000000383
                },
                {
                    "name": "D4",
                    "midi": 62,
                    "time": 69.94951274999966,
                    "velocity": 0.33858267716535434,
                    "duration": 0.12424425000000383
                },
                {
                    "name": "B2",
                    "midi": 47,
                    "time": 70.69497824999966,
                    "velocity": 0.2755905511811024,
                    "duration": 0.12424425000000383
                },
                {
                    "name": "F#3",
                    "midi": 54,
                    "time": 70.81922249999967,
                    "velocity": 0.33070866141732286,
                    "duration": 0.12424425000000383
                },
                {
                    "name": "E4",
                    "midi": 64,
                    "time": 70.94346674999967,
                    "velocity": 0.3228346456692913,
                    "duration": 0.12424425000000383
                },
                {
                    "name": "B2",
                    "midi": 47,
                    "time": 71.19195524999968,
                    "velocity": 0.25984251968503935,
                    "duration": 0.12424425000000383
                },
                {
                    "name": "F#3",
                    "midi": 54,
                    "time": 71.31619949999968,
                    "velocity": 0.2992125984251969,
                    "duration": 0.12424425000000383
                },
                {
                    "name": "E4",
                    "midi": 64,
                    "time": 71.44044374999969,
                    "velocity": 0.2992125984251969,
                    "duration": 0.12424425000000383
                },
                {
                    "name": "B2",
                    "midi": 47,
                    "time": 71.6889322499997,
                    "velocity": 0.2125984251968504,
                    "duration": 0.12424425000000383
                },
                {
                    "name": "F#3",
                    "midi": 54,
                    "time": 71.8131764999997,
                    "velocity": 0.2204724409448819,
                    "duration": 0.12424425000000383
                },
                {
                    "name": "D#4",
                    "midi": 63,
                    "time": 71.9374207499997,
                    "velocity": 0.2204724409448819,
                    "duration": 0.12424425000000383
                },
                {
                    "name": "B2",
                    "midi": 47,
                    "time": 72.68288624999971,
                    "velocity": 0.18110236220472442,
                    "duration": 0.12424425000000383
                },
                {
                    "name": "F#3",
                    "midi": 54,
                    "time": 72.80713049999972,
                    "velocity": 0.2204724409448819,
                    "duration": 0.12424425000000383
                },
                {
                    "name": "E4",
                    "midi": 64,
                    "time": 72.93137474999972,
                    "velocity": 0.2204724409448819,
                    "duration": 0.12424425000000383
                },
                {
                    "name": "B2",
                    "midi": 47,
                    "time": 73.17986324999973,
                    "velocity": 0.1732283464566929,
                    "duration": 0.12424425000000383
                },
                {
                    "name": "F#3",
                    "midi": 54,
                    "time": 73.30410749999973,
                    "velocity": 0.2047244094488189,
                    "duration": 0.12424425000000383
                },
                {
                    "name": "E4",
                    "midi": 64,
                    "time": 73.42835174999973,
                    "velocity": 0.2047244094488189,
                    "duration": 0.12424425000000383
                },
                {
                    "name": "B2",
                    "midi": 47,
                    "time": 73.67684024999974,
                    "velocity": 0.2125984251968504,
                    "duration": 0.12424425000000383
                },
                {
                    "name": "F#3",
                    "midi": 54,
                    "time": 73.80108449999975,
                    "velocity": 0.2440944881889764,
                    "duration": 0.12424425000000383
                },
                {
                    "name": "D#4",
                    "midi": 63,
                    "time": 73.92532874999975,
                    "velocity": 0.2440944881889764,
                    "duration": 0.12424425000000383
                },
                {
                    "name": "B2",
                    "midi": 47,
                    "time": 74.67079424999976,
                    "velocity": 0.2125984251968504,
                    "duration": 0.12424425000000383
                },
                {
                    "name": "F#3",
                    "midi": 54,
                    "time": 74.79503849999976,
                    "velocity": 0.2440944881889764,
                    "duration": 0.12424425000000383
                },
                {
                    "name": "D#4",
                    "midi": 63,
                    "time": 74.91928274999977,
                    "velocity": 0.2440944881889764,
                    "duration": 0.12424425000000383
                },
                {
                    "name": "B2",
                    "midi": 47,
                    "time": 75.66474824999977,
                    "velocity": 0.25196850393700787,
                    "duration": 0.12424425000000383
                },
                {
                    "name": "F#3",
                    "midi": 54,
                    "time": 75.78899249999978,
                    "velocity": 0.2677165354330709,
                    "duration": 0.12424425000000383
                },
                {
                    "name": "D4",
                    "midi": 62,
                    "time": 75.91323674999978,
                    "velocity": 0.29133858267716534,
                    "duration": 0.12424425000000383
                },
                {
                    "name": "B2",
                    "midi": 47,
                    "time": 76.65870224999979,
                    "velocity": 0.25196850393700787,
                    "duration": 0.12424425000000383
                },
                {
                    "name": "G3",
                    "midi": 55,
                    "time": 76.7829464999998,
                    "velocity": 0.2677165354330709,
                    "duration": 0.12424425000000383
                },
                {
                    "name": "D4",
                    "midi": 62,
                    "time": 76.9071907499998,
                    "velocity": 0.29133858267716534,
                    "duration": 0.12424425000000383
                },
                {
                    "name": "D2",
                    "midi": 38,
                    "time": 77.5284119999998,
                    "velocity": 0.2440944881889764,
                    "duration": 0.12424425000000383
                },
                {
                    "name": "D3",
                    "midi": 50,
                    "time": 77.5284119999998,
                    "velocity": 0.28346456692913385,
                    "duration": 0.12424425000000383
                },
                {
                    "name": "G#3",
                    "midi": 56,
                    "time": 77.65265624999981,
                    "velocity": 0.28346456692913385,
                    "duration": 0.12424425000000383
                },
                {
                    "name": "B3",
                    "midi": 59,
                    "time": 77.77690049999981,
                    "velocity": 0.28346456692913385,
                    "duration": 0.12424425000000383
                },
                {
                    "name": "F#4",
                    "midi": 66,
                    "time": 77.90114474999982,
                    "velocity": 0.3543307086614173,
                    "duration": 0.12424425000000383
                },
                {
                    "name": "C#3",
                    "midi": 49,
                    "time": 79.14358724999983,
                    "velocity": 0.31496062992125984,
                    "duration": 0.12424425000000383
                },
                {
                    "name": "A3",
                    "midi": 57,
                    "time": 79.26783149999983,
                    "velocity": 0.3464566929133858,
                    "duration": 0.12424425000000383
                },
                {
                    "name": "E4",
                    "midi": 64,
                    "time": 79.39207574999983,
                    "velocity": 0.31496062992125984,
                    "duration": 0.12424425000000383
                },
                {
                    "name": "A#2",
                    "midi": 46,
                    "time": 79.64056424999984,
                    "velocity": 0.31496062992125984,
                    "duration": 0.12424425000000383
                },
                {
                    "name": "E3",
                    "midi": 52,
                    "time": 79.76480849999984,
                    "velocity": 0.33858267716535434,
                    "duration": 0.12424425000000383
                },
                {
                    "name": "C#4",
                    "midi": 61,
                    "time": 79.88905274999985,
                    "velocity": 0.31496062992125984,
                    "duration": 0.12424425000000383
                },
                {
                    "name": "B2",
                    "midi": 47,
                    "time": 80.13754124999986,
                    "velocity": 0.31496062992125984,
                    "duration": 0.12424425000000383
                },
                {
                    "name": "E3",
                    "midi": 52,
                    "time": 80.26178549999986,
                    "velocity": 0.33858267716535434,
                    "duration": 0.12424425000000383
                },
                {
                    "name": "D4",
                    "midi": 62,
                    "time": 80.38602974999986,
                    "velocity": 0.31496062992125984,
                    "duration": 0.12424425000000383
                },
                {
                    "name": "A#2",
                    "midi": 46,
                    "time": 80.63451824999987,
                    "velocity": 0.2992125984251969,
                    "duration": 0.12424425000000383
                },
                {
                    "name": "E3",
                    "midi": 52,
                    "time": 80.75876249999988,
                    "velocity": 0.36220472440944884,
                    "duration": 0.12424425000000383
                },
                {
                    "name": "C#4",
                    "midi": 61,
                    "time": 80.88300674999988,
                    "velocity": 0.2992125984251969,
                    "duration": 0.12424425000000383
                },
                {
                    "name": "B2",
                    "midi": 47,
                    "time": 81.13149524999989,
                    "velocity": 0.2992125984251969,
                    "duration": 0.12424425000000383
                },
                {
                    "name": "E3",
                    "midi": 52,
                    "time": 81.25573949999989,
                    "velocity": 0.3464566929133858,
                    "duration": 0.12424425000000383
                },
                {
                    "name": "D4",
                    "midi": 62,
                    "time": 81.3799837499999,
                    "velocity": 0.2992125984251969,
                    "duration": 0.12424425000000383
                },
                {
                    "name": "D3",
                    "midi": 50,
                    "time": 81.6284722499999,
                    "velocity": 0.28346456692913385,
                    "duration": 0.12424425000000383
                },
                {
                    "name": "G#3",
                    "midi": 56,
                    "time": 81.7527164999999,
                    "velocity": 0.28346456692913385,
                    "duration": 0.12424425000000383
                },
                {
                    "name": "B3",
                    "midi": 59,
                    "time": 81.87696074999991,
                    "velocity": 0.28346456692913385,
                    "duration": 0.12424425000000383
                },
                {
                    "name": "F#4",
                    "midi": 66,
                    "time": 82.00120499999991,
                    "velocity": 0.3543307086614173,
                    "duration": 0.12424425000000383
                },
                {
                    "name": "C#3",
                    "midi": 49,
                    "time": 83.11940324999992,
                    "velocity": 0.31496062992125984,
                    "duration": 0.12424425000000383
                },
                {
                    "name": "A3",
                    "midi": 57,
                    "time": 83.24364749999992,
                    "velocity": 0.3464566929133858,
                    "duration": 0.12424425000000383
                },
                {
                    "name": "E4",
                    "midi": 64,
                    "time": 83.36789174999993,
                    "velocity": 0.31496062992125984,
                    "duration": 0.12424425000000383
                },
                {
                    "name": "A3",
                    "midi": 57,
                    "time": 83.61638024999993,
                    "velocity": 0.30708661417322836,
                    "duration": 0.12424425000000383
                },
                {
                    "name": "D#4",
                    "midi": 63,
                    "time": 83.74062449999994,
                    "velocity": 0.30708661417322836,
                    "duration": 0.12424425000000383
                },
                {
                    "name": "F#4",
                    "midi": 66,
                    "time": 83.86486874999994,
                    "velocity": 0.31496062992125984,
                    "duration": 0.12424425000000383
                },
                {
                    "name": "C#5",
                    "midi": 73,
                    "time": 83.98911299999995,
                    "velocity": 0.3937007874015748,
                    "duration": 0.12424425000000383
                },
                {
                    "name": "G#3",
                    "midi": 56,
                    "time": 85.10731124999995,
                    "velocity": 0.36220472440944884,
                    "duration": 0.12424425000000383
                },
                {
                    "name": "E4",
                    "midi": 64,
                    "time": 85.23155549999996,
                    "velocity": 0.4251968503937008,
                    "duration": 0.12424425000000383
                },
                {
                    "name": "B4",
                    "midi": 71,
                    "time": 85.35579974999996,
                    "velocity": 0.3858267716535433,
                    "duration": 0.12424425000000383
                },
                {
                    "name": "D4",
                    "midi": 62,
                    "time": 85.60428824999997,
                    "velocity": 0.3858267716535433,
                    "duration": 0.12424425000000383
                },
                {
                    "name": "G#4",
                    "midi": 68,
                    "time": 85.72853249999997,
                    "velocity": 0.4094488188976378,
                    "duration": 0.12424425000000383
                },
                {
                    "name": "B4",
                    "midi": 71,
                    "time": 85.85277674999998,
                    "velocity": 0.4409448818897638,
                    "duration": 0.12424425000000383
                },
                {
                    "name": "F#5",
                    "midi": 78,
                    "time": 85.97702099999998,
                    "velocity": 0.4645669291338583,
                    "duration": 0.12424425000000383
                },
                {
                    "name": "C#4",
                    "midi": 61,
                    "time": 87.09521924999999,
                    "velocity": 0.4094488188976378,
                    "duration": 0.12424425000000383
                },
                {
                    "name": "A4",
                    "midi": 69,
                    "time": 87.21946349999999,
                    "velocity": 0.47244094488188976,
                    "duration": 0.12424425000000383
                },
                {
                    "name": "E5",
                    "midi": 76,
                    "time": 87.34370775,
                    "velocity": 0.41732283464566927,
                    "duration": 0.12217351249999808
                },
                {
                    "name": "E3",
                    "midi": 52,
                    "time": 87.59219624999999,
                    "velocity": 0.3543307086614173,
                    "duration": 0.12424425000000383
                },
                {
                    "name": "C#4",
                    "midi": 61,
                    "time": 87.71644049999999,
                    "velocity": 0.3779527559055118,
                    "duration": 0.12424425000000383
                },
                {
                    "name": "A4",
                    "midi": 69,
                    "time": 87.84068475,
                    "velocity": 0.3464566929133858,
                    "duration": 0.12424425000000383
                },
                {
                    "name": "E3",
                    "midi": 52,
                    "time": 88.58615025,
                    "velocity": 0.29133858267716534,
                    "duration": 0.12424425000000383
                },
                {
                    "name": "C4",
                    "midi": 60,
                    "time": 88.7103945,
                    "velocity": 0.3464566929133858,
                    "duration": 0.12424425000000383
                },
                {
                    "name": "A4",
                    "midi": 69,
                    "time": 88.83463875000001,
                    "velocity": 0.28346456692913385,
                    "duration": 0.12424425000000383
                },
                {
                    "name": "E3",
                    "midi": 52,
                    "time": 89.58010425000002,
                    "velocity": 0.25984251968503935,
                    "duration": 0.12424425000000383
                },
                {
                    "name": "B3",
                    "midi": 59,
                    "time": 89.70434850000002,
                    "velocity": 0.2755905511811024,
                    "duration": 0.12424425000000383
                },
                {
                    "name": "G#4",
                    "midi": 68,
                    "time": 89.82859275000003,
                    "velocity": 0.25196850393700787,
                    "duration": 0.12424425000000383
                },
                {
                    "name": "E2",
                    "midi": 40,
                    "time": 91.56801225000004,
                    "velocity": 0.2283464566929134,
                    "duration": 0.12424425000000383
                },
                {
                    "name": "C#3",
                    "midi": 49,
                    "time": 91.69225650000004,
                    "velocity": 0.25984251968503935,
                    "duration": 0.12424425000000383
                },
                {
                    "name": "A3",
                    "midi": 57,
                    "time": 91.81650075000005,
                    "velocity": 0.23622047244094488,
                    "duration": 0.12424425000000383
                },
                {
                    "name": "E2",
                    "midi": 40,
                    "time": 92.56196625000005,
                    "velocity": 0.2204724409448819,
                    "duration": 0.12424425000000383
                },
                {
                    "name": "C3",
                    "midi": 48,
                    "time": 92.68621050000006,
                    "velocity": 0.2440944881889764,
                    "duration": 0.12424425000000383
                },
                {
                    "name": "A3",
                    "midi": 57,
                    "time": 92.81045475000006,
                    "velocity": 0.23622047244094488,
                    "duration": 0.12424425000000383
                },
                {
                    "name": "E2",
                    "midi": 40,
                    "time": 93.55592025000007,
                    "velocity": 0.2125984251968504,
                    "duration": 0.12424425000000383
                },
                {
                    "name": "B2",
                    "midi": 47,
                    "time": 93.68016450000007,
                    "velocity": 0.23622047244094488,
                    "duration": 0.12424425000000383
                },
                {
                    "name": "G#3",
                    "midi": 56,
                    "time": 93.80440875000008,
                    "velocity": 0.1889763779527559,
                    "duration": 0.12424425000000383
                },
                {
                    "name": "A1",
                    "midi": 33,
                    "time": 94.54987425000009,
                    "velocity": 0.2204724409448819,
                    "duration": 0.12424425000000383
                },
                {
                    "name": "E2",
                    "midi": 40,
                    "time": 94.67411850000009,
                    "velocity": 0.2677165354330709,
                    "duration": 0.12424425000000383
                },
                {
                    "name": "A0",
                    "midi": 21,
                    "time": 94.9226070000001,
                    "velocity": 0.3700787401574803,
                    "duration": 0.24848849999999345
                }
            ],
            "controlChanges": {},
            "id": 2,
            "name": "Piano left",
            "instrumentNumber": 0,
            "instrument": "acoustic grand piano",
            "instrumentFamily": "piano",
            "channelNumber": 0,
            "isPercussion": false
        },
        {
            "startTime": 0,
            "duration": 0,
            "length": 0,
            "notes": [],
            "controlChanges": {
                "64": [
                    {
                        "number": 64,
                        "time": 0,
                        "value": 1
                    },
                    {
                        "number": 64,
                        "time": 0.993954,
                        "value": 0
                    },
                    {
                        "number": 64,
                        "time": 1.5799727125,
                        "value": 1
                    },
                    {
                        "number": 64,
                        "time": 1.9930848437500002,
                        "value": 0
                    },
                    {
                        "number": 64,
                        "time": 2.1183644625,
                        "value": 1
                    },
                    {
                        "number": 64,
                        "time": 2.4952386875,
                        "value": 0
                    },
                    {
                        "number": 64,
                        "time": 2.5739267125,
                        "value": 1
                    },
                    {
                        "number": 64,
                        "time": 2.994286425,
                        "value": 0
                    },
                    {
                        "number": 64,
                        "time": 3.08850498125,
                        "value": 1
                    },
                    {
                        "number": 64,
                        "time": 3.49229879375,
                        "value": 0
                    },
                    {
                        "number": 64,
                        "time": 3.5616684999999997,
                        "value": 1
                    },
                    {
                        "number": 64,
                        "time": 3.9758159999999996,
                        "value": 0
                    },
                    {
                        "number": 64,
                        "time": 4.0586455,
                        "value": 1
                    },
                    {
                        "number": 64,
                        "time": 4.96977,
                        "value": 0
                    },
                    {
                        "number": 64,
                        "time": 5.5557887125,
                        "value": 1
                    },
                    {
                        "number": 64,
                        "time": 5.963724,
                        "value": 0
                    },
                    {
                        "number": 64,
                        "time": 6.0465535,
                        "value": 1
                    },
                    {
                        "number": 64,
                        "time": 6.957678,
                        "value": 0
                    },
                    {
                        "number": 64,
                        "time": 7.543696712499999,
                        "value": 1
                    },
                    {
                        "number": 64,
                        "time": 7.956808843749999,
                        "value": 0
                    },
                    {
                        "number": 64,
                        "time": 8.0820884625,
                        "value": 1
                    },
                    {
                        "number": 64,
                        "time": 8.958010425,
                        "value": 0
                    },
                    {
                        "number": 64,
                        "time": 9.05222898125,
                        "value": 1
                    },
                    {
                        "number": 64,
                        "time": 9.94471684375,
                        "value": 0
                    },
                    {
                        "number": 64,
                        "time": 10.069996462499999,
                        "value": 1
                    },
                    {
                        "number": 64,
                        "time": 10.945918424999999,
                        "value": 0
                    },
                    {
                        "number": 64,
                        "time": 11.040136981249999,
                        "value": 1
                    },
                    {
                        "number": 64,
                        "time": 11.567139674999998,
                        "value": 0
                    },
                    {
                        "number": 64,
                        "time": 11.927447999999998,
                        "value": 1
                    },
                    {
                        "number": 64,
                        "time": 12.921401999999999,
                        "value": 0
                    },
                    {
                        "number": 64,
                        "time": 13.507420712499998,
                        "value": 1
                    },
                    {
                        "number": 64,
                        "time": 13.920532843749998,
                        "value": 0
                    },
                    {
                        "number": 64,
                        "time": 14.045812462499997,
                        "value": 1
                    },
                    {
                        "number": 64,
                        "time": 14.422686687499997,
                        "value": 0
                    },
                    {
                        "number": 64,
                        "time": 14.501374712499997,
                        "value": 1
                    },
                    {
                        "number": 64,
                        "time": 14.921734424999997,
                        "value": 0
                    },
                    {
                        "number": 64,
                        "time": 15.015952981249997,
                        "value": 1
                    },
                    {
                        "number": 64,
                        "time": 15.419746793749997,
                        "value": 0
                    },
                    {
                        "number": 64,
                        "time": 15.489116499999998,
                        "value": 1
                    },
                    {
                        "number": 64,
                        "time": 15.903263999999998,
                        "value": 0
                    },
                    {
                        "number": 64,
                        "time": 15.986093499999999,
                        "value": 1
                    },
                    {
                        "number": 64,
                        "time": 16.897218,
                        "value": 0
                    },
                    {
                        "number": 64,
                        "time": 17.4832367125,
                        "value": 1
                    },
                    {
                        "number": 64,
                        "time": 17.891171999999997,
                        "value": 0
                    },
                    {
                        "number": 64,
                        "time": 17.974001499999996,
                        "value": 1
                    },
                    {
                        "number": 64,
                        "time": 18.885125999999996,
                        "value": 0
                    },
                    {
                        "number": 64,
                        "time": 19.471144712499996,
                        "value": 1
                    },
                    {
                        "number": 64,
                        "time": 19.884256843749995,
                        "value": 0
                    },
                    {
                        "number": 64,
                        "time": 20.009536462499995,
                        "value": 1
                    },
                    {
                        "number": 64,
                        "time": 20.885458424999996,
                        "value": 0
                    },
                    {
                        "number": 64,
                        "time": 20.979676981249995,
                        "value": 1
                    },
                    {
                        "number": 64,
                        "time": 21.872164843749996,
                        "value": 0
                    },
                    {
                        "number": 64,
                        "time": 21.997444462499995,
                        "value": 1
                    },
                    {
                        "number": 64,
                        "time": 22.873366424999997,
                        "value": 0
                    },
                    {
                        "number": 64,
                        "time": 22.967584981249995,
                        "value": 1
                    },
                    {
                        "number": 64,
                        "time": 23.494587674999995,
                        "value": 0
                    },
                    {
                        "number": 64,
                        "time": 23.854895999999993,
                        "value": 1
                    },
                    {
                        "number": 64,
                        "time": 25.847980843749994,
                        "value": 0
                    },
                    {
                        "number": 64,
                        "time": 25.973260462499994,
                        "value": 1
                    },
                    {
                        "number": 64,
                        "time": 26.350134687499995,
                        "value": 0
                    },
                    {
                        "number": 64,
                        "time": 26.428822712499997,
                        "value": 1
                    },
                    {
                        "number": 64,
                        "time": 26.849182425,
                        "value": 0
                    },
                    {
                        "number": 64,
                        "time": 26.943400981249997,
                        "value": 1
                    },
                    {
                        "number": 64,
                        "time": 27.34719479375,
                        "value": 0
                    },
                    {
                        "number": 64,
                        "time": 27.4165645,
                        "value": 1
                    },
                    {
                        "number": 64,
                        "time": 27.83588884375,
                        "value": 0
                    },
                    {
                        "number": 64,
                        "time": 27.961168462499998,
                        "value": 1
                    },
                    {
                        "number": 64,
                        "time": 28.837090425,
                        "value": 0
                    },
                    {
                        "number": 64,
                        "time": 28.931308981249998,
                        "value": 1
                    },
                    {
                        "number": 64,
                        "time": 29.81862,
                        "value": 0
                    },
                    {
                        "number": 64,
                        "time": 29.94286425,
                        "value": 1
                    },
                    {
                        "number": 64,
                        "time": 31.806528,
                        "value": 0
                    },
                    {
                        "number": 64,
                        "time": 31.93077225,
                        "value": 1
                    },
                    {
                        "number": 64,
                        "time": 33.79961284375,
                        "value": 0
                    },
                    {
                        "number": 64,
                        "time": 33.9248924625,
                        "value": 1
                    },
                    {
                        "number": 64,
                        "time": 34.3017666875,
                        "value": 0
                    },
                    {
                        "number": 64,
                        "time": 34.3804547125,
                        "value": 1
                    },
                    {
                        "number": 64,
                        "time": 34.800814425,
                        "value": 0
                    },
                    {
                        "number": 64,
                        "time": 34.89503298125,
                        "value": 1
                    },
                    {
                        "number": 64,
                        "time": 35.298826793749996,
                        "value": 0
                    },
                    {
                        "number": 64,
                        "time": 35.368196499999996,
                        "value": 1
                    },
                    {
                        "number": 64,
                        "time": 35.787520843749995,
                        "value": 0
                    },
                    {
                        "number": 64,
                        "time": 35.912800462499995,
                        "value": 1
                    },
                    {
                        "number": 64,
                        "time": 36.788722424999996,
                        "value": 0
                    },
                    {
                        "number": 64,
                        "time": 36.882940981249995,
                        "value": 1
                    },
                    {
                        "number": 64,
                        "time": 37.77542884374999,
                        "value": 0
                    },
                    {
                        "number": 64,
                        "time": 37.90070846249999,
                        "value": 1
                    },
                    {
                        "number": 64,
                        "time": 38.77663042499999,
                        "value": 0
                    },
                    {
                        "number": 64,
                        "time": 38.87084898124999,
                        "value": 1
                    },
                    {
                        "number": 64,
                        "time": 39.75815999999999,
                        "value": 0
                    },
                    {
                        "number": 64,
                        "time": 39.882404249999986,
                        "value": 1
                    },
                    {
                        "number": 64,
                        "time": 40.76143231874999,
                        "value": 0
                    },
                    {
                        "number": 64,
                        "time": 40.852544768749986,
                        "value": 1
                    },
                    {
                        "number": 64,
                        "time": 41.758492424999986,
                        "value": 0
                    },
                    {
                        "number": 64,
                        "time": 41.95107101249999,
                        "value": 1
                    },
                    {
                        "number": 64,
                        "time": 42.75244642499999,
                        "value": 0
                    },
                    {
                        "number": 64,
                        "time": 42.95952017499999,
                        "value": 1
                    },
                    {
                        "number": 64,
                        "time": 43.74018821249999,
                        "value": 0
                    },
                    {
                        "number": 64,
                        "time": 43.81680549999999,
                        "value": 1
                    },
                    {
                        "number": 64,
                        "time": 44.727929999999986,
                        "value": 0
                    },
                    {
                        "number": 64,
                        "time": 45.313948712499986,
                        "value": 1
                    },
                    {
                        "number": 64,
                        "time": 45.72706084374999,
                        "value": 0
                    },
                    {
                        "number": 64,
                        "time": 45.85234046249999,
                        "value": 1
                    },
                    {
                        "number": 64,
                        "time": 46.22921468749999,
                        "value": 0
                    },
                    {
                        "number": 64,
                        "time": 46.30790271249999,
                        "value": 1
                    },
                    {
                        "number": 64,
                        "time": 46.72826242499999,
                        "value": 0
                    },
                    {
                        "number": 64,
                        "time": 46.82248098124999,
                        "value": 1
                    },
                    {
                        "number": 64,
                        "time": 47.22627479374999,
                        "value": 0
                    },
                    {
                        "number": 64,
                        "time": 47.29564449999999,
                        "value": 1
                    },
                    {
                        "number": 64,
                        "time": 47.709791999999986,
                        "value": 0
                    },
                    {
                        "number": 64,
                        "time": 47.79262149999999,
                        "value": 1
                    },
                    {
                        "number": 64,
                        "time": 48.70374599999999,
                        "value": 0
                    },
                    {
                        "number": 64,
                        "time": 49.28976471249999,
                        "value": 1
                    },
                    {
                        "number": 64,
                        "time": 49.69769999999999,
                        "value": 0
                    },
                    {
                        "number": 64,
                        "time": 49.78052949999999,
                        "value": 1
                    },
                    {
                        "number": 64,
                        "time": 50.69165399999999,
                        "value": 0
                    },
                    {
                        "number": 64,
                        "time": 51.27767271249999,
                        "value": 1
                    },
                    {
                        "number": 64,
                        "time": 51.685607999999995,
                        "value": 0
                    },
                    {
                        "number": 64,
                        "time": 51.7684375,
                        "value": 1
                    },
                    {
                        "number": 64,
                        "time": 52.679562,
                        "value": 0
                    },
                    {
                        "number": 64,
                        "time": 53.2655807125,
                        "value": 1
                    },
                    {
                        "number": 64,
                        "time": 53.67869284375,
                        "value": 0
                    },
                    {
                        "number": 64,
                        "time": 53.8039724625,
                        "value": 1
                    },
                    {
                        "number": 64,
                        "time": 54.679894425,
                        "value": 0
                    },
                    {
                        "number": 64,
                        "time": 54.77411298125,
                        "value": 1
                    },
                    {
                        "number": 64,
                        "time": 55.66660084375,
                        "value": 0
                    },
                    {
                        "number": 64,
                        "time": 55.791880462499996,
                        "value": 1
                    },
                    {
                        "number": 64,
                        "time": 56.667802425,
                        "value": 0
                    },
                    {
                        "number": 64,
                        "time": 56.76202098125,
                        "value": 1
                    },
                    {
                        "number": 64,
                        "time": 57.289023674999996,
                        "value": 0
                    },
                    {
                        "number": 64,
                        "time": 57.649331999999994,
                        "value": 1
                    },
                    {
                        "number": 64,
                        "time": 59.64241684374999,
                        "value": 0
                    },
                    {
                        "number": 64,
                        "time": 59.76769646249999,
                        "value": 1
                    },
                    {
                        "number": 64,
                        "time": 60.14457068749999,
                        "value": 0
                    },
                    {
                        "number": 64,
                        "time": 60.22325871249999,
                        "value": 1
                    },
                    {
                        "number": 64,
                        "time": 60.64361842499999,
                        "value": 0
                    },
                    {
                        "number": 64,
                        "time": 60.73783698124999,
                        "value": 1
                    },
                    {
                        "number": 64,
                        "time": 61.14163079374999,
                        "value": 0
                    },
                    {
                        "number": 64,
                        "time": 61.21100049999999,
                        "value": 1
                    },
                    {
                        "number": 64,
                        "time": 61.63032484374999,
                        "value": 0
                    },
                    {
                        "number": 64,
                        "time": 61.75560446249999,
                        "value": 1
                    },
                    {
                        "number": 64,
                        "time": 62.63152642499999,
                        "value": 0
                    },
                    {
                        "number": 64,
                        "time": 62.72574498124999,
                        "value": 1
                    },
                    {
                        "number": 64,
                        "time": 63.613055999999986,
                        "value": 0
                    },
                    {
                        "number": 64,
                        "time": 63.73730024999998,
                        "value": 1
                    },
                    {
                        "number": 64,
                        "time": 65.60096399999998,
                        "value": 0
                    },
                    {
                        "number": 64,
                        "time": 65.72520824999998,
                        "value": 1
                    },
                    {
                        "number": 64,
                        "time": 67.59404884374997,
                        "value": 0
                    },
                    {
                        "number": 64,
                        "time": 67.71932846249997,
                        "value": 1
                    },
                    {
                        "number": 64,
                        "time": 68.09620268749997,
                        "value": 0
                    },
                    {
                        "number": 64,
                        "time": 68.17489071249997,
                        "value": 1
                    },
                    {
                        "number": 64,
                        "time": 68.59525042499997,
                        "value": 0
                    },
                    {
                        "number": 64,
                        "time": 68.68946898124997,
                        "value": 1
                    },
                    {
                        "number": 64,
                        "time": 69.09326279374997,
                        "value": 0
                    },
                    {
                        "number": 64,
                        "time": 69.16263249999997,
                        "value": 1
                    },
                    {
                        "number": 64,
                        "time": 69.58195684374998,
                        "value": 0
                    },
                    {
                        "number": 64,
                        "time": 69.70723646249998,
                        "value": 1
                    },
                    {
                        "number": 64,
                        "time": 70.58315842499998,
                        "value": 0
                    },
                    {
                        "number": 64,
                        "time": 70.67737698124998,
                        "value": 1
                    },
                    {
                        "number": 64,
                        "time": 71.56986484374998,
                        "value": 0
                    },
                    {
                        "number": 64,
                        "time": 71.69514446249998,
                        "value": 1
                    },
                    {
                        "number": 64,
                        "time": 72.57106642499998,
                        "value": 0
                    },
                    {
                        "number": 64,
                        "time": 72.66528498124998,
                        "value": 1
                    },
                    {
                        "number": 64,
                        "time": 73.55259599999998,
                        "value": 0
                    },
                    {
                        "number": 64,
                        "time": 73.67684024999998,
                        "value": 1
                    },
                    {
                        "number": 64,
                        "time": 74.55586831874999,
                        "value": 0
                    },
                    {
                        "number": 64,
                        "time": 74.64698076874998,
                        "value": 1
                    },
                    {
                        "number": 64,
                        "time": 75.55292842499999,
                        "value": 0
                    },
                    {
                        "number": 64,
                        "time": 75.74550701249998,
                        "value": 1
                    },
                    {
                        "number": 64,
                        "time": 76.54688242499998,
                        "value": 0
                    },
                    {
                        "number": 64,
                        "time": 76.75395617499998,
                        "value": 1
                    },
                    {
                        "number": 64,
                        "time": 77.53462421249999,
                        "value": 0
                    },
                    {
                        "number": 64,
                        "time": 77.61124149999999,
                        "value": 1
                    },
                    {
                        "number": 64,
                        "time": 78.52236599999999,
                        "value": 0
                    },
                    {
                        "number": 64,
                        "time": 79.1083847125,
                        "value": 1
                    },
                    {
                        "number": 64,
                        "time": 79.52149684375,
                        "value": 0
                    },
                    {
                        "number": 64,
                        "time": 79.6467764625,
                        "value": 1
                    },
                    {
                        "number": 64,
                        "time": 80.0236506875,
                        "value": 0
                    },
                    {
                        "number": 64,
                        "time": 80.1023387125,
                        "value": 1
                    },
                    {
                        "number": 64,
                        "time": 80.522698425,
                        "value": 0
                    },
                    {
                        "number": 64,
                        "time": 80.61691698125,
                        "value": 1
                    },
                    {
                        "number": 64,
                        "time": 81.02071079375,
                        "value": 0
                    },
                    {
                        "number": 64,
                        "time": 81.0900805,
                        "value": 1
                    },
                    {
                        "number": 64,
                        "time": 81.504228,
                        "value": 0
                    },
                    {
                        "number": 64,
                        "time": 81.5870575,
                        "value": 1
                    },
                    {
                        "number": 64,
                        "time": 82.498182,
                        "value": 0
                    },
                    {
                        "number": 64,
                        "time": 83.0842007125,
                        "value": 1
                    },
                    {
                        "number": 64,
                        "time": 83.492136,
                        "value": 0
                    },
                    {
                        "number": 64,
                        "time": 83.5749655,
                        "value": 1
                    },
                    {
                        "number": 64,
                        "time": 84.48609,
                        "value": 0
                    },
                    {
                        "number": 64,
                        "time": 85.07210871250001,
                        "value": 1
                    },
                    {
                        "number": 64,
                        "time": 85.480044,
                        "value": 0
                    },
                    {
                        "number": 64,
                        "time": 85.56287350000001,
                        "value": 1
                    },
                    {
                        "number": 64,
                        "time": 86.47399800000001,
                        "value": 0
                    },
                    {
                        "number": 64,
                        "time": 87.06001671250002,
                        "value": 1
                    },
                    {
                        "number": 64,
                        "time": 87.47312884375002,
                        "value": 0
                    },
                    {
                        "number": 64,
                        "time": 87.59840846250002,
                        "value": 1
                    },
                    {
                        "number": 64,
                        "time": 88.47433042500002,
                        "value": 0
                    },
                    {
                        "number": 64,
                        "time": 88.56854898125002,
                        "value": 1
                    },
                    {
                        "number": 64,
                        "time": 89.46103684375002,
                        "value": 0
                    },
                    {
                        "number": 64,
                        "time": 89.58631646250002,
                        "value": 1
                    },
                    {
                        "number": 64,
                        "time": 90.61547300000002,
                        "value": 0
                    },
                    {
                        "number": 64,
                        "time": 91.44894484375003,
                        "value": 0
                    },
                    {
                        "number": 64,
                        "time": 91.57422446250003,
                        "value": 1
                    },
                    {
                        "number": 64,
                        "time": 92.45014642500003,
                        "value": 0
                    },
                    {
                        "number": 64,
                        "time": 92.54436498125003,
                        "value": 1
                    },
                    {
                        "number": 64,
                        "time": 93.43685284375003,
                        "value": 0
                    },
                    {
                        "number": 64,
                        "time": 93.56213246250003,
                        "value": 1
                    },
                    {
                        "number": 64,
                        "time": 94.43805442500003,
                        "value": 0
                    },
                    {
                        "number": 64,
                        "time": 94.53227298125003,
                        "value": 1
                    },
                    {
                        "number": 64,
                        "time": 95.41958400000003,
                        "value": 0
                    }
                ]
            },
            "id": 3,
            "name": "Pedale",
            "instrumentNumber": 0,
            "instrument": "acoustic grand piano",
            "instrumentFamily": "piano",
            "channelNumber": 0,
            "isPercussion": false
        },
        {
            "startTime": 0,
            "duration": 0,
            "length": 0,
            "notes": [],
            "controlChanges": {},
            "id": 4,
            "name": "Grieg: Lyric Pieces Op. 43 No. 1 - Butterfly"
        },
        {
            "startTime": 0,
            "duration": 0,
            "length": 0,
            "notes": [],
            "controlChanges": {},
            "id": 5,
            "name": "Copyright © 2007 by Bernd Krueger"
        },
        {
            "startTime": 0,
            "duration": 0,
            "length": 0,
            "notes": [],
            "controlChanges": {},
            "id": 6,
            "name": "http://www.piano-midi.de/"
        },
        {
            "startTime": 0,
            "duration": 0,
            "length": 0,
            "notes": [],
            "controlChanges": {},
            "id": 7,
            "name": "Edition: 2012-11-04"
        },
        {
            "startTime": 0,
            "duration": 0,
            "length": 0,
            "notes": [],
            "controlChanges": {},
            "id": 8,
            "name": "Spur 8"
        },
        {
            "startTime": 0,
            "duration": 0,
            "length": 0,
            "notes": [],
            "controlChanges": {},
            "id": 9,
            "name": "Spur 9"
        },
        {
            "startTime": 0,
            "duration": 0,
            "length": 0,
            "notes": [],
            "controlChanges": {},
            "id": 10,
            "name": "Spur 10"
        },
        {
            "startTime": 0,
            "duration": 0,
            "length": 0,
            "notes": [],
            "controlChanges": {},
            "id": 11,
            "name": "Spur 11"
        },
        {
            "startTime": 0,
            "duration": 0,
            "length": 0,
            "notes": [],
            "controlChanges": {},
            "id": 12,
            "name": "Spur 12"
        },
        {
            "startTime": 0,
            "duration": 0,
            "length": 0,
            "notes": [],
            "controlChanges": {},
            "id": 13,
            "name": "Spur 13"
        },
        {
            "startTime": 0,
            "duration": 0,
            "length": 0,
            "notes": [],
            "controlChanges": {},
            "id": 14,
            "name": "Spur 14"
        },
        {
            "startTime": 0,
            "duration": 0,
            "length": 0,
            "notes": [],
            "controlChanges": {},
            "id": 15,
            "name": "Spur 15"
        },
        {
            "startTime": 0,
            "duration": 0,
            "length": 0,
            "notes": [],
            "controlChanges": {},
            "id": 16,
            "name": "Spur 16"
        }
    ]
}